<svg width="16" height="16" viewBox="0 0 16 16" fill="none" xmlns="http://www.w3.org/2000/svg">
  <path fill-rule="evenodd" clip-rule="evenodd" d="M1 1.5V3.5C1 3.77614 1.22386 4 1.5 4H3.5C3.77614 4 4 3.77614 4 3.5V1.5C4 1.22386 3.77614 1 3.5 1H1.5C1.22386 1 1 1.22386 1 1.5ZM2 3H3V2H2V3Z" fill="#6C707E"/>
  <path fill-rule="evenodd" clip-rule="evenodd" d="M1 14V11C1 10.4477 1.44772 10 2 10H5C5.55228 10 6 10.4477 6 11V14C6 14.5523 5.55228 15 5 15H2C1.44772 15 1 14.5523 1 14ZM2 11V14H5V11H2Z" fill="#6C707E"/>
  <path fill-rule="evenodd" clip-rule="evenodd" d="M10 2C10 1.44772 10.4477 1 11 1H14C14.5523 1 15 1.44772 15 2V5C15 5.55228 14.5523 6 14 6H11C10.4477 6 10 5.55228 10 5V2ZM11 5H14V2L11 2V5Z" fill="#6C707E"/>
  <path d="M5 2.5C5 2.22386 5.22386 2 5.5 2H8.5C8.77614 2 9 2.22386 9 2.5C9 2.77614 8.77614 3 8.5 3H5.5C5.22386 3 5 2.77614 5 2.5Z" fill="#6C707E"/>
  <path d="M2.5 5C2.77614 5 3 5.22386 3 5.5V8.5C3 8.77614 2.77614 9 2.5 9C2.22386 9 2 8.77614 2 8.5V5.5C2 5.22386 2.22386 5 2.5 5Z" fill="#6C707E"/>

  <path d="M10.7127 14.7107C10.4717 14.1134 10.3093 13.3479 10.2631 12.5H9.04102C9.2053 13.4792 9.84398 14.2976 10.7127 14.7107Z" fill="#EBECF0"/>
  <path d="M11.6783 14.4276C11.4715 13.955 11.3129 13.285 11.2647 12.5H12.7343C12.6861 13.285 12.5276 13.955 12.3208 14.4276C12.202 14.6991 12.085 14.8652 11.9995 14.9529C11.9141 14.8652 11.797 14.6991 11.6783 14.4276Z" fill="#EBECF0"/>
  <path d="M11.6783 9.57238C11.4715 10.0449 11.3129 10.715 11.2647 11.5H12.7343C12.6861 10.715 12.5276 10.0449 12.3208 9.57238C12.202 9.30087 12.085 9.13482 11.9995 9.04712C11.9141 9.13482 11.797 9.30087 11.6783 9.57238Z" fill="#EBECF0"/>
  <path d="M13.2864 14.7107C13.5274 14.1134 13.6897 13.3479 13.736 12.5H14.9581C14.7938 13.4792 14.1551 14.2976 13.2864 14.7107Z" fill="#EBECF0"/>
  <path d="M13.736 11.5H14.9581C14.7938 10.5207 14.1551 9.70236 13.2864 9.28924C13.5274 9.88657 13.6897 10.6521 13.736 11.5Z" fill="#EBECF0"/>
  <path d="M9.04102 11.5H10.2631C10.3093 10.6521 10.4717 9.88657 10.7127 9.28924C9.84398 9.70236 9.2053 10.5207 9.04102 11.5Z" fill="#EBECF0"/>
  <path fill-rule="evenodd" clip-rule="evenodd" d="M16 12C16 9.79086 14.2091 8 12 8C9.79086 8 8 9.79086 8 12C8 14.2091 9.79086 16 12 16C14.2091 16 16 14.2091 16 12ZM10.2635 12.5C10.3098 13.3479 10.4722 14.1134 10.7131 14.7107C9.84445 14.2976 9.20577 13.4792 9.04148 12.5H10.2635ZM11.2652 12.5C11.3134 13.285 11.472 13.955 11.6787 14.4276C11.7975 14.6991 11.9146 14.8652 12 14.9529C12.0854 14.8652 12.2025 14.6991 12.3213 14.4276C12.528 13.955 12.6866 13.285 12.7348 12.5H11.2652ZM12.7348 11.5H11.2652C11.3134 10.715 11.472 10.045 11.6787 9.57239C11.7975 9.30089 11.9146 9.13483 12 9.04713C12.0854 9.13483 12.2025 9.30089 12.3213 9.57239C12.528 10.045 12.6866 10.715 12.7348 11.5ZM13.7365 12.5C13.6902 13.3479 13.5278 14.1134 13.2869 14.7107C14.1556 14.2976 14.7942 13.4792 14.9585 12.5H13.7365ZM14.9585 11.5H13.7365C13.6902 10.6521 13.5278 9.88659 13.2869 9.28925C14.1556 9.70237 14.7942 10.5208 14.9585 11.5ZM10.2635 11.5H9.04148C9.20577 10.5208 9.84445 9.70237 10.7131 9.28925C10.4722 9.88659 10.3098 10.6521 10.2635 11.5Z" fill="#6C707E"/>
</svg>
