<svg width="16" height="16" viewBox="0 0 16 16" fill="none" xmlns="http://www.w3.org/2000/svg">
<path d="M4 2.5H6C6.27614 2.5 6.5 2.72386 6.5 3V13C6.5 13.2761 6.27614 13.5 6 13.5H4C3.17157 13.5 2.5 12.8284 2.5 12V4C2.5 3.17157 3.17157 2.5 4 2.5Z" fill="#EDF3FF" stroke="#3574F0"/>
<path d="M9 2.5H12C12.8284 2.5 13.5 3.17157 13.5 4V8C13.5 8.27614 13.2761 8.5 13 8.5H9C8.72386 8.5 8.5 8.27614 8.5 8V3C8.5 2.72386 8.72386 2.5 9 2.5Z" fill="#EBECF0" stroke="#6C707E"/>
<path d="M9 10.5H13C13.2761 10.5 13.5 10.7239 13.5 11V12C13.5 12.8284 12.8284 13.5 12 13.5H9C8.72386 13.5 8.5 13.2761 8.5 13V11C8.5 10.7239 8.72386 10.5 9 10.5Z" fill="#EBECF0" stroke="#6C707E"/>
</svg>
