<svg width="128" height="128" viewBox="0 0 128 128" fill="none" xmlns="http://www.w3.org/2000/svg">
<path d="M120.2 94.5L122 44.2L90 37L62.8 55.2L75.5 92.5L120.2 94.5Z" fill="url(#paint0_linear)"/>
<path d="M120.2 94.5002L122 44.2002L113.1 67.6002L120.2 94.5002Z" fill="url(#paint1_linear)"/>
<path d="M113.1 67.5998L122 44.1998L90.5 30.2998L55 63.1998L113.1 67.5998Z" fill="url(#paint2_linear)"/>
<path d="M113.1 67.5998L122 44.1998L90.5 30.2998L55 63.1998L113.1 67.5998Z" fill="url(#paint3_linear)"/>
<path d="M86 69.4998L90.5 30.2998L55 63.1998L86 69.4998Z" fill="url(#paint4_linear)"/>
<path d="M80.2 122L120.2 94.4998L24.1 51.7998L6 103.3L80.2 122Z" fill="url(#paint5_linear)"/>
<path d="M57.5 75.7998L24.1 51.7998L6 103.3L57.5 75.7998Z" fill="url(#paint6_linear)"/>
<path d="M120.2 94.4996L80.2 122L113.1 67.5996L120.2 94.4996Z" fill="url(#paint7_linear)"/>
<path d="M120.2 94.5004L80.2 122L101.7 86.4004L120.2 94.5004Z" fill="url(#paint8_linear)"/>
<path d="M6 50.3L69.9 99.1L113.1 67.6L64.1 13.2L21.4 6L6 50.3Z" fill="url(#paint9_linear)"/>
<path d="M51.8999 85.2998L69.8999 99.0998L113.1 67.5998L69.2999 50.2998L51.8999 85.2998Z" fill="url(#paint10_linear)"/>
<path d="M87.4001 57.3998L69.3 50.2998L74.9001 64.8998L86.5 65.6998L87.4001 57.3998Z" fill="url(#paint11_linear)"/>
<path d="M86.5 65.7004L113.1 67.6004L87.4 57.4004L86.5 65.7004Z" fill="url(#paint12_linear)"/>
<path d="M87.4001 57.3998L69.3 50.2998L84.8001 78.2998L87.4001 57.3998Z" fill="url(#paint13_linear)"/>
<path d="M6 50.3002L69.9 99.1002L38.3 41.2002L6 50.3002Z" fill="url(#paint14_linear)"/>
<path d="M20.7 61.4998L69.9 99.0998L50.5 63.5998L24.1 51.7998L20.7 61.4998Z" fill="url(#paint15_linear)"/>
<path d="M113.1 67.5996L69.8999 99.0996L81.9999 119.7L113.1 67.5996Z" fill="url(#paint16_linear)"/>
<path d="M51.8999 85.3002L69.8999 99.1002L56.8999 75.2002L51.8999 85.3002Z" fill="url(#paint17_linear)"/>
<path d="M6 50.3L38.3 41.2L64.1 13.2L21.4 6L6 50.3Z" fill="url(#paint18_linear)"/>
<path d="M64.1 13.2002L48 30.6002L69.3 50.3002L113.1 67.6002L64.1 13.2002Z" fill="url(#paint19_linear)"/>
<path d="M69.1001 50.1004L69.3001 50.3004L87.4001 57.4004L89.3001 41.2004L84.5001 35.9004L69.1001 50.1004Z" fill="url(#paint20_linear)"/>
<path d="M64.0999 13.2L21.3999 6L47.9999 30.6L64.0999 13.2Z" fill="url(#paint21_linear)"/>
<path d="M6 50.3L38.3 41.2L64.1 13.2L21.4 6L6 50.3Z" fill="url(#paint22_linear)"/>
<path d="M100 28H28V100H100V28Z" fill="url(#paint23_linear)"/>
<g opacity="0.3">
<path opacity="0.3" d="M100 76.7L28 53.5V100H100V76.7Z" fill="url(#paint24_linear)"/>
<path opacity="0.3" d="M28 91.5L57.5 75.7L28 54.5V91.5Z" fill="url(#paint25_linear)"/>
<path opacity="0.3" d="M100 34.7996L90.4 30.5996L55 63.1996L100 66.5996V34.7996Z" fill="url(#paint26_linear)"/>
<path opacity="0.3" d="M77.1 28H50.7L38.5 41.3L69.9 98.8L100 76.8V53.4L77.1 28Z" fill="url(#paint27_linear)"/>
<path opacity="0.3" d="M28 66.8998L69.9 98.7998L38.5 41.2998L28 44.2998V66.8998Z" fill="url(#paint28_linear)"/>
<path opacity="0.3" d="M38.5 41.3L50.7 28H28V44.3L38.5 41.3Z" fill="url(#paint29_linear)"/>
</g>
<path d="M63.9999 86.4004H36.8999V90.9004H63.9999V86.4004Z" fill="white"/>
<path d="M37 37H48.0234C54.4786 37 58.3517 40.7738 58.3517 46.3352V46.4345C58.3517 52.691 53.4855 55.869 47.4276 55.869H42.9586V63.9131H37V37V37ZM47.6262 50.5062C50.6055 50.5062 52.2938 48.7186 52.2938 46.4345V46.3352C52.2938 43.6538 50.4069 42.2634 47.5269 42.2634H42.9586V50.5062H47.6262Z" fill="white"/>
<path d="M58 60.1147L61.7196 55.9966C63.2694 57.6792 64.7307 58.6534 66.5905 58.6534C68.8046 58.6534 70.1773 57.325 70.1773 54.2253V37H76.2438V54.491C76.2438 57.6792 75.3139 60.0261 73.7198 61.6203C72.0814 63.2587 69.6902 64.1 66.7676 64.1C62.6052 64.1 59.8598 62.2845 58 60.1147Z" fill="white"/>
<defs>
<linearGradient id="paint0_linear" x1="105.065" y1="86.6469" x2="88.2583" y2="38.0956" gradientUnits="userSpaceOnUse">
<stop offset="0.000825369" stop-color="#FF318C"/>
<stop offset="1" stop-color="#FE6C54"/>
</linearGradient>
<linearGradient id="paint1_linear" x1="136.286" y1="67.3506" x2="95.871" y2="72.655" gradientUnits="userSpaceOnUse">
<stop offset="0.3305" stop-color="#FF318C"/>
<stop offset="0.9422" stop-color="#B045ED"/>
</linearGradient>
<linearGradient id="paint2_linear" x1="108.977" y1="33.6566" x2="90.5899" y2="57.0076" gradientUnits="userSpaceOnUse">
<stop  offset="0" stop-color="#FF546A"/>
<stop offset="0.7814" stop-color="#FE764A"/>
</linearGradient>
<linearGradient id="paint3_linear" x1="128.023" y1="47.0621" x2="96.4493" y2="49.3354" gradientUnits="userSpaceOnUse">
<stop offset="0.1065" stop-color="#FCBCC3" stop-opacity="0.96"/>
<stop offset="0.7261" stop-color="#FF4694" stop-opacity="0.1407"/>
<stop offset="0.8325" stop-color="#FF318C" stop-opacity="0"/>
</linearGradient>
<linearGradient id="paint4_linear" x1="95.7547" y1="34.2232" x2="80.1699" y2="54.016" gradientUnits="userSpaceOnUse">
<stop offset="0.016776" stop-color="#61316F" stop-opacity="0"/>
<stop offset="0.8106" stop-color="#6B57FF"/>
</linearGradient>
<linearGradient id="paint5_linear" x1="103.332" y1="109.421" x2="18.6959" y2="78.8822" gradientUnits="userSpaceOnUse">
<stop offset="0.016776" stop-color="#FF318C"/>
<stop offset="0.8106" stop-color="#6B57FF"/>
</linearGradient>
<linearGradient id="paint6_linear" x1="38.5378" y1="113.206" x2="24.8979" y2="65.7192" gradientUnits="userSpaceOnUse">
<stop offset="0.016776" stop-color="#61316F"/>
<stop offset="0.8106" stop-color="#6B57FF"/>
</linearGradient>
<linearGradient id="paint7_linear" x1="116.966" y1="107.935" x2="75.4417" y2="81.0546" gradientUnits="userSpaceOnUse">
<stop offset="0.1555" stop-color="#FF318C"/>
<stop offset="1" stop-color="#6B57FF"/>
</linearGradient>
<linearGradient id="paint8_linear" x1="103.039" y1="82.9844" x2="100.951" y2="101.478" gradientUnits="userSpaceOnUse">
<stop offset="0.0655781" stop-color="#762784"/>
<stop offset="0.8106" stop-color="#FF318C" stop-opacity="0"/>
</linearGradient>
<linearGradient id="paint9_linear" x1="38.8437" y1="86.936" x2="74.8384" y2="23.361" gradientUnits="userSpaceOnUse">
<stop offset="0.3305" stop-color="#FF318C"/>
<stop offset="0.9422" stop-color="#FDB60D"/>
</linearGradient>
<linearGradient id="paint10_linear" x1="67.2444" y1="101.252" x2="91.6359" y2="58.1708" gradientUnits="userSpaceOnUse">
<stop offset="0.3305" stop-color="#FF318C"/>
<stop offset="0.9422" stop-color="#FDB60D"/>
</linearGradient>
<linearGradient id="paint11_linear" x1="98.318" y1="53.0028" x2="74.5743" y2="58.8124" gradientUnits="userSpaceOnUse">
<stop  offset="0" stop-color="#FF318C"/>
<stop offset="1" stop-color="#FDB60D" stop-opacity="0"/>
</linearGradient>
<linearGradient id="paint12_linear" x1="81.893" y1="56.7745" x2="112.366" y2="73.5982" gradientUnits="userSpaceOnUse">
<stop  offset="0" stop-color="#FF318C"/>
<stop offset="0.9422" stop-color="#FDB60D" stop-opacity="0"/>
</linearGradient>
<linearGradient id="paint13_linear" x1="99.7234" y1="58.7466" x2="75.9799" y2="64.5562" gradientUnits="userSpaceOnUse">
<stop offset="0.3296" stop-color="#FF318C"/>
<stop offset="1" stop-color="#FDB60D" stop-opacity="0"/>
</linearGradient>
<linearGradient id="paint14_linear" x1="34.1494" y1="81.4561" x2="51.5769" y2="50.6752" gradientUnits="userSpaceOnUse">
<stop offset="0.3305" stop-color="#FF318C"/>
<stop offset="0.9422" stop-color="#FDB60D"/>
</linearGradient>
<linearGradient id="paint15_linear" x1="15.2571" y1="85.9125" x2="57.4397" y2="72.02" gradientUnits="userSpaceOnUse">
<stop offset="0.3313" stop-color="#FF318C" stop-opacity="0"/>
<stop offset="0.9422" stop-color="#B045ED"/>
</linearGradient>
<linearGradient id="paint16_linear" x1="85.1914" y1="77.0818" x2="100.485" y2="97.6185" gradientUnits="userSpaceOnUse">
<stop offset="0.036877" stop-color="#FDB60D"/>
<stop offset="0.9422" stop-color="#FF318C" stop-opacity="0"/>
</linearGradient>
<linearGradient id="paint17_linear" x1="59.4181" y1="94.2054" x2="66.6003" y2="81.5201" gradientUnits="userSpaceOnUse">
<stop offset="0.3305" stop-color="#FF318C"/>
<stop offset="0.9422" stop-color="#B045ED"/>
</linearGradient>
<linearGradient id="paint18_linear" x1="21.3137" y1="54.9112" x2="41.0157" y2="13.2338" gradientUnits="userSpaceOnUse">
<stop offset="0.0839659" stop-color="#FF318C"/>
<stop offset="0.8747" stop-color="#FDB60D"/>
<stop offset="0.9935" stop-color="#FDCE0D"/>
</linearGradient>
<linearGradient id="paint19_linear" x1="58.8568" y1="70.0934" x2="83.8633" y2="45.0869" gradientUnits="userSpaceOnUse">
<stop offset="0.3305" stop-color="#FF318C"/>
<stop offset="0.9422" stop-color="#FDB60D"/>
</linearGradient>
<linearGradient id="paint20_linear" x1="95.3354" y1="78.8387" x2="78.4118" y2="43.9812" gradientUnits="userSpaceOnUse">
<stop offset="0.3305" stop-color="#FF318C"/>
<stop offset="0.9422" stop-color="#FDB60D"/>
</linearGradient>
<linearGradient id="paint21_linear" x1="35.5331" y1="35.521" x2="43.1108" y2="8.2412" gradientUnits="userSpaceOnUse">
<stop offset="0.0839659" stop-color="#FF318C"/>
<stop offset="0.6835" stop-color="#FDB60D"/>
<stop offset="1" stop-color="#FDCE0D"/>
</linearGradient>
<linearGradient id="paint22_linear" x1="74.3292" y1="26.8247" x2="28.8629" y2="27.8351" gradientUnits="userSpaceOnUse">
<stop  offset="0" stop-color="#FCF84A" stop-opacity="0.96"/>
<stop offset="1" stop-color="#FCF84A" stop-opacity="0"/>
</linearGradient>
<linearGradient id="paint23_linear" x1="28.106" y1="28.106" x2="92.7418" y2="92.7418" gradientUnits="userSpaceOnUse">
<stop  offset="0" stop-color="#7D2C38"/>
<stop offset="0.0123355" stop-color="#792B36"/>
<stop offset="0.1641" stop-color="#4E1B23"/>
<stop offset="0.311" stop-color="#2C1014"/>
<stop offset="0.4501" stop-color="#140709"/>
<stop offset="0.578" stop-color="#050202"/>
<stop offset="0.6844"/>
</linearGradient>
<linearGradient id="paint24_linear" x1="62.7211" y1="104.907" x2="65.1897" y2="50.5988" gradientUnits="userSpaceOnUse">
<stop offset="0.016776" stop-color="#642652"/>
<stop offset="0.8106" stop-color="#6B57FF"/>
</linearGradient>
<linearGradient id="paint25_linear" x1="47.8114" y1="101.172" x2="36.9186" y2="63.2491" gradientUnits="userSpaceOnUse">
<stop offset="0.016776" stop-color="#61316F"/>
<stop offset="0.8106" stop-color="#6B57FF"/>
</linearGradient>
<linearGradient id="paint26_linear" x1="100.837" y1="35.2369" x2="84.5007" y2="55.9842" gradientUnits="userSpaceOnUse">
<stop  offset="0" stop-color="#FF546A"/>
<stop offset="0.7814" stop-color="#7D321B"/>
</linearGradient>
<linearGradient id="paint27_linear" x1="71.792" y1="90.2117" x2="67.472" y2="18.0061" gradientUnits="userSpaceOnUse">
<stop offset="0.0889086" stop-color="#6C2259"/>
<stop offset="0.9422" stop-color="#FDB60D"/>
</linearGradient>
<linearGradient id="paint28_linear" x1="41.2195" y1="85.2216" x2="58.5266" y2="54.6531" gradientUnits="userSpaceOnUse">
<stop offset="0.3305" stop-color="#6D084A"/>
<stop offset="0.9422" stop-color="#FDB60D"/>
</linearGradient>
<linearGradient id="paint29_linear" x1="47.9171" y1="36.9995" x2="16.7515" y2="33.9138" gradientUnits="userSpaceOnUse">
<stop  offset="0" stop-color="#FDB60D" stop-opacity="0.96"/>
<stop offset="0.8913" stop-color="#FF407E" stop-opacity="0.1044"/>
<stop offset="1" stop-color="#FF318C" stop-opacity="0"/>
</linearGradient>
</defs>
</svg>
