<svg width="16" height="16" viewBox="0 0 16 16" fill="none" xmlns="http://www.w3.org/2000/svg">
  <rect x="1" y="2" width="1" height="12" fill="#6E6E6E"/>
  <rect x="2" y="2" width="2" height="1" fill="#6E6E6E"/>
  <rect x="2" y="13" width="2" height="1" fill="#6E6E6E"/>
  <rect x="14" y="2" width="1" height="12" fill="#6E6E6E"/>
  <rect x="12" y="2" width="3" height="1" fill="#6E6E6E"/>
  <rect x="12" y="13" width="2" height="1" fill="#6E6E6E"/>
  <rect x="9.5" y="7" width="1.5" height="1.5" rx="0.75" fill="#6E6E6E"/>
  <rect x="9.5" y="9.5" width="1.5" height="1.5" rx="0.75" fill="#6E6E6E"/>
  <rect x="11.5" y="7" width="1.5" height="1.5" rx="0.75" fill="#6E6E6E"/>
  <rect x="11.5" y="9.5" width="1.5" height="1.5" rx="0.75" fill="#6E6E6E"/>
  <path d="M8.0082 9.14857L4.93443 5H4V11H4.9918V6.73143L8.15574 11H9V5H8.0082V9.14857Z" fill="#6E6E6E"/>
</svg>