<svg width="64" height="64" viewBox="0 0 64 64" fill="none" xmlns="http://www.w3.org/2000/svg">
<path d="M51.25 3L34.65 8.95L21.55 3L14.2 20.75L14.45 45.9L54.75 46.25L61 14.35L51.25 3Z" fill="url(#paint0_linear)"/>
<path d="M13.8501 40.65L56.9001 16.15L51.2501 3L34.6501 8.95L21.5501 3L13.8501 20.2V40.65Z" fill="url(#paint1_linear)"/>
<path d="M13.8501 40.65L56.9001 16.15L51.2501 3L34.6501 8.95L13.8501 40.65Z" fill="url(#paint2_linear)"/>
<path d="M60.7999 14.3L51.2499 3L34.6499 8.95L60.7999 14.3Z" fill="url(#paint3_linear)"/>
<path d="M56.9 16.15L54.75 46.25L61 14.35L56.9 16.15Z" fill="url(#paint4_linear)"/>
<path d="M51.25 3L56.9 16.15L61 14.35L51.25 3Z" fill="url(#paint5_linear)"/>
<path d="M47.1 21.75L24.25 8.09998L49.35 39.5L47.1 21.75Z" fill="url(#paint6_linear)"/>
<path d="M48.8 56.6L45.45 50.15L49.35 39.5L24.25 8.04999L3 13.25V43.7L15.25 61L48.8 56.6Z" fill="url(#paint7_linear)"/>
<path d="M20.15 45.95L3 13.25V43.7L15.25 61L20.15 45.95Z" fill="url(#paint8_linear)"/>
<path d="M20.15 45.95L22.8 38.65L3 43.7L15.25 61L20.15 45.95Z" fill="url(#paint9_linear)"/>
<path d="M20.15 45.95L3 13.25V43.7L15.25 61L20.15 45.95Z" fill="url(#paint10_linear)"/>
<path d="M20.15 46.05L15.25 61L48.8 56.6L20.15 46.05Z" fill="url(#paint11_linear)"/>
<path d="M20.1499 46.05L45.4499 50.15L48.7999 56.6L20.1499 46.05Z" fill="url(#paint12_linear)"/>
<path d="M15.25 61L45.45 50.15L48.8 56.6L15.25 61Z" fill="url(#paint13_linear)"/>
<path d="M48.8 56.6L45.45 50.15L38.25 52.7L48.8 56.6Z" fill="url(#paint14_linear)"/>
<path d="M24.2501 8.04999L11.6001 29.65L20.1501 45.95L46.9001 46.15L49.3501 39.5L24.2501 8.04999Z" fill="url(#paint15_linear)"/>
<path d="M20.1499 46.05L45.4499 50.15L49.3499 39.5L20.1499 46.05Z" fill="url(#paint16_linear)"/>
<path d="M3 13.25V43.7L3.15 43.9L3.2 43.95L11.6 29.7L3 13.25Z" fill="url(#paint17_linear)"/>
<path d="M24.25 8.04999L3 13.25L11.6 29.65L24.25 8.04999Z" fill="url(#paint18_linear)"/>
<path d="M18.7 9.44999L10.45 27.5L11.6 29.65L24.25 8.04999L18.7 9.44999Z" fill="url(#paint19_linear)"/>
<path d="M13.8501 25.95V33.85L16.5501 39.1L38.7501 26.25L24.2501 8.04999L13.8501 25.95Z" fill="url(#paint20_linear)"/>
<path d="M50 14H14V50H50V14Z" fill="url(#paint21_linear)"/>
<g opacity="0.3">
<path opacity="0.3" d="M50 14H17.15L14 20.8V50H50V14Z" fill="url(#paint22_linear)"/>
<path opacity="0.3" d="M14 50H45.35L49.25 39.45L28.9 14H14V50Z" fill="url(#paint23_linear)"/>
<path opacity="0.3" d="M14 20.25V40.6L50 20.1V14H16.8L14 20.25Z" fill="url(#paint24_linear)"/>
<path opacity="0.3" d="M50 14H17.15L14 20.8V50H50V14Z" fill="url(#paint25_linear)"/>
<path opacity="0.3" d="M45.25 50L40.75 41.7L20.4 45.55L18.95 50H45.25Z" fill="url(#paint26_linear)"/>
<path opacity="0.3" d="M49.2499 39.45L46.9999 21.8L33.8999 14H28.8999L49.2499 39.45Z" fill="url(#paint27_linear)"/>
<path opacity="0.3" d="M20.9 14H14V25.8L20.9 14Z" fill="url(#paint28_linear)"/>
<path opacity="0.3" d="M14 20.1V25.8L14.7 24.65L20.9 14H16.8L14 20.1Z" fill="url(#paint29_linear)"/>
</g>
<path d="M31.9999 43.2H18.3999V45.4H31.9999V43.2Z" fill="white"/>
<path d="M31.7998 18.4H34.9998L38.5998 24.1L42.1998 18.4H45.3998V31.9H42.3998V23.1L38.5998 28.9H38.4998L34.6998 23.1V31.9H31.7998V18.4Z" fill="white"/>
<path d="M18.4999 18.4H24.6999C26.3999 18.4 27.6999 18.9 28.5999 19.8C29.3999 20.6 29.7999 21.6 29.7999 22.9C29.7999 24 29.4999 24.9 28.9999 25.6C28.4999 26.3 27.7999 26.8 26.8999 27.1L30.1999 31.9H26.6999L23.8999 27.7H21.3999V31.9H18.3999V18.4H18.4999ZM24.4999 24.9C25.1999 24.9 25.7999 24.7 26.1999 24.4C26.5999 24.1 26.7999 23.6 26.7999 23C26.7999 22.4 26.5999 21.9 26.1999 21.6C25.7999 21.3 25.1999 21.1 24.4999 21.1H21.4999V24.9H24.4999Z" fill="white"/>
<defs>
<linearGradient id="paint0_linear" x1="40.1838" y1="36.5466" x2="32.8549" y2="17.3081" gradientUnits="userSpaceOnUse">
<stop  offset="0" stop-color="#FE2857"/>
<stop offset="0.0562257" stop-color="#FE3052"/>
<stop offset="0.3252" stop-color="#FD533B"/>
<stop offset="0.5796" stop-color="#FC6C2A"/>
<stop offset="0.8114" stop-color="#FC7B20"/>
<stop offset="1" stop-color="#FC801D"/>
</linearGradient>
<linearGradient id="paint1_linear" x1="35.3798" y1="27.7421" x2="34.9858" y2="5.83645" gradientUnits="userSpaceOnUse">
<stop offset="0.3737" stop-color="#FEB51A"/>
<stop offset="0.4306" stop-color="#FEAD1A"/>
<stop offset="0.6448" stop-color="#FD941C"/>
<stop offset="0.8406" stop-color="#FC851D"/>
<stop offset="1" stop-color="#FC801D"/>
</linearGradient>
<linearGradient id="paint2_linear" x1="52.1796" y1="40.1886" x2="24.9145" y2="14.6712" gradientUnits="userSpaceOnUse">
<stop offset="0.3737" stop-color="#FEB51A"/>
<stop offset="0.417" stop-color="#FEAD1A"/>
<stop offset="0.5802" stop-color="#FD941C"/>
<stop offset="0.7294" stop-color="#FC851D"/>
<stop offset="0.8508" stop-color="#FC801D"/>
<stop offset="0.9836" stop-color="#F26522"/>
</linearGradient>
<linearGradient id="paint3_linear" x1="43.277" y1="3.15145" x2="48.077" y2="12.3229" gradientUnits="userSpaceOnUse">
<stop offset="0.0238963" stop-color="#FDB60D"/>
<stop offset="1" stop-color="#FF9600" stop-opacity="0"/>
</linearGradient>
<linearGradient id="paint4_linear" x1="58.9913" y1="45.4199" x2="56.7775" y2="15.4748" gradientUnits="userSpaceOnUse">
<stop offset="0.0133474" stop-color="#EE2A7B"/>
<stop offset="0.7157" stop-color="#FE2857"/>
<stop offset="0.9859" stop-color="#FC801D"/>
</linearGradient>
<linearGradient id="paint5_linear" x1="65.8274" y1="24.28" x2="50.6801" y2="4.3555" gradientUnits="userSpaceOnUse">
<stop  offset="0" stop-color="#FE2857"/>
<stop offset="0.1736" stop-color="#FE2C54"/>
<stop offset="0.1983" stop-color="#FE3051"/>
<stop offset="0.4268" stop-color="#FD533B"/>
<stop offset="0.6429" stop-color="#FC6C2A"/>
<stop offset="0.8398" stop-color="#FC7B20"/>
<stop offset="1" stop-color="#FC801D"/>
</linearGradient>
<linearGradient id="paint6_linear" x1="27.3475" y1="6.88263" x2="50.3015" y2="32.9825" gradientUnits="userSpaceOnUse">
<stop  offset="0" stop-color="#6B57FF"/>
<stop offset="1" stop-color="#FE2857"/>
</linearGradient>
<linearGradient id="paint7_linear" x1="2.7451" y1="12.6897" x2="40.0259" y2="60.0805" gradientUnits="userSpaceOnUse">
<stop offset="0.0417113" stop-color="#7D11EF"/>
<stop offset="0.1162" stop-color="#A019CB"/>
<stop offset="0.2019" stop-color="#C220A8"/>
<stop offset="0.283" stop-color="#DA268F"/>
<stop offset="0.3569" stop-color="#E92980"/>
<stop offset="0.417" stop-color="#EE2A7B"/>
<stop offset="1" stop-color="#F26522"/>
</linearGradient>
<linearGradient id="paint8_linear" x1="-5.0951" y1="19.0741" x2="21.8399" y2="53.3135" gradientUnits="userSpaceOnUse">
<stop offset="0.00149909" stop-color="#6B57FF"/>
<stop offset="0.2483" stop-color="#FE2857"/>
<stop offset="0.6853" stop-color="#FE2857"/>
</linearGradient>
<linearGradient id="paint9_linear" x1="13.1373" y1="31.9417" x2="12.5324" y2="57.045" gradientUnits="userSpaceOnUse">
<stop offset="0.00149909" stop-color="#FDB60D"/>
<stop offset="0.725" stop-color="#FE2857" stop-opacity="0"/>
</linearGradient>
<linearGradient id="paint10_linear" x1="17.7989" y1="32.8363" x2="9.31325" y2="37.0362" gradientUnits="userSpaceOnUse">
<stop offset="0.0238963" stop-color="#FF7100"/>
<stop offset="1" stop-color="#FF9600" stop-opacity="0"/>
</linearGradient>
<linearGradient id="paint11_linear" x1="25.055" y1="37.319" x2="33.6906" y2="63.9453" gradientUnits="userSpaceOnUse">
<stop offset="0.3361" stop-color="#FE2857"/>
<stop offset="0.3527" stop-color="#FE3052"/>
<stop offset="0.4321" stop-color="#FD533B"/>
<stop offset="0.5072" stop-color="#FC6C2A"/>
<stop offset="0.5757" stop-color="#FC7B20"/>
<stop offset="0.6313" stop-color="#FC801D"/>
<stop offset="0.9964" stop-color="#FFDE17"/>
</linearGradient>
<linearGradient id="paint12_linear" x1="28.486" y1="32.8489" x2="38.8007" y2="64.6524" gradientUnits="userSpaceOnUse">
<stop offset="0.2209" stop-color="#EE2A7B"/>
<stop offset="0.6985" stop-color="#F7941D"/>
</linearGradient>
<linearGradient id="paint13_linear" x1="29.5803" y1="51.272" x2="33.5125" y2="63.3961" gradientUnits="userSpaceOnUse">
<stop offset="0.092793" stop-color="#F15A29"/>
<stop offset="0.3888" stop-color="#FC801D"/>
<stop offset="1" stop-color="#FEC519"/>
</linearGradient>
<linearGradient id="paint14_linear" x1="27.5558" y1="57.308" x2="50.3156" y2="52.725" gradientUnits="userSpaceOnUse">
<stop offset="0.092793" stop-color="#F15A29"/>
<stop offset="0.3888" stop-color="#FC801D"/>
<stop offset="0.8214" stop-color="#FEC519"/>
<stop offset="0.9894" stop-color="#FCF84A"/>
</linearGradient>
<linearGradient id="paint15_linear" x1="19.8299" y1="53.9686" x2="40.6055" y2="18.528" gradientUnits="userSpaceOnUse">
<stop offset="0.0417113" stop-color="#7D11EF"/>
<stop offset="0.1162" stop-color="#A019CB"/>
<stop offset="0.2019" stop-color="#C220A8"/>
<stop offset="0.283" stop-color="#DA268F"/>
<stop offset="0.3569" stop-color="#E92980"/>
<stop offset="0.417" stop-color="#EE2A7B"/>
</linearGradient>
<linearGradient id="paint16_linear" x1="32.4185" y1="35.579" x2="38.801" y2="55.2584" gradientUnits="userSpaceOnUse">
<stop  offset="0" stop-color="#F7941D" stop-opacity="0"/>
<stop offset="0.5473" stop-color="#FB851D" stop-opacity="0.5473"/>
<stop offset="1" stop-color="#FC801D"/>
</linearGradient>
<linearGradient id="paint17_linear" x1="-4.4975" y1="14.8031" x2="10.1186" y2="41.4571" gradientUnits="userSpaceOnUse">
<stop offset="0.1915" stop-color="#7D11EF"/>
<stop offset="0.2818" stop-color="#A019CB"/>
<stop offset="0.3858" stop-color="#C220A8"/>
<stop offset="0.4842" stop-color="#DA268F"/>
<stop offset="0.5738" stop-color="#E92980"/>
<stop offset="0.6467" stop-color="#EE2A7B"/>
</linearGradient>
<linearGradient id="paint18_linear" x1="11.3558" y1="6.92004" x2="21.3786" y2="25.1977" gradientUnits="userSpaceOnUse">
<stop offset="0.1915" stop-color="#7D11EF"/>
<stop offset="0.2818" stop-color="#A019CB"/>
<stop offset="0.3858" stop-color="#C220A8"/>
<stop offset="0.4842" stop-color="#DA268F"/>
<stop offset="0.5738" stop-color="#E92980"/>
<stop offset="0.6467" stop-color="#EE2A7B"/>
<stop offset="1" stop-color="#F26522"/>
</linearGradient>
<linearGradient id="paint19_linear" x1="24.7753" y1="-3.07711" x2="11.701" y2="33.609" gradientUnits="userSpaceOnUse">
<stop offset="0.1915" stop-color="#7D11EF"/>
<stop offset="0.2818" stop-color="#A019CB"/>
<stop offset="0.3858" stop-color="#C220A8"/>
<stop offset="0.4842" stop-color="#DA268F"/>
<stop offset="0.5738" stop-color="#E92980"/>
<stop offset="0.6467" stop-color="#EE2A7B"/>
<stop offset="1" stop-color="#F26522"/>
</linearGradient>
<linearGradient id="paint20_linear" x1="38.1313" y1="36.5313" x2="10.6291" y2="16.4659" gradientUnits="userSpaceOnUse">
<stop offset="0.0417113" stop-color="#FFDE17"/>
<stop offset="0.0429608" stop-color="#FFDD18"/>
<stop offset="0.1145" stop-color="#FAA736"/>
<stop offset="0.1843" stop-color="#F67A4E"/>
<stop offset="0.2509" stop-color="#F25762"/>
<stop offset="0.3136" stop-color="#F03E70"/>
<stop offset="0.3706" stop-color="#EE2F78"/>
<stop offset="0.417" stop-color="#EE2A7B"/>
</linearGradient>
<linearGradient id="paint21_linear" x1="8.51985" y1="13.6924" x2="49.6903" y2="45.7933" gradientUnits="userSpaceOnUse">
<stop offset="0.0108952" stop-color="#7C0F13"/>
<stop offset="0.0756282" stop-color="#6C0D11"/>
<stop offset="0.2517" stop-color="#45080B"/>
<stop offset="0.4263" stop-color="#270506"/>
<stop offset="0.5969" stop-color="#110203"/>
<stop offset="0.7616" stop-color="#040101"/>
<stop offset="0.9138"/>
</linearGradient>
<linearGradient id="paint22_linear" x1="48.9793" y1="51.5195" x2="28.1243" y2="27.5444" gradientUnits="userSpaceOnUse">
<stop  offset="0" stop-color="#801E02"/>
<stop offset="0.1961" stop-color="#AC410C"/>
<stop offset="0.3865" stop-color="#CF5C13"/>
<stop offset="0.5655" stop-color="#E87019"/>
<stop offset="0.7285" stop-color="#F77C1C"/>
<stop offset="0.8611" stop-color="#FC801D"/>
</linearGradient>
<linearGradient id="paint23_linear" x1="41.7259" y1="56.4972" x2="20.9745" y2="31.4257" gradientUnits="userSpaceOnUse">
<stop  offset="0" stop-color="#45002D"/>
<stop offset="0.06907" stop-color="#720B42"/>
<stop offset="0.1487" stop-color="#9E1656"/>
<stop offset="0.2255" stop-color="#C11F66"/>
<stop offset="0.2977" stop-color="#DA2572"/>
<stop offset="0.3635" stop-color="#E92979"/>
<stop offset="0.417" stop-color="#EE2A7B"/>
<stop offset="1" stop-color="#F26522"/>
</linearGradient>
<linearGradient id="paint24_linear" x1="19.8094" y1="18.2928" x2="32.6167" y2="27.7472" gradientUnits="userSpaceOnUse">
<stop offset="0.3737" stop-color="#FEB51A"/>
<stop offset="0.4306" stop-color="#FEAD1A"/>
<stop offset="0.6448" stop-color="#FD941C"/>
<stop offset="0.8406" stop-color="#FC851D"/>
<stop offset="1" stop-color="#FC801D"/>
</linearGradient>
<linearGradient id="paint25_linear" x1="22.8884" y1="11.3468" x2="38.9409" y2="47.7326" gradientUnits="userSpaceOnUse">
<stop  offset="0" stop-color="#FE2857"/>
<stop offset="0.0940498" stop-color="#E7254E"/>
<stop offset="0.3015" stop-color="#BB1E3D"/>
<stop offset="0.5015" stop-color="#98192F"/>
<stop offset="0.6896" stop-color="#7F1525"/>
<stop offset="0.8608" stop-color="#70131F"/>
<stop offset="1" stop-color="#6B121D"/>
</linearGradient>
<linearGradient id="paint26_linear" x1="48.9539" y1="42.5746" x2="16.3689" y2="53.066" gradientUnits="userSpaceOnUse">
<stop offset="0.0794007" stop-color="#70193B"/>
<stop offset="0.23" stop-color="#962D38"/>
<stop offset="0.4689" stop-color="#CE4B33"/>
<stop offset="0.6473" stop-color="#F05D30"/>
<stop offset="0.7435" stop-color="#FD642F"/>
</linearGradient>
<linearGradient id="paint27_linear" x1="58.4723" y1="42.3088" x2="24.5296" y2="4.046" gradientUnits="userSpaceOnUse">
<stop  offset="0" stop-color="#6B57FF"/>
<stop offset="1" stop-color="#FE2857"/>
</linearGradient>
<linearGradient id="paint28_linear" x1="13.7522" y1="13.1481" x2="19.3505" y2="23.3571" gradientUnits="userSpaceOnUse">
<stop offset="0.1915" stop-color="#7D11EF"/>
<stop offset="0.2818" stop-color="#A019CB"/>
<stop offset="0.3858" stop-color="#C220A8"/>
<stop offset="0.4842" stop-color="#DA268F"/>
<stop offset="0.5738" stop-color="#E92980"/>
<stop offset="0.6467" stop-color="#EE2A7B"/>
<stop offset="1" stop-color="#F26522"/>
</linearGradient>
<linearGradient id="paint29_linear" x1="20.7589" y1="7.7702" x2="13.6281" y2="27.7789" gradientUnits="userSpaceOnUse">
<stop offset="0.1915" stop-color="#7D11EF"/>
<stop offset="0.2818" stop-color="#A019CB"/>
<stop offset="0.3858" stop-color="#C220A8"/>
<stop offset="0.4842" stop-color="#DA268F"/>
<stop offset="0.5738" stop-color="#E92980"/>
<stop offset="0.6467" stop-color="#EE2A7B"/>
<stop offset="1" stop-color="#F26522"/>
</linearGradient>
</defs>
</svg>
