<svg width="32" height="32" viewBox="0 0 32 32" fill="none" xmlns="http://www.w3.org/2000/svg">
<path d="M25.6001 1.6L17.3001 4.5L10.8001 1.5L7.1001 10.4L7.3001 22.9L27.3001 23.1L30.5001 7.2L25.6001 1.6Z" fill="url(#paint0_linear)"/>
<path d="M7 20.3L28.4 8.09998L25.6 1.59998L17.3 4.49998L10.8 1.59998L7 10.1V20.3Z" fill="url(#paint1_linear)"/>
<path d="M7 20.3L28.4 8.09998L25.6 1.59998L17.3 4.49998L7 20.3Z" fill="url(#paint2_linear)"/>
<path d="M30.3 7.19998L25.6 1.59998L17.3 4.49998L30.3 7.19998Z" fill="url(#paint3_linear)"/>
<path d="M28.4 8.10001L27.3 23.1L30.5 7.20001L28.4 8.10001Z" fill="url(#paint4_linear)"/>
<path d="M25.6001 1.59998L28.4001 8.09998L30.5001 7.19998L25.6001 1.59998Z" fill="url(#paint5_linear)"/>
<path d="M23.5001 10.9L12.1001 4.09998L24.7001 19.7L23.5001 10.9Z" fill="url(#paint6_linear)"/>
<path d="M24.4 28.3L22.7 25L24.7 19.7L12.1 4.09998L1.5 6.69998L1.6 21.8L7.6 30.5L24.4 28.3Z" fill="url(#paint7_linear)"/>
<path d="M10.1 22.9L1.5 6.70001L1.6 21.8L7.6 30.5L10.1 22.9Z" fill="url(#paint8_linear)"/>
<path d="M10.1001 22.9L11.4001 19.3L1.6001 21.8L7.6001 30.5L10.1001 22.9Z" fill="url(#paint9_linear)"/>
<path d="M10.1 22.9L1.5 6.70001L1.6 21.8L7.6 30.5L10.1 22.9Z" fill="url(#paint10_linear)"/>
<path d="M10.1001 23L7.6001 30.5L24.4001 28.3L10.1001 23Z" fill="url(#paint11_linear)"/>
<path d="M10.1001 23L22.7001 25L24.4001 28.3L10.1001 23Z" fill="url(#paint12_linear)"/>
<path d="M7.6001 30.5L22.7001 25L24.4001 28.3L7.6001 30.5Z" fill="url(#paint13_linear)"/>
<path d="M24.4001 28.3L22.7001 25L19.1001 26.3L24.4001 28.3Z" fill="url(#paint14_linear)"/>
<path d="M12.1 4.09998L5.80005 14.8L10.1 22.9L23.4 23.1L24.7001 19.7L12.1 4.09998Z" fill="url(#paint15_linear)"/>
<path d="M10.1001 23L22.7001 25L24.7001 19.7L10.1001 23Z" fill="url(#paint16_linear)"/>
<path d="M1.6001 6.70001V21.8V21.9L5.8001 14.9L1.6001 6.70001Z" fill="url(#paint17_linear)"/>
<path d="M12.1001 4.09998L1.6001 6.69998L5.8001 14.8L12.1001 4.09998Z" fill="url(#paint18_linear)"/>
<path d="M9.40005 4.79998L5.30005 13.8L5.80005 14.8L12.1 4.09998L9.40005 4.79998Z" fill="url(#paint19_linear)"/>
<path d="M6.8999 13V16.9L8.2999 19.5L19.3999 13.1L12.0999 4.09998L6.8999 13Z" fill="url(#paint20_linear)"/>
<path d="M25 7H7V25H25V7Z" fill="url(#paint21_linear)"/>
<path d="M15.9001 21.4H9.1001V23H15.9001V21.4Z" fill="white"/>
<path d="M15.7 9.20001H17.3L19.1 12.1L20.9 9.20001H22.5V16H21V11.6L19.1 14.5L17.2 11.6V16H15.7V9.20001Z" fill="white"/>
<path d="M9 9.20001H12.1C13 9.20001 13.6 9.40001 14.1 9.90001C14.5 10.3 14.7 10.8 14.7 11.4C14.7 11.9 14.6 12.4 14.3 12.7C14 13 13.7 13.3 13.3 13.5L14.9 16H13.1L11.7 13.9H10.5V16H9V9.20001ZM12 12.5C12.4 12.5 12.6 12.4 12.8 12.2C13 12 13.1 11.8 13.1 11.5C13.1 11.2 13 10.9 12.8 10.8C12.7 10.7 12.4 10.6 12 10.6H10.5V12.5H12Z" fill="white"/>
<defs>
<linearGradient id="paint0_linear" x1="20.0779" y1="18.2654" x2="16.4261" y2="8.6794" gradientUnits="userSpaceOnUse">
<stop  offset="0" stop-color="#FE2857"/>
<stop offset="0.0562257" stop-color="#FE3052"/>
<stop offset="0.3252" stop-color="#FD533B"/>
<stop offset="0.5796" stop-color="#FC6C2A"/>
<stop offset="0.8114" stop-color="#FC7B20"/>
<stop offset="1" stop-color="#FC801D"/>
</linearGradient>
<linearGradient id="paint1_linear" x1="17.684" y1="13.8784" x2="17.4877" y2="2.96328" gradientUnits="userSpaceOnUse">
<stop offset="0.3737" stop-color="#FEB51A"/>
<stop offset="0.4306" stop-color="#FEAD1A"/>
<stop offset="0.6448" stop-color="#FD941C"/>
<stop offset="0.8406" stop-color="#FC851D"/>
<stop offset="1" stop-color="#FC801D"/>
</linearGradient>
<linearGradient id="paint2_linear" x1="26.0549" y1="20.0802" x2="12.4694" y2="7.36548" gradientUnits="userSpaceOnUse">
<stop offset="0.3737" stop-color="#FEB51A"/>
<stop offset="0.417" stop-color="#FEAD1A"/>
<stop offset="0.5802" stop-color="#FD941C"/>
<stop offset="0.7294" stop-color="#FC851D"/>
<stop offset="0.8508" stop-color="#FC801D"/>
<stop offset="0.9836" stop-color="#F26522"/>
</linearGradient>
<linearGradient id="paint3_linear" x1="21.6191" y1="1.62548" x2="24.0108" y2="6.19528" gradientUnits="userSpaceOnUse">
<stop offset="0.0238963" stop-color="#FDB60D"/>
<stop offset="1" stop-color="#FF9600" stop-opacity="0"/>
</linearGradient>
<linearGradient id="paint4_linear" x1="29.4491" y1="22.6868" x2="28.346" y2="7.76591" gradientUnits="userSpaceOnUse">
<stop offset="0.0133474" stop-color="#EE2A7B"/>
<stop offset="0.7157" stop-color="#FE2857"/>
<stop offset="0.9859" stop-color="#FC801D"/>
</linearGradient>
<linearGradient id="paint5_linear" x1="32.8555" y1="12.1533" x2="25.3079" y2="2.22538" gradientUnits="userSpaceOnUse">
<stop  offset="0" stop-color="#FE2857"/>
<stop offset="0.1736" stop-color="#FE2C54"/>
<stop offset="0.1983" stop-color="#FE3051"/>
<stop offset="0.4268" stop-color="#FD533B"/>
<stop offset="0.6429" stop-color="#FC6C2A"/>
<stop offset="0.8398" stop-color="#FC7B20"/>
<stop offset="1" stop-color="#FC801D"/>
</linearGradient>
<linearGradient id="paint6_linear" x1="13.6819" y1="3.48458" x2="25.1193" y2="16.4896" gradientUnits="userSpaceOnUse">
<stop  offset="0" stop-color="#6B57FF"/>
<stop offset="1" stop-color="#FE2857"/>
</linearGradient>
<linearGradient id="paint7_linear" x1="1.423" y1="6.37808" x2="19.9991" y2="29.9918" gradientUnits="userSpaceOnUse">
<stop offset="0.0417113" stop-color="#7D11EF"/>
<stop offset="0.1162" stop-color="#A019CB"/>
<stop offset="0.2019" stop-color="#C220A8"/>
<stop offset="0.283" stop-color="#DA268F"/>
<stop offset="0.3569" stop-color="#E92980"/>
<stop offset="0.417" stop-color="#EE2A7B"/>
<stop offset="1" stop-color="#F26522"/>
</linearGradient>
<linearGradient id="paint8_linear" x1="-2.4836" y1="9.55941" x2="10.9375" y2="26.62" gradientUnits="userSpaceOnUse">
<stop offset="0.00149909" stop-color="#6B57FF"/>
<stop offset="0.2483" stop-color="#FE2857"/>
<stop offset="0.6853" stop-color="#FE2857"/>
</linearGradient>
<linearGradient id="paint9_linear" x1="6.6013" y1="15.9709" x2="6.2999" y2="28.4793" gradientUnits="userSpaceOnUse">
<stop offset="0.00149909" stop-color="#FDB60D"/>
<stop offset="0.725" stop-color="#FE2857" stop-opacity="0"/>
</linearGradient>
<linearGradient id="paint10_linear" x1="8.924" y1="16.4167" x2="4.6957" y2="18.5094" gradientUnits="userSpaceOnUse">
<stop offset="0.0238963" stop-color="#FF7100"/>
<stop offset="1" stop-color="#FF9600" stop-opacity="0"/>
</linearGradient>
<linearGradient id="paint11_linear" x1="12.5396" y1="18.6503" x2="16.8425" y2="31.9176" gradientUnits="userSpaceOnUse">
<stop offset="0.3361" stop-color="#FE2857"/>
<stop offset="0.3527" stop-color="#FE3052"/>
<stop offset="0.4321" stop-color="#FD533B"/>
<stop offset="0.5072" stop-color="#FC6C2A"/>
<stop offset="0.5757" stop-color="#FC7B20"/>
<stop offset="0.6313" stop-color="#FC801D"/>
<stop offset="0.9964" stop-color="#FFDE17"/>
</linearGradient>
<linearGradient id="paint12_linear" x1="14.2492" y1="16.423" x2="19.3888" y2="32.2699" gradientUnits="userSpaceOnUse">
<stop offset="0.2209" stop-color="#EE2A7B"/>
<stop offset="0.6985" stop-color="#F7941D"/>
</linearGradient>
<linearGradient id="paint13_linear" x1="14.7944" y1="25.6027" x2="16.7537" y2="31.6439" gradientUnits="userSpaceOnUse">
<stop offset="0.092793" stop-color="#F15A29"/>
<stop offset="0.3888" stop-color="#FC801D"/>
<stop offset="1" stop-color="#FEC519"/>
</linearGradient>
<linearGradient id="paint14_linear" x1="13.7857" y1="28.6103" x2="25.1263" y2="26.3267" gradientUnits="userSpaceOnUse">
<stop offset="0.092793" stop-color="#F15A29"/>
<stop offset="0.3888" stop-color="#FC801D"/>
<stop offset="0.8214" stop-color="#FEC519"/>
<stop offset="0.9894" stop-color="#FCF84A"/>
</linearGradient>
<linearGradient id="paint15_linear" x1="9.93595" y1="26.9464" x2="20.2879" y2="9.28718" gradientUnits="userSpaceOnUse">
<stop offset="0.0417113" stop-color="#7D11EF"/>
<stop offset="0.1162" stop-color="#A019CB"/>
<stop offset="0.2019" stop-color="#C220A8"/>
<stop offset="0.283" stop-color="#DA268F"/>
<stop offset="0.3569" stop-color="#E92980"/>
<stop offset="0.417" stop-color="#EE2A7B"/>
</linearGradient>
<linearGradient id="paint16_linear" x1="16.2087" y1="17.7833" x2="19.3889" y2="27.5891" gradientUnits="userSpaceOnUse">
<stop  offset="0" stop-color="#F7941D" stop-opacity="0"/>
<stop offset="0.5473" stop-color="#FB851D" stop-opacity="0.5473"/>
<stop offset="1" stop-color="#FC801D"/>
</linearGradient>
<linearGradient id="paint17_linear" x1="-2.1857" y1="7.43121" x2="5.0971" y2="20.7122" gradientUnits="userSpaceOnUse">
<stop offset="0.1915" stop-color="#7D11EF"/>
<stop offset="0.2818" stop-color="#A019CB"/>
<stop offset="0.3858" stop-color="#C220A8"/>
<stop offset="0.4842" stop-color="#DA268F"/>
<stop offset="0.5738" stop-color="#E92980"/>
<stop offset="0.6467" stop-color="#EE2A7B"/>
</linearGradient>
<linearGradient id="paint18_linear" x1="5.7136" y1="3.50328" x2="10.7077" y2="12.6106" gradientUnits="userSpaceOnUse">
<stop offset="0.1915" stop-color="#7D11EF"/>
<stop offset="0.2818" stop-color="#A019CB"/>
<stop offset="0.3858" stop-color="#C220A8"/>
<stop offset="0.4842" stop-color="#DA268F"/>
<stop offset="0.5738" stop-color="#E92980"/>
<stop offset="0.6467" stop-color="#EE2A7B"/>
<stop offset="1" stop-color="#F26522"/>
</linearGradient>
<linearGradient id="paint19_linear" x1="12.4001" y1="-1.47812" x2="5.88555" y2="16.8017" gradientUnits="userSpaceOnUse">
<stop offset="0.1915" stop-color="#7D11EF"/>
<stop offset="0.2818" stop-color="#A019CB"/>
<stop offset="0.3858" stop-color="#C220A8"/>
<stop offset="0.4842" stop-color="#DA268F"/>
<stop offset="0.5738" stop-color="#E92980"/>
<stop offset="0.6467" stop-color="#EE2A7B"/>
<stop offset="1" stop-color="#F26522"/>
</linearGradient>
<linearGradient id="paint20_linear" x1="19.055" y1="18.2578" x2="5.3512" y2="8.25967" gradientUnits="userSpaceOnUse">
<stop offset="0.0417113" stop-color="#FFDE17"/>
<stop offset="0.0429608" stop-color="#FFDD18"/>
<stop offset="0.1145" stop-color="#FAA736"/>
<stop offset="0.1843" stop-color="#F67A4E"/>
<stop offset="0.2509" stop-color="#F25762"/>
<stop offset="0.3136" stop-color="#F03E70"/>
<stop offset="0.3706" stop-color="#EE2F78"/>
<stop offset="0.417" stop-color="#EE2A7B"/>
</linearGradient>
<linearGradient id="paint21_linear" x1="4.2599" y1="6.8462" x2="24.8452" y2="22.8966" gradientUnits="userSpaceOnUse">
<stop offset="0.0108952" stop-color="#7C0F13"/>
<stop offset="0.0756282" stop-color="#6C0D11"/>
<stop offset="0.2517" stop-color="#45080B"/>
<stop offset="0.4263" stop-color="#270506"/>
<stop offset="0.5969" stop-color="#110203"/>
<stop offset="0.7616" stop-color="#040101"/>
<stop offset="0.9138"/>
</linearGradient>
</defs>
</svg>
