<svg width="40" height="40" viewBox="0 0 40 40" fill="none" xmlns="http://www.w3.org/2000/svg">
<path d="M21.0001 29.8414L18.586 27.4277C18.4002 27.242 18.2529 27.0216 18.1523 26.779C18.0518 26.5363 18.0001 26.2763 18.0001 26.0136C18.0001 25.751 18.0518 25.4909 18.1523 25.2483C18.2529 25.0057 18.4002 24.7852 18.586 24.5996L24.5997 18.5859C24.9511 18.2341 25.421 18.0259 25.9177 18.0021C26.4144 17.9782 26.9022 18.1404 27.2857 18.4569C28.2322 14.1538 28.3605 9.71096 27.6641 5.36035L6.34351 28.5119L20.8205 32.1975C20.8843 32.1211 20.9373 32.0408 21.0001 31.964V29.8414Z" fill="#F5B251"/>
<path d="M21 29.8414L18.5859 27.4277C18.4002 27.2421 18.2528 27.0216 18.1523 26.779C18.0517 26.5364 18 26.2763 18 26.0137C18 25.751 18.0517 25.491 18.1523 25.2483C18.2528 25.0057 18.4002 24.7853 18.5859 24.5996L24.5996 18.5859C24.8793 18.3062 25.2356 18.1157 25.6236 18.0385C26.0115 17.9613 26.4137 18.0009 26.7791 18.1523C27.1446 18.3036 27.4569 18.56 27.6767 18.8889C27.8964 19.2178 28.0137 19.6044 28.0137 20V22.7363L36.6354 22.7419C40.3895 13.3755 38.7642 5.53088 37.8769 1L11.1866 29.7063L21 32.2303V29.8414Z" fill="#FFAD0A"/>
<path fill-rule="evenodd" clip-rule="evenodd" d="M21.0001 29.8415L18.586 27.4277C18.4002 27.2421 18.2529 27.0216 18.1523 26.779C18.0518 26.5364 18.0001 26.2763 18.0001 26.0137C18.0001 25.7511 18.0518 25.491 18.1523 25.2484C18.2529 25.0057 18.4002 24.7853 18.586 24.5996L24.5997 18.586C24.9517 18.2334 25.4226 18.0251 25.9203 18.0019C26.4179 17.9787 26.9062 18.1422 27.2896 18.4604C27.7727 16.1738 28.0446 13.8477 28.102 11.5114L11.1538 29.7365L17.1164 31.2546L20.8317 32.1841C20.8904 32.1137 20.9423 32.0408 21.0001 31.9702V29.8415Z" fill="#FF7A00"/>
<path d="M21 35.2578V33.2564L1 28.3066C1 28.3066 8.31744 32.5112 11.8973 39C13.9841 36.9187 17.5977 35.8463 21.0069 35.3261C21.0061 35.3029 21 35.2812 21 35.2578Z" fill="#17268D"/>
<path fill-rule="evenodd" clip-rule="evenodd" d="M37 24.7634V27.2634H26.0133L26.0134 32.0269L20 26.0134L20.0001 26.0134H20L20.0002 26.0132L26.0132 20L26.0133 24.7634H37ZM33.9867 35.2366L33.9868 40L39.9998 33.9868L40 33.9866H39.9999L40 33.9866L33.9866 27.9732L33.9867 32.7366L23 32.7366V35.2366L33.9867 35.2366Z" fill="#3DABC4"/>
</svg>
