<!-- Copyright © 2000–2024 JetBrains s.r.o. -->
<svg width="16" height="16" viewBox="0 0 16 16" xmlns="http://www.w3.org/2000/svg">
  <defs>
    <linearGradient id="a" x1="4431.92" x2="4417.27" y1="-4856.01" y2="-4870.67" gradientTransform="matrix(1 0 0 -1 -4417 -4855)" gradientUnits="userSpaceOnUse">
      <stop offset=".31" stop-color="#ff45ed"/>
      <stop offset=".83" stop-color="#6b57ff"/>
    </linearGradient>
    <linearGradient id="b" x1="4433.1" x2="4426.9" y1="-4869.08" y2="-4855.72" gradientTransform="matrix(1 0 0 -1 -4417 -4855)" gradientUnits="userSpaceOnUse">
      <stop offset=".3" stop-color="#fdb60d"/>
      <stop offset=".7" stop-color="#ff45ed"/>
    </linearGradient>
  </defs>
  <path fill="url(#a)" d="M1.03 16h8.53c.42 0 .79-.25.95-.63l3.95-9.35c.05-.13.06-.27.06-.41V1.02c0-.57-.48-1.02-1.05-1.02H9.05c-.2 0-.4.06-.56.17L.46 5.45c-.29.19-.46.51-.46.86v8.66C0 15.54.46 16 1.03 16"/>
  <path fill="url(#b)" d="M12.25 14.5h2.72c.57 0 1.03-.46 1.03-1.03v-3.14s0-.1-.01-.15L14.63.88C14.56.37 14.12 0 13.61 0H9.76c-.57 0-1.03.46-1.03 1.03v4.62c0 .11.02.21.05.31l2.49 7.81c.14.43.54.72.98.72Z"/>
  <path fill="#fdb60d" d="M11.89 14.5h3.07c.57 0 1.05-.47 1.04-1.05v-2.7c0-.29-.19-.63-.41-.83L6.04 1.75a1.05 1.05 0 0 0-.67-.25H2.53c-.57 0-1.03.46-1.03 1.03v2.75c0 .3.13.58.35.78l9.35 8.19c.19.16.43.26.68.26Z"/>
  <path d="M13 3H3v10h10z"/>
  <path fill="#fff" d="M8 11H4v1h4zm4-7v4h-.95V5.67L10.33 8h-.7l-.69-2.3V8H8V4h1.22l.77 2.45.77-2.45zm-4.73.97c-.17-.3-.41-.55-.71-.72S5.92 4 5.55 4H4v4h1.55c.37 0 .72-.09 1.01-.25.3-.17.54-.42.71-.72s.25-.65.25-1.03-.08-.72-.25-1.02ZM5.54 7.16h-.6V4.84h.6c.2 0 .38.05.54.14s.27.21.36.38q.12.27.12.63c0 .36-.04.46-.12.63s-.2.3-.36.39c-.15.09-.33.14-.54.14Z"/>
</svg>
