<!-- Copyright © 2000–2024 JetBrains s.r.o. -->
<svg width="32" height="32" viewBox="0 0 32 32" xmlns="http://www.w3.org/2000/svg">
  <defs>
    <linearGradient id="a" x1="4446.85" x2="4417.54" y1="-4937.03" y2="-4966.33" gradientTransform="matrix(1 0 0 -1 -4417 -4935)" gradientUnits="userSpaceOnUse">
      <stop offset=".31" stop-color="#ff45ed"/>
      <stop offset=".83" stop-color="#6b57ff"/>
    </linearGradient>
    <linearGradient id="b" x1="4449.19" x2="4436.8" y1="-4963.16" y2="-4936.43" gradientTransform="matrix(1 0 0 -1 -4417 -4935)" gradientUnits="userSpaceOnUse">
      <stop offset=".3" stop-color="#fdb60d"/>
      <stop offset=".7" stop-color="#ff45ed"/>
    </linearGradient>
  </defs>
  <path fill="url(#a)" d="M2.06 32h17.06c.83 0 1.58-.49 1.9-1.26l7.9-18.71c.11-.26.13-.54.12-.82V2.05c0-1.13-.97-2.05-2.1-2.05h-8.83c-.4 0-.79.12-1.13.34L.93 10.9c-.58.38-.93 1.03-.93 1.72v17.32C0 31.08.93 32 2.06 32"/>
  <path fill="url(#b)" d="M24.5 29h5.43c1.14 0 2.06-.93 2.06-2.06v-6.28c0-.1 0-.2-.02-.3L29.25 1.77A2.065 2.065 0 0 0 27.21 0h-7.7c-1.14 0-2.06.93-2.06 2.06v9.25c0 .22.03.43.1.62l4.99 15.62c.27.86 1.07 1.44 1.96 1.44Z"/>
  <path fill="#fdb60d" d="M23.77 29h6.13c1.15 0 2.1-.94 2.08-2.09V21.5c-.01-.59-.38-1.27-.82-1.65L12.08 3.49A2.07 2.07 0 0 0 10.74 3H5.06C3.92 3 3 3.93 3 5.06v5.5c0 .6.25 1.16.71 1.55l18.71 16.38c.38.33.86.51 1.36.51Z"/>
  <path d="M26 6H6v20h20z"/>
  <path fill="#fff" d="M16 22H8v2h8zm8-14v8h-1.89v-4.64L20.68 16h-1.4l-1.4-4.6V16H16V8h2.45L20 12.9 21.51 8zm-9.47 1.95c-.33-.61-.81-1.09-1.41-1.43-.61-.34-1.28-.53-2.03-.53H8v8h3.09c.76 0 1.44-.17 2.03-.52.6-.33 1.07-.82 1.41-1.43s.52-1.3.52-2.05-.17-1.45-.52-2.05Zm-3.46 4.37H9.89V9.69h1.18c.41 0 .78.09 1.08.27.31.18.55.45.72.79.16.34.25.77.25 1.25s-.09.9-.25 1.25c-.17.34-.4.6-.72.78-.3.18-.67.28-1.08.28Z"/>
</svg>
