<svg width="16" height="16" viewBox="0 0 16 16" fill="none" xmlns="http://www.w3.org/2000/svg">
<path d="M11 2C11.5523 2 12 2.44772 12 3V9H11C10.4477 9 10 9.44772 10 10V14H5C4.44772 14 4 13.5523 4 13V6H6C7.10457 6 8 5.10457 8 4V2H11Z" fill="#253627"/>
<path d="M7 4C7 4.06893 6.99277 4.13617 6.97949 4.20117C6.88625 4.65686 6.48325 5 6 5H4.41406L7 2.41406V4Z" fill="#253627"/>
<path fill-rule="evenodd" clip-rule="evenodd" d="M11 1C12.1046 1 13 1.89543 13 3V9H12V3C12 2.44772 11.5523 2 11 2H8V4C8 5.10457 7.10457 6 6 6H4V13C4 13.5523 4.44772 14 5 14H10V15H5C3.89543 15 3 14.1046 3 13V5.41406C3.00004 5.1489 3.10547 4.89453 3.29297 4.70703L6.70703 1.29297C6.89453 1.10547 7.1489 1.00004 7.41406 1H11ZM4.41406 5H6C6.55228 5 7 4.55228 7 4V2.41406L4.41406 5Z" fill="#57965C"/>
<path d="M13.542 10C13.6894 10.0365 13.8259 10.087 13.9512 10.1533C14.2354 10.2954 14.4577 10.4974 14.6162 10.7598C14.7747 11.0221 14.8535 11.3369 14.8535 11.7031H13.8203C13.8203 11.419 13.7438 11.2032 13.5908 11.0557C13.4432 10.9081 13.23 10.834 12.9512 10.834C12.6724 10.834 12.4568 10.9081 12.3037 11.0557C12.1506 11.2033 12.0742 11.4165 12.0742 11.6953V14.3105C12.0742 14.5893 12.1506 14.8059 12.3037 14.959C12.4567 15.1064 12.6726 15.1797 12.9512 15.1797C13.2299 15.1797 13.4432 15.1065 13.5908 14.959C13.7439 14.8059 13.8203 14.5893 13.8203 14.3105H14.8535C14.8535 14.6659 14.7747 14.9782 14.6162 15.2461C14.4577 15.5139 14.2354 15.7216 13.9512 15.8691C13.8457 15.9229 13.7324 15.9666 13.6113 16H12.292C12.1688 15.9665 12.0522 15.923 11.9424 15.8691C11.6582 15.7215 11.4368 15.5163 11.2783 15.2539C11.1253 14.986 11.0488 14.6713 11.0488 14.3105V11.7031C11.0488 11.3369 11.1253 11.0221 11.2783 10.7598C11.4368 10.4975 11.6583 10.2954 11.9424 10.1533C12.0725 10.087 12.2125 10.0365 12.3613 10H13.542Z" fill="#CED0D6"/>
</svg>
