<svg width="16" height="16" viewBox="0 0 16 16" fill="none" xmlns="http://www.w3.org/2000/svg">
<path d="M1.5 4.5H1C1 4.77614 1.22386 5 1.5 5V4.5ZM6 14H7V13H6V14ZM13 9V4.5H12V9H13ZM5 4.5V4H4V4.5H5ZM1 4V4.5H2V4H1ZM3 3H10.5V2H3V3ZM5 12V4.5H4V12H5ZM4.5 4H1.5V5H4.5V4ZM5 4C5 2.89543 4.10457 2 3 2V3C3.55228 3 4 3.44772 4 4H5ZM13 4.5C13 3.11929 11.8807 2 10.5 2V3C11.3284 3 12 3.67157 12 4.5H13ZM2 4C2 3.44772 2.44772 3 3 3V2C1.89543 2 1 2.89543 1 4H2ZM4 12C4 13.1046 4.89543 14 6 14V13C5.44772 13 5 12.5523 5 12H4Z" fill="#6C707E"/>
<path fill-rule="evenodd" clip-rule="evenodd" d="M9.05001 12C9.28164 10.8589 10.2905 10 11.5 10H13.5C13.7761 10 14 10.2239 14 10.5V11H15.5C15.7761 11 16 11.2239 16 11.5C16 11.7761 15.7761 12 15.5 12H14V14H15.5C15.7761 14 16 14.2239 16 14.5C16 14.7761 15.7761 15 15.5 15H14V15.5C14 15.7761 13.7761 16 13.5 16H11.5C10.2905 16 9.28164 15.1411 9.05001 14H8.5C8.22386 14 8 13.7761 8 13.5V12.5C8 12.2239 8.22386 12 8.5 12H9.05001ZM10 13.5V12.5C10 11.6716 10.6716 11 11.5 11H13V15H11.5C10.6716 15 10 14.3284 10 13.5Z" fill="#3574F0"/>
</svg>
