<svg width="16" height="16" viewBox="0 0 16 16" fill="none" xmlns="http://www.w3.org/2000/svg">
<path d="M2 6V12C2 13.1046 2.89543 14 4 14H7V12.5C7 11.7281 7.58305 11.0924 8.33277 11.0092C8.89257 9.82183 10.0995 9 11.5 9H12V6C12 4.89543 11.1046 4 10 4H4C2.89543 4 2 4.89543 2 6Z" fill="#EDF3FF"/>
<path d="M5 2.5C5 2.22386 5.22386 2 5.5 2H12C13.1046 2 14 2.89543 14 4V9H13V4C13 3.44772 12.5523 3 12 3H5.5C5.22386 3 5 2.77614 5 2.5Z" fill="#3574F0"/>
<path d="M12 6V9H11.5C11.3302 9 11.1633 9.01208 11 9.03542V6C11 5.44772 10.5523 5 10 5H4C3.44772 5 3 5.44772 3 6V12C3 12.5523 3.44772 13 4 13H7V14H4C2.89543 14 2 13.1046 2 12V6C2 4.89543 2.89543 4 4 4H10C11.1046 4 12 4.89543 12 6Z" fill="#3574F0"/>
<path fill-rule="evenodd" clip-rule="evenodd" d="M9.05001 12C9.28164 10.8589 10.2905 10 11.5 10H13.5C13.7761 10 14 10.2239 14 10.5V11H15.5C15.7761 11 16 11.2239 16 11.5C16 11.7761 15.7761 12 15.5 12H14V14H15.5C15.7761 14 16 14.2239 16 14.5C16 14.7761 15.7761 15 15.5 15H14V15.5C14 15.7761 13.7761 16 13.5 16H11.5C10.2905 16 9.28164 15.1411 9.05001 14H8.5C8.22386 14 8 13.7761 8 13.5V12.5C8 12.2239 8.22386 12 8.5 12H9.05001ZM10 13.5V12.5C10 11.6716 10.6716 11 11.5 11H13V15H11.5C10.6716 15 10 14.3284 10 13.5Z" fill="#6C707E"/>
</svg>
