<svg width="16" height="16" viewBox="0 0 16 16" fill="none" xmlns="http://www.w3.org/2000/svg">
<path d="M14.9291 9C14.9758 8.6734 15 8.33952 15 8C15 4.13401 11.866 1 8 1C4.13401 1 1 4.13401 1 8C1 11.5265 3.60771 14.4439 7 14.9291V12.5C7 11.7281 7.58305 11.0924 8.33277 11.0092C8.89257 9.82183 10.0995 9 11.5 9H14.9291Z" fill="#EDF3FF"/>
<path fill-rule="evenodd" clip-rule="evenodd" d="M9.05001 12C9.28164 10.8589 10.2905 10 11.5 10H13.5C13.7761 10 14 10.2239 14 10.5V11H15.5C15.7761 11 16 11.2239 16 11.5C16 11.7761 15.7761 12 15.5 12H14V14H15.5C15.7761 14 16 14.2239 16 14.5C16 14.7761 15.7761 15 15.5 15H14V15.5C14 15.7761 13.7761 16 13.5 16H11.5C10.2905 16 9.28164 15.1411 9.05001 14H8.5C8.22386 14 8 13.7761 8 13.5V12.5C8 12.2239 8.22386 12 8.5 12H9.05001ZM10 13.5V12.5C10 11.6716 10.6716 11 11.5 11H13V15H11.5C10.6716 15 10 14.3284 10 13.5Z" fill="#6C707E"/>
<path fill-rule="evenodd" clip-rule="evenodd" d="M6.5 5V11H7.5V9.03933H9.99487V8.03933H7.5V6H10.5V5H6.5Z" fill="#3574F0"/>
<path d="M13.917 9C13.9716 8.67479 14 8.34071 14 8C14 4.68629 11.3137 2 8 2C4.68629 2 2 4.68629 2 8C2 10.973 4.16229 13.441 7 13.917V14.9291C3.60771 14.4439 1 11.5265 1 8C1 4.13401 4.13401 1 8 1C11.866 1 15 4.13401 15 8C15 8.33952 14.9758 8.6734 14.9291 9H13.917Z" fill="#3574F0"/>
</svg>
