<!-- Copyright 2000-2024 JetBrains s.r.o. and contributors. Use of this source code is governed by the Apache 2.0 license. -->
<svg width="20" height="20" viewBox="0 0 20 20" fill="none" xmlns="http://www.w3.org/2000/svg">
<path fill-rule="evenodd" clip-rule="evenodd" d="M14.9755 11.2199C15.2684 10.9267 15.7433 10.9267 16.0362 11.2199L19.7803 14.9681C20.0732 15.2613 20.0732 15.7367 19.7803 16.0299L16.0342 19.7801C15.7413 20.0733 15.2665 20.0733 14.9736 19.7801C14.6807 19.4869 14.6807 19.0115 14.9736 18.7183L18.1893 15.499L14.9755 12.2817C14.6826 11.9885 14.6826 11.5131 14.9755 11.2199Z" fill="#CED0D6"/>
<path fill-rule="evenodd" clip-rule="evenodd" d="M18 4.5C18 3.8322 17.6404 3.28322 17.181 2.87122C16.7212 2.45889 16.0983 2.1219 15.3925 1.85421C13.9757 1.31681 12.069 1 10 1C7.93101 1 6.02427 1.31681 4.60749 1.85421C3.90174 2.1219 3.27879 2.45889 2.81901 2.87122C2.35959 3.28322 2 3.8322 2 4.5V15.5C2 16.1678 2.35959 16.7168 2.81901 17.1288C3.27879 17.5411 3.90174 17.8781 4.60749 18.1458C6.02427 18.6832 7.93101 19 10 19C11.0569 19 12.0715 18.9173 13 18.7648V17.2426C12.1029 17.406 11.0855 17.5 10 17.5C8.06493 17.5 6.34666 17.2012 5.13947 16.7433C4.53322 16.5133 4.09443 16.2577 3.82047 16.0121C3.54615 15.7661 3.5 15.5916 3.5 15.5V13.9216C3.83265 14.1194 4.20672 14.2938 4.60749 14.4458C6.02427 14.9832 7.93101 15.3 10 15.3C11.0569 15.3 12.0715 15.2173 13 15.0648V13.5426C12.1029 13.706 11.0855 13.8 10 13.8C8.06493 13.8 6.34666 13.5012 5.13947 13.0433C4.53322 12.8133 4.09443 12.5577 3.82047 12.3121C3.54615 12.0661 3.5 11.8916 3.5 11.8V10.3216C3.83265 10.5194 4.20672 10.6938 4.60749 10.8458C6.02427 11.3832 7.93101 11.7 10 11.7C11.1644 11.7 12.2775 11.5997 13.2807 11.4161C13.3495 10.9564 13.5606 10.5139 13.9143 10.1598C14.7931 9.28006 16.2186 9.28006 17.0974 10.1598L18 11.0634V4.5ZM3.82047 3.98794C3.54615 4.23394 3.5 4.40841 3.5 4.5C3.5 4.59159 3.54615 4.76606 3.82047 5.01206C4.09443 5.25775 4.53322 5.51334 5.13947 5.7433C6.34666 6.2012 8.06493 6.5 10 6.5C11.9351 6.5 13.6533 6.2012 14.8605 5.7433C15.4668 5.51334 15.9056 5.25775 16.1795 5.01206C16.4538 4.76606 16.5 4.59159 16.5 4.5C16.5 4.40841 16.4538 4.23394 16.1795 3.98794C15.9056 3.74225 15.4668 3.48666 14.8605 3.2567C13.6533 2.7988 11.9351 2.5 10 2.5C8.06493 2.5 6.34666 2.7988 5.13947 3.2567C4.53322 3.48666 4.09443 3.74225 3.82047 3.98794ZM16.5 6.62161C16.1673 6.81942 15.7933 6.99378 15.3925 7.14579C13.9757 7.68319 12.069 8 10 8C7.93101 8 6.02427 7.68319 4.60749 7.14579C4.20672 6.99378 3.83265 6.81942 3.5 6.62161V8.2C3.5 8.29159 3.54615 8.46606 3.82047 8.71206C4.09443 8.95775 4.53322 9.21334 5.13947 9.4433C6.34666 9.9012 8.06493 10.2 10 10.2C11.9351 10.2 13.6533 9.9012 14.8605 9.4433C15.4668 9.21334 15.9056 8.95775 16.1795 8.71206C16.4538 8.46606 16.5 8.29159 16.5 8.2V6.62161Z" fill="#CED0D6"/>
</svg>
