<svg width="48" height="48" viewBox="0 0 48 48" fill="none" xmlns="http://www.w3.org/2000/svg">
<path d="M48 41.0002V19.4694C48 18.2476 47.2717 17.1431 46.1489 16.6618L18.031 4.61075C17.6509 4.44799 17.2412 4.36377 16.8275 4.36377H3.05455C1.36756 4.36377 0 5.73133 0 7.41831V20.8928C0 21.4963 0.178909 22.0862 0.514036 22.5885L16.5665 46.64C17.1329 47.4891 18.0864 47.9988 19.1071 47.9988L41 48.0001C42.687 48.0001 48 42.6872 48 41.0002Z" fill="url(#paint0_linear_4407_10153)"/>
<path d="M43.6364 10.8895V3.05455C43.6364 1.36756 42.2688 0 40.5818 0H30.7623C30.6179 0 30.4735 0.0104727 30.3303 0.0305455L2.62255 3.9888C1.11753 4.20349 0 5.49251 0 7.01236V18.7671C0 20.4545 1.368 21.8221 3.05542 21.8217L16.9593 21.8182C17.2874 21.8182 17.6134 21.7654 17.9245 21.6615L41.5479 13.7869C42.7951 13.3711 43.6364 12.2038 43.6364 10.889V10.8895Z" fill="url(#paint1_linear_4407_10153)"/>
<path d="M43.6356 11.9607L43.6343 3.05411C43.6343 1.36756 42.2667 0 40.5797 0H31.9498C31.0583 0 30.2108 0.389673 29.6305 1.06647L5.09855 29.6876C4.62423 30.2413 4.36328 30.9465 4.36328 31.6756V40.5823C4.36328 42.2692 5.73084 43.6368 7.41783 43.6368H16.0491C16.9406 43.6368 17.788 43.2471 18.3684 42.5703L42.9003 13.9492C43.3751 13.3955 43.6356 12.6903 43.6356 11.9607Z" fill="#FF318C"/>
<path d="M39 9H9V39H39V9Z" fill="black"/>
<path d="M25 33H13V35.0001H25V33Z" fill="white"/>
<path d="M18.0753 24.1797C17.0231 24.1797 16.0702 23.9331 15.2166 23.4413C14.3633 22.9436 13.6931 22.2633 13.2059 21.3996C12.7192 20.5308 12.4756 19.5619 12.4756 18.4937C12.4756 17.4255 12.7192 16.4595 13.2059 15.5958C13.6927 14.727 14.3629 14.0459 15.2166 13.554C16.0698 13.0563 17.0227 12.8081 18.0753 12.8081C18.9651 12.8081 19.7822 12.973 20.5256 13.3029C21.269 13.6327 21.8866 14.0959 22.3788 14.6929C22.8761 15.2849 23.2085 15.9652 23.3764 16.7347H21.1302C20.9833 16.3371 20.7637 15.9887 20.4705 15.69C20.1823 15.3867 19.8343 15.1532 19.4258 14.9912C19.0173 14.8292 18.5722 14.7476 18.0909 14.7476C17.4417 14.7476 16.8552 14.9096 16.3319 15.2344C15.8085 15.5592 15.3975 16.0068 15.0988 16.5773C14.8055 17.1428 14.6591 17.7818 14.6591 18.4937C14.6591 19.2055 14.8055 19.8475 15.0988 20.4176C15.397 20.9831 15.8081 21.4278 16.3319 21.7525C16.8552 22.0773 17.4417 22.2393 18.0909 22.2393C18.5726 22.2393 19.0177 22.1577 19.4258 21.9957C19.8343 21.8337 20.1823 21.6032 20.4705 21.3045C20.7637 21.0011 20.9833 20.6498 21.1302 20.2523H23.3764C23.2089 21.0218 22.8761 21.705 22.3788 22.302C21.8866 22.894 21.269 23.3542 20.5256 23.6841C19.7822 24.0139 18.9651 24.1797 18.0753 24.1797ZM27.0538 12.9962V22.0588H32.2686V23.9908H24.9179V12.9962H27.0538Z" fill="white"/>
<path d="M42.1415 48H17.8585C17.0891 48 16.3273 47.8485 15.6165 47.5541C14.9058 47.2597 14.2599 46.8281 13.7159 46.2841C13.1719 45.74 12.7404 45.0942 12.446 44.3834C12.1515 43.6726 12 42.9108 12 42.1415V35.8585C12 34.3048 12.6172 32.8146 13.7159 31.7159C14.8146 30.6173 16.3047 30 17.8585 30H42.1415C43.6952 30 45.1854 30.6173 46.2841 31.7159C47.3827 32.8146 48 34.3048 48 35.8585V42.1415C48 42.9108 47.8484 43.6726 47.554 44.3834C47.2596 45.0942 46.8281 45.74 46.2841 46.2841C45.74 46.8281 45.0942 47.2597 44.3834 47.5541C43.6726 47.8485 42.9108 48 42.1415 48Z" fill="#FDB60D"/>
<path d="M18.6846 35.0669H24.8637V36.6708H20.4751V38.3325H24.3372V39.9355H20.4751V41.656H24.9224V43.259H18.6846L18.6846 35.0669Z" fill="black"/>
<path d="M29.3335 35.0093H30.9952L34.5061 43.2593H32.6219L31.8729 41.4222H28.4092L27.6602 43.2593H25.8232L29.3335 35.0093ZM31.2299 39.8307L30.1411 37.1738L29.0531 39.8307H31.2299Z" fill="black"/>
<path d="M35.7696 35.0669H39.1167C41.071 35.0669 42.2527 36.2258 42.2527 37.8989V37.9226C42.2527 39.8182 40.7783 40.8019 38.9414 40.8019H37.5722V43.259H35.7695L35.7696 35.0669ZM38.9993 39.198C39.1764 39.2205 39.3563 39.2054 39.5272 39.1536C39.698 39.1017 39.856 39.0144 39.9908 38.8973C40.1256 38.7802 40.2341 38.6361 40.3093 38.4741C40.3845 38.3122 40.4247 38.1362 40.4272 37.9576V37.9341C40.4272 37.1272 39.8656 36.6936 38.9643 36.6936H37.5723V39.198H38.9993Z" fill="black"/>
<defs>
<linearGradient id="paint0_linear_4407_10153" x1="2.98604" y1="3.16682" x2="47.0151" y2="47.1955" gradientUnits="userSpaceOnUse">
<stop offset="0.29" stop-color="#009AE5"/>
<stop offset="0.7" stop-color="#00D980"/>
</linearGradient>
<linearGradient id="paint1_linear_4407_10153" x1="42.2841" y1="-0.538035" x2="2.06444" y2="18.1091" gradientUnits="userSpaceOnUse">
<stop offset="0.3" stop-color="#FF318C"/>
<stop offset="0.54" stop-color="#009AE5"/>
</linearGradient>
</defs>
</svg>
