<svg width="24" height="24" viewBox="0 0 24 24" fill="none" xmlns="http://www.w3.org/2000/svg">
<path d="M24 20.4998V9.73444C24 9.12353 23.6359 8.57131 23.0745 8.33066L9.01549 2.30513C8.82545 2.22375 8.62058 2.18164 8.41375 2.18164H1.52727C0.683782 2.18164 0 2.86542 0 3.70891V10.4461C0 10.7479 0.0894545 11.0429 0.257018 11.294L8.28327 23.3197C8.56647 23.7443 9.0432 23.9992 9.55353 23.9992L20.5 23.9998C21.3435 23.9998 24 21.3432 24 20.4998Z" fill="url(#paint0_linear_4407_10130)"/>
<path d="M21.8182 5.44473V1.52727C21.8182 0.683782 21.1344 0 20.2909 0H15.3812C15.3089 0 15.2367 0.00523636 15.1652 0.0152727L1.31127 1.9944C0.558764 2.10175 0 2.74625 0 3.50618V9.38356C0 10.2273 0.684 10.9111 1.52771 10.9108L8.47964 10.9091C8.64371 10.9091 8.80669 10.8827 8.96225 10.8308L20.774 6.89345C21.3975 6.68553 21.8182 6.10189 21.8182 5.44451V5.44473Z" fill="url(#paint1_linear_4407_10130)"/>
<path d="M21.8178 5.98036L21.8171 1.52705C21.8171 0.683782 21.1333 0 20.2899 0H15.9749C15.5291 0 15.1054 0.194836 14.8152 0.533236L2.54928 14.8438C2.31211 15.1207 2.18164 15.4732 2.18164 15.8378V20.2911C2.18164 21.1346 2.86542 21.8184 3.70891 21.8184H8.02455C8.47029 21.8184 8.894 21.6236 9.18419 21.2852L21.4501 6.97462C21.6875 6.69775 21.8178 6.34516 21.8178 5.98036Z" fill="#FF318C"/>
<path d="M20 4H4V20H20V4Z" fill="black"/>
<path d="M8.8958 12.1781C8.32414 12.1781 7.80643 12.0441 7.34266 11.7769C6.87912 11.5065 6.515 11.1369 6.25032 10.6677C5.98586 10.1957 5.85352 9.66926 5.85352 9.08891C5.85352 8.50857 5.98586 7.98377 6.25032 7.51451C6.51477 7.04251 6.87889 6.67246 7.34266 6.40526C7.8062 6.13486 8.32392 6 8.8958 6C9.37923 6 9.82312 6.0896 10.227 6.2688C10.6309 6.448 10.9664 6.69966 11.2339 7.024C11.504 7.3456 11.6846 7.7152 11.7758 8.13326H10.5555C10.4757 7.91726 10.3564 7.728 10.1971 7.56571C10.0405 7.40091 9.85146 7.27406 9.62952 7.18606C9.40757 7.09806 9.16574 7.05371 8.90426 7.05371C8.55157 7.05371 8.23294 7.14171 7.9486 7.31817C7.66426 7.49463 7.44094 7.73783 7.27866 8.04777C7.11934 8.35497 7.0398 8.70217 7.0398 9.08891C7.0398 9.47566 7.11934 9.82446 7.27866 10.1342C7.44072 10.4414 7.66403 10.683 7.9486 10.8594C8.23294 11.0359 8.55157 11.1239 8.90426 11.1239C9.16597 11.1239 9.4078 11.0795 9.62952 10.9915C9.85146 10.9035 10.0405 10.7783 10.1971 10.616C10.3564 10.4512 10.4757 10.2603 10.5555 10.0443H11.7758C11.6848 10.4624 11.504 10.8336 11.2339 11.1579C10.9664 11.4795 10.6309 11.7296 10.227 11.9088C9.82312 12.088 9.37923 12.1776 8.8958 12.1776V12.1781ZM13.7737 6.10217V11.0258H16.6069V12.0754H12.6133V6.10217H13.7737Z" fill="white"/>
<path d="M12 17H6V18H12V17Z" fill="white"/>
<path d="M21.0707 24H8.92924C8.54457 24 8.16367 23.9242 7.80827 23.777C7.45288 23.6298 7.12996 23.4141 6.85796 23.1421C6.58595 22.8701 6.37019 22.5472 6.22298 22.1918C6.07577 21.8364 6 21.4555 6 21.0708V17.9292C6 17.1523 6.30861 16.4073 6.85796 15.8579C7.4073 15.3086 8.15236 15 8.92924 15H21.0707C21.4554 15 21.8363 15.0758 22.1917 15.223C22.5471 15.3702 22.87 15.5859 23.142 15.8579C23.414 16.1299 23.6298 16.4528 23.777 16.8082C23.9242 17.1636 24 17.5445 24 17.9292V21.0708C24 21.4555 23.9242 21.8364 23.777 22.1918C23.6298 22.5472 23.414 22.8701 23.142 23.1421C22.87 23.4141 22.5471 23.6298 22.1917 23.777C21.8363 23.9242 21.4554 24 21.0707 24V24Z" fill="#FDB60D"/>
<path d="M9.3418 17.5337H12.4314V18.3356H10.2371V19.1664H12.1682V19.968H10.2371V20.8281H12.4607V21.6296H9.34184L9.3418 17.5337Z" fill="black"/>
<path d="M14.6671 17.5044H15.498L17.2534 21.6294H16.3113L15.9368 20.7109H14.205L13.8305 21.6294H12.9121L14.6671 17.5044ZM15.6153 19.9152L15.0709 18.5868L14.5269 19.9152H15.6153Z" fill="black"/>
<path d="M17.8848 17.5337H19.5583C19.7571 17.5101 19.9585 17.5293 20.1492 17.59C20.3399 17.6507 20.5154 17.7515 20.6639 17.8856C20.8124 18.0198 20.9305 18.184 21.0103 18.3676C21.09 18.5511 21.1296 18.7496 21.1263 18.9497V18.9614C21.1246 19.1689 21.0789 19.3736 20.9921 19.562C20.9053 19.7505 20.7795 19.9183 20.623 20.0545C20.4664 20.1906 20.2827 20.2918 20.0841 20.3516C19.8854 20.4113 19.6764 20.4283 19.4707 20.4011H18.7861V21.6297H17.8848L17.8848 17.5337ZM19.4997 19.5993C19.5882 19.6105 19.6782 19.6028 19.7636 19.5769C19.849 19.551 19.928 19.5074 19.9954 19.4489C20.0628 19.3903 20.1171 19.3182 20.1546 19.2372C20.1922 19.1562 20.2123 19.0683 20.2136 18.979V18.9672C20.2136 18.5637 19.9328 18.3471 19.4821 18.3471H18.7861V19.5993H19.4997Z" fill="black"/>
<defs>
<linearGradient id="paint0_linear_4407_10130" x1="1.49302" y1="1.58317" x2="23.5076" y2="23.5975" gradientUnits="userSpaceOnUse">
<stop offset="0.29" stop-color="#009AE5"/>
<stop offset="0.7" stop-color="#00D980"/>
</linearGradient>
<linearGradient id="paint1_linear_4407_10130" x1="21.142" y1="-0.269018" x2="1.03222" y2="9.05455" gradientUnits="userSpaceOnUse">
<stop offset="0.3" stop-color="#FF318C"/>
<stop offset="0.54" stop-color="#009AE5"/>
</linearGradient>
</defs>
</svg>
