<svg width="16" height="16" viewBox="0 0 16 16" fill="none" xmlns="http://www.w3.org/2000/svg">
<g clip-path="url(#clip0_14562_20272)">
<path d="M7.03913 9.29847C8.88964 9.29847 10.3898 8.48445 10.3898 7.48029C10.3898 6.47614 8.88964 5.66211 7.03913 5.66211C5.18861 5.66211 3.68848 6.47614 3.68848 7.48029C3.68848 8.48445 5.18861 9.29847 7.03913 9.29847Z" fill="url(#paint0_radial_14562_20272)"/>
<path fill-rule="evenodd" clip-rule="evenodd" d="M4.71882 6.28634C4.12639 6.60781 3.79178 7.03472 3.79178 7.48067C3.79178 7.92663 4.12639 8.35353 4.71882 8.675C5.3072 8.99428 6.12715 9.19496 7.03853 9.19496C7.94991 9.19496 8.76986 8.99428 9.35824 8.675C9.95067 8.35353 10.2853 7.92663 10.2853 7.48067C10.2853 7.03472 9.95067 6.60781 9.35824 6.28634C8.76986 5.96706 7.94991 5.76639 7.03853 5.76639C6.12715 5.76639 5.3072 5.96706 4.71882 6.28634ZM4.61971 6.10371C5.24403 5.76493 6.0994 5.55859 7.03853 5.55859C7.97766 5.55859 8.83303 5.76493 9.45735 6.10371C10.0776 6.44028 10.4931 6.92247 10.4931 7.48067C10.4931 8.03887 10.0776 8.52106 9.45735 8.85764C8.83303 9.19641 7.97766 9.40275 7.03853 9.40275C6.0994 9.40275 5.24403 9.19641 4.61971 8.85764C3.99944 8.52106 3.58398 8.03887 3.58398 7.48067C3.58398 6.92247 3.99944 6.44028 4.61971 6.10371Z" fill="#DD507B"/>
<path d="M4.90113 9.22959C4.54165 9.22959 3.68867 8.98336 3.34425 8.84933C3.22321 8.80258 3.01542 8.69505 2.79568 8.58128C2.23776 8.29297 1.82217 8.08777 1.56919 8.07011C1.30945 7.99998 0.311523 6.72985 0.311523 6.00206C0.311523 5.41712 0.57542 4.96985 1.09646 4.67219C1.16763 4.63167 1.21334 4.62284 1.2388 4.62284C1.30165 4.62284 1.3375 4.69764 1.34997 4.72985C1.38165 4.81193 1.46009 4.86284 1.54373 4.86284C1.56607 4.86284 1.58841 4.8592 1.61022 4.85193C1.68295 4.82751 1.73334 4.76621 1.74737 4.69556C1.75308 4.69453 1.75828 4.69349 1.76347 4.69245C1.79672 4.68569 1.83256 4.67842 1.86789 4.66647C1.94321 4.70959 2.06789 4.76725 2.27412 4.76725C2.31412 4.76725 2.35672 4.76518 2.39983 4.7605C2.7375 4.72673 2.89594 4.51323 2.99048 4.38595C3.00711 4.36362 3.02841 4.33505 3.04399 4.31738C3.06945 4.33245 3.10996 4.36518 3.13854 4.38803C3.26217 4.48777 3.44919 4.63842 3.74529 4.63842C3.80711 4.63842 3.87152 4.63167 3.93698 4.61868C3.951 4.61608 3.96295 4.61401 3.97334 4.61245C3.97334 4.61349 3.97334 4.61401 3.97334 4.61453C3.96711 4.8805 4.0762 5.02284 4.29802 5.0379C4.30685 5.03842 4.31568 5.03894 4.32555 5.03894C4.4149 5.03894 4.54269 5.01193 4.73646 4.97037C5.12503 4.88777 5.77542 4.74907 6.56815 4.74907C7.36087 4.74907 8.06581 4.87738 8.76087 5.12985C8.9536 5.19998 9.04971 5.35063 9.10373 5.47427C9.01386 5.5231 8.87828 5.59063 8.7536 5.65297C7.60191 6.22751 6.36295 6.90751 6.23724 7.70751C6.08711 8.66595 5.20971 9.21297 4.93386 9.22803C4.92399 9.22855 4.91308 9.22907 4.90217 9.22907L4.90113 9.22959Z" fill="url(#paint1_radial_14562_20272)"/>
<path d="M3.08112 4.60851C3.22241 4.71605 3.43436 4.84695 3.74449 4.84695C3.75904 4.84695 3.77358 4.84695 3.78865 4.84592C3.87644 5.18825 4.17878 5.23864 4.28319 5.24592C4.29618 5.24695 4.30969 5.24747 4.32475 5.24747C4.43592 5.24747 4.56527 5.21994 4.77878 5.17423C5.15956 5.09319 5.79592 4.9576 6.56683 4.9576C7.30293 4.9576 8.0167 5.08124 8.68839 5.32592C8.7341 5.34254 8.77151 5.36644 8.80319 5.39605C8.75592 5.41994 8.70657 5.44436 8.6593 5.46825C7.46138 6.06566 6.17151 6.7789 6.03073 7.67656C5.89618 8.53267 5.10086 9.0054 4.92112 9.02202C4.91488 9.02202 4.90813 9.02202 4.90086 9.02202C4.59228 9.02202 3.78917 8.8002 3.4193 8.65631C3.30865 8.61319 3.10553 8.50825 2.89099 8.3976C2.32215 8.1041 1.91852 7.90462 1.62813 7.86825C1.52735 7.8054 1.26034 7.54306 0.977739 7.10773C0.695661 6.67293 0.520077 6.24955 0.520077 6.0028C0.520077 5.50514 0.742414 5.1228 1.18086 4.86462C1.25202 5.00747 1.398 5.09423 1.5528 5.09423C1.59748 5.09423 1.64267 5.08695 1.68735 5.07189C1.7767 5.04124 1.84891 4.98358 1.89774 4.91033C1.98969 4.94566 2.11332 4.97527 2.27488 4.97527C2.32164 4.97527 2.37099 4.97267 2.42138 4.96747C2.76579 4.93319 2.96267 4.75293 3.08267 4.60799M3.03436 4.10254C3.02761 4.10254 3.02086 4.10254 3.0141 4.10358C2.82086 4.12592 2.79436 4.51241 2.38034 4.55397C2.34241 4.5576 2.30709 4.55968 2.27488 4.55968C2.00475 4.55968 1.93514 4.43916 1.87384 4.43916C1.86345 4.43916 1.85306 4.4428 1.84215 4.45111C1.76267 4.51085 1.49202 4.47501 1.54449 4.65579C1.54969 4.66981 1.55228 4.67864 1.55228 4.67864C1.54917 4.67085 1.54657 4.66306 1.54449 4.65579C1.52008 4.59189 1.43436 4.41579 1.23956 4.41579C1.17151 4.41579 1.09047 4.43708 0.993843 4.49215C0.559557 4.74046 0.104492 5.19553 0.104492 6.00228C0.104492 6.80903 1.2006 8.25682 1.55228 8.2776C1.90397 8.29838 2.8967 8.89838 3.26917 9.0428C3.62813 9.18254 4.50501 9.43708 4.90138 9.43708C4.91644 9.43708 4.93099 9.43708 4.94449 9.43605C5.31696 9.41527 6.27644 8.79501 6.44163 7.74046C6.60683 6.68592 9.39177 5.67137 9.35073 5.54721C9.30917 5.42306 9.20527 5.07085 8.83125 4.93527C8.01099 4.63708 7.23696 4.54202 6.56787 4.54202C5.39852 4.54202 4.54813 4.83189 4.32579 4.83189C4.32112 4.83189 4.31644 4.83189 4.31228 4.83189C4.03125 4.81319 4.34293 4.40228 4.0193 4.40228C3.98553 4.40228 3.94553 4.40644 3.8967 4.41631C3.84215 4.42721 3.79228 4.43189 3.74605 4.43189C3.36371 4.43189 3.23073 4.10358 3.03436 4.10306V4.10254Z" fill="#FFE83E"/>
<path fill-rule="evenodd" clip-rule="evenodd" d="M3.40935 4.20514C3.52195 4.28863 3.65506 4.35796 3.87521 4.31393C4.00881 4.28721 4.12339 4.28927 4.20151 4.35442C4.28079 4.42053 4.28455 4.52098 4.2848 4.57657C4.28488 4.59235 4.28451 4.60814 4.28417 4.62227L4.28416 4.62277C4.28382 4.63754 4.28352 4.65056 4.28357 4.66306C4.28368 4.68895 4.28542 4.7052 4.28831 4.71577C4.28925 4.71922 4.29007 4.72119 4.29058 4.72221C4.29297 4.72343 4.30066 4.72656 4.31811 4.72773C4.34098 4.72926 4.3913 4.72313 4.48085 4.70574C4.53502 4.69522 4.59755 4.6819 4.66941 4.66659C4.71151 4.65762 4.75681 4.64797 4.80551 4.63781C5.0667 4.58327 5.41174 4.51685 5.81973 4.47606C6.63581 4.39447 7.70468 4.41529 8.86616 4.83765C9.27668 4.98651 9.39999 5.36496 9.444 5.50004C9.44571 5.50528 9.4473 5.51015 9.44878 5.51463C9.46642 5.56799 9.43922 5.60974 9.42987 5.6226C9.4177 5.63931 9.40261 5.65256 9.39084 5.66195C9.3662 5.68161 9.33264 5.70259 9.29545 5.72395C9.21983 5.7674 9.11098 5.82269 8.98262 5.88693C8.95327 5.90161 8.92278 5.91682 8.89129 5.93254C8.64506 6.05539 8.337 6.2091 8.02392 6.38548C7.67031 6.58469 7.31496 6.81028 7.03901 7.04894C6.75944 7.29074 6.57901 7.53107 6.54368 7.75656C6.45672 8.31169 6.16101 8.75031 5.84127 9.05173C5.68126 9.20257 5.5138 9.32048 5.36053 9.40249C5.20959 9.48325 5.06426 9.53356 4.94955 9.53981C4.74547 9.55092 4.40502 9.48428 4.08084 9.40189C3.75214 9.31836 3.42212 9.21379 3.23101 9.13969C3.09408 9.0866 2.87671 8.97442 2.64326 8.85393C2.54859 8.80507 2.45127 8.75485 2.35559 8.70664C2.18682 8.62161 2.02088 8.54155 1.87619 8.48164C1.72778 8.42018 1.61425 8.3854 1.54556 8.38134C1.4727 8.37703 1.39776 8.33879 1.33019 8.29297C1.2594 8.24496 1.18268 8.1788 1.10387 8.10048C0.945988 7.9436 0.771911 7.7301 0.610125 7.49332C0.448241 7.25639 0.296746 6.99335 0.185346 6.7366C0.0747174 6.48162 0 6.22464 0 6.0023C0 5.14715 0.486012 4.66251 0.941677 4.40198C1.06323 4.33248 1.1732 4.30503 1.27197 4.3129C1.37165 4.32085 1.44878 4.36389 1.5052 4.41515C1.51493 4.42399 1.52407 4.43309 1.53263 4.44233C1.55711 4.42765 1.58201 4.41821 1.60238 4.41165C1.63606 4.40081 1.6749 4.3929 1.70513 4.38674C1.71327 4.38508 1.72079 4.38355 1.72742 4.38212C1.76381 4.37428 1.77633 4.36897 1.77846 4.36807C1.77874 4.36795 1.77879 4.36795 1.77879 4.36795L1.84104 4.45113L1.77845 4.3682C1.80237 4.35015 1.832 4.33691 1.86687 4.33556C1.89949 4.3343 1.92651 4.34395 1.94483 4.35232C1.96206 4.36019 1.97901 4.37054 1.99149 4.37816L1.99437 4.37991C2.00781 4.38812 2.02031 4.39575 2.03472 4.40349C2.08887 4.43255 2.18192 4.46984 2.36832 4.45113C2.53575 4.43433 2.62292 4.35141 2.69681 4.25775C2.71154 4.23908 2.72506 4.22086 2.7391 4.20193C2.74363 4.19582 2.74822 4.18963 2.75293 4.18333C2.77137 4.15863 2.79146 4.13234 2.81301 4.10846C2.85578 4.06108 2.9152 4.01079 3.00049 4.00091M1.55616 4.67686C1.65158 4.64958 1.65155 4.64948 1.65155 4.64948L1.65152 4.64936L1.65144 4.64908L1.65124 4.64842L1.6507 4.64661C1.65027 4.6452 1.6497 4.64338 1.64898 4.64118C1.64755 4.63678 1.64553 4.63086 1.64287 4.6237C1.64255 4.62285 1.64222 4.62199 1.64189 4.6211C1.64175 4.6205 1.64163 4.61993 1.64152 4.61939C1.64589 4.61701 1.65351 4.61348 1.66606 4.60944C1.68776 4.60246 1.71055 4.59779 1.73836 4.5921C1.74856 4.59001 1.75943 4.58778 1.77117 4.58525C1.79797 4.57948 1.83933 4.57044 1.87615 4.55123C1.87852 4.55265 1.88117 4.55426 1.88417 4.55609C1.88504 4.55662 1.88594 4.55717 1.88686 4.55774C1.89981 4.56564 1.91678 4.57601 1.93644 4.58657C2.02698 4.63517 2.16146 4.68073 2.38908 4.65788C2.63568 4.63313 2.76877 4.50202 2.85994 4.38646C2.87678 4.36512 2.89283 4.34348 2.90722 4.32407C2.91144 4.31838 2.91552 4.31288 2.91944 4.30764C2.93753 4.2834 2.95269 4.26383 2.96726 4.24769C2.99674 4.21502 3.01309 4.20863 3.0244 4.20733C3.04597 4.20482 3.07222 4.21126 3.11778 4.24204C3.1404 4.25733 3.16431 4.27617 3.19271 4.29905C3.19624 4.30189 3.19984 4.30479 3.20351 4.30775C3.22832 4.32778 3.25608 4.35018 3.28559 4.37206C3.42714 4.47701 3.61923 4.57703 3.91596 4.51768C3.97495 4.50589 4.01407 4.50411 4.03908 4.50654C4.05122 4.50772 4.05879 4.50978 4.06311 4.51138C4.06523 4.51217 4.06657 4.51285 4.06733 4.51328C4.06807 4.5137 4.06843 4.514 4.06843 4.514L4.06854 4.51415C4.06861 4.51424 4.06872 4.51441 4.06886 4.51465C4.06945 4.51565 4.07074 4.51822 4.07211 4.52334C4.07516 4.5347 4.0769 4.55155 4.07701 4.57751C4.07707 4.59009 4.07677 4.60315 4.07643 4.6179L4.07641 4.6187C4.07608 4.63272 4.07571 4.64837 4.07578 4.66395C4.07591 4.69484 4.07763 4.73309 4.08786 4.77053C4.09857 4.80973 4.11973 4.85209 4.16093 4.88475C4.20149 4.9169 4.25122 4.9315 4.30422 4.93505C4.35889 4.93872 4.43652 4.92602 4.52046 4.90972C4.57629 4.89888 4.64208 4.88487 4.71556 4.86922C4.75735 4.86032 4.80163 4.85089 4.84798 4.84121C5.10612 4.78731 5.443 4.72255 5.8404 4.68282C6.6351 4.60337 7.6709 4.62411 8.79514 5.03293L8.79524 5.03296C9.07391 5.13398 9.18038 5.37429 9.23143 5.52011C9.22069 5.5269 9.2076 5.53478 9.19193 5.54378C9.12245 5.5837 9.01917 5.63628 8.88964 5.7011C8.86049 5.71568 8.83013 5.73083 8.79866 5.74653C8.55272 5.86924 8.23988 6.02532 7.92193 6.20444C7.56378 6.40621 7.19449 6.63974 6.90308 6.89178C6.6153 7.14068 6.38567 7.42262 6.33839 7.7244C6.26016 8.22382 5.99328 8.62286 5.69873 8.90053C5.55159 9.03924 5.399 9.14623 5.26249 9.21927C5.12366 9.29356 5.00951 9.32844 4.93825 9.33232C4.77037 9.34147 4.4594 9.2837 4.13202 9.2005C3.80916 9.11845 3.48749 9.01627 3.30613 8.94595C3.18013 8.89709 2.98001 8.79381 2.75267 8.67648C2.65525 8.6262 2.55282 8.57334 2.44909 8.52107C2.27916 8.43546 2.10769 8.35259 1.95569 8.28965C1.80741 8.22825 1.66498 8.18024 1.55782 8.17391C1.54275 8.17302 1.50651 8.16147 1.44682 8.12099C1.39036 8.0827 1.32375 8.02604 1.25034 7.95309C1.10378 7.80746 0.937894 7.6047 0.781693 7.37609C0.62559 7.14762 0.481078 6.89615 0.375969 6.65389C0.270088 6.40986 0.207792 6.18334 0.207792 6.0023C0.207792 5.24395 0.63191 4.81845 1.04482 4.58236C1.14041 4.52771 1.20881 4.51632 1.25546 4.52004C1.3012 4.52369 1.33654 4.54266 1.36545 4.56893C1.39549 4.59622 1.41764 4.63076 1.43258 4.66065C1.43773 4.67094 1.44179 4.6802 1.44485 4.68776C1.44785 4.69772 1.45135 4.70762 1.45529 4.71742C1.47385 4.7636 1.52256 4.79012 1.57142 4.78067C1.62029 4.77121 1.65558 4.72843 1.65558 4.67866V4.67814C1.65558 4.66848 1.65424 4.65887 1.65158 4.64959L1.55616 4.67686ZM1.64088 4.61219C1.64088 4.61219 1.64095 4.61276 1.64076 4.61369C1.64073 4.61263 1.64088 4.61219 1.64088 4.61219ZM4.29085 4.72269C4.29105 4.72293 4.29114 4.7231 4.29114 4.7231C4.29114 4.7231 4.29103 4.723 4.29085 4.72269ZM3.40935 4.20514C3.38352 4.18599 3.35931 4.16646 3.33428 4.14626ZM3.33428 4.14626C3.33055 4.14326 3.32681 4.14024 3.32304 4.1372ZM3.32304 4.1372C3.2949 4.11455 3.26482 4.09062 3.23412 4.06988ZM3.23412 4.06988C3.17305 4.02861 3.09526 3.98993 3.00049 4.00091Z" fill="#DD507B"/>
<path d="M6.49631 6.75701C8.41109 6.75701 9.96332 6.1958 9.96332 5.50351C9.96332 4.81121 8.41109 4.25 6.49631 4.25C4.58153 4.25 3.0293 4.81121 3.0293 5.50351C3.0293 6.1958 4.58153 6.75701 6.49631 6.75701Z" fill="url(#paint2_radial_14562_20272)"/>
<path d="M6.59737 5.71458C6.50854 6.22316 5.92205 8.26004 5.61036 8.62367C5.33036 8.95043 4.29244 8.13952 3.79218 8.05225C3.15893 7.94212 2.47737 7.51251 2.02594 7.27303C1.3262 6.9016 1.2488 5.71458 1.19737 6.16653C1.14282 6.64965 1.82127 4.7177 3.42854 5.03926C4.20776 5.1951 6.72568 4.97744 6.59737 5.71458Z" fill="url(#paint3_radial_14562_20272)"/>
<path d="M14.1821 12.0518C14.4257 9.4217 12.1655 6.3604 11.7405 5.76611C11.6901 5.69546 11.6938 5.19988 11.6886 5.19468C11.673 5.14637 10.6496 4.25962 9.87041 5.14273C9.7795 5.02222 9.05119 5.4965 9.09119 5.50637C9.29898 5.55832 7.63664 4.31157 7.22106 5.71416C7.08495 6.17338 6.89379 6.46637 6.85742 6.96092C7.01327 13.6103 11.1172 11.6882 11.1172 11.6882C11.1172 11.6882 12.6304 14.3173 12.7276 14.1817C13.5068 13.0908 12.0522 11.6882 12.0522 11.6882C12.632 12.5027 14.2314 14.4009 14.8574 14.4934C14.8574 14.4934 13.8704 13.0388 13.3509 12.0518C14.007 12.284 15.2652 14.1926 16.0003 13.5064C16.0003 13.5064 14.1634 12.256 14.1821 12.0518Z" fill="url(#paint4_radial_14562_20272)"/>
<path fill-rule="evenodd" clip-rule="evenodd" d="M8.50601 8.62399C8.56288 8.61631 8.6152 8.65618 8.62288 8.71305C8.67505 9.0992 8.71959 9.20078 8.80243 9.27614C8.84758 9.31721 8.90647 9.35259 9.00117 9.4095C9.00644 9.41266 9.01183 9.4159 9.01733 9.41921C9.11858 9.48009 9.24802 9.55937 9.41323 9.68265L9.4133 9.6827C9.43408 9.69824 9.46835 9.72207 9.51317 9.75325C9.68431 9.8723 10.0094 10.0984 10.3257 10.3786C10.5263 10.5563 10.7275 10.7591 10.8892 10.9757C11.0504 11.1915 11.1768 11.4271 11.2196 11.6699C11.2296 11.7264 11.1919 11.7803 11.1354 11.7903C11.0789 11.8003 11.025 11.7626 11.015 11.706C10.98 11.5074 10.8736 11.3021 10.7227 11.1C10.5724 10.8987 10.3824 10.7064 10.1879 10.5341C9.88327 10.2643 9.57798 10.0517 9.40313 9.92999C9.35357 9.89549 9.3145 9.86828 9.28888 9.84913C9.13179 9.73192 9.00911 9.65673 8.91025 9.59728C8.9023 9.59251 8.89443 9.58779 8.88664 9.58312C8.80039 9.5314 8.72371 9.48543 8.66261 9.42985C8.51688 9.29729 8.46817 9.1199 8.41696 8.74087C8.40928 8.684 8.44915 8.63168 8.50601 8.62399Z" fill="#DD507B"/>
<path fill-rule="evenodd" clip-rule="evenodd" d="M9.21915 8.36697C9.27451 8.35187 9.33163 8.3845 9.34673 8.43986C9.35042 8.45338 9.36187 8.47909 9.38714 8.51926C9.41148 8.55794 9.4451 8.60455 9.4878 8.65883C9.57315 8.76735 9.69041 8.90108 9.83158 9.05482C10.0288 9.26957 10.269 9.51956 10.5287 9.7897C10.641 9.90661 10.757 10.0273 10.8747 10.1505C11.2633 10.5574 11.669 10.9906 12.0169 11.4007C12.3635 11.8092 12.6582 12.2011 12.8199 12.5246C12.8456 12.576 12.8248 12.6384 12.7735 12.664C12.7222 12.6897 12.6598 12.6689 12.6341 12.6176C12.4842 12.3177 12.2035 11.9418 11.8584 11.5351C11.5147 11.1299 11.1125 10.7004 10.7244 10.294C10.6081 10.1722 10.4928 10.0523 10.3808 9.93578C10.1203 9.66472 9.87737 9.41193 9.67852 9.19536C9.53627 9.04044 9.41477 8.9021 9.32447 8.78729C9.27933 8.7299 9.2409 8.67702 9.21126 8.62992C9.18256 8.58429 9.1581 8.53791 9.14627 8.49455C9.13116 8.43919 9.1638 8.38207 9.21915 8.36697Z" fill="#DD507B"/>
<path fill-rule="evenodd" clip-rule="evenodd" d="M11.6446 7.28504C11.6664 7.23199 11.7272 7.2067 11.7802 7.22857C11.9966 7.31775 12.1056 7.51549 12.1877 7.69671C12.2075 7.74054 12.2247 7.78081 12.2414 7.82001C12.2627 7.86978 12.2832 7.91784 12.3075 7.96929C12.3482 8.05567 12.391 8.1312 12.4431 8.19229C13.0566 8.91246 13.3989 9.90583 13.5885 10.7099C13.6837 11.1134 13.7411 11.4725 13.7747 11.7309C13.7915 11.8601 13.8024 11.9642 13.8091 12.0363C13.8124 12.0723 13.8147 12.1003 13.8162 12.1195C13.817 12.129 13.8175 12.1364 13.8178 12.1414L13.8182 12.1471L13.8183 12.1487L13.8184 12.1492C13.8184 12.1493 13.8184 12.1493 13.7147 12.1558L13.8184 12.1493C13.8219 12.2066 13.7784 12.2559 13.7211 12.2595C13.6639 12.2631 13.6146 12.2196 13.611 12.1623M13.611 12.1623L13.611 12.162L13.6109 12.1608L13.6105 12.1558C13.6102 12.1513 13.6097 12.1445 13.609 12.1354C13.6076 12.1173 13.6054 12.0904 13.6022 12.0555C13.5957 11.9857 13.5851 11.8841 13.5686 11.7577C13.5357 11.5047 13.4794 11.1527 13.3863 10.7576C13.1992 9.96421 12.8663 9.00952 12.285 8.32709M11.6446 7.28504C11.6227 7.33809 11.648 7.39882 11.7011 7.42069ZM11.7011 7.42069C11.8363 7.47644 11.9175 7.60363 11.9984 7.78241ZM11.9984 7.78241C12.0136 7.81595 12.03 7.85419 12.0469 7.89372ZM12.0469 7.89372C12.0706 7.9491 12.0955 8.00699 12.1196 8.05802ZM12.1196 8.05802C12.1635 8.15104 12.2155 8.24559 12.285 8.32709Z" fill="#DD507B"/>
<path d="M9.62793 8.42595C10.2264 8.62907 12.7755 10.8098 12.9349 12.0519C13.0944 13.294 11.6882 14.1298 11.6882 14.1298C11.6882 14.1298 13.2399 13.7319 13.6103 12.6234C13.9697 11.548 12.8981 10.173 12.2077 9.35062C11.5173 8.52829 10.6492 7.74023 10.6492 7.74023" fill="url(#paint5_radial_14562_20272)"/>
<path fill-rule="evenodd" clip-rule="evenodd" d="M10.5727 7.67078C10.6113 7.6283 10.677 7.62512 10.7195 7.66369L10.6496 7.74062L10.5798 7.81754C10.5373 7.77897 10.5341 7.71326 10.5727 7.67078ZM13.7092 12.6567C13.5116 13.2481 13.0031 13.6413 12.5607 13.8838C12.3377 14.006 12.127 14.0925 11.9721 14.1484C11.8946 14.1765 11.8308 14.1969 11.7861 14.2104C11.7637 14.2172 11.7461 14.2222 11.7339 14.2256C11.7279 14.2273 11.7231 14.2286 11.7199 14.2294L11.716 14.2304L11.7149 14.2307L11.7145 14.2308C11.7144 14.2309 11.7144 14.2309 11.6886 14.1302L11.7144 14.2309C11.6644 14.2437 11.6125 14.2178 11.5926 14.1701C11.5728 14.1224 11.5911 14.0674 11.6355 14.041M11.6355 14.0409L11.636 14.0406L11.6385 14.0391C11.6409 14.0377 11.6444 14.0355 11.6492 14.0325C11.6588 14.0265 11.673 14.0174 11.6913 14.0053C11.7279 13.981 11.7804 13.9448 11.8432 13.8973C11.9689 13.8023 12.1346 13.6633 12.295 13.4871C12.6178 13.1326 12.9064 12.6426 12.8323 12.0655C12.7958 11.7811 12.6189 11.4291 12.3507 11.0504C12.0845 10.6745 11.7366 10.2838 11.3733 9.92348C11.0102 9.56342 10.6336 9.23577 10.3114 8.98602C10.1503 8.86113 10.0037 8.75637 9.87969 8.677C9.75394 8.59649 9.65734 8.54589 9.59495 8.52471C9.54061 8.50627 9.51151 8.44727 9.52995 8.39294C9.5484 8.3386 9.60739 8.3095 9.66173 8.32795C9.74895 8.35755 9.86291 8.41953 9.99174 8.50201C10.1223 8.58563 10.2742 8.69427 10.4388 8.8218C10.7678 9.07689 11.1507 9.41015 11.5196 9.77593C11.8883 10.1415 12.245 10.5415 12.5203 10.9303C12.7936 11.3161 12.9952 11.7025 13.0384 12.0391C13.1238 12.7041 12.789 13.2531 12.4486 13.627C12.3957 13.6851 12.3422 13.7394 12.2898 13.7896C12.3454 13.7628 12.4027 13.7334 12.4608 13.7016C12.8869 13.468 13.3394 13.1079 13.5121 12.5908C13.6779 12.095 13.517 11.5155 13.2114 10.9413C12.9076 10.3707 12.4733 9.82845 12.1285 9.41781C11.7862 9.0101 11.3991 8.61002 11.0969 8.31133C10.946 8.16212 10.8165 8.03851 10.7249 7.95226C10.679 7.90914 10.6427 7.87537 10.6178 7.85243C10.6054 7.84095 10.5958 7.83219 10.5894 7.82631L10.5822 7.81969L10.5798 7.81754L10.6496 7.74062C10.7195 7.66369 10.7195 7.66368 10.7195 7.66369L10.7195 7.66374L10.7221 7.66611L10.7297 7.67302C10.7363 7.67909 10.7461 7.68806 10.7588 7.69974C10.7841 7.7231 10.8209 7.75732 10.8673 7.80093C10.9599 7.88814 11.0906 8.01294 11.243 8.16354C11.5474 8.46446 11.9396 8.86958 12.2877 9.2842C12.6333 9.6959 13.08 10.2523 13.3948 10.8437C13.7077 11.4315 13.9029 12.0771 13.7092 12.6567" fill="#DD507B"/>
<path d="M9.76626 8C9.64158 8.61974 10.0712 11.3423 11.065 12.1039C12.0587 12.8655 13.6104 14.1818 13.6104 14.1818C13.6104 14.1818 12.6234 13.8701 11.1169 13.2468C10.0691 12.813 9.50652 11.7403 9.09093 11.1169L8.25977 8.41558" fill="url(#paint6_radial_14562_20272)"/>
<path fill-rule="evenodd" clip-rule="evenodd" d="M9.78716 7.89855C9.84341 7.90986 9.87984 7.96464 9.86852 8.02089C9.84076 8.15891 9.84236 8.43142 9.88054 8.78484C9.91828 9.13426 9.99049 9.5517 10.0973 9.97367C10.2042 10.3959 10.3451 10.8201 10.5194 11.1841C10.6945 11.5499 10.899 11.8459 11.1286 12.0218C11.6271 12.4039 12.2647 12.9244 12.777 13.3488C13.0333 13.5612 13.2586 13.7497 13.4197 13.8851C13.5003 13.9528 13.5648 14.0073 13.6093 14.0448C13.6315 14.0636 13.6487 14.0781 13.6603 14.088L13.678 14.1029L13.678 14.103C13.678 14.103 13.678 14.103 13.6108 14.1822C13.5795 14.2813 13.5795 14.2813 13.5795 14.2813L13.5787 14.281L13.5764 14.2803L13.5677 14.2775C13.5599 14.275 13.5484 14.2713 13.5333 14.2664C13.5031 14.2566 13.4583 14.2419 13.4 14.2223C13.2833 14.1831 13.1122 14.1244 12.894 14.0463C12.4575 13.8899 11.8326 13.6556 11.0776 13.3432C10.5316 13.1171 10.1159 12.7263 9.78645 12.3186C9.54613 12.0213 9.3469 11.7083 9.1777 11.4425C9.11632 11.3461 9.0589 11.2559 9.0049 11.1749C8.99932 11.1666 8.99499 11.1574 8.99204 11.1478L8.16087 8.44654C8.144 8.3917 8.17478 8.33356 8.22962 8.31668C8.28446 8.29981 8.3426 8.33059 8.35948 8.38543L9.18621 11.0723C9.24171 11.1559 9.29896 11.2459 9.35897 11.3401C9.52663 11.6035 9.71575 11.9006 9.94805 12.188C10.2657 12.581 10.6552 12.9434 11.1571 13.1512C11.9086 13.4621 12.5304 13.6953 12.964 13.8506C13.02 13.8707 13.0728 13.8894 13.1223 13.9069C12.9854 13.7923 12.8225 13.6563 12.6445 13.5088C12.1325 13.0847 11.4974 12.5663 11.0022 12.1868C10.7349 11.9819 10.513 11.652 10.332 11.2738C10.15 10.8938 10.005 10.4557 9.89588 10.0247C9.78668 9.59333 9.71275 9.16631 9.67395 8.80715C9.63558 8.45198 9.63024 8.15176 9.66481 7.97991C9.67613 7.92366 9.7309 7.88723 9.78716 7.89855ZM13.6108 14.1822L13.5795 14.2813C13.6267 14.2962 13.6778 14.2758 13.7018 14.2325C13.7257 14.1892 13.7157 14.135 13.678 14.103L13.6108 14.1822Z" fill="#DD507B"/>
<path fill-rule="evenodd" clip-rule="evenodd" d="M9.15222 5.42224C9.15225 5.42226 9.15227 5.42228 9.09116 5.5063C9.16105 5.42943 9.16106 5.42944 9.16108 5.42945L9.16112 5.42949L9.16124 5.4296L9.16164 5.42997L9.16305 5.43126C9.16425 5.43236 9.16598 5.43395 9.1682 5.43601C9.17263 5.44012 9.17903 5.44609 9.18708 5.45372C9.20318 5.46898 9.22598 5.49094 9.2531 5.51807C9.3072 5.57217 9.37922 5.6475 9.44994 5.73169C9.52015 5.81527 9.59167 5.91063 9.6427 6.00463C9.69109 6.09378 9.73309 6.20307 9.71252 6.3059C9.70127 6.36217 9.64653 6.39866 9.59027 6.3874C9.534 6.37615 9.49751 6.32141 9.50876 6.26515C9.51417 6.23811 9.50422 6.18506 9.46008 6.10376C9.41857 6.0273 9.35698 5.94409 9.29083 5.86534C9.22518 5.78718 9.15759 5.71641 9.10617 5.665C9.08053 5.63936 9.05909 5.61871 9.04415 5.60454C9.03668 5.59747 9.03084 5.59202 9.02693 5.58839C9.02641 5.58791 9.02592 5.58746 9.02547 5.58704C9.02364 5.58573 9.02127 5.58405 9.01839 5.58203C9.01038 5.57638 8.99842 5.56804 8.98296 5.55754C8.95203 5.53653 8.90721 5.50691 8.85224 5.4729C8.74193 5.40465 8.59242 5.31977 8.43313 5.25105C8.27226 5.18166 8.10938 5.13229 7.97027 5.12801C7.83408 5.12382 7.73417 5.16222 7.66978 5.2542C7.58393 5.37685 7.48439 5.4882 7.38896 5.59497C7.37853 5.60664 7.36816 5.61825 7.35785 5.62981C7.25157 5.74907 7.15133 5.86512 7.06876 5.99662C6.9078 6.25295 6.80838 6.5768 6.90751 7.09725C6.91824 7.15362 6.88125 7.20802 6.82489 7.21875C6.76852 7.22949 6.71412 7.1925 6.70339 7.13613C6.59473 6.56567 6.70309 6.18822 6.89278 5.88612C6.98554 5.7384 7.09634 5.61094 7.20272 5.49156C7.21299 5.48004 7.22321 5.4686 7.23336 5.45723C7.33004 5.34901 7.4212 5.24697 7.49955 5.13503C7.61698 4.96728 7.79629 4.91476 7.97666 4.92031C8.15411 4.92577 8.34512 4.98679 8.51543 5.06026C8.6873 5.1344 8.84624 5.22484 8.96157 5.2962C9.01943 5.33199 9.06674 5.36325 9.09973 5.38566C9.11623 5.39688 9.12917 5.40589 9.13808 5.41217C9.14254 5.41531 9.14599 5.41776 9.14837 5.41947L9.15114 5.42146L9.15191 5.42202L9.15214 5.42219L9.15222 5.42224ZM9.09116 5.5063L9.16105 5.42943C9.15826 5.42689 9.15532 5.4245 9.15227 5.42228L9.09116 5.5063Z" fill="#DD507B"/>
<path d="M9.5054 6.62938C9.42903 7.15717 9.0015 7.59665 8.37916 7.59665C7.75683 7.59665 7.25293 7.16341 7.25293 6.62938C7.25293 6.09536 7.36722 5.66211 8.37916 5.66211C9.00098 5.66211 9.53812 6.40081 9.5054 6.62938Z" fill="#DD507B"/>
<path d="M9.20242 6.5859C9.14631 6.98954 8.83411 7.32512 8.37904 7.32512C7.92398 7.32512 7.55566 6.99421 7.55566 6.5859C7.55566 6.17759 7.6393 5.84668 8.37904 5.84668C8.83359 5.84668 9.22631 6.41135 9.20242 6.5859Z" fill="url(#paint7_radial_14562_20272)"/>
<path d="M8.92559 6.65066C8.87052 7.00442 8.53234 7.11767 8.30585 6.82676C8.1126 6.57845 7.91 7.14936 7.91312 6.49377C7.91468 6.13845 8.23936 5.88806 8.51884 5.9317C8.79832 5.97533 8.98065 6.29689 8.92559 6.65118V6.65066Z" fill="#030107"/>
<path fill-rule="evenodd" clip-rule="evenodd" d="M8.50661 6.00851C8.27614 5.97253 7.9922 6.18437 7.99084 6.49394L7.99084 6.49397C7.99046 6.57433 7.99326 6.63362 7.99836 6.67682C8.00192 6.70698 8.00632 6.72666 8.01022 6.73904C8.01858 6.73554 8.02626 6.73181 8.0358 6.72717C8.0433 6.72352 8.05195 6.71931 8.063 6.71421C8.08596 6.70362 8.1155 6.69129 8.14842 6.68532C8.18251 6.67914 8.22141 6.67955 8.26164 6.69534C8.30152 6.711 8.33647 6.73933 8.36713 6.77872M7.835 6.49323C7.83677 6.09217 8.20217 5.80325 8.53065 5.85453C8.86844 5.90727 9.06129 6.28394 9.00238 6.66297L9.0023 6.66296C8.97123 6.86162 8.8573 7.00807 8.70233 7.05488C8.54494 7.10242 8.37243 7.03921 8.24416 6.87446L8.24415 6.87444C8.2265 6.85176 8.21285 6.84362 8.20468 6.84041C8.19686 6.83734 8.18824 6.83649 8.17622 6.83867C8.16302 6.84106 8.14782 6.84671 8.12828 6.85572C8.12357 6.8579 8.11773 6.86071 8.11131 6.86381C8.09665 6.87089 8.07894 6.87943 8.06456 6.88518C8.04316 6.89373 8.00829 6.90549 7.97006 6.89809C7.92509 6.88939 7.89473 6.85889 7.87629 6.82253C7.85932 6.78904 7.84958 6.74583 7.84359 6.69508C7.83745 6.64306 7.8346 6.57678 7.835 6.49326M8.50661 6.00851C8.72767 6.04303 8.89942 6.30921 8.84847 6.63851ZM8.84847 6.63851L8.84839 6.6385C8.82429 6.79336 8.74165 6.88021 8.65727 6.9057C8.57518 6.93049 8.46536 6.90488 8.36714 6.77873" fill="white"/>
<path d="M7.78643 5.87972C8.07578 6.20543 7.75006 6.45842 8.11214 6.31348C8.29292 6.24127 8.07734 6.49426 8.29292 6.49426C8.50851 6.49426 8.65552 6.1327 8.87162 6.1327C9.08773 6.1327 9.42851 6.68855 9.41396 6.74725C9.47474 6.64335 9.45032 6.72595 9.45032 6.60283C9.45032 6.17322 9.08877 5.69894 8.29292 5.62621C7.81916 5.58309 7.3163 5.77062 7.28045 6.1327C7.2763 6.17374 7.34539 6.78049 7.35266 6.81998C7.19682 6.21114 7.68461 5.76491 7.78643 5.87972Z" fill="url(#paint8_radial_14562_20272)"/>
<g opacity="0.8">
<path d="M11.5932 5.90016C11.5901 5.91419 11.5719 5.91159 11.575 5.92666C11.562 5.93133 11.5423 5.92822 11.5371 5.91575L11.5413 5.89913C11.5584 5.90016 11.5828 5.88978 11.5932 5.90016Z" fill="#F4EC4F"/>
<path d="M10.8806 6.04836C10.8806 6.05408 10.8717 6.05927 10.8665 6.06239C10.8624 6.05979 10.8624 6.05408 10.8655 6.04836C10.8717 6.04213 10.8769 6.04577 10.8811 6.04836H10.8806Z" fill="#F4EC4F"/>
<path d="M11.1008 6.16309C11.0982 6.17452 11.104 6.18283 11.1008 6.19582C11.0785 6.21763 11.0458 6.21919 11.0229 6.2114C11.0156 6.20932 11.0167 6.19893 11.0208 6.19322C11.0395 6.17452 11.0546 6.15426 11.0816 6.15374C11.1045 6.14179 11.0816 6.17971 11.1008 6.16361V6.16309Z" fill="#F4EC4F"/>
<path d="M10.7311 6.23134L10.7415 6.22614C10.7415 6.23186 10.7238 6.24173 10.7248 6.25056L10.7487 6.24848C10.7498 6.25679 10.7404 6.25783 10.7347 6.26095C10.757 6.27913 10.7461 6.29887 10.7674 6.32017L10.7441 6.3264C10.7415 6.33783 10.7518 6.34562 10.7477 6.35601C10.7212 6.35134 10.7259 6.38251 10.7092 6.39549C10.6994 6.39757 10.677 6.40692 10.6625 6.40225C10.663 6.41212 10.6563 6.42874 10.65 6.44225L10.6443 6.43238C10.6324 6.43757 10.6287 6.44692 10.6334 6.45368C10.6277 6.44536 10.6142 6.46251 10.6079 6.46303C10.6131 6.48121 10.6391 6.48329 10.6339 6.51134C10.6287 6.5264 10.6157 6.53575 10.6028 6.55134C10.5913 6.53939 10.5633 6.54718 10.557 6.53939C10.5659 6.52121 10.5461 6.50407 10.569 6.4864C10.5638 6.48225 10.5513 6.48225 10.5399 6.48433C10.5305 6.49679 10.5482 6.50251 10.5394 6.51497C10.5181 6.5051 10.5139 6.49679 10.4968 6.48381L10.4879 6.49471C10.4916 6.46562 10.4438 6.45471 10.4464 6.43757C10.4542 6.40381 10.4729 6.36329 10.4994 6.33835C10.5207 6.34666 10.5316 6.31394 10.5441 6.3077C10.5513 6.30978 10.5482 6.32484 10.5602 6.31342C10.5711 6.29212 10.5404 6.30355 10.5664 6.27965C10.597 6.28121 10.6292 6.24433 10.6552 6.23342C10.6833 6.21939 10.6739 6.25887 10.7015 6.23549C10.6916 6.2251 10.7092 6.22926 10.7139 6.22147C10.7254 6.21887 10.7274 6.22303 10.73 6.23186L10.7311 6.23134Z" fill="#F4EC4F"/>
<path d="M10.9296 6.49832C10.9322 6.50664 10.9202 6.51235 10.9156 6.51806C10.901 6.53365 10.8891 6.51806 10.8828 6.51079C10.8823 6.49936 10.8937 6.48949 10.9046 6.48274C10.9223 6.47235 10.9265 6.48949 10.9291 6.4978L10.9296 6.49832Z" fill="#F4EC4F"/>
<path d="M10.638 6.56628C10.639 6.57511 10.6432 6.58291 10.6364 6.59226C10.6235 6.60213 10.6105 6.612 10.598 6.60992C10.5876 6.60057 10.5741 6.59901 10.5829 6.57927C10.5923 6.55797 10.6292 6.5481 10.6375 6.56576L10.638 6.56628Z" fill="#F4EC4F"/>
<path d="M11.308 6.56297C11.3241 6.58167 11.2966 6.59258 11.2836 6.60973C11.2519 6.5983 11.2623 6.64349 11.2332 6.63466C11.228 6.63102 11.2213 6.62583 11.2265 6.61544C11.2613 6.60505 11.2286 6.56505 11.2644 6.55726C11.2805 6.54843 11.295 6.5583 11.308 6.56297Z" fill="#F4EC4F"/>
<path d="M11.0406 6.59148C11.0417 6.60135 11.0308 6.61537 11.0209 6.61797C11.009 6.62369 11.0022 6.61278 10.9991 6.6055C10.9981 6.59563 11.009 6.58161 11.0204 6.58057C11.0334 6.57797 11.0344 6.58628 11.0412 6.59148H11.0406Z" fill="#F4EC4F"/>
<path d="M10.8948 6.62685C10.8932 6.63412 10.887 6.63464 10.8823 6.64088C10.8704 6.64503 10.8698 6.6336 10.8662 6.62945L10.8776 6.6123C10.8885 6.6123 10.8901 6.61854 10.8948 6.62633V6.62685Z" fill="#F4EC4F"/>
<path d="M11.0179 6.64279C11.0127 6.65214 11.0065 6.65993 10.9956 6.66512C10.9857 6.66045 10.9707 6.65889 10.979 6.64227C10.9811 6.63188 10.9909 6.63084 11.0003 6.62305C11.0107 6.62512 11.0164 6.63292 11.0174 6.64279H11.0179Z" fill="#F4EC4F"/>
<path d="M10.873 6.6764C10.8719 6.68783 10.8787 6.69302 10.8849 6.69822C10.8714 6.70965 10.875 6.72783 10.8699 6.73874C10.8584 6.72835 10.8439 6.7512 10.8283 6.75692C10.806 6.75328 10.7867 6.72731 10.8028 6.69718C10.8221 6.68679 10.8382 6.65094 10.8558 6.66913C10.861 6.67276 10.8641 6.68003 10.873 6.6764Z" fill="#F4EC4F"/>
<path d="M10.5891 6.72769L10.6005 6.75989C10.586 6.78275 10.5496 6.79314 10.5418 6.80561C10.5294 6.79937 10.5252 6.76769 10.5008 6.78587C10.4847 6.78015 10.4774 6.76301 10.4837 6.74379C10.5102 6.70846 10.5528 6.74795 10.5709 6.70898C10.5668 6.72093 10.573 6.72769 10.5886 6.72769H10.5891Z" fill="#F4EC4F"/>
<path d="M11.0093 6.68539C11.0088 6.69578 11.0047 6.70721 10.9995 6.71656C10.9906 6.71448 10.9787 6.71864 10.9678 6.71812C10.9688 6.70669 10.9662 6.6911 10.9797 6.67968C10.9906 6.67136 11.0073 6.67396 11.0093 6.68539Z" fill="#F4EC4F"/>
<path d="M11.0372 6.75121C11.0195 6.76887 11.0123 6.75069 10.9967 6.75121C10.993 6.74549 10.9936 6.73874 10.9967 6.72939C11.005 6.72004 11.0138 6.71484 11.0263 6.71484C11.0403 6.72212 11.0284 6.74082 11.0367 6.75121H11.0372Z" fill="#F4EC4F"/>
<path d="M11.2633 6.76709C11.2669 6.77956 11.2524 6.78268 11.2446 6.78891C11.2352 6.78839 11.229 6.7832 11.2295 6.77333C11.2337 6.7541 11.2597 6.74891 11.2633 6.76709Z" fill="#F4EC4F"/>
<path d="M10.9482 6.92894C10.9482 6.93777 10.929 6.9466 10.9248 6.93673L10.9352 6.91699C10.9404 6.92063 10.9487 6.92011 10.9482 6.92894Z" fill="#F4EC4F"/>
<path d="M12.5661 6.94537C12.5661 6.94537 12.5656 6.94849 12.5635 6.95005V6.94434C12.5635 6.94434 12.5645 6.94589 12.5661 6.94537Z" fill="#F4EC4F"/>
<path d="M11.5303 7.11426C11.5184 7.13296 11.4774 7.15841 11.5013 7.16932C11.5397 7.1714 11.522 7.21036 11.5449 7.22543C11.5329 7.23114 11.5252 7.24621 11.535 7.2566C11.5371 7.26075 11.5449 7.26127 11.5501 7.25919C11.5418 7.26854 11.508 7.28776 11.5018 7.3101C11.4748 7.32153 11.4363 7.334 11.4218 7.34387C11.4171 7.35166 11.4306 7.34595 11.4239 7.3553C11.4176 7.34023 11.3911 7.33556 11.3745 7.32569L11.3698 7.33348C11.347 7.33296 11.3439 7.3101 11.3407 7.29608C11.3361 7.28932 11.3241 7.30075 11.32 7.29971C11.3194 7.29556 11.348 7.27114 11.3335 7.25971L11.3096 7.26231C11.3205 7.254 11.3366 7.25971 11.3418 7.24309C11.3407 7.23426 11.3376 7.2275 11.3381 7.22335C11.3631 7.21504 11.362 7.17763 11.3901 7.17036C11.4062 7.18179 11.4192 7.15893 11.4275 7.14802L11.4239 7.16569C11.4415 7.14802 11.4587 7.14802 11.4779 7.14439L11.4758 7.15478C11.5007 7.15478 11.5122 7.12205 11.5309 7.11478L11.5303 7.11426Z" fill="#F4EC4F"/>
<path d="M11.4908 7.13219H11.4893L11.5002 7.11816C11.5022 7.12232 11.4934 7.12751 11.4908 7.13219Z" fill="#F4EC4F"/>
<path d="M11.3779 7.16754C11.3779 7.16754 11.3753 7.17378 11.3701 7.17429C11.3712 7.16962 11.3722 7.16546 11.3779 7.16754Z" fill="#F4EC4F"/>
<path d="M10.4146 7.07376C10.3975 7.08104 10.4074 7.06441 10.4053 7.0587C10.4146 7.05766 10.4229 7.06441 10.4146 7.07376Z" fill="#F4EC4F"/>
<path d="M11.3494 7.20678V7.20989L11.3447 7.20574C11.3468 7.20418 11.3478 7.20574 11.3494 7.20678Z" fill="#F4EC4F"/>
<path d="M11.5692 7.22903C11.566 7.22799 11.5572 7.23318 11.5619 7.22695C11.5671 7.22331 11.5681 7.22799 11.5692 7.22903Z" fill="#F4EC4F"/>
<path d="M11.6169 7.26666C11.6169 7.26666 11.6158 7.27134 11.6143 7.27134V7.26562C11.6143 7.26562 11.6153 7.26563 11.6169 7.26666Z" fill="#F4EC4F"/>
<path d="M11.5204 7.3263V7.32941L11.5146 7.32422C11.5178 7.32422 11.5193 7.32422 11.5204 7.3263Z" fill="#F4EC4F"/>
<path d="M11.5328 7.43253C11.5551 7.42318 11.5447 7.45591 11.5644 7.45851C11.5634 7.45591 11.538 7.46526 11.5452 7.47617C11.5489 7.4876 11.5619 7.4715 11.5572 7.485C11.5499 7.47565 11.5276 7.485 11.5219 7.49124L11.5276 7.50059C11.5063 7.49279 11.4777 7.48656 11.4819 7.46059C11.4865 7.43825 11.5052 7.44552 11.5141 7.42578C11.5104 7.44189 11.5333 7.42266 11.5328 7.43253Z" fill="#F4EC4F"/>
<path d="M11.1976 7.47284C11.2012 7.47803 11.1929 7.4879 11.1851 7.48686C11.1742 7.48063 11.1851 7.46505 11.1976 7.47284Z" fill="#F4EC4F"/>
<path d="M11.6644 7.43802C11.6649 7.44218 11.668 7.44893 11.6581 7.45308C11.6472 7.45308 11.6493 7.44373 11.6555 7.4375C11.6586 7.43854 11.6612 7.4401 11.6649 7.43802H11.6644Z" fill="#F4EC4F"/>
<path d="M11.603 7.78813C11.6243 7.77618 11.643 7.8032 11.6737 7.7845C11.6628 7.78553 11.6493 7.80268 11.6456 7.79281C11.6638 7.79541 11.6373 7.83125 11.6581 7.84216C11.6373 7.85826 11.6243 7.86709 11.6036 7.89047C11.5942 7.88424 11.5791 7.88268 11.5651 7.88995V7.89566C11.5511 7.88268 11.5506 7.87125 11.5241 7.87956L11.5215 7.88424C11.5241 7.87229 11.5308 7.87748 11.5391 7.86657C11.5314 7.86605 11.5365 7.85099 11.5262 7.85618C11.5319 7.83852 11.5454 7.81982 11.5397 7.8032C11.5599 7.82294 11.5953 7.7632 11.6036 7.78865L11.603 7.78813Z" fill="#F4EC4F"/>
<path d="M11.4901 7.81767C11.4849 7.82131 11.4766 7.82339 11.4766 7.81612C11.4781 7.8104 11.4838 7.80521 11.4901 7.80469C11.4927 7.80728 11.4927 7.813 11.4901 7.81767Z" fill="#F4EC4F"/>
<path d="M11.6656 7.84504L11.665 7.84036L11.6713 7.83984L11.6656 7.84504Z" fill="#F4EC4F"/>
<path d="M11.5743 7.91334L11.5723 7.90918L11.5754 7.91074L11.5743 7.91334Z" fill="#F4EC4F"/>
<path d="M11.6529 7.94922C11.654 7.95753 11.6374 7.95649 11.6348 7.96065C11.6389 7.95597 11.6472 7.95389 11.6529 7.94922Z" fill="#F4EC4F"/>
<path d="M11.578 7.97912C11.5842 7.9786 11.5894 7.97081 11.592 7.96509C11.59 7.98691 11.618 7.96717 11.6305 7.96561C11.6326 7.99107 11.6616 7.99886 11.6752 8.02068C11.6788 8.01912 11.6777 8.016 11.6783 8.01496C11.6611 8.03678 11.6757 8.05237 11.6741 8.07263C11.6606 8.06379 11.6601 8.08509 11.6585 8.09237C11.6746 8.08977 11.684 8.10276 11.6887 8.10951L11.6715 8.10224C11.6606 8.10899 11.6466 8.10847 11.6409 8.12094C11.645 8.12198 11.6492 8.12613 11.6461 8.13185C11.6414 8.13185 11.6388 8.12977 11.6362 8.12717C11.6211 8.1386 11.6201 8.15003 11.6237 8.1599C11.6009 8.15211 11.5733 8.16457 11.5463 8.17237L11.5437 8.18379C11.551 8.17341 11.5328 8.17081 11.5318 8.16353C11.5032 8.17912 11.5027 8.13652 11.4757 8.14587C11.4881 8.12042 11.4689 8.11522 11.4642 8.09548L11.4622 8.09704C11.4533 8.06224 11.4949 8.02951 11.4996 7.99626C11.5203 7.9999 11.5323 7.97444 11.5562 7.97964L11.5697 7.96094C11.578 7.96457 11.5609 7.97912 11.578 7.9786V7.97912Z" fill="#F4EC4F"/>
<path d="M10.8034 8.14453H10.8049L10.8023 8.15752H10.8008L10.8034 8.14453Z" fill="#F4EC4F"/>
<path d="M10.9207 8.13945C10.9187 8.14257 10.9119 8.14464 10.9072 8.14361C10.9072 8.13633 10.9181 8.13685 10.9207 8.13945Z" fill="#F4EC4F"/>
<path d="M11.7158 8.13277C11.7065 8.13329 11.7086 8.11771 11.6992 8.11719C11.7039 8.12394 11.7184 8.12134 11.7158 8.13277Z" fill="#F4EC4F"/>
<path d="M11.6706 8.13795L11.667 8.13379H11.6717L11.6706 8.13795Z" fill="#F4EC4F"/>
<path d="M11.8269 8.1365C11.8222 8.14845 11.816 8.14325 11.8145 8.13754C11.8186 8.13442 11.8274 8.12923 11.8269 8.1365Z" fill="#F4EC4F"/>
<path d="M11.7447 8.15272L11.7354 8.14648L11.7395 8.14752L11.7447 8.15272Z" fill="#F4EC4F"/>
<path d="M11.5868 8.35608C11.5956 8.36387 11.5868 8.37582 11.579 8.38673C11.5707 8.39452 11.5551 8.38881 11.5535 8.40179C11.5489 8.39504 11.5276 8.38309 11.5421 8.36179C11.5546 8.34205 11.579 8.34309 11.5868 8.3566V8.35608Z" fill="#F4EC4F"/>
<path d="M11.6787 8.3766C11.6886 8.36154 11.6938 8.38387 11.7 8.36621C11.7219 8.36621 11.7193 8.38907 11.7489 8.38803C11.7333 8.39478 11.7437 8.414 11.7551 8.40621C11.7369 8.42907 11.7359 8.44465 11.7156 8.46335C11.7011 8.46439 11.6824 8.45452 11.6725 8.4753C11.6673 8.46595 11.6533 8.45296 11.6413 8.46387C11.6413 8.43998 11.6382 8.42751 11.645 8.40154C11.6502 8.3927 11.6829 8.38543 11.6746 8.36933C11.6772 8.37193 11.6746 8.3766 11.6787 8.37764V8.3766Z" fill="#F4EC4F"/>
<path d="M10.8495 8.52905C10.8448 8.54048 10.8407 8.54515 10.8355 8.56022C10.8204 8.57165 10.8163 8.55814 10.8012 8.56957C10.7898 8.55554 10.782 8.54931 10.7944 8.52801C10.8007 8.52022 10.8106 8.51918 10.8178 8.5145C10.8381 8.50671 10.8376 8.52645 10.849 8.52957L10.8495 8.52905Z" fill="#F4EC4F"/>
<path d="M11.7709 8.4274L11.7637 8.42532L11.772 8.4248L11.7709 8.4274Z" fill="#F4EC4F"/>
<path d="M11.1886 8.55876C11.1865 8.56603 11.1823 8.57071 11.1808 8.57642C11.1647 8.58473 11.1506 8.59356 11.1387 8.57902C11.1387 8.57175 11.1299 8.56603 11.1387 8.55512C11.146 8.55045 11.1548 8.53954 11.1626 8.54006C11.174 8.54473 11.1891 8.54577 11.1886 8.55876Z" fill="#F4EC4F"/>
<path d="M11.3547 8.56412C11.3698 8.55841 11.3781 8.5688 11.3895 8.57087C11.387 8.58646 11.3916 8.59165 11.3802 8.60672C11.361 8.63373 11.3485 8.59997 11.3262 8.6088C11.3334 8.59269 11.3449 8.57347 11.3553 8.56152V8.56464L11.3547 8.56412Z" fill="#F4EC4F"/>
<path d="M12.1649 8.50806C12.1649 8.50806 12.1607 8.51118 12.1592 8.51118L12.1628 8.50391C12.1654 8.50546 12.1654 8.5065 12.1649 8.50806Z" fill="#F4EC4F"/>
<path d="M10.9409 8.66332C10.9424 8.67422 10.9336 8.69189 10.918 8.69241C10.9045 8.69656 10.9009 8.68721 10.8947 8.68202C10.8931 8.66955 10.9071 8.65708 10.9191 8.65137C10.9279 8.65345 10.9419 8.65137 10.9404 8.66332H10.9409Z" fill="#F4EC4F"/>
<path d="M11.7543 8.65208C11.7465 8.65259 11.7293 8.65831 11.7298 8.64532C11.7267 8.63441 11.7449 8.63026 11.7511 8.62402C11.7511 8.63389 11.7667 8.63961 11.7543 8.65208Z" fill="#F4EC4F"/>
<path d="M10.9566 7.12274C10.9691 7.1217 10.9795 7.12481 10.9956 7.11598C10.994 7.12326 10.9815 7.13053 10.9904 7.13365C11.0117 7.143 11.0273 7.16481 11.0605 7.15287C11.0501 7.15806 11.035 7.15546 11.0247 7.16793C11.0252 7.17936 11.0293 7.18923 11.0402 7.1965C11.0288 7.19183 11.0309 7.21053 11.0273 7.21365C11.0278 7.23962 11.0657 7.24326 11.0693 7.263C11.0553 7.25728 11.0439 7.23079 11.021 7.2417C11.0034 7.25936 11.0148 7.27858 11.0101 7.29209C11.008 7.29365 11.007 7.28533 11.0044 7.28274C10.9904 7.29728 10.9608 7.30404 10.9675 7.32533C10.9343 7.343 10.8782 7.33572 10.8366 7.33365C10.8236 7.31494 10.8163 7.29105 10.8054 7.27027C10.8018 7.27183 10.7971 7.27391 10.793 7.27702C10.8096 7.24949 10.8106 7.21053 10.7997 7.19546C10.8065 7.17884 10.8143 7.19962 10.8241 7.183C10.8366 7.17468 10.835 7.1617 10.8402 7.15079C10.875 7.13468 10.8927 7.12429 10.9234 7.10352C10.9062 7.13261 10.9602 7.10404 10.9566 7.1217V7.12274Z" fill="#F4EC4F"/>
<path d="M12.2104 8.62207C12.2067 8.62363 12.2078 8.62519 12.2073 8.62675L12.2592 8.62207L12.2514 8.6283C12.2722 8.63869 12.2836 8.64701 12.3049 8.66103C12.3174 8.69376 12.2873 8.7348 12.2935 8.76597C12.2784 8.78467 12.2857 8.76025 12.2717 8.76077C12.267 8.76649 12.2462 8.77116 12.2602 8.77688C12.2447 8.77584 12.2332 8.78311 12.2187 8.78363L12.2161 8.79662C12.2 8.79298 12.1948 8.78467 12.173 8.7935C12.1709 8.80493 12.186 8.80181 12.1802 8.81428C12.1787 8.78882 12.1439 8.79142 12.1392 8.76597L12.1278 8.77791C12.1236 8.76701 12.1402 8.74778 12.121 8.74415L12.1143 8.74986C12.1138 8.72597 12.1273 8.70155 12.1299 8.67558C12.1434 8.63973 12.1787 8.63662 12.2099 8.62259L12.2104 8.62207Z" fill="#F4EC4F"/>
<path d="M11.6271 8.68594C11.6271 8.69165 11.6229 8.69581 11.6187 8.69892C11.6068 8.70256 11.6026 8.69581 11.6052 8.6875C11.613 8.67711 11.6239 8.68022 11.6271 8.68594Z" fill="#F4EC4F"/>
<path d="M11.7025 8.68327C11.7046 8.68743 11.6984 8.68794 11.6963 8.6895C11.69 8.6895 11.689 8.68171 11.6978 8.67807C11.703 8.67652 11.702 8.68067 11.7025 8.68327Z" fill="#F4EC4F"/>
<path d="M12.0038 8.74452C11.9949 8.75335 11.9898 8.74503 11.9903 8.73828C11.9965 8.73828 12.0027 8.73932 12.0038 8.74452Z" fill="#F4EC4F"/>
<path d="M12.2873 8.74805H12.2889L12.2857 8.75792H12.2842L12.2873 8.74805Z" fill="white"/>
<path d="M12.1016 8.77716L12.113 8.75586L12.1078 8.77144L12.1016 8.77716Z" fill="#F4EC4F"/>
<path d="M12.3224 8.76853C12.3214 8.77164 12.3157 8.77424 12.3115 8.7732C12.3131 8.76905 12.3198 8.76593 12.3224 8.76853Z" fill="#F4EC4F"/>
<path d="M12.2378 8.82048C12.2269 8.82515 12.2404 8.82723 12.241 8.83035C12.2197 8.83347 12.2384 8.81373 12.2207 8.80957C12.228 8.81061 12.2389 8.81217 12.2378 8.82048Z" fill="#F4EC4F"/>
<path d="M12.7681 9.11615C12.7613 9.14316 12.7977 9.15511 12.7904 9.17745C12.7878 9.17745 12.7858 9.17225 12.7816 9.17641C12.8019 9.19875 12.7494 9.20602 12.7712 9.22732L12.7577 9.22108C12.7468 9.22784 12.7489 9.23511 12.7484 9.24342C12.7452 9.24082 12.7484 9.23407 12.7421 9.23199C12.7281 9.24342 12.7094 9.2455 12.6954 9.24758C12.6969 9.24654 12.6974 9.2455 12.6985 9.24342C12.6798 9.24342 12.6715 9.24394 12.6574 9.23355C12.6507 9.23615 12.6512 9.24238 12.6522 9.2455C12.6678 9.21797 12.6148 9.20186 12.6413 9.1655C12.6247 9.15823 12.6476 9.14368 12.6512 9.13225C12.6538 9.11875 12.6637 9.11355 12.6777 9.10784C12.7109 9.10108 12.7447 9.09797 12.7681 9.11615Z" fill="#F4EC4F"/>
<path d="M11.6109 8.86937C11.6109 8.87768 11.6021 8.88235 11.5953 8.88547C11.5854 8.88339 11.5886 8.87352 11.5938 8.86625C11.6015 8.86158 11.6073 8.86625 11.6109 8.86885V8.86937Z" fill="#F4EC4F"/>
<path d="M11.9001 8.89077L11.8991 8.89337L11.8965 8.88818C11.9001 8.88662 11.8991 8.88921 11.9001 8.89077Z" fill="#F4EC4F"/>
<path d="M11.9005 8.91593L11.8984 8.91749L11.901 8.90918C11.9036 8.91022 11.901 8.91489 11.9 8.91593H11.9005Z" fill="#F4EC4F"/>
<path d="M11.8504 8.93935L11.854 8.95546C11.8338 8.95234 11.8307 8.96065 11.8094 8.96221C11.8125 8.95234 11.7974 8.94818 11.8094 8.93104C11.8125 8.92533 11.8281 8.91649 11.8369 8.91701C11.8442 8.92325 11.8733 8.9274 11.8509 8.93935H11.8504Z" fill="#F4EC4F"/>
<path d="M12.8338 9.18958L12.8291 9.1875L12.8327 9.18802L12.8338 9.18958Z" fill="#F4EC4F"/>
<path d="M11.8574 8.93613L11.8579 8.93457H11.8626L11.8574 8.93613Z" fill="#F4EC4F"/>
<path d="M13.6553 9.11073L13.6465 9.10449L13.6543 9.10865L13.6553 9.11073Z" fill="#F4EC4F"/>
<path d="M12.824 9.22642L12.8193 9.2207L12.8214 9.22226L12.824 9.22642Z" fill="#F4EC4F"/>
<path d="M12.8412 9.2434C12.8412 9.24704 12.8376 9.24548 12.835 9.24496C12.837 9.24288 12.8381 9.2408 12.8412 9.2434Z" fill="#F4EC4F"/>
<path d="M12.7171 9.25083C12.7098 9.25239 12.7171 9.2472 12.7181 9.24512C12.7202 9.24668 12.7165 9.24823 12.7171 9.25083Z" fill="#F4EC4F"/>
<path d="M12.6738 9.25966C12.6758 9.25187 12.6623 9.24927 12.667 9.24512C12.6722 9.24927 12.6883 9.25083 12.6738 9.25966Z" fill="#F4EC4F"/>
<path d="M12.7252 9.2576H12.7148L12.7164 9.25293L12.7268 9.25449L12.7252 9.2576Z" fill="#F4EC4F"/>
<path d="M11.8176 9.03896C11.8078 9.05455 11.7948 9.03896 11.8062 9.03273C11.813 9.03117 11.8182 9.03325 11.8176 9.03896Z" fill="#F4EC4F"/>
<path d="M11.8466 9.04255C11.8363 9.04983 11.8331 9.03788 11.8425 9.0332C11.8461 9.0358 11.8503 9.03684 11.8466 9.04255Z" fill="#F4EC4F"/>
<path d="M11.7895 9.06776C11.7796 9.07347 11.7843 9.06516 11.7843 9.06152C11.7864 9.06412 11.7942 9.05945 11.7895 9.06776Z" fill="#F4EC4F"/>
<path d="M11.6743 9.13641C11.6644 9.13018 11.6431 9.14368 11.6457 9.12758C11.6603 9.1255 11.6681 9.12862 11.6743 9.13641Z" fill="#F4EC4F"/>
<path d="M11.6502 9.14563C11.6528 9.14304 11.6393 9.15031 11.645 9.14355L11.6502 9.14563Z" fill="#F4EC4F"/>
<path d="M11.6654 9.14713L11.6602 9.14453L11.6643 9.14557L11.6654 9.14713Z" fill="#F4EC4F"/>
<path d="M11.6567 9.15735L11.6484 9.15527L11.6573 9.15579L11.6567 9.15735Z" fill="#F4EC4F"/>
<path d="M11.7039 9.20081C11.6987 9.20652 11.692 9.20392 11.6972 9.19873C11.7008 9.19717 11.7013 9.19977 11.7039 9.20081Z" fill="#F4EC4F"/>
<path d="M12.7473 9.47341L12.7364 9.48743C12.7166 9.48847 12.7156 9.46821 12.7197 9.46042C12.7353 9.45003 12.7442 9.46613 12.7473 9.47393V9.47341Z" fill="#F4EC4F"/>
<path d="M12.3017 9.46868C12.2955 9.47076 12.2955 9.46556 12.2939 9.46192C12.2986 9.45309 12.3168 9.46089 12.3017 9.46868Z" fill="#F4EC4F"/>
<path d="M12.4717 9.52308L12.4743 9.5127L12.4774 9.52101L12.4717 9.52308Z" fill="#F4EC4F"/>
</g>
<path d="M10.0993 7.83442C10.0894 7.84637 10.0748 7.83286 10.0707 7.85001C10.0567 7.84689 10.0411 7.83131 10.0432 7.81676L10.0551 7.80273C10.0697 7.81416 10.0956 7.8178 10.0993 7.83442Z" fill="#F4EC4F"/>
<path d="M9.41394 7.53567C9.41082 7.54138 9.40095 7.54034 9.3942 7.53982C9.39212 7.53463 9.39524 7.52891 9.40095 7.52476C9.40979 7.52268 9.41186 7.53047 9.41394 7.53515V7.53567Z" fill="#F4EC4F"/>
<path d="M9.54132 7.79736C9.533 7.80775 9.53404 7.8197 9.52521 7.83165C9.49508 7.84048 9.46547 7.82074 9.44937 7.79684C9.44417 7.78957 9.44937 7.7797 9.45664 7.77606C9.4821 7.76827 9.50547 7.75788 9.52937 7.7745C9.55534 7.7771 9.5169 7.80152 9.54132 7.79736Z" fill="#F4EC4F"/>
<path d="M9.1888 7.61923L9.20022 7.62131C9.19711 7.62754 9.17685 7.62546 9.17321 7.63533L9.19399 7.64988C9.19035 7.65975 9.18204 7.65403 9.17529 7.65351C9.18516 7.68884 9.16542 7.70234 9.17321 7.74027L9.14983 7.73092C9.14152 7.74183 9.14672 7.75741 9.13789 7.76624C9.11763 7.74234 9.10568 7.77975 9.08438 7.78235C9.07451 7.77819 9.05113 7.77196 9.04074 7.75689C9.03607 7.76884 9.02204 7.78183 9.00957 7.79273V7.77819C8.99659 7.77559 8.9888 7.78286 8.98931 7.79377C8.98828 7.78027 8.96854 7.79014 8.96282 7.78598C8.95763 7.8104 8.97996 7.83118 8.96178 7.85923C8.95035 7.87221 8.93373 7.87429 8.91503 7.8826C8.91087 7.86079 8.8823 7.84988 8.88074 7.83637C8.89685 7.82234 8.88854 7.78858 8.91763 7.78494C8.91503 7.77663 8.90464 7.76728 8.89373 7.76157C8.8797 7.76884 8.89165 7.78806 8.87763 7.79585C8.86464 7.76936 8.86516 7.75637 8.85685 7.72884L8.84386 7.73455C8.86152 7.70442 8.8262 7.65663 8.83867 7.63793C8.8636 7.6052 8.90152 7.57403 8.93737 7.56624C8.95087 7.5917 8.97737 7.56416 8.99191 7.56624C8.99659 7.57403 8.98568 7.58754 9.00178 7.58442C9.02256 7.56988 8.99087 7.55897 9.02568 7.55273C9.05061 7.57767 9.09737 7.56157 9.12542 7.56884C9.15659 7.57455 9.12698 7.60988 9.16334 7.60416C9.16074 7.58598 9.17321 7.60312 9.18152 7.59845C9.19243 7.60416 9.19191 7.60988 9.18983 7.62079L9.1888 7.61923Z" fill="#F4EC4F"/>
<path d="M9.22989 8.04542C9.22833 8.05633 9.21534 8.05425 9.20807 8.05841C9.18781 8.0662 9.1847 8.04023 9.18262 8.0288C9.18729 8.01581 9.20236 8.0127 9.21483 8.0127C9.2356 8.01321 9.23093 8.03451 9.22937 8.04594L9.22989 8.04542Z" fill="#F4EC4F"/>
<path d="M8.93885 7.92142C8.93573 7.93181 8.93521 7.94428 8.92482 7.94999C8.90872 7.95207 8.89261 7.95363 8.88274 7.94324C8.87807 7.92558 8.86716 7.91363 8.8843 7.89804C8.903 7.8809 8.93989 7.89545 8.93885 7.92142Z" fill="#F4EC4F"/>
<path d="M9.54136 8.36044C9.54812 8.39109 9.51851 8.38641 9.49929 8.39732C9.47487 8.36511 9.46552 8.42122 9.44214 8.39368C9.43903 8.38589 9.43487 8.37602 9.44422 8.36771C9.48059 8.3781 9.46812 8.31316 9.50396 8.32719C9.52214 8.32719 9.53098 8.34797 9.54085 8.36096L9.54136 8.36044Z" fill="#F4EC4F"/>
<path d="M9.28732 8.22192C9.28368 8.23386 9.26758 8.24218 9.25771 8.23854C9.2442 8.23698 9.24316 8.22036 9.24316 8.21049C9.2468 8.19854 9.2629 8.19023 9.27329 8.19646C9.28628 8.20218 9.28316 8.21205 9.2868 8.22244L9.28732 8.22192Z" fill="#F4EC4F"/>
<path d="M9.13932 8.16523C9.13464 8.1725 9.12841 8.16886 9.12166 8.17302C9.10919 8.16938 9.11386 8.1564 9.1123 8.14912L9.13049 8.1377C9.13984 8.14549 9.13932 8.15276 9.13932 8.16523Z" fill="#F4EC4F"/>
<path d="M9.24478 8.26424C9.23595 8.27099 9.22712 8.27566 9.21517 8.27462C9.20842 8.26268 9.19491 8.25125 9.20997 8.23826C9.21673 8.22839 9.22556 8.23359 9.23803 8.23047C9.24686 8.2393 9.24842 8.25229 9.2453 8.26424H9.24478Z" fill="#F4EC4F"/>
<path d="M9.09743 8.20594C9.09119 8.2184 9.09483 8.22879 9.09846 8.23866C9.08132 8.24282 9.07665 8.2662 9.0673 8.27451C9.06106 8.25477 9.03821 8.27139 9.02158 8.26775C9.00288 8.24853 8.99717 8.20645 9.02522 8.18256C9.04756 8.1836 9.07769 8.15347 9.08548 8.18619C9.08859 8.19399 9.08808 8.20386 9.09795 8.20542L9.09743 8.20594Z" fill="#F4EC4F"/>
<path d="M8.81927 8.07131L8.81459 8.11651C8.79122 8.13313 8.75381 8.11962 8.74135 8.12846C8.73304 8.11235 8.74394 8.07287 8.71381 8.07651C8.70239 8.05833 8.70343 8.03391 8.71797 8.01573C8.75797 7.99391 8.77771 8.06975 8.812 8.03755C8.80265 8.04846 8.80524 8.0604 8.81927 8.07131Z" fill="#F4EC4F"/>
<path d="M9.21796 8.30645C9.21277 8.31736 9.20394 8.32827 9.19511 8.33502C9.18783 8.32671 9.17537 8.3236 9.16602 8.31632C9.17173 8.30386 9.17641 8.28463 9.19355 8.28048C9.20705 8.2784 9.22108 8.29243 9.21796 8.30645Z" fill="#F4EC4F"/>
<path d="M9.21513 8.39921C9.19123 8.40752 9.19279 8.38259 9.17877 8.37272C9.17825 8.36441 9.18136 8.35609 9.18812 8.3483C9.20006 8.34311 9.20994 8.34311 9.22136 8.35142C9.23071 8.36856 9.21201 8.38155 9.21513 8.39921Z" fill="#F4EC4F"/>
<path d="M9.41692 8.55998C9.41484 8.57608 9.40029 8.57036 9.39042 8.57296C9.38211 8.56673 9.37796 8.55686 9.38315 8.54595C9.3951 8.52725 9.42107 8.53712 9.41692 8.55998Z" fill="#F4EC4F"/>
<path d="M9.0601 8.54428C9.05594 8.55415 9.03465 8.55207 9.03517 8.53805L9.05283 8.52246C9.05594 8.53025 9.06374 8.53441 9.0601 8.54428Z" fill="#F4EC4F"/>
<path d="M10.5764 9.49088C10.5764 9.49088 10.5749 9.494 10.5723 9.49452L10.5738 9.48828C10.5738 9.48828 10.5749 9.49036 10.5764 9.49088Z" fill="#F4EC4F"/>
<path d="M9.5312 9.11557C9.51354 9.12959 9.46471 9.13479 9.48393 9.16128C9.51978 9.18622 9.48861 9.2205 9.50523 9.25115C9.49172 9.25063 9.47874 9.2631 9.48445 9.28128C9.48497 9.28752 9.49224 9.29271 9.49744 9.29323C9.48601 9.29946 9.44705 9.30154 9.43354 9.32388C9.40341 9.32128 9.36237 9.31297 9.34523 9.31609C9.33796 9.32232 9.35302 9.32388 9.34315 9.33063C9.34315 9.30933 9.31874 9.28804 9.30679 9.26674L9.29952 9.27297C9.2777 9.25843 9.28341 9.23037 9.28497 9.21219C9.28289 9.2018 9.26783 9.20752 9.26367 9.20388C9.26471 9.19869 9.30055 9.18726 9.29068 9.16544L9.26731 9.15401C9.28081 9.15089 9.2938 9.167 9.30471 9.15141C9.30679 9.14102 9.30627 9.13115 9.30887 9.12648C9.33536 9.13219 9.34835 9.08804 9.37744 9.09687C9.38835 9.11972 9.40913 9.10102 9.42107 9.09375L9.41068 9.11193C9.43406 9.10258 9.45016 9.11193 9.4699 9.11972L9.46419 9.13011C9.48757 9.14518 9.51042 9.11453 9.5312 9.11713V9.11557Z" fill="#F4EC4F"/>
<path d="M9.48789 9.11195L9.48633 9.11091L9.50139 9.10156C9.50191 9.1078 9.49152 9.10832 9.48737 9.11195H9.48789Z" fill="#F4EC4F"/>
<path d="M9.36729 9.08578C9.36729 9.08578 9.36262 9.09098 9.35742 9.0889C9.36002 9.08422 9.36262 9.08007 9.36729 9.08578Z" fill="#F4EC4F"/>
<path d="M8.50804 8.35352C8.48934 8.3504 8.50544 8.33741 8.50596 8.3291C8.51479 8.33482 8.51947 8.34832 8.50804 8.35352Z" fill="#F4EC4F"/>
<path d="M9.3259 9.11301L9.32434 9.11613L9.32227 9.10938C9.32227 9.10938 9.32538 9.11093 9.3259 9.11301Z" fill="#F4EC4F"/>
<path d="M9.52676 9.26949C9.52468 9.26637 9.51429 9.26741 9.52052 9.26273C9.52676 9.26221 9.52572 9.26741 9.52676 9.26949Z" fill="#F4EC4F"/>
<path d="M9.55982 9.34003C9.55982 9.34003 9.55722 9.34471 9.55566 9.34367L9.55722 9.33691C9.55722 9.33691 9.55878 9.33743 9.5593 9.34003H9.55982Z" fill="#F4EC4F"/>
<path d="M9.44608 9.35239L9.44452 9.35551L9.44141 9.34668C9.44452 9.34824 9.44608 9.34876 9.44608 9.35291V9.35239Z" fill="#F4EC4F"/>
<path d="M9.42136 9.48159C9.44577 9.48367 9.42447 9.51536 9.44317 9.5299C9.44317 9.52627 9.41564 9.52263 9.41876 9.53925C9.41876 9.55432 9.43642 9.54341 9.42759 9.5564C9.42395 9.54133 9.39902 9.53925 9.39123 9.54341L9.3933 9.55796C9.37512 9.53614 9.34967 9.51328 9.36317 9.48471C9.37512 9.46185 9.39071 9.48055 9.40629 9.46289C9.39746 9.47951 9.42603 9.47016 9.42188 9.48159H9.42136Z" fill="#F4EC4F"/>
<path d="M9.08534 9.33013C9.0869 9.33844 9.07547 9.34467 9.06872 9.33948C9.06041 9.32545 9.07651 9.31402 9.08534 9.33013Z" fill="#F4EC4F"/>
<path d="M9.54572 9.56333C9.54468 9.56853 9.54572 9.5784 9.53429 9.57736C9.5239 9.5706 9.52858 9.56177 9.53689 9.55762C9.53948 9.56073 9.54156 9.56333 9.54572 9.56333Z" fill="#F4EC4F"/>
<path d="M9.3742 9.93817C9.39861 9.93557 9.409 9.97817 9.44485 9.97245C9.43394 9.96778 9.41576 9.98076 9.41472 9.96674C9.43186 9.97972 9.39498 10.0073 9.41212 10.0317C9.38666 10.0395 9.37212 10.0426 9.34459 10.0592C9.33731 10.0467 9.32277 10.0363 9.30666 10.0369L9.30511 10.0436C9.29524 10.0202 9.29783 10.0062 9.26926 10.001L9.26562 10.0052C9.27186 9.99271 9.27653 10.0026 9.28848 9.99427C9.28121 9.98908 9.29056 9.97401 9.27861 9.97453C9.289 9.95635 9.30822 9.9418 9.3077 9.91895C9.32173 9.95375 9.37368 9.90284 9.37472 9.93713L9.3742 9.93817Z" fill="#F4EC4F"/>
<path d="M9.25646 9.90994C9.25023 9.91098 9.2414 9.9089 9.24347 9.90059C9.24659 9.89436 9.25386 9.89176 9.2601 9.89488C9.26166 9.89955 9.2601 9.9063 9.25646 9.91046V9.90994Z" fill="#F4EC4F"/>
<path d="M9.41992 10.0394L9.42044 10.0342L9.42719 10.0368L9.41992 10.0394Z" fill="#F4EC4F"/>
<path d="M9.31061 10.0707L9.30957 10.0645L9.31217 10.0676L9.31061 10.0707Z" fill="#F4EC4F"/>
<path d="M9.37774 10.1572C9.37671 10.1681 9.36008 10.1572 9.35645 10.1614C9.36164 10.1583 9.37099 10.1598 9.37774 10.1572Z" fill="#F4EC4F"/>
<path d="M9.29447 10.152C9.30071 10.1545 9.30798 10.1483 9.31266 10.1426C9.30486 10.1675 9.33759 10.1592 9.35058 10.1644C9.34538 10.1961 9.3724 10.221 9.38019 10.2543C9.38434 10.2543 9.38382 10.2501 9.38486 10.2486C9.36201 10.2652 9.3724 10.2922 9.36512 10.3156C9.35421 10.2979 9.34798 10.3234 9.34434 10.3317C9.36097 10.3369 9.36668 10.3582 9.3698 10.3686L9.35473 10.3509C9.34227 10.353 9.32824 10.3457 9.31941 10.3571C9.32356 10.3608 9.32616 10.3675 9.32149 10.3732C9.31681 10.3712 9.31473 10.3665 9.31318 10.3623C9.29499 10.3681 9.29084 10.3816 9.2924 10.3951C9.2711 10.3732 9.24045 10.3732 9.21188 10.3686L9.20616 10.381C9.21603 10.3722 9.19889 10.3587 9.19941 10.3494C9.1672 10.3525 9.17759 10.3 9.14798 10.2969C9.16668 10.2725 9.14954 10.2558 9.15006 10.2294L9.14746 10.2304C9.14746 10.1831 9.19889 10.1665 9.2124 10.1291C9.23214 10.1452 9.25084 10.1213 9.27318 10.1405L9.29188 10.126C9.29915 10.1348 9.27785 10.1426 9.29499 10.152H9.29447Z" fill="#F4EC4F"/>
<path d="M8.48286 9.89746L8.48442 9.8985L8.47714 9.91253L8.47559 9.91201L8.48286 9.89746Z" fill="#F4EC4F"/>
<path d="M8.59853 9.96431C8.59541 9.9669 8.58814 9.96535 8.58398 9.96119C8.58606 9.95236 8.59645 9.95963 8.59853 9.96431Z" fill="#F4EC4F"/>
<path d="M9.39137 10.4113C9.3815 10.4072 9.38774 10.389 9.37891 10.3838C9.38202 10.3947 9.39709 10.3989 9.39137 10.4113Z" fill="#F4EC4F"/>
<path d="M9.34537 10.3944L9.34277 10.3877L9.34745 10.3898L9.34537 10.3944Z" fill="#F4EC4F"/>
<path d="M9.50224 10.4736C9.49497 10.4856 9.48978 10.4762 9.48926 10.4684C9.49393 10.4663 9.50432 10.4648 9.50224 10.4736Z" fill="#F4EC4F"/>
<path d="M9.416 10.4519L9.4082 10.4395L9.41236 10.4431L9.416 10.4519Z" fill="#F4EC4F"/>
<path d="M9.20874 10.6185C9.21601 10.633 9.20406 10.6429 9.19419 10.6522C9.18432 10.658 9.16977 10.6424 9.1651 10.6574C9.16198 10.6465 9.14224 10.6195 9.16198 10.6008C9.17913 10.5831 9.20354 10.5972 9.20822 10.618L9.20874 10.6185Z" fill="#F4EC4F"/>
<path d="M9.29783 10.6922C9.31134 10.6786 9.31186 10.7088 9.32173 10.6901C9.34407 10.701 9.33628 10.728 9.36641 10.742C9.34874 10.7425 9.3555 10.7716 9.369 10.7675C9.34615 10.7867 9.34199 10.8059 9.31757 10.8189C9.30251 10.8132 9.28485 10.7909 9.27082 10.8122C9.26719 10.7976 9.25576 10.7742 9.24121 10.7815C9.24589 10.7509 9.24589 10.7337 9.25783 10.7046C9.26511 10.6963 9.29991 10.7046 9.29524 10.6797C9.29731 10.6844 9.29368 10.6885 9.29783 10.6922Z" fill="#F4EC4F"/>
<path d="M8.41976 10.414C8.41249 10.4265 8.40678 10.4301 8.39847 10.4457C8.38028 10.4514 8.37924 10.4306 8.36158 10.4363C8.35327 10.4103 8.34704 10.3979 8.36574 10.3781C8.37405 10.3724 8.38392 10.3766 8.39275 10.375C8.41509 10.3776 8.40989 10.4031 8.4208 10.414H8.41976Z" fill="#F4EC4F"/>
<path d="M9.38175 10.8021L9.375 10.7959L9.38331 10.799L9.38175 10.8021Z" fill="#F4EC4F"/>
<path d="M8.75821 10.6539C8.75457 10.6622 8.74938 10.6658 8.74678 10.6726C8.7286 10.6746 8.71197 10.6772 8.70314 10.6518C8.70522 10.6429 8.69691 10.6294 8.70834 10.6206C8.71717 10.6185 8.7286 10.6097 8.73587 10.6149C8.74626 10.6274 8.76132 10.6378 8.75821 10.6539Z" fill="#F4EC4F"/>
<path d="M8.92757 10.7575C8.94419 10.7585 8.95043 10.7767 8.96238 10.7855C8.95666 10.8042 8.9603 10.8136 8.94575 10.8271C8.9203 10.8515 8.91406 10.8006 8.88965 10.8001C8.90056 10.7835 8.91562 10.7642 8.92913 10.7549L8.92809 10.758L8.92757 10.7575Z" fill="#F4EC4F"/>
<path d="M9.77479 11.0814C9.77479 11.0814 9.77011 11.0835 9.76855 11.083L9.77323 11.0752C9.77583 11.0778 9.77531 11.0794 9.77479 11.0814Z" fill="#F4EC4F"/>
<path d="M8.48112 10.6458C8.4806 10.6613 8.46709 10.679 8.45151 10.6702C8.43696 10.6676 8.4354 10.653 8.42969 10.6426C8.43073 10.6255 8.44787 10.6172 8.46138 10.6172C8.46969 10.625 8.48475 10.6317 8.48112 10.6458Z" fill="#F4EC4F"/>
<path d="M9.32544 11.0794C9.31713 11.0763 9.29843 11.0752 9.30103 11.0591C9.29947 11.0436 9.31869 11.0472 9.32648 11.042C9.32544 11.055 9.34051 11.07 9.32544 11.0794Z" fill="#F4EC4F"/>
<path d="M8.9889 8.77209C9.00136 8.77884 9.00916 8.78923 9.02734 8.78923C9.02318 8.7965 9.00864 8.79702 9.01539 8.80638C9.03149 8.83079 9.03773 8.8656 9.07409 8.87287C9.06214 8.87287 9.04916 8.85988 9.03461 8.86767C9.03098 8.88118 9.03097 8.89521 9.03825 8.91079C9.02942 8.89832 9.02422 8.92118 9.01955 8.92274C9.0102 8.95339 9.04448 8.98144 9.04033 9.00638C9.0289 8.99079 9.02838 8.95287 9.00292 8.95131C8.97955 8.96066 8.98266 8.99027 8.97331 9.00274C8.97123 9.00326 8.97331 8.99287 8.97175 8.98819C8.95305 8.99599 8.92292 8.98612 8.92085 9.01469C8.88292 9.01469 8.83305 8.97001 8.79461 8.94144C8.78942 8.91079 8.79201 8.87806 8.78942 8.84689C8.78526 8.84689 8.78007 8.84586 8.77539 8.84689C8.80188 8.82508 8.81799 8.77988 8.81383 8.75547C8.82682 8.7404 8.82578 8.77001 8.84136 8.75702C8.85643 8.75547 8.86007 8.73936 8.86942 8.73053C8.90838 8.73417 8.92864 8.73313 8.96552 8.72949C8.93799 8.75235 8.99981 8.75443 8.98942 8.77209H8.9889Z" fill="#F4EC4F"/>
<path d="M9.807 11.2402C9.80284 11.2408 9.80388 11.2428 9.80336 11.2444L9.85791 11.2579L9.84908 11.2626C9.86934 11.2834 9.88129 11.2979 9.90207 11.3223C9.91194 11.367 9.87921 11.407 9.88388 11.4485C9.86674 11.4672 9.87609 11.4392 9.86051 11.4345C9.85479 11.4402 9.83297 11.4392 9.84804 11.4506C9.83194 11.4439 9.81895 11.4496 9.80388 11.4449L9.80077 11.4605C9.78362 11.4501 9.77843 11.4376 9.75505 11.4413C9.75246 11.4553 9.76856 11.4563 9.76233 11.4709C9.76181 11.4376 9.72336 11.4283 9.72025 11.394L9.70726 11.4049C9.70362 11.3888 9.72233 11.3711 9.70259 11.3592L9.69531 11.3644C9.69635 11.3332 9.71297 11.3072 9.71817 11.2761C9.73583 11.2361 9.77323 11.2465 9.807 11.2402Z" fill="#F4EC4F"/>
<path d="M9.1878 11.0618C9.18728 11.069 9.18156 11.0727 9.17741 11.0748C9.16442 11.0737 9.16078 11.0628 9.16442 11.0529C9.17377 11.0431 9.1852 11.0529 9.1878 11.0618Z" fill="#F4EC4F"/>
<path d="M9.26867 11.0953C9.27022 11.1015 9.26347 11.0989 9.26139 11.1C9.25464 11.0974 9.25516 11.0865 9.26451 11.0859C9.27022 11.0859 9.26815 11.0911 9.26867 11.0953Z" fill="#F4EC4F"/>
<path d="M9.57861 11.3129C9.56874 11.3206 9.56354 11.3077 9.56458 11.2988C9.57134 11.3009 9.57757 11.3051 9.57861 11.3129Z" fill="#F4EC4F"/>
<path d="M9.87864 11.4248L9.8802 11.4253L9.87656 11.4373L9.875 11.4368L9.87864 11.4248Z" fill="white"/>
<path d="M9.67871 11.3954L9.69222 11.3721L9.68598 11.3908L9.67871 11.3954Z" fill="#F4EC4F"/>
<path d="M9.91429 11.4615C9.91325 11.4647 9.90702 11.4667 9.90234 11.4636C9.9039 11.4584 9.91169 11.4574 9.91429 11.4615Z" fill="#F4EC4F"/>
<path d="M9.82333 11.5002C9.81138 11.5023 9.82592 11.5101 9.82644 11.5137C9.80359 11.5106 9.82437 11.4914 9.80566 11.4805C9.81346 11.4846 9.82489 11.4898 9.82333 11.5002Z" fill="#F4EC4F"/>
<path d="M10.4123 11.9513C10.4118 11.9809 10.4507 11.9929 10.4492 12.0158C10.4466 12.0158 10.4429 12.0111 10.4398 12.0158C10.4668 12.036 10.4154 12.0521 10.4445 12.0724L10.4289 12.0677C10.4201 12.0771 10.4247 12.0848 10.4263 12.0942C10.4227 12.0916 10.4232 12.0838 10.4164 12.0828C10.4055 12.0978 10.3879 12.1035 10.3733 12.1077C10.3749 12.1061 10.3749 12.1051 10.3749 12.1025C10.3551 12.1051 10.3468 12.1067 10.3281 12.0952C10.3224 12.0994 10.3245 12.1061 10.3271 12.1103C10.3328 12.0776 10.2731 12.0584 10.2907 12.0142C10.271 12.0059 10.2918 11.9882 10.2923 11.9752C10.2923 11.9586 10.3016 11.9529 10.3157 11.9461C10.3489 11.9389 10.3847 11.9337 10.4128 11.9519L10.4123 11.9513Z" fill="#F4EC4F"/>
<path d="M9.14892 11.2971C9.14892 11.3085 9.13853 11.3106 9.13074 11.3116C9.11983 11.3038 9.12398 11.2919 9.13074 11.2846C9.13905 11.282 9.14528 11.2919 9.14944 11.2971H9.14892Z" fill="#F4EC4F"/>
<path d="M9.45728 11.4618L9.45624 11.4654L9.45312 11.4571C9.45728 11.4566 9.45572 11.4597 9.45728 11.4623V11.4618Z" fill="#F4EC4F"/>
<path d="M9.45813 11.4976L9.45605 11.4987L9.45917 11.4883C9.46177 11.4909 9.45917 11.4956 9.45813 11.4971V11.4976Z" fill="#F4EC4F"/>
<path d="M9.40237 11.5072L9.406 11.5311C9.38418 11.5181 9.38055 11.5285 9.35717 11.5202C9.36081 11.5082 9.3447 11.4947 9.35769 11.4766C9.36133 11.4703 9.37847 11.4646 9.38782 11.4698C9.39509 11.4817 9.42678 11.4999 9.40237 11.5072Z" fill="#F4EC4F"/>
<path d="M10.4964 12.0206L10.4912 12.0195H10.4948L10.4964 12.0206Z" fill="#F4EC4F"/>
<path d="M9.41016 11.507L9.41068 11.5049L9.41587 11.507H9.41016Z" fill="#F4EC4F"/>
<path d="M10.7344 11.9845L10.7448 11.9668L10.737 11.9798L10.7344 11.9845Z" fill="#F4EC4F"/>
<path d="M10.4959 12.0613L10.4902 12.0566L10.4928 12.0577L10.4959 12.0613Z" fill="#F4EC4F"/>
<path d="M10.5189 12.073C10.5199 12.0767 10.5163 12.0761 10.5137 12.0761C10.5152 12.0735 10.5152 12.0709 10.5189 12.073Z" fill="#F4EC4F"/>
<path d="M10.3978 12.1083C10.3911 12.1109 10.3968 12.1042 10.3968 12.1016C10.3994 12.1026 10.3968 12.1057 10.3978 12.1083Z" fill="#F4EC4F"/>
<path d="M10.3552 12.125C10.3542 12.1157 10.3391 12.1141 10.3422 12.1084C10.349 12.1126 10.3672 12.1126 10.3552 12.125Z" fill="#F4EC4F"/>
<path d="M10.4084 12.1145L10.3975 12.1161V12.1104H10.4084V12.1145Z" fill="#F4EC4F"/>
<path d="M9.36633 11.6332C9.35594 11.6508 9.34088 11.6228 9.35334 11.6191C9.36062 11.6197 9.36633 11.6254 9.36633 11.6332Z" fill="#F4EC4F"/>
<path d="M9.39847 11.6508C9.38756 11.6565 9.3834 11.6383 9.39327 11.6357C9.39743 11.6409 9.40211 11.6446 9.39847 11.6508Z" fill="#F4EC4F"/>
<path d="M9.33594 11.6618C9.32555 11.666 9.33023 11.6561 9.32971 11.6504C9.33231 11.6551 9.34062 11.6519 9.33594 11.6618Z" fill="#F4EC4F"/>
<path d="M9.20961 11.7077C9.19819 11.6942 9.17481 11.7035 9.17689 11.6807C9.19299 11.6843 9.20182 11.6931 9.20961 11.7077Z" fill="#F4EC4F"/>
<path d="M9.18404 11.7108C9.18664 11.7077 9.17209 11.7124 9.17833 11.7051L9.18404 11.7108Z" fill="#F4EC4F"/>
<path d="M9.20005 11.7196L9.19434 11.7139L9.19901 11.7175L9.20005 11.7196Z" fill="#F4EC4F"/>
<path d="M9.19197 11.7309L9.18262 11.7236L9.19249 11.7288L9.19197 11.7309Z" fill="#F4EC4F"/>
<path d="M9.24583 11.8178C9.24064 11.824 9.23285 11.8178 9.23804 11.8116C9.2422 11.811 9.24272 11.8152 9.24583 11.8178Z" fill="#F4EC4F"/>
<path d="M10.5603 12.334L10.5644 12.3543C10.5493 12.3668 10.5275 12.3465 10.5244 12.3366C10.5296 12.3184 10.5514 12.3283 10.5603 12.334Z" fill="#F4EC4F"/>
<path d="M10.0585 12.4362C10.0533 12.4398 10.0486 12.431 10.044 12.4243C10.0429 12.4097 10.0705 12.4232 10.0585 12.4362Z" fill="#F4EC4F"/>
<path d="M10.3312 12.5127L10.3213 12.4961L10.3358 12.508L10.3312 12.5127Z" fill="#F4EC4F"/>
<path d="M3.27228 6.44204C4.27644 6.44204 5.09047 6.1048 5.09047 5.68879C5.09047 5.27279 4.27644 4.93555 3.27228 4.93555C2.26813 4.93555 1.4541 5.27279 1.4541 5.68879C1.4541 6.1048 2.26813 6.44204 3.27228 6.44204Z" fill="#DE6F68"/>
<path d="M2.44918 5.29878C3.06401 5.29878 3.56243 5.18249 3.56243 5.03904C3.56243 4.89559 3.06401 4.7793 2.44918 4.7793C1.83436 4.7793 1.33594 4.89559 1.33594 5.03904C1.33594 5.18249 1.83436 5.29878 2.44918 5.29878Z" fill="#FFE83D"/>
</g>
<defs>
<radialGradient id="paint0_radial_14562_20272" cx="0" cy="0" r="1" gradientUnits="userSpaceOnUse" gradientTransform="translate(7.03913 7.48029) scale(2.69558)">
<stop stop-color="#C700D4"/>
<stop offset="0.04" stop-color="#CD13C0"/>
<stop offset="0.14" stop-color="#DA3A98"/>
<stop offset="0.25" stop-color="#E55C76"/>
<stop offset="0.36" stop-color="#EF775A"/>
<stop offset="0.48" stop-color="#F68C44"/>
<stop offset="0.61" stop-color="#FB9B35"/>
<stop offset="0.77" stop-color="#FEA42C"/>
<stop offset="1" stop-color="#FFA72A"/>
</radialGradient>
<radialGradient id="paint1_radial_14562_20272" cx="0" cy="0" r="1" gradientUnits="userSpaceOnUse" gradientTransform="translate(-2.48692 3.91998) scale(8.33247)">
<stop stop-color="#C700D4"/>
<stop offset="0.12" stop-color="#CF19B9"/>
<stop offset="0.42" stop-color="#E3557C"/>
<stop offset="0.68" stop-color="#F2814F"/>
<stop offset="0.88" stop-color="#FB9C34"/>
<stop offset="1" stop-color="#FFA72A"/>
</radialGradient>
<radialGradient id="paint2_radial_14562_20272" cx="0" cy="0" r="1" gradientUnits="userSpaceOnUse" gradientTransform="translate(4.98982 3.8926) scale(8.12104)">
<stop offset="0.21" stop-color="#FFA72A"/>
<stop offset="0.3" stop-color="#FF9937"/>
<stop offset="0.46" stop-color="#FF775A"/>
<stop offset="0.67" stop-color="#FF3F95"/>
</radialGradient>
<radialGradient id="paint3_radial_14562_20272" cx="0" cy="0" r="1" gradientUnits="userSpaceOnUse" gradientTransform="translate(3.92876 5.46723) rotate(9.88) scale(7.5758 3.75807)">
<stop offset="0.23" stop-color="#FF9E15"/>
<stop offset="0.44" stop-color="#009DFF"/>
<stop offset="0.46" stop-color="#0498FF"/>
<stop offset="0.73" stop-color="#5258FF"/>
</radialGradient>
<radialGradient id="paint4_radial_14562_20272" cx="0" cy="0" r="1" gradientUnits="userSpaceOnUse" gradientTransform="translate(10.4938 13.1038) scale(4.72312)">
<stop stop-color="#F229FF"/>
<stop offset="0.26" stop-color="#F651BA"/>
<stop offset="0.52" stop-color="#F9767C"/>
<stop offset="0.73" stop-color="#FC904F"/>
<stop offset="0.9" stop-color="#FEA034"/>
<stop offset="1" stop-color="#FFA72A"/>
</radialGradient>
<radialGradient id="paint5_radial_14562_20272" cx="0" cy="0" r="1" gradientUnits="userSpaceOnUse" gradientTransform="translate(11.6549 10.935) scale(2.67532)">
<stop stop-color="#FFB700"/>
<stop offset="0.08" stop-color="#FFB504"/>
<stop offset="0.66" stop-color="#FFAA1F"/>
<stop offset="1" stop-color="#FFA72A"/>
</radialGradient>
<radialGradient id="paint6_radial_14562_20272" cx="0" cy="0" r="1" gradientUnits="userSpaceOnUse" gradientTransform="translate(9.37665 9.94805) scale(6.75636)">
<stop stop-color="#EF00FF"/>
<stop offset="0.02" stop-color="#F00CEE"/>
<stop offset="0.09" stop-color="#F330C1"/>
<stop offset="0.16" stop-color="#F65098"/>
<stop offset="0.24" stop-color="#F96B76"/>
<stop offset="0.32" stop-color="#FB815A"/>
<stop offset="0.41" stop-color="#FC9144"/>
<stop offset="0.51" stop-color="#FE9D35"/>
<stop offset="0.62" stop-color="#FEA42C"/>
<stop offset="0.78" stop-color="#FFA72A"/>
</radialGradient>
<radialGradient id="paint7_radial_14562_20272" cx="0" cy="0" r="1" gradientUnits="userSpaceOnUse" gradientTransform="translate(8.37956 6.5859) scale(0.782857)">
<stop stop-color="#00B2E9"/>
<stop offset="0.31" stop-color="#01AFE9"/>
<stop offset="0.49" stop-color="#06A7EB"/>
<stop offset="0.64" stop-color="#0F99EE"/>
<stop offset="0.77" stop-color="#1B85F2"/>
<stop offset="0.88" stop-color="#2C6BF7"/>
<stop offset="0.99" stop-color="#3F4CFE"/>
<stop offset="1" stop-color="#4249FF"/>
</radialGradient>
<radialGradient id="paint8_radial_14562_20272" cx="0" cy="0" r="1" gradientUnits="userSpaceOnUse" gradientTransform="translate(8.36773 6.22049) scale(0.877922)">
<stop stop-color="#FFF915"/>
<stop offset="1" stop-color="#FFA72A"/>
</radialGradient>
<clipPath id="clip0_14562_20272">
<rect width="16" height="10.4935" fill="white" transform="translate(0 4)"/>
</clipPath>
</defs>
</svg>
