<!-- Copyright © 2000–2024 JetBrains s.r.o. -->
<svg width="13" height="13" viewBox="0 0 13 13" xmlns="http://www.w3.org/2000/svg">
  <defs>
    <linearGradient id="a" x1="6.5" x2="6.5" y1="1.04" y2="13.04" gradientUnits="userSpaceOnUse">
      <stop offset="0" stop-color="#7d6833"/>
      <stop offset="1" stop-color="#613b10"/>
    </linearGradient>
    <linearGradient id="b" x1="6.5" x2="6.5" y1="2.04" y2="12" gradientUnits="userSpaceOnUse">
      <stop offset="0" stop-color="#fff3d6"/>
      <stop offset="1" stop-color="#c9ac89"/>
    </linearGradient>
    <linearGradient id="c" x1="6.5" x2="6.5" y1="3.09" y2="10.53" gradientUnits="userSpaceOnUse">
      <stop offset="0" stop-color="#fff3d6"/>
      <stop offset="1" stop-color="#fff"/>
    </linearGradient>
    <linearGradient id="d" x1="6.5" x2="6.5" y1="3.36" y2="8.63" gradientUnits="userSpaceOnUse">
      <stop offset="0" stop-color="#910b0b"/>
      <stop offset="1" stop-color="#c96800"/>
    </linearGradient>
  </defs>
  <path fill="url(#a)" d="M3.5 13c-.23 0-.46-.05-.66-.15-.51-.25-.84-.78-.84-1.35v-.84C.8 10.09 0 8.87 0 7.5v-3C0 2.57 1.57 1 3.5 1h6C11.43 1 13 2.57 13 4.5v3c0 1.93-1.57 3.5-3.5 3.5H6.59l-2.17 1.68c-.26.2-.59.32-.92.32"/>
  <path fill="url(#b)" d="M3.5 12c-.07 0-.15-.02-.22-.05A.5.5 0 0 1 3 11.5V9.95A2.5 2.5 0 0 1 1 7.5v-3A2.5 2.5 0 0 1 3.5 2h6A2.5 2.5 0 0 1 12 4.5v3A2.5 2.5 0 0 1 9.5 10H6.24L3.8 11.89a.5.5 0 0 1-.31.11Z"/>
  <path fill="url(#c)" d="M3.5 3C2.67 3 2 3.67 2 4.5v3C2 8.33 2.67 9 3.5 9c.28 0 .5.22.5.5v.98l1.76-1.37c.09-.07.2-.11.31-.11H9.5c.83 0 1.5-.67 1.5-1.5v-3c0-.83-.67-1.5-1.5-1.5z"/>
  <path fill="url(#d)" d="M2.66 8.63a.49.49 0 0 1-.44-.26.503.503 0 0 1 .19-.68l7.68-4.27c.24-.14.55-.05.68.19s.05.55-.19.68L2.9 8.56q-.12.06-.24.06Z"/>
</svg>
