<!-- Copyright © 2000–2024 JetBrains s.r.o. -->
<svg width="13" height="13" viewBox="0 0 13 13" xmlns="http://www.w3.org/2000/svg">
  <path fill="#252525" d="M3.5 13c-.23 0-.46-.05-.66-.15-.51-.25-.84-.78-.84-1.35v-.84C.8 10.09 0 8.87 0 7.5v-3C0 2.57 1.57 1 3.5 1h6C11.43 1 13 2.57 13 4.5v3c0 1.93-1.57 3.5-3.5 3.5H6.59l-2.17 1.68c-.26.2-.59.32-.92.32"/>
  <path fill="#c4c4c4" d="M3.5 12c-.07 0-.15-.02-.22-.05A.5.5 0 0 1 3 11.5V9.95A2.5 2.5 0 0 1 1 7.5v-3A2.5 2.5 0 0 1 3.5 2h6A2.5 2.5 0 0 1 12 4.5v3A2.5 2.5 0 0 1 9.5 10H6.24L3.8 11.89a.5.5 0 0 1-.31.11Z"/>
  <path fill="#292929" d="M3.5 3C2.67 3 2 3.67 2 4.5v3C2 8.33 2.67 9 3.5 9c.28 0 .5.22.5.5v.98l1.76-1.37c.09-.07.2-.11.31-.11H9.5c.83 0 1.5-.67 1.5-1.5v-3c0-.83-.67-1.5-1.5-1.5z"/>
  <path fill="#76bcff" d="M7 4.5c0 .28-.22.5-.5.5S6 4.78 6 4.5s.22-.5.5-.5.5.22.5.5m0 3V6c0-.28-.22-.5-.5-.5S6 5.72 6 6v1.5c0 .28.22.5.5.5s.5-.22.5-.5"/>
</svg>
