<svg width="16" height="16" viewBox="0 0 16 16" fill="none" xmlns="http://www.w3.org/2000/svg">
<path d="M16 0H0V16H16V0Z" fill="#087CFA"/>
<path d="M15 1H1V15H15V1Z" fill="black"/>
<path d="M9 12H3V13H9V12Z" fill="white"/>
<path d="M6.0125 4.09998V3.00623H3.03125V4.09998H3.86875V7.87498H3.03125V8.96873H6.0125V7.87498H5.18125V4.09998H6.0125Z" fill="white"/>
<path d="M8.8748 9.05623C8.40605 9.05623 8.01855 8.96873 7.70605 8.79373C7.39355 8.61873 7.13105 8.40623 6.9248 8.16248L7.7498 7.24373C7.91855 7.43123 8.09355 7.57498 8.2623 7.68123C8.4373 7.78748 8.6248 7.83748 8.8373 7.83748C9.0873 7.83748 9.28105 7.76248 9.4248 7.59998C9.56855 7.44373 9.6373 7.19373 9.6373 6.84373V3.00623H10.9811V6.90623C10.9811 7.26248 10.9311 7.57498 10.8373 7.83748C10.7436 8.09998 10.5998 8.31873 10.4186 8.49998C10.2373 8.68123 10.0123 8.81873 9.7498 8.91248C9.49355 9.00623 9.1998 9.05623 8.8748 9.05623Z" fill="white"/>
</svg>
