<svg width="48" height="48" viewBox="0 0 48 48" fill="none" xmlns="http://www.w3.org/2000/svg">
<path d="M40.6295 46H18.3705C16.9298 45.9841 15.5546 45.4266 14.5476 44.4501C13.5405 43.4735 12.984 42.1579 13.0004 40.7925V35.2076C12.984 33.8422 13.5405 32.5265 14.5476 31.55C15.5546 30.5734 16.9298 30.0159 18.3705 30H40.6295C42.0702 30.0159 43.4454 30.5734 44.4524 31.55C45.4595 32.5265 46.016 33.8422 45.9996 35.2076V40.7925C46.016 42.1579 45.4595 43.4735 44.4524 44.4501C43.4454 45.4266 42.0702 45.9841 40.6295 46Z" fill="#8F38E6"/>
<path d="M24.404 39.4849V39.4633C24.404 38.9594 24.2785 38.5672 24.0273 38.2864C23.7762 37.9985 23.4318 37.7718 22.9941 37.6062C23.1304 37.5342 23.256 37.4479 23.3708 37.3471C23.4928 37.2463 23.5968 37.1311 23.6829 37.0016C23.7762 36.8648 23.8479 36.7137 23.8982 36.5481C23.9556 36.3825 23.9843 36.1918 23.9843 35.9759V35.9543C23.9843 35.3568 23.7618 34.8818 23.317 34.5291C22.8793 34.1764 22.2729 34 21.498 34H18V41.5579H21.5841C22.0075 41.5579 22.3913 41.5147 22.7358 41.4284C23.0874 41.342 23.3851 41.2124 23.6291 41.0397C23.8802 40.8669 24.0704 40.651 24.1995 40.3919C24.3359 40.1327 24.404 39.8304 24.404 39.4849ZM22.3375 36.2566C22.3375 36.5373 22.2299 36.7425 22.0146 36.872C21.7994 36.9944 21.5088 37.0556 21.1428 37.0556H19.6145V35.4576H21.2505C21.602 35.4576 21.8711 35.526 22.0577 35.6627C22.2442 35.7923 22.3375 35.9831 22.3375 36.235V36.2566ZM22.7573 39.2798C22.7573 39.5605 22.6532 39.7692 22.4452 39.906C22.2371 40.0356 21.9501 40.1003 21.5841 40.1003H19.6145V38.4376H21.5303C21.9608 38.4376 22.2729 38.5132 22.4667 38.6643C22.6604 38.8083 22.7573 39.0062 22.7573 39.2582V39.2798Z" fill="white" fill-opacity="0.86"/>
<path d="M30.9768 38.8263V38.8047C30.9768 38.3944 30.9194 38.0021 30.8046 37.6278C30.697 37.2463 30.5248 36.9116 30.288 36.6237C30.0584 36.3286 29.7678 36.0946 29.4162 35.9219C29.0646 35.7491 28.6484 35.6627 28.1677 35.6627C27.7443 35.6627 27.3569 35.7419 27.0053 35.9003C26.6608 36.0586 26.3631 36.2746 26.1119 36.5481C25.8608 36.8216 25.6635 37.1419 25.52 37.509C25.3836 37.8761 25.3155 38.2648 25.3155 38.6751V38.6967C25.3155 39.143 25.3908 39.5497 25.5415 39.9168C25.6922 40.2767 25.9003 40.5898 26.1657 40.8561C26.4384 41.1225 26.7577 41.3276 27.1237 41.4716C27.4968 41.6155 27.8986 41.6875 28.3291 41.6875C28.8529 41.6875 29.3086 41.5939 29.696 41.4068C30.0835 41.2124 30.4136 40.9461 30.6862 40.6078L29.7499 39.7764C29.5202 39.9852 29.2978 40.1363 29.0825 40.2299C28.8673 40.3235 28.6233 40.3703 28.3506 40.3703C27.9847 40.3703 27.6762 40.2767 27.425 40.0895C27.1811 39.8952 27.0196 39.6109 26.9407 39.2366H30.9553C30.9625 39.1574 30.9661 39.089 30.9661 39.0314C30.9733 38.9738 30.9768 38.9055 30.9768 38.8263ZM29.3839 38.2108H26.9192C26.9837 37.8366 27.1201 37.5378 27.3282 37.3147C27.5434 37.0916 27.8233 36.98 28.1677 36.98C28.5121 36.98 28.7883 37.0952 28.9964 37.3255C29.2045 37.5486 29.3337 37.8438 29.3839 38.2108Z" fill="white" fill-opacity="0.86"/>
<path d="M35.4358 41.3204V40.0032C35.1847 40.1399 34.9156 40.2083 34.6286 40.2083C34.277 40.2083 34.1012 40.0212 34.1012 39.6469V37.1743H35.4573V35.7707H34.1012V34.2915H32.4652V35.7707H31.7763V37.1743H32.4652V39.9168C32.4652 40.2551 32.5046 40.5358 32.5836 40.759C32.6697 40.9749 32.7845 41.1512 32.928 41.288C33.0787 41.4248 33.2545 41.5183 33.4554 41.5687C33.6635 41.6263 33.8931 41.6551 34.1442 41.6551C34.4169 41.6551 34.6573 41.6227 34.8653 41.5579C35.0734 41.5004 35.2636 41.4212 35.4358 41.3204Z" fill="white" fill-opacity="0.86"/>
<path d="M41.625 41.5579V38.2001C41.625 37.4155 41.4205 36.8036 41.0115 36.3646C40.6025 35.9255 39.9495 35.7059 39.0526 35.7059C38.5647 35.7059 38.1485 35.7491 37.8041 35.8355C37.4597 35.9219 37.1296 36.0334 36.8139 36.1702L37.2229 37.4227C37.4884 37.3219 37.7395 37.2463 37.9763 37.1959C38.2203 37.1383 38.5001 37.1096 38.8158 37.1096C39.2248 37.1096 39.5334 37.1995 39.7415 37.3795C39.9495 37.5594 40.0536 37.8222 40.0536 38.1677V38.2648C39.8455 38.1929 39.6302 38.1353 39.4078 38.0921C39.1925 38.0489 38.9378 38.0273 38.6436 38.0273C38.2992 38.0273 37.9835 38.0669 37.6965 38.1461C37.4166 38.218 37.1727 38.3296 36.9646 38.4808C36.7637 38.6319 36.6058 38.8227 36.491 39.053C36.3762 39.2834 36.3188 39.5569 36.3188 39.8736V39.8952C36.3188 40.1831 36.369 40.4386 36.4695 40.6618C36.5771 40.8777 36.7206 41.0613 36.9 41.2124C37.0794 41.3636 37.2875 41.4788 37.5243 41.5579C37.7682 41.6299 38.0265 41.6659 38.2992 41.6659C38.701 41.6659 39.0418 41.6011 39.3217 41.4716C39.6015 41.3348 39.8419 41.1548 40.0428 40.9317V41.5579H41.625ZM40.0751 39.5173C40.0751 39.8196 39.9567 40.0643 39.7199 40.2515C39.4903 40.4386 39.1818 40.5322 38.7943 40.5322C38.5288 40.5322 38.3135 40.471 38.1485 40.3487C37.9835 40.2263 37.901 40.0535 37.901 39.8304V39.8088C37.901 39.5497 38.0014 39.3517 38.2023 39.215C38.4032 39.0782 38.6795 39.0098 39.0311 39.0098C39.232 39.0098 39.4186 39.0314 39.5908 39.0746C39.7702 39.1106 39.9316 39.161 40.0751 39.2258V39.5173Z" fill="white" fill-opacity="0.86"/>
</svg>
