<svg width="128" height="128" viewBox="0 0 128 128" fill="none" xmlns="http://www.w3.org/2000/svg">
<path d="M107.506 122.75H49.4962C45.7414 122.706 42.1577 121.173 39.5332 118.488C36.9087 115.802 35.4583 112.184 35.5009 108.429V93.0708C35.4583 89.316 36.9087 85.698 39.5332 83.0125C42.1577 80.3269 45.7414 78.7937 49.4962 78.75H107.506C111.26 78.7937 114.844 80.3269 117.469 83.0125C120.093 85.698 121.544 89.316 121.501 93.0708V108.429C121.544 112.184 120.093 115.802 117.469 118.488C114.844 121.173 111.26 122.706 107.506 122.75Z" fill="#8F38E6"/>
<path d="M64.0774 104.626V104.569C64.0774 103.225 63.7426 102.179 63.0729 101.43C62.4032 100.663 61.4847 100.058 60.3175 99.6166C60.6811 99.4246 61.0159 99.1943 61.3221 98.9256C61.6474 98.6568 61.9248 98.3497 62.1544 98.0042C62.4032 97.6395 62.5945 97.2364 62.7285 96.7949C62.8815 96.3535 62.9581 95.8448 62.9581 95.269V95.2114C62.9581 93.6182 62.3649 92.3514 61.1786 91.4108C60.0114 90.4703 58.3945 90 56.328 90H47V110.154H56.5576C57.6866 110.154 58.7102 110.039 59.6287 109.809C60.5663 109.579 61.3604 109.233 62.0109 108.772C62.6806 108.312 63.1877 107.736 63.5321 107.045C63.8957 106.354 64.0774 105.548 64.0774 104.626ZM58.5667 96.0176C58.5667 96.7662 58.2797 97.3132 57.7057 97.6587C57.1317 97.985 56.3567 98.1482 55.3809 98.1482H51.3052V93.8869H55.6679C56.6055 93.8869 57.323 94.0693 57.8205 94.434C58.318 94.7795 58.5667 95.2882 58.5667 95.96V96.0176ZM59.6861 104.079C59.6861 104.828 59.4087 105.385 58.8538 105.749C58.2989 106.095 57.5335 106.268 56.5576 106.268H51.3052V101.834H56.4141C57.5622 101.834 58.3945 102.035 58.9112 102.438C59.4278 102.822 59.6861 103.35 59.6861 104.022V104.079Z" fill="white" fill-opacity="0.86"/>
<path d="M81.6049 102.87V102.813C81.6049 101.718 81.4519 100.672 81.1457 99.6742C80.8587 98.6568 80.3995 97.7643 79.768 96.9965C79.1557 96.2095 78.3808 95.5857 77.4432 95.125C76.5056 94.6643 75.3958 94.434 74.1138 94.434C72.9849 94.434 71.9516 94.6451 71.014 95.0674C70.0956 95.4897 69.3015 96.0655 68.6318 96.7949C67.9621 97.5243 67.4359 98.3785 67.0532 99.3574C66.6897 100.336 66.5079 101.373 66.5079 102.467V102.525C66.5079 103.715 66.7088 104.799 67.1106 105.778C67.5124 106.738 68.0673 107.573 68.7753 108.283C69.5024 108.993 70.3539 109.54 71.3298 109.924C72.3247 110.308 73.3963 110.5 74.5443 110.5C75.9411 110.5 77.1562 110.25 78.1894 109.751C79.2227 109.233 80.1029 108.523 80.83 107.621L78.3329 105.404C77.7206 105.96 77.1275 106.364 76.5534 106.613C75.9794 106.863 75.3288 106.987 74.6017 106.987C73.6259 106.987 72.8031 106.738 72.1334 106.239C71.4828 105.721 71.0523 104.962 70.8418 103.964H81.5475C81.5667 103.753 81.5762 103.571 81.5762 103.417C81.5954 103.264 81.6049 103.081 81.6049 102.87ZM77.3571 101.229H70.7844C70.9566 100.231 71.3202 99.4342 71.8751 98.8392C72.4491 98.2441 73.1954 97.9466 74.1138 97.9466C75.0323 97.9466 75.7689 98.2537 76.3238 98.868C76.8787 99.463 77.2232 100.25 77.3571 101.229Z" fill="white" fill-opacity="0.86"/>
<path d="M93.4955 109.521V106.008C92.8258 106.373 92.1082 106.555 91.3428 106.555C90.4053 106.555 89.9365 106.056 89.9365 105.058V98.4649H93.5529V94.7219H89.9365V90.7774H85.5738V94.7219H83.7369V98.4649H85.5738V105.778C85.5738 106.68 85.6791 107.429 85.8895 108.024C86.1191 108.6 86.4253 109.07 86.808 109.435C87.2098 109.799 87.6786 110.049 88.2144 110.183C88.7693 110.337 89.3816 110.414 90.0513 110.414C90.7784 110.414 91.4194 110.327 91.9743 110.154C92.5292 110.001 93.0362 109.79 93.4955 109.521Z" fill="white" fill-opacity="0.86"/>
<path d="M110 110.154V101.2C110 99.1079 109.455 97.4764 108.364 96.3055C107.273 95.1346 105.532 94.5492 103.14 94.5492C101.839 94.5492 100.729 94.6643 99.8109 94.8947C98.8925 95.125 98.0123 95.4225 97.1704 95.7872L98.261 99.1271C98.969 98.8584 99.6387 98.6568 100.27 98.5225C100.921 98.3689 101.667 98.2921 102.509 98.2921C103.6 98.2921 104.422 98.5321 104.977 99.0119C105.532 99.4918 105.81 100.192 105.81 101.114V101.373C105.255 101.181 104.681 101.027 104.087 100.912C103.513 100.797 102.834 100.739 102.05 100.739C101.131 100.739 100.289 100.845 99.5239 101.056C98.7777 101.248 98.1271 101.546 97.5722 101.949C97.0364 102.352 96.6155 102.86 96.3093 103.475C96.0032 104.089 95.8501 104.818 95.8501 105.663V105.721C95.8501 106.488 95.984 107.17 96.2519 107.765C96.5389 108.341 96.9216 108.83 97.4 109.233C97.8784 109.636 98.4333 109.943 99.0647 110.154C99.7153 110.346 100.404 110.442 101.131 110.442C102.203 110.442 103.112 110.27 103.858 109.924C104.604 109.559 105.245 109.08 105.781 108.485V110.154H110ZM105.867 104.713C105.867 105.519 105.551 106.172 104.92 106.671C104.308 107.17 103.485 107.419 102.451 107.419C101.743 107.419 101.169 107.256 100.729 106.93C100.289 106.603 100.069 106.143 100.069 105.548V105.49C100.069 104.799 100.337 104.271 100.873 103.907C101.409 103.542 102.145 103.36 103.083 103.36C103.619 103.36 104.116 103.417 104.575 103.532C105.054 103.628 105.484 103.763 105.867 103.935V104.713Z" fill="white" fill-opacity="0.86"/>
</svg>
