<svg width="80" height="80" viewBox="0 0 80 80" fill="none" xmlns="http://www.w3.org/2000/svg">
<path d="M67.191 76.7188H30.9351C28.5884 76.6915 26.3486 75.7333 24.7082 74.0548C23.0679 72.3763 22.1614 70.1151 22.1881 67.7683V58.1693C22.1614 55.8225 23.0679 53.5613 24.7082 51.8828C26.3486 50.2043 28.5884 49.246 30.9351 49.2188H67.191C69.5378 49.246 71.7776 50.2043 73.4179 51.8828C75.0582 53.5613 75.9647 55.8225 75.9381 58.1693V67.7683C75.9647 70.1151 75.0582 72.3763 73.4179 74.0548C71.7776 75.7333 69.5378 76.6915 67.191 76.7188Z" fill="#8F38E6"/>
<path d="M40.0484 65.3915V65.3555C40.0484 64.5157 39.8391 63.8619 39.4206 63.394C39.002 62.9142 38.428 62.5363 37.6985 62.2604C37.9257 62.1404 38.135 61.9964 38.3263 61.8285C38.5296 61.6605 38.703 61.4686 38.8465 61.2526C39.002 61.0247 39.1216 60.7728 39.2053 60.4968C39.301 60.2209 39.3488 59.903 39.3488 59.5431V59.5071C39.3488 58.5114 38.9781 57.7196 38.2366 57.1318C37.5071 56.5439 36.4966 56.25 35.205 56.25H29.375V68.8466H35.3485C36.0541 68.8466 36.6939 68.7746 37.2679 68.6306C37.8539 68.4867 38.3502 68.2707 38.7568 67.9828C39.1754 67.6949 39.4923 67.335 39.7076 66.9031C39.9348 66.4712 40.0484 65.9673 40.0484 65.3915ZM36.6042 60.011C36.6042 60.4788 36.4248 60.8208 36.0661 61.0367C35.7073 61.2406 35.2229 61.3426 34.613 61.3426H32.0658V58.6793H34.7924C35.3784 58.6793 35.8269 58.7933 36.1378 59.0212C36.4487 59.2372 36.6042 59.5551 36.6042 59.975V60.011ZM37.3038 65.0496C37.3038 65.5175 37.1304 65.8654 36.7836 66.0933C36.4368 66.3093 35.9584 66.4172 35.3485 66.4172H32.0658V63.646H35.2588C35.9764 63.646 36.4966 63.7719 36.8195 64.0239C37.1424 64.2638 37.3038 64.5937 37.3038 65.0136V65.0496Z" fill="white" fill-opacity="0.86"/>
<path d="M51.0031 64.2938V64.2578C51.0031 63.574 50.9074 62.9202 50.7161 62.2963C50.5367 61.6605 50.2497 61.1027 49.855 60.6228C49.4723 60.1309 48.988 59.741 48.402 59.4531C47.816 59.1652 47.1224 59.0212 46.3211 59.0212C45.6155 59.0212 44.9698 59.1532 44.3838 59.4171C43.8097 59.6811 43.3134 60.041 42.8949 60.4968C42.4763 60.9527 42.1474 61.4866 41.9083 62.0984C41.681 62.7102 41.5674 63.3581 41.5674 64.0419V64.0779C41.5674 64.8217 41.693 65.4995 41.9441 66.1113C42.1953 66.7111 42.5421 67.233 42.9846 67.6769C43.439 68.1208 43.9712 68.4627 44.5811 68.7026C45.203 68.9425 45.8727 69.0625 46.5902 69.0625C47.4632 69.0625 48.2226 68.9065 48.8684 68.5946C49.5142 68.2707 50.0643 67.8268 50.5187 67.263L48.9581 65.8774C48.5754 66.2253 48.2047 66.4772 47.8459 66.6332C47.4871 66.7891 47.0805 66.8671 46.6261 66.8671C46.0162 66.8671 45.5019 66.7111 45.0834 66.3992C44.6768 66.0753 44.4077 65.6014 44.2761 64.9776H50.9672C50.9792 64.8457 50.9851 64.7317 50.9851 64.6357C50.9971 64.5397 51.0031 64.4258 51.0031 64.2938ZM48.3482 63.2681H44.2403C44.3479 62.6443 44.5751 62.1464 44.9219 61.7745C45.2807 61.4026 45.7471 61.2166 46.3211 61.2166C46.8952 61.2166 47.3556 61.4086 47.7024 61.7925C48.0492 62.1644 48.2645 62.6562 48.3482 63.2681Z" fill="white" fill-opacity="0.86"/>
<path d="M58.4347 68.4507V66.2553C58.0161 66.4832 57.5676 66.5972 57.0893 66.5972C56.5033 66.5972 56.2103 66.2853 56.2103 65.6614V61.5406H58.4705V59.2012H56.2103V56.7359H53.4836V59.2012H52.3356V61.5406H53.4836V66.1113C53.4836 66.6752 53.5494 67.143 53.681 67.5149C53.8245 67.8748 54.0158 68.1687 54.255 68.3967C54.5061 68.6246 54.7991 68.7806 55.134 68.8646C55.4808 68.9605 55.8635 69.0085 56.282 69.0085C56.7365 69.0085 57.1371 68.9545 57.4839 68.8466C57.8307 68.7506 58.1476 68.6186 58.4347 68.4507Z" fill="white" fill-opacity="0.86"/>
<path d="M68.75 68.8466V63.2501C68.75 61.9424 68.4092 60.9227 67.7275 60.1909C67.0458 59.4591 65.9576 59.0932 64.4627 59.0932C63.6495 59.0932 62.9559 59.1652 62.3818 59.3092C61.8078 59.4531 61.2577 59.6391 60.7315 59.867L61.4132 61.9544C61.8556 61.7865 62.2742 61.6605 62.6688 61.5765C63.0754 61.4806 63.5418 61.4326 64.068 61.4326C64.7497 61.4326 65.2639 61.5825 65.6108 61.8825C65.9576 62.1824 66.131 62.6203 66.131 63.1961V63.3581C65.7842 63.2381 65.4254 63.1421 65.0547 63.0701C64.6959 62.9982 64.2713 62.9622 63.781 62.9622C63.207 62.9622 62.6808 63.0281 62.2024 63.1601C61.736 63.2801 61.3294 63.466 60.9826 63.718C60.6478 63.9699 60.3847 64.2878 60.1933 64.6717C60.002 65.0556 59.9063 65.5115 59.9063 66.0393V66.0753C59.9063 66.5552 59.99 66.9811 60.1575 67.353C60.3368 67.7129 60.576 68.0188 60.875 68.2707C61.174 68.5226 61.5208 68.7146 61.9154 68.8466C62.322 68.9665 62.7526 69.0265 63.207 69.0265C63.8767 69.0265 64.4448 68.9185 64.9112 68.7026C65.3776 68.4747 65.7782 68.1747 66.113 67.8028V68.8466H68.75ZM66.1668 65.4455C66.1668 65.9494 65.9695 66.3572 65.5749 66.6692C65.1922 66.9811 64.678 67.137 64.0322 67.137C63.5897 67.137 63.2309 67.0351 62.9559 66.8311C62.6808 66.6272 62.5433 66.3392 62.5433 65.9673V65.9314C62.5433 65.4995 62.7107 65.1696 63.0456 64.9416C63.3804 64.7137 63.8408 64.5997 64.4268 64.5997C64.7617 64.5997 65.0726 64.6357 65.3596 64.7077C65.6586 64.7677 65.9277 64.8517 66.1668 64.9596V65.4455Z" fill="white" fill-opacity="0.86"/>
</svg>
