<svg width="70" height="70" viewBox="0 0 70 70" fill="none" xmlns="http://www.w3.org/2000/svg">
<path d="M58.7921 67.1289H27.0682C25.0148 67.105 23.055 66.2666 21.6197 64.7979C20.1844 63.3293 19.3912 61.3507 19.4146 59.2973V50.8981C19.3912 48.8447 20.1844 46.8661 21.6197 45.3974C23.055 43.9288 25.0148 43.0903 27.0682 43.0664H58.7921C60.8455 43.0903 62.8054 43.9288 64.2407 45.3974C65.676 46.8661 66.4691 48.8447 66.4458 50.8981V59.2973C66.4691 61.3507 65.676 63.3293 64.2407 64.7979C62.8054 66.2666 60.8455 67.105 58.7921 67.1289Z" fill="#8F38E6"/>
<path d="M35.0424 57.2176V57.1861C35.0424 56.4513 34.8592 55.8792 34.493 55.4698C34.1267 55.0499 33.6245 54.7192 32.9862 54.4778C33.185 54.3728 33.3681 54.2469 33.5355 54.0999C33.7134 53.953 33.8651 53.785 33.9907 53.5961C34.1267 53.3966 34.2314 53.1762 34.3046 52.9347C34.3883 52.6933 34.4302 52.4151 34.4302 52.1002V52.0687C34.4302 51.1975 34.1058 50.5046 33.457 49.9903C32.8187 49.4759 31.9345 49.2188 30.8044 49.2188H25.7031V60.2407H30.93C31.5473 60.2407 32.1072 60.1778 32.6094 60.0518C33.1222 59.9258 33.5564 59.7369 33.9122 59.4849C34.2785 59.233 34.5558 58.9181 34.7441 58.5402C34.9429 58.1623 35.0424 57.7214 35.0424 57.2176ZM32.0287 52.5096C32.0287 52.919 31.8717 53.2182 31.5578 53.4071C31.2439 53.5856 30.8201 53.6748 30.2864 53.6748H28.0576V51.3444H30.4434C30.9561 51.3444 31.3485 51.4441 31.6206 51.6436C31.8927 51.8325 32.0287 52.1107 32.0287 52.4781V52.5096ZM32.6408 56.9184C32.6408 57.3278 32.4891 57.6322 32.1856 57.8316C31.8822 58.0206 31.4636 58.1151 30.93 58.1151H28.0576V55.6902H30.8515C31.4793 55.6902 31.9345 55.8005 32.217 56.0209C32.4996 56.2308 32.6408 56.5195 32.6408 56.8869V56.9184Z" fill="white" fill-opacity="0.86"/>
<path d="M44.6277 56.2571V56.2256C44.6277 55.6272 44.544 55.0552 44.3766 54.5093C44.2196 53.953 43.9685 53.4648 43.6231 53.045C43.2883 52.6146 42.8645 52.2734 42.3517 52.0215C41.839 51.7696 41.2321 51.6436 40.531 51.6436C39.9136 51.6436 39.3485 51.7591 38.8358 51.99C38.3335 52.2209 37.8993 52.5358 37.533 52.9347C37.1668 53.3336 36.879 53.8007 36.6697 54.3361C36.4709 54.8715 36.3715 55.4383 36.3715 56.0366V56.0681C36.3715 56.719 36.4814 57.312 36.7011 57.8474C36.9209 58.3722 37.2243 58.8289 37.6115 59.2173C38.0091 59.6057 38.4748 59.9048 39.0085 60.1148C39.5526 60.3247 40.1386 60.4297 40.7664 60.4297C41.5303 60.4297 42.1948 60.2932 42.7598 60.0203C43.3249 59.7369 43.8063 59.3485 44.2039 58.8551L42.8383 57.6427C42.5035 57.9471 42.1791 58.1676 41.8652 58.304C41.5512 58.4405 41.1955 58.5087 40.7978 58.5087C40.2642 58.5087 39.8142 58.3723 39.448 58.0993C39.0922 57.8159 38.8567 57.4013 38.7416 56.8554H44.5963C44.6068 56.7399 44.612 56.6402 44.612 56.5562C44.6225 56.4723 44.6277 56.3725 44.6277 56.2571ZM42.3047 55.3596H38.7102C38.8044 54.8137 39.0032 54.3781 39.3067 54.0527C39.6206 53.7273 40.0287 53.5646 40.531 53.5646C41.0333 53.5646 41.4361 53.7325 41.7396 54.0684C42.0431 54.3938 42.2314 54.8242 42.3047 55.3596Z" fill="white" fill-opacity="0.86"/>
<path d="M51.1303 59.8943V57.9734C50.7641 58.1728 50.3717 58.2725 49.9531 58.2725C49.4404 58.2725 49.184 57.9996 49.184 57.4538V53.848H51.1617V51.801H49.184V49.6439H46.7982V51.801H45.7936V53.848H46.7982V57.8474C46.7982 58.3408 46.8557 58.7501 46.9708 59.0756C47.0964 59.3905 47.2638 59.6477 47.4731 59.8471C47.6929 60.0465 47.9492 60.183 48.2422 60.2565C48.5457 60.3405 48.8805 60.3825 49.2468 60.3825C49.6444 60.3825 49.995 60.3352 50.2984 60.2407C50.6019 60.1568 50.8792 60.0413 51.1303 59.8943Z" fill="white" fill-opacity="0.86"/>
<path d="M60.1562 60.2407V55.3438C60.1562 54.1996 59.858 53.3074 59.2616 52.6671C58.6651 52.0267 57.7129 51.7066 56.4049 51.7066C55.6933 51.7066 55.0864 51.7696 54.5841 51.8955C54.0818 52.0215 53.6005 52.1842 53.1401 52.3836L53.7365 54.2101C54.1237 54.0632 54.4899 53.953 54.8352 53.8795C55.191 53.7955 55.5991 53.7535 56.0595 53.7535C56.656 53.7535 57.106 53.8847 57.4094 54.1472C57.7129 54.4096 57.8646 54.7927 57.8646 55.2966V55.4383C57.5611 55.3333 57.2472 55.2494 56.9228 55.1864C56.6089 55.1234 56.2374 55.0919 55.8084 55.0919C55.3061 55.0919 54.8457 55.1496 54.4271 55.2651C54.019 55.3701 53.6633 55.5328 53.3598 55.7532C53.0668 55.9737 52.8366 56.2518 52.6692 56.5877C52.5017 56.9236 52.418 57.3225 52.418 57.7844V57.8159C52.418 58.2358 52.4913 58.6084 52.6378 58.9338C52.7947 59.2488 53.004 59.5164 53.2656 59.7369C53.5272 59.9573 53.8307 60.1253 54.176 60.2407C54.5318 60.3457 54.9085 60.3982 55.3061 60.3982C55.8921 60.3982 56.3892 60.3037 56.7973 60.1148C57.2054 59.9153 57.5559 59.6529 57.8489 59.3275V60.2407H60.1562ZM57.896 57.2648C57.896 57.7057 57.7233 58.0626 57.378 58.3355C57.0432 58.6084 56.5932 58.7449 56.0281 58.7449C55.641 58.7449 55.3271 58.6557 55.0864 58.4772C54.8457 58.2988 54.7254 58.0468 54.7254 57.7214V57.6899C54.7254 57.312 54.8719 57.0234 55.1649 56.8239C55.4579 56.6245 55.8607 56.5248 56.3735 56.5248C56.6665 56.5248 56.9385 56.5562 57.1897 56.6192C57.4513 56.6717 57.6867 56.7452 57.896 56.8397V57.2648Z" fill="white" fill-opacity="0.86"/>
</svg>
