<svg width="32" height="32" viewBox="0 0 32 32" fill="none" xmlns="http://www.w3.org/2000/svg">
<path d="M27.4197 31H12.5803C11.6198 30.9891 10.7031 30.6058 10.0317 29.9344C9.36035 29.263 8.98932 28.3585 9.00023 27.4198V23.5802C8.98932 22.6415 9.36035 21.737 10.0317 21.0656C10.7031 20.3942 11.6198 20.0109 12.5803 20H27.4197C28.3802 20.0109 29.2969 20.3942 29.9683 21.0656C30.6397 21.737 31.0107 22.6415 30.9998 23.5802V27.4198C31.0107 28.3585 30.6397 29.263 29.9683 29.9344C29.2969 30.6058 28.3802 30.9891 27.4197 31Z" fill="#8F38E6"/>
<path d="M16.2694 26.6566V26.6422C16.2694 26.3063 16.1856 26.0448 16.0182 25.8576C15.8508 25.6657 15.6212 25.5145 15.3294 25.4041C15.4203 25.3562 15.504 25.2986 15.5805 25.2314C15.6618 25.1642 15.7312 25.0874 15.7886 25.0011C15.8508 24.9099 15.8986 24.8091 15.9321 24.6987C15.9704 24.5884 15.9895 24.4612 15.9895 24.3172V24.3028C15.9895 23.9046 15.8412 23.5878 15.5446 23.3527C15.2528 23.1176 14.8486 23 14.332 23H12V28.0386H14.3894C14.6716 28.0386 14.9276 28.0098 15.1572 27.9522C15.3916 27.8947 15.5901 27.8083 15.7527 27.6931C15.9202 27.5779 16.0469 27.434 16.133 27.2612C16.2239 27.0885 16.2694 26.8869 16.2694 26.6566ZM14.8917 24.5044C14.8917 24.6915 14.8199 24.8283 14.6764 24.9147C14.5329 24.9963 14.3392 25.037 14.0952 25.037H13.0763V23.9717H14.167C14.4014 23.9717 14.5808 24.0173 14.7051 24.1085C14.8295 24.1949 14.8917 24.322 14.8917 24.49V24.5044ZM15.1715 26.5198C15.1715 26.707 15.1022 26.8461 14.9634 26.9373C14.8247 27.0237 14.6334 27.0669 14.3894 27.0669H13.0763V25.9584H14.3535C14.6405 25.9584 14.8486 26.0088 14.9778 26.1096C15.1069 26.2055 15.1715 26.3375 15.1715 26.5054V26.5198Z" fill="white" fill-opacity="0.86"/>
<path d="M20.6512 26.2175V26.2031C20.6512 25.9296 20.613 25.6681 20.5364 25.4185C20.4647 25.1642 20.3499 24.9411 20.192 24.7491C20.0389 24.5524 19.8452 24.3964 19.6108 24.2813C19.3764 24.1661 19.099 24.1085 18.7785 24.1085C18.4962 24.1085 18.2379 24.1613 18.0035 24.2669C17.7739 24.3724 17.5754 24.5164 17.408 24.6987C17.2405 24.8811 17.109 25.0946 17.0133 25.3394C16.9224 25.5841 16.877 25.8432 16.877 26.1167V26.1311C16.877 26.4287 16.9272 26.6998 17.0277 26.9445C17.1281 27.1845 17.2668 27.3932 17.4438 27.5708C17.6256 27.7483 17.8385 27.8851 18.0824 27.981C18.3312 28.077 18.5991 28.125 18.8861 28.125C19.2353 28.125 19.539 28.0626 19.7974 27.9379C20.0557 27.8083 20.2757 27.6307 20.4575 27.4052L19.8332 26.8509C19.6802 26.9901 19.5319 27.0909 19.3884 27.1533C19.2449 27.2156 19.0822 27.2468 18.9004 27.2468C18.6565 27.2468 18.4508 27.1845 18.2833 27.0597C18.1207 26.9301 18.0131 26.7406 17.9605 26.491H20.6369C20.6417 26.4383 20.6441 26.3927 20.6441 26.3543C20.6488 26.3159 20.6512 26.2703 20.6512 26.2175ZM19.5893 25.8072H17.9461C17.9892 25.5577 18.08 25.3586 18.2188 25.2098C18.3623 25.061 18.5488 24.9867 18.7785 24.9867C19.0081 24.9867 19.1922 25.0634 19.331 25.217C19.4697 25.3658 19.5558 25.5625 19.5893 25.8072Z" fill="white" fill-opacity="0.86"/>
<path d="M23.6239 27.8803V27.0021C23.4564 27.0933 23.2771 27.1389 23.0857 27.1389C22.8513 27.1389 22.7341 27.0141 22.7341 26.7646V25.1162H23.6382V24.1805H22.7341V23.1943H21.6435V24.1805H21.1842V25.1162H21.6435V26.9445C21.6435 27.1701 21.6698 27.3572 21.7224 27.506C21.7798 27.6499 21.8563 27.7675 21.952 27.8587C22.0525 27.9498 22.1696 28.0122 22.3036 28.0458C22.4423 28.0842 22.5954 28.1034 22.7628 28.1034C22.9446 28.1034 23.1048 28.0818 23.2436 28.0386C23.3823 28.0002 23.5091 27.9474 23.6239 27.8803Z" fill="white" fill-opacity="0.86"/>
<path d="M27.75 28.0386V25.8C27.75 25.277 27.6137 24.8691 27.341 24.5764C27.0683 24.2836 26.633 24.1373 26.0351 24.1373C25.7098 24.1373 25.4323 24.1661 25.2027 24.2237C24.9731 24.2813 24.7531 24.3556 24.5426 24.4468L24.8153 25.2818C24.9923 25.2146 25.1597 25.1642 25.3175 25.1306C25.4802 25.0922 25.6667 25.073 25.8772 25.073C26.1499 25.073 26.3556 25.133 26.4943 25.253C26.633 25.373 26.7024 25.5481 26.7024 25.7784V25.8432C26.5637 25.7952 26.4202 25.7568 26.2719 25.7281C26.1284 25.6993 25.9585 25.6849 25.7624 25.6849C25.5328 25.6849 25.3223 25.7113 25.131 25.764C24.9444 25.812 24.7818 25.8864 24.643 25.9872C24.5091 26.088 24.4039 26.2151 24.3273 26.3687C24.2508 26.5222 24.2125 26.7046 24.2125 26.9157V26.9301C24.2125 27.1221 24.246 27.2924 24.313 27.4412C24.3847 27.5851 24.4804 27.7075 24.6 27.8083C24.7196 27.9091 24.8583 27.9858 25.0162 28.0386C25.1788 28.0866 25.351 28.1106 25.5328 28.1106C25.8007 28.1106 26.0279 28.0674 26.2145 27.981C26.401 27.8899 26.5613 27.7699 26.6952 27.6211V28.0386H27.75ZM26.7167 26.6782C26.7167 26.8797 26.6378 27.0429 26.4799 27.1677C26.3269 27.2924 26.1212 27.3548 25.8629 27.3548C25.6859 27.3548 25.5424 27.314 25.4323 27.2324C25.3223 27.1509 25.2673 27.0357 25.2673 26.8869V26.8725C25.2673 26.6998 25.3343 26.5678 25.4682 26.4767C25.6022 26.3855 25.7863 26.3399 26.0207 26.3399C26.1547 26.3399 26.279 26.3543 26.3938 26.3831C26.5134 26.4071 26.6211 26.4407 26.7167 26.4838V26.6782Z" fill="white" fill-opacity="0.86"/>
</svg>
