<svg width="16" height="16" viewBox="0 0 16 16" fill="none" xmlns="http://www.w3.org/2000/svg">
<path fill-rule="evenodd" clip-rule="evenodd" d="M1.38519 8.41905C1.17537 8.19012 1.17494 7.83894 1.38419 7.6095L5.45648 3.1442C5.82573 2.73932 6.49993 3.0005 6.49993 3.54843L6.49999 12.4571C6.5 13.0043 5.82729 13.2659 5.45754 12.8625L1.38519 8.41905Z" fill="#5E3838"/>
<path fill-rule="evenodd" clip-rule="evenodd" d="M5.08703 2.80734C5.76398 2.06506 7.00001 2.54389 7.00002 3.54843L7.00008 12.4571C7.00009 13.4604 5.7668 13.9399 5.08891 13.2002L1.01656 8.75682C0.631899 8.33711 0.631108 7.69329 1.01474 7.27264L5.08703 2.80734ZM5.87695 3.44903C5.86393 3.45173 5.84664 3.45846 5.82602 3.48107L1.75374 7.94636C1.71886 7.9846 1.71893 8.04313 1.7539 8.08128L5.82625 12.5247C5.84688 12.5472 5.86416 12.5539 5.8772 12.5566C5.89322 12.5599 5.91418 12.5589 5.93623 12.5503C5.95828 12.5418 5.97439 12.5283 5.98398 12.5151C5.99178 12.5043 5.99999 12.4877 5.99999 12.4571L5.99993 3.54844C5.99993 3.51785 5.99169 3.50123 5.98389 3.49046C5.97429 3.47721 5.95815 3.46376 5.93605 3.4552C5.91395 3.44664 5.89297 3.4457 5.87695 3.44903Z" fill="#DB5C5C"/>
<path fill-rule="evenodd" clip-rule="evenodd" d="M15.8926 11.3674L12.3935 15.8091C12.193 16.0636 11.807 16.0636 11.6065 15.8091L8.10741 11.3674C7.94549 11.1619 7.9691 10.8664 8.1616 10.6892L9.70871 9.26481C9.89367 9.09453 10.1359 9 10.3873 9H13.6127C13.8641 9 14.1063 9.09453 14.2913 9.26481L15.8384 10.6892C16.0309 10.8664 16.0545 11.1619 15.8926 11.3674Z" fill="#402929"/>
<path fill-rule="evenodd" clip-rule="evenodd" d="M12 14.6898L14.8186 11.1119L13.6127 10.0016L10.3873 10.0016L9.18136 11.1119L12 14.6898ZM15.8926 11.3674L12.3935 15.8091C12.193 16.0636 11.807 16.0636 11.6065 15.8091L8.10741 11.3674C7.94549 11.1619 7.9691 10.8664 8.1616 10.6892L9.70871 9.26481C9.89367 9.09453 10.1359 9 10.3873 9H13.6127C13.8641 9 14.1063 9.09453 14.2913 9.26481L15.8384 10.6892C16.0309 10.8664 16.0545 11.1619 15.8926 11.3674Z" fill="#DB5C5C"/>
<path d="M14.695 8.31779C14.8355 8.09317 14.8133 7.79642 14.6283 7.59461L10.5424 3.1372C10.1727 2.73381 9.50002 2.99537 9.50002 3.54256L9.5 8.20738C9.77368 8.07207 10.077 8 10.3873 8H13.6127C13.9988 8 14.3741 8.1116 14.695 8.31779Z" fill="#375239"/>
<path d="M10.0001 8.03781L10.0001 3.54255C10.0001 3.51203 10.0083 3.49541 10.0161 3.48462C10.0257 3.47137 10.0418 3.45793 10.0639 3.44936C10.0859 3.44078 10.1069 3.43981 10.1229 3.44311C10.1359 3.44579 10.1532 3.45249 10.1738 3.47499L14.2597 7.93239C14.2948 7.97062 14.2948 8.02928 14.2597 8.06751L14.2317 8.09811C14.5032 8.18638 14.755 8.33246 14.9686 8.52912L15.0841 8.6354C15.3799 8.21831 15.3509 7.64282 14.997 7.2568L10.9111 2.79939C10.2332 2.05984 9.00002 2.53937 9.00002 3.54254L9 8.55802L9.03139 8.52912C9.30468 8.27751 9.64053 8.1087 10.0001 8.03781Z" fill="#57965C"/>
</svg>
