<svg width="16" height="16" viewBox="0 0 16 16" xmlns="http://www.w3.org/2000/svg">
  <path fill="#955AE0" d="M1.365 8c0-2.053 1.461-3.62 3.5-3.62 1.631 0 3.091 1.119 3.24 2.575h-1.21C6.714 6.194 5.873 5.5 4.86 5.5 3.519 5.5 2.625 6.589 2.625 8c0 1.41.89 2.5 2.235 2.5 1.01 0 1.852-.683 2.035-1.44h1.21c-.152 1.475-1.647 2.56-3.24 2.56-2.03 0-3.5-1.556-3.5-3.62Zm10.59-2.517V4.07h1.09v1.408h1.37v1.064h-1.37V7.97h-1.09V6.547h-1.42V5.483h1.42Zm-2 4V8.07h1.09v1.408h1.37v1.064h-1.37v1.428h-1.09v-1.423h-1.42V9.483h1.42Z"/>
</svg>
