<!-- Copyright © 2000–2024 JetBrains s.r.o. -->
<svg width="16" height="16" viewBox="0 0 16 16" xmlns="http://www.w3.org/2000/svg">
  <path fill="#FFFAEB" fill-rule="evenodd" d="M12.5 2.5h-5c-.55 0-1 .45-1 1V5h2A2.5 2.5 0 0 1 11 7.5v1h1.5c.55 0 1-.45 1-1v-4c0-.55-.45-1-1-1" clip-rule="evenodd"/>
  <path fill="#FFFAEB" d="M8.5 6.5h-5a1 1 0 0 0-1 1v4a1 1 0 0 0 1 1h5a1 1 0 0 0 1-1v-4a1 1 0 0 0-1-1"/>
  <path fill="none" stroke="#C27D04" stroke-linecap="round" stroke-linejoin="round" d="M8.5 6.5h-5a1 1 0 0 0-1 1v4a1 1 0 0 0 1 1h5a1 1 0 0 0 1-1v-4a1 1 0 0 0-1-1m-4 2h3m-3 2h3m4-2h1c.55 0 1-.45 1-1v-4c0-.55-.45-1-1-1h-5c-.55 0-1 .45-1 1v1m2 0h3m-.2 2h.2"/>
</svg>
