<!-- Copyright © 2000–2024 JetBrains s.r.o. -->
<svg width="16" height="16" viewBox="0 0 16 16" xmlns="http://www.w3.org/2000/svg">
  <path fill="#F4F4F4" fill-rule="evenodd" d="M9 10c-1.103 0-2-.897-2-2V5c0-1.103.897-2 2-2h4c1.103 0 2 .897 2 2v3c0 1.103-.897 2-2 2z"/>
  <path fill="#C6771A" fill-rule="evenodd" d="M13 9H9a1 1 0 0 1-1-1V5a1 1 0 0 1 1-1h4a1 1 0 0 1 1 1v3a1 1 0 0 1-1 1"/>
  <path fill="#EBEBEB" fill-rule="evenodd" d="M13 7H9v1h4m0-2H9V5h4z"/>
  <path fill="#F4F4F4" fill-rule="evenodd" d="M4 13c-1.103 0-2-.897-2-2V8c0-1.103.897-2 2-2h4c1.103 0 2 .897 2 2v3c0 1.103-.897 2-2 2z"/>
  <path fill="#C6771A" fill-rule="evenodd" d="M8 12H4a1 1 0 0 1-1-1V8a1 1 0 0 1 1-1h4a1 1 0 0 1 1 1v3a1 1 0 0 1-1 1"/>
  <path fill="#EBEBEB" fill-rule="evenodd" d="M8 10H4v1h4m0-2H4V8h4z"/>
</svg>
