<svg width="16" height="16" viewBox="0 0 16 16" xmlns="http://www.w3.org/2000/svg">
  <path fill="#9aa7b0" d="M8 1C4.13 1 1 4.13 1 8s3.13 7 7 7 7-3.13 7-7-3.13-7-7-7Zm2.52 12.44c.46-.66.84-1.49 1.1-2.44H8.01v3c-.9 0-1.75-.2-2.52-.56-.46-.66-.84-1.49-1.1-2.44H2.82c-.51-.88-.81-1.91-.81-3h2c0-1.07.14-2.09.39-3H2.83A6.064 6.064 0 0 1 5.5 2.56c-.46.66-.84 1.49-1.1 2.44h3.61V2c.9 0 1.75.2 2.52.56.46.66.84 1.49 1.1 2.44h1.57c.51.88.81 1.91.81 3h-2c0 1.07-.14 2.09-.39 3h1.57a6.064 6.064 0 0 1-2.67 2.44Z"/>
  <path fill="#9aa7b0" d="M12 8c0-1.07-.14-2.09-.39-3H8v3h4ZM4 8c0 1.07.14 2.09.39 3H8V8H4Z"/>
</svg>
