<svg width="16" height="16" viewBox="0 0 16 16" xmlns="http://www.w3.org/2000/svg">
  <path fill="#EBECF0" stroke="#6C707E" stroke-linecap="round" stroke-linejoin="round" d="M7.97 14.5a6.5 6.5 0 1 0 0-13 6.5 6.5 0 0 0 0 13Z"/>
  <path fill="#6C707E" d="M11.36 4.33c.14.4.52.67.94.67h1.41a6.57 6.57 0 0 0-3.26-3c-.08 0-.15.04-.18.11s-.02.15.02.21c.43.54.79 1.22 1.07 2.01Zm-6.82 7.34c-.14-.4-.52-.67-.94-.67H2.19a6.57 6.57 0 0 0 3.26 3c.08 0 .15-.04.18-.11s.02-.15-.02-.21c-.43-.54-.79-1.22-1.07-2.01ZM12.91 8c-.52 0-.96.4-1 .92-.02.31-.06.62-.11.92-.05.29.04.58.23.8.19.22.47.35.76.35h.91c.39-.75.64-1.58.72-2.46a.52.52 0 0 0-.13-.38.506.506 0 0 0-.37-.16H12.9l.01.01ZM7.95 9c0-.55-.45-1-1-1H5a1.013 1.013 0 0 0-1 1.09c.03.38.08.74.15 1.1.09.47.5.81.98.81h1.82c.55 0 1-.45 1-1V9Zm3.1 3.42c.14-.31.12-.67-.06-.96a.985.985 0 0 0-.84-.46H8.96c-.55 0-1 .45-1 1v1c0 .55.45 1 1 1h.95c.07 0 .14-.03.18-.08.37-.4.69-.91.97-1.5h-.01ZM3.98 7.08c.02-.31.06-.62.11-.92.04-.29-.04-.58-.23-.8-.19-.22-.47-.35-.76-.35h-.27a1 1 0 0 0-.93.63c-.23.57-.37 1.19-.43 1.82-.01.14.04.28.13.38.09.1.23.16.37.16h1.02c.52 0 .96-.4 1-.92h-.01ZM7.95 3c0-.55-.45-1-1-1H6c-.07 0-.14.03-.18.08-.37.4-.69.91-.97 1.5-.14.31-.12.67.06.96.18.29.5.46.84.46h1.19c.55 0 1-.45 1-1V3h.01Zm0 4c0 .55.45 1 1 1h1.96a1.013 1.013 0 0 0 1-1.09c-.03-.38-.08-.74-.15-1.09a.997.997 0 0 0-.98-.81H8.96c-.55 0-1 .45-1 1v1L7.95 7Z"/>
</svg>
