<svg width="16" height="16" viewBox="0 0 16 16" xmlns="http://www.w3.org/2000/svg">
  <circle cx="8" cy="8" r="8" fill="#f4f4f4"/>
  <circle cx="8" cy="8" r="7" fill="#323232"/>
  <path fill="#ebebeb" d="M8 14c-2.14 0-4.12-1.14-5.19-3h2.6c.52 1.79 1.49 3 2.6 3Zm3-6c0 1.09-.15 2.12-.4 3h2.6c.53-.91.81-1.95.81-3h-3ZM5.41 5h-2.6C2.28 5.91 2 6.95 2 8h3c0-1.09.15-2.12.41-3Zm5.19 0h2.6c-1.07-1.86-3.05-3-5.19-3 1.11 0 2.08 1.21 2.6 3Zm0 6H8v3c1.11 0 2.08-1.21 2.6-3ZM5 8c0 1.09.15 2.12.41 3h2.6V8h-3Zm3-3v3h3c0-1.09-.15-2.12-.4-3H8ZM5.41 5h2.6V2C6.9 2 5.93 3.21 5.41 5Z"/>
</svg>
