<!-- Copyright © 2000–2024 JetBrains s.r.o. -->
<svg width="16" height="16" viewBox="0 0 16 16" xmlns="http://www.w3.org/2000/svg">
  <path fill="#242424" fill-rule="evenodd" d="M2 4.16v6.681L7.742 14h.516L14 10.841V4.16L8.258 1h-.516z"/>
  <path fill="#B180D3" fill-rule="evenodd" d="M3 5.25v5L8 13V8zm10 0L8 8v5l5-2.75z"/>
  <path fill="#292929" fill-rule="evenodd" d="M12.545 4.5 8 7 3.455 4.5 3 4.751v.499L8 8l5-2.75v-.499z"/>
  <path fill="#B180D3" fill-rule="evenodd" d="m8 7 4.545-2.5L8 2 3.455 4.5z"/>
  <path fill="#242424" fill-rule="evenodd" d="M9 11.5C9 13.984 6.984 16 4.5 16A4.502 4.502 0 0 1 0 11.5C0 9.016 2.016 7 4.5 7S9 9.016 9 11.5"/>
  <path fill="#C3C3C3" fill-rule="evenodd" d="M4.5 8a3.5 3.5 0 1 0 0 7 3.5 3.5 0 1 0 0-7"/>
  <path fill="#313131" fill-rule="evenodd" d="M3 13.488V13h-.488c.139.185.302.348.488.488m0-3.977c-.186.14-.349.303-.488.489H3m2 3.949V13H4v.949a2.494 2.494 0 0 0 1 0M6.488 13H6v.488c.186-.14.349-.303.488-.488M4 12h1v-1H4m-1 0h-.949a2.494 2.494 0 0 0 0 1H3m2-2.949a2.423 2.423 0 0 0-1 0V10h1m1-.489V10h.488A2.431 2.431 0 0 0 6 9.511M6 11h.949a2.494 2.494 0 0 1 0 1H6z"/>
</svg>
