<svg width="16" height="16" viewBox="0 0 16 16" xmlns="http://www.w3.org/2000/svg">
  <defs>
    <linearGradient id="a" x1="9" x2="9" y1="1.97" y2="16.03" gradientUnits="userSpaceOnUse">
      <stop offset="0" stop-color="#005da7"/>
      <stop offset="1" stop-color="#00345e"/>
    </linearGradient>
    <linearGradient id="b" x1="7.36" x2="16.01" y1="7.36" y2="16.01" gradientUnits="userSpaceOnUse">
      <stop offset="0" stop-color="#fff"/>
      <stop offset="1" stop-color="#ffc370"/>
    </linearGradient>
    <linearGradient id="c" x1="4" x2="4" y1="0" y2="9" gradientUnits="userSpaceOnUse">
      <stop offset="0" stop-color="#1d6e2f"/>
      <stop offset="1" stop-color="#005413"/>
    </linearGradient>
    <linearGradient id="d" x1="7.41" x2="14.53" y1="7.41" y2="14.53" gradientUnits="userSpaceOnUse">
      <stop offset="0" stop-color="#3dabff"/>
      <stop offset="1" stop-color="#e04ec3"/>
    </linearGradient>
    <linearGradient id="e" x1="4" x2="4" y1="1" y2="8" gradientUnits="userSpaceOnUse">
      <stop offset="0" stop-color="#b3ffc4"/>
      <stop offset="1" stop-color="#8ef0a4"/>
    </linearGradient>
  </defs>
  <path fill="url(#a)" d="M16 2h-5v3H8v3H5v3H2v5h14V2z"/>
  <path fill="url(#b)" d="M15 15V3h-3v3H9v3H6v3H3v3h12z"/>
  <ellipse cx="4" cy="4.5" fill="url(#c)" rx="4" ry="4.5"/>
  <path fill="url(#d)" d="M12 3h3v3h-3V3ZM9 9h3V6H9v3Zm-3 3h3V9H6v3Zm-3 3h3v-3H3v3Zm6 0h3v-3H9v3Zm3-3h3V9h-3v3Z"/>
  <path fill="url(#e)" d="M6 4H4v1h1.96C5.77 6.14 4.97 7 4 7 2.9 7 2 5.88 2 4.5S2.9 2 4 2c.65 0 1.23.4 1.59 1l1-.21C6.08 1.73 5.11 1 3.99 1c-1.66 0-3 1.57-3 3.5S2.33 8 3.99 8s3-1.57 3-3.5c0-.17-.02-.34-.04-.5h-.96Z"/>
</svg>
