<svg width="16" height="16" viewBox="0 0 16 16" xmlns="http://www.w3.org/2000/svg">
  <defs>
    <linearGradient id="a" x1="9" x2="9" y1="1.97" y2="16.03" gradientUnits="userSpaceOnUse">
      <stop offset="0" stop-color="#005da7"/>
      <stop offset="1" stop-color="#00345e"/>
    </linearGradient>
    <linearGradient id="b" x1="7.36" x2="16.01" y1="7.36" y2="16.01" gradientUnits="userSpaceOnUse">
      <stop offset="0" stop-color="#fff"/>
      <stop offset="1" stop-color="#ffc370"/>
    </linearGradient>
    <linearGradient id="c" x1="7.41" x2="14.53" y1="7.41" y2="14.53" gradientUnits="userSpaceOnUse">
      <stop offset="0" stop-color="#3dabff"/>
      <stop offset="1" stop-color="#e04ec3"/>
    </linearGradient>
    <linearGradient id="d" x1="3.5" x2="3.5" y1="0" y2="9" gradientUnits="userSpaceOnUse">
      <stop offset="0" stop-color="#914d1c"/>
      <stop offset="1" stop-color="#542707"/>
    </linearGradient>
    <linearGradient id="e" x1="3.5" x2="3.5" y1="1" y2="8" gradientUnits="userSpaceOnUse">
      <stop offset="0" stop-color="#ffae72"/>
      <stop offset="1" stop-color="#ff7614"/>
    </linearGradient>
  </defs>
  <path fill="url(#a)" d="M16 2h-5v3H8v3H5v3H2v5h14V2z"/>
  <path fill="url(#b)" d="M15 15V3h-3v3H9v3H6v3H3v3h12z"/>
  <path fill="url(#c)" d="M12 3h3v3h-3V3ZM9 9h3V6H9v3Zm-3 3h3V9H6v3Zm-3 3h3v-3H3v3Zm6 0h3v-3H9v3Zm3-3h3V9h-3v3Z"/>
  <path fill="url(#d)" d="M4 9V6H3v3H0V0h3v3h1V0h3v9H4z"/>
  <path fill="url(#e)" d="M5 1v3H2V1H1v7h1V5h3v3h1V1H5z"/>
</svg>
