<svg width="16" height="16" viewBox="0 0 16 16" fill="none" xmlns="http://www.w3.org/2000/svg">
  <path d="M1.46997 7.5V1.5" stroke="#CED0D6" stroke-linecap="round" stroke-linejoin="round"/>
  <path d="M5.46997 7.5V1.5" stroke="#CED0D6" stroke-linecap="round" stroke-linejoin="round"/>
  <path d="M1.46997 4.5H5.46997" stroke="#CED0D6" stroke-linecap="round" stroke-linejoin="round"/>
  <path d="M13.97 3H12.97C12.4177 3 11.97 3.44772 11.97 4V5C11.97 5.55228 12.4177 6 12.97 6H13.97C14.5223 6 14.97 5.55228 14.97 5V4C14.97 3.44772 14.5223 3 13.97 3Z" fill="#CED0D6"/>
  <path d="M10.97 6H9.96997C9.41769 6 8.96997 6.44772 8.96997 7V8C8.96997 8.55228 9.41769 9 9.96997 9H10.97C11.5223 9 11.97 8.55228 11.97 8V7C11.97 6.44772 11.5223 6 10.97 6Z" fill="#CED0D6"/>
  <path d="M4.96997 12H3.96997C3.41769 12 2.96997 12.4477 2.96997 13V14C2.96997 14.5523 3.41769 15 3.96997 15H4.96997C5.52226 15 5.96997 14.5523 5.96997 14V13C5.96997 12.4477 5.52226 12 4.96997 12Z" fill="#CED0D6"/>
  <path d="M10.97 12H9.96997C9.41769 12 8.96997 12.4477 8.96997 13V14C8.96997 14.5523 9.41769 15 9.96997 15H10.97C11.5223 15 11.97 14.5523 11.97 14V13C11.97 12.4477 11.5223 12 10.97 12Z" fill="#CED0D6"/>
  <path d="M7.96997 9H6.96997C6.41769 9 5.96997 9.44772 5.96997 10V11C5.96997 11.5523 6.41769 12 6.96997 12H7.96997C8.52226 12 8.96997 11.5523 8.96997 11V10C8.96997 9.44772 8.52226 9 7.96997 9Z" fill="#CED0D6"/>
  <path d="M13.97 9H12.97C12.4177 9 11.97 9.44772 11.97 10V11C11.97 11.5523 12.4177 12 12.97 12H13.97C14.5223 12 14.97 11.5523 14.97 11V10C14.97 9.44772 14.5223 9 13.97 9Z" fill="#CED0D6"/>
</svg>
