<svg width="16" height="16" viewBox="0 0 16 16" xmlns="http://www.w3.org/2000/svg">
  <path fill="#322936" d="m6 7.11 2.5-1.44V4.48L5 2.46 1.5 4.48v4.04L5 10.54l1-.58V7.11Z"/>
  <path fill="#322936" stroke="#BB69D6" stroke-linecap="round" stroke-linejoin="round" d="M7.5 7.98 11 5.96l3.5 2.02v4.04L11 14.04l-3.5-2.02V7.98Z"/>
  <path fill="none" stroke="#BB69D6" stroke-linecap="round" stroke-linejoin="round" d="M7.5 7.98 11 10l3.5-2.02"/>
  <path fill="#BB69D6" d="M1.5 5.28c-.22 0-.4-.18-.4-.4v-.4c0-.14.08-.27.2-.35l.35-.2c.19-.11.44-.04.55.15.11.19.05.44-.15.55l-.15.08v.17c0 .22-.18.4-.4.4Zm1.76-1.35.39-.22c.19-.11.26-.36.15-.55a.414.414 0 0 0-.55-.15l-.39.22c-.19.11-.26.36-.15.55.07.13.21.2.35.2.07 0 .14-.02.2-.05ZM5.7 2.86c.11-.19.04-.44-.15-.55l-.35-.2a.407.407 0 0 0-.4 0l-.35.2c-.19.11-.26.35-.15.55.11.2.35.26.55.15L5 2.93l.15.08c.06.04.13.05.2.05.14 0 .27-.07.35-.2Zm1.6.92c.11-.19.04-.44-.15-.55l-.39-.22a.407.407 0 0 0-.55.15c-.11.19-.04.44.15.55l.39.22c.06.04.13.05.2.05.14 0 .27-.07.35-.2Zm1.61 1.1v-.4a.43.43 0 0 0-.2-.35l-.35-.2a.407.407 0 0 0-.55.15c-.11.19-.05.44.15.55l.15.08v.17c0 .22.18.4.4.4.22 0 .4-.18.4-.4Zm-3.7 6.01.35-.2c.19-.11.26-.35.15-.55a.405.405 0 0 0-.55-.15l-.15.08-.15-.08a.407.407 0 0 0-.55.15c-.11.19-.04.44.15.55l.35.2c.06.04.13.05.2.05s.14-.02.2-.05ZM3.8 9.85c.11-.19.04-.44-.15-.55l-.39-.22a.407.407 0 0 0-.55.15c-.11.19-.04.44.15.55l.39.22c.06.04.13.05.2.05.14 0 .27-.07.35-.2Zm-1.6-.92c.11-.19.05-.44-.15-.55L1.9 8.3v-.17c0-.22-.18-.4-.4-.4-.22 0-.4.18-.4.4v.4c0 .14.08.27.2.35l.35.2c.06.04.13.05.2.05.14 0 .27-.07.35-.2Zm-.29-2.2v-.45c0-.22-.18-.4-.4-.4-.22 0-.4.18-.4.4v.45c0 .22.18.4.4.4.22 0 .4-.18.4-.4Zm1.89-.92c.11-.19.04-.44-.15-.55l-.39-.22a.407.407 0 0 0-.55.15c-.11.19-.04.44.15.55l.39.22c.06.04.13.05.2.05.14 0 .27-.07.35-.2Zm1.41 1.04.35-.2c.19-.11.26-.36.15-.55a.405.405 0 0 0-.55-.15l-.15.08-.15-.08a.407.407 0 0 0-.55.15c-.11.19-.05.44.15.55l.35.2c.06.04.13.05.2.05s.14-.02.2-.05Zm1.56-.9.39-.22c.19-.11.26-.36.15-.55a.414.414 0 0 0-.55-.15l-.39.22c-.19.11-.26.36-.15.55.07.13.21.2.35.2.07 0 .14-.02.2-.05Z"/>
</svg>
