<svg xmlns:xlink="http://www.w3.org/1999/xlink" width="16" height="16" viewBox="0 0 16 16" xmlns="http://www.w3.org/2000/svg">
  <defs>
    <linearGradient id="a" x1="5" x2="5" y1="1" y2="12" gradientUnits="userSpaceOnUse">
      <stop offset="0" stop-color="purple"/>
      <stop offset="1" stop-color="#5c005c"/>
    </linearGradient>
    <linearGradient id="b" x1="5" x2="5" y1="2.25" y2="11.14" gradientUnits="userSpaceOnUse">
      <stop offset="0" stop-color="#ffedff"/>
      <stop offset="1" stop-color="#ffbeff"/>
    </linearGradient>
    <linearGradient xlink:href="#a" id="c" x1="11" x2="11" y1="4.23" y2="15.77"/>
    <linearGradient id="d" x1="11" x2="11" y1="5.5" y2="9.66" gradientUnits="userSpaceOnUse">
      <stop offset="0" stop-color="#fd54ff"/>
      <stop offset="1" stop-color="#ffbeff"/>
    </linearGradient>
    <linearGradient id="e" x1="7.11" x2="11.06" y1="11.36" y2="11.36" gradientUnits="userSpaceOnUse">
      <stop offset="0" stop-color="#fd59ff"/>
      <stop offset="1" stop-color="#ff9bff"/>
    </linearGradient>
    <linearGradient id="f" x1="11.11" x2="15.06" y1="11.36" y2="11.36" gradientUnits="userSpaceOnUse">
      <stop offset="0" stop-color="#fc33ff"/>
      <stop offset="1" stop-color="#ffa2ff"/>
    </linearGradient>
  </defs>
  <path fill="url(#a)" d="M4.53 1 0 3.61v5.78L4.53 12h.94L10 9.39V3.61L5.47 1h-.94z"/>
  <path fill="url(#b)" d="m3.05 8.85.87.49-.47.88-.89-.5.49-.87Zm-.47-3.16.87.49.49-.87-.89-.5-.47.88ZM8 7.01h1V5.99l-1 .02v1Zm-6 1H1v.8l.7.39.48-.88L2 8Zm0-2.02H1v1.02l1-.02v-1Zm3.2-2.85.48-.88L5.2 2h-.41l-.48.27.49.87h.4Zm.86 2.16.5.86.87-.49-.49-.87-.89.5Zm.02-1.63.87.49.49-.87-.89-.5-.47.88ZM9 8.01H8l-.19.32.49.87.69-.39v-.8ZM4.8 9.86l-.48.88.48.26h.41l.48-.27-.49-.87h-.4ZM2.56 3.28l.5.86.87-.49-.49-.87-.89.5Zm3.5 6.06.49.87.89-.5-.5-.86-.87.49ZM5.13 7l.56-.31-.49-.87h-.4l-.48.87.56.31h.25ZM1.15 4.09 1 4.37v.41l.7.39.49-.87-.71-.39-.33.19Zm7.37-.19-.71.39.49.87.69-.39v-.42l-.14-.26-.34-.19Z"/>
  <path fill="url(#c)" d="M6 12.89V7.11l5-2.88 5 2.88v5.78l-5 2.88-5-2.88z"/>
  <path fill="url(#d)" d="m11 9.6 3.65-2.11L11 5.38 7.35 7.49 11 9.6z"/>
  <path fill="url(#e)" d="M7 8.09v4.22l4 2.31V10.4L7 8.09z"/>
  <path fill="url(#f)" d="m15 8.09-4 2.31v4.22l4-2.31V8.09z"/>
  <path fill="#fff" d="m11 10.46 4-2.31v-.46l-.4-.23L11 9.54 7.4 7.46l-.4.23v.46l4 2.31z"/>
</svg>
