<svg width="16" height="16" viewBox="0 0 16 16" xmlns="http://www.w3.org/2000/svg">
  <path fill="#C281E3" fill-opacity=".7" d="M7.4 7.46 11 5.38l3.6 2.08L11 9.54 7.4 7.46Zm3.8 2.89c-.06.04-.13.05-.2.05s-.14-.02-.2-.05L7 8.16v4.16l4 2.31 4-2.31V8.16l-3.8 2.19Z"/>
  <path fill="#c281e3" d="m1.49 3.9.69.39-.49.87-.7-.39v-.41l.14-.25.36-.21Zm1.07 5.81.88.51.47-.88-.87-.5-.49.87Zm-.57-1.7h-1v.8l.7.4.48-.88-.18-.1v-.22Zm0-2.02h-1v1.02h1V5.99ZM5.12 7l.54-.31-.49-.87-.19.11-.19-.11-.49.87.54.31h.27ZM2.57 5.68l.87.5.49-.87-.88-.51-.47.88Zm-.02-2.39.5.86.87-.5-.49-.87-.88.51Zm6.3.83-.36-.21-.69.39.49.87.7-.39v-.41l-.14-.25ZM7.4 5.69l-.47-.88-.88.51.49.87.87-.5ZM4.98 2.01h-.2l-.48.28.51.86.18-.1.18.1.51-.86-.48-.28H5Zm0 7.97-.2-.11-.48.88.47.27h.41l.47-.27-.48-.88-.2.11ZM7.41 3.3l-.88-.51-.49.87.87.5.5-.86Z"/>
</svg>
