<svg width="16" height="16" viewBox="0 0 16 16" xmlns="http://www.w3.org/2000/svg">
  <path fill="#f4f4f4" d="M4.53 1 0 3.61v5.78L4.53 12h.94L10 9.39V3.61L5.47 1h-.94z"/>
  <path fill="#642e8d" d="m1.49 3.9.69.39-.49.87-.7-.39v-.41l.14-.25.36-.21Zm1.07 5.81.88.51.47-.88-.87-.5-.49.87Zm-.57-1.7h-1v.8l.7.4.48-.88-.18-.1v-.22Zm0-2.02h-1v1.02h1V5.99ZM5.12 7l.54-.31-.49-.87-.19.11-.19-.11-.49.87.54.31h.27ZM2.57 5.68l.87.5.49-.87-.88-.51-.47.88Zm-.02-2.39.5.86.87-.5-.49-.87-.88.51Zm6.3.83-.36-.21-.69.39.49.87.7-.39v-.41l-.14-.25ZM6.07 9.35l.47.88.88-.51-.49-.87-.87.5Zm1.92-1.11-.18.1.48.88.7-.4v-.8h-1v.22Zm0-1.22h1V6h-1v1.02Zm-.58-1.33-.47-.88-.88.51.49.87.87-.5ZM4.99 2.01h-.2l-.48.28.51.86.18-.1.18.1.51-.86-.48-.28h-.2Zm0 7.97-.2-.11-.48.88.47.27h.41l.47-.27-.48-.88-.2.11ZM7.42 3.3l-.88-.51-.49.87.87.5.5-.86Z"/>
  <path fill="#f4f4f4" d="M6 12.89V7.11l5-2.88 5 2.88v5.78l-5 2.88-5-2.88z"/>
  <path fill="#642e8d" d="M15 8.09v4.22l-4 2.31-4-2.31V8.09l4 2.31 4-2.31Zm-4 1.5 3.65-2.11L11 5.37 7.35 7.48 11 9.59Z"/>
</svg>
