<!-- Copyright © 2000–2024 JetBrains s.r.o. -->
<svg width="16" height="16" viewBox="0 0 16 16" xmlns="http://www.w3.org/2000/svg">
  <path fill="#F4F4F4" fill-rule="evenodd" d="M5 13c-1.654 0-3-1.346-3-3V6c0-1.654 1.346-3 3-3h6c1.654 0 3 1.346 3 3v4c0 1.654-1.346 3-3 3z"/>
  <path fill="#01509E" fill-rule="evenodd" d="M11 12H5a2 2 0 0 1-2-2V6a2 2 0 0 1 2-2h6a2 2 0 0 1 2 2v4a2 2 0 0 1-2 2"/>
  <path fill="#EBEBEB" fill-rule="evenodd" d="M11 7H5V6h6m0 4H5V9h6z"/>
  <path fill="#F4F4F4" fill-rule="evenodd" d="M9.339 9.819c.234.705.86 2.101 2.249 5.192l.443.989h.938l2.765-6.158A3.504 3.504 0 0 0 12.5 5C10.57 5 9 6.57 9 8.5c0 .465.09.918.272 1.347l.067-.028"/>
  <path fill="#313131" fill-rule="evenodd" d="M14.809 9.461a2.5 2.5 0 1 0-4.615 0l2.306 5.141 2.309-5.141"/>
  <path fill="#EBEBEB" fill-rule="evenodd" d="M14 8.5a1.5 1.5 0 1 1-3.001-.001A1.5 1.5 0 0 1 14 8.5"/>
</svg>
