<!-- Copyright © 2000–2024 JetBrains s.r.o. -->
<svg width="16" height="16" viewBox="0 0 16 16" xmlns="http://www.w3.org/2000/svg">
  <path fill="#43454A" d="M8.6 11.75A4.507 4.507 0 0 1 12.5 5c.72 0 1.39.19 2 .49 0-1.1-.9-1.99-2-1.99h-9c-1.1 0-2 .9-2 2v5c0 1.1.9 2 2 2h5.54l-.43-.75z"/>
  <path fill="none" stroke="#CED0D6" stroke-linecap="round" stroke-linejoin="round" d="M8.5 6.5h-4m0 3h3m.96 3H3.5c-1.1 0-2-.9-2-2v-5c0-1.1.9-2 2-2h9c.89 0 1.64.58 1.9 1.38"/>
  <path fill="#3D3223" stroke="#D6AE58" stroke-linecap="round" stroke-linejoin="round" d="M12.5 6.5c-1.66 0-3 1.34-3 3 0 .55.15 1.06.4 1.5l2.6 4.5 2.6-4.5c.25-.44.4-.95.4-1.5 0-1.66-1.34-3-3-3m0 4c-.55 0-1-.45-1-1s.45-1 1-1 1 .45 1 1-.45 1-1 1"/>
</svg>
