<!-- Copyright © 2000–2024 JetBrains s.r.o. -->
<svg width="16" height="16" viewBox="0 0 16 16" xmlns="http://www.w3.org/2000/svg">
  <path fill="#C77D55" d="M6.12 0H.88A.88.88 0 0 0 0 .88v5.24c0 .486.394.88.88.88h5.24A.88.88 0 0 0 7 6.12V.88A.88.88 0 0 0 6.12 0"/>
  <path fill="#1E1F22" d="M3.68 4.21c-.06.03-.12.04-.18.04s-.12-.01-.18-.04L1 3.05v1.7c0 .28.22.5.5.5h4c.28 0 .5-.22.5-.5v-1.7z"/>
  <path fill="#1E1F22" d="M1.04 2.17 3.5 3.4l2.48-1.24a.493.493 0 0 0-.48-.41h-4c-.25 0-.44.18-.48.42h.02"/>
</svg>
