<!-- Copyright © 2000–2024 JetBrains s.r.o. -->
<svg width="16" height="16" viewBox="0 0 16 16" xmlns="http://www.w3.org/2000/svg">
  <path fill="#242424" fill-rule="evenodd" d="M0 14h12V3H0z"/>
  <path fill="#75BCFF" fill-rule="evenodd" d="M11 3H1v10h10z"/>
  <path fill="#282828" fill-rule="evenodd" d="M2 12h8V3H2z"/>
  <path fill="#75BCFF" fill-rule="evenodd" d="M5 9H3v1h2m4-1H6v1h3M5 5H3v1h2m4 0H6V5h3M5 7H3v1h2m4 0H6V7h3z"/>
  <path fill="#242424" fill-rule="evenodd" d="M0 0v3h12V0z"/>
  <path fill="#75BCFF" fill-rule="evenodd" d="M1 3h10V1H1z"/>
  <path fill="#242424" fill-rule="evenodd" d="M4 11.586V16h4.414l5.793-5.793-4.414-4.414z"/>
  <path fill="#242424" fill-rule="evenodd" d="m11.293 4.293-1.5 1.5 4.414 4.414 1.5-1.5a.999.999 0 0 0 0-1.414l-3-3a.999.999 0 0 0-1.414 0"/>
  <path fill="#C3C3C3" fill-rule="evenodd" d="m15 8-1 1-3-3 1-1zM5 15h3l-3-3m5-5-4 4 3 3 4-4z"/>
  <path fill="#282828" fill-rule="evenodd" d="m10 8-3 3h1l2-2z"/>
</svg>
