<!-- Copyright © 2000–2024 JetBrains s.r.o. -->
<svg width="16" height="16" viewBox="0 0 16 16" xmlns="http://www.w3.org/2000/svg">
  <path fill="#242424" fill-rule="evenodd" d="M4 5c0 1.475.811 2.75 2 3.443V15h4v-1h2V9h-2v-.557C11.189 7.75 12 6.475 12 5c0-2.206-1.794-4-4-4S4 2.794 4 5"/>
  <path fill="#C3C3C3" fill-rule="evenodd" d="M5 5c0 1.301.839 2.401 2 2.815V14h2v-1h2v-1H9v-1h2v-1H9V7.815A2.996 2.996 0 0 0 11 5c0-1.654-1.346-3-3-3S5 3.346 5 5"/>
  <path fill="#282828" fill-rule="evenodd" d="M8 4a1 1 0 1 0 0 2 1 1 0 0 0 0-2"/>
</svg>
