<!-- Copyright © 2000–2024 JetBrains s.r.o. -->
<svg width="16" height="16" viewBox="0 0 16 16" xmlns="http://www.w3.org/2000/svg">
  <path fill="#242424" fill-rule="evenodd" d="M0 11V7c0-1.103.896-2 2-2h3c1.104 0 2 .897 2 2v4z"/>
  <path fill="#C3C3C3" fill-rule="evenodd" d="M6 7v3H1V7a1 1 0 0 1 1-1h3a1 1 0 0 1 1 1"/>
  <path fill="#242424" fill-rule="evenodd" d="M6 3.5a2.5 2.5 0 1 1-5 0 2.5 2.5 0 0 1 5 0"/>
  <path fill="#C3C3C3" fill-rule="evenodd" d="M3.5 2a1.5 1.5 0 1 0 .001 3.001A1.5 1.5 0 0 0 3.5 2"/>
  <path fill="#292929" fill-rule="evenodd" d="m2 6 1.5 2L5 6z"/>
  <path fill="#242424" fill-rule="evenodd" d="M9 11V7c0-1.103.896-2 2-2h3c1.104 0 2 .897 2 2v4z"/>
  <path fill="#C3C3C3" fill-rule="evenodd" d="M15 7v3h-5V7a1 1 0 0 1 1-1h3a1 1 0 0 1 1 1"/>
  <path fill="#242424" fill-rule="evenodd" d="M15 3.5a2.5 2.5 0 1 1-5 0 2.5 2.5 0 0 1 5 0"/>
  <path fill="#C3C3C3" fill-rule="evenodd" d="M12.5 2a1.5 1.5 0 1 0 .001 3.001A1.5 1.5 0 0 0 12.5 2"/>
  <path fill="#292929" fill-rule="evenodd" d="m11 6 1.5 2L14 6z"/>
  <path fill="#242424" fill-rule="evenodd" d="M4 15v-4.666C4 9.047 4.986 8 6.2 8h3.6c1.214 0 2.2 1.047 2.2 2.334V15z"/>
  <path fill="#C3C3C3" fill-rule="evenodd" d="M11 10.334V14H5v-3.666C5 9.597 5.537 9 6.2 9h3.6c.663 0 1.2.597 1.2 1.334"/>
  <path fill="#242424" fill-rule="evenodd" d="M11 6a3 3 0 1 1-6 0 3 3 0 0 1 6 0"/>
  <path fill="#C3C3C3" fill-rule="evenodd" d="M8 4a2 2 0 1 0 0 4 2 2 0 0 0 0-4"/>
  <path fill="#292929" fill-rule="evenodd" d="M6.125 9 8 11.5 9.875 9z"/>
</svg>
