<svg xmlns:xlink="http://www.w3.org/1999/xlink" width="16" height="16" viewBox="0 0 16 16" xmlns="http://www.w3.org/2000/svg">
  <defs>
    <linearGradient id="a" x1="6" x2="6" y1="1" y2="10.92" gradientUnits="userSpaceOnUse">
      <stop offset="0" stop-color="#7d6e48"/>
      <stop offset="1" stop-color="#3b2d1d"/>
    </linearGradient>
    <linearGradient id="b" x1="6" x2="6" y1="2.11" y2="10" gradientUnits="userSpaceOnUse">
      <stop offset="0" stop-color="#fff"/>
      <stop offset="1" stop-color="#fff2d3"/>
    </linearGradient>
    <linearGradient id="c" x1="6" x2="6" y1="3.08" y2="9" gradientTransform="rotate(-90 6 6)" gradientUnits="userSpaceOnUse">
      <stop offset="0" stop-color="#fff2d3"/>
      <stop offset="1" stop-color="#fff"/>
    </linearGradient>
    <linearGradient id="d" x1="9.5" x2="9.5" y1="4" y2="15" gradientUnits="userSpaceOnUse">
      <stop offset="0" stop-color="#219bda"/>
      <stop offset="1" stop-color="#094361"/>
    </linearGradient>
    <linearGradient id="e" x1="9.5" x2="9.5" y1="5" y2="14" gradientUnits="userSpaceOnUse">
      <stop offset=".25" stop-color="#fff"/>
      <stop offset=".77" stop-color="#78fff5"/>
    </linearGradient>
    <linearGradient id="f" x1="9.5" x2="9.5" y1="6" y2="13" gradientTransform="rotate(-90 9.5 9.5)" gradientUnits="userSpaceOnUse">
      <stop offset=".23" stop-color="#78fff5"/>
      <stop offset=".75" stop-color="#fff"/>
    </linearGradient>
    <linearGradient xlink:href="#a" id="g" x1="8.5" x2="8.5" y1="6" y2="10.96"/>
  </defs>
  <path fill="url(#a)" d="M1 1h10v10H1z"/>
  <path fill="url(#b)" d="M2 2h8v8H2z"/>
  <path fill="url(#c)" d="M3 3h6v6H3z" transform="rotate(90 6 6)"/>
  <path fill="url(#d)" d="M4 4h11v11H4z"/>
  <path fill="url(#e)" d="M5 5h9v9H5z"/>
  <path fill="url(#f)" d="M6 6h7v7H6z" transform="rotate(90 9.5 9.5)"/>
  <path fill="url(#g)" d="M11 6v2h-1V6h1Zm-5 4h2v1H6v-1Zm4 1H9v-1h1V9h1v2h-1Z"/>
</svg>
