<svg width="16" height="16" viewBox="0 0 16 16" xmlns="http://www.w3.org/2000/svg">
  <path fill="#EDF3FF" stroke="#3574F0" stroke-linecap="round" stroke-linejoin="round" d="M6.5 2.5h-3a1 1 0 0 0-1 1v2a1 1 0 0 0 1 1h3a1 1 0 0 0 1-1v-2a1 1 0 0 0-1-1m5.9 0h-1.8a1.1 1.1 0 0 0-1.1 1.1v3.8a1.1 1.1 0 0 0 1.1 1.1h1.8a1.1 1.1 0 0 0 1.1-1.1V3.6a1.1 1.1 0 0 0-1.1-1.1m.23 8H9.37a.87.87 0 0 0-.87.87v1.26c0 .48.39.87.87.87h3.26c.48 0 .87-.39.87-.87v-1.26a.87.87 0 0 0-.87-.87m-7.13-2h-2a1 1 0 0 0-1 1v3a1 1 0 0 0 1 1h2a1 1 0 0 0 1-1v-3a1 1 0 0 0-1-1"/>
</svg>
