<!-- Copyright © 2000–2024 JetBrains s.r.o. -->
<svg width="16" height="16" viewBox="0 0 16 16" xmlns="http://www.w3.org/2000/svg">
  <path fill="#F4F4F4" fill-rule="evenodd" d="M3 8a5 5 0 0 0 5 5V3a5 5 0 0 0-5 5m10 0a5 5 0 0 0-5-5v10a5 5 0 0 0 5-5"/>
  <path fill="#313131" fill-rule="evenodd" d="M4 8a4 4 0 0 0 4 4V4a4 4 0 0 0-4 4m8 0a4 4 0 0 0-4-4v8a4 4 0 0 0 4-4"/>
  <path fill="#313131" fill-rule="evenodd" d="M5 8c0 1.656 1.344 3 3 3V5C6.344 5 5 6.344 5 8"/>
  <path fill="#EBEBEB" fill-rule="evenodd" d="M11 8c0-1.656-1.344-3-3-3v6c1.656 0 3-1.344 3-3"/>
</svg>
