<svg width="16" height="16" viewBox="0 0 16 16" xmlns="http://www.w3.org/2000/svg">
  <path fill="#B99BF8" d="M11.34 9C8.99 10.52 7 7.45 4.67 9c-.1.32-.16.66-.16 1 0 1.93 1.57 3.5 3.5 3.5s3.5-1.57 3.5-3.5c0-.34-.06-.68-.16-1ZM7.5 8.25c-.41 0-.75-.34-.75-.75s.34-.75.75-.75.75.34.75.75-.34.75-.75.75m2.38.25a.38.38 0 1 1-.76 0 .38.38 0 0 1 .76 0" opacity=".7"/>
  <path fill="#9aa7b0" d="M10 5.42V2c.28 0 .5-.22.5-.5S10.28 1 10 1H6c-.28 0-.5.22-.5.5s.22.5.5.5v3.42C3.47 6.52 2.31 9.47 3.42 12s4.05 3.69 6.58 2.58 3.69-4.05 2.58-6.58A4.964 4.964 0 0 0 10 5.42M8 14c-2.2 0-4-1.78-4-3.98C4 8.19 5.23 6.6 7 6.14V2h2v4.14c2.14.55 3.42 2.72 2.88 4.86-.45 1.77-2.05 3-3.88 3Z"/>
</svg>
