<svg width="16" height="16" viewBox="0 0 16 16" xmlns="http://www.w3.org/2000/svg">
  <path fill="none" stroke="#548AF7" stroke-linecap="round" stroke-linejoin="round" d="M4 13.5c-.83 0-1.5-.67-1.5-1.5V8c0-.83.67-1.5 1.5-1.5h1c.83 0 1.5-.67 1.5-1.5V4c0-.83.67-1.5 1.5-1.5h4c.83 0 1.5.67 1.5 1.5v4c0 .83-.67 1.5-1.5 1.5h-1c-.83 0-1.5.67-1.5 1.5v1c0 .83-.67 1.5-1.5 1.5z" clip-rule="evenodd"/>
  <path fill="#43454A" stroke="#CED0D6" stroke-linecap="round" stroke-linejoin="round" d="M11.5 7V5a.5.5 0 0 0-.5-.5H9a.5.5 0 0 0-.5.5v2a.5.5 0 0 0 .5.5h2a.5.5 0 0 0 .5-.5m-4 4V9a.5.5 0 0 0-.5-.5H5a.5.5 0 0 0-.5.5v2a.5.5 0 0 0 .5.5h2a.5.5 0 0 0 .5-.5"/>
</svg>
