<!-- Copyright © 2000–2024 JetBrains s.r.o. -->
<svg width="16" height="16" viewBox="0 0 16 16" xmlns="http://www.w3.org/2000/svg">
  <path fill="#F4F4F4" fill-rule="evenodd" d="M0 3v6l4 2h2l6-3V2L8 0H6z"/>
  <path fill="#313131" fill-rule="evenodd" d="M1 4v4l4 2V6zm10-1L5 6v4l6-3z"/>
  <path fill="#313131" fill-rule="evenodd" d="m1 4 4 2 6-3-4-2z"/>
  <path fill="#EBEBEB" fill-rule="evenodd" d="M5 5 3 4l4-2 2 1z"/>
  <path fill="#F4F4F4" fill-rule="evenodd" d="M6 11a5 5 0 0 1 5-5 5 5 0 0 1 5 5 5 5 0 0 1-5 5 5 5 0 0 1-5-5"/>
  <path fill="#FA0" fill-rule="evenodd" d="M11 7a4 4 0 1 0 0 8 4 4 0 0 0 0-8"/>
  <path fill="#313131" fill-rule="evenodd" d="M13 9.2c0-.696-.841-1.2-2-1.2s-2 .504-2 1.2v.8h1V9h2v1l-2 1v1h2v-.533l1-1.067M12 14h-2v-1h2z"/>
</svg>
