<svg width="16" height="16" viewBox="0 0 16 16" xmlns="http://www.w3.org/2000/svg">
  <path fill="#FAF2FF" d="M9.72 11.04c-.27-.3-.41-.68-.39-1.08.06-1.43 1.33-2.98 3.26-2.98.32 0 .62.05.91.12V4.98L8 1.95 2.5 4.98v6.05L8 14.06l3.02-1.66c-.19-.4-1.19-1.24-1.3-1.35z"/>
  <path fill="none" stroke="#B153E0" stroke-linecap="round" stroke-linejoin="round" d="M10.58 12.63 8 14.05l-5.5-3.03V4.98L8 1.95l5.5 3.03v1.59"/>
  <path fill="none" stroke="#B153E0" stroke-linecap="round" stroke-linejoin="round" d="M2.5 4.98 8 8l5.5-3.02"/>
  <path fill="none" stroke="#6C707E" stroke-linecap="round" stroke-linejoin="round" d="M10.83 10.02c.03-.59.59-1.55 1.76-1.55s1.79.66 1.79 1.78-1.05 1.67-1.46 2.11c-.21.22-.42.59-.42.99"/>
  <path fill="#6C707E" d="M12.49 15.59a.58.58 0 1 0 0-1.16.58.58 0 0 0 0 1.16"/>
</svg>
