<svg width="22" height="22" viewBox="0 0 32 32" fill="none" xmlns="http://www.w3.org/2000/svg">
  <path fill-rule="evenodd" clip-rule="evenodd" d="M6.56075 3.47705H5.7681L5.58715 4.24877L4.52663 8.77171L4.29834 9.74531L6.24553 10.2019L6.47381 9.22829L7.08748 6.61112L14.5213 14.5523L8.7403 25.2745L7.48997 22.1305L7.12044 21.2013L5.262 21.9403L5.63153 22.8695L7.66436 27.9813L7.97406 28.7601L8.79499 28.5913L14.2016 27.4795L15.1811 27.2781L14.7783 25.3191L13.7988 25.5205L10.5159 26.1955L16.318 15.4342H26.6079L24.4828 18.4202L23.903 19.2349L25.5324 20.3946L26.1122 19.5798L29.3149 15.0798L29.7276 14.5L29.3149 13.9202L26.1122 9.42015L25.5324 8.60543L23.903 9.76512L24.4828 10.5798L26.5143 13.4342H16.2141L8.76543 5.47705H12.0002H13.0002V3.47705H12.0002H6.56075Z" fill="black"/>
</svg>