<svg width="16" height="16" viewBox="0 0 16 16" fill="none" xmlns="http://www.w3.org/2000/svg">
<g clip-path="url(#clip0_4372_12215)">
<path d="M16 0H0V16H16V0Z" fill="#087CFA"/>
<path d="M15 1H1V15H15V1Z" fill="black"/>
<path d="M5.09706 8.18314C4.59686 8.18314 4.14386 8.06594 3.73806 7.83214C3.33246 7.59554 3.01386 7.27214 2.78226 6.86154C2.55086 6.44854 2.43506 5.98794 2.43506 5.48014C2.43506 4.97234 2.55086 4.51314 2.78226 4.10254C3.01366 3.68954 3.33226 3.36574 3.73806 3.13194C4.14366 2.89534 4.59666 2.77734 5.09706 2.77734C5.50266 2.77734 5.87606 2.84974 6.21706 2.99394C6.56046 3.13814 6.84926 3.34114 7.08326 3.60254C7.31966 3.86394 7.48526 4.16494 7.57986 4.50594H6.48966C6.41006 4.34174 6.30166 4.19974 6.16486 4.08034C6.03046 3.95854 5.87246 3.86514 5.69066 3.80034C5.50906 3.73314 5.31366 3.69954 5.10446 3.69954C4.79586 3.69954 4.51706 3.77654 4.26826 3.93094C4.01946 4.08534 3.82406 4.29814 3.68206 4.56934C3.54266 4.83814 3.47306 5.14194 3.47306 5.48034C3.47306 5.81874 3.54266 6.12394 3.68206 6.39494C3.82386 6.66374 4.01926 6.87514 4.26826 7.02954C4.51726 7.18394 4.79586 7.26094 5.10446 7.26094C5.39066 7.26094 5.64946 7.20734 5.88106 7.10034C6.11506 6.99354 6.30046 6.84514 6.43726 6.65614C6.57406 6.46714 6.64766 6.25434 6.65746 6.01774L6.66126 6.12594H5.43306V5.32334H7.64686V5.73394C7.64686 6.19454 7.53486 6.61134 7.31086 6.98454C7.08926 7.35554 6.78446 7.64774 6.39626 7.86194C6.01046 8.07614 5.57746 8.18294 5.09706 8.18294V8.18314ZM10.7795 7.28714C11.0881 7.28714 11.3657 7.21014 11.6121 7.05574C11.8585 6.89894 12.0513 6.68374 12.1907 6.40994C12.3301 6.13374 12.3997 5.82374 12.3997 5.48034C12.3997 5.13694 12.3301 4.82834 12.1907 4.55454C12.0513 4.27834 11.8585 4.06314 11.6121 3.90874C11.3657 3.75194 11.0881 3.67354 10.7795 3.67354C10.4709 3.67354 10.1921 3.75194 9.94326 3.90874C9.69686 4.06314 9.50266 4.27834 9.36086 4.55454C9.22146 4.82854 9.15186 5.13694 9.15186 5.48034C9.15186 5.82374 9.22146 6.13374 9.36086 6.40994C9.50266 6.68394 9.69686 6.89894 9.94326 7.05574C10.1921 7.21014 10.4709 7.28714 10.7795 7.28714ZM10.7757 8.18314C10.2755 8.18314 9.82126 8.06594 9.41306 7.83214C9.00746 7.59554 8.68746 7.27214 8.45366 6.86154C8.22226 6.44854 8.10646 5.98794 8.10646 5.48014C8.10646 4.97234 8.22226 4.51314 8.45366 4.10254C8.68766 3.68954 9.00746 3.36574 9.41306 3.13194C9.82126 2.89534 10.2755 2.77734 10.7757 2.77734C11.2759 2.77734 11.7327 2.89534 12.1383 3.13194C12.5465 3.36574 12.8663 3.68954 13.0977 4.10254C13.3291 4.51314 13.4449 4.97234 13.4449 5.48014C13.4449 5.98794 13.3291 6.44854 13.0977 6.86154C12.8663 7.27214 12.5465 7.59554 12.1383 7.83214C11.7327 8.06594 11.2783 8.18314 10.7757 8.18314Z" fill="white"/>
<path d="M8 12H3V13H8V12Z" fill="white"/>
</g>
<defs>
<clipPath id="clip0_4372_12215">
<rect width="16" height="16" fill="white"/>
</clipPath>
</defs>
</svg>
