<svg width="16" height="16" viewBox="0 0 16 16" fill="none" xmlns="http://www.w3.org/2000/svg">
<g clip-path="url(#clip0_4407_11189)">
<path d="M16 0H0V16H16V0Z" fill="#FDB60D"/>
<path d="M15 1H1V15H15V1Z" fill="black"/>
<path d="M12.0366 8.0933L10.7921 5.9997C10.8751 5.9733 10.9633 5.9541 11.0397 5.9187C11.3235 5.7787 11.5413 5.5873 11.6931 5.3401C11.8473 5.0927 11.9245 4.8081 11.9245 4.4813C11.9245 4.1545 11.8486 3.8793 11.6968 3.6367C11.5474 3.3941 11.3333 3.2027 11.0545 3.0673C10.7757 2.9319 10.4536 2.8667 10.0876 2.8667H7.84375V8.0933H8.86295V6.1193H9.74255L10.8678 8.0933H12.0364H12.0366ZM8.86335 3.7161H10.0207C10.1925 3.7161 10.3418 3.7487 10.4688 3.8095C10.5982 3.8747 10.6978 3.9635 10.7674 4.0803C10.837 4.1969 10.8719 4.3323 10.8719 4.4909C10.8719 4.6495 10.8372 4.7849 10.7674 4.9063C10.6976 5.0229 10.5982 5.1117 10.4688 5.1769C10.3418 5.2423 10.1925 5.2703 10.0207 5.2703H8.86335V3.7163V3.7161Z" fill="white"/>
<path d="M3.92174 6.1193H4.80134L5.92654 8.0933H7.09514L5.85074 5.9997C5.93374 5.9733 6.02194 5.9541 6.09834 5.9187C6.38214 5.7787 6.59974 5.5873 6.75174 5.3401C6.90594 5.0927 6.98314 4.8081 6.98314 4.4813C6.98314 4.1545 6.90714 3.8793 6.75534 3.6367C6.60594 3.3941 6.39194 3.2027 6.11314 3.0673C5.83434 2.9319 5.51214 2.8667 5.14614 2.8667H2.90234V8.0933H3.92154V6.1193H3.92174ZM3.92174 3.7161H5.07914C5.25094 3.7161 5.40014 3.7487 5.52714 3.8095C5.65654 3.8747 5.75614 3.9635 5.82594 4.0803C5.89554 4.1969 5.93054 4.3323 5.93054 4.4909C5.93054 4.6495 5.89574 4.7849 5.82594 4.9063C5.75614 5.0229 5.65674 5.1117 5.52714 5.1769C5.40014 5.2423 5.25094 5.2703 5.07914 5.2703H3.92174V3.7163V3.7161Z" fill="white"/>
<path d="M8 12H3V13H8V12Z" fill="white"/>
<rect y="11" width="16" height="5.00005" fill="#FDB60D"/>
<g opacity="0.9">
<path d="M1 14.8345H1.44689V13.9866H1.78642C2.24202 13.9866 2.60766 13.6474 2.60766 12.9933V12.9852C2.60766 12.4078 2.31457 12.0081 1.82995 12.0081H1V14.8345ZM1.44689 13.4334V12.5693H1.79222C2.01567 12.5693 2.15496 12.7187 2.15496 12.9973V13.0054C2.15496 13.2477 2.02437 13.4334 1.80093 13.4334H1.44689Z" fill="#010101"/>
<path d="M2.93839 14.8345H3.38528V13.9301H3.73641L4.1717 14.8345H4.69404L4.19782 13.8251C4.45609 13.6918 4.6331 13.4052 4.6331 12.9489V12.9408C4.6331 12.6743 4.57216 12.4522 4.45899 12.2948C4.3255 12.109 4.12527 12.0081 3.867 12.0081H2.93839V14.8345ZM3.38528 13.3809V12.5693H3.82927C4.04692 12.5693 4.1804 12.7066 4.1804 12.9731V12.9812C4.1804 13.2194 4.05562 13.3809 3.83798 13.3809H3.38528Z" fill="#010101"/>
<path d="M5.03547 14.8345H6.58219V14.2814H5.47946V13.6878H6.43709V13.1346H5.47946V12.5613H6.56768V12.0081H5.03547V14.8345Z" fill="#010101"/>
<path d="M7.62665 14.8547H8.02131L8.84255 12.0081H8.36083L7.82978 13.9987L7.29873 12.0081H6.80541L7.62665 14.8547Z" fill="#010101"/>
<path d="M9.17627 14.8345H9.62317V12.0081H9.17627V14.8345Z" fill="#010101"/>
<path d="M10.1308 14.8345H11.6775V14.2814H10.5748V13.6878H11.5324V13.1346H10.5748V12.5613H11.663V12.0081H10.1308V14.8345Z" fill="#010101"/>
<path d="M12.6117 14.8547H13.0006L13.4591 13.0054L13.9176 14.8547H14.3064L15 12.0081H14.5328L14.112 13.922L13.6564 12H13.2734L12.8178 13.922L12.397 12.0081H11.9182L12.6117 14.8547Z" fill="#010101"/>
</g>
</g>
<defs>
<clipPath id="clip0_4407_11189">
<rect width="16" height="16" fill="white"/>
</clipPath>
</defs>
</svg>
