<svg width="16" height="16" viewBox="0 0 16 16" fill="none" xmlns="http://www.w3.org/2000/svg">
    <path fill-rule="evenodd" clip-rule="evenodd"
          d="M7 13.4374V12.841L2.25274 10.1416L2 10.2825V10.6227L7 13.4374ZM7 11.4732L2 8.65853V6.3554L2.25274 6.21444L7.20022 9.02673C7.11598 9.1879 7.05699 9.35504 7.02581 9.52674L2.54275 7.00662L2.54159 8.34284L7 10.8771V11.4732ZM8.75424 7.68354C8.54598 7.78352 8.35254 7.89276 8.17601 8.01012L7.9994 8.10987L2 4.72327V4.38892L7.9994 1L12.5417 3.56528V3.83089L12.225 4.00914L7.9994 1.6221L2.76638 4.57881L7.9994 7.55415L13.7472 4.2864L14 4.42736V6.69674L13.3087 7.08584C13.0013 7.04263 12.6828 7.01503 12.356 7.00465L13.4572 6.3787V5.02732L8.75424 7.68354Z"
          fill="#F26522"/>
    <path d="M7 13.4374L6.97547 13.481L7.05 13.5229V13.4374H7ZM7 12.841H7.05V12.812L7.02472 12.7976L7 12.841ZM2.25274 10.1416L2.27746 10.0981L2.25298 10.0842L2.22839 10.0979L2.25274 10.1416ZM2 10.2825L1.97565 10.2389L1.95 10.2532V10.2825H2ZM2 10.6227H1.95V10.6519L1.97547 10.6663L2 10.6227ZM2 8.65853H1.95V8.68776L1.97547 8.7021L2 8.65853ZM7 11.4732L6.97547 11.5168L7.05 11.5588V11.4732H7ZM2 6.3554L1.97564 6.31174L1.95 6.32604V6.3554H2ZM2.25274 6.21444L2.27745 6.17097L2.25297 6.15706L2.22839 6.17077L2.25274 6.21444ZM7.20022 9.02673L7.24454 9.04989L7.2669 9.00711L7.22493 8.98326L7.20022 9.02673ZM7.02581 9.52674L7.00131 9.57033L7.06247 9.60471L7.075 9.53568L7.02581 9.52674ZM2.54275 7.00662L2.56725 6.96304L2.49283 6.9212L2.49275 7.00658L2.54275 7.00662ZM2.54159 8.34284L2.49159 8.3428L2.49156 8.37192L2.51688 8.38631L2.54159 8.34284ZM7 10.8771H7.05V10.848L7.02471 10.8336L7 10.8771ZM8.17601 8.01012L8.20066 8.05378L8.20369 8.05176L8.17601 8.01012ZM8.75424 7.68354L8.77592 7.72872L8.77883 7.72708L8.75424 7.68354ZM7.9994 8.10987L7.97482 8.15341L7.99941 8.16729L8.02399 8.15341L7.9994 8.10987ZM2 4.72327H1.95V4.75246L1.97542 4.76681L2 4.72327ZM2 4.38892L1.97541 4.34538L1.95 4.35973V4.38892H2ZM7.9994 1L8.02399 0.956463L7.9994 0.942576L7.97481 0.956465L7.9994 1ZM12.5417 3.56528H12.5917V3.53609L12.5663 3.52174L12.5417 3.56528ZM12.5417 3.83089L12.5663 3.87447L12.5917 3.86013V3.83089H12.5417ZM12.225 4.00914L12.2004 4.05267L12.2249 4.06654L12.2495 4.05271L12.225 4.00914ZM7.9994 1.6221L8.02399 1.57857L7.9994 1.56467L7.97481 1.57857L7.9994 1.6221ZM2.76638 4.57881L2.74178 4.53528L2.66498 4.57867L2.74167 4.62227L2.76638 4.57881ZM7.9994 7.55415L7.97469 7.59761L7.9994 7.61166L8.02411 7.59761L7.9994 7.55415ZM13.7472 4.2864L13.7716 4.24273L13.747 4.22902L13.7225 4.24293L13.7472 4.2864ZM14 4.42736H14.05V4.398L14.0244 4.38369L14 4.42736ZM14 6.69674L14.0245 6.74031L14.05 6.72597V6.69674H14ZM13.3087 7.08584L13.3017 7.13536L13.3184 7.13771L13.3332 7.12942L13.3087 7.08584ZM12.356 7.00465L12.3313 6.96118L12.1768 7.04898L12.3544 7.05462L12.356 7.00465ZM13.4572 6.3787L13.482 6.42217L13.5072 6.40779V6.3787H13.4572ZM13.4572 5.02732H13.5072V4.94166L13.4327 4.98379L13.4572 5.02732ZM7.05 13.4374V12.841H6.95V13.4374H7.05ZM7.02472 12.7976L2.27746 10.0981L2.22803 10.1851L6.97528 12.8845L7.02472 12.7976ZM2.22839 10.0979L1.97565 10.2389L2.02435 10.3262L2.2771 10.1853L2.22839 10.0979ZM1.95 10.2825V10.6227H2.05V10.2825H1.95ZM1.97547 10.6663L6.97547 13.481L7.02453 13.3938L2.02453 10.5791L1.97547 10.6663ZM1.97547 8.7021L6.97547 11.5168L7.02453 11.4297L2.02453 8.61496L1.97547 8.7021ZM1.95 6.3554V8.65853H2.05V6.3554H1.95ZM2.22839 6.17077L1.97564 6.31174L2.02436 6.39907L2.2771 6.2581L2.22839 6.17077ZM7.22493 8.98326L2.27745 6.17097L2.22803 6.25791L7.17552 9.0702L7.22493 8.98326ZM7.075 9.53568C7.10522 9.36932 7.16244 9.20695 7.24454 9.04989L7.15591 9.00357C7.06952 9.16885 7.00877 9.34076 6.97661 9.5178L7.075 9.53568ZM2.51825 7.05021L7.00131 9.57033L7.05031 9.48315L2.56725 6.96304L2.51825 7.05021ZM2.59159 8.34289L2.59275 7.00667L2.49275 7.00658L2.49159 8.3428L2.59159 8.34289ZM7.02471 10.8336L2.5663 8.29938L2.51688 8.38631L6.97529 10.9206L7.02471 10.8336ZM7.05 11.4732V10.8771H6.95V11.4732H7.05ZM8.20369 8.05176C8.37813 7.93579 8.56952 7.82768 8.77588 7.72862L8.7326 7.63847C8.52243 7.73936 8.32695 7.84973 8.14832 7.96849L8.20369 8.05176ZM8.02399 8.15341L8.20059 8.05366L8.15142 7.96659L7.97481 8.06633L8.02399 8.15341ZM1.97542 4.76681L7.97482 8.15341L8.02398 8.06633L2.02458 4.67973L1.97542 4.76681ZM1.95 4.38892V4.72327H2.05V4.38892H1.95ZM7.97481 0.956465L1.97541 4.34538L2.02459 4.43245L8.02399 1.04353L7.97481 0.956465ZM12.5663 3.52174L8.02399 0.956463L7.97481 1.04354L12.5172 3.60881L12.5663 3.52174ZM12.5917 3.83089V3.56528H12.4917V3.83089H12.5917ZM12.2495 4.05271L12.5663 3.87447L12.5172 3.78732L12.2005 3.96556L12.2495 4.05271ZM7.97481 1.66563L12.2004 4.05267L12.2496 3.9656L8.02399 1.57857L7.97481 1.66563ZM2.79098 4.62234L8.024 1.66563L7.97481 1.57857L2.74178 4.53528L2.79098 4.62234ZM8.02412 7.51068L2.79109 4.53534L2.74167 4.62227L7.97469 7.59761L8.02412 7.51068ZM13.7225 4.24293L7.97469 7.51068L8.02411 7.59761L13.772 4.32987L13.7225 4.24293ZM14.0244 4.38369L13.7716 4.24273L13.7229 4.33007L13.9756 4.47103L14.0244 4.38369ZM14.05 6.69674V4.42736H13.95V6.69674H14.05ZM13.3332 7.12942L14.0245 6.74031L13.9755 6.65316L13.2841 7.04227L13.3332 7.12942ZM12.3544 7.05462C12.6795 7.06495 12.9962 7.0924 13.3017 7.13536L13.3156 7.03633C13.0065 6.99286 12.6862 6.96511 12.3576 6.95467L12.3544 7.05462ZM13.4325 6.33523L12.3313 6.96118L12.3807 7.04812L13.482 6.42217L13.4325 6.33523ZM13.4072 5.02732V6.3787H13.5072V5.02732H13.4072ZM8.77883 7.72708L13.4818 5.07086L13.4327 4.98379L8.72965 7.64001L8.77883 7.72708Z"
          fill="#F26522"/>
    <path fill-rule="evenodd" clip-rule="evenodd"
          d="M15.5 9.4633C15.5 9.99532 13.933 10.4266 12 10.4266C10.067 10.4266 8.5 9.99532 8.5 9.4633C8.5 8.93129 10.067 8.5 12 8.5C13.933 8.5 15.5 8.93129 15.5 9.4633ZM12 11.0688C13.4468 11.0688 14.7258 10.7992 15.5 10.3866V11.133C15.5 11.665 13.933 12.0963 12 12.0963C10.067 12.0963 8.5 11.665 8.5 11.133V10.3866C9.27417 10.7992 10.5532 11.0688 12 11.0688ZM12 12.7385C13.4468 12.7385 14.7258 12.469 15.5 12.0564V12.8497C15.5 13.3558 13.933 13.7661 12 13.7661C10.067 13.7661 8.5 13.3558 8.5 12.8497V12.0564C9.27417 12.469 10.5532 12.7385 12 12.7385ZM8.5 14.5367V13.7261C9.27417 14.1387 10.5532 14.4083 12 14.4083C13.4468 14.4083 14.7258 14.1387 15.5 13.7261V14.5367C15.5 15.0687 13.933 15.5 12 15.5C10.067 15.5 8.5 15.0687 8.5 14.5367Z"
          fill="#9AA7B0" fill-opacity="0.8"/>
</svg>
