<svg width="13" height="13" viewBox="0 0 13 13" fill="none" xmlns="http://www.w3.org/2000/svg">
  <path
    d="M11.75 8.97874V6.94836L11.5288 6.82416L6.49948 9.70344L1.72389 6.96992L1.72491 5.79255L6.49948 8.49531L11.75 5.5195V3.51991L11.5288 3.39571L6.49948 6.27498L1.92058 3.65336L6.49948 1.04814L10.1969 3.15141L10.474 2.99435V2.76031L6.49948 0.5L1.25 3.48604V3.78064L6.49948 6.76464L11.2751 4.04855V5.23927L6.49948 7.97277L1.47115 5.09454L1.25 5.21875V7.24807L6.49948 10.2239L11.2751 7.51706V8.70058L6.49948 11.4341L1.47115 8.55483L1.25 8.67903V8.97874L6.49948 11.9545L11.75 8.97874Z"
    fill="#AFB1B3" stroke="#AFB1B3" stroke-width="0.1" stroke-miterlimit="2.28281"/>
</svg>
