<svg width="16" height="16" viewBox="0 0 16 16" fill="none" xmlns="http://www.w3.org/2000/svg">
    <path fill-rule="evenodd" clip-rule="evenodd"
          d="M7 13.4374L2 10.6227V10.2825L2.25274 10.1416L7 12.841V13.4374ZM14 10.4545V8.31838L13.7472 8.17742L11.1839 9.6347L11.5689 10.0267L13.4572 8.96381V10.307L13.1977 10.4545H14ZM9.90041 9.0041L14 6.69674V4.42736L13.7472 4.2864L7.9994 7.55415L2.76638 4.57881L7.9994 1.6221L12.225 4.00914L12.5417 3.83089V3.56528L7.9994 1L2 4.38892V4.72327L7.9994 8.10987L13.4572 5.02732V6.3787L8.84563 9H9.84206C9.86155 9.00108 9.881 9.00244 9.90041 9.0041ZM7.1532 9L2.25274 6.21444L2 6.3554V8.65853L7 11.4732V10.8771L2.54159 8.34284L2.54275 7.00662L7 9.51223V9.03729C7 9.0167 7.0164 9 7.03663 9H7.1532Z"
          fill="#F26522"/>
    <path d="M2 10.6227H1.95V10.6519L1.97547 10.6663L2 10.6227ZM7 13.4374L6.97547 13.481L7.05 13.5229V13.4374H7ZM2 10.2825L1.97565 10.2389L1.95 10.2532V10.2825H2ZM2.25274 10.1416L2.27746 10.0981L2.25298 10.0842L2.22839 10.0979L2.25274 10.1416ZM7 12.841H7.05V12.812L7.02472 12.7976L7 12.841ZM14 10.4545V10.5045H14.05V10.4545H14ZM14 8.31838H14.05V8.28901L14.0244 8.27471L14 8.31838ZM13.7472 8.17742L13.7716 8.13376L13.747 8.12004L13.7225 8.13396L13.7472 8.17742ZM11.1839 9.6347L11.1592 9.59124L11.1027 9.62336L11.1483 9.66974L11.1839 9.6347ZM11.5689 10.0267L11.5332 10.0617L11.56 10.0891L11.5934 10.0703L11.5689 10.0267ZM13.4572 8.96381H13.5072V8.87829L13.4327 8.92024L13.4572 8.96381ZM13.4572 10.307L13.482 10.3505L13.5072 10.3361V10.307H13.4572ZM13.1977 10.4545L13.173 10.4111L13.0085 10.5045H13.1977V10.4545ZM9.90041 9.0041L9.89617 9.05392L9.91151 9.05523L9.92493 9.04767L9.90041 9.0041ZM14 6.69674L14.0245 6.74031L14.05 6.72597V6.69674H14ZM14 4.42736H14.05V4.398L14.0244 4.38369L14 4.42736ZM13.7472 4.2864L13.7716 4.24273L13.747 4.22902L13.7225 4.24293L13.7472 4.2864ZM7.9994 7.55415L7.97469 7.59761L7.9994 7.61166L8.02411 7.59761L7.9994 7.55415ZM2.76638 4.57881L2.74178 4.53528L2.66498 4.57867L2.74167 4.62227L2.76638 4.57881ZM7.9994 1.6221L8.02399 1.57857L7.9994 1.56467L7.97481 1.57857L7.9994 1.6221ZM12.225 4.00914L12.2004 4.05267L12.2249 4.06654L12.2495 4.05271L12.225 4.00914ZM12.5417 3.83089L12.5663 3.87447L12.5917 3.86013V3.83089H12.5417ZM12.5417 3.56528H12.5917V3.53609L12.5663 3.52174L12.5417 3.56528ZM7.9994 1L8.02399 0.956463L7.9994 0.942576L7.97481 0.956465L7.9994 1ZM2 4.38892L1.97541 4.34538L1.95 4.35973V4.38892H2ZM2 4.72327H1.95V4.75246L1.97542 4.76681L2 4.72327ZM7.9994 8.10987L7.97482 8.15341L7.99941 8.16729L8.02399 8.15341L7.9994 8.10987ZM13.4572 5.02732H13.5072V4.94166L13.4327 4.98379L13.4572 5.02732ZM13.4572 6.3787L13.482 6.42217L13.5072 6.40779V6.3787H13.4572ZM8.84563 9L8.82092 8.95653L8.65648 9.05H8.84563V9ZM9.84206 9L9.84482 8.95H9.84206V9ZM7.1532 9V9.05H7.34234L7.17791 8.95653L7.1532 9ZM2.25274 6.21444L2.27745 6.17097L2.25297 6.15706L2.22839 6.17077L2.25274 6.21444ZM2 6.3554L1.97564 6.31174L1.95 6.32604V6.3554H2ZM2 8.65853H1.95V8.68776L1.97547 8.7021L2 8.65853ZM7 11.4732L6.97547 11.5168L7.05 11.5588V11.4732H7ZM7 10.8771H7.05V10.848L7.02471 10.8336L7 10.8771ZM2.54159 8.34284L2.49159 8.3428L2.49156 8.37192L2.51688 8.38631L2.54159 8.34284ZM2.54275 7.00662L2.56725 6.96304L2.49283 6.9212L2.49275 7.00658L2.54275 7.00662ZM7 9.51223L6.9755 9.55582L7.05 9.5977V9.51223H7ZM1.97547 10.6663L6.97547 13.481L7.02453 13.3938L2.02453 10.5791L1.97547 10.6663ZM1.95 10.2825V10.6227H2.05V10.2825H1.95ZM2.22839 10.0979L1.97565 10.2389L2.02435 10.3262L2.2771 10.1853L2.22839 10.0979ZM7.02472 12.7976L2.27746 10.0981L2.22803 10.1851L6.97528 12.8845L7.02472 12.7976ZM6.95 12.841V13.4374H7.05V12.841H6.95ZM14.05 10.4545V8.31838H13.95V10.4545H14.05ZM14.0244 8.27471L13.7716 8.13376L13.7229 8.22109L13.9756 8.36205L14.0244 8.27471ZM13.7225 8.13396L11.1592 9.59124L11.2087 9.67817L13.772 8.22089L13.7225 8.13396ZM11.6045 9.99168L11.2196 9.59967L11.1483 9.66974L11.5332 10.0617L11.6045 9.99168ZM11.5934 10.0703L13.4818 9.00738L13.4327 8.92024L11.5443 9.98314L11.5934 10.0703ZM13.4072 8.96381V10.307H13.5072V8.96381H13.4072ZM13.4325 10.2635L13.173 10.4111L13.2224 10.498L13.482 10.3505L13.4325 10.2635ZM14 10.4045H13.1977V10.5045H14V10.4045ZM9.92493 9.04767L14.0245 6.74031L13.9755 6.65316L9.87589 8.96053L9.92493 9.04767ZM14.05 6.69674V4.42736H13.95V6.69674H14.05ZM14.0244 4.38369L13.7716 4.24273L13.7229 4.33007L13.9756 4.47103L14.0244 4.38369ZM13.7225 4.24293L7.97469 7.51068L8.02411 7.59761L13.772 4.32987L13.7225 4.24293ZM8.02412 7.51068L2.79109 4.53534L2.74167 4.62227L7.97469 7.59761L8.02412 7.51068ZM2.79098 4.62234L8.024 1.66563L7.97481 1.57857L2.74178 4.53528L2.79098 4.62234ZM7.97481 1.66563L12.2004 4.05267L12.2496 3.9656L8.02399 1.57857L7.97481 1.66563ZM12.2495 4.05271L12.5663 3.87447L12.5172 3.78732L12.2005 3.96556L12.2495 4.05271ZM12.5917 3.83089V3.56528H12.4917V3.83089H12.5917ZM12.5663 3.52174L8.02399 0.956463L7.97481 1.04354L12.5172 3.60881L12.5663 3.52174ZM7.97481 0.956465L1.97541 4.34538L2.02459 4.43245L8.02399 1.04353L7.97481 0.956465ZM1.95 4.38892V4.72327H2.05V4.38892H1.95ZM1.97542 4.76681L7.97482 8.15341L8.02398 8.06633L2.02458 4.67973L1.97542 4.76681ZM8.02399 8.15341L13.4818 5.07086L13.4327 4.98379L7.97481 8.06633L8.02399 8.15341ZM13.4072 5.02732V6.3787H13.5072V5.02732H13.4072ZM13.4325 6.33523L8.82092 8.95653L8.87034 9.04347L13.482 6.42217L13.4325 6.33523ZM9.84206 8.95H8.84563V9.05H9.84206V8.95ZM9.90466 8.95428C9.88475 8.95258 9.86481 8.95118 9.84482 8.95008L9.8393 9.04992C9.8583 9.05097 9.87725 9.05231 9.89617 9.05392L9.90466 8.95428ZM7.17791 8.95653L2.27745 6.17097L2.22803 6.25791L7.12849 9.04347L7.17791 8.95653ZM2.22839 6.17077L1.97564 6.31174L2.02436 6.39907L2.2771 6.2581L2.22839 6.17077ZM1.95 6.3554V8.65853H2.05V6.3554H1.95ZM1.97547 8.7021L6.97547 11.5168L7.02453 11.4297L2.02453 8.61496L1.97547 8.7021ZM6.95 10.8771V11.4732H7.05V10.8771H6.95ZM7.02471 10.8336L2.5663 8.29938L2.51688 8.38631L6.97529 10.9206L7.02471 10.8336ZM2.59159 8.34289L2.59275 7.00667L2.49275 7.00658L2.49159 8.3428L2.59159 8.34289ZM2.51825 7.05021L6.9755 9.55582L7.0245 9.46865L2.56725 6.96304L2.51825 7.05021ZM6.95 9.03729V9.51223H7.05V9.03729H6.95ZM7.03663 8.95C6.98794 8.95 6.95 8.98994 6.95 9.03729H7.05C7.05 9.04346 7.04486 9.05 7.03663 9.05V8.95ZM7.1532 8.95H7.03663V9.05H7.1532V8.95Z"
          fill="#F26522"/>
    <path fill-rule="evenodd" clip-rule="evenodd"
          d="M8 16H15.6364V11.0909H11.8098L11.1071 10.3881C10.8482 10.1558 10.5177 10.0189 10.1703 10H8.02797C8.01252 10 8 10.0125 8 10.028V16Z"
          fill="#9AA7B0" fill-opacity="0.8"/>
</svg>
