<svg width="32" height="32" viewBox="0 0 32 32" fill="none" xmlns="http://www.w3.org/2000/svg">
<g clip-path="url(#clip0_4363_9199)">
<g filter="url(#filter0_d_4363_9199)">
<g clip-path="url(#clip1_4363_9199)">
<path d="M12.1818 2H2V19.8182H12.1818V2Z" fill="url(#paint0_linear_4363_9199)"/>
<path d="M30 19.8184H14.7273V30.0002H30V19.8184Z" fill="#FF8100"/>
<path d="M30 2H12.1821L2 19.8182V30H14.7273L29.9992 19.8072L30 2Z" fill="url(#paint1_linear_4363_9199)"/>
</g>
<path d="M25 7H7V25H25V7Z" fill="black"/>
<path d="M16 22H9V23H16V22Z" fill="white"/>
<path d="M8.81 14.7799H9.80506V10.2201H8.81V9H12.145V10.2201H11.1499V14.7799H12.145V16H8.81V14.7799Z" fill="white"/>
<path d="M12.7599 14.74H13.9199C14.0766 14.74 14.2132 14.7084 14.33 14.6449C14.4468 14.5817 14.5368 14.4917 14.6 14.375C14.6632 14.2582 14.6951 14.1216 14.6951 13.9649V9H16.0601V14.0648C16.0601 14.4481 15.9784 14.7864 15.815 15.0797C15.6516 15.3697 15.4199 15.5964 15.1199 15.7597C14.8231 15.9196 14.48 15.9997 14.09 15.9997H12.7602V14.7398L12.7599 14.74Z" fill="white"/>
</g>
</g>
<defs>
<filter id="filter0_d_4363_9199" x="0.4" y="1.1" width="31.2" height="31.2" filterUnits="userSpaceOnUse" color-interpolation-filters="sRGB">
<feFlood flood-opacity="0" result="BackgroundImageFix"/>
<feColorMatrix in="SourceAlpha" type="matrix" values="0 0 0 0 0 0 0 0 0 0 0 0 0 0 0 0 0 0 127 0" result="hardAlpha"/>
<feOffset dy="0.7"/>
<feGaussianBlur stdDeviation="0.8"/>
<feComposite in2="hardAlpha" operator="out"/>
<feColorMatrix type="matrix" values="0 0 0 0 0 0 0 0 0 0 0 0 0 0 0 0 0 0 0.35 0"/>
<feBlend mode="normal" in2="BackgroundImageFix" result="effect1_dropShadow_4363_9199"/>
<feBlend mode="normal" in="SourceGraphic" in2="effect1_dropShadow_4363_9199" result="shape"/>
</filter>
<linearGradient id="paint0_linear_4363_9199" x1="7.09091" y1="19.1006" x2="7.09091" y2="2.20975" gradientUnits="userSpaceOnUse">
<stop  offset="0" stop-color="#FE2857"/>
<stop offset="1" stop-color="#FC801D"/>
</linearGradient>
<linearGradient id="paint1_linear_4363_9199" x1="2.83287" y1="29.1615" x2="28.9637" y2="3.03065" gradientUnits="userSpaceOnUse">
<stop offset="0.19" stop-color="#FE2857"/>
<stop offset="0.83" stop-color="#007EFF"/>
</linearGradient>
<clipPath id="clip0_4363_9199">
<rect width="32" height="32" fill="white"/>
</clipPath>
<clipPath id="clip1_4363_9199">
<rect x="2" y="2" width="28" height="28" rx="6" fill="white"/>
</clipPath>
</defs>
</svg>
