<svg width="512" height="512" viewBox="0 0 512 512" fill="none" xmlns="http://www.w3.org/2000/svg">
<g filter="url(#filter0_d_4363_9197)">
<g clip-path="url(#clip0_4363_9197)">
<path d="M199.818 50H50V312.182H199.818V50Z" fill="url(#paint0_linear_4363_9197)"/>
<path d="M462 312.182H237.273V462H462V312.182Z" fill="#FF8100"/>
<path d="M462 50H199.822L50 312.182V462H237.273L461.989 312.021L462 50Z" fill="url(#paint1_linear_4363_9197)"/>
</g>
<path d="M388 124H124V388H388V124Z" fill="black"/>
<path d="M159.06 240.919H172.965V177.081H159.06V160H205.662V177.081H191.758V240.919H205.662V258H159.06V240.919Z" fill="white"/>
<path d="M214.87 240.36H231.08C233.27 240.36 235.179 239.918 236.811 239.029C238.443 238.144 239.7 236.884 240.584 235.249C241.467 233.614 241.912 231.702 241.912 229.508V160H260.986V230.907C260.986 236.273 259.844 241.009 257.561 245.115C255.278 249.176 252.04 252.349 247.848 254.636C243.701 256.875 238.907 257.996 233.457 257.996H214.874V240.357L214.87 240.36Z" fill="white"/>
<path d="M265 334.52H160V351.99H265V334.52Z" fill="white"/>
</g>
<defs>
<filter id="filter0_d_4363_9197" x="37" y="42" width="438" height="438" filterUnits="userSpaceOnUse" color-interpolation-filters="sRGB">
<feFlood flood-opacity="0" result="BackgroundImageFix"/>
<feColorMatrix in="SourceAlpha" type="matrix" values="0 0 0 0 0 0 0 0 0 0 0 0 0 0 0 0 0 0 127 0" result="hardAlpha"/>
<feOffset dy="5"/>
<feGaussianBlur stdDeviation="6.5"/>
<feComposite in2="hardAlpha" operator="out"/>
<feColorMatrix type="matrix" values="0 0 0 0 0 0 0 0 0 0 0 0 0 0 0 0 0 0 0.35 0"/>
<feBlend mode="normal" in2="BackgroundImageFix" result="effect1_dropShadow_4363_9197"/>
<feBlend mode="normal" in="SourceGraphic" in2="effect1_dropShadow_4363_9197" result="shape"/>
</filter>
<linearGradient id="paint0_linear_4363_9197" x1="124.909" y1="301.623" x2="124.909" y2="53.0863" gradientUnits="userSpaceOnUse">
<stop  offset="0" stop-color="#FE2857"/>
<stop offset="1" stop-color="#FC801D"/>
</linearGradient>
<linearGradient id="paint1_linear_4363_9197" x1="62.2551" y1="449.662" x2="446.752" y2="65.1653" gradientUnits="userSpaceOnUse">
<stop offset="0.19" stop-color="#FE2857"/>
<stop offset="0.83" stop-color="#007EFF"/>
</linearGradient>
<clipPath id="clip0_4363_9197">
<rect x="50" y="50" width="412" height="412" rx="90" fill="white"/>
</clipPath>
</defs>
</svg>
