<svg width="70" height="70" viewBox="0 0 70 70" fill="none" xmlns="http://www.w3.org/2000/svg">
<path d="M39.8 14.1001L36.2 7.6001L26.2 12.4001L13 13.6001L14.8 36.3001L33.6 33.1001L39.8 14.1001Z" fill="url(#paint0_linear)"/>
<path d="M20.6 19.9002L2.80005 15.2002L8.90005 52.1002L40.1 54.0002L20.6 19.9002Z" fill="url(#paint1_linear)"/>
<path d="M29.2 34.8L8.90002 52.1L40.1 54L29.2 34.8Z" fill="url(#paint2_linear)"/>
<path d="M40.1 53.7001L37.4 22.5001L45.6 15.0001L58.8 9.6001L67.2 30.5001L40.1 53.7001Z" fill="url(#paint3_linear)"/>
<path d="M40.1 53.7L37.4 22.5L49.9 26.9L67.2 30.5L40.1 53.7Z" fill="url(#paint4_linear)"/>
<path d="M55.1001 30.2001L50.9001 21.6001L18.1001 28.2001L21.4001 59.6001L43.1001 67.2001L67.2001 52.8001L55.1001 30.2001Z" fill="url(#paint5_linear)"/>
<path d="M55.1001 30.2001L51.0001 21.8L38.1001 31.7001L43.1001 67.2L67.2001 52.8L55.1001 30.2001Z" fill="url(#paint6_linear)"/>
<path d="M38.2001 31.7001V32.2001L41.1001 52.8L59.0001 37.5L55.1001 30.2001L51.0001 21.8L38.2001 31.7001Z" fill="url(#paint7_linear)"/>
<path d="M22.5 27.3001L40.1 54.0001L54.6 41.4001L44.5 22.9001L22.5 27.3001Z" fill="url(#paint8_linear)"/>
<path d="M38.1001 31.7002L18.1001 28.2002L21.4001 59.6002L43.1001 67.2002L38.1001 31.7002Z" fill="url(#paint9_linear)"/>
<path d="M41.1001 53.0002L38.1001 31.7002L18.1001 28.2002L19.3001 39.4002L40.1001 54.0002L41.1001 53.0002Z" fill="url(#paint10_linear)"/>
<path d="M41.1 53L38.7 35.8L32.5 40.5L40 53.9001L40.1 54L41.1 53Z" fill="url(#paint11_linear)"/>
<path d="M26.3001 29.7002L18.1001 28.2002L20.7001 52.8002L40.1001 54.0002L26.3001 29.7002Z" fill="url(#paint12_linear)"/>
<path d="M30.6001 53.4L40.1001 54L32.2001 40L30.6001 53.4Z" fill="url(#paint13_linear)"/>
<path d="M38.1001 31.7001L18.1001 28.2001L42.6001 6.6001L58.8001 9.6001L47.8001 20.7001L51.1001 21.8001L38.1001 31.7001Z" fill="url(#paint14_linear)"/>
<path d="M39.8001 14.1L37.9001 10.7L18.1001 28.2L38.1001 31.7L46.2001 25.5L39.8001 14.1Z" fill="url(#paint15_linear)"/>
<path d="M36.2001 7.60005L13.8 2.80005L2.80005 15.2L20.6 20L36.2001 7.60005Z" fill="url(#paint16_linear)"/>
<path d="M22.5 18.4L13.8 2.80005L2.80005 15.2L20.6 20L22.5 18.4Z" fill="url(#paint17_linear)"/>
<path d="M51 21.7001L50.9 21.6001L51 21.7001Z" fill="url(#paint18_linear)"/>
<path d="M30.5 53.4001L21.4 59.6001L43.1 67.2001L41.1 53.1001L40.1 54.0001L30.5 53.4001Z" fill="url(#paint19_linear)"/>
<path d="M67.2 52.7999L54.5 41.2999L47.8 20.7L51.1 21.7999L67.2 52.7999Z" fill="url(#paint20_linear)"/>
<path d="M48.8 23.5L51.1 21.7999L47.8 20.7L48.8 23.5Z" fill="url(#paint21_linear)"/>
<path d="M47.8001 29L38.7001 35.8L41.1001 53L54.6001 41.4L47.8001 29Z" fill="url(#paint22_linear)"/>
<path d="M55 15H15V55H55V15Z" fill="url(#paint23_linear)"/>
<g opacity="0.3">
<path opacity="0.3" d="M15 52.3333L40.0556 53.8333L20.6667 20L15 18.5V52.3333Z" fill="url(#paint24_linear)"/>
<path opacity="0.3" d="M40.8333 55H42L41.1666 18.1111L40.0555 15H27.0555L20.6666 20.0556L40.8333 55Z" fill="url(#paint25_linear)"/>
<path opacity="0.3" d="M55.0001 40.7778V15H53.5001L47.7778 20.8333L51.0001 21.8333L50.9445 21.8889L55.0001 30.2222V40.7778Z" fill="url(#paint26_linear)"/>
<path opacity="0.3" d="M55 30.2222L50.9444 21.8889L38.1111 31.7222L41.3889 55H55V30.2222Z" fill="url(#paint27_linear)"/>
<path opacity="0.3" d="M33.2222 15L18.1666 28.2778L38.1111 31.7222L51 21.8333L47.7777 20.8333L53.5 15H33.2222Z" fill="url(#paint28_linear)"/>
<path opacity="0.3" d="M20.6667 20.0556L27.0556 15H15V18.5556L20.6667 20.0556Z" fill="url(#paint29_linear)"/>
</g>
<path d="M35 47.3999H20V49.8999H35V47.3999Z" fill="white"/>
<path d="M35 47.3999H20V49.8999H35V47.3999Z" fill="white"/>
<path d="M20 20H26.1C29.7 20 31.8 22.1 31.8 25.2C31.8 28.7 29.1 30.5 25.7 30.5H23.3V35H20V20ZM25.9 27.6C27.5 27.6 28.5 26.6 28.5 25.3C28.5 23.8 27.5 23 25.8 23H23.3V27.6H25.9Z" fill="white"/>
<path d="M34.0557 32.8335L36.0001 30.5002C37.3334 31.6113 38.7779 32.3335 40.5001 32.3335C41.8334 32.3335 42.6668 31.778 42.6668 30.8891V30.8335C42.6668 30.0002 42.1668 29.5557 39.6112 28.9446C36.5557 28.1669 34.6112 27.3335 34.6112 24.3335V24.278C34.6112 21.5557 36.7779 19.7224 39.889 19.7224C42.0557 19.7224 43.9446 20.3891 45.5001 21.6113L43.7779 24.1669C42.4446 23.2224 41.1112 22.6669 39.889 22.6669C38.6112 22.6669 37.9446 23.2224 37.9446 24.0002V24.0557C37.9446 25.0557 38.6112 25.3891 41.1668 26.0557C44.2223 26.8335 45.9446 27.9446 45.9446 30.5557V30.6113C45.9446 33.6113 43.6668 35.278 40.4446 35.278C38.1668 35.278 35.889 34.4446 34.0557 32.8335Z" fill="white"/>
<defs>
<linearGradient id="paint0_linear" x1="14.6737" y1="39.9333" x2="32.8583" y2="5.0105" gradientUnits="userSpaceOnUse">
<stop stop-color="#AF1DF5"/>
<stop offset="0.2116" stop-color="#BC20E4"/>
<stop offset="0.6282" stop-color="#DD29B8"/>
<stop offset="1" stop-color="#FF318C"/>
</linearGradient>
<linearGradient id="paint1_linear" x1="9.36675" y1="50.5499" x2="31.4089" y2="21.4345" gradientUnits="userSpaceOnUse">
<stop offset="0.1207" stop-color="#6B57FF"/>
<stop offset="0.4014" stop-color="#B74AF7"/>
<stop offset="0.7088" stop-color="#FF318C"/>
<stop offset="0.8648" stop-color="#FF7FB8"/>
</linearGradient>
<linearGradient id="paint2_linear" x1="12.5763" y1="59.68" x2="29.4907" y2="47.9701" gradientUnits="userSpaceOnUse">
<stop offset="0.0892486" stop-color="#6B57FF"/>
<stop offset="0.4021" stop-color="#8253FD"/>
<stop offset="0.4579" stop-color="#8A52FC"/>
<stop offset="0.7051" stop-color="#AB4CF8"/>
<stop offset="0.8412" stop-color="#B74AF7"/>
</linearGradient>
<linearGradient id="paint3_linear" x1="56.7769" y1="49.0747" x2="42.6503" y2="15.5476" gradientUnits="userSpaceOnUse">
<stop stop-color="#4335BE"/>
<stop offset="0.1308" stop-color="#5638C7"/>
<stop offset="0.5322" stop-color="#8A42E1"/>
<stop offset="0.8343" stop-color="#AB48F1"/>
<stop offset="1" stop-color="#B74AF7"/>
</linearGradient>
<linearGradient id="paint4_linear" x1="56.5148" y1="48.9207" x2="43.949" y2="19.0979" gradientUnits="userSpaceOnUse">
<stop stop-color="#4335BE"/>
<stop offset="0.2419" stop-color="#663BCF"/>
<stop offset="0.7408" stop-color="#B74AF7"/>
</linearGradient>
<linearGradient id="paint5_linear" x1="49.3158" y1="59.8648" x2="29.0099" y2="30.1014" gradientUnits="userSpaceOnUse">
<stop offset="0.016129" stop-color="#6B57FF"/>
<stop offset="0.7829" stop-color="#B74AF7"/>
</linearGradient>
<linearGradient id="paint6_linear" x1="55.6092" y1="56.9912" x2="40.9126" y2="35.4497" gradientUnits="userSpaceOnUse">
<stop offset="0.016129" stop-color="#6B57FF"/>
<stop offset="0.7829" stop-color="#B74AF7"/>
</linearGradient>
<linearGradient id="paint7_linear" x1="77.194" y1="51.8796" x2="31.3091" y2="30.4034" gradientUnits="userSpaceOnUse">
<stop stop-color="#4335BE"/>
<stop offset="0.2419" stop-color="#663BCF"/>
<stop offset="0.7408" stop-color="#B74AF7"/>
</linearGradient>
<linearGradient id="paint8_linear" x1="51.6124" y1="59.338" x2="31.6887" y2="21.3018" gradientUnits="userSpaceOnUse">
<stop offset="0.016129" stop-color="#6B57FF"/>
<stop offset="0.7829" stop-color="#B74AF7"/>
</linearGradient>
<linearGradient id="paint9_linear" x1="41.7427" y1="63.1971" x2="22.1405" y2="34.465" gradientUnits="userSpaceOnUse">
<stop offset="0.016129" stop-color="#6B57FF"/>
<stop offset="0.6909" stop-color="#B74AF7"/>
</linearGradient>
<linearGradient id="paint10_linear" x1="25.5517" y1="48.43" x2="35.2712" y2="29.764" gradientUnits="userSpaceOnUse">
<stop offset="0.016129" stop-color="#6B57FF"/>
<stop offset="0.6969" stop-color="#A329F5"/>
</linearGradient>
<linearGradient id="paint11_linear" x1="30.655" y1="28.4042" x2="41.199" y2="49.1041" gradientUnits="userSpaceOnUse">
<stop offset="0.016129" stop-color="#6B57FF"/>
<stop offset="0.6969" stop-color="#A329F5"/>
</linearGradient>
<linearGradient id="paint12_linear" x1="18.1467" y1="60.5506" x2="35.0936" y2="30.3932" gradientUnits="userSpaceOnUse">
<stop offset="0.0242547" stop-color="#6B57FF"/>
<stop offset="0.263" stop-color="#6B57FF"/>
<stop offset="0.706" stop-color="#B74AF7"/>
<stop offset="0.7659" stop-color="#BC48F0"/>
<stop offset="0.8555" stop-color="#CA44DB"/>
<stop offset="0.9632" stop-color="#E03CBA"/>
<stop offset="1" stop-color="#E939AD"/>
</linearGradient>
<linearGradient id="paint13_linear" x1="29.935" y1="58.011" x2="38.1708" y2="43.3551" gradientUnits="userSpaceOnUse">
<stop offset="0.0455723" stop-color="#6B57FF"/>
<stop offset="0.295" stop-color="#8A52FC"/>
<stop offset="0.5991" stop-color="#AB4CF8"/>
<stop offset="0.7667" stop-color="#B74AF7"/>
</linearGradient>
<linearGradient id="paint14_linear" x1="43.1613" y1="43.8889" x2="36.4338" y2="8.3108" gradientUnits="userSpaceOnUse">
<stop offset="0.016129" stop-color="#6B57FF"/>
<stop offset="0.5665" stop-color="#B74AF7"/>
<stop offset="0.9064" stop-color="#C276FF"/>
</linearGradient>
<linearGradient id="paint15_linear" x1="27.4966" y1="35.7919" x2="40.2428" y2="11.3135" gradientUnits="userSpaceOnUse">
<stop offset="0.016129" stop-color="#6B57FF"/>
<stop offset="0.5974" stop-color="#B74AF7"/>
</linearGradient>
<linearGradient id="paint16_linear" x1="10.1271" y1="28.4422" x2="22.2066" y2="6.52025" gradientUnits="userSpaceOnUse">
<stop offset="0.0874352" stop-color="#AF1DF5"/>
<stop offset="0.2329" stop-color="#BC20E4"/>
<stop offset="0.5194" stop-color="#DD29B8"/>
<stop offset="0.7751" stop-color="#FF318C"/>
<stop offset="0.997" stop-color="#FF64B9"/>
</linearGradient>
<linearGradient id="paint17_linear" x1="8.26225" y1="24.7616" x2="15.7107" y2="11.2441" gradientUnits="userSpaceOnUse">
<stop offset="0.00935173" stop-color="#BC20E4"/>
<stop offset="0.4441" stop-color="#D827C0"/>
<stop offset="1" stop-color="#FF318C"/>
</linearGradient>
<linearGradient id="paint18_linear" x1="50.9527" y1="21.6579" x2="50.9386" y2="21.6372" gradientUnits="userSpaceOnUse">
<stop offset="0.016129" stop-color="#6B57FF"/>
<stop offset="0.7829" stop-color="#B74AF7"/>
</linearGradient>
<linearGradient id="paint19_linear" x1="25.2683" y1="63.9888" x2="42.9252" y2="58.3554" gradientUnits="userSpaceOnUse">
<stop offset="0.016129" stop-color="#6B57FF"/>
<stop offset="0.6909" stop-color="#B74AF7"/>
<stop offset="0.9772" stop-color="#BD6CF7"/>
</linearGradient>
<linearGradient id="paint20_linear" x1="60.4019" y1="35.7053" x2="53.5451" y2="38.228" gradientUnits="userSpaceOnUse">
<stop offset="0.0753552" stop-color="#6B57FF"/>
<stop offset="0.7396" stop-color="#B74AF7"/>
</linearGradient>
<linearGradient id="paint21_linear" x1="48.7187" y1="26.5189" x2="49.5596" y2="20.5031" gradientUnits="userSpaceOnUse">
<stop stop-color="#B74AF7"/>
<stop offset="1" stop-color="#C276FF"/>
</linearGradient>
<linearGradient id="paint22_linear" x1="51.489" y1="54.1728" x2="40.053" y2="32.3406" gradientUnits="userSpaceOnUse">
<stop offset="0.016129" stop-color="#6B57FF"/>
<stop offset="0.7829" stop-color="#B74AF7"/>
</linearGradient>
<linearGradient id="paint23_linear" x1="16.0584" y1="14.1579" x2="50.3733" y2="51.9158" gradientUnits="userSpaceOnUse">
<stop stop-color="#562274"/>
<stop offset="0.59375" stop-color="#020202"/>
</linearGradient>
<linearGradient id="paint24_linear" x1="28.0336" y1="59.2254" x2="24.3882" y2="15.5788" gradientUnits="userSpaceOnUse">
<stop offset="0.1391" stop-color="#2C083E"/>
<stop offset="0.1711" stop-color="#0E0A25"/>
<stop offset="0.5145" stop-color="#8D1BC7"/>
<stop offset="0.8648" stop-color="#FF45ED"/>
</linearGradient>
<linearGradient id="paint25_linear" x1="38.2585" y1="51.0399" x2="30.2882" y2="16.3198" gradientUnits="userSpaceOnUse">
<stop offset="0.0862819" stop-color="#3B0B6E"/>
<stop offset="0.2814" stop-color="#601274"/>
<stop offset="0.7133" stop-color="#BE2482"/>
<stop offset="1" stop-color="#FF318C"/>
</linearGradient>
<linearGradient id="paint26_linear" x1="50.5751" y1="15.4948" x2="54.2614" y2="26.5537" gradientUnits="userSpaceOnUse">
<stop offset="0.1893" stop-color="#4335BE"/>
<stop offset="0.5166" stop-color="#2B227A"/>
<stop offset="0.8443" stop-color="#15113C"/>
<stop offset="1" stop-color="#0C0A23"/>
</linearGradient>
<linearGradient id="paint27_linear" x1="55.2006" y1="51.6861" x2="42.651" y2="33.2916" gradientUnits="userSpaceOnUse">
<stop stop-color="#15132A"/>
<stop offset="0.4052" stop-color="#331444"/>
<stop offset="0.9653" stop-color="#9F40D7"/>
</linearGradient>
<linearGradient id="paint28_linear" x1="39.5131" y1="41.0312" x2="34.6139" y2="15.1219" gradientUnits="userSpaceOnUse">
<stop offset="0.016129" stop-color="#6B57FF"/>
<stop offset="0.5665" stop-color="#B74AF7"/>
<stop offset="0.9064" stop-color="#C276FF"/>
</linearGradient>
<linearGradient id="paint29_linear" x1="16.6148" y1="23.0333" x2="21.3535" y2="14.4333" gradientUnits="userSpaceOnUse">
<stop offset="0.0874352" stop-color="#FF45ED"/>
<stop offset="0.2127" stop-color="#FF42DC"/>
<stop offset="0.4594" stop-color="#FF38B0"/>
<stop offset="0.6408" stop-color="#FF318C"/>
</linearGradient>
</defs>
</svg>
