<svg width="16" height="16" viewBox="0 0 16 16" fill="none" xmlns="http://www.w3.org/2000/svg">
<g clip-path="url(#clip0_4372_12360)">
<path d="M16 0H0V16H16V0Z" fill="#6B57FF"/>
<path d="M15 1H1V15H15V1Z" fill="black"/>
<path d="M8 12H3V13H8V12Z" fill="white"/>
<path d="M2.90234 2.86666H5.14614C5.51194 2.86666 5.83434 2.93386 6.11314 3.06826C6.39194 3.20266 6.60594 3.39166 6.75534 3.63566C6.90714 3.87966 6.98314 4.16206 6.98314 4.48306C6.98314 4.80406 6.90594 5.09526 6.75174 5.34166C6.59994 5.58806 6.38214 5.77986 6.09834 5.91666C5.81714 6.05106 5.48974 6.11826 5.11654 6.11826H3.92194V8.09326H2.90274V2.86666H2.90234ZM5.07874 5.27106C5.25054 5.27106 5.39974 5.23986 5.52674 5.17766C5.65614 5.11286 5.75574 5.02226 5.82534 4.90506C5.89494 4.78566 5.92994 4.64746 5.92994 4.49066C5.92994 4.33386 5.89514 4.19426 5.82534 4.08006C5.75554 3.96286 5.65614 3.87326 5.52674 3.81126C5.39974 3.74646 5.25054 3.71426 5.07874 3.71426H3.92134V5.27106H5.07874ZM9.33334 8.18306C8.94994 8.18306 8.60534 8.11446 8.29914 7.97766C7.99294 7.84086 7.75274 7.64906 7.57854 7.40266C7.40434 7.15386 7.31474 6.87026 7.30974 6.55146H8.33274C8.33274 6.70086 8.37634 6.83386 8.46334 6.95086C8.55294 7.06526 8.67354 7.15486 8.82554 7.21966C8.97974 7.28446 9.15414 7.31666 9.34815 7.31666C9.53234 7.31666 9.69654 7.28826 9.84094 7.23086C9.98774 7.17106 10.1023 7.08906 10.1843 6.98446C10.2665 6.87986 10.3075 6.76046 10.3075 6.62606C10.3075 6.45946 10.2565 6.31986 10.1545 6.20786C10.0549 6.09346 9.91674 6.01886 9.74014 5.98386L8.66874 5.77846C8.41734 5.73126 8.19834 5.64166 8.01174 5.50966C7.82754 5.37526 7.68574 5.20866 7.58614 5.00946C7.48654 4.80786 7.43674 4.58386 7.43674 4.33746C7.43674 4.03366 7.51754 3.76386 7.67934 3.52726C7.84354 3.29066 8.06874 3.10686 8.35514 2.97466C8.64374 2.84266 8.96854 2.77686 9.32954 2.77686C9.69054 2.77686 10.0189 2.84166 10.3077 2.97106C10.5989 3.10026 10.8267 3.28086 10.9909 3.51246C11.1577 3.74166 11.2423 4.00526 11.2447 4.30386H10.2255C10.2255 4.17466 10.1869 4.05986 10.1097 3.96046C10.0351 3.86106 9.93054 3.78366 9.79614 3.72906C9.66174 3.67166 9.50994 3.64326 9.34074 3.64326C9.17155 3.64326 9.02334 3.67086 8.88894 3.72546C8.75454 3.78006 8.64994 3.85606 8.57534 3.95326C8.50074 4.04806 8.46334 4.15726 8.46334 4.28186C8.46334 4.42606 8.50934 4.54826 8.60154 4.64766C8.69354 4.74466 8.82174 4.80966 8.98614 4.84186L10.0239 5.03606C10.2853 5.08326 10.5155 5.17926 10.7145 5.32346C10.9161 5.46766 11.0717 5.64826 11.1811 5.86486C11.2905 6.07906 11.3453 6.31286 11.3453 6.56666C11.3453 6.88026 11.2595 7.16026 11.0877 7.40666C10.9159 7.65066 10.6771 7.84106 10.3709 7.97786C10.0647 8.11466 9.71875 8.18326 9.33315 8.18326L9.33334 8.18306Z" fill="white"/>
</g>
<defs>
<clipPath id="clip0_4372_12360">
<rect width="16" height="16" fill="white"/>
</clipPath>
</defs>
</svg>
