<svg width="17" height="16" viewBox="0 0 17 16" fill="none" xmlns="http://www.w3.org/2000/svg">
<path d="M13 1H8V7H10.7258C10.9396 6.94767 11.1631 6.91992 11.3931 6.91992C11.623 6.91992 11.8465 6.94767 12.0603 7H14V2C14 1.44772 13.5523 1 13 1Z" fill="#43454A"/>
<path d="M7 9.34157C6.57597 9.4224 6.18987 9.68472 5.96565 10.0925C5.78272 10.4252 5.73927 10.797 5.81576 11.1406V14H2C1.44772 14 1 13.5523 1 13V8H7V9.34157Z" fill="#43454A"/>
<path d="M1 2C1 1.44772 1.44772 1 2 1H7V7H1V2Z" fill="#45322B"/>
<path fill-rule="evenodd" clip-rule="evenodd" d="M6 2H2V6H6V2ZM2 1C1.44772 1 1 1.44772 1 2V7H7V1H2Z" fill="#C77D55"/>
<path d="M9.03271 12.2534C9.03271 10.9505 10.0889 9.89429 11.3919 9.89429C12.6948 9.89429 13.751 10.9505 13.751 12.2534V13.1381C13.751 14.441 12.6948 15.4973 11.3919 15.4973C10.0889 15.4973 9.03271 14.441 9.03271 13.1381V12.2534Z" fill="#253627"/>
<path fill-rule="evenodd" clip-rule="evenodd" d="M15.2327 14.6446L13.5006 13.6446L14.0006 12.7786L15.7327 13.7786C15.9718 13.9166 16.0537 14.2224 15.9157 14.4616C15.7776 14.7007 15.4718 14.7827 15.2327 14.6446Z" fill="#57965C"/>
<path fill-rule="evenodd" clip-rule="evenodd" d="M15.7443 11.2524L13.9918 12.217L13.5096 11.341L15.2621 10.3764C15.504 10.2432 15.808 10.3314 15.9412 10.5733C16.0743 10.8152 15.9862 11.1193 15.7443 11.2524Z" fill="#57965C"/>
<path fill-rule="evenodd" clip-rule="evenodd" d="M7.55078 14.6436L9.28284 13.6436L8.78284 12.7776L7.05078 13.7776C6.81164 13.9157 6.7297 14.2215 6.86777 14.4606C7.00584 14.6998 7.31164 14.7817 7.55078 14.6436Z" fill="#57965C"/>
<path fill-rule="evenodd" clip-rule="evenodd" d="M7.03898 11.2534L8.79192 12.2172L9.27372 11.3409L7.52078 10.3771C7.2788 10.244 6.97479 10.3324 6.84174 10.5743C6.70869 10.8163 6.797 11.1203 7.03898 11.2534Z" fill="#57965C"/>
<path fill-rule="evenodd" clip-rule="evenodd" d="M13.1665 10.0115C13.1822 9.91581 13.1904 9.81759 13.1904 9.71745C13.1904 8.7247 12.3856 7.91992 11.3929 7.91992C10.4001 7.91992 9.59534 8.7247 9.59534 9.71745C9.59534 9.81716 9.60345 9.91496 9.61906 10.0103C8.95737 10.5339 8.53284 11.3441 8.53284 12.2535V13.1382C8.53284 14.7172 9.81292 15.9973 11.392 15.9973C12.971 15.9973 14.2511 14.7172 14.2511 13.1382V12.2535C14.2511 11.3448 13.8273 10.5352 13.1665 10.0115ZM10.6259 9.49815C10.8697 9.4305 11.1266 9.39435 11.392 9.39435C11.658 9.39435 11.9156 9.43069 12.16 9.49868C12.0649 9.16458 11.7575 8.91992 11.3929 8.91992C11.0285 8.91992 10.7211 9.16432 10.6259 9.49815ZM9.53284 12.2535C9.53284 11.2267 10.3652 10.3943 11.392 10.3943C12.4188 10.3943 13.2511 11.2267 13.2511 12.2535V13.1382C13.2511 14.165 12.4188 14.9973 11.392 14.9973C10.3652 14.9973 9.53284 14.165 9.53284 13.1382V12.2535Z" fill="#57965C"/>
<path fill-rule="evenodd" clip-rule="evenodd" d="M8 7V1H13C13.5523 1 14 1.44772 14 2V7C11.9989 7 10.0022 7 8 7ZM9 2H13V6H9V2Z" fill="#CED0D6"/>
<path d="M7 9.34157V8H1V13C1 13.5523 1.44772 14 2 14H5.81576V13H2L2 9H6V10.0332C6.22806 9.65928 6.59689 9.41841 7 9.34157Z" fill="#CED0D6"/>
</svg>
