<svg width="256" height="256" viewBox="0 0 256 256" fill="none" xmlns="http://www.w3.org/2000/svg">
<path d="M213 0L139.6 26.2L81.9999 0L49.3999 78.4L50.5999 189.2L228.4 190.8L256 50L213 0Z" fill="url(#paint0_linear)"/>
<path d="M48 166.2L238 58L213 0L139.6 26.2L82 0L48 75.8V166.2Z" fill="url(#paint1_linear)"/>
<path d="M48 166.2L238 58L213 0L139.6 26.2L48 166.2Z" fill="url(#paint2_linear)"/>
<path d="M255 49.8L213 0L139.6 26.2L255 49.8Z" fill="url(#paint3_linear)"/>
<path d="M238 58L228.4 190.8L256 50L238 58Z" fill="url(#paint4_linear)"/>
<path d="M213 0L238 58L256 50L213 0Z" fill="url(#paint5_linear)"/>
<path d="M194.6 82.8L93.7998 22.6L204.6 161.2L194.6 82.8Z" fill="url(#paint6_linear)"/>
<path d="M202.2 236.6L187.4 208L204.6 161.2L93.8 22.4L0 45.4V179.8L54 256L202.2 236.6Z" fill="url(#paint7_linear)"/>
<path d="M75.6 189.6L0 45.4V179.8L54 256L75.6 189.6Z" fill="url(#paint8_linear)"/>
<path d="M75.6 189.6L87.4 157.2L0 179.8L54 256L75.6 189.6Z" fill="url(#paint9_linear)"/>
<path d="M75.6 189.6L0 45.4V179.8L54 256L75.6 189.6Z" fill="url(#paint10_linear)"/>
<path d="M75.6 190L54 256L202.2 236.6L75.6 190Z" fill="url(#paint11_linear)"/>
<path d="M75.6001 190L187.4 208L202.2 236.6L75.6001 190Z" fill="url(#paint12_linear)"/>
<path d="M54 256L187.4 208L202.2 236.6L54 256Z" fill="url(#paint13_linear)"/>
<path d="M202.2 236.6L187.4 208L155.6 219.4L202.2 236.6Z" fill="url(#paint14_linear)"/>
<path d="M93.7998 22.4L37.7998 117.6L75.5998 189.6L193.8 190.6L204.6 161.2L93.7998 22.4Z" fill="url(#paint15_linear)"/>
<path d="M75.6001 190L187.4 208L204.6 161.2L75.6001 190Z" fill="url(#paint16_linear)"/>
<path d="M0 45.4V179.6V179.8L0.6 180.6H0.8L38 117.8L0 45.4Z" fill="url(#paint17_linear)"/>
<path d="M93.8 22.4L0 45.4L37.8 117.6L93.8 22.4Z" fill="url(#paint18_linear)"/>
<path d="M69.4 28.6L33 108.2L37.8 117.6L93.8 22.4L69.4 28.6Z" fill="url(#paint19_linear)"/>
<path d="M47.7998 101.2V136.2L59.7998 159.4L157.8 102.6L93.7998 22.4L47.7998 101.2Z" fill="url(#paint20_linear)"/>
<path d="M208 48H48V208H208V48Z" fill="url(#paint21_linear)"/>
<g opacity="0.3">
<path opacity="0.3" d="M208 48H62L48 78.3V208H208V48Z" fill="url(#paint22_linear)"/>
<path opacity="0.3" d="M48 208H187.4L204.7 161.2L114.2 48H48V208Z" fill="url(#paint23_linear)"/>
<path opacity="0.3" d="M48 75.8V166.2L208 75.1V48H60.4L48 75.8Z" fill="url(#paint24_linear)"/>
<path opacity="0.3" d="M208 48H62L48 78.3V208H208V48Z" fill="url(#paint25_linear)"/>
<path opacity="0.3" d="M186.8 208L167 171.2L76.4999 188.2L69.8999 208H186.8Z" fill="url(#paint26_linear)"/>
<path opacity="0.3" d="M204.7 161.2L194.6 82.8L136.4 48H114.1L204.7 161.2Z" fill="url(#paint27_linear)"/>
<path opacity="0.3" d="M78.7 48H48V100.4L78.7 48Z" fill="url(#paint28_linear)"/>
<path opacity="0.3" d="M48 75.2V100.4L51 95.2L78.7 48H60.4L48 75.2Z" fill="url(#paint29_linear)"/>
</g>
<path d="M128 177.8H68V187.8H128V177.8Z" fill="white"/>
<path d="M127.3 68H141.6L157.4 93.4L173.2 68H187.5V128.2H174.3V88.9L157.4 114.6H157.1L140.3 89.2V128.2H127.3V68Z" fill="white"/>
<path d="M68 68H95.5C103.1 68 108.9 70 113 74.1C116.4 77.5 118.1 82.1 118.1 87.8V88C118.1 92.9 116.9 96.8 114.5 99.9C112.1 103 109 105.2 105.2 106.6L120 128.1H104.5L92.1 109.6H81.2L81.3 128.1H68V68ZM94.6 97.2C97.9 97.2 100.4 96.4 102.1 94.9C103.8 93.4 104.7 91.3 104.7 88.7V88.5C104.7 85.6 103.8 83.5 102 82.1C100.2 80.7 97.6 80 94.4 80H81.3V97.2H94.6V97.2Z" fill="white"/>
<defs>
<linearGradient id="paint0_linear" x1="164.122" y1="148.068" x2="131.773" y2="63.1532" gradientUnits="userSpaceOnUse">
<stop stop-color="#FE2857"/>
<stop offset="0.0562257" stop-color="#FE3052"/>
<stop offset="0.3252" stop-color="#FD533B"/>
<stop offset="0.5796" stop-color="#FC6C2A"/>
<stop offset="0.8114" stop-color="#FC7B20"/>
<stop offset="1" stop-color="#FC801D"/>
</linearGradient>
<linearGradient id="paint1_linear" x1="142.917" y1="109.206" x2="141.178" y2="12.5194" gradientUnits="userSpaceOnUse">
<stop offset="0.3737" stop-color="#FEB51A"/>
<stop offset="0.4306" stop-color="#FEAD1A"/>
<stop offset="0.6448" stop-color="#FD941C"/>
<stop offset="0.8406" stop-color="#FC851D"/>
<stop offset="1" stop-color="#FC801D"/>
</linearGradient>
<linearGradient id="paint2_linear" x1="217.068" y1="164.143" x2="96.7254" y2="51.5142" gradientUnits="userSpaceOnUse">
<stop offset="0.3737" stop-color="#FEB51A"/>
<stop offset="0.417" stop-color="#FEAD1A"/>
<stop offset="0.5802" stop-color="#FD941C"/>
<stop offset="0.7294" stop-color="#FC851D"/>
<stop offset="0.8508" stop-color="#FC801D"/>
<stop offset="0.9836" stop-color="#F26522"/>
</linearGradient>
<linearGradient id="paint3_linear" x1="177.775" y1="0.668399" x2="198.961" y2="41.149" gradientUnits="userSpaceOnUse">
<stop offset="0.0238963" stop-color="#FDB60D"/>
<stop offset="1" stop-color="#FF9600" stop-opacity="0"/>
</linearGradient>
<linearGradient id="paint4_linear" x1="247.134" y1="187.233" x2="237.363" y2="55.0614" gradientUnits="userSpaceOnUse">
<stop offset="0.0133474" stop-color="#EE2A7B"/>
<stop offset="0.7157" stop-color="#FE2857"/>
<stop offset="0.9859" stop-color="#FC801D"/>
</linearGradient>
<linearGradient id="paint5_linear" x1="277.307" y1="93.9256" x2="210.45" y2="5.983" gradientUnits="userSpaceOnUse">
<stop stop-color="#FE2857"/>
<stop offset="0.1736" stop-color="#FE2C54"/>
<stop offset="0.1983" stop-color="#FE3051"/>
<stop offset="0.4268" stop-color="#FD533B"/>
<stop offset="0.6429" stop-color="#FC6C2A"/>
<stop offset="0.8398" stop-color="#FC7B20"/>
<stop offset="1" stop-color="#FC801D"/>
</linearGradient>
<linearGradient id="paint6_linear" x1="107.465" y1="17.1372" x2="208.779" y2="132.337" gradientUnits="userSpaceOnUse">
<stop stop-color="#6B57FF"/>
<stop offset="1" stop-color="#FE2857"/>
</linearGradient>
<linearGradient id="paint7_linear" x1="-1.1252" y1="42.7682" x2="163.424" y2="251.942" gradientUnits="userSpaceOnUse">
<stop offset="0.0417113" stop-color="#7D11EF"/>
<stop offset="0.1162" stop-color="#A019CB"/>
<stop offset="0.2019" stop-color="#C220A8"/>
<stop offset="0.283" stop-color="#DA268F"/>
<stop offset="0.3569" stop-color="#E92980"/>
<stop offset="0.417" stop-color="#EE2A7B"/>
<stop offset="1" stop-color="#F26522"/>
</linearGradient>
<linearGradient id="paint8_linear" x1="-35.73" y1="70.948" x2="83.1554" y2="222.074" gradientUnits="userSpaceOnUse">
<stop offset="0.00149909" stop-color="#6B57FF"/>
<stop offset="0.2483" stop-color="#FE2857"/>
<stop offset="0.6853" stop-color="#FE2857"/>
</linearGradient>
<linearGradient id="paint9_linear" x1="44.744" y1="127.743" x2="42.0742" y2="238.543" gradientUnits="userSpaceOnUse">
<stop offset="0.00149909" stop-color="#FDB60D"/>
<stop offset="0.725" stop-color="#FE2857" stop-opacity="0"/>
</linearGradient>
<linearGradient id="paint10_linear" x1="65.3196" y1="131.691" x2="27.8654" y2="150.229" gradientUnits="userSpaceOnUse">
<stop offset="0.0238963" stop-color="#FF7100"/>
<stop offset="1" stop-color="#FF9600" stop-opacity="0"/>
</linearGradient>
<linearGradient id="paint11_linear" x1="97.3464" y1="151.477" x2="135.462" y2="269" gradientUnits="userSpaceOnUse">
<stop offset="0.3361" stop-color="#FE2857"/>
<stop offset="0.3527" stop-color="#FE3052"/>
<stop offset="0.4321" stop-color="#FD533B"/>
<stop offset="0.5072" stop-color="#FC6C2A"/>
<stop offset="0.5757" stop-color="#FC7B20"/>
<stop offset="0.6313" stop-color="#FC801D"/>
<stop offset="0.9964" stop-color="#FFDE17"/>
</linearGradient>
<linearGradient id="paint12_linear" x1="112.49" y1="131.747" x2="158.017" y2="272.121" gradientUnits="userSpaceOnUse">
<stop offset="0.2209" stop-color="#EE2A7B"/>
<stop offset="0.6985" stop-color="#F7941D"/>
</linearGradient>
<linearGradient id="paint13_linear" x1="117.32" y1="213.062" x2="134.676" y2="266.576" gradientUnits="userSpaceOnUse">
<stop offset="0.092793" stop-color="#F15A29"/>
<stop offset="0.3888" stop-color="#FC801D"/>
<stop offset="1" stop-color="#FEC519"/>
</linearGradient>
<linearGradient id="paint14_linear" x1="108.384" y1="239.704" x2="208.841" y2="219.476" gradientUnits="userSpaceOnUse">
<stop offset="0.092793" stop-color="#F15A29"/>
<stop offset="0.3888" stop-color="#FC801D"/>
<stop offset="0.8214" stop-color="#FEC519"/>
<stop offset="0.9894" stop-color="#FCF84A"/>
</linearGradient>
<linearGradient id="paint15_linear" x1="74.2834" y1="224.965" x2="165.982" y2="68.5374" gradientUnits="userSpaceOnUse">
<stop offset="0.0417113" stop-color="#7D11EF"/>
<stop offset="0.1162" stop-color="#A019CB"/>
<stop offset="0.2019" stop-color="#C220A8"/>
<stop offset="0.283" stop-color="#DA268F"/>
<stop offset="0.3569" stop-color="#E92980"/>
<stop offset="0.417" stop-color="#EE2A7B"/>
</linearGradient>
<linearGradient id="paint16_linear" x1="129.848" y1="143.797" x2="158.019" y2="230.658" gradientUnits="userSpaceOnUse">
<stop stop-color="#F7941D" stop-opacity="0"/>
<stop offset="0.5473" stop-color="#FB851D" stop-opacity="0.5473"/>
<stop offset="1" stop-color="#FC801D"/>
</linearGradient>
<linearGradient id="paint17_linear" x1="-33.0924" y1="52.0966" x2="31.42" y2="169.742" gradientUnits="userSpaceOnUse">
<stop offset="0.1915" stop-color="#7D11EF"/>
<stop offset="0.2818" stop-color="#A019CB"/>
<stop offset="0.3858" stop-color="#C220A8"/>
<stop offset="0.4842" stop-color="#DA268F"/>
<stop offset="0.5738" stop-color="#E92980"/>
<stop offset="0.6467" stop-color="#EE2A7B"/>
</linearGradient>
<linearGradient id="paint18_linear" x1="36.8808" y1="17.3024" x2="81.1194" y2="97.976" gradientUnits="userSpaceOnUse">
<stop offset="0.1915" stop-color="#7D11EF"/>
<stop offset="0.2818" stop-color="#A019CB"/>
<stop offset="0.3858" stop-color="#C220A8"/>
<stop offset="0.4842" stop-color="#DA268F"/>
<stop offset="0.5738" stop-color="#E92980"/>
<stop offset="0.6467" stop-color="#EE2A7B"/>
<stop offset="1" stop-color="#F26522"/>
</linearGradient>
<linearGradient id="paint19_linear" x1="96.1118" y1="-26.8232" x2="38.4044" y2="135.102" gradientUnits="userSpaceOnUse">
<stop offset="0.1915" stop-color="#7D11EF"/>
<stop offset="0.2818" stop-color="#A019CB"/>
<stop offset="0.3858" stop-color="#C220A8"/>
<stop offset="0.4842" stop-color="#DA268F"/>
<stop offset="0.5738" stop-color="#E92980"/>
<stop offset="0.6467" stop-color="#EE2A7B"/>
<stop offset="1" stop-color="#F26522"/>
</linearGradient>
<linearGradient id="paint20_linear" x1="155.062" y1="148" x2="33.6726" y2="59.4356" gradientUnits="userSpaceOnUse">
<stop offset="0.0417113" stop-color="#FFDE17"/>
<stop offset="0.0429608" stop-color="#FFDD18"/>
<stop offset="0.1145" stop-color="#FAA736"/>
<stop offset="0.1843" stop-color="#F67A4E"/>
<stop offset="0.2509" stop-color="#F25762"/>
<stop offset="0.3136" stop-color="#F03E70"/>
<stop offset="0.3706" stop-color="#EE2F78"/>
<stop offset="0.417" stop-color="#EE2A7B"/>
</linearGradient>
<linearGradient id="paint21_linear" x1="23.6438" y1="46.6328" x2="206.624" y2="189.303" gradientUnits="userSpaceOnUse">
<stop offset="0.0108952" stop-color="#7C0F13"/>
<stop offset="0.0756282" stop-color="#6C0D11"/>
<stop offset="0.2517" stop-color="#45080B"/>
<stop offset="0.4263" stop-color="#270506"/>
<stop offset="0.5969" stop-color="#110203"/>
<stop offset="0.7616" stop-color="#040101"/>
<stop offset="0.9138"/>
</linearGradient>
<linearGradient id="paint22_linear" x1="203.464" y1="214.753" x2="110.775" y2="108.197" gradientUnits="userSpaceOnUse">
<stop stop-color="#801E02"/>
<stop offset="0.1961" stop-color="#AC410C"/>
<stop offset="0.3865" stop-color="#CF5C13"/>
<stop offset="0.5655" stop-color="#E87019"/>
<stop offset="0.7285" stop-color="#F77C1C"/>
<stop offset="0.8611" stop-color="#FC801D"/>
</linearGradient>
<linearGradient id="paint23_linear" x1="171.226" y1="236.876" x2="78.9978" y2="125.448" gradientUnits="userSpaceOnUse">
<stop stop-color="#45002D"/>
<stop offset="0.06907" stop-color="#720B42"/>
<stop offset="0.1487" stop-color="#9E1656"/>
<stop offset="0.2255" stop-color="#C11F66"/>
<stop offset="0.2977" stop-color="#DA2572"/>
<stop offset="0.3635" stop-color="#E92979"/>
<stop offset="0.417" stop-color="#EE2A7B"/>
<stop offset="1" stop-color="#F26522"/>
</linearGradient>
<linearGradient id="paint24_linear" x1="73.8194" y1="67.0794" x2="130.741" y2="109.099" gradientUnits="userSpaceOnUse">
<stop offset="0.3737" stop-color="#FEB51A"/>
<stop offset="0.4306" stop-color="#FEAD1A"/>
<stop offset="0.6448" stop-color="#FD941C"/>
<stop offset="0.8406" stop-color="#FC851D"/>
<stop offset="1" stop-color="#FC801D"/>
</linearGradient>
<linearGradient id="paint25_linear" x1="87.5037" y1="36.2083" x2="158.848" y2="197.923" gradientUnits="userSpaceOnUse">
<stop stop-color="#FE2857"/>
<stop offset="0.0940498" stop-color="#E7254E"/>
<stop offset="0.3015" stop-color="#BB1E3D"/>
<stop offset="0.5015" stop-color="#98192F"/>
<stop offset="0.6896" stop-color="#7F1525"/>
<stop offset="0.8608" stop-color="#70131F"/>
<stop offset="1" stop-color="#6B121D"/>
</linearGradient>
<linearGradient id="paint26_linear" x1="203.351" y1="174.998" x2="58.5283" y2="221.626" gradientUnits="userSpaceOnUse">
<stop offset="0.0794007" stop-color="#70193B"/>
<stop offset="0.23" stop-color="#962D38"/>
<stop offset="0.4689" stop-color="#CE4B33"/>
<stop offset="0.6473" stop-color="#F05D30"/>
<stop offset="0.7435" stop-color="#FD642F"/>
</linearGradient>
<linearGradient id="paint27_linear" x1="245.655" y1="173.817" x2="94.7985" y2="3.7601" gradientUnits="userSpaceOnUse">
<stop stop-color="#6B57FF"/>
<stop offset="1" stop-color="#FE2857"/>
</linearGradient>
<linearGradient id="paint28_linear" x1="46.8987" y1="44.2138" x2="71.7798" y2="89.587" gradientUnits="userSpaceOnUse">
<stop offset="0.1915" stop-color="#7D11EF"/>
<stop offset="0.2818" stop-color="#A019CB"/>
<stop offset="0.3858" stop-color="#C220A8"/>
<stop offset="0.4842" stop-color="#DA268F"/>
<stop offset="0.5738" stop-color="#E92980"/>
<stop offset="0.6467" stop-color="#EE2A7B"/>
<stop offset="1" stop-color="#F26522"/>
</linearGradient>
<linearGradient id="paint29_linear" x1="78.0393" y1="20.312" x2="46.3469" y2="109.24" gradientUnits="userSpaceOnUse">
<stop offset="0.1915" stop-color="#7D11EF"/>
<stop offset="0.2818" stop-color="#A019CB"/>
<stop offset="0.3858" stop-color="#C220A8"/>
<stop offset="0.4842" stop-color="#DA268F"/>
<stop offset="0.5738" stop-color="#E92980"/>
<stop offset="0.6467" stop-color="#EE2A7B"/>
<stop offset="1" stop-color="#F26522"/>
</linearGradient>
</defs>
</svg>
