<svg width="48" height="48" viewBox="0 0 48 48" fill="none" xmlns="http://www.w3.org/2000/svg">
<path d="M39.9001 0L26.2001 4.9L15.4 0L9.30005 14.7L9.50005 35.5L42.8 35.8L48 9.4L39.9001 0Z" fill="url(#paint0_linear)"/>
<path d="M9 31.2L44.6 10.9L39.9 0L26.2 4.9L15.4 0L9 14.2V31.2Z" fill="url(#paint1_linear)"/>
<path d="M9 31.2L44.6 10.9L39.9 0L26.2 4.9L9 31.2Z" fill="url(#paint2_linear)"/>
<path d="M47.7999 9.3L39.9 0L26.2 4.9L47.7999 9.3Z" fill="url(#paint3_linear)"/>
<path d="M44.6 10.9L42.8 35.8L48 9.40002L44.6 10.9Z" fill="url(#paint4_linear)"/>
<path d="M39.8999 0L44.5999 10.9L47.9999 9.4L39.8999 0Z" fill="url(#paint5_linear)"/>
<path d="M36.5001 15.5L17.6001 4.20001L38.4001 30.2L36.5001 15.5Z" fill="url(#paint6_linear)"/>
<path d="M37.9 44.4L35.1 39L38.4 30.2L17.6 4.20001L0 8.50001V33.7L10.1 48L37.9 44.4Z" fill="url(#paint7_linear)"/>
<path d="M14.2 35.5L0 8.5V33.7L10.1 48L14.2 35.5Z" fill="url(#paint8_linear)"/>
<path d="M14.2 35.5L16.4 29.5L0 33.7L10.1 48L14.2 35.5Z" fill="url(#paint9_linear)"/>
<path d="M14.2 35.5L0 8.5V33.7L10.1 48L14.2 35.5Z" fill="url(#paint10_linear)"/>
<path d="M14.2001 35.6L10.1001 48L37.9001 44.4L14.2001 35.6Z" fill="url(#paint11_linear)"/>
<path d="M14.2 35.6L35.0999 39L37.9 44.4L14.2 35.6Z" fill="url(#paint12_linear)"/>
<path d="M10.1001 48L35.1001 39L37.9001 44.4L10.1001 48Z" fill="url(#paint13_linear)"/>
<path d="M37.9 44.4L35.0999 39L29.2 41.1L37.9 44.4Z" fill="url(#paint14_linear)"/>
<path d="M17.6001 4.20001L7.1001 22.1L14.2001 35.5L36.3001 35.7L38.4001 30.2L17.6001 4.20001Z" fill="url(#paint15_linear)"/>
<path d="M14.2 35.6L35.0999 39L38.4 30.2L14.2 35.6Z" fill="url(#paint16_linear)"/>
<path d="M0 8.5V33.7L0.1 33.9L7.1 22.1L0 8.5Z" fill="url(#paint17_linear)"/>
<path d="M17.6 4.20001L0 8.50001L7.1 22.1L17.6 4.20001Z" fill="url(#paint18_linear)"/>
<path d="M13 5.40001L6.19995 20.3L7.09995 22.1L17.6 4.20001L13 5.40001Z" fill="url(#paint19_linear)"/>
<path d="M9 19V25.5L11.2 29.9L29.6 19.2L17.6 4.20001L9 19Z" fill="url(#paint20_linear)"/>
<path d="M39 9H9V39H39V9Z" fill="url(#paint21_linear)"/>
<g opacity="0.3">
<path opacity="0.3" d="M39 9H11.6L9 14.7V39H39V9Z" fill="url(#paint22_linear)"/>
<path opacity="0.3" d="M9 39H35.1L38.4 30.2L21.4 9H9V39Z" fill="url(#paint23_linear)"/>
<path opacity="0.3" d="M9 14.2V31.2L39 14.1V9H11.3L9 14.2Z" fill="url(#paint24_linear)"/>
<path opacity="0.3" d="M39 9H11.6L9 14.7V39H39V9Z" fill="url(#paint25_linear)"/>
<path opacity="0.3" d="M35.0001 39L31.3001 32.1L14.3001 35.3L13.1001 39H35.0001Z" fill="url(#paint26_linear)"/>
<path opacity="0.3" d="M38.3999 30.2L36.4999 15.5L25.5999 9H21.3999L38.3999 30.2Z" fill="url(#paint27_linear)"/>
<path opacity="0.3" d="M14.8 9H9V18.8L14.8 9Z" fill="url(#paint28_linear)"/>
<path opacity="0.3" d="M9 14.1V18.8L9.6 17.9L14.7 9H11.3L9 14.1Z" fill="url(#paint29_linear)"/>
</g>
<path d="M23.9 33.3H12.7V35.2001H23.9V33.3Z" fill="white"/>
<path d="M24 12.7H26.6L29.6 17.5L32.6 12.7H35.2V24H32.8V16.7L29.6 21.5H29.5L26.4 16.7V24H24V12.7Z" fill="white"/>
<path d="M12.8 12.7H17.9C19.3 12.7 20.4 13.1 21.2 13.8C21.8 14.4 22.2 15.3 22.2 16.4C22.2 17.3 22 18.1 21.5 18.6C21.1 19.2 20.5 19.6 19.8 19.9L22.6 23.9H19.7L17.4 20.4H15.4V23.9H12.8V12.7ZM17.8 18.2C18.4 18.2 18.9 18.1 19.2 17.8C19.5 17.5 19.7 17.1 19.7 16.6C19.7 16.1 19.5 15.7 19.2 15.4C18.9 15.1 18.4 15 17.8 15H15.3V18.2H17.8Z" fill="white"/>
<defs>
<linearGradient id="paint0_linear" x1="30.7728" y1="27.7627" x2="24.7075" y2="11.8412" gradientUnits="userSpaceOnUse">
<stop  offset="0" stop-color="#FE2857"/>
<stop offset="0.0562257" stop-color="#FE3052"/>
<stop offset="0.3252" stop-color="#FD533B"/>
<stop offset="0.5796" stop-color="#FC6C2A"/>
<stop offset="0.8114" stop-color="#FC7B20"/>
<stop offset="1" stop-color="#FC801D"/>
</linearGradient>
<linearGradient id="paint1_linear" x1="26.797" y1="20.4762" x2="26.4709" y2="2.3474" gradientUnits="userSpaceOnUse">
<stop offset="0.3737" stop-color="#FEB51A"/>
<stop offset="0.4306" stop-color="#FEAD1A"/>
<stop offset="0.6448" stop-color="#FD941C"/>
<stop offset="0.8406" stop-color="#FC851D"/>
<stop offset="1" stop-color="#FC801D"/>
</linearGradient>
<linearGradient id="paint2_linear" x1="40.7003" y1="30.7767" x2="18.136" y2="9.6589" gradientUnits="userSpaceOnUse">
<stop offset="0.3737" stop-color="#FEB51A"/>
<stop offset="0.417" stop-color="#FEAD1A"/>
<stop offset="0.5802" stop-color="#FD941C"/>
<stop offset="0.7294" stop-color="#FC851D"/>
<stop offset="0.8508" stop-color="#FC801D"/>
<stop offset="0.9836" stop-color="#F26522"/>
</linearGradient>
<linearGradient id="paint3_linear" x1="33.3328" y1="0.1253" x2="37.3052" y2="7.7155" gradientUnits="userSpaceOnUse">
<stop offset="0.0238963" stop-color="#FDB60D"/>
<stop offset="1" stop-color="#FF9600" stop-opacity="0"/>
</linearGradient>
<linearGradient id="paint4_linear" x1="46.3377" y1="35.1061" x2="44.5055" y2="10.324" gradientUnits="userSpaceOnUse">
<stop offset="0.0133474" stop-color="#EE2A7B"/>
<stop offset="0.7157" stop-color="#FE2857"/>
<stop offset="0.9859" stop-color="#FC801D"/>
</linearGradient>
<linearGradient id="paint5_linear" x1="51.9949" y1="17.611" x2="39.4593" y2="1.1218" gradientUnits="userSpaceOnUse">
<stop  offset="0" stop-color="#FE2857"/>
<stop offset="0.1736" stop-color="#FE2C54"/>
<stop offset="0.1983" stop-color="#FE3051"/>
<stop offset="0.4268" stop-color="#FD533B"/>
<stop offset="0.6429" stop-color="#FC6C2A"/>
<stop offset="0.8398" stop-color="#FC7B20"/>
<stop offset="1" stop-color="#FC801D"/>
</linearGradient>
<linearGradient id="paint6_linear" x1="20.1498" y1="3.21321" x2="39.1462" y2="24.8132" gradientUnits="userSpaceOnUse">
<stop  offset="0" stop-color="#6B57FF"/>
<stop offset="1" stop-color="#FE2857"/>
</linearGradient>
<linearGradient id="paint7_linear" x1="-0.211" y1="8.01901" x2="30.6421" y2="47.239" gradientUnits="userSpaceOnUse">
<stop offset="0.0417113" stop-color="#7D11EF"/>
<stop offset="0.1162" stop-color="#A019CB"/>
<stop offset="0.2019" stop-color="#C220A8"/>
<stop offset="0.283" stop-color="#DA268F"/>
<stop offset="0.3569" stop-color="#E92980"/>
<stop offset="0.417" stop-color="#EE2A7B"/>
<stop offset="1" stop-color="#F26522"/>
</linearGradient>
<linearGradient id="paint8_linear" x1="-6.6994" y1="13.3028" x2="15.5916" y2="41.6388" gradientUnits="userSpaceOnUse">
<stop offset="0.00149909" stop-color="#6B57FF"/>
<stop offset="0.2483" stop-color="#FE2857"/>
<stop offset="0.6853" stop-color="#FE2857"/>
</linearGradient>
<linearGradient id="paint9_linear" x1="8.3895" y1="23.9517" x2="7.8889" y2="44.7269" gradientUnits="userSpaceOnUse">
<stop offset="0.00149909" stop-color="#FDB60D"/>
<stop offset="0.725" stop-color="#FE2857" stop-opacity="0"/>
</linearGradient>
<linearGradient id="paint10_linear" x1="12.2474" y1="24.692" x2="5.2248" y2="28.1679" gradientUnits="userSpaceOnUse">
<stop offset="0.0238963" stop-color="#FF7100"/>
<stop offset="1" stop-color="#FF9600" stop-opacity="0"/>
</linearGradient>
<linearGradient id="paint11_linear" x1="18.2526" y1="28.4019" x2="25.3993" y2="50.4375" gradientUnits="userSpaceOnUse">
<stop offset="0.3361" stop-color="#FE2857"/>
<stop offset="0.3527" stop-color="#FE3052"/>
<stop offset="0.4321" stop-color="#FD533B"/>
<stop offset="0.5072" stop-color="#FC6C2A"/>
<stop offset="0.5757" stop-color="#FC7B20"/>
<stop offset="0.6313" stop-color="#FC801D"/>
<stop offset="0.9964" stop-color="#FFDE17"/>
</linearGradient>
<linearGradient id="paint12_linear" x1="21.092" y1="24.7026" x2="29.6282" y2="51.0227" gradientUnits="userSpaceOnUse">
<stop offset="0.2209" stop-color="#EE2A7B"/>
<stop offset="0.6985" stop-color="#F7941D"/>
</linearGradient>
<linearGradient id="paint13_linear" x1="21.9976" y1="39.9492" x2="25.2518" y2="49.9829" gradientUnits="userSpaceOnUse">
<stop offset="0.092793" stop-color="#F15A29"/>
<stop offset="0.3888" stop-color="#FC801D"/>
<stop offset="1" stop-color="#FEC519"/>
</linearGradient>
<linearGradient id="paint14_linear" x1="20.322" y1="44.9445" x2="39.1577" y2="41.1517" gradientUnits="userSpaceOnUse">
<stop offset="0.092793" stop-color="#F15A29"/>
<stop offset="0.3888" stop-color="#FC801D"/>
<stop offset="0.8214" stop-color="#FEC519"/>
<stop offset="0.9894" stop-color="#FCF84A"/>
</linearGradient>
<linearGradient id="paint15_linear" x1="13.9283" y1="42.1809" x2="31.1218" y2="12.8508" gradientUnits="userSpaceOnUse">
<stop offset="0.0417113" stop-color="#7D11EF"/>
<stop offset="0.1162" stop-color="#A019CB"/>
<stop offset="0.2019" stop-color="#C220A8"/>
<stop offset="0.283" stop-color="#DA268F"/>
<stop offset="0.3569" stop-color="#E92980"/>
<stop offset="0.417" stop-color="#EE2A7B"/>
</linearGradient>
<linearGradient id="paint16_linear" x1="24.3464" y1="26.9619" x2="29.6285" y2="43.2483" gradientUnits="userSpaceOnUse">
<stop  offset="0" stop-color="#F7941D" stop-opacity="0"/>
<stop offset="0.5473" stop-color="#FB851D" stop-opacity="0.5473"/>
<stop offset="1" stop-color="#FC801D"/>
</linearGradient>
<linearGradient id="paint17_linear" x1="-6.2048" y1="9.7681" x2="5.8912" y2="31.8265" gradientUnits="userSpaceOnUse">
<stop offset="0.1915" stop-color="#7D11EF"/>
<stop offset="0.2818" stop-color="#A019CB"/>
<stop offset="0.3858" stop-color="#C220A8"/>
<stop offset="0.4842" stop-color="#DA268F"/>
<stop offset="0.5738" stop-color="#E92980"/>
<stop offset="0.6467" stop-color="#EE2A7B"/>
</linearGradient>
<linearGradient id="paint18_linear" x1="6.9152" y1="3.24421" x2="15.2099" y2="18.3705" gradientUnits="userSpaceOnUse">
<stop offset="0.1915" stop-color="#7D11EF"/>
<stop offset="0.2818" stop-color="#A019CB"/>
<stop offset="0.3858" stop-color="#C220A8"/>
<stop offset="0.4842" stop-color="#DA268F"/>
<stop offset="0.5738" stop-color="#E92980"/>
<stop offset="0.6467" stop-color="#EE2A7B"/>
<stop offset="1" stop-color="#F26522"/>
</linearGradient>
<linearGradient id="paint19_linear" x1="18.0209" y1="-5.02929" x2="7.20075" y2="25.3316" gradientUnits="userSpaceOnUse">
<stop offset="0.1915" stop-color="#7D11EF"/>
<stop offset="0.2818" stop-color="#A019CB"/>
<stop offset="0.3858" stop-color="#C220A8"/>
<stop offset="0.4842" stop-color="#DA268F"/>
<stop offset="0.5738" stop-color="#E92980"/>
<stop offset="0.6467" stop-color="#EE2A7B"/>
<stop offset="1" stop-color="#F26522"/>
</linearGradient>
<linearGradient id="paint20_linear" x1="29.0742" y1="27.75" x2="6.3137" y2="11.1442" gradientUnits="userSpaceOnUse">
<stop offset="0.0417113" stop-color="#FFDE17"/>
<stop offset="0.0429608" stop-color="#FFDD18"/>
<stop offset="0.1145" stop-color="#FAA736"/>
<stop offset="0.1843" stop-color="#F67A4E"/>
<stop offset="0.2509" stop-color="#F25762"/>
<stop offset="0.3136" stop-color="#F03E70"/>
<stop offset="0.3706" stop-color="#EE2F78"/>
<stop offset="0.417" stop-color="#EE2A7B"/>
</linearGradient>
<linearGradient id="paint21_linear" x1="4.43321" y1="8.74365" x2="38.7419" y2="35.4944" gradientUnits="userSpaceOnUse">
<stop offset="0.0108952" stop-color="#7C0F13"/>
<stop offset="0.0756282" stop-color="#6C0D11"/>
<stop offset="0.2517" stop-color="#45080B"/>
<stop offset="0.4263" stop-color="#270506"/>
<stop offset="0.5969" stop-color="#110203"/>
<stop offset="0.7616" stop-color="#040101"/>
<stop offset="0.9138"/>
</linearGradient>
<linearGradient id="paint22_linear" x1="38.1495" y1="40.2663" x2="20.7702" y2="20.287" gradientUnits="userSpaceOnUse">
<stop  offset="0" stop-color="#801E02"/>
<stop offset="0.1961" stop-color="#AC410C"/>
<stop offset="0.3865" stop-color="#CF5C13"/>
<stop offset="0.5655" stop-color="#E87019"/>
<stop offset="0.7285" stop-color="#F77C1C"/>
<stop offset="0.8611" stop-color="#FC801D"/>
</linearGradient>
<linearGradient id="paint23_linear" x1="32.1049" y1="44.4143" x2="14.8121" y2="23.5215" gradientUnits="userSpaceOnUse">
<stop  offset="0" stop-color="#45002D"/>
<stop offset="0.06907" stop-color="#720B42"/>
<stop offset="0.1487" stop-color="#9E1656"/>
<stop offset="0.2255" stop-color="#C11F66"/>
<stop offset="0.2977" stop-color="#DA2572"/>
<stop offset="0.3635" stop-color="#E92979"/>
<stop offset="0.417" stop-color="#EE2A7B"/>
<stop offset="1" stop-color="#F26522"/>
</linearGradient>
<linearGradient id="paint24_linear" x1="13.8411" y1="12.5774" x2="24.5139" y2="20.456" gradientUnits="userSpaceOnUse">
<stop offset="0.3737" stop-color="#FEB51A"/>
<stop offset="0.4306" stop-color="#FEAD1A"/>
<stop offset="0.6448" stop-color="#FD941C"/>
<stop offset="0.8406" stop-color="#FC851D"/>
<stop offset="1" stop-color="#FC801D"/>
</linearGradient>
<linearGradient id="paint25_linear" x1="16.4069" y1="6.7891" x2="29.7841" y2="37.1105" gradientUnits="userSpaceOnUse">
<stop  offset="0" stop-color="#FE2857"/>
<stop offset="0.0940498" stop-color="#E7254E"/>
<stop offset="0.3015" stop-color="#BB1E3D"/>
<stop offset="0.5015" stop-color="#98192F"/>
<stop offset="0.6896" stop-color="#7F1525"/>
<stop offset="0.8608" stop-color="#70131F"/>
<stop offset="1" stop-color="#6B121D"/>
</linearGradient>
<linearGradient id="paint26_linear" x1="38.1284" y1="32.8121" x2="10.9742" y2="41.555" gradientUnits="userSpaceOnUse">
<stop offset="0.0794007" stop-color="#70193B"/>
<stop offset="0.23" stop-color="#962D38"/>
<stop offset="0.4689" stop-color="#CE4B33"/>
<stop offset="0.6473" stop-color="#F05D30"/>
<stop offset="0.7435" stop-color="#FD642F"/>
</linearGradient>
<linearGradient id="paint27_linear" x1="46.0602" y1="32.5906" x2="17.7746" y2="0.704999" gradientUnits="userSpaceOnUse">
<stop  offset="0" stop-color="#6B57FF"/>
<stop offset="1" stop-color="#FE2857"/>
</linearGradient>
<linearGradient id="paint28_linear" x1="8.7935" y1="8.2901" x2="13.4587" y2="16.7976" gradientUnits="userSpaceOnUse">
<stop offset="0.1915" stop-color="#7D11EF"/>
<stop offset="0.2818" stop-color="#A019CB"/>
<stop offset="0.3858" stop-color="#C220A8"/>
<stop offset="0.4842" stop-color="#DA268F"/>
<stop offset="0.5738" stop-color="#E92980"/>
<stop offset="0.6467" stop-color="#EE2A7B"/>
<stop offset="1" stop-color="#F26522"/>
</linearGradient>
<linearGradient id="paint29_linear" x1="14.6324" y1="3.8085" x2="8.69" y2="20.4825" gradientUnits="userSpaceOnUse">
<stop offset="0.1915" stop-color="#7D11EF"/>
<stop offset="0.2818" stop-color="#A019CB"/>
<stop offset="0.3858" stop-color="#C220A8"/>
<stop offset="0.4842" stop-color="#DA268F"/>
<stop offset="0.5738" stop-color="#E92980"/>
<stop offset="0.6467" stop-color="#EE2A7B"/>
<stop offset="1" stop-color="#F26522"/>
</linearGradient>
</defs>
</svg>
