<svg width="40" height="40" viewBox="0 0 40 40" fill="none" xmlns="http://www.w3.org/2000/svg">
<path d="M30.0377 24.0755C27.8491 24.0755 25.8868 25.283 24.9057 27.0189H17.283L24.9057 19.3962C25.8868 19.7736 26.9434 20 28 20C32.4528 20 36 16.3774 36 12C36 7.62264 32.4528 4 28 4C23.5472 4 20 7.62264 20 12C20 13.1321 20.2264 14.1887 20.6038 15.1698L12.9811 22.7925V15.0943C14.717 14.0377 15.9245 12.1509 15.9245 9.96226C15.9245 6.64151 13.283 4 9.96226 4C6.64151 4 4 6.64151 4 9.96226C4 12.1509 5.20755 14.0377 6.9434 15.0943V24.9057C5.20755 25.9623 4 27.8491 4 30.0377C4 33.3585 6.64151 36 9.96226 36C12.1509 36 14.0377 34.7925 15.0943 33.0566H24.9057C25.9623 34.7925 27.8491 36 30.0377 36C33.3585 36 36 33.3585 36 30.0377C36 26.717 33.3585 24.0755 30.0377 24.0755Z" fill="url(#paint0_linear)"/>
<defs>
<linearGradient id="paint0_linear" x1="4.60876" y1="35.4149" x2="28.5662" y2="11.4575" gradientUnits="userSpaceOnUse">
<stop offset="0.277" stop-color="#3BEA62"/>
<stop offset="0.8378" stop-color="#087CFA"/>
</linearGradient>
</defs>
</svg>
