<svg width="70" height="70" viewBox="0 0 70 70" fill="none" xmlns="http://www.w3.org/2000/svg">
<path d="M62 8H8V62H62V8Z" fill="url(#paint0_linear)"/>
<path d="M52.2001 17.8H17.8V52.2H52.2001V17.8Z" fill="url(#paint1_linear)"/>
<path d="M57.4001 12.6H12.6001V57.3H57.3001V12.6H57.4001Z" fill="url(#paint2_linear)"/>
<path d="M57.4 57.4V12.6L52.2 17.8V52.2L57.4 57.4Z" fill="url(#paint3_linear)"/>
<path d="M17.8 17.8H52.2L62 8H8L17.8 17.8Z" fill="url(#paint4_linear)"/>
<path d="M52.2 52.2H17.8L8 62H62L52.2 52.2Z" fill="url(#paint5_linear)"/>
<path d="M12.6001 57.4H57.4001L52.2001 52.2H17.8001L12.6001 57.4Z" fill="url(#paint6_linear)"/>
<path d="M57.4 57.4V12.6L52.2 17.8V52.2L57.4 57.4Z" fill="url(#paint7_linear)"/>
<path d="M12.6001 57.4H57.4001L52.2001 52.2H17.8001L12.6001 57.4Z" fill="url(#paint8_linear)"/>
<path d="M17.8 52.2V17.8L8 8V62L17.8 52.2Z" fill="url(#paint9_linear)"/>
<path d="M12.6 12.6H57.4L62 8H8L12.6 12.6Z" fill="url(#paint10_linear)"/>
<path d="M57.4001 12.6H12.6001L17.8001 17.8H52.2001L57.4001 12.6Z" fill="url(#paint11_linear)"/>
<path d="M57.4001 12.6H12.6001L17.8001 17.8H52.2001L57.4001 12.6Z" fill="url(#paint12_linear)"/>
<path d="M57.4 57.4H12.6L8 62H62L57.4 57.4Z" fill="url(#paint13_linear)"/>
<path d="M57.3999 57.4L61.9999 62V8L57.3999 12.6V57.4Z" fill="url(#paint14_linear)"/>
<path d="M57.4 57.4H12.6L8 62H62L57.4 57.4Z" fill="url(#paint15_linear)"/>
<path d="M57.4 57.4H12.6L8 62H62L57.4 57.4Z" fill="url(#paint16_linear)"/>
<path d="M57.4 57.4H12.6L8 62H62L57.4 57.4Z" fill="url(#paint17_linear)"/>
<path d="M57.4 57.4H12.6L8 62H62L57.4 57.4Z" fill="url(#paint18_linear)"/>
<path d="M57.3999 57.4L61.9999 62V8L57.3999 12.6V57.4Z" fill="url(#paint19_linear)"/>
<path d="M57.3999 57.4L61.9999 62V8L57.3999 12.6V57.4Z" fill="url(#paint20_linear)"/>
<path d="M57.3999 57.4L61.9999 62V8L57.3999 12.6V57.4Z" fill="url(#paint21_linear)"/>
<path d="M57.3999 57.4L61.9999 62V8L57.3999 12.6V57.4Z" fill="url(#paint22_linear)"/>
<path d="M12.6 57.4V12.6L8 8V62L12.6 57.4Z" fill="url(#paint23_linear)"/>
<path d="M12.6 57.4V12.6L8 8V62L12.6 57.4Z" fill="url(#paint24_linear)"/>
<path d="M12.6001 12.6V57.4L17.8001 52.2V17.8L12.6001 12.6Z" fill="url(#paint25_linear)"/>
<path d="M55 15H15V55H55V15Z" fill="url(#paint26_linear)"/>
<path d="M35 47.4H20V49.9H35V47.4Z" fill="white"/>
<path d="M35 47.4H20V49.9H35V47.4Z" fill="white"/>
<path d="M20 20H26.1C29.7 20 31.8 22.1 31.8 25.2C31.8 28.7 29.1 30.5 25.7 30.5H23.3V35H20V20ZM25.9 27.6C27.5 27.6 28.5 26.6 28.5 25.3C28.5 23.8 27.5 23 25.8 23H23.3V27.6H25.9Z" fill="white"/>
<path d="M33.7 27.5C33.7 23.2 36.9 19.7 41.5 19.7C44.3 19.7 46 20.6 47.4 22L45.2999 24.4C44.0999 23.4 43 22.7 41.5 22.7C39 22.7 37.2 24.8 37.2 27.4C37.2 30 39 32.1 41.5 32.1C43.2 32.1 44.3 31.4 45.4 30.3L47.5 32.4C46 34 44.1999 35.1 41.4 35.1C36.9 35.2 33.7 31.8 33.7 27.5Z" fill="white"/>
<defs>
<linearGradient id="paint0_linear" x1="68.0367" y1="68.0366" x2="-8.2416" y2="-8.2412" gradientUnits="userSpaceOnUse">
<stop offset="0.3475" stop-color="#C8EA23"/>
<stop offset="0.8562" stop-color="#10E899"/>
</linearGradient>
<linearGradient id="paint1_linear" x1="56.0233" y1="56.0235" x2="7.48265" y2="7.48289" gradientUnits="userSpaceOnUse">
<stop offset="0.3475" stop-color="#087CFA"/>
<stop offset="0.8562" stop-color="#FE2857"/>
<stop offset="1" stop-color="#FE2857"/>
</linearGradient>
<linearGradient id="paint2_linear" x1="62.3665" y1="62.3662" x2="-0.8198" y2="-0.819331" gradientUnits="userSpaceOnUse">
<stop stop-color="#FCF84A"/>
<stop offset="0.2816" stop-color="#C1F834"/>
<stop offset="0.7846" stop-color="#10E899"/>
</linearGradient>
<linearGradient id="paint3_linear" x1="53.2156" y1="34.9999" x2="59.3991" y2="34.9999" gradientUnits="userSpaceOnUse">
<stop offset="0.27" stop-color="#FFC320"/>
<stop offset="1" stop-color="#FDB60D" stop-opacity="0"/>
</linearGradient>
<linearGradient id="paint4_linear" x1="74.4299" y1="12.9091" x2="-0.659701" y2="12.9091" gradientUnits="userSpaceOnUse">
<stop offset="0.2576" stop-color="#EFE50C"/>
<stop offset="0.5774" stop-color="#BEFF26"/>
<stop offset="0.8746" stop-color="#00C66E"/>
</linearGradient>
<linearGradient id="paint5_linear" x1="5.2586" y1="57.0906" x2="67.521" y2="57.0906" gradientUnits="userSpaceOnUse">
<stop offset="0.0242344" stop-color="#F3DF00"/>
<stop offset="0.496" stop-color="#DDFF18"/>
<stop offset="1" stop-color="#97E578"/>
</linearGradient>
<linearGradient id="paint6_linear" x1="34.9745" y1="53.2153" x2="34.9743" y2="59.3988" gradientUnits="userSpaceOnUse">
<stop offset="0.27" stop-color="#FFC320"/>
<stop offset="1" stop-color="#FDB60D" stop-opacity="0"/>
</linearGradient>
<linearGradient id="paint7_linear" x1="53.2156" y1="34.9999" x2="59.3991" y2="34.9999" gradientUnits="userSpaceOnUse">
<stop offset="0.27" stop-color="#A8C320"/>
<stop offset="1" stop-color="#FDB60D" stop-opacity="0"/>
</linearGradient>
<linearGradient id="paint8_linear" x1="34.9745" y1="53.2153" x2="34.9743" y2="59.3988" gradientUnits="userSpaceOnUse">
<stop offset="0.27" stop-color="#A8C320"/>
<stop offset="1" stop-color="#FDB60D" stop-opacity="0"/>
</linearGradient>
<linearGradient id="paint9_linear" x1="12.9093" y1="61.1031" x2="12.9093" y2="7.1033" gradientUnits="userSpaceOnUse">
<stop offset="0.2576" stop-color="#EFE50C"/>
<stop offset="0.5774" stop-color="#BEFF26"/>
<stop offset="0.8746" stop-color="#00C66E"/>
</linearGradient>
<linearGradient id="paint10_linear" x1="33.6209" y1="9.9579" x2="14.0744" y2="17.4406" gradientUnits="userSpaceOnUse">
<stop offset="0.1018" stop-color="#A5FF21" stop-opacity="0"/>
<stop offset="0.8222" stop-color="#14EB1F"/>
<stop offset="1" stop-color="white" stop-opacity="0.9"/>
</linearGradient>
<linearGradient id="paint11_linear" x1="51.3261" y1="8.41548" x2="22.9237" y2="18.6404" gradientUnits="userSpaceOnUse">
<stop offset="0.018393" stop-color="#99C81D"/>
<stop offset="0.723" stop-color="#10C299" stop-opacity="0"/>
</linearGradient>
<linearGradient id="paint12_linear" x1="51.3261" y1="8.41548" x2="22.9237" y2="18.6404" gradientUnits="userSpaceOnUse">
<stop offset="0.0192715" stop-color="#8CC81D"/>
<stop offset="0.723" stop-color="#10C23B" stop-opacity="0.4"/>
</linearGradient>
<linearGradient id="paint13_linear" x1="67.7697" y1="65.5817" x2="17.4658" y2="57.1241" gradientUnits="userSpaceOnUse">
<stop stop-color="#FCF84A" stop-opacity="0"/>
<stop offset="1" stop-color="#FDD200"/>
</linearGradient>
<linearGradient id="paint14_linear" x1="59.6827" y1="61.2804" x2="59.6827" y2="7.90629" gradientUnits="userSpaceOnUse">
<stop stop-color="#FCF84A" stop-opacity="0"/>
<stop offset="1" stop-color="#FDD200"/>
</linearGradient>
<linearGradient id="paint15_linear" x1="34.9999" y1="56.3417" x2="34.9999" y2="63.4316" gradientUnits="userSpaceOnUse">
<stop stop-color="#FCF84A" stop-opacity="0"/>
<stop offset="1" stop-color="#FDD200"/>
</linearGradient>
<linearGradient id="paint16_linear" x1="34.9999" y1="56.3417" x2="34.9999" y2="63.4316" gradientUnits="userSpaceOnUse">
<stop offset="0.0714497" stop-color="#FFFFA3" stop-opacity="0.5"/>
<stop offset="0.5642" stop-color="#FCF84A" stop-opacity="0"/>
</linearGradient>
<linearGradient id="paint17_linear" x1="34.9999" y1="62.0174" x2="34.9999" y2="56.5608" gradientUnits="userSpaceOnUse">
<stop offset="0.0714497" stop-color="#97DF1E" stop-opacity="0.5"/>
<stop offset="0.5642" stop-color="#FCF84A" stop-opacity="0"/>
</linearGradient>
<linearGradient id="paint18_linear" x1="54.2927" y1="63.1401" x2="1.2491" y2="54.6532" gradientUnits="userSpaceOnUse">
<stop offset="0.5632" stop-color="#A5FF21" stop-opacity="0"/>
<stop offset="1" stop-color="#D7BE00" stop-opacity="0.9"/>
</linearGradient>
<linearGradient id="paint19_linear" x1="56.6471" y1="34.9999" x2="63.1965" y2="34.9999" gradientUnits="userSpaceOnUse">
<stop stop-color="#FCF84A" stop-opacity="0"/>
<stop offset="1" stop-color="#FDD200"/>
</linearGradient>
<linearGradient id="paint20_linear" x1="56.6471" y1="34.9999" x2="63.1965" y2="34.9999" gradientUnits="userSpaceOnUse">
<stop offset="0.0714497" stop-color="#FFFFA3" stop-opacity="0.5"/>
<stop offset="0.5642" stop-color="#FCF84A" stop-opacity="0"/>
</linearGradient>
<linearGradient id="paint21_linear" x1="61.4409" y1="34.9999" x2="58.2721" y2="34.9999" gradientUnits="userSpaceOnUse">
<stop offset="0.0714497" stop-color="#97DF1E" stop-opacity="0.5"/>
<stop offset="0.5642" stop-color="#FCF84A" stop-opacity="0"/>
</linearGradient>
<linearGradient id="paint22_linear" x1="60.1589" y1="35.9702" x2="56.2522" y2="9.0064" gradientUnits="userSpaceOnUse">
<stop offset="0.5632" stop-color="#A5FF21" stop-opacity="0"/>
<stop offset="1" stop-color="#D7BE00" stop-opacity="0.9"/>
</linearGradient>
<linearGradient id="paint23_linear" x1="6.9081" y1="46.471" x2="15.4919" y2="11.757" gradientUnits="userSpaceOnUse">
<stop offset="0.1018" stop-color="#A5FF21" stop-opacity="0"/>
<stop offset="0.8222" stop-color="#14EB1F"/>
<stop offset="1" stop-color="white" stop-opacity="0.9"/>
</linearGradient>
<linearGradient id="paint24_linear" x1="9.944" y1="34.8969" x2="5.1347" y2="63.399" gradientUnits="userSpaceOnUse">
<stop offset="0.5632" stop-color="#A5FF21" stop-opacity="0"/>
<stop offset="1" stop-color="#D7BE00" stop-opacity="0.9"/>
</linearGradient>
<linearGradient id="paint25_linear" x1="7.894" y1="37.6457" x2="18.75" y2="31.5866" gradientUnits="userSpaceOnUse">
<stop offset="0.0192715" stop-color="#8CC81D"/>
<stop offset="0.723" stop-color="#10C23B" stop-opacity="0.4"/>
</linearGradient>
<linearGradient id="paint26_linear" x1="15.0609" y1="15.0609" x2="50.1088" y2="50.1088" gradientUnits="userSpaceOnUse">
<stop stop-color="#298B2A"/>
<stop offset="0.092362" stop-color="#216F21"/>
<stop offset="0.2928" stop-color="#103510"/>
<stop offset="0.6895" stop-color="#051005"/>
<stop offset="0.9138"/>
</linearGradient>
</defs>
</svg>
