<svg width="32" height="32" viewBox="0 0 32 32" fill="none" xmlns="http://www.w3.org/2000/svg">
<path d="M28 4H4V28H28V4Z" fill="url(#paint0_linear)"/>
<path d="M23.5999 8.40002H8.3999V23.7H23.6999V8.40002H23.5999Z" fill="url(#paint1_linear)"/>
<path d="M25.9001 6.09998H6.1001V26H26.0001V6.09998H25.9001Z" fill="url(#paint2_linear)"/>
<path d="M25.9001 25.9V6.09998L23.6001 8.39998V23.6L25.9001 25.9Z" fill="url(#paint3_linear)"/>
<path d="M8.4 8.4H23.6L28 4H4L8.4 8.4Z" fill="url(#paint4_linear)"/>
<path d="M23.6 23.6H8.4L4 28H28L23.6 23.6Z" fill="url(#paint5_linear)"/>
<path d="M6.1001 25.9H25.9001L23.6001 23.6H8.4001L6.1001 25.9Z" fill="url(#paint6_linear)"/>
<path d="M25.9001 25.9V6.09998L23.6001 8.39998V23.6L25.9001 25.9Z" fill="url(#paint7_linear)"/>
<path d="M6.1001 25.9H25.9001L23.6001 23.6H8.4001L6.1001 25.9Z" fill="url(#paint8_linear)"/>
<path d="M8.4 23.6V8.4L4 4V28L8.4 23.6Z" fill="url(#paint9_linear)"/>
<path d="M6.1 6.1H25.9L28 4H4L6.1 6.1Z" fill="url(#paint10_linear)"/>
<path d="M25.9001 6.09998H6.1001L8.4001 8.39998H23.6001L25.9001 6.09998Z" fill="url(#paint11_linear)"/>
<path d="M25.9001 6.09998H6.1001L8.4001 8.39998H23.6001L25.9001 6.09998Z" fill="url(#paint12_linear)"/>
<path d="M25.9 25.9H6.1L4 28H28L25.9 25.9Z" fill="url(#paint13_linear)"/>
<path d="M25.8999 25.9L27.9999 28V4L25.8999 6.1V25.9Z" fill="url(#paint14_linear)"/>
<path d="M25.9 25.9H6.1L4 28H28L25.9 25.9Z" fill="url(#paint15_linear)"/>
<path d="M25.9 25.9H6.1L4 28H28L25.9 25.9Z" fill="url(#paint16_linear)"/>
<path d="M25.9 25.9H6.1L4 28H28L25.9 25.9Z" fill="url(#paint17_linear)"/>
<path d="M25.9 25.9H6.1L4 28H28L25.9 25.9Z" fill="url(#paint18_linear)"/>
<path d="M25.8999 25.9L27.9999 28V4L25.8999 6.1V25.9Z" fill="url(#paint19_linear)"/>
<path d="M25.8999 25.9L27.9999 28V4L25.8999 6.1V25.9Z" fill="url(#paint20_linear)"/>
<path d="M25.8999 25.9L27.9999 28V4L25.8999 6.1V25.9Z" fill="url(#paint21_linear)"/>
<path d="M25.8999 25.9L27.9999 28V4L25.8999 6.1V25.9Z" fill="url(#paint22_linear)"/>
<path d="M6.1 25.9V6.1L4 4V28L6.1 25.9Z" fill="url(#paint23_linear)"/>
<path d="M6.1 25.9V6.1L4 4V28L6.1 25.9Z" fill="url(#paint24_linear)"/>
<path d="M6.1001 6.09998V25.9L8.4001 23.6V8.39998L6.1001 6.09998Z" fill="url(#paint25_linear)"/>
<path d="M25 7H7V25H25V7Z" fill="url(#paint26_linear)"/>
<path d="M15.9001 21.4H9.1001V23H15.9001V21.4Z" fill="white"/>
<path d="M9 9.20001H11.7C13.3 9.20001 14.3 10.2 14.3 11.5C14.3 13.1 13.1 13.9 11.6 13.9H10.4V15.9H9V9.20001ZM11.6 12.7C12.3 12.7 12.8 12.2 12.8 11.6C12.8 10.9 12.3 10.6 11.6 10.6H10.4V12.7H11.6Z" fill="white"/>
<path d="M15.1001 12.5C15.1001 10.6 16.5001 9 18.6001 9C19.9001 9 20.6001 9.4 21.3001 10L20.4001 11.1C19.9001 10.6 19.4001 10.3 18.7001 10.3C17.6001 10.3 16.7001 11.2 16.7001 12.4C16.7001 13.6 17.5001 14.5 18.7001 14.5C19.5001 14.5 19.9001 14.2 20.5001 13.7L21.4001 14.7C20.7001 15.4 19.9001 15.9 18.6001 15.9C16.6001 16 15.1001 14.5 15.1001 12.5Z" fill="white"/>
<defs>
<linearGradient id="paint0_linear" x1="30.683" y1="30.6826" x2="-3.2185" y2="-3.2182" gradientUnits="userSpaceOnUse">
<stop offset="0.3475" stop-color="#C8EA23"/>
<stop offset="0.8562" stop-color="#10E899"/>
</linearGradient>
<linearGradient id="paint1_linear" x1="25.3436" y1="25.3438" x2="3.7699" y2="3.77002" gradientUnits="userSpaceOnUse">
<stop offset="0.3475" stop-color="#087CFA"/>
<stop offset="0.8562" stop-color="#FE2857"/>
<stop offset="1" stop-color="#FE2857"/>
</linearGradient>
<linearGradient id="paint2_linear" x1="28.163" y1="28.1626" x2="0.080197" y2="0.0800756" gradientUnits="userSpaceOnUse">
<stop  offset="0" stop-color="#FCF84A"/>
<stop offset="0.2816" stop-color="#C1F834"/>
<stop offset="0.7846" stop-color="#10E899"/>
</linearGradient>
<linearGradient id="paint3_linear" x1="24.0959" y1="15.9999" x2="26.8441" y2="15.9999" gradientUnits="userSpaceOnUse">
<stop offset="0.27" stop-color="#FFC320"/>
<stop offset="1" stop-color="#FDB60D" stop-opacity="0"/>
</linearGradient>
<linearGradient id="paint4_linear" x1="33.5244" y1="6.1818" x2="0.1513" y2="6.1818" gradientUnits="userSpaceOnUse">
<stop offset="0.2576" stop-color="#EFE50C"/>
<stop offset="0.5774" stop-color="#BEFF26"/>
<stop offset="0.8746" stop-color="#00C66E"/>
</linearGradient>
<linearGradient id="paint5_linear" x1="2.7816" y1="25.818" x2="30.4538" y2="25.818" gradientUnits="userSpaceOnUse">
<stop offset="0.0242344" stop-color="#F3DF00"/>
<stop offset="0.496" stop-color="#DDFF18"/>
<stop offset="1" stop-color="#97E578"/>
</linearGradient>
<linearGradient id="paint6_linear" x1="15.9751" y1="24.0957" x2="15.9751" y2="26.8439" gradientUnits="userSpaceOnUse">
<stop offset="0.27" stop-color="#FFC320"/>
<stop offset="1" stop-color="#FDB60D" stop-opacity="0"/>
</linearGradient>
<linearGradient id="paint7_linear" x1="24.0959" y1="15.9999" x2="26.8441" y2="15.9999" gradientUnits="userSpaceOnUse">
<stop offset="0.27" stop-color="#A8C320"/>
<stop offset="1" stop-color="#FDB60D" stop-opacity="0"/>
</linearGradient>
<linearGradient id="paint8_linear" x1="15.9751" y1="24.0957" x2="15.9751" y2="26.8439" gradientUnits="userSpaceOnUse">
<stop offset="0.27" stop-color="#A8C320"/>
<stop offset="1" stop-color="#FDB60D" stop-opacity="0"/>
</linearGradient>
<linearGradient id="paint9_linear" x1="6.1819" y1="27.6014" x2="6.1819" y2="3.6015" gradientUnits="userSpaceOnUse">
<stop offset="0.2576" stop-color="#EFE50C"/>
<stop offset="0.5774" stop-color="#BEFF26"/>
<stop offset="0.8746" stop-color="#00C66E"/>
</linearGradient>
<linearGradient id="paint10_linear" x1="15.387" y1="4.8702" x2="6.6997" y2="8.1958" gradientUnits="userSpaceOnUse">
<stop offset="0.1018" stop-color="#A5FF21" stop-opacity="0"/>
<stop offset="0.8222" stop-color="#14EB1F"/>
<stop offset="1" stop-color="white" stop-opacity="0.9"/>
</linearGradient>
<linearGradient id="paint11_linear" x1="23.2561" y1="4.18468" x2="10.6328" y2="8.72908" gradientUnits="userSpaceOnUse">
<stop offset="0.018393" stop-color="#99C81D"/>
<stop offset="0.723" stop-color="#10C299" stop-opacity="0"/>
</linearGradient>
<linearGradient id="paint12_linear" x1="23.2561" y1="4.18468" x2="10.6328" y2="8.72908" gradientUnits="userSpaceOnUse">
<stop offset="0.0192715" stop-color="#8CC81D"/>
<stop offset="0.723" stop-color="#10C23B" stop-opacity="0.4"/>
</linearGradient>
<linearGradient id="paint13_linear" x1="30.5643" y1="29.5919" x2="8.207" y2="25.8329" gradientUnits="userSpaceOnUse">
<stop  offset="0" stop-color="#FCF84A" stop-opacity="0"/>
<stop offset="1" stop-color="#FDD200"/>
</linearGradient>
<linearGradient id="paint14_linear" x1="26.97" y1="27.6802" x2="26.97" y2="3.95835" gradientUnits="userSpaceOnUse">
<stop  offset="0" stop-color="#FCF84A" stop-opacity="0"/>
<stop offset="1" stop-color="#FDD200"/>
</linearGradient>
<linearGradient id="paint15_linear" x1="15.9999" y1="25.4852" x2="15.9999" y2="28.6363" gradientUnits="userSpaceOnUse">
<stop  offset="0" stop-color="#FCF84A" stop-opacity="0"/>
<stop offset="1" stop-color="#FDD200"/>
</linearGradient>
<linearGradient id="paint16_linear" x1="15.9999" y1="25.4852" x2="15.9999" y2="28.6363" gradientUnits="userSpaceOnUse">
<stop offset="0.0714497" stop-color="#FFFFA3" stop-opacity="0.5"/>
<stop offset="0.5642" stop-color="#FCF84A" stop-opacity="0"/>
</linearGradient>
<linearGradient id="paint17_linear" x1="15.9999" y1="28.0077" x2="15.9999" y2="25.5826" gradientUnits="userSpaceOnUse">
<stop offset="0.0714497" stop-color="#97DF1E" stop-opacity="0.5"/>
<stop offset="0.5642" stop-color="#FCF84A" stop-opacity="0"/>
</linearGradient>
<linearGradient id="paint18_linear" x1="24.5745" y1="28.5067" x2="0.9996" y2="24.7347" gradientUnits="userSpaceOnUse">
<stop offset="0.5632" stop-color="#A5FF21" stop-opacity="0"/>
<stop offset="1" stop-color="#D7BE00" stop-opacity="0.9"/>
</linearGradient>
<linearGradient id="paint19_linear" x1="25.6209" y1="15.9999" x2="28.5317" y2="15.9999" gradientUnits="userSpaceOnUse">
<stop  offset="0" stop-color="#FCF84A" stop-opacity="0"/>
<stop offset="1" stop-color="#FDD200"/>
</linearGradient>
<linearGradient id="paint20_linear" x1="25.6209" y1="15.9999" x2="28.5317" y2="15.9999" gradientUnits="userSpaceOnUse">
<stop offset="0.0714497" stop-color="#FFFFA3" stop-opacity="0.5"/>
<stop offset="0.5642" stop-color="#FCF84A" stop-opacity="0"/>
</linearGradient>
<linearGradient id="paint21_linear" x1="27.7514" y1="15.9999" x2="26.3431" y2="15.9999" gradientUnits="userSpaceOnUse">
<stop offset="0.0714497" stop-color="#97DF1E" stop-opacity="0.5"/>
<stop offset="0.5642" stop-color="#FCF84A" stop-opacity="0"/>
</linearGradient>
<linearGradient id="paint22_linear" x1="27.1817" y1="16.4312" x2="25.4454" y2="4.4473" gradientUnits="userSpaceOnUse">
<stop offset="0.5632" stop-color="#A5FF21" stop-opacity="0"/>
<stop offset="1" stop-color="#D7BE00" stop-opacity="0.9"/>
</linearGradient>
<linearGradient id="paint23_linear" x1="3.5147" y1="21.0982" x2="7.3297" y2="5.6698" gradientUnits="userSpaceOnUse">
<stop offset="0.1018" stop-color="#A5FF21" stop-opacity="0"/>
<stop offset="0.8222" stop-color="#14EB1F"/>
<stop offset="1" stop-color="white" stop-opacity="0.9"/>
</linearGradient>
<linearGradient id="paint24_linear" x1="4.864" y1="15.9542" x2="2.7265" y2="28.6218" gradientUnits="userSpaceOnUse">
<stop offset="0.5632" stop-color="#A5FF21" stop-opacity="0"/>
<stop offset="1" stop-color="#D7BE00" stop-opacity="0.9"/>
</linearGradient>
<linearGradient id="paint25_linear" x1="3.95293" y1="17.1759" x2="8.7778" y2="14.4829" gradientUnits="userSpaceOnUse">
<stop offset="0.0192715" stop-color="#8CC81D"/>
<stop offset="0.723" stop-color="#10C23B" stop-opacity="0.4"/>
</linearGradient>
<linearGradient id="paint26_linear" x1="7.0274" y1="7.0274" x2="22.799" y2="22.799" gradientUnits="userSpaceOnUse">
<stop  offset="0" stop-color="#298B2A"/>
<stop offset="0.092362" stop-color="#216F21"/>
<stop offset="0.2928" stop-color="#103510"/>
<stop offset="0.6895" stop-color="#051005"/>
<stop offset="0.9138"/>
</linearGradient>
</defs>
</svg>
