<svg width="80" height="80" viewBox="0 0 80 80" fill="none" xmlns="http://www.w3.org/2000/svg">
<path d="M72 8H8V72H72V8Z" fill="url(#paint0_linear)"/>
<path d="M60.4001 19.6H19.6001V60.3H60.3001V19.6H60.4001Z" fill="url(#paint1_linear)"/>
<path d="M66.5 13.5H13.5V66.5H66.5V13.5Z" fill="url(#paint2_linear)"/>
<path d="M66.4999 66.5V13.5L60.3999 19.6V60.4L66.4999 66.5Z" fill="url(#paint3_linear)"/>
<path d="M19.6 19.6H60.4L72 8H8L19.6 19.6Z" fill="url(#paint4_linear)"/>
<path d="M60.4 60.4H19.6L8 72H72L60.4 60.4Z" fill="url(#paint5_linear)"/>
<path d="M13.5 66.5H66.5L60.4 60.4H19.6L13.5 66.5Z" fill="url(#paint6_linear)"/>
<path d="M66.4999 66.5V13.5L60.3999 19.6V60.4L66.4999 66.5Z" fill="url(#paint7_linear)"/>
<path d="M13.5 66.5H66.5L60.4 60.4H19.6L13.5 66.5Z" fill="url(#paint8_linear)"/>
<path d="M19.6 60.4V19.6L8 8V72L19.6 60.4Z" fill="url(#paint9_linear)"/>
<path d="M13.5 13.5H66.5L72 8H8L13.5 13.5Z" fill="url(#paint10_linear)"/>
<path d="M66.5 13.5H13.5L19.6 19.6H60.4L66.5 13.5Z" fill="url(#paint11_linear)"/>
<path d="M66.5 13.5H13.5L19.6 19.6H60.4L66.5 13.5Z" fill="url(#paint12_linear)"/>
<path d="M66.5 66.5H13.5L8 72H72L66.5 66.5Z" fill="url(#paint13_linear)"/>
<path d="M66.5 66.5L72 72V8L66.5 13.5V66.5Z" fill="url(#paint14_linear)"/>
<path d="M66.5 66.5H13.5L8 72H72L66.5 66.5Z" fill="url(#paint15_linear)"/>
<path d="M66.5 66.5H13.5L8 72H72L66.5 66.5Z" fill="url(#paint16_linear)"/>
<path d="M66.5 66.5H13.5L8 72H72L66.5 66.5Z" fill="url(#paint17_linear)"/>
<path d="M66.5 66.5H13.5L8 72H72L66.5 66.5Z" fill="url(#paint18_linear)"/>
<path d="M66.5 66.5L72 72V8L66.5 13.5V66.5Z" fill="url(#paint19_linear)"/>
<path d="M66.5 66.5L72 72V8L66.5 13.5V66.5Z" fill="url(#paint20_linear)"/>
<path d="M66.5 66.5L72 72V8L66.5 13.5V66.5Z" fill="url(#paint21_linear)"/>
<path d="M66.5 66.5L72 72V8L66.5 13.5V66.5Z" fill="url(#paint22_linear)"/>
<path d="M13.5 66.5V13.5L8 8V72L13.5 66.5Z" fill="url(#paint23_linear)"/>
<path d="M13.5 66.5V13.5L8 8V72L13.5 66.5Z" fill="url(#paint24_linear)"/>
<path d="M13.5 13.5V66.5L19.6 60.4V19.6L13.5 13.5Z" fill="url(#paint25_linear)"/>
<path d="M63 17H17V63H63V17Z" fill="url(#paint26_linear)"/>
<path d="M39.9 54.3H22.7V57.2001H39.9V54.3Z" fill="white"/>
<path d="M40 54.3H22.8V57.2001H40V54.3Z" fill="white"/>
<path d="M22.9001 22.8H29.9001C34.0001 22.8 36.5001 25.2 36.5001 28.8C36.5001 32.8 33.4001 34.9 29.5001 34.9H26.7001V40H22.9001V22.8ZM29.7001 31.5C31.6001 31.5 32.7001 30.3 32.7001 28.8C32.7001 27.1 31.5001 26.2 29.6001 26.2H26.7001V31.5H29.7001Z" fill="white"/>
<path d="M38.6001 31.4C38.6001 26.5 42.3001 22.4 47.6001 22.4C50.8001 22.4 52.8001 23.5 54.4001 25.1L52.0001 27.9C50.6001 26.7 49.2001 26 47.5001 26C44.6001 26 42.5001 28.4 42.5001 31.4C42.5001 34.4 44.5001 36.8 47.5001 36.8C49.5001 36.8 50.7001 36 52.0001 34.8L54.4001 37.2C52.6001 39.1 50.7001 40.3 47.3001 40.3C42.3001 40.3 38.6001 36.4 38.6001 31.4Z" fill="white"/>
<defs>
<linearGradient id="paint0_linear" x1="79.1546" y1="79.1543" x2="-11.2493" y2="-11.249" gradientUnits="userSpaceOnUse">
<stop offset="0.3475" stop-color="#C8EA23"/>
<stop offset="0.8562" stop-color="#10E899"/>
</linearGradient>
<linearGradient id="paint1_linear" x1="64.9166" y1="64.9165" x2="7.38691" y2="7.38717" gradientUnits="userSpaceOnUse">
<stop offset="0.3475" stop-color="#087CFA"/>
<stop offset="0.8562" stop-color="#FE2857"/>
<stop offset="1" stop-color="#FE2857"/>
</linearGradient>
<linearGradient id="paint2_linear" x1="72.4343" y1="72.4341" x2="-2.4532" y2="-2.4526" gradientUnits="userSpaceOnUse">
<stop stop-color="#FCF84A"/>
<stop offset="0.2816" stop-color="#C1F834"/>
<stop offset="0.7846" stop-color="#10E899"/>
</linearGradient>
<linearGradient id="paint3_linear" x1="61.5888" y1="39.9998" x2="68.9173" y2="39.9998" gradientUnits="userSpaceOnUse">
<stop offset="0.27" stop-color="#FFC320"/>
<stop offset="1" stop-color="#FDB60D" stop-opacity="0"/>
</linearGradient>
<linearGradient id="paint4_linear" x1="86.7317" y1="13.8182" x2="-2.2633" y2="13.8182" gradientUnits="userSpaceOnUse">
<stop offset="0.2576" stop-color="#EFE50C"/>
<stop offset="0.5774" stop-color="#BEFF26"/>
<stop offset="0.8746" stop-color="#00C66E"/>
</linearGradient>
<linearGradient id="paint5_linear" x1="4.7509" y1="66.1814" x2="78.5434" y2="66.1814" gradientUnits="userSpaceOnUse">
<stop offset="0.0242344" stop-color="#F3DF00"/>
<stop offset="0.496" stop-color="#DDFF18"/>
<stop offset="1" stop-color="#97E578"/>
</linearGradient>
<linearGradient id="paint6_linear" x1="39.9726" y1="61.5883" x2="39.9724" y2="68.9168" gradientUnits="userSpaceOnUse">
<stop offset="0.27" stop-color="#FFC320"/>
<stop offset="1" stop-color="#FDB60D" stop-opacity="0"/>
</linearGradient>
<linearGradient id="paint7_linear" x1="61.5888" y1="39.9998" x2="68.9173" y2="39.9998" gradientUnits="userSpaceOnUse">
<stop offset="0.27" stop-color="#A8C320"/>
<stop offset="1" stop-color="#FDB60D" stop-opacity="0"/>
</linearGradient>
<linearGradient id="paint8_linear" x1="39.9726" y1="61.5883" x2="39.9724" y2="68.9168" gradientUnits="userSpaceOnUse">
<stop offset="0.27" stop-color="#A8C320"/>
<stop offset="1" stop-color="#FDB60D" stop-opacity="0"/>
</linearGradient>
<linearGradient id="paint9_linear" x1="13.8185" y1="70.937" x2="13.8185" y2="6.9373" gradientUnits="userSpaceOnUse">
<stop offset="0.2576" stop-color="#EFE50C"/>
<stop offset="0.5774" stop-color="#BEFF26"/>
<stop offset="0.8746" stop-color="#00C66E"/>
</linearGradient>
<linearGradient id="paint10_linear" x1="38.3655" y1="10.3205" x2="15.1992" y2="19.1888" gradientUnits="userSpaceOnUse">
<stop offset="0.1018" stop-color="#A5FF21" stop-opacity="0"/>
<stop offset="0.8222" stop-color="#14EB1F"/>
<stop offset="1" stop-color="white" stop-opacity="0.9"/>
</linearGradient>
<linearGradient id="paint11_linear" x1="59.3494" y1="8.4925" x2="25.6873" y2="20.6108" gradientUnits="userSpaceOnUse">
<stop offset="0.018393" stop-color="#99C81D"/>
<stop offset="0.723" stop-color="#10C299" stop-opacity="0"/>
</linearGradient>
<linearGradient id="paint12_linear" x1="59.3494" y1="8.4925" x2="25.6873" y2="20.6108" gradientUnits="userSpaceOnUse">
<stop offset="0.0192715" stop-color="#8CC81D"/>
<stop offset="0.723" stop-color="#10C23B" stop-opacity="0.4"/>
</linearGradient>
<linearGradient id="paint13_linear" x1="78.8381" y1="76.245" x2="19.2188" y2="66.2212" gradientUnits="userSpaceOnUse">
<stop stop-color="#FCF84A" stop-opacity="0"/>
<stop offset="1" stop-color="#FDD200"/>
</linearGradient>
<linearGradient id="paint14_linear" x1="69.2537" y1="71.1472" x2="69.2537" y2="7.8889" gradientUnits="userSpaceOnUse">
<stop stop-color="#FCF84A" stop-opacity="0"/>
<stop offset="1" stop-color="#FDD200"/>
</linearGradient>
<linearGradient id="paint15_linear" x1="39.9999" y1="65.2938" x2="39.9999" y2="73.6967" gradientUnits="userSpaceOnUse">
<stop stop-color="#FCF84A" stop-opacity="0"/>
<stop offset="1" stop-color="#FDD200"/>
</linearGradient>
<linearGradient id="paint16_linear" x1="39.9999" y1="65.2938" x2="39.9999" y2="73.6967" gradientUnits="userSpaceOnUse">
<stop offset="0.0714497" stop-color="#FFFFA3" stop-opacity="0.5"/>
<stop offset="0.5642" stop-color="#FCF84A" stop-opacity="0"/>
</linearGradient>
<linearGradient id="paint17_linear" x1="39.9999" y1="72.0206" x2="39.9999" y2="65.5535" gradientUnits="userSpaceOnUse">
<stop offset="0.0714497" stop-color="#97DF1E" stop-opacity="0.5"/>
<stop offset="0.5642" stop-color="#FCF84A" stop-opacity="0"/>
</linearGradient>
<linearGradient id="paint18_linear" x1="62.8655" y1="73.3513" x2="-0.00109859" y2="63.2926" gradientUnits="userSpaceOnUse">
<stop offset="0.5632" stop-color="#A5FF21" stop-opacity="0"/>
<stop offset="1" stop-color="#D7BE00" stop-opacity="0.9"/>
</linearGradient>
<linearGradient id="paint19_linear" x1="65.656" y1="39.9999" x2="73.4182" y2="39.9999" gradientUnits="userSpaceOnUse">
<stop stop-color="#FCF84A" stop-opacity="0"/>
<stop offset="1" stop-color="#FDD200"/>
</linearGradient>
<linearGradient id="paint20_linear" x1="65.656" y1="39.9999" x2="73.4182" y2="39.9999" gradientUnits="userSpaceOnUse">
<stop offset="0.0714497" stop-color="#FFFFA3" stop-opacity="0.5"/>
<stop offset="0.5642" stop-color="#FCF84A" stop-opacity="0"/>
</linearGradient>
<linearGradient id="paint21_linear" x1="71.3374" y1="39.9999" x2="67.5819" y2="39.9999" gradientUnits="userSpaceOnUse">
<stop offset="0.0714497" stop-color="#97DF1E" stop-opacity="0.5"/>
<stop offset="0.5642" stop-color="#FCF84A" stop-opacity="0"/>
</linearGradient>
<linearGradient id="paint22_linear" x1="69.8181" y1="41.1499" x2="65.1879" y2="9.1928" gradientUnits="userSpaceOnUse">
<stop offset="0.5632" stop-color="#A5FF21" stop-opacity="0"/>
<stop offset="1" stop-color="#D7BE00" stop-opacity="0.9"/>
</linearGradient>
<linearGradient id="paint23_linear" x1="6.7059" y1="53.5953" x2="16.8793" y2="12.4528" gradientUnits="userSpaceOnUse">
<stop offset="0.1018" stop-color="#A5FF21" stop-opacity="0"/>
<stop offset="0.8222" stop-color="#14EB1F"/>
<stop offset="1" stop-color="white" stop-opacity="0.9"/>
</linearGradient>
<linearGradient id="paint24_linear" x1="10.3039" y1="39.8778" x2="4.604" y2="73.6581" gradientUnits="userSpaceOnUse">
<stop offset="0.5632" stop-color="#A5FF21" stop-opacity="0"/>
<stop offset="1" stop-color="#D7BE00" stop-opacity="0.9"/>
</linearGradient>
<linearGradient id="paint25_linear" x1="7.8742" y1="43.1357" x2="20.7406" y2="35.9545" gradientUnits="userSpaceOnUse">
<stop offset="0.0192715" stop-color="#8CC81D"/>
<stop offset="0.723" stop-color="#10C23B" stop-opacity="0.4"/>
</linearGradient>
<linearGradient id="paint26_linear" x1="17.07" y1="17.07" x2="57.3751" y2="57.3751" gradientUnits="userSpaceOnUse">
<stop stop-color="#298B2A"/>
<stop offset="0.092362" stop-color="#216F21"/>
<stop offset="0.2928" stop-color="#103510"/>
<stop offset="0.6895" stop-color="#051005"/>
<stop offset="0.9138"/>
</linearGradient>
</defs>
</svg>
