<svg width="16" height="16" viewBox="0 0 16 16" fill="none" xmlns="http://www.w3.org/2000/svg">
  <path fill-rule="evenodd" clip-rule="evenodd" d="M14 12V6C14 5.44772 13.5523 5 13 5H9.41421C8.88378 5 8.37507 4.78929 8 4.41421L6.87868 3.29289C6.69114 3.10536 6.43679 3 6.17157 3H3C2.44772 3 2 3.44772 2 4V12C2 12.5523 2.44772 13 3 13H13C13.5523 13 14 12.5523 14 12ZM3 2C1.89543 2 1 2.89543 1 4V12C1 13.1046 1.89543 14 3 14H13C14.1046 14 15 13.1046 15 12V6C15 4.89543 14.1046 4 13 4H9.41421C9.149 4 8.89464 3.89464 8.70711 3.70711L7.58579 2.58579C7.21071 2.21071 6.70201 2 6.17157 2H3Z" fill="#1D273D" fill-opacity="0.9"/>
</svg>
