<svg width="64" height="64" viewBox="0 0 64 64" fill="none" xmlns="http://www.w3.org/2000/svg">
<path d="M28.9 35.5L23.3 38.7L23 44.6L14.7 48.1L4.30005 49.1L6.60005 11.9L27.8 3L50.8 24.1L28.9 35.5Z" fill="url(#paint0_linear)"/>
<path d="M42.4 12.9L60.6 25.1L54.5 38.7L44.3 35.8H35.5L42.4 12.9Z" fill="url(#paint1_linear)"/>
<path d="M32.6 45.9L17.3 10.3L27.8 3L60.5 25.1L32.6 45.9Z" fill="url(#paint2_linear)"/>
<path d="M6.59998 11.9L27.8 3L17.3 10.3L6.59998 11.9Z" fill="url(#paint3_linear)"/>
<path d="M6.6 11.9L27.8 3L17.3 10.3L3 49.4L6.6 11.9Z" fill="url(#paint4_linear)"/>
<path d="M24.7 22.2L34.1 52.6L22.9 61L3 49.4L8.2 34.7L24.2 18.4L24.7 22.2Z" fill="#21D789"/>
<path d="M20.7 46L3 49.4L22.9 61L34.1 52.6L20.7 46Z" fill="url(#paint5_linear)"/>
<path d="M20.7 46L3 49.4L8.2 34.7L24.2 18.4L20.7 46Z" fill="url(#paint6_linear)"/>
<path d="M25.5 44.7L34 52.6L22.9 61L25.5 44.7Z" fill="url(#paint7_linear)"/>
<path d="M61 54.9L43.3 60.9L19.8 54.3L24.2001 18.4L46.1 3L48.3 19L42.4001 31.9L53.8 27.5L56.1 36.3L61 54.9Z" fill="url(#paint8_linear)"/>
<path d="M61 54.9L43.3 60.9L53.8 27.5L61 54.9Z" fill="url(#paint9_linear)"/>
<path d="M46.1 3L37.8 21.5L31.3 35.9L42.4001 31.9L48.5 18.9L46.1 3Z" fill="url(#paint10_linear)"/>
<path d="M6.59998 11.9L27.8 3L17.3 10.3L6.59998 11.9Z" fill="url(#paint11_linear)"/>
<path d="M61 54.9L43.3 60.9L19.8 54.3L34 52.8L61 54.9Z" fill="url(#paint12_linear)"/>
<path d="M45.6 53.7L43.3 60.9L61 54.9L45.6 53.7Z" fill="url(#paint13_linear)"/>
<path d="M50 14H14V50H50V14Z" fill="url(#paint14_linear)"/>
<g opacity="0.3">
<path opacity="0.3" d="M50 32.9V18.2L47.85 16.75L48.2001 19.1L42.3 31.9L50 28.95V32.9Z" fill="url(#paint15_linear)"/>
<path opacity="0.3" d="M50 50V28.95L42.3 31.9L48.2 19.1L47.5 14H30.65L24.25 18.5L20.35 50H50Z" fill="url(#paint16_linear)"/>
<path opacity="0.3" d="M37.8 21.55L31.25 35.85L42.3 31.9L48.35 18.95L47.65 14H41.2L37.8 21.55Z" fill="url(#paint17_linear)"/>
<path opacity="0.3" d="M18.95 14H14V29L21.9 20.9L18.95 14Z" fill="url(#paint18_linear)"/>
<path opacity="0.3" d="M14 47.25L20.8 45.95L24.25 18.5L14 29V47.25Z" fill="url(#paint19_linear)"/>
</g>
<path d="M31.9999 43.1999H18.3999V45.3999H31.9999V43.1999Z" fill="white"/>
<path d="M18.4 18.4H23.9C27.1 18.4 29.1 20.3 29.1 23.1C29.1 26.2 26.7 27.9 23.6 27.9H21.4V32H18.4V18.4V18.4ZM23.7 25.2C25.2 25.2 26.1 24.3 26.1 23.1C26.1 21.8 25.2 21 23.7 21H21.4V25.2H23.7Z" fill="white"/>
<path d="M30.8 25.2C30.8 21.3 33.7 18.1 37.9 18.1C40.5 18.1 42 19 43.3 20.2L41.4 22.4C40.4 21.4 39.3 20.9 37.9 20.9C35.6 20.9 34 22.8 34 25.1C34 27.4 35.6 29.4 37.9 29.4C39.5 29.4 40.4 28.8 41.5 27.8L43.4 29.7C42 31.2 40.5 32.1 37.8 32.1C33.7 32.2 30.8 29.1 30.8 25.2Z" fill="white"/>
<defs>
<linearGradient id="paint0_linear" x1="-16.1032" y1="51.0762" x2="53.9893" y2="-0.6659" gradientUnits="userSpaceOnUse">
<stop offset="0.0107527" stop-color="#FCF84A"/>
<stop offset="0.1116" stop-color="#A7EB62"/>
<stop offset="0.2056" stop-color="#5FE077"/>
<stop offset="0.2727" stop-color="#32DA84"/>
<stop offset="0.3065" stop-color="#21D789"/>
<stop offset="0.5768" stop-color="#21D789"/>
<stop offset="0.5968" stop-color="#21D789"/>
<stop offset="0.686" stop-color="#20D68C"/>
<stop offset="0.7627" stop-color="#1ED497"/>
<stop offset="0.8348" stop-color="#19D1A9"/>
<stop offset="0.904" stop-color="#13CCC2"/>
<stop offset="0.9707" stop-color="#0BC6E1"/>
<stop offset="1" stop-color="#07C3F2"/>
</linearGradient>
<linearGradient id="paint1_linear" x1="44.0182" y1="17.7885" x2="52.4769" y2="44.5364" gradientUnits="userSpaceOnUse">
<stop  offset="0" stop-color="#009AE5"/>
<stop offset="1" stop-color="#07C3F2"/>
</linearGradient>
<linearGradient id="paint2_linear" x1="10.3121" y1="15.4459" x2="54.459" y2="35.4313" gradientUnits="userSpaceOnUse">
<stop offset="0.0344093" stop-color="#10E899"/>
<stop offset="0.1745" stop-color="#13E596"/>
<stop offset="0.2947" stop-color="#1EDA8C"/>
<stop offset="0.3185" stop-color="#21D789"/>
<stop offset="0.3975" stop-color="#20D68C"/>
<stop offset="0.4653" stop-color="#1ED497"/>
<stop offset="0.529" stop-color="#19D1A9"/>
<stop offset="0.5903" stop-color="#13CCC2"/>
<stop offset="0.6492" stop-color="#0BC6E1"/>
<stop offset="0.6752" stop-color="#07C3F2"/>
<stop offset="0.9215" stop-color="#07EBFF"/>
</linearGradient>
<linearGradient id="paint3_linear" x1="19.6698" y1="11.1635" x2="15.7979" y2="5.3865" gradientUnits="userSpaceOnUse">
<stop  offset="0" stop-color="#07C3F2"/>
<stop offset="0.1949" stop-color="#0BC6E2"/>
<stop offset="0.5746" stop-color="#15CEB8"/>
<stop offset="0.9463" stop-color="#21D789"/>
</linearGradient>
<linearGradient id="paint4_linear" x1="-3.3908" y1="16.8086" x2="19.1806" y2="28.0943" gradientUnits="userSpaceOnUse">
<stop offset="0.030218" stop-color="#C1EF5B"/>
<stop offset="0.2486" stop-color="#9DEA65"/>
<stop offset="0.7318" stop-color="#41DC80"/>
<stop offset="0.896" stop-color="#21D789"/>
</linearGradient>
<linearGradient id="paint5_linear" x1="25.2536" y1="34.7307" x2="12.2679" y2="66.3593" gradientUnits="userSpaceOnUse">
<stop offset="0.1026" stop-color="#087CFA"/>
<stop offset="0.2273" stop-color="#0C89EA" stop-opacity="0.8064"/>
<stop offset="0.4716" stop-color="#15ABC0" stop-opacity="0.427"/>
<stop offset="0.7466" stop-color="#21D789" stop-opacity="0"/>
</linearGradient>
<linearGradient id="paint6_linear" x1="13.2034" y1="16.938" x2="13.9562" y2="49.4107" gradientUnits="userSpaceOnUse">
<stop offset="0.0108126" stop-color="#FCF84A"/>
<stop offset="0.0924045" stop-color="#ECF64F"/>
<stop offset="0.2525" stop-color="#C1EF5B"/>
<stop offset="0.4754" stop-color="#7DE56F"/>
<stop offset="0.7466" stop-color="#21D789"/>
</linearGradient>
<linearGradient id="paint7_linear" x1="22.8917" y1="52.8286" x2="34.0443" y2="52.8286" gradientUnits="userSpaceOnUse">
<stop  offset="0" stop-color="#13A5C7"/>
<stop offset="1" stop-color="#21D789"/>
</linearGradient>
<linearGradient id="paint8_linear" x1="72.9051" y1="57.2438" x2="13.3957" y2="14.6308" gradientUnits="userSpaceOnUse">
<stop offset="0.4732" stop-color="#FCF84A"/>
<stop offset="0.5319" stop-color="#ECF74C"/>
<stop offset="0.647" stop-color="#C1F451"/>
<stop offset="0.8056" stop-color="#7EEF5A"/>
<stop offset="0.9489" stop-color="#3BEA62"/>
</linearGradient>
<linearGradient id="paint9_linear" x1="71.3111" y1="40.3333" x2="23.8164" y2="48.392" gradientUnits="userSpaceOnUse">
<stop offset="0.2756" stop-color="#FCF84A"/>
<stop offset="0.3649" stop-color="#ECF74C"/>
<stop offset="0.5402" stop-color="#C1F451"/>
<stop offset="0.7817" stop-color="#7EEF5A"/>
<stop offset="1" stop-color="#3BEA62"/>
</linearGradient>
<linearGradient id="paint10_linear" x1="52.774" y1="38.9739" x2="34.8277" y2="14.0549" gradientUnits="userSpaceOnUse">
<stop offset="0.1216" stop-color="#FCF84A"/>
<stop offset="0.2021" stop-color="#F3F74B"/>
<stop offset="0.3351" stop-color="#DAF350"/>
<stop offset="0.5044" stop-color="#B1ED56"/>
<stop offset="0.7031" stop-color="#78E55F"/>
<stop offset="0.9242" stop-color="#30DB6B"/>
<stop offset="1" stop-color="#16D76F"/>
</linearGradient>
<linearGradient id="paint11_linear" x1="8.03918" y1="6.5337" x2="24.2026" y2="8.1596" gradientUnits="userSpaceOnUse">
<stop  offset="0" stop-color="#FCF84A"/>
<stop offset="0.1636" stop-color="#D8F957"/>
<stop offset="0.529" stop-color="#7BFC79"/>
<stop offset="0.9855" stop-color="#00FFA6"/>
</linearGradient>
<linearGradient id="paint12_linear" x1="60.0193" y1="52.742" x2="15.1178" y2="60.3607" gradientUnits="userSpaceOnUse">
<stop offset="0.0899703" stop-color="#3BEA62"/>
<stop offset="0.1675" stop-color="#67ED5C"/>
<stop offset="0.25" stop-color="#8FF058"/>
<stop offset="0.3382" stop-color="#B1F353"/>
<stop offset="0.4319" stop-color="#CCF550"/>
<stop offset="0.5329" stop-color="#E1F64D"/>
<stop offset="0.6448" stop-color="#F0F74B"/>
<stop offset="0.776" stop-color="#F9F84A"/>
<stop offset="0.9744" stop-color="#FCF84A"/>
</linearGradient>
<linearGradient id="paint13_linear" x1="47.5691" y1="51.6538" x2="56.8465" y2="64.2784" gradientUnits="userSpaceOnUse">
<stop  offset="0" stop-color="#3BEA62"/>
<stop offset="0.0877078" stop-color="#67ED5C"/>
<stop offset="0.1809" stop-color="#8FF058"/>
<stop offset="0.2807" stop-color="#B1F353"/>
<stop offset="0.3866" stop-color="#CCF550"/>
<stop offset="0.5008" stop-color="#E1F64D"/>
<stop offset="0.6273" stop-color="#F0F74B"/>
<stop offset="0.7757" stop-color="#F9F84A"/>
<stop offset="1" stop-color="#FCF84A"/>
</linearGradient>
<linearGradient id="paint14_linear" x1="13.4445" y1="16.8724" x2="50.2967" y2="46.9166" gradientUnits="userSpaceOnUse">
<stop  offset="0" stop-color="#2C4915"/>
<stop offset="0.479167"/>
</linearGradient>
<linearGradient id="paint15_linear" x1="43.8076" y1="23.7595" x2="52.1535" y2="27.5377" gradientUnits="userSpaceOnUse">
<stop offset="0.3185" stop-color="#21D789" stop-opacity="0"/>
<stop offset="0.4209" stop-color="#20D68C" stop-opacity="0.2213"/>
<stop offset="0.509" stop-color="#1ED497" stop-opacity="0.4115"/>
<stop offset="0.5917" stop-color="#19D1A9" stop-opacity="0.5903"/>
<stop offset="0.6711" stop-color="#13CCC2" stop-opacity="0.762"/>
<stop offset="0.7476" stop-color="#0BC6E1" stop-opacity="0.9273"/>
<stop offset="0.7813" stop-color="#07C3F2"/>
</linearGradient>
<linearGradient id="paint16_linear" x1="22.3444" y1="22.5642" x2="51.3463" y2="46.2083" gradientUnits="userSpaceOnUse">
<stop offset="0.0268021" stop-color="#FCF84A"/>
<stop offset="0.093679" stop-color="#E5E543"/>
<stop offset="0.3358" stop-color="#94A22C"/>
<stop offset="0.5509" stop-color="#556D19"/>
<stop offset="0.731" stop-color="#27470B"/>
<stop offset="0.8692" stop-color="#0B3003"/>
<stop offset="0.9489" stop-color="#002700"/>
</linearGradient>
<linearGradient id="paint17_linear" x1="32.6001" y1="6.38565" x2="42.3061" y2="32.6489" gradientUnits="userSpaceOnUse">
<stop offset="0.1216" stop-color="#21D789"/>
<stop offset="0.2439" stop-color="#1FCE80"/>
<stop offset="0.4459" stop-color="#18B667"/>
<stop offset="0.7026" stop-color="#0E8E3E"/>
<stop offset="1" stop-color="#005806"/>
</linearGradient>
<linearGradient id="paint18_linear" x1="14" y1="21.4908" x2="21.917" y2="21.4908" gradientUnits="userSpaceOnUse">
<stop offset="0.0108126" stop-color="#FCF84A"/>
<stop offset="0.0924045" stop-color="#ECF64F"/>
<stop offset="0.2525" stop-color="#C1EF5B"/>
<stop offset="0.4754" stop-color="#7DE56F"/>
<stop offset="0.7466" stop-color="#21D789"/>
</linearGradient>
<linearGradient id="paint19_linear" x1="14.481" y1="29.0836" x2="26.119" y2="38.5716" gradientUnits="userSpaceOnUse">
<stop offset="0.0108126" stop-color="#FCF84A"/>
<stop offset="0.0924045" stop-color="#ECF64F"/>
<stop offset="0.2525" stop-color="#C1EF5B"/>
<stop offset="0.4754" stop-color="#7DE56F"/>
<stop offset="0.7466" stop-color="#21D789"/>
</linearGradient>
</defs>
</svg>
