<svg width="64" height="64" viewBox="0 0 64 64" fill="none" xmlns="http://www.w3.org/2000/svg">
<path fill-rule="evenodd" clip-rule="evenodd" d="M25.5603 7.7384C25.0568 8.74588 24.7252 9.98456 24.6964 11.504C24.574 17.949 24.9733 16.9522 24.727 19.9096C24.6137 21.2691 24.463 21.7738 23.7795 23.4136C23.0358 25.1978 22.2385 26.2135 21.132 27.7767C19.7595 29.7157 17.8678 32.3721 16.8321 34.5014C16.24 35.7096 15.7459 37.5518 15.5618 38.7742C15.4386 39.5914 15.4244 40.648 15.4519 41.638C14.722 42.28 14.3471 43.3608 13.5971 44.1852C13.1133 44.7156 12.1782 44.8876 11.1418 45.0908C10.2526 45.2632 9.31184 45.6136 8.98296 46.1496C8.94624 46.2092 8.91304 46.2712 8.88256 46.3352C8.13372 47.7944 9.05024 50.2992 8.60324 52.152C8.41396 52.9396 8.09076 53.6808 8.085 54.3604C8.083 54.7104 8.16148 55.082 8.40244 55.504C8.66632 55.9684 9.24572 56.2996 10.0699 56.588C10.8386 56.8568 11.8368 57.0932 12.9975 57.37L13.3991 57.4648C13.9211 57.5904 14.4412 57.7164 14.9671 57.8228C15.3094 57.8944 15.5083 57.9292 15.6784 57.96C16.4184 58.0936 16.6995 58.146 18.6729 58.926C19.149 59.1136 19.6768 59.3148 20.2352 59.4872C21.3385 59.8336 22.5853 60.0852 23.7364 59.8744C24.3197 59.768 24.8704 59.5432 25.3599 59.1564C25.8666 58.7556 26.3542 58.2156 26.7004 57.668C26.7929 57.522 26.8785 57.3708 26.9534 57.2152C27.019 57.0836 27.0773 56.9492 27.1259 56.812C27.1723 56.6868 27.211 56.5568 27.2392 56.4264C27.7035 56.192 28.8524 55.8384 31.588 55.8116C35.7107 55.7712 38.4566 57.2768 38.4566 57.2768L38.4586 57.246C38.493 57.4436 38.5351 57.6272 38.5887 57.8032C38.6671 58.0608 38.7722 58.2968 38.9137 58.5252C39.0572 58.7516 39.235 58.9664 39.4606 59.1776C39.7054 59.406 39.9999 59.6168 40.3364 59.7968C40.65 59.9632 41.002 60.1028 41.388 60.2052C41.74 60.2984 42.1204 60.36 42.524 60.3796C42.9008 60.3988 43.2944 60.3816 43.7056 60.3216C44.4 60.2208 44.9352 59.9984 45.396 59.71C45.8456 59.4292 46.2128 59.0924 46.5876 58.748L46.5988 58.7384C46.8456 58.512 47.096 58.2816 47.3732 58.0704C47.5588 57.9292 47.7292 57.7976 47.8916 57.67C48.1324 57.482 48.2664 57.3756 48.402 57.2672C48.8096 56.944 49.23 56.6072 49.6508 56.29C50.0868 55.9628 50.5496 55.63 51.0524 55.3048C51.4332 55.0572 51.8612 54.7764 52.2724 54.5036C52.6972 54.2212 53.1404 53.9248 53.5592 53.6344C54.3072 53.1204 55.3396 52.4832 55.7308 51.6552C55.8612 51.3992 55.9316 51.1248 55.9124 50.8296C55.8512 49.8832 54.744 49.0296 53.7652 48.182C53.2888 47.7676 52.8088 47.3572 52.5584 46.9372C52.356 46.5988 52.1112 46.0876 52.0424 45.716C51.8488 44.6856 51.8532 43.916 51.3712 43.2352C50.9288 42.6104 50.542 42.4308 49.86 42.3528C49.758 42.3412 49.662 42.3264 49.5688 42.3112C50.0116 40.6608 50.1588 39.609 50.0296 38.2301C49.5768 33.3995 46.5204 29.8625 44.8588 27.4679C43.774 25.9048 42.5168 24.2959 41.9744 23.2246C41.432 22.1532 41.0284 20.6628 40.764 19.7995C40.5036 18.9492 40.366 16.9265 40.3316 13.646C40.454 8.61964 38.9167 6.29908 37.0562 4.85136C35.1956 3.40367 32.4649 3.4269 31.4802 3.51398V3.51396C30.6546 3.58682 27.1814 4.43004 25.5604 7.73844L25.5603 7.7384Z" fill="#191919"/>
<path fill-rule="evenodd" clip-rule="evenodd" d="M13.1846 45.1196C12.2062 45.5956 9.95316 45.586 9.4066 46.5336C8.8066 47.576 9.19452 48.7308 9.20024 50.0616C9.20224 51.0036 9.18684 52.0516 8.79516 53.1676C8.47408 54.0864 8.36516 54.4116 8.82568 55.22C9.2862 56.0304 11.285 56.4192 13.989 57.0728C16.6949 57.7248 15.8331 57.2432 18.8619 58.4404C20.7384 59.1828 23.387 60.094 25.103 58.738C25.7356 58.2372 26.7732 57.104 26.8362 55.9996C26.8726 55.3688 26.8152 54.6956 26.6662 54.2876C26.1712 52.926 25.1814 52.344 24.2412 50.9204C22.5194 48.2764 20.6907 45.7696 19.2288 43.5684C18.1969 42.0116 17.3676 41.6344 16.6662 41.7584C14.5107 42.1432 15.2063 44.1372 13.1845 45.1196H13.1846Z" fill="#FCC624"/>
<path fill-rule="evenodd" clip-rule="evenodd" d="M40.6024 42.8688C39.653 43.5476 39.8586 45.5824 39.803 46.6544C39.7184 48.2944 39.7068 50.1228 39.6511 50.8504C39.5588 52.0544 38.6574 54.774 38.767 56.058C38.8747 57.34 38.9669 58.0908 39.7549 58.8264C40.5448 59.5616 41.9344 60.11 43.6508 59.8592C45.3672 59.6084 46.0168 58.5284 47.1296 57.6844C48.2404 56.84 49.384 55.8384 50.8524 54.8852C52.3208 53.93 54.6848 52.366 55.0252 51.9436C55.3652 51.5196 55.596 51.154 55.35 50.5976C55.1056 50.0412 54.2488 49.1812 53.3124 48.3992C50.8716 46.3568 51.9256 44.458 50.9064 43.4544C50.5952 43.1152 50.3644 42.9284 50.0032 42.854C48.0552 42.4524 47.52 43.2268 46.3764 43.1132C45.1428 42.9904 45.6064 43.2648 43.0748 42.9228C42.2032 42.8228 41.204 42.4732 40.6024 42.8688Z" fill="#FCC624"/>
<path fill-rule="evenodd" clip-rule="evenodd" d="M24.6857 27.2842C23.8154 29.2104 23.8581 28.5559 23.2733 30.5692C22.4611 31.3151 21.5707 33.3192 20.9845 35.0443C20.2359 37.5515 19.6734 40.1292 20.3726 43.128C20.6499 43.4328 20.875 43.7212 21.1276 43.9632C21.5288 44.348 21.9607 44.6596 22.4884 45.0656C24.356 46.502 25.6648 47.2608 25.9223 48.1948C26.2651 49.4384 25.4967 50.2608 24.5385 50.7664C25.2391 51.476 27.4755 52.9296 31.5536 52.7476C35.1452 52.588 37.3974 51.212 39.32 48.8384C39.3322 48.292 39.3913 47.378 39.418 46.3916C39.4436 45.4492 39.4489 44.5056 39.5914 43.7736C39.625 43.6016 39.6891 43.4384 39.7466 43.2948C39.9812 42.7092 40.6124 42.3104 41.2164 42.2816C41.534 42.2664 41.8676 42.2432 42.1864 42.31C42.6736 38.456 42.2876 35.7948 40.3632 31.7129C40.214 31.4266 39.5011 30.2125 39.0754 29.8698C38.7428 28.2227 38.699 28.3035 38.0335 26.7956C37.0242 24.5089 36.6585 21.8657 36.3508 20.3124C36.1406 20.4226 35.7736 20.5774 35.2136 21.0165C34.8066 21.3376 34.0536 22.005 33.4764 22.4092C33.0996 22.6733 32.6871 22.9016 32.2813 23.0804C31.6974 23.3378 31.1273 23.4927 30.6976 23.5041C29.1575 23.5865 28.4248 23.2004 27.7226 22.4598C27.4281 22.1491 27.205 21.8087 26.8334 21.3934C26.6688 21.2094 26.441 20.965 26.2088 20.797C26.2024 21.0012 25.5559 25.3581 24.6857 27.2842ZM31.5978 15.7802C31.55 15.3507 31.5366 14.5654 31.8309 13.5769C32.2858 12.0604 33.9294 11.0449 35.3207 11.7606C36.712 12.4763 36.9691 14.3344 36.6356 15.3817C36.4306 16.0253 35.9442 16.7782 35.5768 17.2503C35.292 17.1323 34.9404 17.0027 34.5027 16.8499C34.755 16.7028 34.9805 16.4707 35.1468 16.1632C35.6074 15.314 35.443 14.2094 34.7837 13.6949C34.1224 13.1804 33.2146 13.4531 32.7559 14.3023C32.4349 14.8942 32.4176 15.6119 32.6604 16.1651C32.2686 16.0123 31.9265 15.8808 31.5978 15.7802V15.7802ZM26.495 12.1358C27.7984 11.6754 28.5782 12.78 28.8954 14.3603C28.991 14.8458 28.9986 15.3314 28.9413 15.7763C28.905 15.7878 28.8687 15.8034 28.8304 15.8188C28.6775 15.8788 28.5132 15.9542 28.3316 16.049C28.3603 15.9465 28.3813 15.8362 28.3947 15.7202C28.4979 14.8362 28.0851 13.9212 27.4716 13.6794C26.8581 13.4376 26.2771 13.9599 26.1739 14.8439C26.0746 15.6931 26.451 16.5694 27.0225 16.8518C26.9498 16.9021 26.8753 16.9543 26.8008 17.0085C26.7052 17.0742 26.6097 17.1458 26.516 17.2193C26.063 16.7763 25.7592 16.0625 25.5872 15.312C25.2757 13.9502 25.612 12.4472 26.495 12.1358H26.495Z" fill="#F5F5F5"/>
<path fill-rule="evenodd" clip-rule="evenodd" d="M26.0726 20.2364C26.0946 20.26 26.0864 20.3018 26.1109 20.3265C26.3993 20.6172 26.7328 20.9021 27.0236 21.2355C27.3579 21.6189 27.6643 22.0477 27.9489 22.3104C28.4721 22.7936 28.9692 23.0518 29.6954 23.1425C31.0978 23.3177 32.1464 22.9241 33.3291 22.1346C33.8856 21.763 34.6562 21.0778 35.1017 20.7391C35.8436 20.174 36.0559 20.2185 36.2758 19.934C36.5034 19.6379 36.6142 18.8637 36.5473 18.4979C36.4938 18.2154 36.3963 18.0276 36.0941 17.8341C35.7576 17.6192 35.1782 17.3928 34.1742 17.0483L34.1722 17.0464H34.1703L34.1683 17.0445H34.1645L34.1625 17.0426H34.1605H34.1585L34.1546 17.0406H34.1526L34.1506 17.0387H34.1468L34.1448 17.0368H34.1428H34.1408L34.137 17.0349H34.135L34.133 17.033H34.1292L34.1272 17.031H34.1252L34.1232 17.0291H34.1195H34.1175L34.1154 17.0272H34.1134L34.1097 17.0253H34.1077L34.1057 17.0234H34.1037H34.1L34.098 17.0214H34.096L34.0922 17.0195H34.0902L34.0882 17.0176H34.0862L34.0824 17.0157H34.0804H34.0784L34.0764 17.0138H34.0725L34.0705 17.0118H34.0685L34.0665 17.0099H34.0645H34.0625H34.0605L34.0585 17.008H34.0565L34.0527 17.0061H34.0506L34.0486 17.0042H34.0466H34.0429L34.0409 17.0022H34.0389L34.0369 17.0004H34.0349H34.0329L34.0309 16.9984H34.0289H34.0269L34.023 16.9965H34.021L34.019 16.9946H34.017L34.0075 16.9907L33.9826 16.981H33.9789L33.9616 16.9752L33.956 16.9733L33.9426 16.9675L33.9292 16.9636L33.9253 16.9617L33.9062 16.9559L33.9024 16.954L33.8776 16.9444L33.8719 16.9424L33.8528 16.9366L33.8507 16.9347L33.8259 16.927L33.8182 16.9231L33.7991 16.9173L33.7743 16.9077L33.7494 16.898H33.7474L33.7302 16.8922L33.7226 16.8903L33.7112 16.8845L33.6977 16.8806L33.6939 16.8787L33.6767 16.8729L33.6728 16.871L33.648 16.8613L33.6423 16.8594L33.6251 16.8536H33.6231L33.6097 16.8478L33.5983 16.8439L33.5926 16.842L33.5754 16.8343L33.5505 16.8265L33.541 16.8226L33.5257 16.8168H33.5237L33.5084 16.8091L33.5027 16.8072L33.4778 16.7994L33.474 16.7975L33.4587 16.7917L33.455 16.7898L33.4416 16.7859L33.43 16.782L33.4262 16.7801L33.409 16.7724H33.407L33.3936 16.7666L33.384 16.7627L33.3765 16.7608L33.3612 16.755H33.3592L33.3362 16.7453L33.3133 16.7375L33.3113 16.7356L33.296 16.7298L33.2902 16.7279L33.2807 16.724L33.2673 16.7202L33.2653 16.7182L33.2481 16.7124L33.2443 16.7105L33.2328 16.7066L33.2213 16.7028L33.2176 16.7008L33.2023 16.695L33.1985 16.6931L33.1871 16.6892L33.1775 16.6854L33.1698 16.6834L33.1546 16.6757L33.1392 16.6699L33.1316 16.668L33.1105 16.6583H33.1085L33.0932 16.6525L33.0875 16.6506L33.078 16.6467L33.0665 16.6428L33.0645 16.6409L33.0492 16.6351L33.0435 16.6332L33.0224 16.6254L33.0186 16.6235L33.0034 16.6177H33.0014L32.988 16.6119L32.9803 16.608L32.9747 16.6061L32.9594 16.6003H32.9574L32.9536 16.5984L32.9498 16.5965L32.944 16.5946L32.9402 16.5927H32.9364V16.5908H32.9307L32.9268 16.5888L32.9212 16.5869L32.9174 16.585L32.9154 16.5831L32.9077 16.5812L32.9039 16.5792L32.8982 16.5773L32.8944 16.5754L32.8886 16.5735L32.8848 16.5716L32.881 16.5696L32.8753 16.5677H32.8733L32.8713 16.5658H32.8656L32.8618 16.5639L32.858 16.562L32.8522 16.5601L32.8485 16.5582L32.8428 16.5562L32.8389 16.5543L32.8313 16.5524L32.8293 16.5505L32.8254 16.5486L32.8197 16.5466L32.8158 16.5447L32.812 16.5428H32.8101H32.8063L32.8024 16.5409L32.7986 16.539L32.7929 16.537L32.7909 16.5352H32.7889L32.785 16.5332L32.7793 16.5313L32.7756 16.5294L32.7699 16.5275L32.766 16.5256L32.7622 16.5236H32.7566L32.7527 16.5217L32.7489 16.5198L32.7432 16.5179L32.7393 16.516L32.7355 16.5141L32.7298 16.5122L32.7259 16.5102L32.7221 16.5083L32.7164 16.5064L32.7125 16.5044H32.7088L32.703 16.5026L32.6992 16.5006L32.6954 16.4987L32.6916 16.4968H32.6896L32.6858 16.4949L32.682 16.493L32.6781 16.4911L32.6725 16.4891H32.6686C31.6494 16.0885 30.9878 15.8292 30.0585 15.8601C29.7354 15.8698 29.4064 15.9066 28.9437 16.0924L28.9207 16.102L28.8978 16.1098V16.1117L28.8787 16.1194H28.8748V16.1213H28.8728L28.8518 16.1291V16.131L28.8346 16.1368L28.8231 16.1426L28.8097 16.1484L28.8059 16.1503H28.8039L28.7848 16.1581L28.781 16.16L28.779 16.1619L28.758 16.1716H28.756L28.7369 16.1812H28.7331L28.7311 16.1832L28.7177 16.189L28.7139 16.1909L28.7062 16.1948L28.6871 16.2044H28.6851L28.6813 16.2064L28.6679 16.2122L28.6603 16.216L28.6566 16.218L28.6432 16.2237L28.6393 16.2256L28.6317 16.2295L28.6183 16.2353L28.6106 16.2392L28.6049 16.2431L28.5915 16.2489H28.5895L28.5799 16.2547L28.5665 16.2605L28.5531 16.2682L28.5398 16.274L28.5264 16.2817L28.513 16.2875L28.511 16.2894L28.5014 16.2933L28.4994 16.2952L28.486 16.301L28.4726 16.3088L28.4592 16.3146L28.4478 16.3223H28.4458L28.4324 16.3301H28.4304L28.4208 16.3359H28.4188L28.4035 16.3436L28.3921 16.3514H28.3901L28.3767 16.3592L28.3633 16.3669L28.348 16.3746L28.3346 16.3804V16.3823L28.3193 16.3901L28.306 16.3959V16.3978L28.2906 16.4056L28.2792 16.4114L28.2772 16.4133L28.2619 16.421L28.2486 16.4288L28.2332 16.4365L28.218 16.4462C28.1893 16.4616 28.1587 16.4791 28.1281 16.4965L28.1128 16.5062L28.0975 16.514L28.088 16.5198L28.0707 16.5314L28.0612 16.5372H28.0592L28.0572 16.5391L28.0419 16.5468L28.0323 16.5526L28.0247 16.5584L28.0055 16.57L27.996 16.5758L27.9769 16.5855L27.9673 16.5913L27.9386 16.6087L27.9291 16.6145L27.91 16.6261L27.9004 16.6339L27.8794 16.6454L27.8698 16.6512L27.8449 16.6667L27.8429 16.6686H27.8409L27.8314 16.6744L27.8104 16.688L27.8008 16.6938L27.7817 16.7054L27.7797 16.7073H27.7777V16.7092H27.7757L27.7737 16.7111H27.7717V16.7131H27.7697L27.7676 16.715L27.7638 16.7169H27.7618L27.7523 16.7246H27.7503L27.7482 16.7265L27.7462 16.7284H27.7442H27.7422V16.7304H27.7402L27.7382 16.7322H27.7362V16.7342H27.7342L27.7113 16.7496H27.7093L27.7073 16.7516L27.6978 16.7574L27.6767 16.7709L27.6671 16.7767L27.6651 16.7786L27.646 16.7902L27.6345 16.798L27.6249 16.8038L27.6134 16.8116L27.6039 16.8173L27.5924 16.8251L27.5714 16.8386L27.5599 16.8464L27.5388 16.86L27.5293 16.8677L27.5178 16.8735L27.5064 16.8812L27.4968 16.889L27.4854 16.8948L27.4739 16.9025L27.4625 16.9102L27.4529 16.918L27.4453 16.9219L27.4319 16.9316L27.4242 16.9354L27.4166 16.9412L27.409 16.9451L27.4032 16.9509L27.3956 16.9548L27.3879 16.9606L27.3803 16.9644L27.3745 16.9702L27.3592 16.9799L27.3517 16.9838L27.346 16.9896L27.3384 16.9935L27.3307 16.9992H27.3287L27.323 17.0031L27.3153 17.0089L27.3096 17.0128L27.302 17.0186L27.2943 17.0244L27.2866 17.0283L27.279 17.0341L27.2713 17.038L27.2637 17.0437L27.2579 17.0496L27.2523 17.0514L27.2503 17.0534L27.2426 17.0592L27.2273 17.0688L27.2196 17.0746L27.212 17.0785L27.2044 17.0843L27.1967 17.0901L27.1891 17.094L27.1814 17.0998L27.168 17.1114L27.1604 17.1152L27.1527 17.121L27.1451 17.1268L27.1374 17.1307L27.1354 17.1326L27.1297 17.1365L27.122 17.1423L27.1144 17.1481L27.1067 17.152L27.099 17.1578L27.0952 17.1597L27.0914 17.1636L27.0837 17.1694L27.0742 17.1752L27.0608 17.1848H27.0588L27.055 17.1887L27.0512 17.1906L27.0436 17.1964L27.0359 17.2022L27.0206 17.2119L27.0148 17.2177H27.0129L27.0054 17.2235L26.9728 17.2467C26.4986 17.5816 26.0129 18.0267 25.7318 18.4835C25.5652 18.7538 25.3015 19.3114 25.5475 19.6321C25.5483 19.633 26.1758 19.9584 26.8058 20.3355C27.8244 20.9451 28.9879 21.26 30.0267 21.2014C30.853 21.1548 31.7752 20.8907 32.4411 20.5663C33.1113 20.2398 33.9355 19.7248 34.7387 19.0974C34.863 19.0045 35.0998 18.7692 35.2479 18.6982C35.3784 18.6356 35.7992 18.6719 35.7799 18.8165C35.7648 18.9298 35.2706 19.132 35.0924 19.2658C34.2138 19.9264 33.2355 20.5734 32.5996 20.87C31.9427 21.1765 30.837 21.5303 30.0898 21.5749C29.4071 21.6157 28.8274 21.539 28.2339 21.336C27.6601 21.1396 27.32 20.969 26.7091 20.6119C26.5142 20.498 26.3269 20.403 26.0632 20.2363L26.0726 20.2364Z" fill="#FCC624"/>
<path fill-rule="evenodd" clip-rule="evenodd" d="M48.5188 42.5884C48.5524 42.5244 48.6204 42.2688 48.6256 42.2168C48.754 40.922 46.2652 40.6308 44.328 40.696C43.4492 40.7256 42.764 40.8308 42.3548 40.9528C41.6424 41.166 41.2912 41.6544 41.2124 42.2656C41.0524 43.5028 41.4152 46.1168 42.628 46.6888C43.8824 47.28 45.782 46.436 46.9032 45.1628C47.6628 44.3004 48.146 43.2968 48.5188 42.5884Z" fill="#191919"/>
</svg>
