<svg width="32" height="32" viewBox="0 0 32 32" fill="none" xmlns="http://www.w3.org/2000/svg">
<path d="M20.2 1.5L21.6 19.8L9 26.6L1.5 7.4L20.2 1.5Z" fill="url(#paint0_linear)"/>
<path d="M12.2 18.1999L9 26.5999L1.5 7.3999L12.2 18.1999Z" fill="url(#paint1_linear)"/>
<path d="M20.2 1.5L20.7 11.6H12.4L8.69995 5.1L20.2 1.5Z" fill="url(#paint2_linear)"/>
<path d="M17 11.0999L30.5 8.3999V21.0999L21.3 24.5999L17.5 21.0999L17 11.0999Z" fill="url(#paint3_linear)"/>
<path d="M30.5001 8.4L18.1001 21.8L20.2001 1.5L30.5001 8.4Z" fill="#21D789"/>
<path d="M30.5001 8.3998L23.6001 6.7998L21.1001 24.7998L30.5001 21.0998V8.3998Z" fill="url(#paint4_linear)"/>
<path d="M11.3999 7.3999L20.6999 8.7999L30.4999 21.0999L21.0999 24.7999L17.4999 21.0999L11.3999 7.3999Z" fill="url(#paint5_linear)"/>
<path d="M7.50005 1.5L20.7001 8.8L16.2 30.5H8.50005L1.80005 23.6L7.50005 1.5Z" fill="url(#paint6_linear)"/>
<path d="M12.1 4L6.29995 5.8L4.19995 14.3L8.99995 26.6L18.2 20.7L20.7 8.9V8.8L12.1 4Z" fill="url(#paint7_linear)"/>
<path d="M18.8 8.9998L20.7001 8.7998L18.8 8.9998Z" fill="url(#paint8_linear)"/>
<path d="M10.6 19.8L14.2 9.5L7.50005 1.5L1.80005 23.6L10.6 19.8Z" fill="url(#paint9_linear)"/>
<path d="M8.5001 30.5L4.1001 26L8.5001 30.5H16.2001H8.5001Z" fill="url(#paint10_linear)"/>
<path d="M4.19995 14.2999L7.39995 22.4999L8.99995 26.5999L12.2 18.1999L4.99995 10.8999L4.19995 14.2999Z" fill="url(#paint11_linear)"/>
<path d="M10.6 19.7998L16.2 30.4998H8.50005L1.80005 23.5998L10.6 19.7998Z" fill="url(#paint12_linear)"/>
<path d="M10.6001 19.7998L16.2001 30.4998L20.7001 8.7998L14.2001 9.4998L10.6001 19.7998Z" fill="url(#paint13_linear)"/>
<path d="M17.9 21.7998L16.2 30.4998H8.5L9 26.5998L17.9 21.7998Z" fill="url(#paint14_linear)"/>
<path d="M8.9999 26.5998L12.9999 24.3998L10.5999 19.7998L6.8999 21.3998L8.9999 26.5998Z" fill="url(#paint15_linear)"/>
<path d="M13 24.3998L16.2 30.4998L17.9 21.7998L13 24.3998Z" fill="url(#paint16_linear)"/>
<path d="M7.5 1.5L20.7 8.8L17.6 9.1L14.2 9.5L7.5 1.5Z" fill="url(#paint17_linear)"/>
<path d="M20.5001 8.7L12.1001 4L10.1001 4.7L14.2001 9.5L17.6001 9.1L20.6001 8.8L20.5001 8.7Z" fill="url(#paint18_linear)"/>
<path d="M19.3999 8.9001L20.6999 8.8001L19.4999 8.1001L19.3999 8.9001Z" fill="url(#paint19_linear)"/>
<path d="M30.5 21.0998L20.7 8.7998L17.6 9.0998L14.2 9.4998L30.5 21.0998Z" fill="url(#paint20_linear)"/>
<path d="M19 12.8998L23.4 16.0998L25.1 14.2998L20.7 8.7998L19.4 8.8998L19 12.8998Z" fill="url(#paint21_linear)"/>
<path d="M22.3999 15.4001L30.4999 21.1001L22.8999 11.6001L22.3999 15.4001Z" fill="url(#paint22_linear)"/>
<path d="M30.5 21.1L21.1 24.8L18.1 21.8L14.2 9.5L30.5 21.1Z" fill="url(#paint23_linear)"/>
<path d="M19.0001 12.8999L18.1001 21.7999L23.4001 16.0999L19.0001 12.8999Z" fill="url(#paint24_linear)"/>
<path d="M21.1001 24.7999L30.5001 21.0999L22.4001 15.3999L21.1001 24.7999Z" fill="url(#paint25_linear)"/>
<path d="M18.1001 21.6999V21.7999L22.1001 17.3999L22.4001 15.3999L18.6001 16.1999L18.1001 21.6999Z" fill="url(#paint26_linear)"/>
<path d="M21.1 24.8L18.1 21.8L14.2 9.5L21.1 24.8Z" fill="url(#paint27_linear)"/>
<path d="M18.1001 21.8002L21.1001 24.8002L18.4001 18.7002L18.1001 21.8002Z" fill="url(#paint28_linear)"/>
<path d="M20.2001 1.5L18.1001 21.8L22.1001 17.4L23.6001 6.8L20.2001 1.5Z" fill="url(#paint29_linear)"/>
<path d="M30.5 8.4L23.6 6.8L20.2 1.5L30.5 8.4Z" fill="url(#paint30_linear)"/>
<path d="M25 7H7V25H25V7Z" fill="url(#paint31_linear)"/>
<path d="M15.9001 21.3999H9.1001V22.9999H15.9001V21.3999Z" fill="white"/>
<path d="M9 9.30029H11.6C13.7 9.30029 15.2 10.8003 15.2 12.7003C15.2 14.5003 13.7 16.0003 11.6 16.0003H9V9.30029ZM10.4 10.6003V14.7003H11.5C12.7 14.7003 13.5 13.9003 13.5 12.7003C13.5 11.5003 12.7 10.7003 11.5 10.7003H10.4V10.6003Z" fill="white"/>
<path d="M15.7 15.0002L16.6 14.0002C17.2 14.5002 17.9 14.8002 18.6 14.8002C19.2 14.8002 19.6 14.6002 19.6 14.2002C19.6 13.8002 19.4 13.6002 18.2 13.3002C16.8 13.0002 15.9 12.6002 15.9 11.2002C15.9 10.0002 16.9 9.2002 18.3 9.2002C19.3 9.2002 20.1 9.5002 20.8 10.1002L20 11.2002C19.4 10.8002 18.8 10.5002 18.2 10.5002C17.6 10.5002 17.3 10.8002 17.3 11.1002C17.3 11.5002 17.6 11.7002 18.8 12.0002C20.2 12.4002 21 12.9002 21 14.0002C21 15.3002 20 16.1002 18.5 16.1002C17.6 16.1002 16.5 15.8002 15.7 15.0002Z" fill="white"/>
<defs>
<linearGradient id="paint0_linear" x1="24.0323" y1="14.0618" x2="3.8936" y2="14.0618" gradientUnits="userSpaceOnUse">
<stop offset="0.0782105" stop-color="#21D789"/>
<stop offset="0.8726" stop-color="#FCF84A"/>
</linearGradient>
<linearGradient id="paint1_linear" x1="8.8453" y1="14.2668" x2="5.9712" y2="16.4417" gradientUnits="userSpaceOnUse">
<stop offset="0.0782105" stop-color="white"/>
<stop offset="0.8726" stop-color="#FCF84A"/>
</linearGradient>
<linearGradient id="paint2_linear" x1="16.5382" y1="5.6782" x2="19.4548" y2="1.431" gradientUnits="userSpaceOnUse">
<stop offset="0.095296" stop-color="#BBF8AF" stop-opacity="0"/>
<stop offset="1" stop-color="#21FF79"/>
</linearGradient>
<linearGradient id="paint3_linear" x1="23.774" y1="9.8718" x2="23.774" y2="33.8624" gradientUnits="userSpaceOnUse">
<stop  offset="0" stop-color="#21D789"/>
<stop offset="1" stop-color="#087CFA"/>
</linearGradient>
<linearGradient id="paint4_linear" x1="32.9778" y1="19.614" x2="15.7914" y2="12.3316" gradientUnits="userSpaceOnUse">
<stop offset="0.0202374" stop-color="#21D789" stop-opacity="0"/>
<stop offset="1" stop-color="#00FF6A"/>
</linearGradient>
<linearGradient id="paint5_linear" x1="39.6713" y1="31.9571" x2="11.0585" y2="8.8093" gradientUnits="userSpaceOnUse">
<stop offset="0.1049" stop-color="#21D789"/>
<stop offset="0.9668" stop-color="#087CFA"/>
</linearGradient>
<linearGradient id="paint6_linear" x1="26.5728" y1="-0.732199" x2="6.58505" y2="21.9207" gradientUnits="userSpaceOnUse">
<stop offset="0.2348" stop-color="#21D789"/>
<stop offset="0.7396" stop-color="#087CFA"/>
</linearGradient>
<linearGradient id="paint7_linear" x1="1.29075" y1="7.4931" x2="12.6707" y2="16.0765" gradientUnits="userSpaceOnUse">
<stop offset="0.0782105" stop-color="#21D789"/>
<stop offset="0.8283" stop-color="#087CFA" stop-opacity="0"/>
</linearGradient>
<linearGradient id="paint8_linear" x1="19.6937" y1="8.9874" x2="20.11" y2="8.4635" gradientUnits="userSpaceOnUse">
<stop offset="0.0782105" stop-color="#21D789" stop-opacity="0"/>
<stop offset="0.8726" stop-color="#01D0FF"/>
</linearGradient>
<linearGradient id="paint9_linear" x1="5.46475" y1="15.1349" x2="13.037" y2="5.606" gradientUnits="userSpaceOnUse">
<stop offset="0.3826" stop-color="#087CFA" stop-opacity="0"/>
<stop offset="1" stop-color="#01EFDB"/>
</linearGradient>
<linearGradient id="paint10_linear" x1="9.6591" y1="28.8395" x2="11.1217" y2="26.999" gradientUnits="userSpaceOnUse">
<stop offset="0.0782105" stop-color="#21D789" stop-opacity="0"/>
<stop offset="0.8726" stop-color="#01D0FF"/>
</linearGradient>
<linearGradient id="paint11_linear" x1="8.37765" y1="10.3088" x2="8.22225" y2="15.7851" gradientUnits="userSpaceOnUse">
<stop offset="0.0782105" stop-color="#21D789"/>
<stop offset="0.8283" stop-color="#087CFA" stop-opacity="0"/>
</linearGradient>
<linearGradient id="paint12_linear" x1="18.954" y1="14.2403" x2="5.90405" y2="30.98" gradientUnits="userSpaceOnUse">
<stop offset="0.2348" stop-color="#083FFA"/>
<stop offset="0.7396" stop-color="#087CFA"/>
</linearGradient>
<linearGradient id="paint13_linear" x1="9.1337" y1="3.0955" x2="21.8342" y2="25.6999" gradientUnits="userSpaceOnUse">
<stop offset="0.2458" stop-color="#083FFA"/>
<stop offset="0.9131" stop-color="#087CFA"/>
</linearGradient>
<linearGradient id="paint14_linear" x1="9.1719" y1="22.1444" x2="15.6927" y2="28.6653" gradientUnits="userSpaceOnUse">
<stop offset="0.2348" stop-color="#089FFF"/>
<stop offset="0.7396" stop-color="#087CFA" stop-opacity="0"/>
</linearGradient>
<linearGradient id="paint15_linear" x1="13.377" y1="27.1126" x2="9.0691" y2="22.4166" gradientUnits="userSpaceOnUse">
<stop offset="0.1526" stop-color="#0832FF"/>
<stop offset="0.9138" stop-color="#087CFA" stop-opacity="0"/>
</linearGradient>
<linearGradient id="paint16_linear" x1="19.5195" y1="29.0985" x2="14.2772" y2="22.8943" gradientUnits="userSpaceOnUse">
<stop offset="0.1526" stop-color="#0832FF"/>
<stop offset="0.9138" stop-color="#087CFA" stop-opacity="0"/>
</linearGradient>
<linearGradient id="paint17_linear" x1="13.9736" y1="-5.0027" x2="14.1575" y2="10.4414" gradientUnits="userSpaceOnUse">
<stop offset="0.2348" stop-color="#21D789"/>
<stop offset="0.8246" stop-color="#087CFA"/>
</linearGradient>
<linearGradient id="paint18_linear" x1="15.2632" y1="6.0331" x2="14.866" y2="2.3585" gradientUnits="userSpaceOnUse">
<stop offset="0.095296" stop-color="#BBF8AF" stop-opacity="0"/>
<stop offset="1" stop-color="#21FF79"/>
</linearGradient>
<linearGradient id="paint19_linear" x1="20.4548" y1="9.3466" x2="19.1856" y2="7.8728" gradientUnits="userSpaceOnUse">
<stop  offset="0" stop-color="#21D789" stop-opacity="0"/>
<stop offset="0.9185" stop-color="#21D789"/>
</linearGradient>
<linearGradient id="paint20_linear" x1="27.3946" y1="22.882" x2="17.6834" y2="8.31511" gradientUnits="userSpaceOnUse">
<stop offset="0.027928" stop-color="#21D789"/>
<stop offset="0.9294" stop-color="#0860FA"/>
</linearGradient>
<linearGradient id="paint21_linear" x1="22.2318" y1="15.1622" x2="21.1249" y2="7.006" gradientUnits="userSpaceOnUse">
<stop offset="0.0757413" stop-color="#087CFA" stop-opacity="0"/>
<stop offset="1" stop-color="#21D789" stop-opacity="0.6"/>
</linearGradient>
<linearGradient id="paint22_linear" x1="25.0972" y1="16.3543" x2="19.7374" y2="8.9555" gradientUnits="userSpaceOnUse">
<stop offset="0.0757413" stop-color="#087CFA" stop-opacity="0"/>
<stop offset="1" stop-color="#4F46C6" stop-opacity="0.6"/>
</linearGradient>
<linearGradient id="paint23_linear" x1="25.8848" y1="23.8887" x2="16.1735" y2="9.3218" gradientUnits="userSpaceOnUse">
<stop  offset="0" stop-color="#18AFAF"/>
<stop offset="0.6591" stop-color="#0860FA"/>
<stop offset="0.9983" stop-color="#084CFA"/>
</linearGradient>
<linearGradient id="paint24_linear" x1="21.2573" y1="19.7917" x2="17.4123" y2="13.6745" gradientUnits="userSpaceOnUse">
<stop offset="0.0757413" stop-color="#087CFA" stop-opacity="0"/>
<stop offset="1" stop-color="#21D789" stop-opacity="0.6"/>
</linearGradient>
<linearGradient id="paint25_linear" x1="25.7442" y1="22.8785" x2="19.6072" y2="17.1571" gradientUnits="userSpaceOnUse">
<stop offset="0.0757413" stop-color="#087CFA" stop-opacity="0"/>
<stop offset="1" stop-color="#21D789" stop-opacity="0.6"/>
</linearGradient>
<linearGradient id="paint26_linear" x1="19.6327" y1="17.9806" x2="17.5111" y2="16.0027" gradientUnits="userSpaceOnUse">
<stop  offset="0" stop-color="#087CFA" stop-opacity="0"/>
<stop offset="0.8547" stop-color="#0841FA"/>
</linearGradient>
<linearGradient id="paint27_linear" x1="21.724" y1="24.0769" x2="13.1442" y2="11.2071" gradientUnits="userSpaceOnUse">
<stop  offset="0" stop-color="#089CFA"/>
<stop offset="0.7396" stop-color="#083CFA"/>
</linearGradient>
<linearGradient id="paint28_linear" x1="21.1164" y1="24.6422" x2="17.7303" y2="19.563" gradientUnits="userSpaceOnUse">
<stop  offset="0" stop-color="#087CFA" stop-opacity="0"/>
<stop offset="0.9787" stop-color="#0860FA"/>
</linearGradient>
<linearGradient id="paint29_linear" x1="20.8509" y1="10.7905" x2="22.2102" y2="4.5762" gradientUnits="userSpaceOnUse">
<stop offset="0.3551" stop-color="#BBF8AF" stop-opacity="0"/>
<stop offset="1" stop-color="#21FF79"/>
</linearGradient>
<linearGradient id="paint30_linear" x1="19.5187" y1="1.9107" x2="27.5195" y2="7.9308" gradientUnits="userSpaceOnUse">
<stop offset="0.0202374" stop-color="#BBF8AF" stop-opacity="0"/>
<stop offset="1" stop-color="#21FF79"/>
</linearGradient>
<linearGradient id="paint31_linear" x1="7.15138" y1="7.15138" x2="25.6149" y2="25.6149" gradientUnits="userSpaceOnUse">
<stop offset="0.0284813" stop-color="#002846"/>
<stop offset="0.1369" stop-color="#002038"/>
<stop offset="0.4947" stop-color="#000910"/>
<stop offset="0.6795"/>
</linearGradient>
</defs>
</svg>
