<svg width="64" height="64" viewBox="0 0 64 64" fill="none" xmlns="http://www.w3.org/2000/svg">
<path d="M40.3 3L43.3 39.6L18 53.2L3 14.7L40.3 3Z" fill="url(#paint0_linear)"/>
<path d="M24.5 36.3002L18 53.2002L3 14.7002L24.5 36.3002Z" fill="url(#paint1_linear)"/>
<path d="M40.2999 3L41.3999 23.2H24.8999L17.3999 10.2L40.2999 3Z" fill="url(#paint2_linear)"/>
<path d="M34.1001 22.1998L61.0001 16.7998V42.1998L42.5001 49.0998L34.9001 42.2998L34.1001 22.1998Z" fill="url(#paint3_linear)"/>
<path d="M61.0001 16.8L36.1001 43.7L40.3001 3L61.0001 16.8Z" fill="#21D789"/>
<path d="M61 16.8001L47.2 13.6001L42.2 49.5001L61 42.2001V16.8001Z" fill="url(#paint4_linear)"/>
<path d="M22.8 14.7002L41.4001 17.6002L61 42.2002L42.2001 49.5002L34.9 42.3002L22.8 14.7002Z" fill="url(#paint5_linear)"/>
<path d="M14.9001 3L41.4001 17.6L32.3001 61H16.9001L3.6001 47.2L14.9001 3Z" fill="url(#paint6_linear)"/>
<path d="M24.1999 8.1001L12.6999 11.7001L8.3999 28.5001L17.9999 53.2001L36.3999 41.4001L41.3999 17.9001V17.6001L24.1999 8.1001Z" fill="url(#paint7_linear)"/>
<path d="M37.6001 18.0001L41.4001 17.6001L37.6001 18.0001Z" fill="url(#paint8_linear)"/>
<path d="M21.2001 39.6L28.4001 19L14.9001 3L3.6001 47.2L21.2001 39.6Z" fill="url(#paint9_linear)"/>
<path d="M16.9002 61L8.2002 52L16.9002 61H32.3002H16.9002Z" fill="url(#paint10_linear)"/>
<path d="M8.3999 28.4999L14.6999 44.8999L17.9999 53.1999L24.4999 36.2999L10.0999 21.8999L8.3999 28.4999Z" fill="url(#paint11_linear)"/>
<path d="M21.2001 39.6001L32.3001 61.0001H16.9001L3.6001 47.2001L21.2001 39.6001Z" fill="url(#paint12_linear)"/>
<path d="M21.2 39.6001L32.2999 61.0001L41.4 17.6001L28.4 19.0001L21.2 39.6001Z" fill="url(#paint13_linear)"/>
<path d="M35.7999 43.6001L32.2999 61.0001H16.8999L17.9999 53.2001L35.7999 43.6001Z" fill="url(#paint14_linear)"/>
<path d="M17.9999 53.2001L25.9999 48.9001L21.1999 39.6001L13.8999 42.7001L17.9999 53.2001Z" fill="url(#paint15_linear)"/>
<path d="M26 48.9001L32.3 61.0001L35.8 43.6001L26 48.9001Z" fill="url(#paint16_linear)"/>
<path d="M14.8999 3L41.3999 17.6L35.1999 18.3L28.3999 19L14.8999 3Z" fill="url(#paint17_linear)"/>
<path d="M41.0999 17.4001L24.2 8.1001L20.2 9.3001L28.4 19.0001L35.2 18.3001L41.0999 17.7001V17.4001Z" fill="url(#paint18_linear)"/>
<path d="M38.8 17.9002L41.4001 17.6002L38.9001 16.2002L38.8 17.9002Z" fill="url(#paint19_linear)"/>
<path d="M60.9999 42.2001L41.3999 17.6001L35.1999 18.3001L28.3999 19.0001L60.9999 42.2001Z" fill="url(#paint20_linear)"/>
<path d="M37.8999 25.8001L46.7999 32.1001L50.0999 28.5001L41.3999 17.6001L38.7999 17.9001L37.8999 25.8001Z" fill="url(#paint21_linear)"/>
<path d="M44.8 30.7002L61 42.2002L45.9001 23.2002L44.8 30.7002Z" fill="url(#paint22_linear)"/>
<path d="M60.9999 42.2L42.1999 49.5L36.0999 43.7L28.3999 19L60.9999 42.2Z" fill="url(#paint23_linear)"/>
<path d="M37.9001 25.7998L36.1001 43.6998L46.8001 32.0998L37.9001 25.7998Z" fill="url(#paint24_linear)"/>
<path d="M42.2 49.5002L61 42.2002L44.7999 30.7002L42.2 49.5002Z" fill="url(#paint25_linear)"/>
<path d="M36.1001 43.5002L36.2001 43.6002L44.3001 34.9002L44.8001 30.7002L37.3001 32.5002L36.1001 43.5002Z" fill="url(#paint26_linear)"/>
<path d="M42.1999 49.5L36.0999 43.7L28.3999 19L42.1999 49.5Z" fill="url(#paint27_linear)"/>
<path d="M36.1001 43.7L42.2001 49.5L36.7001 37.5L36.1001 43.7Z" fill="url(#paint28_linear)"/>
<path d="M40.3001 3L36.1001 43.7L44.3001 34.9L47.2001 13.6L40.3001 3Z" fill="url(#paint29_linear)"/>
<path d="M61 16.8L47.2001 13.6L40.3 3L61 16.8Z" fill="url(#paint30_linear)"/>
<path d="M50 14H14V50H50V14Z" fill="url(#paint31_linear)"/>
<g opacity="0.3">
<path opacity="0.3" d="M14 43L16.7 50H22.9L42.9 39.2L40.9 14H14V43Z" fill="url(#paint32_linear)"/>
<path opacity="0.3" d="M38.8 14L35.8 43.3L43.9 34.5L46.8 14H38.8Z" fill="url(#paint33_linear)"/>
<path opacity="0.3" d="M49.9999 14.1L49.6999 14H46.7999L41.8999 49L49.9999 45.9V14.1Z" fill="url(#paint34_linear)"/>
<path opacity="0.3" d="M50.0001 34.3002L28.1001 18.7002L35.8001 43.3002L41.9001 49.0002L50.0001 45.9002V34.3002Z" fill="url(#paint35_linear)"/>
<path opacity="0.3" d="M14 50H34.2L41.1 17.4L35 14H14V50Z" fill="url(#paint36_linear)"/>
<path opacity="0.3" d="M14 42.2L21 39.2L28.1 18.7L24.2 14H14V42.2Z" fill="url(#paint37_linear)"/>
<path opacity="0.3" d="M28.1 18.7L34.9 18L41.1 17.4L40.7999 17.2L35.9 14.5L35 14H24.2L28.1 18.7Z" fill="url(#paint38_linear)"/>
</g>
<path d="M31.9999 43.2002H18.3999V45.4002H31.9999V43.2002Z" fill="white"/>
<path d="M18.25 18.5015H23.5879C27.8179 18.5015 30.8393 21.4222 30.8393 25.2493C30.7386 29.0765 27.8179 32.0979 23.5879 32.0979H18.25V18.5015ZM21.2714 21.2208V29.3786H23.5879C26.005 29.3786 27.7171 27.7672 27.7171 25.35C27.7171 22.9329 26.1057 21.2208 23.5879 21.2208H21.2714V21.2208Z" fill="white"/>
<path d="M31.8464 30.1841L33.6593 28.0691C34.8679 29.0762 36.1771 29.6805 37.7886 29.6805C38.9971 29.6805 39.8029 29.1769 39.8029 28.3712C39.8029 27.5655 39.2993 27.2634 37.0836 26.6591C34.3643 25.9541 32.5514 25.1484 32.5514 22.4291C32.5514 19.9112 34.5657 18.2998 37.3857 18.2998C39.4 18.2998 41.1122 18.9041 42.4214 20.0119L40.81 22.3284C39.6014 21.5227 38.3929 21.0191 37.285 21.0191C36.1771 21.0191 35.5729 21.5227 35.5729 22.2277C35.5729 23.1341 36.1772 23.4362 38.4936 24.0405C41.3136 24.7455 42.8243 25.7527 42.8243 28.1698C42.8243 30.8891 40.7093 32.3998 37.7886 32.3998C35.5729 32.3998 33.4579 31.5941 31.8464 30.1841Z" fill="white"/>
<defs>
<linearGradient id="paint0_linear" x1="48.0649" y1="28.1235" x2="7.7876" y2="28.1235" gradientUnits="userSpaceOnUse">
<stop offset="0.0782105" stop-color="#21D789"/>
<stop offset="0.8726" stop-color="#FCF84A"/>
</linearGradient>
<linearGradient id="paint1_linear" x1="17.6907" y1="28.5339" x2="11.9425" y2="32.8839" gradientUnits="userSpaceOnUse">
<stop offset="0.0782105" stop-color="white"/>
<stop offset="0.8726" stop-color="#FCF84A"/>
</linearGradient>
<linearGradient id="paint2_linear" x1="33.0764" y1="11.3565" x2="38.9095" y2="2.862" gradientUnits="userSpaceOnUse">
<stop offset="0.095296" stop-color="#BBF8AF" stop-opacity="0"/>
<stop offset="1" stop-color="#21FF79"/>
</linearGradient>
<linearGradient id="paint3_linear" x1="47.5484" y1="19.7436" x2="47.5484" y2="67.7248" gradientUnits="userSpaceOnUse">
<stop  offset="0" stop-color="#21D789"/>
<stop offset="1" stop-color="#087CFA"/>
</linearGradient>
<linearGradient id="paint4_linear" x1="65.9552" y1="39.2285" x2="31.5825" y2="24.6638" gradientUnits="userSpaceOnUse">
<stop offset="0.0202374" stop-color="#21D789" stop-opacity="0"/>
<stop offset="1" stop-color="#00FF6A"/>
</linearGradient>
<linearGradient id="paint5_linear" x1="79.3433" y1="63.9145" x2="22.1173" y2="17.619" gradientUnits="userSpaceOnUse">
<stop offset="0.1049" stop-color="#21D789"/>
<stop offset="0.9668" stop-color="#087CFA"/>
</linearGradient>
<linearGradient id="paint6_linear" x1="53.1461" y1="-1.4644" x2="13.17" y2="43.8414" gradientUnits="userSpaceOnUse">
<stop offset="0.2348" stop-color="#21D789"/>
<stop offset="0.7396" stop-color="#087CFA"/>
</linearGradient>
<linearGradient id="paint7_linear" x1="2.5815" y1="14.9862" x2="25.3412" y2="32.1531" gradientUnits="userSpaceOnUse">
<stop offset="0.0782105" stop-color="#21D789"/>
<stop offset="0.8283" stop-color="#087CFA" stop-opacity="0"/>
</linearGradient>
<linearGradient id="paint8_linear" x1="39.3875" y1="17.9753" x2="40.2201" y2="16.9275" gradientUnits="userSpaceOnUse">
<stop offset="0.0782105" stop-color="#21D789" stop-opacity="0"/>
<stop offset="0.8726" stop-color="#01D0FF"/>
</linearGradient>
<linearGradient id="paint9_linear" x1="10.9295" y1="30.2699" x2="26.0741" y2="11.2119" gradientUnits="userSpaceOnUse">
<stop offset="0.3826" stop-color="#087CFA" stop-opacity="0"/>
<stop offset="1" stop-color="#01EFDB"/>
</linearGradient>
<linearGradient id="paint10_linear" x1="19.3182" y1="57.6791" x2="22.2434" y2="53.9979" gradientUnits="userSpaceOnUse">
<stop offset="0.0782105" stop-color="#21D789" stop-opacity="0"/>
<stop offset="0.8726" stop-color="#01D0FF"/>
</linearGradient>
<linearGradient id="paint11_linear" x1="16.7553" y1="20.6177" x2="16.4446" y2="31.5704" gradientUnits="userSpaceOnUse">
<stop offset="0.0782105" stop-color="#21D789"/>
<stop offset="0.8283" stop-color="#087CFA" stop-opacity="0"/>
</linearGradient>
<linearGradient id="paint12_linear" x1="37.9081" y1="28.4811" x2="11.8082" y2="61.9605" gradientUnits="userSpaceOnUse">
<stop offset="0.2348" stop-color="#083FFA"/>
<stop offset="0.7396" stop-color="#087CFA"/>
</linearGradient>
<linearGradient id="paint13_linear" x1="18.2673" y1="6.1916" x2="43.6681" y2="51.4004" gradientUnits="userSpaceOnUse">
<stop offset="0.2458" stop-color="#083FFA"/>
<stop offset="0.9131" stop-color="#087CFA"/>
</linearGradient>
<linearGradient id="paint14_linear" x1="18.3436" y1="44.2894" x2="31.3853" y2="57.331" gradientUnits="userSpaceOnUse">
<stop offset="0.2348" stop-color="#089FFF"/>
<stop offset="0.7396" stop-color="#087CFA" stop-opacity="0"/>
</linearGradient>
<linearGradient id="paint15_linear" x1="26.754" y1="54.2257" x2="18.1383" y2="44.8338" gradientUnits="userSpaceOnUse">
<stop offset="0.1526" stop-color="#0832FF"/>
<stop offset="0.9138" stop-color="#087CFA" stop-opacity="0"/>
</linearGradient>
<linearGradient id="paint16_linear" x1="39.0391" y1="58.1976" x2="28.5544" y2="45.7892" gradientUnits="userSpaceOnUse">
<stop offset="0.1526" stop-color="#0832FF"/>
<stop offset="0.9138" stop-color="#087CFA" stop-opacity="0"/>
</linearGradient>
<linearGradient id="paint17_linear" x1="27.9472" y1="-10.0053" x2="28.3149" y2="20.8829" gradientUnits="userSpaceOnUse">
<stop offset="0.2348" stop-color="#21D789"/>
<stop offset="0.8246" stop-color="#087CFA"/>
</linearGradient>
<linearGradient id="paint18_linear" x1="30.5261" y1="12.0662" x2="29.7316" y2="4.717" gradientUnits="userSpaceOnUse">
<stop offset="0.095296" stop-color="#BBF8AF" stop-opacity="0"/>
<stop offset="1" stop-color="#21FF79"/>
</linearGradient>
<linearGradient id="paint19_linear" x1="40.9098" y1="18.6933" x2="38.3715" y2="15.7455" gradientUnits="userSpaceOnUse">
<stop  offset="0" stop-color="#21D789" stop-opacity="0"/>
<stop offset="0.9185" stop-color="#21D789"/>
</linearGradient>
<linearGradient id="paint20_linear" x1="54.7892" y1="45.7644" x2="35.3666" y2="16.6306" gradientUnits="userSpaceOnUse">
<stop offset="0.027928" stop-color="#21D789"/>
<stop offset="0.9294" stop-color="#0860FA"/>
</linearGradient>
<linearGradient id="paint21_linear" x1="44.4636" y1="30.325" x2="42.2497" y2="14.0125" gradientUnits="userSpaceOnUse">
<stop offset="0.0757413" stop-color="#087CFA" stop-opacity="0"/>
<stop offset="1" stop-color="#21D789" stop-opacity="0.6"/>
</linearGradient>
<linearGradient id="paint22_linear" x1="50.1946" y1="32.7087" x2="39.475" y2="17.9109" gradientUnits="userSpaceOnUse">
<stop offset="0.0757413" stop-color="#087CFA" stop-opacity="0"/>
<stop offset="1" stop-color="#4F46C6" stop-opacity="0.6"/>
</linearGradient>
<linearGradient id="paint23_linear" x1="51.7694" y1="47.7775" x2="32.3469" y2="18.6437" gradientUnits="userSpaceOnUse">
<stop  offset="0" stop-color="#18AFAF"/>
<stop offset="0.6591" stop-color="#0860FA"/>
<stop offset="0.9983" stop-color="#084CFA"/>
</linearGradient>
<linearGradient id="paint24_linear" x1="42.5146" y1="39.5834" x2="34.8244" y2="27.3491" gradientUnits="userSpaceOnUse">
<stop offset="0.0757413" stop-color="#087CFA" stop-opacity="0"/>
<stop offset="1" stop-color="#21D789" stop-opacity="0.6"/>
</linearGradient>
<linearGradient id="paint25_linear" x1="51.488" y1="45.7575" x2="39.2143" y2="34.3147" gradientUnits="userSpaceOnUse">
<stop offset="0.0757413" stop-color="#087CFA" stop-opacity="0"/>
<stop offset="1" stop-color="#21D789" stop-opacity="0.6"/>
</linearGradient>
<linearGradient id="paint26_linear" x1="39.2653" y1="35.9616" x2="35.0222" y2="32.0058" gradientUnits="userSpaceOnUse">
<stop  offset="0" stop-color="#087CFA" stop-opacity="0"/>
<stop offset="0.8547" stop-color="#0841FA"/>
</linearGradient>
<linearGradient id="paint27_linear" x1="43.448" y1="48.1538" x2="26.2883" y2="22.4142" gradientUnits="userSpaceOnUse">
<stop  offset="0" stop-color="#089CFA"/>
<stop offset="0.7396" stop-color="#083CFA"/>
</linearGradient>
<linearGradient id="paint28_linear" x1="42.2328" y1="49.284" x2="35.4605" y2="39.1256" gradientUnits="userSpaceOnUse">
<stop  offset="0" stop-color="#087CFA" stop-opacity="0"/>
<stop offset="0.9787" stop-color="#0860FA"/>
</linearGradient>
<linearGradient id="paint29_linear" x1="41.7016" y1="21.5809" x2="44.4204" y2="9.1524" gradientUnits="userSpaceOnUse">
<stop offset="0.3551" stop-color="#BBF8AF" stop-opacity="0"/>
<stop offset="1" stop-color="#21FF79"/>
</linearGradient>
<linearGradient id="paint30_linear" x1="39.0373" y1="3.8214" x2="55.0391" y2="15.8616" gradientUnits="userSpaceOnUse">
<stop offset="0.0202374" stop-color="#BBF8AF" stop-opacity="0"/>
<stop offset="1" stop-color="#21FF79"/>
</linearGradient>
<linearGradient id="paint31_linear" x1="14.3028" y1="14.3028" x2="51.2298" y2="51.2298" gradientUnits="userSpaceOnUse">
<stop offset="0.0284813" stop-color="#002846"/>
<stop offset="0.1369" stop-color="#002038"/>
<stop offset="0.4947" stop-color="#000910"/>
<stop offset="0.6795"/>
</linearGradient>
<linearGradient id="paint32_linear" x1="10.5599" y1="32" x2="39.5001" y2="32" gradientUnits="userSpaceOnUse">
<stop offset="0.0782105" stop-color="#21D789"/>
<stop offset="0.8726" stop-color="#FCF84A"/>
</linearGradient>
<linearGradient id="paint33_linear" x1="41.7428" y1="40.9429" x2="40.6799" y2="11.4612" gradientUnits="userSpaceOnUse">
<stop  offset="0" stop-color="#218640"/>
<stop offset="0.8027" stop-color="#B5FA59"/>
</linearGradient>
<linearGradient id="paint34_linear" x1="45.3214" y1="16.1129" x2="46.9072" y2="55.758" gradientUnits="userSpaceOnUse">
<stop offset="0.2348" stop-color="#21D789"/>
<stop offset="1" stop-color="#083450"/>
</linearGradient>
<linearGradient id="paint35_linear" x1="48.1179" y1="46.589" x2="30.0986" y2="19.5599" gradientUnits="userSpaceOnUse">
<stop  offset="0" stop-color="#021A43"/>
<stop offset="0.6591" stop-color="#0860FA"/>
</linearGradient>
<linearGradient id="paint36_linear" x1="25.4426" y1="3.1573" x2="28.9445" y2="53.6387" gradientUnits="userSpaceOnUse">
<stop offset="0.2348" stop-color="#21D789"/>
<stop offset="0.7396" stop-color="#083450"/>
</linearGradient>
<linearGradient id="paint37_linear" x1="22.3211" y1="42.2637" x2="19.2156" y2="13.0584" gradientUnits="userSpaceOnUse">
<stop offset="0.2268" stop-color="#086C93"/>
<stop offset="0.8196" stop-color="#01EFDB"/>
</linearGradient>
<linearGradient id="paint38_linear" x1="25.4476" y1="14.4516" x2="43.1842" y2="19.9943" gradientUnits="userSpaceOnUse">
<stop offset="0.2508" stop-color="#21D789"/>
<stop offset="0.8847" stop-color="#0C515A"/>
</linearGradient>
</defs>
</svg>
