<svg width="128" height="128" viewBox="0 0 128 128" fill="none" xmlns="http://www.w3.org/2000/svg">
<path d="M80.6 6L86.6 79.2L35.9 106.5L6 29.5L80.6 6Z" fill="url(#paint0_linear)"/>
<path d="M49 72.6L35.9 106.5L6 29.5L49 72.6Z" fill="url(#paint1_linear)"/>
<path d="M80.6 6L82.8001 46.4H49.7001L34.8 20.4L80.6 6Z" fill="url(#paint2_linear)"/>
<path d="M68.2 44.4001L122 33.6001V84.4001L85.0999 98.3001L69.9 84.6001L68.2 44.4001Z" fill="url(#paint3_linear)"/>
<path d="M122 33.6L72.2 87.4L80.6 6L122 33.6Z" fill="#21D789"/>
<path d="M122 33.6001L94.4999 27.1001L84.3999 99.0001L122 84.4001V33.6001Z" fill="url(#paint4_linear)"/>
<path d="M45.7 29.3999L82.9 35.1999L122 84.3999L84.4 98.9999L69.9 84.5999L45.7 29.3999Z" fill="url(#paint5_linear)"/>
<path d="M29.9001 6L82.9001 35.2L64.6001 122H33.8001L7.1001 94.4L29.9001 6Z" fill="url(#paint6_linear)"/>
<path d="M48.2999 16.2002L25.4 23.4002L16.7 57.1002L35.9 106.5L72.9 82.8002L82.8 35.8002L82.7 35.2002L48.2999 16.2002Z" fill="url(#paint7_linear)"/>
<path d="M75.1001 36.1002L82.9001 35.2002L75.1001 36.1002Z" fill="url(#paint8_linear)"/>
<path d="M42.4001 79.1L56.7001 38L29.9001 6L7.1001 94.4L42.4001 79.1Z" fill="url(#paint9_linear)"/>
<path d="M33.8001 122L16.4001 104L33.8001 122H64.6001H33.8001Z" fill="url(#paint10_linear)"/>
<path d="M16.7 57.1002L29.4 89.8002L35.9 106.5L49 72.6002L20.2 43.7002L16.7 57.1002Z" fill="url(#paint11_linear)"/>
<path d="M42.4001 79.1001L64.6001 122H33.8001L7.1001 94.4001L42.4001 79.1001Z" fill="url(#paint12_linear)"/>
<path d="M42.3999 79.1002L64.5999 122L82.8999 35.2002L56.6999 38.0002L42.3999 79.1002Z" fill="url(#paint13_linear)"/>
<path d="M71.6 87.2002L64.6 122H33.8L35.9 106.3L71.6 87.2002Z" fill="url(#paint14_linear)"/>
<path d="M35.9 106.5L52.1 97.8001L42.4001 79.1001L27.8 85.5001L35.9 106.5Z" fill="url(#paint15_linear)"/>
<path d="M52 97.7002L64.6 122L71.6 87.2002L52 97.7002Z" fill="url(#paint16_linear)"/>
<path d="M29.8999 6L82.8999 35.2L70.3999 36.5L56.6999 38L29.8999 6Z" fill="url(#paint17_linear)"/>
<path d="M82.2 34.9002L48.3 16.2002L40.5 18.6002L56.7 38.0002L70.4 36.5002L82.2 35.3002V34.9002Z" fill="url(#paint18_linear)"/>
<path d="M77.5 35.8L82.9 35.2L77.9 32.5L77.5 35.8Z" fill="url(#paint19_linear)"/>
<path d="M122 84.4002L82.9 35.2002L70.4 36.5002L56.7 38.0002L122 84.4002Z" fill="url(#paint20_linear)"/>
<path d="M75.8999 51.6002L93.5999 64.2002L100.2 57.1002L82.8999 35.2002L77.4999 35.8002L75.8999 51.6002Z" fill="url(#paint21_linear)"/>
<path d="M89.7 61.3999L122 84.3999L91.8 46.3999L89.7 61.3999Z" fill="url(#paint22_linear)"/>
<path d="M122 84.4L84.4 99L72.1999 87.4L56.7 38L122 84.4Z" fill="url(#paint23_linear)"/>
<path d="M75.9 51.6001L72.2 87.4001L93.6 64.2001L75.9 51.6001Z" fill="url(#paint24_linear)"/>
<path d="M84.3999 98.9999L122 84.3999L89.6999 61.3999L84.3999 98.9999Z" fill="url(#paint25_linear)"/>
<path d="M72.3 86.8999L72.4 87.0999L88.5 69.7999L89.7 61.3999L74.5 64.8999L72.3 86.8999Z" fill="url(#paint26_linear)"/>
<path d="M84.4 99L72.1999 87.4L56.7 38L84.4 99Z" fill="url(#paint27_linear)"/>
<path d="M72.2 87.3999L84.4 98.9999L73.5 74.8999L72.2 87.3999Z" fill="url(#paint28_linear)"/>
<path d="M80.6 6L72.2 87.4L88.5 69.8L94.5 27.1L80.6 6Z" fill="url(#paint29_linear)"/>
<path d="M122 33.6L94.5001 27.1L80.6001 6L122 33.6Z" fill="url(#paint30_linear)"/>
<path d="M100 28H28V100H100V28Z" fill="url(#paint31_linear)"/>
<g opacity="0.3">
<path opacity="0.3" d="M28 86L33.4 100H45.8L85.9 78.3L81.8 28H28V86Z" fill="url(#paint32_linear)"/>
<path opacity="0.3" d="M77.7001 28L71.6001 86.5L87.8001 69L93.6001 28H77.7001Z" fill="url(#paint33_linear)"/>
<path opacity="0.3" d="M100 28.1L99.4001 28H93.6L83.8 98.1L100 91.8V28.1Z" fill="url(#paint34_linear)"/>
<path opacity="0.3" d="M100 68.6L56.3 37.5L71.6 86.5L83.8 98.1L100 91.8V68.6Z" fill="url(#paint35_linear)"/>
<path opacity="0.3" d="M28 100H68.5L82.2 34.7L70 28H28V100Z" fill="url(#paint36_linear)"/>
<path opacity="0.3" d="M28 84.4L42 78.3L56.3 37.5L48.3 28H28V84.4Z" fill="url(#paint37_linear)"/>
<path opacity="0.3" d="M56.3 37.5L69.8 36L82.2001 34.8L81.5 34.4L71.8 29L70 28H48.3L56.3 37.5Z" fill="url(#paint38_linear)"/>
</g>
<path d="M64.0001 86.3999H36.9001V90.8999H64.0001V86.3999Z" fill="white"/>
<path d="M36.5 36.998H46.9626C55.4324 36.998 61.2117 42.7774 61.2117 50.3504V50.45C61.3114 58.023 55.4324 63.902 46.9626 63.902H36.5V36.998ZM42.4786 42.3788V58.6208H47.0623C51.9448 58.6208 55.1335 55.3326 55.1335 50.5496V50.45C55.1335 45.6671 51.8452 42.3788 47.0623 42.3788H42.4786Z" fill="white"/>
<path d="M63.4038 60.1157L66.8914 55.9306C69.2828 57.9235 71.8736 59.2189 74.9625 59.2189C77.4536 59.2189 78.8486 58.2224 78.8486 56.6281V56.5285C78.8486 55.0338 77.9519 54.2367 73.3682 53.0409C67.8878 51.6459 64.4002 50.1512 64.4002 44.7705V44.6708C64.4002 39.7883 68.386 36.5 73.8664 36.5C77.8522 36.5 81.1405 37.6957 83.9305 39.9875L80.8415 44.4715C78.4501 42.7776 76.0586 41.7811 73.7668 41.7811C71.475 41.7811 70.2793 42.7776 70.2793 44.1726V44.2722C70.2793 46.0658 71.475 46.6637 76.1583 47.8594C81.6387 49.2544 84.7277 51.2473 84.7277 56.0303V56.1299C84.7277 61.5107 80.6422 64.5 74.7632 64.5C70.7775 64.4004 66.6921 63.0053 63.4038 60.1157Z" fill="white"/>
<defs>
<linearGradient id="paint0_linear" x1="96.1304" y1="56.247" x2="15.5757" y2="56.247" gradientUnits="userSpaceOnUse">
<stop offset="0.0782105" stop-color="#21D789"/>
<stop offset="0.8726" stop-color="#FCF84A"/>
</linearGradient>
<linearGradient id="paint1_linear" x1="35.3813" y1="57.0674" x2="23.8849" y2="65.7674" gradientUnits="userSpaceOnUse">
<stop offset="0.0782105" stop-color="white"/>
<stop offset="0.8726" stop-color="#FCF84A"/>
</linearGradient>
<linearGradient id="paint2_linear" x1="66.153" y1="22.7129" x2="77.8192" y2="5.7241" gradientUnits="userSpaceOnUse">
<stop offset="0.095296" stop-color="#BBF8AF" stop-opacity="0"/>
<stop offset="1" stop-color="#21FF79"/>
</linearGradient>
<linearGradient id="paint3_linear" x1="95.0967" y1="39.4876" x2="95.0967" y2="135.45" gradientUnits="userSpaceOnUse">
<stop  offset="0" stop-color="#21D789"/>
<stop offset="1" stop-color="#087CFA"/>
</linearGradient>
<linearGradient id="paint4_linear" x1="131.91" y1="78.4569" x2="63.1651" y2="49.3275" gradientUnits="userSpaceOnUse">
<stop offset="0.0202374" stop-color="#21D789" stop-opacity="0"/>
<stop offset="1" stop-color="#00FF6A"/>
</linearGradient>
<linearGradient id="paint5_linear" x1="158.687" y1="127.829" x2="44.2344" y2="35.2375" gradientUnits="userSpaceOnUse">
<stop offset="0.1049" stop-color="#21D789"/>
<stop offset="0.9668" stop-color="#087CFA"/>
</linearGradient>
<linearGradient id="paint6_linear" x1="106.292" y1="-2.9288" x2="26.3404" y2="87.6829" gradientUnits="userSpaceOnUse">
<stop offset="0.2348" stop-color="#21D789"/>
<stop offset="0.7396" stop-color="#087CFA"/>
</linearGradient>
<linearGradient id="paint7_linear" x1="5.16315" y1="29.9724" x2="50.6827" y2="64.3063" gradientUnits="userSpaceOnUse">
<stop offset="0.0782105" stop-color="#21D789"/>
<stop offset="0.8283" stop-color="#087CFA" stop-opacity="0"/>
</linearGradient>
<linearGradient id="paint8_linear" x1="78.7749" y1="35.9505" x2="80.4401" y2="33.855" gradientUnits="userSpaceOnUse">
<stop offset="0.0782105" stop-color="#21D789" stop-opacity="0"/>
<stop offset="0.8726" stop-color="#01D0FF"/>
</linearGradient>
<linearGradient id="paint9_linear" x1="21.8589" y1="60.5398" x2="52.1481" y2="22.4238" gradientUnits="userSpaceOnUse">
<stop offset="0.3826" stop-color="#087CFA" stop-opacity="0"/>
<stop offset="1" stop-color="#01EFDB"/>
</linearGradient>
<linearGradient id="paint10_linear" x1="38.6361" y1="115.358" x2="44.4866" y2="107.996" gradientUnits="userSpaceOnUse">
<stop offset="0.0782105" stop-color="#21D789" stop-opacity="0"/>
<stop offset="0.8726" stop-color="#01D0FF"/>
</linearGradient>
<linearGradient id="paint11_linear" x1="33.5107" y1="41.2359" x2="32.8893" y2="63.1412" gradientUnits="userSpaceOnUse">
<stop offset="0.0782105" stop-color="#21D789"/>
<stop offset="0.8283" stop-color="#087CFA" stop-opacity="0"/>
</linearGradient>
<linearGradient id="paint12_linear" x1="75.8161" y1="56.9621" x2="23.6162" y2="123.921" gradientUnits="userSpaceOnUse">
<stop offset="0.2348" stop-color="#083FFA"/>
<stop offset="0.7396" stop-color="#087CFA"/>
</linearGradient>
<linearGradient id="paint13_linear" x1="36.5345" y1="12.3832" x2="87.3361" y2="102.801" gradientUnits="userSpaceOnUse">
<stop offset="0.2458" stop-color="#083FFA"/>
<stop offset="0.9131" stop-color="#087CFA"/>
</linearGradient>
<linearGradient id="paint14_linear" x1="36.6875" y1="88.5787" x2="62.7709" y2="114.662" gradientUnits="userSpaceOnUse">
<stop offset="0.2348" stop-color="#089FFF"/>
<stop offset="0.7396" stop-color="#087CFA" stop-opacity="0"/>
</linearGradient>
<linearGradient id="paint15_linear" x1="53.5083" y1="108.451" x2="36.2767" y2="89.6674" gradientUnits="userSpaceOnUse">
<stop offset="0.1526" stop-color="#0832FF"/>
<stop offset="0.9138" stop-color="#087CFA" stop-opacity="0"/>
</linearGradient>
<linearGradient id="paint16_linear" x1="78.0781" y1="116.395" x2="57.1089" y2="91.5784" gradientUnits="userSpaceOnUse">
<stop offset="0.1526" stop-color="#0832FF"/>
<stop offset="0.9138" stop-color="#087CFA" stop-opacity="0"/>
</linearGradient>
<linearGradient id="paint17_linear" x1="55.8944" y1="-20.0106" x2="56.6298" y2="41.7658" gradientUnits="userSpaceOnUse">
<stop offset="0.2348" stop-color="#21D789"/>
<stop offset="0.8246" stop-color="#087CFA"/>
</linearGradient>
<linearGradient id="paint18_linear" x1="61.0524" y1="24.1324" x2="59.4634" y2="9.434" gradientUnits="userSpaceOnUse">
<stop offset="0.095296" stop-color="#BBF8AF" stop-opacity="0"/>
<stop offset="1" stop-color="#21FF79"/>
</linearGradient>
<linearGradient id="paint19_linear" x1="81.8195" y1="37.3861" x2="76.7428" y2="31.4907" gradientUnits="userSpaceOnUse">
<stop  offset="0" stop-color="#21D789" stop-opacity="0"/>
<stop offset="0.9185" stop-color="#21D789"/>
</linearGradient>
<linearGradient id="paint20_linear" x1="109.578" y1="91.5289" x2="70.7334" y2="33.2612" gradientUnits="userSpaceOnUse">
<stop offset="0.027928" stop-color="#21D789"/>
<stop offset="0.9294" stop-color="#0860FA"/>
</linearGradient>
<linearGradient id="paint21_linear" x1="88.9272" y1="60.65" x2="84.4996" y2="28.0251" gradientUnits="userSpaceOnUse">
<stop offset="0.0757413" stop-color="#087CFA" stop-opacity="0"/>
<stop offset="1" stop-color="#21D789" stop-opacity="0.6"/>
</linearGradient>
<linearGradient id="paint22_linear" x1="100.389" y1="65.4168" x2="78.95" y2="35.8214" gradientUnits="userSpaceOnUse">
<stop offset="0.0757413" stop-color="#087CFA" stop-opacity="0"/>
<stop offset="1" stop-color="#4F46C6" stop-opacity="0.6"/>
</linearGradient>
<linearGradient id="paint23_linear" x1="103.539" y1="95.555" x2="64.694" y2="37.2873" gradientUnits="userSpaceOnUse">
<stop  offset="0" stop-color="#18AFAF"/>
<stop offset="0.6591" stop-color="#0860FA"/>
<stop offset="0.9983" stop-color="#084CFA"/>
</linearGradient>
<linearGradient id="paint24_linear" x1="85.0289" y1="79.1673" x2="69.6486" y2="54.6987" gradientUnits="userSpaceOnUse">
<stop offset="0.0757413" stop-color="#087CFA" stop-opacity="0"/>
<stop offset="1" stop-color="#21D789" stop-opacity="0.6"/>
</linearGradient>
<linearGradient id="paint25_linear" x1="102.976" y1="91.5144" x2="78.4285" y2="68.6289" gradientUnits="userSpaceOnUse">
<stop offset="0.0757413" stop-color="#087CFA" stop-opacity="0"/>
<stop offset="1" stop-color="#21D789" stop-opacity="0.6"/>
</linearGradient>
<linearGradient id="paint26_linear" x1="78.5304" y1="71.9228" x2="70.0441" y2="64.0111" gradientUnits="userSpaceOnUse">
<stop  offset="0" stop-color="#087CFA" stop-opacity="0"/>
<stop offset="0.8547" stop-color="#0841FA"/>
</linearGradient>
<linearGradient id="paint27_linear" x1="86.8962" y1="96.3076" x2="52.5768" y2="44.8285" gradientUnits="userSpaceOnUse">
<stop  offset="0" stop-color="#089CFA"/>
<stop offset="0.7396" stop-color="#083CFA"/>
</linearGradient>
<linearGradient id="paint28_linear" x1="84.4653" y1="98.5678" x2="70.9208" y2="78.251" gradientUnits="userSpaceOnUse">
<stop  offset="0" stop-color="#087CFA" stop-opacity="0"/>
<stop offset="0.9787" stop-color="#0860FA"/>
</linearGradient>
<linearGradient id="paint29_linear" x1="83.4031" y1="43.1618" x2="88.8405" y2="18.3047" gradientUnits="userSpaceOnUse">
<stop offset="0.3551" stop-color="#BBF8AF" stop-opacity="0"/>
<stop offset="1" stop-color="#21FF79"/>
</linearGradient>
<linearGradient id="paint30_linear" x1="78.0747" y1="7.6428" x2="110.078" y2="31.7231" gradientUnits="userSpaceOnUse">
<stop offset="0.0202374" stop-color="#BBF8AF" stop-opacity="0"/>
<stop offset="1" stop-color="#21FF79"/>
</linearGradient>
<linearGradient id="paint31_linear" x1="28.6055" y1="28.6055" x2="102.46" y2="102.46" gradientUnits="userSpaceOnUse">
<stop offset="0.0284813" stop-color="#002846"/>
<stop offset="0.1369" stop-color="#002038"/>
<stop offset="0.4947" stop-color="#000910"/>
<stop offset="0.6795"/>
</linearGradient>
<linearGradient id="paint32_linear" x1="21.1198" y1="64" x2="79.0001" y2="64" gradientUnits="userSpaceOnUse">
<stop offset="0.0782105" stop-color="#21D789"/>
<stop offset="0.8726" stop-color="#FCF84A"/>
</linearGradient>
<linearGradient id="paint33_linear" x1="83.4856" y1="81.8858" x2="81.3598" y2="22.9224" gradientUnits="userSpaceOnUse">
<stop  offset="0" stop-color="#218640"/>
<stop offset="0.8027" stop-color="#B5FA59"/>
</linearGradient>
<linearGradient id="paint34_linear" x1="90.6432" y1="32.2258" x2="93.8148" y2="111.516" gradientUnits="userSpaceOnUse">
<stop offset="0.2348" stop-color="#21D789"/>
<stop offset="1" stop-color="#083450"/>
</linearGradient>
<linearGradient id="paint35_linear" x1="96.2358" y1="93.1775" x2="60.1971" y2="39.1195" gradientUnits="userSpaceOnUse">
<stop  offset="0" stop-color="#021A43"/>
<stop offset="0.6591" stop-color="#0860FA"/>
</linearGradient>
<linearGradient id="paint36_linear" x1="50.8851" y1="6.3145" x2="57.8891" y2="107.278" gradientUnits="userSpaceOnUse">
<stop offset="0.2348" stop-color="#21D789"/>
<stop offset="0.7396" stop-color="#083450"/>
</linearGradient>
<linearGradient id="paint37_linear" x1="44.6422" y1="84.5273" x2="38.4312" y2="26.1168" gradientUnits="userSpaceOnUse">
<stop offset="0.2268" stop-color="#086C93"/>
<stop offset="0.8196" stop-color="#01EFDB"/>
</linearGradient>
<linearGradient id="paint38_linear" x1="50.8952" y1="28.9031" x2="86.3685" y2="39.9885" gradientUnits="userSpaceOnUse">
<stop offset="0.2508" stop-color="#21D789"/>
<stop offset="0.8847" stop-color="#0C515A"/>
</linearGradient>
</defs>
</svg>
