<svg width="16" height="16" viewBox="0 0 16 16" fill="none" xmlns="http://www.w3.org/2000/svg">
<g clip-path="url(#clip0_4407_10129)">
<path d="M16 0H0V16H16V0Z" fill="#21D789"/>
<path d="M15 1H1V15H15V1Z" fill="black"/>
<path d="M8 12H3V13H8V12Z" fill="white"/>
<path d="M5.28407 8.18314C4.78387 8.18314 4.33087 8.06594 3.92507 7.83214C3.51947 7.59554 3.20087 7.27214 2.96927 6.86154C2.73787 6.44854 2.62207 5.98794 2.62207 5.48014C2.62207 4.97234 2.73787 4.51314 2.96927 4.10254C3.20067 3.68954 3.51927 3.36574 3.92507 3.13194C4.33067 2.89534 4.78367 2.77734 5.28407 2.77734C5.70707 2.77734 6.09547 2.85574 6.44887 3.01254C6.80227 3.16934 7.09587 3.38954 7.32987 3.67334C7.56627 3.95474 7.72427 4.27814 7.80407 4.64394H6.73627C6.66647 4.45494 6.56207 4.28934 6.42267 4.14734C6.28567 4.00314 6.12027 3.89214 5.92607 3.81514C5.73187 3.73814 5.52027 3.69934 5.29147 3.69934C4.98287 3.69934 4.70407 3.77634 4.45527 3.93074C4.20647 4.08514 4.01107 4.29794 3.86907 4.56914C3.72967 4.83794 3.66007 5.14174 3.66007 5.48014C3.66007 5.81854 3.72967 6.12374 3.86907 6.39474C4.01087 6.66354 4.20627 6.87494 4.45527 7.02934C4.70407 7.18374 4.98287 7.26074 5.29147 7.26074C5.52047 7.26074 5.73207 7.22194 5.92607 7.14494C6.12027 7.06794 6.28567 6.95834 6.42267 6.81634C6.56207 6.67214 6.66647 6.50514 6.73627 6.31614H7.80407C7.72447 6.68194 7.56627 7.00674 7.32987 7.29054C7.09587 7.57194 6.80227 7.79074 6.44887 7.94754C6.09547 8.10434 5.70707 8.18274 5.28407 8.18274V8.18314ZM9.55227 2.86674V7.17494H12.0313V8.09334H8.53687V2.86674H9.55227Z" fill="white"/>
<path d="M16 16H5.95284C5.43491 16 4.9382 15.7942 4.57198 15.428C4.20575 15.0618 4 14.565 4 14.0471V11.9529C4 11.435 4.20575 10.9382 4.57198 10.572C4.9382 10.2058 5.43491 10 5.95284 10H14.0471C14.5651 10 15.0618 10.2058 15.428 10.572C15.7942 10.9382 16 11.435 16 11.9529L16 16Z" fill="#FDB60D"/>
<path d="M5.87109 11.5659H8.11809V12.149H6.52223V12.7534H7.92665V13.3363H6.52223V13.9619H8.13943V14.5448H5.87114L5.87109 11.5659Z" fill="black"/>
<path d="M9.74321 11.5449H10.3475L11.6242 14.5449H10.939L10.6667 13.877H9.40715L9.1348 14.5449H8.4668L9.74321 11.5449ZM10.4328 13.2982L10.0369 12.332L9.64125 13.2982H10.4328Z" fill="black"/>
<path d="M12.084 11.5657H13.3011C13.4456 11.5486 13.5921 11.5625 13.7308 11.6066C13.8695 11.6508 13.9971 11.7242 14.1051 11.8217C14.2132 11.9192 14.2991 12.0387 14.3571 12.1722C14.4151 12.3056 14.4439 12.45 14.4415 12.5955V12.6042C14.4403 12.755 14.407 12.9039 14.3439 13.0409C14.2808 13.178 14.1892 13.3 14.0754 13.399C13.9615 13.498 13.828 13.5717 13.6835 13.6152C13.539 13.6586 13.387 13.6709 13.2374 13.6512H12.7395V14.5446H12.084L12.084 11.5657ZM13.2585 13.0679C13.3229 13.0761 13.3883 13.0706 13.4504 13.0518C13.5125 13.033 13.57 13.0011 13.619 12.9585C13.668 12.916 13.7075 12.8635 13.7348 12.8046C13.7622 12.7457 13.7768 12.6818 13.7777 12.6169V12.6083C13.7777 12.3149 13.5735 12.1573 13.2457 12.1573H12.7395V13.0679H13.2585Z" fill="black"/>
</g>
<defs>
<clipPath id="clip0_4407_10129">
<rect width="16" height="16" fill="white"/>
</clipPath>
</defs>
</svg>
