<svg width="16" height="16" viewBox="0 0 16 16" fill="none" xmlns="http://www.w3.org/2000/svg">
<g clip-path="url(#clip0_4372_11672)">
<path d="M16 0H0V16H16V0Z" fill="#21D789"/>
<path d="M15 1H1V15H15V1Z" fill="black"/>
<path d="M8 12H3V13H8V12Z" fill="white"/>
<path d="M5.28407 8.18314C4.78387 8.18314 4.33087 8.06594 3.92507 7.83214C3.51947 7.59554 3.20087 7.27214 2.96927 6.86154C2.73787 6.44854 2.62207 5.98794 2.62207 5.48014C2.62207 4.97234 2.73787 4.51314 2.96927 4.10254C3.20067 3.68954 3.51927 3.36574 3.92507 3.13194C4.33067 2.89534 4.78367 2.77734 5.28407 2.77734C5.70707 2.77734 6.09547 2.85574 6.44887 3.01254C6.80227 3.16934 7.09587 3.38954 7.32987 3.67334C7.56627 3.95474 7.72427 4.27814 7.80407 4.64394H6.73627C6.66647 4.45494 6.56207 4.28934 6.42267 4.14734C6.28567 4.00314 6.12027 3.89214 5.92607 3.81514C5.73187 3.73814 5.52027 3.69934 5.29147 3.69934C4.98287 3.69934 4.70407 3.77634 4.45527 3.93074C4.20647 4.08514 4.01107 4.29794 3.86907 4.56914C3.72967 4.83794 3.66007 5.14174 3.66007 5.48014C3.66007 5.81854 3.72967 6.12374 3.86907 6.39474C4.01087 6.66354 4.20627 6.87494 4.45527 7.02934C4.70407 7.18374 4.98287 7.26074 5.29147 7.26074C5.52047 7.26074 5.73207 7.22194 5.92607 7.14494C6.12027 7.06794 6.28567 6.95834 6.42267 6.81634C6.56207 6.67214 6.66647 6.50514 6.73627 6.31614H7.80407C7.72447 6.68194 7.56627 7.00674 7.32987 7.29054C7.09587 7.57194 6.80227 7.79074 6.44887 7.94754C6.09547 8.10434 5.70707 8.18274 5.28407 8.18274V8.18314ZM9.55227 2.86674V7.17494H12.0313V8.09334H8.53687V2.86674H9.55227Z" fill="white"/>
</g>
<defs>
<clipPath id="clip0_4372_11672">
<rect width="16" height="16" fill="white"/>
</clipPath>
</defs>
</svg>
