<svg width="32" height="32" viewBox="0 0 32 32" fill="none" xmlns="http://www.w3.org/2000/svg" data-scaled="true">
<path d="M32 27.5V12.9796C32 12.165 31.5145 11.4287 30.766 11.1079L12.0207 3.07383C11.7673 2.96533 11.4941 2.90918 11.2183 2.90918H2.03636C0.911709 2.90918 0 3.82089 0 4.94554V13.9285C0 14.3309 0.119273 14.7242 0.342691 15.059L11.0444 31.0933C11.422 31.6594 12.0576 31.9992 12.738 31.9992L27 32.0001C28.1247 32.0001 32 28.6247 32 27.5Z" fill="url(#paint0_linear_4407_10141)"/>
<path d="M29.0909 7.25964V2.03636C29.0909 0.911709 28.1792 0 27.0545 0H20.5082C20.4119 0 20.3156 0.00698182 20.2202 0.0203636L1.74836 2.6592C0.745018 2.80233 0 3.66167 0 4.67491V12.5114C0 13.6364 0.912 14.5481 2.03695 14.5478L11.3062 14.5455C11.5249 14.5455 11.7423 14.5103 11.9497 14.441L27.6986 9.19127C28.53 8.91404 29.0909 8.13585 29.0909 7.25934V7.25964Z" fill="url(#paint1_linear_4407_10141)"/>
<path d="M29.0907 7.97382L29.0898 2.03607C29.0898 0.911709 28.1781 0 27.0535 0H21.3002C20.7058 0 20.1409 0.259782 19.754 0.710982L3.39936 19.7917C3.08314 20.1609 2.90918 20.631 2.90918 21.1171V27.0548C2.90918 28.1795 3.82089 29.0912 4.94554 29.0912H10.6997C11.2941 29.0912 11.859 28.8314 12.2459 28.3802L28.6005 9.29949C28.917 8.93033 29.0907 8.46022 29.0907 7.97382Z" fill="#FF318C"/>
<path d="M26 6H6V26H26V6Z" fill="black"/>
<path d="M16 22H9V23H16V22Z" fill="white"/>
<path d="M12.1202 16.4628C11.4057 16.4628 10.7585 16.2954 10.1788 15.9614C9.59938 15.6234 9.14424 15.1614 8.81338 14.5748C8.48281 13.9848 8.31738 13.3268 8.31738 12.6014C8.31738 11.8759 8.48281 11.2199 8.81338 10.6334C9.14395 10.0434 9.5991 9.58081 10.1788 9.24681C10.7582 8.90881 11.4054 8.74023 12.1202 8.74023C12.7245 8.74023 13.2794 8.85223 13.7842 9.07623C14.2891 9.30023 14.7085 9.61481 15.0428 10.0202C15.3805 10.4222 15.6062 10.8842 15.7202 11.4068H14.1948C14.0951 11.1368 13.946 10.9002 13.7468 10.6974C13.5511 10.4914 13.3148 10.3328 13.0374 10.2228C12.76 10.1128 12.4577 10.0574 12.1308 10.0574C11.69 10.0574 11.2917 10.1674 10.9362 10.3879C10.5808 10.6085 10.3017 10.9125 10.0988 11.2999C9.89967 11.6839 9.80024 12.1179 9.80024 12.6014C9.80024 13.0848 9.89967 13.5208 10.0988 13.9079C10.3014 14.2919 10.5805 14.5939 10.9362 14.8145C11.2917 15.0351 11.69 15.1451 12.1308 15.1451C12.458 15.1451 12.7602 15.0897 13.0374 14.9797C13.3148 14.8697 13.5511 14.7131 13.7468 14.5102C13.946 14.3042 14.0951 14.0657 14.1948 13.7957H15.7202C15.6065 14.3182 15.3805 14.7822 15.0428 15.1877C14.7085 15.5897 14.2891 15.9022 13.7842 16.1262C13.2794 16.3502 12.7245 16.4622 12.1202 16.4622V16.4628ZM18.2177 8.86795V15.0225H21.7591V16.3345H16.7671V8.86795H18.2177Z" fill="white"/>
<path d="M28.0943 32H11.9057C11.3928 32 10.8849 31.8989 10.411 31.7026C9.93718 31.5064 9.50663 31.2188 9.14395 30.8561C8.78128 30.4934 8.49358 30.0628 8.2973 29.589C8.10102 29.1151 8 28.6073 8 28.0944V23.9056C8 23.3927 8.10102 22.8849 8.2973 22.411C8.49358 21.9372 8.78128 21.5066 9.14395 21.1439C9.50663 20.7812 9.93718 20.4935 10.411 20.2972C10.8849 20.101 11.3928 20 11.9057 20H28.0943C28.6072 20 29.1151 20.101 29.589 20.2972C30.0628 20.4935 30.4934 20.7812 30.856 21.1439C31.2187 21.5066 31.5064 21.9372 31.7027 22.411C31.899 22.8849 32 23.3927 32 23.9056V28.0944C32 29.1302 31.5885 30.1236 30.856 30.8561C30.1236 31.5885 29.1302 32 28.0943 32V32Z" fill="#FDB60D"/>
<path d="M12.4561 23.3779H16.5754V24.4471H13.6497V25.5549H16.2245V26.6237H13.6497V27.7706H16.6146V28.8394H12.4561V23.3779Z" fill="black"/>
<path d="M19.5559 23.3394H20.6637L23.0043 28.8394H21.7482L21.2489 27.6146H18.9398L18.4405 28.8394H17.2158L19.5559 23.3394ZM20.8202 26.5536L20.0943 24.7823L19.369 26.5536H20.8202Z" fill="black"/>
<path d="M23.8467 23.3783H26.0781C26.343 23.3468 26.6117 23.3724 26.8659 23.4533C27.1202 23.5343 27.3541 23.6687 27.5522 23.8475C27.7502 24.0263 27.9077 24.2455 28.014 24.4902C28.1204 24.7349 28.1731 24.9994 28.1688 25.2662V25.282C28.1665 25.5585 28.1055 25.8315 27.9898 26.0827C27.8741 26.334 27.7063 26.5577 27.4976 26.7392C27.2889 26.9207 27.044 27.0558 26.7791 27.1355C26.5142 27.2152 26.2355 27.2377 25.9612 27.2015H25.0485V28.8397H23.8467V23.3783ZM25.9998 26.1323C26.1179 26.1473 26.2378 26.1372 26.3517 26.1026C26.4656 26.0681 26.571 26.0099 26.6608 25.9319C26.7507 25.8538 26.823 25.7576 26.8732 25.6496C26.9233 25.5417 26.9501 25.4244 26.9517 25.3054V25.2897C26.9517 24.7517 26.5774 24.4627 25.9765 24.4627H25.0485V26.1323H25.9998Z" fill="black"/>
<defs>
<linearGradient id="paint0_linear_4407_10141" x1="1.99069" y1="2.11122" x2="31.3434" y2="31.4637" gradientUnits="userSpaceOnUse">
<stop offset="0.29" stop-color="#009AE5"/>
<stop offset="0.7" stop-color="#00D980"/>
</linearGradient>
<linearGradient id="paint1_linear_4407_10141" x1="28.1894" y1="-0.35869" x2="1.37629" y2="12.0727" gradientUnits="userSpaceOnUse">
<stop offset="0.3" stop-color="#FF318C"/>
<stop offset="0.54" stop-color="#009AE5"/>
</linearGradient>
</defs>
</svg>
