<!-- Copyright 2000-2023 JetBrains s.r.o. and contributors. Use of this source code is governed by the Apache 2.0 license. -->
<svg width="16" height="16" viewBox="0 0 16 16" fill="none" xmlns="http://www.w3.org/2000/svg">
<path fill-rule="evenodd" clip-rule="evenodd" d="M14.5263 9.45338C16.1636 11.0906 16.6154 13.3227 14.9603 14.9778C13.3051 16.6329 10.9876 16.1225 9.42233 14.5573C7.85708 12.9921 7.39145 10.6478 9.01078 9.02845C10.6301 7.40914 12.8891 7.81617 14.5263 9.45338Z" fill="#43454A"/>
<path fill-rule="evenodd" clip-rule="evenodd" d="M14.5263 9.45338C16.1636 11.0906 16.6154 13.3227 14.9603 14.9778C13.3051 16.6329 10.9876 16.1225 9.42233 14.5573C7.85708 12.9921 7.39145 10.6478 9.01078 9.02845C10.6301 7.40914 12.8891 7.81617 14.5263 9.45338ZM13.8192 10.1605C14.518 10.8592 14.9051 11.6277 14.9844 12.3223C15.0442 12.8461 14.9368 13.3752 14.5851 13.8779L10.1121 9.40499C10.602 9.06741 11.1283 8.95763 11.6554 9.01405C12.355 9.08891 13.1269 9.46818 13.8192 10.1605ZM9.40383 10.1109L13.8791 14.5862C13.3735 14.9393 12.8254 15.0473 12.2753 14.9821C11.5564 14.8969 10.7844 14.5051 10.1294 13.8502C9.4809 13.2017 9.09686 12.4265 9.01619 11.7024C8.9545 11.1487 9.06497 10.6036 9.40383 10.1109Z" fill="#CED0D6"/>
<path d="M9.65866 1.70242C9.97809 1.79054 10.1656 2.12093 10.0775 2.44037L6.92208 13.8788C6.83396 14.1982 6.50356 14.3857 6.18412 14.2976C5.86469 14.2095 5.67717 13.8791 5.76529 13.5596L8.9207 2.12126C9.00882 1.80182 9.33922 1.6143 9.65866 1.70242Z" fill="#E66D17"/>
<path d="M5.31911 5.51033C5.57786 5.30332 5.61982 4.92575 5.41281 4.66699C5.20581 4.40823 4.82823 4.36628 4.56947 4.57329L0.0395508 8.19723L4.56947 11.8212C4.82823 12.0282 5.20581 11.9862 5.41281 11.7275C5.61982 11.4687 5.57786 11.0911 5.31911 10.8841L1.96049 8.19723L5.31911 5.51033Z" fill="#E66D17"/>
<path d="M12.834 7.23282C13.7158 7.51804 14.5374 8.0502 15.2335 8.74627C15.2395 8.7523 15.2455 8.75834 15.2515 8.76439L15.9605 8.19725L11.4305 4.57331C11.1718 4.3663 10.7942 4.40825 10.5872 4.66701C10.3802 4.92577 10.4222 5.30334 10.6809 5.51035L12.834 7.23282Z" fill="#E66D17"/>
</svg>
