<svg width="16" height="16" viewBox="0 0 16 16" fill="none" xmlns="http://www.w3.org/2000/svg">
<path d="M13.0039 14.982C12.6613 14.9493 12.3493 14.8679 12.0679 14.738C11.6947 14.5611 11.402 14.3151 11.1897 13.9998C10.9806 13.6814 10.8745 13.3163 10.8713 12.9045H12.0968C12.0968 13.1104 12.1499 13.2922 12.2561 13.4498C12.3654 13.6074 12.5166 13.7312 12.7096 13.8213C12.9026 13.9081 13.1246 13.9516 13.3755 13.9516C13.6167 13.9516 13.829 13.913 14.0124 13.8358C14.1957 13.7553 14.3372 13.6428 14.437 13.498C14.5367 13.3533 14.5865 13.186 14.5865 12.9962C14.5865 12.7614 14.5142 12.5587 14.3694 12.3883C14.2279 12.2146 14.0381 12.1084 13.8001 12.0698L12.6421 11.8768C12.3172 11.8221 12.0325 11.7063 11.788 11.5294C11.5468 11.3525 11.3602 11.1322 11.2283 10.8684C11.0997 10.6046 11.0353 10.3151 11.0353 9.99989C11.0353 9.62032 11.1334 9.27936 11.3297 8.97699C11.5259 8.67462 11.7993 8.4382 12.1499 8.26772C12.4095 8.14265 12.6942 8.06346 13.0039 8.03014V7H14.0027V8.07648C14.2014 8.11829 14.388 8.18043 14.5624 8.26289C14.9162 8.42694 15.1913 8.65693 15.3875 8.95287C15.5869 9.2488 15.6882 9.58655 15.6915 9.96612H14.4659C14.4659 9.79242 14.4193 9.63641 14.326 9.49809C14.2359 9.35977 14.1072 9.25202 13.94 9.17482C13.7727 9.09762 13.5813 9.05902 13.3658 9.05902C13.1503 9.05902 12.9589 9.09601 12.7916 9.16999C12.6244 9.24398 12.4941 9.34691 12.4008 9.47879C12.3107 9.61068 12.2657 9.76507 12.2657 9.94199C12.2657 10.1479 12.3316 10.3264 12.4635 10.4776C12.5986 10.6255 12.7739 10.7188 12.9895 10.7574L14.1185 10.9408C14.453 10.9954 14.7506 11.1193 15.0111 11.3123C15.2717 11.5021 15.4727 11.7401 15.6143 12.0264C15.759 12.3095 15.8314 12.6118 15.8314 12.9335C15.8314 13.3259 15.7268 13.6798 15.5178 13.995C15.3119 14.307 15.0208 14.5531 14.6444 14.7332C14.445 14.827 14.2311 14.8959 14.0027 14.94V16H13.0039V14.982Z" fill="#6C707E"/>
<path d="M14.7101 6H12.0039V7.24403C11.9063 7.28046 11.8102 7.32135 11.7158 7.36683L11.7126 7.36839C11.2121 7.61173 10.7941 7.9652 10.4908 8.43263C10.1837 8.90588 10.0353 9.43788 10.0353 9.99989C10.0353 10.4556 10.1293 10.8965 10.3295 11.3068L10.3339 11.3156C10.4413 11.5304 10.5729 11.7271 10.727 11.9045H9.8634L9.87128 12.9124C9.87587 13.5002 10.0305 14.0564 10.3537 14.5487L10.3603 14.5584C10.3664 14.5675 10.3725 14.5765 10.3787 14.5855C9.6361 14.8538 8.83513 15 8 15C4.13401 15 1 11.866 1 8C1 4.13401 4.13401 1 8 1C11.171 1 13.8496 3.10851 14.7101 6Z" fill="#FFF7F7"/>
<path d="M10.3787 14.5855C9.6361 14.8538 8.83513 15 8 15C4.13401 15 1 11.866 1 8C1 4.13401 4.13401 1 8 1C11.171 1 13.8496 3.10851 14.7101 6H13.6586C12.8349 3.66962 10.6124 2 8 2C4.68629 2 2 4.68629 2 8C2 11.3137 4.68629 14 8 14C8.68889 14 9.35066 13.8839 9.96682 13.6702C10.0454 13.9792 10.1733 14.2739 10.3537 14.5487L10.3603 14.5584C10.3664 14.5675 10.3725 14.5765 10.3787 14.5855Z" fill="#DB3B4B"/>
</svg>
