<!-- Copyright 2000-2023 JetBrains s.r.o. and contributors. Use of this source code is governed by the Apache 2.0 license. -->
<svg width="16" height="16" viewBox="0 0 16 16" fill="none" xmlns="http://www.w3.org/2000/svg">
<path d="M11.2344 14.1875L0 11.3438C0 11.3438 3.15625 13.1406 4.59375 15.9844C7.07812 13.7656 11.2344 14.1875 11.2344 14.1875Z" fill="#4682FA"/>
<path d="M11.5382 4.41626C11.4245 10.0116 8.63325 13.1546 8.63325 13.1546L4.64417 12.1347L11.5382 4.41626Z" fill="#E66D17"/>
<path d="M11.5382 4.41623L4.64417 12.1347L2.74219 11.6484L11.4062 1.86328C11.5159 2.76321 11.5545 3.61487 11.5382 4.41623Z" fill="#FFAF0F"/>
<path d="M12.0625 14.0312C12.0625 14.0312 17.6406 9.32812 15.4688 0.015625L11.5382 4.41623C11.4245 10.0116 8.63324 13.1545 8.63324 13.1545L12.0625 14.0312Z" fill="#FFAF0F"/>
</svg>
