<svg width="14" height="14" viewBox="0 0 14 14" fill="none" xmlns="http://www.w3.org/2000/svg">
<circle cx="7" cy="7" r="6.5" fill="#45322B" stroke="#C77D55"/>
<path d="M7.16176 4C7.61409 4 8.01276 4.08242 8.35776 4.24725C8.70659 4.41208 8.97684 4.65358 9.16851 4.97175C9.36018 5.28608 9.45601 5.65792 9.45601 6.08725V10.026H8.42676V7.82375H8.69126C8.69126 8.31058 8.60501 8.73033 8.43251 9.083C8.26384 9.43183 8.02043 9.70017 7.70226 9.888C7.38409 10.072 7.00651 10.164 6.56951 10.164C6.19001 10.164 5.84884 10.0912 5.54601 9.9455C5.24701 9.79983 5.01126 9.59858 4.83876 9.34175C4.66626 9.08492 4.58001 8.79358 4.58001 8.46775C4.58001 8.15725 4.66051 7.87167 4.82151 7.611C4.98251 7.35033 5.20484 7.13758 5.48851 6.97275C5.77218 6.80408 6.09226 6.70058 6.44876 6.66225L8.01276 6.4955C8.13926 6.48017 8.23701 6.43033 8.30601 6.346C8.37884 6.25783 8.41526 6.1275 8.41526 5.955L8.48426 7.19125L6.63851 7.39825C6.45068 7.41742 6.28201 7.47108 6.13251 7.55925C5.98684 7.64742 5.87376 7.76433 5.79326 7.91C5.71276 8.05183 5.67251 8.209 5.67251 8.3815C5.67251 8.56933 5.72234 8.73608 5.82201 8.88175C5.92168 9.02742 6.05968 9.1405 6.23601 9.221C6.41234 9.3015 6.61551 9.34175 6.84551 9.34175C7.15984 9.34175 7.43393 9.2785 7.66776 9.152C7.90543 9.0255 8.08943 8.84725 8.21976 8.61725C8.35009 8.38725 8.41526 8.12275 8.41526 7.82375V5.9665C8.41526 5.748 8.36159 5.55633 8.25426 5.3915C8.14693 5.22283 7.99743 5.0925 7.80576 5.0005C7.61793 4.9085 7.39751 4.8625 7.14451 4.8625C6.89534 4.8625 6.66918 4.90658 6.46601 4.99475C6.26668 5.07908 6.10568 5.19408 5.98301 5.33975C5.86418 5.48158 5.79134 5.63683 5.76451 5.8055H4.71226C4.75826 5.4605 4.89051 5.15192 5.10901 4.87975C5.33134 4.60375 5.62076 4.38908 5.97726 4.23575C6.33376 4.07858 6.72859 4 7.16176 4Z" fill="#C77D55"/>
</svg>
