<svg width="16" height="16" viewBox="0 0 16 16" fill="none" xmlns="http://www.w3.org/2000/svg">
<circle cx="8" cy="8" r="6.5" fill="#45322B" stroke="#C77D55"/>
<path d="M8.1617 5C8.61403 5 9.0127 5.08242 9.3577 5.24725C9.70653 5.41208 9.97678 5.65358 10.1684 5.97175C10.3601 6.28608 10.4559 6.65792 10.4559 7.08725V11.026H9.4267V8.82375H9.6912C9.6912 9.31058 9.60495 9.73033 9.43245 10.083C9.26378 10.4318 9.02036 10.7002 8.7022 10.888C8.38403 11.072 8.00645 11.164 7.56945 11.164C7.18995 11.164 6.84878 11.0912 6.54595 10.9455C6.24695 10.7998 6.0112 10.5986 5.8387 10.3418C5.6662 10.0849 5.57995 9.79358 5.57995 9.46775C5.57995 9.15725 5.66045 8.87167 5.82145 8.611C5.98245 8.35033 6.20478 8.13758 6.48845 7.97275C6.77211 7.80408 7.0922 7.70058 7.4487 7.66225L9.0127 7.4955C9.1392 7.48017 9.23695 7.43033 9.30595 7.346C9.37878 7.25783 9.4152 7.1275 9.4152 6.955L9.4842 8.19125L7.63845 8.39825C7.45061 8.41742 7.28195 8.47108 7.13245 8.55925C6.98678 8.64742 6.8737 8.76433 6.7932 8.91C6.7127 9.05183 6.67245 9.209 6.67245 9.3815C6.67245 9.56933 6.72228 9.73608 6.82195 9.88175C6.92161 10.0274 7.05961 10.1405 7.23595 10.221C7.41228 10.3015 7.61545 10.3418 7.84545 10.3418C8.15978 10.3418 8.43386 10.2785 8.6677 10.152C8.90536 10.0255 9.08936 9.84725 9.2197 9.61725C9.35003 9.38725 9.4152 9.12275 9.4152 8.82375V6.9665C9.4152 6.748 9.36153 6.55633 9.2542 6.3915C9.14686 6.22283 8.99736 6.0925 8.8057 6.0005C8.61786 5.9085 8.39745 5.8625 8.14445 5.8625C7.89528 5.8625 7.66911 5.90658 7.46595 5.99475C7.26661 6.07908 7.10561 6.19408 6.98295 6.33975C6.86411 6.48158 6.79128 6.63683 6.76445 6.8055H5.7122C5.7582 6.4605 5.89045 6.15192 6.10895 5.87975C6.33128 5.60375 6.6207 5.38908 6.9772 5.23575C7.3337 5.07858 7.72853 5 8.1617 5Z" fill="#C77D55"/>
</svg>
