<svg width="16" height="16" viewBox="0 0 16 16" fill="none" xmlns="http://www.w3.org/2000/svg">
<path d="M3 6C3 4.97251 3.30993 4.0174 3.84141 3.22307L3.06441 1.71657C2.96787 1.52939 3.00342 1.30127 3.15234 1.15234C3.30127 1.00342 3.52939 0.967868 3.71657 1.06441L5.22307 1.84141C6.0174 1.30993 6.97251 1 8 1C9.02721 1 9.98207 1.30976 10.7763 1.84097L12.2874 1.06065C12.4745 0.964032 12.7027 0.999529 12.8516 1.14844C13.0005 1.29735 13.036 1.52547 12.9393 1.71258L12.159 3.22372C12.6902 4.01793 13 4.97279 13 6V7H9.5C8.96171 7 8.4647 7.28843 8.19764 7.75579L6.19764 11.2558C5.93412 11.7169 5.93412 12.2831 6.19764 12.7442L7.48666 15H7C4.79086 15 3 13.2091 3 11V6Z" fill="#4682FA"/>
<path d="M7.5 4.75C7.5 5.7165 6.7165 6.5 5.75 6.5C4.7835 6.5 4 5.7165 4 4.75C4 3.7835 4.7835 3 5.75 3C6.7165 3 7.5 3.7835 7.5 4.75Z" fill="white"/>
<path d="M12 4.75C12 5.7165 11.2165 6.5 10.25 6.5C9.2835 6.5 8.5 5.7165 8.5 4.75C8.5 3.7835 9.2835 3 10.25 3C11.2165 3 12 3.7835 12 4.75Z" fill="white"/>
<path d="M8.38192 7.5H7V8.5C7 8.77171 7.21674 8.99281 7.48676 8.99983L8.19764 7.75579C8.25053 7.66322 8.31245 7.57768 8.38192 7.5Z" fill="white"/>
<path d="M9.03048 7.07535C8.68345 7.18976 8.38435 7.42905 8.19764 7.75579L7.91618 8.24834C7.26491 8.22247 6.75 7.89731 6.75 7.5C6.75 7.08579 7.30964 6.75 8 6.75C8.42763 6.75 8.8051 6.87884 9.03048 7.07535Z" fill="#CCA18A"/>
<path d="M4.71409 14.2829C4.32586 14.0121 3.98791 13.6741 3.71708 13.2859L3.20649 13.7965C2.93117 14.0718 2.93117 14.5182 3.20649 14.7935C3.48181 15.0688 3.92819 15.0688 4.20351 14.7935L4.71409 14.2829Z" fill="#CCA18A"/>
<path d="M3.99843 8.99849L2.99843 9.99849C2.72311 10.2738 2.27673 10.2738 2.00141 9.99849C1.72609 9.72317 1.72609 9.27678 2.00141 9.00146L3.00141 8.00146L3.99843 8.99849Z" fill="#CCA18A"/>
<path d="M6.5 4.75C6.5 5.16421 6.16421 5.5 5.75 5.5C5.33579 5.5 5 5.16421 5 4.75C5 4.33579 5.33579 4 5.75 4C6.16421 4 6.5 4.33579 6.5 4.75Z" fill="black"/>
<path d="M11 4.75C11 5.16421 10.6642 5.5 10.25 5.5C9.83579 5.5 9.5 5.16421 9.5 4.75C9.5 4.33579 9.83579 4 10.25 4C10.6642 4 11 4.33579 11 4.75Z" fill="black"/>
<path d="M8.5 7.5C8.77614 7.5 9.00684 7.27302 8.94406 7.00411C8.80756 6.41937 8.43643 6 8 6C7.56357 6 7.19244 6.41937 7.05594 7.00411C6.99316 7.27302 7.22386 7.5 7.5 7.5H8.5Z" fill="black"/>
<path d="M9.5 8C9.32057 8 9.1549 8.09614 9.06588 8.25193L7.06588 11.7519C6.97804 11.9056 6.97804 12.0944 7.06588 12.2481L9.06588 15.7481C9.1549 15.9039 9.32057 16 9.5 16H13.5C13.6794 16 13.8451 15.9039 13.9341 15.7481L15.9341 12.2481C16.022 12.0944 16.022 11.9056 15.9341 11.7519L13.9341 8.25193C13.8451 8.09614 13.6794 8 13.5 8H9.5Z" fill="#4682FA"/>
<path d="M11.5 9.75C11.3189 9.75 11.1428 9.77139 10.9741 9.81179L11.1073 9.19706C11.1322 9.08206 11.234 9 11.3516 9H11.6484C11.766 9 11.8678 9.08206 11.8927 9.19706L12.0259 9.81179C11.8572 9.77139 11.6811 9.75 11.5 9.75Z" fill="white"/>
<path d="M8.5 12V11.4452C8.5 11.3305 8.57808 11.2305 8.68936 11.2027L9.4816 11.0046C9.33333 11.3047 9.25 11.6426 9.25 12H8.5Z" fill="white"/>
<path d="M13.5184 11.0046C13.6667 11.3047 13.75 11.6426 13.75 12H14.5V11.4452C14.5 11.3305 14.4219 11.2305 14.3106 11.2027L13.5184 11.0046Z" fill="white"/>
<path d="M11.5 12.5C11.2239 12.5 11 12.2761 11 12C11 11.7239 11.2239 11.5 11.5 11.5C11.7761 11.5 12 11.7239 12 12C12 12.2761 11.7761 12.5 11.5 12.5Z" fill="white"/>
<path fill-rule="evenodd" clip-rule="evenodd" d="M11.5 13.75C12.4665 13.75 13.25 12.9665 13.25 12C13.25 11.0335 12.4665 10.25 11.5 10.25C10.5335 10.25 9.75 11.0335 9.75 12C9.75 12.9665 10.5335 13.75 11.5 13.75ZM11.5 13C12.0523 13 12.5 12.5523 12.5 12C12.5 11.4477 12.0523 11 11.5 11C10.9477 11 10.5 11.4477 10.5 12C10.5 12.5523 10.9477 13 11.5 13Z" fill="white"/>
</svg>
