<svg width="16" height="16" viewBox="0 0 16 16" fill="none" xmlns="http://www.w3.org/2000/svg">
<path d="M4.9906 14.7076L5.45631 13.901C5.5312 13.7712 5.48676 13.6054 5.35703 13.5305L4.7077 13.1556C4.5458 13.0621 4.33877 13.1176 4.2453 13.2795L3.81323 14.0278C3.62552 14.353 3.73692 14.7687 4.06204 14.9564C4.38716 15.1441 4.80289 15.0327 4.9906 14.7076Z" fill="#CCA18A"/>
<path d="M4.41455 12.9863L3.81323 14.0278C3.62552 14.353 3.73692 14.7687 4.06204 14.9564V14.9564C4.38716 15.1441 4.80289 15.0327 4.9906 14.7076L5.59192 13.6661" stroke="black" stroke-width="0.2"/>
<path d="M12.3703 14.0651L11.8628 13.186C11.7879 13.0563 11.622 13.0118 11.4923 13.0867L10.843 13.4616C10.6811 13.5551 10.6256 13.7621 10.7191 13.924L11.193 14.7448C11.3807 15.07 11.7964 15.1813 12.1215 14.9936C12.4466 14.8059 12.558 14.3902 12.3703 14.0651Z" fill="#CCA18A"/>
<path d="M10.5498 13.6309L11.193 14.7448C11.3807 15.07 11.7964 15.1813 12.1215 14.9936V14.9936C12.4466 14.8059 12.558 14.3902 12.3703 14.0651L11.7272 12.9511" stroke="black" stroke-width="0.2"/>
<path d="M3.51896 2.34575L4.13287 2.58777C4.35452 2.67515 4.42858 2.95194 4.28018 3.13834L3.96642 3.54818C3.80865 3.74979 3.5029 3.74783 3.34772 3.54423L2.97871 3.06005C2.85512 2.8979 2.85161 2.67415 2.97005 2.50819C3.09403 2.33446 3.32039 2.26747 3.51896 2.34575Z" fill="#99D6FA"/>
<path d="M3.62326 3.86294L2.96565 3.01752C2.84022 2.85626 2.84253 2.6298 2.97124 2.47113V2.47113C3.09258 2.32156 3.2972 2.26849 3.47594 2.34022L4.5672 2.77819" stroke="black" stroke-width="0.2"/>
<path d="M12.4567 2.34543L11.8447 2.59205C11.6237 2.6811 11.5517 2.95844 11.7015 3.14371L12.0183 3.55119C12.1776 3.7516 12.4833 3.74734 12.637 3.54258L13.0023 3.05564C13.1247 2.89257 13.1265 2.66879 13.0068 2.50373C12.8816 2.33094 12.6547 2.26566 12.4567 2.34543Z" fill="#99D6FA"/>
<path d="M12.3641 3.86338L13.0153 3.01304C13.1396 2.85084 13.1356 2.6244 13.0057 2.46671V2.46671C12.8832 2.31806 12.6782 2.26652 12.5 2.3396L11.412 2.78576" stroke="black" stroke-width="0.2"/>
<path fill-rule="evenodd" clip-rule="evenodd" d="M7.4249 1.41113C5.25974 1.41113 3.11664 3.31166 3.04023 5.78436C2.9918 7.35163 2.9918 8.94238 3.04023 10.5097C3.11453 12.9143 4.87767 14.3797 6.96598 14.4585C6.66774 13.7993 6.50171 13.0676 6.50171 12.297C6.50171 9.39798 8.85184 7.04785 11.7509 7.04785C12.1751 7.04785 12.5876 7.09818 12.9826 7.19318C12.9773 6.72508 12.9681 6.25596 12.955 5.78436C12.8872 3.33395 10.7441 1.41113 8.59871 1.41113H7.4249Z" fill="#99D6FA"/>
<path fill-rule="evenodd" clip-rule="evenodd" d="M7.4249 1.61113H8.59871C10.6366 1.61113 12.6903 3.44851 12.7551 5.78989C12.7677 6.24484 12.7767 6.69748 12.7821 7.14912C12.8494 7.16253 12.9163 7.17722 12.9826 7.19318C12.9773 6.72508 12.9681 6.25596 12.955 5.78436C12.8872 3.33395 10.7441 1.41113 8.59871 1.41113H7.4249C5.25974 1.41113 3.11664 3.31166 3.04023 5.78436C2.9918 7.35163 2.9918 8.94238 3.04023 10.5097C3.11453 12.9143 4.87767 14.3797 6.96598 14.4585C6.93549 14.3911 6.90638 14.323 6.87869 14.2541C4.92647 14.1392 3.30972 12.7555 3.24013 10.5035C3.19183 8.94032 3.19183 7.35369 3.24013 5.79053C3.31315 3.42747 5.36615 1.61113 7.4249 1.61113Z" fill="black"/>
<path fill-rule="evenodd" clip-rule="evenodd" d="M7.30156 4.83828C7.30156 5.76247 6.56724 6.51152 5.66152 6.51152C4.75581 6.51152 4.02148 5.76247 4.02148 4.83828C4.02148 3.91409 4.75581 3.16504 5.66152 3.16504C6.56724 3.16504 7.30156 3.91409 7.30156 4.83828Z" fill="white"/>
<path fill-rule="evenodd" clip-rule="evenodd" d="M5.93012 4.83735C5.93012 5.26451 5.59046 5.61122 5.17139 5.61122C4.75275 5.61122 4.41309 5.26451 4.41309 4.83735C4.41309 4.41019 4.75275 4.06348 5.17139 4.06348C5.59046 4.06348 5.93012 4.41019 5.93012 4.83735Z" fill="black"/>
<path fill-rule="evenodd" clip-rule="evenodd" d="M11.97 4.83828C11.97 5.76247 11.2357 6.51152 10.33 6.51152C9.42386 6.51152 8.68994 5.76247 8.68994 4.83828C8.68994 3.91409 9.42386 3.16504 10.33 3.16504C11.2357 3.16504 11.97 3.91409 11.97 4.83828Z" fill="white"/>
<path fill-rule="evenodd" clip-rule="evenodd" d="M11.5854 4.83735C11.5854 5.26451 11.2457 5.61122 10.8271 5.61122C10.408 5.61122 10.0684 5.26451 10.0684 4.83735C10.0684 4.41019 10.408 4.06348 10.8271 4.06348C11.2457 4.06348 11.5854 4.41019 11.5854 4.83735Z" fill="black"/>
<path fill-rule="evenodd" clip-rule="evenodd" d="M7.63232 7.58374H8.60962V6.7793H7.63232V7.58374Z" fill="white"/>
<path fill-rule="evenodd" clip-rule="evenodd" d="M9.09672 6.51175C9.09672 6.80778 8.6595 7.04791 8.12018 7.04791C7.58126 7.04791 7.14404 6.80778 7.14404 6.51175C7.14404 6.21571 7.58126 5.97559 8.12018 5.97559C8.6595 5.97559 9.09672 6.21571 9.09672 6.51175Z" fill="#CCA18A"/>
<path fill-rule="evenodd" clip-rule="evenodd" d="M8.60968 6.23446C8.60968 6.53573 8.38755 6.51159 8.11295 6.51159C7.83874 6.51159 7.61621 6.53573 7.61621 6.23446C7.61621 5.9332 7.83874 5.68945 8.11295 5.68945C8.38755 5.68945 8.60968 5.9332 8.60968 6.23446Z" fill="black"/>
<path d="M13.7107 9.68248L13.0226 8.99436C12.933 8.90474 12.7876 8.90474 12.698 8.99436L12.2494 9.44297C12.1376 9.55483 12.1376 9.73618 12.2494 9.84804L12.8973 10.4959C13.1219 10.7205 13.4861 10.7205 13.7107 10.4959C13.9353 10.2713 13.9353 9.9071 13.7107 9.68248Z" fill="#CCA18A"/>
<path d="M12.0469 9.64551L12.8973 10.4959C13.1219 10.7205 13.4861 10.7205 13.7107 10.4959V10.4959C13.9353 10.2713 13.9353 9.9071 13.7107 9.68248L12.8603 8.83209" stroke="black" stroke-width="0.2"/>
<path d="M3.09682 10.4958L3.78493 9.80773C3.87456 9.71811 3.87456 9.5728 3.78493 9.48318L3.33632 9.03456C3.22447 8.92271 3.04311 8.92271 2.93126 9.03456L2.28339 9.68243C2.05877 9.90705 2.05877 10.2712 2.28339 10.4958C2.50801 10.7205 2.8722 10.7205 3.09682 10.4958Z" fill="#CCA18A"/>
<path d="M3.13379 8.83203L2.28339 9.68243C2.05877 9.90705 2.05877 10.2712 2.28339 10.4958V10.4958C2.50801 10.7205 2.8722 10.7205 3.09682 10.4958L3.94721 9.64545" stroke="black" stroke-width="0.2"/>
<path fill-rule="evenodd" clip-rule="evenodd" d="M15.651 11.5311L13.8519 8.40222C13.7142 8.1581 13.4576 8.00508 13.1774 8H9.57864C9.29838 8.00494 9.04172 8.158 8.90416 8.40222L7.10442 11.5229C6.96519 11.7651 6.96519 12.0631 7.10442 12.3054L8.90348 15.4521C9.03963 15.6997 9.2956 15.8578 9.57795 15.8686H13.1767C13.4591 15.859 13.7155 15.7015 13.8519 15.4541L15.651 12.3253C15.7912 12.0791 15.7912 11.7772 15.651 11.5311Z" fill="#4285F4"/>
<path opacity="0.07" fill-rule="evenodd" clip-rule="evenodd" d="M13.927 11.7969L13.8798 11.7826L11.4925 9.39453L11.0027 10.1107L11.4131 10.5212L10.3686 10.9015L9.95817 11.9399L9.55732 11.539L8.83838 12.1738L12.5323 15.8677H13.1766C13.459 15.858 13.7154 15.7006 13.8518 15.4532L15.2137 13.0829L13.927 11.7969Z" fill="black"/>
<path fill-rule="evenodd" clip-rule="evenodd" d="M9.80469 11.9337C9.80469 11.0648 10.5091 10.3604 11.378 10.3604C11.7953 10.3604 12.1955 10.5261 12.4905 10.8212C12.7856 11.1162 12.9513 11.5164 12.9513 11.9337C12.9513 12.8026 12.2469 13.507 11.378 13.507C10.5091 13.507 9.80469 12.8026 9.80469 11.9337ZM10.1809 11.9378C10.1817 12.5983 10.7175 13.1332 11.378 13.1328V13.1301C11.6953 13.1301 11.9995 13.004 12.2238 12.7796C12.448 12.5552 12.5739 12.2509 12.5737 11.9337C12.5722 11.2732 12.0358 10.7389 11.3753 10.74C10.7148 10.7411 10.1802 11.2773 10.1809 11.9378Z" fill="white"/>
<path fill-rule="evenodd" clip-rule="evenodd" d="M13.8498 11.7472L13.1924 11.542C13.2204 11.6708 13.2346 11.8022 13.2348 11.934C13.2348 12.0267 13.2279 12.1193 13.2143 12.211H13.8504C13.9043 12.2027 13.945 12.158 13.9483 12.1036V11.8553C13.945 11.8009 13.9043 11.7562 13.8504 11.7479" fill="white"/>
<path fill-rule="evenodd" clip-rule="evenodd" d="M11.3776 10.0764C11.507 10.0765 11.6361 10.09 11.7627 10.1167L11.5267 9.46208C11.5184 9.408 11.4733 9.36718 11.4186 9.36426H11.3201C11.2654 9.36692 11.2201 9.40787 11.2121 9.46208L11.0068 10.114C11.1284 10.0894 11.2522 10.077 11.3762 10.077" fill="white"/>
<path fill-rule="evenodd" clip-rule="evenodd" d="M9.52059 11.9336C9.52046 11.8014 9.53445 11.6695 9.56232 11.5403L8.90495 11.7455C8.85087 11.7538 8.81005 11.7989 8.80713 11.8536V12.1019C8.81036 12.1563 8.85111 12.201 8.90495 12.2093H9.54112C9.52738 12.1176 9.52052 12.025 9.52059 11.9322" fill="white"/>
<path fill-rule="evenodd" clip-rule="evenodd" d="M11.7881 11.5683L11.9407 11.4192C12.1374 11.6159 12.2142 11.9027 12.1422 12.1714C12.0702 12.4401 11.8603 12.6501 11.5916 12.7221C11.3228 12.7941 11.0361 12.7172 10.8394 12.5205L10.9885 12.3714C10.7897 12.147 10.7996 11.8067 11.0111 11.5943C11.2227 11.3818 11.5629 11.3705 11.7881 11.5683ZM11.2392 12.2673C11.3742 12.3232 11.5296 12.2922 11.6329 12.1887C11.7011 12.1214 11.7395 12.0295 11.7395 11.9336C11.7395 11.8377 11.7011 11.7458 11.6329 11.6784C11.5296 11.575 11.3742 11.544 11.2392 11.5998C11.1041 11.6557 11.016 11.7875 11.016 11.9336C11.016 12.0797 11.1041 12.2115 11.2392 12.2673Z" fill="white"/>
</svg>
