<svg width="16" height="16" viewBox="0 0 16 16" fill="none" xmlns="http://www.w3.org/2000/svg">
<path d="M8.94564 7.0095C9.13528 7.141 9.25 7.31246 9.25 7.5C9.25 7.66887 9.15698 7.82471 9 7.95007V8.5C9 8.77614 8.77614 9 8.5 9H7.5C7.22386 9 7 8.77614 7 8.5V7.95007C6.84302 7.82471 6.75 7.66887 6.75 7.5C6.75 7.31218 6.86506 7.14049 7.0552 7.00891L7.0563 7.00411C7.1928 6.41937 7.56393 6 8.00036 6C8.43679 6 8.80792 6.41937 8.94442 7.00411L8.94564 7.0095Z" fill="white"/>
<path fill-rule="evenodd" clip-rule="evenodd" d="M5.40732 1.72387C6.1633 1.26452 7.05076 1 8 1C9.02721 1 9.98207 1.30976 10.7763 1.84096L12.2874 1.06065C12.4745 0.964032 12.7027 0.999529 12.8516 1.14844C13.0005 1.29735 13.036 1.52547 12.9393 1.71258L12.159 3.22372C12.1994 3.28401 12.2384 3.34522 12.2761 3.40732C12.7355 4.1633 13 5.05076 13 6V8.00288L13.9986 9.00146C14.2739 9.27678 14.2739 9.72317 13.9986 9.99849C13.7233 10.2738 13.2769 10.2738 13.0016 9.99849L13 9.99692V11C13 11.8505 12.7346 12.639 12.282 13.2872L12.2829 13.2859L12.7935 13.7965C13.0688 14.0718 13.0688 14.5182 12.7935 14.7935C12.5182 15.0688 12.0718 15.0688 11.7965 14.7935L11.2859 14.2829C11.2555 14.3041 11.2249 14.3249 11.1939 14.3452C10.564 14.7592 9.8101 15 9 15H7C4.79086 15 3 13.2091 3 11V9.99692L2.99843 9.99849C2.72311 10.2738 2.27673 10.2738 2.00141 9.99849C1.72609 9.72317 1.72609 9.27678 2.00141 9.00146L3 8.00288V6C3 4.97251 3.30993 4.0174 3.84141 3.22307L3.06441 1.71657C2.96787 1.52939 3.00342 1.30127 3.15234 1.15234C3.30127 1.00342 3.52939 0.967868 3.71657 1.06441L5.22307 1.84141C5.28357 1.80093 5.34499 1.76174 5.40732 1.72387ZM11.9989 5.90352C11.9996 5.93559 12 5.96775 12 6V11C12 12.6569 10.6569 14 9 14H7C5.34315 14 4 12.6569 4 11V6C4 5.97103 4.00031 5.94213 4.00092 5.9133C4.00577 5.68544 4.02966 5.46228 4.07109 5.24533C4.28472 5.9706 4.95554 6.5 5.75 6.5C6.7165 6.5 7.5 5.7165 7.5 4.75C7.5 3.7835 6.7165 3 5.75 3C5.58902 3 5.43312 3.02174 5.28507 3.06243C5.99825 2.40298 6.95206 2 8 2C9.04794 2 10.0017 2.40298 10.7149 3.06243C10.5669 3.02174 10.411 3 10.25 3C9.2835 3 8.5 3.7835 8.5 4.75C8.5 5.7165 9.2835 6.5 10.25 6.5C11.0445 6.5 11.7153 5.9706 11.9289 5.24533C11.9697 5.45917 11.9935 5.67906 11.9989 5.90352ZM5.75 5.5C6.16421 5.5 6.5 5.16421 6.5 4.75C6.5 4.33579 6.16421 4 5.75 4C5.33579 4 5 4.33579 5 4.75C5 5.16421 5.33579 5.5 5.75 5.5ZM10.25 5.5C10.6642 5.5 11 5.16421 11 4.75C11 4.33579 10.6642 4 10.25 4C9.83579 4 9.5 4.33579 9.5 4.75C9.5 5.16421 9.83579 5.5 10.25 5.5Z" fill="white"/>
<path d="M3.71708 13.2859C3.98791 13.6741 4.32586 14.0121 4.71409 14.2829L4.20351 14.7935C3.92819 15.0688 3.48181 15.0688 3.20649 14.7935C2.93117 14.5182 2.93117 14.0718 3.20649 13.7965L3.71708 13.2859Z" fill="white"/>
</svg>
