<svg width="16" height="16" viewBox="0 0 16 16" fill="none" xmlns="http://www.w3.org/2000/svg">
<path fill-rule="evenodd" clip-rule="evenodd" d="M6.20596 6.30303C7.08956 6.30303 7.80596 5.58677 7.80596 4.70303C7.80596 3.81929 7.08956 3.10303 6.20596 3.10303C5.32236 3.10303 4.60596 3.81929 4.60596 4.70303C4.60596 5.58677 5.32236 6.30303 6.20596 6.30303ZM6.60107 4.55298C6.60107 4.96696 6.26522 5.30298 5.85086 5.30298C5.43693 5.30298 5.10107 4.96696 5.10107 4.55298C5.10107 4.139 5.43693 3.80298 5.85086 3.80298C6.26522 3.80298 6.60107 4.139 6.60107 4.55298Z" fill="white"/>
<path fill-rule="evenodd" clip-rule="evenodd" d="M9.90078 6.30303C10.7844 6.30303 11.5008 5.58677 11.5008 4.70303C11.5008 3.81929 10.7844 3.10303 9.90078 3.10303C9.01678 3.10303 8.30078 3.81929 8.30078 4.70303C8.30078 5.58677 9.01678 6.30303 9.90078 6.30303ZM11 4.55713C11 4.97111 10.6641 5.30713 10.2502 5.30713C9.83585 5.30713 9.5 4.97111 9.5 4.55713C9.5 4.14315 9.83585 3.80713 10.2502 3.80713C10.6641 3.80713 11 4.14315 11 4.55713Z" fill="white"/>
<path d="M7.54813 6.4585C7.6194 6.2562 7.8005 6.11719 8.01251 6.11719C8.22498 6.11719 8.40604 6.25642 8.47709 6.45898C8.76645 6.55048 8.95267 6.72628 8.95267 6.92805C8.95267 7.12445 8.77624 7.30651 8.5 7.40682V8.00005H7.51172V7.40243C7.24051 7.30124 7.06641 7.12154 7.06641 6.92796C7.06641 6.72585 7.2562 6.54984 7.54813 6.4585Z" fill="white"/>
<path fill-rule="evenodd" clip-rule="evenodd" d="M8.61237 0.999268H7.41055C6.36864 0.999268 5.32817 1.45363 4.53326 2.20538L3.51941 1.81513C3.27105 1.71954 2.98938 1.79496 2.82203 2.00188C2.64474 2.22109 2.63967 2.53291 2.80975 2.75776L3.49593 3.66493C3.27609 4.15945 3.1437 4.7031 3.12592 5.2784C3.10171 6.06208 3.08935 6.85151 3.08885 7.64107L1.80876 8.96906C1.54236 9.24543 1.55065 9.68549 1.82727 9.95163C2.09796 10.2121 2.52667 10.2101 2.79497 9.9472L3.11288 9.63567C3.11676 9.79192 3.12111 9.94798 3.12592 10.1038C3.16263 11.2919 3.61997 12.244 4.32818 12.9039L3.81155 13.7988C3.59064 14.1814 3.72174 14.6707 4.10437 14.8916C4.48701 15.1125 4.97628 14.9814 5.19719 14.5988L5.70396 13.721C6.14755 13.8729 6.62659 13.9519 7.12287 13.9519H9.04592C9.52858 13.9519 9.98705 13.8774 10.4077 13.7345L10.9067 14.5988C11.1276 14.9814 11.6169 15.1125 11.9995 14.8916C12.3821 14.6707 12.5132 14.1814 12.2923 13.7988L11.773 12.8992C12.4207 12.2582 12.8355 11.3336 12.8679 10.1618C12.8727 9.98832 12.877 9.81518 12.8808 9.64231L13.1922 9.94744C13.4605 10.2104 13.8892 10.2123 14.1599 9.95187C14.4365 9.68573 14.4448 9.24567 14.1784 8.9693L12.9019 7.64501C12.9012 6.85836 12.8899 6.0715 12.8679 5.27774C12.8533 4.74972 12.7399 4.24673 12.5497 3.78336L13.3254 2.75776C13.4955 2.53291 13.4904 2.22109 13.3131 2.00188C13.1458 1.79496 12.8641 1.71954 12.6158 1.81513L11.5021 2.2438C10.7068 1.47131 9.65753 0.999268 8.61237 0.999268ZM7.41055 1.99927H8.61237C10.1611 1.99927 11.8171 3.45325 11.8683 5.30538C11.9131 6.92477 11.9131 8.51475 11.8683 10.1341C11.8416 11.1015 11.4978 11.7846 11.0295 12.2273C10.5543 12.6764 9.872 12.9519 9.04592 12.9519H7.12287C5.48649 12.9519 4.18146 11.8859 4.12544 10.0729C4.07663 8.49305 4.07663 6.88916 4.12544 5.30929C4.18327 3.43787 5.83486 1.99927 7.41055 1.99927Z" fill="white"/>
</svg>
