<!-- Copyright 2000-2023 JetBrains s.r.o. and contributors. Use of this source code is governed by the Apache 2.0 license. -->
<svg width="16" height="16" viewBox="0 0 16 16" fill="none" xmlns="http://www.w3.org/2000/svg">
<circle cx="13.5" cy="13.5" r="2.5" fill="#E55765"/>
<path fill-rule="evenodd" clip-rule="evenodd" d="M5.30273 4.19998C5.30273 4.27878 5.30611 4.3568 5.31273 4.43389C4.84097 4.69435 4.43573 5.06053 4.12897 5.50048L2.01926 4.36016C1.77634 4.22886 1.47296 4.31935 1.34166 4.56228C1.21035 4.8052 1.30084 5.10858 1.54377 5.23988L3.6801 6.39459C3.56453 6.74205 3.50195 7.11372 3.50195 7.5V8.50008H1.10156C0.82542 8.50008 0.601562 8.72394 0.601562 9.00008C0.601562 9.27623 0.82542 9.50008 1.10156 9.50008H3.50195V10C3.50195 10.4892 3.58003 10.9603 3.7244 11.4012L1.53185 12.6671C1.2927 12.8052 1.21076 13.111 1.34883 13.3501C1.4869 13.5893 1.7927 13.6712 2.03185 13.5331L4.14216 12.3148C4.92902 13.624 6.36319 14.5 8.00195 14.5C8.73491 14.5 9.42695 14.3248 10.0384 14.0139C10.0138 13.8462 10.001 13.6746 10.001 13.5C10.001 13.2699 10.0232 13.0449 10.0656 12.8272C9.48697 13.2503 8.77363 13.5 8.00195 13.5C6.06896 13.5 4.50195 11.933 4.50195 10V7.5C4.50195 6.11929 5.62124 5 7.00195 5H9.00195C10.3827 5 11.502 6.11929 11.502 7.5V10C11.502 10.2301 11.4797 10.4551 11.4374 10.6728C11.755 10.4405 12.1134 10.2605 12.4997 10.1453C12.5012 10.0971 12.502 10.0486 12.502 10V9.49977H14.9023C15.1785 9.49977 15.4023 9.27591 15.4023 8.99977C15.4023 8.72362 15.1785 8.49977 14.9023 8.49977H12.502V7.5C12.502 7.11364 12.4394 6.7419 12.3237 6.39437L14.457 5.23974C14.6998 5.1083 14.7901 4.80487 14.6587 4.56202C14.5273 4.31917 14.2238 4.22886 13.981 4.3603L11.8748 5.50028C11.5684 5.06088 11.1637 4.69509 10.6927 4.43472C10.6993 4.35736 10.7027 4.27906 10.7027 4.19998C10.7027 2.70882 9.4939 1.5 8.00273 1.5C6.51157 1.5 5.30273 2.70882 5.30273 4.19998ZM8.00273 2.49999C7.10797 2.49999 6.37466 3.19125 6.30772 4.06885C6.53211 4.02369 6.76426 4 7.00195 4H9.00195C9.2402 4 9.47289 4.02381 9.69778 4.06917C9.63098 3.19141 8.8976 2.49999 8.00273 2.49999Z" fill="#6C707E"/>
</svg>
