<svg width="16" height="16" viewBox="0 0 16 16" fill="none" xmlns="http://www.w3.org/2000/svg">
<path d="M12.4004 8.5L14.9004 8.5C15.1765 8.5 15.4004 8.72386 15.4004 9C15.4004 9.27614 15.1765 9.5 14.9004 9.5L14.5002 9.5L12.4004 9L12.4004 8.5Z" fill="#6C707E"/>
<path fill-rule="evenodd" clip-rule="evenodd" d="M14.4551 5.23993L12.2381 6.43992L11.7621 5.56047L13.9791 4.36048C14.222 4.22904 14.5254 4.31935 14.6569 4.5622C14.7883 4.80506 14.698 5.10848 14.4551 5.23993Z" fill="#6C707E"/>
<path fill-rule="evenodd" clip-rule="evenodd" d="M2.02989 13.5328L4.25 12.251L3.75 11.385L1.52989 12.6668C1.29075 12.8049 1.20881 13.1107 1.34688 13.3498C1.48495 13.5889 1.79075 13.6709 2.02989 13.5328Z" fill="#6C707E"/>
<path fill-rule="evenodd" clip-rule="evenodd" d="M1.09961 9.5L3.59961 9.5L3.59961 8.5L1.09961 8.5C0.823467 8.5 0.599609 8.72386 0.599609 9C0.599609 9.27614 0.823467 9.5 1.09961 9.5Z" fill="#6C707E"/>
<path fill-rule="evenodd" clip-rule="evenodd" d="M1.5423 5.23992L3.7624 6.4399L4.2379 5.56018L2.0178 4.3602C1.77487 4.2289 1.4715 4.31939 1.34019 4.56231C1.20889 4.80524 1.29938 5.10862 1.5423 5.23992Z" fill="#6C707E"/>
<path fill-rule="evenodd" clip-rule="evenodd" d="M6.30078 4.2C6.30078 3.26112 7.0619 2.5 8.00078 2.5C8.93967 2.5 9.70078 3.26112 9.70078 4.2C9.70078 4.48922 9.62856 4.76157 9.50116 5H10.5C10.5267 5 10.5533 5.00053 10.5798 5.00157C10.6584 4.74832 10.7008 4.4791 10.7008 4.2C10.7008 2.70883 9.49195 1.5 8.00078 1.5C6.50961 1.5 5.30078 2.70883 5.30078 4.2C5.30078 4.47908 5.34312 4.74827 5.42173 5.0015C5.4477 5.0005 5.47379 5 5.5 5H6.5004C6.37301 4.76157 6.30078 4.48922 6.30078 4.2Z" fill="#6C707E"/>
<path fill-rule="evenodd" clip-rule="evenodd" d="M7 4C5.067 4 3.5 5.567 3.5 7.5V10C3.5 12.4853 5.51472 14.5 8 14.5C8.42526 14.5 8.83674 14.441 9.22671 14.3308C9.11705 14.0198 9.04473 13.6913 9.01515 13.3505C8.69385 13.4477 8.35303 13.5 8 13.5C6.067 13.5 4.5 11.933 4.5 10V7.5C4.5 6.11929 5.61929 5 7 5H9C10.3807 5 11.5 6.11929 11.5 7.5V9.29076C11.8153 9.16311 12.1507 9.07451 12.5 9.03095V7.5C12.5 5.567 10.933 4 9 4H7Z" fill="#6C707E"/>
<circle cx="13" cy="13" r="3" fill="#E35252"/>
</svg>
