<svg width="16" height="16" viewBox="0 0 16 16" fill="none" xmlns="http://www.w3.org/2000/svg">
<path d="M4.9906 14.7076L5.45631 13.901C5.5312 13.7712 5.48676 13.6054 5.35703 13.5305L4.7077 13.1556C4.5458 13.0621 4.33877 13.1176 4.2453 13.2795L3.81323 14.0278C3.62552 14.353 3.73692 14.7687 4.06204 14.9564C4.38716 15.1441 4.80289 15.0327 4.9906 14.7076Z" fill="#CCA18A"/>
<path d="M4.41455 12.9863L3.81323 14.0278C3.62552 14.353 3.73692 14.7687 4.06204 14.9564V14.9564C4.38716 15.1441 4.80289 15.0327 4.9906 14.7076L5.59192 13.6661" stroke="black" stroke-width="0.2"/>
<path d="M3.51896 2.34575L4.13287 2.58777C4.35452 2.67515 4.42858 2.95194 4.28018 3.13834L3.96642 3.54818C3.80865 3.74979 3.5029 3.74783 3.34772 3.54423L2.97871 3.06005C2.85512 2.8979 2.85161 2.67415 2.97005 2.50819C3.09403 2.33446 3.32039 2.26747 3.51896 2.34575Z" fill="#6FAFD4"/>
<path d="M3.62326 3.86294L2.96565 3.01752C2.84022 2.85626 2.84253 2.6298 2.97124 2.47113V2.47113C3.09258 2.32156 3.2972 2.26849 3.47594 2.34022L4.5672 2.77819" stroke="black" stroke-width="0.2"/>
<path d="M12.4567 2.34543L11.8447 2.59205C11.6237 2.6811 11.5517 2.95844 11.7015 3.14371L12.0183 3.55119C12.1776 3.7516 12.4833 3.74734 12.637 3.54258L13.0023 3.05564C13.1247 2.89257 13.1265 2.66879 13.0068 2.50373C12.8816 2.33094 12.6547 2.26566 12.4567 2.34543Z" fill="#6FAFD4"/>
<path d="M12.3641 3.86338L13.0153 3.01304C13.1396 2.85084 13.1356 2.6244 13.0057 2.46671V2.46671C12.8832 2.31806 12.6782 2.26652 12.5 2.3396L11.412 2.78576" stroke="black" stroke-width="0.2"/>
<path fill-rule="evenodd" clip-rule="evenodd" d="M7.4249 1.41113C5.25974 1.41113 3.11664 3.31166 3.04023 5.78436C2.9918 7.35163 2.9918 8.94238 3.04023 10.5097C3.11664 12.9823 4.97876 14.4619 7.14392 14.4619H9.02216C9.05803 14.4619 9.09379 14.4615 9.12943 14.4607C9.04472 14.0864 9 13.6969 9 13.297C9 10.8326 10.6982 8.76491 12.9883 8.20027C12.9885 7.39736 12.9774 6.59452 12.955 5.78436C12.8872 3.33395 10.7441 1.41113 8.59871 1.41113H7.4249Z" fill="#5DA8D3"/>
<path fill-rule="evenodd" clip-rule="evenodd" d="M7.4249 1.61113H8.59871C10.6366 1.61113 12.6903 3.44851 12.7551 5.78989C12.778 6.61622 12.789 7.4349 12.7882 8.25383C12.8544 8.2347 12.9211 8.21684 12.9883 8.20027C12.9885 7.39736 12.9774 6.59452 12.955 5.78436C12.8872 3.33395 10.7441 1.41113 8.59871 1.41113H7.4249C5.25974 1.41113 3.11664 3.31166 3.04023 5.78436C2.9918 7.35163 2.9918 8.94238 3.04023 10.5097C3.11664 12.9823 4.97876 14.4619 7.14392 14.4619H9.02216C9.05803 14.4619 9.09379 14.4615 9.12943 14.4607C9.1145 14.3947 9.10082 14.3283 9.0884 14.2614C9.06637 14.2617 9.04429 14.2619 9.02216 14.2619H7.14392C5.07497 14.2619 3.31285 12.8567 3.24013 10.5035C3.19183 8.94032 3.19183 7.35369 3.24013 5.79053C3.31315 3.42747 5.36615 1.61113 7.4249 1.61113Z" fill="black"/>
<path fill-rule="evenodd" clip-rule="evenodd" d="M7.30156 4.83828C7.30156 5.76247 6.56724 6.51152 5.66152 6.51152C4.75581 6.51152 4.02148 5.76247 4.02148 4.83828C4.02148 3.91409 4.75581 3.16504 5.66152 3.16504C6.56724 3.16504 7.30156 3.91409 7.30156 4.83828" fill="white"/>
<path fill-rule="evenodd" clip-rule="evenodd" d="M5.93012 4.83735C5.93012 5.26451 5.59046 5.61122 5.17139 5.61122C4.75275 5.61122 4.41309 5.26451 4.41309 4.83735C4.41309 4.41019 4.75275 4.06348 5.17139 4.06348C5.59046 4.06348 5.93012 4.41019 5.93012 4.83735" fill="black"/>
<path fill-rule="evenodd" clip-rule="evenodd" d="M11.97 4.83828C11.97 5.76247 11.2357 6.51152 10.33 6.51152C9.42386 6.51152 8.68994 5.76247 8.68994 4.83828C8.68994 3.91409 9.42386 3.16504 10.33 3.16504C11.2357 3.16504 11.97 3.91409 11.97 4.83828" fill="white"/>
<path fill-rule="evenodd" clip-rule="evenodd" d="M11.5854 4.83735C11.5854 5.26451 11.2457 5.61122 10.8271 5.61122C10.408 5.61122 10.0684 5.26451 10.0684 4.83735C10.0684 4.41019 10.408 4.06348 10.8271 4.06348C11.2457 4.06348 11.5854 4.41019 11.5854 4.83735Z" fill="black"/>
<path fill-rule="evenodd" clip-rule="evenodd" d="M7.63232 7.58374H8.60962V6.7793H7.63232V7.58374Z" fill="white"/>
<path fill-rule="evenodd" clip-rule="evenodd" d="M9.09672 6.51175C9.09672 6.80778 8.6595 7.04791 8.12018 7.04791C7.58126 7.04791 7.14404 6.80778 7.14404 6.51175C7.14404 6.21571 7.58126 5.97559 8.12018 5.97559C8.6595 5.97559 9.09672 6.21571 9.09672 6.51175" fill="#CCA18A"/>
<path fill-rule="evenodd" clip-rule="evenodd" d="M8.60968 6.23446C8.60968 6.53573 8.38755 6.51159 8.11295 6.51159C7.83874 6.51159 7.61621 6.53573 7.61621 6.23446C7.61621 5.9332 7.83874 5.68945 8.11295 5.68945C8.38755 5.68945 8.60968 5.9332 8.60968 6.23446" fill="black"/>
<path d="M3.09682 10.4958L3.78493 9.80773C3.87456 9.71811 3.87456 9.5728 3.78493 9.48318L3.33632 9.03456C3.22447 8.92271 3.04311 8.92271 2.93126 9.03456L2.28339 9.68243C2.05877 9.90705 2.05877 10.2712 2.28339 10.4958C2.50801 10.7205 2.8722 10.7205 3.09682 10.4958Z" fill="#CCA18A"/>
<path d="M3.13379 8.83203L2.28339 9.68243C2.05877 9.90705 2.05877 10.2712 2.28339 10.4958V10.4958C2.50801 10.7205 2.8722 10.7205 3.09682 10.4958L3.94721 9.64545" stroke="black" stroke-width="0.2"/>
<path d="M10.6464 14.6464C10.4512 14.8417 10.4512 15.1583 10.6464 15.3536C10.8417 15.5488 11.1583 15.5488 11.3536 15.3536L10.6464 14.6464ZM11.3536 15.3536L15.8536 10.8536L15.1464 10.1464L10.6464 14.6464L11.3536 15.3536Z" fill="#548AF7"/>
<path d="M12.5 10.5H15.5V13.5" stroke="#548AF7" stroke-linecap="round" stroke-linejoin="round"/>
</svg>
