<svg width="13" height="13" viewBox="0 0 13 13" xmlns="http://www.w3.org/2000/svg">
  <ellipse cx="6.5" cy="2.24" fill="#6e6e6e" rx="5.5" ry="1.64"/>
  <path fill="#6e6e6e" d="M1 10.86c0 .75 1.69 1.38 4 1.57v-1.66c-.92-.09-1.76-.25-2.5-.48V9.05c.55.17 1.24.3 2 .38V7.86c-.73-.09-1.4-.23-2-.41V6.18c.67.21 1.53.38 2.5.46V5.09C3.36 4.94 1.94 4.54 1 4v6.86Zm10-6.4v1.55c.63-.27 1-.59 1-.94V4c-.29.17-.63.32-1 .46Zm-2.5 6.26v1.67c2.05-.24 3.5-.83 3.5-1.52V9.69c-.84.49-2.07.85-3.5 1.03Z"/>
  <path fill="#6e6e6e" d="M10 6.34V4.76c-1.02.25-2.22.4-3.5.4-.17 0-.33 0-.5-.01v7.34h.5c.34 0 .68-.01 1-.03V9.51c.73-.04 1.4-.11 2-.22V7.71c-.62.12-1.3.2-2 .24V6.68c.94-.05 1.79-.17 2.5-.35Zm.5 1.13v1.6C11.43 8.79 12 8.42 12 8V6.85c-.41.24-.92.45-1.5.62Z"/>
</svg>
