<svg xmlns="http://www.w3.org/2000/svg" width="13" height="13">
  <path d="M6.5,0A6.5,6.5,0,1,0,13,6.5,6.5,6.5,0,0,0,6.5,0Zm0,12.5a6,6,0,1,1,6-6A6,6,0,0,1,6.5,12.5Z" fill="#6e6e6e"/>
  <path d="M10.65,7.459A4.056,4.056,0,0,1,8.4,10.2l-.654-.735L6.557,10.576A4.071,4.071,0,0,1,3.336,8.924a1.431,1.431,0,0,0,.361.068c.18.008.365-.063.365-.367V5.632a.484.484,0,0,0-.466-.51c-.508-.017-.907.932-1.062,1.408a4.057,4.057,0,0,1,1.4-3.106,4.117,4.117,0,0,1,2.07-.955A1.587,1.587,0,0,0,5.136,3.74c0,.7.427.615.552.512V8.293a.614.614,0,0,0,.565.389A2.485,2.485,0,0,0,7.312,8.2V4.93a1.14,1.14,0,0,0-.51-.873,1.155,1.155,0,0,1,.823.193,4.1,4.1,0,0,1,2.5-1.409,3.233,3.233,0,0,0-1.184,2.2v3.22C9.381,8.687,10.054,8.069,10.65,7.459Z" fill="#6e6e6e" fill-rule="evenodd"/>
</svg>
