<svg xmlns="http://www.w3.org/2000/svg" width="13" height="13"><path fill="#afb1b3" d="M3.76 5H1v1h2.31c.109-.35.26-.686.45-1Zm-.48 4H1v1h2.71a5.053 5.053 0 0 1-.43-1ZM0 7h3v1H0V7Zm9.03 1.03a.75.75 0 1 1-.979-1.132l2.774-2.074a.25.25 0 0 1 .35.35L9.101 7.948a.684.684 0 0 1-.071.082Zm.469-4.91V2h.5V1h-3v1h.5v1.121A4.495 4.495 0 0 0 8.5 12a4.496 4.496 0 0 0 .999-8.88ZM8.5 11a3.5 3.5 0 1 1 0-7c.608 0 1.17.169 1.668.441l.237-.177a.95.95 0 0 1 1.329 1.331l-.177.236c.273.498.441 1.061.441 1.669a3.5 3.5 0 0 1-3.5 3.5Z"/></svg>