<svg width="13" height="13" viewBox="0 0 13 13" xmlns="http://www.w3.org/2000/svg">
  <path fill="#389fd6" d="M3.08 11.38c.61-1.76 1.6-4.11 2.73-6.44l.4-.82.18.07.62-1.5c-.57-.18-.96-.26-1.26-.26-.23 0-.41.05-.6.15l-.23.12-.32.02c-.62 0-1.13-.51-1.13-1.13 0-.03.02-.07.02-.11H2c-.83 0-1.5.67-1.5 1.5v7c0 .83.67 1.5 1.5 1.5h1.06s0-.08.02-.12Zm7.4-7.03s-.09-.05-.13-.08l-.4 1.24.18.07-.23.88c-.47 1.8-1 3.55-1.51 5.04h.6c.83 0 1.5-.67 1.5-1.5V4.35h-.02Z" opacity=".7"/>
  <path fill="#6e6e6e" d="m12.74 1.89-1.12-.26a.379.379 0 0 0-.43.23l-.47-.17a.555.555 0 0 0-.33-.72L8.44.25C7.97.07 7.52 0 7.12 0 5.46 0 4.47 1.24 4.47 1.61c0 .1.1.16.19.11.84-.46 1.69-.32 3.19.21.26.09.4.39.29.65l-1.21 2.9-.23-.08c-1.01 2.07-2.04 4.44-2.69 6.32-.01.04-.02.09-.02.13 0 .15.08.28.22.33l2.19.81s.08.02.11.02c.14 0 .28-.09.34-.24.73-1.85 1.48-4.32 2.07-6.55l-.23-.08.97-3.01c.08-.25.35-.38.59-.29l.5.18c-.06.17.01.37.18.46l1.02.53c.18.09.4 0 .47-.18l.55-1.49s.02-.08.02-.12c0-.15-.11-.29-.26-.32Z"/>
  <path fill="#389fd6" d="M3 11.83c0-.15.03-.31.08-.45.04-.12.1-.26.14-.38H2c-.55 0-1-.45-1-1V3c0-.55.45-1 1-1h1.55c-.05-.12-.08-.25-.08-.39 0-.19.07-.4.17-.61H2C.9 1 0 1.9 0 3v7c0 1.1.9 2 2 2h1.03c0-.06-.03-.11-.03-.17Zm7.48-7.48s-.09-.05-.13-.08l-.36 1.1v.16l.13.05-.13.51V10c0 .55-.45 1-1 1h-.43c-.12.35-.23.68-.35 1h.78c1.1 0 2-.9 2-2V4.62l-.52-.27Z"/>
</svg>
