<svg xmlns="http://www.w3.org/2000/svg" width="24" height="24" fill="none" viewBox="0 0 24 24">
  <defs>
    <linearGradient id="a" x1="4.734" x2="9.887" y1="4.994" y2="16.927" gradientUnits="userSpaceOnUse">
      <stop offset=".068" stop-color="#FF4EFD"/>
      <stop offset=".964" stop-color="#484DFC"/>
    </linearGradient>
    <linearGradient id="b" x1=".5" x2="6.67" y1="5.598" y2="20.367" gradientUnits="userSpaceOnUse">
      <stop stop-color="#DA38FF"/>
      <stop offset=".223" stop-color="#DA38FF"/>
      <stop offset=".828" stop-color="#087CFA"/>
    </linearGradient>
    <linearGradient id="c" x1="12.101" x2="8.61" y1="14.124" y2="3.812" gradientUnits="userSpaceOnUse">
      <stop offset=".281" stop-color="#6B57FF"/>
      <stop offset=".875" stop-color="#9E3DFF"/>
    </linearGradient>
    <linearGradient id="d" x1="2.346" x2="2.346" y1="6.872" y2="10.915" gradientUnits="userSpaceOnUse">
      <stop stop-color="#E19AFB"/>
      <stop offset=".688" stop-color="#EB73FF" stop-opacity=".69"/>
    </linearGradient>
    <linearGradient id="e" x1="17.988" x2="-.169" y1="7.759" y2="18.194" gradientUnits="userSpaceOnUse">
      <stop offset=".044" stop-color="#3BEA62"/>
      <stop offset=".98" stop-color="#009AE5"/>
    </linearGradient>
    <linearGradient id="f" x1="21.044" x2="7.846" y1="10.335" y2="17.92" gradientUnits="userSpaceOnUse">
      <stop offset=".01" stop-color="#3BEA62"/>
      <stop offset=".3" stop-color="#2BD486"/>
      <stop offset=".76" stop-color="#009AE5"/>
    </linearGradient>
    <linearGradient id="g" x1="13.763" x2="18.433" y1="-1.323" y2="9.1" gradientUnits="userSpaceOnUse">
      <stop offset=".193" stop-color="#3BEA62"/>
      <stop offset=".333" stop-color="#39E766"/>
      <stop offset=".474" stop-color="#33E072"/>
      <stop offset=".616" stop-color="#2AD386"/>
      <stop offset=".759" stop-color="#1DC2A2"/>
      <stop offset=".9" stop-color="#0DACC6"/>
      <stop offset="1" stop-color="#009AE5"/>
    </linearGradient>
    <linearGradient id="h" x1="9.553" x2="16.795" y1="2.861" y2="4.418" gradientUnits="userSpaceOnUse">
      <stop offset=".097" stop-color="#A8FF68"/>
      <stop offset=".501" stop-color="#2BD486" stop-opacity="0"/>
    </linearGradient>
    <linearGradient id="i" x1="24.555" x2="18.599" y1="5.751" y2="4.262" gradientUnits="userSpaceOnUse">
      <stop offset=".463" stop-color="#3BEA62"/>
      <stop offset=".98" stop-color="#009AE5"/>
    </linearGradient>
    <linearGradient id="j" x1="11.525" x2="8.712" y1="24.206" y2="8.587" gradientUnits="userSpaceOnUse">
      <stop offset=".044" stop-color="#3BEA62"/>
      <stop offset=".98" stop-color="#009AE5"/>
    </linearGradient>
    <linearGradient id="k" x1="6.094" x2="10.355" y1="8.144" y2="18.012" gradientUnits="userSpaceOnUse">
      <stop stop-color="#C7489F"/>
      <stop offset=".072" stop-color="#C34DA5" stop-opacity=".914"/>
      <stop offset=".216" stop-color="#B95CB4" stop-opacity=".69"/>
      <stop offset=".415" stop-color="#A974CD" stop-opacity=".332"/>
      <stop offset=".585" stop-color="#9B8BE5" stop-opacity="0"/>
    </linearGradient>
    <linearGradient id="l" x1="14.65" x2="2.61" y1="5.158" y2="8.322" gradientUnits="userSpaceOnUse">
      <stop offset=".044" stop-color="#3BEA62"/>
      <stop offset=".98" stop-color="#009AE5"/>
    </linearGradient>
    <linearGradient id="m" x1="7.443" x2="5.383" y1="21.066" y2="11.542" gradientUnits="userSpaceOnUse">
      <stop offset=".373" stop-color="#3BEA62" stop-opacity="0"/>
      <stop offset="1" stop-color="#C931FF"/>
    </linearGradient>
    <linearGradient id="n" x1="5.318" x2="10.777" y1="10.388" y2="9.638" gradientUnits="userSpaceOnUse">
      <stop stop-color="#26B2C4" stop-opacity="0"/>
      <stop offset=".287" stop-color="#43C3AA" stop-opacity=".285"/>
      <stop offset=".953" stop-color="#8CF06A" stop-opacity=".994"/>
      <stop offset=".958" stop-color="#8DF16A"/>
    </linearGradient>
    <linearGradient id="o" x1="19.333" x2="10.297" y1="13.114" y2="24.245" gradientUnits="userSpaceOnUse">
      <stop stop-color="#C7489F"/>
      <stop offset=".072" stop-color="#C34DA5" stop-opacity=".914"/>
      <stop offset=".216" stop-color="#B95CB4" stop-opacity=".69"/>
      <stop offset=".415" stop-color="#A974CD" stop-opacity=".332"/>
      <stop offset=".585" stop-color="#9B8BE5" stop-opacity="0"/>
    </linearGradient>
    <linearGradient id="p" x1="16.956" x2="15.782" y1="15.251" y2="16.697" gradientUnits="userSpaceOnUse">
      <stop offset=".306" stop-color="#EB73FF" stop-opacity="0"/>
      <stop offset="1" stop-color="#BD31FF"/>
    </linearGradient>
    <linearGradient id="q" x1="2.961" x2="10.783" y1="13.069" y2="23" gradientUnits="userSpaceOnUse">
      <stop offset=".212" stop-color="#3BEA62"/>
      <stop offset=".98" stop-color="#009AE5"/>
    </linearGradient>
    <linearGradient id="r" x1="21.031" x2="18.053" y1="6.352" y2="14.88" gradientUnits="userSpaceOnUse">
      <stop offset=".097" stop-color="#95F286"/>
      <stop offset=".501" stop-color="#2BD486" stop-opacity="0"/>
    </linearGradient>
    <linearGradient id="s" x1="4.824" x2="18.745" y1="5.034" y2="18.547" gradientUnits="userSpaceOnUse">
      <stop stop-color="#007859"/>
      <stop offset=".088" stop-color="#00533E"/>
      <stop offset=".192" stop-color="#002F23"/>
      <stop offset=".289" stop-color="#001510"/>
      <stop offset=".377" stop-color="#000604"/>
      <stop offset=".445"/>
      <stop offset=".914"/>
    </linearGradient>
  </defs>
  <path fill="url(#a)" d="M11.134 8.58 1.618 6.256.5 8.901l3.43 10.972L13.044 23l3.923-6.418-5.833-8.001Z"/>
  <path fill="url(#b)" d="M1.618 6.255.5 8.901l3.43 10.972 1.611-4.521.352-2.637-4.275-6.46Z"/>
  <path fill="url(#c)" d="M11.134 8.538 1.618 6.213.5 8.858l11.189 3.87-.555-4.19Z"/>
  <path fill="url(#d)" d="M1.618 6.255.5 8.901l3.72 1.287-2.602-3.933Z"/>
  <path fill="url(#e)" d="m23 6.936-2.287-4.478L9.043.5 3.93 19.873 13.044 23 23 6.936Z"/>
  <path fill="url(#f)" d="m23 6.936-2.287-4.478L13.043 23 23 6.936Z"/>
  <path fill="url(#g)" d="m23 6.936-2.287-4.478L9.043.5l3.88 5.887L23 6.937Z"/>
  <path fill="url(#h)" d="m23 6.936-2.287-4.478L9.043.5l3.88 5.887L23 6.937Z"/>
  <path fill="url(#i)" d="m23 6.936-2.287-4.478-1.593 4.267 3.88.211Z"/>
  <path fill="url(#j)" d="m5.893 12.715-.053-.08-1.91 7.238L13.044 23l3.923-6.418-11.074-3.867Z"/>
  <path fill="url(#k)" d="m16.967 16.582-5.098-7.91-4.703-1.06-3.236 12.26L13.044 23l3.923-6.418Z"/>
  <path fill="url(#l)" d="M12.924 6.387 9.044.5 3.93 19.873l4.775-4.521 4.219-8.965Z"/>
  <path fill="url(#m)" d="m3.93 19.873 4.775-4.521.669-1.421-3.481-1.216-.053-.08-.906 3.434-1.004 3.804Z"/>
  <path fill="url(#n)" d="m6.297 10.905 3.87 1.34 1.702-3.573-4.703-1.06-.87 3.293Z"/>
  <path fill="url(#o)" d="m13.044 23 3.923-6.418-.967-1.5L13.044 23Z"/>
  <path fill="url(#p)" d="m16.967 16.582-.967-1.5-.384 1.029 1.351.471Z"/>
  <path fill="url(#q)" d="m8.705 15.352-4.775 4.52L13.044 23l-4.339-7.648Z"/>
  <path fill="url(#r)" d="M19.12 6.725 13.044 23 23 6.936l-3.88-.211Z"/>
  <path fill="url(#s)" d="M19 5H5v14h14V5Z"/>
  <path fill="#fff" d="M13 16H7v1h6v-1Z"/>
  <path fill="#fff" d="M14.696 7.059h1.115l2.356 5.963h-1.264l-.503-1.328h-2.324l-.502 1.328H12.34l2.355-5.963Zm1.272 3.484-.73-1.92-.73 1.92h1.46Z"/>
  <path fill="#fff" d="m11.38 13.2-.604-.584a2.841 2.841 0 0 1-1.633.508c-1.696 0-2.913-1.362-2.913-3.045v-.017C6.23 8.379 7.463 7 9.159 7c1.696 0 2.913 1.362 2.913 3.045v.017c0 .626-.18 1.21-.487 1.7l.565.516-.77.922Zm-1.499-1.438-.895-.82.77-.93.902.879a2.2 2.2 0 0 0 .15-.812v-.017c0-1.015-.691-1.86-1.665-1.86-.974 0-1.649.828-1.649 1.843v.017c0 1.015.691 1.86 1.665 1.86.267 0 .51-.05.722-.16Z"/>
</svg>
