<svg width="16" height="16" viewBox="0 0 16 16" fill="none" xmlns="http://www.w3.org/2000/svg">
<path fill-rule="evenodd" clip-rule="evenodd" d="M11.4328 9.65098C11.5711 9.89001 11.4894 10.1959 11.2504 10.3341C10.9158 10.5277 10.6299 10.7968 10.4164 11.1179C10.1533 11.5136 10 11.9881 10 12.5C10 13.8807 11.1193 15 12.5 15C13.8807 15 15 13.8807 15 12.5C15 11.9881 14.8467 11.5136 14.5836 11.1179C14.3701 10.7968 14.0842 10.5277 13.7496 10.3341C13.5106 10.1959 13.4289 9.89001 13.5672 9.65098C13.7055 9.41195 14.0113 9.33027 14.2504 9.46854C14.7185 9.73937 15.1179 10.1153 15.4164 10.5643C15.7851 11.1189 16 11.7851 16 12.5C16 14.433 14.433 16 12.5 16C10.567 16 9 14.433 9 12.5C9 11.7851 9.21486 11.1189 9.58363 10.5643C9.88212 10.1153 10.2815 9.73937 10.7496 9.46854C10.9887 9.33027 11.2945 9.41195 11.4328 9.65098Z" fill="#6C707E"/>
<path fill-rule="evenodd" clip-rule="evenodd" d="M12.5 8C12.7761 8 13 8.22386 13 8.5V11.5C13 11.7761 12.7761 12 12.5 12C12.2239 12 12 11.7761 12 11.5V8.5C12 8.22386 12.2239 8 12.5 8Z" fill="#6C707E"/>
<path d="M13.9994 8.4011L13.9968 8.4011C13.9459 7.61878 13.2952 7 12.5 7C11.7048 7 11.0541 7.61878 11.0032 8.4011C10.7468 8.40032 10.4868 8.46531 10.2489 8.60294C9.64713 8.95105 9.13432 9.43392 8.7509 10.0106C8.51808 10.3608 8.33294 10.7457 8.20475 11.1554C7.888 11.3196 7.56989 11.461 7.25648 11.5765C5.84298 12.0972 3.28781 12.6064 3.28781 12.6064L3.18434 12.5512C1.4464 11.7062 1.39817 7.9452 4.55312 6.733C5.33057 6.43407 6.08892 6.39552 6.86938 6.35584C7.47797 6.3249 8.10001 6.29328 8.75504 6.13698C10.35 5.75834 12.1967 4.55929 12.9473 3C13.454 4.50112 14.0217 6.5116 13.9994 8.4011Z" fill="#F2FCF3"/>
<path d="M8.12252 13.5473C8.04241 13.2113 8 12.8606 8 12.5C8 12.4064 8.00288 12.3134 8.00854 12.2211C7.35631 12.5536 6.79217 12.7246 6.03582 12.9538C5.59499 13.0874 5.08885 13.2408 4.46192 13.4575C4.25148 13.5302 4.08663 13.6004 4.08663 13.6004C4.52243 13.5285 4.95472 13.5039 4.95472 13.5039C5.48599 13.4799 6.08188 13.4988 6.70749 13.5187C7.16771 13.5333 7.64402 13.5484 8.12252 13.5473Z" fill="#F2FCF3"/>
<path d="M6.55758 5.37077C5.85421 5.40938 5.04269 5.47346 4.19453 5.79954C2.25514 6.54479 1.25485 8.10892 1.04333 9.64326C0.847108 11.0666 1.33173 12.7204 2.68642 13.4201C2.69602 13.4428 2.70767 13.4719 2.72425 13.5133L2.76299 13.6097C2.80421 13.7123 2.90411 13.9611 3.08639 14.1692C3.196 14.2944 3.35669 14.432 3.58005 14.5196C3.8087 14.6092 4.04011 14.6216 4.24942 14.587C4.43594 14.5563 4.62776 14.5348 4.77678 14.5209C4.85025 14.5141 4.911 14.5093 4.95257 14.5063L4.99926 14.5031L5.00728 14.5026C5.49521 14.481 6.04559 14.4983 6.67327 14.5181L6.95908 14.527C7.44342 14.5417 7.96211 14.5541 8.48954 14.5432C8.32995 14.2306 8.20584 13.8969 8.12252 13.5473C7.64402 13.5484 7.16771 13.5333 6.70749 13.5187C6.08189 13.4988 5.48598 13.4799 4.95472 13.5039C4.95472 13.5039 4.52243 13.5285 4.08663 13.6004C4.08663 13.6004 4.25148 13.5302 4.46192 13.4575C5.08884 13.2408 5.59497 13.0874 6.0358 12.9538C6.79215 12.7246 7.35631 12.5536 8.00854 12.2211C8.03117 11.8526 8.09835 11.4954 8.20475 11.1554C7.888 11.3196 7.56989 11.461 7.25648 11.5765C5.84298 12.0972 3.28781 12.6064 3.28781 12.6064L3.18434 12.5512C1.4464 11.7062 1.39817 7.9452 4.55312 6.733C5.33057 6.43407 6.08892 6.39552 6.86938 6.35584C7.47797 6.3249 8.10001 6.29328 8.75504 6.13698C10.35 5.75834 12.1967 4.55929 12.9473 3C13.454 4.50112 14.0217 6.5116 13.9994 8.4011C14.2549 8.40075 14.514 8.46577 14.7511 8.60294C14.8322 8.64985 14.9117 8.6992 14.9894 8.75091C15.0114 8.28064 14.9978 7.81213 14.9602 7.35611C14.8186 5.64384 14.3242 3.95217 13.8949 2.68017L13.1103 0.356018L12.0463 2.56628C11.4596 3.78522 9.90936 4.83519 8.52413 5.16403L8.52301 5.1643C7.96333 5.29785 7.43676 5.32505 6.82202 5.35681L6.82091 5.35687C6.73498 5.36131 6.64731 5.36584 6.55758 5.37077Z" fill="#5FB865"/>
</svg>
