<svg width="16" height="16" data-name="Layer 2" xmlns="http://www.w3.org/2000/svg">
  <circle cx="8" cy="8" r="8" fill="#f4f4f4"/>
  <circle cx="8" cy="8" r="7" fill="#323232"/>
  <circle cx="8" cy="8" r="6" fill="#ebebeb"/>
  <path fill="#323232" d="M8 14a5.992 5.992 0 0 1-5.191-3h2.595c.519 1.792 1.486 3 2.595 3Zm3-6c0 1.094-.149 2.117-.405 3h2.595a5.96 5.96 0 0 0 .809-3h-3ZM5.405 5H2.81a5.96 5.96 0 0 0-.809 3h3c0-1.094.149-2.117.405-3Zm5.191 0h2.595A5.992 5.992 0 0 0 8 2c1.11 0 2.076 1.208 2.595 3Zm0 6H8.001v3c1.11 0 2.076-1.208 2.595-3ZM5.001 8c0 1.094.149 2.117.405 3h2.595V8h-3Zm3-3v3h3c0-1.094-.149-2.117-.405-3H8.001ZM5.406 5h2.595V2c-1.11 0-2.076 1.208-2.595 3Z"/>
  <path fill="#ebebeb" d="M8 2a6 6 0 1 0 0 12A6 6 0 0 0 8 2Zm0 11.5a5.5 5.5 0 1 1 0-11 5.5 5.5 0 1 1 0 11Z"/>
</svg>
