<svg xmlns="http://www.w3.org/2000/svg" width="16" height="16">
  <defs>
    <linearGradient id="a" x1="5" y1="8" x2="5" y2="16" gradientUnits="userSpaceOnUse">
      <stop offset="0" stop-color="#004354"/>
      <stop offset="1" stop-color="#0c4b72"/>
    </linearGradient>
    <linearGradient id="b" x1="5" y1="9.5" x2="5" y2="15" gradientUnits="userSpaceOnUse">
      <stop offset="0" stop-color="#61aae7"/>
      <stop offset="1" stop-color="#8bffed"/>
    </linearGradient>
    <linearGradient id="c" x1="11.5" y1=".155" x2="11.5" y2="9.124" gradientUnits="userSpaceOnUse">
      <stop offset="0" stop-color="#37627d"/>
      <stop offset="1" stop-color="#0e3852"/>
    </linearGradient>
    <linearGradient id="d" x1="11.5" y1="1.121" x2="11.5" y2="8.096" gradientUnits="userSpaceOnUse">
      <stop offset="0" stop-color="#b7f3ff"/>
      <stop offset="1" stop-color="#61c2ff"/>
    </linearGradient>
    <linearGradient id="e" x1="11.5" y1="2.81" x2="11.5" y2="6.298" gradientUnits="userSpaceOnUse">
      <stop offset="0" stop-color="#0e3852"/>
      <stop offset="1" stop-color="#37627d"/>
    </linearGradient>
  </defs>
  <path fill="url(#a)" d="M5 11.086 1.914 8 1 8 1 12.414 4.586 16 5.414 16 9 12.414 9 8 8.086 8 5 11.086z"/>
  <path fill="url(#b)" d="M5 15 8 12 8 9.5 5 12.5 2 9.5 2 12 5 15z"/>
  <circle cx="11.5" cy="4.5" r="4.5" fill="url(#c)"/>
  <circle cx="11.5" cy="4.5" r="3.5" fill="url(#d)"/>
  <circle cx="11.5" cy="4.5" r="1.75" fill="url(#e)"/>
</svg>
