<svg xmlns="http://www.w3.org/2000/svg" width="16" height="16">
  <path fill="#f4f4f4" d="M4.586 0 1 3.586 1 8 1.914 8 5 4.914 8.086 8 9 8 9 3.586 5.414 0 4.586 0z"/>
  <path fill="#00539c" d="M5 1 2 4 2 6.5 5 3.5 8 6.5 8 4 5 1z"/>
  <path fill="#f4f4f4" d="M12 7H16V16H12z"/>
  <path fill="#323232" d="M13 8H15V15H13z"/>
  <g>
    <path fill="#f4f4f4" d="M12 8.787 10.213 7 9.384 7 7.5 8.884 5.616 7 4.787 7 3 8.787 3 9.616 4.884 11.5 3 13.384 3 14.213 4.787 16 5.616 16 7.5 14.116 9.384 16 10.213 16 12 14.213 12 13.384 10.116 11.5 12 9.616 12 8.787z"/>
    <path fill="#323232" d="M11 9.202 9.798 8 7.5 10.298 5.202 8 4 9.202 6.298 11.5 4 13.798 5.202 15 7.5 12.702 9.798 15 11 13.798 8.702 11.5 11 9.202z"/>
  </g>
</svg>
