<svg xmlns="http://www.w3.org/2000/svg" width="16" height="16">
  <path fill="#252525" d="M4.586 0 1 3.586 1 8 1.914 8 5 4.914 8.086 8 9 8 9 3.586 5.414 0 4.586 0z"/>
  <path fill="#7cbeff" d="M5 1 2 4 2 6.5 5 3.5 8 6.5 8 4 5 1z"/>
  <path fill="#252525" d="M6 7H10V16H6z"/>
  <path fill="#c4c4c4" d="M7 8H9V15H7z"/>
  <path fill="#252525" d="M11 15 11 13 9 13 9 10 11 10 11 8 14 8 14 10 16 10 16 13 14 13 14 15 11 15z"/>
  <path fill="#c4c4c4" d="M15 11 13 11 13 9 12 9 12 11 10 11 10 12 12 12 12 14 13 14 13 12 15 12 15 11z"/>
</svg>
