<svg xmlns="http://www.w3.org/2000/svg" width="16" height="16">
  <defs>
    <linearGradient id="a" x1="5" x2="5" y2="8" gradientUnits="userSpaceOnUse">
      <stop offset="0" stop-color="#541900"/>
      <stop offset="1" stop-color="#72490c"/>
    </linearGradient>
    <linearGradient id="b" x1="5" y1="1" x2="5" y2="6.5" gradientUnits="userSpaceOnUse">
      <stop offset="0" stop-color="#ffe38b"/>
      <stop offset="1" stop-color="orange"/>
    </linearGradient>
    <linearGradient id="c" x1="12" y1="16" x2="12" y2="7" gradientUnits="userSpaceOnUse">
      <stop offset="0" stop-color="#145400"/>
      <stop offset="1" stop-color="#24720c"/>
    </linearGradient>
    <linearGradient id="d" x1="12" y1="8" x2="12" y2="15" gradientUnits="userSpaceOnUse">
      <stop offset="0" stop-color="#7dff54"/>
      <stop offset="1" stop-color="#88d072"/>
    </linearGradient>
  </defs>
  <path fill="url(#a)" d="M4.586 0 1 3.586 1 8 1.914 8 5 4.914 8.086 8 9 8 9 3.586 5.414 0 4.586 0z"/>
  <path fill="url(#b)" d="M5 1 2 4 2 6.5 5 3.5 8 6.5 8 4 5 1z"/>
  <path fill="url(#c)" d="M10 7H14V16H10z"/>
  <path fill="url(#d)" d="M11 8H13V15H11z"/>
</svg>
