<svg width="70" height="70" viewBox="0 0 70 70" fill="none" xmlns="http://www.w3.org/2000/svg">
<path d="M25.2 27.4L26.7 0L42.5999 8.8L25.2 27.4Z" fill="url(#paint0_linear)"/>
<path d="M25.2 27.3998L26.1 10.3998L42.5999 8.7998L25.2 27.3998Z" fill="url(#paint1_linear)"/>
<path d="M25.2 27.4L26.1 10.6L26.7 0L6.5 12.7L0 51.5L25.2 27.4Z" fill="#00FF6A"/>
<path d="M25.2 27.3999L26.1 10.3999L6.5 12.6999L13.6 38.5999L25.2 27.3999Z" fill="url(#paint2_linear)"/>
<path d="M25.2 27.4L26.7 0L6.5 12.7L13.6 38.6L25.2 27.4Z" fill="url(#paint3_linear)"/>
<path d="M25.2001 26.7002L23.8 51.8002L41.5 66.2002L59 70.0002L70 45.0002L25.2001 26.7002Z" fill="url(#paint4_linear)"/>
<path d="M53.5 44.3002L38 34.7002L39.9 32.7002L70 45.0002L53.5 44.3002Z" fill="url(#paint5_linear)"/>
<path d="M53.5 44.2998L41.5 66.1998L59 69.9998L70 44.9998L53.5 44.2998Z" fill="url(#paint6_linear)"/>
<path d="M24.5 35.6001L23.8 51.8001L41.5 66.2001L24.5 35.6001Z" fill="url(#paint7_linear)"/>
<path d="M25.1001 37L59.0001 70L41.5001 66.2L25.1001 37Z" fill="url(#paint8_linear)"/>
<path d="M25.1001 37L59.0001 70L41.5001 66.2L25.1001 37Z" fill="url(#paint9_linear)"/>
<path d="M0 51.5002L25.2 27.4002L6.5 12.7002L0 51.5002Z" fill="url(#paint10_linear)"/>
<path d="M0 51.5002L18.5 32.9002L6.5 12.7002L0 51.5002Z" fill="url(#paint11_linear)"/>
<path d="M70 24.2002L59.6 2.7002L42.6 8.8002L0 51.5002L22.7 68.0002L70 24.2002Z" fill="url(#paint12_linear)"/>
<path d="M24.7001 36.7998L23.8 51.8998L32.5 58.8998L35.7001 55.8998L24.7001 36.7998Z" fill="url(#paint13_linear)"/>
<path d="M0 51.4998L24.6 36.7998L22.7 67.9998L0 51.4998Z" fill="url(#paint14_linear)"/>
<path d="M0 51.4998L24.6 36.7998L22.7 67.9998L0 51.4998Z" fill="url(#paint15_linear)"/>
<path d="M13.1001 43.6998L24.6001 36.7998L23.7001 51.5998L13.1001 43.6998Z" fill="url(#paint16_linear)"/>
<path d="M0 51.5002L24.6 36.8002L59.6 2.7002L42.6 8.8002L0 51.5002Z" fill="url(#paint17_linear)"/>
<path d="M0 51.5002L24.6 36.9002L59.6 2.7002L42.6 8.8002L0 51.5002Z" fill="url(#paint18_linear)"/>
<path d="M49.4001 12.6002L59.6001 2.7002L42.6001 8.8002L49.4001 12.6002Z" fill="url(#paint19_linear)"/>
<path d="M69.8 23.8998L32.5999 58.5998L18.7 32.7998L42.5999 8.7998L69.8 23.8998Z" fill="url(#paint20_linear)"/>
<path d="M54.1 38.5L25 26.5V26.7L50.2 42.2L54.1 38.5Z" fill="url(#paint21_linear)"/>
<path d="M49.4 12.5998L24.6 36.7998L0 51.4998L18.7 32.7998L42.6 8.7998L49.4 12.5998Z" fill="url(#paint22_linear)"/>
<path d="M49.6 12.3998L24.6 36.7998L0 51.4998L18.7 32.7998L42.6 8.7998L49.6 12.3998Z" fill="url(#paint23_linear)"/>
<path d="M49.7 12.0002L59.5999 2.7002L70 24.2002L49.7 12.0002Z" fill="url(#paint24_linear)"/>
<path d="M25.2 26.1998L36.5999 31.8998L42.5999 8.7998L25.2 26.1998Z" fill="url(#paint25_linear)"/>
<path d="M42.5999 8.8L26.7 0L25.2 26.3L42.5999 8.8Z" fill="url(#paint26_linear)"/>
<path d="M57 13H13V57H57V13Z" fill="url(#paint27_linear)"/>
<g opacity="0.3">
<path opacity="0.3" d="M57 39.7002L25.1 26.7002L23.7 51.9002L29.9 57.0002H57V39.7002Z" fill="url(#paint28_linear)"/>
<path opacity="0.3" d="M57 56.9998V44.4998L53.5999 44.2998L46.7 56.9998H57Z" fill="url(#paint29_linear)"/>
<path opacity="0.3" d="M13 13V36.9V39.4L25.1 27.3L25.9 13H13Z" fill="url(#paint30_linear)"/>
<path opacity="0.3" d="M13 36.8999V38.8999L25.1 27.2999L13 17.8999V36.8999Z" fill="url(#paint31_linear)"/>
<path opacity="0.3" d="M25.9 13L25.2 26.2L38.3 13H25.9Z" fill="url(#paint32_linear)"/>
<path opacity="0.3" d="M57 36.4V13H38.3L13 38.3V57H34.7L57 36.4Z" fill="url(#paint33_linear)"/>
<path opacity="0.3" d="M13 38.4V43.9L24.5 36.9L49 13H38.3L13 38.3V38.4Z" fill="url(#paint34_linear)"/>
<path opacity="0.3" d="M13 56.9998H23.3L24.6 36.7998L13 43.6998V56.9998Z" fill="url(#paint35_linear)"/>
</g>
<path d="M35 48.7002H18.5V51.4002H35V48.7002Z" fill="white"/>
<path d="M35.093 18.4932H38.6306V31.7591H45.7057V34.707H35.093V18.4932Z" fill="white"/>
<path d="M17.7 26.6492C17.7 21.9325 21.2375 18.1001 26.2491 18.1001C29.2953 18.1001 31.1624 19.0828 32.7346 20.655L30.4745 23.3082C29.1971 22.129 27.9196 21.4411 26.2491 21.4411C23.4976 21.4411 21.5323 23.7013 21.5323 26.551C21.5323 29.4007 23.4976 31.6608 26.2491 31.6608C28.1161 31.6608 29.2953 30.8747 30.5728 29.7937L32.8329 32.1521C31.1624 33.9209 29.2953 35.1001 26.1508 35.1001C21.2375 35.1001 17.7 31.366 17.7 26.6492Z" fill="white"/>
<defs>
<linearGradient id="paint0_linear" x1="25.1611" y1="13.686" x2="45.2167" y2="13.686" gradientUnits="userSpaceOnUse">
<stop stop-color="#FF318C"/>
<stop offset="0.149" stop-color="#FB348C"/>
<stop offset="0.2849" stop-color="#F03C8C"/>
<stop offset="0.4157" stop-color="#DE4A8C"/>
<stop offset="0.5434" stop-color="#C45D8B"/>
<stop offset="0.6689" stop-color="#A2778B"/>
<stop offset="0.7926" stop-color="#79958A"/>
<stop offset="0.9128" stop-color="#49B98A"/>
<stop offset="1" stop-color="#21D789"/>
</linearGradient>
<linearGradient id="paint1_linear" x1="22.772" y1="20.0077" x2="50.6329" y2="9.13141" gradientUnits="userSpaceOnUse">
<stop offset="0.1069" stop-color="#FF318C"/>
<stop offset="0.2181" stop-color="#FB338C"/>
<stop offset="0.3194" stop-color="#F0388E"/>
<stop offset="0.4168" stop-color="#DE4190"/>
<stop offset="0.5114" stop-color="#C44E93"/>
<stop offset="0.6008" stop-color="#A45E97"/>
<stop offset="0.6375" stop-color="#976A96"/>
<stop offset="0.7051" stop-color="#758992"/>
<stop offset="0.7956" stop-color="#3FBC8C"/>
<stop offset="0.8402" stop-color="#21D789"/>
</linearGradient>
<linearGradient id="paint2_linear" x1="22.6852" y1="7.7093" x2="7.4522" y2="35.0772" gradientUnits="userSpaceOnUse">
<stop offset="0.0294109" stop-color="#00FF6A"/>
<stop offset="0.375" stop-color="#21D789"/>
<stop offset="0.9032" stop-color="#009AE5"/>
</linearGradient>
<linearGradient id="paint3_linear" x1="26.4065" y1="18.7432" x2="16.2752" y2="19.6372" gradientUnits="userSpaceOnUse">
<stop offset="0.0294109" stop-color="#A6FF9E"/>
<stop offset="0.6015" stop-color="#21D789" stop-opacity="0"/>
</linearGradient>
<linearGradient id="paint4_linear" x1="37.5117" y1="47.7283" x2="70.0144" y2="52.3495" gradientUnits="userSpaceOnUse">
<stop offset="0.3444" stop-color="#21D789"/>
<stop offset="0.8032" stop-color="#009AE5"/>
<stop offset="0.9931" stop-color="#0855FA"/>
</linearGradient>
<linearGradient id="paint5_linear" x1="39.2597" y1="47.5099" x2="64.3321" y2="33.6567" gradientUnits="userSpaceOnUse">
<stop offset="0.0962983" stop-color="#00FF6A"/>
<stop offset="0.9654" stop-color="#00FF6A" stop-opacity="0"/>
</linearGradient>
<linearGradient id="paint6_linear" x1="34.2953" y1="69.2597" x2="72.6274" y2="48.0802" gradientUnits="userSpaceOnUse">
<stop stop-color="#42FFFA" stop-opacity="0.5"/>
<stop offset="0.9989" stop-color="#00FF6A" stop-opacity="0"/>
</linearGradient>
<linearGradient id="paint7_linear" x1="44.7596" y1="52.9875" x2="31.2512" y2="50.6037" gradientUnits="userSpaceOnUse">
<stop offset="0.0521494" stop-color="#00FF6A"/>
<stop offset="1" stop-color="#009AE5"/>
</linearGradient>
<linearGradient id="paint8_linear" x1="70.3677" y1="56.1448" x2="26.8342" y2="52.0693" gradientUnits="userSpaceOnUse">
<stop offset="0.1212" stop-color="#21D789" stop-opacity="0"/>
<stop offset="0.7868" stop-color="#00FF6A"/>
</linearGradient>
<linearGradient id="paint9_linear" x1="46.2103" y1="50.0884" x2="37.1425" y2="57.4344" gradientUnits="userSpaceOnUse">
<stop offset="0.0962983" stop-color="#42FFFA"/>
<stop offset="0.9654" stop-color="#42FFFA" stop-opacity="0"/>
</linearGradient>
<linearGradient id="paint10_linear" x1="19.6644" y1="11.6537" x2="-1.2201" y2="57.2199" gradientUnits="userSpaceOnUse">
<stop offset="0.0913979" stop-color="#00FF6A"/>
<stop offset="0.759" stop-color="#009AE5"/>
</linearGradient>
<linearGradient id="paint11_linear" x1="3.6794" y1="22.1031" x2="11.2282" y2="49.3185" gradientUnits="userSpaceOnUse">
<stop offset="0.1163" stop-color="#21D789" stop-opacity="0.6"/>
<stop offset="1" stop-color="#009AE5"/>
</linearGradient>
<linearGradient id="paint12_linear" x1="64.2829" y1="6.9151" x2="-6.1363" y2="81.2883" gradientUnits="userSpaceOnUse">
<stop offset="0.0913979" stop-color="#21D789"/>
<stop offset="0.9032" stop-color="#009AE5"/>
</linearGradient>
<linearGradient id="paint13_linear" x1="35.7411" y1="66.8453" x2="22.4441" y2="38.0353" gradientUnits="userSpaceOnUse">
<stop offset="0.00994756" stop-color="#009AE5"/>
<stop offset="0.9654" stop-color="#009AE5" stop-opacity="0"/>
</linearGradient>
<linearGradient id="paint14_linear" x1="2.09087e-05" y1="52.3873" x2="24.6378" y2="52.3873" gradientUnits="userSpaceOnUse">
<stop offset="0.0556783" stop-color="#009AE5" stop-opacity="0.4"/>
<stop offset="0.7897" stop-color="#009AE5"/>
</linearGradient>
<linearGradient id="paint15_linear" x1="4.222" y1="37.3308" x2="21.5048" y2="51.8324" gradientUnits="userSpaceOnUse">
<stop offset="0.1196" stop-color="#42FFFA"/>
<stop offset="0.6743" stop-color="#42FFFA" stop-opacity="0"/>
</linearGradient>
<linearGradient id="paint16_linear" x1="13.0577" y1="44.1857" x2="24.6379" y2="44.1857" gradientUnits="userSpaceOnUse">
<stop offset="0.0556783" stop-color="#009AE5" stop-opacity="0.4"/>
<stop offset="1" stop-color="#087CFA"/>
</linearGradient>
<linearGradient id="paint17_linear" x1="11.869" y1="49.0612" x2="55.9551" y2="-5.0113" gradientUnits="userSpaceOnUse">
<stop stop-color="#0697DC"/>
<stop offset="0.9032" stop-color="#00FF6A"/>
</linearGradient>
<linearGradient id="paint18_linear" x1="38.6398" y1="33.8585" x2="30.495" y2="27.601" gradientUnits="userSpaceOnUse">
<stop offset="0.0962983" stop-color="#6EFFA3"/>
<stop offset="0.6015" stop-color="#21D789" stop-opacity="0"/>
</linearGradient>
<linearGradient id="paint19_linear" x1="57.442" y1="9.0919" x2="46.1187" y2="3.5296" gradientUnits="userSpaceOnUse">
<stop offset="0.0962983" stop-color="#6EFFA3"/>
<stop offset="0.9654" stop-color="#FCF84A" stop-opacity="0"/>
</linearGradient>
<linearGradient id="paint20_linear" x1="65.3805" y1="54.7256" x2="18.8957" y2="10.6247" gradientUnits="userSpaceOnUse">
<stop offset="0.5747" stop-color="#0CAFA3" stop-opacity="0.1365"/>
<stop offset="1" stop-color="#07C3F2" stop-opacity="0.88"/>
</linearGradient>
<linearGradient id="paint21_linear" x1="18.4878" y1="24.5921" x2="56.2183" y2="42.2475" gradientUnits="userSpaceOnUse">
<stop offset="0.4862" stop-color="#087CFA" stop-opacity="0"/>
<stop offset="1" stop-color="#21D789"/>
</linearGradient>
<linearGradient id="paint22_linear" x1="32.5117" y1="38.32" x2="25.7737" y2="32.8893" gradientUnits="userSpaceOnUse">
<stop offset="0.311" stop-color="#65FFC5" stop-opacity="0.88"/>
<stop offset="0.4437" stop-color="#56F2BE" stop-opacity="0.6801"/>
<stop offset="0.6983" stop-color="#2FD0AD" stop-opacity="0.2969"/>
<stop offset="0.8955" stop-color="#0CB29E" stop-opacity="0"/>
</linearGradient>
<linearGradient id="paint23_linear" x1="29.4986" y1="40.6808" x2="19.566" y2="22.2062" gradientUnits="userSpaceOnUse">
<stop offset="0.0962983" stop-color="#42FFFA"/>
<stop offset="0.6336" stop-color="#42FFFA" stop-opacity="0"/>
</linearGradient>
<linearGradient id="paint24_linear" x1="74.7609" y1="18.3398" x2="53.4383" y2="7.8655" gradientUnits="userSpaceOnUse">
<stop offset="0.1514" stop-color="#00865B"/>
<stop offset="0.2496" stop-color="#048D64" stop-opacity="0.8794"/>
<stop offset="0.412" stop-color="#0EA07D" stop-opacity="0.6799"/>
<stop offset="0.6187" stop-color="#1FBFA6" stop-opacity="0.426"/>
<stop offset="0.8591" stop-color="#37EADF" stop-opacity="0.1306"/>
<stop offset="0.9654" stop-color="#42FFFA" stop-opacity="0"/>
</linearGradient>
<linearGradient id="paint25_linear" x1="64.0103" y1="3.75791" x2="21.9954" y2="32.3639" gradientUnits="userSpaceOnUse">
<stop offset="0.1446" stop-color="#FF67AA"/>
<stop offset="0.2328" stop-color="#FB69A9" stop-opacity="0.8603"/>
<stop offset="0.3132" stop-color="#F06FA6" stop-opacity="0.7328"/>
<stop offset="0.3907" stop-color="#DE7AA2" stop-opacity="0.6101"/>
<stop offset="0.4663" stop-color="#C48A9B" stop-opacity="0.4903"/>
<stop offset="0.5406" stop-color="#A29E93" stop-opacity="0.3725"/>
<stop offset="0.6139" stop-color="#79B788" stop-opacity="0.2564"/>
<stop offset="0.6864" stop-color="#48D47C" stop-opacity="0.1415"/>
<stop offset="0.7565" stop-color="#10F56E" stop-opacity="0.0303353"/>
<stop offset="0.7757" stop-color="#00FF6A" stop-opacity="0"/>
</linearGradient>
<linearGradient id="paint26_linear" x1="20.4985" y1="12.4551" x2="36.1423" y2="14.3919" gradientUnits="userSpaceOnUse">
<stop offset="0.2258" stop-color="#FF52A0"/>
<stop offset="0.4026" stop-color="#FF4E9E" stop-opacity="0.6404"/>
<stop offset="0.5635" stop-color="#FF4397" stop-opacity="0.3132"/>
<stop offset="0.7175" stop-color="#FF318C" stop-opacity="0"/>
</linearGradient>
<linearGradient id="paint27_linear" x1="12.4466" y1="13.1061" x2="56.1972" y2="55.5776" gradientUnits="userSpaceOnUse">
<stop stop-color="#007859"/>
<stop offset="0.0882966" stop-color="#00533E"/>
<stop offset="0.1921" stop-color="#002F23"/>
<stop offset="0.2894" stop-color="#001510"/>
<stop offset="0.3766" stop-color="#000604"/>
<stop offset="0.4452"/>
<stop offset="0.9138"/>
</linearGradient>
<linearGradient id="paint28_linear" x1="34.5103" y1="42.8462" x2="59.3161" y2="46.3731" gradientUnits="userSpaceOnUse">
<stop offset="0.0207811" stop-color="#00A466"/>
<stop offset="0.9931" stop-color="#083737"/>
</linearGradient>
<linearGradient id="paint29_linear" x1="46.6658" y1="50.6584" x2="57" y2="50.6584" gradientUnits="userSpaceOnUse">
<stop offset="0.1545" stop-color="#003127"/>
<stop offset="0.9931" stop-color="#0855FA"/>
</linearGradient>
<linearGradient id="paint30_linear" x1="25.5935" y1="25.0757" x2="18.3843" y2="25.7118" gradientUnits="userSpaceOnUse">
<stop offset="0.0962983" stop-color="#6EFFA3"/>
<stop offset="0.9654" stop-color="#FCF84A"/>
</linearGradient>
<linearGradient id="paint31_linear" x1="21.1583" y1="17.9952" x2="10.6297" y2="40.9665" gradientUnits="userSpaceOnUse">
<stop offset="0.0913979" stop-color="#00FF6A"/>
<stop offset="0.759" stop-color="#009AE5"/>
</linearGradient>
<linearGradient id="paint32_linear" x1="27.984" y1="11.8309" x2="35.6217" y2="27.6009" gradientUnits="userSpaceOnUse">
<stop offset="0.3369" stop-color="#FF52A0"/>
<stop offset="0.493" stop-color="#FF489A"/>
<stop offset="0.7175" stop-color="#FF318C"/>
</linearGradient>
<linearGradient id="paint33_linear" x1="39.5775" y1="10.5254" x2="31.3746" y2="58.6114" gradientUnits="userSpaceOnUse">
<stop stop-color="#21D789"/>
<stop offset="1" stop-color="#090C1B"/>
</linearGradient>
<linearGradient id="paint34_linear" x1="36.0881" y1="14.4741" x2="23.3241" y2="42.5478" gradientUnits="userSpaceOnUse">
<stop offset="0.0962983" stop-color="#6EFFA3"/>
<stop offset="0.9654" stop-color="#218F59"/>
</linearGradient>
<linearGradient id="paint35_linear" x1="11.1809" y1="40.5145" x2="21.3373" y2="49.0366" gradientUnits="userSpaceOnUse">
<stop offset="0.1545" stop-color="#001A18"/>
<stop offset="0.9931" stop-color="#0855FA"/>
</linearGradient>
</defs>
</svg>
