<svg width="48" height="48" viewBox="0 0 48 48" fill="none" xmlns="http://www.w3.org/2000/svg">
<path d="M17.3 18.8L18.3 0L29.2001 6.1L17.3 18.8Z" fill="url(#paint0_linear)"/>
<path d="M17.3 18.8001L17.9 7.1001L29.2001 6.1001L17.3 18.8001Z" fill="url(#paint1_linear)"/>
<path d="M17.3 18.8L17.9 7.3L18.3 0L4.4 8.7L0 35.3L17.3 18.8Z" fill="#00FF6A"/>
<path d="M17.3 18.8001L17.9 7.1001L4.40002 8.7001L9.30002 26.5001L17.3 18.8001Z" fill="url(#paint2_linear)"/>
<path d="M17.3 18.8L18.3 0L4.40002 8.7L9.30002 26.5L17.3 18.8Z" fill="url(#paint3_linear)"/>
<path d="M17.2001 18.2998L16.3 35.5998L28.4 45.3998L40.4001 47.9998L48 30.8998L17.2001 18.2998Z" fill="url(#paint4_linear)"/>
<path d="M36.7 30.3999L26 23.7999L27.3 22.3999L48 30.8999L36.7 30.3999Z" fill="url(#paint5_linear)"/>
<path d="M36.7 30.3999L28.4 45.3999L40.4 47.9999L48 30.8999L36.7 30.3999Z" fill="url(#paint6_linear)"/>
<path d="M16.8 24.3999L16.3 35.5999L28.4 45.3999L16.8 24.3999Z" fill="url(#paint7_linear)"/>
<path d="M17.2 25.3999L40.4 47.9999L28.4 45.3999L17.2 25.3999Z" fill="url(#paint8_linear)"/>
<path d="M17.2 25.3999L40.4 47.9999L28.4 45.3999L17.2 25.3999Z" fill="url(#paint9_linear)"/>
<path d="M0 35.3002L17.3 18.8002L4.4 8.7002L0 35.3002Z" fill="url(#paint10_linear)"/>
<path d="M0 35.3002L12.7 22.6002L4.4 8.7002L0 35.3002Z" fill="url(#paint11_linear)"/>
<path d="M48 16.5998L40.9 1.7998L29.2 6.0998L0 35.2998L15.6 46.5998L48 16.5998Z" fill="url(#paint12_linear)"/>
<path d="M16.9 25.2998L16.3 35.5998L22.3 40.3998L24.5 38.2998L16.9 25.2998Z" fill="url(#paint13_linear)"/>
<path d="M0 35.3002L16.9 25.2002L15.6 46.6002L0 35.3002Z" fill="url(#paint14_linear)"/>
<path d="M0 35.3002L16.9 25.2002L15.6 46.6002L0 35.3002Z" fill="url(#paint15_linear)"/>
<path d="M9 30.0002L16.9 25.2002L16.2 35.4002L9 30.0002Z" fill="url(#paint16_linear)"/>
<path d="M0 35.2998L16.9 25.2998L40.9 1.7998L29.2 6.0998L0 35.2998Z" fill="url(#paint17_linear)"/>
<path d="M0 35.2998L16.8 25.2998L40.9 1.7998L29.2 6.0998L0 35.2998Z" fill="url(#paint18_linear)"/>
<path d="M33.9 8.6998L40.9 1.7998L29.2 6.0998L33.9 8.6998Z" fill="url(#paint19_linear)"/>
<path d="M47.8 16.4001L22.4 40.2001L12.8 22.5001L29.2001 6.1001L47.8 16.4001Z" fill="url(#paint20_linear)"/>
<path d="M37.0999 26.4002L17.2 18.2002V18.3002L34.4 28.9002L37.0999 26.4002Z" fill="url(#paint21_linear)"/>
<path d="M33.9 8.7001L16.9 25.2001L0 35.3001L12.8 22.5001L29.2 6.1001L33.9 8.7001Z" fill="url(#paint22_linear)"/>
<path d="M34 8.5001L16.9 25.2001L0 35.3001L12.8 22.5001L29.2 6.1001L34 8.5001Z" fill="url(#paint23_linear)"/>
<path d="M34.1 8.1998L40.9 1.7998L48 16.5998L34.1 8.1998Z" fill="url(#paint24_linear)"/>
<path d="M17.3 18.0001L25.1 21.9001L29.2001 6.1001L17.3 18.0001Z" fill="url(#paint25_linear)"/>
<path d="M29.2001 6.1L18.3 0L17.3 18L29.2001 6.1Z" fill="url(#paint26_linear)"/>
<path d="M39 9H9V39H39V9Z" fill="url(#paint27_linear)"/>
<g opacity="0.3">
<path opacity="0.3" d="M39 27.1998L17.2 18.2998L16.3 35.5998L20.5 38.9998H39V27.1998Z" fill="url(#paint28_linear)"/>
<path opacity="0.3" d="M39 38.9999V30.4999L36.7 30.3999L32 38.9999H39Z" fill="url(#paint29_linear)"/>
<path opacity="0.3" d="M9 9V25.3V27L17.3 18.8L17.8 9H9Z" fill="url(#paint30_linear)"/>
<path opacity="0.3" d="M9 25.2998V26.5998L17.3 18.7998L9 12.2998V25.2998Z" fill="url(#paint31_linear)"/>
<path opacity="0.3" d="M17.8 9L17.3 18L26.3 9H17.8Z" fill="url(#paint32_linear)"/>
<path opacity="0.3" d="M39 24.9V9H26.3L9 26.3V39H23.8L39 24.9Z" fill="url(#paint33_linear)"/>
<path opacity="0.3" d="M9 26.3V30L16.9 25.3L33.5 9H26.3L9 26.3Z" fill="url(#paint34_linear)"/>
<path opacity="0.3" d="M9 39.0002H16L16.9 25.2002L9 29.9002V39.0002Z" fill="url(#paint35_linear)"/>
</g>
<path d="M23.9 33.3003H12.7V35.2003H23.9V33.3003Z" fill="white"/>
<path d="M24.2001 12.7002H26.7001V21.9002H31.6001V24.0002H24.2001V12.7002Z" fill="white"/>
<path d="M12.1001 18.4C12.1001 15.1 14.5001 12.5 18.0001 12.5C20.1001 12.5 21.4001 13.2 22.5001 14.2L20.9001 16C20.1001 15.3 19.2001 14.8 18.0001 14.8C16.1001 14.8 14.7001 16.4 14.7001 18.3C14.7001 20.2 16.0001 21.9 18.0001 21.9C19.3001 21.9 20.1001 21.4 21.0001 20.6L22.6001 22.2C21.4001 23.4 20.1001 24.2 17.9001 24.2C14.6001 24.3 12.1001 21.7 12.1001 18.4Z" fill="white"/>
<defs>
<linearGradient id="paint0_linear" x1="17.2533" y1="9.3847" x2="31.0059" y2="9.3847" gradientUnits="userSpaceOnUse">
<stop  offset="0" stop-color="#FF318C"/>
<stop offset="0.149" stop-color="#FB348C"/>
<stop offset="0.2849" stop-color="#F03C8C"/>
<stop offset="0.4157" stop-color="#DE4A8C"/>
<stop offset="0.5434" stop-color="#C45D8B"/>
<stop offset="0.6689" stop-color="#A2778B"/>
<stop offset="0.7926" stop-color="#79958A"/>
<stop offset="0.9128" stop-color="#49B98A"/>
<stop offset="1" stop-color="#21D789"/>
</linearGradient>
<linearGradient id="paint1_linear" x1="15.6151" y1="13.7198" x2="34.7198" y2="6.26179" gradientUnits="userSpaceOnUse">
<stop offset="0.1069" stop-color="#FF318C"/>
<stop offset="0.2181" stop-color="#FB338C"/>
<stop offset="0.3194" stop-color="#F0388E"/>
<stop offset="0.4168" stop-color="#DE4190"/>
<stop offset="0.5114" stop-color="#C44E93"/>
<stop offset="0.6008" stop-color="#A45E97"/>
<stop offset="0.6375" stop-color="#976A96"/>
<stop offset="0.7051" stop-color="#758992"/>
<stop offset="0.7956" stop-color="#3FBC8C"/>
<stop offset="0.8402" stop-color="#21D789"/>
</linearGradient>
<linearGradient id="paint2_linear" x1="15.5556" y1="5.2866" x2="5.11013" y2="24.0531" gradientUnits="userSpaceOnUse">
<stop offset="0.0294109" stop-color="#00FF6A"/>
<stop offset="0.375" stop-color="#21D789"/>
<stop offset="0.9032" stop-color="#009AE5"/>
</linearGradient>
<linearGradient id="paint3_linear" x1="18.1073" y1="12.8525" x2="11.1601" y2="13.4655" gradientUnits="userSpaceOnUse">
<stop offset="0.0294109" stop-color="#A6FF9E"/>
<stop offset="0.6015" stop-color="#21D789" stop-opacity="0"/>
</linearGradient>
<linearGradient id="paint4_linear" x1="25.7223" y1="32.7276" x2="48.0099" y2="35.8965" gradientUnits="userSpaceOnUse">
<stop offset="0.3444" stop-color="#21D789"/>
<stop offset="0.8032" stop-color="#009AE5"/>
<stop offset="0.9931" stop-color="#0855FA"/>
</linearGradient>
<linearGradient id="paint5_linear" x1="26.9209" y1="32.578" x2="44.1134" y2="23.0786" gradientUnits="userSpaceOnUse">
<stop offset="0.0962983" stop-color="#00FF6A"/>
<stop offset="0.9654" stop-color="#00FF6A" stop-opacity="0"/>
</linearGradient>
<linearGradient id="paint6_linear" x1="23.5168" y1="47.4924" x2="49.8016" y2="32.9693" gradientUnits="userSpaceOnUse">
<stop  offset="0" stop-color="#42FFFA" stop-opacity="0.5"/>
<stop offset="0.9989" stop-color="#00FF6A" stop-opacity="0"/>
</linearGradient>
<linearGradient id="paint7_linear" x1="30.6923" y1="36.3341" x2="21.4294" y2="34.6995" gradientUnits="userSpaceOnUse">
<stop offset="0.0521494" stop-color="#00FF6A"/>
<stop offset="1" stop-color="#009AE5"/>
</linearGradient>
<linearGradient id="paint8_linear" x1="48.2521" y1="38.4992" x2="18.4004" y2="35.7046" gradientUnits="userSpaceOnUse">
<stop offset="0.1212" stop-color="#21D789" stop-opacity="0"/>
<stop offset="0.7868" stop-color="#00FF6A"/>
</linearGradient>
<linearGradient id="paint9_linear" x1="31.687" y1="34.3462" x2="25.4691" y2="39.3835" gradientUnits="userSpaceOnUse">
<stop offset="0.0962983" stop-color="#42FFFA"/>
<stop offset="0.9654" stop-color="#42FFFA" stop-opacity="0"/>
</linearGradient>
<linearGradient id="paint10_linear" x1="13.4842" y1="7.9912" x2="-0.836599" y2="39.2366" gradientUnits="userSpaceOnUse">
<stop offset="0.0913979" stop-color="#00FF6A"/>
<stop offset="0.759" stop-color="#009AE5"/>
</linearGradient>
<linearGradient id="paint11_linear" x1="2.523" y1="15.1565" x2="7.6993" y2="33.8185" gradientUnits="userSpaceOnUse">
<stop offset="0.1163" stop-color="#21D789" stop-opacity="0.6"/>
<stop offset="1" stop-color="#009AE5"/>
</linearGradient>
<linearGradient id="paint12_linear" x1="44.0797" y1="4.74151" x2="-4.2077" y2="55.7402" gradientUnits="userSpaceOnUse">
<stop offset="0.0913979" stop-color="#21D789"/>
<stop offset="0.9032" stop-color="#009AE5"/>
</linearGradient>
<linearGradient id="paint13_linear" x1="24.5081" y1="45.8367" x2="15.3902" y2="26.0813" gradientUnits="userSpaceOnUse">
<stop offset="0.00994756" stop-color="#009AE5"/>
<stop offset="0.9654" stop-color="#009AE5" stop-opacity="0"/>
</linearGradient>
<linearGradient id="paint14_linear" x1="1.43374e-05" y1="35.923" x2="16.8945" y2="35.923" gradientUnits="userSpaceOnUse">
<stop offset="0.0556783" stop-color="#009AE5" stop-opacity="0.4"/>
<stop offset="0.7897" stop-color="#009AE5"/>
</linearGradient>
<linearGradient id="paint15_linear" x1="2.8951" y1="25.5986" x2="14.7461" y2="35.5426" gradientUnits="userSpaceOnUse">
<stop offset="0.1196" stop-color="#42FFFA"/>
<stop offset="0.6743" stop-color="#42FFFA" stop-opacity="0"/>
</linearGradient>
<linearGradient id="paint16_linear" x1="8.9538" y1="30.2991" x2="16.8945" y2="30.2991" gradientUnits="userSpaceOnUse">
<stop offset="0.0556783" stop-color="#009AE5" stop-opacity="0.4"/>
<stop offset="1" stop-color="#087CFA"/>
</linearGradient>
<linearGradient id="paint17_linear" x1="8.1387" y1="33.6416" x2="38.3692" y2="-3.4366" gradientUnits="userSpaceOnUse">
<stop  offset="0" stop-color="#0697DC"/>
<stop offset="0.9032" stop-color="#00FF6A"/>
</linearGradient>
<linearGradient id="paint18_linear" x1="26.4959" y1="23.2169" x2="20.9109" y2="18.926" gradientUnits="userSpaceOnUse">
<stop offset="0.0962983" stop-color="#6EFFA3"/>
<stop offset="0.6015" stop-color="#21D789" stop-opacity="0"/>
</linearGradient>
<linearGradient id="paint19_linear" x1="39.3887" y1="6.2341" x2="31.6242" y2="2.4199" gradientUnits="userSpaceOnUse">
<stop offset="0.0962983" stop-color="#6EFFA3"/>
<stop offset="0.9654" stop-color="#FCF84A" stop-opacity="0"/>
</linearGradient>
<linearGradient id="paint20_linear" x1="44.8324" y1="37.5263" x2="12.9571" y2="7.2857" gradientUnits="userSpaceOnUse">
<stop offset="0.5747" stop-color="#0CAFA3" stop-opacity="0.1365"/>
<stop offset="1" stop-color="#07C3F2" stop-opacity="0.88"/>
</linearGradient>
<linearGradient id="paint21_linear" x1="12.6773" y1="16.8634" x2="38.5496" y2="28.9699" gradientUnits="userSpaceOnUse">
<stop offset="0.4862" stop-color="#087CFA" stop-opacity="0"/>
<stop offset="1" stop-color="#21D789"/>
</linearGradient>
<linearGradient id="paint22_linear" x1="22.2937" y1="26.2768" x2="17.6734" y2="22.5529" gradientUnits="userSpaceOnUse">
<stop offset="0.311" stop-color="#65FFC5" stop-opacity="0.88"/>
<stop offset="0.4437" stop-color="#56F2BE" stop-opacity="0.6801"/>
<stop offset="0.6983" stop-color="#2FD0AD" stop-opacity="0.2969"/>
<stop offset="0.8955" stop-color="#0CB29E" stop-opacity="0"/>
</linearGradient>
<linearGradient id="paint23_linear" x1="20.2276" y1="27.8957" x2="13.4167" y2="15.2273" gradientUnits="userSpaceOnUse">
<stop offset="0.0962983" stop-color="#42FFFA"/>
<stop offset="0.6336" stop-color="#42FFFA" stop-opacity="0"/>
</linearGradient>
<linearGradient id="paint24_linear" x1="51.2646" y1="12.5755" x2="36.6434" y2="5.3932" gradientUnits="userSpaceOnUse">
<stop offset="0.1514" stop-color="#00865B"/>
<stop offset="0.2496" stop-color="#048D64" stop-opacity="0.8794"/>
<stop offset="0.412" stop-color="#0EA07D" stop-opacity="0.6799"/>
<stop offset="0.6187" stop-color="#1FBFA6" stop-opacity="0.426"/>
<stop offset="0.8591" stop-color="#37EADF" stop-opacity="0.1306"/>
<stop offset="0.9654" stop-color="#42FFFA" stop-opacity="0"/>
</linearGradient>
<linearGradient id="paint25_linear" x1="43.893" y1="2.5771" x2="15.0826" y2="22.1926" gradientUnits="userSpaceOnUse">
<stop offset="0.1446" stop-color="#FF67AA"/>
<stop offset="0.2328" stop-color="#FB69A9" stop-opacity="0.8603"/>
<stop offset="0.3132" stop-color="#F06FA6" stop-opacity="0.7328"/>
<stop offset="0.3907" stop-color="#DE7AA2" stop-opacity="0.6101"/>
<stop offset="0.4663" stop-color="#C48A9B" stop-opacity="0.4903"/>
<stop offset="0.5406" stop-color="#A29E93" stop-opacity="0.3725"/>
<stop offset="0.6139" stop-color="#79B788" stop-opacity="0.2564"/>
<stop offset="0.6864" stop-color="#48D47C" stop-opacity="0.1415"/>
<stop offset="0.7565" stop-color="#10F56E" stop-opacity="0.0303353"/>
<stop offset="0.7757" stop-color="#00FF6A" stop-opacity="0"/>
</linearGradient>
<linearGradient id="paint26_linear" x1="14.0561" y1="8.5406" x2="24.7834" y2="9.8688" gradientUnits="userSpaceOnUse">
<stop offset="0.2258" stop-color="#FF52A0"/>
<stop offset="0.4026" stop-color="#FF4E9E" stop-opacity="0.6404"/>
<stop offset="0.5635" stop-color="#FF4397" stop-opacity="0.3132"/>
<stop offset="0.7175" stop-color="#FF318C" stop-opacity="0"/>
</linearGradient>
<linearGradient id="paint27_linear" x1="8.62267" y1="9.07234" x2="38.4527" y2="38.0302" gradientUnits="userSpaceOnUse">
<stop  offset="0" stop-color="#007859"/>
<stop offset="0.0882966" stop-color="#00533E"/>
<stop offset="0.1921" stop-color="#002F23"/>
<stop offset="0.2894" stop-color="#001510"/>
<stop offset="0.3766" stop-color="#000604"/>
<stop offset="0.4452"/>
<stop offset="0.9138"/>
</linearGradient>
<linearGradient id="paint28_linear" x1="23.6661" y1="29.3494" x2="40.5793" y2="31.7541" gradientUnits="userSpaceOnUse">
<stop offset="0.0207811" stop-color="#00A466"/>
<stop offset="0.9931" stop-color="#083737"/>
</linearGradient>
<linearGradient id="paint29_linear" x1="31.9539" y1="34.6762" x2="39" y2="34.6762" gradientUnits="userSpaceOnUse">
<stop offset="0.1545" stop-color="#003127"/>
<stop offset="0.9931" stop-color="#0855FA"/>
</linearGradient>
<linearGradient id="paint30_linear" x1="17.5865" y1="17.2334" x2="12.6711" y2="17.6671" gradientUnits="userSpaceOnUse">
<stop offset="0.0962983" stop-color="#6EFFA3"/>
<stop offset="0.9654" stop-color="#FCF84A"/>
</linearGradient>
<linearGradient id="paint31_linear" x1="14.5625" y1="12.4057" x2="7.3839" y2="28.0679" gradientUnits="userSpaceOnUse">
<stop offset="0.0913979" stop-color="#00FF6A"/>
<stop offset="0.759" stop-color="#009AE5"/>
</linearGradient>
<linearGradient id="paint32_linear" x1="19.2164" y1="8.2029" x2="24.4239" y2="18.9552" gradientUnits="userSpaceOnUse">
<stop offset="0.3369" stop-color="#FF52A0"/>
<stop offset="0.493" stop-color="#FF489A"/>
<stop offset="0.7175" stop-color="#FF318C"/>
</linearGradient>
<linearGradient id="paint33_linear" x1="27.121" y1="7.3127" x2="21.5282" y2="40.0987" gradientUnits="userSpaceOnUse">
<stop  offset="0" stop-color="#21D789"/>
<stop offset="1" stop-color="#090C1B"/>
</linearGradient>
<linearGradient id="paint34_linear" x1="24.7419" y1="10.005" x2="16.0392" y2="29.1462" gradientUnits="userSpaceOnUse">
<stop offset="0.0962983" stop-color="#6EFFA3"/>
<stop offset="0.9654" stop-color="#218F59"/>
</linearGradient>
<linearGradient id="paint35_linear" x1="7.7597" y1="27.7602" x2="14.6845" y2="33.5707" gradientUnits="userSpaceOnUse">
<stop offset="0.1545" stop-color="#001A18"/>
<stop offset="0.9931" stop-color="#0855FA"/>
</linearGradient>
</defs>
</svg>
