<svg width="24" height="24" viewBox="0 0 24 24" fill="none" xmlns="http://www.w3.org/2000/svg">
<path d="M8.59998 9.4L9.09998 0L14.6 3L8.59998 9.4Z" fill="url(#paint0_linear)"/>
<path d="M8.59998 9.4L8.99998 3.6L14.6 3L8.59998 9.4Z" fill="url(#paint1_linear)"/>
<path d="M8.6 9.4L8.9 3.6L9.1 0L2.2 4.4L0 17.6L8.6 9.4Z" fill="#00FF6A"/>
<path d="M8.59995 9.4001L8.99995 3.6001L2.19995 4.4001L4.69995 13.2001L8.59995 9.4001Z" fill="url(#paint2_linear)"/>
<path d="M8.59995 9.4L9.09995 0L2.19995 4.4L4.69995 13.2L8.59995 9.4Z" fill="url(#paint3_linear)"/>
<path d="M8.59995 9.2002L8.19995 17.8002L14.2 22.7002L20.2 24.0002L24 15.4002L8.59995 9.2002Z" fill="url(#paint4_linear)"/>
<path d="M18.4 15.2002L13 11.9002L13.7 11.2002L24 15.4002L18.4 15.2002Z" fill="url(#paint5_linear)"/>
<path d="M18.4 15.2002L14.2 22.7002L20.2 24.0002L24 15.4002L18.4 15.2002Z" fill="url(#paint6_linear)"/>
<path d="M8.39995 12.2002L8.19995 17.8002L14.2 22.7002L8.39995 12.2002Z" fill="url(#paint7_linear)"/>
<path d="M8.59998 12.7002L20.2 24.0002L14.2 22.7002L8.59998 12.7002Z" fill="url(#paint8_linear)"/>
<path d="M8.59998 12.7002L20.2 24.0002L14.2 22.7002L8.59998 12.7002Z" fill="url(#paint9_linear)"/>
<path d="M0 17.5999L8.6 9.3999L2.2 4.3999L0 17.5999Z" fill="url(#paint10_linear)"/>
<path d="M0 17.5999L6.3 11.2999L2.2 4.3999L0 17.5999Z" fill="url(#paint11_linear)"/>
<path d="M24 8.2999L20.4 0.899902L14.6 2.9999L0 17.5999L7.8 23.2999L24 8.2999Z" fill="url(#paint12_linear)"/>
<path d="M8.49995 12.6001L8.19995 17.8001L11.1 20.2001L12.3 19.2001L8.49995 12.6001Z" fill="url(#paint13_linear)"/>
<path d="M0 17.6001L8.4 12.6001L7.8 23.3001L0 17.6001Z" fill="url(#paint14_linear)"/>
<path d="M0 17.6001L8.4 12.6001L7.8 23.3001L0 17.6001Z" fill="url(#paint15_linear)"/>
<path d="M4.5 15.0001L8.4 12.6001L8.1 17.7001L4.5 15.0001Z" fill="url(#paint16_linear)"/>
<path d="M0 17.5999L8.4 12.5999L20.4 0.899902L14.6 2.9999L0 17.5999Z" fill="url(#paint17_linear)"/>
<path d="M0 17.5999L8.4 12.5999L20.4 0.899902L14.6 2.9999L0 17.5999Z" fill="url(#paint18_linear)"/>
<path d="M16.9 4.2999L20.4 0.899902L14.6 2.9999L16.9 4.2999Z" fill="url(#paint19_linear)"/>
<path d="M23.9 8.2L11.2 20.1L6.40002 11.2L14.6 3L23.9 8.2Z" fill="url(#paint20_linear)"/>
<path d="M18.6 13.2001L8.59998 9.1001L17.2 14.5001L18.6 13.2001Z" fill="url(#paint21_linear)"/>
<path d="M17 4.3L8.4 12.6L0 17.6L6.4 11.2L14.6 3L17 4.3Z" fill="url(#paint22_linear)"/>
<path d="M17 4.3L8.4 12.6L0 17.6L6.4 11.2L14.6 3L17 4.3Z" fill="url(#paint23_linear)"/>
<path d="M17 4.0999L20.4 0.899902L24 8.2999L17 4.0999Z" fill="url(#paint24_linear)"/>
<path d="M8.69995 9L12.6 10.9L14.6 3L8.69995 9Z" fill="url(#paint25_linear)"/>
<path d="M14.6 3L9.09998 0L8.59998 9L14.6 3Z" fill="url(#paint26_linear)"/>
<path d="M20 4H4V20H20V4Z" fill="url(#paint27_linear)"/>
<g opacity="0.3">
<g opacity="0.3">
<path opacity="0.3" d="M19.7 20.0001H20V16.6001L17.7 20.0001H19.7Z" fill="#231F20"/>
<path opacity="0.3" d="M14.2 4H5.6L4.3 7.7L19.3 16L4.4 7.8L4 7.9V11.2L13 14.9L20 16.4V16.3V11.2L14.2 4Z" fill="url(#paint28_linear)"/>
<path opacity="0.3" d="M5.60005 4L4.30005 7.7L20 16.3V11.2L14.2 4H5.60005Z" fill="url(#paint29_linear)"/>
<path opacity="0.3" d="M4 4V8.2L4.4 7.8L5.6 4H4Z" fill="#F9ED32"/>
</g>
<path opacity="0.3" d="M4 7.8998V11.1998L13 14.8998L20 16.3998V16.2998L4.4 7.7998L4 7.8998Z" fill="url(#paint30_linear)"/>
<path opacity="0.3" d="M4 10.5998L14.3 13.1998L4.4 7.7998L4 7.8998V10.5998Z" fill="url(#paint31_linear)"/>
<path opacity="0.3" d="M10.3 19.9999L13 14.8999L6.5 19.9999H10.3Z" fill="url(#paint32_linear)"/>
<path opacity="0.3" d="M4 13.5999L4.3 12.3999L4 12.4999V13.5999Z" fill="#F7941D"/>
<path opacity="0.3" d="M4 12.5002L4.3 12.4002L4 13.6002V20.0002H6.5L13 14.9002L4 11.2002V12.5002Z" fill="url(#paint33_linear)"/>
<path opacity="0.3" d="M10.3 19.9999H17.7L20 16.5999V16.3999L13 14.8999L10.3 19.9999Z" fill="url(#paint34_linear)"/>
<g opacity="0.3">
<path opacity="0.3" d="M19 9.9L20 9.3V4H14.2L19 9.9Z" fill="url(#paint35_linear)"/>
</g>
</g>
<path d="M20 4H4V20H20V4Z" fill="url(#paint36_linear)"/>
<path d="M11.9742 16.9805H5.98706V17.9869H11.9742V16.9805Z" fill="white"/>
<path d="M12 6H13.3V10.9H16V12H12V6Z" fill="white"/>
<path d="M5.59998 8.9999C5.59998 7.2999 6.89998 5.8999 8.79998 5.8999C9.89998 5.8999 10.6 6.2999 11.2 6.7999L10.4 7.7999C9.79998 7.3999 9.29998 7.0999 8.69998 7.0999C7.69998 7.0999 6.99998 7.9999 6.99998 8.9999C6.99998 9.9999 7.69998 10.8999 8.79998 10.8999C9.49998 10.8999 9.89998 10.5999 10.4 10.1999L11.2 11.0999C10.5 11.6999 9.79998 12.0999 8.69998 12.0999C6.89998 12.0999 5.59998 10.7999 5.59998 8.9999Z" fill="white"/>
<defs>
<linearGradient id="paint0_linear" x1="8.62668" y1="4.6924" x2="15.5029" y2="4.6924" gradientUnits="userSpaceOnUse">
<stop  offset="0" stop-color="#FF318C"/>
<stop offset="0.149" stop-color="#FB348C"/>
<stop offset="0.2849" stop-color="#F03C8C"/>
<stop offset="0.4157" stop-color="#DE4A8C"/>
<stop offset="0.5434" stop-color="#C45D8B"/>
<stop offset="0.6689" stop-color="#A2778B"/>
<stop offset="0.7926" stop-color="#79958A"/>
<stop offset="0.9128" stop-color="#49B98A"/>
<stop offset="1" stop-color="#21D789"/>
</linearGradient>
<linearGradient id="paint1_linear" x1="7.80748" y1="6.8598" x2="17.3599" y2="3.1308" gradientUnits="userSpaceOnUse">
<stop offset="0.1069" stop-color="#FF318C"/>
<stop offset="0.2181" stop-color="#FB338C"/>
<stop offset="0.3194" stop-color="#F0388E"/>
<stop offset="0.4168" stop-color="#DE4190"/>
<stop offset="0.5114" stop-color="#C44E93"/>
<stop offset="0.6008" stop-color="#A45E97"/>
<stop offset="0.6375" stop-color="#976A96"/>
<stop offset="0.7051" stop-color="#758992"/>
<stop offset="0.7956" stop-color="#3FBC8C"/>
<stop offset="0.8402" stop-color="#21D789"/>
</linearGradient>
<linearGradient id="paint2_linear" x1="7.77775" y1="2.6433" x2="2.55495" y2="12.0266" gradientUnits="userSpaceOnUse">
<stop offset="0.0294109" stop-color="#00FF6A"/>
<stop offset="0.375" stop-color="#21D789"/>
<stop offset="0.9032" stop-color="#009AE5"/>
</linearGradient>
<linearGradient id="paint3_linear" x1="9.05365" y1="6.4263" x2="5.58005" y2="6.7327" gradientUnits="userSpaceOnUse">
<stop offset="0.0294109" stop-color="#A6FF9E"/>
<stop offset="0.6015" stop-color="#21D789" stop-opacity="0"/>
</linearGradient>
<linearGradient id="paint4_linear" x1="12.8612" y1="16.3641" x2="24.0049" y2="17.9485" gradientUnits="userSpaceOnUse">
<stop offset="0.3444" stop-color="#21D789"/>
<stop offset="0.8032" stop-color="#009AE5"/>
<stop offset="0.9931" stop-color="#0855FA"/>
</linearGradient>
<linearGradient id="paint5_linear" x1="13.4605" y1="16.2892" x2="22.0567" y2="11.5396" gradientUnits="userSpaceOnUse">
<stop offset="0.0962983" stop-color="#00FF6A"/>
<stop offset="0.9654" stop-color="#00FF6A" stop-opacity="0"/>
</linearGradient>
<linearGradient id="paint6_linear" x1="11.7584" y1="23.7465" x2="24.9008" y2="16.4849" gradientUnits="userSpaceOnUse">
<stop  offset="0" stop-color="#42FFFA" stop-opacity="0.5"/>
<stop offset="0.9989" stop-color="#00FF6A" stop-opacity="0"/>
</linearGradient>
<linearGradient id="paint7_linear" x1="15.3462" y1="18.1673" x2="10.7147" y2="17.35" gradientUnits="userSpaceOnUse">
<stop offset="0.0521494" stop-color="#00FF6A"/>
<stop offset="1" stop-color="#009AE5"/>
</linearGradient>
<linearGradient id="paint8_linear" x1="24.126" y1="19.2498" x2="9.20027" y2="17.8525" gradientUnits="userSpaceOnUse">
<stop offset="0.1212" stop-color="#21D789" stop-opacity="0"/>
<stop offset="0.7868" stop-color="#00FF6A"/>
</linearGradient>
<linearGradient id="paint9_linear" x1="15.8435" y1="17.1734" x2="12.7345" y2="19.692" gradientUnits="userSpaceOnUse">
<stop offset="0.0962983" stop-color="#42FFFA"/>
<stop offset="0.9654" stop-color="#42FFFA" stop-opacity="0"/>
</linearGradient>
<linearGradient id="paint10_linear" x1="6.7421" y1="3.9954" x2="-0.4183" y2="19.6181" gradientUnits="userSpaceOnUse">
<stop offset="0.0913979" stop-color="#00FF6A"/>
<stop offset="0.759" stop-color="#009AE5"/>
</linearGradient>
<linearGradient id="paint11_linear" x1="1.2615" y1="7.5781" x2="3.8497" y2="16.909" gradientUnits="userSpaceOnUse">
<stop offset="0.1163" stop-color="#21D789" stop-opacity="0.6"/>
<stop offset="1" stop-color="#009AE5"/>
</linearGradient>
<linearGradient id="paint12_linear" x1="22.0399" y1="2.3707" x2="-2.1039" y2="27.8701" gradientUnits="userSpaceOnUse">
<stop offset="0.0913979" stop-color="#21D789"/>
<stop offset="0.9032" stop-color="#009AE5"/>
</linearGradient>
<linearGradient id="paint13_linear" x1="12.2541" y1="22.9186" x2="7.69505" y2="13.0408" gradientUnits="userSpaceOnUse">
<stop offset="0.00994756" stop-color="#009AE5"/>
<stop offset="0.9654" stop-color="#009AE5" stop-opacity="0"/>
</linearGradient>
<linearGradient id="paint14_linear" x1="7.16869e-06" y1="17.9615" x2="8.4473" y2="17.9615" gradientUnits="userSpaceOnUse">
<stop offset="0.0556783" stop-color="#009AE5" stop-opacity="0.4"/>
<stop offset="0.7897" stop-color="#009AE5"/>
</linearGradient>
<linearGradient id="paint15_linear" x1="1.4475" y1="12.7993" x2="7.3731" y2="17.7713" gradientUnits="userSpaceOnUse">
<stop offset="0.1196" stop-color="#42FFFA"/>
<stop offset="0.6743" stop-color="#42FFFA" stop-opacity="0"/>
</linearGradient>
<linearGradient id="paint16_linear" x1="4.4769" y1="15.1495" x2="8.4473" y2="15.1495" gradientUnits="userSpaceOnUse">
<stop offset="0.0556783" stop-color="#009AE5" stop-opacity="0.4"/>
<stop offset="1" stop-color="#087CFA"/>
</linearGradient>
<linearGradient id="paint17_linear" x1="4.0694" y1="16.8208" x2="19.1846" y2="-1.7183" gradientUnits="userSpaceOnUse">
<stop  offset="0" stop-color="#0697DC"/>
<stop offset="0.9032" stop-color="#00FF6A"/>
</linearGradient>
<linearGradient id="paint18_linear" x1="13.2479" y1="11.6085" x2="10.4554" y2="9.463" gradientUnits="userSpaceOnUse">
<stop offset="0.0962983" stop-color="#6EFFA3"/>
<stop offset="0.6015" stop-color="#21D789" stop-opacity="0"/>
</linearGradient>
<linearGradient id="paint19_linear" x1="19.6944" y1="3.117" x2="15.8121" y2="1.21" gradientUnits="userSpaceOnUse">
<stop offset="0.0962983" stop-color="#6EFFA3"/>
<stop offset="0.9654" stop-color="#FCF84A" stop-opacity="0"/>
</linearGradient>
<linearGradient id="paint20_linear" x1="22.4162" y1="18.7631" x2="6.47852" y2="3.6428" gradientUnits="userSpaceOnUse">
<stop offset="0.5747" stop-color="#0CAFA3" stop-opacity="0.1365"/>
<stop offset="1" stop-color="#07C3F2" stop-opacity="0.88"/>
</linearGradient>
<linearGradient id="paint21_linear" x1="6.33868" y1="8.4317" x2="19.2749" y2="14.485" gradientUnits="userSpaceOnUse">
<stop offset="0.4862" stop-color="#087CFA" stop-opacity="0"/>
<stop offset="1" stop-color="#21D789"/>
</linearGradient>
<linearGradient id="paint22_linear" x1="11.1469" y1="13.1383" x2="8.8367" y2="11.2764" gradientUnits="userSpaceOnUse">
<stop offset="0.311" stop-color="#65FFC5" stop-opacity="0.88"/>
<stop offset="0.4437" stop-color="#56F2BE" stop-opacity="0.6801"/>
<stop offset="0.6983" stop-color="#2FD0AD" stop-opacity="0.2969"/>
<stop offset="0.8955" stop-color="#0CB29E" stop-opacity="0"/>
</linearGradient>
<linearGradient id="paint23_linear" x1="10.1138" y1="13.9478" x2="6.7083" y2="7.6136" gradientUnits="userSpaceOnUse">
<stop offset="0.0962983" stop-color="#42FFFA"/>
<stop offset="0.6336" stop-color="#42FFFA" stop-opacity="0"/>
</linearGradient>
<linearGradient id="paint24_linear" x1="25.6323" y1="6.2878" x2="18.3217" y2="2.6966" gradientUnits="userSpaceOnUse">
<stop offset="0.1514" stop-color="#00865B"/>
<stop offset="0.2496" stop-color="#048D64" stop-opacity="0.8794"/>
<stop offset="0.412" stop-color="#0EA07D" stop-opacity="0.6799"/>
<stop offset="0.6187" stop-color="#1FBFA6" stop-opacity="0.426"/>
<stop offset="0.8591" stop-color="#37EADF" stop-opacity="0.1306"/>
<stop offset="0.9654" stop-color="#42FFFA" stop-opacity="0"/>
</linearGradient>
<linearGradient id="paint25_linear" x1="21.9464" y1="1.2885" x2="7.54125" y2="11.0963" gradientUnits="userSpaceOnUse">
<stop offset="0.1446" stop-color="#FF67AA"/>
<stop offset="0.2328" stop-color="#FB69A9" stop-opacity="0.8603"/>
<stop offset="0.3132" stop-color="#F06FA6" stop-opacity="0.7328"/>
<stop offset="0.3907" stop-color="#DE7AA2" stop-opacity="0.6101"/>
<stop offset="0.4663" stop-color="#C48A9B" stop-opacity="0.4903"/>
<stop offset="0.5406" stop-color="#A29E93" stop-opacity="0.3725"/>
<stop offset="0.6139" stop-color="#79B788" stop-opacity="0.2564"/>
<stop offset="0.6864" stop-color="#48D47C" stop-opacity="0.1415"/>
<stop offset="0.7565" stop-color="#10F56E" stop-opacity="0.0303353"/>
<stop offset="0.7757" stop-color="#00FF6A" stop-opacity="0"/>
</linearGradient>
<linearGradient id="paint26_linear" x1="7.02808" y1="4.2703" x2="12.3917" y2="4.9344" gradientUnits="userSpaceOnUse">
<stop offset="0.2258" stop-color="#FF52A0"/>
<stop offset="0.4026" stop-color="#FF4E9E" stop-opacity="0.6404"/>
<stop offset="0.5635" stop-color="#FF4397" stop-opacity="0.3132"/>
<stop offset="0.7175" stop-color="#FF318C" stop-opacity="0"/>
</linearGradient>
<linearGradient id="paint27_linear" x1="3.7531" y1="5.2766" x2="20.1319" y2="18.6296" gradientUnits="userSpaceOnUse">
<stop  offset="0" stop-color="#521713"/>
<stop offset="0.080028" stop-color="#451310"/>
<stop offset="0.2989" stop-color="#270B09"/>
<stop offset="0.514" stop-color="#110504"/>
<stop offset="0.7218" stop-color="#040101"/>
<stop offset="0.9138"/>
</linearGradient>
<linearGradient id="paint28_linear" x1="4" y1="10.19" x2="20" y2="10.19" gradientUnits="userSpaceOnUse">
<stop offset="0.2464" stop-color="#FE2857"/>
<stop offset="0.292" stop-color="#FE265F"/>
<stop offset="0.3641" stop-color="#FE1F76"/>
<stop offset="0.4534" stop-color="#FF159B"/>
<stop offset="0.4574" stop-color="#FF149D"/>
<stop offset="0.536" stop-color="#EF1AB2"/>
<stop offset="0.6983" stop-color="#C82BE9"/>
<stop offset="0.7574" stop-color="#B831FF"/>
<stop offset="0.811" stop-color="#A33AFE"/>
<stop offset="0.9215" stop-color="#6C52FD"/>
<stop offset="1" stop-color="#4164FC"/>
</linearGradient>
<linearGradient id="paint29_linear" x1="4.32735" y1="10.1718" x2="20" y2="10.1718" gradientUnits="userSpaceOnUse">
<stop offset="0.1118" stop-color="#F7941D"/>
<stop offset="0.1374" stop-color="#F88C25"/>
<stop offset="0.178" stop-color="#F9753A"/>
<stop offset="0.2284" stop-color="#FB505D"/>
<stop offset="0.2863" stop-color="#FF1C8C"/>
<stop offset="0.2928" stop-color="#FF1692"/>
<stop offset="0.4031" stop-color="#EA1A93"/>
<stop offset="0.4677" stop-color="#DB1D93"/>
<stop offset="0.5543" stop-color="#9F2895"/>
<stop offset="0.7229" stop-color="#21409A"/>
<stop offset="0.8671" stop-color="#222F5C"/>
<stop offset="1" stop-color="#231F20"/>
</linearGradient>
<linearGradient id="paint30_linear" x1="4" y1="12.0953" x2="20" y2="12.0953" gradientUnits="userSpaceOnUse">
<stop offset="0.0878508" stop-color="#FE2857"/>
<stop offset="0.1283" stop-color="#FE265F"/>
<stop offset="0.1923" stop-color="#FE1F76"/>
<stop offset="0.2716" stop-color="#FF159B"/>
<stop offset="0.2751" stop-color="#FF149D"/>
<stop offset="0.4167" stop-color="#B21871"/>
<stop offset="0.5427" stop-color="#741B4E"/>
<stop offset="0.6489" stop-color="#481D35"/>
<stop offset="0.731" stop-color="#2D1E26"/>
<stop offset="0.7791" stop-color="#231F20"/>
</linearGradient>
<linearGradient id="paint31_linear" x1="5.5488" y1="9.8955" x2="11.8145" y2="13.3807" gradientUnits="userSpaceOnUse">
<stop offset="0.00629908" stop-color="#FF45ED"/>
<stop offset="0.1766" stop-color="#FF35D8"/>
<stop offset="0.3352" stop-color="#FF24C0"/>
<stop offset="0.451" stop-color="#EA24B0"/>
<stop offset="0.6916" stop-color="#B22388"/>
<stop offset="1" stop-color="#63214F"/>
</linearGradient>
<linearGradient id="paint32_linear" x1="6.5134" y1="17.4396" x2="13.0321" y2="17.4396" gradientUnits="userSpaceOnUse">
<stop offset="0.4574" stop-color="#FF149D"/>
<stop offset="0.536" stop-color="#EF1AB2"/>
<stop offset="0.6983" stop-color="#C82BE9"/>
<stop offset="0.7574" stop-color="#B831FF"/>
<stop offset="0.8388" stop-color="#A33AFE"/>
<stop offset="1" stop-color="#6E51FD"/>
</linearGradient>
<linearGradient id="paint33_linear" x1="4" y1="15.6221" x2="13.0321" y2="15.6221" gradientUnits="userSpaceOnUse">
<stop offset="0.00442798" stop-color="#FFDE17"/>
<stop offset="0.0386836" stop-color="#FECB12"/>
<stop offset="0.0790912" stop-color="#FDBB0E"/>
<stop offset="0.1111" stop-color="#FDB60D"/>
<stop offset="0.1673" stop-color="#FDAE0F"/>
<stop offset="0.2521" stop-color="#FC9A15"/>
<stop offset="0.3323" stop-color="#FC801D"/>
<stop offset="0.7374" stop-color="#BE1E2D"/>
</linearGradient>
<linearGradient id="paint34_linear" x1="10.3033" y1="17.4396" x2="20" y2="17.4396" gradientUnits="userSpaceOnUse">
<stop  offset="0" stop-color="#087CFA"/>
<stop offset="0.7942" stop-color="#231F20"/>
</linearGradient>
<linearGradient id="paint35_linear" x1="26.5288" y1="19.2317" x2="16.3332" y2="2.7214" gradientUnits="userSpaceOnUse">
<stop offset="0.3486" stop-color="#3595F3"/>
<stop offset="0.4019" stop-color="#3490EB"/>
<stop offset="0.4865" stop-color="#3284D4"/>
<stop offset="0.5918" stop-color="#2F6FAE"/>
<stop offset="0.7135" stop-color="#2B527B"/>
<stop offset="0.8476" stop-color="#252D39"/>
<stop offset="0.8951" stop-color="#231F20"/>
</linearGradient>
<linearGradient id="paint36_linear" x1="3.79876" y1="4.03858" x2="19.7081" y2="19.4828" gradientUnits="userSpaceOnUse">
<stop  offset="0" stop-color="#007859"/>
<stop offset="0.0882966" stop-color="#00533E"/>
<stop offset="0.1921" stop-color="#002F23"/>
<stop offset="0.2894" stop-color="#001510"/>
<stop offset="0.3766" stop-color="#000604"/>
<stop offset="0.4452"/>
<stop offset="0.9138"/>
</linearGradient>
</defs>
</svg>
