<svg width="80" height="80" viewBox="0 0 80 80" fill="none" xmlns="http://www.w3.org/2000/svg">
<path d="M28.8 31.3L30.5 0L48.7001 10.1L28.8 31.3Z" fill="url(#paint0_linear)"/>
<path d="M28.8 31.3001L29.8 11.9001L48.7001 10.1001L28.8 31.3001Z" fill="url(#paint1_linear)"/>
<path d="M28.8 31.3L29.8 12.1L30.5 0L7.4 14.6L0 58.8L28.8 31.3Z" fill="#00FF6A"/>
<path d="M28.7999 31.2999L29.7999 11.8999L7.3999 14.5999L15.4999 44.0999L28.7999 31.2999Z" fill="url(#paint2_linear)"/>
<path d="M28.7999 31.3L30.4999 0L7.3999 14.6L15.4999 44.1L28.7999 31.3Z" fill="url(#paint3_linear)"/>
<path d="M28.7 30.6001L27.2 59.3001L47.4 75.7001L67.4 80.0001L80 51.5001L28.7 30.6001Z" fill="url(#paint4_linear)"/>
<path d="M61.1999 50.5998L43.3999 39.6998L45.5999 37.2998L79.9999 51.4998L61.1999 50.5998Z" fill="url(#paint5_linear)"/>
<path d="M61.1999 50.6001L47.3999 75.7001L67.3999 80.0001L79.9999 51.5001L61.1999 50.6001Z" fill="url(#paint6_linear)"/>
<path d="M28 40.7002L27.2 59.3002L47.4 75.7002L28 40.7002Z" fill="url(#paint7_linear)"/>
<path d="M28.6001 42.2998L67.4001 79.9998L47.4001 75.6998L28.6001 42.2998Z" fill="url(#paint8_linear)"/>
<path d="M28.6001 42.2998L67.4001 79.9998L47.4001 75.6998L28.6001 42.2998Z" fill="url(#paint9_linear)"/>
<path d="M0 58.8001L28.8 31.3001L7.4 14.6001L0 58.8001Z" fill="url(#paint10_linear)"/>
<path d="M0 58.8001L21.1 37.6001L7.4 14.6001L0 58.8001Z" fill="url(#paint11_linear)"/>
<path d="M80 27.7001L68.1 3.1001L48.7 10.1001L0 58.8001L25.9 77.7001L80 27.7001Z" fill="url(#paint12_linear)"/>
<path d="M28.2 42.1001L27.2 59.3001L37.0999 67.3001L40.9 63.9001L28.2 42.1001Z" fill="url(#paint13_linear)"/>
<path d="M0 58.8L28.2 42L25.9 77.7L0 58.8Z" fill="url(#paint14_linear)"/>
<path d="M0 58.8L28.2 42L25.9 77.7L0 58.8Z" fill="url(#paint15_linear)"/>
<path d="M14.8999 49.9L28.1999 42L26.9999 59L14.8999 49.9Z" fill="url(#paint16_linear)"/>
<path d="M0 58.8001L28.1 42.1001L68.1 3.1001L48.7 10.1001L0 58.8001Z" fill="url(#paint17_linear)"/>
<path d="M0 58.8001L28.1 42.1001L68.1 3.1001L48.7 10.1001L0 58.8001Z" fill="url(#paint18_linear)"/>
<path d="M56.5 14.4001L68.0999 3.1001L48.7 10.1001L56.5 14.4001Z" fill="url(#paint19_linear)"/>
<path d="M79.6999 27.3001L37.2999 67.0001L21.3999 37.5001L48.6999 10.1001L79.6999 27.3001Z" fill="url(#paint20_linear)"/>
<path d="M61.9001 43.9998L28.6001 30.2998V30.4998L57.3001 48.1998L61.9001 43.9998Z" fill="url(#paint21_linear)"/>
<path d="M56.5 14.4001L28.2 42.1001L0 58.8001L21.4 37.5001L48.7 10.1001L56.5 14.4001Z" fill="url(#paint22_linear)"/>
<path d="M56.7 14.2001L28.2 42.1001L0 58.8001L21.4 37.5001L48.7 10.1001L56.7 14.2001Z" fill="url(#paint23_linear)"/>
<path d="M56.8 13.7001L68.1 3.1001L80 27.7001L56.8 13.7001Z" fill="url(#paint24_linear)"/>
<path d="M28.8 30.0001L41.9001 36.5001L48.7001 10.1001L28.8 30.0001Z" fill="url(#paint25_linear)"/>
<path d="M48.7001 10.1L30.5 0L28.8 30L48.7001 10.1Z" fill="url(#paint26_linear)"/>
<path d="M65 15H15V65H65V15Z" fill="url(#paint27_linear)"/>
<g opacity="0.3">
<path opacity="0.3" d="M65 45.3001L28.7 30.6001L27.2 59.3001L34.2 65.0001H65V45.3001Z" fill="url(#paint28_linear)"/>
<path opacity="0.3" d="M65 65.0001V50.8001L61.2001 50.6001L53.3 65.0001H65Z" fill="url(#paint29_linear)"/>
<path opacity="0.3" d="M15 15V42.1V45L28.8 31.3L29.7 15H15Z" fill="url(#paint30_linear)"/>
<path opacity="0.3" d="M15 42.1V44.4L28.8 31.3L15 20.5V42.1Z" fill="url(#paint31_linear)"/>
<path opacity="0.3" d="M29.7 15L28.8 30L43.8 15H29.7Z" fill="url(#paint32_linear)"/>
<path opacity="0.3" d="M65 41.6V15H43.8L15 43.8V65H39.7L65 41.6Z" fill="url(#paint33_linear)"/>
<path opacity="0.3" d="M15 43.8V50.1L28.1 42.1L55.9 15H43.8L15 43.8Z" fill="url(#paint34_linear)"/>
<path opacity="0.3" d="M15 65H26.7L28.2 42L15 49.9V65Z" fill="url(#paint35_linear)"/>
</g>
<path d="M39.9 55.6001H21.2V58.7001H39.9V55.6001Z" fill="white"/>
<path d="M40.4001 21.1997H44.5001V36.4997H52.7001V39.9997H40.4001V21.1997Z" fill="white"/>
<path d="M20.3 30.6999C20.3 25.2999 24.4 20.8999 30.2 20.8999C33.8 20.8999 35.9 22.0999 37.7 23.7999L35.1 26.8999C33.6 25.5999 32.2 24.7999 30.3 24.7999C27.1 24.7999 24.8 27.3999 24.8 30.6999V30.7999C24.8 33.9999 27 36.6999 30.3 36.6999C32.5 36.6999 33.8 35.7999 35.3 34.4999L37.9 37.1999C36 39.2999 33.8 40.5999 30.1 40.5999C24.4 40.3999 20.3 36.1999 20.3 30.6999Z" fill="white"/>
<defs>
<linearGradient id="paint0_linear" x1="28.7556" y1="15.6412" x2="51.6765" y2="15.6412" gradientUnits="userSpaceOnUse">
<stop stop-color="#FF318C"/>
<stop offset="0.149" stop-color="#FB348C"/>
<stop offset="0.2849" stop-color="#F03C8C"/>
<stop offset="0.4157" stop-color="#DE4A8C"/>
<stop offset="0.5434" stop-color="#C45D8B"/>
<stop offset="0.6689" stop-color="#A2778B"/>
<stop offset="0.7926" stop-color="#79958A"/>
<stop offset="0.9128" stop-color="#49B98A"/>
<stop offset="1" stop-color="#21D789"/>
</linearGradient>
<linearGradient id="paint1_linear" x1="26.0251" y1="22.8662" x2="57.8663" y2="10.4363" gradientUnits="userSpaceOnUse">
<stop offset="0.1069" stop-color="#FF318C"/>
<stop offset="0.2181" stop-color="#FB338C"/>
<stop offset="0.3194" stop-color="#F0388E"/>
<stop offset="0.4168" stop-color="#DE4190"/>
<stop offset="0.5114" stop-color="#C44E93"/>
<stop offset="0.6008" stop-color="#A45E97"/>
<stop offset="0.6375" stop-color="#976A96"/>
<stop offset="0.7051" stop-color="#758992"/>
<stop offset="0.7956" stop-color="#3FBC8C"/>
<stop offset="0.8402" stop-color="#21D789"/>
</linearGradient>
<linearGradient id="paint2_linear" x1="25.9259" y1="8.8107" x2="8.5167" y2="40.0882" gradientUnits="userSpaceOnUse">
<stop offset="0.0294109" stop-color="#00FF6A"/>
<stop offset="0.375" stop-color="#21D789"/>
<stop offset="0.9032" stop-color="#009AE5"/>
</linearGradient>
<linearGradient id="paint3_linear" x1="30.1788" y1="21.4209" x2="18.6001" y2="22.4425" gradientUnits="userSpaceOnUse">
<stop offset="0.0294109" stop-color="#A6FF9E"/>
<stop offset="0.6015" stop-color="#21D789" stop-opacity="0"/>
</linearGradient>
<linearGradient id="paint4_linear" x1="42.8705" y1="54.5465" x2="80.0164" y2="59.8279" gradientUnits="userSpaceOnUse">
<stop offset="0.3444" stop-color="#21D789"/>
<stop offset="0.8032" stop-color="#009AE5"/>
<stop offset="0.9931" stop-color="#0855FA"/>
</linearGradient>
<linearGradient id="paint5_linear" x1="44.8681" y1="54.2966" x2="73.5223" y2="38.4644" gradientUnits="userSpaceOnUse">
<stop offset="0.0962983" stop-color="#00FF6A"/>
<stop offset="0.9654" stop-color="#00FF6A" stop-opacity="0"/>
</linearGradient>
<linearGradient id="paint6_linear" x1="39.1946" y1="79.1543" x2="83.0026" y2="54.9491" gradientUnits="userSpaceOnUse">
<stop stop-color="#42FFFA" stop-opacity="0.5"/>
<stop offset="0.9989" stop-color="#00FF6A" stop-opacity="0"/>
</linearGradient>
<linearGradient id="paint7_linear" x1="51.1539" y1="60.5572" x2="35.7157" y2="57.8328" gradientUnits="userSpaceOnUse">
<stop offset="0.0521494" stop-color="#00FF6A"/>
<stop offset="1" stop-color="#009AE5"/>
</linearGradient>
<linearGradient id="paint8_linear" x1="80.4203" y1="64.1653" x2="30.6676" y2="59.5076" gradientUnits="userSpaceOnUse">
<stop offset="0.1212" stop-color="#21D789" stop-opacity="0"/>
<stop offset="0.7868" stop-color="#00FF6A"/>
</linearGradient>
<linearGradient id="paint9_linear" x1="52.8117" y1="57.2437" x2="42.4485" y2="65.6392" gradientUnits="userSpaceOnUse">
<stop offset="0.0962983" stop-color="#42FFFA"/>
<stop offset="0.9654" stop-color="#42FFFA" stop-opacity="0"/>
</linearGradient>
<linearGradient id="paint10_linear" x1="22.4736" y1="13.3184" x2="-1.3943" y2="65.394" gradientUnits="userSpaceOnUse">
<stop offset="0.0913979" stop-color="#00FF6A"/>
<stop offset="0.759" stop-color="#009AE5"/>
</linearGradient>
<linearGradient id="paint11_linear" x1="4.205" y1="25.2606" x2="12.8322" y2="56.3639" gradientUnits="userSpaceOnUse">
<stop offset="0.1163" stop-color="#21D789" stop-opacity="0.6"/>
<stop offset="1" stop-color="#009AE5"/>
</linearGradient>
<linearGradient id="paint12_linear" x1="73.4662" y1="7.9029" x2="-7.0129" y2="92.9008" gradientUnits="userSpaceOnUse">
<stop offset="0.0913979" stop-color="#21D789"/>
<stop offset="0.9032" stop-color="#009AE5"/>
</linearGradient>
<linearGradient id="paint13_linear" x1="40.8469" y1="76.395" x2="25.6503" y2="43.4692" gradientUnits="userSpaceOnUse">
<stop offset="0.00994756" stop-color="#009AE5"/>
<stop offset="0.9654" stop-color="#009AE5" stop-opacity="0"/>
</linearGradient>
<linearGradient id="paint14_linear" x1="2.38956e-05" y1="59.8714" x2="28.1575" y2="59.8714" gradientUnits="userSpaceOnUse">
<stop offset="0.0556783" stop-color="#009AE5" stop-opacity="0.4"/>
<stop offset="0.7897" stop-color="#009AE5"/>
</linearGradient>
<linearGradient id="paint15_linear" x1="4.8251" y1="42.6639" x2="24.5769" y2="59.2373" gradientUnits="userSpaceOnUse">
<stop offset="0.1196" stop-color="#42FFFA"/>
<stop offset="0.6743" stop-color="#42FFFA" stop-opacity="0"/>
</linearGradient>
<linearGradient id="paint16_linear" x1="14.9229" y1="50.4982" x2="28.1574" y2="50.4982" gradientUnits="userSpaceOnUse">
<stop offset="0.0556783" stop-color="#009AE5" stop-opacity="0.4"/>
<stop offset="1" stop-color="#087CFA"/>
</linearGradient>
<linearGradient id="paint17_linear" x1="13.5645" y1="56.0698" x2="63.9487" y2="-5.7273" gradientUnits="userSpaceOnUse">
<stop stop-color="#0697DC"/>
<stop offset="0.9032" stop-color="#00FF6A"/>
</linearGradient>
<linearGradient id="paint18_linear" x1="44.1598" y1="38.6953" x2="34.8515" y2="31.5438" gradientUnits="userSpaceOnUse">
<stop offset="0.0962983" stop-color="#6EFFA3"/>
<stop offset="0.6015" stop-color="#21D789" stop-opacity="0"/>
</linearGradient>
<linearGradient id="paint19_linear" x1="65.6477" y1="10.3906" x2="52.707" y2="4.0337" gradientUnits="userSpaceOnUse">
<stop offset="0.0962983" stop-color="#6EFFA3"/>
<stop offset="0.9654" stop-color="#FCF84A" stop-opacity="0"/>
</linearGradient>
<linearGradient id="paint20_linear" x1="74.7205" y1="62.5438" x2="21.595" y2="12.1428" gradientUnits="userSpaceOnUse">
<stop offset="0.5747" stop-color="#0CAFA3" stop-opacity="0.1365"/>
<stop offset="1" stop-color="#07C3F2" stop-opacity="0.88"/>
</linearGradient>
<linearGradient id="paint21_linear" x1="21.129" y1="28.1051" x2="64.2496" y2="48.2827" gradientUnits="userSpaceOnUse">
<stop offset="0.4862" stop-color="#087CFA" stop-opacity="0"/>
<stop offset="1" stop-color="#21D789"/>
</linearGradient>
<linearGradient id="paint22_linear" x1="37.1562" y1="43.7946" x2="29.4557" y2="37.5881" gradientUnits="userSpaceOnUse">
<stop offset="0.311" stop-color="#65FFC5" stop-opacity="0.88"/>
<stop offset="0.4437" stop-color="#56F2BE" stop-opacity="0.6801"/>
<stop offset="0.6983" stop-color="#2FD0AD" stop-opacity="0.2969"/>
<stop offset="0.8955" stop-color="#0CB29E" stop-opacity="0"/>
</linearGradient>
<linearGradient id="paint23_linear" x1="33.7127" y1="46.4927" x2="22.3611" y2="25.3788" gradientUnits="userSpaceOnUse">
<stop offset="0.0962983" stop-color="#42FFFA"/>
<stop offset="0.6336" stop-color="#42FFFA" stop-opacity="0"/>
</linearGradient>
<linearGradient id="paint24_linear" x1="85.4411" y1="20.9596" x2="61.0723" y2="8.989" gradientUnits="userSpaceOnUse">
<stop offset="0.1514" stop-color="#00865B"/>
<stop offset="0.2496" stop-color="#048D64" stop-opacity="0.8794"/>
<stop offset="0.412" stop-color="#0EA07D" stop-opacity="0.6799"/>
<stop offset="0.6187" stop-color="#1FBFA6" stop-opacity="0.426"/>
<stop offset="0.8591" stop-color="#37EADF" stop-opacity="0.1306"/>
<stop offset="0.9654" stop-color="#42FFFA" stop-opacity="0"/>
</linearGradient>
<linearGradient id="paint25_linear" x1="73.1549" y1="4.2951" x2="25.1377" y2="36.9876" gradientUnits="userSpaceOnUse">
<stop offset="0.1446" stop-color="#FF67AA"/>
<stop offset="0.2328" stop-color="#FB69A9" stop-opacity="0.8603"/>
<stop offset="0.3132" stop-color="#F06FA6" stop-opacity="0.7328"/>
<stop offset="0.3907" stop-color="#DE7AA2" stop-opacity="0.6101"/>
<stop offset="0.4663" stop-color="#C48A9B" stop-opacity="0.4903"/>
<stop offset="0.5406" stop-color="#A29E93" stop-opacity="0.3725"/>
<stop offset="0.6139" stop-color="#79B788" stop-opacity="0.2564"/>
<stop offset="0.6864" stop-color="#48D47C" stop-opacity="0.1415"/>
<stop offset="0.7565" stop-color="#10F56E" stop-opacity="0.0303353"/>
<stop offset="0.7757" stop-color="#00FF6A" stop-opacity="0"/>
</linearGradient>
<linearGradient id="paint26_linear" x1="23.4269" y1="14.2344" x2="41.3056" y2="16.4479" gradientUnits="userSpaceOnUse">
<stop offset="0.2258" stop-color="#FF52A0"/>
<stop offset="0.4026" stop-color="#FF4E9E" stop-opacity="0.6404"/>
<stop offset="0.5635" stop-color="#FF4397" stop-opacity="0.3132"/>
<stop offset="0.7175" stop-color="#FF318C" stop-opacity="0"/>
</linearGradient>
<linearGradient id="paint27_linear" x1="14.3711" y1="15.1206" x2="64.0878" y2="63.3836" gradientUnits="userSpaceOnUse">
<stop stop-color="#007859"/>
<stop offset="0.0882966" stop-color="#00533E"/>
<stop offset="0.1921" stop-color="#002F23"/>
<stop offset="0.2894" stop-color="#001510"/>
<stop offset="0.3766" stop-color="#000604"/>
<stop offset="0.4452"/>
<stop offset="0.9138"/>
</linearGradient>
<linearGradient id="paint28_linear" x1="39.4435" y1="48.916" x2="67.6321" y2="52.9239" gradientUnits="userSpaceOnUse">
<stop offset="0.0207811" stop-color="#00A466"/>
<stop offset="0.9931" stop-color="#083737"/>
</linearGradient>
<linearGradient id="paint29_linear" x1="53.2565" y1="57.794" x2="65" y2="57.794" gradientUnits="userSpaceOnUse">
<stop offset="0.1545" stop-color="#003127"/>
<stop offset="0.9931" stop-color="#0855FA"/>
</linearGradient>
<linearGradient id="paint30_linear" x1="29.3108" y1="28.7224" x2="21.1185" y2="29.4452" gradientUnits="userSpaceOnUse">
<stop offset="0.0962983" stop-color="#6EFFA3"/>
<stop offset="0.9654" stop-color="#FCF84A"/>
</linearGradient>
<linearGradient id="paint31_linear" x1="24.2708" y1="20.6765" x2="12.3065" y2="46.7802" gradientUnits="userSpaceOnUse">
<stop offset="0.0913979" stop-color="#00FF6A"/>
<stop offset="0.759" stop-color="#009AE5"/>
</linearGradient>
<linearGradient id="paint32_linear" x1="32.0273" y1="13.6715" x2="40.7065" y2="31.5919" gradientUnits="userSpaceOnUse">
<stop offset="0.3369" stop-color="#FF52A0"/>
<stop offset="0.493" stop-color="#FF489A"/>
<stop offset="0.7175" stop-color="#FF318C"/>
</linearGradient>
<linearGradient id="paint33_linear" x1="45.2017" y1="12.1879" x2="35.8803" y2="66.8311" gradientUnits="userSpaceOnUse">
<stop stop-color="#21D789"/>
<stop offset="1" stop-color="#090C1B"/>
</linearGradient>
<linearGradient id="paint34_linear" x1="41.2365" y1="16.6751" x2="26.7319" y2="48.5771" gradientUnits="userSpaceOnUse">
<stop offset="0.0962983" stop-color="#6EFFA3"/>
<stop offset="0.9654" stop-color="#218F59"/>
</linearGradient>
<linearGradient id="paint35_linear" x1="12.9329" y1="46.2667" x2="24.4742" y2="55.9509" gradientUnits="userSpaceOnUse">
<stop offset="0.1545" stop-color="#001A18"/>
<stop offset="0.9931" stop-color="#0855FA"/>
</linearGradient>
</defs>
</svg>
