<svg width="24" height="24" viewBox="0 0 24 24" fill="none" xmlns="http://www.w3.org/2000/svg">
<g clip-path="url(#clip0_4407_11024)">
<path d="M0 1.52727V14.2654C0 14.8763 0.364145 15.4285 0.925527 15.6692L14.9845 21.6947C15.1745 21.7761 15.3794 21.8182 15.5863 21.8182H22.4727C23.3162 21.8182 24 21.1344 24 20.2909V13.5537C24 13.2519 23.9105 12.9569 23.743 12.7058L15.7169 0.680073C15.4335 0.255491 14.957 0.000654545 14.4467 0.000654545L1.52727 0C0.683782 0 0 0.683782 0 1.52727Z" fill="url(#paint0_linear_4407_11024)"/>
<path d="M2.18164 18.5555V22.4729C2.18164 23.3164 2.86542 24.0002 3.70891 24.0002H8.61866C8.69088 24.0002 8.76309 23.995 8.83466 23.9849L22.6885 22.006C23.4411 21.8984 23.9998 21.2542 23.9998 20.494V14.6166C23.9998 13.7729 23.3158 13.0891 22.4721 13.0894L15.5202 13.0911C15.3561 13.0911 15.1931 13.1175 15.0376 13.1694L3.22586 17.1067C2.6023 17.3147 2.18164 17.8983 2.18164 18.5557V18.5555Z" fill="url(#paint1_linear_4407_11024)"/>
<path d="M2.18164 18.0197L2.1823 22.473C2.1823 23.3165 2.86608 24 3.70957 24H8.02455C8.47029 24 8.894 23.8052 9.18418 23.4668L21.4504 9.15626C21.6875 8.87939 21.818 8.5268 21.818 8.16222V3.70891C21.818 2.86542 21.1342 2.18164 20.2907 2.18164H15.9751C15.5293 2.18164 15.1056 2.37648 14.8155 2.71488L2.5495 17.0254C2.31211 17.3023 2.18186 17.6549 2.18186 18.0197H2.18164Z" fill="#00D886"/>
<path d="M20 4H4V20H20V4Z" fill="black"/>
<path d="M7.34654 11.7758C7.67043 11.9607 8.02129 12.0773 8.39569 12.1339L8.39614 12.2078C8.39614 12.4585 8.44734 12.6773 8.54974 12.8585C8.65489 13.0453 8.80437 13.1893 8.99774 13.2853C9.19409 13.3865 9.42152 13.44 9.68049 13.44H10.6405V12.576H9.91089C9.81992 12.576 9.74312 12.5602 9.68049 12.528C9.61786 12.496 9.56963 12.448 9.53534 12.384C9.50129 12.32 9.48414 12.2453 9.48414 12.1547V12.1209C9.83249 12.0603 10.1598 11.9493 10.4613 11.776C10.9278 11.504 11.2933 11.136 11.5577 10.6667C11.8222 10.192 11.9545 9.66926 11.9545 9.088C11.9545 8.50674 11.8222 7.984 11.5577 7.51451C11.2933 7.04 10.9276 6.672 10.4613 6.40526C9.99752 6.13326 9.47843 6 8.90403 6C8.32963 6 7.81329 6.13326 7.34677 6.40526C6.88323 6.672 6.51774 7.04 6.25032 7.51451C5.98586 7.984 5.85352 8.50651 5.85352 9.088C5.85352 9.66949 5.98586 10.192 6.25032 10.6667C6.51774 11.136 6.88323 11.504 7.34677 11.776L7.34654 11.7758ZM7.28689 8.03177C7.44894 7.71177 7.67089 7.46651 7.95249 7.29029C8.23683 7.11429 8.55546 7.02354 8.90814 7.02354C9.26083 7.02354 9.57809 7.11406 9.85969 7.29029C10.1413 7.46629 10.3616 7.71154 10.5209 8.03177C10.6803 8.34103 10.7598 8.69303 10.7598 9.08777C10.7598 9.48251 10.68 9.83429 10.5209 10.149C10.3616 10.4635 10.1413 10.709 9.85969 10.8903C9.57809 11.0663 9.26083 11.1515 8.90814 11.1515C8.55546 11.1515 8.23683 11.0663 7.95249 10.8903C7.67089 10.7088 7.44894 10.4635 7.28689 10.149C7.12757 9.83429 7.04803 9.48229 7.04803 9.08777C7.04803 8.69326 7.12757 8.34103 7.28689 8.03177Z" fill="white"/>
<path d="M15.484 6.10107H14.2211L12.0664 12.0743H13.2653L13.7176 10.6878H16.0429L16.5249 12.0743H17.6982L15.4838 6.10107H15.484ZM13.9949 9.78656L14.7544 7.5093L14.8397 7.13056L14.9293 7.5093L15.7357 9.78656H13.9949Z" fill="white"/>
<path d="M12 17H6V18H12V17Z" fill="white"/>
<rect x="-0.000976562" y="16" width="24" height="8" rx="1.5" fill="#3BEA62"/>
<g opacity="0.9">
<path d="M1.12305 21.9164H1.81627V20.7617H2.34294C3.04967 20.7617 3.61685 20.2999 3.61685 19.4092V19.3982C3.61685 18.612 3.1622 18.0676 2.41046 18.0676H1.12305V21.9164ZM1.81627 20.0085V18.8319H2.35194C2.69855 18.8319 2.91462 19.0353 2.91462 19.4147V19.4257C2.91462 19.7556 2.71206 20.0085 2.36545 20.0085H1.81627Z" fill="#010101"/>
<path d="M4.12987 21.9164H4.82309V20.6848H5.36777L6.04298 21.9164H6.85324L6.0835 20.5418C6.48413 20.3604 6.75871 19.97 6.75871 19.3487V19.3377C6.75871 18.9748 6.66418 18.6724 6.48863 18.458C6.28156 18.2051 5.97096 18.0676 5.57033 18.0676H4.12987V21.9164ZM4.82309 19.937V18.8319H5.51181C5.84942 18.8319 6.05649 19.0188 6.05649 19.3817V19.3927C6.05649 19.7171 5.86293 19.937 5.52532 19.937H4.82309Z" fill="#010101"/>
<path d="M7.38287 21.9164H9.78214V21.1631H8.07159V20.3549H9.55707V19.6016H8.07159V18.8209H9.75963V18.0676H7.38287V21.9164Z" fill="#010101"/>
<path d="M11.4023 21.9438H12.0145L13.2884 18.0676H12.5412L11.7174 20.7782L10.8936 18.0676H10.1284L11.4023 21.9438Z" fill="#010101"/>
<path d="M13.8061 21.9164H14.4993V18.0676H13.8061V21.9164Z" fill="#010101"/>
<path d="M15.2868 21.9164H17.686V21.1631H15.9755V20.3549H17.461V19.6016H15.9755V18.8209H17.6635V18.0676H15.2868V21.9164Z" fill="#010101"/>
<path d="M19.1352 21.9438H19.7383L20.4496 19.4257L21.1608 21.9438H21.764L22.8398 18.0676H22.1151L21.4624 20.6738L20.7557 18.0566H20.1615L19.4548 20.6738L18.802 18.0676H18.0593L19.1352 21.9438Z" fill="#010101"/>
</g>
</g>
<defs>
<linearGradient id="paint0_linear_4407_11024" x1="22.507" y1="22.4166" x2="0.492437" y2="0.402326" gradientUnits="userSpaceOnUse">
<stop offset="0.25" stop-color="#7256FF"/>
<stop offset="0.73" stop-color="#007DFE"/>
</linearGradient>
<linearGradient id="paint1_linear_4407_11024" x1="2.858" y1="24.2692" x2="23.2728" y2="14.804" gradientUnits="userSpaceOnUse">
<stop offset="0.3" stop-color="#00D886"/>
<stop offset="0.54" stop-color="#7256FF"/>
</linearGradient>
<clipPath id="clip0_4407_11024">
<rect width="24" height="24" fill="white"/>
</clipPath>
</defs>
</svg>
