<svg width="48" height="48" viewBox="0 0 48 48" fill="none" xmlns="http://www.w3.org/2000/svg">
<g clip-path="url(#clip0_4407_11026)">
<path d="M0 3.05454V28.5308C0 29.7526 0.728291 30.857 1.85105 31.3383L29.969 43.3894C30.3491 43.5521 30.7588 43.6364 31.1725 43.6364H44.9454C46.6324 43.6364 48 42.2688 48 40.5818V27.1073C48 26.5038 47.8211 25.9139 47.4859 25.4116L31.4339 1.36015C30.867 0.510982 29.914 0.00130909 28.8934 0.00130909L3.05454 0C1.36756 0 0 1.36756 0 3.05454Z" fill="url(#paint0_linear_4407_11026)"/>
<path d="M4.36328 37.1104V44.9453C4.36328 46.6323 5.73084 47.9999 7.41783 47.9999H17.2373C17.3818 47.9999 17.5262 47.9894 17.6693 47.9693L45.3771 44.0115C46.8821 43.7964 47.9996 42.5078 47.9996 40.9875V29.2328C47.9996 27.5453 46.6316 26.1778 44.9442 26.1782L31.0404 26.1817C30.7122 26.1817 30.3863 26.2345 30.0751 26.3384L6.45172 34.213C5.20459 34.6288 4.36328 35.7961 4.36328 37.1109V37.1104Z" fill="url(#paint1_linear_4407_11026)"/>
<path d="M4.36328 36.0393L4.36459 44.946C4.36459 46.6329 5.73215 48.0001 7.41913 48.0001H16.0491C16.9406 48.0001 17.788 47.6104 18.3684 46.9336L42.9007 18.3125C43.3751 17.7588 43.636 17.0536 43.636 16.3244V7.41783C43.636 5.73084 42.2684 4.36328 40.5815 4.36328H31.9502C31.0587 4.36328 30.2113 4.75295 29.6309 5.42975L5.09899 34.0508C4.62423 34.6046 4.36372 35.3097 4.36372 36.0393H4.36328Z" fill="#00D886"/>
<path d="M39 9H9V39H39V9Z" fill="black"/>
<path d="M25 33H13V35.0001H25V33Z" fill="white"/>
<path d="M15.2256 23.4452C15.822 23.7857 16.468 24.0003 17.1573 24.1047L17.1582 24.2406C17.1582 24.7023 17.2524 25.105 17.441 25.4388C17.6346 25.7826 17.9098 26.0478 18.2659 26.2245C18.6274 26.411 19.0461 26.5094 19.523 26.5094H21.2906V24.9186H19.9472C19.7797 24.9186 19.6383 24.8896 19.523 24.8302C19.4077 24.7713 19.3189 24.6829 19.2557 24.5651C19.193 24.4472 19.1615 24.3096 19.1615 24.143V24.0807C19.8028 23.9692 20.4055 23.7646 20.9606 23.4456C21.8196 22.9448 22.4925 22.2672 22.9795 21.4032C23.4664 20.5291 23.7101 19.5666 23.7101 18.4963C23.7101 17.4261 23.4664 16.4636 22.9795 15.5991C22.4925 14.7254 21.8192 14.0479 20.9606 13.5567C20.1067 13.0559 19.1509 12.8105 18.0933 12.8105C17.0357 12.8105 16.085 13.0559 15.226 13.5567C14.3725 14.0479 13.6996 14.7254 13.2072 15.5991C12.7202 16.4636 12.4766 17.4257 12.4766 18.4963C12.4766 19.567 12.7202 20.5291 13.2072 21.4032C13.6996 22.2672 14.3725 22.9448 15.226 23.4456L15.2256 23.4452ZM15.1158 16.5515C15.4141 15.9623 15.8228 15.5108 16.3413 15.1863C16.8648 14.8622 17.4515 14.6951 18.1009 14.6951C18.7503 14.6951 19.3344 14.8618 19.8529 15.1863C20.3714 15.5103 20.7771 15.9619 21.0705 16.5515C21.3638 17.121 21.5103 17.7691 21.5103 18.4959C21.5103 19.2227 21.3634 19.8704 21.0705 20.4499C20.7771 21.029 20.3714 21.481 19.8529 21.8148C19.3344 22.1388 18.7503 22.2958 18.1009 22.2958C17.4515 22.2958 16.8648 22.1388 16.3413 21.8148C15.8228 21.4806 15.4141 21.029 15.1158 20.4499C14.8224 19.8704 14.676 19.2223 14.676 18.4959C14.676 17.7695 14.8224 17.121 15.1158 16.5515Z" fill="white"/>
<path d="M30.2087 12.9966H27.8834L23.916 23.9948H26.1234L26.9563 21.4419H31.2377L32.1253 23.9948H34.2855L30.2083 12.9966H30.2087ZM27.4668 19.7825L28.8653 15.5895L29.0223 14.8921L29.1873 15.5895L30.672 19.7825H27.4668Z" fill="white"/>
<rect y="33" width="48" height="15.0001" rx="4" fill="#3BEA62"/>
<g opacity="0.9">
<path d="M4.11914 43.4576H5.4035V41.6754H6.37929C7.68867 41.6754 8.73952 40.9626 8.73952 39.5877V39.5707C8.73952 38.3572 7.89717 37.517 6.50439 37.517H4.11914V43.4576ZM5.4035 40.5128V38.6966H6.39597C7.03815 38.6966 7.43847 39.0106 7.43847 39.5962V39.6132C7.43847 40.1224 7.06317 40.5128 6.42099 40.5128H5.4035Z" fill="#010101"/>
<path d="M9.69002 43.4576H10.9744V41.5566H11.9835L13.2345 43.4576H14.7357L13.3096 41.336C14.0519 41.0559 14.5606 40.4534 14.5606 39.4944V39.4774C14.5606 38.9173 14.3855 38.4505 14.0602 38.1195C13.6766 37.7291 13.1011 37.517 12.3588 37.517H9.69002V43.4576ZM10.9744 40.4024V38.6966H12.2504C12.8759 38.6966 13.2596 38.9852 13.2596 39.5453V39.5623C13.2596 40.063 12.9009 40.4024 12.2754 40.4024H10.9744Z" fill="#010101"/>
<path d="M15.717 43.4576H20.1622V42.295H16.993V41.0474H19.7452V39.8847H16.993V38.6796H20.1205V37.517H15.717V43.4576Z" fill="#010101"/>
<path d="M23.164 43.5001H24.2982L26.6585 37.517H25.274L23.7478 41.7009L22.2216 37.517H20.8038L23.164 43.5001Z" fill="#010101"/>
<path d="M27.6176 43.4576H28.9019V37.517H27.6176V43.4576Z" fill="#010101"/>
<path d="M30.3609 43.4576H34.8061V42.295H31.6369V41.0474H34.3891V39.8847H31.6369V38.6796H34.7644V37.517H30.3609V43.4576Z" fill="#010101"/>
<path d="M37.491 43.5001H38.6085L39.9263 39.6132L41.244 43.5001H42.3616L44.3548 37.517H43.0121L41.8028 41.5396L40.4934 37.5H39.3925L38.0831 41.5396L36.8738 37.517H35.4977L37.491 43.5001Z" fill="#010101"/>
</g>
</g>
<defs>
<linearGradient id="paint0_linear_4407_11026" x1="45.014" y1="44.8333" x2="0.984874" y2="0.804652" gradientUnits="userSpaceOnUse">
<stop offset="0.25" stop-color="#7256FF"/>
<stop offset="0.73" stop-color="#007DFE"/>
</linearGradient>
<linearGradient id="paint1_linear_4407_11026" x1="5.71601" y1="48.5379" x2="46.5457" y2="29.6076" gradientUnits="userSpaceOnUse">
<stop offset="0.3" stop-color="#00D886"/>
<stop offset="0.54" stop-color="#7256FF"/>
</linearGradient>
<clipPath id="clip0_4407_11026">
<rect width="48" height="48" fill="white"/>
</clipPath>
</defs>
</svg>
