<svg width="16" height="16" viewBox="0 0 16 16" fill="none" xmlns="http://www.w3.org/2000/svg">
  <path fill-rule="evenodd" clip-rule="evenodd"
        d="M3.83333 1.3725C5.03815 1.11121 6.26795 0.986645 7.5 1.00113C8.73205 0.986645 9.96189 1.11121 11.1667 1.3725C11.6296 1.4608 12.0677 1.65096 12.45 1.92954C12.4778 1.95765 12.5139 1.98576 12.5534 2.01645C12.6443 2.08712 12.7528 2.17145 12.8167 2.30091C12.9317 2.42779 12.9969 2.5929 13 2.76511V7.64349C12.8261 7.52789 12.6422 7.42602 12.45 7.3394V6.75727C12.2516 6.90183 12.0382 7.02259 11.8141 7.11765C11.5102 7.04082 11.1919 7 10.8641 7C10.0669 7 9.32605 7.24142 8.71073 7.65515C8.30793 7.68023 7.90408 7.69043 7.5 7.68568C6.26637 7.7464 5.03066 7.62124 3.83333 7.31432C3.38761 7.21618 2.95627 7.06015 2.55 6.85011V9.0783C2.55 9.17114 2.64167 9.35682 2.91667 9.44966C3.22539 9.6593 3.56604 9.8161 3.925 9.91387C4.95006 10.142 5.99465 10.2659 7.04325 10.284C7.01477 10.4732 7 10.6669 7 10.8641C7 12.1407 7.61908 13.2727 8.5734 13.9763C8.21616 13.9955 7.85817 14.0031 7.5 13.9989C6.26795 14.0134 5.03815 13.8888 3.83333 13.6275C3.37045 13.5392 2.93236 13.3491 2.55 13.0705C2.52225 13.0423 2.48609 13.0142 2.44661 12.9836C2.35572 12.9129 2.24725 12.8286 2.18333 12.6991C2.08166 12.5298 2.01898 12.3393 2 12.142V2.76511C2.00313 2.5929 2.06833 2.42779 2.18333 2.30091C2.24725 2.17144 2.35572 2.08711 2.44662 2.01645C2.48609 1.98576 2.52225 1.95765 2.55 1.92954C2.93236 1.65096 3.37045 1.4608 3.83333 1.3725ZM13 8.95594V12.142C12.981 12.3393 12.9183 12.5298 12.8167 12.6991C12.7446 12.865 12.6138 12.9975 12.45 13.0705C12.0677 13.3491 11.6296 13.5392 11.1667 13.6275C11.0089 13.6617 10.8507 13.6936 10.6922 13.7231C9.19041 13.6342 8 12.3882 8 10.8641C8 10.6646 8.02039 10.4699 8.05921 10.2819C8.39481 10.2739 8.72994 10.2551 9.06411 10.2255C8.99326 10.4251 8.9547 10.6401 8.9547 10.8641C8.9547 11.9186 9.80956 12.7735 10.8641 12.7735C11.2263 12.7735 11.565 12.6726 11.8536 12.4974C11.9171 12.4588 11.9783 12.4166 12.0367 12.3711C12.088 12.3311 12.1372 12.2886 12.1842 12.2436C12.238 12.1922 12.2887 12.1376 12.3362 12.0802C12.6093 11.7499 12.7735 11.3262 12.7735 10.8641C12.7735 10.3085 12.5362 9.80831 12.1574 9.45939C12.1633 9.45616 12.1691 9.45292 12.175 9.44966C12.3144 9.32966 12.411 9.16655 12.45 8.98546V8.47879C12.6531 8.61409 12.8379 8.77463 13 8.95594ZM11.075 1.92954C9.90121 1.66832 8.70174 1.54372 7.5 1.55818C6.30075 1.58992 5.10564 1.71407 3.925 1.92954C3.57269 2.04529 3.23443 2.20101 2.91667 2.39375C2.64167 2.57943 2.55 2.76511 2.55 2.85795C2.55 2.95079 2.64167 3.04363 2.91667 3.22932C3.23443 3.42204 3.57269 3.57778 3.925 3.69352C5.09882 3.95475 6.29826 4.07934 7.5 4.06489C8.70796 4.09376 9.91331 3.93725 11.075 3.60068C11.4569 3.48594 11.8257 3.33033 12.175 3.13648C12.247 3.10161 12.3096 3.04963 12.3575 2.98497C12.4054 2.9203 12.4371 2.84488 12.45 2.76511C12.45 2.67227 12.45 2.57943 12.175 2.39375C11.8257 2.1999 11.4569 2.04429 11.075 1.92954Z"
        fill="#AFB1B3"/>
  <path fill-rule="evenodd" clip-rule="evenodd"
        d="M12.3495 13.3134C11.9164 13.5766 11.4079 13.7282 10.8641 13.7282C9.2823 13.7282 8 12.4459 8 10.8641C8 9.2823 9.2823 8 10.8641 8C12.4459 8 13.7282 9.2823 13.7282 10.8641C13.7282 11.5575 13.4818 12.1933 13.0717 12.6888L14.5623 14.3657L13.8487 15L12.3495 13.3134ZM12.7735 10.8641C12.7735 11.9186 11.9186 12.7735 10.8641 12.7735C9.80956 12.7735 8.9547 11.9186 8.9547 10.8641C8.9547 9.80956 9.80956 8.9547 10.8641 8.9547C11.9186 8.9547 12.7735 9.80956 12.7735 10.8641Z"
        fill="#AFB1B3"/>
  <path fill-rule="evenodd" clip-rule="evenodd"
        d="M12.3495 13.3134C11.9164 13.5766 11.4079 13.7282 10.8641 13.7282C9.28229 13.7282 8 12.4459 8 10.8641C8 9.28229 9.28229 8 10.8641 8C12.4459 8 13.7282 9.28229 13.7282 10.8641C13.7282 11.5575 13.4818 12.1933 13.0717 12.6888L14.5623 14.3657L13.8487 15L12.3495 13.3134ZM12.7735 10.8641C12.7735 11.9186 11.9186 12.7735 10.8641 12.7735C9.80956 12.7735 8.9547 11.9186 8.9547 10.8641C8.9547 9.80956 9.80956 8.9547 10.8641 8.9547C11.9186 8.9547 12.7735 9.80956 12.7735 10.8641Z"
        fill="#F68E1E"/>
</svg>
