<svg width="16" height="16" viewBox="0 0 16 16" fill="none" xmlns="http://www.w3.org/2000/svg">
  <path fill-rule="evenodd" clip-rule="evenodd"
        d="M8 15C11.866 15 15 11.866 15 8C15 4.13401 11.866 1 8 1C4.13401 1 1 4.13401 1 8C1 11.866 4.13401 15 8 15ZM6.90944 3.41173L5.03244 10.8114C4.88095 11.4071 5.27908 12 5.83053 12H8.96371C9.33025 12 9.6534 11.7299 9.75873 11.3355L10.9644 6.82053C11.1242 6.22226 10.7254 5.62015 10.1694 5.62015H7.71576L8.38473 3.00008L6.90944 3.41173ZM6.4676 10.5277L7.34131 7.09243H9.52357L8.60617 10.5277H6.4676Z"
        fill="#2093B8"/>
</svg>
