<svg width="16" height="16" viewBox="0 0 16 16" fill="none" xmlns="http://www.w3.org/2000/svg">
  <path fill-rule="evenodd" clip-rule="evenodd"
        d="M8 10.156C8.885 10.628 10.347 10.936 12 10.936C13.653 10.936 15.115 10.628 16 10.156V11.009C16 11.617 14.21 12.11 12 12.11C9.79 12.11 8 11.617 8 11.01V10.156ZM16 12.064V12.971C16 13.549 14.21 14.018 12 14.018C9.79 14.018 8 13.549 8 12.971V12.064C8.885 12.536 10.347 12.844 12 12.844C13.653 12.844 15.115 12.536 16 12.064ZM16 13.973V14.899C16 15.507 14.21 16 12 16C9.79 16 8 15.507 8 14.9V13.973C8.885 14.444 10.347 14.753 12 14.753C13.653 14.753 15.115 14.444 16 13.973ZM12 10.202C9.79 10.202 8 9.709 8 9.101C8 8.493 9.79 8 12 8C14.21 8 16 8.493 16 9.1C16 9.709 14.21 10.202 12 10.202Z"
        fill="#F68E1E"/>
  <path
    d="M13.62 7.08717L15.7071 5L11 0.292892V3H8.00001V4H12V2.70711L14.2929 5L12.2902 7.00267C12.7519 7.0112 13.1991 7.03999 13.62 7.08717Z"
    fill="#362F8A"/>
  <path
    d="M7 10H5.00001V12.7071L0.292908 8L5.00001 3.29289V6H12V7C11.6588 7 11.3239 7.01102 11 7.03234V7H4.00001V5.70711L1.70712 8L4.00001 10.2929V9H7V10Z"
    fill="#362F8A"/>
  <path d="M8.00001 9.10398V9.09802L8 9.101L8.00001 9.10398Z" fill="#362F8A"/>
</svg>
