<svg width="16" height="16" viewBox="0 0 16 16" fill="none" xmlns="http://www.w3.org/2000/svg">
  <path d="M15 8C15 11.866 11.866 15 8 15C4.13401 15 1 11.866 1 8C1 4.13401 4.13401 1 8 1C11.866 1 15 4.13401 15 8Z" fill="#F68E1E"/>
  <path
    d="M11.5 7.93297C11.5 9.08527 11.1533 9.96785 10.4598 10.5807C9.76972 11.1936 8.77161 11.5 7.46548 11.5H5.375V4.5H7.6927C8.89784 4.5 9.83368 4.80164 10.5002 5.40492C11.1667 6.00821 11.5 6.85089 11.5 7.93297ZM9.87407 7.97127C9.87407 6.46785 9.17388 5.71614 7.7735 5.71614H6.94033V10.2743H7.61191C9.12002 10.2743 9.87407 9.50661 9.87407 7.97127Z"
    fill="#362F8A"/>
</svg>
