<svg width="16" height="16" viewBox="0 0 16 16" fill="none" xmlns="http://www.w3.org/2000/svg">
  <path fill-rule="evenodd" clip-rule="evenodd"
        d="M8 15C11.866 15 15 11.866 15 8C15 4.13401 11.866 1 8 1C4.13401 1 1 4.13401 1 8C1 11.866 4.13401 15 8 15ZM10.4598 10.5807C11.1533 9.96785 11.5 9.08527 11.5 7.93297C11.5 6.85089 11.1667 6.00821 10.5002 5.40492C9.83368 4.80164 8.89784 4.5 7.6927 4.5H5.375V11.5H7.46548C8.77161 11.5 9.76972 11.1936 10.4598 10.5807ZM7.7735 5.71614C9.17388 5.71614 9.87407 6.46785 9.87407 7.97127C9.87407 9.50661 9.12002 10.2743 7.61191 10.2743H6.94033V5.71614H7.7735Z"
        fill="#F68E1E"/>
</svg>
