<svg width="16" height="16" viewBox="0 0 16 16" fill="none" xmlns="http://www.w3.org/2000/svg">
  <path fill-rule="evenodd" clip-rule="evenodd"
        d="M13 7H14L13.1429 9H15V10H12.7143L12.2857 11H15V12H11.8571L11 14H10L10.8571 12H9V11H11.2857L11.7143 10H9V9H12.1429L13 7Z"
        fill="#F68E1E"/>
  <path fill-rule="evenodd" clip-rule="evenodd"
        d="M6 2H5L4.25 4H2.88889L2 5H3.875L3.125 7H1.88889L1 8H2.75L2 10H3L3.75 8H5.75L5 10H6L6.75 8H8.11111L9 7H7.125L7.875 5H9.11111L10 4H8.25L9 2H8L7.25 4H5.25L6 2ZM6.125 7L6.875 5H4.875L4.125 7H6.125Z"
        fill="#AFB1B3"/>
</svg>
