<svg width="16" height="16" viewBox="0 0 16 16" fill="none" xmlns="http://www.w3.org/2000/svg">
  <path fill-rule="evenodd" clip-rule="evenodd"
        d="M11.6754 11.8385L8 11.8382L10.9546 6L13.8376 6.00016L11.6703 9.33969L16 9.33955L10.1608 16L11.6754 11.8385Z" fill="#AFB1B3"/>
  <path
    d="M8 5.138C5.10725 5.138 2.54875 4.599 1 3.773V5.2675C1 6.32975 4.1325 7.1925 8 7.1925C8.42519 7.1925 8.8415 7.18207 9.24573 7.1621L10.0624 5.54845C10.2326 5.21203 10.5776 4.99998 10.9547 5L13.8376 5.00016C14.2042 5.00019 14.5414 5.20077 14.7163 5.5229C14.7517 5.58811 14.7794 5.65618 14.7992 5.72583C14.9304 5.5784 15 5.42431 15 5.26575V3.773C13.4513 4.599 10.8927 5.138 8 5.138Z"
    fill="#F68E1E"/>
  <path
    d="M8.58402 8.46963C8.39102 8.47452 8.19628 8.477 8 8.477C5.10725 8.477 2.54875 7.938 1 7.112V8.69925C1 9.67055 3.88845 10.466 7.5425 10.5276L8.58402 8.46963Z"
    fill="#F68E1E"/>
  <path d="M15 8.33959L13.5114 8.33963L14.0275 7.54442C14.3842 7.41146 14.7098 7.26677 15 7.112V8.33959Z" fill="#F68E1E"/>
  <path
    d="M7.0009 11.796C4.52322 11.6875 2.36781 11.1807 1 10.4527V12.075C1 13.1372 4.1325 14 8 14C8.64018 14 9.26021 13.9764 9.84924 13.9321L10.2473 12.8384L7.99993 12.8382C7.6525 12.8382 7.32998 12.6579 7.14806 12.3619C7.04204 12.1894 6.99263 11.992 7.0009 11.796Z"
    fill="#F68E1E"/>
  <path
    d="M1 1.92675C1 2.99075 4.1325 3.8535 8 3.8535C11.8675 3.8535 15 2.99075 15 1.925C15 0.862751 11.8675 0 8 0C4.1325 0 1 0.86275 1 1.92675Z"
    fill="#F68E1E"/>
</svg>
