<svg width="16" height="16" viewBox="0 0 16 16" fill="none" xmlns="http://www.w3.org/2000/svg">
  <path fill-rule="evenodd" clip-rule="evenodd"
        d="M9 9.74394C10.7478 9.12619 12 7.45933 12 5.5C12 3.01472 9.98528 1 7.5 1C5.18372 1 3.27619 2.75002 3.02746 5H5.37803C5.68691 4.12611 6.52034 3.5 7.5 3.5C8.74264 3.5 9.75 4.50736 9.75 5.75C9.75 6.99264 8.74264 8 7.5 8H6V10L6 11H9V9.74394ZM3 5.50435V5.49565C3 5.4971 3 5.49855 3 5.5C3 5.50145 3 5.5029 3 5.50435ZM6 12H7.5H9V15H6V12Z"
        fill="#F68E1E"/>
  <path d="M2.59994 3C2.43802 3.31679 2.30589 3.65135 2.20725 4H2L2 12H5L5 13H1V3H2.59994Z" fill="#AFB1B3"/>
  <path d="M12.4003 3C12.5622 3.31679 12.6944 3.65136 12.793 4L14 4V12H10V13H15V3H12.4003Z" fill="#AFB1B3"/>
</svg>
