<svg width="256" height="256" viewBox="0 0 256 256" fill="none" xmlns="http://www.w3.org/2000/svg">
<path d="M189.3 243.9L244 99.3001L115.8 69.8L189.3 243.9Z" fill="url(#paint0_linear)"/>
<path d="M35.6001 203.6L244 99.2999L108.7 68.3999L35.6001 203.6Z" fill="url(#paint1_linear)"/>
<path d="M243.3 198L189.3 243.9L112.2 224L243.3 198Z" fill="url(#paint2_linear)"/>
<path d="M112.2 224L189.3 243.9L203.7 205.9L112.2 224Z" fill="url(#paint3_linear)"/>
<path d="M40.9 118.2L16.2 47.8L139.3 12L40.9 118.2Z" fill="url(#paint4_linear)"/>
<path d="M40.9 118.2L16.2 47.8L90 64.3L40.9 118.2Z" fill="url(#paint5_linear)"/>
<path d="M214.4 146.3L139.3 12L12 149.4V243.9L243.3 198L214.4 146.3Z" fill="url(#paint6_linear)"/>
<path d="M214.4 146.3L139.3 12L12 243.9L243.3 198L214.4 146.3Z" fill="url(#paint7_linear)"/>
<path d="M214.4 146.3L139.3 12L12 243.9L243.3 198L214.4 146.3Z" fill="url(#paint8_linear)"/>
<path d="M108.8 67.6001L34.3999 203.3L112.2 224L243.3 198L161.8 140.5L150.6 76.6001L108.8 67.6001Z" fill="url(#paint9_linear)"/>
<path d="M35.6001 203.6L161.8 140.5L139.3 12L108.7 68.4L35.6001 203.6Z" fill="url(#paint10_linear)"/>
<path d="M16.2 47.8L65.7 90.9001L12 149.4V244L108.8 67.6L16.2 47.8Z" fill="url(#paint11_linear)"/>
<path d="M12 149.4L34.8 203.6L55.6 165L12 149.4Z" fill="#108EFF"/>
<path d="M12 244L55.5 165.1L40.8 118.1L12 149.4V244Z" fill="url(#paint12_linear)"/>
<path d="M12 244L55.5 165.1L40.8 118.1L12 149.4V244Z" fill="url(#paint13_linear)"/>
<path d="M12 244L55.5 165.1L12 149.4V244Z" fill="url(#paint14_linear)"/>
<path d="M16.2 47.8L108.8 67.6L139.3 12L16.2 47.8Z" fill="url(#paint15_linear)"/>
<path d="M200 56H56V200H200V56Z" fill="url(#paint16_linear)"/>
<g opacity="0.3">
<path opacity="0.3" d="M163.4 56H146.8L161.5 140.4L56 193.3V200H200V121.5L163.4 56Z" fill="url(#paint17_linear)"/>
<path opacity="0.3" d="M179.6 85L163.4 56H146.8L150.7 78.4L179.6 85Z" fill="url(#paint18_linear)"/>
<path opacity="0.3" d="M179.6 85L199.9 121.2H200V89.7L179.6 85Z" fill="url(#paint19_linear)"/>
<path opacity="0.3" d="M179.6 84.9999L150.7 78.3999L161.5 140.4L199.9 121.2L179.6 84.9999Z" fill="url(#paint20_linear)"/>
<path opacity="0.3" d="M108.8 68.8L56 166.6V193.3L161.5 140.4L146.8 56H115.8L108.8 68.8Z" fill="url(#paint21_linear)"/>
<path opacity="0.3" d="M56 168.6L116.6 56H56V82.3L66.2 91.2L56 102.3V168.6Z" fill="url(#paint22_linear)"/>
<path opacity="0.3" d="M99.2 56H56V102.7L99.2 56Z" fill="url(#paint23_linear)"/>
</g>
<path d="M127.9 172.9H73.8V181.9H127.9V172.9Z" fill="white"/>
<path d="M94.3958 74.1003H105.194L128.39 128.091H115.992L111.193 116.093H88.3968L83.5976 128.091H71.5996L94.3958 74.1003ZM106.794 105.695L99.5949 88.098L92.3961 105.695H106.794Z" fill="white"/>
<path d="M129.189 101.295C129.189 85.698 140.788 72.9001 157.585 72.9001C167.983 72.9001 173.982 76.4995 179.181 81.2987L171.582 90.0973C167.583 86.0979 163.184 84.0983 157.585 84.0983C148.386 84.0983 141.987 91.697 141.987 100.895C141.987 110.094 148.386 118.093 157.585 118.093C163.984 118.093 167.583 115.693 171.982 111.694L179.581 119.292C173.982 125.291 167.583 128.891 157.185 128.891C141.187 129.291 129.189 116.893 129.189 101.295Z" fill="white"/>
<defs>
<linearGradient id="paint0_linear" x1="115.794" y1="156.845" x2="244" y2="156.845" gradientUnits="userSpaceOnUse">
<stop offset="0.0559607" stop-color="#0816FA"/>
<stop offset="0.2842" stop-color="#0855FA"/>
<stop offset="0.9032" stop-color="#087CFA"/>
</linearGradient>
<linearGradient id="paint1_linear" x1="75.8561" y1="135.992" x2="284.237" y2="135.992" gradientUnits="userSpaceOnUse">
<stop offset="0.0113887" stop-color="#07C3F2" stop-opacity="0.4"/>
<stop offset="0.1874" stop-color="#07BFF2" stop-opacity="0.5373"/>
<stop offset="0.375" stop-color="#07B2F4" stop-opacity="0.6836"/>
<stop offset="0.5679" stop-color="#089DF6" stop-opacity="0.834"/>
<stop offset="0.7634" stop-color="#087FFA" stop-opacity="0.9864"/>
<stop offset="0.7808" stop-color="#087CFA"/>
</linearGradient>
<linearGradient id="paint2_linear" x1="112.161" y1="220.957" x2="243.325" y2="220.957" gradientUnits="userSpaceOnUse">
<stop offset="0.2317" stop-color="#07C3F2"/>
<stop offset="0.3514" stop-color="#07BCF2"/>
<stop offset="0.5222" stop-color="#07AAF4"/>
<stop offset="0.7236" stop-color="#088BF6"/>
<stop offset="0.9467" stop-color="#0860F9"/>
<stop offset="1" stop-color="#0855FA"/>
</linearGradient>
<linearGradient id="paint3_linear" x1="112.161" y1="224.891" x2="203.667" y2="224.891" gradientUnits="userSpaceOnUse">
<stop offset="0.1935" stop-color="#20C9F3"/>
<stop offset="1" stop-color="#087CFA"/>
</linearGradient>
<linearGradient id="paint4_linear" x1="16.2218" y1="65.1239" x2="139.301" y2="65.1239" gradientUnits="userSpaceOnUse">
<stop offset="0.1935" stop-color="#07C3F2"/>
<stop offset="0.9032" stop-color="#087CFA"/>
</linearGradient>
<linearGradient id="paint5_linear" x1="9.74495" y1="87.7066" x2="53.2" y2="76.8428" gradientUnits="userSpaceOnUse">
<stop stop-color="#07C3F2"/>
<stop offset="0.8559" stop-color="#087CFA"/>
</linearGradient>
<linearGradient id="paint6_linear" x1="164.031" y1="251.295" x2="49.1306" y2="90.9391" gradientUnits="userSpaceOnUse">
<stop offset="0.0913979" stop-color="#21D789"/>
<stop offset="0.4839" stop-color="#07C3F2"/>
<stop offset="0.9032" stop-color="#087CFA"/>
</linearGradient>
<linearGradient id="paint7_linear" x1="186.113" y1="259.049" x2="32.0344" y2="76.1863" gradientUnits="userSpaceOnUse">
<stop offset="0.0353052" stop-color="#50FC9B"/>
<stop offset="0.2378" stop-color="#21D789"/>
<stop offset="0.467" stop-color="#07C3F2"/>
<stop offset="0.8507" stop-color="#087CFA"/>
<stop offset="1" stop-color="#0855FA"/>
</linearGradient>
<linearGradient id="paint8_linear" x1="133.332" y1="164.657" x2="41.8406" y2="258.781" gradientUnits="userSpaceOnUse">
<stop offset="0.1423" stop-color="#07C3F2" stop-opacity="0"/>
<stop offset="0.7442" stop-color="#00D4FF"/>
<stop offset="0.9705" stop-color="#36FFFF"/>
</linearGradient>
<linearGradient id="paint9_linear" x1="202.381" y1="270.365" x2="59.7947" y2="101.141" gradientUnits="userSpaceOnUse">
<stop offset="0.1027" stop-color="#07C3F2" stop-opacity="0"/>
<stop offset="1" stop-color="#087CFA"/>
</linearGradient>
<linearGradient id="paint10_linear" x1="63.5194" y1="92.9552" x2="211.923" y2="184.952" gradientUnits="userSpaceOnUse">
<stop offset="0.0556783" stop-color="#07C3F2" stop-opacity="0"/>
<stop offset="1" stop-color="#087CFA"/>
</linearGradient>
<linearGradient id="paint11_linear" x1="136.658" y1="207.279" x2="8.2251" y2="120.588" gradientUnits="userSpaceOnUse">
<stop offset="0.4839" stop-color="#00E1F2"/>
<stop offset="1" stop-color="#078CF9"/>
</linearGradient>
<linearGradient id="paint12_linear" x1="-8.785" y1="159.247" x2="76.4313" y2="212.073" gradientUnits="userSpaceOnUse">
<stop offset="0.0556783" stop-color="#087CFA" stop-opacity="0.4"/>
<stop offset="0.3766" stop-color="#05D7ED" stop-opacity="0.72"/>
<stop offset="0.7897" stop-color="#54FF80"/>
</linearGradient>
<linearGradient id="paint13_linear" x1="-8.785" y1="159.247" x2="76.4313" y2="212.073" gradientUnits="userSpaceOnUse">
<stop offset="0.0556783" stop-color="#087CFA" stop-opacity="0.4"/>
<stop offset="0.3766" stop-color="#05D7ED" stop-opacity="0.72"/>
<stop offset="0.7897" stop-color="#54FF80"/>
</linearGradient>
<linearGradient id="paint14_linear" x1="-3.7485" y1="157.036" x2="40.674" y2="213.304" gradientUnits="userSpaceOnUse">
<stop offset="0.0556783" stop-color="#087CFA" stop-opacity="0.5"/>
<stop offset="0.7897" stop-color="#07C3F2" stop-opacity="0"/>
</linearGradient>
<linearGradient id="paint15_linear" x1="153.247" y1="-2.7983" x2="49.5575" y2="66.328" gradientUnits="userSpaceOnUse">
<stop offset="0.1536" stop-color="#00FAFF"/>
<stop offset="0.4839" stop-color="#07C3F2"/>
<stop offset="0.9947" stop-color="#087CFA"/>
</linearGradient>
<linearGradient id="paint16_linear" x1="51.0528" y1="50.7992" x2="189.171" y2="189.372" gradientUnits="userSpaceOnUse">
<stop stop-color="#006396"/>
<stop offset="0.0339724" stop-color="#005682"/>
<stop offset="0.121" stop-color="#003754"/>
<stop offset="0.2043" stop-color="#001F2F"/>
<stop offset="0.2818" stop-color="#000E15"/>
<stop offset="0.3512" stop-color="#000406"/>
<stop offset="0.4058"/>
<stop offset="0.9138"/>
</linearGradient>
<linearGradient id="paint17_linear" x1="66.7979" y1="209.872" x2="203.9" y2="104.562" gradientUnits="userSpaceOnUse">
<stop offset="0.00370455" stop-color="#08244E"/>
<stop offset="1" stop-color="#02C963"/>
</linearGradient>
<linearGradient id="paint18_linear" x1="183.294" y1="66.9206" x2="131.591" y2="76.1047" gradientUnits="userSpaceOnUse">
<stop stop-color="#07C3F2"/>
<stop offset="0.8559" stop-color="#087CFA"/>
</linearGradient>
<linearGradient id="paint19_linear" x1="195.895" y1="117.657" x2="187.219" y2="74.4826" gradientUnits="userSpaceOnUse">
<stop stop-color="#032850"/>
<stop offset="0.8559" stop-color="#087CFA"/>
</linearGradient>
<linearGradient id="paint20_linear" x1="143.14" y1="96.727" x2="177.499" y2="116.751" gradientUnits="userSpaceOnUse">
<stop offset="0.0254164" stop-color="#0791F2"/>
<stop offset="1" stop-color="#087CFA"/>
</linearGradient>
<linearGradient id="paint21_linear" x1="78.5433" y1="73.2786" x2="116.998" y2="159.745" gradientUnits="userSpaceOnUse">
<stop offset="0.0556783" stop-color="#07C3F2"/>
<stop offset="1" stop-color="#0845BD"/>
</linearGradient>
<linearGradient id="paint22_linear" x1="132.285" y1="143.353" x2="56.1366" y2="91.9525" gradientUnits="userSpaceOnUse">
<stop offset="0.2837" stop-color="#087CFA"/>
<stop offset="1" stop-color="#078CF9"/>
</linearGradient>
<linearGradient id="paint23_linear" x1="38.292" y1="83.7681" x2="72.552" y2="75.2031" gradientUnits="userSpaceOnUse">
<stop stop-color="#07C3F2"/>
<stop offset="0.8559" stop-color="#087CFA"/>
</linearGradient>
</defs>
</svg>
