<svg width="16" height="16" viewBox="0 0 16 16" fill="none" xmlns="http://www.w3.org/2000/svg">
<path d="M16 0H0V16H16V0Z" fill="#07C3F2"/>
<path d="M15 1H1V15H15V1Z" fill="black"/>
<path d="M9 12H3V13H9V12Z" fill="white"/>
<path d="M8.19995 6.1C8.19995 4.4 9.49995 3 11.3 3C12.4 3 13.1 3.4 13.7 3.9L12.9 4.9C12.4 4.5 11.9 4.2 11.3 4.2C10.3 4.2 9.59995 5 9.59995 6.1C9.59995 7.1 10.3 8 11.3 8C12 8 12.4 7.7 12.9 7.3L13.7 8.1C13.1 8.8 12.4 9.2 11.3 9.2C9.49995 9.2 8.19995 7.8 8.19995 6.1Z" fill="white"/>
<path d="M4.8999 3.1001L2.3999 9.1001H3.6999L4.1999 7.8001H6.6999L7.2999 9.1001H8.6999L6.0999 3.1001H4.8999ZM4.6999 6.6001L5.4999 4.7001L6.2999 6.6001H4.6999Z" fill="white"/>
</svg>
