<svg width="48" height="48" viewBox="0 0 48 48" fill="none" xmlns="http://www.w3.org/2000/svg">
<g clip-path="url(#clip0_4363_9193)">
<g clip-path="url(#clip1_4363_9193)">
<path d="M11.9607 4.36377L3.05411 4.36508C1.36713 4.36508 0 5.73264 0 7.41962V16.0496C0 16.9411 0.389673 17.7885 1.06647 18.3689L29.6871 42.9012C30.2409 43.3756 30.946 43.6365 31.6752 43.6365H40.5818C42.2688 43.6365 43.6364 42.2689 43.6364 40.582V31.9507C43.6364 31.0592 43.2467 30.2118 42.5699 29.6314L13.9492 5.09948C13.3955 4.62472 12.6903 4.36421 11.9607 4.36421V4.36377Z" fill="#FF8100"/>
<path d="M10.8895 4.36377H3.05455C1.36756 4.36377 0 5.73133 0 7.41831V17.2378C0 17.3822 0.0104727 17.5267 0.0305455 17.6698L3.98836 45.3776C4.20349 46.8826 5.49207 48.0001 7.01236 48.0001H18.7671C20.4545 48.0001 21.8221 46.6321 21.8217 44.9447L21.8182 31.0409C21.8182 30.7127 21.7654 30.3867 21.6615 30.0756L13.7869 6.45221C13.3711 5.20508 12.2038 4.36377 10.889 4.36377H10.8895Z" fill="url(#paint0_linear_4363_9193)"/>
<path d="M44.9455 0H19.4692C18.2474 0 17.143 0.728291 16.6617 1.85105L4.61063 29.969C4.44787 30.3491 4.36365 30.7588 4.36365 31.1725V44.9455C4.36365 46.6324 5.73121 48 7.41819 48H20.8927C21.4962 48 22.0861 47.8211 22.5884 47.486L46.6399 31.4335C47.489 30.8671 47.9987 29.9136 47.9987 28.8929L48 3.05455C48 1.36756 46.6324 0 44.9455 0Z" fill="url(#paint1_linear_4363_9193)"/>
<path d="M39.0002 9H9.00024V39H39.0002V9Z" fill="black"/>
<path d="M24.9997 33H12.9997V35.0001H24.9997V33Z" fill="white"/>
<path d="M13.0002 22.0828H15.1847V14.9172H13.0002V13H19.4822V14.9172H17.2977V22.0828H19.4822V24H13.0002V22.0828Z" fill="white"/>
<path d="M20.5818 22.0202H22.1613C22.4806 22.0202 22.765 21.9521 23.0138 21.816C23.2625 21.6798 23.455 21.4874 23.5911 21.2387C23.7272 20.9899 23.7953 20.7059 23.7953 20.3861V13H25.9403V20.5349C25.9403 21.195 25.7882 21.7882 25.4844 22.3147C25.1806 22.8412 24.7617 23.2538 24.2272 23.5521C23.6928 23.8508 23.0932 24 22.4281 24H20.5818V22.0202Z" fill="white"/>
</g>
</g>
<defs>
<linearGradient id="paint0_linear_4363_9193" x1="-0.538037" y1="5.71606" x2="18.1091" y2="45.9357" gradientUnits="userSpaceOnUse">
<stop offset="0.1" stop-color="#FC801D"/>
<stop offset="0.59" stop-color="#FE2857"/>
</linearGradient>
<linearGradient id="paint1_linear_4363_9193" x1="3.1667" y1="45.014" x2="47.1954" y2="0.984873" gradientUnits="userSpaceOnUse">
<stop offset="0.21" stop-color="#FE2857"/>
<stop offset="0.7" stop-color="#007EFF"/>
</linearGradient>
<clipPath id="clip0_4363_9193">
<rect width="48" height="48" fill="white"/>
</clipPath>
<clipPath id="clip1_4363_9193">
<rect width="48" height="48" fill="white"/>
</clipPath>
</defs>
</svg>
