<svg width="24" height="24" viewBox="0 0 24 24" fill="none" xmlns="http://www.w3.org/2000/svg">
<path d="M3.80005 21.1L0.800049 3.10005L6.40005 0.800049L9.90005 2.90005L13.2 1.10005L20.1 3.80005L16.2 23.2001L3.80005 21.1Z" fill="url(#paint0_linear)"/>
<path d="M13.2001 1.1001L9.90015 2.9001L10.9001 10.2001L12.9001 11.6001L13.5001 15.9001L15.8001 16.1001L14.1001 8.2001L13.2001 1.1001Z" fill="url(#paint1_linear)"/>
<path d="M10.9001 11L9.90015 2.90005L6.40015 0.800049L7.90015 9.50005L8.40015 14.9L11.5001 14.8L11.2001 13.4L10.9001 11Z" fill="url(#paint2_linear)"/>
<path d="M3.80005 21.1L0.800049 3.10005L6.40005 0.800049L7.90005 9.80005L3.80005 21.1Z" fill="url(#paint3_linear)"/>
<path d="M7.90005 9.80005L6.40005 0.800049L0.800049 3.10005L7.00005 8.50005L7.90005 9.80005Z" fill="url(#paint4_linear)"/>
<path d="M3.80005 21.1001L0.800049 3.1001L7.00005 8.5001L13.2 16.8001L3.80005 21.1001Z" fill="url(#paint5_linear)"/>
<path d="M3.80005 21.1L9.10005 17.2L16.2 23.2L3.80005 21.1Z" fill="url(#paint6_linear)"/>
<path d="M11.6001 16.3L9.1001 18.6L16.2001 23.2001L17.5001 17L11.6001 16.3Z" fill="url(#paint7_linear)"/>
<path d="M3.80005 21.1001L9.10005 18.6001L16.2 23.2001L3.80005 21.1001Z" fill="url(#paint8_linear)"/>
<path d="M23.2001 8.40005L20.3001 1.20005L15.1001 0.800049L6.90015 8.60005L9.00015 18.6L13.4001 21.4L23.2001 15.5L20.8001 10.9L23.2001 8.40005Z" fill="url(#paint9_linear)"/>
<path d="M15.7001 8.00005L15.1001 0.800049L6.90015 8.60005L13.0001 10.4L15.7001 8.00005Z" fill="url(#paint10_linear)"/>
<path d="M14.3001 1.5L6.90015 8.6L13.0001 10.4L16.2001 13.9L15.2001 1.9L14.3001 1.5Z" fill="url(#paint11_linear)"/>
<path d="M13 10.4001L14.3 9.20015L14.1 8.20015L13.4 2.40015L10.3 5.40015L10.8 9.80015L13 10.4001Z" fill="url(#paint12_linear)"/>
<path d="M10.8001 9.80015L10.2001 5.40015L7.6001 7.90015L7.7001 8.80015L10.8001 9.80015Z" fill="url(#paint13_linear)"/>
<path d="M14.3001 1.5L6.90015 8.6L15.2001 1.9L14.3001 1.5Z" fill="url(#paint14_linear)"/>
<path d="M13.5 3.1999L13.4 2.3999L10.3 5.3999V5.7999L13.5 3.1999Z" fill="url(#paint15_linear)"/>
<path d="M10.3001 5.7999L10.2001 5.3999L7.6001 7.8999V7.9999L10.3001 5.7999Z" fill="url(#paint16_linear)"/>
<path d="M18 5.90015L13 10.4001L13.4 21.4001L23.2 15.5001L20.8 10.9001L18 5.90015Z" fill="url(#paint17_linear)"/>
<path d="M15.7 8.60005L16.2 14.3L23.2 15.5L20.8 10.9L19.3 8.30005L15.7 8.60005Z" fill="url(#paint18_linear)"/>
<path d="M15.7 8.60005L16.2 14.3L17.3 14.5L20.8 10.9L19.3 8.30005L15.7 8.60005Z" fill="url(#paint19_linear)"/>
<path d="M13.0001 10.4001L6.90015 8.6001L9.00015 18.6001L13.4001 21.4001L13.0001 10.4001Z" fill="url(#paint20_linear)"/>
<path d="M11 11L10.8 9.80005L7.69995 8.80005L7.89995 9.50005L8.89995 17.3L8.99995 18L12.2 20.5L11 11Z" fill="url(#paint21_linear)"/>
<path d="M9 18.6L13.4 21.4L13.2 16L9 18.6Z" fill="url(#paint22_linear)"/>
<path d="M18 5.89995L20.7999 10.9L23.2 8.39995L20.2999 1.19995L16.7 5.69995L18 5.89995Z" fill="url(#paint23_linear)"/>
<path d="M19.4001 8.40015L20.8001 10.9001L23.2001 8.40015H19.4001Z" fill="url(#paint24_linear)"/>
<path d="M6.90015 8.6001L7.40015 10.9001L6.90015 8.6001Z" fill="url(#paint25_linear)"/>
<path d="M19 5H5V19H19V5Z" fill="url(#paint26_linear)"/>
<path d="M13 16H7V17H13V16Z" fill="white"/>
<path d="M13.2 12.0999L14 11.1999C14.5 11.5999 15.1 11.8999 15.8 11.8999C16.3 11.8999 16.7 11.6999 16.7 11.2999C16.7 10.9999 16.5 10.7999 15.5 10.4999C14.3 10.1999 13.5 9.8999 13.5 8.6999C13.5 7.5999 14.4 6.8999 15.6 6.8999C16.5 6.8999 17.2 7.1999 17.8 7.6999L17.1 8.6999C16.6 8.2999 16 8.0999 15.5 8.0999C15 8.0999 14.7 8.2999 14.7 8.5999C14.7 8.9999 15 9.0999 16 9.3999C17.3 9.6999 18 10.1999 18 11.1999C18 12.3999 17.1 13.0999 15.8 13.0999C14.9 13.0999 14 12.7999 13.2 12.0999Z" fill="white"/>
<path d="M8.8001 13L9.8001 9.5L10.7001 13H11.8001L13.5001 7H12.1001L11.3001 10.5L10.3001 7H9.3001L8.3001 10.5L7.4001 7H6.1001L7.7001 13H8.8001Z" fill="white"/>
<defs>
<linearGradient id="paint0_linear" x1="8.80745" y1="1.21935" x2="14.6303" y2="22.1812" gradientUnits="userSpaceOnUse">
<stop offset="0.2849" stop-color="#07C3F2"/>
<stop offset="0.9409" stop-color="#087CFA"/>
</linearGradient>
<linearGradient id="paint1_linear" x1="10.7422" y1="0.0267228" x2="13.7752" y2="13.0846" gradientUnits="userSpaceOnUse">
<stop offset="0.0669317" stop-color="#42FFFA"/>
<stop offset="0.3409" stop-color="#07C3F2"/>
<stop offset="0.9409" stop-color="#087CFA"/>
</linearGradient>
<linearGradient id="paint2_linear" x1="5.64085" y1="0.0579397" x2="10.3994" y2="12.0023" gradientUnits="userSpaceOnUse">
<stop offset="0.2849" stop-color="#07C3F2"/>
<stop offset="0.9409" stop-color="#087CFA"/>
</linearGradient>
<linearGradient id="paint3_linear" x1="2.04425" y1="-1.36215" x2="7.18435" y2="19.5176" gradientUnits="userSpaceOnUse">
<stop offset="0.0669317" stop-color="#42FFFA"/>
<stop offset="0.3409" stop-color="#07C3F2"/>
<stop offset="0.9409" stop-color="#087CFA"/>
</linearGradient>
<linearGradient id="paint4_linear" x1="3.93365" y1="6.84955" x2="5.47885" y2="5.25105" gradientUnits="userSpaceOnUse">
<stop offset="0.00971316" stop-color="#42FFFA"/>
<stop offset="0.9216" stop-color="#07C3F2" stop-opacity="0"/>
</linearGradient>
<linearGradient id="paint5_linear" x1="-4.87085" y1="7.5085" x2="10.3261" y2="17.2779" gradientUnits="userSpaceOnUse">
<stop offset="0.1985" stop-color="#07C3F2"/>
<stop offset="0.9403" stop-color="#087CFA"/>
</linearGradient>
<linearGradient id="paint6_linear" x1="0.824149" y1="19.8962" x2="9.57195" y2="20.1517" gradientUnits="userSpaceOnUse">
<stop offset="0.1291" stop-color="#1D53B8"/>
<stop offset="0.8696" stop-color="#087CFA"/>
</linearGradient>
<linearGradient id="paint7_linear" x1="12.8843" y1="16.3335" x2="14.7801" y2="23.1586" gradientUnits="userSpaceOnUse">
<stop offset="0.2771" stop-color="#087BFA"/>
<stop offset="0.6826" stop-color="#085DFA"/>
</linearGradient>
<linearGradient id="paint8_linear" x1="8.75965" y1="12.1078" x2="10.1005" y2="22.9628" gradientUnits="userSpaceOnUse">
<stop offset="0.5232" stop-color="#087BFA"/>
<stop offset="0.9771" stop-color="#086DFA"/>
</linearGradient>
<linearGradient id="paint9_linear" x1="10.5876" y1="3.90405" x2="20.4378" y2="18.348" gradientUnits="userSpaceOnUse">
<stop offset="0.1286" stop-color="#FCF84A"/>
<stop offset="0.4986" stop-color="#07C3F2"/>
</linearGradient>
<linearGradient id="paint10_linear" x1="14.917" y1="0.656449" x2="13.9552" y2="2.69315" gradientUnits="userSpaceOnUse">
<stop stop-color="#73A4AA"/>
<stop offset="0.6751" stop-color="#FCF84A"/>
</linearGradient>
<linearGradient id="paint11_linear" x1="9.91295" y1="-2.5689" x2="13.3542" y2="20.8231" gradientUnits="userSpaceOnUse">
<stop offset="0.1786" stop-color="#FCF84A"/>
<stop offset="0.8591" stop-color="#07C3F2"/>
</linearGradient>
<linearGradient id="paint12_linear" x1="11.1649" y1="2.04005" x2="13.7911" y2="13.3469" gradientUnits="userSpaceOnUse">
<stop offset="0.1787" stop-color="#FCF84A"/>
<stop offset="0.9725" stop-color="#12C6EC"/>
</linearGradient>
<linearGradient id="paint13_linear" x1="8.373" y1="5.83335" x2="10.5163" y2="10.2944" gradientUnits="userSpaceOnUse">
<stop offset="0.1286" stop-color="#FCF84A"/>
<stop offset="0.9414" stop-color="#07C3F2"/>
</linearGradient>
<linearGradient id="paint14_linear" x1="10.2783" y1="-0.1048" x2="11.8935" y2="10.874" gradientUnits="userSpaceOnUse">
<stop offset="0.1786" stop-color="#FCF84A"/>
<stop offset="0.8591" stop-color="#07C3F2"/>
</linearGradient>
<linearGradient id="paint15_linear" x1="11.4838" y1="2.5356" x2="12.3709" y2="6.3548" gradientUnits="userSpaceOnUse">
<stop offset="0.1787" stop-color="#D3FF8C"/>
<stop offset="0.8762" stop-color="#12C6EC"/>
</linearGradient>
<linearGradient id="paint16_linear" x1="8.6007" y1="6.0538" x2="9.2234" y2="7.3499" gradientUnits="userSpaceOnUse">
<stop offset="0.1286" stop-color="#FCF84A"/>
<stop offset="0.9414" stop-color="#07C3F2"/>
</linearGradient>
<linearGradient id="paint17_linear" x1="12.8298" y1="9.45785" x2="19.24" y2="18.8575" gradientUnits="userSpaceOnUse">
<stop stop-color="#07C3F2"/>
<stop offset="0.906" stop-color="#00A0FF"/>
</linearGradient>
<linearGradient id="paint18_linear" x1="22.126" y1="11.7302" x2="14.0805" y2="12.7519" gradientUnits="userSpaceOnUse">
<stop stop-color="#07C3F2"/>
<stop offset="1" stop-color="#0895F7"/>
</linearGradient>
<linearGradient id="paint19_linear" x1="20.34" y1="11.0644" x2="14.4696" y2="11.8098" gradientUnits="userSpaceOnUse">
<stop stop-color="#07C3F2"/>
<stop offset="1" stop-color="#0895F7"/>
</linearGradient>
<linearGradient id="paint20_linear" x1="6.03035" y1="7.2608" x2="14.3627" y2="19.4792" gradientUnits="userSpaceOnUse">
<stop offset="0.080633" stop-color="#FCF84A"/>
<stop offset="0.5708" stop-color="#07C3F2"/>
</linearGradient>
<linearGradient id="paint21_linear" x1="6.97805" y1="7.79085" x2="13.3516" y2="21.0565" gradientUnits="userSpaceOnUse">
<stop offset="0.1286" stop-color="#FCF84A"/>
<stop offset="0.4216" stop-color="#07C3F2"/>
</linearGradient>
<linearGradient id="paint22_linear" x1="8.8186" y1="15.7519" x2="14.2379" y2="19.4208" gradientUnits="userSpaceOnUse">
<stop offset="0.09347" stop-color="#087CFA"/>
<stop offset="0.6584" stop-color="#07C3F2"/>
</linearGradient>
<linearGradient id="paint23_linear" x1="18.3287" y1="1.21505" x2="21.1091" y2="11.0624" gradientUnits="userSpaceOnUse">
<stop stop-color="#FCF84A"/>
<stop offset="0.4651" stop-color="#07C3F2"/>
<stop offset="0.9409" stop-color="#087CFA"/>
</linearGradient>
<linearGradient id="paint24_linear" x1="24.337" y1="9.01855" x2="16.1" y2="10.2317" gradientUnits="userSpaceOnUse">
<stop stop-color="#0863FA"/>
<stop offset="0.9409" stop-color="#1AC8FB"/>
</linearGradient>
<linearGradient id="paint25_linear" x1="6.57015" y1="8.8321" x2="7.86675" y2="10.7333" gradientUnits="userSpaceOnUse">
<stop offset="0.1286" stop-color="#FCF84A"/>
<stop offset="0.4216" stop-color="#07C3F2"/>
</linearGradient>
<linearGradient id="paint26_linear" x1="4.64839" y1="4.36426" x2="16.9017" y2="17.0911" gradientUnits="userSpaceOnUse">
<stop stop-color="#006396"/>
<stop offset="0.0470796" stop-color="#005682"/>
<stop offset="0.1677" stop-color="#003754"/>
<stop offset="0.2832" stop-color="#001F2F"/>
<stop offset="0.3905" stop-color="#000E15"/>
<stop offset="0.4867" stop-color="#000406"/>
<stop offset="0.5623"/>
<stop offset="0.9138"/>
</linearGradient>
</defs>
</svg>
