<svg width="70" height="70" viewBox="0 0 70 70" fill="none" xmlns="http://www.w3.org/2000/svg">
<path d="M11.5 61.0001L2.80005 9.60015L18.9 2.90015L29.1 9.00015L38.5 3.90015L58.1 11.4001L47.1 67.2001L11.5 61.0001Z" fill="url(#paint0_linear)"/>
<path d="M38.5001 3.90015L29.1001 9.00015L31.8001 30.0001L37.6001 34.0001L39.4001 46.1001L45.9001 46.8001L41.0001 24.2001L38.5001 3.90015Z" fill="url(#paint1_linear)"/>
<path d="M31.8001 32.1001L29.1001 9.00015L18.9001 2.90015L23.1001 27.8001L24.7001 43.4001L33.5001 43.1001L32.8001 39.1001L31.8001 32.1001Z" fill="url(#paint2_linear)"/>
<path d="M11.5 61.0001L2.80005 9.60015L18.9 2.90015L23.3 28.8001L11.5 61.0001Z" fill="url(#paint3_linear)"/>
<path d="M23.3 28.6001L18.9 2.90015L2.80005 9.60015L20.7001 25.1001L23.3 28.6001Z" fill="url(#paint4_linear)"/>
<path d="M11.5 61.0001L2.80005 9.6001L20.7001 25.1001L38.5 48.8001L11.5 61.0001Z" fill="url(#paint5_linear)"/>
<path d="M11.5 61L26.7 50L47.1 67.2L11.5 61Z" fill="url(#paint6_linear)"/>
<path d="M33.9001 47.4001L26.8 54.0001L47.1 67.2001L50.6 49.3001L33.9001 47.4001Z" fill="url(#paint7_linear)"/>
<path d="M11.5 61L26.8 54L47.1 67.2L11.5 61Z" fill="url(#paint8_linear)"/>
<path d="M67.2 24.6L58.9 4.10005L43.8 2.80005L20.5 25.2001L26.5 54L39 61.9001L67.2 45.2001L60.2 32L67.2 24.6Z" fill="url(#paint9_linear)"/>
<path d="M45.5 23.6L43.8 2.80005L20.5 25.2001L37.7 30.5L45.5 23.6Z" fill="url(#paint10_linear)"/>
<path d="M41.5 5.1001L20.5 25.2001L37.7 30.5001L47.1 40.5001L44.1 6.0001L41.5 5.1001Z" fill="url(#paint11_linear)"/>
<path d="M37.7 30.5L41.6 27L41 24.2L38.9 7.5L30 16L31.7 28.6L37.7 30.5Z" fill="url(#paint12_linear)"/>
<path d="M31.7001 28.6001L29.9001 16.1001L22.4001 23.4001L22.8001 25.9001L31.7001 28.6001Z" fill="url(#paint13_linear)"/>
<path d="M41.5 5.1001L20.5 25.2001L44.1 6.0001L41.5 5.1001Z" fill="url(#paint14_linear)"/>
<path d="M39.2 9.7L38.9 7.5L30 16L30.2 17.2L39.2 9.7Z" fill="url(#paint15_linear)"/>
<path d="M30.0999 17.3001L29.8999 16.1001L22.3999 23.4001V23.6001L30.0999 17.3001Z" fill="url(#paint16_linear)"/>
<path d="M52.0999 17.5L37.7 30.5L39 61.9L67.1999 45.2L60.2 32L52.0999 17.5Z" fill="url(#paint17_linear)"/>
<path d="M45.6001 25.2L46.9001 41.7L67.2001 45.2L60.2001 32L56.0001 24.5L45.6001 25.2Z" fill="url(#paint18_linear)"/>
<path d="M45.6001 25.2L46.9001 41.7L50.1001 42.2L60.2001 32L56.0001 24.5L45.6001 25.2Z" fill="url(#paint19_linear)"/>
<path d="M37.7 30.5L20.5 25.2L26.5 54L39 61.9L37.7 30.5Z" fill="url(#paint20_linear)"/>
<path d="M32 32.1001L31.6 28.6001L22.8 25.9001L23.1 27.8001L26 50.2001L26.5 52.3001L35.6 59.3001L32 32.1001Z" fill="url(#paint21_linear)"/>
<path d="M26.5 54L39 61.9001L38.4 46.3L26.5 54Z" fill="url(#paint22_linear)"/>
<path d="M52.1 17.5001L60.2 32.0001L67.2 24.6001L58.9 4.1001L48.5 17.1001L52.1 17.5001Z" fill="url(#paint23_linear)"/>
<path d="M56.1001 24.6001L60.2001 32.0001L67.2001 24.6001H56.1001Z" fill="url(#paint24_linear)"/>
<path d="M20.5 25.2L21.9 31.9L20.5 25.2Z" fill="url(#paint25_linear)"/>
<path d="M55 15H15V55H55V15Z" fill="url(#paint26_linear)"/>
<g opacity="0.3">
<path opacity="0.3" d="M31.7 30L33.2 42.6L37.8 48.8L45.7 46.7L40.8 24.3L39.6 15H29.7L31.7 30Z" fill="url(#paint27_linear)"/>
<g opacity="0.3">
<path opacity="0.3" d="M55 52.2001V23.0001L52 17.6001L37.7 30.5001L38.7 55.0001H50.2999L55 52.2001Z" fill="url(#paint28_linear)"/>
<path opacity="0.3" d="M54.9999 15H50.0999L48.3999 17.2L51.9999 17.6L54.9999 23V15Z" fill="url(#paint29_linear)"/>
</g>
<path opacity="0.3" d="M23.2 27.9L26.8 54.2L33.5 43L32.8 39.1L31.8 32.1L29.8 15H21L23.2 27.9Z" fill="url(#paint30_linear)"/>
<path opacity="0.3" d="M52.0001 17.6L48.4001 17.2L50.1001 15H31.3001L20.6001 25.2L26.5001 53.9L28.3001 55H38.7001L37.7001 30.5L52.0001 17.6Z" fill="url(#paint31_linear)"/>
<path opacity="0.3" d="M15 20.2L20.8 25.2L23.4 28.6L21 15H15V20.2Z" fill="url(#paint32_linear)"/>
<g opacity="0.3">
<path opacity="0.3" d="M15 20.2V55H24.6L26.8 53.9L20.8 25.2L15 20.2Z" fill="url(#paint33_linear)"/>
</g>
</g>
<path d="M35 47.3999H20V49.8999H35V47.3999Z" fill="white"/>
<path d="M34.2001 20L32.0001 28.7L29.4001 20H26.9001L24.3001 28.7L22.1001 20H18.6001L22.9001 35H25.7001L28.1001 26.3L30.6001 35H33.4001L37.7001 20H34.2001Z" fill="white"/>
<path d="M38.3 32.7999L40.3 30.4999C41.7 31.5999 43.1 32.2999 44.8 32.2999C46.2 32.2999 47 31.7999 47 30.8999C47 30.0999 46.5 29.5999 44 28.9999C41 28.1999 39 27.3999 39 24.3999C39 21.6999 41.2 19.8999 44.3 19.8999C46.5 19.8999 48.4001 20.5999 49.9001 21.7999L48 24.1999C46.7 23.2999 45.4 22.6999 44.1 22.6999C42.8001 22.6999 42.2001 23.2999 42.2001 23.9999C42.2001 24.9999 42.8 25.2999 45.4 25.9999C48.5 26.7999 50.2001 27.8999 50.2001 30.4999C50.2001 33.4999 47.9001 35.1999 44.7001 35.1999C42.4001 35.2999 40.1 34.4999 38.3 32.7999Z" fill="white"/>
<defs>
<linearGradient id="paint0_linear" x1="25.8622" y1="4.14325" x2="42.5282" y2="64.1411" gradientUnits="userSpaceOnUse">
<stop offset="0.2849" stop-color="#07C3F2"/>
<stop offset="0.9409" stop-color="#087CFA"/>
</linearGradient>
<linearGradient id="paint1_linear" x1="31.3997" y1="0.729647" x2="40.0808" y2="38.1041" gradientUnits="userSpaceOnUse">
<stop offset="0.0669317" stop-color="#42FFFA"/>
<stop offset="0.3409" stop-color="#07C3F2"/>
<stop offset="0.9409" stop-color="#087CFA"/>
</linearGradient>
<linearGradient id="paint2_linear" x1="16.7983" y1="0.819147" x2="30.4185" y2="35.0068" gradientUnits="userSpaceOnUse">
<stop offset="0.2849" stop-color="#07C3F2"/>
<stop offset="0.9409" stop-color="#087CFA"/>
</linearGradient>
<linearGradient id="paint3_linear" x1="6.50435" y1="-3.24555" x2="21.2165" y2="56.5171" gradientUnits="userSpaceOnUse">
<stop offset="0.0669317" stop-color="#42FFFA"/>
<stop offset="0.3409" stop-color="#07C3F2"/>
<stop offset="0.9409" stop-color="#087CFA"/>
</linearGradient>
<linearGradient id="paint4_linear" x1="11.9122" y1="20.2583" x2="16.3349" y2="15.6831" gradientUnits="userSpaceOnUse">
<stop offset="0.00971316" stop-color="#42FFFA"/>
<stop offset="0.9216" stop-color="#07C3F2" stop-opacity="0"/>
</linearGradient>
<linearGradient id="paint5_linear" x1="-13.2882" y1="22.1441" x2="30.2088" y2="50.1064" gradientUnits="userSpaceOnUse">
<stop offset="0.1985" stop-color="#07C3F2"/>
<stop offset="0.9403" stop-color="#087CFA"/>
</linearGradient>
<linearGradient id="paint6_linear" x1="3.012" y1="57.6008" x2="28.0502" y2="58.3319" gradientUnits="userSpaceOnUse">
<stop offset="0.1291" stop-color="#1D53B8"/>
<stop offset="0.8696" stop-color="#087CFA"/>
</linearGradient>
<linearGradient id="paint7_linear" x1="37.5307" y1="47.4035" x2="42.9571" y2="66.9386" gradientUnits="userSpaceOnUse">
<stop offset="0.2771" stop-color="#087BFA"/>
<stop offset="0.6826" stop-color="#085DFA"/>
</linearGradient>
<linearGradient id="paint8_linear" x1="25.7252" y1="35.3084" x2="29.5631" y2="66.3776" gradientUnits="userSpaceOnUse">
<stop offset="0.5232" stop-color="#087BFA"/>
<stop offset="0.9771" stop-color="#086DFA"/>
</linearGradient>
<linearGradient id="paint9_linear" x1="30.9571" y1="11.8273" x2="59.1505" y2="53.1693" gradientUnits="userSpaceOnUse">
<stop offset="0.1286" stop-color="#FCF84A"/>
<stop offset="0.4986" stop-color="#07C3F2"/>
</linearGradient>
<linearGradient id="paint10_linear" x1="43.3488" y1="2.53215" x2="40.5959" y2="8.36175" gradientUnits="userSpaceOnUse">
<stop stop-color="#73A4AA"/>
<stop offset="0.6751" stop-color="#FCF84A"/>
</linearGradient>
<linearGradient id="paint11_linear" x1="29.0258" y1="-6.6993" x2="38.8758" y2="60.2538" gradientUnits="userSpaceOnUse">
<stop offset="0.1786" stop-color="#FCF84A"/>
<stop offset="0.8591" stop-color="#07C3F2"/>
</linearGradient>
<linearGradient id="paint12_linear" x1="32.6096" y1="6.4921" x2="40.1267" y2="38.8548" gradientUnits="userSpaceOnUse">
<stop offset="0.1787" stop-color="#FCF84A"/>
<stop offset="0.9725" stop-color="#12C6EC"/>
</linearGradient>
<linearGradient id="paint13_linear" x1="24.6185" y1="17.3493" x2="30.7532" y2="30.1181" gradientUnits="userSpaceOnUse">
<stop offset="0.1286" stop-color="#FCF84A"/>
<stop offset="0.9414" stop-color="#07C3F2"/>
</linearGradient>
<linearGradient id="paint14_linear" x1="30.0718" y1="0.353598" x2="34.6948" y2="31.7773" gradientUnits="userSpaceOnUse">
<stop offset="0.1786" stop-color="#FCF84A"/>
<stop offset="0.8591" stop-color="#07C3F2"/>
</linearGradient>
<linearGradient id="paint15_linear" x1="33.5225" y1="7.9112" x2="36.0616" y2="18.8426" gradientUnits="userSpaceOnUse">
<stop offset="0.1787" stop-color="#D3FF8C"/>
<stop offset="0.8762" stop-color="#12C6EC"/>
</linearGradient>
<linearGradient id="paint16_linear" x1="25.2701" y1="17.9811" x2="27.0524" y2="21.6908" gradientUnits="userSpaceOnUse">
<stop offset="0.1286" stop-color="#FCF84A"/>
<stop offset="0.9414" stop-color="#07C3F2"/>
</linearGradient>
<linearGradient id="paint17_linear" x1="37.375" y1="27.7233" x2="55.7224" y2="54.6273" gradientUnits="userSpaceOnUse">
<stop stop-color="#07C3F2"/>
<stop offset="0.906" stop-color="#00A0FF"/>
</linearGradient>
<linearGradient id="paint18_linear" x1="63.9828" y1="34.2279" x2="40.955" y2="37.1521" gradientUnits="userSpaceOnUse">
<stop stop-color="#07C3F2"/>
<stop offset="1" stop-color="#0895F7"/>
</linearGradient>
<linearGradient id="paint19_linear" x1="58.871" y1="32.3221" x2="42.0686" y2="34.4557" gradientUnits="userSpaceOnUse">
<stop stop-color="#07C3F2"/>
<stop offset="1" stop-color="#0895F7"/>
</linearGradient>
<linearGradient id="paint20_linear" x1="17.9131" y1="21.4352" x2="41.7623" y2="56.4068" gradientUnits="userSpaceOnUse">
<stop offset="0.080633" stop-color="#FCF84A"/>
<stop offset="0.5708" stop-color="#07C3F2"/>
</linearGradient>
<linearGradient id="paint21_linear" x1="20.6263" y1="22.9524" x2="38.8687" y2="60.9217" gradientUnits="userSpaceOnUse">
<stop offset="0.1286" stop-color="#FCF84A"/>
<stop offset="0.4216" stop-color="#07C3F2"/>
</linearGradient>
<linearGradient id="paint22_linear" x1="25.8942" y1="45.7388" x2="41.4053" y2="56.2401" gradientUnits="userSpaceOnUse">
<stop offset="0.09347" stop-color="#087CFA"/>
<stop offset="0.6584" stop-color="#07C3F2"/>
</linearGradient>
<linearGradient id="paint23_linear" x1="53.114" y1="4.1312" x2="61.0723" y2="32.3166" gradientUnits="userSpaceOnUse">
<stop stop-color="#FCF84A"/>
<stop offset="0.4651" stop-color="#07C3F2"/>
<stop offset="0.9409" stop-color="#087CFA"/>
</linearGradient>
<linearGradient id="paint24_linear" x1="70.3112" y1="26.4661" x2="46.7351" y2="29.9386" gradientUnits="userSpaceOnUse">
<stop stop-color="#0863FA"/>
<stop offset="0.9409" stop-color="#1AC8FB"/>
</linearGradient>
<linearGradient id="paint25_linear" x1="19.4582" y1="25.9324" x2="23.1692" y2="31.374" gradientUnits="userSpaceOnUse">
<stop offset="0.1286" stop-color="#FCF84A"/>
<stop offset="0.4216" stop-color="#07C3F2"/>
</linearGradient>
<linearGradient id="paint26_linear" x1="13.9954" y1="13.1836" x2="49.0048" y2="49.546" gradientUnits="userSpaceOnUse">
<stop stop-color="#006396"/>
<stop offset="0.0470796" stop-color="#005682"/>
<stop offset="0.1677" stop-color="#003754"/>
<stop offset="0.2832" stop-color="#001F2F"/>
<stop offset="0.3905" stop-color="#000E15"/>
<stop offset="0.4867" stop-color="#000406"/>
<stop offset="0.5623"/>
<stop offset="0.9138"/>
</linearGradient>
<linearGradient id="paint27_linear" x1="32.1698" y1="10.5805" x2="39.1049" y2="40.4377" gradientUnits="userSpaceOnUse">
<stop offset="0.0669317" stop-color="#42FFFA"/>
<stop offset="0.3409" stop-color="#07C3F2"/>
<stop offset="0.9409" stop-color="#0838AF"/>
</linearGradient>
<linearGradient id="paint28_linear" x1="38.8383" y1="26.7558" x2="56.5593" y2="52.7414" gradientUnits="userSpaceOnUse">
<stop offset="0.1825" stop-color="#07C3F2"/>
<stop offset="0.906" stop-color="#00171C"/>
</linearGradient>
<linearGradient id="paint29_linear" x1="51.1538" y1="14.1923" x2="53.7873" y2="23.5192" gradientUnits="userSpaceOnUse">
<stop stop-color="#FCF84A"/>
<stop offset="0.4651" stop-color="#07C3F2"/>
<stop offset="0.9409" stop-color="#087CFA"/>
</linearGradient>
<linearGradient id="paint30_linear" x1="19.6857" y1="12.917" x2="31.9918" y2="43.806" gradientUnits="userSpaceOnUse">
<stop offset="0.0167591" stop-color="#086DFA"/>
<stop offset="1" stop-color="#08328E"/>
</linearGradient>
<linearGradient id="paint31_linear" x1="36.9138" y1="13.125" x2="33.7779" y2="56.8918" gradientUnits="userSpaceOnUse">
<stop offset="0.0186027" stop-color="#00FE80"/>
<stop offset="0.3413" stop-color="#21DE9B"/>
<stop offset="0.9563" stop-color="#0770B1"/>
</linearGradient>
<linearGradient id="paint32_linear" x1="14.2741" y1="5.7406" x2="24.3885" y2="37.7979" gradientUnits="userSpaceOnUse">
<stop offset="0.1985" stop-color="#07C3F2"/>
<stop offset="0.9403" stop-color="#0845D7"/>
</linearGradient>
<linearGradient id="paint33_linear" x1="9.0432" y1="23.4878" x2="26.749" y2="56.7281" gradientUnits="userSpaceOnUse">
<stop stop-color="#07C3F2"/>
<stop offset="0.9409" stop-color="#0838AF"/>
</linearGradient>
</defs>
</svg>
