<svg width="16" height="16" viewBox="0 0 16 16" xmlns="http://www.w3.org/2000/svg">
  <path fill="#43454A" d="M12.885 7.581A2.501 2.501 0 0 1 9 5.502V3.5H3A1.5 1.5 0 0 0 1.5 5v7A1.5 1.5 0 0 0 3 13.5h9a1.5 1.5 0 0 0 1.5-1.5V7.562l-.278-.206-.338.225h.001Z"/>
  <path fill="none" stroke="#CED0D6" stroke-linecap="round" stroke-miterlimit="10" d="M13.5 7.771V12a1.5 1.5 0 0 1-1.5 1.5H3A1.5 1.5 0 0 1 1.5 12V5A1.5 1.5 0 0 1 3 3.5h5.5M4 6.5h1m2 0h1"/>
  <path fill="#253627" stroke="#57965C" stroke-miterlimit="10" d="M12.052 6.332a.998.998 0 0 1-1.552-.83V1.498a.998.998 0 0 1 1.552-.83l3.003 2.002a.997.997 0 0 1 0 1.66l-3.003 2.002Z"/>
</svg>
