<svg width="16" height="16" viewBox="0 0 16 16" xmlns="http://www.w3.org/2000/svg">
  <path fill="#EBECF0" d="M10.27 7.787A1.498 1.498 0 0 1 8 6.503c0-.746.4-1.07 1.059-1.512-.061-.543-.06-.482-.06-1.009-.594-.43-.483-.307-.812-.755L4.999 3.5c-.827 0-1.5.673-1.5 1.5v7c0 .827.673 1.5 1.5 1.5h4c.827 0 1.5-.673 1.5-1.5V7.981l-.23-.195.001.001Z"/>
  <path fill="none" stroke="#6C707E" stroke-linecap="round" stroke-linejoin="round" d="M10.5 11.5h2m-11 0h2m7-3h2m-11 0h2m-2-3h2m7 2.731V12c0 .827-.673 1.5-1.5 1.5H5c-.827 0-1.5-.673-1.5-1.5V5c0-.827.673-1.5 1.5-1.5h2.769"/>
  <path fill="#F2FCF3" d="M11.752 2.163A1.001 1.001 0 1 1 13.5 1.5a.994.994 0 0 1-.252.663"/>
  <path fill="none" stroke="#369650" stroke-linecap="round" stroke-linejoin="round" d="M11.752 2.163A1.001 1.001 0 1 1 13.5 1.5a.994.994 0 0 1-.252.663m-2.557 1.131L9.5 2.5m6 0-1.19.794m-.197 2.281L15.5 6.5m-6 0 1.387-.925"/>
  <path fill="#F2FCF3" stroke="#369650" stroke-linecap="round" stroke-linejoin="round" d="M12.5 6.5c1.105 0 2-1.007 2-2.25S13.605 2 12.5 2s-2 1.007-2 2.25.895 2.25 2 2.25Z"/>
</svg>
