<svg width="16" height="16" viewBox="0 0 16 16" xmlns="http://www.w3.org/2000/svg">
  <path fill="#43454A" d="M4.874 5.5c-1.767 0-3.378 5.187-3.37 6.5h1.8c-.012-.811 1.056-6.008 2.334-6.455-.076-.02-.151-.045-.237-.045h-.527Zm2.154 0H5.81c-.058 0-.115.025-.172.045 1.744.463 1.11 5.955 3.004 5.955h.842a.792.792 0 0 0 .295-.062C8.25 10.828 9.113 5.5 7.028 5.5ZM12.5 8c-.258 0-.51-.038-.757-.097l-.104.01v.622c-.489 1.345-1.138 2.62-1.86 2.904a.807.807 0 0 0 .302.062h.731c.83 0 1.761-1.452 2.485-2.989l.065-.63a3.24 3.24 0 0 1-.863.12L12.5 8Z"/>
  <path fill="#57965C" d="M14.76 5.406c.15-.353.24-.742.24-1.156 0-.26-.044-.507-.105-.746l.883-.588a.5.5 0 0 0-.554-.832l-.748.499a2.625 2.625 0 0 0-.562-.598c.053-.153.087-.314.087-.484A1.504 1.504 0 0 0 12.5 0c-.827 0-1.5.673-1.5 1.5 0 .17.035.332.087.484-.216.164-.402.37-.562.598l-.748-.499a.5.5 0 1 0-.554.832l.883.588a2.953 2.953 0 0 0-.105.746c0 .414.09.803.24 1.156l-1.017.678a.5.5 0 1 0 .554.832l1.01-.673c.448.466 1.049.757 1.713.757.664 0 1.265-.291 1.713-.757l1.01.673a.497.497 0 0 0 .693-.139.5.5 0 0 0-.14-.693l-1.016-.678-.001.001Z"/>
  <path fill="#253627" d="M11.752 2.164a1.001 1.001 0 1 1 1.748-.663.994.994 0 0 1-.252.663"/>
  <path fill="none" stroke="#57965C" stroke-linecap="round" stroke-linejoin="round" d="M11.752 2.164a1.001 1.001 0 1 1 1.748-.663.994.994 0 0 1-.252.663m-2.557 1.13L9.5 2.5m6 0-1.19.794m-.197 2.282L15.5 6.5m-6 0 1.387-.925"/>
  <path fill="#253627" stroke="#57965C" stroke-linecap="round" stroke-linejoin="round" d="M12.5 6.5c1.105 0 2-1.007 2-2.25S13.605 2 12.5 2s-2 1.007-2 2.25.895 2.25 2 2.25Z"/>
  <path fill="none" stroke="#CED0D6" stroke-linecap="round" stroke-linejoin="round" d="M1.546 11.5c.275-1.805 1.74-6 3.327-6H5.4c2.049 0 1.264 6 3.24 6h.843c.862 0 1.64-1.516 2.2-3.09"/>
  <path fill="none" stroke="#CED0D6" stroke-linecap="round" stroke-linejoin="round" d="M3.348 11.5c.23-1.645 1.276-6 2.463-6h1.218c2.212 0 1.104 6 3.054 6h.73c.877 0 1.869-1.619 2.609-3.25"/>
</svg>
