<svg width="16" height="16" viewBox="0 0 16 16" xmlns="http://www.w3.org/2000/svg">
  <path fill="#43454A" d="m13.613 7.81-.125-.621-2.03.848.152.571c-.486 1.317-1.123 2.551-1.832 2.83a.807.807 0 0 0 .303.062h.731c.956 0 2.048-1.926 2.801-3.69ZM4.874 5.5c-1.767 0-3.378 5.187-3.37 6.5h1.8c-.012-.811 1.056-6.008 2.334-6.455-.076-.02-.151-.045-.237-.045h-.527Z"/>
  <path fill="#43454A" d="M7.028 5.5H5.81c-.058 0-.115.025-.172.045 1.744.463 1.11 5.955 3.004 5.955h.842a.792.792 0 0 0 .295-.062C8.25 10.828 9.113 5.5 7.028 5.5Z"/>
  <path fill="#253627" stroke="#57965C" stroke-miterlimit="10" d="M12.052 6.332a.998.998 0 0 1-1.552-.83V1.498a.998.998 0 0 1 1.552-.83l3.003 2.002a.997.997 0 0 1 0 1.66l-3.003 2.002Z"/>
  <path fill="none" stroke="#CED0D6" stroke-linecap="round" stroke-linejoin="round" d="M1.546 11.5c.275-1.805 1.74-6 3.327-6H5.4c2.049 0 1.264 6 3.24 6h.843c.846 0 1.613-1.462 2.169-3.004"/>
  <path fill="none" stroke="#CED0D6" stroke-linecap="round" stroke-linejoin="round" d="M3.348 11.5c.23-1.645 1.276-6 2.463-6h1.218c2.212 0 1.104 6 3.054 6h.73c.985 0 2.115-2.043 2.87-3.85"/>
</svg>
