<svg width="16" height="16" viewBox="0 0 16 16" xmlns="http://www.w3.org/2000/svg">
  <path fill="#43454A" d="M9 3.5c0 .386-.15.734-.39 1 .24.266.39.614.39 1v2C9 8.327 8.327 9 7.5 9h-2c-.386 0-.734-.15-1-.39-.266.24-.614.39-1 .39a5.5 5.5 0 1 0 11 0A5.5 5.5 0 0 0 9 3.5Z"/>
  <path fill="none" stroke="#CED0D6" stroke-linecap="round" stroke-linejoin="round" d="M9.5 3.522a5.5 5.5 0 0 1 4.964 5.99A5.5 5.5 0 0 1 9 14.501 5.5 5.5 0 0 1 3.522 9.5"/>
  <path fill="none" stroke="#CED0D6" stroke-linecap="round" stroke-linejoin="round" d="M9.5 3.63c.102.053.208.123.316.214.297.25.59.63.845 1.135.51 1.008.838 2.429.838 4.022 0 1.593-.328 3.014-.838 4.022-.256.505-.547.886-.845 1.135-.296.247-.57.343-.816.343s-.52-.095-.818-.343c-.297-.248-.59-.63-.845-1.135-.456-.901-.767-2.133-.827-3.522M14.265 7.5H9.328m4.937 3H3.735"/>
  <path fill="#253627" stroke="#57965C" stroke-linecap="round" stroke-linejoin="round" d="M7.5 1.5h-2v2h2v-2Z"/>
  <path fill="#402929" stroke="#DB5C5C" stroke-linecap="round" stroke-linejoin="round" d="M3.5 1.5h-2v2h2v-2Z"/>
  <path fill="#3D3223" stroke="#F2C55C" stroke-linecap="round" stroke-linejoin="round" d="M7.5 5.5h-2v2h2v-2Z"/>
  <path fill="#25324D" stroke="#548AF7" stroke-linecap="round" stroke-linejoin="round" d="M3.5 5.5h-2v2h2v-2Z"/>
</svg>
