<svg width="16" height="16" viewBox="0 0 16 16" xmlns="http://www.w3.org/2000/svg">
  <path fill="#43454A" d="M12.609 2.433c-1.014-.702-3.068-.801-5.458-.927-1.073-.057-1.975.598-1.975.598l-.083.114c-1.792-.33-1.93-.133-2.285.735-.292.714-.066 1.224.715 1.739-.362.763-1.676 1.225-2.493 1.431l1.4 8.481.208.169c.931-.933 1.727-1.855 2.691-3.033 2.08 1.066 6.365 3.116 6.681 2.678 1.848-2.561 1.164-5.651-.124-8.404.43.066.867.129 1.189.163.962.104-.041-3.448-.468-3.743l.002-.001Z"/>
  <path fill="none" stroke="#CED0D6" stroke-linecap="round" stroke-linejoin="round" d="M12.567 7.682c.78 2.288.926 4.681-.555 6.735-.316.438-4.601-1.612-6.681-2.678a44.289 44.289 0 0 1-2.412 2.747m7.429-8.726s1.822.318 2.73.416c.962.104-.041-3.448-.468-3.743-1.014-.702-3.068-.801-5.458-.928-1.073-.057-1.975.598-1.975.598"/>
  <path fill="none" stroke="#CED0D6" stroke-linecap="round" stroke-linejoin="round" d="M5.902 5.812c-2.652-1.04-3.584-1.661-3.094-2.86.468-1.144.551-1.124 4.554-.267"/>
  <path fill="none" stroke="#CED0D6" stroke-linecap="round" stroke-linejoin="round" d="M1.509 5.988c.773-.242 1.71-.657 2.018-1.273m6.535 4.451c.546 1.092 1.898 2.548 2.886 3.068"/>
</svg>
