<svg width="16" height="16" viewBox="0 0 16 16" xmlns="http://www.w3.org/2000/svg">
  <path fill="#EBECF0" d="M13 2.5H4A1.5 1.5 0 0 0 2.5 4v4.053c.179-.035.359-.053.538-.053.119 0 .227.029.34.048.106-.356.287-.7.542-1.005.522-.623 1.259-1.003 2.021-1.042l.939-.048.105.935c.048.425-.031.856-.199 1.264.537.159 1.108.453 1.443.974.412.643.277 1.49-.312 1.973-.124.102-.186.217-.186.346 0 .118.044.194.064.211.377.137.693.443.852.833l.004.013h4.35a1.5 1.5 0 0 0 1.5-1.5v-7a1.5 1.5 0 0 0-1.5-1.5L13 2.5Z"/>
  <path fill="none" stroke="#6C707E" stroke-linecap="round" stroke-miterlimit="10" d="M2.5 7.544V4A1.5 1.5 0 0 1 4 2.5h9A1.5 1.5 0 0 1 14.5 4v7a1.5 1.5 0 0 1-1.5 1.5H9.179M5 5.5h1m2 0h1"/>
  <path fill="#6C707E" d="M4.278 8.909C4.166 8.018 5.014 7.05 5.991 7c.113 1-.857 1.977-1.713 1.909Z"/>
  <path fill="#EBECF0" stroke="#6C707E" stroke-linejoin="round" d="M5.949 14.5c-.344 0-.754-.326-1.414-.326-.66 0-1.086.326-1.378.326-.481 0-1.657-1.674-1.657-3.136 0-1.266.797-1.864 1.538-1.864.319 0 1.021.379 1.4.379.479 0 .987-.379 1.498-.379.338 0 .872.189 1.031.437a1.927 1.927 0 0 0-.736 1.507c0 .709.393 1.374 1.026 1.608-.344.726-.998 1.448-1.308 1.448Z"/>
</svg>
