<svg width="16" height="16" viewBox="0 0 16 16" xmlns="http://www.w3.org/2000/svg">
  <path fill="#43454A" d="M12 1.5H6A1.5 1.5 0 0 0 4.5 3v6.108A5.267 5.267 0 0 1 5.5 9c.522 0 1.04.078 1.547.232L7.75 8.17a1.496 1.496 0 0 1 2.075-.424c.337.223.565.562.645.954.08.393.002.793-.219 1.127l-.67 1.013a5.449 5.449 0 0 1 1.326 2.659H12a1.5 1.5 0 0 0 1.5-1.5V3A1.5 1.5 0 0 0 12 1.5Z"/>
  <path fill="none" stroke="#CED0D6" stroke-linecap="round" stroke-miterlimit="10" stroke-width="2" d="M8 2h2"/>
  <path fill="none" stroke="#CED0D6" stroke-linecap="round" stroke-miterlimit="10" d="M11.415 13.5H12a1.5 1.5 0 0 0 1.5-1.5V3A1.5 1.5 0 0 0 12 1.5H6A1.5 1.5 0 0 0 4.5 3v5.588"/>
  <path fill="#253627" d="M9.5 15v-.5a4 4 0 0 0-8 0v.5h8Z"/>
  <path fill="none" stroke="#57965C" stroke-linecap="round" stroke-miterlimit="10" d="M7.608 11.102 9 9M2 9l1.392 2.102M9.5 14.5c0-2.206-1.794-4-4-4s-4 1.794-4 4"/>
  <path fill="#57965C" d="M6.972 13.643a.643.643 0 1 0 0-1.286.643.643 0 0 0 0 1.286Zm-2.943 0a.643.643 0 1 0 0-1.286.643.643 0 0 0 0 1.286Z"/>
</svg>
