<!-- Copyright © 2000–2024 JetBrains s.r.o. -->
<svg width="16" height="16" viewBox="0 0 16 16" xmlns="http://www.w3.org/2000/svg">
  <path fill="#43454A" d="m6.27 12.45 4-5.8a1.487 1.487 0 0 1 2.46 0l1.35 1.96c.16.23.41.08.41.08V6c0-.83-.67-1.5-1.5-1.5H8.18l-1.89-2h-3.3c-.83 0-1.5.67-1.5 1.5v8c0 .83.67 1.5 1.5 1.5h3.02a1.5 1.5 0 0 1 .24-1.05z"/>
  <path fill="none" stroke="#CED0D6" stroke-linecap="round" stroke-linejoin="round" d="M14.5 8.33V6c0-.83-.67-1.5-1.5-1.5H8.19l-1.89-2H3c-.83 0-1.5.67-1.5 1.5v8c0 .83.67 1.5 1.5 1.5h2.51"/>
  <path fill="#43454A" stroke="#CED0D6" stroke-linecap="round" stroke-linejoin="round" d="m11.5 7.5-4 5.8 4 2.2 4-2.2z"/>
  <path fill="none" stroke="#CED0D6" stroke-linecap="round" stroke-linejoin="round" d="M11.5 7.62v7.76"/>
</svg>
