<!-- Copyright © 2000–2024 JetBrains s.r.o. -->
<svg width="16" height="16" viewBox="0 0 16 16" xmlns="http://www.w3.org/2000/svg">
  <path fill="#EBECF0" d="M6.5 11.5c0-2.76 2.24-5 5-5 1 0 1.93.31 2.71.82.1.06.29-.04.29-.04V6c0-.83-.67-1.5-1.5-1.5H8.19l-1.89-2H3c-.83 0-1.5.67-1.5 1.5v8c0 .83.67 1.5 1.5 1.5h3.78s.09-.12.07-.19c-.22-.56-.35-1.17-.35-1.81"/>
  <path fill="none" stroke="#6C707E" stroke-linecap="round" stroke-linejoin="round" d="M14.5 6.89V6c0-.83-.67-1.5-1.5-1.5H8.19l-1.89-2H3c-.83 0-1.5.67-1.5 1.5v8c0 .83.67 1.5 1.5 1.5h3.38"/>
  <path fill="#6C707E" d="M11.5 15.5a4 4 0 1 0 0-8 4 4 0 0 0 0 8"/>
  <path fill="#EBECF0" fill-rule="evenodd" d="M11 9.83c0-.28.22-.5.5-.5s.5.22.5.5v1.68c0 .28-.22.5-.5.5s-.5-.22-.5-.5zm.5 4.17a.67.67 0 1 1 0-1.34.67.67 0 0 1 0 1.34" clip-rule="evenodd"/>
</svg>
