<!-- Copyright © 2000–2024 JetBrains s.r.o. -->
<svg width="16" height="16" viewBox="0 0 16 16" xmlns="http://www.w3.org/2000/svg">
  <path fill="#EBECF0" d="M6 11.5C6 8.47 8.47 6 11.5 6c1 0 1.94.27 2.75.74.08.05.25.01.25.01v-.76c0-.83-.67-1.5-1.5-1.5H8.19l-1.89-2H3c-.83 0-1.5.67-1.5 1.5v8c0 .83.67 1.5 1.5 1.5h3.3s.03-.12.01-.18c-.2-.57-.32-1.18-.32-1.82z"/>
  <path fill="none" stroke="#6C707E" stroke-linecap="round" stroke-linejoin="round" d="M14.5 6.31V6c0-.83-.67-1.5-1.5-1.5H8.19l-1.89-2H3c-.83 0-1.5.67-1.5 1.5v8c0 .83.67 1.5 1.5 1.5h2.84"/>
  <path fill="#EBECF0" stroke="#6C707E" stroke-linecap="round" stroke-linejoin="round" d="M11.5 15.5a4 4 0 1 0 0-8 4 4 0 0 0 0 8"/>
  <path fill="#6C707E" fill-rule="evenodd" d="M11 9.83c0-.28.22-.5.5-.5s.5.22.5.5v1.68c0 .28-.22.5-.5.5s-.5-.22-.5-.5zm.5 4.17a.67.67 0 1 1 0-1.34.67.67 0 0 1 0 1.34" clip-rule="evenodd"/>
</svg>
