<svg width="14" height="14" viewBox="0 0 14 14" fill="none" xmlns="http://www.w3.org/2000/svg">
<path fill-rule="evenodd" clip-rule="evenodd" d="M10.5 7C10.7761 7 11 7.22386 11 7.5V10H13.5C13.7761 10 14 10.2239 14 10.5C14 10.7761 13.7761 11 13.5 11H11V13.5C11 13.7761 10.7761 14 10.5 14C10.2239 14 10 13.7761 10 13.5V11H7.5C7.22386 11 7 10.7761 7 10.5C7 10.2239 7.22386 10 7.5 10H10V7.5C10 7.22386 10.2239 7 10.5 7Z" fill="#40B6E0"/>
<path d="M13.993 9.08291C13.9977 8.99044 14 8.89478 14 8.79594C14 8.42669 13.9561 8.10122 13.8683 7.81953C13.7805 7.53783 13.6487 7.29421 13.4731 7.08865C13.2974 6.87928 13.0741 6.70227 12.803 6.55762L12.1272 6.22644C11.9286 6.11604 11.7816 5.96949 11.6861 5.78677C11.5907 5.60405 11.543 5.36994 11.543 5.08444C11.543 4.64667 11.5926 4.32691 11.6919 4.12516C11.795 3.9196 11.9496 3.81682 12.1558 3.81682C12.2894 3.81682 12.4002 3.8644 12.488 3.95957C12.5796 4.05093 12.6464 4.19177 12.6884 4.38211C12.7343 4.56863 12.7572 4.81036 12.7572 5.10728H13.8511C13.8473 4.59338 13.7824 4.17274 13.6564 3.84537C13.5304 3.51799 13.3414 3.27437 13.0893 3.11449C12.8373 2.9508 12.5204 2.86896 12.1386 2.86896C11.7606 2.86896 11.4475 2.9489 11.1993 3.10878C10.955 3.26866 10.7717 3.51419 10.6495 3.84537C10.5273 4.17274 10.4662 4.59147 10.4662 5.10157C10.4662 5.43994 10.5081 5.74034 10.5919 6.00277C11.3346 6.04766 11.9314 6.63292 11.9945 7.37055L12.3047 7.5169C12.5109 7.6311 12.6617 7.79288 12.7572 8.00225C12.8564 8.20781 12.9061 8.47998 12.9061 8.81878C12.9061 8.88143 12.905 8.94184 12.9029 9H13.5C13.6727 9 13.8386 9.02919 13.993 9.08291Z" fill="#9AA7B0" fill-opacity="0.8"/>
<path fill-rule="evenodd" clip-rule="evenodd" d="M9 7.82599C8.97918 7.76416 8.95597 7.70491 8.93039 7.64823C8.79293 7.34369 8.58675 7.11529 8.31183 6.96303C8.20617 6.90368 8.09007 6.8559 7.96352 6.81968C8.04698 6.79165 8.1249 6.75759 8.19729 6.7175C8.44165 6.58046 8.62493 6.3768 8.74711 6.10653C8.8693 5.83625 8.93039 5.49936 8.93039 5.09586C8.93039 4.63144 8.85021 4.24507 8.68984 3.93673C8.53329 3.62458 8.29656 3.39237 7.97965 3.24011C7.66655 3.08403 7.27709 3 6.81127 3H5.33361V11H6.08535C6.03008 10.8436 6 10.6753 6 10.5C6 10.1129 6.14666 9.75999 6.38744 9.49389V7.36844H6.8399C7.10336 7.36844 7.32291 7.41792 7.49855 7.5169C7.67419 7.61587 7.80592 7.76623 7.89374 7.96799C7.98156 8.16974 8.02547 8.42288 8.02547 8.72742C8.02547 8.8235 8.021 8.91436 8.01207 9H9V7.82599ZM6.77117 6.46055C7.11863 6.46055 7.38018 6.35586 7.55582 6.1465C7.73528 5.93713 7.82501 5.62118 7.82501 5.19864C7.82501 4.77229 7.73528 4.45634 7.55582 4.25078C7.38018 4.04141 7.11863 3.93673 6.77117 3.93673H6.38744V6.46055H6.77117Z" fill="#9AA7B0" fill-opacity="0.8"/>
<path fill-rule="evenodd" clip-rule="evenodd" d="M2.65177 11L1.61098 7.71675H1.07102V11H0V3H1.66666C2.12485 3 2.50286 3.09355 2.80068 3.26866C3.10232 3.43996 3.32569 3.69881 3.47078 4.04522C3.61587 4.39162 3.68842 4.82749 3.68842 5.35281C3.68842 5.88193 3.61396 6.3216 3.46505 6.67182C3.31614 7.02203 3.08896 7.28469 2.7835 7.4598C2.74586 7.4809 2.70699 7.50071 2.66686 7.51921L3.80869 11H2.65177ZM1.64948 6.75176C1.96639 6.75176 2.1974 6.63946 2.34249 6.41487C2.48758 6.18647 2.56013 5.83435 2.56013 5.35852C2.56013 4.88649 2.48758 4.53818 2.34249 4.31359C2.1974 4.08519 1.96639 3.97099 1.64948 3.97099H1.07102V6.75176H1.64948Z" fill="#9AA7B0" fill-opacity="0.8"/>
</svg>
