<!-- Copyright 2000-2023 JetBrains s.r.o. and contributors. Use of this source code is governed by the Apache 2.0 license. -->
<svg width="14" height="14" viewBox="0 0 14 14" fill="none" xmlns="http://www.w3.org/2000/svg">
<path d="M2.65177 11L1.50057 7.36844H2.6174L3.80869 11H2.65177ZM0 11V3H1.66666C2.12485 3 2.50286 3.09355 2.80068 3.26866C3.10232 3.43996 3.32569 3.69881 3.47078 4.04522C3.61587 4.39162 3.68842 4.82749 3.68842 5.35281C3.68842 5.88193 3.61396 6.3216 3.46505 6.67182C3.31614 7.02203 3.08896 7.28469 2.7835 7.4598C2.47804 7.6311 2.09049 7.71675 1.62084 7.71675H1.07102V11H0ZM1.64948 6.75176C1.96639 6.75176 2.1974 6.63946 2.34249 6.41487C2.48758 6.18647 2.56013 5.83435 2.56013 5.35852C2.56013 4.88649 2.48758 4.53818 2.34249 4.31359C2.1974 4.08519 1.96639 3.97099 1.64948 3.97099H1.07102V6.75176H1.64948Z" fill="#9AA7B0" fill-opacity="0.8"/>
<path d="M6.81127 3C7.27709 3 7.66655 3.08403 7.97965 3.24011C8.29656 3.39237 8.53329 3.62458 8.68984 3.93673C8.85021 4.24507 8.93039 4.63144 8.93039 5.09586C8.93039 5.49936 8.8693 5.83625 8.74711 6.10653C8.62493 6.3768 8.44165 6.58046 8.19729 6.7175C7.95674 6.85073 7.6551 6.91735 7.29236 6.91735V6.73463C7.70092 6.73463 8.04074 6.81076 8.31183 6.96303C8.58675 7.11529 8.79293 7.34369 8.93039 7.64823C9.06785 7.95276 9.13657 8.33152 9.13657 8.78452C9.13657 9.27558 9.05257 9.6867 8.88457 10.0179C8.71657 10.3453 8.46456 10.5908 8.12856 10.7545C7.79255 10.9182 7.37636 11 6.87999 11H5.33361V3H6.81127ZM6.38744 7.36844V10.0693H6.8399C7.237 10.0693 7.53291 9.95887 7.72764 9.73809C7.92619 9.5173 8.02547 9.18041 8.02547 8.72742C8.02547 8.42288 7.98156 8.16974 7.89374 7.96799C7.80592 7.76623 7.67419 7.61587 7.49855 7.5169C7.32291 7.41792 7.10336 7.36844 6.8399 7.36844H6.38744ZM6.77117 6.46055C7.11863 6.46055 7.38018 6.35586 7.55582 6.1465C7.73528 5.93713 7.82501 5.62118 7.82501 5.19864C7.82501 4.77229 7.73528 4.45634 7.55582 4.25078C7.38018 4.04141 7.11863 3.93673 6.77117 3.93673H6.38744V6.46055H6.77117Z" fill="#9AA7B0" fill-opacity="0.8"/>
<path d="M12.173 11.137C11.7568 11.137 11.4112 11.0495 11.1363 10.8744C10.8652 10.6993 10.6609 10.4347 10.5235 10.0807C10.3899 9.72667 10.323 9.27367 10.323 8.72171H11.4112C11.4112 9.0605 11.4399 9.33839 11.4971 9.55537C11.5544 9.76854 11.6403 9.92842 11.7549 10.035C11.8694 10.1378 12.0126 10.1892 12.1844 10.1892C12.3486 10.1892 12.4842 10.1416 12.5911 10.0464C12.698 9.94745 12.7763 9.79709 12.8259 9.59534C12.8793 9.39358 12.9061 9.13473 12.9061 8.81878C12.9061 8.47998 12.8564 8.20781 12.7572 8.00225C12.6617 7.79288 12.5109 7.6311 12.3047 7.5169L11.6632 7.21427C11.3883 7.06581 11.163 6.8926 10.9874 6.69466C10.8118 6.4929 10.68 6.2626 10.5922 6.00375C10.5082 5.74109 10.4662 5.44036 10.4662 5.10157C10.4662 4.59147 10.5273 4.17274 10.6495 3.84537C10.7717 3.51419 10.955 3.26866 11.1993 3.10878C11.4475 2.9489 11.7606 2.86896 12.1386 2.86896C12.5204 2.86896 12.8373 2.9508 13.0893 3.11449C13.3414 3.27437 13.5304 3.51799 13.6564 3.84537C13.7824 4.17274 13.8473 4.59338 13.8511 5.10728H12.7572C12.7572 4.81036 12.7343 4.56863 12.6884 4.38211C12.6464 4.19177 12.5796 4.05093 12.488 3.95957C12.4002 3.8644 12.2894 3.81682 12.1558 3.81682C11.9496 3.81682 11.795 3.9196 11.6919 4.12516C11.5926 4.32691 11.543 4.64667 11.543 5.08444C11.543 5.36994 11.5907 5.60405 11.6861 5.78677C11.7816 5.96949 11.9286 6.11604 12.1272 6.22644L12.803 6.55762C13.0741 6.70227 13.2974 6.87928 13.4731 7.08865C13.6487 7.29421 13.7805 7.53783 13.8683 7.81953C13.9561 8.10122 14 8.42669 14 8.79594C14 9.32506 13.9332 9.76283 13.7995 10.1092C13.6659 10.4556 13.4635 10.7145 13.1924 10.8858C12.9213 11.0533 12.5815 11.137 12.173 11.137Z" fill="#9AA7B0" fill-opacity="0.8"/>
</svg>
