<svg width="32" height="32" viewBox="0 0 32 32" fill="none" xmlns="http://www.w3.org/2000/svg" data-scaled="true">
<path d="M20.6 0L22.2 20.2L8.3 27.7L0 6.5L20.6 0Z" fill="url(#paint0_linear)"/>
<path d="M11.9 18.4L8.3 27.7L0 6.5L11.9 18.4Z" fill="url(#paint1_linear)"/>
<path d="M20.5999 0L21.1999 11.1H12.0999L7.8999 4L20.5999 0Z" fill="url(#paint2_linear)"/>
<path d="M17.2 10.6001L32 7.6001V21.6001L21.7999 25.5001L17.6 21.7001L17.2 10.6001Z" fill="url(#paint3_linear)"/>
<path d="M32 7.6L18.3 22.4L20.6 0L32 7.6Z" fill="#21D789"/>
<path d="M32.0001 7.5998L24.4001 5.7998L21.6001 25.6998L32.0001 21.5998V7.5998Z" fill="url(#paint4_linear)"/>
<path d="M10.8999 6.5L21.1999 8.1L31.9999 21.6L21.5999 25.7L17.5999 21.7L10.8999 6.5Z" fill="url(#paint5_linear)"/>
<path d="M6.60005 0L21.2001 8.1L16.2 32H7.70005L0.300049 24.4L6.60005 0Z" fill="url(#paint6_linear)"/>
<path d="M11.7 2.7998L5.4 4.7998L3 14.0998L8.3 27.6998L18.4 21.1998L21.2 8.1998V7.9998L11.7 2.7998Z" fill="url(#paint7_linear)"/>
<path d="M19.1001 8.3001L21.2001 8.1001L19.1001 8.3001Z" fill="url(#paint8_linear)"/>
<path d="M10 20.2L14 8.8L6.60005 0L0.300049 24.4L10 20.2Z" fill="url(#paint9_linear)"/>
<path d="M7.70015 32L2.90015 27L7.70015 32H16.2001H7.70015Z" fill="url(#paint10_linear)"/>
<path d="M3 14.0999L6.5 23.0999L8.3 27.6999L11.9 18.3999L3.9 10.3999L3 14.0999Z" fill="url(#paint11_linear)"/>
<path d="M10 20.2002L16.2 32.0002H7.70005L0.300049 24.4002L10 20.2002Z" fill="url(#paint12_linear)"/>
<path d="M10 20.2001L16.2 32.0001L21.2 8.1001L14 8.8001L10 20.2001Z" fill="url(#paint13_linear)"/>
<path d="M18.1 22.3999L16.2 31.9999H7.69995L8.29995 27.6999L18.1 22.3999Z" fill="url(#paint14_linear)"/>
<path d="M8.3 27.7002L12.7 25.3002L10 20.2002L6 21.9002L8.3 27.7002Z" fill="url(#paint15_linear)"/>
<path d="M12.7 25.2999L16.2 31.9999L18.1 22.3999L12.7 25.2999Z" fill="url(#paint16_linear)"/>
<path d="M6.6001 0L21.2001 8.1L17.8001 8.4L14.0001 8.8L6.6001 0Z" fill="url(#paint17_linear)"/>
<path d="M21 7.9998L11.7 2.7998L9.5 3.4998L14 8.7998L17.8 8.3998L21 8.0998V7.9998Z" fill="url(#paint18_linear)"/>
<path d="M19.7 8.1998L21.2 8.0998L19.7999 7.2998L19.7 8.1998Z" fill="url(#paint19_linear)"/>
<path d="M32 21.6001L21.2 8.1001L17.8 8.4001L14 8.8001L32 21.6001Z" fill="url(#paint20_linear)"/>
<path d="M19.3 12.6001L24.2001 16.1001L26 14.1001L21.2001 8.1001L19.7001 8.2001L19.3 12.6001Z" fill="url(#paint21_linear)"/>
<path d="M23.1001 15.3001L32.0001 21.6001L23.7001 11.1001L23.1001 15.3001Z" fill="url(#paint22_linear)"/>
<path d="M32 21.5998L21.6 25.6998L18.3 22.3998L14 8.7998L32 21.5998Z" fill="url(#paint23_linear)"/>
<path d="M19.3 12.6001L18.3 22.4001L24.2001 16.1001L19.3 12.6001Z" fill="url(#paint24_linear)"/>
<path d="M21.6001 25.6998L32.0001 21.5998L23.1001 15.2998L21.6001 25.6998Z" fill="url(#paint25_linear)"/>
<path d="M18.3 22.2998V22.3998L22.8 17.5998L23.1 15.2998L18.9 16.2998L18.3 22.2998Z" fill="url(#paint26_linear)"/>
<path d="M21.6 25.6998L18.3 22.3998L14 8.7998L21.6 25.6998Z" fill="url(#paint27_linear)"/>
<path d="M18.3 22.4L21.6 25.7L18.6 19L18.3 22.4Z" fill="url(#paint28_linear)"/>
<path d="M20.6 0L18.3 22.4L22.8 17.6L24.4 5.8L20.6 0Z" fill="url(#paint29_linear)"/>
<path d="M32.0001 7.6L24.4001 5.8L20.6001 0L32.0001 7.6Z" fill="url(#paint30_linear)"/>
<path d="M26 6H6V26H26V6Z" fill="url(#paint31_linear)"/>
<path d="M15 22H8V23.6H15V22Z" fill="white"/>
<path d="M15.9807 14.923L17.0448 13.6461C17.7897 14.2845 18.5346 14.6037 19.4923 14.6037C20.2371 14.6037 20.6628 14.2845 20.6628 13.8589C20.6628 13.4332 20.3435 13.2204 19.0666 12.7948C17.4705 12.3691 16.4064 11.9435 16.4064 10.3473C16.4064 8.85759 17.5769 7.8999 19.173 7.8999C20.3435 7.8999 21.3012 8.21913 22.1525 8.964L21.1948 10.3473C20.4499 9.81529 19.8115 9.60247 19.0666 9.60247C18.4281 9.60247 18.0025 9.9217 18.0025 10.3473C18.0025 10.8794 18.3217 11.0922 19.7051 11.4114C21.4076 11.7307 22.3653 12.3691 22.3653 13.7525C22.3653 15.3486 21.1948 16.1999 19.3858 16.1999C18.2153 16.1999 16.9384 15.7743 15.9807 14.923Z" fill="white"/>
<path d="M8 8.11279H11.0859C13.6397 8.11279 15.3423 9.81536 15.3423 12.05C15.3423 14.2846 13.6397 15.9872 11.0859 15.9872H8V8.11279ZM9.80897 9.70895V14.4974H11.1923C12.5756 14.4974 13.6397 13.5397 13.6397 12.1564C13.5333 10.6666 12.5756 9.70895 11.0859 9.70895H9.80897Z" fill="white"/>
<defs>
<linearGradient id="paint0_linear" x1="24.8633" y1="13.8613" x2="2.6416" y2="13.8613" gradientUnits="userSpaceOnUse">
<stop offset="0.0782105" stop-color="#21D789"/>
<stop offset="0.8726" stop-color="#FCF84A"/>
</linearGradient>
<linearGradient id="paint1_linear" x1="8.1052" y1="14.0876" x2="4.9338" y2="16.4876" gradientUnits="userSpaceOnUse">
<stop offset="0.0782105" stop-color="white"/>
<stop offset="0.8726" stop-color="#FCF84A"/>
</linearGradient>
<linearGradient id="paint2_linear" x1="16.5938" y1="4.6105" x2="19.8121" y2="-0.0761158" gradientUnits="userSpaceOnUse">
<stop offset="0.095296" stop-color="#BBF8AF" stop-opacity="0"/>
<stop offset="1" stop-color="#21FF79"/>
</linearGradient>
<linearGradient id="paint3_linear" x1="24.5782" y1="9.238" x2="24.5782" y2="35.7105" gradientUnits="userSpaceOnUse">
<stop  offset="0" stop-color="#21D789"/>
<stop offset="1" stop-color="#087CFA"/>
</linearGradient>
<linearGradient id="paint4_linear" x1="34.7341" y1="19.9879" x2="15.7698" y2="11.9522" gradientUnits="userSpaceOnUse">
<stop offset="0.0202374" stop-color="#21D789" stop-opacity="0"/>
<stop offset="1" stop-color="#00FF6A"/>
</linearGradient>
<linearGradient id="paint5_linear" x1="42.1206" y1="33.6079" x2="10.5473" y2="8.0656" gradientUnits="userSpaceOnUse">
<stop offset="0.1049" stop-color="#21D789"/>
<stop offset="0.9668" stop-color="#087CFA"/>
</linearGradient>
<linearGradient id="paint6_linear" x1="27.6666" y1="-2.4631" x2="5.61095" y2="22.5332" gradientUnits="userSpaceOnUse">
<stop offset="0.2348" stop-color="#21D789"/>
<stop offset="0.7396" stop-color="#087CFA"/>
</linearGradient>
<linearGradient id="paint7_linear" x1="-0.2309" y1="6.6128" x2="12.3263" y2="16.0842" gradientUnits="userSpaceOnUse">
<stop offset="0.0782105" stop-color="#21D789"/>
<stop offset="0.8283" stop-color="#087CFA" stop-opacity="0"/>
</linearGradient>
<linearGradient id="paint8_linear" x1="20.0759" y1="8.2623" x2="20.5353" y2="7.6842" gradientUnits="userSpaceOnUse">
<stop offset="0.0782105" stop-color="#21D789" stop-opacity="0"/>
<stop offset="0.8726" stop-color="#01D0FF"/>
</linearGradient>
<linearGradient id="paint9_linear" x1="4.37485" y1="15.0455" x2="12.7305" y2="4.5307" gradientUnits="userSpaceOnUse">
<stop offset="0.3826" stop-color="#087CFA" stop-opacity="0"/>
<stop offset="1" stop-color="#01EFDB"/>
</linearGradient>
<linearGradient id="paint10_linear" x1="9.00315" y1="30.1678" x2="10.6171" y2="28.1368" gradientUnits="userSpaceOnUse">
<stop offset="0.0782105" stop-color="#21D789" stop-opacity="0"/>
<stop offset="0.8726" stop-color="#01D0FF"/>
</linearGradient>
<linearGradient id="paint11_linear" x1="7.5892" y1="9.7201" x2="7.4177" y2="15.7629" gradientUnits="userSpaceOnUse">
<stop offset="0.0782105" stop-color="#21D789"/>
<stop offset="0.8283" stop-color="#087CFA" stop-opacity="0"/>
</linearGradient>
<linearGradient id="paint12_linear" x1="19.2596" y1="14.0587" x2="4.85965" y2="32.5301" gradientUnits="userSpaceOnUse">
<stop offset="0.2348" stop-color="#083FFA"/>
<stop offset="0.7396" stop-color="#087CFA"/>
</linearGradient>
<linearGradient id="paint13_linear" x1="8.4233" y1="1.7609" x2="22.4376" y2="26.7037" gradientUnits="userSpaceOnUse">
<stop offset="0.2458" stop-color="#083FFA"/>
<stop offset="0.9131" stop-color="#087CFA"/>
</linearGradient>
<linearGradient id="paint14_linear" x1="8.46545" y1="22.7802" x2="15.6609" y2="29.9756" gradientUnits="userSpaceOnUse">
<stop offset="0.2348" stop-color="#089FFF"/>
<stop offset="0.7396" stop-color="#087CFA" stop-opacity="0"/>
</linearGradient>
<linearGradient id="paint15_linear" x1="13.1057" y1="28.2626" x2="8.3522" y2="23.0809" gradientUnits="userSpaceOnUse">
<stop offset="0.1526" stop-color="#0832FF"/>
<stop offset="0.9138" stop-color="#087CFA" stop-opacity="0"/>
</linearGradient>
<linearGradient id="paint16_linear" x1="19.8836" y1="30.4537" x2="14.099" y2="23.6077" gradientUnits="userSpaceOnUse">
<stop offset="0.1526" stop-color="#0832FF"/>
<stop offset="0.9138" stop-color="#087CFA" stop-opacity="0"/>
</linearGradient>
<linearGradient id="paint17_linear" x1="13.7641" y1="-7.1754" x2="13.967" y2="9.8664" gradientUnits="userSpaceOnUse">
<stop offset="0.2348" stop-color="#21D789"/>
<stop offset="0.8246" stop-color="#087CFA"/>
</linearGradient>
<linearGradient id="paint18_linear" x1="15.1869" y1="5.0018" x2="14.7485" y2="0.947105" gradientUnits="userSpaceOnUse">
<stop offset="0.095296" stop-color="#BBF8AF" stop-opacity="0"/>
<stop offset="1" stop-color="#21FF79"/>
</linearGradient>
<linearGradient id="paint19_linear" x1="20.9157" y1="8.6581" x2="19.5153" y2="7.0317" gradientUnits="userSpaceOnUse">
<stop  offset="0" stop-color="#21D789" stop-opacity="0"/>
<stop offset="0.9185" stop-color="#21D789"/>
</linearGradient>
<linearGradient id="paint20_linear" x1="28.5734" y1="23.5942" x2="17.8575" y2="7.5204" gradientUnits="userSpaceOnUse">
<stop offset="0.027928" stop-color="#21D789"/>
<stop offset="0.9294" stop-color="#0860FA"/>
</linearGradient>
<linearGradient id="paint21_linear" x1="22.8765" y1="15.0759" x2="21.6551" y2="6.0759" gradientUnits="userSpaceOnUse">
<stop offset="0.0757413" stop-color="#087CFA" stop-opacity="0"/>
<stop offset="1" stop-color="#21D789" stop-opacity="0.6"/>
</linearGradient>
<linearGradient id="paint22_linear" x1="26.0385" y1="16.391" x2="20.1242" y2="8.2267" gradientUnits="userSpaceOnUse">
<stop offset="0.0757413" stop-color="#087CFA" stop-opacity="0"/>
<stop offset="1" stop-color="#4F46C6" stop-opacity="0.6"/>
</linearGradient>
<linearGradient id="paint23_linear" x1="26.9073" y1="24.7046" x2="16.1914" y2="8.63081" gradientUnits="userSpaceOnUse">
<stop  offset="0" stop-color="#18AFAF"/>
<stop offset="0.6591" stop-color="#0860FA"/>
<stop offset="0.9983" stop-color="#084CFA"/>
</linearGradient>
<linearGradient id="paint24_linear" x1="21.8011" y1="20.1842" x2="17.5583" y2="13.4342" gradientUnits="userSpaceOnUse">
<stop offset="0.0757413" stop-color="#087CFA" stop-opacity="0"/>
<stop offset="1" stop-color="#21D789" stop-opacity="0.6"/>
</linearGradient>
<linearGradient id="paint25_linear" x1="26.7522" y1="23.59" x2="19.9804" y2="17.2768" gradientUnits="userSpaceOnUse">
<stop offset="0.0757413" stop-color="#087CFA" stop-opacity="0"/>
<stop offset="1" stop-color="#21D789" stop-opacity="0.6"/>
</linearGradient>
<linearGradient id="paint26_linear" x1="20.0084" y1="18.1854" x2="17.6673" y2="16.0029" gradientUnits="userSpaceOnUse">
<stop  offset="0" stop-color="#087CFA" stop-opacity="0"/>
<stop offset="0.8547" stop-color="#0841FA"/>
</linearGradient>
<linearGradient id="paint27_linear" x1="22.3162" y1="24.9122" x2="12.8488" y2="10.7111" gradientUnits="userSpaceOnUse">
<stop  offset="0" stop-color="#089CFA"/>
<stop offset="0.7396" stop-color="#083CFA"/>
</linearGradient>
<linearGradient id="paint28_linear" x1="21.6456" y1="25.536" x2="17.9092" y2="19.9314" gradientUnits="userSpaceOnUse">
<stop  offset="0" stop-color="#087CFA" stop-opacity="0"/>
<stop offset="0.9787" stop-color="#0860FA"/>
</linearGradient>
<linearGradient id="paint29_linear" x1="21.3526" y1="10.2515" x2="22.8526" y2="3.3944" gradientUnits="userSpaceOnUse">
<stop offset="0.3551" stop-color="#BBF8AF" stop-opacity="0"/>
<stop offset="1" stop-color="#21FF79"/>
</linearGradient>
<linearGradient id="paint30_linear" x1="19.8828" y1="0.4532" x2="28.7113" y2="7.096" gradientUnits="userSpaceOnUse">
<stop offset="0.0202374" stop-color="#BBF8AF" stop-opacity="0"/>
<stop offset="1" stop-color="#21FF79"/>
</linearGradient>
<linearGradient id="paint31_linear" x1="6.1682" y1="6.1682" x2="26.6832" y2="26.6832" gradientUnits="userSpaceOnUse">
<stop offset="0.0284813" stop-color="#002846"/>
<stop offset="0.1369" stop-color="#002038"/>
<stop offset="0.4947" stop-color="#000910"/>
<stop offset="0.6795"/>
</linearGradient>
</defs>
</svg>
