<svg width="16" height="16" viewBox="0 0 16 16" fill="none" xmlns="http://www.w3.org/2000/svg">
<path d="M16 0H0V16H16V0Z" fill="#087CFA"/>
<path d="M15 1H1V15H15V1Z" fill="black"/>
<path d="M9 12H3V13H9V12Z" fill="white"/>
<path d="M3 3H5.1C6.8 3 8 4.32014 8 6.04648C8 7.77283 6.8 9.09297 5.1 9.09297H3V3ZM4.2 4.21859V7.87437H5.1C6.1 7.87437 6.7 7.16353 6.7 6.04648C6.7 4.92944 6 4.21859 5.1 4.21859H4.2Z" fill="white"/>
<path d="M8.19995 8.0999L8.99995 7.1999C9.49995 7.5999 10.1 7.8999 10.8 7.8999C11.3 7.8999 11.7 7.6999 11.7 7.2999C11.7 6.9999 11.5 6.7999 10.5 6.4999C9.29995 6.1999 8.49995 5.8999 8.49995 4.6999C8.49995 3.5999 9.39995 2.8999 10.6 2.8999C11.5 2.8999 12.2 3.1999 12.8 3.6999L12.1 4.6999C11.6 4.2999 11 4.0999 10.5 4.0999C9.99995 4.0999 9.69995 4.2999 9.69995 4.5999C9.69995 4.9999 9.99995 5.0999 11 5.3999C12.3 5.6999 13 6.1999 13 7.1999C13 8.3999 12.1 9.0999 10.8 9.0999C9.89995 9.0999 8.99995 8.7999 8.19995 8.0999Z" fill="white"/>
</svg>
