<svg width="16" height="16" viewBox="0 0 16 16" xmlns="http://www.w3.org/2000/svg">
  <path fill="#9AA7B0" d="M15.85 10.86c-.43-1.58-1.74-3.12-3.5-4.11a8.768 8.768 0 0 0-4.16-1.13c-.2-.42-.62-.71-1.12-.71a1.25 1.25 0 0 0 0 2.5c.53 0 .97-.33 1.16-.79 1.27.03 2.51.37 3.63 1.01 1.53.87 2.66 2.18 3.02 3.51.2.74.14 1.41-.17 1.95-.42.73-1.27 1.17-2.39 1.25-.76.05-1.58-.09-2.39-.37-.29.26-.61.5-.93.72 1 .43 2.03.66 3 .66.13 0 .26 0 .39-.01 1.46-.09 2.6-.71 3.19-1.74.45-.78.54-1.72.27-2.72v-.02"/>
  <path fill="#9AA7B0" d="M8 .45c-2.37 0-4.3 2.78-4.3 6.22.04 1.46.44 2.87 1.14 4.13-.14.2-.23.43-.23.69a1.25 1.25 0 1 0 1.25-1.25c-.06 0-.11.03-.17.03a8.076 8.076 0 0 1-.99-3.62c0-2.87 1.48-5.2 3.3-5.2 1.49 0 2.73 1.56 3.14 3.69.37.13.73.27 1.09.44C11.88 2.67 10.11.45 8 .45Z"/>
  <path fill="#9AA7B0" d="M11.07 8.66c-.69 0-1.25.56-1.25 1.25 0 .29.11.55.28.76a8.022 8.022 0 0 1-2.65 2.66c-1.23.71-2.57 1.06-3.77.99-1.12-.07-1.97-.51-2.39-1.25-.31-.54-.37-1.22-.17-1.95.26-.94.9-1.87 1.8-2.64a8.46 8.46 0 0 1-.17-1.14C1.46 8.3.51 9.56.16 10.85c-.27 1-.18 1.94.27 2.72.59 1.03 1.73 1.65 3.19 1.74.13 0 .26.01.39.01 1.28 0 2.67-.4 3.95-1.14a8.99 8.99 0 0 0 3.02-3.05c.03 0 .06.02.09.02a1.25 1.25 0 0 0 0-2.5v.01"/>
</svg>
