<svg width="16" height="16" viewBox="0 0 16 16" xmlns="http://www.w3.org/2000/svg">
  <path fill="#9AA7B0" d="M12.99 12.64c-.26.35-2.48 3.22-6.2 3.23-.53 0-3.62 0-5.52-2.48-1.78-2.33-1.55-5.56-.15-7.59C2.19 4.25 3.8 3.61 4.2 3.46c2.27-.86 3.8.02 5.84-1.13.84-.47 1.4-1.08 1.73-1.5 0 .39-.04.9-.21 1.47-.19.61-.45 1.22-.64 1.5 2-.26 3.57-2.34 4.12-3.66.38.77.86 2.01.95 3.58.21 3.88-2.14 8.28-6.05 9.66-.31.11-4.77 1.61-6.84-.95-1.17-1.44-1.37-3.91-.14-5.54 1.05-1.39 2.75-1.57 3.05-1.6.51-.06 1.78-.2 2.81.59 1.68 1.29 1.7 4.31.79 4.89-.27.18-.71.19-.98 0-.34-.23-.4-.72-.4-1.26V7.94c0-.07 0-.55-.39-.87-.27-.23-.58-.25-.68-.25H5.83c-.3.02-1.08.12-1.7.72-.95.93-1.02 2.57-.25 3.61.11.14.76 1.04 1.91 1.03 1.13 0 1.79-.87 1.87-.97.09.14.55.8 1.3.87.81.08 1.41-.59 1.56-.76 1.18-1.33 1.05-4.4-.77-6.04-1.64-1.49-3.88-1.09-4.27-1.02-.35.06-2.68.51-3.88 2.76-.06.11-1.27 2.47-.1 4.86.1.21.6 1.2 1.73 2 2.08 1.48 4.54 1.03 5.46.86 2.09-.38 3.54-1.44 4.29-2.08l.01-.02M5.94 7.91c-.18 0-.7.02-1.1.39-.61.58-.54 1.66-.03 2.27.09.11.5.56 1.12.55.5 0 .84-.3.94-.38.56-.5.53-1.24.53-1.34V8.02s0-.05-.02-.08c-.03-.04-.08-.04-.09-.04H5.94v.01" opacity=".8"/>
</svg>
