<svg width="16" height="16" viewBox="0 0 16 16" xmlns="http://www.w3.org/2000/svg">
  <path fill="#9aa7b0" d="M14.182 10 12.7 8.941a4.845 4.845 0 0 0 0-1.882L14.182 6a6.478 6.478 0 0 0-1.356-2.35l-1.658.75a4.813 4.813 0 0 0-1.635-.946l-.18-1.809a6.566 6.566 0 0 0-2.714 0l-.18 1.809a4.813 4.813 0 0 0-1.635.946l-1.658-.75A6.507 6.507 0 0 0 1.81 6l1.478 1.059a4.845 4.845 0 0 0 0 1.882L1.81 10c.282.87.744 1.671 1.356 2.35l1.658-.75c.477.42 1.033.742 1.635.946l.18 1.809a6.566 6.566 0 0 0 2.714 0l.18-1.809a4.813 4.813 0 0 0 1.635-.946l1.658.747A6.495 6.495 0 0 0 14.182 10ZM10.3 8a2.3 2.3 0 1 1-4.6 0 2.3 2.3 0 0 1 4.6 0Z"/>
</svg>
