<svg width="16" height="16" viewBox="0 0 16 16" xmlns="http://www.w3.org/2000/svg">
  <path fill="#9AA7B0" d="M16 8c0-1.16-1.07-2.17-2.77-2.86.58-2.24.48-4.17-.77-4.9-.47-.27-1.03-.32-1.67-.15C9.94.32 8.97.96 8 1.88 7.03.96 6.07.32 5.21.09c-.64-.17-1.2-.12-1.67.15-1.25.72-1.35 2.66-.77 4.9C1.07 5.82 0 6.84 0 8s1.07 2.17 2.77 2.86c-.58 2.24-.48 4.17.77 4.9.29.17.61.25.96.25.22 0 .46-.03.71-.1.85-.23 1.82-.87 2.79-1.79.97.92 1.93 1.56 2.79 1.79.25.07.48.1.71.1.35 0 .68-.08.96-.25 1.25-.72 1.35-2.66.77-4.9C14.93 10.18 16 9.16 16 8m-4.95-6.93c.16-.04.31-.07.45-.07.18 0 .34.04.47.11.67.39.8 1.79.33 3.71-.66-.19-1.38-.34-2.16-.44-.46-.65-.94-1.25-1.43-1.78.84-.79 1.65-1.35 2.35-1.53h-.01Zm.58 8.12c.14.36.27.71.38 1.04-.36.1-.74.19-1.15.27.13-.2.26-.4.38-.61.13-.23.26-.46.38-.7h.01Zm-1.25.19c-.26.45-.53.88-.81 1.29-.5.05-1.02.07-1.57.07s-1.07-.03-1.57-.07c-.28-.41-.55-.84-.81-1.29-.27-.47-.51-.93-.73-1.38.22-.45.46-.91.73-1.38.26-.45.53-.88.81-1.29.5-.05 1.02-.07 1.57-.07s1.07.03 1.57.07c.28.41.55.84.81 1.29.27.47.51.93.73 1.38-.22.45-.46.91-.73 1.38M8 12.69c-.27-.3-.54-.61-.8-.95.26.01.53.02.8.02s.54 0 .8-.02c-.26.34-.53.66-.8.95M4.75 9.88c.12.21.25.41.38.61-.41-.08-.79-.17-1.15-.27.11-.34.24-.69.38-1.04.12.23.25.47.38.7h.01m-.38-3.06c-.14-.36-.27-.71-.38-1.04.36-.1.74-.19 1.15-.27-.13.2-.26.4-.38.61-.13.23-.26.46-.38.7h-.01M8 3.32c.27.3.54.61.8.95-.26-.01-.53-.02-.8-.02s-.54 0-.8.02c.26-.34.53-.66.8-.95m3.25 2.8c-.12-.21-.25-.41-.38-.61.41.08.79.17 1.15.27-.11.34-.24.69-.38 1.04-.12-.23-.25-.47-.38-.7h-.01m-7.21-5c.13-.08.29-.11.47-.11.14 0 .28.02.45.07.7.19 1.51.74 2.35 1.53-.49.53-.97 1.13-1.43 1.78-.78.1-1.5.25-2.16.44-.48-1.92-.34-3.32.33-3.71h-.01M1 8c0-.67.76-1.37 2.05-1.9.21.63.46 1.27.74 1.9-.29.63-.54 1.27-.74 1.9C1.76 9.37 1 8.67 1 8m3.95 6.94c-.37.1-.68.08-.91-.05-.67-.39-.8-1.79-.33-3.71.66.19 1.38.34 2.16.44.46.65.94 1.25 1.43 1.78-.84.79-1.65 1.35-2.35 1.53zm7.01-.05c-.23.13-.54.15-.91.05-.7-.19-1.51-.74-2.35-1.53.49-.53.97-1.13 1.43-1.78.78-.1 1.5-.25 2.16-.44.48 1.92.34 3.32-.33 3.71zm.99-4.99c-.21-.63-.46-1.27-.74-1.9.29-.63.54-1.27.74-1.9C14.24 6.63 15 7.33 15 8c0 .67-.76 1.37-2.05 1.9M9.5 8c0 .83-.67 1.5-1.5 1.5S6.5 8.83 6.5 8 7.17 6.5 8 6.5s1.5.67 1.5 1.5"/>
</svg>
