<!-- Copyright © 2000–2024 JetBrains s.r.o. -->
<svg width="16" height="16" viewBox="0 0 16 16" xmlns="http://www.w3.org/2000/svg">
  <path fill="#f0f1f2" d="m10.47 10.1-1.44.83c-.06.04-.15-.01-.15-.09V8.39c0-.07.04-.14.1-.17l2.12-1.23c.06-.04.15.01.15.09v1.66L13 9.75V4.88L8.78 2.45v2.02l1.44.83c.06.04.07.14 0 .17L8.1 6.7c-.06.04-.14.03-.2 0L5.78 5.47c-.06-.04-.07-.14 0-.17l1.44-.83V2.45L3 4.88v4.87l1.75-1.01V7.08c0-.07.09-.13.15-.09l2.12 1.23c.06.04.1.1.1.17v2.45c0 .07-.08.13-.15.09l-1.44-.83-1.75 1.01L8 13.54l4.22-2.43z"/>
</svg>
