<svg width="16" height="16" viewBox="0 0 16 16" xmlns="http://www.w3.org/2000/svg">
  <path fill="#9aa7b0" d="M4.27 9.07H3.2l2.82-4.89 2.25 3.89H10L6.67 2.3c-.13-.23-.38-.38-.65-.38s-.52.14-.65.38L1.25 9.44a.77.77 0 0 0 0 .75c.13.23.38.38.65.38h1.51l.87-1.5Z"/>
  <path fill="#9aa7b0" d="M12.02 11.57h-1.73l.54.93H5.18l2.25-3.89-.87-1.5-3.33 5.76c-.13.23-.13.52 0 .75s.38.38.65.38h8.25c.27 0 .52-.14.65-.38s.13-.52 0-.75l-.75-1.3Z"/>
  <path fill="#9aa7b0" d="m14.75 9.45-4.12-7.14c-.27-.46-1.03-.46-1.3 0l-.75 1.3.87 1.5.54-.93 2.82 4.89H8.32l-.87 1.5h6.66c.27 0 .52-.14.65-.37s.13-.52 0-.75Z"/>
</svg>
