<!-- Copyright © 2000–2024 JetBrains s.r.o. -->
<svg width="40" height="40" viewBox="0 0 40 40" xmlns="http://www.w3.org/2000/svg">
  <path fill="#fff" d="m27.4 26.31-4.32 2.5c-.19.11-.46-.03-.45-.26v-7.36c0-.22.12-.42.3-.52l6.37-3.68c.19-.12.46.03.45.26v4.99L35 25.27v-14.6l-12.65-7.3v6.06l4.32 2.5c.19.11.2.41 0 .52l-6.37 3.68a.61.61 0 0 1-.6 0l-6.37-3.68c-.19-.11-.2-.41 0-.52l4.32-2.5V3.36L5 10.66v14.6l5.25-3.03v-4.99c0-.22.26-.38.45-.26l6.37 3.68c.19.11.3.31.3.52v7.36c0 .22-.25.38-.45.26l-4.32-2.5-5.25 3.03L20 36.63l12.65-7.3-5.25-3.03Z"/>
</svg>
