<svg width="14" height="14" viewBox="0 0 14 14" fill="none" xmlns="http://www.w3.org/2000/svg">
<path d="M11 7C11 10.0376 8.53757 12.5 5.5 12.5C2.46243 12.5 0 10.0376 0 7C0 3.96243 2.46243 1.5 5.5 1.5C8.53757 1.5 11 3.96243 11 7Z" fill="#57965C"/>
<path fill-rule="evenodd" clip-rule="evenodd" d="M9.03033 4.46967C9.32322 4.76256 9.32322 5.23744 9.03033 5.53033L5.03033 9.53033C4.73744 9.82322 4.26256 9.82322 3.96967 9.53033L1.96967 7.53033C1.67678 7.23744 1.67678 6.76256 1.96967 6.46967C2.26256 6.17678 2.73744 6.17678 3.03033 6.46967L4.5 7.93934L7.96967 4.46967C8.26256 4.17678 8.73744 4.17678 9.03033 4.46967Z" fill="white"/>
</svg>
