<svg width="14" height="14" viewBox="0 0 14 14" fill="none" xmlns="http://www.w3.org/2000/svg">
<path d="M11 7C11 10.0376 8.53757 12.5 5.5 12.5C2.46243 12.5 0 10.0376 0 7C0 3.96243 2.46243 1.5 5.5 1.5C8.53757 1.5 11 3.96243 11 7Z" fill="#DB5C5C"/>
<path d="M6.25 4.25C6.25 3.83579 5.91421 3.5 5.5 3.5C5.08579 3.5 4.75 3.83579 4.75 4.25V7.25C4.75 7.66421 5.08579 8 5.5 8C5.91421 8 6.25 7.66421 6.25 7.25L6.25 4.25Z" fill="white"/>
<path d="M5.5 10.5C5.91421 10.5 6.25 10.1642 6.25 9.75C6.25 9.33579 5.91421 9 5.5 9C5.08579 9 4.75 9.33579 4.75 9.75C4.75 10.1642 5.08579 10.5 5.5 10.5Z" fill="white"/>
</svg>
