<svg width="14" height="14" viewBox="0 0 14 14" fill="none" xmlns="http://www.w3.org/2000/svg">
<path d="M6.23893 1.54921C5.85656 2.16625 5.93313 2.98689 6.46863 3.52239L8.47449 5.52824C9.09933 6.15309 10.1124 6.15308 10.7372 5.52825L10.7869 5.47861C10.9257 5.96177 11 6.4722 11 7C11 10.0376 8.53757 12.5 5.5 12.5C2.46243 12.5 0 10.0376 0 7C0 3.96243 2.46243 1.5 5.5 1.5C5.75058 1.5 5.99724 1.51676 6.23893 1.54921Z" fill="#E55765"/>
<path d="M6.25 4.25C6.25 3.83579 5.91421 3.5 5.5 3.5C5.08579 3.5 4.75 3.83579 4.75 4.25V7.25C4.75 7.66421 5.08579 8 5.5 8C5.91421 8 6.25 7.66421 6.25 7.25L6.25 4.25Z" fill="white"/>
<path d="M5.5 10.5C5.91421 10.5 6.25 10.1642 6.25 9.75C6.25 9.33579 5.91421 9 5.5 9C5.08579 9 4.75 9.33579 4.75 9.75C4.75 10.1642 5.08579 10.5 5.5 10.5Z" fill="white"/>
<path fill-rule="evenodd" clip-rule="evenodd" d="M13.827 0.175736C14.0613 0.410051 14.0613 0.78995 13.827 1.02426L10.0301 4.82114C9.79581 5.05545 9.41591 5.05545 9.1816 4.82114L7.17574 2.81528C6.94142 2.58097 6.94142 2.20107 7.17574 1.96675C7.41005 1.73244 7.78995 1.73244 8.02426 1.96675L9.60586 3.54835L12.9785 0.175736C13.2128 -0.0585787 13.5927 -0.0585787 13.827 0.175736Z" fill="#6C707E"/>
</svg>
