<svg width="14" height="14" viewBox="0 0 14 14" fill="none" xmlns="http://www.w3.org/2000/svg">
<path fill-rule="evenodd" clip-rule="evenodd" d="M13.827 0.175736C14.0613 0.410051 14.0613 0.78995 13.827 1.02426L10.0301 4.82114C9.79581 5.05545 9.41591 5.05545 9.1816 4.82114L7.17574 2.81528C6.94142 2.58097 6.94142 2.20107 7.17574 1.96675C7.41005 1.73244 7.78995 1.73244 8.02426 1.96675L9.60586 3.54835L12.9785 0.175736C13.2128 -0.0585787 13.5927 -0.0585787 13.827 0.175736Z" fill="#6C707E"/>
<path d="M6.23893 1.54921C5.85656 2.16625 5.93313 2.98689 6.46863 3.52239L8.47449 5.52824C9.09933 6.15309 10.1124 6.15308 10.7372 5.52825L10.7869 5.47861C10.9257 5.96177 11 6.4722 11 7C11 10.0376 8.53757 12.5 5.5 12.5C2.46243 12.5 0 10.0376 0 7C0 3.96243 2.46243 1.5 5.5 1.5C5.75058 1.5 5.99724 1.51676 6.23893 1.54921Z" fill="#55A76A"/>
<path d="M7.69279 4.74655L8.47449 5.52825C8.57076 5.62452 8.67624 5.70595 8.7881 5.77256L5.03033 9.53033C4.73744 9.82323 4.26256 9.82323 3.96967 9.53033L1.96967 7.53033C1.67678 7.23744 1.67678 6.76257 1.96967 6.46967C2.26256 6.17678 2.73744 6.17678 3.03033 6.46967L4.5 7.93934L7.69279 4.74655Z" fill="white"/>
</svg>
