<svg xmlns="http://www.w3.org/2000/svg" width="16" height="16" viewBox="0 0 16 16">
  <g>
    <g>
      <path d="M3.07,8.66H2V8A5.948,5.948,0,0,1,6.611,2.242a5.14,5.14,0,0,0-.527,1.14A5,5,0,0,0,3,8,4.876,4.876,0,0,0,3.07,8.66ZM12.6,9.921A4.99,4.99,0,0,1,5.05,12l1.06-1.06-.71-.71L2.29,9.96l.28,3.1.71.71,1.044-1.044A6.03,6.03,0,0,0,8.01,13.989a5.974,5.974,0,0,0,5.818-4.637A5.189,5.189,0,0,1,12.6,9.921Z" fill="#6e6e6e"/>
      <path d="M11.012,1h0A4,4,0,1,0,15,5.012,4,4,0,0,0,11.012,1ZM11,8V2a3,3,0,1,1,0,6Z" fill="#59a869"/>
    </g>
  </g>
</svg>
