<svg xmlns="http://www.w3.org/2000/svg" width="16" height="16" viewBox="0 0 16 16">
  <g>
    <g>
      <path d="M3.07,8.66H2V8A5.947,5.947,0,0,1,6.608,2.243a5.179,5.179,0,0,0-.525,1.14A5,5,0,0,0,3,8,4.876,4.876,0,0,0,3.07,8.66ZM12.6,9.922A4.991,4.991,0,0,1,5.05,12l1.06-1.06-.71-.71L2.29,9.96l.28,3.1.71.71,1.044-1.044A6.03,6.03,0,0,0,8.01,13.989a5.974,5.974,0,0,0,5.818-4.636A5.229,5.229,0,0,1,12.6,9.922Z" fill="#afb1b3"/>
      <path d="M11,1a4,4,0,1,0,4,4A4,4,0,0,0,11,1Zm.667,7H10.533V6.9h1.134ZM13,4c0,.9-1.333,1.294-1.333,2.4H10.533c0-2.135,1.234-1.368,1.234-3.2a3.192,3.192,0,0,0-1.734,0V4H9V3.2C9,2.5,9.84,2,11,2s2,.5,2,1.2Z" fill="#3592c4"/>
    </g>
  </g>
</svg>
