<svg xmlns="http://www.w3.org/2000/svg" width="16" height="16" viewBox="0 0 16 16">
  <g>
    <g>
      <path d="M13.919,8.777a5.971,5.971,0,0,1-9.6,3.949L3.28,13.77l-.71-.71-.28-3.1,3.11.27.71.71L5.05,12a4.96,4.96,0,0,0,7.4-1.817A10.451,10.451,0,0,0,13.919,8.777ZM3,8A4.982,4.982,0,0,1,5.933,3.466c-.039-.311-.069-.638-.092-.977a5.819,5.819,0,0,0-1.158.577A6,6,0,0,0,2,8v.66H3.07A4.876,4.876,0,0,1,3,8Z" fill="#6e6e6e"/>
      <path d="M11,1a13.666,13.666,0,0,0-4,.68c.14,5,2,6.65,4,8.1,2-1.45,3.85-3.1,4-8.1A13.778,13.778,0,0,0,11,1Zm0,7.657C9.383,7.4,8.162,5.933,7.931,2.341A12.776,12.776,0,0,1,11,1.9Z" fill="#6e6e6e"/>
    </g>
  </g>
</svg>
