<svg xmlns="http://www.w3.org/2000/svg" width="16" height="16">
  <path d="M2.63 3.07 2 3.33V4c0 7 2.84 9 5.42 10.82l.34.18H8V2A15.881 15.881 0 0 0 2.63 3.07ZM8.65 14.77C11.16 13 14 11 14 4V3.33l-.62-.26A15.981 15.981 0 0 0 8 2V15h.32Z" fill="#f4f4f4"/>
  <path d="M8 14C5.59 12.3 3 10.54 3 4A14.812 14.812 0 0 1 8 3ZM8 14c2.41-1.7 5-3.46 5-10A14.812 14.812 0 0 0 8 3Z" fill="#323232"/>
  <path d="M4,4.7c.15,5,2,6.62,4,8.07H8V4A13.777,13.777,0,0,0,4,4.7Z" fill="#323232"/>
  <path d="M12,4.7A13.777,13.777,0,0,0,8,4v8.77C10.06,11.29,11.85,9.63,12,4.7Z" fill="#ebebeb"/>
  <g>
    <path d="M14.259,3,0,10.371v.872L.908,13h.8L16,5.611V4.757L15.092,3Z" fill="#f4f4f4"/>
    <path d="M.992,10.984l13.5-6.976L15,5,1.506,11.978Z" fill="#e51400"/>
  </g>
</svg>
