<svg xmlns="http://www.w3.org/2000/svg" width="16" height="16" viewBox="0 0 16 16">
  <g>
    <g>
      <path d="M14,8.586,9.414,4l4-4H12L8,4,5,10,1,14l1,1H6l2-2,6-3,2-2V6.586ZM5.586,14H2.414L6,10.414,7.586,12Zm1.3-3.531L6.217,9.8l2.39-4.782.667.667Z" fill="#6e6e6e"/>
      <path d="M2.5,3A.5.5,0,1,0,2,2.5.5.5,0,0,0,2.5,3Zm-1,0a.5.5,0,1,0,.5.5A.5.5,0,0,0,1.5,3Zm1,2A.5.5,0,1,0,2,4.5.5.5,0,0,0,2.5,5Zm-1,0a.5.5,0,1,0,.5.5A.5.5,0,0,0,1.5,5Zm1,2A.5.5,0,1,0,2,6.5.5.5,0,0,0,2.5,7Zm-1,0a.5.5,0,1,0,.5.5A.5.5,0,0,0,1.5,7Zm1,2A.5.5,0,1,0,2,8.5.5.5,0,0,0,2.5,9Zm-1,0a.5.5,0,1,0,.5.5A.5.5,0,0,0,1.5,9Zm1,2a.5.5,0,1,0-.5-.5A.5.5,0,0,0,2.5,11Zm-1,0a.5.5,0,1,0,.5.5A.5.5,0,0,0,1.5,11Zm0,2a.5.5,0,1,0,.5.5A.5.5,0,0,0,1.5,13Zm1,0a.5.5,0,1,0-.5-.5A.5.5,0,0,0,2.5,13Zm1-12a.5.5,0,1,0,.5.5A.5.5,0,0,0,3.5,1Zm1,2A.5.5,0,1,0,4,2.5.5.5,0,0,0,4.5,3Zm-1,0a.5.5,0,1,0,.5.5A.5.5,0,0,0,3.5,3Zm1,2A.5.5,0,1,0,4,4.5.5.5,0,0,0,4.5,5Zm-1,0a.5.5,0,1,0,.5.5A.5.5,0,0,0,3.5,5Zm1,2A.5.5,0,1,0,4,6.5.5.5,0,0,0,4.5,7Zm-1,0a.5.5,0,1,0,.5.5A.5.5,0,0,0,3.5,7Zm1,2A.5.5,0,1,0,4,8.5.5.5,0,0,0,4.5,9Zm-1,0a.5.5,0,1,0,.5.5A.5.5,0,0,0,3.5,9Zm1,2a.5.5,0,1,0-.5-.5A.5.5,0,0,0,4.5,11Zm-1,0a.5.5,0,1,0,.5.5A.5.5,0,0,0,3.5,11Z" fill="#6e6e6e"/>
    </g>
  </g>
</svg>
