<svg width="16" height="16" viewBox="0 0 16 16" fill="none" xmlns="http://www.w3.org/2000/svg">
<path d="M7.99985 0.519623L8.76765 7.90492L5.48661 10.7609L5.47677 10.7567L0.615234 15.0011L7.99985 0.519623Z" fill="url(#paint0_linear_5332_56976)"/>
<path d="M16 10H14.489C14.3058 9.75616 14.0794 9.54804 13.821 9.386L14.854 8.354L14.146 7.646L12.766 9.027C12.6779 9.0129 12.5891 9.00389 12.5 9C12.4109 9.00389 12.3221 9.0129 12.234 9.027L10.854 7.646L10.146 8.354L11.179 9.386C10.9206 9.54804 10.6942 9.75616 10.511 10H9V11H10.05C10.0171 11.1646 10.0003 11.3321 10 11.5V12H9V13H10V13.5C10.0003 13.6679 10.0171 13.8354 10.05 14H9V15H10.511C10.7416 15.3103 11.0415 15.5623 11.3869 15.736C11.7322 15.9096 12.1134 16 12.5 16C12.8866 16 13.2678 15.9096 13.6131 15.736C13.9585 15.5623 14.2584 15.3103 14.489 15H16V14H14.95C14.9829 13.8354 14.9997 13.6679 15 13.5V13H16V12H15V11.5C14.9997 11.3321 14.9829 11.1646 14.95 11H16V10ZM13.5 14H11.5V13H13.5V14ZM13.5 12H11.5V11H13.5V12Z" fill="#62B543"/>
<path d="M8 11.8376L5.47677 10.7567L0.615234 15.0011H8V11.8376Z" fill="url(#paint1_linear_5332_56976)"/>
<path d="M10.9736 6.35098L8 0.519623L8.80679 8.279L10.8543 6.23154L10.9736 6.35098Z" fill="url(#paint2_linear_5332_56976)"/>
<defs>
<linearGradient id="paint0_linear_5332_56976" x1="4.13355" y1="-5.25933" x2="-7.38965" y2="1.64919" gradientUnits="userSpaceOnUse">
<stop stop-color="#7777E9"/>
<stop offset="1" stop-color="#01009A"/>
</linearGradient>
<linearGradient id="paint1_linear_5332_56976" x1="18.3386" y1="13.2254" x2="14.3088" y2="6.52139" gradientUnits="userSpaceOnUse">
<stop stop-color="#01B202"/>
<stop offset="1" stop-color="#0FE90F"/>
</linearGradient>
<linearGradient id="paint2_linear_5332_56976" x1="4.4092" y1="8.15849" x2="15.9417" y2="13.8777" gradientUnits="userSpaceOnUse">
<stop stop-color="#B83535"/>
<stop offset="1" stop-color="#FD5B5A"/>
</linearGradient>
</defs>
</svg>
