<svg width="16" height="16" viewBox="0 0 16 16" fill="none" xmlns="http://www.w3.org/2000/svg">
<path fill-rule="evenodd" clip-rule="evenodd" d="M14.4482 10.7287L12 6.5L7.1113 14.9441C3.66491 14.5075 1 11.5649 1 8C1 4.134 4.134 1 8 1C11.866 1 15 4.134 15 8C15 8.96804 14.8035 9.89019 14.4482 10.7287Z" fill="#F4AF3D" fill-opacity="0.6"/>
<path fill-rule="evenodd" clip-rule="evenodd" d="M10.5667 13.7L15.9333 16H7.93335L10.5667 13.7Z" fill="url(#paint0_linear_7447_2474)"/>
<path fill-rule="evenodd" clip-rule="evenodd" d="M11.9333 8.33334L12.4 12.2L7.93335 16L11.9333 8.33334Z" fill="url(#paint1_linear_7447_2474)"/>
<path fill-rule="evenodd" clip-rule="evenodd" d="M11.9333 8.33334L15.9333 16L12.6 14.6L11.9333 8.33334Z" fill="url(#paint2_linear_7447_2474)"/>
<path fill-rule="evenodd" clip-rule="evenodd" d="M7.29388 11L4.99988 5H6.19998C6.19998 5 7.98288 9.709 7.99988 9.8L9.79998 5H10.9999L8.70588 11H7.29388Z" fill="#231F20" fill-opacity="0.7"/>
<defs>
<linearGradient id="paint0_linear_7447_2474" x1="17.5335" y1="15.0378" x2="15.3494" y2="11.4058" gradientUnits="userSpaceOnUse">
<stop stop-color="#01B202"/>
<stop offset="1" stop-color="#0FE90F"/>
</linearGradient>
<linearGradient id="paint1_linear_7447_2474" x1="9.8391" y1="5.2739" x2="3.67371" y2="9.05581" gradientUnits="userSpaceOnUse">
<stop stop-color="#7777E9"/>
<stop offset="1" stop-color="#01009A"/>
</linearGradient>
<linearGradient id="paint2_linear_7447_2474" x1="9.98833" y1="12.3775" x2="16.1779" y2="15.518" gradientUnits="userSpaceOnUse">
<stop stop-color="#B83535"/>
<stop offset="1" stop-color="#FD5B5A"/>
</linearGradient>
</defs>
</svg>
