<!-- Copyright 2000-2025 JetBrains s.r.o. and contributors. Use of this source code is governed by the Apache 2.0 license. -->
<svg width="16" height="16" viewBox="0 0 16 16" fill="none" xmlns="http://www.w3.org/2000/svg">
<path fill-rule="evenodd" clip-rule="evenodd" d="M8.00098 1.5C9.49206 1.50011 10.7012 2.70909 10.7012 4.2002C10.7012 4.27954 10.6962 4.35794 10.6895 4.43555C11.1604 4.69589 11.5656 5.06069 11.8721 5.5L13.9795 4.36035C14.2223 4.2292 14.5249 4.31979 14.6562 4.5625C14.7875 4.80525 14.6977 5.10878 14.4551 5.24023L12.3203 6.39453C12.436 6.74214 12.5 7.11353 12.5 7.5V8.5H14.9004C15.1765 8.50002 15.4004 8.72387 15.4004 9C15.4002 9.27601 15.1764 9.49998 14.9004 9.5H12.5V10C12.5 10.4895 12.4199 10.9602 12.2754 11.4014L14.4668 12.667C14.7058 12.8051 14.7874 13.1105 14.6494 13.3496C14.5114 13.5887 14.2059 13.6711 13.9668 13.5332L11.8584 12.3154C11.0714 13.6241 9.6383 14.5 8 14.5C6.36074 14.5 4.92636 13.6234 4.13965 12.3135L2.03027 13.5332C1.79113 13.6713 1.48475 13.5888 1.34668 13.3496C1.2089 13.1105 1.29125 12.805 1.53027 12.667L3.72266 11.3994C3.57862 10.9589 3.5 10.4887 3.5 10V9.5H1.09961C0.823477 9.5 0.599626 9.27613 0.599609 9C0.599609 8.72386 0.823467 8.5 1.09961 8.5H3.5V7.5C3.5 7.11364 3.56309 6.74206 3.67871 6.39453L1.54199 5.23926C1.29943 5.1079 1.20884 4.80526 1.33984 4.5625C1.47108 4.3197 1.77471 4.22934 2.01758 4.36035L4.12695 5.5C4.43377 5.06007 4.83965 4.69494 5.31152 4.43457C5.30487 4.35731 5.30079 4.27918 5.30078 4.2002C5.30078 2.70903 6.50981 1.5 8.00098 1.5ZM7 5C5.61929 5 4.5 6.11929 4.5 7.5V10C4.5 11.933 6.067 13.5 8 13.5C9.933 13.5 11.5 11.933 11.5 10V7.5C11.5 6.11929 10.3807 5 9 5H7ZM8.00098 2.5C7.10615 2.5 6.37351 3.19161 6.30664 4.06934C6.53081 4.02429 6.76258 4 7 4H9C9.23777 4 9.4699 4.02413 9.69434 4.06934C9.62742 3.19171 8.89569 2.5001 8.00098 2.5Z" fill="#3574F0"/>
<path d="M9 5C10.3807 5 11.5 6.11929 11.5 7.5V10C11.5 11.933 9.933 13.5 8 13.5C6.067 13.5 4.5 11.933 4.5 10V7.5C4.5 6.11929 5.61929 5 7 5H9Z" fill="#EDF3FF"/>
<path d="M8.00098 2.5C8.89569 2.5001 9.62742 3.19171 9.69434 4.06934C9.4699 4.02413 9.23777 4 9 4H7C6.76258 4 6.53081 4.02429 6.30664 4.06934C6.37351 3.19161 7.10615 2.5 8.00098 2.5Z" fill="#EDF3FF"/>
</svg>
