<!-- Copyright 2000-2025 JetBrains s.r.o. and contributors. Use of this source code is governed by the Apache 2.0 license. -->
<svg width="16" height="16" viewBox="0 0 16 16" fill="none" xmlns="http://www.w3.org/2000/svg">
<path fill-rule="evenodd" clip-rule="evenodd" d="M7 2C9.76142 2 12 4.23858 12 7C12 8.20086 11.5757 9.30206 10.8701 10.1641L13.8525 13.1426C14.0477 13.3377 14.0476 13.6543 13.8525 13.8496C13.6574 14.0447 13.3408 14.0446 13.1455 13.8496L10.1631 10.8711C9.30124 11.5762 8.20037 12 7 12C4.23858 12 2 9.76142 2 7C2 4.23858 4.23858 2 7 2ZM7 3C4.79086 3 3 4.79086 3 7C3 9.20914 4.79086 11 7 11C9.20914 11 11 9.20914 11 7C11 4.79086 9.20914 3 7 3Z" fill="#548AF7"/>
<circle cx="7" cy="7" r="4" fill="#25324D"/>
</svg>
