<!-- Copyright 2000-2025 JetBrains s.r.o. and contributors. Use of this source code is governed by the Apache 2.0 license. -->
<svg width="16" height="16" viewBox="0 0 16 16" fill="none" xmlns="http://www.w3.org/2000/svg">
<path d="M12 14C12.5523 14 13 13.5523 13 13C13 12.4477 12.5523 12 12 12C11.4477 12 11 12.4477 11 13C11 13.5523 11.4477 14 12 14Z" fill="#3574F0"/>
<path fill-rule="evenodd" clip-rule="evenodd" d="M12 16C9 16 8 13 8 13C8 13 9 10 12 10C15 10 16 13 16 13C16 13 15 16 12 16ZM14.9024 12.9785L14.9131 13L14.9024 13.0215C14.787 13.2525 14.6081 13.5582 14.3568 13.8598C13.8602 14.4557 13.1189 15 12 15C10.8811 15 10.1398 14.4557 9.64322 13.8598C9.39186 13.5582 9.21302 13.2525 9.09755 13.0215L9.08686 13L9.09755 12.9785C9.21302 12.7475 9.39186 12.4418 9.64322 12.1402C10.1398 11.5443 10.8811 11 12 11C13.1189 11 13.8602 11.5443 14.3568 12.1402C14.6081 12.4418 14.787 12.7475 14.9024 12.9785Z" fill="#3574F0"/>
<path d="M13 2C14.1046 2 15 2.89543 15 4V10.002C14.7067 9.77845 14.3739 9.57563 14 9.41113V4C14 3.44772 13.5523 3 13 3H3C2.44772 3 2 3.44772 2 4V12C2 12.5523 2.44772 13 3 13H7V14H3C1.89543 14 1 13.1046 1 12V4C1 2.89543 1.89543 2 3 2H13Z" fill="#6C707E"/>
<path d="M4.14648 5.14648C4.31731 4.97566 4.58132 4.95396 4.77539 5.08203L4.85352 5.14648L6.85352 7.14648L6.91797 7.22461C7.04613 7.41869 7.02438 7.68265 6.85352 7.85352L4.85352 9.85352C4.65824 10.0487 4.34171 10.0487 4.14648 9.85352C3.95135 9.65829 3.95137 9.34173 4.14648 9.14648L5.79297 7.5L4.14648 5.85352L4.08203 5.77539C3.95395 5.58136 3.97575 5.31733 4.14648 5.14648Z" fill="#6C707E"/>
</svg>
