<svg width="16" height="16" viewBox="0 0 16 16" fill="none" xmlns="http://www.w3.org/2000/svg">
<path d="M7.5 0C6.11929 0 5 1.11929 5 2.5V3H2.5C2.22386 3 2 3.22386 2 3.5V6.5C2 6.77614 2.22386 7 2.5 7H3.5C4.15311 7 4.70873 7.4174 4.91465 8H5.94999C5.71836 6.85888 4.70948 6 3.5 6H3V4H5.5C5.77614 4 6 3.77614 6 3.5V2.5C6 1.67157 6.67157 1 7.5 1C8.32843 1 9 1.67157 9 2.5V3.5C9 3.77614 9.22386 4 9.5 4H12V6.5C12 6.77614 12.2239 7 12.5 7H13.5C14.1531 7 14.7087 7.4174 14.9146 8H15.95C15.7184 6.85888 14.7095 6 13.5 6H13V3.5C13 3.22386 12.7761 3 12.5 3H10V2.5C10 1.11929 8.88071 0 7.5 0Z" fill="#548AF7"/>
<path d="M5.94999 8H14.9146C14.7087 7.4174 14.1531 7 13.5 7H12.5C12.2239 7 12 6.77614 12 6.5V4H9.5C9.22386 4 9 3.77614 9 3.5V2.5C9 1.67157 8.32843 1 7.5 1C6.67157 1 6 1.67157 6 2.5V3.5C6 3.77614 5.77614 4 5.5 4H3V6H3.5C4.70948 6 5.71836 6.85888 5.94999 8Z" fill="#25324D"/>
<path d="M3 9H2C0.895431 9 0 9.89543 0 11V12H1V11C1 10.4477 1.44772 10 2 10H3V9Z" fill="#CED0D6"/>
<path d="M4 9V10H5C5.55228 10 6 10.4477 6 11V12H7V11C7 9.89543 6.10457 9 5 9H4Z" fill="#CED0D6"/>
<path d="M7 13H6V14C6 14.5523 5.55228 15 5 15H4V16H5C6.10457 16 7 15.1046 7 14V13Z" fill="#CED0D6"/>
<path d="M3 16V15H2C1.44772 15 1 14.5523 1 14V13H0V14C0 15.1046 0.89543 16 2 16H3Z" fill="#CED0D6"/>
<path d="M12 12H14V11H12V12Z" fill="#CED0D6"/>
<path d="M12 14H14V13H12V14Z" fill="#CED0D6"/>
<path fill-rule="evenodd" clip-rule="evenodd" d="M11 9C10.4477 9 10 9.44772 10 10V15C10 15.5523 10.4477 16 11 16H15C15.5523 16 16 15.5523 16 15V10C16 9.44772 15.5523 9 15 9H11ZM15 10H11V15H15V10Z" fill="#CED0D6"/>
</svg>
