<!-- Copyright 2000-2024 JetBrains s.r.o. and contributors. Use of this source code is governed by the Apache 2.0 license. -->
<svg width="16" height="16" viewBox="0 0 16 16" fill="none" xmlns="http://www.w3.org/2000/svg">
<rect x="2" y="6" width="1" height="4" fill="#208A3C"/>
<rect x="13" y="6" width="1" height="4" fill="#208A3C"/>
<rect x="6" y="13" width="4" height="1" fill="#208A3C"/>
<rect x="6" y="2" width="4" height="1" fill="#208A3C"/>
<rect x="3" y="3" width="10" height="10" fill="#F2FCF3"/>
<path fill-rule="evenodd" clip-rule="evenodd" d="M2 5H3V4C3 3.44772 3.44772 3 4 3H5V2H4C2.89543 2 2 2.89543 2 4V5Z" fill="#208A3C"/>
<path fill-rule="evenodd" clip-rule="evenodd" d="M2 11H3V12C3 12.5523 3.44772 13 4 13H5V14H4C2.89543 14 2 13.1046 2 12V11Z" fill="#208A3C"/>
<path fill-rule="evenodd" clip-rule="evenodd" d="M14 5H13V4C13 3.44772 12.5523 3 12 3H11V2H12C13.1046 2 14 2.89543 14 4V5Z" fill="#208A3C"/>
<path fill-rule="evenodd" clip-rule="evenodd" d="M14 11H13V12C13 12.5523 12.5523 13 12 13H11V14H12C13.1046 14 14 13.1046 14 12V11Z" fill="#208A3C"/>
</svg>
