<svg width="16" height="16" viewBox="0 0 16 16" fill="none" xmlns="http://www.w3.org/2000/svg">
<path fill-rule="evenodd" clip-rule="evenodd" d="M8.02015 2.94037C8.20966 2.95963 8.351 3.12348 8.34177 3.31427V3.40497C8.33333 3.49957 8.31981 3.59295 8.30071 3.68644C8.27339 3.85607 8.26247 4.02794 8.2681 4.19967C8.27763 4.24411 8.30418 4.28348 8.34205 4.30961L8.36254 4.32376L8.3636 4.34864L8.36505 4.37169C8.36621 4.3888 8.36778 4.41218 8.36889 4.43514C9.27212 4.52701 10.1143 4.93386 10.7479 5.58313L10.8404 5.51728L10.8609 5.52079C10.9091 5.52905 10.9586 5.52424 11.0042 5.50694C11.138 5.4025 11.2614 5.286 11.3731 5.15826C11.4341 5.08553 11.4991 5.01635 11.5679 4.95105L11.571 4.94809L11.6337 4.89835C11.679 4.85353 11.7358 4.82216 11.7979 4.8078C11.861 4.79321 11.9269 4.79676 11.988 4.81804C12.0492 4.83935 12.1031 4.87755 12.1435 4.92822C12.1839 4.97888 12.2091 5.03995 12.2162 5.10435C12.2234 5.16875 12.2121 5.23385 12.1838 5.29212C12.1559 5.34942 12.1127 5.39782 12.0589 5.4319L11.9937 5.48458C11.9147 5.53712 11.8326 5.58491 11.7481 5.62809C11.5993 5.7128 11.4577 5.81179 11.327 5.92377C11.298 5.95944 11.2836 6.00484 11.2869 6.05031L11.2886 6.07433L11.199 6.15718C11.6974 6.91858 11.9088 7.83252 11.7953 8.73545L11.8919 8.76409L11.9019 8.78177C11.9262 8.82499 11.9614 8.86092 12.0035 8.88564C12.1686 8.92966 12.3378 8.95741 12.5088 8.96848C12.604 8.97046 12.699 8.97791 12.7934 8.99078L12.7982 8.99144L12.8807 9.01125C12.9428 9.0201 13.0014 9.04581 13.0499 9.0856C13.0991 9.12593 13.1361 9.17915 13.1568 9.23931C13.177 9.29952 13.1803 9.36451 13.1659 9.42639C13.1516 9.48827 13.1204 9.54496 13.0757 9.59014C13.0311 9.63532 12.9748 9.66722 12.913 9.68228C12.854 9.6967 12.7922 9.69516 12.734 9.67789H12.7239L12.7242 9.6765C12.7147 9.6742 12.7037 9.67204 12.6916 9.66964L12.6876 9.66884C12.6746 9.66627 12.66 9.66333 12.6476 9.65996L12.6456 9.65943C12.5555 9.63104 12.4667 9.59726 12.3798 9.55728C12.2186 9.4973 12.0533 9.44471 11.8854 9.41223C11.8396 9.41184 11.7952 9.42863 11.7611 9.45965L11.743 9.4762L11.6373 9.4576C11.3514 10.3218 10.7682 11.0568 9.99168 11.5311C10.0014 11.5563 10.0123 11.581 10.0241 11.6053L10.0365 11.6305L10.0213 11.6542C10.0085 11.6743 9.99984 11.6967 9.99585 11.7201C9.99213 11.742 9.99255 11.7644 9.99708 11.7861C10.0706 11.944 10.1549 12.0944 10.2524 12.2353C10.31 12.3109 10.3631 12.3898 10.4116 12.4715L10.4138 12.4752L10.4508 12.5523C10.4821 12.6067 10.4979 12.6685 10.4965 12.7312C10.495 12.7946 10.476 12.8563 10.4416 12.9096C10.4069 12.9625 10.358 13.0051 10.3007 13.0321C10.2435 13.059 10.1799 13.0696 10.1169 13.0627C10.054 13.0557 9.99424 13.0315 9.94422 12.9927C9.89485 12.9544 9.85689 12.9033 9.83442 12.8451L9.79713 12.7687C9.76317 12.6798 9.73452 12.589 9.71096 12.4968C9.66154 12.3322 9.59698 12.1727 9.5173 12.0204C9.48911 11.9841 9.44834 11.9598 9.40362 11.9532L9.37837 11.9495L9.32878 11.8545C8.47536 12.1664 7.5386 12.1641 6.68675 11.8477L6.63021 11.9507L6.60597 11.9545C6.56995 11.9601 6.53641 11.9762 6.50949 12.0008C6.46338 12.057 6.4293 12.1322 6.3967 12.2211C6.38473 12.2537 6.37269 12.289 6.36027 12.3254C6.34016 12.3844 6.31902 12.4465 6.2954 12.5051C6.27234 12.596 6.24405 12.686 6.21051 12.7742L6.20889 12.7785L6.17342 12.8506C6.15115 12.9091 6.11332 12.9604 6.06399 12.9989C6.014 13.038 5.95415 13.0624 5.89111 13.0695C5.82821 13.0761 5.76432 13.0652 5.70725 13.0379C5.65018 13.0107 5.60176 12.9682 5.56732 12.9152C5.53288 12.8621 5.51376 12.8006 5.51209 12.7374C5.51043 12.6749 5.52589 12.6131 5.55677 12.5588L5.5951 12.4776C5.64356 12.3956 5.69687 12.3166 5.75439 12.2407C5.85415 12.0951 5.93976 11.9404 6.00998 11.779C6.01461 11.7345 6.0068 11.6898 5.98742 11.6493L5.97709 11.6277L6.02113 11.5356C5.24459 11.0645 4.6602 10.3329 4.37178 9.4712L4.26243 9.48942L4.24558 9.47739C4.20579 9.44896 4.15925 9.43186 4.11052 9.42796C3.9421 9.46013 3.77734 9.509 3.61832 9.57257C3.53161 9.6099 3.44243 9.64289 3.35169 9.66971L3.34313 9.67224L3.26025 9.68065C3.20219 9.69802 3.14051 9.69971 3.08149 9.68547C3.01963 9.67055 2.96314 9.63872 2.91833 9.59353C2.87394 9.54812 2.84276 9.49102 2.82876 9.42908C2.81475 9.36713 2.81822 9.30251 2.83876 9.24242C2.85931 9.18233 2.89613 9.12911 2.94512 9.08871C2.99412 9.0483 3.05336 9.02228 3.11627 9.01355L3.12314 9.0126L3.12632 9.01307L3.20254 8.99585C3.2969 8.98297 3.39195 8.97571 3.48716 8.97373C3.65745 8.96239 3.82625 8.93476 3.99126 8.89121C4.03267 8.86386 4.0677 8.82749 4.09451 8.78488L4.1047 8.76869L4.20387 8.74036C4.08454 7.8371 4.29158 6.92065 4.78828 6.15695L4.70928 6.08447L4.70816 6.06415C4.70544 6.01506 4.68956 5.96765 4.66223 5.92687C4.53101 5.81235 4.38968 5.71477 4.23974 5.63126C4.15516 5.58807 4.07314 5.54006 3.99407 5.48745L3.99049 5.48507L3.93117 5.43755C3.77156 5.32204 3.73423 5.0995 3.84893 4.93861L3.85073 4.93609C3.88353 4.89564 3.92551 4.86359 3.9731 4.84244C4.02065 4.8213 4.07252 4.81172 4.12448 4.81445C4.20882 4.81848 4.28975 4.84894 4.35574 4.9019L4.4238 4.95616C4.49251 5.02133 4.55731 5.09051 4.61812 5.16311C4.73388 5.29005 4.86163 5.40552 4.99957 5.50793C5.0403 5.52881 5.08745 5.5333 5.13121 5.52004L5.15463 5.51294L5.2443 5.57646C5.75926 5.04142 6.42017 4.66979 7.14457 4.5063C7.30592 4.46964 7.46949 4.44346 7.63427 4.42777L7.63964 4.32675L7.65533 4.31288C7.69233 4.28015 7.71967 4.23786 7.73414 4.1911C7.74112 4.01978 7.7316 3.84818 7.7057 3.67868C7.68713 3.58608 7.67291 3.49225 7.66488 3.39729L7.66453 3.39308L7.66471 3.31208C7.65529 3.11742 7.80303 2.95089 7.99776 2.9372L8.01257 2.93616L8.02015 2.94037ZM5.95934 6.07827L7.16349 6.93147C7.22618 6.97723 7.3073 6.9871 7.37355 6.95177C7.44501 6.91366 7.48891 6.8481 7.49238 6.77308L7.49459 6.72539H7.50167L7.58306 5.30392C7.50061 5.31456 7.41818 5.32856 7.3369 5.34592C6.81999 5.46213 6.34425 5.71525 5.95934 6.07827ZM8.41949 5.30482L8.50281 6.77297C8.50387 6.85202 8.54972 6.92391 8.62114 6.95769C8.69272 6.99153 8.7773 6.98164 8.83891 6.93234L8.84113 6.93057L10.0336 6.0832C9.58796 5.66422 9.02468 5.39244 8.41949 5.30482ZM6.42133 8.09662V8.09179L6.45806 8.08168C6.53109 8.06157 6.58815 8.0026 6.60501 7.92848C6.62197 7.85393 6.59683 7.77605 6.53955 7.72615L6.52239 7.7112V7.70428L5.43791 6.73653C5.12685 7.26667 4.98944 7.88044 5.04426 8.4927L6.42133 8.09662ZM10.5583 6.73991L9.46568 7.71783C9.40811 7.76869 9.38313 7.84615 9.39976 7.92083C9.41626 7.99489 9.47241 8.05365 9.54649 8.07376L9.58339 8.08378V8.09007L10.9619 8.4872C11.0084 7.87726 10.8675 7.26771 10.5583 6.73991ZM9.30753 9.05162L9.30596 9.05751L9.26987 9.05962C9.23658 9.06155 9.20425 9.07146 9.1756 9.0885C9.14694 9.10554 9.1228 9.12921 9.1052 9.15753C9.08761 9.18584 9.07707 9.21797 9.07448 9.25121C9.07189 9.28445 9.07732 9.31782 9.09031 9.34852L9.6537 10.7124C10.167 10.3697 10.5636 9.8749 10.7773 9.29843L9.32017 9.05256C9.31678 9.05211 9.31243 9.05178 9.30753 9.05162ZM6.90346 9.36332V9.35733L6.90749 9.34791C6.93468 9.28435 6.9286 9.21187 6.89102 9.15427C6.85802 9.10369 6.80522 9.0702 6.74652 9.06176L6.7434 9.06645L6.71342 9.06338C6.70022 9.06202 6.68713 9.06198 6.67448 9.06321L5.23205 9.30788C5.45121 9.87813 5.84039 10.3665 6.3476 10.7062L6.90346 9.36332ZM8.20281 9.80695H8.19685L8.18265 9.78082C8.16424 9.74694 8.13678 9.71884 8.10333 9.69966C8.08761 9.69064 8.07086 9.68376 8.05351 9.67913L7.99679 9.6805C7.9233 9.68227 7.85653 9.72119 7.82038 9.78415L7.10619 11.0684C7.61041 11.2287 8.14841 11.2513 8.66454 11.1335L8.89945 11.0641L8.20281 9.80695ZM7.79035 7.81151H8.21106L8.46782 8.13766L8.3744 8.54588L7.99643 8.72761L7.61791 8.546L7.52889 8.13814L7.79035 7.81151Z" fill="#CED0D6"/>
<path fill-rule="evenodd" clip-rule="evenodd" d="M7.95199 1.20849L7.93183 1.20999C7.81519 1.21992 7.70137 1.25165 7.5963 1.3036L2.72036 3.62935C2.46574 3.75053 2.28068 3.9811 2.21724 4.25585L1.02374 9.47566C0.966863 9.72066 1.0128 9.97747 1.15499 10.1875C1.17161 10.2128 1.18911 10.2373 1.20749 10.261L4.57624 14.4496C4.7543 14.6683 5.02161 14.7939 5.30336 14.7926H10.7065C10.9891 14.793 11.2569 14.6613 11.4345 14.4457L14.8015 10.2562C14.9782 10.0374 15.0443 9.74866 14.9765 9.47478L13.7751 4.2506C13.7117 3.97585 13.5257 3.74528 13.272 3.6241L8.40393 1.30403C8.27374 1.23982 8.13054 1.20683 7.98569 1.20747C7.97592 1.20751 7.96614 1.20771 7.95636 1.20806L7.95199 1.20849ZM2.00741 9.65996L3.18347 4.51638L7.99967 2.21913L12.8089 4.51117L13.994 9.66455L10.6764 13.7926H5.33113L2.00741 9.65996Z" fill="#CED0D6"/>
</svg>
