<svg width="64" height="64" viewBox="0 0 64 64" fill="none" xmlns="http://www.w3.org/2000/svg">
<path d="M59 5H5V59H59V5Z" fill="url(#paint0_linear)"/>
<path d="M49.1998 14.8H14.7998V49.2H49.1998V14.8Z" fill="url(#paint1_linear)"/>
<path d="M54.4001 9.59998H9.6001V54.3H54.3001V9.59998H54.4001Z" fill="url(#paint2_linear)"/>
<path d="M54.4002 54.4V9.59998L49.2002 14.8V49.2L54.4002 54.4Z" fill="#2BB673"/>
<path d="M14.8 14.8H49.2L59 5H5L14.8 14.8Z" fill="url(#paint3_linear)"/>
<path d="M49.2 49.2H14.8L5 59H59L49.2 49.2Z" fill="url(#paint4_linear)"/>
<path d="M9.6001 54.4H54.4001L49.2001 49.2H14.8001L9.6001 54.4Z" fill="#2BB673"/>
<path d="M54.4002 54.4V9.59998L49.2002 14.8V49.2L54.4002 54.4Z" fill="url(#paint5_linear)"/>
<path d="M9.6001 54.4H54.4001L49.2001 49.2H14.8001L9.6001 54.4Z" fill="url(#paint6_linear)"/>
<path d="M14.8 49.2V14.8L5 5V59L14.8 49.2Z" fill="url(#paint7_linear)"/>
<path d="M9.6 9.6H54.4L59 5H5L9.6 9.6Z" fill="url(#paint8_linear)"/>
<path d="M9.6 9.6H54.4L59 5H5L9.6 9.6Z" fill="url(#paint9_linear)"/>
<path d="M54.4001 9.59998H9.6001L14.8001 14.8H49.2001L54.4001 9.59998Z" fill="url(#paint10_linear)"/>
<path d="M54.4001 9.59998H9.6001L14.8001 14.8H49.2001L54.4001 9.59998Z" fill="url(#paint11_linear)"/>
<path d="M54.4 54.4H9.6L5 59H59L54.4 54.4Z" fill="url(#paint12_linear)"/>
<path d="M54.3999 54.4L58.9999 59V5L54.3999 9.6V54.4Z" fill="url(#paint13_linear)"/>
<path d="M54.4 54.4H9.6L5 59H59L54.4 54.4Z" fill="url(#paint14_linear)"/>
<path d="M54.4 54.4H9.6L5 59H59L54.4 54.4Z" fill="url(#paint15_linear)"/>
<path d="M54.4 54.4H9.6L5 59H59L54.4 54.4Z" fill="url(#paint16_linear)"/>
<path d="M54.4 54.4H9.6L5 59H59L54.4 54.4Z" fill="url(#paint17_linear)"/>
<path d="M54.4 54.4H9.6L5 59H59L54.4 54.4Z" fill="url(#paint18_linear)"/>
<path d="M54.3999 54.4L58.9999 59V5L54.3999 9.6V54.4Z" fill="url(#paint19_linear)"/>
<path d="M54.3999 54.4L58.9999 59V5L54.3999 9.6V54.4Z" fill="url(#paint20_linear)"/>
<path d="M54.3999 54.4L58.9999 59V5L54.3999 9.6V54.4Z" fill="url(#paint21_linear)"/>
<path d="M54.3999 54.4L58.9999 59V5L54.3999 9.6V54.4Z" fill="url(#paint22_linear)"/>
<path d="M54.3999 54.4L58.9999 59V5L54.3999 9.6V54.4Z" fill="url(#paint23_linear)"/>
<path d="M9.6 54.4V9.6L5 5V59L9.6 54.4Z" fill="url(#paint24_linear)"/>
<path d="M9.6 54.4V9.6L5 5V59L9.6 54.4Z" fill="url(#paint25_linear)"/>
<path d="M9.6001 9.59998V54.4L14.8001 49.2V14.8L9.6001 9.59998Z" fill="url(#paint26_linear)"/>
<path d="M52 12H12V52H52V12Z" fill="url(#paint27_linear)"/>
<path d="M32 44.45H17V46.95H32V44.45Z" fill="white"/>
<path d="M17 16.95H23.1C26.65 16.95 28.85 19.05 28.85 22.15V22.2C28.85 25.65 26.15 27.45 22.8 27.45H20.3V31.95H17V16.95ZM22.9 24.5C24.55 24.5 25.5 23.5 25.5 22.25V22.2C25.5 20.7 24.45 19.95 22.8 19.95H20.25V24.55H22.9V24.5Z" fill="white"/>
<path d="M31 16.95H42.5268V19.8695H34.4732V22.9903H41.6208V25.9097H34.4732V29.0306H42.7282V31.95H31.151V16.95H31Z" fill="white"/>
<defs>
<linearGradient id="paint0_linear" x1="28.2123" y1="13.5518" x2="38.6338" y2="64.3107" gradientUnits="userSpaceOnUse">
<stop offset="0.0242344" stop-color="#10E899"/>
<stop offset="1" stop-color="#21D789"/>
</linearGradient>
<linearGradient id="paint1_linear" x1="53.0231" y1="53.023" x2="4.4824" y2="4.48239" gradientUnits="userSpaceOnUse">
<stop offset="0.3475" stop-color="#087CFA"/>
<stop offset="0.8562" stop-color="#FE2857"/>
<stop offset="1" stop-color="#FE2857"/>
</linearGradient>
<linearGradient id="paint2_linear" x1="59.3665" y1="59.3657" x2="-3.8198" y2="-3.81983" gradientUnits="userSpaceOnUse">
<stop  offset="0" stop-color="#FCF84A"/>
<stop offset="0.2816" stop-color="#C1F834"/>
<stop offset="0.7846" stop-color="#10E899"/>
</linearGradient>
<linearGradient id="paint3_linear" x1="3.7829" y1="9.9091" x2="56.6585" y2="9.9091" gradientUnits="userSpaceOnUse">
<stop offset="0.1844" stop-color="#EFE50C"/>
<stop offset="0.5239" stop-color="#BEFF26"/>
<stop offset="0.8746" stop-color="#00C66E"/>
</linearGradient>
<linearGradient id="paint4_linear" x1="56.7487" y1="54.0906" x2="7.4597" y2="54.0906" gradientUnits="userSpaceOnUse">
<stop  offset="0" stop-color="#21D789"/>
<stop offset="0.8746" stop-color="#00C66E"/>
</linearGradient>
<linearGradient id="paint5_linear" x1="50.2158" y1="31.9999" x2="56.3993" y2="31.9999" gradientUnits="userSpaceOnUse">
<stop offset="0.27" stop-color="#007E62"/>
<stop offset="1" stop-color="#07C3F2" stop-opacity="0"/>
</linearGradient>
<linearGradient id="paint6_linear" x1="31.9591" y1="50.2147" x2="31.959" y2="56.3981" gradientUnits="userSpaceOnUse">
<stop offset="0.27" stop-color="#007E62"/>
<stop offset="1" stop-color="#07C3F2" stop-opacity="0"/>
</linearGradient>
<linearGradient id="paint7_linear" x1="9.9093" y1="3.3676" x2="9.9093" y2="54.2544" gradientUnits="userSpaceOnUse">
<stop offset="0.2576" stop-color="#EFE50C"/>
<stop offset="0.5774" stop-color="#BEFF26"/>
<stop offset="0.8746" stop-color="#00C66E"/>
</linearGradient>
<linearGradient id="paint8_linear" x1="29.8167" y1="7.2101" x2="16.6885" y2="17.6875" gradientUnits="userSpaceOnUse">
<stop offset="0.1018" stop-color="#A5FF21" stop-opacity="0"/>
<stop offset="0.8222" stop-color="#FCF84A"/>
<stop offset="1" stop-color="white" stop-opacity="0.9"/>
</linearGradient>
<linearGradient id="paint9_linear" x1="36.5164" y1="6.8674" x2="58.0167" y2="5.4529" gradientUnits="userSpaceOnUse">
<stop offset="0.5632" stop-color="#10E899" stop-opacity="0"/>
<stop offset="1" stop-color="#21D789" stop-opacity="0.9"/>
</linearGradient>
<linearGradient id="paint10_linear" x1="48.3261" y1="5.41548" x2="19.9237" y2="15.6404" gradientUnits="userSpaceOnUse">
<stop offset="0.018393" stop-color="#99C81D"/>
<stop offset="0.723" stop-color="#10C299" stop-opacity="0"/>
</linearGradient>
<linearGradient id="paint11_linear" x1="48.3261" y1="5.41548" x2="19.9237" y2="15.6404" gradientUnits="userSpaceOnUse">
<stop offset="0.1378" stop-color="#50AC3F" stop-opacity="0.97"/>
<stop offset="0.723" stop-color="#10C23B" stop-opacity="0.4"/>
</linearGradient>
<linearGradient id="paint12_linear" x1="64.7697" y1="62.5817" x2="14.4658" y2="54.1241" gradientUnits="userSpaceOnUse">
<stop  offset="0" stop-color="#FCF84A" stop-opacity="0"/>
<stop offset="1" stop-color="#29CF4B"/>
</linearGradient>
<linearGradient id="paint13_linear" x1="56.6827" y1="57.1917" x2="56.6827" y2="7.9617" gradientUnits="userSpaceOnUse">
<stop  offset="0" stop-color="#21D789"/>
<stop offset="0.8746" stop-color="#00C66E"/>
</linearGradient>
<linearGradient id="paint14_linear" x1="31.9999" y1="53.3417" x2="31.9999" y2="60.4316" gradientUnits="userSpaceOnUse">
<stop offset="0.1754" stop-color="#07C3F2" stop-opacity="0"/>
<stop offset="0.7533" stop-color="#07BC65"/>
</linearGradient>
<linearGradient id="paint15_linear" x1="31.9999" y1="53.3417" x2="31.9999" y2="60.4316" gradientUnits="userSpaceOnUse">
<stop offset="0.0714497" stop-color="#10E899" stop-opacity="0.5"/>
<stop offset="0.5642" stop-color="#10E899" stop-opacity="0"/>
</linearGradient>
<linearGradient id="paint16_linear" x1="31.9999" y1="59.0174" x2="31.9999" y2="53.5608" gradientUnits="userSpaceOnUse">
<stop offset="0.0714497" stop-color="#21D789" stop-opacity="0.5"/>
<stop offset="0.5642" stop-color="#10E899" stop-opacity="0"/>
</linearGradient>
<linearGradient id="paint17_linear" x1="51.2927" y1="60.1401" x2="-1.7509" y2="51.6532" gradientUnits="userSpaceOnUse">
<stop offset="0.5632" stop-color="#A5FF21" stop-opacity="0"/>
<stop offset="1" stop-color="#10E899" stop-opacity="0.9"/>
</linearGradient>
<linearGradient id="paint18_linear" x1="42.5176" y1="56.6826" x2="58.7317" y2="56.6826" gradientUnits="userSpaceOnUse">
<stop offset="0.5632" stop-color="#07C3F2" stop-opacity="0"/>
<stop offset="1" stop-color="#009AE5" stop-opacity="0.9"/>
</linearGradient>
<linearGradient id="paint19_linear" x1="53.6471" y1="31.9999" x2="60.1965" y2="31.9999" gradientUnits="userSpaceOnUse">
<stop offset="0.1754" stop-color="#07C3F2" stop-opacity="0"/>
<stop offset="0.7533" stop-color="#07BC65"/>
</linearGradient>
<linearGradient id="paint20_linear" x1="53.6471" y1="31.9999" x2="60.1965" y2="31.9999" gradientUnits="userSpaceOnUse">
<stop offset="0.0714497" stop-color="#10E899" stop-opacity="0.5"/>
<stop offset="0.5642" stop-color="#10E899" stop-opacity="0"/>
</linearGradient>
<linearGradient id="paint21_linear" x1="58.4409" y1="31.9999" x2="55.2721" y2="31.9999" gradientUnits="userSpaceOnUse">
<stop offset="0.0714497" stop-color="#21D789" stop-opacity="0.5"/>
<stop offset="0.5642" stop-color="#10E899" stop-opacity="0"/>
</linearGradient>
<linearGradient id="paint22_linear" x1="57.1589" y1="32.9702" x2="53.2522" y2="6.0064" gradientUnits="userSpaceOnUse">
<stop offset="0.5632" stop-color="#A5FF21" stop-opacity="0"/>
<stop offset="1" stop-color="#10E899" stop-opacity="0.9"/>
</linearGradient>
<linearGradient id="paint23_linear" x1="56.6827" y1="35.5242" x2="56.6827" y2="59.0439" gradientUnits="userSpaceOnUse">
<stop offset="0.5632" stop-color="#07C3F2" stop-opacity="0"/>
<stop offset="1" stop-color="#009AE5" stop-opacity="0.9"/>
</linearGradient>
<linearGradient id="paint24_linear" x1="3.9081" y1="43.471" x2="12.4919" y2="8.757" gradientUnits="userSpaceOnUse">
<stop offset="0.1018" stop-color="#A5FF21" stop-opacity="0"/>
<stop offset="0.8222" stop-color="#FCF84A"/>
<stop offset="1" stop-color="white" stop-opacity="0.9"/>
</linearGradient>
<linearGradient id="paint25_linear" x1="6.944" y1="31.8969" x2="2.1347" y2="60.399" gradientUnits="userSpaceOnUse">
<stop offset="0.5632" stop-color="#FCF84A" stop-opacity="0"/>
<stop offset="1" stop-color="#21D789" stop-opacity="0.9"/>
</linearGradient>
<linearGradient id="paint26_linear" x1="4.894" y1="34.6457" x2="15.75" y2="28.5866" gradientUnits="userSpaceOnUse">
<stop offset="0.1378" stop-color="#50AC3F" stop-opacity="0.97"/>
<stop offset="0.723" stop-color="#10C23B" stop-opacity="0.4"/>
</linearGradient>
<linearGradient id="paint27_linear" x1="12.0609" y1="12.0609" x2="47.1088" y2="47.1088" gradientUnits="userSpaceOnUse">
<stop  offset="0" stop-color="#298B2A"/>
<stop offset="0.092362" stop-color="#216F21"/>
<stop offset="0.2928" stop-color="#103510"/>
<stop offset="0.6895" stop-color="#051005"/>
<stop offset="0.9138"/>
</linearGradient>
</defs>
</svg>
