<svg width="32" height="32" viewBox="0 0 32 32" fill="none" xmlns="http://www.w3.org/2000/svg" data-scaled="true">
<path d="M30 2H2V30H30V2Z" fill="url(#paint0_linear)"/>
<path d="M24.9001 7.09998H7.1001V24.9H24.9001V7.09998Z" fill="url(#paint1_linear)"/>
<path d="M27.5999 4.40002H4.3999V27.6H27.5999V4.40002V4.40002Z" fill="url(#paint2_linear)"/>
<path d="M27.5999 27.6V4.40002L24.8999 7.10002V24.9L27.5999 27.6Z" fill="#2BB673"/>
<path d="M7.1 7.1H24.9L30 2H2L7.1 7.1Z" fill="url(#paint3_linear)"/>
<path d="M24.9 24.9H7.1L2 30H30L24.9 24.9Z" fill="url(#paint4_linear)"/>
<path d="M4.3999 27.6H27.5999L24.8999 24.9H7.0999L4.3999 27.6Z" fill="#2BB673"/>
<path d="M27.5999 27.6V4.40002L24.8999 7.10002V24.9L27.5999 27.6Z" fill="url(#paint5_linear)"/>
<path d="M4.3999 27.6H27.5999L24.8999 24.9H7.0999L4.3999 27.6Z" fill="url(#paint6_linear)"/>
<path d="M7.1 24.9V7.1L2 2V30L7.1 24.9Z" fill="url(#paint7_linear)"/>
<path d="M4.4 4.4H27.6L30 2H2L4.4 4.4Z" fill="url(#paint8_linear)"/>
<path d="M4.4 4.4H27.6L30 2H2L4.4 4.4Z" fill="url(#paint9_linear)"/>
<path d="M27.5999 4.40002H4.3999L7.0999 7.10002H24.8999L27.5999 4.40002Z" fill="url(#paint10_linear)"/>
<path d="M27.5999 4.40002H4.3999L7.0999 7.10002H24.8999L27.5999 4.40002Z" fill="url(#paint11_linear)"/>
<path d="M27.6 27.6H4.4L2 30H30L27.6 27.6Z" fill="url(#paint12_linear)"/>
<path d="M27.6001 27.6L30.0001 30V2L27.6001 4.4V27.6Z" fill="url(#paint13_linear)"/>
<path d="M27.6 27.6H4.4L2 30H30L27.6 27.6Z" fill="url(#paint14_linear)"/>
<path d="M27.6 27.6H4.4L2 30H30L27.6 27.6Z" fill="url(#paint15_linear)"/>
<path d="M27.6 27.6H4.4L2 30H30L27.6 27.6Z" fill="url(#paint16_linear)"/>
<path d="M27.6 27.6H4.4L2 30H30L27.6 27.6Z" fill="url(#paint17_linear)"/>
<path d="M27.6 27.6H4.4L2 30H30L27.6 27.6Z" fill="url(#paint18_linear)"/>
<path d="M27.6001 27.6L30.0001 30V2L27.6001 4.4V27.6Z" fill="url(#paint19_linear)"/>
<path d="M27.6001 27.6L30.0001 30V2L27.6001 4.4V27.6Z" fill="url(#paint20_linear)"/>
<path d="M27.6001 27.6L30.0001 30V2L27.6001 4.4V27.6Z" fill="url(#paint21_linear)"/>
<path d="M27.6001 27.6L30.0001 30V2L27.6001 4.4V27.6Z" fill="url(#paint22_linear)"/>
<path d="M27.6001 27.6L30.0001 30V2L27.6001 4.4V27.6Z" fill="url(#paint23_linear)"/>
<path d="M4.4 27.6V4.4L2 2V30L4.4 27.6Z" fill="url(#paint24_linear)"/>
<path d="M4.4 27.6V4.4L2 2V30L4.4 27.6Z" fill="url(#paint25_linear)"/>
<path d="M4.3999 4.40002V27.6L7.0999 24.9V7.10002L4.3999 4.40002Z" fill="url(#paint26_linear)"/>
<path d="M26 6H6V26H26V6Z" fill="url(#paint27_linear)"/>
<path d="M15 22H8V23.6H15V22Z" fill="white"/>
<path d="M8 8.29999H11.05C12.825 8.29999 13.925 9.34999 13.925 10.9V10.925C13.925 12.65 12.575 13.55 10.9 13.55H9.65V15.8H8V8.29999ZM10.95 12.075C11.775 12.075 12.25 11.575 12.25 10.95V10.925C12.25 10.175 11.725 9.79999 10.9 9.79999H9.625V12.1H10.95V12.075Z" fill="white"/>
<path d="M15 8.29999H20.7634V9.75972H16.7366V11.3201H20.3104V12.7799H16.7366V14.3403H20.8641V15.8H15.0755V8.29999H15Z" fill="white"/>
<defs>
<linearGradient id="paint0_linear" x1="14.036" y1="6.4343" x2="19.4398" y2="32.7537" gradientUnits="userSpaceOnUse">
<stop offset="0.0242344" stop-color="#10E899"/>
<stop offset="1" stop-color="#21D789"/>
</linearGradient>
<linearGradient id="paint1_linear" x1="26.9011" y1="26.9009" x2="1.7318" y2="1.73188" gradientUnits="userSpaceOnUse">
<stop offset="0.3475" stop-color="#087CFA"/>
<stop offset="0.8562" stop-color="#FE2857"/>
<stop offset="1" stop-color="#FE2857"/>
</linearGradient>
<linearGradient id="paint2_linear" x1="30.1899" y1="30.1899" x2="-2.5734" y2="-2.57327" gradientUnits="userSpaceOnUse">
<stop  offset="0" stop-color="#FCF84A"/>
<stop offset="0.2816" stop-color="#C1F834"/>
<stop offset="0.7846" stop-color="#10E899"/>
</linearGradient>
<linearGradient id="paint3_linear" x1="1.3689" y1="4.5454" x2="28.7859" y2="4.5454" gradientUnits="userSpaceOnUse">
<stop offset="0.1844" stop-color="#EFE50C"/>
<stop offset="0.5239" stop-color="#BEFF26"/>
<stop offset="0.8746" stop-color="#00C66E"/>
</linearGradient>
<linearGradient id="paint4_linear" x1="28.8327" y1="27.4544" x2="3.2754" y2="27.4544" gradientUnits="userSpaceOnUse">
<stop  offset="0" stop-color="#21D789"/>
<stop offset="0.8746" stop-color="#00C66E"/>
</linearGradient>
<linearGradient id="paint5_linear" x1="25.445" y1="15.9999" x2="28.6513" y2="15.9999" gradientUnits="userSpaceOnUse">
<stop offset="0.27" stop-color="#007E62"/>
<stop offset="1" stop-color="#07C3F2" stop-opacity="0"/>
</linearGradient>
<linearGradient id="paint6_linear" x1="15.9575" y1="25.4444" x2="15.9574" y2="28.6506" gradientUnits="userSpaceOnUse">
<stop offset="0.27" stop-color="#007E62"/>
<stop offset="1" stop-color="#07C3F2" stop-opacity="0"/>
</linearGradient>
<linearGradient id="paint7_linear" x1="4.5456" y1="1.1536" x2="4.5456" y2="27.5393" gradientUnits="userSpaceOnUse">
<stop offset="0.2576" stop-color="#EFE50C"/>
<stop offset="0.5774" stop-color="#BEFF26"/>
<stop offset="0.8746" stop-color="#00C66E"/>
</linearGradient>
<linearGradient id="paint8_linear" x1="14.8679" y1="3.146" x2="8.0607" y2="8.5787" gradientUnits="userSpaceOnUse">
<stop offset="0.1018" stop-color="#A5FF21" stop-opacity="0"/>
<stop offset="0.8222" stop-color="#FCF84A"/>
<stop offset="1" stop-color="white" stop-opacity="0.9"/>
</linearGradient>
<linearGradient id="paint9_linear" x1="18.3418" y1="2.9683" x2="29.4902" y2="2.2349" gradientUnits="userSpaceOnUse">
<stop offset="0.5632" stop-color="#10E899" stop-opacity="0"/>
<stop offset="1" stop-color="#21D789" stop-opacity="0.9"/>
</linearGradient>
<linearGradient id="paint10_linear" x1="24.4653" y1="2.21552" x2="9.7381" y2="7.51723" gradientUnits="userSpaceOnUse">
<stop offset="0.018393" stop-color="#99C81D"/>
<stop offset="0.723" stop-color="#10C299" stop-opacity="0"/>
</linearGradient>
<linearGradient id="paint11_linear" x1="24.4653" y1="2.21552" x2="9.7381" y2="7.51723" gradientUnits="userSpaceOnUse">
<stop offset="0.1378" stop-color="#50AC3F" stop-opacity="0.97"/>
<stop offset="0.723" stop-color="#10C23B" stop-opacity="0.4"/>
</linearGradient>
<linearGradient id="paint12_linear" x1="32.9917" y1="31.8572" x2="6.9082" y2="27.4718" gradientUnits="userSpaceOnUse">
<stop  offset="0" stop-color="#FCF84A" stop-opacity="0"/>
<stop offset="1" stop-color="#29CF4B"/>
</linearGradient>
<linearGradient id="paint13_linear" x1="28.7986" y1="29.0623" x2="28.7986" y2="3.5357" gradientUnits="userSpaceOnUse">
<stop  offset="0" stop-color="#21D789"/>
<stop offset="0.8746" stop-color="#00C66E"/>
</linearGradient>
<linearGradient id="paint14_linear" x1="15.9999" y1="27.0661" x2="15.9999" y2="30.7423" gradientUnits="userSpaceOnUse">
<stop offset="0.1754" stop-color="#07C3F2" stop-opacity="0"/>
<stop offset="0.7533" stop-color="#07BC65"/>
</linearGradient>
<linearGradient id="paint15_linear" x1="15.9999" y1="27.0661" x2="15.9999" y2="30.7423" gradientUnits="userSpaceOnUse">
<stop offset="0.0714497" stop-color="#10E899" stop-opacity="0.5"/>
<stop offset="0.5642" stop-color="#10E899" stop-opacity="0"/>
</linearGradient>
<linearGradient id="paint16_linear" x1="15.9999" y1="30.009" x2="15.9999" y2="27.1797" gradientUnits="userSpaceOnUse">
<stop offset="0.0714497" stop-color="#21D789" stop-opacity="0.5"/>
<stop offset="0.5642" stop-color="#10E899" stop-opacity="0"/>
</linearGradient>
<linearGradient id="paint17_linear" x1="26.0036" y1="30.5912" x2="-1.5005" y2="26.1905" gradientUnits="userSpaceOnUse">
<stop offset="0.5632" stop-color="#A5FF21" stop-opacity="0"/>
<stop offset="1" stop-color="#10E899" stop-opacity="0.9"/>
</linearGradient>
<linearGradient id="paint18_linear" x1="21.4536" y1="28.7984" x2="29.8609" y2="28.7984" gradientUnits="userSpaceOnUse">
<stop offset="0.5632" stop-color="#07C3F2" stop-opacity="0"/>
<stop offset="1" stop-color="#009AE5" stop-opacity="0.9"/>
</linearGradient>
<linearGradient id="paint19_linear" x1="27.2246" y1="15.9999" x2="30.6205" y2="15.9999" gradientUnits="userSpaceOnUse">
<stop offset="0.1754" stop-color="#07C3F2" stop-opacity="0"/>
<stop offset="0.7533" stop-color="#07BC65"/>
</linearGradient>
<linearGradient id="paint20_linear" x1="27.2246" y1="15.9999" x2="30.6205" y2="15.9999" gradientUnits="userSpaceOnUse">
<stop offset="0.0714497" stop-color="#10E899" stop-opacity="0.5"/>
<stop offset="0.5642" stop-color="#10E899" stop-opacity="0"/>
</linearGradient>
<linearGradient id="paint21_linear" x1="29.7102" y1="15.9999" x2="28.0672" y2="15.9999" gradientUnits="userSpaceOnUse">
<stop offset="0.0714497" stop-color="#21D789" stop-opacity="0.5"/>
<stop offset="0.5642" stop-color="#10E899" stop-opacity="0"/>
</linearGradient>
<linearGradient id="paint22_linear" x1="29.0455" y1="16.5031" x2="27.0198" y2="2.5219" gradientUnits="userSpaceOnUse">
<stop offset="0.5632" stop-color="#A5FF21" stop-opacity="0"/>
<stop offset="1" stop-color="#10E899" stop-opacity="0.9"/>
</linearGradient>
<linearGradient id="paint23_linear" x1="28.7986" y1="17.8273" x2="28.7986" y2="30.0228" gradientUnits="userSpaceOnUse">
<stop offset="0.5632" stop-color="#07C3F2" stop-opacity="0"/>
<stop offset="1" stop-color="#009AE5" stop-opacity="0.9"/>
</linearGradient>
<linearGradient id="paint24_linear" x1="1.4338" y1="21.9479" x2="5.8847" y2="3.9481" gradientUnits="userSpaceOnUse">
<stop offset="0.1018" stop-color="#A5FF21" stop-opacity="0"/>
<stop offset="0.8222" stop-color="#FCF84A"/>
<stop offset="1" stop-color="white" stop-opacity="0.9"/>
</linearGradient>
<linearGradient id="paint25_linear" x1="3.008" y1="15.9465" x2="0.5143" y2="30.7254" gradientUnits="userSpaceOnUse">
<stop offset="0.5632" stop-color="#FCF84A" stop-opacity="0"/>
<stop offset="1" stop-color="#21D789" stop-opacity="0.9"/>
</linearGradient>
<linearGradient id="paint26_linear" x1="1.94487" y1="17.3719" x2="7.5739" y2="14.2301" gradientUnits="userSpaceOnUse">
<stop offset="0.1378" stop-color="#50AC3F" stop-opacity="0.97"/>
<stop offset="0.723" stop-color="#10C23B" stop-opacity="0.4"/>
</linearGradient>
<linearGradient id="paint27_linear" x1="6.03045" y1="6.03045" x2="23.5544" y2="23.5544" gradientUnits="userSpaceOnUse">
<stop  offset="0" stop-color="#298B2A"/>
<stop offset="0.092362" stop-color="#216F21"/>
<stop offset="0.2928" stop-color="#103510"/>
<stop offset="0.6895" stop-color="#051005"/>
<stop offset="0.9138"/>
</linearGradient>
</defs>
</svg>
