<!-- Copyright © 2000–2024 JetBrains s.r.o. -->
<svg width="16" height="16" viewBox="0 0 16 16" xmlns="http://www.w3.org/2000/svg">
  <path fill="#6e6e6e" fill-rule="evenodd" d="M11.51 5.48c.2.3.22.69.05 1.01-.17.32-.5.52-.86.52H5.31c-.36 0-.69-.2-.86-.52a.99.99 0 0 1 .05-1.01l2.68-4.04C7.36 1.17 7.67 1 8 1s.63.17.82.44zM4.5 8C2.57 8 1 9.57 1 11.5S2.57 15 4.5 15 8 13.43 8 11.5 6.43 8 4.5 8m0 5.7c-1.21 0-2.2-.99-2.2-2.2s.99-2.2 2.2-2.2 2.2.99 2.2 2.2-.99 2.2-2.2 2.2M9 8v7h6V8zm1 1h2.43L10 11.43zm4 5h-2.43L14 11.57zm0-3.57L10.43 14H10v-1.43L13.57 9H14z"/>
</svg>
