<!-- Copyright © 2000–2024 JetBrains s.r.o. -->
<svg width="16" height="16" viewBox="0 0 16 16" xmlns="http://www.w3.org/2000/svg">
  <path fill="#43454A" stroke="#CED0D6" stroke-linecap="round" stroke-linejoin="round" d="M2.5 14.5V5c0-1.93 1.57-3.5 3.5-3.5h7.5v13z"/>
  <path fill="none" stroke="#CED0D6" stroke-linecap="round" stroke-linejoin="round" d="m6.5 6.5 2 2 2-2m-2 2v-5"/>
  <path fill="#CED0D6" d="M8.5 11a.5.5 0 1 0 0-1 .5.5 0 0 0 0 1m1 2a.5.5 0 1 0 0-1 .5.5 0 0 0 0 1m2 0a.5.5 0 1 0 0-1 .5.5 0 0 0 0 1m-1-2a.5.5 0 1 0 0-1 .5.5 0 0 0 0 1m-4 0a.5.5 0 1 0 0-1 .5.5 0 0 0 0 1m1 2a.5.5 0 1 0 0-1 .5.5 0 0 0 0 1m-2 0a.5.5 0 1 0 0-1 .5.5 0 0 0 0 1"/>
</svg>
