<!-- Copyright © 2000–2024 JetBrains s.r.o. -->
<svg width="16" height="16" viewBox="0 0 16 16" xmlns="http://www.w3.org/2000/svg">
  <path fill="#43454A" d="M6 1.5C4.07 1.5 2.5 3.07 2.5 5v3h1.38a1.499 1.499 0 0 1 2.18-2.06l2.5 2.5c.14.14.25.3.32.48.16.38.16.78 0 1.15-.08.18-.18.34-.32.48l-2.51 2.51A1.499 1.499 0 0 1 3.49 12c0-.37.13-.72.38-1H2.49v3.5h11v-13h-7.5z"/>
  <path fill="none" stroke="#CED0D6" stroke-linecap="round" stroke-linejoin="round" d="M2.5 7.5V5c0-1.93 1.57-3.5 3.5-3.5h7.5v13h-11v-3"/>
  <path fill="none" stroke="#DB5C5C" stroke-linecap="round" stroke-linejoin="round" d="M7.5 9.5h-7M5 12l2.5-2.5L5 7"/>
</svg>
