<!-- Copyright © 2000–2024 JetBrains s.r.o. -->
<svg width="16" height="16" viewBox="0 0 16 16" xmlns="http://www.w3.org/2000/svg">
  <path d="M13.5 15h-11c-.28 0-.5-.22-.5-.5V5c0-2.21 1.79-4 4-4h7.5c.28 0 .5.22.5.5v13c0 .28-.22.5-.5.5M3 14h10V2H6C4.35 2 3 3.35 3 5z"/>
  <path d="M7 5.5v2c0 .28-.22.5-.5.5S6 7.78 6 7.5v-.72c-.14.12-.27.26-.38.4-.1.13-.25.2-.4.2a.496.496 0 0 1-.39-.8c.16-.21.35-.4.54-.57H4.5c-.28 0-.5-.22-.5-.5s.22-.5.5-.5h2c.28 0 .5.22.5.5Zm3.38 1.68c.1.13.25.2.4.2a.496.496 0 0 0 .39-.8c-.12-.15-.24-.29-.38-.43a.513.513 0 0 0-.71 0c-.19.2-.19.51 0 .71.1.1.2.21.28.32Zm1.59 1.3a.497.497 0 0 0-.56-.43c-.27.04-.47.29-.43.56.02.13.02.26.02.39s0 .26-.03.39c-.04.27.16.52.43.56h.07c.25 0 .46-.18.5-.44a4.5 4.5 0 0 0 0-1.04Zm-1.59 2.34c-.16.21-.35.39-.55.55a.496.496 0 0 0 .31.89c.11 0 .21-.03.31-.1.28-.21.52-.46.73-.74.17-.22.13-.53-.09-.7a.496.496 0 0 0-.7.09ZM8.4 11.97c-.26.04-.53.03-.78 0-.28-.04-.52.16-.56.44-.03.27.16.52.44.56.16.02.33.03.5.03.18 0 .36-.01.53-.04.27-.04.47-.29.43-.56s-.29-.47-.56-.43m-2.77-1.13a.496.496 0 0 0-.7-.09c-.22.17-.26.48-.09.7.21.27.46.52.74.73.09.07.2.1.3.1.15 0 .3-.07.4-.2.17-.22.12-.53-.1-.7-.21-.16-.4-.34-.56-.55Zm-.6-1.42C5.01 9.28 5 9.15 5 9c0-.12 0-.25.02-.37a.503.503 0 1 0-1-.12 4 4 0 0 0 .01 1.04c.03.25.25.43.49.43h.07a.51.51 0 0 0 .43-.56Z"/>
</svg>
