<!-- Copyright © 2000–2024 JetBrains s.r.o. -->
<svg width="16" height="16" viewBox="0 0 16 16" xmlns="http://www.w3.org/2000/svg">
  <path fill="#9aa7b0" d="M6 1C3.79 1 2 2.79 2 5v10h12V1zm7 13H3V5c0-1.66 1.34-3 3-3h7z"/>
  <path fill="#9aa7b0" d="M10 10h1v1c0 .55-.45 1-1 1s-1-.45-1-1V6.91c.58-.21 1-.76 1-1.41C10 4.67 9.33 4 8.5 4S7 4.67 7 5.5c0 .65.42 1.2 1 1.41V11c0 .55-.45 1-1 1s-1-.45-1-1v-1h1L5 8v3c0 1.1.9 2 2 2 .6 0 1.13-.27 1.5-.69.37.42.9.69 1.5.69 1.1 0 2-.9 2-2V8zM8.5 5c.28 0 .5.22.5.5s-.22.5-.5.5-.5-.22-.5-.5.22-.5.5-.5"/>
</svg>
