<!-- Copyright © 2000–2024 JetBrains s.r.o. -->
<svg width="16" height="16" viewBox="0 0 16 16" xmlns="http://www.w3.org/2000/svg">
  <path fill="#9aa7b0" d="M6 1C3.79 1 2 2.79 2 5v10h12V1zm7 13H3V5c0-1.66 1.34-3 3-3h7z"/>
  <path fill="#9aa7b0" d="m12.4 6.38-1.63-.41.47-1.03s.01-.1-.03-.14a.124.124 0 0 0-.14-.03l-.9.41-.54-2.07c-.01-.06-.07-.09-.12-.09-.06 0-.11.04-.12.09l-.54 2.07-.91-.41s-.1-.01-.14.03c-.04.04-.05.09-.03.14l.47 1.03-1.63.42c-.06.01-.1.06-.1.12s.04.11.1.12l1.63.42-.47 1.03s-.01.1.03.14c.04.04.09.05.14.03l.91-.41.54 2.07c.01.06.07.1.13.1s.11-.04.13-.1l.54-2.07.9.41s.1.01.14-.03c.04-.04.05-.09.03-.14l-.47-1.03 1.63-.42c.06-.01.1-.07.1-.12s-.04-.11-.1-.12ZM9.5 7c-.28 0-.5-.22-.5-.5s.22-.5.5-.5.5.22.5.5-.22.5-.5.5"/>
</svg>
