<!-- Copyright © 2000–2024 JetBrains s.r.o. -->
<svg width="16" height="16" viewBox="0 0 16 16" xmlns="http://www.w3.org/2000/svg">
  <path fill="#9aa7b0" d="M6 1C3.79 1 2 2.79 2 5v10h12V1zm7 13H3V5c0-1.66 1.34-3 3-3h7z"/>
  <path fill="#9aa7b0" d="M8.5 8.5s-.02-.06-.06-.07l-1.17-.31.24-.54s0-.06-.02-.08-.05-.03-.08-.02l-.54.24-.31-1.17s-.04-.06-.07-.06-.06.02-.07.06l-.31 1.17-.54-.24s-.06 0-.08.02-.03.05-.02.08l.24.54-1.17.31s-.06.04-.06.07.02.06.06.07l1.17.31-.24.54s0 .06.02.08.05.03.08.02l.54-.24.31 1.17s.04.06.07.06.06-.02.07-.06l.31-1.17.54.24s.06 0 .08-.02.03-.05.02-.08l-.24-.54 1.17-.31s.06-.04.06-.07Zm-2 .5c-.28 0-.5-.22-.5-.5s.22-.5.5-.5.5.22.5.5-.22.5-.5.5m6 1.5s-.02-.06-.06-.07l-1.17-.31.24-.54s0-.06-.02-.08-.05-.03-.08-.02l-.54.24-.31-1.17s-.04-.06-.07-.06-.06.02-.07.06l-.31 1.17-.54-.24s-.06 0-.08.02-.03.05-.02.08l.24.54-1.17.31s-.06.04-.06.07.02.06.06.07l1.17.31-.24.54s0 .06.02.08.05.03.08.02l.54-.24.31 1.17s.04.06.07.06.06-.02.07-.06l.31-1.17.54.24s.06 0 .08-.02.03-.05.02-.08l-.24-.54 1.17-.31s.06-.04.06-.07Zm-2 .5c-.28 0-.5-.22-.5-.5s.22-.5.5-.5.5.22.5.5-.22.5-.5.5m2-5.5s-.02-.06-.06-.07l-1.17-.31.24-.54s0-.06-.02-.08-.05-.03-.08-.02l-.54.24-.31-1.17s-.04-.06-.07-.06-.06.02-.07.06l-.31 1.17-.54-.24s-.06 0-.08.02-.03.05-.02.08l.24.54-1.17.31s-.06.04-.06.07.02.06.06.07l1.17.31-.24.54s0 .06.02.08.05.03.08.02l.54-.24.31 1.17s.04.06.07.06.06-.02.07-.06l.31-1.17.54.24s.06 0 .08-.02.03-.05.02-.08l-.24-.54 1.17-.31s.06-.04.06-.07m-2 .5c-.28 0-.5-.22-.5-.5s.22-.5.5-.5.5.22.5.5-.22.5-.5.5"/>
</svg>
