<!-- Copyright © 2000–2024 JetBrains s.r.o. -->
<svg width="16" height="16" viewBox="0 0 16 16" xmlns="http://www.w3.org/2000/svg">
  <path fill="#9aa7b0" fill-rule="evenodd" d="M6 1C3.79 1 2 2.79 2 5v10h12V1zm7 13H3V5c0-1.65 1.35-3 3-3h7z"/>
  <path fill="#9aa7b0" fill-rule="evenodd" d="m11.09 6.46-.32-.39-.77.64.32.39c.44.53.68 1.21.68 1.91 0 1.65-1.35 3-3 3s-3-1.35-3-3c0-.38.08-.74.21-1.09l1.14.64L5.74 6l-2.62.74 1.21.68c-.21.5-.34 1.03-.34 1.58 0 2.21 1.79 4 4 4s4-1.79 4-4c0-.93-.32-1.83-.91-2.54Z"/>
  <path fill="#f4af3d" d="M8.55 7.35h-1.1L7.25 3h1.5zM8 8.2c-.44 0-.8.36-.8.8s.36.8.8.8.8-.36.8-.8-.36-.8-.8-.8"/>
</svg>
