<!-- Copyright © 2000–2024 JetBrains s.r.o. -->
<svg width="16" height="16" viewBox="0 0 16 16" xmlns="http://www.w3.org/2000/svg">
  <path d="M13.5 15h-11c-.28 0-.5-.22-.5-.5V5c0-2.21 1.79-4 4-4h7.5c.28 0 .5.22.5.5v13c0 .28-.22.5-.5.5M3 14h10V2H6C4.35 2 3 3.35 3 5z"/>
  <path d="M10.86 6.2c-.19-.2-.51-.2-.71 0-.2.19-.2.51 0 .71.55.56.86 1.31.86 2.1 0 1.65-1.35 3-3 3s-3-1.35-3-3c0-.48.12-.94.33-1.35l.19.6c.07.21.26.35.48.35.05 0 .1 0 .15-.02.26-.08.41-.36.33-.63l-.63-2.01-2.23.37c-.27.04-.46.3-.41.58.04.27.3.46.58.41l.67-.11c-.29.56-.45 1.18-.45 1.82 0 2.21 1.79 4 4 4s4-1.79 4-4c0-1.05-.41-2.05-1.14-2.8Z"/>
  <path d="M8 7.45c-.36 0-.65-.29-.65-.65V3.65c0-.36.29-.65.65-.65s.65.29.65.65V6.8c0 .36-.29.65-.65.65m0 .75c-.44 0-.8.36-.8.8s.36.8.8.8.8-.36.8-.8-.36-.8-.8-.8"/>
</svg>
