<!-- Copyright © 2000–2024 JetBrains s.r.o. -->
<svg width="16" height="16" viewBox="0 0 16 16" xmlns="http://www.w3.org/2000/svg">
  <path fill="#43454A" stroke="#CED0D6" stroke-linecap="round" stroke-linejoin="round" d="M2.5 14.5V5c0-1.93 1.57-3.5 3.5-3.5h7.5v13z"/>
  <path fill="none" stroke="#CED0D6" stroke-linecap="round" stroke-linejoin="round" d="M10.5 6.55c.62.63 1 1.5 1 2.45 0 1.93-1.57 3.5-3.5 3.5S4.5 10.93 4.5 9c0-.88.32-1.68.86-2.29"/>
  <path fill="none" stroke="#CED0D6" stroke-linecap="round" stroke-miterlimit="10" d="m6 8.1-.5-1.6-1.8.3"/>
  <path fill="none" stroke="#CED0D6" stroke-linecap="round" stroke-linejoin="round" stroke-width="1.3" d="M8 3.65V6.8"/>
  <path fill="#CED0D6" d="M8 9.8a.8.8 0 1 0 0-1.6.8.8 0 0 0 0 1.6"/>
</svg>
