<!-- Copyright © 2000–2024 JetBrains s.r.o. -->
<svg width="16" height="16" viewBox="0 0 16 16" xmlns="http://www.w3.org/2000/svg">
  <path fill="#EBECF0" stroke="#6C707E" stroke-linecap="round" stroke-linejoin="round" d="M2.5 14.5V5c0-1.93 1.57-3.5 3.5-3.5h7.5v13z"/>
  <path fill="none" stroke="#6C707E" stroke-linecap="round" stroke-miterlimit="10" d="M7.5 8V6.5c0-.55.45-1 1-1s1 .45 1 1V8"/>
  <path fill="#6C707E" d="M10 8H7c-.55 0-1 .45-1 1v2c0 .55.45 1 1 1h3c.55 0 1-.45 1-1V9c0-.55-.45-1-1-1m-1 2.5c0 .28-.22.5-.5.5s-.5-.22-.5-.5v-1c0-.28.22-.5.5-.5s.5.22.5.5z"/>
</svg>
