<!-- Copyright © 2000–2024 JetBrains s.r.o. -->
<svg width="16" height="16" viewBox="0 0 16 16" xmlns="http://www.w3.org/2000/svg">
  <path fill="#43454A" d="M2.5 14.5V5c0-1.93 1.57-3.5 3.5-3.5h7.5v13z"/>
  <path fill="none" stroke="#CED0D6" stroke-linecap="round" stroke-linejoin="round" d="M13.5 11.83v2.67h-11V5c0-1.93 1.57-3.5 3.5-3.5h7.5v4.67"/>
  <path fill="none" stroke="#CED0D6" stroke-linecap="round" stroke-miterlimit="10" d="M10.82 11.35A2.5 2.5 0 0 0 12.5 9c0-1.09-.7-2.01-1.68-2.35m-3 4.7A2.5 2.5 0 0 0 9.5 9c0-1.09-.7-2.01-1.68-2.35m-3.32 4.8a2.5 2.5 0 0 0 0-4.9"/>
</svg>
