<!-- Copyright © 2000–2024 JetBrains s.r.o. -->
<svg width="16" height="16" viewBox="0 0 16 16" xmlns="http://www.w3.org/2000/svg">
  <path fill="#9aa7b0" d="M6 1C3.79 1 2 2.79 2 5v10h12V1zm7 13H3V5c0-1.66 1.34-3 3-3h7z"/>
  <path fill="#9aa7b0" fill-rule="evenodd" d="M7.08 5.53 7.41 4h1.18l.33 1.53.75.44 1.49-.48.59 1.02-1.16 1.05v.87l1.16 1.05-.59 1.02-1.49-.48-.75.44-.33 1.53H7.41l-.33-1.53-.75-.44-1.49.48-.59-1.02 1.16-1.05v-.87L4.25 6.51l.59-1.02 1.49.48zM7 8c0 .55.45 1 1 1s1-.45 1-1-.45-1-1-1-1 .45-1 1"/>
</svg>
