<!-- Copyright © 2000–2024 JetBrains s.r.o. -->
<svg width="16" height="16" viewBox="0 0 16 16" xmlns="http://www.w3.org/2000/svg">
  <path fill="#9aa7b0" d="M6 1C3.79 1 2 2.79 2 5v10h12V1zm7 13H3V5c0-1.66 1.34-3 3-3h7z"/>
  <path fill="#9aa7b0" d="m6.003 8.504 2.001-2.002 2.001 2.002-2 2zM5.68 5.2 5.42 5C4.47 5.9 4 7.2 4 8.5s.47 2.6 1.42 3.5l.26-.2c-.46-1.02-.78-1.98-.78-3.3 0-1.32.32-2.28.78-3.3m4.64 0 .26-.2c.95.9 1.42 2.2 1.42 3.5s-.47 2.6-1.42 3.5l-.26-.2c.46-1.02.78-1.98.78-3.3 0-1.32-.32-2.28-.78-3.3"/>
</svg>
