<!-- Copyright © 2000–2024 JetBrains s.r.o. -->
<svg width="16" height="16" viewBox="0 0 16 16" xmlns="http://www.w3.org/2000/svg">
  <path fill="#9aa7b0" d="M13.99 9.1c-.03.97-.4 1.84-.99 2.52V14H3V5c0-1.66 1.34-3 3-3h7v4.38c.59.68.97 1.55.99 2.52V1H6C3.79 1 2 2.79 2 5v10h12V9.1Z"/>
  <path fill="#9aa7b0" fill-rule="evenodd" d="M10 6c-.12 0-.23.02-.34.03C10.48 6.76 11 7.81 11 9s-.52 2.23-1.34 2.97c.11.01.22.03.34.03 1.66 0 3-1.34 3-3s-1.34-3-3-3M4 6v6c1.66 0 3-1.34 3-3S5.66 6 4 6"/>
  <path fill="#9aa7b0" fill-rule="evenodd" d="M7 6c-.12 0-.23.02-.34.03C7.48 6.76 8 7.81 8 9s-.52 2.23-1.34 2.97c.11.01.22.03.34.03 1.66 0 3-1.34 3-3S8.66 6 7 6"/>
</svg>
