<!-- Copyright © 2000–2024 JetBrains s.r.o. -->
<svg width="16" height="16" viewBox="0 0 16 16" xmlns="http://www.w3.org/2000/svg">
  <path fill="#9aa7b0" d="M6 1C3.79 1 2 2.79 2 5v10h12V1zm7 13H3V5c0-1.66 1.34-3 3-3h7z"/>
  <path fill="#9aa7b0" d="M6 6.36c0-.36.06-.69.18-.97.12-.29.29-.54.5-.74.22-.21.48-.36.78-.48.31-.11.65-.17 1.03-.17s.73.06 1.03.17c.31.11.57.27.78.48.22.2.38.45.5.74s.18.61.18.97v3.29c0 .35-.06.68-.18.97-.12.29-.29.54-.51.75-.22.2-.48.36-.79.48-.31.11-.65.17-1.02.17s-.73-.06-1.03-.17c-.31-.11-.57-.27-.78-.48-.22-.21-.38-.45-.5-.75-.12-.29-.18-.61-.18-.97V6.36Zm1.19 3.28c0 .4.12.71.36.95s.56.36.95.36.71-.12.95-.36.36-.55.36-.95V6.35c0-.4-.12-.72-.36-.96s-.56-.36-.95-.36-.71.12-.95.36-.36.56-.36.96v3.29M8 7.57c0-.17.05-.31.14-.41.09-.1.21-.16.36-.16s.27.05.36.16.14.24.14.41v.86c0 .17-.04.31-.14.41-.09.1-.21.16-.36.16s-.27-.05-.36-.16A.598.598 0 0 1 8 8.43v-.86Z"/>
</svg>
