<!-- Copyright © 2000–2024 JetBrains s.r.o. -->
<svg width="16" height="16" viewBox="0 0 16 16" xmlns="http://www.w3.org/2000/svg">
  <path fill="#EBECF0" stroke="#6C707E" stroke-linecap="round" stroke-linejoin="round" d="M2.5 14.5V5c0-1.93 1.57-3.5 3.5-3.5h7.5v13z"/>
  <path fill="none" stroke="#6C707E" stroke-linecap="round" stroke-linejoin="round" d="M8.5 6.5V11c0 .83.67 1.5 1.5 1.5s1.5-.67 1.5-1.5V9.5l-1 1m-2 .5c0 .83-.67 1.5-1.5 1.5s-1.5-.67-1.5-1.5V9.5l1 1m2-4a1 1 0 1 0 0-2 1 1 0 0 0 0 2"/>
</svg>
