<!-- Copyright © 2000–2024 JetBrains s.r.o. -->
<svg width="16" height="16" viewBox="0 0 16 16" xmlns="http://www.w3.org/2000/svg">
  <path d="M13.5 15h-11c-.28 0-.5-.22-.5-.5V5c0-2.21 1.79-4 4-4h7.5c.28 0 .5.22.5.5v13c0 .28-.22.5-.5.5M3 14h10V2H6C4.35 2 3 3.35 3 5z"/>
  <path d="M9.68 5.37c-.25-.12-.55 0-.66.24-.12.25 0 .55.24.66C10.32 6.76 11 7.83 11 8.99c0 1.65-1.35 3-3 3s-3-1.35-3-3c0-.85.38-1.64 1-2.21v.71c0 .28.22.5.5.5s.5-.22.5-.5v-2.5H4.5c-.28 0-.5.22-.5.5s.22.5.5.5h.86C4.5 6.75 4 7.84 4 8.99c0 2.21 1.79 4 4 4a3.999 3.999 0 0 0 1.68-7.63Z"/>
</svg>
