<!-- Copyright © 2000–2024 JetBrains s.r.o. -->
<svg width="16" height="16" viewBox="0 0 16 16" xmlns="http://www.w3.org/2000/svg">
  <path fill="#252525" fill-rule="evenodd" d="M1 16V5c0-2.76 2.24-5 5-5h9v16z"/>
  <path fill="#c4c4c4" fill-rule="evenodd" d="M6 1C3.79 1 2 2.79 2 5v10h12V1z"/>
  <path fill="#292929" fill-rule="evenodd" d="M3 14V5c0-1.65 1.35-3 3-3h7v12z"/>
  <path fill="#292929" fill-rule="evenodd" d="M9.69 4.31 9.8 2H6.21l.11 2.31c-.58.22-1.12.53-1.58.94l-1.73.49v2.08l.13.07c-.08.36-.13.73-.13 1.11 0 2.76 2.24 5 5 5s5-2.24 5-5c0-2.17-1.38-3.99-3.31-4.69Z"/>
  <path fill="#c4c4c4" fill-rule="evenodd" d="m11.09 6.46-.32-.39-.77.64.32.39c.44.53.68 1.21.68 1.91 0 1.65-1.35 3-3 3s-3-1.35-3-3c0-.38.08-.74.21-1.09l1.14.64L5.74 6l-2.62.74 1.21.68c-.21.5-.34 1.03-.34 1.58 0 2.21 1.79 4 4 4s4-1.79 4-4c0-.93-.32-1.83-.91-2.54Z"/>
  <path fill="#e9a34d" d="M8.55 7.35h-1.1L7.25 3h1.5zM8 8.2c-.44 0-.8.36-.8.8s.36.8.8.8.8-.36.8-.8-.36-.8-.8-.8"/>
</svg>
