<!-- Copyright © 2000–2024 JetBrains s.r.o. -->
<svg width="16" height="16" viewBox="0 0 16 16" xmlns="http://www.w3.org/2000/svg">
  <path fill="#43454A" d="M6 1.5C4.07 1.5 2.5 3.07 2.5 5v.53s.09.03.14.02c.12-.03.24-.05.36-.05A1.499 1.499 0 0 1 4.5 7c0 .37-.13.72-.38 1h.38c.39 0 .73.15 1 .39.27-.24.61-.39 1-.39h.38a1.499 1.499 0 0 1 2.18-2.06l2.5 2.5c.14.14.25.3.32.48.16.38.16.78 0 1.15-.08.18-.18.34-.32.48l-2.51 2.51A1.499 1.499 0 0 1 6.49 12c0-.37.13-.72.38-1h-.38c-.39 0-.73-.15-1-.39-.27.24-.61.39-1 .39h-.38a1.499 1.499 0 0 1-1.12 2.5c-.12 0-.24-.02-.36-.05-.05-.01-.14.03-.14.03v1.02h11v-13h-7.5H6"/>
  <path fill="none" stroke="#CED0D6" stroke-linecap="round" stroke-linejoin="round" d="M2.5 5.06V5c0-1.93 1.57-3.5 3.5-3.5h7.5v13h-11v-.56"/>
  <path fill="none" stroke="#57965C" stroke-linecap="round" stroke-linejoin="round" d="M.5 9.5h4M3 7 .5 9.5 3 12"/>
  <path fill="none" stroke="#DB5C5C" stroke-linecap="round" stroke-linejoin="round" d="M10.5 9.5h-4M8 12l2.5-2.5L8 7"/>
</svg>
