<svg width="256" height="256" viewBox="0 0 256 256" fill="none" xmlns="http://www.w3.org/2000/svg">
<g clip-path="url(#clip0_4372_11173)">
<path d="M239.709 0L99.8423 0C95.5229 0 91.378 1.7152 88.3223 4.77091L4.77091 88.32C1.7152 91.3757 0 95.5183 0 99.84L0 239.709C0 248.706 7.29367 256 16.2909 256H156.155C160.479 256 164.627 254.28 167.682 251.222L251.229 167.58C254.28 164.527 255.993 160.384 255.993 156.067L256 16.2909C256 7.29367 248.706 0 239.709 0Z" fill="url(#paint0_linear_4372_11173)"/>
<path d="M209 47L47 47L47 209L209 209L209 47Z" fill="black"/>
<path d="M132 177H68V187H132V177Z" fill="white"/>
<path d="M68 118.539H76.5976L76.5976 79.1407H68V68.5991H96.8152V79.1407H88.2176V118.539H96.8152L96.8152 129.081H68V118.539Z" fill="white"/>
<path d="M102.19 118.194H112.213C113.567 118.194 114.748 117.921 115.757 117.373C116.766 116.827 117.543 116.049 118.089 115.04C118.636 114.031 118.911 112.851 118.911 111.497V68.5991H130.705V112.36C130.705 115.672 129.999 118.595 128.587 121.129C127.175 123.635 125.173 125.593 122.581 127.005C120.017 128.386 117.053 129.078 113.683 129.078H102.193V118.192L102.19 118.194Z" fill="white"/>
</g>
<defs>
<linearGradient id="paint0_linear_4372_11173" x1="4.77091" y1="251.227" x2="251.227" y2="4.77091" gradientUnits="userSpaceOnUse">
<stop offset="0.21" stop-color="#FE2857"/>
<stop offset="0.7" stop-color="#007EFF"/>
</linearGradient>
<clipPath id="clip0_4372_11173">
<rect width="256" height="256" fill="white"/>
</clipPath>
</defs>
</svg>
