<svg width="256" height="256" viewBox="0 0 256 256" fill="none" xmlns="http://www.w3.org/2000/svg">
<g clip-path="url(#clip0_4372_11173)">
<path d="M239.709 0L99.8423 0C95.5229 0 91.378 1.7152 88.3223 4.77091L4.77091 88.32C1.7152 91.3757 0 95.5183 0 99.84L0 239.709C0 248.706 7.29367 256 16.2909 256L156.155 256C160.479 256 164.627 254.28 167.682 251.222L251.229 167.58C254.28 164.527 255.993 160.384 255.993 156.067L256 16.2909C256 7.29367 248.706 0 239.709 0Z" fill="url(#paint0_radial_4372_11173)"/>
<path d="M209 47L47 47L47 209L209 209L209 47Z" fill="black"/>
<path d="M132 177H68V187H132V177Z" fill="white"/>
<path d="M68 119.368H80.1138L80.1138 79.6319H68V69H103.945V79.6319H91.8315V119.368H103.945V130H68V119.368Z" fill="white"/>
<path d="M110.045 119.021H118.804C120.575 119.021 122.152 118.643 123.532 117.889C124.911 117.134 125.978 116.066 126.733 114.687C127.488 113.308 127.865 111.733 127.865 109.959V69H139.76V110.784C139.76 114.445 138.917 117.735 137.232 120.654C135.547 123.574 133.224 125.862 130.261 127.516C127.297 129.173 123.972 130 120.284 130H110.045V119.021Z" fill="white"/>
</g>
<defs>
<radialGradient id="paint0_radial_4372_11173" cx="0" cy="0" r="1" gradientUnits="userSpaceOnUse" gradientTransform="translate(255.998) rotate(135) scale(347.895)">
<stop offset="0.113817" stop-color="#FE2857"/>
<stop offset="0.778454" stop-color="#007EFF"/>
</radialGradient>
<clipPath id="clip0_4372_11173">
<rect width="256" height="256" fill="white"/>
</clipPath>
</defs>
</svg>
