<svg width="48" height="48" viewBox="0 0 48 48" fill="none" xmlns="http://www.w3.org/2000/svg">
<g clip-path="url(#clip0_4372_11171)">
<path d="M44.9455 0H18.7204C17.9105 0 17.1334 0.3216 16.5604 0.894545L0.894545 16.56C0.3216 17.1329 0 17.9097 0 18.72V44.9455C0 46.6324 1.36756 48 3.05455 48H29.2791C30.0899 48 30.8675 47.6775 31.4404 47.1041L47.1055 31.4212C47.6775 30.8487 47.9987 30.072 47.9987 29.2625L48 3.05455C48 1.36756 46.6324 0 44.9455 0Z" fill="url(#paint0_radial_4372_11171)"/>
<path d="M39 9H9V39H39V9Z" fill="black"/>
<path d="M24.9995 33H12.9995V35.0001H24.9995V33Z" fill="white"/>
<path d="M13 22.0828H15.1845V14.9172H13V13H19.4819V14.9172H17.2975V22.0828H19.4819V24H13V22.0828Z" fill="white"/>
<path d="M20.5816 22.0202H22.161C22.4803 22.0202 22.7648 21.9521 23.0135 21.816C23.2623 21.6798 23.4547 21.4874 23.5908 21.2387C23.727 20.9899 23.795 20.7059 23.795 20.3861V13H25.94V20.5349C25.94 21.195 25.7879 21.7882 25.4841 22.3147C25.1803 22.8412 24.7614 23.2538 24.227 23.5521C23.6925 23.8508 23.0929 24 22.4278 24H20.5816V22.0202Z" fill="white"/>
</g>
<defs>
<radialGradient id="paint0_radial_4372_11171" cx="0" cy="0" r="1" gradientUnits="userSpaceOnUse" gradientTransform="translate(47.9996) rotate(135) scale(65.4071)">
<stop offset="0.0819502" stop-color="#FE2857"/>
<stop offset="0.72777" stop-color="#007EFF"/>
</radialGradient>
<clipPath id="clip0_4372_11171">
<rect width="48" height="48" fill="white"/>
</clipPath>
</defs>
</svg>
