<svg width="16" height="16" viewBox="0 0 16 16" xmlns="http://www.w3.org/2000/svg">
  <path fill="#6e6e6e" fill-rule="evenodd" d="M2.5 1C1.67 1 1 1.67 1 2.5v4.01c.28-.29.67-.46 1.07-.48l1.5.61c.57.21 1.16.36 1.76.44.02 0-1.42-.91-1.91-1.16-1.04-.53-1.63-.91-1.58-1.39.13-.62.38-1.2.72-1.73.11-.1 3.64 1.74 3.95 1.58.05-.02-.06-.4-.89-.86a5.26 5.26 0 0 1-1.03-.65c.41-.26.84-.48 1.29-.64.87-.27 5.85 1.11 5.91 1.41.18.76.25 1.54.22 2.32.02.53-.68.19-2.31-.31-.52-.16-1.71-.41-1.29.11.98.57 1.98 1.09 3.02 1.55.54 1.09.69 2.34.4 3.53-.1.18-1.77-.56-2.6-1.34-.39-.33-.82-.63-1.26-.89.11.48.32.94.61 1.34.91.93 1.96 1.73 3.1 2.36 0 0-.6 1.36-.71 1.51-1.62-.55-3.18-1.26-4.66-2.13-1.5-.8-1.77-.21-1.81-.22-1.12.76-2.28 1.44-3.49 2.03 0 .83.67 1.5 1.5 1.5h11c.83 0 1.5-.67 1.5-1.5v-11c0-.83-.67-1.5-1.5-1.5z"/>
</svg>
