<svg width="16" height="16" viewBox="0 0 16 16" xmlns="http://www.w3.org/2000/svg">
  <path fill="none" stroke="#CED0D6" stroke-linecap="round" stroke-linejoin="round" d="M13.35 8.01c.1.32.17 1.1.17 1.37 0 1.67-.48 3.44-1.23 5.13-1.89-.49-4.42-1.79-6.21-2.65-.37.95-2.02 2.65-2.02 2.65M6.58 2.82C7.4 2.08 8.68 2 8.81 2c1.36 0 4.93 1.05 5.27 1.3.32.24.42 1.37.42 2.01 0 .28-.16.78-.25 1-.13.32-2.52-.33-3.4-.73M1.5 6.83s2.04-.49 3.75-.91"/>
  <path fill="none" stroke="#CED0D6" stroke-linecap="round" stroke-linejoin="round" d="M6.16 6.55c-2.15-1.36-2.8-2.63-2.8-2.98 0-.19 1.17-1.3 1.48-1.3.93 0 2.42.95 3.58 1.4m4.18 8.24c-.93-.49-2.08-1.45-2.53-2.43"/>
</svg>
