<!-- Copyright © 2000–2024 JetBrains s.r.o. -->
<svg width="16" height="16" viewBox="0 0 16 16" xmlns="http://www.w3.org/2000/svg">
  <path fill="#f4f4f4" d="M16 2.81 11.13 0H8.87L4 2.81v6.93L9.65 13h.7L16 9.74z"/>
  <path fill="#323232" d="M14.22 9.61 10 12.04 5.78 9.61 7.53 8.6l1.44.83c.06.04.15-.01.15-.09V6.89c0-.07-.04-.14-.1-.17L6.9 5.49c-.06-.04-.15.01-.15.09v1.66L5 8.25V3.39L9.22.95v2.02l-1.44.83c-.07.04-.06.14 0 .17L9.9 5.2c.06.03.14.04.2 0l2.12-1.23c.07-.04.06-.14 0-.17l-1.44-.83V.95L15 3.38v4.87l-1.75-1.01V5.58c0-.08-.09-.13-.15-.09l-2.12 1.23c-.06.03-.1.1-.1.17v2.45c0 .08.09.12.15.09l1.44-.83z"/>
  <path fill="#f4f4f4" d="M9 15V8H0v7h2v1h5v-1z"/>
  <path fill="#323232" d="M8 14V9H1v5h2v1h3v-1z"/>
  <path fill="#ebebeb" d="M2 10h5v3H2z"/>
</svg>
