<!-- Copyright © 2000–2024 JetBrains s.r.o. -->
<svg width="32" height="32" viewBox="0 0 32 32" xmlns="http://www.w3.org/2000/svg">
  <path fill="#f4f4f4" d="M32 6.37 20.96 0h-5.92L4 6.37v16.17L16.92 30h2.16L32 22.54z"/>
  <path fill="#323232" d="m23.92 20.05-3.46 2c-.15.09-.36-.03-.36-.21v-5.89c0-.18.1-.33.24-.42l5.1-2.94c.15-.09.37.03.36.21v3.99l4.2 2.42V7.53L19.88 1.69v4.85l3.46 2c.16.09.16.33 0 .42l-5.1 2.94c-.15.09-.34.08-.48 0l-5.1-2.94a.244.244 0 0 1 0-.42l3.46-2V1.69L6 7.53v11.68l4.2-2.42V12.8c0-.18.21-.3.36-.21l5.1 2.94c.15.09.24.25.24.42v5.89c0 .18-.2.3-.36.21l-3.46-2-4.2 2.42L18 28.31l10.12-5.84z"/>
  <path fill="#f4f4f4" d="M11 30v-9H0v9h2v2h7v-2z"/>
  <path fill="#323232" d="M10 29v-7H1v7h4v1H3v1h5v-1H6v-1z"/>
  <path fill="#ebebeb" d="M2 23h7v5H2z"/>
  <path fill="#f4f4f4" d="M15 26v-9H4v9h2v2h7v-2z"/>
  <path fill="#323232" d="M14 25v-7H5v7h4v1H7v1h5v-1h-2v-1z"/>
  <path fill="#ebebeb" d="M6 19h7v5H6z"/>
</svg>
