<!-- Copyright © 2000–2024 JetBrains s.r.o. -->
<svg width="32" height="32" viewBox="0 0 32 32" xmlns="http://www.w3.org/2000/svg">
  <path fill="#f4f4f4" d="M30 7.37 18.96 1h-5.92L2 7.37v16.17L14.92 31h2.16L30 23.54z"/>
  <path fill="#323232" d="m21.92 21.05-3.46 2c-.15.09-.36-.03-.36-.21v-5.89c0-.18.1-.33.24-.42l5.1-2.94c.15-.09.37.03.36.21v3.99l4.2 2.42V8.53L17.88 2.69v4.85l3.46 2c.16.09.16.33 0 .42l-5.1 2.94c-.15.09-.34.08-.48 0l-5.1-2.94a.244.244 0 0 1 0-.42l3.46-2V2.69L4 8.53v11.68l4.2-2.42V13.8c0-.18.21-.3.36-.21l5.1 2.94c.15.09.24.25.24.42v5.89c0 .18-.2.3-.36.21l-3.46-2-4.2 2.42L16 29.31l10.12-5.84z"/>
</svg>
