<svg width="16" height="16" viewBox="0 0 16 16" fill="none" xmlns="http://www.w3.org/2000/svg">
  <mask id="path-1-inside-1_418_383" fill="white">
    <path fill-rule="evenodd" clip-rule="evenodd" d="M12 10C12 6.5 9 3 8 2C7.75892 3.92866 6.82038 4.92739 5.91302 5.89295C4.93853 6.92993 4 7.92866 4 10C4 12.2091 5.79086 14 8 14C10.2091 14 12 12.2091 12 10Z"/>
  </mask>
  <path fill-rule="evenodd" clip-rule="evenodd" d="M12 10C12 6.5 9 3 8 2C7.75892 3.92866 6.82038 4.92739 5.91302 5.89295C4.93853 6.92993 4 7.92866 4 10C4 12.2091 5.79086 14 8 14C10.2091 14 12 12.2091 12 10Z" fill="#FAD4D8"/>
  <path d="M8 2L8.70711 1.29289L7.26133 -0.152885L7.00772 1.87597L8 2ZM5.91302 5.89295L6.64175 6.57775L5.91302 5.89295ZM7.29289 2.70711C7.74884 3.16305 8.69534 4.22633 9.5208 5.58245C10.3552 6.95319 11 8.51593 11 10H13C13 7.98407 12.1448 6.04681 11.2292 4.54255C10.3047 3.02367 9.25116 1.83695 8.70711 1.29289L7.29289 2.70711ZM6.64175 6.57775C7.56501 5.59527 8.70855 4.39389 8.99228 2.12403L7.00772 1.87597C6.80929 3.46344 6.07575 4.25951 5.18429 5.20814L6.64175 6.57775ZM5 10C5 9.13113 5.19282 8.53201 5.46414 8.0462C5.75113 7.53234 6.14237 7.10916 6.64175 6.57775L5.18429 5.20814C4.70919 5.71372 4.14391 6.3084 3.71801 7.07099C3.27645 7.86162 3 8.79753 3 10H5ZM8 13C6.34315 13 5 11.6569 5 10H3C3 12.7614 5.23858 15 8 15V13ZM11 10C11 11.6569 9.65685 13 8 13V15C10.7614 15 13 12.7614 13 10H11Z" fill="#DB3B4B" mask="url(#path-1-inside-1_418_383)"/>
  <path d="M9.5 12C9.5 12.8284 8.82843 13.5 8 13.5C7.17157 13.5 6.5 12.8284 6.5 12C6.5 11.8211 6.57568 11.5056 6.7353 11.0873C6.88875 10.6852 7.09947 10.2393 7.32276 9.82144C7.54626 9.40318 7.77607 9.02478 7.96398 8.75658C7.97631 8.73898 7.98832 8.72206 8 8.70581C8.01168 8.72206 8.02369 8.73898 8.03602 8.75658C8.22393 9.02478 8.45374 9.40318 8.67724 9.82144C8.90053 10.2393 9.11125 10.6852 9.2647 11.0873C9.42432 11.5056 9.5 11.8211 9.5 12Z" fill="#FAD4D8" stroke="#DB3B4B"/>
</svg>
