<svg width="16" height="16" viewBox="0 0 16 16" fill="none" xmlns="http://www.w3.org/2000/svg">
  <path
    d="M7.30664 1.91211C7.66578 1.55326 8.23392 1.53067 8.61914 1.84473L8.69336 1.91211L14.0879 7.30664C14.4467 7.66578 14.4693 8.23392 14.1553 8.61914L14.0879 8.69336L8.69336 14.0879C8.33422 14.4467 7.76608 14.4693 7.38086 14.1553L7.30664 14.0879L1.91211 8.69336C1.55326 8.33422 1.53067 7.76608 1.84473 7.38086L1.91211 7.30664L7.30664 1.91211Z"
    stroke="#6C707E" stroke-width="1.25"/>
  <path
    d="M7.30664 1.91211C7.66578 1.55326 8.23392 1.53067 8.61914 1.84473L8.69336 1.91211L14.0879 7.30664C14.4467 7.66578 14.4693 8.23392 14.1553 8.61914L14.0879 8.69336L8.69336 14.0879C8.33422 14.4467 7.76608 14.4693 7.38086 14.1553L7.30664 14.0879L1.91211 8.69336C1.55326 8.33422 1.53067 7.76608 1.84473 7.38086L1.91211 7.30664L7.30664 1.91211Z"
    stroke="#6C707E" stroke-width="1.25"/>
</svg>
