<svg width="16" height="16" viewBox="0 0 16 16" xmlns="http://www.w3.org/2000/svg">
  <path fill="#6e6e6e" fill-rule="evenodd" d="M13.5 6V5H12V3.29C12 2.03 10.97 1 9.71 1H6.29C5.03 1 4 2.03 4 3.29V5H2.5v1H4v.3c-.43.13-.75.53-.75 1.01v.63c0 .53.39.97.89 1.05.26 1.01.91 1.86 1.76 2.4-1.65.64-2.81 2-2.9 3.61h10c-.09-1.61-1.25-2.97-2.9-3.61.85-.54 1.5-1.39 1.76-2.4.5-.08.89-.52.89-1.05v-.63c0-.48-.32-.88-.75-1.01V6h1.5Zm-1.75 1.94c0 .03-.03.06-.06.06h-.24c-.25 0-.46.18-.5.43C10.74 9.89 9.47 11 8 11S5.26 9.89 5.05 8.43a.505.505 0 0 0-.5-.43h-.24c-.03 0-.06-.03-.06-.06v-.63c0-.03.03-.06.06-.06h.19c.28 0 .5-.22.5-.5V6h6v.75c0 .28.22.5.5.5h.19c.03 0 .06.03.06.06v.63Z"/>
  <path fill="#6e6e6e" fill-rule="evenodd" d="M9.5 9h-3a1 1 0 0 1 1-1h1a1 1 0 0 1 1 1Z"/>
</svg>
