<svg width="16" height="16" viewBox="0 0 16 16" xmlns="http://www.w3.org/2000/svg">
  <path fill="none" stroke="#CED0D6" stroke-linecap="round" stroke-linejoin="round" d="M5.934 11.317c-1.278.391-2.698 1.258-2.908 3.183m9.947 0c-.21-1.925-1.629-2.792-2.908-3.183M2.5 5.5h11"/>
  <path fill="none" stroke="#CED0D6" stroke-linecap="round" stroke-linejoin="round" d="M4.5 9a1 1 0 0 1 0-2V3c0-.827.673-1.5 1.5-1.5h4c.827 0 1.5.673 1.5 1.5v4a1 1 0 0 1 0 2h-.036A3.505 3.505 0 0 1 8 12a3.505 3.505 0 0 1-3.464-3H4.5Z"/>
</svg>
