<svg width="16" height="16" viewBox="0 0 16 16" xmlns="http://www.w3.org/2000/svg">
  <path fill="#afb1b3" fill-rule="evenodd" d="M14 6V5h-1.5V3.29C12.5 2.03 11.47 1 10.21 1H6.79C5.53 1 4.5 2.03 4.5 3.29V5H3v1h1.5v.3c-.43.13-.75.53-.75 1.01v.63c0 .53.39.97.89 1.05.26 1.01.91 1.86 1.76 2.4-1.65.64-2.81 2-2.9 3.61h10c-.09-1.61-1.25-2.97-2.9-3.61.85-.54 1.5-1.39 1.76-2.4.5-.08.89-.52.89-1.05v-.63c0-.48-.32-.88-.75-1.01V6H14Zm-1.75 1.94c0 .03-.03.06-.06.06h-.24c-.25 0-.46.18-.5.43C11.24 9.89 9.97 11 8.5 11S5.76 9.89 5.55 8.43a.505.505 0 0 0-.5-.43h-.24c-.03 0-.06-.03-.06-.06v-.63c0-.03.03-.06.06-.06H5c.28 0 .5-.22.5-.5V6h6v.75c0 .28.22.5.5.5h.19c.03 0 .06.03.06.06v.63Z"/>
  <path fill="#afb1b3" fill-rule="evenodd" d="M10 9H7a1 1 0 0 1 1-1h1a1 1 0 0 1 1 1Z"/>
</svg>
