<svg width="16" height="16" viewBox="0 0 16 16" xmlns="http://www.w3.org/2000/svg">
  <path fill="#FFAF0F" d="M12.5 10.1a.6.6 0 1 0 0-1.2.6.6 0 0 0 0 1.2Z"/>
  <path fill="none" stroke="#FFAF0F" stroke-linecap="round" stroke-linejoin="round" d="M12.5 7.5v-6"/>
  <path fill="none" stroke="#6C707E" stroke-linecap="round" stroke-linejoin="round" d="m6.1 7.9 1.6 1.6 2.8-2.8"/>
  <path fill="none" stroke="#6C707E" stroke-linecap="round" stroke-linejoin="round" d="M12.232 11.5c-.346.598-.992 1-1.732 1h-5a2 2 0 0 1-2-2v-5a2 2 0 0 1 1.017-1.742M6.5 3.5h4M8 2 6.5 3.5 8 5"/>
</svg>
