<svg width="16" height="16" viewBox="0 0 16 16" xmlns="http://www.w3.org/2000/svg">
  <path fill="#6e6e6e" d="M9.9 11.999c0-.362.098-.701.262-.999H5V5h5.059l-.042-2H3v10h7.164a2.083 2.083 0 0 1-.264-1.001Z"/>
  <path fill="#eda200" d="M12 13.105c-.597 0-1.1-.472-1.1-1.105 0-.607.49-1.095 1.1-1.095.583 0 1.1.473 1.1 1.095 0 .596-.488 1.105-1.1 1.105ZM13.007 2l-.171 8h-1.673l-.166-8h2.01Z"/>
  <path fill="#6e6e6e" d="M10.091 6.502 8.007 8.586l-1.3-1.3L6 7.993 8.007 10l2.112-2.113-.028-1.385z"/>
</svg>
