<svg width="256" height="256" viewBox="0 0 256 256" fill="none" xmlns="http://www.w3.org/2000/svg">
<path d="M161.2 12L173.1 158.3L71.8 213L12 59L161.2 12Z" fill="url(#paint0_linear)"/>
<path d="M97.9 145.3L71.8 213L12 59L97.9 145.3Z" fill="url(#paint1_linear)"/>
<path d="M161.2 12L165.7 92.7H99.5001L69.6001 40.8L161.2 12Z" fill="url(#paint2_linear)"/>
<path d="M136.4 88.8001L244 67.1001V168.9L170.1 196.5L139.8 169.2L136.4 88.8001Z" fill="url(#paint3_linear)"/>
<path d="M244 67.1L144.4 174.7L161.2 12L244 67.1Z" fill="#21D789"/>
<path d="M244 67.1002L189 54.2002L168.8 198L244 168.9V67.1002Z" fill="url(#paint4_linear)"/>
<path d="M91.3999 58.8999L165.8 70.4999L244 168.9L168.8 198L139.8 169.2L91.3999 58.8999Z" fill="url(#paint5_linear)"/>
<path d="M59.7 12L165.8 70.5L129.2 244H67.5999L14.2 188.8L59.7 12Z" fill="url(#paint6_linear)"/>
<path d="M96.5999 32.2998L50.7999 46.6998L33.3999 114.2L71.7999 213L145.7 165.6L165.6 71.4998L165.5 70.2998L96.5999 32.2998Z" fill="url(#paint7_linear)"/>
<path d="M150.3 72.1L165.8 70.5L150.3 72.1Z" fill="url(#paint8_linear)"/>
<path d="M84.8 158.3L113.5 76L59.7 12L14.2 188.8L84.8 158.3Z" fill="url(#paint9_linear)"/>
<path d="M67.6 244L32.8 208L67.6 244H129.2H67.6Z" fill="url(#paint10_linear)"/>
<path d="M33.3999 114.2L58.8999 179.6L71.7999 213L97.8999 145.3L40.2999 87.3999L33.3999 114.2Z" fill="url(#paint11_linear)"/>
<path d="M84.8 158.3L129.2 244H67.5999L14.2 188.8L84.8 158.3Z" fill="url(#paint12_linear)"/>
<path d="M84.8 158.3L129.2 244L165.8 70.5L113.5 76L84.8 158.3Z" fill="url(#paint13_linear)"/>
<path d="M143.3 174.5L129.2 244H67.6001L71.8001 212.7L143.3 174.5Z" fill="url(#paint14_linear)"/>
<path d="M71.8 213L104.1 195.5L84.8 158.3L55.5 171L71.8 213Z" fill="url(#paint15_linear)"/>
<path d="M104.1 195.4L129.2 244L143.3 174.5L104.1 195.4Z" fill="url(#paint16_linear)"/>
<path d="M59.7 12L165.8 70.5L140.8 73.1L113.5 76L59.7 12Z" fill="url(#paint17_linear)"/>
<path d="M164.4 69.6998L96.6 32.2998L81 37.2998L113.5 75.9998L140.8 73.0998L164.4 70.5998V69.6998Z" fill="url(#paint18_linear)"/>
<path d="M155.1 71.5999L165.8 70.4999L155.8 64.8999L155.1 71.5999Z" fill="url(#paint19_linear)"/>
<path d="M244 168.9L165.8 70.5L140.8 73.1L113.5 76L244 168.9Z" fill="url(#paint20_linear)"/>
<path d="M151.8 103.2L187.2 128.5L200.5 114.1L165.8 70.5L155.1 71.6L151.8 103.2Z" fill="url(#paint21_linear)"/>
<path d="M179.4 122.9L244 168.9L183.6 92.7998L179.4 122.9Z" fill="url(#paint22_linear)"/>
<path d="M244 168.9L168.8 198L144.4 174.7L113.5 76L244 168.9Z" fill="url(#paint23_linear)"/>
<path d="M151.8 103.2L144.4 174.7L187.2 128.5L151.8 103.2Z" fill="url(#paint24_linear)"/>
<path d="M168.8 198L244 168.9L179.4 122.9L168.8 198Z" fill="url(#paint25_linear)"/>
<path d="M144.5 173.9L144.9 174.2L177 139.5L179.4 122.9L149 129.9L144.5 173.9Z" fill="url(#paint26_linear)"/>
<path d="M168.8 198L144.4 174.7L113.5 76L168.8 198Z" fill="url(#paint27_linear)"/>
<path d="M144.4 174.7L168.8 198L147 149.9L144.4 174.7Z" fill="url(#paint28_linear)"/>
<path d="M161.2 12L144.4 174.7L177 139.5L189 54.2L161.2 12Z" fill="url(#paint29_linear)"/>
<path d="M244 67.1L189 54.2L161.2 12L244 67.1Z" fill="url(#paint30_linear)"/>
<path d="M200 56H56V200H200V56Z" fill="url(#paint31_linear)"/>
<g opacity="0.3">
<path opacity="0.3" d="M56 171.9L66.9 200H91.5L171.8 156.7L163.6 56H56V171.9Z" fill="url(#paint32_linear)"/>
<path opacity="0.3" d="M155.3 56L143.3 173L175.6 138L187.1 56H155.3Z" fill="url(#paint33_linear)"/>
<path opacity="0.3" d="M200 56.3L198.9 56H187.1L167.5 196.2L200 183.6V56.3Z" fill="url(#paint34_linear)"/>
<path opacity="0.3" d="M200 137.2L112.5 74.8999L143.3 173L167.5 196.2L200 183.6V137.2Z" fill="url(#paint35_linear)"/>
<path opacity="0.3" d="M56 200H137L164.5 69.5L140 56H56V200Z" fill="url(#paint36_linear)"/>
<path opacity="0.3" d="M56 168.8L84.1 156.7L112.5 74.9L96.6 56H56V168.8Z" fill="url(#paint37_linear)"/>
<path opacity="0.3" d="M112.5 74.9L139.7 72.1L164.5 69.5L163.1 68.7L143.7 58L140 56H96.6001L112.5 74.9Z" fill="url(#paint38_linear)"/>
</g>
<path d="M127.9 172.9H73.8V181.9H127.9V172.9Z" fill="white"/>
<path d="M128.094 120.483L135.207 111.968C140.115 115.975 145.224 118.579 151.435 118.579C156.343 118.579 159.249 116.676 159.249 113.47V113.27C159.249 110.265 157.345 108.662 148.329 106.358C137.41 103.553 130.298 100.548 130.298 89.7291V89.5287C130.298 79.6114 138.212 73.1001 149.331 73.1001C157.245 73.1001 164.057 75.6045 169.567 80.0121L163.356 89.0279C158.547 85.7221 153.839 83.6184 149.231 83.6184C144.623 83.6184 142.219 85.7221 142.219 88.3266V88.527C142.219 92.1333 144.523 93.2352 153.939 95.6394C164.958 98.5444 171.169 102.451 171.169 111.968V112.168C171.169 122.987 162.955 128.998 151.134 128.998C142.92 129.098 134.606 126.293 128.094 120.483Z" fill="white"/>
<path d="M74.1002 74.0015H95.1368C112.066 74.0015 123.787 85.7219 123.787 100.848V101.049C123.787 116.275 112.066 128.096 95.0367 128.096H74V74.0015H74.1002ZM85.9208 84.7201V117.277H95.1368C104.854 117.277 111.465 110.766 111.465 101.149V101.049C111.465 91.4318 104.954 84.7201 95.1368 84.7201H85.9208Z" fill="white"/>
<defs>
<linearGradient id="paint0_linear" x1="192.261" y1="112.494" x2="31.1509" y2="112.494" gradientUnits="userSpaceOnUse">
<stop offset="0.0782105" stop-color="#21D789"/>
<stop offset="0.8726" stop-color="#FCF84A"/>
</linearGradient>
<linearGradient id="paint1_linear" x1="70.7626" y1="114.135" x2="47.7698" y2="131.535" gradientUnits="userSpaceOnUse">
<stop offset="0.0782105" stop-color="white"/>
<stop offset="0.8726" stop-color="#FCF84A"/>
</linearGradient>
<linearGradient id="paint2_linear" x1="132.306" y1="45.4259" x2="155.638" y2="11.4481" gradientUnits="userSpaceOnUse">
<stop offset="0.095296" stop-color="#BBF8AF" stop-opacity="0"/>
<stop offset="1" stop-color="#21FF79"/>
</linearGradient>
<linearGradient id="paint3_linear" x1="190.193" y1="78.9751" x2="190.193" y2="270.9" gradientUnits="userSpaceOnUse">
<stop  offset="0" stop-color="#21D789"/>
<stop offset="1" stop-color="#087CFA"/>
</linearGradient>
<linearGradient id="paint4_linear" x1="263.821" y1="156.914" x2="126.331" y2="98.655" gradientUnits="userSpaceOnUse">
<stop offset="0.0202374" stop-color="#21D789" stop-opacity="0"/>
<stop offset="1" stop-color="#00FF6A"/>
</linearGradient>
<linearGradient id="paint5_linear" x1="317.375" y1="255.657" x2="88.4687" y2="70.4751" gradientUnits="userSpaceOnUse">
<stop offset="0.1049" stop-color="#21D789"/>
<stop offset="0.9668" stop-color="#087CFA"/>
</linearGradient>
<linearGradient id="paint6_linear" x1="212.583" y1="-5.85751" x2="52.6807" y2="175.366" gradientUnits="userSpaceOnUse">
<stop offset="0.2348" stop-color="#21D789"/>
<stop offset="0.7396" stop-color="#087CFA"/>
</linearGradient>
<linearGradient id="paint7_linear" x1="10.3262" y1="59.9443" x2="101.365" y2="128.612" gradientUnits="userSpaceOnUse">
<stop offset="0.0782105" stop-color="#21D789"/>
<stop offset="0.8283" stop-color="#087CFA" stop-opacity="0"/>
</linearGradient>
<linearGradient id="paint8_linear" x1="157.55" y1="71.9007" x2="160.88" y2="67.7096" gradientUnits="userSpaceOnUse">
<stop offset="0.0782105" stop-color="#21D789" stop-opacity="0"/>
<stop offset="0.8726" stop-color="#01D0FF"/>
</linearGradient>
<linearGradient id="paint9_linear" x1="43.7176" y1="121.08" x2="104.296" y2="44.8477" gradientUnits="userSpaceOnUse">
<stop offset="0.3826" stop-color="#087CFA" stop-opacity="0"/>
<stop offset="1" stop-color="#01EFDB"/>
</linearGradient>
<linearGradient id="paint10_linear" x1="77.272" y1="230.716" x2="88.973" y2="215.992" gradientUnits="userSpaceOnUse">
<stop offset="0.0782105" stop-color="#21D789" stop-opacity="0"/>
<stop offset="0.8726" stop-color="#01D0FF"/>
</linearGradient>
<linearGradient id="paint11_linear" x1="67.0214" y1="82.4713" x2="65.7785" y2="126.282" gradientUnits="userSpaceOnUse">
<stop offset="0.0782105" stop-color="#21D789"/>
<stop offset="0.8283" stop-color="#087CFA" stop-opacity="0"/>
</linearGradient>
<linearGradient id="paint12_linear" x1="151.632" y1="113.924" x2="47.2322" y2="247.841" gradientUnits="userSpaceOnUse">
<stop offset="0.2348" stop-color="#083FFA"/>
<stop offset="0.7396" stop-color="#087CFA"/>
</linearGradient>
<linearGradient id="paint13_linear" x1="73.0692" y1="24.766" x2="174.673" y2="205.601" gradientUnits="userSpaceOnUse">
<stop offset="0.2458" stop-color="#083FFA"/>
<stop offset="0.9131" stop-color="#087CFA"/>
</linearGradient>
<linearGradient id="paint14_linear" x1="73.3751" y1="177.157" x2="125.542" y2="229.324" gradientUnits="userSpaceOnUse">
<stop offset="0.2348" stop-color="#089FFF"/>
<stop offset="0.7396" stop-color="#087CFA" stop-opacity="0"/>
</linearGradient>
<linearGradient id="paint15_linear" x1="107.017" y1="216.902" x2="72.5534" y2="179.334" gradientUnits="userSpaceOnUse">
<stop offset="0.1526" stop-color="#0832FF"/>
<stop offset="0.9138" stop-color="#087CFA" stop-opacity="0"/>
</linearGradient>
<linearGradient id="paint16_linear" x1="156.156" y1="232.79" x2="114.218" y2="183.156" gradientUnits="userSpaceOnUse">
<stop offset="0.1526" stop-color="#0832FF"/>
<stop offset="0.9138" stop-color="#087CFA" stop-opacity="0"/>
</linearGradient>
<linearGradient id="paint17_linear" x1="111.789" y1="-40.0213" x2="113.26" y2="83.5316" gradientUnits="userSpaceOnUse">
<stop offset="0.2348" stop-color="#21D789"/>
<stop offset="0.8246" stop-color="#087CFA"/>
</linearGradient>
<linearGradient id="paint18_linear" x1="122.105" y1="48.2643" x2="118.927" y2="18.8674" gradientUnits="userSpaceOnUse">
<stop offset="0.095296" stop-color="#BBF8AF" stop-opacity="0"/>
<stop offset="1" stop-color="#21FF79"/>
</linearGradient>
<linearGradient id="paint19_linear" x1="163.639" y1="74.7722" x2="153.486" y2="62.9812" gradientUnits="userSpaceOnUse">
<stop  offset="0" stop-color="#21D789" stop-opacity="0"/>
<stop offset="0.9185" stop-color="#21D789"/>
</linearGradient>
<linearGradient id="paint20_linear" x1="219.157" y1="183.057" x2="141.467" y2="66.522" gradientUnits="userSpaceOnUse">
<stop offset="0.027928" stop-color="#21D789"/>
<stop offset="0.9294" stop-color="#0860FA"/>
</linearGradient>
<linearGradient id="paint21_linear" x1="177.855" y1="121.3" x2="168.999" y2="56.0497" gradientUnits="userSpaceOnUse">
<stop offset="0.0757413" stop-color="#087CFA" stop-opacity="0"/>
<stop offset="1" stop-color="#21D789" stop-opacity="0.6"/>
</linearGradient>
<linearGradient id="paint22_linear" x1="200.778" y1="130.834" x2="157.9" y2="71.6427" gradientUnits="userSpaceOnUse">
<stop offset="0.0757413" stop-color="#087CFA" stop-opacity="0"/>
<stop offset="1" stop-color="#4F46C6" stop-opacity="0.6"/>
</linearGradient>
<linearGradient id="paint23_linear" x1="207.078" y1="191.11" x2="129.388" y2="74.5747" gradientUnits="userSpaceOnUse">
<stop  offset="0" stop-color="#18AFAF"/>
<stop offset="0.6591" stop-color="#0860FA"/>
<stop offset="0.9983" stop-color="#084CFA"/>
</linearGradient>
<linearGradient id="paint24_linear" x1="170.058" y1="158.335" x2="139.297" y2="109.397" gradientUnits="userSpaceOnUse">
<stop offset="0.0757413" stop-color="#087CFA" stop-opacity="0"/>
<stop offset="1" stop-color="#21D789" stop-opacity="0.6"/>
</linearGradient>
<linearGradient id="paint25_linear" x1="205.952" y1="183.029" x2="156.857" y2="137.258" gradientUnits="userSpaceOnUse">
<stop offset="0.0757413" stop-color="#087CFA" stop-opacity="0"/>
<stop offset="1" stop-color="#21D789" stop-opacity="0.6"/>
</linearGradient>
<linearGradient id="paint26_linear" x1="157.061" y1="143.846" x2="140.088" y2="128.022" gradientUnits="userSpaceOnUse">
<stop  offset="0" stop-color="#087CFA" stop-opacity="0"/>
<stop offset="0.8547" stop-color="#0841FA"/>
</linearGradient>
<linearGradient id="paint27_linear" x1="173.792" y1="192.615" x2="105.154" y2="89.657" gradientUnits="userSpaceOnUse">
<stop  offset="0" stop-color="#089CFA"/>
<stop offset="0.7396" stop-color="#083CFA"/>
</linearGradient>
<linearGradient id="paint28_linear" x1="168.931" y1="197.136" x2="141.842" y2="156.502" gradientUnits="userSpaceOnUse">
<stop  offset="0" stop-color="#087CFA" stop-opacity="0"/>
<stop offset="0.9787" stop-color="#0860FA"/>
</linearGradient>
<linearGradient id="paint29_linear" x1="166.806" y1="86.3236" x2="177.681" y2="36.6095" gradientUnits="userSpaceOnUse">
<stop offset="0.3551" stop-color="#BBF8AF" stop-opacity="0"/>
<stop offset="1" stop-color="#21FF79"/>
</linearGradient>
<linearGradient id="paint30_linear" x1="156.149" y1="15.2856" x2="220.156" y2="63.4462" gradientUnits="userSpaceOnUse">
<stop offset="0.0202374" stop-color="#BBF8AF" stop-opacity="0"/>
<stop offset="1" stop-color="#21FF79"/>
</linearGradient>
<linearGradient id="paint31_linear" x1="57.211" y1="57.211" x2="204.919" y2="204.919" gradientUnits="userSpaceOnUse">
<stop offset="0.0284813" stop-color="#002846"/>
<stop offset="0.1369" stop-color="#002038"/>
<stop offset="0.4947" stop-color="#000910"/>
<stop offset="0.6795"/>
</linearGradient>
<linearGradient id="paint32_linear" x1="42.2397" y1="128" x2="158" y2="128" gradientUnits="userSpaceOnUse">
<stop offset="0.0782105" stop-color="#21D789"/>
<stop offset="0.8726" stop-color="#FCF84A"/>
</linearGradient>
<linearGradient id="paint33_linear" x1="166.971" y1="163.772" x2="162.719" y2="45.8449" gradientUnits="userSpaceOnUse">
<stop  offset="0" stop-color="#218640"/>
<stop offset="0.8027" stop-color="#B5FA59"/>
</linearGradient>
<linearGradient id="paint34_linear" x1="181.286" y1="64.4516" x2="187.629" y2="223.032" gradientUnits="userSpaceOnUse">
<stop offset="0.2348" stop-color="#21D789"/>
<stop offset="1" stop-color="#083450"/>
</linearGradient>
<linearGradient id="paint35_linear" x1="192.471" y1="186.355" x2="120.394" y2="78.2388" gradientUnits="userSpaceOnUse">
<stop  offset="0" stop-color="#021A43"/>
<stop offset="0.6591" stop-color="#0860FA"/>
</linearGradient>
<linearGradient id="paint36_linear" x1="101.77" y1="12.6291" x2="115.778" y2="214.555" gradientUnits="userSpaceOnUse">
<stop offset="0.2348" stop-color="#21D789"/>
<stop offset="0.7396" stop-color="#083450"/>
</linearGradient>
<linearGradient id="paint37_linear" x1="89.2845" y1="169.055" x2="76.8624" y2="52.2336" gradientUnits="userSpaceOnUse">
<stop offset="0.2268" stop-color="#086C93"/>
<stop offset="0.8196" stop-color="#01EFDB"/>
</linearGradient>
<linearGradient id="paint38_linear" x1="101.79" y1="57.8062" x2="172.737" y2="79.977" gradientUnits="userSpaceOnUse">
<stop offset="0.2508" stop-color="#21D789"/>
<stop offset="0.8847" stop-color="#0C515A"/>
</linearGradient>
</defs>
</svg>
