<svg width="70" height="70" viewBox="0 0 70 70" fill="none" xmlns="http://www.w3.org/2000/svg">
<path d="M44.2001 2.7998L47.5 43.3998L19.4 58.5998L2.80005 15.7998L44.2001 2.7998Z" fill="url(#paint0_linear)"/>
<path d="M26.6 39.7998L19.4 58.5998L2.80005 15.7998L26.6 39.7998Z" fill="url(#paint1_linear)"/>
<path d="M44.2001 2.7998L45.5 25.1998H27.1L18.8 10.7998L44.2001 2.7998Z" fill="url(#paint2_linear)"/>
<path d="M37.3 24.0996L67.2 18.0996V46.2996L46.7001 53.9996L38.3 46.3996L37.3 24.0996Z" fill="url(#paint3_linear)"/>
<path d="M67.2001 18.0998L39.6001 47.9998L44.2001 2.7998L67.2001 18.0998Z" fill="#21D789"/>
<path d="M67.2 18.1L51.9001 14.5L46.3 54.4L67.2 46.3V18.1Z" fill="url(#paint4_linear)"/>
<path d="M24.8 15.7998L45.5 18.9998L67.2 46.2998L46.3 54.3998L38.3 46.3998L24.8 15.7998Z" fill="url(#paint5_linear)"/>
<path d="M16.0001 2.7998L45.5001 18.9998L35.3001 67.1998H18.2001L3.40015 51.8998L16.0001 2.7998Z" fill="url(#paint6_linear)"/>
<path d="M26.3 8.3999L13.6 12.3999L8.80005 31.1999L19.4 58.5999L39.9001 45.3999L45.4001 19.2999V18.9999L26.3 8.3999Z" fill="url(#paint7_linear)"/>
<path d="M41.2002 19.5L45.5002 19L41.2002 19.5Z" fill="url(#paint8_linear)"/>
<path d="M23.0001 43.3998L31.0001 20.5998L16.0001 2.7998L3.40015 51.8998L23.0001 43.3998Z" fill="url(#paint9_linear)"/>
<path d="M18.2001 67.1997L8.6001 57.1997L18.2001 67.1997H35.3001H18.2001Z" fill="url(#paint10_linear)"/>
<path d="M8.80005 31.1997L15.8 49.2997L19.4 58.5997L26.6 39.7997L10.7 23.6997L8.80005 31.1997Z" fill="url(#paint11_linear)"/>
<path d="M23.0001 43.3999L35.3001 67.1999H18.2001L3.40015 51.8999L23.0001 43.3999Z" fill="url(#paint12_linear)"/>
<path d="M23 43.4L35.3 67.2L45.5 19L31 20.6L23 43.4Z" fill="url(#paint13_linear)"/>
<path d="M39.2 47.8999L35.2999 67.1999H18.2L19.4 58.4999L39.2 47.8999Z" fill="url(#paint14_linear)"/>
<path d="M19.4001 58.5999L28.4001 53.6999L23.0001 43.3999L14.9001 46.8999L19.4001 58.5999Z" fill="url(#paint15_linear)"/>
<path d="M28.4001 53.6999L35.3001 67.1999L39.2001 47.8999L28.4001 53.6999Z" fill="url(#paint16_linear)"/>
<path d="M16 2.7998L45.5 18.9998L38.6 19.7998L31 20.5998L16 2.7998Z" fill="url(#paint17_linear)"/>
<path d="M45.1001 18.7999L26.3001 8.3999L21.9001 9.7999L31.0001 20.5999L38.6001 19.7999L45.1001 19.0999V18.7999Z" fill="url(#paint18_linear)"/>
<path d="M42.5 19.3L45.5 19L42.7 17.5L42.5 19.3Z" fill="url(#paint19_linear)"/>
<path d="M67.2 46.3L45.5 19L38.6 19.8L31 20.6L67.2 46.3Z" fill="url(#paint20_linear)"/>
<path d="M41.6001 28.1L51.4001 35.1L55.1001 31.2L45.5001 19L42.5001 19.3L41.6001 28.1Z" fill="url(#paint21_linear)"/>
<path d="M49.3 33.5997L67.2 46.2997L50.4001 25.1997L49.3 33.5997Z" fill="url(#paint22_linear)"/>
<path d="M67.2 46.2996L46.3 54.3996L39.6 47.9996L31 20.5996L67.2 46.2996Z" fill="url(#paint23_linear)"/>
<path d="M41.6001 28.0996L39.6001 47.9996L51.4001 35.0996L41.6001 28.0996Z" fill="url(#paint24_linear)"/>
<path d="M46.3 54.3996L67.2 46.2996L49.3 33.5996L46.3 54.3996Z" fill="url(#paint25_linear)"/>
<path d="M39.6001 47.6996L39.7001 47.7996L48.6001 38.1996L49.3001 33.5996L40.8001 35.4996L39.6001 47.6996Z" fill="url(#paint26_linear)"/>
<path d="M46.3 54.3996L39.6 47.9996L31 20.5996L46.3 54.3996Z" fill="url(#paint27_linear)"/>
<path d="M39.6001 47.9996L46.3001 54.3996L40.3001 41.0996L39.6001 47.9996Z" fill="url(#paint28_linear)"/>
<path d="M44.2001 2.7998L39.6001 47.9998L48.6001 38.1998L51.9001 14.4998L44.2001 2.7998Z" fill="url(#paint29_linear)"/>
<path d="M67.1999 18.0998L51.9 14.4998L44.2 2.7998L67.1999 18.0998Z" fill="url(#paint30_linear)"/>
<path d="M55 15H15V55H55V15Z" fill="url(#paint31_linear)"/>
<g opacity="0.3">
<path opacity="0.3" d="M15 47.2L18 55H24.9L47.2 43L44.9 15H15V47.2Z" fill="url(#paint32_linear)"/>
<path opacity="0.3" d="M42.6 15L39.2 47.5L48.2 37.8L51.4 15H42.6Z" fill="url(#paint33_linear)"/>
<path opacity="0.3" d="M55 15.1L54.7 15H51.4L46 53.9L55 50.4V15.1Z" fill="url(#paint34_linear)"/>
<path opacity="0.3" d="M55 37.5998L30.7 20.2998L39.2 47.4998L46 53.8998L55 50.3998V37.5998Z" fill="url(#paint35_linear)"/>
<path opacity="0.3" d="M15 55H37.5L45.1 18.7L38.3 15H15V55Z" fill="url(#paint36_linear)"/>
<path opacity="0.3" d="M15 46.3L22.8 43L30.7 20.3L26.3 15H15V46.3Z" fill="url(#paint37_linear)"/>
<path opacity="0.3" d="M30.7 20.3L38.2 19.5L45.1 18.8L44.7001 18.5L39.4 15.6L38.3 15H26.3L30.7 20.3Z" fill="url(#paint38_linear)"/>
</g>
<path d="M35 47.3999H20V49.8999H35V47.3999Z" fill="white"/>
<path d="M35 32.9999L37 30.5999C38.4 31.6999 39.8 32.3999 41.5 32.3999C42.9 32.3999 43.7 31.8999 43.7 30.9999C43.7 30.1999 43.2 29.6999 40.7 29.0999C37.7 28.2999 35.7 27.4999 35.7 24.4999C35.7 21.7999 37.9 19.8999 41 19.8999C43.2 19.8999 45.1 20.5999 46.6 21.7999L44.9 24.2999C43.6 23.3999 42.2 22.7999 41 22.7999C39.7 22.7999 39.1 23.3999 39.1 24.0999C39.1 25.0999 39.7 25.3999 42.4 26.0999C45.5 26.8999 47.2 27.9999 47.2 30.5999C47.2 33.5999 44.9 35.2999 41.7 35.2999C39.1 35.3999 36.8 34.5999 35 32.9999Z" fill="white"/>
<path d="M20 20.1001H25.8C30.5 20.1001 33.8 23.3001 33.8 27.5001C33.8 31.7001 30.5 35.0001 25.8 35.0001H20V20.1001ZM23.3 23.1001V32.1001H25.8C28.5 32.1001 30.3 30.3001 30.3 27.6001C30.3 24.9001 28.5 23.1001 25.8 23.1001H23.3Z" fill="white"/>
<defs>
<linearGradient id="paint0_linear" x1="52.838" y1="30.6956" x2="8.11585" y2="30.6956" gradientUnits="userSpaceOnUse">
<stop offset="0.0782105" stop-color="#21D789"/>
<stop offset="0.8726" stop-color="#FCF84A"/>
</linearGradient>
<linearGradient id="paint1_linear" x1="19.1117" y1="31.151" x2="12.7292" y2="35.981" gradientUnits="userSpaceOnUse">
<stop offset="0.0782105" stop-color="white"/>
<stop offset="0.8726" stop-color="#FCF84A"/>
</linearGradient>
<linearGradient id="paint2_linear" x1="36.1952" y1="12.0784" x2="42.672" y2="2.6466" gradientUnits="userSpaceOnUse">
<stop offset="0.095296" stop-color="#BBF8AF" stop-opacity="0"/>
<stop offset="1" stop-color="#21FF79"/>
</linearGradient>
<linearGradient id="paint3_linear" x1="52.2637" y1="21.3909" x2="52.2637" y2="74.6667" gradientUnits="userSpaceOnUse">
<stop stop-color="#21D789"/>
<stop offset="1" stop-color="#087CFA"/>
</linearGradient>
<linearGradient id="paint4_linear" x1="72.7021" y1="43.026" x2="34.5366" y2="26.8542" gradientUnits="userSpaceOnUse">
<stop offset="0.0202374" stop-color="#21D789" stop-opacity="0"/>
<stop offset="1" stop-color="#00FF6A"/>
</linearGradient>
<linearGradient id="paint5_linear" x1="87.5674" y1="70.4357" x2="24.0264" y2="19.0317" gradientUnits="userSpaceOnUse">
<stop offset="0.1049" stop-color="#21D789"/>
<stop offset="0.9668" stop-color="#087CFA"/>
</linearGradient>
<linearGradient id="paint6_linear" x1="58.4791" y1="-2.1572" x2="14.0925" y2="48.1479" gradientUnits="userSpaceOnUse">
<stop offset="0.2348" stop-color="#21D789"/>
<stop offset="0.7396" stop-color="#087CFA"/>
</linearGradient>
<linearGradient id="paint7_linear" x1="2.33545" y1="16.1086" x2="27.6066" y2="35.1698" gradientUnits="userSpaceOnUse">
<stop offset="0.0782105" stop-color="#21D789"/>
<stop offset="0.8283" stop-color="#087CFA" stop-opacity="0"/>
</linearGradient>
<linearGradient id="paint8_linear" x1="43.2028" y1="19.4276" x2="44.1273" y2="18.2642" gradientUnits="userSpaceOnUse">
<stop offset="0.0782105" stop-color="#21D789" stop-opacity="0"/>
<stop offset="0.8726" stop-color="#01D0FF"/>
</linearGradient>
<linearGradient id="paint9_linear" x1="11.6045" y1="33.0788" x2="28.4202" y2="11.9179" gradientUnits="userSpaceOnUse">
<stop offset="0.3826" stop-color="#087CFA" stop-opacity="0"/>
<stop offset="1" stop-color="#01EFDB"/>
</linearGradient>
<linearGradient id="paint10_linear" x1="20.9187" y1="63.5123" x2="24.1667" y2="59.425" gradientUnits="userSpaceOnUse">
<stop offset="0.0782105" stop-color="#21D789" stop-opacity="0"/>
<stop offset="0.8726" stop-color="#01D0FF"/>
</linearGradient>
<linearGradient id="paint11_linear" x1="18.0732" y1="22.3616" x2="17.7282" y2="34.5228" gradientUnits="userSpaceOnUse">
<stop offset="0.0782105" stop-color="#21D789"/>
<stop offset="0.8283" stop-color="#087CFA" stop-opacity="0"/>
</linearGradient>
<linearGradient id="paint12_linear" x1="41.56" y1="31.0926" x2="12.5802" y2="68.2662" gradientUnits="userSpaceOnUse">
<stop offset="0.2348" stop-color="#083FFA"/>
<stop offset="0.7396" stop-color="#087CFA"/>
</linearGradient>
<linearGradient id="paint13_linear" x1="19.752" y1="6.3437" x2="47.9556" y2="56.541" gradientUnits="userSpaceOnUse">
<stop offset="0.2458" stop-color="#083FFA"/>
<stop offset="0.9131" stop-color="#087CFA"/>
</linearGradient>
<linearGradient id="paint14_linear" x1="19.8368" y1="48.6452" x2="34.3175" y2="63.1259" gradientUnits="userSpaceOnUse">
<stop offset="0.2348" stop-color="#089FFF"/>
<stop offset="0.7396" stop-color="#087CFA" stop-opacity="0"/>
</linearGradient>
<linearGradient id="paint15_linear" x1="29.1754" y1="59.678" x2="19.6089" y2="49.2497" gradientUnits="userSpaceOnUse">
<stop offset="0.1526" stop-color="#0832FF"/>
<stop offset="0.9138" stop-color="#087CFA" stop-opacity="0"/>
</linearGradient>
<linearGradient id="paint16_linear" x1="42.8159" y1="64.0881" x2="31.1744" y2="50.3105" gradientUnits="userSpaceOnUse">
<stop offset="0.1526" stop-color="#0832FF"/>
<stop offset="0.9138" stop-color="#087CFA" stop-opacity="0"/>
</linearGradient>
<linearGradient id="paint17_linear" x1="30.5001" y1="-11.6406" x2="30.9083" y2="22.656" gradientUnits="userSpaceOnUse">
<stop offset="0.2348" stop-color="#21D789"/>
<stop offset="0.8246" stop-color="#087CFA"/>
</linearGradient>
<linearGradient id="paint18_linear" x1="33.3637" y1="12.8664" x2="32.4815" y2="4.7063" gradientUnits="userSpaceOnUse">
<stop offset="0.095296" stop-color="#BBF8AF" stop-opacity="0"/>
<stop offset="1" stop-color="#21FF79"/>
</linearGradient>
<linearGradient id="paint19_linear" x1="44.8929" y1="20.2247" x2="42.0744" y2="16.9517" gradientUnits="userSpaceOnUse">
<stop stop-color="#21D789" stop-opacity="0"/>
<stop offset="0.9185" stop-color="#21D789"/>
</linearGradient>
<linearGradient id="paint20_linear" x1="60.3039" y1="50.2832" x2="38.7382" y2="17.9346" gradientUnits="userSpaceOnUse">
<stop offset="0.027928" stop-color="#21D789"/>
<stop offset="0.9294" stop-color="#0860FA"/>
</linearGradient>
<linearGradient id="paint21_linear" x1="48.8391" y1="33.1401" x2="46.3809" y2="15.0276" gradientUnits="userSpaceOnUse">
<stop offset="0.0757413" stop-color="#087CFA" stop-opacity="0"/>
<stop offset="1" stop-color="#21D789" stop-opacity="0.6"/>
</linearGradient>
<linearGradient id="paint22_linear" x1="55.2023" y1="35.7863" x2="43.2998" y2="19.3558" gradientUnits="userSpaceOnUse">
<stop offset="0.0757413" stop-color="#087CFA" stop-opacity="0"/>
<stop offset="1" stop-color="#4F46C6" stop-opacity="0.6"/>
</linearGradient>
<linearGradient id="paint23_linear" x1="56.951" y1="52.5181" x2="35.3853" y2="20.1695" gradientUnits="userSpaceOnUse">
<stop stop-color="#18AFAF"/>
<stop offset="0.6591" stop-color="#0860FA"/>
<stop offset="0.9983" stop-color="#084CFA"/>
</linearGradient>
<linearGradient id="paint24_linear" x1="46.6748" y1="43.42" x2="38.1361" y2="29.8357" gradientUnits="userSpaceOnUse">
<stop offset="0.0757413" stop-color="#087CFA" stop-opacity="0"/>
<stop offset="1" stop-color="#21D789" stop-opacity="0.6"/>
</linearGradient>
<linearGradient id="paint25_linear" x1="56.6385" y1="50.2749" x2="43.0103" y2="37.5695" gradientUnits="userSpaceOnUse">
<stop offset="0.0757413" stop-color="#087CFA" stop-opacity="0"/>
<stop offset="1" stop-color="#21D789" stop-opacity="0.6"/>
</linearGradient>
<linearGradient id="paint26_linear" x1="43.067" y1="39.3982" x2="38.3556" y2="35.0058" gradientUnits="userSpaceOnUse">
<stop stop-color="#087CFA" stop-opacity="0"/>
<stop offset="0.8547" stop-color="#0841FA"/>
</linearGradient>
<linearGradient id="paint27_linear" x1="47.7113" y1="52.9359" x2="28.6581" y2="24.3561" gradientUnits="userSpaceOnUse">
<stop stop-color="#089CFA"/>
<stop offset="0.7396" stop-color="#083CFA"/>
</linearGradient>
<linearGradient id="paint28_linear" x1="46.3619" y1="54.1907" x2="38.8424" y2="42.9114" gradientUnits="userSpaceOnUse">
<stop stop-color="#087CFA" stop-opacity="0"/>
<stop offset="0.9787" stop-color="#0860FA"/>
</linearGradient>
<linearGradient id="paint29_linear" x1="45.7721" y1="23.431" x2="48.7909" y2="9.6311" gradientUnits="userSpaceOnUse">
<stop offset="0.3551" stop-color="#BBF8AF" stop-opacity="0"/>
<stop offset="1" stop-color="#21FF79"/>
</linearGradient>
<linearGradient id="paint30_linear" x1="42.8139" y1="3.7118" x2="60.5813" y2="17.0806" gradientUnits="userSpaceOnUse">
<stop offset="0.0202374" stop-color="#BBF8AF" stop-opacity="0"/>
<stop offset="1" stop-color="#21FF79"/>
</linearGradient>
<linearGradient id="paint31_linear" x1="15.3364" y1="15.3364" x2="56.3664" y2="56.3664" gradientUnits="userSpaceOnUse">
<stop offset="0.0284813" stop-color="#002846"/>
<stop offset="0.1369" stop-color="#002038"/>
<stop offset="0.4947" stop-color="#000910"/>
<stop offset="0.6795"/>
</linearGradient>
<linearGradient id="paint32_linear" x1="11.1777" y1="35" x2="43.3334" y2="35" gradientUnits="userSpaceOnUse">
<stop offset="0.0782105" stop-color="#21D789"/>
<stop offset="0.8726" stop-color="#FCF84A"/>
</linearGradient>
<linearGradient id="paint33_linear" x1="45.8253" y1="44.9366" x2="44.6443" y2="12.1791" gradientUnits="userSpaceOnUse">
<stop stop-color="#218640"/>
<stop offset="0.8027" stop-color="#B5FA59"/>
</linearGradient>
<linearGradient id="paint34_linear" x1="49.8017" y1="17.3477" x2="51.5637" y2="61.3978" gradientUnits="userSpaceOnUse">
<stop offset="0.2348" stop-color="#21D789"/>
<stop offset="1" stop-color="#083450"/>
</linearGradient>
<linearGradient id="paint35_linear" x1="52.9086" y1="51.2095" x2="32.8871" y2="21.1773" gradientUnits="userSpaceOnUse">
<stop stop-color="#021A43"/>
<stop offset="0.6591" stop-color="#0860FA"/>
</linearGradient>
<linearGradient id="paint36_linear" x1="27.714" y1="2.9525" x2="31.605" y2="59.0431" gradientUnits="userSpaceOnUse">
<stop offset="0.2348" stop-color="#21D789"/>
<stop offset="0.7396" stop-color="#083450"/>
</linearGradient>
<linearGradient id="paint37_linear" x1="24.2457" y1="46.4041" x2="20.7951" y2="13.9538" gradientUnits="userSpaceOnUse">
<stop offset="0.2268" stop-color="#086C93"/>
<stop offset="0.8196" stop-color="#01EFDB"/>
</linearGradient>
<linearGradient id="paint38_linear" x1="27.7196" y1="15.5017" x2="47.4269" y2="21.6603" gradientUnits="userSpaceOnUse">
<stop offset="0.2508" stop-color="#21D789"/>
<stop offset="0.8847" stop-color="#0C515A"/>
</linearGradient>
</defs>
</svg>
