<svg width="16" height="16" viewBox="0 0 16 16" fill="none" xmlns="http://www.w3.org/2000/svg">
<path d="M3.94517 13.92C3.64117 13.92 3.37117 13.862 3.13517 13.746C2.89917 13.63 2.71517 13.466 2.58317 13.254C2.45117 13.042 2.38517 12.8 2.38517 12.528L2.37917 11.628H3.33917L3.34517 12.468C3.34917 12.644 3.41117 12.788 3.53117 12.9C3.65517 13.012 3.81317 13.068 4.00517 13.068H4.70117V13.92H3.94517ZM2.84117 11.232C3.12517 11.232 3.35917 11.108 3.54317 10.86C3.73117 10.612 3.87117 10.234 3.96317 9.726C4.05517 9.218 4.10117 8.576 4.10117 7.8C4.10117 7.024 4.05517 6.382 3.96317 5.874C3.87117 5.366 3.73117 4.988 3.54317 4.74C3.35917 4.492 3.12517 4.368 2.84117 4.368C2.55717 4.368 2.32117 4.492 2.13317 4.74C1.94917 4.988 1.81117 5.366 1.71917 5.874C1.62717 6.382 1.58117 7.024 1.58117 7.8C1.58117 8.576 1.62717 9.218 1.71917 9.726C1.81117 10.234 1.94917 10.612 2.13317 10.86C2.32117 11.108 2.55717 11.232 2.84117 11.232ZM2.84117 12.144C2.32117 12.144 1.89117 11.986 1.55117 11.67C1.21517 11.354 0.963172 10.876 0.795172 10.236C0.631172 9.596 0.549172 8.784 0.549172 7.8C0.549172 6.816 0.631172 6.004 0.795172 5.364C0.963172 4.72 1.21517 4.242 1.55117 3.93C1.89117 3.614 2.32117 3.456 2.84117 3.456C3.36117 3.456 3.78917 3.614 4.12517 3.93C4.46517 4.246 4.71717 4.724 4.88117 5.364C5.04917 6.004 5.13317 6.816 5.13317 7.8C5.13317 8.784 5.04917 9.598 4.88117 10.242C4.71717 10.882 4.46517 11.36 4.12517 11.676C3.78917 11.988 3.36117 12.144 2.84117 12.144ZM6.14633 12V3.6H7.74833L8.75633 9.876L8.81633 10.518L8.87633 9.876L9.82433 3.6H11.4503V12H10.5203V5.064L10.5503 3.888L9.19433 12H8.42033L7.04033 3.924L7.07033 5.064V12H6.14633ZM12.7674 3.6H13.7514V11.07H15.6354V12H12.7674V3.6Z" fill="#5FB865"/>
</svg>
