<svg width="16" height="16" viewBox="0 0 16 16" fill="none" xmlns="http://www.w3.org/2000/svg">
<path d="M11 2C11.5523 2 12 2.44772 12 3V9H4V6H6C7.10457 6 8 5.10457 8 4V2H11Z" fill="#253627"/>
<path d="M7 4C7 4.06893 6.99277 4.13617 6.97949 4.20117C6.88625 4.65686 6.48325 5 6 5H4.41406L7 2.41406V4Z" fill="#253627"/>
<path fill-rule="evenodd" clip-rule="evenodd" d="M11 1C12.1046 1 13 1.89543 13 3V9H12V3C12 2.44772 11.5523 2 11 2H8V4C8 5.10457 7.10457 6 6 6H4V9H3V5.41406C3.00004 5.1489 3.10547 4.89453 3.29297 4.70703L6.70703 1.29297C6.89453 1.10547 7.1489 1.00004 7.41406 1H11ZM4.41406 5H6C6.55228 5 7 4.55228 7 4V2.41406L4.41406 5Z" fill="#57965C"/>
<path d="M3.67188 10C3.81941 10.0366 3.95727 10.0871 4.08496 10.1533C4.36922 10.3009 4.59147 10.5085 4.75 10.7764C4.86894 10.9773 4.94309 11.2046 4.97266 11.458C4.98283 11.5426 4.9873 11.6299 4.9873 11.7197V14.2939C4.9873 14.5107 4.95896 14.7092 4.90332 14.8896C4.89958 14.902 4.89362 14.9136 4.88965 14.9258L3.96191 13.417V11.7197C3.96191 11.5419 3.93038 11.3887 3.86816 11.2598C3.83116 11.1853 3.78313 11.12 3.72461 11.0635C3.67825 11.0155 3.62577 10.9758 3.56836 10.9424C3.43652 10.8707 3.27576 10.834 3.08496 10.834C2.8958 10.834 2.73697 10.8678 2.6084 10.9355C2.54555 10.9701 2.48849 11.0125 2.4375 11.0635L2.38379 11.126C2.33347 11.1911 2.29351 11.2646 2.26465 11.3467C2.22734 11.4551 2.20801 11.5793 2.20801 11.7197V14.2939C2.20801 14.4397 2.2297 14.5687 2.27148 14.6816C2.31119 14.7864 2.36864 14.8762 2.44531 14.9502C2.49136 14.9979 2.54364 15.037 2.60059 15.0703C2.73264 15.1424 2.8936 15.1797 3.08496 15.1797C3.1912 15.1797 3.28707 15.1662 3.37402 15.1445L2.66992 14H3.77441L5 15.999H3.90039L3.87109 15.9521C3.82165 15.9703 3.7707 15.9856 3.71875 16H2.44629C2.31824 15.9646 2.19758 15.9188 2.08496 15.8604C1.8007 15.7128 1.57845 15.5052 1.41992 15.2373C1.26139 14.9694 1.18262 14.6547 1.18262 14.2939V11.7197C1.18262 11.3535 1.26237 11.0388 1.4209 10.7764C1.57942 10.5087 1.80083 10.3008 2.08496 10.1533C2.21265 10.0871 2.35051 10.0366 2.49805 10H3.67188Z" fill="#CED0D6"/>
<path d="M7.79688 11.916C7.85701 12.1073 7.90607 12.2829 7.94434 12.4414C7.98248 12.5994 8.00661 12.7141 8.01758 12.7852C8.02854 12.7141 8.05362 12.5996 8.0918 12.4414C8.13006 12.2829 8.17678 12.1073 8.23145 11.916L8.78906 10.0137H10.002V16H9.04297V14.1387C9.04297 13.8654 9.05099 13.5675 9.06738 13.2451C9.08378 12.9226 9.10314 12.5998 9.125 12.2773C9.14687 11.9548 9.17189 11.6481 9.19922 11.3584C9.23197 11.0691 9.25843 10.8151 9.28027 10.5967L8.47754 13.4248H7.54199L6.71387 10.5967C6.74117 10.8043 6.76859 11.05 6.7959 11.334C6.82323 11.6128 6.84825 11.9138 6.87012 12.2363C6.89745 12.5534 6.91915 12.8761 6.93555 13.2041C6.95194 13.532 6.95996 13.8436 6.95996 14.1387V16H6.00098V10.0137H7.21387L7.79688 11.916Z" fill="#CED0D6"/>
<path d="M12.3281 15.0488H14.8701V16H11.3027V10.0137H12.3281V15.0488Z" fill="#CED0D6"/>
</svg>
