<svg width="16" height="16" viewBox="0 0 16 16" fill="none" xmlns="http://www.w3.org/2000/svg">
<path fill-rule="evenodd" clip-rule="evenodd" d="M15 8C15 11.866 11.866 15 8 15C4.134 15 1 11.866 1 8C1 4.134 4.134 1 8 1C11.866 1 15 4.134 15 8" fill="#F98B9E" fill-opacity="0.6"/>
<path d="M7.5 6C7.5 6.55228 7.05228 7 6.5 7C5.94772 7 5.5 6.55228 5.5 6C5.5 5.44772 5.94772 5 6.5 5C7.05228 5 7.5 5.44772 7.5 6Z" fill="#231F20" fill-opacity="0.7"/>
<path d="M10.5 10C10.5 10.5523 10.0523 11 9.5 11C8.94772 11 8.5 10.5523 8.5 10C8.5 9.44772 8.94772 9 9.5 9C10.0523 9 10.5 9.44772 10.5 10Z" fill="#231F20" fill-opacity="0.7"/>
<path fill-rule="evenodd" clip-rule="evenodd" d="M10.3904 5.81235L6.39043 10.8123L5.60957 10.1877L9.60957 5.18765L10.3904 5.81235Z" fill="#231F20" fill-opacity="0.7"/>
</svg>
