<svg width="16" height="16" viewBox="0 0 16 16" fill="none" xmlns="http://www.w3.org/2000/svg">
<path fill-rule="evenodd" clip-rule="evenodd" d="M15 8C15 11.866 11.866 15 8 15C4.134 15 1 11.866 1 8C1 4.134 4.134 1 8 1C11.866 1 15 4.134 15 8" fill="#F98B9E" fill-opacity="0.6"/>
<path d="M7.5 11H8.5V10H7.5V11Z" fill="#231F20" fill-opacity="0.7"/>
<path d="M8 5C6.895 5 6 5.895 6 7H7C7 6.45 7.45 6 8 6C8.55 6 9 6.45 9 7C9 8 7.5 7.875 7.5 9.5H8.5C8.5 8.375 10 8.25 10 7C10 5.895 9.105 5 8 5Z" fill="#231F20" fill-opacity="0.7"/>
</svg>
