<svg width="80" height="80" viewBox="0 0 80 80" fill="none" xmlns="http://www.w3.org/2000/svg">
<path d="M70.2359 80H29.7642C27.1745 80 24.691 78.9713 22.8599 77.1401C21.0287 75.309 20 72.8255 20 70.2358V59.7642C20 57.1745 21.0287 54.691 22.8599 52.8599C24.691 51.0287 27.1745 50 29.7642 50H70.2359C72.8255 50 75.309 51.0287 77.1402 52.8599C78.9713 54.691 80 57.1746 80 59.7642V70.2358C80 72.8255 78.9713 75.309 77.1402 77.1401C75.309 78.9713 72.8255 80 70.2359 80V80Z" fill="#FDB60D"/>
<path d="M31.1404 58.4451H41.4389V61.1182H34.1245V63.8877H40.5614V66.5594H34.1245V69.4269H41.5367V72.0986H31.1404V58.4451Z" fill="black"/>
<path d="M48.8891 58.3486H51.6586L57.5101 72.0986H54.3698L53.1215 69.037H47.3487L46.1004 72.0986H43.0388L48.8891 58.3486ZM52.0497 66.3843L50.2351 61.9563L48.4218 66.3843H52.0497Z" fill="black"/>
<path d="M59.6169 58.4451H65.1954C68.4526 58.4451 70.4221 60.3766 70.4221 63.1652V63.2045C70.4221 66.3639 67.965 68.0033 64.9034 68.0033H62.6214V72.0986H59.6169V58.4451ZM64.9999 65.3302C65.2951 65.3677 65.5949 65.3425 65.8796 65.2561C66.1644 65.1697 66.4277 65.0243 66.6523 64.8291C66.877 64.634 67.0579 64.3935 67.1832 64.1237C67.3085 63.8538 67.3754 63.5605 67.3796 63.2629V63.2235C67.3796 61.8787 66.4437 61.1562 64.9414 61.1562H62.6215V65.3302H64.9999Z" fill="black"/>
</svg>
