<svg width="256" height="256" viewBox="0 0 256 256" fill="none" xmlns="http://www.w3.org/2000/svg">
<path d="M224.755 256H95.2454C86.9586 256 79.0112 252.708 73.1516 246.849C67.292 240.989 64 233.042 64 224.755V191.245C64 187.142 64.8082 183.079 66.3784 179.288C67.9486 175.497 70.2502 172.053 73.1516 169.151C76.053 166.25 79.4974 163.949 83.2882 162.378C87.0791 160.808 91.1422 160 95.2454 160H224.755C233.042 160 240.989 163.292 246.849 169.151C252.708 175.011 256 182.958 256 191.245V224.755C256 233.042 252.708 240.989 246.849 246.849C240.989 252.708 233.042 256 224.755 256Z" fill="#FDB60D"/>
<path d="M99.6494 187.024H132.605V195.578H109.199V204.441H129.797V212.99H109.199V222.166H132.917V230.716H99.6494V187.024Z" fill="black"/>
<path d="M156.445 186.716H165.308L184.033 230.716H173.984L169.989 220.918H151.516L147.522 230.716H137.725L156.445 186.716ZM166.56 212.43L160.753 198.26L154.95 212.43H166.56Z" fill="black"/>
<path d="M190.774 187.024H208.625C219.048 187.024 225.351 193.205 225.351 202.128V202.254C225.351 212.364 217.488 217.61 207.691 217.61H200.389V230.715H190.775L190.774 187.024ZM208 209.057C208.944 209.177 209.904 209.096 210.815 208.82C211.726 208.543 212.569 208.078 213.288 207.453C214.006 206.829 214.585 206.059 214.986 205.196C215.387 204.332 215.601 203.394 215.615 202.441V202.315C215.615 198.012 212.62 195.7 207.813 195.7H200.389V209.057H208Z" fill="black"/>
</svg>
