<svg width="128" height="128" viewBox="0 0 128 128" fill="none" xmlns="http://www.w3.org/2000/svg">
<path d="M112.377 128H47.6227C43.4793 128 39.5056 126.354 36.5758 123.424C33.646 120.495 32 116.521 32 112.377V95.6226C32 93.571 32.4041 91.5395 33.1892 89.644C33.9743 87.7486 35.1251 86.0264 36.5758 84.5757C38.0265 83.125 39.7487 81.9743 41.6441 81.1892C43.5395 80.4041 45.5711 80 47.6227 80H112.377C116.521 80 120.494 81.6459 123.424 84.5757C126.354 87.5055 128 91.4792 128 95.6226V112.377C128 116.521 126.354 120.495 123.424 123.424C120.494 126.354 116.521 128 112.377 128Z" fill="#FDB60D"/>
<path d="M49.8247 93.5122H66.3024V97.7891H54.5993V102.22H64.8983V106.495H54.5993V111.083H66.4587V115.358H49.8247V93.5122Z" fill="black"/>
<path d="M78.2227 93.3579H82.654L92.0164 115.358H86.9918L84.9946 110.459H75.7582L73.7609 115.358H68.8623L78.2227 93.3579ZM83.2798 106.215L80.3763 99.1301L77.475 106.215H83.2798Z" fill="black"/>
<path d="M95.3872 93.5122H104.313C109.524 93.5122 112.676 96.6025 112.676 101.064V101.127C112.676 106.182 108.744 108.805 103.846 108.805H100.194V115.358H95.3873L95.3872 93.5122ZM104 104.529C104.472 104.589 104.952 104.548 105.407 104.41C105.863 104.272 106.284 104.039 106.644 103.727C107.003 103.414 107.293 103.03 107.493 102.598C107.694 102.166 107.801 101.697 107.807 101.221V101.158C107.807 99.0061 106.31 97.8501 103.906 97.8501H100.194V104.529H104Z" fill="black"/>
</svg>
