<svg width="48" height="48" viewBox="0 0 48 48" fill="none" xmlns="http://www.w3.org/2000/svg">
<path d="M42.1415 48H17.8585C17.0891 48 16.3273 47.8485 15.6165 47.5541C14.9058 47.2597 14.2599 46.8281 13.7159 46.2841C13.1719 45.74 12.7404 45.0942 12.446 44.3834C12.1515 43.6726 12 42.9108 12 42.1415V35.8585C12 34.3048 12.6172 32.8146 13.7159 31.7159C14.8146 30.6173 16.3047 30 17.8585 30H42.1415C43.6952 30 45.1854 30.6173 46.2841 31.7159C47.3827 32.8146 48 34.3048 48 35.8585V42.1415C48 42.9108 47.8484 43.6726 47.554 44.3834C47.2596 45.0942 46.8281 45.74 46.2841 46.2841C45.74 46.8281 45.0942 47.2597 44.3834 47.5541C43.6726 47.8485 42.9108 48 42.1415 48Z" fill="#FDB60D"/>
<path d="M18.6842 35.067H24.8633V36.6709H20.4747V38.3326H24.3369V39.9357H20.4747V41.6561H24.922V43.2592H18.6842L18.6842 35.067Z" fill="black"/>
<path d="M29.3335 35.0092H30.9952L34.5061 43.2592H32.6219L31.8729 41.4221H28.4092L27.6602 43.2592H25.8232L29.3335 35.0092ZM31.2299 39.8306L30.1411 37.1737L29.0531 39.8306H31.2299Z" fill="black"/>
<path d="M35.7701 35.067H39.1172C41.0715 35.067 42.2531 36.2259 42.2531 37.899V37.9227C42.2531 39.8184 40.7788 40.802 38.9419 40.802H37.5727V43.2592H35.77L35.7701 35.067ZM38.9998 39.1981C39.1769 39.2206 39.3568 39.2055 39.5276 39.1537C39.6985 39.1019 39.8565 39.0146 39.9913 38.8975C40.1261 38.7804 40.2346 38.6362 40.3098 38.4742C40.385 38.3123 40.4252 38.1363 40.4276 37.9578V37.9342C40.4276 37.1273 39.8661 36.6937 38.9648 36.6937H37.5728V39.1981H38.9998Z" fill="black"/>
</svg>
