<svg width="16" height="16" viewBox="0 0 16 16" fill="none" xmlns="http://www.w3.org/2000/svg">
<path fill-rule="evenodd" clip-rule="evenodd" d="M7 1L3 5H7V1Z" fill="#9AA7B0" fill-opacity="0.8"/>
<path fill-rule="evenodd" clip-rule="evenodd" d="M8 1V6H3V8H13V1H8Z" fill="#9AA7B0" fill-opacity="0.8"/>
<path fill-rule="evenodd" clip-rule="evenodd" d="M0 16H16V9H0V16Z" fill="#40B6E0" fill-opacity="0.7"/>
<path fill-rule="evenodd" clip-rule="evenodd" d="M12 10H13V14H15.5V15H12V10Z" fill="#231F20" fill-opacity="0.7"/>
<path fill-rule="evenodd" clip-rule="evenodd" d="M11.1129 14.4577L10.5678 15.0649L9.9882 14.5474C9.5811 14.8372 9.0774 15.0028 8.5185 15.0028C7.035 15.0028 6 13.8781 6 12.5188C6 11.1457 7.0488 10.0072 8.5323 10.0072C10.0158 10.0072 11.0508 11.1319 11.0508 12.4912C11.0508 13.057 10.8714 13.5676 10.5609 13.9885L11.1129 14.4577ZM8.53188 14.1162C8.82987 14.1162 9.08899 14.0447 9.31572 13.9148L8.53188 13.2391L9.09365 12.6044L9.89045 13.3321C10.033 13.0852 10.0607 12.8428 10.0607 12.518V12.505C10.0607 11.6214 9.41937 10.8938 8.51892 10.8938C7.61847 10.8938 7 11.6084 7 12.492V12.505C7 13.3886 7.63143 14.1162 8.53188 14.1162Z" fill="#231F20" fill-opacity="0.7"/>
<path fill-rule="evenodd" clip-rule="evenodd" d="M1 12.501C1 11 1.931 10 3.256 10C4.20239 10 4.55 10.311 4.969 10.753L4.4267 11.4271C4.0767 11.0681 3.75 11 3.25 11C2.418 11 2 11.7379 2 12.487C2 13.2361 2.412 14 3.25 14C3.787 14 4.0517 13.8934 4.4267 13.5064L5 14.144C4.544 14.669 4.19733 15 3.225 15C1.949 15 1 14.002 1 12.501Z" fill="#231F20" fill-opacity="0.7"/>
</svg>
