<svg width="13" height="12" viewBox="0 0 13 12" fill="none" xmlns="http://www.w3.org/2000/svg">
<path fill-rule="evenodd" clip-rule="evenodd" d="M9 5C9.27614 5 9.5 5.22386 9.5 5.5V8C9.5 8.27614 9.27614 8.5 9 8.5C8.72386 8.5 8.5 8.27614 8.5 8V5.5C8.5 5.22386 8.72386 5 9 5ZM7.89978 6.69953C8.06563 6.92032 8.02108 7.23376 7.80029 7.3996C7.31338 7.76533 7 8.346 7 9C7 10.1046 7.89543 11 9 11C10.1046 11 11 10.1046 11 9C11 8.346 10.6866 7.76533 10.1997 7.3996C9.97892 7.23376 9.93437 6.92032 10.1002 6.69953C10.2661 6.47873 10.5795 6.43419 10.8003 6.60003C11.5278 7.14651 12 8.01819 12 9C12 10.6569 10.6569 12 9 12C7.34315 12 6 10.6569 6 9C6 8.01819 6.47217 7.14651 7.19971 6.60003C7.42051 6.43419 7.73394 6.47873 7.89978 6.69953Z" fill="#CED0D6"/>
<path d="M10.9701 5.57497C10.8169 5.5244 10.6581 5.49961 10.5 5.49973C10.4999 4.67143 9.82834 4 9 4C8.17166 4 7.50015 4.67143 7.5 5.49973C7.18608 5.49949 6.86946 5.59742 6.59913 5.80047C5.63112 6.52757 5 7.69019 5 9C5 9.09307 5.00318 9.1854 5.00943 9.27688C3.81235 9.66179 2.09789 10.0053 2.09789 10.0053L2.01214 9.95933C0.571706 9.25521 0.45619 6.13999 3.07106 5.12983C3.7319 4.87435 4.38946 4.81325 5.06519 4.75048C5.56212 4.70431 6.06887 4.65723 6.59397 4.53125C8.01615 4.19005 9.11155 3.26562 10.0284 1.98438C10.46 2.90649 10.8599 4.22978 10.9701 5.57497Z" fill="#253627"/>
<path d="M5.41692 10.78C5.30199 10.5491 5.20873 10.3056 5.13978 10.052C4.90297 10.1341 4.65507 10.2097 4.37549 10.2948C4.01012 10.4062 3.59063 10.534 3.07102 10.7146C2.8966 10.7752 2.75997 10.8336 2.75997 10.8336C3.12117 10.7737 3.47946 10.7533 3.47946 10.7533C3.91979 10.7333 4.41367 10.749 4.93218 10.7656C5.09171 10.7707 5.25357 10.7758 5.41692 10.78Z" fill="#253627"/>
<path d="M6.13303 11.7894C5.78806 11.7907 5.45171 11.7821 5.13524 11.7725L4.89777 11.765C4.82065 11.7626 4.7435 11.7598 4.66633 11.7571C4.227 11.7414 3.78658 11.7257 3.34822 11.7667C3.22709 11.778 2.92349 11.8202 2.92349 11.8202C2.92349 11.8202 2.23438 11.9141 1.84375 11.4922C1.45312 11.0703 1.55386 10.8483 1.55386 10.8483C0.332515 10.2386 -0.119363 8.78054 0.0277754 7.54144C0.186422 6.20543 1.09269 4.8161 2.71041 4.19711C3.65803 3.83453 4.44731 3.7728 5.14901 3.71792C5.64521 3.67911 6.09761 3.64373 6.53125 3.50781C7.57812 3.17969 8.3834 2.56472 9.21514 1.40244C10.0469 0.240152 10.2031 0.015625 10.2031 0.015625C10.2031 0.015625 10.4522 0.530966 10.9341 1.56048C11.4159 2.59 11.8532 4.04407 11.9697 5.52999C11.9697 5.52999 12.0149 5.85855 12.0093 6.36497C11.8265 6.15628 11.6225 5.96696 11.4009 5.80047C11.2667 5.69969 11.1211 5.62481 10.9701 5.57497C10.8599 4.22978 10.46 2.90649 10.0284 1.98438C9.11155 3.26562 8.01615 4.19005 6.59397 4.53125C6.06887 4.65723 5.56212 4.70431 5.06519 4.75047C4.38946 4.81325 3.7319 4.87435 3.07106 5.12983C0.45619 6.13999 0.571706 9.25521 2.01214 9.95933L2.09789 10.0053C2.09789 10.0053 3.81236 9.66179 5.00944 9.27688C5.02765 9.54326 5.07194 9.80248 5.13978 10.052C4.90297 10.1341 4.65507 10.2097 4.37549 10.2948C4.01013 10.4062 3.59062 10.534 3.07102 10.7146C2.8966 10.7752 2.75997 10.8336 2.75997 10.8336C3.12117 10.7737 3.47946 10.7533 3.47946 10.7533C3.91979 10.7333 4.41367 10.749 4.93218 10.7656C5.09171 10.7707 5.25357 10.7758 5.41691 10.78C5.60274 11.1534 5.84519 11.4936 6.13303 11.7894Z" fill="#57965C"/>
</svg>
