<svg width="128" height="128" viewBox="0 0 128 128" fill="none" xmlns="http://www.w3.org/2000/svg">
<path d="M21.6 110.8L6 18.2L34.9 6.19995L53.4 17.1L70.3 7.99995L105.5 21.5L85.8 122L21.6 110.8Z" fill="url(#paint0_linear)"/>
<path d="M70.2999 8L53.3999 17.1L58.2999 54.9L68.6999 62.2L71.9999 84.1L83.5999 85.2L74.7999 44.6L70.2999 8Z" fill="url(#paint1_linear)"/>
<path d="M58.2999 58.7999L53.3999 17.1L34.8999 6.19995L42.5999 51.0999L45.4999 79.1L61.2999 78.5L60.0999 71.5L58.2999 58.7999Z" fill="url(#paint2_linear)"/>
<path d="M21.6 110.8L6 18.2L34.9 6.19995L43 52.7999L21.6 110.8Z" fill="url(#paint3_linear)"/>
<path d="M42.9 52.5L34.9 6.19995L6 18.2L38.2 46.2L42.9 52.5Z" fill="url(#paint4_linear)"/>
<path d="M21.6 110.8L6 18.2L38.2 46.2L70.3 88.8L21.6 110.8Z" fill="url(#paint5_linear)"/>
<path d="M21.6001 110.8L49.1001 91L85.8001 122L21.6001 110.8Z" fill="url(#paint6_linear)"/>
<path d="M61.9 86.3L49.2 98.2L85.8 122L92.0999 89.7L61.9 86.3Z" fill="url(#paint7_linear)"/>
<path d="M21.6001 110.8L49.2001 98.2L85.8001 122L21.6001 110.8Z" fill="url(#paint8_linear)"/>
<path d="M122 45.3L107 8.3L79.8999 6L37.8999 46.3L48.6999 98.2L71.1999 112.5L122 82.3L109.3 58.5L122 45.3Z" fill="url(#paint9_linear)"/>
<path d="M82.9999 43.4L79.8999 6L37.8999 46.3L68.8999 55.9L82.9999 43.4Z" fill="url(#paint10_linear)"/>
<path d="M75.5999 10.1001L37.8999 46.3001L68.8999 55.9001L85.6999 73.9001L80.2999 11.8001L75.5999 10.1001Z" fill="url(#paint11_linear)"/>
<path d="M68.9 55.8999L75.9 49.5999L74.8 44.5999L71.1 14.3999L55 29.8999L58 52.4999L68.9 55.8999Z" fill="url(#paint12_linear)"/>
<path d="M58 52.5L54.9001 30L41.3 43.1L42 47.6L58 52.5Z" fill="url(#paint13_linear)"/>
<path d="M75.5999 10.1001L37.8999 46.3001L80.3999 11.9001L75.5999 10.1001Z" fill="url(#paint14_linear)"/>
<path d="M71.6 18.5001L71.1 14.4001L55 29.9001L55.3 31.9001L71.6 18.5001Z" fill="url(#paint15_linear)"/>
<path d="M55.1998 32.1L54.8998 30L41.2998 43.1V43.5L55.1998 32.1Z" fill="url(#paint16_linear)"/>
<path d="M94.7999 32.5L68.8999 55.9L71.1999 112.5L122 82.3L109.3 58.5L94.7999 32.5Z" fill="url(#paint17_linear)"/>
<path d="M83.2 46.4001L85.5 76.0001L122 82.3001L109.3 58.5001L101.9 45.1001L83.2 46.4001Z" fill="url(#paint18_linear)"/>
<path d="M83.2 46.4001L85.5 76.0001L91.2 77.0001L109.3 58.5001L101.9 45.1001L83.2 46.4001Z" fill="url(#paint19_linear)"/>
<path d="M68.8999 55.9001L37.8999 46.3L48.6999 98.2L71.1999 112.5L68.8999 55.9001Z" fill="url(#paint20_linear)"/>
<path d="M58.7 58.8001L57.8 52.5001L42 47.6001L42.6 51.1001L47.8 91.3001L48.7 95.2001L65.1 107.9L58.7 58.8001Z" fill="url(#paint21_linear)"/>
<path d="M48.7 98.1999L71.1999 112.5L70 84.3999L48.7 98.1999Z" fill="url(#paint22_linear)"/>
<path d="M94.8 32.5L109.3 58.5L122 45.3L107 8.30005L88.3 31.7001L94.8 32.5Z" fill="url(#paint23_linear)"/>
<path d="M101.9 45.2L109.3 58.5L122 45.2999L101.9 45.2Z" fill="url(#paint24_linear)"/>
<path d="M37.8999 46.3L40.3999 58.4001L37.8999 46.3Z" fill="url(#paint25_linear)"/>
<path d="M100 28H28V100H100V28Z" fill="url(#paint26_linear)"/>
<g opacity="0.3">
<path opacity="0.3" d="M58.1 55L60.7 77.7L69 88.8L83.2 85.1L74.4 44.7L72.4 28H54.5L58.1 55Z" fill="url(#paint27_linear)"/>
<g opacity="0.3">
<path opacity="0.3" d="M99.9999 95V42.4L94.5999 32.7L68.8999 56L70.5999 100H91.5999L99.9999 95Z" fill="url(#paint28_linear)"/>
<path opacity="0.3" d="M99.9999 28H91.2999L88.0999 32L94.5999 32.7L99.9999 42.4V28Z" fill="url(#paint29_linear)"/>
</g>
<path opacity="0.3" d="M42.8 51.2L49.3 98.6L61.3 78.4L60.1 71.4L58.3 58.8L54.7 28H38.8L42.8 51.2Z" fill="url(#paint30_linear)"/>
<path opacity="0.3" d="M94.6001 32.7L88.1001 32L91.3001 28H57.3001L38.1001 46.4L48.8001 98L52.0001 100H70.6001L68.9001 56L94.6001 32.7Z" fill="url(#paint31_linear)"/>
<path opacity="0.3" d="M28 37.3L38.4 46.3L43.1 52.6L38.8 28H28V37.3Z" fill="url(#paint32_linear)"/>
<g opacity="0.3">
<path opacity="0.3" d="M28 37.3V100H45.2L49.3 97.9001L38.4 46.3L28 37.3Z" fill="url(#paint33_linear)"/>
</g>
</g>
<path d="M64.0001 86.3999H36.9001V90.8999H64.0001V86.3999Z" fill="white"/>
<path d="M62.5001 37L58.5001 52.7L53.9001 37H49.3001L44.7001 52.7L40.7001 37H34.4001L42.1001 64H47.2001L51.6001 48.3L56.0001 64H61.1001L68.8001 37H62.5001Z" fill="white"/>
<path d="M69.9001 60.1L73.4001 55.9C75.8001 57.9 78.4001 59.2 81.5001 59.2C83.9001 59.2 85.4001 58.2 85.4001 56.6V56.5C85.4001 55 84.5001 54.2 79.9001 53.1C74.4001 51.7 70.9001 50.2 70.9001 44.8V44.7C70.9001 39.8 74.8001 36.5 80.4001 36.5C84.3001 36.5 87.7001 37.7 90.5001 39.9L87.4001 44.4C85.0001 42.7 82.6001 41.7 80.4001 41.7C78.1001 41.7 76.9001 42.7 76.9001 44.1V44.2C76.9001 46 78.1001 46.6 82.7001 47.8C88.2001 49.2 91.3001 51.2 91.3001 55.9V56C91.3001 61.4 87.2001 64.4 81.4001 64.4C77.3001 64.5 73.2001 63 69.9001 60.1Z" fill="white"/>
<defs>
<linearGradient id="paint0_linear" x1="47.5405" y1="8.41925" x2="77.5602" y2="116.49" gradientUnits="userSpaceOnUse">
<stop offset="0.2849" stop-color="#07C3F2"/>
<stop offset="0.9409" stop-color="#087CFA"/>
</linearGradient>
<linearGradient id="paint1_linear" x1="57.5148" y1="2.2706" x2="73.1516" y2="69.5911" gradientUnits="userSpaceOnUse">
<stop offset="0.0669317" stop-color="#42FFFA"/>
<stop offset="0.3409" stop-color="#07C3F2"/>
<stop offset="0.9409" stop-color="#087CFA"/>
</linearGradient>
<linearGradient id="paint2_linear" x1="31.214" y1="2.43175" x2="55.7473" y2="64.012" gradientUnits="userSpaceOnUse">
<stop offset="0.2849" stop-color="#07C3F2"/>
<stop offset="0.9409" stop-color="#087CFA"/>
</linearGradient>
<linearGradient id="paint3_linear" x1="12.6723" y1="-4.88975" x2="39.1726" y2="102.757" gradientUnits="userSpaceOnUse">
<stop offset="0.0669317" stop-color="#42FFFA"/>
<stop offset="0.3409" stop-color="#07C3F2"/>
<stop offset="0.9409" stop-color="#087CFA"/>
</linearGradient>
<linearGradient id="paint4_linear" x1="22.4133" y1="37.4465" x2="30.3797" y2="29.2054" gradientUnits="userSpaceOnUse">
<stop offset="0.00971316" stop-color="#42FFFA"/>
<stop offset="0.9216" stop-color="#07C3F2" stop-opacity="0"/>
</linearGradient>
<linearGradient id="paint5_linear" x1="-22.9787" y1="40.8432" x2="55.3699" y2="91.2102" gradientUnits="userSpaceOnUse">
<stop offset="0.1985" stop-color="#07C3F2"/>
<stop offset="0.9403" stop-color="#087CFA"/>
</linearGradient>
<linearGradient id="paint6_linear" x1="6.3819" y1="104.71" x2="51.4818" y2="106.026" gradientUnits="userSpaceOnUse">
<stop offset="0.1291" stop-color="#1D53B8"/>
<stop offset="0.8696" stop-color="#087CFA"/>
</linearGradient>
<linearGradient id="paint7_linear" x1="68.5583" y1="86.3415" x2="78.3326" y2="121.529" gradientUnits="userSpaceOnUse">
<stop offset="0.2771" stop-color="#087BFA"/>
<stop offset="0.6826" stop-color="#085DFA"/>
</linearGradient>
<linearGradient id="paint8_linear" x1="47.2939" y1="64.5554" x2="54.207" y2="120.519" gradientUnits="userSpaceOnUse">
<stop offset="0.5232" stop-color="#087BFA"/>
<stop offset="0.9771" stop-color="#086DFA"/>
</linearGradient>
<linearGradient id="paint9_linear" x1="56.7176" y1="22.2604" x2="107.501" y2="96.7273" gradientUnits="userSpaceOnUse">
<stop offset="0.1286" stop-color="#FCF84A"/>
<stop offset="0.4986" stop-color="#07C3F2"/>
</linearGradient>
<linearGradient id="paint10_linear" x1="79.0381" y1="5.5174" x2="74.0795" y2="16.018" gradientUnits="userSpaceOnUse">
<stop  offset="0" stop-color="#73A4AA"/>
<stop offset="0.6751" stop-color="#FCF84A"/>
</linearGradient>
<linearGradient id="paint11_linear" x1="53.239" y1="-11.1106" x2="70.9811" y2="109.488" gradientUnits="userSpaceOnUse">
<stop offset="0.1786" stop-color="#FCF84A"/>
<stop offset="0.8591" stop-color="#07C3F2"/>
</linearGradient>
<linearGradient id="paint12_linear" x1="59.6944" y1="12.6502" x2="73.2344" y2="70.9433" gradientUnits="userSpaceOnUse">
<stop offset="0.1787" stop-color="#FCF84A"/>
<stop offset="0.9725" stop-color="#12C6EC"/>
</linearGradient>
<linearGradient id="paint13_linear" x1="45.3002" y1="32.2066" x2="56.3503" y2="55.2063" gradientUnits="userSpaceOnUse">
<stop offset="0.1286" stop-color="#FCF84A"/>
<stop offset="0.9414" stop-color="#07C3F2"/>
</linearGradient>
<linearGradient id="paint14_linear" x1="55.1231" y1="1.5933" x2="63.4502" y2="58.195" gradientUnits="userSpaceOnUse">
<stop offset="0.1786" stop-color="#FCF84A"/>
<stop offset="0.8591" stop-color="#07C3F2"/>
</linearGradient>
<linearGradient id="paint15_linear" x1="61.3387" y1="15.2066" x2="65.9122" y2="34.8967" gradientUnits="userSpaceOnUse">
<stop offset="0.1787" stop-color="#D3FF8C"/>
<stop offset="0.8762" stop-color="#12C6EC"/>
</linearGradient>
<linearGradient id="paint16_linear" x1="46.474" y1="33.3446" x2="49.6844" y2="40.0267" gradientUnits="userSpaceOnUse">
<stop offset="0.1286" stop-color="#FCF84A"/>
<stop offset="0.9414" stop-color="#07C3F2"/>
</linearGradient>
<linearGradient id="paint17_linear" x1="68.2779" y1="50.893" x2="101.326" y2="99.3536" gradientUnits="userSpaceOnUse">
<stop  offset="0" stop-color="#07C3F2"/>
<stop offset="0.906" stop-color="#00A0FF"/>
</linearGradient>
<linearGradient id="paint18_linear" x1="116.205" y1="62.6093" x2="74.7262" y2="67.8765" gradientUnits="userSpaceOnUse">
<stop  offset="0" stop-color="#07C3F2"/>
<stop offset="1" stop-color="#0895F7"/>
</linearGradient>
<linearGradient id="paint19_linear" x1="106.997" y1="59.1765" x2="76.7321" y2="63.0197" gradientUnits="userSpaceOnUse">
<stop  offset="0" stop-color="#07C3F2"/>
<stop offset="1" stop-color="#0895F7"/>
</linearGradient>
<linearGradient id="paint20_linear" x1="33.2223" y1="39.5665" x2="76.1804" y2="102.559" gradientUnits="userSpaceOnUse">
<stop offset="0.080633" stop-color="#FCF84A"/>
<stop offset="0.5708" stop-color="#07C3F2"/>
</linearGradient>
<linearGradient id="paint21_linear" x1="38.1096" y1="42.2992" x2="70.9682" y2="110.691" gradientUnits="userSpaceOnUse">
<stop offset="0.1286" stop-color="#FCF84A"/>
<stop offset="0.4216" stop-color="#07C3F2"/>
</linearGradient>
<linearGradient id="paint22_linear" x1="47.5983" y1="83.3431" x2="75.5374" y2="102.258" gradientUnits="userSpaceOnUse">
<stop offset="0.09347" stop-color="#087CFA"/>
<stop offset="0.6584" stop-color="#07C3F2"/>
</linearGradient>
<linearGradient id="paint23_linear" x1="96.6277" y1="8.39765" x2="110.963" y2="59.1664" gradientUnits="userSpaceOnUse">
<stop  offset="0" stop-color="#FCF84A"/>
<stop offset="0.4651" stop-color="#07C3F2"/>
<stop offset="0.9409" stop-color="#087CFA"/>
</linearGradient>
<linearGradient id="paint24_linear" x1="127.604" y1="48.6282" x2="85.1374" y2="54.883" gradientUnits="userSpaceOnUse">
<stop  offset="0" stop-color="#0863FA"/>
<stop offset="0.9409" stop-color="#1AC8FB"/>
</linearGradient>
<linearGradient id="paint25_linear" x1="36.0053" y1="47.6671" x2="42.6898" y2="57.469" gradientUnits="userSpaceOnUse">
<stop offset="0.1286" stop-color="#FCF84A"/>
<stop offset="0.4216" stop-color="#07C3F2"/>
</linearGradient>
<linearGradient id="paint26_linear" x1="26.1917" y1="24.7305" x2="89.2086" y2="90.1828" gradientUnits="userSpaceOnUse">
<stop  offset="0" stop-color="#006396"/>
<stop offset="0.0470796" stop-color="#005682"/>
<stop offset="0.1677" stop-color="#003754"/>
<stop offset="0.2832" stop-color="#001F2F"/>
<stop offset="0.3905" stop-color="#000E15"/>
<stop offset="0.4867" stop-color="#000406"/>
<stop offset="0.5623"/>
<stop offset="0.9138"/>
</linearGradient>
<linearGradient id="paint27_linear" x1="58.9056" y1="20.0448" x2="71.3887" y2="73.7878" gradientUnits="userSpaceOnUse">
<stop offset="0.0669317" stop-color="#42FFFA"/>
<stop offset="0.3409" stop-color="#07C3F2"/>
<stop offset="0.9409" stop-color="#0838AF"/>
</linearGradient>
<linearGradient id="paint28_linear" x1="70.9088" y1="49.1603" x2="102.807" y2="95.9344" gradientUnits="userSpaceOnUse">
<stop offset="0.1825" stop-color="#07C3F2"/>
<stop offset="0.906" stop-color="#00171C"/>
</linearGradient>
<linearGradient id="paint29_linear" x1="93.077" y1="26.5462" x2="97.8172" y2="43.3346" gradientUnits="userSpaceOnUse">
<stop  offset="0" stop-color="#FCF84A"/>
<stop offset="0.4651" stop-color="#07C3F2"/>
<stop offset="0.9409" stop-color="#087CFA"/>
</linearGradient>
<linearGradient id="paint30_linear" x1="36.4343" y1="24.2506" x2="58.5852" y2="79.8508" gradientUnits="userSpaceOnUse">
<stop offset="0.0167591" stop-color="#086DFA"/>
<stop offset="1" stop-color="#08328E"/>
</linearGradient>
<linearGradient id="paint31_linear" x1="67.4448" y1="24.6249" x2="61.8001" y2="103.405" gradientUnits="userSpaceOnUse">
<stop offset="0.0186027" stop-color="#00FE80"/>
<stop offset="0.3413" stop-color="#21DE9B"/>
<stop offset="0.9563" stop-color="#0770B1"/>
</linearGradient>
<linearGradient id="paint32_linear" x1="26.6934" y1="11.333" x2="44.8992" y2="69.0361" gradientUnits="userSpaceOnUse">
<stop offset="0.1985" stop-color="#07C3F2"/>
<stop offset="0.9403" stop-color="#0845D7"/>
</linearGradient>
<linearGradient id="paint33_linear" x1="17.2777" y1="43.2781" x2="49.1482" y2="103.111" gradientUnits="userSpaceOnUse">
<stop  offset="0" stop-color="#07C3F2"/>
<stop offset="0.9409" stop-color="#0838AF"/>
</linearGradient>
</defs>
</svg>
