<svg width="16" height="16" viewBox="0 0 16 16" fill="none" xmlns="http://www.w3.org/2000/svg">
<path d="M16 0H0V16H16V0Z" fill="#07C3F2"/>
<path d="M15 1H1V15H15V1Z" fill="black"/>
<path d="M9 12H3V13H9V12Z" fill="white"/>
<path d="M9.19995 8.0999L9.99995 7.1999C10.5 7.5999 11.1 7.8999 11.8 7.8999C12.3 7.8999 12.7 7.6999 12.7 7.2999C12.7 6.9999 12.5 6.7999 11.5 6.4999C10.3 6.1999 9.49995 5.8999 9.49995 4.6999C9.49995 3.5999 10.4 2.8999 11.6 2.8999C12.5 2.8999 13.2 3.1999 13.8 3.6999L13.1 4.6999C12.6 4.2999 12 4.0999 11.5 4.0999C11 4.0999 10.7 4.2999 10.7 4.5999C10.7 4.9999 11 5.0999 12 5.3999C13.3 5.6999 14 6.1999 14 7.1999C14 8.3999 13.1 9.0999 11.8 9.0999C10.9 9.0999 9.99995 8.7999 9.19995 8.0999Z" fill="white"/>
<path d="M4.8001 9L5.8001 5.5L6.7001 9H7.8001L9.5001 3H8.1001L7.3001 6.5L6.3001 3H5.3001L4.3001 6.5L3.4001 3H2.1001L3.7001 9H4.8001Z" fill="white"/>
</svg>
