<svg width="16" height="16" viewBox="0 0 16 16" xmlns="http://www.w3.org/2000/svg">
  <path fill="#EBECF0" fill-rule="evenodd" d="M6.25 14.25c-.12.07-.34.25-.61.25-1.58 0-3.13-2.77-3.13-8.11A4.88 4.88 0 0 1 7.38 1.5c2.43 0 4.88 1.4 4.88 4.51 0 6.79 2.23 6.03 2.23 7.69 0 .51-.41.8-.79.8-.51 0-1.59-.23-2.83-1.15 0 0-.55 1.23-1.72 1.23-.58 0-1.68-1.09-2.19-2.07.07.84-.01 1.29-.72 1.75l.01-.01" clip-rule="evenodd"/>
  <path fill="#6C707E" d="M4.65 7.03a1.18 1.18 0 1 0 0-2.36 1.18 1.18 0 0 0 0 2.36m3.27.17a1.35 1.35 0 1 0 0-2.7 1.35 1.35 0 0 0 0 2.7"/>
  <path fill="none" stroke="#6C707E" stroke-linecap="round" stroke-linejoin="round" d="M9.84 14.34c-.18.11-.44.16-.65.16-1.36 0-3-2.71-3.2-4"/>
  <path fill="none" stroke="#6C707E" stroke-linecap="round" stroke-linejoin="round" d="M6.25 14.25c-.07.12-.34.25-.61.25-1.58 0-3.13-2.77-3.13-8.11A4.88 4.88 0 0 1 7.38 1.5c2.43 0 4.88 1.4 4.88 4.51 0 6.79 2.23 6.03 2.23 7.69 0 .51-.41.8-.79.8-2.04 0-4.46-2.86-4.66-4"/>
</svg>
