<!-- Copyright © 2000–2024 JetBrains s.r.o. -->
<svg width="16" height="16" viewBox="0 0 16 16" xmlns="http://www.w3.org/2000/svg">
  <path fill="#F4F4F4" fill-rule="evenodd" d="M14 16c-.801 0-1.717-.581-2.563-1.396-.024.339-.122.64-.339.903-.263.318-.654.493-1.098.493-.801 0-1.717-.581-2.563-1.396-.024.339-.122.64-.339.903C6.835 15.825 6.444 16 6 16c-1.832 0-4-3.794-4-7V7c0-3.309 2.691-6 6-6 3.323 0 6 2.735 6 5v3c0 1.338.457 2.708.823 3.809.408 1.223.678 2.031.209 2.681A1.25 1.25 0 0 1 14 16"/>
  <path fill="#313131" fill-rule="evenodd" d="M13 9V6c0-1.762-2.238-4-5-4a5 5 0 0 0-5 5v2c0 3 2 6 3 6s0-2 0-4c1 2 3 4 4 4s0-2 0-4c1 2 3 4 4 4s-1-3-1-6"/>
  <path fill="#EBEBEB" fill-rule="evenodd" d="M9.5 5a1.5 1.5 0 1 0-.001 2.999A1.5 1.5 0 0 0 9.5 5M7 6.5a1.5 1.5 0 1 1-2.999.001A1.5 1.5 0 0 1 7 6.5"/>
</svg>
