<!-- Copyright © 2000–2024 JetBrains s.r.o. -->
<svg width="16" height="16" viewBox="0 0 16 16" xmlns="http://www.w3.org/2000/svg">
  <path fill="#F4F4F4" fill-rule="evenodd" d="M16 5.914v-.828L11.914 1h-1.828L9 2.086l-1-1-1 1L5.914 1H4.086L0 5.086v.828L4.086 10h1.828L7 8.914l1 1 1-1L10.086 10h1.828z"/>
  <path fill="#313131" fill-rule="evenodd" d="m6 8.5-3-3 3-3-1-1-4 4 4 4m10-4-4 4-1-1 3-3-3-3 1-1z"/>
  <path fill="#313131" fill-rule="evenodd" d="m8 8.5-3-3 3-3 3 3z"/>
  <path fill="#F4F4F4" fill-rule="evenodd" d="M10.15 16C8.383 16 7 14.243 7 12v-1c0-2.206 1.794-4 4-4h1c2.243 0 4 1.757 4 4 0 .928-.38 1.731-1 2.273V16z"/>
  <path fill="#313131" fill-rule="evenodd" d="M12 12h-1v-1h1m-4 0v1c0 1.657.963 3 2.15 3H14v-1H9.7a.7.7 0 0 1-.7-.7V9.7a.7.7 0 0 1 .7-.7h3.6a.7.7 0 0 1 .7.7V11c0 .302-.516 1-1 1v-1.3c0-.386-.314-.7-.701-.7H11.5a1.5 1.5 0 0 0 0 3H13c1.104 0 2-.797 2-2 0-1.719-1.343-3-3-3h-1a3 3 0 0 0-3 3"/>
</svg>
