<!-- Copyright © 2000–2024 JetBrains s.r.o. -->
<svg width="16" height="16" viewBox="0 0 16 16" xmlns="http://www.w3.org/2000/svg">
  <path fill="#242424" fill-rule="evenodd" d="M16 5.914v-.828L11.914 1h-1.828L9 2.086l-1-1-1 1L5.914 1H4.086L0 5.086v.828L4.086 10h1.828L7 8.914l1 1 1-1L10.086 10h1.828z"/>
  <path fill="#C4C4C4" fill-rule="evenodd" d="m6 8.5-3-3 3-3-1-1-4 4 4 4m10-4-4 4-1-1 3-3-3-3 1-1z"/>
  <path fill="#C4C4C4" fill-rule="evenodd" d="m8 8.5-3-3 3-3 3 3z"/>
  <path fill="#242424" fill-rule="evenodd" d="M8 14h7V7H8z"/>
  <path fill="#C4C4C4" fill-rule="evenodd" d="M14 8H9v5h5z"/>
  <path fill="#242424" fill-rule="evenodd" d="M7 16V9h3v1h3V9h3v7z"/>
  <path fill="#C4C4C4" fill-rule="evenodd" d="M14 10v1H9v-1H8v5h7v-5z"/>
  <path fill="#C4C4C4" fill-rule="evenodd" d="M10 14h3.001v-1H10z"/>
  <path fill="#282828" fill-rule="evenodd" d="M10 13h3.001v-1H10z"/>
</svg>
