<svg width="16" height="16" viewBox="0 0 16 16" xmlns="http://www.w3.org/2000/svg">
  <path fill="#25324D" fill-rule="evenodd" d="M12.5 7.16V2.5h-9v11H10v-3c0-1.58 1.06-2.9 2.5-3.34" clip-rule="evenodd"/>
  <path fill="none" stroke="#548AF7" stroke-linecap="round" stroke-linejoin="round" d="M5.5 10.5h1m2 0h1m-4-2h1m2 0h1.54m-1.54-2h2m-5 0h1m6 .13V2.5h-9v11h6"/>
  <path fill="none" stroke="#CED0D6" stroke-linecap="round" stroke-linejoin="round" d="M11.5 13.5v-3c0-1.1.9-2 2-2s2 .9 2 2v4c0 .55-.45 1-1 1s-1-.45-1-1v-4"/>
</svg>
