<svg width="16" height="16" viewBox="0 0 16 16" xmlns="http://www.w3.org/2000/svg">
  <path fill="#43454A" fill-rule="evenodd" d="M8.18 11.32a4.508 4.508 0 0 1 3.15-3.15l.18-.18-3.5-3.5-3.5 3.5 3.5 3.5.18-.18z" clip-rule="evenodd"/>
  <path fill="none" stroke="#CED0D6" stroke-linecap="round" stroke-linejoin="round" d="M3.9 5.85 1.8 8l2.1 2.15m8.2-4.3 1.62 1.66"/>
  <path fill="none" stroke="#548AF7" stroke-linecap="round" stroke-linejoin="round" d="M14.5 15.5h-2c-1.66 0-3-1.34-3-3s1.34-3 3-3h1c1.1 0 2 .9 2 2v.5c0 .83-.67 1.5-1.5 1.5h-1.5c-.55 0-1-.45-1-1s.45-1 1-1h1v2"/>
  <path fill="none" stroke="#CED0D6" stroke-linecap="round" stroke-linejoin="round" d="M7.68 11.18 4.5 8 8 4.5l3.18 3.18"/>
</svg>
