<!-- Copyright © 2000–2024 JetBrains s.r.o. -->
<svg width="16" height="16" viewBox="0 0 16 16" xmlns="http://www.w3.org/2000/svg">
  <path fill="#F4F4F4" fill-rule="evenodd" d="M14 11H0V0h14z"/>
  <path fill="#313131" fill-rule="evenodd" d="M1 10h12V1H1z"/>
  <path fill="#EBEBEB" fill-rule="evenodd" d="M12 9H2V2h10z"/>
  <path fill="#313131" fill-rule="evenodd" d="M6 7 4.5 5.5 6 4V3l-.5-.5-3 3 3 3L6 8m5.5-2.5-3 3L8 8V7l1.5-1.5L8 4V3l.5-.5z"/>
  <path fill="#F4F4F4" fill-rule="evenodd" d="M11.586 16 8 12.414V8.382l2 1V5h4v4.382l2-1v4.032L12.414 16z"/>
  <path fill="#00529C" fill-rule="evenodd" d="M13 11V8h-2v3l-2-1v2l3 3 3-3v-2m-2-3h-2V6h2z"/>
</svg>
