<svg width="16" height="16" viewBox="0 0 16 16" xmlns="http://www.w3.org/2000/svg">
  <path fill="none" stroke="#CED0D6" stroke-linecap="round" stroke-linejoin="round" d="M3.84 7.5c.41-.36.66-.89.66-1.48V4.41c0-1.05.86-1.91 1.91-1.91h.09m3 11h.09c1.05 0 1.91-.86 1.91-1.91V9.98c0-1.09.89-1.98 1.98-1.98m0 0H14m-.52 0c-1.09 0-1.98-.89-1.98-1.98V4.41c0-1.05-.86-1.91-1.91-1.91H9.5"/>
  <path fill="#548AF7" fill-rule="evenodd" d="M7 15c0 .55-.45 1-1 1H1c-.55 0-1-.45-1-1v-5c0-.55.45-1 1-1h5c.55 0 1 .45 1 1z" clip-rule="evenodd"/>
  <path fill="none" stroke="#1E1F22" stroke-linecap="round" stroke-linejoin="round" d="m1.5 14.5 4-4m-3 0h3v3"/>
</svg>
