<!-- Copyright © 2000–2024 JetBrains s.r.o. -->
<svg width="16" height="16" viewBox="0 0 16 16" xmlns="http://www.w3.org/2000/svg">
  <path fill="#FFFAEB" d="M10 10.5c0-1.05.47-1.98 1.2-2.62.11-.1.12-.38.02-.38H8.99l.9-5.42c.04-.24-.13-.58-.49-.58-.14 0-.29.06-.38.18l-5.05 6a.49.49 0 0 0-.12.32c0 .33.28.5.5.5h2.67l-.9 5.42c-.04.24.13.58.49.58.14 0 .29-.06.38-.18L10 10.74z"/>
  <path fill="none" stroke="#C27D04" stroke-linecap="round" stroke-linejoin="round" d="M10.86 7.5H8.99l.9-5.42c.04-.24-.13-.58-.49-.58-.14 0-.29.06-.38.18l-5.05 6a.49.49 0 0 0-.12.32c0 .33.28.5.5.5h2.67l-.9 5.42c-.04.24.13.58.49.58.14 0 .29-.06.38-.18l2.51-2.98"/>
  <path fill="none" stroke="#6C707E" stroke-linecap="round" stroke-linejoin="round" d="M11.5 13.5v-3c0-1.1.9-2 2-2s2 .9 2 2v4c0 .55-.45 1-1 1s-1-.45-1-1v-4"/>
</svg>
