<svg width="16" height="16" viewBox="0 0 16 16" fill="none" xmlns="http://www.w3.org/2000/svg">
<path d="M11 2C11.5523 2 12 2.44772 12 3V9H6C5.44772 9 5 9.44772 5 10V14C4.44772 14 4 13.5523 4 13V6H6C7.10457 6 8 5.10457 8 4V2H11Z" fill="#EBECF0"/>
<path d="M7 4C7 4.06893 6.99277 4.13617 6.97949 4.20117C6.88625 4.65686 6.48325 5 6 5H4.41406L7 2.41406V4Z" fill="#EBECF0"/>
<path d="M8.03418 9.93164C8.42231 9.93164 8.75636 10.0057 9.03516 10.1533C9.31923 10.2954 9.54075 10.4975 9.69922 10.7598C9.85775 11.0222 9.93652 11.3369 9.93652 11.7031H8.90332C8.90332 11.4189 8.82682 11.2033 8.67383 11.0557C8.52623 10.9081 8.31298 10.834 8.03418 10.834C7.75548 10.834 7.53975 10.9081 7.38672 11.0557C7.23373 11.2033 7.15723 11.4166 7.15723 11.6953V14.3105C7.15723 14.5892 7.23377 14.805 7.38672 14.958C7.53975 15.1056 7.75548 15.1797 8.03418 15.1797C8.31298 15.1797 8.52623 15.1056 8.67383 14.958C8.82679 14.805 8.90332 14.5893 8.90332 14.3105H9.93652C9.93652 14.6657 9.8576 14.9773 9.69922 15.2451C9.5407 15.513 9.31937 15.7215 9.03516 15.8691C8.75636 16.0113 8.42231 16.082 8.03418 16.082C7.6516 16.082 7.31507 16.0112 7.02539 15.8691C6.7412 15.7216 6.51984 15.5162 6.36133 15.2539C6.20826 14.986 6.13184 14.6713 6.13184 14.3105V11.7031C6.13184 11.3369 6.20826 11.0222 6.36133 10.7598C6.51979 10.4975 6.74133 10.2954 7.02539 10.1533C7.31507 10.0057 7.6516 9.93167 8.03418 9.93164Z" fill="#6C707E"/>
<path d="M14.8369 10.9648H12.123V12.5645H14.624V13.5156H12.1396V16H11.1143V10.0137H14.8369V10.9648Z" fill="#6C707E"/>
<path fill-rule="evenodd" clip-rule="evenodd" d="M11 1C12.1046 1 13 1.89543 13 3V9H12V3C12 2.44772 11.5523 2 11 2H8V4C8 5.10457 7.10457 6 6 6H4V13C4 13.5523 4.44772 14 5 14V15C3.89543 15 3 14.1046 3 13V5.41406C3.00004 5.1489 3.10547 4.89453 3.29297 4.70703L6.70703 1.29297C6.89453 1.10547 7.1489 1.00004 7.41406 1H11ZM4.41406 5H6C6.55228 5 7 4.55228 7 4V2.41406L4.41406 5Z" fill="#6C707E"/>
</svg>