<svg width="16" height="16" viewBox="0 0 16 16" fill="none" xmlns="http://www.w3.org/2000/svg">
<path fill-rule="evenodd" clip-rule="evenodd" d="M2.63333 2C1.73127 2 1 2.83574 1 3.86667V12.1333C1 13.1643 1.73127 14 2.63333 14H9V12C9 11.2597 9.4022 10.6134 10 10.2676V10C10 8.34315 11.3431 7 13 7C13.7684 7 14.4692 7.28885 15 7.76389V6C15 4.89543 14.1046 4 13 4H8.46667L6.84336 2.30775C6.65477 2.11115 6.39413 2 6.1217 2H2.63333ZM7 9C7 9.55228 6.55228 10 6 10C5.44772 10 5 9.55228 5 9C5 8.44772 5.44772 8 6 8C6.55228 8 7 8.44772 7 9Z" fill="#EBECF0"/>
<path d="M2.63333 3H6.1217L8.04022 5H13C13.5523 5 14 5.44771 14 6V7.17071C14.3726 7.30241 14.7115 7.50564 15 7.76389V6C15 4.89543 14.1046 4 13 4H8.46667L6.84336 2.30775C6.65477 2.11115 6.39413 2 6.1217 2H2.63333C1.73127 2 1 2.83574 1 3.86667V12.1333C1 13.1643 1.73127 14 2.63333 14H9V13H2.63333C2.40481 13 2 12.7416 2 12.1333V3.86667C2 3.25841 2.40481 3 2.63333 3Z" fill="#6C707E"/>
<path fill-rule="evenodd" clip-rule="evenodd" d="M6 7C4.89543 7 4 7.89543 4 9C4 10.1046 4.89543 11 6 11C7.10457 11 8 10.1046 8 9C8 7.89543 7.10457 7 6 7ZM6 10C6.55228 10 7 9.55228 7 9C7 8.44772 6.55228 8 6 8C5.44772 8 5 8.44772 5 9C5 9.55228 5.44772 10 6 10Z" fill="#6C707E"/>
<rect x="11" y="12" width="4" height="3" fill="#FFFAEB"/>
<path fill-rule="evenodd" clip-rule="evenodd" d="M15 11V10C15 8.89543 14.1046 8 13 8C11.8954 8 11 8.89543 11 10V11C10.4477 11 10 11.4477 10 12V15C10 15.5523 10.4477 16 11 16H15C15.5523 16 16 15.5523 16 15V12C16 11.4477 15.5523 11 15 11ZM12 10C12 9.44772 12.4477 9 13 9C13.5523 9 14 9.44772 14 10V11H12V10ZM11 15L11 12H15V15H11Z" fill="#C27D04"/>
</svg>
