<svg width="16" height="16" viewBox="0 0 16 16" fill="none" xmlns="http://www.w3.org/2000/svg">
<path d="M2.49613 10.7894L3.57893 11.4211L12.421 2.57895L8.50387 0.293936C8.19251 0.112308 7.80749 0.112308 7.49613 0.293936L2.49613 3.2106C2.18891 3.38981 2 3.71871 2 4.07438V9.92564C2 10.2813 2.18891 10.6102 2.49613 10.7894Z" fill="#EBECF0"/>
<path d="M7.49613 13.7061L4.91871 12.2026L8.5 8.6213V10H11V12.25L8.50387 13.7061C8.19251 13.8877 7.80749 13.8877 7.49613 13.7061Z" fill="#EBECF0"/>
<path d="M14 7V4.07438C14 3.81711 13.9012 3.57385 13.7302 3.39111L10.1213 7H14Z" fill="#EBECF0"/>
<path fill-rule="evenodd" clip-rule="evenodd" d="M11.9745 2.31844L14.1464 0.146447C14.3417 -0.0488155 14.6583 -0.0488155 14.8536 0.146447C15.0488 0.341709 15.0488 0.658291 14.8536 0.853553L1.85355 13.8536C1.65829 14.0488 1.34171 14.0488 1.14645 13.8536C0.951184 13.6583 0.951184 13.3417 1.14645 13.1464L3.13235 11.1605L2.49613 10.7894C2.18891 10.6102 2 10.2813 2 9.92564V4.07438C2 3.71871 2.18891 3.38981 2.49613 3.2106L7.49613 0.293936C7.80749 0.112308 8.19251 0.112308 8.50387 0.293936L11.9745 2.31844ZM3.86353 10.4294L3 9.92564L3 4.07438L8 1.15771L11.2433 3.04962L3.86353 10.4294Z" fill="#6C707E"/>
<path d="M11 12.25V11.0923L8 12.8423L5.64989 11.4714L4.91871 12.2026L7.49613 13.7061C7.80749 13.8877 8.19251 13.8877 8.50387 13.7061L11 12.25Z" fill="#6C707E"/>
<path d="M14 7H13V4.1213L13.7302 3.39111C13.9012 3.57385 14 3.81711 14 4.07438V7Z" fill="#6C707E"/>
<path d="M9.5 9H12V15H13V9H15.5V8H9.5V9Z" fill="#6C707E"/>
</svg>
