<svg width="16" height="16" viewBox="0 0 16 16" fill="none" xmlns="http://www.w3.org/2000/svg">
<path d="M7.49613 13.7061L2.49613 10.7894C2.18891 10.6102 2 10.2813 2 9.92564V4.07438C2 3.71871 2.18891 3.38981 2.49613 3.2106L7.49613 0.293936C7.80749 0.112308 8.19251 0.112308 8.50387 0.293936L13.5039 3.2106C13.8111 3.38981 14 3.71871 14 4.07438V7H8.5V10H11V12.25L8.50387 13.7061C8.19251 13.8877 7.80749 13.8877 7.49613 13.7061Z" fill="#43454A"/>
<path d="M11 12.25L8.50387 13.7061C8.19251 13.8877 7.80749 13.8877 7.49613 13.7061L2.49613 10.7894C2.18891 10.6102 2 10.2813 2 9.92564V4.07438C2 3.71871 2.18891 3.38981 2.49613 3.2106L7.49613 0.293936C7.80749 0.112308 8.19251 0.112308 8.50387 0.293936L13.5039 3.2106C13.8111 3.38981 14 3.71871 14 4.07438V7H13V4.07438L8 1.15771L3 4.07438L3 9.92564L8 12.8423L11 11.0923V12.25Z" fill="#CED0D6"/>
<path fill-rule="evenodd" clip-rule="evenodd" d="M12 9H9.5V8H15.5V9H13V15H12V9Z" fill="#CED0D6"/>
</svg>
