<svg width="16" height="16" viewBox="0 0 16 16" fill="none" xmlns="http://www.w3.org/2000/svg">
  <!-- Original Hot Reload paths -->
  <path d="M8.69727 0.0169841C8.84168 0.0546167 8.9625 0.154106 9.02539 0.289445L9.0332 0.306047C9.03945 0.31903 9.04911 0.339823 9.0625 0.366594C9.0895 0.42059 9.13125 0.501836 9.1875 0.605851C9.30047 0.814715 9.47272 1.11689 9.70605 1.47987C10.1736 2.2072 10.8844 3.1778 11.8535 4.14687C12.6194 4.91275 13.1685 5.58798 13.5176 6.35585C13.8393 7.06375 13.9741 7.81611 13.9951 8.73671L12.9531 8.08632C12.8959 7.5787 12.7843 7.15917 12.6074 6.76991C12.3315 6.16299 11.8803 5.58776 11.1465 4.8539C10.1159 3.82331 9.36194 2.79348 8.86523 2.02089C8.67641 1.72716 8.52655 1.46802 8.41016 1.26112C6.78055 2.61846 6 4.35139 6 6.50038C5.99981 6.71541 5.86223 6.90698 5.6582 6.97499C5.45418 7.04293 5.22874 6.97211 5.09961 6.80019L4.07031 5.42714C3.96053 5.64586 3.83431 5.90749 3.70996 6.19765C3.34196 7.0564 3 8.10492 3 9.00038C3.00016 10.7373 3.89641 11.9873 4.83301 12.8236C5.2574 13.2025 5.68461 13.4883 6.02344 13.6889C6.1107 12.1455 6.44726 11.2374 6.84961 10.7006C7.08741 10.3835 7.34272 10.2036 7.5625 10.1059C7.67059 10.0578 7.7663 10.0314 7.8418 10.017C7.87929 10.0098 7.91196 10.0057 7.93848 10.0033C7.95177 10.0021 7.9644 10.0018 7.97461 10.0014C7.97955 10.0011 7.9841 10.0005 7.98828 10.0004H7.99902L8 10.2562V11.0092C7.99133 11.0121 7.98045 11.0147 7.96875 11.0199C7.9073 11.0473 7.78731 11.1177 7.65039 11.3002C7.36894 11.6756 7 12.549 7 14.5004C6.99985 14.6669 6.91664 14.8227 6.77832 14.9154C6.63991 15.0081 6.46368 15.0265 6.30957 14.9633L6.30762 14.9623C6.30668 14.9619 6.3051 14.9609 6.30371 14.9603C6.30085 14.9591 6.29655 14.9574 6.29199 14.9555C6.28244 14.9514 6.26937 14.9452 6.25293 14.9379C6.21939 14.923 6.1715 14.9018 6.1123 14.8734C5.99346 14.8164 5.82594 14.7313 5.62695 14.6176C5.22985 14.3907 4.69923 14.0449 4.16699 13.5697C3.10379 12.6204 2.00016 11.12 2 9.00038C2 7.89618 2.40816 6.69423 2.79004 5.80312C2.984 5.35054 3.1788 4.96257 3.32422 4.68788C3.39681 4.55079 3.45786 4.44061 3.50098 4.36464C3.52237 4.32695 3.5398 4.29721 3.55176 4.27675C3.55762 4.26672 3.56213 4.25795 3.56543 4.25234C3.56681 4.25001 3.56842 4.24793 3.56934 4.24648L3.57031 4.24452L3.57129 4.24355C3.65694 4.1008 3.80836 4.00994 3.97461 4.00136C4.11996 3.99396 4.25971 4.05037 4.35938 4.1537L4.40039 4.20058L5.10352 5.1371C5.41822 3.09765 6.46603 1.40753 8.27832 0.0951091C8.39923 0.00766307 8.55285 -0.0206096 8.69727 0.0169841Z" fill="#DB3B4B"/>
  <!-- Amper overlay: scaled 0.25×, positioned at (12,12) -->
  <g transform="translate(1.9 2.7) scale(0.88)">
    <path fill-rule="evenodd" clip-rule="evenodd"
          d="M2 14H14V2H11L2 14ZM7 11H11V7H10L7 11Z"
          fill="url(#amperGrad)"/>
  </g>

  <!-- Shared gradient definition -->
  <defs>
    <linearGradient id="amperGrad"
                    x1="4.74773" y1="4.75073"
                    x2="14.5157" y2="14.5144"
                    gradientUnits="userSpaceOnUse">
      <stop offset="0.21217" stop-color="#3BEA62"/>
      <stop offset="0.75254" stop-color="#087CFA"/>
    </linearGradient>
  </defs>
</svg>