<svg width="16" height="16" viewBox="0 0 16 16" xmlns="http://www.w3.org/2000/svg">
  <path fill="#DB5C5C" d="m4.075 7.333 1.78-2.636A1.09 1.09 0 0 0 4.953 3h-.018c-.35 0-.677.174-.873.465L2.763 5.389l1.312 1.944Z"/>
  <path fill="#3574F0" d="m1 8 3.051 4.521a1.088 1.088 0 0 0 1.804-1.218L2.313 6.055 1.001 7.999 1 8Z"/>
  <path fill="#F2C55C" d="m11.925 8.667-1.78 2.636A1.09 1.09 0 0 0 11.047 13h.018c.35 0 .677-.174.873-.465l1.299-1.924-1.312-1.944Z"/>
  <path fill="#5FAD65" d="m15 8-3.051-4.521a1.089 1.089 0 0 0-1.804 1.218l3.542 5.248 1.312-1.944L15 8Z"/>
</svg>
