<svg width="16" height="16" viewBox="0 0 16 16" xmlns="http://www.w3.org/2000/svg">
  <path fill="#CED0D6" fill-rule="evenodd" d="M8.37 10.285 5.716 7.629l-3.67 1.102a6.003 6.003 0 0 0 5.224 5.225l1.102-3.671M8 15l1.5-5L6 6.5 1 8a7 7 0 0 0 7 7m6.854-13.854a.5.5 0 0 1 0 .708l-4.5 4.5a.5.5 0 0 1-.708-.708l4.5-4.5a.5.5 0 0 1 .708 0" clip-rule="evenodd"/>
  <path fill="#CED0D6" fill-rule="evenodd" d="M9.398 6.606a1.472 1.472 0 0 0-2.082 0l-.105.105-.707-.707.105-.106a2.472 2.472 0 1 1 3.496 3.497L10 9.5l-.707-.707.105-.106a1.472 1.472 0 0 0 0-2.081" clip-rule="evenodd"/>
</svg>
