<!-- Copyright © 2000–2024 JetBrains s.r.o. -->
<svg width="32" height="32" viewBox="0 0 32 32" xmlns="http://www.w3.org/2000/svg">
  <defs>
    <linearGradient id="a" x1="4416.81" x2="4429.2" y1="-5178.83" y2="-5205.56" gradientTransform="matrix(1 0 0 -1 -4417 -5175)" gradientUnits="userSpaceOnUse">
      <stop offset=".18" stop-color="#6b57ff"/>
      <stop offset=".54" stop-color="#ff2358"/>
    </linearGradient>
    <linearGradient id="b" x1="4419.15" x2="4448.46" y1="-5204.97" y2="-5175.67" gradientTransform="matrix(1 0 0 -1 -4417 -5175)" gradientUnits="userSpaceOnUse">
      <stop offset=".12" stop-color="#ff2358"/>
      <stop offset=".92" stop-color="#ff45ed"/>
    </linearGradient>
  </defs>
  <path fill="#6b57ff" d="M8.23 3H2.09C.95 3 .01 3.94.03 5.09l.09 5.52c0 .59.27 1.15.72 1.54L19.92 28.5c.38.32.85.49 1.34.49h5.68c1.14 0 2.06-.93 2.06-2.06v-5.5c0-.6-.25-1.16-.71-1.55L9.58 3.51C9.2 3.18 8.72 3 8.22 3Z"/>
  <path fill="url(#a)" d="M7.5 3H2.06C.92 3 0 3.93 0 5.06v6.28c0 .1 0 .2.02.3l2.73 18.59A2.065 2.065 0 0 0 4.79 32h7.7c1.14 0 2.06-.93 2.06-2.06v-9.25c0-.22-.04-.43-.1-.62L9.46 4.45A2.06 2.06 0 0 0 7.5 3.01Z"/>
  <path fill="url(#b)" d="M29.94 0H12.88c-.83 0-1.58.49-1.9 1.26L3.07 19.97c-.11.26-.13.54-.12.82v9.16c0 1.13.97 2.05 2.1 2.05h8.83c.4 0 .79-.12 1.13-.34L31.07 21.1c.58-.38.93-1.03.93-1.72V2.06C32 .92 31.07 0 29.94 0"/>
  <path d="M26 6H6v20h20z"/>
  <path fill="#fff" d="M16 22H8v2h8z"/>
  <path fill="#fff" fill-rule="evenodd" d="M11.12 14.41c.36 0 .69-.06.98-.17s.55-.28.76-.49.37-.47.49-.75.18-.61.18-.97v-.02c0-.35-.06-.67-.18-.97s-.28-.55-.49-.77-.46-.38-.76-.5-.62-.18-.98-.18H9.76v4.82zM8 8h3.12c.62 0 1.2.1 1.72.3q.78.3 1.35.84t.87 1.26c.3.72.31 1.01.31 1.57v.02a3.88 3.88 0 0 1-1.18 2.85c-.37.36-.83.64-1.35.85s-1.1.31-1.72.31H8zm10.16 1.67h-2.37V8h6.42v1.67h-2.37V16h-1.67V9.67Z"/>
</svg>
