<!-- Copyright © 2000–2024 JetBrains s.r.o. -->
<svg width="16" height="16" viewBox="0 0 16 16" xmlns="http://www.w3.org/2000/svg">
  <defs>
    <linearGradient id="a" x1="4416.9" x2="4423.1" y1="-5096.92" y2="-5110.28" gradientTransform="matrix(1 0 0 -1 -4417 -5095)" gradientUnits="userSpaceOnUse">
      <stop offset=".18" stop-color="#6b57ff"/>
      <stop offset=".54" stop-color="#ff2358"/>
    </linearGradient>
    <linearGradient id="b" x1="4418.08" x2="4432.73" y1="-5109.99" y2="-5095.33" gradientTransform="matrix(1 0 0 -1 -4417 -5095)" gradientUnits="userSpaceOnUse">
      <stop offset=".12" stop-color="#ff2358"/>
      <stop offset=".92" stop-color="#ff45ed"/>
    </linearGradient>
  </defs>
  <path fill="#6b57ff" d="M4.11 1.5H1.05C.47 1.5 0 1.97.02 2.55l.04 2.76c0 .29.14.58.36.77l9.54 8.18c.19.16.43.25.67.25h2.84c.57 0 1.03-.46 1.03-1.03v-2.75c0-.3-.13-.58-.35-.78L4.79 1.76c-.19-.16-.43-.26-.68-.26"/>
  <path fill="url(#a)" d="M3.75 1.5H1.03C.46 1.5 0 1.96 0 2.53v3.14s0 .1.01.15l1.36 9.29c.07.51.51.88 1.02.88h3.85c.57 0 1.03-.46 1.03-1.03v-4.62c0-.11-.02-.21-.05-.31L4.73 2.22c-.14-.43-.54-.72-.98-.72"/>
  <path fill="url(#b)" d="M14.97 0H6.44c-.42 0-.79.25-.95.63L1.54 9.98c-.05.13-.06.27-.06.41v4.58c0 .57.48 1.02 1.05 1.02h4.42c.2 0 .4-.06.56-.17l8.03-5.28c.29-.19.46-.52.46-.86V1.03C16 .46 15.54 0 14.97 0"/>
  <path d="M13 3H3v10h10z"/>
  <path fill="#fff" d="M8 11H4v1h4zm3.13-7v.87H9.97V8h-.94V4.87H7.87V4zm-3.86.97c-.16-.3-.41-.55-.7-.72-.3-.17-.65-.25-1.02-.25H4v4h1.55c.37 0 .72-.08 1.02-.25.29-.17.54-.42.7-.72.17-.3.25-.65.25-1.02s-.08-.73-.25-1.03Zm-.83 1.65c-.09.17-.2.3-.35.39s-.33.14-.55.14h-.6V4.83h.6c.21 0 .39.05.55.14.15.09.26.22.35.39.08.17.12.37.12.63 0 .23-.04.45-.12.62Z"/>
</svg>
