<svg width="16" height="16" viewBox="0 0 16 16" xmlns="http://www.w3.org/2000/svg">
  <path fill="#FAF2FF" d="M2.5 4.98 8 1.95l5.5 3.03v6.04L8 14.05l-5.5-3.03z"/>
  <path fill="#B153E0" fill-rule="evenodd" d="M7.759 1.512a.5.5 0 0 1 .482 0l5.5 3.03A.5.5 0 0 1 14 4.98v6.04a.5.5 0 0 1-.259.438l-5.5 3.03a.5.5 0 0 1-.482 0l-5.5-3.03A.5.5 0 0 1 2 11.02V4.98a.5.5 0 0 1 .259-.438l5.5-3.03ZM3 5.275v5.45l5 2.754 5-2.754v-5.45L8 2.521z" clip-rule="evenodd"/>
  <path fill="#B153E0" fill-rule="evenodd" d="M2.062 4.74a.5.5 0 0 1 .679-.198L8 7.43l5.26-2.888a.5.5 0 1 1 .48.876l-5.5 3.02a.5.5 0 0 1-.48 0l-5.5-3.02a.5.5 0 0 1-.198-.679" clip-rule="evenodd"/>
</svg>
