<svg width="16" height="16" viewBox="0 0 16 16" xmlns="http://www.w3.org/2000/svg">
  <path fill="#6f6f6f" d="M6 1h4v1H6zm1.25 4.5h1.5V9h-1.5z"/>
  <path fill="#6f6f6f" d="m13.53 4.03-1.06-1.06-1.15 1.15A5.497 5.497 0 0 0 2.5 8.5c0 .08 0 .15.01.23l.49.39V8a1.004 1.004 0 0 1 1-1c.1 0 .19.02.28.05A4 4 0 0 1 8 4.5c2.21 0 4 1.79 4 4 0 1.48-.82 2.76-2.01 3.45 0 .02.01.03.01.05a1 1 0 0 1-.38.78L8.1 13.99a5.492 5.492 0 0 0 5.39-5.49c0-1.25-.42-2.4-1.12-3.32l1.15-1.15Z"/>
  <path fill="#59a869" fill-rule="evenodd" d="m9 12-5 4v-1.92l1.62-1.3c.24-.19.38-.48.38-.78s-.14-.59-.38-.78L4 9.92V8zm-4 0-5 4V8z"/>
</svg>
