<!-- Copyright © 2000–2024 JetBrains s.r.o. -->
<svg width="16.001" height="16" viewBox="0 0 16.001 16" xmlns="http://www.w3.org/2000/svg">
  <path fill="#252525" d="M13.485 14a1.83 1.83 0 0 1-1.378-.63L6.817 7.2a1.83 1.83 0 0 1-.091-2.472 1.56 1.56 0 0 1 1.114-.442c.505.01.99.2 1.368.537l6.158 5.338a1.823 1.823 0 0 1 .1 2.678l-.712.651a1.8 1.8 0 0 1-1.264.51Zm0 0"/>
  <path fill="#C4C4C4" d="M8.55 5.576a.86.86 0 0 0-1.115-.14.86.86 0 0 0 .141 1.114l5.285 6.162a.82.82 0 0 0 1.214.039l.677-.617a.825.825 0 0 0-.041-1.217Zm0 0"/>
  <path fill="#252525" d="m7.078 7.96 3.46-3.46-1.379-1.379A1.6 1.6 0 0 1 10 2.875a2.06 2.06 0 0 0 1.976-1.655L12 1.111V0H9.124a4.16 4.16 0 0 0-3.332 1.168L3.039 3.921l.448.447L2 4.388v2.276L4.334 9h2.278l.019-1.486Zm0 0"/>
  <path fill="#C4C4C4" d="M9.124 1a3.21 3.21 0 0 0-2.624.875L4.453 3.921l.813.813-.62.62L3 5.375v.875L4.749 8h.876l.021-1.646.62-.62.812.812L9.124 4.5l-1.4-1.4A2.93 2.93 0 0 1 10 1.875c.8 0 1-.875 1-.875Zm0 0"/>
  <path fill="#252525" d="m6.276 8-.733 1.515L2.641 5H0v1.294l1.788 2.781L0 12.771V14h2.724l.958-1.979.37.576L3 14.771V16h2.724L9 9.229V8z"/>
  <path fill="#E05865" d="m6.903 9-1.237 2.556L2.095 6H1l1.932 3.006L1 13h1.097l1.461-3.02 1.638 2.548L4 15h1.097L8 9z"/>
</svg>
