<!-- Copyright © 2000–2024 JetBrains s.r.o. -->
<svg width="16" height="16" viewBox="0 0 16 16" xmlns="http://www.w3.org/2000/svg">
  <path fill="#DB5E00" fill-rule="evenodd" d="M8 12c0 3.71-.29 4-4 4s-4-.29-4-4 .29-4 4-4 4 .29 4 4" opacity=".7"/>
  <path fill="#1f2023" d="M6.58 10.55a.5.5 0 0 0-.67.23l-.82 1.66-2.36-3.75a.504.504 0 0 0-.69-.16c-.23.15-.3.46-.16.69l1.01 1.6-1.33 2.44c-.13.24-.04.55.2.68q.12.06.24.06c.18 0 .35-.09.44-.26l1.06-1.95 1.07 1.7-.64 1.29a.5.5 0 1 0 .9.44l1.98-4a.5.5 0 0 0-.23-.67"/>
  <path fill="#afb1b3" fill-rule="evenodd" d="M14.66 12.57 7.47 6.34c-.16-.14-.35-.23-.53-.28L8 5 6.4 3.4C6.86 2.81 7.73 2 9 2c.92 0 1-1 1-1H8C7 1 6 1 5 2L2.5 4.5 3 5v1H1v1l1.07 1.07C2.58 8.01 3.21 8 4 8V7h1l.5.5.56-.56c.05.18.14.37.28.53l.81.94c.24.15.41.35.53.62l4.82 5.63c.19.22.46.34.73.34.25 0 .49-.1.69-.29l.79-.72c.19-.19.29-.44.29-.69 0-.27-.11-.53-.34-.73"/>
</svg>
