<svg width="16" height="16" viewBox="0 0 16 16" xmlns="http://www.w3.org/2000/svg">
  <path fill="#afb1b3" d="M11 12.042V11H6v1.458l5-.416zm-4.813 1.401a2.497 2.497 0 0 0 4.749-.396l-4.749.396Zm-.958-6.769A3.447 3.447 0 0 1 5 5.5C5 3.57 6.57 2 8.5 2c1.293 0 2.412.713 3.018 1.76l.906-.42C11.658 1.952 10.197 1 8.5 1A4.5 4.5 0 0 0 4 5.5c0 .566.107 1.107.299 1.606l.931-.431Zm9.981-2.42-.42-.908-12.3 5.7.42.908 2.528-1.172c.175.166.36.323.562.458V10h1V8.707l-.443-.298c-.041-.027-.071-.065-.109-.094l5.521-2.559a3.484 3.484 0 0 1-1.525 2.653l-.443.298V10h1v-.76c1.205-.807 2-2.18 2-3.74 0-.073-.016-.141-.021-.212l2.231-1.034Z"/>
  <path fill="#6e6e6e" d="M5.229 6.674A3.447 3.447 0 0 1 5 5.5C5 3.57 6.57 2 8.5 2c1.293 0 2.412.713 3.018 1.76l.906-.42C11.658 1.952 10.197 1 8.5 1A4.5 4.5 0 0 0 4 5.5c0 .566.107 1.107.299 1.606l.931-.431Zm9.981-2.42-.42-.908-12.3 5.7.42.908 2.528-1.172c.175.166.36.323.562.458V10h1V8.707l-.443-.298c-.041-.027-.071-.065-.109-.094l5.521-2.559a3.484 3.484 0 0 1-1.525 2.653l-.443.298V10h1v-.76c1.205-.807 2-2.18 2-3.74 0-.073-.016-.141-.021-.212l2.231-1.034Z"/>
  <path fill="#afb1b3" d="M11 12.042V11H6v1.458l5-.416zm-4.813 1.401a2.497 2.497 0 0 0 4.749-.396l-4.749.396Zm-.958-6.769A3.447 3.447 0 0 1 5 5.5C5 3.57 6.57 2 8.5 2c1.293 0 2.412.713 3.018 1.76l.906-.42C11.658 1.952 10.197 1 8.5 1A4.5 4.5 0 0 0 4 5.5c0 .566.107 1.107.299 1.606l.931-.431Zm9.981-2.42-.42-.908-12.3 5.7.42.908 2.528-1.172c.175.166.36.323.562.458V10h1V8.707l-.443-.298c-.041-.027-.071-.065-.109-.094l5.521-2.559a3.484 3.484 0 0 1-1.525 2.653l-.443.298V10h1v-.76c1.205-.807 2-2.18 2-3.74 0-.073-.016-.141-.021-.212l2.231-1.034Z"/>
</svg>
