<svg width="16" height="16" viewBox="0 0 16 16" xmlns="http://www.w3.org/2000/svg">
  <path fill="#afb1b3" d="M7.831 1.818 7.652.836A4.715 4.715 0 0 0 5.8 1.6l.569.821c.43-.299.926-.506 1.462-.603Zm-2.41 1.551L4.6 2.8a4.715 4.715 0 0 0-.764 1.852l.982.179a3.718 3.718 0 0 1 .603-1.462Zm0 4.263a3.725 3.725 0 0 1-.603-1.462l-.982.178c.123.678.385 1.307.764 1.852m8.564-3.548A4.715 4.715 0 0 0 12.4 2.8l-.821.569c.299.431.506.926.603 1.462m.982 1.517-.982-.178a3.725 3.725 0 0 1-.603 1.462l.821.568a4.709 4.709 0 0 0 .764-1.852Zm-2.532-3.927a3.725 3.725 0 0 0-1.462-.603l.178-.982A4.715 4.715 0 0 1 11.2 1.6l-.568.821ZM6 12v.5c0 .171.018.338.05.5h4.9c.032-.162.05-.329.05-.5V12m-4.489 2c.457.604 1.174 1 1.989 1s1.532-.396 1.989-1H6.511ZM11.2 9.4l-.568-.821C9.857 9.096 9.878 10 9.878 10H9V6.408c.581-.207 1-.757 1-1.408H9c0 .275-.225.5-.5.5S8 5.275 8 5H7c0 .651.419 1.201 1 1.408V10h-.878s.021-.904-.753-1.421L5.8 9.4c.237.166.2.6.2.6v1h5v-1s-.037-.434.2-.6Z"/>
</svg>
