<!-- Copyright © 2000–2024 JetBrains s.r.o. -->
<svg width="16" height="17" viewBox="0 0 16 17" xmlns="http://www.w3.org/2000/svg">
  <path fill="#EBECF0" fill-rule="evenodd" d="M8.91 10.02c.07.56.09 1.22.09 2 0 1.01-.04 1.82-.17 2.47.94-.16 1.67-.98 1.67-1.97v-2.5z" clip-rule="evenodd"/>
  <path fill="#FFF7F7" fill-rule="evenodd" d="M8.5 1.52C6.01 1.52 4 3.53 4 6.02c0 .35.05.68.12 1 3.38.01 4.49.54 4.79 3.02h1.6A4.51 4.51 0 0 0 13 6.01c0-2.49-2.01-4.5-4.5-4.5z" clip-rule="evenodd"/>
  <path fill="none" stroke="#6C707E" stroke-linecap="round" stroke-linejoin="round" d="M9.36 14.33c.67-.32 1.14-1.01 1.14-1.8v-2m-1.03.25.53-.13m-.5 1.87.5-.12"/>
  <path fill="none" stroke="#DB3B4B" stroke-linecap="round" stroke-linejoin="round" d="M4.03 6.52a4.494 4.494 0 0 1 4.47-5c2.49 0 4.5 2.01 4.5 4.5 0 1.76-1.01 3.29-2.49 4.03"/>
  <path fill="none" stroke="#DB3B4B" stroke-linecap="round" stroke-miterlimit="10" d="M9.5 6.52c0 .55-.45 1-1 1s-1-.45-1-1m1 1v.5"/>
  <path fill="none" stroke="#DB3B4B" stroke-linecap="round" stroke-linejoin="round" d="M6 6.02a2.5 2.5 0 0 1 5 0"/>
  <path fill="#E66D17" fill-rule="evenodd" d="M8 12.02c0 3.71-.29 4-4 4s-4-.29-4-4 .29-4 4-4 4 .29 4 4" clip-rule="evenodd"/>
  <path fill="none" stroke="#fff" stroke-linecap="round" stroke-miterlimit="10" d="m2 13.52 1.44-2.63m.94 4.13 1.98-4M2.31 8.97l2.8 4.46"/>
</svg>
