<!-- Copyright © 2000–2024 JetBrains s.r.o. -->
<svg width="16" height="16.02" viewBox="0 0 16 16.02" xmlns="http://www.w3.org/2000/svg">
  <path fill="#f0a732" fill-rule="evenodd" d="M8 10.02V6.43c-.58-.21-1-.76-1-1.41h1c0 .28.22.5.5.5s.5-.22.5-.5h1c0 .65-.42 1.2-1 1.41v3.59z"/>
  <path fill="#DB5E00" fill-rule="evenodd" d="M8 12.02c0 3.71-.29 4-4 4s-4-.29-4-4 .29-4 4-4 4 .29 4 4" opacity=".7"/>
  <path fill="#1f2023" d="M6.58 10.57a.5.5 0 0 0-.67.23l-.82 1.66-2.36-3.75a.504.504 0 0 0-.69-.16c-.23.15-.3.46-.16.69l1.01 1.6-1.33 2.44c-.13.24-.04.55.2.68q.12.06.24.06c.18 0 .35-.09.44-.26l1.06-1.95 1.07 1.7-.64 1.29a.5.5 0 1 0 .9.44l1.98-4a.5.5 0 0 0-.23-.67"/>
  <path fill="#f0a732" fill-rule="evenodd" d="M8.5 1.02C6.02 1.02 4 3.04 4 5.52c0 .93.29 1.79.77 2.51.57.01 1.05.04 1.44.1C5.46 7.47 5 6.54 5 5.52c0-1.93 1.57-3.5 3.5-3.5S12 3.59 12 5.52c0 1.17-.58 2.26-1.56 2.91l-.44.3v1.29h1v-.76c1.21-.81 2-2.18 2-3.74 0-2.48-2.02-4.5-4.5-4.5"/>
  <path fill="#afb1b3" d="M7.72 14.89c.25.08.51.13.78.13 1.19 0 2.19-.84 2.44-1.95l-2.96.25c-.03.68-.1 1.2-.26 1.58Zm.27-3.87c0 .3.01.63.01 1v.29l3-.25v-1.04z"/>
</svg>
