<!-- Copyright © 2000–2024 JetBrains s.r.o. -->
<svg width="16" height="16" viewBox="0 0 16 16" xmlns="http://www.w3.org/2000/svg">
  <path fill="#252525" d="M7 8.5v3a3.501 3.501 0 0 0 7 0v-3Zm0 0"/>
  <path fill="#252525" d="M7.344 10h6.312a5.501 5.501 0 0 0-1.21-9.649 5.501 5.501 0 0 0-7.293 6.434A5.5 5.5 0 0 0 7.344 10m0 0"/>
  <path fill="#C4C4C4" d="M8 9v2.5a2.5 2.5 0 0 0 5 0V9Zm0 0"/>
  <path fill="#C4C4C4" d="M15 5.5a4.5 4.5 0 1 0-7 3.74V10h5v-.76a4.5 4.5 0 0 0 2-3.74m0 0"/>
  <path fill="#FFCA01" d="M14 5.5a3.5 3.5 0 1 1-7 0 3.5 3.5 0 0 1 7 0"/>
  <path fill="#292929" d="M12 4.5 10.5 6 9 4.5l-.5.5L10 7v1.5h1V7l1.5-2z"/>
  <path fill="#252525" d="m6.276 8-.733 1.515L2.641 5H0v1.294l1.788 2.781L0 12.771V14h2.724l.958-1.979.37.576L3 14.771V16h2.724L9 9.229V8z"/>
  <path fill="#E05865" d="m6.903 9-1.237 2.556L2.095 6H1l1.932 3.006L1 13h1.097l1.461-3.02 1.638 2.548L4 15h1.097L8 9z"/>
</svg>
