<svg width="16" height="16" viewBox="0 0 16 16" xmlns="http://www.w3.org/2000/svg">
  <path fill="#6e6e6e" d="M11 12.042V11H6v1.458l5-.416zm-4.813 1.401a2.497 2.497 0 0 0 4.749-.396l-4.749.396Z"/>
  <path fill="#eda200" d="M8.5 1A4.5 4.5 0 0 0 6 9.24V10h1V8.707l-.443-.298A3.496 3.496 0 0 1 5 5.5C5 3.57 6.57 2 8.5 2S12 3.57 12 5.5a3.496 3.496 0 0 1-1.557 2.909L10 8.707V10h1v-.76A4.5 4.5 0 0 0 8.5 1Z"/>
  <path fill="#eda200" d="M8 10V6.408C7.419 6.201 7 5.651 7 5h1c0 .275.225.5.5.5S9 5.275 9 5h1c0 .651-.419 1.201-1 1.408V10H8Z"/>
</svg>
