<svg xmlns="http://www.w3.org/2000/svg" width="16" height="16">
  <path fill="#f4f4f4" d="M4.586 0 1 3.586 1 8 1.914 8 5 4.914 8.086 8 9 8 9 3.586 5.414 0 4.586 0z"/>
  <path fill="#00539c" d="M5 1 2 4 2 6.5 5 3.5 8 6.5 8 4 5 1z"/>
  <path fill="#f4f4f4" d="M16 8.787 14.213 7 13.384 7 11.5 8.884 9.616 7 8.787 7 7 8.787 7 9.616 8.884 11.5 7 13.384 7 14.213 8.787 16 9.616 16 11.5 14.116 13.384 16 14.213 16 16 14.213 16 13.384 14.116 11.5 16 9.616 16 8.787z"/>
  <path fill="#323232" d="M15 9.202 13.798 8 11.5 10.298 9.202 8 8 9.202 10.298 11.5 8 13.798 9.202 15 11.5 12.702 13.798 15 15 13.798 12.702 11.5 15 9.202z"/>
</svg>
