<svg xmlns="http://www.w3.org/2000/svg" width="16" height="16">
  <defs>
    <linearGradient id="a" x1="5" x2="5" y2="8" gradientUnits="userSpaceOnUse">
      <stop offset="0" stop-color="#541900"/>
      <stop offset="1" stop-color="#72490c"/>
    </linearGradient>
    <linearGradient id="b" x1="5" y1="1" x2="5" y2="6.5" gradientUnits="userSpaceOnUse">
      <stop offset="0" stop-color="#ffe38b"/>
      <stop offset="1" stop-color="orange"/>
    </linearGradient>
    <linearGradient id="c" x1="11.5" y1="7" x2="11.5" y2="16" gradientUnits="userSpaceOnUse">
      <stop offset="0" stop-color="#8b0031"/>
      <stop offset="1" stop-color="#450021"/>
    </linearGradient>
    <linearGradient id="d" x1="11.5" y1="8" x2="11.5" y2="15" gradientUnits="userSpaceOnUse">
      <stop offset="0" stop-color="#ffa763"/>
      <stop offset="1" stop-color="#ff1900"/>
    </linearGradient>
  </defs>
  <path fill="url(#a)" d="M4.586 0 1 3.586 1 8 1.914 8 5 4.914 8.086 8 9 8 9 3.586 5.414 0 4.586 0z"/>
  <path fill="url(#b)" d="M5 1 2 4 2 6.5 5 3.5 8 6.5 8 4 5 1z"/>
  <path fill="url(#c)" d="M16 8.787 14.213 7 13.384 7 11.5 8.884 9.616 7 8.787 7 7 8.787 7 9.616 8.884 11.5 7 13.384 7 14.213 8.787 16 9.616 16 11.5 14.116 13.384 16 14.213 16 16 14.213 16 13.384 14.116 11.5 16 9.616 16 8.787z"/>
  <path fill="url(#d)" d="M15 9.202 13.798 8 11.5 10.298 9.202 8 8 9.202 10.298 11.5 8 13.798 9.202 15 11.5 12.702 13.798 15 15 13.798 12.702 11.5 15 9.202z"/>
</svg>
