<svg xmlns="http://www.w3.org/2000/svg" xmlns:xlink="http://www.w3.org/1999/xlink" width="16" height="16">
  <defs>
    <linearGradient id="c" x1="5" x2="5" y2="8" gradientUnits="userSpaceOnUse">
      <stop offset="0" stop-color="#541900"/>
      <stop offset="1" stop-color="#72490c"/>
    </linearGradient>
    <linearGradient id="d" x1="5" y1="1" x2="5" y2="6.5" gradientUnits="userSpaceOnUse">
      <stop offset="0" stop-color="#ffe38b"/>
      <stop offset="1" stop-color="orange"/>
    </linearGradient>
    <linearGradient id="a" x1="8" y1="16" x2="8" y2="7" gradientUnits="userSpaceOnUse">
      <stop offset="0" stop-color="#145400"/>
      <stop offset="1" stop-color="#24720c"/>
    </linearGradient>
    <linearGradient id="b" x1="8" y1="8" x2="8" y2="15" gradientUnits="userSpaceOnUse">
      <stop offset="0" stop-color="#7dff54"/>
      <stop offset="1" stop-color="#88d072"/>
    </linearGradient>
    <linearGradient id="e" x1="12.5" y1="15" x2="12.5" y2="8" xlink:href="#a"/>
    <linearGradient id="f" x1="12.5" y1="9" x2="12.5" y2="14" xlink:href="#b"/>
  </defs>
  <path fill="url(#c)" d="M4.586 0 1 3.586 1 8 1.914 8 5 4.914 8.086 8 9 8 9 3.586 5.414 0 4.586 0z"/>
  <path fill="url(#d)" d="M5 1 2 4 2 6.5 5 3.5 8 6.5 8 4 5 1z"/>
  <path fill="url(#a)" d="M6 7H10V16H6z"/>
  <path fill="url(#b)" d="M7 8H9V15H7z"/>
  <path fill="url(#e)" d="M11 15 11 13 9 13 9 10 11 10 11 8 14 8 14 10 16 10 16 13 14 13 14 15 11 15z"/>
  <path fill="url(#f)" d="M15 11 13 11 13 9 12 9 12 11 10 11 10 12 12 12 12 14 13 14 13 12 15 12 15 11z"/>
</svg>
