<svg xmlns="http://www.w3.org/2000/svg" width="16" height="16">
  <defs>
    <linearGradient id="a" x1="5" x2="5" y2="8" gradientUnits="userSpaceOnUse">
      <stop offset="0" stop-color="#541900"/>
      <stop offset="1" stop-color="#72490c"/>
    </linearGradient>
    <linearGradient id="b" x1="5" y1="1" x2="5" y2="6.5" gradientUnits="userSpaceOnUse">
      <stop offset="0" stop-color="#ffe38b"/>
      <stop offset="1" stop-color="orange"/>
    </linearGradient>
    <linearGradient id="c" x1="5" y1="16" x2="5" y2="7" gradientUnits="userSpaceOnUse">
      <stop offset="0" stop-color="#145400"/>
      <stop offset="1" stop-color="#24720c"/>
    </linearGradient>
    <linearGradient id="d" x1="5" y1="8" x2="5" y2="15" gradientUnits="userSpaceOnUse">
      <stop offset="0" stop-color="#7dff54"/>
      <stop offset="1" stop-color="#88d072"/>
    </linearGradient>
    <linearGradient id="e" x1="11.5" y1="7.155" x2="11.5" y2="16.124" gradientUnits="userSpaceOnUse">
      <stop offset="0" stop-color="#37627d"/>
      <stop offset="1" stop-color="#0e3852"/>
    </linearGradient>
    <linearGradient id="f" x1="11.5" y1="8.121" x2="11.5" y2="15.096" gradientUnits="userSpaceOnUse">
      <stop offset="0" stop-color="#b7f3ff"/>
      <stop offset="1" stop-color="#61c2ff"/>
    </linearGradient>
    <linearGradient id="g" x1="11.5" y1="9.81" x2="11.5" y2="13.298" gradientUnits="userSpaceOnUse">
      <stop offset="0" stop-color="#0e3852"/>
      <stop offset="1" stop-color="#37627d"/>
    </linearGradient>
  </defs>
  <path fill="url(#a)" d="M4.586 0 1 3.586 1 8 1.914 8 5 4.914 8.086 8 9 8 9 3.586 5.414 0 4.586 0z"/>
  <path fill="url(#b)" d="M5 1 2 4 2 6.5 5 3.5 8 6.5 8 4 5 1z"/>
  <path fill="url(#c)" d="M3 7H7V16H3z"/>
  <path fill="url(#d)" d="M4 8H6V15H4z"/>
  <g>
    <circle cx="11.5" cy="11.5" r="4.5" fill="url(#e)"/>
    <circle cx="11.5" cy="11.5" r="3.5" fill="url(#f)"/>
    <circle cx="11.5" cy="11.5" r="1.75" fill="url(#g)"/>
  </g>
</svg>
