<svg xmlns="http://www.w3.org/2000/svg" width="16" height="16">
  <defs>
    <linearGradient id="a" x1="5" x2="5" y2="8" gradientUnits="userSpaceOnUse">
      <stop offset="0" stop-color="#541900"/>
      <stop offset="1" stop-color="#72490c"/>
    </linearGradient>
    <linearGradient id="b" x1="5" y1="1" x2="5" y2="6.5" gradientUnits="userSpaceOnUse">
      <stop offset="0" stop-color="#ffe38b"/>
      <stop offset="1" stop-color="orange"/>
    </linearGradient>
    <linearGradient id="c" x1="11.5" y1="7.155" x2="11.5" y2="16.124" gradientUnits="userSpaceOnUse">
      <stop offset="0" stop-color="#37627d"/>
      <stop offset="1" stop-color="#0e3852"/>
    </linearGradient>
    <linearGradient id="d" x1="11.5" y1="8.121" x2="11.5" y2="15.096" gradientUnits="userSpaceOnUse">
      <stop offset="0" stop-color="#b7f3ff"/>
      <stop offset="1" stop-color="#61c2ff"/>
    </linearGradient>
    <linearGradient id="e" x1="11.5" y1="9.772" x2="11.5" y2="13.339" gradientUnits="userSpaceOnUse">
      <stop offset="0" stop-color="#0e3852"/>
      <stop offset="1" stop-color="#37627d"/>
    </linearGradient>
  </defs>
  <path fill="url(#a)" d="M4.586 0 1 3.586 1 8 1.914 8 5 4.914 8.086 8 9 8 9 3.586 5.414 0 4.586 0z"/>
  <path fill="url(#b)" d="M5 1 2 4 2 6.5 5 3.5 8 6.5 8 4 5 1z"/>
  <circle cx="11.5" cy="11.5" r="4.5" fill="url(#c)"/>
  <circle cx="11.5" cy="11.5" r="3.5" fill="url(#d)"/>
  <circle cx="11.5" cy="11.5" r="1.79" fill="url(#e)"/>
</svg>
