<svg width="16" height="16" viewBox="0 0 16 16" xmlns="http://www.w3.org/2000/svg">
  <path fill="#EBECF0" stroke="#6C707E" stroke-linecap="round" stroke-linejoin="round" d="m1.5 8.15 1 .8v1.6l-1 .8v1.15h12a1 1 0 0 0 1-1v-8a1 1 0 0 0-1-1h-12v1.15l1 .8v1.6l-1 .8v1.3Z"/>
  <path fill="#6C707E" d="M7.485 5.972h-.354c-.632 0-1.046.376-1.046 1.025h.972V9H5V7.171C5 5.831 5.832 5 7.131 5h.354v.972ZM9.5 9.028h.354c.632 0 1.046-.376 1.046-1.025h-.972V6h2.057v1.829c0 1.34-.832 2.171-2.131 2.171H9.5v-.972Z"/>
</svg>
