<svg width="16" height="16" viewBox="0 0 16 16" xmlns="http://www.w3.org/2000/svg">
  <path fill="#EBECF0" d="M12.002 4.43c-.775 1.686-2.008 3.6-3.609 3.6H7.77a1.67 1.67 0 0 1-.255-.021 1.643 1.643 0 0 1-.255.02h-.72c-.778 0-1.325-.317-1.722-.79l-1.021-.016a5.5 5.5 0 1 0 8.205-2.792Z"/>
  <path fill="none" stroke="#6C707E" stroke-linecap="round" stroke-linejoin="round" d="M10.581 7.5h3.711m-10.584 3H14.29m-1.851-5.793A5.5 5.5 0 1 1 3.5 9c0-.464.057-.914.165-1.344l.101-.156h.65"/>
  <path fill="none" stroke="#6C707E" stroke-linecap="round" stroke-linejoin="round" d="M11.273 6.708c.146.698.227 1.474.227 2.292 0 3.038-1.119 5.5-2.5 5.5S6.5 12.038 6.5 9c0-.169.003-.336.01-.5"/>
  <path fill="#EDF3FF" d="M2.004 7c-.109-.337.926-5.5 2.133-5.5h1.039c1.887 0 .942 5 2.604 5h.623c1.365 0 3.046-4.505 3.173-5.342.008-.05.014-.158.014-.158H9.897s0 .085-.003.127c-.035.69-1.209 5.374-2.624 5.374h-.719c-1.686 0-1.017-5-2.764-5h-.45C1.794 1.5.386 6.044.464 7h1.54Z"/>
  <path fill="none" stroke="#3574F0" stroke-linecap="round" stroke-linejoin="round" d="M.5 6.5c.234-1.504 1.484-5 2.838-5h.45c1.747 0 1.078 5 2.764 5h.719c1.255 0 2.306-3.687 2.565-5"/>
  <path fill="none" stroke="#3574F0" stroke-linecap="round" stroke-linejoin="round" d="M2.037 6.5c.197-1.371 1.088-5 2.1-5h1.039c1.887 0 .942 5 2.604 5h.623c1.232 0 2.732-3.668 3.096-5"/>
</svg>
