<svg width="16" height="16" viewBox="0 0 16 16" xmlns="http://www.w3.org/2000/svg">
  <path fill="#EBECF0" d="M9.663 3.544a1.673 1.673 0 0 1-.157.371l-.347.585.34.575c.259.428.307.953.125 1.427-.203.52-.479.997-.824 1.429a1.641 1.641 0 0 1-1.287.612l-.683-.008-.326.58c-.26.455-.692.752-1.192.825a5.573 5.573 0 0 1-1.557.01l-.146.112A5.496 5.496 0 0 0 14.5 9a5.498 5.498 0 0 0-4.837-5.456Z"/>
  <path fill="none" stroke="#6C707E" stroke-linecap="round" stroke-linejoin="round" d="M9.697 7.5h4.595m-10.585 3H14.29m-4.128-6.877a5.5 5.5 0 1 1-6.47 6.823"/>
  <path fill="none" stroke="#6C707E" stroke-linecap="round" stroke-linejoin="round" d="M10.031 3.988C10.897 4.852 11.5 6.771 11.5 9c0 3.038-1.119 5.5-2.5 5.5-1.245 0-2.277-2.001-2.468-4.621"/>
  <path fill="#EDF3FF" stroke="#3574F0" stroke-linecap="round" stroke-linejoin="round" d="m8.208 5.839-.555-.938a.789.789 0 0 1 0-.802l.556-.938a.144.144 0 0 0 .014-.125 3.966 3.966 0 0 0-.595-1.029.144.144 0 0 0-.116-.05l-1.097.012a.786.786 0 0 1-.685-.401L5.196.62a.147.147 0 0 0-.102-.076 4.053 4.053 0 0 0-1.189 0 .146.146 0 0 0-.101.076l-.534.949a.79.79 0 0 1-.694.401l-1.09-.012a.148.148 0 0 0-.115.05 4.01 4.01 0 0 0-.596 1.029.143.143 0 0 0 .015.124l.555.938a.784.784 0 0 1 0 .802l-.555.938a.143.143 0 0 0-.015.124c.146.371.346.718.596 1.03a.145.145 0 0 0 .115.049l1.097-.012c.284 0 .547.154.685.401l.534.948c.023.042.061.07.101.076a4.053 4.053 0 0 0 1.189 0 .145.145 0 0 0 .101-.075l.534-.949a.787.787 0 0 1 .694-.401l1.09.012c.048 0 .09-.018.115-.049.25-.313.45-.66.596-1.029a.145.145 0 0 0-.016-.125h.002ZM4.5 5.5c-.551 0-1-.449-1-1 0-.551.449-1 1-1 .551 0 1 .449 1 1 0 .551-.449 1-1 1Z"/>
</svg>
