<svg width="72" height="72" viewBox="0 0 72 72" xmlns="http://www.w3.org/2000/svg">
  <path fill="url(#a)" d="M11.664 16.992C16.848 14.04 23.976 12.6 30.096 12.6c17.928 0 29.304 8.352 29.304 19.656 0 9-7.848 14.544-18.288 14.544-8.424 0-14.688-3.096-14.688-7.2 0-3.888 3.96-5.76 9.576-3.6l1.44-4.392C28.728 28.8 21.528 32.76 21.528 39.6S30.024 51.336 41.4 51.336c13.536 0 23.4-7.488 23.4-19.08C64.8 17.784 51.12 7.2 30.096 7.2c-6.768 0-14.4 1.728-20.664 5.112l2.232 4.68Zm48.672 38.016C55.152 57.96 48.024 59.4 41.904 59.4 23.976 59.4 12.6 51.048 12.6 39.744c0-9 7.848-14.544 18.288-14.544 8.424 0 14.688 3.096 14.688 7.2 0 3.888-3.96 5.76-9.576 3.6l-1.44 4.392C43.272 43.2 50.472 39.24 50.472 32.4S41.976 20.664 30.6 20.664c-13.536 0-23.4 7.488-23.4 19.08C7.2 54.216 20.88 64.8 41.904 64.8c6.768 0 14.4-1.728 20.664-5.112l-2.232-4.68Z"/>
  <defs>
    <linearGradient id="a" x1="12.896" x2="91.928" y1="17.564" y2="78.898" gradientUnits="userSpaceOnUse">
      <stop stop-color="#955AE0"/>
      <stop offset="1" stop-color="#4D67F0"/>
    </linearGradient>
  </defs>
</svg>
