<svg width="72" height="72" viewBox="0 0 72 72" xmlns="http://www.w3.org/2000/svg">
  <path fill="#fff" d="M41.761 64.6C21.632 64.6 7 53.994 7 39.516c0-11.613 9.832-19.974 23.38-19.974 11.536 0 19.82 5.11 19.82 12.542 0 6.968-7.045 10.606-15.716 7.355l1.239-3.639c-5.575-1.703-9.523-.232-9.523 3.561 0 4.568 6.039 8.207 14.787 8.207 10.374 0 18.813-6.503 18.813-15.484C59.8 20.316 47.18 11.8 29.839 11.8c-4.258 0-9.987 1.006-13.703 2.632-2.633 1.084-4.336 0-4.336-1.703 0-1.316.929-2.245 2.787-3.02C18.303 8.085 24.652 7 29.84 7 49.968 7 64.6 17.607 64.6 32.084c0 11.613-9.832 19.974-23.38 19.974-11.536 0-19.82-5.11-19.82-12.697 0-6.813 7.045-10.296 15.716-7.277L35.877 35.8c5.575 1.858 9.523.31 9.523-3.716 0-4.413-6.039-8.052-14.787-8.052-10.761 0-18.813 6.658-18.813 15.484C11.8 51.284 24.42 59.8 41.761 59.8c4.258 0 9.987-1.006 13.703-2.632 2.633-1.084 4.336 0 4.336 1.703 0 1.316-.929 2.245-2.787 3.02C53.297 63.515 46.948 64.6 41.76 64.6Z"/>
</svg>
