<svg width="16" height="16" viewBox="0 0 16 16" xmlns="http://www.w3.org/2000/svg">
  <path fill="#EBECF0" stroke="#6C707E" stroke-linecap="round" stroke-linejoin="round" d="M13.124 8.651a1.283 1.283 0 0 1 0-1.303l.903-1.524a.234.234 0 0 0 .024-.202 6.468 6.468 0 0 0-.97-1.674.236.236 0 0 0-.187-.08l-1.783.02c-.462 0-.889-.25-1.113-.651l-.869-1.543a.24.24 0 0 0-.164-.122 6.608 6.608 0 0 0-1.933 0 .238.238 0 0 0-.163.123l-.868 1.541a1.282 1.282 0 0 1-1.127.652l-1.771-.02a.239.239 0 0 0-.187.081 6.501 6.501 0 0 0-.969 1.674.232.232 0 0 0 .025.201l.902 1.524c.237.401.237.901 0 1.303l-.903 1.524a.234.234 0 0 0-.024.202c.238.604.564 1.167.97 1.674.039.05.109.08.187.08l1.783-.02c.462 0 .889.25 1.113.651l.87 1.543a.235.235 0 0 0 .163.122 6.608 6.608 0 0 0 1.933 0 .24.24 0 0 0 .163-.122l.868-1.542a1.282 1.282 0 0 1 1.127-.652l1.771.02c.076 0 .146-.03.187-.081.404-.506.73-1.068.969-1.672a.236.236 0 0 0-.025-.203l-.902-1.524ZM8 10.5a2.5 2.5 0 1 1 0-5 2.5 2.5 0 0 1 0 5Z"/>
</svg>
