<svg width="16" height="16" viewBox="0 0 16 16" xmlns="http://www.w3.org/2000/svg">
  <path fill="#9aa7b0" d="M15 8.812V7.187l-2.252-.802-.248-.604 1.023-2.154-1.149-1.151-2.155 1.025-.605-.248L8.813 1H7.188l-.8 2.25-.606.249-2.155-1.024-1.15 1.151L3.5 5.78l-.248.604L1 7.186v1.625l2.252.802.248.604-1.023 2.155 1.15 1.15 2.155-1.023.606.248.8 2.252h1.625l.801-2.252.605-.249 2.155 1.024 1.149-1.15-1.023-2.155.248-.604L15 8.811ZM8 11a3 3 0 1 1 0-6 3 3 0 0 1 0 6Z"/>
  <path fill="#9aa7b0" d="M9.5 8a1.5 1.5 0 1 1-3 0 1.5 1.5 0 0 1 3 0Z"/>
</svg>
