<!-- Copyright © 2000–2024 JetBrains s.r.o. -->
<svg width="16" height="16" viewBox="0 0 16 16" xmlns="http://www.w3.org/2000/svg">
  <defs>
    <linearGradient id="a" x1="8" x2="8" y1=".1" y2="16.22" gradientUnits="userSpaceOnUse">
      <stop offset="0" stop-color="#4c7d39"/>
      <stop offset="1" stop-color="#2b4d23"/>
    </linearGradient>
    <linearGradient id="b" x1="8" x2="8" y1="1" y2="14.72" gradientUnits="userSpaceOnUse">
      <stop offset="0" stop-color="#fff"/>
      <stop offset=".2" stop-color="#fcfdfb"/>
      <stop offset=".38" stop-color="#f2faf1"/>
      <stop offset=".54" stop-color="#e3f4df"/>
      <stop offset=".7" stop-color="#cdedc6"/>
      <stop offset=".85" stop-color="#b2e2a6"/>
      <stop offset=".99" stop-color="#90d67f"/>
      <stop offset="1" stop-color="#8fd67e"/>
    </linearGradient>
    <linearGradient id="c" x1="8" x2="8" y1=".99" y2="14.71" gradientUnits="userSpaceOnUse">
      <stop offset="0" stop-color="#88dbae"/>
      <stop offset="1" stop-color="#95dd80"/>
    </linearGradient>
  </defs>
  <path fill="url(#a)" fill-rule="evenodd" d="M5.11 16c-1.51 0-2.78-1.13-2.95-2.63L1.02 3.54a3.16 3.16 0 0 1 .79-2.47C2.41.39 3.27 0 4.18 0h7.64c.91 0 1.77.39 2.38 1.06.52.58.8 1.33.8 2.11 0 .12 0 .25-.02.37l-1.13 9.82a2.966 2.966 0 0 1-2.95 2.63H5.11Z"/>
  <path fill="url(#b)" fill-rule="evenodd" d="M13.45 1.73c-.41-.46-1.01-.73-1.63-.73H4.18c-.62 0-1.21.27-1.63.73-.36.4-.55.91-.55 1.45 0 .08 0 .17.01.25l1.13 9.83c.11 1 .96 1.75 1.96 1.75h5.79c1 0 1.84-.75 1.96-1.75l1.13-9.82c.01-.08.02-.17.02-.25 0-.53-.2-1.05-.55-1.45Z"/>
  <path fill="#005220" fill-rule="evenodd" d="M4.18 2h7.64c.34 0 .66.14.88.39.15.17.23.38.27.61H3.03c.03-.22.11-.44.27-.61.22-.25.54-.39.88-.39"/>
  <path fill="url(#c)" fill-rule="evenodd" d="M11.86 13.14c-.06.49-.47.86-.97.86H5.1c-.49 0-.91-.37-.97-.86L3.08 4h9.83z"/>
  <path fill="#005220" fill-rule="evenodd" d="M8.83 7.83c-.17 0-.34-.09-.43-.25l-.23-.39c-.08-.15-.16-.18-.17-.18s-.08.03-.17.18l-.23.4c-.14.24-.45.32-.68.18a.493.493 0 0 1-.18-.68l.23-.39c.5-.87 1.57-.87 2.07 0l.23.39c.14.24.06.54-.18.68-.08.05-.16.07-.25.07ZM7.5 10.5c0-.28-.22-.5-.5-.5h-.46c-.17 0-.24-.05-.24-.06s-.01-.09.07-.24l.23-.39c.14-.24.06-.54-.18-.68a.49.49 0 0 0-.68.18l-.23.39c-.25.43-.28.88-.07 1.24.2.35.61.56 1.11.56h.46c.28 0 .5-.22.5-.5Zm3.06-.06c.2-.35.18-.81-.07-1.24l-.23-.39a.496.496 0 0 0-.68-.18c-.24.14-.32.44-.18.68l.23.39c.08.14.08.23.07.24 0 0-.07.06-.24.06H9c-.28 0-.5.22-.5.5s.22.5.5.5h.46c.5 0 .9-.2 1.11-.56Z"/>
</svg>
