<!-- Copyright © 2000–2024 JetBrains s.r.o. -->
<svg width="16" height="16" viewBox="0 0 16 16" xmlns="http://www.w3.org/2000/svg">
  <path fill="#fff" d="M13.45 1.73c-.41-.46-1.01-.73-1.63-.73H4.18c-.62 0-1.21.27-1.63.73-.36.4-.55.91-.55 1.45 0 .08 0 .17.01.25l1.13 9.83c.11 1 .96 1.75 1.96 1.75h5.79c1 0 1.84-.75 1.96-1.75l1.13-9.82c.01-.08.02-.17.02-.25 0-.53-.2-1.05-.55-1.45ZM4.18 2h7.64c.34 0 .66.14.88.39.15.17.23.38.27.61H3.03c.03-.22.11-.44.27-.61.22-.25.54-.39.88-.39m7.68 11.14c-.06.49-.47.86-.97.86H5.1c-.49 0-.91-.37-.97-.86L3.08 4h9.83z"/>
  <path fill="#fff" d="M8.83 7.83c-.17 0-.34-.09-.43-.25l-.23-.39c-.08-.15-.16-.18-.17-.18s-.08.03-.17.18l-.23.4c-.14.24-.45.32-.68.18a.493.493 0 0 1-.18-.68l.23-.39c.5-.87 1.57-.87 2.07 0l.23.39c.14.24.06.54-.18.68-.08.05-.16.07-.25.07ZM7 11h-.46c-.5 0-.9-.2-1.11-.56-.2-.35-.18-.8.07-1.24l.23-.39c.14-.24.44-.32.68-.18s.32.44.18.68l-.23.39c-.08.14-.08.23-.07.24 0 0 .07.06.24.06h.46c.28 0 .5.22.5.5s-.22.5-.5.5Zm2.46 0H9c-.28 0-.5-.22-.5-.5s.22-.5.5-.5h.46c.17 0 .24-.05.24-.06s.01-.09-.07-.24l-.23-.39a.493.493 0 0 1 .18-.68c.24-.14.54-.06.68.18l.23.39c.25.43.28.88.07 1.24-.2.35-.61.56-1.11.56Z"/>
</svg>
