<!-- Copyright © 2000–2024 JetBrains s.r.o. -->
<svg width="16" height="16" viewBox="0 0 16 16" xmlns="http://www.w3.org/2000/svg">
  <path fill="#f4f4f4" d="M5.19 16c-1.51 0-2.78-1.13-2.95-2.63L1.1 3.54a3.16 3.16 0 0 1 .79-2.47C2.49.39 3.35 0 4.26 0h7.64c.91 0 1.77.39 2.38 1.06.52.58.8 1.33.8 2.11 0 .12 0 .25-.02.37l-1.13 9.82a2.966 2.966 0 0 1-2.95 2.63H5.19Z"/>
  <path fill="#323232" d="M13.53 1.73C13.12 1.27 12.52 1 11.9 1H4.26c-.62 0-1.21.27-1.63.73-.36.4-.55.91-.55 1.45 0 .08 0 .17.01.25l1.13 9.83c.11 1 .96 1.75 1.96 1.75h5.79c1 0 1.84-.75 1.96-1.75l1.13-9.82c.01-.08.02-.17.02-.25 0-.53-.2-1.05-.55-1.45Z"/>
  <path fill="#ebebeb" d="M4.26 2h7.64c.34 0 .66.14.88.39.15.17.23.38.27.61H3.11c.03-.22.11-.44.27-.61.22-.25.54-.39.88-.39m7.68 11.14c-.06.49-.47.86-.97.86H5.18c-.49 0-.91-.37-.97-.86L3.16 4h9.83z"/>
  <path fill="#388a34" d="M8.91 7.83c-.17 0-.34-.09-.43-.25l-.23-.39c-.08-.15-.16-.18-.17-.18s-.08.03-.17.18l-.23.4c-.14.24-.45.32-.68.18a.493.493 0 0 1-.18-.68l.23-.39c.5-.87 1.57-.87 2.07 0l.23.39c.14.24.06.54-.18.68-.08.05-.16.07-.25.07ZM7.08 11h-.46c-.5 0-.9-.2-1.11-.56-.2-.35-.18-.8.07-1.24l.23-.39c.14-.24.44-.32.68-.18s.32.44.18.68l-.23.39c-.08.14-.08.23-.07.24 0 0 .07.06.24.06h.46c.28 0 .5.22.5.5s-.22.5-.5.5Zm2.46 0h-.46c-.28 0-.5-.22-.5-.5s.22-.5.5-.5h.46c.17 0 .24-.05.24-.06s.01-.09-.07-.24l-.23-.39a.493.493 0 0 1 .18-.68c.24-.14.54-.06.68.18l.23.39c.25.43.28.88.07 1.24-.2.35-.61.56-1.11.56Z"/>
</svg>
