<svg width="16" height="16" viewBox="0 0 16 16" xmlns="http://www.w3.org/2000/svg">
  <path fill="#a5a5a5" d="M3.854 9.146a.498.498 0 0 0-.708 0l-2 2a.498.498 0 0 0 0 .708.502.502 0 0 0 .708 0L3 10.708v3.793a.5.5 0 0 0 1 0v-3.793l1.146 1.146a.498.498 0 0 0 .708 0 .502.502 0 0 0 0-.708l-2-2ZM11 9.5c0-.081.012-.159.024-.236C10.314 9.692 9.266 10 8 10a7.46 7.46 0 0 1-.741-.036 6.302 6.302 0 0 1-1.513-.339l.815.815c.139.139.247.301.321.477.094.013.182.033.279.043.272.027.554.041.84.041 1.14 0 2.168-.226 3-.597v-.903ZM3.5 8c.18 0 .354.036.518.097C4.014 8.065 4 8.033 4 8v-.197C4.904 8.53 6.339 9 8 9s3.096-.469 4-1.197V8c0 .033-.017.066-.021.099A1.48 1.48 0 0 1 12.5 8c.171 0 .333.035.486.088.001-.03.014-.057.014-.088V4c0-1.683-2.196-3-5-3S3 2.317 3 4v4c0 .03.011.058.012.087C3.167 8.033 3.33 8 3.5 8ZM8 2c2.357 0 4 1.054 4 2s-1.643 2-4 2-4-1.054-4-2 1.643-2 4-2ZM4 5.803C4.904 6.53 6.339 7 8 7s3.096-.469 4-1.197V6c0 .946-1.643 2-4 2S4 6.946 4 6v-.197Zm10.854 6.343a.498.498 0 0 0-.708 0L13 13.292V9.499a.5.5 0 0 0-1 0v3.793l-1.146-1.146a.498.498 0 0 0-.708 0 .502.502 0 0 0 0 .708l2 2a.498.498 0 0 0 .708 0l2-2a.498.498 0 0 0 0-.708Z"/>
</svg>
