<svg xmlns:xlink="http://www.w3.org/1999/xlink" width="16" height="16" viewBox="0 0 16 16" xmlns="http://www.w3.org/2000/svg">
  <defs>
    <linearGradient id="b" x1="8" x2="8" y1="0" y2="12.968" gradientUnits="userSpaceOnUse">
      <stop offset="0" stop-color="#2a5290"/>
      <stop offset="1" stop-color="#12284a"/>
    </linearGradient>
    <linearGradient id="a" x1="12.955" x2="2.944" y1="6.5" y2="6.5" gradientUnits="userSpaceOnUse">
      <stop offset="0" stop-color="#fff6c4"/>
      <stop offset="1" stop-color="#45b0ff"/>
    </linearGradient>
    <linearGradient xlink:href="#a" id="c" x1="3.44" x2="12.512" y1="3.5" y2="3.5"/>
    <linearGradient id="d" x1="4.968" x2="10.91" y1="6.5" y2="6.5" gradientUnits="userSpaceOnUse">
      <stop offset="0" stop-color="#2b5390"/>
      <stop offset="1" stop-color="#0d1f3b"/>
    </linearGradient>
    <linearGradient id="e" x1="3.5" x2="3.5" y1="8" y2="16" gradientUnits="userSpaceOnUse">
      <stop offset="0" stop-color="#a00808"/>
      <stop offset="1" stop-color="#520000"/>
    </linearGradient>
    <linearGradient id="f" x1="3.5" x2="3.5" y1="9" y2="15" gradientUnits="userSpaceOnUse">
      <stop offset="0" stop-color="#ffcd84"/>
      <stop offset="1" stop-color="#ff9d9d"/>
    </linearGradient>
    <linearGradient id="g" x1="12.5" x2="12.5" y1="8" y2="16" gradientUnits="userSpaceOnUse">
      <stop offset="0" stop-color="#19894a"/>
      <stop offset="1" stop-color="#004a0a"/>
    </linearGradient>
    <linearGradient id="h" x1="12.5" x2="12.5" y1="9" y2="15" gradientUnits="userSpaceOnUse">
      <stop offset="0" stop-color="#80ffb6"/>
      <stop offset="1" stop-color="#00ff23"/>
    </linearGradient>
  </defs>
  <path fill="url(#b)" d="M8 13c-3.477 0-6-1.683-6-4V4c0-2.317 2.523-4 6-4s6 1.683 6 4v5c0 2.317-2.523 4-6 4Z"/>
  <path fill="url(#a)" d="M8 12c-2.851 0-5-1.29-5-3V4c0-1.71 2.149-3 5-3s5 1.29 5 3v5c0 1.71-2.149 3-5 3Z"/>
  <ellipse cx="8" cy="3.5" fill="url(#c)" rx="4.5" ry="2.5"/>
  <path fill="url(#d)" d="M8 8c-1.315 0-2.402-.343-3-.778V6.42c.826.362 1.851.579 3 .579s2.174-.217 3-.579v.802C10.402 7.657 9.315 8 8 8Zm0 1c-1.18 0-2.214-.235-3-.619V9c0 .249 1.064 1 3 1s3-.751 3-1v-.619C10.214 8.765 9.18 9 8 9Zm0-4c1.936 0 3-.751 3-1S9.936 3 8 3s-3 .751-3 1 1.064 1 3 1Z"/>
  <path fill="url(#e)" d="M5 14v-.586l.586.586H7v-2.914L3.914 8h-.828L0 11.086V14h1.414L2 13.414V16h3v-2z"/>
  <path fill="url(#f)" d="M6 11.5 3.5 9 1 11.5V13l2-2v4h1v-4l2 2v-1.5z"/>
  <path fill="url(#g)" d="M11 10v.586L10.414 10H9v2.914L12.086 16h.828L16 12.914V10h-1.414l-.586.586V8h-3v2z"/>
  <path fill="url(#h)" d="m10 12.5 2.5 2.5 2.5-2.5V11l-2 2V9h-1v4l-2-2v1.5z"/>
</svg>
