<svg width="16" height="16" viewBox="0 0 16 16" xmlns="http://www.w3.org/2000/svg">
  <path fill="#252525" d="M8 13c-3.477 0-6-1.683-6-4V4c0-2.317 2.523-4 6-4s6 1.683 6 4v5c0 2.317-2.523 4-6 4Z"/>
  <path fill="#c4c4c4" d="M8 12c-2.851 0-5-1.29-5-3V4c0-1.71 2.149-3 5-3s5 1.29 5 3v5c0 1.71-2.149 3-5 3Z"/>
  <path fill="#292929" d="M11 7.222V6.42c-.826.362-1.851.579-3 .579s-2.174-.217-3-.579v.802C5.598 7.657 6.685 8 8 8s2.402-.343 3-.778ZM8 9c-1.18 0-2.214-.235-3-.619V9c0 .249 1.064 1 3 1s3-.751 3-1v-.619C10.214 8.765 9.18 9 8 9Z"/>
  <ellipse cx="8" cy="4" fill="#292929" rx="3" ry="1"/>
  <path fill="#252525" d="M5 14v-.586l.586.586H7v-2.914L3.914 8h-.828L0 11.086V14h1.414L2 13.414V16h3v-2z"/>
  <path fill="#f28366" d="M6 11.5 3.5 9 1 11.5V13l2-2v4h1v-4l2 2v-1.5z"/>
  <path fill="#252525" d="M11 10v.586L10.414 10H9v2.914L12.086 16h.828L16 12.914V10h-1.414l-.586.586V8h-3v2z"/>
  <path fill="#8dcf8d" d="m10 12.5 2.5 2.5 2.5-2.5V11l-2 2V9h-1v4l-2-2v1.5z"/>
</svg>
