<svg width="16" height="16" viewBox="0 0 16 16" xmlns="http://www.w3.org/2000/svg">
  <path fill="#499c54" d="M12.425 10.154v.538c0 .374-.064.73-.156 1.077H14v1.615h-2.565c-.801.976-2.009 1.615-3.374 1.615s-2.573-.64-3.374-1.615H2v-1.615h1.853a4.176 4.176 0 0 1-.156-1.077v-.538H2V8.539h1.697V7.462c0-.184.033-.36.056-.538H2V5.309h2.307a4.36 4.36 0 0 1 1.76-1.653L4.534 2.144l1.157-1.143L7.89 3.172c.058-.002.051-.011.109-.011.021 0 .099.009.12.01l2.188-2.17 1.157 1.143-1.489 1.47a4.362 4.362 0 0 1 1.838 1.695h2.185v1.615h-1.631c.023.179.056.354.056.538v1.077h1.575v1.615h-1.575ZM6.2 7v1.5h3.6V7H6.2Zm0 3v1.5h3.6V10H6.2Z"/>
</svg>
