<!-- Copyright © 2000–2024 JetBrains s.r.o. -->
<svg width="16" height="16" viewBox="0 0 16 16" xmlns="http://www.w3.org/2000/svg">
  <path fill="#fff" d="M4 2a2 2 0 0 0-2 2v1.5a.5.5 0 0 1-1 0V4a3 3 0 0 1 3-3h1.5a.5.5 0 0 1 0 1zm0 2.5a.5.5 0 0 1 .5-.5h7a.5.5 0 0 1 0 1h-7a.5.5 0 0 1-.5-.5m0 3a.5.5 0 0 1 .5-.5h7a.5.5 0 0 1 0 1h-7a.5.5 0 0 1-.5-.5m.5 2.5a.5.5 0 0 0 0 1h4a.5.5 0 0 0 0-1zm6-9a.5.5 0 0 0 0 1H12a2 2 0 0 1 2 2v1.5a.5.5 0 0 0 1 0V4a3 3 0 0 0-3-3zm-9 9a.5.5 0 0 1 .5.5V12a2 2 0 0 0 2 2h1.5a.5.5 0 0 1 0 1H4a3 3 0 0 1-3-3v-1.5a.5.5 0 0 1 .5-.5m13.5.5a.5.5 0 0 0-1 0V12a2 2 0 0 1-2 2h-1.5a.5.5 0 0 0 0 1H12a3 3 0 0 0 3-3z"/>
</svg>
