<!-- Copyright © 2000–2024 JetBrains s.r.o. -->
<svg width="16" height="16" viewBox="0 0 16 16" xmlns="http://www.w3.org/2000/svg">
  <path fill="#646464" d="M8.105 12.372h4.268a.875.875 0 0 0 .874-.875V2.75a.875.875 0 0 0-.874-.875H3.625a.875.875 0 0 0-.875.875v3.724a4 4 0 0 0-.875.438V2.75c0-.967.784-1.75 1.75-1.75h8.748c.966 0 1.75.783 1.75 1.75v8.747a1.75 1.75 0 0 1-1.75 1.75H8.98zm-2.95-6.998a.656.656 0 1 0 0-1.312.656.656 0 0 0 0 1.312m1.969-.438c0-.241.196-.437.437-.437h3.5a.437.437 0 0 1 0 .875h-3.5a.437.437 0 0 1-.437-.438m0 2.625c0-.242.196-.438.437-.438h3.5a.437.437 0 0 1 0 .875h-3.5a.437.437 0 0 1-.437-.437m3.936 3.061H7.974q.049-.436 0-.874h3.086a.437.437 0 0 1 0 .874M1.336 8.79A3.062 3.062 0 0 0 5.9 12.634l2.224 2.238a.439.439 0 0 0 .619-.62l-2.23-2.23A3.062 3.062 0 1 0 1.335 8.79m4.544.18a2.187 2.187 0 1 1-3.637 2.43A2.187 2.187 0 0 1 5.88 8.97"/>
</svg>
