<svg width="16" height="16" viewBox="0 0 16 16" xmlns="http://www.w3.org/2000/svg">
  <path fill="#fff" fill-rule="evenodd" d="M1.096 8c.492 1.2 1.461 2.304 2.683 3.124C5.057 11.98 6.574 12.5 8.03 12.5c1.456 0 2.973-.52 4.252-1.376 1.22-.82 2.19-1.924 2.682-3.124-.492-1.2-1.461-2.304-2.683-3.123C11.003 4.019 9.487 3.5 8.03 3.5c-1.456 0-2.973.52-4.251 1.377C2.557 5.696 1.588 6.8 1.096 8m2.125-3.954C4.638 3.096 6.346 2.5 8.03 2.5c1.684 0 3.392.596 4.809 1.546 1.415.95 2.576 2.277 3.13 3.781a.5.5 0 0 1 0 .346c-.554 1.504-1.715 2.832-3.13 3.781-1.417.95-3.125 1.546-4.809 1.546-1.684 0-3.392-.596-4.809-1.546-1.415-.95-2.576-2.277-3.13-3.781a.5.5 0 0 1 0-.346c.554-1.504 1.715-2.832 3.13-3.781M5 8a3 3 0 1 1 6 0 3 3 0 0 1-6 0m3-2a2 2 0 1 0 0 4 2 2 0 0 0 0-4" clip-rule="evenodd"/>
</svg>
