<!-- Copyright 2000-2024 JetBrains s.r.o. and contributors. Use of this source code is governed by the Apache 2.0 license. -->
<svg width="16" height="16" viewBox="0 0 16 16" fill="none" xmlns="http://www.w3.org/2000/svg">
  <path d="M4 1H2V3L0 3V5H2V7H4V5H6V3L4 3V1Z" fill="#77BC1F"/>
  <path
    d="M4.55798 8C4.97325 8.3672 5.4635 8.64698 6 8.817V15H8.5V13.5H11V11H8.5V8.784C9.39606 8.47695 10.1541 7.86187 10.6391 7.04828C11.1242 6.23468 11.3047 5.27535 11.1487 4.34109C10.9927 3.40682 10.5102 2.55824 9.78706 1.94641C9.06396 1.33458 8.14721 0.999209 7.2 0.999998C6.41383 1.00177 5.6495 1.23493 5 1.66487V2H7V3.61435C7.06586 3.60485 7.13268 3.6 7.2 3.6C7.57131 3.6 7.9274 3.7475 8.18995 4.01005C8.4525 4.2726 8.6 4.6287 8.6 5C8.6 5.3713 8.4525 5.7274 8.18995 5.98995C7.9274 6.2525 7.57131 6.4 7.2 6.4C6.83346 6.4 6.48175 6.25626 6.22021 6H5V8H4.55798Z"
    fill="#F68E1E"/>
</svg>
