<!-- Copyright 2000-2024 JetBrains s.r.o. and contributors. Use of this source code is governed by the Apache 2.0 license. -->
<svg width="16" height="16" viewBox="0 0 16 16" fill="none" xmlns="http://www.w3.org/2000/svg">
  <path fill-rule="evenodd" clip-rule="evenodd" d="M1 8H5V6H6V14H1V8Z" fill="#F68E1E"/>
  <path fill-rule="evenodd" clip-rule="evenodd"
        d="M14 13H11V11H14V13ZM15 14V2H7V5H10V7H7V8H10V10H7V11H10V13H7V14H15ZM14 10H11V8H14V10ZM14 7H11V5H14V7Z" fill="#362F8A"/>
  <path d="M4 1H2V3L0 3V5H2V7H4V5H6V3L4 3V1Z" fill="#77BC1F"/>
</svg>
