<!-- Copyright 2000-2024 JetBrains s.r.o. and contributors. Use of this source code is governed by the Apache 2.0 license. -->
<svg width="16" height="16" viewBox="0 0 16 16" fill="none" xmlns="http://www.w3.org/2000/svg">
  <path d="M1 9V16H16V9H1Z" fill="#40B6E0" fill-opacity="0.7"/>
  <path d="M3 5H7V1L3 5Z" fill="#9AA7B0" fill-opacity="0.8"/>
  <path d="M13 1H8V6H3V8H13V1Z" fill="#9AA7B0" fill-opacity="0.8"/>
  <path
    d="M6.146 12.4673C6.146 13.2899 5.9113 13.92 5.44189 14.3575C4.97477 14.795 4.29915 15 3.41504 15H2V10H3.56885C4.3846 10 5.01807 10.232 5.46924 10.6626C5.92041 11.0933 6.146 11.6949 6.146 12.4673ZM5.04541 12.4947C5.04541 11.4214 4.57145 10.8848 3.62354 10.8848H3.05957V14.1387H3.51416C4.53499 14.1387 5.04541 13.5907 5.04541 12.4947Z"
    fill="#231F20" fill-opacity="0.7"/>
  <path
    d="M11.1434 12.4673C11.1434 13.2899 10.9087 13.92 10.4393 14.3575C9.97216 14.795 9.29654 15 8.41243 15H6.99739V10H8.56623C9.38199 10 10.0155 10.232 10.4666 10.6626C10.9178 11.0933 11.1434 11.6949 11.1434 12.4673ZM10.0428 12.4947C10.0428 11.4214 9.56884 10.8848 8.62092 10.8848H8.05696V14.1387H8.51155C9.53238 14.1387 10.0428 13.5907 10.0428 12.4947Z"
    fill="#231F20" fill-opacity="0.7"/>
  <path d="M12.0031 15.0137V10H13V14H15V15L12.0031 15.0137Z" fill="#231F20" fill-opacity="0.7"/>
</svg>
