<!-- Copyright 2000-2024 JetBrains s.r.o. and contributors. Use of this source code is governed by the Apache 2.0 license. -->
<svg width="16" height="16" viewBox="0 0 16 16" fill="none" xmlns="http://www.w3.org/2000/svg">
  <g clip-path="url(#clip0)">
    <path
      d="M11.8293 10.8293C11.8923 10.8923 12 10.8477 12 10.7586V9.1C12 9.04477 12.0448 9 12.1 9H15.9C15.9552 9 16 8.95523 16 8.9V7.1C16 7.04477 15.9552 7 15.9 7H12.1C12.0448 7 12 6.95523 12 6.9V5.24141C12 5.15231 11.8923 5.1077 11.8293 5.17069L9.07073 7.92927C9.03168 7.96833 9.03168 8.03164 9.07073 8.07069L11.8293 10.8293Z"
      fill="#F68E1E"/>
    <path
      d="M13.1707 15.8293C13.1077 15.8923 13 15.8477 13 15.7586V14.1C13 14.0448 12.9552 14 12.9 14H9.10002C9.04479 14 9.00002 13.9552 9.00002 13.9V12.1C9.00002 12.0448 9.04479 12 9.10002 12H12.9C12.9552 12 13 11.9552 13 11.9V10.2414C13 10.1523 13.1077 10.1077 13.1707 10.1707L15.9293 12.9293C15.9683 12.9683 15.9683 13.0316 15.9293 13.0707L13.1707 15.8293Z"
      fill="#F68E1E"/>
    <path fill-rule="evenodd" clip-rule="evenodd"
          d="M1.5 3L1.50275 3.00158C1.59974 1.92531 4.24767 1 7.5 1C10.7523 1 13.4002 1.92528 13.4972 3.00153L13.5 3V5.99999H13V5.2414C13 4.26141 11.8152 3.77061 11.1222 4.46358L8.36363 7.22216C8.15145 7.43433 8.04408 7.71162 8.04149 7.98969C7.86313 7.99649 7.68252 8.00002 7.5 8.00002C5.41303 8.00002 3.57492 7.5389 2.5 7V9.25C3.57492 9.96853 5.41303 10.5 7.5 10.5C8.33503 10.5 9.13023 10.4149 9.85263 10.2668L10.5858 11H9.10002C8.4925 11 8.00002 11.4925 8.00002 12.1V13.9C8.00002 13.9313 8.00133 13.9624 8.0039 13.993C7.83776 13.9977 7.6697 14 7.5 14C4.18629 14 1.5 13.1046 1.5 12C1.5 10.9924 1.50008 9.99053 1.50015 8.99056C1.50031 6.99628 1.50046 5.00954 1.5 3ZM7.5 4.06274C9.05671 4.06274 11.1896 4.01343 12.5 3C11.301 2.07271 8.89721 2 7.5 2C6.10279 2 3.69904 2.07271 2.5 3C3.81042 4.01342 5.94328 4.06274 7.5 4.06274Z"
          fill="#AFB1B3"/>
  </g>
  <defs>
    <clipPath id="clip0">
      <rect width="16" height="16" fill="white"/>
    </clipPath>
  </defs>
</svg>
