<!-- Copyright 2000-2024 JetBrains s.r.o. and contributors. Use of this source code is governed by the Apache 2.0 license. -->
<svg width="16" height="16" viewBox="0 0 16 16" fill="none" xmlns="http://www.w3.org/2000/svg">
  <g clip-path="url(#clip0)">
    <path
      d="M2.82843 1.17157L1.41422 2.58579L2.82843 4L1.41422 5.41421L2.82843 6.82843L4.24264 5.41421L5.65686 6.82843L7.07107 5.41421L5.65686 4L7.07107 2.58579L5.65686 1.17157L4.24264 2.58579L2.82843 1.17157Z"
      fill="#FF5A6B"/>
    <path
      d="M3.8672 7.20387C4.37151 7.96931 5.12412 8.53943 6 8.817V15H8.5V13.5H11V11H8.5V8.784C9.39606 8.47695 10.1541 7.86187 10.6391 7.04828C11.1242 6.23468 11.3047 5.27536 11.1487 4.34109C10.9927 3.40682 10.5102 2.55824 9.78706 1.94641C9.06396 1.33458 8.14721 0.99921 7.2 0.999999C7.10315 1.00022 7.00663 1.00395 6.91062 1.01112L8.48528 2.58579L7.44879 3.62228C7.72765 3.67264 7.9868 3.8069 8.18995 4.01005C8.4525 4.2726 8.6 4.6287 8.6 5C8.6 5.3713 8.4525 5.7274 8.18995 5.98995C8.0096 6.1703 7.78511 6.29636 7.54187 6.35762L5.65685 8.24264L4.24264 6.82843L3.8672 7.20387Z"
      fill="#F68E1E"/>
  </g>
  <defs>
    <clipPath id="clip0">
      <rect width="16" height="16" fill="white"/>
    </clipPath>
  </defs>
</svg>
