<!-- Copyright 2000-2024 JetBrains s.r.o. and contributors. Use of this source code is governed by the Apache 2.0 license. -->
<svg width="16" height="16" viewBox="0 0 16 16" fill="none" xmlns="http://www.w3.org/2000/svg">
  <g clip-path="url(#clip0)">
    <path fill-rule="evenodd" clip-rule="evenodd"
          d="M16 9H4V16H16V9ZM5 10.443L6.1 10H7V15H6V11L5.157 11.225L5 10.443ZM8 15V14.134L9.654 12.778C10.272 12.267 10.514 11.997 10.514 11.585C10.514 11.166 10.236 10.939 9.846 10.939C9.463 10.939 9.2 11.152 8.831 11.606L8.064 10.989C8.554 10.321 9.03 9.959 9.917 9.959C10.947 9.959 11.628 10.563 11.628 11.493C11.628 12.338 11.202 12.749 10.322 13.431L9.612 14H11.678V15H8ZM11.77 14.197C12.193 14.697 12.806 15.05 13.695 15.05C14.795 15.05 15.471 14.366 15.471 13.421C15.471 12.505 14.816 12.152 14.146 12.039L15.394 10.848V10H11.998V10.993H13.998L12.82 12.145L12.99 12.836H13.441C14.047 12.836 14.407 13.062 14.407 13.477C14.407 13.844 14.118 14.077 13.709 14.077C13.208 14.077 12.856 13.865 12.517 13.485L11.77 14.197Z"
          fill="#F68E1E"/>
    <path
      d="M2.82843 1.17157L1.41422 2.58579L2.82843 4L1.41422 5.41421L2.82843 6.82843L4.24264 5.41421L5.65686 6.82843L7.07107 5.41421L5.65686 4L7.07107 2.58579L5.65686 1.17157L4.24264 2.58579L2.82843 1.17157Z"
      fill="#FF5A6B"/>
    <path d="M1 3.58579V4.41421L1.41421 4L1 3.58579Z" fill="#AFB1B3"/>
    <path d="M1 6.41422V14H3V13H2V11H3V10H2V8H2.58579L1 6.41422Z" fill="#AFB1B3"/>
    <path d="M3.07107 8H5.41421L4.41421 7H4.07107L3.07107 8Z" fill="#AFB1B3"/>
    <path fill-rule="evenodd" clip-rule="evenodd"
          d="M6.89949 7L5.89949 8H15V2H7.89949L8.48528 2.58579L7.07107 4L8.07107 5H10V7H6.89949ZM11 5H14V7H11V5Z" fill="#AFB1B3"/>
  </g>
  <defs>
    <clipPath id="clip0">
      <rect width="16" height="16" fill="white"/>
    </clipPath>
  </defs>
</svg>
