<!-- Copyright 2000-2024 JetBrains s.r.o. and contributors. Use of this source code is governed by the Apache 2.0 license. -->
<svg width="16" height="16" viewBox="0 0 16 16" fill="none" xmlns="http://www.w3.org/2000/svg">
  <g clip-path="url(#clip0)">
    <path fill-rule="evenodd" clip-rule="evenodd"
          d="M8.5 8.20156C8.5 8.0911 8.58954 8.00156 8.7 8.00156H10.3C10.4105 8.00156 10.5 8.0911 10.5 8.20156V9.00156H15.5C16.0523 9.00156 16.5 9.44927 16.5 10.0016V15C16.5 15.5523 16.0523 16 15.5 16H7.5C6.94772 16 6.5 15.5523 6.5 15V10.0016C6.5 9.44927 6.94772 9.00156 7.5 9.00156H8.5V8.20156ZM11.5 15.5008C13.1569 15.5008 14.5 14.1577 14.5 12.5008C14.5 10.8439 13.1569 9.5008 11.5 9.5008C9.84315 9.5008 8.5 10.8439 8.5 12.5008C8.5 14.1577 9.84315 15.5008 11.5 15.5008ZM11.5 14C12.3284 14 13 13.3284 13 12.5C13 11.6716 12.3284 11 11.5 11C10.6716 11 10 11.6716 10 12.5C10 13.3284 10.6716 14 11.5 14Z"
          fill="#F68E1E"/>
    <path fill-rule="evenodd" clip-rule="evenodd"
          d="M2 3L2.00275 3.00158C2.09974 1.92531 4.74767 1 8 1C11.2523 1 13.9002 1.92528 13.9972 3.00153L14 3V7.00156H13V7L12.9969 7.00156H12.1442C11.7517 6.39951 11.0723 6.00156 10.3 6.00156H8.7C7.89365 6.00156 7.18862 6.43537 6.80557 7.08233C6.30715 7.20046 5.85683 7.44292 5.4892 7.77516C4.47476 7.58953 3.6132 7.30742 3 7V9.25C3.40222 9.51886 3.9113 9.76154 4.50028 9.95997C4.50009 9.97381 4.5 9.98767 4.5 10.0016V13.6247C2.98593 13.2616 2 12.6692 2 12C2 10.9924 2.00008 9.99053 2.00015 8.99056C2.00031 6.99628 2.00046 5.00954 2 3ZM8 4.06274C9.55671 4.06274 11.6896 4.01343 13 3C11.801 2.07271 9.39721 2 8 2C6.60279 2 4.19904 2.07271 3 3C4.31042 4.01342 6.44328 4.06274 8 4.06274Z"
          fill="#362F8A"/>
  </g>
  <defs>
    <clipPath id="clip0">
      <rect width="16" height="16" fill="white" transform="translate(0.5)"/>
    </clipPath>
  </defs>
</svg>
