<!-- Copyright 2000-2024 JetBrains s.r.o. and contributors. Use of this source code is governed by the Apache 2.0 license. -->
<svg width="16" height="16" viewBox="0 0 16 16" fill="none" xmlns="http://www.w3.org/2000/svg">
  <g clip-path="url(#clip0)">
    <path fill-rule="evenodd" clip-rule="evenodd"
          d="M7.80041 10.6662L11.8513 6.16521C11.9308 6.07693 12.0692 6.07693 12.1487 6.16521L16.1996 10.6662C16.3154 10.7949 16.2241 11 16.0509 11L13.5 11L13.5 16L10.5 16L10.5 11L7.94907 11C7.77591 11 7.68457 10.7949 7.80041 10.6662Z"
          fill="#F68E1E"/>
    <path fill-rule="evenodd" clip-rule="evenodd"
          d="M2 3L2.00275 3.00158C2.09974 1.92531 4.74767 1 8 1C11.2523 1 13.9002 1.92528 13.9972 3.00153L14 3V5.23255L13.6353 4.82727C12.7613 3.85623 11.2387 3.85625 10.3648 4.82727L7.51668 7.99179C5.63107 7.92765 3.99112 7.49689 3 7V9.25C3.67513 9.70129 4.65131 10.0788 5.80112 10.2972C5.49863 11.588 6.44222 13 7.94908 13H8.5V13.9932C8.33513 13.9977 8.16838 14 8 14C4.68629 14 2 13.1046 2 12C2 10.9924 2.00008 9.99053 2.00015 8.99056C2.00031 6.99628 2.00046 5.00954 2 3ZM8 4.06274C9.55671 4.06274 11.6896 4.01343 13 3C11.801 2.07271 9.39721 2 8 2C6.60279 2 4.19904 2.07271 3 3C4.31042 4.01342 6.44328 4.06274 8 4.06274Z"
          fill="#362F8A"/>
  </g>
  <defs>
    <clipPath id="clip0">
      <rect width="16" height="16" fill="white" transform="translate(0.5)"/>
    </clipPath>
  </defs>
</svg>
