<!-- Copyright 2000-2024 JetBrains s.r.o. and contributors. Use of this source code is governed by the Apache 2.0 license. -->
<svg width="16" height="16" viewBox="0 0 16 16" fill="none" xmlns="http://www.w3.org/2000/svg">
  <g clip-path="url(#clip0)">
    <path
      d="M11.6646 8.08545C11.7208 7.97152 11.8833 7.97151 11.9395 8.08545L13.118 10.4733C13.1403 10.5186 13.1835 10.5499 13.2334 10.5572L15.8686 10.9401C15.9943 10.9584 16.0445 11.1129 15.9535 11.2016L14.0467 13.0602C14.0106 13.0955 13.9941 13.1462 14.0026 13.1959L14.4528 15.8204C14.4743 15.9457 14.3428 16.0412 14.2303 15.9821L11.8734 14.7429C11.8287 14.7194 11.7754 14.7194 11.7307 14.7429L9.37377 15.982C9.2613 16.0412 9.12986 15.9457 9.15134 15.8204L9.60148 13.1959C9.61001 13.1462 9.59352 13.0955 9.55739 13.0602L7.65057 11.2016C7.55959 11.1129 7.60979 10.9584 7.73553 10.9401L10.3707 10.5572C10.4206 10.5499 10.4638 10.5186 10.4861 10.4733L11.6646 8.08545Z"
      fill="#F68E1E"/>
    <path fill-rule="evenodd" clip-rule="evenodd"
          d="M1.99925 4.46322L1.99999 4.46399V15H7.26286L7.43437 14H2.99999V5.46153H6.59999V1.99999H13V6.35828C13.2979 6.55661 13.5538 6.83729 13.733 7.20032L14 7.7413V0.99999H5.61669L5.60963 0.992645L5.60199 0.99999H5.59999V1.00191L1.99925 4.46322ZM3.44399 4.46153H5.59999V2.38901L3.44399 4.46153Z"
          fill="#362F8A"/>
    <path d="M7.22757 9.00399C6.63025 9.15205 6.17304 9.52837 5.89786 10.004H4.99999V9.00399H7.22757Z" fill="#362F8A"/>
    <path d="M9.98277 6.99999C9.94288 7.06372 9.90558 7.1305 9.87112 7.20032L9.47646 7.99999H4.99999V6.99999H9.98277Z" fill="#362F8A"/>
    <path d="M5.60442 11C5.58826 11.3368 5.65042 11.68 5.80054 12H4.99999V11H5.60442Z" fill="#362F8A"/>
  </g>
  <defs>
    <clipPath id="clip0">
      <rect width="16" height="16" fill="white"/>
    </clipPath>
  </defs>
</svg>
