<!-- Copyright 2000-2024 JetBrains s.r.o. and contributors. Use of this source code is governed by the Apache 2.0 license. -->
<svg width="16" height="16" viewBox="0 0 16 16" fill="none" xmlns="http://www.w3.org/2000/svg">
  <path d="M3.5 2H2V6.00448C1.43935 6.05501 1 6.5262 1 7.1L1 1H3.5V2Z" fill="#362F8A"/>
  <path d="M8.41418 15H10.5V14H9.41418L8.41418 15Z" fill="#362F8A"/>
  <path d="M10.4142 13L11.4142 12H14V13H10.4142Z" fill="#362F8A"/>
  <path d="M11.9171 11C11.9172 10.6929 11.8 10.3858 11.5657 10.1514L11.4142 10H14V11H11.9171Z" fill="#362F8A"/>
  <path d="M10.4142 9H14V8H10V8.58576L10.4142 9Z" fill="#362F8A"/>
  <path d="M9 7.58576V7H10.5V6H8V6.58817C8.0164 6.60297 8.03258 6.61834 8.04853 6.63429L9 7.58576Z" fill="#362F8A"/>
  <path d="M6.09761 7H4.99552C4.99849 7.03294 5 7.06629 5 7.1V8H6V7.48281C6 7.30617 6.03529 7.14409 6.09761 7Z" fill="#362F8A"/>
  <path d="M7 6V5H3V6H7Z" fill="#362F8A"/>
  <path d="M6.5 2H8V5H9V1H6.5V2Z" fill="#362F8A"/>
  <path d="M3 4H7V3H3V4Z" fill="#362F8A"/>
  <path d="M15 7H13.5V6H16V15H13.5V14H15V7Z" fill="#362F8A"/>
  <path fill-rule="evenodd" clip-rule="evenodd"
        d="M2 7.1C2 7.04477 2.04477 7 2.1 7H3.9C3.95523 7 4 7.04477 4 7.1V9.9C4 9.95523 4.04477 10 4.1 10H6.9C6.95523 10 7 9.95523 7 9.9V7.48281C7 7.30463 7.21543 7.2154 7.34142 7.34139L10.8586 10.8585C10.9367 10.9367 10.9367 11.0633 10.8586 11.1414L7.34142 14.6585C7.21543 14.7845 7 14.6953 7 14.5171V12.1C7 12.0448 6.95523 12 6.9 12H4H2.1C2.04477 12 2 11.9552 2 11.9L2 10L2 7.1Z"
        fill="#F68E1E"/>
</svg>
