<!-- Copyright 2000-2024 JetBrains s.r.o. and contributors. Use of this source code is governed by the Apache 2.0 license. -->
<svg width="16" height="16" viewBox="0 0 16 16" fill="none" xmlns="http://www.w3.org/2000/svg">
  <path
    d="M11.8586 13.8586L9.34143 11.3414C9.21543 11.2154 9.30467 11 9.48285 11L12 11L14.5172 11C14.6953 11 14.7846 11.2154 14.6586 11.3414L12.1414 13.8586C12.0633 13.9367 11.9367 13.9367 11.8586 13.8586Z"
    fill="#F68E1E"/>
  <path fill-rule="evenodd" clip-rule="evenodd"
        d="M14.1846 10L12.708 8.94001C12.8312 8.31931 12.8315 7.68067 12.708 7.06001L14.186 6.00001C13.9044 5.13028 13.4423 4.32982 12.83 3.65101L11.172 4.39801C10.7 3.98301 10.147 3.65801 9.53699 3.45301L9.357 1.64301C8.46233 1.45282 7.53767 1.45282 6.643 1.64301L6.463 3.45301C5.86074 3.65651 5.30496 3.97774 4.828 4.39801L3.17 3.65001C2.55755 4.32911 2.09546 5.12993 1.814 6.00001L3.292 7.05901C3.16841 7.68026 3.16841 8.31976 3.292 8.94101L1.814 10.001C2.09559 10.8707 2.55767 11.6712 3.17 12.35L4.828 11.603C5.30496 12.0233 5.86074 12.3445 6.463 12.548L6.643 14.358C7.53767 14.5482 8.46233 14.5482 9.357 14.358L9.50053 12.9147L8.63432 12.0485C7.87835 11.2926 8.41376 10 9.48284 10H14.1846ZM8.88017 10.1249C8.60112 10.2405 8.30204 10.3 8 10.3C7.39 10.3 6.80498 10.0577 6.37365 9.62636C5.94232 9.19502 5.7 8.61001 5.7 8.00001C5.7 7.39001 5.94232 6.805 6.37365 6.37367C6.80498 5.94233 7.39 5.70001 8 5.70001C8.30204 5.70001 8.60112 5.7595 8.88017 5.87509C9.15922 5.99067 9.41277 6.16009 9.62634 6.37367C9.83992 6.58724 10.0093 6.84079 10.1249 7.11984C10.2405 7.39889 10.3 7.69797 10.3 8.00001C10.3 8.30205 10.2405 8.60113 10.1249 8.88018C10.0093 9.15923 9.83992 9.41278 9.62634 9.62636C9.41277 9.83993 9.15922 10.0093 8.88017 10.1249Z"
        fill="#362F8A"/>
</svg>
