<!-- Copyright 2000-2024 JetBrains s.r.o. and contributors. Use of this source code is governed by the Apache 2.0 license. -->
<svg width="16" height="16" viewBox="0 0 16 16" fill="none" xmlns="http://www.w3.org/2000/svg">
  <g clip-path="url(#clip0)">
    <path fill-rule="evenodd" clip-rule="evenodd"
          d="M15.8896 1.80314C16.0368 1.95177 16.0368 2.3478 15.8896 2.4955L15.1994 3.18786L13.819 1.80314L14.5092 1.11078C14.6564 0.963074 15.0512 0.963074 15.1994 1.11078L15.8896 1.80314ZM13.3589 2.26517L14.7388 3.64944L11.3804 7H10V5.61528L13.3589 2.26517Z"
          fill="#F68E1E"/>
    <path fill-rule="evenodd" clip-rule="evenodd"
          d="M10.8497 3.35548C10.6065 2.81641 10.245 2.33392 9.78706 1.94641C9.06396 1.33458 8.14721 0.999209 7.2 0.999998C6.24539 1.00215 5.32299 1.34546 4.59927 1.96797C3.87555 2.59048 3.3982 3.45119 3.25335 4.39475C3.1085 5.33831 3.30571 6.30257 3.80937 7.1135C4.31304 7.92443 5.08999 8.52861 6 8.817V15H8.5V13.5H11V11H8.5V8.784C9.00063 8.61245 9.45817 8.34475 9.84909 8H9V5.2003L10.8497 3.35548ZM8.18995 5.98995C7.9274 6.2525 7.5713 6.4 7.2 6.4C6.8287 6.4 6.4726 6.2525 6.21005 5.98995C5.9475 5.7274 5.8 5.3713 5.8 5C5.8 4.6287 5.9475 4.2726 6.21005 4.01005C6.4726 3.7475 6.8287 3.6 7.2 3.6C7.5713 3.6 7.9274 3.7475 8.18995 4.01005C8.4525 4.2726 8.6 4.6287 8.6 5C8.6 5.3713 8.4525 5.7274 8.18995 5.98995Z"
          fill="#F68E1E"/>
  </g>
  <defs>
    <clipPath id="clip0">
      <rect width="16" height="16" fill="white"/>
    </clipPath>
  </defs>
</svg>
