<!-- Copyright 2000-2024 JetBrains s.r.o. and contributors. Use of this source code is governed by the Apache 2.0 license. -->
<svg width="16" height="16" viewBox="0 0 16 16" fill="none" xmlns="http://www.w3.org/2000/svg">
  <path
    d="M4.5 7C3.11929 7 2 5.88071 2 4.5C2 3.11929 3.11929 2 4.5 2V0C2.01472 0 0 2.01472 0 4.5C0 6.98528 2.01472 9 4.5 9C6.81104 9 8.71518 7.25788 8.97082 5.01526H11.0169C11.188 5.01526 11.2801 4.81453 11.1686 4.68486L8.1529 1.17782C8.07267 1.08451 7.92802 1.0851 7.84855 1.17906L4.88228 4.6861C4.77234 4.81609 4.86474 5.01526 5.03499 5.01526H6.94684C6.70935 6.14877 5.70408 7 4.5 7Z"
    fill="#F68E1E"/>
  <g opacity="0.5">
    <path d="M9.40006 7C9.55962 6.68784 9.69024 6.35841 9.7884 6.01526H11.0169C11.0846 6.01526 11.1503 6.01002 11.2136 6H12V7H9.40006Z"
          fill="#362F8A"/>
    <path d="M7.65746 9.004C8.06138 8.72028 8.42539 8.38359 8.73941 8.004H12V9.004H7.65746Z" fill="#362F8A"/>
    <path d="M2 9.40029C1.64222 9.21739 1.30711 8.99647 1 8.74284V15H5V14H2V9.40029Z" fill="#362F8A"/>
    <path d="M4 10V11H12V10H4Z" fill="#362F8A"/>
    <path d="M14 2H11V1H15V15H11V14H14V2Z" fill="#362F8A"/>
  </g>
</svg>
