<!-- Copyright 2000-2024 JetBrains s.r.o. and contributors. Use of this source code is governed by the Apache 2.0 license. -->
<svg width="16" height="16" viewBox="0 0 16 16" fill="none" xmlns="http://www.w3.org/2000/svg">
  <path fill-rule="evenodd" clip-rule="evenodd"
        d="M5.00229 5.69365C5.00128 5.69305 5 5.69364 5 5.69482C5 6.99627 5 10.7564 5 13.3077C5 14.2423 7.23858 15 10 15C12.7614 15 15 14.2423 15 13.3077C15 10.7552 15 8.24523 15 5.69231L14.9977 5.6936C14.9168 4.78293 12.7102 4 10 4C7.28973 4 5.08311 4.78295 5.00229 5.69365ZM14.1667 9.07692C13.2709 9.53292 11.7391 9.92309 10 9.92309C8.26086 9.92309 6.7291 9.53291 5.83333 9.07692V10.9808C6.7291 11.5888 8.26086 12.0385 10 12.0385C11.7391 12.0385 13.2709 11.5888 14.1667 10.9808V9.07692ZM14.1667 5.69231C13.0747 6.54982 11.2973 6.59155 10 6.59155C8.70274 6.59155 6.92535 6.54982 5.83333 5.69231C6.83254 4.90767 8.83566 4.84615 10 4.84615C11.1643 4.84615 13.1675 4.90767 14.1667 5.69231Z"
        fill="#362F8A"/>
  <path opacity="0.5"
        d="M1 2.69231L1.00229 2.69365C1.08311 1.78295 3.28973 1 6 1C8.71023 1 10.9168 1.78293 10.9977 2.6936L11 2.69231V3.02957C10.6748 3.01015 10.3407 3 10 3C9.89195 3 9.78456 3.00102 9.67791 3.00304C9.85186 2.91367 10.0158 2.81077 10.1667 2.69231C9.16747 1.90767 7.16434 1.84615 6 1.84615C4.83566 1.84615 2.83254 1.90767 1.83333 2.69231C2.8799 3.51414 4.556 3.58667 5.83564 3.59128C4.7449 3.95765 4.05151 4.46054 4.00275 5.00158L4 5.003V6.74957C3.11457 6.59302 2.36284 6.34647 1.83333 6.07692V7.98077C2.36284 8.34016 3.11457 8.64425 4 8.83283V11.8592C2.2341 11.598 1 11.0016 1 10.3077C1 9.45511 1.00006 8.60737 1.00013 7.76124C1.00025 6.07377 1.00038 4.39269 1 2.69231Z"
        fill="#362F8A"/>
</svg>
