<!-- Copyright 2000-2024 JetBrains s.r.o. and contributors. Use of this source code is governed by the Apache 2.0 license. -->
<svg width="16" height="16" viewBox="0 0 16 16" fill="none" xmlns="http://www.w3.org/2000/svg">
  <path fill-rule="evenodd" clip-rule="evenodd" d="M7 1L3 5H7V1Z" fill="#AFB1B3"/>
  <path fill-rule="evenodd" clip-rule="evenodd"
        d="M7.02 8.4H7V14.97H3V6H8V1H13V7.422C12.6669 7.40724 12.3335 7.3999 12 7.4C9.393 7.4 7.252 7.84 7.02 8.4V8.4Z" fill="#AFB1B3"/>
  <path fill-rule="evenodd" clip-rule="evenodd"
        d="M8 10.156C8.885 10.628 10.347 10.936 12 10.936C13.653 10.936 15.115 10.628 16 10.156V11.009C16 11.617 14.21 12.11 12 12.11C9.79 12.11 8 11.617 8 11.01V10.156ZM16 12.064V12.971C16 13.549 14.21 14.018 12 14.018C9.79 14.018 8 13.549 8 12.971V12.064C8.885 12.536 10.347 12.844 12 12.844C13.653 12.844 15.115 12.536 16 12.064ZM16 13.973V14.899C16 15.507 14.21 16 12 16C9.79 16 8 15.507 8 14.9V13.973C8.885 14.444 10.347 14.753 12 14.753C13.653 14.753 15.115 14.444 16 13.973ZM12 10.202C9.79 10.202 8 9.709 8 9.101C8 8.493 9.79 8 12 8C14.21 8 16 8.493 16 9.1C16 9.709 14.21 10.202 12 10.202V10.202Z"
        fill="#F68E1E"/>
</svg>
