<svg data-name="Layer 1" xmlns="http://www.w3.org/2000/svg" width="16" height="16"><path d="M4.984 5.697c-.196-.494-.7-2.297-.812-2.983.231-.001.442.143.56.579.142.528.505 2.449 1.129 2.992-.34.013-.683-.101-.876-.589ZM9.286 2s-1 2.237-1.169 2.527a4.269 4.269 0 0 1-.364.553C8.082 4.207 8.769 2 8.769 2h-.12c-.952 0-1.33.709-1.537 1.728-.101.494-.453 1.822-.618 2.196-.11-.343-.38-2.29-.734-3.066-.26-.57-.615-.857-1.134-.857H2.951c-.323 0-.647.183-1.022.564C1.338 3.167.435 4.891 0 6.992h.859c.216-1.181.638-2.401 1.269-3.206-.364.939-.711 2.37-.826 3.193.672-.061 1.141-.411 1.228-1.05.117-.856.446-2.277.985-2.91.117.416.391 2.058.576 2.641.248.783.497 1.34 1.084 1.34h1.863c.506 0 .891-.622 1.248-1.223C8.597 5.253 9.832 2.658 10 2h-.714Z" fill="#40b6e0" fill-rule="evenodd"/><path d="M10.607 3.263a40.568 40.568 0 0 1-.824 1.814c.345.541.679 1.193.909 1.961H8.684c-.384.521-.902 1-1.646 1h-.967a7.863 7.863 0 0 0 0 2H4.412c-.07-.323-.112-.656-.112-1s.042-.677.112-1h.763c-.943 0-1.444-.63-1.736-1.244a5.962 5.962 0 0 0-.438 2.244 6.003 6.003 0 0 0 6 6 6.003 6.003 0 0 0 6-6 5.999 5.999 0 0 0-4.393-5.774Zm2.629 3.774h-1.503a8.553 8.553 0 0 0-1.016-2.358 4.732 4.732 0 0 1 2.519 2.358Zm-6.152 1h3.832c.047.32.078.651.078 1s-.031.68-.078 1H7.084c-.047-.32-.078-.651-.078-1s.031-.68.078-1Zm-2.32 3h1.503a8.524 8.524 0 0 0 1.016 2.358 4.732 4.732 0 0 1-2.519-2.358Zm4.513 2.68c-.093.005-.182.019-.277.02-.095 0-.184-.015-.277-.02a7.968 7.968 0 0 1-1.415-2.68h3.384a7.968 7.968 0 0 1-1.415 2.68Zm1.44-.322a8.524 8.524 0 0 0 1.016-2.358h1.503a4.732 4.732 0 0 1-2.519 2.358Zm1.212-3.358a7.863 7.863 0 0 0 0-2h1.659c.07.323.112.656.112 1s-.042.677-.112 1h-1.659Z" fill="#9aa7b0" fill-rule="evenodd"/></svg>