<?xml version="1.0" encoding="UTF-8"?>
<svg xmlns="http://www.w3.org/2000/svg" xmlns:xlink="http://www.w3.org/1999/xlink" width="15px" height="5px" viewBox="0 0 15 5" version="1.1">
<g id="surface1">
<path style=" stroke:none;fill-rule:nonzero;fill:rgb(0%,25.098041%,99.607843%);fill-opacity:1;" d="M 13.535156 4.816406 L 1.246094 4.816406 C 1.207031 4.640625 1.34375 4.582031 1.445312 4.503906 L 3.242188 3.234375 C 3.035156 3.214844 2.835938 3.242188 2.644531 3.171875 C 2.554688 3.140625 2.460938 3.105469 2.386719 3.039062 C 1.71875 2.492188 1.136719 1.847656 0.621094 1.136719 C 0.570312 1.066406 0.523438 1 0.460938 0.945312 C 0.261719 0.773438 0.160156 0.546875 0.113281 0.289062 L 0.113281 0.132812 C 0.273438 0.09375 0.394531 0.179688 0.511719 0.261719 C 1.089844 0.667969 1.738281 0.738281 2.410156 0.707031 C 3.0625 0.671875 3.707031 0.570312 4.363281 0.523438 C 5.082031 0.46875 5.785156 0.527344 6.460938 0.785156 C 6.597656 0.839844 6.710938 0.78125 6.824219 0.707031 C 7.40625 0.296875 7.363281 0.296875 7.941406 0.707031 C 8.085938 0.808594 8.21875 0.828125 8.378906 0.765625 C 9.203125 0.441406 10.0625 0.46875 10.917969 0.570312 C 11.460938 0.636719 12.003906 0.714844 12.550781 0.726562 C 13.15625 0.738281 13.757812 0.640625 14.28125 0.25 C 14.386719 0.167969 14.511719 0.0859375 14.660156 0.132812 L 14.660156 0.285156 C 14.613281 0.542969 14.476562 0.742188 14.320312 0.949219 L 13.550781 1.910156 C 13.3125 2.214844 13.050781 2.496094 12.746094 2.726562 C 12.671875 2.777344 12.597656 2.832031 12.535156 2.902344 C 12.34375 3.132812 12.09375 3.21875 11.8125 3.230469 C 11.722656 3.234375 11.628906 3.226562 11.539062 3.242188 C 12.140625 3.664062 12.75 4.066406 13.328125 4.515625 C 13.441406 4.582031 13.585938 4.636719 13.539062 4.816406 Z M 13.535156 4.816406 "/>
<path style=" stroke:none;fill-rule:nonzero;fill:rgb(98.431373%,98.431373%,99.607843%);fill-opacity:1;" d="M 13.109375 4.710938 L 1.675781 4.710938 L 2.175781 4.34375 L 7.226562 0.789062 C 7.328125 0.714844 7.410156 0.675781 7.53125 0.765625 L 13.003906 4.632812 C 13.027344 4.636719 13.050781 4.660156 13.109375 4.707031 Z M 13.109375 4.710938 "/>
<path style=" stroke:none;fill-rule:nonzero;fill:rgb(99.607843%,99.607843%,99.607843%);fill-opacity:1;" d="M 6.414062 1.144531 L 5.476562 1.804688 C 5.421875 1.84375 5.375 1.882812 5.308594 1.816406 C 4.902344 1.421875 4.382812 1.414062 3.882812 1.386719 C 3.207031 1.347656 2.523438 1.351562 1.863281 1.164062 C 1.691406 1.113281 1.523438 1.050781 1.359375 0.972656 C 2.488281 1.136719 3.585938 0.835938 4.703125 0.800781 C 5.203125 0.785156 5.699219 0.828125 6.179688 1 C 6.257812 1.027344 6.347656 1.042969 6.414062 1.140625 Z M 8.347656 1.121094 C 8.777344 0.894531 9.214844 0.835938 9.65625 0.808594 C 10.265625 0.769531 10.863281 0.863281 11.464844 0.925781 C 12.105469 0.996094 12.75 1.0625 13.398438 0.96875 C 12.988281 1.183594 12.550781 1.277344 12.105469 1.3125 L 10.511719 1.414062 C 10.140625 1.441406 9.777344 1.519531 9.488281 1.796875 C 9.425781 1.855469 9.378906 1.855469 9.320312 1.8125 L 8.34375 1.121094 Z M 8.347656 1.121094 "/>
<path style=" stroke:none;fill-rule:nonzero;fill:rgb(95.686275%,96.470588%,99.607843%);fill-opacity:1;" d="M 2.792969 1.902344 C 3.109375 1.894531 3.421875 1.90625 3.726562 1.832031 C 3.847656 1.804688 3.910156 1.878906 3.941406 2.019531 C 3.542969 2.046875 3.160156 2.113281 2.792969 1.902344 Z M 2.792969 1.902344 "/>
<path style=" stroke:none;fill-rule:nonzero;fill:rgb(91.764706%,93.725491%,99.607843%);fill-opacity:1;" d="M 2.386719 1.476562 C 2.78125 1.566406 3.199219 1.476562 3.585938 1.628906 C 3.164062 1.761719 2.757812 1.730469 2.386719 1.476562 Z M 11.203125 1.636719 C 11.582031 1.472656 11.984375 1.566406 12.367188 1.496094 C 12.003906 1.746094 11.609375 1.746094 11.203125 1.636719 Z M 11.203125 1.636719 "/>
<path style=" stroke:none;fill-rule:nonzero;fill:rgb(95.686275%,96.470588%,99.607843%);fill-opacity:1;" d="M 10.84375 2.007812 C 10.886719 1.859375 10.960938 1.804688 11.085938 1.835938 C 11.367188 1.902344 11.648438 1.902344 11.949219 1.878906 C 11.789062 2.054688 11.429688 2.097656 10.847656 2.007812 Z M 10.84375 2.007812 "/>
<path style=" stroke:none;fill-rule:nonzero;fill:rgb(91.764706%,93.725491%,99.607843%);fill-opacity:1;" d="M 11.628906 2.492188 C 11.433594 2.722656 11.191406 2.667969 10.972656 2.632812 C 10.851562 2.617188 10.601562 2.652344 10.617188 2.523438 C 10.648438 2.339844 10.847656 2.496094 10.972656 2.488281 L 11.628906 2.488281 Z M 3.152344 2.546875 L 4.039062 2.453125 C 4.089844 2.441406 4.167969 2.425781 4.175781 2.511719 C 4.191406 2.605469 4.113281 2.59375 4.0625 2.605469 C 3.753906 2.640625 3.445312 2.734375 3.148438 2.546875 Z M 3.152344 2.546875 "/>
<path style=" stroke:none;fill-rule:nonzero;fill:rgb(84.705883%,88.627452%,99.607843%);fill-opacity:1;" d="M 11.976562 2.175781 C 11.566406 2.46875 11.132812 2.296875 10.707031 2.246094 C 10.910156 2.160156 11.121094 2.226562 11.332031 2.234375 C 11.550781 2.238281 11.761719 2.183594 11.976562 2.175781 Z M 11.976562 2.175781 "/>
<path style=" stroke:none;fill-rule:nonzero;fill:rgb(84.705883%,88.235295%,99.607843%);fill-opacity:1;" d="M 2.804688 2.152344 C 3.226562 2.292969 3.652344 2.195312 4.113281 2.195312 C 3.808594 2.40625 3.039062 2.386719 2.804688 2.152344 Z M 2.804688 2.152344 "/>
<path style=" stroke:none;fill-rule:nonzero;fill:rgb(94.509804%,95.686275%,99.607843%);fill-opacity:1;" d="M 13.09375 1.726562 C 12.789062 1.898438 12.492188 1.984375 12.230469 1.980469 C 12.3125 1.816406 12.46875 1.828125 12.59375 1.785156 C 12.722656 1.738281 12.859375 1.710938 12.992188 1.671875 C 13.050781 1.644531 13.09375 1.628906 13.09375 1.726562 Z M 1.796875 1.675781 C 2.042969 1.753906 2.304688 1.789062 2.519531 1.960938 C 2.222656 1.972656 1.949219 1.875 1.691406 1.730469 C 1.6875 1.632812 1.738281 1.648438 1.796875 1.675781 Z M 1.796875 1.675781 "/>
<path style=" stroke:none;fill-rule:nonzero;fill:rgb(89.411765%,92.156863%,99.607843%);fill-opacity:1;" d="M 2.660156 2.308594 C 2.394531 2.308594 2.148438 2.234375 1.914062 2.109375 C 2.179688 2.117188 2.441406 2.140625 2.660156 2.308594 Z M 12.84375 2.105469 C 12.617188 2.265625 12.371094 2.296875 12.121094 2.347656 C 12.207031 2.195312 12.566406 2.078125 12.84375 2.105469 Z M 12.84375 2.105469 "/>
<path style=" stroke:none;fill-rule:nonzero;fill:rgb(98.039216%,98.431373%,99.607843%);fill-opacity:1;" d="M 1.277344 1.1875 C 1.539062 1.320312 1.847656 1.335938 2.082031 1.53125 C 1.78125 1.503906 1.519531 1.363281 1.277344 1.1875 Z M 1.277344 1.1875 "/>
<path style=" stroke:none;fill-rule:nonzero;fill:rgb(92.54902%,94.509804%,99.607843%);fill-opacity:1;" d="M 13.304688 1.320312 C 13.117188 1.449219 12.894531 1.496094 12.636719 1.589844 C 12.800781 1.316406 13.042969 1.34375 13.242188 1.265625 C 13.269531 1.28125 13.300781 1.289062 13.304688 1.320312 Z M 13.304688 1.320312 "/>
<path style=" stroke:none;fill-rule:nonzero;fill:rgb(90.196079%,92.54902%,99.607843%);fill-opacity:1;" d="M 2.191406 2.433594 L 3.015625 2.597656 C 2.714844 2.683594 2.460938 2.636719 2.191406 2.433594 Z M 12.496094 2.488281 C 12.304688 2.628906 12.066406 2.683594 11.835938 2.632812 C 12.042969 2.511719 12.273438 2.519531 12.496094 2.492188 Z M 12.496094 2.488281 "/>
<path style=" stroke:none;fill-rule:nonzero;fill:rgb(82.352942%,86.666667%,99.607843%);fill-opacity:1;" d="M 3.441406 2.855469 L 3.9375 2.8125 C 3.785156 3.050781 3.6875 3.054688 3.441406 2.855469 Z M 10.824219 2.808594 L 11.347656 2.851562 C 11.101562 3.054688 11.019531 3.050781 10.824219 2.808594 Z M 10.824219 2.808594 "/>
<path style=" stroke:none;fill-rule:nonzero;fill:rgb(62.352943%,71.764708%,99.607843%);fill-opacity:1;" d="M 2.773438 2.90625 C 2.722656 2.914062 2.683594 2.898438 2.636719 2.828125 C 2.761719 2.796875 2.867188 2.820312 2.980469 2.855469 C 2.925781 2.929688 2.84375 2.859375 2.777344 2.90625 Z M 2.773438 2.90625 "/>
<path style=" stroke:none;fill-rule:nonzero;fill:rgb(98.823529%,99.215686%,99.607843%);fill-opacity:1;" d="M 2.773438 2.90625 L 2.972656 2.851562 C 3.046875 2.863281 3.132812 2.824219 3.226562 2.894531 C 3.0625 2.957031 2.917969 2.921875 2.773438 2.90625 Z M 12.007812 2.90625 C 11.863281 2.921875 11.726562 2.949219 11.566406 2.90625 C 11.644531 2.808594 11.730469 2.875 11.808594 2.851562 C 11.878906 2.847656 11.972656 2.777344 12.007812 2.90625 Z M 12.007812 2.90625 "/>
<path style=" stroke:none;fill-rule:nonzero;fill:rgb(83.529413%,87.450981%,99.607843%);fill-opacity:1;" d="M 13.09375 1.726562 C 13.058594 1.710938 13.027344 1.695312 12.992188 1.671875 C 13.082031 1.625 13.164062 1.550781 13.289062 1.570312 C 13.253906 1.679688 13.175781 1.703125 13.09375 1.726562 Z M 13.09375 1.726562 "/>
<path style=" stroke:none;fill-rule:nonzero;fill:rgb(62.352943%,71.764708%,99.607843%);fill-opacity:1;" d="M 12.007812 2.90625 L 11.808594 2.851562 L 12.042969 2.8125 C 12.078125 2.808594 12.105469 2.828125 12.089844 2.871094 C 12.078125 2.914062 12.042969 2.910156 12.007812 2.90625 Z M 12.007812 2.90625 "/>
<path style=" stroke:none;fill-rule:nonzero;fill:rgb(81.960785%,86.274511%,99.607843%);fill-opacity:1;" d="M 1.796875 1.675781 C 1.757812 1.691406 1.730469 1.710938 1.691406 1.730469 C 1.625 1.707031 1.558594 1.703125 1.539062 1.59375 C 1.636719 1.578125 1.722656 1.625 1.796875 1.675781 Z M 1.796875 1.675781 "/>
<path style=" stroke:none;fill-rule:nonzero;fill:rgb(98.039216%,98.431373%,99.607843%);fill-opacity:1;" d="M 13.304688 1.320312 C 13.285156 1.304688 13.261719 1.285156 13.242188 1.265625 L 13.515625 1.152344 C 13.453125 1.289062 13.378906 1.308594 13.304688 1.320312 Z M 13.304688 1.320312 "/>
<path style=" stroke:none;fill-rule:nonzero;fill:rgb(0%,25.098041%,99.607843%);fill-opacity:1;" d="M 12.558594 4.539062 L 2.28125 4.539062 C 2.34375 4.429688 2.441406 4.382812 2.523438 4.324219 L 7.203125 1.023438 C 7.339844 0.921875 7.441406 0.917969 7.589844 1.019531 L 12.25 4.308594 Z M 12.558594 4.539062 "/>
<path style=" stroke:none;fill-rule:nonzero;fill:rgb(99.607843%,99.607843%,99.607843%);fill-opacity:1;" d="M 9.460938 4.300781 L 8.84375 4.300781 C 8.789062 4.308594 8.730469 4.277344 8.699219 4.226562 L 8.082031 3.269531 C 8.023438 3.183594 8.03125 3.15625 8.132812 3.113281 C 8.644531 2.894531 8.742188 2.59375 8.464844 2.089844 C 8.433594 2.035156 8.367188 1.992188 8.402344 1.871094 L 9.542969 2.671875 C 8.886719 3.046875 8.828125 3.808594 9.460938 4.304688 Z M 9.460938 4.300781 "/>
<path style=" stroke:none;fill-rule:nonzero;fill:rgb(98.431373%,98.823529%,99.607843%);fill-opacity:1;" d="M 7.332031 1.226562 L 7.332031 4.148438 C 7.332031 4.253906 7.300781 4.308594 7.195312 4.300781 L 7.171875 4.300781 C 6.515625 4.335938 6.511719 4.332031 6.671875 3.671875 L 7.199219 1.429688 C 7.214844 1.359375 7.207031 1.273438 7.335938 1.226562 Z M 7.332031 1.226562 "/>
<path style=" stroke:none;fill-rule:nonzero;fill:rgb(99.215686%,99.607843%,99.607843%);fill-opacity:1;" d="M 6.144531 4.28125 L 6.101562 4.296875 C 5.480469 4.34375 5.480469 4.34375 5.3125 3.714844 L 5.113281 3.007812 C 5.054688 2.847656 5.085938 2.765625 5.21875 2.675781 C 5.625 2.398438 5.621094 2.394531 5.753906 2.863281 Z M 6.144531 4.28125 "/>
<path style=" stroke:none;fill-rule:nonzero;fill:rgb(99.215686%,99.215686%,99.607843%);fill-opacity:1;" d="M 11.78125 4.300781 L 10 4.300781 C 10.339844 4.042969 10.460938 3.714844 10.386719 3.265625 L 11.796875 4.253906 C 11.796875 4.269531 11.789062 4.285156 11.78125 4.300781 Z M 2.976562 4.257812 L 4.617188 3.105469 L 4.332031 4.222656 C 4.304688 4.328125 4.222656 4.308594 4.148438 4.308594 L 3 4.308594 C 2.996094 4.28125 2.988281 4.273438 2.976562 4.257812 Z M 2.976562 4.257812 "/>
<path style=" stroke:none;fill-rule:nonzero;fill:rgb(98.823529%,99.215686%,99.607843%);fill-opacity:1;" d="M 6.792969 1.574219 L 6.339844 3.496094 C 6.324219 3.5 6.3125 3.503906 6.292969 3.507812 L 5.945312 2.246094 C 5.929688 2.183594 5.96875 2.148438 6.007812 2.121094 Z M 6.792969 1.574219 "/>
<path style=" stroke:none;fill-rule:nonzero;fill:rgb(98.823529%,98.823529%,99.607843%);fill-opacity:1;" d="M 10.058594 3.5 C 10.058594 3.769531 9.902344 3.980469 9.707031 3.972656 C 9.523438 3.96875 9.363281 3.757812 9.363281 3.511719 C 9.359375 3.257812 9.523438 3.027344 9.707031 3.023438 C 9.902344 3.023438 10.058594 3.238281 10.058594 3.5 Z M 7.679688 1.703125 C 7.925781 1.945312 8.128906 2.152344 8.234375 2.433594 C 8.28125 2.558594 8.265625 2.652344 8.148438 2.710938 C 8.011719 2.777344 7.859375 2.835938 7.707031 2.789062 C 7.691406 2.78125 7.683594 2.726562 7.683594 2.695312 Z M 7.679688 1.703125 "/>
<path style=" stroke:none;fill-rule:nonzero;fill:rgb(98.823529%,99.215686%,99.607843%);fill-opacity:1;" d="M 7.730469 3.386719 L 8.328125 4.308594 L 7.773438 4.308594 C 7.734375 4.308594 7.6875 4.296875 7.6875 4.246094 L 7.6875 3.398438 C 7.703125 3.390625 7.71875 3.390625 7.734375 3.390625 Z M 7.730469 3.386719 "/>
<path style=" stroke:none;fill-rule:nonzero;fill:rgb(99.607843%,99.607843%,99.607843%);fill-opacity:1;" d="M 4.703125 4.261719 C 4.820312 4.191406 4.960938 4.191406 5.074219 4.261719 C 4.953125 4.308594 4.824219 4.308594 4.703125 4.261719 Z M 4.703125 4.261719 "/>
<path style=" stroke:none;fill-rule:nonzero;fill:rgb(85.490197%,89.019608%,99.607843%);fill-opacity:1;" d="M 4.886719 3.601562 C 4.921875 3.679688 4.992188 3.746094 4.925781 3.835938 C 4.917969 3.851562 4.851562 3.851562 4.835938 3.835938 C 4.773438 3.753906 4.84375 3.683594 4.886719 3.601562 Z M 4.886719 3.601562 "/>
</g>
</svg>
