<!-- Copyright © 2000–2024 JetBrains s.r.o. -->
<svg width="32" height="32" viewBox="0 0 32 32" xmlns="http://www.w3.org/2000/svg">
  <defs>
    <linearGradient id="a" x1="4419.15" x2="4448.46" y1="-4164.97" y2="-4135.67" gradientTransform="matrix(1 0 0 -1 -4417 -4135)" gradientUnits="userSpaceOnUse">
      <stop offset=".29" stop-color="#ff45ed"/>
      <stop offset=".7" stop-color="#ff0a67"/>
    </linearGradient>
    <linearGradient id="b" x1="4416.81" x2="4429.2" y1="-4138.83" y2="-4165.56" gradientTransform="matrix(1 0 0 -1 -4417 -4135)" gradientUnits="userSpaceOnUse">
      <stop offset=".3" stop-color="#fdb60d"/>
      <stop offset=".54" stop-color="#ff45ed"/>
    </linearGradient>
  </defs>
  <path fill="url(#a)" d="M29.94 0H12.88c-.83 0-1.58.49-1.9 1.26L3.07 19.97c-.11.26-.13.54-.12.82v9.16c0 1.13.97 2.05 2.1 2.05h8.83c.4 0 .79-.12 1.13-.34L31.07 21.1c.58-.38.93-1.03.93-1.72V2.06C32 .92 31.07 0 29.94 0"/>
  <path fill="url(#b)" d="M7.5 3H2.06C.92 3 0 3.93 0 5.06v6.28c0 .1 0 .2.02.3l2.73 18.59A2.065 2.065 0 0 0 4.79 32h7.7c1.14 0 2.06-.93 2.06-2.06v-9.25c0-.22-.04-.43-.1-.62L9.46 4.45A2.06 2.06 0 0 0 7.5 3.01Z"/>
  <path fill="#fdb60d" d="M8.23 3H2.09C.95 3 0 3.94.02 5.09v5.41c.01.59.38 1.27.82 1.65L19.92 28.5c.38.32.85.49 1.34.49h5.68c1.14 0 2.06-.93 2.06-2.06v-5.5c0-.6-.25-1.16-.71-1.55L9.58 3.51C9.2 3.18 8.72 3 8.22 3Z"/>
  <path d="M26 6H6v20h20z"/>
  <path fill="#fff" d="M16 22H8v1.8h8z"/>
  <path fill="#fff" fill-rule="evenodd" d="m19.86 12.9.29-1.76h-1.67l-.29 1.76zm-3.45 1.36h-.87v-1.45h1.16l.29-1.74h-.96V9.62h1.25l.29-1.64h1.54l-.29 1.64h1.64l.29-1.64h1.54L22 9.62h.87v1.45h-1.16l-.29 1.74h.96v1.45h-1.25L20.84 16H19.3l.29-1.74h-1.64L17.66 16h-1.54zm-4.78-2.34c.39 0 .78-.1.98-.29s.39-.49.39-.88-.1-.69-.39-.88-.59-.29-1.08-.29H9.77v2.35h1.86ZM8 8h3.75c.99 0 1.88.3 2.37.79s.69 1.09.69 1.88c0 .69-.2 1.18-.49 1.58s-.79.69-1.28.89L15.02 16h-2.07l-1.68-2.47H9.79V16H8.01V8Z"/>
</svg>
