<svg width="16" height="16" viewBox="0 0 16 16" fill="none" xmlns="http://www.w3.org/2000/svg">
<path fill-rule="evenodd" clip-rule="evenodd" d="M4.5 14C2.019 14 0 11.981 0 9.5C0 7.5139 1.32 5.788 3.174 5.216C3.754 2.768 5.929 1 8.5 1C11.532 1 14 3.468 14 6.5V6.549C15.222 7.252 16 8.555 16 10C16 12.206 14.206 14 12 14H4.5Z" fill="#F4F4F4"/>
<path fill-rule="evenodd" clip-rule="evenodd" d="M13.7461 7.5761C13.4531 8.2812 12.7191 9.0941 11.9881 9.3322C12.6721 8.7342 13.0001 7.6562 13.0001 6.5001C13.0001 4.0142 10.9841 2.0001 8.50011 2.0001C6.54111 2.0001 4.90311 3.2631 4.29111 5.0122C5.95211 5.1671 6.73811 6.2862 6.93511 6.9972C6.30811 6.3812 5.45111 6.0001 4.50011 6.0001C4.34711 6.0001 4.19611 6.0102 4.04611 6.0462C2.33011 6.2702 1.00011 7.7222 1.00011 9.5001C1.00011 11.4322 2.56711 13.0001 4.50011 13.0001H12.0001C13.6561 13.0001 15.0001 11.6572 15.0001 10.0001C15.0001 8.9972 14.5041 8.1171 13.7461 7.5761Z" fill="#40B6E0"/>
<path fill-rule="evenodd" clip-rule="evenodd" d="M5 11V12H5.5L8 9.5L5.5 7H5V8L6.5 9.5M11 9V10H10.5L8 7.5L10.5 5H11V6L9.5 7.5L11 9Z" fill="#EBEBEB"/>
</svg>
