<svg width="16" height="16" viewBox="0 0 16 16" fill="none" xmlns="http://www.w3.org/2000/svg">
<path fill-rule="evenodd" clip-rule="evenodd" d="M11.9881 9.3322C12.7191 9.0941 13.4531 8.2812 13.7461 7.5761C14.5041 8.1171 15.0001 8.9972 15.0001 10.0001C15.0001 11.6572 13.6561 13.0001 12.0001 13.0001H4.5001C2.5671 13.0001 1.0001 11.4322 1.0001 9.5001C1.0001 7.7222 2.3301 6.2702 4.0461 6.0462C4.1961 6.0102 4.3471 6.0001 4.5001 6.0001C5.4511 6.0001 6.3081 6.3812 6.9351 6.9972C6.7381 6.2862 5.9521 5.1671 4.2911 5.0122C4.9031 3.2631 6.5411 2.0001 8.5001 2.0001C10.9841 2.0001 13.0001 4.0142 13.0001 6.5001C13.0001 7.6562 12.6721 8.7342 11.9881 9.3322ZM5 12V11L6.5 9.5L5 8V7H5.5L8 9.5L5.5 12H5ZM11 10V9L9.5 7.5L11 6V5H10.5L8 7.5L10.5 10H11Z" fill="#40B6E0"/>
</svg>
