<svg data-name="Layer 1" xmlns="http://www.w3.org/2000/svg" width="16" height="16"><defs><linearGradient id="a" x1="8" y1="2" x2="8" y2="14" gradientUnits="userSpaceOnUse"><stop offset="0" stop-color="#5c1a7a"/><stop offset="1" stop-color="#3b0054"/></linearGradient><linearGradient id="b" x1="8" y1="6" x2="8" y2="12.819" gradientUnits="userSpaceOnUse"><stop offset="0" stop-color="#e299ff"/><stop offset=".997" stop-color="#f2d1ff"/></linearGradient><linearGradient id="c" x1="8" y1="3" x2="8" y2="10.793" gradientUnits="userSpaceOnUse"><stop offset=".001" stop-color="#f9ebff"/><stop offset=".999" stop-color="#f4d9ff"/></linearGradient></defs><path d="M13.722 5c.172-.295.278-.634.278-1 0-1.103-.897-2-2-2H4c-1.103 0-2 .897-2 2 0 .366.106.705.278 1H0v9h16V5h-2.278Z" fill="url(#a)"/><path fill="url(#b)" d="M14 6v6H2V6H1v7h14V6h-1z"/><path d="M13 4a1 1 0 0 1-1 1H4a1 1 0 0 1 0-2h8a1 1 0 0 1 1 1Zm-1 2H4a1 1 0 0 0 0 2h8a1 1 0 0 0 0-2Zm0 3H4a1 1 0 0 0 0 2h8a1 1 0 0 0 0-2Z" fill="url(#c)"/></svg>