<svg width="16" height="16" viewBox="0 0 16 16" fill="none" xmlns="http://www.w3.org/2000/svg">
<path d="M2.5 12C2.5 12.8284 3.17157 13.5 4 13.5L12 13.5C12.8284 13.5 13.5 12.8284 13.5 12L13.5 4C13.5 3.17157 12.8284 2.5 12 2.5L4 2.5C3.17157 2.5 2.5 3.17157 2.5 4L2.5 12Z" fill="#EBECF0" stroke="#6C707E"/>
<path fill-rule="evenodd" clip-rule="evenodd" d="M2 12L2 4C2 2.89543 2.89543 2 4 2L12 2C13.1046 2 14 2.89543 14 4L14 12C14 13.1046 13.1046 14 12 14L4 14C2.89543 14 2 13.1046 2 12ZM3 12C3 12.5523 3.44772 13 4 13L12 13C12.5523 13 13 12.5523 13 12L13 4C13 3.44771 12.5523 3 12 3L4 3C3.44771 3 3 3.44772 3 4L3 12Z" fill="#818594"/>
</svg>
