<svg width="16" height="16" viewBox="0 0 16 16" xmlns="http://www.w3.org/2000/svg">
  <path fill="#59a869" fill-rule="evenodd" d="M0 8v8l5-4z"/>
  <path fill="#6e6e6e" d="M8 2C4.69 2 2 4.69 2 8c0 .11.01.22.02.33l.98.79V8a1.004 1.004 0 0 1 1-1c.05 0 .09.02.13.02A4 4 0 0 1 8 4v4h4c0 1.53-.87 2.85-2.14 3.52.08.15.14.31.14.48a1 1 0 0 1-.38.78L8.1 13.99c3.26-.06 5.89-2.72 5.89-5.99V2h-6Z"/>
  <path fill="#59a869" fill-rule="evenodd" d="m9 12-5 4v-1.92l1.62-1.3c.24-.19.38-.48.38-.78s-.14-.59-.38-.78L4 9.92V8zm-4 0-5 4V8z"/>
</svg>
