<!-- Copyright © 2000–2024 JetBrains s.r.o. -->
<svg width="16" height="16" viewBox="0 0 16 16" xmlns="http://www.w3.org/2000/svg">
  <path fill="#EDF3FF" d="M12.34 9.83c.16-.14 1.2-1.12 1.22-2.65a3.66 3.66 0 0 0-.53-1.91c-1.52-2.65-5.5-2.79-6-2.8-.75-.01-2 .06-3.49.65l1.33 2.33c-.39.14-.81.36-1.2.72-.16.14-1.2 1.12-1.22 2.65-.01.95.37 1.64.53 1.91 1.52 2.65 5.5 2.79 6 2.8.75.01 2-.06 3.49-.65l-1.33-2.33c.39-.14.81-.36 1.2-.72"/>
  <path fill="#3574F0" d="M9.24 14C5.05 14 2 11.79 2 8.77c0-2.42 2.05-4.16 4.87-4.16 2.4 0 4.13 1.06 4.13 2.61 0 1.45-1.47 2.21-3.27 1.53l.26-.76c-1.16-.36-1.98-.05-1.98.74 0 .95 1.26 1.71 3.08 1.71 2.16 0 3.92-1.35 3.92-3.23 0-2.45-2.63-4.23-6.24-4.23-.89 0-2.08.21-2.86.55-.55.23-.9 0-.9-.35 0-.28.19-.47.58-.63.78-.34 2.1-.56 3.18-.56 4.19 0 7.24 2.21 7.24 5.23 0 2.42-2.05 4.16-4.87 4.16-2.4 0-4.13-1.06-4.13-2.64 0-1.42 1.47-2.14 3.27-1.52l-.26.77c1.16.39 1.98.06 1.98-.77 0-.92-1.26-1.68-3.08-1.68C4.68 5.54 3 6.93 3 8.77 3 11.22 5.63 13 9.24 13c.89 0 2.08-.21 2.86-.55.55-.23.9 0 .9.35 0 .27-.19.47-.58.63-.77.34-2.1.56-3.18.56z"/>
</svg>
