<!-- Copyright © 2000–2024 JetBrains s.r.o. -->
<svg width="16" height="16" viewBox="0 0 16 16" xmlns="http://www.w3.org/2000/svg">
  <path fill="#242424" fill-rule="evenodd" d="M5 13.25V7.751L10 5l5 2.751v5.499L10 16z"/>
  <path fill="#B280D3" fill-rule="evenodd" d="M6 8.801v3.858l4 2.2V11zm8 0L10 11v3.859l4-2.2z"/>
  <path fill="#282828" fill-rule="evenodd" d="m13.379 8-3.38 1.858L6.622 8 6 8.342v.459L10 11l4-2.199v-.459z"/>
  <path fill="#B280D3" fill-rule="evenodd" d="M10 9.858 13.379 8 10 6.141 6.621 8z"/>
  <path fill="#242424" fill-rule="evenodd" d="M9.459 0h-.266L8.39.308A9.611 9.611 0 0 1 5 .913 9.611 9.611 0 0 1 1.61.308L.807 0H.541L.285.991A9.008 9.008 0 0 0 0 3.242C0 7.031 2.196 10 5 10s5-2.969 5-6.758c0-.762-.096-1.519-.285-2.251z"/>
  <path fill="#C4C4C4" fill-rule="evenodd" d="M5 1.913c-1.354 0-2.629-.244-3.747-.672A8.016 8.016 0 0 0 1 3.242C1 6.422 2.791 9 5 9s4-2.578 4-5.758c0-.704-.092-1.377-.253-2.001A10.512 10.512 0 0 1 5 1.913"/>
  <path fill="#282828" fill-rule="evenodd" d="M3 6c0 1 1.04 2 2 2s2-1 2-2c-.615.725-3.385.725-4 0m-.94-3a2.173 2.173 0 0 0-.06.5C2 4.329 2.446 5 3 5c.553 0 1-.671 1-1.5 0-.176-.023-.343-.06-.5zm4 0a2.173 2.173 0 0 0-.06.5C6 4.329 6.446 5 7 5c.553 0 1-.671 1-1.5 0-.176-.023-.343-.06-.5z"/>
</svg>
