<svg width="16" height="16" viewBox="0 0 16 16" xmlns="http://www.w3.org/2000/svg">
  <path fill="#299cce" d="M9.071 4 6.48 13H4.66L2 4h1.914s1.3 4.755 1.753 7.161h.341C6.5 8.765 7.787 4 7.787 4h1.285Zm4.495 4.367v-.025c.783-.275 1.221-1.125 1.221-2.133C14.787 4.646 13.618 4 12.31 4H9.471v9h2.984c1.503 0 2.616-.914 2.616-2.686 0-1.114-.649-1.813-1.505-1.946Zm-2.317-3.203h1.288c.767 0 1.151.406 1.151 1.22 0 .918-.428 1.404-1.048 1.404h-1.39V5.164Zm1.428 6.623h-1.428V8.97h1.438c.666 0 1.184.426 1.184 1.371 0 .974-.513 1.446-1.194 1.446Z"/>
</svg>
