<svg width="16" height="16" viewBox="0 0 16 16" xmlns="http://www.w3.org/2000/svg">
  <path fill="#3574F0" d="M1.39 4.5h1.315l1.96 5.436L6.524 4.5H7.85l-2.565 7H3.97l-2.58-7Zm12.644 1.835c0 .776-.462 1.314-1.114 1.511.792.211 1.295.871 1.295 1.715 0 1.224-1.062 1.939-2.335 1.939H8.829v-7h2.99c1.212 0 2.215.685 2.215 1.835ZM11.689 7.46c.626 0 1.095-.365 1.095-.989 0-.556-.394-.98-1.095-.98h-1.655v1.97l1.655-.001Zm.06 3.05c.671 0 1.2-.375 1.2-1.029 0-.65-.521-1.061-1.2-1.061h-1.715v2.09h1.715Z"/>
</svg>
