<!-- Copyright © 2000–2024 JetBrains s.r.o. -->
<svg width="16" height="16" viewBox="0 0 16 16" xmlns="http://www.w3.org/2000/svg">
  <path fill="#242424" fill-rule="evenodd" d="M10 7H3V4h7zm2 8H1V7h11z"/>
  <path fill="#B280D3" fill-rule="evenodd" d="M9 5v2H8V6H5v1H4V5zm0 6H4L2 9.5V14h9V9.5z"/>
  <path fill="#B280D3" fill-rule="evenodd" d="m2 8 2.5 2h4L11 8z"/>
  <path fill="#282828" fill-rule="evenodd" d="M6 12h1V9.999H6z"/>
  <path fill="#242424" fill-rule="evenodd" d="M11 10V8h-1V6H9V3H8V0h3c1.654 0 3 1.346 3 3h2v3h-1v2h-1v2z"/>
  <path fill="#C4C4C4" fill-rule="evenodd" d="M13 4V3a2 2 0 0 0-2-2H9v1h2a1 1 0 0 1 1 1v1h-2v1h5V4m-2 4h-1v1h1m1-2h-3V6h3z"/>
</svg>
