<svg width="16" height="16" viewBox="0 0 16 16" xmlns="http://www.w3.org/2000/svg">
  <path fill="#FAF2FF" d="M12.2 8.25c-.2-.34-.25-.75-.15-1.13.1-.39.35-.71.7-.91.19-.11.36-.24.52-.4.09-.09.16-.19.23-.28v-.02c0-.55-.45-1-1-1h-9c-.55 0-1 .45-1 1v6c0 .55.45 1 1 1h9c.55 0 1-.45 1-1v-2.5c-.53 0-1.03-.29-1.3-.75v-.01"/>
  <path fill="none" stroke="#B153E0" stroke-linecap="round" stroke-linejoin="round" d="M2.5 5.79 5 7.5h6l.53-.36M5.5 4.5l.22-.86c.17-.67.77-1.14 1.46-1.14h1.66c.69 0 1.29.47 1.46 1.14l.22.86M8.5 8c0 .28-.22.5-.5.5s-.5-.22-.5-.5"/>
  <path fill="none" stroke="#6C707E" stroke-linecap="round" stroke-miterlimit="10" d="M13.5.57c1.2.69 2 1.98 2 3.46a4.025 4.025 0 0 1-2 3.47"/>
  <path fill="none" stroke="#6C707E" stroke-linecap="round" stroke-linejoin="round" d="M15.5.5h-2v2"/>
  <path fill="none" stroke="#B153E0" stroke-linecap="round" stroke-linejoin="round" d="M13.5 9.5v2c0 .55-.45 1-1 1h-9c-.55 0-1-.45-1-1v-6c0-.55.45-1 1-1h9c.33 0 .62.16.8.4"/>
</svg>
