<!-- Copyright © 2000–2024 JetBrains s.r.o. -->
<svg width="16" height="16" viewBox="0 0 16 16" xmlns="http://www.w3.org/2000/svg">
  <path fill="#242424" fill-rule="evenodd" d="M0 8.25V2.751L5 0l5 2.751V8.25L5 11z"/>
  <path fill="#B280D3" fill-rule="evenodd" d="M1 3.801v3.858l4 2.2V6zm8 0L5 6v3.859l4-2.2z"/>
  <path fill="#282828" fill-rule="evenodd" d="m8.379 3-3.38 1.858L1.622 3 1 3.342v.459L5 6l4-2.199v-.459z"/>
  <path fill="#B280D3" fill-rule="evenodd" d="M5 4.858 8.379 3 5 1.141 1.621 3z"/>
  <path fill="#242424" fill-rule="evenodd" d="M6.586 16 3 12.414V8.382l2 1V5h4v4.382l2-1v4.032L7.414 16h-.828"/>
  <path fill="#C4C4C4" fill-rule="evenodd" d="M8 11V8H6v3l-2-1v2l3 3 3-3v-2M8 7H6V6h2z"/>
  <path fill="#242424" fill-rule="evenodd" d="M11 10V8h-1V6H9V3H8V0h3c1.654 0 3 1.346 3 3h2v3h-1v2h-1v2z"/>
  <path fill="#C4C4C4" fill-rule="evenodd" d="M13 4V3a2 2 0 0 0-2-2H9v1h2a1 1 0 0 1 1 1v1h-2v1h5V4m-2 4h-1v1h1m1-2h-3V6h3z"/>
</svg>
