<!-- Copyright © 2000–2024 JetBrains s.r.o. -->
<svg width="16" height="16" viewBox="0 0 16 16" xmlns="http://www.w3.org/2000/svg">
  <path fill="#242424" fill-rule="evenodd" d="M0 8.25V2.751L5 0l5 2.751V8.25L5 11z"/>
  <path fill="#B280D3" fill-rule="evenodd" d="M1 3.8v3.86l4 2.2V6L1 3.802M9 3.8 5 6v3.859l4-2.2z"/>
  <path fill="#282828" fill-rule="evenodd" d="m8.379 3-3.38 1.858L1.622 3 1 3.342v.459L5 6l4-2.199v-.459z"/>
  <path fill="#B280D3" fill-rule="evenodd" d="m5 4.858 3.379-1.857L5 1.14 1.621 3z"/>
  <path fill="#242424" fill-rule="evenodd" d="M6.586 16 3 12.414V8.382l2 1V5h4v4.382l2-1v4.032L7.414 16h-.828"/>
  <path fill="#C4C4C4" fill-rule="evenodd" d="M8 11V8H6v3l-2-1v2l3 3 3-3v-2M8 7H6V6h2z"/>
  <path fill="#242424" fill-rule="evenodd" d="M11.666 7.825 11 8.06V11h.309l.942-.244C14.458 10.184 16 8.208 16 5.95c0-1.07-.355-2.103-.985-2.949H16V1.586L14.414 0H10v4.414l2.652 2.652a2.008 2.008 0 0 1-.986.76"/>
  <path fill="#C4C4C4" fill-rule="evenodd" d="M13.294 2.706 14 2h1l-1-1h-3v3l1 1V4l.582-.582A2.979 2.979 0 0 1 14 5.95a2.995 2.995 0 0 1-2 2.82v1.02c1.72-.446 3-1.982 3-3.84 0-1.348-.68-2.523-1.706-3.243"/>
</svg>
