<!-- Copyright © 2000–2024 JetBrains s.r.o. -->
<svg width="16" height="16" viewBox="0 0 16 16" xmlns="http://www.w3.org/2000/svg">
  <path fill="#F4F4F4" fill-rule="evenodd" d="M1 12.25V6.751L6 4l5 2.751v5.499L6 15z"/>
  <path fill="#632D8D" fill-rule="evenodd" d="M2 7.801v3.858l4 2.2V10zm8 0L6 10v3.859l4-2.2z"/>
  <path fill="#EBEBEB" fill-rule="evenodd" d="m9.379 7-3.38 1.858L2.622 7 2 7.342v.459L6 10l4-2.199v-.459z"/>
  <path fill="#632D8D" fill-rule="evenodd" d="M6 8.858 9.379 7 6 5.141 2.621 7z"/>
  <path fill="#F4F4F4" fill-rule="evenodd" d="M10.666 7.825 10 8.06V11h.309l.942-.244C13.458 10.184 15 8.208 15 5.949A4.943 4.943 0 0 0 14.015 3H15V1.586L13.414 0H9v4.414l2.652 2.652a2.008 2.008 0 0 1-.986.759"/>
  <path fill="#313131" fill-rule="evenodd" d="M12.294 2.706 13 2h1l-1-1h-3v3l1 1V4l.582-.582A2.979 2.979 0 0 1 13 5.949a2.995 2.995 0 0 1-2 2.819v1.02c1.72-.445 3-1.981 3-3.839 0-1.348-.68-2.523-1.706-3.243"/>
</svg>
