<svg width="16" height="16" viewBox="0 0 16 16" xmlns="http://www.w3.org/2000/svg">
  <path fill="#322936" d="M12.2 8.25c-.2-.34-.25-.75-.15-1.13.1-.39.35-.71.7-.91.19-.11.36-.24.52-.4.09-.09.16-.19.23-.28v-.54L8 1.96 2.5 4.99v6.05L8 14.07l5.5-3.03V9.02c-.53 0-1.03-.29-1.3-.75z"/>
  <path fill="none" stroke="#BB69D6" stroke-linecap="round" stroke-linejoin="round" d="M13.5 9.5v1.52L8 14.05l-5.5-3.03V4.98L8 1.95l5.32 2.93"/>
  <path fill="none" stroke="#BB69D6" stroke-linecap="round" stroke-linejoin="round" d="M2.5 4.98 8 8l5.15-2.83"/>
  <path fill="none" stroke="#CED0D6" stroke-linecap="round" stroke-miterlimit="10" d="M13.5.57c1.2.69 2 1.98 2 3.46a4.025 4.025 0 0 1-2 3.47"/>
  <path fill="none" stroke="#CED0D6" stroke-linecap="round" stroke-linejoin="round" d="M15.5.5h-2v2"/>
</svg>
