<!-- Copyright © 2000–2024 JetBrains s.r.o. -->
<svg width="16" height="16" viewBox="0 0 16 16" xmlns="http://www.w3.org/2000/svg">
  <path fill="#242424" fill-rule="evenodd" d="M1 16h12V5H1z"/>
  <path fill="#75BCFF" fill-rule="evenodd" d="M12 5H2v10h10z"/>
  <path fill="#282828" fill-rule="evenodd" d="M3 14h8V5H3z"/>
  <path fill="#75BCFF" fill-rule="evenodd" d="M6 11H4v1h2m4-1H7v1h3M6 7H4v1h2m4 0H7V7h3M6 9H4v1h2m4 0H7V9h3z"/>
  <path fill="#242424" fill-rule="evenodd" d="M1 2v3h12V2z"/>
  <path fill="#75BCFF" fill-rule="evenodd" d="M2 5h10V3H2z"/>
  <path fill="#242424" fill-rule="evenodd" d="m13.929.235-.3-.235h-3.26l-.297.235C9.127.976 8 2.318 8 4.5c0 2.177 1.126 3.522 2.07 4.265l.298.235h3.264l.299-.235C14.874 8.022 16 6.677 16 4.5 16 2.318 14.873.976 13.929.235"/>
  <path fill="#C4C4C4" fill-rule="evenodd" d="M13.457 8C14.169 7.393 15 6.301 15 4.5s-.831-2.894-1.543-3.5H13c1.153 1.91 1.153 5.091 0 7m-2.457 0C9.831 7.393 9 6.301 9 4.5s.831-2.894 1.543-3.5H11c-1.153 1.91-1.153 5.091 0 7z"/>
</svg>
