<!-- Copyright © 2000–2024 JetBrains s.r.o. -->
<svg width="16" height="16" viewBox="0 0 16 16" xmlns="http://www.w3.org/2000/svg">
  <path fill="#242424" fill-rule="evenodd" d="M1 12.25V6.751L6 4l5 2.751v5.499L6 15z"/>
  <path fill="#B280D3" fill-rule="evenodd" d="M2 7.801v3.858l4 2.2V10zm8 0L6 10v3.859l4-2.2z"/>
  <path fill="#282828" fill-rule="evenodd" d="m9.379 7-3.38 1.858L2.622 7 2 7.342v.459L6 10l4-2.199v-.459z"/>
  <path fill="#B280D3" fill-rule="evenodd" d="M6 8.858 9.379 7 6 5.141 2.621 7z"/>
  <path fill="#242424" fill-rule="evenodd" d="M10 11V9H9V7H7V4h3V3H7V0h3c1.654 0 3 1.346 3 3v1h3v3h-2v2h-1v2z"/>
  <path fill="#C4C4C4" fill-rule="evenodd" d="M12 5V3a2 2 0 0 0-2-2H8v1h2a1 1 0 0 1 1 1v2H8v1h7V5m-3 4h-1v1h1m1-2h-3V7h3z"/>
</svg>
