<svg width="16" height="16" viewBox="0 0 16 16" fill="none" xmlns="http://www.w3.org/2000/svg">
<path d="M13.9996 8.38195L12.6156 7.36795C11.9461 6.87735 11.0538 6.87735 10.3842 7.36795L7.83278 9.23734C7.2528 9.6623 7.0064 10.3672 7.0045 11C7.00383 11.2219 7.00336 11.4439 7.00304 11.6658C5.55864 12.1538 3.28781 12.6064 3.28781 12.6064L3.18434 12.5512C1.4464 11.7062 1.39817 7.9452 4.55312 6.733C5.33057 6.43407 6.08892 6.39552 6.86938 6.35584C7.47797 6.3249 8.10001 6.29328 8.75504 6.13698C10.35 5.75834 12.1967 4.55929 12.9473 3C13.4523 4.49605 14.0178 6.49802 13.9996 8.38195Z" fill="#253627"/>
<path d="M7.00281 13.5279C7.00262 13.2342 7.00246 12.9406 7.00244 12.647C6.70325 12.7515 6.39069 12.8463 6.03582 12.9538C5.59499 13.0874 5.08885 13.2408 4.46192 13.4575C4.25148 13.5302 4.08663 13.6004 4.08663 13.6004C4.52243 13.5285 4.95472 13.5039 4.95472 13.5039C5.48599 13.4799 6.08188 13.4988 6.70749 13.5187C6.80525 13.5218 6.90373 13.5249 7.00281 13.5279Z" fill="#253627"/>
<path d="M6.55758 5.37077C5.85421 5.40938 5.04269 5.47346 4.19453 5.79954C2.25514 6.54479 1.25485 8.10892 1.04333 9.64326C0.847108 11.0666 1.33173 12.7204 2.68642 13.4201C2.69602 13.4428 2.70767 13.4719 2.72425 13.5133L2.76299 13.6097C2.80421 13.7123 2.90411 13.9611 3.08639 14.1692C3.196 14.2944 3.35669 14.432 3.58005 14.5196C3.8087 14.6092 4.04011 14.6216 4.24942 14.587C4.43594 14.5563 4.62776 14.5348 4.77678 14.5209C4.85025 14.5141 4.911 14.5093 4.95257 14.5063L4.99926 14.5031L5.00728 14.5026C5.49521 14.481 6.04559 14.4983 6.67327 14.5181L6.95908 14.527C6.97382 14.5275 6.98858 14.5279 7.00338 14.5284C7.00328 14.2645 7.00311 14.0006 7.00294 13.7367C7.0029 13.6671 7.00285 13.5975 7.00281 13.5279C6.90373 13.5249 6.80525 13.5218 6.70749 13.5187C6.08189 13.4988 5.48598 13.4799 4.95472 13.5039C4.95472 13.5039 4.52243 13.5285 4.08663 13.6004C4.08663 13.6004 4.25148 13.5302 4.46192 13.4575C5.08884 13.2408 5.59497 13.0874 6.0358 12.9538C6.39067 12.8463 6.70325 12.7515 7.00244 12.647C7.00242 12.3199 7.00257 11.9928 7.00304 11.6658C5.55864 12.1538 3.28781 12.6064 3.28781 12.6064L3.18434 12.5512C1.4464 11.7062 1.39817 7.9452 4.55312 6.733C5.33057 6.43407 6.08892 6.39552 6.86938 6.35584C7.47797 6.3249 8.10001 6.29328 8.75504 6.13698C10.35 5.75834 12.1967 4.55929 12.9473 3C13.4523 4.49605 14.0178 6.49802 13.9996 8.38195L14.9672 9.09092C15.0165 8.50709 15.0069 7.92198 14.9602 7.35611C14.8186 5.64384 14.3242 3.95217 13.8949 2.68017L13.1103 0.356018L12.0463 2.56628C11.4596 3.78522 9.90936 4.83519 8.52413 5.16403L8.52301 5.1643C7.96333 5.29785 7.43676 5.32505 6.82202 5.35681L6.82091 5.35687C6.73498 5.36131 6.64731 5.36584 6.55758 5.37077Z" fill="#57965C"/>
<path fill-rule="evenodd" clip-rule="evenodd" d="M12.0247 8.1746C11.7069 7.9418 11.293 7.9418 10.9753 8.1746L8.42388 10.044C7.86225 10.4555 7.86225 11.3625 8.42388 11.774L10.9753 13.6434C11.293 13.8762 11.7069 13.8762 12.0247 13.6434L14.5761 11.774C15.1377 11.3625 15.1377 10.4555 14.5761 10.044L12.0247 8.1746ZM14.0513 10.909L11.5 9.03962L8.94858 10.909L11.5 12.7784L14.0513 10.909Z" fill="#CED0D6"/>
<path d="M8.07195 13.2326C8.2104 12.9891 8.50219 12.9151 8.7237 13.0673L11.2493 14.8021C11.4027 14.9075 11.5973 14.9075 11.7507 14.8021L14.2763 13.0673C14.4978 12.9151 14.7896 12.9891 14.928 13.2326C15.0665 13.476 14.9991 13.7967 14.7776 13.9489L12.252 15.6837C11.7919 15.9998 11.2081 15.9998 10.748 15.6837L8.22236 13.9489C8.00085 13.7967 7.93351 13.476 8.07195 13.2326Z" fill="#CED0D6"/>
<path d="M14.0515 10.909L11.5001 9.03961L8.94873 10.909L11.5001 12.7784L14.0515 10.909Z" fill="#43454A"/>
</svg>
