<svg width="48" height="48" viewBox="0 0 48 48" fill="none" xmlns="http://www.w3.org/2000/svg">
<path d="M44 4H4V44H44V4Z" fill="url(#paint0_linear)"/>
<path d="M36.6998 11.3H11.2998V36.8H36.7998V11.3H36.6998Z" fill="url(#paint1_linear)"/>
<path d="M40.5999 7.40002H7.3999V40.5H40.4999V7.40002H40.5999Z" fill="url(#paint2_linear)"/>
<path d="M40.6002 40.6V7.40002L36.7002 11.3V36.7L40.6002 40.6Z" fill="#2BB673"/>
<path d="M11.3 11.3H36.7L44 4H4L11.3 11.3Z" fill="url(#paint3_linear)"/>
<path d="M36.7 36.7H11.3L4 44H44L36.7 36.7Z" fill="url(#paint4_linear)"/>
<path d="M7.3999 40.6H40.5999L36.6999 36.7H11.2999L7.3999 40.6Z" fill="#2BB673"/>
<path d="M40.6002 40.6V7.40002L36.7002 11.3V36.7L40.6002 40.6Z" fill="url(#paint5_linear)"/>
<path d="M7.3999 40.6H40.5999L36.6999 36.7H11.2999L7.3999 40.6Z" fill="url(#paint6_linear)"/>
<path d="M11.3 36.7V11.3L4 4V44L11.3 36.7Z" fill="url(#paint7_linear)"/>
<path d="M7.4 7.4H40.6L44 4H4L7.4 7.4Z" fill="url(#paint8_linear)"/>
<path d="M7.4 7.4H40.6L44 4H4L7.4 7.4Z" fill="url(#paint9_linear)"/>
<path d="M40.5999 7.40002H7.3999L11.2999 11.3H36.6999L40.5999 7.40002Z" fill="url(#paint10_linear)"/>
<path d="M40.5999 7.40002H7.3999L11.2999 11.3H36.6999L40.5999 7.40002Z" fill="url(#paint11_linear)"/>
<path d="M40.6 40.6H7.4L4 44H44L40.6 40.6Z" fill="url(#paint12_linear)"/>
<path d="M40.6001 40.6L44.0001 44V4L40.6001 7.4V40.6Z" fill="url(#paint13_linear)"/>
<path d="M40.6 40.6H7.4L4 44H44L40.6 40.6Z" fill="url(#paint14_linear)"/>
<path d="M40.6 40.6H7.4L4 44H44L40.6 40.6Z" fill="url(#paint15_linear)"/>
<path d="M40.6 40.6H7.4L4 44H44L40.6 40.6Z" fill="url(#paint16_linear)"/>
<path d="M40.6 40.6H7.4L4 44H44L40.6 40.6Z" fill="url(#paint17_linear)"/>
<path d="M40.6 40.6H7.4L4 44H44L40.6 40.6Z" fill="url(#paint18_linear)"/>
<path d="M40.6001 40.6L44.0001 44V4L40.6001 7.4V40.6Z" fill="url(#paint19_linear)"/>
<path d="M40.6001 40.6L44.0001 44V4L40.6001 7.4V40.6Z" fill="url(#paint20_linear)"/>
<path d="M40.6001 40.6L44.0001 44V4L40.6001 7.4V40.6Z" fill="url(#paint21_linear)"/>
<path d="M40.6001 40.6L44.0001 44V4L40.6001 7.4V40.6Z" fill="url(#paint22_linear)"/>
<path d="M40.6001 40.6L44.0001 44V4L40.6001 7.4V40.6Z" fill="url(#paint23_linear)"/>
<path d="M7.4 40.6V7.4L4 4V44L7.4 40.6Z" fill="url(#paint24_linear)"/>
<path d="M7.4 40.6V7.4L4 4V44L7.4 40.6Z" fill="url(#paint25_linear)"/>
<path d="M7.3999 7.40002V40.6L11.2999 36.7V11.3L7.3999 7.40002Z" fill="url(#paint26_linear)"/>
<path d="M39 9H9V39H39V9Z" fill="url(#paint27_linear)"/>
<path d="M23.9002 33.3H12.7002V35.2001H23.9002V33.3Z" fill="white"/>
<path d="M12.8003 12.7H17.4003C20.1003 12.7 21.7003 14.3 21.7003 16.6C21.7003 19.2 19.7003 20.5 17.2003 20.5H15.2003V23.9H12.8003V12.7ZM17.2003 18.3C18.4003 18.3 19.2003 17.6 19.2003 16.6C19.2003 15.5 18.4003 14.9 17.2003 14.9H15.2003V18.3H17.2003Z" fill="white"/>
<path d="M23.6001 12.7H32.2068V14.8799H26.1934V17.2101H31.5303V19.3899H26.1934V21.7201H32.3571V23.9H23.7129V12.7H23.6001Z" fill="white"/>
<defs>
<linearGradient id="paint0_linear" x1="21.1943" y1="10.3347" x2="28.9139" y2="47.9339" gradientUnits="userSpaceOnUse">
<stop offset="0.0242344" stop-color="#10E899"/>
<stop offset="1" stop-color="#21D789"/>
</linearGradient>
<linearGradient id="paint1_linear" x1="39.5726" y1="39.5723" x2="3.61651" y2="3.61669" gradientUnits="userSpaceOnUse">
<stop offset="0.3475" stop-color="#087CFA"/>
<stop offset="0.8562" stop-color="#FE2857"/>
<stop offset="1" stop-color="#FE2857"/>
</linearGradient>
<linearGradient id="paint2_linear" x1="44.2713" y1="44.271" x2="-2.5333" y2="-2.53317" gradientUnits="userSpaceOnUse">
<stop  offset="0" stop-color="#FCF84A"/>
<stop offset="0.2816" stop-color="#C1F834"/>
<stop offset="0.7846" stop-color="#10E899"/>
</linearGradient>
<linearGradient id="paint3_linear" x1="3.0984" y1="7.6363" x2="42.2656" y2="7.6363" gradientUnits="userSpaceOnUse">
<stop offset="0.1844" stop-color="#EFE50C"/>
<stop offset="0.5239" stop-color="#BEFF26"/>
<stop offset="0.8746" stop-color="#00C66E"/>
</linearGradient>
<linearGradient id="paint4_linear" x1="42.3324" y1="40.3634" x2="5.822" y2="40.3634" gradientUnits="userSpaceOnUse">
<stop  offset="0" stop-color="#21D789"/>
<stop offset="0.8746" stop-color="#00C66E"/>
</linearGradient>
<linearGradient id="paint5_linear" x1="37.4933" y1="23.9999" x2="42.0736" y2="23.9999" gradientUnits="userSpaceOnUse">
<stop offset="0.27" stop-color="#007E62"/>
<stop offset="1" stop-color="#07C3F2" stop-opacity="0"/>
</linearGradient>
<linearGradient id="paint6_linear" x1="23.9588" y1="37.4927" x2="23.9587" y2="42.073" gradientUnits="userSpaceOnUse">
<stop offset="0.27" stop-color="#007E62"/>
<stop offset="1" stop-color="#07C3F2" stop-opacity="0"/>
</linearGradient>
<linearGradient id="paint7_linear" x1="7.6365" y1="2.7908" x2="7.6365" y2="40.4848" gradientUnits="userSpaceOnUse">
<stop offset="0.2576" stop-color="#EFE50C"/>
<stop offset="0.5774" stop-color="#BEFF26"/>
<stop offset="0.8746" stop-color="#00C66E"/>
</linearGradient>
<linearGradient id="paint8_linear" x1="22.3828" y1="5.6371" x2="12.6582" y2="13.3981" gradientUnits="userSpaceOnUse">
<stop offset="0.1018" stop-color="#A5FF21" stop-opacity="0"/>
<stop offset="0.8222" stop-color="#FCF84A"/>
<stop offset="1" stop-color="white" stop-opacity="0.9"/>
</linearGradient>
<linearGradient id="paint9_linear" x1="27.3455" y1="5.3833" x2="43.2716" y2="4.3355" gradientUnits="userSpaceOnUse">
<stop offset="0.5632" stop-color="#10E899" stop-opacity="0"/>
<stop offset="1" stop-color="#21D789" stop-opacity="0.9"/>
</linearGradient>
<linearGradient id="paint10_linear" x1="36.0933" y1="4.30783" x2="15.0544" y2="11.8818" gradientUnits="userSpaceOnUse">
<stop offset="0.018393" stop-color="#99C81D"/>
<stop offset="0.723" stop-color="#10C299" stop-opacity="0"/>
</linearGradient>
<linearGradient id="paint11_linear" x1="36.0933" y1="4.30783" x2="15.0544" y2="11.8818" gradientUnits="userSpaceOnUse">
<stop offset="0.1378" stop-color="#50AC3F" stop-opacity="0.97"/>
<stop offset="0.723" stop-color="#10C23B" stop-opacity="0.4"/>
</linearGradient>
<linearGradient id="paint12_linear" x1="48.2738" y1="46.6531" x2="11.0117" y2="40.3882" gradientUnits="userSpaceOnUse">
<stop  offset="0" stop-color="#FCF84A" stop-opacity="0"/>
<stop offset="1" stop-color="#29CF4B"/>
</linearGradient>
<linearGradient id="paint13_linear" x1="42.2837" y1="42.6605" x2="42.2837" y2="6.1939" gradientUnits="userSpaceOnUse">
<stop  offset="0" stop-color="#21D789"/>
<stop offset="0.8746" stop-color="#00C66E"/>
</linearGradient>
<linearGradient id="paint14_linear" x1="23.9999" y1="39.8087" x2="23.9999" y2="45.0605" gradientUnits="userSpaceOnUse">
<stop offset="0.1754" stop-color="#07C3F2" stop-opacity="0"/>
<stop offset="0.7533" stop-color="#07BC65"/>
</linearGradient>
<linearGradient id="paint15_linear" x1="23.9999" y1="39.8087" x2="23.9999" y2="45.0605" gradientUnits="userSpaceOnUse">
<stop offset="0.0714497" stop-color="#10E899" stop-opacity="0.5"/>
<stop offset="0.5642" stop-color="#10E899" stop-opacity="0"/>
</linearGradient>
<linearGradient id="paint16_linear" x1="23.9999" y1="44.0129" x2="23.9999" y2="39.971" gradientUnits="userSpaceOnUse">
<stop offset="0.0714497" stop-color="#21D789" stop-opacity="0.5"/>
<stop offset="0.5642" stop-color="#10E899" stop-opacity="0"/>
</linearGradient>
<linearGradient id="paint17_linear" x1="38.2909" y1="44.8446" x2="-1.0007" y2="38.5579" gradientUnits="userSpaceOnUse">
<stop offset="0.5632" stop-color="#A5FF21" stop-opacity="0"/>
<stop offset="1" stop-color="#10E899" stop-opacity="0.9"/>
</linearGradient>
<linearGradient id="paint18_linear" x1="31.7908" y1="42.2834" x2="43.8013" y2="42.2834" gradientUnits="userSpaceOnUse">
<stop offset="0.5632" stop-color="#07C3F2" stop-opacity="0"/>
<stop offset="1" stop-color="#009AE5" stop-opacity="0.9"/>
</linearGradient>
<linearGradient id="paint19_linear" x1="40.0351" y1="23.9999" x2="44.8865" y2="23.9999" gradientUnits="userSpaceOnUse">
<stop offset="0.1754" stop-color="#07C3F2" stop-opacity="0"/>
<stop offset="0.7533" stop-color="#07BC65"/>
</linearGradient>
<linearGradient id="paint20_linear" x1="40.0351" y1="23.9999" x2="44.8865" y2="23.9999" gradientUnits="userSpaceOnUse">
<stop offset="0.0714497" stop-color="#10E899" stop-opacity="0.5"/>
<stop offset="0.5642" stop-color="#10E899" stop-opacity="0"/>
</linearGradient>
<linearGradient id="paint21_linear" x1="43.586" y1="23.9999" x2="41.2388" y2="23.9999" gradientUnits="userSpaceOnUse">
<stop offset="0.0714497" stop-color="#21D789" stop-opacity="0.5"/>
<stop offset="0.5642" stop-color="#10E899" stop-opacity="0"/>
</linearGradient>
<linearGradient id="paint22_linear" x1="42.6364" y1="24.7187" x2="39.7426" y2="4.7455" gradientUnits="userSpaceOnUse">
<stop offset="0.5632" stop-color="#A5FF21" stop-opacity="0"/>
<stop offset="1" stop-color="#10E899" stop-opacity="0.9"/>
</linearGradient>
<linearGradient id="paint23_linear" x1="42.2837" y1="26.6105" x2="42.2837" y2="44.0325" gradientUnits="userSpaceOnUse">
<stop offset="0.5632" stop-color="#07C3F2" stop-opacity="0"/>
<stop offset="1" stop-color="#009AE5" stop-opacity="0.9"/>
</linearGradient>
<linearGradient id="paint24_linear" x1="3.1912" y1="32.497" x2="9.5496" y2="6.783" gradientUnits="userSpaceOnUse">
<stop offset="0.1018" stop-color="#A5FF21" stop-opacity="0"/>
<stop offset="0.8222" stop-color="#FCF84A"/>
<stop offset="1" stop-color="white" stop-opacity="0.9"/>
</linearGradient>
<linearGradient id="paint25_linear" x1="5.44" y1="23.9236" x2="1.8775" y2="45.0363" gradientUnits="userSpaceOnUse">
<stop offset="0.5632" stop-color="#FCF84A" stop-opacity="0"/>
<stop offset="1" stop-color="#21D789" stop-opacity="0.9"/>
</linearGradient>
<linearGradient id="paint26_linear" x1="3.92129" y1="25.9598" x2="11.9628" y2="21.4715" gradientUnits="userSpaceOnUse">
<stop offset="0.1378" stop-color="#50AC3F" stop-opacity="0.97"/>
<stop offset="0.723" stop-color="#10C23B" stop-opacity="0.4"/>
</linearGradient>
<linearGradient id="paint27_linear" x1="9.04567" y1="9.04567" x2="35.3316" y2="35.3316" gradientUnits="userSpaceOnUse">
<stop  offset="0" stop-color="#298B2A"/>
<stop offset="0.092362" stop-color="#216F21"/>
<stop offset="0.2928" stop-color="#103510"/>
<stop offset="0.6895" stop-color="#051005"/>
<stop offset="0.9138"/>
</linearGradient>
</defs>
</svg>
