<svg width="70" height="70" viewBox="0 0 70 70" fill="none" xmlns="http://www.w3.org/2000/svg">
<path d="M65 5H5V65H65V5Z" fill="url(#paint0_linear)"/>
<path d="M54.0999 15.9H15.8999V54.1H54.0999V15.9Z" fill="url(#paint1_linear)"/>
<path d="M59.9001 10.1H10.1001V59.8H59.8001V10.1H59.9001Z" fill="url(#paint2_linear)"/>
<path d="M59.9001 59.9V10.1L54.1001 15.9V54.1L59.9001 59.9Z" fill="#2BB673"/>
<path d="M15.9 15.9H54.1L65 5H5L15.9 15.9Z" fill="url(#paint3_linear)"/>
<path d="M54.1 54.1H15.9L5 65H65L54.1 54.1Z" fill="url(#paint4_linear)"/>
<path d="M10.1001 59.8L59.9001 59.9L54.1001 54.1H15.9001L10.1001 59.8Z" fill="#2BB673"/>
<path d="M59.9001 59.9V10.1L54.1001 15.9V54.1L59.9001 59.9Z" fill="url(#paint5_linear)"/>
<path d="M10.1001 59.8L59.9001 59.9L54.1001 54.1H15.9001L10.1001 59.8Z" fill="url(#paint6_linear)"/>
<path d="M15.9 54.1V15.9L5 5V65L15.9 54.1Z" fill="url(#paint7_linear)"/>
<path d="M10.1 10.1H59.9L65 5H5L10.1 10.1Z" fill="url(#paint8_linear)"/>
<path d="M10.1 10.1H59.9L65 5H5L10.1 10.1Z" fill="url(#paint9_linear)"/>
<path d="M59.9001 10.1H10.1001L15.9001 15.9H54.1001L59.9001 10.1Z" fill="url(#paint10_linear)"/>
<path d="M59.9001 10.1H10.1001L15.9001 15.9H54.1001L59.9001 10.1Z" fill="url(#paint11_linear)"/>
<path d="M59.9 59.9H10.1L5 65H65L59.9 59.9Z" fill="url(#paint12_linear)"/>
<path d="M59.8999 59.9L64.9999 65V5L59.8999 10.1V59.9Z" fill="url(#paint13_linear)"/>
<path d="M59.9 59.9H10.1L5 65H65L59.9 59.9Z" fill="url(#paint14_linear)"/>
<path d="M59.9 59.9H10.1L5 65H65L59.9 59.9Z" fill="url(#paint15_linear)"/>
<path d="M59.9 59.9H10.1L5 65H65L59.9 59.9Z" fill="url(#paint16_linear)"/>
<path d="M59.9 59.9H10.1L5 65H65L59.9 59.9Z" fill="url(#paint17_linear)"/>
<path d="M59.9 59.9H10.1L5 65H65L59.9 59.9Z" fill="url(#paint18_linear)"/>
<path d="M59.8999 59.9L64.9999 65V5L59.8999 10.1V59.9Z" fill="url(#paint19_linear)"/>
<path d="M59.8999 59.9L64.9999 65V5L59.8999 10.1V59.9Z" fill="url(#paint20_linear)"/>
<path d="M59.8999 59.9L64.9999 65V5L59.8999 10.1V59.9Z" fill="url(#paint21_linear)"/>
<path d="M59.8999 59.9L64.9999 65V5L59.8999 10.1V59.9Z" fill="url(#paint22_linear)"/>
<path d="M59.8999 59.9L64.9999 65V5L59.8999 10.1V59.9Z" fill="url(#paint23_linear)"/>
<path d="M10.1 59.9V10.1L5 5V65L10.1 59.9Z" fill="url(#paint24_linear)"/>
<path d="M10.1 59.9V10.1L5 5V65L10.1 59.9Z" fill="url(#paint25_linear)"/>
<path d="M10.1001 10.1V59.9L15.9001 54.1V15.9L10.1001 10.1Z" fill="url(#paint26_linear)"/>
<path d="M57 13H13V57H57V13Z" fill="url(#paint27_linear)"/>
<path d="M35 48.7H18.5V51.4H35V48.7Z" fill="white"/>
<path d="M18.5 18.4H25.2C29.1 18.4 31.5 20.7 31.5 24.1C31.5 27.9 28.5 29.9 24.8 29.9H22.1V34.9H18.5V18.4ZM25 26.7C26.8 26.7 27.9 25.6 27.9 24.2C27.9 22.6 26.8 21.7 25 21.7H22.1V26.7H25Z" fill="white"/>
<path d="M34 18.4001H46.6795V21.6115H37.8205V25.0444H45.6829V28.2558H37.8205V31.6887H46.901V34.9001H34.1661V18.4001H34Z" fill="white"/>
<defs>
<linearGradient id="paint0_linear" x1="30.7914" y1="14.502" x2="42.3709" y2="70.9008" gradientUnits="userSpaceOnUse">
<stop offset="0.0242344" stop-color="#10E899"/>
<stop offset="1" stop-color="#21D789"/>
</linearGradient>
<linearGradient id="paint1_linear" x1="58.3591" y1="58.3589" x2="4.425" y2="4.42482" gradientUnits="userSpaceOnUse">
<stop offset="0.3475" stop-color="#087CFA"/>
<stop offset="0.8562" stop-color="#FE2857"/>
<stop offset="1" stop-color="#FE2857"/>
</linearGradient>
<linearGradient id="paint2_linear" x1="65.4073" y1="65.4067" x2="-4.7998" y2="-4.79982" gradientUnits="userSpaceOnUse">
<stop stop-color="#FCF84A"/>
<stop offset="0.2816" stop-color="#C1F834"/>
<stop offset="0.7846" stop-color="#10E899"/>
</linearGradient>
<linearGradient id="paint3_linear" x1="3.6477" y1="10.4545" x2="62.3984" y2="10.4545" gradientUnits="userSpaceOnUse">
<stop offset="0.1844" stop-color="#EFE50C"/>
<stop offset="0.5239" stop-color="#BEFF26"/>
<stop offset="0.8746" stop-color="#00C66E"/>
</linearGradient>
<linearGradient id="paint4_linear" x1="62.4986" y1="59.5451" x2="7.733" y2="59.5451" gradientUnits="userSpaceOnUse">
<stop stop-color="#21D789"/>
<stop offset="0.8746" stop-color="#00C66E"/>
</linearGradient>
<linearGradient id="paint5_linear" x1="55.2397" y1="34.9998" x2="62.1102" y2="34.9998" gradientUnits="userSpaceOnUse">
<stop offset="0.27" stop-color="#007E62"/>
<stop offset="1" stop-color="#07C3F2" stop-opacity="0"/>
</linearGradient>
<linearGradient id="paint6_linear" x1="34.9576" y1="55.2389" x2="34.9574" y2="62.1094" gradientUnits="userSpaceOnUse">
<stop offset="0.27" stop-color="#007E62"/>
<stop offset="1" stop-color="#07C3F2" stop-opacity="0"/>
</linearGradient>
<linearGradient id="paint7_linear" x1="10.4548" y1="3.1862" x2="10.4548" y2="59.7271" gradientUnits="userSpaceOnUse">
<stop offset="0.2576" stop-color="#EFE50C"/>
<stop offset="0.5774" stop-color="#BEFF26"/>
<stop offset="0.8746" stop-color="#00C66E"/>
</linearGradient>
<linearGradient id="paint8_linear" x1="32.5742" y1="7.4557" x2="17.9872" y2="19.0972" gradientUnits="userSpaceOnUse">
<stop offset="0.1018" stop-color="#A5FF21" stop-opacity="0"/>
<stop offset="0.8222" stop-color="#FCF84A"/>
<stop offset="1" stop-color="white" stop-opacity="0.9"/>
</linearGradient>
<linearGradient id="paint9_linear" x1="40.0182" y1="7.0749" x2="63.9075" y2="5.5033" gradientUnits="userSpaceOnUse">
<stop offset="0.5632" stop-color="#10E899" stop-opacity="0"/>
<stop offset="1" stop-color="#21D789" stop-opacity="0.9"/>
</linearGradient>
<linearGradient id="paint10_linear" x1="53.1402" y1="5.46168" x2="21.5819" y2="16.8227" gradientUnits="userSpaceOnUse">
<stop offset="0.018393" stop-color="#99C81D"/>
<stop offset="0.723" stop-color="#10C299" stop-opacity="0"/>
</linearGradient>
<linearGradient id="paint11_linear" x1="53.1402" y1="5.46168" x2="21.5819" y2="16.8227" gradientUnits="userSpaceOnUse">
<stop offset="0.1378" stop-color="#50AC3F" stop-opacity="0.97"/>
<stop offset="0.723" stop-color="#10C23B" stop-opacity="0.4"/>
</linearGradient>
<linearGradient id="paint12_linear" x1="71.4108" y1="68.9797" x2="15.5176" y2="59.5824" gradientUnits="userSpaceOnUse">
<stop stop-color="#FCF84A" stop-opacity="0"/>
<stop offset="1" stop-color="#29CF4B"/>
</linearGradient>
<linearGradient id="paint13_linear" x1="62.4253" y1="62.9907" x2="62.4253" y2="8.2908" gradientUnits="userSpaceOnUse">
<stop stop-color="#21D789"/>
<stop offset="0.8746" stop-color="#00C66E"/>
</linearGradient>
<linearGradient id="paint14_linear" x1="34.9999" y1="58.713" x2="34.9999" y2="66.5907" gradientUnits="userSpaceOnUse">
<stop offset="0.1754" stop-color="#07C3F2" stop-opacity="0"/>
<stop offset="0.7533" stop-color="#07BC65"/>
</linearGradient>
<linearGradient id="paint15_linear" x1="34.9999" y1="58.713" x2="34.9999" y2="66.5907" gradientUnits="userSpaceOnUse">
<stop offset="0.0714497" stop-color="#10E899" stop-opacity="0.5"/>
<stop offset="0.5642" stop-color="#10E899" stop-opacity="0"/>
</linearGradient>
<linearGradient id="paint16_linear" x1="34.9999" y1="65.0193" x2="34.9999" y2="58.9564" gradientUnits="userSpaceOnUse">
<stop offset="0.0714497" stop-color="#21D789" stop-opacity="0.5"/>
<stop offset="0.5642" stop-color="#10E899" stop-opacity="0"/>
</linearGradient>
<linearGradient id="paint17_linear" x1="56.4364" y1="66.2668" x2="-2.501" y2="56.8369" gradientUnits="userSpaceOnUse">
<stop offset="0.5632" stop-color="#A5FF21" stop-opacity="0"/>
<stop offset="1" stop-color="#10E899" stop-opacity="0.9"/>
</linearGradient>
<linearGradient id="paint18_linear" x1="46.6862" y1="62.4251" x2="64.7019" y2="62.4251" gradientUnits="userSpaceOnUse">
<stop offset="0.5632" stop-color="#07C3F2" stop-opacity="0"/>
<stop offset="1" stop-color="#009AE5" stop-opacity="0.9"/>
</linearGradient>
<linearGradient id="paint19_linear" x1="59.0524" y1="34.9999" x2="66.3294" y2="34.9999" gradientUnits="userSpaceOnUse">
<stop offset="0.1754" stop-color="#07C3F2" stop-opacity="0"/>
<stop offset="0.7533" stop-color="#07BC65"/>
</linearGradient>
<linearGradient id="paint20_linear" x1="59.0524" y1="34.9999" x2="66.3294" y2="34.9999" gradientUnits="userSpaceOnUse">
<stop offset="0.0714497" stop-color="#10E899" stop-opacity="0.5"/>
<stop offset="0.5642" stop-color="#10E899" stop-opacity="0"/>
</linearGradient>
<linearGradient id="paint21_linear" x1="64.3788" y1="34.9999" x2="60.8579" y2="34.9999" gradientUnits="userSpaceOnUse">
<stop offset="0.0714497" stop-color="#21D789" stop-opacity="0.5"/>
<stop offset="0.5642" stop-color="#10E899" stop-opacity="0"/>
</linearGradient>
<linearGradient id="paint22_linear" x1="62.9543" y1="36.078" x2="58.6136" y2="6.1183" gradientUnits="userSpaceOnUse">
<stop offset="0.5632" stop-color="#A5FF21" stop-opacity="0"/>
<stop offset="1" stop-color="#10E899" stop-opacity="0.9"/>
</linearGradient>
<linearGradient id="paint23_linear" x1="62.4253" y1="38.9157" x2="62.4253" y2="65.0488" gradientUnits="userSpaceOnUse">
<stop offset="0.5632" stop-color="#07C3F2" stop-opacity="0"/>
<stop offset="1" stop-color="#009AE5" stop-opacity="0.9"/>
</linearGradient>
<linearGradient id="paint24_linear" x1="3.7868" y1="47.7456" x2="13.3244" y2="9.1745" gradientUnits="userSpaceOnUse">
<stop offset="0.1018" stop-color="#A5FF21" stop-opacity="0"/>
<stop offset="0.8222" stop-color="#FCF84A"/>
<stop offset="1" stop-color="white" stop-opacity="0.9"/>
</linearGradient>
<linearGradient id="paint25_linear" x1="7.1599" y1="34.8855" x2="1.8163" y2="66.5545" gradientUnits="userSpaceOnUse">
<stop offset="0.5632" stop-color="#FCF84A" stop-opacity="0"/>
<stop offset="1" stop-color="#21D789" stop-opacity="0.9"/>
</linearGradient>
<linearGradient id="paint26_linear" x1="4.8822" y1="37.9397" x2="16.9444" y2="31.2073" gradientUnits="userSpaceOnUse">
<stop offset="0.1378" stop-color="#50AC3F" stop-opacity="0.97"/>
<stop offset="0.723" stop-color="#10C23B" stop-opacity="0.4"/>
</linearGradient>
<linearGradient id="paint27_linear" x1="13.067" y1="13.067" x2="51.6197" y2="51.6197" gradientUnits="userSpaceOnUse">
<stop stop-color="#298B2A"/>
<stop offset="0.092362" stop-color="#216F21"/>
<stop offset="0.2928" stop-color="#103510"/>
<stop offset="0.6895" stop-color="#051005"/>
<stop offset="0.9138"/>
</linearGradient>
</defs>
</svg>
