<svg width="256" height="256" viewBox="0 0 256 256" fill="none" xmlns="http://www.w3.org/2000/svg">
<path d="M236 20H20V236H236V20Z" fill="url(#paint0_linear)"/>
<path d="M196.8 59.2H59.2002V196.6H196.6V59.2H196.8Z" fill="url(#paint1_linear)"/>
<path d="M217.4 38.6H38.5996V217.6H217.6V38.6H217.4Z" fill="url(#paint2_linear)"/>
<path d="M217.4 217.4V38.6L196.8 59.2V196.8L217.4 217.4Z" fill="#2BB673"/>
<path d="M59.2 59.2H196.8L236 20H20L59.2 59.2Z" fill="url(#paint3_linear)"/>
<path d="M196.8 196.8H59.2L20 236H236L196.8 196.8Z" fill="url(#paint4_linear)"/>
<path d="M38.5996 217.4H217.4L196.8 196.8H59.1996L38.5996 217.4Z" fill="#2BB673"/>
<path d="M217.4 217.4V38.6L196.8 59.2V196.8L217.4 217.4Z" fill="url(#paint5_linear)"/>
<path d="M38.5996 217.4H217.4L196.8 196.8H59.1996L38.5996 217.4Z" fill="url(#paint6_linear)"/>
<path d="M59.2 196.8V59.2L20 20V236L59.2 196.8Z" fill="url(#paint7_linear)"/>
<path d="M38.6 38.6H217.4L236 20H20L38.6 38.6Z" fill="url(#paint8_linear)"/>
<path d="M38.6 38.6H217.4L236 20H20L38.6 38.6Z" fill="url(#paint9_linear)"/>
<path d="M217.4 38.6H38.5996L59.1996 59.2H196.8L217.4 38.6Z" fill="url(#paint10_linear)"/>
<path d="M217.4 38.6H38.5996L59.1996 59.2H196.8L217.4 38.6Z" fill="url(#paint11_linear)"/>
<path d="M217.4 217.4H38.6L20 236H236L217.4 217.4Z" fill="url(#paint12_linear)"/>
<path d="M217.4 217.4L236 236V20L217.4 38.6V217.4Z" fill="url(#paint13_linear)"/>
<path d="M217.4 217.4H38.6L20 236H236L217.4 217.4Z" fill="url(#paint14_linear)"/>
<path d="M217.4 217.4H38.6L20 236H236L217.4 217.4Z" fill="url(#paint15_linear)"/>
<path d="M217.4 217.4H38.6L20 236H236L217.4 217.4Z" fill="url(#paint16_linear)"/>
<path d="M217.4 217.4H38.6L20 236H236L217.4 217.4Z" fill="url(#paint17_linear)"/>
<path d="M217.4 217.4H38.6L20 236H236L217.4 217.4Z" fill="url(#paint18_linear)"/>
<path d="M217.4 217.4L236 236V20L217.4 38.6V217.4Z" fill="url(#paint19_linear)"/>
<path d="M217.4 217.4L236 236V20L217.4 38.6V217.4Z" fill="url(#paint20_linear)"/>
<path d="M217.4 217.4L236 236V20L217.4 38.6V217.4Z" fill="url(#paint21_linear)"/>
<path d="M217.4 217.4L236 236V20L217.4 38.6V217.4Z" fill="url(#paint22_linear)"/>
<path d="M217.4 217.4L236 236V20L217.4 38.6V217.4Z" fill="url(#paint23_linear)"/>
<path d="M38.6 217.4V38.6L20 20V236L38.6 217.4Z" fill="url(#paint24_linear)"/>
<path d="M38.6 217.4V38.6L20 20V236L38.6 217.4Z" fill="url(#paint25_linear)"/>
<path d="M38.5996 38.6V217.4L59.1996 196.8V59.2L38.5996 38.6Z" fill="url(#paint26_linear)"/>
<path d="M208 48H48V208H208V48Z" fill="url(#paint27_linear)"/>
<path d="M128 177.8H68V187.8H128V177.8Z" fill="white"/>
<path d="M68 67.8H92.4C106.6 67.8 115.4 76.2 115.4 88.6V88.8C115.4 102.6 104.6 109.8 91.2 109.8H81.2V127.8H68V67.8ZM91.6 98C98.2 98 102 94 102 89V88.8C102 82.8 97.8 79.8 91.2 79.8H81V98.2001H91.6V98Z" fill="white"/>
<path d="M124 67.8H170.107V79.4779H137.893V91.9611H166.483V103.639H137.893V116.122H170.913V127.8H124.604V67.8H124Z" fill="white"/>
<defs>
<linearGradient id="paint0_linear" x1="112.849" y1="54.2072" x2="154.535" y2="257.243" gradientUnits="userSpaceOnUse">
<stop offset="0.0242344" stop-color="#10E899"/>
<stop offset="1" stop-color="#21D789"/>
</linearGradient>
<linearGradient id="paint1_linear" x1="212.093" y1="212.092" x2="17.9306" y2="17.9306" gradientUnits="userSpaceOnUse">
<stop offset="0.3475" stop-color="#087CFA"/>
<stop offset="0.8562" stop-color="#FE2857"/>
<stop offset="1" stop-color="#FE2857"/>
</linearGradient>
<linearGradient id="paint2_linear" x1="237.465" y1="237.465" x2="-15.28" y2="-15.2792" gradientUnits="userSpaceOnUse">
<stop stop-color="#FCF84A"/>
<stop offset="0.2816" stop-color="#C1F834"/>
<stop offset="0.7846" stop-color="#10E899"/>
</linearGradient>
<linearGradient id="paint3_linear" x1="15.1316" y1="39.6362" x2="226.634" y2="39.6362" gradientUnits="userSpaceOnUse">
<stop offset="0.1844" stop-color="#EFE50C"/>
<stop offset="0.5239" stop-color="#BEFF26"/>
<stop offset="0.8746" stop-color="#00C66E"/>
</linearGradient>
<linearGradient id="paint4_linear" x1="226.995" y1="216.362" x2="29.8388" y2="216.362" gradientUnits="userSpaceOnUse">
<stop stop-color="#21D789"/>
<stop offset="0.8746" stop-color="#00C66E"/>
</linearGradient>
<linearGradient id="paint5_linear" x1="200.862" y1="127.999" x2="225.596" y2="127.999" gradientUnits="userSpaceOnUse">
<stop offset="0.27" stop-color="#007E62"/>
<stop offset="1" stop-color="#07C3F2" stop-opacity="0"/>
</linearGradient>
<linearGradient id="paint6_linear" x1="127.924" y1="200.86" x2="127.923" y2="225.594" gradientUnits="userSpaceOnUse">
<stop offset="0.27" stop-color="#007E62"/>
<stop offset="1" stop-color="#07C3F2" stop-opacity="0"/>
</linearGradient>
<linearGradient id="paint7_linear" x1="39.6374" y1="13.4704" x2="39.6374" y2="217.018" gradientUnits="userSpaceOnUse">
<stop offset="0.2576" stop-color="#EFE50C"/>
<stop offset="0.5774" stop-color="#BEFF26"/>
<stop offset="0.8746" stop-color="#00C66E"/>
</linearGradient>
<linearGradient id="paint8_linear" x1="119.267" y1="28.8406" x2="66.754" y2="70.7498" gradientUnits="userSpaceOnUse">
<stop offset="0.1018" stop-color="#A5FF21" stop-opacity="0"/>
<stop offset="0.8222" stop-color="#FCF84A"/>
<stop offset="1" stop-color="white" stop-opacity="0.9"/>
</linearGradient>
<linearGradient id="paint9_linear" x1="146.065" y1="27.4698" x2="232.067" y2="21.8118" gradientUnits="userSpaceOnUse">
<stop offset="0.5632" stop-color="#10E899" stop-opacity="0"/>
<stop offset="1" stop-color="#21D789" stop-opacity="0.9"/>
</linearGradient>
<linearGradient id="paint10_linear" x1="193.304" y1="21.662" x2="79.6942" y2="62.5616" gradientUnits="userSpaceOnUse">
<stop offset="0.018393" stop-color="#99C81D"/>
<stop offset="0.723" stop-color="#10C299" stop-opacity="0"/>
</linearGradient>
<linearGradient id="paint11_linear" x1="193.304" y1="21.662" x2="79.6942" y2="62.5616" gradientUnits="userSpaceOnUse">
<stop offset="0.1378" stop-color="#50AC3F" stop-opacity="0.97"/>
<stop offset="0.723" stop-color="#10C23B" stop-opacity="0.4"/>
</linearGradient>
<linearGradient id="paint12_linear" x1="259.079" y1="250.327" x2="57.8634" y2="216.497" gradientUnits="userSpaceOnUse">
<stop stop-color="#FCF84A" stop-opacity="0"/>
<stop offset="1" stop-color="#29CF4B"/>
</linearGradient>
<linearGradient id="paint13_linear" x1="226.732" y1="228.767" x2="226.732" y2="31.8468" gradientUnits="userSpaceOnUse">
<stop stop-color="#21D789"/>
<stop offset="0.8746" stop-color="#00C66E"/>
</linearGradient>
<linearGradient id="paint14_linear" x1="128" y1="213.367" x2="128" y2="241.727" gradientUnits="userSpaceOnUse">
<stop offset="0.1754" stop-color="#07C3F2" stop-opacity="0"/>
<stop offset="0.7533" stop-color="#07BC65"/>
</linearGradient>
<linearGradient id="paint15_linear" x1="128" y1="213.367" x2="128" y2="241.727" gradientUnits="userSpaceOnUse">
<stop offset="0.0714497" stop-color="#10E899" stop-opacity="0.5"/>
<stop offset="0.5642" stop-color="#10E899" stop-opacity="0"/>
</linearGradient>
<linearGradient id="paint16_linear" x1="128" y1="236.069" x2="128" y2="214.243" gradientUnits="userSpaceOnUse">
<stop offset="0.0714497" stop-color="#21D789" stop-opacity="0.5"/>
<stop offset="0.5642" stop-color="#10E899" stop-opacity="0"/>
</linearGradient>
<linearGradient id="paint17_linear" x1="205.171" y1="240.561" x2="-7.0036" y2="206.613" gradientUnits="userSpaceOnUse">
<stop offset="0.5632" stop-color="#A5FF21" stop-opacity="0"/>
<stop offset="1" stop-color="#10E899" stop-opacity="0.9"/>
</linearGradient>
<linearGradient id="paint18_linear" x1="170.07" y1="226.73" x2="234.927" y2="226.73" gradientUnits="userSpaceOnUse">
<stop offset="0.5632" stop-color="#07C3F2" stop-opacity="0"/>
<stop offset="1" stop-color="#009AE5" stop-opacity="0.9"/>
</linearGradient>
<linearGradient id="paint19_linear" x1="214.589" y1="128" x2="240.787" y2="128" gradientUnits="userSpaceOnUse">
<stop offset="0.1754" stop-color="#07C3F2" stop-opacity="0"/>
<stop offset="0.7533" stop-color="#07BC65"/>
</linearGradient>
<linearGradient id="paint20_linear" x1="214.589" y1="128" x2="240.787" y2="128" gradientUnits="userSpaceOnUse">
<stop offset="0.0714497" stop-color="#10E899" stop-opacity="0.5"/>
<stop offset="0.5642" stop-color="#10E899" stop-opacity="0"/>
</linearGradient>
<linearGradient id="paint21_linear" x1="233.764" y1="128" x2="221.089" y2="128" gradientUnits="userSpaceOnUse">
<stop offset="0.0714497" stop-color="#21D789" stop-opacity="0.5"/>
<stop offset="0.5642" stop-color="#10E899" stop-opacity="0"/>
</linearGradient>
<linearGradient id="paint22_linear" x1="228.636" y1="131.881" x2="213.01" y2="24.0258" gradientUnits="userSpaceOnUse">
<stop offset="0.5632" stop-color="#A5FF21" stop-opacity="0"/>
<stop offset="1" stop-color="#10E899" stop-opacity="0.9"/>
</linearGradient>
<linearGradient id="paint23_linear" x1="226.732" y1="142.097" x2="226.732" y2="236.176" gradientUnits="userSpaceOnUse">
<stop offset="0.5632" stop-color="#07C3F2" stop-opacity="0"/>
<stop offset="1" stop-color="#009AE5" stop-opacity="0.9"/>
</linearGradient>
<linearGradient id="paint24_linear" x1="15.6324" y1="173.884" x2="49.9676" y2="35.0282" gradientUnits="userSpaceOnUse">
<stop offset="0.1018" stop-color="#A5FF21" stop-opacity="0"/>
<stop offset="0.8222" stop-color="#FCF84A"/>
<stop offset="1" stop-color="white" stop-opacity="0.9"/>
</linearGradient>
<linearGradient id="paint25_linear" x1="27.7758" y1="127.588" x2="8.5386" y2="241.596" gradientUnits="userSpaceOnUse">
<stop offset="0.5632" stop-color="#FCF84A" stop-opacity="0"/>
<stop offset="1" stop-color="#21D789" stop-opacity="0.9"/>
</linearGradient>
<linearGradient id="paint26_linear" x1="19.575" y1="138.583" x2="62.9992" y2="114.346" gradientUnits="userSpaceOnUse">
<stop offset="0.1378" stop-color="#50AC3F" stop-opacity="0.97"/>
<stop offset="0.723" stop-color="#10C23B" stop-opacity="0.4"/>
</linearGradient>
<linearGradient id="paint27_linear" x1="48.2436" y1="48.2436" x2="188.435" y2="188.435" gradientUnits="userSpaceOnUse">
<stop stop-color="#298B2A"/>
<stop offset="0.092362" stop-color="#216F21"/>
<stop offset="0.2928" stop-color="#103510"/>
<stop offset="0.6895" stop-color="#051005"/>
<stop offset="0.9138"/>
</linearGradient>
</defs>
</svg>
