<svg width="128" height="128" viewBox="0 0 128 128" fill="none" xmlns="http://www.w3.org/2000/svg">
<path d="M118 10H10V118H118V10Z" fill="url(#paint0_linear)"/>
<path d="M98.4001 29.6H29.6001V98.3H98.3001V29.6H98.4001Z" fill="url(#paint1_linear)"/>
<path d="M108.7 19.3H19.2998V108.8H108.8V19.3H108.7Z" fill="url(#paint2_linear)"/>
<path d="M108.7 108.7V19.3L98.3999 29.6V98.4L108.7 108.7Z" fill="#2BB673"/>
<path d="M29.6 29.6H98.4L118 10H10L29.6 29.6Z" fill="url(#paint3_linear)"/>
<path d="M98.4 98.4H29.6L10 118H118L98.4 98.4Z" fill="url(#paint4_linear)"/>
<path d="M19.2998 108.7H108.7L98.3998 98.4H29.5998L19.2998 108.7Z" fill="#2BB673"/>
<path d="M108.7 108.7V19.3L98.3999 29.6V98.4L108.7 108.7Z" fill="url(#paint5_linear)"/>
<path d="M19.2998 108.7H108.7L98.3998 98.4H29.5998L19.2998 108.7Z" fill="url(#paint6_linear)"/>
<path d="M29.6 98.4V29.6L10 10V118L29.6 98.4Z" fill="url(#paint7_linear)"/>
<path d="M19.3 19.3H108.7L118 10H10L19.3 19.3Z" fill="url(#paint8_linear)"/>
<path d="M19.3 19.3H108.7L118 10H10L19.3 19.3Z" fill="url(#paint9_linear)"/>
<path d="M108.7 19.3H19.2998L29.5998 29.6H98.3998L108.7 19.3Z" fill="url(#paint10_linear)"/>
<path d="M108.7 19.3H19.2998L29.5998 29.6H98.3998L108.7 19.3Z" fill="url(#paint11_linear)"/>
<path d="M108.7 108.7H19.3L10 118H118L108.7 108.7Z" fill="url(#paint12_linear)"/>
<path d="M108.7 108.7L118 118V10L108.7 19.3V108.7Z" fill="url(#paint13_linear)"/>
<path d="M108.7 108.7H19.3L10 118H118L108.7 108.7Z" fill="url(#paint14_linear)"/>
<path d="M108.7 108.7H19.3L10 118H118L108.7 108.7Z" fill="url(#paint15_linear)"/>
<path d="M108.7 108.7H19.3L10 118H118L108.7 108.7Z" fill="url(#paint16_linear)"/>
<path d="M108.7 108.7H19.3L10 118H118L108.7 108.7Z" fill="url(#paint17_linear)"/>
<path d="M108.7 108.7H19.3L10 118H118L108.7 108.7Z" fill="url(#paint18_linear)"/>
<path d="M108.7 108.7L118 118V10L108.7 19.3V108.7Z" fill="url(#paint19_linear)"/>
<path d="M108.7 108.7L118 118V10L108.7 19.3V108.7Z" fill="url(#paint20_linear)"/>
<path d="M108.7 108.7L118 118V10L108.7 19.3V108.7Z" fill="url(#paint21_linear)"/>
<path d="M108.7 108.7L118 118V10L108.7 19.3V108.7Z" fill="url(#paint22_linear)"/>
<path d="M108.7 108.7L118 118V10L108.7 19.3V108.7Z" fill="url(#paint23_linear)"/>
<path d="M19.3 108.7V19.3L10 10V118L19.3 108.7Z" fill="url(#paint24_linear)"/>
<path d="M19.3 108.7V19.3L10 10V118L19.3 108.7Z" fill="url(#paint25_linear)"/>
<path d="M19.2998 19.3V108.7L29.5998 98.4V29.6L19.2998 19.3Z" fill="url(#paint26_linear)"/>
<path d="M104 24H24V104H104V24Z" fill="url(#paint27_linear)"/>
<path d="M64 88.9H34V93.9H64V88.9Z" fill="white"/>
<path d="M34 33.9H46.2C53.3 33.9 57.7 38.1 57.7 44.3V44.4C57.7 51.3 52.3 54.9 45.6 54.9H40.6V63.9H34V33.9ZM45.8 49C49.1 49 51 47 51 44.5V44.4C51 41.4 48.9 39.9 45.6 39.9H40.5V49.1H45.8V49Z" fill="white"/>
<path d="M62 33.9H85.0537V39.739H68.9463V45.9806H83.2416V51.8195H68.9463V58.0611H85.4564V63.9H62.302V33.9H62Z" fill="white"/>
<defs>
<linearGradient id="paint0_linear" x1="56.4246" y1="27.1036" x2="77.2676" y2="128.621" gradientUnits="userSpaceOnUse">
<stop offset="0.0242344" stop-color="#10E899"/>
<stop offset="1" stop-color="#21D789"/>
</linearGradient>
<linearGradient id="paint1_linear" x1="106.047" y1="106.046" x2="8.9653" y2="8.96527" gradientUnits="userSpaceOnUse">
<stop offset="0.3475" stop-color="#087CFA"/>
<stop offset="0.8562" stop-color="#FE2857"/>
<stop offset="1" stop-color="#FE2857"/>
</linearGradient>
<linearGradient id="paint2_linear" x1="118.733" y1="118.732" x2="-7.63999" y2="-7.63961" gradientUnits="userSpaceOnUse">
<stop  offset="0" stop-color="#FCF84A"/>
<stop offset="0.2816" stop-color="#C1F834"/>
<stop offset="0.7846" stop-color="#10E899"/>
</linearGradient>
<linearGradient id="paint3_linear" x1="7.5658" y1="19.8181" x2="113.317" y2="19.8181" gradientUnits="userSpaceOnUse">
<stop offset="0.1844" stop-color="#EFE50C"/>
<stop offset="0.5239" stop-color="#BEFF26"/>
<stop offset="0.8746" stop-color="#00C66E"/>
</linearGradient>
<linearGradient id="paint4_linear" x1="113.497" y1="108.181" x2="14.9194" y2="108.181" gradientUnits="userSpaceOnUse">
<stop  offset="0" stop-color="#21D789"/>
<stop offset="0.8746" stop-color="#00C66E"/>
</linearGradient>
<linearGradient id="paint5_linear" x1="100.431" y1="63.9997" x2="112.798" y2="63.9997" gradientUnits="userSpaceOnUse">
<stop offset="0.27" stop-color="#007E62"/>
<stop offset="1" stop-color="#07C3F2" stop-opacity="0"/>
</linearGradient>
<linearGradient id="paint6_linear" x1="63.9618" y1="100.43" x2="63.9615" y2="112.797" gradientUnits="userSpaceOnUse">
<stop offset="0.27" stop-color="#007E62"/>
<stop offset="1" stop-color="#07C3F2" stop-opacity="0"/>
</linearGradient>
<linearGradient id="paint7_linear" x1="19.8187" y1="6.7352" x2="19.8187" y2="108.509" gradientUnits="userSpaceOnUse">
<stop offset="0.2576" stop-color="#EFE50C"/>
<stop offset="0.5774" stop-color="#BEFF26"/>
<stop offset="0.8746" stop-color="#00C66E"/>
</linearGradient>
<linearGradient id="paint8_linear" x1="59.6335" y1="14.4203" x2="33.377" y2="35.3749" gradientUnits="userSpaceOnUse">
<stop offset="0.1018" stop-color="#A5FF21" stop-opacity="0"/>
<stop offset="0.8222" stop-color="#FCF84A"/>
<stop offset="1" stop-color="white" stop-opacity="0.9"/>
</linearGradient>
<linearGradient id="paint9_linear" x1="73.0327" y1="13.7349" x2="116.033" y2="10.9059" gradientUnits="userSpaceOnUse">
<stop offset="0.5632" stop-color="#10E899" stop-opacity="0"/>
<stop offset="1" stop-color="#21D789" stop-opacity="0.9"/>
</linearGradient>
<linearGradient id="paint10_linear" x1="96.6519" y1="10.831" x2="39.8471" y2="31.2808" gradientUnits="userSpaceOnUse">
<stop offset="0.018393" stop-color="#99C81D"/>
<stop offset="0.723" stop-color="#10C299" stop-opacity="0"/>
</linearGradient>
<linearGradient id="paint11_linear" x1="96.6519" y1="10.831" x2="39.8471" y2="31.2808" gradientUnits="userSpaceOnUse">
<stop offset="0.1378" stop-color="#50AC3F" stop-opacity="0.97"/>
<stop offset="0.723" stop-color="#10C23B" stop-opacity="0.4"/>
</linearGradient>
<linearGradient id="paint12_linear" x1="129.539" y1="125.164" x2="28.9317" y2="108.248" gradientUnits="userSpaceOnUse">
<stop  offset="0" stop-color="#FCF84A" stop-opacity="0"/>
<stop offset="1" stop-color="#29CF4B"/>
</linearGradient>
<linearGradient id="paint13_linear" x1="113.366" y1="114.383" x2="113.366" y2="15.9234" gradientUnits="userSpaceOnUse">
<stop  offset="0" stop-color="#21D789"/>
<stop offset="0.8746" stop-color="#00C66E"/>
</linearGradient>
<linearGradient id="paint14_linear" x1="63.9998" y1="106.683" x2="63.9998" y2="120.863" gradientUnits="userSpaceOnUse">
<stop offset="0.1754" stop-color="#07C3F2" stop-opacity="0"/>
<stop offset="0.7533" stop-color="#07BC65"/>
</linearGradient>
<linearGradient id="paint15_linear" x1="63.9998" y1="106.683" x2="63.9998" y2="120.863" gradientUnits="userSpaceOnUse">
<stop offset="0.0714497" stop-color="#10E899" stop-opacity="0.5"/>
<stop offset="0.5642" stop-color="#10E899" stop-opacity="0"/>
</linearGradient>
<linearGradient id="paint16_linear" x1="63.9998" y1="118.035" x2="63.9998" y2="107.122" gradientUnits="userSpaceOnUse">
<stop offset="0.0714497" stop-color="#21D789" stop-opacity="0.5"/>
<stop offset="0.5642" stop-color="#10E899" stop-opacity="0"/>
</linearGradient>
<linearGradient id="paint17_linear" x1="102.585" y1="120.28" x2="-3.5018" y2="103.306" gradientUnits="userSpaceOnUse">
<stop offset="0.5632" stop-color="#A5FF21" stop-opacity="0"/>
<stop offset="1" stop-color="#10E899" stop-opacity="0.9"/>
</linearGradient>
<linearGradient id="paint18_linear" x1="85.0352" y1="113.365" x2="117.464" y2="113.365" gradientUnits="userSpaceOnUse">
<stop offset="0.5632" stop-color="#07C3F2" stop-opacity="0"/>
<stop offset="1" stop-color="#009AE5" stop-opacity="0.9"/>
</linearGradient>
<linearGradient id="paint19_linear" x1="107.295" y1="63.9998" x2="120.393" y2="63.9998" gradientUnits="userSpaceOnUse">
<stop offset="0.1754" stop-color="#07C3F2" stop-opacity="0"/>
<stop offset="0.7533" stop-color="#07BC65"/>
</linearGradient>
<linearGradient id="paint20_linear" x1="107.295" y1="63.9998" x2="120.393" y2="63.9998" gradientUnits="userSpaceOnUse">
<stop offset="0.0714497" stop-color="#10E899" stop-opacity="0.5"/>
<stop offset="0.5642" stop-color="#10E899" stop-opacity="0"/>
</linearGradient>
<linearGradient id="paint21_linear" x1="116.882" y1="63.9998" x2="110.545" y2="63.9998" gradientUnits="userSpaceOnUse">
<stop offset="0.0714497" stop-color="#21D789" stop-opacity="0.5"/>
<stop offset="0.5642" stop-color="#10E899" stop-opacity="0"/>
</linearGradient>
<linearGradient id="paint22_linear" x1="114.318" y1="65.9404" x2="106.505" y2="12.0129" gradientUnits="userSpaceOnUse">
<stop offset="0.5632" stop-color="#A5FF21" stop-opacity="0"/>
<stop offset="1" stop-color="#10E899" stop-opacity="0.9"/>
</linearGradient>
<linearGradient id="paint23_linear" x1="113.366" y1="71.0483" x2="113.366" y2="118.088" gradientUnits="userSpaceOnUse">
<stop offset="0.5632" stop-color="#07C3F2" stop-opacity="0"/>
<stop offset="1" stop-color="#009AE5" stop-opacity="0.9"/>
</linearGradient>
<linearGradient id="paint24_linear" x1="7.8162" y1="86.942" x2="24.9838" y2="17.5141" gradientUnits="userSpaceOnUse">
<stop offset="0.1018" stop-color="#A5FF21" stop-opacity="0"/>
<stop offset="0.8222" stop-color="#FCF84A"/>
<stop offset="1" stop-color="white" stop-opacity="0.9"/>
</linearGradient>
<linearGradient id="paint25_linear" x1="13.8879" y1="63.7938" x2="4.2693" y2="120.798" gradientUnits="userSpaceOnUse">
<stop offset="0.5632" stop-color="#FCF84A" stop-opacity="0"/>
<stop offset="1" stop-color="#21D789" stop-opacity="0.9"/>
</linearGradient>
<linearGradient id="paint26_linear" x1="9.78751" y1="69.2915" x2="31.4996" y2="57.1732" gradientUnits="userSpaceOnUse">
<stop offset="0.1378" stop-color="#50AC3F" stop-opacity="0.97"/>
<stop offset="0.723" stop-color="#10C23B" stop-opacity="0.4"/>
</linearGradient>
<linearGradient id="paint27_linear" x1="24.1218" y1="24.1218" x2="94.2176" y2="94.2176" gradientUnits="userSpaceOnUse">
<stop  offset="0" stop-color="#298B2A"/>
<stop offset="0.092362" stop-color="#216F21"/>
<stop offset="0.2928" stop-color="#103510"/>
<stop offset="0.6895" stop-color="#051005"/>
<stop offset="0.9138"/>
</linearGradient>
</defs>
</svg>
