<svg width="32" height="32" viewBox="0 0 32 32" fill="none" xmlns="http://www.w3.org/2000/svg" data-scaled="true">
<g clip-path="url(#clip0_4372_13109)">
<path d="M2.90918 24.0261L2.91005 29.9638C2.91005 31.0885 3.82176 31.9999 4.94642 31.9999H10.6997C11.2941 31.9999 11.859 31.7401 12.2459 31.2889L28.6008 12.2082C28.917 11.839 29.091 11.3689 29.091 10.8828V4.94505C29.091 3.8204 28.1793 2.90869 27.0546 2.90869H21.3004C20.7061 2.90869 20.1412 3.16847 19.7543 3.61967L3.39936 22.7004C3.08285 23.0696 2.90918 23.5397 2.90918 24.0261Z" fill="#F0EB18"/>
<path d="M2.90918 24.7403V29.9636C2.90918 31.0882 3.82089 31.9999 4.94554 31.9999H11.4919C11.5882 31.9999 11.6845 31.9929 11.7799 31.9796L30.2517 29.341C31.2551 29.1976 32.0001 28.3385 32.0001 27.325V19.4885C32.0001 18.3636 31.0881 17.4519 29.9631 17.4521L20.6939 17.4545C20.4751 17.4545 20.2578 17.4897 20.0504 17.5589L4.30147 22.8087C3.47005 23.0859 2.90918 23.8641 2.90918 24.7406V24.7403Z" fill="url(#paint0_linear_4372_13109)"/>
<path d="M0 2.03636V19.0205C0 19.8351 0.485527 20.5713 1.23404 20.8922L19.9793 28.9262C20.2327 29.0348 20.5059 29.0909 20.7817 29.0909H29.9636C31.0883 29.0909 32 28.1792 32 27.0545V18.0716C32 17.6692 31.8807 17.2759 31.6573 16.9411L20.9556 0.906763C20.578 0.340654 19.9427 0.000872727 19.262 0.000872727L2.03636 0C0.911709 0 0 0.911709 0 2.03636Z" fill="url(#paint1_linear_4372_13109)"/>
<path d="M26 6H6V26H26V6Z" fill="black"/>
<path d="M9.53449 9.13046L10.7604 14.6736L12.0677 9.13046H13.5647L14.9315 14.6736L16.1193 9.13046H17.6218L15.7776 16.7239H14.0909L12.8109 11.2077L11.5147 16.7239H9.83319L8 9.13046H9.53507H9.53449ZM20.8204 16.8543C20.2707 16.8543 19.7825 16.7547 19.356 16.5559C18.9329 16.3572 18.6002 16.0785 18.3579 15.7205C18.1193 15.3626 17.9964 14.9502 17.9891 14.4839H19.4754C19.4754 14.7041 19.5332 14.8982 19.6488 15.0641C19.7645 15.2303 19.9255 15.3605 20.1315 15.4547C20.3375 15.5488 20.5743 15.5956 20.8419 15.5956C21.1095 15.5956 21.3228 15.5543 21.5146 15.4709C21.7098 15.3841 21.8598 15.2649 21.9647 15.113C22.0731 14.961 22.1274 14.7875 22.1274 14.5923C22.1274 14.3502 22.0533 14.1494 21.9051 13.9902C21.7604 13.831 21.5599 13.7211 21.303 13.6592L19.9632 13.3608C19.6018 13.2815 19.2871 13.1458 19.0195 12.954C18.7519 12.7588 18.5441 12.5182 18.3956 12.2326C18.2474 11.9472 18.1733 11.625 18.1733 11.267C18.1733 10.8332 18.2855 10.4447 18.5095 10.101C18.7338 9.75373 19.0465 9.48467 19.4478 9.29289C19.849 9.09763 20.3047 9 20.8146 9C21.3245 9 21.7927 9.09414 22.1977 9.28214C22.6028 9.46985 22.9171 9.73223 23.1415 10.0687C23.3693 10.4017 23.4849 10.7847 23.4887 11.2185H22.008C22.008 11.034 21.9591 10.8692 21.8615 10.7248C21.7639 10.5763 21.6247 10.4624 21.444 10.3831C21.2667 10.2997 21.0625 10.2584 20.8312 10.2584C20.5999 10.2584 20.3953 10.2985 20.2184 10.3779C20.0449 10.4537 19.9092 10.5624 19.8116 10.7033C19.7139 10.841 19.6651 11.0017 19.6651 11.1859C19.6651 11.3954 19.7319 11.5689 19.8659 11.7066C20.0033 11.8444 20.1896 11.942 20.4247 11.9995L21.7157 12.2817C22.0882 12.3575 22.4188 12.5019 22.7082 12.7155C23.0011 12.925 23.2289 13.1853 23.3916 13.4965C23.5544 13.8037 23.6357 14.1398 23.6357 14.5054C23.6357 14.9534 23.5163 15.357 23.2777 15.715C23.0427 16.0695 22.7117 16.3476 22.2852 16.5504C21.8586 16.7532 21.3705 16.854 20.8207 16.854L20.8204 16.8543Z" fill="white"/>
<path d="M16 22H9V23H16V22Z" fill="white"/>
</g>
<defs>
<linearGradient id="paint0_linear_4372_13109" x1="3.81071" y1="32.3586" x2="30.6238" y2="19.9272" gradientUnits="userSpaceOnUse">
<stop offset="0.22" stop-color="#F0EB18"/>
<stop offset="0.59" stop-color="#00C4F4"/>
</linearGradient>
<linearGradient id="paint1_linear_4372_13109" x1="30.0093" y1="29.8889" x2="0.656582" y2="0.536435" gradientUnits="userSpaceOnUse">
<stop offset="0.19" stop-color="#00C4F4"/>
<stop offset="0.83" stop-color="#007DFE"/>
</linearGradient>
<clipPath id="clip0_4372_13109">
<rect width="32" height="32" fill="white"/>
</clipPath>
</defs>
<path d="M28.0943 32H11.9057C11.3928 32 10.8849 31.8989 10.411 31.7026C9.93718 31.5064 9.50663 31.2188 9.14395 30.8561C8.78128 30.4934 8.49358 30.0628 8.2973 29.589C8.10102 29.1151 8 28.6073 8 28.0944V23.9056C8 23.3927 8.10102 22.8849 8.2973 22.411C8.49358 21.9372 8.78128 21.5066 9.14395 21.1439C9.50663 20.7812 9.93718 20.4935 10.411 20.2972C10.8849 20.101 11.3928 20 11.9057 20H28.0943C28.6072 20 29.1151 20.101 29.589 20.2972C30.0628 20.4935 30.4934 20.7812 30.856 21.1439C31.2187 21.5066 31.5064 21.9372 31.7027 22.411C31.899 22.8849 32 23.3927 32 23.9056V28.0944C32 29.1302 31.5885 30.1236 30.856 30.8561C30.1236 31.5885 29.1302 32 28.0943 32V32Z" fill="#FDB60D"/>
<path d="M12.4562 23.3781H16.5756V24.4473H13.6498V25.5551H16.2246V26.6238H13.6498V27.7708H16.6147V28.8395H12.4562V23.3781Z" fill="black"/>
<path d="M19.5557 23.3395H20.6635L23.0041 28.8395H21.748L21.2487 27.6147H18.9395L18.4402 28.8395H17.2156L19.5557 23.3395ZM20.8199 26.5537L20.0941 24.7825L19.3687 26.5537H20.8199Z" fill="black"/>
<path d="M23.8468 23.378H26.0782C26.3431 23.3466 26.6118 23.3722 26.866 23.4531C27.1203 23.534 27.3543 23.6684 27.5523 23.8473C27.7503 24.0261 27.9078 24.2453 28.0141 24.49C28.1205 24.7347 28.1732 24.9992 28.1689 25.266V25.2817C28.1666 25.5583 28.1056 25.8313 27.9899 26.0825C27.8742 26.3337 27.7064 26.5575 27.4977 26.739C27.289 26.9205 27.0441 27.0555 26.7792 27.1352C26.5144 27.2149 26.2356 27.2375 25.9614 27.2013H25.0486V28.8395H23.8468V23.378ZM26 26.1321C26.118 26.1471 26.238 26.1369 26.3519 26.1024C26.4658 26.0678 26.5711 26.0097 26.6609 25.9316C26.7508 25.8536 26.8232 25.7573 26.8733 25.6494C26.9234 25.5414 26.9502 25.4242 26.9518 25.3052V25.2894C26.9518 24.7515 26.5775 24.4625 25.9766 24.4625H25.0486V26.1321H26Z" fill="black"/>
</svg>