<svg width="16" height="16" viewBox="0 0 16 16" fill="none" xmlns="http://www.w3.org/2000/svg">
<g clip-path="url(#clip0_4372_13107)">
<path d="M16 0H0V16H16V0Z" fill="#07C3F2"/>
<path d="M15 1H1V15H15V1Z" fill="black"/>
<path d="M3.48784 2.86666L4.33164 6.68206L5.23144 2.86666H6.26184L7.20264 6.68206L8.02024 2.86666H9.05444L7.78504 8.09326H6.62404L5.74304 4.29646L4.85084 8.09326H3.69344L2.43164 2.86666H3.48824H3.48784ZM11.256 8.18306C10.8776 8.18306 10.5416 8.11446 10.248 7.97766C9.95684 7.84086 9.72784 7.64906 9.56104 7.40266C9.39684 7.15626 9.31224 6.87246 9.30724 6.55146H10.3302C10.3302 6.70306 10.37 6.83666 10.4496 6.95086C10.5292 7.06526 10.64 7.15486 10.7818 7.21966C10.9236 7.28446 11.0866 7.31666 11.2708 7.31666C11.455 7.31666 11.6018 7.28826 11.7338 7.23086C11.8682 7.17106 11.9714 7.08906 12.0436 6.98446C12.1182 6.87986 12.1556 6.76046 12.1556 6.62606C12.1556 6.45946 12.1046 6.32126 12.0026 6.21166C11.903 6.10206 11.765 6.02646 11.5882 5.98386L10.666 5.77846C10.4172 5.72386 10.2006 5.63046 10.0164 5.49846C9.83224 5.36406 9.68924 5.19846 9.58704 5.00186C9.48504 4.80546 9.43404 4.58366 9.43404 4.33726C9.43404 4.03866 9.51124 3.77126 9.66544 3.53466C9.81984 3.29566 10.035 3.11046 10.3112 2.97846C10.5874 2.84406 10.901 2.77686 11.252 2.77686C11.603 2.77686 11.9252 2.84166 12.204 2.97106C12.4828 3.10026 12.6992 3.28086 12.8536 3.51246C13.0104 3.74166 13.09 4.00526 13.0926 4.30386H12.0734C12.0734 4.17686 12.0398 4.06346 11.9726 3.96406C11.9054 3.86186 11.8096 3.78346 11.6852 3.72886C11.5632 3.67146 11.4226 3.64306 11.2634 3.64306C11.1042 3.64306 10.9634 3.67066 10.8416 3.72526C10.7222 3.77746 10.6288 3.85226 10.5616 3.94926C10.4944 4.04406 10.4608 4.15466 10.4608 4.28146C10.4608 4.42566 10.5068 4.54506 10.599 4.63986C10.6936 4.73466 10.8218 4.80186 10.9836 4.84146L11.8722 5.03566C12.1286 5.08786 12.3562 5.18726 12.5554 5.33426C12.757 5.47846 12.9138 5.65766 13.0258 5.87186C13.1378 6.08326 13.1938 6.31466 13.1938 6.56626C13.1938 6.87466 13.1116 7.15246 12.9474 7.39886C12.7856 7.64286 12.5578 7.83426 12.2642 7.97386C11.9706 8.11346 11.6346 8.18286 11.2562 8.18286L11.256 8.18306Z" fill="white"/>
<path d="M8 12H3V13H8V12Z" fill="white"/>
</g>
<defs>
<clipPath id="clip0_4372_13107">
<rect width="16" height="16" fill="white"/>
</clipPath>
</defs>
<path d="M16 16H5.95284C5.43491 16 4.9382 15.7942 4.57198 15.428C4.20575 15.0618 4 14.565 4 14.0471V11.9529C4 11.435 4.20575 10.9382 4.57198 10.572C4.9382 10.2058 5.43491 10 5.95284 10H14.0471C14.5651 10 15.0618 10.2058 15.428 10.572C15.7942 10.9382 16 11.435 16 11.9529L16 16Z" fill="#FDB60D"/>
<path d="M5.87097 11.5658H8.11797V12.1489H6.52211V12.7533H7.92653V13.3362H6.52211V13.9618H8.13931V14.5447H5.87102L5.87097 11.5658Z" fill="black"/>
<path d="M9.74345 11.5447H10.3477L11.6244 14.5447H10.9393L10.6669 13.8767H9.40739L9.13504 14.5447H8.46704L9.74345 11.5447ZM10.4331 13.298L10.0372 12.3318L9.64149 13.298H10.4331Z" fill="black"/>
<path d="M12.084 11.5658H13.3011C13.4456 11.5487 13.5921 11.5626 13.7308 11.6067C13.8695 11.6509 13.9971 11.7243 14.1051 11.8218C14.2132 11.9194 14.2991 12.0388 14.3571 12.1723C14.4151 12.3058 14.4439 12.4501 14.4415 12.5956V12.6043C14.4403 12.7552 14.407 12.904 14.3439 13.0411C14.2808 13.1781 14.1892 13.3001 14.0754 13.3991C13.9615 13.4981 13.828 13.5718 13.6835 13.6153C13.539 13.6587 13.387 13.671 13.2374 13.6513H12.7395V14.5447H12.084L12.084 11.5658ZM13.2585 13.068C13.3229 13.0762 13.3883 13.0708 13.4504 13.0519C13.5125 13.0331 13.57 13.0012 13.619 12.9587C13.668 12.9161 13.7075 12.8636 13.7348 12.8047C13.7622 12.7458 13.7768 12.6819 13.7777 12.617V12.6084C13.7777 12.315 13.5735 12.1574 13.2457 12.1574H12.7395V13.068H13.2585Z" fill="black"/>
</svg>