<svg width="12" height="12" viewBox="0 0 12 12" fill="none" xmlns="http://www.w3.org/2000/svg">
<path fill-rule="evenodd" clip-rule="evenodd" d="M0 1C0 0.447715 0.447715 0 1 0H2C2.55228 0 3 0.447715 3 1V2C3 2.55228 2.55228 3 2 3H1C0.447715 3 0 2.55228 0 2V1ZM1 1H2V2H1L1 1Z" fill="#6C707E"/>
<path fill-rule="evenodd" clip-rule="evenodd" d="M8 1C8 0.447715 8.44772 0 9 0H11C11.5523 0 12 0.447715 12 1V3C12 3.55228 11.5523 4 11 4H9C8.44772 4 8 3.55228 8 3V1ZM9 1H11V3H9V1Z" fill="#6C707E"/>
<path d="M4.5 1C4.22386 1 4 1.22386 4 1.5C4 1.77614 4.22386 2 4.5 2H6.5C6.77614 2 7 1.77614 7 1.5C7 1.22386 6.77614 1 6.5 1H4.5Z" fill="#6C707E"/>
<path d="M2 4.5C2 4.22386 1.77614 4 1.5 4C1.22386 4 1 4.22386 1 4.5V6.5C1 6.77614 1.22386 7 1.5 7C1.77614 7 2 6.77614 2 6.5V4.5Z" fill="#6C707E"/>
<path d="M11.4211 10.7264C12.789 8.78038 11.3036 5 11.3036 5C11.3036 5 10.7009 6.3089 9.04912 6.9166C7.60551 7.44774 6.64125 7.00068 5.47168 7.57885C4.49036 8.06395 4 8.81968 4 9.95512C4 10.649 4.3238 11.1034 4.82142 11.4027C9.94153 10.7264 10.9005 7.49314 10.9005 7.49314C10.9005 7.49314 10.3642 10.9368 5.96896 11.8127C6.6222 11.9449 7.35034 11.9789 8.00801 11.9964C9.43186 12.0343 10.6774 11.7844 11.4211 10.7264Z" fill="#5FB865"/>
<path d="M0 9C0 8.44772 0.447715 8 1 8H3V9H1V11H3V12H1C0.447715 12 0 11.5523 0 11V9Z" fill="#6C707E"/>
</svg>
