<svg width="16" height="16" viewBox="0 0 16 16" fill="none" xmlns="http://www.w3.org/2000/svg">
<path fill-rule="evenodd" clip-rule="evenodd" d="M14.8283 10.7002C14.787 10.6661 12.0729 8.00219 12.0729 8.00219C12.0729 8.00219 14.133 5.77171 14.6811 5.21303C14.842 5.04847 14.9851 4.861 15.1053 4.65062C15.8519 3.34113 15.4158 1.66277 14.1307 0.901667C13.1763 0.336448 12.0224 0.436495 11.1859 1.06202C11.0474 1.16487 10.9181 1.28269 10.7993 1.41452C10.7218 1.50008 7.87601 4.15272 5.40127 6.45474L10.0467 9.45568C10.0467 9.45568 5.16462 15.0373 5.15728 15.0429C4.87064 15.2504 4.56795 15.3781 4.26526 15.4468C4.32167 15.4417 4.37854 15.4435 4.43495 15.4356C5.40219 15.2888 13.6359 13.8704 14.0303 13.7979C14.5173 13.7077 14.9645 13.4276 15.2328 12.9564C15.6708 12.1878 15.4827 11.2439 14.8283 10.7002" fill="#0CB0F2"/>
<path fill-rule="evenodd" clip-rule="evenodd" d="M10.3244 7.04059C10.2371 6.47236 9.93695 5.98989 9.51723 5.66079C9.06157 5.30372 5.6245 1.71856 5.21879 1.31953C4.62447 0.734049 3.76917 0.42639 2.88026 0.562039C1.38442 0.789987 0.357309 2.18471 0.586074 3.67732C0.69999 4.42409 1.10663 5.0534 1.67154 5.4678C2.23645 5.88268 6.58998 8.87769 6.85236 9.08233C7.30382 9.43381 7.8916 9.60722 8.50366 9.51399C9.69044 9.33312 10.5056 8.22555 10.3244 7.04059" fill="#FF318C"/>
<path fill-rule="evenodd" clip-rule="evenodd" d="M5.43862 15.0007C5.44655 14.9951 10.4163 9.4297 10.4163 9.4297L5.41154 6.26314C3.63511 7.88208 2.00388 9.36583 1.61778 9.71312C1.37081 9.93593 1.15325 10.1998 0.976772 10.5032C0.0621802 12.0742 0.596742 14.0879 2.17055 15.0007C2.81996 15.3778 4.26351 15.8346 5.43862 15.0007" fill="#905CFB"/>
<path fill-rule="evenodd" clip-rule="evenodd" d="M3.33142 12.6499H12.6688V3.32689H3.33142V12.6499Z" fill="black"/>
<path fill-rule="evenodd" clip-rule="evenodd" d="M4.26526 11.2521H7.5328V10.7853H4.26526V11.2521Z" fill="white"/>
<path fill-rule="evenodd" clip-rule="evenodd" d="M6.58832 4.72536L5.67085 6.22208L4.7695 4.72536H3.79822L5.24982 6.98394V8.45396H6.08095V6.96775L7.53255 4.72536H6.58832Z" fill="white"/>
<path fill-rule="evenodd" clip-rule="evenodd" d="M8 4.72536V5.48153H9.19994V8.45396H10.0673V5.48153H11.2675V4.72536H8Z" fill="white"/>
</svg>
