<svg width="16" height="16" viewBox="0 0 16 16" fill="none" xmlns="http://www.w3.org/2000/svg">
<path d="M11.9976 13C12.5498 13 12.9976 12.5523 12.9976 12C12.9976 11.4477 12.5498 11 11.9976 11C11.4453 11 10.9976 11.4477 10.9976 12C10.9976 12.5523 11.4453 13 11.9976 13Z" fill="#3574F0"/>
<path fill-rule="evenodd" clip-rule="evenodd" d="M13.1192 15.6756C13.046 15.8707 12.8594 16 12.651 16H11.344C11.1356 16 10.949 15.8707 10.8758 15.6756L10.6263 15.0102C10.5424 14.7865 10.3119 14.6534 10.0761 14.6926L9.37521 14.8092C9.16961 14.8434 8.96437 14.7464 8.86016 14.5659L8.20666 13.4341C8.10245 13.2536 8.12113 13.0273 8.25355 12.8664L8.70498 12.3177C8.85681 12.1331 8.85681 11.8669 8.70498 11.6824L8.25353 11.1336C8.12111 10.9727 8.10243 10.7464 8.20664 10.5659L8.86014 9.43405C8.96435 9.25355 9.1696 9.15663 9.37519 9.19083L10.0761 9.30742C10.3119 9.34664 10.5424 9.21353 10.6263 8.98976L10.8758 8.32444C10.949 8.12929 11.1356 8 11.344 8H12.651C12.8594 8 13.046 8.12929 13.1192 8.32444L13.3687 8.98976C13.4526 9.21353 13.6831 9.34664 13.9189 9.30742L14.6198 9.19083C14.8254 9.15663 15.0307 9.25355 15.1349 9.43405L15.7884 10.5659C15.8926 10.7464 15.8739 10.9727 15.7415 11.1336L15.29 11.6824C15.1382 11.8669 15.1382 12.1331 15.29 12.3177L15.7415 12.8664C15.8739 13.0273 15.8926 13.2536 15.7883 13.4341L15.1348 14.5659C15.0306 14.7464 14.8254 14.8434 14.6198 14.8092L13.9189 14.6926C13.6831 14.6534 13.4526 14.7865 13.3687 15.0102L13.1192 15.6756ZM11.6905 15H12.3045L12.4323 14.6591C12.6841 13.9878 13.3757 13.5885 14.0829 13.7061L14.4421 13.7659L14.7491 13.2341L14.5178 12.953C14.0623 12.3993 14.0623 11.6007 14.5178 11.047L14.7491 10.7659L14.4421 10.2341L14.0829 10.2939C13.3757 10.4115 12.6841 10.0122 12.4323 9.34088L12.3045 9H11.6905L11.5627 9.34088C11.3109 10.0122 10.6193 10.4115 9.91205 10.2939L9.55291 10.2341L9.24591 10.7659L9.47722 11.047C9.93273 11.6007 9.93273 12.3993 9.47722 12.953L9.24593 13.2341L9.55293 13.7659L9.91205 13.7061C10.6193 13.5885 11.3109 13.9878 11.5627 14.6591L11.6905 15Z" fill="#3574F0"/>
<path d="M8.00016 8C8.32792 8.00001 8.63789 8.01985 8.93082 8.05371C7.75624 8.96863 7.00016 10.3958 7.00016 12C7.00016 12.7114 7.15035 13.3874 7.41812 14H3.00016C2.44805 13.9998 2.00816 13.5518 2.10269 13.0078C2.39904 11.3033 3.54848 8.00017 8.00016 8Z" fill="#EBECF0"/>
<path d="M8.00016 1C9.65686 1.00017 11.0002 2.34325 11.0002 4C11.0002 5.65675 9.65686 6.99983 8.00016 7C6.34346 6.99982 5.00016 5.65674 5.00016 4C5.00016 2.34326 6.34346 1.00018 8.00016 1Z" fill="#EBECF0"/>
<path d="M8.00016 8C8.32792 8.00001 8.63789 8.01985 8.93082 8.05371C8.58043 8.32664 8.26702 8.64473 8.00016 9C6.05871 9.00008 4.94063 9.70411 4.25601 10.5117C3.5919 11.2953 3.27193 12.2553 3.12223 13H7.10074C7.17139 13.348 7.27927 13.6823 7.41812 14H3.00016C2.44805 13.9998 2.00816 13.5518 2.10269 13.0078C2.39904 11.3033 3.54848 8.00017 8.00016 8Z" fill="#6C707E"/>
<path fill-rule="evenodd" clip-rule="evenodd" d="M8.00016 1C9.65686 1.00017 11.0002 2.34325 11.0002 4C11.0002 5.65675 9.65686 6.99983 8.00016 7C6.34346 6.99982 5.00016 5.65674 5.00016 4C5.00016 2.34326 6.34346 1.00018 8.00016 1ZM8.00016 2C6.89574 2.00018 6.00016 2.89554 6.00016 4C6.00016 5.10446 6.89574 5.99982 8.00016 6C9.10458 5.99983 10.0002 5.10446 10.0002 4C10.0002 2.89554 9.10458 2.00017 8.00016 2Z" fill="#6C707E"/>
</svg>
