<svg width="16" height="16" viewBox="0 0 16 16" fill="none" xmlns="http://www.w3.org/2000/svg">
<path d="M8 1C11.866 1 15 4.13401 15 8C15 8.31937 14.976 8.63338 14.9346 8.94141C14.6991 7.91063 13.8292 7.12179 12.7559 7.0127L12.5 7H10.5C9.11929 7 8 8.11929 8 9.5V10.4189L7.52539 10.5771C6.95131 10.7686 6.5525 11.2843 6.50488 11.8799L6.5 12L6.50488 12.1201C6.5525 12.7157 6.95131 13.2314 7.52539 13.4229L8 13.5801V15C4.13401 15 1 11.866 1 8C1 4.13401 4.13401 1 8 1Z" fill="#25324D"/>
<path d="M8.13281 4.5C8.49864 4.50004 8.85163 4.55438 9.18066 4.65527C9.20601 4.66304 9.2308 4.67235 9.25586 4.68066C9.94961 4.91104 10.5285 5.35066 10.8887 5.92383L10.1094 6.5C10.0983 6.48019 10.086 6.46083 10.0742 6.44141C10.0639 6.42443 10.0538 6.40729 10.043 6.39062C10.0289 6.36908 10.014 6.34816 9.99902 6.32715C9.98862 6.31251 9.9786 6.29758 9.96777 6.2832C9.82138 6.08875 9.63697 5.91927 9.42188 5.7832C9.40906 5.7751 9.39584 5.76763 9.38281 5.75977C9.35296 5.74174 9.32294 5.72376 9.29199 5.70703C9.27691 5.69888 9.26143 5.69143 9.24609 5.68359C9.21061 5.66547 9.1745 5.64823 9.1377 5.63184C9.13184 5.62923 9.126 5.62659 9.12012 5.62402C9.07886 5.60606 9.03696 5.58895 8.99414 5.57324C8.98275 5.56906 8.97146 5.56456 8.95996 5.56055C8.92661 5.5489 8.89263 5.53857 8.8584 5.52832C8.83863 5.5224 8.81888 5.51618 8.79883 5.51074C8.76254 5.5009 8.72566 5.49261 8.68848 5.48438C8.6738 5.48112 8.65934 5.47663 8.64453 5.47363C8.60309 5.46525 8.56102 5.4585 8.51855 5.45215C8.50493 5.45011 8.49126 5.44811 8.47754 5.44629C8.43504 5.44065 8.39207 5.43617 8.34863 5.43262C8.33434 5.43145 8.32005 5.42965 8.30566 5.42871C8.30307 5.42854 8.30045 5.42887 8.29785 5.42871L8.13281 5.42383C7.33102 5.42383 6.66506 5.8099 6.25781 6.44141C5.98472 6.86451 5.82617 7.39669 5.82617 8C5.82617 9.32221 6.57475 10.31 7.66602 10.5293L7.52539 10.5771C7.18751 10.6899 6.91008 10.9147 6.72949 11.2021C5.71185 10.7405 4.99608 9.77629 4.82617 8.56348C4.80064 8.38095 4.78711 8.19287 4.78711 8C4.78711 6.87149 5.2382 5.90495 5.97461 5.27539C6.54747 4.78567 7.29311 4.5 8.13281 4.5Z" fill="#548AF7"/>
<path d="M10.5 16C10.7761 16 11 15.7761 11 15.5C11 15.2239 10.7761 15 10.5 15C10.2239 15 10 14.7761 10 14.5L10 12.8604C10 12.5021 9.8092 12.1773 9.50978 12C9.8092 11.8227 10 11.4979 10 11.1396V9.5C10 9.22386 10.2239 9 10.5 9C10.7761 9 11 8.77614 11 8.5C11 8.22386 10.7761 8 10.5 8C9.67157 8 9 8.67157 9 9.5L9 11.1396L7.84189 11.5257C7.63772 11.5937 7.5 11.7848 7.5 12C7.5 12.2152 7.63772 12.4063 7.84189 12.4743L9 12.8604L9 14.5C9 15.3284 9.67157 16 10.5 16Z" fill="#CED0D6"/>
<path d="M12.5 8C12.2239 8 12 8.22386 12 8.5C12 8.77614 12.2239 9 12.5 9C12.7761 9 13 9.22386 13 9.5V11.1396C13 11.4979 13.1908 11.8227 13.4902 12C13.1908 12.1773 13 12.5021 13 12.8604V14.5C13 14.7761 12.7761 15 12.5 15C12.2239 15 12 15.2239 12 15.5C12 15.7761 12.2239 16 12.5 16C13.3284 16 14 15.3284 14 14.5V12.8604L15.1581 12.4743C15.3623 12.4063 15.5 12.2152 15.5 12C15.5 11.7848 15.3623 11.5937 15.1581 11.5257L14 11.1396V9.5C14 8.67157 13.3284 8 12.5 8Z" fill="#CED0D6"/>
<path d="M8 1C11.866 1 15 4.13401 15 8C15 8.31937 14.976 8.63338 14.9346 8.94141C14.7987 8.34658 14.4519 7.83377 13.9756 7.48438C13.714 4.41216 11.1399 2 8 2C4.68629 2 2 4.68629 2 8C2 11.3137 4.68629 14 8 14V15C4.13401 15 1 11.866 1 8C1 4.13401 4.13401 1 8 1Z" fill="#548AF7"/>
</svg>
