<svg width="16" height="16" viewBox="0 0 16 16" fill="none" xmlns="http://www.w3.org/2000/svg">
<path fill-rule="evenodd" clip-rule="evenodd" d="M14 9C14 10.1046 13.1046 11 12 11C10.8954 11 10 10.1046 10 9C10 7.89543 10.8954 7 12 7C13.1046 7 14 7.89543 14 9ZM13 9C13 9.55228 12.5523 10 12 10C11.4477 10 11 9.55228 11 9C11 8.44772 11.4477 8 12 8C12.5523 8 13 8.44772 13 9Z" fill="#6C707E"/>
<path fill-rule="evenodd" clip-rule="evenodd" d="M13 12H11C9.34315 12 8 13.3431 8 15C8 15.5523 8.44772 16 9 16H15C15.5523 16 16 15.5523 16 15C16 13.3431 14.6569 12 13 12ZM9 15C9 13.8954 9.89543 13 11 13H13C14.1046 13 15 13.8954 15 15H9Z" fill="#6C707E"/>
<path d="M8 1C11.1709 1 13.8483 3.10867 14.709 6H12C10.3431 6 9 7.34315 9 9C9 9.84409 9.35005 10.6053 9.91113 11.1504C8.25338 11.6184 7.03484 13.1279 7.00293 14.9277C3.60933 14.4437 1 11.5274 1 8C1 4.13401 4.13401 1 8 1Z" fill="#EDF3FF"/>
<path d="M8.13281 4.5C8.62038 4.50005 9.0848 4.59669 9.5 4.77145C10.0843 5.0174 10.5712 5.4181 10.888 5.92207L10.1082 6.5C9.89046 6.1114 9.53441 5.79613 9.08717 5.60952C8.80204 5.49056 8.47986 5.42388 8.13281 5.42383C6.79372 5.42383 5.82617 6.49655 5.82617 8C5.82617 9.50345 6.79372 10.5762 8.13281 10.5762C8.56717 10.5761 8.96205 10.4707 9.29492 10.29C9.43234 10.5767 9.61419 10.8368 9.83105 11.0645C9.33799 11.3402 8.75474 11.4999 8.13281 11.5C6.21361 11.5 4.78711 10.0062 4.78711 8C4.78711 5.99378 6.21361 4.5 8.13281 4.5Z" fill="#3574F0"/>
<path d="M8 1C11.1709 1 13.8483 3.10867 14.709 6H13.6543C12.8306 3.67014 10.612 2 8 2C4.68629 2 2 4.68629 2 8C2 11.0232 4.23617 13.5222 7.14453 13.9375C7.05756 14.2538 7.009 14.5853 7.00293 14.9277C3.60933 14.4437 1 11.5274 1 8C1 4.13401 4.13401 1 8 1Z" fill="#3574F0"/>
</svg>
