<svg width="16" height="16" viewBox="0 0 16 16" fill="none" xmlns="http://www.w3.org/2000/svg">
<path d="M6.12207 2C6.39437 2.0001 6.65525 2.11111 6.84375 2.30762L8.4668 4H13C14.1046 4 15 4.89543 15 6H12V8.03516C10.3038 8.27775 9 9.73675 9 11.5C9 12.4797 9.40311 13.3647 10.0518 14H2.63379C1.73186 14 1.00022 13.1645 1 12.1338V3.86621C1.00022 2.83549 1.73186 2 2.63379 2H6.12207Z" fill="#EBECF0"/>
<path d="M6.12207 2C6.39437 2.0001 6.65525 2.11111 6.84375 2.30762L8.4668 4H13C14.1046 4 15 4.89543 15 6H14C14 5.48232 13.6067 5.05621 13.1025 5.00488L13 5H8.04004L6.12207 3H2.63379C2.40532 3 2.0002 3.25829 2 3.86621V12.1338C2.0002 12.7417 2.40532 13 2.63379 13H9.33691C9.51509 13.3751 9.75854 13.7128 10.0518 14H2.63379L2.4668 13.9902C1.6979 13.9012 1.08689 13.2029 1.00879 12.3242L1 12.1338V3.86621C1.0002 2.89975 1.6431 2.10511 2.4668 2.00977L2.63379 2H6.12207Z" fill="#6C707E"/>
<path fill-rule="evenodd" clip-rule="evenodd" d="M13 7V9H12.5C11.1193 9 10 10.1193 10 11.5C10 12.8807 11.1193 14 12.5 14L14 14V7H13ZM12.5 13C11.6716 13 11 12.3284 11 11.5C11 10.6716 11.6716 10 12.5 10H13V13L12.5 13Z" fill="#3574F0"/>
<path d="M15 7H16V8H15V7Z" fill="#3574F0"/>
<path d="M15 9H16V14C16 15.1046 15.1046 16 14 16V15C14.5523 15 15 14.5523 15 14V9Z" fill="#3574F0"/>
</svg>
