<svg width="16" height="16" viewBox="0 0 16 16" fill="none" xmlns="http://www.w3.org/2000/svg">
<path d="M15 8C15 4.13401 11.866 1 8 1C4.13401 1 1 4.13401 1 8C1 11.866 4.13401 15 8 15V10C8 8.89543 8.89543 8 10 8H15Z" fill="#FFF7F7"/>
<path d="M8 14C4.68629 14 2 11.3137 2 8C2 4.68629 4.68629 2 8 2C11.3137 2 14 4.68629 14 8H15C15 4.13401 11.866 1 8 1C4.13401 1 1 4.13401 1 8C1 11.866 4.13401 15 8 15V14Z" fill="#DB3B4B"/>
<path d="M9.87988 4V4.87402H8.87402C8.51994 4.8742 8.27441 5.1206 8.27441 5.48047V6.43066H9.8291V7.32715H8.27441V8.99219C8.10107 9.28834 8 9.63207 8 10V12H7.25684V7.32715H6.12012V6.43066H7.25684V5.40527C7.25705 4.57123 7.87465 4 8.77734 4H9.87988Z" fill="#DB3B4B"/>
<path fill-rule="evenodd" clip-rule="evenodd" d="M15 9C15.5523 9 16 9.44772 16 10V15C16 15.5523 15.5523 16 15 16H10C9.44772 16 9 15.5523 9 15V10C9 9.44772 9.44772 9 10 9H15ZM11.5 12C11.3081 12 11.1162 12.0733 10.9697 12.2197L10 13.1895V15H14.8105L12.0303 12.2197C11.8838 12.0733 11.6919 12 11.5 12ZM14 10C13.4477 10 13 10.4477 13 11C13 11.5523 13.4477 12 14 12C14.5523 12 15 11.5523 15 11C15 10.4477 14.5523 10 14 10Z" fill="#6C707E"/>
</svg>
