<svg width="16" height="16" viewBox="0 0 16 16" fill="none" xmlns="http://www.w3.org/2000/svg">
<path d="M4.26758 2.0772C4.50104 1.92993 4.80964 2.00003 4.95703 2.23345C5.10413 2.4668 5.03489 2.77546 4.80176 2.92291C3.11746 3.98648 2 5.86299 2 8.00006C2.00005 10.1371 3.11746 12.0137 4.80176 13.0772C5.03487 13.2247 5.1042 13.5333 4.95703 13.7667C4.80962 14 4.501 14.0701 4.26758 13.9229C2.30536 12.6839 1.00005 10.4944 1 8.00006C1 5.50563 2.30536 3.31627 4.26758 2.0772Z" fill="#CED0D6"/>
<path d="M11.7324 13.9229C11.499 14.0701 11.1904 14 11.043 13.7667C10.8958 13.5333 10.9651 13.2247 11.1982 13.0772L11.7324 13.9229Z" fill="#CED0D6"/>
<path d="M11.043 2.23345C11.1904 2.00003 11.499 1.92993 11.7324 2.0772C13.6946 3.31627 15 5.50563 15 8.00006C15 10.4944 13.6946 12.6839 11.7324 13.9229L11.4658 13.5001L11.1982 13.0772C12.8825 12.0137 14 10.1371 14 8.00006C14 5.86299 12.8825 3.98648 11.1982 2.92291C10.9651 2.77546 10.8959 2.4668 11.043 2.23345Z" fill="#CED0D6"/>
<path d="M9.58984 4.84088C9.72807 4.643 9.98388 4.57613 10.1973 4.66802L10.2861 4.71685L10.4756 4.85845C11.403 5.59028 12 6.72534 12 8.00006C11.9999 9.35969 11.3211 10.5613 10.2861 11.2833C10.0598 11.4409 9.74786 11.3853 9.58984 11.1592C9.43193 10.9328 9.48762 10.621 9.71387 10.4629C10.4923 9.92 10.9999 9.01902 11 8.00006C11 6.98105 10.4923 6.08014 9.71387 5.53716C9.48759 5.37916 9.43201 5.06728 9.58984 4.84088Z" fill="#CED0D6"/>
<path d="M5.93848 4.57134C6.17493 4.42919 6.48159 4.50588 6.62402 4.74224C6.76644 4.97875 6.69058 5.28627 6.4541 5.42877C6.39698 5.4632 6.34072 5.4991 6.28613 5.53716C5.50775 6.08014 5 6.98105 5 8.00006C5.00005 8.95536 5.44639 9.80647 6.14355 10.3565L6.28613 10.4629L6.36328 10.5284C6.52334 10.697 6.54834 10.9611 6.41016 11.1592C6.27193 11.357 6.01607 11.4239 5.80273 11.3321L5.71387 11.2833L5.52441 11.1417C4.59698 10.4099 4.00005 9.27474 4 8.00006C4 6.64038 4.67886 5.43883 5.71387 4.71685C5.78677 4.666 5.86211 4.61736 5.93848 4.57134Z" fill="#CED0D6"/>
<path d="M8 7.00006C8.55228 7.00006 9 7.44777 9 8.00006C8.99996 8.55231 8.55226 9.00006 8 9.00006C7.44774 9.00006 7.00004 8.55231 7 8.00006C7 7.44777 7.44772 7.00006 8 7.00006Z" fill="#CED0D6"/>
</svg>
