<svg width="16" height="16" viewBox="0 0 16 16" fill="none" xmlns="http://www.w3.org/2000/svg">
<g clip-path="url(#clip0_21278_15701)">
<path d="M9.2793 10.0803C9.4747 9.95383 9.73798 9.97794 9.90723 10.1506C10.1004 10.3479 10.0976 10.6644 9.90039 10.8577L9.70215 11.0715C9.26368 11.5933 9 12.2657 9 13.0002C9.00006 13.7348 9.26365 14.4072 9.70215 14.929L9.90039 15.1428L9.96484 15.2209C10.095 15.4137 10.0763 15.6773 9.90723 15.8498C9.73801 16.0224 9.47464 16.0465 9.2793 15.9202L9.2002 15.8577L9.06543 15.718C8.40484 15.005 8.00006 14.0494 8 13.0002C8 11.8812 8.46 10.8682 9.2002 10.1428L9.2793 10.0803Z" fill="#CED0D6"/>
<path d="M14.0928 10.1506C14.262 9.97794 14.5253 9.95383 14.7207 10.0803L14.7998 10.1428L14.9346 10.2825C15.5951 10.9955 16 11.951 16 13.0002C15.9999 14.1193 15.54 15.1323 14.7998 15.8577L14.7207 15.9202C14.5254 16.0465 14.262 16.0224 14.0928 15.8498C13.8995 15.6527 13.9025 15.3361 14.0996 15.1428L14.2979 14.929C14.7363 14.4072 14.9999 13.7348 15 13.0002C15 12.2657 14.7363 11.5933 14.2979 11.0715L14.0996 10.8577L14.0352 10.7795C13.9049 10.5868 13.9237 10.3233 14.0928 10.1506Z" fill="#CED0D6"/>
<path d="M10.667 11.509C10.8728 11.3253 11.189 11.3435 11.373 11.5491C11.5567 11.7548 11.5386 12.0711 11.333 12.2551C11.128 12.4389 11 12.7044 11 13.0002C11.0001 13.2592 11.0978 13.4951 11.2598 13.6731L11.333 13.7454L11.4014 13.8206C11.54 14.0071 11.5339 14.2714 11.373 14.4514C11.2118 14.6315 10.9489 14.6675 10.748 14.55L10.667 14.4905L10.5205 14.3459C10.1976 13.9911 10.0001 13.5184 10 13.0002C10 12.4079 10.2587 11.8745 10.667 11.509Z" fill="#CED0D6"/>
<path d="M12.627 11.5491C12.7881 11.369 13.0511 11.3322 13.252 11.4495L13.333 11.509L13.4795 11.6545C13.8023 12.0094 14 12.4821 14 13.0002C13.9999 13.5925 13.7413 14.125 13.333 14.4905L13.252 14.55C13.0511 14.6675 12.7882 14.6315 12.627 14.4514C12.4432 14.2457 12.4614 13.9294 12.667 13.7454L12.7402 13.6731C12.9022 13.4951 12.9999 13.2592 13 13.0002C13 12.7413 12.9022 12.5054 12.7402 12.3274L12.667 12.2551L12.5986 12.1799C12.4599 11.9934 12.4662 11.7292 12.627 11.5491Z" fill="#CED0D6"/>
</g>
<path d="M8 1C11.866 1 15 4.13401 15 8C15 8.33992 14.9746 8.67401 14.9277 9.00098C14.3592 9.00016 11.2025 8.99583 9.5459 9.00098C9.26428 9.00185 8.98245 9.08107 8.73633 9.24023L8.69629 9.26562L8.53809 9.39062L8.5 9.42773C7.57578 10.3335 7.00014 11.6017 7 13L7.00586 13.2441C7.0354 13.8551 7.17539 14.438 7.40527 14.9727C3.81774 14.6707 1 11.6656 1 8C1 4.13401 4.13401 1 8 1Z" fill="#402929"/>
<path d="M8 1C11.866 1 15 4.13401 15 8C15 8.33992 14.9746 8.67401 14.9277 9.00098C14.7667 9.00074 14.3982 9.00146 13.915 9.00098C13.9697 8.67537 14 8.34116 14 8C14 4.68629 11.3137 2 8 2C4.68629 2 2 4.68629 2 8C2 11.0033 4.20658 13.4909 7.08691 13.9307C7.15536 14.2933 7.26315 14.6421 7.40527 14.9727C3.81774 14.6707 1 11.6656 1 8C1 4.13401 4.13401 1 8 1Z" fill="#DB5C5C"/>
<path d="M9.75977 4.87402H8.75391C8.39982 4.8742 8.1543 5.1206 8.1543 5.48047V6.43066H9.70898V7.32715H8.1543V9.80371C7.67081 10.3854 7.31747 11.0803 7.13672 11.8418V7.32715H6V6.43066H7.13672V5.40527C7.13694 4.57123 7.75453 4 8.65723 4H9.75977V4.87402Z" fill="#DB5C5C"/>
<defs>
<clipPath id="clip0_21278_15701">
<rect width="8" height="6" fill="white" transform="translate(8 10)"/>
</clipPath>
</defs>
</svg>
