<svg width="14" height="14" viewBox="0 0 14 14" fill="none" xmlns="http://www.w3.org/2000/svg">
<path d="M11 0C12.1046 0 13 0.895431 13 2V4H12V2C12 1.44772 11.5523 1 11 1H6C5.44772 1 5 1.44772 5 2V4C5 4.55228 5.44772 5 6 5H10V6H6C4.89543 6 4 5.10457 4 4V3H2V10H4C4 8.89543 4.89543 8 6 8H7.33887C7.19108 8.31094 7.08963 8.64682 7.03906 9H6C5.44772 9 5 9.44772 5 10V12C5 12.5523 5.44772 13 6 13H11V14H6C4.89543 14 4 13.1046 4 12V11H2V13.5C2 13.7761 1.77614 14 1.5 14C1.22386 14 1 13.7761 1 13.5V0.5C1 0.223858 1.22386 0 1.5 0C1.77614 0 2 0.223858 2 0.5V2H4C4 0.895431 4.89543 0 6 0H11Z" fill="#CED0D6"/>
<path fill-rule="evenodd" clip-rule="evenodd" d="M11 5V7H10.5C9.11929 7 8 8.11929 8 9.5C8 10.8807 9.11929 12 10.5 12L12 12V5H11ZM10.5 11C9.67157 11 9 10.3284 9 9.5C9 8.67157 9.67157 8 10.5 8H11V11L10.5 11Z" fill="#548AF7"/>
<path d="M13 5H14V6H13V5Z" fill="#548AF7"/>
<path d="M13 7H14V12C14 13.1046 13.1046 14 12 14V13C12.5523 13 13 12.5523 13 12V7Z" fill="#548AF7"/>
</svg>
