<svg width="64" height="64" viewBox="0 0 64 64" fill="none" xmlns="http://www.w3.org/2000/svg">
<path d="M29.287 27.0261L22.6435 0L0.904348 15.1304L0 43.7913L17.9478 38.6783L30.6783 31.1652L29.287 27.0261Z" fill="#087DFA"/>
<path d="M22.6435 0L19.0261 16.4174L48.9739 37.0087L63.8608 12.9043L22.6435 0Z" fill="url(#paint0_linear)"/>
<path d="M48.5217 18.1565L54.0174 38.7131L64 12.9044L48.5217 18.1565Z" fill="#07C3F2"/>
<path d="M41.0435 23.1652L18.4 21.913L0 43.7913L22.5 51L32.3826 35.7217L41.0435 23.1652Z" fill="url(#paint1_linear)"/>
<path d="M64 39.513L48.1739 22.9913L46.2609 2.19128L18.4 21.913L18.1218 44.6261L31.7218 63.1304L55.5131 64L64 39.513Z" fill="url(#paint2_linear)"/>
<path d="M51 13H13V51H51V13Z" fill="url(#paint3_linear)"/>
<path d="M32.1444 44H18V46.3222H32.1444V44Z" fill="white"/>
<path d="M18 17.75H21.4484L25.2651 23.7872L29.0818 17.75H32.5302V31.99H29.3496V22.7045L25.2651 28.7745H25.1981L21.1471 22.7701V31.99H18V17.75Z" fill="white"/>
<path d="M36.1459 17.75H39.3265V31.99H36.1459V17.75Z" fill="white"/>
<defs>
<linearGradient id="paint0_linear" x1="19.0327" y1="18.5083" x2="63.8634" y2="18.5083" gradientUnits="userSpaceOnUse">
<stop offset="0.1179" stop-color="#087CFA"/>
<stop offset="0.8178" stop-color="#07C3F2"/>
</linearGradient>
<linearGradient id="paint1_linear" x1="3.69426" y1="52.7449" x2="31.7913" y2="26.0477" gradientUnits="userSpaceOnUse">
<stop offset="0.1179" stop-color="#087CFA"/>
<stop offset="0.8178" stop-color="#FF45ED"/>
</linearGradient>
<linearGradient id="paint2_linear" x1="4.83359" y1="-21.593" x2="54.6676" y2="60.3505" gradientUnits="userSpaceOnUse">
<stop offset="0" stop-color="#087CFA"/>
<stop offset="0.8178" stop-color="#FF45ED"/>
</linearGradient>
<linearGradient id="paint3_linear" x1="31.9493" y1="3.7641" x2="31.9493" y2="37.8425" gradientUnits="userSpaceOnUse">
<stop offset="0.0842986" stop-color="#878585"/>
<stop offset="0.5377"/>
</linearGradient>
</defs>
<path d="M56.1887 64H23.8113C21.7397 64 19.7528 63.1771 18.2879 61.7122C16.823 60.2473 16 58.2604 16 56.1887V47.8113C16 46.7855 16.202 45.7697 16.5946 44.822C16.9872 43.8743 17.5626 43.0132 18.2879 42.2878C19.0133 41.5625 19.8743 40.9872 20.8221 40.5946C21.7698 40.202 22.7855 40 23.8113 40H56.1887C58.2604 40 60.2472 40.8229 61.7121 42.2878C63.177 43.7527 64 45.7396 64 47.8113V56.1887C64 58.2604 63.177 60.2473 61.7121 61.7122C60.2472 63.1771 58.2604 64 56.1887 64Z" fill="#FDB60D"/>
<path d="M24.9124 46.7561H33.1512V48.8945H27.2997V51.1102H32.4492V53.2476H27.2997V55.5415H33.2294V57.679H24.9124V46.7561Z" fill="black"/>
<path d="M39.1113 46.679H41.327L46.0082 57.679H43.4959L42.4973 55.2296H37.8791L36.8805 57.679H34.4312L39.1113 46.679ZM41.6399 53.1074L40.1882 49.5651L38.7375 53.1074H41.6399Z" fill="black"/>
<path d="M47.6936 46.7561H52.1564C54.7621 46.7561 56.3378 48.3013 56.3378 50.5321V50.5636C56.3378 53.0911 54.372 54.4026 51.9228 54.4026H50.0972V57.6788H47.6936L47.6936 46.7561ZM51.9999 52.2643C52.2361 52.2943 52.4759 52.274 52.7037 52.205C52.9315 52.1359 53.1422 52.0194 53.3219 51.8633C53.5016 51.7072 53.6463 51.5149 53.7466 51.299C53.8468 51.083 53.9004 50.8484 53.9037 50.6104V50.5789C53.9037 49.503 53.155 48.925 51.9532 48.925H50.0972V52.2643H51.9999Z" fill="black"/>
</svg>