<svg width="24" height="24" viewBox="0 0 24 24" fill="none" xmlns="http://www.w3.org/2000/svg">
<g clip-path="url(#clip0_4372_12486)">
<path d="M21.5363 0H9.32892C8.74347 0 8.21426 0.348973 7.98363 0.886964L2.20917 14.3602C2.13117 14.5423 2.09082 14.7386 2.09082 14.9368V21.5364C2.09082 22.3447 2.74611 23 3.55446 23H10.011C10.3001 23 10.5828 22.9143 10.8235 22.7537L22.3482 15.0619C22.7551 14.7905 22.9993 14.3336 22.9993 13.8445L22.9999 1.46364C22.9999 0.655291 22.3446 0 21.5363 0Z" fill="url(#paint0_linear_4372_12486)"/>
<path d="M5.21786 2.09082H1.46364C0.655291 2.09082 0 2.74611 0 3.55446V8.25963C0 8.32884 0.00501818 8.39805 0.0146364 8.46663L1.91109 21.7433C2.01417 22.4644 2.63162 22.9999 3.36009 22.9999H8.99258C9.80114 22.9999 10.4564 22.3444 10.4562 21.5359L10.4545 14.8736C10.4545 14.7164 10.4292 14.5602 10.3795 14.4111L6.60644 3.09174C6.40717 2.49416 5.84785 2.09103 5.21786 2.09103V2.09082Z" fill="url(#paint1_linear_4372_12486)"/>
<path d="M5.73118 2.09131L1.46343 2.09194C0.655291 2.09194 0 2.74723 0 3.55557V7.69076C0 8.11794 0.186718 8.52399 0.511018 8.80208L14.2251 20.5572C14.4904 20.7845 14.8283 20.9095 15.1777 20.9095H19.4455C20.2538 20.9095 20.9091 20.2542 20.9091 19.4459V15.31C20.9091 14.8829 20.7224 14.4768 20.3981 14.1987L6.68401 2.44363C6.41867 2.21614 6.08078 2.09131 5.73118 2.09131Z" fill="#7256FF"/>
<path d="M20 4H4V20H20V4Z" fill="black"/>
<path d="M6.17383 6.1001H8.73817C9.15623 6.1001 9.52469 6.17461 9.84331 6.32935C10.1619 6.4841 10.4065 6.70261 10.5773 6.9801C10.7507 7.25735 10.8376 7.58284 10.8376 7.94536C10.8376 8.30787 10.7494 8.64936 10.5731 8.92684C10.3997 9.20958 10.1507 9.4281 9.8264 9.5881C9.50503 9.73736 9.13086 9.81736 8.70434 9.81736H7.33909V12.0734H6.17429V6.1001H6.17383ZM8.66114 8.84684C8.85749 8.84684 9.028 8.81484 9.17314 8.7401C9.32103 8.66558 9.43486 8.5641 9.5144 8.43084C9.59394 8.2921 9.63394 8.13758 9.63394 7.9561C9.63394 7.77461 9.59417 7.6201 9.5144 7.48684C9.43463 7.35358 9.32103 7.2521 9.17314 7.17735C9.028 7.10787 8.85749 7.07061 8.66114 7.07061H7.3384V8.84661H8.66114V8.84684ZM10.3946 10.9961H11.3846C11.5183 10.9961 11.6349 10.9694 11.7345 10.9161C11.8339 10.8626 11.9107 10.7881 11.9649 10.6868C12.0189 10.5854 12.0461 10.4681 12.0461 10.3348V6.1001H13.2109V10.4201C13.2109 10.7506 13.1411 11.0386 13.0017 11.2894C12.8623 11.5346 12.6646 11.7266 12.4086 11.8708C12.1553 12.0041 11.8625 12.0734 11.5297 12.0734H10.3949V10.9961H10.3946Z" fill="white"/>
<path d="M12 17H6V18H12V17Z" fill="white"/>
</g>
<defs>
<linearGradient id="paint0_linear_4372_12486" x1="1.51728" y1="21.5692" x2="22.6143" y2="0.471919" gradientUnits="userSpaceOnUse">
<stop offset="0.25" stop-color="#FFB700"/>
<stop offset="0.73" stop-color="#FF2D90"/>
</linearGradient>
<linearGradient id="paint1_linear_4372_12486" x1="-0.257809" y1="2.739" x2="8.81297" y2="22.3032" gradientUnits="userSpaceOnUse">
<stop offset="0.29" stop-color="#7256FF"/>
<stop offset="0.66" stop-color="#FFB700"/>
</linearGradient>
<clipPath id="clip0_4372_12486">
<rect width="24" height="24" fill="white"/>
</clipPath>
</defs>
</svg>
