<svg width="256" height="256" viewBox="0 0 256 256" fill="none" xmlns="http://www.w3.org/2000/svg">
<g clip-path="url(#clip0_4372_12490)">
<path d="M239.709 0L103.836 0C97.3198 0 91.4295 3.88422 88.8625 9.87229L24.5902 159.835C23.7221 161.862 23.2729 164.047 23.2729 166.253L23.2729 239.709C23.2729 248.706 30.5666 256 39.5639 256H111.428C114.646 256 117.793 255.046 120.472 253.258L248.746 167.645C253.275 164.624 255.993 159.539 255.993 154.096L256 16.2909C256 7.29367 248.707 0 239.709 0Z" fill="url(#paint0_linear_4372_12490)"/>
<path d="M58.0771 23.2729L16.2909 23.2729C7.29367 23.2729 0 30.5666 0 39.5639L0 91.9345C0 92.7048 0.0558545 93.4751 0.162909 94.2385L21.2713 242.013C22.4186 250.04 29.2911 256 37.3993 256H100.091C109.091 256 116.385 248.704 116.382 239.705L116.364 165.551C116.364 163.801 116.082 162.062 115.528 160.403L73.5325 34.4136C71.3146 27.7623 65.0892 23.2753 58.0771 23.2753V23.2729Z" fill="url(#paint1_linear_4372_12490)"/>
<path d="M63.7905 23.2749L16.2886 23.2819C7.29367 23.2819 0 30.5756 0 39.5728L0 85.5993C0 90.3539 2.07825 94.8734 5.68785 97.9687L158.331 228.808C161.285 231.338 165.046 232.729 168.934 232.729H216.436C225.434 232.729 232.727 225.436 232.727 216.439V170.405C232.727 165.65 230.649 161.131 227.039 158.036L74.3959 27.1964C71.4426 24.6643 67.6817 23.2749 63.7905 23.2749Z" fill="#7256FF"/>
<path d="M209 47L47 47L47 209L209 209L209 47Z" fill="black"/>
<path d="M133 177H68V188H133V177Z" fill="white"/>
<path d="M69.0112 69H95.1986C99.4678 69 103.231 69.7609 106.484 71.3412C109.738 72.9214 112.236 75.1529 113.98 77.9867C115.751 80.818 116.638 84.1419 116.638 87.844C116.638 91.546 115.737 95.0333 113.937 97.867C112.166 100.754 109.624 102.986 106.312 104.62C103.03 106.144 99.2087 106.961 94.8531 106.961H80.911L80.911 130H69.0159L69.0159 69H69.0112ZM94.4119 97.05C96.417 97.05 98.1583 96.7232 99.6405 95.96C101.151 95.199 102.313 94.1626 103.126 92.8018C103.938 91.3849 104.346 89.807 104.346 87.9537C104.346 86.1003 103.94 84.5224 103.126 83.1616C102.311 81.8007 101.151 80.7643 99.6405 80.0011C98.1583 79.2915 96.417 78.911 94.4119 78.911H80.904V97.0477H94.4119V97.05ZM112.114 118.998H122.224C123.589 118.998 124.78 118.725 125.798 118.181C126.813 117.635 127.597 116.874 128.15 115.84C128.701 114.804 128.979 113.606 128.979 112.246V69H140.874V113.116C140.874 116.492 140.162 119.433 138.738 121.993C137.314 124.498 135.295 126.459 132.681 127.931C130.095 129.292 127.105 130 123.706 130H112.117V118.998H112.114Z" fill="white"/>
</g>
<defs>
<linearGradient id="paint0_linear_4372_12490" x1="16.8892" y1="240.074" x2="251.709" y2="5.25265" gradientUnits="userSpaceOnUse">
<stop offset="0.25" stop-color="#FFB700"/>
<stop offset="0.73" stop-color="#FF2D90"/>
</linearGradient>
<linearGradient id="paint1_linear_4372_12490" x1="-2.86953" y1="30.4875" x2="98.0922" y2="248.246" gradientUnits="userSpaceOnUse">
<stop offset="0.29" stop-color="#7256FF"/>
<stop offset="0.66" stop-color="#FFB700"/>
</linearGradient>
<clipPath id="clip0_4372_12490">
<rect width="256" height="256" fill="white"/>
</clipPath>
</defs>
</svg>
