<svg width="48" height="48" viewBox="0 0 48 48" fill="none" xmlns="http://www.w3.org/2000/svg">
<g clip-path="url(#clip0_4372_12488)">
<path d="M44.9456 0H19.4694C18.2476 0 17.1431 0.728291 16.6618 1.85105L4.61075 29.969C4.44799 30.3491 4.36377 30.7588 4.36377 31.1725V44.9455C4.36377 46.6324 5.73133 48 7.41831 48H20.8928C21.4963 48 22.0862 47.8211 22.5885 47.486L46.64 31.4335C47.4891 30.8671 47.9988 29.9136 47.9988 28.8929L48.0001 3.05455C48.0001 1.36756 46.6326 0 44.9456 0Z" fill="url(#paint0_linear_4372_12488)"/>
<path d="M10.8895 4.36377H3.05455C1.36756 4.36377 0 5.73133 0 7.41831V17.2378C0 17.3822 0.0104727 17.5267 0.0305455 17.6698L3.98836 45.3776C4.20349 46.8826 5.49207 48.0001 7.01236 48.0001H18.7671C20.4545 48.0001 21.8221 46.6321 21.8217 44.9447L21.8182 31.0409C21.8182 30.7127 21.7654 30.3867 21.6615 30.0756L13.7873 6.45264C13.3715 5.20551 12.2042 4.36421 10.8895 4.36421V4.36377Z" fill="url(#paint1_linear_4372_12488)"/>
<path d="M11.9607 4.36426L3.05411 4.36557C1.36756 4.36557 0 5.73313 0 7.42011V16.0501C0 16.9416 0.389673 17.789 1.06647 18.3693L29.6871 42.9017C30.2409 43.376 30.946 43.637 31.6752 43.637H40.5818C42.2688 43.637 43.6364 42.2694 43.6364 40.5824V31.9512C43.6364 31.0597 43.2467 30.2123 42.5699 29.6319L13.9492 5.09953C13.3955 4.62477 12.6903 4.36426 11.9607 4.36426Z" fill="#7256FF"/>
<path d="M39 9H9V39H39V9Z" fill="black"/>
<path d="M25 33H13V35.0001H25V33Z" fill="white"/>
<path d="M13.0762 13H17.8843C18.6682 13 19.359 13.1372 19.9565 13.4221C20.5539 13.707 21.0125 14.1094 21.3326 14.6203C21.6579 15.1308 21.8207 15.7301 21.8207 16.3976C21.8207 17.0651 21.6553 17.6939 21.3249 18.2048C20.9996 18.7254 20.5329 19.1278 19.9247 19.4224C19.3222 19.6972 18.6206 19.8445 17.8209 19.8445H15.261V23.9984H13.077V13H13.0762ZM17.7399 18.0575C18.108 18.0575 18.4277 17.9986 18.6999 17.861C18.9772 17.7238 19.1906 17.5369 19.3397 17.2915C19.4889 17.0361 19.5639 16.7516 19.5639 16.4174C19.5639 16.0832 19.4893 15.7987 19.3397 15.5534C19.1902 15.308 18.9772 15.1211 18.6999 14.9835C18.4277 14.8556 18.108 14.787 17.7399 14.787H15.2597V18.0571H17.7399V18.0575ZM20.9902 22.0149H22.8463C23.097 22.0149 23.3156 21.9656 23.5025 21.8676C23.6889 21.7691 23.8329 21.6319 23.9345 21.4454C24.0356 21.2586 24.0866 21.0427 24.0866 20.7973V13H26.2706V20.9543C26.2706 21.5629 26.1399 22.0932 25.8785 22.5548C25.617 23.0064 25.2463 23.36 24.7663 23.6255C24.2915 23.8709 23.7425 23.9984 23.1185 23.9984H20.9906V22.0149H20.9902Z" fill="white"/>
</g>
<defs>
<linearGradient id="paint0_linear_4372_12488" x1="3.16683" y1="45.014" x2="47.1955" y2="0.984873" gradientUnits="userSpaceOnUse">
<stop offset="0.25" stop-color="#FFB700"/>
<stop offset="0.73" stop-color="#FF2D90"/>
</linearGradient>
<linearGradient id="paint1_linear_4372_12488" x1="-0.538037" y1="5.7165" x2="18.3923" y2="46.5462" gradientUnits="userSpaceOnUse">
<stop offset="0.29" stop-color="#7256FF"/>
<stop offset="0.66" stop-color="#FFB700"/>
</linearGradient>
<clipPath id="clip0_4372_12488">
<rect width="48" height="48" fill="white"/>
</clipPath>
</defs>
</svg>
