<svg width="16" height="16" viewBox="0 0 16 16" fill="none" xmlns="http://www.w3.org/2000/svg">
<g clip-path="url(#clip0_4372_12485)">
<path d="M16 0H0V16H16V0Z" fill="#FF318C"/>
<path d="M15 1H1V15H15V1Z" fill="black"/>
<path d="M8 12H3V13H8V12Z" fill="white"/>
<path d="M2.90234 2.8667H5.14614C5.51194 2.8667 5.83434 2.9319 6.11314 3.0673C6.39194 3.2027 6.60594 3.3939 6.75534 3.6367C6.90714 3.8793 6.98314 4.1641 6.98314 4.4813C6.98314 4.7985 6.90594 5.0973 6.75174 5.3401C6.59994 5.5875 6.38214 5.7787 6.09834 5.9187C5.81714 6.0493 5.48974 6.1193 5.11654 6.1193H3.92194V8.0933H2.90274V2.8667H2.90234ZM5.07874 5.2701C5.25054 5.2701 5.39974 5.2421 5.52674 5.1767C5.65614 5.1115 5.75574 5.0227 5.82534 4.9061C5.89494 4.7847 5.92994 4.6495 5.92994 4.4907C5.92994 4.3319 5.89514 4.1967 5.82534 4.0801C5.75554 3.9635 5.65614 3.8747 5.52674 3.8093C5.39974 3.7485 5.25054 3.7159 5.07874 3.7159H3.92134V5.2699H5.07874V5.2701ZM6.59554 7.1507H7.46174C7.57874 7.1507 7.68074 7.1273 7.76794 7.0807C7.85494 7.0339 7.92214 6.9687 7.96954 6.8801C8.01674 6.7913 8.04054 6.6887 8.04054 6.5721V2.8667H9.05974V6.6467C9.05974 6.9359 8.99874 7.1879 8.87674 7.4073C8.75475 7.6219 8.58174 7.7899 8.35774 7.9161C8.13614 8.0327 7.87994 8.0933 7.58874 8.0933H6.59574V7.1507H6.59554Z" fill="white"/>
</g>
<defs>
<clipPath id="clip0_4372_12485">
<rect width="16" height="16" fill="white"/>
</clipPath>
</defs>
</svg>
