<svg width="24" height="24" viewBox="0 0 24 24" fill="none" xmlns="http://www.w3.org/2000/svg">
<path d="M23.6 18.3004L24 7.90039L17.4 6.40039L11.8 10.2004L14.4 17.9004L23.6 18.3004Z" fill="url(#paint0_linear)"/>
<path d="M23.6 18.3004L24 7.90039L22.2 12.7004L23.6 18.3004Z" fill="url(#paint1_linear)"/>
<path d="M22.2001 12.7L24.0001 7.9L17.5001 5L10.1001 11.8L22.2001 12.7Z" fill="url(#paint2_linear)"/>
<path d="M22.2001 12.7L24.0001 7.9L17.5001 5L10.1001 11.8L22.2001 12.7Z" fill="url(#paint3_linear)"/>
<path d="M16.6001 13.1L17.5001 5L10.1001 11.8L16.6001 13.1Z" fill="url(#paint4_linear)"/>
<path d="M15.4 24L23.6 18.3L3.7 9.5L0 20.1L15.4 24Z" fill="url(#paint5_linear)"/>
<path d="M10.7 14.4L3.7 9.5L0 20.1L10.7 14.4Z" fill="url(#paint6_linear)"/>
<path d="M23.5999 18.3002L15.3999 24.0002L22.1999 12.7002L23.5999 18.3002Z" fill="url(#paint7_linear)"/>
<path d="M23.5999 18.2996L15.3999 23.9996L19.7999 16.5996L23.5999 18.2996Z" fill="url(#paint8_linear)"/>
<path d="M0 9.2L13.2 19.3L22.2 12.7L12 1.5L3.2 0L0 9.2Z" fill="url(#paint9_linear)"/>
<path d="M9.5 16.4002L13.2 19.3002L22.2 12.7002L13.1 9.2002L9.5 16.4002Z" fill="url(#paint10_linear)"/>
<path d="M16.8001 10.6002L13.1001 9.2002L14.3001 12.2002L16.6001 12.4002L16.8001 10.6002Z" fill="url(#paint11_linear)"/>
<path d="M16.6001 12.3996L22.2001 12.6996L16.8001 10.5996L16.6001 12.3996Z" fill="url(#paint12_linear)"/>
<path d="M16.8001 10.6002L13.1001 9.2002L16.3001 15.0002L16.8001 10.6002Z" fill="url(#paint13_linear)"/>
<path d="M0 9.1998L13.2 19.2998L6.7 7.2998L0 9.1998Z" fill="url(#paint14_linear)"/>
<path d="M3 11.5L13.2 19.3L9.2 11.9L3.7 9.5L3 11.5Z" fill="url(#paint15_linear)"/>
<path d="M22.2 12.7002L13.2 19.3002L15.7 23.5002L22.2 12.7002Z" fill="url(#paint16_linear)"/>
<path d="M9.5 16.3998L13.2 19.2998L10.5 14.2998L9.5 16.3998Z" fill="url(#paint17_linear)"/>
<path d="M0 9.2L6.7 7.3L12 1.5L3.2 0L0 9.2Z" fill="url(#paint18_linear)"/>
<path d="M12 1.5L8.69995 5.1L13.1 9.2L22.2 12.7L12 1.5Z" fill="url(#paint19_linear)"/>
<path d="M13.0999 9.1002V9.2002L16.7999 10.6002L17.1999 7.3002L16.1999 6.2002L13.0999 9.1002Z" fill="url(#paint20_linear)"/>
<path d="M12 1.5L3.19995 0L8.69995 5.1L12 1.5Z" fill="url(#paint21_linear)"/>
<path d="M0 9.2L6.7 7.3L12 1.5L3.2 0L0 9.2Z" fill="url(#paint22_linear)"/>
<path d="M20 4H4V20H20V4Z" fill="url(#paint23_linear)"/>
<g opacity="0.3">
<g opacity="0.3">
<path opacity="0.3" d="M19.7 19.9996H20V16.5996L17.7 19.9996H19.7Z" fill="#231F20"/>
<path opacity="0.3" d="M14.2 4H5.6L4.3 7.7L19.3 16L4.4 7.8L4 7.9V11.2L13 14.9L20 16.4V16.3V11.2L14.2 4Z" fill="url(#paint24_linear)"/>
<path opacity="0.3" d="M5.60005 4L4.30005 7.7L20 16.3V11.2L14.2 4H5.60005Z" fill="url(#paint25_linear)"/>
<path opacity="0.3" d="M4 4V8.2L4.4 7.8L5.6 4H4Z" fill="#F9ED32"/>
</g>
<path opacity="0.3" d="M4 7.8998V11.1998L13 14.8998L20 16.3998V16.2998L4.4 7.7998L4 7.8998Z" fill="url(#paint26_linear)"/>
<path opacity="0.3" d="M4 10.5998L14.3 13.1998L4.4 7.7998L4 7.8998V10.5998Z" fill="url(#paint27_linear)"/>
<path opacity="0.3" d="M10.3 20.0004L13 14.9004L6.5 20.0004H10.3Z" fill="url(#paint28_linear)"/>
<path opacity="0.3" d="M4 13.6004L4.3 12.4004L4 12.5004V13.6004Z" fill="#F7941D"/>
<path opacity="0.3" d="M4 12.5002L4.3 12.4002L4 13.6002V20.0002H6.5L13 14.9002L4 11.2002V12.5002Z" fill="url(#paint29_linear)"/>
<path opacity="0.3" d="M10.3 20.0004H17.7L20 16.6004V16.4004L13 14.9004L10.3 20.0004Z" fill="url(#paint30_linear)"/>
<g opacity="0.3">
<path opacity="0.3" d="M19 9.9L20 9.3V4H14.2L19 9.9Z" fill="url(#paint31_linear)"/>
</g>
</g>
<path d="M20 4H4V20H20V4Z" fill="url(#paint32_linear)"/>
<path d="M11.9742 16.9805H5.98706V17.9869H11.9742V16.9805Z" fill="white"/>
<path d="M6 6H8.4C9.8 6 10.7 6.8 10.7 8.1C10.7 9.5 9.6 10.2 8.3 10.2H7.3V12H6V6ZM8.4 9C9.1 9 9.4 8.6 9.4 8.1C9.4 7.5 9 7.2 8.3 7.2H7.3V9H8.4Z" fill="white"/>
<path d="M11 11.2882L11.851 10.3461C12.2056 10.731 12.5399 10.9539 12.9654 10.9539C13.4719 10.9539 13.7859 10.65 13.7859 9.94085V6H15.1739V10.0016C15.1739 10.731 14.9611 11.268 14.5964 11.6327C14.2216 12.0075 13.6745 12.2 13.0059 12.2C12.0536 12.2 11.4255 11.7846 11 11.2882Z" fill="white"/>
<defs>
<linearGradient id="paint0_linear" x1="20.4961" y1="16.686" x2="17.019" y2="6.64089" gradientUnits="userSpaceOnUse">
<stop offset="0.000825369" stop-color="#FF318C"/>
<stop offset="1" stop-color="#FE6C54"/>
</linearGradient>
<linearGradient id="paint1_linear" x1="26.9555" y1="12.6936" x2="18.594" y2="13.791" gradientUnits="userSpaceOnUse">
<stop offset="0.3305" stop-color="#FF318C"/>
<stop offset="0.9422" stop-color="#B045ED"/>
</linearGradient>
<linearGradient id="paint2_linear" x1="21.3056" y1="5.7221" x2="17.5015" y2="10.5533" gradientUnits="userSpaceOnUse">
<stop  offset="0" stop-color="#FF546A"/>
<stop offset="0.7814" stop-color="#FE764A"/>
</linearGradient>
<linearGradient id="paint3_linear" x1="25.2463" y1="8.4957" x2="18.7138" y2="8.966" gradientUnits="userSpaceOnUse">
<stop offset="0.1065" stop-color="#FCBCC3" stop-opacity="0.96"/>
<stop offset="0.7261" stop-color="#FF4694" stop-opacity="0.1407"/>
<stop offset="0.8325" stop-color="#FF318C" stop-opacity="0"/>
</linearGradient>
<linearGradient id="paint4_linear" x1="18.57" y1="5.8393" x2="15.3456" y2="9.9344" gradientUnits="userSpaceOnUse">
<stop offset="0.016776" stop-color="#61316F" stop-opacity="0"/>
<stop offset="0.8106" stop-color="#6B57FF"/>
</linearGradient>
<linearGradient id="paint5_linear" x1="20.1377" y1="21.3975" x2="2.6267" y2="15.0791" gradientUnits="userSpaceOnUse">
<stop offset="0.016776" stop-color="#FF318C"/>
<stop offset="0.8106" stop-color="#6B57FF"/>
</linearGradient>
<linearGradient id="paint6_linear" x1="6.732" y1="22.1806" x2="3.9099" y2="12.3557" gradientUnits="userSpaceOnUse">
<stop offset="0.016776" stop-color="#61316F"/>
<stop offset="0.8106" stop-color="#6B57FF"/>
</linearGradient>
<linearGradient id="paint7_linear" x1="22.9583" y1="21.0902" x2="14.3672" y2="15.5288" gradientUnits="userSpaceOnUse">
<stop offset="0.1555" stop-color="#FF318C"/>
<stop offset="1" stop-color="#6B57FF"/>
</linearGradient>
<linearGradient id="paint8_linear" x1="20.077" y1="15.9273" x2="19.645" y2="19.7537" gradientUnits="userSpaceOnUse">
<stop offset="0.0655781" stop-color="#762784"/>
<stop offset="0.8106" stop-color="#FF318C" stop-opacity="0"/>
</linearGradient>
<linearGradient id="paint9_linear" x1="6.7952" y1="16.7454" x2="14.2424" y2="3.5919" gradientUnits="userSpaceOnUse">
<stop offset="0.3305" stop-color="#FF318C"/>
<stop offset="0.9422" stop-color="#FDB60D"/>
</linearGradient>
<linearGradient id="paint10_linear" x1="12.6713" y1="19.7075" x2="17.7178" y2="10.7942" gradientUnits="userSpaceOnUse">
<stop offset="0.3305" stop-color="#FF318C"/>
<stop offset="0.9422" stop-color="#FDB60D"/>
</linearGradient>
<linearGradient id="paint11_linear" x1="19.1004" y1="9.725" x2="14.1879" y2="10.9269" gradientUnits="userSpaceOnUse">
<stop  offset="0" stop-color="#FF318C"/>
<stop offset="1" stop-color="#FDB60D" stop-opacity="0"/>
</linearGradient>
<linearGradient id="paint12_linear" x1="15.7021" y1="10.5046" x2="22.0069" y2="13.9853" gradientUnits="userSpaceOnUse">
<stop  offset="0" stop-color="#FF318C"/>
<stop offset="0.9422" stop-color="#FDB60D" stop-opacity="0"/>
</linearGradient>
<linearGradient id="paint13_linear" x1="19.3911" y1="10.9133" x2="14.4787" y2="12.1153" gradientUnits="userSpaceOnUse">
<stop offset="0.3296" stop-color="#FF318C"/>
<stop offset="1" stop-color="#FDB60D" stop-opacity="0"/>
</linearGradient>
<linearGradient id="paint14_linear" x1="5.824" y1="15.6114" x2="9.4297" y2="9.2429" gradientUnits="userSpaceOnUse">
<stop offset="0.3305" stop-color="#FF318C"/>
<stop offset="0.9422" stop-color="#FDB60D"/>
</linearGradient>
<linearGradient id="paint15_linear" x1="1.9153" y1="16.5337" x2="10.6427" y2="13.6594" gradientUnits="userSpaceOnUse">
<stop offset="0.3313" stop-color="#FF318C" stop-opacity="0"/>
<stop offset="0.9422" stop-color="#B045ED"/>
</linearGradient>
<linearGradient id="paint16_linear" x1="16.3844" y1="14.7069" x2="19.5486" y2="18.9558" gradientUnits="userSpaceOnUse">
<stop offset="0.036877" stop-color="#FDB60D"/>
<stop offset="0.9422" stop-color="#FF318C" stop-opacity="0"/>
</linearGradient>
<linearGradient id="paint17_linear" x1="11.052" y1="18.2491" x2="12.538" y2="15.6246" gradientUnits="userSpaceOnUse">
<stop offset="0.3305" stop-color="#FF318C"/>
<stop offset="0.9422" stop-color="#B045ED"/>
</linearGradient>
<linearGradient id="paint18_linear" x1="3.1683" y1="10.1196" x2="7.2446" y2="1.4966" gradientUnits="userSpaceOnUse">
<stop offset="0.0839659" stop-color="#FF318C"/>
<stop offset="0.8747" stop-color="#FDB60D"/>
<stop offset="0.9935" stop-color="#FDCE0D"/>
</linearGradient>
<linearGradient id="paint19_linear" x1="10.9359" y1="13.2607" x2="16.1096" y2="8.0869" gradientUnits="userSpaceOnUse">
<stop offset="0.3305" stop-color="#FF318C"/>
<stop offset="0.9422" stop-color="#FDB60D"/>
</linearGradient>
<linearGradient id="paint20_linear" x1="18.4831" y1="15.0702" x2="14.9816" y2="7.8583" gradientUnits="userSpaceOnUse">
<stop offset="0.3305" stop-color="#FF318C"/>
<stop offset="0.9422" stop-color="#FDB60D"/>
</linearGradient>
<linearGradient id="paint21_linear" x1="6.11025" y1="6.1078" x2="7.67805" y2="0.4637" gradientUnits="userSpaceOnUse">
<stop offset="0.0839659" stop-color="#FF318C"/>
<stop offset="0.6835" stop-color="#FDB60D"/>
<stop offset="1" stop-color="#FDCE0D"/>
</linearGradient>
<linearGradient id="paint22_linear" x1="14.1371" y1="4.3086" x2="4.7303" y2="4.5176" gradientUnits="userSpaceOnUse">
<stop  offset="0" stop-color="#FCF84A" stop-opacity="0.96"/>
<stop offset="1" stop-color="#FCF84A" stop-opacity="0"/>
</linearGradient>
<linearGradient id="paint23_linear" x1="3.7531" y1="5.2766" x2="20.1319" y2="18.6296" gradientUnits="userSpaceOnUse">
<stop  offset="0" stop-color="#521713"/>
<stop offset="0.080028" stop-color="#451310"/>
<stop offset="0.2989" stop-color="#270B09"/>
<stop offset="0.514" stop-color="#110504"/>
<stop offset="0.7218" stop-color="#040101"/>
<stop offset="0.9138"/>
</linearGradient>
<linearGradient id="paint24_linear" x1="4" y1="10.19" x2="20" y2="10.19" gradientUnits="userSpaceOnUse">
<stop offset="0.2464" stop-color="#FE2857"/>
<stop offset="0.292" stop-color="#FE265F"/>
<stop offset="0.3641" stop-color="#FE1F76"/>
<stop offset="0.4534" stop-color="#FF159B"/>
<stop offset="0.4574" stop-color="#FF149D"/>
<stop offset="0.536" stop-color="#EF1AB2"/>
<stop offset="0.6983" stop-color="#C82BE9"/>
<stop offset="0.7574" stop-color="#B831FF"/>
<stop offset="0.811" stop-color="#A33AFE"/>
<stop offset="0.9215" stop-color="#6C52FD"/>
<stop offset="1" stop-color="#4164FC"/>
</linearGradient>
<linearGradient id="paint25_linear" x1="4.32735" y1="10.1718" x2="20" y2="10.1718" gradientUnits="userSpaceOnUse">
<stop offset="0.1118" stop-color="#F7941D"/>
<stop offset="0.1374" stop-color="#F88C25"/>
<stop offset="0.178" stop-color="#F9753A"/>
<stop offset="0.2284" stop-color="#FB505D"/>
<stop offset="0.2863" stop-color="#FF1C8C"/>
<stop offset="0.2928" stop-color="#FF1692"/>
<stop offset="0.4031" stop-color="#EA1A93"/>
<stop offset="0.4677" stop-color="#DB1D93"/>
<stop offset="0.5543" stop-color="#9F2895"/>
<stop offset="0.7229" stop-color="#21409A"/>
<stop offset="0.8671" stop-color="#222F5C"/>
<stop offset="1" stop-color="#231F20"/>
</linearGradient>
<linearGradient id="paint26_linear" x1="4" y1="12.0953" x2="20" y2="12.0953" gradientUnits="userSpaceOnUse">
<stop offset="0.0878508" stop-color="#FE2857"/>
<stop offset="0.1283" stop-color="#FE265F"/>
<stop offset="0.1923" stop-color="#FE1F76"/>
<stop offset="0.2716" stop-color="#FF159B"/>
<stop offset="0.2751" stop-color="#FF149D"/>
<stop offset="0.4167" stop-color="#B21871"/>
<stop offset="0.5427" stop-color="#741B4E"/>
<stop offset="0.6489" stop-color="#481D35"/>
<stop offset="0.731" stop-color="#2D1E26"/>
<stop offset="0.7791" stop-color="#231F20"/>
</linearGradient>
<linearGradient id="paint27_linear" x1="5.5488" y1="9.8955" x2="11.8145" y2="13.3807" gradientUnits="userSpaceOnUse">
<stop offset="0.00629908" stop-color="#FF45ED"/>
<stop offset="0.1766" stop-color="#FF35D8"/>
<stop offset="0.3352" stop-color="#FF24C0"/>
<stop offset="0.451" stop-color="#EA24B0"/>
<stop offset="0.6916" stop-color="#B22388"/>
<stop offset="1" stop-color="#63214F"/>
</linearGradient>
<linearGradient id="paint28_linear" x1="6.5134" y1="17.4401" x2="13.0321" y2="17.4401" gradientUnits="userSpaceOnUse">
<stop offset="0.4574" stop-color="#FF149D"/>
<stop offset="0.536" stop-color="#EF1AB2"/>
<stop offset="0.6983" stop-color="#C82BE9"/>
<stop offset="0.7574" stop-color="#B831FF"/>
<stop offset="0.8388" stop-color="#A33AFE"/>
<stop offset="1" stop-color="#6E51FD"/>
</linearGradient>
<linearGradient id="paint29_linear" x1="4" y1="15.6221" x2="13.0321" y2="15.6221" gradientUnits="userSpaceOnUse">
<stop offset="0.00442798" stop-color="#FFDE17"/>
<stop offset="0.0386836" stop-color="#FECB12"/>
<stop offset="0.0790912" stop-color="#FDBB0E"/>
<stop offset="0.1111" stop-color="#FDB60D"/>
<stop offset="0.1673" stop-color="#FDAE0F"/>
<stop offset="0.2521" stop-color="#FC9A15"/>
<stop offset="0.3323" stop-color="#FC801D"/>
<stop offset="0.7374" stop-color="#BE1E2D"/>
</linearGradient>
<linearGradient id="paint30_linear" x1="10.3033" y1="17.4401" x2="20" y2="17.4401" gradientUnits="userSpaceOnUse">
<stop  offset="0" stop-color="#087CFA"/>
<stop offset="0.7942" stop-color="#231F20"/>
</linearGradient>
<linearGradient id="paint31_linear" x1="26.5288" y1="19.2317" x2="16.3332" y2="2.7214" gradientUnits="userSpaceOnUse">
<stop offset="0.3486" stop-color="#3595F3"/>
<stop offset="0.4019" stop-color="#3490EB"/>
<stop offset="0.4865" stop-color="#3284D4"/>
<stop offset="0.5918" stop-color="#2F6FAE"/>
<stop offset="0.7135" stop-color="#2B527B"/>
<stop offset="0.8476" stop-color="#252D39"/>
<stop offset="0.8951" stop-color="#231F20"/>
</linearGradient>
<linearGradient id="paint32_linear" x1="4.02357" y1="4.02357" x2="18.3871" y2="18.3871" gradientUnits="userSpaceOnUse">
<stop  offset="0" stop-color="#7D2C38"/>
<stop offset="0.0123355" stop-color="#792B36"/>
<stop offset="0.1641" stop-color="#4E1B23"/>
<stop offset="0.311" stop-color="#2C1014"/>
<stop offset="0.4501" stop-color="#140709"/>
<stop offset="0.578" stop-color="#050202"/>
<stop offset="0.6844"/>
</linearGradient>
</defs>
</svg>
