<svg width="16" height="16" viewBox="0 0 16 16" fill="none" xmlns="http://www.w3.org/2000/svg">
<path d="M16 0H0V16H16V0Z" fill="#FF318C"/>
<path d="M15 1H1V15H15V1Z" fill="black"/>
<path d="M9 12H3V13H9V12Z" fill="white"/>
<path d="M9.8748 9.05587C9.40605 9.05587 9.01855 8.96837 8.70605 8.79337C8.39355 8.61837 8.13105 8.40587 7.9248 8.16212L8.7498 7.24336C8.91855 7.43086 9.09355 7.57462 9.2623 7.68087C9.4373 7.78712 9.6248 7.83712 9.8373 7.83712C10.0873 7.83712 10.2811 7.76212 10.4248 7.59961C10.5686 7.44336 10.6373 7.19336 10.6373 6.84336V3.00586H11.9811V6.90586C11.9811 7.26211 11.9311 7.57462 11.8373 7.83712C11.7436 8.09962 11.5998 8.31837 11.4186 8.49962C11.2373 8.68087 11.0123 8.81837 10.7498 8.91212C10.4936 9.00587 10.1998 9.05587 9.8748 9.05587Z" fill="white"/>
<path d="M3 3H5.4C6.8 3 7.6 3.8 7.6 5.1C7.6 6.5 6.5 7.2 5.2 7.2H4.2V9H3V3ZM5.3 6C5.9 6 6.3 5.6 6.3 5.1C6.3 4.5 5.9 4.2 5.3 4.2H4.3V6H5.3Z" fill="white"/>
</svg>
