<svg width="80" height="80" viewBox="0 0 80 80" fill="none" xmlns="http://www.w3.org/2000/svg">
<path d="M78.7002 60.9998L80.0002 26.2998L57.9002 21.2998L39.2002 33.8998L47.9002 59.6998L78.7002 60.9998Z" fill="url(#paint0_linear)"/>
<path d="M78.6998 60.9998L79.9998 26.2998L73.7998 42.4998L78.6998 60.9998Z" fill="url(#paint1_linear)"/>
<path d="M73.7998 42.4998L79.9998 26.2998L58.2998 16.7998L33.7998 39.3998L73.7998 42.4998Z" fill="url(#paint2_linear)"/>
<path d="M73.7998 42.4998L79.9998 26.2998L58.2998 16.7998L33.7998 39.3998L73.7998 42.4998Z" fill="url(#paint3_linear)"/>
<path d="M55.1998 43.7998L58.2998 16.7998L33.7998 39.3998L55.1998 43.7998Z" fill="url(#paint4_linear)"/>
<path d="M51.2 79.9996L78.7 60.9996L12.5 31.5996L0 67.0996L51.2 79.9996Z" fill="url(#paint5_linear)"/>
<path d="M35.5 48.0996L12.5 31.5996L0 67.0996L35.5 48.0996Z" fill="url(#paint6_linear)"/>
<path d="M78.7002 61L51.2002 80L73.8002 42.5L78.7002 61Z" fill="url(#paint7_linear)"/>
<path d="M78.7002 61.0004L51.2002 80.0004L66.0002 55.4004L78.7002 61.0004Z" fill="url(#paint8_linear)"/>
<path d="M0 30.6L44.1 64.2L73.8 42.5L40 5L10.6 0L0 30.6Z" fill="url(#paint9_linear)"/>
<path d="M31.6001 54.7L44.1001 64.2L73.8001 42.5L43.7001 30.5L31.6001 54.7Z" fill="url(#paint10_linear)"/>
<path d="M56.1002 35.5L43.7002 30.5L47.5002 40.6L55.5002 41.2L56.1002 35.5Z" fill="url(#paint11_linear)"/>
<path d="M55.5 41.2L73.8 42.5L56.1 35.5L55.5 41.2Z" fill="url(#paint12_linear)"/>
<path d="M56.1002 35.5L43.7002 30.5L54.3002 49.9L56.1002 35.5Z" fill="url(#paint13_linear)"/>
<path d="M0 30.5998L44.1 64.1998L22.3 24.2998L0 30.5998Z" fill="url(#paint14_linear)"/>
<path d="M10.1001 38.2996L44.1001 64.1996L30.7001 39.6996L12.5001 31.5996L10.1001 38.2996Z" fill="url(#paint15_linear)"/>
<path d="M73.8001 42.5L44.1001 64.2L52.4001 78.4L73.8001 42.5Z" fill="url(#paint16_linear)"/>
<path d="M31.6001 54.7002L44.1001 64.2002L35.1001 47.7002L31.6001 54.7002Z" fill="url(#paint17_linear)"/>
<path d="M0 30.6L22.3 24.3L40 5L10.6 0L0 30.6Z" fill="url(#paint18_linear)"/>
<path d="M40 5L29 17L43.7 30.5L73.8 42.5L40 5Z" fill="url(#paint19_linear)"/>
<path d="M43.5 30.3996L43.7 30.4996L56.1 35.4996L57.4 24.2996L54.2 20.5996L43.5 30.3996Z" fill="url(#paint20_linear)"/>
<path d="M40.0001 5L10.6001 0L29.0001 17L40.0001 5Z" fill="url(#paint21_linear)"/>
<path d="M0 30.6L22.3 24.3L40 5L10.6 0L0 30.6Z" fill="url(#paint22_linear)"/>
<path d="M65 15H15V65H65V15Z" fill="url(#paint23_linear)"/>
<g opacity="0.3">
<path opacity="0.3" d="M65 48.8002L15 32.7002V65.0002H65V48.8002Z" fill="url(#paint24_linear)"/>
<path opacity="0.3" d="M15 59.1004L35.5 48.1004L15 33.4004V59.1004Z" fill="url(#paint25_linear)"/>
<path opacity="0.3" d="M64.9998 19.6998L58.2998 16.7998L33.7998 39.3998L64.9998 41.7998V19.6998Z" fill="url(#paint26_linear)"/>
<path opacity="0.3" d="M49.0998 15H30.7998L22.2998 24.3L44.0998 64.2L64.9998 48.9V32.6L49.0998 15Z" fill="url(#paint27_linear)"/>
<path opacity="0.3" d="M15 41.9998L44.1 64.1998L22.3 24.2998L15 26.2998V41.9998Z" fill="url(#paint28_linear)"/>
<path opacity="0.3" d="M22.3 24.3L30.8 15H15V26.3L22.3 24.3Z" fill="url(#paint29_linear)"/>
</g>
<path d="M39.9002 55.6006H21.2002V58.7006H39.9002V55.6006Z" fill="white"/>
<path d="M21.3003 21.2002H29.0003C33.5003 21.2002 36.2003 23.8002 36.2003 27.7002V27.8002C36.2003 32.1002 32.8003 34.4002 28.6003 34.4002H25.5003V39.9002H21.3003V21.2002ZM28.7003 30.6002C30.8003 30.6002 32.0003 29.4002 32.0003 27.8002V27.7002C32.0003 25.9002 30.7003 24.9002 28.7003 24.9002H25.5003V30.6002H28.7003Z" fill="white"/>
<path d="M35.4502 37.3208L38.0443 34.4487C39.1252 35.6223 40.1443 36.3017 41.4414 36.3017C42.9855 36.3017 43.9428 35.3752 43.9428 33.2134V21.2002H48.1737V33.3987C48.1737 35.6223 47.5252 37.259 46.4134 38.3708C45.2708 39.5134 43.6031 40.1002 41.5649 40.1002C38.662 40.1002 36.7473 38.834 35.4502 37.3208Z" fill="white"/>
<defs>
<linearGradient id="paint0_linear" x1="68.3206" y1="55.6183" x2="56.7301" y2="22.1347" gradientUnits="userSpaceOnUse">
<stop offset="0.000825369" stop-color="#FF318C"/>
<stop offset="1" stop-color="#FE6C54"/>
</linearGradient>
<linearGradient id="paint1_linear" x1="89.8518" y1="42.3104" x2="61.9797" y2="45.9686" gradientUnits="userSpaceOnUse">
<stop offset="0.3305" stop-color="#FF318C"/>
<stop offset="0.9422" stop-color="#B045ED"/>
</linearGradient>
<linearGradient id="paint2_linear" x1="71.0181" y1="19.0735" x2="58.3376" y2="35.1776" gradientUnits="userSpaceOnUse">
<stop stop-color="#FF546A"/>
<stop offset="0.7814" stop-color="#FE764A"/>
</linearGradient>
<linearGradient id="paint3_linear" x1="84.1537" y1="28.3186" x2="62.3786" y2="29.8864" gradientUnits="userSpaceOnUse">
<stop offset="0.1065" stop-color="#FCBCC3" stop-opacity="0.96"/>
<stop offset="0.7261" stop-color="#FF4694" stop-opacity="0.1407"/>
<stop offset="0.8325" stop-color="#FF318C" stop-opacity="0"/>
</linearGradient>
<linearGradient id="paint4_linear" x1="61.8996" y1="19.4642" x2="51.1514" y2="33.1144" gradientUnits="userSpaceOnUse">
<stop offset="0.016776" stop-color="#61316F" stop-opacity="0"/>
<stop offset="0.8106" stop-color="#6B57FF"/>
</linearGradient>
<linearGradient id="paint5_linear" x1="67.1256" y1="71.3246" x2="8.7558" y2="50.2633" gradientUnits="userSpaceOnUse">
<stop offset="0.016776" stop-color="#FF318C"/>
<stop offset="0.8106" stop-color="#6B57FF"/>
</linearGradient>
<linearGradient id="paint6_linear" x1="22.4398" y1="73.9351" x2="13.033" y2="41.1854" gradientUnits="userSpaceOnUse">
<stop offset="0.016776" stop-color="#61316F"/>
<stop offset="0.8106" stop-color="#6B57FF"/>
</linearGradient>
<linearGradient id="paint7_linear" x1="76.5282" y1="70.3001" x2="47.8911" y2="51.7621" gradientUnits="userSpaceOnUse">
<stop offset="0.1555" stop-color="#FF318C"/>
<stop offset="1" stop-color="#6B57FF"/>
</linearGradient>
<linearGradient id="paint8_linear" x1="66.9238" y1="53.0928" x2="65.4838" y2="65.8474" gradientUnits="userSpaceOnUse">
<stop offset="0.0655781" stop-color="#762784"/>
<stop offset="0.8106" stop-color="#FF318C" stop-opacity="0"/>
</linearGradient>
<linearGradient id="paint9_linear" x1="22.6508" y1="55.818" x2="47.4748" y2="11.9731" gradientUnits="userSpaceOnUse">
<stop offset="0.3305" stop-color="#FF318C"/>
<stop offset="0.9422" stop-color="#FDB60D"/>
</linearGradient>
<linearGradient id="paint10_linear" x1="42.2377" y1="65.6911" x2="59.0594" y2="35.98" gradientUnits="userSpaceOnUse">
<stop offset="0.3305" stop-color="#FF318C"/>
<stop offset="0.9422" stop-color="#FDB60D"/>
</linearGradient>
<linearGradient id="paint11_linear" x1="63.6677" y1="32.4159" x2="47.2929" y2="36.4225" gradientUnits="userSpaceOnUse">
<stop stop-color="#FF318C"/>
<stop offset="1" stop-color="#FDB60D" stop-opacity="0"/>
</linearGradient>
<linearGradient id="paint12_linear" x1="52.34" y1="35.0166" x2="73.356" y2="46.6192" gradientUnits="userSpaceOnUse">
<stop stop-color="#FF318C"/>
<stop offset="0.9422" stop-color="#FDB60D" stop-opacity="0"/>
</linearGradient>
<linearGradient id="paint13_linear" x1="64.6369" y1="36.3771" x2="48.2621" y2="40.3837" gradientUnits="userSpaceOnUse">
<stop offset="0.3296" stop-color="#FF318C"/>
<stop offset="1" stop-color="#FDB60D" stop-opacity="0"/>
</linearGradient>
<linearGradient id="paint14_linear" x1="19.4134" y1="52.0384" x2="31.4323" y2="30.8102" gradientUnits="userSpaceOnUse">
<stop offset="0.3305" stop-color="#FF318C"/>
<stop offset="0.9422" stop-color="#FDB60D"/>
</linearGradient>
<linearGradient id="paint15_linear" x1="6.3843" y1="55.1118" x2="35.4758" y2="45.5308" gradientUnits="userSpaceOnUse">
<stop offset="0.3313" stop-color="#FF318C" stop-opacity="0"/>
<stop offset="0.9422" stop-color="#B045ED"/>
</linearGradient>
<linearGradient id="paint16_linear" x1="54.6149" y1="49.0222" x2="65.162" y2="63.1854" gradientUnits="userSpaceOnUse">
<stop offset="0.036877" stop-color="#FDB60D"/>
<stop offset="0.9422" stop-color="#FF318C" stop-opacity="0"/>
</linearGradient>
<linearGradient id="paint17_linear" x1="36.8403" y1="60.8314" x2="41.7935" y2="52.0829" gradientUnits="userSpaceOnUse">
<stop offset="0.3305" stop-color="#FF318C"/>
<stop offset="0.9422" stop-color="#B045ED"/>
</linearGradient>
<linearGradient id="paint18_linear" x1="10.5612" y1="33.7319" x2="24.1488" y2="4.9888" gradientUnits="userSpaceOnUse">
<stop offset="0.0839659" stop-color="#FF318C"/>
<stop offset="0.8747" stop-color="#FDB60D"/>
<stop offset="0.9935" stop-color="#FDCE0D"/>
</linearGradient>
<linearGradient id="paint19_linear" x1="36.4529" y1="44.2022" x2="53.6988" y2="26.9563" gradientUnits="userSpaceOnUse">
<stop offset="0.3305" stop-color="#FF318C"/>
<stop offset="0.9422" stop-color="#FDB60D"/>
</linearGradient>
<linearGradient id="paint20_linear" x1="61.6105" y1="50.2329" x2="49.9391" y2="26.1932" gradientUnits="userSpaceOnUse">
<stop offset="0.3305" stop-color="#FF318C"/>
<stop offset="0.9422" stop-color="#FDB60D"/>
</linearGradient>
<linearGradient id="paint21_linear" x1="20.3678" y1="20.3593" x2="25.5938" y2="1.5457" gradientUnits="userSpaceOnUse">
<stop offset="0.0839659" stop-color="#FF318C"/>
<stop offset="0.6835" stop-color="#FDB60D"/>
<stop offset="1" stop-color="#FDCE0D"/>
</linearGradient>
<linearGradient id="paint22_linear" x1="47.1236" y1="14.3619" x2="15.7675" y2="15.0587" gradientUnits="userSpaceOnUse">
<stop stop-color="#FCF84A" stop-opacity="0.96"/>
<stop offset="1" stop-color="#FCF84A" stop-opacity="0"/>
</linearGradient>
<linearGradient id="paint23_linear" x1="15.0736" y1="15.0736" x2="59.9596" y2="59.9596" gradientUnits="userSpaceOnUse">
<stop stop-color="#7D2C38"/>
<stop offset="0.0123355" stop-color="#792B36"/>
<stop offset="0.1641" stop-color="#4E1B23"/>
<stop offset="0.311" stop-color="#2C1014"/>
<stop offset="0.4501" stop-color="#140709"/>
<stop offset="0.578" stop-color="#050202"/>
<stop offset="0.6844"/>
</linearGradient>
<linearGradient id="paint24_linear" x1="39.1119" y1="68.408" x2="40.8262" y2="30.6938" gradientUnits="userSpaceOnUse">
<stop offset="0.016776" stop-color="#642652"/>
<stop offset="0.8106" stop-color="#6B57FF"/>
</linearGradient>
<linearGradient id="paint25_linear" x1="28.7579" y1="65.8143" x2="21.1935" y2="39.4789" gradientUnits="userSpaceOnUse">
<stop offset="0.016776" stop-color="#61316F"/>
<stop offset="0.8106" stop-color="#6B57FF"/>
</linearGradient>
<linearGradient id="paint26_linear" x1="65.5812" y1="20.0257" x2="54.2364" y2="34.4336" gradientUnits="userSpaceOnUse">
<stop stop-color="#FF546A"/>
<stop offset="0.7814" stop-color="#7D321B"/>
</linearGradient>
<linearGradient id="paint27_linear" x1="45.4109" y1="58.2025" x2="42.4109" y2="8.0598" gradientUnits="userSpaceOnUse">
<stop offset="0.0889086" stop-color="#6C2259"/>
<stop offset="0.9422" stop-color="#FDB60D"/>
</linearGradient>
<linearGradient id="paint28_linear" x1="24.1802" y1="54.7372" x2="36.199" y2="33.5091" gradientUnits="userSpaceOnUse">
<stop offset="0.3305" stop-color="#6D084A"/>
<stop offset="0.9422" stop-color="#FDB60D"/>
</linearGradient>
<linearGradient id="paint29_linear" x1="28.8314" y1="21.2497" x2="7.1885" y2="19.1068" gradientUnits="userSpaceOnUse">
<stop stop-color="#FDB60D" stop-opacity="0.96"/>
<stop offset="0.8913" stop-color="#FF407E" stop-opacity="0.1044"/>
<stop offset="1" stop-color="#FF318C" stop-opacity="0"/>
</linearGradient>
</defs>
</svg>
