<svg width="70" height="70" viewBox="0 0 70 70" fill="none" xmlns="http://www.w3.org/2000/svg">
<path d="M68.8998 53.4002L69.9998 23.0002L50.6998 18.7002L34.2998 29.7002L41.8998 52.2002L68.8998 53.4002Z" fill="url(#paint0_linear)"/>
<path d="M68.9001 53.4L70.0001 23L64.6001 37.1L68.9001 53.4Z" fill="url(#paint1_linear)"/>
<path d="M64.6 37.1002L70 23.0002L51 14.7002L29.5 34.5002L64.6 37.1002Z" fill="url(#paint2_linear)"/>
<path d="M64.6 37.1002L70 23.0002L51 14.7002L29.5 34.5002L64.6 37.1002Z" fill="url(#paint3_linear)"/>
<path d="M48.3 38.3002L51 14.7002L29.5 34.5002L48.3 38.3002Z" fill="url(#paint4_linear)"/>
<path d="M44.8 70.0002L68.9 53.4002L10.9 27.7002L0 58.7002L44.8 70.0002Z" fill="url(#paint5_linear)"/>
<path d="M31.1 42.1002L10.9 27.7002L0 58.7002L31.1 42.1002Z" fill="url(#paint6_linear)"/>
<path d="M68.8998 53.3996L44.7998 69.9996L64.5998 37.0996L68.8998 53.3996Z" fill="url(#paint7_linear)"/>
<path d="M68.8998 53.4L44.7998 70L57.7998 48.5L68.8998 53.4Z" fill="url(#paint8_linear)"/>
<path d="M0 26.8L38.6 56.2L64.6 37.1L35 4.3L9.3 0L0 26.8Z" fill="url(#paint9_linear)"/>
<path d="M27.7002 47.8002L38.6002 56.2002L64.6002 37.1002L38.2002 26.7002L27.7002 47.8002Z" fill="url(#paint10_linear)"/>
<path d="M49.1002 31.0002L38.2002 26.7002L41.6002 35.6002L48.5002 36.0002L49.1002 31.0002Z" fill="url(#paint11_linear)"/>
<path d="M48.5 36L64.6 37.1L49.1 31L48.5 36Z" fill="url(#paint12_linear)"/>
<path d="M49.1002 31.0002L38.2002 26.7002L47.5002 43.6002L49.1002 31.0002Z" fill="url(#paint13_linear)"/>
<path d="M0 26.8002L38.6 56.2002L19.5 21.2002L0 26.8002Z" fill="url(#paint14_linear)"/>
<path d="M8.8999 33.5002L38.5999 56.2002L26.8999 34.8002L10.8999 27.7002L8.8999 33.5002Z" fill="url(#paint15_linear)"/>
<path d="M64.6001 37.0996L38.6001 56.1996L45.8001 68.5996L64.6001 37.0996Z" fill="url(#paint16_linear)"/>
<path d="M27.7002 47.7998L38.6002 56.1998L30.7002 41.7998L27.7002 47.7998Z" fill="url(#paint17_linear)"/>
<path d="M0 26.8L19.5 21.2L35 4.3L9.3 0L0 26.8Z" fill="url(#paint18_linear)"/>
<path d="M34.9999 4.2998L25.3999 14.7998L38.1999 26.6998L64.5999 37.0998L34.9999 4.2998Z" fill="url(#paint19_linear)"/>
<path d="M38.1001 26.6L38.2001 26.7L49.1001 31L50.3001 21.2L47.4001 18L38.1001 26.6Z" fill="url(#paint20_linear)"/>
<path d="M34.9998 4.3L9.2998 0L25.3998 14.8L34.9998 4.3Z" fill="url(#paint21_linear)"/>
<path d="M0 26.8L19.5 21.2L35 4.3L9.3 0L0 26.8Z" fill="url(#paint22_linear)"/>
<path d="M57 13H13V57H57V13Z" fill="url(#paint23_linear)"/>
<g opacity="0.3">
<path opacity="0.3" d="M57 42.7996L13 28.5996V56.9996H57V42.7996Z" fill="url(#paint24_linear)"/>
<path opacity="0.3" d="M13 51.8002L31 42.2002L13 29.2002V51.8002Z" fill="url(#paint25_linear)"/>
<path opacity="0.3" d="M57 17.1996L51.1 14.5996L29.5 34.4996L57 36.5996V17.1996Z" fill="url(#paint26_linear)"/>
<path opacity="0.3" d="M42.9999 13H26.8999L19.3999 21.2L38.5999 56.3L56.9999 42.8V28.5L42.9999 13Z" fill="url(#paint27_linear)"/>
<path opacity="0.3" d="M13 36.8002L38.6 56.3002L19.4 21.2002L13 23.0002V36.8002Z" fill="url(#paint28_linear)"/>
<path opacity="0.3" d="M19.4 21.2L26.9 13H13V23L19.4 21.2Z" fill="url(#paint29_linear)"/>
</g>
<path d="M35 48.7002H18.5V51.4002H35V48.7002Z" fill="white"/>
<path d="M18.5 18.4004H25.2C29.1 18.4004 31.5 20.7004 31.5 24.1004C31.5 27.9004 28.5 29.9004 24.8 29.9004H22.1V34.9004H18.5V18.4004ZM25 26.7004C26.8 26.7004 27.9 25.6004 27.9 24.2004C27.9 22.6004 26.8 21.7004 25 21.7004H22.1V26.7004H25Z" fill="white"/>
<path d="M30.4502 32.6455L32.7424 30.1077C33.6974 31.1447 34.5979 31.745 35.744 31.745C37.1084 31.745 37.9543 30.9264 37.9543 29.0162V18.4014H41.6927V29.18C41.6927 31.1447 41.1196 32.5909 40.1373 33.5733C39.1276 34.5829 37.6541 35.1014 35.8531 35.1014C33.2881 35.1014 31.5963 33.9826 30.4502 32.6455Z" fill="white"/>
<defs>
<linearGradient id="paint0_linear" x1="59.7801" y1="48.6664" x2="49.6385" y2="19.3682" gradientUnits="userSpaceOnUse">
<stop offset="0.000825369" stop-color="#FF318C"/>
<stop offset="1" stop-color="#FE6C54"/>
</linearGradient>
<linearGradient id="paint1_linear" x1="78.6206" y1="37.0218" x2="54.2325" y2="40.2227" gradientUnits="userSpaceOnUse">
<stop offset="0.3305" stop-color="#FF318C"/>
<stop offset="0.9422" stop-color="#B045ED"/>
</linearGradient>
<linearGradient id="paint2_linear" x1="62.141" y1="16.6897" x2="51.0456" y2="30.7808" gradientUnits="userSpaceOnUse">
<stop stop-color="#FF546A"/>
<stop offset="0.7814" stop-color="#FE764A"/>
</linearGradient>
<linearGradient id="paint3_linear" x1="73.6347" y1="24.7792" x2="54.5815" y2="26.151" gradientUnits="userSpaceOnUse">
<stop offset="0.1065" stop-color="#FCBCC3" stop-opacity="0.96"/>
<stop offset="0.7261" stop-color="#FF4694" stop-opacity="0.1407"/>
<stop offset="0.8325" stop-color="#FF318C" stop-opacity="0"/>
</linearGradient>
<linearGradient id="paint4_linear" x1="54.1623" y1="17.0316" x2="44.7577" y2="28.9755" gradientUnits="userSpaceOnUse">
<stop offset="0.016776" stop-color="#61316F" stop-opacity="0"/>
<stop offset="0.8106" stop-color="#6B57FF"/>
</linearGradient>
<linearGradient id="paint5_linear" x1="58.7349" y1="62.4095" x2="7.6613" y2="43.9809" gradientUnits="userSpaceOnUse">
<stop offset="0.016776" stop-color="#FF318C"/>
<stop offset="0.8106" stop-color="#6B57FF"/>
</linearGradient>
<linearGradient id="paint6_linear" x1="19.6349" y1="64.6937" x2="11.4039" y2="36.0378" gradientUnits="userSpaceOnUse">
<stop offset="0.016776" stop-color="#61316F"/>
<stop offset="0.8106" stop-color="#6B57FF"/>
</linearGradient>
<linearGradient id="paint7_linear" x1="66.9618" y1="61.5122" x2="41.9043" y2="45.2914" gradientUnits="userSpaceOnUse">
<stop offset="0.1555" stop-color="#FF318C"/>
<stop offset="1" stop-color="#6B57FF"/>
</linearGradient>
<linearGradient id="paint8_linear" x1="58.5579" y1="46.4559" x2="57.2979" y2="57.6161" gradientUnits="userSpaceOnUse">
<stop offset="0.0655781" stop-color="#762784"/>
<stop offset="0.8106" stop-color="#FF318C" stop-opacity="0"/>
</linearGradient>
<linearGradient id="paint9_linear" x1="19.8195" y1="48.8407" x2="41.5404" y2="10.4765" gradientUnits="userSpaceOnUse">
<stop offset="0.3305" stop-color="#FF318C"/>
<stop offset="0.9422" stop-color="#FDB60D"/>
</linearGradient>
<linearGradient id="paint10_linear" x1="36.9581" y1="57.4799" x2="51.6771" y2="31.4827" gradientUnits="userSpaceOnUse">
<stop offset="0.3305" stop-color="#FF318C"/>
<stop offset="0.9422" stop-color="#FDB60D"/>
</linearGradient>
<linearGradient id="paint11_linear" x1="55.7093" y1="28.3641" x2="41.3813" y2="31.8699" gradientUnits="userSpaceOnUse">
<stop stop-color="#FF318C"/>
<stop offset="1" stop-color="#FDB60D" stop-opacity="0"/>
</linearGradient>
<linearGradient id="paint12_linear" x1="45.7975" y1="30.6395" x2="64.1865" y2="40.7918" gradientUnits="userSpaceOnUse">
<stop stop-color="#FF318C"/>
<stop offset="0.9422" stop-color="#FDB60D" stop-opacity="0"/>
</linearGradient>
<linearGradient id="paint13_linear" x1="56.5574" y1="31.8302" x2="42.2294" y2="35.336" gradientUnits="userSpaceOnUse">
<stop offset="0.3296" stop-color="#FF318C"/>
<stop offset="1" stop-color="#FDB60D" stop-opacity="0"/>
</linearGradient>
<linearGradient id="paint14_linear" x1="16.9867" y1="45.534" x2="27.5033" y2="26.9593" gradientUnits="userSpaceOnUse">
<stop offset="0.3305" stop-color="#FF318C"/>
<stop offset="0.9422" stop-color="#FDB60D"/>
</linearGradient>
<linearGradient id="paint15_linear" x1="5.5861" y1="48.2234" x2="31.0411" y2="39.84" gradientUnits="userSpaceOnUse">
<stop offset="0.3313" stop-color="#FF318C" stop-opacity="0"/>
<stop offset="0.9422" stop-color="#B045ED"/>
</linearGradient>
<linearGradient id="paint16_linear" x1="47.7881" y1="42.894" x2="57.0168" y2="55.2869" gradientUnits="userSpaceOnUse">
<stop offset="0.036877" stop-color="#FDB60D"/>
<stop offset="0.9422" stop-color="#FF318C" stop-opacity="0"/>
</linearGradient>
<linearGradient id="paint17_linear" x1="32.2353" y1="53.2271" x2="36.5694" y2="45.5721" gradientUnits="userSpaceOnUse">
<stop offset="0.3305" stop-color="#FF318C"/>
<stop offset="0.9422" stop-color="#B045ED"/>
</linearGradient>
<linearGradient id="paint18_linear" x1="9.241" y1="29.5154" x2="21.1302" y2="4.3652" gradientUnits="userSpaceOnUse">
<stop offset="0.0839659" stop-color="#FF318C"/>
<stop offset="0.8747" stop-color="#FDB60D"/>
<stop offset="0.9935" stop-color="#FDCE0D"/>
</linearGradient>
<linearGradient id="paint19_linear" x1="31.8962" y1="38.6767" x2="46.9863" y2="23.5866" gradientUnits="userSpaceOnUse">
<stop offset="0.3305" stop-color="#FF318C"/>
<stop offset="0.9422" stop-color="#FDB60D"/>
</linearGradient>
<linearGradient id="paint20_linear" x1="53.9093" y1="43.9541" x2="43.6968" y2="22.9194" gradientUnits="userSpaceOnUse">
<stop offset="0.3305" stop-color="#FF318C"/>
<stop offset="0.9422" stop-color="#FDB60D"/>
</linearGradient>
<linearGradient id="paint21_linear" x1="17.8215" y1="17.8144" x2="22.3943" y2="1.3525" gradientUnits="userSpaceOnUse">
<stop offset="0.0839659" stop-color="#FF318C"/>
<stop offset="0.6835" stop-color="#FDB60D"/>
<stop offset="1" stop-color="#FDCE0D"/>
</linearGradient>
<linearGradient id="paint22_linear" x1="41.2332" y1="12.5666" x2="13.7966" y2="13.1763" gradientUnits="userSpaceOnUse">
<stop stop-color="#FCF84A" stop-opacity="0.96"/>
<stop offset="1" stop-color="#FCF84A" stop-opacity="0"/>
</linearGradient>
<linearGradient id="paint23_linear" x1="13.0648" y1="13.0648" x2="52.5645" y2="52.5645" gradientUnits="userSpaceOnUse">
<stop stop-color="#7D2C38"/>
<stop offset="0.0123355" stop-color="#792B36"/>
<stop offset="0.1641" stop-color="#4E1B23"/>
<stop offset="0.311" stop-color="#2C1014"/>
<stop offset="0.4501" stop-color="#140709"/>
<stop offset="0.578" stop-color="#050202"/>
<stop offset="0.6844"/>
</linearGradient>
<linearGradient id="paint24_linear" x1="34.2185" y1="59.9985" x2="35.727" y2="26.81" gradientUnits="userSpaceOnUse">
<stop offset="0.016776" stop-color="#642652"/>
<stop offset="0.8106" stop-color="#6B57FF"/>
</linearGradient>
<linearGradient id="paint25_linear" x1="25.107" y1="57.7164" x2="18.4503" y2="34.5413" gradientUnits="userSpaceOnUse">
<stop offset="0.016776" stop-color="#61316F"/>
<stop offset="0.8106" stop-color="#6B57FF"/>
</linearGradient>
<linearGradient id="paint26_linear" x1="57.5116" y1="17.4224" x2="47.5282" y2="30.1013" gradientUnits="userSpaceOnUse">
<stop stop-color="#FF546A"/>
<stop offset="0.7814" stop-color="#7D321B"/>
</linearGradient>
<linearGradient id="paint27_linear" x1="39.7617" y1="51.0182" x2="37.1217" y2="6.8926" gradientUnits="userSpaceOnUse">
<stop offset="0.0889086" stop-color="#6C2259"/>
<stop offset="0.9422" stop-color="#FDB60D"/>
</linearGradient>
<linearGradient id="paint28_linear" x1="21.0786" y1="47.9691" x2="31.6551" y2="29.2883" gradientUnits="userSpaceOnUse">
<stop offset="0.3305" stop-color="#6D084A"/>
<stop offset="0.9422" stop-color="#FDB60D"/>
</linearGradient>
<linearGradient id="paint29_linear" x1="25.1716" y1="18.4997" x2="6.1259" y2="16.614" gradientUnits="userSpaceOnUse">
<stop stop-color="#FDB60D" stop-opacity="0.96"/>
<stop offset="0.8913" stop-color="#FF407E" stop-opacity="0.1044"/>
<stop offset="1" stop-color="#FF318C" stop-opacity="0"/>
</linearGradient>
</defs>
</svg>
