<svg width="48" height="48" viewBox="0 0 48 48" fill="none" xmlns="http://www.w3.org/2000/svg">
<path d="M47.2 36.5998L48 15.7998L34.8 12.7998L23.5 20.2998L28.7 35.7998L47.2 36.5998Z" fill="url(#paint0_linear)"/>
<path d="M47.2001 36.5998L48 15.7998L44.3 25.4998L47.2001 36.5998Z" fill="url(#paint1_linear)"/>
<path d="M44.3 25.4996L48 15.7996L35 10.0996L20.3 23.6996L44.3 25.4996Z" fill="url(#paint2_linear)"/>
<path d="M44.3 25.4996L48 15.7996L35 10.0996L20.3 23.6996L44.3 25.4996Z" fill="url(#paint3_linear)"/>
<path d="M33.1 26.2996L35 10.0996L20.3 23.6996L33.1 26.2996Z" fill="url(#paint4_linear)"/>
<path d="M30.7 48L47.2 36.6L7.5 19L0 40.3L30.7 48Z" fill="url(#paint5_linear)"/>
<path d="M21.3 28.9L7.5 19L0 40.3L21.3 28.9Z" fill="url(#paint6_linear)"/>
<path d="M47.2 36.6L30.7 48L44.2999 25.5L47.2 36.6Z" fill="url(#paint7_linear)"/>
<path d="M47.2 36.5998L30.7 47.9998L39.5999 33.2998L47.2 36.5998Z" fill="url(#paint8_linear)"/>
<path d="M0 18.3L26.5 38.5L44.3 25.5L24 3L6.4 0L0 18.3Z" fill="url(#paint9_linear)"/>
<path d="M19 32.7998L26.5 38.4998L44.3 25.4998L26.2 18.2998L19 32.7998Z" fill="url(#paint10_linear)"/>
<path d="M33.7 21.2998L26.2 18.2998L28.5 24.3998L33.2999 24.6998L33.7 21.2998Z" fill="url(#paint11_linear)"/>
<path d="M33.3 24.6998L44.3 25.4998L33.7001 21.2998L33.3 24.6998Z" fill="url(#paint12_linear)"/>
<path d="M33.7 21.2998L26.2 18.2998L32.5999 29.8998L33.7 21.2998Z" fill="url(#paint13_linear)"/>
<path d="M0 18.2996L26.5 38.4996L13.4 14.5996L0 18.2996Z" fill="url(#paint14_linear)"/>
<path d="M6.1001 23L26.5001 38.5L18.4001 23.8L7.5001 19L6.1001 23Z" fill="url(#paint15_linear)"/>
<path d="M44.3 25.5L26.5 38.5L31.4 47.1L44.3 25.5Z" fill="url(#paint16_linear)"/>
<path d="M19 32.7996L26.5 38.4996L21.1 28.5996L19 32.7996Z" fill="url(#paint17_linear)"/>
<path d="M0 18.3L13.4 14.6L24 3L6.4 0L0 18.3Z" fill="url(#paint18_linear)"/>
<path d="M23.9999 3L17.3999 10.2L26.1999 18.3L44.2999 25.5L23.9999 3Z" fill="url(#paint19_linear)"/>
<path d="M26.0999 18.2004L26.1999 18.3004L33.6999 21.3004L34.4999 14.6004L32.4999 12.4004L26.0999 18.2004Z" fill="url(#paint20_linear)"/>
<path d="M23.9999 3L6.3999 0L17.3999 10.2L23.9999 3Z" fill="url(#paint21_linear)"/>
<path d="M0 18.3L13.4 14.6L24 3L6.4 0L0 18.3Z" fill="url(#paint22_linear)"/>
<path d="M39 9H9V39H39V9Z" fill="url(#paint23_linear)"/>
<g opacity="0.3">
<path opacity="0.3" d="M39 29.2996L9 19.5996V38.9996H39V29.2996Z" fill="url(#paint24_linear)"/>
<path opacity="0.3" d="M9 35.3996L21.3 28.8996L9 20.0996V35.3996Z" fill="url(#paint25_linear)"/>
<path opacity="0.3" d="M39 11.7996L35 10.0996L20.3 23.6996L39 25.0996V11.7996Z" fill="url(#paint26_linear)"/>
<path opacity="0.3" d="M29.4999 9H18.4999L13.3999 14.6L26.4999 38.5L38.9999 29.4V19.6L29.4999 9Z" fill="url(#paint27_linear)"/>
<path opacity="0.3" d="M9 25.1996L26.5 38.4996L13.4 14.5996L9 15.7996V25.1996Z" fill="url(#paint28_linear)"/>
<path opacity="0.3" d="M13.4 14.6L18.5 9H9V15.8L13.4 14.6Z" fill="url(#paint29_linear)"/>
</g>
<path d="M23.9 33.2998H12.7V35.1998H23.9V33.2998Z" fill="white"/>
<path d="M22 22.3384L23.551 20.6213C24.1972 21.3229 24.8065 21.7291 25.582 21.7291C26.5052 21.7291 27.0776 21.1752 27.0776 19.8827V12.7002H29.6072V19.9935C29.6072 21.3229 29.2194 22.3015 28.5547 22.9662C27.8716 23.6494 26.8745 24.0002 25.6559 24.0002C23.9203 24.0002 22.7755 23.2432 22 22.3384Z" fill="white"/>
<path d="M12.8 12.7002H17.4C20.1 12.7002 21.7 14.3002 21.7 16.6002C21.7 19.2002 19.7 20.5002 17.2 20.5002H15.2V23.9002H12.8V12.7002ZM17.2 18.3002C18.4 18.3002 19.2 17.6002 19.2 16.6002C19.2 15.5002 18.4 14.9002 17.2 14.9002H15.2V18.3002H17.2Z" fill="white"/>
<defs>
<linearGradient id="paint0_linear" x1="40.9922" y1="33.3709" x2="34.0379" y2="13.2807" gradientUnits="userSpaceOnUse">
<stop offset="0.000825369" stop-color="#FF318C"/>
<stop offset="1" stop-color="#FE6C54"/>
</linearGradient>
<linearGradient id="paint1_linear" x1="53.9113" y1="25.3862" x2="37.188" y2="27.5811" gradientUnits="userSpaceOnUse">
<stop offset="0.3305" stop-color="#FF318C"/>
<stop offset="0.9422" stop-color="#B045ED"/>
</linearGradient>
<linearGradient id="paint2_linear" x1="42.611" y1="11.4438" x2="35.0027" y2="21.1063" gradientUnits="userSpaceOnUse">
<stop  offset="0" stop-color="#FF546A"/>
<stop offset="0.7814" stop-color="#FE764A"/>
</linearGradient>
<linearGradient id="paint3_linear" x1="50.4923" y1="16.9909" x2="37.4273" y2="17.9316" gradientUnits="userSpaceOnUse">
<stop offset="0.1065" stop-color="#FCBCC3" stop-opacity="0.96"/>
<stop offset="0.7261" stop-color="#FF4694" stop-opacity="0.1407"/>
<stop offset="0.8325" stop-color="#FF318C" stop-opacity="0"/>
</linearGradient>
<linearGradient id="paint4_linear" x1="37.1399" y1="11.6782" x2="30.6911" y2="19.8684" gradientUnits="userSpaceOnUse">
<stop offset="0.016776" stop-color="#61316F" stop-opacity="0"/>
<stop offset="0.8106" stop-color="#6B57FF"/>
</linearGradient>
<linearGradient id="paint5_linear" x1="40.2754" y1="42.795" x2="5.2535" y2="30.1582" gradientUnits="userSpaceOnUse">
<stop offset="0.016776" stop-color="#FF318C"/>
<stop offset="0.8106" stop-color="#6B57FF"/>
</linearGradient>
<linearGradient id="paint6_linear" x1="13.4639" y1="44.3613" x2="7.8198" y2="24.7115" gradientUnits="userSpaceOnUse">
<stop offset="0.016776" stop-color="#61316F"/>
<stop offset="0.8106" stop-color="#6B57FF"/>
</linearGradient>
<linearGradient id="paint7_linear" x1="45.9168" y1="42.1801" x2="28.7345" y2="31.0572" gradientUnits="userSpaceOnUse">
<stop offset="0.1555" stop-color="#FF318C"/>
<stop offset="1" stop-color="#6B57FF"/>
</linearGradient>
<linearGradient id="paint8_linear" x1="40.1542" y1="31.8552" x2="39.2901" y2="39.508" gradientUnits="userSpaceOnUse">
<stop offset="0.0655781" stop-color="#762784"/>
<stop offset="0.8106" stop-color="#FF318C" stop-opacity="0"/>
</linearGradient>
<linearGradient id="paint9_linear" x1="13.5905" y1="33.4908" x2="28.4848" y2="7.1839" gradientUnits="userSpaceOnUse">
<stop offset="0.3305" stop-color="#FF318C"/>
<stop offset="0.9422" stop-color="#FDB60D"/>
</linearGradient>
<linearGradient id="paint10_linear" x1="25.3425" y1="39.4145" x2="35.4356" y2="21.5878" gradientUnits="userSpaceOnUse">
<stop offset="0.3305" stop-color="#FF318C"/>
<stop offset="0.9422" stop-color="#FDB60D"/>
</linearGradient>
<linearGradient id="paint11_linear" x1="38.2005" y1="19.4493" x2="28.3756" y2="21.8533" gradientUnits="userSpaceOnUse">
<stop  offset="0" stop-color="#FF318C"/>
<stop offset="1" stop-color="#FDB60D" stop-opacity="0"/>
</linearGradient>
<linearGradient id="paint12_linear" x1="31.404" y1="21.0098" x2="44.0136" y2="27.9713" gradientUnits="userSpaceOnUse">
<stop  offset="0" stop-color="#FF318C"/>
<stop offset="0.9422" stop-color="#FDB60D" stop-opacity="0"/>
</linearGradient>
<linearGradient id="paint13_linear" x1="38.782" y1="21.8261" x2="28.9571" y2="24.23" gradientUnits="userSpaceOnUse">
<stop offset="0.3296" stop-color="#FF318C"/>
<stop offset="1" stop-color="#FDB60D" stop-opacity="0"/>
</linearGradient>
<linearGradient id="paint14_linear" x1="11.648" y1="31.2227" x2="18.8594" y2="18.4858" gradientUnits="userSpaceOnUse">
<stop offset="0.3305" stop-color="#FF318C"/>
<stop offset="0.9422" stop-color="#FDB60D"/>
</linearGradient>
<linearGradient id="paint15_linear" x1="3.8306" y1="33.0673" x2="21.2855" y2="27.3187" gradientUnits="userSpaceOnUse">
<stop offset="0.3313" stop-color="#FF318C" stop-opacity="0"/>
<stop offset="0.9422" stop-color="#B045ED"/>
</linearGradient>
<linearGradient id="paint16_linear" x1="32.7689" y1="29.4133" x2="39.0971" y2="37.9113" gradientUnits="userSpaceOnUse">
<stop offset="0.036877" stop-color="#FDB60D"/>
<stop offset="0.9422" stop-color="#FF318C" stop-opacity="0"/>
</linearGradient>
<linearGradient id="paint17_linear" x1="22.1041" y1="36.4983" x2="25.076" y2="31.2492" gradientUnits="userSpaceOnUse">
<stop offset="0.3305" stop-color="#FF318C"/>
<stop offset="0.9422" stop-color="#B045ED"/>
</linearGradient>
<linearGradient id="paint18_linear" x1="6.3367" y1="20.2391" x2="14.4893" y2="2.9933" gradientUnits="userSpaceOnUse">
<stop offset="0.0839659" stop-color="#FF318C"/>
<stop offset="0.8747" stop-color="#FDB60D"/>
<stop offset="0.9935" stop-color="#FDCE0D"/>
</linearGradient>
<linearGradient id="paint19_linear" x1="21.8717" y1="26.5213" x2="32.2192" y2="16.1738" gradientUnits="userSpaceOnUse">
<stop offset="0.3305" stop-color="#FF318C"/>
<stop offset="0.9422" stop-color="#FDB60D"/>
</linearGradient>
<linearGradient id="paint20_linear" x1="36.9662" y1="30.1404" x2="29.9634" y2="15.7166" gradientUnits="userSpaceOnUse">
<stop offset="0.3305" stop-color="#FF318C"/>
<stop offset="0.9422" stop-color="#FDB60D"/>
</linearGradient>
<linearGradient id="paint21_linear" x1="12.2205" y1="12.2156" x2="15.3561" y2="0.9274" gradientUnits="userSpaceOnUse">
<stop offset="0.0839659" stop-color="#FF318C"/>
<stop offset="0.6835" stop-color="#FDB60D"/>
<stop offset="1" stop-color="#FDCE0D"/>
</linearGradient>
<linearGradient id="paint22_linear" x1="28.2742" y1="8.6171" x2="9.4605" y2="9.0352" gradientUnits="userSpaceOnUse">
<stop  offset="0" stop-color="#FCF84A" stop-opacity="0.96"/>
<stop offset="1" stop-color="#FCF84A" stop-opacity="0"/>
</linearGradient>
<linearGradient id="paint23_linear" x1="9.04419" y1="9.04419" x2="35.9758" y2="35.9758" gradientUnits="userSpaceOnUse">
<stop  offset="0" stop-color="#7D2C38"/>
<stop offset="0.0123355" stop-color="#792B36"/>
<stop offset="0.1641" stop-color="#4E1B23"/>
<stop offset="0.311" stop-color="#2C1014"/>
<stop offset="0.4501" stop-color="#140709"/>
<stop offset="0.578" stop-color="#050202"/>
<stop offset="0.6844"/>
</linearGradient>
<linearGradient id="paint24_linear" x1="23.4671" y1="41.0443" x2="24.4957" y2="18.4158" gradientUnits="userSpaceOnUse">
<stop offset="0.016776" stop-color="#642652"/>
<stop offset="0.8106" stop-color="#6B57FF"/>
</linearGradient>
<linearGradient id="paint25_linear" x1="17.2548" y1="39.4879" x2="12.7161" y2="23.6867" gradientUnits="userSpaceOnUse">
<stop offset="0.016776" stop-color="#61316F"/>
<stop offset="0.8106" stop-color="#6B57FF"/>
</linearGradient>
<linearGradient id="paint26_linear" x1="39.3489" y1="12.0152" x2="32.542" y2="20.6599" gradientUnits="userSpaceOnUse">
<stop  offset="0" stop-color="#FF546A"/>
<stop offset="0.7814" stop-color="#7D321B"/>
</linearGradient>
<linearGradient id="paint27_linear" x1="27.2466" y1="34.9215" x2="25.4466" y2="4.8359" gradientUnits="userSpaceOnUse">
<stop offset="0.0889086" stop-color="#6C2259"/>
<stop offset="0.9422" stop-color="#FDB60D"/>
</linearGradient>
<linearGradient id="paint28_linear" x1="14.5081" y1="32.842" x2="21.7194" y2="20.1052" gradientUnits="userSpaceOnUse">
<stop offset="0.3305" stop-color="#6D084A"/>
<stop offset="0.9422" stop-color="#FDB60D"/>
</linearGradient>
<linearGradient id="paint29_linear" x1="17.2988" y1="12.7498" x2="4.3131" y2="11.4641" gradientUnits="userSpaceOnUse">
<stop  offset="0" stop-color="#FDB60D" stop-opacity="0.96"/>
<stop offset="0.8913" stop-color="#FF407E" stop-opacity="0.1044"/>
<stop offset="1" stop-color="#FF318C" stop-opacity="0"/>
</linearGradient>
</defs>
</svg>
