<svg width="32" height="32" viewBox="0 0 32 32" fill="none" xmlns="http://www.w3.org/2000/svg" data-scaled="true">
<g clip-path="url(#clip0_4372_12487)">
<path d="M29.9637 0H12.9796C12.165 0 11.4287 0.485527 11.1079 1.23404L3.07383 19.9793C2.96533 20.2327 2.90918 20.5059 2.90918 20.7817V29.9636C2.90918 31.0883 3.82089 32 4.94554 32H13.9285C14.3309 32 14.7242 31.8807 15.059 31.6573L31.0933 20.9556C31.6594 20.578 31.9992 19.9424 31.9992 19.262L32.0001 2.03636C32.0001 0.911709 31.0884 0 29.9637 0Z" fill="url(#paint0_linear_4372_12487)"/>
<path d="M7.25964 2.90918H2.03636C0.911709 2.90918 0 3.82089 0 4.94554V11.4919C0 11.5882 0.00698182 11.6845 0.0203636 11.7799L2.65891 30.2517C2.80233 31.2551 3.66138 32.0001 4.67491 32.0001H12.5114C13.6364 32.0001 14.5481 31.0881 14.5478 29.9631L14.5455 20.6939C14.5455 20.4751 14.5103 20.2578 14.441 20.0504L9.19156 4.30176C8.91433 3.47034 8.13614 2.90947 7.25964 2.90947V2.90918Z" fill="url(#paint1_linear_4372_12487)"/>
<path d="M7.97382 2.90918L2.03607 2.91005C0.911709 2.91005 0 3.82176 0 4.94642V10.6997C0 11.2941 0.259782 11.859 0.710982 12.2459L19.7914 28.6008C20.1606 28.917 20.6307 29.091 21.1168 29.091H27.0545C28.1792 29.091 29.0909 28.1793 29.0909 27.0546V21.3005C29.0909 20.7061 28.8311 20.1412 28.3799 19.7543L9.29949 3.39936C8.93033 3.08285 8.46022 2.90918 7.97382 2.90918Z" fill="#7256FF"/>
<path d="M26 6H6V26H26V6Z" fill="black"/>
<path d="M16 22H9V23H16V22Z" fill="white"/>
<path d="M8.9502 9H12.1556C12.6782 9 13.1388 9.09481 13.5371 9.29169C13.9353 9.48858 14.2411 9.7666 14.4545 10.1197C14.6713 10.4724 14.7799 10.8865 14.7799 11.3478C14.7799 11.809 14.6696 12.2435 14.4493 12.5966C14.2325 12.9563 13.9213 13.2343 13.5159 13.4379C13.1142 13.6278 12.6465 13.7296 12.1133 13.7296H10.4068V16.6H8.95077V9H8.9502ZM12.0593 12.4948C12.3048 12.4948 12.5179 12.4541 12.6993 12.359C12.8842 12.2642 13.0265 12.135 13.1259 11.9655C13.2253 11.789 13.2753 11.5924 13.2753 11.3615C13.2753 11.1305 13.2256 10.934 13.1259 10.7644C13.0262 10.5949 12.8842 10.4657 12.6993 10.3706C12.5179 10.2822 12.3048 10.2348 12.0593 10.2348H10.4059V12.4945H12.0593V12.4948ZM14.2262 15.2294H15.4636C15.6308 15.2294 15.7765 15.1953 15.9011 15.1276C16.0253 15.0595 16.1213 14.9647 16.1891 14.8359C16.2565 14.7068 16.2905 14.5576 16.2905 14.388V9H17.7465V14.4965C17.7465 14.917 17.6593 15.2835 17.4851 15.6025C17.3108 15.9145 17.0636 16.1588 16.7436 16.3423C16.4271 16.5119 16.0611 16.6 15.6451 16.6H14.2265V15.2294H14.2262Z" fill="white"/>
</g>
<defs>
<linearGradient id="paint0_linear_4372_12487" x1="2.11122" y1="30.0093" x2="31.4637" y2="0.656581" gradientUnits="userSpaceOnUse">
<stop offset="0.25" stop-color="#FFB700"/>
<stop offset="0.73" stop-color="#FF2D90"/>
</linearGradient>
<linearGradient id="paint1_linear_4372_12487" x1="-0.358691" y1="3.811" x2="12.2615" y2="31.0308" gradientUnits="userSpaceOnUse">
<stop offset="0.29" stop-color="#7256FF"/>
<stop offset="0.66" stop-color="#FFB700"/>
</linearGradient>
<clipPath id="clip0_4372_12487">
<rect width="32" height="32" fill="white"/>
</clipPath>
</defs>
</svg>
