<svg width="64" height="64" viewBox="0 0 64 64" fill="none" xmlns="http://www.w3.org/2000/svg">
<g clip-path="url(#clip0_4372_12489)">
<path d="M59.9275 0H25.9592C24.3301 0 22.8575 0.971054 22.2157 2.46807L6.14767 39.9587C5.93065 40.4655 5.81836 41.0118 5.81836 41.5633V59.9273C5.81836 62.1766 7.64178 64 9.89109 64H27.8571C28.6617 64 29.4483 63.7615 30.118 63.3146L62.1866 41.9113C63.3189 41.1561 63.9984 39.8848 63.9984 38.5239L64.0002 4.07273C64.0002 1.82342 62.1768 0 59.9275 0Z" fill="url(#paint0_linear_4372_12489)"/>
<path d="M14.5193 5.81836H4.07273C1.82342 5.81836 0 7.64178 0 9.89109V22.9837C0 23.1763 0.0139636 23.3689 0.0407273 23.5597L5.31782 60.5035C5.60465 62.5101 7.32276 64.0002 9.34982 64.0002H25.0228C27.2727 64.0002 29.0961 62.1762 29.0956 59.9263L29.0909 41.3878C29.0909 40.9503 29.0205 40.5157 28.882 40.1008L18.3831 8.60352C17.8287 6.94069 16.2723 5.81894 14.5193 5.81894V5.81836Z" fill="url(#paint1_linear_4372_12489)"/>
<path d="M15.9476 5.81885L4.07215 5.82059C1.82342 5.82059 0 7.64401 0 9.89332V21.3999C0 22.5886 0.519564 23.7185 1.42196 24.4923L39.5828 57.2021C40.3212 57.8346 41.2614 58.1825 42.2336 58.1825H54.1091C56.3584 58.1825 58.1818 56.3591 58.1818 54.1098V42.6014C58.1818 41.4127 57.6623 40.2828 56.7599 39.509L18.599 6.79921C17.8607 6.16619 16.9204 5.81885 15.9476 5.81885Z" fill="#7256FF"/>
<path d="M52 12H12V52H52V12Z" fill="black"/>
<path d="M33 44H17V47H33V44Z" fill="white"/>
<path d="M17.1001 17H23.5397C24.5895 17 25.5147 17.1871 26.3149 17.5757C27.115 17.9643 27.7292 18.513 28.158 19.2098C28.5936 19.9061 28.8117 20.7235 28.8117 21.6338C28.8117 22.5441 28.5902 23.4017 28.1476 24.0985C27.712 24.8085 27.0869 25.3573 26.2724 25.759C25.4654 26.1339 24.5258 26.3348 23.4547 26.3348H20.0263V32H17.1012V17H17.1001ZM23.3462 23.8976C23.8393 23.8976 24.2675 23.8172 24.632 23.6295C25.0033 23.4424 25.2892 23.1876 25.4889 22.8529C25.6887 22.5045 25.7891 22.1165 25.7891 21.6608C25.7891 21.205 25.6892 20.817 25.4889 20.4824C25.2886 20.1477 25.0033 19.8929 24.632 19.7052C24.2675 19.5307 23.8393 19.4371 23.3462 19.4371H20.0246V23.897H23.3462V23.8976ZM27.6993 29.2948H30.1853C30.5211 29.2948 30.8138 29.2276 31.0641 29.0939C31.3137 28.9596 31.5066 28.7725 31.6426 28.5182C31.7781 28.2633 31.8464 27.9689 31.8464 27.6343V17H34.7714V27.8484C34.7714 28.6783 34.5964 29.4016 34.2462 30.0312C33.8961 30.6471 33.3996 31.1293 32.7567 31.4914C32.1208 31.8261 31.3855 32 30.5498 32H27.6999V29.2948H27.6993Z" fill="white"/>
</g>
<defs>
<linearGradient id="paint0_linear_4372_12489" x1="4.22243" y1="60.0186" x2="62.9273" y2="1.31316" gradientUnits="userSpaceOnUse">
<stop offset="0.25" stop-color="#FFB700"/>
<stop offset="0.73" stop-color="#FF2D90"/>
</linearGradient>
<linearGradient id="paint1_linear_4372_12489" x1="-0.717382" y1="7.622" x2="24.5231" y2="62.0616" gradientUnits="userSpaceOnUse">
<stop offset="0.29" stop-color="#7256FF"/>
<stop offset="0.66" stop-color="#FFB700"/>
</linearGradient>
<clipPath id="clip0_4372_12489">
<rect width="64" height="64" fill="white"/>
</clipPath>
</defs>
</svg>
