<svg width="40" height="40" viewBox="0 0 40 40" fill="none" xmlns="http://www.w3.org/2000/svg">
<path d="M20.3184 22.1387C20.8892 21.4978 21.4961 20.89 22.1363 20.3184C23.6329 19.0964 25.4437 18.3213 27.3609 18.0821C28.2387 13.8957 28.3415 9.58382 27.6641 5.36035L6.34351 28.5119L18.4598 31.5966C17.9705 29.9885 17.8841 28.2848 18.2082 26.6355C18.5323 24.9862 19.257 23.442 20.3184 22.1387V22.1387Z" fill="#F5B251"/>
<path d="M20.3184 22.1387C20.8891 21.4977 21.4961 20.89 22.1362 20.3184C23.9494 18.8271 26.2222 18.0081 28.5698 18C31.7498 18.1052 34.779 19.3809 37.0762 21.5822C40.2559 12.7292 38.7274 5.34259 37.8769 1L11.1866 29.7063L18.4542 31.5756C17.9691 29.9701 17.8853 28.2702 18.2104 26.6248C18.5354 24.9795 19.2592 23.4391 20.3184 22.1387V22.1387Z" fill="#FFAD0A"/>
<path fill-rule="evenodd" clip-rule="evenodd" d="M20.3184 22.1387C20.8892 21.4978 21.4961 20.89 22.1363 20.3184C23.6347 19.0949 25.4481 18.3194 27.3678 18.0812C27.802 15.9166 28.0477 13.7184 28.1021 11.5114L11.1538 29.7365L17.1164 31.2546L18.4581 31.5903C17.97 29.983 17.8844 28.2804 18.2088 26.6323C18.5332 24.9842 19.2576 23.4411 20.3184 22.1387V22.1387Z" fill="#FF7A00"/>
<path d="M18.8382 32.7214L1 28.3066C1 28.3066 8.3175 32.5112 11.8973 39C13.8397 37.0627 17.105 36.003 20.2971 35.4455C19.7101 34.5951 19.2207 33.6813 18.8382 32.7214V32.7214Z" fill="#17268D"/>
<path fill-rule="evenodd" clip-rule="evenodd" d="M38.1238 36.6061C41.3469 32.6051 40.1954 27.4742 36.361 23.6403C32.5251 19.8035 27.3935 18.6536 23.3904 21.8762L38.1238 36.6061ZM36.6081 38.1231C32.6066 41.3471 27.4749 40.1958 23.639 36.3604C19.8046 32.5265 18.6531 27.3956 21.8761 23.3932L36.6081 38.1231Z" fill="#8F989D"/>
</svg>
