<svg width="40" height="40" viewBox="0 0 40 40" fill="none" xmlns="http://www.w3.org/2000/svg">
<g clip-path="url(#clip0_5741_42879)">
<g clip-path="url(#clip1_5741_42879)">
<g clip-path="url(#clip2_5741_42879)">
<path d="M16.6547 6.69385H16.6557C24.294 6.69385 30.4954 12.8954 30.4954 20.534V20.5347C30.4954 28.1733 24.2941 34.3748 16.6558 34.3748H16.6548C9.01612 34.3748 2.81445 28.1729 2.81445 20.534V20.5346C2.81445 12.8957 9.01606 6.69385 16.6547 6.69385Z" fill="url(#paint0_linear_5741_42879)"/>
<path d="M17.7878 24.2519L32.3352 24.2519C35.015 24.252 37.1875 22.0795 37.1875 19.3996L37.1875 4.85234C37.1875 2.17249 35.0151 3.28156e-05 32.3352 3.09447e-05L17.7879 2.07888e-05C15.108 1.89179e-05 12.9355 2.17247 12.9355 4.85233L12.9355 19.3996C12.9355 22.0795 15.108 24.2519 17.7878 24.2519Z" fill="url(#paint1_linear_5741_42879)"/>
<path d="M12.9356 7.27639L29.9109 7.27637L29.9109 24.2517L12.9355 24.2517L12.9356 7.27639Z" fill="black"/>
<path d="M15.3613 19.4011L24.7586 19.4011V21.8262L15.3613 21.8262L15.3613 19.4011Z" fill="white"/>
</g>
</g>
<rect y="27.5" width="40" height="12.5001" rx="3.33333" fill="#FDB60D"/>
<g opacity="0.9">
<path d="M3.43359 36.2144H4.5039V34.7293H5.31705C6.4082 34.7293 7.28391 34.1352 7.28391 32.9895V32.9754C7.28391 31.964 6.58195 31.2639 5.4213 31.2639H3.43359V36.2144ZM4.5039 33.7604V32.2469H5.33095C5.8661 32.2469 6.1997 32.5086 6.1997 32.9966V33.0107C6.1997 33.4351 5.88695 33.7604 5.3518 33.7604H4.5039Z" fill="#010101"/>
<path d="M8.07599 36.2144H9.14629V34.6303H9.98725L11.0298 36.2144H12.2808L11.0923 34.4464C11.7109 34.213 12.1348 33.7109 12.1348 32.9117V32.8976C12.1348 32.4308 11.9889 32.0418 11.7178 31.766C11.3981 31.4407 10.9186 31.2639 10.3 31.2639H8.07599V36.2144ZM9.14629 33.6684V32.2469H10.2096C10.7309 32.2469 11.0506 32.4874 11.0506 32.9542V32.9683C11.0506 33.3856 10.7518 33.6684 10.2305 33.6684H9.14629Z" fill="#010101"/>
<path d="M13.0985 36.2144H16.8028V35.2456H14.1618V34.2059H16.4553V33.237H14.1618V32.2328H16.7681V31.2639H13.0985V36.2144Z" fill="#010101"/>
<path d="M19.3043 36.2498H20.2495L22.2164 31.2639H21.0627L19.7908 34.7505L18.5189 31.2639H17.3374L19.3043 36.2498Z" fill="#010101"/>
<path d="M23.0156 36.2144H24.0859V31.2639H23.0156V36.2144Z" fill="#010101"/>
<path d="M25.3017 36.2144H29.0061V35.2456H26.3651V34.2059H28.6586V33.237H26.3651V32.2328H28.9713V31.2639H25.3017V36.2144Z" fill="#010101"/>
<path d="M31.2435 36.2498H32.1748L33.2729 33.0107L34.371 36.2498H35.3023L36.9633 31.2639H35.8444L34.8366 34.6161L33.7455 31.2498H32.8281L31.7369 34.6161L30.7292 31.2639H29.5824L31.2435 36.2498Z" fill="#010101"/>
</g>
</g>
<defs>
<linearGradient id="paint0_linear_5741_42879" x1="5.90353" y1="35.7169" x2="23.0949" y2="14.2277" gradientUnits="userSpaceOnUse">
<stop stop-color="#3BEA62"/>
<stop offset="0.543588" stop-color="#0894FA"/>
<stop offset="1" stop-color="#764EFF"/>
</linearGradient>
<linearGradient id="paint1_linear_5741_42879" x1="36.4888" y1="0.558882" x2="19.3017" y2="17.7459" gradientUnits="userSpaceOnUse">
<stop stop-color="#3BEA62"/>
<stop offset="0.543588" stop-color="#0894FA"/>
<stop offset="1" stop-color="#764EFF"/>
</linearGradient>
<clipPath id="clip0_5741_42879">
<rect width="40" height="40" fill="white"/>
</clipPath>
<clipPath id="clip1_5741_42879">
<rect width="40" height="40" fill="white"/>
</clipPath>
<clipPath id="clip2_5741_42879">
<rect width="34.375" height="34.375" fill="white" transform="translate(2.8125)"/>
</clipPath>
</defs>
</svg>
