<svg width="13" height="13" viewBox="0 0 13 13" fill="none" xmlns="http://www.w3.org/2000/svg">
<circle cx="4.5" cy="6.5" r="2" stroke="#AFB1B3"/>
<circle cx="4.5" cy="1.5" r="1" stroke="#AFB1B3"/>
<path d="M9.8017 4.01299C9.8017 4.56527 9.35398 5.01299 8.8017 5.01299C8.24941 5.01299 7.8017 4.56527 7.8017 4.01299C7.8017 3.4607 8.24941 3.01299 8.8017 3.01299C9.35398 3.01299 9.8017 3.4607 9.8017 4.01299Z" stroke="#AFB1B3"/>
<path d="M9.8 9C9.8 9.55228 9.35229 10 8.8 10C8.24772 10 7.8 9.55228 7.8 9C7.8 8.44772 8.24772 8 8.8 8C9.35229 8 9.8 8.44772 9.8 9Z" stroke="#AFB1B3"/>
<circle cx="4.5" cy="11.5" r="1" stroke="#AFB1B3"/>
<rect x="4" y="2" width="1" height="3" fill="#AFB1B3"/>
<rect x="4" y="8" width="1" height="3" fill="#AFB1B3"/>
<path d="M7.92193 3.93324L8.42193 4.79926L6.74962 5.76477L6.24962 4.89875L7.92193 3.93324Z" fill="#AFB1B3"/>
<path d="M7.99999 8.13397L7.49999 9L5.69911 7.96026L6.19911 7.09424L7.99999 8.13397Z" fill="#AFB1B3"/>
</svg>
