<svg width="100%" height="100%" viewBox="0 0 16 16" version="1.1" xmlns="http://www.w3.org/2000/svg" xml:space="preserve"
     style="fill-rule:evenodd;clip-rule:evenodd;stroke-linejoin:round;stroke-miterlimit:2;">
    <rect x="4" y="11" width="4" height="1" style="fill:rgb(206,208,214);fill-rule:nonzero;"/>
    <path d="M5.001,5L3.2,5L3.2,3.997L7.803,4L7.803,5L6.001,5L6.001,9L5.001,9L5.001,5Z" style="fill:rgb(206,208,214);fill-rule:nonzero;"/>
    <path d="M10.566,3.997C9.061,3.997 8.008,5.14 8.008,6.53L8.008,6.547L8,6.538C8,7.945 9.069,9.055 10.517,9.055C11.463,9.055 12.03,8.718 12.532,8.183L11.841,7.492C11.454,7.846 11.109,8.068 10.55,8.068C9.711,8.068 9.127,7.369 9.127,6.53L9.127,6.514C9.127,5.675 9.719,4.992 10.55,4.992C11.043,4.992 11.43,5.198 11.808,5.543L12.499,4.754C12.046,4.301 11.495,3.997 10.566,3.997Z" style="fill:rgb(206,208,214);fill-rule:nonzero;"/>
    <path d="M13,1L3,1C1.895,1 1,1.895 1,3L1,13C1,14.105 1.895,15 3,15L13,15C14.105,15 15,14.105 15,13L15,3C15,1.895 14.105,1 13,1ZM13,2L3,2C2.448,2 2,2.448 2,3L2,13C2,13.552 2.448,14 3,14L13,14C13.552,14 14,13.552 14,13L14,3C14,2.448 13.552,2 13,2Z" style="fill:rgb(206,208,214);"/>
</svg>
