<svg width="16" height="16" viewBox="0 0 16 16" fill="none" xmlns="http://www.w3.org/2000/svg">
<path d="M8.00009 0.519623L8.76789 7.90492L5.48685 10.7609L5.47702 10.7567L0.615479 15.0011L8.00009 0.519623Z" fill="url(#paint0_linear_4897_51326)"/>
<path fill-rule="evenodd" clip-rule="evenodd" d="M7.62353 13.2883C7.46006 13.1309 7.46014 12.8692 7.62369 12.7119L10.3226 10.1163C10.5767 9.87185 10.9999 10.0519 10.9999 10.4045V15.5986C10.9999 15.9514 10.5765 16.1314 10.3224 15.8868L7.62353 13.2883Z" fill="#DB5C5C"/>
<path fill-rule="evenodd" clip-rule="evenodd" d="M15.3798 12.7117C15.5435 12.8691 15.5436 13.131 15.3799 13.2884L12.6774 15.8876C12.4232 16.132 12 15.9519 12 15.5993L12 10.4038C12 10.0513 12.423 9.87118 12.6772 10.1154L15.3798 12.7117Z" fill="#57965C"/>
<path d="M12.3263 9.00359L8 0.519623L8.98711 10.0132L9.62937 9.39554C10.1907 8.85569 10.9879 8.90752 11.4995 9.32964C11.7323 9.1373 12.0242 9.02165 12.3263 9.00359Z" fill="url(#paint1_linear_4897_51326)"/>
<path d="M7.96075 15.0011L6.92995 14.0086C6.35777 13.4577 6.35802 12.5417 6.9305 11.9912L7.37062 11.5679L5.47702 10.7567L0.615479 15.0011H7.96075Z" fill="url(#paint2_linear_4897_51326)"/>
<defs>
<linearGradient id="paint0_linear_4897_51326" x1="4.13379" y1="-5.25933" x2="-7.38941" y2="1.64919" gradientUnits="userSpaceOnUse">
<stop stop-color="#7777E9"/>
<stop offset="1" stop-color="#01009A"/>
</linearGradient>
<linearGradient id="paint1_linear_4897_51326" x1="4.4092" y1="8.15849" x2="15.9417" y2="13.8777" gradientUnits="userSpaceOnUse">
<stop stop-color="#B83535"/>
<stop offset="1" stop-color="#FD5B5A"/>
</linearGradient>
<linearGradient id="paint2_linear_4897_51326" x1="18.3388" y1="13.2254" x2="14.309" y2="6.5214" gradientUnits="userSpaceOnUse">
<stop stop-color="#01B202"/>
<stop offset="1" stop-color="#0FE90F"/>
</linearGradient>
</defs>
</svg>
