<svg width="25" height="25" viewBox="0 0 18 19" fill="none" xmlns="http://www.w3.org/2000/svg">
    <g clip-path="url(#clip0_2_3174)">
        <path d="M4.2347 2.18295C4.13491 2.18271 4.03926 2.14063 3.96869 2.06591C3.89812 1.99119 3.85838 1.88992 3.85815 1.78425V0.467547C3.85838 0.361878 3.89812 0.260606 3.96869 0.185886C4.03926 0.111167 4.13491 0.0690854 4.2347 0.0688477C4.33435 0.0693227 4.42978 0.11151 4.50017 0.186204C4.57055 0.260897 4.61018 0.362034 4.6104 0.467547V1.78425C4.61018 1.88976 4.57055 1.9909 4.50017 2.06559C4.42978 2.14029 4.33435 2.18247 4.2347 2.18295Z"
              fill="url(#paint0_linear_2_3174)"/>
        <path d="M5.73589 0.467548C5.73589 0.247352 5.56749 0.0688477 5.35977 0.0688477C5.15204 0.0688477 4.98364 0.247352 4.98364 0.467548V1.78425C4.98364 2.00444 5.15204 2.18295 5.35977 2.18295C5.56749 2.18295 5.73589 2.00444 5.73589 1.78425V0.467548Z"
              fill="url(#paint1_linear_2_3174)"/>
        <path d="M6.48642 2.18295C6.38677 2.18247 6.29134 2.14029 6.22095 2.06559C6.15057 1.9909 6.11094 1.88976 6.11072 1.78425V0.467547C6.11094 0.362034 6.15057 0.260897 6.22095 0.186204C6.29134 0.11151 6.38677 0.0693227 6.48642 0.0688477C6.58622 0.0690854 6.68186 0.111167 6.75243 0.185886C6.823 0.260606 6.86274 0.361878 6.86297 0.467547V1.78425C6.86274 1.88992 6.823 1.99119 6.75243 2.06591C6.68186 2.14063 6.58622 2.18271 6.48642 2.18295Z"
              fill="url(#paint2_linear_2_3174)"/>
        <path d="M7.61349 2.18295C7.51369 2.18271 7.41804 2.14063 7.34748 2.06591C7.27691 1.99119 7.23716 1.88992 7.23694 1.78425V0.467547C7.23716 0.361878 7.27691 0.260606 7.34748 0.185886C7.41804 0.111167 7.51369 0.0690854 7.61349 0.0688477C7.71314 0.0693227 7.80857 0.11151 7.87895 0.186204C7.94934 0.260897 7.98896 0.362034 7.98919 0.467547V1.78425C7.98896 1.88976 7.94934 1.9909 7.87895 2.06559C7.80857 2.14029 7.71314 2.18247 7.61349 2.18295Z"
              fill="url(#paint3_linear_2_3174)"/>
        <path d="M8.73971 2.18295C8.63991 2.18271 8.54426 2.14063 8.4737 2.06591C8.40313 1.99119 8.36338 1.88992 8.36316 1.78425V0.467547C8.36338 0.361878 8.40313 0.260606 8.4737 0.185886C8.54426 0.111167 8.63991 0.0690854 8.73971 0.0688477C8.83951 0.0690854 8.93515 0.111167 9.00572 0.185886C9.07629 0.260606 9.11603 0.361878 9.11626 0.467547V1.78425C9.11603 1.88992 9.07629 1.99119 9.00572 2.06591C8.93515 2.14063 8.83951 2.18271 8.73971 2.18295Z"
              fill="url(#paint4_linear_2_3174)"/>
        <path d="M9.86594 2.18295C9.76628 2.18247 9.67086 2.14029 9.60047 2.06559C9.53009 1.9909 9.49046 1.88976 9.49023 1.78425V0.467547C9.49046 0.362034 9.53009 0.260897 9.60047 0.186204C9.67086 0.11151 9.76628 0.0693227 9.86594 0.0688477C9.96573 0.0690854 10.0614 0.111167 10.1319 0.185886C10.2025 0.260606 10.2423 0.361878 10.2425 0.467547V1.78425C10.2423 1.88992 10.2025 1.99119 10.1319 2.06591C10.0614 2.14063 9.96573 2.18271 9.86594 2.18295Z"
              fill="url(#paint5_linear_2_3174)"/>
        <path d="M10.9931 2.18295C10.8933 2.18271 10.7977 2.14063 10.7271 2.06591C10.6565 1.99119 10.6168 1.88992 10.6166 1.78425V0.467547C10.6168 0.361878 10.6565 0.260606 10.7271 0.185886C10.7977 0.111167 10.8933 0.0690854 10.9931 0.0688477C11.0928 0.0693227 11.1882 0.11151 11.2586 0.186204C11.329 0.260897 11.3686 0.362034 11.3688 0.467547V1.78425C11.3686 1.88976 11.329 1.9909 11.2586 2.06559C11.1882 2.14029 11.0928 2.18247 10.9931 2.18295Z"
              fill="url(#paint6_linear_2_3174)"/>
        <path d="M12.4959 0.467548C12.4959 0.247352 12.3275 0.0688477 12.1198 0.0688477C11.912 0.0688477 11.7437 0.247352 11.7437 0.467548V1.78425C11.7437 2.00444 11.912 2.18295 12.1198 2.18295C12.3275 2.18295 12.4959 2.00444 12.4959 1.78425V0.467548Z"
              fill="url(#paint7_linear_2_3174)"/>
        <path d="M13.2447 2.18295C13.1451 2.18247 13.0496 2.14029 12.9793 2.06559C12.9089 1.9909 12.8692 1.88976 12.869 1.78425V0.467547C12.8692 0.362034 12.9089 0.260897 12.9793 0.186204C13.0496 0.11151 13.1451 0.0693227 13.2447 0.0688477C13.3445 0.0690854 13.4402 0.111167 13.5107 0.185886C13.5813 0.260606 13.621 0.361878 13.6213 0.467547V1.78425C13.621 1.88992 13.5813 1.99119 13.5107 2.06591C13.4402 2.14063 13.3445 2.18271 13.2447 2.18295Z"
              fill="url(#paint8_linear_2_3174)"/>
        <path d="M4.2347 18.0688C4.13491 18.0686 4.03926 18.0265 3.96869 17.9518C3.89812 17.8771 3.85838 17.7758 3.85815 17.6701V16.3534C3.85838 16.2478 3.89812 16.1465 3.96869 16.0718C4.03926 15.9971 4.13491 15.955 4.2347 15.9547C4.33435 15.9552 4.42978 15.9974 4.50017 16.0721C4.57055 16.1468 4.61018 16.2479 4.6104 16.3534V17.6701C4.61018 17.7757 4.57055 17.8768 4.50017 17.9515C4.42978 18.0262 4.33435 18.0684 4.2347 18.0688Z"
              fill="url(#paint9_linear_2_3174)"/>
        <path d="M5.73589 16.3534C5.73589 16.1332 5.56749 15.9547 5.35977 15.9547C5.15204 15.9547 4.98364 16.1332 4.98364 16.3534V17.6701C4.98364 17.8903 5.15204 18.0688 5.35977 18.0688C5.56749 18.0688 5.73589 17.8903 5.73589 17.6701V16.3534Z"
              fill="url(#paint10_linear_2_3174)"/>
        <path d="M6.48642 18.0688C6.38677 18.0684 6.29134 18.0262 6.22095 17.9515C6.15057 17.8768 6.11094 17.7757 6.11072 17.6701V16.3534C6.11094 16.2479 6.15057 16.1468 6.22095 16.0721C6.29134 15.9974 6.38677 15.9552 6.48642 15.9547C6.58622 15.955 6.68186 15.9971 6.75243 16.0718C6.823 16.1465 6.86274 16.2478 6.86297 16.3534V17.6701C6.86274 17.7758 6.823 17.8771 6.75243 17.9518C6.68186 18.0265 6.58622 18.0686 6.48642 18.0688Z"
              fill="url(#paint11_linear_2_3174)"/>
        <path d="M7.61349 18.0688C7.51369 18.0686 7.41804 18.0265 7.34748 17.9518C7.27691 17.8771 7.23716 17.7758 7.23694 17.6701V16.3534C7.23716 16.2478 7.27691 16.1465 7.34748 16.0718C7.41804 15.9971 7.51369 15.955 7.61349 15.9547C7.71314 15.9552 7.80857 15.9974 7.87895 16.0721C7.94934 16.1468 7.98896 16.2479 7.98919 16.3534V17.6701C7.98896 17.7757 7.94934 17.8768 7.87895 17.9515C7.80857 18.0262 7.71314 18.0684 7.61349 18.0688Z"
              fill="url(#paint12_linear_2_3174)"/>
        <path d="M8.73971 18.0688C8.63991 18.0686 8.54426 18.0265 8.4737 17.9518C8.40313 17.8771 8.36338 17.7758 8.36316 17.6701V16.3534C8.36338 16.2478 8.40313 16.1465 8.4737 16.0718C8.54426 15.9971 8.63991 15.955 8.73971 15.9547C8.83951 15.955 8.93515 15.9971 9.00572 16.0718C9.07629 16.1465 9.11603 16.2478 9.11626 16.3534V17.6701C9.11603 17.7758 9.07629 17.8771 9.00572 17.9518C8.93515 18.0265 8.83951 18.0686 8.73971 18.0688Z"
              fill="url(#paint13_linear_2_3174)"/>
        <path d="M9.86594 18.0688C9.76628 18.0684 9.67086 18.0262 9.60047 17.9515C9.53009 17.8768 9.49046 17.7757 9.49023 17.6701V16.3534C9.49046 16.2479 9.53009 16.1468 9.60047 16.0721C9.67086 15.9974 9.76628 15.9552 9.86594 15.9547C9.96573 15.955 10.0614 15.9971 10.1319 16.0718C10.2025 16.1465 10.2423 16.2478 10.2425 16.3534V17.6701C10.2423 17.7758 10.2025 17.8771 10.1319 17.9518C10.0614 18.0265 9.96573 18.0686 9.86594 18.0688Z"
              fill="url(#paint14_linear_2_3174)"/>
        <path d="M10.9931 18.0688C10.8933 18.0686 10.7977 18.0265 10.7271 17.9518C10.6565 17.8771 10.6168 17.7758 10.6166 17.6701V16.3534C10.6168 16.2478 10.6565 16.1465 10.7271 16.0718C10.7977 15.9971 10.8933 15.955 10.9931 15.9547C11.0928 15.9552 11.1882 15.9974 11.2586 16.0721C11.329 16.1468 11.3686 16.2479 11.3688 16.3534V17.6701C11.3686 17.7757 11.329 17.8768 11.2586 17.9515C11.1882 18.0262 11.0928 18.0684 10.9931 18.0688Z"
              fill="url(#paint15_linear_2_3174)"/>
        <path d="M12.4959 16.3534C12.4959 16.1332 12.3275 15.9547 12.1198 15.9547C11.912 15.9547 11.7437 16.1332 11.7437 16.3534V17.6701C11.7437 17.8903 11.912 18.0688 12.1198 18.0688C12.3275 18.0688 12.4959 17.8903 12.4959 17.6701V16.3534Z"
              fill="url(#paint16_linear_2_3174)"/>
        <path d="M13.2447 18.0688C13.1451 18.0684 13.0496 18.0262 12.9793 17.9515C12.9089 17.8768 12.8692 17.7757 12.869 17.6701V16.3534C12.8692 16.2479 12.9089 16.1468 12.9793 16.0721C13.0496 15.9974 13.1451 15.9552 13.2447 15.9547C13.3445 15.955 13.4402 15.9971 13.5107 16.0718C13.5813 16.1465 13.621 16.2478 13.6213 16.3534V17.6701C13.621 17.7758 13.5813 17.8771 13.5107 17.9518C13.4402 18.0265 13.3445 18.0686 13.2447 18.0688Z"
              fill="url(#paint17_linear_2_3174)"/>
        <path d="M2.2364 13.8389C2.23595 13.9444 2.1961 14.0454 2.12556 14.1199C2.05502 14.1945 1.9595 14.2364 1.85985 14.2367H0.616295C0.516644 14.2364 0.421126 14.1945 0.350582 14.1199C0.280038 14.0454 0.240195 13.9444 0.239746 13.8389C0.239971 13.7332 0.279714 13.6319 0.350283 13.5572C0.420851 13.4825 0.516497 13.4404 0.616295 13.4402H1.85985C1.95964 13.4404 2.05529 13.4825 2.12586 13.5572C2.19643 13.6319 2.23617 13.7332 2.2364 13.8389Z"
              fill="url(#paint18_linear_2_3174)"/>
        <path d="M1.85985 12.2513H0.616296C0.408333 12.2513 0.239746 12.4296 0.239746 12.6495C0.239746 12.8694 0.408333 13.0478 0.616296 13.0478H1.85985C2.06781 13.0478 2.2364 12.8694 2.2364 12.6495C2.2364 12.4296 2.06781 12.2513 1.85985 12.2513Z"
              fill="url(#paint19_linear_2_3174)"/>
        <path d="M2.2364 11.4565C2.23595 11.5621 2.1961 11.6631 2.12556 11.7376C2.05502 11.8121 1.9595 11.8541 1.85985 11.8543H0.616295C0.516644 11.8541 0.421126 11.8121 0.350582 11.7376C0.280038 11.6631 0.240195 11.5621 0.239746 11.4565C0.239971 11.3509 0.279714 11.2496 0.350283 11.1749C0.420851 11.1002 0.516497 11.0581 0.616295 11.0578H1.85985C1.95964 11.0581 2.05529 11.1002 2.12586 11.1749C2.19643 11.2496 2.23617 11.3509 2.2364 11.4565Z"
              fill="url(#paint20_linear_2_3174)"/>
        <path d="M2.2364 10.2631C2.23617 10.3688 2.19643 10.4701 2.12586 10.5448C2.05529 10.6195 1.95964 10.6616 1.85985 10.6618H0.616295C0.516497 10.6616 0.420851 10.6195 0.350283 10.5448C0.279714 10.4701 0.239971 10.3688 0.239746 10.2631C0.240195 10.1576 0.280038 10.0566 0.350582 9.98206C0.421126 9.90753 0.516644 9.86558 0.616295 9.86534H1.85985C1.9595 9.86558 2.05502 9.90753 2.12556 9.98206C2.1961 10.0566 2.23595 10.1576 2.2364 10.2631Z"
              fill="url(#paint21_linear_2_3174)"/>
        <path d="M2.2364 9.06885C2.23617 9.17452 2.19643 9.27579 2.12586 9.35051C2.05529 9.42523 1.95964 9.46731 1.85985 9.46755H0.616295C0.516497 9.46731 0.420851 9.42523 0.350283 9.35051C0.279714 9.27579 0.239971 9.17452 0.239746 9.06885C0.240195 8.96334 0.280038 8.8623 0.350582 8.78777C0.421126 8.71325 0.516644 8.67129 0.616295 8.67105H1.85985C1.9595 8.67129 2.05502 8.71325 2.12556 8.78777C2.1961 8.8623 2.23595 8.96334 2.2364 9.06885Z"
              fill="url(#paint22_linear_2_3174)"/>
        <path d="M2.2364 7.87815C2.23595 7.98366 2.1961 8.0847 2.12556 8.15923C2.05502 8.23375 1.9595 8.27571 1.85985 8.27595H0.616295C0.516644 8.27571 0.421126 8.23375 0.350582 8.15923C0.280038 8.0847 0.240195 7.98366 0.239746 7.87815C0.239971 7.77248 0.279714 7.67121 0.350283 7.59649C0.420851 7.52177 0.516497 7.47968 0.616295 7.47945H1.85985C1.95964 7.47968 2.05529 7.52177 2.12586 7.59649C2.19643 7.67121 2.23617 7.77248 2.2364 7.87815Z"
              fill="url(#paint23_linear_2_3174)"/>
        <path d="M2.2364 6.68474C2.23617 6.79041 2.19643 6.89168 2.12586 6.9664C2.05529 7.04112 1.95964 7.0832 1.85985 7.08344H0.616295C0.516497 7.0832 0.420851 7.04112 0.350283 6.9664C0.279714 6.89168 0.239971 6.79041 0.239746 6.68474C0.240195 6.57923 0.280038 6.47819 0.350582 6.40366C0.421126 6.32914 0.516644 6.28718 0.616295 6.28694H1.85985C1.9595 6.28718 2.05502 6.32914 2.12556 6.40366C2.1961 6.47819 2.23595 6.57923 2.2364 6.68474Z"
              fill="url(#paint24_linear_2_3174)"/>
        <path d="M2.2364 5.49225C2.23617 5.59792 2.19643 5.69919 2.12586 5.77391C2.05529 5.84863 1.95964 5.89071 1.85985 5.89095H0.616295C0.516497 5.89071 0.420851 5.84863 0.350283 5.77391C0.279714 5.69919 0.239971 5.59792 0.239746 5.49225C0.239971 5.38658 0.279714 5.28531 0.350283 5.21059C0.420851 5.13587 0.516497 5.09379 0.616295 5.09355H1.85985C1.95964 5.09379 2.05529 5.13587 2.12586 5.21059C2.19643 5.28531 2.23617 5.38658 2.2364 5.49225Z"
              fill="url(#paint25_linear_2_3174)"/>
        <path d="M2.2364 4.29885C2.23595 4.40436 2.1961 4.5054 2.12556 4.57993C2.05502 4.65445 1.9595 4.69641 1.85985 4.69665H0.616295C0.516644 4.69641 0.421126 4.65445 0.350582 4.57993C0.280038 4.5054 0.240195 4.40436 0.239746 4.29885C0.239971 4.19318 0.279714 4.0919 0.350283 4.01719C0.420851 3.94247 0.516497 3.90038 0.616295 3.90015H1.85985C1.95964 3.90038 2.05529 3.94247 2.12586 4.01719C2.19643 4.0919 2.23617 4.19318 2.2364 4.29885Z"
              fill="url(#paint26_linear_2_3174)"/>
        <path d="M17.2397 13.8389C17.2392 13.9444 17.1994 14.0454 17.1289 14.1199C17.0583 14.1945 16.9628 14.2364 16.8631 14.2367H15.6196C15.5199 14.2364 15.4244 14.1945 15.3539 14.1199C15.2833 14.0454 15.2435 13.9444 15.243 13.8389C15.2433 13.7332 15.283 13.6319 15.3536 13.5572C15.4241 13.4825 15.5198 13.4404 15.6196 13.4402H16.8631C16.9629 13.4404 17.0586 13.4825 17.1292 13.5572C17.1997 13.6319 17.2395 13.7332 17.2397 13.8389Z"
              fill="url(#paint27_linear_2_3174)"/>
        <path d="M16.8631 12.2513H15.6196C15.4116 12.2513 15.243 12.4296 15.243 12.6495C15.243 12.8694 15.4116 13.0478 15.6196 13.0478H16.8631C17.0711 13.0478 17.2397 12.8694 17.2397 12.6495C17.2397 12.4296 17.0711 12.2513 16.8631 12.2513Z"
              fill="url(#paint28_linear_2_3174)"/>
        <path d="M17.2397 11.4565C17.2392 11.5621 17.1994 11.6631 17.1289 11.7376C17.0583 11.8121 16.9628 11.8541 16.8631 11.8543H15.6196C15.5199 11.8541 15.4244 11.8121 15.3539 11.7376C15.2833 11.6631 15.2435 11.5621 15.243 11.4565C15.2433 11.3509 15.283 11.2496 15.3536 11.1749C15.4241 11.1002 15.5198 11.0581 15.6196 11.0578H16.8631C16.9629 11.0581 17.0586 11.1002 17.1292 11.1749C17.1997 11.2496 17.2395 11.3509 17.2397 11.4565Z"
              fill="url(#paint29_linear_2_3174)"/>
        <path d="M17.2397 10.2631C17.2395 10.3688 17.1997 10.4701 17.1292 10.5448C17.0586 10.6195 16.9629 10.6616 16.8631 10.6618H15.6196C15.5198 10.6616 15.4241 10.6195 15.3536 10.5448C15.283 10.4701 15.2433 10.3688 15.243 10.2631C15.2435 10.1576 15.2833 10.0566 15.3539 9.98206C15.4244 9.90753 15.5199 9.86558 15.6196 9.86534H16.8631C16.9628 9.86558 17.0583 9.90753 17.1289 9.98206C17.1994 10.0566 17.2392 10.1576 17.2397 10.2631Z"
              fill="url(#paint30_linear_2_3174)"/>
        <path d="M17.2397 9.06885C17.2395 9.17452 17.1997 9.27579 17.1292 9.35051C17.0586 9.42523 16.9629 9.46731 16.8631 9.46755H15.6196C15.5198 9.46731 15.4241 9.42523 15.3536 9.35051C15.283 9.27579 15.2433 9.17452 15.243 9.06885C15.2435 8.96334 15.2833 8.8623 15.3539 8.78777C15.4244 8.71325 15.5199 8.67129 15.6196 8.67105H16.8631C16.9628 8.67129 17.0583 8.71325 17.1289 8.78777C17.1994 8.8623 17.2392 8.96334 17.2397 9.06885Z"
              fill="url(#paint31_linear_2_3174)"/>
        <path d="M17.2397 7.87815C17.2392 7.98366 17.1994 8.0847 17.1289 8.15923C17.0583 8.23375 16.9628 8.27571 16.8631 8.27595H15.6196C15.5199 8.27571 15.4244 8.23375 15.3539 8.15923C15.2833 8.0847 15.2435 7.98366 15.243 7.87815C15.2433 7.77248 15.283 7.67121 15.3536 7.59649C15.4241 7.52177 15.5198 7.47968 15.6196 7.47945H16.8631C16.9629 7.47968 17.0586 7.52177 17.1292 7.59649C17.1997 7.67121 17.2395 7.77248 17.2397 7.87815Z"
              fill="url(#paint32_linear_2_3174)"/>
        <path d="M17.2397 6.68474C17.2395 6.79041 17.1997 6.89168 17.1292 6.9664C17.0586 7.04112 16.9629 7.0832 16.8631 7.08344H15.6196C15.5198 7.0832 15.4241 7.04112 15.3536 6.9664C15.283 6.89168 15.2433 6.79041 15.243 6.68474C15.2435 6.57923 15.2833 6.47819 15.3539 6.40366C15.4244 6.32914 15.5199 6.28718 15.6196 6.28694H16.8631C16.9628 6.28718 17.0583 6.32914 17.1289 6.40366C17.1994 6.47819 17.2392 6.57923 17.2397 6.68474Z"
              fill="url(#paint33_linear_2_3174)"/>
        <path d="M17.2397 5.49225C17.2395 5.59792 17.1997 5.69919 17.1292 5.77391C17.0586 5.84863 16.9629 5.89071 16.8631 5.89095H15.6196C15.5198 5.89071 15.4241 5.84863 15.3536 5.77391C15.283 5.69919 15.2433 5.59792 15.243 5.49225C15.2433 5.38658 15.283 5.28531 15.3536 5.21059C15.4241 5.13587 15.5198 5.09379 15.6196 5.09355H16.8631C16.9629 5.09379 17.0586 5.13587 17.1292 5.21059C17.1997 5.28531 17.2395 5.38658 17.2397 5.49225Z"
              fill="url(#paint34_linear_2_3174)"/>
        <path d="M17.2397 4.29885C17.2392 4.40436 17.1994 4.5054 17.1289 4.57993C17.0583 4.65445 16.9628 4.69641 16.8631 4.69665H15.6196C15.5199 4.69641 15.4244 4.65445 15.3539 4.57993C15.2833 4.5054 15.2435 4.40436 15.243 4.29885C15.2433 4.19318 15.283 4.0919 15.3536 4.01719C15.4241 3.94247 15.5198 3.90038 15.6196 3.90015H16.8631C16.9629 3.90038 17.0586 3.94247 17.1292 4.01719C17.1997 4.0919 17.2395 4.19318 17.2397 4.29885Z"
              fill="url(#paint35_linear_2_3174)"/>
        <path d="M2.987 16.4192C2.67139 16.4192 2.36871 16.2864 2.14554 16.0501C1.92237 15.8138 1.797 15.4933 1.797 15.1592V2.97765C1.797 2.64348 1.92237 2.32299 2.14554 2.0867C2.36871 1.8504 2.67139 1.71765 2.987 1.71765H14.6116C14.8953 1.71813 15.1672 1.83766 15.3678 2.05005C15.5684 2.26245 15.6813 2.55038 15.6817 2.85075V15.16C15.6817 15.4942 15.5564 15.8147 15.3332 16.051C15.11 16.2873 14.8074 16.42 14.4917 16.42L2.987 16.4192Z"
              fill="white"/>
        <path d="M2.01025 15.0844V3.05325C2.01025 2.75894 2.12067 2.47668 2.31722 2.26858C2.51377 2.06047 2.78034 1.94355 3.0583 1.94355H14.4483C14.5826 1.94296 14.7157 1.97046 14.8399 2.02447C14.9642 2.07848 15.0771 2.15793 15.1723 2.25828C15.2675 2.35863 15.343 2.47789 15.3945 2.60921C15.446 2.74054 15.4726 2.88134 15.4726 3.02355V15.0835C15.4726 15.3779 15.3621 15.6601 15.1656 15.8682C14.969 16.0763 14.7025 16.1933 14.4245 16.1933H3.0583C2.78049 16.1933 2.51404 16.0765 2.31752 15.8685C2.121 15.6606 2.01048 15.3786 2.01025 15.0844Z"
              fill="#F1605D"/>
        <path fill-rule="evenodd" clip-rule="evenodd"
              d="M5.71628 11.5669C6.4049 12.8376 7.49485 13.5904 8.79603 14.0604C8.85517 14.0822 8.93544 14.0735 8.99458 14.0473C9.02725 14.0334 9.06001 14.0195 9.09285 14.0055C9.35729 13.893 9.62621 13.7786 9.88175 13.647C11.4491 12.8332 12.3362 11.5059 12.6362 9.74349C12.8052 8.75565 12.8052 7.75475 12.7798 6.75386C12.779 6.72506 12.7783 6.69626 12.7778 6.66745C12.7748 6.50619 12.7763 6.34425 12.7779 6.17778C12.7786 6.10839 12.7792 6.03822 12.7796 5.96699C12.7797 5.93503 12.7798 5.90287 12.7798 5.87046C11.2759 5.86611 9.94934 5.44399 8.87207 4.343C7.79057 5.45269 6.46826 5.86611 4.9981 5.87481C4.99566 5.88738 4.99322 5.8985 4.99098 5.90869C4.98547 5.93378 4.9812 5.95324 4.9812 5.9749C4.98613 6.28957 4.98854 6.60424 4.99095 6.9188C4.99681 7.6831 5.00267 8.44676 5.04457 9.20823C5.09104 10.0394 5.31917 10.8401 5.71628 11.5669ZM5.90902 6.79231C5.9094 6.84062 5.90977 6.88879 5.91014 6.93686C5.91589 7.69019 5.92144 8.41538 5.96191 9.15116C5.99989 9.8294 6.18566 10.483 6.51167 11.0796L6.51332 11.0826L6.51332 11.0826C7.02146 12.0203 7.81555 12.6341 8.86585 13.0534C9.08704 12.9588 9.28746 12.871 9.47843 12.7727C10.7687 12.1024 11.481 11.0448 11.7318 9.57094L11.732 9.57008C11.8824 8.69096 11.8864 7.77913 11.8615 6.79024C10.7905 6.66459 9.77652 6.30652 8.87336 5.61197C7.9707 6.30941 6.96261 6.66527 5.90902 6.79231Z"
              fill="white"/>
        <path d="M9.87802 10.839L10.0598 11.0314L10.2415 10.839L10.4467 10.6217L10.6088 10.4501L10.4467 10.2784L9.43561 9.20784L10.4467 8.13728L10.6088 7.96563L10.4467 7.79397L10.2415 7.57674L10.0598 7.3843L9.87802 7.57674L8.88658 8.62651L7.89509 7.57674L7.71334 7.3843L7.53159 7.57674L7.32643 7.79397L7.1643 7.96563L7.32643 8.13729L8.33754 9.20784L7.32643 10.2784L7.16431 10.4501L7.32643 10.6217L7.53159 10.839L7.71334 11.0314L7.89509 10.839L8.88658 9.78921L9.87802 10.839Z"
              fill="white" stroke="white" stroke-width="0.5"/>
        <path d="M4.23479 3.82904C4.23496 3.92004 4.20963 4.00905 4.162 4.08479C4.11438 4.16054 4.0466 4.21963 3.96725 4.25458C3.88789 4.28952 3.80053 4.29876 3.71622 4.28111C3.63191 4.26347 3.55444 4.21974 3.49361 4.15546C3.43278 4.09118 3.39133 4.00923 3.3745 3.91999C3.35767 3.83076 3.36622 3.73824 3.39907 3.65415C3.43192 3.57007 3.48759 3.49819 3.55904 3.44761C3.63048 3.39704 3.7145 3.37004 3.80044 3.37004C3.91549 3.37004 4.02584 3.41837 4.10727 3.50442C4.1887 3.59048 4.23456 3.70722 4.23479 3.82904Z"
              fill="white"/>
        <path d="M14.1126 3.82904C14.1128 3.92008 14.0874 4.00912 14.0397 4.08489C13.9921 4.16066 13.9243 4.21974 13.8449 4.25466C13.7655 4.28958 13.6781 4.29877 13.5937 4.28105C13.5094 4.26333 13.4319 4.21951 13.3711 4.15514C13.3103 4.09077 13.2689 4.00874 13.2522 3.91944C13.2355 3.83015 13.2441 3.7376 13.2771 3.65353C13.3101 3.56946 13.3659 3.49764 13.4375 3.44717C13.509 3.39671 13.5931 3.36986 13.6791 3.37004C13.7941 3.37004 13.9043 3.4184 13.9856 3.50448C14.0669 3.59056 14.1126 3.70731 14.1126 3.82904Z"
              fill="white"/>
        <path d="M4.23479 14.3087C4.23479 14.3996 4.20932 14.4885 4.16159 14.5642C4.11386 14.6398 4.04602 14.6987 3.96666 14.7336C3.88729 14.7684 3.79996 14.7775 3.7157 14.7597C3.63145 14.742 3.55405 14.6982 3.49331 14.6339C3.43256 14.5695 3.39119 14.4876 3.37444 14.3984C3.35768 14.3092 3.36628 14.2167 3.39915 14.1327C3.43203 14.0486 3.4877 13.9768 3.55913 13.9263C3.63056 13.8757 3.71453 13.8488 3.80044 13.8488C3.85751 13.8486 3.91404 13.8605 3.96679 13.8835C4.01954 13.9066 4.06747 13.9405 4.10782 13.9832C4.14818 14.0259 4.18017 14.0767 4.20195 14.1325C4.22374 14.1884 4.2349 14.2482 4.23479 14.3087Z"
              fill="white"/>
        <path d="M14.1126 14.3087C14.1126 14.3997 14.0871 14.4886 14.0393 14.5643C13.9916 14.6399 13.9237 14.6989 13.8443 14.7336C13.7648 14.7684 13.6775 14.7775 13.5932 14.7597C13.5089 14.7418 13.4315 14.6979 13.3708 14.6335C13.3101 14.5691 13.2688 14.4871 13.2521 14.3978C13.2355 14.3086 13.2442 14.2161 13.2772 14.132C13.3102 14.048 13.366 13.9763 13.4376 13.9258C13.5091 13.8754 13.5932 13.8486 13.6791 13.8488C13.7361 13.8488 13.7925 13.8607 13.8452 13.8838C13.8978 13.9069 13.9457 13.9408 13.9859 13.9835C14.0262 14.0262 14.0581 14.0769 14.0798 14.1327C14.1016 14.1885 14.1127 14.2483 14.1126 14.3087Z"
              fill="white"/>
    </g>
    <defs>
        <linearGradient id="paint0_linear_2_3174" x1="4.23385" y1="2.18295" x2="4.23385" y2="0.0688477"
                        gradientUnits="userSpaceOnUse">
            <stop stop-color="#A5251E"/>
            <stop offset="0.04" stop-color="#AB261F"/>
            <stop offset="0.3" stop-color="#CA2D25"/>
            <stop offset="0.55" stop-color="#E03229"/>
            <stop offset="0.79" stop-color="#ED352B"/>
            <stop offset="1" stop-color="#F2362C"/>
        </linearGradient>
        <linearGradient id="paint1_linear_2_3174" x1="50.2991" y1="49.7291" x2="50.2991" y2="0.0688477"
                        gradientUnits="userSpaceOnUse">
            <stop stop-color="#A5251E"/>
            <stop offset="0.04" stop-color="#AB261F"/>
            <stop offset="0.3" stop-color="#CA2D25"/>
            <stop offset="0.55" stop-color="#E03229"/>
            <stop offset="0.79" stop-color="#ED352B"/>
            <stop offset="1" stop-color="#F2362C"/>
        </linearGradient>
        <linearGradient id="paint2_linear_2_3174" x1="174.231" y1="366.844" x2="174.231" y2="0.0688477"
                        gradientUnits="userSpaceOnUse">
            <stop stop-color="#A5251E"/>
            <stop offset="0.04" stop-color="#AB261F"/>
            <stop offset="0.3" stop-color="#CA2D25"/>
            <stop offset="0.55" stop-color="#E03229"/>
            <stop offset="0.79" stop-color="#ED352B"/>
            <stop offset="1" stop-color="#F2362C"/>
        </linearGradient>
        <linearGradient id="paint3_linear_2_3174" x1="185.332" y1="366.844" x2="185.332" y2="0.0688477"
                        gradientUnits="userSpaceOnUse">
            <stop stop-color="#A5251E"/>
            <stop offset="0.04" stop-color="#AB261F"/>
            <stop offset="0.3" stop-color="#CA2D25"/>
            <stop offset="0.55" stop-color="#E03229"/>
            <stop offset="0.79" stop-color="#ED352B"/>
            <stop offset="1" stop-color="#F2362C"/>
        </linearGradient>
        <linearGradient id="paint4_linear_2_3174" x1="196.638" y1="366.844" x2="196.638" y2="0.0688477"
                        gradientUnits="userSpaceOnUse">
            <stop stop-color="#A5251E"/>
            <stop offset="0.04" stop-color="#AB261F"/>
            <stop offset="0.3" stop-color="#CA2D25"/>
            <stop offset="0.55" stop-color="#E03229"/>
            <stop offset="0.79" stop-color="#ED352B"/>
            <stop offset="1" stop-color="#F2362C"/>
        </linearGradient>
        <linearGradient id="paint5_linear_2_3174" x1="207.52" y1="366.844" x2="207.52" y2="0.0688477"
                        gradientUnits="userSpaceOnUse">
            <stop stop-color="#A5251E"/>
            <stop offset="0.04" stop-color="#AB261F"/>
            <stop offset="0.3" stop-color="#CA2D25"/>
            <stop offset="0.55" stop-color="#E03229"/>
            <stop offset="0.79" stop-color="#ED352B"/>
            <stop offset="1" stop-color="#F2362C"/>
        </linearGradient>
        <linearGradient id="paint6_linear_2_3174" x1="218.622" y1="366.844" x2="218.622" y2="0.0688477"
                        gradientUnits="userSpaceOnUse">
            <stop stop-color="#A5251E"/>
            <stop offset="0.04" stop-color="#AB261F"/>
            <stop offset="0.3" stop-color="#CA2D25"/>
            <stop offset="0.55" stop-color="#E03229"/>
            <stop offset="0.79" stop-color="#ED352B"/>
            <stop offset="1" stop-color="#F2362C"/>
        </linearGradient>
        <linearGradient id="paint7_linear_2_3174" x1="116.878" y1="49.7291" x2="116.878" y2="0.0688477"
                        gradientUnits="userSpaceOnUse">
            <stop stop-color="#A5251E"/>
            <stop offset="0.04" stop-color="#AB261F"/>
            <stop offset="0.3" stop-color="#CA2D25"/>
            <stop offset="0.55" stop-color="#E03229"/>
            <stop offset="0.79" stop-color="#ED352B"/>
            <stop offset="1" stop-color="#F2362C"/>
        </linearGradient>
        <linearGradient id="paint8_linear_2_3174" x1="240.808" y1="366.844" x2="240.808" y2="0.0688477"
                        gradientUnits="userSpaceOnUse">
            <stop stop-color="#A5251E"/>
            <stop offset="0.04" stop-color="#AB261F"/>
            <stop offset="0.3" stop-color="#CA2D25"/>
            <stop offset="0.55" stop-color="#E03229"/>
            <stop offset="0.79" stop-color="#ED352B"/>
            <stop offset="1" stop-color="#F2362C"/>
        </linearGradient>
        <linearGradient id="paint9_linear_2_3174" x1="4.23385" y1="18.0688" x2="4.23385" y2="15.9547"
                        gradientUnits="userSpaceOnUse">
            <stop stop-color="#F2362C"/>
            <stop offset="0.22" stop-color="#EE352B"/>
            <stop offset="0.45" stop-color="#E13229"/>
            <stop offset="0.7" stop-color="#CB2D25"/>
            <stop offset="0.94" stop-color="#AD271F"/>
            <stop offset="1" stop-color="#A5251E"/>
        </linearGradient>
        <linearGradient id="paint10_linear_2_3174" x1="50.2991" y1="438.775" x2="50.2991" y2="389.114"
                        gradientUnits="userSpaceOnUse">
            <stop stop-color="#F2362C"/>
            <stop offset="0.22" stop-color="#EE352B"/>
            <stop offset="0.45" stop-color="#E13229"/>
            <stop offset="0.7" stop-color="#CB2D25"/>
            <stop offset="0.94" stop-color="#AD271F"/>
            <stop offset="1" stop-color="#A5251E"/>
        </linearGradient>
        <linearGradient id="paint11_linear_2_3174" x1="174.231" y1="15.9547" x2="174.231" y2="706.229"
                        gradientUnits="userSpaceOnUse">
            <stop stop-color="#F2362C"/>
            <stop offset="0.22" stop-color="#EE352B"/>
            <stop offset="0.45" stop-color="#E13229"/>
            <stop offset="0.7" stop-color="#CB2D25"/>
            <stop offset="0.94" stop-color="#AD271F"/>
            <stop offset="1" stop-color="#A5251E"/>
        </linearGradient>
        <linearGradient id="paint12_linear_2_3174" x1="185.332" y1="15.9547" x2="185.332" y2="706.229"
                        gradientUnits="userSpaceOnUse">
            <stop stop-color="#F2362C"/>
            <stop offset="0.22" stop-color="#EE352B"/>
            <stop offset="0.45" stop-color="#E13229"/>
            <stop offset="0.7" stop-color="#CB2D25"/>
            <stop offset="0.94" stop-color="#AD271F"/>
            <stop offset="1" stop-color="#A5251E"/>
        </linearGradient>
        <linearGradient id="paint13_linear_2_3174" x1="196.638" y1="15.9547" x2="196.638" y2="706.229"
                        gradientUnits="userSpaceOnUse">
            <stop stop-color="#F2362C"/>
            <stop offset="0.22" stop-color="#EE352B"/>
            <stop offset="0.45" stop-color="#E13229"/>
            <stop offset="0.7" stop-color="#CB2D25"/>
            <stop offset="0.94" stop-color="#AD271F"/>
            <stop offset="1" stop-color="#A5251E"/>
        </linearGradient>
        <linearGradient id="paint14_linear_2_3174" x1="207.52" y1="15.9547" x2="207.52" y2="706.229"
                        gradientUnits="userSpaceOnUse">
            <stop stop-color="#F2362C"/>
            <stop offset="0.22" stop-color="#EE352B"/>
            <stop offset="0.45" stop-color="#E13229"/>
            <stop offset="0.7" stop-color="#CB2D25"/>
            <stop offset="0.94" stop-color="#AD271F"/>
            <stop offset="1" stop-color="#A5251E"/>
        </linearGradient>
        <linearGradient id="paint15_linear_2_3174" x1="218.622" y1="15.9547" x2="218.622" y2="706.229"
                        gradientUnits="userSpaceOnUse">
            <stop stop-color="#F2362C"/>
            <stop offset="0.22" stop-color="#EE352B"/>
            <stop offset="0.45" stop-color="#E13229"/>
            <stop offset="0.7" stop-color="#CB2D25"/>
            <stop offset="0.94" stop-color="#AD271F"/>
            <stop offset="1" stop-color="#A5251E"/>
        </linearGradient>
        <linearGradient id="paint16_linear_2_3174" x1="116.878" y1="438.775" x2="116.878" y2="389.114"
                        gradientUnits="userSpaceOnUse">
            <stop stop-color="#F2362C"/>
            <stop offset="0.22" stop-color="#EE352B"/>
            <stop offset="0.45" stop-color="#E13229"/>
            <stop offset="0.7" stop-color="#CB2D25"/>
            <stop offset="0.94" stop-color="#AD271F"/>
            <stop offset="1" stop-color="#A5251E"/>
        </linearGradient>
        <linearGradient id="paint17_linear_2_3174" x1="240.808" y1="15.9547" x2="240.808" y2="706.229"
                        gradientUnits="userSpaceOnUse">
            <stop stop-color="#F2362C"/>
            <stop offset="0.22" stop-color="#EE352B"/>
            <stop offset="0.45" stop-color="#E13229"/>
            <stop offset="0.7" stop-color="#CB2D25"/>
            <stop offset="0.94" stop-color="#AD271F"/>
            <stop offset="1" stop-color="#A5251E"/>
        </linearGradient>
        <linearGradient id="paint18_linear_2_3174" x1="0.239746" y1="13.8425" x2="2.2364" y2="13.8425"
                        gradientUnits="userSpaceOnUse">
            <stop stop-color="#F2362C"/>
            <stop offset="0.21" stop-color="#ED352B"/>
            <stop offset="0.45" stop-color="#E03229"/>
            <stop offset="0.7" stop-color="#CA2D25"/>
            <stop offset="0.96" stop-color="#AB261F"/>
            <stop offset="1" stop-color="#A5251E"/>
        </linearGradient>
        <linearGradient id="paint19_linear_2_3174" x1="0.239746" y1="123.586" x2="47.1411" y2="123.586"
                        gradientUnits="userSpaceOnUse">
            <stop stop-color="#F2362C"/>
            <stop offset="0.21" stop-color="#ED352B"/>
            <stop offset="0.45" stop-color="#E03229"/>
            <stop offset="0.7" stop-color="#CA2D25"/>
            <stop offset="0.96" stop-color="#AB261F"/>
            <stop offset="1" stop-color="#A5251E"/>
        </linearGradient>
        <linearGradient id="paint20_linear_2_3174" x1="0.239746" y1="231.314" x2="346.639" y2="231.314"
                        gradientUnits="userSpaceOnUse">
            <stop stop-color="#F2362C"/>
            <stop offset="0.21" stop-color="#ED352B"/>
            <stop offset="0.45" stop-color="#E03229"/>
            <stop offset="0.7" stop-color="#CA2D25"/>
            <stop offset="0.96" stop-color="#AB261F"/>
            <stop offset="1" stop-color="#A5251E"/>
        </linearGradient>
        <linearGradient id="paint21_linear_2_3174" x1="0.239746" y1="219.559" x2="346.639" y2="219.559"
                        gradientUnits="userSpaceOnUse">
            <stop stop-color="#F2362C"/>
            <stop offset="0.21" stop-color="#ED352B"/>
            <stop offset="0.45" stop-color="#E03229"/>
            <stop offset="0.7" stop-color="#CA2D25"/>
            <stop offset="0.96" stop-color="#AB261F"/>
            <stop offset="1" stop-color="#A5251E"/>
        </linearGradient>
        <linearGradient id="paint22_linear_2_3174" x1="0.239746" y1="207.812" x2="346.639" y2="207.812"
                        gradientUnits="userSpaceOnUse">
            <stop stop-color="#F2362C"/>
            <stop offset="0.21" stop-color="#ED352B"/>
            <stop offset="0.45" stop-color="#E03229"/>
            <stop offset="0.7" stop-color="#CA2D25"/>
            <stop offset="0.96" stop-color="#AB261F"/>
            <stop offset="1" stop-color="#A5251E"/>
        </linearGradient>
        <linearGradient id="paint23_linear_2_3174" x1="0.239746" y1="196.067" x2="346.639" y2="196.067"
                        gradientUnits="userSpaceOnUse">
            <stop stop-color="#F2362C"/>
            <stop offset="0.21" stop-color="#ED352B"/>
            <stop offset="0.45" stop-color="#E03229"/>
            <stop offset="0.7" stop-color="#CA2D25"/>
            <stop offset="0.96" stop-color="#AB261F"/>
            <stop offset="1" stop-color="#A5251E"/>
        </linearGradient>
        <linearGradient id="paint24_linear_2_3174" x1="0.239746" y1="184.313" x2="346.639" y2="184.313"
                        gradientUnits="userSpaceOnUse">
            <stop stop-color="#F2362C"/>
            <stop offset="0.21" stop-color="#ED352B"/>
            <stop offset="0.45" stop-color="#E03229"/>
            <stop offset="0.7" stop-color="#CA2D25"/>
            <stop offset="0.96" stop-color="#AB261F"/>
            <stop offset="1" stop-color="#A5251E"/>
        </linearGradient>
        <linearGradient id="paint25_linear_2_3174" x1="0.239746" y1="172.755" x2="346.639" y2="172.755"
                        gradientUnits="userSpaceOnUse">
            <stop stop-color="#F2362C"/>
            <stop offset="0.21" stop-color="#ED352B"/>
            <stop offset="0.45" stop-color="#E03229"/>
            <stop offset="0.7" stop-color="#CA2D25"/>
            <stop offset="0.96" stop-color="#AB261F"/>
            <stop offset="1" stop-color="#A5251E"/>
        </linearGradient>
        <linearGradient id="paint26_linear_2_3174" x1="0.239746" y1="160.818" x2="346.639" y2="160.818"
                        gradientUnits="userSpaceOnUse">
            <stop stop-color="#F2362C"/>
            <stop offset="0.21" stop-color="#ED352B"/>
            <stop offset="0.45" stop-color="#E03229"/>
            <stop offset="0.7" stop-color="#CA2D25"/>
            <stop offset="0.96" stop-color="#AB261F"/>
            <stop offset="1" stop-color="#A5251E"/>
        </linearGradient>
        <linearGradient id="paint27_linear_2_3174" x1="667.169" y1="254.811" x2="714.07" y2="254.811"
                        gradientUnits="userSpaceOnUse">
            <stop stop-color="#A5251E"/>
            <stop offset="0.04" stop-color="#AB261F"/>
            <stop offset="0.3" stop-color="#CA2D25"/>
            <stop offset="0.55" stop-color="#E03229"/>
            <stop offset="0.79" stop-color="#ED352B"/>
            <stop offset="1" stop-color="#F2362C"/>
        </linearGradient>
        <linearGradient id="paint28_linear_2_3174" x1="367.672" y1="123.586" x2="414.573" y2="123.586"
                        gradientUnits="userSpaceOnUse">
            <stop stop-color="#A5251E"/>
            <stop offset="0.04" stop-color="#AB261F"/>
            <stop offset="0.3" stop-color="#CA2D25"/>
            <stop offset="0.55" stop-color="#E03229"/>
            <stop offset="0.79" stop-color="#ED352B"/>
            <stop offset="1" stop-color="#F2362C"/>
        </linearGradient>
        <linearGradient id="paint29_linear_2_3174" x1="667.169" y1="231.314" x2="714.07" y2="231.314"
                        gradientUnits="userSpaceOnUse">
            <stop stop-color="#A5251E"/>
            <stop offset="0.04" stop-color="#AB261F"/>
            <stop offset="0.3" stop-color="#CA2D25"/>
            <stop offset="0.55" stop-color="#E03229"/>
            <stop offset="0.79" stop-color="#ED352B"/>
            <stop offset="1" stop-color="#F2362C"/>
        </linearGradient>
        <linearGradient id="paint30_linear_2_3174" x1="667.169" y1="219.559" x2="714.07" y2="219.559"
                        gradientUnits="userSpaceOnUse">
            <stop stop-color="#A5251E"/>
            <stop offset="0.04" stop-color="#AB261F"/>
            <stop offset="0.3" stop-color="#CA2D25"/>
            <stop offset="0.55" stop-color="#E03229"/>
            <stop offset="0.79" stop-color="#ED352B"/>
            <stop offset="1" stop-color="#F2362C"/>
        </linearGradient>
        <linearGradient id="paint31_linear_2_3174" x1="667.169" y1="207.812" x2="714.07" y2="207.812"
                        gradientUnits="userSpaceOnUse">
            <stop stop-color="#A5251E"/>
            <stop offset="0.04" stop-color="#AB261F"/>
            <stop offset="0.3" stop-color="#CA2D25"/>
            <stop offset="0.55" stop-color="#E03229"/>
            <stop offset="0.79" stop-color="#ED352B"/>
            <stop offset="1" stop-color="#F2362C"/>
        </linearGradient>
        <linearGradient id="paint32_linear_2_3174" x1="667.169" y1="196.067" x2="714.07" y2="196.067"
                        gradientUnits="userSpaceOnUse">
            <stop stop-color="#A5251E"/>
            <stop offset="0.04" stop-color="#AB261F"/>
            <stop offset="0.3" stop-color="#CA2D25"/>
            <stop offset="0.55" stop-color="#E03229"/>
            <stop offset="0.79" stop-color="#ED352B"/>
            <stop offset="1" stop-color="#F2362C"/>
        </linearGradient>
        <linearGradient id="paint33_linear_2_3174" x1="667.169" y1="184.313" x2="714.07" y2="184.313"
                        gradientUnits="userSpaceOnUse">
            <stop stop-color="#A5251E"/>
            <stop offset="0.04" stop-color="#AB261F"/>
            <stop offset="0.3" stop-color="#CA2D25"/>
            <stop offset="0.55" stop-color="#E03229"/>
            <stop offset="0.79" stop-color="#ED352B"/>
            <stop offset="1" stop-color="#F2362C"/>
        </linearGradient>
        <linearGradient id="paint34_linear_2_3174" x1="667.169" y1="172.755" x2="714.07" y2="172.755"
                        gradientUnits="userSpaceOnUse">
            <stop stop-color="#A5251E"/>
            <stop offset="0.04" stop-color="#AB261F"/>
            <stop offset="0.3" stop-color="#CA2D25"/>
            <stop offset="0.55" stop-color="#E03229"/>
            <stop offset="0.79" stop-color="#ED352B"/>
            <stop offset="1" stop-color="#F2362C"/>
        </linearGradient>
        <linearGradient id="paint35_linear_2_3174" x1="667.169" y1="160.818" x2="714.07" y2="160.818"
                        gradientUnits="userSpaceOnUse">
            <stop stop-color="#A5251E"/>
            <stop offset="0.04" stop-color="#AB261F"/>
            <stop offset="0.3" stop-color="#CA2D25"/>
            <stop offset="0.55" stop-color="#E03229"/>
            <stop offset="0.79" stop-color="#ED352B"/>
            <stop offset="1" stop-color="#F2362C"/>
        </linearGradient>
        <clipPath id="clip0_2_3174">
            <rect width="17" height="18" fill="white" transform="translate(0.239746 0.0688477)"/>
        </clipPath>
    </defs>
</svg>
