<svg width="24" height="24" viewBox="0 0 24 24" fill="none" xmlns="http://www.w3.org/2000/svg">
    <path fill-rule="evenodd" clip-rule="evenodd"
          d="M4.59989 16.849C6.09863 19.461 8.47087 21.0086 11.3029 21.9747C11.4316 22.0194 11.6063 22.0015 11.735 21.9478C11.8061 21.9192 11.8774 21.8905 11.9489 21.8618C12.5244 21.6306 13.1097 21.3954 13.6659 21.1249C17.0772 19.4521 19.008 16.7238 19.6609 13.101C20.0287 11.0704 20.0287 9.01304 19.9735 6.95565C19.9717 6.89645 19.9702 6.83726 19.969 6.77802C19.9625 6.44655 19.9659 6.11367 19.9693 5.77148C19.9707 5.62886 19.9722 5.48462 19.973 5.33819C19.9733 5.27251 19.9735 5.20638 19.9735 5.13977C16.7002 5.13082 13.813 4.26314 11.4684 2C9.1145 4.28103 6.23655 5.13082 3.03678 5.14871C3.03147 5.17456 3.02615 5.19742 3.02128 5.21837C3.0093 5.26993 3 5.30993 3 5.35445C3.01072 6.00128 3.01598 6.6481 3.02123 7.2947C3.03398 8.86575 3.04673 10.4355 3.13792 12.0007C3.23906 13.7093 3.73558 15.3552 4.59989 16.849ZM5.01938 7.03469C5.0202 7.13398 5.021 7.23301 5.0218 7.33181C5.03433 8.88033 5.04639 10.371 5.13448 11.8834C5.21715 13.2776 5.62146 14.6211 6.33102 15.8475L6.33461 15.8537L6.3346 15.8537C7.44057 17.7811 9.16887 19.0428 11.4548 19.9047C11.9362 19.7104 12.3724 19.5298 12.7881 19.3278C15.5964 17.9498 17.1466 15.776 17.6926 12.7463L17.6929 12.7445C18.0202 10.9375 18.0289 9.06315 17.9748 7.03044C15.6437 6.77215 13.4369 6.03611 11.4712 4.60843C9.50655 6.04205 7.31249 6.77354 5.01938 7.03469Z"
          fill="#DAD8DC"/>
</svg>
