<svg width="16" height="16" viewBox="2 2 19 21" fill="none" xmlns="http://www.w3.org/2000/svg">
    <path fill-rule="evenodd" clip-rule="evenodd"
          d="M11.4684 2C9.1145 4.28103 6.23655 5.13082 3.03678 5.14871C3.03147 5.17456 3.02615 5.19742 3.02128 5.21837C3.0093 5.26993 3 5.30993 3 5.35445C3.01072 6.00128 3.01598 6.6481 3.02123 7.2947C3.03398 8.86575 3.04673 10.4355 3.13792 12.0007C3.23906 13.7093 3.73558 15.3552 4.59989 16.849C6.09863 19.461 8.47087 21.0086 11.3029 21.9747C11.4316 22.0194 11.6063 22.0015 11.735 21.9478C11.8061 21.9192 11.8774 21.8905 11.9489 21.8618C12.5244 21.6306 13.1097 21.3954 13.6659 21.1249C17.0772 19.4521 19.008 16.7238 19.6609 13.101C20.0287 11.0704 20.0287 9.01304 19.9735 6.95565C19.9613 6.56524 19.9653 6.17483 19.9693 5.77148C19.9714 5.56489 19.9735 5.35489 19.9735 5.13977C16.7002 5.13082 13.813 4.26314 11.4684 2ZM9.2002 8H7.11426V16H8.75488V10.7734H8.82129L10.8916 15.9609H12.0088L14.0791 10.793H14.1455V16H15.7861V8H13.7002L11.4971 13.375H11.4033L9.2002 8Z"
          fill="#F9AE4D"/>
</svg>
