<svg width="64" height="64" viewBox="0 0 64 64" fill="none" xmlns="http://www.w3.org/2000/svg">
<path d="M53.7528 61.375H24.7481C22.8707 61.3532 21.0789 60.5866 19.7666 59.2438C18.4543 57.9011 17.7291 56.0921 17.7505 54.2147V46.5354C17.7291 44.658 18.4543 42.849 19.7666 41.5062C21.0789 40.1634 22.8707 39.3968 24.7481 39.375H53.7528C55.6302 39.3968 57.4221 40.1635 58.7343 41.5062C60.0466 42.849 60.7718 44.658 60.7505 46.5354V54.2147C60.7718 56.0921 60.0466 57.9011 58.7343 59.2438C57.4221 60.5866 55.6302 61.3532 53.7528 61.375Z" fill="#8F38E6"/>
<path d="M32.0387 52.3132V52.2844C32.0387 51.6126 31.8713 51.0895 31.5364 50.7152C31.2016 50.3313 30.7424 50.029 30.1588 49.8083C30.3405 49.7123 30.508 49.5971 30.661 49.4628C30.8237 49.3284 30.9624 49.1749 31.0772 49.0021C31.2016 48.8198 31.2973 48.6182 31.3642 48.3975C31.4408 48.1767 31.479 47.9224 31.479 47.6345V47.6057C31.479 46.8091 31.1825 46.1757 30.5893 45.7054C30.0057 45.2351 29.1973 45 28.164 45H23.5V55.0772H28.2788C28.8433 55.0772 29.3551 55.0197 29.8143 54.9045C30.2831 54.7893 30.6802 54.6166 31.0055 54.3862C31.3403 54.1559 31.5938 53.868 31.7661 53.5225C31.9478 53.177 32.0387 52.7739 32.0387 52.3132ZM29.2834 48.0088C29.2834 48.3831 29.1399 48.6566 28.8528 48.8294C28.5658 48.9925 28.1784 49.0741 27.6904 49.0741H25.6526V46.9435H27.8339C28.3027 46.9435 28.6615 47.0346 28.9102 47.217C29.159 47.3897 29.2834 47.6441 29.2834 47.98V48.0088ZM29.8431 52.0397C29.8431 52.414 29.7043 52.6923 29.4269 52.8746C29.1494 53.0474 28.7667 53.1338 28.2788 53.1338H25.6526V50.9168H28.2071C28.7811 50.9168 29.1973 51.0176 29.4556 51.2191C29.7139 51.411 29.8431 51.675 29.8431 52.0109V52.0397Z" fill="white" fill-opacity="0.86"/>
<path d="M40.8025 51.435V51.4063C40.8025 50.8592 40.7259 50.3361 40.5728 49.8371C40.4293 49.3284 40.1997 48.8821 39.884 48.4982C39.5779 48.1048 39.1904 47.7928 38.7216 47.5625C38.2528 47.3322 37.6979 47.217 37.0569 47.217C36.4924 47.217 35.9758 47.3226 35.507 47.5337C35.0478 47.7449 34.6508 48.0328 34.3159 48.3975C33.981 48.7622 33.718 49.1893 33.5266 49.6787C33.3448 50.1682 33.2539 50.6864 33.2539 51.2335V51.2623C33.2539 51.8573 33.3544 52.3996 33.5553 52.889C33.7562 53.3689 34.0337 53.7864 34.3877 54.1415C34.7512 54.4966 35.1769 54.7701 35.6649 54.9621C36.1624 55.154 36.6981 55.25 37.2722 55.25C37.9706 55.25 38.5781 55.1252 39.0947 54.8757C39.6113 54.6166 40.0514 54.2615 40.415 53.8104L39.1665 52.7019C38.8603 52.9802 38.5637 53.1818 38.2767 53.3065C37.9897 53.4313 37.6644 53.4937 37.3009 53.4937C36.8129 53.4937 36.4016 53.3689 36.0667 53.1194C35.7414 52.8603 35.5262 52.4812 35.4209 51.9821H40.7738C40.7833 51.8765 40.7881 51.7853 40.7881 51.7086C40.7977 51.6318 40.8025 51.5406 40.8025 51.435ZM38.6785 50.6145H35.3922C35.4783 50.1154 35.6601 49.7171 35.9375 49.4196C36.2246 49.1221 36.5977 48.9733 37.0569 48.9733C37.5161 48.9733 37.8845 49.1269 38.1619 49.434C38.4394 49.7315 38.6116 50.125 38.6785 50.6145Z" fill="white" fill-opacity="0.86"/>
<path d="M46.7477 54.7605V53.0042C46.4129 53.1866 46.0541 53.2777 45.6714 53.2777C45.2026 53.2777 44.9682 53.0282 44.9682 52.5291V49.2324H46.7764V47.361H44.9682V45.3887H42.7869V47.361H41.8685V49.2324H42.7869V52.889C42.7869 53.3401 42.8395 53.7144 42.9448 54.0119C43.0596 54.2999 43.2126 54.535 43.404 54.7173C43.6049 54.8997 43.8393 55.0245 44.1072 55.0916C44.3846 55.1684 44.6908 55.2068 45.0256 55.2068C45.3892 55.2068 45.7097 55.1636 45.9871 55.0772C46.2646 55.0005 46.5181 54.8949 46.7477 54.7605Z" fill="white" fill-opacity="0.86"/>
<path d="M55 55.0772V50.6001C55 49.554 54.7273 48.7382 54.182 48.1527C53.6367 47.5673 52.7661 47.2746 51.5702 47.2746C50.9196 47.2746 50.3647 47.3322 49.9055 47.4473C49.4462 47.5625 49.0061 47.7113 48.5852 47.8936L49.1305 49.5636C49.4845 49.4292 49.8194 49.3284 50.1351 49.2612C50.4604 49.1845 50.8335 49.1461 51.2544 49.1461C51.7998 49.1461 52.2112 49.266 52.4886 49.506C52.7661 49.7459 52.9048 50.0962 52.9048 50.5569V50.6864C52.6273 50.5905 52.3403 50.5137 52.0437 50.4561C51.7567 50.3985 51.4171 50.3697 51.0248 50.3697C50.5656 50.3697 50.1446 50.4225 49.762 50.5281C49.3888 50.6241 49.0635 50.7728 48.7861 50.9744C48.5182 51.1759 48.3077 51.4302 48.1547 51.7374C48.0016 52.0445 47.9251 52.4092 47.9251 52.8315V52.8603C47.9251 53.2441 47.992 53.5849 48.126 53.8824C48.2695 54.1703 48.4608 54.415 48.7 54.6166C48.9392 54.8181 49.2166 54.9717 49.5323 55.0772C49.8576 55.1732 50.202 55.2212 50.5656 55.2212C51.1014 55.2212 51.5558 55.1348 51.9289 54.9621C52.302 54.7797 52.6225 54.5398 52.8904 54.2423V55.0772H55ZM52.9335 52.3564C52.9335 52.7595 52.7756 53.0858 52.4599 53.3353C52.1537 53.5849 51.7424 53.7096 51.2257 53.7096C50.8717 53.7096 50.5847 53.628 50.3647 53.4649C50.1446 53.3017 50.0346 53.0714 50.0346 52.7739V52.7451C50.0346 52.3996 50.1686 52.1357 50.4364 51.9533C50.7043 51.771 51.0727 51.6798 51.5414 51.6798C51.8093 51.6798 52.0581 51.7086 52.2877 51.7662C52.5269 51.8141 52.7421 51.8813 52.9335 51.9677V52.3564Z" fill="white" fill-opacity="0.86"/>
</svg>
