<svg width="70" height="70" viewBox="0 0 70 70" fill="none" xmlns="http://www.w3.org/2000/svg">
<path d="M66.2 51.9L67.2 24L49.4001 20L34.3 30.1L41.4001 50.8L66.2 51.9Z" fill="url(#paint0_linear)"/>
<path d="M66.1999 51.9L67.1999 24L62.2 37L66.1999 51.9Z" fill="url(#paint1_linear)"/>
<path d="M62.2 36.9998L67.2 23.9998L49.7 16.2998L30 34.4998L62.2 36.9998Z" fill="url(#paint2_linear)"/>
<path d="M62.2 36.9998L67.2 23.9998L49.7 16.2998L30 34.4998L62.2 36.9998Z" fill="url(#paint3_linear)"/>
<path d="M47.2 37.9998L49.7 16.2998L30 34.4998L47.2 37.9998Z" fill="url(#paint4_linear)"/>
<path d="M44 67.2002L66.2 51.9002L12.8 28.2002L2.80005 56.8002L44 67.2002Z" fill="url(#paint5_linear)"/>
<path d="M31.4 41.5002L12.8 28.2002L2.80005 56.8002L31.4 41.5002Z" fill="url(#paint6_linear)"/>
<path d="M66.2 51.9L44 67.2L62.2 37L66.2 51.9Z" fill="url(#paint7_linear)"/>
<path d="M66.2 51.8994L44 67.1994L55.9 47.3994L66.2 51.8994Z" fill="url(#paint8_linear)"/>
<path d="M2.80005 27.3998L38.3 54.4998L62.2001 36.9998L35 6.7998L11.4 2.7998L2.80005 27.3998Z" fill="url(#paint9_linear)"/>
<path d="M28.3 46.7994L38.3 54.4994L62.2001 36.9994L38 27.3994L28.3 46.7994Z" fill="url(#paint10_linear)"/>
<path d="M48 31.2994L38 27.3994L41.1 35.4994L47.5 35.9994L48 31.2994Z" fill="url(#paint11_linear)"/>
<path d="M47.5 35.9998L62.2 36.9998L48 31.2998L47.5 35.9998Z" fill="url(#paint12_linear)"/>
<path d="M48 31.2994L38 27.3994L46.5 42.8994L48 31.2994Z" fill="url(#paint13_linear)"/>
<path d="M2.80005 27.3998L38.3 54.4998L20.7001 22.2998L2.80005 27.3998Z" fill="url(#paint14_linear)"/>
<path d="M10.9001 33.6002L38.3001 54.5002L27.5001 34.8002L12.8001 28.2002L10.9001 33.6002Z" fill="url(#paint15_linear)"/>
<path d="M62.2001 37L38.3 54.5L45 65.9L62.2001 37Z" fill="url(#paint16_linear)"/>
<path d="M28.3 46.8002L38.3 54.5002L31.1 41.2002L28.3 46.8002Z" fill="url(#paint17_linear)"/>
<path d="M2.80005 27.3998L20.7001 22.2998L35 6.7998L11.4 2.7998L2.80005 27.3998Z" fill="url(#paint18_linear)"/>
<path d="M35.0001 6.7998L26.1001 16.4998L38.0001 27.3998L62.2001 36.9998L35.0001 6.7998Z" fill="url(#paint19_linear)"/>
<path d="M37.9001 27.2994L38.0001 27.3994L48.0001 31.2994L49.0001 22.2994L46.4001 19.3994L37.9001 27.2994Z" fill="url(#paint20_linear)"/>
<path d="M35.0001 6.7998L11.4001 2.7998L26.1001 16.4998L35.0001 6.7998Z" fill="url(#paint21_linear)"/>
<path d="M2.80005 27.3998L20.7001 22.2998L35 6.7998L11.4 2.7998L2.80005 27.3998Z" fill="url(#paint22_linear)"/>
<path d="M55 15H15V55H55V15Z" fill="url(#paint23_linear)"/>
<g opacity="0.3">
<path opacity="0.3" d="M55 42.1002L15 29.2002V55.0002H55V42.1002Z" fill="url(#paint24_linear)"/>
<path opacity="0.3" d="M15 50.3002L31.4 41.5002L15 29.7002V50.3002Z" fill="url(#paint25_linear)"/>
<path opacity="0.3" d="M55 18.8004L49.6 16.4004L30 34.5004L55 36.4004V18.8004Z" fill="url(#paint26_linear)"/>
<path opacity="0.3" d="M42.3 15H27.6L20.8 22.4L38.3 54.3L55 42.1V29.1L42.3 15Z" fill="url(#paint27_linear)"/>
<path opacity="0.3" d="M15 36.6004L38.3 54.3004L20.8 22.4004L15 24.1004V36.6004Z" fill="url(#paint28_linear)"/>
<path opacity="0.3" d="M20.8 22.4L27.6 15H15V24.1L20.8 22.4Z" fill="url(#paint29_linear)"/>
</g>
<path d="M35 47.4004H20V49.9004H35V47.4004Z" fill="white"/>
<path d="M35 47.4004H20V49.9004H35V47.4004Z" fill="white"/>
<path d="M20 20H26.1C29.7 20 31.8 22.1 31.8 25.2C31.8 28.7 29.1 30.5 25.7 30.5H23.3V35H20V20ZM25.9 27.6C27.5 27.6 28.5 26.6 28.5 25.3C28.5 23.8 27.5 23 25.8 23H23.3V27.6H25.9Z" fill="white"/>
<path d="M32 32.9647L34.0863 30.6549C34.9556 31.5987 35.7752 32.1451 36.8183 32.1451C38.0601 32.1451 38.8301 31.4 38.8301 29.6614V20H42.2327V29.8105C42.2327 31.5987 41.7111 32.915 40.817 33.8092C39.898 34.7281 38.5569 35.2 36.9176 35.2C34.583 35.2 33.0431 34.1817 32 32.9647Z" fill="white"/>
<defs>
<linearGradient id="paint0_linear" x1="57.7979" y1="47.5729" x2="48.4676" y2="20.6186" gradientUnits="userSpaceOnUse">
<stop offset="0.000825369" stop-color="#FF318C"/>
<stop offset="1" stop-color="#FE6C54"/>
</linearGradient>
<linearGradient id="paint1_linear" x1="75.1308" y1="36.86" x2="52.6938" y2="39.8049" gradientUnits="userSpaceOnUse">
<stop offset="0.3305" stop-color="#FF318C"/>
<stop offset="0.9422" stop-color="#B045ED"/>
</linearGradient>
<linearGradient id="paint2_linear" x1="59.9697" y1="18.1541" x2="49.762" y2="31.1179" gradientUnits="userSpaceOnUse">
<stop stop-color="#FF546A"/>
<stop offset="0.7814" stop-color="#FE764A"/>
</linearGradient>
<linearGradient id="paint3_linear" x1="70.5439" y1="25.5965" x2="53.015" y2="26.8585" gradientUnits="userSpaceOnUse">
<stop offset="0.1065" stop-color="#FCBCC3" stop-opacity="0.96"/>
<stop offset="0.7261" stop-color="#FF4694" stop-opacity="0.1407"/>
<stop offset="0.8325" stop-color="#FF318C" stop-opacity="0"/>
</linearGradient>
<linearGradient id="paint4_linear" x1="52.6293" y1="18.4686" x2="43.9771" y2="29.457" gradientUnits="userSpaceOnUse">
<stop offset="0.016776" stop-color="#61316F" stop-opacity="0"/>
<stop offset="0.8106" stop-color="#6B57FF"/>
</linearGradient>
<linearGradient id="paint5_linear" x1="56.8361" y1="60.2168" x2="9.84845" y2="43.2625" gradientUnits="userSpaceOnUse">
<stop offset="0.016776" stop-color="#FF318C"/>
<stop offset="0.8106" stop-color="#6B57FF"/>
</linearGradient>
<linearGradient id="paint6_linear" x1="20.8641" y1="62.3182" x2="13.2917" y2="35.9547" gradientUnits="userSpaceOnUse">
<stop offset="0.016776" stop-color="#61316F"/>
<stop offset="0.8106" stop-color="#6B57FF"/>
</linearGradient>
<linearGradient id="paint7_linear" x1="64.4051" y1="59.3916" x2="41.3522" y2="44.4685" gradientUnits="userSpaceOnUse">
<stop offset="0.1555" stop-color="#FF318C"/>
<stop offset="1" stop-color="#6B57FF"/>
</linearGradient>
<linearGradient id="paint8_linear" x1="56.6735" y1="45.5388" x2="55.5143" y2="55.8062" gradientUnits="userSpaceOnUse">
<stop offset="0.0655781" stop-color="#762784"/>
<stop offset="0.8106" stop-color="#FF318C" stop-opacity="0"/>
</linearGradient>
<linearGradient id="paint9_linear" x1="21.034" y1="47.7332" x2="41.0172" y2="12.4381" gradientUnits="userSpaceOnUse">
<stop offset="0.3305" stop-color="#FF318C"/>
<stop offset="0.9422" stop-color="#FDB60D"/>
</linearGradient>
<linearGradient id="paint10_linear" x1="36.8012" y1="55.6808" x2="50.3427" y2="31.7633" gradientUnits="userSpaceOnUse">
<stop offset="0.3305" stop-color="#FF318C"/>
<stop offset="0.9422" stop-color="#FDB60D"/>
</linearGradient>
<linearGradient id="paint11_linear" x1="54.0523" y1="28.8942" x2="40.8706" y2="32.1195" gradientUnits="userSpaceOnUse">
<stop stop-color="#FF318C"/>
<stop offset="1" stop-color="#FDB60D" stop-opacity="0"/>
</linearGradient>
<linearGradient id="paint12_linear" x1="44.9337" y1="30.9882" x2="61.8515" y2="40.3282" gradientUnits="userSpaceOnUse">
<stop stop-color="#FF318C"/>
<stop offset="0.9422" stop-color="#FDB60D" stop-opacity="0"/>
</linearGradient>
<linearGradient id="paint13_linear" x1="54.8326" y1="32.083" x2="41.6508" y2="35.3083" gradientUnits="userSpaceOnUse">
<stop offset="0.3296" stop-color="#FF318C"/>
<stop offset="1" stop-color="#FDB60D" stop-opacity="0"/>
</linearGradient>
<linearGradient id="paint14_linear" x1="18.4278" y1="44.6908" x2="28.103" y2="27.6021" gradientUnits="userSpaceOnUse">
<stop offset="0.3305" stop-color="#FF318C"/>
<stop offset="0.9422" stop-color="#FDB60D"/>
</linearGradient>
<linearGradient id="paint15_linear" x1="7.93945" y1="47.1655" x2="31.358" y2="39.4528" gradientUnits="userSpaceOnUse">
<stop offset="0.3313" stop-color="#FF318C" stop-opacity="0"/>
<stop offset="0.9422" stop-color="#B045ED"/>
</linearGradient>
<linearGradient id="paint16_linear" x1="46.7649" y1="42.2629" x2="55.2553" y2="53.6643" gradientUnits="userSpaceOnUse">
<stop offset="0.036877" stop-color="#FDB60D"/>
<stop offset="0.9422" stop-color="#FF318C" stop-opacity="0"/>
</linearGradient>
<linearGradient id="paint17_linear" x1="32.4563" y1="51.7693" x2="36.4436" y2="44.7267" gradientUnits="userSpaceOnUse">
<stop offset="0.3305" stop-color="#FF318C"/>
<stop offset="0.9422" stop-color="#B045ED"/>
</linearGradient>
<linearGradient id="paint18_linear" x1="11.3017" y1="29.954" x2="22.2398" y2="6.8158" gradientUnits="userSpaceOnUse">
<stop offset="0.0839659" stop-color="#FF318C"/>
<stop offset="0.8747" stop-color="#FDB60D"/>
<stop offset="0.9935" stop-color="#FDCE0D"/>
</linearGradient>
<linearGradient id="paint19_linear" x1="32.1447" y1="38.3825" x2="46.0276" y2="24.4996" gradientUnits="userSpaceOnUse">
<stop offset="0.3305" stop-color="#FF318C"/>
<stop offset="0.9422" stop-color="#FDB60D"/>
</linearGradient>
<linearGradient id="paint20_linear" x1="52.3966" y1="43.2372" x2="43.0011" y2="23.8853" gradientUnits="userSpaceOnUse">
<stop offset="0.3305" stop-color="#FF318C"/>
<stop offset="0.9422" stop-color="#FDB60D"/>
</linearGradient>
<linearGradient id="paint21_linear" x1="19.1961" y1="19.1891" x2="23.403" y2="4.0441" gradientUnits="userSpaceOnUse">
<stop offset="0.0839659" stop-color="#FF318C"/>
<stop offset="0.6835" stop-color="#FDB60D"/>
<stop offset="1" stop-color="#FDCE0D"/>
</linearGradient>
<linearGradient id="paint22_linear" x1="40.7346" y1="14.3611" x2="15.4929" y2="14.922" gradientUnits="userSpaceOnUse">
<stop stop-color="#FCF84A" stop-opacity="0.96"/>
<stop offset="1" stop-color="#FCF84A" stop-opacity="0"/>
</linearGradient>
<linearGradient id="paint23_linear" x1="15.0589" y1="15.0589" x2="50.9677" y2="50.9677" gradientUnits="userSpaceOnUse">
<stop stop-color="#7D2C38"/>
<stop offset="0.0123355" stop-color="#792B36"/>
<stop offset="0.1641" stop-color="#4E1B23"/>
<stop offset="0.311" stop-color="#2C1014"/>
<stop offset="0.4501" stop-color="#140709"/>
<stop offset="0.578" stop-color="#050202"/>
<stop offset="0.6844"/>
</linearGradient>
<linearGradient id="paint24_linear" x1="34.2895" y1="57.7265" x2="35.6609" y2="27.5551" gradientUnits="userSpaceOnUse">
<stop offset="0.016776" stop-color="#642652"/>
<stop offset="0.8106" stop-color="#6B57FF"/>
</linearGradient>
<linearGradient id="paint25_linear" x1="26.0063" y1="55.6513" x2="19.9548" y2="34.583" gradientUnits="userSpaceOnUse">
<stop offset="0.016776" stop-color="#61316F"/>
<stop offset="0.8106" stop-color="#6B57FF"/>
</linearGradient>
<linearGradient id="paint26_linear" x1="55.4651" y1="19.0211" x2="46.3893" y2="30.5474" gradientUnits="userSpaceOnUse">
<stop stop-color="#FF546A"/>
<stop offset="0.7814" stop-color="#7D321B"/>
</linearGradient>
<linearGradient id="paint27_linear" x1="39.3289" y1="49.562" x2="36.9289" y2="9.4478" gradientUnits="userSpaceOnUse">
<stop offset="0.0889086" stop-color="#6C2259"/>
<stop offset="0.9422" stop-color="#FDB60D"/>
</linearGradient>
<linearGradient id="paint28_linear" x1="22.3441" y1="46.7903" x2="31.9592" y2="29.8078" gradientUnits="userSpaceOnUse">
<stop offset="0.3305" stop-color="#6D084A"/>
<stop offset="0.9422" stop-color="#FDB60D"/>
</linearGradient>
<linearGradient id="paint29_linear" x1="26.0651" y1="19.9997" x2="8.7508" y2="18.2855" gradientUnits="userSpaceOnUse">
<stop stop-color="#FDB60D" stop-opacity="0.96"/>
<stop offset="0.8913" stop-color="#FF407E" stop-opacity="0.1044"/>
<stop offset="1" stop-color="#FF318C" stop-opacity="0"/>
</linearGradient>
</defs>
</svg>
