<svg width="80" height="80" viewBox="0 0 80 80" fill="none" xmlns="http://www.w3.org/2000/svg">
<path d="M76.8001 59.5002L78 27.4002L57.6 22.7002L40.3 34.4002L48.3 58.2002L76.8001 59.5002Z" fill="url(#paint0_linear)"/>
<path d="M76.8 59.5004L78 27.4004L72.3 42.3004L76.8 59.5004Z" fill="url(#paint1_linear)"/>
<path d="M72.3 42.3L78 27.4L57.9 18.5L35.2 39.5L72.3 42.3Z" fill="url(#paint2_linear)"/>
<path d="M72.3 42.3L78 27.4L57.9 18.5L35.2 39.5L72.3 42.3Z" fill="url(#paint3_linear)"/>
<path d="M55 43.5L57.9 18.5L35.2 39.5L55 43.5Z" fill="url(#paint4_linear)"/>
<path d="M51.3 77.0002L76.8 59.5002L15.5 32.2002L4 65.1002L51.3 77.0002Z" fill="url(#paint5_linear)"/>
<path d="M36.8 47.5002L15.5 32.2002L4 65.1002L36.8 47.5002Z" fill="url(#paint6_linear)"/>
<path d="M76.8001 59.4998L51.3 76.9998L72.3001 42.2998L76.8001 59.4998Z" fill="url(#paint7_linear)"/>
<path d="M76.8001 59.4998L51.3 76.9998L65.1 54.2998L76.8001 59.4998Z" fill="url(#paint8_linear)"/>
<path d="M4 31.3L44.8 62.4L72.3 42.3L41 7.6L13.8 3L4 31.3Z" fill="url(#paint9_linear)"/>
<path d="M33.3 53.6002L44.8 62.4002L72.3001 42.3002L44.4001 31.2002L33.3 53.6002Z" fill="url(#paint10_linear)"/>
<path d="M55.8999 35.8002L44.3999 31.2002L47.9999 40.6002L55.2999 41.1002L55.8999 35.8002Z" fill="url(#paint11_linear)"/>
<path d="M55.3 41.0998L72.3001 42.2998L55.9001 35.7998L55.3 41.0998Z" fill="url(#paint12_linear)"/>
<path d="M55.8999 35.8002L44.3999 31.2002L54.1999 49.1002L55.8999 35.8002Z" fill="url(#paint13_linear)"/>
<path d="M4 31.3004L44.8 62.4004L24.6 25.4004L4 31.3004Z" fill="url(#paint14_linear)"/>
<path d="M13.3999 38.4002L44.7999 62.4002L32.3999 39.7002L15.4999 32.2002L13.3999 38.4002Z" fill="url(#paint15_linear)"/>
<path d="M72.3001 42.2998L44.8 62.3998L52.5 75.5998L72.3001 42.2998Z" fill="url(#paint16_linear)"/>
<path d="M33.3 53.6002L44.8 62.4002L36.5 47.2002L33.3 53.6002Z" fill="url(#paint17_linear)"/>
<path d="M4 31.3L24.6 25.4L41 7.6L13.8 3L4 31.3Z" fill="url(#paint18_linear)"/>
<path d="M41 7.59961L30.8 18.6996L44.4001 31.1996L72.3001 42.2996L41 7.59961Z" fill="url(#paint19_linear)"/>
<path d="M44.3 31.0996L44.4001 31.1996L55.9001 35.7996L57.1 25.3996L54.1 22.0996L44.3 31.0996Z" fill="url(#paint20_linear)"/>
<path d="M41 7.6L13.8 3L30.8 18.7L41 7.6Z" fill="url(#paint21_linear)"/>
<path d="M4 31.3L24.6 25.4L41 7.6L13.8 3L4 31.3Z" fill="url(#paint22_linear)"/>
<path d="M63 17H17V63H63V17Z" fill="url(#paint23_linear)"/>
<g opacity="0.3">
<path opacity="0.3" d="M63 48.0998L17 33.2998V62.9998H63V48.0998Z" fill="url(#paint24_linear)"/>
<path opacity="0.3" d="M17 57.6L35.9 47.5L17 34V57.6Z" fill="url(#paint25_linear)"/>
<path opacity="0.3" d="M63 21.3996L56.8 18.5996L34.3 39.4996L63 41.5996V21.3996Z" fill="url(#paint26_linear)"/>
<path opacity="0.3" d="M48.4 17H31.5L23.7 25.5L43.7999 62.3L63 48.2V33.2L48.4 17Z" fill="url(#paint27_linear)"/>
<path opacity="0.3" d="M17 41.9L43.8 62.3L23.7 25.5L17 27.4V41.9Z" fill="url(#paint28_linear)"/>
<path opacity="0.3" d="M23.7 25.5L31.5 17H17V27.4L23.7 25.5Z" fill="url(#paint29_linear)"/>
</g>
<path d="M39.9 54.2998H22.7V57.1998H39.9V54.2998Z" fill="white"/>
<path d="M40 54.2998H22.8V57.1998H40V54.2998Z" fill="white"/>
<path d="M22.9001 22.7998H29.9001C34.0001 22.7998 36.5001 25.1998 36.5001 28.7998C36.5001 32.7998 33.4001 34.8998 29.5001 34.8998H26.7001V39.9998H22.9001V22.7998ZM29.7001 31.4998C31.6001 31.4998 32.7001 30.2998 32.7001 28.7998C32.7001 27.0998 31.5001 26.1998 29.6001 26.1998H26.7001V31.4998H29.7001Z" fill="white"/>
<path d="M36 37.641L38.3882 34.9969C39.3833 36.0773 40.3216 36.7027 41.5157 36.7027C42.9373 36.7027 43.8186 35.8498 43.8186 33.8596V22.7998H47.7137V34.0302C47.7137 36.0773 47.1167 37.5841 46.0931 38.6076C45.0412 39.6596 43.5059 40.1998 41.6294 40.1998C38.9569 40.1998 37.1941 39.0341 36 37.641Z" fill="white"/>
<defs>
<linearGradient id="paint0_linear" x1="67.1963" y1="54.4473" x2="56.4751" y2="23.475" gradientUnits="userSpaceOnUse">
<stop offset="0.000825369" stop-color="#FF318C"/>
<stop offset="1" stop-color="#FE6C54"/>
</linearGradient>
<linearGradient id="paint1_linear" x1="87.1131" y1="42.1377" x2="61.3315" y2="45.5216" gradientUnits="userSpaceOnUse">
<stop offset="0.3305" stop-color="#FF318C"/>
<stop offset="0.9422" stop-color="#B045ED"/>
</linearGradient>
<linearGradient id="paint2_linear" x1="69.6919" y1="20.6431" x2="57.9625" y2="35.5395" gradientUnits="userSpaceOnUse">
<stop stop-color="#FF546A"/>
<stop offset="0.7814" stop-color="#FE764A"/>
</linearGradient>
<linearGradient id="paint3_linear" x1="81.8424" y1="29.1949" x2="61.7004" y2="30.6451" gradientUnits="userSpaceOnUse">
<stop offset="0.1065" stop-color="#FCBCC3" stop-opacity="0.96"/>
<stop offset="0.7261" stop-color="#FF4694" stop-opacity="0.1407"/>
<stop offset="0.8325" stop-color="#FF318C" stop-opacity="0"/>
</linearGradient>
<linearGradient id="paint4_linear" x1="61.2573" y1="21.0046" x2="51.3153" y2="33.631" gradientUnits="userSpaceOnUse">
<stop offset="0.016776" stop-color="#61316F" stop-opacity="0"/>
<stop offset="0.8106" stop-color="#6B57FF"/>
</linearGradient>
<linearGradient id="paint5_linear" x1="66.0912" y1="68.9758" x2="12.0991" y2="49.4941" gradientUnits="userSpaceOnUse">
<stop offset="0.016776" stop-color="#FF318C"/>
<stop offset="0.8106" stop-color="#6B57FF"/>
</linearGradient>
<linearGradient id="paint6_linear" x1="24.7569" y1="71.3905" x2="16.0555" y2="41.097" gradientUnits="userSpaceOnUse">
<stop offset="0.016776" stop-color="#61316F"/>
<stop offset="0.8106" stop-color="#6B57FF"/>
</linearGradient>
<linearGradient id="paint7_linear" x1="74.7885" y1="68.0274" x2="48.2991" y2="50.8797" gradientUnits="userSpaceOnUse">
<stop offset="0.1555" stop-color="#FF318C"/>
<stop offset="1" stop-color="#6B57FF"/>
</linearGradient>
<linearGradient id="paint8_linear" x1="65.9044" y1="52.1103" x2="64.5724" y2="63.9083" gradientUnits="userSpaceOnUse">
<stop offset="0.0655781" stop-color="#762784"/>
<stop offset="0.8106" stop-color="#FF318C" stop-opacity="0"/>
</linearGradient>
<linearGradient id="paint9_linear" x1="24.952" y1="54.6316" x2="47.9141" y2="14.0751" gradientUnits="userSpaceOnUse">
<stop offset="0.3305" stop-color="#FF318C"/>
<stop offset="0.9422" stop-color="#FDB60D"/>
</linearGradient>
<linearGradient id="paint10_linear" x1="43.0697" y1="63.7645" x2="58.6299" y2="36.2817" gradientUnits="userSpaceOnUse">
<stop offset="0.3305" stop-color="#FF318C"/>
<stop offset="0.9422" stop-color="#FDB60D"/>
</linearGradient>
<linearGradient id="paint11_linear" x1="62.8923" y1="32.9849" x2="47.7456" y2="36.691" gradientUnits="userSpaceOnUse">
<stop stop-color="#FF318C"/>
<stop offset="1" stop-color="#FDB60D" stop-opacity="0"/>
</linearGradient>
<linearGradient id="paint12_linear" x1="52.4145" y1="35.3902" x2="71.8544" y2="46.1225" gradientUnits="userSpaceOnUse">
<stop stop-color="#FF318C"/>
<stop offset="0.9422" stop-color="#FDB60D" stop-opacity="0"/>
</linearGradient>
<linearGradient id="paint13_linear" x1="63.7889" y1="36.649" x2="48.6422" y2="40.3551" gradientUnits="userSpaceOnUse">
<stop offset="0.3296" stop-color="#FF318C"/>
<stop offset="1" stop-color="#FDB60D" stop-opacity="0"/>
</linearGradient>
<linearGradient id="paint14_linear" x1="21.9574" y1="51.1361" x2="33.0749" y2="31.5" gradientUnits="userSpaceOnUse">
<stop offset="0.3305" stop-color="#FF318C"/>
<stop offset="0.9422" stop-color="#FDB60D"/>
</linearGradient>
<linearGradient id="paint15_linear" x1="9.9053" y1="53.979" x2="36.8149" y2="45.1166" gradientUnits="userSpaceOnUse">
<stop offset="0.3313" stop-color="#FF318C" stop-opacity="0"/>
<stop offset="0.9422" stop-color="#B045ED"/>
</linearGradient>
<linearGradient id="paint16_linear" x1="54.5188" y1="48.3453" x2="64.2748" y2="61.4463" gradientUnits="userSpaceOnUse">
<stop offset="0.036877" stop-color="#FDB60D"/>
<stop offset="0.9422" stop-color="#FF318C" stop-opacity="0"/>
</linearGradient>
<linearGradient id="paint17_linear" x1="38.0771" y1="59.269" x2="42.6588" y2="51.1767" gradientUnits="userSpaceOnUse">
<stop offset="0.3305" stop-color="#FF318C"/>
<stop offset="0.9422" stop-color="#B045ED"/>
</linearGradient>
<linearGradient id="paint18_linear" x1="13.7691" y1="34.202" x2="26.3376" y2="7.6146" gradientUnits="userSpaceOnUse">
<stop offset="0.0839659" stop-color="#FF318C"/>
<stop offset="0.8747" stop-color="#FDB60D"/>
<stop offset="0.9935" stop-color="#FDCE0D"/>
</linearGradient>
<linearGradient id="paint19_linear" x1="37.719" y1="43.8866" x2="53.6714" y2="27.9342" gradientUnits="userSpaceOnUse">
<stop offset="0.3305" stop-color="#FF318C"/>
<stop offset="0.9422" stop-color="#FDB60D"/>
</linearGradient>
<linearGradient id="paint20_linear" x1="60.9897" y1="49.4654" x2="50.1937" y2="27.2287" gradientUnits="userSpaceOnUse">
<stop offset="0.3305" stop-color="#FF318C"/>
<stop offset="0.9422" stop-color="#FDB60D"/>
</linearGradient>
<linearGradient id="paint21_linear" x1="22.8401" y1="21.8324" x2="27.6742" y2="4.4298" gradientUnits="userSpaceOnUse">
<stop offset="0.0839659" stop-color="#FF318C"/>
<stop offset="0.6835" stop-color="#FDB60D"/>
<stop offset="1" stop-color="#FDCE0D"/>
</linearGradient>
<linearGradient id="paint22_linear" x1="47.5893" y1="16.2847" x2="18.585" y2="16.9293" gradientUnits="userSpaceOnUse">
<stop stop-color="#FCF84A" stop-opacity="0.96"/>
<stop offset="1" stop-color="#FCF84A" stop-opacity="0"/>
</linearGradient>
<linearGradient id="paint23_linear" x1="17.0678" y1="17.0678" x2="58.3628" y2="58.3628" gradientUnits="userSpaceOnUse">
<stop stop-color="#7D2C38"/>
<stop offset="0.0123355" stop-color="#792B36"/>
<stop offset="0.1641" stop-color="#4E1B23"/>
<stop offset="0.311" stop-color="#2C1014"/>
<stop offset="0.4501" stop-color="#140709"/>
<stop offset="0.578" stop-color="#050202"/>
<stop offset="0.6844"/>
</linearGradient>
<linearGradient id="paint24_linear" x1="39.1829" y1="66.135" x2="40.7601" y2="31.4379" gradientUnits="userSpaceOnUse">
<stop offset="0.016776" stop-color="#642652"/>
<stop offset="0.8106" stop-color="#6B57FF"/>
</linearGradient>
<linearGradient id="paint25_linear" x1="29.6573" y1="63.7488" x2="22.698" y2="39.5203" gradientUnits="userSpaceOnUse">
<stop offset="0.016776" stop-color="#61316F"/>
<stop offset="0.8106" stop-color="#6B57FF"/>
</linearGradient>
<linearGradient id="paint26_linear" x1="63.5349" y1="21.6235" x2="53.0977" y2="34.8787" gradientUnits="userSpaceOnUse">
<stop stop-color="#FF546A"/>
<stop offset="0.7814" stop-color="#7D321B"/>
</linearGradient>
<linearGradient id="paint27_linear" x1="44.9782" y1="56.7463" x2="42.2182" y2="10.615" gradientUnits="userSpaceOnUse">
<stop offset="0.0889086" stop-color="#6C2259"/>
<stop offset="0.9422" stop-color="#FDB60D"/>
</linearGradient>
<linearGradient id="paint28_linear" x1="25.4458" y1="53.5584" x2="36.5031" y2="34.0285" gradientUnits="userSpaceOnUse">
<stop offset="0.3305" stop-color="#6D084A"/>
<stop offset="0.9422" stop-color="#FDB60D"/>
</linearGradient>
<linearGradient id="paint29_linear" x1="29.7248" y1="22.7497" x2="9.8135" y2="20.7783" gradientUnits="userSpaceOnUse">
<stop stop-color="#FDB60D" stop-opacity="0.96"/>
<stop offset="0.8913" stop-color="#FF407E" stop-opacity="0.1044"/>
<stop offset="1" stop-color="#FF318C" stop-opacity="0"/>
</linearGradient>
</defs>
</svg>
