<svg width="48" height="48" viewBox="0 0 48 48" fill="none" xmlns="http://www.w3.org/2000/svg">
<path d="M45.8 35.8L46.5 16.3L34.1 13.5L23.5 20.6L28.4 35.1L45.8 35.8Z" fill="url(#paint0_linear)"/>
<path d="M45.8 35.7998L46.5 16.2998L43 25.3998L45.8 35.7998Z" fill="url(#paint1_linear)"/>
<path d="M43 25.4004L46.5 16.3004L34.3 10.9004L20.5 23.7004L43 25.4004Z" fill="url(#paint2_linear)"/>
<path d="M43 25.4004L46.5 16.3004L34.3 10.9004L20.5 23.7004L43 25.4004Z" fill="url(#paint3_linear)"/>
<path d="M32.5 26.1004L34.3 10.9004L20.5 23.7004L32.5 26.1004Z" fill="url(#paint4_linear)"/>
<path d="M30.3 46.4998L45.8 35.7998L8.5 19.2998L1.5 39.1998L30.3 46.4998Z" fill="url(#paint5_linear)"/>
<path d="M21.5 28.5998L8.5 19.2998L1.5 39.1998L21.5 28.5998Z" fill="url(#paint6_linear)"/>
<path d="M45.8 35.8004L30.3 46.5004L43 25.4004L45.8 35.8004Z" fill="url(#paint7_linear)"/>
<path d="M45.8 35.8002L30.3 46.5002L38.6 32.7002L45.8 35.8002Z" fill="url(#paint8_linear)"/>
<path d="M1.5 18.7L26.3 37.6L43 25.4L24 4.3L7.5 1.5L1.5 18.7Z" fill="url(#paint9_linear)"/>
<path d="M19.3 32.3002L26.3 37.6002L43 25.4002L26.1 18.7002L19.3 32.3002Z" fill="url(#paint10_linear)"/>
<path d="M33.1001 21.4002L26.1001 18.7002L28.2001 24.4002L32.7001 24.7002L33.1001 21.4002Z" fill="url(#paint11_linear)"/>
<path d="M32.7 24.7004L43 25.4004L33.0999 21.4004L32.7 24.7004Z" fill="url(#paint12_linear)"/>
<path d="M33.1001 21.4002L26.1001 18.7002L32.1001 29.6002L33.1001 21.4002Z" fill="url(#paint13_linear)"/>
<path d="M1.5 18.6996L26.3 37.5996L14 15.0996L1.5 18.6996Z" fill="url(#paint14_linear)"/>
<path d="M7.19995 22.9998L26.2999 37.5998L18.8 23.7998L8.49995 19.2998L7.19995 22.9998Z" fill="url(#paint15_linear)"/>
<path d="M43 25.4004L26.3 37.6004L31 45.6004L43 25.4004Z" fill="url(#paint16_linear)"/>
<path d="M19.3 32.3004L26.3 37.6004L21.2001 28.4004L19.3 32.3004Z" fill="url(#paint17_linear)"/>
<path d="M1.5 18.7L14 15.1L24 4.3L7.5 1.5L1.5 18.7Z" fill="url(#paint18_linear)"/>
<path d="M24 4.2998L17.8 10.9998L26.1 18.6998L43 25.3998L24 4.2998Z" fill="url(#paint19_linear)"/>
<path d="M26 18.5996L26.1 18.6996L33.1 21.3996L33.8 15.0996L32 13.0996L26 18.5996Z" fill="url(#paint20_linear)"/>
<path d="M24 4.3L7.5 1.5L17.8 11L24 4.3Z" fill="url(#paint21_linear)"/>
<path d="M1.5 18.7L14 15.1L24 4.3L7.5 1.5L1.5 18.7Z" fill="url(#paint22_linear)"/>
<path d="M38 10H10V38H38V10Z" fill="url(#paint23_linear)"/>
<g opacity="0.3">
<path opacity="0.3" d="M38 29.0004L10 19.9004V38.0004H38V29.0004Z" fill="url(#paint24_linear)"/>
<path opacity="0.3" d="M10 34.6998L21.5 28.5998L10 20.2998V34.6998Z" fill="url(#paint25_linear)"/>
<path opacity="0.3" d="M38 12.7L34.2 11L20.5 23.7L38 25V12.7Z" fill="url(#paint26_linear)"/>
<path opacity="0.3" d="M29.1001 10H18.8001L14.1001 15.2L26.3001 37.5L38.0001 29V19.9L29.1001 10Z" fill="url(#paint27_linear)"/>
<path opacity="0.3" d="M10 25.1002L26.3 37.5002L14.1 15.2002L10 16.3002V25.1002Z" fill="url(#paint28_linear)"/>
<path opacity="0.3" d="M14.1 15.2L18.8 10H10V16.3L14.1 15.2Z" fill="url(#paint29_linear)"/>
</g>
<path d="M24 32.6992H13.5V34.3992H24V32.6992Z" fill="white"/>
<path d="M13.5 13.3994H17.8C20.3 13.3994 21.8 14.8994 21.8 16.9994C21.8 19.3994 19.9 20.6994 17.6 20.6994H15.8V23.8994H13.5V13.3994ZM17.6 18.6994C18.8 18.6994 19.4 17.9994 19.4 17.0994C19.4 16.0994 18.7 15.4994 17.5 15.4994H15.8V18.6994H17.6Z" fill="white"/>
<path d="M21.5 22.5259L22.9686 20.8999C23.5806 21.5643 24.1575 21.9489 24.8918 21.9489C25.766 21.9489 26.308 21.4244 26.308 20.2006V13.3994H28.7033V20.3055C28.7033 21.5643 28.3361 22.4909 27.7067 23.1203C27.0598 23.7672 26.1157 24.0994 24.9618 24.0994C23.3183 24.0994 22.2343 23.3826 21.5 22.5259Z" fill="white"/>
<defs>
<linearGradient id="paint0_linear" x1="39.9302" y1="32.7854" x2="33.4106" y2="13.9509" gradientUnits="userSpaceOnUse">
<stop offset="0.000825369" stop-color="#FF318C"/>
<stop offset="1" stop-color="#FE6C54"/>
</linearGradient>
<linearGradient id="paint1_linear" x1="52.0418" y1="25.2995" x2="36.3637" y2="27.3573" gradientUnits="userSpaceOnUse">
<stop offset="0.3305" stop-color="#FF318C"/>
<stop offset="0.9422" stop-color="#B045ED"/>
</linearGradient>
<linearGradient id="paint2_linear" x1="41.4478" y1="12.2293" x2="34.315" y2="21.2879" gradientUnits="userSpaceOnUse">
<stop stop-color="#FF546A"/>
<stop offset="0.7814" stop-color="#FE764A"/>
</linearGradient>
<linearGradient id="paint3_linear" x1="48.8366" y1="17.4297" x2="36.5881" y2="18.3116" gradientUnits="userSpaceOnUse">
<stop offset="0.1065" stop-color="#FCBCC3" stop-opacity="0.96"/>
<stop offset="0.7261" stop-color="#FF4694" stop-opacity="0.1407"/>
<stop offset="0.8325" stop-color="#FF318C" stop-opacity="0"/>
</linearGradient>
<linearGradient id="paint4_linear" x1="36.3186" y1="12.4491" x2="30.2728" y2="20.1273" gradientUnits="userSpaceOnUse">
<stop offset="0.016776" stop-color="#61316F" stop-opacity="0"/>
<stop offset="0.8106" stop-color="#6B57FF"/>
</linearGradient>
<linearGradient id="paint5_linear" x1="39.2582" y1="41.6201" x2="6.4251" y2="29.7731" gradientUnits="userSpaceOnUse">
<stop offset="0.016776" stop-color="#FF318C"/>
<stop offset="0.8106" stop-color="#6B57FF"/>
</linearGradient>
<linearGradient id="paint6_linear" x1="14.1224" y1="43.0885" x2="8.8311" y2="24.6668" gradientUnits="userSpaceOnUse">
<stop offset="0.016776" stop-color="#61316F"/>
<stop offset="0.8106" stop-color="#6B57FF"/>
</linearGradient>
<linearGradient id="paint7_linear" x1="44.547" y1="41.0442" x2="28.4386" y2="30.6166" gradientUnits="userSpaceOnUse">
<stop offset="0.1555" stop-color="#FF318C"/>
<stop offset="1" stop-color="#6B57FF"/>
</linearGradient>
<linearGradient id="paint8_linear" x1="39.1445" y1="31.3647" x2="38.3345" y2="38.5391" gradientUnits="userSpaceOnUse">
<stop offset="0.0655781" stop-color="#762784"/>
<stop offset="0.8106" stop-color="#FF318C" stop-opacity="0"/>
</linearGradient>
<linearGradient id="paint9_linear" x1="14.2411" y1="32.8976" x2="28.2045" y2="8.2349" gradientUnits="userSpaceOnUse">
<stop offset="0.3305" stop-color="#FF318C"/>
<stop offset="0.9422" stop-color="#FDB60D"/>
</linearGradient>
<linearGradient id="paint10_linear" x1="25.2586" y1="38.4515" x2="34.7209" y2="21.7389" gradientUnits="userSpaceOnUse">
<stop offset="0.3305" stop-color="#FF318C"/>
<stop offset="0.9422" stop-color="#FDB60D"/>
</linearGradient>
<linearGradient id="paint11_linear" x1="37.3131" y1="19.7341" x2="28.1022" y2="21.9878" gradientUnits="userSpaceOnUse">
<stop stop-color="#FF318C"/>
<stop offset="1" stop-color="#FDB60D" stop-opacity="0"/>
</linearGradient>
<linearGradient id="paint12_linear" x1="30.9413" y1="21.1972" x2="42.7627" y2="27.7237" gradientUnits="userSpaceOnUse">
<stop stop-color="#FF318C"/>
<stop offset="0.9422" stop-color="#FDB60D" stop-opacity="0"/>
</linearGradient>
<linearGradient id="paint13_linear" x1="37.8583" y1="21.9623" x2="28.6474" y2="24.216" gradientUnits="userSpaceOnUse">
<stop offset="0.3296" stop-color="#FF318C"/>
<stop offset="1" stop-color="#FDB60D" stop-opacity="0"/>
</linearGradient>
<linearGradient id="paint14_linear" x1="12.42" y1="30.7713" x2="19.1807" y2="18.8304" gradientUnits="userSpaceOnUse">
<stop offset="0.3305" stop-color="#FF318C"/>
<stop offset="0.9422" stop-color="#FDB60D"/>
</linearGradient>
<linearGradient id="paint15_linear" x1="5.09105" y1="32.5004" x2="21.4551" y2="27.1111" gradientUnits="userSpaceOnUse">
<stop offset="0.3313" stop-color="#FF318C" stop-opacity="0"/>
<stop offset="0.9422" stop-color="#B045ED"/>
</linearGradient>
<linearGradient id="paint16_linear" x1="32.2208" y1="29.0754" x2="38.1536" y2="37.0422" gradientUnits="userSpaceOnUse">
<stop offset="0.036877" stop-color="#FDB60D"/>
<stop offset="0.9422" stop-color="#FF318C" stop-opacity="0"/>
</linearGradient>
<linearGradient id="paint17_linear" x1="22.2226" y1="35.7179" x2="25.0088" y2="30.7969" gradientUnits="userSpaceOnUse">
<stop offset="0.3305" stop-color="#FF318C"/>
<stop offset="0.9422" stop-color="#B045ED"/>
</linearGradient>
<linearGradient id="paint18_linear" x1="7.4406" y1="20.4742" x2="15.0837" y2="4.3062" gradientUnits="userSpaceOnUse">
<stop offset="0.0839659" stop-color="#FF318C"/>
<stop offset="0.8747" stop-color="#FDB60D"/>
<stop offset="0.9935" stop-color="#FDCE0D"/>
</linearGradient>
<linearGradient id="paint19_linear" x1="22.0048" y1="26.3635" x2="31.7056" y2="16.6627" gradientUnits="userSpaceOnUse">
<stop offset="0.3305" stop-color="#FF318C"/>
<stop offset="0.9422" stop-color="#FDB60D"/>
</linearGradient>
<linearGradient id="paint20_linear" x1="36.1559" y1="29.7558" x2="29.5907" y2="16.2335" gradientUnits="userSpaceOnUse">
<stop offset="0.3305" stop-color="#FF318C"/>
<stop offset="0.9422" stop-color="#FDB60D"/>
</linearGradient>
<linearGradient id="paint21_linear" x1="12.9568" y1="12.9521" x2="15.8965" y2="2.3694" gradientUnits="userSpaceOnUse">
<stop offset="0.0839659" stop-color="#FF318C"/>
<stop offset="0.6835" stop-color="#FDB60D"/>
<stop offset="1" stop-color="#FDCE0D"/>
</linearGradient>
<linearGradient id="paint22_linear" x1="28.007" y1="9.5785" x2="10.3692" y2="9.9705" gradientUnits="userSpaceOnUse">
<stop stop-color="#FCF84A" stop-opacity="0.96"/>
<stop offset="1" stop-color="#FCF84A" stop-opacity="0"/>
</linearGradient>
<linearGradient id="paint23_linear" x1="10.0412" y1="10.0412" x2="35.1774" y2="35.1774" gradientUnits="userSpaceOnUse">
<stop stop-color="#7D2C38"/>
<stop offset="0.0123355" stop-color="#792B36"/>
<stop offset="0.1641" stop-color="#4E1B23"/>
<stop offset="0.311" stop-color="#2C1014"/>
<stop offset="0.4501" stop-color="#140709"/>
<stop offset="0.578" stop-color="#050202"/>
<stop offset="0.6844"/>
</linearGradient>
<linearGradient id="paint24_linear" x1="23.5027" y1="39.9088" x2="24.4627" y2="18.7888" gradientUnits="userSpaceOnUse">
<stop offset="0.016776" stop-color="#642652"/>
<stop offset="0.8106" stop-color="#6B57FF"/>
</linearGradient>
<linearGradient id="paint25_linear" x1="17.7044" y1="38.4556" x2="13.4684" y2="23.7078" gradientUnits="userSpaceOnUse">
<stop offset="0.016776" stop-color="#61316F"/>
<stop offset="0.8106" stop-color="#6B57FF"/>
</linearGradient>
<linearGradient id="paint26_linear" x1="38.3256" y1="12.8145" x2="31.9725" y2="20.8829" gradientUnits="userSpaceOnUse">
<stop stop-color="#FF546A"/>
<stop offset="0.7814" stop-color="#7D321B"/>
</linearGradient>
<linearGradient id="paint27_linear" x1="27.0303" y1="34.1934" x2="25.3503" y2="6.1135" gradientUnits="userSpaceOnUse">
<stop offset="0.0889086" stop-color="#6C2259"/>
<stop offset="0.9422" stop-color="#FDB60D"/>
</linearGradient>
<linearGradient id="paint28_linear" x1="15.1409" y1="32.2531" x2="21.8715" y2="20.3654" gradientUnits="userSpaceOnUse">
<stop offset="0.3305" stop-color="#6D084A"/>
<stop offset="0.9422" stop-color="#FDB60D"/>
</linearGradient>
<linearGradient id="paint29_linear" x1="17.7456" y1="13.4998" x2="5.6256" y2="12.2998" gradientUnits="userSpaceOnUse">
<stop stop-color="#FDB60D" stop-opacity="0.96"/>
<stop offset="0.8913" stop-color="#FF407E" stop-opacity="0.1044"/>
<stop offset="1" stop-color="#FF318C" stop-opacity="0"/>
</linearGradient>
</defs>
</svg>
