<!-- Copyright © 2000–2024 JetBrains s.r.o. -->
<svg width="16" height="16" viewBox="0 0 16 16" xmlns="http://www.w3.org/2000/svg">
  <path fill="url(#a)" d="M0 1.03v8.533c0 .414.248.79.63.95l9.355 3.95c.13.055.27.082.41.08l4.583-.038A1.03 1.03 0 0 0 16 13.475V9.058c0-.2-.06-.398-.17-.566L10.553.466A1.03 1.03 0 0 0 9.693 0H1.03C.463 0 0 .463 0 1.03"/>
  <path fill="url(#b)" d="M1.5 12.253v2.717c0 .568.462 1.03 1.03 1.03h3.143q.075.001.15-.01l9.295-1.362c.507-.075.882-.51.882-1.02v-3.85c0-.57-.463-1.033-1.033-1.033h-4.625q-.161.005-.312.05L2.218 11.27a1.03 1.03 0 0 0-.718.983"/>
  <path fill="#FF45ED" d="M1.5 11.888v3.065c0 .575.472 1.04 1.047 1.03L5.25 16c.295-.005.633-.197.825-.42l8.177-9.54c.16-.187.248-.425.248-.673V2.53c0-.567-.463-1.03-1.03-1.03h-2.753c-.297 0-.58.127-.774.353l-8.188 9.355c-.165.19-.255.43-.255.68"/>
  <path d="M13 3H3v10h10z"/>
  <path fill="#fff" fill-rule="evenodd" d="M4.253 4.248H5.68q.534.001.955.242.425.24.66.668.24.427.24.967 0 .539-.24.965a1.7 1.7 0 0 1-.66.67Q6.214 8 5.68 8H4.253zm2.005 2.97c.17-.1.297-.243.39-.43q.136-.281.137-.663-.001-.383-.137-.665a1 1 0 0 0-.39-.43 1.1 1.1 0 0 0-.585-.15h-.69v2.488h.69q.333 0 .585-.15"/>
  <path fill="#fff" d="M8.247 11h-4v.75h4z"/>
  <path fill="#fff" fill-rule="evenodd" d="M9.785 4.248h-1.61V8h.73V6.583h.857q.406 0 .708-.145.305-.146.467-.413a1.15 1.15 0 0 0 .165-.615q.001-.346-.16-.61a1.1 1.1 0 0 0-.462-.407q-.299-.144-.695-.145m.487 1.462a.5.5 0 0 1-.212.195.7.7 0 0 1-.323.07h-.832V4.858h.832q.184 0 .323.067.138.068.212.193c.05.085.075.18.075.295a.57.57 0 0 1-.075.297"/>
  <defs>
    <linearGradient id="a" x1="14.982" x2=".335" y1="14.92" y2=".27" gradientUnits="userSpaceOnUse">
      <stop offset=".29" stop-color="#6B57FF"/>
      <stop offset=".89" stop-color="#07C3F2"/>
    </linearGradient>
    <linearGradient id="b" x1="1.917" x2="15.283" y1="16.098" y2="9.903" gradientUnits="userSpaceOnUse">
      <stop offset=".3" stop-color="#FF45ED"/>
      <stop offset=".84" stop-color="#6B57FF"/>
    </linearGradient>
  </defs>
</svg>
