<!-- Copyright 2000-2024 JetBrains s.r.o. and contributors. Use of this source code is governed by the Apache 2.0 license. -->
<svg xmlns="http://www.w3.org/2000/svg" width="16" height="16" viewBox="0 0 16 16">
  <g fill="none" fill-rule="evenodd">
    <polygon fill="#40B6E0" points="12.791 9.641 14.224 9.641 14.224 7.997 12.791 7.997"/>
    <polygon fill="#40B6E0" points="11.5 10.615 14.223 10.615 14.223 14.916 16.005 14.916 16.005 15.997 11.005 15.997 11.005 14.916 12.791 14.916 12.791 11.696 11.5 11.696"/>
    <path d="M8.13295 11.5C9.61223 11.5 10.8836 10.6105 11.2075 9.33909H10.2213C9.90229 10.0739 9.11914 10.6057 8.13295 10.6057C6.77936 10.6057 5.80284 9.51796 5.80284 8C5.80284 6.48204 6.77936 5.39434 8.13295 5.39434C9.11914 5.39434 9.90229 5.92611 10.2213 6.66091H11.2075C10.8836 5.3895 9.61223 4.5 8.13295 4.5C6.21859 4.5 4.79248 5.99378 4.79248 8C4.79248 10.0062 6.21859 11.5 8.13295 11.5Z" fill="#9AA7B0"/>
    <path fill="#9AA7B0" d="M14.9291111,7 L13.9170416,7 C13.4409635,4.16228666 10.9729963,2 8,2 C4.6862915,2 2,4.6862915 2,8 C2,11.3137085 4.6862915,14 8,14 C8.70127085,14 9.37444215,13.8796916 10,13.6585886 L10,14.7101213 C9.36629059,14.8987225 8.69497261,15 8,15 C4.13400675,15 1,11.8659932 1,8 C1,4.13400675 4.13400675,1 8,1 C11.5264719,1 14.4438815,3.60770586 14.9291111,7 Z"/>
  </g>
</svg>
