<svg width="16" height="16" viewBox="0 0 16 16" fill="none" xmlns="http://www.w3.org/2000/svg">
<path fill-rule="evenodd" clip-rule="evenodd" d="M8 15C11.866 15 15 11.866 15 8C15 4.134 11.866 1 8 1C4.134 1 1 4.134 1 8C1 11.866 4.134 15 8 15ZM8 6C8.553 6 9 5.553 9 5C9 4.447 8.553 4 8 4C7.447 4 7 4.447 7 5C7 5.553 7.447 6 8 6ZM8 12C8.553 12 9 11.553 9 11C9 10.447 8.553 10 8 10C7.447 10 7 10.447 7 11C7 11.553 7.447 12 8 12ZM6 8C6 8.553 5.553 9 5 9C4.447 9 4 8.553 4 8C4 7.447 4.447 7 5 7C5.553 7 6 7.447 6 8ZM11 9C11.553 9 12 8.553 12 8C12 7.447 11.553 7 11 7C10.447 7 10 7.447 10 8C10 8.553 10.447 9 11 9Z" fill="#9AA7B0"/>
</svg>
