<!-- Copyright 2000-2024 JetBrains s.r.o. and contributors. Use of this source code is governed by the Apache 2.0 license. -->
<svg width="16" height="16" viewBox="0 0 16 16" fill="none" xmlns="http://www.w3.org/2000/svg">
<path fill-rule="evenodd" clip-rule="evenodd" d="M16 9.5C16 10.3284 15.3284 11 14.5 11C14.1369 11 13.804 10.871 13.5445 10.6564L10.9702 12.201C10.9897 12.2976 11 12.3976 11 12.5C11 12.5204 10.9996 12.5408 10.9988 12.561L13.3726 13.5105C13.6475 13.1975 14.0507 13 14.5 13C15.3284 13 16 13.6716 16 14.5C16 15.3284 15.3284 16 14.5 16C13.6716 16 13 15.3284 13 14.5C13 14.4796 13.0004 14.4592 13.0012 14.439L10.6274 13.4895C10.3525 13.8025 9.94931 14 9.5 14C8.67157 14 8 13.3284 8 12.5C8 11.6716 8.67157 11 9.5 11C9.86306 11 10.196 11.129 10.4555 11.3436L13.0298 9.79902C13.0103 9.70239 13 9.60239 13 9.5C13 8.67157 13.6716 8 14.5 8C15.3284 8 16 8.67157 16 9.5ZM15 9.5C15 9.77614 14.7761 10 14.5 10C14.2239 10 14 9.77614 14 9.5C14 9.22386 14.2239 9 14.5 9C14.7761 9 15 9.22386 15 9.5ZM10 12.5C10 12.7761 9.77614 13 9.5 13C9.22386 13 9 12.7761 9 12.5C9 12.2239 9.22386 12 9.5 12C9.77614 12 10 12.2239 10 12.5ZM14.5 15C14.7761 15 15 14.7761 15 14.5C15 14.2239 14.7761 14 14.5 14C14.2239 14 14 14.2239 14 14.5C14 14.7761 14.2239 15 14.5 15Z" fill="#231F20" fill-opacity="0.7"/>
<path d="M8 4.85321C11.866 4.85321 15 3.99064 15 2.92661C15 1.86257 11.866 1 8 1C4.13401 1 1 1.86257 1 2.92661C1 3.99064 4.13401 4.85321 8 4.85321Z" fill="#9AA7B0" fill-opacity="0.8"/>
<path d="M15 4.77327C13.4517 5.59849 10.8936 6.13761 8 6.13761C5.10642 6.13761 2.54835 5.59849 1 4.77327V6.26605C1 7.33009 4.13401 8.19266 8 8.19266C9.85688 8.19266 11.5449 7.99367 12.7979 7.66893C13.2383 7.25935 13.8266 7.00674 14.4739 7.00014C14.813 6.77389 15 6.52598 15 6.26605V4.77327Z" fill="#9AA7B0" fill-opacity="0.8"/>
<path d="M12.032 9.09884C12.0243 9.14641 12.018 9.19444 12.0131 9.24288L10.4437 10.1845C10.1522 10.0656 9.83337 10 9.5 10C8.46702 10 7.58037 10.6265 7.19928 11.5203C3.71037 11.4162 1 10.6407 1 9.69949V8.11272C2.54835 8.93794 5.10642 9.47706 8 9.47706C9.45792 9.47706 10.8307 9.3402 12.032 9.09884Z" fill="#9AA7B0" fill-opacity="0.8"/>
<path d="M7.01729 12.7956C7.14961 13.919 8.02687 14.8145 9.14162 14.9745C8.77011 14.9913 8.38876 15 8 15C4.13401 15 1 14.1374 1 13.0734V11.4522C2.37052 12.1826 4.53214 12.6889 7.01729 12.7956Z" fill="#9AA7B0" fill-opacity="0.8"/>
</svg>
