<!-- Copyright 2000-2024 JetBrains s.r.o. and contributors. Use of this source code is governed by the Apache 2.0 license. -->
<svg width="16" height="16" viewBox="0 0 16 16" fill="none" xmlns="http://www.w3.org/2000/svg">
<path fill-rule="evenodd" clip-rule="evenodd" d="M15 7H8.859C8.413 5.278 6.862 4 5 4C2.791 4 1 5.791 1 8C1 10.209 2.791 12 5 12C6.862 12 8.413 10.722 8.859 9H11.5V12H14V9H15V7ZM5 9.5C4.172 9.5 3.5 8.828 3.5 8C3.5 7.172 4.172 6.5 5 6.5C5.828 6.5 6.5 7.172 6.5 8C6.5 8.828 5.828 9.5 5 9.5Z" fill="#9AA7B0"/>
</svg>
