<svg width="16" height="16" viewBox="0 0 16 16" fill="none" xmlns="http://www.w3.org/2000/svg">
<path d="M7 13H1V2.05128C1 2.02296 1.02296 2 1.05128 2H4.97888C5.6157 2.03458 6.22162 2.28559 6.69633 2.71149L7.98457 4H15V7.43903C14.1638 7.15599 13.1116 7 12 7C10.8073 7 9.6829 7.17959 8.82045 7.50301C8.39292 7.66334 7.97747 7.87837 7.65093 8.16787C7.32556 8.45635 7 8.90421 7 9.5V13Z" fill="#9AA7B0" fill-opacity="0.8"/>
<path d="M16 9.5C16 10.3284 14.2091 11 12 11C9.79086 11 8 10.3284 8 9.5C8 8.67157 9.79086 8 12 8C14.2091 8 16 8.67157 16 9.5Z" fill="#40B6E0" fill-opacity="0.7"/>
<path d="M12 14.4999C13.1927 14.4999 14.3171 14.3203 15.1796 13.9969C15.4662 13.8894 15.7474 13.7573 16 13.5947L16 14.4999C16 15.3284 14.2091 15.9999 12 15.9999C9.79087 15.9999 8 15.3284 8 14.4999V13.5947C8.25262 13.7573 8.53382 13.8894 8.82045 13.9969C9.6829 14.3203 10.8073 14.4999 12 14.4999Z" fill="#40B6E0" fill-opacity="0.7"/>
<path d="M12 12.0001C13.1927 12.0001 14.3171 11.8205 15.1796 11.4971C15.4662 11.3896 15.7474 11.2575 16 11.0949L16 12.0001C16 12.8285 14.2091 13.5001 12 13.5001C9.79086 13.5001 8 12.8285 8 12.0001V11.0949C8.25262 11.2575 8.53382 11.3896 8.82045 11.4971C9.6829 11.8205 10.8073 12.0001 12 12.0001Z" fill="#40B6E0" fill-opacity="0.7"/>
</svg>
