<!-- Copyright 2000-2024 JetBrains s.r.o. and contributors. Use of this source code is governed by the Apache 2.0 license. -->
<svg width="16" height="16" viewBox="0 0 16 16" fill="none" xmlns="http://www.w3.org/2000/svg">
<path d="M15 8C15 4.134 11.866 1 8 1C4.134 1 1 4.134 1 8C1 10.7924 2.63505 13.2029 5 14.3264V11H8V8H15Z" fill="#F98B9E" fill-opacity="0.6"/>
<path fill-rule="evenodd" clip-rule="evenodd" d="M6 5V11H7V8H9V7H7V6H10V5H6Z" fill="#231F20" fill-opacity="0.7"/>
<path d="M9 13V16H13V15H10V10H13V9H9V12H6V16H7V13H9Z" fill="#231F20" fill-opacity="0.7"/>
<path d="M11 14H14V13H16V12H14V11H11V14Z" fill="#231F20" fill-opacity="0.7"/>
</svg>
