<!-- Copyright 2000-2024 JetBrains s.r.o. and contributors. Use of this source code is governed by the Apache 2.0 license. -->
<svg width="16" height="16" viewBox="0 0 16 16" fill="none" xmlns="http://www.w3.org/2000/svg">
<path fill-rule="evenodd" clip-rule="evenodd" d="M6 13C6 14.6569 7.34315 16 9 16C10.3059 16 11.4169 15.1656 11.829 14.0009L13 14L13 16L15 16L15 14L16 14L16 12L11.8293 12.0001C11.4175 10.8349 10.3063 10 9 10C7.34315 10 6 11.3431 6 13ZM8 13C8 12.4477 8.44772 12 9 12C9.55228 12 10 12.4477 10 13C10 13.5523 9.55228 14 9 14C8.44772 14 8 13.5523 8 13Z" fill="#9AA7B0"/>
<path d="M2 2H14V11L12.4646 11.0001C11.7735 9.80523 10.4817 9 9 9V3.00007L7 3V6.00007L5 6.00015V3.00007H3V11.0001L5 11V8.00007H7V9.53513C5.8044 10.2267 5 11.5194 5 13C5 13.3453 5.04375 13.6804 5.12602 14H2V2Z" fill="#9AA7B0"/>
</svg>
