<svg width="16" height="16" viewBox="0 0 16 16" fill="none" xmlns="http://www.w3.org/2000/svg">
<path fill-rule="evenodd" clip-rule="evenodd" d="M8 6.40367C5.51979 6.40367 3.32716 5.94156 2 5.23423V6.51376C2 7.42579 4.68629 8.16514 8 8.16514C11.3137 8.16514 14 7.42579 14 6.51376V5.23423C12.6728 5.94156 10.4802 6.40367 8 6.40367ZM14 9.4567V8.09662C12.6728 8.80395 10.4802 9.26606 8 9.26606C5.51979 9.26606 3.32716 8.80395 2 8.09662V9.4567C2 10.3242 4.68629 11.0275 8 11.0275C8.70127 11.0275 9.37444 10.996 10 10.9381V10H13.6314C13.8698 9.83069 14 9.64768 14 9.4567ZM10 12.0248V13.906C9.37444 13.9669 8.70127 14 8 14C4.68629 14 2 13.2607 2 12.3486V10.959C3.32716 11.6663 5.51979 12.1284 8 12.1284C8.69335 12.1284 9.36422 12.0923 10 12.0248ZM2 3.65138C2 4.56341 4.68629 5.30275 8 5.30275C11.3137 5.30275 14 4.56341 14 3.65138C14 2.73935 11.3137 2 8 2C4.68629 2 2 2.73935 2 3.65138Z" fill="#AFB1B3"/>
<rect x="11" y="11" width="5" height="5" fill="#C75450"/>
</svg>
