<!-- Copyright 2000-2024 JetBrains s.r.o. and contributors. Use of this source code is governed by the Apache 2.0 license. -->
<svg width="16" height="16" viewBox="0 0 16 16" fill="none" xmlns="http://www.w3.org/2000/svg">
<circle cx="10" cy="11" r="1" fill="#AAB5BC"/>
<circle cx="10" cy="5" r="1" fill="#AAB5BC"/>
<path d="M11 8C11 8.55228 10.5523 9 10 9C9.44772 9 9 8.55228 9 8C9 7.44772 9.44772 7 10 7C10.5523 7 11 7.44772 11 8Z" fill="#AAB5BC"/>
<path d="M9 2.5H11C11.8284 2.5 12.5 3.17157 12.5 4V12C12.5 12.8284 11.8284 13.5 11 13.5H9C8.17157 13.5 7.5 12.8284 7.5 12V4C7.5 3.17157 8.17157 2.5 9 2.5Z" stroke="#AAB5BC"/>
</svg>
