<!-- Copyright 2000-2024 JetBrains s.r.o. and contributors. Use of this source code is governed by the Apache 2.0 license. -->
<svg width="16" height="16" viewBox="0 0 16 16" fill="none" xmlns="http://www.w3.org/2000/svg">
<path fill-rule="evenodd" clip-rule="evenodd" d="M11 11V10C11 8.89543 11.8954 8 13 8C14.1046 8 15 8.89543 15 10V11C15.5523 11 16 11.4477 16 12V15C16 15.5523 15.5523 16 15 16H11C10.4477 16 10 15.5523 10 15V12C10 11.4477 10.4477 11 11 11ZM12 10C12 9.44772 12.4477 9 13 9C13.5523 9 14 9.44772 14 10V11H12V10Z" fill="#9AA7B0"/>
</svg>
