<!-- Copyright 2000-2024 JetBrains s.r.o. and contributors. Use of this source code is governed by the Apache 2.0 license. -->
<svg width="16" height="16" viewBox="0 0 16 16" fill="none" xmlns="http://www.w3.org/2000/svg">
<path fill-rule="evenodd" clip-rule="evenodd" d="M15.6456 12.017L15.6456 15.5887L14.3872 14.3293C13.6029 15.1298 12.4916 15.6024 11.2845 15.5391C9.29176 15.4347 7.71156 13.9053 7.4795 11.9901L8.84058 12.1084C9.10844 13.2651 10.1149 14.1538 11.3598 14.2191C12.1761 14.2619 12.9276 13.9417 13.4574 13.3998L12.0739 12.017L15.6456 12.017ZM11.708 7.45804C13.6743 7.56109 15.2389 9.05144 15.503 10.9309L14.1505 10.8131C13.8623 9.68561 12.8692 8.8262 11.6458 8.76208C10.7935 8.71742 10.012 9.06832 9.47952 9.65428L10.9131 11.0878L7.34133 11.0878L7.34133 7.5161L8.54986 8.72548C9.33683 7.89015 10.4722 7.39327 11.708 7.45804Z" fill="#3592C4"/>
<path d="M1 8.0004L1.99979 11.9996H2.99979L4.59978 4.79964L6.34135 10.0226L6.34135 7.0236L4.9997 3H3.9997L2.47038 9.88193L2 8.0004H1Z" fill="#AFB1B3"/>
<path d="M8.13451 6.89514L8.60317 7.36412C8.76185 7.25297 8.92715 7.15073 9.0983 7.05812L9.6001 4.8L10.2064 6.61896C10.5126 6.53805 10.8298 6.48533 11.1546 6.46364L10.0001 3H9.0001L8.13451 6.89514Z" fill="#AFB1B3"/>
<path d="M13.4701 6.85302C13.7756 6.98285 14.0652 7.14179 14.3356 7.32618L15.0006 4.9998H13.9996L13.4701 6.85302Z" fill="#AFB1B3"/>
</svg>
