<svg width="16" height="16" viewBox="0 0 16 16" fill="none" xmlns="http://www.w3.org/2000/svg">
<path fill-rule="evenodd" clip-rule="evenodd" d="M7.0844 14C4.6688 13.5514 3.9956 12.6542 3.9956 11.2243C3.9956 11.014 4.0352 10.4953 4.0352 10.257C4.0352 9.16355 3.6128 8.81308 2.5832 8.81308H2V7.18692H2.5832C3.6128 7.18692 4.0352 6.83645 4.0352 5.74299C4.0352 5.50467 3.9956 4.98598 3.9956 4.7757C3.9956 3.34579 4.6688 2.4486 7.0844 2L7.4408 3.41589C6.0416 3.83645 5.8304 4.22897 5.8304 5.08411C5.8304 5.36449 5.87 5.8271 5.87 6.1215C5.87 7.14486 5.3816 7.69159 4.4972 8C5.3816 8.30841 5.87 8.85514 5.87 9.8785C5.87 10.1729 5.8304 10.6355 5.8304 10.9159C5.8304 11.771 6.0416 12.1636 7.4408 12.5841L7.0844 14Z" fill="#9AA7B0"/>
<path fill-rule="evenodd" clip-rule="evenodd" d="M8.9156 14C11.3312 13.5514 12.0044 12.6542 12.0044 11.2243C12.0044 11.014 11.9648 10.4953 11.9648 10.257C11.9648 9.16355 12.3872 8.81308 13.4168 8.81308H14V7.18692H13.4168C12.3872 7.18692 11.9648 6.83645 11.9648 5.74299C11.9648 5.50467 12.0044 4.98598 12.0044 4.7757C12.0044 3.34579 11.3312 2.4486 8.9156 2L8.5592 3.41589C9.9584 3.83645 10.1696 4.22897 10.1696 5.08411C10.1696 5.36449 10.13 5.8271 10.13 6.1215C10.13 7.14486 10.6184 7.69159 11.5028 8C10.6184 8.30841 10.13 8.85514 10.13 9.8785C10.13 10.1729 10.1696 10.6355 10.1696 10.9159C10.1696 11.771 9.9584 12.1636 8.5592 12.5841L8.9156 14Z" fill="#9AA7B0"/>
</svg>
