<!-- Copyright 2000-2024 JetBrains s.r.o. and contributors. Use of this source code is governed by the Apache 2.0 license. -->
<svg width="16" height="16" viewBox="0 0 16 16" fill="none" xmlns="http://www.w3.org/2000/svg">
<g clip-path="url(#clip0_4648_49459)">
<path fill-rule="evenodd" clip-rule="evenodd" d="M6 13C6 14.6569 7.34315 16 9 16C10.3059 16 11.4169 15.1656 11.829 14.0009L13 14L13 16L15 16L15 14L16 14L16 12L11.8293 12.0001C11.4175 10.8349 10.3063 10 9 10C7.34315 10 6 11.3431 6 13ZM8 13C8 12.4477 8.44772 12 9 12C9.55228 12 10 12.4477 10 13C10 13.5523 9.55228 14 9 14C8.44772 14 8 13.5523 8 13Z" fill="#9AA7B0"/>
<path d="M5.00955 13.2785C4.25053 12.7824 3.9956 12.1042 3.9956 11.2243C3.9956 11.1224 4.00489 10.9482 4.01447 10.7686C4.02467 10.5773 4.0352 10.3799 4.0352 10.257C4.0352 9.16355 3.6128 8.81308 2.5832 8.81308H2V7.18692H2.5832C3.6128 7.18692 4.0352 6.83645 4.0352 5.74299C4.0352 5.62011 4.02467 5.4227 4.01447 5.23146C4.00489 5.0518 3.9956 4.87755 3.9956 4.7757C3.9956 3.34579 4.6688 2.4486 7.0844 2L7.4408 3.41589C6.0416 3.83645 5.8304 4.22897 5.8304 5.08411C5.8304 5.22259 5.84006 5.40552 5.84984 5.59069C5.85986 5.78042 5.87 5.9725 5.87 6.1215C5.87 7.14486 5.3816 7.69159 4.4972 8C5.3816 8.30841 5.87 8.85514 5.87 9.8785C5.87 10.0275 5.85986 10.2196 5.84984 10.4093C5.84746 10.4544 5.84508 10.4994 5.84285 10.5436C5.31465 11.2215 5 12.074 5 13C5 13.0936 5.00322 13.1865 5.00955 13.2785Z" fill="#9AA7B0"/>
<path d="M11.9654 10.3158C11.965 10.2948 11.9648 10.2751 11.9648 10.257C11.9648 9.16355 12.3872 8.81308 13.4168 8.81308H14V7.18692H13.4168C12.3872 7.18692 11.9648 6.83645 11.9648 5.74299C11.9648 5.6201 11.9753 5.42267 11.9855 5.23141C11.9951 5.05176 12.0044 4.87755 12.0044 4.7757C12.0044 3.34579 11.3312 2.4486 8.9156 2L8.5592 3.41589C9.9584 3.83645 10.1696 4.22897 10.1696 5.08411C10.1696 5.22259 10.1599 5.40552 10.1502 5.59069C10.1401 5.7804 10.13 5.97252 10.13 6.1215C10.13 7.14486 10.6184 7.69159 11.5028 8C10.8419 8.23047 10.4021 8.59402 10.2221 9.19011C10.9001 9.40742 11.499 9.80066 11.9654 10.3158Z" fill="#9AA7B0"/>
</g>
<defs>
<clipPath id="clip0_4648_49459">
<rect width="16" height="16" fill="white"/>
</clipPath>
</defs>
</svg>
