<svg width="16" height="16" viewBox="0 0 16 16" fill="none" xmlns="http://www.w3.org/2000/svg">
<path fill-rule="evenodd" clip-rule="evenodd" d="M5.0844 14C2.6688 13.5514 1.9956 12.6542 1.9956 11.2243C1.9956 11.014 2.0352 10.4953 2.0352 10.257C2.0352 9.16355 1.6128 8.81308 0.5832 8.81308H0V7.18692H0.5832C1.6128 7.18692 2.0352 6.83645 2.0352 5.74299C2.0352 5.50467 1.9956 4.98598 1.9956 4.7757C1.9956 3.34579 2.6688 2.4486 5.0844 2L5.4408 3.41589C4.0416 3.83645 3.8304 4.22897 3.8304 5.08411C3.8304 5.36449 3.87 5.8271 3.87 6.1215C3.87 7.14486 3.3816 7.69159 2.4972 8C3.3816 8.30841 3.87 8.85514 3.87 9.8785C3.87 10.1729 3.8304 10.6355 3.8304 10.9159C3.8304 11.771 4.0416 12.1636 5.4408 12.5841L5.0844 14Z" fill="#9AA7B0"/>
<path fill-rule="evenodd" clip-rule="evenodd" d="M10.9156 14C13.3312 13.5514 14.0044 12.6542 14.0044 11.2243C14.0044 11.014 13.9648 10.4953 13.9648 10.257C13.9648 9.16355 14.3872 8.81308 15.4168 8.81308H16V7.18692H15.4168C14.3872 7.18692 13.9648 6.83645 13.9648 5.74299C13.9648 5.50467 14.0044 4.98598 14.0044 4.7757C14.0044 3.34579 13.3312 2.4486 10.9156 2L10.5592 3.41589C11.9584 3.83645 12.1696 4.22897 12.1696 5.08411C12.1696 5.36449 12.13 5.8271 12.13 6.1215C12.13 7.14486 12.6184 7.69159 13.5028 8C12.6184 8.30841 12.13 8.85514 12.13 9.8785C12.13 10.1729 12.1696 10.6355 12.1696 10.9159C12.1696 11.771 11.9584 12.1636 10.5592 12.5841L10.9156 14Z" fill="#9AA7B0"/>
<path d="M10 11H6V10H10V11Z" fill="#9AA7B0"/>
<path d="M10 7.92254V8.9866L6 7.53206V6.46797L10 5.01343V6.07749L7.46306 7.00001L10 7.92254Z" fill="#9AA7B0"/>
</svg>
