<svg width="16" height="16" viewBox="0 0 16 16" fill="none" xmlns="http://www.w3.org/2000/svg">
<g clip-path="url(#clip0_4648_49458)">
<path fill-rule="evenodd" clip-rule="evenodd" d="M6 13C6 14.6569 7.34315 16 9 16C10.3059 16 11.4169 15.1656 11.829 14.0009L13 14L13 16L15 16L15 14L16 14L16 12L11.8293 12.0001C11.4175 10.8349 10.3063 10 9 10C7.34315 10 6 11.3431 6 13ZM8 13C8 12.4477 8.44772 12 9 12C9.55228 12 10 12.4477 10 13C10 13.5523 9.55228 14 9 14C8.44772 14 8 13.5523 8 13Z" fill="#9AA7B0"/>
<path d="M10 7.92254V8.9866L6 7.53206V6.46797L10 5.01343V6.07749L7.46306 7.00001L10 7.92254Z" fill="#9AA7B0"/>
<path d="M5.12514 13.9966C2.72457 13.5468 2.0548 12.6506 2.0548 11.2243C2.0548 11.1225 2.06409 10.9482 2.07368 10.7686C2.08388 10.5773 2.0944 10.3799 2.0944 10.257C2.0944 9.16355 1.672 8.81308 0.642404 8.81308H0.0592041V7.18692H0.642404C1.672 7.18692 2.0944 6.83645 2.0944 5.74299C2.0944 5.62011 2.08387 5.42267 2.07368 5.23142C2.0641 5.05177 2.0548 4.87755 2.0548 4.7757C2.0548 3.34579 2.728 2.4486 5.1436 2L5.5 3.41589C4.1008 3.83645 3.8896 4.22897 3.8896 5.08411C3.8896 5.22259 3.89926 5.40555 3.90904 5.59071C3.91906 5.78044 3.9292 5.97251 3.9292 6.1215C3.9292 7.14486 3.4408 7.69159 2.5564 8C3.4408 8.30841 3.9292 8.85514 3.9292 9.8785C3.9292 10.0275 3.91906 10.2196 3.90904 10.4093C3.89926 10.5945 3.8896 10.7774 3.8896 10.9159C3.8896 11.667 4.05253 12.0612 5.04018 12.4309C5.0137 12.6168 5 12.8068 5 13C5 13.3441 5.04344 13.678 5.12514 13.9966Z" fill="#9AA7B0"/>
<path d="M13.9974 11C13.994 10.9279 13.9898 10.8488 13.9855 10.7686C13.9753 10.5773 13.9648 10.3799 13.9648 10.257C13.9648 9.16355 14.3872 8.81308 15.4168 8.81308H16V7.18692H15.4168C14.3872 7.18692 13.9648 6.83645 13.9648 5.74299C13.9648 5.6201 13.9753 5.42267 13.9855 5.23141C13.9951 5.05176 14.0044 4.87755 14.0044 4.7757C14.0044 3.34579 13.3312 2.4486 10.9156 2L10.5592 3.41589C11.9584 3.83645 12.1696 4.22897 12.1696 5.08411C12.1696 5.22259 12.1599 5.40552 12.1502 5.59069C12.1401 5.7804 12.13 5.97252 12.13 6.1215C12.13 7.14486 12.6184 7.69159 13.5028 8C12.6184 8.30841 12.13 8.85514 12.13 9.8785C12.13 10.0275 12.1401 10.2195 12.1502 10.4093C12.1526 10.4545 12.1549 10.4996 12.1572 10.544C12.2697 10.6884 12.3725 10.8408 12.4646 11.0001L13.9974 11Z" fill="#9AA7B0"/>
</g>
<defs>
<clipPath id="clip0_4648_49458">
<rect width="16" height="16" fill="white"/>
</clipPath>
</defs>
</svg>
