<svg width="16" height="16" viewBox="0 0 16 16" fill="none" xmlns="http://www.w3.org/2000/svg">
<path d="M2.20706 3.79297L6.41417 8.00008L2.20706 12.2072L0.792847 10.793L3.58574 8.00008L0.792847 5.20718L2.20706 3.79297Z" fill="#9AA7B0"/>
<path d="M6.70706 3.79297L10.9142 8.00008L9.82838 9.08586C9.56116 9.0296 9.28407 9 9 9C7.51021 9 6.21065 9.81445 5.52227 11.0224L5.29285 10.793L8.08574 8.00008L5.29285 5.20718L6.70706 3.79297Z" fill="#9AA7B0"/>
<path d="M15.4142 8.00008L12.446 10.9682C12.102 10.3859 11.6145 9.89817 11.032 9.55385L12.5857 8.00008L9.79285 5.20718L11.2071 3.79297L15.4142 8.00008Z" fill="#9AA7B0"/>
<path fill-rule="evenodd" clip-rule="evenodd" d="M9 16C7.34315 16 6 14.6569 6 13C6 11.3431 7.34315 10 9 10C10.3063 10 11.4175 10.8348 11.8293 12.0001L16 12V14H15V16H13V14L11.829 14.0009C11.4169 15.1656 10.3059 16 9 16ZM9 12C8.44772 12 8 12.4477 8 13C8 13.5523 8.44772 14 9 14C9.55228 14 10 13.5523 10 13C10 12.4477 9.55228 12 9 12Z" fill="#9AA7B0"/>
</svg>
