<!-- Copyright 2000-2024 JetBrains s.r.o. and contributors. Use of this source code is governed by the Apache 2.0 license. -->
<svg width="16" height="16" viewBox="0 0 16 16" fill="none" xmlns="http://www.w3.org/2000/svg">
<path d="M13.9697 9.03031C13.4341 8.49478 12.5658 8.49478 12.0303 9.03031L11.0606 9.99998L9.99998 8.93932L10.9697 7.96965C12.091 6.84833 13.909 6.84833 15.0303 7.96965C16.1516 9.09097 16.1516 10.909 15.0303 12.0303L14.0606 13L13 11.9393L13.9697 10.9697C14.5052 10.4341 14.5052 9.56585 13.9697 9.03031Z" fill="#40B6E0" fill-opacity="0.7"/>
<path d="M8.93932 9.99998L9.99998 11.0606L9.03031 12.0303C8.49478 12.5658 8.49478 13.4341 9.03031 13.9697C9.56585 14.5052 10.4341 14.5052 10.9697 13.9697L11.9393 13L13 14.0606L12.0303 15.0303C10.909 16.1516 9.09097 16.1516 7.96965 15.0303C6.84833 13.909 6.84833 12.091 7.96965 10.9697L8.93932 9.99998Z" fill="#40B6E0" fill-opacity="0.7"/>
<path d="M10.5303 13.5304L13.5303 10.5304L12.4697 9.46973L9.46967 12.4697L10.5303 13.5304Z" fill="#40B6E0" fill-opacity="0.7"/>
<path fill-rule="evenodd" clip-rule="evenodd" d="M6 14H1V2H15V6.68425C14.6844 6.49352 14.3474 6.3519 14 6.25939V5H11V6.68423C10.7373 6.84298 10.4893 7.03575 10.2625 7.26255L9.52509 8H6V10H7.52509L7.26255 10.2625C7.03575 10.4893 6.84298 10.7373 6.68423 11H6V14ZM10 5V7H6V5H10ZM5 5V7H2V5H5ZM2 10V8H5V10H2ZM2 11H5V13H2V11Z" fill="#9AA7B0"/>
</svg>
