<svg width="16" height="16" viewBox="0 0 16 16" xmlns="http://www.w3.org/2000/svg">
  <path fill="#62b543" d="M4.03 8.5c0 2.19 1.12 3.03 2.19 3.06.61.01 1.21-.17 1.69-.55l.47 1.02c-.6.65-1.46.99-2.35.97C4.88 12.98 2 12.61 2 8.5S4.88 4 6.03 4c.74 0 2.13.19 2.47.88l-.59 1.11c-.48-.38-1.08-.56-1.69-.55-1.14.03-2.19.82-2.19 3.06Zm10.88-.75L15 6.57h-1.05L14.16 4h-1.2l-.21 2.57h-1.2L11.76 4h-1.2l-.21 2.57H9.3l-.1 1.18h1.05l-.12 1.5H9.08l-.09 1.18h1.05L9.83 13h1.2l.21-2.57h1.2L12.23 13h1.2l.21-2.57h1.05l.09-1.18h-1.05l.12-1.5h1.05Zm-2.37 1.5h-1.2l.12-1.5h1.2z"/>
</svg>
