<svg width="16" height="16" viewBox="0 0 16 16" xmlns="http://www.w3.org/2000/svg">
  <path fill="#57965C" d="M1.17 8c0-2.07 1.48-3.62 3.5-3.62 1.63 0 3.09 1.12 3.24 2.58H6.7C6.52 6.19 5.67 5.5 4.66 5.5 3.32 5.5 2.42 6.59 2.42 8s.91 2.5 2.24 2.5c1.01 0 1.85-.68 2.04-1.44h1.21c-.15 1.47-1.65 2.56-3.24 2.56-2.03 0-3.5-1.56-3.5-3.62m8.42 1.73H8.6v-.9h1.18l.35-1.65H9.1v-.9h1.23l.38-1.79h1l-.38 1.78h1.49l.38-1.78h1l-.38 1.77h.99v.9h-1.18l-.35 1.65h1.03v.9h-1.23l-.38 1.78h-1l.38-1.78h-1.49l-.38 1.78h-1l.38-1.77zm2.68-.9.35-1.65h-1.49l-.35 1.65z"/>
</svg>
