<svg width="16" height="16" viewBox="0 0 512 512" xmlns="http://www.w3.org/2000/svg" version="1.0">
    <g stroke="#ced0d6" fill="none">
        <path stroke-width="16"
              d="m114.891 77.457 48.339-24.26M197.576 44.26l98.587 1.915M329.873 53.589l71.236 32.559M428.459 107.853l40.071 51.072M480.615 190.454l-.636 72.778M353.59 175.132l111.76 97.037M191.852 57.666l123.569 88.122M207.753 143.212l92.226-84.269M348.59 149.903l55.064-42.688"/>
        <path stroke-width="14" d="m206.481 166.194 87.774 89.377"/>
        <path stroke-width="16" d="m140.333 266.424 174.635-95.846M102.806 102.354l20.354 153.855"/>
        <path stroke-width="14" d="m53.195 164.918 125.3-8.3"/>
        <path stroke-width="16"
              d="m51.287 262.593 55.972 8.938M140.333 279.192l227.066 77.246M200.121 171.94l59.787 192.159M130.156 291.321l19.081 49.157M35.386 183.431l1.272 54.265M48.107 147.042l37.526-47.241M397.929 348.777l67.421-55.54M320.968 256.209l141.201-76.608M173.407 358.354l74.417 21.705M301.251 284.299l-27.35 78.523M322.24 268.339l136.113 12.129M279.626 398.573l73.843 53.292M382.531 383.871l-11.421 69.877"/>
        <g stroke-width="19">
            <ellipse ry="18.514" rx="19" cy="465.23" cx="369.341"/>
            <ellipse ry="18.514" rx="19" cy="383.847" cx="263.632"/>
            <ellipse ry="18.514" rx="19" cy="354.48" cx="154.233"/>
            <ellipse ry="18.514" rx="19" cy="360.503" cx="383.208"/>
            <ellipse ry="18.514" rx="19" cy="280.702" cx="476.706"/>
            <ellipse ry="18.514" rx="19" cy="273.403" cx="122.431"/>
            <ellipse ry="18.514" rx="19" cy="257.443" cx="34.658"/>
            <ellipse ry="18.514" rx="19" cy="266.019" cx="302.431"/>
            <ellipse ry="18.514" rx="19" cy="169.62" cx="477.342"/>
            <ellipse ry="18.514" rx="19" cy="155.299" cx="193.032"/>
            <ellipse ry="18.514" rx="19" cy="163.598" cx="34.658"/>
            <ellipse ry="18.514" rx="19" cy="84.436" cx="97.626"/>
            <ellipse ry="18.514" rx="19" cy="46.77" cx="177.131"/>
            <ellipse ry="18.514" rx="19" cy="46.77" cx="310.7"/>
            <ellipse ry="18.514" rx="19" cy="92.097" cx="413.738"/>
            <ellipse ry="18.514" rx="19" cy="162.598" cx="335.505"/>
        </g>
    </g>
</svg>