<svg width="24" height="24" viewBox="0 0 24 24" fill="none" xmlns="http://www.w3.org/2000/svg">
<g clip-path="url(#clip0_5739_40243)">
<g clip-path="url(#clip1_5739_40243)">
<g clip-path="url(#clip2_5739_40243)">
<path d="M9.99163 4.01636H9.99221C14.5752 4.01636 18.296 7.7373 18.296 12.3205V12.3209C18.296 16.904 14.5752 20.6249 9.99228 20.6249H9.9917C5.40849 20.6249 1.6875 16.9038 1.6875 12.3204V12.3208C1.6875 7.73744 5.40846 4.01636 9.99163 4.01636Z" fill="url(#paint0_linear_5739_40243)"/>
<path d="M10.6727 14.5513L19.4011 14.5513C21.009 14.5513 22.3125 13.2478 22.3125 11.6399L22.3125 2.91154C22.3125 1.30363 21.009 0.000160261 19.4011 0.000159138L10.6727 0.000153045C9.06484 0.000151922 7.76137 1.30362 7.76137 2.91153L7.76136 11.6399C7.76136 13.2478 9.06483 14.5513 10.6727 14.5513Z" fill="url(#paint1_linear_5739_40243)"/>
<path d="M7.76173 4.36598L17.9469 4.36597L17.9469 14.5511L7.76172 14.5511L7.76173 4.36598Z" fill="black"/>
<path d="M9.2168 11.6409L14.8551 11.6409V13.0959L9.2168 13.0959L9.2168 11.6409Z" fill="white"/>
</g>
</g>
<rect y="16" width="24" height="8" rx="1.5" fill="#FDB60D"/>
<g opacity="0.9">
<path d="M1.125 21.9161H1.81822V20.7615H2.34489C3.05162 20.7615 3.6188 20.2997 3.6188 19.4089V19.398C3.6188 18.6117 3.16415 18.0674 2.41241 18.0674H1.125V21.9161ZM1.81822 20.0082V18.8316H2.35389C2.70051 18.8316 2.91657 19.0351 2.91657 19.4144V19.4254C2.91657 19.7553 2.71401 20.0082 2.3674 20.0082H1.81822Z" fill="#010101"/>
<path d="M4.13182 21.9161H4.82505V20.6845H5.36972L6.04494 21.9161H6.8552L6.08545 20.5416C6.48608 20.3601 6.76067 19.9698 6.76067 19.3485V19.3375C6.76067 18.9746 6.66614 18.6722 6.49058 18.4578C6.28351 18.2048 5.97292 18.0674 5.57229 18.0674H4.13182V21.9161ZM4.82505 19.9368V18.8316H5.51377C5.85138 18.8316 6.05844 19.0186 6.05844 19.3815V19.3925C6.05844 19.7168 5.86488 19.9368 5.52727 19.9368H4.82505Z" fill="#010101"/>
<path d="M7.38482 21.9161H9.78409V21.1629H8.07354V20.3546H9.55902V19.6014H8.07354V18.8206H9.76158V18.0674H7.38482V21.9161Z" fill="#010101"/>
<path d="M11.4043 21.9436H12.0165L13.2904 18.0674H12.5431L11.7194 20.778L10.8956 18.0674H10.1303L11.4043 21.9436Z" fill="#010101"/>
<path d="M13.808 21.9161H14.5013V18.0674H13.808V21.9161Z" fill="#010101"/>
<path d="M15.2887 21.9161H17.688V21.1629H15.9774V20.3546H17.4629V19.6014H15.9774V18.8206H17.6655V18.0674H15.2887V21.9161Z" fill="#010101"/>
<path d="M19.1371 21.9436H19.7403L20.4515 19.4254L21.1628 21.9436H21.766L22.8418 18.0674H22.1171L21.4644 20.6735L20.7576 18.0564H20.1634L19.4567 20.6735L18.804 18.0674H18.0613L19.1371 21.9436Z" fill="#010101"/>
</g>
</g>
<defs>
<linearGradient id="paint0_linear_5739_40243" x1="3.54094" y1="21.4302" x2="13.8558" y2="8.53664" gradientUnits="userSpaceOnUse">
<stop  offset="0" stop-color="#3BEA62"/>
<stop offset="0.543588" stop-color="#0894FA"/>
<stop offset="1" stop-color="#764EFF"/>
</linearGradient>
<linearGradient id="paint1_linear_5739_40243" x1="21.8933" y1="0.335469" x2="11.5811" y2="10.6477" gradientUnits="userSpaceOnUse">
<stop  offset="0" stop-color="#3BEA62"/>
<stop offset="0.543588" stop-color="#0894FA"/>
<stop offset="1" stop-color="#764EFF"/>
</linearGradient>
<clipPath id="clip0_5739_40243">
<rect width="24" height="24" fill="white"/>
</clipPath>
<clipPath id="clip1_5739_40243">
<rect width="24" height="24" fill="white"/>
</clipPath>
<clipPath id="clip2_5739_40243">
<rect width="20.6249" height="20.6249" fill="white" transform="translate(1.6875)"/>
</clipPath>
</defs>
</svg>
