<svg width="20" height="20" viewBox="0 0 20 20" fill="none" xmlns="http://www.w3.org/2000/svg">
<g clip-path="url(#clip0_5741_42804)">
<g clip-path="url(#clip1_5741_42804)">
<g clip-path="url(#clip2_5741_42804)">
<path d="M8.32636 3.34692H8.32684C12.146 3.34692 15.2467 6.44771 15.2467 10.267V10.2673C15.2467 14.0866 12.146 17.1874 8.3269 17.1874H8.32642C4.50707 17.1874 1.40625 14.0864 1.40625 10.267V10.2673C1.40625 6.44783 4.50705 3.34692 8.32636 3.34692Z" fill="url(#paint0_linear_5741_42804)"/>
<path d="M8.89395 12.126L16.1676 12.126C17.5075 12.126 18.5938 11.0398 18.5938 9.69983L18.5938 2.4262C18.5938 1.08628 17.5075 5.26474e-05 16.1676 5.1712e-05L8.89396 4.6634e-05C7.55403 4.56986e-05 6.46781 1.08627 6.46781 2.42619L6.4678 9.69982C6.4678 11.0397 7.55402 12.126 8.89395 12.126Z" fill="url(#paint1_linear_5741_42804)"/>
<path d="M6.46876 3.63819L14.9564 3.63818L14.9564 12.1258L6.46875 12.1258L6.46876 3.63819Z" fill="black"/>
<path d="M7.67969 9.70069L12.3783 9.70068V10.9132L7.67969 10.9132L7.67969 9.70069Z" fill="white"/>
</g>
</g>
<rect y="13.3333" width="20" height="6.66667" rx="1.25" fill="#FDB60D"/>
<g opacity="0.9">
<path d="M0.9375 18.2633H1.51519V17.3011H1.95408C2.54302 17.3011 3.01567 16.9163 3.01567 16.174V16.1648C3.01567 15.5096 2.6368 15.056 2.01034 15.056H0.9375V18.2633ZM1.51519 16.6734V15.6929H1.96158C2.25042 15.6929 2.43048 15.8624 2.43048 16.1786V16.1877C2.43048 16.4627 2.26167 16.6734 1.97283 16.6734H1.51519Z" fill="#010101"/>
<path d="M3.44319 18.2633H4.02087V17.237H4.47477L5.03745 18.2633H5.71266L5.07121 17.1179C5.40507 16.9667 5.63389 16.6413 5.63389 16.1236V16.1144C5.63389 15.812 5.55511 15.56 5.40882 15.3813C5.23626 15.1706 4.97743 15.056 4.64357 15.056H3.44319V18.2633ZM4.02087 16.6139V15.6929H4.59481C4.87615 15.6929 5.0487 15.8487 5.0487 16.1511V16.1603C5.0487 16.4306 4.8874 16.6139 4.60606 16.6139H4.02087Z" fill="#010101"/>
<path d="M6.15402 18.2633H8.15341V17.6356H6.72795V16.9621H7.96585V16.3344H6.72795V15.6837H8.13465V15.056H6.15402V18.2633Z" fill="#010101"/>
<path d="M9.50355 18.2862H10.0137L11.0753 15.056H10.4526L9.76613 17.3149L9.07966 15.056H8.44196L9.50355 18.2862Z" fill="#010101"/>
<path d="M11.5067 18.2633H12.0844V15.056H11.5067V18.2633Z" fill="#010101"/>
<path d="M12.7406 18.2633H14.74V17.6356H13.3145V16.9621H14.5524V16.3344H13.3145V15.6837H14.7212V15.056H12.7406V18.2633Z" fill="#010101"/>
<path d="M15.9476 18.2862H16.4503L17.0429 16.1877L17.6356 18.2862H18.1383L19.0348 15.056H18.4309L17.887 17.2278L17.298 15.0469H16.8029L16.2139 17.2278L15.67 15.056H15.0511L15.9476 18.2862Z" fill="#010101"/>
</g>
</g>
<defs>
<linearGradient id="paint0_linear_5741_42804" x1="2.95079" y1="17.8584" x2="11.5465" y2="7.11383" gradientUnits="userSpaceOnUse">
<stop stop-color="#3BEA62"/>
<stop offset="0.543588" stop-color="#0894FA"/>
<stop offset="1" stop-color="#764EFF"/>
</linearGradient>
<linearGradient id="paint1_linear_5741_42804" x1="18.2444" y1="0.279476" x2="9.6509" y2="8.87297" gradientUnits="userSpaceOnUse">
<stop stop-color="#3BEA62"/>
<stop offset="0.543588" stop-color="#0894FA"/>
<stop offset="1" stop-color="#764EFF"/>
</linearGradient>
<clipPath id="clip0_5741_42804">
<rect width="20" height="20" fill="white"/>
</clipPath>
<clipPath id="clip1_5741_42804">
<rect width="20" height="20" fill="white"/>
</clipPath>
<clipPath id="clip2_5741_42804">
<rect width="17.1874" height="17.1874" fill="white" transform="translate(1.40625)"/>
</clipPath>
</defs>
</svg>
