<svg width="16" height="16" viewBox="0 0 16 16" fill="none" xmlns="http://www.w3.org/2000/svg">
<g clip-path="url(#clip0_5739_40244)">
<g clip-path="url(#clip1_5739_40244)">
<g clip-path="url(#clip2_5739_40244)">
<path d="M6.44201 3.11572H6.44246C9.99777 3.11572 12.8842 6.00228 12.8842 9.55771V9.55802C12.8842 13.1134 9.99779 15.9999 6.44251 15.9999H6.44207C2.88659 15.9999 0 13.1133 0 9.55767V9.55795C0 6.00239 2.88657 3.11572 6.44201 3.11572Z" fill="url(#paint0_linear_5739_40244)"/>
<path d="M6.97034 11.2881L13.7415 11.2881C14.9888 11.2881 16 10.2769 16 9.02956L16 2.25845C16 1.0111 14.9888 -8.17683e-05 13.7415 -8.26391e-05L6.97035 -8.73662e-05C5.723 -8.8237e-05 4.71182 1.01109 4.71182 2.25844L4.71181 9.02955C4.71181 10.2769 5.72299 11.2881 6.97034 11.2881Z" fill="url(#paint1_linear_5739_40244)"/>
<path d="M4.7129 3.38697L12.6141 3.38696L12.6141 11.2882L4.71289 11.2882L4.7129 3.38697Z" fill="black"/>
<path d="M5.8418 9.03052L10.2158 9.03052V10.1593L5.8418 10.1593L5.8418 9.03052Z" fill="white"/>
</g>
</g>
<rect y="11" width="16" height="5.00005" fill="#FDB60D"/>
<g opacity="0.9">
<path d="M1 14.8345H1.44689V13.9866H1.78642C2.24202 13.9866 2.60766 13.6474 2.60766 12.9933V12.9852C2.60766 12.4078 2.31457 12.0081 1.82995 12.0081H1V14.8345ZM1.44689 13.4334V12.5693H1.79222C2.01567 12.5693 2.15496 12.7187 2.15496 12.9973V13.0054C2.15496 13.2477 2.02437 13.4334 1.80093 13.4334H1.44689Z" fill="#010101"/>
<path d="M2.93839 14.8345H3.38528V13.9301H3.73641L4.1717 14.8345H4.69404L4.19782 13.8251C4.45609 13.6918 4.6331 13.4052 4.6331 12.9489V12.9408C4.6331 12.6743 4.57216 12.4522 4.45899 12.2948C4.3255 12.109 4.12527 12.0081 3.867 12.0081H2.93839V14.8345ZM3.38528 13.3809V12.5693H3.82927C4.04692 12.5693 4.1804 12.7066 4.1804 12.9731V12.9812C4.1804 13.2194 4.05562 13.3809 3.83798 13.3809H3.38528Z" fill="#010101"/>
<path d="M5.03547 14.8345H6.58219V14.2814H5.47946V13.6878H6.43709V13.1346H5.47946V12.5613H6.56768V12.0081H5.03547V14.8345Z" fill="#010101"/>
<path d="M7.62665 14.8547H8.02131L8.84255 12.0081H8.36083L7.82978 13.9987L7.29873 12.0081H6.80541L7.62665 14.8547Z" fill="#010101"/>
<path d="M9.17627 14.8345H9.62317V12.0081H9.17627V14.8345Z" fill="#010101"/>
<path d="M10.1308 14.8345H11.6775V14.2814H10.5748V13.6878H11.5324V13.1346H10.5748V12.5613H11.663V12.0081H10.1308V14.8345Z" fill="#010101"/>
<path d="M12.6117 14.8547H13.0006L13.4591 13.0054L13.9176 14.8547H14.3064L15 12.0081H14.5328L14.112 13.922L13.6564 12H13.2734L12.8178 13.922L12.397 12.0081H11.9182L12.6117 14.8547Z" fill="#010101"/>
</g>
</g>
<defs>
<linearGradient id="paint0_linear_5739_40244" x1="1.43783" y1="16.6246" x2="9.43964" y2="6.62238" gradientUnits="userSpaceOnUse">
<stop  offset="0" stop-color="#3BEA62"/>
<stop offset="0.543588" stop-color="#0894FA"/>
<stop offset="1" stop-color="#764EFF"/>
</linearGradient>
<linearGradient id="paint1_linear_5739_40244" x1="15.6748" y1="0.260037" x2="7.67499" y2="8.25982" gradientUnits="userSpaceOnUse">
<stop  offset="0" stop-color="#3BEA62"/>
<stop offset="0.543588" stop-color="#0894FA"/>
<stop offset="1" stop-color="#764EFF"/>
</linearGradient>
<clipPath id="clip0_5739_40244">
<rect width="16" height="16" fill="white"/>
</clipPath>
<clipPath id="clip1_5739_40244">
<rect width="16" height="16" fill="white"/>
</clipPath>
<clipPath id="clip2_5739_40244">
<rect width="16" height="16" fill="white"/>
</clipPath>
</defs>
</svg>
