<svg width="128" height="128" viewBox="0 0 128 128" fill="none" xmlns="http://www.w3.org/2000/svg">
<g clip-path="url(#clip0_5741_42729)">
<g clip-path="url(#clip1_5741_42729)">
<g clip-path="url(#clip2_5741_42729)">
<path d="M53.2926 21.4204H53.2957C77.7383 21.4204 97.5827 41.2654 97.5827 65.7089V65.7111C97.5827 90.1544 77.7385 109.999 53.2961 109.999H53.293C28.8492 109.999 9.00391 90.1533 9.00391 65.7086V65.7106C9.00391 41.2662 28.849 21.4204 53.2926 21.4204Z" fill="url(#paint0_linear_5741_42729)"/>
<path d="M56.9213 77.6062L103.473 77.6062C112.048 77.6062 119 70.6544 119 62.0789L119 15.5276C119 6.95212 112.048 0.000292693 103.473 0.000286706L56.9213 0.000254207C48.3458 0.00024822 41.394 6.95206 41.394 15.5276L41.3939 62.0788C41.3939 70.6543 48.3458 77.6062 56.9213 77.6062Z" fill="url(#paint1_linear_5741_42729)"/>
<path d="M41.3946 23.2847L95.7155 23.2847L95.7154 77.6055L41.3945 77.6055L41.3946 23.2847Z" fill="black"/>
<path d="M49.1524 62.0835L79.2235 62.0835V69.8438L49.1523 69.8438L49.1524 62.0835Z" fill="white"/>
</g>
</g>
<rect y="88" width="127.999" height="40" rx="13" fill="#FDB60D"/>
<g opacity="0.9">
<path d="M10.9844 115.887H14.4093V111.134H17.0114C20.503 111.134 23.3053 109.233 23.3053 105.567V105.522C23.3053 102.286 21.059 100.045 17.345 100.045H10.9844V115.887ZM14.4093 108.034V103.191H17.0559C18.7683 103.191 19.8358 104.028 19.8358 105.59V105.635C19.8358 106.993 18.835 108.034 17.1226 108.034H14.4093Z" fill="#010101"/>
<path d="M25.8399 115.887H29.2648V110.818H31.9559L35.2918 115.887H39.295L35.492 110.229C37.4714 109.482 38.828 107.876 38.828 105.318V105.273C38.828 103.779 38.3609 102.535 37.4936 101.652C36.4706 100.611 34.936 100.045 32.9567 100.045H25.8399V115.887ZM29.2648 107.74V103.191H32.6675C34.3355 103.191 35.3586 103.96 35.3586 105.454V105.499C35.3586 106.835 34.4023 107.74 32.7343 107.74H29.2648Z" fill="#010101"/>
<path d="M41.9117 115.887H53.7655V112.786H45.3144V109.46H52.6535V106.359H45.3144V103.146H53.6543V100.045H41.9117V115.887Z" fill="#010101"/>
<path d="M61.7701 116H64.7948L71.0886 100.045H67.3968L63.3269 111.202L59.257 100.045H55.4763L61.7701 116Z" fill="#010101"/>
<path d="M73.6462 115.887H77.0712V100.045H73.6462V115.887Z" fill="#010101"/>
<path d="M80.9617 115.887H92.8156V112.786H84.3644V109.46H91.7036V106.359H84.3644V103.146H92.7044V100.045H80.9617V115.887Z" fill="#010101"/>
<path d="M99.9751 116H102.955L106.469 105.635L109.983 116H112.963L118.278 100.045H114.698L111.473 110.772L107.981 100H105.046L101.554 110.772L98.3293 100.045H94.6598L99.9751 116Z" fill="#010101"/>
</g>
</g>
<defs>
<linearGradient id="paint0_linear_5741_42729" x1="18.8889" y1="114.294" x2="73.9013" y2="45.5286" gradientUnits="userSpaceOnUse">
<stop stop-color="#3BEA62"/>
<stop offset="0.543588" stop-color="#0894FA"/>
<stop offset="1" stop-color="#764EFF"/>
</linearGradient>
<linearGradient id="paint1_linear_5741_42729" x1="116.764" y1="1.78861" x2="61.7657" y2="56.7869" gradientUnits="userSpaceOnUse">
<stop stop-color="#3BEA62"/>
<stop offset="0.543588" stop-color="#0894FA"/>
<stop offset="1" stop-color="#764EFF"/>
</linearGradient>
<clipPath id="clip0_5741_42729">
<rect width="128" height="128" fill="white"/>
</clipPath>
<clipPath id="clip1_5741_42729">
<rect width="128" height="128" fill="white"/>
</clipPath>
<clipPath id="clip2_5741_42729">
<rect width="110" height="110" fill="white" transform="translate(9)"/>
</clipPath>
</defs>
</svg>
