<svg width="256" height="256" viewBox="0 0 256 256" fill="none" xmlns="http://www.w3.org/2000/svg">
<g clip-path="url(#clip0_5739_40239)">
<g clip-path="url(#clip1_5739_40239)">
<g clip-path="url(#clip2_5739_40239)">
<path d="M106.583 42.8408H106.589C155.475 42.8408 195.163 82.5308 195.163 131.418V131.422C195.163 180.309 155.475 219.998 106.59 219.998H106.584C57.6964 219.998 18.0059 180.307 18.0059 131.417V131.421C18.0059 82.5324 57.6961 42.8408 106.583 42.8408Z" fill="url(#paint0_linear_5739_40239)"/>
<path d="M113.843 155.212L206.945 155.212C224.096 155.212 238 141.309 238 124.158L238 31.0553C238 13.9042 224.096 0.000585386 206.945 0.000573413L113.843 0.000508415C96.6916 0.000496441 82.788 13.9041 82.7879 31.0552L82.7879 124.158C82.7879 141.309 96.6915 155.212 113.843 155.212Z" fill="url(#paint1_linear_5739_40239)"/>
<path d="M82.7912 46.5695L191.433 46.5693L191.433 155.211L82.791 155.211L82.7912 46.5695Z" fill="black"/>
<path d="M98.3067 124.167L158.449 124.167V139.688L98.3066 139.688L98.3067 124.167Z" fill="white"/>
</g>
</g>
<rect y="176" width="255.998" height="80" rx="26" fill="#FDB60D"/>
<g opacity="0.9">
<path d="M21.9707 231.774H28.8206V222.269H34.0247C41.008 222.269 46.6125 218.467 46.6125 211.134V211.044C46.6125 204.571 42.12 200.091 34.6919 200.091H21.9707V231.774ZM28.8206 216.068V206.382H34.1137C37.5386 206.382 39.6736 208.057 39.6736 211.18V211.27C39.6736 213.986 37.672 216.068 34.2471 216.068H28.8206Z" fill="#010101"/>
<path d="M51.6818 231.774H58.5316V221.635H63.9137L70.5856 231.774H78.592L70.986 220.458C74.9447 218.965 77.6579 215.751 77.6579 210.636V210.546C77.6579 207.559 76.7238 205.069 74.9891 203.304C72.9431 201.222 69.874 200.091 65.9153 200.091H51.6818V231.774ZM58.5316 215.479V206.382H65.337C68.673 206.382 70.7191 207.921 70.7191 210.908V210.999C70.7191 213.669 68.8065 215.479 65.4705 215.479H58.5316Z" fill="#010101"/>
<path d="M83.8253 231.774H107.533V225.573H90.6307V218.919H105.309V212.719H90.6307V206.291H107.311V200.091H83.8253V231.774Z" fill="#010101"/>
<path d="M123.542 232H129.591L142.179 200.091H134.796L126.656 222.405L118.516 200.091H110.954L123.542 232Z" fill="#010101"/>
<path d="M147.294 231.774H154.144V200.091H147.294V231.774Z" fill="#010101"/>
<path d="M161.925 231.774H185.633V225.573H168.731V218.919H183.409V212.719H168.731V206.291H185.411V200.091H161.925V231.774Z" fill="#010101"/>
<path d="M199.952 232H205.912L212.94 211.27L219.968 232H225.928L236.559 200.091H229.398L222.948 221.545L215.965 200H210.094L203.11 221.545L196.661 200.091H189.321L199.952 232Z" fill="#010101"/>
</g>
</g>
<defs>
<linearGradient id="paint0_linear_5739_40239" x1="37.7759" y1="228.588" x2="147.801" y2="91.0572" gradientUnits="userSpaceOnUse">
<stop  offset="0" stop-color="#3BEA62"/>
<stop offset="0.543588" stop-color="#0894FA"/>
<stop offset="1" stop-color="#764EFF"/>
</linearGradient>
<linearGradient id="paint1_linear_5739_40239" x1="233.529" y1="3.57721" x2="123.531" y2="113.574" gradientUnits="userSpaceOnUse">
<stop  offset="0" stop-color="#3BEA62"/>
<stop offset="0.543588" stop-color="#0894FA"/>
<stop offset="1" stop-color="#764EFF"/>
</linearGradient>
<clipPath id="clip0_5739_40239">
<rect width="256" height="256" fill="white"/>
</clipPath>
<clipPath id="clip1_5739_40239">
<rect width="256" height="256" fill="white"/>
</clipPath>
<clipPath id="clip2_5739_40239">
<rect width="219.999" height="219.999" fill="white" transform="translate(18)"/>
</clipPath>
</defs>
</svg>
