<svg xmlns="http://www.w3.org/2000/svg" width="36" height="21" fill="none"><path fill="#40B6E0" fill-opacity=".2" d="M6 21v-9.31c.88.14 2.08.31 3 .31.92 0 2.12-.17 3-.31V21H6ZM9 3.69l1.03 2.57-2.14.21L9 3.69Z"/><path stroke="#40B6E0" stroke-linejoin="round" stroke-opacity=".7" d="M5.5 21v-9.92l3.41-8.52s.05-.06.09-.06c.04 0 .08.02.09.06l3.41 8.52V21m-6.86-9.88c.83.15 2.3.38 3.36.38s2.53-.23 3.36-.38m-1.83-4.4-3.2.31"/><path fill="#F4AF3D" fill-opacity=".2" d="M15 21v-9.31c.88.14 2.08.31 3 .31.92 0 2.12-.17 3-.31V21h-6Zm3-17.31 1.03 2.57-2.14.21L18 3.69Z"/><path stroke="#F4AF3D" stroke-linejoin="round" stroke-opacity=".7" d="M14.5 21v-9.92l3.41-8.52s.05-.06.09-.06c.04 0 .08.02.09.06l3.41 8.52V21m-6.86-9.88c.83.15 2.3.38 3.36.38s2.53-.23 3.36-.38m-1.83-4.4-3.2.31"/><path fill="#F26522" fill-opacity=".2" d="M24 21v-9.31c.88.14 2.08.31 3 .31.92 0 2.12-.17 3-.31V21h-6Zm3-17.31 1.03 2.57-2.14.21L27 3.69Z"/><path stroke="#F26522" stroke-linejoin="round" stroke-opacity=".6" d="M23.5 21v-9.92l3.41-8.52s.05-.06.09-.06c.04 0 .08.02.09.06l3.41 8.52V21m-6.86-9.88c.83.15 2.3.38 3.36.38s2.53-.23 3.36-.38m-1.83-4.4-3.2.31"/></svg>