<svg xmlns="http://www.w3.org/2000/svg" width="16" height="16" fill="none"><path fill="#EDF3FF" d="M4.5 13.33c-.23.07-.74.17-1.5.17s-1.27-.09-1.5-.17v-2.34L3 7.49l1.5 3.5v2.34Zm-2.93-2.3c.24.13.57.26 1.43.26s1.19-.14 1.43-.26"/><path stroke="#3574F0" stroke-linejoin="round" d="M1.57 11.03c.24.13.57.26 1.43.26s1.19-.14 1.43-.26m.07 2.3c-.23.07-.74.17-1.5.17s-1.27-.09-1.5-.17v-2.34L3 7.49l1.5 3.5v2.34Z"/><path fill="#FFFAEB" d="M9.5 13.33c-.23.07-.74.17-1.5.17s-1.27-.09-1.5-.17v-2.34L8 7.49l1.5 3.5v2.34Zm-2.93-2.3c.24.13.57.26 1.43.26s1.19-.14 1.43-.26"/><path stroke="#FFAF0F" stroke-linejoin="round" d="M6.57 11.03c.24.13.57.26 1.43.26s1.19-.14 1.43-.26m.07 2.3c-.23.07-.74.17-1.5.17s-1.27-.09-1.5-.17v-2.34L8 7.49l1.5 3.5v2.34Z"/><path fill="#FFF7F7" d="M14.5 13.33c-.23.07-.74.17-1.5.17s-1.27-.09-1.5-.17V5.99l1.5-3.5 1.5 3.5v7.34Zm-2.93-7.3c.24.13.57.26 1.43.26s1.19-.14 1.43-.26"/><path stroke="#DB3B4B" stroke-linejoin="round" d="M11.57 6.03c.24.13.57.26 1.43.26s1.19-.14 1.43-.26m.07 7.3c-.23.07-.74.17-1.5.17s-1.27-.09-1.5-.17V5.99l1.5-3.5 1.5 3.5v7.34Z"/></svg>