<svg width="16" height="16" viewBox="0 0 16 16" fill="none" xmlns="http://www.w3.org/2000/svg">
<g clip-path="url(#clip0_966_4805)">
<path d="M14.544 3.98691L14.5436 1.01804C14.5435 0.455854 14.0876 0 13.5254 0H10.6488C10.3516 0 10.0691 0.129891 9.87567 0.355491L1.69822 9.89586C1.54011 10.0804 1.45312 10.3155 1.45312 10.5585V13.5274C1.45312 14.0897 1.90898 14.5456 2.47131 14.5456H5.3484C5.64556 14.5456 5.92803 14.4157 6.12149 14.1901L14.2988 4.64975C14.4571 4.46516 14.5439 4.23011 14.5439 3.98691H14.544Z" fill="#D249FC"/>
<path d="M14.5455 3.62982V1.01818C14.5455 0.455855 14.0896 0 13.5273 0H10.2541C10.206 0 10.1578 0.00349091 10.1101 0.0101818L0.874182 1.3296C0.372655 1.40116 0 1.83084 0 2.33745V6.25571C0 6.81818 0.456 7.27404 1.01847 7.27389L5.65309 7.27273C5.76247 7.27273 5.87113 7.25513 5.97484 7.22051L13.8493 4.59564C14.265 4.45702 14.5455 4.06793 14.5455 3.62967V3.62982Z" fill="url(#paint0_linear_966_4805)"/>
<path d="M16 14.9819V6.48979C16 6.08252 15.7572 5.71437 15.383 5.55394L6.01033 1.53692C5.88364 1.48266 5.74705 1.45459 5.60916 1.45459H1.01818C0.455855 1.45459 0 1.91044 0 2.47277V6.96426C0 7.16543 0.0596364 7.36208 0.171345 7.5295L5.52218 15.5467C5.71098 15.8297 6.0288 15.9996 6.36902 15.9996L14.9818 16C15.5441 16 16 15.5442 16 14.9819Z" fill="url(#paint1_linear_966_4805)"/>
<path d="M13 3H3V13H13V3Z" fill="black"/>
<path d="M4.47656 4.51079H6.10644C6.37215 4.51079 6.60634 4.5596 6.80886 4.65723C7.01138 4.75485 7.16683 4.89214 7.27535 5.06938C7.38562 5.24662 7.44082 5.45175 7.44082 5.68493C7.44082 5.9181 7.38474 6.12962 7.27273 6.30861C7.16247 6.48759 7.00426 6.62691 6.79811 6.72628C6.59385 6.82391 6.35603 6.87272 6.08494 6.87272H5.21719V8.30735H4.47685V4.51079H4.47656ZM6.05748 6.25732C6.18228 6.25732 6.29065 6.23466 6.38291 6.18948C6.4769 6.14241 6.54925 6.0766 6.59981 5.99146C6.65036 5.90473 6.67579 5.80435 6.67579 5.69045C6.67579 5.57655 6.65051 5.47514 6.59981 5.39219C6.5491 5.30706 6.4769 5.24197 6.38291 5.19694C6.29065 5.14987 6.18228 5.12648 6.05748 5.12648H5.21676V6.25732H6.05748ZM9.14799 8.37258C8.86949 8.37258 8.61918 8.32275 8.39675 8.22337C8.17433 8.124 7.99985 7.98468 7.87332 7.8057C7.74678 7.62497 7.68169 7.41897 7.67806 7.1874H8.42116C8.42116 7.29592 8.45283 7.39253 8.51603 7.47752C8.58111 7.56062 8.66872 7.6257 8.77913 7.67277C8.89114 7.71984 9.01782 7.74323 9.15874 7.74323C9.29254 7.74323 9.41181 7.7226 9.5167 7.68091C9.62334 7.63747 9.70658 7.5779 9.76615 7.50192C9.82586 7.42594 9.85564 7.33921 9.85564 7.24158C9.85564 7.12057 9.81859 7.01916 9.7445 6.93781C9.67215 6.85471 9.57176 6.80052 9.44348 6.7751L8.66523 6.62589C8.48261 6.59161 8.32353 6.52652 8.18799 6.43064C8.05419 6.33301 7.95118 6.212 7.87884 6.0673C7.80649 5.92086 7.77031 5.75815 7.77031 5.57916C7.77031 5.35849 7.82901 5.16251 7.94654 4.99064C8.06581 4.81878 8.22939 4.68527 8.43743 4.58924C8.64707 4.49335 8.883 4.44556 9.14523 4.44556C9.40745 4.44556 9.646 4.49263 9.85578 4.58662C10.0673 4.68047 10.2328 4.81166 10.3521 4.97989C10.4732 5.14638 10.5347 5.33786 10.5364 5.55476H9.79608C9.79608 5.46091 9.76804 5.37752 9.71196 5.30531C9.65777 5.23311 9.58179 5.17689 9.48416 5.13723C9.38653 5.09553 9.27627 5.0749 9.15336 5.0749C9.03046 5.0749 8.92281 5.09495 8.82518 5.13461C8.72755 5.17427 8.65157 5.22948 8.59738 5.30008C8.54319 5.36895 8.51603 5.44827 8.51603 5.53878C8.51603 5.64352 8.54944 5.73229 8.61641 5.80449C8.68324 5.87495 8.77637 5.92217 8.89578 5.94556L9.64963 6.08662C9.83951 6.12091 10.0067 6.19064 10.1513 6.29539C10.2977 6.40013 10.4107 6.53132 10.4902 6.68865C10.5697 6.84425 10.6095 7.01408 10.6095 7.19844C10.6095 7.42623 10.5472 7.62962 10.4224 7.80861C10.2976 7.98585 10.1241 8.12415 9.90169 8.22352C9.67927 8.32289 9.42794 8.37272 9.14784 8.37272L9.14799 8.37258Z" fill="white"/>
<path d="M8 11H4.5V11.5H8V11Z" fill="white"/>
</g>
<defs>
<linearGradient id="paint0_linear_966_4805" x1="14.0947" y1="-0.179345" x2="0.688146" y2="6.03651" gradientUnits="userSpaceOnUse">
<stop offset="0.16" stop-color="#D249FC"/>
<stop offset="0.55" stop-color="#FF2D90"/>
</linearGradient>
<linearGradient id="paint1_linear_966_4805" x1="0.995491" y1="1.05561" x2="15.6717" y2="15.732" gradientUnits="userSpaceOnUse">
<stop offset="0.3" stop-color="#FF2D90"/>
<stop offset="0.7" stop-color="#7256FF"/>
</linearGradient>
<clipPath id="clip0_966_4805">
<rect width="16" height="16" fill="white"/>
</clipPath>
</defs>
</svg>
