<svg width="16" height="16" viewBox="0 0 16 16" fill="none" xmlns="http://www.w3.org/2000/svg">
<g clip-path="url(#clip0_966_4807)">
<path d="M12.0118 14.5455L14.9807 14.5451C15.543 14.5451 15.9987 14.0892 15.9987 13.5269V10.6502C15.9987 10.3531 15.8688 10.0706 15.6432 9.87714L6.10287 1.69968C5.91829 1.54157 5.68323 1.45459 5.44018 1.45459H2.47131C1.90898 1.45459 1.45312 1.91044 1.45312 2.47277V5.34986C1.45312 5.64703 1.58302 5.9295 1.80862 6.12295L11.3488 14.3003C11.5334 14.4585 11.7685 14.5454 12.0117 14.5454L12.0118 14.5455Z" fill="#007DFE"/>
<path d="M12.3708 14.5455H14.9824C15.5447 14.5455 16.0006 14.0896 16.0006 13.5273V10.2541C16.0006 10.206 15.9971 10.1578 15.9904 10.1101L14.671 0.874182C14.5993 0.372509 14.1698 0 13.663 0H9.74474C9.18227 0 8.72642 0.456 8.72656 1.01847L8.72773 5.65309C8.72773 5.76247 8.74533 5.87113 8.77994 5.97484L11.4048 13.8493C11.5434 14.265 11.9325 14.5455 12.3708 14.5455Z" fill="url(#paint0_linear_966_4807)"/>
<path d="M1.01818 16H9.51025C9.91753 16 10.2857 15.7572 10.4461 15.383L14.4631 6.01033C14.5174 5.88364 14.5455 5.74705 14.5455 5.60916V1.01818C14.5455 0.455855 14.0896 0 13.5273 0H9.03578C8.83462 0 8.63796 0.0596364 8.47055 0.171345L0.453382 5.52204C0.170327 5.71098 0.000436364 6.02865 0.000436364 6.36887L0 14.9818C0 15.5441 0.455855 16 1.01818 16Z" fill="url(#paint1_linear_966_4807)"/>
<path d="M13 3H3V13H13V3Z" fill="black"/>
<path d="M8 11H4.5V11.5H8V11Z" fill="white"/>
<path d="M5.21378 6.86483H5.85327L6.67131 8.29997H7.52091L6.6162 6.77788C6.67655 6.75868 6.74067 6.74473 6.79621 6.71899C7.00254 6.61721 7.16089 6.47805 7.27125 6.29833C7.38336 6.11847 7.43948 5.91156 7.43948 5.67397C7.43948 5.43638 7.38423 5.2363 7.27387 5.05993C7.16525 4.88355 7.00967 4.7444 6.80697 4.64611C6.60428 4.54767 6.36989 4.50012 6.10394 4.50012H4.47266V8.29997H5.21364V6.86483H5.21378ZM5.21378 5.11751H6.05523C6.18014 5.11751 6.28861 5.14135 6.38094 5.18541C6.47502 5.23296 6.54743 5.29737 6.59803 5.38229C6.64863 5.46706 6.67407 5.5655 6.67407 5.6808C6.67407 5.79611 6.64877 5.89455 6.59803 5.98281C6.54728 6.06758 6.47502 6.13214 6.38094 6.17954C6.28861 6.22694 6.18014 6.24744 6.05523 6.24744H5.21378V5.11765V5.11751Z" fill="white"/>
<path d="M11.1497 5.42288C10.9886 5.13454 10.7651 4.90713 10.4792 4.74428C10.1951 4.58143 9.87305 4.5 9.51303 4.5H8.06641V8.29984H9.51303C9.87305 8.29984 10.1951 8.21842 10.4792 8.05557C10.7651 7.89271 10.9886 7.66879 11.1497 7.38046C11.3107 7.08863 11.3912 6.76292 11.3912 6.4C11.3912 6.03707 11.3107 5.71122 11.1497 5.42288ZM10.4929 7.07176C10.4006 7.26181 10.2694 7.4075 10.0993 7.50594C9.92918 7.60787 9.73099 7.65861 9.50489 7.65861H8.80738V5.14123H9.50489C9.73099 5.14123 9.92918 5.19212 10.0993 5.29376C10.2694 5.3922 10.4006 5.53819 10.4929 5.72808C10.5852 5.91813 10.6313 6.1419 10.6313 6.39985C10.6313 6.6578 10.5852 6.88157 10.4929 7.07162V7.07176Z" fill="white"/>
</g>
<defs>
<linearGradient id="paint0_linear_966_4807" x1="16.1799" y1="14.0945" x2="9.96424" y2="0.688145" gradientUnits="userSpaceOnUse">
<stop offset="0.21" stop-color="#007DFE"/>
<stop offset="0.55" stop-color="#FFB700"/>
</linearGradient>
<linearGradient id="paint1_linear_966_4807" x1="14.9444" y1="0.995346" x2="0.268218" y2="15.6717" gradientUnits="userSpaceOnUse">
<stop offset="0.23" stop-color="#FFB700"/>
<stop offset="0.73" stop-color="#FF0A67"/>
</linearGradient>
<clipPath id="clip0_966_4807">
<rect width="16" height="16" fill="white"/>
</clipPath>
</defs>
</svg>
