<svg width="16" height="16" viewBox="0 0 16 16" fill="none" xmlns="http://www.w3.org/2000/svg">
<g clip-path="url(#clip0_966_4808)">
<path d="M14.9804 0H6.48833C6.08105 0 5.71291 0.242764 5.55247 0.617018L1.53545 9.98967C1.4812 10.1164 1.45312 10.2529 1.45312 10.3908V14.9818C1.45312 15.5441 1.90898 16 2.47131 16H6.9628C7.16396 16 7.36062 15.9404 7.52803 15.8287L15.5452 10.4778C15.8283 10.289 15.9981 9.9712 15.9981 9.63098L15.9986 1.01818C15.9986 0.455855 15.5427 0 14.9804 0Z" fill="url(#paint0_linear_966_4808)"/>
<path d="M3.62982 1.45459H1.01818C0.455855 1.45459 0 1.91044 0 2.47277V5.74594C0 5.79408 0.00349091 5.84223 0.0101818 5.88994L1.32945 15.1259C1.40116 15.6275 1.83069 16 2.33745 16H6.25571C6.81818 16 7.27404 15.544 7.27389 14.9816L7.27273 10.347C7.27273 10.2376 7.25513 10.1289 7.22051 10.0252L4.59578 2.15074C4.45716 1.73503 4.06807 1.45459 3.62982 1.45459Z" fill="url(#paint1_linear_966_4808)"/>
<path d="M3.98691 1.45459L1.01804 1.45503C0.455854 1.45517 0 1.91103 0 2.47321V5.34986C0 5.64703 0.129891 5.9295 0.355491 6.12295L9.89571 14.3004C10.0803 14.4585 10.3153 14.5455 10.5584 14.5455H13.5273C14.0896 14.5455 14.5455 14.0896 14.5455 13.5273V10.6502C14.5455 10.3531 14.4156 10.0706 14.19 9.87714L4.64975 1.69983C4.46516 1.54157 4.23011 1.45474 3.98691 1.45474V1.45459Z" fill="#FF8100"/>
<path d="M13 3H3V13H13V3Z" fill="black"/>
<path d="M6.75161 6.67871C6.95432 6.581 7.10975 6.444 7.21832 6.268C7.32846 6.09029 7.38361 5.88571 7.38361 5.65457C7.38361 5.42343 7.32932 5.22357 7.22089 5.04929C7.11418 4.875 6.96132 4.74 6.76218 4.644C6.56304 4.548 6.33289 4.5 6.07146 4.5H4.46875V8.23329H5.19675V6.82257H5.82404L6.62889 8.23329H7.46361L6.57389 6.73757C6.63361 6.71857 6.69689 6.70486 6.75161 6.67871ZM5.19704 5.10529H6.02375C6.14646 5.10529 6.25304 5.12829 6.34375 5.17457C6.43618 5.21886 6.50732 5.283 6.55704 5.36657C6.60675 5.44814 6.63175 5.54614 6.63175 5.65986C6.63175 5.77357 6.60689 5.87057 6.55704 5.95586C6.50732 6.03957 6.43618 6.10414 6.34375 6.15057C6.25304 6.19486 6.14646 6.21729 6.02375 6.21729H5.19704V5.10529Z" fill="white"/>
<path d="M10.6426 4.5L9.90129 6.95071L9.84529 7.27071L9.78129 6.95071L9.01329 4.5H8V8.23343H8.71729V5.56943L8.70657 5.39343L9.56529 8.23343H10.0933L10.9626 5.37471L10.952 5.56943V8.23343H11.672V4.5H10.6426Z" fill="white"/>
<path d="M8 11H4.5V11.5H8V11Z" fill="white"/>
</g>
<defs>
<linearGradient id="paint0_linear_966_4808" x1="1.05414" y1="15.0047" x2="15.7304" y2="0.328291" gradientUnits="userSpaceOnUse">
<stop offset="0.29" stop-color="#FF2358"/>
<stop offset="0.75" stop-color="#7256FF"/>
</linearGradient>
<linearGradient id="paint1_linear_966_4808" x1="-0.179346" y1="1.9055" x2="6.03636" y2="15.3119" gradientUnits="userSpaceOnUse">
<stop offset="0.29" stop-color="#FF8100"/>
<stop offset="0.56" stop-color="#FF2358"/>
</linearGradient>
<clipPath id="clip0_966_4808">
<rect width="16" height="16" fill="white"/>
</clipPath>
</defs>
</svg>
