<svg width="16" height="16" viewBox="0 0 16 16" fill="none" xmlns="http://www.w3.org/2000/svg">
<path fill-rule="evenodd" clip-rule="evenodd" d="M0 16H16V9H0V16Z" fill="#62B543" fill-opacity="0.7"/>
<path fill-rule="evenodd" clip-rule="evenodd" d="M7 1L3 5H7V1Z" fill="#9AA7B0" fill-opacity="0.8"/>
<path fill-rule="evenodd" clip-rule="evenodd" d="M8 1V6H3V8H13V1H8Z" fill="#9AA7B0" fill-opacity="0.8"/>
<path d="M3.912 11.4161V12.1126H3.8945V16H4.724V11.4161H3.912ZM2.666 15.0841C2.96233 15.0841 3.2225 15.0188 3.4465 14.8881C3.6705 14.7574 3.84433 14.5731 3.968 14.3351C4.094 14.0971 4.15933 13.8218 4.164 13.5091H3.9155V12.9071H4.164C4.15933 12.5944 4.094 12.3191 3.968 12.0811C3.84433 11.8431 3.66933 11.6588 3.443 11.5281C3.219 11.3974 2.96 11.3321 2.666 11.3321C2.34167 11.3321 2.0535 11.4114 1.8015 11.5701C1.5495 11.7264 1.35233 11.9469 1.21 12.2316C1.07 12.5163 1 12.8418 1 13.2081C1 13.5744 1.07 13.8999 1.21 14.1846C1.35233 14.4693 1.5495 14.6909 1.8015 14.8496C2.05583 15.0059 2.344 15.0841 2.666 15.0841ZM2.8725 14.3386C2.6765 14.3386 2.5015 14.2908 2.3475 14.1951C2.19583 14.0994 2.07683 13.9664 1.9905 13.7961C1.9065 13.6258 1.8645 13.4298 1.8645 13.2081C1.8645 12.9864 1.9065 12.7904 1.9905 12.6201C2.07683 12.4498 2.19583 12.3168 2.3475 12.2211C2.5015 12.1254 2.6765 12.0776 2.8725 12.0776C3.07317 12.0776 3.2505 12.1254 3.4045 12.2211C3.5585 12.3168 3.67867 12.4498 3.765 12.6201C3.85133 12.7904 3.8945 12.9864 3.8945 13.2081C3.8945 13.4298 3.85133 13.6258 3.765 13.7961C3.67867 13.9664 3.5585 14.0994 3.4045 14.1951C3.2505 14.2908 3.07317 14.3386 2.8725 14.3386Z" fill="#1B1B1B"/>
<path d="M5.70236 11.4161H6.51086V12.9071H6.30086C6.30319 12.5851 6.35453 12.3063 6.45486 12.0706C6.55753 11.8326 6.70336 11.6506 6.89236 11.5246C7.08369 11.3963 7.30886 11.3321 7.56786 11.3321C7.82219 11.3321 8.04153 11.3904 8.22586 11.5071C8.41019 11.6214 8.55136 11.7848 8.64936 11.9971C8.74969 12.2094 8.79986 12.4568 8.79986 12.7391V15.0001H7.98786V12.8371C7.98786 12.6784 7.96103 12.5408 7.90736 12.4241C7.85369 12.3074 7.77436 12.2176 7.66936 12.1546C7.56669 12.0916 7.44419 12.0601 7.30186 12.0601C7.14786 12.0601 7.01253 12.0951 6.89586 12.1651C6.77919 12.2351 6.68936 12.3354 6.62636 12.4661C6.56569 12.5944 6.53536 12.7461 6.53536 12.9211V15.0001H5.70236V11.4161ZM10.2559 12.8371C10.2559 12.6784 10.2279 12.5408 10.1719 12.4241C10.1182 12.3074 10.04 12.2176 9.93736 12.1546C9.83703 12.0916 9.71453 12.0601 9.56986 12.0601C9.41586 12.0601 9.28053 12.0963 9.16386 12.1686C9.04953 12.2386 8.95969 12.3378 8.89436 12.4661C8.83136 12.5944 8.79986 12.7461 8.79986 12.9211L8.45686 12.9071C8.45686 12.5944 8.51286 12.3191 8.62486 12.0811C8.73686 11.8431 8.89553 11.6588 9.10086 11.5281C9.30619 11.3974 9.54536 11.3321 9.81836 11.3321C10.0727 11.3321 10.2955 11.3904 10.4869 11.5071C10.6805 11.6214 10.8287 11.7848 10.9314 11.9971C11.0364 12.2094 11.0889 12.4568 11.0889 12.7391V15.0001H10.2559V12.8371Z" fill="#1B1B1B"/>
<path d="M12.0188 10.1001H12.8483V15.0001H12.0188V10.1001Z" fill="#1B1B1B"/>
</svg>
