<svg width="16" height="16" viewBox="0 0 16 16" xmlns="http://www.w3.org/2000/svg">
  <path fill="#CED0D6" d="M2.5 4a.5.5 0 1 0 0-1 .5.5 0 0 0 0 1Zm-1 0a.5.5 0 1 0 0 1 .5.5 0 0 0 0-1Zm1 2a.5.5 0 1 0 0-1 .5.5 0 0 0 0 1Zm-1 0a.5.5 0 1 0 0 1 .5.5 0 0 0 0-1Zm1 2a.5.5 0 1 0 0-1 .5.5 0 0 0 0 1Zm-1 0a.5.5 0 1 0 0 1 .5.5 0 0 0 0-1Zm1 2a.5.5 0 1 0 0-1 .5.5 0 0 0 0 1Zm-1 0a.5.5 0 1 0 0 1 .5.5 0 0 0 0-1Zm0 2a.5.5 0 1 0 0 1 .5.5 0 0 0 0-1Zm1 0a.5.5 0 1 0 0-1 .5.5 0 0 0 0 1Zm2-10a.5.5 0 1 0 0-1 .5.5 0 0 0 0 1Zm-1 0a.5.5 0 1 0 0 1 .5.5 0 0 0 0-1Zm1 2a.5.5 0 1 0 0-1 .5.5 0 0 0 0 1Zm-1 0a.5.5 0 1 0 0 1 .5.5 0 0 0 0-1Zm1 2a.5.5 0 1 0 0-1 .5.5 0 0 0 0 1Zm-1 0a.5.5 0 1 0 0 1 .5.5 0 0 0 0-1Zm1 2a.5.5 0 1 0 0-1 .5.5 0 0 0 0 1Zm-1 0a.5.5 0 1 0 0 1 .5.5 0 0 0 0-1Zm1 2a.5.5 0 1 0 0-1 .5.5 0 0 0 0 1Zm-1 0a.5.5 0 1 0 0 1 .5.5 0 0 0 0-1Z"/>
  <path fill="none" stroke="#CED0D6" stroke-linecap="round" stroke-linejoin="round" d="m12.5.5-4 4-3 6-2.788 2.788a.71.71 0 0 0 .502 1.212h1.992a.71.71 0 0 0 .502-.208L7.5 12.5l6-3 2-2m-2 2-5-5m-3 6 2 2"/>
</svg>
