<svg width="16" height="16" viewBox="0 0 16 16" fill="none" xmlns="http://www.w3.org/2000/svg">
  <g clip-path="url(#clip0_8216_14026)">
    <path fill-rule="evenodd" clip-rule="evenodd"
          d="M6.95697 11.622C7.00214 11.3746 7.13767 11.1272 7.04732 10.9293C7.0071 11.083 6.77627 11.3252 6.68592 11.4241C6.59556 11.5231 6.59556 11.5231 6.41486 11.622C5.81489 11.7563 5.29834 11.7393 4.69821 11.622C4.4163 11.5726 3.74345 11.1111 3.70436 10.9293C3.6925 11.1329 3.70436 11.3252 3.88506 11.622C4.06576 11.9189 4.06576 12.2158 4.06576 12.4137C4.06576 12.6116 3.94536 12.7779 3.79471 13.1064C3.80722 13.3137 3.845 13.4044 3.79471 13.6012C3.71106 13.9282 3.38482 13.7669 3.16226 13.7001C2.8882 13.618 2.47767 13.6055 2.62016 13.2053C2.74557 12.8532 2.73958 12.3128 2.80086 11.8199C2.29876 11.0277 1.89658 10.11 1.807 9.14811C1.73743 8.40118 1.84013 7.92271 1.9877 7.46584C2.22153 6.74197 2.45664 6.28814 2.98156 5.78357C3.68957 5.10313 4.02332 4.96674 5.05961 4.794C4.81042 5.09952 4.80503 5.13429 4.53629 5.48071C4.26424 5.83148 4.10256 6.18571 3.92986 6.56932C3.69122 7.09916 3.69633 7.30078 4.01269 7.7659C4.2853 8.16676 4.43246 8.34725 4.55148 8.73942C4.45318 8.96136 4.41745 9.14888 4.38439 9.45194C4.71818 9.85153 4.96621 10.1254 5.29029 10.2097C5.60818 10.2925 5.87367 10.2764 6.15805 10.1172C6.78973 9.76351 7.50933 9.26595 8.22187 9.24706C8.55151 8.35941 8.38304 7.65864 8.22476 6.79983C8.11669 6.21333 7.98445 5.58985 7.95082 4.99191C7.69207 5.46804 7.4903 6.45665 7.58942 7.07001C7.70897 7.80922 7.67977 8.05958 7.58942 8.45541C7.13767 8.55436 7.08594 8.71974 6.50521 9.04915C6.27182 9.1816 5.69206 9.34602 5.42101 9.24706C5.14996 9.14811 5.28364 8.85108 5.42101 8.55436C5.64174 8.07783 6.23788 5.90614 6.50521 5.43722C6.17783 5.87006 5.13658 7.5255 4.87891 7.96062C4.78042 7.65327 4.69821 7.46584 4.51751 7.26792C4.33681 7.07001 4.86924 6.07891 5.16083 5.73409C5.66464 5.13819 5.77355 4.7871 6.32451 4.20025C6.62365 3.88161 6.77626 3.80443 7.13767 3.60651C7.49907 3.4086 8.0368 3.50167 8.40257 3.4086C8.22187 3.21068 8.04117 3.11173 7.77012 3.11173C8.04117 2.61694 8.21368 2.58194 8.76397 2.32007C9.45098 1.99326 9.60077 1.96022 10.0289 1.97372C10.445 1.98685 10.6788 2.08446 11.2034 2.56746C11.4792 2.82142 11.7369 2.9421 12.0166 3.16121C11.9152 3.1707 12.1106 3.26591 11.9951 3.31563C12.1357 3.28628 12.1417 3.3299 12.2876 3.35912C12.3286 3.38823 12.3662 3.3872 12.4683 3.45808C12.6605 3.5915 12.7866 3.65012 12.9201 3.8539C13.0612 4.06925 13.1221 4.40246 13.079 4.39792C12.9936 4.38893 12.9119 4.41193 12.8438 4.45782C12.8411 4.45922 12.8384 4.46058 12.8356 4.46205C12.7264 4.52027 12.5572 4.58667 12.444 4.6068C12.5017 4.62863 12.6294 4.63681 12.6897 4.6107C12.6978 4.60718 12.706 4.60451 12.7144 4.60229C12.6872 4.65293 12.6695 4.71047 12.664 4.7726C12.6568 4.85498 12.6721 4.93405 12.7044 5.0027C12.715 5.02976 12.7292 5.05409 12.7448 5.07159C12.693 5.09243 12.6402 5.11631 12.5858 5.14222C12.8382 5.10009 12.9447 5.10477 13.1911 5.14035C13.2074 5.22543 13.345 5.30364 13.3601 5.39535C13.3296 5.39802 13.2991 5.40055 13.2686 5.40318C13.2662 5.40342 13.2637 5.40366 13.2612 5.4039C13.1446 5.30183 13.0147 5.31899 12.8372 5.36335C12.2976 5.49814 12.4244 5.82984 12.1761 6.32958C12.4339 5.98443 12.4148 5.62332 12.8349 5.51434C12.9328 5.48896 12.9994 5.45721 13.0657 5.46811C12.9464 5.53382 12.8432 5.64273 12.8023 5.76919C12.687 6.12583 12.7586 6.42632 12.632 6.75942C12.7889 6.46166 12.7983 6.17103 12.9386 5.85776C12.989 5.7452 13.1761 5.56506 13.2909 5.56228C13.3224 5.56156 13.3538 5.56082 13.3854 5.56007C13.413 5.75832 13.3826 6.06561 13.3718 6.22887C13.3523 6.52677 13.2334 6.85135 13.1911 7.02053C13.3718 7.07001 13.6429 6.87209 13.8236 6.37731C14.0043 5.88252 13.9708 5.52357 13.9139 5.18982C13.8358 4.73187 14.0253 5.05929 14.2753 4.84347C14.4591 4.68479 14.6489 4.4292 14.8174 4.24973C14.9846 4.07177 15.124 4.47156 15.1897 4.64556C15.4748 5.40079 15.4348 6.01182 15.3595 6.77314C15.2751 7.62743 14.9742 8.38115 14.2862 8.80176C13.4092 9.33786 12.447 9.02431 11.5757 8.7028C11.3897 8.63418 11.1067 8.51872 10.9432 8.40593C10.9878 8.62544 10.9494 9.07129 10.9432 9.29654C10.9324 9.69237 10.9822 9.86844 11.0928 9.97832C11.2034 10.0882 11.2654 10.0882 11.3841 10.0882C11.5648 10.0882 11.8359 9.98924 11.9262 9.79133C12.0166 9.59341 12.0166 9.54393 12.0166 9.44498C12.0827 9.46729 12.2175 9.52537 12.2876 9.54393C12.2876 9.54393 12.2256 9.66583 12.186 9.80719C12.0833 10.1742 11.7455 10.484 11.3841 10.484C11.0227 10.484 10.7958 10.2329 10.5702 10.0132C10.4148 9.86173 10.2653 9.71684 10.1171 9.57336C9.71046 9.43285 9.5931 9.15723 9.21572 8.85123C9.12537 9.44498 9.21572 9.64289 9.57712 9.93976C9.52262 10.5483 9.38556 10.8304 9.21572 11.2262C9.10675 11.4802 8.56558 12.4097 8.40257 12.5126C8.28632 12.586 7.72641 13.2157 7.58942 13.3043C7.48742 13.4527 7.38135 13.7103 7.22802 13.7991C6.76072 14.0697 6.62272 13.8586 6.41486 13.4033C6.32451 13.2053 6.23416 13.0074 6.41486 12.9085C6.59556 12.8095 6.78713 12.5126 6.86662 12.4137C6.9461 12.3147 6.91179 11.8694 6.95697 11.622ZM9.75782 11.622C9.7143 11.8064 9.57712 12.0179 9.48677 12.2158C9.39642 12.4137 9.1876 12.7756 9.03502 12.9085C9.06472 12.9347 9.15857 13.0207 9.25567 13.0306C9.32437 13.0377 9.5952 13.0392 9.6632 13.0406C9.81292 13.0437 9.86974 13.0303 9.88488 12.8281C9.89227 12.7292 9.88575 12.7107 9.844 12.6239C9.8403 12.4692 9.8366 12.3144 9.83293 12.1597C9.82945 12.013 9.77785 11.699 9.75782 11.622ZM1.96608 11.9759L1.96602 11.983C1.95067 12.0534 1.93289 12.1221 1.89563 12.1772C1.72039 12.4361 1.27461 12.056 1.14558 11.9106C1.00453 11.7516 0.910118 11.5632 0.887641 11.3866C0.871297 11.2577 0.887157 11.2546 0.968566 11.1635C1.07828 11.0408 1.1881 10.9181 1.29777 10.7955C1.32178 10.7246 1.34587 10.6538 1.36988 10.583C1.49975 11.0789 1.7209 11.5662 1.96608 11.9759ZM7.73908 14.0915C7.59299 14.3304 7.57495 14.4782 7.34091 14.6169C6.64421 15.0298 6.27444 14.5509 5.86203 13.8548C5.66552 13.5231 5.23585 12.7658 5.6918 12.5091C5.88391 12.401 6.02951 12.3199 6.17475 12.2272C5.69643 12.2923 5.22698 12.293 4.73885 12.2126C4.74749 12.2771 4.75502 12.3385 4.76112 12.3948C4.79285 12.6869 4.78856 12.8095 4.69821 13.0074C4.60786 13.2053 4.51751 13.3043 4.42716 13.4033C4.45038 13.6568 4.49247 13.9789 4.42716 14.2444C4.28198 14.8345 3.18108 14.4734 2.77115 14.3519C2.27789 14.2058 1.57306 14.0698 1.86227 13.3752C1.93004 13.2125 1.98326 13.0461 2.02331 12.8873C1.59201 13.0964 0.99264 12.6529 0.70718 12.3395C0.435663 12.0413 0.28817 11.6951 0.236782 11.3591C0.193021 11.0732 0.233089 11.0745 0.419397 10.8724C0.58984 10.6876 0.760225 10.5026 0.930622 10.3179C0.999428 10.1127 1.06836 9.90776 1.13713 9.70275C1.11033 9.5496 1.0904 9.39684 1.07853 9.24555C1.02903 8.61477 1.04566 8.16557 1.12794 7.75262C0.827834 7.88087 0.483474 7.8208 0.33031 7.47196C0.272065 7.33934 0.237369 7.20426 0.193378 7.00814C-0.476074 6.30168 0.778459 5.37553 1.14444 5.30587C1.1026 5.43609 1.05675 5.55521 1.01641 5.67333C1.26461 5.81405 1.23418 6.21503 1.18148 6.47319C1.0922 6.34979 1.04286 6.18842 0.911537 6.18149C0.892303 6.47344 0.895627 6.79606 0.687451 6.96747C0.749078 7.1479 0.745845 7.14805 0.920994 7.07429C1.16974 6.9694 1.35705 6.73573 1.54548 6.50769C1.74841 6.07474 2.00853 5.68962 2.36639 5.34213C3.24578 4.48819 4.077 4.20882 5.41543 3.9752C5.59358 3.77158 5.77769 3.57511 5.97531 3.38407C6.24304 3.1253 6.41688 3.07158 6.67009 3.05711C7.0891 2.44326 7.41878 2.01577 8.10192 1.70083C9.53385 1.04069 10.5208 1.00887 11.6702 2.04678C12.05 2.38972 12.3739 2.75114 12.7913 3.03743C13.0025 3.18231 13.1535 3.28644 13.3136 3.49532C13.515 3.75818 13.6795 4.02105 13.794 4.3594C13.9419 4.29272 14.1106 4.2299 14.2468 4.10239C14.4227 3.93781 14.5346 3.66232 14.6974 3.48149C14.9136 3.24152 15.4068 3.53121 15.516 3.76015C15.8875 4.53869 16.0379 5.52232 15.992 6.37731C15.9016 8.05958 15.4659 8.87871 14.6174 9.37466C14.0405 9.71179 13.402 9.87904 12.7394 9.74185C12.649 10.3356 12.1069 11.1272 11.4745 11.1272C10.842 11.1272 10.842 11.0283 10.571 10.8304C10.3953 10.7021 10.198 10.4961 10.1868 10.5215C10.1635 10.5742 10.1298 10.6165 10.1192 10.6819C10.2335 10.9291 10.1737 10.7335 10.2715 10.9883C10.3791 11.2688 10.4315 11.453 10.4389 11.7533C10.4454 12.0198 10.4519 12.2864 10.4584 12.553C10.567 12.7642 10.5764 12.8156 10.5606 13.0573C10.5272 13.5668 10.271 13.6154 9.84406 13.6125C9.70182 13.6115 9.1649 13.6151 9.02804 13.6043C8.75597 13.5827 8.57662 13.56 8.48287 13.4369C8.23559 13.6557 7.81975 14.043 7.73908 14.0915ZM10.0897 5.74025C10.0499 5.64909 10.0308 5.55291 10.0301 5.45792C9.88356 5.58572 9.72421 5.70688 9.55885 5.77689C9.78716 5.55434 10.0973 5.02946 10.322 4.86378C10.577 4.67569 10.923 4.7123 11.2204 4.56217C11.1189 4.66285 10.9888 4.74397 10.8563 4.82119C11.0022 4.87949 11.1283 4.99744 11.2003 5.16207C11.2306 5.2315 11.2487 5.30399 11.2561 5.37653C11.4558 5.30491 11.6519 5.27101 11.8176 5.27361C11.225 5.45521 10.5946 5.87992 10.16 6.44235C10.2088 6.29567 10.277 6.16331 10.3592 6.0451C10.2453 5.9801 10.1491 5.87618 10.0897 5.74025Z"
          fill="#CED0D6"/>
  </g>
  <defs>
    <clipPath id="clip0_8216_14026">
      <rect width="16" height="16" fill="white"/>
    </clipPath>
  </defs>
</svg>
