<svg width="20" height="20" viewBox="0 0 20 20" fill="none" xmlns="http://www.w3.org/2000/svg">
  <path fill-rule="evenodd" clip-rule="evenodd"
        d="M8.69621 14.525C8.75268 14.2158 8.92208 13.9066 8.80914 13.6592C8.75887 13.8513 8.47033 14.1539 8.35739 14.2776C8.24446 14.4013 8.24446 14.4013 8.01858 14.525C7.26861 14.6929 6.62293 14.6716 5.87276 14.525C5.52037 14.4632 4.67931 13.8863 4.63045 13.6592C4.61563 13.9136 4.63045 14.1539 4.85632 14.525C5.0822 14.8961 5.0822 15.2672 5.0822 15.5146C5.0822 15.762 4.9317 15.9698 4.74339 16.3805C4.75903 16.6396 4.80624 16.753 4.74339 16.999C4.63883 17.4078 4.23103 17.2061 3.95282 17.1227C3.61025 17.02 3.09709 17.0044 3.27519 16.5042C3.43196 16.064 3.42448 15.3884 3.50107 14.7724C2.87344 13.7822 2.37073 12.635 2.25875 11.4326C2.17179 10.499 2.30017 9.90088 2.48463 9.32979C2.77691 8.42496 3.0708 7.85766 3.72695 7.22695C4.61196 6.37641 5.02915 6.20592 6.32451 5.98999C6.01303 6.37189 6.00629 6.41535 5.67037 6.84838C5.33031 7.28684 5.12821 7.72964 4.91232 8.20914C4.61403 8.87145 4.62041 9.12346 5.01586 9.70487C5.35662 10.2059 5.54058 10.4316 5.68935 10.9218C5.56647 11.1992 5.52181 11.4336 5.48049 11.8124C5.89773 12.3119 6.20776 12.6542 6.61287 12.7597C7.01023 12.8631 7.34209 12.843 7.69756 12.644C8.48716 12.2019 9.38666 11.5799 10.2773 11.5563C10.6894 10.4468 10.4788 9.5708 10.281 8.49729C10.1459 7.76416 9.98057 6.98481 9.93852 6.23738C9.61509 6.83255 9.36287 8.0683 9.48677 8.835C9.63621 9.75902 9.59971 10.072 9.48677 10.5668C8.92208 10.6904 8.85743 10.8972 8.13152 11.3089C7.83977 11.4745 7.11508 11.68 6.77626 11.5563C6.43745 11.4326 6.60456 11.0613 6.77626 10.6904C7.05218 10.0948 7.79734 7.38017 8.13152 6.79401C7.72228 7.33507 6.42072 9.40437 6.09864 9.94827C5.97552 9.56408 5.87276 9.32979 5.64689 9.0824C5.42101 8.835 6.08655 7.59613 6.45103 7.1651C7.0808 6.42024 7.21693 5.98136 7.90564 5.24781C8.27956 4.84951 8.47033 4.75303 8.92208 4.50563C9.37383 4.25824 10.046 4.37458 10.5032 4.25824C10.2773 4.01085 10.0515 3.88715 9.71265 3.88715C10.0515 3.26867 10.2671 3.22492 10.955 2.89758C11.8137 2.48907 12.001 2.44776 12.5361 2.46464C13.0563 2.48105 13.3485 2.60306 14.0043 3.20682C14.3491 3.52426 14.6711 3.67512 15.0207 3.949C14.894 3.96087 15.1383 4.07988 14.9938 4.14203C15.1697 4.10534 15.1771 4.15987 15.3595 4.19639C15.4108 4.23278 15.4578 4.23149 15.5854 4.32009C15.8256 4.48686 15.9832 4.56014 16.1501 4.81487C16.3265 5.08405 16.4027 5.50057 16.3488 5.49489C16.242 5.48365 16.1399 5.5124 16.0548 5.56977C16.0514 5.57151 16.048 5.57322 16.0445 5.57506C15.908 5.64784 15.6965 5.73083 15.555 5.75599C15.6271 5.78328 15.7868 5.7935 15.8621 5.76086C15.8722 5.75646 15.8825 5.75313 15.893 5.75036C15.859 5.81366 15.8368 5.88558 15.83 5.96324C15.821 6.06622 15.8401 6.16505 15.8805 6.25087C15.8937 6.28469 15.9115 6.3151 15.931 6.33698C15.8663 6.36303 15.8003 6.39289 15.7322 6.42527C16.0478 6.3726 16.1809 6.37846 16.4889 6.42293C16.5092 6.52928 16.6812 6.62705 16.7002 6.74169C16.662 6.74502 16.6239 6.74818 16.5858 6.75146C16.5827 6.75177 16.5796 6.75207 16.5765 6.75237C16.4308 6.62479 16.2684 6.64623 16.0466 6.70168C15.372 6.87017 15.5305 7.28479 15.2201 7.90947C15.5423 7.47803 15.5185 7.02664 16.0436 6.89042C16.166 6.85869 16.2493 6.819 16.3321 6.83264C16.183 6.91477 16.054 7.0509 16.0029 7.20898C15.8588 7.65478 15.9483 8.0304 15.7899 8.44676C15.9861 8.07456 15.9979 7.71128 16.1733 7.31969C16.2363 7.179 16.4701 6.95382 16.6136 6.95035C16.653 6.94945 16.6923 6.94851 16.7317 6.94758C16.7663 7.19539 16.7282 7.5795 16.7148 7.78358C16.6903 8.15595 16.5418 8.56169 16.4889 8.77316C16.7148 8.835 17.0536 8.58761 17.2795 7.96913C17.5054 7.35065 17.4636 6.90195 17.3924 6.48477C17.2948 5.91233 17.5317 6.3216 17.8442 6.05184C18.0739 5.85348 18.3112 5.534 18.5218 5.30966C18.7307 5.08721 18.905 5.58695 18.9871 5.80444C19.3434 6.74849 19.2935 7.51226 19.1994 8.46391C19.0938 9.53179 18.7177 10.4739 17.8577 10.9997C16.7615 11.6698 15.5588 11.2779 14.4696 10.876C14.2371 10.7902 13.8834 10.6459 13.679 10.5049C13.7347 10.7793 13.6868 11.3366 13.679 11.6182C13.6655 12.113 13.7277 12.333 13.866 12.4704C14.0043 12.6077 14.0817 12.6077 14.2302 12.6077C14.456 12.6077 14.7948 12.484 14.9078 12.2367C15.0207 11.9893 15.0207 11.9274 15.0207 11.8037C15.1034 11.8316 15.2719 11.9042 15.3595 11.9274C15.3595 11.9274 15.282 12.0798 15.2326 12.2565C15.1041 12.7153 14.6819 13.1025 14.2302 13.1025C13.7784 13.1025 13.4947 12.7887 13.2128 12.514C13.0185 12.3247 12.8316 12.1435 12.6463 11.9642C12.1381 11.7886 11.9914 11.444 11.5197 11.0615C11.4067 11.8037 11.5197 12.0511 11.9714 12.4222C11.9033 13.1829 11.7319 13.5355 11.5197 14.0302C11.3834 14.3477 10.707 15.5097 10.5032 15.6383C10.3579 15.73 9.65801 16.5171 9.48677 16.6279C9.35928 16.8134 9.22669 17.1354 9.03502 17.2464C8.4509 17.5846 8.2784 17.3207 8.01858 16.7516C7.90564 16.5042 7.7927 16.2568 8.01858 16.1331C8.24446 16.0094 8.48391 15.6383 8.58327 15.5146C8.68263 15.3909 8.63974 14.8343 8.69621 14.525ZM12.1973 14.525C12.1429 14.7554 11.9714 15.0198 11.8585 15.2672C11.7455 15.5146 11.4845 15.967 11.2938 16.1331C11.3309 16.1659 11.4482 16.2734 11.5696 16.2858C11.6555 16.2946 11.994 16.2965 12.079 16.2982C12.2661 16.3021 12.3372 16.2854 12.3561 16.0327C12.3653 15.909 12.3572 15.8858 12.305 15.7774C12.3004 15.584 12.2958 15.3905 12.2912 15.1971C12.2868 15.0137 12.2223 14.6213 12.1973 14.525ZM2.4576 14.9673L2.45752 14.9763C2.43833 15.0643 2.41611 15.1501 2.36954 15.219C2.15049 15.5426 1.59326 15.0675 1.43197 14.8857C1.25566 14.6869 1.13765 14.4515 1.10955 14.2307C1.08912 14.0697 1.10895 14.0658 1.21071 13.9518C1.34785 13.7985 1.48513 13.6451 1.62221 13.4919C1.65222 13.4033 1.68234 13.3148 1.71235 13.2262C1.87468 13.8461 2.15113 14.4553 2.4576 14.9673ZM9.67384 17.6119C9.49123 17.9104 9.46869 18.0952 9.17614 18.2686C8.30526 18.7848 7.84306 18.1862 7.32753 17.316C7.08189 16.9014 6.54482 15.9548 7.11475 15.6339C7.35488 15.4987 7.53689 15.3974 7.71844 15.2816C7.12053 15.3628 6.53373 15.3638 5.92356 15.2632C5.93436 15.3439 5.94378 15.4206 5.9514 15.491C5.99106 15.8561 5.9857 16.0094 5.87276 16.2568C5.75983 16.5042 5.64689 16.6279 5.53395 16.7516C5.56297 17.0685 5.61559 17.4711 5.53395 17.803C5.35247 18.5406 3.97635 18.0892 3.46393 17.9374C2.84736 17.7548 1.96633 17.5847 2.32784 16.7165C2.41255 16.5131 2.47908 16.3051 2.52913 16.1067C1.99001 16.368 1.2408 15.8136 0.883975 15.4218C0.544579 15.0491 0.360213 14.6163 0.295978 14.1964C0.241276 13.8389 0.291362 13.8407 0.524246 13.588C0.7373 13.357 0.950282 13.1257 1.16328 12.8949C1.24928 12.6384 1.33545 12.3822 1.42141 12.1259C1.38791 11.9345 1.363 11.7435 1.34816 11.5544C1.28628 10.766 1.30708 10.2045 1.40992 9.68827C1.03479 9.84859 0.604342 9.77349 0.412887 9.33744C0.340081 9.17167 0.296711 9.00282 0.241722 8.75767C-0.595093 7.8746 0.973074 6.7169 1.43054 6.62984C1.37824 6.79261 1.32094 6.94151 1.27051 7.08915C1.58076 7.26506 1.54272 7.76628 1.47685 8.08898C1.36524 7.93473 1.30357 7.73302 1.13942 7.72436C1.11538 8.0893 1.11953 8.49257 0.859314 8.70683C0.936347 8.93237 0.932307 8.93256 1.15124 8.84036C1.46218 8.70924 1.69632 8.41716 1.93185 8.13211C2.18551 7.59092 2.51067 7.10952 2.95799 6.67515C4.05722 5.60774 5.09625 5.25852 6.76929 4.9665C6.99198 4.71196 7.22211 4.46638 7.46913 4.22758C7.8038 3.90412 8.02109 3.83697 8.33761 3.81889C8.86137 3.05157 9.27348 2.51721 10.1274 2.12353C11.9173 1.29836 13.1511 1.25858 14.5877 2.55597C15.0624 2.98465 15.4673 3.43642 15.9891 3.79428C16.2531 3.97538 16.4418 4.10555 16.642 4.36665C16.8938 4.69522 17.0994 5.02381 17.2425 5.44674C17.4274 5.36339 17.6382 5.28486 17.8085 5.12548C18.0283 4.91975 18.1682 4.5754 18.3718 4.34936C18.6421 4.0494 19.2585 4.4115 19.395 4.69768C19.8593 5.67086 20.0474 6.90039 19.99 7.96913C19.877 10.072 19.3324 11.0959 18.2718 11.7158C17.5507 12.1372 16.7525 12.3463 15.9242 12.1748C15.8113 12.917 15.1337 13.9066 14.3431 13.9066C13.5525 13.9066 13.5525 13.7829 13.2137 13.5355C12.9942 13.3751 12.7475 13.1177 12.7335 13.1493C12.7043 13.2152 12.6623 13.2682 12.649 13.3499C12.7919 13.6588 12.7171 13.4144 12.8394 13.7328C12.9739 14.0835 13.0393 14.3137 13.0486 14.6891C13.0567 15.0223 13.0648 15.3555 13.073 15.6887C13.2087 15.9528 13.2206 16.017 13.2008 16.3192C13.159 16.956 12.8388 17.0167 12.3051 17.0131C12.1273 17.0118 11.4561 17.0164 11.285 17.0028C10.945 16.9759 10.7208 16.9475 10.6036 16.7936C10.2945 17.0671 9.77469 17.5513 9.67384 17.6119ZM12.6121 7.1728C12.5623 7.05886 12.5385 6.93863 12.5377 6.81989C12.3544 6.97965 12.1553 7.1311 11.9486 7.21861C12.2339 6.94041 12.6216 6.28433 12.9025 6.07722C13.2212 5.8421 13.6538 5.88787 14.0255 5.7002C13.8986 5.82605 13.736 5.92746 13.5704 6.02398C13.7528 6.09686 13.9104 6.24429 14.0003 6.45008C14.0382 6.53687 14.0609 6.62748 14.0701 6.71815C14.3197 6.62863 14.5649 6.58626 14.772 6.58951C14.0312 6.81651 13.2433 7.3474 12.7 8.05043C12.761 7.86708 12.8463 7.70163 12.949 7.55387C12.8066 7.47262 12.6864 7.34272 12.6121 7.1728Z"
        fill="#CED0D6"/>
</svg>
