<svg width="32" height="32" viewBox="0 0 32 32" fill="none" xmlns="http://www.w3.org/2000/svg">
<path d="M21.9 9.7L20.1 1.5H9.6L1.5 13.9L3.9 19.7L1.5 24.9L15.4 27.3L24.2 19.5L21.9 9.7Z" fill="url(#paint0_linear)"/>
<path d="M4.3 14.3999L1.5 13.8999L3.9 19.6999L1.5 24.8999L7.1 20.2999L4.3 14.3999Z" fill="url(#paint1_linear)"/>
<path d="M4.3 14.3999L1.5 13.8999L3.9 19.6999L7.1 20.2999L4.3 14.3999Z" fill="url(#paint2_linear)"/>
<path d="M4.3 14.3L20.1 1.5H9.6L1.5 13.9L4.3 14.3Z" fill="url(#paint3_linear)"/>
<path d="M4.3 14.3L20.1 1.5H9.6L1.5 13.9L4.3 14.3Z" fill="url(#paint4_linear)"/>
<path d="M4.3 14.3L11.7 8.3L9.6 1.5L1.5 13.9L4.3 14.3Z" fill="url(#paint5_linear)"/>
<path d="M4.3 14.3L11.7 8.3L9.6 1.5L1.5 13.9L4.3 14.3Z" fill="url(#paint6_linear)"/>
<path d="M27 12.7L30.5 20.4L24.6 30.5L21 21.7L27 12.7Z" fill="url(#paint7_linear)"/>
<path d="M24 17.3999L30.5 20.3999L24.6 30.4999L19 28.5L24 17.3999Z" fill="url(#paint8_linear)"/>
<path d="M20.9 21.7L24.5 30.5L15.3 27.2999L20.9 21.7Z" fill="url(#paint9_linear)"/>
<path d="M30.5 7.69995L18.3 10.5L1.5 24.9L12.4 30.5L20.9 21.7L30.5 7.69995Z" fill="url(#paint10_linear)"/>
<path d="M8.7 25.1999L1.5 24.8999L12.4 30.4999L15.5 27.2999L8.7 25.1999Z" fill="url(#paint11_linear)"/>
<path d="M8.7 25.2L1.5 24.9L7 20.2L8.7 25.2Z" fill="url(#paint12_linear)"/>
<path d="M30.5 7.69995L18.3 10.5L26.9 12.9L30.5 7.69995Z" fill="url(#paint13_linear)"/>
<path d="M30.5 7.69995L18.3 10.5L26.4 12.8L30.5 7.69995Z" fill="url(#paint14_linear)"/>
<path d="M23.7 17.5L21.9 9.69995L18.3 10.5L13.4 14.7L23.7 17.5Z" fill="url(#paint15_linear)"/>
<path d="M22.4 11.7L21.9 9.69995L18.3 10.5L22.4 11.7Z" fill="url(#paint16_linear)"/>
<path d="M7 20.2L20.9 21.7L27 12.7L22.6 13.3L7 20.2Z" fill="url(#paint17_linear)"/>
<path d="M30.5 7.69995L12.4 30.5L20.9 21.7L30.5 7.69995Z" fill="url(#paint18_linear)"/>
<path d="M30.5 7.69995L12.4 30.5L20.9 21.7L30.5 7.69995Z" fill="url(#paint19_linear)"/>
<path d="M25 7H7V25H25V7Z" fill="url(#paint20_linear)"/>
<path d="M15.9 21.4001H9.09998V23.0001H15.9V21.4001Z" fill="white"/>
<path d="M8.80005 12.5455C8.80005 10.6364 10.2546 9 12.3455 9C13.5273 9 14.2546 9.36364 14.9819 9.90909L14.0728 11.0909C13.5273 10.6364 13.0728 10.3636 12.2546 10.3636C11.1637 10.3636 10.3455 11.2727 10.3455 12.4545C10.3455 13.7273 11.1637 14.6364 12.3455 14.6364C12.891 14.6364 13.3455 14.5455 13.7091 14.2727V13.2727H12.2546V12H15.1637V14.9091C14.5273 15.5455 13.5273 16 12.3455 16C10.2546 16 8.80005 14.5455 8.80005 12.5455Z" fill="white"/>
<path d="M15.8 12.5455C15.8 10.6364 17.3455 9 19.4364 9C21.5273 9 22.9819 10.5455 22.9819 12.4545C22.9819 14.3636 21.4364 15.9091 19.3455 15.9091C17.3455 16 15.8 14.4545 15.8 12.5455ZM21.4364 12.5455C21.4364 11.3636 20.6182 10.3636 19.4364 10.3636C18.2546 10.3636 17.4364 11.2727 17.4364 12.4545C17.4364 13.6364 18.2546 14.5455 19.4364 14.5455C20.6182 14.6364 21.4364 13.7273 21.4364 12.5455Z" fill="white"/>
<defs>
<linearGradient id="paint0_linear" x1="14.562" y1="13.1987" x2="21.4461" y2="5.3667" gradientUnits="userSpaceOnUse">
<stop  offset="0" stop-color="#087CFA"/>
<stop offset="0.0225255" stop-color="#0D7BFA"/>
<stop offset="0.3726" stop-color="#5566F9"/>
<stop offset="0.6634" stop-color="#8A57F8"/>
<stop offset="0.8808" stop-color="#AB4EF7"/>
<stop offset="1" stop-color="#B74AF7"/>
</linearGradient>
<linearGradient id="paint1_linear" x1="1.4902" y1="19.4065" x2="9.0618" y2="19.0773" gradientUnits="userSpaceOnUse">
<stop offset="0.1204" stop-color="#2D58F9"/>
<stop offset="0.9461" stop-color="#B74AF7"/>
</linearGradient>
<linearGradient id="paint2_linear" x1="2.887" y1="13.2084" x2="5.6561" y2="20.9494" gradientUnits="userSpaceOnUse">
<stop offset="0.0852751" stop-color="#086AFA"/>
<stop offset="0.4762" stop-color="#087CFA"/>
<stop offset="0.6849" stop-color="#466AF9"/>
<stop offset="0.8976" stop-color="#8059F8"/>
<stop offset="1" stop-color="#9653F8"/>
</linearGradient>
<linearGradient id="paint3_linear" x1="2.5192" y1="11.5772" x2="18.4441" y2="-1.4466" gradientUnits="userSpaceOnUse">
<stop  offset="0" stop-color="#087CFA"/>
<stop offset="0.0188132" stop-color="#0D7BFA"/>
<stop offset="0.3112" stop-color="#5566F9"/>
<stop offset="0.5541" stop-color="#8A57F8"/>
<stop offset="0.7356" stop-color="#AB4EF7"/>
<stop offset="0.8352" stop-color="#B74AF7"/>
<stop offset="0.9797" stop-color="#DB5CFF"/>
</linearGradient>
<linearGradient id="paint4_linear" x1="9.8435" y1="6.9877" x2="13.0694" y2="9.5224" gradientUnits="userSpaceOnUse">
<stop offset="0.5234" stop-color="#B74AF7" stop-opacity="0"/>
<stop offset="0.9263" stop-color="#D66EFF"/>
</linearGradient>
<linearGradient id="paint5_linear" x1="1.8754" y1="12.0988" x2="14.9136" y2="1.4357" gradientUnits="userSpaceOnUse">
<stop  offset="0" stop-color="#087CFA"/>
<stop offset="0.0163189" stop-color="#0D7BFA"/>
<stop offset="0.2699" stop-color="#5566F9"/>
<stop offset="0.4806" stop-color="#8A57F8"/>
<stop offset="0.6381" stop-color="#AB4EF7"/>
<stop offset="0.7245" stop-color="#B74AF7"/>
<stop offset="0.9526" stop-color="#DB5CFF"/>
</linearGradient>
<linearGradient id="paint6_linear" x1="2.8751" y1="15.7321" x2="5.3474" y2="12.2983" gradientUnits="userSpaceOnUse">
<stop  offset="0" stop-color="#8F99FF"/>
<stop offset="1" stop-color="#B74AF7" stop-opacity="0"/>
</linearGradient>
<linearGradient id="paint7_linear" x1="30.0562" y1="18.0194" x2="18.7294" y2="27.6036" gradientUnits="userSpaceOnUse">
<stop  offset="0" stop-color="#087CFA"/>
<stop offset="0.0225255" stop-color="#0D7BFA"/>
<stop offset="0.3726" stop-color="#5566F9"/>
<stop offset="0.6634" stop-color="#8A57F8"/>
<stop offset="0.8808" stop-color="#AB4EF7"/>
<stop offset="1" stop-color="#B74AF7"/>
</linearGradient>
<linearGradient id="paint8_linear" x1="29.7196" y1="23.1082" x2="19.3957" y2="24.6698" gradientUnits="userSpaceOnUse">
<stop offset="0.003297" stop-color="#2D58F9"/>
<stop offset="0.8129" stop-color="#B74AF7"/>
</linearGradient>
<linearGradient id="paint9_linear" x1="24.1395" y1="24.8459" x2="20.0946" y2="28.465" gradientUnits="userSpaceOnUse">
<stop  offset="0" stop-color="#C386F7"/>
<stop offset="0.8129" stop-color="#B74AF7"/>
</linearGradient>
<linearGradient id="paint10_linear" x1="5.5289" y1="26.8337" x2="26.4481" y2="13.391" gradientUnits="userSpaceOnUse">
<stop  offset="0" stop-color="#087CFA"/>
<stop offset="0.1021" stop-color="#1598D3"/>
<stop offset="0.2248" stop-color="#23B6AA"/>
<stop offset="0.3455" stop-color="#2DCC8B"/>
<stop offset="0.4619" stop-color="#35DD74"/>
<stop offset="0.5723" stop-color="#39E767"/>
<stop offset="0.6701" stop-color="#3BEA62"/>
</linearGradient>
<linearGradient id="paint11_linear" x1="6.7118" y1="27.9029" x2="16.4616" y2="18.2841" gradientUnits="userSpaceOnUse">
<stop  offset="0" stop-color="#087CFA"/>
<stop offset="0.1021" stop-color="#1598D3"/>
<stop offset="0.2248" stop-color="#23B6AA"/>
<stop offset="0.3455" stop-color="#2DCC8B"/>
<stop offset="0.4619" stop-color="#35DD74"/>
<stop offset="0.5723" stop-color="#39E767"/>
<stop offset="0.6701" stop-color="#3BEA62"/>
</linearGradient>
<linearGradient id="paint12_linear" x1="4.3429" y1="25.7965" x2="12.817" y2="17.4362" gradientUnits="userSpaceOnUse">
<stop offset="0.1708" stop-color="#087CFA"/>
<stop offset="0.4017" stop-color="#19A1C8"/>
<stop offset="0.6796" stop-color="#2BC891"/>
<stop offset="0.8874" stop-color="#37E16F"/>
<stop offset="1" stop-color="#3BEA62"/>
</linearGradient>
<linearGradient id="paint13_linear" x1="20.4795" y1="13.7307" x2="28.9506" y2="5.82435" gradientUnits="userSpaceOnUse">
<stop offset="0.4926" stop-color="#00FA45"/>
<stop offset="0.8682" stop-color="#B5FF91"/>
</linearGradient>
<linearGradient id="paint14_linear" x1="22.7821" y1="8.15815" x2="27.8023" y2="11.0448" gradientUnits="userSpaceOnUse">
<stop offset="0.175" stop-color="#00FA45" stop-opacity="0"/>
<stop offset="0.8682" stop-color="#A0FF5E"/>
</linearGradient>
<linearGradient id="paint15_linear" x1="24.1445" y1="10.1849" x2="18.3435" y2="16.3975" gradientUnits="userSpaceOnUse">
<stop  offset="0" stop-color="#7165DF"/>
<stop offset="0.0682475" stop-color="#6475D9"/>
<stop offset="0.2346" stop-color="#4897CD"/>
<stop offset="0.3197" stop-color="#44B2AA"/>
<stop offset="0.4142" stop-color="#40CA8B"/>
<stop offset="0.506" stop-color="#3DDC74"/>
<stop offset="0.593" stop-color="#3CE667"/>
<stop offset="0.6701" stop-color="#3BEA62"/>
</linearGradient>
<linearGradient id="paint16_linear" x1="22.0511" y1="9.29295" x2="20.1695" y2="11.3082" gradientUnits="userSpaceOnUse">
<stop offset="0.3832" stop-color="#59C1DB"/>
<stop offset="0.4687" stop-color="#4FCEB4"/>
<stop offset="0.5786" stop-color="#44DD88"/>
<stop offset="0.664" stop-color="#3EE76C"/>
<stop offset="0.7139" stop-color="#3BEA62"/>
</linearGradient>
<linearGradient id="paint17_linear" x1="12.6515" y1="15.0182" x2="31.3334" y2="21.1906" gradientUnits="userSpaceOnUse">
<stop  offset="0" stop-color="#1CA7BE"/>
<stop offset="0.3751" stop-color="#2FCF87"/>
<stop offset="0.6552" stop-color="#3BEA62"/>
<stop offset="0.8574" stop-color="#5FFF58"/>
</linearGradient>
<linearGradient id="paint18_linear" x1="11.8266" y1="19.6027" x2="25.406" y2="18.862" gradientUnits="userSpaceOnUse">
<stop offset="0.2959" stop-color="#1CA7BE"/>
<stop offset="0.3429" stop-color="#23B5AA"/>
<stop offset="0.4312" stop-color="#2DCC8B"/>
<stop offset="0.5168" stop-color="#35DD74"/>
<stop offset="0.5981" stop-color="#39E767"/>
<stop offset="0.6701" stop-color="#3BEA62"/>
<stop offset="1" stop-color="#7EEF5A"/>
</linearGradient>
<linearGradient id="paint19_linear" x1="26.925" y1="4.36355" x2="21.7815" y2="18.1409" gradientUnits="userSpaceOnUse">
<stop offset="0.124" stop-color="#1CA563"/>
<stop offset="0.3268" stop-color="#29C163" stop-opacity="0.7473"/>
<stop offset="0.5412" stop-color="#33D862" stop-opacity="0.48"/>
<stop offset="0.7453" stop-color="#39E562" stop-opacity="0.2256"/>
<stop offset="0.9263" stop-color="#3BEA62" stop-opacity="0"/>
</linearGradient>
<linearGradient id="paint20_linear" x1="7.07033" y1="7.07033" x2="25.682" y2="25.682" gradientUnits="userSpaceOnUse">
<stop  offset="0" stop-color="#006396"/>
<stop offset="0.0339724" stop-color="#005682"/>
<stop offset="0.121" stop-color="#003754"/>
<stop offset="0.2043" stop-color="#001F2F"/>
<stop offset="0.2818" stop-color="#000E15"/>
<stop offset="0.3512" stop-color="#000406"/>
<stop offset="0.4058"/>
<stop offset="0.9138"/>
</linearGradient>
</defs>
</svg>
