<svg width="16" height="16" viewBox="0 0 16 16" fill="none" xmlns="http://www.w3.org/2000/svg">
<path fill-rule="evenodd" clip-rule="evenodd" d="M14.7324 12.4341C15.0684 12.2421 15.0684 11.7578 14.7324 11.5658L10.748 9.28903C10.4147 9.09856 9.99994 9.33924 9.99994 9.72315L9.99994 14.2768C9.99994 14.6607 10.4147 14.9014 10.748 14.7109L14.7324 12.4341Z" fill="#F2FCF3"/>
<path fill-rule="evenodd" clip-rule="evenodd" d="M15.2286 10.6976C16.2363 11.2735 16.2363 12.7265 15.2286 13.3023L11.2441 15.5792C10.2442 16.1506 8.99994 15.4285 8.99994 14.2768L8.99994 9.72316C8.99994 8.57143 10.2442 7.84938 11.2441 8.4208L15.2286 10.6976ZM14.7324 12.4341C15.0684 12.2422 15.0684 11.7578 14.7324 11.5659L10.748 9.28904C10.4147 9.09857 9.99994 9.33925 9.99994 9.72316L9.99994 14.2768C9.99994 14.6607 10.4147 14.9014 10.748 14.7109L14.7324 12.4341Z" fill="#5FB865"/>
<path d="M7.99998 1.5L14.5 4.5V9.12955L11.7403 7.55257C10.0736 6.6002 7.99994 7.80362 7.99994 9.72318L7.99994 14.2768C7.99994 14.3509 8.00303 14.424 8.00907 14.4958L8 14.5L1.5 11.5199V4.5L7.99998 1.5Z" fill="#FFF4EB"/>
<path fill-rule="evenodd" clip-rule="evenodd" d="M8.2095 1.04602C8.07656 0.98466 7.92339 0.98466 7.79045 1.04602L1.29047 4.04602C1.1134 4.12775 1 4.30497 1 4.5V11.5199C1 11.7154 1.11392 11.8929 1.29162 11.9744L7.79162 14.9545C7.92392 15.0152 8.07608 15.0152 8.20838 14.9545L8.5 14.8208L8.5 7.81992L14 5.28145V8.84383L15 9.41526V4.5C15 4.30497 14.8866 4.12775 14.7095 4.04602L8.2095 1.04602ZM2.69315 4.5L7.99998 2.05069L13.3068 4.5L8 6.94932L2.69315 4.5ZM7.5 7.81992V13.7207L2 11.1991V5.28145L7.5 7.81992Z" fill="#F28C35"/>
</svg>
