<svg width="70" height="70" viewBox="0 0 70 70" fill="none" xmlns="http://www.w3.org/2000/svg">
<path d="M65 5H5V65H65V5Z" fill="url(#paint0_linear)"/>
<path d="M54.0999 15.9H15.8999V54.1H54.0999V15.9Z" fill="url(#paint1_linear)"/>
<path d="M59.9001 10.1H10.1001V59.8H59.8001V10.1H59.9001Z" fill="url(#paint2_linear)"/>
<path d="M15.9 15.9H54.1L65 5H5L15.9 15.9Z" fill="url(#paint3_linear)"/>
<path d="M54.1 54.1H15.9L5 65H65L54.1 54.1Z" fill="url(#paint4_linear)"/>
<path d="M54.1001 15.9V54.1L65.0001 65V5L54.1001 15.9Z" fill="url(#paint5_linear)"/>
<path d="M15.9 54.1V15.9L5 5V65L15.9 54.1Z" fill="url(#paint6_linear)"/>
<path d="M10.1 10.1H59.9L65 5H5L10.1 10.1Z" fill="url(#paint7_linear)"/>
<path d="M10.1 10.1H59.9L65 5H5L10.1 10.1Z" fill="url(#paint8_linear)"/>
<path d="M10.1 10.1H59.9L65 5H5L10.1 10.1Z" fill="url(#paint9_linear)"/>
<path d="M59.9001 10.1H10.1001L15.9001 15.9H54.1001L59.9001 10.1Z" fill="url(#paint10_linear)"/>
<path d="M59.9 59.9H10.1L5 65H65L59.9 59.9Z" fill="url(#paint11_linear)"/>
<path d="M59.9 59.9H10.1L5 65H65L59.9 59.9Z" fill="url(#paint12_linear)"/>
<path d="M59.9 59.9H10.1L5 65H65L59.9 59.9Z" fill="url(#paint13_linear)"/>
<path d="M59.8999 59.9L64.9999 65V5L59.8999 10.1V59.9Z" fill="url(#paint14_linear)"/>
<path d="M59.8999 59.9L64.9999 65V5L59.8999 10.1V59.9Z" fill="url(#paint15_linear)"/>
<path d="M59.8999 59.9L64.9999 65V5L59.8999 10.1V59.9Z" fill="url(#paint16_linear)"/>
<path d="M59.8999 59.9L64.9999 65V5L59.8999 10.1V59.9Z" fill="url(#paint17_linear)"/>
<path d="M10.1 59.9V10.1L5 5V65L10.1 59.9Z" fill="url(#paint18_linear)"/>
<path d="M10.1 59.9V10.1L5 5V65L10.1 59.9Z" fill="url(#paint19_linear)"/>
<path d="M10.1001 10.1V59.9L15.9001 54.1V15.9L10.1001 10.1Z" fill="url(#paint20_linear)"/>
<path d="M57 13H13V57H57V13Z" fill="url(#paint21_linear)"/>
<path d="M35 48.7H18.5V51.4H35V48.7Z" fill="white"/>
<path d="M26.7 21.5V18.5H18.5V21.5H20.8V31.9H18.5V34.9H26.7V31.9H24.4V21.5H26.7Z" fill="white"/>
<path d="M34.6 35.1C33.3 35.1 32.2 34.9 31.4 34.4C30.5 33.9 29.8 33.3 29.3 32.7L31.6 30.2C32.1 30.7 32.5 31.1 33 31.4C33.5 31.7 34 31.8 34.6 31.8C35.3 31.8 35.8001 31.6 36.2001 31.2C36.6001 30.8 36.8 30.1 36.8 29.1V18.5H40.5V29.2C40.5 30.2 40.4 31 40.1 31.8C39.8 32.5 39.5 33.1 39 33.6C38.5 34.1 37.9001 34.5 37.2001 34.7C36.3001 35 35.5 35.1 34.6 35.1Z" fill="white"/>
<defs>
<linearGradient id="paint0_linear" x1="71.7074" y1="71.7071" x2="-13.0462" y2="-13.0459" gradientUnits="userSpaceOnUse">
<stop offset="0.3475" stop-color="#087CFA"/>
<stop offset="0.8562" stop-color="#FE2857"/>
<stop offset="1" stop-color="#FE2857"/>
</linearGradient>
<linearGradient id="paint1_linear" x1="58.3591" y1="58.3589" x2="4.425" y2="4.42532" gradientUnits="userSpaceOnUse">
<stop offset="0.3475" stop-color="#087CFA"/>
<stop offset="0.8562" stop-color="#FE2857"/>
<stop offset="1" stop-color="#FE2857"/>
</linearGradient>
<linearGradient id="paint2_linear" x1="65.4073" y1="65.4068" x2="-4.7998" y2="-4.79983" gradientUnits="userSpaceOnUse">
<stop stop-color="#087CFA"/>
<stop offset="0.2816" stop-color="#0855FA"/>
<stop offset="0.7644" stop-color="#E0326B"/>
<stop offset="0.7721" stop-color="#FE2857"/>
<stop offset="1" stop-color="#FE2857"/>
</linearGradient>
<linearGradient id="paint3_linear" x1="69.3118" y1="22.017" x2="7.1771" y2="-2.8789" gradientUnits="userSpaceOnUse">
<stop offset="0.3475" stop-color="#087CFA"/>
<stop offset="0.7698" stop-color="#F01A72"/>
<stop offset="0.9872" stop-color="#FE2857"/>
</linearGradient>
<linearGradient id="paint4_linear" x1="71.8025" y1="66.6498" x2="15.9093" y2="57.2524" gradientUnits="userSpaceOnUse">
<stop offset="0.2513" stop-color="#087CFA" stop-opacity="0.9703"/>
<stop offset="0.5721" stop-color="#087CFA"/>
<stop offset="0.8921" stop-color="#087CFA" stop-opacity="0.5"/>
</linearGradient>
<linearGradient id="paint5_linear" x1="58.843" y1="6.1768" x2="60.6664" y2="66.8386" gradientUnits="userSpaceOnUse">
<stop offset="0.018393" stop-color="#429EFA"/>
<stop offset="0.518" stop-color="#087CFA"/>
<stop offset="1" stop-color="#965CF3" stop-opacity="0.9769"/>
</linearGradient>
<linearGradient id="paint6_linear" x1="12.9459" y1="60.5643" x2="6.2135" y2="6.2141" gradientUnits="userSpaceOnUse">
<stop offset="0.323" stop-color="#087CFA"/>
<stop offset="0.7201" stop-color="#DF0373"/>
<stop offset="1" stop-color="#FE2857"/>
</linearGradient>
<linearGradient id="paint7_linear" x1="32.5742" y1="7.4557" x2="17.9872" y2="19.0972" gradientUnits="userSpaceOnUse">
<stop offset="0.1018" stop-color="#FF00BB" stop-opacity="0"/>
<stop offset="0.8133" stop-color="#FCBD36"/>
<stop offset="1" stop-color="white" stop-opacity="0.9"/>
</linearGradient>
<linearGradient id="paint8_linear" x1="65.9464" y1="12.2356" x2="46.3102" y2="9.0097" gradientUnits="userSpaceOnUse">
<stop offset="0.018393" stop-color="#00FFFA"/>
<stop offset="0.8562" stop-color="#07C3F2" stop-opacity="0"/>
</linearGradient>
<linearGradient id="paint9_linear" x1="35.8882" y1="-1.8843" x2="34.7453" y2="6.9728" gradientUnits="userSpaceOnUse">
<stop offset="0.2032" stop-color="#087CFA"/>
<stop offset="1" stop-color="#6D6E71" stop-opacity="0"/>
</linearGradient>
<linearGradient id="paint10_linear" x1="53.1402" y1="5.46168" x2="21.5819" y2="16.8227" gradientUnits="userSpaceOnUse">
<stop offset="0.1744" stop-color="#0861FA"/>
<stop offset="0.723" stop-color="#0855FA" stop-opacity="0"/>
</linearGradient>
<linearGradient id="paint11_linear" x1="71.4108" y1="68.9797" x2="15.5176" y2="59.5824" gradientUnits="userSpaceOnUse">
<stop stop-color="#434FCF" stop-opacity="0"/>
<stop offset="1" stop-color="#1B6EEC"/>
</linearGradient>
<linearGradient id="paint12_linear" x1="34.9999" y1="56.3226" x2="34.9999" y2="63.6403" gradientUnits="userSpaceOnUse">
<stop offset="0.018393" stop-color="#42FFFA"/>
<stop offset="0.8562" stop-color="#07C3F2" stop-opacity="0"/>
</linearGradient>
<linearGradient id="paint13_linear" x1="62.5303" y1="52.2431" x2="44.9979" y2="59.3963" gradientUnits="userSpaceOnUse">
<stop offset="0.018393" stop-color="#FF39FF" stop-opacity="0.5"/>
<stop offset="0.8562" stop-color="#FF318C" stop-opacity="0"/>
</linearGradient>
<linearGradient id="paint14_linear" x1="61.6336" y1="6.0929" x2="63.457" y2="66.7546" gradientUnits="userSpaceOnUse">
<stop offset="0.018393" stop-color="#085EFA"/>
<stop offset="0.8562" stop-color="#FF45ED" stop-opacity="0"/>
</linearGradient>
<linearGradient id="paint15_linear" x1="53.1773" y1="34.4802" x2="65.9409" y2="35.0412" gradientUnits="userSpaceOnUse">
<stop offset="0.018393" stop-color="#42FFFA"/>
<stop offset="0.8562" stop-color="#07C3F2" stop-opacity="0"/>
</linearGradient>
<linearGradient id="paint16_linear" x1="42.8165" y1="-3.2559" x2="68.4838" y2="43.4502" gradientUnits="userSpaceOnUse">
<stop offset="0.018393" stop-color="#42FFFA"/>
<stop offset="0.8562" stop-color="#07C3F2" stop-opacity="0"/>
</linearGradient>
<linearGradient id="paint17_linear" x1="51.7288" y1="7.2371" x2="60.4248" y2="27.7149" gradientUnits="userSpaceOnUse">
<stop offset="0.018393" stop-color="#42FFFA" stop-opacity="0.5"/>
<stop offset="0.8562" stop-color="#07C3F2" stop-opacity="0"/>
</linearGradient>
<linearGradient id="paint18_linear" x1="3.7868" y1="47.7456" x2="13.3244" y2="9.1745" gradientUnits="userSpaceOnUse">
<stop offset="0.4995" stop-color="#FF318C" stop-opacity="0"/>
<stop offset="0.9613" stop-color="#FCBD36"/>
</linearGradient>
<linearGradient id="paint19_linear" x1="-6.9489" y1="61.3187" x2="6.4796" y2="34.6046" gradientUnits="userSpaceOnUse">
<stop offset="0.00131053" stop-color="#5AFFFA" stop-opacity="0.5"/>
<stop offset="0.9231" stop-color="#07C3F2" stop-opacity="0"/>
</linearGradient>
<linearGradient id="paint20_linear" x1="4.8822" y1="37.9397" x2="16.9444" y2="31.2073" gradientUnits="userSpaceOnUse">
<stop offset="0.018393" stop-color="#0855FA"/>
<stop offset="0.723" stop-color="#0855FA" stop-opacity="0"/>
</linearGradient>
<linearGradient id="paint21_linear" x1="13.067" y1="13.067" x2="51.6196" y2="51.6196" gradientUnits="userSpaceOnUse">
<stop offset="0.1196" stop-color="#5A044A"/>
<stop offset="0.3733" stop-color="#39032F"/>
<stop offset="0.7299" stop-color="#10010D"/>
<stop offset="0.9138"/>
</linearGradient>
</defs>
</svg>
