<svg width="256" height="256" viewBox="0 0 256 256" fill="none" xmlns="http://www.w3.org/2000/svg">
<path d="M236 20H20V236H236V20Z" fill="url(#paint0_linear)"/>
<path d="M196.8 59.2002H59.2002V196.6H196.6V59.2002H196.8Z" fill="url(#paint1_linear)"/>
<path d="M217.4 38.6001H38.5996V217.6H217.6V38.6001H217.4Z" fill="url(#paint2_linear)"/>
<path d="M59.2 59.2H196.8L236 20H20L59.2 59.2Z" fill="url(#paint3_linear)"/>
<path d="M196.8 196.8H59.2L20 236H236L196.8 196.8Z" fill="url(#paint4_linear)"/>
<path d="M196.8 59.2V196.8L236 236V20L196.8 59.2Z" fill="url(#paint5_linear)"/>
<path d="M59.2 196.8V59.2L20 20V236L59.2 196.8Z" fill="url(#paint6_linear)"/>
<path d="M38.6 38.6H217.4L236 20H20L38.6 38.6Z" fill="url(#paint7_linear)"/>
<path d="M38.6 38.6H217.4L236 20H20L38.6 38.6Z" fill="url(#paint8_linear)"/>
<path d="M38.6 38.6H217.4L236 20H20L38.6 38.6Z" fill="url(#paint9_linear)"/>
<path d="M217.4 38.6001H38.5996L59.1996 59.2001H196.8L217.4 38.6001Z" fill="url(#paint10_linear)"/>
<path d="M217.4 217.4H38.6L20 236H236L217.4 217.4Z" fill="url(#paint11_linear)"/>
<path d="M217.4 217.4H38.6L20 236H236L217.4 217.4Z" fill="url(#paint12_linear)"/>
<path d="M217.4 217.4H38.6L20 236H236L217.4 217.4Z" fill="url(#paint13_linear)"/>
<path d="M217.4 217.4L236 236V20L217.4 38.6V217.4Z" fill="url(#paint14_linear)"/>
<path d="M217.4 217.4L236 236V20L217.4 38.6V217.4Z" fill="url(#paint15_linear)"/>
<path d="M217.4 217.4L236 236V20L217.4 38.6V217.4Z" fill="url(#paint16_linear)"/>
<path d="M217.4 217.4L236 236V20L217.4 38.6V217.4Z" fill="url(#paint17_linear)"/>
<path d="M38.6 217.4V38.6L20 20V236L38.6 217.4Z" fill="url(#paint18_linear)"/>
<path d="M38.6 217.4V38.6L20 20V236L38.6 217.4Z" fill="url(#paint19_linear)"/>
<path d="M38.5996 38.6001V217.4L59.1996 196.8V59.2001L38.5996 38.6001Z" fill="url(#paint20_linear)"/>
<path d="M208 48H48V208H208V48Z" fill="url(#paint21_linear)"/>
<path d="M128 177.8H68V187.8H128V177.8Z" fill="white"/>
<path d="M97.8 79V68H68V79H76.4V116.8H68V127.6H97.8V116.8H89.6V79H97.8Z" fill="white"/>
<path d="M126.6 128.6C122 128.6 118 127.8 114.8 126C111.6 124.2 109 122.2 107 119.6L115.2 110.4C117 112.2 118.6 113.8 120.4 114.8C122.2 115.8 124 116.4 126.2 116.4C128.6 116.4 130.6 115.6 132 114C133.4 112.4 134.2 110 134.2 106.4V68H147.6V107C147.6 110.6 147.2 113.6 146.2 116.2C145.2 118.8 143.8 121 142 122.8C140.2 124.6 138 126 135.4 127C132.6 128 129.8 128.6 126.6 128.6Z" fill="white"/>
<defs>
<linearGradient id="paint0_linear" x1="260.147" y1="260.146" x2="-44.9662" y2="-44.9648" gradientUnits="userSpaceOnUse">
<stop offset="0.3475" stop-color="#087CFA"/>
<stop offset="0.8562" stop-color="#FE2857"/>
<stop offset="1" stop-color="#FE2857"/>
</linearGradient>
<linearGradient id="paint1_linear" x1="212.093" y1="212.093" x2="17.9306" y2="17.9318" gradientUnits="userSpaceOnUse">
<stop offset="0.3475" stop-color="#087CFA"/>
<stop offset="0.8562" stop-color="#FE2857"/>
<stop offset="1" stop-color="#FE2857"/>
</linearGradient>
<linearGradient id="paint2_linear" x1="237.465" y1="237.465" x2="-15.28" y2="-15.2781" gradientUnits="userSpaceOnUse">
<stop stop-color="#087CFA"/>
<stop offset="0.2816" stop-color="#0855FA"/>
<stop offset="0.7644" stop-color="#E0326B"/>
<stop offset="0.7721" stop-color="#FE2857"/>
<stop offset="1" stop-color="#FE2857"/>
</linearGradient>
<linearGradient id="paint3_linear" x1="251.522" y1="81.2612" x2="27.8376" y2="-8.36419" gradientUnits="userSpaceOnUse">
<stop offset="0.3475" stop-color="#087CFA"/>
<stop offset="0.7698" stop-color="#F01A72"/>
<stop offset="0.9872" stop-color="#FE2857"/>
</linearGradient>
<linearGradient id="paint4_linear" x1="260.489" y1="241.939" x2="59.2736" y2="208.109" gradientUnits="userSpaceOnUse">
<stop offset="0.2513" stop-color="#087CFA" stop-opacity="0.9703"/>
<stop offset="0.5721" stop-color="#087CFA"/>
<stop offset="0.8921" stop-color="#087CFA" stop-opacity="0.5"/>
</linearGradient>
<linearGradient id="paint5_linear" x1="213.834" y1="24.2364" x2="220.398" y2="242.619" gradientUnits="userSpaceOnUse">
<stop offset="0.018393" stop-color="#429EFA"/>
<stop offset="0.518" stop-color="#087CFA"/>
<stop offset="1" stop-color="#965CF3" stop-opacity="0.9769"/>
</linearGradient>
<linearGradient id="paint6_linear" x1="48.605" y1="220.031" x2="24.3684" y2="24.371" gradientUnits="userSpaceOnUse">
<stop offset="0.323" stop-color="#087CFA"/>
<stop offset="0.7201" stop-color="#DF0373"/>
<stop offset="1" stop-color="#FE2857"/>
</linearGradient>
<linearGradient id="paint7_linear" x1="119.267" y1="28.8406" x2="66.754" y2="70.7498" gradientUnits="userSpaceOnUse">
<stop offset="0.1018" stop-color="#FF00BB" stop-opacity="0"/>
<stop offset="0.8133" stop-color="#FCBD36"/>
<stop offset="1" stop-color="white" stop-opacity="0.9"/>
</linearGradient>
<linearGradient id="paint8_linear" x1="239.407" y1="46.0482" x2="168.717" y2="34.4348" gradientUnits="userSpaceOnUse">
<stop offset="0.018393" stop-color="#00FFFA"/>
<stop offset="0.8562" stop-color="#07C3F2" stop-opacity="0"/>
</linearGradient>
<linearGradient id="paint9_linear" x1="131.197" y1="-4.7836" x2="127.083" y2="27.102" gradientUnits="userSpaceOnUse">
<stop offset="0.2032" stop-color="#087CFA"/>
<stop offset="1" stop-color="#6D6E71" stop-opacity="0"/>
</linearGradient>
<linearGradient id="paint10_linear" x1="193.304" y1="21.6621" x2="79.6942" y2="62.5617" gradientUnits="userSpaceOnUse">
<stop offset="0.1744" stop-color="#0861FA"/>
<stop offset="0.723" stop-color="#0855FA" stop-opacity="0"/>
</linearGradient>
<linearGradient id="paint11_linear" x1="259.079" y1="250.327" x2="57.8634" y2="216.497" gradientUnits="userSpaceOnUse">
<stop stop-color="#434FCF" stop-opacity="0"/>
<stop offset="1" stop-color="#1B6EEC"/>
</linearGradient>
<linearGradient id="paint12_linear" x1="128" y1="204.761" x2="128" y2="231.105" gradientUnits="userSpaceOnUse">
<stop offset="0.018393" stop-color="#42FFFA"/>
<stop offset="0.8562" stop-color="#07C3F2" stop-opacity="0"/>
</linearGradient>
<linearGradient id="paint13_linear" x1="227.109" y1="190.075" x2="163.993" y2="215.826" gradientUnits="userSpaceOnUse">
<stop offset="0.018393" stop-color="#FF39FF" stop-opacity="0.5"/>
<stop offset="0.8562" stop-color="#FF318C" stop-opacity="0"/>
</linearGradient>
<linearGradient id="paint14_linear" x1="223.882" y1="23.9344" x2="230.446" y2="242.317" gradientUnits="userSpaceOnUse">
<stop offset="0.018393" stop-color="#085EFA"/>
<stop offset="0.8562" stop-color="#FF45ED" stop-opacity="0"/>
</linearGradient>
<linearGradient id="paint15_linear" x1="193.439" y1="126.129" x2="239.388" y2="128.148" gradientUnits="userSpaceOnUse">
<stop offset="0.018393" stop-color="#42FFFA"/>
<stop offset="0.8562" stop-color="#07C3F2" stop-opacity="0"/>
</linearGradient>
<linearGradient id="paint16_linear" x1="156.14" y1="-9.7212" x2="248.543" y2="158.421" gradientUnits="userSpaceOnUse">
<stop offset="0.018393" stop-color="#42FFFA"/>
<stop offset="0.8562" stop-color="#07C3F2" stop-opacity="0"/>
</linearGradient>
<linearGradient id="paint17_linear" x1="188.224" y1="28.0536" x2="219.53" y2="101.773" gradientUnits="userSpaceOnUse">
<stop offset="0.018393" stop-color="#42FFFA" stop-opacity="0.5"/>
<stop offset="0.8562" stop-color="#07C3F2" stop-opacity="0"/>
</linearGradient>
<linearGradient id="paint18_linear" x1="15.6324" y1="173.884" x2="49.9676" y2="35.0282" gradientUnits="userSpaceOnUse">
<stop offset="0.4995" stop-color="#FF318C" stop-opacity="0"/>
<stop offset="0.9613" stop-color="#FCBD36"/>
</linearGradient>
<linearGradient id="paint19_linear" x1="-23.016" y1="222.747" x2="25.3266" y2="126.576" gradientUnits="userSpaceOnUse">
<stop offset="0.00131053" stop-color="#5AFFFA" stop-opacity="0.5"/>
<stop offset="0.9231" stop-color="#07C3F2" stop-opacity="0"/>
</linearGradient>
<linearGradient id="paint20_linear" x1="19.575" y1="138.583" x2="62.9992" y2="114.346" gradientUnits="userSpaceOnUse">
<stop offset="0.018393" stop-color="#0855FA"/>
<stop offset="0.723" stop-color="#0855FA" stop-opacity="0"/>
</linearGradient>
<linearGradient id="paint21_linear" x1="48.2436" y1="48.2436" x2="188.435" y2="188.435" gradientUnits="userSpaceOnUse">
<stop offset="0.1196" stop-color="#5A044A"/>
<stop offset="0.3733" stop-color="#39032F"/>
<stop offset="0.7299" stop-color="#10010D"/>
<stop offset="0.9138"/>
</linearGradient>
</defs>
</svg>
