<svg width="16" height="16" viewBox="0 0 16 16" fill="none" xmlns="http://www.w3.org/2000/svg">
<path d="M14.8531 3.7134C14.7048 3.64074 14.641 3.77921 14.5543 3.84956C14.5246 3.87225 14.4995 3.90174 14.4744 3.92897C14.2576 4.16043 14.0044 4.31254 13.6736 4.29435C13.1899 4.2671 12.777 4.4192 12.4119 4.78914C12.3343 4.33296 12.0765 4.06057 11.6841 3.88585C11.4788 3.79506 11.2712 3.70426 11.1274 3.5068C11.027 3.36613 10.9997 3.20952 10.9495 3.05518C10.9175 2.96214 10.8856 2.86679 10.7783 2.85089C10.662 2.83276 10.6163 2.93031 10.5707 3.01206C10.3882 3.34571 10.3175 3.71338 10.3243 4.08558C10.3403 4.92308 10.6939 5.59029 11.3966 6.06465C11.4765 6.11913 11.497 6.17356 11.4719 6.25304C11.424 6.41645 11.3669 6.5753 11.3168 6.73871C11.2848 6.84314 11.2369 6.86583 11.1251 6.82039C10.7395 6.6593 10.4064 6.42096 10.1121 6.13275C9.61244 5.64933 9.1607 5.11598 8.59719 4.69837C8.46487 4.60077 8.33252 4.51002 8.19561 4.42373C7.62067 3.86545 8.27092 3.40696 8.4215 3.35253C8.5789 3.29579 8.47625 3.10057 7.96746 3.10288C7.45868 3.10512 6.99326 3.27536 6.40008 3.50231C6.31339 3.53637 6.2221 3.5613 6.12856 3.58173C5.59013 3.47962 5.03115 3.45688 4.44709 3.52274C3.34739 3.64527 2.46904 4.16502 1.82337 5.05244C1.04768 6.11913 0.865163 7.33105 1.08876 8.59523C1.32376 9.92744 2.00362 11.0304 3.04857 11.8929C4.1323 12.7871 5.38029 13.2251 6.80394 13.1412C7.66864 13.0912 8.63144 12.9755 9.71744 12.0563C9.9912 12.1925 10.2787 12.247 10.7555 12.2878C11.1229 12.3219 11.4765 12.2697 11.7503 12.2129C12.1792 12.1222 12.1495 11.725 11.9944 11.6524C10.7373 11.0668 11.0133 11.3051 10.7624 11.1122C11.4012 10.3564 12.364 9.57112 12.7405 7.02692C12.7701 6.82495 12.745 6.69784 12.7405 6.53443C12.7382 6.43459 12.761 6.39603 12.8751 6.38464C13.1899 6.34833 13.4956 6.26211 13.7763 6.10777C14.5908 5.66295 14.9193 4.93215 14.9969 4.05609C15.0083 3.92217 14.9946 3.7837 14.8531 3.7134ZM7.75533 11.5978C6.53701 10.6401 5.94612 10.3246 5.70198 10.3383C5.47383 10.3519 5.5149 10.6129 5.56507 10.7831C5.61756 10.951 5.68601 11.0668 5.78181 11.2143C5.84798 11.3119 5.89364 11.4571 5.71568 11.5661C5.32325 11.809 4.64106 11.4844 4.6091 11.4685C3.81517 11.001 3.15125 10.3836 2.68351 9.53939C2.23177 8.72683 1.96942 7.85535 1.92605 6.92482C1.91464 6.70015 1.98081 6.62067 2.2044 6.57986C2.49871 6.52539 2.80216 6.514 3.09647 6.55712C4.33993 6.73871 5.39853 7.29475 6.28602 8.17535C6.79251 8.67691 7.1758 9.27612 7.57052 9.86165C7.99031 10.4835 8.44205 11.0759 9.01699 11.5616C9.22003 11.7318 9.38202 11.8611 9.53716 11.9565C9.06948 12.0087 8.2892 12.02 7.75533 11.5978ZM8.33939 7.84173C8.33939 7.74186 8.41926 7.66245 8.51967 7.66245C8.54248 7.66245 8.56301 7.66693 8.58127 7.67373C8.60638 7.68285 8.6292 7.69648 8.64743 7.71685C8.67939 7.74866 8.69762 7.79402 8.69762 7.8417C8.69762 7.94157 8.61779 8.02098 8.51743 8.02098C8.41706 8.02098 8.33939 7.94159 8.33939 7.84173ZM10.1532 8.77226C10.0369 8.81994 9.9205 8.86074 9.80871 8.8653C9.63531 8.87437 9.44594 8.804 9.34329 8.71776C9.18359 8.58384 9.0695 8.50899 9.0216 8.27521C9.00105 8.17535 9.01246 8.021 9.03074 7.93252C9.0718 7.74186 9.02616 7.61933 8.89157 7.50808C8.78204 7.41729 8.64287 7.39235 8.49 7.39235C8.43296 7.39235 8.38052 7.36737 8.34171 7.34694C8.27782 7.31518 8.22538 7.23574 8.27555 7.13814C8.29152 7.10641 8.36911 7.02921 8.38737 7.01561C8.59499 6.89756 8.83455 6.93618 9.05585 7.02468C9.26121 7.10865 9.41635 7.26299 9.63992 7.48086C9.86807 7.7441 9.90912 7.81679 10.0392 8.0142C10.1419 8.16855 10.2354 8.3274 10.2993 8.50899C10.3381 8.62248 10.2878 8.71552 10.1532 8.77226Z" fill="#548AF7"/>
</svg>
