<svg width="14" height="14" viewBox="0 0 14 14" fill="none" xmlns="http://www.w3.org/2000/svg">
<path d="M13.8531 2.7134C13.7048 2.64074 13.641 2.77921 13.5543 2.84956C13.5246 2.87225 13.4995 2.90174 13.4744 2.92897C13.2576 3.16043 13.0044 3.31254 12.6736 3.29435C12.1899 3.2671 11.777 3.4192 11.4119 3.78914C11.3343 3.33296 11.0765 3.06057 10.6841 2.88585C10.4788 2.79506 10.2712 2.70426 10.1274 2.5068C10.027 2.36613 9.99965 2.20952 9.94946 2.05518C9.9175 1.96214 9.88556 1.86679 9.77833 1.85089C9.66197 1.83276 9.61634 1.93031 9.5707 2.01206C9.38819 2.34571 9.31747 2.71338 9.32429 3.08558C9.34026 3.92308 9.69391 4.59029 10.3966 5.06465C10.4765 5.11913 10.497 5.17356 10.4719 5.25304C10.424 5.41645 10.3669 5.5753 10.3168 5.73871C10.2848 5.84314 10.2369 5.86583 10.1251 5.82039C9.73952 5.6593 9.4064 5.42096 9.11209 5.13275C8.61244 4.64933 8.1607 4.11598 7.59719 3.69837C7.46487 3.60077 7.33252 3.51002 7.19561 3.42373C6.62067 2.86545 7.27092 2.40696 7.4215 2.35253C7.5789 2.29579 7.47625 2.10057 6.96746 2.10288C6.45868 2.10512 5.99326 2.27536 5.40008 2.50231C5.31339 2.53637 5.2221 2.5613 5.12856 2.58173C4.59013 2.47962 4.03115 2.45688 3.44709 2.52274C2.34739 2.64527 1.46904 3.16502 0.823374 4.05244C0.0476786 5.11913 -0.134837 6.33105 0.0887551 7.59523C0.323756 8.92744 1.00362 10.0304 2.04857 10.8929C3.1323 11.7871 4.38029 12.2251 5.80394 12.1412C6.66864 12.0912 7.63144 11.9755 8.71744 11.0563C8.9912 11.1925 9.27868 11.247 9.75553 11.2878C10.1229 11.3219 10.4765 11.2697 10.7503 11.2129C11.1792 11.1222 11.1495 10.725 10.9944 10.6524C9.7373 10.0668 10.0133 10.3051 9.76238 10.1122C10.4012 9.35644 11.364 8.57112 11.7405 6.02692C11.7701 5.82495 11.745 5.69784 11.7405 5.53443C11.7382 5.43459 11.761 5.39603 11.8751 5.38464C12.1899 5.34833 12.4956 5.26211 12.7763 5.10777C13.5908 4.66295 13.9193 3.93215 13.9969 3.05609C14.0083 2.92217 13.9946 2.7837 13.8531 2.7134ZM6.75533 10.5978C5.53701 9.64014 4.94612 9.32463 4.70198 9.33825C4.47383 9.35188 4.5149 9.61288 4.56507 9.78312C4.61756 9.95104 4.68601 10.0668 4.78181 10.2143C4.84798 10.3119 4.89364 10.4571 4.71568 10.5661C4.32325 10.809 3.64106 10.4844 3.6091 10.4685C2.81517 10.001 2.15125 9.38361 1.68351 8.53939C1.23177 7.72683 0.969422 6.85535 0.926053 5.92482C0.914645 5.70015 0.980805 5.62067 1.2044 5.57986C1.49871 5.52539 1.80216 5.514 2.09647 5.55712C3.33993 5.73871 4.39853 6.29475 5.28602 7.17535C5.79251 7.67691 6.1758 8.27612 6.57052 8.86165C6.99031 9.48348 7.44205 10.0759 8.01699 10.5616C8.22003 10.7318 8.38202 10.8611 8.53716 10.9565C8.06948 11.0087 7.2892 11.02 6.75533 10.5978ZM7.33939 6.84173C7.33939 6.74186 7.41926 6.66245 7.51967 6.66245C7.54248 6.66245 7.56301 6.66693 7.58127 6.67373C7.60638 6.68285 7.6292 6.69648 7.64743 6.71685C7.67939 6.74866 7.69762 6.79402 7.69762 6.8417C7.69762 6.94157 7.61779 7.02098 7.51743 7.02098C7.41706 7.02098 7.33939 6.94159 7.33939 6.84173ZM9.15321 7.77226C9.03686 7.81994 8.9205 7.86074 8.80871 7.8653C8.63531 7.87437 8.44594 7.804 8.34329 7.71776C8.18359 7.58384 8.0695 7.50899 8.0216 7.27521C8.00105 7.17535 8.01246 7.021 8.03074 6.93252C8.0718 6.74186 8.02616 6.61933 7.89157 6.50808C7.78204 6.41729 7.64287 6.39235 7.49 6.39235C7.43296 6.39235 7.38052 6.36737 7.34171 6.34694C7.27782 6.31518 7.22538 6.23574 7.27555 6.13814C7.29152 6.10641 7.36911 6.02921 7.38737 6.01561C7.59499 5.89756 7.83455 5.93618 8.05585 6.02468C8.26121 6.10865 8.41635 6.26299 8.63992 6.48086C8.86807 6.7441 8.90912 6.81679 9.03917 7.0142C9.14188 7.16855 9.23541 7.3274 9.29928 7.50899C9.33807 7.62248 9.28783 7.71552 9.15321 7.77226Z" fill="#4682FA"/>
</svg>
