<svg width="14" height="14" viewBox="0 0 14 14" fill="none" xmlns="http://www.w3.org/2000/svg">
<path d="M7 8C6.44772 8 6 8.44772 6 9C6 9.55228 6.44772 10 7 10C7.55228 10 8 9.55228 8 9C8 8.44772 7.55228 8 7 8Z" fill="#6C707E"/>
<path d="M3 8C2.44772 8 2 8.44772 2 9C2 9.55228 2.44772 10 3 10C3.55228 10 4 9.55228 4 9C4 8.44772 3.55228 8 3 8Z" fill="#6C707E"/>
<path fill-rule="evenodd" clip-rule="evenodd" d="M3.79395 5.00488C1.68056 5.11211 0 6.85996 0 9V12C0 12.5177 0.393331 12.9438 0.897461 12.9951L1 13H9L9.10254 12.9951C9.60667 12.9438 10 12.5177 10 12V9C10 6.85996 8.31944 5.11211 6.20605 5.00488L6 5H4L3.79395 5.00488ZM6 6C7.65685 6 9 7.34315 9 9V12H1V9C1 7.34315 2.34315 6 4 6H6Z" fill="#6C707E"/>
<path d="M6 1C4.89543 1 4 1.89543 4 3V4H5V3C5 2.44772 5.44772 2 6 2H12C12.5523 2 13 2.44772 13 3V9.40527L11.6533 8.24316C11.4717 8.08639 11.2399 8 11 8V9L13.1729 10.876C13.4967 11.1556 13.9997 10.9258 14 10.498V3C14 1.89543 13.1046 1 12 1H6Z" fill="#6C707E"/>
</svg>
