<svg width="14" height="14" viewBox="0 0 14 14" fill="none" xmlns="http://www.w3.org/2000/svg">
<path d="M6 12H0V10H6V12Z" fill="#E10500"/>
<path d="M14 12H8V10H14V12Z" fill="#E10500"/>
<path d="M2 3H6V5.5H2V3Z" fill="#FFAF00"/>
<path d="M8 3H12V5.5H8V3Z" fill="#FFAF00"/>
<path d="M4 10H2V8H4V10Z" fill="#FA500F"/>
<path d="M8 10H6V8H8V10Z" fill="#FA500F"/>
<path d="M12 10H10V8H12V10Z" fill="#FA500F"/>
<path d="M4 3H2V1H4V3Z" fill="#FFD700"/>
<path d="M12 3H10V1H12V3Z" fill="#FFD700"/>
<path d="M2 5.5H12V8H2V5.5Z" fill="#FF8205"/>
</svg>
