<svg width="16" height="16" viewBox="0 0 16 16" fill="none" xmlns="http://www.w3.org/2000/svg">
<path fill-rule="evenodd" clip-rule="evenodd" d="M4.54713 1.03299C4.73487 0.979363 4.92824 0.991978 5.10963 1.06326L5.22096 1.116C5.32995 1.17524 5.43089 1.25529 5.52467 1.3533C5.73289 1.5693 5.90911 1.87857 6.04322 2.2449C6.17797 2.61326 6.26493 3.02119 6.29811 3.43045C6.74243 3.17908 7.23584 3.02569 7.7444 2.98123L7.78053 2.9783C8.39465 2.92889 9.00209 3.04008 9.53151 3.31326C9.60279 3.35067 9.67301 3.39103 9.74147 3.43338C9.77675 3.03183 9.86272 2.63316 9.99537 2.27322C10.1295 1.90616 10.3054 1.59735 10.5129 1.38065C10.6288 1.25538 10.7703 1.15676 10.928 1.09158C11.1094 1.02099 11.3027 1.00766 11.4905 1.06131C11.7735 1.1418 12.016 1.32142 12.2073 1.58182C12.3823 1.81967 12.5141 2.12444 12.6038 2.49002C12.7661 3.14932 12.7942 4.01714 12.6848 5.06326L12.7219 5.09158L12.7405 5.10525C13.2747 5.51181 13.6471 6.09092 13.844 6.76346C14.151 7.81297 13.9963 8.99056 13.4671 9.6492L13.4544 9.66385L13.4553 9.66678C13.7495 10.2045 13.9279 10.7724 13.9661 11.3601L13.968 11.3816C14.0132 12.1334 13.8272 12.8903 13.3938 13.6336L13.3879 13.6404L13.3958 13.657C13.5089 13.9343 13.5946 14.2124 13.654 14.4909C13.7116 14.7607 13.4942 14.9998 13.2183 14.9998C12.9832 14.9998 12.7878 14.8239 12.7335 14.5952C12.6706 14.33 12.5779 14.0635 12.4534 13.7957C12.4211 13.7266 12.4065 13.6501 12.4114 13.574C12.4164 13.498 12.4408 13.4244 12.4817 13.3601L12.4837 13.3562C12.9099 12.7041 13.0871 12.0644 13.0491 11.4363C13.0166 10.8864 12.8189 10.3464 12.4837 9.83182C12.4185 9.73185 12.3955 9.6099 12.4192 9.49295C12.443 9.37592 12.5125 9.2725 12.6116 9.20584L12.6174 9.20193C12.789 9.0897 12.9469 8.80269 13.0266 8.41092C13.1146 7.94775 13.0923 7.46994 12.9602 7.01736C12.8155 6.52342 12.5504 6.11145 12.1799 5.82986C11.76 5.50945 11.2039 5.3548 10.5003 5.3992C10.4082 5.40518 10.3161 5.38339 10.2366 5.3367C10.1571 5.29005 10.0936 5.22065 10.054 5.13748C9.83232 4.66807 9.50878 4.33205 9.10572 4.12381C8.71876 3.93068 8.28538 3.84949 7.85475 3.88943C6.976 3.95938 6.20079 4.4552 5.96998 5.07986C5.93732 5.16754 5.87875 5.24314 5.80201 5.29666C5.72506 5.35028 5.63311 5.3795 5.53932 5.37967C4.78629 5.38113 4.20292 5.55745 3.77662 5.87576C3.40831 6.15104 3.15734 6.53604 3.02467 6.99686C2.90462 7.43068 2.8883 7.88657 2.97682 8.32791C3.05582 8.72152 3.20995 9.04757 3.38697 9.22342L3.39283 9.2283C3.54248 9.37442 3.57445 9.60299 3.46998 9.78299C3.21597 10.2219 3.0265 10.8759 2.99537 11.5047C2.96008 12.2233 3.12597 12.8482 3.50221 13.2957L3.51393 13.3084C3.57071 13.3745 3.6075 13.4564 3.6194 13.5428C3.63118 13.629 3.61705 13.7168 3.58033 13.7957C3.44463 14.0869 3.34034 14.3609 3.2666 14.6176C3.20388 14.836 3.01151 14.9998 2.78429 14.9998C2.4999 14.9998 2.28054 14.7479 2.35313 14.4729C2.41959 14.2211 2.50938 13.9605 2.62233 13.6912L2.63209 13.6668L2.62623 13.658C2.43514 13.3757 2.29263 13.0634 2.20436 12.7342L2.20045 12.7205C2.09336 12.3097 2.0511 11.8846 2.07545 11.4607C2.10651 10.8184 2.27211 10.1606 2.5149 9.6326L2.52369 9.61404L2.52174 9.61307C2.31495 9.31805 2.16212 8.94005 2.0774 8.52225L2.0735 8.50467C1.95693 7.92208 1.97922 7.3201 2.13893 6.74783C2.32386 6.10197 2.68815 5.54721 3.22389 5.14627C3.26622 5.11452 3.3103 5.08216 3.35475 5.05252C3.24253 3.99869 3.2708 3.1252 3.43385 2.4617C3.52348 2.09624 3.65537 1.7913 3.83033 1.5535C4.02092 1.29373 4.26407 1.11417 4.54713 1.03299ZM4.77955 1.91873C4.69778 1.95429 4.62795 2.01355 4.57838 2.08768L4.57447 2.09158C4.47716 2.22494 4.39285 2.42112 4.32936 2.6785C4.20936 3.16694 4.17654 3.82996 4.24147 4.64236C4.545 4.55201 4.87621 4.49584 5.23268 4.47537L5.23951 4.4744L5.25318 4.45096C5.28564 4.3931 5.32028 4.33705 5.35768 4.28201C5.4445 3.73777 5.37308 3.08725 5.17897 2.55643C5.08452 2.29991 4.96959 2.0983 4.85963 1.98318C4.8369 1.95926 4.81092 1.93703 4.78346 1.91873L4.78151 1.91775L4.77955 1.91873ZM11.2561 1.94705C11.2287 1.96535 11.2027 1.98661 11.1799 2.01053C11.0699 2.12563 10.9544 2.32811 10.8606 2.58475C10.6559 3.14516 10.5877 3.83832 10.6985 4.40018L10.7395 4.46854L10.7444 4.4783H10.7659C11.1162 4.47839 11.465 4.52953 11.801 4.62869C11.8617 3.83528 11.8274 3.18611 11.7102 2.70682C11.6467 2.44936 11.5622 2.25328 11.4641 2.1199L11.4612 2.11502C11.4117 2.04081 11.3418 1.98275 11.26 1.94705H11.2561Z" fill="black"/>
<path d="M8.31666 8.87869C8.36511 8.88374 8.41121 8.90213 8.4485 8.9324L8.48561 8.96951C8.57022 9.07609 8.55212 9.23053 8.44557 9.31522L8.23951 9.4783V9.79276C8.23912 9.86281 8.21112 9.92994 8.16139 9.97928C8.11164 10.0286 8.04395 10.0566 7.97389 10.0564C7.90402 10.0565 7.83702 10.0284 7.78736 9.97928C7.73763 9.92994 7.70964 9.8628 7.70924 9.79276V9.46756L7.51783 9.31424C7.4926 9.29402 7.47085 9.26839 7.45533 9.24002C7.44005 9.21191 7.43044 9.18101 7.42701 9.1492C7.42361 9.11718 7.42667 9.08438 7.4358 9.0535C7.44499 9.02261 7.4604 8.99354 7.48072 8.96854C7.52237 8.91784 7.58245 8.88545 7.64772 8.87869C7.71301 8.87195 7.77821 8.89127 7.82936 8.9324L7.9817 9.0535L8.13697 8.93045C8.18784 8.89043 8.25227 8.87203 8.31666 8.87869Z" fill="black"/>
<path fill-rule="evenodd" clip-rule="evenodd" d="M8.0149 7.48025C8.67554 7.48025 9.28548 7.70126 9.74147 8.08377C10.1861 8.45572 10.4513 8.95534 10.4514 9.45291C10.4514 10.0797 10.1648 10.5686 9.65162 10.8806C9.21401 11.1453 8.62727 11.2732 7.95533 11.2732C7.24319 11.2732 6.63462 11.0909 6.19557 10.7556C5.76004 10.4239 5.51588 9.95762 5.51588 9.45291C5.51596 8.954 5.79672 8.4532 6.261 8.07986C6.73246 7.70086 7.355 7.48032 8.0149 7.48025ZM8.0149 8.11307C7.52528 8.10885 7.04832 8.26976 6.66236 8.57107C6.33695 8.83225 6.1526 9.16095 6.1526 9.45389C6.15261 9.75597 6.30097 10.0394 6.58326 10.2547C6.90444 10.4996 7.37721 10.6414 7.95533 10.6414C8.51908 10.6414 8.99465 10.5374 9.31861 10.3406C9.64544 10.143 9.81276 9.85597 9.81276 9.45291C9.81267 9.15439 9.63968 8.82448 9.33131 8.56619C8.98966 8.28031 8.52597 8.11307 8.0149 8.11307Z" fill="black"/>
<path d="M4.92506 7.61209C5.26236 7.61223 5.53639 7.88788 5.53639 8.22732C5.53649 8.3899 5.4724 8.54572 5.35768 8.66092C5.24279 8.7762 5.08684 8.84121 4.92408 8.84158C4.76158 8.84102 4.60617 8.77602 4.49147 8.66092C4.37677 8.54581 4.31178 8.38982 4.31178 8.22732C4.31151 8.06487 4.37604 7.90902 4.49049 7.79373C4.60524 7.67832 4.76231 7.61265 4.92506 7.61209Z" fill="black"/>
<path d="M11.0706 7.61209C11.4092 7.61226 11.6829 7.8879 11.6829 8.22732C11.683 8.38982 11.6188 8.54574 11.5042 8.66092C11.3893 8.77613 11.2332 8.84113 11.0706 8.84158C10.9081 8.84102 10.7517 8.77603 10.637 8.66092C10.5225 8.54584 10.4583 8.38967 10.4583 8.22732C10.458 8.06479 10.5224 7.90904 10.637 7.79373C10.7517 7.67832 10.9078 7.61265 11.0706 7.61209Z" fill="black"/>
</svg>
