<svg width="14" height="14" viewBox="0 0 14 14" fill="none" xmlns="http://www.w3.org/2000/svg">
<g clip-path="url(#clip0_21944_577)">
<path d="M13.0768 5.73012C13.3987 4.77679 13.2879 3.73246 12.7731 2.86531C11.9989 1.53529 10.4427 0.851021 8.92273 1.17303C8.24656 0.421386 7.2751 -0.00606019 6.25664 6.49366e-05C4.70301 -0.00343514 3.32452 0.983586 2.84655 2.44224C1.84849 2.64393 0.986988 3.26038 0.482857 4.13409C-0.29706 5.46062 -0.119262 7.13278 0.922697 8.2703C0.600798 9.22364 0.711645 10.268 1.22642 11.1351C2.00057 12.4651 3.55686 13.1494 5.07679 12.8274C5.75251 13.579 6.72441 14.0065 7.74287 13.9999C9.29739 14.0039 10.6763 13.016 11.1543 11.556C12.1524 11.3543 13.0139 10.7379 13.518 9.86415C14.297 8.53762 14.1188 6.86677 13.0773 5.72925L13.0768 5.73012ZM7.74376 13.0851C7.12169 13.086 6.51913 12.8712 6.0416 12.4778C6.06332 12.4665 6.10101 12.4459 6.1254 12.431L8.95066 10.821C9.0952 10.74 9.18388 10.5882 9.18299 10.4242V6.49402L10.377 7.17434C10.3899 7.18047 10.3983 7.19272 10.4001 7.20672V10.4614C10.3983 11.9086 9.21048 13.082 7.74376 13.0851ZM2.03116 10.6775C1.71946 10.1463 1.60729 9.52377 1.71414 8.91957C1.73498 8.93182 1.77178 8.95413 1.79794 8.96901L4.6232 10.579C4.76642 10.6617 4.94377 10.6617 5.08743 10.579L8.53654 8.61375V9.9744C8.53742 9.9884 8.53077 10.002 8.51969 10.0107L5.66383 11.6378C4.39176 12.3606 2.76719 11.9309 2.03161 10.6775H2.03116ZM1.2876 4.59216C1.59798 4.06015 2.08792 3.65327 2.67141 3.44195C2.67141 3.46601 2.67008 3.50845 2.67008 3.5382V6.75871C2.6692 6.92234 2.75788 7.07415 2.90198 7.15509L6.35108 9.11995L5.15704 9.80027C5.14507 9.80815 5.12999 9.80946 5.11669 9.80377L2.2604 8.17536C0.990979 7.44997 0.555573 5.84738 1.28716 4.5926L1.2876 4.59216ZM11.098 6.8449L7.64888 4.87961L8.84292 4.19972C8.85489 4.19184 8.86996 4.19053 8.88326 4.19622L11.7396 5.82331C13.0112 6.54827 13.447 8.15349 12.7124 9.40827C12.4015 9.9394 11.912 10.3463 11.329 10.558V7.24128C11.3303 7.07765 11.2421 6.92628 11.0984 6.8449H11.098ZM12.2863 5.07999C12.2654 5.0673 12.2286 5.04542 12.2025 5.03055L9.3772 3.42051C9.23398 3.33782 9.05663 3.33782 8.91297 3.42051L5.46386 5.38581V4.02515C5.46298 4.01115 5.46963 3.99759 5.48071 3.98884L8.33657 2.36305C9.60865 1.63897 11.235 2.06992 11.9684 3.32557C12.2783 3.85583 12.3905 4.47666 12.2854 5.07999H12.2863ZM4.81475 7.5051L3.62026 6.82477C3.6074 6.81865 3.59898 6.8064 3.59721 6.7924V3.53777C3.59809 2.08873 4.78947 0.914459 6.25797 0.915334C6.87916 0.915334 7.48039 1.13059 7.95792 1.5226C7.93619 1.53397 7.89895 1.55454 7.87412 1.56941L5.04885 3.17945C4.90431 3.26038 4.81563 3.41176 4.81652 3.57583L4.81475 7.50423V7.5051ZM5.46342 6.1252L6.99976 5.24974L8.53609 6.12476V7.87523L6.99976 8.75025L5.46342 7.87523V6.1252Z" fill="black"/>
</g>
<defs>
<clipPath id="clip0_21944_577">
<rect width="14" height="14" fill="white"/>
</clipPath>
</defs>
</svg>
