<svg width="16" height="16" viewBox="0 0 16 16" fill="none" xmlns="http://www.w3.org/2000/svg">
<path fill-rule="evenodd" clip-rule="evenodd" d="M10.7925 2.16L15 4.55219V4.60289L10.7494 6.96944L10.7593 5.73576L10.2809 5.71828C9.66375 5.70196 9.34207 5.71944 8.95921 5.78238C8.33916 5.88436 7.77156 6.11863 7.12529 6.57026L5.86305 7.4473C5.69755 7.56094 5.57459 7.6431 5.46678 7.71245L5.16667 7.9001L4.93531 8.03646L5.15967 8.17049L5.46853 8.36746C5.74592 8.55045 6.15035 8.83133 7.04254 9.45488C7.68939 9.90651 8.25641 10.1408 8.87646 10.2428L9.05128 10.269C9.45571 10.322 9.85256 10.3238 10.6976 10.2882L10.7104 9.03005L14.9178 11.4222V11.4729L10.6672 13.8401L10.6754 12.755L10.3054 12.7678C9.49767 12.7923 9.06002 12.769 8.47669 12.6734C7.48951 12.5102 6.57692 12.1338 5.63228 11.4735L4.37471 10.5994C4.23005 10.4997 4.08336 10.4029 3.93473 10.3092L3.66259 10.146C3.51561 10.0613 3.36798 9.97781 3.2197 9.89544C2.69464 9.60348 1.32809 9.24567 1 9.24567V6.7818L1.08159 6.78413C1.41026 6.78005 2.77739 6.42166 3.30128 6.12912L3.89336 5.79112L4.1486 5.63145C4.39802 5.46828 4.77331 5.20837 5.71387 4.55161C6.65851 3.89136 7.57051 3.51432 8.55827 3.35173C9.2296 3.24101 9.70862 3.2276 10.7809 3.27131L10.7925 2.16Z" fill="black"/>
</svg>
