<svg width="14" height="14" viewBox="0 0 14 14" fill="none" xmlns="http://www.w3.org/2000/svg">
<path fill-rule="evenodd" clip-rule="evenodd" d="M9.79254 1.15997L14 3.55216V3.60286L9.74942 5.96941L9.75932 4.73573L9.28088 4.71825C8.66375 4.70193 8.34207 4.71941 7.95921 4.78235C7.33916 4.88433 6.77156 5.1186 6.12529 5.57023L4.86305 6.44727C4.69755 6.56091 4.57459 6.64307 4.46678 6.71242L4.16667 6.90007L3.93531 7.03643L4.15967 7.17046L4.46853 7.36743C4.74592 7.55042 5.15035 7.8313 6.04254 8.45485C6.68939 8.90648 7.25641 9.14074 7.87646 9.24272L8.05128 9.26895C8.45571 9.32198 8.85256 9.32373 9.69755 9.28818L9.71037 8.03002L13.9178 10.4222V10.4729L9.66725 12.84L9.67541 11.755L9.30536 11.7678C8.49767 11.7923 8.06002 11.7689 7.47669 11.6734C6.48951 11.5102 5.57692 11.1337 4.63228 10.4735L3.37471 9.59937C3.23005 9.49963 3.08336 9.40287 2.93473 9.30916L2.66259 9.14599C2.51561 9.06131 2.36798 8.97778 2.2197 8.8954C1.69464 8.60345 0.328089 8.24564 0 8.24564V5.78177L0.0815851 5.7841C0.410256 5.78002 1.77739 5.42163 2.30128 5.12909L2.89336 4.79109L3.1486 4.63142C3.39802 4.46825 3.77331 4.20834 4.71387 3.55158C5.65851 2.89133 6.57051 2.51429 7.55827 2.3517C8.2296 2.24098 8.70862 2.22757 9.78089 2.27128L9.79254 1.15997Z" fill="black"/>
</svg>
