<svg width="20" height="20" viewBox="0 0 20 20" fill="none" xmlns="http://www.w3.org/2000/svg">
  <path
    d="M5.25 11.5C5.94036 11.5 6.5 12.0596 6.5 12.75C6.5 13.4404 5.94036 14 5.25 14C4.55964 14 4 13.4404 4 12.75C4 12.0596 4.55964 11.5 5.25 11.5Z"
    fill="#CED0D6"/>
  <path
    d="M9.75 11.5C10.4404 11.5 11 12.0596 11 12.75C11 13.4404 10.4404 14 9.75 14C9.05964 14 8.5 13.4404 8.5 12.75C8.5 12.0596 9.05964 11.5 9.75 11.5Z"
    fill="#CED0D6"/>
  <path fill-rule="evenodd" clip-rule="evenodd"
        d="M9 7C11.7614 7 14 9.23858 14 12V17C14 17.5523 13.5523 18 13 18H2L1.89746 17.9951C1.39333 17.9438 1 17.5177 1 17V12C1 9.23858 3.23858 7 6 7H9ZM6 8.5C4.067 8.5 2.5 10.067 2.5 12V16.5H12.5V12C12.5 10.067 10.933 8.5 9 8.5H6Z"
        fill="#CED0D6"/>
  <path
    d="M16.75 2C17.9926 2 19 3.00736 19 4.25V14.25C19 14.5448 18.8273 14.8123 18.5586 14.9336C18.2899 15.0548 17.975 15.0075 17.7539 14.8125L15.5 12.8232V10.8232L17.5 12.5879V4.25C17.5 3.83579 17.1642 3.5 16.75 3.5H8.25C7.83579 3.5 7.5 3.83579 7.5 4.25V5.5H6V4.25C6 3.00736 7.00736 2 8.25 2H16.75Z"
    fill="#CED0D6"/>
</svg>
