<svg width="16" height="16" viewBox="0 0 16 16" fill="none" xmlns="http://www.w3.org/2000/svg">
  <path d="M8 9C7.44772 9 7 9.44772 7 10C7 10.5523 7.44772 11 8 11C8.55228 11 9 10.5523 9 10C9 9.44772 8.55228 9 8 9Z" fill="#CED0D6"/>
  <path d="M4 9C3.44772 9 3 9.44772 3 10C3 10.5523 3.44772 11 4 11C4.55228 11 5 10.5523 5 10C5 9.44772 4.55228 9 4 9Z" fill="#CED0D6"/>
  <path fill-rule="evenodd" clip-rule="evenodd"
        d="M4.79395 6.00488C2.68056 6.11211 1 7.85996 1 10V13C1 13.5177 1.39333 13.9438 1.89746 13.9951L2 14H10L10.1025 13.9951C10.6067 13.9438 11 13.5177 11 13V10C11 7.85996 9.31944 6.11211 7.20605 6.00488L7 6H5L4.79395 6.00488ZM7 7C8.65685 7 10 8.34315 10 10V13H2V10C2 8.34315 3.34315 7 5 7H7Z"
        fill="#CED0D6"/>
  <path
    d="M7 2C5.89543 2 5 2.89543 5 4V5H6V4C6 3.44772 6.44772 3 7 3H13C13.5523 3 14 3.44772 14 4V10.4053L12.6533 9.24316C12.4717 9.08639 12.2399 9 12 9V10L14.1729 11.876C14.4967 12.1556 14.9997 11.9258 15 11.498V4C15 2.89543 14.1046 2 13 2H7Z"
    fill="#CED0D6"/>
</svg>
