<!-- Copyright © 2000–2024 JetBrains s.r.o. -->
<svg width="16" height="16" viewBox="0 0 16 16" xmlns="http://www.w3.org/2000/svg">
  <path fill="#CED0D6" d="M7.5 14.5c-3.309 0-6-2.691-6-6 0-2.677 1.8-5.052 4.378-5.773a.501.501 0 0 1 .27.962 5.013 5.013 0 0 0-3.649 4.812c0 2.757 2.243 5 5 5 2.23 0 4.21-1.5 4.812-3.647a.5.5 0 0 1 .963.269A6.015 6.015 0 0 1 7.5 14.5"/>
  <path fill="#DB5C5C" d="M7.993 1.5a.504.504 0 0 0-.493.503v5.996a.5.5 0 0 0 .501.5H14a.5.5 0 0 0 .5-.5c0-3.177-3.328-6.5-6.507-6.5zm.51 5.998v-4.93a6.067 6.067 0 0 1 4.93 4.93z"/>
  <path fill="#5E3838" d="M8.503 7.498v-4.93a6.067 6.067 0 0 1 4.93 4.93z"/>
  <path fill="#5E3838" d="M8.503 7.498v-4.93a6.067 6.067 0 0 1 4.93 4.93z"/>
</svg>
