<!-- Copyright © 2000–2024 JetBrains s.r.o. -->
<svg width="16" height="16" viewBox="0 0 16 16" xmlns="http://www.w3.org/2000/svg">
  <path fill="none" stroke="#6C707E" stroke-linecap="round" stroke-linejoin="round" d="M8.67 10.5H2.5c-1.1 0-2-.9-2-2v-3c0-1.1.9-2 2-2h11c1.1 0 2 .9 2 2v1.76"/>
  <path fill="#6C707E" d="M3 8a1 1 0 1 0 0-2 1 1 0 0 0 0 2m3 0a1 1 0 1 0 0-2 1 1 0 0 0 0 2m3 0a1 1 0 1 0 0-2 1 1 0 0 0 0 2"/>
  <path fill="none" stroke="#3574F0" stroke-miterlimit="10" d="m12 10 2 2"/>
  <path fill="none" stroke="#3574F0" stroke-miterlimit="10" d="M14.05 8.65a.51.51 0 0 0-.35-.15.51.51 0 0 0-.35.15L8.5 13.5v2.01h2.01l4.85-4.85a.51.51 0 0 0 .15-.35.51.51 0 0 0-.15-.35l-1.3-1.3z" clip-rule="evenodd"/>
</svg>
