<!-- Copyright © 2000–2024 JetBrains s.r.o. -->
<svg width="16" height="16" viewBox="0 0 16 16" xmlns="http://www.w3.org/2000/svg">
  <path fill="#F2FCF3" d="m12.99 7.13-8-4.5a.994.994 0 0 0-.49-.13c-.55 0-1 .45-1 1V8c.13 0 .27.01.4.04a4.49 4.49 0 0 1 3.99 3.51c.01.06.1.14.1.14l5-2.81c.3-.17.51-.5.51-.87s-.21-.7-.51-.87z"/>
  <path fill="none" stroke="#369650" stroke-linecap="round" stroke-linejoin="round" d="M3.5 7.5v-4c0-.55.45-1 1-1 .18 0 .35.05.49.13l8 4.5c.3.17.51.5.51.87s-.21.7-.51.87l-4.6 2.59"/>
  <path fill="#DB3B4B" d="M3.5 9C1.57 9 0 10.57 0 12.5S1.57 16 3.5 16 7 14.43 7 12.5 5.43 9 3.5 9M5 13H2c-.28 0-.5-.22-.5-.5s.22-.5.5-.5h3c.28 0 .5.22.5.5s-.22.5-.5.5"/>
</svg>
