<svg xmlns="http://www.w3.org/2000/svg" width="16" height="16">
  <path d="M14.182,10,12.7,8.941a4.858,4.858,0,0,0,0-1.882L14.182,6A6.487,6.487,0,0,0,12.826,3.65L11.168,4.4a4.813,4.813,0,0,0-1.635-.946l-.18-1.809a6.555,6.555,0,0,0-2.714,0l-.18,1.809A4.813,4.813,0,0,0,4.824,4.4L3.166,3.65A6.5,6.5,0,0,0,1.81,6L3.288,7.059a4.858,4.858,0,0,0,0,1.882L1.81,10A6.5,6.5,0,0,0,3.166,12.35L4.824,11.6a4.813,4.813,0,0,0,1.635.946l.18,1.809a6.555,6.555,0,0,0,2.714,0l.18-1.809a4.813,4.813,0,0,0,1.635-.946l1.658.747A6.487,6.487,0,0,0,14.182,10ZM10.3,8A2.3,2.3,0,1,1,8,5.7,2.3,2.3,0,0,1,10.3,8Z" fill="#9AA7B0" fill-rule="evenodd"/>
</svg>
