<svg width="20" height="20" viewBox="0 0 20 20" fill="none" xmlns="http://www.w3.org/2000/svg">
<path d="M2 6.75C2 6.33579 2.33579 6 2.75 6H17.25C17.6642 6 18 6.33579 18 6.75V6.75C18 7.16421 17.6642 7.5 17.25 7.5H2.75C2.33579 7.5 2 7.16421 2 6.75V6.75Z" fill="#6C707E"/>
<path d="M2 10.75C2 10.3358 2.33579 10 2.75 10H7.25C7.66421 10 8 10.3358 8 10.75V10.75C8 11.1642 7.66421 11.5 7.25 11.5H2.75C2.33579 11.5 2 11.1642 2 10.75V10.75Z" fill="#6C707E"/>
<path d="M2 2.75C2 2.33579 2.33579 2 2.75 2H17.25C17.6642 2 18 2.33579 18 2.75V2.75C18 3.16421 17.6642 3.5 17.25 3.5H2.75C2.33579 3.5 2 3.16421 2 2.75V2.75Z" fill="#6C707E"/>
<path d="M10.7563 16.6964V11.4354C10.7563 10.6365 11.6469 10.1602 12.3114 10.6036L16.2534 13.2341C16.8466 13.63 16.8466 14.5018 16.2534 14.8977L12.3114 17.5282C11.6469 17.9717 10.7563 17.4953 10.7563 16.6964Z" stroke="#6C707E" stroke-width="1.5"/>
</svg>
