<svg width="16" height="16" fill="none" xmlns="http://www.w3.org/2000/svg">
  <path stroke="#CED0D6" stroke-linecap="round" stroke-linejoin="round" d="M10.5 11.5h2m-11 0h2m7-3h2m-11 0h2m-2-3h2m7 2.731V12c0 .827-.673 1.5-1.5 1.5H5c-.827 0-1.5-.673-1.5-1.5V5c0-.827.673-1.5 1.5-1.5h2.769"/>
  <path fill="#253627" stroke="#57965C" stroke-linecap="round" stroke-linejoin="round" d="M12.5 2.5a1 1 0 1 0 0-2 1 1 0 0 0 0 2Z"/>
  <path stroke="#57965C" stroke-linecap="round" stroke-linejoin="round" d="m15.5 2.5-3 2-3-2m0 4 3-2 3 2"/>
  <path fill="#253627" stroke="#57965C" stroke-linecap="round" stroke-linejoin="round" d="M12.5 6.5c1.105 0 2-1.007 2-2.25S13.605 2 12.5 2s-2 1.007-2 2.25.895 2.25 2 2.25Z"/>
</svg>
