<svg width="16" height="16" fill="none" xmlns="http://www.w3.org/2000/svg">
  <path stroke="#CED0D6" stroke-linecap="round" stroke-linejoin="round" d="M12.567 7.682c.78 2.288.926 4.681-.555 6.735-.316.438-4.601-1.612-6.681-2.678a44.289 44.289 0 0 1-2.412 2.747m7.429-8.726s1.822.318 2.73.416c.962.104-.041-3.448-.468-3.743-1.014-.702-3.068-.801-5.458-.928-1.073-.057-1.975.598-1.975.598"/>
  <path stroke="#CED0D6" stroke-linecap="round" stroke-linejoin="round" d="M5.902 5.812c-2.652-1.04-3.584-1.661-3.094-2.86.468-1.144.551-1.124 4.554-.267"/>
  <path stroke="#CED0D6" stroke-linecap="round" stroke-linejoin="round" d="M1.509 5.988c.773-.242 1.71-.657 2.018-1.273m6.535 4.451c.546 1.092 1.898 2.548 2.886 3.068"/>
</svg>
