<svg width="16" height="16" viewBox="0 0 16 16" fill="none" xmlns="http://www.w3.org/2000/svg">
<path fill-rule="evenodd" clip-rule="evenodd" d="M8.05 11C8.05 10.9901 14.3005 11 14.875 11C14.9002 11 14.9252 11.0018 14.95 11.0055C15.5364 11.0912 16 12.1753 16 13.5C16 14.8247 15.5364 15.9088 14.95 15.9945C14.9252 15.9982 14.9002 16 14.875 16C14.8498 16 14.8248 15.9982 14.8 15.9945V16H8.05V15.9945C7.46365 15.9088 7 14.8247 7 13.5C7 12.1753 7.46365 11.0858 8.05 11ZM8.31624 15C8.2908 14.9593 8.25954 14.9013 8.22612 14.8223C8.09917 14.5222 8 14.0572 8 13.5C8 12.9428 8.09917 12.4778 8.22612 12.1777C8.25954 12.0987 8.2908 12.0407 8.31624 12H13.1393C12.9797 12.4437 12.9 12.9682 12.9 13.5C12.9 14.0318 12.9797 14.5563 13.1393 15H8.31624ZM14.1809 14.8933C14.2007 14.9313 14.2214 14.9669 14.2429 15C14.3601 15.1808 14.4999 15.2857 14.65 15.2857C14.7014 15.2857 14.7515 15.2734 14.8 15.25C14.8255 15.2377 14.8505 15.2223 14.875 15.204C14.8907 15.1923 14.9061 15.1794 14.9213 15.1653C15.2014 14.9064 15.4 14.2584 15.4 13.5C15.4 12.7416 15.2014 12.0936 14.9213 11.8347C14.9061 11.8206 14.8907 11.8078 14.875 11.796C14.8505 11.7777 14.8255 11.7623 14.8 11.75C14.7515 11.7266 14.7014 11.7143 14.65 11.7143C14.4999 11.7143 14.3601 11.8192 14.2429 12C14.2214 12.0331 14.2007 12.0687 14.1809 12.1067C14.0096 12.4339 13.9 12.9365 13.9 13.5C13.9 14.0635 14.0096 14.5661 14.1809 14.8933Z" fill="#CED0D6"/>
<path d="M13.8153 9.9989C14.356 7.72037 13.601 4.9364 12.9473 3C12.1967 4.55929 10.35 5.75834 8.75504 6.13698C8.10001 6.29328 7.47797 6.3249 6.86938 6.35584C6.08892 6.39552 5.33057 6.43407 4.55312 6.733C1.39817 7.9452 1.4464 11.7062 3.18434 12.5512L3.28781 12.6064C3.28781 12.6064 3.29639 12.6046 3.31284 12.6012C3.51821 12.5592 4.94969 12.2665 6.20592 11.9106C6.25629 11.7303 6.31564 11.5582 6.38369 11.3969C6.59815 10.8883 7.05132 10.1447 7.88803 10.0132C7.92047 10.0078 7.94528 10.0054 7.95246 10.0047C7.97877 10.0021 8.00044 10.001 8.00621 10.0007C8.02235 9.99995 8.03716 9.99959 8.04497 9.99941C8.0634 9.99899 8.08615 9.99868 8.11005 9.99844C8.15926 9.99793 8.22927 9.99752 8.31575 9.99718C8.48943 9.99649 8.73712 9.99606 9.03483 9.99583C9.3034 9.99562 9.61344 9.99557 9.94787 9.99563L10.7349 9.99595C10.9039 9.99605 11.0755 9.99616 11.2478 9.99629C12.171 9.99699 13.1157 9.99808 13.8153 9.9989Z" fill="#253627"/>
<path d="M6 13.4986C6.00004 13.3163 6.00756 13.1355 6.02238 12.9579C5.5847 13.0905 5.08249 13.243 4.46192 13.4575C4.25148 13.5302 4.08663 13.6004 4.08663 13.6004C4.52243 13.5285 4.95472 13.5039 4.95472 13.5039C5.28142 13.4892 5.63255 13.4906 6 13.4986Z" fill="#253627"/>
<path d="M6.55758 5.37077C5.85421 5.40938 5.04269 5.47346 4.19453 5.79954C2.25514 6.54479 1.25485 8.10892 1.04333 9.64326C0.847108 11.0666 1.33173 12.7204 2.68642 13.4201C2.69602 13.4428 2.70767 13.4719 2.72425 13.5133L2.76299 13.6097C2.80421 13.7123 2.90411 13.9611 3.08639 14.1692C3.196 14.2944 3.35669 14.432 3.58005 14.5196C3.8087 14.6092 4.04011 14.6216 4.24942 14.587C4.43594 14.5563 4.62776 14.5348 4.77678 14.5209C4.85025 14.5141 4.911 14.5093 4.95257 14.5063L4.99926 14.5031L5.00728 14.5026C5.33461 14.4881 5.69005 14.4911 6.07808 14.5007C6.02644 14.1796 6 13.8426 6 13.5L6 13.4986C5.63255 13.4906 5.28142 13.4892 4.95472 13.5039C4.95472 13.5039 4.52243 13.5285 4.08663 13.6004C4.08663 13.6004 4.25148 13.5302 4.46192 13.4575C5.08249 13.243 5.5847 13.0905 6.02238 12.9579C6.05298 12.5909 6.11472 12.2372 6.20589 11.9107C4.84906 12.2953 3.28781 12.6064 3.28781 12.6064L3.18434 12.5512C1.4464 11.7062 1.39817 7.9452 4.55312 6.733C5.33057 6.43407 6.08892 6.39552 6.86938 6.35584C7.47797 6.3249 8.10001 6.29328 8.75504 6.13698C10.35 5.75834 12.1967 4.55929 12.9473 3C13.601 4.9364 14.356 7.72037 13.8153 9.9989C13.8435 9.99894 13.8713 9.99897 13.8987 9.999C14.3531 9.99953 14.693 9.99993 14.8388 10C15.0165 9.12236 15.0313 8.21696 14.9602 7.35611C14.8186 5.64384 14.3242 3.95217 13.8949 2.68017L13.1103 0.356018L12.0463 2.56628C11.4596 3.78522 9.90936 4.83519 8.52413 5.16403L8.52301 5.1643C7.96333 5.29785 7.43676 5.32505 6.82202 5.35681L6.82091 5.35687C6.73498 5.36131 6.64731 5.36584 6.55758 5.37077Z" fill="#57965C"/>
<path d="M8.22612 14.8223C8.25953 14.9013 8.2908 14.9593 8.31624 15H13.1393C12.9797 14.5563 12.9 14.0318 12.9 13.5C12.9 12.9682 12.9797 12.4437 13.1393 12H8.31624C8.2908 12.0407 8.25953 12.0987 8.22612 12.1777C8.09917 12.4778 8 12.9428 8 13.5C8 14.0572 8.09917 14.5222 8.22612 14.8223Z" fill="#43454A"/>
<path d="M14.2429 15C14.2214 14.9669 14.2007 14.9313 14.1809 14.8933C14.0096 14.5661 13.9 14.0635 13.9 13.5C13.9 12.9365 14.0096 12.434 14.1809 12.1067C14.2007 12.0687 14.2214 12.0331 14.2429 12C14.3601 11.8192 14.4999 11.7143 14.65 11.7143C14.7014 11.7143 14.7515 11.7266 14.8 11.75C14.8255 11.7623 14.8505 11.7777 14.875 11.796C14.8907 11.8078 14.9061 11.8207 14.9213 11.8347C15.2014 12.0936 15.4 12.7416 15.4 13.5C15.4 14.2584 15.2014 14.9064 14.9213 15.1653C14.9061 15.1794 14.8907 15.1923 14.875 15.204C14.8505 15.2223 14.8255 15.2377 14.8 15.25C14.7515 15.2734 14.7014 15.2857 14.65 15.2857C14.4999 15.2857 14.3601 15.1808 14.2429 15Z" fill="#43454A"/>
</svg>
