<svg width="16" height="16" viewBox="0 0 16 16" fill="none" xmlns="http://www.w3.org/2000/svg">
<path fill-rule="evenodd" clip-rule="evenodd" d="M8.05 11C8.05 10.9901 14.3005 11 14.875 11C14.9002 11 14.9252 11.0018 14.95 11.0055C15.5364 11.0912 16 12.1753 16 13.5C16 14.8247 15.5364 15.9088 14.95 15.9945C14.9252 15.9982 14.9002 16 14.875 16C14.8498 16 14.8248 15.9982 14.8 15.9945V16H8.05V15.9945C7.46365 15.9088 7 14.8247 7 13.5C7 12.1753 7.46365 11.0858 8.05 11ZM8.31624 15C8.2908 14.9593 8.25954 14.9013 8.22612 14.8223C8.09917 14.5222 8 14.0572 8 13.5C8 12.9428 8.09917 12.4778 8.22612 12.1777C8.25954 12.0987 8.2908 12.0407 8.31624 12H13.1393C12.9797 12.4437 12.9 12.9682 12.9 13.5C12.9 14.0318 12.9797 14.5563 13.1393 15H8.31624ZM14.1809 14.8933C14.2007 14.9313 14.2214 14.9669 14.2429 15C14.3601 15.1808 14.4999 15.2857 14.65 15.2857C14.7014 15.2857 14.7515 15.2734 14.8 15.25C14.8255 15.2377 14.8505 15.2223 14.875 15.204C14.8907 15.1923 14.9061 15.1794 14.9213 15.1653C15.2014 14.9064 15.4 14.2584 15.4 13.5C15.4 12.7416 15.2014 12.0936 14.9213 11.8347C14.9061 11.8206 14.8907 11.8078 14.875 11.796C14.8505 11.7777 14.8255 11.7623 14.8 11.75C14.7515 11.7266 14.7014 11.7143 14.65 11.7143C14.4999 11.7143 14.3601 11.8192 14.2429 12C14.2214 12.0331 14.2007 12.0687 14.1809 12.1067C14.0096 12.4339 13.9 12.9365 13.9 13.5C13.9 14.0635 14.0096 14.5661 14.1809 14.8933Z" fill="#548AF7"/>
<path d="M3 11V5.82843C3 5.29799 3.21071 4.78929 3.58579 4.41421L6.41421 1.58579C6.78929 1.21071 7.29799 1 7.82843 1H10C11.1046 1 12 1.89543 12 3V9.99694C11.7513 9.9967 11.4987 9.99648 11.2478 9.99629C10.4305 9.99567 9.6306 9.99536 9.03483 9.99583C8.73712 9.99606 8.48943 9.99649 8.31575 9.99718C8.22927 9.99752 8.15926 9.99793 8.11005 9.99844C8.08615 9.99868 8.0634 9.99899 8.04497 9.99941C8.03716 9.99959 8.02235 9.99995 8.00621 10.0007C8.00044 10.001 7.97877 10.0021 7.95246 10.0047C7.94528 10.0054 7.92047 10.0078 7.88803 10.0132C7.05132 10.1447 6.59815 10.8883 6.38369 11.3969C6.18773 11.8616 6.06391 12.4146 6.01901 13H5C3.89543 13 3 12.1046 3 11Z" fill="#43454A"/>
<path fill-rule="evenodd" clip-rule="evenodd" d="M3 5.82843V11C3 12.1046 3.89543 13 5 13H6.01901C6.04576 12.6513 6.10052 12.314 6.18187 12H5C4.44772 12 4 11.5523 4 11V6H6.5C7.32843 6 8 5.32843 8 4.5V2H10C10.5523 2 11 2.44772 11 3V9.99611C11.0823 9.99617 11.165 9.99623 11.2478 9.99629C11.4987 9.99648 11.7513 9.9967 12 9.99694V3C12 1.89543 11.1046 1 10 1H7.82843C7.29799 1 6.78929 1.21071 6.41421 1.58579L3.58579 4.41421C3.21071 4.78929 3 5.29799 3 5.82843ZM7 2.41421L4.41421 5H6.5C6.77614 5 7 4.77614 7 4.5V2.41421Z" fill="#CED0D6"/>
<path d="M14 9.99912C13.9683 9.99908 13.9361 9.99905 13.9032 9.99901L13.8987 9.999C13.633 9.99869 13.3281 9.99833 13 9.99797V4.5C13 4.22386 13.2239 4 13.5 4C13.7761 4 14 4.22386 14 4.5V9.99912Z" fill="#CED0D6"/>
<path d="M8.22612 14.8223C8.25953 14.9013 8.2908 14.9593 8.31624 15H13.1393C12.9797 14.5563 12.9 14.0318 12.9 13.5C12.9 12.9682 12.9797 12.4437 13.1393 12H8.31624C8.2908 12.0407 8.25953 12.0987 8.22612 12.1777C8.09917 12.4778 8 12.9428 8 13.5C8 14.0572 8.09917 14.5222 8.22612 14.8223Z" fill="#25324D"/>
<path d="M14.2429 15C14.2214 14.9669 14.2007 14.9313 14.1809 14.8933C14.0096 14.5661 13.9 14.0635 13.9 13.5C13.9 12.9365 14.0096 12.434 14.1809 12.1067C14.2007 12.0687 14.2214 12.0331 14.2429 12C14.3601 11.8192 14.4999 11.7143 14.65 11.7143C14.7014 11.7143 14.7515 11.7266 14.8 11.75C14.8255 11.7623 14.8505 11.7777 14.875 11.796C14.8907 11.8078 14.9061 11.8207 14.9213 11.8347C15.2014 12.0936 15.4 12.7416 15.4 13.5C15.4 14.2584 15.2014 14.9064 14.9213 15.1653C14.9061 15.1794 14.8907 15.1923 14.875 15.204C14.8505 15.2223 14.8255 15.2377 14.8 15.25C14.7515 15.2734 14.7014 15.2857 14.65 15.2857C14.4999 15.2857 14.3601 15.1808 14.2429 15Z" fill="#25324D"/>
</svg>
