<svg xmlns="http://www.w3.org/2000/svg" width="16" height="16">
  <path d="M12.076 7.008a4.9 4.9 0 011.11.149A37.142 37.142 0 0015 3H14s-1.4 3.132-1.637 3.538C12.3 6.645 12.192 6.83 12.076 7.008zM11.967 7c.487-1.364 1.308-4 1.309-4h-.168c-1.334 0-1.863.992-2.153 2.419-.08.392-.272 1.154-.466 1.839A4.96 4.96 0 0111.967 7zM7.56 9.746A5.01 5.01 0 018.3 8.666a1.39 1.39 0 01-.321-.49A33.771 33.771 0 016.84 4c.324 0 .619.2.784.812A18.357 18.357 0 008.7 8.274a4.929 4.929 0 011.185-.787A18.176 18.176 0 009.063 4.2 1.7 1.7 0 007.475 3H5.131A2.1 2.1 0 003.7 3.79 14.265 14.265 0 001 9.988H2.2A10.666 10.666 0 013.979 5.5 23.836 23.836 0 002.822 9.971 1.7 1.7 0 004.542 8.5 9.466 9.466 0 015.921 4.426c.164.583.547 2.881.806 3.7A3.553 3.553 0 007.56 9.746z" fill="#40b6e0"/>
  <path d="M12,8a4,4,0,1,0,4,4A4,4,0,0,0,12,8Zm-.4,7.172A3.2,3.2,0,0,1,8.8,12a3.247,3.247,0,0,1,.084-.716L10.8,13.2v.4a.8.8,0,0,0,.8.8Zm2.76-1.016a.794.794,0,0,0-.76-.556h-.4V12.4a.4.4,0,0,0-.4-.4H10.4v-.8h.8a.4.4,0,0,0,.4-.4V10h.8a.8.8,0,0,0,.8-.8V9.036a3.193,3.193,0,0,1,1.16,5.12Z" fill="#9aa7b0" fill-rule="evenodd"/>
</svg>
