<svg width="16" height="16" viewBox="0 0 16 16" xmlns="http://www.w3.org/2000/svg">
  <path fill="#f26522" d="m8.9 12.114.6-1.314c.384.441.956.67 1.538.616.536 0 1.223-.263 1.223-.952C12.261 9.3 9.1 8.5 9.1 6.585A2.455 2.455 0 0 1 11.861 4c.685.01 1.356.193 1.95.534l-.291 1.457a2.17 2.17 0 0 0-1.568-.607c-.524.01-1.224.228-1.224 1.009C10.728 7.518 14 8.359 14 10.2a2.644 2.644 0 0 1-2.891 2.8 3.009 3.009 0 0 1-2.209-.886ZM8 9.336c0 2.232-.973 3.701-2.923 3.664-.834-.016-1.603-.455-2.077-1.141l.959-1.133c1.119.859 2.201.656 2.201-1.213V4H8v5.336Z"/>
</svg>
