<svg width="16" height="16" viewBox="0 0 16 16" xmlns="http://www.w3.org/2000/svg">
  <path fill="#E66D17" d="M3 10.355h1.175c.535 0 .9-.361.9-.896v-4.96H6.3v5.045c0 1.155-.8 1.955-1.99 1.955H3v-1.144Zm4.59-.9h1.245c0 .707.614 1.104 1.34 1.104.686 0 1.279-.338 1.279-1.01 0-.5-.326-.894-.83-.98-1.087-.183-1.591-.202-2.08-.557-.512-.373-.78-.942-.78-1.583 0-1.26 1.064-2.05 2.386-2.05s2.405.738 2.415 2.02h-1.24c0-.618-.532-.96-1.16-.96-.628 0-1.154.333-1.154.936 0 .43.298.782.765.86.984.166 1.555.179 2.088.574.528.395.848 1 .848 1.68 0 1.298-1.135 2.13-2.551 2.13-1.404 0-2.56-.8-2.57-2.164H7.59Z"/>
</svg>
