<svg width="16" height="16" viewBox="0 0 16 16" xmlns="http://www.w3.org/2000/svg">
  <path fill="#E08855" d="m5.225 5.23.024 1.374C5.26 7.334 4.614 8 4.327 8c.288 0 .931.665.922 1.396l-.024 1.374c-.014.688.452 1.088 1.17 1.088H7V13h-.643C4.903 13 3.972 12.19 4 10.89V9.5c.015-.573-.42-.87-1.006-.87h-.688V7.373h.688c.586 0 1.021-.297 1.006-.87v-1.39c-.027-1.301.904-2.11 2.357-2.11H7v1.143h-.606c-.717 0-1.183.4-1.169 1.088V5.23Zm5.551 0-.024 1.374c-.009.73.635 1.396.922 1.396-.288 0-.93.665-.922 1.396l.024 1.374c.014.688-.452 1.088-1.169 1.088h-.606V13h.643c1.454 0 2.385-.81 2.357-2.11V9.5c-.015-.573.42-.87 1.006-.87h.688V7.373h-.688c-.586 0-1.02-.297-1.006-.87v-1.39c.027-1.301-.904-2.11-2.357-2.11h-.643v1.143h.606c.717 0 1.183.4 1.17 1.088V5.23Z"/>
</svg>
