<svg width="16" height="16" viewBox="0 0 16 16" xmlns="http://www.w3.org/2000/svg">
  <path fill="#f26522" d="M4.36 7.381a1.942 1.942 0 0 0 1.103-1.893V4.256c0-.835.383-1.087 1.037-1.087V2c-.718 0-1.416.057-1.943.542C4.071 2.989 4 3.653 4 4.331v1.394c0 .796-.334 1.194-.928 1.194H2.5v1.162h.572c.594 0 .928.398.928 1.194v1.394c0 .678.071 1.342.557 1.789.527.485 1.225.542 1.943.542v-1.169c-.654 0-1.037-.252-1.037-1.087V9.512A1.942 1.942 0 0 0 4.36 7.619v-.238Zm7.28 0a1.942 1.942 0 0 1-1.103-1.893V4.256c0-.835-.383-1.087-1.037-1.087V2c.718 0 1.416.057 1.943.542.486.447.557 1.111.557 1.789v1.394c0 .796.334 1.194.928 1.194h.572v1.162h-.572c-.594 0-.928.398-.928 1.194v1.394c0 .678-.071 1.342-.557 1.789-.527.485-1.225.542-1.943.542v-1.169c.654 0 1.037-.252 1.037-1.087V9.512a1.942 1.942 0 0 1 1.103-1.893v-.238Z"/>
</svg>
