<svg width="80" height="80" viewBox="0 0 80 80" fill="none" xmlns="http://www.w3.org/2000/svg">
<path d="M74 6H6V74H74V6Z" fill="url(#paint0_linear)"/>
<path d="M61.5999 18.4H18.3999V61.7H61.6999V18.4H61.5999Z" fill="url(#paint1_linear)"/>
<path d="M68.2001 11.8H11.8V68.1H68.1V11.8H68.2001Z" fill="url(#paint2_linear)"/>
<path d="M68.2001 68.2V11.8L61.6001 18.4V61.6L68.2001 68.2Z" fill="url(#paint3_linear)"/>
<path d="M18.4 18.4H61.6L74 6H6L18.4 18.4Z" fill="url(#paint4_linear)"/>
<path d="M61.6 61.6H18.4L6 74H74L61.6 61.6Z" fill="url(#paint5_linear)"/>
<path d="M11.8 68.2H68.2001L61.6 61.6H18.4L11.8 68.2Z" fill="url(#paint6_linear)"/>
<path d="M68.2001 68.2V11.8L61.6001 18.4V61.6L68.2001 68.2Z" fill="url(#paint7_linear)"/>
<path d="M11.8 68.2H68.2001L61.6 61.6H18.4L11.8 68.2Z" fill="url(#paint8_linear)"/>
<path d="M18.4 61.6V18.4L6 6V74L18.4 61.6Z" fill="url(#paint9_linear)"/>
<path d="M11.8 11.8H68.2L74 6H6L11.8 11.8Z" fill="url(#paint10_linear)"/>
<path d="M68.2001 11.8H11.8L18.4 18.4H61.6L68.2001 11.8Z" fill="url(#paint11_linear)"/>
<path d="M68.2001 11.8H11.8L18.4 18.4H61.6L68.2001 11.8Z" fill="url(#paint12_linear)"/>
<path d="M68.2 68.2H11.8L6 74H74L68.2 68.2Z" fill="url(#paint13_linear)"/>
<path d="M68.2002 68.2L74.0002 74V6L68.2002 11.8V68.2Z" fill="url(#paint14_linear)"/>
<path d="M68.2 68.2H11.8L6 74H74L68.2 68.2Z" fill="url(#paint15_linear)"/>
<path d="M68.2 68.2H11.8L6 74H74L68.2 68.2Z" fill="url(#paint16_linear)"/>
<path d="M68.2 68.2H11.8L6 74H74L68.2 68.2Z" fill="url(#paint17_linear)"/>
<path d="M68.2 68.2H11.8L6 74H74L68.2 68.2Z" fill="url(#paint18_linear)"/>
<path d="M68.2002 68.2L74.0002 74V6L68.2002 11.8V68.2Z" fill="url(#paint19_linear)"/>
<path d="M68.2002 68.2L74.0002 74V6L68.2002 11.8V68.2Z" fill="url(#paint20_linear)"/>
<path d="M68.2002 68.2L74.0002 74V6L68.2002 11.8V68.2Z" fill="url(#paint21_linear)"/>
<path d="M68.2002 68.2L74.0002 74V6L68.2002 11.8V68.2Z" fill="url(#paint22_linear)"/>
<path d="M11.8 68.2V11.8L6 6V74L11.8 68.2Z" fill="url(#paint23_linear)"/>
<path d="M11.8 68.2V11.8L6 6V74L11.8 68.2Z" fill="url(#paint24_linear)"/>
<path d="M11.8 11.8V68.2L18.4 61.6V18.4L11.8 11.8Z" fill="url(#paint25_linear)"/>
<path d="M65 15H15V65H65V15Z" fill="url(#paint26_linear)"/>
<path d="M39.9002 55.6H21.2002V58.7H39.9002V55.6Z" fill="white"/>
<path d="M21.3003 21.2H29.0003C33.5003 21.2 36.2003 23.8 36.2003 27.7V27.8C36.2003 32.1 32.8003 34.4 28.6003 34.4H25.5003V39.9H21.3003V21.2ZM28.7003 30.6C30.8003 30.6 32.0003 29.4 32.0003 27.8V27.7C32.0003 25.9 30.7003 24.9 28.7003 24.9H25.5003V30.6H28.7003Z" fill="white"/>
<path d="M38.3003 30.6C38.3003 25.2 42.3003 20.9 48.1003 20.9C51.6003 20.9 53.7003 22.1 55.5003 23.8L52.9003 26.8C51.5003 25.5 50.0003 24.7 48.1003 24.7C44.9003 24.7 42.7003 27.3 42.7003 30.5V30.6C42.7003 33.8 44.9003 36.5 48.1003 36.5C50.2003 36.5 51.6003 35.6 53.0003 34.3L55.6003 36.9C53.7003 39 51.5003 40.2 47.9003 40.2C42.4003 40.2 38.3003 36 38.3003 30.6Z" fill="white"/>
<defs>
<linearGradient id="paint0_linear" x1="81.6017" y1="81.6016" x2="-14.4523" y2="-14.4517" gradientUnits="userSpaceOnUse">
<stop offset="0.3475" stop-color="#C8EA23"/>
<stop offset="0.8562" stop-color="#10E899"/>
</linearGradient>
<linearGradient id="paint1_linear" x1="66.4737" y1="66.4736" x2="5.3484" y2="5.34862" gradientUnits="userSpaceOnUse">
<stop offset="0.3475" stop-color="#087CFA"/>
<stop offset="0.8562" stop-color="#FE2857"/>
<stop offset="1" stop-color="#FE2857"/>
</linearGradient>
<linearGradient id="paint2_linear" x1="74.4615" y1="74.4614" x2="-5.10645" y2="-5.10601" gradientUnits="userSpaceOnUse">
<stop stop-color="#FCF84A"/>
<stop offset="0.2816" stop-color="#C1F834"/>
<stop offset="0.7846" stop-color="#10E899"/>
</linearGradient>
<linearGradient id="paint3_linear" x1="62.9383" y1="39.9998" x2="70.7249" y2="39.9998" gradientUnits="userSpaceOnUse">
<stop offset="0.27" stop-color="#FFC320"/>
<stop offset="1" stop-color="#FDB60D" stop-opacity="0"/>
</linearGradient>
<linearGradient id="paint4_linear" x1="89.6524" y1="12.1818" x2="-4.9048" y2="12.1818" gradientUnits="userSpaceOnUse">
<stop offset="0.2576" stop-color="#EFE50C"/>
<stop offset="0.5774" stop-color="#BEFF26"/>
<stop offset="0.8746" stop-color="#00C66E"/>
</linearGradient>
<linearGradient id="paint5_linear" x1="2.5478" y1="67.8178" x2="80.9524" y2="67.8178" gradientUnits="userSpaceOnUse">
<stop offset="0.0242344" stop-color="#F3DF00"/>
<stop offset="0.496" stop-color="#DDFF18"/>
<stop offset="1" stop-color="#97E578"/>
</linearGradient>
<linearGradient id="paint6_linear" x1="39.9641" y1="62.9367" x2="39.9639" y2="70.7233" gradientUnits="userSpaceOnUse">
<stop offset="0.27" stop-color="#FFC320"/>
<stop offset="1" stop-color="#FDB60D" stop-opacity="0"/>
</linearGradient>
<linearGradient id="paint7_linear" x1="62.9383" y1="39.9998" x2="70.7249" y2="39.9998" gradientUnits="userSpaceOnUse">
<stop offset="0.27" stop-color="#A8C320"/>
<stop offset="1" stop-color="#FDB60D" stop-opacity="0"/>
</linearGradient>
<linearGradient id="paint8_linear" x1="39.9641" y1="62.9367" x2="39.9639" y2="70.7233" gradientUnits="userSpaceOnUse">
<stop offset="0.27" stop-color="#A8C320"/>
<stop offset="1" stop-color="#FDB60D" stop-opacity="0"/>
</linearGradient>
<linearGradient id="paint9_linear" x1="12.1821" y1="72.8706" x2="12.1821" y2="4.8708" gradientUnits="userSpaceOnUse">
<stop offset="0.2576" stop-color="#EFE50C"/>
<stop offset="0.5774" stop-color="#BEFF26"/>
<stop offset="0.8746" stop-color="#00C66E"/>
</linearGradient>
<linearGradient id="paint10_linear" x1="38.2633" y1="8.4655" x2="13.6492" y2="17.8881" gradientUnits="userSpaceOnUse">
<stop offset="0.1018" stop-color="#A5FF21" stop-opacity="0"/>
<stop offset="0.8222" stop-color="#14EB1F"/>
<stop offset="1" stop-color="white" stop-opacity="0.9"/>
</linearGradient>
<linearGradient id="paint11_linear" x1="60.5588" y1="6.52329" x2="24.7928" y2="19.399" gradientUnits="userSpaceOnUse">
<stop offset="0.018393" stop-color="#99C81D"/>
<stop offset="0.723" stop-color="#10C299" stop-opacity="0"/>
</linearGradient>
<linearGradient id="paint12_linear" x1="60.5588" y1="6.52329" x2="24.7928" y2="19.399" gradientUnits="userSpaceOnUse">
<stop offset="0.0192715" stop-color="#8CC81D"/>
<stop offset="0.723" stop-color="#10C23B" stop-opacity="0.4"/>
</linearGradient>
<linearGradient id="paint13_linear" x1="81.2655" y1="78.5103" x2="17.92" y2="67.86" gradientUnits="userSpaceOnUse">
<stop stop-color="#FCF84A" stop-opacity="0"/>
<stop offset="1" stop-color="#FDD200"/>
</linearGradient>
<linearGradient id="paint14_linear" x1="71.0823" y1="73.0939" x2="71.0823" y2="5.882" gradientUnits="userSpaceOnUse">
<stop stop-color="#FCF84A" stop-opacity="0"/>
<stop offset="1" stop-color="#FDD200"/>
</linearGradient>
<linearGradient id="paint15_linear" x1="39.9998" y1="66.8747" x2="39.9998" y2="75.8028" gradientUnits="userSpaceOnUse">
<stop stop-color="#FCF84A" stop-opacity="0"/>
<stop offset="1" stop-color="#FDD200"/>
</linearGradient>
<linearGradient id="paint16_linear" x1="39.9998" y1="66.8747" x2="39.9998" y2="75.8028" gradientUnits="userSpaceOnUse">
<stop offset="0.0714497" stop-color="#FFFFA3" stop-opacity="0.5"/>
<stop offset="0.5642" stop-color="#FCF84A" stop-opacity="0"/>
</linearGradient>
<linearGradient id="paint17_linear" x1="39.9998" y1="74.0219" x2="39.9998" y2="67.1506" gradientUnits="userSpaceOnUse">
<stop offset="0.0714497" stop-color="#97DF1E" stop-opacity="0.5"/>
<stop offset="0.5642" stop-color="#FCF84A" stop-opacity="0"/>
</linearGradient>
<linearGradient id="paint18_linear" x1="64.2945" y1="75.4357" x2="-2.5011" y2="64.7484" gradientUnits="userSpaceOnUse">
<stop offset="0.5632" stop-color="#A5FF21" stop-opacity="0"/>
<stop offset="1" stop-color="#D7BE00" stop-opacity="0.9"/>
</linearGradient>
<linearGradient id="paint19_linear" x1="67.2597" y1="39.9998" x2="75.507" y2="39.9998" gradientUnits="userSpaceOnUse">
<stop stop-color="#FCF84A" stop-opacity="0"/>
<stop offset="1" stop-color="#FDD200"/>
</linearGradient>
<linearGradient id="paint20_linear" x1="67.2597" y1="39.9998" x2="75.507" y2="39.9998" gradientUnits="userSpaceOnUse">
<stop offset="0.0714497" stop-color="#FFFFA3" stop-opacity="0.5"/>
<stop offset="0.5642" stop-color="#FCF84A" stop-opacity="0"/>
</linearGradient>
<linearGradient id="paint21_linear" x1="73.2962" y1="39.9998" x2="69.3059" y2="39.9998" gradientUnits="userSpaceOnUse">
<stop offset="0.0714497" stop-color="#97DF1E" stop-opacity="0.5"/>
<stop offset="0.5642" stop-color="#FCF84A" stop-opacity="0"/>
</linearGradient>
<linearGradient id="paint22_linear" x1="71.6819" y1="41.2218" x2="66.7624" y2="7.2674" gradientUnits="userSpaceOnUse">
<stop offset="0.5632" stop-color="#A5FF21" stop-opacity="0"/>
<stop offset="1" stop-color="#D7BE00" stop-opacity="0.9"/>
</linearGradient>
<linearGradient id="paint23_linear" x1="4.625" y1="54.445" x2="15.4343" y2="10.7311" gradientUnits="userSpaceOnUse">
<stop offset="0.1018" stop-color="#A5FF21" stop-opacity="0"/>
<stop offset="0.8222" stop-color="#14EB1F"/>
<stop offset="1" stop-color="white" stop-opacity="0.9"/>
</linearGradient>
<linearGradient id="paint24_linear" x1="8.4479" y1="39.8702" x2="2.3918" y2="75.7617" gradientUnits="userSpaceOnUse">
<stop offset="0.5632" stop-color="#A5FF21" stop-opacity="0"/>
<stop offset="1" stop-color="#D7BE00" stop-opacity="0.9"/>
</linearGradient>
<linearGradient id="paint25_linear" x1="5.86645" y1="43.3317" x2="19.5369" y2="35.7016" gradientUnits="userSpaceOnUse">
<stop offset="0.0192715" stop-color="#8CC81D"/>
<stop offset="0.723" stop-color="#10C23B" stop-opacity="0.4"/>
</linearGradient>
<linearGradient id="paint26_linear" x1="14.2285" y1="18.9895" x2="65.4121" y2="60.7175" gradientUnits="userSpaceOnUse">
<stop stop-color="#2C4915"/>
<stop offset="0.479167"/>
</linearGradient>
</defs>
</svg>
