<svg width="16" height="16" viewBox="0 0 16 16" fill="none" xmlns="http://www.w3.org/2000/svg">
<path d="M16 0H0V16H16V0Z" fill="#07C3F2"/>
<path d="M15 1H1V15H15V1Z" fill="black"/>
<path d="M9 12H3V13H9V12Z" fill="white"/>
<path d="M9.19995 8.0999L9.99995 7.1999C10.5 7.5999 11.1 7.8999 11.8 7.8999C12.3 7.8999 12.7 7.6999 12.7 7.2999C12.7 6.9999 12.5 6.7999 11.5 6.4999C10.3 6.1999 9.49995 5.8999 9.49995 4.6999C9.49995 3.5999 10.4 2.8999 11.6 2.8999C12.5 2.8999 13.2 3.1999 13.8 3.6999L13.1 4.6999C12.6 4.2999 12 4.0999 11.5 4.0999C11 4.0999 10.7 4.2999 10.7 4.5999C10.7 4.9999 11 5.0999 12 5.3999C13.3 5.6999 14 6.1999 14 7.1999C14 8.3999 13.1 9.0999 11.8 9.0999C10.9 9.0999 9.99995 8.7999 9.19995 8.0999Z" fill="white"/>
<path d="M4.8001 9L5.8001 5.5L6.7001 9H7.8001L9.5001 3H8.1001L7.3001 6.5L6.3001 3H5.3001L4.3001 6.5L3.4001 3H2.1001L3.7001 9H4.8001Z" fill="white"/>
<path d="M16 16H5.95284C5.43491 16 4.9382 15.7942 4.57198 15.428C4.20575 15.0618 4 14.565 4 14.0471V11.9529C4 11.435 4.20575 10.9382 4.57198 10.572C4.9382 10.2058 5.43491 10 5.95284 10H14.0471C14.5651 10 15.0618 10.2058 15.428 10.572C15.7942 10.9382 16 11.435 16 11.9529L16 16Z" fill="#FDB60D"/>
<path d="M5.87097 11.5658H8.11797V12.1489H6.52211V12.7533H7.92653V13.3362H6.52211V13.9618H8.13931V14.5447H5.87102L5.87097 11.5658Z" fill="black"/>
<path d="M9.74345 11.5447H10.3477L11.6244 14.5447H10.9393L10.6669 13.8767H9.40739L9.13504 14.5447H8.46704L9.74345 11.5447ZM10.4331 13.298L10.0372 12.3318L9.64149 13.298H10.4331Z" fill="black"/>
<path d="M12.084 11.5658H13.3011C13.4456 11.5487 13.5921 11.5626 13.7308 11.6067C13.8695 11.6509 13.9971 11.7243 14.1051 11.8218C14.2132 11.9194 14.2991 12.0388 14.3571 12.1723C14.4151 12.3058 14.4439 12.4501 14.4415 12.5956V12.6043C14.4403 12.7552 14.407 12.904 14.3439 13.0411C14.2808 13.1781 14.1892 13.3001 14.0754 13.3991C13.9615 13.4981 13.828 13.5718 13.6835 13.6153C13.539 13.6587 13.387 13.671 13.2374 13.6513H12.7395V14.5447H12.084L12.084 11.5658ZM13.2585 13.068C13.3229 13.0762 13.3883 13.0708 13.4504 13.0519C13.5125 13.0331 13.57 13.0012 13.619 12.9587C13.668 12.9161 13.7075 12.8636 13.7348 12.8047C13.7622 12.7458 13.7768 12.6819 13.7777 12.617V12.6084C13.7777 12.315 13.5735 12.1574 13.2457 12.1574H12.7395V13.068H13.2585Z" fill="black"/>
</svg>