<svg width="32" height="32" viewBox="0 0 32 32" fill="none" xmlns="http://www.w3.org/2000/svg" data-scaled="true">
<path d="M4.3 28.9L0 3.4L8 0L13.1 3.1L17.7 0.6L27.5 4.3L22 32L4.3 28.9Z" fill="url(#paint0_linear)"/>
<path d="M17.7001 0.600098L13.1001 3.1001L14.4001 13.5001L17.3001 15.5001L18.2001 21.5001L21.4001 21.9001L19.0001 10.6001L17.7001 0.600098Z" fill="url(#paint1_linear)"/>
<path d="M14.4 14.6L13.1 3.1L8 0L10.1 12.4L10.9 20.2L15.3 20L14.9 18.1L14.4 14.6Z" fill="url(#paint2_linear)"/>
<path d="M4.3 28.9L0 3.4L8 0L10.2 12.9L4.3 28.9Z" fill="url(#paint3_linear)"/>
<path d="M10.2 12.8L8 0L0 3.4L8.9 11.1L10.2 12.8Z" fill="url(#paint4_linear)"/>
<path d="M4.3 28.8999L0 3.3999L8.9 11.0999L17.7 22.8999L4.3 28.8999Z" fill="url(#paint5_linear)"/>
<path d="M4.30005 28.8999L11.9 23.3999L22 31.9999L4.30005 28.8999Z" fill="url(#paint6_linear)"/>
<path d="M15.3999 22.2L11.8999 25.4L21.9999 32L23.7999 23.1L15.3999 22.2Z" fill="url(#paint7_linear)"/>
<path d="M4.30005 28.8999L11.9 25.3999L22 31.9999L4.30005 28.8999Z" fill="url(#paint8_linear)"/>
<path d="M32 10.8L27.9 0.6L20.4 0L8.80005 11.1L11.8 25.4L18 29.4L32 21L28.5 14.5L32 10.8Z" fill="url(#paint9_linear)"/>
<path d="M21.2 10.3L20.4 0L8.80005 11.1L17.4 13.8L21.2 10.3Z" fill="url(#paint10_linear)"/>
<path d="M19.2 1.1001L8.80005 11.1001L17.4 13.8001L22 18.7001L20.5 1.6001L19.2 1.1001Z" fill="url(#paint11_linear)"/>
<path d="M17.4 13.8L19.3 12L19 10.6L18 2.30005L13.5 6.60005L14.3 12.8L17.4 13.8Z" fill="url(#paint12_linear)"/>
<path d="M14.3 12.8001L13.5 6.6001L9.69995 10.2001L9.89995 11.5001L14.3 12.8001Z" fill="url(#paint13_linear)"/>
<path d="M19.2 1.1001L8.80005 11.1001L20.5 1.6001L19.2 1.1001Z" fill="url(#paint14_linear)"/>
<path d="M18.1 3.50005L18 2.30005L13.5 6.60005L13.6 7.20005L18.1 3.50005Z" fill="url(#paint15_linear)"/>
<path d="M13.6 7.2001L13.5 6.6001L9.69995 10.2001V10.3001L13.6 7.2001Z" fill="url(#paint16_linear)"/>
<path d="M24.4999 7.30005L17.3999 13.8L17.9999 29.4L31.9999 21L28.4999 14.5L24.4999 7.30005Z" fill="url(#paint17_linear)"/>
<path d="M21.3 11.1L21.9 19.3L32 21L28.5 14.5L26.4 10.8L21.3 11.1Z" fill="url(#paint18_linear)"/>
<path d="M21.3 11.1L21.9 19.3L23.5 19.6L28.5 14.5L26.4 10.8L21.3 11.1Z" fill="url(#paint19_linear)"/>
<path d="M17.4 13.8001L8.80005 11.1001L11.8 25.4001L18 29.4001L17.4 13.8001Z" fill="url(#paint20_linear)"/>
<path d="M14.4999 14.6L14.2999 12.8L9.8999 11.5L10.0999 12.4L11.4999 23.5L11.7999 24.6L16.2999 28.1L14.4999 14.6Z" fill="url(#paint21_linear)"/>
<path d="M11.8 25.4001L18 29.4001L17.7 21.6001L11.8 25.4001Z" fill="url(#paint22_linear)"/>
<path d="M24.5 7.3001L28.5 14.5001L32 10.8001L27.9 0.600098L22.7 7.1001L24.5 7.3001Z" fill="url(#paint23_linear)"/>
<path d="M26.5 10.8L28.5 14.5L32 10.8H26.5Z" fill="url(#paint24_linear)"/>
<path d="M8.80005 11.1001L9.50005 14.5001L8.80005 11.1001Z" fill="url(#paint25_linear)"/>
<path d="M26 6H6V26H26V6Z" fill="url(#paint26_linear)"/>
<path d="M15 22H8V23.6H15V22Z" fill="white"/>
<path d="M15.9001 8.00635L14.7296 12.6884L13.3463 8.00635H11.9629L10.686 12.6884L9.40907 8.00635H7.6001L9.83471 15.9871H11.3245L12.7078 11.4115L13.9847 15.9871H15.4745L17.7091 8.00635H15.9001Z" fill="white"/>
<path d="M18.1345 14.8166L19.1986 13.5396C19.9435 14.1781 20.6884 14.4973 21.5396 14.4973C22.2845 14.6037 22.7102 14.2845 22.7102 13.8589C22.7102 13.4332 22.3909 13.2204 21.114 12.7948C19.4114 12.3691 18.4538 11.9435 18.4538 10.3473C18.4538 8.85759 19.6243 7.8999 21.2204 7.8999C22.3909 7.8999 23.3486 8.21913 24.1999 8.964L23.2422 10.2409C22.4973 9.70888 21.8589 9.49606 21.114 9.49606C20.4755 9.49606 20.0499 9.81529 20.0499 10.2409C20.0499 10.773 20.3691 10.9858 21.7525 11.305C23.3486 11.7307 24.3063 12.2627 24.3063 13.7525C24.3063 15.3486 23.1358 16.1999 21.3268 16.1999C20.2627 16.0935 19.0922 15.6679 18.1345 14.8166Z" fill="white"/>
<defs>
<linearGradient id="paint0_linear" x1="11.4595" y1="0.6674" x2="19.7407" y2="30.48" gradientUnits="userSpaceOnUse">
<stop offset="0.2849" stop-color="#07C3F2"/>
<stop offset="0.9409" stop-color="#087CFA"/>
</linearGradient>
<linearGradient id="paint1_linear" x1="14.2111" y1="-1.0287" x2="18.5247" y2="17.5425" gradientUnits="userSpaceOnUse">
<stop offset="0.0669317" stop-color="#42FFFA"/>
<stop offset="0.3409" stop-color="#07C3F2"/>
<stop offset="0.9409" stop-color="#087CFA"/>
</linearGradient>
<linearGradient id="paint2_linear" x1="6.9556" y1="-0.9843" x2="13.7234" y2="16.0033" gradientUnits="userSpaceOnUse">
<stop offset="0.2849" stop-color="#07C3F2"/>
<stop offset="0.9409" stop-color="#087CFA"/>
</linearGradient>
<linearGradient id="paint3_linear" x1="1.8406" y1="-3.004" x2="9.1511" y2="26.6917" gradientUnits="userSpaceOnUse">
<stop offset="0.0669317" stop-color="#42FFFA"/>
<stop offset="0.3409" stop-color="#07C3F2"/>
<stop offset="0.9409" stop-color="#087CFA"/>
</linearGradient>
<linearGradient id="paint4_linear" x1="4.5278" y1="8.6749" x2="6.7254" y2="6.4015" gradientUnits="userSpaceOnUse">
<stop offset="0.00971316" stop-color="#42FFFA"/>
<stop offset="0.9216" stop-color="#07C3F2" stop-opacity="0"/>
</linearGradient>
<linearGradient id="paint5_linear" x1="-7.9941" y1="9.6118" x2="13.6193" y2="23.5062" gradientUnits="userSpaceOnUse">
<stop offset="0.1985" stop-color="#07C3F2"/>
<stop offset="0.9403" stop-color="#087CFA"/>
</linearGradient>
<linearGradient id="paint6_linear" x1="0.105349" y1="27.2301" x2="12.5467" y2="27.5934" gradientUnits="userSpaceOnUse">
<stop offset="0.1291" stop-color="#1D53B8"/>
<stop offset="0.8696" stop-color="#087CFA"/>
</linearGradient>
<linearGradient id="paint7_linear" x1="17.2574" y1="22.1632" x2="19.9537" y2="31.8701" gradientUnits="userSpaceOnUse">
<stop offset="0.2771" stop-color="#087BFA"/>
<stop offset="0.6826" stop-color="#085DFA"/>
</linearGradient>
<linearGradient id="paint8_linear" x1="11.3914" y1="16.1531" x2="13.2984" y2="31.5913" gradientUnits="userSpaceOnUse">
<stop offset="0.5232" stop-color="#087BFA"/>
<stop offset="0.9771" stop-color="#086DFA"/>
</linearGradient>
<linearGradient id="paint9_linear" x1="13.9911" y1="4.4856" x2="28.0003" y2="25.0282" gradientUnits="userSpaceOnUse">
<stop offset="0.1286" stop-color="#FCF84A"/>
<stop offset="0.4986" stop-color="#07C3F2"/>
</linearGradient>
<linearGradient id="paint10_linear" x1="20.1485" y1="-0.1331" x2="18.7806" y2="2.7636" gradientUnits="userSpaceOnUse">
<stop  offset="0" stop-color="#73A4AA"/>
<stop offset="0.6751" stop-color="#FCF84A"/>
</linearGradient>
<linearGradient id="paint11_linear" x1="13.0315" y1="-4.7201" x2="17.9259" y2="28.5485" gradientUnits="userSpaceOnUse">
<stop offset="0.1786" stop-color="#FCF84A"/>
<stop offset="0.8591" stop-color="#07C3F2"/>
</linearGradient>
<linearGradient id="paint12_linear" x1="14.8122" y1="1.83465" x2="18.5474" y2="17.9154" gradientUnits="userSpaceOnUse">
<stop offset="0.1787" stop-color="#FCF84A"/>
<stop offset="0.9725" stop-color="#12C6EC"/>
</linearGradient>
<linearGradient id="paint13_linear" x1="10.8414" y1="7.2295" x2="13.8897" y2="13.5743" gradientUnits="userSpaceOnUse">
<stop offset="0.1286" stop-color="#FCF84A"/>
<stop offset="0.9414" stop-color="#07C3F2"/>
</linearGradient>
<linearGradient id="paint14_linear" x1="13.5512" y1="-1.2156" x2="15.8483" y2="14.3987" gradientUnits="userSpaceOnUse">
<stop offset="0.1786" stop-color="#FCF84A"/>
<stop offset="0.8591" stop-color="#07C3F2"/>
</linearGradient>
<linearGradient id="paint15_linear" x1="15.2658" y1="2.53975" x2="16.5275" y2="7.97155" gradientUnits="userSpaceOnUse">
<stop offset="0.1787" stop-color="#D3FF8C"/>
<stop offset="0.8762" stop-color="#12C6EC"/>
</linearGradient>
<linearGradient id="paint16_linear" x1="11.1653" y1="7.5434" x2="12.0509" y2="9.3868" gradientUnits="userSpaceOnUse">
<stop offset="0.1286" stop-color="#FCF84A"/>
<stop offset="0.9414" stop-color="#07C3F2"/>
</linearGradient>
<linearGradient id="paint17_linear" x1="17.18" y1="12.3843" x2="26.2967" y2="25.7527" gradientUnits="userSpaceOnUse">
<stop  offset="0" stop-color="#07C3F2"/>
<stop offset="0.906" stop-color="#00A0FF"/>
</linearGradient>
<linearGradient id="paint18_linear" x1="30.4014" y1="15.6163" x2="18.959" y2="17.0693" gradientUnits="userSpaceOnUse">
<stop  offset="0" stop-color="#07C3F2"/>
<stop offset="1" stop-color="#0895F7"/>
</linearGradient>
<linearGradient id="paint19_linear" x1="27.8613" y1="14.6693" x2="19.5123" y2="15.7295" gradientUnits="userSpaceOnUse">
<stop  offset="0" stop-color="#07C3F2"/>
<stop offset="1" stop-color="#0895F7"/>
</linearGradient>
<linearGradient id="paint20_linear" x1="7.50965" y1="9.2598" x2="19.3601" y2="26.637" gradientUnits="userSpaceOnUse">
<stop offset="0.080633" stop-color="#FCF84A"/>
<stop offset="0.5708" stop-color="#07C3F2"/>
</linearGradient>
<linearGradient id="paint21_linear" x1="8.8577" y1="10.0136" x2="17.9222" y2="28.8803" gradientUnits="userSpaceOnUse">
<stop offset="0.1286" stop-color="#FCF84A"/>
<stop offset="0.4216" stop-color="#07C3F2"/>
</linearGradient>
<linearGradient id="paint22_linear" x1="11.4754" y1="21.3362" x2="19.1828" y2="26.5542" gradientUnits="userSpaceOnUse">
<stop offset="0.09347" stop-color="#087CFA"/>
<stop offset="0.6584" stop-color="#07C3F2"/>
</linearGradient>
<linearGradient id="paint23_linear" x1="25.0008" y1="0.661498" x2="28.9552" y2="14.6667" gradientUnits="userSpaceOnUse">
<stop  offset="0" stop-color="#FCF84A"/>
<stop offset="0.4651" stop-color="#07C3F2"/>
<stop offset="0.9409" stop-color="#087CFA"/>
</linearGradient>
<linearGradient id="paint24_linear" x1="33.5459" y1="11.7595" x2="21.831" y2="13.485" gradientUnits="userSpaceOnUse">
<stop  offset="0" stop-color="#0863FA"/>
<stop offset="0.9409" stop-color="#1AC8FB"/>
</linearGradient>
<linearGradient id="paint25_linear" x1="8.27745" y1="11.4945" x2="10.1213" y2="14.1984" gradientUnits="userSpaceOnUse">
<stop offset="0.1286" stop-color="#FCF84A"/>
<stop offset="0.4216" stop-color="#07C3F2"/>
</linearGradient>
<linearGradient id="paint26_linear" x1="5.4977" y1="5.0918" x2="23.0024" y2="23.273" gradientUnits="userSpaceOnUse">
<stop  offset="0" stop-color="#006396"/>
<stop offset="0.0470796" stop-color="#005682"/>
<stop offset="0.1677" stop-color="#003754"/>
<stop offset="0.2832" stop-color="#001F2F"/>
<stop offset="0.3905" stop-color="#000E15"/>
<stop offset="0.4867" stop-color="#000406"/>
<stop offset="0.5623"/>
<stop offset="0.9138"/>
</linearGradient>
</defs>
<path d="M28.0943 32H11.9057C11.3928 32 10.8849 31.8989 10.411 31.7026C9.93718 31.5064 9.50663 31.2188 9.14395 30.8561C8.78128 30.4934 8.49358 30.0628 8.2973 29.589C8.10102 29.1151 8 28.6073 8 28.0944V23.9056C8 23.3927 8.10102 22.8849 8.2973 22.411C8.49358 21.9372 8.78128 21.5066 9.14395 21.1439C9.50663 20.7812 9.93718 20.4935 10.411 20.2972C10.8849 20.101 11.3928 20 11.9057 20H28.0943C28.6072 20 29.1151 20.101 29.589 20.2972C30.0628 20.4935 30.4934 20.7812 30.856 21.1439C31.2187 21.5066 31.5064 21.9372 31.7027 22.411C31.899 22.8849 32 23.3927 32 23.9056V28.0944C32 29.1302 31.5885 30.1236 30.856 30.8561C30.1236 31.5885 29.1302 32 28.0943 32V32Z" fill="#FDB60D"/>
<path d="M12.4562 23.3781H16.5756V24.4473H13.6498V25.5551H16.2246V26.6238H13.6498V27.7708H16.6147V28.8395H12.4562V23.3781Z" fill="black"/>
<path d="M19.5557 23.3395H20.6635L23.0041 28.8395H21.748L21.2487 27.6147H18.9395L18.4402 28.8395H17.2156L19.5557 23.3395ZM20.8199 26.5537L20.0941 24.7825L19.3687 26.5537H20.8199Z" fill="black"/>
<path d="M23.8468 23.378H26.0782C26.3431 23.3466 26.6118 23.3722 26.866 23.4531C27.1203 23.534 27.3543 23.6684 27.5523 23.8473C27.7503 24.0261 27.9078 24.2453 28.0141 24.49C28.1205 24.7347 28.1732 24.9992 28.1689 25.266V25.2817C28.1666 25.5583 28.1056 25.8313 27.9899 26.0825C27.8742 26.3337 27.7064 26.5575 27.4977 26.739C27.289 26.9205 27.0441 27.0555 26.7792 27.1352C26.5144 27.2149 26.2356 27.2375 25.9614 27.2013H25.0486V28.8395H23.8468V23.378ZM26 26.1321C26.118 26.1471 26.238 26.1369 26.3519 26.1024C26.4658 26.0678 26.5711 26.0097 26.6609 25.9316C26.7508 25.8536 26.8232 25.7573 26.8733 25.6494C26.9234 25.5414 26.9502 25.4242 26.9518 25.3052V25.2894C26.9518 24.7515 26.5775 24.4625 25.9766 24.4625H25.0486V26.1321H26Z" fill="black"/>
</svg>