<svg width="16" height="16" viewBox="0 0 16 16" fill="none" xmlns="http://www.w3.org/2000/svg">
<path d="M11 2C11.5523 2 12 2.44772 12 3V9H4V6H6C7.10457 6 8 5.10457 8 4V2H11Z" fill="#25324D"/>
<path d="M7 4C7 4.06893 6.99277 4.13617 6.97949 4.20117C6.88625 4.65686 6.48325 5 6 5H4.41406L7 2.41406V4Z" fill="#25324D"/>
<path fill-rule="evenodd" clip-rule="evenodd" d="M11 1C12.1046 1 13 1.89543 13 3V9H12V3C12 2.44772 11.5523 2 11 2H8V4C8 5.10457 7.10457 6 6 6H4V9H3V5.41406C3.00004 5.1489 3.10547 4.89453 3.29297 4.70703L6.70703 1.29297C6.89453 1.10547 7.1489 1.00004 7.41406 1H11ZM4.41406 5H6C6.55228 5 7 4.55228 7 4V2.41406L4.41406 5Z" fill="#548AF7"/>
<path fill-rule="evenodd" clip-rule="evenodd" d="M8.59277 10C8.74032 10.0365 8.87751 10.0869 9.00293 10.1533C9.28154 10.2954 9.49406 10.5008 9.6416 10.7686C9.79467 11.031 9.87207 11.34 9.87207 11.6953V14.3105C9.87207 14.6713 9.79467 14.986 9.6416 15.2539C9.49405 15.5161 9.28153 15.7216 9.00293 15.8691C8.8973 15.923 8.78344 15.9666 8.66211 16H7.3457C7.22408 15.9666 7.1095 15.9229 7.00195 15.8691C6.72315 15.7215 6.50658 15.5163 6.35352 15.2539C6.20594 14.9861 6.13281 14.6713 6.13281 14.3105V11.7031C6.13282 11.3425 6.20603 11.0309 6.35352 10.7686C6.50658 10.5007 6.72315 10.2955 7.00195 10.1533C7.12966 10.087 7.26748 10.0365 7.41504 10H8.59277ZM8.00195 10.834C7.72326 10.834 7.5132 10.9081 7.37109 11.0557C7.22897 11.2033 7.15724 11.4189 7.15723 11.7031V14.3105C7.15723 14.5893 7.22896 14.8059 7.37109 14.959C7.51865 15.1063 7.72893 15.1797 8.00195 15.1797C8.28073 15.1797 8.49166 15.1066 8.63379 14.959C8.77592 14.8059 8.84668 14.5893 8.84668 14.3105V11.7031C8.84667 11.4191 8.77572 11.2032 8.63379 11.0557C8.49166 10.9081 8.28075 10.834 8.00195 10.834Z" fill="#CED0D6"/>
<path d="M13.543 10C13.6903 10.0365 13.8269 10.087 13.9521 10.1533C14.2363 10.2954 14.4577 10.4975 14.6162 10.7598C14.7747 11.0221 14.8545 11.3369 14.8545 11.7031H13.8213C13.8213 11.4189 13.7439 11.2033 13.5908 11.0557C13.4433 10.9082 13.2307 10.8341 12.9521 10.834C12.6733 10.834 12.4568 10.9081 12.3037 11.0557C12.1508 11.2033 12.0742 11.4166 12.0742 11.6953V14.3105C12.0742 14.5893 12.1506 14.8059 12.3037 14.959C12.4568 15.1065 12.6734 15.1797 12.9521 15.1797C13.2305 15.1796 13.4433 15.1062 13.5908 14.959C13.7439 14.8059 13.8213 14.5893 13.8213 14.3105H14.8545C14.8545 14.6659 14.7747 14.9782 14.6162 15.2461C14.4577 15.5138 14.2363 15.7216 13.9521 15.8691C13.8464 15.923 13.7328 15.9665 13.6113 16H12.293C12.1698 15.9666 12.0532 15.923 11.9434 15.8691C11.6592 15.7216 11.4378 15.5162 11.2793 15.2539C11.1262 14.986 11.0488 14.6713 11.0488 14.3105V11.7031C11.0488 11.3369 11.1262 11.0221 11.2793 10.7598C11.4378 10.4976 11.6593 10.2954 11.9434 10.1533C12.0736 10.087 12.2133 10.0365 12.3623 10H13.543Z" fill="#CED0D6"/>
<path d="M4.80762 10.916H3.60156V15.0977H4.80762V16H1.36328V15.0977H2.56836V10.916H1.36328V10.0137H4.80762V10.916Z" fill="#CED0D6"/>
</svg>
