<svg width="16" height="16" viewBox="0 0 16 16" fill="none" xmlns="http://www.w3.org/2000/svg">
<path d="M2.88013 12.5V3.40002H3.96563V12.5H2.88013Z" fill="#3574F0"/>
<path d="M6.93704 11.6615C7.13204 11.6615 7.29021 11.5597 7.41154 11.356C7.53287 11.148 7.62171 10.8295 7.67804 10.4005C7.73871 9.96719 7.76904 9.40819 7.76904 8.72352V7.17652C7.76904 6.49185 7.73871 5.93502 7.67804 5.50602C7.62171 5.07269 7.53287 4.75419 7.41154 4.55052C7.29021 4.34252 7.13204 4.23852 6.93704 4.23852C6.74637 4.23852 6.58821 4.34252 6.46254 4.55052C6.33687 4.75419 6.24371 5.07269 6.18304 5.50602C6.12671 5.93502 6.09854 6.49185 6.09854 7.17652V8.72352C6.09854 9.40819 6.12671 9.96719 6.18304 10.4005C6.24371 10.8295 6.33687 11.148 6.46254 11.356C6.58821 11.5597 6.74637 11.6615 6.93704 11.6615ZM6.93704 12.656C6.47771 12.656 6.10287 12.5195 5.81254 12.2465C5.52654 11.9692 5.31421 11.5424 5.17554 10.966C5.03687 10.3897 4.96754 9.64219 4.96754 8.72352V7.17652C4.97621 6.25785 5.04987 5.51035 5.18854 4.93402C5.33154 4.35769 5.54604 3.93302 5.83204 3.66002C6.11804 3.38269 6.48637 3.24402 6.93704 3.24402C7.38771 3.24402 7.75387 3.38269 8.03554 3.66002C8.32154 3.93302 8.53387 4.35769 8.67254 4.93402C8.81554 5.51035 8.89137 6.25785 8.90004 7.17652V8.72352C8.90004 9.64219 8.83071 10.3897 8.69204 10.966C8.55337 11.5424 8.34104 11.9692 8.05504 12.2465C7.76904 12.5195 7.39637 12.656 6.93704 12.656Z" fill="#3574F0"/>
<path d="M11.5581 12.656C11.0988 12.656 10.724 12.5195 10.4336 12.2465C10.1476 11.9692 9.9353 11.5424 9.79663 10.966C9.65797 10.3897 9.58863 9.64219 9.58863 8.72352V7.17652C9.58863 6.25785 9.65797 5.51035 9.79663 4.93402C9.9353 4.35769 10.1476 3.93302 10.4336 3.66002C10.724 3.38269 11.0988 3.24402 11.5581 3.24402C11.9785 3.24402 12.3251 3.35018 12.5981 3.56252C12.8755 3.77052 13.0856 4.09552 13.2286 4.53752C13.3716 4.97952 13.4583 5.55152 13.4886 6.25352H12.3966C12.3793 5.78119 12.3381 5.39768 12.2731 5.10302C12.2081 4.80835 12.1171 4.59168 12.0001 4.45302C11.8831 4.31002 11.7358 4.23852 11.5581 4.23852C11.3675 4.23852 11.2093 4.34252 11.0836 4.55052C10.958 4.75419 10.8648 5.07269 10.8041 5.50602C10.7478 5.93502 10.7196 6.49185 10.7196 7.17652V8.72352C10.7196 9.40819 10.7478 9.96719 10.8041 10.4005C10.8648 10.8295 10.958 11.148 11.0836 11.356C11.2093 11.5597 11.3675 11.6615 11.5581 11.6615C11.7358 11.6615 11.8831 11.5922 12.0001 11.4535C12.1171 11.3105 12.2081 11.0917 12.2731 10.797C12.3381 10.5024 12.3793 10.1189 12.3966 9.64652H13.4886C13.4583 10.3485 13.3716 10.9205 13.2286 11.3625C13.0856 11.8045 12.8755 12.1317 12.5981 12.344C12.3251 12.552 11.9785 12.656 11.5581 12.656Z" fill="#3574F0"/>
</svg>
