<svg width="64" height="64" viewBox="0 0 64 64" fill="none" xmlns="http://www.w3.org/2000/svg">
<path d="M64 53.0002V25.9592C64 24.3301 63.0289 22.8575 61.5319 22.2157L24.0413 6.14767C23.5345 5.93065 22.9882 5.81836 22.4367 5.81836H4.07273C1.82342 5.81836 0 7.64178 0 9.89109V27.8571C0 28.6617 0.238545 29.4483 0.685382 30.118L22.0887 62.1866C22.8439 63.3189 24.1152 63.9984 25.4761 63.9984L55 64.0002C57.2493 64.0002 64 55.2496 64 53.0002Z" fill="url(#paint0_linear_4407_10075)"/>
<path d="M58.1818 14.5193V4.07273C58.1818 1.82342 56.3584 0 54.1091 0H41.0164C40.8239 0 40.6313 0.0139636 40.4404 0.0407273L3.49673 5.3184C1.49062 5.60465 0 7.32334 0 9.34982V25.0228C0 27.2727 1.824 29.0961 4.07389 29.0956L22.6124 29.0909C23.0499 29.0909 23.4845 29.0205 23.8993 28.882L55.3972 18.3825C57.0601 17.8281 58.1818 16.2717 58.1818 14.5187V14.5193Z" fill="url(#paint1_linear_4407_10075)"/>
<path d="M58.182 15.9476L58.1802 4.07215C58.1797 1.82342 56.3562 0 54.1075 0H42.6009C41.4123 0 40.2824 0.519564 39.5085 1.42196L6.79872 39.5834C6.16629 40.3217 5.81836 41.262 5.81836 42.2342V54.1097C5.81836 56.359 7.64178 58.1824 9.89109 58.1824H21.3994C22.5881 58.1824 23.718 57.6628 24.4918 56.7604L57.2016 18.599C57.8347 17.8607 58.182 16.9204 58.182 15.9476Z" fill="#F7F219"/>
<path d="M52 12H12V52H52V12Z" fill="black"/>
<path d="M17.0996 16.965H22.814C24.2361 16.965 25.5084 17.2866 26.6307 17.9299C27.7599 18.5732 28.6427 19.4709 29.2791 20.6105C29.9149 21.7495 30.2331 23.0361 30.2331 24.4702C30.2331 25.9044 29.9149 27.191 29.2791 28.3432C28.6427 29.4822 27.7599 30.3667 26.6307 31.01C25.5084 31.6533 24.2361 31.9749 22.814 31.9749H17.0996V16.965ZM22.7818 29.4426C23.6756 29.4426 24.4578 29.2415 25.1299 28.8395C25.8019 28.4506 26.3199 27.8745 26.6847 27.1238C27.0494 26.3731 27.2315 25.4886 27.2315 24.4702C27.2315 23.4519 27.0494 22.5674 26.6847 21.8167C26.3199 21.066 25.8019 20.4899 25.1299 20.101C24.4578 19.699 23.675 19.4979 22.7818 19.4979H20.0266V29.442H22.7818V29.4426ZM37.2599 32.23C36.1738 32.23 35.2089 32.0421 34.3651 31.6401C33.5288 31.2518 32.8712 30.7021 32.3922 29.9917C31.9206 29.2812 31.6776 28.4638 31.6633 27.5523H34.6012C34.6012 27.9814 34.7155 28.3696 34.9441 28.6913C35.1727 29.0261 35.4909 29.2812 35.8981 29.4684C36.3053 29.6562 36.774 29.7498 37.3024 29.7498C37.8309 29.7498 38.253 29.6562 38.6321 29.4954C39.0181 29.3214 39.315 29.0933 39.5218 28.7849C39.736 28.4903 39.8434 28.1416 39.8434 27.7665C39.8434 27.2841 39.697 26.882 39.4041 26.5736C39.118 26.2519 38.7217 26.0377 38.214 25.9171L35.5655 25.3272C34.851 25.1664 34.229 24.8982 33.7 24.5231C33.171 24.1342 32.7603 23.6656 32.4668 23.1027C32.1739 22.5266 32.0274 21.8965 32.0274 21.186C32.0274 20.3285 32.2491 19.564 32.692 18.8811C33.1354 18.1976 33.7534 17.6617 34.5466 17.2861C35.3398 16.8972 36.2404 16.71 37.2484 16.71C38.2565 16.71 39.1818 16.8972 39.9824 17.2591C40.7831 17.6341 41.4051 18.1568 41.848 18.8139C42.2983 19.4704 42.5269 20.2343 42.5344 21.0924H39.6074C39.6074 20.7305 39.5109 20.4089 39.3179 20.1142C39.1249 19.8196 38.8498 19.6048 38.4925 19.444C38.1422 19.2831 37.7384 19.1895 37.2812 19.1895C36.824 19.1895 36.4202 19.2699 36.0698 19.4307C35.7269 19.5784 35.4587 19.7926 35.2657 20.074C35.0727 20.3423 34.9762 20.6639 34.9762 21.0258C34.9762 21.441 35.1084 21.7897 35.3731 22.0579C35.6448 22.3261 36.013 22.5272 36.4776 22.634L39.0296 23.1969C39.7659 23.3445 40.4201 23.6259 40.9916 24.0544C41.5706 24.4697 42.0209 24.9791 42.3425 25.5954C42.6642 26.1985 42.825 26.8688 42.825 27.5925C42.825 28.477 42.5889 29.2679 42.1174 29.9779C41.6527 30.6746 40.9991 31.2375 40.1553 31.6263C39.3122 32.0284 38.3472 32.2294 37.2605 32.2294L37.2599 32.23Z" fill="white"/>
<path d="M33 44H17V47H33V44Z" fill="white"/>
<path d="M56.1887 64H23.8113C21.7397 64 19.7528 63.1771 18.2879 61.7122C16.823 60.2473 16 58.2604 16 56.1887V47.8113C16 46.7855 16.202 45.7697 16.5946 44.822C16.9872 43.8743 17.5626 43.0132 18.2879 42.2878C19.0133 41.5625 19.8743 40.9872 20.8221 40.5946C21.7698 40.202 22.7855 40 23.8113 40H56.1887C58.2604 40 60.2472 40.8229 61.7121 42.2878C63.177 43.7527 64 45.7396 64 47.8113V56.1887C64 58.2604 63.177 60.2473 61.7121 61.7122C60.2472 63.1771 58.2604 64 56.1887 64Z" fill="#FDB60D"/>
<path d="M24.9121 46.7559H33.1509V48.8943H27.2994V51.11H32.4489V53.2473H27.2994V55.5413H33.2291V57.6787H24.9121V46.7559Z" fill="black"/>
<path d="M39.1118 46.6787H41.3275L46.0087 57.6787H43.4964L42.4978 55.2294H37.8796L36.881 57.6787H34.4316L39.1118 46.6787ZM41.6404 53.1072L40.1887 49.5648L38.738 53.1072H41.6404Z" fill="black"/>
<path d="M47.6934 46.7559H52.1561C54.7619 46.7559 56.3375 48.301 56.3375 50.5319V50.5634C56.3375 53.0909 54.3718 54.4023 51.9225 54.4023H50.097V57.6786H47.6934L47.6934 46.7559ZM51.9997 52.264C52.2359 52.294 52.4757 52.2738 52.7035 52.2047C52.9313 52.1356 53.1419 52.0192 53.3217 51.863C53.5014 51.7069 53.6461 51.5146 53.7463 51.2987C53.8466 51.0828 53.9001 50.8481 53.9034 50.6101V50.5786C53.9034 49.5028 53.1547 48.9248 51.9529 48.9248H50.097V52.264H51.9997Z" fill="black"/>
<defs>
<linearGradient id="paint0_linear_4407_10075" x1="3.98196" y1="4.22243" x2="62.6868" y2="62.9273" gradientUnits="userSpaceOnUse">
<stop offset="0.28" stop-color="#007DFE"/>
<stop offset="0.73" stop-color="#00D980"/>
</linearGradient>
<linearGradient id="paint1_linear_4407_10075" x1="56.3788" y1="-0.717381" x2="1.93862" y2="24.5231" gradientUnits="userSpaceOnUse">
<stop offset="0.32" stop-color="#F7F219"/>
<stop offset="0.55" stop-color="#007DFE"/>
</linearGradient>
</defs>
</svg>
