<svg width="70" height="70" viewBox="0 0 70 70" fill="none" xmlns="http://www.w3.org/2000/svg">
<path d="M34.5725 68L63.145 51.478V18.4604L34.5725 2L6.0011 18.4604H6L34.5725 34.9824V68Z" fill="url(#paint0_linear_1725:816)"/>
<path d="M63.145 18.4604L34.5725 2L6.0011 18.4604H6L34.5725 34.9824L63.145 18.4604Z" fill="url(#paint1_linear_1725:816)"/>
<path d="M63.145 18.4604L34.5725 2L6.0011 18.4604H6L34.5725 34.9824L63.145 18.4604Z" fill="url(#paint2_linear_1725:816)"/>
<path d="M63.145 18.4604L34.5725 2L6.0011 18.4604H6L34.5725 34.9824L63.145 18.4604Z" fill="url(#paint3_linear_1725:816)"/>
<path d="M6.0011 51.4776V18.46L34.5725 34.982L6.0011 51.4776Z" fill="url(#paint4_linear_1725:816)"/>
<path d="M34.5725 34.9824L6.0011 51.478L34.5725 68V34.9824Z" fill="url(#paint5_linear_1725:816)" style="mix-blend-mode:overlay"/>
<path d="M34.5725 67.9996L63.145 51.4776V18.46L34.5725 34.982V67.9996Z" fill="url(#paint6_linear_1725:816)"/>
<path d="M34.5725 67.9996L63.145 51.4776V18.46L34.5725 34.982V67.9996Z" fill="url(#paint7_linear_1725:816)"/>
<path d="M34.5725 67.9996L63.145 51.4776V18.46L34.5725 34.982V67.9996Z" fill="url(#paint8_linear_1725:816)"/>
<g opacity="0.8">
<path d="M26.9106 30.5398L34.5726 34.9687V2L5.99963 18.4536L26.9106 30.5398Z" fill="url(#paint9_linear_1725:816)" style="mix-blend-mode:overlay"/>
</g>
<defs>
<linearGradient id="paint0_linear_1725:816" x1="18.1476" y1="12.5192" x2="66.9083" y2="61.2799" gradientUnits="userSpaceOnUse">
<stop stop-color="#FDB60D"/>
<stop offset="0.54795" stop-color="#FF318C"/>
<stop offset="0.88765" stop-color="#6B57FF"/>
</linearGradient>
<linearGradient id="paint1_linear_1725:816" x1="27.5212" y1="30.6735" x2="30.668" y2="25.2232" gradientUnits="userSpaceOnUse">
<stop stop-color="white" stop-opacity="0.6"/>
<stop offset="0.08098" stop-color="#FFC524" stop-opacity="0.4"/>
<stop offset="0.70457" stop-color="#FFC524" stop-opacity="0"/>
</linearGradient>
<linearGradient id="paint2_linear_1725:816" x1="27.3492" y1="5.94926" x2="32.0384" y2="14.0711" gradientUnits="userSpaceOnUse">
<stop stop-color="#F9ED32" stop-opacity="0.6"/>
<stop offset="0.19796" stop-color="#FFC524" stop-opacity="0.4"/>
<stop offset="0.70457" stop-color="#FFC524" stop-opacity="0"/>
</linearGradient>
<linearGradient id="paint3_linear_1725:816" x1="42.1766" y1="5.28963" x2="40.0874" y2="8.90832" gradientUnits="userSpaceOnUse">
<stop stop-color="#FDB60D" stop-opacity="0.6"/>
<stop offset="0.23369" stop-color="#FDB60D" stop-opacity="0.4"/>
<stop offset="0.5185" stop-color="#FF318C" stop-opacity="0"/>
</linearGradient>
<linearGradient id="paint4_linear_1725:816" x1="6.00058" y1="34.9689" x2="52.4776" y2="34.9689" gradientUnits="userSpaceOnUse">
<stop offset="0.01477"/>
<stop offset="0.19258"/>
<stop offset="0.57156" stop-color="#6B57FF"/>
<stop offset="0.82576" stop-color="#FF318C"/>
</linearGradient>
<linearGradient id="paint5_linear_1725:816" x1="27.1331" y1="20.9109" x2="20.0237" y2="61.2305" gradientUnits="userSpaceOnUse">
<stop offset="0.046628" stop-color="white" stop-opacity="0.86"/>
<stop offset="0.766654" stop-color="#CBCAA4" stop-opacity="0"/>
</linearGradient>
<linearGradient id="paint6_linear_1725:816" x1="34.5726" y1="43.2298" x2="42.2692" y2="43.2298" gradientUnits="userSpaceOnUse">
<stop stop-color="#FFB2FF" stop-opacity="0.6"/>
<stop offset="0.08098" stop-color="#D828FF" stop-opacity="0.4"/>
<stop offset="0.70457" stop-color="#FF318C" stop-opacity="0"/>
</linearGradient>
<linearGradient id="paint7_linear_1725:816" x1="63.2621" y1="43.2298" x2="55.4012" y2="43.2298" gradientUnits="userSpaceOnUse">
<stop stop-color="#6644FF" stop-opacity="0.8"/>
<stop offset="0.09676" stop-color="#6B57FF" stop-opacity="0.4"/>
<stop offset="0.70457" stop-color="#FF318C" stop-opacity="0"/>
</linearGradient>
<linearGradient id="paint8_linear_1725:816" x1="56.4246" y1="56.3345" x2="54.1627" y2="52.4168" gradientUnits="userSpaceOnUse">
<stop offset="0.00572" stop-color="#FF318C"/>
<stop offset="0.46934" stop-color="#6B57FF" stop-opacity="0"/>
</linearGradient>
<linearGradient id="paint9_linear_1725:816" x1="20.286" y1="3.0301" x2="20.286" y2="22.3983" gradientUnits="userSpaceOnUse">
<stop offset="0.23873" stop-color="#FF5592" stop-opacity="0.65"/>
<stop offset="0.8289" stop-color="#FF57E4" stop-opacity="0"/>
</linearGradient>
</defs>
</svg>
