<svg xmlns="http://www.w3.org/2000/svg" width="16" height="16">
  <path fill="#f26522" fill-opacity=".7" d="M3 1L3 3 0 3 0 4 3 4 3 5 6 5 6 1 3 1z"/>
  <path fill="#9aa7b0" fill-opacity=".8" d="M12.5 7.879L13 7.379 13 7 11.621 7 12.5 7.879z"/>
  <path d="M16,10H14.489a2.491,2.491,0,0,0-.668-.614l1.033-1.032-.708-.708-1.38,1.381A2.326,2.326,0,0,0,12.5,9a2.326,2.326,0,0,0-.266.027l-1.38-1.381-.708.708,1.033,1.032a2.491,2.491,0,0,0-.668.614H9v1h1.05a2.577,2.577,0,0,0-.05.5V12H9v1h1v.5a2.577,2.577,0,0,0,.05.5H9v1h1.511a2.478,2.478,0,0,0,3.978,0H16V14H14.95a2.577,2.577,0,0,0,.05-.5V13h1V12H15v-.5a2.577,2.577,0,0,0-.05-.5H16Zm-2.5,4h-2V13h2Zm0-2h-2V11h2Z" fill="#62b543"/>
  <path fill="#9aa7b0" fill-opacity=".8" d="M13 4L13 3 10 3 10 1 6.8 1 6.8 5.8 3 5.8 3 5 0 5 0 6 3 6 3 7 0 7 0 8 3 8 3 10 8 10 8 9 9.379 9 8.732 8.354 10 7.086 10 6.387 10 6.387 10 6 13 6 13 5 10 5 10 4 13 4z"/>
</svg>
