<svg data-name="Layer 1" xmlns="http://www.w3.org/2000/svg" width="16" height="16"><path d="M10 3.091v2.302c.265.467.511 1.002.692 1.608H10v1h.916c.047.32.078.651.078 1s-.031.68-.078 1H3.09a6.001 6.001 0 0 0 5.91 5 6.003 6.003 0 0 0 6-6c0-2.969-2.162-5.43-5-5.909Zm.717 1.551A4.732 4.732 0 0 1 13.236 7h-1.503a8.553 8.553 0 0 0-1.016-2.358ZM4.764 11h1.503a8.524 8.524 0 0 0 1.016 2.358A4.732 4.732 0 0 1 4.764 11Zm4.513 2.68c-.093.005-.182.019-.277.02-.095 0-.184-.015-.277-.02A7.968 7.968 0 0 1 7.308 11h3.384a7.968 7.968 0 0 1-1.415 2.68Zm1.44-.322A8.524 8.524 0 0 0 11.733 11h1.503a4.732 4.732 0 0 1-2.519 2.358ZM11.929 10a7.863 7.863 0 0 0 0-2h1.659c.07.323.112.656.112 1s-.042.677-.112 1h-1.659Z" fill="#9aa7b0" fill-rule="evenodd"/><path d="M0 0v9h9V0H0Zm5 1h1v1H5V1Zm3 7H1V3h7v5Zm0-6H7V1h1v1Z" fill="#9aa7b0" fill-rule="evenodd"/><path fill="#40b6e0" d="M1.5 5.75h2.75V7.5H1.5z"/><path fill="#62b543" d="M4.75 3.5H7.5v1.75H4.75z"/><path fill="#f4af3d" d="M4.75 5.75H7.5V7.5H4.75z"/><path fill="#f26522" d="M1.5 3.5h2.75v1.75H1.5z"/></svg>