<!-- Copyright © 2000–2024 JetBrains s.r.o. -->
<svg width="16" height="16" viewBox="0 0 16 16" xmlns="http://www.w3.org/2000/svg">
  <path fill="#FAF2FF" d="m13.15 4.97-.59.59a1.499 1.499 0 1 1-2.12-2.12v-.15L8 1.95v4.17C8 7.15 7.16 8 6.12 8 7.15 8 8 8.84 8 9.88v4.17l5.5-3.03V4.97z"/>
  <path fill="none" stroke="#B153E0" stroke-linecap="round" stroke-linejoin="round" d="m8.5 2.28 1.55.85m3.45 2.2v5.64l-5 2.75m-.77-5.86L8 8l2.93-1.58"/>
  <path fill="none" stroke="#DB3B4B" stroke-linecap="round" stroke-linejoin="round" d="m11.5.5 4 4m0-4-4 4"/>
  <path fill="#208A3C" d="M6.12 9H.88a.88.88 0 0 0-.88.88v5.24c0 .486.394.88.88.88h5.24a.88.88 0 0 0 .88-.88V9.88A.88.88 0 0 0 6.12 9"/>
  <path fill="none" stroke="#fff" stroke-linecap="round" stroke-linejoin="round" d="M2.5 13.5a1 1 0 1 0 0-2 1 1 0 0 0 0 2"/>
  <path fill="none" stroke="#fff" stroke-linecap="round" stroke-linejoin="round" d="M3.5 12.5h2v1"/>
  <path fill="#834DF0" d="M6.12 0H.88A.88.88 0 0 0 0 .88v5.24c0 .486.394.88.88.88h5.24A.88.88 0 0 0 7 6.12V.88A.88.88 0 0 0 6.12 0"/>
  <path fill="none" stroke="#fff" stroke-linecap="round" stroke-linejoin="round" d="m1.5 1.5 2 4 2-4"/>
</svg>
