<!-- Copyright © 2000–2024 JetBrains s.r.o. -->
<svg width="16" height="16" viewBox="0 0 16 16" xmlns="http://www.w3.org/2000/svg">
  <path fill="none" stroke="#C27D04" stroke-linecap="round" stroke-linejoin="round" d="M8.47 6.5H12m0 5h-1.5c-1.1 0-2-.9-2-2v-3"/>
  <path fill="#FFFAEB" stroke="#C27D04" stroke-linecap="round" stroke-linejoin="round" d="m12.707 5.857-1.853 1.852a.5.5 0 0 0 0 .708l.736.735a.5.5 0 0 0 .707 0l1.853-1.853a.5.5 0 0 0 0-.707l-.736-.735a.5.5 0 0 0-.707 0m-.005 4.995-1.852 1.853a.5.5 0 0 0 0 .707l.735.736a.5.5 0 0 0 .707 0l1.853-1.853a.5.5 0 0 0 0-.707l-.736-.736a.5.5 0 0 0-.707 0"/>
  <path fill="#3574F0" d="M6.12 0H.88A.88.88 0 0 0 0 .88v5.24c0 .486.394.88.88.88h5.24A.88.88 0 0 0 7 6.12V.88A.88.88 0 0 0 6.12 0"/>
  <path fill="none" stroke="#fff" stroke-linecap="round" stroke-linejoin="round" d="m1.75 5.5 1.75-4 1.75 4m-3.06-1h2.62"/>
</svg>
