<!-- Copyright © 2000–2024 JetBrains s.r.o. -->
<svg width="16" height="16" viewBox="0 0 16 16" xmlns="http://www.w3.org/2000/svg">
  <path fill="#FFFAEB" fill-rule="evenodd" d="m13.44 8 .7-.7c.2-.2.2-.51 0-.71l-.74-.74c-.2-.2-.51-.2-.71 0L10.84 7.7c-.08.08-.12.19-.14.3z" clip-rule="evenodd"/>
  <path fill="none" stroke="#C27D04" stroke-linecap="round" stroke-linejoin="round" d="M6 6.5h6M8.5 7.94V6.5m2.56 1 1.65-1.65c.2-.2.51-.2.71 0l.74.74c.2.2.2.51 0 .71l-.2.2"/>
  <path fill="#FFFAEB" stroke="#C27D04" stroke-linecap="round" stroke-linejoin="round" d="M5.708 1.86 1.855 5.715a.5.5 0 0 0 0 .707l1.732 1.733a.5.5 0 0 0 .707 0L8.148 4.3a.5.5 0 0 0 0-.707L6.415 1.861a.5.5 0 0 0-.707 0"/>
  <path fill="#E66D17" d="M15.12 9H9.88a.88.88 0 0 0-.88.88v5.24c0 .486.394.88.88.88h5.24a.88.88 0 0 0 .88-.88V9.88a.88.88 0 0 0-.88-.88"/>
  <path fill="#fff" fill-rule="evenodd" d="M12.15 10.35c.2-.2.51-.2.71 0l1.79 1.79c.2.2.2.51 0 .71l-1.79 1.79c-.2.2-.51.2-.71 0l-1.79-1.79c-.2-.2-.2-.51 0-.71l1.79-1.79" clip-rule="evenodd"/>
</svg>
