<!-- Copyright © 2000–2024 JetBrains s.r.o. -->
<svg width="16" height="16" viewBox="0 0 16 16" xmlns="http://www.w3.org/2000/svg">
  <path fill="#322936" d="M8 1.95 2.5 4.98V8h3.62C7.15 8 8 8.84 8 9.88v4.17l5.5-3.03V4.97L8 1.94z"/>
  <path fill="none" stroke="#BB69D6" stroke-linecap="round" stroke-linejoin="round" d="M2.5 7.5V4.98L8 1.95l5.5 3.03v6.04l-5 2.75"/>
  <path fill="none" stroke="#BB69D6" stroke-linecap="round" stroke-linejoin="round" d="M2.5 4.98 8 8l5.5-3.02"/>
  <path fill="#57965C" d="M6.12 9H.88a.88.88 0 0 0-.88.88v5.24c0 .486.394.88.88.88h5.24a.88.88 0 0 0 .88-.88V9.88A.88.88 0 0 0 6.12 9"/>
  <path fill="none" stroke="#1E1F22" stroke-linecap="round" stroke-linejoin="round" d="M2.5 13.5a1 1 0 1 0 0-2 1 1 0 0 0 0 2"/>
  <path fill="none" stroke="#1E1F22" stroke-linecap="round" stroke-linejoin="round" d="M3.5 12.5h2v1"/>
</svg>
