<!-- Copyright © 2000–2024 JetBrains s.r.o. -->
<svg width="16" height="16" viewBox="0 0 16 16" xmlns="http://www.w3.org/2000/svg">
  <path fill="#EBECF0" d="M6.12 8C7.15 8 8 8.84 8 9.88 8 8.85 8.84 8 9.88 8h4.62V5.5c0-1.1-.9-2-2-2h-9c-1.1 0-2 .9-2 2V8z"/>
  <path fill="none" stroke="#6C707E" stroke-linecap="round" stroke-linejoin="round" d="M1.5 7.5v-2c0-1.1.9-2 2-2h9c1.1 0 2 .9 2 2v2m-3-1h-7"/>
  <path fill="#E66D17" d="M6.12 9H.88a.88.88 0 0 0-.88.88v5.24c0 .486.394.88.88.88h5.24a.88.88 0 0 0 .88-.88V9.88A.88.88 0 0 0 6.12 9"/>
  <path fill="#fff" d="M4.75 12v-.75a1.25 1.25 0 0 0-2.5 0V12c-.41 0-.75.34-.75.75v1.5c0 .41.34.75.75.75h2.5c.41 0 .75-.34.75-.75v-1.5c0-.41-.34-.75-.75-.75M3.5 10.75c.28 0 .5.22.5.5V12H3v-.75c0-.28.22-.5.5-.5m0 3.25c-.28 0-.5-.22-.5-.5s.22-.5.5-.5.5.22.5.5-.22.5-.5.5"/>
  <path fill="#E66D17" d="M15.12 9H9.88a.88.88 0 0 0-.88.88v5.24c0 .486.394.88.88.88h5.24a.88.88 0 0 0 .88-.88V9.88a.88.88 0 0 0-.88-.88"/>
  <path fill="#fff" fill-rule="evenodd" d="M12.15 10.35c.2-.2.51-.2.71 0l1.79 1.79c.2.2.2.51 0 .71l-1.79 1.79c-.2.2-.51.2-.71 0l-1.79-1.79c-.2-.2-.2-.51 0-.71l1.79-1.79" clip-rule="evenodd"/>
</svg>
