<!-- Copyright © 2000–2024 JetBrains s.r.o. -->
<svg width="16" height="16" viewBox="0 0 16 16" xmlns="http://www.w3.org/2000/svg">
  <path fill="#EDF3FF" d="m9 2.5-6.5 4V8h3.62C7.15 8 8 8.84 8 9.88v3.01l5.5-3.38v-4l-4.5-3z"/>
  <path fill="none" stroke="#3574F0" stroke-linecap="round" stroke-linejoin="round" d="M2.5 7.5v-1l6.5-4 4.5 3v4l-5 3.08m-.28-3.83L13.5 5.5m-11 1 1.5 1"/>
  <path fill="#E66D17" d="M6.12 9H.88a.88.88 0 0 0-.88.88v5.24c0 .486.394.88.88.88h5.24a.88.88 0 0 0 .88-.88V9.88A.88.88 0 0 0 6.12 9"/>
  <path fill="#fff" d="M4.75 12v-.75a1.25 1.25 0 0 0-2.5 0V12c-.41 0-.75.34-.75.75v1.5c0 .41.34.75.75.75h2.5c.41 0 .75-.34.75-.75v-1.5c0-.41-.34-.75-.75-.75M3.5 10.75c.28 0 .5.22.5.5V12H3v-.75c0-.28.22-.5.5-.5m0 3.25c-.28 0-.5-.22-.5-.5s.22-.5.5-.5.5.22.5.5-.22.5-.5.5"/>
</svg>
