<svg width="14" height="14" viewBox="0 0 14 14" fill="none" xmlns="http://www.w3.org/2000/svg">
<path fill-rule="evenodd" clip-rule="evenodd" d="M10.3066 13H9.69263L9.5648 12.6591C9.31306 11.9878 8.62144 11.5885 7.91418 11.7061L7.55507 11.7659L7.24807 11.2341L7.47935 10.953C7.93486 10.3993 7.93486 9.6007 7.47935 9.04703L7.24805 8.76587L7.55505 8.23413L7.91418 8.29387C8.62144 8.41151 9.31306 8.0122 9.5648 7.34088L9.69263 7H10.3066L10.4345 7.34088C10.6862 8.0122 11.3778 8.41151 12.0851 8.29387L12.4442 8.23413L12.7512 8.76587L12.5199 9.04703C12.0644 9.6007 12.0644 10.3993 12.5199 10.953L12.7512 11.2341L12.4442 11.7659L12.0851 11.7061C11.3778 11.5885 10.6862 11.9878 10.4345 12.6591L10.3066 13ZM10.9997 10C10.9997 10.5523 10.552 11 9.99969 11C9.44741 11 8.99969 10.5523 8.99969 10C8.99969 9.44771 9.44741 9 9.99969 9C10.552 9 10.9997 9.44771 10.9997 10Z" fill="#EBECF0"/>
<path d="M10.0005 11C10.5528 11 11.0005 10.5523 11.0005 10C11.0005 9.44771 10.5528 9 10.0005 9C9.4482 9 9.00049 9.44771 9.00049 10C9.00049 10.5523 9.4482 11 10.0005 11Z" fill="#6C707E"/>
<path fill-rule="evenodd" clip-rule="evenodd" d="M11.1221 13.6756C11.0489 13.8707 10.8624 14 10.6539 14H9.34693C9.13851 14 8.95195 13.8707 8.87877 13.6756L8.62927 13.0102C8.54536 12.7865 8.31482 12.6534 8.07906 12.6926L7.37814 12.8092C7.17254 12.8434 6.9673 12.7464 6.86309 12.5659L6.20959 11.4341C6.10538 11.2536 6.12406 11.0273 6.25648 10.8664L6.7079 10.3177C6.85974 10.1331 6.85974 9.86691 6.7079 9.68235L6.25646 9.13361C6.12404 8.97266 6.10536 8.74645 6.20957 8.56595L6.86307 7.43405C6.96728 7.25355 7.17253 7.15663 7.37812 7.19083L8.07906 7.30742C8.31481 7.34664 8.54535 7.21353 8.62927 6.98976L8.87877 6.32444C8.95195 6.12929 9.13851 6 9.34693 6H10.6539C10.8624 6 11.0489 6.12929 11.1221 6.32444L11.3716 6.98976C11.4555 7.21353 11.686 7.34664 11.9218 7.30742L12.6227 7.19083C12.8283 7.15663 13.0336 7.25355 13.1378 7.43405L13.7913 8.56595C13.8955 8.74645 13.8768 8.97266 13.7444 9.13361L13.293 9.68235C13.1411 9.86691 13.1411 10.1331 13.293 10.3177L13.7444 10.8664C13.8768 11.0273 13.8955 11.2536 13.7913 11.4341L13.1378 12.5659C13.0336 12.7464 12.8283 12.8434 12.6227 12.8092L11.9218 12.6926C11.686 12.6534 11.4555 12.7865 11.3716 13.0102L11.1221 13.6756ZM9.69343 13H10.3074L10.4353 12.6591C10.687 11.9878 11.3786 11.5885 12.0859 11.7061L12.445 11.7659L12.752 11.2341L12.5207 10.953C12.0652 10.3993 12.0652 9.6007 12.5207 9.04703L12.752 8.76587L12.445 8.23413L12.0859 8.29387C11.3786 8.41151 10.687 8.0122 10.4353 7.34088L10.3074 7H9.69343L9.5656 7.34088C9.31385 8.0122 8.62223 8.41151 7.91498 8.29387L7.55584 8.23413L7.24884 8.76587L7.48015 9.04703C7.93566 9.6007 7.93566 10.3993 7.48015 10.953L7.24886 11.2341L7.55586 11.7659L7.91498 11.7061C8.62223 11.5885 9.31386 11.9878 9.5656 12.6591L9.69343 13Z" fill="#6C707E"/>
<path d="M0 7C0 3.13401 3.13401 0 7 0C10.8658 0 13.9997 3.13374 14 6.99951C13.0878 5.78534 11.6356 5 10 5C7.23858 5 5 7.23858 5 10C5 11.6356 5.78534 13.0878 6.99951 14C3.13374 13.9997 0 10.8658 0 7Z" fill="#E7EFFD"/>
<path d="M6.99951 14C3.13374 13.9997 0 10.8658 0 7C0 3.13401 3.13401 0 7 0C10.8658 0 13.9997 3.13374 14 6.99951C13.6919 6.5895 13.3223 6.22839 12.9049 5.9299C12.4002 3.12676 9.94847 1 7 1C3.68629 1 1 3.68629 1 7C1 9.94847 3.12676 12.4002 5.9299 12.9049C6.22839 13.3223 6.5895 13.6919 6.99951 14Z" fill="#3574F0"/>
</svg>
