<svg width="16" height="16" viewBox="0 0 16 16" fill="none" xmlns="http://www.w3.org/2000/svg">
<path d="M10.377 2.392L9.755 1L8 1.333L8.703 2.717C9.196 2.53 9.746 2.411 10.377 2.392Z" fill="#F26522" fill-opacity="0.7"/>
<path d="M3.5232 8.07459L2.0252 7.18359L1.0002 9.45159L2.5102 10.2836C2.8212 9.47259 3.1612 8.73359 3.5232 8.07459Z" fill="#F26522" fill-opacity="0.7"/>
<path d="M13.641 3.251L13.645 3.256L13.45 1.416L12 1L12.219 2.431C12.668 2.592 13.12 2.836 13.641 3.251Z" fill="#F26522" fill-opacity="0.7"/>
<path d="M6.6218 4.12654L5.4718 2.87354L3.8418 4.29754L5.1828 5.63054C5.6878 5.01954 6.1808 4.52054 6.6218 4.12654Z" fill="#F26522" fill-opacity="0.7"/>
<path d="M8.08011 15.1043C6.12536 15.1063 2.02481 15.1086 2.02481 15.1086C2.1167 14.6913 2.19089 14.2552 2.26635 13.8116C2.40564 12.9928 2.54924 12.1487 2.81633 11.3513C4.34828 6.78532 7.04146 4.54254 8.42712 3.77763C9.31784 3.28671 10.6003 3.01884 11.5401 3.13597C12.4408 3.24902 13.045 3.46902 13.8556 4.12495C14.2633 4.45393 14.6531 4.83078 15.0248 5.25041L14.7463 6.54189C14.7463 6.54189 13.9978 6.31374 13.7714 6.27708C13.0069 6.15587 12.2615 6.24856 11.5772 6.78532C11.4649 6.87312 11.3576 6.963 11.2549 7.05514C8.84686 7.41493 7 9.49179 7 12C7 13.1729 7.40386 14.2515 8.08011 15.1043Z" fill="#F26522" fill-opacity="0.7"/>
<path fill-rule="evenodd" clip-rule="evenodd" d="M12 8C9.792 8 8 9.792 8 12C8 14.208 9.792 16 12 16C14.208 16 16 14.208 16 12C16 9.792 14.208 8 12 8ZM11.6 15.172C10.02 14.976 8.8 13.632 8.8 12C8.8 11.752 8.832 11.516 8.884 11.284L10.8 13.2V13.6C10.8 14.04 11.16 14.4 11.6 14.4V15.172ZM14.36 14.156C14.256 13.832 13.96 13.6 13.6 13.6H13.2V12.4C13.2 12.18 13.02 12 12.8 12H10.4V11.2H11.2C11.42 11.2 11.6 11.02 11.6 10.8V10H12.4C12.84 10 13.2 9.64 13.2 9.2V9.036C14.372 9.512 15.2 10.66 15.2 12C15.2 12.832 14.88 13.588 14.36 14.156Z" fill="#9AA7B0"/>
</svg>
