<svg width="16" height="16" viewBox="0 0 16 16" fill="none" xmlns="http://www.w3.org/2000/svg">
<path fill-rule="evenodd" clip-rule="evenodd" d="M12 8C9.792 8 8 9.792 8 12C8 14.208 9.792 16 12 16C14.208 16 16 14.208 16 12C16 9.792 14.208 8 12 8ZM11.6 15.172C10.02 14.976 8.8 13.632 8.8 12C8.8 11.752 8.832 11.516 8.884 11.284L10.8 13.2V13.6C10.8 14.04 11.16 14.4 11.6 14.4V15.172ZM14.36 14.156C14.256 13.832 13.96 13.6 13.6 13.6H13.2V12.4C13.2 12.18 13.02 12 12.8 12H10.4V11.2H11.2C11.42 11.2 11.6 11.02 11.6 10.8V10H12.4C12.84 10 13.2 9.64 13.2 9.2V9.036C14.372 9.512 15.2 10.66 15.2 12C15.2 12.832 14.88 13.588 14.36 14.156Z" fill="#9AA7B0"/>
<path d="M15 7.99964C14.1643 7.37195 13.1256 7 12 7C9.23858 7 7 9.23858 7 12C7 13.1256 7.37195 14.1643 7.99964 15C4.13381 14.9998 1 11.8659 1 8C1 4.134 4.134 1 8 1C11.8659 1 14.9998 4.13381 15 7.99964Z" fill="#40B6E0" fill-opacity="0.6"/>
<path d="M7.45399 9.91532C6.66298 9.68735 6.00001 9.01151 6.00001 8.00049C6.00001 6.71249 6.97101 6.00009 8.10001 6.00009C8.89298 6.00009 9.39665 6.21532 9.66365 6.37754L10.222 5.60736C9.65739 5.19718 9.11437 5.00049 8.09821 5.00049C6.34021 5.00049 5.00021 6.35849 5.00021 8.00049C5.00021 9.37124 5.90612 10.5002 7.12796 10.8711C7.20469 10.5386 7.31459 10.2188 7.45399 9.91532Z" fill="#231F20" fill-opacity="0.7"/>
</svg>
