<svg width="16" height="16" viewBox="0 0 16 16" xmlns="http://www.w3.org/2000/svg">
  <path fill="#43454A" stroke="#CED0D6" stroke-linecap="round" stroke-linejoin="round" d="M12.767 1.5H3.233c-.957 0-1.733.776-1.733 1.733v9.534c0 .957.776 1.733 1.733 1.733h9.534c.957 0 1.733-.776 1.733-1.733V3.233c0-.957-.776-1.733-1.733-1.733Z"/>
  <path fill="none" stroke="#CED0D6" stroke-linecap="round" stroke-linejoin="round" d="M11.77 3.5H9.23a.73.73 0 0 0-.73.73v2.54c0 .403.327.73.73.73h2.54a.73.73 0 0 0 .73-.73V4.23a.73.73 0 0 0-.73-.73Zm-6.27 3h-1a1 1 0 0 0-1 1v2a1 1 0 0 0 1 1h1a1 1 0 0 0 1-1v-2a1 1 0 0 0-1-1Zm5.25 3h-1.5a.75.75 0 0 0-.75.75v1.5c0 .414.336.75.75.75h1.5a.75.75 0 0 0 .75-.75v-1.5a.75.75 0 0 0-.75-.75Z"/>
</svg>
