<svg xmlns="http://www.w3.org/2000/svg" viewBox="0 0 16 16"><path d="M13.25 7H13V4c0-.55-.45-1-1-1H9v-.25c0-.83-.67-1.5-1.5-1.5S6 1.92 6 2.75V3H3c-.55 0-1 .45-1 1v3h.25c.83 0 1.5.67 1.5 1.5S3.08 10 2.25 10H2v3c0 .55.45 1 1 1h3v-.25c0-.83.67-1.5 1.5-1.5s1.5.67 1.5 1.5V14h3c.55 0 1-.45 1-1v-3h.25c.83 0 1.5-.67 1.5-1.5S14.08 7 13.25 7Z" style="fill:#afb1b3;fill-rule:evenodd"/><path d="m6.43 6.49-.63-.62C6.22 5.24 6.91 5 7.41 5c1.04 0 1.69.65 1.69 1.5 0 1.21-1.07 1.36-1.07 2.14V9H7v-.36c.04-1.14 1.07-1.45 1.07-1.99 0-.39-.27-.62-.58-.62-.46 0-.72.14-1.06.46Zm1.7 3.91a.6.6 0 0 0-.6-.59.595.595 0 1 0 0 1.19c.33 0 .6-.27.6-.6Z" style="fill:#231f20"/></svg>