<svg width="16" height="16" viewBox="0 0 16 16" xmlns="http://www.w3.org/2000/svg">
  <path fill="#EBECF0" d="M15.5 8c0-1.04-1.12-1.96-2.87-2.55.67-2.33.58-4.19-.42-4.77C11.23.11 9.63.91 8 2.57 6.37.91 4.77.12 3.79.68c-1 .58-1.09 2.44-.42 4.77C1.63 6.05.5 6.97.5 8c0 1.03 1.12 1.96 2.87 2.55-.67 2.33-.58 4.19.42 4.77.98.57 2.58-.23 4.21-1.89 1.63 1.67 3.23 2.46 4.21 1.89 1-.58 1.09-2.44.42-4.77 1.74-.6 2.87-1.52 2.87-2.55"/>
  <path fill="none" stroke="#6C707E" stroke-linecap="round" stroke-linejoin="round" d="M8 11.25c4.142 0 7.5-1.455 7.5-3.25S12.142 4.75 8 4.75C3.858 4.75.5 6.205.5 8s3.358 3.25 7.5 3.25"/>
  <path fill="none" stroke="#6C707E" stroke-linecap="round" stroke-linejoin="round" d="M12.205 15.322c1.556-.894.936-4.895-1.385-8.938C8.498 2.342 5.355-.21 3.798.684c-1.556.894-.936 4.896 1.385 8.938 2.322 4.042 5.465 6.594 7.022 5.7"/>
  <path fill="none" stroke="#6C707E" stroke-linecap="round" stroke-linejoin="round" d="M10.82 9.616c2.32-4.042 2.94-8.044 1.385-8.938-1.557-.894-4.7 1.658-7.022 5.7-2.321 4.043-2.941 8.044-1.385 8.938 1.557.894 4.7-1.658 7.022-5.7"/>
  <path fill="#6C707E" d="M8 9.5a1.5 1.5 0 1 0 0-3 1.5 1.5 0 0 0 0 3"/>
</svg>
