<svg width="16" height="16" viewBox="0 0 16 16" xmlns="http://www.w3.org/2000/svg">
  <path fill="#43454A" d="M11.41 13.22c-1.81 1.28-3.8 1.25-4.35 1.24-1.03-.03-2.91-.07-4.27-1.53-1.36-1.46-1.64-3.75-.86-5.48.6-1.33 1.69-2.03 2.1-2.26 1.76-1.01 2.96-.26 4.59-1.2.67-.38 1.44-1.05 2.06-2.35.2.38.45.99.53 1.76.12 1-.09 1.8-.24 2.24.44-.27 1.07-.74 1.61-1.5.92-1.27 1.05-2.57 1.08-3.14.32.81.73 2.07.84 3.66.07 1.04.41 6.1-3.09 8.56"/>
  <path fill="none" stroke="#CED0D6" stroke-linecap="round" stroke-linejoin="round" d="M9.48 9.49V7.44c0-.07 0-.34-.21-.58a.875.875 0 0 0-.62-.31H5.87c-.24.02-.57.08-.92.26-.94.48-1.47 1.52-1.52 2.48-.01.23-.05 1.38.85 2.29.14.14.97.89 2.27.89 1.53 0 2.06-1.03 2.06-1.03.34.33.68.48.99.53 1.99.28 4.84-3.57 4.9-7.32.02-1.57-.45-2.84-.84-3.66a5.8 5.8 0 0 1-1.07 3.14c-.55.76-1.18 1.23-1.61 1.5.15-.44.35-1.24.24-2.23-.09-.78-.34-1.38-.53-1.76-.63 1.29-1.4 1.97-2.06 2.35-1.64.93-2.84.18-4.6 1.19-.4.23-1.49.93-2.1 2.26-.78 1.73-.5 4.02.86 5.48 1.32 1.41 3.12 1.49 4.27 1.54 2.61.11 4.56-1.03 5.34-1.56"/>
  <path fill="#CED0D6" d="M6.49 8C5.67 8 5 8.67 5 9.49c0 .88.78 1.49 1.49 1.49.82 0 1.49-.67 1.49-1.49V8.16s-.02-.07-.06-.1c-.07-.07-.16-.05-.17-.05H6.49z"/>
</svg>
