<svg width="16" height="16" viewBox="0 0 16 16" xmlns="http://www.w3.org/2000/svg">
  <path fill="#EBECF0" stroke="#6C707E" stroke-linecap="round" stroke-linejoin="round" d="m14.03 10.176-.902-1.524a1.283 1.283 0 0 1 0-1.303l.903-1.524a.232.232 0 0 0 .023-.203 6.427 6.427 0 0 0-.967-1.672.234.234 0 0 0-.188-.081l-1.783.02c-.462 0-.889-.25-1.113-.651l-.867-1.541a.242.242 0 0 0-.166-.124 6.619 6.619 0 0 0-1.933 0 .242.242 0 0 0-.164.123l-.868 1.542a1.285 1.285 0 0 1-1.127.651l-1.771-.02a.238.238 0 0 0-.187.081 6.472 6.472 0 0 0-.968 1.673.234.234 0 0 0 .024.202l.902 1.524c.239.401.239.901 0 1.303l-.902 1.524a.234.234 0 0 0-.024.202 6.47 6.47 0 0 0 .969 1.674c.04.05.109.08.188.08l1.783-.02c.461 0 .888.25 1.113.651l.868 1.541a.236.236 0 0 0 .165.124 6.619 6.619 0 0 0 1.933 0 .241.241 0 0 0 .164-.122l.867-1.542a1.282 1.282 0 0 1 1.127-.652l1.771.02a.239.239 0 0 0 .188-.08 6.51 6.51 0 0 0 .968-1.673.236.236 0 0 0-.025-.203h-.001Zm-6.026-.024a2.154 2.154 0 0 1-2.151-2.151c0-1.186.965-2.151 2.151-2.151s2.151.965 2.151 2.151a2.154 2.154 0 0 1-2.151 2.151Z"/>
</svg>
