<svg width="16" height="16" viewBox="0 0 16 16" xmlns="http://www.w3.org/2000/svg">
  <path fill="#EBECF0" d="M15.15 13.32c-1.05 1.82-4.12 2.02-6.85.45-.1-.06-.19-.13-.29-.21-.1.08-.2.14-.31.21-2.73 1.57-5.8 1.37-6.85-.45-1.05-1.81.3-4.59 3.04-6.14.11-.06.22-.12.33-.17 0-.12-.02-.24-.02-.36C4.2 3.5 5.9.95 8 .95c2.1 0 3.8 2.55 3.8 5.7 0 .12-.01.24-.02.36.11.05.22.11.33.17 2.74 1.55 4.09 4.33 3.04 6.14"/>
  <path fill="none" stroke="#6C707E" stroke-linecap="round" stroke-linejoin="round" d="M10.74 10.58a8.579 8.579 0 0 1-3.04 3.18c-1.24.71-2.54 1.06-3.7 1.06-1.39 0-2.57-.51-3.14-1.5a2.76 2.76 0 0 1-.36-1.38c0-1.2.68-2.54 1.86-3.65"/>
  <path fill="none" stroke="#6C707E" stroke-linecap="round" stroke-linejoin="round" d="M5.44 10.87c-.76-1.26-1.2-2.7-1.24-4.22C4.2 3.5 5.9.95 8 .95c1.65 0 3.06 1.58 3.58 3.79"/>
  <path fill="none" stroke="#6C707E" stroke-linecap="round" stroke-linejoin="round" d="M7.82 6.1c1.47-.03 2.96.33 4.28 1.08 2.11 1.19 3.39 3.11 3.39 4.76 0 .49-.11.96-.36 1.38-.57.99-1.75 1.5-3.14 1.5-.59 0-1.22-.09-1.86-.28"/>
  <path fill="#6C707E" stroke="#6C707E" stroke-linecap="round" stroke-linejoin="round" d="M7.07 6.9a.75.75 0 1 0 0-1.5.75.75 0 0 0 0 1.5m-1.21 5.34a.75.75 0 1 0 0-1.5.75.75 0 0 0 0 1.5m5.21-1.58a.75.75 0 1 0 0-1.5.75.75 0 0 0 0 1.5"/>
</svg>
