<svg width="16" height="16" viewBox="0 0 16 16" xmlns="http://www.w3.org/2000/svg">
  <path fill="#EBECF0" stroke="#6C707E" stroke-linejoin="round" d="M10.333 13.988c-.666 0-1.212-.452-2.005-.452-.926 0-1.244.465-1.993.465-1.481 0-3.198-3.1-3.198-5.314 0-2.089 1.356-3.451 3.027-3.464.684-.006 1.635.512 2.006.512.499 0 1.36-.535 2.321-.535.961 0 1.731.461 2.224 1.151-.884.526-1.322 1.263-1.312 2.209.011 1.131.722 1.987 1.628 2.36-.407 1.159-1.52 3.069-2.698 3.069v-.001Z"/>
  <path fill="#EBECF0" stroke="#6C707E" stroke-linejoin="round" stroke-width=".9" d="M10.558 1.731c0 1.284-.826 2.516-2.46 2.497a1.692 1.692 0 0 1-.014-.219C8.084 2.7 9.157 1.5 10.545 1.5c.009.077.013.154.013.231Z"/>
</svg>
