<svg width="16" height="16" viewBox="0 0 16 16" xmlns="http://www.w3.org/2000/svg">
  <path fill="#43454A" d="M13 6.5h-1.5V3A1.5 1.5 0 0 0 10 1.5H3A1.5 1.5 0 0 0 1.5 3v5A1.5 1.5 0 0 0 3 9.5h1.5V13A1.5 1.5 0 0 0 6 14.5h7a1.5 1.5 0 0 0 1.5-1.5V8A1.5 1.5 0 0 0 13 6.5Z"/>
  <path fill="none" stroke="#CED0D6" stroke-linecap="round" stroke-linejoin="round" d="M3.5 3.5h6m5 9.5V8A1.5 1.5 0 0 0 13 6.5H6A1.5 1.5 0 0 0 4.5 8v5A1.5 1.5 0 0 0 6 14.5h7a1.5 1.5 0 0 0 1.5-1.5Zm-8-4.5h6"/>
  <path fill="none" stroke="#CED0D6" stroke-linecap="round" stroke-linejoin="round" d="M11.5 4.5V3A1.5 1.5 0 0 0 10 1.5H3A1.5 1.5 0 0 0 1.5 3v5c0 .652.419 1.202 1 1.408"/>
</svg>
