<svg width="16" height="16" viewBox="0 0 16 16" xmlns="http://www.w3.org/2000/svg">
  <path fill="#43454A" d="M15.5 16v-1.5c0-1.1-.9-2-2-2h-3c-1.1 0-2 .9-2 2V16m1.16-4.9A3.497 3.497 0 0 1 12 5c1.32 0 2.47.73 3.06 1.81.07.12.44 0 .44 0V4.5c0-1.1-.9-2-2-2h-11c-1.1 0-2 .9-2 2v7c0 1.1.9 2 2 2h4.66c.35-1.18 1.3-2.1 2.5-2.4"/>
  <path fill="none" stroke="#CED0D6" stroke-linecap="round" stroke-linejoin="round" d="M9.36 5.5H2.5"/>
  <path fill="#43454A" stroke="#CED0D6" stroke-linecap="round" stroke-linejoin="round" d="M12 10.5a2 2 0 1 0 0-4 2 2 0 0 0 0 4"/>
  <path fill="none" stroke="#CED0D6" stroke-linecap="round" stroke-linejoin="round" d="M15.5 15.5v-1c0-1.1-.9-2-2-2h-3c-1.1 0-2 .9-2 2v1m7-8.94V4.5c0-1.1-.9-2-2-2h-11c-1.1 0-2 .9-2 2v7c0 1.1.9 2 2 2h4.13"/>
</svg>
