<svg width="16" height="16" viewBox="0 0 16 16" xmlns="http://www.w3.org/2000/svg">
  <path fill="#43454A" stroke="#CED0D6" stroke-linecap="round" stroke-miterlimit="10" d="M4.5 3.5h-2a1 1 0 0 0-1 1v8a1 1 0 0 0 1 1h2a1 1 0 0 0 1-1v-8a1 1 0 0 0-1-1Zm9 1h-3a1 1 0 0 0-1 1v7a1 1 0 0 0 1 1h3a1 1 0 0 0 1-1v-7a1 1 0 0 0-1-1Zm-6.764 9A1.236 1.236 0 0 1 5.5 12.264V2.736c0-.683.553-1.236 1.236-1.236h1.528c.683 0 1.236.553 1.236 1.236v9.528c0 .683-.553 1.236-1.236 1.236H6.736A1.236 1.236 0 0 1 5.5 12.264V2.736"/>
  <path fill="none" stroke="#CED0D6" stroke-linecap="round" stroke-miterlimit="10" d="M3.5 5.5v2m4-4v3m4.5 0v2"/>
</svg>
