<svg xmlns="http://www.w3.org/2000/svg" width="40" height="40" viewBox="0 0 40 40" fill="none">
    <path d="M35.1178 40H14.8821C14.241 40 13.6061 39.8737 13.0138 39.6283C12.4215 39.383 11.8833 39.0235 11.4299 38.5702C10.9766 38.1168 10.617 37.5787 10.3716 36.9863C10.1263 36.394 10 35.7592 10 35.118V29.882C10 28.5872 10.5144 27.3455 11.4299 26.4298C12.3455 25.5143 13.5873 25 14.8821 25H35.1178C35.759 25 36.3938 25.1263 36.9862 25.3717C37.5785 25.617 38.1167 25.9765 38.57 26.4298C39.0233 26.8832 39.383 27.4213 39.6283 28.0137C39.8737 28.606 40 29.2408 40 29.882V35.118C40 35.7592 39.8737 36.394 39.6283 36.9863C39.383 37.5787 39.0233 38.1168 38.57 38.5702C38.1167 39.0235 37.5785 39.383 36.9862 39.6283C36.3938 39.8737 35.759 40 35.1178 40Z" fill="#FDB60D"/>
    <path d="M15.5703 29.2227H20.7197V30.559H17.0625V31.9438H20.2809V33.2798H17.0625V34.7133H20.7685V36.0492H15.5704L15.5703 29.2227Z" fill="black"/>
    <path d="M24.4445 29.1741H25.8294L28.7552 36.0491H27.185L26.5609 34.5184H23.6745L23.0504 36.0491H21.5195L24.4445 29.1741ZM26.0249 33.1921L25.1177 30.9781L24.211 33.1921H26.0249Z" fill="black"/>
    <path d="M29.8088 29.2226H32.5979C32.9291 29.1833 33.2649 29.2153 33.5828 29.3164C33.9004 29.4176 34.1929 29.5856 34.4404 29.8091C34.6881 30.0326 34.8849 30.3064 35.0178 30.6124C35.1508 30.9183 35.2168 31.2491 35.2113 31.5826V31.6021C35.2084 31.9479 35.1323 32.2891 34.9876 32.6031C34.8429 32.9171 34.6333 33.1969 34.3723 33.4238C34.1114 33.6508 33.8053 33.8194 33.4743 33.9191C33.1431 34.0186 32.7946 34.0469 32.4519 34.0016H31.3109V36.0491H29.8086L29.8088 29.2226ZM32.5001 32.6651C32.6478 32.6839 32.7976 32.6711 32.9399 32.6279C33.0824 32.5848 33.2141 32.5121 33.3264 32.4144C33.4386 32.3169 33.5291 32.1966 33.5918 32.0618C33.6544 31.9268 33.6879 31.7803 33.6899 31.6314V31.6118C33.6899 30.9393 33.2221 30.5781 32.4709 30.5781H31.3109V32.6651H32.5001Z" fill="black"/>
</svg>