<svg width="24" height="24" viewBox="0 0 24 24" fill="none" xmlns="http://www.w3.org/2000/svg">
<path d="M21.0707 24H8.92924C8.54457 24 8.16367 23.9242 7.80827 23.777C7.45288 23.6298 7.12996 23.4141 6.85796 23.1421C6.58595 22.8701 6.37019 22.5472 6.22298 22.1918C6.07577 21.8364 6 21.4555 6 21.0708V17.9292C6 17.1523 6.30861 16.4073 6.85796 15.8579C7.4073 15.3086 8.15236 15 8.92924 15H21.0707C21.4554 15 21.8363 15.0758 22.1917 15.223C22.5471 15.3702 22.87 15.5859 23.142 15.8579C23.414 16.1299 23.6298 16.4528 23.777 16.8082C23.9242 17.1636 24 17.5445 24 17.9292V21.0708C24 21.4555 23.9242 21.8364 23.777 22.1918C23.6298 22.5472 23.414 22.8701 23.142 23.1421C22.87 23.4141 22.5471 23.6298 22.1917 23.777C21.8363 23.9242 21.4554 24 21.0707 24V24Z" fill="#FDB60D"/>
<path d="M9.34216 17.5336H12.4318V18.3354H10.2375V19.1663H12.1685V19.9679H10.2375V20.828H12.4611V21.6295H9.34221L9.34216 17.5336Z" fill="black"/>
<path d="M14.6667 17.5045H15.4976L17.2531 21.6295H16.311L15.9365 20.7111H14.2047L13.8302 21.6295H12.9117L14.6667 17.5045ZM15.6149 19.9153L15.0706 18.5869L14.5266 19.9153H15.6149Z" fill="black"/>
<path d="M17.8852 17.5336H19.5587C19.7574 17.51 19.9589 17.5292 20.1496 17.5899C20.3402 17.6506 20.5157 17.7514 20.6642 17.8855C20.8128 18.0196 20.9309 18.1839 21.0106 18.3675C21.0904 18.551 21.13 18.7495 21.1267 18.9496V18.9613C21.125 19.1688 21.0793 19.3735 20.9925 19.5619C20.9057 19.7503 20.7799 19.9182 20.6233 20.0543C20.4668 20.1905 20.2831 20.2917 20.0845 20.3515C19.8858 20.4112 19.6767 20.4282 19.4711 20.401H18.7865V21.6295H17.8851L17.8852 17.5336ZM19.5 19.5991C19.5886 19.6104 19.6785 19.6027 19.7639 19.5768C19.8494 19.5509 19.9284 19.5073 19.9958 19.4487C20.0631 19.3902 20.1174 19.318 20.155 19.2371C20.1926 19.1561 20.2127 19.0682 20.2139 18.9789V18.9671C20.2139 18.5636 19.9332 18.3469 19.4825 18.3469H18.7865V19.5991H19.5Z" fill="black"/>
</svg>
