<!-- Copyright © 2000–2024 JetBrains s.r.o. -->
<svg width="16" height="16" viewBox="0 0 16 16" xmlns="http://www.w3.org/2000/svg">
  <path fill="#9AA7B0" fill-rule="evenodd" d="m6.17 11.99.55-.5-.57-.52c-.3-.3-.44-.64-.44-.99s.14-.7.39-.96l.54-.54c.25-.25.59-.39.95-.39.26 0 .52.08.74.22l1.08.75 2.9-2.63c.33-.29.74-.44 1.16-.44.26 0 .52.06.76.17l.77.38V4H7.98L6.69 2.71c-.47-.43-1.08-.68-1.72-.71H1.05S1 2.02 1 2.05V13h4.71c0-.39.17-.76.46-1.01" opacity=".8"/>
  <path fill="#40b6e0" d="m15.6 7.96-1.8-.9a.75.75 0 0 0-.82.11l-3.49 3.16-1.7-1.18a.35.35 0 0 0-.44.04l-.54.54c-.07.07-.1.16-.1.25s.04.18.11.25l1.39 1.26-1.39 1.26c-.07.06-.11.15-.11.25 0 .09.03.19.1.25l.54.54c.12.12.3.13.44.04l1.7-1.18 3.49 3.16c.22.2.55.25.82.11l1.8-.9c.25-.12.4-.38.4-.66V8.63c0-.28-.16-.53-.4-.66ZM13.35 13l-2.19-1.51 2.19-1.51v3.03Z"/>
</svg>
