<svg width="16" height="16" viewBox="0 0 16 16" xmlns="http://www.w3.org/2000/svg">
  <path fill="#62b543" d="M14.427 3.917 14.5 3h-.814l.16-2h-.933l-.16 2h-.933l.16-2h-.933l-.16 2h-.813L10 3.917h.814l-.093 1.167h-.814l-.073.917h.814l-.16 2h.933l.16-2h.933l-.16 2h.933l.16-2h.814l.073-.917h-.814l.093-1.167h.814Zm-1.84 1.167h-.933l.093-1.167h.933l-.093 1.167Z"/>
  <path fill="#b99bf8" d="M13.506 14.182c-.402.179-.876.272-1.429.272-.741 0-1.33-.22-1.768-.661-.437-.441-.656-1.021-.656-1.739 0-.728.227-1.335.682-1.819.454-.485 1.028-.727 1.72-.727.722 0 1.286.2 1.693.601.407.401.611.918.611 1.551 0 .429-.075.778-.226 1.047-.151.269-.315.307-.544.307-.25 0-.427-.143-.375-.698.002-.022.057-.831.171-1.832h-.605c-.029.501-.047.501-.055.501h-.011c-.039 0-.125-.244-.259-.329a.831.831 0 0 0-.456-.139c-.447 0-.807.16-1.081.492-.274.331-.41.745-.41 1.245 0 .378.1.678.299.901.199.224.462.442.787.442.51 0 .853-.109 1.028-.609h.018c.002.501.283.609.842.609.432 0 .774-.097 1.074-.469.3-.371.45-.874.45-1.454 0-.792-.277-1.447-.829-1.939s-1.251-.745-2.094-.745c-.899 0-1.638.29-2.216.877-.578.587-.867 1.325-.867 2.216 0 .867.273 1.568.82 2.104s1.267.803 2.161.803c.604 0 1.11-.084 1.523-.247v-.559Zm-1.094-1.548c-.155.252-.367.378-.634.378a.535.535 0 0 1-.443-.209c-.111-.139-.166-.328-.166-.569 0-.358.082-.657.246-.897.164-.24.38-.36.647-.36.389 0 .583.218.583.654 0 .416-.078.75-.233 1.002Z"/>
  <path fill="#62b543" d="M4.029 6c0 2.194 1.124 3.035 2.19 3.057a2.622 2.622 0 0 0 1.69-.547l.473 1.015a3.112 3.112 0 0 1-2.353.975C4.881 10.479 2 10.113 2 6s2.881-4.5 4.029-4.5c.739 0 2.128.194 2.471.875L7.909 3.49a2.582 2.582 0 0 0-1.69-.547c-1.142.029-2.19.815-2.19 3.057Z"/>
</svg>
