<svg width="16" height="16" viewBox="0 0 16 16" fill="none" xmlns="http://www.w3.org/2000/svg">
<path d="M4.69361 6.88495C5.17004 5.47068 6.52938 4.45472 8.13963 4.45472C9.00476 4.45472 9.78616 4.75474 10.4001 5.24569L12.1862 3.50011C11.0978 2.57277 9.70244 2 8.13963 2C5.71341 2 3.62732 3.35735 2.62866 5.34166L4.69361 6.88495Z" fill="#EA4335"/>
<path d="M2.62863 10.6592L4.69358 9.11594C4.5755 8.76544 4.51165 8.39048 4.51165 8.00045C4.51165 7.61043 4.5755 7.23546 4.69358 6.88496L2.62863 5.34168C2.22588 6.14194 2 7.04416 2 8.00045C2 8.95674 2.22588 9.85897 2.62863 10.6592Z" fill="#FBBC05"/>
<g clip-path="url(#clip0_4897_52254)">
<path fill-rule="evenodd" clip-rule="evenodd" d="M7.62353 13.2883C7.46006 13.1309 7.46014 12.8692 7.62369 12.7119L10.3226 10.1163C10.5767 9.87185 10.9999 10.0519 10.9999 10.4045V15.5986C10.9999 15.9514 10.5765 16.1314 10.3224 15.8868L7.62353 13.2883Z" fill="#E35252"/>
<path fill-rule="evenodd" clip-rule="evenodd" d="M15.3798 12.7117C15.5435 12.8691 15.5436 13.131 15.3799 13.2884L12.6774 15.8876C12.4232 16.132 12 15.9519 12 15.5993L12 10.4038C12 10.0513 12.423 9.87118 12.6772 10.1154L15.3798 12.7117Z" fill="#5FB865"/>
</g>
<path d="M13.8606 7.14291H8.13965V9.22779H9.83857C10.3229 8.90832 10.9169 8.94526 11.3595 9.22779H11.4327C11.4297 9.24227 11.4266 9.25668 11.4234 9.27103C11.4494 9.28968 11.4748 9.30923 11.4995 9.32963C12.0109 8.907 12.8083 8.85466 13.37 9.39427L13.7757 9.78403C13.9214 9.23743 14.0002 8.64203 14.0002 8.00043C14.0002 7.70905 13.9625 7.55691 13.9026 7.31515C13.8896 7.26274 13.8756 7.20608 13.8606 7.14291Z" fill="#4285F4"/>
<path d="M7.4577 11.4841L6.9305 11.9911C6.40754 12.4941 6.36209 13.302 6.79432 13.858C4.95687 13.4605 3.43577 12.2645 2.62769 10.6576L4.69179 9.11094C5.09802 10.3229 6.1523 11.2432 7.4577 11.4841Z" fill="#34A853"/>
<defs>
<clipPath id="clip0_4897_52254">
<rect width="9" height="6" fill="white" transform="translate(7 10)"/>
</clipPath>
</defs>
</svg>
