<svg xmlns="http://www.w3.org/2000/svg" width="16" height="16">
  <path d="M3.747,1h8.505A2.748,2.748,0,0,1,15,3.748v8.505A2.747,2.747,0,0,1,12.253,15H3.747A2.747,2.747,0,0,1,1,12.253V3.747A2.747,2.747,0,0,1,3.747,1Z" fill="#9aa4b5" opacity=".6"/>
  <path d="M2.016 5.5A.479.479 0 012.5 5.019a.481.481 0 110 .962A.482.482 0 012.016 5.5zM2.099 6.942H2.9040000000000004V10.979H2.099zM3.9 7.983c0-1.762.927-3.048 2.6-3.048 1.716 0 2.6 1.317 2.6 3.048s-.889 3.052-2.6 3.052S3.9 9.728 3.9 7.983zm4.35 0c0-1.233-.538-2.308-1.748-2.308S4.75 6.752 4.75 7.983 5.3 10.294 6.5 10.294 8.25 9.209 8.25 7.983zM9.649 9.325h.81c.1.712.768.977 1.472.977s1.342-.28 1.342-.955c0-.836-.961-.9-1.775-1.094-.962-.23-1.706-.646-1.706-1.643C9.8 5.522 10.8 4.935 11.9 4.935A1.885 1.885 0 0114 6.645h-.811a1.158 1.158 0 00-1.308-.978c-.635 0-1.256.283-1.256.914 0 .567.546.794 1.1.915 1.068.295 2.381.349 2.381 1.8 0 1.191-1.01 1.737-2.213 1.737C9.892 11.035 9.675 9.721 9.649 9.325z" fill="#fff"/>
</svg>
