<svg xmlns="http://www.w3.org/2000/svg" width="16" height="16">
  <path d="M11.542,5.549,12.71,3.525a.342.342,0,0,0,.048-.174.351.351,0,0,0-.654-.176L10.916,5.233A7.159,7.159,0,0,0,8,4.635a7.159,7.159,0,0,0-2.916.6L3.9,3.175a.351.351,0,0,0-.654.176.342.342,0,0,0,.048.174L4.458,5.549A6.932,6.932,0,0,0,1,11H15A6.932,6.932,0,0,0,11.542,5.549ZM4.5,9.25a.663.663,0,0,1-.75-.75.663.663,0,0,1,.75-.75.663.663,0,0,1,.75.75A.663.663,0,0,1,4.5,9.25Zm7,0a.663.663,0,0,1-.75-.75.663.663,0,0,1,.75-.75.663.663,0,0,1,.75.75A.663.663,0,0,1,11.5,9.25Z" fill="#3ddc84" fill-opacity=".8"/>
</svg>
