<svg xmlns="http://www.w3.org/2000/svg" width="64" height="64">
  <rect x="5.333" y="5.333" width="53.333" height="53.333" rx="10.988" fill="#9aa4b5" opacity=".6"/>
  <path d="M10.413 22.008a1.2 1.2 0 011.2-1.2 1.2 1.2 0 110 2.392A1.2 1.2 0 0110.413 22.008zm.361 4.738h1.7V43.9h-1.7zM15.3 31.992v-.033c0-7.118 3.852-12.226 10.707-12.226 6.9 0 10.691 5.13 10.691 12.226v.033c0 7.145-3.794 12.275-10.674 12.275C19.015 44.267 15.3 39.054 15.3 31.992zm19.616 0v-.033c0-6.018-3.079-10.592-8.909-10.592-5.811 0-8.925 4.572-8.925 10.592v.033c0 5.962 3.02 10.642 8.942 10.642C31.878 42.634 34.917 37.989 34.917 31.992zM37.733 37.469h1.749c.382 5.16 6.5 5.165 7.011 5.165 3.423 0 6.533-1.581 6.533-4.885v-.016c0-4.274-4.832-4.535-8.1-5.378-3.739-.965-6.6-2.448-6.6-6.286v-.033c0-4.038 3.8-6.3 7.919-6.3 7.73 0 8.1 6.363 8.135 6.8H52.63c-.788-5.325-5.85-5.164-6.432-5.164-3.144 0-6.089 1.556-6.089 4.636v.017c0 4 4.445 4.395 7.9 5.262 3.942.989 6.8 2.375 6.8 6.385v.016c0 4.417-3.91 6.584-8.4 6.584C38.015 44.267 37.77 37.932 37.733 37.469z" fill="#fff"/>
</svg>
