<svg width="80" height="80" viewBox="0 0 80 80" fill="none" xmlns="http://www.w3.org/2000/svg">
<path d="M66.8852 76.6506H30.6293C28.2826 76.6234 26.0428 75.6652 24.4025 73.9867C22.7621 72.3082 21.8556 70.0469 21.8823 67.7002V58.1012C21.8556 55.7545 22.7621 53.4932 24.4025 51.8147C26.0428 50.1362 28.2826 49.1779 30.6293 49.1506H66.8852C69.232 49.1779 71.4718 50.1362 73.1121 51.8147C74.7524 53.4932 75.6589 55.7545 75.6322 58.1012V67.7002C75.6589 70.0469 74.7524 72.3082 73.1121 73.9867C71.4718 75.6652 69.232 76.6233 66.8852 76.6506Z" fill="#FDB60D"/>
<path d="M31.4693 56.8921H40.9096V59.3424H34.2048V61.8811H40.1053V64.3302H34.2048V66.9586H40.9992V69.4077H31.4692L31.4693 56.8921Z" fill="black"/>
<path d="M47.739 56.8036H50.2778L55.6417 69.4077H52.763L51.6188 66.6013H46.3271L45.1828 69.4077H42.3763L47.739 56.8036ZM50.6363 64.1696L48.9729 60.1106L47.3107 64.1696H50.6363Z" fill="black"/>
<path d="M57.5728 56.8921H62.6863C65.6721 56.8921 67.4775 58.6625 67.4775 61.2188V61.2549C67.4775 64.151 65.2251 65.6537 62.4186 65.6537H60.3269V69.4077H57.5728V56.8921ZM62.5071 63.2035C62.7777 63.2379 63.0525 63.2147 63.3135 63.1355C63.5745 63.0563 63.8159 62.9229 64.0218 62.744C64.2277 62.5651 64.3936 62.3448 64.5084 62.0974C64.6233 61.85 64.6847 61.5812 64.6885 61.3085V61.2723C64.6885 60.0396 63.8306 59.3773 62.4536 59.3773H60.3269V63.2035H62.5071Z" fill="black"/>
</svg>
