<svg xmlns="http://www.w3.org/2000/svg" width="40" height="40" viewBox="0 0 40 40" fill="none">
    <path d="M34.2824 38.4017H15.4617C14.3108 38.4017 13.207 37.9445 12.3931 37.1307C11.5793 36.3169 11.1221 35.213 11.1221 34.0622V29.4082C11.2586 28.3049 11.7597 27.2785 12.5459 26.4924C13.3321 25.7062 14.3583 25.2049 15.4617 25.0684H34.2824C35.4334 25.0684 36.5372 25.5257 37.351 26.3395C38.1649 27.1534 38.622 28.2572 38.622 29.4082V34.0622C38.622 35.213 38.1649 36.3169 37.351 37.1307C36.5372 37.9445 35.4334 38.4017 34.2824 38.4017Z" fill="#FDB60D"/>
    <path d="M16.6446 28.7307H21.3647V29.9557H18.0123V31.2252H20.9625V32.4499H18.0123V33.7639H21.4095V34.9885H16.6445L16.6446 28.7307Z" fill="black"/>
    <path d="M24.7801 28.6865H26.0495L28.7315 34.9887H27.2921L26.72 33.5854H24.0741L23.502 34.9887H22.0986L24.7801 28.6865ZM26.2288 32.3697L25.3971 30.3402L24.566 32.3697H26.2288Z" fill="black"/>
    <path d="M29.6963 28.731H32.253C32.5566 28.695 32.8645 28.7243 33.1558 28.817C33.4471 28.9098 33.7151 29.0635 33.9421 29.2685C34.169 29.4733 34.3495 29.7245 34.4713 30.005C34.5931 30.2853 34.6536 30.5885 34.6486 30.8942V30.9123C34.6461 31.2293 34.5761 31.5418 34.4436 31.8296C34.311 32.1175 34.1188 32.3742 33.8796 32.582C33.6405 32.79 33.3598 32.9448 33.0563 33.0361C32.7528 33.1275 32.4335 33.1532 32.1191 33.1117H31.0733V34.9886H29.6963V28.731ZM32.1635 31.8867C32.2988 31.9038 32.4361 31.8923 32.5666 31.8527C32.6971 31.8132 32.8178 31.7462 32.9208 31.6568C33.0238 31.5673 33.1066 31.4572 33.1641 31.3335C33.2216 31.2098 33.2523 31.0753 33.2541 30.939V30.9212C33.2541 30.3047 32.8253 29.9735 32.1366 29.9735H31.0733V31.8867H32.1635Z" fill="black"/>
</svg>