<svg width="128" height="128" viewBox="0 0 128 128" fill="none" xmlns="http://www.w3.org/2000/svg">
<path d="M73.6 22.5001L66.4001 9.6001L46.6 19.2001L20.3 21.5001L23.9 66.5001L61.1 60.3001L73.6 22.5001Z" fill="url(#paint0_linear)"/>
<path d="M35.3 34.0002L0 24.7002L12.2 98.0002L74.1 101.7L35.3 34.0002Z" fill="url(#paint1_linear)"/>
<path d="M52.5 63.7002L12.2 98.0002L74.0999 101.7L52.5 63.7002Z" fill="url(#paint2_linear)"/>
<path d="M74.1 101.2L68.7 39.2001L85.1 24.3001L111.3 13.6001L128 55.0001L74.1 101.2Z" fill="url(#paint3_linear)"/>
<path d="M74.1 101.2L68.7 39.2002L93.5 47.8002L128 55.0002L74.1 101.2Z" fill="url(#paint4_linear)"/>
<path d="M104 54.4001L95.7 37.4001L30.3 50.6001L37.1 113L80.2 128L128 99.4001L104 54.4001Z" fill="url(#paint5_linear)"/>
<path d="M104 54.4001L95.9 37.8L70.2 57.5L80.2 128L128 99.4001L104 54.4001Z" fill="url(#paint6_linear)"/>
<path d="M70.3 57.5L70.4 58.4001L76.2 99.4001L111.7 68.9001L104 54.4001L95.9 37.8L70.3 57.5Z" fill="url(#paint7_linear)"/>
<path d="M39.2 48.8L74.0999 101.7L102.9 76.8L82.8 40L39.2 48.8Z" fill="url(#paint8_linear)"/>
<path d="M70.2 57.5001L30.3 50.6001L37.1 113L80.2 128L70.2 57.5001Z" fill="url(#paint9_linear)"/>
<path d="M76.2 99.9001L70.2 57.5001L30.3 50.6001L32.7001 72.7001L74.1 101.7L76.2 99.9001Z" fill="url(#paint10_linear)"/>
<path d="M76.2 99.9001L71.4 65.6001L59 74.8001L73.9 101.6L74.1 101.7L76.2 99.9001Z" fill="url(#paint11_linear)"/>
<path d="M46.7001 53.4001L30.3 50.6001L35.6 99.4001L74.1 101.7L46.7001 53.4001Z" fill="url(#paint12_linear)"/>
<path d="M55.3 100.6L74.1 101.7L58.4001 74L55.3 100.6Z" fill="url(#paint13_linear)"/>
<path d="M70.2 57.5001L30.3 50.6001L79 7.6001L111.3 13.6001L89.5 35.6001L95.9001 37.7001L70.2 57.5001Z" fill="url(#paint14_linear)"/>
<path d="M73.6 22.5L69.8001 15.7L30.3 50.5999L70.2 57.5L86.3001 45.0999L73.6 22.5Z" fill="url(#paint15_linear)"/>
<path d="M66.4 9.6L21.8 0L0 24.7L35.4 34.1L66.4 9.6Z" fill="url(#paint16_linear)"/>
<path d="M39.1 31L21.8 0L0 24.7L35.4 34.1L39.1 31Z" fill="url(#paint17_linear)"/>
<path d="M55.0001 100.6L37.1001 113L80.2001 128L76.2001 99.8999L74.2001 101.7L55.0001 100.6Z" fill="url(#paint18_linear)"/>
<path d="M128 99.4001L102.8 76.5001L89.5 35.6001L95.9 37.7001L128 99.4001Z" fill="url(#paint19_linear)"/>
<path d="M91.3 41.2001L95.9 37.7001L89.5 35.6001L91.3 41.2001Z" fill="url(#paint20_linear)"/>
<path d="M89.3999 52.1001L71.3999 65.6001L76.1999 99.9001L102.9 76.8001L89.3999 52.1001Z" fill="url(#paint21_linear)"/>
<path d="M104 24H24V104H104V24Z" fill="url(#paint22_linear)"/>
<g opacity="0.3">
<path opacity="0.3" d="M24 98.7L74.1 101.7L35.3 34L24 31V98.7Z" fill="url(#paint23_linear)"/>
<path opacity="0.3" d="M75.5999 104H78.0999L76.2999 30.2L74.0999 24H48.1999L35.3999 34.1L75.5999 104Z" fill="url(#paint24_linear)"/>
<path opacity="0.3" d="M104 75.6V24H101L89.5 35.6L95.9 37.7V37.8L104 54.4V75.6Z" fill="url(#paint25_linear)"/>
<path opacity="0.3" d="M104 54.4L95.9 37.8L70.2 57.5L76.7999 104H104V54.4Z" fill="url(#paint26_linear)"/>
<path opacity="0.3" d="M60.4001 24L30.3 50.6L70.2001 57.5L95.9 37.7L89.5 35.6L101 24H60.4001Z" fill="url(#paint27_linear)"/>
<path opacity="0.3" d="M35.4 34.1L48.2 24H24V31.1L35.4 34.1Z" fill="url(#paint28_linear)"/>
</g>
<path d="M64 88.8999H34V93.8999H64V88.8999Z" fill="white"/>
<path d="M60.1001 59.6L64.0001 54.9C66.7001 57.1 69.5001 58.6 73.0001 58.6C75.7001 58.6 77.3001 57.5 77.3001 55.8V55.7C77.3001 54 76.3001 53.2 71.2001 51.9C65.1001 50.4 61.2001 48.7 61.2001 42.7V42.6C61.2001 37.1 65.6001 33.5 71.7001 33.5C76.1001 33.5 79.8001 34.9 82.9001 37.3L79.5001 42.3C76.8001 40.4 74.2001 39.3 71.7001 39.3C69.2001 39.3 67.8001 40.5 67.8001 41.9V42C67.8001 44 69.1001 44.6 74.3001 46C80.4001 47.6 83.8001 49.8 83.8001 55V55.1C83.8001 61.1 79.2001 64.4 72.8001 64.4C68.3001 64.4 63.7001 62.8 60.1001 59.6Z" fill="white"/>
<path d="M34 33.8999H46.2C53.3 33.8999 57.7 38.0999 57.7 44.2999V44.3999C57.7 51.2999 52.3 54.8999 45.6 54.8999H40.6V63.8999H34V33.8999ZM45.8 48.9999C49.1 48.9999 51 46.9999 51 44.4999V44.3999C51 41.3999 48.9 39.8999 45.6 39.8999H40.5V48.9999H45.8Z" fill="white"/>
<defs>
<linearGradient id="paint0_linear" x1="23.6" y1="73.8053" x2="59.7434" y2="4.3935" gradientUnits="userSpaceOnUse">
<stop  offset="0" stop-color="#AF1DF5"/>
<stop offset="0.2116" stop-color="#BC20E4"/>
<stop offset="0.6282" stop-color="#DD29B8"/>
<stop offset="1" stop-color="#FF318C"/>
</linearGradient>
<linearGradient id="paint1_linear" x1="13.0518" y1="94.9065" x2="56.8625" y2="37.0372" gradientUnits="userSpaceOnUse">
<stop offset="0.1207" stop-color="#6B57FF"/>
<stop offset="0.4014" stop-color="#B74AF7"/>
<stop offset="0.7088" stop-color="#FF318C"/>
<stop offset="0.8648" stop-color="#FF7FB8"/>
</linearGradient>
<linearGradient id="paint2_linear" x1="19.4312" y1="113.054" x2="53.0498" y2="89.7792" gradientUnits="userSpaceOnUse">
<stop offset="0.0892486" stop-color="#6B57FF"/>
<stop offset="0.4021" stop-color="#8253FD"/>
<stop offset="0.4579" stop-color="#8A52FC"/>
<stop offset="0.7051" stop-color="#AB4CF8"/>
<stop offset="0.8412" stop-color="#B74AF7"/>
</linearGradient>
<linearGradient id="paint3_linear" x1="107.283" y1="91.9745" x2="79.2056" y2="25.3368" gradientUnits="userSpaceOnUse">
<stop  offset="0" stop-color="#4335BE"/>
<stop offset="0.1308" stop-color="#5638C7"/>
<stop offset="0.5322" stop-color="#8A42E1"/>
<stop offset="0.8343" stop-color="#AB48F1"/>
<stop offset="1" stop-color="#B74AF7"/>
</linearGradient>
<linearGradient id="paint4_linear" x1="106.762" y1="91.6687" x2="81.7868" y2="32.3935" gradientUnits="userSpaceOnUse">
<stop  offset="0" stop-color="#4335BE"/>
<stop offset="0.2419" stop-color="#663BCF"/>
<stop offset="0.7408" stop-color="#B74AF7"/>
</linearGradient>
<linearGradient id="paint5_linear" x1="92.4535" y1="113.421" x2="52.0941" y2="54.2636" gradientUnits="userSpaceOnUse">
<stop offset="0.016129" stop-color="#6B57FF"/>
<stop offset="0.7829" stop-color="#B74AF7"/>
</linearGradient>
<linearGradient id="paint6_linear" x1="104.962" y1="107.709" x2="75.7516" y2="64.8939" gradientUnits="userSpaceOnUse">
<stop offset="0.016129" stop-color="#6B57FF"/>
<stop offset="0.7829" stop-color="#B74AF7"/>
</linearGradient>
<linearGradient id="paint7_linear" x1="147.864" y1="97.5496" x2="56.6639" y2="54.8641" gradientUnits="userSpaceOnUse">
<stop  offset="0" stop-color="#4335BE"/>
<stop offset="0.2419" stop-color="#663BCF"/>
<stop offset="0.7408" stop-color="#B74AF7"/>
</linearGradient>
<linearGradient id="paint8_linear" x1="97.0183" y1="112.373" x2="57.4184" y2="36.7736" gradientUnits="userSpaceOnUse">
<stop offset="0.016129" stop-color="#6B57FF"/>
<stop offset="0.7829" stop-color="#B74AF7"/>
</linearGradient>
<linearGradient id="paint9_linear" x1="77.4015" y1="120.044" x2="38.4405" y2="62.9363" gradientUnits="userSpaceOnUse">
<stop offset="0.016129" stop-color="#6B57FF"/>
<stop offset="0.6909" stop-color="#B74AF7"/>
</linearGradient>
<linearGradient id="paint10_linear" x1="45.2207" y1="90.6928" x2="64.5389" y2="53.5929" gradientUnits="userSpaceOnUse">
<stop offset="0.016129" stop-color="#6B57FF"/>
<stop offset="0.6969" stop-color="#A329F5"/>
</linearGradient>
<linearGradient id="paint11_linear" x1="55.3639" y1="50.8904" x2="76.321" y2="92.0332" gradientUnits="userSpaceOnUse">
<stop offset="0.016129" stop-color="#6B57FF"/>
<stop offset="0.6969" stop-color="#A329F5"/>
</linearGradient>
<linearGradient id="paint12_linear" x1="30.5026" y1="114.783" x2="64.1858" y2="54.8433" gradientUnits="userSpaceOnUse">
<stop offset="0.0242547" stop-color="#6B57FF"/>
<stop offset="0.263" stop-color="#6B57FF"/>
<stop offset="0.706" stop-color="#B74AF7"/>
<stop offset="0.7659" stop-color="#BC48F0"/>
<stop offset="0.8555" stop-color="#CA44DB"/>
<stop offset="0.9632" stop-color="#E03CBA"/>
<stop offset="1" stop-color="#E939AD"/>
</linearGradient>
<linearGradient id="paint13_linear" x1="53.9327" y1="109.736" x2="70.302" y2="80.6065" gradientUnits="userSpaceOnUse">
<stop offset="0.0455723" stop-color="#6B57FF"/>
<stop offset="0.295" stop-color="#8A52FC"/>
<stop offset="0.5991" stop-color="#AB4CF8"/>
<stop offset="0.7667" stop-color="#B74AF7"/>
</linearGradient>
<linearGradient id="paint14_linear" x1="80.2211" y1="81.6672" x2="66.8496" y2="10.9531" gradientUnits="userSpaceOnUse">
<stop offset="0.016129" stop-color="#6B57FF"/>
<stop offset="0.5665" stop-color="#B74AF7"/>
<stop offset="0.9064" stop-color="#C276FF"/>
</linearGradient>
<linearGradient id="paint15_linear" x1="49.0864" y1="65.5739" x2="74.4203" y2="16.9211" gradientUnits="userSpaceOnUse">
<stop offset="0.016129" stop-color="#6B57FF"/>
<stop offset="0.5974" stop-color="#B74AF7"/>
</linearGradient>
<linearGradient id="paint16_linear" x1="14.5632" y1="50.9658" x2="38.572" y2="7.3942" gradientUnits="userSpaceOnUse">
<stop offset="0.0874352" stop-color="#AF1DF5"/>
<stop offset="0.2329" stop-color="#BC20E4"/>
<stop offset="0.5194" stop-color="#DD29B8"/>
<stop offset="0.7751" stop-color="#FF318C"/>
<stop offset="0.997" stop-color="#FF64B9"/>
</linearGradient>
<linearGradient id="paint17_linear" x1="10.8566" y1="43.6503" x2="25.6609" y2="16.7833" gradientUnits="userSpaceOnUse">
<stop offset="0.00935173" stop-color="#BC20E4"/>
<stop offset="0.4441" stop-color="#D827C0"/>
<stop offset="1" stop-color="#FF318C"/>
</linearGradient>
<linearGradient id="paint18_linear" x1="44.6576" y1="121.617" x2="79.7521" y2="110.42" gradientUnits="userSpaceOnUse">
<stop offset="0.016129" stop-color="#6B57FF"/>
<stop offset="0.6909" stop-color="#B74AF7"/>
<stop offset="0.9772" stop-color="#BD6CF7"/>
</linearGradient>
<linearGradient id="paint19_linear" x1="114.488" y1="65.4019" x2="100.86" y2="70.4162" gradientUnits="userSpaceOnUse">
<stop offset="0.0753552" stop-color="#6B57FF"/>
<stop offset="0.7396" stop-color="#B74AF7"/>
</linearGradient>
<linearGradient id="paint20_linear" x1="91.267" y1="47.1435" x2="92.9384" y2="35.1864" gradientUnits="userSpaceOnUse">
<stop  offset="0" stop-color="#B74AF7"/>
<stop offset="1" stop-color="#C276FF"/>
</linearGradient>
<linearGradient id="paint21_linear" x1="96.7728" y1="102.108" x2="74.043" y2="58.7143" gradientUnits="userSpaceOnUse">
<stop offset="0.016129" stop-color="#6B57FF"/>
<stop offset="0.7829" stop-color="#B74AF7"/>
</linearGradient>
<linearGradient id="paint22_linear" x1="26.1168" y1="22.3158" x2="94.7467" y2="97.8316" gradientUnits="userSpaceOnUse">
<stop  offset="0" stop-color="#562274"/>
<stop offset="0.59375" stop-color="#020202"/>
</linearGradient>
<linearGradient id="paint23_linear" x1="50.0673" y1="112.451" x2="42.7764" y2="25.1576" gradientUnits="userSpaceOnUse">
<stop offset="0.1391" stop-color="#2C083E"/>
<stop offset="0.1711" stop-color="#0E0A25"/>
<stop offset="0.5145" stop-color="#8D1BC7"/>
<stop offset="0.8648" stop-color="#FF45ED"/>
</linearGradient>
<linearGradient id="paint24_linear" x1="70.517" y1="96.0799" x2="54.5763" y2="26.6397" gradientUnits="userSpaceOnUse">
<stop offset="0.0862819" stop-color="#3B0B6E"/>
<stop offset="0.2814" stop-color="#601274"/>
<stop offset="0.7133" stop-color="#BE2482"/>
<stop offset="1" stop-color="#FF318C"/>
</linearGradient>
<linearGradient id="paint25_linear" x1="95.1501" y1="24.9897" x2="102.523" y2="47.1075" gradientUnits="userSpaceOnUse">
<stop offset="0.1893" stop-color="#4335BE"/>
<stop offset="0.5166" stop-color="#2B227A"/>
<stop offset="0.8443" stop-color="#15113C"/>
<stop offset="1" stop-color="#0C0A23"/>
</linearGradient>
<linearGradient id="paint26_linear" x1="104.401" y1="97.3722" x2="79.3021" y2="60.5831" gradientUnits="userSpaceOnUse">
<stop  offset="0" stop-color="#15132A"/>
<stop offset="0.4052" stop-color="#331444"/>
<stop offset="0.9653" stop-color="#9F40D7"/>
</linearGradient>
<linearGradient id="paint27_linear" x1="73.0263" y1="76.0625" x2="63.2279" y2="24.2439" gradientUnits="userSpaceOnUse">
<stop offset="0.016129" stop-color="#6B57FF"/>
<stop offset="0.5665" stop-color="#B74AF7"/>
<stop offset="0.9064" stop-color="#C276FF"/>
</linearGradient>
<linearGradient id="paint28_linear" x1="27.2295" y1="40.0666" x2="36.707" y2="22.8667" gradientUnits="userSpaceOnUse">
<stop offset="0.0874352" stop-color="#FF45ED"/>
<stop offset="0.2127" stop-color="#FF42DC"/>
<stop offset="0.4594" stop-color="#FF38B0"/>
<stop offset="0.6408" stop-color="#FF318C"/>
</linearGradient>
</defs>
</svg>
