<!-- Copyright © 2000–2024 JetBrains s.r.o. -->
<svg width="16" height="16" viewBox="0 0 16 16" xmlns="http://www.w3.org/2000/svg">
  <path fill="#CED0D6" d="M9.458 4.368 7.934 2.397a3.573 3.573 0 0 0-5.051-.626 3.66 3.66 0 0 0-.62 5.101l2.046 2.644.763-.763L3.103 6.21a2.576 2.576 0 0 1 .437-3.59 2.514 2.514 0 0 1 3.554.44l1.6 2.072z"/>
  <path fill="#CED0D6" d="M7.264 6.561 5.992 4.915a.53.53 0 0 0-.748-.093.542.542 0 0 0-.092.755l1.35 1.747zm-.146 1.561.763-.763.663.858-.763.763zM5.689 9.55l-.763.764.663.857.763-.763zm1.281 1.655-.764.763 2.185 2.825a.53.53 0 0 0 .749.093.542.542 0 0 0 .092-.756zm1.427-1.428 2.41 3.118a2.051 2.051 0 0 0 2.9.36 2.101 2.101 0 0 0 .356-2.928l-2.71-3.506-.763.763 2.632 3.405a1.016 1.016 0 0 1-.172 1.417.992.992 0 0 1-1.404-.174L9.16 9.014zm1.577-2.991L9.31 5.93l.763-.763.663.857z"/>
  <path fill="#DB5C5C" d="M14.082 1.157a.538.538 0 1 1 .76.76L1.918 14.844a.538.538 0 0 1-.76-.76z"/>
</svg>
