<!-- Copyright © 2000–2024 JetBrains s.r.o. -->
<svg width="16" height="16" viewBox="0 0 16 16" xmlns="http://www.w3.org/2000/svg">
  <path fill="#DB3B4B" fill-rule="evenodd" d="M14 5.12 10.88 2H5.12L2 5.12v5.76L5.12 14h5.76L14 10.88zm1 6.174V4.706L11.294 1H4.706L1 4.706v6.588L4.706 15h6.588z" clip-rule="evenodd"/>
  <path fill="#DB3B4B" d="M5.148 5.148a.504.504 0 0 0 0 .713L7.287 8l-2.14 2.14a.504.504 0 0 0 .714.712L8 8.713l2.14 2.14a.504.504 0 0 0 .712-.714L8.713 8l2.14-2.14a.504.504 0 0 0-.714-.712L8 7.287l-2.14-2.14a.504.504 0 0 0-.712 0"/>
</svg>
