<svg width="16" height="16" viewBox="0 0 16 16" xmlns="http://www.w3.org/2000/svg">
  <path fill="#6e6e6e" d="M1 1v3.84c.73-.17 1.43-.41 2.11-.71.58.17 1.19.27 1.8.28.02-.02.03-.08.03-.1-.71-.44-2.15-1.04-1.96-1.87.06-.21.21-.37.41-.45.18-.09 1.88.56 2.54.38.02-.04.04-.08.04-.12a5.42 5.42 0 0 1-1.39-.62c1.43-.82 3.78-.07 4.45.43.17.11.31.27.41.45.24.53.37 1.09.38 1.67-.02.19 0 .29-.25.3-.73-.09-1.44-.29-2.12-.58-.04.09-.06.18-.05.28.1.47 1.4.99 1.69 1.05.23.47.32 1 .25 1.52.18-.15.4-.24.64-.23.23 0 .46.08.64.23l.36.3V1zm6.1 5.14s-.07.08-.09.13c.15.74.61 1.37 1.28 1.73H9v-.5c-.71-.35-1.35-.8-1.9-1.36M1.75 11H5V9c0-.33.18-.64.46-.82-.51-.21-.88-.37-.88-.37s-2 2.44-2.82 3.19Z"/>
  <path fill="#40b6e0" d="M13 15.5V14H6v-2h3v.5a1.003 1.003 0 0 0 1.64.77L12.16 12H13v-.7l.48-.4L16 13zm0-5.5-3-2.5V9H6v2h4v1.5z"/>
</svg>
