<svg width="16" height="16" viewBox="0 0 16 16" xmlns="http://www.w3.org/2000/svg">
  <path fill="#548AF7" fill-rule="evenodd" d="M11.354 8.646a.5.5 0 0 0-.708.708l.647.646H8a.5.5 0 0 0 0 1h3.293l-.647.646a.5.5 0 0 0 .708.708l1.5-1.5a.5.5 0 0 0 0-.708l-1.5-1.5m3 3a.5.5 0 0 0-.708.708l.647.646H8a.5.5 0 0 0 0 1h6.293l-.647.646a.5.5 0 0 0 .708.708l1.5-1.5a.5.5 0 0 0 0-.708l-1.5-1.5" clip-rule="evenodd"/>
  <path fill="#CED0D6" d="M2 2v3.84a11.93 11.93 0 0 0 2.113-.715 6.628 6.628 0 0 0 1.797.276c.022-.018.031-.083.034-.101a11.953 11.953 0 0 0-.423-.242c-.74-.41-1.696-.94-1.542-1.63a.71.71 0 0 1 .413-.453c.069-.035.362.04.735.135.598.153 1.4.358 1.803.246a.28.28 0 0 0 .045-.124 5.694 5.694 0 0 1-1.389-.622c1.428-.817 3.776-.068 4.453.431.172.115.313.27.41.453.238.526.369 1.095.383 1.672a3.71 3.71 0 0 0-.005.051c-.014.158-.022.239-.247.246a7.718 7.718 0 0 1-2.12-.578.454.454 0 0 0-.045.28c.102.466 1.401.992 1.693 1.053.228.47.316.997.255 1.517A.964.964 0 0 1 11 7.5c.234 0 .46.082.64.231l.36.3V2z"/>
  <path fill="#CED0D6" d="M8.1 7.145a.29.29 0 0 0-.085.128A2.513 2.513 0 0 0 9.293 9H10v-.5l.002-.014A6.788 6.788 0 0 1 8.1 7.145M6 12H2.749c.828-.751 2.823-3.19 2.823-3.19l.884.373A.982.982 0 0 0 6 10z"/>
</svg>
