<svg width="16" height="16" viewBox="0 0 16 16" xmlns="http://www.w3.org/2000/svg">
  <path fill="#afb1b3" fill-rule="evenodd" d="m5 5.29-1.6 1.6.71.71 1.9-1.9V2.99h-1v2.29Zm1 4.66c-.17.02-.33.05-.5.05-1.24 0-2.37-.5-3.18-1.32S1 6.74 1 5.5s.54-2.45 1.41-3.27C3.22 1.47 4.31 1 5.5 1s2.37.5 3.18 1.32S10 4.26 10 5.5c0 .07-.02.13-.02.2l-1.08.6c.06-.26.1-.52.1-.8 0-.97-.39-1.84-1.03-2.47S6.46 2 5.5 2s-1.84.39-2.47 1.03S2 4.54 2 5.5s.39 1.84 1.03 2.47S4.54 9 5.5 9c.17 0 .34-.03.5-.05z"/>
  <path fill="#b99bf8" fill-rule="evenodd" d="m7.51 8.21 3.99 2.22 3.98-2.22L11.5 6z"/>
  <path fill="#b99bf8" fill-rule="evenodd" d="M11.5 11.57 7 9.07v4.43l4.5 2.5 4.5-2.5V9.07z"/>
</svg>
