<svg width="16" height="16" viewBox="0 0 16 16" fill="none" xmlns="http://www.w3.org/2000/svg">
<path d="M4.5 4.25929C4.5 3.92745 4.19038 3.68072 3.88079 3.80016C2.19555 4.45031 1 6.08556 1 8.00005C1 10.4853 3.01472 12.5001 5.5 12.5001C7.41449 12.5001 9.04974 11.3045 9.69989 9.61926C9.81933 9.30967 9.5726 9.00005 9.24077 9.00005C9.01194 9.00005 8.8139 9.1522 8.72473 9.36294C8.19328 10.6189 6.94954 11.5001 5.5 11.5001C3.567 11.5001 2 9.93305 2 8.00005C2 6.55051 2.88119 5.30678 4.13712 4.77532C4.34785 4.68615 4.5 4.48811 4.5 4.25929Z" fill="#CED0D6"/>
<path d="M10.5 8.00001C11.0523 8.00001 11.5087 7.54893 11.4177 7.00419C10.9975 4.48831 9.0117 2.50252 6.49581 2.08226C5.95107 1.99127 5.5 2.44772 5.5 3.00001L5.50001 7.00001C5.50001 7.55229 5.94773 8.00001 6.50001 8.00001H10.5Z" fill="#472B2B"/>
<path fill-rule="evenodd" clip-rule="evenodd" d="M6.5 3.09983L6.50001 7.00001H10.4002C10.003 5.04165 8.45836 3.49701 6.5 3.09983ZM10.5013 6.99991V6.99991ZM11.4177 7.00419C11.5087 7.54893 11.0523 8.00001 10.5 8.00001H6.50001C5.94773 8.00001 5.50001 7.55229 5.50001 7.00001L5.5 3.00001C5.5 2.44772 5.95107 1.99127 6.49581 2.08226C9.0117 2.50252 10.9975 4.48831 11.4177 7.00419Z" fill="#DB5C5C"/>
</svg>
