<svg width="16" height="16" viewBox="0 0 16 16" xmlns="http://www.w3.org/2000/svg">
  <path fill="#6C707E" d="M6 3a.5.5 0 0 0-1 0v2.293L3.646 6.646a.5.5 0 1 0 .708.708L6 5.707z"/>
  <path fill="#6C707E" fill-rule="evenodd" d="M10 5.5a4.5 4.5 0 1 1-9 0 4.5 4.5 0 0 1 9 0m-1 0a3.5 3.5 0 1 1-7 0 3.5 3.5 0 0 1 7 0" clip-rule="evenodd"/>
  <path fill="#FAF2FF" d="M12 15.5 8.5 14v-4L12 8.5l3.5 1.5v4z"/>
  <path fill="#B153E0" fill-rule="evenodd" d="M11.803 8.04a.5.5 0 0 1 .394 0l3.5 1.5A.5.5 0 0 1 16 10v4a.5.5 0 0 1-.303.46l-3.5 1.5a.5.5 0 0 1-.394 0l-3.5-1.5A.5.5 0 0 1 8 14v-4c0-.2.12-.38.303-.46zM9 10.758v2.912l3 1.286 3-1.286v-2.912l-2.803 1.202a.5.5 0 0 1-.394 0zM14.23 10l-2.23.956L9.77 10 12 9.044z" clip-rule="evenodd"/>
</svg>
