<svg width="16" height="16" viewBox="0 0 16 16" xmlns="http://www.w3.org/2000/svg">
  <path fill="#6e6e6e" fill-rule="evenodd" d="m6 5.71-1.9 1.9-.71-.71 1.6-1.6V3.01h1v2.71ZM2 5.5c0-.97.39-1.84 1.03-2.47S4.54 2 5.5 2s1.84.39 2.47 1.03S9 4.54 9 5.5s-.39 1.84-1.03 2.47S6.46 9 5.5 9s-1.84-.39-2.47-1.03S2 6.46 2 5.5m5.66 3.92 1.07-1.07s.02-.01.03-.02c-.02-.28.06-.57.28-.79l.74-.74c.12-.41.21-.84.21-1.3 0-1.24-.5-2.37-1.32-3.18S6.73 1 5.49 1 3.2 1.47 2.4 2.23C1.53 3.05.99 4.21.99 5.5s.5 2.37 1.32 3.18S4.25 10 5.49 10c.79 0 1.52-.22 2.16-.58Z"/>
  <path fill="#62b543" fill-rule="evenodd" d="m9.75 8.25 2.63-2.63c.41-.41.96-.62 1.5-.62s1.09.21 1.5.62.62.96.62 1.5-.21 1.09-.62 1.5l-2.63 2.63z"/>
  <path fill="#6e6e6e" fill-rule="evenodd" d="m11.36 10.97-3.18 3.19-2.15.81.56-1.9 3.44-3.43-.59-.58L6 12.5l-1 3 .5.5 3-1 3.44-3.44z"/>
</svg>
