<svg width="16" height="16" viewBox="0 0 16 16" xmlns="http://www.w3.org/2000/svg">
  <path fill="#afb1b3" fill-rule="evenodd" d="m5 5.29-1.6 1.6.71.71 1.9-1.9V2.99h-1v2.29Zm0 4.66c-1.04-.12-1.98-.56-2.68-1.27C1.51 7.87 1 6.74 1 5.5s.54-2.45 1.41-3.27C3.22 1.47 4.31 1 5.5 1s2.37.5 3.18 1.32S10 4.26 10 5.5c0 .36-.05.7-.13 1.03-.1.01-.2.02-.3.07-.35.16-.58.52-.58.91v.5H7.93l.03-.03c.63-.63 1.03-1.51 1.03-2.47S8.6 3.67 7.96 3.04 6.45 2.01 5.49 2.01s-1.84.39-2.47 1.03-1.03 1.51-1.03 2.47.39 1.84 1.03 2.47c.52.52 1.22.87 1.98.98 0 .02-.01.03-.01.05v.95Z"/>
  <path fill="#3592c4" fill-rule="evenodd" d="m13 10-3-2.5V9H6v2h4v1.5zm0 5.5V14H6v-2h3v.5c0 .39.23.74.58.9.14.06.28.1.42.1.23 0 .46-.08.64-.23L12.16 12H13v-.7l.48-.4L16 13z"/>
</svg>
