<svg width="16" height="16" viewBox="0 0 16 16" xmlns="http://www.w3.org/2000/svg">
  <path fill="#6C707E" d="M6 3a.5.5 0 0 0-1 0v2.293L3.646 6.646a.5.5 0 1 0 .708.708L6 5.707z"/>
  <path fill="#6C707E" fill-rule="evenodd" d="M10 5.5a4.5 4.5 0 1 1-9 0 4.5 4.5 0 0 1 9 0m-1 0a3.5 3.5 0 1 1-7 0 3.5 3.5 0 0 1 7 0" clip-rule="evenodd"/>
  <path fill="#208A3C" fill-rule="evenodd" d="M14.704 7.793a.99.99 0 0 0-1.41.003l-.587.587L14 9.675l.707-.706a.828.828 0 0 0 0-1.173l-.004-.003m-.308 3.693a.5.5 0 0 0 .708-.707l-.397-.396.707-.707c.714-.715.715-1.87.001-2.586a1.99 1.99 0 0 0-2.828-.001L12 7.675l-.396-.396a.5.5 0 1 0-.707.707l3.5 3.5M11.105 9.28a.5.5 0 0 1 0 .707l-2.667 2.667-.646 1.939 1.939-.647 2.666-2.666a.5.5 0 1 1 .708.707l-2.75 2.75a.5.5 0 0 1-.196.12l-3 1a.5.5 0 0 1-.632-.632l1-3a.5.5 0 0 1 .12-.195l2.75-2.75a.5.5 0 0 1 .708 0" clip-rule="evenodd"/>
</svg>
