<svg width="16" height="16" viewBox="0 0 16 16" xmlns="http://www.w3.org/2000/svg">
  <path fill="transparent" fill-rule="evenodd" d="M0 16h16V0H0z"/>
  <path fill="#6e6e6e" fill-rule="evenodd" d="M6 8.95c-.16.02-.33.05-.5.05-.97 0-1.84-.39-2.47-1.03C2.4 7.34 2 6.46 2 5.5s.39-1.84 1.03-2.47S4.54 2 5.5 2s1.84.39 2.47 1.03S9 4.54 9 5.5c0 .54-.13 1.04-.35 1.5h1.08c.17-.47.27-.97.27-1.5 0-1.24-.5-2.37-1.32-3.18S6.74 1 5.5 1s-2.29.47-3.09 1.23C1.54 3.05 1 4.21 1 5.5s.5 2.37 1.32 3.18C3.13 9.49 4.26 10 5.5 10c.17 0 .33-.03.5-.05zM5 3h1v2.71l-1.9 1.9-.71-.71 1.6-1.6V3.01Z"/>
  <path fill="#f4af3d" fill-rule="evenodd" d="M7 10h9V8H7zm0 3h9v-2H7zm0 3h9v-2H7z"/>
</svg>
