<svg width="16" height="16" viewBox="0 0 16 16" xmlns="http://www.w3.org/2000/svg">
  <path fill="#6C707E" d="M6 3a.5.5 0 0 0-1 0v2.293L3.646 6.646a.5.5 0 1 0 .708.708L6 5.707z"/>
  <path fill="#6C707E" fill-rule="evenodd" d="M10 5.5a4.5 4.5 0 1 1-9 0 4.5 4.5 0 0 1 9 0m-1 0a3.5 3.5 0 1 1-7 0 3.5 3.5 0 0 1 7 0" clip-rule="evenodd"/>
  <path fill="#E66D17" fill-rule="evenodd" d="M8 10.5a.5.5 0 0 1 .5-.5h6a.5.5 0 0 1 0 1h-6a.5.5 0 0 1-.5-.5m0 2a.5.5 0 0 1 .5-.5h6a.5.5 0 0 1 0 1h-6a.5.5 0 0 1-.5-.5m0 2a.5.5 0 0 1 .5-.5h6a.5.5 0 0 1 0 1h-6a.5.5 0 0 1-.5-.5" clip-rule="evenodd"/>
</svg>
