<svg width="16" height="16" viewBox="0 0 16 16" xmlns="http://www.w3.org/2000/svg">
  <path fill="#6C707E" fill-rule="evenodd" d="M7 3.5a.5.5 0 0 1 .5.5v3a.5.5 0 0 1-.146.354l-2 2a.5.5 0 1 1-.708-.708L6.5 6.793V4a.5.5 0 0 1 .5-.5" clip-rule="evenodd"/>
  <path fill="#3574F0" fill-rule="evenodd" d="M11 10.5a.5.5 0 0 1 .5-.5h4a.5.5 0 0 1 .5.5v4a.5.5 0 0 1-1 0v-2.793l-4.146 4.147a.5.5 0 0 1-.708-.708L14.293 11H11.5a.5.5 0 0 1-.5-.5" clip-rule="evenodd"/>
  <path fill="#6C707E" d="M2.5 7a4.5 4.5 0 1 1 8.486 2.09c.16-.058.333-.09.514-.09h.625a5.5 5.5 0 1 0-1.825 2.4 1.494 1.494 0 0 1-.292-1.053A4.5 4.5 0 0 1 2.5 7"/>
</svg>
