<!-- Copyright © 2000–2024 JetBrains s.r.o. -->
<svg width="16" height="16" viewBox="0 0 16 16" xmlns="http://www.w3.org/2000/svg">
  <path fill="none" stroke="#548af7" stroke-linecap="round" stroke-miterlimit="10" d="M8.5 10.5h4m-1.25-1.25 1.25 1.25-1.25 1.25M8.5 13.5h6.25m-1.25-1.25 1.25 1.25-1.25 1.25"/>
  <path fill="#f0f1f2" d="M7 10.5C7 9.67 7.67 9 8.5 9h.65l-.69-.4-1.44.83c-.06.04-.15-.01-.15-.09V6.89c0-.07.04-.14.1-.17l2.12-1.23c.06-.04.15.01.15.09v1.66l1.24.72c.16-.09.33-.16.51-.19V3.39L6.78.95v2.02l1.44.83c.06.04.07.14 0 .17L6.1 5.2c-.06.04-.14.03-.2 0L3.78 3.97c-.06-.04-.07-.14 0-.17l1.44-.83V.95L1 3.39v4.87l1.75-1.01V5.59c0-.07.09-.13.15-.09l2.12 1.23c.06.04.1.1.1.17v2.45c0 .07-.08.13-.15.09l-1.44-.83-1.75 1.01L6 12.05l1.25-.72c-.16-.24-.25-.52-.25-.83"/>
</svg>
