<!-- Copyright © 2000–2024 JetBrains s.r.o. -->
<svg width="16" height="16" viewBox="0 0 16 16" xmlns="http://www.w3.org/2000/svg">
  <path fill="#e6e7e8" d="m8.47 8.6.69.4H7.78zM7 9.43c-.06.02-.13-.02-.12-.09V6.89c0-.07.04-.14.1-.17L9.1 5.49c.06-.04.15.01.15.09v1.66l1.31.76H11V3.39L6.78.95v2.02l1.44.83c.06.04.07.14 0 .17L6.1 5.2c-.06.04-.14.03-.2 0L3.78 3.97c-.06-.04-.07-.14 0-.17l1.44-.83V.95L1 3.39v4.87l1.75-1.01V5.59c0-.07.09-.13.15-.09l2.12 1.23c.06.04.1.1.1.17v2.45c0 .07-.08.13-.15.09l-1.44-.83-1.75 1.01L6 12.05l1-.58z"/>
  <path fill="#3592c4" d="M13 15v-1H8v-1h5v-1l2 1.5zm0-4.5L11 9v1H8v1h3v1z"/>
</svg>
