<svg width="64" height="64" viewBox="0 0 64 64" fill="none" xmlns="http://www.w3.org/2000/svg">
<path d="M56.5 7.5H7.5V56.5H56.5V7.5Z" fill="url(#paint0_linear)"/>
<path d="M47.5999 16.4H16.3999V47.6H47.5999V16.4V16.4Z" fill="url(#paint1_linear)"/>
<path d="M52.2999 11.7H11.7V52.2999H52.2999V11.7Z" fill="url(#paint2_linear)"/>
<path d="M16.4 16.4H47.6L56.5 7.5H7.5L16.4 16.4Z" fill="url(#paint3_linear)"/>
<path d="M47.6 47.6H16.4L7.5 56.5H56.5L47.6 47.6Z" fill="url(#paint4_linear)"/>
<path d="M47.6001 16.4V47.6L56.5001 56.5V7.5L47.6001 16.4Z" fill="url(#paint5_linear)"/>
<path d="M16.4 47.6V16.4L7.5 7.5V56.5L16.4 47.6Z" fill="url(#paint6_linear)"/>
<path d="M11.7 11.7H52.3L56.5 7.5H7.5L11.7 11.7Z" fill="url(#paint7_linear)"/>
<path d="M11.7 11.7H52.3L56.5 7.5H7.5L11.7 11.7Z" fill="url(#paint8_linear)"/>
<path d="M11.7 11.7H52.3L56.5 7.5H7.5L11.7 11.7Z" fill="url(#paint9_linear)"/>
<path d="M52.2999 11.7H11.7L16.4 16.4H47.5999L52.2999 11.7Z" fill="url(#paint10_linear)"/>
<path d="M52.3 52.3H11.7L7.5 56.5H56.5L52.3 52.3Z" fill="url(#paint11_linear)"/>
<path d="M52.3 52.3H11.7L7.5 56.5H56.5L52.3 52.3Z" fill="url(#paint12_linear)"/>
<path d="M52.3 52.3H11.7L7.5 56.5H56.5L52.3 52.3Z" fill="url(#paint13_linear)"/>
<path d="M52.3 52.3L56.5 56.5V7.5L52.3 11.7V52.3Z" fill="url(#paint14_linear)"/>
<path d="M52.3 52.3L56.5 56.5V7.5L52.3 11.7V52.3Z" fill="url(#paint15_linear)"/>
<path d="M52.3 52.3L56.5 56.5V7.5L52.3 11.7V52.3Z" fill="url(#paint16_linear)"/>
<path d="M52.3 52.3L56.5 56.5V7.5L52.3 11.7V52.3Z" fill="url(#paint17_linear)"/>
<path d="M11.7 52.3V11.7L7.5 7.5V56.5L11.7 52.3Z" fill="url(#paint18_linear)"/>
<path d="M11.7 52.3V11.7L7.5 7.5V56.5L11.7 52.3Z" fill="url(#paint19_linear)"/>
<path d="M11.7 11.7V52.2999L16.4 47.5999V16.4L11.7 11.7Z" fill="url(#paint20_linear)"/>
<path d="M50 14H14V50H50V14Z" fill="url(#paint21_linear)"/>
<path d="M31.9999 43.2H18.3999V45.4H31.9999V43.2Z" fill="white"/>
<path d="M25.1999 20.9999V18.3999H18.3999V20.9999H20.3999V29.3999H18.3999V31.9999H25.1999V29.3999H23.3999V20.9999H25.1999Z" fill="white"/>
<path d="M31.7645 32.2C30.7498 32.2 29.8366 31.9971 29.1263 31.5912C28.416 31.1853 27.8072 30.678 27.2998 30.1706L29.2277 28.0397C29.6336 28.4456 30.0395 28.8515 30.4454 29.0544C30.8513 29.2574 31.2572 29.4603 31.7645 29.4603C32.3733 29.4603 32.7792 29.2574 33.0836 28.953C33.388 28.5471 33.591 28.0397 33.591 27.228V18.4H36.6351V27.3294C36.6351 28.1412 36.5336 28.8515 36.3307 29.4603C36.1277 30.0691 35.8233 30.5765 35.4175 30.9824C35.0116 31.3883 34.5042 31.6927 33.8954 31.8956C33.1851 32.0986 32.4748 32.2 31.7645 32.2Z" fill="white"/>
<defs>
<linearGradient id="paint0_linear" x1="61.9777" y1="61.9771" x2="-7.2377" y2="-7.2378" gradientUnits="userSpaceOnUse">
<stop offset="0.3475" stop-color="#087CFA"/>
<stop offset="0.8562" stop-color="#FE2857"/>
<stop offset="1" stop-color="#FE2857"/>
</linearGradient>
<linearGradient id="paint1_linear" x1="51.0766" y1="51.0762" x2="7.0304" y2="7.03032" gradientUnits="userSpaceOnUse">
<stop offset="0.3475" stop-color="#087CFA"/>
<stop offset="0.8562" stop-color="#FE2857"/>
<stop offset="1" stop-color="#FE2857"/>
</linearGradient>
<linearGradient id="paint2_linear" x1="56.8324" y1="56.8321" x2="-0.50325" y2="-0.503447" gradientUnits="userSpaceOnUse">
<stop  offset="0" stop-color="#087CFA"/>
<stop offset="0.2816" stop-color="#0855FA"/>
<stop offset="0.7644" stop-color="#E0326B"/>
<stop offset="0.7721" stop-color="#FE2857"/>
<stop offset="1" stop-color="#FE2857"/>
</linearGradient>
<linearGradient id="paint3_linear" x1="60.0213" y1="21.3972" x2="9.278" y2="1.0655" gradientUnits="userSpaceOnUse">
<stop offset="0.3475" stop-color="#087CFA"/>
<stop offset="0.7698" stop-color="#F01A72"/>
<stop offset="0.9872" stop-color="#FE2857"/>
</linearGradient>
<linearGradient id="paint4_linear" x1="62.0554" y1="57.8473" x2="16.4093" y2="50.1728" gradientUnits="userSpaceOnUse">
<stop offset="0.2513" stop-color="#087CFA" stop-opacity="0.9703"/>
<stop offset="0.5721" stop-color="#087CFA"/>
<stop offset="0.8921" stop-color="#087CFA" stop-opacity="0.5"/>
</linearGradient>
<linearGradient id="paint5_linear" x1="51.4718" y1="8.461" x2="52.9609" y2="58.0015" gradientUnits="userSpaceOnUse">
<stop offset="0.018393" stop-color="#429EFA"/>
<stop offset="0.518" stop-color="#087CFA"/>
<stop offset="1" stop-color="#965CF3" stop-opacity="0.9769"/>
</linearGradient>
<linearGradient id="paint6_linear" x1="13.9891" y1="52.8775" x2="8.491" y2="8.4915" gradientUnits="userSpaceOnUse">
<stop offset="0.323" stop-color="#087CFA"/>
<stop offset="0.7201" stop-color="#DF0373"/>
<stop offset="1" stop-color="#FE2857"/>
</linearGradient>
<linearGradient id="paint7_linear" x1="30.0189" y1="9.5055" x2="18.1062" y2="19.0127" gradientUnits="userSpaceOnUse">
<stop offset="0.1018" stop-color="#FF00BB" stop-opacity="0"/>
<stop offset="0.8133" stop-color="#FCBD36"/>
<stop offset="1" stop-color="white" stop-opacity="0.9"/>
</linearGradient>
<linearGradient id="paint8_linear" x1="57.2729" y1="13.4091" x2="41.2366" y2="10.7746" gradientUnits="userSpaceOnUse">
<stop offset="0.018393" stop-color="#00FFFA"/>
<stop offset="0.8562" stop-color="#07C3F2" stop-opacity="0"/>
</linearGradient>
<linearGradient id="paint9_linear" x1="32.7253" y1="1.8778" x2="31.792" y2="9.1111" gradientUnits="userSpaceOnUse">
<stop offset="0.2032" stop-color="#087CFA"/>
<stop offset="1" stop-color="#6D6E71" stop-opacity="0"/>
</linearGradient>
<linearGradient id="paint10_linear" x1="46.8144" y1="7.87695" x2="21.0418" y2="17.1551" gradientUnits="userSpaceOnUse">
<stop offset="0.1744" stop-color="#0861FA"/>
<stop offset="0.723" stop-color="#0855FA" stop-opacity="0"/>
</linearGradient>
<linearGradient id="paint11_linear" x1="61.7355" y1="59.7502" x2="16.0894" y2="52.0757" gradientUnits="userSpaceOnUse">
<stop  offset="0" stop-color="#434FCF" stop-opacity="0"/>
<stop offset="1" stop-color="#1B6EEC"/>
</linearGradient>
<linearGradient id="paint12_linear" x1="31.9999" y1="49.4135" x2="31.9999" y2="55.3896" gradientUnits="userSpaceOnUse">
<stop offset="0.018393" stop-color="#42FFFA"/>
<stop offset="0.8562" stop-color="#07C3F2" stop-opacity="0"/>
</linearGradient>
<linearGradient id="paint13_linear" x1="54.4831" y1="46.0818" x2="40.165" y2="51.9236" gradientUnits="userSpaceOnUse">
<stop offset="0.018393" stop-color="#FF39FF" stop-opacity="0.5"/>
<stop offset="0.8562" stop-color="#FF318C" stop-opacity="0"/>
</linearGradient>
<linearGradient id="paint14_linear" x1="53.7509" y1="8.3925" x2="55.2399" y2="57.9329" gradientUnits="userSpaceOnUse">
<stop offset="0.018393" stop-color="#085EFA"/>
<stop offset="0.8562" stop-color="#FF45ED" stop-opacity="0"/>
</linearGradient>
<linearGradient id="paint15_linear" x1="46.8449" y1="31.5755" x2="57.2685" y2="32.0337" gradientUnits="userSpaceOnUse">
<stop offset="0.018393" stop-color="#42FFFA"/>
<stop offset="0.8562" stop-color="#07C3F2" stop-opacity="0"/>
</linearGradient>
<linearGradient id="paint16_linear" x1="38.3836" y1="0.757699" x2="59.3452" y2="38.901" gradientUnits="userSpaceOnUse">
<stop offset="0.018393" stop-color="#42FFFA"/>
<stop offset="0.8562" stop-color="#07C3F2" stop-opacity="0"/>
</linearGradient>
<linearGradient id="paint17_linear" x1="45.6619" y1="9.327" x2="52.7637" y2="26.0505" gradientUnits="userSpaceOnUse">
<stop offset="0.018393" stop-color="#42FFFA" stop-opacity="0.5"/>
<stop offset="0.8562" stop-color="#07C3F2" stop-opacity="0"/>
</linearGradient>
<linearGradient id="paint18_linear" x1="6.5092" y1="42.4089" x2="14.2982" y2="10.9092" gradientUnits="userSpaceOnUse">
<stop offset="0.4995" stop-color="#FF318C" stop-opacity="0"/>
<stop offset="0.9613" stop-color="#FCBD36"/>
</linearGradient>
<linearGradient id="paint19_linear" x1="-2.2583" y1="53.4936" x2="8.7084" y2="31.6771" gradientUnits="userSpaceOnUse">
<stop offset="0.00131053" stop-color="#5AFFFA" stop-opacity="0.5"/>
<stop offset="0.9231" stop-color="#07C3F2" stop-opacity="0"/>
</linearGradient>
<linearGradient id="paint20_linear" x1="7.40365" y1="34.4008" x2="17.2545" y2="28.9026" gradientUnits="userSpaceOnUse">
<stop offset="0.018393" stop-color="#0855FA"/>
<stop offset="0.723" stop-color="#0855FA" stop-opacity="0"/>
</linearGradient>
<linearGradient id="paint21_linear" x1="14.0548" y1="14.0548" x2="45.5979" y2="45.5979" gradientUnits="userSpaceOnUse">
<stop offset="0.1196" stop-color="#5A044A"/>
<stop offset="0.3733" stop-color="#39032F"/>
<stop offset="0.7299" stop-color="#10010D"/>
<stop offset="0.9138"/>
</linearGradient>
</defs>
</svg>
