<svg width="16" height="16" viewBox="0 0 16 16" fill="none" xmlns="http://www.w3.org/2000/svg">
<rect x="2.5" y="2.5" width="11" height="11" rx="1.5" fill="#402929" stroke="#DB5C5C"/>
<path fill-rule="evenodd" clip-rule="evenodd" d="M7.9918 11C6.22951 11 5 9.64917 5 8.01657V8C5 6.3674 6.2459 5 8.0082 5C9.77049 5 11 6.35083 11 7.98343V8C11 9.6326 9.7541 11 7.9918 11ZM8.0082 10.0552C9.14754 10.0552 9.94262 9.14365 9.94262 8.01657V8C9.94262 6.87293 9.13115 5.94475 7.9918 5.94475C6.85246 5.94475 6.05738 6.85635 6.05738 7.98343V8C6.05738 9.12707 6.86885 10.0552 8.0082 10.0552Z" fill="#DB5C5C"/>
<path d="M8.0001 10.15C8.3656 10.15 8.69285 10.0593 8.98185 9.878C9.27368 9.69667 9.50176 9.4445 9.6661 9.1215C9.83326 8.7985 9.91685 8.433 9.91685 8.025C9.91685 7.61417 9.83468 7.24867 9.67035 6.9285C9.50885 6.6055 9.28218 6.35333 8.99035 6.172C8.69851 5.99067 8.36843 5.9 8.0001 5.9C7.63176 5.9 7.30168 5.99067 7.00985 6.172C6.71801 6.35333 6.48851 6.6055 6.32135 6.9285C6.15701 7.2515 6.07485 7.617 6.07485 8.025C6.07485 8.433 6.15701 8.7985 6.32135 9.1215C6.48851 9.4445 6.71801 9.69667 7.00985 9.878C7.30168 10.0593 7.63176 10.15 8.0001 10.15ZM5.00385 8.025C5.00385 7.447 5.13418 6.92425 5.39485 6.45675C5.65551 5.98642 6.01393 5.61808 6.4701 5.35175C6.9291 5.08258 7.4391 4.948 8.0001 4.948C8.55826 4.948 9.06401 5.08258 9.51735 5.35175C9.97351 5.61808 10.3319 5.98642 10.5926 6.45675C10.8561 6.92425 10.9878 7.447 10.9878 8.025C10.9878 8.603 10.8561 9.12717 10.5926 9.5975C10.3319 10.065 9.97351 10.4333 9.51735 10.7025C9.06401 10.9688 8.55826 11.102 8.0001 11.102C7.4391 11.102 6.9291 10.9688 6.4701 10.7025C6.01393 10.4333 5.65551 10.065 5.39485 9.5975C5.13418 9.12717 5.00385 8.603 5.00385 8.025Z" fill="#DB5C5C"/>
</svg>
