<svg width="16" height="16" viewBox="0 0 16 16" fill="none" xmlns="http://www.w3.org/2000/svg">
<rect x="2.5" y="2.5" width="11" height="11" rx="5.5" fill="#402929" stroke="#DB5C5C"/>
<path d="M5.99902 4.97998H8.51882C8.92589 4.97998 9.28279 5.05427 9.58952 5.20284C9.89912 5.35141 10.1371 5.56284 10.3033 5.83712C10.4725 6.11141 10.557 6.42855 10.557 6.78855C10.557 7.15141 10.471 7.46998 10.299 7.74427C10.1299 8.01855 9.88909 8.23141 9.57662 8.38284C9.26416 8.53427 8.90009 8.60998 8.48442 8.60998H6.97942V10.98H5.99902V4.97998ZM8.47582 7.76569C8.68796 7.76569 8.87429 7.72712 9.03482 7.64998C9.19536 7.56998 9.31862 7.45712 9.40462 7.31141C9.49062 7.16284 9.53362 6.98998 9.53362 6.79284C9.53362 6.59569 9.49062 6.42427 9.40462 6.27855C9.31862 6.13284 9.19536 6.02141 9.03482 5.94427C8.87429 5.86427 8.68796 5.82427 8.47582 5.82427H6.97942V7.76569H8.47582Z" fill="#DB5C5C"/>
</svg>
