<svg width="16" height="16" viewBox="0 0 16 16" fill="none" xmlns="http://www.w3.org/2000/svg">
<rect x="2.5" y="2.5" width="11" height="11" rx="1.5" fill="#45322B" stroke="#C77D55"/>
<path d="M7.84935 11.72C7.45935 11.72 7.10101 11.6583 6.77435 11.535C6.44768 11.415 6.17768 11.2433 5.96435 11.02C5.75101 10.8 5.61768 10.545 5.56435 10.255H6.52935C6.59601 10.395 6.69435 10.5133 6.82435 10.61C6.95435 10.7067 7.10601 10.78 7.27935 10.83C7.45268 10.88 7.63268 10.905 7.81935 10.905C8.11935 10.905 8.38101 10.8433 8.60435 10.72C8.83101 10.6 9.00435 10.43 9.12435 10.21C9.24768 9.99333 9.30935 9.74166 9.30935 9.455V9.24L9.34935 7.77999L9.76435 7.31C9.75768 7.76 9.66101 8.16 9.47435 8.51C9.28768 8.85666 9.03101 9.12666 8.70435 9.31999C8.38101 9.51333 8.01435 9.60999 7.60435 9.60999C7.17768 9.60999 6.78935 9.50666 6.43935 9.3C6.09268 9.09 5.82101 8.80166 5.62435 8.43499C5.42768 8.06833 5.32935 7.65333 5.32935 7.18999C5.32935 6.72999 5.42768 6.31499 5.62435 5.94499C5.82101 5.57499 6.09268 5.285 6.43935 5.075C6.78935 4.86499 7.17768 4.75999 7.60435 4.75999C8.01435 4.75999 8.38101 4.85833 8.70435 5.055C9.03101 5.25166 9.28768 5.52666 9.47435 5.87999C9.66101 6.22999 9.75768 6.63166 9.76435 7.085L9.34935 6.665V4.87999H10.3043L10.2893 9.455C10.2893 9.89833 10.1877 10.2917 9.98435 10.635C9.78101 10.9817 9.49435 11.2483 9.12435 11.435C8.75435 11.625 8.32935 11.72 7.84935 11.72ZM7.82935 8.76999C8.10935 8.76999 8.36101 8.70166 8.58435 8.56499C8.81101 8.42833 8.98935 8.24 9.11935 8C9.25268 7.75666 9.31935 7.48666 9.31935 7.18999C9.31935 6.88999 9.25268 6.61999 9.11935 6.37999C8.98935 6.13999 8.81101 5.95166 8.58435 5.815C8.36101 5.675 8.10935 5.60499 7.82935 5.60499C7.54601 5.60499 7.29101 5.675 7.06435 5.815C6.83768 5.95166 6.66101 6.13999 6.53435 6.37999C6.40768 6.61999 6.34435 6.88999 6.34435 7.18999C6.34435 7.48666 6.40768 7.75666 6.53435 8C6.66101 8.24 6.83768 8.42833 7.06435 8.56499C7.29101 8.70166 7.54601 8.76999 7.82935 8.76999Z" fill="#C77D55"/>
</svg>
