<svg width="12" height="12" viewBox="0 0 12 12" fill="none" xmlns="http://www.w3.org/2000/svg">
<path fill-rule="evenodd" clip-rule="evenodd" d="M7.5 10C7.22386 10 7 10.2239 7 10.5C7 10.7761 7.22386 11 7.5 11H11V7.5C11 7.22386 10.7761 7 10.5 7C10.2239 7 10 7.22386 10 7.5V9.29289L2.70711 2H4.5C4.77614 2 5 1.77614 5 1.5C5 1.22386 4.77614 1 4.5 1H1V4.49998C1 4.77613 1.22386 4.99998 1.5 4.99998C1.77614 4.99998 2 4.77613 2 4.49998V2.70711L9.29289 10H7.5Z" fill="#3574F0"/>
<path d="M5.29289 7.41421L2.70711 10H4.5C4.77614 10 5 10.2239 5 10.5C5 10.7761 4.77614 11 4.5 11H1V7.5C1 7.22386 1.22386 7 1.5 7C1.77614 7 2 7.22386 2 7.5V9.29289L4.58579 6.70711L5.29289 7.41421Z" fill="#5FB865"/>
<path d="M7.41421 5.29289L10 2.70711V4.49998C10 4.77613 10.2239 4.99998 10.5 4.99998C10.7761 4.99998 11 4.77613 11 4.49998V1H7.5C7.22386 1 7 1.22386 7 1.5C7 1.77614 7.22386 2 7.5 2H9.29289L6.70711 4.58579L7.41421 5.29289Z" fill="#5FB865"/>
</svg>
