<svg width="13" height="13" viewBox="0 0 13 13" fill="none" xmlns="http://www.w3.org/2000/svg">
    <path fill-rule="evenodd" clip-rule="evenodd"
          d="M10.8734 3.8475V5.58566L12 5.66713V4.19151L10.8734 3.8475ZM11.1356 4.19151V5.19446L11.8 5.35V4.4L11.1356 4.19151Z"
          fill="#AFB1B3"/>
    <path d="M9.35303 4.08287V5.67619L10.8734 5.58566V3.8475L9.35303 4.08287Z" fill="#AFB1B3"/>
    <path d="M2.1174 3.04179L1 3.39485V5.7124L2.1174 5.62187V3.04179Z" fill="#AFB1B3"/>
    <path fill-rule="evenodd" clip-rule="evenodd"
          d="M3.24696 3.62032L2.5174 3.50805V5.24484L3.24696 5.28802V3.62032ZM3.64696 3.27716L2.1174 3.04179V5.62187L3.64696 5.7124V3.27716Z"
          fill="#AFB1B3"/>
    <path fill-rule="evenodd" clip-rule="evenodd"
          d="M12 6.5L6.50458 6.54526V9.75905L12 8.35714V6.5ZM11.6 6.90331L6.90458 6.94198V9.24419L11.6 8.04637V6.90331Z" fill="#AFB1B3"/>
    <path d="M1 6.5V8.35714L6.50461 9.75904V6.54526L1 6.5Z" fill="#AFB1B3"/>
    <path fill-rule="evenodd" clip-rule="evenodd"
          d="M6.50458 0V5.20543L8.12573 5.35028V0.787604L6.50458 0ZM6.90458 0.63904V4.83958L7.72573 4.91295V1.03798L6.90458 0.63904Z"
          fill="#AFB1B3"/>
    <path d="M6.50461 0L4.8743 0.80571V5.35933L6.50461 5.20543V0Z" fill="#AFB1B3"/>
    <path fill-rule="evenodd" clip-rule="evenodd"
          d="M8.11657 10.6281L6.50458 11.2347V13L8.11657 12.2214V10.6281ZM7.71657 11.206L6.90458 11.5115V12.3626L7.71657 11.9704V11.206Z"
          fill="#AFB1B3"/>
    <path d="M4.89258 10.6281V12.2214L6.50457 13V11.2347L4.89258 10.6281Z" fill="#AFB1B3"/>
</svg>
