<svg width="60" height="60" viewBox="0 0 60 60" xmlns="http://www.w3.org/2000/svg">
  <path fill="#4066e0" d="M5 5v50h50V5H5Zm8.5 31.212c-.868 0-1.466-.655-1.466-1.523 0-.888.617-1.524 1.466-1.524.868 0 1.466.617 1.466 1.524 0 .868-.579 1.523-1.466 1.523ZM27.3 36h-2.45l-3.395-5.709c-.83-1.427-1.698-3.028-2.334-4.494l-.057.019c.097 1.678.116 3.395.116 5.536V36H17V23h2.7l3.356 5.574a35.712 35.712 0 0 1 2.218 4.359h.038c-.154-1.736-.212-3.414-.212-5.4V23h2.199v13Zm9.55 0H29V23h7.561v1.948h-5.188v3.356h4.899v1.929h-4.899v3.819h5.478V36Zm10.559-11.013h-3.742V36h-2.372V24.987h-3.703V23h9.818v1.987Z" opacity=".7"/>
</svg>
