<svg width="60" height="60" viewBox="0 0 60 60" xmlns="http://www.w3.org/2000/svg">
  <path fill="#b99bf8" d="M30 4c-7.18 0-13.68 2.91-18.385 7.615l13.44 13.44V19H27v8l2 2V19h8.644v1.625h-6.578v4.74h6.222v1.602h-6.222v4.099l1.309 1.309H38V34h-4l14.385 14.385A25.919 25.919 0 0 0 56 30C56 15.641 44.359 4 30 4Zm15.421 16.647V34h-1.863V20.647h-4.34V19h10.563v1.647H45.42Z"/>
  <path fill="#b99bf8" d="M31.066 30.963v1.412h1.407l-1.407-1.412zm-2.569 9.916c-.87 0-1.22.839-1.22 1.649 0 .939.46 1.649 1.209 1.649.7 0 1.189-.689 1.189-1.669 0-.759-.34-1.629-1.179-1.629Z" opacity=".7"/>
  <path fill="#b99bf8" d="M29 34v-5.087l-2-2.004V34h-2.087l-5.075-7.611c-1.115-1.669-2.182-3.383-2.988-5.007l-.071.022c.119 1.892.166 3.694.166 6.187v6.41H15v-15h2.253l5.123 7.589c1.186 1.758 2.111 3.338 2.87 4.874l.047-.022c-.19-2.003-.237-3.828-.237-6.165v-.341l-13.44-13.32a25.919 25.919 0 0 0-7.615 18.385c0 14.359 11.641 26 26 26 7.18 0 13.68-2.91 18.385-7.615L34.099 34.001h-5.098Zm-17.017.587c-.882 0-1.487-.68-1.487-1.587 0-.932.63-1.588 1.512-1.588s1.487.655 1.487 1.588c0 .907-.58 1.587-1.512 1.587Zm11.853 9.45c.499 0 1.02-.1 1.339-.25l.2.97c-.29.15-.93.3-1.739.3-2.139 0-3.438-1.339-3.438-3.388 0-2.219 1.54-3.558 3.599-3.558.81 0 1.389.17 1.639.3l-.27.979c-.32-.14-.76-.26-1.319-.26-1.369 0-2.358.859-2.358 2.479 0 1.479.869 2.429 2.349 2.429Zm4.61 1.029c-1.379 0-2.438-.949-2.438-2.509 0-1.599 1.05-2.578 2.519-2.578 1.449 0 2.419 1.019 2.419 2.499 0 1.789-1.26 2.588-2.499 2.588Zm6.339-3.898a1.7 1.7 0 0 0-.359-.04c-.59 0-.989.38-1.1.93-.02.11-.04.24-.04.38v2.519h-1.229v-3.298c0-.66-.01-1.129-.039-1.569h1.069l.04.929h.039c.24-.689.81-1.039 1.33-1.039.119 0 .189.01.289.03v1.159Zm5.01 1.18c0 .229-.02.41-.04.52h-3.258c.03.879.72 1.259 1.499 1.259.569 0 .979-.08 1.35-.22l.18.85c-.42.17-1 .3-1.699.3-1.579 0-2.509-.97-2.509-2.459 0-1.349.819-2.618 2.379-2.618 1.579 0 2.099 1.299 2.099 2.369Z" opacity=".7"/>
  <path fill="#b99bf8" d="M37.626 40.819c-.759 0-1.079.689-1.129 1.189h2.139c.01-.45-.189-1.189-1.01-1.189Z" opacity=".7"/>
</svg>
