<svg width="16" height="16" viewBox="0 0 16 16" xmlns="http://www.w3.org/2000/svg">
  <path fill="none" stroke="#6C707E" stroke-linecap="round" stroke-linejoin="round" d="M9.923 7.165A1.335 1.335 0 0 1 8.59 5.832c0-.735.598-1.333 1.333-1.333s1.333.598 1.333 1.333-.598 1.333-1.333 1.333ZM5.16 8.752a1.335 1.335 0 0 1-1.333-1.333c0-.735.598-1.333 1.333-1.333s1.333.598 1.333 1.333-.598 1.333-1.333 1.333Zm3.757 3.331a1.335 1.335 0 0 1-1.333-1.333c0-.735.598-1.333 1.333-1.333s1.333.598 1.333 1.333-.598 1.333-1.333 1.333ZM6.69 1.632A6.496 6.496 0 0 1 8 1.5c.449 0 .887.045 1.31.132m-6.7 2.734A6.549 6.549 0 0 1 4.366 2.61m-2.734 6.7A6.496 6.496 0 0 1 1.5 8c0-.45.045-.887.132-1.31m2.734 6.7a6.549 6.549 0 0 1-1.756-1.756m6.7 2.734A6.496 6.496 0 0 1 8 14.5a6.49 6.49 0 0 1-1.31-.132m6.7-2.734a6.549 6.549 0 0 1-1.756 1.756m2.734-6.7c.087.423.132.86.132 1.31 0 .449-.045.887-.132 1.31m-2.734-6.7a6.549 6.549 0 0 1 1.756 1.756"/>
</svg>
