<svg width="16" height="16" viewBox="0 0 16 16" xmlns="http://www.w3.org/2000/svg">
  <path fill="#EDF3FF" stroke="#3574F0" stroke-linejoin="round" d="M14.489 12.152a.25.25 0 0 1 0-.304l.733-.958a.248.248 0 0 0 .019-.277l-.42-.726a.25.25 0 0 0-.248-.123l-1.197.157a.25.25 0 0 1-.263-.152l-.463-1.115a.25.25 0 0 0-.23-.154h-.838a.25.25 0 0 0-.232.154l-.461 1.115a.25.25 0 0 1-.263.152l-1.198-.157a.25.25 0 0 0-.249.123l-.419.726a.25.25 0 0 0 .018.277l.734.958a.25.25 0 0 1 0 .304l-.734.958a.248.248 0 0 0-.018.277l.42.726a.25.25 0 0 0 .248.123l1.197-.157a.25.25 0 0 1 .264.152l.462 1.115a.25.25 0 0 0 .23.154h.838a.25.25 0 0 0 .231-.154l.463-1.115a.25.25 0 0 1 .263-.152l1.197.157a.25.25 0 0 0 .248-.123l.42-.726a.25.25 0 0 0-.018-.277l-.735-.958ZM12 12.5a.5.5 0 1 1 0-1 .5.5 0 0 1 0 1Z"/>
  <path fill="#EBECF0" d="m7.582 12.202.156-.203-.151-.198a1.735 1.735 0 0 1-.122-1.944l.413-.719a1.76 1.76 0 0 1 1.523-.875h.057l.146.012.266.034.095-.229A1.746 1.746 0 0 1 11.582 7h.838c.708 0 1.343.423 1.616 1.076.034.081.24.192.465.192V6a1.5 1.5 0 0 0-1.5-1.5H8.193l-1.892-2h-3.3a1.5 1.5 0 0 0-1.5 1.5v8a1.5 1.5 0 0 0 1.5 1.5h4.256a1.74 1.74 0 0 1 .326-1.298h-.001Z"/>
  <path fill="none" stroke="#6C707E" stroke-linecap="round" stroke-linejoin="round" d="M14.5 7.764V6A1.5 1.5 0 0 0 13 4.5H8.192L6.3 2.5H3A1.5 1.5 0 0 0 1.5 4v8A1.5 1.5 0 0 0 3 13.5h3.736"/>
</svg>
