<svg width="16" height="16" viewBox="0 0 16 16" xmlns="http://www.w3.org/2000/svg">
  <path fill="#3574F0" d="M10 8H8v2h2V8Zm4 0h-2v2h2V8Zm2 2h-2v2h2v-2Zm-4 0h-2v2h2v-2Zm-2 2H8v2h2v-2Zm4 0h-2v2h2v-2Zm2 2h-2v2h2v-2Zm-4 0h-2v2h2v-2Z"/>
  <path fill="#EBECF0" d="M7 7h7.5V6A1.5 1.5 0 0 0 13 4.5H8.192L6.3 2.5H3A1.5 1.5 0 0 0 1.5 4v8A1.5 1.5 0 0 0 3 13.5h4V7Z"/>
  <path fill="none" stroke="#6C707E" stroke-linecap="round" stroke-linejoin="round" d="M14.5 6.5V6A1.5 1.5 0 0 0 13 4.5H8.192L6.3 2.5H3A1.5 1.5 0 0 0 1.5 4v8A1.5 1.5 0 0 0 3 13.5h3.5"/>
</svg>
