<svg width="16" height="16" viewBox="0 0 16 16" xmlns="http://www.w3.org/2000/svg">
  <path fill="#40b6e0" d="M13.984 11.8a.166.166 0 0 1-.167.166H13.2a.166.166 0 0 1-.166-.167v-.618c0-.092.075-.167.166-.167h.618c.092 0 .167.075.167.167v.618Zm-1.036.972a.166.166 0 0 1-.165.167h-.587a.167.167 0 0 1-.167-.167v-.585c0-.093.075-.167.167-.167h.586c.092 0 .166.074.166.167v.585ZM9.692 13a.692.692 0 1 1 .002-1.384A.692.692 0 0 1 9.692 13Zm5.202-2.144c-.296-.538-.889-.856-1.343-.856-.655 0-.935.666-2.05.666S10.103 10 9.447 10c-.454 0-1.047.318-1.342.856C7.758 11.488 7 14.592 7 14.97c0 .67.195 1.03.767 1.03 1.335 0 .997-2 3.733-2s2.398 2 3.733 2c.571 0 .767-.36.767-1.03 0-.378-.759-3.482-1.106-4.114Z"/>
  <path fill="#9AA7B0" fill-opacity=".8" d="M7.229 10.374C7.672 9.565 8.584 9 9.447 9c.208 0 .386.038.553.088v-.097l-.026-.018C9.606 8.729 8.84 8.22 8.84 6.999v-1h3v.71c.381.271 1.16.831 1.16 2.07v.307c.166-.049.344-.088.551-.088.504 0 1.014.209 1.449.532V3.998H7.985L6.697 2.709a2.796 2.796 0 0 0-1.717-.711H1.051A.051.051 0 0 0 1 2.049v10.949h5.394c.266-1.06.609-2.215.835-2.626Z"/>
  <path fill="#40b6e0" d="M10.84 7h-1C9.84 8.219 11 8.038 11 8.78V10l1 .019V8.78c0-1.223-1.16-1.22-1.16-1.78"/>
</svg>
