<svg xmlns="http://www.w3.org/2000/svg" width="16" height="16"><path fill="#f4f4f4" d="M1 15V3h6.586l2-2H16v14H1z"/><path fill="#c7781a" d="M15 14V2h-5L8 4H2v10h13z"/><path fill="#ebebeb" d="M3 6h11v7H3z"/><g><path d="m5.586 16-2-2H0V9h2.586l1-1H4V6h5v2h.414l1 1h1.847l.259.607c.287.673.48 1.836.48 2.893 0 1.035-.175 2.105-.467 2.861l-.248.639H5.586Z" fill="#f4f4f4"/><path d="M11.6 10H11v1h-1v-1L9 9H7V8h1V7H5v1h1v1H4l-1 1v1H2v-1H1v3h1v-1h1v1h1l2 2h4v-1h1v1h.6c.226-.584.4-1.524.4-2.5s-.187-2.001-.4-2.5Z" fill="#0095d7"/></g></svg>