<svg xmlns="http://www.w3.org/2000/svg" width="16" height="16"><defs><linearGradient id="a" x1="8.5" y1="1.023" x2="8.5" y2="14.939" gradientUnits="userSpaceOnUse"><stop offset="0" stop-color="#c28c21"/><stop offset="1" stop-color="#634933"/></linearGradient><linearGradient id="b" x1="8.5" y1="2.02" x2="8.5" y2="13.948" gradientUnits="userSpaceOnUse"><stop offset="0" stop-color="#ffe9bd"/><stop offset="1" stop-color="#d4a24c"/></linearGradient><linearGradient id="c" x1="8.5" y1="6.012" x2="8.5" y2="12.97" gradientUnits="userSpaceOnUse"><stop offset="0" stop-color="#b88143"/><stop offset="1" stop-color="#8a4717"/></linearGradient><linearGradient id="d" x1="6.5" y1="6.017" x2="6.5" y2="15.957" gradientUnits="userSpaceOnUse"><stop offset="0" stop-color="#2d3742"/><stop offset="1" stop-color="#576a80"/></linearGradient><linearGradient id="e" x1="6.5" y1="7" x2="6.5" y2="14.965" gradientUnits="userSpaceOnUse"><stop offset="0" stop-color="#f0faff"/><stop offset="1" stop-color="#afc6e3"/></linearGradient></defs><path fill="url(#a)" d="M1 15V3h6.586l2-2H16v14H1z"/><path fill="url(#b)" d="M15 14V2h-5L8 4H2v10h13z"/><path fill="url(#c)" d="M3 6h11v7H3z"/><g><path d="m5.586 16-2-2H0V9h2.586l1-1H4V6h5v2h.414l1 1h1.847l.259.607c.287.673.48 1.836.48 2.893 0 1.035-.175 2.105-.467 2.861l-.248.639H5.586Z" fill="url(#d)"/><path d="M11.6 10H11v1h-1v-1L9 9H7V8h1V7H5v1h1v1H4l-1 1v1H2v-1H1v3h1v-1h1v1h1l2 2h4v-1h1v1h.6c.226-.584.4-1.524.4-2.5s-.187-2.001-.4-2.5Z" fill="url(#e)"/></g></svg>