<svg width="16" height="16" viewBox="0 0 16 16" xmlns="http://www.w3.org/2000/svg">
  <path fill="#40b6e0" d="M12.5 12a.5.5 0 1 1-1 0 .5.5 0 0 1 1 0Z"/>
  <path fill="#9AA7B0" fill-opacity=".8" d="m8.247 12-1.578-1.155 1.618-2.662 1.868.73L10.426 7h3.146l.271 1.913 1.155-.452V4H7.983L6.695 2.711A2.796 2.796 0 0 0 4.978 2H1.051A.051.051 0 0 0 1 2.051V13h5.881l1.366-1Z"/>
  <path fill="#40b6e0" d="M14.632 11.581 16 10.58l-.705-1.16-1.597.624-.763-.419L12.705 8h-1.41l-.23 1.625-.763.419-1.597-.624L8 10.58l1.368 1.001v.837L8 13.42l.705 1.16 1.597-.624.763.419.23 1.625h1.41l.23-1.625.763-.419 1.597.624.705-1.16-1.368-1.002v-.837ZM12 13.5a1.5 1.5 0 1 1 .001-3.001A1.5 1.5 0 0 1 12 13.5Z"/>
</svg>
