<svg width="16" height="16" viewBox="0 0 16 16" xmlns="http://www.w3.org/2000/svg">
  <path fill="#EDF3FF" stroke="#3574F0" stroke-linejoin="round" d="M10.5 13.478c-2.232 0-2.333 2.078-3.86 2.02a1.182 1.182 0 0 1-.913-.493 1.217 1.217 0 0 1-.182-1.035c.728-2.616 1.307-4.501 1.38-4.648.145-.292.372-.534.662-.677.45-.222.982-.187 1.4.092.48.237 1.166.513 1.513.513s1.033-.277 1.513-.513c.418-.28.95-.314 1.4-.092.29.143.517.385.662.677.073.147.652 2.032 1.38 4.648.099.355.032.737-.182 1.035a1.18 1.18 0 0 1-.914.494c-1.526.057-1.627-2.021-3.86-2.021Z"/>
  <path fill="#3574F0" d="M12.984 10.8a.166.166 0 0 1-.167.166H12.2a.166.166 0 0 1-.166-.167v-.618c0-.092.075-.167.166-.167h.618c.092 0 .167.075.167.167v.618Zm-1.036.972a.166.166 0 0 1-.165.167h-.587a.167.167 0 0 1-.167-.167v-.585c0-.093.075-.167.167-.167h.586c.092 0 .166.074.166.167v.585ZM8.8 12a1 1 0 1 0 0-2 1 1 0 0 0 0 2Z"/>
  <path fill="none" stroke="#3574F0" stroke-linecap="round" stroke-linejoin="round" d="M10.5 9.25c0-1.588-1-1.75-1-2.75"/>
  <path fill="#EBECF0" d="M5.58 8.658A2.972 2.972 0 0 1 6.922 7.3a2.94 2.94 0 0 1 1.122-.294A2.96 2.96 0 0 1 8 6.5C8 5.673 8.673 5 9.5 5s1.5.673 1.5 1.5c.017 0 .072.071.141.168.103.146.246.352.386.619.38-.19.808-.289 1.254-.289a2.937 2.937 0 0 1 1.477.399l.243.004V5.999a1.5 1.5 0 0 0-1.5-1.5H8.193l-1.892-2h-3.3a1.5 1.5 0 0 0-1.5 1.5v8a1.5 1.5 0 0 0 1.5 1.5H4.12c.152-.546 1.222-4.359 1.461-4.842l-.001.001Z"/>
  <path fill="none" stroke="#6C707E" stroke-linecap="round" stroke-linejoin="round" d="M14.5 6.959V6A1.5 1.5 0 0 0 13 4.5H8.192L6.3 2.5H3A1.5 1.5 0 0 0 1.5 4v8A1.5 1.5 0 0 0 3 13.5h.601"/>
</svg>
