<svg width="24" height="24" viewBox="0 0 24 24" fill="none" xmlns="http://www.w3.org/2000/svg">
<path d="M20.5647 23.25H9.43526C8.71488 23.2418 8.02732 22.9544 7.52379 22.4508C7.02026 21.9473 6.74199 21.2689 6.75018 20.5649V17.6852C6.74199 16.9811 7.02026 16.3028 7.52379 15.7992C8.02732 15.2957 8.71488 15.0082 9.43526 15H20.5647C21.2851 15.0082 21.9727 15.2957 22.4762 15.7992C22.9797 16.3028 23.258 16.9811 23.2498 17.6852V20.5649C23.258 21.2689 22.9797 21.9473 22.4762 22.4508C21.9727 22.9544 21.2851 23.2418 20.5647 23.25Z" fill="#8F38E6"/>
<path d="M12.202 19.9925V19.9817C12.202 19.7297 12.1392 19.5336 12.0137 19.3932C11.8881 19.2493 11.7159 19.1359 11.497 19.0531C11.5652 19.0171 11.628 18.9739 11.6854 18.9235C11.7464 18.8732 11.7984 18.8156 11.8415 18.7508C11.8881 18.6824 11.924 18.6068 11.9491 18.5241C11.9778 18.4413 11.9921 18.3459 11.9921 18.2379V18.2271C11.9921 17.9284 11.8809 17.6909 11.6585 17.5145C11.4396 17.3382 11.1365 17.25 10.749 17.25H9V21.029H10.7921C11.0037 21.029 11.1957 21.0074 11.3679 20.9642C11.5437 20.921 11.6926 20.8562 11.8145 20.7698C11.9401 20.6835 12.0352 20.5755 12.0998 20.4459C12.1679 20.3164 12.202 20.1652 12.202 19.9925ZM11.1688 18.3783C11.1688 18.5187 11.1149 18.6212 11.0073 18.686C10.8997 18.7472 10.7544 18.7778 10.5714 18.7778H9.80723V17.9788H10.6252C10.801 17.9788 10.9356 18.013 11.0288 18.0814C11.1221 18.1462 11.1688 18.2415 11.1688 18.3675V18.3783ZM11.3786 19.8899C11.3786 20.0302 11.3266 20.1346 11.2226 20.203C11.1185 20.2678 10.975 20.3002 10.7921 20.3002H9.80723V19.4688H10.7651C10.9804 19.4688 11.1365 19.5066 11.2333 19.5822C11.3302 19.6541 11.3786 19.7531 11.3786 19.8791V19.8899Z" fill="white" fill-opacity="0.86"/>
<path d="M15.4884 19.6631V19.6523C15.4884 19.4472 15.4597 19.2511 15.4023 19.0639C15.3485 18.8732 15.2624 18.7058 15.144 18.5618C15.0292 18.4143 14.8839 18.2973 14.7081 18.2109C14.5323 18.1246 14.3242 18.0814 14.0838 18.0814C13.8722 18.0814 13.6784 18.121 13.5026 18.2001C13.3304 18.2793 13.1815 18.3873 13.056 18.5241C12.9304 18.6608 12.8317 18.821 12.76 19.0045C12.6918 19.1881 12.6577 19.3824 12.6577 19.5876V19.5984C12.6577 19.8215 12.6954 20.0248 12.7707 20.2084C12.8461 20.3883 12.9501 20.5449 13.0829 20.6781C13.2192 20.8112 13.3789 20.9138 13.5618 20.9858C13.7484 21.0578 13.9493 21.0938 14.1646 21.0938C14.4265 21.0938 14.6543 21.047 14.848 20.9534C15.0418 20.8562 15.2068 20.7231 15.3431 20.5539L14.8749 20.1382C14.7601 20.2426 14.6489 20.3182 14.5413 20.3649C14.4336 20.4117 14.3117 20.4351 14.1753 20.4351C13.9924 20.4351 13.8381 20.3883 13.7125 20.2948C13.5905 20.1976 13.5098 20.0554 13.4703 19.8683H15.4777C15.4812 19.8287 15.483 19.7945 15.483 19.7657C15.4866 19.7369 15.4884 19.7027 15.4884 19.6631ZM14.692 19.3554H13.4596C13.4919 19.1683 13.56 19.0189 13.6641 18.9073C13.7717 18.7958 13.9116 18.74 14.0838 18.74C14.256 18.74 14.3942 18.7976 14.4982 18.9127C14.6023 19.0243 14.6668 19.1719 14.692 19.3554Z" fill="white" fill-opacity="0.86"/>
<path d="M17.7179 20.9102V20.2516C17.5923 20.32 17.4578 20.3542 17.3143 20.3542C17.1385 20.3542 17.0506 20.2606 17.0506 20.0734V18.8372H17.7287V18.1354H17.0506V17.3958H16.2326V18.1354H15.8882V18.8372H16.2326V20.2084C16.2326 20.3775 16.2523 20.5179 16.2918 20.6295C16.3348 20.7374 16.3922 20.8256 16.464 20.894C16.5393 20.9624 16.6272 21.0092 16.7277 21.0344C16.8317 21.0632 16.9465 21.0776 17.0721 21.0776C17.2084 21.0776 17.3286 21.0614 17.4327 21.029C17.5367 21.0002 17.6318 20.9606 17.7179 20.9102Z" fill="white" fill-opacity="0.86"/>
<path d="M20.8125 21.029V19.35C20.8125 18.9577 20.7102 18.6518 20.5057 18.4323C20.3012 18.2127 19.9748 18.103 19.5263 18.103C19.2823 18.103 19.0743 18.1246 18.902 18.1677C18.7298 18.2109 18.5648 18.2667 18.4069 18.3351L18.6114 18.9613C18.7442 18.9109 18.8698 18.8732 18.9882 18.848C19.1101 18.8192 19.2501 18.8048 19.4079 18.8048C19.6124 18.8048 19.7667 18.8498 19.8707 18.9397C19.9748 19.0297 20.0268 19.1611 20.0268 19.3338V19.3824C19.9227 19.3464 19.8151 19.3176 19.7039 19.296C19.5963 19.2744 19.4689 19.2636 19.3218 19.2636C19.1496 19.2636 18.9917 19.2834 18.8482 19.323C18.7083 19.359 18.5863 19.4148 18.4823 19.4904C18.3818 19.566 18.3029 19.6613 18.2455 19.7765C18.1881 19.8917 18.1594 20.0284 18.1594 20.1868V20.1976C18.1594 20.3416 18.1845 20.4693 18.2347 20.5809C18.2886 20.6889 18.3603 20.7806 18.45 20.8562C18.5397 20.9318 18.6437 20.9894 18.7621 21.029C18.8841 21.065 19.0133 21.083 19.1496 21.083C19.3505 21.083 19.5209 21.0506 19.6608 20.9858C19.8008 20.9174 19.921 20.8274 20.0214 20.7159V21.029H20.8125ZM20.0376 20.0086C20.0376 20.1598 19.9784 20.2822 19.86 20.3757C19.7452 20.4693 19.5909 20.5161 19.3971 20.5161C19.2644 20.5161 19.1568 20.4855 19.0743 20.4243C18.9917 20.3631 18.9505 20.2768 18.9505 20.1652V20.1544C18.9505 20.0248 19.0007 19.9259 19.1012 19.8575C19.2016 19.7891 19.3397 19.7549 19.5155 19.7549C19.616 19.7549 19.7093 19.7657 19.7954 19.7873C19.8851 19.8053 19.9658 19.8305 20.0376 19.8629V20.0086Z" fill="white" fill-opacity="0.86"/>
</svg>
