<svg width="256" height="256" viewBox="0 0 256 256" fill="none" xmlns="http://www.w3.org/2000/svg">
<path d="M215.011 245.5H98.9924C91.4828 245.413 84.3154 242.346 79.0664 236.975C73.8173 231.604 70.9165 224.368 71.0018 216.859V186.142C70.9165 178.632 73.8173 171.396 79.0664 166.025C84.3154 160.654 91.4828 157.587 98.9924 157.5H215.011C222.521 157.587 229.688 160.654 234.937 166.025C240.186 171.396 243.087 178.632 243.002 186.142V216.859C243.087 224.368 240.186 231.604 234.937 236.975C229.688 242.346 222.521 245.413 215.011 245.5Z" fill="#8F38E6"/>
<path d="M128.155 209.253V209.138C128.155 206.45 127.485 204.358 126.146 202.861C124.806 201.325 122.969 200.116 120.635 199.233C121.362 198.849 122.032 198.389 122.644 197.851C123.295 197.314 123.85 196.699 124.309 196.008C124.806 195.279 125.189 194.473 125.457 193.59C125.763 192.707 125.916 191.69 125.916 190.538V190.423C125.916 187.236 124.73 184.703 122.357 182.822C120.023 180.941 116.789 180 112.656 180H94V220.309H113.115C115.373 220.309 117.42 220.079 119.257 219.618C121.133 219.157 122.721 218.466 124.022 217.545C125.361 216.624 126.375 215.472 127.064 214.09C127.791 212.708 128.155 211.096 128.155 209.253ZM117.133 192.035C117.133 193.532 116.559 194.626 115.411 195.317C114.263 195.97 112.713 196.296 110.762 196.296H102.61V187.774H111.336C113.211 187.774 114.646 188.139 115.641 188.868C116.636 189.559 117.133 190.576 117.133 191.92V192.035ZM119.372 208.159C119.372 209.656 118.817 210.769 117.708 211.499C116.598 212.19 115.067 212.535 113.115 212.535H102.61V203.667H112.828C115.124 203.667 116.789 204.07 117.822 204.876C118.856 205.644 119.372 206.7 119.372 208.044V208.159Z" fill="white" fill-opacity="0.86"/>
<path d="M163.21 205.74V205.625C163.21 203.437 162.904 201.345 162.291 199.348C161.717 197.314 160.799 195.529 159.536 193.993C158.311 192.419 156.762 191.171 154.886 190.25C153.011 189.329 150.792 188.868 148.228 188.868C145.97 188.868 143.903 189.29 142.028 190.135C140.191 190.979 138.603 192.131 137.264 193.59C135.924 195.049 134.872 196.757 134.106 198.715C133.379 200.673 133.016 202.746 133.016 204.934V205.049C133.016 207.429 133.418 209.598 134.221 211.556C135.025 213.476 136.135 215.146 137.551 216.566C139.005 217.986 140.708 219.081 142.66 219.848C144.649 220.616 146.793 221 149.089 221C151.882 221 154.312 220.501 156.379 219.503C158.445 218.466 160.206 217.046 161.66 215.242L156.666 210.808C155.441 211.921 154.255 212.727 153.107 213.226C151.959 213.725 150.658 213.975 149.203 213.975C147.252 213.975 145.606 213.476 144.267 212.478C142.966 211.441 142.105 209.925 141.684 207.928H163.095C163.133 207.506 163.152 207.141 163.152 206.834C163.191 206.527 163.21 206.162 163.21 205.74ZM154.714 202.458H141.569C141.913 200.462 142.64 198.868 143.75 197.678C144.898 196.488 146.391 195.893 148.228 195.893C150.065 195.893 151.538 196.507 152.648 197.736C153.757 198.926 154.446 200.5 154.714 202.458Z" fill="white" fill-opacity="0.86"/>
<path d="M186.991 219.042V212.017C185.652 212.746 184.216 213.111 182.686 213.111C180.811 213.111 179.873 212.113 179.873 210.117V196.93H187.106V189.444H179.873V181.555H171.148V189.444H167.474V196.93H171.148V211.556C171.148 213.36 171.358 214.858 171.779 216.048C172.238 217.199 172.851 218.14 173.616 218.869C174.42 219.599 175.357 220.098 176.429 220.367C177.539 220.674 178.763 220.827 180.103 220.827C181.557 220.827 182.839 220.654 183.949 220.309C185.058 220.002 186.072 219.58 186.991 219.042Z" fill="white" fill-opacity="0.86"/>
<path d="M220 220.309V202.4C220 198.216 218.909 194.953 216.728 192.611C214.547 190.269 211.064 189.098 206.281 189.098C203.678 189.098 201.459 189.329 199.622 189.789C197.785 190.25 196.025 190.845 194.341 191.574L196.522 198.254C197.938 197.717 199.277 197.314 200.54 197.045C201.841 196.738 203.334 196.584 205.018 196.584C207.199 196.584 208.845 197.064 209.954 198.024C211.064 198.984 211.619 200.385 211.619 202.228V202.746C210.509 202.362 209.361 202.055 208.175 201.824C207.027 201.594 205.668 201.479 204.099 201.479C202.262 201.479 200.579 201.69 199.048 202.112C197.555 202.496 196.254 203.091 195.144 203.897C194.073 204.704 193.231 205.721 192.619 206.949C192.006 208.178 191.7 209.637 191.7 211.326V211.441C191.7 212.977 191.968 214.339 192.504 215.529C193.078 216.681 193.843 217.66 194.8 218.466C195.757 219.272 196.867 219.887 198.129 220.309C199.431 220.693 200.808 220.885 202.262 220.885C204.405 220.885 206.223 220.539 207.716 219.848C209.208 219.119 210.49 218.159 211.562 216.969V220.309H220ZM211.734 209.426C211.734 211.038 211.102 212.343 209.84 213.341C208.615 214.339 206.969 214.838 204.903 214.838C203.487 214.838 202.339 214.512 201.459 213.86C200.579 213.207 200.138 212.286 200.138 211.096V210.98C200.138 209.598 200.674 208.543 201.746 207.813C202.817 207.084 204.291 206.719 206.166 206.719C207.237 206.719 208.232 206.834 209.151 207.065C210.108 207.257 210.969 207.525 211.734 207.871V209.426Z" fill="white" fill-opacity="0.86"/>
</svg>
