<svg width="40" height="40" viewBox="0 0 40 40" fill="none" xmlns="http://www.w3.org/2000/svg">
<path d="M33.7143 4H6.28571C5.02335 4 4 5.02335 4 6.28571V33.7143C4 34.9767 5.02335 36 6.28571 36H33.7143C34.9767 36 36 34.9767 36 33.7143V6.28571C36 5.02335 34.9767 4 33.7143 4Z" fill="#018818"/>
<path d="M15.4285 28.6857C19.3247 28.6857 23.9473 21.981 29.2962 8.57144C25.1723 13.3889 21.8283 16.7413 19.2642 18.6286C15.5064 21.3945 11.6458 24.3339 11.6036 25.4857C11.5547 26.8199 12.0986 28.6857 15.4285 28.6857Z" fill="#F7F7F7"/>
<path d="M10.4005 23.1254C10.4005 20.7032 11.1596 19.0915 15.4291 17.4862C18.2754 16.4161 22.1226 13.978 26.9708 10.172C23.8833 13.926 20.2902 17.2337 16.2939 20.0005C12.5174 22.5409 10.7814 24.4457 11.0862 25.7148C10.6142 24.9352 10.3762 24.0364 10.4005 23.1254Z" fill="#A9A49A"/>
</svg>
