<svg width="16" height="16" viewBox="0 0 16 16" fill="none" xmlns="http://www.w3.org/2000/svg">
<path d="M2 3C2 2.44772 2.44772 2 3 2H6.5C7.05228 2 7.5 2.44772 7.5 3V6.5C7.5 7.05228 7.05228 7.5 6.5 7.5H3C2.44772 7.5 2 7.05228 2 6.5V3Z" fill="#EBECF0"/>
<path d="M2 9.5C2 8.94772 2.44772 8.5 3 8.5H6.5C7.05228 8.5 7.5 8.94772 7.5 9.5V13C7.5 13.5523 7.05228 14 6.5 14H3C2.44772 14 2 13.5523 2 13V9.5Z" fill="#EBECF0"/>
<path d="M9.5 2C8.94772 2 8.5 2.44772 8.5 3V6.5C8.5 7.05228 8.94772 7.5 9.5 7.5H13C13.5523 7.5 14 7.05228 14 6.5V3C14 2.44772 13.5523 2 13 2H9.5Z" fill="#EBECF0"/>
<path fill-rule="evenodd" clip-rule="evenodd" d="M3 2C2.44772 2 2 2.44772 2 3V6.5C2 7.05228 2.44772 7.5 3 7.5H6.5C7.05228 7.5 7.5 7.05228 7.5 6.5V3C7.5 2.44772 7.05228 2 6.5 2H3ZM6.5 3H3V6.5H6.5V3Z" fill="#6C707E"/>
<path fill-rule="evenodd" clip-rule="evenodd" d="M3 8.5C2.44772 8.5 2 8.94772 2 9.5V13C2 13.5523 2.44772 14 3 14H6.5C7.05228 14 7.5 13.5523 7.5 13V9.5C7.5 8.94772 7.05228 8.5 6.5 8.5H3ZM6.5 9.5H3V13H6.5V9.5Z" fill="#6C707E"/>
<path fill-rule="evenodd" clip-rule="evenodd" d="M8.5 3C8.5 2.44772 8.94772 2 9.5 2H13C13.5523 2 14 2.44772 14 3V6.5C14 7.05228 13.5523 7.5 13 7.5H9.5C8.94772 7.5 8.5 7.05228 8.5 6.5V3ZM9.5 3H13V6.5H9.5V3Z" fill="#6C707E"/>
<path d="M14.5933 9.82086C16.1282 11.3557 16.5518 13.4484 15.0001 15C13.4484 16.5517 11.2757 16.0732 9.80829 14.6058C8.34087 13.1384 7.90434 10.9406 9.42246 9.42248C10.9406 7.90439 13.0584 8.28598 14.5933 9.82086Z" fill="#FFF8E3"/>
<path fill-rule="evenodd" clip-rule="evenodd" d="M14.5933 9.82086C16.1282 11.3557 16.5518 13.4484 15.0001 15C13.4484 16.5517 11.2757 16.0732 9.80829 14.6058C8.34087 13.1384 7.90434 10.9406 9.42246 9.42248C10.9406 7.90439 13.0584 8.28598 14.5933 9.82086ZM13.8862 10.528C14.5338 11.1755 14.8882 11.8836 14.9606 12.5176C15.0139 12.9844 14.9218 13.4563 14.6147 13.9076L10.5164 9.8093C10.9559 9.51515 11.4252 9.42083 11.8952 9.47113C12.534 9.53949 13.245 9.88682 13.8862 10.528ZM9.81164 10.5187L13.9054 14.6125C13.457 14.9099 12.9748 14.9994 12.4903 14.942C11.8328 14.8641 11.1214 14.5047 10.5154 13.8987C9.91577 13.2991 9.56347 12.585 9.48965 11.9224C9.43533 11.4349 9.52693 10.9556 9.81164 10.5187Z" fill="#B07D35"/>
</svg>
