<svg width="16" height="16" viewBox="0 0 16 16" fill="none" xmlns="http://www.w3.org/2000/svg">
<path fill-rule="evenodd" clip-rule="evenodd" d="M14 11.95C15.1411 11.7184 16 10.7095 16 9.5C16 8.11929 14.8807 7 13.5 7C12.1193 7 11 8.11929 11 9.5C11 10.7095 11.8589 11.7184 13 11.95V16H14V15H16V14H14V11.95ZM15 9.5C15 10.3284 14.3284 11 13.5 11C12.6716 11 12 10.3284 12 9.5C12 8.67157 12.6716 8 13.5 8C14.3284 8 15 8.67157 15 9.5Z" fill="#CED0D6"/>
<path d="M13.7648 6.00987C13.6774 6.00333 13.5891 6 13.5 6C11.567 6 10 7.567 10 9.5C10 9.64557 10.0089 9.78906 10.0261 9.92994C9.16813 10.6577 8.19142 11.2318 7.25648 11.5765C5.92491 12.067 3.58016 12.5466 3.31284 12.6012C3.29639 12.6046 3.28781 12.6064 3.28781 12.6064L3.18434 12.5512C1.4464 11.7062 1.39817 7.9452 4.55312 6.733C5.33057 6.43407 6.08892 6.39552 6.86938 6.35584C7.47797 6.3249 8.10001 6.29328 8.75504 6.13698C10.35 5.75834 12.1967 4.55929 12.9473 3C13.2418 3.87248 13.5569 4.91702 13.7648 6.00987Z" fill="#253627"/>
<path d="M12 12.7224V12.6629C11.1458 12.2571 10.4821 11.516 10.1793 10.6092C9.52112 11.274 8.77607 11.8279 8.02987 12.2102C7.36857 12.5499 6.80041 12.7221 6.03582 12.9538C5.59499 13.0874 5.08885 13.2408 4.46192 13.4575C4.25148 13.5302 4.08663 13.6004 4.08663 13.6004C4.52243 13.5285 4.95472 13.5039 4.95472 13.5039C5.48599 13.4799 6.08188 13.4988 6.70749 13.5187C8.50155 13.5756 10.54 13.6403 12 12.7224Z" fill="#253627"/>
<path d="M6.55758 5.37077C5.85421 5.40938 5.04269 5.47346 4.19453 5.79954C2.25514 6.54479 1.25485 8.10892 1.04333 9.64326C0.847108 11.0666 1.33173 12.7204 2.68642 13.4201C2.69602 13.4428 2.70767 13.4719 2.72425 13.5133L2.76299 13.6097C2.80421 13.7123 2.90411 13.9611 3.08639 14.1692C3.196 14.2944 3.35669 14.432 3.58005 14.5196C3.8087 14.6092 4.04011 14.6216 4.24942 14.587C4.43594 14.5563 4.62776 14.5348 4.77678 14.5209C4.85025 14.5141 4.911 14.5093 4.95257 14.5063L4.99926 14.5031L5.00728 14.5026C5.49521 14.481 6.04559 14.4983 6.67327 14.5181L6.95908 14.527C7.6884 14.5491 8.49562 14.5661 9.29327 14.5061C10.1831 14.4391 11.1334 14.2713 12 13.8609V12.7224C10.54 13.6403 8.50155 13.5756 6.70749 13.5187C6.08189 13.4988 5.48598 13.4799 4.95472 13.5039C4.95472 13.5039 4.52243 13.5285 4.08663 13.6004C4.08663 13.6004 4.25148 13.5302 4.46192 13.4575C5.08884 13.2408 5.59497 13.0874 6.0358 12.9538C6.80039 12.7221 7.36857 12.5499 8.02987 12.2102C8.77607 11.8279 9.52112 11.274 10.1793 10.6092C10.1067 10.3915 10.0548 10.1643 10.0261 9.92994C9.16813 10.6577 8.19142 11.2318 7.25648 11.5765C5.84298 12.0972 3.28781 12.6064 3.28781 12.6064L3.18434 12.5512C1.4464 11.7062 1.39817 7.9452 4.55312 6.733C5.33057 6.43407 6.08892 6.39552 6.86938 6.35584C7.47797 6.3249 8.10001 6.29328 8.75504 6.13698C10.35 5.75834 12.1967 4.55929 12.9473 3C13.2418 3.87248 13.5569 4.91702 13.7648 6.00987C14.1372 6.03773 14.4934 6.12386 14.8242 6.25918C14.6092 4.93624 14.232 3.67885 13.8949 2.68017L13.1103 0.356018L12.0463 2.56628C11.4596 3.78522 9.90936 4.83519 8.52413 5.16403L8.52301 5.1643C7.96333 5.29785 7.43676 5.32505 6.82202 5.35681L6.82091 5.35687C6.73498 5.36131 6.64731 5.36584 6.55758 5.37077Z" fill="#57965C"/>
</svg>
