<svg width="16" height="16" viewBox="0 0 16 16" fill="none" xmlns="http://www.w3.org/2000/svg">
<path d="M16 0H0V16H16V0Z" fill="#21D789"/>
<path d="M15 1H1V15H15V1Z" fill="black"/>
<path d="M9 12H3V13H9V12Z" fill="white"/>
<path d="M8.3999 6.04794C8.3999 4.32159 9.5999 2.8999 11.2999 2.8999C12.2999 2.8999 12.8999 3.20455 13.4999 3.7123L12.6999 4.72779C12.2999 4.32159 11.8999 4.1185 11.1999 4.1185C10.2999 4.1185 9.5999 4.93089 9.5999 6.04794C9.5999 7.16498 10.2999 7.97738 11.2999 7.97738C11.6999 7.97738 12.0999 7.87583 12.4999 7.57118V6.75878H11.2999V5.54019H13.6999V8.18048C13.0999 8.68822 12.2999 9.09442 11.2999 9.09442C9.5999 9.19597 8.3999 7.87583 8.3999 6.04794Z" fill="white"/>
<path d="M3 3.00146H5.1C6.8 3.00146 8 4.32161 8 6.04795C8 7.77429 6.8 9.09443 5.1 9.09443H3V3.00146ZM4.2 4.22006V7.87584H5.1C6.1 7.87584 6.7 7.16499 6.7 6.04795C6.7 4.9309 6 4.22006 5.1 4.22006H4.2Z" fill="white"/>
</svg>
