<!-- Copyright © 2000–2024 JetBrains s.r.o. -->
<svg width="512" height="512" viewBox="0 0 512 512" xmlns="http://www.w3.org/2000/svg">
  <g filter="url(#a)">
    <mask id="b" width="412" height="412" x="50" y="50" maskUnits="userSpaceOnUse" style="mask-type:luminance">
      <path fill="#fff" d="M152.537 50C86.695 50 50 86.695 50 152.537v206.926C50 425.321 86.695 462 152.537 462h206.926C425.321 462 462 425.305 462 359.463V152.537C462 86.679 425.305 50 359.463 50z"/>
    </mask>
    <g mask="url(#b)">
      <path fill="url(#c)" d="M462.016 50H109.549v189.914h352.467z"/>
      <path fill="#6B57FF" d="M243.133 198.068H50v263.948h193.133z"/>
      <path fill="url(#d)" d="M198.149 462.016h263.867V198.165L111.126 50H50v186.663z"/>
    </g>
    <path d="M384.763 127.253h-257.51v257.51h257.51z"/>
    <path fill="#fff" d="m230.26 224.205 52.983 31.803-52.983 31.802zm-25.751-45.45v154.506l128.755-77.253z"/>
  </g>
  <defs>
    <linearGradient id="c" x1="467.086" x2="123.342" y1="60.928" y2="220.262" gradientUnits="userSpaceOnUse">
      <stop offset=".18" stop-color="#6B57FF"/>
      <stop offset=".54" stop-color="#FF45ED"/>
    </linearGradient>
    <linearGradient id="d" x1="50.016" x2="462" y1="49.984" y2="462.032" gradientUnits="userSpaceOnUse">
      <stop offset=".12" stop-color="#FF45ED"/>
      <stop offset=".92" stop-color="#FC801D"/>
    </linearGradient>
    <filter id="a" width="438" height="438" x="37" y="42" color-interpolation-filters="sRGB" filterUnits="userSpaceOnUse">
      <feFlood flood-opacity="0" result="BackgroundImageFix"/>
      <feColorMatrix in="SourceAlpha" result="hardAlpha" values="0 0 0 0 0 0 0 0 0 0 0 0 0 0 0 0 0 0 127 0"/>
      <feOffset dy="5"/>
      <feGaussianBlur stdDeviation="6.5"/>
      <feComposite in2="hardAlpha" operator="out"/>
      <feColorMatrix values="0 0 0 0 0 0 0 0 0 0 0 0 0 0 0 0 0 0 0.35 0"/>
      <feBlend in2="BackgroundImageFix" result="effect1_dropShadow_33_2191"/>
      <feBlend in="SourceGraphic" in2="effect1_dropShadow_33_2191" result="shape"/>
    </filter>
  </defs>
</svg>
