<svg width="20" height="20" viewBox="0 0 20 20" fill="none" xmlns="http://www.w3.org/2000/svg">
  <path
    d="M13.5599 12.3326C13.5557 12.5007 13.5918 12.6673 13.6652 12.8185C13.8115 13.1117 14.0616 13.34 14.3669 13.4589C14.6335 13.5703 14.9225 13.6178 15.2108 13.5975H15.2301C15.0326 13.5674 14.839 13.5157 14.6529 13.4431C14.3362 13.3243 14.0558 13.1254 13.8389 12.8659C13.7224 12.7235 13.6327 12.5613 13.5739 12.387C13.5722 12.3642 13.5652 12.3484 13.5599 12.3326Z"
    fill="#6C707E" stroke="#6C707E" stroke-width="0.3"/>
  <path
    d="M15.9371 9.87994C16.0087 9.83342 16.0702 9.77298 16.118 9.70221C16.1658 9.63144 16.1988 9.55179 16.2152 9.46799C16.2316 9.38419 16.2309 9.29796 16.2133 9.21442C16.1957 9.13087 16.1614 9.05173 16.1126 8.98169C16.161 9.29241 16.0989 9.61027 15.9371 9.87994V9.87994Z"
    fill="#6C707E" stroke="#6C707E" stroke-width="0.3"/>
  <path
    d="M16.4547 11.6449C16.605 11.76 16.7922 11.8161 16.981 11.8028C17.0582 11.8028 17.1354 11.787 17.2109 11.7835C17.2532 11.7817 17.2957 11.7852 17.3372 11.794C17.4144 11.8115 17.4495 11.794 17.4758 11.7256C17.5379 11.5575 17.5613 11.3776 17.5442 11.1992C17.5356 11.1126 17.5149 11.0276 17.4828 10.9466C17.4477 10.8715 17.3976 10.8045 17.3355 10.7496C17.2734 10.6948 17.2006 10.6533 17.1218 10.6278C17.0429 10.6023 16.9597 10.5933 16.8772 10.6013C16.7948 10.6094 16.7148 10.6344 16.6424 10.6747C16.604 10.6972 16.5676 10.723 16.5337 10.7519C16.4968 10.7817 16.4635 10.815 16.4266 10.8501C16.4424 10.8694 16.4565 10.8887 16.4723 10.9045C16.4898 10.921 16.5027 10.9419 16.5095 10.965C16.5163 10.9882 16.5167 11.0127 16.5109 11.0361C16.4938 11.1025 16.5008 11.1727 16.5307 11.2344C16.5605 11.2961 16.6113 11.3452 16.674 11.3729C16.7685 11.4214 16.8672 11.4613 16.9687 11.4922C17.0207 11.5106 17.0741 11.5246 17.1284 11.5343C17.1352 11.5349 17.142 11.5339 17.1484 11.5315C17.1548 11.5291 17.1605 11.5252 17.1652 11.5203C17.2443 11.4702 17.3057 11.3966 17.3407 11.3098C17.3582 11.3777 17.3582 11.4489 17.3407 11.5168C17.3292 11.5756 17.3347 11.6364 17.3565 11.6922V11.6922L17.3284 11.6764C17.2227 11.6224 17.1066 11.5918 16.988 11.587C16.8412 11.5746 16.6993 11.5277 16.574 11.4501C16.503 11.4038 16.4442 11.341 16.4026 11.2671C16.3611 11.1932 16.338 11.1103 16.3354 11.0256C16.3354 11.0256 16.3354 11.015 16.3354 10.9992C16.2685 11.1016 16.2435 11.2257 16.2657 11.346C16.2879 11.4662 16.3556 11.5732 16.4547 11.6449V11.6449Z"
    fill="#6C707E" stroke="#6C707E" stroke-width="0.3"/>
  <path
    d="M2.21945 16.1484C3.14007 17.4457 4.5112 18.3534 6.06509 18.694C6.59752 18.8091 7.14157 18.8615 7.68616 18.8502C9.02301 18.8502 10.3599 18.8502 11.695 18.8502H14.3915C14.6054 18.8577 14.819 18.8287 15.0231 18.7642C15.1208 18.735 15.2109 18.6849 15.2873 18.6173C15.3636 18.5498 15.4243 18.4664 15.4652 18.373C15.5234 18.2248 15.5307 18.0615 15.4859 17.9087C15.4411 17.7559 15.3468 17.6224 15.2178 17.5291C15.0259 17.3952 14.793 17.3331 14.5599 17.3537C14.4967 17.3537 14.4336 17.3659 14.3704 17.373C14.3553 17.3756 14.3399 17.3756 14.3248 17.373C14.3055 17.373 14.2862 17.3572 14.2669 17.3502C14.276 17.3325 14.2872 17.316 14.3003 17.301C14.542 17.1015 14.7145 16.8307 14.7932 16.5273C14.8235 16.413 14.833 16.2942 14.8213 16.1765C14.8204 16.1671 14.8204 16.1577 14.8213 16.1484C14.8213 16.0887 14.8389 16.0712 14.8985 16.0677C15.0739 16.0677 15.2494 16.0537 15.4248 16.0396C15.509 16.0396 15.6003 16.0116 15.6845 16.0063C15.6739 16.0203 15.6652 16.0414 15.6511 16.0484C15.5852 16.0782 15.5265 16.1218 15.479 16.1763C15.4315 16.2308 15.3962 16.2949 15.3757 16.3642C15.3163 16.5332 15.2878 16.7114 15.2915 16.8905C15.306 17.1699 15.4142 17.4362 15.5985 17.6467C15.7628 17.8392 15.9661 17.9947 16.195 18.1028C16.2248 18.1168 16.2318 18.1309 16.2213 18.1642C16.1907 18.2565 16.1907 18.3562 16.2213 18.4484C16.2401 18.5033 16.279 18.5491 16.3301 18.5765C16.3892 18.6101 16.4553 18.6295 16.5232 18.6331C16.5911 18.6368 16.6589 18.6246 16.7213 18.5975L16.7319 18.6572C16.7704 18.801 16.8634 18.8572 17.0038 18.9414H17.1003C17.1003 18.9414 17.1003 18.9309 17.1126 18.9309C17.1656 18.921 17.2161 18.9007 17.2612 18.8711C17.3062 18.8414 17.3449 18.8031 17.375 18.7584C17.405 18.7136 17.4259 18.6633 17.4362 18.6104C17.4466 18.5574 17.4463 18.503 17.4354 18.4502C17.4354 18.394 17.4108 18.3414 17.4003 18.2905C17.5126 18.2607 17.6284 18.2379 17.7371 18.201C17.9773 18.1269 18.1942 17.992 18.367 17.8095C18.5397 17.6269 18.6624 17.4028 18.7231 17.1589C18.7549 17.0633 18.7586 16.9606 18.7337 16.8629C18.7088 16.7653 18.6564 16.6768 18.5827 16.608C18.5763 16.5911 18.5763 16.5724 18.5827 16.5554C18.6143 16.3589 18.6634 16.1624 18.6757 15.9642C18.6934 15.7395 18.6628 15.5137 18.5859 15.3019C18.509 15.0901 18.3877 14.8972 18.2301 14.7361C18.2218 14.7285 18.2159 14.7187 18.2131 14.7078C18.2103 14.6968 18.2107 14.6854 18.2143 14.6747C18.2371 14.5694 18.2617 14.4642 18.274 14.3572C18.2845 14.255 18.2713 14.1519 18.2353 14.0557C18.1994 13.9596 18.1418 13.873 18.067 13.8028C18.052 13.7908 18.0404 13.7751 18.0336 13.7571C18.0142 13.7008 17.9836 13.649 17.9434 13.605C17.9033 13.5609 17.8546 13.5255 17.8003 13.501C17.5828 13.3942 17.3363 13.3615 17.0985 13.408C16.9434 13.4406 16.7934 13.4943 16.6529 13.5677C16.6275 13.5865 16.5968 13.5966 16.5652 13.5966C16.5336 13.5966 16.5028 13.5865 16.4775 13.5677C16.4669 13.5589 16.4511 13.5571 16.4424 13.5484C16.4336 13.5396 16.3985 13.5115 16.402 13.4993C16.4061 13.488 16.4124 13.4778 16.4206 13.469C16.4287 13.4603 16.4385 13.4533 16.4494 13.4484C16.561 13.4039 16.6801 13.3813 16.8003 13.3817C16.8905 13.3823 16.9807 13.3776 17.0705 13.3677C17.3521 13.3309 17.6226 13.234 17.8634 13.0835C17.8799 13.0739 17.8976 13.0668 17.9161 13.0624C18.0719 13.0383 18.2163 12.9662 18.3292 12.8561C18.4421 12.746 18.5178 12.6035 18.5459 12.4484C18.5465 12.4157 18.5536 12.3835 18.567 12.3536C18.6296 12.2575 18.6683 12.1478 18.6799 12.0336C18.6915 11.9195 18.6756 11.8042 18.6336 11.6975C18.5845 11.5536 18.5161 11.4168 18.4582 11.2747C18.4264 11.2001 18.4046 11.1216 18.3933 11.0413C18.3777 10.8161 18.3407 10.5929 18.2827 10.3747C18.1693 9.91234 17.9132 9.49746 17.5508 9.18885C17.1883 8.88025 16.7379 8.69359 16.2634 8.65535C16.2448 8.65616 16.2264 8.65073 16.2111 8.63993C16.1959 8.62914 16.1846 8.61357 16.1792 8.5957C16.1323 8.48017 16.061 8.37615 15.9702 8.29075C15.8793 8.20536 15.7711 8.14062 15.6529 8.10096C15.5915 8.07645 15.5231 8.07645 15.4617 8.10096C15.3733 8.13853 15.2888 8.18434 15.209 8.2378C15.0078 8.38109 14.8377 8.56372 14.709 8.77465C14.6985 8.79044 14.6862 8.80974 14.6704 8.815C14.6597 8.81979 14.648 8.82226 14.6362 8.82226C14.6244 8.82226 14.6128 8.81979 14.602 8.815C14.5897 8.815 14.588 8.77289 14.5915 8.7536C14.6009 8.73008 14.6139 8.70818 14.6301 8.68868C14.981 8.18066 15.2153 7.60133 15.316 6.99218C15.3206 6.97117 15.3316 6.95213 15.3476 6.93779C15.4336 6.84832 15.5231 6.76235 15.6108 6.67288C15.7455 6.53198 15.8384 6.35645 15.8792 6.16585C15.8906 6.11509 15.8977 6.06344 15.9003 6.01147C15.9003 5.99568 15.8862 5.97989 15.8792 5.9641C15.8613 5.97055 15.8447 5.98005 15.8301 5.99217C15.8073 6.0255 15.7897 6.06234 15.7687 6.09568C15.7528 6.117 15.7358 6.13749 15.7178 6.15708C15.7144 6.14864 15.7144 6.13921 15.7178 6.13077C15.8114 5.89521 15.8751 5.64884 15.9073 5.39743C15.9073 5.32725 15.9213 5.25532 15.9231 5.18514C15.9248 5.11497 15.8915 5.10093 15.8564 5.11497C15.8379 5.12406 15.8212 5.13656 15.8073 5.15181C15.6667 5.28382 15.5092 5.39651 15.3389 5.4869C15.3389 5.4869 15.3389 5.4869 15.3389 5.47637C15.3389 5.46585 15.3283 5.42725 15.3248 5.40269C15.2777 5.11155 15.2073 4.82467 15.1143 4.54479C15.0348 4.32845 15.0095 4.09595 15.0406 3.86759C15.0452 3.8004 15.063 3.73479 15.0932 3.67456C15.1233 3.61433 15.165 3.56067 15.216 3.51671C15.2251 3.50814 15.2333 3.49874 15.2406 3.48864C15.2314 3.48205 15.2214 3.47673 15.2108 3.47285C15.1301 3.44471 15.0419 3.44702 14.9627 3.47932C14.8836 3.51162 14.8189 3.57171 14.781 3.64829C14.7704 3.66934 14.7564 3.68864 14.7371 3.72022C14.7175 3.68857 14.701 3.65508 14.688 3.62022C14.6564 3.47094 14.6475 3.31775 14.6617 3.16583C14.6875 2.98115 14.747 2.80277 14.8371 2.63951C14.8591 2.59591 14.8779 2.55076 14.8932 2.50442C14.9001 2.48742 14.9024 2.46894 14.8999 2.45078C14.8974 2.43262 14.8903 2.41543 14.8791 2.4009C14.8679 2.38636 14.8532 2.375 14.8363 2.36792C14.8194 2.36085 14.8009 2.35831 14.7827 2.36056C14.7384 2.36014 14.6944 2.36787 14.6529 2.38337C14.4405 2.45995 14.2649 2.61415 14.1617 2.81495C14.1617 2.83249 14.1441 2.84828 14.1353 2.86933C14.0453 2.79331 13.9743 2.69715 13.9283 2.58863C13.8999 2.5171 13.8671 2.44738 13.8301 2.37986C13.8038 2.33249 13.7845 2.33249 13.7529 2.37986L13.7283 2.4167C13.7038 2.44652 13.6845 2.44652 13.6652 2.4167C13.6492 2.38686 13.6357 2.35576 13.6248 2.32372C13.5707 2.17191 13.4753 2.03823 13.3494 1.93775C13.3494 1.93775 13.3301 1.93775 13.3108 1.91669L13.3283 2.04126C13.3283 2.07985 13.3388 2.1167 13.3423 2.1588H13.3266C13.3136 2.15164 13.3013 2.14343 13.2897 2.13424C12.7808 1.78356 12.2108 1.53125 11.609 1.39037C11.419 1.36523 11.2345 1.3083 11.0634 1.22195L11.0493 1.21669C11.0356 1.2095 11.0197 1.2075 11.0045 1.21104C10.9894 1.21458 10.976 1.22343 10.9669 1.23599C10.9474 1.25128 10.9232 1.25934 10.8985 1.25879C10.823 1.25879 10.7493 1.24125 10.6757 1.23423C10.6081 1.22713 10.5413 1.21481 10.4757 1.19739C10.3634 1.16932 10.2546 1.06055 10.1441 1.06055H10.0651C10.0388 1.06055 10.009 1.13423 9.98793 1.16055C9.96688 1.18686 9.90723 1.25879 9.84934 1.2623C9.47223 1.28642 9.09814 1.34515 8.73178 1.43774C8.17202 1.56881 7.64296 1.80713 7.17387 2.1395C6.82689 2.37857 6.53695 2.69127 6.32474 3.0553C6.28294 3.13184 6.24603 3.21095 6.21422 3.29214C6.18719 3.35301 6.18345 3.42168 6.20369 3.48513C6.20956 3.50937 6.22442 3.53047 6.24527 3.54415C6.26613 3.55784 6.2914 3.56308 6.31597 3.55881C6.45995 3.54069 6.60612 3.55253 6.7453 3.59359C6.88448 3.63465 7.01367 3.70404 7.12475 3.79741C7.36392 3.96472 7.54729 4.20005 7.65107 4.47286C7.72654 4.65836 7.74599 4.86191 7.70701 5.05835C7.66803 5.25478 7.57234 5.43549 7.43177 5.57813C7.4037 5.61146 7.37037 5.64129 7.33528 5.67813C7.32124 5.62725 7.31072 5.58164 7.29668 5.53602C7.24071 5.30865 7.13192 5.09768 6.97914 4.92023C6.88615 4.81847 6.84931 4.93777 6.87387 5.12199C6.89877 5.30561 6.87997 5.49252 6.819 5.66751C6.75803 5.8425 6.65661 6.00062 6.52299 6.12901C6.50497 6.14643 6.48252 6.15857 6.45808 6.1641C6.17211 6.26585 5.88439 6.36235 5.60018 6.46761C5.09173 6.6556 4.60189 6.89054 4.13701 7.16937L4.11771 7.1799C4.09791 7.1677 4.08186 7.15026 4.07133 7.12952C4.06081 7.10878 4.05621 7.08554 4.05806 7.06235C4.05806 6.99919 4.07034 6.93604 4.07736 6.87288V6.85007C4.09139 6.73954 4.04753 6.7027 3.94578 6.75182C3.89361 6.77972 3.84765 6.81792 3.81069 6.86411C3.69865 7.00849 3.60986 7.1695 3.54753 7.3413C3.51068 7.42902 3.48086 7.51674 3.44402 7.60973C3.43041 7.64321 3.40942 7.6732 3.38261 7.69745C2.97599 8.03325 2.60874 8.41404 2.28787 8.83254C2.01506 9.19315 1.78267 9.58262 1.59488 9.99396L1.57909 10.0255C1.57909 10.0255 1.57909 10.0255 1.56856 10.0255C1.50751 9.66687 1.49453 9.30166 1.52997 8.93956C1.50189 9.04833 1.47032 9.15535 1.444 9.26413C1.34215 9.70136 1.30725 10.1515 1.34049 10.5992C1.341 10.6226 1.33683 10.6459 1.32821 10.6676C1.03578 11.587 0.964073 12.5623 1.11892 13.5145C1.27376 14.4667 1.65079 15.3691 2.21945 16.1484ZM1.85453 11.4203C2.1402 12.0314 2.48017 12.6156 2.87033 13.1659C2.89039 13.1935 2.90142 13.2266 2.90191 13.2607C2.90191 13.4361 2.91945 13.6115 2.93349 13.787C2.93349 13.8922 2.96156 13.9957 2.97559 14.0993C1.97293 13.0183 1.43435 11.5871 1.47558 10.1133C1.49137 10.2326 1.50365 10.3431 1.5247 10.4519C1.59537 10.7867 1.70611 11.1119 1.85453 11.4203ZM5.61947 6.89218C5.62012 6.89683 5.62012 6.90155 5.61947 6.90621L5.59667 6.93779C5.26138 7.40447 4.98832 7.91285 4.78438 8.45008C4.63827 8.83536 4.54045 9.23726 4.49315 9.64658C4.46157 9.93403 4.46157 10.2241 4.49315 10.5115C4.49315 10.5255 4.49315 10.5466 4.49315 10.5519C4.42648 10.5992 4.35981 10.6431 4.29139 10.6887C4.2867 10.6762 4.28317 10.6633 4.28087 10.6501C4.16943 10.1774 4.12397 9.69145 4.14578 9.20623C4.15789 8.89503 4.22131 8.58798 4.3335 8.29745C4.3335 8.29745 4.3335 8.27991 4.3335 8.27113C4.2957 8.32261 4.26337 8.37788 4.23701 8.43605C4.03269 8.88231 3.92393 9.36635 3.91771 9.85711C3.9048 10.3021 3.94306 10.7472 4.03174 11.1834C3.98462 11.1956 3.93549 11.1978 3.88747 11.19C3.83945 11.1821 3.79358 11.1644 3.75279 11.1378C3.75279 11.1519 3.75279 11.1712 3.74051 11.1799C3.55011 11.3906 3.39008 11.6268 3.26507 11.8817L3.25279 11.901C3.1563 11.7994 3.08008 11.6803 3.02822 11.5501C3.01321 11.6034 3.00323 11.6581 2.9984 11.7133C2.99197 11.8925 3.02058 12.0713 3.08261 12.2396C3.09036 12.2597 3.09313 12.2813 3.09068 12.3027C3.08824 12.3241 3.08065 12.3446 3.06858 12.3624C2.99796 12.2816 2.94852 12.1846 2.92471 12.0799C2.89216 12.1237 2.87379 12.1763 2.87208 12.2308C2.86808 12.3716 2.89628 12.5114 2.95454 12.6396C2.99664 12.7396 2.94226 12.8238 2.937 12.9273C2.92113 12.909 2.90648 12.8897 2.89314 12.8694C2.75454 12.6642 2.60892 12.4642 2.4791 12.2536C2.16536 11.7614 1.91651 11.2307 1.73874 10.6747C1.73177 10.6512 1.73177 10.6262 1.73874 10.6027C2.02933 9.80354 2.4855 9.07475 3.07735 8.46412L3.10717 8.43956C3.10653 8.44949 3.10653 8.45945 3.10717 8.46938C3.08086 8.67465 3.05103 8.88167 3.03349 9.08693C2.99847 9.44761 3.01441 9.81141 3.08086 10.1676C3.12229 10.4083 3.217 10.6367 3.35805 10.8361C3.45677 10.9727 3.59165 11.079 3.74753 11.1431C3.70893 11.1045 3.66683 11.0676 3.63174 11.0255C3.53774 10.9092 3.46579 10.7766 3.41946 10.6343C3.32487 10.3355 3.28099 10.023 3.28963 9.70974C3.28914 9.39865 3.31083 9.08792 3.35454 8.77991C3.39532 8.45027 3.46101 8.12419 3.55104 7.80446C3.60695 7.59535 3.69199 7.39515 3.80367 7.20972C3.82319 7.18495 3.84556 7.16257 3.87034 7.14305C3.88607 7.16972 3.899 7.19794 3.90893 7.22727C3.93442 7.32148 3.93442 7.42077 3.90893 7.51499C3.77022 7.91139 3.6841 8.32427 3.65279 8.74307C3.65279 8.83254 3.64226 8.91851 3.637 9.00798C3.65981 8.92903 3.67033 8.84833 3.68788 8.76938C3.78389 8.24756 4.05047 7.7724 4.44578 7.4185C4.48479 7.3847 4.5278 7.35583 4.57385 7.33253C4.86489 7.1824 5.16555 7.05171 5.47386 6.9413L5.61947 6.89218ZM14.5827 2.81495C14.5801 2.84583 14.5724 2.87606 14.5599 2.90442C14.4519 3.23154 14.4084 3.57652 14.4318 3.92022C14.4389 3.98201 14.4389 4.0444 14.4318 4.10619C14.343 4.45722 14.194 4.79021 13.9915 5.09041V5.07111C13.9635 4.54269 13.997 4.01281 14.0915 3.49215C14.1246 3.301 14.1905 3.117 14.2862 2.94828C14.334 2.86371 14.4029 2.79298 14.4862 2.74302C14.5125 2.72898 14.5424 2.71846 14.5634 2.74302C14.5766 2.76464 14.5833 2.78961 14.5827 2.81495ZM14.8003 5.62199C14.7173 5.68427 14.6293 5.73944 14.5371 5.7869C14.2101 5.94064 13.8744 6.07537 13.5318 6.19042C13.334 6.26445 13.1683 6.40533 13.0634 6.58866C13.0283 6.64305 12.9932 6.70095 12.9581 6.7641C12.9604 6.74618 12.9645 6.72853 12.9704 6.71147C13.0108 6.57463 13.0564 6.43954 13.088 6.30094C13.1308 6.11052 13.2062 5.92891 13.3108 5.7641C13.3687 5.67462 13.4336 5.58866 13.4862 5.49743C13.5231 5.44226 13.5542 5.38347 13.5792 5.32199C13.5894 5.28174 13.5959 5.24063 13.5985 5.19918H13.5792C13.5609 5.21344 13.5433 5.22866 13.5266 5.24479C13.4634 5.31672 13.4038 5.39041 13.3406 5.46058C13.3266 5.47637 13.295 5.49216 13.2809 5.4869C13.2716 5.48049 13.2639 5.47184 13.2587 5.46173C13.2535 5.45162 13.2509 5.44037 13.2511 5.42901C13.2554 5.35075 13.2677 5.27314 13.288 5.19742C13.3213 5.09742 13.3739 5.00269 13.4125 4.90444C13.4318 4.8549 13.4442 4.80295 13.4494 4.75005C13.4494 4.72549 13.4266 4.69917 13.416 4.67286C13.3936 4.68544 13.3725 4.70013 13.3529 4.71672C13.3231 4.75005 13.2985 4.78689 13.2669 4.81847C13.2353 4.85005 13.2073 4.84304 13.1897 4.80444C13.1745 4.77779 13.1672 4.74737 13.1687 4.71672C13.1809 4.64695 13.1967 4.57785 13.216 4.5097C13.2318 4.44654 13.2546 4.38514 13.2687 4.32198C13.2735 4.29989 13.2716 4.27686 13.2631 4.25588C13.2547 4.23491 13.2401 4.21698 13.2213 4.20443C13.209 4.22373 13.195 4.23952 13.1862 4.25707C13.1774 4.27461 13.1564 4.33426 13.1388 4.3711C13.1049 4.45966 13.0663 4.54633 13.023 4.63075C12.9845 4.70444 12.9459 4.69742 12.9037 4.63075C12.8213 4.49216 12.7406 4.3518 12.6494 4.21847C12.5999 4.14988 12.5696 4.06933 12.5616 3.98513C12.5511 3.87285 12.5459 3.75882 12.5336 3.64478C12.5326 3.62063 12.5266 3.59695 12.5161 3.57521C12.5055 3.55347 12.4905 3.53415 12.4722 3.51846C12.4616 3.56583 12.4546 3.60618 12.4458 3.64478C12.4371 3.68338 12.4266 3.76232 12.4108 3.82022C12.395 3.87811 12.3669 3.86408 12.3476 3.82022C12.3297 3.7864 12.3184 3.74949 12.3143 3.71145C12.3143 3.64303 12.3143 3.57285 12.3143 3.50267C12.3113 3.47054 12.303 3.43912 12.2897 3.40969C12.2897 3.39741 12.2669 3.38864 12.2564 3.37811C12.2465 3.38949 12.2388 3.40257 12.2336 3.41671C12.2319 3.43421 12.2319 3.45184 12.2336 3.46934C12.2281 3.52062 12.2199 3.57157 12.209 3.62197C12.1967 3.67636 12.1634 3.68689 12.1283 3.64303C12.0977 3.60147 12.074 3.55527 12.0581 3.50618C12.0353 3.4325 12.0248 3.35355 12.002 3.27811C11.9882 3.24242 11.9686 3.20924 11.9441 3.17986C11.9382 3.174 11.9309 3.16979 11.9229 3.16763C11.9149 3.16548 11.9065 3.16546 11.8985 3.16758C11.888 3.16758 11.8792 3.19214 11.8774 3.20618C11.8774 3.26407 11.8774 3.32197 11.8774 3.38162V3.46934H11.8581C11.8504 3.46439 11.8433 3.45849 11.8371 3.4518C11.7777 3.39077 11.7385 3.313 11.7248 3.22899C11.7248 3.19039 11.7248 3.15179 11.7108 3.1132C11.7101 3.10379 11.7073 3.09466 11.7027 3.08646C11.698 3.07827 11.6916 3.07122 11.6838 3.06583C11.6761 3.06045 11.6672 3.05687 11.6579 3.05535C11.6486 3.05383 11.6391 3.05441 11.6301 3.05706C11.6062 3.06091 11.5846 3.07342 11.5694 3.09219C11.5542 3.11096 11.5464 3.13468 11.5476 3.15881C11.5476 3.19741 11.5476 3.23776 11.5476 3.28162L11.4002 3.17635C10.9046 2.93184 10.3704 2.77513 9.82127 2.71319C9.46591 2.66548 9.1052 2.67495 8.75284 2.74126C8.53647 2.77753 8.33125 2.86274 8.15283 2.99039C8.12651 3.00969 8.10195 3.03249 8.07739 3.05355C8.22642 2.95758 8.39265 2.89145 8.56687 2.85881C8.88798 2.80443 9.21594 2.80443 9.53705 2.85881C10.1017 2.93998 10.6472 3.12181 11.1476 3.39565C11.5404 3.60146 11.89 3.88079 12.1774 4.21847L12.2388 4.29742C11.6546 4.01847 10.9932 4.54303 10.3318 4.3097C11.2388 4.77637 11.7739 4.17636 12.2862 4.56409C12.416 4.66409 12.4388 4.91497 12.1423 4.87637C11.8458 4.83777 12.5687 4.97637 12.6967 5.71497C12.6882 5.8389 12.6706 5.96203 12.6441 6.0834C12.5176 6.62341 12.2665 7.12631 11.9108 7.55183C11.546 7.99401 11.0907 8.35294 10.5757 8.60447H10.5493C10.5493 8.60447 10.5493 8.60447 10.5493 8.59394L10.5704 8.56061C10.8245 8.20332 11.0095 7.80168 11.116 7.37639C11.1885 7.08766 11.1825 6.78479 11.0985 6.49919C10.9915 6.18258 10.7846 5.90924 10.509 5.72024C10.2006 5.50632 9.8575 5.34726 9.49495 5.25006C9.41775 5.22549 9.3388 5.2062 9.25284 5.18163C9.25284 5.19216 9.26337 5.19567 9.26512 5.19567L9.31073 5.21497C9.56083 5.30947 9.79691 5.43755 10.0125 5.59567C10.3305 5.81166 10.5641 6.13082 10.6739 6.49919C10.7581 6.83183 10.7545 7.18066 10.6634 7.51148C10.5494 7.94004 10.3663 8.34715 10.1213 8.71675C10.075 8.80118 9.99756 8.86415 9.90548 8.89219C9.78618 8.92728 9.67039 8.9729 9.54232 9.01851C9.68703 8.84676 9.7898 8.64369 9.84247 8.42536C9.89515 8.20704 9.8963 7.97945 9.84583 7.7606C9.84504 7.76525 9.84504 7.76999 9.84583 7.77464C9.83151 8.03051 9.74582 8.27726 9.59846 8.48693C9.37681 8.79707 9.0869 9.05216 8.75108 9.23255C8.72335 9.24452 8.69457 9.25391 8.66511 9.26062C8.78504 9.12564 8.87582 8.96737 8.93178 8.7957C8.98531 8.62557 8.99734 8.44511 8.96687 8.26938C8.92147 8.43734 8.84139 8.59392 8.73178 8.72903C8.52353 8.99928 8.27502 9.23596 7.99493 9.43079C7.80671 9.56009 7.6042 9.66723 7.39142 9.75009C7.00961 9.8837 6.61999 9.99385 6.22474 10.0799C5.87386 10.1641 5.53526 10.2554 5.19316 10.3466C5.00307 10.3952 4.82429 10.4804 4.66683 10.5975C4.61705 10.4515 4.58926 10.299 4.58438 10.1448C4.55806 8.0957 6.18966 7.00446 6.68615 6.43252C6.82127 6.26078 6.92249 6.0649 6.9844 5.85532C7.01422 5.77287 7.04054 5.67988 7.06686 5.60094L7.07914 5.61497C7.23246 5.86841 7.28798 6.16911 7.23528 6.46059C7.15392 6.92782 6.92741 7.35753 6.5879 7.68867L6.56861 7.70973L6.59843 7.69569C6.89267 7.5309 7.15862 7.32004 7.38616 7.07112C7.76156 6.66212 7.97922 6.1329 8.0002 5.57813C8.004 5.32984 7.98757 5.08164 7.95107 4.83602C7.91347 4.51722 7.77864 4.21772 7.56488 3.97823C7.35113 3.73874 7.06882 3.57086 6.75633 3.49741C6.70774 3.48511 6.66067 3.46746 6.61597 3.44478C6.60223 3.43875 6.58986 3.43 6.57961 3.41904C6.56936 3.40807 6.56145 3.39514 6.55636 3.38103C6.55127 3.36691 6.54911 3.3519 6.55001 3.33692C6.55091 3.32195 6.55485 3.30731 6.56159 3.2939C6.57021 3.27052 6.58139 3.24816 6.59492 3.22723C6.70633 3.05007 6.8555 2.8997 7.03177 2.78688C7.123 2.72723 7.20721 2.66933 7.30195 2.61144C7.65774 2.34983 8.05767 2.15432 8.48266 2.03424C8.65739 1.97686 8.84101 1.95131 9.02477 1.9588C9.08442 1.9588 9.14056 1.98512 9.20021 1.99213C9.22477 1.99213 9.25109 1.9781 9.27565 1.97108C9.26398 1.95334 9.2498 1.93738 9.23354 1.92371C9.12165 1.86457 8.99694 1.83384 8.87038 1.83424C8.6848 1.83521 8.49995 1.85758 8.3195 1.9009H8.26336C8.41041 1.77676 8.58288 1.68633 8.76862 1.63599C9.06677 1.54893 9.37882 1.51975 9.68793 1.55002C9.78921 1.54954 9.88932 1.57172 9.98092 1.61494C10.0721 1.66582 10.1669 1.70792 10.2599 1.75354C10.2792 1.75354 10.302 1.76757 10.323 1.77459L10.3265 1.76231C10.316 1.73775 10.309 1.71143 10.2967 1.68687L10.1914 1.49213C10.1888 1.47704 10.1888 1.4616 10.1914 1.44652C10.2053 1.44302 10.2197 1.44302 10.2335 1.44652C10.3058 1.46719 10.3767 1.49238 10.4458 1.52195C10.542 1.56523 10.6457 1.58908 10.7511 1.59213C10.895 1.60266 11.0406 1.61494 11.1844 1.63599C11.2845 1.64748 11.3802 1.68342 11.4631 1.74063C11.5461 1.79784 11.6136 1.87457 11.6599 1.96406C11.6844 2.00792 11.7108 2.05178 11.7371 2.09389C11.7472 2.10867 11.7583 2.12274 11.7704 2.13599H11.7862C11.7529 2.02371 11.7213 1.91143 11.6862 1.79389C11.8097 1.8279 11.9191 1.90043 11.9985 2.00091C12.0441 2.05354 12.0862 2.10968 12.1301 2.16231C12.1504 2.18188 12.1721 2.20005 12.195 2.2167H12.2125L12.1862 1.99213H12.2002L12.4037 2.1167C12.6395 2.24718 12.847 2.42308 13.0143 2.63424C13.0371 2.66582 13.0529 2.66056 13.0652 2.62372C13.0774 2.58688 13.088 2.52898 13.1055 2.48337C13.1055 2.46933 13.1283 2.45003 13.1406 2.45003C13.1496 2.45173 13.158 2.45545 13.1653 2.46093C13.1726 2.4664 13.1786 2.47348 13.1827 2.48161C13.1929 2.51223 13.1988 2.54411 13.2002 2.57635C13.2002 2.64126 13.2002 2.70618 13.209 2.77109C13.209 2.79039 13.2336 2.80968 13.2459 2.82723C13.2616 2.81319 13.2845 2.80091 13.2932 2.78337C13.3195 2.73074 13.3388 2.67284 13.3634 2.62021C13.388 2.56758 13.3985 2.56758 13.4301 2.62021C13.4474 2.65107 13.473 2.67647 13.504 2.69352C13.535 2.71058 13.5702 2.71861 13.6055 2.7167C13.6792 2.7167 13.6897 2.7167 13.716 2.78512C13.7634 2.90091 13.8038 3.02021 13.8511 3.136C13.8739 3.19039 13.909 3.24127 13.9371 3.2939C13.941 3.30825 13.941 3.32341 13.9371 3.33776C13.8472 3.65196 13.8041 3.97767 13.809 4.30443C13.809 4.60619 13.809 4.9097 13.809 5.21146C13.8207 5.4487 13.7402 5.68126 13.5845 5.86059L13.6546 5.83252C13.7655 5.77225 13.8633 5.69055 13.9424 5.59216C14.1141 5.37337 14.2503 5.12884 14.3459 4.8676C14.4301 4.66233 14.5213 4.45531 14.602 4.25005C14.6285 4.20025 14.659 4.15272 14.6932 4.10794C14.6932 4.09742 14.7248 4.08513 14.7336 4.0904C14.7412 4.09433 14.7477 4.10006 14.7526 4.10709C14.7575 4.11413 14.7606 4.12225 14.7617 4.13075C14.7652 4.16458 14.7652 4.19868 14.7617 4.2325C14.7424 4.40037 14.7424 4.5699 14.7617 4.73777C14.7668 4.76383 14.7668 4.79066 14.7617 4.81672C14.7055 5.04142 14.6105 5.25458 14.481 5.44655C14.4743 5.45601 14.4685 5.46598 14.4634 5.47637C14.557 5.43107 14.6355 5.35981 14.6897 5.27111C14.7441 5.19216 14.7932 5.10795 14.8476 5.02198C14.8704 5.11497 14.8932 5.19742 14.9143 5.29567C14.9351 5.35494 14.9351 5.4195 14.9144 5.47878C14.8937 5.53807 14.8534 5.58856 14.8003 5.62199ZM14.909 6.97112C14.6496 7.20628 14.3532 7.39713 14.0318 7.53604C13.594 7.72925 13.1379 7.87795 12.6704 7.9799C12.5037 8.0185 12.3353 8.05359 12.1581 8.09043L12.3581 7.84306C12.367 7.8356 12.3781 7.83128 12.3897 7.83078C12.6801 7.79997 12.9645 7.72668 13.2336 7.61323C13.8491 7.34769 14.4064 6.96381 14.8739 6.4834L14.8862 6.46761C14.871 6.47268 14.8567 6.4804 14.8441 6.49042C14.4426 6.77229 14.0237 7.02836 13.5897 7.25709C13.3115 7.40686 13.0173 7.52457 12.7125 7.60797C12.6406 7.62552 12.5669 7.6378 12.4827 7.65534C12.4907 7.64424 12.4977 7.63251 12.5037 7.62025C12.6002 7.44481 12.7055 7.28867 12.7897 7.11323C12.8392 7.00825 12.9147 6.91766 13.009 6.85007C13.36 6.59377 13.7356 6.37281 14.1301 6.19042H14.1511C14.0267 6.43571 13.8366 6.64162 13.602 6.78516C13.6684 6.77551 13.734 6.76144 13.7985 6.74305C13.9895 6.67757 14.165 6.57368 14.3143 6.43779C14.5038 6.27989 14.688 6.11322 14.881 5.95708C14.9785 5.87326 15.0857 5.8014 15.2003 5.74304C15.3242 5.69233 15.4521 5.65184 15.5827 5.62199C15.6211 5.61103 15.6605 5.60398 15.7003 5.60094C15.6895 5.67476 15.6749 5.74797 15.6564 5.82024C15.5083 6.26074 15.2512 6.65664 14.909 6.97112ZM12.5511 10.4396C12.4558 10.4934 12.3553 10.5375 12.2511 10.5712C12.0379 10.6243 11.818 10.6462 11.5985 10.6361C11.4423 10.6361 11.2862 10.6361 11.1318 10.6361C11.0922 10.6404 11.0529 10.6474 11.0143 10.6571V10.6782C11.0476 10.6905 11.0809 10.7062 11.1143 10.7168L11.4406 10.8045C11.4609 10.8128 11.4809 10.8222 11.5002 10.8326V10.8448C11.4869 10.8522 11.4727 10.8581 11.4581 10.8624C11.2406 10.9045 11.023 10.9571 10.8037 10.9887C10.4316 11.0356 10.0638 11.1119 9.70372 11.2168C9.67295 11.2256 9.64093 11.2291 9.60898 11.2273L8.51599 11.1501C8.09637 11.1124 7.6742 11.1124 7.25458 11.1501C6.7797 11.2005 6.31363 11.3138 5.8686 11.487C5.23321 11.7407 4.6367 12.0827 4.09665 12.5028L4.07034 12.5273C4.08638 12.5231 4.10174 12.5166 4.11595 12.508C4.61161 12.2055 5.13292 11.9472 5.67386 11.7361C6.13337 11.5583 6.61205 11.4346 7.10019 11.3677C7.45356 11.3258 7.80932 11.3077 8.16511 11.3133C8.56336 11.3133 8.96336 11.3133 9.36161 11.3133H9.3774L9.34758 11.3238C8.99137 11.4599 8.65457 11.6421 8.34581 11.8659C8.2537 11.9328 8.15273 11.9865 8.04581 12.0256C7.96336 12.0571 7.87037 12.0887 7.79493 12.115C7.35695 12.2384 6.91162 12.3339 6.46159 12.401C6.09316 12.4677 5.72474 12.5361 5.35807 12.6168C5.02447 12.6844 4.7032 12.8028 4.40543 12.9677C4.15777 13.0993 3.94621 13.2897 3.78929 13.5222C3.63237 13.7547 3.5349 14.0221 3.50542 14.301C3.49139 14.3922 3.48437 14.4765 3.4756 14.5694C3.45805 14.5361 3.43875 14.4957 3.41595 14.4572C3.21749 14.1371 3.09006 13.7781 3.04226 13.4045C3.00715 13.1625 3.03092 12.9156 3.11154 12.6847C3.19217 12.4538 3.32728 12.2457 3.50542 12.0782C3.52039 12.0624 3.53229 12.0439 3.54051 12.0238C3.5949 11.915 3.63876 11.801 3.70191 11.6975C3.88335 11.4128 4.12686 11.1729 4.4142 10.9957C4.7915 10.7577 5.19773 10.5691 5.62298 10.4343C6.29315 10.219 6.97719 10.0496 7.67037 9.92729C8.23353 9.82027 8.79669 9.71501 9.35986 9.60623C10.3559 9.43075 11.2759 8.95941 12.0002 8.25359C12.0164 8.23969 12.0368 8.23165 12.0581 8.23078C12.3236 8.22502 12.5882 8.19804 12.8494 8.15008C13.5722 8.01219 14.2582 7.72476 14.8634 7.30621L14.9003 7.28516C14.9003 7.30621 14.9003 7.32025 14.9003 7.33253C14.8489 7.56099 14.7796 7.78507 14.6932 8.00271C14.2904 9.04312 13.5313 9.9067 12.5511 10.4396ZM18.4319 16.0063C18.4116 16.1835 18.3805 16.3592 18.3389 16.5326C18.3175 16.6574 18.2606 16.7734 18.175 16.8667C18.0895 16.96 17.9789 17.0267 17.8564 17.0589C17.7423 17.0917 17.6243 17.1088 17.5055 17.1098C17.2686 17.1062 17.0329 17.0738 16.8038 17.0133C16.6098 16.9704 16.4247 16.8944 16.2564 16.7888C16.0953 16.6928 15.9786 16.537 15.9318 16.3554C15.9089 16.2396 15.9089 16.1204 15.9318 16.0045C15.9339 15.9847 15.9418 15.9658 15.9546 15.9505C15.9675 15.9352 15.9846 15.9241 16.0038 15.9186C16.3853 15.785 16.6999 15.5081 16.881 15.1466C16.8904 15.1243 16.906 15.1051 16.9258 15.0911C16.9457 15.0772 16.969 15.069 16.9933 15.0677C17.1721 15.0372 17.356 15.063 17.5196 15.1414C17.5689 15.1681 17.624 15.1821 17.6801 15.1821C17.7362 15.1821 17.7913 15.1681 17.8406 15.1414C17.8839 15.1196 17.9251 15.0938 17.9634 15.0642C18.0126 15.0273 18.0564 14.9852 18.1091 14.9379C18.1124 14.9453 18.1165 14.9524 18.1213 14.9589C18.2424 15.1027 18.3325 15.2699 18.386 15.4502C18.4394 15.6304 18.455 15.8197 18.4319 16.0063ZM15.6108 16.787C15.6402 16.8073 15.6678 16.8302 15.6932 16.8554C15.9191 17.0645 16.1846 17.2261 16.474 17.3309C16.7324 17.423 17.0033 17.4756 17.2775 17.487C17.4804 17.5044 17.6847 17.489 17.8827 17.4414C18.0178 17.4045 18.1477 17.3484 18.281 17.3045C18.3091 17.3045 18.3529 17.2888 18.3705 17.3045C18.388 17.3203 18.3792 17.3695 18.3705 17.4028C18.2801 17.584 18.147 17.7406 17.9827 17.8589C17.6868 18.0597 17.3247 18.1382 16.9722 18.0782C16.9181 18.0714 16.8633 18.0825 16.8161 18.1098C16.7933 18.1221 16.7792 18.1502 16.7617 18.1712V18.1835H16.8003C16.8662 18.1774 16.9326 18.1774 16.9985 18.1835C17.0447 18.1889 17.0887 18.2062 17.1263 18.2337C17.1638 18.2611 17.1937 18.2978 17.2129 18.3401C17.2321 18.3824 17.2401 18.429 17.236 18.4754C17.232 18.5217 17.216 18.5662 17.1898 18.6046C17.1728 18.6353 17.147 18.6603 17.1158 18.6762C17.0845 18.6922 17.0491 18.6984 17.0143 18.694C16.9371 18.694 16.9003 18.6274 16.874 18.5607C16.8678 18.5444 16.8642 18.5272 16.8634 18.5098C16.8634 18.4432 16.8494 18.4326 16.781 18.4361C16.7162 18.4387 16.6518 18.4457 16.588 18.4572C16.5713 18.4616 16.5538 18.4626 16.5367 18.4601C16.5196 18.4576 16.5032 18.4517 16.4884 18.4427C16.4737 18.4336 16.4609 18.4217 16.4509 18.4076C16.4409 18.3936 16.4338 18.3776 16.4301 18.3607C16.421 18.3318 16.4179 18.3013 16.4209 18.2712C16.4239 18.241 16.433 18.2118 16.4476 18.1853C16.481 18.1256 16.5231 18.0695 16.5582 18.0098C16.4617 17.9695 16.3547 17.9326 16.2547 17.8817C16.0705 17.7944 15.9087 17.6662 15.7816 17.5069C15.6545 17.3476 15.5655 17.1614 15.5213 16.9624C15.5114 16.9205 15.5067 16.8775 15.5073 16.8344C15.5248 16.7712 15.5582 16.7537 15.6108 16.787ZM15.809 16.2607C15.8316 16.3497 15.8603 16.437 15.895 16.5221C15.9834 16.6983 16.1313 16.8375 16.3126 16.9151C16.7414 17.1167 17.2156 17.2026 17.688 17.1642C17.8269 17.1621 17.9624 17.1215 18.0795 17.0468C18.1966 16.9722 18.2907 16.8664 18.3512 16.7414C18.3923 16.7588 18.428 16.7871 18.4543 16.8233C18.4806 16.8594 18.4965 16.9021 18.5003 16.9466C18.5074 16.9831 18.5034 17.0209 18.4887 17.055C18.474 17.0892 18.4493 17.118 18.4178 17.1379C18.3236 17.1924 18.2243 17.2377 18.1213 17.273C17.691 17.3992 17.2344 17.4065 16.8003 17.294C16.4637 17.2174 16.1488 17.0656 15.8792 16.8502C15.7684 16.7723 15.6766 16.6703 15.6108 16.5519C15.5943 16.5211 15.5853 16.4868 15.5845 16.4519C15.5933 16.399 15.6201 16.3507 15.6604 16.3152C15.7006 16.2798 15.7519 16.2593 15.8055 16.2572L15.809 16.2607ZM1.92646 14.0308C1.67301 13.6047 1.48884 13.141 1.38084 12.6571C1.37971 12.3429 1.40317 12.0291 1.45102 11.7185C1.46154 11.6466 1.47558 11.5747 1.48786 11.5027C1.49861 11.5135 1.50646 11.5267 1.51067 11.5413C1.5633 11.7168 1.60891 11.8922 1.66856 12.0677C1.98807 12.9597 2.45803 13.7905 3.05805 14.5238C3.08037 14.5509 3.0976 14.5818 3.10893 14.615C3.23393 15.0039 3.41987 15.3705 3.65981 15.701C3.39489 15.587 3.09138 15.5466 2.72998 15.1308C3.17384 15.987 4.22473 16.3256 4.22473 16.3256C4.80455 16.8383 5.49691 17.2073 6.2458 17.4028C6.3072 17.4203 6.3686 17.4326 6.43001 17.4484C6.41772 17.4366 6.40262 17.4282 6.38615 17.4238C5.82744 17.2264 5.30476 16.939 4.83877 16.573C4.25864 16.1283 3.81344 15.5313 3.55279 14.8484C3.51937 14.7794 3.51433 14.7 3.53875 14.6273C3.55981 14.5747 3.56858 14.5186 3.58612 14.4642C3.69404 14.0569 3.90839 13.6857 4.20718 13.3887C4.50781 13.1189 4.8688 12.9252 5.25982 12.8238C5.72808 12.7035 6.20495 12.6196 6.68615 12.5729C6.96335 12.5378 7.24054 12.494 7.51598 12.4519C7.59142 12.4396 7.66511 12.422 7.74405 12.4063C7.73973 12.4116 7.73618 12.4175 7.73353 12.4238C7.51633 12.6642 7.33332 12.9334 7.18966 13.2238C7.18502 13.2337 7.17843 13.2425 7.17029 13.2497C7.16214 13.2569 7.15262 13.2625 7.14229 13.2659C7.01581 13.3114 6.88697 13.3501 6.75633 13.3817C6.56159 13.4203 6.36334 13.4343 6.1686 13.4729C5.12473 13.68 4.80368 14.2396 4.80894 14.2343C5.12473 13.8975 5.63176 13.8028 5.76684 13.7554C6.07777 13.6554 6.40358 13.6097 6.73001 13.6203C6.82475 13.6203 6.92124 13.6203 7.01949 13.6326C6.72124 14.5542 6.77245 15.5533 7.16335 16.4396C7.16585 16.4233 7.16585 16.4068 7.16335 16.3905C6.99771 15.805 6.95353 15.1919 7.03352 14.5887C7.1315 13.8691 7.47112 13.2041 7.99669 12.7028C8.40142 12.3244 8.8701 12.0208 9.38091 11.8063C9.86672 11.6041 10.37 11.4467 10.8844 11.3361C11.2686 11.2431 11.6564 11.1606 12.0371 11.0396C12.544 10.8967 13.0107 10.6378 13.4002 10.2834C13.4639 10.2304 13.5226 10.1716 13.5757 10.108C13.8947 9.68126 14.3174 9.34309 14.8038 9.12553C14.8423 9.00556 14.9017 8.89332 14.9792 8.79395C15.1027 8.6345 15.2486 8.49385 15.4125 8.3764C15.462 8.34407 15.5175 8.322 15.5757 8.31149C15.5887 8.30813 15.6023 8.3075 15.6156 8.30962C15.6289 8.31173 15.6416 8.31656 15.653 8.3238C15.6643 8.33104 15.6741 8.34053 15.6816 8.35169C15.6891 8.36286 15.6943 8.37544 15.6968 8.38868C15.6968 8.40622 15.6968 8.42377 15.709 8.44131C15.7454 8.4532 15.7793 8.47163 15.809 8.4957L15.8722 8.55008C15.9598 8.6432 16.03 8.75137 16.0792 8.86939C16.0829 8.8805 16.0899 8.8902 16.0993 8.89712C16.1088 8.90404 16.1201 8.90784 16.1318 8.90798L16.3073 8.93605C16.7931 9.02502 17.2363 9.2712 17.5685 9.63671C17.9007 10.0022 18.1036 10.4668 18.1459 10.9589C18.1497 11.0564 18.1626 11.1533 18.1845 11.2484C18.2278 11.3642 18.2782 11.4773 18.3354 11.587C18.3792 11.6852 18.4301 11.7817 18.4687 11.8834C18.5093 11.9846 18.5142 12.0966 18.4827 12.201C18.4722 12.2378 18.4494 12.2484 18.4213 12.2308C18.3933 12.2133 18.3441 12.1729 18.3055 12.1431C18.2602 12.1051 18.2121 12.0705 18.1617 12.0396C18.1416 12.0275 18.1177 12.0234 18.0947 12.0279C18.0717 12.0325 18.0512 12.0454 18.0371 12.0642L18.0582 12.0817L18.3634 12.3554C18.3752 12.3691 18.382 12.3864 18.3827 12.4045C18.3781 12.5457 18.3212 12.6801 18.2231 12.7817C18.1663 12.8495 18.0917 12.9002 18.0078 12.9281C17.9238 12.9559 17.8337 12.9599 17.7476 12.9396C17.7476 13.0115 17.7371 13.0238 17.6968 13.0466C17.4349 13.1935 17.1391 13.2691 16.8389 13.2659C16.6199 13.268 16.4055 13.3286 16.2178 13.4414C16.1577 13.4761 16.0934 13.5032 16.0266 13.5221C15.8176 13.5732 15.6032 13.5991 15.388 13.5993H15.3353C15.3439 13.609 15.3558 13.6153 15.3687 13.6168C15.5413 13.6556 15.7189 13.6668 15.895 13.6501C15.9529 13.6382 16.0126 13.6382 16.0704 13.6501C16.2143 13.7098 16.3547 13.78 16.495 13.8519C16.5115 13.8625 16.53 13.8694 16.5494 13.8721C16.5688 13.8749 16.5885 13.8733 16.6073 13.8677C16.6968 13.8343 16.7827 13.801 16.8722 13.7624C17.0499 13.6746 17.2487 13.6387 17.4459 13.6589C17.557 13.6699 17.6645 13.704 17.7617 13.7589C17.7949 13.7751 17.8231 13.8 17.8435 13.8308C17.8639 13.8617 17.8756 13.8974 17.8775 13.9343C17.8811 13.9473 17.8884 13.9589 17.8985 13.9677L17.9792 14.0361C18.0138 14.0697 18.0399 14.1112 18.0551 14.157C18.0704 14.2028 18.0744 14.2516 18.067 14.2993C18.067 14.387 18.0336 14.401 17.9564 14.3624C17.9397 14.3508 17.9198 14.3446 17.8994 14.3446C17.879 14.3446 17.8591 14.3508 17.8424 14.3624C17.8915 14.394 17.9406 14.4221 17.9862 14.4536C18.0175 14.4753 18.0423 14.505 18.0581 14.5395C18.0738 14.5741 18.0799 14.6124 18.0757 14.6501C18.0682 14.7083 18.0491 14.7644 18.0196 14.8151C17.99 14.8657 17.9506 14.91 17.9037 14.9451C17.8567 14.9803 17.8032 15.0057 17.7463 15.0198C17.6893 15.0339 17.6301 15.0365 17.5722 15.0273C17.5345 15.0224 17.4984 15.0094 17.4663 14.9891C17.4341 14.9688 17.4068 14.9417 17.3862 14.9098C17.3848 14.9044 17.3822 14.8993 17.3786 14.8951C17.3749 14.8908 17.3703 14.8874 17.3652 14.8852C17.3064 14.8862 17.2478 14.8915 17.1898 14.901C17.086 14.9331 16.9765 14.9427 16.8687 14.9291C16.8196 14.9291 16.7687 14.9063 16.7178 14.894C16.674 15.0316 16.6043 15.1597 16.5126 15.2712C16.3058 15.5224 16.0283 15.7058 15.7161 15.7975C15.3122 15.9237 14.8844 15.9537 14.4669 15.8852C14.1838 15.8559 13.9146 15.7475 13.69 15.5726C13.4654 15.3976 13.2945 15.1631 13.1967 14.8958C13.1453 14.7508 13.1013 14.6032 13.0652 14.4536C12.9963 14.216 12.9003 13.987 12.7792 13.7712C12.5925 13.4237 12.3083 13.1383 11.9616 12.9501C11.5709 12.7476 11.1224 12.6857 10.6914 12.7747C10.609 12.7905 10.5265 12.8115 10.4336 12.8326C10.595 12.8326 10.7441 12.8449 10.8897 12.8606C11.2961 12.8971 11.6882 13.0293 12.0336 13.2466C12.4522 13.486 12.7597 13.8805 12.8897 14.3449C12.9595 14.6067 13.0559 14.8606 13.1774 15.1028C13.2529 15.2673 13.3522 15.4198 13.4722 15.5554C13.6792 15.766 13.9412 15.9143 14.2283 15.9835C14.3178 16.008 14.4038 16.0361 14.4915 16.0642C14.5118 16.0711 14.5303 16.0826 14.5456 16.0978C14.5608 16.113 14.5723 16.1315 14.5792 16.1519C14.6274 16.274 14.6396 16.4073 14.6143 16.5361C14.5728 16.7376 14.4769 16.9239 14.3371 17.0747C14.2164 17.2037 14.0789 17.3158 13.9283 17.4081C13.8566 17.4556 13.788 17.5077 13.7231 17.5642C13.695 17.5865 13.6725 17.6152 13.6576 17.6478C13.6427 17.6804 13.6356 17.7161 13.6371 17.7519C13.6371 17.8853 13.6511 17.9063 13.7845 17.8624L13.8459 17.8379L14.1722 17.6975C14.3771 17.6064 14.6057 17.583 14.8248 17.6309C14.9421 17.6533 15.0509 17.7076 15.1394 17.7877C15.2279 17.8678 15.2927 17.9708 15.3266 18.0853C15.337 18.109 15.3424 18.1347 15.3424 18.1607C15.3424 18.1867 15.337 18.2124 15.3266 18.2361C15.3186 18.2485 15.308 18.259 15.2956 18.2668C15.2832 18.2747 15.2692 18.2798 15.2546 18.2817C15.2318 18.2817 15.2055 18.2572 15.1862 18.2361C15.1669 18.2151 15.1757 18.201 15.1704 18.1817C15.1619 18.1342 15.143 18.0892 15.1151 18.0498C15.0872 18.0104 15.051 17.9776 15.009 17.9537C14.9902 17.9468 14.9708 17.9415 14.9511 17.9379C15.011 17.9972 15.0576 18.0685 15.0879 18.1471C15.1181 18.2257 15.1313 18.3099 15.1266 18.394C15.1256 18.425 15.1181 18.4553 15.1048 18.4833C15.0915 18.5112 15.0726 18.5361 15.0492 18.5564C15.0258 18.5766 14.9984 18.5918 14.9689 18.601C14.9393 18.6102 14.9082 18.6132 14.8774 18.6098C14.8371 18.6098 14.8108 18.5888 14.8055 18.5502C14.8029 18.5028 14.8029 18.4554 14.8055 18.4081C14.8055 18.3519 14.8055 18.2958 14.8055 18.2326C14.8001 18.1911 14.7823 18.1522 14.7545 18.1209C14.7266 18.0896 14.69 18.0674 14.6494 18.0572C14.6087 18.0459 14.5653 18.0509 14.5283 18.0712C14.5554 18.073 14.5817 18.0811 14.6052 18.0948C14.6286 18.1085 14.6485 18.1275 14.6634 18.1502C14.6917 18.1988 14.7141 18.2506 14.7301 18.3046C14.7495 18.3574 14.7511 18.4152 14.7347 18.469C14.7182 18.5229 14.6845 18.5699 14.6389 18.6028C14.5848 18.6327 14.525 18.6507 14.4634 18.6554C14.3387 18.6625 14.2138 18.6465 14.095 18.6081C14.0219 18.591 13.9472 18.5816 13.8722 18.58C13.8007 18.5833 13.7297 18.5927 13.6599 18.6081C13.2346 18.6614 12.8052 18.6743 12.3774 18.6467C11.9108 18.6467 11.4441 18.6467 10.9739 18.6467H8.46511C8.11423 18.6467 7.77388 18.6467 7.42826 18.6467C6.95495 18.6467 6.48349 18.5877 6.02474 18.4712C4.27034 18.0133 2.95805 17.0677 2.09137 15.4712C1.71669 14.7813 1.48516 14.0229 1.41067 13.2414C1.40014 13.1501 1.92646 14.1256 1.92646 14.0308Z"
    fill="#6C707E" stroke="#6C707E" stroke-width="0.3"/>
  <path
    d="M15.581 9.86413C15.4336 9.55009 15.4319 9.41851 15.595 9.12026C15.7219 8.9098 15.7698 8.66104 15.7301 8.4185C15.7255 8.39061 15.7191 8.36306 15.7108 8.33605C15.7079 8.31962 15.7017 8.30396 15.6925 8.29005C15.6833 8.27614 15.6713 8.26429 15.6573 8.25523C15.6433 8.24617 15.6276 8.2401 15.6111 8.2374C15.5947 8.23471 15.5778 8.23544 15.5617 8.23955C15.4895 8.25103 15.4207 8.27796 15.3599 8.3185C15.1611 8.46413 14.9839 8.63719 14.8336 8.83254C14.6266 9.10974 14.6582 9.29921 14.8073 9.50799C14.8512 9.56939 14.8792 9.56764 14.9371 9.57816C14.995 9.58869 15.0283 9.48694 15.0038 9.44483C14.9534 9.36158 14.92 9.26915 14.9055 9.1729C14.9077 8.97567 14.9863 8.78699 15.1248 8.64658C15.2712 8.48327 15.4506 8.35291 15.6512 8.26412C15.6639 8.47083 15.6298 8.67776 15.5512 8.86938C15.4862 9.04482 15.288 9.37992 15.3371 9.59571C15.3662 9.68273 15.4121 9.7632 15.4722 9.83255C15.5477 9.88869 15.581 9.86413 15.581 9.86413Z"
    fill="#6C707E" stroke="#6C707E" stroke-width="0.3"/>
</svg>
