<svg width="16" height="16" viewBox="0 0 16 16" fill="none" xmlns="http://www.w3.org/2000/svg">
  <g clip-path="url(#clip0_1502_176)">
    <path
      d="M10.8479 9.86609C10.8445 10.0005 10.8734 10.1339 10.9321 10.2549C11.0492 10.4894 11.2493 10.672 11.4935 10.7671C11.7068 10.8563 11.938 10.8943 12.1686 10.878H12.1841C12.0261 10.854 11.8712 10.8126 11.7223 10.7545C11.469 10.6594 11.2446 10.5003 11.0711 10.2928C10.9779 10.1789 10.9061 10.049 10.8592 9.9096C10.8577 9.89135 10.8521 9.87872 10.8479 9.86609Z"
      fill="#CED0D6" stroke="#CED0D6" stroke-width="0.3"/>
    <path
      d="M12.7496 7.90397C12.8069 7.86675 12.8561 7.8184 12.8943 7.76178C12.9325 7.70517 12.959 7.64145 12.9721 7.57441C12.9852 7.50737 12.9847 7.43838 12.9706 7.37155C12.9564 7.30471 12.929 7.2414 12.89 7.18536C12.9287 7.43394 12.8791 7.68823 12.7496 7.90397V7.90397Z"
      fill="#CED0D6" stroke="#CED0D6" stroke-width="0.3"/>
    <path
      d="M13.1637 9.3159C13.284 9.40799 13.4337 9.45291 13.5848 9.44221C13.6466 9.44221 13.7083 9.42958 13.7687 9.42677C13.8026 9.42533 13.8365 9.42816 13.8697 9.4352C13.9315 9.44923 13.9595 9.4352 13.9806 9.38046C14.0303 9.24602 14.049 9.10209 14.0353 8.9594C14.0284 8.89007 14.0119 8.82205 13.9862 8.75729C13.9582 8.69723 13.918 8.64359 13.8683 8.59971C13.8187 8.55583 13.7605 8.52265 13.6974 8.50224C13.6343 8.48183 13.5677 8.47463 13.5018 8.48108C13.4358 8.48754 13.3718 8.50751 13.3139 8.53975C13.2832 8.55777 13.2541 8.57843 13.2269 8.6015C13.1974 8.62536 13.1708 8.65203 13.1413 8.6801C13.1539 8.69554 13.1651 8.71098 13.1778 8.72361C13.1919 8.7368 13.2021 8.75352 13.2076 8.77203C13.213 8.79054 13.2134 8.81017 13.2087 8.82887C13.195 8.88197 13.2006 8.9382 13.2245 8.98754C13.2484 9.03689 13.289 9.07615 13.3392 9.09835C13.4148 9.1371 13.4937 9.16904 13.575 9.19379C13.6166 9.20845 13.6593 9.21972 13.7027 9.22747C13.7081 9.22793 13.7136 9.22715 13.7187 9.22521C13.7238 9.22327 13.7284 9.2202 13.7322 9.21625C13.7954 9.17617 13.8445 9.11726 13.8725 9.04782C13.8865 9.10214 13.8865 9.15912 13.8725 9.21344C13.8633 9.26047 13.8677 9.30915 13.8852 9.35379V9.35379L13.8627 9.34116C13.7782 9.2979 13.6853 9.27348 13.5904 9.26958C13.4729 9.2597 13.3594 9.22219 13.2592 9.16011C13.2024 9.12305 13.1553 9.07282 13.1221 9.01369C13.0889 8.95455 13.0704 8.88826 13.0683 8.82045C13.0683 8.82045 13.0683 8.81203 13.0683 8.7994C13.0147 8.88125 12.9948 8.98058 13.0126 9.07677C13.0303 9.17295 13.0845 9.25859 13.1637 9.3159V9.3159Z"
      fill="#CED0D6" stroke="#CED0D6" stroke-width="0.3"/>
    <path
      d="M1.77553 12.9187C2.51203 13.9566 3.60893 14.6827 4.85205 14.9552C5.27799 15.0473 5.71323 15.0892 6.1489 15.0802C7.21839 15.0802 8.28787 15.0802 9.35595 15.0802H11.5132C11.6843 15.0862 11.8552 15.0629 12.0184 15.0114C12.0966 14.988 12.1687 14.9479 12.2298 14.8939C12.2909 14.8398 12.3394 14.7731 12.3721 14.6984C12.4187 14.5799 12.4245 14.4492 12.3887 14.327C12.3529 14.2048 12.2774 14.0979 12.1742 14.0233C12.0207 13.9162 11.8344 13.8665 11.6479 13.8829C11.5974 13.8829 11.5468 13.8928 11.4963 13.8984C11.4842 13.9005 11.4719 13.9005 11.4598 13.8984C11.4444 13.8984 11.4289 13.8858 11.4135 13.8801C11.4208 13.866 11.4297 13.8528 11.4402 13.8408C11.6336 13.6812 11.7716 13.4646 11.8346 13.2219C11.8587 13.1304 11.8663 13.0353 11.857 12.9412C11.8563 12.9337 11.8563 12.9262 11.857 12.9187C11.857 12.871 11.8711 12.857 11.9188 12.8542C12.0591 12.8542 12.1995 12.8429 12.3398 12.8317C12.4072 12.8317 12.4802 12.8093 12.5476 12.805C12.5391 12.8163 12.5321 12.8331 12.5209 12.8387C12.4682 12.8625 12.4212 12.8974 12.3832 12.941C12.3452 12.9846 12.317 13.0359 12.3005 13.0914C12.253 13.2265 12.2302 13.3692 12.2332 13.5124C12.2448 13.7359 12.3313 13.949 12.4788 14.1173C12.6102 14.2714 12.7729 14.3958 12.956 14.4823C12.9798 14.4935 12.9855 14.5047 12.977 14.5314C12.9525 14.6052 12.9525 14.6849 12.977 14.7587C12.9921 14.8027 13.0232 14.8393 13.064 14.8612C13.1113 14.8881 13.1642 14.9036 13.2186 14.9065C13.2729 14.9094 13.3271 14.8997 13.377 14.878L13.3855 14.9258C13.4163 15.0409 13.4907 15.0858 13.603 15.1531H13.6802C13.6802 15.1531 13.6802 15.1447 13.69 15.1447C13.7324 15.1368 13.7729 15.1206 13.8089 15.0969C13.845 15.0732 13.8759 15.0425 13.9 15.0067C13.924 14.9709 13.9407 14.9306 13.949 14.8883C13.9573 14.846 13.957 14.8024 13.9483 14.7601C13.9483 14.7152 13.9286 14.6731 13.9202 14.6324C14.01 14.6086 14.1027 14.5903 14.1897 14.5608C14.3818 14.5016 14.5554 14.3937 14.6936 14.2476C14.8317 14.1015 14.9299 13.9223 14.9785 13.7272C15.0039 13.6507 15.0068 13.5685 14.9869 13.4903C14.967 13.4122 14.9251 13.3415 14.8662 13.2865C14.861 13.2729 14.861 13.2579 14.8662 13.2443C14.8914 13.0872 14.9307 12.93 14.9406 12.7714C14.9547 12.5916 14.9302 12.411 14.8687 12.2415C14.8072 12.0721 14.7101 11.9177 14.5841 11.7889C14.5774 11.7828 14.5727 11.7749 14.5704 11.7662C14.5682 11.7575 14.5685 11.7483 14.5714 11.7398C14.5897 11.6556 14.6093 11.5713 14.6192 11.4857C14.6276 11.404 14.617 11.3215 14.5883 11.2446C14.5595 11.1677 14.5134 11.0984 14.4535 11.0422C14.4415 11.0327 14.4323 11.0201 14.4269 11.0057C14.4114 10.9606 14.3868 10.9192 14.3547 10.884C14.3226 10.8487 14.2836 10.8204 14.2402 10.8008C14.0662 10.7153 13.869 10.6892 13.6788 10.7264C13.5547 10.7525 13.4347 10.7955 13.3223 10.8542C13.302 10.8692 13.2774 10.8773 13.2521 10.8773C13.2269 10.8773 13.2023 10.8692 13.1819 10.8542C13.1735 10.8471 13.1609 10.8457 13.1539 10.8387C13.1469 10.8317 13.1188 10.8092 13.1216 10.7994C13.1249 10.7904 13.1299 10.7822 13.1364 10.7752C13.1429 10.7682 13.1508 10.7626 13.1595 10.7587C13.2488 10.7232 13.3441 10.7051 13.4402 10.7054C13.5124 10.7058 13.5846 10.7021 13.6563 10.6941C13.8817 10.6648 14.098 10.5872 14.2907 10.4668C14.3039 10.4591 14.3181 10.4535 14.3328 10.4499C14.4575 10.4306 14.573 10.3729 14.6633 10.2849C14.7536 10.1968 14.8142 10.0828 14.8367 9.9587C14.8371 9.93256 14.8429 9.90678 14.8535 9.88291C14.9036 9.80601 14.9346 9.71824 14.9439 9.62693C14.9532 9.53561 14.9405 9.4434 14.9069 9.358C14.8676 9.24291 14.8128 9.13343 14.7665 9.01975C14.7411 8.96007 14.7236 8.89731 14.7146 8.83308C14.7021 8.65289 14.6725 8.47431 14.6262 8.29974C14.5354 7.92988 14.3306 7.59798 14.0406 7.35109C13.7506 7.10421 13.3903 6.95489 13.0107 6.92429C12.9958 6.92494 12.9811 6.9206 12.9689 6.91196C12.9567 6.90332 12.9477 6.89087 12.9433 6.87657C12.9058 6.78415 12.8488 6.70093 12.7761 6.63262C12.7034 6.5643 12.6169 6.5125 12.5223 6.48078C12.4732 6.46117 12.4184 6.46117 12.3693 6.48078C12.2986 6.51083 12.231 6.54749 12.1672 6.59025C12.0062 6.70488 11.8701 6.85099 11.7672 7.01973C11.7588 7.03236 11.749 7.0478 11.7363 7.05201C11.7277 7.05584 11.7184 7.05782 11.709 7.05782C11.6995 7.05782 11.6902 7.05584 11.6816 7.05201C11.6718 7.05201 11.6704 7.01833 11.6732 7.00289C11.6807 6.98408 11.6911 6.96656 11.704 6.95096C11.9848 6.54454 12.1722 6.08108 12.2528 5.59375C12.2564 5.57695 12.2653 5.56172 12.2781 5.55024C12.3469 5.47866 12.4184 5.40989 12.4886 5.33831C12.5964 5.2256 12.6707 5.08518 12.7033 4.9327C12.7125 4.89208 12.7181 4.85076 12.7202 4.80919C12.7202 4.79655 12.709 4.78392 12.7033 4.77129C12.689 4.77646 12.6758 4.78405 12.664 4.79375C12.6458 4.82041 12.6318 4.84989 12.6149 4.87655C12.6022 4.89361 12.5886 4.91 12.5742 4.92568C12.5715 4.91893 12.5715 4.91138 12.5742 4.90462C12.6491 4.71618 12.7 4.51908 12.7258 4.31795C12.7258 4.26181 12.737 4.20427 12.7384 4.14813C12.7398 4.09199 12.7132 4.08076 12.6851 4.09199C12.6703 4.09926 12.6569 4.10926 12.6458 4.12146C12.5334 4.22707 12.4073 4.31722 12.2711 4.38953C12.2711 4.38953 12.2711 4.38953 12.2711 4.38111C12.2711 4.37269 12.2626 4.34181 12.2598 4.32216C12.2221 4.08926 12.1658 3.85975 12.0914 3.63584C12.0279 3.46277 12.0076 3.27677 12.0325 3.09408C12.0361 3.04033 12.0504 2.98784 12.0745 2.93966C12.0986 2.89147 12.132 2.84855 12.1728 2.81338C12.18 2.80652 12.1866 2.799 12.1925 2.79092C12.1851 2.78565 12.1771 2.7814 12.1686 2.77829C12.104 2.75578 12.0335 2.75762 11.9701 2.78347C11.9068 2.80931 11.8551 2.85738 11.8247 2.91864C11.8163 2.93549 11.8051 2.95092 11.7897 2.97619C11.774 2.95087 11.7608 2.92407 11.7504 2.89619C11.7251 2.77676 11.718 2.65421 11.7293 2.53267C11.75 2.38493 11.7976 2.24223 11.8697 2.11162C11.8872 2.07674 11.9023 2.04062 11.9146 2.00355C11.9201 1.98995 11.9219 1.97516 11.9199 1.96064C11.9179 1.94611 11.9122 1.93235 11.9033 1.92073C11.8943 1.9091 11.8825 1.90001 11.869 1.89435C11.8555 1.88869 11.8407 1.88666 11.8261 1.88846C11.7907 1.88812 11.7555 1.89431 11.7223 1.9067C11.5523 1.96797 11.4119 2.09134 11.3293 2.25197C11.3293 2.26601 11.3153 2.27864 11.3082 2.29548C11.2362 2.23466 11.1794 2.15773 11.1426 2.07092C11.1199 2.01369 11.0936 1.95791 11.064 1.9039C11.043 1.866 11.0275 1.866 11.0023 1.9039L10.9826 1.93337C10.963 1.95723 10.9475 1.95723 10.9321 1.93337C10.9193 1.9095 10.9085 1.88462 10.8998 1.85898C10.8566 1.73754 10.7802 1.6306 10.6795 1.55021C10.6795 1.55021 10.664 1.55021 10.6486 1.53337L10.6626 1.63302C10.6626 1.6639 10.671 1.69337 10.6739 1.72705H10.6612C10.6509 1.72133 10.641 1.71475 10.6317 1.7074C10.2246 1.42686 9.76858 1.22502 9.28718 1.11231C9.13515 1.0922 8.98759 1.04665 8.85068 0.977574L8.83945 0.973363C8.82843 0.967614 8.81571 0.966011 8.80361 0.968844C8.7915 0.971677 8.78081 0.978759 8.77349 0.988802C8.7579 1.00103 8.73856 1.00748 8.71875 1.00705C8.6584 1.00705 8.59945 0.993012 8.5405 0.987398C8.48649 0.981716 8.43299 0.971862 8.3805 0.957924C8.29068 0.935468 8.20366 0.84845 8.11524 0.84845H8.05208C8.03102 0.84845 8.00716 0.907398 7.99032 0.92845C7.97348 0.949503 7.92576 1.00705 7.87944 1.00985C7.57776 1.02915 7.27849 1.07613 6.9854 1.15021C6.53759 1.25506 6.11434 1.44571 5.73907 1.71161C5.46149 1.90287 5.22954 2.15303 5.05977 2.44425C5.02633 2.50548 4.9968 2.56877 4.97135 2.63373C4.94973 2.68242 4.94673 2.73736 4.96293 2.78812C4.96762 2.80751 4.97951 2.82439 4.9962 2.83533C5.01288 2.84628 5.03309 2.85047 5.05275 2.84706C5.16793 2.83256 5.28487 2.84204 5.39621 2.87488C5.50756 2.90773 5.61091 2.96325 5.69978 3.03794C5.89111 3.17179 6.03781 3.36005 6.12083 3.5783C6.18121 3.7267 6.19676 3.88954 6.16558 4.04669C6.1344 4.20384 6.05785 4.34841 5.94539 4.46252C5.92294 4.48918 5.89627 4.51304 5.8682 4.54252C5.85697 4.50181 5.84855 4.46532 5.83732 4.42883C5.79254 4.24693 5.70551 4.07816 5.58328 3.9362C5.5089 3.85479 5.47942 3.95023 5.49907 4.0976C5.51899 4.2445 5.50395 4.39403 5.45518 4.53402C5.4064 4.67401 5.32526 4.80051 5.21837 4.90322C5.20396 4.91716 5.18599 4.92687 5.16644 4.93129C4.93766 5.0127 4.70749 5.08989 4.48012 5.1741C4.07336 5.3245 3.68149 5.51244 3.30958 5.73551L3.29414 5.74393C3.2783 5.73417 3.26546 5.72022 3.25704 5.70363C3.24862 5.68704 3.24495 5.66844 3.24642 5.64989C3.24642 5.59937 3.25625 5.54884 3.26186 5.49831V5.48007C3.27309 5.39165 3.238 5.36217 3.1566 5.40147C3.11486 5.42379 3.07809 5.45435 3.04852 5.4913C2.95889 5.60681 2.88786 5.73561 2.838 5.87305C2.80852 5.94323 2.78466 6.01341 2.75519 6.08779C2.7443 6.11458 2.72751 6.13857 2.70607 6.15797C2.38077 6.42661 2.08696 6.73125 1.83027 7.06605C1.61202 7.35453 1.42611 7.66611 1.27588 7.99518L1.26325 8.02044C1.26325 8.02044 1.26325 8.02044 1.25483 8.02044C1.20598 7.73351 1.1956 7.44134 1.22395 7.15166C1.20149 7.23868 1.17623 7.32429 1.15518 7.41131C1.0737 7.7611 1.04578 8.12123 1.07237 8.47939C1.07278 8.49811 1.06944 8.51672 1.06254 8.53413C0.828596 9.2696 0.771234 10.0498 0.895109 10.8116C1.01898 11.5734 1.32061 12.2953 1.77553 12.9187ZM1.4836 9.13624C1.71214 9.62512 1.98411 10.0925 2.29624 10.5327C2.31229 10.5548 2.32112 10.5813 2.3215 10.6085C2.3215 10.7489 2.33554 10.8892 2.34676 11.0296C2.34676 11.1138 2.36922 11.1966 2.38045 11.2794C1.57832 10.4146 1.14745 9.26968 1.18044 8.09062C1.19307 8.18606 1.2029 8.27448 1.21974 8.3615C1.27627 8.6294 1.36487 8.88952 1.4836 9.13624ZM4.49555 5.51375C4.49607 5.51748 4.49607 5.52126 4.49555 5.52498L4.47731 5.55024C4.20908 5.92359 3.99063 6.33029 3.82748 6.76008C3.71059 7.0683 3.63233 7.38982 3.59449 7.71728C3.56923 7.94723 3.56923 8.17926 3.59449 8.40922C3.59449 8.42044 3.59449 8.43729 3.59449 8.4415C3.54116 8.47939 3.48783 8.51448 3.43309 8.55097C3.42933 8.54096 3.42651 8.53063 3.42467 8.52009C3.33552 8.14189 3.29915 7.75317 3.3166 7.365C3.32628 7.11604 3.37703 6.87039 3.46677 6.63797C3.46677 6.63797 3.46677 6.62394 3.46677 6.61692C3.43654 6.6581 3.41067 6.70232 3.38958 6.74885C3.22613 7.10586 3.13912 7.49309 3.13414 7.8857C3.12381 8.24172 3.15442 8.59774 3.22537 8.94676C3.18767 8.95649 3.14837 8.95827 3.10995 8.95198C3.07153 8.9457 3.03484 8.9315 3.00221 8.91027C3.00221 8.9215 3.00221 8.93694 2.99238 8.94396C2.84006 9.11246 2.71204 9.30142 2.61203 9.50537L2.60221 9.52081C2.52502 9.43951 2.46404 9.34424 2.42255 9.2401C2.41055 9.28277 2.40256 9.32647 2.39869 9.37063C2.39355 9.51403 2.41644 9.65705 2.46606 9.79168C2.47226 9.80775 2.47448 9.82508 2.47252 9.84219C2.47057 9.8593 2.4645 9.87568 2.45484 9.88993C2.39834 9.82531 2.35879 9.74766 2.33975 9.66396C2.3137 9.69895 2.29901 9.74107 2.29764 9.78467C2.29444 9.89727 2.317 10.0091 2.36361 10.1117C2.39729 10.1917 2.35378 10.2591 2.34957 10.3419C2.33688 10.3272 2.32516 10.3117 2.31448 10.2955C2.20361 10.1313 2.08711 9.97133 1.98325 9.80291C1.73226 9.40911 1.53319 8.98454 1.39097 8.53974C1.38539 8.52097 1.38539 8.50098 1.39097 8.4822C1.62344 7.84284 1.98837 7.25981 2.46185 6.77131L2.48571 6.75166C2.4852 6.7596 2.4852 6.76757 2.48571 6.77552C2.46466 6.93973 2.4408 7.10535 2.42677 7.26956C2.39875 7.5581 2.41151 7.84914 2.46466 8.13413C2.49781 8.32667 2.57357 8.50937 2.68642 8.66887C2.76539 8.77815 2.8733 8.86321 2.998 8.91448C2.96712 8.88361 2.93344 8.85413 2.90537 8.82045C2.83017 8.72733 2.77261 8.62126 2.73554 8.50746C2.65987 8.26844 2.62477 8.01843 2.63168 7.76781C2.63129 7.51893 2.64864 7.27035 2.68361 7.02394C2.71623 6.76023 2.76878 6.49936 2.8408 6.24358C2.88554 6.0763 2.95357 5.91613 3.04291 5.76779C3.05852 5.74797 3.07643 5.73007 3.09624 5.71446C3.10883 5.73579 3.11918 5.75836 3.12712 5.78183C3.14751 5.8572 3.14751 5.93663 3.12712 6.012C3.01615 6.32912 2.94726 6.65943 2.92221 6.99447C2.92221 7.06605 2.91379 7.13482 2.90958 7.2064C2.92782 7.14324 2.93624 7.07868 2.95028 7.01552C3.02708 6.59806 3.24035 6.21793 3.5566 5.93481C3.58781 5.90777 3.62222 5.88468 3.65906 5.86604C3.89189 5.74594 4.13242 5.64138 4.37906 5.55305L4.49555 5.51375ZM11.6661 2.25197C11.6641 2.27667 11.6579 2.30086 11.6479 2.32355C11.5615 2.58525 11.5267 2.86123 11.5454 3.13619C11.5511 3.18562 11.5511 3.23553 11.5454 3.28496C11.4743 3.56579 11.3551 3.83218 11.1932 4.07234V4.0569C11.1707 3.63416 11.1976 3.21026 11.2732 2.79373C11.2996 2.64081 11.3523 2.49361 11.4289 2.35864C11.4672 2.29098 11.5223 2.2344 11.5889 2.19443C11.61 2.1832 11.6339 2.17478 11.6507 2.19443C11.6613 2.21172 11.6666 2.2317 11.6661 2.25197ZM11.8402 4.4976C11.7738 4.54743 11.7034 4.59156 11.6297 4.62953C11.368 4.75253 11.0995 4.86031 10.8254 4.95234C10.6672 5.01157 10.5346 5.12428 10.4507 5.27094C10.4226 5.31445 10.3946 5.36077 10.3665 5.4113C10.3683 5.39695 10.3716 5.38284 10.3763 5.36919C10.4086 5.25972 10.4451 5.15164 10.4703 5.04077C10.5046 4.88843 10.5649 4.74314 10.6486 4.61129C10.6949 4.53971 10.7468 4.47094 10.7889 4.39795C10.8184 4.35382 10.8434 4.30679 10.8633 4.2576C10.8715 4.22541 10.8767 4.19251 10.8788 4.15936H10.8633C10.8487 4.17076 10.8346 4.18294 10.8212 4.19585C10.7707 4.25339 10.723 4.31234 10.6725 4.36848C10.6612 4.38111 10.636 4.39374 10.6247 4.38953C10.6172 4.3844 10.6111 4.37748 10.6069 4.3694C10.6028 4.36131 10.6007 4.35231 10.6009 4.34322C10.6043 4.28061 10.6142 4.21853 10.6303 4.15795C10.657 4.07795 10.6991 4.00216 10.73 3.92356C10.7454 3.88393 10.7553 3.84238 10.7595 3.80005C10.7595 3.7804 10.7412 3.75935 10.7328 3.7383C10.7149 3.74837 10.698 3.76012 10.6823 3.77339C10.6584 3.80005 10.6388 3.82953 10.6135 3.85479C10.5882 3.88005 10.5658 3.87444 10.5517 3.84356C10.5396 3.82225 10.5337 3.7979 10.5349 3.77339C10.5447 3.71757 10.5574 3.6623 10.5728 3.60777C10.5854 3.55724 10.6037 3.50812 10.6149 3.45759C10.6188 3.43993 10.6173 3.4215 10.6105 3.40472C10.6037 3.38794 10.5921 3.37359 10.577 3.36356C10.5672 3.379 10.556 3.39163 10.5489 3.40566C10.5419 3.4197 10.5251 3.46742 10.511 3.49689C10.4839 3.56774 10.453 3.63708 10.4184 3.70461C10.3875 3.76356 10.3567 3.75795 10.323 3.70461C10.257 3.59374 10.1924 3.48145 10.1195 3.37479C10.0799 3.31991 10.0557 3.25548 10.0493 3.18812C10.0409 3.09829 10.0367 3.00706 10.0268 2.91584C10.026 2.89652 10.0213 2.87757 10.0128 2.86018C10.0044 2.84279 9.99242 2.82733 9.97771 2.81478C9.96929 2.85268 9.96367 2.88496 9.95665 2.91584C9.94964 2.94671 9.94122 3.00987 9.92858 3.05619C9.91595 3.1025 9.8935 3.09128 9.87806 3.05619C9.86373 3.02913 9.85468 2.9996 9.85139 2.96917C9.85139 2.91443 9.85139 2.85829 9.85139 2.80215C9.84898 2.77644 9.84234 2.75131 9.83174 2.72776C9.83174 2.71794 9.8135 2.71092 9.80508 2.7025C9.79718 2.7116 9.79099 2.72207 9.78683 2.73338C9.78548 2.74738 9.78548 2.76148 9.78683 2.77548C9.78245 2.81651 9.77589 2.85726 9.76718 2.89759C9.75735 2.9411 9.73069 2.94952 9.70262 2.91443C9.67815 2.88119 9.65919 2.84423 9.64648 2.80496C9.62823 2.74601 9.61981 2.68285 9.60156 2.6225C9.59051 2.59395 9.57487 2.5674 9.55525 2.5439C9.55056 2.53922 9.54472 2.53584 9.53831 2.53412C9.53191 2.53239 9.52517 2.53238 9.51876 2.53408C9.51034 2.53408 9.50332 2.55373 9.50191 2.56496C9.50191 2.61127 9.50191 2.65759 9.50191 2.70531V2.77548H9.48648C9.4803 2.77152 9.47464 2.76681 9.46963 2.76145C9.42215 2.71263 9.3908 2.65041 9.37981 2.5832C9.37981 2.55232 9.37981 2.52145 9.36858 2.49057C9.36804 2.48305 9.36583 2.47574 9.3621 2.46918C9.35837 2.46263 9.35323 2.45699 9.34703 2.45268C9.34084 2.44837 9.33377 2.44551 9.32632 2.44429C9.31888 2.44308 9.31126 2.44354 9.30402 2.44566C9.28494 2.44874 9.26766 2.45875 9.25549 2.47376C9.24332 2.48878 9.23711 2.50775 9.23805 2.52706C9.23805 2.55794 9.23805 2.59022 9.23805 2.62531L9.12016 2.5411C8.72369 2.34548 8.2963 2.22011 7.85699 2.17057C7.5727 2.13239 7.28413 2.13998 7.00224 2.19302C6.82915 2.22203 6.66498 2.2902 6.52224 2.39232C6.50119 2.40776 6.48154 2.42601 6.46189 2.44285C6.58111 2.36608 6.71409 2.31317 6.85347 2.28706C7.11036 2.24356 7.37273 2.24356 7.62962 2.28706C8.08133 2.352 8.51772 2.49746 8.91805 2.71654C9.23228 2.88118 9.51197 3.10465 9.74192 3.37479L9.79104 3.43795C9.32367 3.21479 8.79454 3.63444 8.26541 3.44777C8.99103 3.82111 9.41911 3.3411 9.82894 3.65128C9.9328 3.73128 9.95104 3.93198 9.71385 3.90111C9.47665 3.87023 10.0549 3.98111 10.1574 4.57199C10.1505 4.67113 10.1364 4.76964 10.1153 4.86673C10.0141 5.29874 9.81316 5.70106 9.52858 6.04148C9.23677 6.39522 8.87257 6.68237 8.4605 6.88359H8.43945C8.43945 6.88359 8.43945 6.88359 8.43945 6.87517L8.45629 6.8485C8.65956 6.56267 8.8076 6.24136 8.89279 5.90112C8.9508 5.67014 8.94595 5.42784 8.87875 5.19936C8.79315 4.94608 8.62767 4.72741 8.40717 4.5762C8.16042 4.40507 7.88597 4.27782 7.59593 4.20006C7.53418 4.18041 7.47102 4.16497 7.40225 4.14532C7.40225 4.15374 7.41067 4.15655 7.41207 4.15655L7.44856 4.17199C7.64864 4.24759 7.83751 4.35005 8.00997 4.47655C8.26435 4.64934 8.45125 4.90467 8.5391 5.19936C8.60649 5.46548 8.60359 5.74454 8.53068 6.0092C8.43951 6.35205 8.29303 6.67773 8.09699 6.97341C8.05999 7.04095 7.99803 7.09133 7.92436 7.11377C7.82892 7.14184 7.73628 7.17833 7.63383 7.21482C7.7496 7.07742 7.83181 6.91496 7.87395 6.7403C7.9161 6.56564 7.91701 6.38357 7.87664 6.2085C7.87601 6.21221 7.87601 6.21601 7.87664 6.21972C7.86519 6.42442 7.79663 6.62182 7.67874 6.78955C7.50142 7.03766 7.2695 7.24174 7.00084 7.38605C6.97865 7.39563 6.95563 7.40314 6.93207 7.40851C7.02801 7.30053 7.10064 7.17391 7.1454 7.03657C7.18822 6.90047 7.19785 6.7561 7.17347 6.61552C7.13715 6.74988 7.07308 6.87514 6.9854 6.98324C6.8188 7.19944 6.61999 7.38878 6.39592 7.54465C6.24535 7.64808 6.08334 7.73379 5.91311 7.80009C5.60766 7.90697 5.29597 7.99509 4.97977 8.06395C4.69907 8.13132 4.42819 8.2043 4.1545 8.27729C4.00243 8.31617 3.85941 8.38435 3.73344 8.47799C3.69361 8.36123 3.67138 8.23919 3.66748 8.11588C3.64642 6.47657 4.9517 5.60358 5.3489 5.14603C5.45699 5.00864 5.53797 4.85193 5.58749 4.68427C5.61135 4.61831 5.63241 4.54392 5.65346 4.48076L5.66328 4.49199C5.78594 4.69474 5.83036 4.9353 5.7882 5.16849C5.72311 5.54227 5.5419 5.88604 5.2703 6.15095L5.25486 6.16779L5.27872 6.15657C5.51411 6.02473 5.72687 5.85604 5.9089 5.65691C6.20922 5.32971 6.38335 4.90633 6.40013 4.46252C6.40317 4.26388 6.39003 4.06533 6.36083 3.86883C6.33075 3.61379 6.22288 3.37419 6.05188 3.1826C5.88088 2.991 5.65503 2.8567 5.40504 2.79794C5.36617 2.7881 5.32851 2.77398 5.29275 2.75583C5.28176 2.75102 5.27186 2.74401 5.26366 2.73524C5.25546 2.72647 5.24913 2.71613 5.24506 2.70483C5.24099 2.69354 5.23926 2.68154 5.23998 2.66955C5.2407 2.65757 5.24385 2.64586 5.24925 2.63513C5.25614 2.61643 5.26509 2.59854 5.27591 2.5818C5.36504 2.44007 5.48438 2.31978 5.62539 2.22951C5.69837 2.18179 5.76574 2.13548 5.84153 2.08916C6.12617 1.87987 6.44611 1.72347 6.7861 1.6274C6.92589 1.5815 7.07278 1.56106 7.21979 1.56705C7.26751 1.56705 7.31242 1.58811 7.36014 1.59372C7.37979 1.59372 7.40084 1.58249 7.42049 1.57688C7.41116 1.56268 7.39981 1.54992 7.38681 1.53898C7.2973 1.49167 7.19753 1.46709 7.09628 1.4674C6.94782 1.46818 6.79994 1.48608 6.65557 1.52074H6.61066C6.7283 1.42142 6.86628 1.34908 7.01488 1.3088C7.25339 1.23915 7.50303 1.21581 7.75032 1.24003C7.83134 1.23964 7.91143 1.25739 7.98471 1.29196C8.05769 1.33266 8.13348 1.36635 8.20787 1.40284C8.22331 1.40284 8.24155 1.41407 8.25839 1.41968L8.2612 1.40986C8.25278 1.39021 8.24717 1.36916 8.23734 1.34951L8.15313 1.19372C8.15098 1.18165 8.15098 1.16929 8.15313 1.15722C8.16418 1.15443 8.17576 1.15443 8.18681 1.15722C8.24463 1.17376 8.30135 1.19392 8.35664 1.21758C8.43355 1.2522 8.51655 1.27128 8.60085 1.27372C8.71594 1.28214 8.83243 1.29196 8.94752 1.3088C9.02759 1.318 9.10416 1.34674 9.17049 1.39251C9.23682 1.43829 9.29087 1.49967 9.32788 1.57126C9.34753 1.60635 9.36858 1.64144 9.38963 1.67512C9.39774 1.68695 9.40665 1.6982 9.4163 1.70881H9.42893C9.40226 1.61898 9.377 1.52916 9.34893 1.43512C9.44771 1.46233 9.53523 1.52035 9.59876 1.60074C9.63525 1.64284 9.66893 1.68776 9.70402 1.72986C9.72033 1.74552 9.73768 1.76006 9.75595 1.77337H9.76999L9.74893 1.59372H9.76016L9.92297 1.69337C10.1115 1.79775 10.2775 1.93848 10.4114 2.10741C10.4296 2.13267 10.4423 2.12846 10.4521 2.09899C10.4619 2.06951 10.4703 2.0232 10.4844 1.98671C10.4844 1.97548 10.5026 1.96004 10.5124 1.96004C10.5196 1.96139 10.5264 1.96437 10.5322 1.96875C10.5381 1.97313 10.5428 1.97879 10.5461 1.9853C10.5543 2.0098 10.559 2.0353 10.5602 2.06109C10.5602 2.11302 10.5602 2.16495 10.5672 2.21688C10.5672 2.23232 10.5868 2.24776 10.5967 2.2618C10.6093 2.25057 10.6275 2.24074 10.6346 2.22671C10.6556 2.1846 10.671 2.13829 10.6907 2.09618C10.7103 2.05407 10.7188 2.05407 10.744 2.09618C10.7579 2.12087 10.7784 2.14119 10.8032 2.15483C10.828 2.16847 10.8561 2.1749 10.8844 2.17337C10.9433 2.17337 10.9518 2.17337 10.9728 2.22811C11.0107 2.32074 11.043 2.41618 11.0809 2.50881C11.0991 2.55232 11.1272 2.59303 11.1496 2.63513C11.1528 2.64661 11.1528 2.65874 11.1496 2.67022C11.0778 2.92158 11.0433 3.18215 11.0472 3.44356C11.0472 3.68497 11.0472 3.92777 11.0472 4.16918C11.0565 4.35897 10.9921 4.54502 10.8675 4.68848L10.9237 4.66603C11.0124 4.61781 11.0906 4.55245 11.1539 4.47374C11.2913 4.29871 11.4002 4.10309 11.4767 3.89409C11.544 3.72988 11.617 3.56426 11.6816 3.40005C11.7027 3.36021 11.7272 3.32219 11.7546 3.28637C11.7546 3.27794 11.7798 3.26812 11.7868 3.27233C11.7929 3.27548 11.7982 3.28006 11.8021 3.28569C11.806 3.29131 11.8085 3.29781 11.8093 3.30461C11.8121 3.33167 11.8121 3.35895 11.8093 3.38602C11.7939 3.52031 11.7939 3.65593 11.8093 3.79023C11.8134 3.81108 11.8134 3.83254 11.8093 3.85339C11.7644 4.03315 11.6884 4.20368 11.5847 4.35725C11.5794 4.36482 11.5747 4.3728 11.5707 4.38111C11.6456 4.34487 11.7084 4.28786 11.7518 4.2169C11.7953 4.15374 11.8346 4.08637 11.8781 4.0176C11.8963 4.09199 11.9146 4.15795 11.9314 4.23655C11.948 4.28396 11.948 4.33561 11.9315 4.38304C11.9149 4.43047 11.8827 4.47086 11.8402 4.4976ZM11.9272 5.57691C11.7197 5.76503 11.4826 5.91772 11.2254 6.02885C10.8752 6.18341 10.5103 6.30237 10.1363 6.38394C10.003 6.41481 9.86823 6.44288 9.72648 6.47236L9.88648 6.27446C9.89359 6.26849 9.90247 6.26504 9.91174 6.26464C10.1441 6.23999 10.3715 6.18135 10.5868 6.0906C11.0792 5.87817 11.5251 5.57106 11.8991 5.18673L11.909 5.1741C11.8967 5.17816 11.8853 5.18433 11.8753 5.19235C11.5541 5.41784 11.2189 5.6227 10.8718 5.80569C10.6492 5.9255 10.4138 6.01967 10.17 6.08639C10.1124 6.10042 10.0535 6.11025 9.98613 6.12428C9.9925 6.11541 9.99814 6.10602 10.003 6.09621C10.0802 5.95586 10.1644 5.83095 10.2317 5.6906C10.2713 5.60661 10.3317 5.53414 10.4072 5.48007C10.688 5.27503 10.9884 5.09826 11.304 4.95234H11.3209C11.2214 5.14858 11.0693 5.31331 10.8816 5.42814C10.9347 5.42042 10.9872 5.40917 11.0388 5.39445C11.1915 5.34206 11.332 5.25895 11.4514 5.15024C11.603 5.02392 11.7504 4.89059 11.9047 4.76568C11.9828 4.69862 12.0685 4.64113 12.1602 4.59445C12.2594 4.55388 12.3617 4.52149 12.4661 4.4976C12.4968 4.48884 12.5284 4.4832 12.5602 4.48076C12.5516 4.53982 12.5399 4.59838 12.5251 4.6562C12.4066 5.0086 12.2009 5.32532 11.9272 5.57691ZM10.0409 8.35167C9.96462 8.39477 9.88421 8.43003 9.80086 8.45694C9.63026 8.49945 9.45439 8.51694 9.27875 8.50887C9.15384 8.50887 9.02893 8.50887 8.90542 8.50887C8.87372 8.51231 8.8423 8.51794 8.81138 8.52571V8.54255C8.83805 8.55238 8.86472 8.56501 8.89138 8.57343L9.15244 8.6436C9.16873 8.65024 9.18466 8.65774 9.20016 8.66606V8.67589C9.18946 8.68175 9.17817 8.68646 9.16647 8.68992C8.99244 8.7236 8.8184 8.76571 8.64296 8.79097C8.34528 8.82852 8.05102 8.88953 7.76295 8.97343C7.73834 8.98046 7.71272 8.98331 7.68716 8.98185L6.81277 8.9201C6.47707 8.88993 6.13934 8.88993 5.80364 8.9201C5.42374 8.9604 5.05088 9.05102 4.69485 9.18957C4.18654 9.39259 3.70934 9.66615 3.2773 10.0022L3.25625 10.0219C3.26908 10.0185 3.28136 10.0133 3.29274 10.0064C3.68926 9.76441 4.10631 9.55777 4.53906 9.38887C4.90667 9.24662 5.28961 9.14771 5.68013 9.09413C5.96282 9.06068 6.24743 9.04614 6.53206 9.05062C6.85066 9.05062 7.17067 9.05062 7.48927 9.05062H7.5019L7.47804 9.05905C7.19307 9.16791 6.92363 9.31372 6.67663 9.49273C6.60293 9.54622 6.52216 9.58921 6.43662 9.62045C6.37066 9.64572 6.29627 9.67098 6.23592 9.69203C5.88554 9.79069 5.52927 9.8671 5.16924 9.92081C4.87451 9.97414 4.57977 10.0289 4.28643 10.0934C4.01955 10.1475 3.76253 10.2422 3.52432 10.3741C3.32619 10.4795 3.15694 10.6318 3.03141 10.8178C2.90587 11.0037 2.82789 11.2177 2.80431 11.4408C2.79308 11.5138 2.78747 11.5812 2.78045 11.6556C2.76642 11.6289 2.75098 11.5966 2.73273 11.5657C2.57397 11.3097 2.47202 11.0225 2.43378 10.7236C2.40569 10.53 2.42471 10.3325 2.48921 10.1478C2.55371 9.96304 2.6618 9.79661 2.80431 9.66256C2.81629 9.64992 2.82581 9.63517 2.83238 9.61905C2.87589 9.53203 2.91098 9.4408 2.96151 9.358C3.10665 9.13026 3.30146 8.93833 3.53134 8.79659C3.83318 8.6062 4.15816 8.45526 4.49836 8.34746C5.03449 8.17524 5.58173 8.03972 6.13627 7.94184C6.5868 7.85623 7.03733 7.77202 7.48786 7.685C8.28466 7.54461 9.02071 7.16754 9.60016 6.60289C9.6131 6.59176 9.62942 6.58533 9.64648 6.58464C9.85886 6.58003 10.0705 6.55844 10.2795 6.52008C10.8577 6.40976 11.4065 6.17982 11.8907 5.84498L11.9202 5.82814C11.9202 5.84498 11.9202 5.85621 11.9202 5.86604C11.8791 6.0488 11.8237 6.22806 11.7546 6.40218C11.4323 7.23451 10.825 7.92537 10.0409 8.35167ZM14.7455 12.805C14.7293 12.9468 14.7044 13.0874 14.6711 13.2261C14.6539 13.3259 14.6084 13.4187 14.54 13.4934C14.4715 13.568 14.3831 13.6214 14.2851 13.6472C14.1938 13.6734 14.0994 13.6871 14.0044 13.6879C13.8148 13.685 13.6263 13.6591 13.443 13.6107C13.2878 13.5763 13.1397 13.5155 13.0051 13.431C12.8762 13.3543 12.7829 13.2296 12.7455 13.0843C12.7271 12.9917 12.7271 12.8963 12.7455 12.8036C12.7471 12.7877 12.7534 12.7727 12.7637 12.7604C12.7739 12.7482 12.7876 12.7393 12.803 12.7349C13.1083 12.628 13.3599 12.4065 13.5048 12.1173C13.5123 12.0994 13.5248 12.0841 13.5406 12.0729C13.5565 12.0617 13.5752 12.0552 13.5946 12.0542C13.7377 12.0298 13.8848 12.0504 14.0156 12.1131C14.0551 12.1345 14.0992 12.1457 14.1441 12.1457C14.1889 12.1457 14.2331 12.1345 14.2725 12.1131C14.3071 12.0957 14.34 12.075 14.3707 12.0514C14.41 12.0219 14.4451 11.9882 14.4872 11.9503C14.4899 11.9563 14.4932 11.9619 14.497 11.9671C14.5939 12.0822 14.666 12.216 14.7087 12.3602C14.7515 12.5043 14.764 12.6558 14.7455 12.805ZM12.4886 13.4296C12.5122 13.4459 12.5342 13.4642 12.5546 13.4843C12.7353 13.6516 12.9476 13.7809 13.1791 13.8647C13.3859 13.9384 13.6026 13.9805 13.822 13.9896C13.9843 14.0035 14.1478 13.9912 14.3062 13.9531C14.4142 13.9236 14.5181 13.8787 14.6248 13.8436C14.6472 13.8436 14.6823 13.831 14.6963 13.8436C14.7104 13.8563 14.7034 13.8956 14.6963 13.9222C14.6241 14.0672 14.5176 14.1925 14.3862 14.2872C14.1494 14.4477 13.8598 14.5106 13.5777 14.4626C13.5345 14.4571 13.4906 14.466 13.4528 14.4879C13.4346 14.4977 13.4234 14.5201 13.4093 14.537V14.5468H13.4402C13.4929 14.5419 13.546 14.5419 13.5988 14.5468C13.6357 14.5512 13.6709 14.565 13.701 14.5869C13.731 14.6089 13.7549 14.6382 13.7703 14.6721C13.7857 14.706 13.792 14.7432 13.7888 14.7803C13.7856 14.8174 13.7728 14.853 13.7518 14.8837C13.7382 14.9083 13.7176 14.9282 13.6926 14.941C13.6676 14.9538 13.6393 14.9587 13.6114 14.9552C13.5497 14.9552 13.5202 14.9019 13.4991 14.8486C13.4942 14.8355 13.4914 14.8218 13.4907 14.8079C13.4907 14.7545 13.4795 14.7461 13.4248 14.7489C13.373 14.751 13.3214 14.7566 13.2704 14.7658C13.257 14.7693 13.243 14.7701 13.2294 14.7681C13.2157 14.7661 13.2025 14.7614 13.1907 14.7541C13.1789 14.7469 13.1687 14.7374 13.1607 14.7261C13.1527 14.7149 13.147 14.7021 13.1441 14.6886C13.1368 14.6654 13.1343 14.6411 13.1367 14.617C13.1391 14.5928 13.1464 14.5695 13.1581 14.5482C13.1848 14.5005 13.2184 14.4556 13.2465 14.4079C13.1693 14.3756 13.0837 14.3461 13.0037 14.3054C12.8564 14.2356 12.7269 14.133 12.6253 14.0056C12.5236 13.8781 12.4524 13.7291 12.417 13.57C12.4091 13.5364 12.4053 13.502 12.4058 13.4675C12.4198 13.417 12.4465 13.4029 12.4886 13.4296ZM12.6472 13.0086C12.6653 13.0798 12.6882 13.1496 12.716 13.2177C12.7867 13.3586 12.9051 13.47 13.05 13.5321C13.3931 13.6934 13.7725 13.7621 14.1504 13.7314C14.2615 13.7297 14.3699 13.6972 14.4636 13.6375C14.5573 13.5777 14.6325 13.4931 14.6809 13.3931C14.7139 13.407 14.7424 13.4297 14.7634 13.4586C14.7844 13.4876 14.7971 13.5217 14.8002 13.5573C14.8059 13.5865 14.8027 13.6167 14.7909 13.644C14.7791 13.6713 14.7594 13.6944 14.7342 13.7103C14.6589 13.754 14.5794 13.7902 14.497 13.8184C14.1528 13.9194 13.7875 13.9252 13.4402 13.8352C13.171 13.7739 12.9191 13.6525 12.7033 13.4801C12.6147 13.4178 12.5413 13.3362 12.4886 13.2415C12.4754 13.2169 12.4682 13.1895 12.4676 13.1615C12.4746 13.1192 12.4961 13.0806 12.5283 13.0522C12.5605 13.0238 12.6015 13.0074 12.6444 13.0057L12.6472 13.0086ZM1.54114 11.2247C1.33838 10.8838 1.19105 10.5128 1.10465 10.1257C1.10374 9.87435 1.12251 9.62328 1.16079 9.37484C1.16921 9.31729 1.18044 9.25975 1.19026 9.20221C1.19887 9.21078 1.20515 9.22141 1.20851 9.23308C1.25061 9.37344 1.28711 9.51379 1.33483 9.65414C1.59043 10.3678 1.9664 11.0324 2.44641 11.6191C2.46427 11.6407 2.47806 11.6655 2.48712 11.6921C2.58712 12.0031 2.73588 12.2964 2.92782 12.5608C2.71589 12.4696 2.47308 12.4373 2.18396 12.1047C2.53905 12.7896 3.37976 13.0605 3.37976 13.0605C3.84362 13.4706 4.3975 13.7658 4.99661 13.9222C5.04574 13.9363 5.09486 13.9461 5.14398 13.9587C5.13415 13.9493 5.12207 13.9425 5.10889 13.9391C4.66193 13.7811 4.24378 13.5512 3.87099 13.2584C3.40689 12.9027 3.05072 12.425 2.84221 11.8787C2.81547 11.8235 2.81144 11.76 2.83098 11.7019C2.84782 11.6598 2.85484 11.6149 2.86887 11.5713C2.9552 11.2456 3.12669 10.9486 3.36572 10.711C3.60623 10.4951 3.89502 10.3402 4.20783 10.2591C4.58244 10.1628 4.96394 10.0957 5.3489 10.0584C5.57065 10.0303 5.79241 9.99519 6.01276 9.96151C6.07311 9.95169 6.13206 9.93765 6.19522 9.92502C6.19176 9.92927 6.18892 9.934 6.1868 9.93905C6.01304 10.1314 5.86663 10.3467 5.75171 10.5791C5.74799 10.5869 5.74272 10.594 5.7362 10.5998C5.72969 10.6056 5.72207 10.61 5.71381 10.6127C5.61262 10.6491 5.50955 10.6801 5.40504 10.7054C5.24925 10.7363 5.09065 10.7475 4.93486 10.7784C4.09976 10.944 3.84292 11.3917 3.84713 11.3875C4.09976 11.118 4.50538 11.0422 4.61345 11.0043C4.86219 10.9244 5.12284 10.8878 5.38398 10.8963C5.45977 10.8963 5.53697 10.8963 5.61556 10.9061C5.37697 11.6434 5.41793 12.4427 5.73065 13.1517C5.73266 13.1387 5.73266 13.1254 5.73065 13.1124C5.59814 12.644 5.5628 12.1535 5.62679 11.671C5.70517 11.0953 5.97687 10.5633 6.39733 10.1622C6.72111 9.85952 7.09605 9.61668 7.5047 9.44501C7.89335 9.28325 8.29596 9.15735 8.70752 9.06887C9.01489 8.99448 9.32507 8.92852 9.62963 8.83168C10.0351 8.71736 10.4085 8.51026 10.7202 8.22676C10.7711 8.18429 10.8181 8.13732 10.8605 8.08641C11.1157 7.74502 11.4539 7.47448 11.843 7.30043C11.8738 7.20446 11.9214 7.11467 11.9833 7.03517C12.0821 6.90761 12.1989 6.79509 12.33 6.70113C12.3696 6.67527 12.414 6.65761 12.4605 6.6492C12.471 6.64652 12.4818 6.64601 12.4925 6.6477C12.5031 6.6494 12.5133 6.65326 12.5224 6.65905C12.5314 6.66484 12.5392 6.67244 12.5453 6.68137C12.5513 6.6903 12.5554 6.70037 12.5574 6.71096C12.5574 6.72499 12.5574 6.73903 12.5672 6.75306C12.5963 6.76257 12.6234 6.77732 12.6472 6.79657L12.6977 6.84008C12.7678 6.91457 12.824 7.00111 12.8633 7.09552C12.8663 7.10441 12.8719 7.11217 12.8795 7.11771C12.887 7.12324 12.8961 7.12628 12.9055 7.1264L13.0458 7.14885C13.4345 7.22003 13.789 7.41698 14.0548 7.70938C14.3205 8.00178 14.4828 8.37343 14.5167 8.76711C14.5197 8.84511 14.53 8.92264 14.5476 8.99869C14.5822 9.09138 14.6225 9.18184 14.6683 9.26957C14.7034 9.34817 14.7441 9.42537 14.7749 9.50677C14.8074 9.58773 14.8113 9.6773 14.7862 9.76081C14.7777 9.79028 14.7595 9.7987 14.737 9.78467C14.7146 9.77063 14.6753 9.73835 14.6444 9.71449C14.6082 9.68408 14.5697 9.6564 14.5293 9.63168C14.5132 9.62204 14.4941 9.61872 14.4757 9.62235C14.4573 9.62598 14.4409 9.6363 14.4297 9.65133L14.4465 9.66537L14.6907 9.88432C14.7001 9.89532 14.7056 9.90916 14.7062 9.92362C14.7024 10.0365 14.6569 10.1441 14.5784 10.2254C14.533 10.2796 14.4733 10.3202 14.4062 10.3425C14.339 10.3648 14.267 10.368 14.1981 10.3517C14.1981 10.4092 14.1897 10.4191 14.1574 10.4373C13.9479 10.5548 13.7113 10.6153 13.4711 10.6127C13.2959 10.6144 13.1244 10.6629 12.9742 10.7531C12.9261 10.7809 12.8747 10.8026 12.8212 10.8177C12.654 10.8586 12.4825 10.8793 12.3104 10.8794H12.2683C12.2751 10.8872 12.2846 10.8922 12.2949 10.8934C12.433 10.9245 12.5751 10.9335 12.716 10.9201C12.7623 10.9105 12.81 10.9105 12.8563 10.9201C12.9714 10.9678 13.0837 11.024 13.196 11.0815C13.2091 11.09 13.224 11.0955 13.2395 11.0977C13.255 11.0999 13.2708 11.0987 13.2858 11.0942C13.3574 11.0675 13.4262 11.0408 13.4977 11.0099C13.6399 10.9397 13.799 10.911 13.9567 10.9271C14.0455 10.936 14.1316 10.9632 14.2093 11.0071C14.2359 11.0201 14.2585 11.04 14.2748 11.0647C14.2911 11.0894 14.3005 11.118 14.302 11.1475C14.3048 11.1578 14.3107 11.1671 14.3188 11.1742L14.3834 11.2289C14.411 11.2558 14.4319 11.289 14.4441 11.3256C14.4563 11.3622 14.4595 11.4013 14.4535 11.4394C14.4535 11.5096 14.4269 11.5208 14.3651 11.4899C14.3517 11.4806 14.3358 11.4757 14.3195 11.4757C14.3032 11.4757 14.2873 11.4806 14.2739 11.4899C14.3132 11.5152 14.3525 11.5377 14.389 11.5629C14.414 11.5802 14.4338 11.604 14.4464 11.6317C14.4591 11.6593 14.4639 11.6899 14.4606 11.7201C14.4546 11.7667 14.4393 11.8115 14.4156 11.8521C14.392 11.8926 14.3605 11.928 14.3229 11.9561C14.2854 11.9843 14.2425 12.0046 14.197 12.0159C14.1514 12.0272 14.1041 12.0292 14.0577 12.0219C14.0276 12.018 13.9987 12.0075 13.973 11.9913C13.9473 11.975 13.9254 11.9534 13.909 11.9278C13.9078 11.9235 13.9057 11.9195 13.9028 11.9161C13.8999 11.9127 13.8962 11.91 13.8921 11.9082C13.8451 11.909 13.7982 11.9132 13.7518 11.9208C13.6687 11.9465 13.5812 11.9542 13.4949 11.9433C13.4556 11.9433 13.4149 11.925 13.3742 11.9152C13.3392 12.0253 13.2835 12.1277 13.21 12.217C13.0446 12.418 12.8226 12.5647 12.5728 12.638C12.2497 12.7389 11.9075 12.763 11.5735 12.7082C11.347 12.6847 11.1316 12.598 10.952 12.4581C10.7723 12.3181 10.6356 12.1305 10.5574 11.9166C10.5162 11.8006 10.481 11.6826 10.4521 11.5629C10.397 11.3728 10.3202 11.1896 10.2233 11.017C10.074 10.739 9.84663 10.5107 9.56928 10.3601C9.25671 10.1981 8.89792 10.1486 8.55313 10.2198C8.48717 10.2324 8.4212 10.2492 8.34682 10.2661C8.47594 10.2661 8.59524 10.2759 8.71173 10.2885C9.03689 10.3177 9.3505 10.4235 9.62683 10.5973C9.9617 10.7888 10.2077 11.1044 10.3117 11.4759C10.3675 11.6854 10.4447 11.8885 10.5419 12.0822C10.6023 12.2139 10.6818 12.3359 10.7777 12.4443C10.9434 12.6128 11.1529 12.7315 11.3826 12.7868C11.4542 12.8064 11.523 12.8289 11.5932 12.8514C11.6095 12.8569 11.6243 12.8661 11.6364 12.8783C11.6486 12.8904 11.6578 12.9052 11.6633 12.9215C11.7019 13.0192 11.7116 13.1259 11.6914 13.2289C11.6582 13.3901 11.5815 13.5391 11.4696 13.6598C11.3731 13.763 11.2631 13.8527 11.1426 13.9265C11.0852 13.9645 11.0304 14.0062 10.9784 14.0514C10.956 14.0692 10.938 14.0921 10.9261 14.1182C10.9141 14.1443 10.9085 14.1729 10.9096 14.2015C10.9096 14.3082 10.9209 14.3251 11.0275 14.29L11.0767 14.2703L11.3377 14.158C11.5016 14.0851 11.6846 14.0664 11.8598 14.1047C11.9536 14.1227 12.0407 14.1661 12.1115 14.2302C12.1823 14.2943 12.2341 14.3766 12.2612 14.4682C12.2696 14.4872 12.2739 14.5078 12.2739 14.5286C12.2739 14.5493 12.2696 14.5699 12.2612 14.5889C12.2548 14.5988 12.2464 14.6072 12.2365 14.6135C12.2265 14.6198 12.2154 14.6238 12.2037 14.6254C12.1854 14.6254 12.1644 14.6058 12.149 14.5889C12.1335 14.5721 12.1405 14.5608 12.1363 14.5454C12.1295 14.5074 12.1143 14.4714 12.092 14.4398C12.0697 14.4083 12.0408 14.3821 12.0072 14.363C11.9921 14.3574 11.9767 14.3532 11.9609 14.3503C12.0088 14.3977 12.0461 14.4548 12.0703 14.5177C12.0945 14.5806 12.105 14.6479 12.1012 14.7152C12.1004 14.74 12.0945 14.7643 12.0838 14.7866C12.0732 14.809 12.058 14.8289 12.0393 14.8451C12.0206 14.8613 11.9987 14.8735 11.9751 14.8808C11.9514 14.8882 11.9265 14.8906 11.9019 14.8879C11.8697 14.8879 11.8486 14.871 11.8444 14.8401C11.8423 14.8023 11.8423 14.7643 11.8444 14.7265C11.8444 14.6816 11.8444 14.6366 11.8444 14.5861C11.8401 14.5529 11.8258 14.5217 11.8035 14.4967C11.7813 14.4717 11.752 14.4539 11.7195 14.4458C11.687 14.4367 11.6522 14.4407 11.6226 14.457C11.6443 14.4584 11.6653 14.4649 11.6841 14.4759C11.7029 14.4868 11.7188 14.502 11.7307 14.5201C11.7534 14.559 11.7713 14.6005 11.784 14.6437C11.7996 14.6859 11.8009 14.7322 11.7877 14.7752C11.7745 14.8183 11.7476 14.8559 11.7111 14.8823C11.6678 14.9062 11.62 14.9206 11.5707 14.9244C11.471 14.93 11.371 14.9172 11.276 14.8865C11.2175 14.8728 11.1578 14.8653 11.0977 14.864C11.0406 14.8667 10.9838 14.8742 10.9279 14.8865C10.5876 14.9291 10.2441 14.9395 9.90192 14.9173C9.52858 14.9173 9.15524 14.9173 8.7791 14.9173H6.77207C6.49136 14.9173 6.21908 14.9173 5.94259 14.9173C5.56394 14.9173 5.18676 14.8702 4.81977 14.777C3.41625 14.4107 2.36641 13.6542 1.67307 12.377C1.37333 11.8251 1.18811 11.2183 1.12851 10.5931C1.12009 10.5201 1.54114 11.3005 1.54114 11.2247Z"
      fill="#CED0D6" stroke="#CED0D6" stroke-width="0.3"/>
    <path
      d="M12.4648 7.89131C12.3469 7.64008 12.3455 7.53482 12.476 7.29622C12.5775 7.12785 12.6159 6.92884 12.5841 6.73481C12.5804 6.7125 12.5753 6.69046 12.5686 6.66884C12.5664 6.6557 12.5614 6.64317 12.554 6.63205C12.5466 6.62092 12.5371 6.61144 12.5259 6.60419C12.5147 6.59694 12.5021 6.59209 12.4889 6.58993C12.4757 6.58777 12.4623 6.58836 12.4493 6.59165C12.3916 6.60083 12.3366 6.62237 12.2879 6.65481C12.1289 6.77131 11.9871 6.90976 11.8669 7.06604C11.7013 7.2878 11.7265 7.43938 11.8458 7.6064C11.8809 7.65552 11.9034 7.65412 11.9497 7.66254C11.996 7.67096 12.0227 7.58955 12.003 7.55587C11.9627 7.48927 11.936 7.41533 11.9244 7.33832C11.9262 7.18055 11.9891 7.0296 12.0999 6.91727C12.217 6.78662 12.3605 6.68233 12.5209 6.6113C12.5312 6.77667 12.5038 6.94222 12.4409 7.09551C12.389 7.23587 12.2304 7.50394 12.2697 7.67657C12.293 7.74619 12.3297 7.81056 12.3778 7.86605C12.4381 7.91096 12.4648 7.89131 12.4648 7.89131Z"
      fill="#CED0D6" stroke="#CED0D6" stroke-width="0.3"/>
  </g>
  <defs>
    <clipPath id="clip0_1502_176">
      <rect width="16" height="16" fill="white"/>
    </clipPath>
  </defs>
</svg>
