<svg width="128" height="128" viewBox="0 0 128 128" fill="none" xmlns="http://www.w3.org/2000/svg">
<path d="M72.7 26.4L66.2 14.7L48.2 23.4L24.4 25.5L27.7 66.2999L61.4 60.5999L72.7 26.4Z" fill="url(#paint0_linear)"/>
<path d="M38 36.7999L6 28.3999L17.1 94.7999L73.1 98.1999L38 36.7999Z" fill="url(#paint1_linear)"/>
<path d="M53.6 63.7L17.1 94.8L73.1 98.1999L53.6 63.7Z" fill="url(#paint2_linear)"/>
<path d="M73.0999 97.7L68.2 41.6L83.1999 28L106.9 18.3L122 55.8L73.0999 97.7Z" fill="url(#paint3_linear)"/>
<path d="M73.0999 97.6999L68.2 41.5999L90.8 49.2999L122 55.7999L73.0999 97.6999Z" fill="url(#paint4_linear)"/>
<path d="M100.3 55.2999L92.7 39.8999L33.5 51.7999L39.6 108.4L78.7 122L122 96.0999L100.3 55.2999Z" fill="url(#paint5_linear)"/>
<path d="M100.3 55.2999L92.9 40.2L69.6 58.0999L78.7 122L122 96.0999L100.3 55.2999Z" fill="url(#paint6_linear)"/>
<path d="M69.7 58.0999L69.7999 58.9L75 96.0999L107.3 68.5L100.3 55.2999L92.9 40.2L69.7 58.0999Z" fill="url(#paint7_linear)"/>
<path d="M41.5 50.2001L73.1 98.2L99.2 75.6L81.1 42.3L41.5 50.2001Z" fill="url(#paint8_linear)"/>
<path d="M69.6 58.1L33.5 51.8L39.6 108.4L78.7 122L69.6 58.1Z" fill="url(#paint9_linear)"/>
<path d="M75.1 96.5L69.6 58.1L33.5 51.8L35.7 71.9001L73.1 98.2L75.1 96.5Z" fill="url(#paint10_linear)"/>
<path d="M75.1 96.4999L70.7 65.3999L59.5 73.7999L72.9 97.9999L73.1 98.1999L75.1 96.4999Z" fill="url(#paint11_linear)"/>
<path d="M48.4 54.4001L33.5 51.8L38.3 96L73.1 98.2L48.4 54.4001Z" fill="url(#paint12_linear)"/>
<path d="M56.1 97.1L73.1 98.2L58.9 73L56.1 97.1Z" fill="url(#paint13_linear)"/>
<path d="M69.6 58.0999L33.5 51.7999L77.6 12.8999L106.9 18.2999L87.1 38.2999L93 40.1999L69.6 58.0999Z" fill="url(#paint14_linear)"/>
<path d="M72.7 26.4L69.3 20.3L33.5 51.8L69.6 58.1L84.2 46.9001L72.7 26.4Z" fill="url(#paint15_linear)"/>
<path d="M66.2 14.7L25.8 6L6 28.4L38.1 36.9L66.2 14.7Z" fill="url(#paint16_linear)"/>
<path d="M41.5 34.1L25.8 6L6 28.4L38.1 36.9L41.5 34.1Z" fill="url(#paint17_linear)"/>
<path d="M55.8 97.2L39.6 108.4L78.7 122L75.1 96.5L73.2 98.2L55.8 97.2Z" fill="url(#paint18_linear)"/>
<path d="M122 96.1L99.1 75.3001L87.1 38.3L93 40.2001L122 96.1Z" fill="url(#paint19_linear)"/>
<path d="M88.8 43.4001L93 40.2001L87.1 38.3L88.8 43.4001Z" fill="url(#paint20_linear)"/>
<path d="M87 53.2L70.7 65.4L75.1 96.5L99.2 75.5999L87 53.2Z" fill="url(#paint21_linear)"/>
<path d="M100 28H28V100H100V28Z" fill="url(#paint22_linear)"/>
<g opacity="0.3">
<path opacity="0.3" d="M28 95.2L73.1 97.9001L38.2 37L28 34.3V95.2Z" fill="url(#paint23_linear)"/>
<path opacity="0.3" d="M74.5 100H76.5999L75.0999 33.6L73.0999 28H49.7L38.2 37.1L74.5 100Z" fill="url(#paint24_linear)"/>
<path opacity="0.3" d="M100 74.4V28H97.3L87 38.5L92.8 40.3L92.7 40.4L100 55.4V74.4Z" fill="url(#paint25_linear)"/>
<path opacity="0.3" d="M100 55.3999L92.7 40.3999L69.6 58.0999L75.5 99.9999H100V55.3999Z" fill="url(#paint26_linear)"/>
<path opacity="0.3" d="M60.7999 28L33.7 51.9L69.5999 58.1L92.8 40.3L87 38.5L97.3 28H60.7999Z" fill="url(#paint27_linear)"/>
<path opacity="0.3" d="M38.2 37.1L49.7 28H28V34.4L38.2 37.1Z" fill="url(#paint28_linear)"/>
</g>
<path d="M64 86.3999H36.9V90.8999H64V86.3999Z" fill="white"/>
<path d="M60.5 60.1L64 55.9C66.4 57.9 69 59.2 72.1 59.2C74.5 59.2 76 58.2 76 56.6V56.5C76 55 75.1 54.2 70.5 53.1C65 51.7 61.5 50.2 61.5 44.8V44.7C61.5 39.8 65.4 36.5 71 36.5C74.9 36.5 78.3 37.7 81.1 39.9L78 44.5C75.6 42.8 73.2 41.8 71 41.8C68.7 41.8 67.5 42.8 67.5 44.2V44.3C67.5 46.1 68.7 46.7 73.3 47.9C78.8 49.3 81.9 51.3 81.9 56V56.1C81.9 61.5 77.8 64.5 72 64.5C67.9 64.5 63.8 63 60.5 60.1Z" fill="white"/>
<path d="M37 37H48C54.4 37 58.3 40.8 58.3 46.3V46.4C58.3 52.6 53.4 55.9 47.4 55.9H43V64H37V37ZM47.7 50.6C50.7 50.6 52.4 48.8 52.4 46.5V46.4C52.4 43.7 50.6 42.3 47.6 42.3H43V50.6H47.7Z" fill="white"/>
<defs>
<linearGradient id="paint0_linear" x1="27.3874" y1="72.8859" x2="60.1424" y2="9.98145" gradientUnits="userSpaceOnUse">
<stop  offset="0" stop-color="#AF1DF5"/>
<stop offset="0.2116" stop-color="#BC20E4"/>
<stop offset="0.6282" stop-color="#DD29B8"/>
<stop offset="1" stop-color="#FF318C"/>
</linearGradient>
<linearGradient id="paint1_linear" x1="17.8282" y1="92.0088" x2="57.5316" y2="39.5647" gradientUnits="userSpaceOnUse">
<stop offset="0.1207" stop-color="#6B57FF"/>
<stop offset="0.4014" stop-color="#B74AF7"/>
<stop offset="0.7088" stop-color="#FF318C"/>
<stop offset="0.8648" stop-color="#FF7FB8"/>
</linearGradient>
<linearGradient id="paint2_linear" x1="23.6096" y1="108.455" x2="54.0765" y2="87.3622" gradientUnits="userSpaceOnUse">
<stop offset="0.0892486" stop-color="#6B57FF"/>
<stop offset="0.4021" stop-color="#8253FD"/>
<stop offset="0.4579" stop-color="#8A52FC"/>
<stop offset="0.7051" stop-color="#AB4CF8"/>
<stop offset="0.8412" stop-color="#B74AF7"/>
</linearGradient>
<linearGradient id="paint3_linear" x1="103.225" y1="89.3518" x2="77.7801" y2="28.9613" gradientUnits="userSpaceOnUse">
<stop  offset="0" stop-color="#4335BE"/>
<stop offset="0.1308" stop-color="#5638C7"/>
<stop offset="0.5322" stop-color="#8A42E1"/>
<stop offset="0.8343" stop-color="#AB48F1"/>
<stop offset="1" stop-color="#B74AF7"/>
</linearGradient>
<linearGradient id="paint4_linear" x1="102.753" y1="89.0744" x2="80.1193" y2="35.3563" gradientUnits="userSpaceOnUse">
<stop  offset="0" stop-color="#4335BE"/>
<stop offset="0.2419" stop-color="#663BCF"/>
<stop offset="0.7408" stop-color="#B74AF7"/>
</linearGradient>
<linearGradient id="paint5_linear" x1="89.786" y1="108.787" x2="53.2102" y2="55.1762" gradientUnits="userSpaceOnUse">
<stop offset="0.016129" stop-color="#6B57FF"/>
<stop offset="0.7829" stop-color="#B74AF7"/>
</linearGradient>
<linearGradient id="paint6_linear" x1="101.122" y1="103.611" x2="74.6499" y2="64.8101" gradientUnits="userSpaceOnUse">
<stop offset="0.016129" stop-color="#6B57FF"/>
<stop offset="0.7829" stop-color="#B74AF7"/>
</linearGradient>
<linearGradient id="paint7_linear" x1="140.001" y1="94.4042" x2="57.3517" y2="55.7204" gradientUnits="userSpaceOnUse">
<stop  offset="0" stop-color="#4335BE"/>
<stop offset="0.2419" stop-color="#663BCF"/>
<stop offset="0.7408" stop-color="#B74AF7"/>
</linearGradient>
<linearGradient id="paint8_linear" x1="93.9229" y1="107.838" x2="58.0355" y2="39.3261" gradientUnits="userSpaceOnUse">
<stop offset="0.016129" stop-color="#6B57FF"/>
<stop offset="0.7829" stop-color="#B74AF7"/>
</linearGradient>
<linearGradient id="paint9_linear" x1="76.1451" y1="114.789" x2="40.8367" y2="63.036" gradientUnits="userSpaceOnUse">
<stop offset="0.016129" stop-color="#6B57FF"/>
<stop offset="0.6909" stop-color="#B74AF7"/>
</linearGradient>
<linearGradient id="paint10_linear" x1="46.9812" y1="88.1903" x2="64.4884" y2="54.5684" gradientUnits="userSpaceOnUse">
<stop offset="0.016129" stop-color="#6B57FF"/>
<stop offset="0.6969" stop-color="#A329F5"/>
</linearGradient>
<linearGradient id="paint11_linear" x1="56.1736" y1="52.1192" x2="75.1659" y2="89.4049" gradientUnits="userSpaceOnUse">
<stop offset="0.016129" stop-color="#6B57FF"/>
<stop offset="0.6969" stop-color="#A329F5"/>
</linearGradient>
<linearGradient id="paint12_linear" x1="33.643" y1="110.022" x2="64.1683" y2="55.7018" gradientUnits="userSpaceOnUse">
<stop offset="0.0242547" stop-color="#6B57FF"/>
<stop offset="0.263" stop-color="#6B57FF"/>
<stop offset="0.706" stop-color="#B74AF7"/>
<stop offset="0.7659" stop-color="#BC48F0"/>
<stop offset="0.8555" stop-color="#CA44DB"/>
<stop offset="0.9632" stop-color="#E03CBA"/>
<stop offset="1" stop-color="#E939AD"/>
</linearGradient>
<linearGradient id="paint13_linear" x1="54.8765" y1="105.448" x2="69.7112" y2="79.0497" gradientUnits="userSpaceOnUse">
<stop offset="0.0455723" stop-color="#6B57FF"/>
<stop offset="0.295" stop-color="#8A52FC"/>
<stop offset="0.5991" stop-color="#AB4CF8"/>
<stop offset="0.7667" stop-color="#B74AF7"/>
</linearGradient>
<linearGradient id="paint14_linear" x1="78.7003" y1="80.0107" x2="66.5825" y2="15.9261" gradientUnits="userSpaceOnUse">
<stop offset="0.016129" stop-color="#6B57FF"/>
<stop offset="0.5665" stop-color="#B74AF7"/>
<stop offset="0.9064" stop-color="#C276FF"/>
</linearGradient>
<linearGradient id="paint15_linear" x1="50.4845" y1="65.4264" x2="73.4434" y2="21.335" gradientUnits="userSpaceOnUse">
<stop offset="0.016129" stop-color="#6B57FF"/>
<stop offset="0.5974" stop-color="#B74AF7"/>
</linearGradient>
<linearGradient id="paint16_linear" x1="19.1979" y1="52.1877" x2="40.9559" y2="12.701" gradientUnits="userSpaceOnUse">
<stop offset="0.0874352" stop-color="#AF1DF5"/>
<stop offset="0.2329" stop-color="#BC20E4"/>
<stop offset="0.5194" stop-color="#DD29B8"/>
<stop offset="0.7751" stop-color="#FF318C"/>
<stop offset="0.997" stop-color="#FF64B9"/>
</linearGradient>
<linearGradient id="paint17_linear" x1="15.8388" y1="45.5581" x2="29.2552" y2="21.2098" gradientUnits="userSpaceOnUse">
<stop offset="0.00935173" stop-color="#BC20E4"/>
<stop offset="0.4441" stop-color="#D827C0"/>
<stop offset="1" stop-color="#FF318C"/>
</linearGradient>
<linearGradient id="paint18_linear" x1="46.4709" y1="116.216" x2="78.2753" y2="106.069" gradientUnits="userSpaceOnUse">
<stop offset="0.016129" stop-color="#6B57FF"/>
<stop offset="0.6909" stop-color="#B74AF7"/>
<stop offset="0.9772" stop-color="#BD6CF7"/>
</linearGradient>
<linearGradient id="paint19_linear" x1="109.755" y1="65.2704" x2="97.4042" y2="69.8146" gradientUnits="userSpaceOnUse">
<stop offset="0.0753552" stop-color="#6B57FF"/>
<stop offset="0.7396" stop-color="#B74AF7"/>
</linearGradient>
<linearGradient id="paint20_linear" x1="88.7107" y1="48.7238" x2="90.2254" y2="37.8876" gradientUnits="userSpaceOnUse">
<stop  offset="0" stop-color="#B74AF7"/>
<stop offset="1" stop-color="#C276FF"/>
</linearGradient>
<linearGradient id="paint21_linear" x1="93.7005" y1="98.5348" x2="73.1016" y2="59.2097" gradientUnits="userSpaceOnUse">
<stop offset="0.016129" stop-color="#6B57FF"/>
<stop offset="0.7829" stop-color="#B74AF7"/>
</linearGradient>
<linearGradient id="paint22_linear" x1="29.9051" y1="26.4842" x2="91.672" y2="94.4484" gradientUnits="userSpaceOnUse">
<stop  offset="0" stop-color="#562274"/>
<stop offset="0.59375" stop-color="#020202"/>
</linearGradient>
<linearGradient id="paint23_linear" x1="51.4605" y1="107.606" x2="44.8988" y2="29.0419" gradientUnits="userSpaceOnUse">
<stop offset="0.1391" stop-color="#2C083E"/>
<stop offset="0.1711" stop-color="#0E0A25"/>
<stop offset="0.5145" stop-color="#8D1BC7"/>
<stop offset="0.8648" stop-color="#FF45ED"/>
</linearGradient>
<linearGradient id="paint24_linear" x1="69.8653" y1="92.8719" x2="55.5187" y2="30.3757" gradientUnits="userSpaceOnUse">
<stop offset="0.0862819" stop-color="#3B0B6E"/>
<stop offset="0.2814" stop-color="#601274"/>
<stop offset="0.7133" stop-color="#BE2482"/>
<stop offset="1" stop-color="#FF318C"/>
</linearGradient>
<linearGradient id="paint25_linear" x1="92.0351" y1="28.8907" x2="98.6705" y2="48.7967" gradientUnits="userSpaceOnUse">
<stop offset="0.1893" stop-color="#4335BE"/>
<stop offset="0.5166" stop-color="#2B227A"/>
<stop offset="0.8443" stop-color="#15113C"/>
<stop offset="1" stop-color="#0C0A23"/>
</linearGradient>
<linearGradient id="paint26_linear" x1="100.361" y1="94.0349" x2="77.7719" y2="60.9247" gradientUnits="userSpaceOnUse">
<stop  offset="0" stop-color="#15132A"/>
<stop offset="0.4052" stop-color="#331444"/>
<stop offset="0.9653" stop-color="#9F40D7"/>
</linearGradient>
<linearGradient id="paint27_linear" x1="72.1237" y1="74.8562" x2="63.3051" y2="28.2195" gradientUnits="userSpaceOnUse">
<stop offset="0.016129" stop-color="#6B57FF"/>
<stop offset="0.5665" stop-color="#B74AF7"/>
<stop offset="0.9064" stop-color="#C276FF"/>
</linearGradient>
<linearGradient id="paint28_linear" x1="30.9066" y1="42.4599" x2="39.4363" y2="26.98" gradientUnits="userSpaceOnUse">
<stop offset="0.0874352" stop-color="#FF45ED"/>
<stop offset="0.2127" stop-color="#FF42DC"/>
<stop offset="0.4594" stop-color="#FF38B0"/>
<stop offset="0.6408" stop-color="#FF318C"/>
</linearGradient>
</defs>
</svg>
