<svg width="17" height="17" viewBox="0 0 17 17" fill="none" xmlns="http://www.w3.org/2000/svg">
<path fill-rule="evenodd" clip-rule="evenodd" d="M7.10002 13H1V2.05128C1 2.02296 1.02296 2 1.05128 2H4.97888C5.6157 2.03458 6.22162 2.28559 6.69633 2.71149L7.98457 4H15V7.99963C14.1643 7.37194 13.1256 7 12 7C9.23858 7 7 9.23858 7 12C7 12.3425 7.03443 12.6769 7.10002 13Z" fill="#9AA7B0" fill-opacity="0.8"/>
<path fill-rule="evenodd" clip-rule="evenodd" d="M12.4435 14.6014C10.9026 14.6014 9.54834 14.0484 8.84808 13.2317C9.11978 13.9664 9.61004 14.769 10.2529 15.2166C10.8957 15.6643 11.6602 15.9042 12.4435 15.9042C13.2268 15.9042 13.9914 15.6643 14.6342 15.2166C15.277 14.769 15.7672 13.9664 16.0389 13.2317C15.3404 14.0484 13.9913 14.6014 12.4435 14.6014Z" fill="#F37726"/>
<path fill-rule="evenodd" clip-rule="evenodd" d="M12.4435 9.86534C13.9844 9.86534 15.3387 10.4183 16.0389 11.235C15.7672 10.5003 15.277 9.69776 14.6342 9.25011C13.9914 8.80247 13.2268 8.5625 12.4435 8.5625C11.6602 8.5625 10.8957 8.80247 10.2529 9.25011C9.61004 9.69776 9.11978 10.5003 8.84808 11.235C9.54834 10.4166 10.8958 9.86534 12.4435 9.86534Z" fill="#F37726"/>
</svg>
