<svg width="16" height="16" viewBox="0 0 16 16" fill="none" xmlns="http://www.w3.org/2000/svg">
<path d="M2.5 4C2.5 3.17157 3.17157 2.5 4 2.5H12C12.8284 2.5 13.5 3.17157 13.5 4V12C13.5 12.8284 12.8284 13.5 12 13.5H4C3.17157 13.5 2.5 12.8284 2.5 12V4Z" fill="#25324D" stroke="#548AF7"/>
<path d="M9.0005 4.7H9.9905V11H9.0005V4.7ZM7.4075 11.108C6.9875 11.108 6.614 11.0075 6.287 10.8065C5.96 10.6025 5.705 10.3175 5.522 9.9515C5.339 9.5855 5.2475 9.167 5.2475 8.696C5.2475 8.225 5.339 7.8065 5.522 7.4405C5.705 7.0745 5.96 6.791 6.287 6.59C6.614 6.386 6.986 6.284 7.403 6.284C7.787 6.284 8.1245 6.3695 8.4155 6.5405C8.7095 6.7085 8.9375 6.947 9.0995 7.256C9.2645 7.562 9.3485 7.919 9.3515 8.327H9.041V9.065H9.3515C9.3485 9.473 9.2645 9.8315 9.0995 10.1405C8.9375 10.4465 8.711 10.685 8.42 10.856C8.129 11.024 7.7915 11.108 7.4075 11.108ZM7.637 10.2215C7.904 10.2215 8.141 10.157 8.348 10.028C8.558 9.899 8.7215 9.7205 8.8385 9.4925C8.9555 9.2615 9.014 8.996 9.014 8.696C9.014 8.396 8.9555 8.132 8.8385 7.904C8.7215 7.673 8.558 7.493 8.348 7.364C8.141 7.235 7.904 7.1705 7.637 7.1705C7.37 7.1705 7.133 7.235 6.926 7.364C6.722 7.493 6.563 7.673 6.449 7.904C6.335 8.132 6.278 8.396 6.278 8.696C6.278 8.996 6.335 9.2615 6.449 9.4925C6.563 9.7205 6.722 9.899 6.926 10.028C7.133 10.157 7.37 10.2215 7.637 10.2215Z" fill="#548AF7"/>
</svg>
