<svg width="12" height="12" viewBox="0 0 12 12" fill="none" xmlns="http://www.w3.org/2000/svg">
<path d="M1 2.66667C1 1.74619 1.74619 1 2.66667 1H9.33333C10.2538 1 11 1.74619 11 2.66667V9.33333C11 10.2538 10.2538 11 9.33333 11H2.66667C1.74619 11 1 10.2538 1 9.33333V2.66667Z" fill="#548AF7"/>
<path d="M7.0005 2.7H7.9905V9H7.0005V2.7ZM5.4075 9.108C4.9875 9.108 4.614 9.0075 4.287 8.8065C3.96 8.6025 3.705 8.3175 3.522 7.9515C3.339 7.5855 3.2475 7.167 3.2475 6.696C3.2475 6.225 3.339 5.8065 3.522 5.4405C3.705 5.0745 3.96 4.791 4.287 4.59C4.614 4.386 4.986 4.284 5.403 4.284C5.787 4.284 6.1245 4.3695 6.4155 4.5405C6.7095 4.7085 6.9375 4.947 7.0995 5.256C7.2645 5.562 7.3485 5.919 7.3515 6.327H7.041V7.065H7.3515C7.3485 7.473 7.2645 7.8315 7.0995 8.1405C6.9375 8.4465 6.711 8.685 6.42 8.856C6.129 9.024 5.7915 9.108 5.4075 9.108ZM5.637 8.2215C5.904 8.2215 6.141 8.157 6.348 8.028C6.558 7.899 6.7215 7.7205 6.8385 7.4925C6.9555 7.2615 7.014 6.996 7.014 6.696C7.014 6.396 6.9555 6.132 6.8385 5.904C6.7215 5.673 6.558 5.493 6.348 5.364C6.141 5.235 5.904 5.1705 5.637 5.1705C5.37 5.1705 5.133 5.235 4.926 5.364C4.722 5.493 4.563 5.673 4.449 5.904C4.335 6.132 4.278 6.396 4.278 6.696C4.278 6.996 4.335 7.2615 4.449 7.4925C4.563 7.7205 4.722 7.899 4.926 8.028C5.133 8.157 5.37 8.2215 5.637 8.2215Z" fill="#25324D"/>
</svg>
