<svg width="12" height="12" viewBox="0 0 12 12" fill="none" xmlns="http://www.w3.org/2000/svg">
<path d="M1 2.66667C1 1.74619 1.74619 1 2.66667 1H9.33333C10.2538 1 11 1.74619 11 2.66667V9.33333C11 10.2538 10.2538 11 9.33333 11H2.66667C1.74619 11 1 10.2538 1 9.33333V2.66667Z" fill="#57965C"/>
<path d="M4.85355 4.35355L5.20711 4L4.5 3.29289L4.14645 3.64645L4.85355 4.35355ZM2.5 6L2.14645 5.64645L1.79289 6L2.14645 6.35355L2.5 6ZM4.14645 8.35355L4.5 8.70711L5.20711 8L4.85355 7.64645L4.14645 8.35355ZM4.14645 3.64645L2.14645 5.64645L2.85355 6.35355L4.85355 4.35355L4.14645 3.64645ZM2.14645 6.35355L4.14645 8.35355L4.85355 7.64645L2.85355 5.64645L2.14645 6.35355Z" fill="#253627"/>
<path d="M7.14645 7.64645L6.79289 8L7.5 8.70711L7.85355 8.35355L7.14645 7.64645ZM9.5 6L9.85355 6.35355L10.2071 6L9.85355 5.64645L9.5 6ZM7.85355 3.64645L7.5 3.29289L6.79289 4L7.14645 4.35355L7.85355 3.64645ZM7.85355 8.35355L9.85355 6.35355L9.14645 5.64645L7.14645 7.64645L7.85355 8.35355ZM9.85355 5.64645L7.85355 3.64645L7.14645 4.35355L9.14645 6.35355L9.85355 5.64645Z" fill="#253627"/>
</svg>
