<svg width="16" height="16" viewBox="0 0 16 16" fill="none" xmlns="http://www.w3.org/2000/svg">
<path d="M2 4C2 2.89543 2.89543 2 4 2H12C13.1046 2 14 2.89543 14 4V12C14 13.1046 13.1046 14 12 14H4C2.89543 14 2 13.1046 2 12V4Z" fill="#5FB865"/>
<path d="M6.85355 5.85355L7.20711 5.5L6.5 4.79289L6.14645 5.14645L6.85355 5.85355ZM4 8L3.64645 7.64645L3.29289 8L3.64645 8.35355L4 8ZM6.14645 10.8536L6.5 11.2071L7.20711 10.5L6.85355 10.1464L6.14645 10.8536ZM6.14645 5.14645L3.64645 7.64645L4.35355 8.35355L6.85355 5.85355L6.14645 5.14645ZM3.64645 8.35355L6.14645 10.8536L6.85355 10.1464L4.35355 7.64645L3.64645 8.35355Z" fill="#F2FCF3"/>
<path d="M9.14645 10.1464L8.79289 10.5L9.5 11.2071L9.85355 10.8536L9.14645 10.1464ZM12 8L12.3536 8.35355L12.7071 8L12.3536 7.64645L12 8ZM9.85355 5.14645L9.5 4.79289L8.79289 5.5L9.14645 5.85355L9.85355 5.14645ZM9.85355 10.8536L12.3536 8.35355L11.6464 7.64645L9.14645 10.1464L9.85355 10.8536ZM12.3536 7.64645L9.85355 5.14645L9.14645 5.85355L11.6464 8.35355L12.3536 7.64645Z" fill="#F2FCF3"/>
</svg>
