<svg width="12" height="12" viewBox="0 0 12 12" fill="none" xmlns="http://www.w3.org/2000/svg">
<path d="M0.5 2C0.5 1.17157 1.17157 0.5 2 0.5H10C10.8284 0.5 11.5 1.17157 11.5 2V10C11.5 10.8284 10.8284 11.5 10 11.5H2C1.17157 11.5 0.5 10.8284 0.5 10V2Z" fill="#F2FCF3" stroke="#5FB865"/>
<path d="M4.85355 3.85355C5.04882 3.65829 5.04882 3.34171 4.85355 3.14645C4.65829 2.95118 4.34171 2.95118 4.14645 3.14645L4.85355 3.85355ZM2 6L1.64645 5.64645L1.29289 6L1.64645 6.35355L2 6ZM4.14645 8.85355C4.34171 9.04882 4.65829 9.04882 4.85355 8.85355C5.04882 8.65829 5.04882 8.34171 4.85355 8.14645L4.14645 8.85355ZM4.14645 3.14645L1.64645 5.64645L2.35355 6.35355L4.85355 3.85355L4.14645 3.14645ZM1.64645 6.35355L4.14645 8.85355L4.85355 8.14645L2.35355 5.64645L1.64645 6.35355Z" fill="#5FB865"/>
<path d="M7.14645 8.14645C6.95118 8.34171 6.95118 8.65829 7.14645 8.85355C7.34171 9.04882 7.65829 9.04882 7.85355 8.85355L7.14645 8.14645ZM10 6L10.3536 6.35355L10.7071 6L10.3536 5.64645L10 6ZM7.85355 3.14645C7.65829 2.95118 7.34171 2.95118 7.14645 3.14645C6.95118 3.34171 6.95118 3.65829 7.14645 3.85355L7.85355 3.14645ZM7.85355 8.85355L10.3536 6.35355L9.64645 5.64645L7.14645 8.14645L7.85355 8.85355ZM10.3536 5.64645L7.85355 3.14645L7.14645 3.85355L9.64645 6.35355L10.3536 5.64645Z" fill="#5FB865"/>
</svg>
