<svg width="16" height="16" viewBox="0 0 16 16" fill="none" xmlns="http://www.w3.org/2000/svg">
<path d="M2.5 4C2.5 3.17157 3.17157 2.5 4 2.5H12C12.8284 2.5 13.5 3.17157 13.5 4V12C13.5 12.8284 12.8284 13.5 12 13.5H4C3.17157 13.5 2.5 12.8284 2.5 12V4Z" fill="#F2FCF3" stroke="#5FB865"/>
<path d="M6.85355 5.85355C7.04882 5.65829 7.04882 5.34171 6.85355 5.14645C6.65829 4.95118 6.34171 4.95118 6.14645 5.14645L6.85355 5.85355ZM4 8L3.64645 7.64645L3.29289 8L3.64645 8.35355L4 8ZM6.14645 10.8536C6.34171 11.0488 6.65829 11.0488 6.85355 10.8536C7.04882 10.6583 7.04882 10.3417 6.85355 10.1464L6.14645 10.8536ZM6.14645 5.14645L3.64645 7.64645L4.35355 8.35355L6.85355 5.85355L6.14645 5.14645ZM3.64645 8.35355L6.14645 10.8536L6.85355 10.1464L4.35355 7.64645L3.64645 8.35355Z" fill="#5FB865"/>
<path d="M9.14645 10.1464C8.95118 10.3417 8.95118 10.6583 9.14645 10.8536C9.34171 11.0488 9.65829 11.0488 9.85355 10.8536L9.14645 10.1464ZM12 8L12.3536 8.35355L12.7071 8L12.3536 7.64645L12 8ZM9.85355 5.14645C9.65829 4.95118 9.34171 4.95118 9.14645 5.14645C8.95118 5.34171 8.95118 5.65829 9.14645 5.85355L9.85355 5.14645ZM9.85355 10.8536L12.3536 8.35355L11.6464 7.64645L9.14645 10.1464L9.85355 10.8536ZM12.3536 7.64645L9.85355 5.14645L9.14645 5.85355L11.6464 8.35355L12.3536 7.64645Z" fill="#5FB865"/>
</svg>
