<svg width="24" height="24" viewBox="0 0 24 24" fill="none" xmlns="http://www.w3.org/2000/svg">
<path d="M21.0708 24H8.92925C8.15237 24 7.4073 23.6914 6.85796 23.1421C6.30862 22.5927 6 21.8477 6 21.0708V17.9292C6 17.5446 6.07577 17.1637 6.22298 16.8083C6.37019 16.4529 6.58596 16.1299 6.85796 15.8579C7.12997 15.5859 7.45288 15.3702 7.80827 15.223C8.16366 15.0758 8.54458 15 8.92925 15H21.0708C21.8476 15 22.5927 15.3086 23.142 15.8579C23.6914 16.4073 24 17.1523 24 17.9292V21.0708C24 21.8477 23.6914 22.5927 23.142 23.1421C22.5927 23.6914 21.8476 24 21.0708 24Z" fill="#8F38E6"/>
<path d="M12.0382 20.3538V20.3419C12.0382 20.0654 11.9695 19.8501 11.8319 19.6961C11.6944 19.5381 11.5058 19.4136 11.2661 19.3228C11.3408 19.2833 11.4095 19.2359 11.4724 19.1806C11.5392 19.1253 11.5962 19.0621 11.6433 18.991C11.6944 18.9159 11.7337 18.833 11.7612 18.7421C11.7926 18.6512 11.8084 18.5466 11.8084 18.4281V18.4162C11.8084 18.0884 11.6865 17.8276 11.4429 17.6341C11.2032 17.4405 10.8712 17.3438 10.4468 17.3438H8.53125V21.4914H10.494C10.7258 21.4914 10.936 21.4677 11.1246 21.4203C11.3172 21.3729 11.4803 21.3018 11.6139 21.207C11.7514 21.1122 11.8555 20.9937 11.9262 20.8515C12.0009 20.7093 12.0382 20.5434 12.0382 20.3538ZM10.9066 18.5821C10.9066 18.7362 10.8476 18.8488 10.7297 18.9199C10.6119 18.987 10.4527 19.0206 10.2523 19.0206H9.41536V18.1437H10.3113C10.5038 18.1437 10.6512 18.1812 10.7533 18.2562C10.8555 18.3273 10.9066 18.432 10.9066 18.5703V18.5821ZM11.1364 20.2412C11.1364 20.3952 11.0795 20.5098 10.9655 20.5848C10.8516 20.6559 10.6944 20.6915 10.494 20.6915H9.41536V19.779H10.4645C10.7003 19.779 10.8712 19.8205 10.9773 19.9034C11.0834 19.9824 11.1364 20.0911 11.1364 20.2293V20.2412Z" fill="white" fill-opacity="0.86"/>
<path d="M15.6376 19.9923V19.9805C15.6376 19.7553 15.6062 19.54 15.5433 19.3346C15.4844 19.1253 15.3901 18.9416 15.2604 18.7836C15.1347 18.6216 14.9755 18.4932 14.783 18.3984C14.5904 18.3036 14.3625 18.2562 14.0993 18.2562C13.8674 18.2562 13.6552 18.2997 13.4627 18.3866C13.2741 18.4735 13.111 18.592 12.9735 18.7421C12.836 18.8922 12.7279 19.068 12.6493 19.2694C12.5747 19.4709 12.5373 19.6842 12.5373 19.9094V19.9212C12.5373 20.1661 12.5786 20.3893 12.6611 20.5908C12.7436 20.7883 12.8576 20.9601 13.003 21.1063C13.1523 21.2524 13.3271 21.365 13.5275 21.444C13.7319 21.523 13.9519 21.5625 14.1877 21.5625C14.4745 21.5625 14.724 21.5111 14.9362 21.4084C15.1484 21.3018 15.3292 21.1556 15.4785 20.97L14.9657 20.5137C14.84 20.6283 14.7181 20.7112 14.6003 20.7626C14.4824 20.8139 14.3488 20.8396 14.1995 20.8396C13.9991 20.8396 13.8301 20.7883 13.6926 20.6856C13.559 20.5789 13.4706 20.4229 13.4273 20.2175H15.6258C15.6298 20.174 15.6317 20.1365 15.6317 20.1049C15.6357 20.0733 15.6376 20.0358 15.6376 19.9923ZM14.7653 19.6546H13.4156C13.4509 19.4492 13.5256 19.2852 13.6395 19.1628C13.7574 19.0403 13.9107 18.9791 14.0993 18.9791C14.2879 18.9791 14.4392 19.0423 14.5531 19.1687C14.6671 19.2912 14.7378 19.4531 14.7653 19.6546Z" fill="white" fill-opacity="0.86"/>
<path d="M18.0794 21.361V20.6382C17.9419 20.7132 17.7945 20.7507 17.6374 20.7507C17.4448 20.7507 17.3486 20.648 17.3486 20.4426V19.0858H18.0912V18.3155H17.3486V17.5037H16.4527V18.3155H16.0754V19.0858H16.4527V20.5908C16.4527 20.7764 16.4743 20.9305 16.5175 21.0529C16.5646 21.1714 16.6275 21.2682 16.7061 21.3433C16.7886 21.4183 16.8849 21.4697 16.9949 21.4973C17.1089 21.5289 17.2346 21.5447 17.3721 21.5447C17.5215 21.5447 17.6531 21.5269 17.767 21.4914C17.881 21.4598 17.9851 21.4163 18.0794 21.361Z" fill="white" fill-opacity="0.86"/>
<path d="M21.4688 21.4914V19.6487C21.4688 19.2181 21.3568 18.8823 21.1328 18.6414C20.9088 18.4004 20.5512 18.2799 20.0601 18.2799C19.7929 18.2799 19.565 18.3036 19.3764 18.351C19.1877 18.3984 19.007 18.4597 18.8341 18.5347L19.0581 19.222C19.2035 19.1667 19.341 19.1253 19.4707 19.0976C19.6043 19.066 19.7575 19.0502 19.9304 19.0502C20.1544 19.0502 20.3233 19.0996 20.4373 19.1983C20.5512 19.2971 20.6082 19.4413 20.6082 19.6309V19.6842C20.4943 19.6447 20.3764 19.6131 20.2546 19.5894C20.1367 19.5657 19.9972 19.5539 19.8361 19.5539C19.6475 19.5539 19.4746 19.5756 19.3174 19.619C19.1642 19.6585 19.0306 19.7198 18.9166 19.8027C18.8066 19.8857 18.7201 19.9903 18.6573 20.1167C18.5944 20.2432 18.563 20.3933 18.563 20.5671V20.5789C18.563 20.7369 18.5905 20.8772 18.6455 20.9996C18.7044 21.1181 18.783 21.2188 18.8812 21.3018C18.9795 21.3847 19.0934 21.4479 19.2231 21.4914C19.3567 21.5309 19.4982 21.5506 19.6475 21.5506C19.8675 21.5506 20.0542 21.5151 20.2074 21.444C20.3607 21.3689 20.4923 21.2702 20.6023 21.1477V21.4914H21.4688ZM20.62 20.3715C20.62 20.5374 20.5552 20.6717 20.4255 20.7744C20.2998 20.8772 20.1308 20.9285 19.9186 20.9285C19.7732 20.9285 19.6553 20.8949 19.565 20.8278C19.4746 20.7606 19.4294 20.6658 19.4294 20.5434V20.5315C19.4294 20.3893 19.4844 20.2807 19.5944 20.2056C19.7045 20.1306 19.8557 20.093 20.0483 20.093C20.1583 20.093 20.2605 20.1049 20.3548 20.1286C20.453 20.1483 20.5414 20.176 20.62 20.2116V20.3715Z" fill="white" fill-opacity="0.86"/>
</svg>
