<svg width="128" height="128" viewBox="0 0 128 128" fill="none" xmlns="http://www.w3.org/2000/svg">
<path d="M112.377 128H47.6227C43.4793 128 39.5056 126.354 36.5758 123.424C33.646 120.495 32 116.521 32 112.377V95.6226C32 93.571 32.4041 91.5395 33.1892 89.644C33.9743 87.7486 35.1251 86.0264 36.5758 84.5757C38.0265 83.125 39.7487 81.9743 41.6441 81.1892C43.5395 80.4041 45.5711 80 47.6227 80H112.377C116.521 80 120.494 81.6459 123.424 84.5757C126.354 87.5055 128 91.4792 128 95.6226V112.377C128 116.521 126.354 120.495 123.424 123.424C120.494 126.354 116.521 128 112.377 128Z" fill="#8F38E6"/>
<path d="M64.2039 108.553V108.49C64.2039 107.015 63.8371 105.867 63.1036 105.046C62.3702 104.203 61.3642 103.539 60.0859 103.055C60.4841 102.844 60.8508 102.591 61.1861 102.296C61.5424 102.001 61.8462 101.664 62.0977 101.285C62.3702 100.885 62.5797 100.442 62.7264 99.9579C62.8941 99.4733 62.9779 98.915 62.9779 98.283V98.2198C62.9779 96.4712 62.3282 95.0808 61.0289 94.0485C59.7506 93.0162 57.9797 92.5 55.7164 92.5H45.5V114.621H55.9679C57.2043 114.621 58.3255 114.494 59.3314 114.242C60.3583 113.989 61.228 113.61 61.9405 113.104C62.674 112.598 63.2294 111.966 63.6066 111.208C64.0048 110.449 64.2039 109.565 64.2039 108.553ZM58.1683 99.1046C58.1683 99.9263 57.854 100.527 57.2253 100.906C56.5966 101.264 55.7478 101.443 54.679 101.443H50.2153V96.7662H54.9934C56.0203 96.7662 56.8062 96.9663 57.351 97.3666C57.8959 97.7458 58.1683 98.3041 58.1683 99.0414V99.1046ZM59.3943 107.953C59.3943 108.775 59.0904 109.386 58.4827 109.786C57.8749 110.165 57.0367 110.355 55.9679 110.355H50.2153V105.488H55.8107C57.0681 105.488 57.9797 105.709 58.5456 106.152C59.1114 106.573 59.3943 107.152 59.3943 107.89V107.953Z" fill="white" fill-opacity="0.86"/>
<path d="M83.4006 106.626V106.563C83.4006 105.362 83.233 104.213 82.8977 103.118C82.5833 102.001 82.0804 101.022 81.3888 100.179C80.7182 99.3153 79.8694 98.6306 78.8426 98.125C77.8157 97.6194 76.6002 97.3666 75.1961 97.3666C73.9596 97.3666 72.828 97.5983 71.8011 98.0618C70.7952 98.5253 69.9255 99.1573 69.192 99.9579C68.4585 100.758 67.8822 101.696 67.4631 102.77C67.0649 103.845 66.8658 104.982 66.8658 106.183V106.246C66.8658 107.553 67.0858 108.743 67.5259 109.817C67.966 110.871 68.5738 111.787 69.3492 112.567C70.1455 113.346 71.0781 113.947 72.1469 114.368C73.2366 114.789 74.4102 115 75.6676 115C77.1975 115 78.5282 114.726 79.6599 114.178C80.7915 113.61 81.7555 112.83 82.5519 111.84L79.817 109.407C79.1464 110.018 78.4968 110.46 77.8681 110.734C77.2394 111.008 76.5268 111.145 75.7305 111.145C74.6617 111.145 73.7605 110.871 73.0271 110.323C72.3145 109.754 71.843 108.922 71.6125 107.827H83.3378C83.3587 107.595 83.3692 107.395 83.3692 107.226C83.3902 107.058 83.4006 106.857 83.4006 106.626ZM78.7482 104.824H71.5496C71.7382 103.729 72.1364 102.855 72.7441 102.202C73.3728 101.548 74.1902 101.222 75.1961 101.222C76.202 101.222 77.0088 101.559 77.6166 102.233C78.2243 102.886 78.6016 103.75 78.7482 104.824Z" fill="white" fill-opacity="0.86"/>
<path d="M96.4236 113.926V110.07C95.6901 110.471 94.9042 110.671 94.066 110.671C93.0391 110.671 92.5257 110.123 92.5257 109.027V101.791H96.4865V97.6826H92.5257V93.3532H87.7475V97.6826H85.7357V101.791H87.7475V109.817C87.7475 110.808 87.8628 111.629 88.0933 112.282C88.3448 112.914 88.6801 113.43 89.0992 113.831C89.5393 114.231 90.0528 114.505 90.6395 114.652C91.2473 114.821 91.9179 114.905 92.6514 114.905C93.4477 114.905 94.1498 114.81 94.7575 114.621C95.3653 114.452 95.9206 114.221 96.4236 113.926Z" fill="white" fill-opacity="0.86"/>
<path d="M114.5 114.621V104.793C114.5 102.496 113.903 100.706 112.708 99.4206C111.514 98.1355 109.607 97.493 106.987 97.493C105.562 97.493 104.346 97.6194 103.341 97.8722C102.335 98.125 101.371 98.4515 100.449 98.8518L101.643 102.518C102.418 102.223 103.152 102.001 103.844 101.854C104.556 101.685 105.373 101.601 106.295 101.601C107.49 101.601 108.391 101.864 108.999 102.391C109.607 102.918 109.91 103.687 109.91 104.698V104.982C109.303 104.772 108.674 104.603 108.024 104.477C107.396 104.35 106.652 104.287 105.792 104.287C104.787 104.287 103.864 104.403 103.026 104.635C102.209 104.846 101.496 105.172 100.889 105.614C100.302 106.057 99.8408 106.615 99.5055 107.289C99.1702 107.963 99.0025 108.764 99.0025 109.691V109.754C99.0025 110.597 99.1492 111.345 99.4426 111.998C99.7569 112.63 100.176 113.167 100.7 113.61C101.224 114.052 101.832 114.389 102.523 114.621C103.236 114.831 103.99 114.937 104.787 114.937C105.96 114.937 106.956 114.747 107.773 114.368C108.59 113.968 109.292 113.441 109.879 112.788V114.621H114.5ZM109.973 108.648C109.973 109.533 109.628 110.249 108.936 110.797C108.265 111.345 107.364 111.619 106.233 111.619C105.457 111.619 104.828 111.44 104.346 111.081C103.864 110.723 103.623 110.218 103.623 109.565V109.501C103.623 108.743 103.917 108.164 104.504 107.763C105.09 107.363 105.897 107.163 106.924 107.163C107.511 107.163 108.056 107.226 108.559 107.353C109.083 107.458 109.554 107.605 109.973 107.795V108.648Z" fill="white" fill-opacity="0.86"/>
</svg>
