<svg width="256" height="256" viewBox="0 0 256 256" fill="none" xmlns="http://www.w3.org/2000/svg">
<g clip-path="url(#clip0_4407_11028)">
<path d="M0 16.2909L0 152.164C0 158.68 3.88422 164.571 9.87229 167.138L159.835 231.41C161.862 232.278 164.047 232.727 166.253 232.727H239.709C248.706 232.727 256 225.434 256 216.436V144.572C256 141.354 255.046 138.207 253.258 135.529L167.647 7.25411C164.624 2.72524 159.541 0.00698182 154.098 0.00698182L16.2909 0C7.29367 0 0 7.29367 0 16.2909Z" fill="url(#paint0_linear_4407_11028)"/>
<path d="M23.2725 197.923L23.2725 239.709C23.2725 248.706 30.5661 256 39.5634 256H91.934C92.7043 256 93.4746 255.944 94.238 255.837L242.013 234.729C250.04 233.581 256 226.709 256 218.601V155.909C256 146.909 248.704 139.615 239.704 139.618L165.55 139.636C163.8 139.636 162.062 139.918 160.402 140.472L34.4108 182.47C27.7594 184.688 23.2725 190.913 23.2725 197.925V197.923Z" fill="url(#paint1_linear_4407_11028)"/>
<path d="M23.2725 192.21L23.2794 239.711C23.2794 248.709 30.5731 256 39.5703 256H85.5968C90.3514 256 94.871 253.922 97.9663 250.312L228.806 97.6664C231.335 94.7131 232.727 90.9522 232.727 87.0634V39.5614C232.727 30.5642 225.433 23.2705 216.436 23.2705L170.403 23.2705C165.648 23.2705 161.128 25.3488 158.033 28.9584L27.1962 181.604C24.6642 184.557 23.2748 188.318 23.2748 192.21H23.2725Z" fill="#00D886"/>
<path d="M209 47L47 47L47 209L209 209L209 47Z" fill="black"/>
<path fill-rule="evenodd" clip-rule="evenodd" d="M91.734 130.55C87.9107 129.971 84.3277 128.781 81.0202 126.892L81.0225 126.895C76.2889 124.117 72.5565 120.359 69.8256 115.567C67.1249 110.719 65.7734 105.383 65.7734 99.4447C65.7734 93.5066 67.1249 88.1707 69.8256 83.3763C72.5565 78.5306 76.2889 74.7726 81.0225 72.0486C85.7866 69.271 91.0595 67.9102 96.9252 67.9102C102.791 67.9102 108.092 69.271 112.828 72.0486C117.59 74.7726 121.324 78.5306 124.025 83.3763C126.726 88.1707 128.077 93.509 128.077 99.4447C128.077 105.381 126.726 110.719 124.025 115.567C121.324 120.359 117.592 124.117 112.828 126.895C109.749 128.664 106.407 129.798 102.849 130.417V130.762C102.849 131.687 103.024 132.45 103.372 133.103C103.722 133.757 104.215 134.247 104.854 134.574C105.494 134.903 106.278 135.064 107.207 135.064H114.658V143.887H104.854C102.21 143.887 99.8873 143.341 97.8822 142.307C95.9075 141.327 94.381 139.856 93.3073 137.949C92.2615 136.098 91.7387 133.864 91.7387 131.304L91.734 130.55ZM87.2081 81.0865C84.3324 82.8862 82.0659 85.3907 80.411 88.6586C78.7841 91.8167 77.9718 95.4136 77.9718 99.4424C77.9718 103.471 78.7841 107.066 80.411 110.28C82.0659 113.492 84.3324 115.996 87.2081 117.85C90.1118 119.647 93.3656 120.518 96.9672 120.518C100.569 120.518 103.809 119.647 106.684 117.85C109.56 115.999 111.81 113.492 113.437 110.28C115.062 107.066 115.876 103.474 115.876 99.4424C115.876 95.4113 115.064 91.8167 113.437 88.6586C111.81 85.3884 109.56 82.8838 106.684 81.0865C103.809 79.2869 100.569 78.3625 96.9672 78.3625C93.3656 78.3625 90.1118 79.2892 87.2081 81.0865Z" fill="white"/>
<path fill-rule="evenodd" clip-rule="evenodd" d="M151.225 68.9419H164.119L186.732 129.941L174.751 129.941L169.828 115.782H146.083L141.463 129.941H129.221L151.225 68.9419ZM156.67 83.3227L148.914 106.578H166.691L158.456 83.3227L157.541 79.455L156.67 83.3227Z" fill="white"/>
<path d="M133 177H68V188H133V177Z" fill="white"/>
<rect y="176" width="255.998" height="80" rx="26" fill="#3BEA62"/>
<g opacity="0.9">
<path d="M21.9707 231.774H28.8206V222.269H34.0247C41.008 222.269 46.6125 218.467 46.6125 211.134V211.044C46.6125 204.571 42.12 200.091 34.6919 200.091H21.9707V231.774ZM28.8206 216.068V206.382H34.1137C37.5386 206.382 39.6736 208.057 39.6736 211.18V211.27C39.6736 213.986 37.672 216.068 34.2471 216.068H28.8206Z" fill="#010101"/>
<path d="M51.6818 231.774H58.5316V221.635H63.9137L70.5856 231.774H78.592L70.986 220.458C74.9447 218.965 77.6579 215.751 77.6579 210.636V210.546C77.6579 207.559 76.7238 205.069 74.9891 203.304C72.9431 201.222 69.874 200.091 65.9153 200.091H51.6818V231.774ZM58.5316 215.479V206.382H65.337C68.673 206.382 70.7191 207.921 70.7191 210.908V210.999C70.7191 213.669 68.8065 215.479 65.4705 215.479H58.5316Z" fill="#010101"/>
<path d="M83.8253 231.774H107.533V225.573H90.6307V218.919H105.309V212.719H90.6307V206.291H107.311V200.091H83.8253V231.774Z" fill="#010101"/>
<path d="M123.542 232H129.591L142.179 200.091H134.796L126.656 222.405L118.516 200.091H110.954L123.542 232Z" fill="#010101"/>
<path d="M147.294 231.774H154.144V200.091H147.294V231.774Z" fill="#010101"/>
<path d="M161.925 231.774H185.633V225.573H168.731V218.919H183.409V212.719H168.731V206.291H185.411V200.091H161.925V231.774Z" fill="#010101"/>
<path d="M199.952 232H205.912L212.94 211.27L219.968 232H225.928L236.559 200.091H229.398L222.948 221.545L215.965 200H210.094L203.11 221.545L196.661 200.091H189.321L199.952 232Z" fill="#010101"/>
</g>
</g>
<defs>
<linearGradient id="paint0_linear_4407_11028" x1="240.074" y1="239.111" x2="5.25266" y2="4.29148" gradientUnits="userSpaceOnUse">
<stop offset="0.25" stop-color="#7256FF"/>
<stop offset="0.73" stop-color="#007DFE"/>
</linearGradient>
<linearGradient id="paint1_linear_4407_11028" x1="30.487" y1="258.869" x2="248.245" y2="157.908" gradientUnits="userSpaceOnUse">
<stop offset="0.3" stop-color="#00D886"/>
<stop offset="0.54" stop-color="#7256FF"/>
</linearGradient>
<clipPath id="clip0_4407_11028">
<rect width="256" height="256" fill="white"/>
</clipPath>
</defs>
</svg>
