<svg xmlns="http://www.w3.org/2000/svg" width="64" height="64" fill="none" viewBox="0 0 64 64">
  <defs>
    <linearGradient id="a" x1="13.915" x2="27.198" y1="14.584" y2="45.345" gradientUnits="userSpaceOnUse">
      <stop offset=".068" stop-color="#FF4EFD"/>
      <stop offset=".964" stop-color="#484DFC"/>
    </linearGradient>
    <linearGradient id="b" x1="3" x2="18.905" y1="16.14" y2="54.212" gradientUnits="userSpaceOnUse">
      <stop  offset="0" stop-color="#DA38FF"/>
      <stop offset=".223" stop-color="#DA38FF"/>
      <stop offset=".828" stop-color="#087CFA"/>
    </linearGradient>
    <linearGradient id="c" x1="32.906" x2="23.906" y1="38.121" y2="11.537" gradientUnits="userSpaceOnUse">
      <stop offset=".281" stop-color="#6B57FF"/>
      <stop offset=".875" stop-color="#9E3DFF"/>
    </linearGradient>
    <linearGradient id="d" x1="7.758" x2="7.758" y1="19.426" y2="29.847" gradientUnits="userSpaceOnUse">
      <stop  offset="0" stop-color="#E19AFB"/>
      <stop offset=".688" stop-color="#EB73FF" stop-opacity=".69"/>
    </linearGradient>
    <linearGradient id="e" x1="48.08" x2="1.274" y1="21.713" y2="48.611" gradientUnits="userSpaceOnUse">
      <stop offset=".044" stop-color="#3BEA62"/>
      <stop offset=".98" stop-color="#009AE5"/>
    </linearGradient>
    <linearGradient id="f" x1="55.959" x2="21.937" y1="28.353" y2="47.904" gradientUnits="userSpaceOnUse">
      <stop offset=".01" stop-color="#3BEA62"/>
      <stop offset=".3" stop-color="#2BD486"/>
      <stop offset=".76" stop-color="#009AE5"/>
    </linearGradient>
    <linearGradient id="g" x1="37.189" x2="49.227" y1="-1.699" y2="25.168" gradientUnits="userSpaceOnUse">
      <stop offset=".193" stop-color="#3BEA62"/>
      <stop offset=".333" stop-color="#39E766"/>
      <stop offset=".474" stop-color="#33E072"/>
      <stop offset=".616" stop-color="#2AD386"/>
      <stop offset=".759" stop-color="#1DC2A2"/>
      <stop offset=".9" stop-color="#0DACC6"/>
      <stop offset="1" stop-color="#009AE5"/>
    </linearGradient>
    <linearGradient id="h" x1="26.337" x2="45.005" y1="9.086" y2="13.099" gradientUnits="userSpaceOnUse">
      <stop offset=".097" stop-color="#A8FF68"/>
      <stop offset=".501" stop-color="#2BD486" stop-opacity="0"/>
    </linearGradient>
    <linearGradient id="i" x1="65.008" x2="49.655" y1="16.536" y2="12.698" gradientUnits="userSpaceOnUse">
      <stop offset=".463" stop-color="#3BEA62"/>
      <stop offset=".98" stop-color="#009AE5"/>
    </linearGradient>
    <linearGradient id="j" x1="31.421" x2="24.17" y1="64.108" y2="23.845" gradientUnits="userSpaceOnUse">
      <stop offset=".044" stop-color="#3BEA62"/>
      <stop offset=".98" stop-color="#009AE5"/>
    </linearGradient>
    <linearGradient id="k" x1="17.421" x2="28.405" y1="22.704" y2="48.141" gradientUnits="userSpaceOnUse">
      <stop  offset="0" stop-color="#C7489F"/>
      <stop offset=".072" stop-color="#C34DA5" stop-opacity=".914"/>
      <stop offset=".216" stop-color="#B95CB4" stop-opacity=".69"/>
      <stop offset=".415" stop-color="#A974CD" stop-opacity=".332"/>
      <stop offset=".585" stop-color="#9B8BE5" stop-opacity="0"/>
    </linearGradient>
    <linearGradient id="l" x1="39.477" x2="8.438" y1="15.008" y2="23.164" gradientUnits="userSpaceOnUse">
      <stop offset=".044" stop-color="#3BEA62"/>
      <stop offset=".98" stop-color="#009AE5"/>
    </linearGradient>
    <linearGradient id="m" x1="20.898" x2="15.587" y1="56.016" y2="31.463" gradientUnits="userSpaceOnUse">
      <stop offset=".373" stop-color="#3BEA62" stop-opacity="0"/>
      <stop offset="1" stop-color="#C931FF"/>
    </linearGradient>
    <linearGradient id="n" x1="15.421" x2="29.491" y1="28.489" y2="26.555" gradientUnits="userSpaceOnUse">
      <stop  offset="0" stop-color="#26B2C4" stop-opacity="0"/>
      <stop offset=".287" stop-color="#43C3AA" stop-opacity=".285"/>
      <stop offset=".953" stop-color="#8CF06A" stop-opacity=".994"/>
      <stop offset=".958" stop-color="#8DF16A"/>
    </linearGradient>
    <linearGradient id="o" x1="51.548" x2="28.255" y1="35.518" y2="64.211" gradientUnits="userSpaceOnUse">
      <stop  offset="0" stop-color="#C7489F"/>
      <stop offset=".072" stop-color="#C34DA5" stop-opacity=".914"/>
      <stop offset=".216" stop-color="#B95CB4" stop-opacity=".69"/>
      <stop offset=".415" stop-color="#A974CD" stop-opacity=".332"/>
      <stop offset=".585" stop-color="#9B8BE5" stop-opacity="0"/>
    </linearGradient>
    <linearGradient id="p" x1="45.419" x2="42.393" y1="41.024" y2="44.752" gradientUnits="userSpaceOnUse">
      <stop offset=".306" stop-color="#EB73FF" stop-opacity="0"/>
      <stop offset="1" stop-color="#BD31FF"/>
    </linearGradient>
    <linearGradient id="q" x1="9.344" x2="29.508" y1="35.398" y2="61" gradientUnits="userSpaceOnUse">
      <stop offset=".212" stop-color="#3BEA62"/>
      <stop offset=".98" stop-color="#009AE5"/>
    </linearGradient>
    <linearGradient id="r" x1="55.924" x2="48.248" y1="18.085" y2="40.068" gradientUnits="userSpaceOnUse">
      <stop offset=".097" stop-color="#95F286"/>
      <stop offset=".501" stop-color="#2BD486" stop-opacity="0"/>
    </linearGradient>
    <linearGradient id="s" x1="13.547" x2="49.343" y1="14.087" y2="48.836" gradientUnits="userSpaceOnUse">
      <stop  offset="0" stop-color="#007859"/>
      <stop offset=".088" stop-color="#00533E"/>
      <stop offset=".192" stop-color="#002F23"/>
      <stop offset=".289" stop-color="#001510"/>
      <stop offset=".377" stop-color="#000604"/>
      <stop offset=".445"/>
      <stop offset=".914"/>
    </linearGradient>
    <linearGradient id="t" x1="17.299" x2="27.305" y1="18.648" y2="41.819" gradientUnits="userSpaceOnUse">
      <stop offset=".326" stop-color="#FF318C"/>
      <stop offset=".384" stop-color="#F4358F"/>
      <stop offset=".484" stop-color="#D84099"/>
      <stop offset=".614" stop-color="#AA53A9"/>
      <stop offset=".769" stop-color="#6B6DBF"/>
      <stop offset=".944" stop-color="#1B8EDB"/>
      <stop offset="1" stop-color="#009AE5"/>
    </linearGradient>
    <linearGradient id="u" x1="12.139" x2="18.161" y1="32.965" y2="46.912" gradientUnits="userSpaceOnUse">
      <stop offset=".058" stop-color="#FF318C"/>
      <stop offset=".141" stop-color="#F43492"/>
      <stop offset=".285" stop-color="#D83DA4"/>
      <stop offset=".47" stop-color="#AB4CC1"/>
      <stop offset=".584" stop-color="#8C57D5"/>
      <stop offset=".71" stop-color="#5C6DDA"/>
      <stop offset=".933" stop-color="#009AE5"/>
    </linearGradient>
    <linearGradient id="v" x1="16.442" x2="36.796" y1="19.362" y2="43.671" gradientUnits="userSpaceOnUse">
      <stop offset=".191" stop-color="#FF318C"/>
      <stop offset=".464" stop-color="#8363B7"/>
      <stop offset=".764" stop-color="#009AE5"/>
    </linearGradient>
    <linearGradient id="w" x1="44.129" x2="5.712" y1="25.03" y2="47.107" gradientUnits="userSpaceOnUse">
      <stop offset=".044" stop-color="#3BEA62"/>
      <stop offset=".877" stop-color="#024546"/>
    </linearGradient>
    <linearGradient id="x" x1="36.748" x2="50.316" y1="12.613" y2="21.008" gradientUnits="userSpaceOnUse">
      <stop offset=".097" stop-color="#A8FF68"/>
      <stop offset=".501" stop-color="#2BD486"/>
      <stop offset="1" stop-color="#1686E6"/>
    </linearGradient>
    <linearGradient id="y" x1="29.207" x2="10.035" y1="15.652" y2="53.188" gradientUnits="userSpaceOnUse">
      <stop offset=".044" stop-color="#99EA51"/>
      <stop offset=".98" stop-color="#009AE5"/>
    </linearGradient>
    <linearGradient id="z" x1="49.176" x2="42.015" y1="25.878" y2="53.482" gradientUnits="userSpaceOnUse">
      <stop offset=".097" stop-color="#95F286"/>
      <stop offset=".501" stop-color="#2BD486"/>
    </linearGradient>
  </defs>
  <path fill="url(#a)" d="m30.412 23.83-24.53-5.995L3 24.655l8.842 28.283L35.336 61l10.112-16.543L30.412 23.83Z"/>
  <path fill="url(#b)" d="M5.883 17.835 3 24.655l8.842 28.283 4.153-11.653.906-6.797L5.883 17.835Z"/>
  <path fill="url(#c)" d="m30.412 23.721-24.53-5.995L3 24.546l28.843 9.975-1.43-10.8Z"/>
  <path fill="url(#d)" d="M5.883 17.836 3 24.656l9.59 3.316-6.707-10.136Z"/>
  <path fill="url(#e)" d="M61 19.591 55.103 8.048 25.022 3l-13.18 49.938L35.335 61 61 19.59Z"/>
  <path fill="url(#f)" d="M61 19.591 55.105 8.048 35.335 61 61 19.59Z"/>
  <path fill="url(#g)" d="M61 19.591 55.105 8.048 25.023 3l10.003 15.176L61 19.59Z"/>
  <path fill="url(#h)" d="M61 19.591 55.105 8.048 25.023 3l10.003 15.176L61 19.59Z"/>
  <path fill="url(#i)" d="M61 19.591 55.105 8.048l-4.106 10.998L61 19.591Z"/>
  <path fill="url(#j)" d="m16.902 34.488-.136-.205-4.923 18.655L35.336 61 45.45 44.457l-28.547-9.969Z"/>
  <path fill="url(#k)" d="m45.449 44.457-13.14-20.39-12.124-2.736-8.342 31.608L35.336 61 45.45 44.457Z"/>
  <path fill="url(#l)" d="M35.026 18.176 25.022 3l-13.18 49.938L24.15 41.285l10.875-23.11Z"/>
  <path fill="url(#m)" d="m11.843 52.938 12.309-11.653 1.724-3.663-8.974-3.134-.136-.205-2.335 8.85-2.588 9.805Z"/>
  <path fill="url(#n)" d="m17.943 29.823 9.979 3.451 4.386-9.208-12.123-2.735-2.242 8.492Z"/>
  <path fill="url(#o)" d="m35.336 61 10.112-16.543-2.492-3.868L35.336 61Z"/>
  <path fill="url(#p)" d="m45.448 44.457-2.492-3.868-.99 2.652 3.482 1.216Z"/>
  <path fill="url(#q)" d="m24.152 41.285-12.31 11.654 23.494 8.06-11.184-19.714Z"/>
  <path fill="url(#r)" d="M50.999 19.046 35.336 61 61 19.59l-10.001-.545Z"/>
  <path fill="url(#s)" d="M50 14H14v36h36V14Z"/>
  <g opacity=".2">
    <path fill="url(#t)" d="M14.007 19.906V50h27.791l3.44-5.628-14.93-20.482-16.301-3.984Z"/>
    <path fill="url(#u)" d="m14.007 46.792 1.985-5.57.9-6.75-2.885-4.359v16.679Z"/>
    <path fill="url(#v)" d="m14.007 28.485 17.721 6.129-1.42-10.724-16.301-3.984v8.579Z"/>
    <path fill="url(#w)" d="M50.003 36.91V14.002H22.106l-8.1 30.686V50H41.89l8.113-13.09Z"/>
    <path fill="url(#x)" d="m34.89 18.274 15.114.824v-5.095h-17.93l2.816 4.271Z"/>
    <path fill="url(#y)" d="M14.007 44.69V50h.812l9.272-8.778L34.89 18.274l-2.815-4.27h-9.97l-8.098 30.685Z"/>
    <path fill="url(#z)" d="m41.89 50 8.114-13.09V21.14L39.229 50h2.661Z"/>
  </g>
  <path fill="#fff" d="M32 43.2H18.4v2.2H32v-2.2Z"/>
  <path fill="#fff" d="M38.142 18.375h2.653L46.4 31.92h-3.008l-1.196-3.016h-5.53L35.47 31.92h-2.933l5.605-13.544Zm3.026 7.915-1.737-4.36-1.738 4.36h3.475Z"/>
  <path fill="#fff" d="m30.253 32.323-1.438-1.326a6.985 6.985 0 0 1-3.887 1.153c-4.035 0-6.93-3.093-6.93-6.916v-.039c0-3.823 2.932-6.954 6.968-6.954s6.931 3.093 6.931 6.916v.038c0 1.422-.43 2.747-1.158 3.862l1.345 1.172-1.83 2.094Zm-3.568-3.266-2.13-1.864 1.83-2.113 2.15 1.998a4.828 4.828 0 0 0 .354-1.844v-.039c0-2.305-1.644-4.226-3.96-4.226-2.317 0-3.924 1.883-3.924 4.188v.038c0 2.306 1.644 4.227 3.961 4.227.635 0 1.214-.116 1.719-.365Z"/>
</svg>
