<svg width="16" height="16" viewBox="0 0 16 16" fill="none" xmlns="http://www.w3.org/2000/svg">
  <line stroke="#CED0D6" x1="2.64645" y1="13.253" x2="13.253" y2="2.64644"/>
  <path fill="#CED0D6"
        d="M4.13333 14C3.43556 14 2.90444 13.8222 2.54 13.4667C2.18 13.1107 2 12.5836 2 11.8853V4.12133C2 3.42356 2.18 2.89667 2.54 2.54067C2.90444 2.18022 3.43556 2 4.13333 2H11.8667C12.5689 2 13.1 2.18 13.46 2.54C13.82 2.90089 14 3.428 14 4.12133V11.8853C14 12.5787 13.82 13.1033 13.46 13.4593C13.1 13.8193 12.5689 13.9996 11.8667 14H4.13333ZM4.21667 12.8607L11.8793 12.88C12.1627 12.88 12.5133 12.8153 12.6667 12.6667C12.82 12.518 12.866 12.1607 12.866 11.8593V8.08667L12.8193 3.998C12.8193 3.696 12.652 3.47533 12.4993 3.32667C12.346 3.178 12.0487 3.13667 11.7647 3.13667H8L3.964 3.11067C3.68044 3.11067 3.46222 3.18511 3.30933 3.334C3.16089 3.482 3.08667 3.70711 3.08667 4.00933L3.124 8.00333V11.7567C3.124 12.0587 3.18467 12.518 3.33333 12.6667C3.48667 12.8153 3.93333 12.8607 4.21667 12.8607Z"/>
</svg>
