<!-- Copyright © 2000–2024 JetBrains s.r.o. -->
<svg width="16" height="16" viewBox="0 0 16 16" xmlns="http://www.w3.org/2000/svg">
  <path fill="#f4f4f4" fill-rule="evenodd" d="M16 7.914v-.828L11.914 3h-.828L9.5 4.586 8 3.086l-1.5 1.5L4.914 3h-.828L0 7.086v.828L4.086 12h.828L6.5 10.414l1.5 1.5 1.5-1.5L11.086 12h.828z"/>
  <path fill="#313131" fill-rule="evenodd" d="m11.5 4-.99.99 2.511 2.51-2.511 2.51.99.99L15 7.5zm-7 0 .99.99L2.979 7.5l2.511 2.51-.99.99L1 7.5z"/>
  <path fill="#313131" fill-rule="evenodd" d="m8 10.5-3-3 3-3 3 3Z"/>
</svg>
