<svg width="16" height="16" viewBox="0 0 16 16" fill="none" xmlns="http://www.w3.org/2000/svg">
<path d="M8.85355 11.1464C8.75979 11.0527 8.63261 11 8.5 11C8.36739 11 8.24021 11.0527 8.14645 11.1464L6.64645 12.6464C6.45118 12.8417 6.45118 13.1583 6.64645 13.3536C6.84171 13.5488 7.15829 13.5488 7.35355 13.3536L8 12.7071V13.5C8 14.8807 9.11929 16 10.5 16H13.5C14.8807 16 16 14.8807 16 13.5V12.5C16 12.2239 15.7761 12 15.5 12C15.2239 12 15 12.2239 15 12.5V13.5C15 14.3284 14.3284 15 13.5 15H10.5C9.67157 15 9 14.3284 9 13.5V12.7071L9.64645 13.3536C9.84171 13.5488 10.1583 13.5488 10.3536 13.3536C10.5488 13.1583 10.5488 12.8417 10.3536 12.6464L8.85355 11.1464Z" fill="#3574F0"/>
<path d="M6 9.5C6 8.67157 6.67157 8 7.5 8H10.5C11.3284 8 12 8.67157 12 9.5V10.2929L11.3536 9.64645C11.1583 9.45118 10.8417 9.45118 10.6464 9.64645C10.4512 9.84171 10.4512 10.1583 10.6464 10.3536L12.1464 11.8536C12.3417 12.0488 12.6583 12.0488 12.8536 11.8536L14.3536 10.3536C14.5488 10.1583 14.5488 9.84171 14.3536 9.64645C14.1583 9.45118 13.8417 9.45118 13.6464 9.64645L13 10.2929V9.5C13 8.11929 11.8807 7 10.5 7H7.5C6.11929 7 5 8.11929 5 9.5V10.5C5 10.7761 5.22386 11 5.5 11C5.77614 11 6 10.7761 6 10.5V9.5Z" fill="#6C707E"/>
<path d="M13.9977 8.5C13.9507 8.50008 13.9038 8.50234 13.8571 8.50678C13.429 7.05755 12.088 6 10.5 6H9.23743C10.7068 5.51609 12.2714 4.4041 12.9473 3C13.4629 4.52734 14.0415 6.58199 13.9977 8.5Z" fill="#F2FCF3"/>
<path d="M5.80979 6.43443C4.73075 7.03063 4 8.17998 4 9.5V12.4557C3.57057 12.5501 3.28781 12.6064 3.28781 12.6064L3.18434 12.5512C1.4464 11.7062 1.39817 7.9452 4.55312 6.733C4.97544 6.57062 5.39213 6.48507 5.80979 6.43443Z" fill="#F2FCF3"/>
<path d="M4.19453 5.79954C5.04269 5.47346 5.85421 5.40938 6.55758 5.37077C6.64712 5.36585 6.73462 5.36133 6.82037 5.3569L6.82202 5.35681C7.43676 5.32505 7.96333 5.29785 8.52301 5.1643L8.52413 5.16403C9.90936 4.83519 11.4596 3.78522 12.0463 2.56628L13.1103 0.356018L13.8949 2.68017C14.0549 3.15437 14.224 3.68689 14.3805 4.25706C14.6438 5.21633 14.8714 6.28217 14.9602 7.35611C15.0009 7.84968 15.0135 8.3579 14.9833 8.86713C14.7012 8.62183 14.3494 8.49946 13.9977 8.5C14.0256 7.27699 13.8005 5.99843 13.5 4.83644C13.4912 4.80254 13.4824 4.76873 13.4735 4.73503C13.3092 4.11236 13.1245 3.52502 12.9473 3C12.2714 4.4041 10.7068 5.51609 9.23743 6C9.07503 6.05349 8.91378 6.0993 8.75504 6.13698C8.10001 6.29328 7.47797 6.3249 6.86938 6.35584C6.51288 6.37396 6.16099 6.39185 5.80979 6.43443C5.39213 6.48506 4.97544 6.57062 4.55312 6.733C1.39817 7.9452 1.4464 11.7062 3.18434 12.5512L3.28781 12.6064C3.28781 12.6064 3.57057 12.5501 4 12.4557V14.6043C3.86285 14.6007 3.72093 14.5748 3.58005 14.5196C3.35669 14.432 3.196 14.2944 3.08639 14.1692C2.90411 13.9611 2.80421 13.7123 2.76299 13.6097L2.72425 13.5133C2.70767 13.4719 2.69602 13.4428 2.68642 13.4201C1.33173 12.7204 0.847108 11.0666 1.04333 9.64326C1.25485 8.10892 2.25514 6.54479 4.19453 5.79954Z" fill="#5FB865"/>
<path d="M14 9.5L14.002 9.5L13.9966 9.50001L14 9.5Z" fill="#5FB865"/>
</svg>
