<svg width="16" height="16" viewBox="0 0 16 16" xmlns="http://www.w3.org/2000/svg">
  <linearGradient id="a" x1=".5" x2=".5" y1="0" y2="1">
    <stop offset="0" stop-color="#7C6D47"/>
    <stop offset="1" stop-color="#60492F"/>
  </linearGradient>
  <path fill="url(#a)" d="M2 15V1h7.414L14 5.586V15H2Z"/>
  <linearGradient id="b" x1=".5" x2=".5" y1="0" y2="1">
    <stop offset="0" stop-color="#E3D8BC"/>
    <stop offset="1" stop-color="#E3CDB3"/>
  </linearGradient>
  <path fill="url(#b)" d="M9 2H3v12h10V6L9 2Z"/>
  <linearGradient id="c" x1=".5" x2=".5" y1="0" y2="1">
    <stop offset="0" stop-color="#FFF3D4"/>
    <stop offset="1" stop-color="#FFF"/>
  </linearGradient>
  <path fill="url(#c)" d="M9 6V4H5v8h6V6H9Z"/>
  <linearGradient id="d" x1=".5" x2=".5" y1="0" y2="1">
    <stop offset="0" stop-color="#0070A3"/>
    <stop offset="1" stop-color="#0095D7"/>
  </linearGradient>
  <path fill="url(#d)" d="M15 13V9h-4.414L9.5 10.086 8.414 9H0v7h16v-3h-1Z"/>
  <linearGradient id="e" x1=".5" x2=".5" y1="0" y2="1">
    <stop offset="0" stop-color="#E8F7FF"/>
    <stop offset="1" stop-color="#B3E8FF"/>
  </linearGradient>
  <path fill="url(#e)" d="M10 11v1H9v-1l-1-1H3v2H2v-2H1v5h1v-2h1v2h1v-4h1v4h1v-4h1v4h1v-3l1 1v2h1v-2l1-1v3h1v-5h-1m4 4v1h-2v-5h1v4h1Z"/>
</svg>
