<svg width="16" height="16" viewBox="0 0 16 16" xmlns="http://www.w3.org/2000/svg">
  <linearGradient id="a" x1=".5" x2=".5" y1="0" y2="1">
    <stop offset="0" stop-color="#005CA8"/>
    <stop offset="1" stop-color="#00335D"/>
  </linearGradient>
  <path fill="url(#a)" d="M5 4H3.586L0 7.586v.828L3.586 12H5m6-8h1.414L16 7.586v.828L12.414 12H11V4Z"/>
  <linearGradient id="b" x1=".5" x2=".5" y1="0" y2="1">
    <stop offset="0" stop-color="#D9EEFF"/>
    <stop offset="1" stop-color="#96D0FF"/>
  </linearGradient>
  <path fill="url(#b)" d="M12 5v2l1 1-1 1v2l3-3M4 11 1 8l3-3v2L3 8l1 1v2Z"/>
  <linearGradient id="c" x1=".5" x2=".5" y1="0" y2="1">
    <stop offset="0" stop-color="#72665A"/>
    <stop offset="1" stop-color="#37312B"/>
  </linearGradient>
  <path fill="url(#c)" d="M13 5h-1.373L12 3.137V2H6.188l-.6 3h-1.5L3 10.435V11h1.386L4 12.921V14h5.823l.603-3h1.5L13 5.634V5Z"/>
  <linearGradient id="d" x1=".5" x2=".5" y1="0" y2="1">
    <stop offset="0" stop-color="#FFF7F0"/>
    <stop offset="1" stop-color="#FFCD9C"/>
  </linearGradient>
  <path fill="url(#d)" d="M8.807 9h-2l.4-2h2m2.5 0 .2-1h-1.5l.601-3h-1l-.601 3h-2l.601-3h-1l-.601 3h-1.5l-.2 1h1.5l-.4 2h-1.5l-.201 1h1.5l-.602 3h1l.602-3h2l-.602 3h1l.602-3h1.5l.201-1h-1.5l.4-2h1.5Z"/>
</svg>
