<svg width="16" height="16" viewBox="0 0 16 16" xmlns="http://www.w3.org/2000/svg">
  <linearGradient id="a" x1=".5" x2=".5" y1="0" y2="1">
    <stop offset="0" stop-color="#005CA8"/>
    <stop offset="1" stop-color="#00335D"/>
  </linearGradient>
  <path fill="url(#a)" d="m6 1.586-6 6v.828l6 6m10-6-6 6V1.586l6 6v.828Z"/>
  <linearGradient id="b" x1=".5" x2=".5" y1="0" y2="1">
    <stop offset="0" stop-color="#D9EEFF"/>
    <stop offset="1" stop-color="#96D0FF"/>
  </linearGradient>
  <path fill="url(#b)" d="M11 4v2l2 2-2 2v2l4-4M5 12 1 8l4-4v2L3 8l2 2v2Z"/>
  <linearGradient id="c" x1=".5" x2=".5" y1="0" y2="1">
    <stop offset="0" stop-color="#7C8000"/>
    <stop offset="1" stop-color="#803D00"/>
  </linearGradient>
  <path fill="url(#c)" d="M4.76 15 7.795 1h3.445L8.205 15H4.76Z"/>
  <linearGradient id="d" x1=".5" x2=".5" y1="0" y2="1">
    <stop offset="0" stop-color="#E2E600"/>
    <stop offset="1" stop-color="#FFB700"/>
  </linearGradient>
  <path fill="url(#d)" d="M7.398 14H6L8.602 2H10L7.398 14Z"/>
  <linearGradient id="e" x1=".5" x2=".5" y1="0" y2="1">
    <stop offset="0" stop-color="#008705"/>
    <stop offset="1" stop-color="#005B04"/>
  </linearGradient>
  <path fill="url(#e)" d="M8 16h8v-5H8v5Z"/>
  <linearGradient id="f" x1=".5" x2=".5" y1="0" y2="1">
    <stop offset="0" stop-color="#C5FF9E"/>
    <stop offset="1" stop-color="#00FF0B"/>
  </linearGradient>
  <path fill="url(#f)" d="M15 15H9v-3h6v3Z"/>
</svg>
