<svg width="32" height="32" viewBox="0 0 32 32" fill="none" xmlns="http://www.w3.org/2000/svg" data-scaled="true">
<g clip-path="url(#clip0_5733_10004)">
<g clip-path="url(#clip1_5733_10004)">
<g clip-path="url(#clip2_5733_10004)">
<path d="M13.3232 5.35522H13.3239C19.4346 5.35522 24.3957 10.3165 24.3957 16.4274V16.4279C24.3957 22.5387 19.4346 27.4999 13.324 27.4999H13.3232C7.21229 27.4999 2.25098 22.5384 2.25098 16.4273V16.4278C2.25098 10.3167 7.21225 5.35522 13.3232 5.35522Z" fill="url(#paint0_linear_5733_10004)"/>
<path d="M14.2303 19.4016L25.8682 19.4016C28.012 19.4016 29.75 17.6637 29.75 15.5198L29.75 3.88197C29.75 1.73809 28.0121 0.000134208 25.8682 0.000132712L14.2303 0.000124587C12.0865 0.00012309 10.3485 1.73808 10.3485 3.88195L10.3485 15.5198C10.3485 17.6636 12.0864 19.4016 14.2303 19.4016Z" fill="url(#paint1_linear_5733_10004)"/>
<path d="M10.3487 5.8213L23.9289 5.82129L23.9289 19.4015L10.3486 19.4015L10.3487 5.8213Z" fill="black"/>
<path d="M12.2881 15.521L19.8059 15.521V17.4611L12.2881 17.4611L12.2881 15.521Z" fill="white"/>
</g>
</g>
<rect y="22" width="32" height="10.0001" rx="2.5" fill="#FDB60D"/>
<g opacity="0.9">
<path d="M2.0625 29.9629H2.95253V28.2427H3.62873C4.5361 28.2427 5.2643 27.5546 5.2643 26.2276V26.2112C5.2643 25.0398 4.68058 24.2288 3.71542 24.2288H2.0625V29.9629ZM2.95253 27.1204V25.3674H3.64028C4.0853 25.3674 4.36271 25.6705 4.36271 26.2357V26.2521C4.36271 26.7436 4.10264 27.1204 3.65762 27.1204H2.95253Z" fill="#010101"/>
<path d="M5.92298 29.9629H6.81301V28.128H7.51232L8.37924 29.9629H9.41953L8.43125 27.915C8.94562 27.6447 9.29817 27.0631 9.29817 26.1374V26.1211C9.29817 25.5804 9.1768 25.1299 8.9514 24.8104C8.68555 24.4336 8.28677 24.2288 7.7724 24.2288H5.92298V29.9629ZM6.81301 27.014V25.3674H7.69727C8.13072 25.3674 8.39658 25.6459 8.39658 26.1866V26.203C8.39658 26.6863 8.14806 27.014 7.7146 27.014H6.81301Z" fill="#010101"/>
<path d="M10.0995 29.9629H13.18V28.8407H10.9838V27.6365H12.891V26.5143H10.9838V25.351H13.1511V24.2288H10.0995V29.9629Z" fill="#010101"/>
<path d="M15.2601 30.0039H16.0461L17.6817 24.2288H16.7223L15.6647 28.2673L14.607 24.2288H13.6245L15.2601 30.0039Z" fill="#010101"/>
<path d="M18.3463 29.9629H19.2364V24.2288H18.3463V29.9629Z" fill="#010101"/>
<path d="M20.2474 29.9629H23.3278V28.8407H21.1316V27.6365H23.0389V26.5143H21.1316V25.351H23.2989V24.2288H20.2474V29.9629Z" fill="#010101"/>
<path d="M25.1884 30.0039H25.9628L26.8759 26.2521L27.7891 30.0039H28.5635L29.9448 24.2288H29.0143L28.1763 28.1116L27.2689 24.2124H26.5061L25.5987 28.1116L24.7607 24.2288H23.8071L25.1884 30.0039Z" fill="#010101"/>
</g>
</g>
<defs>
<linearGradient id="paint0_linear_5733_10004" x1="4.72223" y1="28.5736" x2="18.4753" y2="11.3823" gradientUnits="userSpaceOnUse">
<stop  offset="0" stop-color="#3BEA62"/>
<stop offset="0.543588" stop-color="#0894FA"/>
<stop offset="1" stop-color="#764EFF"/>
</linearGradient>
<linearGradient id="paint1_linear_5733_10004" x1="29.1911" y1="0.447212" x2="15.4414" y2="14.1968" gradientUnits="userSpaceOnUse">
<stop  offset="0" stop-color="#3BEA62"/>
<stop offset="0.543588" stop-color="#0894FA"/>
<stop offset="1" stop-color="#764EFF"/>
</linearGradient>
<clipPath id="clip0_5733_10004">
<rect width="32" height="32" fill="white"/>
</clipPath>
<clipPath id="clip1_5733_10004">
<rect width="32" height="32" fill="white"/>
</clipPath>
<clipPath id="clip2_5733_10004">
<rect width="27.4999" height="27.4999" fill="white" transform="translate(2.25)"/>
</clipPath>
</defs>
</svg>
