<svg width="80" height="80" viewBox="0 0 80 80" fill="none" xmlns="http://www.w3.org/2000/svg">
<path d="M68.1392 23.7109L40 7.5L11.8609 23.7109L11.8613 23.7111L11.8608 56.3224L39.9999 72.5L40.0741 72.4571L40.1199 72.4833L40.1197 72.4308L68.1391 56.2285V23.711H68.1389L68.1392 23.7109Z" fill="url(#paint0_linear_1725:1291)"/>
<path d="M68.1387 23.7112L40 7.5L54.1387 25.8937L68.1387 23.7112Z" fill="url(#paint1_linear_1725:1291)"/>
<path d="M25.8613 54.1384V25.8934L11.8613 23.7109V56.3222L25.8613 54.1384Z" fill="url(#paint2_linear_1725:1291)"/>
<path d="M11.8611 23.7112L39.9998 7.5L25.8611 25.8937L11.8611 23.7112Z" fill="url(#paint3_linear_1725:1291)"/>
<path d="M68.1387 23.7112L40 7.5L54.1387 25.8937L68.1387 23.7112Z" fill="url(#paint4_linear_1725:1291)"/>
<path d="M54.1387 54.1387L40 72.4999L68.1387 56.2287L54.1387 54.1387Z" fill="url(#paint5_linear_1725:1291)"/>
<path d="M68.1387 23.7109L54.1387 25.8934V54.1384L68.1387 56.2284V23.7109Z" fill="url(#paint6_linear_1725:1291)"/>
<path d="M68.1387 23.7109L54.1387 25.8934V54.1384L68.1387 56.2284V23.7109Z" fill="url(#paint7_linear_1725:1291)"/>
<path d="M40.0001 72.4999L25.8613 54.1387L11.8613 56.3224L40.0001 72.4999Z" fill="url(#paint8_linear_1725:1291)"/>
<path d="M54.1385 25.8936H25.864V54.1678H54.1385V25.8936Z" fill="url(#paint9_linear_1725:1291)"/>
<path d="M54.0104 26.0244H25.9937V54.0409H54.0104V26.0244Z" fill="url(#paint10_linear_1725:1291)"/>
<path d="M32.9999 3H3V33H32.9999V3Z" fill="black"/>
<path d="M33.0001 17.6369V12.1406L12.2451 24.0981L26.1626 26.2681L33.0001 17.6369Z" fill="url(#paint11_linear_1725:1291)"/>
<path d="M33 26.2686H26.1646V33.0007H33V26.2686Z" fill="url(#paint12_linear_1725:1291)"/>
<path d="M26.1626 33.0002V26.2677L12.2451 24.0977V33.0002H26.1626Z" fill="url(#paint13_linear_1725:1291)"/>
<path d="M22.5857 24.1709H7.90869V28.2457H22.5857V24.1709Z" fill="white"/>
<defs>
<linearGradient id="paint0_linear_1725:1291" x1="12.6144" y1="12.6311" x2="66.1925" y2="66.2092" gradientUnits="userSpaceOnUse">
<stop offset="0.20773" stop-color="#FFB60D"/>
<stop offset="0.44753" stop-color="#FF318C"/>
<stop offset="0.90836" stop-color="#6B57FF"/>
</linearGradient>
<linearGradient id="paint1_linear_1725:1291" x1="42.2964" y1="3.36379" x2="75.8741" y2="41.5678" gradientUnits="userSpaceOnUse">
<stop stop-color="#FFB60D"/>
<stop offset="0.4389" stop-color="#FF318C"/>
<stop offset="0.93652" stop-color="#E30871"/>
</linearGradient>
<linearGradient id="paint2_linear_1725:1291" x1="9.20462" y1="31.4514" x2="46.5294" y2="68.7762" gradientUnits="userSpaceOnUse">
<stop offset="0.07259" stop-color="#FFB60D"/>
<stop offset="0.68597" stop-color="#FF318C" stop-opacity="0"/>
</linearGradient>
<linearGradient id="paint3_linear_1725:1291" x1="26.5678" y1="11.7291" x2="22.837" y2="34.4127" gradientUnits="userSpaceOnUse">
<stop offset="0.04176" stop-color="#FFCF5F"/>
<stop offset="0.40672" stop-color="#FFB60D"/>
<stop offset="1" stop-color="#FF318C" stop-opacity="0"/>
</linearGradient>
<linearGradient id="paint4_linear_1725:1291" x1="44.456" y1="8.11953" x2="81.7151" y2="45.3786" gradientUnits="userSpaceOnUse">
<stop offset="0.01556" stop-color="#FFB60D"/>
<stop offset="0.42361" stop-color="#FF318C" stop-opacity="0"/>
</linearGradient>
<linearGradient id="paint5_linear_1725:1291" x1="38.3962" y1="79.6882" x2="66.6513" y2="49.2444" gradientUnits="userSpaceOnUse">
<stop offset="0.33598" stop-color="#D123FF" stop-opacity="0.4"/>
<stop offset="0.72079" stop-color="#8F45FF" stop-opacity="0.78823"/>
<stop offset="0.92376" stop-color="#6B57FF"/>
</linearGradient>
<linearGradient id="paint6_linear_1725:1291" x1="36.3347" y1="14.1203" x2="73.8117" y2="51.5973" gradientUnits="userSpaceOnUse">
<stop offset="0.01556" stop-color="#FFB60D"/>
<stop offset="0.42361" stop-color="#FF318C"/>
<stop offset="0.92935" stop-color="#6B57FF"/>
</linearGradient>
<linearGradient id="paint7_linear_1725:1291" x1="53.0582" y1="20.1245" x2="60.3707" y2="37.1372" gradientUnits="userSpaceOnUse">
<stop offset="0.04611" stop-color="#FFDE17" stop-opacity="0.6"/>
<stop offset="0.43474" stop-color="#FE2857" stop-opacity="0.4"/>
<stop offset="0.80437" stop-color="#FE2857" stop-opacity="0"/>
</linearGradient>
<linearGradient id="paint8_linear_1725:1291" x1="10.6661" y1="46.9853" x2="36.5097" y2="72.9875" gradientUnits="userSpaceOnUse">
<stop offset="0.07259" stop-color="#FFB40D"/>
<stop offset="0.68597" stop-color="#FF318C" stop-opacity="0"/>
</linearGradient>
<linearGradient id="paint9_linear_1725:1291" x1="20.2328" y1="20.2622" x2="59.1969" y2="59.2264" gradientUnits="userSpaceOnUse">
<stop offset="0.18418" stop-color="#FFB40D"/>
<stop offset="0.69132" stop-color="#FF318C" stop-opacity="0"/>
</linearGradient>
<linearGradient id="paint10_linear_1725:1291" x1="17.2472" y1="40.0327" x2="34.1047" y2="40.0327" gradientUnits="userSpaceOnUse">
<stop stop-color="#F9ED32" stop-opacity="0.6"/>
<stop offset="0.19796" stop-color="#FFC524" stop-opacity="0.4"/>
<stop offset="0.70457" stop-color="#FFC524" stop-opacity="0"/>
</linearGradient>
<linearGradient id="paint11_linear_1725:1291" x1="21.2154" y1="13.3336" x2="28.2521" y2="37.2717" gradientUnits="userSpaceOnUse">
<stop offset="0.19796" stop-color="#FE2857" stop-opacity="0.4"/>
<stop offset="0.70457" stop-color="#FFB40D" stop-opacity="0"/>
</linearGradient>
<linearGradient id="paint12_linear_1725:1291" x1="154.096" y1="152.361" x2="202.916" y2="201.93" gradientUnits="userSpaceOnUse">
<stop offset="0.19796" stop-color="#FE2857" stop-opacity="0.4"/>
<stop offset="0.70457" stop-color="#FFB40D" stop-opacity="0"/>
</linearGradient>
<linearGradient id="paint13_linear_1725:1291" x1="90.0874" y1="155.369" x2="222.493" y2="343.917" gradientUnits="userSpaceOnUse">
<stop offset="0.19796" stop-color="#FE2857" stop-opacity="0.4"/>
<stop offset="0.70457" stop-color="#FFB40D" stop-opacity="0"/>
</linearGradient>
</defs>
</svg>
