<svg width="16" height="16" viewBox="0 0 16 16" xmlns="http://www.w3.org/2000/svg">
  <path fill="#CED0D6" fill-rule="evenodd" d="M8 14A6 6 0 1 0 8 2a6 6 0 0 0 0 12m0 1A7 7 0 1 0 8 1a7 7 0 0 0 0 14" clip-rule="evenodd"/>
  <path fill="#CED0D6" fill-rule="evenodd" d="M9.202 12.556C9.68 11.44 10 9.83 10 8s-.32-3.44-.798-4.556c-.24-.56-.5-.948-.737-1.182C8.232 2.032 8.076 2 8 2c-.076 0-.232.032-.465.262-.238.234-.497.623-.737 1.182C6.32 4.56 6 6.17 6 8s.32 3.44.798 4.556c.24.56.5.948.737 1.182.233.23.389.262.465.262.076 0 .232-.032.465-.262.238-.234.497-.623.737-1.182M8 15c1.657 0 3-3.134 3-7S9.657 1 8 1 5 4.134 5 8s1.343 7 3 7" clip-rule="evenodd"/>
  <path fill="#CED0D6" fill-rule="evenodd" d="M1.777 5h12.445v1H1.777zm0 5h12.445v1H1.777z" clip-rule="evenodd"/>
</svg>
