<svg width="16" height="16" viewBox="0 0 16 16" xmlns="http://www.w3.org/2000/svg">
<path fill-rule="evenodd" clip-rule="evenodd" d="M7.99997 2C4.68626 2 2 4.68629 2 8C2 11.3137 4.68626 14 7.99997 14C11.3137 14 14 11.3137 14 8C14 4.68629 11.3137 2 7.99997 2ZM9.69997 8C9.69997 7.52248 9.67277 7.06361 9.62286 6.63007H6.37709C6.32717 7.06361 6.29997 7.52248 6.29997 8C6.29997 8.47753 6.32717 8.93641 6.37709 9.36996H9.62285C9.67277 8.93641 9.69997 8.47753 9.69997 8ZM7.01132 4.15649C7.23329 3.66816 7.45682 3.36758 7.64327 3.19557C7.83093 3.02242 7.95624 3 7.99997 3C8.0437 3 8.16901 3.02242 8.35668 3.19557C8.54312 3.36758 8.76666 3.66816 8.98863 4.15649C9.17648 4.56976 9.3379 5.0677 9.45926 5.63007H6.54068C6.66205 5.0677 6.82347 4.56976 7.01132 4.15649ZM5.51991 5.63007C5.65821 4.91954 5.85671 4.28002 6.10095 3.74269C6.17592 3.57777 6.25373 3.42503 6.33404 3.28425C5.15667 3.70019 4.18163 4.54456 3.59623 5.63007H5.51991ZM3 8C3 7.52497 3.06624 7.06542 3.18999 6.63007H5.37105C5.32457 7.06998 5.29997 7.52857 5.29997 8C5.29997 8.47144 5.32457 8.93004 5.37105 9.36996H3.19C3.06625 8.93461 3 8.47504 3 8ZM3.59625 10.37C4.18165 11.4555 5.15668 12.2998 6.33404 12.7157C6.25373 12.575 6.17592 12.4222 6.10095 12.2573C5.85671 11.72 5.65821 11.0805 5.51992 10.37H3.59625ZM7.64327 12.8044C7.45682 12.6324 7.23328 12.3318 7.01132 11.8435C6.82347 11.4302 6.66205 10.9323 6.54069 10.37H9.45926C9.33789 10.9323 9.17648 11.4302 8.98863 11.8435C8.76666 12.3318 8.54312 12.6324 8.35668 12.8044C8.169 12.9776 8.04369 13 7.99997 13C7.95625 13 7.83094 12.9776 7.64327 12.8044ZM9.89899 12.2573C9.82403 12.4222 9.74621 12.575 9.6659 12.7158C10.8433 12.2998 11.8183 11.4555 12.4037 10.37H10.48C10.3417 11.0805 10.1432 11.72 9.89899 12.2573ZM13 8C13 8.47504 12.9338 8.93461 12.81 9.36996H10.6289C10.6754 8.93004 10.7 8.47144 10.7 8C10.7 7.52857 10.6754 7.06998 10.6289 6.63007H12.81C12.9338 7.06542 13 7.52497 13 8ZM12.4038 5.63007C11.8183 4.54456 10.8433 3.70018 9.66591 3.28425C9.74622 3.42503 9.82403 3.57777 9.89899 3.74269C10.1432 4.28002 10.3417 4.91954 10.48 5.63007H12.4038Z" fill="#6E6E6E"/>
</svg>
