<svg width="16" height="16" viewBox="0 0 16 16" xmlns="http://www.w3.org/2000/svg">
<path d="M7.99998 10.5C9.3807 10.5 10.5 9.38071 10.5 8C10.5 6.61929 9.3807 5.5 7.99998 5.5C6.61927 5.5 5.49998 6.61929 5.49998 8C5.49998 9.38071 6.61927 10.5 7.99998 10.5Z" fill="#F26522"/>
<path fill-rule="evenodd" clip-rule="evenodd" d="M3.83333 3.5C3.64924 3.5 3.5 3.64924 3.5 3.83333V6.5H2.5V3.83333C2.5 3.09695 3.09695 2.5 3.83333 2.5H6.5V3.5H3.83333ZM12.1667 3.5H9.5V2.5H12.1667C12.903 2.5 13.5 3.09695 13.5 3.83333V6.5H12.5V3.83333C12.5 3.64924 12.3508 3.5 12.1667 3.5ZM3.5 9.5V12.1667C3.5 12.3508 3.64924 12.5 3.83333 12.5H6.5V13.5H3.83333C3.09695 13.5 2.5 12.903 2.5 12.1667V9.5H3.5ZM12.5 12.1667V9.5H13.5V12.1667C13.5 12.903 12.903 13.5 12.1667 13.5H9.5V12.5H12.1667C12.3508 12.5 12.5 12.3508 12.5 12.1667Z" fill="#F26522"/>
</svg>
