<svg width="16" height="16" viewBox="0 0 16 16" fill="none" xmlns="http://www.w3.org/2000/svg">
<path d="M7.99998 10.5C9.3807 10.5 10.5 9.38071 10.5 8C10.5 6.61929 9.3807 5.5 7.99998 5.5C6.61927 5.5 5.49998 6.61929 5.49998 8C5.49998 9.38071 6.61927 10.5 7.99998 10.5Z" fill="#F26522" style="fill:#F26522;fill:color(display-p3 0.9490 0.3961 0.1333);fill-opacity:1;"/>
<path fill-rule="evenodd" clip-rule="evenodd" d="M11.5 8C11.5 9.933 9.93298 11.5 7.99998 11.5C6.06699 11.5 4.49998 9.933 4.49998 8C4.49998 6.067 6.06699 4.5 7.99998 4.5C9.93298 4.5 11.5 6.067 11.5 8ZM10.5 8C10.5 9.38071 9.3807 10.5 7.99998 10.5C6.61927 10.5 5.49998 9.38071 5.49998 8C5.49998 6.61929 6.61927 5.5 7.99998 5.5C9.3807 5.5 10.5 6.61929 10.5 8Z" fill="#F4F4F4" style="fill:#F4F4F4;fill:color(display-p3 0.9569 0.9569 0.9569);fill-opacity:1;"/>
<path fill-rule="evenodd" clip-rule="evenodd" d="M3.83333 3.5C3.64924 3.5 3.5 3.64924 3.5 3.83333V6.5H2.5V3.83333C2.5 3.09695 3.09695 2.5 3.83333 2.5H6.5V3.5H3.83333ZM12.1667 3.5H9.5V2.5H12.1667C12.903 2.5 13.5 3.09695 13.5 3.83333V6.5H12.5V3.83333C12.5 3.64924 12.3508 3.5 12.1667 3.5ZM3.5 9.5V12.1667C3.5 12.3508 3.64924 12.5 3.83333 12.5H6.5V13.5H3.83333C3.09695 13.5 2.5 12.903 2.5 12.1667V9.5H3.5ZM12.5 12.1667V9.5H13.5V12.1667C13.5 12.903 12.903 13.5 12.1667 13.5H9.5V12.5H12.1667C12.3508 12.5 12.5 12.3508 12.5 12.1667Z" fill="#F26522" style="fill:#F26522;fill:color(display-p3 0.9490 0.3961 0.1333);fill-opacity:1;"/>
<path fill-rule="evenodd" clip-rule="evenodd" d="M4.5 7.5H1.5V3.83333C1.5 2.54467 2.54467 1.5 3.83333 1.5H7.5V4.5H4.5V7.5ZM8.5 4.5V1.5H12.1667C13.4553 1.5 14.5 2.54467 14.5 3.83333V7.5H11.5V4.5H8.5ZM4.5 8.5V11.5H7.5V14.5H3.83333C2.54467 14.5 1.5 13.4553 1.5 12.1667V8.5H4.5ZM11.5 8.5H14.5V12.1667C14.5 13.4553 13.4553 14.5 12.1667 14.5H8.5V11.5H11.5V8.5ZM2.5 3.83333C2.5 3.09695 3.09695 2.5 3.83333 2.5H6.5V3.5H3.83333C3.64924 3.5 3.5 3.64924 3.5 3.83333V6.5H2.5V3.83333ZM12.5 3.83333C12.5 3.64924 12.3508 3.5 12.1667 3.5H9.5V2.5H12.1667C12.903 2.5 13.5 3.09696 13.5 3.83333V6.5H12.5V3.83333ZM3.83333 13.5C3.09696 13.5 2.5 12.903 2.5 12.1667V9.5H3.5V12.1667C3.5 12.3508 3.64924 12.5 3.83333 12.5H6.5V13.5H3.83333ZM12.1667 12.5C12.3508 12.5 12.5 12.3508 12.5 12.1667V9.5H13.5V12.1667C13.5 12.903 12.903 13.5 12.1667 13.5H9.5V12.5H12.1667Z" fill="#F4F4F4" style="fill:#F4F4F4;fill:color(display-p3 0.9569 0.9569 0.9569);fill-opacity:1;"/>
</svg>
