<svg width="16" height="16" viewBox="0 0 16 16" xmlns="http://www.w3.org/2000/svg">
  <path fill="#45322B" d="M2 4a2 2 0 0 1 2-2h8a2 2 0 0 1 2 2v8a2 2 0 0 1-2 2H4a2 2 0 0 1-2-2z"/>
  <path fill="#C77D55" fill-rule="evenodd" d="M7.992 11C6.23 11 5 9.65 5 8.017V8c0-1.633 1.246-3 3.008-3S11 6.35 11 7.983V8c0 1.633-1.246 3-3.008 3m.016-.945c1.14 0 1.935-.911 1.935-2.038V8c0-1.127-.812-2.055-1.951-2.055-1.14 0-1.935.911-1.935 2.038V8c0 1.127.812 2.055 1.951 2.055" clip-rule="evenodd"/>
  <path fill="#C77D55" d="M9 2.5a.5.5 0 0 0 .5.5H12a1 1 0 0 1 1 1v2.5a.5.5 0 0 0 1 0V4a2 2 0 0 0-2-2H9.5a.5.5 0 0 0-.5.5M6.5 3a.5.5 0 0 0 0-1H4a2 2 0 0 0-2 2v2.5a.5.5 0 0 0 1 0V4a1 1 0 0 1 1-1zM3 9.5a.5.5 0 0 0-1 0V12a2 2 0 0 0 2 2h2.5a.5.5 0 0 0 0-1H4a1 1 0 0 1-1-1zM9.5 13a.5.5 0 0 0 0 1H12a2 2 0 0 0 2-2V9.5a.5.5 0 0 0-1 0V12a1 1 0 0 1-1 1z"/>
</svg>
