<svg width="16" height="16" viewBox="0 0 16 16" xmlns="http://www.w3.org/2000/svg">
  <rect width="12" height="12" x="2" y="2" fill="#EDF3FF" rx="2"/>
  <path fill="#3574F0" d="M10 4a.5.5 0 0 0 0 1h2a.5.5 0 0 0 0-1z"/>
  <path fill="#3574F0" fill-rule="evenodd" d="M1.5 12c0 1.105.831 2 1.857 2h9.286c1.025 0 1.857-.895 1.857-2V4c0-1.105-.832-2-1.857-2H3.357C2.331 2 1.5 2.895 1.5 4zm11.143-9H3.357c-.513 0-.928.448-.928 1v2H13.57V4c0-.552-.415-1-.928-1m.928 9V7H2.43v5c0 .552.415 1 .928 1h9.286c.513 0 .928-.448.928-1" clip-rule="evenodd"/>
</svg>
