<svg width="16" height="16" viewBox="0 0 16 16" fill="none" xmlns="http://www.w3.org/2000/svg">
<path d="M2.42857 2.42856H13.5714C13.9133 2.42856 14.1905 2.70572 14.1905 3.04761V12.9524C14.1905 13.2943 13.9133 13.5714 13.5714 13.5714H2.42857C2.08668 13.5714 1.80952 13.2943 1.80952 12.9524V3.04761C1.80952 2.70572 2.08668 2.42856 2.42857 2.42856ZM12.9524 6.76189H3.04762V12.3333H12.9524V6.76189ZM9.85714 4.2857V5.5238H12.3333V4.2857H9.85714Z" fill="#40B6E0" style="fill:#40B6E0;fill:color(display-p3 0.2510 0.7137 0.8784);fill-opacity:1;"/>
<path fill-rule="evenodd" clip-rule="evenodd" d="M2.42857 1.42856H13.5714C14.4656 1.42856 15.1905 2.15345 15.1905 3.04761V12.9524C15.1905 13.8466 14.4656 14.5714 13.5714 14.5714H2.42857C1.53441 14.5714 0.809525 13.8466 0.809525 12.9524V3.04761C0.809525 2.15343 1.5344 1.42856 2.42857 1.42856ZM3.04762 6.76189H12.9524V12.3333H3.04762V6.76189ZM4.04762 11.3333H11.9524V7.76189H4.04762V11.3333ZM9.85714 5.5238V4.2857H12.3333V5.5238H9.85714ZM13.5714 2.42856H2.42857C2.08668 2.42856 1.80952 2.70572 1.80952 3.04761V12.9524C1.80952 13.2943 2.08668 13.5714 2.42857 13.5714H13.5714C13.9133 13.5714 14.1905 13.2943 14.1905 12.9524V3.04761C14.1905 2.70572 13.9133 2.42856 13.5714 2.42856Z" fill="#F4F4F4" style="fill:#F4F4F4;fill:color(display-p3 0.9569 0.9569 0.9569);fill-opacity:1;"/>
</svg>
