<svg width="16" height="16" viewBox="0 0 16 16" fill="none" xmlns="http://www.w3.org/2000/svg">
<path fill-rule="evenodd" clip-rule="evenodd" d="M3.24678 2.5C3.04873 2.50003 2.8588 2.57872 2.71876 2.71876C2.57872 2.8588 2.50003 3.04873 2.5 3.24678L2.5 6.41559C2.50003 6.61364 2.57872 6.80357 2.71876 6.94362C2.8588 7.08366 3.04873 7.16235 3.24678 7.16238H6.41559C6.61364 7.16235 6.80357 7.08366 6.94362 6.94362C7.08366 6.80357 7.16235 6.61364 7.16238 6.41559V3.24678C7.16235 3.04873 7.08366 2.8588 6.94362 2.71876C6.80357 2.57872 6.61364 2.50003 6.41559 2.5L3.24678 2.5ZM8.83762 9.58441C8.83765 9.38636 8.91634 9.19643 9.05638 9.05638C9.19643 8.91634 9.38636 8.83765 9.58441 8.83762L12.7532 8.83762C12.9513 8.83765 13.1412 8.91634 13.2812 9.05638C13.4213 9.19643 13.5 9.38636 13.5 9.58441V12.7532C13.5 12.9513 13.4213 13.1412 13.2812 13.2812C13.1412 13.4213 12.9513 13.5 12.7532 13.5H9.58441C9.38636 13.5 9.19643 13.4213 9.05638 13.2812C8.91634 13.1412 8.83765 12.9513 8.83762 12.7532L8.83762 9.58441ZM2.5 9.58441C2.50003 9.38636 2.57872 9.19643 2.71876 9.05638C2.8588 8.91634 3.04873 8.83765 3.24678 8.83762H6.41559C6.61364 8.83765 6.80357 8.91634 6.94362 9.05638C7.08366 9.19643 7.16235 9.38636 7.16238 9.58441V12.7532C7.16235 12.9513 7.08366 13.1412 6.94362 13.2812C6.80357 13.4213 6.61364 13.5 6.41559 13.5H3.24678C3.04873 13.5 2.8588 13.4213 2.71876 13.2812C2.57872 13.1412 2.50003 12.9513 2.5 12.7532L2.5 9.58441Z" fill="#B99BF8" style="fill:#B99BF8;fill:color(display-p3 0.7255 0.6078 0.9725);fill-opacity:1;"/>
<path fill-rule="evenodd" clip-rule="evenodd" d="M3.24678 1.5L6.41559 1.5C6.87881 1.50007 7.32318 1.68411 7.65072 2.01165C7.97827 2.3392 8.16231 2.78342 8.16238 3.24663V6.41559C8.16231 6.87881 7.97827 7.32318 7.65072 7.65072C7.5045 7.79695 7.33502 7.91458 7.15097 8C7.33502 8.08542 7.5045 8.20305 7.65072 8.34928C7.79695 8.4955 7.91458 8.66498 8 8.84903C8.08542 8.66498 8.20305 8.4955 8.34928 8.34928C8.67682 8.02173 9.12104 7.83769 9.58425 7.83762L12.7532 7.83762C13.2164 7.83769 13.6608 8.02174 13.9883 8.34928C14.3159 8.67682 14.4999 9.12104 14.5 9.58426V12.7532C14.4999 13.2164 14.3159 13.6608 13.9883 13.9883C13.6608 14.3159 13.2166 14.4999 12.7534 14.5H9.58441C9.12119 14.4999 8.67682 14.3159 8.34928 13.9883C8.20305 13.8421 8.08542 13.6726 8 13.4886C7.91457 13.6726 7.79695 13.8421 7.65072 13.9883C7.32318 14.3159 6.87896 14.4999 6.41574 14.5H3.24678C2.78357 14.4999 2.3392 14.3159 2.01165 13.9883C1.68411 13.6608 1.50007 13.2166 1.5 12.7534L1.5 9.5844C1.50007 9.12119 1.68411 8.67682 2.01165 8.34928C2.15788 8.20305 2.32736 8.08542 2.5114 8C2.32736 7.91458 2.15788 7.79695 2.01165 7.65072C1.68411 7.32318 1.50007 6.87896 1.5 6.41574L1.5 3.24678C1.50007 2.78357 1.68411 2.3392 2.01165 2.01165C2.3392 1.68411 2.78357 1.50007 3.24678 1.5ZM2.5 6.41559V3.24678C2.50003 3.04873 2.57872 2.8588 2.71876 2.71876C2.8588 2.57872 3.04873 2.50003 3.24678 2.5H6.41559C6.61364 2.50003 6.80357 2.57872 6.94362 2.71876C7.08366 2.8588 7.16235 3.04873 7.16238 3.24678V6.41559C7.16235 6.61364 7.08366 6.80357 6.94362 6.94362C6.80357 7.08366 6.61364 7.16235 6.41559 7.16238H3.24678C3.04873 7.16235 2.8588 7.08366 2.71876 6.94362C2.57872 6.80357 2.50003 6.61364 2.5 6.41559ZM9.58441 8.83762L12.7532 8.83762C12.9513 8.83765 13.1412 8.91634 13.2812 9.05638C13.4213 9.19643 13.5 9.38636 13.5 9.58441V12.7532C13.5 12.9513 13.4213 13.1412 13.2812 13.2812C13.1412 13.4213 12.9513 13.5 12.7532 13.5H9.58441C9.38636 13.5 9.19643 13.4213 9.05638 13.2812C8.91634 13.1412 8.83765 12.9513 8.83762 12.7532L8.83762 9.58441C8.83765 9.38636 8.91634 9.19643 9.05638 9.05638C9.19643 8.91634 9.38636 8.83765 9.58441 8.83762ZM2.5 9.58441C2.50003 9.38636 2.57872 9.19643 2.71876 9.05638C2.8588 8.91634 3.04873 8.83765 3.24678 8.83762H6.41559C6.61364 8.83765 6.80357 8.91634 6.94362 9.05638C7.08366 9.19643 7.16235 9.38636 7.16238 9.58441V12.7532C7.16235 12.9513 7.08366 13.1412 6.94362 13.2812C6.80357 13.4213 6.61364 13.5 6.41559 13.5H3.24678C3.04873 13.5 2.8588 13.4213 2.71876 13.2812C2.57872 13.1412 2.50003 12.9513 2.5 12.7532V9.58441Z" fill="#F4F4F4" style="fill:#F4F4F4;fill:color(display-p3 0.9569 0.9569 0.9569);fill-opacity:1;"/>
</svg>
