<svg width="16" height="16" viewBox="0 0 16 16" xmlns="http://www.w3.org/2000/svg">
<path fill-rule="evenodd" clip-rule="evenodd" d="M3.24678 2.5C3.04873 2.50003 2.8588 2.57872 2.71876 2.71876C2.57872 2.8588 2.50003 3.04873 2.5 3.24678L2.5 6.41559C2.50003 6.61364 2.57872 6.80357 2.71876 6.94362C2.8588 7.08366 3.04873 7.16235 3.24678 7.16238H6.41559C6.61364 7.16235 6.80357 7.08366 6.94362 6.94362C7.08366 6.80357 7.16235 6.61364 7.16238 6.41559V3.24678C7.16235 3.04873 7.08366 2.8588 6.94362 2.71876C6.80357 2.57872 6.61364 2.50003 6.41559 2.5L3.24678 2.5ZM8.83762 9.58441C8.83765 9.38636 8.91634 9.19643 9.05638 9.05638C9.19643 8.91634 9.38636 8.83765 9.58441 8.83762L12.7532 8.83762C12.9513 8.83765 13.1412 8.91634 13.2812 9.05638C13.4213 9.19643 13.5 9.38636 13.5 9.58441V12.7532C13.5 12.9513 13.4213 13.1412 13.2812 13.2812C13.1412 13.4213 12.9513 13.5 12.7532 13.5H9.58441C9.38636 13.5 9.19643 13.4213 9.05638 13.2812C8.91634 13.1412 8.83765 12.9513 8.83762 12.7532L8.83762 9.58441ZM2.5 9.58441C2.50003 9.38636 2.57872 9.19643 2.71876 9.05638C2.8588 8.91634 3.04873 8.83765 3.24678 8.83762H6.41559C6.61364 8.83765 6.80357 8.91634 6.94362 9.05638C7.08366 9.19643 7.16235 9.38636 7.16238 9.58441V12.7532C7.16235 12.9513 7.08366 13.1412 6.94362 13.2812C6.80357 13.4213 6.61364 13.5 6.41559 13.5H3.24678C3.04873 13.5 2.8588 13.4213 2.71876 13.2812C2.57872 13.1412 2.50003 12.9513 2.5 12.7532L2.5 9.58441Z" fill="#B99BF8"/>
</svg>
