<svg width="16" height="16" viewBox="0 0 16 16" xmlns="http://www.w3.org/2000/svg">
  <path fill="#BA9752" fill-rule="evenodd" d="M13.853 4.144 11.668 8h1.15l1.905-3.363c.793-1.4-.218-3.137-1.827-3.137H3.103c-.994 0-1.76.663-2.013 1.5h1.09c.192-.295.522-.5.922-.5h9.793a1.1 1.1 0 0 1 .957 1.644M1 3.61v-.012zM9 14h.307a1.96 1.96 0 0 1-2.615 0z" clip-rule="evenodd"/>
  <path fill="#F5D273" fill-rule="evenodd" d="m11.668 8-2.842 5.018a.95.95 0 0 1-1.653 0L4.33 8H3.181l3.122 5.511c.747 1.319 2.646 1.319 3.393 0L12.818 8zM1 3.572v.063z" clip-rule="evenodd"/>
</svg>
