<svg width="16" height="16" viewBox="0 0 16 16" xmlns="http://www.w3.org/2000/svg">
  <path fill="#C27D04" fill-rule="evenodd" d="m11.668 8-2.842 5.018a.95.95 0 0 1-1.653 0L2.146 4.144A1.1 1.1 0 0 1 3.103 2.5H8V2h6.258a2.071 2.071 0 0 0-1.362-.5H3.103c-1.609 0-2.62 1.736-1.827 3.137l5.027 8.874c.747 1.319 2.646 1.319 3.393 0L12.818 8z" clip-rule="evenodd"/>
  <path fill="#FFAF0F" fill-rule="evenodd" d="M13.817 3a1.089 1.089 0 0 0-.921-.5H3.103c-.4 0-.73.205-.922.5H1.09a2.094 2.094 0 0 1 2.013-1.5h9.793c.994 0 1.76.663 2.013 1.5zM1 3.597v.013z" clip-rule="evenodd"/>
</svg>
