<svg width="16" height="16" viewBox="0 0 16 16" xmlns="http://www.w3.org/2000/svg">
  <path fill="#BA9752" fill-rule="evenodd" d="M12.896 2.5c.4 0 .73.205.921.5h1.092a2.094 2.094 0 0 0-2.013-1.5H3.103c-1.609 0-2.62 1.736-1.827 3.137L3.181 8h1.15L2.145 4.144A1.1 1.1 0 0 1 3.103 2.5zM9.306 14H9v.227A1.9 1.9 0 0 0 9.307 14" clip-rule="evenodd"/>
  <path fill="#F5D273" fill-rule="evenodd" d="M1 3.598v.011zM8 14.5c.661 0 1.323-.33 1.696-.989l5.027-8.874c.303-.535.342-1.12.186-1.637h-1.092c.211.325.254.758.036 1.144l-5.027 8.874A.94.94 0 0 1 8 13.5z" clip-rule="evenodd"/>
</svg>
