<svg width="16" height="16" viewBox="0 0 16 16" xmlns="http://www.w3.org/2000/svg">
  <path fill="#BA9752" fill-rule="evenodd" d="M1 3.572v.063zM6.692 14c.883.802 2.365.64 3.004-.489l5.027-8.874c.793-1.4-.218-3.137-1.827-3.137H8v1h4.896a1.1 1.1 0 0 1 .957 1.644l-5.027 8.874A.94.94 0 0 1 8 13.5v.5z" clip-rule="evenodd"/>
  <path fill="#F5D273" fill-rule="evenodd" d="M8 13.5a.94.94 0 0 1-.827-.482L2.146 4.144A1.093 1.093 0 0 1 2.181 3H1.09a2.073 2.073 0 0 0 .186 1.637l5.027 8.874a1.93 1.93 0 0 0 1.697.99z" clip-rule="evenodd"/>
</svg>
