<svg width="16" height="16" viewBox="0 0 16 16" xmlns="http://www.w3.org/2000/svg">
  <path fill="#BA9752" fill-rule="evenodd" d="M8 1.5H3.103c-.535 0-1.004.192-1.363.5H8zM13.921 4a1.18 1.18 0 0 1-.069.144l-5.026 8.874a.95.95 0 0 1-1.653 0L4.33 8H3.181l3.122 5.511c.747 1.319 2.646 1.319 3.393 0l5.027-8.874A2.12 2.12 0 0 0 14.96 4zm-12.92-.428v.064z" clip-rule="evenodd"/>
  <path fill="#F5D273" fill-rule="evenodd" d="M3.103 1.5H8v1H3.103a1.1 1.1 0 0 0-.957 1.644L4.33 8H3.181L1.276 4.637C.483 3.237 1.494 1.5 3.103 1.5" clip-rule="evenodd"/>
</svg>
