<svg width="16" height="16" viewBox="0 0 16 16" xmlns="http://www.w3.org/2000/svg">
  <path fill="#6e6e6e" d="M2.5 4a.5.5 0 1 0 0-1 .5.5 0 0 0 0 1Zm-1 0a.5.5 0 1 0 0 1 .5.5 0 0 0 0-1Zm1 2a.5.5 0 1 0 0-1 .5.5 0 0 0 0 1Zm-1 0a.5.5 0 1 0 0 1 .5.5 0 0 0 0-1Zm1 2a.5.5 0 1 0 0-1 .5.5 0 0 0 0 1Zm-1 0a.5.5 0 1 0 0 1 .5.5 0 0 0 0-1Zm1 2a.5.5 0 1 0 0-1 .5.5 0 0 0 0 1Zm-1 0a.5.5 0 1 0 0 1 .5.5 0 0 0 0-1Zm0 2a.5.5 0 1 0 0 1 .5.5 0 0 0 0-1Zm1 0a.5.5 0 1 0 0-1 .5.5 0 0 0 0 1Zm2-10a.5.5 0 1 0 0-1 .5.5 0 0 0 0 1Zm-1 0a.5.5 0 1 0 0 1 .5.5 0 0 0 0-1Zm1 2a.5.5 0 1 0 0-1 .5.5 0 0 0 0 1Zm-1 0a.5.5 0 1 0 0 1 .5.5 0 0 0 0-1Zm1 2a.5.5 0 1 0 0-1 .5.5 0 0 0 0 1Zm-1 0a.5.5 0 1 0 0 1 .5.5 0 0 0 0-1Zm1 2a.5.5 0 1 0 0-1 .5.5 0 0 0 0 1Zm-1 0a.5.5 0 1 0 0 1 .5.5 0 0 0 0-1Zm1 2a.5.5 0 1 0 0-1 .5.5 0 0 0 0 1Zm-1 0a.5.5 0 1 0 0 1 .5.5 0 0 0 0-1Z"/>
  <path fill="#6e6e6e" d="m13.204 9.089-.077.038-4.255-4.255.039-.077L13.707 0h-1.414L8.147 4.146l-3.058 6.058-2.733 2.733a1.2 1.2 0 0 0-.355.854 1.21 1.21 0 0 0 1.21 1.208h2c.316 0 .625-.128.849-.352l1.737-1.737 5.928-2.964 2.276-2.251V6.292l-2.796 2.796Zm-7.853 4.853a.203.203 0 0 1-.142.059h-2a.207.207 0 0 1-.148-.355l2.733-2.733 1.293 1.293-1.737 1.737Zm1.7-3.188-.744-.744 2.109-4.179.744.744-2.109 4.179Z"/>
</svg>
