<svg width="16" height="16" viewBox="0 0 16 16" xmlns="http://www.w3.org/2000/svg">
  <path fill="#6C707E" fill-rule="evenodd" d="M11 3.466 13.835 9H11.21l.512 1h2.632c.496 0 .807-.606.559-1.09l-3.354-6.546c-.248-.485-.87-.485-1.118 0L9.125 4.93l.562 1.097z" clip-rule="evenodd"/>
  <path fill="#FFF4EB" d="M5.731 3.5c.342-.667 1.196-.667 1.538 0l4.61 9c.342.667-.085 1.5-.768 1.5H1.89c-.683 0-1.11-.833-.769-1.5z"/>
  <path fill="#E66D17" fill-rule="evenodd" d="m6.5 4.193 4.49 8.763A.09.09 0 0 1 11 13H2a.09.09 0 0 1 .01-.044zm.769-.693c-.342-.667-1.196-.667-1.538 0l-4.61 9c-.342.667.085 1.5.768 1.5h9.222c.683 0 1.11-.833.769-1.5z" clip-rule="evenodd"/>
</svg>
