<svg width="16" height="16" viewBox="0 0 16 16" xmlns="http://www.w3.org/2000/svg">
  <path fill="#CED0D6" fill-rule="evenodd" d="m11.111 11 .769 1.5c.341.667-.086 1.5-.769 1.5H1.89c-.683 0-1.11-.833-.769-1.5l4.611-9c.342-.667 1.196-.667 1.538 0l.733 1.431-.562 1.097-.94-1.835-4.49 8.763A.09.09 0 0 0 2 13h9a.09.09 0 0 0-.01-.044L9.988 11z" clip-rule="evenodd"/>
  <path fill="#25324D" d="M10.441 2.364c.248-.485.87-.485 1.118 0l3.354 6.545c.248.485-.062 1.091-.56 1.091H7.647c-.496 0-.807-.606-.559-1.09z"/>
  <path fill="#548AF7" fill-rule="evenodd" d="M13.836 9 11 3.466 8.164 9zm-2.277-6.636c-.248-.485-.87-.485-1.118 0L7.087 8.909C6.84 9.394 7.15 10 7.647 10h6.707c.497 0 .807-.606.559-1.09z" clip-rule="evenodd"/>
</svg>
