<svg width="16" height="16" viewBox="0 0 16 16" fill="none" xmlns="http://www.w3.org/2000/svg">
<path fill-rule="evenodd" clip-rule="evenodd" d="M14 2.93762C14 3.84205 11.5376 4.57523 8.5 4.57523C5.46243 4.57523 3 3.84205 3 2.93762C3 2.03319 5.46243 1.3 8.5 1.3C11.5376 1.3 14 2.03319 14 2.93762ZM8.5 5.66698C10.7735 5.66698 12.7834 5.20872 14 4.50729V5.77615C14 6.68058 11.5376 7.41376 8.5 7.41376C5.46243 7.41376 3 6.68058 3 5.77615V4.50729C4.21656 5.20872 6.22647 5.66698 8.5 5.66698ZM8.5 8.50551C10.7735 8.50551 12.7834 8.04725 14 7.34582V8.69457C14 9.55488 11.5376 10.2523 8.5 10.2523C5.46243 10.2523 3 9.55488 3 8.69457V7.34582C4.21656 8.04725 6.22647 8.50551 8.5 8.50551ZM3 11.5624V10.1844C4.21656 10.8858 6.22647 11.344 8.5 11.344C10.7735 11.344 12.7834 10.8858 14 10.1844V11.5624C14 12.4668 11.5376 13.2 8.5 13.2C5.46243 13.2 3 12.4668 3 11.5624Z" fill="#6E6E6E"/>
</svg>
