<svg width="16" height="16" viewBox="0 0 16 16" xmlns="http://www.w3.org/2000/svg">
  <path fill="#45322B" d="M9.24 7.244a1 1 0 0 1 0 1.512l-5.2 4.5a1 1 0 0 1-1.654-.757V3.501a1 1 0 0 1 1.654-.757z"/>
  <path fill="#C77D55" fill-rule="evenodd" d="M9.566 6.866a1.5 1.5 0 0 1 0 2.268l-5.198 4.5c-.972.84-2.482.15-2.482-1.135V3.501c0-1.285 1.51-1.975 2.482-1.135zm-.654 1.512a.5.5 0 0 0 0-.756l-5.199-4.5a.5.5 0 0 0-.827.379v8.998a.5.5 0 0 0 .827.378z" clip-rule="evenodd"/>
  <path fill="#C77D55" fill-rule="evenodd" d="M12.913 8.378a.5.5 0 0 0 0-.756l-5.499-4.76a.5.5 0 0 1 .654-.756l5.5 4.76a1.5 1.5 0 0 1 0 2.268l-5.464 4.729a.5.5 0 0 1-.654-.757z" clip-rule="evenodd"/>
</svg>
