<svg width="16" height="16" viewBox="0 0 16 16" xmlns="http://www.w3.org/2000/svg">
<g clip-path="url(#clip0_2_441)">
<path fill-rule="evenodd" clip-rule="evenodd" d="M11.9881 9.33219C12.7191 9.09409 13.4531 8.28119 13.7461 7.57609C14.5041 8.11709 15.0001 8.99719 15.0001 10.0001C15.0001 11.6572 13.6561 13.0001 12.0001 13.0001H4.5001C2.5671 13.0001 1.0001 11.4322 1.0001 9.50009C1.0001 7.72219 2.3301 6.27019 4.0461 6.04619C4.1961 6.01019 4.3471 6.00009 4.5001 6.00009C5.4511 6.00009 6.3081 6.38119 6.9351 6.99719C6.7381 6.28619 5.9521 5.16709 4.2911 5.01219C4.9031 3.26309 6.5411 2.00009 8.5001 2.00009C10.9841 2.00009 13.0001 4.01419 13.0001 6.50009C13.0001 7.65619 12.6721 8.73419 11.9881 9.33219ZM5 12V11L6.5 9.49999L5 7.99999V6.99999H5.5L8 9.49999L5.5 12H5ZM11 9.99999V8.99999L9.5 7.49999L11 5.99999V4.99999H10.5L8 7.49999L10.5 9.99999H11Z" fill="#40B6E0"/>
</g>
<defs>
<clipPath id="clip0_2_441">
<rect width="16" height="16" fill="white"/>
</clipPath>
</defs>
</svg>
