<svg width="16" height="16" viewBox="0 0 16 16" xmlns="http://www.w3.org/2000/svg">
  <circle cx="8" cy="8" r="7" fill="#3D3223"/>
  <path fill="#D6AE58" fill-rule="evenodd" d="M8 14A6 6 0 1 0 8 2a6 6 0 0 0 0 12m0 1A7 7 0 1 0 8 1a7 7 0 0 0 0 14" clip-rule="evenodd"/>
  <path fill="#D6AE58" fill-rule="evenodd" d="M8 8.75a.75.75 0 1 0 0-1.5.75.75 0 0 0 0 1.5m0 1a1.75 1.75 0 1 0 0-3.5 1.75 1.75 0 0 0 0 3.5" clip-rule="evenodd"/>
  <path fill="#D6AE58" fill-rule="evenodd" d="M11.354 4.646a.5.5 0 0 1 0 .708l-2 2-.708-.708 2-2a.5.5 0 0 1 .708 0" clip-rule="evenodd"/>
</svg>
