<svg width="16" height="16" viewBox="0 0 16 16" xmlns="http://www.w3.org/2000/svg">
  <path fill="#EDF3FF" fill-rule="evenodd" d="M8 2.5a3.999 3.999 0 0 0-3.481 2.029A4 4 0 0 0 5 12.5h1.5v-1.085a1.5 1.5 0 0 1-1.56-2.476l2-2a1.5 1.5 0 0 1 2.12 0l2 2a1.5 1.5 0 0 1-1.56 2.476V12.5h2a3.5 3.5 0 0 0 .379-6.98A4.001 4.001 0 0 0 8 2.5m.5 10V9.207l1.146 1.146a.5.5 0 0 0 .708-.707L9.207 8.5l-.853-.854a.5.5 0 0 0-.708 0l-.853.854-1.147 1.146a.5.5 0 0 0 .708.708L7.5 9.207V12.5z" clip-rule="evenodd"/>
  <path fill="#3574F0" fill-rule="evenodd" d="M5.287 5.218a3 3 0 0 1 5.683.853l.061.432.469-.003h.001a2.5 2.5 0 0 1-.001 5h-2v1h2a3.5 3.5 0 0 0 .379-6.98 4.001 4.001 0 0 0-7.36-.991A4 4 0 0 0 5 12.5h1.5v-1H5a3 3 0 0 1-.142-5.997l.3-.014zM7.5 11.5v1h1v-1z" clip-rule="evenodd"/>
  <path fill="#6C707E" fill-rule="evenodd" d="M8 13.5a.5.5 0 0 0 .5-.5V9.207l1.146 1.147a.5.5 0 0 0 .708-.708l-2-2a.5.5 0 0 0-.708 0l-2 2a.5.5 0 0 0 .708.708L7.5 9.207V13a.5.5 0 0 0 .5.5" clip-rule="evenodd"/>
</svg>
