<svg width="16" height="16" viewBox="0 0 16 16" xmlns="http://www.w3.org/2000/svg">
<path d="M13 4C13 4.26522 12.8946 4.51957 12.7071 4.70711C12.5196 4.89464 12.2652 5 12 5H4C3.73478 5 3.48043 4.89464 3.29289 4.70711C3.10536 4.51957 3 4.26522 3 4C3 3.73478 3.10536 3.48043 3.29289 3.29289C3.48043 3.10536 3.73478 3 4 3H12C12.2652 3 12.5196 3.10536 12.7071 3.29289C12.8946 3.48043 13 3.73478 13 4ZM13 7C13 7.26522 12.8946 7.51957 12.7071 7.70711C12.5196 7.89464 12.2652 8 12 8H4C3.73478 8 3.48043 7.89464 3.29289 7.70711C3.10536 7.51957 3 7.26522 3 7C3 6.73478 3.10536 6.48043 3.29289 6.29289C3.48043 6.10536 3.73478 6 4 6H12C12.2652 6 12.5196 6.10536 12.7071 6.29289C12.8946 6.48043 13 6.73478 13 7ZM13 10C13 10.2652 12.8946 10.5196 12.7071 10.7071C12.5196 10.8946 12.2652 11 12 11H4C3.73478 11 3.48043 10.8946 3.29289 10.7071C3.10536 10.5196 3 10.2652 3 10C3 9.73478 3.10536 9.48043 3.29289 9.29289C3.48043 9.10536 3.73478 9 4 9H12C12.2652 9 12.5196 9.10536 12.7071 9.29289C12.8946 9.48043 13 9.73478 13 10Z" fill="#B99BF8"/>
<path d="M14 6V12H2V6H1V13H15V6H14Z" fill="#B99BF8"/>
</svg>
