<svg width="16" height="16" viewBox="0 0 16 16" xmlns="http://www.w3.org/2000/svg">
  <path fill="#FAF5FF" d="M7.535 1.078c.293-.135.637-.135.93 0l5.941 2.742a.977.977 0 0 1 0 1.797L8.465 8.36a1.115 1.115 0 0 1-.93 0L1.594 5.617a.977.977 0 0 1 0-1.797z"/>
  <path fill="#834DF0" fill-rule="evenodd" d="M13.941 4.719 8 1.977 2.059 4.719 8 7.46zm-5.476-3.64a1.115 1.115 0 0 0-.93 0L1.594 3.82a.977.977 0 0 0 0 1.797L7.535 8.36c.293.136.637.136.93 0l5.941-2.742a.977.977 0 0 0 0-1.797z" clip-rule="evenodd"/>
  <path fill="#834DF0" fill-rule="evenodd" d="M14.948 8.088a.493.493 0 0 1-.239.669l-6.032 2.836a1.596 1.596 0 0 1-1.354 0L1.29 8.757a.493.493 0 0 1-.239-.669.524.524 0 0 1 .69-.231l6.032 2.836a.532.532 0 0 0 .452 0l6.032-2.836a.524.524 0 0 1 .69.231" clip-rule="evenodd"/>
  <path fill="#834DF0" fill-rule="evenodd" d="M14.948 11.368a.493.493 0 0 1-.239.668l-6.032 2.837a1.596 1.596 0 0 1-1.354 0L1.29 12.037a.493.493 0 0 1-.239-.669.524.524 0 0 1 .69-.231l6.032 2.836a.532.532 0 0 0 .452 0l6.032-2.836a.524.524 0 0 1 .69.231" clip-rule="evenodd"/>
</svg>
