<svg width="16" height="16" viewBox="0 0 16 16" fill="none" xmlns="http://www.w3.org/2000/svg">
<path d="M4.99772 13.1716C4.42572 13.1716 3.94667 13.0119 3.56057 12.6925C3.17924 12.3684 2.89086 11.8798 2.69542 11.2268C2.50476 10.569 2.40942 9.73483 2.40942 8.7243V7.2657C2.40942 6.25516 2.50476 5.42338 2.69542 4.77035C2.89086 4.11255 3.17924 3.62396 3.56057 3.3046C3.94667 2.98046 4.42572 2.8184 4.99772 2.8184C5.50776 2.8184 5.94152 2.94233 6.29902 3.1902C6.65652 3.4333 6.93299 3.80271 7.12842 4.29845C7.32862 4.79418 7.45017 5.421 7.49307 6.1789H6.14887C6.11551 5.68793 6.05116 5.28515 5.95582 4.97055C5.86049 4.65595 5.73179 4.42238 5.56972 4.26985C5.40766 4.11255 5.21699 4.0339 4.99772 4.0339C4.73556 4.0339 4.51391 4.15068 4.33277 4.38425C4.15641 4.61781 4.02294 4.97293 3.93237 5.4496C3.84181 5.92626 3.79652 6.53163 3.79652 7.2657V8.7243C3.79652 9.45836 3.84181 10.0637 3.93237 10.5404C4.02294 11.0171 4.15641 11.3722 4.33277 11.6057C4.51391 11.8393 4.73556 11.9561 4.99772 11.9561C5.21699 11.9561 5.40766 11.8798 5.56972 11.7273C5.73179 11.5748 5.86049 11.3412 5.95582 11.0266C6.05116 10.712 6.11551 10.3068 6.14887 9.8111H7.49307C7.45017 10.5738 7.32862 11.203 7.12842 11.6987C6.93299 12.1897 6.65652 12.5591 6.29902 12.8069C5.94629 13.05 5.51252 13.1716 4.99772 13.1716Z" fill="#5FB865"/>
<path d="M10.9075 13.1716C10.3784 13.1716 9.93513 13.0238 9.57763 12.7283C9.22013 12.4328 8.95082 11.9895 8.76968 11.3984C8.58855 10.8073 8.49798 10.0685 8.49798 9.1819V2.99H9.84218V9.17475C9.84218 9.79441 9.88032 10.3116 9.95658 10.7263C10.0376 11.1362 10.1568 11.4437 10.3141 11.6486C10.4714 11.8536 10.6692 11.9561 10.9075 11.9561C11.1411 11.9561 11.3342 11.8536 11.4867 11.6486C11.644 11.4437 11.7608 11.1362 11.837 10.7263C11.9181 10.3116 11.9586 9.79441 11.9586 9.17475V2.99H13.3028V9.1819C13.3028 10.0685 13.2122 10.8073 13.0311 11.3984C12.85 11.9895 12.5806 12.4328 12.2231 12.7283C11.8704 13.0238 11.4319 13.1716 10.9075 13.1716Z" fill="#5FB865"/>
</svg>
