<svg width="16" height="16" viewBox="0 0 16 16" fill="none" xmlns="http://www.w3.org/2000/svg">
<path d="M11 2C11.5523 2 12 2.44772 12 3V9H6C5.44772 9 5 9.44772 5 10V14C4.44772 14 4 13.5523 4 13V6H6C7.10457 6 8 5.10457 8 4V2H11Z" fill="#F2FCF3"/>
<path d="M7 4C7 4.06893 6.99277 4.13617 6.97949 4.20117C6.88625 4.65686 6.48325 5 6 5H4.41406L7 2.41406V4Z" fill="#F2FCF3"/>
<path fill-rule="evenodd" clip-rule="evenodd" d="M11 1C12.1046 1 13 1.89543 13 3V9H12V3C12 2.44772 11.5523 2 11 2H8V4C8 5.10457 7.10457 6 6 6H4V13C4 13.5523 4.44772 14 5 14V15C3.89543 15 3 14.1046 3 13V5.41406C3.00004 5.1489 3.10547 4.89453 3.29297 4.70703L6.70703 1.29297C6.89453 1.10547 7.1489 1.00004 7.41406 1H11ZM4.41406 5H6C6.55228 5 7 4.55228 7 4V2.41406L4.41406 5Z" fill="#208A3C"/>
<path d="M8.62598 10C8.77332 10.0366 8.90988 10.087 9.03516 10.1533C9.31937 10.2954 9.54167 10.4974 9.7002 10.7598C9.85872 11.0221 9.93749 11.3369 9.9375 11.7031H8.9043C8.90428 11.419 8.82777 11.2032 8.6748 11.0557C8.5272 10.9081 8.31396 10.834 8.03516 10.834C7.75639 10.834 7.54075 10.9081 7.3877 11.0557C7.23463 11.2033 7.1582 11.4165 7.1582 11.6953V14.3105C7.1582 14.5893 7.23463 14.8059 7.3877 14.959C7.54073 15.1064 7.75659 15.1797 8.03516 15.1797C8.31383 15.1797 8.52721 15.1065 8.6748 14.959C8.82787 14.8059 8.9043 14.5893 8.9043 14.3105H9.9375C9.9375 14.6659 9.85873 14.9782 9.7002 15.2461C9.54167 15.5139 9.31935 15.7216 9.03516 15.8691C8.92942 15.923 8.8158 15.9666 8.69434 16H7.37598C7.25275 15.9666 7.1362 15.923 7.02637 15.8691C6.74214 15.7215 6.52083 15.5163 6.3623 15.2539C6.20924 14.986 6.13281 14.6713 6.13281 14.3105V11.7031C6.13282 11.3369 6.20925 11.0221 6.3623 10.7598C6.5208 10.4975 6.74228 10.2954 7.02637 10.1533C7.15652 10.087 7.29635 10.0366 7.44531 10H8.62598Z" fill="#6C707E"/>
<path d="M12.082 14.2861C12.082 14.5702 12.1529 14.7917 12.2949 14.9502C12.437 15.1086 12.6449 15.1884 12.918 15.1885C13.1858 15.1885 13.3911 15.1087 13.5332 14.9502C13.6808 14.7917 13.7549 14.5704 13.7549 14.2861V10.0137H14.7881V14.2939C14.7881 14.8461 14.6239 15.2839 14.2959 15.6064C14.1029 15.793 13.864 15.9232 13.5801 16H12.2627C11.9786 15.9233 11.7377 15.7934 11.541 15.6064C11.213 15.2839 11.0488 14.8461 11.0488 14.2939V10.0137H12.082V14.2861Z" fill="#6C707E"/>
</svg>
