<svg width="16" height="16" viewBox="0 0 16 16" fill="none" xmlns="http://www.w3.org/2000/svg">
<path d="M4.99748 13.1716C4.42548 13.1716 3.94643 13.0119 3.56033 12.6925C3.179 12.3684 2.89061 11.8798 2.69518 11.2268C2.50451 10.569 2.40918 9.73483 2.40918 8.7243V7.2657C2.40918 6.25516 2.50451 5.42338 2.69518 4.77035C2.89061 4.11255 3.179 3.62396 3.56033 3.3046C3.94643 2.98046 4.42548 2.8184 4.99748 2.8184C5.50751 2.8184 5.94128 2.94233 6.29878 3.1902C6.65628 3.4333 6.93275 3.80271 7.12818 4.29845C7.32838 4.79418 7.44993 5.421 7.49283 6.1789H6.14863C6.11526 5.68793 6.05091 5.28515 5.95558 4.97055C5.86025 4.65595 5.73155 4.42238 5.56948 4.26985C5.40741 4.11255 5.21675 4.0339 4.99748 4.0339C4.73531 4.0339 4.51366 4.15068 4.33253 4.38425C4.15616 4.61781 4.0227 4.97293 3.93213 5.4496C3.84156 5.92626 3.79628 6.53163 3.79628 7.2657V8.7243C3.79628 9.45836 3.84156 10.0637 3.93213 10.5404C4.0227 11.0171 4.15616 11.3722 4.33253 11.6057C4.51366 11.8393 4.73531 11.9561 4.99748 11.9561C5.21675 11.9561 5.40741 11.8798 5.56948 11.7273C5.73155 11.5748 5.86025 11.3412 5.95558 11.0266C6.05091 10.712 6.11526 10.3068 6.14863 9.8111H7.49283C7.44993 10.5738 7.32838 11.203 7.12818 11.6987C6.93275 12.1897 6.65628 12.5591 6.29878 12.8069C5.94605 13.05 5.51228 13.1716 4.99748 13.1716Z" fill="#57965C"/>
<path d="M10.9073 13.1716C10.3782 13.1716 9.93489 13.0238 9.57739 12.7283C9.21989 12.4328 8.95057 11.9895 8.76944 11.3984C8.58831 10.8073 8.49774 10.0685 8.49774 9.1819V2.99H9.84194V9.17475C9.84194 9.79441 9.88007 10.3116 9.95634 10.7263C10.0374 11.1362 10.1565 11.4437 10.3138 11.6486C10.4711 11.8536 10.669 11.9561 10.9073 11.9561C11.1409 11.9561 11.3339 11.8536 11.4864 11.6486C11.6437 11.4437 11.7605 11.1362 11.8368 10.7263C11.9178 10.3116 11.9583 9.79441 11.9583 9.17475V2.99H13.3025V9.1819C13.3025 10.0685 13.212 10.8073 13.0308 11.3984C12.8497 11.9895 12.5804 12.4328 12.2229 12.7283C11.8702 13.0238 11.4316 13.1716 10.9073 13.1716Z" fill="#57965C"/>
</svg>
