<svg width="16" height="16" viewBox="0 0 16 16" fill="none" xmlns="http://www.w3.org/2000/svg">
<path d="M3.02687 13.156C2.56754 13.156 2.19271 13.0195 1.90237 12.7465C1.61637 12.4692 1.40404 12.0423 1.26537 11.466C1.12671 10.8897 1.05737 10.1422 1.05737 9.2235V7.6765C1.05737 6.75783 1.12671 6.01033 1.26537 5.434C1.40404 4.85767 1.61637 4.433 1.90237 4.16C2.19271 3.88267 2.56754 3.744 3.02687 3.744C3.44721 3.744 3.79387 3.85017 4.06687 4.0625C4.34421 4.2705 4.55437 4.5955 4.69737 5.0375C4.84037 5.4795 4.92704 6.0515 4.95737 6.7535H3.86537C3.84804 6.28117 3.80687 5.89767 3.74187 5.603C3.67687 5.30833 3.58587 5.09167 3.46887 4.953C3.35187 4.81 3.20454 4.7385 3.02687 4.7385C2.83621 4.7385 2.67804 4.8425 2.55237 5.0505C2.42671 5.25417 2.33354 5.57267 2.27287 6.006C2.21654 6.435 2.18837 6.99183 2.18837 7.6765V9.2235C2.18837 9.90817 2.21654 10.4672 2.27287 10.9005C2.33354 11.3295 2.42671 11.648 2.55237 11.856C2.67804 12.0597 2.83621 12.1615 3.02687 12.1615C3.20454 12.1615 3.35187 12.0922 3.46887 11.9535C3.58587 11.8105 3.67687 11.5917 3.74187 11.297C3.80687 11.0023 3.84804 10.6188 3.86537 10.1465H4.95737C4.92704 10.8485 4.84037 11.4205 4.69737 11.8625C4.55437 12.3045 4.34421 12.6317 4.06687 12.844C3.79387 13.052 3.44721 13.156 3.02687 13.156Z" fill="#F28C35"/>
<path d="M7.7476 13.156C7.31427 13.156 6.95677 13.026 6.6751 12.766C6.39343 12.5017 6.18327 12.103 6.0446 11.57C5.90593 11.0327 5.8366 10.3523 5.8366 9.529V3.9H6.9221V9.529C6.9221 10.1227 6.95243 10.6145 7.0131 11.0045C7.07377 11.3945 7.16477 11.6848 7.2861 11.8755C7.40743 12.0618 7.56127 12.155 7.7476 12.155C7.93827 12.155 8.09427 12.0618 8.2156 11.8755C8.33693 11.6848 8.42577 11.3945 8.4821 11.0045C8.54277 10.6145 8.5731 10.1227 8.5731 9.529V3.9H9.6651V9.529C9.6651 10.3523 9.59577 11.0327 9.4571 11.57C9.31843 12.103 9.1061 12.5017 8.8201 12.766C8.53843 13.026 8.18093 13.156 7.7476 13.156Z" fill="#F28C35"/>
<path d="M10.9162 13V3.9H12.0017V7.826H13.5357V3.9H14.6277V13H13.5357V8.8465H12.0017V13H10.9162Z" fill="#F28C35"/>
</svg>
