<svg width="16" height="16" viewBox="0 0 16 16" fill="none" xmlns="http://www.w3.org/2000/svg">
<path d="M11 2C11.5523 2 12 2.44772 12 3V9H4V6H6C7.10457 6 8 5.10457 8 4V2H11Z" fill="#45322B"/>
<path d="M7 4C7 4.06893 6.99277 4.13617 6.97949 4.20117C6.88625 4.65686 6.48325 5 6 5H4.41406L7 2.41406V4Z" fill="#45322B"/>
<path fill-rule="evenodd" clip-rule="evenodd" d="M11 1C12.1046 1 13 1.89543 13 3V9H12V3C12 2.44772 11.5523 2 11 2H8V4C8 5.10457 7.10457 6 6 6H4V9H3V5.41406C3.00004 5.1489 3.10547 4.89453 3.29297 4.70703L6.70703 1.29297C6.89453 1.10547 7.1489 1.00004 7.41406 1H11ZM4.41406 5H6C6.55228 5 7 4.55228 7 4V2.41406L4.41406 5Z" fill="#C77D55"/>
<path d="M3.70801 10C3.85535 10.0366 3.99191 10.087 4.11719 10.1533C4.4014 10.2954 4.6237 10.4974 4.78223 10.7598C4.94075 11.0221 5.01952 11.3369 5.01953 11.7031H3.98633C3.98631 11.419 3.90981 11.2032 3.75684 11.0557C3.60924 10.9081 3.39599 10.834 3.11719 10.834C2.83843 10.834 2.62278 10.9081 2.46973 11.0557C2.31666 11.2033 2.24023 11.4165 2.24023 11.6953V14.3105C2.24023 14.5893 2.31666 14.8059 2.46973 14.959C2.62276 15.1064 2.83862 15.1797 3.11719 15.1797C3.39587 15.1797 3.60924 15.1065 3.75684 14.959C3.9099 14.8059 3.98633 14.5893 3.98633 14.3105H5.01953C5.01953 14.6659 4.94076 14.9782 4.78223 15.2461C4.6237 15.5139 4.40139 15.7216 4.11719 15.8691C4.01145 15.923 3.89784 15.9666 3.77637 16H2.45801C2.33478 15.9666 2.21823 15.923 2.1084 15.8691C1.82417 15.7215 1.60286 15.5163 1.44434 15.2539C1.29127 14.986 1.21484 14.6713 1.21484 14.3105V11.7031C1.21486 11.3369 1.29128 11.0221 1.44434 10.7598C1.60283 10.4975 1.82431 10.2954 2.1084 10.1533C2.23855 10.087 2.37838 10.0366 2.52734 10H3.70801Z" fill="#CED0D6"/>
<path d="M7.16602 14.2861C7.16602 14.5702 7.23693 14.7917 7.37891 14.9502C7.52096 15.1086 7.72885 15.1884 8.00195 15.1885C8.26982 15.1885 8.47505 15.1087 8.61719 14.9502C8.76479 14.7917 8.83887 14.5704 8.83887 14.2861V10.0137H9.87207V14.2939C9.87207 14.8461 9.70788 15.2839 9.37988 15.6064C9.1869 15.793 8.94798 15.9232 8.66406 16H7.34668C7.06258 15.9233 6.82167 15.7934 6.625 15.6064C6.297 15.2839 6.13281 14.8461 6.13281 14.2939V10.0137H7.16602V14.2861Z" fill="#CED0D6"/>
<path d="M12.1152 12.417H13.7217V10.0137H14.7471V16H13.7217V13.3682H12.1152V16H11.0898V10.0137H12.1152V12.417Z" fill="#CED0D6"/>
</svg>
