<svg width="16" height="16" viewBox="0 0 16 16" fill="none" xmlns="http://www.w3.org/2000/svg">
<path d="M3.02712 13.156C2.56778 13.156 2.19295 13.0195 1.90262 12.7465C1.61662 12.4692 1.40428 12.0423 1.26562 11.466C1.12695 10.8897 1.05762 10.1422 1.05762 9.2235V7.6765C1.05762 6.75783 1.12695 6.01033 1.26562 5.434C1.40428 4.85767 1.61662 4.433 1.90262 4.16C2.19295 3.88267 2.56778 3.744 3.02712 3.744C3.44745 3.744 3.79412 3.85017 4.06712 4.0625C4.34445 4.2705 4.55462 4.5955 4.69762 5.0375C4.84062 5.4795 4.92728 6.0515 4.95762 6.7535H3.86562C3.84828 6.28117 3.80712 5.89767 3.74212 5.603C3.67712 5.30833 3.58612 5.09167 3.46912 4.953C3.35212 4.81 3.20478 4.7385 3.02712 4.7385C2.83645 4.7385 2.67828 4.8425 2.55262 5.0505C2.42695 5.25417 2.33378 5.57267 2.27312 6.006C2.21678 6.435 2.18862 6.99183 2.18862 7.6765V9.2235C2.18862 9.90817 2.21678 10.4672 2.27312 10.9005C2.33378 11.3295 2.42695 11.648 2.55262 11.856C2.67828 12.0597 2.83645 12.1615 3.02712 12.1615C3.20478 12.1615 3.35212 12.0922 3.46912 11.9535C3.58612 11.8105 3.67712 11.5917 3.74212 11.297C3.80712 11.0023 3.84828 10.6188 3.86562 10.1465H4.95762C4.92728 10.8485 4.84062 11.4205 4.69762 11.8625C4.55462 12.3045 4.34445 12.6317 4.06712 12.844C3.79412 13.052 3.44745 13.156 3.02712 13.156Z" fill="#F28C35"/>
<path d="M7.74784 13.156C7.31451 13.156 6.95701 13.026 6.67534 12.766C6.39368 12.5017 6.18351 12.103 6.04484 11.57C5.90618 11.0327 5.83684 10.3523 5.83684 9.529V3.9H6.92234V9.529C6.92234 10.1227 6.95268 10.6145 7.01334 11.0045C7.07401 11.3945 7.16501 11.6848 7.28634 11.8755C7.40768 12.0618 7.56151 12.155 7.74784 12.155C7.93851 12.155 8.09451 12.0618 8.21584 11.8755C8.33718 11.6848 8.42601 11.3945 8.48234 11.0045C8.54301 10.6145 8.57334 10.1227 8.57334 9.529V3.9H9.66534V9.529C9.66534 10.3523 9.59601 11.0327 9.45734 11.57C9.31868 12.103 9.10634 12.5017 8.82034 12.766C8.53868 13.026 8.18118 13.156 7.74784 13.156Z" fill="#F28C35"/>
<path d="M10.9165 13V3.9H12.002V7.826H13.536V3.9H14.628V13H13.536V8.8465H12.002V13H10.9165Z" fill="#F28C35"/>
</svg>
