<svg width="16" height="16" viewBox="0 0 16 16" fill="none" xmlns="http://www.w3.org/2000/svg">
<path d="M11 2C11.5523 2 12 2.44772 12 3V9H11C10.4477 9 10 9.44772 10 10V14H5C4.44772 14 4 13.5523 4 13V6H6C7.10457 6 8 5.10457 8 4V2H11Z" fill="#EDF3FF"/>
<path d="M7 4C7 4.06893 6.99277 4.13617 6.97949 4.20117C6.88625 4.65686 6.48325 5 6 5H4.41406L7 2.41406V4Z" fill="#EDF3FF"/>
<path fill-rule="evenodd" clip-rule="evenodd" d="M11 1C12.1046 1 13 1.89543 13 3V9H12V3C12 2.44772 11.5523 2 11 2H8V4C8 5.10457 7.10457 6 6 6H4V13C4 13.5523 4.44772 14 5 14H10V15H5C3.89543 15 3 14.1046 3 13V5.41406C3.00004 5.1489 3.10547 4.89453 3.29297 4.70703L6.70703 1.29297C6.89453 1.10547 7.1489 1.00004 7.41406 1H11ZM4.41406 5H6C6.55228 5 7 4.55228 7 4V2.41406L4.41406 5Z" fill="#3574F0"/>
<path d="M10.918 16V10.014H12.1316L12.7138 11.9164C12.7739 12.1077 12.8231 12.2827 12.8614 12.4412C12.8996 12.5997 12.9242 12.7145 12.9352 12.7856C12.9461 12.7145 12.9707 12.5997 13.009 12.4412C13.0472 12.2827 13.0937 12.1077 13.1484 11.9164L13.706 10.014H14.9196V16H13.9602V14.1386C13.9602 13.8653 13.9684 13.5673 13.9848 13.2448C14.0012 12.9223 14.0203 12.5997 14.0422 12.2772C14.064 11.9547 14.0886 11.6485 14.116 11.3588C14.1488 11.0691 14.1761 10.8149 14.198 10.5962L13.3944 13.4252H12.4596L11.6314 10.5962C11.6587 10.8039 11.686 11.0499 11.7134 11.3342C11.7407 11.613 11.7653 11.9137 11.7872 12.2362C11.8145 12.5533 11.8364 12.8758 11.8528 13.2038C11.8692 13.5318 11.8774 13.8434 11.8774 14.1386V16H10.918Z" fill="#6C707E"/>
</svg>
