<!-- Copyright 2000-2025 JetBrains s.r.o. and contributors. Use of this source code is governed by the Apache 2.0 license. -->
<svg width="16" height="16" viewBox="0 0 16 16" fill="none" xmlns="http://www.w3.org/2000/svg">
<path fill-rule="evenodd" clip-rule="evenodd" d="M15.3798 12.7117C15.5435 12.8691 15.5436 13.131 15.3799 13.2884L12.6774 15.8876C12.4232 16.132 12 15.9519 12 15.5993L12 10.4038C12 10.0513 12.423 9.87118 12.6772 10.1154L15.3798 12.7117Z" fill="#57965C"/>
<path fill-rule="evenodd" clip-rule="evenodd" d="M7.62255 13.2883C7.45909 13.1309 7.45916 12.8692 7.62271 12.7119L10.3216 10.1163C10.5757 9.87185 10.9989 10.0519 10.9989 10.4045V15.5986C10.9989 15.9514 10.5755 16.1314 10.3214 15.8868L7.62255 13.2883Z" fill="#DB5C5C"/>
<path d="M8 1C11.866 1 15 4.13401 15 8C15 8.88557 14.8332 9.73184 14.5332 10.5117L13.3691 9.39355L13.2842 9.31836C13.0208 9.10127 12.7148 9.00266 12.4141 9.00195C11.7081 9.00029 11.296 9.0042 10.5898 9.00293C10.2537 9.00233 9.91074 9.1236 9.62793 9.39551L6.92969 11.9912C6.35999 12.5392 6.35433 13.4546 6.92773 14.0078L6.92871 14.0088L7.95703 14.998C4.11082 14.9749 1 11.8517 1 8C1 4.13401 4.13401 1 8 1Z" fill="#25324D"/>
<path fill-rule="evenodd" clip-rule="evenodd" d="M8 1C11.866 1 15 4.13401 15 8C15 8.88557 14.8332 9.73184 14.5332 10.5117L13.7393 9.74902C13.908 9.19558 14 8.60861 14 8C14 7.29857 13.8784 6.62568 13.6572 6H10.875C10.9558 6.63374 11 7.30499 11 8C11 8.34022 10.989 8.67473 10.9688 9.00195C10.8505 9.00201 10.7256 9.00317 10.5898 9.00293C10.3745 9.00255 10.1564 9.05198 9.95312 9.15918C9.98191 8.78503 10 8.39785 10 8C10 7.29538 9.95178 6.62358 9.86621 6H6.13379C6.04822 6.62358 6 7.29538 6 8C6 8.70462 6.04822 9.37642 6.13379 10H9L7.95996 11H6.3125C6.41786 11.4742 6.54728 11.9076 6.69336 12.292C6.37498 12.834 6.44961 13.5465 6.92773 14.0078L6.92871 14.0088L7.95703 14.998C4.11082 14.9749 1 11.8517 1 8C1 4.13401 4.13401 1 8 1ZM2.80469 11C3.56455 12.3131 4.80678 13.3106 6.29004 13.751C5.86191 13.0564 5.51476 12.1085 5.28906 11H2.80469ZM2.34277 6C2.12157 6.62568 2 7.29857 2 8C2 8.70143 2.12157 9.37432 2.34277 10H5.125C5.04416 9.36626 5 8.69501 5 8C5 7.30499 5.04416 6.63374 5.125 6H2.34277ZM6.29004 2.24805C4.80666 2.68836 3.56459 3.68685 2.80469 5H5.28906C5.51484 3.89108 5.86171 2.94268 6.29004 2.24805ZM8 2C7.92398 2 7.76816 2.03186 7.53516 2.26172C7.29769 2.49608 7.03754 2.88507 6.79785 3.44434C6.60701 3.88966 6.44266 4.41423 6.3125 5H9.6875C9.55734 4.41423 9.39299 3.88966 9.20215 3.44434C8.96246 2.88507 8.70231 2.49608 8.46484 2.26172C8.23184 2.03186 8.07602 2 8 2ZM9.70898 2.24805C10.1374 2.94272 10.4851 3.89085 10.7109 5H13.1953C12.4353 3.68659 11.1928 2.68823 9.70898 2.24805Z" fill="#548AF7"/>
</svg>
