<svg width="16" height="16" viewBox="0 0 16 16" fill="none" xmlns="http://www.w3.org/2000/svg">
<path d="M12.771 5.14346L14 5.51393V7.10307L12.771 7.01532V5.14346Z" fill="#F58435"/>
<path d="M11.1124 5.39694V7.11281L12.771 7.01532V5.14346L11.1124 5.39694Z" fill="#9D5025"/>
<path d="M3.21898 4.27577L2 4.65599V7.15182L3.21898 7.05432V4.27577Z" fill="#9D5025"/>
<path d="M4.8876 4.52925V7.15182L3.21899 7.05432V4.27577L4.8876 4.52925Z" fill="#F58435"/>
<path d="M14 8V10L8.005 11.5097V8.04874L14 8Z" fill="#F58435"/>
<path d="M2 8V10L8.00502 11.5097V8.04874L2 8Z" fill="#9D5025"/>
<path d="M8.005 1L9.77353 1.84819V6.76184L8.005 6.60585V1Z" fill="#F58435"/>
<path d="M8.00502 1L6.2265 1.86769V6.77159L8.00502 6.60585V1Z" fill="#9D5025"/>
<path d="M9.76354 12.4457V14.1616L8.005 15V13.0989L9.76354 12.4457Z" fill="#F58435"/>
<path d="M6.24646 12.4457V14.1616L8.00499 15V13.0989L6.24646 12.4457Z" fill="#9D5025"/>
<path d="M8.00499 11.9485L9.76353 12.4453L8.00499 13.0981L6.24646 12.4453L8.00499 11.9485Z" fill="#FEB57E"/>
</svg>
