<svg width="16" height="16" viewBox="0 0 16 16" fill="none" xmlns="http://www.w3.org/2000/svg">
<path fill-rule="evenodd" clip-rule="evenodd" d="M1.14644 11.1464L1.64644 10.6464L2.35355 11.3535L1.85355 11.8535C1.22039 12.4867 1.22039 13.5133 1.85355 14.1464C2.48672 14.7796 3.51328 14.7796 4.14644 14.1464L4.64644 13.6464L5.35355 14.3535L4.85355 14.8535C3.82986 15.8772 2.17013 15.8772 1.14644 14.8535C0.122756 13.8298 0.122755 12.1701 1.14644 11.1464Z" fill="#F26522"/>
<path fill-rule="evenodd" clip-rule="evenodd" d="M6.85355 12.8535L6.35355 13.3535L5.64644 12.6464L6.14644 12.1464C6.77961 11.5133 6.77961 10.4867 6.14644 9.85354C5.51328 9.22037 4.48672 9.22037 3.85355 9.85354L3.35355 10.3535L2.64644 9.64643L3.14644 9.14643C4.17013 8.12274 5.82986 8.12274 6.85355 9.14643C7.87724 10.1701 7.87724 11.8298 6.85355 12.8535Z" fill="#F26522"/>
<path fill-rule="evenodd" clip-rule="evenodd" d="M5.35355 11.3535L3.35355 13.3535L2.64644 12.6464L4.64644 10.6464L5.35355 11.3535Z" fill="#F26522"/>
<path d="M11.559 9.90335C12.1539 8.99791 12.5 7.91437 12.5 6.75C12.5 3.57436 9.92564 1 6.75 1C3.57436 1 1 3.57436 1 6.75C1 7.66145 1.21207 8.52338 1.58956 9.28912L2.43935 8.43932C2.66354 8.21513 2.90981 8.02648 3.17117 7.87337C3.05995 7.51871 3 7.14135 3 6.75C3 4.67893 4.67893 3 6.75 3C8.82107 3 10.5 4.67893 10.5 6.75C10.5 8.18908 9.68938 9.43884 8.49985 10.0676C8.69124 10.7886 8.65648 11.5573 8.3956 12.2611C8.98282 12.086 9.5307 11.8196 10.0227 11.4784L13.6861 15.1418L15.2418 13.5861L11.559 9.90335Z" fill="#AFB1B3"/>
</svg>
