<svg width="16" height="16" viewBox="0 0 16 16" fill="none" xmlns="http://www.w3.org/2000/svg">
<path fill-rule="evenodd" clip-rule="evenodd" d="M8 15C4.134 15 1 11.866 1 8C1 4.134 4.134 1 8 1C11.866 1 15 4.134 15 8C15 11.866 11.866 15 8 15Z" fill="#62B543" fill-opacity="0.6"/>
<path fill-rule="evenodd" clip-rule="evenodd" d="M6.12707 6L6.51583 4H7.53455L7.14579 6H9.55567L9.94443 4H10.9631L10.5744 6H12V7H10.38L9.99125 9H11.5V10H9.79687L9.40811 12H8.38939L8.77815 10H6.36827L5.97951 12H4.96079L5.34955 10H4V9H5.54393L5.93269 7H4.5V6H6.12707ZM8.97253 9L9.36129 7H6.95141L6.56265 9H8.97253Z" fill="#231F20" fill-opacity="0.7"/>
</svg>
