<svg width="16" height="16" viewBox="0 0 16 16" fill="none" xmlns="http://www.w3.org/2000/svg">
<path fill-rule="evenodd" clip-rule="evenodd" d="M8 15C4.134 15 1 11.866 1 8C1 4.134 4.134 1 8 1C11.866 1 15 4.134 15 8C15 11.866 11.866 15 8 15Z" fill="#62B543" fill-opacity="0.6"/>
<path fill-rule="evenodd" clip-rule="evenodd" d="M7.6281 6.7611C7.4731 6.8511 7.3451 6.9741 7.2461 7.1241C7.1511 7.2721 7.0811 7.4411 7.0391 7.6261C6.9971 7.8091 6.9761 7.9961 6.9761 8.1841C6.9761 8.5861 7.0491 8.8721 7.1971 9.0581C7.3491 9.2481 7.5541 9.3451 7.8051 9.3451C7.9701 9.3451 8.1151 9.3071 8.2371 9.2311C8.3571 9.1581 8.4571 9.0531 8.5331 8.9201C8.6061 8.7931 8.6631 8.6401 8.7011 8.4641C8.7391 8.2941 8.7641 8.1011 8.7731 7.8931L8.8421 6.6991L8.8001 6.6891C8.6851 6.6621 8.5981 6.6481 8.5001 6.6371C8.4021 6.6271 8.3041 6.6221 8.2021 6.6221C7.9781 6.6221 7.7861 6.6681 7.6281 6.7611ZM4.0021 8.0006C4.0021 4.0011 7.66742 4.0011 8.3161 4.0011C8.65105 4.0011 12.0001 4.08643 12.0001 7.5571C12.0001 10.0091 10.4751 10 10.1701 10C9.42492 9.955 9.0931 9.4111 9.0931 9.4111C9.0931 9.4111 8.47735 10 7.8891 10C7.07965 10 6.0001 9.9211 6.0001 8.0001C6.0001 6.32043 7.45593 6.0001 8.0001 6.0001C8.1531 6.0001 9.7451 6.0551 9.8241 6.0791L9.7441 8.1881C9.7441 8.1881 9.67151 9.19363 10.2331 9.2451C10.9561 9.2451 11.0601 7.7831 11.0601 7.5471C11.0601 4.90741 8.7081 4.7451 8.3161 4.7451C7.7711 4.7451 4.94354 4.85089 4.94354 8.0006C4.94354 8.58402 4.94354 11.2461 7.8891 11.2461C8.0901 11.2461 9.7441 11.043 10.1621 10.8281V11.5781C9.8551 11.7031 9.0931 12.0001 7.8981 12.0001C7.15576 12.0001 4.0021 12.0001 4.0021 8.0006Z" fill="#231F20" fill-opacity="0.7"/>
</svg>
