<svg width="60" height="60" viewBox="0 0 60 60" xmlns="http://www.w3.org/2000/svg">
  <path fill="none" stroke="#3574f0" stroke-linecap="round" stroke-linejoin="round" stroke-width="1.5" d="M56.432 27.788 45.052 7.213c-.757-1.369-2.157-2.212-3.671-2.212H18.62c-1.515 0-2.914.843-3.671 2.212L3.568 27.788a4.595 4.595 0 0 0 0 4.425l11.38 20.575C15.705 54.157 17.105 55 18.619 55H41.38c1.515 0 2.914-.843 3.671-2.212l11.38-20.575a4.595 4.595 0 0 0 0-4.425Z"/>
  <path fill="none" stroke="#3574f0" stroke-linecap="round" stroke-linejoin="round" stroke-width="1.5" d="m29.711 30.49-7.393 12.536a.963.963 0 0 1-.831.474h-3.299a.962.962 0 0 1-.83-1.454l6.815-11.556a.966.966 0 0 0 0-.98l-6.815-11.556a.965.965 0 0 1 .83-1.454h3.299c.341 0 .657.18.831.474l7.393 12.536a.966.966 0 0 1 0 .98Zm6.116 0 6.815 11.556a.965.965 0 0 1-.83 1.454h-3.299a.966.966 0 0 1-.831-.474L30.289 30.49a.966.966 0 0 1 0-.98l7.393-12.536a.963.963 0 0 1 .831-.474h3.299a.962.962 0 0 1 .83 1.454L35.827 29.51a.966.966 0 0 0 0 .98Z"/>
</svg>
