<svg width="60" height="60" viewBox="0 0 60 60" xmlns="http://www.w3.org/2000/svg">
  <path fill="none" stroke="#834df0" stroke-linecap="round" stroke-linejoin="round" d="M33.079 39.45v4.1m2.006-4.131c-.831 0-2.006 1.146-2.006 2.156m-4.151 2.082c1.079 0 2-.741 2-2.242 0-1.444-.958-2.069-2-2.069-.978 0-2.05.619-2.05 2.169s1.034 2.142 2.05 2.142Zm-3.892-1.069c-.507.757-1.411 1.007-2.137 1.007-1.564 0-2.822-1.054-2.822-3.032 0-2.066 1.258-3.162 2.822-3.162 1.463 0 2.073 1.041 2.073 1.041"/>
  <path fill="#834df0" d="M11.998 32.927c-.57 0-1.035.466-1.035 1.039s.464 1.035 1.033 1.035c.574 0 1.041-.464 1.041-1.035 0-.583-.456-1.039-1.039-1.039Z"/>
  <path fill="none" stroke="#834df0" stroke-linecap="round" stroke-linejoin="round" stroke-width="1.5" d="M47.405 21.203h-8.928m4.464 13.047V21.208m-7.537 6.332H29.8m5.988-6.332H29.8V34.25h6.287m-20.168 0V21.046L26.045 34.25V21.046"/>
  <path fill="none" stroke="#834df0" stroke-linecap="round" stroke-linejoin="round" d="M39.73 43.241c-.256.219-.763.437-1.281.437-1.22 0-1.911-.972-1.911-2.135 0-1.289.574-2.221 1.827-2.221 1.143 0 1.662.857 1.662 2.005h-3.344"/>
  <path fill="none" stroke="#bfa1f8" stroke-linejoin="round" stroke-width="1.5" d="M48.012 48.75c-10.355 9.948-26.814 9.617-36.762-.738s-9.617-26.814.738-36.762"/>
  <path fill="none" stroke="#834df0" stroke-linecap="round" stroke-linejoin="round" stroke-width="1.5" d="m43.703 44.265 4.309 4.485c10.355-9.948 10.686-26.407.738-36.762S22.343 1.302 11.988 11.25l4.832 5.03"/>
</svg>
