<svg width="60" height="60" viewBox="0 0 60 60" xmlns="http://www.w3.org/2000/svg">
  <path fill="none" stroke="#ced0d6" stroke-linecap="round" stroke-linejoin="round" stroke-width="1.5" d="M47.126 28.809c2.925 8.579 3.474 17.555-2.083 25.256-1.185 1.642-17.255-6.044-25.054-10.041-3.16 3.862-6.036 7.187-9.043 10.301m27.858-32.723s6.831 1.192 10.236 1.56c3.607.39-.156-12.931-1.755-14.038-3.802-2.632-11.503-3.002-20.468-3.478-4.023-.214-7.405 2.243-7.405 2.243"/>
  <path fill="none" stroke="#ced0d6" stroke-linecap="round" stroke-linejoin="round" stroke-width="1.5" d="M22.134 21.797c-9.944-3.899-13.44-6.228-11.601-10.724 1.755-4.289 2.066-4.217 17.079-1"/>
  <path fill="none" stroke="#ced0d6" stroke-linecap="round" stroke-linejoin="round" stroke-width="1.5" d="M5.657 22.455c2.9-.906 6.412-2.463 7.566-4.772m24.509 16.69c2.047 4.094 7.117 9.554 10.821 11.503"/>
</svg>
