<svg width="21" height="21" viewBox="0 0 21 21" xmlns="http://www.w3.org/2000/svg">
  <linearGradient id="a" x1=".5" x2=".5" y1=".008" y2="1.004">
    <stop offset="0" stop-color="#956B00"/>
    <stop offset="1" stop-color="#7C4300"/>
  </linearGradient>
  <path fill="url(#a)" d="M1 10.5a9.5 9.5 0 0 0 9.5 9.5 9.5 9.5 0 0 0 9.5-9.5A9.5 9.5 0 0 0 10.5 1 9.5 9.5 0 0 0 1 10.5Z"/>
  <linearGradient id="b" x1=".5" x2=".5" y1="0" y2="1.005">
    <stop offset="0" stop-color="#FFF"/>
    <stop offset="1" stop-color="#FFF5C8"/>
  </linearGradient>
  <path fill="url(#b)" d="M2 10.5a8.5 8.5 0 1 0 17 0A8.5 8.5 0 0 0 10.5 2 8.5 8.5 0 0 0 2 10.5Z"/>
  <linearGradient id="c" x1=".5" x2=".5" y1="0" y2="1.005">
    <stop offset="0" stop-color="#FFE6AF"/>
    <stop offset="1" stop-color="#FFF"/>
  </linearGradient>
  <path fill="url(#c)" d="M3 10.5c0 4.143 3.357 7.5 7.5 7.5s7.5-3.357 7.5-7.5S14.643 3 10.5 3A7.499 7.499 0 0 0 3 10.5Z"/>
  <linearGradient id="d" x1=".5" x2=".5" y1=".007" y2="1.113">
    <stop offset="0" stop-color="#FF9000"/>
    <stop offset="1" stop-color="#FFBA00"/>
  </linearGradient>
  <path fill="url(#d)" d="M10.5 10.499v.001l4.404 6.061A7.496 7.496 0 0 0 18 10.5c0-.81-.132-1.588-.369-2.318a7.511 7.511 0 0 0-2.727-3.744A7.455 7.455 0 0 0 10.5 3v7.499Z"/>
  <linearGradient id="e" x1=".5" x2=".5" y1="0" y2="1.005">
    <stop offset="0" stop-color="#FFF"/>
    <stop offset="1" stop-color="#FFF5C8"/>
  </linearGradient>
  <path fill="url(#e)" d="M6 10.5a4.5 4.5 0 0 0 4.5 4.5 4.5 4.5 0 0 0 0-9A4.502 4.502 0 0 0 6 10.5Z"/>
  <path fill="#ED7B00" d="M11.5 12h-2v2h2m0-3h-2V6.5h2V11Z"/>
</svg>
