<!-- Copyright © 2000–2024 JetBrains s.r.o. -->
<svg width="16" height="16" viewBox="0 0 16 16" xmlns="http://www.w3.org/2000/svg">
  <path fill="#6e6e6e" d="M9.85 13.7c-3.13 1.09-6.55-.56-7.64-3.68-1.09-3.13.56-6.55 3.68-7.64.08-.03.17-.06.25-.08l-.31-.95A7.026 7.026 0 0 0 .99 8c0 3.84 3.13 7 7 7 .76 0 1.48-.12 2.16-.34l-.31-.95Z" opacity=".7" style="isolation:isolate"/>
  <path fill="#eda200" d="M8 1v1.5c3.04 0 5.5 2.46 5.5 5.5 0 1.83-.9 3.44-2.27 4.44l.88 1.21A7.011 7.011 0 0 0 15 7.99c0-3.87-3.16-7-7-7M7 12h2v-2H7z"/>
  <path fill="#eda200" d="M8.5 9h-1L7 4h2z"/>
</svg>
