<!-- Copyright © 2000–2024 JetBrains s.r.o. -->
<svg width="16" height="16" viewBox="0 0 16 16" xmlns="http://www.w3.org/2000/svg">
  <path fill="#afb1b3" d="M2 8c0-2.6 1.67-4.9 4.15-5.7l-.31-.95A7.026 7.026 0 0 0 1 8c0 3.09 2.03 5.74 4.84 6.66l.31-.95A6.007 6.007 0 0 1 2 8" opacity=".7" style="isolation:isolate"/>
  <path fill="#499c54" d="M8 1v1.5c3.04 0 5.5 2.46 5.5 5.5s-2.46 5.5-5.5 5.5V15c3.85 0 7-3.15 7-7s-3.15-7-7-7"/>
  <path fill="#499c54" d="M6.4 11h2l3.22-6.44c-.42-.44-.92-.8-1.47-1.06L7.4 9l-1-2h-2z"/>
</svg>
