<!-- Copyright © 2000–2024 JetBrains s.r.o. -->
<svg width="16" height="16" viewBox="0 0 16 16" xmlns="http://www.w3.org/2000/svg">
  <path fill="none" stroke="#6C707E" stroke-linecap="round" stroke-linejoin="round" d="M6.51 1.67a6.606 6.606 0 0 1 2.98 0m-7.02 2.9C3 3.72 3.72 3 4.57 2.47m-2.9 7.02a6.606 6.606 0 0 1 0-2.98m2.9 7.02a6.581 6.581 0 0 1-2.1-2.1m7.02 2.9a6.606 6.606 0 0 1-2.98 0m7.02-2.9c-.53.85-1.25 1.57-2.1 2.1m2.9-7.02a6.606 6.606 0 0 1 0 2.98m-2.9-7.02c.85.53 1.57 1.25 2.1 2.1"/>
</svg>
