<!-- Copyright © 2000–2024 JetBrains s.r.o. -->
<svg width="16" height="16" viewBox="0 0 16 16" xmlns="http://www.w3.org/2000/svg">
  <path fill="#afb1b3" d="M8 14c-3.31 0-6-2.69-6-6 0-2.6 1.67-4.9 4.14-5.7l-.31-.95C2.99 2.27.99 4.95.99 8.01c0 3.84 3.13 7 7 7 2.24 0 4.34-1.08 5.66-2.89l-.81-.59a5.984 5.984 0 0 1-4.85 2.48" opacity=".7" style="isolation:isolate"/>
  <path fill="#f0a732" d="M8 1v1.5a5.497 5.497 0 0 1 5.23 7.2l1.43.46c.23-.7.34-1.43.34-2.16 0-3.87-3.16-7-7-7M7 12h2v-2H7zm1.5-3h-1L7 4h2z"/>
</svg>
