<svg width="21" height="21" viewBox="0 0 21 21" xmlns="http://www.w3.org/2000/svg">
  <path fill="#F4F4F4" d="M20 10.5a9.5 9.5 0 0 1-9.5 9.5A9.5 9.5 0 0 1 1 10.5 9.5 9.5 0 0 1 10.5 1a9.5 9.5 0 0 1 9.5 9.5Z"/>
  <path fill="#EBEBEB" d="M19 10.5A8.5 8.5 0 1 1 10.5 2a8.5 8.5 0 0 1 8.5 8.5Z"/>
  <path fill="#EBEBEB" d="M18 10.5c0 4.143-3.357 7.5-7.5 7.5A7.499 7.499 0 0 1 3 10.5C3 6.357 6.357 3 10.5 3S18 6.357 18 10.5Z"/>
  <path fill="#FA0" d="M17.63 8.182a7.51 7.51 0 0 0-2.726-3.744A7.455 7.455 0 0 0 10.5 3v7.5h-.001l-7.13 2.317a7.502 7.502 0 0 0 2.727 3.745A7.452 7.452 0 0 0 10.5 18a7.45 7.45 0 0 0 4.404-1.438A7.5 7.5 0 0 0 18 10.5c0-.809-.132-1.588-.37-2.318Z"/>
  <path fill="#FFF" d="M15 10.5a4.5 4.5 0 1 1-9 0 4.5 4.5 0 0 1 9 0Z"/>
  <path fill="#FA0" d="M11.5 12h-2v2h2m0-3h-2V6.5h2V11Z"/>
</svg>
