<!-- Copyright © 2000–2024 JetBrains s.r.o. -->
<svg width="16" height="16" viewBox="0 0 16 16" xmlns="http://www.w3.org/2000/svg">
  <path fill="#6e6e6e" d="m13.66 3.89-.81.59A5.952 5.952 0 0 1 14 8c0 3.32-2.69 6-6 6s-6-2.68-6.01-5.99c0-2.6 1.67-4.91 4.15-5.72l-.31-.95A7.026 7.026 0 0 0 .99 7.99c0 3.84 3.13 7 7 7s7-3.14 7-7c0-1.48-.47-2.92-1.34-4.11" opacity=".7" style="isolation:isolate"/>
  <path fill="#59a869" d="M12.11 2.34A6.965 6.965 0 0 0 8 1v1.5c1.21 0 2.32.39 3.23 1.05zM6.4 11h2l3.22-6.44c-.42-.44-.92-.8-1.47-1.06L7.4 9l-1-2h-2z"/>
</svg>
