<!-- Copyright © 2000–2024 JetBrains s.r.o. -->
<svg width="16" height="16" viewBox="0 0 16 16" xmlns="http://www.w3.org/2000/svg">
  <path fill="#afb1b3" d="M8 14c-3.31 0-6-2.69-6-6 0-2.6 1.67-4.9 4.14-5.7l-.31-.95A7.026 7.026 0 0 0 .99 8c0 3.84 3.13 7 7 7 2.24 0 4.34-1.08 5.66-2.89l-.81-.59A5.984 5.984 0 0 1 7.99 14" opacity=".7" style="isolation:isolate"/>
  <path fill="#499c54" d="M8 1v1.5a5.497 5.497 0 0 1 5.23 7.2l1.43.46c.23-.7.34-1.43.34-2.16 0-3.87-3.16-7-7-7"/>
  <path fill="#499c54" d="M6.4 11h2l3.22-6.44c-.42-.44-.92-.8-1.47-1.06L7.4 9l-1-2h-2z"/>
</svg>
