<!-- Copyright © 2000–2024 JetBrains s.r.o. -->
<svg width="16" height="16" viewBox="0 0 16 16" xmlns="http://www.w3.org/2000/svg">
  <path fill="#6e6e6e" d="M2 8c0-2.6 1.67-4.9 4.15-5.7l-.31-.95A7.026 7.026 0 0 0 1 8c0 1.44.45 2.88 1.34 4.11l.81-.59A5.952 5.952 0 0 1 2 8" opacity=".7" style="isolation:isolate"/>
  <path fill="#59a869" d="M8 1v1.5c3.04 0 5.5 2.46 5.5 5.5s-2.46 5.5-5.5 5.5c-1.16 0-2.29-.37-3.23-1.06l-.88 1.21c1.19.87 2.63 1.34 4.11 1.34 3.85 0 7-3.15 7-7S11.85 1 8 1"/>
  <path fill="#59a869" d="M6.4 11h2l3.22-6.44c-.42-.44-.92-.8-1.47-1.06L7.4 9l-1-2h-2z"/>
</svg>
