<!-- Copyright © 2000–2024 JetBrains s.r.o. -->
<svg width="16" height="16" viewBox="0 0 16 16" xmlns="http://www.w3.org/2000/svg">
  <path fill="#afb1b3" d="M14 8c0 3.31-2.68 6-6 6-3.31 0-6-2.68-6-6 0-2.6 1.67-4.9 4.15-5.71l-.31-.95A7.026 7.026 0 0 0 1 7.99c0 3.84 3.13 7 7 7s7-3.15 7-7h-1Z" opacity=".7" style="isolation:isolate"/>
  <path fill="#499c54" d="m13.23 6.3 1.43-.46C13.76 3.05 11.1 1 8.01 1v1.5a5.5 5.5 0 0 1 5.23 3.8"/>
  <path fill="#499c54" d="M6.4 11h2l3.22-6.44c-.42-.44-.92-.8-1.47-1.06L7.4 9l-1-2h-2z"/>
</svg>
