<!-- Copyright © 2000–2024 JetBrains s.r.o. -->
<svg width="16" height="16" viewBox="0 0 16 16" xmlns="http://www.w3.org/2000/svg">
  <path fill="#afb1b3" d="m6.15 2.3-.31-.95c-1.4.46-2.63 1.35-3.5 2.55l.81.59a5.98 5.98 0 0 1 3-2.18" opacity=".7" style="isolation:isolate"/>
  <path fill="#f0a732" d="M8 1v1.5c3.04 0 5.5 2.46 5.5 5.5s-2.46 5.5-5.5 5.5a5.497 5.497 0 0 1-5.23-7.2l-1.43-.46C1.11 6.54 1 7.27 1 8c0 3.85 3.14 7 7 7s7-3.15 7-7-3.15-7-7-7"/>
  <path fill="#f0a732" d="M7 12h2v-2H7zm1.5-3h-1L7 4h2z"/>
</svg>
