<!-- Copyright © 2000–2024 JetBrains s.r.o. -->
<svg width="16" height="16" viewBox="0 0 16 16" xmlns="http://www.w3.org/2000/svg">
  <path fill="#afb1b3" d="M8 14c-3.31 0-6-2.69-6-6 0-2.6 1.67-4.9 4.14-5.7l-.31-.95A7.026 7.026 0 0 0 .99 8c0 3.84 3.13 7 7 7 .76 0 1.48-.12 2.16-.35l-.31-.95c-.6.2-1.22.29-1.85.3" opacity=".7" style="isolation:isolate"/>
  <path fill="#499c54" d="M8 1v1.5c3.04 0 5.5 2.46 5.5 5.5 0 1.76-.84 3.41-2.27 4.44l.88 1.21A6.997 6.997 0 0 0 15 7.99c0-3.87-3.16-7-7-7"/>
  <path fill="#499c54" d="M6.4 11h2l3.22-6.44c-.42-.44-.92-.8-1.47-1.06L7.4 9l-1-2h-2z"/>
</svg>
