<svg width="21" height="21" viewBox="0 0 21 21" xmlns="http://www.w3.org/2000/svg">
  <path fill="#242424" d="M20 10.5a9.5 9.5 0 0 1-9.5 9.5A9.5 9.5 0 0 1 1 10.5 9.5 9.5 0 0 1 10.5 1a9.5 9.5 0 0 1 9.5 9.5Z"/>
  <path fill="#292929" d="M19 10.5a8.5 8.5 0 1 1-17 0 8.5 8.5 0 0 1 17 0Z"/>
  <path fill="#292929" d="M18 10.5c0 4.143-3.357 7.5-7.5 7.5A7.499 7.499 0 0 1 3 10.5C3 6.357 6.357 3 10.5 3S18 6.357 18 10.5Z"/>
  <path fill="#313131" d="m10.5 10.499-.001.001h.001v-.001Zm0 0v.001-.001Z"/>
  <path fill="#FFCA01" d="m10.5 10.499 4.404-6.062A7.46 7.46 0 0 0 10.5 3v7.499Z"/>
  <path d="M15 10.5a4.5 4.5 0 1 1-9 0 4.5 4.5 0 0 1 9 0Z"/>
  <path fill="#FFCA01" d="M11.5 12h-2v2h2m0-3h-2V6.5h2V11Z"/>
</svg>
