<svg width="21" height="21" viewBox="0 0 21 21" xmlns="http://www.w3.org/2000/svg">
  <linearGradient id="a" x1=".5" x2=".5" y1=".004" y2="1">
    <stop offset="0" stop-color="#873E3E"/>
    <stop offset="1" stop-color="#3F1D1D"/>
  </linearGradient>
  <path fill="url(#a)" d="M1 10.5a9.5 9.5 0 0 0 9.5 9.5 9.5 9.5 0 0 0 9.5-9.5A9.5 9.5 0 0 0 10.5 1 9.5 9.5 0 0 0 1 10.5Z"/>
  <linearGradient id="b" x1=".5" x2=".5" y1="0" y2="1.005">
    <stop offset="0" stop-color="#FFF"/>
    <stop offset="1" stop-color="#FFE6E9"/>
  </linearGradient>
  <path fill="url(#b)" d="M2 10.5a8.5 8.5 0 0 0 8.5 8.5 8.5 8.5 0 0 0 8.5-8.5A8.5 8.5 0 0 0 10.5 2 8.5 8.5 0 0 0 2 10.5Z"/>
  <linearGradient id="c" x1=".5" x2=".5" y1=".011" y2="1.006">
    <stop offset="0" stop-color="#FFD9D9"/>
    <stop offset="1" stop-color="#FFF"/>
  </linearGradient>
  <path fill="url(#c)" d="M3 10.5c0 4.143 3.357 7.5 7.5 7.5s7.5-3.357 7.5-7.5A7.5 7.5 0 0 0 10.5 3 7.5 7.5 0 0 0 3 10.5Z"/>
  <linearGradient id="d" x1=".5" x2=".5" y1="0" y2="1.004">
    <stop offset="0" stop-color="#C00"/>
    <stop offset="1" stop-color="#FF5F3F"/>
  </linearGradient>
  <path fill="url(#d)" d="M10.5 10.499 6.096 4.438A7.491 7.491 0 0 0 3 10.5a7.504 7.504 0 0 0 3.096 6.062A7.452 7.452 0 0 0 10.5 18a7.45 7.45 0 0 0 4.404-1.438 7.51 7.51 0 0 0 2.727-3.744A7.5 7.5 0 0 0 18 10.5c0-.81-.132-1.588-.369-2.318a7.511 7.511 0 0 0-2.727-3.744A7.455 7.455 0 0 0 10.5 3v7.499Z"/>
  <linearGradient id="e" x1=".5" x2=".5" y1=".011" y2="1.006">
    <stop offset="0" stop-color="#FFF"/>
    <stop offset="1" stop-color="#FFB5B5"/>
  </linearGradient>
  <path fill="url(#e)" d="M6 10.5a4.5 4.5 0 1 0 9 0 4.501 4.501 0 0 0-9 0Z"/>
  <path fill="#E51300" d="M13 12H8V9h5v3Z"/>
</svg>
