<!-- Copyright © 2000–2024 JetBrains s.r.o. -->
<svg width="16" height="16" viewBox="0 0 16 16" xmlns="http://www.w3.org/2000/svg">
  <path fill="none" stroke="#D6AE58" stroke-linecap="round" stroke-linejoin="round" d="M2 5.5c.98-2.35 3.3-4 6-4 3.42 0 6.23 2.64 6.48 6m-.48 3c-.98 2.35-3.3 4-6 4-3.42 0-6.23-2.64-6.48-6"/>
  <path fill="none" stroke="#D6AE58" stroke-linecap="round" stroke-linejoin="round" d="M1.5 2.5v3h3m10 8v-3h-3"/>
  <path fill="none" stroke="#D6AE58" stroke-miterlimit="10" d="M8 11.5a.5.5 0 1 0 0-1 .5.5 0 0 0 0 1Z"/>
  <path fill="none" stroke="#D6AE58" stroke-linecap="round" stroke-linejoin="round" d="M9 5s0 .1-.01.14l-.5 3.43A.48.48 0 0 1 8 9a.48.48 0 0 1-.49-.43l-.5-3.43S7 5.05 7 5c0-.55.45-1 1-1s1 .45 1 1" clip-rule="evenodd"/>
</svg>
