<!-- Copyright © 2000–2024 JetBrains s.r.o. -->
<svg width="16" height="16" viewBox="0 0 16 16" xmlns="http://www.w3.org/2000/svg">
  <path fill="none" stroke="#CED0D6" stroke-linecap="round" stroke-miterlimit="10" d="M11.5 5.54V4c0-1.38-2.01-2.5-4.5-2.5S2.5 2.62 2.5 4v6c0 1.29 1.75 2.35 4 2.48"/>
  <path fill="none" stroke="#CED0D6" stroke-linecap="round" stroke-miterlimit="10" d="M11.5 4c0 1.38-2.01 2.5-4.5 2.5S2.5 5.38 2.5 4m4.77 5.5H7C4.51 9.5 2.5 8.38 2.5 7m8 3.5V9c0-.83.67-1.5 1.5-1.5s1.5.67 1.5 1.5v1.5m1 0h-5a1 1 0 0 0-1 1v3a1 1 0 0 0 1 1h5a1 1 0 0 0 1-1v-3a1 1 0 0 0-1-1Zm-2.5 2v1"/>
</svg>
