<!-- Copyright © 2000–2024 JetBrains s.r.o. -->
<svg width="16" height="16" viewBox="0 0 16 16" xmlns="http://www.w3.org/2000/svg">
  <ellipse cx="6.5" cy="3.5" fill="#afb1b3" rx="4.5" ry="2.5"/>
  <path fill="#afb1b3" d="M7 9.97c-.17.01-.33.03-.5.03C4.01 10 2 8.88 2 7.5v2C2 10.88 4.01 12 6.5 12c.17 0 .33-.02.5-.03z"/>
  <path fill="#afb1b3" d="M6.5 9c.53 0 1.03-.06 1.5-.15V8.5c0-.65.19-1.25.5-1.77-.6.17-1.28.27-2 .27C4.01 7 2 5.88 2 4.5v2C2 7.88 4.01 9 6.5 9m7.5 1V8.5a2.5 2.5 0 0 0-5 0V10H8v6h7v-6zm-4-1.5c0-.83.67-1.5 1.5-1.5s1.5.67 1.5 1.5V10h-3z"/>
</svg>
