<!-- Copyright © 2000–2024 JetBrains s.r.o. -->
<svg width="16" height="16" viewBox="0 0 16 16" xmlns="http://www.w3.org/2000/svg">
  <path fill="#6e6e6e" d="m14.47 5.32-.92.38a5.998 5.998 0 0 1-9.78 6.54l-.71.71a6.998 6.998 0 0 0 11.42-7.62ZM1.53 10.68c-1.48-3.57.22-7.67 3.79-9.15C6.17 1.18 7.08 1 8 1c1.93 0 3.68.78 4.95 2.05l-.71.71c-2.34-2.34-6.14-2.34-8.49 0a5.994 5.994 0 0 0-1.3 6.54l-.92.38Z" opacity=".7" style="isolation:isolate"/>
  <path fill="#389fd6" d="m7 8.5 3.79 2.85 1.2-1.6L9 7.5V3.1c-.66-.14-1.34-.14-2 0zm4.89-4.39L13.3 2.7c-.7-.7-1.52-1.25-2.43-1.63l-.77 1.85c.67.28 1.27.68 1.78 1.19ZM5.9 13.08l-.77 1.85c-.91-.38-1.74-.93-2.43-1.63l1.41-1.41c.51.51 1.12.92 1.78 1.19Z"/>
</svg>
