<!-- Copyright © 2000–2024 JetBrains s.r.o. -->
<svg width="16" height="16" viewBox="0 0 16 16" xmlns="http://www.w3.org/2000/svg">
  <path fill="#6e6e6e" d="M10.3 13.54c-3.06 1.27-6.57-.19-7.84-3.25a5.994 5.994 0 0 1 1.3-6.54l-.71-.71a7.007 7.007 0 0 0 0 9.9c2 2 5.01 2.6 7.63 1.52l-.38-.92ZM5.32 1.53c3.57-1.48 7.67.21 9.15 3.78.35.85.53 1.76.53 2.68 0 1.86-.74 3.64-2.05 4.95l-.71-.71c2.34-2.34 2.35-6.14 0-8.48a6.007 6.007 0 0 0-6.55-1.3l-.38-.92Z" opacity=".7" style="isolation:isolate"/>
  <path fill="#389fd6" d="m7 8.5 3.79 2.85 1.2-1.6L9 7.5V3.1c-.66-.14-1.34-.14-2 0zm4.89 3.39 1.41 1.41c.7-.7 1.25-1.52 1.62-2.43l-1.85-.77c-.28.67-.68 1.27-1.19 1.78ZM2.92 5.9l-1.85-.77C1.45 4.22 2 3.39 2.7 2.7l1.41 1.41c-.51.51-.92 1.12-1.19 1.78Z"/>
</svg>
