<!-- Copyright © 2000–2024 JetBrains s.r.o. -->
<svg width="16" height="16" viewBox="0 0 16 16" xmlns="http://www.w3.org/2000/svg">
  <path fill="#6e6e6e" d="m10.68 1.53-.38.92a6 6 0 0 1 3.25 7.84A6 6 0 0 1 8 14v1c3.87 0 7-3.13 7-7a7.02 7.02 0 0 0-4.32-6.47ZM5.32 14.47C1.75 12.99.05 8.89 1.53 5.32A7.02 7.02 0 0 1 8 1v1C4.69 2 2 4.69 2 8c0 2.43 1.46 4.61 3.7 5.54l-.38.92Z" opacity=".7" style="isolation:isolate"/>
  <path fill="#389fd6" d="m7 8.5 3.79 2.85 1.2-1.6L9 7.5V3.1c-.66-.14-1.34-.14-2 0zm1-6v-2c-.98 0-1.96.19-2.87.57l.77 1.85A5.43 5.43 0 0 1 8 2.5m2.1 10.58.77 1.85c-.91.38-1.89.57-2.87.57v-2c.75 0 1.46-.15 2.1-.42"/>
</svg>
