<!-- Copyright © 2000–2024 JetBrains s.r.o. -->
<svg width="16" height="16" viewBox="0 0 16 16" xmlns="http://www.w3.org/2000/svg">
  <path fill="#afb1b3" d="M13.54 10.3a6.011 6.011 0 0 1-7.84 3.25A6.003 6.003 0 0 1 2 8.01H1c0 3.87 3.13 7 7 7a7.02 7.02 0 0 0 6.47-4.32l-.92-.38ZM1.53 5.32C3.01 1.75 7.11.05 10.68 1.53A6.994 6.994 0 0 1 15 8h-1c0-3.31-2.69-6-6-6-2.43 0-4.61 1.46-5.54 3.7l-.92-.38Z" opacity=".7" style="isolation:isolate"/>
  <path fill="#3592c4" d="m7 8.5 3.79 2.85 1.2-1.6L9 7.5V3.1c-.66-.14-1.34-.14-2 0zM2.5 8h-2c0 1.02.2 1.99.57 2.87l1.85-.77A5.43 5.43 0 0 1 2.5 8m10.58-2.1 1.85-.77c.37.88.57 1.85.57 2.87h-2c0-.75-.15-1.46-.42-2.1"/>
</svg>
