<svg width="21" height="21" viewBox="0 0 21 21" xmlns="http://www.w3.org/2000/svg">
  <linearGradient id="a" x1=".5" x2=".5" y1=".004" y2="1">
    <stop offset="0" stop-color="#873E3E"/>
    <stop offset="1" stop-color="#3F1D1D"/>
  </linearGradient>
  <path fill="url(#a)" d="M1 10.5a9.5 9.5 0 0 0 9.5 9.5 9.5 9.5 0 0 0 9.5-9.5A9.5 9.5 0 0 0 10.5 1 9.5 9.5 0 0 0 1 10.5Z"/>
  <linearGradient id="b" x1=".5" x2=".5" y1="0" y2="1.005">
    <stop offset="0" stop-color="#FFDEE2"/>
    <stop offset="1" stop-color="#F04E62"/>
  </linearGradient>
  <path fill="url(#b)" d="M2 10.5a8.5 8.5 0 0 0 8.5 8.5 8.5 8.5 0 0 0 8.5-8.5A8.5 8.5 0 0 0 10.5 2 8.5 8.5 0 0 0 2 10.5Z"/>
  <linearGradient id="c" x1=".5" x2=".5" y1=".011" y2="1.006">
    <stop offset="0" stop-color="#FF8C74"/>
    <stop offset="1" stop-color="red"/>
  </linearGradient>
  <path fill="url(#c)" d="M3 10.5c0 4.143 3.357 7.5 7.5 7.5a7.5 7.5 0 0 0 7.5-7.5A7.5 7.5 0 0 0 10.5 3 7.499 7.499 0 0 0 3 10.5Z"/>
  <path fill="#FFF" d="M15 12H6V9h9v3Z"/>
</svg>
