<!-- Copyright © 2000–2024 JetBrains s.r.o. -->
<svg width="16" height="16" viewBox="0 0 16 16" xmlns="http://www.w3.org/2000/svg">
  <path fill="none" stroke="#C27D04" stroke-linecap="round" stroke-linejoin="round" d="M8 14.5a6.5 6.5 0 1 0 0-13 6.5 6.5 0 0 0 0 13"/>
  <path fill="none" stroke="#C27D04" stroke-miterlimit="10" d="M8 11.5a.5.5 0 1 0 0-1 .5.5 0 0 0 0 1Z"/>
  <path fill="none" stroke="#C27D04" stroke-linecap="round" stroke-linejoin="round" d="M9 5s0 .1-.01.14l-.5 3.43A.48.48 0 0 1 8 9a.48.48 0 0 1-.49-.43l-.5-3.43S7 5.05 7 5c0-.55.45-1 1-1s1 .45 1 1" clip-rule="evenodd"/>
</svg>
