<svg width="21" height="21" viewBox="0 0 21 21" xmlns="http://www.w3.org/2000/svg">
  <linearGradient id="a" x1=".5" x2=".5" y1=".008" y2="1.004">
    <stop offset="0" stop-color="#956B00"/>
    <stop offset="1" stop-color="#7C4300"/>
  </linearGradient>
  <path fill="url(#a)" d="M1 10.5a9.5 9.5 0 0 0 9.5 9.5 9.5 9.5 0 0 0 9.5-9.5A9.5 9.5 0 0 0 10.5 1 9.5 9.5 0 0 0 1 10.5Z"/>
  <linearGradient id="b" x1=".5" x2=".5" y1="0" y2="1.005">
    <stop offset="0" stop-color="#FFE6B5"/>
    <stop offset="1" stop-color="#FFBF69"/>
  </linearGradient>
  <path fill="url(#b)" d="M2 10.5a8.5 8.5 0 1 0 17 0C19 5.804 15.195 2 10.5 2A8.499 8.499 0 0 0 2 10.5Z"/>
  <linearGradient id="c" x1=".5" x2=".5" y1="0" y2="1.006">
    <stop offset="0" stop-color="#FFBA00"/>
    <stop offset="1" stop-color="#FF9000"/>
  </linearGradient>
  <path fill="url(#c)" d="M3 10.5a7.5 7.5 0 0 0 7.5 7.5 7.5 7.5 0 0 0 7.5-7.5A7.5 7.5 0 0 0 10.5 3 7.5 7.5 0 0 0 3 10.5Z"/>
  <path fill="#FFF" d="M12 13H9v3h3m0-4.5H9V5h3v6.5Z"/>
</svg>
