<!-- Copyright © 2000–2024 JetBrains s.r.o. -->
<svg width="16" height="16" viewBox="0 0 16 16" xmlns="http://www.w3.org/2000/svg">
  <path fill="#afb1b3" d="M7.1 9.74 9.74 7.1c.33.71.23 1.57-.32 2.17-.6.67-1.55.83-2.32.47M4.54 8.45c-.02-.15-.04-.3-.04-.45 0-1.93 1.57-3.5 3.5-3.5.15 0 .3.02.45.04l1.31-1.31a7.38 7.38 0 0 0-1.75-.24 7.543 7.543 0 0 0-7 5c.35.91.86 1.75 1.52 2.48l2.03-2.03Zm7.8-3.94-1.5 1.5c.92 1.4.74 3.29-.52 4.48a3.488 3.488 0 0 1-4.31.36L4.7 12.16c1.02.54 2.15.84 3.31.84a7.543 7.543 0 0 0 7-5 7.78 7.78 0 0 0-2.66-3.49Z"/>
  <path fill="#c75450" d="M2 13.155 13.151 2.004l.849.848L2.849 14.003z"/>
</svg>
