<!-- Copyright © 2000–2024 JetBrains s.r.o. -->
<svg width="16" height="16" viewBox="0 0 16 16" xmlns="http://www.w3.org/2000/svg">
  <path fill="#9aa7b0" d="M14 8c0 3.31-2.68 6-6 6-3.31 0-6-2.68-6-6 0-2.6 1.67-4.9 4.15-5.71l-.31-.95C3 2.26 1 4.94 1 8c0 3.84 3.13 7 7 7s7-3.15 7-7z" opacity=".7" style="isolation:isolate"/>
  <path fill="#3592c4" d="m13.23 6.3 1.43-.46C13.76 3.05 11.11 1 8.01 1v1.5c2.38 0 4.49 1.54 5.23 3.8"/>
  <path fill="#3592c4" d="m7 8.5 3.79 2.85 1.2-1.6L9 7.5V3.1c-.66-.14-1.34-.14-2 0z"/>
</svg>
