<!-- Copyright © 2000–2024 JetBrains s.r.o. -->
<svg width="16" height="16" viewBox="0 0 16 16" xmlns="http://www.w3.org/2000/svg">
  <path fill="#9aa7b0" d="m6.15 2.3-.31-.95A7.026 7.026 0 0 0 1 8h1c0-2.6 1.67-4.9 4.15-5.7" opacity=".7" style="isolation:isolate"/>
  <path fill="#3592c4" d="M8 1v1.5c3.04 0 5.5 2.46 5.5 5.5s-2.46 5.5-5.5 5.5a5.49 5.49 0 0 1-5.23-3.8l-1.43.46A7.03 7.03 0 0 0 8 15c3.85 0 7-3.15 7-7s-3.15-7-7-7"/>
  <path fill="#3592c4" d="m7 8.5 3.79 2.85 1.2-1.6L9 7.5V3.1c-.66-.14-1.34-.14-2 0z"/>
</svg>
