<!-- Copyright © 2000–2024 JetBrains s.r.o. -->
<svg width="16" height="16" viewBox="0 0 16 16" xmlns="http://www.w3.org/2000/svg">
  <path fill="#6e6e6e" d="M8 14c-3.31 0-6-2.69-6-6 0-2.6 1.67-4.9 4.14-5.7l-.31-.95C2.99 2.27.99 4.95.99 8.01c0 3.84 3.13 7 7 7 .76 0 1.48-.12 2.16-.34l-.31-.95c-.6.2-1.22.29-1.85.3" opacity=".7" style="isolation:isolate"/>
  <path fill="#389fd6" d="M8 1v1.5c3.04 0 5.5 2.46 5.5 5.5 0 1.83-.9 3.44-2.27 4.44l.88 1.21A7.011 7.011 0 0 0 15 7.99c0-3.87-3.16-7-7-7"/>
  <path fill="#389fd6" d="m7 8.5 3.79 2.85 1.2-1.6L9 7.5V3.1c-.66-.14-1.34-.14-2 0z"/>
</svg>
