<!-- Copyright © 2000–2024 JetBrains s.r.o. -->
<svg width="16" height="16" viewBox="0 0 16 16" xmlns="http://www.w3.org/2000/svg">
  <path fill="#6e6e6e" d="m13.66 3.89-.81.59A5.952 5.952 0 0 1 14 8c0 3.31-2.68 6-6 6-3.31 0-6-2.68-6-6 0-2.6 1.67-4.9 4.15-5.71l-.31-.95A7.026 7.026 0 0 0 1 7.99c0 3.84 3.13 7 7 7s7-3.14 7-7c0-1.48-.47-2.92-1.34-4.11" opacity=".7" style="isolation:isolate"/>
  <path fill="#389fd6" d="M12.11 2.34A6.965 6.965 0 0 0 8 1v1.5c1.16 0 2.29.37 3.23 1.05zM7 8.5l3.79 2.85 1.2-1.6L9 7.5V3.1c-.66-.14-1.34-.14-2 0z"/>
</svg>
