<!-- Copyright © 2000–2024 JetBrains s.r.o. -->
<svg width="16" height="16" viewBox="0 0 16 16" xmlns="http://www.w3.org/2000/svg">
  <path fill="#afb1b3" d="m10.75 4.84.62-1.78c1.4.95 2.33 2.44 2.57 4.11l-1.86-.16c-.21-.84-.67-1.6-1.33-2.16ZM9.39 8.77 9.31 9h-.05v.03l1.83 1.82a4.192 4.192 0 0 1-5.93.24A4.26 4.26 0 0 1 3.9 8.9l-1.86-.16a5.998 5.998 0 0 0 10.32 3.39l1.65 1.65v-5H9.39Zm-2.77-1.9L4.91 5.16c.58-.62 1.32-1.05 2.15-1.23l.28-1.88c-1.41.15-2.72.8-3.7 1.83L1.99 2.24v5h4.57z"/>
  <path fill="#c75450" d="M8.5 9.95c0 .15-.03.29-.08.43-.05.12-.13.23-.22.33-.09.09-.21.17-.33.22-.13.05-.27.08-.41.08a.986.986 0 0 1-.69-.27.937.937 0 0 1-.27-.67c0-.15.03-.3.08-.43.05-.12.12-.24.21-.33.09-.09.21-.16.33-.21.13-.05.27-.08.42-.08.13 0 .26.02.38.07.23.09.41.27.5.5.05.12.08.25.07.38ZM8.6 8H7.46l1.05-7h2.52L8.61 8Z"/>
</svg>
