<!-- Copyright © 2000–2024 JetBrains s.r.o. -->
<svg width="16" height="16" viewBox="0 0 16 16" xmlns="http://www.w3.org/2000/svg">
  <path fill="none" stroke="#CED0D6" stroke-linecap="round" d="M2.5 9V8A5.497 5.497 0 0 1 11 3.39m-6 9.22A5.497 5.497 0 0 0 13.5 8V7"/>
  <path fill="none" stroke="#CED0D6" stroke-linecap="round" d="m.5 7.5 2 2 2-2m7 1 2-2 2 2"/>
  <path fill="#CED0D6" d="M8 12a1 1 0 1 0 0-2 1 1 0 0 0 0 2"/>
  <path fill="none" stroke="#CED0D6" stroke-linecap="round" d="M8.9 5.4v.13l-.45 3.09c-.03.22-.21.39-.44.39s-.41-.16-.44-.39l-.45-3.09V5.4c0-.49.4-.9.9-.9s.9.41.9.9z" clip-rule="evenodd"/>
</svg>
