<!-- Copyright © 2000–2024 JetBrains s.r.o. -->
<svg width="16" height="16" viewBox="0 0 16 16" xmlns="http://www.w3.org/2000/svg">
  <path fill="#EBECF0" fill-rule="evenodd" stroke="#6C707E" stroke-linecap="round" stroke-linejoin="round" d="M6.5 10.03v2.47c0 1.1.9 2 2 2s2-.9 2-2v-2.47C11.98 9.29 13 7.76 13 6c0-2.49-2.01-4.5-4.5-4.5S4 3.51 4 6c0 1.77 1.02 3.3 2.5 4.03" clip-rule="evenodd"/>
  <path fill="none" stroke="#6C707E" stroke-linecap="round" stroke-linejoin="round" d="m7 11.38 3-.75m-3 2.5 3-.75M9.5 6.5c0 .55-.45 1-1 1s-1-.45-1-1m1 1V9"/>
</svg>
