<svg width="16" height="16" viewBox="0 0 16 16" xmlns="http://www.w3.org/2000/svg">
  <path fill="none" stroke="#6C707E" stroke-linecap="round" stroke-linejoin="round" d="M13.12 8.65c-.24-.4-.24-.9 0-1.3l.9-1.52c.04-.07.05-.14.02-.2a6.34 6.34 0 0 0-.97-1.67.24.24 0 0 0-.19-.08l-1.78.02c-.46 0-.89-.25-1.11-.65l-.87-1.54a.232.232 0 0 0-.16-.12c-.32-.05-.64-.07-.97-.07-.33 0-.65.02-.97.07-.06 0-.12.06-.16.12l-.87 1.54c-.22.4-.65.65-1.13.65l-1.77-.02a.24.24 0 0 0-.19.08c-.4.51-.73 1.07-.97 1.67-.02.06-.01.13.03.2l.9 1.52c.24.4.24.9 0 1.3l-.9 1.52c-.04.07-.05.14-.02.2.24.6.56 1.17.97 1.67.04.05.11.08.19.08l1.78-.02c.46 0 .89.25 1.11.65l.87 1.54c.04.07.1.11.16.12.32.05.64.07.97.07.33 0 .65-.02.97-.07.06 0 .12-.06.16-.12l.87-1.54c.22-.4.65-.65 1.13-.65l1.77.02c.08 0 .15-.03.19-.08.4-.51.73-1.07.97-1.67a.24.24 0 0 0-.03-.2l-.9-1.52M8 10.5a2.5 2.5 0 0 1 0-5 2.5 2.5 0 0 1 0 5" clip-rule="evenodd"/>
</svg>
