<!-- Copyright © 2000–2024 JetBrains s.r.o. -->
<svg width="16" height="16" viewBox="0 0 16 16" xmlns="http://www.w3.org/2000/svg">
  <path fill="#6e6e6e" d="M13.4 10.8 10 6V2h.5c.28 0 .5-.22.5-.5s-.22-.5-.5-.5h-5c-.28 0-.5.22-.5.5s.22.5.5.5H6v4l-3.4 4.8c-.39.56-.6 1.22-.6 1.9-.06 1.21.87 2.24 2.08 2.3h7.73c1.21 0 2.19-.98 2.19-2.19v-.11c0-.68-.21-1.34-.6-1.9M6.1 9l-1.68 2.37c-.27.39-.42.86-.42 1.33-.05.67.46 1.25 1.13 1.3h.07-1c-.67 0-1.21-.56-1.2-1.23v-.07c0-.48.15-.94.42-1.33L7 6.32V2h2v4.32L10.9 9z"/>
</svg>
