<svg width="16" height="16" viewBox="0 0 16 16" fill="none" xmlns="http://www.w3.org/2000/svg">
<path fill-rule="evenodd" clip-rule="evenodd" d="M14.1667 12.5897C13.8417 12.4486 13.6052 12.1675 13.5356 11.8616C13.7097 11.744 13.9251 11.681 14.1378 11.6853C14.2652 11.6876 14.3932 11.7132 14.5149 11.7661C14.6078 11.8132 14.6978 11.8573 14.7907 11.9279C15.1158 12.1632 14.9112 12.6869 14.4932 12.6633C14.3772 12.6633 14.2828 12.6368 14.1667 12.5897ZM12.9112 13.3913C12.7719 13.0619 12.8198 12.7088 13.0055 12.4499C13.3306 12.5206 13.6279 12.731 13.7673 13.0604C13.8138 13.1545 13.8399 13.2751 13.8399 13.3694C13.8631 13.7222 13.3263 13.9311 13.0709 13.6487C13.0011 13.5782 12.9577 13.4854 12.9112 13.3913ZM13.0269 9.25104C13.1227 9.13633 13.2597 9.09044 13.3896 9.10401C13.6065 9.12637 13.8105 9.30256 13.796 9.55248C13.796 9.6467 13.7699 9.76733 13.7234 9.86141C13.5842 10.1908 13.3084 10.4011 12.9835 10.4718C12.7745 10.2129 12.728 9.85982 12.8673 9.5304C12.9137 9.43632 12.9574 9.34512 13.0269 9.25104ZM12.077 13.6487C11.8447 13.9546 11.3064 13.7399 11.3297 13.3398C11.3297 13.2457 11.3558 13.1324 11.4022 13.0383C11.5415 12.7088 11.8171 12.4985 12.1422 12.428C12.3279 12.7104 12.3759 13.0633 12.2366 13.3694C12.1902 13.4634 12.1465 13.5546 12.077 13.6487ZM10.6329 12.6853C10.215 12.7088 10.0119 12.216 10.3137 11.9573C10.3833 11.8867 10.4733 11.8352 10.5895 11.7882C10.7114 11.7352 10.8391 11.7098 10.9666 11.7072C11.1782 11.7035 11.3857 11.7649 11.5616 11.8838C11.5152 12.1897 11.2845 12.4705 10.9595 12.6118C10.8665 12.6588 10.7491 12.6853 10.6329 12.6853ZM10.6332 10.2585C10.7493 10.2585 10.8436 10.2851 10.9597 10.3321C11.2847 10.4732 11.5213 10.7543 11.5908 11.0602C11.3123 11.2484 10.9364 11.2968 10.6115 11.1557C10.5186 11.1087 10.4285 11.0572 10.3357 10.9866C10.031 10.7439 10.1946 10.2776 10.5607 10.2585C10.5851 10.2572 10.6071 10.2555 10.6332 10.2585ZM12.0552 9.27312C12.1249 9.34368 12.1684 9.43632 12.2148 9.5304C12.3541 9.85982 12.3063 10.2131 12.1204 10.4718C11.7955 10.4011 11.498 10.1908 11.3587 9.86141C11.3122 9.76733 11.2862 9.6467 11.2862 9.55248C11.2862 9.31727 11.4878 9.14643 11.6997 9.12594C11.8269 9.11368 11.9594 9.15841 12.0552 9.27312ZM12.5364 8C10.5818 8 9 9.57834 9 11.5286C9 13.2457 10.2336 14.6724 11.8615 14.9898V16C13.9779 15.6816 15.8518 14.0053 15.9917 11.8048C16.1315 9.60429 14.4909 8 12.5364 8Z" fill="#57965C"/>
<path d="M12 2C13.1046 2 14 2.89543 14 4V7.24512C13.5395 7.0863 13.0467 7 12.5361 7C10.0315 7.00012 8.00015 9.02392 8 11.5283C8 12.4429 8.27382 13.2904 8.74023 14H4C2.89543 14 2 13.1046 2 12V4C2 2.89543 2.89543 2 4 2H12Z" fill="#F2C55C"/>
<path d="M7 10.3584C7 10.6804 6.92863 10.9659 6.78613 11.2139C6.64367 11.4616 6.44583 11.6554 6.19238 11.7949C5.93878 11.9317 5.64798 12 5.32031 12H4.21289V11H5.22168C5.37553 11 5.51111 10.9689 5.62793 10.9062C5.74749 10.8408 5.83867 10.7495 5.90137 10.6328C5.96692 10.5131 6 10.3756 6 10.2217V6H7V10.3584Z" fill="#1E1F22"/>
<path d="M10.6748 5.89941C11.0708 5.89947 11.4228 5.97287 11.7305 6.11816C12.0409 6.26346 12.2832 6.46545 12.457 6.72461C12.5157 6.81219 12.5633 6.90494 12.6025 7.00098C12.5804 7.00066 12.5583 7 12.5361 7C12.1904 7.00002 11.8539 7.03923 11.5303 7.1123C11.45 7.01332 11.3481 6.93357 11.2217 6.875C11.0679 6.80378 10.8897 6.76761 10.6875 6.76758C10.4854 6.76758 10.3071 6.80186 10.1533 6.87012C9.99943 6.93851 9.87944 7.03575 9.79395 7.16113C9.70851 7.28643 9.66511 7.43154 9.66504 7.59668C9.66504 7.72705 9.69618 7.84499 9.75293 7.95215C9.47742 8.16605 9.22729 8.41086 9.00781 8.68164C8.9376 8.59493 8.87468 8.50201 8.82324 8.40039C8.70938 8.16684 8.65237 7.91199 8.65234 7.63574C8.65234 7.30514 8.73818 7.00829 8.90918 6.74609C9.08291 6.48136 9.32345 6.27507 9.63086 6.12695C9.93866 5.9759 10.2872 5.89941 10.6748 5.89941Z" fill="#1E1F22"/>
</svg>
