<svg xmlns="http://www.w3.org/2000/svg" width="16" height="16">
  <path d="M10.174,7.557l-.925-.076L5.938,4.171,7.807,2.34,8.951,1.8l.01-.8-3.342.118-.386.155L2.4,4.1a.5.5,0,0,0-.136.456l-.495.176L0,6.506l1.3,1.3a4.952,4.952,0,0,1,2.422-.777,1.418,1.418,0,0,0,.5-1.034L5.482,7.25a4.979,4.979,0,0,1,3.475,4.324L12.383,15,15,12.383Z" fill="#499c54" fill-rule="evenodd"/>
  <path d="M4,9a3,3,0,1,1-3,3A3,3,0,0,1,4,9ZM4,8a4,4,0,1,0,4,4A4,4,0,0,0,4,8Z" fill="#f0a732"/>
  <path fill="#f0a732" d="M3.478 14 2.755 13.306 4.009 12 2.755 10.694 3.478 10 5.397 12 3.478 14z"/>
</svg>
