<svg width="16" height="16" viewBox="0 0 16 16" xmlns="http://www.w3.org/2000/svg">
  <path fill="#499c54" d="m5.621 1.147 3.34-.12-.009.798-1.145.543-1.767 1.72 3.156 3.156.789.082 5.218 5.218-2.475 2.475L7.509 9.8l-.084-.791-3.166-3.166-.107.583-.156.355-1.874 1.874L0 6.534l1.773-1.773.496-.176a.498.498 0 0 1 .136-.455l2.829-2.829.388-.154Z"/>
  <path fill="#afb1b3" d="M5.445 7.926C4.251 9.251.638 9.739.638 12.057c0 .347.11.714.387 1.082 1.654-1.445 2.665-1.268 3.614-2.821.053-.087.123-.027.103.041-.755 2.583-4.689 2.992-4.689 5.173 0 .253.249.403.497.403.558 0 .155-.803 1.339-1.663.529.385 1.064.556 1.572.556 1.652 0 3.028-1.799 3.028-3.891 0-.991-.309-2.048-1.045-3.011Z"/>
</svg>
