<!-- Copyright © 2000–2024 JetBrains s.r.o. -->
<svg width="16" height="16" viewBox="0 0 16 16" xmlns="http://www.w3.org/2000/svg">
  <path fill="#8266e2" d="M9.26 12.33a.976.976 0 0 1-.25-.73c.02-.27.14-.52.34-.69l.75-.66a.99.99 0 0 1 .66-.25c.27 0 .55.11.74.33l1.4 1.56.16-.1c.52-.3.94-1.03.94-1.62V4.83c0-.6-.42-1.33-.94-1.62L8.44.54c-.52-.3-1.36-.3-1.88 0L1.94 3.21C1.42 3.51 1 4.24 1 4.83v5.34c0 .6.42 1.33.94 1.62l4.62 2.67c.52.3 1.36.3 1.88 0l1.8-1.04-.98-1.09Z"/>
  <path fill="none" stroke="#fff" stroke-linecap="round" stroke-linejoin="round" d="M5.5 8.5c0 .55-.45 1-1 1s-1-.45-1-1v-2c0-.55.45-1 1-1s1 .45 1 1m2 0h4m-4 2h4m-1-3v4m-2-4v4"/>
  <path fill="#6c707e" d="m10.75 16-.75-.66 1.65-1.84L10 11.66l.75-.66L13 13.5zM16 15h-3v1h3z"/>
</svg>
