<svg width="16" height="16" viewBox="0 0 16 16" xmlns="http://www.w3.org/2000/svg">
  <path fill="#389fd6" d="M4.01 14.07c.74-2.15 1.96-5.03 3.35-7.89l.4-.82.23.09.82-1.96H3c-.83 0-1.5.67-1.5 1.5v8c0 .83.67 1.5 1.5 1.5h.93c0-.14.02-.29.07-.43Zm7.95-7.14.23.08-.23.88c-.62 2.38-1.32 4.7-2 6.61h1.03c.83 0 1.5-.67 1.5-1.5V5.27l-.54 1.66Z" opacity=".7"/>
  <path fill="#389fd6" d="M3.92 14.57c0-.17.03-.33.08-.49 0-.02.02-.05.03-.07H3c-.55 0-1-.45-1-1V5c0-.55.45-1 1-1h5.59l.34-.82c-.21-.07-.4-.13-.58-.18H3c-1.1 0-2 .9-2 2v8c0 1.1.9 2 2 2h.99c-.04-.14-.07-.28-.07-.43Zm8.71-9.71L12 6.81v.13l.2.07-.2.75V13c0 .55-.45 1-1 1h-.86c-.12.35-.24.68-.35 1H11c1.1 0 2-.9 2-2V5.14c-.14-.07-.26-.17-.37-.28"/>
  <path fill="#6e6e6e" d="m15.68 2.33-1.38-.32a.457.457 0 0 0-.53.29l-.58-.21a.693.693 0 0 0-.41-.89L10.39.32C9.8.09 9.26 0 8.76 0 6.71 0 5.5 1.53 5.5 1.98c0 .12.13.19.23.14 1.03-.57 2.08-.39 3.93.26.32.11.49.48.35.79L8.53 6.73l-.28-.1c-1.24 2.55-2.51 5.47-3.3 7.78-.02.05-.03.11-.03.16 0 .18.1.35.27.41l2.7 1s.09.03.14.03c.18 0 .35-.11.42-.3.9-2.27 1.83-5.32 2.54-8.06l-.28-.1 1.2-3.71c.1-.3.43-.46.73-.35l.61.23c-.08.21.01.45.22.56l1.25.66c.22.11.49.01.57-.22l.68-1.83s.03-.09.03-.14c0-.19-.13-.36-.32-.4Z"/>
</svg>
