<!-- Copyright © 2000–2024 JetBrains s.r.o. -->
<svg width="16" height="16" viewBox="0 0 16 16" xmlns="http://www.w3.org/2000/svg">
  <path fill="#afb1b3" d="M14 8h-.5c0 .34-.04.68-.1 1h-2.44c.02-.33.04-.67.04-1s-.01-.67-.04-1H11V6h-.13c-.09-.71-.24-1.38-.44-2H10c-.3 0-.58-.13-.76-.36.26.61.48 1.4.62 2.36H6.15c.25-1.76.79-2.97 1.33-3.47a4.578 4.578 0 0 1 1.06 0c.17.16.35.4.51.71-.08-.34 0-.69.25-.94l.93-.93C9.53 1.14 8.79 1 8.01 1 4.14 1 1 4.14 1 8s3.14 7 7 7 7-3.14 7-7c0-.26-.02-.52-.05-.77-.1.44-.48.77-.95.77M6 2.88c-.42.85-.71 1.94-.87 3.12H2.88A5.534 5.534 0 0 1 6 2.88M2.5 8c0-.34.04-.68.1-1h2.44c-.02.33-.04.67-.04 1s.01.67.04 1H2.6c-.06-.32-.1-.66-.1-1m.38 2h2.25c.16 1.17.45 2.27.87 3.12A5.505 5.505 0 0 1 2.88 10m5.65 3.47a4.578 4.578 0 0 1-1.06 0c-.54-.5-1.08-1.71-1.33-3.47h3.71c-.25 1.76-.79 2.97-1.33 3.47ZM6.04 9C6.02 8.68 6 8.35 6 8s.02-.68.04-1h3.92c.02.32.04.65.04 1s-.02.68-.04 1zM10 13.12c.42-.85.71-1.94.87-3.12h2.25A5.534 5.534 0 0 1 10 13.12"/>
  <path fill="#3592c4" d="m13 0-3 3h2v4h2V3h2z"/>
</svg>
