<svg xmlns="http://www.w3.org/2000/svg" width="16" height="16">
  <path fill="#3592c4" d="M11.5 0.5L7 5 10 5 10 9 13 9 13 5 16 5 11.5 0.5z"/>
  <path d="M11.9,10H5.046C5.017,9.678,5,9.345,5,9s.017-.678.046-1H9V6H8.56a8.357,8.357,0,0,1,.258,1H5.182a8.376,8.376,0,0,1,.586-1.871,3.563,3.563,0,0,1,.657-.968L7.558,3.028C7.374,3.011,7.188,3,7,3a6,6,0,1,0,5.91,7Zm-6.849-5.6A7.529,7.529,0,0,0,4.161,7H2.422A5.014,5.014,0,0,1,5.051,4.395ZM2.1,8H4.042C4.016,8.325,4,8.657,4,9s.016.675.042,1H2.1A4.989,4.989,0,0,1,2.1,8Zm.322,3H4.161a7.529,7.529,0,0,0,.89,2.605A5.014,5.014,0,0,1,2.422,11ZM7,14c-.707,0-1.475-1.2-1.818-3H8.818C8.475,12.8,7.707,14,7,14Zm1.949-.395A7.529,7.529,0,0,0,9.839,11h1.739A5.014,5.014,0,0,1,8.949,13.605Z" fill="#afb1b3"/>
</svg>
