<svg xmlns="http://www.w3.org/2000/svg" width="16" height="16">
  <path d="M13.4,10.8,10,6V2h.5a.5.5,0,0,0,0-1h-5a.5.5,0,0,0,0,1H6V6L2.6,10.8A3.352,3.352,0,0,0,2,12.7,2.193,2.193,0,0,0,4.083,15q.058,0,.117,0h7.61A2.193,2.193,0,0,0,14,12.807c0-.036,0-.071,0-.107A3.352,3.352,0,0,0,13.4,10.8ZM6.1,9,4.424,11.366A2.358,2.358,0,0,0,4,12.7,1.215,1.215,0,0,0,5.127,14c.022,0,.045,0,.067,0h-1A1.215,1.215,0,0,1,3,12.767c0-.022,0-.045,0-.067a2.355,2.355,0,0,1,.424-1.333L7,6.318V2H9V6.318L10.9,9Z" fill="#afb1b3"/>
</svg>
