<svg width="64" height="64" viewBox="0 0 64 64" fill="none" xmlns="http://www.w3.org/2000/svg">
<path d="M64 56V25.9592C64 24.3301 63.0289 22.8575 61.5319 22.2157L24.0413 6.14767C23.5345 5.93065 22.9882 5.81836 22.4367 5.81836H4.07273C1.82342 5.81836 0 7.64178 0 9.89109V27.8571C0 28.6617 0.238545 29.4483 0.685382 30.118L22.0887 62.1866C22.8439 63.3189 24.1152 63.9984 25.4761 63.9984L55 64.0002C57.2493 64.0002 64 58.2493 64 56Z" fill="url(#paint0_linear_4407_11137)"/>
<path d="M58.1818 14.5193V4.07273C58.1818 1.82342 56.3584 0 54.1091 0H41.0164C40.8239 0 40.6313 0.0139636 40.4404 0.0407273L3.49673 5.3184C1.49004 5.60465 0 7.32334 0 9.34982V25.0228C0 27.2727 1.824 29.0961 4.07389 29.0956L22.6124 29.0909C23.0499 29.0909 23.4845 29.0205 23.8993 28.882L55.3972 18.3825C57.0601 17.8281 58.1818 16.2717 58.1818 14.5187V14.5193Z" fill="url(#paint1_linear_4407_11137)"/>
<path d="M58.1814 15.9476L58.1797 4.07215C58.1797 1.82342 56.3562 0 54.1069 0H42.6003C41.4117 0 40.2818 0.519564 39.508 1.42196L6.79872 39.5834C6.16629 40.3217 5.81836 41.262 5.81836 42.2342V54.1097C5.81836 56.359 7.64178 58.1824 9.89109 58.1824H21.3994C22.5881 58.1824 23.718 57.6628 24.4918 56.7604L57.201 18.599C57.8341 17.8607 58.1814 16.9204 58.1814 15.9476Z" fill="#00D980"/>
<path d="M52 12H12V52H52V12Z" fill="black"/>
<path d="M23.9358 32.1654C22.5066 32.1654 21.2124 31.8305 20.0529 31.1625C18.8941 30.4865 17.9838 29.5625 17.3221 28.3894C16.6609 27.2094 16.3301 25.8934 16.3301 24.4425C16.3301 22.9916 16.6609 21.6796 17.3221 20.5065C17.9832 19.3265 18.8935 18.4014 20.0529 17.7334C21.2118 17.0574 22.5061 16.7202 23.9358 16.7202C25.1444 16.7202 26.2541 16.9442 27.2638 17.3922C28.2735 17.8402 29.1124 18.4694 29.7809 19.2802C30.4564 20.0842 30.9078 21.0082 31.1358 22.0534H28.0849C27.8855 21.5134 27.5872 21.0402 27.1889 20.6345C26.7975 20.2225 26.3249 19.9054 25.7701 19.6854C25.2152 19.4654 24.6106 19.3545 23.9569 19.3545C23.0752 19.3545 22.2786 19.5745 21.5678 20.0156C20.8569 20.4568 20.2986 21.0648 19.8929 21.8396C19.4946 22.6076 19.2958 23.4756 19.2958 24.4425C19.2958 25.4094 19.4946 26.2814 19.8929 27.0556C20.2981 27.8236 20.8564 28.4276 21.5678 28.8688C22.2786 29.3099 23.0752 29.5299 23.9569 29.5299C24.6112 29.5299 25.2158 29.4191 25.7701 29.1991C26.3249 28.9791 26.7975 28.6659 27.1889 28.2602C27.5872 27.8482 27.8855 27.3711 28.0849 26.8311H31.1358C30.9084 27.8762 30.4564 28.8042 29.7809 29.6151C29.1124 30.4191 28.2735 31.0442 27.2638 31.4922C26.2541 31.9402 25.1444 32.1642 23.9358 32.1642V32.1654ZM36.1306 16.9756V29.2848H43.2135V31.9088H33.2295V16.9756H36.1306Z" fill="white"/>
<path d="M33 44H17V47H33V44Z" fill="white"/>
<rect y="44" width="63.9994" height="20" rx="7" fill="#22D789"/>
<g opacity="0.9">
<path d="M5.49219 57.9434H7.20466V55.5672H8.50569C10.2515 55.5672 11.6526 54.6167 11.6526 52.7836V52.761C11.6526 51.1429 10.5295 50.0226 8.67249 50.0226H5.49219V57.9434ZM7.20466 54.017V51.5955H8.52793C9.38416 51.5955 9.91792 52.0141 9.91792 52.7949V52.8175C9.91792 53.4965 9.41752 54.017 8.56129 54.017H7.20466Z" fill="#010101"/>
<path d="M12.92 57.9434H14.6324V55.4088H15.9779L17.6459 57.9434H19.6475L17.746 55.1146C18.7357 54.7412 19.414 53.9378 19.414 52.6591V52.6365C19.414 51.8897 19.1805 51.2673 18.7468 50.826C18.2353 50.3055 17.468 50.0226 16.4783 50.0226H12.92V57.9434ZM14.6324 53.8699V51.5955H16.3338C17.1678 51.5955 17.6793 51.9802 17.6793 52.727V52.7496C17.6793 53.4173 17.2011 53.8699 16.3671 53.8699H14.6324Z" fill="#010101"/>
<path d="M20.9558 57.9434H26.8828V56.3932H22.6572V54.7298H26.3268V53.1796H22.6572V51.5728H26.8272V50.0226H20.9558V57.9434Z" fill="#010101"/>
<path d="M30.8851 58H32.3974L35.5443 50.0226H33.6984L31.6635 55.6011L29.6285 50.0226H27.7381L30.8851 58Z" fill="#010101"/>
<path d="M36.8231 57.9434H38.5356V50.0226H36.8231V57.9434Z" fill="#010101"/>
<path d="M40.4809 57.9434H46.4078V56.3932H42.1822V54.7298H45.8518V53.1796H42.1822V51.5728H46.3522V50.0226H40.4809V57.9434Z" fill="#010101"/>
<path d="M49.9875 58H51.4776L53.2346 52.8175L54.9915 58H56.4816L59.1392 50.0226H57.3489L55.7365 55.3861L53.9907 50H52.5229L50.7771 55.3861L49.1647 50.0226H47.3299L49.9875 58Z" fill="#010101"/>
</g>
<defs>
<linearGradient id="paint0_linear_4407_11137" x1="3.98138" y1="4.22243" x2="62.6868" y2="62.9273" gradientUnits="userSpaceOnUse">
<stop offset="0.29" stop-color="#009AE5"/>
<stop offset="0.7" stop-color="#FF318C"/>
</linearGradient>
<linearGradient id="paint1_linear_4407_11137" x1="56.3788" y1="-0.71738" x2="2.75258" y2="24.1455" gradientUnits="userSpaceOnUse">
<stop offset="0.3" stop-color="#00D980"/>
<stop offset="0.54" stop-color="#009AE5"/>
</linearGradient>
</defs>
</svg>
