<svg width="16" height="16" viewBox="0 0 16 16" fill="none" xmlns="http://www.w3.org/2000/svg">
<g clip-path="url(#clip0_4407_11111)">
<path d="M16 0H0V16H16V0Z" fill="#009AE5"/>
<path d="M15 1H1V15H15V1Z" fill="black"/>
<path d="M8 12H3V13H8V12Z" fill="white"/>
<path d="M5.28407 8.18314C4.78387 8.18314 4.33087 8.06594 3.92507 7.83214C3.51947 7.59554 3.20087 7.27214 2.96927 6.86154C2.73787 6.44854 2.62207 5.98794 2.62207 5.48014C2.62207 4.97234 2.73787 4.51314 2.96927 4.10254C3.20067 3.68954 3.51927 3.36574 3.92507 3.13194C4.33067 2.89534 4.78367 2.77734 5.28407 2.77734C5.70707 2.77734 6.09547 2.85574 6.44887 3.01254C6.80227 3.16934 7.09587 3.38954 7.32987 3.67334C7.56627 3.95474 7.72427 4.27814 7.80407 4.64394H6.73627C6.66647 4.45494 6.56207 4.28934 6.42267 4.14734C6.28567 4.00314 6.12027 3.89214 5.92607 3.81514C5.73187 3.73814 5.52027 3.69934 5.29147 3.69934C4.98287 3.69934 4.70407 3.77634 4.45527 3.93074C4.20647 4.08514 4.01107 4.29794 3.86907 4.56914C3.72967 4.83794 3.66007 5.14174 3.66007 5.48014C3.66007 5.81854 3.72967 6.12374 3.86907 6.39474C4.01087 6.66354 4.20627 6.87494 4.45527 7.02934C4.70407 7.18374 4.98287 7.26074 5.29147 7.26074C5.52047 7.26074 5.73207 7.22194 5.92607 7.14494C6.12027 7.06794 6.28567 6.95834 6.42267 6.81634C6.56207 6.67214 6.66647 6.50514 6.73627 6.31614H7.80407C7.72447 6.68194 7.56627 7.00674 7.32987 7.29054C7.09587 7.57194 6.80227 7.79074 6.44887 7.94754C6.09547 8.10434 5.70707 8.18274 5.28407 8.18274V8.18314ZM9.55227 2.86674V7.17494H12.0313V8.09334H8.53687V2.86674H9.55227Z" fill="white"/>
<rect y="11" width="16" height="5.00005" fill="#22D789"/>
<g opacity="0.9">
<path d="M1 14.8345H1.44689V13.9866H1.78642C2.24202 13.9866 2.60766 13.6474 2.60766 12.9933V12.9852C2.60766 12.4078 2.31457 12.0081 1.82995 12.0081H1V14.8345ZM1.44689 13.4334V12.5693H1.79222C2.01567 12.5693 2.15496 12.7187 2.15496 12.9973V13.0054C2.15496 13.2477 2.02437 13.4334 1.80093 13.4334H1.44689Z" fill="#010101"/>
<path d="M2.93839 14.8345H3.38528V13.9301H3.73641L4.1717 14.8345H4.69404L4.19782 13.8251C4.45609 13.6918 4.6331 13.4052 4.6331 12.9489V12.9408C4.6331 12.6743 4.57216 12.4522 4.45899 12.2948C4.3255 12.109 4.12527 12.0081 3.867 12.0081H2.93839V14.8345ZM3.38528 13.3809V12.5693H3.82927C4.04692 12.5693 4.1804 12.7066 4.1804 12.9731V12.9812C4.1804 13.2194 4.05562 13.3809 3.83798 13.3809H3.38528Z" fill="#010101"/>
<path d="M5.03547 14.8345H6.58219V14.2814H5.47946V13.6878H6.43709V13.1346H5.47946V12.5613H6.56768V12.0081H5.03547V14.8345Z" fill="#010101"/>
<path d="M7.62665 14.8547H8.02131L8.84255 12.0081H8.36083L7.82978 13.9987L7.29873 12.0081H6.80541L7.62665 14.8547Z" fill="#010101"/>
<path d="M9.17627 14.8345H9.62317V12.0081H9.17627V14.8345Z" fill="#010101"/>
<path d="M10.1308 14.8345H11.6775V14.2814H10.5748V13.6878H11.5324V13.1346H10.5748V12.5613H11.663V12.0081H10.1308V14.8345Z" fill="#010101"/>
<path d="M12.6117 14.8547H13.0006L13.4591 13.0054L13.9176 14.8547H14.3064L15 12.0081H14.5328L14.112 13.922L13.6564 12H13.2734L12.8178 13.922L12.397 12.0081H11.9182L12.6117 14.8547Z" fill="#010101"/>
</g>
</g>
<defs>
<clipPath id="clip0_4407_11111">
<rect width="16" height="16" fill="white"/>
</clipPath>
</defs>
</svg>
