<svg width="48" height="48" viewBox="0 0 48 48" fill="none" xmlns="http://www.w3.org/2000/svg">
<path d="M48 43V19.4694C48 18.2476 47.2717 17.1431 46.1489 16.6618L18.031 4.61075C17.6509 4.44799 17.2412 4.36377 16.8275 4.36377H3.05455C1.36756 4.36377 0 5.73133 0 7.41831V20.8928C0 21.4963 0.178909 22.0862 0.514036 22.5885L16.5665 46.64C17.1329 47.4891 18.0864 47.9988 19.1071 47.9988L43 48.0001C44.687 48.0001 48 44.687 48 43Z" fill="url(#paint0_linear_4407_11125)"/>
<path d="M43.6364 10.8895V3.05455C43.6364 1.36756 42.2688 0 40.5818 0H30.7623C30.6179 0 30.4735 0.0104727 30.3303 0.0305455L2.62255 3.9888C1.11753 4.20349 0 5.49251 0 7.01236V18.7671C0 20.4545 1.368 21.8221 3.05542 21.8217L16.9593 21.8182C17.2874 21.8182 17.6134 21.7654 17.9245 21.6615L41.5479 13.7869C42.7951 13.3711 43.6364 12.2038 43.6364 10.889V10.8895Z" fill="url(#paint1_linear_4407_11125)"/>
<path d="M43.6356 11.9607L43.6343 3.05411C43.6343 1.36756 42.2667 0 40.5797 0H31.9498C31.0583 0 30.2108 0.389673 29.6305 1.06647L5.09855 29.6876C4.62423 30.2413 4.36328 30.9465 4.36328 31.6756V40.5823C4.36328 42.2692 5.73084 43.6368 7.41783 43.6368H16.0491C16.9406 43.6368 17.788 43.2471 18.3684 42.5703L42.9003 13.9492C43.3751 13.3955 43.6356 12.6903 43.6356 11.9607Z" fill="#00D980"/>
<path d="M39 9H9V39H39V9Z" fill="black"/>
<path d="M25 33H13V35.0001H25V33Z" fill="white"/>
<path d="M18.1799 24.392C17.108 24.392 16.1373 24.1408 15.2677 23.6398C14.3986 23.1328 13.7159 22.4398 13.2196 21.56C12.7237 20.675 12.4756 19.688 12.4756 18.5998C12.4756 17.5117 12.7237 16.5277 13.2196 15.6478C13.7154 14.7628 14.3982 14.069 15.2677 13.568C16.1369 13.061 17.1076 12.8081 18.1799 12.8081C19.0863 12.8081 19.9186 12.9761 20.6759 13.3121C21.4332 13.6481 22.0623 14.12 22.5637 14.7281C23.0703 15.3311 23.4089 16.0241 23.5799 16.808H21.2917C21.1422 16.403 20.9184 16.0481 20.6197 15.7438C20.3262 15.4348 19.9717 15.197 19.5556 15.032C19.1394 14.867 18.686 14.7838 18.1957 14.7838C17.5344 14.7838 16.937 14.9488 16.4039 15.2797C15.8707 15.6105 15.452 16.0665 15.1477 16.6477C14.849 17.2237 14.6999 17.8747 14.6999 18.5998C14.6999 19.325 14.849 19.979 15.1477 20.5597C15.4516 21.1357 15.8703 21.5887 16.4039 21.9195C16.937 22.2504 17.5344 22.4154 18.1957 22.4154C18.6864 22.4154 19.1399 22.3322 19.5556 22.1672C19.9717 22.0022 20.3262 21.7674 20.6197 21.4631C20.9184 21.1541 21.1422 20.7962 21.2917 20.3912H23.5799C23.4093 21.1751 23.0703 21.8711 22.5637 22.4792C22.0623 23.0822 21.4332 23.5511 20.6759 23.8871C19.9186 24.2231 19.0863 24.3911 18.1799 24.3911V24.392ZM27.326 12.9997V22.2315H32.6382V24.1995H25.1502V12.9997H27.326Z" fill="white"/>
<rect y="33" width="48" height="15.0001" rx="4" fill="#22D789"/>
<g opacity="0.9">
<path d="M4.11914 43.4576H5.4035V41.6754H6.37929C7.68867 41.6754 8.73952 40.9626 8.73952 39.5877V39.5707C8.73952 38.3572 7.89717 37.517 6.50439 37.517H4.11914V43.4576ZM5.4035 40.5128V38.6966H6.39597C7.03815 38.6966 7.43847 39.0106 7.43847 39.5962V39.6132C7.43847 40.1224 7.06317 40.5128 6.42099 40.5128H5.4035Z" fill="#010101"/>
<path d="M9.69002 43.4576H10.9744V41.5566H11.9835L13.2345 43.4576H14.7357L13.3096 41.336C14.0519 41.0559 14.5606 40.4534 14.5606 39.4944V39.4774C14.5606 38.9173 14.3855 38.4505 14.0602 38.1195C13.6766 37.7291 13.1011 37.517 12.3588 37.517H9.69002V43.4576ZM10.9744 40.4024V38.6966H12.2504C12.8759 38.6966 13.2596 38.9852 13.2596 39.5453V39.5623C13.2596 40.063 12.9009 40.4024 12.2754 40.4024H10.9744Z" fill="#010101"/>
<path d="M15.717 43.4576H20.1622V42.295H16.993V41.0474H19.7452V39.8847H16.993V38.6796H20.1205V37.517H15.717V43.4576Z" fill="#010101"/>
<path d="M23.164 43.5001H24.2982L26.6585 37.517H25.274L23.7478 41.7009L22.2216 37.517H20.8038L23.164 43.5001Z" fill="#010101"/>
<path d="M27.6176 43.4576H28.9019V37.517H27.6176V43.4576Z" fill="#010101"/>
<path d="M30.3609 43.4576H34.8061V42.295H31.6369V41.0474H34.3891V39.8847H31.6369V38.6796H34.7644V37.517H30.3609V43.4576Z" fill="#010101"/>
<path d="M37.491 43.5001H38.6085L39.9263 39.6132L41.244 43.5001H42.3616L44.3548 37.517H43.0121L41.8028 41.5396L40.4934 37.5H39.3925L38.0831 41.5396L36.8738 37.517H35.4977L37.491 43.5001Z" fill="#010101"/>
</g>
<defs>
<linearGradient id="paint0_linear_4407_11125" x1="2.98604" y1="3.16682" x2="47.0151" y2="47.1955" gradientUnits="userSpaceOnUse">
<stop offset="0.29" stop-color="#009AE5"/>
<stop offset="0.7" stop-color="#FF318C"/>
</linearGradient>
<linearGradient id="paint1_linear_4407_11125" x1="42.2841" y1="-0.538035" x2="2.06444" y2="18.1091" gradientUnits="userSpaceOnUse">
<stop offset="0.3" stop-color="#00D980"/>
<stop offset="0.54" stop-color="#009AE5"/>
</linearGradient>
</defs>
</svg>
