<svg xmlns="http://www.w3.org/2000/svg" width="16" height="16" fill="none" viewBox="0 0 16 16">
  <defs>
    <clipPath id="a">
      <path fill="#fff" d="M0 0h16v16H0z"/>
    </clipPath>
  </defs>
  <g clip-path="url(#a)">
    <path fill="#3BEA62" d="M16 0H0v16h16V0Z"/>
    <path fill="#000" d="M15 1H1v14h14V1Z"/>
    <path fill="#fff" d="M10.67 3h1.188l2.509 6H13.02l-.535-1.336h-2.477L9.473 9H8.159l2.511-6Zm1.355 3.507-.778-1.932-.778 1.932h1.556Z"/>
    <path fill="#fff" d="m7.339 9.18-.644-.587a3.152 3.152 0 0 1-1.74.51c-1.808 0-3.105-1.37-3.105-3.064v-.017c0-1.694 1.314-3.082 3.121-3.082s3.104 1.37 3.104 3.065v.017a3.09 3.09 0 0 1-.518 1.71l.602.52-.82.928ZM5.741 7.733l-.954-.826.82-.936.962.885c.1-.238.16-.52.16-.817v-.017c0-1.022-.737-1.873-1.775-1.873-1.037 0-1.757.834-1.757 1.856v.017c0 1.021.737 1.872 1.774 1.872.285 0 .544-.05.77-.161Z"/>
    <path fill="#fff" d="M9 12H3v1h6v-1Z"/>
    <rect width="16" height="5" y="11" fill="#3BEA62" rx="1.5"/>
    <g opacity=".9">
      <path fill="#010101" d="M1 14.835h.447v-.848h.34c.455 0 .82-.34.82-.994v-.008c0-.577-.292-.977-.777-.977H1v2.827Zm.447-1.402v-.864h.345c.224 0 .363.15.363.428v.008c0 .243-.13.428-.354.428h-.354Z"/>
      <path fill="#010101" d="M2.938 14.835h.447v-.905h.351l.436.905h.522l-.496-1.01c.258-.133.435-.42.435-.876v-.008c0-.267-.06-.489-.174-.646a.692.692 0 0 0-.592-.287h-.929v2.827Zm.447-1.454v-.812h.444c.218 0 .351.138.351.404v.008c0 .238-.124.4-.342.4h-.453Z"/>
      <path fill="#010101" d="M5.035 14.835h1.547v-.554H5.48v-.593h.958v-.553H5.48v-.574h1.089v-.553H5.035v2.827Z"/>
      <path fill="#010101" d="M7.627 14.855h.394l.822-2.847H8.36l-.531 1.99-.531-1.99h-.494l.822 2.847Z"/>
      <path fill="#010101" d="M9.176 14.835h.447v-2.827h-.447v2.827Z"/>
      <path fill="#010101" d="M10.13 14.835h1.547v-.554h-1.102v-.593h.957v-.553h-.957v-.574h1.088v-.553h-1.532v2.827Z"/>
      <path fill="#010101" d="M12.612 14.855H13l.458-1.85.459 1.85h.388L15 12.008h-.467l-.421 1.914L13.656 12h-.383l-.455 1.922-.421-1.914h-.479l.694 2.847Z"/>
    </g>
  </g>
</svg>
