<svg xmlns="http://www.w3.org/2000/svg" width="256" height="256" fill="none" viewBox="0 0 256 256">
  <defs>
    <linearGradient id="a" x1="55.659" x2="108.791" y1="58.337" y2="181.38" gradientUnits="userSpaceOnUse">
      <stop offset=".068" stop-color="#FF4EFD"/>
      <stop offset=".964" stop-color="#484DFC"/>
    </linearGradient>
    <linearGradient id="b" x1="12" x2="75.622" y1="64.562" y2="216.848" gradientUnits="userSpaceOnUse">
      <stop  offset="0" stop-color="#DA38FF"/>
      <stop offset=".223" stop-color="#DA38FF"/>
      <stop offset=".828" stop-color="#087CFA"/>
    </linearGradient>
    <linearGradient id="c" x1="131.625" x2="95.624" y1="152.485" y2="46.147" gradientUnits="userSpaceOnUse">
      <stop offset=".281" stop-color="#6B57FF"/>
      <stop offset=".875" stop-color="#9E3DFF"/>
    </linearGradient>
    <linearGradient id="d" x1="31.031" x2="31.032" y1="77.703" y2="119.39" gradientUnits="userSpaceOnUse">
      <stop  offset="0" stop-color="#E19AFB"/>
      <stop offset=".688" stop-color="#EB73FF" stop-opacity=".69"/>
    </linearGradient>
    <linearGradient id="e" x1="192.318" x2="5.097" y1="86.851" y2="194.442" gradientUnits="userSpaceOnUse">
      <stop offset=".044" stop-color="#3BEA62"/>
      <stop offset=".98" stop-color="#009AE5"/>
    </linearGradient>
    <linearGradient id="f" x1="223.837" x2="87.748" y1="113.41" y2="191.618" gradientUnits="userSpaceOnUse">
      <stop offset=".01" stop-color="#3BEA62"/>
      <stop offset=".3" stop-color="#2BD486"/>
      <stop offset=".76" stop-color="#009AE5"/>
    </linearGradient>
    <linearGradient id="g" x1="148.756" x2="196.909" y1="-6.797" y2="100.673" gradientUnits="userSpaceOnUse">
      <stop offset=".193" stop-color="#3BEA62"/>
      <stop offset=".333" stop-color="#39E766"/>
      <stop offset=".474" stop-color="#33E072"/>
      <stop offset=".616" stop-color="#2AD386"/>
      <stop offset=".759" stop-color="#1DC2A2"/>
      <stop offset=".9" stop-color="#0DACC6"/>
      <stop offset="1" stop-color="#009AE5"/>
    </linearGradient>
    <linearGradient id="h" x1="105.349" x2="180.019" y1="36.344" y2="52.395" gradientUnits="userSpaceOnUse">
      <stop offset=".097" stop-color="#A8FF68"/>
      <stop offset=".501" stop-color="#2BD486" stop-opacity="0"/>
    </linearGradient>
    <linearGradient id="i" x1="260.032" x2="198.62" y1="66.144" y2="50.791" gradientUnits="userSpaceOnUse">
      <stop offset=".463" stop-color="#3BEA62"/>
      <stop offset=".98" stop-color="#009AE5"/>
    </linearGradient>
    <linearGradient id="j" x1="125.683" x2="96.681" y1="256.432" y2="95.381" gradientUnits="userSpaceOnUse">
      <stop offset=".044" stop-color="#3BEA62"/>
      <stop offset=".98" stop-color="#009AE5"/>
    </linearGradient>
    <linearGradient id="k" x1="69.684" x2="113.621" y1="90.816" y2="192.565" gradientUnits="userSpaceOnUse">
      <stop  offset="0" stop-color="#C7489F"/>
      <stop offset=".072" stop-color="#C34DA5" stop-opacity=".914"/>
      <stop offset=".216" stop-color="#B95CB4" stop-opacity=".69"/>
      <stop offset=".415" stop-color="#A974CD" stop-opacity=".332"/>
      <stop offset=".585" stop-color="#9B8BE5" stop-opacity="0"/>
    </linearGradient>
    <linearGradient id="l" x1="157.906" x2="33.75" y1="60.031" y2="92.656" gradientUnits="userSpaceOnUse">
      <stop offset=".044" stop-color="#3BEA62"/>
      <stop offset=".98" stop-color="#009AE5"/>
    </linearGradient>
    <linearGradient id="m" x1="83.594" x2="62.347" y1="224.062" y2="125.852" gradientUnits="userSpaceOnUse">
      <stop offset=".373" stop-color="#3BEA62" stop-opacity="0"/>
      <stop offset="1" stop-color="#C931FF"/>
    </linearGradient>
    <linearGradient id="n" x1="61.681" x2="117.963" y1="113.958" y2="106.219" gradientUnits="userSpaceOnUse">
      <stop  offset="0" stop-color="#26B2C4" stop-opacity="0"/>
      <stop offset=".287" stop-color="#43C3AA" stop-opacity=".285"/>
      <stop offset=".953" stop-color="#8CF06A" stop-opacity=".994"/>
      <stop offset=".958" stop-color="#8DF16A"/>
    </linearGradient>
    <linearGradient id="o" x1="206.195" x2="113.019" y1="142.07" y2="256.842" gradientUnits="userSpaceOnUse">
      <stop  offset="0" stop-color="#C7489F"/>
      <stop offset=".072" stop-color="#C34DA5" stop-opacity=".914"/>
      <stop offset=".216" stop-color="#B95CB4" stop-opacity=".69"/>
      <stop offset=".415" stop-color="#A974CD" stop-opacity=".332"/>
      <stop offset=".585" stop-color="#9B8BE5" stop-opacity="0"/>
    </linearGradient>
    <linearGradient id="p" x1="181.677" x2="169.571" y1="164.095" y2="179.006" gradientUnits="userSpaceOnUse">
      <stop offset=".306" stop-color="#EB73FF" stop-opacity="0"/>
      <stop offset="1" stop-color="#BD31FF"/>
    </linearGradient>
    <linearGradient id="q" x1="37.375" x2="118.031" y1="141.593" y2="243.999" gradientUnits="userSpaceOnUse">
      <stop offset=".212" stop-color="#3BEA62"/>
      <stop offset=".98" stop-color="#009AE5"/>
    </linearGradient>
    <linearGradient id="r" x1="223.697" x2="192.991" y1="72.34" y2="160.27" gradientUnits="userSpaceOnUse">
      <stop offset=".097" stop-color="#95F286"/>
      <stop offset=".501" stop-color="#2BD486" stop-opacity="0"/>
    </linearGradient>
    <linearGradient id="s" x1="54.189" x2="197.373" y1="56.347" y2="195.345" gradientUnits="userSpaceOnUse">
      <stop  offset="0" stop-color="#007859"/>
      <stop offset=".088" stop-color="#00533E"/>
      <stop offset=".192" stop-color="#002F23"/>
      <stop offset=".289" stop-color="#001510"/>
      <stop offset=".377" stop-color="#000604"/>
      <stop offset=".445"/>
      <stop offset=".914"/>
    </linearGradient>
    <linearGradient id="t" x1="69.178" x2="109.203" y1="74.581" y2="167.269" gradientUnits="userSpaceOnUse">
      <stop offset=".326" stop-color="#FF318C"/>
      <stop offset=".384" stop-color="#F4358F"/>
      <stop offset=".484" stop-color="#D84099"/>
      <stop offset=".614" stop-color="#AA53A9"/>
      <stop offset=".769" stop-color="#6B6DBF"/>
      <stop offset=".944" stop-color="#1B8EDB"/>
      <stop offset="1" stop-color="#009AE5"/>
    </linearGradient>
    <linearGradient id="u" x1="48.534" x2="72.624" y1="131.855" y2="187.643" gradientUnits="userSpaceOnUse">
      <stop offset=".058" stop-color="#FF318C"/>
      <stop offset=".141" stop-color="#F43492"/>
      <stop offset=".285" stop-color="#D83DA4"/>
      <stop offset=".47" stop-color="#AB4CC1"/>
      <stop offset=".584" stop-color="#8C57D5"/>
      <stop offset=".71" stop-color="#5C6DDA"/>
      <stop offset=".933" stop-color="#009AE5"/>
    </linearGradient>
    <linearGradient id="v" x1="65.749" x2="147.168" y1="77.437" y2="174.677" gradientUnits="userSpaceOnUse">
      <stop offset=".191" stop-color="#FF318C"/>
      <stop offset=".464" stop-color="#8363B7"/>
      <stop offset=".764" stop-color="#009AE5"/>
    </linearGradient>
    <linearGradient id="w" x1="176.501" x2="22.827" y1="100.112" y2="188.424" gradientUnits="userSpaceOnUse">
      <stop offset=".044" stop-color="#3BEA62"/>
      <stop offset=".877" stop-color="#024546"/>
    </linearGradient>
    <linearGradient id="x" x1="146.976" x2="201.25" y1="50.441" y2="84.022" gradientUnits="userSpaceOnUse">
      <stop offset=".097" stop-color="#A8FF68"/>
      <stop offset=".501" stop-color="#2BD486"/>
      <stop offset="1" stop-color="#1686E6"/>
    </linearGradient>
    <linearGradient id="y" x1="116.811" x2="40.118" y1="62.598" y2="212.75" gradientUnits="userSpaceOnUse">
      <stop offset=".044" stop-color="#99EA51"/>
      <stop offset=".98" stop-color="#009AE5"/>
    </linearGradient>
    <linearGradient id="z" x1="196.688" x2="168.044" y1="103.505" y2="213.925" gradientUnits="userSpaceOnUse">
      <stop offset=".097" stop-color="#95F286"/>
      <stop offset=".501" stop-color="#2BD486"/>
    </linearGradient>
  </defs>
  <path fill="url(#a)" d="m121.65 95.322-98.12-23.98L12 98.622l35.37 113.131 93.974 32.246 40.45-66.172-60.144-82.505Z"/>
  <path fill="url(#b)" d="M23.53 71.342 12 98.622l35.369 113.131 16.612-46.614 3.625-27.187-44.076-66.61Z"/>
  <path fill="url(#c)" d="m121.65 94.885-98.12-23.98L12 98.186l115.372 39.898-5.722-43.198Z"/>
  <path fill="url(#d)" d="m23.531 71.343-11.53 27.28 38.36 13.265-26.83-40.545Z"/>
  <path fill="url(#e)" d="m243.998 78.365-23.581-46.173L100.088 12l-52.72 199.754L141.34 244 243.998 78.365Z"/>
  <path fill="url(#f)" d="M244.001 78.365 220.42 32.19 141.345 244 244.001 78.365Z"/>
  <path fill="url(#g)" d="M244.001 78.365 220.42 32.192 100.091 12l40.016 60.703 103.894 5.662Z"/>
  <path fill="url(#h)" d="m244 78.365-23.58-46.173L100.091 12l40.016 60.703L244 78.365Z"/>
  <path fill="url(#i)" d="m244 78.365-23.58-46.174-16.424 43.993L244 78.365Z"/>
  <path fill="url(#j)" d="m67.607 137.952-.542-.82-19.694 74.622 93.974 32.245 40.45-66.172-114.188-39.875Z"/>
  <path fill="url(#k)" d="m181.795 177.828-52.563-81.563-48.493-10.941-33.368 126.431L141.345 244l40.45-66.172Z"/>
  <path fill="url(#l)" d="M140.104 72.703 100.088 12l-52.72 199.754 49.236-46.614 43.5-92.437Z"/>
  <path fill="url(#m)" d="m47.37 211.753 49.237-46.614 6.895-14.652-35.895-12.535-.542-.82-9.342 35.396-10.352 39.225Z"/>
  <path fill="url(#n)" d="m71.772 119.293 39.914 13.803 17.545-36.83-48.493-10.942-8.966 33.969Z"/>
  <path fill="url(#o)" d="m141.345 244 40.449-66.172-9.969-15.471L141.345 244Z"/>
  <path fill="url(#p)" d="m181.793 177.828-9.97-15.471-3.96 10.607 13.93 4.864Z"/>
  <path fill="url(#q)" d="m96.607 165.139-49.236 46.615 93.974 32.245-44.738-78.86Z"/>
  <path fill="url(#r)" d="m203.996 76.184-62.651 167.815L244 78.364l-40.004-2.18Z"/>
  <path fill="url(#s)" d="M200 56H56v144h144V56Z"/>
  <g opacity=".2">
    <path fill="url(#t)" d="M56.007 79.614v120.382h111.17l13.763-22.515-59.725-81.931-65.208-15.936Z"/>
    <path fill="url(#u)" d="m56.007 187.162 7.94-22.28 3.6-26.999-11.54-17.439v66.718Z"/>
    <path fill="url(#v)" d="m56.007 113.932 70.889 24.516-5.681-42.898-65.208-15.936v34.318Z"/>
    <path fill="url(#w)" d="M199.999 147.63V56.003H88.403L56.007 178.752v21.243h111.537l32.455-52.365Z"/>
    <path fill="url(#x)" d="M139.543 73.087 200 76.38V56.004h-71.718l11.261 17.084Z"/>
    <path fill="url(#y)" d="M56.007 178.752v21.243h3.248l37.09-35.113 43.197-91.795-11.261-17.084H88.403L56.007 178.752Z"/>
    <path fill="url(#z)" d="M167.545 199.995 200 147.63V84.549l-43.101 115.446h10.646Z"/>
  </g>
  <path fill="#fff" d="M128 172.799H73.6v8.8H128v-8.8Z"/>
  <path fill="#fff" d="M152.567 73.501h10.612l22.42 54.176h-12.032l-4.783-12.065h-22.121l-4.783 12.065h-11.734l22.421-54.176Zm12.106 31.66-6.95-17.444-6.95 17.444h13.9Z"/>
  <path fill="#fff" d="m121.013 129.29-5.754-5.302c-4.41 2.92-9.716 4.611-15.545 4.611-16.142 0-27.726-12.372-27.726-27.664v-.154c0-15.292 11.733-27.818 27.876-27.818 16.142 0 27.726 12.372 27.726 27.664v.154c0 5.686-1.719 10.989-4.634 15.446l5.381 4.688-7.324 8.375Zm-14.274-13.063-8.52-7.454 7.324-8.453 8.595 7.992c.897-2.152 1.42-4.688 1.42-7.377v-.154c0-9.221-6.577-16.906-15.844-16.906S84.02 91.406 84.02 100.627v.154c0 9.221 6.577 16.906 15.844 16.906 2.541 0 4.857-.461 6.875-1.46Z"/>
  <rect width="255.998" height="80" y="164" fill="#3BEA62" rx="26"/>
  <g opacity=".9">
    <path fill="#010101" d="M21.97 219.774h6.85v-9.505h5.204c6.983 0 12.588-3.802 12.588-11.135v-.09c0-6.473-4.492-10.953-11.92-10.953H21.97v31.683Zm6.85-15.706v-9.686h5.293c3.425 0 5.56 1.675 5.56 4.798v.09c0 2.716-2.001 4.798-5.426 4.798H28.82Z"/>
    <path fill="#010101" d="M51.681 219.774h6.85v-10.139h5.382l6.672 10.139h8.007l-7.606-11.316c3.958-1.493 6.671-4.707 6.671-9.822v-.09c0-2.987-.934-5.477-2.668-7.242-2.046-2.082-5.115-3.213-9.074-3.213H51.68v31.683Zm6.85-16.295v-9.097h6.806c3.335 0 5.382 1.539 5.382 4.526v.091c0 2.67-1.913 4.48-5.249 4.48h-6.939Z"/>
    <path fill="#010101" d="M83.825 219.774h23.708v-6.201H90.63v-6.654h14.679v-6.2H90.63v-6.428h16.68v-6.2H83.825v31.683Z"/>
    <path fill="#010101" d="M123.542 220h6.049l12.588-31.909h-7.384l-8.14 22.314-8.139-22.314h-7.562L123.542 220Z"/>
    <path fill="#010101" d="M147.294 219.774h6.85v-31.683h-6.85v31.683Z"/>
    <path fill="#010101" d="M161.925 219.774h23.708v-6.201H168.73v-6.654h14.679v-6.2H168.73v-6.428h16.68v-6.2h-23.485v31.683Z"/>
    <path fill="#010101" d="M199.952 220h5.96l7.028-20.73 7.028 20.73h5.96l10.63-31.909h-7.161l-6.449 21.454L215.964 188h-5.871l-6.983 21.545-6.45-21.454h-7.339L199.952 220Z"/>
  </g>
</svg>
