<svg xmlns="http://www.w3.org/2000/svg" width="80" height="80" fill="none" viewBox="0 0 80 80">
  <defs>
    <linearGradient id="a" x1="16.936" x2="33.883" y1="17.802" y2="57.048" gradientUnits="userSpaceOnUse">
      <stop offset=".068" stop-color="#FF4EFD"/>
      <stop offset=".964" stop-color="#484DFC"/>
    </linearGradient>
    <linearGradient id="b" x1="3.011" x2="23.304" y1="19.787" y2="68.362" gradientUnits="userSpaceOnUse">
      <stop stop-color="#DA38FF"/>
      <stop offset=".223" stop-color="#DA38FF"/>
      <stop offset=".828" stop-color="#087CFA"/>
    </linearGradient>
    <linearGradient id="c" x1="41.167" x2="29.684" y1="47.832" y2="13.914" gradientUnits="userSpaceOnUse">
      <stop offset=".281" stop-color="#6B57FF"/>
      <stop offset=".875" stop-color="#9E3DFF"/>
    </linearGradient>
    <linearGradient id="d" x1="9.081" x2="9.081" y1="23.979" y2="37.276" gradientUnits="userSpaceOnUse">
      <stop stop-color="#E19AFB"/>
      <stop offset=".688" stop-color="#EB73FF" stop-opacity=".69"/>
    </linearGradient>
    <linearGradient id="e" x1="60.526" x2=".809" y1="26.897" y2="61.215" gradientUnits="userSpaceOnUse">
      <stop offset=".044" stop-color="#3BEA62"/>
      <stop offset=".98" stop-color="#009AE5"/>
    </linearGradient>
    <linearGradient id="f" x1="70.579" x2="27.171" y1="35.368" y2="60.313" gradientUnits="userSpaceOnUse">
      <stop offset=".01" stop-color="#3BEA62"/>
      <stop offset=".3" stop-color="#2BD486"/>
      <stop offset=".76" stop-color="#009AE5"/>
    </linearGradient>
    <linearGradient id="g" x1="46.631" x2="61.99" y1="-2.974" y2="31.306" gradientUnits="userSpaceOnUse">
      <stop offset=".193" stop-color="#3BEA62"/>
      <stop offset=".333" stop-color="#39E766"/>
      <stop offset=".474" stop-color="#33E072"/>
      <stop offset=".616" stop-color="#2AD386"/>
      <stop offset=".759" stop-color="#1DC2A2"/>
      <stop offset=".9" stop-color="#0DACC6"/>
      <stop offset="1" stop-color="#009AE5"/>
    </linearGradient>
    <linearGradient id="h" x1="32.785" x2="56.603" y1="10.787" y2="15.906" gradientUnits="userSpaceOnUse">
      <stop offset=".097" stop-color="#A8FF68"/>
      <stop offset=".501" stop-color="#2BD486" stop-opacity="0"/>
    </linearGradient>
    <linearGradient id="i" x1="82.124" x2="62.536" y1="20.292" y2="15.395" gradientUnits="userSpaceOnUse">
      <stop offset=".463" stop-color="#3BEA62"/>
      <stop offset=".98" stop-color="#009AE5"/>
    </linearGradient>
    <linearGradient id="j" x1="39.272" x2="30.021" y1="80.987" y2="29.618" gradientUnits="userSpaceOnUse">
      <stop offset=".044" stop-color="#3BEA62"/>
      <stop offset=".98" stop-color="#009AE5"/>
    </linearGradient>
    <linearGradient id="k" x1="21.41" x2="35.425" y1="28.162" y2="60.616" gradientUnits="userSpaceOnUse">
      <stop stop-color="#C7489F"/>
      <stop offset=".072" stop-color="#C34DA5" stop-opacity=".914"/>
      <stop offset=".216" stop-color="#B95CB4" stop-opacity=".69"/>
      <stop offset=".415" stop-color="#A974CD" stop-opacity=".332"/>
      <stop offset=".585" stop-color="#9B8BE5" stop-opacity="0"/>
    </linearGradient>
    <linearGradient id="l" x1="49.55" x2="9.949" y1="18.342" y2="28.748" gradientUnits="userSpaceOnUse">
      <stop offset=".044" stop-color="#3BEA62"/>
      <stop offset=".98" stop-color="#009AE5"/>
    </linearGradient>
    <linearGradient id="m" x1="25.847" x2="19.07" y1="70.662" y2="39.337" gradientUnits="userSpaceOnUse">
      <stop offset=".373" stop-color="#3BEA62" stop-opacity="0"/>
      <stop offset="1" stop-color="#C931FF"/>
    </linearGradient>
    <linearGradient id="n" x1="18.858" x2="36.809" y1="35.543" y2="33.075" gradientUnits="userSpaceOnUse">
      <stop stop-color="#26B2C4" stop-opacity="0"/>
      <stop offset=".287" stop-color="#43C3AA" stop-opacity=".285"/>
      <stop offset=".953" stop-color="#8CF06A" stop-opacity=".994"/>
      <stop offset=".958" stop-color="#8DF16A"/>
    </linearGradient>
    <linearGradient id="o" x1="64.951" x2="35.232" y1="44.51" y2="81.118" gradientUnits="userSpaceOnUse">
      <stop stop-color="#C7489F"/>
      <stop offset=".072" stop-color="#C34DA5" stop-opacity=".914"/>
      <stop offset=".216" stop-color="#B95CB4" stop-opacity=".69"/>
      <stop offset=".415" stop-color="#A974CD" stop-opacity=".332"/>
      <stop offset=".585" stop-color="#9B8BE5" stop-opacity="0"/>
    </linearGradient>
    <linearGradient id="p" x1="57.132" x2="53.27" y1="51.535" y2="56.291" gradientUnits="userSpaceOnUse">
      <stop offset=".306" stop-color="#EB73FF" stop-opacity="0"/>
      <stop offset="1" stop-color="#BD31FF"/>
    </linearGradient>
    <linearGradient id="q" x1="11.105" x2="36.831" y1="44.358" y2="77.022" gradientUnits="userSpaceOnUse">
      <stop offset=".212" stop-color="#3BEA62"/>
      <stop offset=".98" stop-color="#009AE5"/>
    </linearGradient>
    <linearGradient id="r" x1="70.534" x2="60.74" y1="22.268" y2="50.315" gradientUnits="userSpaceOnUse">
      <stop offset=".097" stop-color="#95F286"/>
      <stop offset=".501" stop-color="#2BD486" stop-opacity="0"/>
    </linearGradient>
    <linearGradient id="s" x1="16.421" x2="62.161" y1="17.111" y2="61.513" gradientUnits="userSpaceOnUse">
      <stop stop-color="#007859"/>
      <stop offset=".088" stop-color="#00533E"/>
      <stop offset=".192" stop-color="#002F23"/>
      <stop offset=".289" stop-color="#001510"/>
      <stop offset=".377" stop-color="#000604"/>
      <stop offset=".445"/>
      <stop offset=".914"/>
    </linearGradient>
    <linearGradient id="t" x1="21.214" x2="34" y1="22.938" y2="52.546" gradientUnits="userSpaceOnUse">
      <stop offset=".326" stop-color="#FF318C"/>
      <stop offset=".384" stop-color="#F4358F"/>
      <stop offset=".484" stop-color="#D84099"/>
      <stop offset=".614" stop-color="#AA53A9"/>
      <stop offset=".769" stop-color="#6B6DBF"/>
      <stop offset=".944" stop-color="#1B8EDB"/>
      <stop offset="1" stop-color="#009AE5"/>
    </linearGradient>
    <linearGradient id="u" x1="14.62" x2="22.315" y1="41.233" y2="59.054" gradientUnits="userSpaceOnUse">
      <stop offset=".058" stop-color="#FF318C"/>
      <stop offset=".141" stop-color="#F43492"/>
      <stop offset=".285" stop-color="#D83DA4"/>
      <stop offset=".47" stop-color="#AB4CC1"/>
      <stop offset=".584" stop-color="#8C57D5"/>
      <stop offset=".71" stop-color="#5C6DDA"/>
      <stop offset=".933" stop-color="#009AE5"/>
    </linearGradient>
    <linearGradient id="v" x1="20.119" x2="46.127" y1="23.85" y2="54.912" gradientUnits="userSpaceOnUse">
      <stop offset=".191" stop-color="#FF318C"/>
      <stop offset=".464" stop-color="#8363B7"/>
      <stop offset=".764" stop-color="#009AE5"/>
    </linearGradient>
    <linearGradient id="w" x1="55.497" x2="6.408" y1="31.093" y2="59.304" gradientUnits="userSpaceOnUse">
      <stop offset=".044" stop-color="#3BEA62"/>
      <stop offset=".877" stop-color="#024546"/>
    </linearGradient>
    <linearGradient id="x" x1="46.065" x2="63.403" y1="15.226" y2="25.954" gradientUnits="userSpaceOnUse">
      <stop offset=".097" stop-color="#A8FF68"/>
      <stop offset=".501" stop-color="#2BD486"/>
      <stop offset="1" stop-color="#1686E6"/>
    </linearGradient>
    <linearGradient id="y" x1="36.43" x2="11.931" y1="19.11" y2="67.074" gradientUnits="userSpaceOnUse">
      <stop offset=".044" stop-color="#99EA51"/>
      <stop offset=".98" stop-color="#009AE5"/>
    </linearGradient>
    <linearGradient id="z" x1="61.946" x2="52.795" y1="32.177" y2="67.45" gradientUnits="userSpaceOnUse">
      <stop offset=".097" stop-color="#95F286"/>
      <stop offset=".501" stop-color="#2BD486"/>
    </linearGradient>
  </defs>
  <path fill="url(#a)" d="M37.985 29.599 6.688 21.95l-3.677 8.701 11.281 36.085 29.975 10.285 12.902-21.106-19.184-26.316Z"/>
  <path fill="url(#b)" d="m6.688 21.95-3.677 8.701 11.281 36.085 5.299-14.868 1.156-8.672L6.688 21.95Z"/>
  <path fill="url(#c)" d="M37.985 29.46 6.688 21.81l-3.677 8.702 36.8 12.726-1.826-13.779Z"/>
  <path fill="url(#d)" d="M6.689 21.95 3.01 30.652l12.235 4.23L6.689 21.95Z"/>
  <path fill="url(#e)" d="M77.01 24.19 69.49 9.462l-38.381-6.44-16.816 63.715 29.974 10.285L77.01 24.19Z"/>
  <path fill="url(#f)" d="M77.01 24.19 69.49 9.462l-25.222 67.56L77.01 24.19Z"/>
  <path fill="url(#g)" d="M77.01 24.19 69.49 9.462l-38.38-6.44 12.763 19.362 33.139 1.806Z"/>
  <path fill="url(#h)" d="M77.01 24.19 69.49 9.462l-38.382-6.44 12.764 19.362L77.01 24.19Z"/>
  <path fill="url(#i)" d="M77.01 24.19 69.49 9.462l-5.24 14.032 12.76.696Z"/>
  <path fill="url(#j)" d="m20.748 43.196-.173-.261-6.282 23.801 29.974 10.285L57.17 55.916l-36.422-12.72Z"/>
  <path fill="url(#k)" d="M57.17 55.915 40.404 29.9l-15.468-3.49-10.643 40.327 29.974 10.285L57.17 55.915Z"/>
  <path fill="url(#l)" d="M43.872 22.384 31.108 3.022 14.292 66.737l15.705-14.869 13.875-29.484Z"/>
  <path fill="url(#m)" d="m14.293 66.736 15.705-14.868 2.199-4.674-11.45-3.998-.172-.261-2.98 11.29-3.302 12.511Z"/>
  <path fill="url(#n)" d="m22.076 37.245 12.731 4.403L40.403 29.9l-15.467-3.49-2.86 10.835Z"/>
  <path fill="url(#o)" d="m44.267 77.022 12.902-21.107-3.18-4.934-9.722 26.041Z"/>
  <path fill="url(#p)" d="m57.169 55.915-3.18-4.934-1.263 3.383 4.443 1.551Z"/>
  <path fill="url(#q)" d="M29.998 51.868 14.293 66.737l29.974 10.285-14.27-25.154Z"/>
  <path fill="url(#r)" d="M64.25 23.494 44.267 77.021 77.01 24.19l-12.76-.696Z"/>
  <path fill="url(#s)" d="M63 17H17v46h46V17Z"/>
  <g opacity=".2">
    <path fill="url(#t)" d="M17.007 24.545V63h35.512l4.396-7.192-19.078-26.172-20.83-5.09Z"/>
    <path fill="url(#u)" d="m17.007 58.9 2.536-7.117 1.15-8.624-3.686-5.57V58.9Z"/>
    <path fill="url(#v)" d="m17.007 35.508 22.645 7.831-1.815-13.703-20.83-5.09v10.962Z"/>
    <path fill="url(#w)" d="M63.003 46.273v-29.27H27.355l-10.348 39.21V63h35.63l10.366-16.727Z"/>
    <path fill="url(#x)" d="m43.691 22.46 19.312 1.053v-6.51h-22.91l3.598 5.457Z"/>
    <path fill="url(#y)" d="M17.007 56.214V63h1.037l11.848-11.217 13.8-29.323-3.598-5.457H27.355l-10.348 39.21Z"/>
    <path fill="url(#z)" d="m52.636 63 10.367-16.727V26.122L49.235 63h3.401Z"/>
  </g>
  <path fill="#fff" d="M40 54.31H22.622v2.812H40V54.31Z"/>
  <path fill="#fff" d="M47.848 22.59h3.39L58.4 39.898h-3.844l-1.528-3.854h-7.066l-1.528 3.854h-3.748l7.162-17.306Zm3.867 10.114-2.22-5.572-2.22 5.572h4.44Z"/>
  <path fill="#fff" d="m37.768 40.413-1.838-1.694a8.934 8.934 0 0 1-4.966 1.472c-5.156 0-8.857-3.952-8.857-8.837v-.049c0-4.885 3.748-8.886 8.905-8.886 5.157 0 8.857 3.952 8.857 8.837v.05c0 1.816-.55 3.51-1.48 4.933l1.719 1.498-2.34 2.675Zm-4.56-4.174-2.721-2.38 2.34-2.701 2.745 2.553a6.169 6.169 0 0 0 .453-2.357v-.049c0-2.945-2.1-5.4-5.06-5.4-2.961 0-5.014 2.405-5.014 5.351v.05c0 2.945 2.1 5.4 5.061 5.4.812 0 1.552-.148 2.196-.467Z"/>
  <rect width="80" height="25" y="52" fill="#3BEA62" rx="7"/>
  <g opacity=".9">
    <path fill="#010101" d="M6.866 69.43h2.14v-2.971h1.627c2.182 0 3.934-1.188 3.934-3.48v-.028c0-2.023-1.404-3.423-3.725-3.423H6.866v9.901Zm2.14-4.909v-3.027h1.655c1.07 0 1.737.523 1.737 1.5v.028c0 .848-.625 1.499-1.695 1.499H9.007Z"/>
    <path fill="#010101" d="M16.151 69.43h2.14v-3.17h1.683l2.084 3.17h2.503l-2.377-3.537c1.237-.467 2.085-1.471 2.085-3.07v-.028c0-.933-.292-1.711-.834-2.263-.64-.65-1.599-1.004-2.836-1.004h-4.448v9.901Zm2.14-5.093v-2.843h2.127c1.043 0 1.682.481 1.682 1.415v.028c0 .834-.598 1.4-1.64 1.4h-2.168Z"/>
    <path fill="#010101" d="M26.196 69.43h7.409v-1.94h-5.282v-2.079h4.587v-1.938h-4.587v-2.008h5.212v-1.938h-7.339v9.901Z"/>
    <path fill="#010101" d="M38.608 69.5h1.89l3.934-9.972h-2.308l-2.543 6.973-2.544-6.973h-2.363l3.934 9.972Z"/>
    <path fill="#010101" d="M46.03 69.43h2.14v-9.902h-2.14v9.901Z"/>
    <path fill="#010101" d="M50.602 69.43h7.41v-1.94h-5.283v-2.079h4.587v-1.938H52.73v-2.008h5.213v-1.938h-7.34v9.901Z"/>
    <path fill="#010101" d="M62.486 69.5h1.863l2.196-6.478L68.74 69.5h1.863l3.322-9.972h-2.238l-2.016 6.705L67.49 59.5h-1.835l-2.182 6.733-2.016-6.705h-2.293l3.322 9.972Z"/>
  </g>
</svg>
