<svg width="70" height="70" viewBox="0 0 70 70" fill="none" xmlns="http://www.w3.org/2000/svg">
<path d="M61.5378 70H26.4622C24.2179 70 22.0655 69.1085 20.4785 67.5215C18.8916 65.9345 18 63.7821 18 61.5377V52.4623C18 50.2179 18.8916 48.0655 20.4785 46.4785C22.0655 44.8915 24.2179 44 26.4622 44H61.5378C62.649 44 63.7494 44.2189 64.7761 44.6442C65.8028 45.0694 66.7357 45.6927 67.5215 46.4785C68.3072 47.2643 68.9306 48.1972 69.3558 49.2239C69.7811 50.2506 70 51.351 70 52.4623V61.5377C70 62.649 69.7811 63.7494 69.3558 64.7761C68.9306 65.8028 68.3072 66.7357 67.5215 67.5215C66.7357 68.3073 65.8028 68.9306 64.7761 69.3558C63.7494 69.7811 62.649 70 61.5378 70V70Z" fill="#FDB60D"/>
<path d="M27.2478 51.1395H36.259V53.4784H29.8589V55.9017H35.4912V58.2396H29.8589V60.7485H36.3446V63.0863H27.2478V51.1395Z" fill="black"/>
<path d="M42.7779 51.0551H45.2013L50.3213 63.0863H47.5735L46.4813 60.4073H41.4301L40.3379 63.0863H37.6589L42.7779 51.0551ZM45.5435 58.0862L43.9557 54.2118L42.369 58.0862H45.5435Z" fill="black"/>
<path d="M52.1648 51.1395H57.046C59.896 51.1395 61.6194 52.8295 61.6194 55.2695V55.304C61.6194 58.0684 59.4693 59.5029 56.7904 59.5029H54.7937V63.0863H52.1648V51.1395ZM56.8748 57.1641C57.1331 57.1969 57.3954 57.1747 57.6446 57.0991C57.8937 57.0236 58.1241 56.8962 58.3207 56.7255C58.5172 56.5547 58.6755 56.3444 58.7852 56.1083C58.8948 55.8721 58.9534 55.6154 58.957 55.3551V55.3207C58.957 54.144 58.1382 53.5117 56.8237 53.5117H54.7937V57.1641H56.8748Z" fill="black"/>
</svg>
