<svg xmlns="http://www.w3.org/2000/svg" width="20" height="20" viewBox="0 0 20 20" fill="none">
    <path d="M17.5589 20H7.44103C7.12048 20 6.80306 19.9368 6.50689 19.8142C6.21073 19.6915 5.94163 19.5117 5.71497 19.2851C5.48829 19.0584 5.30849 18.7893 5.18582 18.4932C5.06314 18.197 5 17.8796 5 17.559V14.941C5 14.2936 5.25718 13.6727 5.71497 13.2149C6.17275 12.7572 6.79363 12.5 7.44103 12.5H17.5589C17.8795 12.5 18.1969 12.5632 18.4931 12.6858C18.7892 12.8085 19.0583 12.9882 19.285 13.2149C19.5117 13.4416 19.6915 13.7107 19.8142 14.0068C19.9368 14.303 20 14.6204 20 14.941V17.559C20 17.8796 19.9368 18.197 19.8142 18.4932C19.6915 18.7893 19.5117 19.0584 19.285 19.2851C19.0583 19.5117 18.7892 19.6915 18.4931 19.8142C18.1969 19.9368 17.8795 20 17.5589 20Z" fill="#FDB60D"/>
    <path d="M7.78516 14.6113H10.3599V15.2795H8.53127V15.9719H10.1404V16.6399H8.53127V17.3567H10.3843V18.0246H7.7852L7.78516 14.6113Z" fill="black"/>
    <path d="M12.2223 14.587H12.9147L14.3776 18.0245H13.5925L13.2804 17.2592H11.8373L11.5252 18.0245H10.7598L12.2223 14.587ZM13.0124 16.596L12.5588 15.489L12.1055 16.596H13.0124Z" fill="black"/>
    <path d="M14.9044 14.6113H16.299C16.4645 14.5916 16.6325 14.6076 16.7914 14.6582C16.9502 14.7088 17.0965 14.7928 17.2202 14.9046C17.344 15.0163 17.4425 15.1532 17.5089 15.3062C17.5754 15.4591 17.6084 15.6246 17.6056 15.7913V15.8011C17.6042 15.974 17.5661 16.1446 17.4938 16.3016C17.4215 16.4586 17.3166 16.5985 17.1861 16.7119C17.0557 16.8254 16.9026 16.9097 16.7371 16.9596C16.5715 17.0093 16.3973 17.0235 16.226 17.0008H15.6555V18.0246H14.9043L14.9044 14.6113ZM16.25 16.3326C16.3239 16.342 16.3988 16.3356 16.47 16.314C16.5412 16.2924 16.607 16.2561 16.6632 16.2072C16.7193 16.1585 16.7645 16.0983 16.7959 16.0309C16.8272 15.9634 16.844 15.8901 16.845 15.8157V15.8059C16.845 15.4696 16.611 15.2891 16.2355 15.2891H15.6555V16.3326H16.25Z" fill="black"/>
</svg>