<svg width="16" height="16" viewBox="0 0 16 16" fill="none" xmlns="http://www.w3.org/2000/svg">
<g clip-path="url(#clip0_18804_10339)">
<path fill-rule="evenodd" clip-rule="evenodd" d="M14 8.50005C14 8.26816 13.8406 8.0667 13.6149 8.01342C13.3892 7.96015 13.1565 8.06903 13.0528 8.27644L12.191 10H12.0141C12.0094 10 12.0047 10 12 10C11.9953 10 11.9906 10 11.9859 10H8.50005C8.26816 10 8.0667 10.1595 8.01342 10.3852C7.96015 10.6109 8.06903 10.8436 8.27644 10.9473L10 11.8091V11.9859C10 11.9906 10 11.9953 10 12C10 12.0047 10 12.0094 10 12.0141V15.5C10 15.7319 10.1595 15.9334 10.3852 15.9867C10.6109 16.04 10.8436 15.9311 10.9473 15.7237L11.8091 14H15.5C15.7319 14 15.9334 13.8406 15.9867 13.6149C16.04 13.3892 15.9311 13.1565 15.7237 13.0528L14 12.191V8.50005ZM11 12.01C11.0054 12.5577 11.451 13 12 13C12.5523 13 13 12.5523 13 12C13 11.451 12.5577 11.0054 12.01 11H11.99C11.4457 11.0054 11.0054 11.4457 11 11.99V12.01Z" fill="#548AF7"/>
</g>
<path d="M3 2C1.89543 2 1 2.89543 1 4V12C1 13.1046 1.89543 14 3 14H9.00015V12.4273L7.82933 11.8419C7.2071 11.5308 6.88044 10.8327 7.04027 10.1556C7.2001 9.47856 7.80448 9.00024 8.50015 9.00024H11.5731L12.1585 7.82942C12.4168 7.31287 12.9418 7.00002 13.5 7.0001L15 7V4C15 2.89543 14.1046 2 13 2H3Z" fill="#43454A"/>
<path d="M3 2C1.89543 2 1 2.89543 1 4V12C1 13.1046 1.89543 14 3 14H9.00015V13H3C2.44772 13 2 12.5523 2 12V4C2 3.44772 2.44772 3 3 3H13C13.5523 3 14 3.44772 14 4V7.00007L15 7V4C15 2.89543 14.1046 2 13 2H3Z" fill="#CED0D6"/>
<path d="M3.5 5.5C3.5 5.22386 3.72386 5 4 5H5C5.27614 5 5.5 5.22386 5.5 5.5C5.5 5.77614 5.27614 6 5 6H4C3.72386 6 3.5 5.77614 3.5 5.5Z" fill="#CED0D6"/>
<path d="M6.5 5.5C6.5 5.22386 6.72386 5 7 5H8C8.27614 5 8.5 5.22386 8.5 5.5C8.5 5.77614 8.27614 6 8 6H7C6.72386 6 6.5 5.77614 6.5 5.5Z" fill="#CED0D6"/>
<defs>
<clipPath id="clip0_18804_10339">
<rect width="8" height="8" fill="white" transform="translate(8 8)"/>
</clipPath>
</defs>
</svg>
