<svg width="16" height="16" viewBox="0 0 16 16" fill="none" xmlns="http://www.w3.org/2000/svg">
<path d="M16 13.75V6.48979C16 6.08252 15.7572 5.71437 15.383 5.55394L6.01033 1.53692C5.88364 1.48266 5.74705 1.45459 5.60916 1.45459H1.01818C0.455855 1.45459 0 1.91044 0 2.47277V6.96426C0 7.16543 0.0596364 7.36208 0.171345 7.5295L5.52218 15.5467C5.71098 15.8297 6.0288 15.9996 6.36902 15.9996L13.5 16C14.0623 16 16 14.3123 16 13.75Z" fill="url(#paint0_linear_967_2402)"/>
<path d="M14.5455 3.62982V1.01818C14.5455 0.455855 14.0896 0 13.5273 0H10.2541C10.206 0 10.1578 0.00349091 10.1101 0.0101818L0.874182 1.3296C0.372509 1.40116 0 1.83084 0 2.33745V6.25571C0 6.81818 0.456 7.27404 1.01847 7.27389L5.65309 7.27273C5.76247 7.27273 5.87113 7.25513 5.97484 7.22051L13.8493 4.59564C14.265 4.45702 14.5455 4.06793 14.5455 3.62967V3.62982Z" fill="url(#paint1_linear_967_2402)"/>
<path d="M14.5439 3.98691L14.5435 1.01804C14.5435 0.455854 14.0876 0 13.5253 0H10.6486C10.3515 0 10.069 0.129891 9.87552 0.355491L1.69822 9.89586C1.54011 10.0804 1.45312 10.3155 1.45312 10.5585V13.5274C1.45312 14.0897 1.90898 14.5456 2.47131 14.5456H5.3484C5.64556 14.5456 5.92803 14.4157 6.12149 14.1901L14.2988 4.64975C14.4571 4.46516 14.5439 4.23011 14.5439 3.98691Z" fill="#FF318C"/>
<path d="M13 3H3V13H13V3Z" fill="black"/>
<path d="M8 11H4.5V11.5H8V11Z" fill="white"/>
<path d="M6.06158 8.23128C5.7043 8.23128 5.38073 8.14757 5.09087 7.98057C4.80116 7.81157 4.57358 7.58057 4.40816 7.28728C4.24287 6.99228 4.16016 6.66328 4.16016 6.30057C4.16016 5.93785 4.24287 5.60985 4.40816 5.31657C4.57344 5.02157 4.80101 4.79028 5.09087 4.62328C5.38058 4.45428 5.70416 4.37 6.06158 4.37C6.36373 4.37 6.64116 4.426 6.89358 4.538C7.14601 4.65 7.35573 4.80728 7.52287 5.01C7.69173 5.211 7.80458 5.442 7.86158 5.70328H7.09887C7.04901 5.56828 6.97444 5.45 6.87487 5.34857C6.77701 5.24557 6.65887 5.16628 6.52016 5.11128C6.38144 5.05628 6.2303 5.02857 6.06687 5.02857C5.84644 5.02857 5.6473 5.08357 5.46958 5.19385C5.29187 5.30414 5.1523 5.45614 5.05087 5.64985C4.9513 5.84185 4.90158 6.05885 4.90158 6.30057C4.90158 6.54228 4.9513 6.76028 5.05087 6.95385C5.15216 7.14585 5.29173 7.29685 5.46958 7.40714C5.6473 7.51742 5.84644 7.57242 6.06687 7.57242C6.23044 7.57242 6.38158 7.54471 6.52016 7.48971C6.65887 7.43471 6.77701 7.35642 6.87487 7.255C6.97444 7.152 7.04901 7.03271 7.09887 6.89771H7.86158C7.80473 7.15899 7.69173 7.391 7.52287 7.59371C7.35573 7.79471 7.14601 7.951 6.89358 8.063C6.64116 8.175 6.36373 8.231 6.06158 8.231V8.23128ZM9.1103 4.43385V7.51114H10.881V8.16714H8.38501V4.43385H9.1103Z" fill="white"/>
<path d="M14.0472 16H5.95284C5.69639 16 5.44245 15.9495 5.20552 15.8513C4.96859 15.7532 4.75331 15.6094 4.57198 15.428C4.39064 15.2467 4.24679 15.0314 4.14865 14.7945C4.05051 14.5576 4 14.3036 4 14.0472V11.9528C4 11.6964 4.05051 11.4424 4.14865 11.2055C4.24679 10.9686 4.39064 10.7533 4.57198 10.572C4.75331 10.3906 4.96859 10.2468 5.20552 10.1486C5.44245 10.0505 5.69639 10 5.95284 10H14.0472C14.3036 10 14.5576 10.0505 14.7945 10.1486C15.0314 10.2468 15.2467 10.3906 15.428 10.572C15.6094 10.7533 15.7532 10.9686 15.8513 11.2055C15.9495 11.4424 16 11.6964 16 11.9528V14.0472C16 14.5651 15.7943 15.0618 15.428 15.428C15.0618 15.7943 14.5651 16 14.0472 16V16Z" fill="#FDB60D"/>
<path d="M6.22656 11.689H8.28625V12.2236H6.82338V12.7775H8.11076V13.3118H6.82338V13.8853H8.30582V14.4197H6.22656V11.689Z" fill="black"/>
<path d="M9.77942 11.6697H10.3333L11.5036 14.4197H10.8756L10.6259 13.8073H9.47136L9.22171 14.4197H8.60938L9.77942 11.6697ZM10.4116 13.2768L10.0486 12.3912L9.68596 13.2768H10.4116Z" fill="black"/>
<path d="M11.9219 11.689H13.0376C13.17 11.6733 13.3044 11.6861 13.4315 11.7266C13.5586 11.767 13.6756 11.8342 13.7746 11.9236C13.8736 12.013 13.9524 12.1226 14.0055 12.245C14.0587 12.3673 14.0851 12.4996 14.0829 12.633V12.6409C14.0818 12.7792 14.0513 12.9156 13.9934 13.0412C13.9356 13.1669 13.8517 13.2787 13.7473 13.3695C13.643 13.4602 13.5205 13.5278 13.3881 13.5676C13.2557 13.6075 13.1163 13.6187 12.9792 13.6006H12.5228V14.4197H11.9219V11.689ZM12.9985 13.066C13.0575 13.0735 13.1175 13.0685 13.1744 13.0512C13.2314 13.0339 13.284 13.0048 13.3289 12.9658C13.3739 12.9268 13.4101 12.8787 13.4351 12.8247C13.4602 12.7707 13.4736 12.7121 13.4744 12.6526V12.6447C13.4744 12.3757 13.2872 12.2313 12.9868 12.2313H12.5228V13.066H12.9985Z" fill="black"/>
<defs>
<linearGradient id="paint0_linear_967_2402" x1="0.995346" y1="1.05561" x2="15.6717" y2="15.7318" gradientUnits="userSpaceOnUse">
<stop offset="0.29" stop-color="#009AE5"/>
<stop offset="0.7" stop-color="#00D980"/>
</linearGradient>
<linearGradient id="paint1_linear_967_2402" x1="14.0947" y1="-0.179345" x2="0.688146" y2="6.03636" gradientUnits="userSpaceOnUse">
<stop offset="0.3" stop-color="#FF318C"/>
<stop offset="0.54" stop-color="#009AE5"/>
</linearGradient>
</defs>
</svg>
