<svg width="16" height="16" viewBox="0 0 16 16" fill="none" xmlns="http://www.w3.org/2000/svg">
<g clip-path="url(#clip0_966_4803)">
<path d="M16 14.9819V6.48979C16 6.08252 15.7572 5.71437 15.383 5.55394L6.01033 1.53692C5.88364 1.48266 5.74705 1.45459 5.60916 1.45459H1.01818C0.455855 1.45459 0 1.91044 0 2.47277V6.96426C0 7.16543 0.0596364 7.36208 0.171345 7.5295L5.52218 15.5467C5.71098 15.8297 6.0288 15.9996 6.36902 15.9996L14.9818 16C15.5441 16 16 15.5442 16 14.9819Z" fill="url(#paint0_linear_966_4803)"/>
<path d="M14.5455 3.62982V1.01818C14.5455 0.455855 14.0896 0 13.5273 0H10.2541C10.206 0 10.1578 0.00349091 10.1101 0.0101818L0.874182 1.3296C0.372655 1.40116 0 1.83084 0 2.33745V6.25571C0 6.81818 0.456 7.27404 1.01847 7.27389L5.65309 7.27273C5.76247 7.27273 5.87113 7.25513 5.97484 7.22051L13.8493 4.59564C14.265 4.45702 14.5455 4.06793 14.5455 3.62967V3.62982Z" fill="url(#paint1_linear_966_4803)"/>
<path d="M14.544 3.98691L14.5436 1.01804C14.5435 0.455854 14.0876 0 13.5254 0H10.6488C10.3516 0 10.0691 0.129891 9.87567 0.355491L1.69822 9.89586C1.54011 10.0804 1.45312 10.3155 1.45312 10.5585V13.5274C1.45312 14.0897 1.90898 14.5456 2.47131 14.5456H5.3484C5.64556 14.5456 5.92803 14.4157 6.12149 14.1901L14.2989 4.64975C14.4572 4.46516 14.544 4.23011 14.544 3.98691Z" fill="#F0EB18"/>
<path d="M13 3H3V13H13V3Z" fill="black"/>
<path d="M4.48438 4.4969H5.90566C6.25938 4.4969 6.5758 4.57829 6.85495 4.74107C7.1358 4.90385 7.35538 5.13101 7.51366 5.41936C7.6718 5.70756 7.75095 6.03312 7.75095 6.39603C7.75095 6.75894 7.6718 7.08449 7.51366 7.37604C7.35538 7.66424 7.1358 7.88806 6.85495 8.05084C6.5758 8.21362 6.25938 8.29501 5.90566 8.29501H4.48438V4.4969ZM5.89766 7.65421C6.11995 7.65421 6.31452 7.60335 6.48166 7.50161C6.6488 7.40322 6.77766 7.25744 6.86838 7.06749C6.95909 6.87753 7.00438 6.65371 7.00438 6.39603C7.00438 6.13834 6.95909 5.91452 6.86838 5.72457C6.77766 5.53461 6.6488 5.38884 6.48166 5.29045C6.31452 5.18871 6.1198 5.13784 5.89766 5.13784H5.21238V7.65407H5.89766V7.65421ZM9.49866 8.35954C9.22852 8.35954 8.98852 8.31201 8.77866 8.21028C8.57066 8.11203 8.40709 7.97294 8.28795 7.79316C8.17066 7.61337 8.11023 7.40656 8.10666 7.17591H8.83738C8.83738 7.28448 8.8658 7.38272 8.92266 7.46411C8.97952 7.54884 9.05866 7.61337 9.15995 7.66075C9.26123 7.70828 9.3778 7.73197 9.50923 7.73197C9.64066 7.73197 9.74566 7.70828 9.83995 7.66759C9.93595 7.62355 10.0098 7.56585 10.0612 7.4878C10.1145 7.41324 10.1412 7.32503 10.1412 7.23012C10.1412 7.10804 10.1048 7.0063 10.0319 6.92825C9.9608 6.84686 9.86223 6.79265 9.73595 6.76213L9.07723 6.61287C8.89952 6.57218 8.7448 6.5043 8.61323 6.4094C8.48166 6.31101 8.37952 6.19241 8.30652 6.04998C8.23366 5.90421 8.19723 5.74477 8.19723 5.56499C8.19723 5.348 8.25238 5.15455 8.36252 4.98175C8.4728 4.8088 8.62652 4.6732 8.8238 4.57815C9.02109 4.47975 9.24509 4.43237 9.4958 4.43237C9.74652 4.43237 9.97666 4.47975 10.1758 4.57132C10.3749 4.66622 10.5297 4.79848 10.6398 4.96474C10.7518 5.13086 10.8087 5.32416 10.8105 5.5413H10.0825C10.0825 5.44974 10.0585 5.36835 10.0105 5.29379C9.96252 5.21923 9.89409 5.16487 9.80523 5.12418C9.71809 5.08348 9.61766 5.05979 9.50395 5.05979C9.39023 5.05979 9.2898 5.08014 9.20266 5.12084C9.11738 5.15819 9.05066 5.2124 9.00266 5.28361C8.95466 5.35149 8.93066 5.43288 8.93066 5.52444C8.93066 5.62952 8.96352 5.71774 9.02938 5.78561C9.09695 5.85348 9.18852 5.90435 9.30409 5.93138L9.9388 6.07381C10.1219 6.11117 10.2847 6.18238 10.4268 6.2908C10.5708 6.39588 10.6828 6.5248 10.7628 6.68074C10.8428 6.83335 10.8828 7.00296 10.8828 7.18608C10.8828 7.4099 10.8241 7.61003 10.7068 7.78967C10.5912 7.96596 10.4287 8.10839 10.2188 8.20679C10.0091 8.30852 9.76909 8.35939 9.4988 8.35939L9.49866 8.35954Z" fill="white"/>
<path d="M8 11H4.5V11.5H8V11Z" fill="white"/>
</g>
<defs>
<linearGradient id="paint0_linear_966_4803" x1="0.995491" y1="1.05561" x2="15.6717" y2="15.7318" gradientUnits="userSpaceOnUse">
<stop offset="0.28" stop-color="#007DFE"/>
<stop offset="0.73" stop-color="#00D980"/>
</linearGradient>
<linearGradient id="paint1_linear_966_4803" x1="14.0947" y1="-0.179345" x2="0.484655" y2="6.13076" gradientUnits="userSpaceOnUse">
<stop offset="0.32" stop-color="#F0EB18"/>
<stop offset="0.55" stop-color="#007DFE"/>
</linearGradient>
<clipPath id="clip0_966_4803">
<rect width="16" height="16" fill="white"/>
</clipPath>
</defs>
</svg>
