<svg width="16" height="16" viewBox="0 0 16 16" fill="none" xmlns="http://www.w3.org/2000/svg">
<g clip-path="url(#clip0_967_2238)">
<path d="M12.0118 14.5455L14.9807 14.5451C15.543 14.5451 15.9987 14.0892 15.9987 13.5269V10.6502C15.9987 10.3531 15.8688 10.0706 15.6432 9.87714L6.10287 1.69968C5.91829 1.54157 5.68323 1.45459 5.44018 1.45459H2.47131C1.90898 1.45459 1.45312 1.91044 1.45312 2.47277V5.34986C1.45312 5.64703 1.58302 5.9295 1.80862 6.12295L11.3488 14.3003C11.5334 14.4585 11.7685 14.5454 12.0117 14.5454L12.0118 14.5455Z" fill="#00D886"/>
<path d="M12.3706 14.5455H14.9823C15.5446 14.5455 16.0005 14.0896 16.0005 13.5273V10.2541C16.0005 10.206 15.997 10.1578 15.9903 10.1101L14.6709 0.874182C14.5993 0.372655 14.1696 0 13.663 0H9.74474C9.18227 0 8.72642 0.456 8.72656 1.01847L8.72773 5.65309C8.72773 5.76247 8.74533 5.87113 8.77994 5.97484L11.4048 13.8493C11.5434 14.265 11.9325 14.5455 12.3708 14.5455H12.3706Z" fill="url(#paint0_linear_967_2238)"/>
<path d="M1.01818 16H9.51025C9.91753 16 10.2857 15.7572 10.4461 15.383L14.4631 6.01033C14.5174 5.88364 14.5455 5.74705 14.5455 5.60916V1.01818C14.5455 0.455855 14.0896 0 13.5273 0H9.03578C8.83462 0 8.63796 0.0596364 8.47055 0.171345L0.453382 5.52204C0.170327 5.71098 0.000436364 6.02865 0.000436364 6.36887L0 14.9818C0 15.5441 0.455855 16 1.01818 16Z" fill="url(#paint1_linear_967_2238)"/>
<path d="M13 3H3V13H13V3Z" fill="black"/>
<path d="M5.9328 8.38496C5.56962 8.38496 5.24071 8.29986 4.94607 8.13011C4.65158 7.95832 4.42025 7.72351 4.25209 7.42538C4.08408 7.12552 4 6.79109 4 6.42239C4 6.05369 4.08408 5.72028 4.25209 5.42215C4.42011 5.12228 4.65143 4.88718 4.94607 4.71743C5.24057 4.54564 5.56948 4.45996 5.9328 4.45996C6.2273 4.45996 6.49841 4.51253 6.746 4.61723C6.99534 4.72193 7.20503 4.86932 7.37493 5.05912C7.54657 5.24891 7.66681 5.46746 7.7355 5.71505H6.94393C6.88614 5.59583 6.80743 5.49273 6.7081 5.40603C6.61052 5.3176 6.4958 5.24978 6.3638 5.20273C6.23195 5.15394 6.09007 5.12954 5.93818 5.12954C5.71411 5.12954 5.51168 5.18545 5.33104 5.29756C5.15039 5.40966 5.00851 5.56417 4.90541 5.76108C4.8042 5.95625 4.75366 6.17683 4.75366 6.42253C4.75366 6.66824 4.8042 6.88983 4.90541 7.0866C5.00837 7.28177 5.15024 7.43526 5.33104 7.54736C5.51183 7.65947 5.71411 7.71538 5.93818 7.71538C6.14598 7.71538 6.33389 7.67646 6.50204 7.59877C6.67194 7.52123 6.80656 7.41348 6.90589 7.27625C7.00521 7.13902 7.05865 6.98451 7.06577 6.81272L7.06853 6.89129H6.17676V6.30854H7.78414V6.60667C7.78414 6.94109 7.70282 7.24372 7.54018 7.51469C7.37928 7.78406 7.15798 7.99622 6.87612 8.15175C6.596 8.30727 6.28161 8.38482 5.9328 8.38482V8.38496ZM10.0586 7.7344C10.2827 7.7344 10.4843 7.67849 10.6632 7.56639C10.8421 7.45254 10.9821 7.29629 11.0833 7.09749C11.1845 6.89695 11.235 6.67187 11.235 6.42253C11.235 6.1732 11.1845 5.94913 11.0833 5.75034C10.9821 5.5498 10.8421 5.39354 10.6632 5.28144C10.4843 5.16759 10.2827 5.11067 10.0586 5.11067C9.83457 5.11067 9.63214 5.16759 9.45149 5.28144C9.27259 5.39354 9.13159 5.5498 9.02863 5.75034C8.92741 5.94928 8.87688 6.1732 8.87688 6.42253C8.87688 6.67187 8.92741 6.89695 9.02863 7.09749C9.13159 7.29643 9.27259 7.45254 9.45149 7.56639C9.63214 7.67849 9.83457 7.7344 10.0586 7.7344ZM10.0559 8.38496C9.69269 8.38496 9.36291 8.29986 9.06653 8.13011C8.77204 7.95832 8.53969 7.72351 8.36994 7.42538C8.20192 7.12552 8.11784 6.79109 8.11784 6.42239C8.11784 6.05369 8.20192 5.72028 8.36994 5.42215C8.53984 5.12228 8.77204 4.88718 9.06653 4.71743C9.36291 4.54564 9.69269 4.45996 10.0559 4.45996C10.4191 4.45996 10.7507 4.54564 11.0452 4.71743C11.3416 4.88718 11.5738 5.12228 11.7418 5.42215C11.9098 5.72028 11.9939 6.05369 11.9939 6.42239C11.9939 6.79109 11.9098 7.12552 11.7418 7.42538C11.5738 7.72351 11.3416 7.95832 11.0452 8.13011C10.7507 8.29986 10.4208 8.38496 10.0559 8.38496Z" fill="white"/>
<path d="M8 11H4.5V11.5H8V11Z" fill="white"/>
<path d="M14.0472 16H5.95284C5.69639 16 5.44245 15.9495 5.20552 15.8513C4.96859 15.7532 4.75331 15.6094 4.57198 15.428C4.39064 15.2467 4.24679 15.0314 4.14865 14.7945C4.05051 14.5576 4 14.3036 4 14.0472V11.9528C4 11.6964 4.05051 11.4424 4.14865 11.2055C4.24679 10.9686 4.39064 10.7533 4.57198 10.572C4.75331 10.3906 4.96859 10.2468 5.20552 10.1486C5.44245 10.0505 5.69639 10 5.95284 10H14.0472C14.3036 10 14.5576 10.0505 14.7945 10.1486C15.0314 10.2468 15.2467 10.3906 15.428 10.572C15.6094 10.7533 15.7532 10.9686 15.8513 11.2055C15.9495 11.4424 16 11.6964 16 11.9528V14.0472C16 14.5651 15.7943 15.0618 15.428 15.428C15.0618 15.7943 14.5651 16 14.0472 16V16Z" fill="#FDB60D"/>
<path d="M6.22656 11.689H8.28625V12.2236H6.82338V12.7775H8.11076V13.3118H6.82338V13.8853H8.30582V14.4197H6.22656V11.689Z" fill="black"/>
<path d="M9.77942 11.6697H10.3333L11.5036 14.4197H10.8756L10.6259 13.8073H9.47136L9.22171 14.4197H8.60938L9.77942 11.6697ZM10.4116 13.2768L10.0486 12.3912L9.68596 13.2768H10.4116Z" fill="black"/>
<path d="M11.9219 11.689H13.0376C13.17 11.6733 13.3044 11.6861 13.4315 11.7266C13.5586 11.767 13.6756 11.8342 13.7746 11.9236C13.8736 12.013 13.9524 12.1226 14.0055 12.245C14.0587 12.3673 14.0851 12.4996 14.0829 12.633V12.6409C14.0818 12.7792 14.0513 12.9156 13.9934 13.0412C13.9356 13.1669 13.8517 13.2787 13.7473 13.3695C13.643 13.4602 13.5205 13.5278 13.3881 13.5676C13.2557 13.6075 13.1163 13.6187 12.9792 13.6006H12.5228V14.4197H11.9219V11.689ZM12.9985 13.066C13.0575 13.0735 13.1175 13.0685 13.1744 13.0512C13.2314 13.0339 13.284 13.0048 13.3289 12.9658C13.3739 12.9268 13.4101 12.8787 13.4351 12.8247C13.4602 12.7707 13.4736 12.7121 13.4744 12.6526V12.6447C13.4744 12.3757 13.2872 12.2313 12.9868 12.2313H12.5228V13.066H12.9985Z" fill="black"/>
</g>
<defs>
<linearGradient id="paint0_linear_967_2238" x1="15.9093" y1="13.5113" x2="9.82998" y2="0.398982" gradientUnits="userSpaceOnUse">
<stop offset="0.24" stop-color="#00D886"/>
<stop offset="0.51" stop-color="#007DFE"/>
</linearGradient>
<linearGradient id="paint1_linear_967_2238" x1="14.8448" y1="1.09513" x2="0.168581" y2="15.7713" gradientUnits="userSpaceOnUse">
<stop offset="0.27" stop-color="#007DFE"/>
<stop offset="0.7" stop-color="#D249FC"/>
</linearGradient>
<clipPath id="clip0_967_2238">
<rect width="16" height="16" fill="white"/>
</clipPath>
</defs>
</svg>
