<svg width="16" height="16" viewBox="0 0 16 16" fill="none" xmlns="http://www.w3.org/2000/svg">
<path d="M9.1333 3.13332L8.26664 1.59999L5.9333 2.73332L2.86664 2.99999L3.3333 8.26666L7.66664 7.53332L9.1333 3.13332Z" fill="url(#paint0_linear)"/>
<path d="M4.66666 4.46666L0.533325 3.39999L1.93333 12L9.19999 12.4L4.66666 4.46666Z" fill="url(#paint1_linear)"/>
<path d="M6.66668 7.93333L1.93335 12L9.20002 12.4L6.66668 7.93333Z" fill="url(#paint2_linear)"/>
<path d="M9.19999 12.3333L8.53333 5.06666L10.4667 3.33332L13.5333 2.06666L15.4667 6.93332L9.19999 12.3333Z" fill="url(#paint3_linear)"/>
<path d="M9.19999 12.3333L8.53333 5.06666L11.4667 6.13332L15.4667 6.93332L9.19999 12.3333Z" fill="url(#paint4_linear)"/>
<path d="M12.6666 6.86666L11.7333 4.86666L4.06665 6.39999L4.86665 13.7333L9.86665 15.4667L15.4667 12.1333L12.6666 6.86666Z" fill="url(#paint5_linear)"/>
<path d="M12.6667 6.86666L11.7333 4.93333L8.73334 7.26666L9.86667 15.5333L15.4667 12.1333L12.6667 6.86666Z" fill="url(#paint6_linear)"/>
<path d="M8.73334 7.19999V7.33333L9.4 12.1333L13.6 8.59999L12.6667 6.86666L11.7333 4.93333L8.73334 7.19999Z" fill="url(#paint7_linear)"/>
<path d="M5.06665 6.19999L9.19998 12.4L12.5333 9.46666L10.2 5.19999L5.06665 6.19999Z" fill="url(#paint8_linear)"/>
<path d="M8.73332 7.26666L4.06665 6.39999L4.86665 13.7333L9.86665 15.4667L8.73332 7.26666Z" fill="url(#paint9_linear)"/>
<path d="M9.39998 12.2L8.73332 7.26666L4.06665 6.39999L4.33332 8.99999L9.19998 12.4L9.39998 12.2Z" fill="url(#paint10_linear)"/>
<path d="M9.39996 12.2L8.86663 8.19999L7.39996 9.26666L9.1333 12.4H9.19996L9.39996 12.2Z" fill="url(#paint11_linear)"/>
<path d="M5.99998 6.73333L4.06665 6.39999L4.66665 12.1333L9.19998 12.4L5.99998 6.73333Z" fill="url(#paint12_linear)"/>
<path d="M7 12.2667L9.2 12.4L7.33333 9.19999L7 12.2667Z" fill="url(#paint13_linear)"/>
<path d="M8.73332 7.26666L4.06665 6.39999L9.73332 1.39999L13.5333 2.06666L11 4.66666L11.7333 4.93333L8.73332 7.26666Z" fill="url(#paint14_linear)"/>
<path d="M9.13332 3.13333L8.66665 2.33333L4.06665 6.4L8.73332 7.26666L10.6 5.79999L9.13332 3.13333Z" fill="url(#paint15_linear)"/>
<path d="M8.26666 1.59999L3.06666 0.46666L0.533325 3.39999L4.66666 4.46666L8.26666 1.59999Z" fill="url(#paint16_linear)"/>
<path d="M5.06666 4.13333L3.06666 0.46666L0.533325 3.39999L4.66666 4.46666L5.06666 4.13333Z" fill="url(#paint17_linear)"/>
<path d="M6.9333 12.2667L4.86664 13.7333L9.86664 15.4667L9.39997 12.2L9.19997 12.4L6.9333 12.2667Z" fill="url(#paint18_linear)"/>
<path d="M15.4667 12.1333L12.5333 9.46666L11 4.66666L11.7333 4.93332L15.4667 12.1333Z" fill="url(#paint19_linear)"/>
<path d="M11.2 5.33332L11.7333 4.93332L11 4.66666L11.2 5.33332Z" fill="url(#paint20_linear)"/>
<path d="M11 6.59999L8.86664 8.19999L9.39997 12.2L12.5333 9.46666L11 6.59999Z" fill="url(#paint21_linear)"/>
<path d="M12.6666 3.33334H3.33331V12.6667H12.6666V3.33334Z" fill="url(#paint22_linear)"/>
<path d="M8.66663 10.6667H4.66663V11.3333H8.66663V10.6667Z" fill="white"/>
<path d="M8.13324 8.06669L8.66657 7.46669C8.99991 7.73335 9.39991 7.93335 9.86657 7.93335C10.1999 7.93335 10.4666 7.80002 10.4666 7.53335C10.4666 7.33335 10.3332 7.20002 9.66657 7.00002C8.86657 6.80002 8.33324 6.60002 8.33324 5.80002C8.33324 5.06669 8.93324 4.60002 9.73324 4.60002C10.3332 4.60002 10.7999 4.80002 11.1999 5.13335L10.7332 5.80002C10.3999 5.53335 9.99991 5.40002 9.66657 5.40002C9.33324 5.40002 9.13324 5.53335 9.13324 5.73335C9.13324 6.00002 9.33324 6.06669 9.99991 6.26669C10.8666 6.46669 11.3332 6.80002 11.3332 7.46669C11.3332 8.26669 10.7332 8.73335 9.86657 8.73335C9.26657 8.73335 8.66657 8.53335 8.13324 8.06669Z" fill="white"/>
<path d="M4.66663 4.66667H6.26663C7.19996 4.66667 7.73329 5.20001 7.73329 6.06667C7.73329 7.00001 6.99996 7.46667 6.13329 7.46667H5.46663V8.66667H4.66663V4.66667ZM6.19996 6.66667C6.59996 6.66667 6.86663 6.40001 6.86663 6.06667C6.86663 5.66667 6.59996 5.46667 6.19996 5.46667H5.53329V6.66667H6.19996Z" fill="white"/>
<path d="M13.7129 15.3607H6.18464C5.72426 15.3607 5.28274 15.1778 4.95721 14.8523C4.63168 14.5268 4.44879 14.0852 4.44879 13.6248V11.7633C4.50341 11.3219 4.70385 10.9114 5.01832 10.5969C5.33279 10.2825 5.74328 10.082 6.18464 10.0273H13.7129C14.1733 10.0273 14.6148 10.2103 14.9404 10.5358C15.2659 10.8613 15.4488 11.3029 15.4488 11.7633V13.6248C15.4488 14.0852 15.2659 14.5268 14.9404 14.8523C14.6148 15.1778 14.1733 15.3607 13.7129 15.3607Z" fill="#FDB60D"/>
<path d="M6.65791 11.4923H8.54598V11.9823H7.205V12.4902H8.3851V12.98H7.205V13.5056H8.5639V13.9954H6.6579L6.65791 11.4923Z" fill="black"/>
<path d="M9.91187 11.4746H10.4196L11.4924 13.9954H10.9167L10.6878 13.4342H9.62947L9.40063 13.9954H8.83929L9.91187 11.4746ZM10.4913 12.9478L10.1587 12.1361L9.82622 12.9478H10.4913Z" fill="black"/>
<path d="M11.8786 11.4924H12.9013C13.0228 11.478 13.1459 11.4897 13.2624 11.5268C13.3789 11.5639 13.4862 11.6254 13.5769 11.7074C13.6677 11.7894 13.7399 11.8898 13.7886 12.002C13.8374 12.1141 13.8615 12.2354 13.8596 12.3577V12.3649C13.8585 12.4917 13.8306 12.6167 13.7775 12.7319C13.7245 12.847 13.6476 12.9496 13.5519 13.0328C13.4563 13.116 13.344 13.1779 13.2226 13.2145C13.1012 13.251 12.9735 13.2612 12.8478 13.2447H12.4294V13.9955H11.8786L11.8786 11.4924ZM12.8655 12.7547C12.9196 12.7615 12.9746 12.7569 13.0268 12.7411C13.079 12.7252 13.1272 12.6985 13.1684 12.6627C13.2096 12.6269 13.2428 12.5829 13.2658 12.5334C13.2887 12.4839 13.301 12.4302 13.3018 12.3756V12.3684C13.3018 12.1219 13.1302 11.9894 12.8548 11.9894H12.4294V12.7547H12.8655Z" fill="black"/>
<defs>
<linearGradient id="paint0_linear" x1="3.26557" y1="9.14906" x2="7.50117" y2="1.01486" gradientUnits="userSpaceOnUse">
<stop stop-color="#AF1DF5"/>
<stop offset="0.2116" stop-color="#BC20E4"/>
<stop offset="0.6282" stop-color="#DD29B8"/>
<stop offset="1" stop-color="#FF318C"/>
</linearGradient>
<linearGradient id="paint1_linear" x1="2.02953" y1="11.6218" x2="7.16359" y2="4.84026" gradientUnits="userSpaceOnUse">
<stop offset="0.1207" stop-color="#6B57FF"/>
<stop offset="0.4014" stop-color="#B74AF7"/>
<stop offset="0.7088" stop-color="#FF318C"/>
<stop offset="0.8648" stop-color="#FF7FB8"/>
</linearGradient>
<linearGradient id="paint2_linear" x1="2.77708" y1="13.7485" x2="6.71682" y2="11.021" gradientUnits="userSpaceOnUse">
<stop offset="0.0892486" stop-color="#6B57FF"/>
<stop offset="0.4021" stop-color="#8253FD"/>
<stop offset="0.4579" stop-color="#8A52FC"/>
<stop offset="0.7051" stop-color="#AB4CF8"/>
<stop offset="0.8412" stop-color="#B74AF7"/>
</linearGradient>
<linearGradient id="paint3_linear" x1="13.0723" y1="11.2783" x2="9.78193" y2="3.46912" gradientUnits="userSpaceOnUse">
<stop stop-color="#4335BE"/>
<stop offset="0.1308" stop-color="#5638C7"/>
<stop offset="0.5322" stop-color="#8A42E1"/>
<stop offset="0.8343" stop-color="#AB48F1"/>
<stop offset="1" stop-color="#B74AF7"/>
</linearGradient>
<linearGradient id="paint4_linear" x1="13.0112" y1="11.2424" x2="10.0844" y2="4.29606" gradientUnits="userSpaceOnUse">
<stop stop-color="#4335BE"/>
<stop offset="0.2419" stop-color="#663BCF"/>
<stop offset="0.7408" stop-color="#B74AF7"/>
</linearGradient>
<linearGradient id="paint5_linear" x1="11.3344" y1="13.7915" x2="6.60478" y2="6.85899" gradientUnits="userSpaceOnUse">
<stop offset="0.016129" stop-color="#6B57FF"/>
<stop offset="0.7829" stop-color="#B74AF7"/>
</linearGradient>
<linearGradient id="paint6_linear" x1="12.8003" y1="13.1222" x2="9.37714" y2="8.10473" gradientUnits="userSpaceOnUse">
<stop offset="0.016129" stop-color="#6B57FF"/>
<stop offset="0.7829" stop-color="#B74AF7"/>
</linearGradient>
<linearGradient id="paint7_linear" x1="17.8278" y1="11.9316" x2="7.14034" y2="6.9294" gradientUnits="userSpaceOnUse">
<stop stop-color="#4335BE"/>
<stop offset="0.2419" stop-color="#663BCF"/>
<stop offset="0.7408" stop-color="#B74AF7"/>
</linearGradient>
<linearGradient id="paint8_linear" x1="11.8693" y1="13.6687" x2="7.22871" y2="4.80939" gradientUnits="userSpaceOnUse">
<stop offset="0.016129" stop-color="#6B57FF"/>
<stop offset="0.7829" stop-color="#B74AF7"/>
</linearGradient>
<linearGradient id="paint9_linear" x1="9.57045" y1="14.5676" x2="5.00472" y2="7.87533" gradientUnits="userSpaceOnUse">
<stop offset="0.016129" stop-color="#6B57FF"/>
<stop offset="0.6909" stop-color="#B74AF7"/>
</linearGradient>
<linearGradient id="paint10_linear" x1="5.79925" y1="11.1281" x2="8.06312" y2="6.78039" gradientUnits="userSpaceOnUse">
<stop offset="0.016129" stop-color="#6B57FF"/>
<stop offset="0.6969" stop-color="#A329F5"/>
</linearGradient>
<linearGradient id="paint11_linear" x1="6.9879" y1="6.46372" x2="9.44383" y2="11.2851" gradientUnits="userSpaceOnUse">
<stop offset="0.016129" stop-color="#6B57FF"/>
<stop offset="0.6969" stop-color="#A329F5"/>
</linearGradient>
<linearGradient id="paint12_linear" x1="4.07452" y1="13.9512" x2="8.02178" y2="6.92693" gradientUnits="userSpaceOnUse">
<stop offset="0.0242547" stop-color="#6B57FF"/>
<stop offset="0.263" stop-color="#6B57FF"/>
<stop offset="0.706" stop-color="#B74AF7"/>
<stop offset="0.7659" stop-color="#BC48F0"/>
<stop offset="0.8555" stop-color="#CA44DB"/>
<stop offset="0.9632" stop-color="#E03CBA"/>
<stop offset="1" stop-color="#E939AD"/>
</linearGradient>
<linearGradient id="paint13_linear" x1="6.82027" y1="13.3597" x2="8.73853" y2="9.94606" gradientUnits="userSpaceOnUse">
<stop offset="0.0455723" stop-color="#6B57FF"/>
<stop offset="0.295" stop-color="#8A52FC"/>
<stop offset="0.5991" stop-color="#AB4CF8"/>
<stop offset="0.7667" stop-color="#B74AF7"/>
</linearGradient>
<linearGradient id="paint14_linear" x1="9.90092" y1="10.0704" x2="8.33392" y2="1.78353" gradientUnits="userSpaceOnUse">
<stop offset="0.016129" stop-color="#6B57FF"/>
<stop offset="0.5665" stop-color="#B74AF7"/>
<stop offset="0.9064" stop-color="#C276FF"/>
</linearGradient>
<linearGradient id="paint15_linear" x1="6.25225" y1="8.18446" x2="9.22112" y2="2.48293" gradientUnits="userSpaceOnUse">
<stop offset="0.016129" stop-color="#6B57FF"/>
<stop offset="0.5974" stop-color="#B74AF7"/>
</linearGradient>
<linearGradient id="paint16_linear" x1="2.20659" y1="6.47253" x2="5.02013" y2="1.36653" gradientUnits="userSpaceOnUse">
<stop offset="0.0874352" stop-color="#AF1DF5"/>
<stop offset="0.2329" stop-color="#BC20E4"/>
<stop offset="0.5194" stop-color="#DD29B8"/>
<stop offset="0.7751" stop-color="#FF318C"/>
<stop offset="0.997" stop-color="#FF64B9"/>
</linearGradient>
<linearGradient id="paint17_linear" x1="1.77226" y1="5.61526" x2="3.50713" y2="2.46679" gradientUnits="userSpaceOnUse">
<stop offset="0.00935173" stop-color="#BC20E4"/>
<stop offset="0.4441" stop-color="#D827C0"/>
<stop offset="1" stop-color="#FF318C"/>
</linearGradient>
<linearGradient id="paint18_linear" x1="5.7333" y1="14.752" x2="9.8459" y2="13.4399" gradientUnits="userSpaceOnUse">
<stop offset="0.016129" stop-color="#6B57FF"/>
<stop offset="0.6909" stop-color="#B74AF7"/>
<stop offset="0.9772" stop-color="#BD6CF7"/>
</linearGradient>
<linearGradient id="paint19_linear" x1="13.9166" y1="8.16426" x2="12.3195" y2="8.75186" gradientUnits="userSpaceOnUse">
<stop offset="0.0753552" stop-color="#6B57FF"/>
<stop offset="0.7396" stop-color="#B74AF7"/>
</linearGradient>
<linearGradient id="paint20_linear" x1="11.1953" y1="6.02459" x2="11.3912" y2="4.62339" gradientUnits="userSpaceOnUse">
<stop stop-color="#B74AF7"/>
<stop offset="1" stop-color="#C276FF"/>
</linearGradient>
<linearGradient id="paint21_linear" x1="11.8406" y1="12.4657" x2="9.1769" y2="7.38059" gradientUnits="userSpaceOnUse">
<stop offset="0.016129" stop-color="#6B57FF"/>
<stop offset="0.7829" stop-color="#B74AF7"/>
</linearGradient>
<linearGradient id="paint22_linear" x1="3.58027" y1="3.13684" x2="11.5871" y2="11.947" gradientUnits="userSpaceOnUse">
<stop stop-color="#562274"/>
<stop offset="0.59375" stop-color="#020202"/>
</linearGradient>
</defs>
</svg>
