<svg width="16" height="16" viewBox="0 0 16 16" fill="none" xmlns="http://www.w3.org/2000/svg">
<g clip-path="url(#clip0_967_2235)">
<path d="M1.45312 12.013L1.45356 14.9819C1.45356 15.5442 1.90942 15.9999 2.47174 15.9999H5.3484C5.64556 15.9999 5.92803 15.8701 6.12149 15.6445L14.2988 6.10409C14.4569 5.91951 14.5439 5.68446 14.5439 5.4414V2.47253C14.5439 1.9102 14.088 1.45435 13.5257 1.45435H10.6486C10.3515 1.45435 10.069 1.58424 9.87552 1.80984L1.69822 11.3502C1.53996 11.5348 1.45312 11.7698 1.45312 12.013Z" fill="#00D886"/>
<path d="M1.45312 12.3701V14.9818C1.45312 15.5441 1.90898 16 2.47131 16H5.74447C5.79262 16 5.84076 15.9965 5.88847 15.9898L15.1244 14.6705C15.6261 14.5988 15.9986 14.1693 15.9986 13.6625V9.74426C15.9986 9.18178 15.5426 8.72593 14.9801 8.72607L10.3455 8.72724C10.2361 8.72724 10.1275 8.74484 10.0237 8.77946L2.14927 11.4043C1.73356 11.5429 1.45312 11.932 1.45312 12.3703V12.3701Z" fill="url(#paint0_linear_967_2235)"/>
<path d="M0 1.01818V9.51025C0 9.91753 0.242764 10.2857 0.617018 10.4461L9.98967 14.4631C10.1164 14.5174 10.2529 14.5455 10.3908 14.5455H14.9818C15.5441 14.5455 16 14.0896 16 13.5273V9.03578C16 8.83462 15.9404 8.63796 15.8287 8.47055L10.478 0.453382C10.289 0.170327 9.97135 0.000436364 9.63113 0.000436364L1.01818 0C0.455855 0 0 0.455855 0 1.01818Z" fill="url(#paint1_linear_967_2235)"/>
<path d="M13 3H3V13H13V3Z" fill="black"/>
<path d="M4.47656 4.51009H6.10842C6.37445 4.51009 6.60893 4.55896 6.81169 4.6567C7.01445 4.75445 7.17009 4.8919 7.27874 5.06936C7.38914 5.24681 7.44442 5.4522 7.44442 5.68565C7.44442 5.9191 7.38827 6.13089 7.27613 6.31009C7.16573 6.48929 7.00733 6.62878 6.80093 6.72827C6.59642 6.82601 6.35831 6.87489 6.08689 6.87489H5.21809V8.31125H4.47685V4.51009H4.47656ZM6.0594 6.25874C6.18434 6.25874 6.29285 6.23605 6.38522 6.19081C6.47933 6.14369 6.55176 6.0778 6.60238 5.99256C6.653 5.90572 6.67845 5.80521 6.67845 5.69118C6.67845 5.57714 6.65314 5.47561 6.60238 5.39256C6.55162 5.30732 6.47933 5.24216 6.38522 5.19707C6.29285 5.14994 6.18434 5.12652 6.0594 5.12652H5.21765V6.25874H6.0594ZM9.59089 8.37656C9.22711 8.37656 8.89765 8.29132 8.60253 8.12129C8.3074 7.94921 8.07584 7.71401 7.9074 7.4154C7.73911 7.11503 7.65489 6.78005 7.65489 6.41074C7.65489 6.04143 7.73911 5.70747 7.9074 5.40885C8.07569 5.10849 8.3074 4.873 8.60253 4.70296C8.89751 4.53089 9.22696 4.44507 9.59089 4.44507C9.89853 4.44507 10.181 4.50209 10.438 4.61612C10.695 4.73016 10.9086 4.8903 11.0787 5.0967C11.2507 5.30136 11.3656 5.53656 11.4236 5.8026H10.647C10.5963 5.66514 10.5203 5.5447 10.419 5.44143C10.3193 5.33656 10.199 5.25583 10.0578 5.19983C9.91656 5.14383 9.76267 5.11561 9.59627 5.11561C9.37184 5.11561 9.16907 5.17161 8.98813 5.2839C8.80704 5.3962 8.66507 5.55096 8.5618 5.7482C8.46042 5.94369 8.4098 6.16463 8.4098 6.41074C8.4098 6.65685 8.46042 6.87881 8.5618 7.0759C8.66493 7.2714 8.80704 7.42514 8.98813 7.53743C9.16907 7.64972 9.37184 7.70572 9.59627 7.70572C9.76282 7.70572 9.91671 7.6775 10.0578 7.6215C10.1989 7.5655 10.3193 7.4858 10.419 7.38252C10.5203 7.27765 10.5963 7.1562 10.647 7.01874H11.4236C11.3657 7.28478 11.2507 7.521 11.0787 7.7274C10.9086 7.93205 10.695 8.09118 10.438 8.20521C10.181 8.31925 9.89853 8.37627 9.59089 8.37627V8.37656Z" fill="white"/>
<path d="M8 11H4.5V11.5H8V11Z" fill="white"/>
<path d="M14.0472 16H5.95284C5.69639 16 5.44245 15.9495 5.20552 15.8513C4.96859 15.7532 4.75331 15.6094 4.57198 15.428C4.39064 15.2467 4.24679 15.0314 4.14865 14.7945C4.05051 14.5576 4 14.3036 4 14.0472V11.9528C4 11.6964 4.05051 11.4424 4.14865 11.2055C4.24679 10.9686 4.39064 10.7533 4.57198 10.572C4.75331 10.3906 4.96859 10.2468 5.20552 10.1486C5.44245 10.0505 5.69639 10 5.95284 10H14.0472C14.3036 10 14.5576 10.0505 14.7945 10.1486C15.0314 10.2468 15.2467 10.3906 15.428 10.572C15.6094 10.7533 15.7532 10.9686 15.8513 11.2055C15.9495 11.4424 16 11.6964 16 11.9528V14.0472C16 14.5651 15.7943 15.0618 15.428 15.428C15.0618 15.7943 14.5651 16 14.0472 16V16Z" fill="#FDB60D"/>
<path d="M6.22656 11.689H8.28625V12.2236H6.82338V12.7775H8.11076V13.3118H6.82338V13.8853H8.30582V14.4197H6.22656V11.689Z" fill="black"/>
<path d="M9.77942 11.6697H10.3333L11.5036 14.4197H10.8756L10.6259 13.8073H9.47136L9.22171 14.4197H8.60938L9.77942 11.6697ZM10.4116 13.2768L10.0486 12.3912L9.68596 13.2768H10.4116Z" fill="black"/>
<path d="M11.9219 11.689H13.0376C13.17 11.6733 13.3044 11.6861 13.4315 11.7266C13.5586 11.767 13.6756 11.8342 13.7746 11.9236C13.8736 12.013 13.9524 12.1226 14.0055 12.245C14.0587 12.3673 14.0851 12.4996 14.0829 12.633V12.6409C14.0818 12.7792 14.0513 12.9156 13.9934 13.0412C13.9356 13.1669 13.8517 13.2787 13.7473 13.3695C13.643 13.4602 13.5205 13.5278 13.3881 13.5676C13.2557 13.6075 13.1163 13.6187 12.9792 13.6006H12.5228V14.4197H11.9219V11.689ZM12.9985 13.066C13.0575 13.0735 13.1175 13.0685 13.1744 13.0512C13.2314 13.0339 13.284 13.0048 13.3289 12.9658C13.3739 12.9268 13.4101 12.8787 13.4351 12.8247C13.4602 12.7707 13.4736 12.7121 13.4744 12.6526V12.6447C13.4744 12.3757 13.2872 12.2313 12.9868 12.2313H12.5228V13.066H12.9985Z" fill="black"/>
</g>
<defs>
<linearGradient id="paint0_linear_967_2235" x1="1.90389" y1="16.1793" x2="15.3104" y2="9.96346" gradientUnits="userSpaceOnUse">
<stop offset="0.1" stop-color="#00D886"/>
<stop offset="0.59" stop-color="#F0EB18"/>
</linearGradient>
<linearGradient id="paint1_linear_967_2235" x1="15.0047" y1="14.9444" x2="0.328292" y2="0.268073" gradientUnits="userSpaceOnUse">
<stop offset="0.3" stop-color="#F0EB18"/>
<stop offset="0.7" stop-color="#00C4F4"/>
</linearGradient>
<clipPath id="clip0_967_2235">
<rect width="16" height="16" fill="white"/>
</clipPath>
</defs>
</svg>
