<svg width="16" height="16" viewBox="0 0 16 16" fill="none" xmlns="http://www.w3.org/2000/svg">
<g clip-path="url(#clip0_967_2240)">
<path d="M12.0118 14.5455L14.9807 14.5451C15.543 14.5451 15.9987 14.0892 15.9987 13.5269V10.6502C15.9987 10.3531 15.8688 10.0706 15.6432 9.87714L6.10287 1.69968C5.91829 1.54157 5.68323 1.45459 5.44018 1.45459H2.47131C1.90898 1.45459 1.45312 1.91044 1.45312 2.47277V5.34986C1.45312 5.64703 1.58302 5.9295 1.80862 6.12295L11.3488 14.3003C11.5334 14.4585 11.7685 14.5454 12.0117 14.5454L12.0118 14.5455Z" fill="#007DFE"/>
<path d="M12.3708 14.5455H14.9824C15.5447 14.5455 16.0006 14.0896 16.0006 13.5273V10.2541C16.0006 10.206 15.9971 10.1578 15.9904 10.1101L14.671 0.874182C14.5993 0.372509 14.1698 0 13.663 0H9.74474C9.18227 0 8.72642 0.456 8.72656 1.01847L8.72773 5.65309C8.72773 5.76247 8.74533 5.87113 8.77994 5.97484L11.4048 13.8493C11.5434 14.265 11.9325 14.5455 12.3708 14.5455Z" fill="url(#paint0_linear_967_2240)"/>
<path d="M1.01818 16H9.51025C9.91753 16 10.2857 15.7572 10.4461 15.383L14.4631 6.01033C14.5174 5.88364 14.5455 5.74705 14.5455 5.60916V1.01818C14.5455 0.455855 14.0896 0 13.5273 0H9.03578C8.83462 0 8.63796 0.0596364 8.47055 0.171345L0.453382 5.52204C0.170327 5.71098 0.000436364 6.02865 0.000436364 6.36887L0 14.9818C0 15.5441 0.455855 16 1.01818 16Z" fill="url(#paint1_linear_967_2240)"/>
<path d="M13 3H3V13H13V3Z" fill="black"/>
<path d="M8 11H4.5V11.5H8V11Z" fill="white"/>
<path d="M5.21378 6.86483H5.85327L6.67131 8.29997H7.52091L6.6162 6.77788C6.67655 6.75868 6.74067 6.74473 6.79621 6.71899C7.00254 6.61721 7.16089 6.47805 7.27125 6.29833C7.38336 6.11847 7.43948 5.91156 7.43948 5.67397C7.43948 5.43638 7.38423 5.2363 7.27387 5.05993C7.16525 4.88355 7.00967 4.7444 6.80697 4.64611C6.60428 4.54767 6.36989 4.50012 6.10394 4.50012H4.47266V8.29997H5.21364V6.86483H5.21378ZM5.21378 5.11751H6.05523C6.18014 5.11751 6.28861 5.14135 6.38094 5.18541C6.47502 5.23296 6.54743 5.29737 6.59803 5.38229C6.64863 5.46706 6.67407 5.5655 6.67407 5.6808C6.67407 5.79611 6.64877 5.89455 6.59803 5.98281C6.54728 6.06758 6.47502 6.13214 6.38094 6.17954C6.28861 6.22694 6.18014 6.24744 6.05523 6.24744H5.21378V5.11765V5.11751Z" fill="white"/>
<path d="M11.1497 5.42288C10.9886 5.13454 10.7651 4.90713 10.4792 4.74428C10.1951 4.58143 9.87305 4.5 9.51303 4.5H8.06641V8.29984H9.51303C9.87305 8.29984 10.1951 8.21842 10.4792 8.05557C10.7651 7.89271 10.9886 7.66879 11.1497 7.38046C11.3107 7.08863 11.3912 6.76292 11.3912 6.4C11.3912 6.03707 11.3107 5.71122 11.1497 5.42288ZM10.4929 7.07176C10.4006 7.26181 10.2694 7.4075 10.0993 7.50594C9.92918 7.60787 9.73099 7.65861 9.50489 7.65861H8.80738V5.14123H9.50489C9.73099 5.14123 9.92918 5.19212 10.0993 5.29376C10.2694 5.3922 10.4006 5.53819 10.4929 5.72808C10.5852 5.91813 10.6313 6.1419 10.6313 6.39985C10.6313 6.6578 10.5852 6.88157 10.4929 7.07162V7.07176Z" fill="white"/>
<path d="M14.0472 16H5.95284C5.69639 16 5.44245 15.9495 5.20552 15.8513C4.96859 15.7532 4.75331 15.6094 4.57198 15.428C4.39064 15.2467 4.24679 15.0314 4.14865 14.7945C4.05051 14.5576 4 14.3036 4 14.0472V11.9528C4 11.6964 4.05051 11.4424 4.14865 11.2055C4.24679 10.9686 4.39064 10.7533 4.57198 10.572C4.75331 10.3906 4.96859 10.2468 5.20552 10.1486C5.44245 10.0505 5.69639 10 5.95284 10H14.0472C14.3036 10 14.5576 10.0505 14.7945 10.1486C15.0314 10.2468 15.2467 10.3906 15.428 10.572C15.6094 10.7533 15.7532 10.9686 15.8513 11.2055C15.9495 11.4424 16 11.6964 16 11.9528V14.0472C16 14.5651 15.7943 15.0618 15.428 15.428C15.0618 15.7943 14.5651 16 14.0472 16V16Z" fill="#FDB60D"/>
<path d="M6.22656 11.689H8.28625V12.2236H6.82338V12.7775H8.11076V13.3118H6.82338V13.8853H8.30582V14.4197H6.22656V11.689Z" fill="black"/>
<path d="M9.77942 11.6697H10.3333L11.5036 14.4197H10.8756L10.6259 13.8073H9.47136L9.22171 14.4197H8.60938L9.77942 11.6697ZM10.4116 13.2768L10.0486 12.3912L9.68596 13.2768H10.4116Z" fill="black"/>
<path d="M11.9219 11.689H13.0376C13.17 11.6733 13.3044 11.6861 13.4315 11.7266C13.5586 11.767 13.6756 11.8342 13.7746 11.9236C13.8736 12.013 13.9524 12.1226 14.0055 12.245C14.0587 12.3673 14.0851 12.4996 14.0829 12.633V12.6409C14.0818 12.7792 14.0513 12.9156 13.9934 13.0412C13.9356 13.1669 13.8517 13.2787 13.7473 13.3695C13.643 13.4602 13.5205 13.5278 13.3881 13.5676C13.2557 13.6075 13.1163 13.6187 12.9792 13.6006H12.5228V14.4197H11.9219V11.689ZM12.9985 13.066C13.0575 13.0735 13.1175 13.0685 13.1744 13.0512C13.2314 13.0339 13.284 13.0048 13.3289 12.9658C13.3739 12.9268 13.4101 12.8787 13.4351 12.8247C13.4602 12.7707 13.4736 12.7121 13.4744 12.6526V12.6447C13.4744 12.3757 13.2872 12.2313 12.9868 12.2313H12.5228V13.066H12.9985Z" fill="black"/>
</g>
<defs>
<linearGradient id="paint0_linear_967_2240" x1="16.1799" y1="14.0945" x2="9.96424" y2="0.688145" gradientUnits="userSpaceOnUse">
<stop offset="0.21" stop-color="#007DFE"/>
<stop offset="0.55" stop-color="#FFB700"/>
</linearGradient>
<linearGradient id="paint1_linear_967_2240" x1="14.9444" y1="0.995346" x2="0.268218" y2="15.6717" gradientUnits="userSpaceOnUse">
<stop offset="0.23" stop-color="#FFB700"/>
<stop offset="0.73" stop-color="#FF0A67"/>
</linearGradient>
<clipPath id="clip0_967_2240">
<rect width="16" height="16" fill="white"/>
</clipPath>
</defs>
</svg>
