<svg width="16" height="16" viewBox="0 0 16 16" fill="none" xmlns="http://www.w3.org/2000/svg">
<g clip-path="url(#clip0_967_2241)">
<path d="M14.9804 0H6.48833C6.08105 0 5.71291 0.242764 5.55247 0.617018L1.53545 9.98967C1.4812 10.1164 1.45312 10.2529 1.45312 10.3908V14.9818C1.45312 15.5441 1.90898 16 2.47131 16H6.9628C7.16396 16 7.36062 15.9404 7.52803 15.8287L15.5452 10.4778C15.8283 10.289 15.9981 9.9712 15.9981 9.63098L15.9986 1.01818C15.9986 0.455855 15.5427 0 14.9804 0Z" fill="url(#paint0_linear_967_2241)"/>
<path d="M3.62982 1.45459H1.01818C0.455855 1.45459 0 1.91044 0 2.47277V5.74594C0 5.79408 0.00349091 5.84223 0.0101818 5.88994L1.32945 15.1259C1.40116 15.6275 1.83069 16 2.33745 16H6.25571C6.81818 16 7.27404 15.544 7.27389 14.9816L7.27273 10.347C7.27273 10.2376 7.25513 10.1289 7.22051 10.0252L4.59578 2.15074C4.45716 1.73503 4.06807 1.45459 3.62982 1.45459Z" fill="url(#paint1_linear_967_2241)"/>
<path d="M3.98691 1.45459L1.01804 1.45503C0.455854 1.45517 0 1.91103 0 2.47321V5.34986C0 5.64703 0.129891 5.9295 0.355491 6.12295L9.89571 14.3004C10.0803 14.4585 10.3153 14.5455 10.5584 14.5455H13.5273C14.0896 14.5455 14.5455 14.0896 14.5455 13.5273V10.6502C14.5455 10.3531 14.4156 10.0706 14.19 9.87714L4.64975 1.69983C4.46516 1.54157 4.23011 1.45474 3.98691 1.45474V1.45459Z" fill="#FF8100"/>
<path d="M13 3H3V13H13V3Z" fill="black"/>
<path d="M6.75161 6.67871C6.95432 6.581 7.10975 6.444 7.21832 6.268C7.32846 6.09029 7.38361 5.88571 7.38361 5.65457C7.38361 5.42343 7.32932 5.22357 7.22089 5.04929C7.11418 4.875 6.96132 4.74 6.76218 4.644C6.56304 4.548 6.33289 4.5 6.07146 4.5H4.46875V8.23329H5.19675V6.82257H5.82404L6.62889 8.23329H7.46361L6.57389 6.73757C6.63361 6.71857 6.69689 6.70486 6.75161 6.67871ZM5.19704 5.10529H6.02375C6.14646 5.10529 6.25304 5.12829 6.34375 5.17457C6.43618 5.21886 6.50732 5.283 6.55704 5.36657C6.60675 5.44814 6.63175 5.54614 6.63175 5.65986C6.63175 5.77357 6.60689 5.87057 6.55704 5.95586C6.50732 6.03957 6.43618 6.10414 6.34375 6.15057C6.25304 6.19486 6.14646 6.21729 6.02375 6.21729H5.19704V5.10529Z" fill="white"/>
<path d="M10.6426 4.5L9.90129 6.95071L9.84529 7.27071L9.78129 6.95071L9.01329 4.5H8V8.23343H8.71729V5.56943L8.70657 5.39343L9.56529 8.23343H10.0933L10.9626 5.37471L10.952 5.56943V8.23343H11.672V4.5H10.6426Z" fill="white"/>
<path d="M8 11H4.5V11.5H8V11Z" fill="white"/>
<path d="M14.0472 16H5.95284C5.69639 16 5.44245 15.9495 5.20552 15.8513C4.96859 15.7532 4.75331 15.6094 4.57198 15.428C4.39064 15.2467 4.24679 15.0314 4.14865 14.7945C4.05051 14.5576 4 14.3036 4 14.0472V11.9528C4 11.6964 4.05051 11.4424 4.14865 11.2055C4.24679 10.9686 4.39064 10.7533 4.57198 10.572C4.75331 10.3906 4.96859 10.2468 5.20552 10.1486C5.44245 10.0505 5.69639 10 5.95284 10H14.0472C14.3036 10 14.5576 10.0505 14.7945 10.1486C15.0314 10.2468 15.2467 10.3906 15.428 10.572C15.6094 10.7533 15.7532 10.9686 15.8513 11.2055C15.9495 11.4424 16 11.6964 16 11.9528V14.0472C16 14.5651 15.7943 15.0618 15.428 15.428C15.0618 15.7943 14.5651 16 14.0472 16V16Z" fill="#FDB60D"/>
<path d="M6.22656 11.689H8.28625V12.2236H6.82338V12.7775H8.11076V13.3118H6.82338V13.8853H8.30582V14.4197H6.22656V11.689Z" fill="black"/>
<path d="M9.77942 11.6697H10.3333L11.5036 14.4197H10.8756L10.6259 13.8073H9.47136L9.22171 14.4197H8.60938L9.77942 11.6697ZM10.4116 13.2768L10.0486 12.3912L9.68596 13.2768H10.4116Z" fill="black"/>
<path d="M11.9219 11.689H13.0376C13.17 11.6733 13.3044 11.6861 13.4315 11.7266C13.5586 11.767 13.6756 11.8342 13.7746 11.9236C13.8736 12.013 13.9524 12.1226 14.0055 12.245C14.0587 12.3673 14.0851 12.4996 14.0829 12.633V12.6409C14.0818 12.7792 14.0513 12.9156 13.9934 13.0412C13.9356 13.1669 13.8517 13.2787 13.7473 13.3695C13.643 13.4602 13.5205 13.5278 13.3881 13.5676C13.2557 13.6075 13.1163 13.6187 12.9792 13.6006H12.5228V14.4197H11.9219V11.689ZM12.9985 13.066C13.0575 13.0735 13.1175 13.0685 13.1744 13.0512C13.2314 13.0339 13.284 13.0048 13.3289 12.9658C13.3739 12.9268 13.4101 12.8787 13.4351 12.8247C13.4602 12.7707 13.4736 12.7121 13.4744 12.6526V12.6447C13.4744 12.3757 13.2872 12.2313 12.9868 12.2313H12.5228V13.066H12.9985Z" fill="black"/>
</g>
<defs>
<linearGradient id="paint0_linear_967_2241" x1="1.05414" y1="15.0047" x2="15.7304" y2="0.328291" gradientUnits="userSpaceOnUse">
<stop offset="0.29" stop-color="#FF2358"/>
<stop offset="0.75" stop-color="#7256FF"/>
</linearGradient>
<linearGradient id="paint1_linear_967_2241" x1="-0.179346" y1="1.9055" x2="6.03636" y2="15.3119" gradientUnits="userSpaceOnUse">
<stop offset="0.29" stop-color="#FF8100"/>
<stop offset="0.56" stop-color="#FF2358"/>
</linearGradient>
<clipPath id="clip0_967_2241">
<rect width="16" height="16" fill="white"/>
</clipPath>
</defs>
</svg>
