<svg width="16" height="16" viewBox="0 0 16 16" fill="none" xmlns="http://www.w3.org/2000/svg">
<path d="M13 0.533325L8.66669 2.06666L5.33336 0.533325L3.40002 5.06666L3.46669 11.6L13.8667 11.6667L15.4667 3.39999L13 0.533325Z" fill="url(#paint0_linear)"/>
<path d="M3.33337 10.2667L14.4667 3.86666L13 0.533325L8.66671 2.06666L5.33337 0.533325L3.33337 4.93333V10.2667Z" fill="url(#paint1_linear)"/>
<path d="M3.33337 10.2667L14.4667 3.86666L13 0.533325L8.66671 2.06666L3.33337 10.2667Z" fill="url(#paint2_linear)"/>
<path d="M15.4667 3.39999L13.0001 0.533325L8.66675 2.06666L15.4667 3.39999Z" fill="url(#paint3_linear)"/>
<path d="M14.4667 3.86666L13.8667 11.6667L15.4667 3.39999L14.4667 3.86666Z" fill="url(#paint4_linear)"/>
<path d="M13.0001 0.533325L14.4667 3.86666L15.4667 3.39999L13.0001 0.533325Z" fill="url(#paint5_linear)"/>
<path d="M11.9334 5.33333L6.00006 1.8L12.4667 9.93333L11.9334 5.33333Z" fill="url(#paint6_linear)"/>
<path d="M12.3334 14.3333L11.4667 12.6667L12.4667 9.93333L6.00005 1.8L0.533386 3.13333V11L3.66672 15.4667L12.3334 14.3333Z" fill="url(#paint7_linear)"/>
<path d="M4.93339 11.6L0.533386 3.13332V11L3.66672 15.4667L4.93339 11.6Z" fill="url(#paint8_linear)"/>
<path d="M4.93339 11.6L5.60005 9.73332L0.533386 11L3.66672 15.4667L4.93339 11.6Z" fill="url(#paint9_linear)"/>
<path d="M4.93339 11.6L0.533386 3.13332V11L3.66672 15.4667L4.93339 11.6Z" fill="url(#paint10_linear)"/>
<path d="M4.93341 11.6667L3.66675 15.4667L12.3334 14.3333L4.93341 11.6667Z" fill="url(#paint11_linear)"/>
<path d="M4.93341 11.6667L11.4667 12.6667L12.3334 14.3333L4.93341 11.6667Z" fill="url(#paint12_linear)"/>
<path d="M3.66675 15.4667L11.4667 12.6667L12.3334 14.3333L3.66675 15.4667Z" fill="url(#paint13_linear)"/>
<path d="M12.3334 14.3333L11.4667 12.6667L9.60004 13.3333L12.3334 14.3333Z" fill="url(#paint14_linear)"/>
<path d="M6.00006 1.8L2.7334 7.4L4.9334 11.6L11.8667 11.6667L12.4667 9.93333L6.00006 1.8Z" fill="url(#paint15_linear)"/>
<path d="M4.93341 11.6667L11.4667 12.6667L12.4667 9.93333L4.93341 11.6667Z" fill="url(#paint16_linear)"/>
<path d="M0.533386 3.13332V11V11.0667L2.73339 7.39999L0.533386 3.13332Z" fill="url(#paint17_linear)"/>
<path d="M6.00005 1.8L0.533386 3.13333L2.73339 7.4L6.00005 1.8Z" fill="url(#paint18_linear)"/>
<path d="M4.53336 2.2L2.40002 6.86666L2.73336 7.4L6.00002 1.8L4.53336 2.2Z" fill="url(#paint19_linear)"/>
<path d="M3.33337 6.4V8.46666L4.00004 9.86666L9.73337 6.53333L6.00004 1.8L3.33337 6.4Z" fill="url(#paint20_linear)"/>
<path d="M12.6666 3.33334H3.33331V12.6667H12.6666V3.33334Z" fill="url(#paint21_linear)"/>
<path d="M8.1333 4.66667H8.99997L9.9333 6.40252L10.8 4.66667H11.6666V8.66667H10.8666V6.10063L9.9333 7.76101H9.86663L8.9333 6.10063V8.66667H8.1333V4.66667Z" fill="white"/>
<path d="M4.66663 4.66667H6.26663C6.73329 4.66667 7.06663 4.81762 7.26663 5.04403C7.53329 5.34592 7.59996 5.6478 7.59996 6.02516C7.59996 6.32705 7.53329 6.62894 7.39996 6.77988C7.26663 7.00629 7.06663 7.15724 6.86663 7.23271L7.73329 8.66667H6.79996L6.06663 7.45912H5.39996V8.66667H4.66663V4.66667ZM6.26663 6.62894C6.46663 6.62894 6.59996 6.55346 6.73329 6.47799C6.79996 6.40252 6.86663 6.25158 6.86663 6.10063C6.86663 5.87422 6.79996 5.72328 6.66663 5.6478C6.59996 5.49686 6.39996 5.49686 6.19996 5.49686H5.46663V6.62894H6.26663Z" fill="white"/>
<path d="M8.66663 10.6667H4.66663V11.3333H8.66663V10.6667Z" fill="white"/>
<path d="M13.7129 15.3607H6.18464C5.72426 15.3607 5.28274 15.1778 4.95721 14.8523C4.63168 14.5268 4.44879 14.0852 4.44879 13.6248V11.7633C4.50341 11.3219 4.70385 10.9114 5.01832 10.5969C5.33279 10.2825 5.74328 10.082 6.18464 10.0273H13.7129C14.1733 10.0273 14.6148 10.2103 14.9404 10.5358C15.2659 10.8613 15.4488 11.3029 15.4488 11.7633V13.6248C15.4488 14.0852 15.2659 14.5268 14.9404 14.8523C14.6148 15.1778 14.1733 15.3607 13.7129 15.3607V15.3607Z" fill="#FDB60D"/>
<path d="M6.65791 11.4923H8.54598V11.9823H7.205V12.4902H8.3851V12.98H7.205V13.5056H8.5639V13.9954H6.6579L6.65791 11.4923Z" fill="black"/>
<path d="M9.91187 11.4746H10.4196L11.4924 13.9954H10.9167L10.6878 13.4342H9.62947L9.40063 13.9954H8.83929L9.91187 11.4746ZM10.4913 12.9478L10.1587 12.1361L9.82622 12.9478H10.4913Z" fill="black"/>
<path d="M11.8786 11.4924H12.9013C13.0228 11.478 13.1459 11.4897 13.2624 11.5268C13.3789 11.5639 13.4862 11.6254 13.5769 11.7074C13.6677 11.7894 13.7399 11.8898 13.7886 12.002C13.8374 12.1141 13.8615 12.2354 13.8596 12.3577V12.3649C13.8585 12.4917 13.8306 12.6167 13.7775 12.7319C13.7245 12.847 13.6476 12.9496 13.5519 13.0328C13.4563 13.116 13.344 13.1779 13.2226 13.2145C13.1012 13.251 12.9735 13.2612 12.8478 13.2447H12.4294V13.9955H11.8786L11.8786 11.4924ZM12.8655 12.7547C12.9196 12.7615 12.9746 12.7569 13.0268 12.7411C13.079 12.7252 13.1272 12.6985 13.1684 12.6627C13.2096 12.6269 13.2428 12.5829 13.2658 12.5334C13.2887 12.4839 13.301 12.4302 13.3018 12.3756V12.3684C13.3018 12.1219 13.1302 11.9894 12.8548 11.9894H12.4294V12.7547H12.8655Z" fill="black"/>
<defs>
<linearGradient id="paint0_linear" x1="10.1166" y1="9.17586" x2="8.22109" y2="4.20039" gradientUnits="userSpaceOnUse">
<stop stop-color="#FE2857"/>
<stop offset="0.0562257" stop-color="#FE3052"/>
<stop offset="0.3252" stop-color="#FD533B"/>
<stop offset="0.5796" stop-color="#FC6C2A"/>
<stop offset="0.8114" stop-color="#FC7B20"/>
<stop offset="1" stop-color="#FC801D"/>
</linearGradient>
<linearGradient id="paint1_linear" x1="8.87411" y1="6.89879" x2="8.77217" y2="1.23353" gradientUnits="userSpaceOnUse">
<stop offset="0.3737" stop-color="#FEB51A"/>
<stop offset="0.4306" stop-color="#FEAD1A"/>
<stop offset="0.6448" stop-color="#FD941C"/>
<stop offset="0.8406" stop-color="#FC851D"/>
<stop offset="1" stop-color="#FC801D"/>
</linearGradient>
<linearGradient id="paint2_linear" x1="13.2188" y1="10.1177" x2="6.16757" y2="3.51839" gradientUnits="userSpaceOnUse">
<stop offset="0.3737" stop-color="#FEB51A"/>
<stop offset="0.417" stop-color="#FEAD1A"/>
<stop offset="0.5802" stop-color="#FD941C"/>
<stop offset="0.7294" stop-color="#FC851D"/>
<stop offset="0.8508" stop-color="#FC801D"/>
<stop offset="0.9836" stop-color="#F26522"/>
</linearGradient>
<linearGradient id="paint3_linear" x1="10.9165" y1="0.539125" x2="12.1579" y2="2.91106" gradientUnits="userSpaceOnUse">
<stop offset="0.0238963" stop-color="#FDB60D"/>
<stop offset="1" stop-color="#FF9600" stop-opacity="0"/>
</linearGradient>
<linearGradient id="paint4_linear" x1="14.9806" y1="11.4707" x2="14.408" y2="3.72626" gradientUnits="userSpaceOnUse">
<stop offset="0.0133474" stop-color="#EE2A7B"/>
<stop offset="0.7157" stop-color="#FE2857"/>
<stop offset="0.9859" stop-color="#FC801D"/>
</linearGradient>
<linearGradient id="paint5_linear" x1="16.7485" y1="6.00346" x2="12.8311" y2="0.850524" gradientUnits="userSpaceOnUse">
<stop stop-color="#FE2857"/>
<stop offset="0.1736" stop-color="#FE2C54"/>
<stop offset="0.1983" stop-color="#FE3051"/>
<stop offset="0.4268" stop-color="#FD533B"/>
<stop offset="0.6429" stop-color="#FC6C2A"/>
<stop offset="0.8398" stop-color="#FC7B20"/>
<stop offset="1" stop-color="#FC801D"/>
</linearGradient>
<linearGradient id="paint6_linear" x1="6.79686" y1="1.50413" x2="12.7332" y2="8.25413" gradientUnits="userSpaceOnUse">
<stop stop-color="#6B57FF"/>
<stop offset="1" stop-color="#FE2857"/>
</linearGradient>
<linearGradient id="paint7_linear" x1="0.43412" y1="3.00593" x2="10.0757" y2="15.2622" gradientUnits="userSpaceOnUse">
<stop offset="0.0417113" stop-color="#7D11EF"/>
<stop offset="0.1162" stop-color="#A019CB"/>
<stop offset="0.2019" stop-color="#C220A8"/>
<stop offset="0.283" stop-color="#DA268F"/>
<stop offset="0.3569" stop-color="#E92980"/>
<stop offset="0.417" stop-color="#EE2A7B"/>
<stop offset="1" stop-color="#F26522"/>
</linearGradient>
<linearGradient id="paint8_linear" x1="-1.59348" y1="4.65712" x2="5.37245" y2="13.5121" gradientUnits="userSpaceOnUse">
<stop offset="0.00149909" stop-color="#6B57FF"/>
<stop offset="0.2483" stop-color="#FE2857"/>
<stop offset="0.6853" stop-color="#FE2857"/>
</linearGradient>
<linearGradient id="paint9_linear" x1="3.12179" y1="7.98492" x2="2.96532" y2="14.4771" gradientUnits="userSpaceOnUse">
<stop offset="0.00149909" stop-color="#FDB60D"/>
<stop offset="0.725" stop-color="#FE2857" stop-opacity="0"/>
</linearGradient>
<linearGradient id="paint10_linear" x1="4.32739" y1="8.21626" x2="2.13279" y2="9.30246" gradientUnits="userSpaceOnUse">
<stop offset="0.0238963" stop-color="#FF7100"/>
<stop offset="1" stop-color="#FF9600" stop-opacity="0"/>
</linearGradient>
<linearGradient id="paint11_linear" x1="6.20395" y1="9.37559" x2="8.43735" y2="16.2617" gradientUnits="userSpaceOnUse">
<stop offset="0.3361" stop-color="#FE2857"/>
<stop offset="0.3527" stop-color="#FE3052"/>
<stop offset="0.4321" stop-color="#FD533B"/>
<stop offset="0.5072" stop-color="#FC6C2A"/>
<stop offset="0.5757" stop-color="#FC7B20"/>
<stop offset="0.6313" stop-color="#FC801D"/>
<stop offset="0.9964" stop-color="#FFDE17"/>
</linearGradient>
<linearGradient id="paint12_linear" x1="7.09134" y1="8.21952" x2="9.75888" y2="16.4446" gradientUnits="userSpaceOnUse">
<stop offset="0.2209" stop-color="#EE2A7B"/>
<stop offset="0.6985" stop-color="#F7941D"/>
</linearGradient>
<linearGradient id="paint13_linear" x1="7.37428" y1="12.9841" x2="8.39121" y2="16.1197" gradientUnits="userSpaceOnUse">
<stop offset="0.092793" stop-color="#F15A29"/>
<stop offset="0.3888" stop-color="#FC801D"/>
<stop offset="1" stop-color="#FEC519"/>
</linearGradient>
<linearGradient id="paint14_linear" x1="6.8507" y1="14.5451" x2="12.7368" y2="13.3599" gradientUnits="userSpaceOnUse">
<stop offset="0.092793" stop-color="#F15A29"/>
<stop offset="0.3888" stop-color="#FC801D"/>
<stop offset="0.8214" stop-color="#FEC519"/>
<stop offset="0.9894" stop-color="#FCF84A"/>
</linearGradient>
<linearGradient id="paint15_linear" x1="4.8526" y1="13.6815" x2="10.2256" y2="4.51586" gradientUnits="userSpaceOnUse">
<stop offset="0.0417113" stop-color="#7D11EF"/>
<stop offset="0.1162" stop-color="#A019CB"/>
<stop offset="0.2019" stop-color="#C220A8"/>
<stop offset="0.283" stop-color="#DA268F"/>
<stop offset="0.3569" stop-color="#E92980"/>
<stop offset="0.417" stop-color="#EE2A7B"/>
</linearGradient>
<linearGradient id="paint16_linear" x1="8.10834" y1="8.92559" x2="9.75901" y2="14.0151" gradientUnits="userSpaceOnUse">
<stop stop-color="#F7941D" stop-opacity="0"/>
<stop offset="0.5473" stop-color="#FB851D" stop-opacity="0.5473"/>
<stop offset="1" stop-color="#FC801D"/>
</linearGradient>
<linearGradient id="paint17_linear" x1="-1.43895" y1="3.55252" x2="2.34105" y2="10.4458" gradientUnits="userSpaceOnUse">
<stop offset="0.1915" stop-color="#7D11EF"/>
<stop offset="0.2818" stop-color="#A019CB"/>
<stop offset="0.3858" stop-color="#C220A8"/>
<stop offset="0.4842" stop-color="#DA268F"/>
<stop offset="0.5738" stop-color="#E92980"/>
<stop offset="0.6467" stop-color="#EE2A7B"/>
</linearGradient>
<linearGradient id="paint18_linear" x1="2.66105" y1="1.5138" x2="5.25312" y2="6.2408" gradientUnits="userSpaceOnUse">
<stop offset="0.1915" stop-color="#7D11EF"/>
<stop offset="0.2818" stop-color="#A019CB"/>
<stop offset="0.3858" stop-color="#C220A8"/>
<stop offset="0.4842" stop-color="#DA268F"/>
<stop offset="0.5738" stop-color="#E92980"/>
<stop offset="0.6467" stop-color="#EE2A7B"/>
<stop offset="1" stop-color="#F26522"/>
</linearGradient>
<linearGradient id="paint19_linear" x1="6.13156" y1="-1.07167" x2="2.75029" y2="8.41613" gradientUnits="userSpaceOnUse">
<stop offset="0.1915" stop-color="#7D11EF"/>
<stop offset="0.2818" stop-color="#A019CB"/>
<stop offset="0.3858" stop-color="#C220A8"/>
<stop offset="0.4842" stop-color="#DA268F"/>
<stop offset="0.5738" stop-color="#E92980"/>
<stop offset="0.6467" stop-color="#EE2A7B"/>
<stop offset="1" stop-color="#F26522"/>
</linearGradient>
<linearGradient id="paint20_linear" x1="9.58571" y1="9.17186" x2="2.47304" y2="3.98253" gradientUnits="userSpaceOnUse">
<stop offset="0.0417113" stop-color="#FFDE17"/>
<stop offset="0.0429608" stop-color="#FFDD18"/>
<stop offset="0.1145" stop-color="#FAA736"/>
<stop offset="0.1843" stop-color="#F67A4E"/>
<stop offset="0.2509" stop-color="#F25762"/>
<stop offset="0.3136" stop-color="#F03E70"/>
<stop offset="0.3706" stop-color="#EE2F78"/>
<stop offset="0.417" stop-color="#EE2A7B"/>
</linearGradient>
<linearGradient id="paint21_linear" x1="1.91252" y1="3.25359" x2="12.5864" y2="11.576" gradientUnits="userSpaceOnUse">
<stop offset="0.0108952" stop-color="#7C0F13"/>
<stop offset="0.0756282" stop-color="#6C0D11"/>
<stop offset="0.2517" stop-color="#45080B"/>
<stop offset="0.4263" stop-color="#270506"/>
<stop offset="0.5969" stop-color="#110203"/>
<stop offset="0.7616" stop-color="#040101"/>
<stop offset="0.9138"/>
</linearGradient>
</defs>
</svg>
