<svg width="16" height="16" viewBox="0 0 16 16" fill="none" xmlns="http://www.w3.org/2000/svg">
<g clip-path="url(#clip0_967_2243)">
<path d="M1.45312 12.0131L1.45356 14.982C1.45356 15.5443 1.90942 16 2.47174 16H5.3484C5.64556 16 5.92803 15.8701 6.12149 15.6445L14.2989 6.10415C14.457 5.91957 14.544 5.68452 14.544 5.44146V2.47259C14.544 1.91026 14.0882 1.45441 13.5258 1.45441H10.6488C10.3516 1.45441 10.0691 1.5843 9.87567 1.8099L1.69822 11.3503C1.53996 11.5348 1.45312 11.7699 1.45312 12.0131Z" fill="#F0EB18"/>
<path d="M1.45312 12.3701V14.9818C1.45312 15.5441 1.90898 16 2.47131 16H5.74447C5.79261 16 5.84076 15.9965 5.88847 15.9898L15.1244 14.6705C15.6261 14.5988 15.9986 14.1693 15.9986 13.6625V9.74426C15.9986 9.18178 15.5426 8.72593 14.9801 8.72607L10.3455 8.72724C10.2361 8.72724 10.1274 8.74484 10.0237 8.77946L2.14927 11.4043C1.73356 11.5429 1.45312 11.932 1.45312 12.3703V12.3701Z" fill="url(#paint0_linear_967_2243)"/>
<path d="M0 1.01818V9.51025C0 9.91753 0.242764 10.2857 0.617018 10.4461L9.98967 14.4631C10.1164 14.5174 10.2529 14.5455 10.3908 14.5455H14.9818C15.5441 14.5455 16 14.0896 16 13.5273V9.03578C16 8.83462 15.9404 8.63796 15.8287 8.47054L10.4778 0.453382C10.289 0.170327 9.97134 0.000436364 9.63098 0.000436364L1.01818 0C0.455854 0 0 0.455854 0 1.01818Z" fill="url(#paint1_linear_967_2243)"/>
<path d="M13 3H3V13H13V3Z" fill="black"/>
<path d="M4.76724 4.56523L5.3802 7.33681L6.03383 4.56523H6.78233L7.46574 7.33681L8.05966 4.56523H8.81092L7.88881 8.36193H7.04544L6.40546 5.60387L5.75735 8.36193H4.91659L4 4.56523H4.76753H4.76724ZM10.4102 8.42716C10.1353 8.42716 9.89125 8.37733 9.67798 8.27796C9.46644 8.17858 9.30009 8.03926 9.17893 7.86027C9.05965 7.68128 8.99819 7.47512 8.99456 7.24194H9.73769C9.73769 7.35206 9.7666 7.44911 9.82442 7.53207C9.88225 7.61517 9.96273 7.68026 10.0657 7.72733C10.1687 7.7744 10.2872 7.79779 10.421 7.79779C10.5548 7.79779 10.6614 7.77716 10.7573 7.73547C10.8549 7.69203 10.9299 7.63246 10.9823 7.55648C11.0365 7.4805 11.0637 7.39376 11.0637 7.29613C11.0637 7.17511 11.0266 7.07472 10.9526 6.9951C10.8802 6.91549 10.78 6.86057 10.6515 6.82962L9.98162 6.68042C9.80089 6.64076 9.64355 6.57291 9.50974 6.47702C9.37593 6.37939 9.27205 6.25909 9.19781 6.11628C9.12372 5.97361 9.08667 5.81249 9.08667 5.6335C9.08667 5.41659 9.14275 5.22235 9.25477 5.05048C9.36692 4.87687 9.52325 4.74233 9.72389 4.64645C9.92452 4.54882 10.1523 4.5 10.4073 4.5C10.6623 4.5 10.8963 4.54707 11.0989 4.64107C11.3014 4.73492 11.4586 4.86611 11.5707 5.03435C11.6846 5.20085 11.7425 5.39233 11.7443 5.60924H11.004C11.004 5.51699 10.9796 5.43461 10.9308 5.3624C10.8819 5.28816 10.8124 5.23121 10.722 5.19155C10.6334 5.14985 10.5312 5.12922 10.4156 5.12922C10.2999 5.12922 10.1977 5.14927 10.1092 5.18894C10.0224 5.22685 9.9546 5.28119 9.90578 5.35165C9.85697 5.42052 9.83256 5.50086 9.83256 5.59297C9.83256 5.69772 9.86597 5.78445 9.93295 5.85332C10.0017 5.92218 10.0948 5.971 10.2123 5.99976L10.8578 6.14083C11.0441 6.17875 11.2094 6.25096 11.3541 6.35774C11.5006 6.46249 11.6145 6.59267 11.6958 6.74827C11.7772 6.90183 11.8179 7.06992 11.8179 7.25269C11.8179 7.47672 11.7581 7.67852 11.6389 7.85751C11.5213 8.03475 11.3559 8.17379 11.1426 8.2752C10.9293 8.3766 10.6852 8.42702 10.4104 8.42702L10.4102 8.42716Z" fill="white"/>
<path d="M8 11H4.5V11.5H8V11Z" fill="white"/>
<path d="M14.0472 16H5.95284C5.69639 16 5.44245 15.9495 5.20552 15.8513C4.96859 15.7532 4.75331 15.6094 4.57198 15.428C4.39064 15.2467 4.24679 15.0314 4.14865 14.7945C4.05051 14.5576 4 14.3036 4 14.0472V11.9528C4 11.6964 4.05051 11.4424 4.14865 11.2055C4.24679 10.9686 4.39064 10.7533 4.57198 10.572C4.75331 10.3906 4.96859 10.2468 5.20552 10.1486C5.44245 10.0505 5.69639 10 5.95284 10H14.0472C14.3036 10 14.5576 10.0505 14.7945 10.1486C15.0314 10.2468 15.2467 10.3906 15.428 10.572C15.6094 10.7533 15.7532 10.9686 15.8513 11.2055C15.9495 11.4424 16 11.6964 16 11.9528V14.0472C16 14.5651 15.7943 15.0618 15.428 15.428C15.0618 15.7943 14.5651 16 14.0472 16V16Z" fill="#FDB60D"/>
<path d="M6.22656 11.689H8.28625V12.2236H6.82338V12.7775H8.11076V13.3119H6.82338V13.8854H8.30582V14.4197H6.22656V11.689Z" fill="black"/>
<path d="M9.77942 11.6697H10.3333L11.5036 14.4197H10.8756L10.6259 13.8074H9.47136L9.22171 14.4197H8.60938L9.77942 11.6697ZM10.4116 13.2769L10.0486 12.3912L9.68596 13.2769H10.4116Z" fill="black"/>
<path d="M11.9219 11.689H13.0376C13.17 11.6733 13.3044 11.6861 13.4315 11.7266C13.5586 11.767 13.6756 11.8342 13.7746 11.9236C13.8736 12.013 13.9524 12.1226 14.0055 12.245C14.0587 12.3673 14.0851 12.4996 14.0829 12.633V12.6409C14.0818 12.7792 14.0513 12.9156 13.9934 13.0412C13.9356 13.1669 13.8517 13.2787 13.7473 13.3695C13.643 13.4602 13.5205 13.5278 13.3881 13.5676C13.2557 13.6075 13.1163 13.6187 12.9792 13.6006H12.5228V14.4197H11.9219V11.689ZM12.9985 13.066C13.0575 13.0735 13.1175 13.0685 13.1744 13.0512C13.2314 13.0339 13.284 13.0048 13.3289 12.9658C13.3739 12.9268 13.4101 12.8787 13.4351 12.8247C13.4602 12.7707 13.4736 12.7121 13.4744 12.6526V12.6447C13.4744 12.3757 13.2872 12.2313 12.9868 12.2313H12.5228V13.066H12.9985Z" fill="black"/>
</g>
<defs>
<linearGradient id="paint0_linear_967_2243" x1="1.90389" y1="16.1793" x2="15.3104" y2="9.9636" gradientUnits="userSpaceOnUse">
<stop offset="0.22" stop-color="#F0EB18"/>
<stop offset="0.59" stop-color="#00C4F4"/>
</linearGradient>
<linearGradient id="paint1_linear_967_2243" x1="15.0047" y1="14.9444" x2="0.328291" y2="0.268218" gradientUnits="userSpaceOnUse">
<stop offset="0.19" stop-color="#00C4F4"/>
<stop offset="0.83" stop-color="#007DFE"/>
</linearGradient>
<clipPath id="clip0_967_2243">
<rect width="16" height="16" fill="white"/>
</clipPath>
</defs>
</svg>
