<svg width="16" height="16" viewBox="0 0 16 16" fill="none" xmlns="http://www.w3.org/2000/svg">
<path d="M2 4C2 2.89543 2.89543 2 4 2H12C13.1046 2 14 2.89543 14 4V7H13.5V7.00214C12.5358 6.96907 11.5614 7.31956 10.8251 8.0558L10.5011 8.3798L9.56066 7.43934C8.97487 6.85355 8.02513 6.85355 7.43934 7.43934C6.85355 8.02513 6.85355 8.97487 7.43934 9.56066L8.3798 10.5011L8.0558 10.8251C7.31956 11.5614 6.96907 12.5358 7.00214 13.5H7V14H4C2.89543 14 2 13.1046 2 12V4Z" fill="#EBECF0"/>
<path d="M4 3H12C12.5523 3 13 3.44772 13 4V7.01942C13.1661 7.00218 13.3332 6.99642 13.5 7.00214V7H14V4C14 2.89543 13.1046 2 12 2H4C2.89543 2 2 2.89543 2 4V12C2 13.1046 2.89543 14 4 14H7V13.5H7.00214C6.99642 13.3332 7.00218 13.1661 7.01942 13H4C3.44772 13 3 12.5523 3 12V4C3 3.44772 3.44772 3 4 3Z" fill="#6C707E"/>
<path d="M11.2082 9.0869L11.9153 9.79401L12.2393 9.47001C12.8662 8.84315 13.889 8.84144 14.5238 9.47624C15.1586 10.111 15.1569 11.1338 14.53 11.7607L14.206 12.0847L14.9131 12.7918L15.2371 12.4678C16.2567 11.4481 16.2539 9.7922 15.2309 8.76913C14.2078 7.74606 12.5519 7.74327 11.5322 8.76291L11.2082 9.0869Z" fill="#6C707E"/>
<path d="M9.0869 11.2082L8.76291 11.5322C7.74327 12.5519 7.74606 14.2078 8.76913 15.2309C9.7922 16.2539 11.4481 16.2567 12.4678 15.2371L12.7918 14.9131L12.0847 14.206L11.7607 14.53C11.1338 15.1569 10.111 15.1586 9.47624 14.5238C8.84144 13.889 8.84315 12.8662 9.47001 12.2393L9.79401 11.9153L9.0869 11.2082Z" fill="#6C707E"/>
<path d="M10.5858 12.7071L10.1464 13.1464C9.95118 13.3417 9.95118 13.6583 10.1464 13.8536C10.3417 14.0488 10.6583 14.0488 10.8536 13.8536L11.2929 13.4142L10.5858 12.7071Z" fill="#6C707E"/>
<path d="M13.4142 11.2929L13.8536 10.8536C14.0488 10.6583 14.0488 10.3417 13.8536 10.1464C13.6583 9.95118 13.3417 9.95118 13.1464 10.1464L12.7071 10.5858L13.4142 11.2929Z" fill="#6C707E"/>
<path d="M15.5 15.5L8.5 8.5" stroke="#6C707E" stroke-linecap="round"/>
</svg>
