<svg width="16" height="16" viewBox="0 0 16 16" fill="none" xmlns="http://www.w3.org/2000/svg">
<path d="M2 4V12C2 13.1046 2.89543 14 4 14H9V10.5C9 10.1161 9.14645 9.73223 9.43934 9.43934C9.73223 9.14645 10.1161 9 10.5 9C10.5002 9 10.4998 9 10.5 9H14V4C14 2.89543 13.1046 2 12 2H4C2.89543 2 2 2.89543 2 4Z" fill="#EBECF0"/>
<path d="M3 4V12C3 12.5523 3.44772 13 4 13H9V14H4C2.89543 14 2 13.1046 2 12V4C2 2.89543 2.89543 2 4 2H12C13.1046 2 14 2.89543 14 4V9H13V4C13 3.44772 12.5523 3 12 3H4C3.44772 3 3 3.44772 3 4Z" fill="#6C707E"/>
<path fill-rule="evenodd" clip-rule="evenodd" d="M10.1464 10.1464C10.3417 9.95118 10.6583 9.95118 10.8536 10.1464L13 12.2929L15.1464 10.1464C15.3417 9.95118 15.6583 9.95118 15.8536 10.1464C16.0488 10.3417 16.0488 10.6583 15.8536 10.8536L13.7071 13L15.8536 15.1464C16.0488 15.3417 16.0488 15.6583 15.8536 15.8536C15.6583 16.0488 15.3417 16.0488 15.1464 15.8536L13 13.7071L10.8536 15.8536C10.6583 16.0488 10.3417 16.0488 10.1464 15.8536C9.95118 15.6583 9.95118 15.3417 10.1464 15.1464L12.2929 13L10.1464 10.8536C9.95118 10.6583 9.95118 10.3417 10.1464 10.1464Z" fill="#DB3B4B"/>
</svg>
