<svg width="16" height="16" viewBox="0 0 16 16" fill="none" xmlns="http://www.w3.org/2000/svg">
<path fill-rule="evenodd" clip-rule="evenodd" d="M12.5 9C12.7761 9 13 9.22386 13 9.5V12H15.5C15.7761 12 16 12.2239 16 12.5C16 12.7761 15.7761 13 15.5 13H13V15.5C13 15.7761 12.7761 16 12.5 16C12.2239 16 12 15.7761 12 15.5V13H9.5C9.22386 13 9 12.7761 9 12.5C9 12.2239 9.22386 12 9.5 12H12V9.5C12 9.22386 12.2239 9 12.5 9Z" fill="#57965C"/>
<path d="M2 12V4C2 2.89543 2.89543 2 4 2H12C13.1046 2 14 2.89543 14 4V8.00014L12.5007 8C11.6723 8 11.0007 8.67157 11.0007 9.5V11H9.50071C8.67229 11 8.00071 11.6716 8.00071 12.5L8 14H4C2.89543 14 2 13.1046 2 12Z" fill="#43454A"/>
<path d="M3 12V4C3 3.44772 3.44772 3 4 3H12C12.5523 3 13 3.44772 13 4V8.00005L14 8.00014V4C14 2.89543 13.1046 2 12 2H4C2.89543 2 2 2.89543 2 4V12C2 13.1046 2.89543 14 4 14H8L8.00048 13H4C3.44772 13 3 12.5523 3 12Z" fill="#CED0D6"/>
</svg>
