<svg width="16" height="16" viewBox="0 0 16 16" fill="none" xmlns="http://www.w3.org/2000/svg">
<path d="M12 14C12.5523 14 13 13.5523 13 13C13 12.4477 12.5523 12 12 12C11.4477 12 11 12.4477 11 13C11 13.5523 11.4477 14 12 14Z" fill="#548AF7"/>
<path fill-rule="evenodd" clip-rule="evenodd" d="M12 16C9 16 8 13 8 13C8 13 9 10 12 10C15 10 16 13 16 13C16 13 15 16 12 16ZM14.9024 12.9785L14.9131 13L14.9024 13.0215C14.787 13.2525 14.6081 13.5582 14.3568 13.8598C13.8602 14.4557 13.1189 15 12 15C10.8811 15 10.1398 14.4557 9.64322 13.8598C9.39186 13.5582 9.21302 13.2525 9.09755 13.0215L9.08686 13L9.09755 12.9785C9.21302 12.7475 9.39186 12.4418 9.64322 12.1402C10.1398 11.5443 10.8811 11 12 11C13.1189 11 13.8602 11.5443 14.3568 12.1402C14.6081 12.4418 14.787 12.7475 14.9024 12.9785Z" fill="#548AF7"/>
<path fill-rule="evenodd" clip-rule="evenodd" d="M13 9.0956C13.3618 9.16691 13.6947 9.27501 14 9.40929V3.60275C14 3.12191 13.7432 2.7208 13.4031 2.41334C13.0629 2.10586 12.5987 1.85189 12.0676 1.64885C11.0021 1.24147 9.56381 1 8 1C6.43619 1 4.99792 1.24147 3.93236 1.64885C3.40129 1.85189 2.9371 2.10586 2.59694 2.41334C2.25679 2.7208 2 3.12191 2 3.60275V6.5C2 6.77614 2.22386 7 2.5 7C2.77614 7 3 6.77614 3 6.5V5.09723C3.27236 5.27221 3.58833 5.42512 3.93236 5.55665C4.99792 5.96403 6.43619 6.2055 8 6.2055C9.56381 6.2055 11.0021 5.96403 12.0676 5.55665C12.4117 5.42512 12.7276 5.27221 13 5.09723V9.0956ZM3.2675 3.15519C3.05102 3.35087 3 3.50293 3 3.60275C3 3.70256 3.05102 3.85463 3.2675 4.05031C3.48396 4.24597 3.82523 4.4451 4.28947 4.62258C5.21452 4.97625 6.52624 5.2055 8 5.2055C9.47376 5.2055 10.7855 4.97625 11.7105 4.62258C12.1748 4.4451 12.516 4.24597 12.7325 4.05031C12.949 3.85463 13 3.70256 13 3.60275C13 3.50293 12.949 3.35087 12.7325 3.15519C12.516 2.95953 12.1748 2.7604 11.7105 2.58291C10.7855 2.22925 9.47376 2 8 2C6.52624 2 5.21452 2.22925 4.28947 2.58291C3.82523 2.7604 3.48396 2.95953 3.2675 3.15519Z" fill="#CED0D6"/>
<path d="M7.99504 15.0027C6.43315 15.0022 4.99679 14.7608 3.93236 14.3539C3.40129 14.1509 2.9371 13.8969 2.59694 13.5894C2.25679 13.2819 2 12.8808 2 12.4V9.70711L0.853553 10.8536C0.658291 11.0488 0.341709 11.0488 0.146446 10.8536C-0.0488155 10.6583 -0.0488155 10.3417 0.146446 10.1464L2.14645 8.14645L2.15294 8.14007C2.24286 8.05334 2.3652 8 2.5 8C2.6379 8 2.76277 8.05583 2.85322 8.14612L4.85355 10.1464C5.04882 10.3417 5.04882 10.6583 4.85355 10.8536C4.65829 11.0488 4.34171 11.0488 4.14645 10.8536L3 9.70711V12.4C3 12.4998 3.05102 12.6519 3.2675 12.8476C3.48396 13.0432 3.82523 13.2424 4.28947 13.4198C5.07487 13.7201 6.13901 13.9307 7.3444 13.9874C7.49246 14.2744 7.70516 14.6334 7.99504 15.0027Z" fill="#CED0D6"/>
</svg>
