<svg width="16" height="16" viewBox="0 0 16 16" fill="none" xmlns="http://www.w3.org/2000/svg">
<path d="M8 1.20508C4.96243 1.20508 2.5 2.14651 2.5 3.30783V5.5L2 6V9L2.5 10V12.1394C2.5 13.3007 4.96243 14.2421 8 14.2421C11.0376 14.2421 13.5 13.3007 13.5 12.1394V11.5H14V9H13.5V3.30783C13.5 2.14651 11.0376 1.20508 8 1.20508Z" fill="#43454A"/>
<path fill-rule="evenodd" clip-rule="evenodd" d="M13 8.29289V5.09723C12.7276 5.27221 12.4117 5.42512 12.0676 5.55665C11.0021 5.96403 9.56381 6.2055 8 6.2055C6.43619 6.2055 4.99792 5.96403 3.93236 5.55665C3.58833 5.42512 3.27236 5.27221 3 5.09723V6.5C3 6.77614 2.77614 7 2.5 7C2.22386 7 2 6.77614 2 6.5V3.60275C2 3.12191 2.25679 2.7208 2.59694 2.41334C2.9371 2.10586 3.40129 1.85189 3.93236 1.64885C4.99792 1.24147 6.43619 1 8 1C9.56381 1 11.0021 1.24147 12.0676 1.64885C12.5987 1.85189 13.0629 2.10586 13.4031 2.41334C13.7432 2.7208 14 3.12191 14 3.60275V8.29289L15.1464 7.14645C15.3417 6.95118 15.6583 6.95118 15.8536 7.14645C16.0488 7.34171 16.0488 7.65829 15.8536 7.85355L13.8536 9.85355C13.6583 10.0488 13.3417 10.0488 13.1464 9.85355L11.1464 7.85355C10.9512 7.65829 10.9512 7.34171 11.1464 7.14645C11.3417 6.95118 11.6583 6.95118 11.8536 7.14645L13 8.29289ZM3 3.60275C3 3.50293 3.05102 3.35087 3.2675 3.15519C3.48396 2.95953 3.82523 2.7604 4.28947 2.58291C5.21452 2.22925 6.52624 2 8 2C9.47376 2 10.7855 2.22925 11.7105 2.58291C12.1748 2.7604 12.516 2.95953 12.7325 3.15519C12.949 3.35087 13 3.50293 13 3.60275C13 3.70256 12.949 3.85463 12.7325 4.05031C12.516 4.24597 12.1748 4.4451 11.7105 4.62258C10.7855 4.97625 9.47376 5.2055 8 5.2055C6.52624 5.2055 5.21452 4.97625 4.28947 4.62258C3.82523 4.4451 3.48396 4.24597 3.2675 4.05031C3.05102 3.85463 3 3.70256 3 3.60275Z" fill="#CED0D6"/>
<path d="M4.85355 10.8536C4.65829 11.0488 4.34171 11.0488 4.14645 10.8536L3 9.70711V12.4C3 12.4998 3.05102 12.6519 3.2675 12.8476C3.48396 13.0432 3.82523 13.2424 4.28947 13.4198C5.21452 13.7735 6.52624 14.0027 8 14.0027C9.47376 14.0027 10.7855 13.7735 11.7105 13.4198C12.1748 13.2424 12.516 13.0432 12.7325 12.8476C12.949 12.6519 13 12.4998 13 12.4V11.5C13 11.2239 13.2239 11 13.5 11C13.7761 11 14 11.2239 14 11.5V12.4C14 12.8808 13.7432 13.2819 13.4031 13.5894C13.0629 13.8969 12.5987 14.1509 12.0676 14.3539C11.0021 14.7613 9.56381 15.0027 8 15.0027C6.43619 15.0027 4.99792 14.7613 3.93236 14.3539C3.40129 14.1509 2.9371 13.8969 2.59694 13.5894C2.25679 13.2819 2 12.8808 2 12.4V9.70711L0.853553 10.8536C0.658291 11.0488 0.341709 11.0488 0.146446 10.8536C-0.0488155 10.6583 -0.0488155 10.3417 0.146446 10.1464L2.14645 8.14645L2.15294 8.14007C2.24286 8.05334 2.3652 8 2.5 8C2.6379 8 2.76277 8.05583 2.85322 8.14612L4.85355 10.1464C5.04882 10.3417 5.04882 10.6583 4.85355 10.8536Z" fill="#CED0D6"/>
</svg>
