<svg xmlns="http://www.w3.org/2000/svg" width="48" height="48">
  <path d="M24,3c-3,0-6,0-9,3L8.558,12.438a1.5,1.5,0,0,0,0,2.122A1.5,1.5,0,0,1,9,15.622V18H5.121a2.121,2.121,0,0,0-1.5,3.62l4.759,4.759A2.121,2.121,0,0,0,12,24.877L12,21h2.388a1.474,1.474,0,0,1,1.044.433l.007.007a1.5,1.5,0,0,0,2.121,0L22.5,16.5a2.121,2.121,0,0,0,0-3l-3.3-3.3A10.063,10.063,0,0,1,27,6a1.5,1.5,0,0,0,0-3Z" fill="#9aa7b0" fill-opacity=".8"/>
  <path d="M43.986,36.71,22.422,18.016,22.406,18l-3.4,3.4.012.017L37.509,42.991a2.878,2.878,0,0,0,4.251.138l2.37-2.162A2.885,2.885,0,0,0,43.986,36.71Z" fill="#f26522" fill-opacity=".7"/>
</svg>
