<svg xmlns="http://www.w3.org/2000/svg" width="48" height="48">
  <path d="M22,28.461l-10-8v-7.31a5.905,5.905,0,0,0,4,0v5.388l10,8v7.31a5.905,5.905,0,0,0-4,0ZM29,39.5a5,5,0,1,1-5-5A5,5,0,0,1,29,39.5Zm-2,0a3,3,0,1,0-3,3A3,3,0,0,0,27,39.5Zm-8-32a5,5,0,1,1-5-5A5,5,0,0,1,19,7.5Zm-2,0a3,3,0,1,0-3,3A3,3,0,0,0,17,7.5Z" fill="#b99bf8" fill-opacity=".7"/>
  <path d="M36,13.151v7.31l-9,7.2v-1.6L24.8,24.3l7.2-5.76V13.151a5.905,5.905,0,0,0,4,0ZM39,7.5a5,5,0,1,1-5-5A5,5,0,0,1,39,7.5Zm-2,0a3,3,0,1,0-3,3A3,3,0,0,0,37,7.5Z" fill="#f4af3d" fill-opacity=".7"/>
</svg>
