<svg width="80" height="80" viewBox="0 0 80 80" fill="none" xmlns="http://www.w3.org/2000/svg">
<path d="M37.0999 44.4L29.9 48.5L29.5 56L19 60.6L5.69995 61.8L8.49995 14.4L35.7 3L65 29.9L37.0999 44.4Z" fill="url(#paint0_linear)"/>
<path d="M54.3 15.6L77.5 31.3L69.7 48.5L56.7 44.9H45.4L54.3 15.6Z" fill="url(#paint1_linear)"/>
<path d="M41.8 57.8L22.3 12.3L35.7001 3L77.4001 31.3L41.8 57.8Z" fill="url(#paint2_linear)"/>
<path d="M8.5 14.4L35.7 3L22.3 12.3L8.5 14.4Z" fill="url(#paint3_linear)"/>
<path d="M8.5 14.4L35.7 3L22.3 12.3L4 62.2L8.5 14.4Z" fill="url(#paint4_linear)"/>
<path d="M31.7 27.5L43.7 66.3L29.4 77L4 62.2L10.7 43.5L31 22.7L31.7 27.5Z" fill="#21D789"/>
<path d="M26.6 57.9L4 62.2L29.4 77L43.7 66.3L26.6 57.9Z" fill="url(#paint5_linear)"/>
<path d="M26.6 57.9L4 62.2L10.7 43.5L31 22.7L26.6 57.9Z" fill="url(#paint6_linear)"/>
<path d="M32.8 56.1L43.6 66.3L29.4 77L32.8 56.1Z" fill="url(#paint7_linear)"/>
<path d="M78 69.2L55.4 76.9L25.4 68.4L31 22.7L59 3L61.8 23.4L54.2 39.9L68.8 34.3L71.7 45.5L78 69.2Z" fill="url(#paint8_linear)"/>
<path d="M78 69.2L55.4 76.9L68.8 34.3L78 69.2Z" fill="url(#paint9_linear)"/>
<path d="M59 3L48.4 26.6L40.1 44.9L54.2 39.9L62 23.2L59 3Z" fill="url(#paint10_linear)"/>
<path d="M8.5 14.4L35.7 3L22.3 12.3L8.5 14.4Z" fill="url(#paint11_linear)"/>
<path d="M78 69.2L55.4 76.9L25.4 68.4L43.6 66.5L78 69.2Z" fill="url(#paint12_linear)"/>
<path d="M58.3 67.7L55.4 76.9L78 69.2L58.3 67.7Z" fill="url(#paint13_linear)"/>
<path d="M63 17H17V63H63V17Z" fill="url(#paint14_linear)"/>
<g opacity="0.3">
<path opacity="0.3" d="M63 41.15V22.3666L60.2528 20.5139L60.7 23.5166L53.1611 39.8722L63 36.1027V41.15Z" fill="url(#paint15_linear)"/>
<path opacity="0.3" d="M63 63V36.1028L53.1611 39.8722L60.7 23.5167L59.8056 17H38.275L30.0972 22.75L25.1139 63H63Z" fill="url(#paint16_linear)"/>
<path opacity="0.3" d="M47.4111 26.6472L39.0416 44.9194L53.1611 39.8722L60.8916 23.325L59.9972 17H51.7555L47.4111 26.6472Z" fill="url(#paint17_linear)"/>
<path opacity="0.3" d="M23.325 17H17V36.1667L27.0944 25.8167L23.325 17Z" fill="url(#paint18_linear)"/>
<path opacity="0.3" d="M17 59.4861L25.6889 57.825L30.0972 22.75L17 36.1667V59.4861Z" fill="url(#paint19_linear)"/>
</g>
<path d="M39.9 54.3H22.7V57.2001H39.9V54.3Z" fill="white"/>
<path d="M40 54.3H22.8V57.2001H40V54.3Z" fill="white"/>
<path d="M22.9 22.8H29.9C34 22.8 36.5 25.2 36.5 28.8C36.5 32.8 33.4 34.9 29.5 34.9H26.7V40H22.9V22.8ZM29.7 31.5C31.6 31.5 32.7 30.3 32.7 28.8C32.7 27.1 31.5 26.2 29.6 26.2H26.7V31.5H29.7Z" fill="white"/>
<path d="M38.6 31.4C38.6 26.5 42.3 22.4 47.6 22.4C50.8 22.4 52.8 23.5 54.4 25.1L52 27.9C50.6 26.7 49.2 26 47.5 26C44.6 26 42.5 28.4 42.5 31.4C42.5 34.4 44.5 36.8 47.5 36.8C49.5 36.8 50.7 36 52 34.8L54.4 37.2C52.6 39.1 50.7 40.3 47.3 40.3C42.3 40.3 38.6 36.4 38.6 31.4Z" fill="white"/>
<defs>
<linearGradient id="paint0_linear" x1="-20.373" y1="64.3386" x2="69.0553" y2="-1.6772" gradientUnits="userSpaceOnUse">
<stop offset="0.0107527" stop-color="#FCF84A"/>
<stop offset="0.1116" stop-color="#A7EB62"/>
<stop offset="0.2056" stop-color="#5FE077"/>
<stop offset="0.2727" stop-color="#32DA84"/>
<stop offset="0.3065" stop-color="#21D789"/>
<stop offset="0.5768" stop-color="#21D789"/>
<stop offset="0.5968" stop-color="#21D789"/>
<stop offset="0.686" stop-color="#20D68C"/>
<stop offset="0.7627" stop-color="#1ED497"/>
<stop offset="0.8348" stop-color="#19D1A9"/>
<stop offset="0.904" stop-color="#13CCC2"/>
<stop offset="0.9707" stop-color="#0BC6E1"/>
<stop offset="1" stop-color="#07C3F2"/>
</linearGradient>
<linearGradient id="paint1_linear" x1="56.3336" y1="21.868" x2="67.1257" y2="55.9947" gradientUnits="userSpaceOnUse">
<stop stop-color="#009AE5"/>
<stop offset="1" stop-color="#07C3F2"/>
</linearGradient>
<linearGradient id="paint2_linear" x1="13.3293" y1="18.8792" x2="69.6546" y2="44.3779" gradientUnits="userSpaceOnUse">
<stop offset="0.0344093" stop-color="#10E899"/>
<stop offset="0.1745" stop-color="#13E596"/>
<stop offset="0.2947" stop-color="#1EDA8C"/>
<stop offset="0.3185" stop-color="#21D789"/>
<stop offset="0.3975" stop-color="#20D68C"/>
<stop offset="0.4653" stop-color="#1ED497"/>
<stop offset="0.529" stop-color="#19D1A9"/>
<stop offset="0.5903" stop-color="#13CCC2"/>
<stop offset="0.6492" stop-color="#0BC6E1"/>
<stop offset="0.6752" stop-color="#07C3F2"/>
<stop offset="0.9215" stop-color="#07EBFF"/>
</linearGradient>
<linearGradient id="paint3_linear" x1="25.2683" y1="13.4155" x2="20.3284" y2="6.0448" gradientUnits="userSpaceOnUse">
<stop stop-color="#07C3F2"/>
<stop offset="0.1949" stop-color="#0BC6E2"/>
<stop offset="0.5746" stop-color="#15CEB8"/>
<stop offset="0.9463" stop-color="#21D789"/>
</linearGradient>
<linearGradient id="paint4_linear" x1="-4.1538" y1="20.6179" x2="24.6442" y2="35.0169" gradientUnits="userSpaceOnUse">
<stop offset="0.030218" stop-color="#C1EF5B"/>
<stop offset="0.2486" stop-color="#9DEA65"/>
<stop offset="0.7318" stop-color="#41DC80"/>
<stop offset="0.896" stop-color="#21D789"/>
</linearGradient>
<linearGradient id="paint5_linear" x1="32.3926" y1="43.4841" x2="15.8246" y2="83.8377" gradientUnits="userSpaceOnUse">
<stop offset="0.1026" stop-color="#087CFA"/>
<stop offset="0.2273" stop-color="#0C89EA" stop-opacity="0.8064"/>
<stop offset="0.4716" stop-color="#15ABC0" stop-opacity="0.427"/>
<stop offset="0.7466" stop-color="#21D789" stop-opacity="0"/>
</linearGradient>
<linearGradient id="paint6_linear" x1="17.0182" y1="20.783" x2="17.9786" y2="62.2137" gradientUnits="userSpaceOnUse">
<stop offset="0.0108126" stop-color="#FCF84A"/>
<stop offset="0.0924045" stop-color="#ECF64F"/>
<stop offset="0.2525" stop-color="#C1EF5B"/>
<stop offset="0.4754" stop-color="#7DE56F"/>
<stop offset="0.7466" stop-color="#21D789"/>
</linearGradient>
<linearGradient id="paint7_linear" x1="29.3791" y1="66.5744" x2="43.6083" y2="66.5744" gradientUnits="userSpaceOnUse">
<stop stop-color="#13A5C7"/>
<stop offset="1" stop-color="#21D789"/>
</linearGradient>
<linearGradient id="paint8_linear" x1="93.1893" y1="72.2076" x2="17.2635" y2="17.8392" gradientUnits="userSpaceOnUse">
<stop offset="0.4732" stop-color="#FCF84A"/>
<stop offset="0.5319" stop-color="#ECF74C"/>
<stop offset="0.647" stop-color="#C1F451"/>
<stop offset="0.8056" stop-color="#7EEF5A"/>
<stop offset="0.9489" stop-color="#3BEA62"/>
</linearGradient>
<linearGradient id="paint9_linear" x1="91.1555" y1="50.6321" x2="30.5588" y2="60.9139" gradientUnits="userSpaceOnUse">
<stop offset="0.2756" stop-color="#FCF84A"/>
<stop offset="0.3649" stop-color="#ECF74C"/>
<stop offset="0.5402" stop-color="#C1F451"/>
<stop offset="0.7817" stop-color="#7EEF5A"/>
<stop offset="1" stop-color="#3BEA62"/>
</linearGradient>
<linearGradient id="paint10_linear" x1="67.5047" y1="48.8977" x2="44.6078" y2="17.1046" gradientUnits="userSpaceOnUse">
<stop offset="0.1216" stop-color="#FCF84A"/>
<stop offset="0.2021" stop-color="#F3F74B"/>
<stop offset="0.3351" stop-color="#DAF350"/>
<stop offset="0.5044" stop-color="#B1ED56"/>
<stop offset="0.7031" stop-color="#78E55F"/>
<stop offset="0.9242" stop-color="#30DB6B"/>
<stop offset="1" stop-color="#16D76F"/>
</linearGradient>
<linearGradient id="paint11_linear" x1="10.4293" y1="7.5085" x2="31.0516" y2="9.5829" gradientUnits="userSpaceOnUse">
<stop stop-color="#FCF84A"/>
<stop offset="0.1636" stop-color="#D8F957"/>
<stop offset="0.529" stop-color="#7BFC79"/>
<stop offset="0.9855" stop-color="#00FFA6"/>
</linearGradient>
<linearGradient id="paint12_linear" x1="76.7487" y1="66.464" x2="19.4607" y2="76.1843" gradientUnits="userSpaceOnUse">
<stop offset="0.0899703" stop-color="#3BEA62"/>
<stop offset="0.1675" stop-color="#67ED5C"/>
<stop offset="0.25" stop-color="#8FF058"/>
<stop offset="0.3382" stop-color="#B1F353"/>
<stop offset="0.4319" stop-color="#CCF550"/>
<stop offset="0.5329" stop-color="#E1F64D"/>
<stop offset="0.6448" stop-color="#F0F74B"/>
<stop offset="0.776" stop-color="#F9F84A"/>
<stop offset="0.9744" stop-color="#FCF84A"/>
</linearGradient>
<linearGradient id="paint13_linear" x1="60.8641" y1="65.0755" x2="72.7005" y2="81.1828" gradientUnits="userSpaceOnUse">
<stop stop-color="#3BEA62"/>
<stop offset="0.0877078" stop-color="#67ED5C"/>
<stop offset="0.1809" stop-color="#8FF058"/>
<stop offset="0.2807" stop-color="#B1F353"/>
<stop offset="0.3866" stop-color="#CCF550"/>
<stop offset="0.5008" stop-color="#E1F64D"/>
<stop offset="0.6273" stop-color="#F0F74B"/>
<stop offset="0.7757" stop-color="#F9F84A"/>
<stop offset="1" stop-color="#FCF84A"/>
</linearGradient>
<linearGradient id="paint14_linear" x1="16.2902" y1="20.6704" x2="63.3791" y2="59.0601" gradientUnits="userSpaceOnUse">
<stop stop-color="#2C4915"/>
<stop offset="0.479167"/>
</linearGradient>
<linearGradient id="paint15_linear" x1="55.0874" y1="29.4704" x2="65.7517" y2="34.2981" gradientUnits="userSpaceOnUse">
<stop offset="0.3185" stop-color="#21D789" stop-opacity="0"/>
<stop offset="0.4209" stop-color="#20D68C" stop-opacity="0.2213"/>
<stop offset="0.509" stop-color="#1ED497" stop-opacity="0.4115"/>
<stop offset="0.5917" stop-color="#19D1A9" stop-opacity="0.5903"/>
<stop offset="0.6711" stop-color="#13CCC2" stop-opacity="0.762"/>
<stop offset="0.7476" stop-color="#0BC6E1" stop-opacity="0.9273"/>
<stop offset="0.7813" stop-color="#07C3F2"/>
</linearGradient>
<linearGradient id="paint16_linear" x1="27.6623" y1="27.9431" x2="64.7203" y2="58.155" gradientUnits="userSpaceOnUse">
<stop offset="0.0268021" stop-color="#FCF84A"/>
<stop offset="0.093679" stop-color="#E5E543"/>
<stop offset="0.3358" stop-color="#94A22C"/>
<stop offset="0.5509" stop-color="#556D19"/>
<stop offset="0.731" stop-color="#27470B"/>
<stop offset="0.8692" stop-color="#0B3003"/>
<stop offset="0.9489" stop-color="#002700"/>
</linearGradient>
<linearGradient id="paint17_linear" x1="40.7668" y1="7.27055" x2="53.1688" y2="40.8291" gradientUnits="userSpaceOnUse">
<stop offset="0.1216" stop-color="#21D789"/>
<stop offset="0.2439" stop-color="#1FCE80"/>
<stop offset="0.4459" stop-color="#18B667"/>
<stop offset="0.7026" stop-color="#0E8E3E"/>
<stop offset="1" stop-color="#005806"/>
</linearGradient>
<linearGradient id="paint18_linear" x1="17" y1="26.5716" x2="27.1161" y2="26.5716" gradientUnits="userSpaceOnUse">
<stop offset="0.0108126" stop-color="#FCF84A"/>
<stop offset="0.0924045" stop-color="#ECF64F"/>
<stop offset="0.2525" stop-color="#C1EF5B"/>
<stop offset="0.4754" stop-color="#7DE56F"/>
<stop offset="0.7466" stop-color="#21D789"/>
</linearGradient>
<linearGradient id="paint19_linear" x1="17.6146" y1="36.2736" x2="32.4853" y2="48.397" gradientUnits="userSpaceOnUse">
<stop offset="0.0108126" stop-color="#FCF84A"/>
<stop offset="0.0924045" stop-color="#ECF64F"/>
<stop offset="0.2525" stop-color="#C1EF5B"/>
<stop offset="0.4754" stop-color="#7DE56F"/>
<stop offset="0.7466" stop-color="#21D789"/>
</linearGradient>
</defs>
</svg>
