<svg width="32" height="32" viewBox="0 0 32 32" fill="none" xmlns="http://www.w3.org/2000/svg">
<path d="M30 23.6002L30.5 11.0002L22.5 9.2002L15.7 13.8002L18.9 23.1002L30 23.6002Z" fill="url(#paint0_linear)"/>
<path d="M30 23.6L30.5 11L28.3 16.9L30 23.6Z" fill="url(#paint1_linear)"/>
<path d="M28.3 16.8996L30.5 10.9996L22.6 7.59961L13.7 15.7996L28.3 16.8996Z" fill="url(#paint2_linear)"/>
<path d="M28.3 16.8996L30.5 10.9996L22.6 7.59961L13.7 15.7996L28.3 16.8996Z" fill="url(#paint3_linear)"/>
<path d="M21.5 17.3996L22.6 7.59961L13.7 15.7996L21.5 17.3996Z" fill="url(#paint4_linear)"/>
<path d="M20.1 30.5L30 23.6L6 13L1.5 25.8L20.1 30.5Z" fill="url(#paint5_linear)"/>
<path d="M14.4 18.9L6 13L1.5 25.8L14.4 18.9Z" fill="url(#paint6_linear)"/>
<path d="M30.0001 23.6004L20.1001 30.5004L28.3001 16.9004L30.0001 23.6004Z" fill="url(#paint7_linear)"/>
<path d="M30.0001 23.5996L20.1001 30.4996L25.4001 21.5996L30.0001 23.5996Z" fill="url(#paint8_linear)"/>
<path d="M1.5 12.6L17.5 24.8L28.3 16.9L16 3.3L5.4 1.5L1.5 12.6Z" fill="url(#paint9_linear)"/>
<path d="M13 21.2996L17.5 24.7996L28.3 16.8996L17.3 12.5996L13 21.2996Z" fill="url(#paint10_linear)"/>
<path d="M21.9 14.3996L17.3 12.5996L18.7001 16.1996L21.6 16.3996L21.9 14.3996Z" fill="url(#paint11_linear)"/>
<path d="M21.6001 16.4004L28.3001 16.9004L21.9001 14.4004L21.6001 16.4004Z" fill="url(#paint12_linear)"/>
<path d="M21.9 14.3996L17.3 12.5996L21.2001 19.5996L21.9 14.3996Z" fill="url(#paint13_linear)"/>
<path d="M1.5 12.5998L17.5 24.7998L9.6 10.2998L1.5 12.5998Z" fill="url(#paint14_linear)"/>
<path d="M5.19995 15.4L17.5 24.8L12.6 15.9L5.99995 13L5.19995 15.4Z" fill="url(#paint15_linear)"/>
<path d="M28.3 16.9004L17.5 24.8004L20.5 29.9004L28.3 16.9004Z" fill="url(#paint16_linear)"/>
<path d="M13 21.2998L17.5 24.7998L14.2 18.7998L13 21.2998Z" fill="url(#paint17_linear)"/>
<path d="M1.5 12.6L9.6 10.3L16 3.3L5.4 1.5L1.5 12.6Z" fill="url(#paint18_linear)"/>
<path d="M16 3.2998L12 7.5998L17.3 12.5998L28.3 16.8998L16 3.2998Z" fill="url(#paint19_linear)"/>
<path d="M17.3 12.5V12.6L21.9 14.4L22.3 10.3L21.1 9L17.3 12.5Z" fill="url(#paint20_linear)"/>
<path d="M15.9999 3.3L5.3999 1.5L11.9999 7.6L15.9999 3.3Z" fill="url(#paint21_linear)"/>
<path d="M1.5 12.6L9.6 10.3L16 3.3L5.4 1.5L1.5 12.6Z" fill="url(#paint22_linear)"/>
<path d="M25 7H7V25H25V7Z" fill="url(#paint23_linear)"/>
<path d="M15.9001 21.4004H9.1001V23.0004H15.9001V21.4004Z" fill="white"/>
<path d="M9 9.2002H11.7C13.3 9.2002 14.3 10.2002 14.3 11.5002C14.3 13.1002 13.1 13.9002 11.6 13.9002H10.4V15.9002H9V9.2002ZM11.6 12.7002C12.3 12.7002 12.8 12.2002 12.8 11.6002C12.8 10.9002 12.3 10.6002 11.6 10.6002H10.4V12.7002H11.6Z" fill="white"/>
<path d="M15 14.9149L15.9196 13.8968C16.3028 14.3128 16.6641 14.5536 17.1239 14.5536C17.6712 14.5536 18.0106 14.2252 18.0106 13.4589V9.2002H19.5105V13.5245C19.5105 14.3128 19.2806 14.893 18.8864 15.2871C18.4814 15.6922 17.8902 15.9002 17.1676 15.9002C16.1386 15.9002 15.4598 15.4513 15 14.9149Z" fill="white"/>
<defs>
<linearGradient id="paint0_linear" x1="26.2661" y1="21.6619" x2="22.0646" y2="9.5241" gradientUnits="userSpaceOnUse">
<stop offset="0.000825369" stop-color="#FF318C"/>
<stop offset="1" stop-color="#FE6C54"/>
</linearGradient>
<linearGradient id="paint1_linear" x1="34.0715" y1="16.8376" x2="23.9677" y2="18.1637" gradientUnits="userSpaceOnUse">
<stop offset="0.3305" stop-color="#FF318C"/>
<stop offset="0.9422" stop-color="#B045ED"/>
</linearGradient>
<linearGradient id="paint2_linear" x1="27.2441" y1="8.41381" x2="22.6475" y2="14.2516" gradientUnits="userSpaceOnUse">
<stop  offset="0" stop-color="#FF546A"/>
<stop offset="0.7814" stop-color="#FE764A"/>
</linearGradient>
<linearGradient id="paint3_linear" x1="32.0058" y1="11.7652" x2="24.1123" y2="12.3335" gradientUnits="userSpaceOnUse">
<stop offset="0.1065" stop-color="#FCBCC3" stop-opacity="0.96"/>
<stop offset="0.7261" stop-color="#FF4694" stop-opacity="0.1407"/>
<stop offset="0.8325" stop-color="#FF318C" stop-opacity="0"/>
</linearGradient>
<linearGradient id="paint4_linear" x1="23.9387" y1="8.55541" x2="20.0425" y2="13.5036" gradientUnits="userSpaceOnUse">
<stop offset="0.016776" stop-color="#61316F" stop-opacity="0"/>
<stop offset="0.8106" stop-color="#6B57FF"/>
</linearGradient>
<linearGradient id="paint5_linear" x1="25.833" y1="27.3553" x2="4.674" y2="19.7206" gradientUnits="userSpaceOnUse">
<stop offset="0.016776" stop-color="#FF318C"/>
<stop offset="0.8106" stop-color="#6B57FF"/>
</linearGradient>
<linearGradient id="paint6_linear" x1="9.6344" y1="28.3016" x2="6.2245" y2="16.4298" gradientUnits="userSpaceOnUse">
<stop offset="0.016776" stop-color="#61316F"/>
<stop offset="0.8106" stop-color="#6B57FF"/>
</linearGradient>
<linearGradient id="paint7_linear" x1="29.2415" y1="26.9842" x2="18.8605" y2="20.2641" gradientUnits="userSpaceOnUse">
<stop offset="0.1555" stop-color="#FF318C"/>
<stop offset="1" stop-color="#6B57FF"/>
</linearGradient>
<linearGradient id="paint8_linear" x1="25.7599" y1="20.7456" x2="25.2379" y2="25.3691" gradientUnits="userSpaceOnUse">
<stop offset="0.0655781" stop-color="#762784"/>
<stop offset="0.8106" stop-color="#FF318C" stop-opacity="0"/>
</linearGradient>
<linearGradient id="paint9_linear" x1="9.7109" y1="21.734" x2="18.7096" y2="5.8402" gradientUnits="userSpaceOnUse">
<stop offset="0.3305" stop-color="#FF318C"/>
<stop offset="0.9422" stop-color="#FDB60D"/>
</linearGradient>
<linearGradient id="paint10_linear" x1="16.8111" y1="25.3126" x2="22.909" y2="14.5423" gradientUnits="userSpaceOnUse">
<stop offset="0.3305" stop-color="#FF318C"/>
<stop offset="0.9422" stop-color="#FDB60D"/>
</linearGradient>
<linearGradient id="paint11_linear" x1="24.5795" y1="13.2503" x2="18.6436" y2="14.7027" gradientUnits="userSpaceOnUse">
<stop  offset="0" stop-color="#FF318C"/>
<stop offset="1" stop-color="#FDB60D" stop-opacity="0"/>
</linearGradient>
<linearGradient id="paint12_linear" x1="20.4734" y1="14.1939" x2="28.0916" y2="18.3998" gradientUnits="userSpaceOnUse">
<stop  offset="0" stop-color="#FF318C"/>
<stop offset="0.9422" stop-color="#FDB60D" stop-opacity="0"/>
</linearGradient>
<linearGradient id="paint13_linear" x1="24.9308" y1="14.6863" x2="18.9949" y2="16.1387" gradientUnits="userSpaceOnUse">
<stop offset="0.3296" stop-color="#FF318C"/>
<stop offset="1" stop-color="#FDB60D" stop-opacity="0"/>
</linearGradient>
<linearGradient id="paint14_linear" x1="8.5374" y1="20.3638" x2="12.8942" y2="12.6686" gradientUnits="userSpaceOnUse">
<stop offset="0.3305" stop-color="#FF318C"/>
<stop offset="0.9422" stop-color="#FDB60D"/>
</linearGradient>
<linearGradient id="paint15_linear" x1="3.81425" y1="21.4782" x2="14.3599" y2="18.0051" gradientUnits="userSpaceOnUse">
<stop offset="0.3313" stop-color="#FF318C" stop-opacity="0"/>
<stop offset="0.9422" stop-color="#B045ED"/>
</linearGradient>
<linearGradient id="paint16_linear" x1="21.2979" y1="19.2709" x2="25.1212" y2="24.4051" gradientUnits="userSpaceOnUse">
<stop offset="0.036877" stop-color="#FDB60D"/>
<stop offset="0.9422" stop-color="#FF318C" stop-opacity="0"/>
</linearGradient>
<linearGradient id="paint17_linear" x1="14.8546" y1="23.5511" x2="16.6501" y2="20.3798" gradientUnits="userSpaceOnUse">
<stop offset="0.3305" stop-color="#FF318C"/>
<stop offset="0.9422" stop-color="#B045ED"/>
</linearGradient>
<linearGradient id="paint18_linear" x1="5.3284" y1="13.7278" x2="10.2539" y2="3.3084" gradientUnits="userSpaceOnUse">
<stop offset="0.0839659" stop-color="#FF318C"/>
<stop offset="0.8747" stop-color="#FDB60D"/>
<stop offset="0.9935" stop-color="#FDCE0D"/>
</linearGradient>
<linearGradient id="paint19_linear" x1="14.7142" y1="17.5231" x2="20.9658" y2="11.2715" gradientUnits="userSpaceOnUse">
<stop offset="0.3305" stop-color="#FF318C"/>
<stop offset="0.9422" stop-color="#FDB60D"/>
</linearGradient>
<linearGradient id="paint20_linear" x1="23.8338" y1="19.7096" x2="19.6029" y2="10.9952" gradientUnits="userSpaceOnUse">
<stop offset="0.3305" stop-color="#FF318C"/>
<stop offset="0.9422" stop-color="#FDB60D"/>
</linearGradient>
<linearGradient id="paint21_linear" x1="8.8832" y1="8.8803" x2="10.7776" y2="2.0603" gradientUnits="userSpaceOnUse">
<stop offset="0.0839659" stop-color="#FF318C"/>
<stop offset="0.6835" stop-color="#FDB60D"/>
<stop offset="1" stop-color="#FDCE0D"/>
</linearGradient>
<linearGradient id="paint22_linear" x1="18.5823" y1="6.7062" x2="7.2157" y2="6.9588" gradientUnits="userSpaceOnUse">
<stop  offset="0" stop-color="#FCF84A" stop-opacity="0.96"/>
<stop offset="1" stop-color="#FCF84A" stop-opacity="0"/>
</linearGradient>
<linearGradient id="paint23_linear" x1="7.02651" y1="7.02651" x2="23.1855" y2="23.1855" gradientUnits="userSpaceOnUse">
<stop  offset="0" stop-color="#7D2C38"/>
<stop offset="0.0123355" stop-color="#792B36"/>
<stop offset="0.1641" stop-color="#4E1B23"/>
<stop offset="0.311" stop-color="#2C1014"/>
<stop offset="0.4501" stop-color="#140709"/>
<stop offset="0.578" stop-color="#050202"/>
<stop offset="0.6844"/>
</linearGradient>
</defs>
</svg>
