<svg width="32" height="32" viewBox="0 0 32 32" fill="none" xmlns="http://www.w3.org/2000/svg" data-scaled="true">
<g clip-path="url(#clip0_4372_11286)">
<path d="M2.90918 24.0261L2.91005 29.9638C2.91005 31.0885 3.82176 31.9999 4.94642 31.9999H10.6997C11.2941 31.9999 11.859 31.7401 12.2459 31.2889L28.6005 12.2082C28.9167 11.839 29.0907 11.3689 29.0907 10.8828V4.94506C29.0907 3.8204 28.179 2.90869 27.0543 2.90869H21.3002C20.7058 2.90869 20.1409 3.16847 19.754 3.61967L3.39936 22.7004C3.08285 23.0696 2.90918 23.5397 2.90918 24.0261Z" fill="#00D886"/>
<path d="M2.90918 24.7403V29.9636C2.90918 31.0882 3.82089 31.9999 4.94554 31.9999H11.4919C11.5882 31.9999 11.6845 31.9929 11.7799 31.9796L30.2517 29.341C31.2551 29.1976 32.0001 28.3385 32.0001 27.325V19.4885C32.0001 18.3636 31.0881 17.4519 29.9631 17.4521L20.6939 17.4545C20.4751 17.4545 20.2578 17.4897 20.0504 17.5589L4.30147 22.8087C3.47005 23.0859 2.90918 23.8641 2.90918 24.7406V24.7403Z" fill="url(#paint0_linear_4372_11286)"/>
<path d="M0 2.03636V19.0205C0 19.8351 0.485527 20.5713 1.23404 20.8922L19.9793 28.9263C20.2327 29.0348 20.5059 29.0909 20.7817 29.0909H29.9636C31.0883 29.0909 32 28.1792 32 27.0545V18.0716C32 17.6692 31.8807 17.2759 31.6573 16.9411L20.9559 0.906764C20.578 0.340655 19.9427 0.000872727 19.2623 0.000872727L2.03636 0C0.911709 0 0 0.911709 0 2.03636Z" fill="url(#paint1_linear_4372_11286)"/>
<path d="M26 6H6V26H26V6Z" fill="black"/>
<path d="M8.9502 9.02017H12.2139C12.746 9.02017 13.2149 9.11792 13.6205 9.31341C14.026 9.5089 14.3373 9.78381 14.5546 10.1387C14.7754 10.4936 14.8859 10.9044 14.8859 11.3713C14.8859 11.8382 14.7736 12.2618 14.5493 12.6202C14.3285 12.9786 14.0117 13.2576 13.5989 13.4565C13.1899 13.652 12.7137 13.7498 12.1709 13.7498H10.4333V16.6225H8.95078V9.02017H8.9502ZM12.1159 12.5175C12.3658 12.5175 12.5828 12.4721 12.7675 12.3816C12.9557 12.2874 13.1006 12.1556 13.2018 11.9851C13.3031 11.8114 13.354 11.6104 13.354 11.3824C13.354 11.1543 13.3034 10.9512 13.2018 10.7851C13.1003 10.6146 12.9557 10.4843 12.7675 10.3941C12.5828 10.2999 12.3658 10.253 12.1159 10.253H10.4324V12.5175H12.1159ZM19.1788 16.7531C18.4513 16.7531 17.7924 16.5826 17.2021 16.2426C16.6119 15.8984 16.1487 15.428 15.8119 14.8308C15.4753 14.2301 15.3068 13.5601 15.3068 12.8215C15.3068 12.0829 15.4753 11.4149 15.8119 10.8177C16.1484 10.217 16.6119 9.74599 17.2021 9.40592C17.7921 9.06177 18.451 8.89014 19.1788 8.89014C19.7941 8.89014 20.3591 9.00417 20.8731 9.23225C21.3871 9.46032 21.8142 9.78061 22.1546 10.1934C22.4984 10.6027 22.7282 11.0731 22.8443 11.6052H21.2911C21.1896 11.3303 21.0378 11.0894 20.835 10.8829C20.6357 10.6731 20.3951 10.5117 20.1127 10.3997C19.8302 10.2877 19.5224 10.2312 19.1896 10.2312C18.7407 10.2312 18.3352 10.3432 17.9733 10.5678C17.6111 10.7924 17.3272 11.1019 17.1207 11.4964C16.9179 11.8874 16.8167 12.3293 16.8167 12.8215C16.8167 13.3137 16.9179 13.7576 17.1207 14.1518C17.3269 14.5428 17.6111 14.8503 17.9733 15.0749C18.3352 15.2994 18.7407 15.4114 19.1896 15.4114C19.5227 15.4114 19.8305 15.355 20.1127 15.243C20.3949 15.131 20.6357 14.9716 20.835 14.765C21.0378 14.5553 21.1896 14.3124 21.2911 14.0375H22.8443C22.7285 14.5696 22.4984 15.042 22.1546 15.4548C21.8142 15.8641 21.3871 16.1824 20.8731 16.4104C20.3591 16.6385 19.7941 16.7525 19.1788 16.7525V16.7531Z" fill="white"/>
<path d="M16 22H9V23H16V22Z" fill="white"/>
</g>
<defs>
<linearGradient id="paint0_linear_4372_11286" x1="3.81071" y1="32.3586" x2="30.6238" y2="19.9269" gradientUnits="userSpaceOnUse">
<stop offset="0.1" stop-color="#00D886"/>
<stop offset="0.59" stop-color="#F0EB18"/>
</linearGradient>
<linearGradient id="paint1_linear_4372_11286" x1="30.0093" y1="29.8889" x2="0.656584" y2="0.536147" gradientUnits="userSpaceOnUse">
<stop offset="0.3" stop-color="#F0EB18"/>
<stop offset="0.7" stop-color="#00C4F4"/>
</linearGradient>
<clipPath id="clip0_4372_11286">
<rect width="32" height="32" fill="white"/>
</clipPath>
</defs>
<path d="M28.0943 32H11.9057C11.3928 32 10.8849 31.8989 10.411 31.7026C9.93718 31.5064 9.50663 31.2188 9.14395 30.8561C8.78128 30.4934 8.49358 30.0628 8.2973 29.589C8.10102 29.1151 8 28.6073 8 28.0944V23.9056C8 23.3927 8.10102 22.8849 8.2973 22.411C8.49358 21.9372 8.78128 21.5066 9.14395 21.1439C9.50663 20.7812 9.93718 20.4935 10.411 20.2972C10.8849 20.101 11.3928 20 11.9057 20H28.0943C28.6072 20 29.1151 20.101 29.589 20.2972C30.0628 20.4935 30.4934 20.7812 30.856 21.1439C31.2187 21.5066 31.5064 21.9372 31.7027 22.411C31.899 22.8849 32 23.3927 32 23.9056V28.0944C32 29.1302 31.5885 30.1236 30.856 30.8561C30.1236 31.5885 29.1302 32 28.0943 32V32Z" fill="#FDB60D"/>
<path d="M12.4562 23.3781H16.5756V24.4473H13.6498V25.5551H16.2246V26.6238H13.6498V27.7708H16.6147V28.8395H12.4562V23.3781Z" fill="black"/>
<path d="M19.5557 23.3395H20.6635L23.0041 28.8395H21.748L21.2487 27.6147H18.9395L18.4402 28.8395H17.2156L19.5557 23.3395ZM20.8199 26.5537L20.0941 24.7825L19.3687 26.5537H20.8199Z" fill="black"/>
<path d="M23.8468 23.378H26.0782C26.3431 23.3466 26.6118 23.3722 26.866 23.4531C27.1203 23.534 27.3543 23.6684 27.5523 23.8473C27.7503 24.0261 27.9078 24.2453 28.0141 24.49C28.1205 24.7347 28.1732 24.9992 28.1689 25.266V25.2817C28.1666 25.5583 28.1056 25.8313 27.9899 26.0825C27.8742 26.3337 27.7064 26.5575 27.4977 26.739C27.289 26.9205 27.0441 27.0555 26.7792 27.1352C26.5144 27.2149 26.2356 27.2375 25.9614 27.2013H25.0486V28.8395H23.8468V23.378ZM26 26.1321C26.118 26.1471 26.238 26.1369 26.3519 26.1024C26.4658 26.0678 26.5711 26.0097 26.6609 25.9316C26.7508 25.8536 26.8232 25.7573 26.8733 25.6494C26.9234 25.5414 26.9502 25.4242 26.9518 25.3052V25.2894C26.9518 24.7515 26.5775 24.4625 25.9766 24.4625H25.0486V26.1321H26Z" fill="black"/>
</svg>