<svg width="256" height="256" viewBox="0 0 256 256" fill="none" xmlns="http://www.w3.org/2000/svg">
<path d="M180.4 72.4L163.8 0H71.8L0 109.8L20.8 160.2L0 206.4L122.8 228.2L200.4 159.2L180.4 72.4Z" fill="url(#paint0_linear)"/>
<path d="M25 113.4L0 109.8L20.8 160.2L0 206.4L49.2 166L25 113.4Z" fill="url(#paint1_linear)"/>
<path d="M25 113.4L0 109.8L20.8 160.2L49.2 166L25 113.4Z" fill="url(#paint2_linear)"/>
<path d="M25.2 113.2L163.8 0H71.8L0 109.8L25.2 113.2Z" fill="url(#paint3_linear)"/>
<path d="M25.2 113.2L163.8 0H71.8L0 109.8L25.2 113.2Z" fill="url(#paint4_linear)"/>
<path d="M25.2 113.2L90 60.2L71.8 0L0 109.8L25.2 113.2Z" fill="url(#paint5_linear)"/>
<path d="M25.2 113.2L90 60.2L71.8 0L0 109.8L25.2 113.2Z" fill="url(#paint6_linear)"/>
<path d="M225.6 99L256 166.8L203.8 256L171.6 178L225.6 99Z" fill="url(#paint7_linear)"/>
<path d="M198.4 140L256 166.8L203.8 256L171.6 178L198.4 140Z" fill="url(#paint8_linear)"/>
<path d="M171.6 178L203.8 256L122.8 228.2L171.6 178Z" fill="url(#paint9_linear)"/>
<path d="M256 54.3999L148.6 79.7999L0 206.4L95.8 256L171.6 178L256 54.3999Z" fill="url(#paint10_linear)"/>
<path d="M63.6 209.4L0 206.4L95.8 256L123.6 227.4L63.6 209.4Z" fill="url(#paint11_linear)"/>
<path d="M63.6 209.4L0 206.4L48.4 164.8L63.6 209.4Z" fill="url(#paint12_linear)"/>
<path d="M256 54.3999L148.6 79.7999L224.4 100.8L256 54.3999Z" fill="url(#paint13_linear)"/>
<path d="M256 54.3999L148.6 79.7999L219.6 99.3999L256 54.3999Z" fill="url(#paint14_linear)"/>
<path d="M196.4 141.6L180.4 72.3999L148.6 79.7999L105.4 116.6L196.4 141.6Z" fill="url(#paint15_linear)"/>
<path d="M184.4 89.5999L180.4 72.3999L148.6 79.7999L184.4 89.5999Z" fill="url(#paint16_linear)"/>
<path d="M48.6001 165.2L171.6 178L225.6 99L186 104L48.6001 165.2Z" fill="url(#paint17_linear)"/>
<path d="M256 54.3999L95.7998 256L171.6 178L256 54.3999Z" fill="url(#paint18_linear)"/>
<path d="M256 54.3999L95.7998 256L171.6 178L256 54.3999Z" fill="url(#paint19_linear)"/>
<path d="M208 48H48V208H208V48Z" fill="url(#paint20_linear)"/>
<g opacity="0.3">
<g opacity="0.3">
<path opacity="0.3" d="M148.6 79.8L180.4 72.4L174.8 48H105L48 94.6V165.4L148.6 79.8Z" fill="url(#paint21_linear)"/>
</g>
<path opacity="0.3" d="M48 94.6L105 48H48V94.6Z" fill="url(#paint22_linear)"/>
<g opacity="0.3">
<path opacity="0.3" d="M177.2 191.4L184 208L177.2 191.4Z" fill="url(#paint23_linear)"/>
<path opacity="0.3" d="M198.4 140L208 144.4V124.6L171.6 178L198.4 140Z" fill="url(#paint24_linear)"/>
</g>
<path opacity="0.3" d="M208 144.4L198 138.6L171.6 178L184 208H208V144.4Z" fill="url(#paint25_linear)"/>
<path opacity="0.3" d="M171.6 178L142.4 208H184L171.6 178Z" fill="url(#paint26_linear)"/>
<path opacity="0.3" d="M208 65.7998L148.6 79.7998L48 165.4V208H142.4L171.6 178L208 124.6V65.7998Z" fill="url(#paint27_linear)"/>
<path opacity="0.3" d="M208 96.1998V65.7998L148.6 79.7998L208 96.1998Z" fill="#08FF6C"/>
</g>
<path d="M128 177.8H68V187.8H128V177.8Z" fill="white"/>
<path d="M62.8008 98.1613C62.8008 81.0222 76.2933 67.165 94.5264 67.165C105.466 67.165 112.03 70.0823 118.229 75.5523L109.842 85.3982C105.102 81.3869 101.09 79.1989 94.1617 79.1989C84.6805 79.1989 77.0226 87.5861 77.0226 97.7967C77.0226 108.737 84.6805 116.759 95.2557 116.759C99.9963 116.759 104.372 115.665 107.654 113.112V104.361H94.1617V93.0561H120.417V119.312C114.218 124.417 105.831 128.793 94.8911 128.793C75.9286 129.158 62.8008 116.03 62.8008 98.1613Z" fill="white"/>
<path d="M128 98.1608C128 81.0216 141.493 66.7998 160.09 66.7998C178.688 66.7998 191.816 80.657 191.816 97.7961C191.816 114.935 178.323 128.792 159.726 128.792C141.128 129.157 128 115.3 128 98.1608ZM177.959 98.1608C177.959 87.5856 170.301 79.1983 159.726 79.1983C149.15 79.1983 141.857 87.5856 141.857 97.7961C141.857 108.007 149.515 116.759 160.09 116.759C170.665 117.123 177.959 108.736 177.959 98.1608Z" fill="white"/>
<defs>
<linearGradient id="paint0_linear" x1="115.306" y1="103.271" x2="176.076" y2="34.1338" gradientUnits="userSpaceOnUse">
<stop stop-color="#087CFA"/>
<stop offset="0.0225255" stop-color="#0D7BFA"/>
<stop offset="0.3726" stop-color="#5566F9"/>
<stop offset="0.6634" stop-color="#8A57F8"/>
<stop offset="0.8808" stop-color="#AB4EF7"/>
<stop offset="1" stop-color="#B74AF7"/>
</linearGradient>
<linearGradient id="paint1_linear" x1="-0.0861011" y1="158.072" x2="66.752" y2="155.166" gradientUnits="userSpaceOnUse">
<stop offset="0.1204" stop-color="#2D58F9"/>
<stop offset="0.9461" stop-color="#B74AF7"/>
</linearGradient>
<linearGradient id="paint2_linear" x1="12.2438" y1="103.358" x2="36.6886" y2="171.692" gradientUnits="userSpaceOnUse">
<stop offset="0.0852751" stop-color="#086AFA"/>
<stop offset="0.4762" stop-color="#087CFA"/>
<stop offset="0.6849" stop-color="#466AF9"/>
<stop offset="0.8976" stop-color="#8059F8"/>
<stop offset="1" stop-color="#9653F8"/>
</linearGradient>
<linearGradient id="paint3_linear" x1="8.9972" y1="88.9578" x2="149.575" y2="-26.0112" gradientUnits="userSpaceOnUse">
<stop stop-color="#087CFA"/>
<stop offset="0.0188132" stop-color="#0D7BFA"/>
<stop offset="0.3112" stop-color="#5566F9"/>
<stop offset="0.5541" stop-color="#8A57F8"/>
<stop offset="0.7356" stop-color="#AB4EF7"/>
<stop offset="0.8352" stop-color="#B74AF7"/>
<stop offset="0.9797" stop-color="#DB5CFF"/>
</linearGradient>
<linearGradient id="paint4_linear" x1="73.6532" y1="48.4436" x2="102.13" y2="70.818" gradientUnits="userSpaceOnUse">
<stop offset="0.5234" stop-color="#B74AF7" stop-opacity="0"/>
<stop offset="0.9263" stop-color="#D66EFF"/>
</linearGradient>
<linearGradient id="paint5_linear" x1="3.314" y1="93.5616" x2="118.41" y2="-0.5674" gradientUnits="userSpaceOnUse">
<stop stop-color="#087CFA"/>
<stop offset="0.0163189" stop-color="#0D7BFA"/>
<stop offset="0.2699" stop-color="#5566F9"/>
<stop offset="0.4806" stop-color="#8A57F8"/>
<stop offset="0.6381" stop-color="#AB4EF7"/>
<stop offset="0.7245" stop-color="#B74AF7"/>
<stop offset="0.9526" stop-color="#DB5CFF"/>
</linearGradient>
<linearGradient id="paint6_linear" x1="12.1384" y1="125.635" x2="33.9632" y2="95.3232" gradientUnits="userSpaceOnUse">
<stop stop-color="#8F99FF"/>
<stop offset="1" stop-color="#B74AF7" stop-opacity="0"/>
</linearGradient>
<linearGradient id="paint7_linear" x1="252.083" y1="145.826" x2="152.094" y2="230.432" gradientUnits="userSpaceOnUse">
<stop stop-color="#087CFA"/>
<stop offset="0.0225255" stop-color="#0D7BFA"/>
<stop offset="0.3726" stop-color="#5566F9"/>
<stop offset="0.6634" stop-color="#8A57F8"/>
<stop offset="0.8808" stop-color="#AB4EF7"/>
<stop offset="1" stop-color="#B74AF7"/>
</linearGradient>
<linearGradient id="paint8_linear" x1="249.111" y1="190.749" x2="157.976" y2="204.535" gradientUnits="userSpaceOnUse">
<stop offset="0.003297" stop-color="#2D58F9"/>
<stop offset="0.8129" stop-color="#B74AF7"/>
</linearGradient>
<linearGradient id="paint9_linear" x1="199.852" y1="206.088" x2="164.145" y2="238.036" gradientUnits="userSpaceOnUse">
<stop stop-color="#C386F7"/>
<stop offset="0.8129" stop-color="#B74AF7"/>
</linearGradient>
<linearGradient id="paint10_linear" x1="35.565" y1="223.635" x2="220.232" y2="104.969" gradientUnits="userSpaceOnUse">
<stop stop-color="#087CFA"/>
<stop offset="0.1021" stop-color="#1598D3"/>
<stop offset="0.2248" stop-color="#23B6AA"/>
<stop offset="0.3455" stop-color="#2DCC8B"/>
<stop offset="0.4619" stop-color="#35DD74"/>
<stop offset="0.5723" stop-color="#39E767"/>
<stop offset="0.6701" stop-color="#3BEA62"/>
</linearGradient>
<linearGradient id="paint11_linear" x1="46.0078" y1="233.075" x2="132.075" y2="148.164" gradientUnits="userSpaceOnUse">
<stop stop-color="#087CFA"/>
<stop offset="0.1021" stop-color="#1598D3"/>
<stop offset="0.2248" stop-color="#23B6AA"/>
<stop offset="0.3455" stop-color="#2DCC8B"/>
<stop offset="0.4619" stop-color="#35DD74"/>
<stop offset="0.5723" stop-color="#39E767"/>
<stop offset="0.6701" stop-color="#3BEA62"/>
</linearGradient>
<linearGradient id="paint12_linear" x1="25.0956" y1="214.48" x2="99.9016" y2="140.678" gradientUnits="userSpaceOnUse">
<stop offset="0.1708" stop-color="#087CFA"/>
<stop offset="0.4017" stop-color="#19A1C8"/>
<stop offset="0.6796" stop-color="#2BC891"/>
<stop offset="0.8874" stop-color="#37E16F"/>
<stop offset="1" stop-color="#3BEA62"/>
</linearGradient>
<linearGradient id="paint13_linear" x1="167.544" y1="107.967" x2="242.322" y2="38.1737" gradientUnits="userSpaceOnUse">
<stop offset="0.4926" stop-color="#00FA45"/>
<stop offset="0.8682" stop-color="#B5FF91"/>
</linearGradient>
<linearGradient id="paint14_linear" x1="187.87" y1="58.7757" x2="232.186" y2="84.2573" gradientUnits="userSpaceOnUse">
<stop offset="0.175" stop-color="#00FA45" stop-opacity="0"/>
<stop offset="0.8682" stop-color="#A0FF5E"/>
</linearGradient>
<linearGradient id="paint15_linear" x1="199.896" y1="76.6665" x2="148.687" y2="131.509" gradientUnits="userSpaceOnUse">
<stop stop-color="#7165DF"/>
<stop offset="0.0682475" stop-color="#6475D9"/>
<stop offset="0.2346" stop-color="#4897CD"/>
<stop offset="0.3197" stop-color="#44B2AA"/>
<stop offset="0.4142" stop-color="#40CA8B"/>
<stop offset="0.506" stop-color="#3DDC74"/>
<stop offset="0.593" stop-color="#3CE667"/>
<stop offset="0.6701" stop-color="#3BEA62"/>
</linearGradient>
<linearGradient id="paint16_linear" x1="181.417" y1="68.7935" x2="164.806" y2="86.5827" gradientUnits="userSpaceOnUse">
<stop offset="0.3832" stop-color="#59C1DB"/>
<stop offset="0.4687" stop-color="#4FCEB4"/>
<stop offset="0.5786" stop-color="#44DD88"/>
<stop offset="0.664" stop-color="#3EE76C"/>
<stop offset="0.7139" stop-color="#3BEA62"/>
</linearGradient>
<linearGradient id="paint17_linear" x1="98.4411" y1="119.333" x2="263.357" y2="173.821" gradientUnits="userSpaceOnUse">
<stop stop-color="#1CA7BE"/>
<stop offset="0.3751" stop-color="#2FCF87"/>
<stop offset="0.6552" stop-color="#3BEA62"/>
<stop offset="0.8574" stop-color="#5FFF58"/>
</linearGradient>
<linearGradient id="paint18_linear" x1="91.159" y1="159.803" x2="211.032" y2="153.265" gradientUnits="userSpaceOnUse">
<stop offset="0.2959" stop-color="#1CA7BE"/>
<stop offset="0.3429" stop-color="#23B5AA"/>
<stop offset="0.4312" stop-color="#2DCC8B"/>
<stop offset="0.5168" stop-color="#35DD74"/>
<stop offset="0.5981" stop-color="#39E767"/>
<stop offset="0.6701" stop-color="#3BEA62"/>
<stop offset="1" stop-color="#7EEF5A"/>
</linearGradient>
<linearGradient id="paint19_linear" x1="224.441" y1="25.2781" x2="179.036" y2="146.899" gradientUnits="userSpaceOnUse">
<stop offset="0.124" stop-color="#1CA563"/>
<stop offset="0.3268" stop-color="#29C163" stop-opacity="0.7473"/>
<stop offset="0.5412" stop-color="#33D862" stop-opacity="0.48"/>
<stop offset="0.7453" stop-color="#39E562" stop-opacity="0.2256"/>
<stop offset="0.9263" stop-color="#3BEA62" stop-opacity="0"/>
</linearGradient>
<linearGradient id="paint20_linear" x1="48.6252" y1="48.6252" x2="214.062" y2="214.062" gradientUnits="userSpaceOnUse">
<stop stop-color="#006396"/>
<stop offset="0.0339724" stop-color="#005682"/>
<stop offset="0.121" stop-color="#003754"/>
<stop offset="0.2043" stop-color="#001F2F"/>
<stop offset="0.2818" stop-color="#000E15"/>
<stop offset="0.3512" stop-color="#000406"/>
<stop offset="0.4058"/>
<stop offset="0.9138"/>
</linearGradient>
<linearGradient id="paint21_linear" x1="110.883" y1="87.1654" x2="150.6" y2="41.9804" gradientUnits="userSpaceOnUse">
<stop stop-color="#083268"/>
<stop offset="0.0225255" stop-color="#0D336C"/>
<stop offset="0.3726" stop-color="#553DA7"/>
<stop offset="0.6634" stop-color="#8A44D2"/>
<stop offset="0.8808" stop-color="#AB48ED"/>
<stop offset="1" stop-color="#B74AF7"/>
</linearGradient>
<linearGradient id="paint22_linear" x1="62.867" y1="60.562" x2="80.509" y2="74.4236" gradientUnits="userSpaceOnUse">
<stop stop-color="#087CFA"/>
<stop offset="0.0225255" stop-color="#0D7BFA"/>
<stop offset="0.3726" stop-color="#5566F9"/>
<stop offset="0.6634" stop-color="#8A57F8"/>
<stop offset="0.8808" stop-color="#AB4EF7"/>
<stop offset="1" stop-color="#B74AF7"/>
</linearGradient>
<linearGradient id="paint23_linear" x1="182.331" y1="198.214" x2="177.663" y2="202.164" gradientUnits="userSpaceOnUse">
<stop stop-color="#087CFA"/>
<stop offset="0.0225255" stop-color="#0D7BFA"/>
<stop offset="0.3726" stop-color="#5566F9"/>
<stop offset="0.6634" stop-color="#8A57F8"/>
<stop offset="0.8808" stop-color="#AB4EF7"/>
<stop offset="1" stop-color="#B74AF7"/>
</linearGradient>
<linearGradient id="paint24_linear" x1="209.546" y1="134.588" x2="156.843" y2="179.182" gradientUnits="userSpaceOnUse">
<stop stop-color="#087CFA"/>
<stop offset="0.0225255" stop-color="#0D7BFA"/>
<stop offset="0.3726" stop-color="#5566F9"/>
<stop offset="0.6634" stop-color="#8A57F8"/>
<stop offset="0.8808" stop-color="#AB4EF7"/>
<stop offset="1" stop-color="#B74AF7"/>
</linearGradient>
<linearGradient id="paint25_linear" x1="207.204" y1="172.699" x2="163.325" y2="179.337" gradientUnits="userSpaceOnUse">
<stop offset="0.003297" stop-color="#103964"/>
<stop offset="0.8129" stop-color="#B74AF7"/>
</linearGradient>
<linearGradient id="paint26_linear" x1="182.853" y1="188.452" x2="161.489" y2="207.568" gradientUnits="userSpaceOnUse">
<stop stop-color="#3A3531"/>
<stop offset="0.8129" stop-color="#B74AF7"/>
</linearGradient>
<linearGradient id="paint27_linear" x1="118.698" y1="194.039" x2="144.398" y2="58.734" gradientUnits="userSpaceOnUse">
<stop stop-color="#235B5E"/>
<stop offset="0.1291" stop-color="#24635E"/>
<stop offset="0.3263" stop-color="#28785F"/>
<stop offset="0.5673" stop-color="#2E9B60"/>
<stop offset="0.84" stop-color="#36CB61"/>
<stop offset="1" stop-color="#3BEA62"/>
</linearGradient>
</defs>
</svg>
