<svg width="70" height="70" viewBox="0 0 70 70" fill="none" xmlns="http://www.w3.org/2000/svg">
<path d="M49.3 19.8L44.8 0H19.6L0 30L5.7 43.8L0 56.4L33.6 62.4L54.8 43.5L49.3 19.8Z" fill="url(#paint0_linear)"/>
<path d="M6.9 31L0 30L5.7 43.8L0 56.4L13.5 45.4L6.9 31Z" fill="url(#paint1_linear)"/>
<path d="M6.9 31L0 30L5.7 43.8L13.5 45.4L6.9 31Z" fill="url(#paint2_linear)"/>
<path d="M6.9 31L44.8 0H19.6L0 30L6.9 31Z" fill="url(#paint3_linear)"/>
<path d="M6.9 31L44.8 0H19.6L0 30L6.9 31Z" fill="url(#paint4_linear)"/>
<path d="M6.9 31L24.6 16.4L19.6 0L0 30L6.9 31Z" fill="url(#paint5_linear)"/>
<path d="M6.9 31L24.6 16.4L19.6 0L0 30L6.9 31Z" fill="url(#paint6_linear)"/>
<path d="M61.6999 27.1001L69.9999 45.6001L55.6999 70.0001L46.8999 48.7001L61.6999 27.1001Z" fill="url(#paint7_linear)"/>
<path d="M54.1999 38.3L69.9999 45.6L55.6999 70L46.8999 48.7001L54.1999 38.3Z" fill="url(#paint8_linear)"/>
<path d="M46.9001 48.7L55.7001 70L33.6001 62.4L46.9001 48.7Z" fill="url(#paint9_linear)"/>
<path d="M70 14.8999L40.7 21.7999L0 56.3999L26.2 69.9999L46.9 48.6999L70 14.8999Z" fill="url(#paint10_linear)"/>
<path d="M17.4 57.1999L0 56.3999L26.2 69.9999L33.8 62.1999L17.4 57.1999Z" fill="url(#paint11_linear)"/>
<path d="M17.4 57.2001L0 56.4001L13.2 45.1001L17.4 57.2001Z" fill="url(#paint12_linear)"/>
<path d="M70 14.8999L40.7 21.7999L61.2999 27.4999L70 14.8999Z" fill="url(#paint13_linear)"/>
<path d="M70 14.8999L40.7 21.7999L60.0999 27.1999L70 14.8999Z" fill="url(#paint14_linear)"/>
<path d="M53.7001 38.7001L49.3 19.8L40.7001 21.8L28.8 31.9L53.7001 38.7001Z" fill="url(#paint15_linear)"/>
<path d="M50.4 24.5L49.2999 19.8L40.7 21.8L50.4 24.5Z" fill="url(#paint16_linear)"/>
<path d="M13.3 45.2001L46.9001 48.7001L61.7001 27.1001L50.9001 28.4001L13.3 45.2001Z" fill="url(#paint17_linear)"/>
<path d="M70 14.8999L26.2 69.9999L46.9 48.6999L70 14.8999Z" fill="url(#paint18_linear)"/>
<path d="M70 14.8999L26.2 69.9999L46.9 48.6999L70 14.8999Z" fill="url(#paint19_linear)"/>
<path d="M57 13H13V57H57V13Z" fill="url(#paint20_linear)"/>
<g opacity="0.3">
<g opacity="0.3">
<path opacity="0.3" d="M40.7 21.8L49.4 19.7L47.9 13H28.7L13 25.8V45.3L40.7 21.8Z" fill="url(#paint21_linear)"/>
</g>
<path opacity="0.3" d="M13 25.8L28.7 13H13V25.8Z" fill="url(#paint22_linear)"/>
<g opacity="0.3">
<path opacity="0.3" d="M48.5 52.4001L50.4 57.0001L48.5 52.4001Z" fill="url(#paint23_linear)"/>
<path opacity="0.3" d="M54.4 38.3001L57 39.5001V34.1001L47 48.7001L54.4 38.3001Z" fill="url(#paint24_linear)"/>
</g>
<path opacity="0.3" d="M57 39.4999L54.3 37.8999L47 48.6999L50.4 56.9999H57V39.4999Z" fill="url(#paint25_linear)"/>
<path opacity="0.3" d="M47 48.7L39 57H50.4L47 48.7Z" fill="url(#paint26_linear)"/>
<path opacity="0.3" d="M57 17.8999L40.7 21.7999L13 45.2999V56.9999H39L47 48.6999L57 34.0999V17.8999Z" fill="url(#paint27_linear)"/>
<path opacity="0.3" d="M57 26.2999V17.8999L40.7 21.7999L57 26.2999Z" fill="#08FF6C"/>
</g>
<path d="M35 48.7H18.5V51.4H35V48.7Z" fill="white"/>
<path d="M17 26.5106C17 21.858 20.5789 18.1001 25.5 18.1001C28.4526 18.1001 30.1526 18.9054 31.8526 20.3369L29.6158 23.0212C28.3632 21.9475 27.2895 21.4106 25.4105 21.4106C22.8158 21.4106 20.7579 23.7369 20.7579 26.5106V26.6001C20.7579 29.5527 22.8158 31.7896 25.6789 31.7896C27.0211 31.7896 28.0947 31.4317 29.0789 30.8054V28.479H25.5V25.4369H32.5684V32.5054C30.8684 33.9369 28.6316 35.1001 25.5895 35.1001C20.4895 34.8317 17 31.3422 17 26.5106Z" fill="white"/>
<path d="M34 26.5106C34 21.858 37.6684 18.1001 42.6789 18.1001C47.6895 18.1001 51.2684 21.858 51.2684 26.4212V26.5106C51.2684 31.1633 47.6 34.9212 42.5895 34.9212C37.5789 34.8317 34 31.1633 34 26.5106ZM47.5105 26.5106C47.5105 23.6475 45.4526 21.3212 42.5895 21.3212C39.7263 21.3212 37.7579 23.558 37.7579 26.4212V26.5106C37.7579 29.2843 39.8158 31.6106 42.6789 31.6106C45.4526 31.5212 47.5105 29.2843 47.5105 26.5106Z" fill="white"/>
<defs>
<linearGradient id="paint0_linear" x1="31.5289" y1="28.2383" x2="48.1458" y2="9.3335" gradientUnits="userSpaceOnUse">
<stop stop-color="#087CFA"/>
<stop offset="0.0225255" stop-color="#0D7BFA"/>
<stop offset="0.3726" stop-color="#5566F9"/>
<stop offset="0.6634" stop-color="#8A57F8"/>
<stop offset="0.8808" stop-color="#AB4EF7"/>
<stop offset="1" stop-color="#B74AF7"/>
</linearGradient>
<linearGradient id="paint1_linear" x1="-0.0235433" y1="43.2228" x2="18.2525" y2="42.4282" gradientUnits="userSpaceOnUse">
<stop offset="0.1204" stop-color="#2D58F9"/>
<stop offset="0.9461" stop-color="#B74AF7"/>
</linearGradient>
<linearGradient id="paint2_linear" x1="3.3479" y1="28.262" x2="10.032" y2="46.9472" gradientUnits="userSpaceOnUse">
<stop offset="0.0852751" stop-color="#086AFA"/>
<stop offset="0.4762" stop-color="#087CFA"/>
<stop offset="0.6849" stop-color="#466AF9"/>
<stop offset="0.8976" stop-color="#8059F8"/>
<stop offset="1" stop-color="#9653F8"/>
</linearGradient>
<linearGradient id="paint3_linear" x1="2.4602" y1="24.3244" x2="40.8995" y2="-7.1124" gradientUnits="userSpaceOnUse">
<stop stop-color="#087CFA"/>
<stop offset="0.0188132" stop-color="#0D7BFA"/>
<stop offset="0.3112" stop-color="#5566F9"/>
<stop offset="0.5541" stop-color="#8A57F8"/>
<stop offset="0.7356" stop-color="#AB4EF7"/>
<stop offset="0.8352" stop-color="#B74AF7"/>
<stop offset="0.9797" stop-color="#DB5CFF"/>
</linearGradient>
<linearGradient id="paint4_linear" x1="20.1396" y1="13.2463" x2="27.9261" y2="19.3643" gradientUnits="userSpaceOnUse">
<stop offset="0.5234" stop-color="#B74AF7" stop-opacity="0"/>
<stop offset="0.9263" stop-color="#D66EFF"/>
</linearGradient>
<linearGradient id="paint5_linear" x1="0.906199" y1="25.5833" x2="32.3778" y2="-0.155099" gradientUnits="userSpaceOnUse">
<stop stop-color="#087CFA"/>
<stop offset="0.0163189" stop-color="#0D7BFA"/>
<stop offset="0.2699" stop-color="#5566F9"/>
<stop offset="0.4806" stop-color="#8A57F8"/>
<stop offset="0.6381" stop-color="#AB4EF7"/>
<stop offset="0.7245" stop-color="#B74AF7"/>
<stop offset="0.9526" stop-color="#DB5CFF"/>
</linearGradient>
<linearGradient id="paint6_linear" x1="3.3191" y1="34.3534" x2="9.2868" y2="26.0649" gradientUnits="userSpaceOnUse">
<stop stop-color="#8F99FF"/>
<stop offset="1" stop-color="#B74AF7" stop-opacity="0"/>
</linearGradient>
<linearGradient id="paint7_linear" x1="68.9287" y1="39.8745" x2="41.5881" y2="63.0088" gradientUnits="userSpaceOnUse">
<stop stop-color="#087CFA"/>
<stop offset="0.0225255" stop-color="#0D7BFA"/>
<stop offset="0.3726" stop-color="#5566F9"/>
<stop offset="0.6634" stop-color="#8A57F8"/>
<stop offset="0.8808" stop-color="#AB4EF7"/>
<stop offset="1" stop-color="#B74AF7"/>
</linearGradient>
<linearGradient id="paint8_linear" x1="68.1162" y1="52.158" x2="43.1963" y2="55.9274" gradientUnits="userSpaceOnUse">
<stop offset="0.003297" stop-color="#2D58F9"/>
<stop offset="0.8129" stop-color="#B74AF7"/>
</linearGradient>
<linearGradient id="paint9_linear" x1="54.6471" y1="56.3521" x2="44.8836" y2="65.0879" gradientUnits="userSpaceOnUse">
<stop stop-color="#C386F7"/>
<stop offset="0.8129" stop-color="#B74AF7"/>
</linearGradient>
<linearGradient id="paint10_linear" x1="9.7248" y1="61.1501" x2="60.2196" y2="28.7023" gradientUnits="userSpaceOnUse">
<stop stop-color="#087CFA"/>
<stop offset="0.1021" stop-color="#1598D3"/>
<stop offset="0.2248" stop-color="#23B6AA"/>
<stop offset="0.3455" stop-color="#2DCC8B"/>
<stop offset="0.4619" stop-color="#35DD74"/>
<stop offset="0.5723" stop-color="#39E767"/>
<stop offset="0.6701" stop-color="#3BEA62"/>
</linearGradient>
<linearGradient id="paint11_linear" x1="12.5803" y1="63.7313" x2="36.1141" y2="40.5134" gradientUnits="userSpaceOnUse">
<stop stop-color="#087CFA"/>
<stop offset="0.1021" stop-color="#1598D3"/>
<stop offset="0.2248" stop-color="#23B6AA"/>
<stop offset="0.3455" stop-color="#2DCC8B"/>
<stop offset="0.4619" stop-color="#35DD74"/>
<stop offset="0.5723" stop-color="#39E767"/>
<stop offset="0.6701" stop-color="#3BEA62"/>
</linearGradient>
<linearGradient id="paint12_linear" x1="6.8621" y1="58.6469" x2="27.3168" y2="38.4667" gradientUnits="userSpaceOnUse">
<stop offset="0.1708" stop-color="#087CFA"/>
<stop offset="0.4017" stop-color="#19A1C8"/>
<stop offset="0.6796" stop-color="#2BC891"/>
<stop offset="0.8874" stop-color="#37E16F"/>
<stop offset="1" stop-color="#3BEA62"/>
</linearGradient>
<linearGradient id="paint13_linear" x1="45.8127" y1="29.5222" x2="66.26" y2="10.438" gradientUnits="userSpaceOnUse">
<stop offset="0.4926" stop-color="#00FA45"/>
<stop offset="0.8682" stop-color="#B5FF91"/>
</linearGradient>
<linearGradient id="paint14_linear" x1="51.3707" y1="16.0714" x2="63.4883" y2="23.039" gradientUnits="userSpaceOnUse">
<stop offset="0.175" stop-color="#00FA45" stop-opacity="0"/>
<stop offset="0.8682" stop-color="#A0FF5E"/>
</linearGradient>
<linearGradient id="paint15_linear" x1="54.6592" y1="20.9635" x2="40.6568" y2="35.9596" gradientUnits="userSpaceOnUse">
<stop stop-color="#7165DF"/>
<stop offset="0.0682475" stop-color="#6475D9"/>
<stop offset="0.2346" stop-color="#4897CD"/>
<stop offset="0.3197" stop-color="#44B2AA"/>
<stop offset="0.4142" stop-color="#40CA8B"/>
<stop offset="0.506" stop-color="#3DDC74"/>
<stop offset="0.593" stop-color="#3CE667"/>
<stop offset="0.6701" stop-color="#3BEA62"/>
</linearGradient>
<linearGradient id="paint16_linear" x1="49.6061" y1="18.8108" x2="45.0642" y2="23.675" gradientUnits="userSpaceOnUse">
<stop offset="0.3832" stop-color="#59C1DB"/>
<stop offset="0.4687" stop-color="#4FCEB4"/>
<stop offset="0.5786" stop-color="#44DD88"/>
<stop offset="0.664" stop-color="#3EE76C"/>
<stop offset="0.7139" stop-color="#3BEA62"/>
</linearGradient>
<linearGradient id="paint17_linear" x1="26.9174" y1="32.6303" x2="72.0117" y2="47.5292" gradientUnits="userSpaceOnUse">
<stop stop-color="#1CA7BE"/>
<stop offset="0.3751" stop-color="#2FCF87"/>
<stop offset="0.6552" stop-color="#3BEA62"/>
<stop offset="0.8574" stop-color="#5FFF58"/>
</linearGradient>
<linearGradient id="paint18_linear" x1="24.9264" y1="43.6961" x2="57.7041" y2="41.9083" gradientUnits="userSpaceOnUse">
<stop offset="0.2959" stop-color="#1CA7BE"/>
<stop offset="0.3429" stop-color="#23B5AA"/>
<stop offset="0.4312" stop-color="#2DCC8B"/>
<stop offset="0.5168" stop-color="#35DD74"/>
<stop offset="0.5981" stop-color="#39E767"/>
<stop offset="0.6701" stop-color="#3BEA62"/>
<stop offset="1" stop-color="#7EEF5A"/>
</linearGradient>
<linearGradient id="paint19_linear" x1="61.3707" y1="6.9119" x2="48.9552" y2="40.1676" gradientUnits="userSpaceOnUse">
<stop offset="0.124" stop-color="#1CA563"/>
<stop offset="0.3268" stop-color="#29C163" stop-opacity="0.7473"/>
<stop offset="0.5412" stop-color="#33D862" stop-opacity="0.48"/>
<stop offset="0.7453" stop-color="#39E562" stop-opacity="0.2256"/>
<stop offset="0.9263" stop-color="#3BEA62" stop-opacity="0"/>
</linearGradient>
<linearGradient id="paint20_linear" x1="13.1719" y1="13.1719" x2="58.6671" y2="58.6671" gradientUnits="userSpaceOnUse">
<stop stop-color="#006396"/>
<stop offset="0.0339724" stop-color="#005682"/>
<stop offset="0.121" stop-color="#003754"/>
<stop offset="0.2043" stop-color="#001F2F"/>
<stop offset="0.2818" stop-color="#000E15"/>
<stop offset="0.3512" stop-color="#000406"/>
<stop offset="0.4058"/>
<stop offset="0.9138"/>
</linearGradient>
<linearGradient id="paint21_linear" x1="30.2929" y1="23.7705" x2="41.215" y2="11.3446" gradientUnits="userSpaceOnUse">
<stop stop-color="#083268"/>
<stop offset="0.0225255" stop-color="#0D336C"/>
<stop offset="0.3726" stop-color="#553DA7"/>
<stop offset="0.6634" stop-color="#8A44D2"/>
<stop offset="0.8808" stop-color="#AB48ED"/>
<stop offset="1" stop-color="#B74AF7"/>
</linearGradient>
<linearGradient id="paint22_linear" x1="17.0884" y1="16.4546" x2="21.94" y2="20.2665" gradientUnits="userSpaceOnUse">
<stop stop-color="#087CFA"/>
<stop offset="0.0225255" stop-color="#0D7BFA"/>
<stop offset="0.3726" stop-color="#5566F9"/>
<stop offset="0.6634" stop-color="#8A57F8"/>
<stop offset="0.8808" stop-color="#AB4EF7"/>
<stop offset="1" stop-color="#B74AF7"/>
</linearGradient>
<linearGradient id="paint23_linear" x1="49.9409" y1="54.3088" x2="48.6572" y2="55.395" gradientUnits="userSpaceOnUse">
<stop stop-color="#087CFA"/>
<stop offset="0.0225255" stop-color="#0D7BFA"/>
<stop offset="0.3726" stop-color="#5566F9"/>
<stop offset="0.6634" stop-color="#8A57F8"/>
<stop offset="0.8808" stop-color="#AB4EF7"/>
<stop offset="1" stop-color="#B74AF7"/>
</linearGradient>
<linearGradient id="paint24_linear" x1="57.4251" y1="36.8118" x2="42.932" y2="49.0752" gradientUnits="userSpaceOnUse">
<stop stop-color="#087CFA"/>
<stop offset="0.0225255" stop-color="#0D7BFA"/>
<stop offset="0.3726" stop-color="#5566F9"/>
<stop offset="0.6634" stop-color="#8A57F8"/>
<stop offset="0.8808" stop-color="#AB4EF7"/>
<stop offset="1" stop-color="#B74AF7"/>
</linearGradient>
<linearGradient id="paint25_linear" x1="56.7812" y1="47.2923" x2="44.7144" y2="49.1176" gradientUnits="userSpaceOnUse">
<stop offset="0.003297" stop-color="#103964"/>
<stop offset="0.8129" stop-color="#B74AF7"/>
</linearGradient>
<linearGradient id="paint26_linear" x1="50.0846" y1="51.6244" x2="44.2094" y2="56.8811" gradientUnits="userSpaceOnUse">
<stop stop-color="#3A3531"/>
<stop offset="0.8129" stop-color="#B74AF7"/>
</linearGradient>
<linearGradient id="paint27_linear" x1="32.4419" y1="53.1607" x2="39.5095" y2="15.9518" gradientUnits="userSpaceOnUse">
<stop stop-color="#235B5E"/>
<stop offset="0.1291" stop-color="#24635E"/>
<stop offset="0.3263" stop-color="#28785F"/>
<stop offset="0.5673" stop-color="#2E9B60"/>
<stop offset="0.84" stop-color="#36CB61"/>
<stop offset="1" stop-color="#3BEA62"/>
</linearGradient>
</defs>
</svg>
