<svg width="48" height="48" viewBox="0 0 48 48" fill="none" xmlns="http://www.w3.org/2000/svg">
<path d="M33.8 13.6L30.7 0H13.5L0 20.6L3.9 30.1L0 38.7L23 42.8L37.6 29.9L33.8 13.6Z" fill="url(#paint0_linear)"/>
<path d="M4.7 21.3001L0 20.6001L3.9 30.1001L0 38.7001L9.2 31.1001L4.7 21.3001Z" fill="url(#paint1_linear)"/>
<path d="M4.7 21.3001L0 20.6001L3.9 30.1001L9.2 31.1001L4.7 21.3001Z" fill="url(#paint2_linear)"/>
<path d="M4.7 21.2L30.7 0H13.5L0 20.6L4.7 21.2Z" fill="url(#paint3_linear)"/>
<path d="M4.7 21.2L30.7 0H13.5L0 20.6L4.7 21.2Z" fill="url(#paint4_linear)"/>
<path d="M4.7 21.2L16.9 11.3L13.5 0L0 20.6L4.7 21.2Z" fill="url(#paint5_linear)"/>
<path d="M4.7 21.2L16.9 11.3L13.5 0L0 20.6L4.7 21.2Z" fill="url(#paint6_linear)"/>
<path d="M42.2999 18.6001L48 31.3001L38.2 48.0001L32.2 33.4001L42.2999 18.6001Z" fill="url(#paint7_linear)"/>
<path d="M37.2 26.3L48 31.3L38.2 48L32.2 33.4001L37.2 26.3Z" fill="url(#paint8_linear)"/>
<path d="M32.2 33.3999L38.2 47.9999L23 42.7999L32.2 33.3999Z" fill="url(#paint9_linear)"/>
<path d="M48 10.2L27.9 15L0 38.7L18 48L32.2 33.4L48 10.2Z" fill="url(#paint10_linear)"/>
<path d="M11.9 39.2999L0 38.7L18 48L23.2 42.7L11.9 39.2999Z" fill="url(#paint11_linear)"/>
<path d="M11.9 39.2999L0 38.6999L9.1 30.8999L11.9 39.2999Z" fill="url(#paint12_linear)"/>
<path d="M48 10.2L27.9 15L42.1 18.9L48 10.2Z" fill="url(#paint13_linear)"/>
<path d="M48 10.2L27.9 15L41.2 18.6L48 10.2Z" fill="url(#paint14_linear)"/>
<path d="M36.8 26.6001L33.8 13.6001L27.9 15.0001L19.8 21.9001L36.8 26.6001Z" fill="url(#paint15_linear)"/>
<path d="M34.6 16.8001L33.8 13.6001L27.9 15.0001L34.6 16.8001Z" fill="url(#paint16_linear)"/>
<path d="M9.09998 31.0001L32.2 33.4001L42.3 18.6001L34.9 19.5001L9.09998 31.0001Z" fill="url(#paint17_linear)"/>
<path d="M48 10.2L18 48L32.2 33.4L48 10.2Z" fill="url(#paint18_linear)"/>
<path d="M48 10.2L18 48L32.2 33.4L48 10.2Z" fill="url(#paint19_linear)"/>
<path d="M39 9H9V39H39V9Z" fill="url(#paint20_linear)"/>
<g opacity="0.3">
<g opacity="0.3">
<path opacity="0.3" d="M27.9 15L33.8 13.6L32.8 9H19.7L9 17.7V31L27.9 15Z" fill="url(#paint21_linear)"/>
</g>
<path opacity="0.3" d="M9 17.7L19.7 9H9V17.7Z" fill="url(#paint22_linear)"/>
<g opacity="0.3">
<path opacity="0.3" d="M33.2 35.8999L34.5 38.9999L33.2 35.8999Z" fill="url(#paint23_linear)"/>
<path opacity="0.3" d="M37.2 26.2999L39 27.0999V23.3999L32.2 33.3999L37.2 26.2999Z" fill="url(#paint24_linear)"/>
</g>
<path opacity="0.3" d="M39 27.1L37.1 26L32.2 33.4L34.5 39H39V27.1Z" fill="url(#paint25_linear)"/>
<path opacity="0.3" d="M32.2 33.3999L26.7 38.9999H34.5L32.2 33.3999Z" fill="url(#paint26_linear)"/>
<path opacity="0.3" d="M39 12.3L27.9 15L9 31V39H26.7L32.2 33.4L39 23.4V12.3Z" fill="url(#paint27_linear)"/>
<path opacity="0.3" d="M39 18V12.3L27.9 15L39 18Z" fill="#08FF6C"/>
</g>
<path d="M23.9 33.3H12.7V35.2001H23.9V33.3Z" fill="white"/>
<path d="M12 18.2999C12 14.9812 14.4891 12.3999 17.9922 12.3999C20.0203 12.3999 21.3109 12.953 22.5094 13.9671L20.9422 15.903C20.0203 15.1655 19.2828 14.7046 17.9922 14.7046C16.1484 14.7046 14.6734 16.2718 14.6734 18.2999C14.6734 20.4202 16.1484 21.8952 18.0844 21.8952C19.0063 21.8952 19.8359 21.7108 20.4812 21.2499V19.5905H17.9V17.378H22.8781V22.3562C21.6797 23.3702 20.1125 24.1999 17.9922 24.1999C14.3969 24.1077 12 21.6187 12 18.2999Z" fill="white"/>
<path d="M23.8922 18.2999C23.8922 14.9812 26.4735 12.3999 29.9766 12.3999C33.4797 12.3999 36.061 14.9812 36.061 18.2999C36.061 21.5265 33.4797 24.1999 29.9766 24.1999C26.3813 24.1077 23.8922 21.5265 23.8922 18.2999ZM33.3875 18.2999C33.3875 16.2718 31.9125 14.7046 29.9766 14.7046C27.9485 14.7046 26.5656 16.2718 26.5656 18.2999C26.5656 20.2358 28.0406 21.8952 29.9766 21.8952C32.0047 21.803 33.3875 20.2358 33.3875 18.2999Z" fill="white"/>
<defs>
<linearGradient id="paint0_linear" x1="21.6198" y1="19.3634" x2="33.0143" y2="6.4001" gradientUnits="userSpaceOnUse">
<stop  offset="0" stop-color="#087CFA"/>
<stop offset="0.0225255" stop-color="#0D7BFA"/>
<stop offset="0.3726" stop-color="#5566F9"/>
<stop offset="0.6634" stop-color="#8A57F8"/>
<stop offset="0.8808" stop-color="#AB4EF7"/>
<stop offset="1" stop-color="#B74AF7"/>
</linearGradient>
<linearGradient id="paint1_linear" x1="-0.0161439" y1="29.6386" x2="12.516" y2="29.0937" gradientUnits="userSpaceOnUse">
<stop offset="0.1204" stop-color="#2D58F9"/>
<stop offset="0.9461" stop-color="#B74AF7"/>
</linearGradient>
<linearGradient id="paint2_linear" x1="2.2957" y1="19.3798" x2="6.8791" y2="32.1924" gradientUnits="userSpaceOnUse">
<stop offset="0.0852751" stop-color="#086AFA"/>
<stop offset="0.4762" stop-color="#087CFA"/>
<stop offset="0.6849" stop-color="#466AF9"/>
<stop offset="0.8976" stop-color="#8059F8"/>
<stop offset="1" stop-color="#9653F8"/>
</linearGradient>
<linearGradient id="paint3_linear" x1="1.687" y1="16.6796" x2="28.0453" y2="-4.8771" gradientUnits="userSpaceOnUse">
<stop  offset="0" stop-color="#087CFA"/>
<stop offset="0.0188132" stop-color="#0D7BFA"/>
<stop offset="0.3112" stop-color="#5566F9"/>
<stop offset="0.5541" stop-color="#8A57F8"/>
<stop offset="0.7356" stop-color="#AB4EF7"/>
<stop offset="0.8352" stop-color="#B74AF7"/>
<stop offset="0.9797" stop-color="#DB5CFF"/>
</linearGradient>
<linearGradient id="paint4_linear" x1="13.81" y1="9.0832" x2="19.1493" y2="13.2784" gradientUnits="userSpaceOnUse">
<stop offset="0.5234" stop-color="#B74AF7" stop-opacity="0"/>
<stop offset="0.9263" stop-color="#D66EFF"/>
</linearGradient>
<linearGradient id="paint5_linear" x1="0.621401" y1="17.5428" x2="22.2019" y2="-0.106398" gradientUnits="userSpaceOnUse">
<stop  offset="0" stop-color="#087CFA"/>
<stop offset="0.0163189" stop-color="#0D7BFA"/>
<stop offset="0.2699" stop-color="#5566F9"/>
<stop offset="0.4806" stop-color="#8A57F8"/>
<stop offset="0.6381" stop-color="#AB4EF7"/>
<stop offset="0.7245" stop-color="#B74AF7"/>
<stop offset="0.9526" stop-color="#DB5CFF"/>
</linearGradient>
<linearGradient id="paint6_linear" x1="2.2759" y1="23.5566" x2="6.3681" y2="17.8731" gradientUnits="userSpaceOnUse">
<stop  offset="0" stop-color="#8F99FF"/>
<stop offset="1" stop-color="#B74AF7" stop-opacity="0"/>
</linearGradient>
<linearGradient id="paint7_linear" x1="47.2654" y1="27.3425" x2="28.5176" y2="43.206" gradientUnits="userSpaceOnUse">
<stop  offset="0" stop-color="#087CFA"/>
<stop offset="0.0225255" stop-color="#0D7BFA"/>
<stop offset="0.3726" stop-color="#5566F9"/>
<stop offset="0.6634" stop-color="#8A57F8"/>
<stop offset="0.8808" stop-color="#AB4EF7"/>
<stop offset="1" stop-color="#B74AF7"/>
</linearGradient>
<linearGradient id="paint8_linear" x1="46.7083" y1="35.7655" x2="29.6204" y2="38.3502" gradientUnits="userSpaceOnUse">
<stop offset="0.003297" stop-color="#2D58F9"/>
<stop offset="0.8129" stop-color="#B74AF7"/>
</linearGradient>
<linearGradient id="paint9_linear" x1="37.4722" y1="38.6413" x2="30.7772" y2="44.6316" gradientUnits="userSpaceOnUse">
<stop  offset="0" stop-color="#C386F7"/>
<stop offset="0.8129" stop-color="#B74AF7"/>
</linearGradient>
<linearGradient id="paint10_linear" x1="6.6685" y1="41.9316" x2="41.2934" y2="19.6816" gradientUnits="userSpaceOnUse">
<stop  offset="0" stop-color="#087CFA"/>
<stop offset="0.1021" stop-color="#1598D3"/>
<stop offset="0.2248" stop-color="#23B6AA"/>
<stop offset="0.3455" stop-color="#2DCC8B"/>
<stop offset="0.4619" stop-color="#35DD74"/>
<stop offset="0.5723" stop-color="#39E767"/>
<stop offset="0.6701" stop-color="#3BEA62"/>
</linearGradient>
<linearGradient id="paint11_linear" x1="8.6265" y1="43.7016" x2="24.764" y2="27.7807" gradientUnits="userSpaceOnUse">
<stop  offset="0" stop-color="#087CFA"/>
<stop offset="0.1021" stop-color="#1598D3"/>
<stop offset="0.2248" stop-color="#23B6AA"/>
<stop offset="0.3455" stop-color="#2DCC8B"/>
<stop offset="0.4619" stop-color="#35DD74"/>
<stop offset="0.5723" stop-color="#39E767"/>
<stop offset="0.6701" stop-color="#3BEA62"/>
</linearGradient>
<linearGradient id="paint12_linear" x1="4.7054" y1="40.2149" x2="18.7316" y2="26.377" gradientUnits="userSpaceOnUse">
<stop offset="0.1708" stop-color="#087CFA"/>
<stop offset="0.4017" stop-color="#19A1C8"/>
<stop offset="0.6796" stop-color="#2BC891"/>
<stop offset="0.8874" stop-color="#37E16F"/>
<stop offset="1" stop-color="#3BEA62"/>
</linearGradient>
<linearGradient id="paint13_linear" x1="31.4144" y1="20.2439" x2="45.4354" y2="7.15755" gradientUnits="userSpaceOnUse">
<stop offset="0.4926" stop-color="#00FA45"/>
<stop offset="0.8682" stop-color="#B5FF91"/>
</linearGradient>
<linearGradient id="paint14_linear" x1="35.2256" y1="11.0204" x2="43.5348" y2="15.7983" gradientUnits="userSpaceOnUse">
<stop offset="0.175" stop-color="#00FA45" stop-opacity="0"/>
<stop offset="0.8682" stop-color="#A0FF5E"/>
</linearGradient>
<linearGradient id="paint15_linear" x1="37.4805" y1="14.3751" x2="27.8789" y2="24.6581" gradientUnits="userSpaceOnUse">
<stop  offset="0" stop-color="#7165DF"/>
<stop offset="0.0682475" stop-color="#6475D9"/>
<stop offset="0.2346" stop-color="#4897CD"/>
<stop offset="0.3197" stop-color="#44B2AA"/>
<stop offset="0.4142" stop-color="#40CA8B"/>
<stop offset="0.506" stop-color="#3DDC74"/>
<stop offset="0.593" stop-color="#3CE667"/>
<stop offset="0.6701" stop-color="#3BEA62"/>
</linearGradient>
<linearGradient id="paint16_linear" x1="34.0156" y1="12.8989" x2="30.9012" y2="16.2344" gradientUnits="userSpaceOnUse">
<stop offset="0.3832" stop-color="#59C1DB"/>
<stop offset="0.4687" stop-color="#4FCEB4"/>
<stop offset="0.5786" stop-color="#44DD88"/>
<stop offset="0.664" stop-color="#3EE76C"/>
<stop offset="0.7139" stop-color="#3BEA62"/>
</linearGradient>
<linearGradient id="paint17_linear" x1="18.4577" y1="22.3751" x2="49.3794" y2="32.5915" gradientUnits="userSpaceOnUse">
<stop  offset="0" stop-color="#1CA7BE"/>
<stop offset="0.3751" stop-color="#2FCF87"/>
<stop offset="0.6552" stop-color="#3BEA62"/>
<stop offset="0.8574" stop-color="#5FFF58"/>
</linearGradient>
<linearGradient id="paint18_linear" x1="17.0924" y1="29.9631" x2="39.5685" y2="28.7372" gradientUnits="userSpaceOnUse">
<stop offset="0.2959" stop-color="#1CA7BE"/>
<stop offset="0.3429" stop-color="#23B5AA"/>
<stop offset="0.4312" stop-color="#2DCC8B"/>
<stop offset="0.5168" stop-color="#35DD74"/>
<stop offset="0.5981" stop-color="#39E767"/>
<stop offset="0.6701" stop-color="#3BEA62"/>
<stop offset="1" stop-color="#7EEF5A"/>
</linearGradient>
<linearGradient id="paint19_linear" x1="42.0828" y1="4.73965" x2="33.5693" y2="27.5436" gradientUnits="userSpaceOnUse">
<stop offset="0.124" stop-color="#1CA563"/>
<stop offset="0.3268" stop-color="#29C163" stop-opacity="0.7473"/>
<stop offset="0.5412" stop-color="#33D862" stop-opacity="0.48"/>
<stop offset="0.7453" stop-color="#39E562" stop-opacity="0.2256"/>
<stop offset="0.9263" stop-color="#3BEA62" stop-opacity="0"/>
</linearGradient>
<linearGradient id="paint20_linear" x1="9.11722" y1="9.11722" x2="40.1367" y2="40.1367" gradientUnits="userSpaceOnUse">
<stop  offset="0" stop-color="#006396"/>
<stop offset="0.0339724" stop-color="#005682"/>
<stop offset="0.121" stop-color="#003754"/>
<stop offset="0.2043" stop-color="#001F2F"/>
<stop offset="0.2818" stop-color="#000E15"/>
<stop offset="0.3512" stop-color="#000406"/>
<stop offset="0.4058"/>
<stop offset="0.9138"/>
</linearGradient>
<linearGradient id="paint21_linear" x1="20.7906" y1="16.3435" x2="28.2375" y2="7.8713" gradientUnits="userSpaceOnUse">
<stop  offset="0" stop-color="#083268"/>
<stop offset="0.0225255" stop-color="#0D336C"/>
<stop offset="0.3726" stop-color="#553DA7"/>
<stop offset="0.6634" stop-color="#8A44D2"/>
<stop offset="0.8808" stop-color="#AB48ED"/>
<stop offset="1" stop-color="#B74AF7"/>
</linearGradient>
<linearGradient id="paint22_linear" x1="11.7876" y1="11.3554" x2="15.0954" y2="13.9544" gradientUnits="userSpaceOnUse">
<stop  offset="0" stop-color="#087CFA"/>
<stop offset="0.0225255" stop-color="#0D7BFA"/>
<stop offset="0.3726" stop-color="#5566F9"/>
<stop offset="0.6634" stop-color="#8A57F8"/>
<stop offset="0.8808" stop-color="#AB4EF7"/>
<stop offset="1" stop-color="#B74AF7"/>
</linearGradient>
<linearGradient id="paint23_linear" x1="34.187" y1="37.1649" x2="33.3117" y2="37.9055" gradientUnits="userSpaceOnUse">
<stop  offset="0" stop-color="#087CFA"/>
<stop offset="0.0225255" stop-color="#0D7BFA"/>
<stop offset="0.3726" stop-color="#5566F9"/>
<stop offset="0.6634" stop-color="#8A57F8"/>
<stop offset="0.8808" stop-color="#AB4EF7"/>
<stop offset="1" stop-color="#B74AF7"/>
</linearGradient>
<linearGradient id="paint24_linear" x1="39.2899" y1="25.2351" x2="29.4082" y2="33.5966" gradientUnits="userSpaceOnUse">
<stop  offset="0" stop-color="#087CFA"/>
<stop offset="0.0225255" stop-color="#0D7BFA"/>
<stop offset="0.3726" stop-color="#5566F9"/>
<stop offset="0.6634" stop-color="#8A57F8"/>
<stop offset="0.8808" stop-color="#AB4EF7"/>
<stop offset="1" stop-color="#B74AF7"/>
</linearGradient>
<linearGradient id="paint25_linear" x1="38.8508" y1="32.3812" x2="30.6235" y2="33.6257" gradientUnits="userSpaceOnUse">
<stop offset="0.003297" stop-color="#103964"/>
<stop offset="0.8129" stop-color="#B74AF7"/>
</linearGradient>
<linearGradient id="paint26_linear" x1="34.2849" y1="35.3347" x2="30.2792" y2="38.9188" gradientUnits="userSpaceOnUse">
<stop  offset="0" stop-color="#3A3531"/>
<stop offset="0.8129" stop-color="#B74AF7"/>
</linearGradient>
<linearGradient id="paint27_linear" x1="22.2558" y1="36.3824" x2="27.0747" y2="11.0127" gradientUnits="userSpaceOnUse">
<stop  offset="0" stop-color="#235B5E"/>
<stop offset="0.1291" stop-color="#24635E"/>
<stop offset="0.3263" stop-color="#28785F"/>
<stop offset="0.5673" stop-color="#2E9B60"/>
<stop offset="0.84" stop-color="#36CB61"/>
<stop offset="1" stop-color="#3BEA62"/>
</linearGradient>
</defs>
</svg>
