<svg width="40" height="40" viewBox="0 0 40 40" fill="none" xmlns="http://www.w3.org/2000/svg">
<path d="M18.0001 22.749C18.0016 21.49 18.5025 20.283 19.3928 19.3927C20.283 18.5024 21.49 18.0016 22.7491 18H27.3773C28.2403 13.8392 28.3375 9.55598 27.6641 5.36035L6.34351 28.5119L18.0001 31.4795V22.749Z" fill="#F5B251"/>
<path d="M22.749 18H37.251C37.542 18.0025 37.8321 18.0318 38.1176 18.0877C39.8555 10.7943 38.6128 4.75745 37.877 1L22.0005 18.0757C22.2476 18.0305 22.4979 18.0052 22.749 18V18Z" fill="#FFAD0A"/>
<path d="M18 22.749C18 22.6066 18.0297 22.4723 18.0421 22.333L11.1866 29.7062L18 31.4587V22.749Z" fill="#FFAD0A"/>
<path fill-rule="evenodd" clip-rule="evenodd" d="M18.0001 22.749C18.0001 22.6051 18.03 22.4694 18.0426 22.3287L11.1538 29.7365L17.1164 31.2546L18.0001 31.4757V22.749Z" fill="#FF7A00"/>
<path fill-rule="evenodd" clip-rule="evenodd" d="M22.749 18H27.3845C27.8084 15.8616 28.0484 13.6907 28.1019 11.5114L21.9972 18.0761C22.2454 18.0306 22.4968 18.0052 22.749 18V18Z" fill="#FF7A00"/>
<path d="M18 32.5139L1 28.3066C1 28.3066 8.31744 32.5112 11.8973 39C13.6364 37.4754 15.7376 36.4228 18 35.9427V32.5139Z" fill="#8D97DE"/>
<path fill-rule="evenodd" clip-rule="evenodd" d="M37.2513 20H22.7487C22.3877 20 22.0303 20.0711 21.6968 20.2092C21.3633 20.3474 21.0603 20.5498 20.8051 20.8051C20.5498 21.0603 20.3474 21.3633 20.2092 21.6968C20.0711 22.0303 20 22.3877 20 22.7487V37.2513C20 37.9803 20.2896 38.6795 20.8051 39.1949C21.3205 39.7104 22.0197 40 22.7487 40H37.2513C37.9803 40 38.6795 39.7104 39.1949 39.1949C39.7104 38.6795 40 37.9803 40 37.2513V22.7487C40 22.3877 39.9289 22.0303 39.7908 21.6968C39.6526 21.3633 39.4502 21.0603 39.1949 20.8051C38.9397 20.5498 38.6367 20.3474 38.3032 20.2092C37.9697 20.0711 37.6123 20 37.2513 20ZM37.5 36.6176C37.5 36.8516 37.407 37.0761 37.2415 37.2415C37.0761 37.407 36.8516 37.5 36.6176 37.5H23.3824C23.1484 37.5 22.9239 37.407 22.7585 37.2415C22.593 37.0761 22.5 36.8516 22.5 36.6176V23.3824C22.5 23.2665 22.5228 23.1518 22.5672 23.0447C22.6115 22.9377 22.6765 22.8404 22.7585 22.7584C22.8404 22.6765 22.9377 22.6115 23.0447 22.5672C23.1518 22.5228 23.2665 22.5 23.3824 22.5H36.6176C36.7335 22.5 36.8482 22.5228 36.9553 22.5672C37.0623 22.6115 37.1596 22.6765 37.2415 22.7584C37.3235 22.8404 37.3885 22.9377 37.4328 23.0447C37.4772 23.1518 37.5 23.2665 37.5 23.3824V36.6176Z" fill="#67AE53"/>
<path fill-rule="evenodd" clip-rule="evenodd" d="M30 30.164L26.384 26.548L23.884 29.048L30 35.164L36.616 28.548L34.116 26.048L30 30.164Z" fill="#67AE53"/>
</svg>
