<!-- Copyright 2000-2024 JetBrains s.r.o. and contributors. Use of this source code is governed by the Apache 2.0 license. -->
<svg width="16" height="16" viewBox="0 0 16 16" fill="none" xmlns="http://www.w3.org/2000/svg">
<path fill-rule="evenodd" clip-rule="evenodd" d="M11.0904 10.8446L9.01136 8.76558L14.0114 8.76558L14.0114 13.7655L12.3651 12.1193C11.1982 13.3564 9.51576 14.092 7.68446 13.9961C4.72893 13.8412 2.38534 11.5726 2.04178 8.73184L3.89537 8.89401C4.28741 10.6992 5.84681 12.0929 7.78038 12.1942C9.07994 12.2623 10.2724 11.7322 11.0904 10.8446ZM13.9403 7.16289L12.0806 7.00019C11.6516 5.24661 10.1156 3.90511 8.22 3.80576C6.92031 3.73765 5.7277 4.26793 4.90973 5.15571L6.9933 7.23923L1.9933 7.23923L1.9933 2.23934L3.63736 3.88337C4.80406 2.64985 6.48409 1.91669 8.31249 2.01251C11.2284 2.16533 13.5487 4.37562 13.9403 7.16289Z" fill="#59A869"/>
</svg>
