<!-- Copyright 2000-2024 JetBrains s.r.o. and contributors. Use of this source code is governed by the Apache 2.0 license. -->
<svg width="16" height="16" viewBox="0 0 16 16" fill="none" xmlns="http://www.w3.org/2000/svg">
<path d="M13.9699 9.03056C13.4344 8.49502 12.5661 8.49502 12.0306 9.03056L11.0609 10.0002L10.0002 8.93957L10.9699 7.9699C12.0912 6.84858 13.9092 6.84858 15.0306 7.9699C16.1519 9.09122 16.1519 10.9092 15.0306 12.0306L14.0609 13.0002L13.0002 11.9396L13.9699 10.9699C14.5054 10.4344 14.5054 9.56609 13.9699 9.03056Z" fill="#40B6E0" fill-opacity="0.7"/>
<path d="M8.93957 10.0002L10.0002 11.0609L9.03056 12.0306C8.49502 12.5661 8.49502 13.4344 9.03056 13.9699C9.56609 14.5054 10.4344 14.5054 10.9699 13.9699L11.9396 13.0002L13.0002 14.0609L12.0306 15.0306C10.9092 16.1519 9.09122 16.1519 7.9699 15.0306C6.84858 13.9092 6.84858 12.0912 7.9699 10.9699L8.93957 10.0002Z" fill="#40B6E0" fill-opacity="0.7"/>
<path d="M10.5306 13.5306L13.5306 10.5306L12.4699 9.46997L9.46991 12.47L10.5306 13.5306Z" fill="#40B6E0" fill-opacity="0.7"/>
<path d="M11.5 6.43031V4.22782L8 3.53843L4.5 4.22782V8.64631C4.54309 8.93739 4.70395 9.32227 5.06815 9.7968C5.45025 10.2947 5.97545 10.785 6.55409 11.2341C6.20678 11.9114 6.07224 12.6696 6.15049 13.4096C4.6223 12.3748 2.67449 10.693 2.5 8.75833V2.58333L8 1.5L13.5 2.58333V6.16111C12.8268 6.07396 12.1351 6.16369 11.5 6.43031Z" fill="#9AA7B0"/>
</svg>
