<!-- Copyright 2000-2024 JetBrains s.r.o. and contributors. Use of this source code is governed by the Apache 2.0 license. -->
<svg width="16" height="16" viewBox="0 0 16 16" fill="none" xmlns="http://www.w3.org/2000/svg">
<path fill-rule="evenodd" clip-rule="evenodd" d="M7.99792 12.2165C8.4115 11.9685 8.91646 11.6404 9.42022 11.252C10.01 10.7972 10.5456 10.2995 10.9334 9.79462C11.298 9.31993 11.4577 8.93629 11.5 8.64773V4.22782L8 3.53843L4.5 4.22782V8.64631C4.54309 8.93739 4.70395 9.32227 5.06815 9.7968C5.45589 10.302 5.99098 10.7995 6.57974 11.2539C7.08205 11.6416 7.58544 11.9689 7.99792 12.2165ZM2.5 8.75833C2.79054 11.9797 7.99762 14.5 7.99762 14.5C7.99762 14.5 13.214 11.9758 13.5 8.75833V2.58333L8 1.5L2.5 2.58333V8.75833Z" fill="#9AA7B0"/>
</svg>
