<!-- Copyright 2000-2024 JetBrains s.r.o. and contributors. Use of this source code is governed by the Apache 2.0 license. -->
<svg width="16" height="16" viewBox="0 0 16 16" fill="none" xmlns="http://www.w3.org/2000/svg">
<path fill-rule="evenodd" clip-rule="evenodd" d="M15.8203 13.4949L15.0241 12.9202C15.0566 12.7554 15.0737 12.5849 15.0737 12.4104C15.0737 12.236 15.0566 12.0655 15.0241 11.9006L15.8203 11.326C15.667 10.8493 15.4155 10.417 15.0897 10.0534L14.1969 10.4585C13.9427 10.2333 13.6443 10.0575 13.3164 9.94602L13.2191 8.96551C12.9834 8.91516 12.7389 8.88867 12.4883 8.88867C12.2376 8.88867 11.9931 8.91516 11.7574 8.96551L11.6602 9.94602C11.3322 10.0575 11.0338 10.2333 10.7797 10.4585L9.88686 10.0534C9.56104 10.417 9.30949 10.8493 9.15625 11.326L9.95246 11.9006C9.91989 12.0655 9.90281 12.236 9.90281 12.4104C9.90281 12.5849 9.91989 12.7554 9.95246 12.9202L9.15625 13.4949C9.30949 13.9716 9.56104 14.4039 9.88686 14.7675L10.7797 14.3624C11.0338 14.5876 11.3322 14.7634 11.6602 14.8749L11.7574 15.8554C11.9931 15.9057 12.2376 15.9322 12.4883 15.9322C12.7389 15.9322 12.9834 15.9057 13.2191 15.8554L13.3164 14.8749C13.6443 14.7634 13.9427 14.5876 14.1969 14.3624L15.0897 14.7675C15.4155 14.4039 15.667 13.9716 15.8203 13.4949ZM13.7271 12.4106C13.7271 13.0988 13.1725 13.6568 12.4883 13.6568C11.8041 13.6568 11.2494 13.0988 11.2494 12.4106C11.2494 11.7223 11.8041 11.1643 12.4883 11.1643C13.1725 11.1643 13.7271 11.7223 13.7271 12.4106Z" fill="#40B6E0" fill-opacity="0.7"/>
<path d="M8.02746 12C8.00932 12.1642 8 12.331 8 12.5C8 12.8437 8.03853 13.1784 8.11151 13.5H2V12H8.02746Z" fill="#9AA7B0"/>
<path d="M9.67133 9C9.16995 9.40572 8.75749 9.91698 8.46776 10.5H6.5V9H9.67133Z" fill="#9AA7B0"/>
<path d="M14 7.5V6H6.5V7.5H14Z" fill="#9AA7B0"/>
<path d="M14 4.5V3H2V4.5H14Z" fill="#9AA7B0"/>
</svg>
