<!-- Copyright 2000-2024 JetBrains s.r.o. and contributors. Use of this source code is governed by the Apache 2.0 license. -->
<svg width="16" height="16" viewBox="0 0 16 16" fill="none" xmlns="http://www.w3.org/2000/svg">
<path d="M12 9H9V12H10V10.7071L12 12.7071V16H13V12.2929L10.7071 10H12V9Z" fill="#389FD6"/>
<path d="M14.2929 10H13V9H16V12H15V10.7071L13.8536 11.8536L13.1464 11.1464L14.2929 10Z" fill="#389FD6"/>
<path d="M8 11.5H6.2V10H8V8.5H6.2V7H9.8V8H12.4247V7.46154C12.4247 7.32018 12.4054 7.18382 12.3861 7.04725C12.3803 7.00598 12.3744 6.96455 12.3691 6.92308H14V5.30769H11.8149C11.3829 4.57862 10.7458 3.98846 9.97673 3.61262L11.4658 2.14262L10.3084 1L8.12 3.17C8.11172 3.16957 8.09421 3.16794 8.07484 3.16613C8.04574 3.16341 8.01244 3.16031 8 3.16031C7.96952 3.16031 7.95692 3.1627 7.94336 3.16528C7.93119 3.1676 7.91824 3.17006 7.89091 3.17108L5.69164 1L4.53418 2.14262L6.06691 3.65462C5.33273 4.03262 4.724 4.60446 4.30727 5.30769H2V6.92308H3.75309C3.74777 6.96462 3.74191 7.00598 3.73606 7.04732C3.71674 7.18389 3.69745 7.32017 3.69745 7.46154V8.53846H2V10.1538H3.69745V10.6923C3.69745 11.066 3.76182 11.4225 3.85345 11.7692H2V13.3846H4.68691C5.47567 14.3457 6.66032 14.9808 8 14.9996V11.5Z" fill="#6E6E6E"/>
</svg>
