<!-- Copyright 2000-2024 JetBrains s.r.o. and contributors. Use of this source code is governed by the Apache 2.0 license. -->
<svg width="12" height="12" viewBox="0 0 12 12" fill="none" xmlns="http://www.w3.org/2000/svg">
<path fill-rule="evenodd" clip-rule="evenodd" d="M8.31795 8.13341L6.75866 6.57416L10.5087 6.57416L10.5087 10.3241L9.27401 9.08945C8.39882 10.0173 7.13696 10.569 5.76348 10.497C3.54684 10.3809 1.78916 8.67941 1.53147 6.54888L2.92167 6.67051C3.2157 8.02438 4.38525 9.06967 5.83543 9.14567C6.8101 9.19675 7.70447 8.79912 8.31795 8.13341ZM10.4554 5.37217L9.06059 5.25014C8.73886 3.93496 7.58686 2.92883 6.16514 2.85432C5.19037 2.80324 4.29592 3.20094 3.68245 3.86678L5.24511 5.42941L1.49511 5.42941L1.49511 1.67949L2.72816 2.91251C3.60318 1.98737 4.86321 1.4375 6.2345 1.50936C8.42147 1.62398 10.1617 3.28171 10.4554 5.37217Z" fill="#AFB1B3"/>
</svg>
