<!-- Copyright 2000-2024 JetBrains s.r.o. and contributors. Use of this source code is governed by the Apache 2.0 license. -->
<svg width="16" height="16" viewBox="0 0 16 16" fill="none" xmlns="http://www.w3.org/2000/svg">
<path d="M13.9699 9.03056C13.4344 8.49502 12.5661 8.49502 12.0306 9.03056L11.0609 10.0002L10.0002 8.93957L10.9699 7.9699C12.0912 6.84858 13.9092 6.84858 15.0306 7.9699C16.1519 9.09122 16.1519 10.9092 15.0306 12.0306L14.0609 13.0002L13.0002 11.9396L13.9699 10.9699C14.5054 10.4344 14.5054 9.56609 13.9699 9.03056Z" fill="#40B6E0" fill-opacity="0.7"/>
<path d="M8.93957 10.0002L10.0002 11.0609L9.03056 12.0306C8.49502 12.5661 8.49502 13.4344 9.03056 13.9699C9.56609 14.5054 10.4344 14.5054 10.9699 13.9699L11.9396 13.0002L13.0002 14.0609L12.0306 15.0306C10.9092 16.1519 9.09122 16.1519 7.9699 15.0306C6.84858 13.9092 6.84858 12.0912 7.9699 10.9699L8.93957 10.0002Z" fill="#40B6E0" fill-opacity="0.7"/>
<path d="M10.5306 13.5306L13.5306 10.5306L12.4699 9.46997L9.46991 12.47L10.5306 13.5306Z" fill="#40B6E0" fill-opacity="0.7"/>
<path d="M6 2H2V6H3V3H6V2Z" fill="#9AA7B0"/>
<path d="M14 2H10V3H13V6H14V2Z" fill="#9AA7B0"/>
<path d="M3 13V10H2V14H6V13H3Z" fill="#9AA7B0"/>
<path d="M12 6.25969V5L8 3.5L4 5V8C4 9.64834 5.20757 10.9948 6.29571 11.8735C6.47444 11.284 6.7968 10.7288 7.26279 10.2628L10.2628 7.26279C10.762 6.76359 11.3636 6.42922 12 6.25969Z" fill="#9AA7B0"/>
</svg>
