<svg width="16" height="16" viewBox="0 0 16 16" fill="none" xmlns="http://www.w3.org/2000/svg">
<path fill-rule="evenodd" clip-rule="evenodd" d="M11.977 8.65L12.5082 10.2375L13.4352 8.65H11.977ZM11.8802 5.21725V8.153H13.4532L11.8802 5.21725ZM11.383 6.87475V4.5035H10.5895L11.383 6.87475ZM9.6525 1.70425L10.423 4.00625H11.2315L9.91925 1.55725L9.72075 1.6665L9.6525 1.70425ZM8.56925 14.49H9.74875L9.30375 13.67L9.15625 13.83C8.98125 14.0432 8.78625 14.2637 8.56925 14.49ZM7.99175 13.7423L8.01175 8.95975C7.88475 9.0335 7.70225 9.148 7.4875 9.29775C7.50775 9.88825 7.6025 11.8993 7.99175 13.7423ZM6.646 9.95425C6.664 10.3325 6.7765 11.6905 7.476 13.1687C7.22375 11.721 7.132 10.287 7.1 9.58225C6.94505 9.70177 6.79365 9.82582 6.646 9.95425ZM6.2155 14.49H7.443L7.34925 14.38C7.11879 14.1341 6.89957 13.8779 6.69225 13.6123L6.2155 14.49ZM5.823 10.7755C5.86725 11.0423 6.2125 12.048 7.0705 13.2455C6.5055 12.02 6.32625 10.8985 6.27 10.3005C6.1141 10.4523 5.96488 10.6108 5.82275 10.7755H5.823ZM6.44325 8.3095V9.447C6.64272 9.27471 6.85109 9.11298 7.0675 8.9625C7.61775 8.555 7.84175 8.47125 7.983 8.46225H7.98225V8.3095H6.44325ZM2.529 8.65L3.52 10.3468L4.202 8.65H2.529ZM4.3215 5.95575L2.6055 8.15275H4.32125L4.3215 5.95575ZM4.819 5.319V7.11575L6.02575 4.113L5.8645 3.98025L4.819 5.319ZM12.8365 10.662H13.8357L14.0845 10.9108V14.7382L13.8357 14.9873H2.1285L1.88 14.7388V10.911L2.1285 10.6622H3.128L1.881 8.52725L1.8995 8.24875L5.6295 3.4735L5.96825 3.436L5.9745 3.4275L7.65025 4.6845L7.35175 5.0825L6.44575 4.4025L3.8375 10.891L5.7895 14.2323L6.36725 13.1687C5.3885 11.747 5.31725 10.768 5.31375 10.7128L5.372 10.5378C5.55437 10.3209 5.74579 10.1118 5.94575 9.911V8.061L6.19475 7.81225H9.76975L10.0185 8.061V9.85325C10.222 10.0537 10.434 10.2808 10.6505 10.538L10.7085 10.7128C10.7055 10.7688 10.6322 11.7687 9.62275 13.2157L10.1752 14.2323L12.1747 10.8088L9.21 1.94825L8.39675 2.397L8.15675 1.9615L9.899 1L10.2385 1.1005L14.0877 8.28425L14.0832 8.52725L12.836 10.6622L12.8365 10.662Z" fill="#2369F6"/>
</svg>
