<svg xmlns="http://www.w3.org/2000/svg" width="16" height="16">
    <path id="outerborder" fill="#fff" fill-opacity=".2" d="M14.832 1.167C13.969.305 12.182 0 8 0S2.031.306 1.168 1.167C.306 2.029 0 3.817 0 8s.306 5.971 1.168 6.833C2.031 15.695 3.818 16 8 16s5.969-.306 6.832-1.167C15.694 13.971 16 12.183 16 8s-.306-5.971-1.168-6.833Zm-.707 12.958C13.463 14.787 11.5 15 8 15s-5.463-.213-6.125-.875C1.213 13.463 1 11.5 1 8s.213-5.463.875-6.125C2.537 1.213 4.5 1 8 1s5.463.213 6.125.875C14.787 2.537 15 4.5 15 8s-.213 5.463-.875 6.125Z"/>
    <path id="innerborder" fill="#000" fill-opacity=".2" d="M14.125 1.875C13.463 1.213 11.5 1 8 1s-5.463.213-6.125.875C1.213 2.537 1 4.5 1 8s.213 5.463.875 6.125C2.537 14.787 4.5 15 8 15s5.463-.213 6.125-.875C14.787 13.463 15 11.5 15 8s-.213-5.463-.875-6.125Zm-.707 11.542C13.2 13.635 12.207 14 8 14s-5.2-.365-5.418-.583C2.364 13.2 2 12.208 2 8s.364-5.201.582-5.417C2.8 2.365 3.793 2 8 2s5.2.365 5.418.583C13.636 2.8 14 3.792 14 8s-.364 5.201-.582 5.417Z"/>
    <path id="darkgrid" fill="#000" d="M5 5v3H2c0-1.273.034-2.248.086-3H5Zm3 9c1.273 0 2.248-.034 3-.086V11H8v3Zm-5.418-.583c.152.152.685.375 2.418.496v-2.914H2.086c.121 1.734.344 2.266.496 2.417v.001ZM8 2c-1.273 0-2.248.034-3 .086V5h3V2Zm5.418.583c-.152-.152-.685-.375-2.418-.496v2.914h2.914c-.121-1.734-.344-2.266-.496-2.417v-.001ZM5 8v3h3V8H5Zm6 3h2.914c.053-.752.086-1.727.086-3h-3v3Zm0-3V5H8v3h3Z" opacity=".1"/>
    <path id="lightgrid" fill="#fff" d="M5 11h3v3c-1.273 0-2.248-.034-3-.086V11ZM2 8c0 1.273.034 2.248.086 3H5V8H2Zm.582-5.417c-.152.151-.375.684-.496 2.417H5V2.086c-1.733.122-2.266.345-2.418.497Zm10.836 10.835c.152-.151.375-.684.496-2.417H11v2.914c1.733-.121 2.266-.344 2.418-.496v-.001ZM8 8.001v3h3v-3H8Zm0-3H5v3h3v-3Zm6 3c0-1.273-.034-2.248-.086-3H11v3h3Zm-3-5.915A43.483 43.483 0 0 0 8 2v3h3V2.086Z" opacity=".2"/>
    <path id="colorswatch" fill="#6F45B5" d="M8 2c-4.206 0-5.2.364-5.418.582l10.835 10.835c.218-.217.582-1.21.582-5.418s-.364-5.201-.582-5.417c-.218-.218-1.211-.583-5.418-.583L8 2Z"/>
    <path id="opacityswatch" fill="#6F45B5" fill-opacity=".5" d="M8 14c4.206 0 5.2-.364 5.418-.582L2.582 2.582C2.364 2.799 2 3.792 2 8s.364 5.201.582 5.417C2.8 13.635 3.793 14 8 14Z"/>
</svg>