<svg width="16" height="16" viewBox="0 0 16 16" fill="none" xmlns="http://www.w3.org/2000/svg">
    <path d="M13 2H3C2.44772 2 2 2.44772 2 3V13C2 13.5523 2.44772 14 3 14H13C13.5523 14 14 13.5523 14 13V3C14 2.44772 13.5523 2 13 2Z"
          fill="black"/>
    <path d="M4 11H8V12H4V11Z" fill="#CED0D6"/>
    <path d="M5.00063 5H3.2002V3.99707L7.80324 4V5H6.00063V9H5.00063V5Z" fill="#CED0D6"/>
    <path d="M10.5661 3.99706C9.06101 3.99706 8.0083 5.14024 8.0083 6.53015V6.5466L8.00007 6.53837C8.00007 7.94473 9.06924 9.05502 10.5167 9.05502C11.4625 9.05502 12.03 8.71782 12.5317 8.18324L11.8408 7.49239C11.4543 7.84604 11.1089 8.0681 10.5496 8.0681C9.71073 8.0681 9.12681 7.36903 9.12681 6.53015V6.5137C9.12681 5.67482 9.71896 4.9922 10.5496 4.9922C11.0431 4.9922 11.4296 5.19781 11.8079 5.54323L12.4988 4.7537C12.0464 4.30136 11.4954 3.99706 10.5661 3.99706Z"
          fill="#CED0D6"/>
    <path fill-rule="evenodd" clip-rule="evenodd"
          d="M13 1H3C1.89543 1 1 1.89543 1 3V13C1 14.1046 1.89543 15 3 15H13C14.1046 15 15 14.1046 15 13V3C15 1.89543 14.1046 1 13 1ZM13 2H3C2.44772 2 2 2.44772 2 3V13C2 13.5523 2.44772 14 3 14H13C13.5523 14 14 13.5523 14 13V3C14 2.44772 13.5523 2 13 2Z"
          fill="#CED0D6"/>
    <path fill-rule="evenodd" clip-rule="evenodd"
          d="M9 9.50217C9 8.32442 10.2951 7.60609 11.2942 8.22968L15.2962 10.7275C16.2372 11.3149 16.2372 12.6851 15.2962 13.2725L11.2942 15.7703C10.2951 16.3939 9 15.6756 9 14.4978V9.50217ZM10.7647 9.078C10.4317 8.87014 10 9.10958 10 9.50217V14.4978C10 14.8904 10.4317 15.1299 10.7647 14.922L14.7667 12.4242C15.0804 12.2284 15.0804 11.7716 14.7667 11.5758L10.7647 9.078Z"
          fill="#57965C"/>
    <path d="M10 9.50217C10 9.10959 10.4317 8.87014 10.7647 9.078L14.7667 11.5758C15.0804 11.7716 15.0804 12.2284 14.7667 12.4242L10.7647 14.922C10.4317 15.1299 10 14.8904 10 14.4978V9.50217Z"
          fill="#253627"/>
</svg>
