<!-- Copyright © 2000–2024 JetBrains s.r.o. -->
<svg width="16" height="16" viewBox="0 0 16 16" xmlns="http://www.w3.org/2000/svg">
  <path fill="#3592c4" d="M4 1 1 4v2.5l3-3 3 3V4z"/>
  <path fill="#afb1b3" d="M10.51 6.74c-.4 0-.72-.31-.73-.71 0-.38.3-.7.68-.7h.02c.39 0 .71.31.72.7 0 .39-.31.71-.7.72Zm1.81.49c-.91-.02-1.81.23-2.58.71v1.25c.68-.6 1.57-.94 2.48-.94 1.04 0 1.57.65 1.57 1.94l-2.28.32C9.84 10.74 9 11.57 9 12.99c-.04 1.24 1.02 2.2 2.42 2.2.98 0 1.88-.5 2.33-1.37h.03v1.19H15v-4.94c0-1.89-.89-2.83-2.68-2.83Zm1.47 4.69c.08 1.15-.78 2.15-1.94 2.23h-.15c-.71.09-1.36-.42-1.45-1.14v-.12c0-.77.26-1.28 1.71-1.48l1.83-.25v.76m-.29-5.18c-.39 0-.7-.31-.7-.7v-.01c0-.38.29-.69.67-.7h.02c.39 0 .71.31.72.7 0 .39-.31.71-.7.72Z"/>
</svg>
