<!-- Copyright © 2000–2024 JetBrains s.r.o. -->
<svg width="16" height="16" viewBox="0 0 16 16" xmlns="http://www.w3.org/2000/svg">
  <path fill="#afb1b3" d="M12 14h-1.62v-1.62h-.04A3.492 3.492 0 0 1 7.22 14C5 14 4 12.8 4 11.39 4 9.7 5.1 8.72 7.34 8.44l3.04-.38c0-1.61-.77-2.3-2.09-2.3-1.19 0-2.35.38-3.3 1.11V5.39c1.05-.58 2.24-.87 3.44-.85 2.39 0 3.57 1.12 3.57 3.37v6.08ZM6.01 2.98c-.55 0-1-.45-1-1-.01-.53.41-.97.94-.99h.03c.55 0 1 .44 1 .99 0 .54-.42.99-.97 1m4.37 6.24-2.44.3c-1.31.16-2.27.45-2.27 1.76 0 1 .92 1.5 1.94 1.5 1.45.08 2.69-1.02 2.78-2.47V9.22ZM10 2.98c-.54 0-.97-.43-.97-.97v-.03c-.02-.53.39-.97.92-.99h.03c.54 0 .98.43.99.97v.02c.02.53-.4.98-.94 1H10"/>
</svg>
