<svg xmlns="http://www.w3.org/2000/svg" width="16" height="16">
  <path d="M14.594,4.816A1.7,1.7,0,0,0,15.205,3.5,1.664,1.664,0,0,0,14.3,2H12.683A1.631,1.631,0,0,0,12,2.668,1.677,1.677,0,0,0,11.3,2H9.679a1.656,1.656,0,0,0-.895,1.5A1.7,1.7,0,0,0,9.5,4.885c-.223.122-.344.208-.758.469V8.743A3.388,3.388,0,0,0,8,10.947,3,3,0,0,0,10.344,14h2.082a3.568,3.568,0,0,0,.358-.1v.063H16V8.025A3.681,3.681,0,0,0,14.594,4.816Z" fill="#252525"/>
  <path d="M10.511,4.208A.721.721,0,0,1,9.784,3.5a.692.692,0,0,1,.705-.7.708.708,0,1,1,.022,1.416Zm1.812.984A4.7,4.7,0,0,0,9.742,5.9V7.15a3.737,3.737,0,0,1,2.477-.935q1.565,0,1.565,1.936l-2.277.319Q9,8.818,9,10.947a2.146,2.146,0,0,0,2.418,2.2,2.546,2.546,0,0,0,2.336-1.365h.03v1.187H15V8.025Q15,5.192,12.323,5.192Zm1.461,4.687a2.091,2.091,0,0,1-2.084,2.24,1.3,1.3,0,0,1-1.454-1.261c0-.773.258-1.28,1.706-1.484l1.832-.252ZM13.5,4.208a.7.7,0,0,1-.7-.712.685.685,0,0,1,.691-.7A.708.708,0,1,1,13.5,4.208Z" fill="#c4c4c4"/>
  <path fill="#252525" d="M5 11.086 1.914 8 1 8 1 12.414 4.586 16 5.414 16 9 12.414 9 8 8.086 8 5 11.086z"/>
  <path fill="#7cbeff" d="M5 15 8 12 8 9.5 5 12.5 2 9.5 2 12 5 15z"/>
</svg>
