<svg width="256" height="256" viewBox="0 0 256 256" fill="none" xmlns="http://www.w3.org/2000/svg">
<path d="M256 68.2L243.8 163L237.2 204.6L152.8 256L48.3999 175.8L175.4 42.6L256 68.2Z" fill="url(#paint0_linear)"/>
<path d="M153 234.8V242.4H161.8L164.8 237.8L153 234.8Z" fill="url(#paint1_linear)"/>
<path d="M231 200L243.8 162.8L251.2 216.6L231 200Z" fill="url(#paint2_linear)"/>
<path d="M256 68.1999L108.6 169L41.7998 179L175.4 4.19995L256 68.1999Z" fill="url(#paint3_linear)"/>
<path d="M147.4 41.7999L175.4 4.19995L170.6 81.6L147.4 41.7999Z" fill="url(#paint4_linear)"/>
<path d="M41.2001 178.6L2.80005 150.8L39.4001 114.6L149.2 159L41.2001 178.6Z" fill="url(#paint5_linear)"/>
<path d="M104 221.6L20.6001 249.6L41.6001 190.8L143.4 151.4L200.4 186.4L104 221.6Z" fill="url(#paint6_linear)"/>
<path d="M80.4 53.8L37 0L120.8 9.8L130.4 37.4L80.4 53.8Z" fill="url(#paint7_linear)"/>
<path d="M243.8 162.8L120.8 9.80005L75.5999 10.6L50.3999 85L210.2 172.6L183 212.2L237.2 204.6L243.8 162.8Z" fill="url(#paint8_linear)"/>
<path d="M50.0001 89.2L21.6001 88.4L37.0001 0L75.6001 10.6L50.0001 89.2Z" fill="url(#paint9_linear)"/>
<path d="M210.2 172.6L138.4 157.2L0 101.4L51 85.6L210.2 172.6Z" fill="url(#paint10_linear)"/>
<path d="M71.2001 23.8L50.8001 85.6H50.6001H51.0001L151.2 140.4L153.2 141L194.6 110L71.2001 23.8Z" fill="url(#paint11_linear)"/>
<path d="M37 0L0 101.4L47.2 89.2L50.8 85.6L71.2 23.8L37 0Z" fill="url(#paint12_linear)"/>
<path d="M20.6001 249.6L52.4001 122.8L138.4 157.2L20.6001 249.6Z" fill="url(#paint13_linear)"/>
<path d="M138.4 157.2L90.6 115.8L25 109.8L2.80005 150.8L49.6 132L50.2001 131.8L20.6 249.6L138.4 157.2Z" fill="url(#paint14_linear)"/>
<path d="M210.2 172.6L165.4 238L103.8 222L138.4 157.2L210.2 172.6Z" fill="url(#paint15_linear)"/>
<path d="M210.2 172.6L138.4 157.2L0 101.4L51 85.6L210.2 172.6Z" fill="url(#paint16_linear)"/>
<path d="M51 85.6L0 101.4L151.2 140.4L51 85.6Z" fill="url(#paint17_linear)"/>
<path d="M237.2 204.6L181.4 212.4L152.8 256L251.2 216.6L237.2 204.6Z" fill="url(#paint18_linear)"/>
<path d="M152.8 256L182.6 212.6L103.6 222.4L152.8 256Z" fill="url(#paint19_linear)"/>
<path d="M95 109.4L150.8 140L199 107.2L146.6 42L95 109.4Z" fill="url(#paint20_linear)"/>
<path d="M194.6 110L129.4 64.4L95 109.4L150.8 140L192.4 111.8L194.6 110Z" fill="url(#paint21_linear)"/>
<path d="M208 48H48V208H208V48Z" fill="url(#paint22_linear)"/>
<g opacity="0.5">
<g opacity="0.3">
<path opacity="0.3" d="M205.2 208L208 207.6V173.8L184.6 208H205.2Z" fill="#231F20"/>
<path opacity="0.3" d="M150.4 48H64L51.2 85.4L201.2 167.6L52 86.2L48 87.4V120.4L138.4 156.8L208 171.8V171.4V119.6L150.4 48Z" fill="url(#paint23_linear)"/>
<path opacity="0.3" d="M64.0002 48L51.2002 85.4L208 171.4V119.6L150.4 48H64.0002Z" fill="url(#paint24_linear)"/>
<path opacity="0.3" d="M48 48V89.8H48.2L51.8 86L64.2 48H48Z" fill="#F9ED32"/>
</g>
<path opacity="0.3" d="M48 87.4V120.4L138.4 156.8L208 171.8V171.4L52 86.2L48 87.4Z" fill="url(#paint25_linear)"/>
<path opacity="0.3" d="M48 113.8L151 140.2L52 86.2L48 87.4V113.8Z" fill="url(#paint26_linear)"/>
<path opacity="0.3" d="M111 208L138.4 156.8L73.2002 208H111Z" fill="url(#paint27_linear)"/>
<path opacity="0.3" d="M48 144L51 131.6L50.6 132L48 133V144Z" fill="#F7941D"/>
<path opacity="0.3" d="M48 133L50.6 132L51 131.6L48 144V208H73.2L138.4 156.8L48 120.4V133Z" fill="url(#paint28_linear)"/>
<path opacity="0.3" d="M111 208H184.6L208 173.8V171.8L138.4 156.8L111 208Z" fill="url(#paint29_linear)"/>
<g opacity="0.3">
<path opacity="0.3" d="M198.2 107.4L208 100.8V48H150.4L198.2 107.4Z" fill="url(#paint30_linear)"/>
</g>
</g>
<g opacity="0.3">
<path opacity="0.3" d="M64.0002 48L51.2002 85.4L208 171.4V119.6L150.4 48H64.0002Z" fill="url(#paint31_linear)"/>
<path opacity="0.3" d="M48 48V89.8H48.2L51.8 86L64.2 48H48Z" fill="#F9ED32"/>
</g>
<path d="M128 177.8H68V187.8H128V177.8Z" fill="white"/>
<path d="M97.8 79V68H68V79H76.4V116.8H68V127.6H97.8V116.8H89.6V79H97.8Z" fill="white"/>
<path d="M126.6 128.6C122 128.6 118 127.8 114.8 126C111.6 124.2 109 122.2 107 119.6L115.2 110.4C117 112.2 118.6 113.8 120.4 114.8C122.2 115.8 124 116.4 126.2 116.4C128.6 116.4 130.6 115.6 132 114C133.4 112.4 134.2 110 134.2 106.4V68H147.6V107C147.6 110.6 147.2 113.6 146.2 116.2C145.2 118.8 143.8 121 142 122.8C140.2 124.6 138 126 135.4 127C132.6 128 129.8 128.6 126.6 128.6Z" fill="white"/>
<defs>
<linearGradient id="paint0_linear" x1="148.528" y1="76.7618" x2="159.345" y2="211.739" gradientUnits="userSpaceOnUse">
<stop offset="0.0998726" stop-color="#087CFA"/>
<stop offset="0.4602" stop-color="#079AF6"/>
<stop offset="0.8454" stop-color="#07C3F2"/>
</linearGradient>
<linearGradient id="paint1_linear" x1="159.142" y1="240.462" x2="161.263" y2="243.539" gradientUnits="userSpaceOnUse">
<stop offset="0.2859" stop-color="#087CFA"/>
<stop offset="1" stop-color="#079AF6"/>
</linearGradient>
<linearGradient id="paint2_linear" x1="236.539" y1="221.996" x2="260.352" y2="150.248" gradientUnits="userSpaceOnUse">
<stop offset="0.1184" stop-color="#27A6F6"/>
<stop offset="0.2418" stop-color="#2F99F5"/>
<stop offset="0.9197" stop-color="#5753F2"/>
</linearGradient>
<linearGradient id="paint3_linear" x1="261.031" y1="14.6021" x2="112.202" y2="104.6" gradientUnits="userSpaceOnUse">
<stop offset="0.286" stop-color="#0AEFFF"/>
<stop offset="0.3292" stop-color="#09DEFA"/>
<stop offset="0.3966" stop-color="#07CAF4"/>
<stop offset="0.442" stop-color="#07C3F2"/>
<stop offset="0.5015" stop-color="#07ACF5"/>
<stop offset="0.5749" stop-color="#0897F7"/>
<stop offset="0.6568" stop-color="#0888F9"/>
<stop offset="0.7528" stop-color="#087FFA"/>
<stop offset="0.8981" stop-color="#087CFA"/>
</linearGradient>
<linearGradient id="paint4_linear" x1="161.446" y1="-1.84345" x2="161.446" y2="96.8736" gradientUnits="userSpaceOnUse">
<stop offset="0.207" stop-color="#02C5FE"/>
<stop offset="0.317" stop-color="#04ACFD"/>
<stop offset="0.4435" stop-color="#0697FB"/>
<stop offset="0.5845" stop-color="#0788FB"/>
<stop offset="0.7499" stop-color="#087FFA"/>
<stop offset="1" stop-color="#087CFA"/>
</linearGradient>
<linearGradient id="paint5_linear" x1="41.291" y1="122.348" x2="63.3646" y2="143.025" gradientUnits="userSpaceOnUse">
<stop stop-color="#FF581C"/>
<stop offset="0.1918" stop-color="#FF5124"/>
<stop offset="0.4947" stop-color="#FE3F3B"/>
<stop offset="0.7851" stop-color="#FE2857"/>
</linearGradient>
<linearGradient id="paint6_linear" x1="69.8901" y1="174.303" x2="107.097" y2="214.373" gradientUnits="userSpaceOnUse">
<stop offset="0.4574" stop-color="#FF149D"/>
<stop offset="0.536" stop-color="#EF1AB2"/>
<stop offset="0.6983" stop-color="#C82BE9"/>
<stop offset="0.7574" stop-color="#B831FF"/>
<stop offset="0.8388" stop-color="#A33AFE"/>
<stop offset="1" stop-color="#6E51FD"/>
</linearGradient>
<linearGradient id="paint7_linear" x1="77.9418" y1="-6.5888" x2="89.7966" y2="45.2762" gradientUnits="userSpaceOnUse">
<stop offset="0.0276342" stop-color="#FFDE17"/>
<stop offset="0.276" stop-color="#FDB60D"/>
<stop offset="0.5939" stop-color="#FC801D"/>
<stop offset="0.6532" stop-color="#FC7A25"/>
<stop offset="0.7469" stop-color="#FD6A3C"/>
<stop offset="0.8628" stop-color="#FE4F61"/>
<stop offset="0.976" stop-color="#FF318C"/>
</linearGradient>
<linearGradient id="paint8_linear" x1="69.4185" y1="45.515" x2="248.347" y2="187.565" gradientUnits="userSpaceOnUse">
<stop stop-color="#FE2857"/>
<stop offset="0.0557468" stop-color="#FE255F"/>
<stop offset="0.1437" stop-color="#FF1F76"/>
<stop offset="0.2282" stop-color="#FF1692"/>
<stop offset="0.289" stop-color="#F11BA7"/>
<stop offset="0.4143" stop-color="#CD29DE"/>
<stop offset="0.4828" stop-color="#B831FF"/>
<stop offset="0.581" stop-color="#7A4CFD"/>
<stop offset="0.748" stop-color="#087CFA"/>
<stop offset="0.9745" stop-color="#07A5F5"/>
</linearGradient>
<linearGradient id="paint9_linear" x1="26.9451" y1="39.6552" x2="63.1985" y2="56.1918" gradientUnits="userSpaceOnUse">
<stop offset="0.2889" stop-color="#FFDE17"/>
<stop offset="0.9874" stop-color="white"/>
</linearGradient>
<linearGradient id="paint10_linear" x1="19.669" y1="90.4776" x2="197.087" y2="182.779" gradientUnits="userSpaceOnUse">
<stop offset="0.2464" stop-color="#FE2857"/>
<stop offset="0.292" stop-color="#FE265F"/>
<stop offset="0.3641" stop-color="#FE1F76"/>
<stop offset="0.4534" stop-color="#FF159B"/>
<stop offset="0.4574" stop-color="#FF149D"/>
<stop offset="0.536" stop-color="#EF1AB2"/>
<stop offset="0.6983" stop-color="#C82BE9"/>
<stop offset="0.7574" stop-color="#B831FF"/>
<stop offset="0.811" stop-color="#A33AFE"/>
<stop offset="0.9215" stop-color="#6C52FD"/>
<stop offset="1" stop-color="#4164FC"/>
</linearGradient>
<linearGradient id="paint11_linear" x1="58.6765" y1="52.2002" x2="158.85" y2="123.753" gradientUnits="userSpaceOnUse">
<stop offset="0.00823305" stop-color="#FC35E3"/>
<stop offset="0.2164" stop-color="#F12CD5"/>
<stop offset="0.4105" stop-color="#EB27CD"/>
<stop offset="0.4984" stop-color="#DE2ADA"/>
<stop offset="0.7777" stop-color="#B831FF"/>
<stop offset="1" stop-color="#6D51FD"/>
</linearGradient>
<linearGradient id="paint12_linear" x1="17.946" y1="50.3274" x2="52.5298" y2="72.5088" gradientUnits="userSpaceOnUse">
<stop offset="0.0433729" stop-color="#FFD25F"/>
<stop offset="0.2889" stop-color="#FEBC9B"/>
<stop offset="0.6173" stop-color="#FC9CF0"/>
<stop offset="1" stop-color="#FD5ED7"/>
</linearGradient>
<linearGradient id="paint13_linear" x1="-10.3931" y1="115.397" x2="149.725" y2="272.103" gradientUnits="userSpaceOnUse">
<stop offset="0.0226617" stop-color="#FC801D"/>
<stop offset="0.2467" stop-color="#FC7E20"/>
<stop offset="0.276" stop-color="#FC772A"/>
<stop offset="0.3253" stop-color="#FD6444"/>
<stop offset="0.3881" stop-color="#FE466E"/>
<stop offset="0.4273" stop-color="#FF318C"/>
<stop offset="0.4924" stop-color="#EA3896"/>
<stop offset="0.6276" stop-color="#B248AE"/>
<stop offset="0.8194" stop-color="#5A63D6"/>
<stop offset="0.9859" stop-color="#087CFA"/>
</linearGradient>
<linearGradient id="paint14_linear" x1="28.859" y1="115.833" x2="79.3919" y2="203.155" gradientUnits="userSpaceOnUse">
<stop offset="0.00442798" stop-color="#FFDE17"/>
<stop offset="0.0525354" stop-color="#FECB12"/>
<stop offset="0.1093" stop-color="#FDBB0E"/>
<stop offset="0.1542" stop-color="#FDB60D"/>
<stop offset="0.2351" stop-color="#FDAE0F"/>
<stop offset="0.3571" stop-color="#FC9A15"/>
<stop offset="0.4724" stop-color="#FC801D"/>
<stop offset="1" stop-color="#FE4176"/>
</linearGradient>
<linearGradient id="paint15_linear" x1="134.104" y1="160.85" x2="180.826" y2="235.285" gradientUnits="userSpaceOnUse">
<stop offset="0.0211218" stop-color="#B149AF"/>
<stop offset="0.0831639" stop-color="#9153BD"/>
<stop offset="0.2186" stop-color="#3F6BE2"/>
<stop offset="0.3042" stop-color="#087CFA"/>
<stop offset="0.7942" stop-color="#07C3F2"/>
</linearGradient>
<linearGradient id="paint16_linear" x1="19.669" y1="90.4776" x2="197.087" y2="182.779" gradientUnits="userSpaceOnUse">
<stop offset="0.2464" stop-color="#FE2857"/>
<stop offset="0.292" stop-color="#FE265F"/>
<stop offset="0.3641" stop-color="#FE1F76"/>
<stop offset="0.4534" stop-color="#FF159B"/>
<stop offset="0.4574" stop-color="#FF149D"/>
<stop offset="0.536" stop-color="#EF1AB2"/>
<stop offset="0.6983" stop-color="#C82BE9"/>
<stop offset="0.7574" stop-color="#B831FF"/>
<stop offset="0.811" stop-color="#A33AFE"/>
<stop offset="0.9215" stop-color="#6C52FD"/>
<stop offset="1" stop-color="#4164FC"/>
</linearGradient>
<linearGradient id="paint17_linear" x1="35.9328" y1="98.8314" x2="117.774" y2="144.354" gradientUnits="userSpaceOnUse">
<stop offset="0.00629908" stop-color="#FF45ED"/>
<stop offset="0.1766" stop-color="#FF35D8"/>
<stop offset="0.3352" stop-color="#FF24C0"/>
<stop offset="0.7349" stop-color="#EA23CA"/>
<stop offset="1" stop-color="#D923D1"/>
</linearGradient>
<linearGradient id="paint18_linear" x1="221.772" y1="184.988" x2="194.965" y2="254.593" gradientUnits="userSpaceOnUse">
<stop offset="0.2157" stop-color="#07C3F2"/>
<stop offset="0.3237" stop-color="#04B1EC"/>
<stop offset="0.4576" stop-color="#01A1E7"/>
<stop offset="0.5613" stop-color="#009BE5"/>
<stop offset="0.5745" stop-color="#0198E7"/>
<stop offset="0.6778" stop-color="#058AF1"/>
<stop offset="0.7992" stop-color="#0781F7"/>
<stop offset="0.9829" stop-color="#087EF9"/>
</linearGradient>
<linearGradient id="paint19_linear" x1="109.693" y1="213.622" x2="171.07" y2="235.565" gradientUnits="userSpaceOnUse">
<stop offset="0.1529" stop-color="#087CFA"/>
<stop offset="0.6343" stop-color="#009AE5"/>
<stop offset="1" stop-color="#07C3F2"/>
</linearGradient>
<linearGradient id="paint20_linear" x1="159.267" y1="51.9666" x2="140.194" y2="139.811" gradientUnits="userSpaceOnUse">
<stop stop-color="#FF188D"/>
<stop offset="0.3188" stop-color="#D82EC8"/>
<stop offset="0.4411" stop-color="#CC30CC"/>
<stop offset="0.6628" stop-color="#AC35D7"/>
<stop offset="0.8981" stop-color="#833CE5"/>
</linearGradient>
<linearGradient id="paint21_linear" x1="118.498" y1="72.6812" x2="155.705" y2="125.153" gradientUnits="userSpaceOnUse">
<stop stop-color="#FF188D"/>
<stop offset="0.3188" stop-color="#D82EC8"/>
<stop offset="0.4411" stop-color="#CC30CC"/>
<stop offset="0.6628" stop-color="#AC35D7"/>
<stop offset="0.8981" stop-color="#833CE5"/>
</linearGradient>
<linearGradient id="paint22_linear" x1="45.5312" y1="60.7664" x2="209.319" y2="194.296" gradientUnits="userSpaceOnUse">
<stop stop-color="#521713"/>
<stop offset="0.080028" stop-color="#451310"/>
<stop offset="0.2989" stop-color="#270B09"/>
<stop offset="0.514" stop-color="#110504"/>
<stop offset="0.7218" stop-color="#040101"/>
<stop offset="0.9138"/>
</linearGradient>
<linearGradient id="paint23_linear" x1="48" y1="109.9" x2="208" y2="109.9" gradientUnits="userSpaceOnUse">
<stop offset="0.2464" stop-color="#FE2857"/>
<stop offset="0.292" stop-color="#FE265F"/>
<stop offset="0.3641" stop-color="#FE1F76"/>
<stop offset="0.4534" stop-color="#FF159B"/>
<stop offset="0.4574" stop-color="#FF149D"/>
<stop offset="0.536" stop-color="#EF1AB2"/>
<stop offset="0.6983" stop-color="#C82BE9"/>
<stop offset="0.7574" stop-color="#B831FF"/>
<stop offset="0.811" stop-color="#A33AFE"/>
<stop offset="0.9215" stop-color="#6C52FD"/>
<stop offset="1" stop-color="#4164FC"/>
</linearGradient>
<linearGradient id="paint24_linear" x1="51.2732" y1="109.718" x2="208" y2="109.718" gradientUnits="userSpaceOnUse">
<stop offset="0.1118" stop-color="#F7941D"/>
<stop offset="0.1374" stop-color="#F88C25"/>
<stop offset="0.178" stop-color="#F9753A"/>
<stop offset="0.2284" stop-color="#FB505D"/>
<stop offset="0.2863" stop-color="#FF1C8C"/>
<stop offset="0.2928" stop-color="#FF1692"/>
<stop offset="0.4031" stop-color="#EA1A93"/>
<stop offset="0.4677" stop-color="#DB1D93"/>
<stop offset="0.5543" stop-color="#9F2895"/>
<stop offset="0.7229" stop-color="#21409A"/>
<stop offset="0.8671" stop-color="#222F5C"/>
<stop offset="1" stop-color="#231F20"/>
</linearGradient>
<linearGradient id="paint25_linear" x1="48" y1="128.955" x2="208" y2="128.955" gradientUnits="userSpaceOnUse">
<stop offset="0.0878508" stop-color="#FE2857"/>
<stop offset="0.1283" stop-color="#FE265F"/>
<stop offset="0.1923" stop-color="#FE1F76"/>
<stop offset="0.2716" stop-color="#FF159B"/>
<stop offset="0.2751" stop-color="#FF149D"/>
<stop offset="0.4167" stop-color="#B21871"/>
<stop offset="0.5427" stop-color="#741B4E"/>
<stop offset="0.6489" stop-color="#481D35"/>
<stop offset="0.731" stop-color="#2D1E26"/>
<stop offset="0.7791" stop-color="#231F20"/>
</linearGradient>
<linearGradient id="paint26_linear" x1="63.4878" y1="106.957" x2="126.145" y2="141.809" gradientUnits="userSpaceOnUse">
<stop offset="0.00629908" stop-color="#FF45ED"/>
<stop offset="0.1766" stop-color="#FF35D8"/>
<stop offset="0.3352" stop-color="#FF24C0"/>
<stop offset="0.451" stop-color="#EA24B0"/>
<stop offset="0.6916" stop-color="#B22388"/>
<stop offset="1" stop-color="#63214F"/>
</linearGradient>
<linearGradient id="paint27_linear" x1="73.134" y1="182.397" x2="138.321" y2="182.397" gradientUnits="userSpaceOnUse">
<stop offset="0.4574" stop-color="#FF149D"/>
<stop offset="0.536" stop-color="#EF1AB2"/>
<stop offset="0.6983" stop-color="#C82BE9"/>
<stop offset="0.7574" stop-color="#B831FF"/>
<stop offset="0.8388" stop-color="#A33AFE"/>
<stop offset="1" stop-color="#6E51FD"/>
</linearGradient>
<linearGradient id="paint28_linear" x1="48" y1="164.219" x2="138.321" y2="164.219" gradientUnits="userSpaceOnUse">
<stop offset="0.00442798" stop-color="#FFDE17"/>
<stop offset="0.0386836" stop-color="#FECB12"/>
<stop offset="0.0790912" stop-color="#FDBB0E"/>
<stop offset="0.1111" stop-color="#FDB60D"/>
<stop offset="0.1673" stop-color="#FDAE0F"/>
<stop offset="0.2521" stop-color="#FC9A15"/>
<stop offset="0.3323" stop-color="#FC801D"/>
<stop offset="0.7374" stop-color="#BE1E2D"/>
</linearGradient>
<linearGradient id="paint29_linear" x1="111.033" y1="182.397" x2="208" y2="182.397" gradientUnits="userSpaceOnUse">
<stop stop-color="#087CFA"/>
<stop offset="0.7942" stop-color="#231F20"/>
</linearGradient>
<linearGradient id="paint30_linear" x1="273.288" y1="200.317" x2="171.332" y2="35.2138" gradientUnits="userSpaceOnUse">
<stop offset="0.3486" stop-color="#3595F3"/>
<stop offset="0.4019" stop-color="#3490EB"/>
<stop offset="0.4865" stop-color="#3284D4"/>
<stop offset="0.5918" stop-color="#2F6FAE"/>
<stop offset="0.7135" stop-color="#2B527B"/>
<stop offset="0.8476" stop-color="#252D39"/>
<stop offset="0.8951" stop-color="#231F20"/>
</linearGradient>
<linearGradient id="paint31_linear" x1="51.2732" y1="109.718" x2="208" y2="109.718" gradientUnits="userSpaceOnUse">
<stop offset="0.1118" stop-color="#F7941D"/>
<stop offset="0.1374" stop-color="#F88C25"/>
<stop offset="0.178" stop-color="#F9753A"/>
<stop offset="0.2284" stop-color="#FB505D"/>
<stop offset="0.2863" stop-color="#FF1C8C"/>
<stop offset="0.2928" stop-color="#FF1692"/>
<stop offset="0.4031" stop-color="#EA1A93"/>
<stop offset="0.4677" stop-color="#DB1D93"/>
<stop offset="0.5543" stop-color="#9F2895"/>
<stop offset="0.7229" stop-color="#21409A"/>
<stop offset="0.8671" stop-color="#222F5C"/>
<stop offset="1" stop-color="#231F20"/>
</linearGradient>
</defs>
</svg>
