<svg width="24" height="24" viewBox="0 0 24 24" fill="none" xmlns="http://www.w3.org/2000/svg">
<g clip-path="url(#clip0_4372_11285)">
<path d="M2.18201 18.0197L2.18266 22.473C2.18266 23.3165 2.86644 24 3.70993 24H8.02491C8.47066 24 8.89437 23.8052 9.18455 23.4668L21.4505 9.15626C21.6877 8.87938 21.8181 8.5268 21.8181 8.16222V3.70891C21.8181 2.86542 21.1344 2.18164 20.2909 2.18164H15.9752C15.5295 2.18164 15.1058 2.37648 14.8156 2.71488L2.54964 17.0254C2.31226 17.3023 2.18201 17.6549 2.18201 18.0197Z" fill="#00D886"/>
<path d="M2.18182 18.5555V22.4729C2.18182 23.3164 2.86561 24.0002 3.7091 24.0002H8.61884C8.69106 24.0002 8.76328 23.995 8.83484 23.9849L22.6887 22.006C23.4412 21.8984 24 21.2542 24 20.494V14.6166C24 13.7729 23.316 13.0891 22.4723 13.0894L15.5204 13.0911C15.3563 13.0911 15.1933 13.1175 15.0377 13.1694L3.22604 17.1067C2.60248 17.3147 2.18182 17.8983 2.18182 18.5557V18.5555Z" fill="url(#paint0_linear_4372_11285)"/>
<path d="M0 1.52727V14.2654C0 14.8763 0.364145 15.4285 0.925527 15.6692L14.9845 21.6947C15.1745 21.7761 15.3794 21.8182 15.5863 21.8182H22.4727C23.3162 21.8182 24 21.1344 24 20.2909V13.5537C24 13.2519 23.9105 12.9569 23.743 12.7058L15.7169 0.680073C15.4335 0.255491 14.957 0.000654545 14.4467 0.000654545L1.52727 0C0.683782 0 0 0.683782 0 1.52727Z" fill="url(#paint1_linear_4372_11285)"/>
<path d="M20 4H4V20H20V4Z" fill="black"/>
<path d="M6.17383 6.10217H8.73817C9.15623 6.10217 9.52469 6.17897 9.84331 6.33257C10.1619 6.48617 10.4065 6.70217 10.5773 6.98103C10.7507 7.25989 10.8376 7.58263 10.8376 7.94949C10.8376 8.31634 10.7494 8.64914 10.5731 8.93074C10.3997 9.21234 10.1507 9.43154 9.8264 9.58789C9.50503 9.74149 9.13086 9.81829 8.70434 9.81829H7.33909V12.0754H6.17429V6.10217H6.17383ZM8.66114 8.85006C8.85749 8.85006 9.028 8.8144 9.17314 8.74331C9.32103 8.66926 9.43486 8.56571 9.5144 8.43177C9.59394 8.29531 9.63394 8.13737 9.63394 7.95817C9.63394 7.77897 9.59417 7.61943 9.5144 7.48891C9.43463 7.35497 9.32103 7.25257 9.17314 7.18171C9.028 7.10766 8.85749 7.07086 8.66114 7.07086H7.3384V8.85006H8.66114ZM14.2106 12.1781C13.639 12.1781 13.1213 12.0441 12.6575 11.7769C12.1937 11.5065 11.8298 11.1369 11.5651 10.6677C11.3007 10.1957 11.1683 9.66926 11.1683 9.08891C11.1683 8.50857 11.3007 7.98377 11.5651 7.51451C11.8296 7.04251 12.1937 6.67246 12.6575 6.40526C13.121 6.13486 13.6387 6 14.2106 6C14.6941 6 15.1379 6.0896 15.5418 6.2688C15.9457 6.448 16.2813 6.69966 16.5487 7.024C16.8189 7.3456 16.9994 7.7152 17.0906 8.13326H15.8703C15.7905 7.91726 15.6712 7.728 15.5119 7.56571C15.3553 7.40091 15.1663 7.27406 14.9443 7.18606C14.7224 7.09806 14.4806 7.05371 14.2191 7.05371C13.8664 7.05371 13.5478 7.14171 13.2634 7.31817C12.9789 7.49463 12.7558 7.73783 12.5935 8.04777C12.4342 8.35497 12.3546 8.70217 12.3546 9.08891C12.3546 9.47566 12.4342 9.82446 12.5935 10.1342C12.7555 10.4414 12.9789 10.683 13.2634 10.8594C13.5478 11.0359 13.8664 11.1239 14.2191 11.1239C14.4808 11.1239 14.7226 11.0795 14.9443 10.9915C15.1661 10.9035 15.3553 10.7783 15.5119 10.616C15.6712 10.4512 15.7905 10.2603 15.8703 10.0443H17.0906C16.9997 10.4624 16.8189 10.8336 16.5487 11.1579C16.2813 11.4795 15.9457 11.7296 15.5418 11.9088C15.1379 12.088 14.6941 12.1776 14.2106 12.1776V12.1781Z" fill="white"/>
<path d="M12 17H6V18H12V17Z" fill="white"/>
</g>
<defs>
<linearGradient id="paint0_linear_4372_11285" x1="2.85797" y1="24.2692" x2="22.9678" y2="14.9454" gradientUnits="userSpaceOnUse">
<stop offset="0.1" stop-color="#00D886"/>
<stop offset="0.59" stop-color="#F0EB18"/>
</linearGradient>
<linearGradient id="paint1_linear_4372_11285" x1="22.507" y1="22.4166" x2="0.492439" y2="0.402109" gradientUnits="userSpaceOnUse">
<stop offset="0.3" stop-color="#F0EB18"/>
<stop offset="0.7" stop-color="#00C4F4"/>
</linearGradient>
<clipPath id="clip0_4372_11285">
<rect width="24" height="24" fill="white"/>
</clipPath>
</defs>
</svg>
