<svg width="16" height="16" viewBox="0 0 16 16" fill="none" xmlns="http://www.w3.org/2000/svg">
<path fill-rule="evenodd" clip-rule="evenodd" d="M15 8C15 11.866 11.866 15 8 15C4.134 15 1 11.866 1 8C1 4.134 4.134 1 8 1C11.866 1 15 4.134 15 8" fill="#F98B9E" fill-opacity="0.6"/>
<path d="M8.84919 5.85864L9.32494 5.04932C9.99996 5.39012 10.9968 6.33233 11 8.00786C10.9968 9.6834 9.99994 10.6253 9.32492 10.9661L8.84917 10.1568C9.505 9.74073 9.99744 9.09045 9.99996 8.00784C9.99744 6.92523 9.50502 6.2747 8.84919 5.85864Z" fill="#231F20" fill-opacity="0.7"/>
<path d="M7.15071 5.85923L6.67496 5.04991C5.99994 5.3907 5.00309 6.33292 4.99994 8.00845C5.00309 9.68398 5.99996 10.6259 6.67498 10.9667L7.15073 10.1574C6.4949 9.74132 6.00246 9.09104 5.99994 8.00843C6.00246 6.92582 6.49488 6.27529 7.15071 5.85923Z" fill="#231F20" fill-opacity="0.7"/>
</svg>
