<!-- Copyright 2000-2022 JetBrains s.r.o. and contributors. Use of this source code is governed by the Apache 2.0 license. -->
<svg width="85" height="12" viewBox="0 0 85 12" fill="none" xmlns="http://www.w3.org/2000/svg">
<path d="M1.55469 9H0.273438L3.15234 1H4.54688L7.42578 9H6.14453L3.88281 2.45312H3.82031L1.55469 9ZM1.76953 5.86719H5.92578V6.88281H1.76953V5.86719ZM8.4873 11.25V3H9.62793V3.97266H9.72559C9.79329 3.84766 9.89095 3.70312 10.0186 3.53906C10.1462 3.375 10.3232 3.23177 10.5498 3.10937C10.7764 2.98438 11.0758 2.92188 11.4482 2.92188C11.9326 2.92188 12.3649 3.04427 12.7451 3.28906C13.1253 3.53385 13.4235 3.88672 13.6396 4.34766C13.8584 4.80859 13.9678 5.36328 13.9678 6.01172C13.9678 6.66016 13.8597 7.21615 13.6436 7.67969C13.4274 8.14062 13.1305 8.49609 12.7529 8.74609C12.3753 8.99349 11.9443 9.11719 11.46 9.11719C11.0954 9.11719 10.7972 9.05599 10.5654 8.93359C10.3363 8.8112 10.1566 8.66797 10.0264 8.50391C9.89616 8.33984 9.7959 8.19401 9.72559 8.06641H9.65527V11.25H8.4873ZM9.63184 6C9.63184 6.42187 9.69303 6.79167 9.81543 7.10938C9.93783 7.42708 10.1149 7.67578 10.3467 7.85547C10.5785 8.03255 10.8623 8.12109 11.1982 8.12109C11.5472 8.12109 11.8389 8.02865 12.0732 7.84375C12.3076 7.65625 12.4847 7.40234 12.6045 7.08203C12.7269 6.76172 12.7881 6.40104 12.7881 6C12.7881 5.60417 12.7282 5.2487 12.6084 4.93359C12.4912 4.61849 12.3141 4.36979 12.0771 4.1875C11.8428 4.00521 11.5498 3.91406 11.1982 3.91406C10.8597 3.91406 10.5732 4.0013 10.3389 4.17578C10.1071 4.35026 9.93132 4.59375 9.81152 4.90625C9.69173 5.21875 9.63184 5.58333 9.63184 6ZM17.0225 9.13281C16.6423 9.13281 16.2985 9.0625 15.9912 8.92187C15.6839 8.77865 15.4404 8.57161 15.2607 8.30078C15.0837 8.02995 14.9951 7.69792 14.9951 7.30469C14.9951 6.96615 15.0602 6.6875 15.1904 6.46875C15.3206 6.25 15.4964 6.07682 15.7178 5.94922C15.9391 5.82161 16.1865 5.72526 16.46 5.66016C16.7334 5.59505 17.012 5.54557 17.2959 5.51172C17.6553 5.47005 17.9469 5.4362 18.1709 5.41016C18.3949 5.38151 18.5576 5.33594 18.6592 5.27344C18.7607 5.21094 18.8115 5.10937 18.8115 4.96875V4.94141C18.8115 4.60026 18.7152 4.33594 18.5225 4.14844C18.3324 3.96094 18.0485 3.86719 17.6709 3.86719C17.2777 3.86719 16.9678 3.95443 16.7412 4.12891C16.5173 4.30078 16.3623 4.49219 16.2764 4.70312L15.1787 4.45312C15.3089 4.08854 15.499 3.79427 15.749 3.57031C16.0016 3.34375 16.292 3.17969 16.6201 3.07812C16.9482 2.97396 17.2933 2.92188 17.6553 2.92188C17.8949 2.92188 18.1488 2.95052 18.417 3.00781C18.6878 3.0625 18.9404 3.16406 19.1748 3.3125C19.4118 3.46094 19.6058 3.67318 19.7568 3.94922C19.9079 4.22266 19.9834 4.57813 19.9834 5.01563V9H18.8428V8.17969H18.7959C18.7204 8.33073 18.6071 8.47917 18.4561 8.625C18.305 8.77083 18.111 8.89193 17.874 8.98828C17.637 9.08464 17.3532 9.13281 17.0225 9.13281ZM17.2764 8.19531C17.5993 8.19531 17.8753 8.13151 18.1045 8.00391C18.3363 7.8763 18.512 7.70964 18.6318 7.50391C18.7542 7.29557 18.8154 7.07292 18.8154 6.83594V6.0625C18.7738 6.10417 18.693 6.14323 18.5732 6.17969C18.4561 6.21354 18.3219 6.24349 18.1709 6.26953C18.0199 6.29297 17.8727 6.3151 17.7295 6.33594C17.5863 6.35417 17.4665 6.36979 17.3701 6.38281C17.1436 6.41146 16.9365 6.45964 16.749 6.52734C16.5641 6.59505 16.4157 6.69271 16.3037 6.82031C16.1943 6.94531 16.1396 7.11198 16.1396 7.32031C16.1396 7.60937 16.2464 7.82812 16.46 7.97656C16.6735 8.1224 16.9456 8.19531 17.2764 8.19531ZM24.0664 9.12109C23.4857 9.12109 22.9857 8.98958 22.5664 8.72656C22.1497 8.46094 21.8294 8.09505 21.6055 7.62891C21.3815 7.16276 21.2695 6.62891 21.2695 6.02734C21.2695 5.41797 21.3841 4.88021 21.6133 4.41406C21.8424 3.94531 22.1654 3.57943 22.582 3.31641C22.9987 3.05339 23.4896 2.92188 24.0547 2.92188C24.5104 2.92188 24.9167 3.00651 25.2734 3.17578C25.6302 3.34245 25.918 3.57682 26.1367 3.87891C26.3581 4.18099 26.4896 4.53385 26.5312 4.9375H25.3945C25.332 4.65625 25.1888 4.41406 24.9648 4.21094C24.7435 4.00781 24.4466 3.90625 24.0742 3.90625C23.7487 3.90625 23.4635 3.99219 23.2188 4.16406C22.9766 4.33333 22.7878 4.57552 22.6523 4.89062C22.5169 5.20312 22.4492 5.57292 22.4492 6C22.4492 6.4375 22.5156 6.8151 22.6484 7.13281C22.7813 7.45052 22.9688 7.69661 23.2109 7.87109C23.4557 8.04557 23.7435 8.13281 24.0742 8.13281C24.2956 8.13281 24.4961 8.09245 24.6758 8.01172C24.8581 7.92839 25.0104 7.8099 25.1328 7.65625C25.2578 7.5026 25.3451 7.31771 25.3945 7.10156H26.5312C26.4896 7.48958 26.3633 7.83594 26.1523 8.14062C25.9414 8.44531 25.6589 8.6849 25.3047 8.85937C24.9531 9.03385 24.5404 9.12109 24.0664 9.12109ZM28.9482 5.4375V9H27.7803V1H28.9326V3.97656H29.0068C29.1475 3.65365 29.3623 3.39714 29.6514 3.20703C29.9404 3.01693 30.318 2.92188 30.7842 2.92188C31.1956 2.92188 31.555 3.00651 31.8623 3.17578C32.1722 3.34505 32.4118 3.59766 32.5811 3.93359C32.7529 4.26693 32.8389 4.68359 32.8389 5.18359V9H31.6709V5.32422C31.6709 4.88411 31.5576 4.54297 31.3311 4.30078C31.1045 4.05599 30.7894 3.93359 30.3857 3.93359C30.1097 3.93359 29.8623 3.99219 29.6436 4.10937C29.4274 4.22656 29.2568 4.39844 29.1318 4.625C29.0094 4.84896 28.9482 5.11979 28.9482 5.4375ZM36.9834 9.12109C36.3923 9.12109 35.8831 8.99479 35.4561 8.74219C35.0316 8.48698 34.7035 8.12891 34.4717 7.66797C34.2425 7.20443 34.1279 6.66146 34.1279 6.03906C34.1279 5.42448 34.2425 4.88281 34.4717 4.41406C34.7035 3.94531 35.0264 3.57943 35.4404 3.31641C35.8571 3.05339 36.3441 2.92188 36.9014 2.92188C37.2399 2.92188 37.568 2.97786 37.8857 3.08984C38.2035 3.20182 38.4886 3.3776 38.7412 3.61719C38.9938 3.85677 39.193 4.16797 39.3389 4.55078C39.4847 4.93099 39.5576 5.39323 39.5576 5.9375V6.35156H34.7881V5.47656H38.4131C38.4131 5.16927 38.3506 4.89714 38.2256 4.66016C38.1006 4.42057 37.9248 4.23177 37.6982 4.09375C37.4743 3.95573 37.2113 3.88672 36.9092 3.88672C36.5811 3.88672 36.2946 3.96745 36.0498 4.12891C35.8076 4.28776 35.6201 4.49609 35.4873 4.75391C35.3571 5.00911 35.292 5.28646 35.292 5.58594V6.26953C35.292 6.67057 35.3623 7.01172 35.5029 7.29297C35.6462 7.57422 35.8454 7.78906 36.1006 7.9375C36.3558 8.08333 36.654 8.15625 36.9951 8.15625C37.2165 8.15625 37.4183 8.125 37.6006 8.0625C37.7829 7.9974 37.9404 7.90104 38.0732 7.77344C38.2061 7.64583 38.3076 7.48828 38.3779 7.30078L39.4834 7.5C39.3949 7.82552 39.236 8.11068 39.0068 8.35547C38.7803 8.59766 38.4951 8.78646 38.1514 8.92187C37.8102 9.05469 37.4209 9.12109 36.9834 9.12109ZM43.8584 9V1H46.71C47.3324 1 47.848 1.11328 48.2568 1.33984C48.6657 1.56641 48.9717 1.8763 49.1748 2.26953C49.3779 2.66016 49.4795 3.10026 49.4795 3.58984C49.4795 4.08203 49.3766 4.52474 49.1709 4.91797C48.9678 5.30859 48.6605 5.61849 48.249 5.84766C47.8402 6.07422 47.3258 6.1875 46.7061 6.1875H44.7451V5.16406H46.5967C46.9899 5.16406 47.3089 5.09635 47.5537 4.96094C47.7985 4.82292 47.9782 4.63542 48.0928 4.39844C48.2074 4.16146 48.2646 3.89193 48.2646 3.58984C48.2646 3.28776 48.2074 3.01953 48.0928 2.78516C47.9782 2.55078 47.7972 2.36719 47.5498 2.23438C47.305 2.10156 46.9821 2.03516 46.5811 2.03516H45.0654V9H43.8584ZM51.9688 5.4375V9H50.8008V1H51.9531V3.97656H52.0273C52.168 3.65365 52.3828 3.39714 52.6719 3.20703C52.9609 3.01693 53.3385 2.92188 53.8047 2.92188C54.2161 2.92188 54.5755 3.00651 54.8828 3.17578C55.1927 3.34505 55.4323 3.59766 55.6016 3.93359C55.7734 4.26693 55.8594 4.68359 55.8594 5.18359V9H54.6914V5.32422C54.6914 4.88411 54.5781 4.54297 54.3516 4.30078C54.125 4.05599 53.8099 3.93359 53.4063 3.93359C53.1302 3.93359 52.8828 3.99219 52.6641 4.10937C52.4479 4.22656 52.2773 4.39844 52.1523 4.625C52.0299 4.84896 51.9688 5.11979 51.9688 5.4375ZM59.9453 9.12109C59.3828 9.12109 58.8919 8.99219 58.4727 8.73437C58.0534 8.47656 57.7279 8.11589 57.4961 7.65234C57.2643 7.1888 57.1484 6.64714 57.1484 6.02734C57.1484 5.40495 57.2643 4.86068 57.4961 4.39453C57.7279 3.92839 58.0534 3.56641 58.4727 3.30859C58.8919 3.05078 59.3828 2.92188 59.9453 2.92188C60.5078 2.92188 60.9987 3.05078 61.418 3.30859C61.8372 3.56641 62.1628 3.92839 62.3945 4.39453C62.6263 4.86068 62.7422 5.40495 62.7422 6.02734C62.7422 6.64714 62.6263 7.1888 62.3945 7.65234C62.1628 8.11589 61.8372 8.47656 61.418 8.73437C60.9987 8.99219 60.5078 9.12109 59.9453 9.12109ZM59.9492 8.14062C60.3138 8.14062 60.6159 8.04427 60.8555 7.85156C61.0951 7.65885 61.2721 7.40234 61.3867 7.08203C61.5039 6.76172 61.5625 6.40885 61.5625 6.02344C61.5625 5.64062 61.5039 5.28906 61.3867 4.96875C61.2721 4.64583 61.0951 4.38672 60.8555 4.19141C60.6159 3.99609 60.3138 3.89844 59.9492 3.89844C59.582 3.89844 59.2773 3.99609 59.0352 4.19141C58.7956 4.38672 58.6172 4.64583 58.5 4.96875C58.3854 5.28906 58.3281 5.64062 58.3281 6.02344C58.3281 6.40885 58.3854 6.76172 58.5 7.08203C58.6172 7.40234 58.7956 7.65885 59.0352 7.85156C59.2773 8.04427 59.582 8.14062 59.9492 8.14062ZM66.6318 9.12109C66.0407 9.12109 65.5316 8.99479 65.1045 8.74219C64.68 8.48698 64.3519 8.12891 64.1201 7.66797C63.891 7.20443 63.7764 6.66146 63.7764 6.03906C63.7764 5.42448 63.891 4.88281 64.1201 4.41406C64.3519 3.94531 64.6748 3.57943 65.0889 3.31641C65.5055 3.05339 65.9925 2.92188 66.5498 2.92188C66.8883 2.92188 67.2165 2.97786 67.5342 3.08984C67.8519 3.20182 68.137 3.3776 68.3896 3.61719C68.6423 3.85677 68.8415 4.16797 68.9873 4.55078C69.1331 4.93099 69.2061 5.39323 69.2061 5.9375V6.35156H64.4365V5.47656H68.0615C68.0615 5.16927 67.999 4.89714 67.874 4.66016C67.749 4.42057 67.5732 4.23177 67.3467 4.09375C67.1227 3.95573 66.8597 3.88672 66.5576 3.88672C66.2295 3.88672 65.943 3.96745 65.6982 4.12891C65.4561 4.28776 65.2686 4.49609 65.1357 4.75391C65.0055 5.00911 64.9404 5.28646 64.9404 5.58594V6.26953C64.9404 6.67057 65.0107 7.01172 65.1514 7.29297C65.2946 7.57422 65.4938 7.78906 65.749 7.9375C66.0042 8.08333 66.3024 8.15625 66.6436 8.15625C66.8649 8.15625 67.0667 8.125 67.249 8.0625C67.4313 7.9974 67.5889 7.90104 67.7217 7.77344C67.8545 7.64583 67.9561 7.48828 68.0264 7.30078L69.1318 7.5C69.0433 7.82552 68.8844 8.11068 68.6553 8.35547C68.4287 8.59766 68.1436 8.78646 67.7998 8.92187C67.4587 9.05469 67.0693 9.12109 66.6318 9.12109ZM71.6699 5.4375V9H70.502V3H71.623V3.97656H71.6973C71.8353 3.65885 72.0514 3.40365 72.3457 3.21094C72.6426 3.01823 73.0163 2.92188 73.4668 2.92188C73.8757 2.92188 74.2337 3.00781 74.541 3.17969C74.8483 3.34896 75.0866 3.60156 75.2559 3.9375C75.4251 4.27344 75.5098 4.6888 75.5098 5.18359V9H74.3418V5.32422C74.3418 4.88932 74.2285 4.54948 74.002 4.30469C73.7754 4.05729 73.4642 3.93359 73.0684 3.93359C72.7975 3.93359 72.5566 3.99219 72.3457 4.10937C72.1374 4.22656 71.972 4.39844 71.8496 4.625C71.7298 4.84896 71.6699 5.11979 71.6699 5.4375ZM77.0762 9V3H78.2441V9H77.0762ZM77.666 2.07422C77.4629 2.07422 77.2884 2.00651 77.1426 1.87109C76.9993 1.73307 76.9277 1.56901 76.9277 1.37891C76.9277 1.1862 76.9993 1.02214 77.1426 0.886718C77.2884 0.748698 77.4629 0.679687 77.666 0.679687C77.8691 0.679687 78.0423 0.748698 78.1855 0.886718C78.3314 1.02214 78.4043 1.1862 78.4043 1.37891C78.4043 1.56901 78.3314 1.73307 78.1855 1.87109C78.0423 2.00651 77.8691 2.07422 77.666 2.07422ZM80.7373 3L82.0615 5.33594L83.3975 3H84.6748L82.8037 6L84.6904 9H83.4131L82.0615 6.75781L80.7139 9H79.4326L81.2998 6L79.4561 3H80.7373Z" fill="#818594"/>
</svg>
