<!-- Copyright 2000-2022 JetBrains s.r.o. and contributors. Use of this source code is governed by the Apache 2.0 license. -->
<svg width="16" height="16" viewBox="0 0 16 16" fill="none" xmlns="http://www.w3.org/2000/svg">
<path d="M4.45373 4.4388C4.45373 4.4388 3.7549 4.47759 3.39547 5.05799C3.83335 4.75027 4.45373 4.85306 4.45373 4.85306C4.45373 4.85306 4.86841 5.29077 4.98777 5.67124C5.3343 6.7758 3.42688 8.17201 3.34148 10.0583C3.21863 12.7713 5.61177 15 8.28129 15C10.9508 15 12.663 12.4026 12.663 10.2842C12.663 7.80064 11.5294 6.50559 11.4511 4.33385C11.4017 2.96288 11.928 1.90894 12.4635 1C10.725 1.62382 10.0637 3.49089 9.98872 4.07818C9.64658 6.75825 11.4511 8.33242 10.9241 11.139C10.6823 12.4266 9.53875 13.2905 8.35006 13.2905C6.57304 13.2905 5.14725 11.7379 5.14725 10.0583C5.14725 8.37865 6.26981 7.27918 6.76227 5.09411C7.33299 5.09411 7.39822 4.81038 7.39822 4.81038C7.39822 4.81038 7.23842 4.81038 7.16341 4.71906C7.52867 4.556 7.45366 4.22008 7.45366 4.22008C7.45366 4.22008 7.05904 4.34727 6.54023 4.26242C6.54023 4.26242 6.0021 3.77709 5.34643 3.83313C4.73341 3.88553 4.45373 4.4388 4.45373 4.4388Z" fill="url(#paint0_linear_1228_29879)"/>
<path d="M8.59932 4.84019C8.59932 3.0346 10.1772 1.68262 10.1772 1.68262C10.1772 1.68262 9.42232 3.74984 9.56588 5.13552C9.67429 6.18188 10.0645 6.77814 10.3848 7.78014C10.9083 9.41793 10.3848 11.2437 10.3848 11.2437C10.3848 11.2437 10.519 9.31053 9.83437 7.96137C9.2568 6.82322 8.59932 6.30358 8.59932 4.84019Z" fill="url(#paint1_linear_1228_29879)"/>
<path d="M7.41917 8.96465C6.72463 8.17661 7.15386 5.64091 7.15386 5.64091C7.15386 5.64091 7.05944 6.91617 7.5914 7.78748C7.9324 8.34601 8.44301 8.63312 8.94435 9.31123C9.68347 10.3109 10.1157 11.6841 10.1157 11.6841C10.1157 11.6841 9.66624 10.7073 8.90499 10.1845C8.17172 9.68092 7.89609 9.50578 7.41917 8.96465Z" fill="url(#paint2_linear_1228_29879)"/>
<path d="M7.71288 7.12495C7.04379 5.07404 8.59997 2.83368 8.59997 2.83368C8.59997 2.83368 7.93025 4.01813 8.32379 5.88131C8.55137 6.95876 9.0411 7.24406 9.48742 8.1795C10.3599 10.0082 10.222 11.3431 10.222 11.3431C10.222 11.3431 9.90197 10.1868 9.1747 9.16131C8.62296 8.38336 8.03108 8.10032 7.71288 7.12495Z" fill="url(#paint3_linear_1228_29879)"/>
<defs>
<linearGradient id="paint0_linear_1228_29879" x1="3.33694" y1="8" x2="12.663" y2="8" gradientUnits="userSpaceOnUse">
<stop stop-color="#FF9A34"/>
<stop offset="1" stop-color="#EA222E"/>
</linearGradient>
<linearGradient id="paint1_linear_1228_29879" x1="7.02271" y1="1.68262" x2="10.6175" y2="11.6841" gradientUnits="userSpaceOnUse">
<stop stop-color="#FF9235"/>
<stop offset="0.448952" stop-color="#EC3D2E"/>
<stop offset="0.537713" stop-color="#ED402F"/>
<stop offset="1" stop-color="#FE9133"/>
</linearGradient>
<linearGradient id="paint2_linear_1228_29879" x1="7.02271" y1="1.68262" x2="10.6175" y2="11.6841" gradientUnits="userSpaceOnUse">
<stop stop-color="#FF9235"/>
<stop offset="0.448952" stop-color="#EC3D2E"/>
<stop offset="0.537713" stop-color="#ED402F"/>
<stop offset="1" stop-color="#FE9133"/>
</linearGradient>
<linearGradient id="paint3_linear_1228_29879" x1="7.02271" y1="1.68262" x2="10.6175" y2="11.6841" gradientUnits="userSpaceOnUse">
<stop stop-color="#FF9235"/>
<stop offset="0.448952" stop-color="#EC3D2E"/>
<stop offset="0.537713" stop-color="#ED402F"/>
<stop offset="1" stop-color="#FE9133"/>
</linearGradient>
</defs>
</svg>
