<!-- Copyright 2000-2022 JetBrains s.r.o. and contributors. Use of this source code is governed by the Apache 2.0 license. -->
<svg width="16" height="16" viewBox="0 0 16 16" fill="none" xmlns="http://www.w3.org/2000/svg">
<path d="M3.89729 2.03747L0.737569 7.45414C0.540805 7.79145 0.540805 8.20855 0.737569 8.54586L3.89729 13.9625C4.09144 14.2953 4.44775 14.5 4.83305 14.5H11.1719C11.5572 14.5 11.9135 14.2953 12.1077 13.9625L15.2674 8.54586C15.4642 8.20855 15.4642 7.79145 15.2674 7.45414L12.1077 2.03747C11.9135 1.70465 11.5572 1.5 11.1719 1.5H4.83305C4.44775 1.5 4.09144 1.70465 3.89729 2.03747Z" fill="#4485F9"/>
<path d="M14.2031 10.3704L9.91756 6.08494C8.85989 5.02727 7.14507 5.02727 6.0874 6.08494C5.02973 7.14261 5.02973 8.85743 6.0874 9.9151L10.6723 14.5H11.1719C11.5572 14.5 11.9135 14.2954 12.1077 13.9625L14.2031 10.3704Z" fill="#417BDC"/>
<path d="M8.32752 9.59251C8.22251 9.61383 8.11383 9.62502 8.00253 9.62502C7.89122 9.62502 7.78253 9.61383 7.67752 9.59251V7.18329H8.32752V9.59251Z" fill="#FFFEFF"/>
<path d="M7.24113 9.43597V7.86037H6.59113V8.80592C6.74364 9.07244 6.96947 9.29162 7.24113 9.43597Z" fill="#FFFEFF"/>
<path d="M8.76085 9.4376C9.03206 9.29424 9.25781 9.07638 9.41085 8.81127V8.1439H8.76085V9.4376Z" fill="#FFFEFF"/>
<path fill-rule="evenodd" clip-rule="evenodd" d="M10.1337 9.67154C10.4952 9.21119 10.7109 8.63079 10.7109 8.00002C10.7109 6.50425 9.49829 5.29169 8.00252 5.29169C6.50675 5.29169 5.29419 6.50425 5.29419 8.00002C5.29419 9.49579 6.50675 10.7084 8.00252 10.7084C8.63329 10.7084 9.21369 10.4927 9.67404 10.1312L10.6368 11.0939C10.7214 11.1785 10.8586 11.1785 10.9432 11.0939L11.0964 10.9407C11.181 10.8561 11.181 10.7189 11.0964 10.6343L10.1337 9.67154ZM8.00252 10.0584C9.13931 10.0584 10.0609 9.13681 10.0609 8.00002C10.0609 6.86323 9.13931 5.94169 8.00252 5.94169C6.86574 5.94169 5.94419 6.86323 5.94419 8.00002C5.94419 9.13681 6.86574 10.0584 8.00252 10.0584Z" fill="#FFFEFF"/>
</svg>
