<!-- Copyright 2000-2022 JetBrains s.r.o. and contributors. Use of this source code is governed by the Apache 2.0 license. -->
<svg width="16" height="16" viewBox="0 0 16 16" fill="none" xmlns="http://www.w3.org/2000/svg">
<g opacity="0.8">
<path d="M3.27887 6.69762C2.91311 7.09203 2.71746 7.52865 2.74264 7.9772C2.78616 8.7756 3.51918 9.44484 4.63955 9.8535C4.92428 9.9355 5.21117 10.0103 5.50159 10.0725C5.69131 10.113 5.88216 10.1456 6.07302 10.1726C6.25392 10.1992 6.43563 10.2177 6.61815 10.2363L6.72102 10.2469C7.02045 10.2761 7.31988 10.2728 7.62045 10.2626C7.80057 10.2571 7.97958 10.2382 8.15968 10.2193L8.16445 10.2188C8.83874 10.1501 9.49931 9.99939 10.1393 9.75526C10.6216 9.57189 11.0799 9.33226 11.505 9.02176C11.8582 8.76526 12.1736 8.46376 12.449 8.11051C12.628 7.88008 12.7836 7.6322 12.916 7.36794C12.9157 7.34942 12.9151 7.33088 12.9141 7.31232C12.8972 7.00789 12.7802 6.72224 12.5797 6.46265C12.5192 6.42815 12.4584 6.39388 12.3974 6.36012C11.7048 5.97874 10.9871 5.67499 10.2248 5.50962C9.93454 5.44662 9.63969 5.40274 9.34597 5.36224C9.13797 5.33412 8.92883 5.31612 8.71969 5.30712C8.4054 5.29474 8.09111 5.28912 7.77683 5.29024C7.58254 5.29137 7.38826 5.30487 7.19511 5.32512C6.92311 5.35212 6.65111 5.38249 6.38026 5.42524C5.79969 5.51974 5.22826 5.66487 4.69226 5.92924C4.31626 6.11487 3.94254 6.31062 3.57797 6.51649C3.47659 6.57387 3.37701 6.63447 3.27887 6.69762Z" fill="#BBE6FB"/>
<path d="M12.4695 8.48727C12.4739 8.47592 12.4817 8.46631 12.4933 8.4584C12.4855 8.46805 12.4776 8.47767 12.4695 8.48727Z" fill="#BBE6FB"/>
</g>
<path opacity="0.8" d="M4.31229 6.1208C4.27653 6.33793 4.25864 6.54586 4.26051 6.66783C4.29594 8.64895 5.80337 10.0496 7.62851 10.0496C9.45365 10.0496 10.8959 8.45095 10.8617 6.46758C10.8579 6.23369 10.8279 5.9284 10.7184 5.63723C10.5559 5.5885 10.3914 5.54576 10.2248 5.50962C9.93454 5.44662 9.63969 5.40274 9.34597 5.36224C9.13797 5.33412 8.92883 5.31612 8.71969 5.30712C8.4054 5.29474 8.09111 5.28912 7.77683 5.29024C7.58254 5.29137 7.38826 5.30487 7.19511 5.32512C6.92311 5.35212 6.65111 5.38249 6.38026 5.42524C5.79969 5.51974 5.22826 5.66487 4.69226 5.92924C4.56525 5.99194 4.43851 6.05579 4.31229 6.1208Z" fill="#D3EFFC"/>
<path d="M5.1584 5.73073C4.96987 5.83545 4.86361 6.37985 4.86818 6.62844C4.8979 8.19781 6.12761 9.47019 7.61561 9.47019C9.1059 9.47019 10.283 8.08307 10.2545 6.51369C10.2482 6.15391 10.1618 5.67992 9.6747 5.40977C9.56516 5.39291 9.45549 5.37734 9.34597 5.36224C9.13797 5.33412 8.92883 5.31612 8.71969 5.30712C8.4054 5.29474 8.09111 5.28912 7.77683 5.29024C7.58254 5.29137 7.38826 5.30487 7.19511 5.32512C6.92311 5.35212 6.65111 5.38249 6.38026 5.42524C5.96509 5.49282 5.5546 5.58628 5.1584 5.73073Z" fill="#1287B1"/>
<path fill-rule="evenodd" clip-rule="evenodd" d="M8.31078 6.87003L8.62154 6.29018L8.62247 6.96226L9.11505 6.55499L8.8785 7.17594L9.47776 7.00427L9.03991 7.48094L9.65309 7.57134L9.08259 7.82885L9.61599 8.16763L8.99817 8.16854L9.37294 8.70274L8.80058 8.44706L8.95828 9.09631L8.52043 8.62147L8.43694 9.28716L8.19946 8.66713L7.88777 9.2479L7.88684 8.57581L7.39519 8.98217L7.63081 8.36122L7.03247 8.53198L7.4694 8.05714L6.85715 7.96582L7.42765 7.70831L6.89333 7.37044L7.51207 7.36953L7.1373 6.83442L7.70966 7.09102L7.55196 6.44085L7.98888 6.91569L8.07237 6.25L8.31078 6.87003Z" fill="white"/>
<path d="M13.3334 6.044C13.8774 5.55575 14.2271 4.93138 14.49 4.2395L14.4874 4.24193C14.4849 4.24417 14.4825 4.24628 14.4808 4.24963C14.4383 4.31302 14.3962 4.377 14.3541 4.44104C14.2797 4.55428 14.2051 4.66771 14.1277 4.77838C13.8968 5.10688 13.6523 5.42075 13.3585 5.684C13.2557 5.77513 13.146 5.85725 13.0214 5.91125C12.9871 5.92636 12.9514 5.93585 12.9159 5.94528C12.9065 5.94778 12.897 5.95028 12.8877 5.95288C12.8858 5.95099 12.8847 5.94753 12.8837 5.94447L12.8831 5.94275C13.1128 5.71775 13.3083 5.46238 13.4763 5.18225C13.6443 4.90325 13.7837 4.6085 13.8968 4.28563C13.891 4.29327 13.8874 4.29766 13.8849 4.30065C13.883 4.30295 13.8808 4.30588 13.8808 4.30588C13.6557 4.64113 13.4157 4.96288 13.1311 5.243C12.9951 5.37575 12.8534 5.49613 12.69 5.58613C12.6123 5.62775 12.5323 5.66263 12.4363 5.67275C12.4428 5.66633 12.4465 5.66218 12.4493 5.65913C12.4509 5.65737 12.4534 5.65475 12.4534 5.65475C12.6191 5.48938 12.778 5.315 12.9208 5.12488C13.066 4.93138 13.1928 4.72775 13.2774 4.49375C13.2922 4.45411 13.304 4.41272 13.3159 4.37126C13.3205 4.35507 13.3252 4.33887 13.33 4.32275C13.3128 4.32838 13.3037 4.33738 13.2957 4.3475C13.0797 4.6445 12.8465 4.92575 12.594 5.19013C12.45 5.34088 12.2991 5.4815 12.1288 5.59738C12.0328 5.66375 11.9323 5.71775 11.818 5.738C11.762 5.74813 11.7094 5.7425 11.6568 5.70988C11.842 5.486 12.0077 5.252 12.1608 5.00788C12.3128 4.76375 12.4534 4.51288 12.5734 4.24963C12.5643 4.25413 12.5597 4.25863 12.554 4.26425C12.5088 4.32409 12.464 4.38406 12.4193 4.44393C12.3363 4.55516 12.2535 4.66603 12.1688 4.775C12.0271 4.95613 11.8763 5.12713 11.7048 5.27563C11.6351 5.33638 11.5608 5.39263 11.4728 5.41963C11.4168 5.43538 11.3631 5.42525 11.3231 5.3825C11.2924 5.34867 11.3053 5.31132 11.3177 5.27547C11.3209 5.26601 11.3242 5.25666 11.3265 5.2475C11.3288 5.2385 11.3334 5.2295 11.338 5.22163C11.3544 5.19175 11.3708 5.16188 11.3872 5.13203C11.4287 5.05622 11.4702 4.98057 11.5128 4.9055C11.5355 4.86589 11.5612 4.8287 11.5895 4.78772C11.5998 4.77283 11.6104 4.75744 11.6214 4.74125C11.5933 4.76434 11.5662 4.78695 11.5397 4.80907C11.4744 4.86348 11.4128 4.91488 11.3494 4.96288C11.2454 5.04163 11.1391 5.11813 11.0145 5.15525C10.9688 5.16875 10.9231 5.17438 10.8831 5.14625C11.189 4.85629 11.3953 4.49011 11.6014 4.12431C11.6248 4.08279 11.6482 4.04127 11.6717 3.99988C11.6187 4.05748 11.5673 4.11657 11.5162 4.17534C11.5044 4.18888 11.4926 4.2024 11.4808 4.21588C11.274 4.4555 11.0603 4.6895 10.8214 4.89313C10.7323 4.9685 10.6408 5.04388 10.5277 5.07425C10.5093 5.07952 10.489 5.07825 10.4662 5.07682C10.4549 5.07612 10.443 5.07538 10.4305 5.07538C10.4971 4.92806 10.5625 4.78392 10.6272 4.64128C10.696 4.48982 10.764 4.34006 10.8317 4.19C10.7986 4.23372 10.767 4.27828 10.7356 4.32268C10.6942 4.38111 10.653 4.43927 10.6088 4.49488C10.4785 4.65575 10.33 4.79188 10.1403 4.86613C10.0225 4.91113 9.90254 4.9235 9.77797 4.88413C9.7916 4.86301 9.80523 4.84218 9.81876 4.82149C9.85857 4.76063 9.89758 4.70101 9.9334 4.63888C9.9814 4.55675 10.026 4.47238 10.0683 4.38575C10.0961 4.32708 10.1211 4.26678 10.1476 4.20295C10.1593 4.17499 10.1712 4.14635 10.1837 4.11688C10.1552 4.15158 10.1283 4.18545 10.1021 4.2185C10.0535 4.27972 10.0071 4.3381 9.9574 4.39363C9.84654 4.52075 9.7174 4.62538 9.56769 4.694C9.41111 4.76713 9.24883 4.78738 9.08426 4.72775C9.0294 4.70638 9.00997 4.676 9.03169 4.6175C9.05111 4.56125 9.0774 4.50838 9.10483 4.45663C9.12045 4.42855 9.13768 4.40246 9.15486 4.37646C9.16658 4.35871 9.17827 4.34101 9.1894 4.32275C9.16405 4.34129 9.14053 4.36119 9.1171 4.38101C9.10357 4.39246 9.09007 4.40388 9.07626 4.415C8.94026 4.523 8.79969 4.62538 8.62483 4.65013C8.52654 4.66475 8.41797 4.6265 8.41683 4.48588C8.41569 4.4375 8.42026 4.38688 8.43169 4.33963C8.44296 4.29525 8.4567 4.25232 8.47161 4.20574C8.47938 4.18148 8.48747 4.15622 8.49569 4.12925L8.47511 4.15963C8.44476 4.20612 8.41489 4.25285 8.38507 4.2995C8.32396 4.3951 8.26306 4.49039 8.19854 4.58263C8.13569 4.67038 8.06483 4.75025 7.99169 4.82788C7.95511 4.86838 7.92997 4.85375 7.91626 4.79975C7.89814 4.72655 7.91105 4.65492 7.92378 4.5842C7.92631 4.57014 7.92884 4.55612 7.93111 4.54213C7.94059 4.48073 7.95333 4.42041 7.96672 4.35709C7.9727 4.32874 7.97882 4.29979 7.98483 4.26988C7.97226 4.29013 7.96426 4.3025 7.95626 4.31375C7.93111 4.3487 7.9062 4.38387 7.88127 4.41905C7.80991 4.51979 7.73848 4.62062 7.6614 4.7165C7.61683 4.77275 7.55626 4.81775 7.49454 4.85263C7.41911 4.89425 7.3574 4.8605 7.34254 4.77163C7.33111 4.703 7.33226 4.631 7.33683 4.56013C7.34066 4.51408 7.34964 4.46753 7.35859 4.42115C7.36298 4.39841 7.36735 4.37571 7.37111 4.35313C7.35753 4.38162 7.34547 4.41101 7.33336 4.44052C7.32204 4.46812 7.31067 4.49582 7.29797 4.523C7.29401 4.53164 7.29007 4.54029 7.28613 4.54894C7.24236 4.64509 7.19861 4.74119 7.12311 4.8155C7.07054 4.86613 7.02369 4.86838 6.97683 4.81325C6.94254 4.77163 6.91054 4.71988 6.89226 4.667C6.87106 4.60922 6.85684 4.54799 6.84296 4.48824C6.83739 4.46423 6.83187 4.44047 6.82597 4.41725C6.82483 4.42475 6.82381 4.43275 6.82276 4.44108C6.82064 4.45775 6.81835 4.47575 6.81454 4.49375C6.79283 4.62313 6.76083 4.74913 6.69683 4.86388C6.65797 4.92913 6.60883 4.98088 6.53683 4.99775C6.47969 5.01125 6.42254 5.02439 6.3654 5.03753C6.27969 5.05724 6.19397 5.07695 6.10826 5.09788C5.50026 5.24638 4.9094 5.45563 4.33683 5.7245C3.7254 6.0125 3.14483 6.36688 2.59169 6.77075C2.27511 7.0025 1.96426 7.2455 1.6694 7.50988C1.43854 7.71575 1.20997 7.92163 0.985972 8.1365C0.849212 8.26799 0.716325 8.40439 0.583461 8.54076C0.525353 8.6004 0.46725 8.66003 0.408829 8.71925C0.39083 8.73754 0.373422 8.75583 0.356154 8.77397C0.339431 8.79154 0.32284 8.80897 0.305972 8.82613C0.2894 8.84413 0.272829 8.86241 0.256258 8.88069C0.239686 8.89897 0.223115 8.91725 0.206543 8.93525C0.225972 8.93413 0.239686 8.92625 0.254543 8.91725C0.567686 8.7305 0.871686 8.52688 1.16426 8.30188C1.40462 8.11682 1.64381 7.92904 1.88296 7.74129C2.05089 7.60945 2.21881 7.47762 2.38711 7.34675C2.76997 7.04638 3.15854 6.75388 3.57797 6.5165C3.94254 6.31063 4.31626 6.11488 4.69226 5.92925C5.22826 5.66488 5.79969 5.51975 6.38026 5.42525C6.65111 5.3825 6.92311 5.35213 7.19511 5.32513C7.38826 5.30488 7.58254 5.29138 7.77683 5.29025C8.09111 5.28913 8.4054 5.29475 8.71969 5.30713C8.92883 5.31613 9.13797 5.33413 9.34597 5.36225C9.63969 5.40275 9.93454 5.44663 10.2248 5.50963C10.9871 5.675 11.7048 5.97875 12.3974 6.36013C12.5129 6.42401 12.6272 6.48968 12.7415 6.55535C12.8829 6.63656 13.0242 6.71775 13.1677 6.7955C13.2534 6.84163 13.3483 6.88438 13.4431 6.899C13.6511 6.93163 13.8591 6.899 14.0625 6.85175C14.522 6.74713 14.9243 6.512 15.2888 6.197C15.4854 6.02825 15.6625 5.837 15.8271 5.63C15.8744 5.57115 15.9182 5.51024 15.9624 5.44888C15.9747 5.43165 15.9872 5.41439 15.9997 5.39713C15.9848 5.39825 15.9757 5.40725 15.9677 5.41625C15.8191 5.58275 15.6614 5.74138 15.49 5.87975C15.2408 6.08 14.9803 6.2555 14.6637 6.29825C14.5528 6.314 14.4431 6.3005 14.3345 6.2555C14.8294 5.90788 15.1608 5.41063 15.4534 4.87513C15.4431 4.87738 15.4363 4.883 15.4305 4.88975C15.2043 5.12488 14.9665 5.34763 14.7071 5.54113C14.37 5.792 14.0203 6.017 13.5997 6.06313C13.5117 6.07325 13.4248 6.06425 13.3334 6.044Z" fill="#DFE1E6"/>
<path d="M10.7205 10.2178C10.6883 10.1335 10.6556 10.0481 10.6227 9.96115C10.6352 9.95799 10.6476 9.95448 10.66 9.95099C10.6917 9.94204 10.7229 9.9332 10.7542 9.93077C10.841 9.92515 10.9199 9.96227 10.9953 10.005C11.1473 10.0928 11.2753 10.2165 11.3976 10.347C11.6787 10.6451 11.9187 10.9804 12.1484 11.3258C12.1882 11.3852 12.2268 11.4446 12.2653 11.504C12.291 11.5436 12.3167 11.5832 12.3427 11.6228C12.3462 11.6126 12.3439 11.607 12.3404 11.6014C12.3038 11.5306 12.2669 11.4598 12.2301 11.3891C12.1417 11.2194 12.0534 11.0499 11.9679 10.8791C11.8045 10.5551 11.6445 10.2311 11.5199 9.88802C11.4856 9.79015 11.4582 9.68777 11.4422 9.5854C11.4284 9.50552 11.4764 9.46727 11.5496 9.48977C11.5964 9.5044 11.6444 9.52465 11.6867 9.55165C11.8479 9.65515 11.985 9.79127 12.121 9.93077C12.1637 9.97503 12.2053 10.0213 12.247 10.0675C12.2678 10.0907 12.2886 10.1138 12.3096 10.1366C12.313 10.1254 12.3107 10.1198 12.3073 10.1141C12.2785 10.0639 12.2492 10.0141 12.22 9.96436C12.1576 9.8583 12.0955 9.75266 12.0387 9.6439C12.0049 9.57902 11.9835 9.50765 11.9622 9.43672C11.9569 9.41909 11.9516 9.40149 11.9462 9.38402C11.9404 9.3649 11.9507 9.33115 11.9656 9.31652C11.9722 9.30821 11.9926 9.31355 12.0105 9.31822C12.0144 9.31923 12.0181 9.32022 12.0216 9.32102C12.0307 9.32327 12.041 9.3289 12.0502 9.33565C12.0691 9.35107 12.0881 9.36612 12.1071 9.38112C12.1545 9.41865 12.2015 9.45585 12.2456 9.49765C12.5633 9.79722 12.8559 10.1259 13.149 10.4552L13.1679 10.4764C13.2257 10.541 13.2829 10.606 13.34 10.6709C13.3664 10.701 13.3929 10.7311 13.4193 10.761C13.4227 10.752 13.4204 10.7464 13.417 10.7419C13.3823 10.6933 13.3472 10.6448 13.3122 10.5963C13.2458 10.5045 13.1792 10.4124 13.1142 10.3189C12.9382 10.068 12.7679 9.81152 12.6227 9.53815C12.561 9.4234 12.5039 9.30752 12.4787 9.1759C12.4616 9.09152 12.4947 9.03977 12.5736 9.0319C12.6102 9.02852 12.6479 9.03077 12.6844 9.03865C12.7964 9.06115 12.8993 9.11402 12.9987 9.1714L13.1462 9.2569C13.1289 9.23776 13.1093 9.22085 13.0901 9.20421C13.0788 9.19444 13.0676 9.18476 13.057 9.17477C13.0303 9.1503 13.0035 9.12587 12.9768 9.10144C12.8559 8.99106 12.7349 8.88061 12.617 8.7664C12.5553 8.70902 12.5027 8.6404 12.473 8.55377C12.4559 8.50202 12.4662 8.46715 12.513 8.44802C12.5519 8.4334 12.5953 8.42102 12.6376 8.41652C12.7553 8.40415 12.8719 8.43002 12.985 8.46602C13.2684 8.55377 13.5313 8.69552 13.7896 8.84515C13.8206 8.86248 13.8507 8.88109 13.8829 8.90099C13.9029 8.91338 13.9238 8.92627 13.9462 8.93965C13.9422 8.9329 13.9399 8.9284 13.9383 8.9253C13.9367 8.92221 13.9347 8.9194 13.9347 8.9194C13.9036 8.88635 13.8723 8.85349 13.8411 8.82066C13.7405 8.7149 13.6401 8.60939 13.545 8.49865C13.497 8.44352 13.4627 8.3704 13.4353 8.29952C13.4124 8.24327 13.4467 8.20615 13.5016 8.22415C13.5622 8.24552 13.625 8.26915 13.6822 8.30065C13.9347 8.4469 14.1702 8.62577 14.4056 8.80465C14.4719 8.85527 14.5393 8.90702 14.6044 8.95877C14.5573 8.90783 14.5065 8.86039 14.4556 8.81278C14.4301 8.78889 14.4045 8.76496 14.3793 8.74052C14.3616 8.72305 14.3438 8.70558 14.326 8.6881C14.1482 8.51315 13.97 8.33779 13.7964 8.15777C13.7416 8.10152 13.697 8.0284 13.6559 7.95752C13.6227 7.9024 13.6456 7.8574 13.705 7.84615C13.7416 7.83827 13.7816 7.83265 13.817 7.83715C13.9313 7.85402 14.0444 7.8709 14.1576 7.89565C14.2305 7.91249 14.3034 7.93315 14.3767 7.9539C14.4159 7.96503 14.4553 7.97617 14.4947 7.98677C14.4833 7.97665 14.4707 7.9699 14.4582 7.96427C14.3896 7.92518 14.3208 7.88637 14.252 7.84755C14.0812 7.75116 13.9102 7.65469 13.7416 7.55365C13.6727 7.51297 13.6103 7.45888 13.5486 7.40534C13.5283 7.3878 13.5082 7.37033 13.4879 7.3534C13.4753 7.34215 13.4662 7.31177 13.4719 7.29827C13.4776 7.28477 13.5039 7.27127 13.5199 7.27465C13.529 7.27614 13.5381 7.27762 13.5473 7.27911C13.6211 7.29104 13.6966 7.30326 13.7667 7.32527C13.8535 7.3535 13.9398 7.3869 14.0295 7.42162C14.072 7.43809 14.1154 7.45487 14.1599 7.47152C14.1349 7.45276 14.1115 7.43462 14.0889 7.41715C14.0506 7.38749 14.0149 7.35976 13.9782 7.33427C13.7804 7.19702 13.5782 7.06877 13.3382 7.04177C13.2227 7.03052 13.1164 7.05302 13.0376 7.14977C12.9984 7.19937 12.9699 7.25798 12.9414 7.31639C12.9351 7.32952 12.9287 7.34264 12.9222 7.35565C12.7884 7.62452 12.6307 7.87652 12.449 8.11052C12.1736 8.46377 11.8582 8.76527 11.505 9.02177C11.0799 9.33227 10.6216 9.5719 10.1393 9.75527C9.49931 9.9994 8.83874 10.1501 8.16445 10.2188L8.15968 10.2193C7.97958 10.2382 7.80057 10.2571 7.62045 10.2626C7.31988 10.2728 7.02045 10.2761 6.72102 10.2469C6.6867 10.2433 6.65241 10.2398 6.61815 10.2363C6.43563 10.2177 6.25392 10.1992 6.07302 10.1726C5.88216 10.1456 5.69131 10.113 5.50159 10.0725C5.03416 9.9724 4.57588 9.83965 4.12102 9.69677C3.84559 9.61015 3.56788 9.5494 3.28331 9.53252C3.08674 9.52127 2.88902 9.52352 2.69245 9.53027C2.56293 9.5354 2.43292 9.54674 2.30305 9.55806C2.23354 9.56412 2.16407 9.57017 2.09474 9.57527C2.03401 9.57993 1.97328 9.58538 1.91256 9.59083C1.78243 9.60251 1.65229 9.61419 1.52216 9.61802C1.29016 9.6259 1.05702 9.62927 0.823878 9.59552C0.621592 9.56627 0.422735 9.51902 0.230735 9.44252C0.186174 9.42419 0.141226 9.40434 0.0963415 9.38451C0.0640986 9.37026 0.0318884 9.35604 -0.00012207 9.3424C0.138164 9.46615 0.286735 9.5674 0.453592 9.6394C0.678735 9.7384 0.915306 9.78902 1.15759 9.81152C1.39188 9.83515 1.62616 9.83965 1.86045 9.83402C1.87666 9.83364 1.89287 9.83326 1.90909 9.83288C2.27925 9.82412 2.65028 9.81534 3.01816 9.87677C3.09389 9.88993 3.16744 9.91803 3.242 9.94653L3.24788 9.94877C3.29245 9.96677 3.31988 10.0095 3.30959 10.0635C3.29588 10.1231 3.28102 10.1828 3.25588 10.2356C3.15988 10.428 3.02616 10.59 2.89131 10.7498C2.85031 10.7991 2.80831 10.8469 2.7653 10.8959C2.74356 10.9207 2.72156 10.9457 2.69931 10.9714C2.70441 10.9701 2.70774 10.9699 2.70988 10.9698L2.71302 10.9691C2.75619 10.9331 2.79912 10.8966 2.84208 10.86C2.93448 10.7814 3.02699 10.7028 3.12216 10.6283C3.34845 10.4505 3.57816 10.275 3.83531 10.1501C3.90845 10.1141 3.98845 10.0894 4.06845 10.0703C4.15874 10.0466 4.23988 10.0984 4.25131 10.1839C4.25702 10.2368 4.25702 10.293 4.24674 10.3448C4.21277 10.5298 4.12943 10.6916 4.04564 10.8544L4.04331 10.8589C4.01368 10.9162 3.9815 10.9728 3.94897 11.0299C3.94385 11.0389 3.93872 11.0479 3.93359 11.0569L3.94159 11.0636C3.94492 11.0599 3.94806 11.0558 3.95124 11.0516C3.9557 11.0457 3.96026 11.0396 3.96559 11.0344C4.00175 10.9924 4.03765 10.9501 4.07355 10.9078C4.16928 10.795 4.26502 10.6823 4.36559 10.5743C4.49473 10.4381 4.63988 10.3256 4.81702 10.2694C4.98959 10.2154 5.15416 10.2188 5.29359 10.3538C5.44788 10.5023 5.46845 10.5349 5.38045 10.7396C5.28701 10.9574 5.1542 11.1484 5.02187 11.3387C5.01339 11.3509 5.00492 11.3631 4.99645 11.3753C4.95988 11.4259 4.92331 11.4765 4.88559 11.5283C4.89816 11.526 4.90616 11.5193 4.91302 11.5125C4.9909 11.4389 5.06864 11.3647 5.14643 11.2905C5.30153 11.1426 5.4568 10.9945 5.61359 10.8499C5.70273 10.7678 5.79874 10.689 5.91074 10.644C5.97359 10.6193 6.01131 10.6373 6.02845 10.7059C6.04331 10.7588 6.05359 10.815 6.05474 10.8701C6.05816 11.0569 6.03645 11.2425 6.00788 11.4259C6.00188 11.4596 5.99781 11.4934 5.99373 11.5271C5.99238 11.5384 5.99102 11.5496 5.98959 11.5609C6.00216 11.5474 6.00902 11.5328 6.01474 11.5193C6.0184 11.5106 6.02206 11.5019 6.02572 11.4933C6.12374 11.2611 6.22188 11.0287 6.35188 10.8161C6.39181 10.7513 6.44193 10.6946 6.49166 10.6382C6.49459 10.6349 6.49752 10.6316 6.50045 10.6283C6.51188 10.6136 6.54388 10.6035 6.55759 10.6114C6.57131 10.6193 6.58045 10.6508 6.58159 10.6721C6.5859 10.795 6.55473 10.912 6.5234 11.0295C6.52146 11.0367 6.51952 11.044 6.51759 11.0513C6.39187 11.524 6.22799 11.9812 6.06377 12.4394L6.05931 12.4519C6.02963 12.5328 5.99984 12.614 5.97016 12.696C5.98616 12.6825 5.99645 12.6645 6.00559 12.6476C6.27302 12.1268 6.54388 11.607 6.84331 11.1075C6.93131 10.9613 7.02845 10.8218 7.12902 10.6856C7.18502 10.6103 7.24559 10.6114 7.31416 10.6744C7.38616 10.7374 7.42845 10.8251 7.46502 10.914C7.55645 11.13 7.61473 11.3573 7.66616 11.5879C7.67961 11.6468 7.69147 11.7057 7.70337 11.7648C7.71171 11.8062 7.72008 11.8477 7.72902 11.8894C7.72559 11.751 7.71645 11.6149 7.70616 11.4788C7.69245 11.2605 7.68102 11.0445 7.70845 10.8285C7.70941 10.8215 7.71028 10.8143 7.71117 10.8071C7.71769 10.7536 7.72476 10.6956 7.76902 10.6699C7.88216 10.6046 8.00216 10.5641 8.13245 10.6069C8.25931 10.6474 8.32216 10.7554 8.36788 10.8791C8.43073 11.0513 8.44559 11.2335 8.45016 11.4146C8.45588 11.6948 8.43302 11.9738 8.39416 12.2505C8.36676 12.4338 8.33821 12.6159 8.30966 12.798C8.30789 12.8108 8.30514 12.8234 8.30248 12.8354C8.3 12.8467 8.29754 12.8578 8.29588 12.8693C8.29215 12.8876 8.28919 12.9074 8.28636 12.9263C8.28572 12.9306 8.28508 12.9349 8.28445 12.939C8.29245 12.9345 8.29702 12.9278 8.29931 12.921C8.47645 12.3866 8.64445 11.8511 8.68674 11.2796C8.70388 11.0513 8.70388 10.8229 8.56216 10.6148C8.93016 10.8848 9.19759 11.2313 9.37473 11.6588C9.55073 12.0818 9.62845 12.5261 9.61016 12.9998C9.61359 12.9936 9.61588 12.9902 9.61731 12.9881C9.61874 12.986 9.61931 12.984 9.61931 12.984C9.66731 12.7973 9.66845 12.606 9.65131 12.4148C9.63188 12.1931 9.58959 11.976 9.53245 11.7623C9.42845 11.3809 9.28674 11.0153 9.12445 10.6598L9.11906 10.6479C9.09124 10.5868 9.06395 10.5269 9.02959 10.455C9.04614 10.4586 9.06169 10.4615 9.07639 10.4642C9.10332 10.4692 9.12741 10.4736 9.14959 10.4809C9.27988 10.5259 9.38388 10.617 9.48102 10.7171C9.71074 10.9523 9.89245 11.229 10.0673 11.5136C10.0764 11.5288 10.0859 11.544 10.0953 11.5592C10.1047 11.5744 10.1142 11.5896 10.1233 11.6048C10.1233 11.5869 10.118 11.5726 10.1128 11.5586L10.1107 11.553C10.093 11.5091 10.0749 11.4652 10.0569 11.4213C10.0052 11.2955 9.95335 11.1696 9.90845 11.0411C9.84559 10.8645 9.79416 10.6834 9.80216 10.4888C9.80788 10.3628 9.87759 10.2761 9.98959 10.275C10.0639 10.275 10.1382 10.2806 10.209 10.2986C10.4227 10.3515 10.5793 10.4966 10.705 10.6845C10.8422 10.8859 10.929 11.1143 10.9976 11.3528C11.0844 11.6531 11.1313 11.9614 11.1599 12.2876C11.1646 12.2756 11.1695 12.2653 11.1739 12.256C11.1803 12.2425 11.1858 12.231 11.1884 12.219C11.191 12.2048 11.1939 12.1904 11.1968 12.176C11.2059 12.1311 11.215 12.0858 11.2124 12.0424C11.2033 11.9006 11.1907 11.76 11.1667 11.6216C11.1119 11.3078 11.0147 11.0096 10.9073 10.7138C10.8472 10.5491 10.7846 10.3855 10.7205 10.2178Z" fill="#DFE1E6"/>
</svg>
