<!-- Copyright 2000-2022 JetBrains s.r.o. and contributors. Use of this source code is governed by the Apache 2.0 license. -->
<svg width="16" height="16" viewBox="0 0 16 16" fill="none" xmlns="http://www.w3.org/2000/svg">
<path fill-rule="evenodd" clip-rule="evenodd" d="M2.4032 2.16142L2.15163 1.02049L2.34694 0.977423C2.87428 0.861146 3.42141 0.800003 3.98196 0.800003C5.42816 0.800003 6.78015 1.20609 7.93342 1.91139C9.0867 1.20609 10.4387 0.800003 11.8849 0.800003C12.4471 0.800003 12.9957 0.861498 13.5245 0.978429C13.5676 0.987977 13.6107 0.997895 13.6536 1.00818L13.8481 1.0548L13.5758 2.19096L13.3813 2.14434C13.345 2.13565 13.3087 2.12727 13.2722 2.11921C12.8257 2.02047 12.3616 1.96834 11.8849 1.96834C10.8365 1.96834 9.84577 2.22106 8.96841 2.67017C10.6083 4.09691 11.6458 6.21429 11.6458 8.57364C11.6458 11.1259 10.4325 13.3933 8.55685 14.8109C8.38988 14.9371 8.21766 15.0565 8.04056 15.1689L7.93342 15.2369L7.82629 15.1689C7.58401 15.0152 7.35084 14.8482 7.12779 14.6688C5.3562 13.2444 4.22101 11.0423 4.22101 8.57364C4.22101 6.21429 5.25856 4.09691 6.89844 2.67017C6.02108 2.22106 5.03031 1.96834 3.98196 1.96834C3.50661 1.96834 3.04381 2.02017 2.59851 2.11836L2.4032 2.16142ZM9.41211 4.59126C9.00008 4.01201 8.50057 3.50144 7.93342 3.07944C7.36628 3.50144 6.86677 4.01201 6.45474 4.59126C6.4466 4.6027 6.4385 4.61417 6.43043 4.62567L6.42858 4.6283C6.41897 4.64199 6.40942 4.65573 6.39991 4.6695C6.37201 4.72665 6.3243 4.83277 6.27938 4.97256C6.24007 5.09488 6.2029 5.24297 6.18304 5.40659C6.14149 5.74881 6.17564 6.15891 6.42418 6.54303C6.7419 7.03404 7.36931 7.63016 7.70646 7.93459C7.84415 8.05892 7.93342 8.13459 7.93342 8.13459C7.93342 8.13459 8.0227 8.05892 8.16039 7.93459C8.49753 7.63016 9.12495 7.03404 9.44266 6.54303C9.69121 6.15891 9.72535 5.74881 9.68381 5.40659C9.66394 5.24297 9.62678 5.09488 9.58747 4.97256C9.54255 4.83277 9.49483 4.72665 9.46694 4.6695C9.45743 4.65573 9.44787 4.64199 9.43827 4.6283L9.43642 4.62567C9.42835 4.61417 9.42025 4.6027 9.41211 4.59126ZM5.55615 7.07926C5.44704 7.55927 5.38935 8.05948 5.38935 8.57364C5.38935 10.4284 6.14059 12.1029 7.34925 13.302V9.40238L7.34884 9.39902C7.34781 9.39139 7.34513 9.37523 7.33849 9.35045C7.32521 9.3009 7.29598 9.2164 7.23209 9.0964C7.10402 8.8559 6.8377 8.47468 6.28634 7.95021C5.94533 7.62584 5.71041 7.31758 5.55615 7.07926ZM8.51759 9.40238V13.302C9.72624 12.1029 10.4775 10.4284 10.4775 8.57364C10.4775 8.05948 10.4198 7.55927 10.3107 7.07926C10.1564 7.31758 9.92152 7.62584 9.58051 7.95021C9.02915 8.47468 8.76282 8.8559 8.63476 9.0964C8.57087 9.2164 8.54163 9.3009 8.52836 9.35045C8.52172 9.37523 8.51903 9.39139 8.51801 9.39902L8.51759 9.40238Z" fill="url(#paint0_radial_1228_29482)"/>
<defs>
<radialGradient id="paint0_radial_1228_29482" cx="0" cy="0" r="1" gradientUnits="userSpaceOnUse" gradientTransform="translate(10.6083 5.44042) rotate(123.197) scale(10.4748 8.43044)">
<stop offset="0" stop-color="#4AF7EE"/>
<stop offset="0.338542" stop-color="#5EA6F2"/>
<stop offset="0.6875" stop-color="#746EF7"/>
<stop offset="1" stop-color="#6A99FB"/>
</radialGradient>
</defs>
</svg>
