<!-- Copyright 2000-2022 JetBrains s.r.o. and contributors. Use of this source code is governed by the Apache 2.0 license. -->
<svg width="16" height="16" viewBox="0 0 16 16" fill="none" xmlns="http://www.w3.org/2000/svg">
<path fill-rule="evenodd" clip-rule="evenodd" d="M8.35305 1.27094C11.417 2.15044 13.0989 3.68385 13.4045 5.87404C13.4673 8.88662 12.2165 10.46 9.65521 10.5856C8.82996 10.4771 8.5644 9.80043 9.07554 9.1636C9.88651 8.24698 10.2463 7.41031 10.1549 6.65074C10.0893 6.19957 9.5724 5.73412 8.60438 5.25439C8.73573 5.09448 9.06983 5.05736 9.60952 5.14017C10.0778 5.18871 10.2263 4.96884 10.055 4.48626C10.192 5.07164 9.2811 4.98597 7.31935 4.23782C7.25368 4.21212 7.188 4.18643 7.11947 4.16073C6.46555 4.00653 6.21426 4.26067 6.36275 4.91744C6.00296 4.90316 5.73168 4.92886 5.54607 5.00025C4.59804 5.57135 4.62659 6.08249 5.63459 6.53081C5.68599 6.21385 6.00867 6.06536 6.60262 6.08249C6.86247 6.15959 7.0338 6.23955 7.11376 6.3195C7.20228 6.3966 7.27366 6.47084 7.31935 6.54509C7.43072 6.71356 7.43072 6.88204 7.31935 7.05052C7.21084 7.21899 6.98811 7.38461 6.65687 7.54738C5.19199 8.01854 4.41528 8.83807 4.32105 10.0031V10.4943C4.32105 10.4986 4.32176 10.5028 4.32248 10.5071C4.32319 10.5114 4.32391 10.5157 4.32391 10.52C4.47525 11.9706 4.88645 12.9757 5.49182 13.6039C5.83448 13.9438 6.53694 14.4321 7.31935 14.6748C7.6563 14.7804 8.00182 14.8404 8.34734 14.8233C12.0053 14.6576 14.8209 11.7678 14.8209 8.02996C14.8209 4.41201 11.9681 1.43084 8.35305 1.27094ZM7.69343 4.92315H6.96527C6.90245 4.6376 7.01952 4.56621 7.31935 4.70613C7.42501 4.75182 7.54779 4.82606 7.69343 4.92315Z" fill="url(#paint0_linear_2471_34128)"/>
<path d="M5.69163 14.4035C4.84354 13.6496 4.28957 12.8815 4.16107 11.8621C-0.370648 6.75924 3.51001 2.0819 7.55914 1.28235C4.024 1.54506 1.29127 4.4891 1.29127 8.02995C1.29127 10.8169 2.97603 13.2127 5.38609 14.2493L5.69163 14.4035Z" fill="url(#paint1_linear_2471_34128)"/>
<defs>
<linearGradient id="paint0_linear_2471_34128" x1="14.8197" y1="14.8409" x2="14.8197" y2="1.28858" gradientUnits="userSpaceOnUse">
<stop stop-color="#F40A0B"/>
<stop offset="1" stop-color="#F5E710"/>
</linearGradient>
<linearGradient id="paint1_linear_2471_34128" x1="14.8197" y1="14.8409" x2="14.8197" y2="1.28858" gradientUnits="userSpaceOnUse">
<stop stop-color="#F40A0B"/>
<stop offset="1" stop-color="#F5E710"/>
</linearGradient>
</defs>
</svg>
