<!-- Copyright 2000-2022 JetBrains s.r.o. and contributors. Use of this source code is governed by the Apache 2.0 license. -->
<svg width="16" height="16" viewBox="0 0 16 16" fill="none" xmlns="http://www.w3.org/2000/svg">
<path d="M3.89729 2.03747L0.737569 7.45414C0.540805 7.79145 0.540805 8.20855 0.737569 8.54586L3.89729 13.9625C4.09144 14.2953 4.44775 14.5 4.83305 14.5H11.1719C11.5572 14.5 11.9135 14.2953 12.1077 13.9625L15.2674 8.54586C15.4642 8.20855 15.4642 7.79145 15.2674 7.45414L12.1077 2.03747C11.9135 1.70465 11.5572 1.5 11.1719 1.5H4.83305C4.44775 1.5 4.09144 1.70465 3.89729 2.03747Z" fill="#4387FB"/>
<path d="M14.2752 10.2468L9.16357 5.13522L8.36486 4.75V5.48053L7.63433 4.75L6.83562 5.13522V6.32307L7.52232 6.68834V7.84867L6.5158 8.42978L5.85613 8.01772L4.82742 8.61164L4.89316 9.49596L5.42795 10.0307L5.25843 10.1286L9.62982 14.5H11.1719C11.5572 14.5 11.9135 14.2953 12.1077 13.9625L14.2752 10.2468Z" fill="#407BDD"/>
<path d="M7.52229 6.68834V7.84867L6.51577 8.42978L5.8561 8.01772L4.82739 8.61164L4.89313 9.49596L5.74089 9.00651L6.08801 9.22787L6.10615 9.63916L5.2584 10.1286L5.99136 10.6277L7.02007 10.0338L6.99305 9.25645L7.99956 8.67534L9.0069 9.25646L8.97988 10.0338L10.0086 10.6277L10.7416 10.1286L9.89381 9.63917L9.91195 9.22787L10.2591 9.00651L11.1068 9.49596L11.1726 8.61165L10.1439 8.01772L9.48418 8.42979L8.47684 7.8482V6.68834L9.16354 6.32307V5.13522L8.36483 4.75V5.7289L7.99956 5.91884L7.6343 5.7289V4.75L6.83559 5.13522V6.32307L7.52229 6.68834Z" fill="white"/>
</svg>
