<!-- Copyright 2000-2022 JetBrains s.r.o. and contributors. Use of this source code is governed by the Apache 2.0 license. -->
<svg width="16" height="16" viewBox="0 0 16 16" fill="none" xmlns="http://www.w3.org/2000/svg">
<path d="M11.5396 10.5824C11.1969 10.3352 10.8696 9.99513 10.6794 9.73303L10.676 9.74983C10.6523 9.86549 10.62 10.0229 10.7483 10.222C10.8501 10.38 11.2868 10.7746 11.2868 10.7746L11.5396 10.5824Z" fill="black"/>
<path d="M10.049 5.66469C9.9522 5.59434 9.85961 5.4523 9.7598 5.29918C9.61118 5.07119 9.44655 4.81863 9.22808 4.74161C9.12126 4.73336 9.03581 4.71791 8.95487 4.70328C8.77971 4.67161 8.62566 4.64376 8.32165 4.70094C8.3732 4.6771 8.42383 4.65112 8.47445 4.62515C8.58216 4.56989 8.68986 4.51464 8.80643 4.4799C8.89847 4.45984 8.98599 4.47331 9.0735 4.48678C9.09635 4.49029 9.1192 4.49381 9.14213 4.49673C9.16947 4.4848 9.1874 4.46996 9.18071 4.44753C8.89718 4.28579 8.42475 4.22509 7.95902 4.16524C7.68979 4.13065 7.4228 4.09634 7.19583 4.04297C7.36174 4.04809 7.53172 4.05008 7.7017 4.05207C8.26848 4.05868 8.83526 4.0653 9.25101 4.18837C9.56115 4.44243 9.72185 4.85662 9.86924 5.23652C9.92837 5.38892 9.98539 5.53588 10.049 5.66469Z" fill="black"/>
<path fill-rule="evenodd" clip-rule="evenodd" d="M10.7514 7.79551C10.7514 7.79551 11.0783 7.75152 11.0719 7.77969C11.0505 7.87434 11.1005 8.09194 11.1155 8.10656L10.9352 8.24236C11.2329 8.10419 11.5428 8.09437 11.858 8.08438C11.9503 8.08145 12.0431 8.07851 12.1362 8.07233C12.1362 8.07233 11.7902 7.98415 11.8114 7.98138C11.8886 7.97127 11.7908 7.64829 11.7644 7.6413C11.8302 7.62073 11.8945 7.60523 11.961 7.58989C11.4662 7.47037 11.1801 7.54079 10.7514 7.79551ZM11.119 8.10396L11.1155 8.10656C11.1171 8.10811 11.1183 8.10737 11.119 8.10396Z" fill="black"/>
<path fill-rule="evenodd" clip-rule="evenodd" d="M3.75272 1.55776C3.62536 1.67945 3.52713 1.79009 3.43557 1.89322C3.28605 2.06162 3.15433 2.20998 2.94265 2.35368C2.87439 2.40802 2.68282 2.49211 2.44199 2.50508C2.41493 2.50633 2.39013 2.50836 2.36521 2.51039C2.28564 2.51689 2.20492 2.52348 2.04617 2.50508C1.86232 2.41319 1.60602 2.54346 1.43555 2.73167C1.31965 2.88553 1.28637 3.12513 1.25434 3.3557C1.23471 3.49698 1.21556 3.63487 1.17816 3.74756C1.0967 4.05127 1.10488 4.34661 1.19583 4.62242C1.33141 5.03356 1.50864 5.40132 1.8055 5.68879C2.24677 6.08671 2.50117 6.38284 2.68235 6.74763C2.76239 6.88568 2.80672 7.00403 2.85162 7.12389C2.88368 7.20945 2.91602 7.29578 2.96184 7.39061C3.00152 7.46279 3.0626 7.54807 3.16939 7.56982C3.32525 7.60053 3.5219 7.61084 3.72092 7.62128C3.81633 7.62628 3.9123 7.63131 4.00457 7.63863C4.12778 7.64022 4.29696 7.63112 4.45728 7.61569L4.53968 7.60149C4.74086 7.56699 4.96423 7.52868 5.15522 7.4677C5.23348 7.44991 5.2718 7.44312 5.2975 7.43857C5.34159 7.43076 5.34855 7.42952 5.45641 7.39061C5.44402 7.42942 5.36793 7.51033 5.29378 7.58919C5.23617 7.65046 5.17971 7.7105 5.15522 7.74857C4.72776 8.41302 4.69916 9.02144 4.78823 9.9706C4.84522 10.4464 4.95308 10.8409 5.13159 11.2922C5.21328 11.4987 5.45512 11.9416 5.62169 12.1589C6.11703 12.8049 7.25404 13.6184 8.79664 13.9378C9.06577 13.9717 9.34233 13.9254 9.62959 13.8548C10.3909 13.6417 12.4447 12.9708 12.4447 12.9708C12.4447 12.9708 10.5653 13.0981 9.93445 13.0406C9.88237 13.0331 9.83225 13.0282 9.78804 13.0239C9.70827 13.0163 9.64773 13.0104 9.62959 12.994L9.62336 12.9872C9.58 12.9401 9.32839 12.6669 9.15454 12.3306C9.02751 12.0849 8.95796 11.782 8.93218 11.6697C8.92672 11.6459 8.92323 11.6307 8.92156 11.6263C8.85454 11.4555 9.01748 10.8156 9.01748 10.8156C9.03622 10.7811 9.04802 10.7552 9.05689 10.7358C9.08222 10.6802 9.08359 10.6772 9.15454 10.6763L9.1772 10.6786C9.44848 10.7064 9.52678 10.7145 9.69839 10.6763C9.71586 10.7095 9.73249 10.7426 9.74902 10.7755C9.84522 10.9672 9.93776 11.1517 10.1692 11.2922C11.057 11.5355 11.262 11.2693 11.4765 10.9908L11.488 10.976C11.9203 11.2689 12.57 11.4149 13.1729 11.2922C13.4766 11.2304 13.7684 11.0776 14.0146 10.8872C14.949 9.8891 15.2178 8.16022 15.1349 8.07037C15.0826 7.98845 14.8086 7.93361 14.5231 7.93371C14.3567 7.93377 14.1863 7.94814 14.0537 7.95932C13.9063 7.97175 13.8055 7.98026 13.8083 7.96085C13.8227 7.81527 13.813 7.63213 13.7193 7.45039C13.6166 7.25088 13.5 7.05305 13.4147 6.90842C13.384 6.85633 13.3574 6.81112 13.337 6.77525C13.3037 6.72831 13.0437 6.23102 13.0437 6.23102C13.0438 6.22953 13.0424 6.2285 13.0395 6.22789C13.0083 6.18342 12.8146 5.7718 12.8223 5.71531C12.8931 5.31064 13.015 5.0048 13.1512 4.66312C13.1713 4.61292 13.1916 4.56194 13.2121 4.50975C13.2216 4.48921 13.2307 4.47049 13.2393 4.45305C13.2733 4.38327 13.2973 4.33416 13.2947 4.27155C13.2974 4.13267 13.0736 3.62487 12.7226 3.15894L12.6749 3.09559C12.3451 2.65672 12.0627 2.28095 11.5397 2.0632C11.0241 1.84852 10.7221 1.9027 10.5146 1.9399L10.4767 1.94663C10.2239 1.99524 9.87165 2.11008 9.69839 2.21251C9.55987 2.29439 9.47125 2.37589 9.38463 2.45554C9.30073 2.53269 9.21872 2.60811 9.09508 2.68046C8.64128 2.47099 8.37911 2.30936 8.27087 2.24262C8.24649 2.22759 8.22992 2.21738 8.22072 2.21251C8.19839 2.20146 8.1668 2.18536 8.12696 2.16505C7.82754 2.01238 7.06185 1.62196 6.25138 1.35337C5.57411 1.12893 4.86556 1.03567 4.37165 1C4.23369 1.08307 4.14912 1.16723 3.99316 1.32241C3.92833 1.38691 3.85117 1.4637 3.75272 1.55776ZM13.0395 6.22789C13.042 6.23137 13.0435 6.23268 13.0437 6.23102L13.0395 6.22789ZM12.4748 5.65572C12.4433 5.87516 12.692 6.29028 12.692 6.29028C12.7089 6.35387 12.7488 6.43261 12.7927 6.5195C12.8257 6.58454 12.8609 6.65416 12.8906 6.72539C13.0481 7.10374 13.3118 7.52778 13.337 7.55644C13.4304 7.69569 13.4277 7.85322 13.4252 7.99752C13.423 8.12321 13.421 8.23886 13.4829 8.32363C13.4846 8.3268 13.4908 8.33406 13.501 8.34327C13.4592 8.44258 13.4235 8.57541 13.3926 8.69037C13.3665 8.78715 13.3439 8.87128 13.3239 8.91209C13.2971 8.97048 13.0457 9.44596 12.7857 9.54056C12.5778 9.61617 12.2018 9.89294 12.25 9.9011C12.5244 9.94758 13.354 9.55222 13.4886 9.4066C13.5207 9.33623 13.5763 9.21963 13.6401 9.08588L13.6406 9.08497C13.7469 8.86194 13.876 8.5913 13.957 8.40822C13.9952 8.40246 14.0349 8.39539 14.0758 8.38726C14.4052 8.32187 14.7849 8.38765 14.7824 8.41343C14.7466 8.78028 14.6043 9.25131 14.4193 9.64084C14.2206 9.99413 14.0124 10.3004 13.8083 10.5306C13.6172 10.7461 13.4367 10.8949 13.0763 10.9531C12.4502 11.054 12.0768 10.86 11.7339 10.6818C11.6686 10.6479 11.6044 10.6145 11.5397 10.5839L11.2888 10.7747C11.0476 10.9964 10.8213 11.0312 10.6225 11.0251C10.3885 11.0179 10.1924 10.9248 10.0546 10.5839C10.0404 10.5565 10.0243 10.5301 10.0068 10.5046C9.97959 10.453 9.95291 10.3972 9.92591 10.3408C9.87058 10.225 9.81385 10.1064 9.74842 10.0149C8.98125 9.45489 9.30535 8.94362 9.51637 8.61074L9.53374 8.58329C9.09526 8.48102 8.51428 8.26364 8.43424 7.97773C8.30556 7.05301 8.3709 6.75966 8.4997 6.28468L8.44128 6.29605C7.8829 6.40464 7.31671 6.51476 6.71856 6.6964C6.70871 6.69486 6.69821 6.69513 6.68704 6.69747C6.51894 6.73273 5.89139 6.88345 5.73135 6.96343C5.54062 7.01447 5.36694 7.04299 5.17807 7.074C5.00653 7.10217 4.82245 7.1324 4.60168 7.18342C4.45091 7.20045 3.32174 7.12776 3.28546 7.09665C3.20837 6.99741 3.18978 6.90714 3.16659 6.79454C3.14259 6.67797 3.11366 6.53747 3.00978 6.33832C2.91994 6.16608 2.56854 5.82721 2.4176 5.68879C1.92359 5.23571 1.8314 4.9704 1.71304 4.50619C1.70722 4.47938 1.69955 4.45239 1.69127 4.42328C1.6572 4.30352 1.61292 4.14785 1.64569 3.8216C1.69114 3.67699 1.69089 3.56389 1.69066 3.46246C1.69028 3.29535 1.68998 3.15988 1.89419 2.96727C2.02344 2.9692 2.14775 2.96302 2.26661 2.9571C2.4618 2.9474 2.64231 2.93842 2.80596 2.96727C2.83381 2.97157 2.86859 2.97537 2.90881 2.97976C3.04303 2.99441 3.23779 3.01567 3.43742 3.08432C3.47942 3.09876 3.58436 3.13635 3.72061 3.18515C4.14955 3.33879 4.88875 3.60355 4.95075 3.60701C5.15963 3.61867 4.12211 3.11263 3.7272 2.92002L3.64291 2.87885C3.47784 2.79796 3.36868 2.75304 3.30157 2.72541C3.24344 2.70149 3.21684 2.69054 3.21277 2.68046C3.64329 2.44696 3.76916 2.28481 3.91252 2.10015C3.9995 1.9881 4.09292 1.86775 4.26474 1.71815C4.35781 1.68076 4.42546 1.62784 4.48765 1.5792C4.5644 1.51916 4.63283 1.46564 4.73043 1.45585C4.88783 1.47883 5.02902 1.49654 5.15935 1.51289C5.53966 1.5606 5.8276 1.59673 6.15661 1.71815C6.88537 1.9871 7.56793 2.31435 8.07454 2.56445C8.21146 2.63318 8.33937 2.69497 8.46263 2.75451C8.63668 2.83858 8.80151 2.9182 8.96936 3.00658C9.22071 3.0829 10.0545 3.61148 10.2765 3.89647C10.502 4.33595 10.6834 4.81068 10.8336 5.26877C10.8372 5.28461 10.841 5.30264 10.8453 5.32284C10.8656 5.41924 10.8964 5.56529 10.9729 5.761C11.0307 5.90903 11.2196 6.29028 11.2196 6.29028C11.2196 6.29028 11.0457 5.23722 11.0273 5.17795C10.9347 4.88009 10.847 4.49433 10.778 4.19072C10.7168 3.92148 10.6702 3.71681 10.648 3.69537C10.5149 3.54077 10.0079 3.14865 9.66744 2.96727C9.63722 2.95118 9.60862 2.93651 9.58248 2.92311C9.49721 2.87939 9.43797 2.84902 9.43381 2.82593C9.45323 2.80783 9.4703 2.79169 9.48594 2.77692C9.55791 2.70891 9.59944 2.66967 9.69839 2.59963C9.72911 2.57789 9.75909 2.55422 9.78959 2.53013C9.87373 2.46369 9.96177 2.39416 10.0799 2.35368C10.108 2.34201 10.1362 2.32966 10.1644 2.3173C10.2667 2.27249 10.3697 2.22739 10.4713 2.21251C10.9407 2.14375 11.3798 2.23602 11.5816 2.4003C11.9896 2.73249 12.5446 3.41302 12.7936 3.8531C12.8912 4.02893 12.9358 4.1447 12.8906 4.35641C12.8477 4.55694 12.8073 4.67205 12.7612 4.80375L12.7533 4.82637C12.7425 4.8571 12.7233 4.90948 12.6997 4.97354C12.6148 5.20457 12.474 5.58759 12.4748 5.65572ZM6.78225 7.11456C6.47451 7.17999 6.16887 7.26499 5.90529 7.42956C5.84878 7.45094 5.66972 7.67971 5.62169 7.74857C5.45753 7.98393 5.3542 8.23152 5.29199 8.48331C5.6331 9.34939 6.44091 10.5451 8.55119 10.9914C8.55275 10.9119 8.55656 10.8534 8.56385 10.8371C8.6006 10.7551 8.62897 10.688 8.65369 10.6295C8.69176 10.5394 8.72116 10.4699 8.75907 10.3981L8.78245 10.3847C8.53862 10.2609 8.451 10.1552 8.30255 9.97612C8.27393 9.94159 8.24291 9.90417 8.20821 9.86353C7.65199 8.99897 7.0928 8.05696 6.78225 7.11456ZM8.86538 12.535C7.93275 12.5491 6.98453 12.4225 6.22463 12.1305C6.23374 12.1403 6.24267 12.1497 6.25138 12.1589C6.64847 12.5322 6.97594 12.7456 7.48351 13.0406C7.50811 13.0549 8.45702 13.4552 8.92156 13.5235C9.10114 13.5515 9.51265 13.4474 9.39301 13.3034C9.39097 13.2994 9.30737 13.1872 9.21356 13.0612C9.11722 12.9318 9.00994 12.7878 8.96936 12.732C8.93878 12.6899 8.90291 12.6196 8.86538 12.535Z" fill="black"/>
<path d="M11.1189 8.10396L11.1155 8.10656C11.1171 8.10812 11.1183 8.10738 11.1189 8.10396Z" fill="#FDEE21"/>
<path fill-rule="evenodd" clip-rule="evenodd" d="M12.6919 6.29028C12.6919 6.29028 12.4433 5.87517 12.4747 5.65572C12.474 5.5876 12.6147 5.20464 12.6997 4.97361L12.7002 4.97211C12.7235 4.9087 12.7426 4.85687 12.7532 4.82638L12.7612 4.80376C12.8073 4.67205 12.8476 4.55694 12.8906 4.35642C12.9358 4.1447 12.8911 4.02893 12.7936 3.85311C12.5445 3.41303 11.9896 2.73249 11.5815 2.4003C11.3797 2.23603 10.9407 2.14375 10.4713 2.21252C10.3697 2.2274 10.2667 2.2725 10.1644 2.3173C10.1361 2.32967 10.1079 2.34201 10.0798 2.35369C9.96175 2.39417 9.8737 2.4637 9.78956 2.53014C9.75906 2.55422 9.72908 2.5779 9.69836 2.59964C9.59942 2.66968 9.55789 2.70891 9.48591 2.77692C9.47028 2.7917 9.4532 2.80783 9.43379 2.82594C9.43795 2.84902 9.49718 2.87939 9.58245 2.92311C9.60859 2.93651 9.63719 2.95118 9.66741 2.96728C10.0079 3.14865 10.5149 3.54077 10.648 3.69537C10.6702 3.71681 10.7167 3.92142 10.7779 4.1906C10.8469 4.49421 10.9347 4.88009 11.0272 5.17795C11.0457 5.23722 11.2196 6.29028 11.2196 6.29028C11.2196 6.29028 11.0307 5.90903 10.9728 5.76101C10.8963 5.5653 10.8656 5.41924 10.8453 5.32284C10.841 5.30264 10.8372 5.28462 10.8336 5.26878C10.6834 4.81068 10.5019 4.33596 10.2764 3.89647C10.0545 3.61148 9.22069 3.0829 8.96934 3.00658C8.8015 2.91821 8.6367 2.83861 8.46267 2.75454C8.33941 2.695 8.21143 2.63319 8.07451 2.56445C7.56791 2.31436 6.88534 1.9871 6.15658 1.71815C5.82757 1.59673 5.53963 1.56061 5.15933 1.5129C5.02899 1.49654 4.88781 1.47883 4.7304 1.45586C4.6328 1.46565 4.56438 1.51917 4.48763 1.5792C4.42544 1.62784 4.35778 1.68076 4.26471 1.71815C4.09289 1.86776 3.99947 1.9881 3.91249 2.10015C3.76914 2.28482 3.64326 2.44697 3.21274 2.68046C3.21682 2.69055 3.24341 2.70149 3.30154 2.72542C3.36866 2.75304 3.47782 2.79797 3.64288 2.87885L3.72718 2.92002C4.12209 3.11263 5.15961 3.61867 4.95072 3.60702C4.88872 3.60356 4.14953 3.33879 3.72058 3.18516C3.58433 3.13635 3.47939 3.09877 3.4374 3.08433C3.23776 3.01568 3.04301 2.99442 2.90879 2.97976C2.86857 2.97537 2.83378 2.97158 2.80593 2.96728C2.64228 2.93842 2.46177 2.9474 2.26659 2.95711C2.14772 2.96302 2.02342 2.9692 1.89416 2.96728C1.68995 3.15988 1.69026 3.29535 1.69063 3.46246C1.69086 3.5639 1.69111 3.677 1.64566 3.82161C1.6129 4.14785 1.65718 4.30352 1.69124 4.42328C1.69952 4.4524 1.7072 4.47939 1.71302 4.50619C1.83137 4.9704 1.92356 5.23572 2.41758 5.68879C2.56851 5.82722 2.91992 6.16608 3.00976 6.33832C3.11363 6.53747 3.14256 6.67797 3.16657 6.79454C3.18975 6.90714 3.20834 6.99742 3.28544 7.09666C3.32171 7.12777 4.45088 7.20045 4.60166 7.18342C4.82242 7.1324 5.0065 7.10217 5.17804 7.074C5.36692 7.04299 5.5406 7.01447 5.73132 6.96344C5.89136 6.88345 6.51891 6.73273 6.68701 6.69748C6.69819 6.69513 6.70868 6.69486 6.71853 6.69641C7.31669 6.51476 7.88288 6.40465 8.44125 6.29605L8.49967 6.28469C8.37088 6.75966 8.30553 7.05301 8.43422 7.97774C8.51425 8.26364 9.09524 8.48102 9.53372 8.58329L9.51634 8.61074C9.30532 8.94363 8.98122 9.45489 9.74839 10.0149C9.81382 10.1064 9.87055 10.2251 9.92588 10.3408C9.95289 10.3972 9.97957 10.453 10.0068 10.5046C10.0243 10.5301 10.0404 10.5565 10.0546 10.5839C10.1924 10.9248 10.3885 11.0179 10.6225 11.0251C10.8213 11.0312 11.0476 10.9964 11.2888 10.7747L11.5397 10.5839C11.6043 10.6145 11.6685 10.6479 11.7338 10.6818C12.0768 10.86 12.4502 11.054 13.0762 10.9531C13.4366 10.8949 13.6172 10.7461 13.8083 10.5306C14.0123 10.3004 14.2206 9.99413 14.4193 9.64084C14.6043 9.25131 14.7466 8.78028 14.7823 8.41343C14.7849 8.38765 14.4052 8.32187 14.0758 8.38726C14.0349 8.39539 13.9951 8.40246 13.9569 8.40823C13.876 8.59131 13.7469 8.86194 13.6405 9.08497L13.6401 9.08589C13.5764 9.21946 13.5207 9.33631 13.4885 9.4066C13.354 9.55223 12.5244 9.94758 12.25 9.9011C12.2018 9.89295 12.5778 9.61618 12.7857 9.54056C13.0457 9.44597 13.2971 8.97048 13.3239 8.91209C13.3439 8.87128 13.3665 8.78716 13.3925 8.69037C13.4235 8.57541 13.4592 8.44258 13.501 8.34327C13.4908 8.33406 13.4846 8.3268 13.4828 8.32364C13.421 8.23887 13.423 8.12322 13.4251 7.99752C13.4276 7.85323 13.4304 7.69569 13.3369 7.55644C13.3118 7.52779 13.0481 7.10375 12.8906 6.7254C12.8609 6.65421 12.8257 6.58463 12.7928 6.51961C12.7488 6.43273 12.7089 6.35387 12.6919 6.29028ZM9.75978 5.29919C9.85959 5.45231 9.95218 5.59435 10.049 5.66469C9.98537 5.53588 9.92835 5.38892 9.86922 5.23652C9.72182 4.85663 9.56112 4.44243 9.25099 4.18837C8.83523 4.06531 8.26845 4.05869 7.70167 4.05207C7.53169 4.05008 7.36171 4.0481 7.19581 4.04297C7.42277 4.09634 7.68976 4.13065 7.95899 4.16525C8.42473 4.22509 8.89716 4.2858 9.18068 4.44753C9.18737 4.46996 9.16945 4.4848 9.1421 4.49673C9.11917 4.49381 9.09632 4.4903 9.07348 4.48678C8.98596 4.47331 8.89845 4.45985 8.8064 4.4799C8.68983 4.51464 8.58213 4.5699 8.47443 4.62515C8.4238 4.65112 8.37317 4.6771 8.32162 4.70094C8.62563 4.64377 8.77969 4.67162 8.95485 4.70328C9.03579 4.71792 9.12123 4.73336 9.22806 4.74161C9.44652 4.81863 9.61115 5.07119 9.75978 5.29919ZM10.6794 9.73303C10.8695 9.99514 11.1969 10.3352 11.5396 10.5824L11.2868 10.7746C11.2868 10.7746 10.85 10.38 10.7483 10.222C10.62 10.0229 10.6522 9.86549 10.676 9.74983L10.6794 9.73303ZM10.7514 7.79551C10.7514 7.79551 11.0783 7.75152 11.0719 7.7797C11.0505 7.87434 11.1005 8.09195 11.1155 8.10656L10.9352 8.24236C11.2329 8.1042 11.5427 8.09437 11.858 8.08438C11.9503 8.08145 12.0431 8.07851 12.1362 8.07233C12.1362 8.07233 11.7902 7.98415 11.8113 7.98138C11.8885 7.97128 11.7908 7.64829 11.7643 7.6413C11.8302 7.62074 11.8944 7.60524 11.9609 7.58989C11.4661 7.47038 11.18 7.54079 10.7514 7.79551Z" fill="#FDEE21"/>
<path d="M5.90526 7.42956C6.16884 7.265 6.47448 7.17999 6.78223 7.11456C7.09278 8.05696 7.65197 8.99897 8.20819 9.86353C8.24289 9.90417 8.2739 9.94159 8.30253 9.97612C8.45098 10.1552 8.53859 10.2609 8.78243 10.3847L8.75904 10.3981C8.72113 10.4699 8.69173 10.5394 8.65366 10.6295C8.62896 10.6879 8.60056 10.7551 8.56383 10.8371C8.55653 10.8534 8.55273 10.9119 8.55116 10.9914C6.44088 10.5451 5.63308 9.34939 5.29197 8.48331C5.35417 8.23152 5.45751 7.98393 5.62167 7.74857C5.66969 7.67971 5.84876 7.45095 5.90526 7.42956Z" fill="#FDEE21"/>
<path d="M6.2246 12.1305C6.9845 12.4225 7.93272 12.5491 8.86535 12.535C8.90289 12.6196 8.93876 12.6899 8.96934 12.732C9.00991 12.7878 9.11719 12.9318 9.21353 13.0612C9.30735 13.1872 9.39094 13.2994 9.39298 13.3034C9.51263 13.4474 9.10111 13.5515 8.92153 13.5235C8.45699 13.4552 7.50809 13.0549 7.48349 13.0406C6.97591 12.7456 6.64844 12.5322 6.25136 12.1589L6.2246 12.1305Z" fill="#FDEE21"/>
</svg>
