<!-- Copyright 2000-2022 JetBrains s.r.o. and contributors. Use of this source code is governed by the Apache 2.0 license. -->
<svg width="16" height="16" viewBox="0 0 16 16" fill="none" xmlns="http://www.w3.org/2000/svg">
<path d="M8.31692 1C9.81681 1.41716 11.1834 2.4684 11.75 3.75323C12.6166 5.83903 12.4166 8.47545 11.4667 10.044C10.6667 11.3288 9.4335 12.013 8.01694 11.9963C5.81712 11.9796 4.03392 10.2275 4.01726 8.02492C4.01726 5.82234 5.75045 4.00353 8.01694 4.00353C8.38358 4.00353 8.91222 4.05438 9.51219 4.30467C9.51219 4.30467 9.08086 4.0492 7.97313 3.87759C4.79005 3.46044 1.03415 5.8724 1.90075 11.4289C3.10065 13.5648 5.40047 15.0165 8.01694 14.9999C11.8666 14.9831 15.0164 11.8294 14.9997 7.95818C14.9997 4.25382 11.9833 1.10012 8.31692 1Z" fill="url(#paint0_linear_1228_29833)"/>
<path d="M10.9334 3.95347C10.4001 2.83549 9.30018 1.95112 7.95028 1.6007C7.65029 1.51727 7.33365 1.4839 6.98368 1.46721C6.46706 1.46721 5.9671 1.53396 5.45047 1.66745C4.16723 2.05124 3.2673 2.80212 2.73401 3.38614C2.05073 4.17039 1.60077 4.98802 1.33412 5.80565C1.33412 5.82233 1.31745 5.83902 1.31745 5.8724C1.30079 5.93914 1.23413 6.13937 1.23413 6.18943C1.21746 6.2228 1.21746 6.27286 1.2008 6.30624C1.18413 6.37298 1.16747 6.43973 1.1508 6.50648C1.1508 6.52316 1.1508 6.53985 1.13414 6.55653C0.700836 8.70906 1.42065 10.6407 1.85395 11.3583C1.96233 11.5377 2.05133 11.6875 2.14052 11.8248C1.15726 6.48521 3.98391 3.93678 7.20034 3.87004C8.88353 3.83666 10.5667 4.5208 11.3833 5.88908C11.3333 5.1382 11.2834 4.72104 10.9334 3.95347Z" fill="url(#paint1_linear_1228_29833)"/>
<defs>
<linearGradient id="paint0_linear_1228_29833" x1="12.5838" y1="1" x2="2.36402" y2="9.99701" gradientUnits="userSpaceOnUse">
<stop stop-color="#E859FF"/>
<stop offset="0.403975" stop-color="#A000F0"/>
<stop offset="1" stop-color="#8B01D0"/>
</linearGradient>
<linearGradient id="paint1_linear_1228_29833" x1="6.19179" y1="-0.813401" x2="12.4032" y2="5.49099" gradientUnits="userSpaceOnUse">
<stop offset="0.0354358" stop-color="#E762F5"/>
<stop offset="0.512854" stop-color="#9913D4"/>
<stop offset="1" stop-color="#680AB4"/>
</linearGradient>
</defs>
</svg>
