<!-- Copyright 2000-2022 JetBrains s.r.o. and contributors. Use of this source code is governed by the Apache 2.0 license. -->
<svg width="16" height="16" viewBox="0 0 16 16" fill="none" xmlns="http://www.w3.org/2000/svg">
<g clip-path="url(#clip0_1228_29947)">
<path d="M6.25524 14.1835C6.49095 14.0272 5.8735 14.0861 5.82226 13.9811C5.57781 13.9607 5.33587 13.917 5.09976 13.8504C4.65652 13.7377 3.60608 13.028 3.49591 12.3619C3.38575 11.6958 3.49591 10.4019 3.96477 9.64355C4.26423 9.17885 4.64941 8.7754 5.09976 8.45476C5.09976 8.45476 4.18511 6.27958 4.10568 4.63731C4.02626 2.99503 4.14411 0.0538018 5.23042 -1.19786e-06C6.31673 -0.0538042 6.12458 2.68503 5.95292 4.46565C5.84278 5.64869 5.8248 6.83851 5.89912 8.02434C6.35589 7.87825 6.83135 7.79886 7.31081 7.78863C7.73243 7.77904 8.15374 7.81859 8.56621 7.90648C8.56621 7.90648 8.9044 5.3803 10.0368 3.8072C11.1693 2.23411 12.3427 0.614891 13.1113 1.0735C13.8799 1.5321 12.9038 3.17182 12.2248 4.02498C11.5459 4.87814 10.3673 6.15917 9.97534 6.84323C9.71879 7.29865 9.492 7.7702 9.2964 8.25492C9.99573 8.61422 10.568 9.17938 10.9361 9.87414C11.4665 10.9707 11.5177 12.3311 11.2307 12.905C11.0812 13.171 10.8749 13.4008 10.6265 13.5779C10.3781 13.755 10.0936 13.8752 9.79343 13.9299C9.45524 13.9555 8.02306 14.309 8.02306 14.309L6.25524 14.1835Z" fill="white"/>
<path d="M8.7558 7.92699C8.7558 7.92699 9.60896 5.698 10.375 4.4426C11.1411 3.18719 12.1685 2.2418 12.4913 2.43395C12.8141 2.6261 11.8303 3.80465 10.9745 4.94988C10.2718 5.96433 9.63513 7.02294 9.06837 8.11914L8.7558 7.92699Z" fill="#DD00A1"/>
<path d="M5.3329 8.31129L5.57629 8.11914C5.57629 8.11914 5.54298 5.89015 5.57629 4.53227C5.6096 3.17438 5.68133 1.48086 5.22785 1.4988C4.77437 1.51673 4.45924 2.81825 4.63602 4.67062C4.76673 5.90143 4.99983 7.11921 5.3329 8.31129Z" fill="#DD00A1"/>
<path d="M4.56686 13.0946C4.84137 13.0946 5.0639 12.8721 5.0639 12.5976C5.0639 12.3231 4.84137 12.1006 4.56686 12.1006C4.29236 12.1006 4.06982 12.3231 4.06982 12.5976C4.06982 12.8721 4.29236 13.0946 4.56686 13.0946Z" fill="#F9D8D2"/>
<path d="M10.4389 13.0946C10.7134 13.0946 10.936 12.8721 10.936 12.5976C10.936 12.3231 10.7134 12.1006 10.4389 12.1006C10.1644 12.1006 9.94189 12.3231 9.94189 12.5976C9.94189 12.8721 10.1644 13.0946 10.4389 13.0946Z" fill="#F9D8D2"/>
<path d="M8.32792 12.554C8.31905 12.5463 8.30768 12.542 8.2959 12.542C8.28412 12.542 8.27274 12.5463 8.26387 12.554C8.26387 12.554 8.11784 12.8102 7.90262 12.8256C7.82979 12.8232 7.75819 12.806 7.69215 12.7752C7.62611 12.7444 7.56698 12.7005 7.51832 12.6463V12.2978C7.65667 12.2235 7.87957 11.993 7.87957 11.9135C7.86059 11.8281 7.81105 11.7526 7.74027 11.7012C7.66949 11.6497 7.58235 11.6259 7.49526 11.6343C7.23905 11.6343 7.05971 11.8008 7.05971 11.9392C7.05971 12.0775 7.34154 12.2543 7.42096 12.3081V12.6796C7.38162 12.7317 7.3315 12.7747 7.27402 12.8056C7.21654 12.8366 7.15305 12.8548 7.08789 12.8589C6.88293 12.8589 6.72921 12.5822 6.72921 12.5797C6.72322 12.5687 6.71322 12.5604 6.70129 12.5566C6.68936 12.5528 6.67642 12.5537 6.66515 12.5592C6.65498 12.5646 6.64722 12.5737 6.64343 12.5846C6.63963 12.5956 6.64007 12.6075 6.64466 12.6181C6.64466 12.6335 6.82656 12.9486 7.08789 12.9486C7.16123 12.9461 7.23325 12.9284 7.2994 12.8967C7.36555 12.8649 7.42439 12.8198 7.4722 12.7641C7.58048 12.8743 7.72545 12.9408 7.87957 12.9512H7.91543C8.00764 12.9336 8.09479 12.8958 8.17056 12.8404C8.24634 12.785 8.30884 12.7134 8.35355 12.6309C8.36184 12.6223 8.36648 12.6108 8.36648 12.5989C8.36648 12.5869 8.36184 12.5754 8.35355 12.5669C8.34613 12.5606 8.33735 12.5562 8.32792 12.554Z" fill="#10110E"/>
<path d="M5.09964 8.45476C5.09964 8.45476 4.4002 6.66132 4.2516 5.7108C4.103 4.76028 3.99539 3.20512 4.17474 2.16236C4.24677 1.67915 4.3486 1.20084 4.47962 0.730179C4.47962 0.730179 4.14399 3.16156 4.26953 4.22481C4.39507 5.28806 5.09964 8.45476 5.09964 8.45476Z" fill="#E5E5E5"/>
<path d="M8.56619 7.90392C8.56619 7.90392 9.0786 5.19071 9.82416 4.12234C10.5697 3.05396 11.5049 1.76782 11.9635 1.43987L12.4298 1.11193C12.4298 1.11193 10.5492 3.07446 9.82416 4.6988C9.0991 6.32314 8.56619 7.90392 8.56619 7.90392Z" fill="#E5E5E5"/>
<path d="M5.57885 10.9784C5.50183 10.9784 5.42654 11.0012 5.3625 11.044C5.29846 11.0868 5.24854 11.1476 5.21907 11.2188C5.18959 11.2899 5.18188 11.3682 5.19691 11.4438C5.21193 11.5193 5.24902 11.5887 5.30348 11.6432C5.35795 11.6976 5.42734 11.7347 5.50288 11.7498C5.57842 11.7648 5.65672 11.7571 5.72788 11.7276C5.79904 11.6981 5.85986 11.6482 5.90266 11.5842C5.94545 11.5201 5.96829 11.4448 5.96829 11.3678C5.9683 11.2654 5.92797 11.1671 5.85604 11.0942C5.78411 11.0214 5.68637 10.9797 5.58398 10.9784H5.57885ZM5.68134 11.3396C5.66005 11.3396 5.63925 11.3333 5.62155 11.3215C5.60386 11.3097 5.59007 11.2929 5.58192 11.2732C5.57378 11.2535 5.57165 11.2319 5.5758 11.211C5.57995 11.1902 5.5902 11.171 5.60525 11.1559C5.6203 11.1409 5.63947 11.1306 5.66034 11.1265C5.68122 11.1223 5.70285 11.1245 5.72252 11.1326C5.74218 11.1408 5.75898 11.1545 5.77081 11.1722C5.78263 11.1899 5.78894 11.2107 5.78894 11.232C5.78928 11.2462 5.78684 11.2602 5.78174 11.2734C5.77665 11.2866 5.769 11.2986 5.75925 11.3089C5.74949 11.3191 5.73782 11.3273 5.72489 11.333C5.71196 11.3387 5.69803 11.3419 5.6839 11.3422L5.68134 11.3396Z" fill="#10110E"/>
<path d="M9.40901 10.9784C9.33199 10.9779 9.25655 11.0002 9.19223 11.0426C9.12791 11.085 9.0776 11.1455 9.04766 11.2164C9.01772 11.2874 9.00949 11.3656 9.02402 11.4413C9.03855 11.5169 9.07518 11.5865 9.12929 11.6414C9.18339 11.6962 9.25253 11.7337 9.32797 11.7492C9.40341 11.7648 9.48176 11.7576 9.55312 11.7286C9.62447 11.6996 9.68562 11.6501 9.72883 11.5863C9.77204 11.5225 9.79538 11.4474 9.79588 11.3704C9.79622 11.3192 9.78648 11.2685 9.76722 11.2212C9.74796 11.1738 9.71956 11.1307 9.68364 11.0943C9.64771 11.0579 9.60497 11.0289 9.55785 11.009C9.51073 10.9891 9.46016 10.9787 9.40901 10.9784ZM9.52431 11.3396C9.51017 11.34 9.49611 11.3375 9.48293 11.3324C9.46974 11.3273 9.45769 11.3197 9.44746 11.3099C9.43723 11.3002 9.42902 11.2885 9.4233 11.2756C9.41758 11.2627 9.41447 11.2487 9.41414 11.2346C9.41411 11.2062 9.42501 11.179 9.44457 11.1584C9.46414 11.1379 9.49086 11.1257 9.51918 11.1244C9.53331 11.1241 9.54738 11.1265 9.56056 11.1316C9.57375 11.1367 9.5858 11.1444 9.59603 11.1541C9.60626 11.1639 9.61447 11.1755 9.62019 11.1885C9.6259 11.2014 9.62902 11.2153 9.62935 11.2295C9.62969 11.2433 9.62731 11.257 9.62234 11.2699C9.61738 11.2827 9.60992 11.2945 9.60041 11.3045C9.59089 11.3145 9.5795 11.3225 9.56688 11.3281C9.55426 11.3337 9.54066 11.3367 9.52687 11.3371L9.52431 11.3396Z" fill="#10110E"/>
<path opacity="0.2" d="M7.56699 14.1195C9.56211 14.1195 11.1795 12.954 11.1795 11.5164C11.1795 10.0788 9.56211 8.91337 7.56699 8.91337C5.57187 8.91337 3.9545 10.0788 3.9545 11.5164C3.9545 12.954 5.57187 14.1195 7.56699 14.1195Z" fill="#8ACCCE"/>
<path d="M11.9404 10.0689V8.34716C12.075 8.31644 12.1957 8.24239 12.2841 8.1364C12.3725 8.03041 12.4237 7.89834 12.4298 7.76045C12.412 7.59382 12.3332 7.43967 12.2085 7.32764C12.0839 7.21562 11.9222 7.15364 11.7547 7.15364C11.5871 7.15364 11.4254 7.21562 11.3008 7.32764C11.1762 7.43967 11.0974 7.59382 11.0796 7.76045C11.0868 7.89878 11.139 8.03096 11.2282 8.13687C11.3175 8.24279 11.4389 8.31663 11.574 8.34716V10.0253H11.5228C11.0104 8.24724 9.49622 7.13531 7.51832 7.13531C5.54042 7.13531 4.01856 8.23699 3.5164 10.0253H3.34474C3.15968 10.0169 2.9787 10.0814 2.84071 10.205C2.70273 10.3286 2.61876 10.5014 2.60687 10.6863V12.0032C2.61746 12.1888 2.70096 12.3626 2.83916 12.4869C2.97737 12.6112 3.15909 12.6759 3.34474 12.6668H3.57789C3.77355 13.1714 4.08925 13.6208 4.49767 13.976L4.16716 14.2757C4.14713 14.2927 4.13064 14.3135 4.11864 14.3369C4.10664 14.3602 4.09936 14.3857 4.09722 14.4119C4.09508 14.4381 4.09812 14.4644 4.10616 14.4894C4.11421 14.5144 4.1271 14.5376 4.1441 14.5576C4.89478 15.462 6.122 15.9923 7.50807 15.9923C8.89414 15.9923 10.1239 15.4799 10.8746 14.5576C10.9091 14.5167 10.926 14.4639 10.9217 14.4106C10.9174 14.3573 10.8922 14.3079 10.8515 14.2732L10.5185 13.9683C10.9259 13.6153 11.2415 13.1687 11.4383 12.6668H11.6945C11.8803 12.6758 12.0621 12.6108 12.2 12.4859C12.3378 12.361 12.4205 12.1864 12.4298 12.0006V10.6863C12.4253 10.5445 12.3753 10.4079 12.2871 10.2967C12.199 10.1855 12.0775 10.1056 11.9404 10.0689ZM7.51832 9.04404C9.34763 9.04404 10.8336 10.2482 10.8336 11.7265C10.8336 13.3278 9.16572 14.0323 7.51832 14.0323C5.87092 14.0323 4.20303 13.3227 4.20303 11.7137C4.20303 10.2482 5.68133 9.03123 7.51832 9.03123V9.04404Z" fill="white"/>
<path d="M12.0634 11.5702H11.5741V11.314C11.5741 10.9878 11.5406 10.6624 11.4742 10.343H11.6842C11.7756 10.3366 11.8658 10.3668 11.9349 10.4268C12.0041 10.4869 12.0466 10.5719 12.0532 10.6632L12.0634 11.5702Z" fill="#515151"/>
<path d="M11.6945 12.344H11.4383C11.4869 12.1605 11.5229 11.9739 11.5459 11.7854H12.0583V12.0032C12.0576 12.0483 12.0481 12.0928 12.0302 12.1342C12.0123 12.1756 11.9865 12.2131 11.9541 12.2445C11.9218 12.2759 11.8835 12.3006 11.8416 12.3172C11.7997 12.3339 11.7549 12.3421 11.7098 12.3414H11.6945V12.344Z" fill="#515151"/>
<path d="M7.51831 15.6541C6.29109 15.6541 5.1971 15.2135 4.51047 14.4295L4.84353 14.1195C5.63089 14.645 6.56179 14.9135 7.50806 14.8881C8.45465 14.9159 9.38625 14.6471 10.1726 14.1195L10.5185 14.4295C9.83953 15.2135 8.75578 15.6541 7.51831 15.6541Z" fill="#515151"/>
<path d="M3.34463 10.3558H3.56241C3.49806 10.6755 3.46545 11.0007 3.46505 11.3268C3.45992 11.4121 3.45992 11.4977 3.46505 11.583H2.98851V10.6863C2.98713 10.6004 3.01975 10.5175 3.07926 10.4556C3.13878 10.3937 3.22035 10.3578 3.3062 10.3558H3.34463Z" fill="#515151"/>
<path d="M7.51842 8.81089C7.10317 8.81322 6.69022 8.87271 6.2912 8.98767V7.64772C6.69054 7.53568 7.10368 7.48048 7.51842 7.48375C7.93401 7.48048 8.34799 7.53568 8.74821 7.64772V8.99536C8.35012 8.87134 7.93537 8.80912 7.51842 8.81089Z" fill="black"/>
<path d="M2.97571 11.7854H3.48812C3.51322 11.972 3.55002 12.1569 3.59829 12.3388H3.34208C3.25071 12.3452 3.16056 12.315 3.0914 12.255C3.02224 12.1949 2.97971 12.1099 2.97314 12.0186V11.7854H2.97571Z" fill="#515151"/>
<path d="M11.7559 8.03715C11.9257 8.03715 12.0634 7.91327 12.0634 7.76045C12.0634 7.60763 11.9257 7.48375 11.7559 7.48375C11.5861 7.48375 11.4485 7.60763 11.4485 7.76045C11.4485 7.91327 11.5861 8.03715 11.7559 8.03715Z" fill="#515151"/>
</g>
<defs>
<clipPath id="clip0_1228_29947">
<rect width="16" height="16" fill="white"/>
</clipPath>
</defs>
</svg>
