<!-- Copyright 2000-2022 JetBrains s.r.o. and contributors. Use of this source code is governed by the Apache 2.0 license. -->
<svg width="59" height="9" viewBox="0 0 59 9" fill="none" xmlns="http://www.w3.org/2000/svg">
<path d="M2.44531 8L0.226563 -2.38419e-07H1.49609L3.05469 6.19531H3.12891L4.75 -2.38419e-07H6.00781L7.62891 6.19922H7.70313L9.25781 -2.38419e-07H10.5313L8.30859 8H7.09375L5.41016 2.00781H5.34766L3.66406 8H2.44531ZM12.6934 8.13281C12.3132 8.13281 11.9694 8.0625 11.6621 7.92187C11.3548 7.77865 11.1113 7.57161 10.9316 7.30078C10.7546 7.02995 10.666 6.69792 10.666 6.30469C10.666 5.96615 10.7311 5.6875 10.8613 5.46875C10.9915 5.25 11.1673 5.07682 11.3887 4.94922C11.61 4.82161 11.8574 4.72526 12.1309 4.66016C12.4043 4.59505 12.6829 4.54557 12.9668 4.51172C13.3262 4.47005 13.6178 4.4362 13.8418 4.41016C14.0658 4.38151 14.2285 4.33594 14.3301 4.27344C14.4316 4.21094 14.4824 4.10937 14.4824 3.96875V3.94141C14.4824 3.60026 14.3861 3.33594 14.1934 3.14844C14.0033 2.96094 13.7194 2.86719 13.3418 2.86719C12.9486 2.86719 12.6387 2.95443 12.4121 3.12891C12.1882 3.30078 12.0332 3.49219 11.9473 3.70312L10.8496 3.45312C10.9798 3.08854 11.1699 2.79427 11.4199 2.57031C11.6725 2.34375 11.9629 2.17969 12.291 2.07812C12.6191 1.97396 12.9642 1.92188 13.3262 1.92188C13.5658 1.92188 13.8197 1.95052 14.0879 2.00781C14.3587 2.0625 14.6113 2.16406 14.8457 2.3125C15.0827 2.46094 15.2767 2.67318 15.4277 2.94922C15.5788 3.22266 15.6543 3.57813 15.6543 4.01563V8H14.5137V7.17969H14.4668C14.3913 7.33073 14.278 7.47917 14.127 7.625C13.9759 7.77083 13.7819 7.89193 13.5449 7.98828C13.3079 8.08464 13.0241 8.13281 12.6934 8.13281ZM12.9473 7.19531C13.2702 7.19531 13.5462 7.13151 13.7754 7.00391C14.0072 6.8763 14.1829 6.70964 14.3027 6.50391C14.4251 6.29557 14.4863 6.07292 14.4863 5.83594V5.0625C14.4447 5.10417 14.3639 5.14323 14.2441 5.17969C14.127 5.21354 13.9928 5.24349 13.8418 5.26953C13.6908 5.29297 13.5436 5.3151 13.4004 5.33594C13.2572 5.35417 13.1374 5.36979 13.041 5.38281C12.8145 5.41146 12.6074 5.45964 12.4199 5.52734C12.235 5.59505 12.0866 5.69271 11.9746 5.82031C11.8652 5.94531 11.8105 6.11198 11.8105 6.32031C11.8105 6.60937 11.9173 6.82812 12.1309 6.97656C12.3444 7.1224 12.6165 7.19531 12.9473 7.19531ZM17.21 8V2H18.3389V2.95312H18.4014C18.5107 2.63021 18.7035 2.3763 18.9795 2.19141C19.2581 2.00391 19.5732 1.91016 19.9248 1.91016C19.9977 1.91016 20.0837 1.91276 20.1826 1.91797C20.2842 1.92318 20.3636 1.92969 20.4209 1.9375V3.05469C20.374 3.04167 20.2907 3.02734 20.1709 3.01172C20.0511 2.99349 19.9313 2.98437 19.8115 2.98437C19.5355 2.98437 19.2894 3.04297 19.0732 3.16016C18.8597 3.27474 18.6904 3.4349 18.5654 3.64062C18.4404 3.84375 18.3779 4.07552 18.3779 4.33594V8H17.21ZM23.8027 8.12109C23.2116 8.12109 22.7025 7.99479 22.2754 7.74219C21.8509 7.48698 21.5228 7.12891 21.291 6.66797C21.0618 6.20443 20.9473 5.66146 20.9473 5.03906C20.9473 4.42448 21.0618 3.88281 21.291 3.41406C21.5228 2.94531 21.8457 2.57943 22.2598 2.31641C22.6764 2.05339 23.1634 1.92188 23.7207 1.92188C24.0592 1.92188 24.3874 1.97786 24.7051 2.08984C25.0228 2.20182 25.3079 2.3776 25.5605 2.61719C25.8132 2.85677 26.0124 3.16797 26.1582 3.55078C26.304 3.93099 26.377 4.39323 26.377 4.9375V5.35156H21.6074V4.47656H25.2324C25.2324 4.16927 25.1699 3.89714 25.0449 3.66016C24.9199 3.42057 24.7441 3.23177 24.5176 3.09375C24.2936 2.95573 24.0306 2.88672 23.7285 2.88672C23.4004 2.88672 23.1139 2.96745 22.8691 3.12891C22.627 3.28776 22.4395 3.49609 22.3066 3.75391C22.1764 4.00911 22.1113 4.28646 22.1113 4.58594V5.26953C22.1113 5.67057 22.1816 6.01172 22.3223 6.29297C22.4655 6.57422 22.6647 6.78906 22.9199 6.9375C23.1751 7.08333 23.4733 7.15625 23.8145 7.15625C24.0358 7.15625 24.2376 7.125 24.4199 7.0625C24.6022 6.9974 24.7598 6.90104 24.8926 6.77344C25.0254 6.64583 25.127 6.48828 25.1973 6.30078L26.3027 6.5C26.2142 6.82552 26.0553 7.11068 25.8262 7.35547C25.5996 7.59766 25.3145 7.78646 24.9707 7.92187C24.6296 8.05469 24.2402 8.12109 23.8027 8.12109ZM28.8408 4.4375V8H27.6729V-2.38419e-07H28.8252V2.97656H28.8994C29.04 2.65365 29.2549 2.39714 29.5439 2.20703C29.833 2.01693 30.2106 1.92188 30.6768 1.92188C31.0882 1.92188 31.4476 2.00651 31.7549 2.17578C32.0648 2.34505 32.3044 2.59766 32.4736 2.93359C32.6455 3.26693 32.7314 3.68359 32.7314 4.18359V8H31.5635V4.32422C31.5635 3.88411 31.4502 3.54297 31.2236 3.30078C30.9971 3.05599 30.682 2.93359 30.2783 2.93359C30.0023 2.93359 29.7549 2.99219 29.5361 3.10937C29.32 3.22656 29.1494 3.39844 29.0244 3.625C28.902 3.84896 28.8408 4.11979 28.8408 4.4375ZM36.8174 8.12109C36.2549 8.12109 35.764 7.99219 35.3447 7.73437C34.9255 7.47656 34.5999 7.11589 34.3682 6.65234C34.1364 6.1888 34.0205 5.64714 34.0205 5.02734C34.0205 4.40495 34.1364 3.86068 34.3682 3.39453C34.5999 2.92839 34.9255 2.56641 35.3447 2.30859C35.764 2.05078 36.2549 1.92188 36.8174 1.92188C37.3799 1.92188 37.8708 2.05078 38.29 2.30859C38.7093 2.56641 39.0348 2.92839 39.2666 3.39453C39.4984 3.86068 39.6143 4.40495 39.6143 5.02734C39.6143 5.64714 39.4984 6.1888 39.2666 6.65234C39.0348 7.11589 38.7093 7.47656 38.29 7.73437C37.8708 7.99219 37.3799 8.12109 36.8174 8.12109ZM36.8213 7.14062C37.1859 7.14062 37.488 7.04427 37.7275 6.85156C37.9671 6.65885 38.1442 6.40234 38.2588 6.08203C38.376 5.76172 38.4346 5.40885 38.4346 5.02344C38.4346 4.64062 38.376 4.28906 38.2588 3.96875C38.1442 3.64583 37.9671 3.38672 37.7275 3.19141C37.488 2.99609 37.1859 2.89844 36.8213 2.89844C36.4541 2.89844 36.1494 2.99609 35.9072 3.19141C35.6676 3.38672 35.4893 3.64583 35.3721 3.96875C35.2575 4.28906 35.2002 4.64062 35.2002 5.02344C35.2002 5.40885 35.2575 5.76172 35.3721 6.08203C35.4893 6.40234 35.6676 6.65885 35.9072 6.85156C36.1494 7.04427 36.4541 7.14062 36.8213 7.14062ZM44.7188 5.51172V2H45.8906V8H44.7422V6.96094H44.6797C44.5417 7.28125 44.3203 7.54818 44.0156 7.76172C43.7135 7.97266 43.3372 8.07813 42.8867 8.07813C42.5013 8.07813 42.1602 7.99349 41.8633 7.82422C41.569 7.65234 41.3372 7.39844 41.168 7.0625C41.0013 6.72656 40.918 6.3112 40.918 5.81641V2H42.0859V5.67578C42.0859 6.08464 42.1992 6.41016 42.4258 6.65234C42.6523 6.89453 42.9466 7.01562 43.3086 7.01562C43.5273 7.01562 43.7448 6.96094 43.9609 6.85156C44.1797 6.74219 44.3607 6.57682 44.5039 6.35547C44.6497 6.13411 44.7214 5.85286 44.7188 5.51172ZM51.9561 3.46484L50.8975 3.65234C50.8532 3.51693 50.7829 3.38802 50.6865 3.26562C50.5928 3.14323 50.4652 3.04297 50.3037 2.96484C50.1423 2.88672 49.9404 2.84766 49.6982 2.84766C49.3675 2.84766 49.0915 2.92187 48.8701 3.07031C48.6488 3.21615 48.5381 3.40495 48.5381 3.63672C48.5381 3.83724 48.6123 3.9987 48.7607 4.12109C48.9092 4.24349 49.1488 4.34375 49.4795 4.42187L50.4326 4.64062C50.9847 4.76823 51.3962 4.96484 51.667 5.23047C51.9378 5.49609 52.0732 5.84115 52.0732 6.26563C52.0732 6.625 51.9691 6.94531 51.7607 7.22656C51.555 7.50521 51.2673 7.72396 50.8975 7.88281C50.5303 8.04167 50.1045 8.12109 49.6201 8.12109C48.9482 8.12109 48.4001 7.97786 47.9756 7.69141C47.5511 7.40234 47.2907 6.99219 47.1943 6.46094L48.3232 6.28906C48.3936 6.58333 48.5381 6.80599 48.7568 6.95703C48.9756 7.10547 49.2607 7.17969 49.6123 7.17969C49.9951 7.17969 50.3011 7.10026 50.5303 6.94141C50.7594 6.77995 50.874 6.58333 50.874 6.35156C50.874 6.16406 50.8037 6.00651 50.6631 5.87891C50.5251 5.7513 50.3128 5.65495 50.0264 5.58984L49.0107 5.36719C48.4508 5.23958 48.0368 5.03646 47.7686 4.75781C47.5029 4.47917 47.3701 4.1263 47.3701 3.69922C47.3701 3.34505 47.4691 3.03516 47.667 2.76953C47.8649 2.50391 48.1383 2.29687 48.4873 2.14844C48.8363 1.9974 49.236 1.92188 49.6865 1.92188C50.335 1.92188 50.8454 2.0625 51.2178 2.34375C51.5902 2.6224 51.8363 2.99609 51.9561 3.46484ZM55.9434 8.12109C55.3522 8.12109 54.8431 7.99479 54.416 7.74219C53.9915 7.48698 53.6634 7.12891 53.4316 6.66797C53.2025 6.20443 53.0879 5.66146 53.0879 5.03906C53.0879 4.42448 53.2025 3.88281 53.4316 3.41406C53.6634 2.94531 53.9863 2.57943 54.4004 2.31641C54.8171 2.05339 55.304 1.92188 55.8613 1.92188C56.1999 1.92188 56.528 1.97786 56.8457 2.08984C57.1634 2.20182 57.4486 2.3776 57.7012 2.61719C57.9538 2.85677 58.153 3.16797 58.2988 3.55078C58.4447 3.93099 58.5176 4.39323 58.5176 4.9375V5.35156H53.748V4.47656H57.373C57.373 4.16927 57.3105 3.89714 57.1855 3.66016C57.0605 3.42057 56.8848 3.23177 56.6582 3.09375C56.4342 2.95573 56.1712 2.88672 55.8691 2.88672C55.541 2.88672 55.2546 2.96745 55.0098 3.12891C54.7676 3.28776 54.5801 3.49609 54.4473 3.75391C54.3171 4.00911 54.252 4.28646 54.252 4.58594V5.26953C54.252 5.67057 54.3223 6.01172 54.4629 6.29297C54.6061 6.57422 54.8053 6.78906 55.0605 6.9375C55.3158 7.08333 55.6139 7.15625 55.9551 7.15625C56.1764 7.15625 56.3783 7.125 56.5605 7.0625C56.7428 6.9974 56.9004 6.90104 57.0332 6.77344C57.166 6.64583 57.2676 6.48828 57.3379 6.30078L58.4434 6.5C58.3548 6.82552 58.196 7.11068 57.9668 7.35547C57.7402 7.59766 57.4551 7.78646 57.1113 7.92187C56.7702 8.05469 56.3809 8.12109 55.9434 8.12109Z" fill="#818594"/>
</svg>
