<svg width="48" height="48" viewBox="0 0 48 48" fill="none" xmlns="http://www.w3.org/2000/svg">
<path d="M40.9657 46.041H18.3808C16.9996 46.041 15.6751 45.4925 14.6985 44.5159C13.7219 43.5393 13.1732 42.2146 13.1732 40.8335V35.2487C13.1732 32.3726 16.5047 30.0411 18.3808 30.0411H40.9657C41.6495 30.0411 42.3267 30.1758 42.9585 30.4375C43.5903 30.6992 44.1644 31.0828 44.648 31.5664C45.1315 32.05 45.5151 32.6241 45.7768 33.2559C46.0385 33.8877 46.1732 34.5648 46.1732 35.2487V40.8336C46.1732 42.2147 45.6245 43.5393 44.6479 44.5159C43.6713 45.4925 42.3468 46.041 40.9657 46.041V46.041Z" fill="#FDB60D"/>
<path d="M19.8004 34.4359H25.4646V35.9061H21.4417V37.4293H24.982V38.8988H21.4417V40.4758H25.5184V41.9453H19.8004L19.8004 34.4359Z" fill="black"/>
<path d="M29.5622 34.3828H31.0855L34.3038 41.9453H32.5766L31.89 40.2615H28.715L28.0285 41.9453H26.3446L29.5622 34.3828ZM31.3006 38.8024L30.3026 36.3671L29.3052 38.8024H31.3006Z" fill="black"/>
<path d="M35.4625 34.4359H38.5307C38.895 34.3927 39.2644 34.4279 39.6139 34.5392C39.9635 34.6504 40.2853 34.8351 40.5575 35.081C40.8298 35.3269 41.0463 35.6282 41.1926 35.9647C41.3388 36.3012 41.4114 36.665 41.4054 37.0318V37.0536C41.4054 38.7912 40.0539 39.6928 38.3701 39.6928H37.115V41.9453H35.4625V34.4359ZM38.4231 38.2228C38.5855 38.2434 38.7504 38.2295 38.907 38.182C39.0636 38.1345 39.2084 38.0544 39.332 37.9471C39.4555 37.8398 39.555 37.7075 39.6239 37.5591C39.6929 37.4106 39.7297 37.2493 39.732 37.0857V37.0641C39.732 36.3244 39.2172 35.9271 38.391 35.9271H37.115V38.2228H38.4231Z" fill="black"/>
</svg>
