<svg width="70" height="70" viewBox="0 0 70 70" fill="none" xmlns="http://www.w3.org/2000/svg">
<path d="M58.7798 67.1025H27.077C25.0269 67.0807 23.0695 66.2455 21.6352 64.7806C20.2008 63.3158 19.407 61.3412 19.4284 59.2911V50.9138C19.407 48.8638 20.2008 46.8892 21.6352 45.4243C23.0695 43.9595 25.0269 43.1243 27.077 43.1025H58.7798C60.8299 43.1243 62.7873 43.9595 64.2216 45.4243C65.656 46.8892 66.4497 48.8638 66.4284 50.9138V59.2911C66.4497 61.3412 65.656 63.3158 64.2216 64.7806C62.7873 66.2455 60.8299 67.0807 58.7798 67.1025V67.1025Z" fill="#FDB60D"/>
<path d="M27.8014 49.845H36.0617V51.9889H30.1949V54.2103H35.3579V56.3534H30.1949V58.6532H36.1401V60.7961H27.8014V49.845Z" fill="black"/>
<path d="M42.0374 49.7676H44.2589L48.9523 60.7961H46.4334L45.4322 58.3405H40.802L39.8008 60.7961H37.3451L42.0374 49.7676ZM44.5725 56.2128L43.1171 52.6611L41.6626 56.2128H44.5725Z" fill="black"/>
<path d="M50.642 49.845H55.1164C57.7289 49.845 59.3086 51.3942 59.3086 53.6309V53.6624C59.3086 56.1965 57.3378 57.5114 54.8821 57.5114H53.0518V60.7961H50.642V49.845ZM54.9595 55.3674C55.1963 55.3975 55.4367 55.3773 55.6651 55.308C55.8935 55.2387 56.1047 55.122 56.2849 54.9655C56.4651 54.8089 56.6102 54.6161 56.7107 54.3997C56.8112 54.1832 56.8649 53.9479 56.8682 53.7092V53.6776C56.8682 52.599 56.1176 52.0195 54.9127 52.0195H53.0518V55.3674H54.9595Z" fill="black"/>
</svg>
