<svg width="24" height="24" viewBox="0 0 24 24" fill="none" xmlns="http://www.w3.org/2000/svg">
<path d="M20.5694 23.041H9.27699C8.58643 23.041 7.92415 22.7667 7.43584 22.2784C6.94754 21.7901 6.67322 21.1278 6.67322 20.4373V17.6449C6.75514 16.9829 7.05581 16.3671 7.52752 15.8954C7.99922 15.4237 8.61495 15.1229 9.27699 15.041H20.5694C21.26 15.041 21.9223 15.3154 22.4106 15.8037C22.8989 16.292 23.1732 16.9543 23.1732 17.6449V20.4373C23.1732 21.1278 22.8989 21.7901 22.4106 22.2784C21.9223 22.7667 21.26 23.041 20.5694 23.041V23.041Z" fill="#FDB60D"/>
<path d="M9.98684 17.2385H12.8189V17.9735H10.8075V18.7352H12.5776V19.47H10.8075V20.2584H12.8458V20.9932H9.98682L9.98684 17.2385Z" fill="black"/>
<path d="M14.8678 17.2119H15.6294L17.2386 20.9932H16.375L16.0317 20.1512H14.4442L14.1009 20.9932H13.2589L14.8678 17.2119ZM15.737 19.4218L15.238 18.2041L14.7393 19.4218H15.737Z" fill="black"/>
<path d="M17.8179 17.2386H19.3519C19.5341 17.217 19.7188 17.2346 19.8936 17.2902C20.0684 17.3459 20.2292 17.4381 20.3654 17.5611C20.5015 17.684 20.6098 17.8347 20.6829 18.003C20.756 18.1712 20.7923 18.3531 20.7893 18.5365V18.5474C20.7878 18.7376 20.7458 18.9251 20.6663 19.0978C20.5867 19.2705 20.4714 19.4245 20.3279 19.5492C20.1844 19.674 20.016 19.7669 19.8339 19.8217C19.6518 19.8765 19.4602 19.8919 19.2716 19.867H18.6441V20.9932H17.8179L17.8179 17.2386ZM19.2982 19.132C19.3794 19.1423 19.4618 19.1354 19.5401 19.1116C19.6184 19.0879 19.6908 19.0477 19.7526 18.9941C19.8144 18.9404 19.8641 18.8743 19.8986 18.8001C19.9331 18.7259 19.9515 18.6452 19.9526 18.5634V18.5527C19.9526 18.1828 19.6953 17.9841 19.2821 17.9841H18.6441V19.132H19.2982Z" fill="black"/>
</svg>
