<svg width="16" height="16" viewBox="0 0 16 16" fill="none" xmlns="http://www.w3.org/2000/svg">
<path fill-rule="evenodd" clip-rule="evenodd" d="M7.5 12.5L11 9V16L7.5 12.5Z" fill="#F26522"/>
<path fill-rule="evenodd" clip-rule="evenodd" d="M15.5 12.5L12 16L12 9L15.5 12.5Z" fill="#62B543"/>
<path d="M8.05553 1C3.71741 3.4758 1.02469 8.11458 1 13.1529C3.4029 14.477 6.02731 15.0762 8.57807 14.9923L6.08594 12.5002L7.15938 11.4267C5.80684 10.2968 5.00205 8.60436 5 6.79576L5.00063 6.78047C6.77077 5.75637 9.05475 5.71968 11 6.79162C10.9986 7.08188 10.9765 7.36904 10.9348 7.65128L11.0002 7.58594H12.0002L14.7081 10.2939C13.9101 6.42257 11.5182 3.01943 8.05553 1Z" fill="#39207C"/>
</svg>
