<svg width="16" height="16" viewBox="0 0 16 16" fill="none" xmlns="http://www.w3.org/2000/svg">
<path fill-rule="evenodd" clip-rule="evenodd" d="M15.6458 12.0156V15.5872L14.3873 14.3279C13.603 15.1283 12.4917 15.6009 11.2846 15.5376C9.29187 15.4332 7.71166 13.9038 7.4796 11.9886L8.84069 12.1069C9.10854 13.2636 10.115 14.1524 11.3599 14.2176C12.1763 14.2604 12.9277 13.9403 13.4575 13.3983L12.074 12.0156L15.6458 12.0156ZM11.7081 7.45657C13.6744 7.55962 15.239 9.04997 15.5032 10.9294L14.1506 10.8116C13.8624 9.68414 12.8693 8.82473 11.6459 8.76061C10.7936 8.71595 10.0121 9.06685 9.47962 9.65281L10.9132 11.0863H7.34143L7.34143 7.51463L8.54996 8.72401C9.33693 7.88868 10.4723 7.3918 11.7081 7.45657Z" fill="#3592C4"/>
<path d="M8.05553 1C3.71741 3.4758 1.02469 8.11458 1 13.1529C3.13291 14.3282 5.44035 14.9324 7.7159 14.9946C6.97431 14.2228 6.47824 13.2178 6.3439 12.1091L6.34116 12.0865L6.34116 10.9089L6.33838 10.8859L6.34116 10.8861V10.5944C5.48862 9.53835 5.0016 8.20219 5 6.79576L5.00063 6.78047C6.62391 5.84134 8.6793 5.73256 10.5093 6.54764C10.9121 6.46757 11.3313 6.43573 11.7602 6.4582C12.391 6.49126 12.9884 6.63872 13.5337 6.87941C12.3364 4.459 10.4525 2.39795 8.05553 1Z" fill="white"/>
</svg>
