<svg width="40" height="40" viewBox="0 0 40 40" fill="none" xmlns="http://www.w3.org/2000/svg">
  <path fill-rule="evenodd" clip-rule="evenodd" d="M7 26H0V40H6.99934H7C10.85 40 14 36.85 14 33C14 29.15 10.85 26 7 26"
        fill="url(#paint0_linear_3419_198)"/>
  <path fill-rule="evenodd" clip-rule="evenodd"
        d="M19.2679 9.9059C21.3496 8.62189 25.2122 7.533 28.6968 7.54651C29.1946 7.54844 29.6803 7.57428 30.1401 7.62717C32.6234 7.9129 35.1806 9.01351 36.9359 10.7932C37.794 11.6632 38.1787 12.234 38.4282 13.1209C38.8318 14.5555 38.758 16.1606 38.3331 17.589C37.551 20.2185 35.97 22.6865 33.9802 24.575C32.635 25.8517 30.8654 26.6388 29.1232 27.2916C29.0855 27.187 29.0465 27.0811 28.9993 26.9805C28.9108 26.8481 28.7843 26.737 28.6478 26.655C28.4438 26.5323 28.2074 26.4668 27.9737 26.4216C27.6716 26.3632 27.3601 26.3693 27.0523 26.3753L27.0432 26.3755C26.5641 26.3849 26.0851 26.4325 25.6114 26.5052C25.5119 26.5204 25.4118 26.5347 25.3114 26.549C24.8144 26.6198 24.3126 26.6913 23.8541 26.8883C23.7567 26.9302 23.6727 26.9963 23.5885 27.0626C23.5219 27.115 23.4552 27.1675 23.3817 27.2081C22.7162 27.5754 22.1148 27.8357 21.2931 28.1213C20.4337 28.42 19.7772 28.597 18.6744 28.8905C18.5703 28.9182 18.656 29.4356 18.709 29.7057H18.6773C17.8722 29.8069 17.0676 29.8955 16.2632 29.9737C16.0092 29.9983 15.7543 30.0215 15.4987 30.042C15.111 28.9346 14.5122 27.9245 13.751 27.0607C14.6991 26.8276 15.636 26.5471 16.5657 26.2488C17.5101 25.9457 18.4378 25.5909 19.3601 25.2261L19.4394 25.1947C20.354 24.833 21.2707 24.4705 22.1545 24.0392C22.8881 23.6812 23.6007 23.2817 24.2949 22.8523C24.6024 22.6621 24.891 22.4565 25.1842 22.2475C25.4025 22.0921 25.6233 21.9347 25.8563 21.7806C26.9486 21.0582 27.4379 20.4756 27.4379 20.4756C27.4379 20.4756 25.6161 21.5163 24.6925 22.014C24.6337 22.0456 24.5749 22.0773 24.5161 22.1091C23.9516 22.4137 23.3863 22.7186 22.8055 22.9906C22.1103 23.3161 21.3972 23.6022 20.6845 23.8881C20.5378 23.947 20.391 24.0059 20.2445 24.0651C19.1947 24.4892 18.3124 24.8289 17.0785 25.2952C15.9482 25.7223 14.9156 26.0854 13.8379 26.4642C13.7775 26.4855 13.7169 26.5068 13.6561 26.5282C13.5619 26.5613 13.4594 26.5972 13.3508 26.6349C12.1471 25.4339 10.6071 24.5699 8.88776 24.2C9.59802 23.8621 10.3842 23.4906 10.9337 23.2383C12.2991 22.6116 13.6722 22.0003 15.0533 21.409C17.0276 20.5636 19.016 19.7477 21.0108 18.9517C22.7424 18.2606 26.2279 16.938 26.2279 16.938C26.2279 16.938 24.0717 17.428 23.0101 17.7331C22.2507 17.9513 21.5031 18.2071 20.7554 18.463C20.3552 18.6 19.9551 18.7369 19.5531 18.8681C17.8461 19.4252 16.5796 20.0171 15.2023 20.6608C14.5871 20.9483 13.9498 21.2462 13.2412 21.5559C11.0785 22.5012 9.46388 23.4524 8.44868 24.117C7.97682 24.04 7.49288 24 6.99993 24H5.68115C5.68994 23.9011 5.70084 23.8027 5.71366 23.705C5.71733 23.677 5.7212 23.6493 5.72518 23.6215C5.72572 23.6182 5.72615 23.6149 5.72659 23.6116C5.72704 23.6081 5.72749 23.6047 5.72806 23.6013C5.86114 22.8088 6.13126 22.0241 6.48571 21.2995C6.4882 21.2944 6.49048 21.2892 6.49276 21.284C6.49513 21.2786 6.49751 21.2731 6.50012 21.2678C6.52172 21.2265 6.54409 21.1849 6.56638 21.144C6.57576 21.1256 6.58562 21.1073 6.59545 21.089C6.60215 21.0766 6.60884 21.0641 6.61535 21.0518C6.85371 20.6263 7.12728 20.2223 7.42774 19.8476C9.6711 17.0498 16.8912 11.4903 16.8912 11.4903C17.6914 10.9232 18.4898 10.3858 19.2679 9.9059ZM26.1617 13.3398C26.1617 13.3398 25.5362 13.1665 24.4073 13.1699C24.246 13.1703 24.073 13.1756 23.8916 13.1843C23.3315 13.2111 22.7102 13.2708 22.1257 13.3658C21.3234 13.496 20.5209 13.6596 19.7432 13.8958C18.7196 14.2067 17.7295 14.623 16.7529 15.0597C15.5032 15.6186 14.285 16.2474 13.0914 16.9178C8.91687 19.2624 7.34708 21.2909 7.34708 21.2909C7.34708 21.2909 9.18913 20.0572 10.1328 19.476L10.2331 19.4142C11.5805 18.5843 12.931 17.7525 14.3388 17.0302C16.2159 16.067 18.1167 15.1203 20.1148 14.4432C21.1396 14.0959 22.4547 13.8427 23.2722 13.6971C24.3044 13.5132 26.1617 13.3398 26.1617 13.3398ZM29.0223 24.0622C29.9409 23.1215 29.9701 22.7601 29.9701 22.7601C29.9701 22.7601 29.205 23.4737 28.8034 23.8087C28.3733 24.1674 27.9261 24.5088 27.4724 24.8372C26.7021 25.3948 25.1102 26.436 25.1102 26.436C25.1102 26.436 25.9694 26.1823 27.5819 25.1886C27.998 24.9322 28.6514 24.4421 29.0223 24.0622Z"
        fill="#4682FA"/>
  <path d="M15.8224 12.2653L16.8912 11.4903C16.5347 11.743 16.1771 12.0018 15.8224 12.2653Z" fill="#4682FA"/>
  <path
    d="M9.2052 15.8692C9.39994 15.5419 9.71699 15.1079 10.0867 15.1058C10.1114 15.1056 10.1365 15.1077 10.1616 15.1115C10.4658 15.1582 10.734 15.4692 10.9481 15.8289C10.394 16.2606 9.59443 16.898 8.79325 17.5833C8.84478 17.0082 8.95566 16.2886 9.2052 15.8692Z"
    fill="#4682FA"/>
  <path fill-rule="evenodd" clip-rule="evenodd"
        d="M26.0407 26.8422C26.3449 26.8085 26.5956 26.7947 26.83 26.7932C27.0645 26.7917 27.2851 26.8027 27.5329 26.8192C27.5883 26.8228 27.6444 26.8249 27.7008 26.827C27.9114 26.8348 28.1248 26.8427 28.3108 26.9344C28.4511 27.0036 28.5678 27.1255 28.6478 27.2599C28.6753 27.306 28.6988 27.3752 28.717 27.4443C28.6909 27.4538 28.6647 27.463 28.6385 27.4723C28.6214 27.4783 28.6044 27.4843 28.5873 27.4904L28.1033 29.5012C28.0158 29.8662 21.4523 29.7612 19.2823 29.7173C19.1403 29.5192 18.991 29.2598 19.1498 29.2218C19.9541 29.029 20.103 28.9836 20.4568 28.8756C20.5053 28.8608 20.5577 28.8448 20.6161 28.8271C20.7169 28.7965 20.818 28.7665 20.9192 28.7365C21.4076 28.5915 21.897 28.4462 22.3619 28.2394C22.6104 28.1289 22.8436 27.988 23.0769 27.8472C23.2102 27.7667 23.3435 27.6862 23.4796 27.6114C23.5463 27.5748 23.6076 27.5357 23.6689 27.4966C23.7994 27.4134 23.9298 27.3302 24.1105 27.2715L24.1246 27.2669C24.8595 27.0278 25.1145 26.9449 26.0407 26.8422ZM28.4865 27.5077C28.4879 27.3787 28.277 27.3392 28.0169 27.3348C27.8456 27.332 27.6533 27.3438 27.4863 27.3541C27.3997 27.3594 27.32 27.3643 27.2535 27.3665C26.7265 27.3842 26.1916 27.449 25.6444 27.5152C25.6018 27.5204 25.5591 27.5256 25.5164 27.5307C24.4985 27.6535 23.3529 27.9254 23.3529 27.9254C23.3529 27.9254 23.8095 27.9494 24.0385 27.9484C24.2118 27.9477 24.3729 27.9477 24.5272 27.9477C25.4348 27.9477 26.1058 27.9477 27.6136 27.7986C27.6565 27.7944 27.7074 27.7911 27.7627 27.7876C28.0597 27.7687 28.484 27.7417 28.4865 27.5077ZM27.2996 28.4727C27.0902 28.4436 26.8779 28.437 26.6658 28.4411C26.483 28.4446 26.2991 28.456 26.1166 28.4673C26.0874 28.4692 26.0583 28.471 26.0292 28.4727C25.2314 28.5215 24.4361 28.6246 23.6496 28.7666C23.297 28.8302 22.6039 29.0143 22.6039 29.0143C22.6039 29.0143 24.8264 29.0532 25.937 29.0201C26.2888 29.0096 26.6367 28.9849 26.9893 28.9598C27.0856 28.9529 27.1823 28.9461 27.2794 28.9394C27.3054 28.9377 27.3305 28.936 27.3546 28.9344C27.6809 28.9126 27.8377 28.9022 27.8815 28.8098C27.9047 28.761 27.8381 28.6588 27.7807 28.611C27.6702 28.5192 27.5167 28.5001 27.3706 28.4819C27.3467 28.4789 27.3229 28.476 27.2996 28.4727Z"
        fill="#4682FA"/>
  <defs>
    <linearGradient id="paint0_linear_3419_198" x1="-6.79883" y1="27.9631" x2="1.0516" y2="39.8599" gradientUnits="userSpaceOnUse">
      <stop stop-color="#FF45ED"/>
      <stop offset="1" stop-color="#6B57FF"/>
    </linearGradient>
  </defs>
</svg>
