<svg width="16" height="17" viewBox="0 0 16 17" fill="none" xmlns="http://www.w3.org/2000/svg">
<g clip-path="url(#clip0_0_13)">
<path d="M6.15216 11.1667V5.07143H7.44084V10.1042H10.0539V11.1667H6.15216Z" fill="#565360"/>
<path d="M1.51623 4.45477C1.52598 5.66328 1.53573 6.87079 1.60547 8.07481C1.68281 9.38913 2.0625 10.6552 2.72344 11.8043C3.86954 13.8136 5.6836 15.004 7.84927 15.7472C7.94769 15.7816 8.08128 15.7678 8.1797 15.7265L8.34327 15.6603C8.78335 15.4825 9.23094 15.3016 9.65627 15.0935C12.2649 13.8067 13.7414 11.708 14.2407 8.9212C14.5219 7.35918 14.5219 5.77658 14.4797 4.19396C14.4705 3.89597 14.4734 3.59798 14.4764 3.29027L14.4765 3.28305C14.4792 3.01447 14.2635 2.79754 13.9967 2.78734C11.8725 2.70608 9.9734 2.11413 8.37612 0.747042C8.1467 0.550683 7.80527 0.551027 7.57626 0.747877C5.8678 2.21644 3.82989 2.78212 1.58283 2.80358C1.55102 2.80388 1.52348 2.82641 1.51627 2.85758C1.50712 2.8972 1.5 2.92803 1.5 2.96225C1.5082 3.45982 1.51222 3.95738 1.51623 4.45477ZM2.5581 3.81486C4.51095 3.65943 6.35958 3.06571 7.97728 1.77979C9.58854 3.05478 11.4416 3.65537 13.4263 3.80948C13.4267 3.9465 13.4285 4.08514 13.4328 4.22442C13.4748 5.79751 13.4707 7.28651 13.2101 8.73343C12.7668 11.2078 11.4895 13.0153 9.19663 14.1468C8.81656 14.3327 8.41089 14.4976 7.97317 14.6745C6.06741 13.984 4.57808 12.9389 3.63184 11.28L3.62995 11.2767C3.05005 10.2685 2.71864 9.16172 2.65098 8.013C2.58305 6.8399 2.5733 5.65898 2.56351 4.44622C2.56182 4.2366 2.56012 4.02603 2.5581 3.81486Z" fill="#565360"/>
</g>
<defs>
<clipPath id="clip0_0_13">
<rect width="16" height="16" fill="white" transform="translate(0 0.5)"/>
</clipPath>
</defs>
</svg>
