<svg width="16" height="17" viewBox="0 0 16 17" fill="none" xmlns="http://www.w3.org/2000/svg">
<g clip-path="url(#clip0_0_17)">
<path fill-rule="evenodd" clip-rule="evenodd" d="M1.60547 8.07481C1.53573 6.87079 1.52598 5.66328 1.51623 4.45477C1.51222 3.95738 1.5082 3.45982 1.5 2.96225C1.5 2.92803 1.5071 2.89727 1.51626 2.85764L1.51627 2.85758C1.52348 2.82641 1.55102 2.80388 1.58283 2.80358C3.82989 2.78212 5.8678 2.21644 7.57626 0.747877C7.80527 0.551027 8.1467 0.550683 8.37612 0.747042C9.9734 2.11413 11.8725 2.70608 13.9967 2.78734C14.2635 2.79754 14.4792 3.01447 14.4765 3.28305L14.4764 3.29027V3.29031C14.4734 3.59801 14.4705 3.89598 14.4797 4.19396C14.5219 5.77658 14.5219 7.35918 14.2407 8.9212C13.7414 11.708 12.2649 13.8067 9.65627 15.0935C9.23094 15.3016 8.78335 15.4825 8.34327 15.6603L8.1797 15.7265C8.08128 15.7678 7.94769 15.7816 7.84927 15.7472C5.6836 15.004 3.86954 13.8136 2.72344 11.8043C2.0625 10.6552 1.68281 9.38913 1.60547 8.07481ZM7.97728 1.77979C6.35958 3.06571 4.51095 3.65943 2.5581 3.81486C2.56012 4.02603 2.56182 4.2366 2.56351 4.44622V4.44622C2.5733 5.65898 2.58305 6.8399 2.65098 8.013C2.71864 9.16172 3.05005 10.2685 3.62995 11.2767L3.63185 11.28C4.57808 12.9389 6.06741 13.984 7.97317 14.6745C8.41089 14.4976 8.81656 14.3327 9.19663 14.1468C11.4895 13.0153 12.7667 11.2087 13.21 8.73434L13.2101 8.73343C13.4707 7.2865 13.4748 5.79751 13.4328 4.22442C13.4285 4.08514 13.4267 3.9465 13.4263 3.80948C11.4416 3.65537 9.58854 3.05478 7.97728 1.77979ZM6.24777 5.07143H4.65848V11.1667H5.90847L5.96503 7.19943L7.53645 11.1369H8.38765L10.0156 7.19943V11.1667H11.2656V5.07143H9.67634L7.92632 9.16666L6.24777 5.07143Z" fill="#F9AE4D"/>
</g>
<defs>
<clipPath id="clip0_0_17">
<rect width="16" height="16" fill="white" transform="translate(0 0.5)"/>
</clipPath>
</defs>
</svg>
