<!-- Copyright © 2000–2024 JetBrains s.r.o. -->
<svg width="16" height="16" viewBox="0 0 16 16" xmlns="http://www.w3.org/2000/svg">
  <path fill="#afb1b3" d="M9 13.5V15H7v-1.5zm-5.06 0L3.75 15H5.5v-1.5zm-.44-1.75H2v1.5l1.5-.19zm7 1.75V15h1.75l-.19-1.5zM12.82 1H3.18C2.53 1 2 1.53 2 2.18v8.32h1.5v-8h9v8H14V2.18C14 1.53 13.47 1 12.82 1m-.32 12.06 1.5.19v-1.5h-1.5z"/>
  <path fill="#afb1b3" d="M8.2 7.42c.37-.33.68-.63.68-1.12 0-.53-.35-.9-.88-.9-.58 0-.97.39-.97 1.01H5.97c0-1.22.82-1.95 2.05-1.95 1.13 0 1.96.65 1.95 1.77 0 .79-.36 1.19-.91 1.66-.3.26-.6.51-.6.91v.17H7.45v-.22c0-.6.32-.93.76-1.32Zm-.85 2.35h1.23V11H7.35z"/>
</svg>
