<svg width="16" height="16" viewBox="0 0 16 16" fill="none" xmlns="http://www.w3.org/2000/svg">
<path fill-rule="evenodd" clip-rule="evenodd" d="M1 16H16V9H1V16Z" fill="#62B543" fill-opacity="0.7"/>
<path fill-rule="evenodd" clip-rule="evenodd" d="M7 1L3 5H7V1Z" fill="#9AA7B0" fill-opacity="0.8"/>
<path fill-rule="evenodd" clip-rule="evenodd" d="M8 1V6H3V8H13V1H8Z" fill="#9AA7B0" fill-opacity="0.8"/>
<path d="M5.09946 11.416V12.1125H5.08196V16H5.91146V11.416H5.09946ZM3.85346 15.084C4.1498 15.084 4.40996 15.0187 4.63396 14.888C4.85796 14.7574 5.0318 14.573 5.15546 14.335C5.28146 14.097 5.3468 13.8217 5.35146 13.509H5.10296V12.907H5.35146C5.3468 12.5944 5.28146 12.319 5.15546 12.081C5.0318 11.843 4.8568 11.6587 4.63046 11.528C4.40646 11.3974 4.14746 11.332 3.85346 11.332C3.52913 11.332 3.24096 11.4114 2.98896 11.57C2.73696 11.7264 2.5398 11.9469 2.39746 12.2315C2.25746 12.5162 2.18746 12.8417 2.18746 13.208C2.18746 13.5744 2.25746 13.8999 2.39746 14.1845C2.5398 14.4692 2.73696 14.6909 2.98896 14.8495C3.2433 15.0059 3.53146 15.084 3.85346 15.084ZM4.05996 14.3385C3.86396 14.3385 3.68896 14.2907 3.53496 14.195C3.3833 14.0994 3.2643 13.9664 3.17796 13.796C3.09396 13.6257 3.05196 13.4297 3.05196 13.208C3.05196 12.9864 3.09396 12.7904 3.17796 12.62C3.2643 12.4497 3.3833 12.3167 3.53496 12.221C3.68896 12.1254 3.86396 12.0775 4.05996 12.0775C4.26063 12.0775 4.43796 12.1254 4.59196 12.221C4.74596 12.3167 4.86613 12.4497 4.95246 12.62C5.0388 12.7904 5.08196 12.9864 5.08196 13.208C5.08196 13.4297 5.0388 13.6257 4.95246 13.796C4.86613 13.9664 4.74596 14.0994 4.59196 14.195C4.43796 14.2907 4.26063 14.3385 4.05996 14.3385Z" fill="#1B1B1B"/>
<path d="M6.88982 11.416H7.71582V12.8055L7.43932 13.033C7.44865 12.697 7.50582 12.4054 7.61082 12.158C7.71815 11.9107 7.86632 11.7217 8.05532 11.591C8.24665 11.458 8.47065 11.3915 8.72732 11.3915H8.86032V12.2315H8.62232C8.44032 12.2292 8.28049 12.2619 8.14282 12.3295C8.00749 12.3972 7.90366 12.494 7.83132 12.62C7.75899 12.746 7.72282 12.8942 7.72282 13.0645V15H6.88982V11.416Z" fill="#1B1B1B"/>
<path d="M11.0666 15.084C10.719 15.084 10.4028 15.0024 10.1181 14.839C9.83347 14.6757 9.60947 14.4517 9.44613 14.167C9.2828 13.88 9.20113 13.5604 9.20113 13.208C9.20113 12.8557 9.2828 12.5372 9.44613 12.2525C9.60947 11.9655 9.83347 11.7404 10.1181 11.577C10.4028 11.4137 10.719 11.332 11.0666 11.332C11.3746 11.332 11.6523 11.3869 11.8996 11.4965C12.1493 11.6062 12.3535 11.766 12.5121 11.976C12.6708 12.186 12.7723 12.4357 12.8166 12.725H11.9836C11.9416 12.5827 11.874 12.4637 11.7806 12.368C11.6896 12.27 11.5823 12.1977 11.4586 12.151C11.3373 12.102 11.2078 12.0775 11.0701 12.0775C10.8788 12.0775 10.7061 12.1254 10.5521 12.221C10.4005 12.3167 10.2815 12.4509 10.1951 12.6235C10.1088 12.7962 10.0656 12.991 10.0656 13.208C10.0656 13.425 10.1088 13.6199 10.1951 13.7925C10.2815 13.9629 10.4005 14.097 10.5521 14.195C10.7061 14.2907 10.8788 14.3385 11.0701 14.3385C11.2078 14.3385 11.3373 14.3152 11.4586 14.2685C11.5823 14.2195 11.6896 14.1472 11.7806 14.0515C11.874 13.9535 11.9416 13.8334 11.9836 13.691H12.8166C12.7746 13.9734 12.672 14.2207 12.5086 14.433C12.3453 14.643 12.1388 14.804 11.8891 14.916C11.6395 15.028 11.3653 15.084 11.0666 15.084Z" fill="#1B1B1B"/>
</svg>
