<svg width="16" height="16" viewBox="0 0 16 16" fill="none" xmlns="http://www.w3.org/2000/svg">
<path fill-rule="evenodd" clip-rule="evenodd" d="M2 16H16V9H2V16Z" fill="#62B543" fill-opacity="0.7"/>
<path fill-rule="evenodd" clip-rule="evenodd" d="M7 1L3 5H7V1Z" fill="#9AA7B0" fill-opacity="0.8"/>
<path fill-rule="evenodd" clip-rule="evenodd" d="M8 1V6H3V8H13V1H8Z" fill="#9AA7B0" fill-opacity="0.8"/>
<path d="M5.912 11.4159V12.1124H5.8945V16H6.724V11.4159H5.912ZM4.666 15.0839C4.96233 15.0839 5.2225 15.0186 5.4465 14.8879C5.6705 14.7573 5.84433 14.5729 5.968 14.3349C6.094 14.0969 6.15933 13.8216 6.164 13.5089H5.9155V12.9069H6.164C6.15933 12.5943 6.094 12.3189 5.968 12.0809C5.84433 11.8429 5.66933 11.6586 5.443 11.5279C5.219 11.3973 4.96 11.3319 4.666 11.3319C4.34167 11.3319 4.0535 11.4113 3.8015 11.5699C3.5495 11.7263 3.35233 11.9468 3.21 12.2314C3.07 12.5161 3 12.8416 3 13.2079C3 13.5743 3.07 13.8998 3.21 14.1844C3.35233 14.4691 3.5495 14.6908 3.8015 14.8494C4.05583 15.0058 4.344 15.0839 4.666 15.0839ZM4.8725 14.3384C4.6765 14.3384 4.5015 14.2906 4.3475 14.1949C4.19583 14.0993 4.07683 13.9663 3.9905 13.7959C3.9065 13.6256 3.8645 13.4296 3.8645 13.2079C3.8645 12.9863 3.9065 12.7903 3.9905 12.6199C4.07683 12.4496 4.19583 12.3166 4.3475 12.2209C4.5015 12.1253 4.6765 12.0774 4.8725 12.0774C5.07317 12.0774 5.2505 12.1253 5.4045 12.2209C5.5585 12.3166 5.67867 12.4496 5.765 12.6199C5.85133 12.7903 5.8945 12.9863 5.8945 13.2079C5.8945 13.4296 5.85133 13.6256 5.765 13.7959C5.67867 13.9663 5.5585 14.0993 5.4045 14.1949C5.2505 14.2906 5.07317 14.3384 4.8725 14.3384Z" fill="#1B1B1B"/>
<path d="M8.96586 14.9999C8.77219 14.9999 8.59953 14.9591 8.44786 14.8774C8.29619 14.7958 8.17719 14.6826 8.09086 14.5379C8.00686 14.3933 7.96486 14.2288 7.96486 14.0444L7.96136 12.1334H7.33136L7.33486 11.4159H7.72686C7.81553 11.4159 7.88669 11.3891 7.94036 11.3354C7.99403 11.2794 8.02086 11.2083 8.02086 11.1219V10.5444H8.79436V11.4159H9.65536L9.65186 12.1334H8.79086L8.79436 13.9429C8.79436 14.0409 8.82586 14.1226 8.88886 14.1879C8.95419 14.2509 9.03586 14.2824 9.13386 14.2824H9.65186V14.9999H8.96586Z" fill="#1B1B1B"/>
</svg>
