<svg width="16" height="16" viewBox="0 0 16 16" fill="none" xmlns="http://www.w3.org/2000/svg">
<path fill-rule="evenodd" clip-rule="evenodd" d="M7.5 9.79999C5.98421 9.79999 4.69347 10.7636 4.20692 12.1116C2.30002 11.1068 1 9.10521 1 6.79999C1 3.48628 3.68629 0.799988 7 0.799988C10.3137 0.799988 13 3.48628 13 6.79999C13 8.03879 12.6246 9.18991 11.9813 10.1458C11.3659 10.4426 10.8507 10.9142 10.5 11.4962C9.88755 10.4798 8.77316 9.79999 7.5 9.79999Z" fill="#F98B9E" fill-opacity="0.6"/>
<path fill-rule="evenodd" clip-rule="evenodd" d="M10.03 13.365C10.03 14.7816 8.88163 15.93 7.46502 15.93C6.04841 15.93 4.90002 14.7816 4.90002 13.365C4.90002 11.9484 6.04841 10.8 7.46502 10.8C8.88163 10.8 10.03 11.9484 10.03 13.365ZM8.83002 13.3657C8.83002 14.1199 8.21889 14.7313 7.46502 14.7313C6.71116 14.7313 6.10002 14.1199 6.10002 13.3657C6.10002 12.6114 6.71116 12 7.46502 12C8.21889 12 8.83002 12.6114 8.83002 13.3657Z" fill="#6E6E6E"/>
<path fill-rule="evenodd" clip-rule="evenodd" d="M15.8929 13.365C15.8929 14.7816 14.7445 15.93 13.3279 15.93C11.9113 15.93 10.7629 14.7816 10.7629 13.365C10.7629 11.9484 11.9113 10.8 13.3279 10.8C14.7445 10.8 15.8929 11.9484 15.8929 13.365ZM14.69 13.365C14.69 14.1189 14.0789 14.73 13.325 14.73C12.5712 14.73 11.96 14.1189 11.96 13.365C11.96 12.6111 12.5712 12 13.325 12C14.0789 12 14.69 12.6111 14.69 13.365Z" fill="#6E6E6E"/>
<rect x="9.29718" y="12" width="2.2" height="1.24586" fill="#6E6E6E"/>
<path fill-rule="evenodd" clip-rule="evenodd" d="M6.33092 10H6.00371V6.4755H5V5.625C5 5.625 6.00373 5.64889 6.00371 5.625C6.00369 5.58365 6.00411 4.78903 6.00496 4.75C6.01992 4.06763 6.16946 3.61116 6.4874 3.34019C6.82352 3.05373 7.17495 3 7.82184 3C8.4141 3 8.84574 3.14583 8.97274 3.18874C8.98446 3.19269 8.99358 3.19578 9 3.19779L8.70355 3.93113C8.5821 3.8935 7.93048 3.70722 7.44124 3.85065C7.14082 3.93872 6.99443 4.31549 7.00207 4.75C7.00273 4.78722 7.00743 5.625 7.00743 5.625H8.513V6.5H7.00743V9.83438C6.77372 9.8673 6.54742 9.9233 6.33092 10Z" fill="#231F20" fill-opacity="0.7"/>
</svg>
