<svg width="256" height="256" viewBox="0 0 256 256" fill="none" xmlns="http://www.w3.org/2000/svg">
<g clip-path="url(#clip0_4372_11422)">
<path d="M16.2909 256L156.158 256C160.477 256 164.622 254.285 167.678 251.229L251.229 167.68C254.285 164.624 256 160.482 256 156.16L256 16.2909C256 7.29367 248.706 -6.37633e-07 239.709 -1.4242e-06L99.8447 -1.36515e-05C95.5206 -1.40296e-05 91.3734 1.71984 88.3177 4.77788L4.77092 88.4201C1.71986 91.4734 0.00700255 95.616 0.00700217 99.9331L1.4242e-06 239.709C6.37633e-07 248.706 7.29367 256 16.2909 256Z" fill="url(#paint0_radial_4372_11422)"/>
<path d="M209 47L47 47L47 209L209 209L209 47Z" fill="black"/>
<path d="M133 177H68V188H133V177Z" fill="white"/>
<path d="M68 68.8708H94.2795C98.5638 68.8708 102.34 69.6578 105.605 71.2319C108.87 72.806 111.377 75.0196 113.127 77.8774C114.905 80.7351 115.795 84.0426 115.795 87.8022C115.795 91.5618 114.89 94.9723 113.084 97.8582C111.307 100.744 108.756 102.99 105.432 104.593C102.138 106.167 98.3038 106.954 93.9329 106.954H79.9416L79.9416 130.085H68.0047L68.0047 68.8708H68ZM93.4902 97.0313C95.5023 97.0313 97.2497 96.6659 98.7372 95.9374C100.253 95.1784 101.419 94.1173 102.234 92.7447C103.05 91.3463 103.459 89.7276 103.459 87.8912C103.459 86.0547 103.052 84.4197 102.234 83.0822C101.417 81.7096 100.253 80.6602 98.7372 79.934C97.2497 79.1751 95.5023 78.7979 93.4902 78.7979H79.9346V97.0313H93.4902ZM150.362 131.137C144.503 131.137 139.198 129.764 134.445 127.026C129.692 124.255 125.963 120.467 123.251 115.658C120.54 110.821 119.184 105.427 119.184 99.4791C119.184 93.5317 120.54 88.1535 123.251 83.3446C125.961 78.5075 129.692 74.7151 134.445 71.9768C139.195 69.2058 144.501 67.8237 150.362 67.8237C155.316 67.8237 159.865 68.742 164.004 70.5784C168.143 72.4149 171.582 74.9939 174.322 78.3177C177.091 81.6135 178.941 85.4012 179.876 89.6855H167.37C166.552 87.4719 165.33 85.5324 163.697 83.8693C162.092 82.1804 160.155 80.8804 157.881 79.9785C155.606 79.0767 153.128 78.6223 150.448 78.6223C146.834 78.6223 143.569 79.5241 140.655 81.3324C137.738 83.1408 135.452 85.6331 133.789 88.8094C132.156 91.9576 131.341 95.5158 131.341 99.4791C131.341 103.442 132.156 107.017 133.789 110.191C135.45 113.339 137.738 115.815 140.655 117.623C143.569 119.432 146.834 120.334 150.448 120.334C153.13 120.334 155.609 119.879 157.881 118.977C160.153 118.076 162.092 116.792 163.697 115.129C165.33 113.44 166.552 111.484 167.37 109.27L179.876 109.27C178.944 113.555 177.091 117.359 174.322 120.683C171.582 123.978 168.143 126.541 164.004 128.377C159.865 130.214 155.316 131.132 150.362 131.132V131.137Z" fill="white"/>
</g>
<defs>
<radialGradient id="paint0_radial_4372_11422" cx="0" cy="0" r="1" gradientUnits="userSpaceOnUse" gradientTransform="translate(248.001 8.00114) rotate(135) scale(343.976)">
<stop offset="0.0555035" stop-color="#F0EB19"/>
<stop offset="0.545319" stop-color="#00C4F4"/>
</radialGradient>
<clipPath id="clip0_4372_11422">
<rect width="256" height="256" fill="white"/>
</clipPath>
</defs>
</svg>
