<svg width="48" height="48" viewBox="0 0 48 48" fill="none" xmlns="http://www.w3.org/2000/svg">
<g clip-path="url(#clip0_4372_11420)">
<path d="M44.9455 0H18.7204C17.9105 0 17.1334 0.3216 16.5604 0.894545L0.894545 16.56C0.3216 17.1329 0 17.9097 0 18.72V44.9455C0 46.6324 1.36756 48 3.05455 48H29.2791C30.0899 48 30.8675 47.6775 31.4404 47.1041L47.1055 31.4212C47.6775 30.8487 47.9987 30.072 47.9987 29.2625L48 3.05455C48 1.36756 46.6324 0 44.9455 0Z" fill="url(#paint0_radial_4372_11420)"/>
<path d="M39 9H9V39H39V9Z" fill="black"/>
<path d="M13.0801 12.9624H17.7995C18.5688 12.9624 19.2469 13.1038 19.8333 13.3865C20.4197 13.6692 20.8698 14.0667 21.1841 14.5799C21.5034 15.0931 21.6632 15.6871 21.6632 16.3622C21.6632 17.0374 21.5008 17.6499 21.1765 18.1681C20.8572 18.6864 20.3991 19.0898 19.8022 19.3775C19.2108 19.6602 18.5221 19.8015 17.7372 19.8015H15.2246V23.9555H13.0809L13.0801 12.9624ZM17.6577 18.0196C18.019 18.0196 18.3329 17.954 18.6 17.8232C18.8721 17.6869 19.0816 17.4963 19.228 17.2498C19.3744 16.9987 19.448 16.708 19.448 16.3782C19.448 16.0484 19.3748 15.7548 19.228 15.5146C19.0812 15.2681 18.8721 15.0796 18.6 14.9492C18.3329 14.8129 18.019 14.7452 17.6577 14.7452H15.2233V18.0196H17.6577ZM27.8709 24.1444C26.8188 24.1444 25.866 23.8979 25.0125 23.4062C24.159 22.9085 23.4893 22.2283 23.0022 21.3647C22.5155 20.496 22.2719 19.5273 22.2719 18.4592C22.2719 17.3911 22.5155 16.4253 23.0022 15.5617C23.4889 14.693 24.159 14.012 25.0125 13.5202C25.8656 13.0226 26.8184 12.7744 27.8709 12.7744C28.7606 12.7744 29.5775 12.9393 30.3208 13.2691C31.0641 13.5989 31.6816 14.0621 32.1738 14.659C32.671 15.2508 33.0033 15.931 33.1712 16.7004H30.9253C30.7785 16.3029 30.5589 15.9546 30.2657 15.6559C29.9775 15.3526 29.6297 15.1192 29.2212 14.9572C28.8127 14.7953 28.3677 14.7137 27.8864 14.7137C27.2374 14.7137 26.651 14.8756 26.1277 15.2004C25.6039 15.5251 25.1934 15.9727 24.8947 16.5431C24.6015 17.1085 24.4551 17.7474 24.4551 18.4592C24.4551 19.171 24.6015 19.8129 24.8947 20.3829C25.193 20.9482 25.6039 21.3929 26.1277 21.7176C26.651 22.0424 27.2374 22.2043 27.8864 22.2043C28.3681 22.2043 28.8132 22.1227 29.2212 21.9608C29.6292 21.7988 29.9775 21.5683 30.2657 21.2696C30.5589 20.9663 30.7785 20.6151 30.9253 20.2176H33.1712C33.0038 20.9869 32.671 21.6701 32.1738 22.267C31.6816 22.8589 31.0641 23.3191 30.3208 23.6489C29.5775 23.9787 28.7606 24.1444 27.8709 24.1444Z" fill="white"/>
<path d="M24.9999 33H12.9999V35.0001H24.9999V33Z" fill="white"/>
</g>
<defs>
<radialGradient id="paint0_radial_4372_11420" cx="0" cy="0" r="1" gradientUnits="userSpaceOnUse" gradientTransform="translate(46.1248 1.87478) rotate(135) scale(60.8112)">
<stop offset="0.05" stop-color="#F0EB18"/>
<stop offset="0.6" stop-color="#00C4F4"/>
</radialGradient>
<clipPath id="clip0_4372_11420">
<rect width="48" height="48" fill="white"/>
</clipPath>
</defs>
</svg>
