<svg width="24" height="24" viewBox="0 0 24 24" fill="none" xmlns="http://www.w3.org/2000/svg">
<g clip-path="url(#clip0_4372_11418)">
<path d="M22.4727 0H9.36022C8.95527 0 8.56669 0.1608 8.28022 0.447273L0.447273 8.28C0.1608 8.56647 0 8.95484 0 9.36V22.4727C0 23.3162 0.683782 24 1.52727 24H14.6396C15.0449 24 15.4337 23.8388 15.7202 23.5521L23.5527 15.7106C23.8388 15.4244 23.9993 15.036 23.9993 14.6313L24 1.52727C24 0.683782 23.3162 0 22.4727 0Z" fill="url(#paint0_radial_4372_11418)"/>
<path d="M20 4H4V20H20V4Z" fill="black"/>
<path d="M6.43896 6.39977H8.88675C9.2858 6.39977 9.63751 6.47308 9.94166 6.6197C10.2458 6.76632 10.4793 6.9725 10.6422 7.23868C10.8078 7.50486 10.8907 7.81294 10.8907 8.16312C10.8907 8.5133 10.8065 8.83097 10.6383 9.09977C10.4727 9.36857 10.2351 9.57781 9.92551 9.72705C9.61875 9.87366 9.26158 9.94697 8.85446 9.94697H7.55126V12.1015H6.4394V6.39977H6.43896ZM8.81322 9.02276C9.00064 9.02276 9.1634 8.98872 9.30195 8.92086C9.44311 8.85017 9.55177 8.75134 9.62769 8.62348C9.70362 8.49323 9.7418 8.34246 9.7418 8.17141C9.7418 8.00036 9.70384 7.84806 9.62769 7.72348C9.55155 7.59563 9.44311 7.49788 9.30195 7.43025C9.1634 7.35956 9.00064 7.32443 8.81322 7.32443H7.5506V9.02276H8.81322ZM14.1105 12.1995C13.5648 12.1995 13.0706 12.0716 12.6279 11.8166C12.1852 11.5585 11.8379 11.2057 11.5852 10.7577C11.3328 10.3072 11.2065 9.80472 11.2065 9.25076C11.2065 8.69679 11.3328 8.19585 11.5852 7.74792C11.8377 7.29737 12.1852 6.94414 12.6279 6.68908C13.0704 6.43097 13.5646 6.30225 14.1105 6.30225C14.5719 6.30225 14.9956 6.38777 15.3811 6.55883C15.7667 6.72988 16.087 6.9701 16.3422 7.2797C16.6001 7.58668 16.7725 7.93948 16.8595 8.33854H15.6947C15.6185 8.13236 15.5046 7.9517 15.3526 7.79679C15.2031 7.63948 15.0227 7.51839 14.8108 7.43439C14.599 7.35039 14.3681 7.30806 14.1185 7.30806C13.7819 7.30806 13.4777 7.39206 13.2063 7.5605C12.9347 7.72894 12.7217 7.96108 12.5668 8.25694C12.4147 8.55017 12.3388 8.88159 12.3388 9.25076C12.3388 9.61992 12.4147 9.95286 12.5668 10.2485C12.7215 10.5417 12.9347 10.7724 13.2063 10.9408C13.4777 11.1092 13.7819 11.1932 14.1185 11.1932C14.3683 11.1932 14.5992 11.1509 14.8108 11.0669C15.0225 10.9829 15.2031 10.8633 15.3526 10.7084C15.5046 10.5511 15.6185 10.3689 15.6947 10.1628H16.8595C16.7727 10.5618 16.6001 10.9161 16.3422 11.2257C16.087 11.5327 15.7667 11.7714 15.3811 11.9425C14.9956 12.1135 14.5719 12.199 14.1105 12.199V12.1995Z" fill="white"/>
<path d="M12 17H6V18H12V17Z" fill="white"/>
</g>
<defs>
<radialGradient id="paint0_radial_4372_11418" cx="0" cy="0" r="1" gradientUnits="userSpaceOnUse" gradientTransform="translate(23.9998) rotate(135) scale(31.4871)">
<stop offset="0.1" stop-color="#F0EB18"/>
<stop offset="0.65" stop-color="#00C4F4"/>
</radialGradient>
<clipPath id="clip0_4372_11418">
<rect width="24" height="24" fill="white"/>
</clipPath>
</defs>
</svg>
