<!-- Copyright © 2000–2024 JetBrains s.r.o. -->
<svg width="64" height="64" viewBox="0 0 64 64" xmlns="http://www.w3.org/2000/svg">
  <defs>
    <linearGradient id="a" x1="6.98" x2="45.42" y1="4.02" y2="47" gradientUnits="userSpaceOnUse">
      <stop offset=".06" stop-color="#3bea62"/>
      <stop offset="1" stop-color="#6b57ff"/>
    </linearGradient>
  </defs>
  <path fill="url(#a)" d="M35.63 6.4H6.4v38.4h19.63l9.6-38.4Zm-13.34 32H12.8V32h10.99l-1.49 6.4Zm15.68-19.2-7.48 29.93A9.485 9.485 0 0 1 34 56.5c0 .37-.03.74-.07 1.1H57.6V19.2H37.97Zm13.23 32H36.59l1.49-6.4H51.2z"/>
  <path fill="#B99BF8" d="M7.5 49h17c4.14 0 7.5 3.36 7.5 7.5 0 4.14-3.36 7.5-7.5 7.5h-17C3.36 64 0 60.64 0 56.5 0 52.36 3.36 49 7.5 49" opacity=".7"/>
  <path fill="#231F20" d="M5.88 60h2.9c1.5 0 2.41-.75 2.41-1.99 0-.93-.63-1.6-1.59-1.7v-.08c.69-.12 1.24-.78 1.24-1.51 0-1.09-.8-1.76-2.12-1.76H5.89v7.05Zm2.58-6.15c.81 0 1.28.39 1.28 1.05 0 .69-.5 1.05-1.47 1.05h-1.3v-2.1h1.48Zm.04 2.94c1.03 0 1.57.39 1.57 1.15 0 .77-.52 1.17-1.51 1.17H6.98v-2.32zm6.2 3.31c1.36 0 2.09-.78 2.27-1.48v-.04h-1.01l-.02.04c-.13.27-.53.61-1.21.61-.87 0-1.43-.59-1.45-1.61h3.76v-.37c0-1.59-.91-2.66-2.39-2.66s-2.44 1.11-2.44 2.76c0 1.68.94 2.74 2.49 2.74Zm-.05-4.64c.72 0 1.25.46 1.33 1.41h-2.7c.09-.91.64-1.41 1.36-1.41Zm5.64 4.57c.2 0 .4-.02.57-.05v-.84c-.15.01-.24.02-.4.02-.52 0-.74-.23-.74-.81v-2.82h1.14v-.83h-1.14v-1.34h-1.08v1.34h-.83v.83h.83v3.07c0 1.02.48 1.43 1.65 1.43m3.26.06c.7 0 1.26-.3 1.57-.84h.08V60h1.05v-3.63c0-1.11-.75-1.78-2.08-1.78-1.21 0-2.04.58-2.17 1.45v.03h1.02v-.02c.13-.38.52-.59 1.1-.59.72 0 1.08.32 1.08.9v.47l-1.44.08c-1.26.08-1.98.63-1.98 1.58 0 .97.75 1.59 1.76 1.59Zm-.7-1.62c0-.49.33-.75 1.06-.8l1.29-.08v.45c0 .68-.58 1.2-1.37 1.2-.57 0-.99-.29-.99-.78Z" opacity=".7"/>
</svg>
