<!-- Copyright © 2000–2024 JetBrains s.r.o. -->
<svg width="16" height="16" viewBox="0 0 16 16" xmlns="http://www.w3.org/2000/svg">
  <path fill="#afb1b3" fill-rule="evenodd" d="M12.5 12c-.17 0-.33.03-.49.09L11 10.83V6.01H9V3.92c.58-.21 1-.76 1-1.41 0-.83-.67-1.5-1.5-1.5S7 1.68 7 2.51c0 .65.42 1.2 1 1.41v2.09H6v4.82l-1.01 1.26c-.15-.05-.32-.09-.49-.09-.83 0-1.5.67-1.5 1.5S3.67 15 4.5 15 6 14.33 6 13.5c0-.29-.09-.56-.23-.79L7.14 11h2.72l1.37 1.71c-.14.23-.23.5-.23.79 0 .83.67 1.5 1.5 1.5s1.5-.67 1.5-1.5-.67-1.5-1.5-1.5"/>
</svg>
