<svg width="16" height="16" viewBox="0 0 16 16" xmlns="http://www.w3.org/2000/svg">
  <path fill="none" stroke="#CED0D6" stroke-linecap="round" stroke-linejoin="round" d="M3.5 15.5a3 3 0 1 0 0-6 3 3 0 0 0 0 6Z"/>
  <path fill="none" stroke="#CED0D6" stroke-linecap="round" stroke-linejoin="round" d="m3 11.25 1.25 1.25L3 13.75M6.6 5.1l-1-.8H4.4l-.8.4h-2V1.5h2l.8.4h1.2l1-.4h3c1.2 0 3.6 0 4.8 3.8-2-1.4-2.8-1.4-4-1.4L8.8 5.1H6.6Zm0 0V7l-.195.457c-.109.265-.195.54-.257.819"/>
  <path fill="none" stroke="#CED0D6" stroke-linecap="round" stroke-linejoin="round" d="M8.076 14.5H9.4V9.426c0-.677-.138-1.347-.404-1.97L8.8 6.999v-1.9"/>
</svg>
