<svg width="16" height="16" viewBox="0 0 16 16" xmlns="http://www.w3.org/2000/svg">
  <path fill="none" stroke="#CED0D6" stroke-linecap="round" stroke-linejoin="round" d="m2 12 1.5 1.5 4-4m-.9-4.4-1-.8H4.4l-.8.4h-2V1.5h2l.8.4h1.2l1-.4h3c1.2 0 3.6 0 4.8 3.8-2-1.4-2.8-1.4-4-1.4L8.8 5.1H6.6Zm0 0V7l-.195.457c-.006.014-.008.029-.014.043"/>
  <path fill="none" stroke="#CED0D6" stroke-linecap="round" stroke-linejoin="round" d="M8.5 14.5h.9V9.426c0-.677-.138-1.347-.404-1.97L8.8 6.999v-1.9M4.672 9.5H.5v6h6v-2.172"/>
</svg>
