<svg width="20" height="20" viewBox="0 0 20 20" xmlns="http://www.w3.org/2000/svg">
  <path fill="none" stroke="#6C707E" stroke-linecap="round" stroke-linejoin="round" stroke-width="1.5" d="M4.5 1.75H2v4h2.5l1-.5H7l1.25 1H11l2-1.5c1.5 0 2.5 0 5 1.75-1.5-4.75-4.5-4.75-6-4.75H8.25L7 2.25H5.5l-1-.5ZM2.56 17.069c2.246 2.669 7.835-2.068 4.302-6.742-1.831 2.312-5.295 1.707-5.586 5.026"/>
  <path fill="none" stroke="#6C707E" stroke-linecap="round" stroke-linejoin="round" stroke-width="1.5" d="M.75 19.25c.84-2.634 3.133-2.603 4.156-4.339m3.706 3.339h3.138v-6.57c0-1.204-.383-1.947-.75-2.68V6.25H8.25v2.019"/>
</svg>
