<svg width="16" height="16" viewBox="0 0 16 16" xmlns="http://www.w3.org/2000/svg">
  <path fill="none" stroke="#CED0D6" stroke-linejoin="round" d="M3.6 1.5h-2v3.2h2l.8-.4h1.2l1 .8h2.2l1.6-1.2c1.2 0 2 0 4 1.4-1.2-3.8-3.6-3.8-4.8-3.8h-3l-1 .4H4.4l-.8-.4Z"/>
  <path fill="none" stroke="#CED0D6" stroke-linecap="round" stroke-linejoin="round" d="M6.6 5.1v1.59m.397 7.81H9.4V9.426c0-.298.042-.93-.6-2.426V5.1m-6.795 8.62c1.797 2.136 6.268-1.654 3.442-5.394-1.465 1.85-4.236 1.365-4.469 4.02"/>
  <path fill="none" stroke="#CED0D6" stroke-linecap="round" stroke-linejoin="round" d="M.557 15.464c.672-2.107 2.507-2.083 3.325-3.471"/>
</svg>
