<!-- Copyright © 2000–2024 JetBrains s.r.o. -->
<svg width="16" height="16" viewBox="0 0 16 16" xmlns="http://www.w3.org/2000/svg">
  <path fill="none" stroke="#834DF0" stroke-linecap="round" stroke-linejoin="round" d="m11.68 12.01-3.5 2.02c-.17.1-.42.16-.69.16-.27 0-.52-.06-.69-.16l-4.62-2.67c-.36-.21-.69-.78-.69-1.19V4.83c0-.42.33-.98.69-1.19L6.81.97c.17-.1.42-.16.69-.16.27 0 .52.06.69.16l4.62 2.67c.36.21.69.78.69 1.19v3.73"/>
  <path fill="none" stroke="#834DF0" stroke-linecap="round" stroke-linejoin="round" d="M5.5 8.5c0 .55-.45 1-1 1s-1-.45-1-1v-2c0-.55.45-1 1-1s1 .45 1 1m2 0h4m-4 2h4m-1-3v4m-2-4v4"/>
  <path fill="none" stroke="#6C707E" stroke-linecap="round" stroke-linejoin="round" d="m13 10.5 2.5 2.5-2.5 2.5"/>
</svg>
