<!-- Copyright © 2000–2024 JetBrains s.r.o. -->
<svg width="16" height="16" viewBox="0 0 16 16" xmlns="http://www.w3.org/2000/svg">
  <path fill="none" stroke="#CED0D6" stroke-linecap="round" stroke-linejoin="round" d="M5.31 6.5c-.18 0-.34-.1-.42-.25a.502.502 0 0 1 .02-.49L7.6 1.71a.488.488 0 0 1 .8 0l2.69 4.04c.1.15.11.34.02.49-.08.15-.25.25-.42.25H5.3z" clip-rule="evenodd"/>
  <path fill="none" stroke="#CED0D6" stroke-linecap="round" stroke-linejoin="round" d="M4.5 14.5a3 3 0 1 0 0-6 3 3 0 0 0 0 6m10-6h-5v6h5z"/>
</svg>
