<svg width="16" height="16" viewBox="0 0 16 16" xmlns="http://www.w3.org/2000/svg">
  <path fill="#25324D" d="M4.29 13.5c.7-1.95 1.69-4.32 2.87-6.79.14-.3.39-.54.64-.7l.96-2.32v-.18h-4.6c-.92 0-1.67.75-1.67 1.67v6.67c0 .92.75 1.67 1.67 1.67h.13zm7.53-6.02c.1.33.11.69.03.99-.46 1.73-.95 3.38-1.43 4.86-.02.05 0 .16 0 .16h.42c.92 0 1.67-.75 1.67-1.67V6.81h-.47l-.21.66-.01.01"/>
  <path fill="none" stroke="#548AF7" stroke-linecap="round" stroke-linejoin="round" d="M3.77 13.45c-.77-.18-1.27-.89-1.27-1.62V5.16c0-.92.75-1.67 1.67-1.67H8.3M12.5 7v4.84c0 .9-.72 1.64-1.61 1.67"/>
  <path fill="#CED0D6" d="m15.68 2.33-1.37-.32a.44.44 0 0 0-.52.29l-.57-.21a.693.693 0 0 0-.41-.89L10.43.32C9.85.09 9.31 0 8.81 0 6.78 0 5.58 1.53 5.58 1.98c0 .12.13.19.23.14 1.02-.57 2.07-.39 3.9.26.32.11.48.48.35.79L8.59 6.73c-.15.04-.44.23-.52.41-1.15 2.42-2.3 5.11-3.04 7.27-.02.05-.03.11-.03.16 0 .18.1.35.27.41l2.68 1s.09.03.14.03c.17 0 .34-.11.42-.3.83-2.12 1.69-4.9 2.37-7.49.06-.21-.02-.53-.13-.68l1.19-3.71c.1-.3.43-.46.72-.35l.61.23c-.08.21.01.45.21.56l1.25.66c.22.11.48.01.57-.22l.67-1.83s.03-.09.03-.14c0-.19-.13-.36-.32-.4z"/>
</svg>
