<svg xmlns="http://www.w3.org/2000/svg" width="36" height="21" fill="none"><path stroke="#9AA7B0" stroke-linejoin="round" stroke-opacity=".7" d="M5.5 21v-9.92l3.41-8.52s.05-.06.09-.06c.04 0 .08.02.09.06l3.41 8.52V21m-6.86-9.88c.83.15 2.3.38 3.36.38s2.53-.23 3.36-.38m-1.83-4.4-3.2.31M14.5 21v-9.92l3.41-8.52s.05-.06.09-.06c.04 0 .08.02.09.06l3.41 8.52V21m-6.86-9.88c.83.15 2.3.38 3.36.38s2.53-.23 3.36-.38m-1.83-4.4-3.2.31M23.5 21v-9.92l3.41-8.52s.05-.06.09-.06c.04 0 .08.02.09.06l3.41 8.52V21m-6.86-9.88c.83.15 2.3.38 3.36.38s2.53-.23 3.36-.38m-1.83-4.4-3.2.31"/></svg>