<!-- Copyright © 2000–2024 JetBrains s.r.o. -->
<svg width="16" height="16" viewBox="0 0 16 16" xmlns="http://www.w3.org/2000/svg">
  <path fill="none" stroke="#CED0D6" stroke-linecap="round" stroke-linejoin="round" d="M14.49 7.68V8a6.5 6.5 0 0 1-6.5 6.5C4.4 14.5 1.5 11.59 1.5 8A6.5 6.5 0 0 1 8 1.5c.19 0 .39 0 .58.03"/>
  <path fill="none" stroke="#CED0D6" stroke-linecap="round" stroke-miterlimit="10" d="M10.28 5.33c.12.67.19 1.4.21 2.17V8c0 3.59-1.12 6.5-2.5 6.5s-2.5-2.91-2.5-6.5 1.12-6.5 2.5-6.5c.16 0 .32.04.47.11M1.68 6.5h8.75"/>
  <path fill="none" stroke="#CED0D6" stroke-miterlimit="10" d="M1.68 9.5h12.57"/>
  <path fill="none" stroke="#548AF7" stroke-linecap="round" stroke-linejoin="round" d="M12.5.5v7m-3-4 3-3 3 3"/>
</svg>
