<svg width="16" height="16" viewBox="0 0 16 16" xmlns="http://www.w3.org/2000/svg">
  <path fill="none" stroke="#6C707E" stroke-linecap="round" stroke-linejoin="round" d="M8.134 6.766s5.756 5.356 6 5.6a1.25 1.25 0 0 1-1.768 1.768c-.244-.244-5.6-6-5.6-6m.878-5.312-.661-.661A2.246 2.246 0 0 0 5.387 1.5a2.28 2.28 0 0 0-1.366.454l1.758 1.758-.351 1.715-1.715.351L1.955 4.02a2.282 2.282 0 0 0-.454 1.366c0 .577.219 1.154.661 1.596l.661.661a2.913 2.913 0 0 0 2.067.856c.748 0 1.496-.285 2.067-.856l.689-.689a2.913 2.913 0 0 0 .856-2.067c0-.748-.285-1.496-.856-2.067l-.002.002Z"/>
</svg>
