<svg width="70" height="70" viewBox="0 0 70 70" fill="none" xmlns="http://www.w3.org/2000/svg">
<path d="M52.0001 67.2L67.2001 27L31.6001 18.8L52.0001 67.2Z" fill="url(#paint0_linear)"/>
<path d="M9.40015 56.0001L67.2001 27.0001L29.6001 18.4001L9.40015 56.0001Z" fill="url(#paint1_linear)"/>
<path d="M67.0001 54.4001L52.0001 67.2001L30.6001 61.7001L67.0001 54.4001Z" fill="url(#paint2_linear)"/>
<path d="M30.6001 61.7001L52.0001 67.2001L56.0001 56.6001L30.6001 61.7001Z" fill="url(#paint3_linear)"/>
<path d="M10.8 32.3L4 12.7L38.1 2.80005L10.8 32.3Z" fill="url(#paint4_linear)"/>
<path d="M10.8 32.2999L4 12.7L24.4 17.3L10.8 32.2999Z" fill="url(#paint5_linear)"/>
<path d="M59 40.1L38.1 2.80005L2.80005 40.9001V67.2L67 54.4001L59 40.1Z" fill="url(#paint6_linear)"/>
<path d="M59 40.1L38.1 2.80005L2.80005 67.2L67 54.4001L59 40.1Z" fill="url(#paint7_linear)"/>
<path d="M59 40.1L38.1 2.80005L2.80005 67.2L67 54.4001L59 40.1Z" fill="url(#paint8_linear)"/>
<path d="M29.7 18.2L9 55.9L30.6 61.7L67 54.4L44.4 38.5L41.3 20.7L29.7 18.2Z" fill="url(#paint9_linear)"/>
<path d="M9.40015 56L44.4001 38.5L38.1001 2.80005L29.6001 18.4L9.40015 56Z" fill="url(#paint10_linear)"/>
<path d="M4.00005 12.7L17.7 24.7L2.80005 40.9V67.1999L29.7001 18.2L4.00005 12.7Z" fill="url(#paint11_linear)"/>
<path d="M2.80005 40.9001L9.10005 56.0001L14.9 45.3001L2.80005 40.9001Z" fill="#108EFF"/>
<path d="M2.80005 67.2L14.9 45.3L10.8 32.3L2.80005 40.9001V67.2Z" fill="url(#paint12_linear)"/>
<path d="M2.80005 67.2L14.9 45.3L10.8 32.3L2.80005 40.9001V67.2Z" fill="url(#paint13_linear)"/>
<path d="M2.80005 67.2001L14.9 45.3001L2.80005 40.9001V67.2001Z" fill="url(#paint14_linear)"/>
<path d="M4 12.7L29.7 18.2L38.1 2.80005L4 12.7Z" fill="url(#paint15_linear)"/>
<path d="M55 15H15V55H55V15Z" fill="url(#paint16_linear)"/>
<g opacity="0.3">
<path opacity="0.3" d="M44.8 15H40.2L44.3 38.5L15 53.1V55H55V33.2L44.8 15Z" fill="url(#paint17_linear)"/>
<path opacity="0.3" d="M49.2999 23.1L44.7999 15H40.2L41.2999 21.2L49.2999 23.1Z" fill="url(#paint18_linear)"/>
<path opacity="0.3" d="M49.3 23.1001L55 33.1001V24.3001L49.3 23.1001Z" fill="url(#paint19_linear)"/>
<path opacity="0.3" d="M49.3 23.1L41.3 21.2L44.3 38.5L55 33.1L49.3 23.1Z" fill="url(#paint20_linear)"/>
<path opacity="0.3" d="M29.7 18.6L15 45.7V53.1L44.3 38.5L40.2 15H31.6L29.7 18.6Z" fill="url(#paint21_linear)"/>
<path opacity="0.3" d="M15 46.3L31.8 15H15V22.3L17.8 24.8L15 27.9V46.3Z" fill="url(#paint22_linear)"/>
<path opacity="0.3" d="M27 15H15V28L27 15Z" fill="url(#paint23_linear)"/>
</g>
<path d="M35 47.3999H20V49.8999H35V47.3999Z" fill="white"/>
<path d="M25.2999 20H28.2999L34.6999 35H31.2999L29.8999 31.7H23.5999L22.2999 35H18.8999L25.2999 20ZM28.7999 28.8L26.7999 24L24.7999 28.8H28.7999Z" fill="white"/>
<path d="M35 27.6C35 23.3 38.2 19.7 42.9 19.7C45.8 19.7 47.5 20.7 48.9 22L46.8 24.4C45.6 23.3 44.4 22.7 42.9 22.7C40.4 22.7 38.5 24.8 38.5 27.4C38.5 30 40.3 32.2 42.9 32.2C44.6 32.2 45.7 31.5 46.9 30.4L49 32.5C47.4 34.2 45.7 35.2 42.8 35.2C38.3 35.4 35 31.9 35 27.6Z" fill="white"/>
<defs>
<linearGradient id="paint0_linear" x1="31.6119" y1="43.007" x2="67.2001" y2="43.007" gradientUnits="userSpaceOnUse">
<stop offset="0.0559607" stop-color="#0816FA"/>
<stop offset="0.2842" stop-color="#0855FA"/>
<stop offset="0.9032" stop-color="#087CFA"/>
</linearGradient>
<linearGradient id="paint1_linear" x1="20.5256" y1="37.2185" x2="78.3693" y2="37.2185" gradientUnits="userSpaceOnUse">
<stop offset="0.0113887" stop-color="#07C3F2" stop-opacity="0.4"/>
<stop offset="0.1874" stop-color="#07BFF2" stop-opacity="0.5373"/>
<stop offset="0.375" stop-color="#07B2F4" stop-opacity="0.6836"/>
<stop offset="0.5679" stop-color="#089DF6" stop-opacity="0.834"/>
<stop offset="0.7634" stop-color="#087FFA" stop-opacity="0.9864"/>
<stop offset="0.7808" stop-color="#087CFA"/>
</linearGradient>
<linearGradient id="paint2_linear" x1="30.6035" y1="60.8038" x2="67.0129" y2="60.8038" gradientUnits="userSpaceOnUse">
<stop offset="0.2317" stop-color="#07C3F2"/>
<stop offset="0.3514" stop-color="#07BCF2"/>
<stop offset="0.5222" stop-color="#07AAF4"/>
<stop offset="0.7236" stop-color="#088BF6"/>
<stop offset="0.9467" stop-color="#0860F9"/>
<stop offset="1" stop-color="#0855FA"/>
</linearGradient>
<linearGradient id="paint3_linear" x1="30.6035" y1="61.8957" x2="56.0043" y2="61.8957" gradientUnits="userSpaceOnUse">
<stop offset="0.1935" stop-color="#20C9F3"/>
<stop offset="1" stop-color="#087CFA"/>
</linearGradient>
<linearGradient id="paint4_linear" x1="3.9719" y1="17.5464" x2="38.137" y2="17.5464" gradientUnits="userSpaceOnUse">
<stop offset="0.1935" stop-color="#07C3F2"/>
<stop offset="0.9032" stop-color="#087CFA"/>
</linearGradient>
<linearGradient id="paint5_linear" x1="2.174" y1="23.815" x2="14.2365" y2="20.7994" gradientUnits="userSpaceOnUse">
<stop stop-color="#07C3F2"/>
<stop offset="0.8559" stop-color="#087CFA"/>
</linearGradient>
<linearGradient id="paint6_linear" x1="45.0018" y1="69.225" x2="13.107" y2="24.7124" gradientUnits="userSpaceOnUse">
<stop offset="0.0913979" stop-color="#21D789"/>
<stop offset="0.4839" stop-color="#07C3F2"/>
<stop offset="0.9032" stop-color="#087CFA"/>
</linearGradient>
<linearGradient id="paint7_linear" x1="51.1313" y1="71.3773" x2="8.36135" y2="20.6172" gradientUnits="userSpaceOnUse">
<stop offset="0.0353052" stop-color="#50FC9B"/>
<stop offset="0.2378" stop-color="#21D789"/>
<stop offset="0.467" stop-color="#07C3F2"/>
<stop offset="0.8507" stop-color="#087CFA"/>
<stop offset="1" stop-color="#0855FA"/>
</linearGradient>
<linearGradient id="paint8_linear" x1="36.48" y1="45.1755" x2="11.0833" y2="71.303" gradientUnits="userSpaceOnUse">
<stop offset="0.1423" stop-color="#07C3F2" stop-opacity="0"/>
<stop offset="0.7442" stop-color="#00D4FF"/>
<stop offset="0.9705" stop-color="#36FFFF"/>
</linearGradient>
<linearGradient id="paint9_linear" x1="55.6472" y1="74.5185" x2="16.0672" y2="27.5444" gradientUnits="userSpaceOnUse">
<stop offset="0.1027" stop-color="#07C3F2" stop-opacity="0"/>
<stop offset="1" stop-color="#087CFA"/>
</linearGradient>
<linearGradient id="paint10_linear" x1="17.1011" y1="25.2721" x2="58.2958" y2="50.8091" gradientUnits="userSpaceOnUse">
<stop offset="0.0556783" stop-color="#07C3F2" stop-opacity="0"/>
<stop offset="1" stop-color="#087CFA"/>
</linearGradient>
<linearGradient id="paint11_linear" x1="37.4033" y1="57.0069" x2="1.75215" y2="32.9423" gradientUnits="userSpaceOnUse">
<stop offset="0.4839" stop-color="#00E1F2"/>
<stop offset="1" stop-color="#078CF9"/>
</linearGradient>
<linearGradient id="paint12_linear" x1="-2.96955" y1="43.6736" x2="20.6852" y2="58.3375" gradientUnits="userSpaceOnUse">
<stop offset="0.0556783" stop-color="#087CFA" stop-opacity="0.4"/>
<stop offset="0.3766" stop-color="#05D7ED" stop-opacity="0.72"/>
<stop offset="0.7897" stop-color="#54FF80"/>
</linearGradient>
<linearGradient id="paint13_linear" x1="-2.96955" y1="43.6736" x2="20.6852" y2="58.3375" gradientUnits="userSpaceOnUse">
<stop offset="0.0556783" stop-color="#087CFA" stop-opacity="0.4"/>
<stop offset="0.3766" stop-color="#05D7ED" stop-opacity="0.72"/>
<stop offset="0.7897" stop-color="#54FF80"/>
</linearGradient>
<linearGradient id="paint14_linear" x1="-1.57155" y1="43.0601" x2="10.7595" y2="58.6794" gradientUnits="userSpaceOnUse">
<stop offset="0.0556783" stop-color="#087CFA" stop-opacity="0.5"/>
<stop offset="0.7897" stop-color="#07C3F2" stop-opacity="0"/>
</linearGradient>
<linearGradient id="paint15_linear" x1="42.0082" y1="-1.30775" x2="13.2254" y2="17.8807" gradientUnits="userSpaceOnUse">
<stop offset="0.1536" stop-color="#00FAFF"/>
<stop offset="0.4839" stop-color="#07C3F2"/>
<stop offset="0.9947" stop-color="#087CFA"/>
</linearGradient>
<linearGradient id="paint16_linear" x1="13.6258" y1="13.5553" x2="51.992" y2="52.0478" gradientUnits="userSpaceOnUse">
<stop stop-color="#006396"/>
<stop offset="0.0339724" stop-color="#005682"/>
<stop offset="0.121" stop-color="#003754"/>
<stop offset="0.2043" stop-color="#001F2F"/>
<stop offset="0.2818" stop-color="#000E15"/>
<stop offset="0.3512" stop-color="#000406"/>
<stop offset="0.4058"/>
<stop offset="0.9138"/>
</linearGradient>
<linearGradient id="paint17_linear" x1="17.9994" y1="57.7423" x2="56.0834" y2="28.4894" gradientUnits="userSpaceOnUse">
<stop offset="0.00370455" stop-color="#08244E"/>
<stop offset="1" stop-color="#02C963"/>
</linearGradient>
<linearGradient id="paint18_linear" x1="50.3594" y1="18.0335" x2="35.9975" y2="20.5846" gradientUnits="userSpaceOnUse">
<stop stop-color="#07C3F2"/>
<stop offset="0.8559" stop-color="#087CFA"/>
</linearGradient>
<linearGradient id="paint19_linear" x1="53.8596" y1="32.1271" x2="51.4496" y2="20.1341" gradientUnits="userSpaceOnUse">
<stop stop-color="#032850"/>
<stop offset="0.8559" stop-color="#087CFA"/>
</linearGradient>
<linearGradient id="paint20_linear" x1="39.2055" y1="26.3131" x2="48.7497" y2="31.8752" gradientUnits="userSpaceOnUse">
<stop offset="0.0254164" stop-color="#0791F2"/>
<stop offset="1" stop-color="#087CFA"/>
</linearGradient>
<linearGradient id="paint21_linear" x1="21.262" y1="19.7996" x2="31.9439" y2="43.8179" gradientUnits="userSpaceOnUse">
<stop offset="0.0556783" stop-color="#07C3F2"/>
<stop offset="1" stop-color="#0845BD"/>
</linearGradient>
<linearGradient id="paint22_linear" x1="36.1904" y1="39.2647" x2="15.0379" y2="24.9868" gradientUnits="userSpaceOnUse">
<stop offset="0.2837" stop-color="#087CFA"/>
<stop offset="1" stop-color="#078CF9"/>
</linearGradient>
<linearGradient id="paint23_linear" x1="10.0811" y1="22.7134" x2="19.5978" y2="20.3342" gradientUnits="userSpaceOnUse">
<stop stop-color="#07C3F2"/>
<stop offset="0.8559" stop-color="#087CFA"/>
</linearGradient>
</defs>
</svg>
