<svg xmlns="http://www.w3.org/2000/svg" width="128" height="128" fill="none" viewBox="0 0 128 128">
  <defs>
    <linearGradient id="a" x1="24.088" x2="53.402" y1="25.566" y2="93.451" gradientUnits="userSpaceOnUse">
      <stop offset=".068" stop-color="#FF4EFD"/>
      <stop offset=".964" stop-color="#484DFC"/>
    </linearGradient>
    <linearGradient id="b" x1="0" x2="35.102" y1="29" y2="113.021" gradientUnits="userSpaceOnUse">
      <stop  offset="0" stop-color="#DA38FF"/>
      <stop offset=".223" stop-color="#DA38FF"/>
      <stop offset=".828" stop-color="#087CFA"/>
    </linearGradient>
    <linearGradient id="c" x1="66" x2="46.138" y1="77.51" y2="18.841" gradientUnits="userSpaceOnUse">
      <stop offset=".281" stop-color="#6B57FF"/>
      <stop offset=".875" stop-color="#9E3DFF"/>
    </linearGradient>
    <linearGradient id="d" x1="10.5" x2="10.5" y1="36.25" y2="59.25" gradientUnits="userSpaceOnUse">
      <stop  offset="0" stop-color="#E19AFB"/>
      <stop offset=".688" stop-color="#EB73FF" stop-opacity=".69"/>
    </linearGradient>
    <linearGradient id="e" x1="99.486" x2="-3.808" y1="41.298" y2="100.659" gradientUnits="userSpaceOnUse">
      <stop offset=".044" stop-color="#3BEA62"/>
      <stop offset=".98" stop-color="#009AE5"/>
    </linearGradient>
    <linearGradient id="f" x1="116.876" x2="41.792" y1="55.951" y2="99.1" gradientUnits="userSpaceOnUse">
      <stop offset=".01" stop-color="#3BEA62"/>
      <stop offset=".3" stop-color="#2BD486"/>
      <stop offset=".76" stop-color="#009AE5"/>
    </linearGradient>
    <linearGradient id="g" x1="75.452" x2="102.019" y1="-10.37" y2="48.924" gradientUnits="userSpaceOnUse">
      <stop offset=".193" stop-color="#3BEA62"/>
      <stop offset=".333" stop-color="#39E766"/>
      <stop offset=".474" stop-color="#33E072"/>
      <stop offset=".616" stop-color="#2AD386"/>
      <stop offset=".759" stop-color="#1DC2A2"/>
      <stop offset=".9" stop-color="#0DACC6"/>
      <stop offset="1" stop-color="#009AE5"/>
    </linearGradient>
    <linearGradient id="h" x1="51.503" x2="92.701" y1="13.432" y2="22.287" gradientUnits="userSpaceOnUse">
      <stop offset=".097" stop-color="#A8FF68"/>
      <stop offset=".501" stop-color="#2BD486" stop-opacity="0"/>
    </linearGradient>
    <linearGradient id="i" x1="136.845" x2="102.963" y1="29.873" y2="21.403" gradientUnits="userSpaceOnUse">
      <stop offset=".463" stop-color="#3BEA62"/>
      <stop offset=".98" stop-color="#009AE5"/>
    </linearGradient>
    <linearGradient id="j" x1="62.722" x2="46.721" y1="134.86" y2="46.004" gradientUnits="userSpaceOnUse">
      <stop offset=".044" stop-color="#3BEA62"/>
      <stop offset=".98" stop-color="#009AE5"/>
    </linearGradient>
    <linearGradient id="k" x1="31.826" x2="56.067" y1="43.486" y2="99.623" gradientUnits="userSpaceOnUse">
      <stop  offset="0" stop-color="#C7489F"/>
      <stop offset=".072" stop-color="#C34DA5" stop-opacity=".914"/>
      <stop offset=".216" stop-color="#B95CB4" stop-opacity=".69"/>
      <stop offset=".415" stop-color="#A974CD" stop-opacity=".332"/>
      <stop offset=".585" stop-color="#9B8BE5" stop-opacity="0"/>
    </linearGradient>
    <linearGradient id="l" x1="80.5" x2="12" y1="26.5" y2="44.5" gradientUnits="userSpaceOnUse">
      <stop offset=".044" stop-color="#3BEA62"/>
      <stop offset=".98" stop-color="#009AE5"/>
    </linearGradient>
    <linearGradient id="m" x1="39.5" x2="27.778" y1="117" y2="62.816" gradientUnits="userSpaceOnUse">
      <stop offset=".373" stop-color="#3BEA62" stop-opacity="0"/>
      <stop offset="1" stop-color="#C931FF"/>
    </linearGradient>
    <linearGradient id="n" x1="27.411" x2="58.463" y1="56.253" y2="51.984" gradientUnits="userSpaceOnUse">
      <stop  offset="0" stop-color="#26B2C4" stop-opacity="0"/>
      <stop offset=".287" stop-color="#43C3AA" stop-opacity=".285"/>
      <stop offset=".953" stop-color="#8CF06A" stop-opacity=".994"/>
      <stop offset=".958" stop-color="#8DF16A"/>
    </linearGradient>
    <linearGradient id="o" x1="107.142" x2="55.735" y1="71.763" y2="135.086" gradientUnits="userSpaceOnUse">
      <stop  offset="0" stop-color="#C7489F"/>
      <stop offset=".072" stop-color="#C34DA5" stop-opacity=".914"/>
      <stop offset=".216" stop-color="#B95CB4" stop-opacity=".69"/>
      <stop offset=".415" stop-color="#A974CD" stop-opacity=".332"/>
      <stop offset=".585" stop-color="#9B8BE5" stop-opacity="0"/>
    </linearGradient>
    <linearGradient id="p" x1="93.615" x2="86.936" y1="83.915" y2="92.142" gradientUnits="userSpaceOnUse">
      <stop offset=".306" stop-color="#EB73FF" stop-opacity="0"/>
      <stop offset="1" stop-color="#BD31FF"/>
    </linearGradient>
    <linearGradient id="q" x1="14" x2="58.5" y1="71.5" y2="128" gradientUnits="userSpaceOnUse">
      <stop offset=".212" stop-color="#3BEA62"/>
      <stop offset=".98" stop-color="#009AE5"/>
    </linearGradient>
    <linearGradient id="r" x1="116.798" x2="99.857" y1="33.292" y2="81.805" gradientUnits="userSpaceOnUse">
      <stop offset=".097" stop-color="#95F286"/>
      <stop offset=".501" stop-color="#2BD486" stop-opacity="0"/>
    </linearGradient>
    <linearGradient id="s" x1="22.994" x2="102.54" y1="24.193" y2="101.414" gradientUnits="userSpaceOnUse">
      <stop  offset="0" stop-color="#007859"/>
      <stop offset=".088" stop-color="#00533E"/>
      <stop offset=".192" stop-color="#002F23"/>
      <stop offset=".289" stop-color="#001510"/>
      <stop offset=".377" stop-color="#000604"/>
      <stop offset=".445"/>
      <stop offset=".914"/>
    </linearGradient>
    <linearGradient id="t" x1="31.318" x2="53.555" y1="34.324" y2="85.821" gradientUnits="userSpaceOnUse">
      <stop offset=".326" stop-color="#FF318C"/>
      <stop offset=".384" stop-color="#F4358F"/>
      <stop offset=".484" stop-color="#D84099"/>
      <stop offset=".614" stop-color="#AA53A9"/>
      <stop offset=".769" stop-color="#6B6DBF"/>
      <stop offset=".944" stop-color="#1B8EDB"/>
      <stop offset="1" stop-color="#009AE5"/>
    </linearGradient>
    <linearGradient id="u" x1="19.848" x2="33.232" y1="66.145" y2="97.14" gradientUnits="userSpaceOnUse">
      <stop offset=".058" stop-color="#FF318C"/>
      <stop offset=".141" stop-color="#F43492"/>
      <stop offset=".285" stop-color="#D83DA4"/>
      <stop offset=".47" stop-color="#AB4CC1"/>
      <stop offset=".584" stop-color="#8C57D5"/>
      <stop offset=".71" stop-color="#5C6DDA"/>
      <stop offset=".933" stop-color="#009AE5"/>
    </linearGradient>
    <linearGradient id="v" x1="29.413" x2="74.648" y1="35.911" y2="89.937" gradientUnits="userSpaceOnUse">
      <stop offset=".191" stop-color="#FF318C"/>
      <stop offset=".464" stop-color="#8363B7"/>
      <stop offset=".764" stop-color="#009AE5"/>
    </linearGradient>
    <linearGradient id="w" x1="90.945" x2="5.566" y1="48.51" y2="97.575" gradientUnits="userSpaceOnUse">
      <stop offset=".044" stop-color="#3BEA62"/>
      <stop offset=".877" stop-color="#024546"/>
    </linearGradient>
    <linearGradient id="x" x1="74.541" x2="104.695" y1="20.913" y2="39.57" gradientUnits="userSpaceOnUse">
      <stop offset=".097" stop-color="#A8FF68"/>
      <stop offset=".501" stop-color="#2BD486"/>
      <stop offset="1" stop-color="#1686E6"/>
    </linearGradient>
    <linearGradient id="y" x1="57.782" x2="15.173" y1="27.667" y2="111.09" gradientUnits="userSpaceOnUse">
      <stop offset=".044" stop-color="#99EA51"/>
      <stop offset=".98" stop-color="#009AE5"/>
    </linearGradient>
    <linearGradient id="z" x1="102.16" x2="86.246" y1="50.395" y2="111.742" gradientUnits="userSpaceOnUse">
      <stop offset=".097" stop-color="#95F286"/>
      <stop offset=".501" stop-color="#2BD486"/>
    </linearGradient>
  </defs>
  <path fill="url(#a)" d="M60.497 45.971 6.362 32.741 0 47.791l19.514 62.418L71.362 128 93.68 91.491l-33.183-45.52Z"/>
  <path fill="url(#b)" d="M6.361 32.741 0 47.791l19.514 62.418 9.165-25.718 2-15-24.318-36.75Z"/>
  <path fill="url(#c)" d="M60.496 45.73 6.361 32.5 0 47.552l63.653 22.013-3.157-23.833Z"/>
  <path fill="url(#d)" d="M6.362 32.742 0 47.793l21.164 7.319-14.802-22.37Z"/>
  <path fill="url(#e)" d="m127.999 36.616-13.01-25.475L48.6 0 19.513 110.21l51.848 17.791L128 36.616Z"/>
  <path fill="url(#f)" d="M128.001 36.616 114.99 11.14 71.363 128 128 36.616Z"/>
  <path fill="url(#g)" d="M128.001 36.616 114.99 11.14 48.602 0 70.68 33.49 128 36.617Z"/>
  <path fill="url(#h)" d="M128 36.616 114.99 11.14 48.602 0 70.68 33.49 128 36.617Z"/>
  <path fill="url(#i)" d="M128 36.616 114.991 11.14l-9.062 24.272L128 36.616Z"/>
  <path fill="url(#j)" d="m30.68 69.492-.3-.453-10.865 41.171L71.363 128 93.68 91.491l-63-22Z"/>
  <path fill="url(#k)" d="m93.68 91.492-29-45-26.755-6.037-18.41 69.755 51.848 17.791 22.317-36.51Z"/>
  <path fill="url(#l)" d="M70.678 33.492 48.6 0 19.513 110.21l27.165-25.718 24-51Z"/>
  <path fill="url(#m)" d="M19.515 110.209 46.68 84.491l3.804-8.084-19.804-6.915-.3-.453-5.153 19.53-5.712 21.64Z"/>
  <path fill="url(#n)" d="m32.978 59.197 22.021 7.615 9.68-20.32-26.754-6.037-4.947 18.742Z"/>
  <path fill="url(#o)" d="m71.363 128.001 22.317-36.51-5.5-8.535-16.817 45.045Z"/>
  <path fill="url(#p)" d="m93.679 91.492-5.5-8.536-2.185 5.852 7.685 2.684Z"/>
  <path fill="url(#q)" d="M46.68 84.492 19.515 110.21 71.363 128 46.68 84.492Z"/>
  <path fill="url(#r)" d="M105.929 35.412 71.363 128 128 36.615l-22.071-1.203Z"/>
  <path fill="url(#s)" d="M104 24H24v80h80V24Z"/>
  <g opacity=".2">
    <path fill="url(#t)" d="M24 37.12v66.883h61.765l7.646-12.508-33.183-45.52L24 37.12Z"/>
    <path fill="url(#u)" d="m24 96.873 4.411-12.378 2-15L24 59.805v37.068Z"/>
    <path fill="url(#v)" d="m24 56.188 39.385 13.62-3.157-23.833L24 37.12v19.066Z"/>
    <path fill="url(#w)" d="M104 74.91V24.003H41.999L24 92.201v11.802h61.969L104 74.91Z"/>
    <path fill="url(#x)" d="M70.411 33.495 104 35.325V24.003H64.155l6.256 9.492Z"/>
    <path fill="url(#y)" d="M24 92.2v11.803h1.805L46.41 84.495l24-51-6.257-9.492H42L24 92.201Z"/>
    <path fill="url(#z)" d="M85.969 104.003 104 74.91V39.863l-23.946 64.14h5.915Z"/>
  </g>
  <path fill="#fff" d="M64.149 88.9h-30v5h30v-5Z"/>
  <path fill="#fff" d="M77.542 34.054h5.861L95.788 63.98H89.14l-2.64-6.664H74.28l-2.642 6.664h-6.48l12.384-29.926Zm6.687 17.489-3.839-9.636-3.84 9.636h7.68Z"/>
  <path fill="#fff" d="m60.112 64.871-3.179-2.929c-2.436 1.613-5.367 2.547-8.587 2.547-8.916 0-15.315-6.834-15.315-15.28v-.086c0-8.447 6.481-15.366 15.398-15.366s15.315 6.834 15.315 15.281v.085c0 3.141-.95 6.07-2.56 8.532l2.973 2.59-4.045 4.626Zm-7.885-7.216-4.706-4.117 4.045-4.67 4.748 4.415c.495-1.188.784-2.59.784-4.075v-.085c0-5.093-3.633-9.338-8.752-9.338-5.119 0-8.668 4.16-8.668 9.253v.085c0 5.094 3.632 9.339 8.751 9.339 1.404 0 2.683-.255 3.798-.807Z"/>
</svg>
