<svg width="32" height="32" viewBox="0 0 32 32" fill="none" xmlns="http://www.w3.org/2000/svg">
<path d="M23.7 30.5L30.5 12.4L14.5 8.69995L23.7 30.5Z" fill="url(#paint0_linear)"/>
<path d="M4.5 25.5L30.5 12.4L13.6 8.5L4.5 25.5Z" fill="url(#paint1_linear)"/>
<path d="M30.4 24.8L23.7 30.5L14 28L30.4 24.8Z" fill="url(#paint2_linear)"/>
<path d="M14 28L23.7 30.5L25.5 25.7L14 28Z" fill="url(#paint3_linear)"/>
<path d="M5.1 14.8L2 6L17.4 1.5L5.1 14.8Z" fill="url(#paint4_linear)"/>
<path d="M5.1 14.8L2 6L11.2 8L5.1 14.8Z" fill="url(#paint5_linear)"/>
<path d="M26.8 18.3L17.4 1.5L1.5 18.7V30.5L30.4 24.8L26.8 18.3Z" fill="url(#paint6_linear)"/>
<path d="M26.8 18.3L17.4 1.5L1.5 30.5L30.4 24.8L26.8 18.3Z" fill="url(#paint7_linear)"/>
<path d="M26.8 18.3L17.4 1.5L1.5 30.5L30.4 24.8L26.8 18.3Z" fill="url(#paint8_linear)"/>
<path d="M13.6 8.5L4.30005 25.4L14 28L30.4 24.8L20.2 17.6L18.8 9.6L13.6 8.5Z" fill="url(#paint9_linear)"/>
<path d="M4.5 25.4V25.5L20.2 17.6L17.4 1.5L13.6 8.5L4.5 25.4Z" fill="url(#paint10_linear)"/>
<path d="M2 6L8.2 11.4L1.5 18.7V30.5L13.6 8.5L2 6Z" fill="url(#paint11_linear)"/>
<path d="M1.5 18.7L4.3 25.5L7 20.6L1.5 18.7Z" fill="#108EFF"/>
<path d="M1.5 30.5L6.9 20.6L5.1 14.8L1.5 18.7V30.5Z" fill="url(#paint12_linear)"/>
<path d="M1.5 30.5L6.9 20.6L5.1 14.8L1.5 18.7V30.5Z" fill="url(#paint13_linear)"/>
<path d="M1.5 30.5L6.9 20.6L1.5 18.7V30.5Z" fill="url(#paint14_linear)"/>
<path d="M2 6L13.6 8.5L17.4 1.5L2 6Z" fill="url(#paint15_linear)"/>
<path d="M25 7H7V25H25V7Z" fill="url(#paint16_linear)"/>
<path d="M15.9001 21.4001H9.1001V23.0001H15.9001V21.4001Z" fill="white"/>
<path d="M11.6 9.1001H13L15.9 15.9001H14.3L13.7 14.4001H10.9L10.3 15.9001H8.80005L11.6 9.1001ZM13.2 13.1001L12.3 10.9001L11.4 13.1001H13.2Z" fill="white"/>
<path d="M16 12.6001C16 10.6001 17.5 9.1001 19.5 9.1001C20.8 9.1001 21.6 9.5001 22.2 10.1001L21.2 11.2001C20.7 10.7001 20.1 10.4001 19.5 10.4001C18.4 10.4001 17.5 11.4001 17.5 12.5001C17.5 13.7001 18.3 14.6001 19.5 14.6001C20.3 14.6001 20.8 14.3001 21.3 13.8001L22.3 14.8001C21.6 15.5001 20.8 16.0001 19.5 16.0001C17.5 16.1001 16 14.5001 16 12.6001Z" fill="white"/>
<defs>
<linearGradient id="paint0_linear" x1="14.4743" y1="19.6056" x2="30.5" y2="19.6056" gradientUnits="userSpaceOnUse">
<stop offset="0.0559607" stop-color="#0816FA"/>
<stop offset="0.2842" stop-color="#0855FA"/>
<stop offset="0.9032" stop-color="#087CFA"/>
</linearGradient>
<linearGradient id="paint1_linear" x1="9.482" y1="16.999" x2="35.5296" y2="16.999" gradientUnits="userSpaceOnUse">
<stop offset="0.0113887" stop-color="#07C3F2" stop-opacity="0.4"/>
<stop offset="0.1874" stop-color="#07BFF2" stop-opacity="0.5373"/>
<stop offset="0.375" stop-color="#07B2F4" stop-opacity="0.6836"/>
<stop offset="0.5679" stop-color="#089DF6" stop-opacity="0.834"/>
<stop offset="0.7634" stop-color="#087FFA" stop-opacity="0.9864"/>
<stop offset="0.7808" stop-color="#087CFA"/>
</linearGradient>
<linearGradient id="paint2_linear" x1="14.0202" y1="27.6197" x2="30.4157" y2="27.6197" gradientUnits="userSpaceOnUse">
<stop offset="0.2317" stop-color="#07C3F2"/>
<stop offset="0.3514" stop-color="#07BCF2"/>
<stop offset="0.5222" stop-color="#07AAF4"/>
<stop offset="0.7236" stop-color="#088BF6"/>
<stop offset="0.9467" stop-color="#0860F9"/>
<stop offset="1" stop-color="#0855FA"/>
</linearGradient>
<linearGradient id="paint3_linear" x1="14.0202" y1="28.1114" x2="25.4584" y2="28.1114" gradientUnits="userSpaceOnUse">
<stop offset="0.1935" stop-color="#20C9F3"/>
<stop offset="1" stop-color="#087CFA"/>
</linearGradient>
<linearGradient id="paint4_linear" x1="2.0277" y1="8.1405" x2="17.4126" y2="8.1405" gradientUnits="userSpaceOnUse">
<stop offset="0.1935" stop-color="#07C3F2"/>
<stop offset="0.9032" stop-color="#087CFA"/>
</linearGradient>
<linearGradient id="paint5_linear" x1="1.2181" y1="10.9633" x2="6.65" y2="9.6054" gradientUnits="userSpaceOnUse">
<stop  offset="0" stop-color="#07C3F2"/>
<stop offset="0.8559" stop-color="#087CFA"/>
</linearGradient>
<linearGradient id="paint6_linear" x1="20.5039" y1="31.4119" x2="6.1413" y2="11.3674" gradientUnits="userSpaceOnUse">
<stop offset="0.0913979" stop-color="#21D789"/>
<stop offset="0.4839" stop-color="#07C3F2"/>
<stop offset="0.9032" stop-color="#087CFA"/>
</linearGradient>
<linearGradient id="paint7_linear" x1="23.2641" y1="32.3811" x2="4.0043" y2="9.5233" gradientUnits="userSpaceOnUse">
<stop offset="0.0353052" stop-color="#50FC9B"/>
<stop offset="0.2378" stop-color="#21D789"/>
<stop offset="0.467" stop-color="#07C3F2"/>
<stop offset="0.8507" stop-color="#087CFA"/>
<stop offset="1" stop-color="#0855FA"/>
</linearGradient>
<linearGradient id="paint8_linear" x1="16.6664" y1="20.5821" x2="5.2301" y2="32.3476" gradientUnits="userSpaceOnUse">
<stop offset="0.1423" stop-color="#07C3F2" stop-opacity="0"/>
<stop offset="0.7442" stop-color="#00D4FF"/>
<stop offset="0.9705" stop-color="#36FFFF"/>
</linearGradient>
<linearGradient id="paint9_linear" x1="25.2976" y1="33.7956" x2="7.47435" y2="12.6427" gradientUnits="userSpaceOnUse">
<stop offset="0.1027" stop-color="#07C3F2" stop-opacity="0"/>
<stop offset="1" stop-color="#087CFA"/>
</linearGradient>
<linearGradient id="paint10_linear" x1="7.9399" y1="11.6194" x2="26.4903" y2="23.119" gradientUnits="userSpaceOnUse">
<stop offset="0.0556783" stop-color="#07C3F2" stop-opacity="0"/>
<stop offset="1" stop-color="#087CFA"/>
</linearGradient>
<linearGradient id="paint11_linear" x1="17.0822" y1="25.9099" x2="1.0281" y2="15.0734" gradientUnits="userSpaceOnUse">
<stop offset="0.4839" stop-color="#00E1F2"/>
<stop offset="1" stop-color="#078CF9"/>
</linearGradient>
<linearGradient id="paint12_linear" x1="-1.0981" y1="19.9058" x2="9.5539" y2="26.5091" gradientUnits="userSpaceOnUse">
<stop offset="0.0556783" stop-color="#087CFA" stop-opacity="0.4"/>
<stop offset="0.3766" stop-color="#05D7ED" stop-opacity="0.72"/>
<stop offset="0.7897" stop-color="#54FF80"/>
</linearGradient>
<linearGradient id="paint13_linear" x1="-1.0981" y1="19.9058" x2="9.5539" y2="26.5091" gradientUnits="userSpaceOnUse">
<stop offset="0.0556783" stop-color="#087CFA" stop-opacity="0.4"/>
<stop offset="0.3766" stop-color="#05D7ED" stop-opacity="0.72"/>
<stop offset="0.7897" stop-color="#54FF80"/>
</linearGradient>
<linearGradient id="paint14_linear" x1="-0.4686" y1="19.6295" x2="5.0842" y2="26.663" gradientUnits="userSpaceOnUse">
<stop offset="0.0556783" stop-color="#087CFA" stop-opacity="0.5"/>
<stop offset="0.7897" stop-color="#07C3F2" stop-opacity="0"/>
</linearGradient>
<linearGradient id="paint15_linear" x1="19.1559" y1="-0.3498" x2="6.1947" y2="8.291" gradientUnits="userSpaceOnUse">
<stop offset="0.1536" stop-color="#00FAFF"/>
<stop offset="0.4839" stop-color="#07C3F2"/>
<stop offset="0.9947" stop-color="#087CFA"/>
</linearGradient>
<linearGradient id="paint16_linear" x1="6.3816" y1="6.3499" x2="23.6464" y2="23.6715" gradientUnits="userSpaceOnUse">
<stop  offset="0" stop-color="#006396"/>
<stop offset="0.0339724" stop-color="#005682"/>
<stop offset="0.121" stop-color="#003754"/>
<stop offset="0.2043" stop-color="#001F2F"/>
<stop offset="0.2818" stop-color="#000E15"/>
<stop offset="0.3512" stop-color="#000406"/>
<stop offset="0.4058"/>
<stop offset="0.9138"/>
</linearGradient>
</defs>
</svg>
