<?xml version="1.0" encoding="UTF-8"?>

<svg xmlns="http://www.w3.org/2000/svg" xmlns:xlink="http://www.w3.org/1999/xlink" width="13px" height="13px" viewBox="0 0 13 13" version="1.1">
<g id="surface1">
<path d="M 9.050781 0.132812 L 8.984375 1.601562 C 8.984375 1.679688 9.078125 1.730469 9.144531 1.679688 L 9.71875 1.246094 L 10.203125 1.625 C 10.269531 1.667969 10.351562 1.625 10.355469 1.546875 L 10.300781 0.0546875 L 11.023438 0 C 11.394531 -0.0234375 11.714844 0.273438 11.714844 0.648438 L 11.714844 12.351562 C 11.714844 12.722656 11.402344 13.019531 11.03125 13 L 2.3125 12.609375 C 1.976562 12.59375 1.703125 12.320312 1.691406 11.980469 L 1.285156 1.257812 C 1.265625 0.898438 1.535156 0.589844 1.898438 0.570312 L 9.042969 0.121094 Z M 7.390625 5.039062 C 7.390625 5.292969 9.101562 5.167969 9.332031 4.996094 C 9.332031 3.261719 8.402344 2.347656 6.703125 2.347656 C 4.996094 2.347656 4.050781 3.28125 4.050781 4.671875 C 4.050781 7.082031 7.300781 7.125 7.300781 8.441406 C 7.300781 8.820312 7.128906 9.035156 6.730469 9.035156 C 6.210938 9.035156 6 8.773438 6.027344 7.867188 C 6.027344 7.671875 4.050781 7.605469 3.988281 7.867188 C 3.839844 10.050781 5.195312 10.683594 6.746094 10.683594 C 8.257812 10.683594 9.441406 9.875 9.441406 8.417969 C 9.441406 5.835938 6.136719 5.90625 6.136719 4.628906 C 6.136719 4.101562 6.527344 4.035156 6.75 4.035156 C 6.996094 4.035156 7.425781 4.074219 7.394531 5.046875 Z M 7.390625 5.039062 " fill="#6C707E"/>
</g>
</svg>
