<svg xmlns="http://www.w3.org/2000/svg" width="16" height="16">
  <path d="M16,10H14.489a2.491,2.491,0,0,0-.668-.614l1.033-1.032-.708-.708-1.38,1.381A2.326,2.326,0,0,0,12.5,9a2.326,2.326,0,0,0-.266.027l-1.38-1.381-.708.708,1.033,1.032a2.491,2.491,0,0,0-.668.614H9v1h1.05a2.577,2.577,0,0,0-.05.5V12H9v1h1v.5a2.577,2.577,0,0,0,.05.5H9v1h1.511a2.478,2.478,0,0,0,3.978,0H16V14H14.95a2.577,2.577,0,0,0,.05-.5V13h1V12H15v-.5a2.577,2.577,0,0,0-.05-.5H16Zm-2.5,4h-2V13h2Zm0-2h-2V11h2Z" fill="#62b543"/>
  <path d="M10.854,6.232,12.5,7.879l.462-.462c.01-.14.038-.275.038-.417A6,6,0,0,0,3.128,2.421L8.9,8.189Z" fill="#9aa7b0" fill-opacity=".8"/>
  <path d="M8,8.707,2.421,3.128A5.982,5.982,0,0,0,8,12.91v-4.2Z" fill="#f26522" fill-opacity=".7"/>
</svg>
