<svg width="16" height="16" viewBox="0 0 16 16" xmlns="http://www.w3.org/2000/svg">
  <path fill="#45322B" stroke="#C77D55" stroke-linejoin="round" d="M12.35 11.47a.485.485 0 0 0 0-.7L9.94 8.36a.485.485 0 0 1 0-.7l2.41-2.41a.485.485 0 0 0 0-.7l-.88-.88a.485.485 0 0 0-.7 0L8.36 6.08a.485.485 0 0 1-.7 0L5.25 3.67a.485.485 0 0 0-.7 0l-.88.88a.485.485 0 0 0 0 .7l2.41 2.41a.485.485 0 0 1 0 .7l-2.41 2.41a.485.485 0 0 0 0 .7l.88.88a.485.485 0 0 0 .7 0l2.41-2.41a.485.485 0 0 1 .7 0l2.41 2.41a.485.485 0 0 0 .7 0l.88-.88Z"/>
</svg>
