<svg width="16" height="16" viewBox="0 0 16 16" xmlns="http://www.w3.org/2000/svg">
  <path fill="#EBECF0" d="M8 14v-3c0-1.1.9-2 2-2h1.09c.21-.58.76-1 1.41-1V2.5c0-.55-.45-1-1-1H7.91c-.27 0-.52.11-.71.29L3.79 5.2a.99.99 0 0 0-.29.71v7.59c0 .55.45 1 1 1H8V14Z"/>
  <path fill="none" stroke="#6C707E" stroke-miterlimit="10" d="M12.5 8V2.5c0-.55-.45-1-1-1H7.91c-.27 0-.52.11-.71.29L3.79 5.2a.99.99 0 0 0-.29.71v7.59c0 .55.45 1 1 1H8"/>
  <path fill="none" stroke="#6C707E" stroke-miterlimit="10" d="M3.5 5.5h3c.55 0 1-.45 1-1v-3"/>
  <path fill="#3574F0" d="M13 11.5c0 .28-.22.5-.5.5s-.5-.22-.5-.5.22-.5.5-.5.5.22.5.5Zm-.5 1.5c-.28 0-.5.22-.5.5s.22.5.5.5.5-.22.5-.5-.22-.5-.5-.5Zm0 2c-.28 0-.5.22-.5.5s.22.5.5.5.5-.22.5-.5-.22-.5-.5-.5Zm0-6c-.28 0-.5.22-.5.5s.22.5.5.5.5-.22.5-.5-.22-.5-.5-.5Zm-1 5H10v-3h1.5v-1H10c-.55 0-1 .45-1 1v3c0 .55.45 1 1 1h1.5v-1Zm4.5-3v3c0 .55-.45 1-1 1h-1.5v-1H15v-3h-1.5v-1H15c.55 0 1 .45 1 1Z"/>
</svg>
