<svg width="16" height="16" viewBox="0 0 16 16" xmlns="http://www.w3.org/2000/svg">
  <path fill="none" stroke="#6C707E" stroke-miterlimit="10" d="M14.5 5.93c0-.4-.16-.78-.44-1.06l-2.93-2.93c-.28-.28-.66-.44-1.06-.44H5.93c-.4 0-.78.16-1.06.44L1.94 4.87c-.28.28-.44.66-.44 1.06v4.14c0 .4.16.78.44 1.06l2.93 2.93c.28.28.66.44 1.06.44h4.14c.4 0 .78-.16 1.06-.44l2.93-2.93c.28-.28.44-.66.44-1.06V5.93Z"/>
  <path fill="none" stroke="#6C707E" stroke-linecap="round" stroke-linejoin="round" d="M4.5 9.5h7m0-3h-7"/>
</svg>
