<!-- Copyright © 2000–2024 JetBrains s.r.o. -->
<svg width="16" height="16" viewBox="0 0 16 16" xmlns="http://www.w3.org/2000/svg">
  <defs>
    <linearGradient id="a" x1="4431.99" x2="4417.33" y1="-4649.92" y2="-4635.27" gradientTransform="matrix(1 0 0 -1 -4417 -4635)" gradientUnits="userSpaceOnUse">
      <stop offset=".29" stop-color="#6b57ff"/>
      <stop offset=".89" stop-color="#07c3f2"/>
    </linearGradient>
    <linearGradient id="b" x1="4418.92" x2="4432.28" y1="-4651.1" y2="-4644.9" gradientTransform="matrix(1 0 0 -1 -4417 -4635)" gradientUnits="userSpaceOnUse">
      <stop offset=".3" stop-color="#ff45ed"/>
      <stop offset=".84" stop-color="#6b57ff"/>
    </linearGradient>
  </defs>
  <path fill="url(#a)" d="M0 1.03v8.53c0 .41.25.79.63.95l9.35 3.95c.13.05.27.06.41.06h4.58c.56 0 1.02-.48 1.02-1.05V9.05c0-.2-.06-.4-.17-.57L10.55.47C10.36.18 10.03 0 9.69 0H1.03C.46 0 0 .46 0 1.03"/>
  <path fill="url(#b)" d="M1.5 12.25v2.72c0 .57.46 1.03 1.03 1.03h3.14c.05 0 .1 0 .15-.01l9.3-1.36c.51-.08.88-.51.88-1.02V9.76c0-.57-.46-1.03-1.03-1.03h-4.62c-.11 0-.21.02-.31.05l-7.81 2.49c-.43.14-.72.53-.72.98Z"/>
  <path fill="#ff45ed" d="M1.5 11.89v3.07c0 .58.47 1.05 1.05 1.04h2.7c.3 0 .63-.19.82-.41l8.18-9.55c.16-.19.25-.42.25-.67V2.53c0-.57-.46-1.03-1.03-1.03h-2.75c-.3 0-.58.13-.78.35l-8.18 9.36c-.17.19-.26.43-.26.68"/>
  <path d="M13 3H3v10h10z"/>
  <path fill="#fff" d="M8 11H4v1h4zm2.99-6.39c-.12-.2-.29-.34-.52-.46-.21-.1-.47-.15-.74-.15H8v4h.93V6.56h.77c.29 0 .55-.05.76-.15.22-.11.41-.26.52-.46.12-.2.18-.43.18-.68s-.06-.49-.17-.67ZM9.68 5.75h-.75v-.93h.75c.1 0 .2.02.28.05.07.04.13.09.17.16s.06.15.06.24c0 .1-.02.18-.06.25s-.1.12-.17.16c-.08.04-.18.06-.28.06Zm-2.41-.78c-.16-.3-.41-.55-.71-.72C6.27 4.08 5.92 4 5.55 4H4v4h1.55c.37 0 .72-.09 1.01-.25.3-.17.55-.42.71-.72.17-.3.25-.65.25-1.03s-.08-.72-.25-1.02ZM5.54 7.16h-.6V4.84h.6c.21 0 .38.05.55.14.15.09.28.22.35.38.09.18.13.38.13.63s-.05.46-.13.63-.2.3-.35.39-.33.14-.55.14Z"/>
  <path fill="#f4f4f4" fill-rule="evenodd" d="M0 11.5A4.5 4.5 0 0 0 4.5 16C6.99 16 9 13.99 9 11.5S6.99 7 4.5 7A4.5 4.5 0 0 0 0 11.5"/>
  <path fill="#a1260c" fill-rule="evenodd" d="M1 11.5C1 13.43 2.57 15 4.5 15S8 13.43 8 11.5 6.43 8 4.5 8 1 9.57 1 11.5"/>
  <path fill="#fff" fill-rule="evenodd" d="M6.75 12h-4.5v-1h4.5z"/>
</svg>
