<!-- Copyright © 2000–2024 JetBrains s.r.o. -->
<svg width="16" height="16" viewBox="0 0 16 16" xmlns="http://www.w3.org/2000/svg">
  <defs>
    <linearGradient id="a" x1="9.5" x2="9.5" y1="1.04" y2="11.94" gradientUnits="userSpaceOnUse">
      <stop offset="0" stop-color="#567180"/>
      <stop offset="1" stop-color="#2c3041"/>
    </linearGradient>
    <linearGradient id="b" x1="9.5" x2="9.5" y1="1.94" y2="10.94" gradientUnits="userSpaceOnUse">
      <stop offset="0" stop-color="#adeef9"/>
      <stop offset="1" stop-color="#84a2bf"/>
    </linearGradient>
    <linearGradient id="c" x1="9.5" x2="9.5" y1="3.52" y2="9.47" gradientUnits="userSpaceOnUse">
      <stop offset="0" stop-color="#2c3041"/>
      <stop offset="1" stop-color="#567180"/>
    </linearGradient>
    <linearGradient id="d" x1="5.5" x2="5.5" y1="2.93" y2="15.98" gradientUnits="userSpaceOnUse">
      <stop offset="0" stop-color="#5b400e"/>
      <stop offset="1" stop-color="#6d2020"/>
    </linearGradient>
    <linearGradient id="e" x1="5.5" x2="5.5" y1="4.1" y2="15.26" gradientUnits="userSpaceOnUse">
      <stop offset="0" stop-color="#ffe077"/>
      <stop offset="1" stop-color="#d98c00"/>
    </linearGradient>
    <linearGradient id="f" x1="9.5" x2="9.5" y1="0" y2="9" gradientUnits="userSpaceOnUse">
      <stop offset="0" stop-color="#7d4b00"/>
      <stop offset="1" stop-color="#47280d"/>
    </linearGradient>
    <linearGradient id="g" x1="9.5" x2="9.5" y1="1.15" y2="8.25" gradientUnits="userSpaceOnUse">
      <stop offset="0" stop-color="#ffc800"/>
      <stop offset="1" stop-color="#f70"/>
    </linearGradient>
  </defs>
  <path fill="url(#a)" d="M4 1h11v11H4z"/>
  <path fill="url(#b)" d="M5 2h9v9H5z"/>
  <path fill="url(#c)" d="M6.5 3.5h6v6h-6z"/>
  <path fill="url(#d)" fill-rule="evenodd" d="M8 11c0 .67-.03 1.61-.15 1.81-.3.19-1.79.19-2.35.19s-2.05 0-2.31-.15C3 12.55 3 11.06 3 10.5V10h1.5L8 6.5 4.5 3H2v1.74l.54.54C.53 5.81 0 7.22 0 10.5 0 15.02.98 16 5.5 16s5.42-.91 5.49-5z"/>
  <path fill="url(#e)" fill-rule="evenodd" d="M9 11c-.01 2.94-.24 3-3.5 3-3.43 0-3.5-.07-3.5-3.5 0-3.13.06-3.46 2.67-3.49L2.68 9h1.41l2.5-2.5L4.09 4H2.68l2 2c-3.23.1-3.67.8-3.67 4.5 0 4 .5 4.5 4.5 4.5s4.45-.47 4.5-4h-1Z"/>
  <path fill="url(#f)" fill-rule="evenodd" d="M8.01 6.56s0 .03-.01.05v1.77c.15.25.36.46.61.61h1.77c.25-.15.46-.36.61-.61V6.61s0-.03-.01-.05V0H8v6.56Z"/>
  <path fill="url(#g)" fill-rule="evenodd" d="M10.25 7.5c0 .41-.34.75-.75.75s-.75-.34-.75-.75.34-.75.75-.75.75.34.75.75M9 6h1l.2-5H8.8z"/>
</svg>
