<!-- Copyright © 2000–2024 JetBrains s.r.o. -->
<svg width="16" height="16" viewBox="0 0 16 16" xmlns="http://www.w3.org/2000/svg">
  <path fill="#9aa7b0" d="M6.5 4.78 5 3.53V2h2.84l.06 1.5H6.5zM14 2h-2.84l-.06 1.5h1.4v6h-6V8.22L5 9.47V11h4c-.01 2.94-.24 3-3.5 3-3.43 0-3.5-.07-3.5-3.5 0-2.84.05-3.37 2-3.48V9l3-2.5L4 4v2.04c-2.62.18-3 1.03-3 4.46 0 4 .5 4.5 4.5 4.5s4.45-.47 4.5-4h4z"/>
  <path fill="#f4af3d" d="M10.25 7.5c0 .41-.34.75-.75.75s-.75-.34-.75-.75.34-.75.75-.75.75.34.75.75M9 6h1l.2-5H8.8z"/>
</svg>
