<!-- Copyright © 2000–2024 JetBrains s.r.o. -->
<svg width="16" height="16" viewBox="0 0 16 16" xmlns="http://www.w3.org/2000/svg">
  <path fill="#242424" d="M4 1h11v11H4z"/>
  <path fill="#c4c4c4" d="M5 2h9v9H5z"/>
  <path fill="#292929" d="M6.5 3.5h6v6h-6z"/>
  <path fill="#242424" fill-rule="evenodd" d="M8 11c0 .67-.03 1.61-.15 1.81-.3.19-1.79.19-2.35.19s-2.05 0-2.31-.15C3 12.55 3 11.06 3 10.5V10h1.5L8 6.5 4.5 3H2v1.74l.54.54C.53 5.81 0 7.22 0 10.5 0 15.02.98 16 5.5 16s5.42-.91 5.49-5z"/>
  <path fill="#7bbeff" d="m2.73 13.72.45.22-.43.9-.45-.22a1.94 1.94 0 0 1-.92-.92l-.22-.45.9-.43.22.45q.075.165.18.27a.7.7 0 0 0 .27.18M4.09 4H2.68l2 2c-1.69.03-2.78.23-3.3 1.3l-.22.45.9.43.22-.45c.24-.51.75-.68 2.38-.72L2.67 9h1.41l2.5-2.5L4.08 4Zm-2.08 7.23V9.27l-1-.02s-.01 1.76 0 1.99v.5l1.01-.02v-.5ZM9 11l-.01.73 1 .02s0-.67.01-.75zm-.28 2.27q-.075.165-.18.27a.7.7 0 0 1-.27.18l-.45.22.43.9.45-.22c.21-.1.39-.22.54-.38s.28-.33.38-.54l.22-.45-.9-.43zm-2.49.72H4.27l-.02.99s1.76.01 1.99 0h.5l-.02-1.01h-.5Z"/>
</svg>
