<!-- Copyright © 2000–2024 JetBrains s.r.o. -->
<svg width="16" height="16" viewBox="0 0 16 16" xmlns="http://www.w3.org/2000/svg">
  <path d="M14 2.5v8c0 .28-.22.5-.5.5H10v.35a.5.5 0 0 1-.5.49h-.01a.49.49 0 0 1-.49-.51V11H5.5c-.28 0-.5-.22-.5-.5v-.67c0-.28.22-.5.5-.5s.5.22.5.5V10h7V3H6v.17c0 .28-.22.5-.5.5s-.5-.22-.5-.5V2.5c0-.28.22-.5.5-.5h8c.28 0 .5.22.5.5M6.35 6.85c.2-.2.2-.51 0-.71l-2-2c-.2-.2-.51-.2-.71 0s-.2.51 0 .71L4.79 6c-1.82.03-2.98.21-3.47 1.41-.11.25.02.55.27.65.06.03.13.04.19.04.2 0 .38-.12.46-.31.24-.58.75-.76 2.54-.79L3.64 8.14c-.2.2-.2.51 0 .71a.485.485 0 0 0 .7 0l2-2Zm-3.55 6.9q-.21-.09-.33-.21a.8.8 0 0 1-.21-.33c-.1-.25-.4-.38-.65-.27a.5.5 0 0 0-.27.65c.11.26.25.48.43.66s.4.32.66.43c.06.03.13.04.19.04.2 0 .38-.12.46-.31a.493.493 0 0 0-.27-.65Zm-1.28-1.91c.28 0 .5-.23.49-.51V9.68c0-.28-.21-.5-.49-.51-.27.01-.5.21-.51.49v1.69c0 .27.23.49.5.49zm7.88 1.09c-.26-.1-.55.02-.65.27q-.09.21-.21.33c-.12.12-.2.16-.33.21a.5.5 0 0 0-.27.65c.08.19.27.31.46.31.06 0 .13-.01.19-.04.26-.11.48-.25.66-.43s.32-.4.43-.66a.493.493 0 0 0-.27-.65Zm-3.07 1.06H4.68c-.25.01-.5.21-.51.49 0 .28.21.5.49.51h1.69c.28 0 .5-.23.49-.51s-.21-.47-.51-.49"/>
</svg>
