<!-- Copyright © 2000–2024 JetBrains s.r.o. -->
<svg width="16" height="16" viewBox="0 0 16 16" xmlns="http://www.w3.org/2000/svg">
  <path d="M5.5 3.67c-.28 0-.5-.22-.5-.5V2.5c0-.28.22-.5.5-.5h1.85c.28 0 .5.22.5.5s-.22.5-.5.5H6v.17c0 .28-.22.5-.5.5"/>
  <path d="M13.5 2h-1.85c-.28 0-.5.22-.5.5s.22.5.5.5H13v7H6v-.17c0-.28-.22-.5-.5-.5s-.5.22-.5.5v.67c0 .28.22.5.5.5H9c-.01 2.94-.24 3-3.5 3-3.43 0-3.5-.07-3.5-3.5 0-3.18.06-3.47 2.79-3.5L3.65 8.14c-.2.2-.2.51 0 .71a.485.485 0 0 0 .7 0l2-2c.2-.2.2-.51 0-.71l-2-2c-.2-.2-.51-.2-.71 0s-.2.51 0 .71L4.79 6c-3.35.07-3.8.74-3.8 4.49 0 4 .5 4.5 4.5 4.5s4.45-.47 4.5-4h3.5c.28 0 .5-.22.5-.5V2.5c0-.28-.22-.5-.5-.5Z"/>
  <path d="M9.5 5.8c-.28 0-.5-.22-.5-.5V1.5c0-.28.22-.5.5-.5s.5.22.5.5v3.8c0 .28-.22.5-.5.5"/>
  <circle cx="9.5" cy="7.5" r=".8"/>
</svg>
