<!-- Copyright © 2000–2024 JetBrains s.r.o. -->
<svg width="16" height="16" viewBox="0 0 16 16" xmlns="http://www.w3.org/2000/svg">
  <path fill="#9aa7b0" d="M14 2H5v1.53l1.5 1.25V3.5h6v6h-6V8.22L5 9.47V11h4l-.01.73 1 .02s0-.67.01-.75h4z"/>
  <path fill="#9aa7b0" d="M7 6.5 4 4v2.03c-1.26.07-2.1.32-2.56 1.15l-.24.44.88.48.24-.44c.22-.4.7-.57 1.69-.63v1.96l3-2.5Zm-4.54 7.04a.9.9 0 0 1-.21-.33l-.19-.46-.92.38.19.46c.11.26.25.48.43.66.15.15.33.28.54.38l.45.22.43-.9-.45-.22a.9.9 0 0 1-.27-.18Zm-.45-2.31V9.27l-1-.02s-.01 1.76 0 1.99v.5l1.01-.02v-.5Zm6.71 2.04q-.075.165-.18.27a.7.7 0 0 1-.27.18l-.45.22.43.9.45-.22c.21-.1.39-.22.54-.38s.28-.33.38-.54l.22-.45-.9-.43zm-2.49.72H4.27l-.02.99s1.76.01 1.99 0h.5l-.02-1.01h-.5Z"/>
</svg>
