<!-- Copyright © 2000–2024 JetBrains s.r.o. -->
<svg width="16" height="16" viewBox="0 0 16 16" xmlns="http://www.w3.org/2000/svg">
  <path fill="#43454A" fill-rule="evenodd" d="M5.5 2.5v1.38l1.56 1.56a1.5 1.5 0 0 1 0 2.12L5.5 9.12v1.38h8v-8z"/>
  <path fill="none" stroke="#CED0D6" stroke-linecap="round" stroke-linejoin="round" d="M5.5 3.17V2.5h8v8h-8v-.67"/>
  <path fill="none" stroke="#CED0D6" stroke-linecap="round" stroke-linejoin="round" d="m4 4.5 2 2-2 2"/>
  <path fill="none" stroke="#CED0D6" stroke-linecap="round" stroke-linejoin="round" d="M1.79 13.4c.08.2.19.36.32.5s.3.24.5.32m5.79-.01c.2-.08.36-.19.5-.32s.24-.3.32-.5m-4.56 1.1h1.67m3.16-3.15v-.84m-7.98-.84v1.67m.28-3.73c.41-.99 1.39-1.1 3.71-1.1"/>
</svg>
