<!-- Copyright © 2000–2024 JetBrains s.r.o. -->
<svg width="16" height="16" viewBox="0 0 16 16" xmlns="http://www.w3.org/2000/svg">
  <path fill="#fff" d="M13.5 2h-8c-.28 0-.5.22-.5.5v.89s.04.03.06.05l.94.94V3h7v7H6V8.62l-.94.94s-.04.03-.06.05v.89c0 .28.22.5.5.5H9c-.01 2.94-.24 3-3.5 3-3.43 0-3.5-.07-3.5-3.5 0-3.18.06-3.47 2.79-3.5L3.65 8.14c-.2.2-.2.51 0 .71a.485.485 0 0 0 .7 0l2-2c.2-.2.2-.51 0-.71l-2-2c-.2-.2-.51-.2-.71 0s-.2.51 0 .71L4.79 6c-3.35.07-3.8.74-3.8 4.49 0 4 .5 4.5 4.5 4.5s4.45-.47 4.5-4h3.5c.28 0 .5-.22.5-.5V2.5c0-.28-.22-.5-.5-.5z"/>
</svg>
