<!-- Copyright © 2000–2024 JetBrains s.r.o. -->
<svg width="16" height="16" viewBox="0 0 16 16" xmlns="http://www.w3.org/2000/svg">
  <path fill="#EBECF0" fill-rule="evenodd" d="M5.5 2.5v1.38l1.56 1.56a1.5 1.5 0 0 1 0 2.12L5.5 9.12v1.38h8v-8z"/>
  <path fill="none" stroke="#6C707E" stroke-linecap="round" stroke-linejoin="round" d="M11.65 2.5h1.85v8h-8v-.67m0-6.66V2.5h1.85M4 4.5l2 2-2 2"/>
  <path fill="none" stroke="#6C707E" stroke-linecap="round" stroke-linejoin="round" d="M9.5 10.5c0 3.71-.29 4-4 4s-4-.29-4-4 .29-4 4-4"/>
  <path fill="none" stroke="#6C707E" stroke-linecap="round" stroke-linejoin="round" stroke-width="1.3" d="M9.5 1.65V5.3"/>
  <path fill="#6C707E" d="M9.5 8.3a.8.8 0 1 0 0-1.6.8.8 0 0 0 0 1.6"/>
</svg>
