<svg width="16" height="16" viewBox="0 0 16 16" xmlns="http://www.w3.org/2000/svg">
  <path fill="#EBECF0" d="M11.066 11.73c-.224 0-.444-.033-.658-.101l-.327-.105-.155.3A2.147 2.147 0 0 1 8.68 12.88L9.25 15l3.187-1.108-.994-2.196a2.15 2.15 0 0 1-.377.037l-.001-.001Zm-4.992.097-.155-.303-.32.104a2.189 2.189 0 0 1-.663.104c-.129 0-.254-.015-.379-.037l-.994 2.197L6.75 15l.57-2.12a2.153 2.153 0 0 1-1.245-1.052v-.002Z"/>
  <path fill="#EBECF0" stroke="#6C707E" stroke-linecap="round" stroke-linejoin="round" d="m12.639 5.907-.928-.478a.667.667 0 0 1-.33-.796l.318-.994a.667.667 0 0 0-.839-.839l-.994.318a.667.667 0 0 1-.796-.33l-.478-.928a.666.666 0 0 0-1.186 0l-.478.928a.667.667 0 0 1-.796.33L5.138 2.8a.667.667 0 0 0-.839.839l.318.994a.667.667 0 0 1-.33.796l-.928.478a.666.666 0 0 0 0 1.186l.928.478c.29.149.43.486.33.796l-.318.994a.667.667 0 0 0 .839.839l.994-.318c.31-.099.647.04.796.33l.478.928a.667.667 0 0 0 1.186 0l.478-.928a.667.667 0 0 1 .796-.33l.994.318a.667.667 0 0 0 .839-.839l-.318-.994a.667.667 0 0 1 .33-.796l.928-.478a.666.666 0 0 0 0-1.186ZM8 8a1.5 1.5 0 1 1 .001-3.001 1.5 1.5 0 0 1 0 3.001Z"/>
  <path fill="none" stroke="#6C707E" stroke-linecap="round" stroke-linejoin="round" d="m4.346 12.16-.783 1.73L6.75 15l.44-1.638m1.62 0L9.25 15l3.188-1.11-.784-1.73"/>
</svg>
