<svg xmlns="http://www.w3.org/2000/svg" width="128" height="128">
  <path fill="#f4af3d" fill-opacity=".7" d="M13 56H115V80H13z"/>
  <path fill="#9aa7b0" fill-opacity=".8" fill-rule="evenodd" d="M92 84L92 100 36 100 36 84 32 84 32 104 96 104 96 84 92 84zM52 24L32 44 32 52 36 52 36 45.657 53.657 28 92 28 92 52 96 52 96 24 52 24z"/>
  <path d="M19.862 63h2.072v1.511h.038a3.259 3.259 0 013.071-1.7c2.281 0 3.45 1.5 3.45 3.716V73H26.431V66.926c0-1.469-.664-2.349-2.121-2.349a2.33 2.33 0 00-2.376 2.6V73H19.862zM30.034 68v-.019c0-3.316 2.015-5.171 4.743-5.171 3.009 0 4.753 2.124 4.753 5.171V68c0 3.332-2 5.2-4.743 5.2C32.01 73.2 30.034 71.316 30.034 68zm7.385 0v-.019c0-1.884-.8-3.451-2.642-3.451-1.8 0-2.643 1.572-2.643 3.451V68c0 1.882.81 3.47 2.662 3.47C36.628 71.47 37.419 69.879 37.419 68zM45.043 63h2.072v1.711h.049a3.359 3.359 0 013.126-1.9c2.3 0 4.183 1.69 4.183 5.19 0 2.841-1.387 5.2-4.155 5.2a3.449 3.449 0 01-3.165-1.881h-.038v5.009H45.043zm7.32 5.009c0-1.872-.782-3.432-2.614-3.432C48 64.577 47.1 66.18 47.1 68c0 2.274 1.261 3.422 2.652 3.422C51.569 71.422 52.363 69.846 52.363 68.009zM56.051 63h2.072v1.711h.039a2.346 2.346 0 012.309-1.9 3.085 3.085 0 01.714.075V64.8a3.155 3.155 0 00-.923-.115 2.073 2.073 0 00-2.139 2.358V73H56.051zM71.08 63L73.266 63 75.776 70.985 75.823 70.985 78.323 63 80.481 63 76.898 73 74.683 73 71.08 63zM81.575 60.281a1.2 1.2 0 111.2 1.179A1.18 1.18 0 0181.575 60.281zM81.737 63h2.072V73H81.737zM95.077 63h2.062l1.816 7.87H99L101.075 63h1.987l2.091 7.87h.048L107.017 63h2.043l-2.738 10h-2.149l-2.09-7.491h-.048L99.953 73H97.814zM94.617 68.523v-.694c0-2.9-1.62-5.019-4.534-5.019s-4.611 2.226-4.611 5.218c0 3.053 1.667 5.171 4.716 5.171.6 0 3.746-.181 4.316-3.137H92.545a2.256 2.256 0 01-2.31 1.446c-1.544 0-2.654-.989-2.691-2.985zm-7.032-1.455c.192-1.784 1.263-2.576 2.507-2.576 1.306 0 2.287.765 2.464 2.576zM70.739 67.829c0-2.882-1.6-5.019-4.535-5.019-2.907 0-4.61 2.209-4.61 5.209 0 3.107 1.7 5.18 4.714 5.18.6 0 3.779-.2 4.316-3.137H68.667a2.274 2.274 0 01-2.31 1.446c-1.543 0-2.655-.988-2.692-2.985h7.074zm-4.525-3.337c1.318 0 2.287.777 2.463 2.576H63.706C63.9 65.286 64.969 64.492 66.214 64.492z" fill="#231f20" fill-opacity=".7"/>
</svg>
