<!-- Copyright © 2000–2024 JetBrains s.r.o. -->
<svg width="16" height="16" viewBox="0 0 16 16" xmlns="http://www.w3.org/2000/svg">
  <path fill="#3DDC84" d="m11.54 5.55 1.17-2.02c.03-.05.05-.11.05-.17 0-.19-.16-.35-.35-.35-.12 0-.24.07-.3.17l-1.19 2.06c-.92-.4-1.91-.61-2.92-.6-1 0-2 .2-2.92.6L3.9 3.18a.357.357 0 0 0-.48-.13.34.34 0 0 0-.12.47l1.16 2.02A6.96 6.96 0 0 0 1 10.99h14a6.92 6.92 0 0 0-3.46-5.45ZM4.5 9.25c-.41 0-.75-.34-.75-.75s.34-.75.75-.75.75.34.75.75-.34.75-.75.75m7 0c-.41 0-.75-.34-.75-.75s.34-.75.75-.75.75.34.75.75-.34.75-.75.75" opacity=".7"/>
</svg>
