<!-- Copyright © 2000–2024 JetBrains s.r.o. -->
<svg width="16" height="16" viewBox="0 0 16 16" xmlns="http://www.w3.org/2000/svg">
  <path fill="#EBECF0" d="M12.5 2.5h-9c-1.1 0-2 .9-2 2v5.19c.12 0 .21-.01.33-.02.11 0 .22 0 .33.03.11-.3.29-.58.51-.84.44-.49 1.13-.83 1.77-.86l.93-.05.12.92c.01.09.02.18.02.26 0 .24-.04.48-.11.71.61.22 1 .61 1.23.93l.63.88-.68.41c-.24.14.05.43.05.43h5.88c1.1 0 2-.9 2-2v-6c0-1.1-.9-2-2-2l-.01.01"/>
  <path fill="none" stroke="#6C707E" stroke-linecap="round" stroke-linejoin="round" d="M6.83 12.5h5.67c1.1 0 2-.9 2-2v-6c0-1.1-.9-2-2-2h-9c-1.1 0-2 .9-2 2v4.69m11-3.69h-9"/>
  <path fill="#6C707E" d="M4.36 15.99c-.4 0-.73-.27-1.22-.27-.54 0-.78.27-1.21.28-.89.03-1.94-1.87-1.94-3.22s.86-2.09 1.84-2.1c.42 0 .99.31 1.22.31.3 0 .81-.37 1.41-.32.6.05 1.05.28 1.35.7-.54.32-.8.77-.8 1.34 0 .69.44 1.21.99 1.43-.23.66-.89 1.85-1.64 1.86v-.01m.14-6.85c0 .35-.13.68-.39.98-.31.36-.69.57-1.1.53v-.13c0-.34.15-.69.41-.99.28-.31.73-.51 1.08-.53v.14"/>
</svg>
