<!-- Copyright © 2000–2024 JetBrains s.r.o. -->
<svg width="64" height="64" viewBox="0 0 64 64" xmlns="http://www.w3.org/2000/svg">
  <rect width="53.33" height="53.33" x="5.33" y="5.33" fill="#9aa4b5" opacity=".6" rx="10.99" ry="10.99" style="isolation:isolate"/>
  <path fill="#fff" d="M10.41 22.01c0-.66.54-1.2 1.2-1.2a1.199 1.199 0 0 1 .19 2.39h-.2c-.66 0-1.2-.53-1.2-1.19Zm.36 4.74h1.7V43.9h-1.7zm4.53 5.24v-.03c0-7.12 3.85-12.23 10.71-12.23S36.7 24.86 36.7 31.96v.03c0 7.15-3.79 12.27-10.67 12.27s-10.72-5.21-10.72-12.27Zm19.62 0v-.03c0-6.02-3.08-10.59-8.91-10.59s-8.92 4.57-8.92 10.59v.03c0 5.96 3.02 10.64 8.94 10.64s8.89-4.65 8.89-10.64m2.81 5.48h1.75c.38 5.16 6.5 5.17 7.01 5.17 3.42 0 6.53-1.58 6.53-4.89v-.02c0-4.27-4.83-4.53-8.1-5.38-3.74-.96-6.6-2.45-6.6-6.29v-.03c0-4.04 3.8-6.3 7.92-6.3 7.73 0 8.1 6.36 8.14 6.8h-1.75c-.79-5.33-5.85-5.16-6.43-5.16-3.14 0-6.09 1.56-6.09 4.64v.02c0 4 4.44 4.4 7.9 5.26 3.94.99 6.8 2.38 6.8 6.39v.02c0 4.42-3.91 6.59-8.4 6.58-8.39 0-8.64-6.34-8.68-6.8Z"/>
</svg>
