<!-- Copyright © 2000–2024 JetBrains s.r.o. -->
<svg width="16" height="16" viewBox="0 0 16 16" xmlns="http://www.w3.org/2000/svg">
  <path fill="#9aa7b0" d="M11 1H5c-1.1 0-2 .9-2 2v3.75c.43-.35.94-.58 1.5-.68V3.01c0-.28.22-.5.5-.5h1v.28c0 .68.55 1.22 1.22 1.22h1.55c.68 0 1.22-.55 1.22-1.22v-.28h1c.28 0 .5.22.5.5v10c0 .28-.22.5-.5.5H8.12l-.16.61c-.05.19-.18.52-.38.89h3.41c1.1 0 2-.9 2-2V3c0-1.1-.9-2-2-2Z"/>
  <path fill="#9aa7b0" d="M3.53 10.81c-.25 0-1-.81-1.71-.81C.94 10 0 10.99 0 12.48 0 13.79 1.02 16 2.03 16c.68 0 1.06-.91 1.63-.91s.83.9 1.52.9c.76 0 1.66-1.5 1.82-2.13-.36-.11-.68-.32-.92-.61-.24-.28-.4-.63-.45-1 0-.68.51-1.15 1.15-1.55-.18-.22-.4-.4-.66-.52S5.58 10 5.3 10c-.68 0-1.51.81-1.76.81Zm-.14-3.08c.42-.45 1-.7 1.61-.73.03.26 0 .53-.08.78-.09.25-.23.48-.42.66s-.42.33-.68.43c-.25.1-.52.14-.79.13-.04-.23-.03-.46.03-.68s.17-.43.33-.59"/>
</svg>
