<!-- Copyright © 2000–2024 JetBrains s.r.o. -->
<svg width="64" height="64" viewBox="0 0 64 64" xmlns="http://www.w3.org/2000/svg">
  <path fill="none" stroke="#57965C" stroke-linecap="round" stroke-linejoin="round" stroke-width="1.5" d="M59.19 37.25c-.58-9.17-5.7-17.11-13.14-21.59l5-8.66c.41-.72.17-1.63-.55-2.05-.72-.41-1.63-.17-2.05.55l-5.05 8.74c-3.47-1.6-7.33-2.49-11.4-2.49s-7.93.89-11.4 2.49L15.55 5.5a1.501 1.501 0 0 0-2.6 1.5l5 8.66C10.52 20.15 5.4 28.08 4.81 37.25z"/>
  <path fill="#57965C" d="M19 30a3 3 0 1 0 0-6 3 3 0 0 0 0 6m26 0a3 3 0 1 0 0-6 3 3 0 0 0 0 6"/>
  <path fill="none" stroke="#CED0D6" stroke-linecap="round" stroke-linejoin="round" stroke-width="1.5" d="m15.58 55.25 4.51-11.5 4.51 11.5m-7.64-3.5h6.27m4.6 3.5 4.51-11.5 4.51 11.5m-7.64-3.5h6.27m4.85-8.01v11.51m4.25-5.98h-4.25m0 5.98H45c1.65 0 2.99-1.34 2.99-2.99 0-1.65-1.34-2.99-2.99-2.99h-.42c1.52 0 2.76-1.24 2.76-2.76 0-1.52-1.24-2.76-2.76-2.76h-4.25"/>
</svg>
