<!-- Copyright © 2000–2024 JetBrains s.r.o. -->
<svg width="64" height="64" viewBox="0 0 64 64" xmlns="http://www.w3.org/2000/svg">
  <path fill="#9aa7b0" d="M24.11 56h2.09l-4.73-13h-2.13L14.6 56h2.09l1.2-3.53h5.02l1.2 3.53Zm-5.68-5.13 1.95-5.74h.05l1.95 5.74h-3.94ZM36.39 56h2.09l-4.73-13h-2.14l-4.74 13h2.09l1.2-3.53h5.02l1.2 3.53Zm-5.68-5.13 1.95-5.74h.04l1.95 5.74h-3.94Zm15.58-1.73v-.04c1.39-.23 2.4-1.43 2.41-2.84v-.02c0-2.1-1.65-3.25-3.82-3.25h-5.17v13h5.2c2.52 0 4.43-1.18 4.43-3.67v-.02a3.127 3.127 0 0 0-3.05-3.17Zm-1.89-4.51c1.32 0 2.31.54 2.31 1.86v.02c0 1.5-1.25 2.04-2.77 2.04h-2.25v-3.92h2.7Zm2.9 7.6c0 1.56-1.22 2.13-2.79 2.13H41.7v-4.28h2.67c1.62 0 2.94.5 2.94 2.13Z"/>
  <path fill="#3DDC84" d="m46.17 15.2 4.67-8.1c.38-.65.16-1.45-.4-1.85-.22-.16-.49-.25-.8-.26-.5 0-.97.27-1.22.7l-4.75 8.23a28.542 28.542 0 0 0-11.66-2.39c-4.01-.03-7.99.78-11.66 2.39L15.6 5.69c-.26-.46-.74-.71-1.23-.7-.23 0-.46.06-.68.19-.71.41-.89 1.29-.51 1.92l4.67 8.1C9.08 20.23 4.33 29.51 4.02 37h56c-.31-7.49-5.06-16.78-13.83-21.8ZM18 30c-1.66 0-3-1.34-3-3s1.34-3 3-3 3 1.34 3 3-1.34 3-3 3m28 0c-1.66 0-3-1.34-3-3s1.34-3 3-3 3 1.34 3 3-1.34 3-3 3" opacity=".6"/>
</svg>
