<!-- Copyright © 2000–2024 JetBrains s.r.o. -->
<svg width="64" height="64" viewBox="0 0 64 64" xmlns="http://www.w3.org/2000/svg">
  <path fill="none" stroke="#CED0D6" stroke-linecap="round" stroke-linejoin="round" stroke-width="1.5" d="M48 6H16C10.477 6 6 10.477 6 16v32c0 5.523 4.477 10 10 10h32c5.523 0 10-4.477 10-10V16c0-5.523-4.477-10-10-10"/>
  <path fill="none" stroke="#CED0D6" stroke-linecap="round" stroke-linejoin="round" stroke-width="2" d="M26.01 43.12c5.208 0 9.43-4.974 9.43-11.11 0-6.136-4.222-11.11-9.43-11.11-5.208 0-9.43 4.974-9.43 11.11 0 6.136 4.222 11.11 9.43 11.11m-14.26-.14V26.84"/>
  <path fill="#CED0D6" d="M11.75 23.34a1.5 1.5 0 1 0 0-3 1.5 1.5 0 0 0 0 3"/>
  <path fill="none" stroke="#CED0D6" stroke-linecap="round" stroke-linejoin="round" stroke-width="2" d="M53.72 25.55a7.28 7.28 0 0 0-1.67-2.66c-2.03-2.04-4.67-2.16-5.56-2.16-4.64 0-5.95 2.33-6.1 2.56-.53.79-.98 1.97-.98 3.19 0 .52.08 1.05.28 1.56 1.84 4.8 11.7 2.74 13.78 7.65.25.59.35 1.21.35 1.81 0 1.26-.45 2.45-.98 3.24-1.4 2.1-4.09 2.53-6.04 2.53-1.19 0-2.11-.16-2.28-.19-.94-.18-2.76-.54-4.27-2.09-.95-.97-1.39-2.03-1.61-2.68"/>
</svg>
