<!-- Copyright © 2000–2024 JetBrains s.r.o. -->
<svg width="16" height="16" viewBox="0 0 16 16" xmlns="http://www.w3.org/2000/svg">
  <path fill="none" stroke="#CED0D6" stroke-linecap="round" stroke-linejoin="round" stroke-width=".9" d="M3.75 1.5h8.51c1.24 0 2.25 1.01 2.25 2.25v8.5c0 1.24-1.01 2.25-2.25 2.25H3.75c-1.24 0-2.25-1.01-2.25-2.25v-8.5c0-1.24 1.01-2.25 2.25-2.25"/>
  <path fill="none" stroke="#CED0D6" stroke-linecap="round" stroke-linejoin="round" stroke-width=".8" d="M6.77 10.06c.978 0 1.77-.931 1.77-2.08S7.748 5.9 6.77 5.9 5 6.83 5 7.98s.792 2.08 1.77 2.08m-3.3-.03V7.38"/>
  <path fill="#CED0D6" d="M3.47 6.4a.5.5 0 1 0 0-1 .5.5 0 0 0 0 1"/>
  <path fill="none" stroke="#CED0D6" stroke-linecap="round" stroke-linejoin="round" stroke-width=".8" d="M12.58 6.66c-.05-.1-.15-.24-.3-.37-.17-.15-.53-.4-1.05-.4-.2 0-.76.03-1.05.44-.11.16-.19.37-.19.59 0 .11.02.23.07.33.37.85 2.04.5 2.49 1.41.07.14.1.29.1.43 0 .18-.05.35-.13.49-.23.37-.73.49-1.18.49-.16 0-.32-.02-.45-.04a1.95 1.95 0 0 1-.79-.37c-.17-.13-.28-.27-.35-.38"/>
</svg>
