<!-- Copyright © 2000–2024 JetBrains s.r.o. -->
<svg width="16" height="16" viewBox="0 0 16 16" xmlns="http://www.w3.org/2000/svg">
  <path fill="#9aa4b5" d="M3.75 1h8.5C13.77 1 15 2.23 15 3.75v8.51c0 1.52-1.23 2.75-2.75 2.75h-8.5C2.23 15.01 1 13.78 1 12.26V3.75C1 2.23 2.23 1 3.75 1" opacity=".6" style="isolation:isolate"/>
  <path fill="#fff" d="M2.02 5.5c0-.26.22-.48.48-.48s.48.22.48.48a.48.48 0 0 1-.96 0m.08 1.44h.81v4.04H2.1zm1.8 1.04c0-1.76.93-3.05 2.6-3.05s2.6 1.32 2.6 3.05-.89 3.05-2.6 3.05-2.6-1.31-2.6-3.05Zm4.35 0c0-1.23-.54-2.31-1.75-2.31S4.75 6.75 4.75 7.98s.55 2.31 1.75 2.31S8.25 9.2 8.25 7.98m1.4 1.34h.81c.1.71.77.98 1.47.98s1.34-.28 1.34-.95c0-.84-.96-.9-1.77-1.09-.96-.23-1.71-.65-1.71-1.64 0-1.09 1.01-1.68 2.11-1.68s1.97.62 2.09 1.65v.06h-.81c-.09-.63-.68-.98-1.31-.98s-1.26.28-1.26.91c0 .57.55.79 1.1.91 1.07.3 2.38.35 2.38 1.8 0 1.19-1.01 1.74-2.21 1.74-2 0-2.22-1.31-2.24-1.71Z"/>
</svg>
