<!-- Copyright © 2000–2024 JetBrains s.r.o. -->
<svg width="16" height="16" viewBox="0 0 16 16" xmlns="http://www.w3.org/2000/svg">
  <path fill="#43454A" d="M12.5 2.5h-9c-1.1 0-2 .9-2 2V10c.52 0 1.02.28 1.29.73l.22.37c.33-.07.66-.1.99-.1.33 0 .67.03.99.1l.22-.37a1.507 1.507 0 0 1 2.75.41c.1.39.04.79-.17 1.14-.08.13.19.23.19.23h4.52c1.1 0 2-.9 2-2v-6c0-1.1-.9-2-2-2z"/>
  <path fill="none" stroke="#CED0D6" stroke-linecap="round" stroke-linejoin="round" d="M8.24 12.5h4.26c1.1 0 2-.9 2-2v-6c0-1.1-.9-2-2-2h-9c-1.1 0-2 .9-2 2v5m11-4h-9"/>
  <path fill="#57965C" fill-rule="evenodd" d="M0 16h8a4 4 0 0 0-1.67-3.25l.6-.99c.14-.24.07-.54-.17-.69a.507.507 0 0 0-.69.17l-.62 1.03C5 12.09 4.51 12 4 12s-1 .1-1.45.27l-.62-1.03A.486.486 0 0 0 1.5 11a.502.502 0 0 0-.43.76l.6.99A4 4 0 0 0 0 16m5.5-2c.28 0 .5.22.5.5s-.22.5-.5.5-.5-.22-.5-.5.22-.5.5-.5m-3 0c.28 0 .5.22.5.5s-.22.5-.5.5-.5-.22-.5-.5.22-.5.5-.5" clip-rule="evenodd"/>
</svg>
