<!-- Copyright © 2000–2024 JetBrains s.r.o. -->
<svg width="64" height="64" viewBox="0 0 64 64" xmlns="http://www.w3.org/2000/svg">
  <path fill="none" stroke="#369650" stroke-linecap="round" stroke-linejoin="round" stroke-width="1.5" d="M59.19 37.25c-.58-9.17-5.7-17.11-13.14-21.59l5-8.66c.41-.72.17-1.63-.55-2.05-.72-.41-1.63-.17-2.05.55l-5.05 8.74c-3.47-1.6-7.33-2.49-11.4-2.49s-7.93.89-11.4 2.49L15.55 5.5a1.501 1.501 0 0 0-2.6 1.5l5 8.66C10.52 20.15 5.4 28.08 4.81 37.25z"/>
  <path fill="#369650" d="M19 30a3 3 0 1 0 0-6 3 3 0 0 0 0 6m26 0a3 3 0 1 0 0-6 3 3 0 0 0 0 6"/>
  <path fill="none" stroke="#6C707E" stroke-linecap="round" stroke-linejoin="round" stroke-width="1.5" d="M29.2 55.25V43.74M16.48 55.25l4.51-11.5 4.51 11.5m-7.64-3.5h6.27m15.96-8.01v11.51M29.2 43.74h3.64c1.93 0 3.49 1.56 3.49 3.49 0 1.93-1.56 3.49-3.49 3.49H29.2m17.79-6.97-6.9 8m7.37 3.5-4.78-6.49"/>
</svg>
