<!-- Copyright © 2000–2024 JetBrains s.r.o. -->
<svg width="16" height="16" viewBox="0 0 16 16" xmlns="http://www.w3.org/2000/svg">
  <path fill="#9aa7b0" fill-rule="evenodd" d="M2 3v5.69l1 1.3V6h10v7H9.37c.17.32.3.65.4 1H14V3z"/>
  <path fill="#3DDC84" fill-rule="evenodd" d="M6.47 14.14c-.36 0-.64-.29-.64-.64s.29-.64.64-.64.64.29.64.64-.29.64-.64.64m-3.94 0c-.36 0-.64-.29-.64-.64s.29-.64.64-.64.64.29.64.64-.29.64-.64.64m4.81-2.1 1.52-1.98c.22-.29.17-.7-.12-.92s-.7-.17-.92.12l-1.6 2.09c-.53-.22-1.11-.34-1.72-.34s-1.19.12-1.72.34l-1.6-2.09c-.22-.29-.63-.34-.92-.12s-.34.63-.12.92l1.52 1.98C.66 12.87 0 14.1 0 15.5v.5h9v-.5c0-1.4-.65-2.64-1.66-3.46Z" opacity=".7"/>
</svg>
