<svg width="16" height="16" viewBox="0 0 16 16" xmlns="http://www.w3.org/2000/svg">
  <path fill="#43454A" d="M7.032 4.91 4.414 2.293a.997.997 0 0 0-1.414 0L2.293 3a.997.997 0 0 0 0 1.414l2.675 2.675L7.032 4.91Zm4.058 4.058-2.18 2.064L10.88 13l2.621.5-.5-2.621-1.91-1.911Z"/>
  <path fill="none" stroke="#CED0D6" stroke-linecap="round" stroke-linejoin="round" d="M4.614 6.735 2.293 4.414a.997.997 0 0 1 0-1.414L3 2.293a.997.997 0 0 1 1.414 0l2.269 2.269m4.76 4.76L13 10.879l.5 2.621-2.621-.5-1.61-1.61"/>
  <path fill="none" stroke="#CED0D6" stroke-miterlimit="10" d="M3.868 5.989 5.99 3.868"/>
  <path fill="#43454A" stroke="#CED0D6" stroke-linecap="round" stroke-linejoin="round" d="M2.308 13.692c2.612-.055 2.208-1.705 1.957-1.957-.298-.298-1.903-.605-1.957 1.957ZM4.8 9.445a.751.751 0 0 0 .017 1.044l.694.694a.75.75 0 0 0 1.044.016l7.006-6.638c.293-.293.439-.677.439-1.061A1.495 1.495 0 0 0 12.5 2c-.384 0-.768.146-1.061.439L4.8 9.445Z"/>
</svg>
