<svg width="16" height="16" viewBox="0 0 16 16" xmlns="http://www.w3.org/2000/svg">
  <path fill="#9aa7b0" d="m12.1 5.9-5.686 5.686c-.456.456-1.109-.081-1.514-.486s-.942-1.058-.486-1.514L10.1 3.9c1.479-1.479 3.868-2.732 4.3-2.3s-.821 2.821-2.3 4.3Zm-7.907 5.907A4.018 4.018 0 0 1 3.56 11c-1.668.009-2.286 1.685-2.286 3.5a2.75 2.75 0 0 1 2.173-.851 1.46 1.46 0 0 0 1.547-1.2 4.275 4.275 0 0 1-.801-.642Z"/>
  <path fill="#40b6e0" d="m3.5 1.5 3.793 3.793-2 2L1.5 3.5l2-2Zm7.876 11.713L14.5 14.5l-1.286-3.124-1.838 1.837Zm1.212-2.625-1.881-1.881-2 2 1.88 1.88 2.001-1.999Z"/>
</svg>
