<svg width="16" height="16" viewBox="0 0 16 16" fill="none" xmlns="http://www.w3.org/2000/svg">
<g clip-path="url(#clip0_14171_11087)">
<path d="M15 5C15 5.55228 14.5523 6 14 6C13.4477 6 13 5.55228 13 5C13 4.44772 13.4477 4 14 4C14.5523 4 15 4.44772 15 5Z" fill="#6C707E"/>
<path d="M5.05624 6.23251C5.18446 6.47708 5.48667 6.5714 5.73124 6.44318C5.97581 6.31496 6.07013 6.01276 5.94191 5.76819L5.05624 6.23251ZM5.8058 0.995117L6.27443 0.820797C6.2069 0.639254 6.04059 0.513047 5.84757 0.496865C5.65455 0.480683 5.46955 0.577439 5.37274 0.745204L5.8058 0.995117ZM6.53282 4.38372C6.6291 4.64253 6.91695 4.7743 7.17577 4.67803C7.43459 4.58175 7.56635 4.29389 7.47008 4.03508L6.53282 4.38372ZM5.10356 3.46096L5.60088 3.51258L5.10356 3.46096ZM5.33717 1.16944L6.53282 4.38372L7.47008 4.03508L6.27443 0.820797L5.33717 1.16944ZM5.49908 6.00035C5.94191 5.76819 5.94199 5.76834 5.94207 5.76848C5.94209 5.76852 5.94216 5.76866 5.94221 5.76875C5.9423 5.76892 5.94238 5.76907 5.94245 5.76921C5.94259 5.76949 5.94271 5.76971 5.94279 5.76986C5.94295 5.77017 5.94298 5.77024 5.94289 5.77006C5.9427 5.7697 5.94203 5.76836 5.94089 5.76607C5.93861 5.76148 5.93451 5.75307 5.92887 5.74099C5.9176 5.71681 5.90022 5.67801 5.87911 5.62576C5.83684 5.52114 5.77991 5.36346 5.72682 5.16197C5.62044 4.75828 5.53107 4.1851 5.60088 3.51258L4.60623 3.40933C4.52138 4.22674 4.62978 4.92326 4.75983 5.41678C4.82494 5.6639 4.8959 5.8617 4.95195 6.00041C4.98 6.06984 5.0044 6.12467 5.02261 6.1637C5.03171 6.18322 5.03928 6.19881 5.04499 6.21033C5.04784 6.21608 5.05023 6.22082 5.05212 6.22452C5.05307 6.22637 5.05389 6.22797 5.05458 6.2293C5.05492 6.22996 5.05523 6.23056 5.05551 6.2311C5.05565 6.23137 5.05578 6.23162 5.0559 6.23185C5.05596 6.23197 5.05605 6.23213 5.05608 6.23219C5.05616 6.23235 5.05624 6.23251 5.49908 6.00035ZM5.60088 3.51258C5.67497 2.79889 5.83938 2.22295 5.98355 1.82866C6.05557 1.63169 6.12229 1.48074 6.16965 1.38141C6.19331 1.33176 6.2121 1.2951 6.22424 1.27211C6.23031 1.26062 6.23471 1.25256 6.23722 1.24801C6.23848 1.24574 6.23926 1.24435 6.23955 1.24385C6.23969 1.2436 6.2397 1.24357 6.23959 1.24377C6.23954 1.24386 6.23945 1.24402 6.23933 1.24423C6.23927 1.24433 6.2392 1.24445 6.23912 1.24459C6.23908 1.24465 6.23902 1.24476 6.239 1.2448C6.23893 1.24491 6.23887 1.24503 5.8058 0.995117C5.37274 0.745204 5.37267 0.745329 5.37259 0.745458C5.37257 0.745505 5.37249 0.745638 5.37243 0.745733C5.37232 0.745924 5.37221 0.74613 5.37208 0.74635C5.37183 0.746791 5.37154 0.74729 5.37122 0.747847C5.37059 0.748962 5.36982 0.75031 5.36893 0.75189C5.36714 0.75505 5.36485 0.759138 5.36208 0.764144C5.35655 0.774155 5.3491 0.787839 5.33998 0.805107C5.32175 0.839638 5.29679 0.888537 5.26697 0.951092C5.20735 1.07615 5.12815 1.25612 5.04437 1.48525C4.87694 1.94316 4.69023 2.60014 4.60623 3.40933L5.60088 3.51258Z" fill="#6C707E"/>
<path d="M6.7832 2.49771C6.50705 2.49771 6.2832 2.72157 6.2832 2.99772C6.28321 3.27386 6.50707 3.49771 6.78321 3.49771L6.7832 2.49771ZM11.0547 4.25781L10.6887 4.59851L10.8262 4.74616L11.0276 4.75708L11.0547 4.25781ZM14.0234 4.45312L13.9766 4.95092C13.983 4.95153 13.9894 4.95201 13.9958 4.95236L14.0234 4.45312ZM9.43847 8.49679C9.16271 8.51135 8.95097 8.74671 8.96554 9.02247C8.9801 9.29822 9.21546 9.50996 9.49122 9.4954L9.43847 8.49679ZM10.1094 3.39822L9.8711 3.83779L10.1094 3.39822ZM11.0547 4.25781C11.0276 4.75708 11.0276 4.75708 11.0277 4.75708C11.0277 4.75708 11.0277 4.75708 11.0277 4.75708C11.0278 4.75709 11.0279 4.75709 11.028 4.7571C11.0282 4.75711 11.0286 4.75713 11.0291 4.75716C11.0301 4.75721 11.0316 4.75729 11.0336 4.7574C11.0375 4.75762 11.0435 4.75794 11.0512 4.75837C11.0668 4.75922 11.0897 4.76048 11.1193 4.76211C11.1784 4.76538 11.2638 4.77014 11.369 4.77611C11.5795 4.78806 11.869 4.80482 12.1854 4.82411C12.8211 4.86287 13.5551 4.91124 13.9766 4.95092L14.0703 3.95533C13.6298 3.91385 12.8794 3.86457 12.2462 3.82596C11.9281 3.80657 11.6371 3.78972 11.4257 3.77772C11.3199 3.77172 11.234 3.76693 11.1745 3.76364C11.1448 3.76199 11.1216 3.76072 11.1059 3.75986C11.098 3.75943 11.092 3.7591 11.0879 3.75888C11.0859 3.75877 11.0844 3.75869 11.0833 3.75863C11.0828 3.7586 11.0824 3.75858 11.0822 3.75857C11.082 3.75856 11.0819 3.75855 11.0819 3.75855C11.0818 3.75855 11.0818 3.75855 11.0818 3.75855C11.0818 3.75855 11.0817 3.75854 11.0547 4.25781ZM6.78321 3.49771C7.89691 3.49769 8.47483 3.48337 8.89712 3.52302C9.27056 3.55808 9.49314 3.63291 9.8711 3.83779L10.3477 2.95865C9.8758 2.70287 9.52362 2.57744 8.99059 2.5274C8.5064 2.48194 7.84614 2.49769 6.7832 2.49771L6.78321 3.49771ZM9.8711 3.83779C10.0823 3.9523 10.2649 4.14324 10.6887 4.59851L11.4206 3.91712C11.0413 3.50961 10.736 3.16913 10.3477 2.95865L9.8711 3.83779ZM14.0234 4.45312C13.9958 4.95236 13.9957 4.95235 13.9955 4.95235C13.9955 4.95234 13.9954 4.95234 13.9953 4.95233C13.9951 4.95232 13.995 4.95231 13.9948 4.95231C13.9946 4.95229 13.9943 4.95228 13.9942 4.95227C13.9939 4.95225 13.9938 4.95224 13.9939 4.95225C13.9941 4.95227 13.9952 4.95234 13.9971 4.95248C14.0009 4.95276 14.0077 4.95332 14.0173 4.95425C14.0365 4.95613 14.0658 4.95946 14.1017 4.96499C14.1757 4.97639 14.2668 4.99552 14.3517 5.02538C14.4413 5.0569 14.4922 5.0894 14.5139 5.10993C14.5223 5.1178 14.5203 5.11835 14.5166 5.11045C14.5122 5.10101 14.5117 5.09336 14.5117 5.09375H15.5117C15.5117 4.45068 14.9583 4.17871 14.6835 4.08204C14.5213 4.02499 14.3653 3.99382 14.254 3.97666C14.1973 3.96791 14.1494 3.96239 14.1145 3.95899C14.097 3.95728 14.0827 3.95609 14.072 3.95529C14.0666 3.95488 14.0622 3.95458 14.0587 3.95435C14.0569 3.95424 14.0554 3.95414 14.0541 3.95407C14.0535 3.95403 14.0529 3.95399 14.0524 3.95396C14.0521 3.95395 14.0519 3.95394 14.0517 3.95392C14.0516 3.95392 14.0514 3.95391 14.0514 3.95391C14.0512 3.9539 14.0511 3.95389 14.0234 4.45312ZM14.5117 5.09375C14.5117 6.57242 13.3945 7.42664 12.0614 7.93076C11.4096 8.17726 10.7514 8.31975 10.2519 8.4003C10.0034 8.44039 9.79688 8.46469 9.65378 8.4789C9.58229 8.486 9.5268 8.49056 9.48999 8.4933C9.47158 8.49468 9.45786 8.49559 9.44916 8.49614C9.44481 8.49642 9.44172 8.4966 9.43992 8.49671C9.43902 8.49676 9.43845 8.49679 9.43821 8.4968C9.43809 8.49681 9.43805 8.49681 9.43809 8.49681C9.43811 8.49681 9.43821 8.4968 9.43822 8.4968C9.43833 8.4968 9.43847 8.49679 9.46484 8.99609C9.49122 9.4954 9.49139 9.49539 9.4916 9.49538C9.49169 9.49537 9.49191 9.49536 9.4921 9.49535C9.49249 9.49533 9.49295 9.4953 9.4935 9.49527C9.4946 9.49521 9.49604 9.49513 9.49781 9.49503C9.50134 9.49482 9.5062 9.49453 9.51235 9.49414C9.52464 9.49337 9.54206 9.4922 9.56429 9.49054C9.60873 9.48723 9.67241 9.48197 9.75259 9.47401C9.91284 9.4581 10.1397 9.43132 10.4111 9.38754C10.9517 9.30037 11.6803 9.14403 12.4151 8.86611C13.8555 8.32141 15.5117 7.22446 15.5117 5.09375H14.5117Z" fill="#6C707E"/>
<path d="M9.50005 13C9.50005 13 9.49199 11.6404 9.68725 10.8594C9.88251 10.0783 10.5 9 10.5 9" stroke="#6C707E" stroke-linecap="round"/>
<path d="M5.4995 6C5.4995 6 5.32224 6.14306 4.98438 6.55078" stroke="#6C707E" stroke-linecap="round"/>
<circle cx="9.5" cy="5.5" r="0.5" fill="#6C707E"/>
<path fill-rule="evenodd" clip-rule="evenodd" d="M8 13.9959C8 15.0997 6.20914 16 4 16C1.79086 16 0 15.0997 0 13.9959V9.99864C0 8.89482 1.79086 8 4 8C6.20914 8 8 8.89482 8 9.99864V13.9959ZM7 9.99864C7 9.9997 6.99993 10.0012 6.99936 10.0041C6.99876 10.007 6.99723 10.0132 6.99324 10.0229C6.98516 10.0427 6.96583 10.0796 6.92219 10.1312C6.83098 10.2389 6.6598 10.3789 6.38121 10.5181C5.82347 10.7968 4.98299 10.998 4 10.998C3.01701 10.998 2.17653 10.7968 1.61879 10.5181C1.3402 10.3789 1.16902 10.2389 1.07781 10.1312C1.03417 10.0796 1.01484 10.0427 1.00676 10.0229C1.00277 10.0132 1.00124 10.007 1.00064 10.0041C1.00007 10.0012 1 9.9997 1 9.99864C1 9.99758 1.00007 9.99603 1.00064 9.9932C1.00124 9.99025 1.00277 9.98408 1.00676 9.97435C1.01484 9.95462 1.03417 9.91764 1.07781 9.86608C1.16902 9.75833 1.3402 9.61841 1.61879 9.47921C2.17653 9.20053 3.01701 8.99932 4 8.99932C4.98299 8.99932 5.82347 9.20053 6.38121 9.47921C6.6598 9.61841 6.83098 9.75833 6.92219 9.86608C6.96583 9.91764 6.98516 9.95462 6.99324 9.97435C6.99723 9.98408 6.99876 9.99025 6.99936 9.9932C6.99993 9.99603 7 9.99758 7 9.99864ZM7 11.3207C6.26706 11.7356 5.19469 11.9973 4 11.9973C2.80531 11.9973 1.73294 11.7356 1 11.3207V11.9919C0.999425 11.9947 1 11.9973 1 11.9973C1 11.9973 1.00007 11.9999 1.00064 12.0027C1.00124 12.0057 1.00277 12.0118 1.00676 12.0216C1.01484 12.0413 1.03417 12.0783 1.07781 12.1298C1.16902 12.2376 1.3402 12.3775 1.61879 12.5167C2.17653 12.7954 3.01701 12.9966 4 12.9966C4.98299 12.9966 5.82347 12.7954 6.38121 12.5167C6.6598 12.3775 6.83098 12.2376 6.92219 12.1298C6.96583 12.0783 6.98516 12.0413 6.99324 12.0216C6.99723 12.0118 6.99876 12.0057 6.99936 12.0027C6.99993 11.9999 7 11.9973 7 11.9973C7 11.9973 6.99993 11.9947 6.99936 11.9919L7 11.3207ZM7 13.3193C6.26706 13.7342 5.19469 13.9959 4 13.9959C2.80531 13.9959 1.73294 13.7342 1 13.3193V13.9959C0.999425 13.9988 1 14.0014 1 14.0014C1 14.0014 1.00007 14.004 1.00064 14.0068C1.00124 14.0097 1.00277 14.0159 1.00676 14.0256C1.01484 14.0454 1.03417 14.0824 1.07781 14.1339C1.16902 14.2417 1.3402 14.3816 1.61879 14.5208C2.17653 14.7995 3.01701 15.0007 4 15.0007C4.98299 15.0007 5.82347 14.7995 6.38121 14.5208C6.6598 14.3816 6.83098 14.2417 6.92219 14.1339C6.96583 14.0824 6.98516 14.0454 6.99324 14.0256C6.99723 14.0159 6.99876 14.0097 6.99936 14.0068C6.99993 14.004 7 14.0014 7 14.0014C7 14.0014 6.99998 14.0005 6.99985 13.9993C6.99976 13.9983 6.99961 13.9971 6.99936 13.9959L7 13.3193Z" fill="#6C707E"/>
</g>
<defs>
<clipPath id="clip0_14171_11087">
<rect width="16" height="16" fill="white"/>
</clipPath>
</defs>
</svg>
