<svg width="40" height="40" viewBox="0 0 40 40" fill="none" xmlns="http://www.w3.org/2000/svg">
<path fill-rule="evenodd" clip-rule="evenodd" d="M16.2031 30.8779C16.0694 30.6046 15.9999 30.3043 15.9999 30C15.9999 29.6957 16.0694 29.3954 16.2031 29.1221L21.0918 19.1221C21.2563 18.7856 21.5119 18.5021 21.8296 18.3038C22.1472 18.1054 22.5142 18.0002 22.8887 18H31.2557C32.4466 16.1382 33.3704 14.1185 34 12C33.979 14.0491 33.6035 16.079 32.89 18H35.1114C35.4859 18.0002 35.8528 18.1054 36.1705 18.3038C36.4881 18.5021 36.7437 18.7856 36.9082 19.1221L38.837 23.0674C38.9486 22.0488 39.003 21.0247 39 20C38.872 13.8868 37.8616 7.82422 36 2C32.6027 6.96924 26.2286 10.6714 21 12C16.2657 13.1442 13.4665 13.2668 9.0849 14.9733C6.77747 15.7736 4.76821 17.2572 3.32409 19.2267C1.87997 21.1963 1.06937 23.5587 1 26C1.05655 27.5418 1.44283 29.0536 2.13282 30.4336C2.8228 31.8136 3.80048 33.0297 5 34C8.85242 33.3966 12.6356 32.4133 16.2943 31.0644L16.2031 30.8779Z" fill="#6CC149"/>
<path fill-rule="evenodd" clip-rule="evenodd" d="M17.5618 33.6572C15.6583 34.338 13.852 34.6515 10 36C9.33362 36.2331 7 37 7 37H10C10 37 15.382 37.0113 19.1998 37.0077L17.5618 33.6572Z" fill="#6CC149"/>
<path fill-rule="evenodd" clip-rule="evenodd" d="M30.2222 26.7643V30.2223H27.7777V26.7643C26.9622 27.0526 26.2749 27.6199 25.8373 28.366C25.3996 29.1121 25.2398 29.9888 25.3861 30.8413C25.5323 31.6938 25.9753 32.4672 26.6366 33.0247C27.2979 33.5822 28.135 33.888 28.9999 33.888C29.8649 33.888 30.702 33.5822 31.3633 33.0247C32.0246 32.4672 32.4676 31.6938 32.6138 30.8413C32.7601 29.9888 32.6003 29.1121 32.1626 28.366C31.725 27.6199 31.0377 27.0526 30.2222 26.7643V26.7643Z" fill="#8F989D"/>
<path fill-rule="evenodd" clip-rule="evenodd" d="M35.1111 20H22.8889L18 30L22.8889 40H35.1111L40 30L35.1111 20ZM29 36.3333C27.4855 36.3332 26.025 35.7707 24.9016 34.755C23.7782 33.7392 23.072 32.3426 22.9198 30.8358C22.7675 29.3289 23.1802 27.8192 24.0778 26.5994C24.9754 25.3795 26.2939 24.5363 27.7778 24.2333V22.8888H30.2222V24.2333C31.7061 24.5364 33.0246 25.3796 33.9221 26.5994C34.8196 27.8193 35.2323 29.3289 35.0801 30.8358C34.9279 32.3426 34.2217 33.7392 33.0983 34.7549C31.9749 35.7707 30.5145 36.3331 29 36.3333V36.3333Z" fill="#8F989D"/>
</svg>
