<svg width="12" height="12" viewBox="0 0 12 12" fill="none" xmlns="http://www.w3.org/2000/svg">
<path fill-rule="evenodd" clip-rule="evenodd" d="M10.4511 0C10.4511 0 10.2979 0.51916 9.89238 1.17949C9.58805 1.67503 9.14158 2.25007 8.51108 2.74485C7.04042 3.89894 5.67231 3.91453 3.95828 3.91453C1.86507 3.91453 0 5.33374 0 7.51715C0 9.70055 1.45502 10.0437 1.45502 10.0437C1.45502 10.0437 1.50978 10.4258 1.8266 10.7416C2.14342 11.0574 2.64407 10.995 2.64407 10.995H6.99348C9.52803 10.995 12 8.99874 12 5.98876C12 4.18816 11.4457 2.39873 11.0003 1.25146C10.7012 0.480884 10.4511 0 10.4511 0ZM9.12843 3.53154C9.61823 3.14718 10.0112 2.72429 10.3229 2.31693C10.6761 3.3674 11 4.69184 11 5.98876C11 8.38553 9.03871 9.995 6.99348 9.995H4.43374C5.25654 9.69233 6.58675 9.12242 7.60944 8.29688C9.39734 6.85363 9.62506 5 9.62506 5C9.62506 5 8.78131 6.98438 6.35944 8.125C4.60759 8.95007 3.123 9.12005 2.38166 9.20494C2.35215 9.20832 2.32382 9.21156 2.2967 9.21471L1.71089 9.07657C1.70208 9.07328 1.68605 9.06686 1.66472 9.05649C1.60843 9.02914 1.52098 8.9772 1.42965 8.88714C1.27048 8.73018 1 8.36155 1 7.51715C1 6.01988 2.27325 4.91453 3.95828 4.91453H3.97164C5.67775 4.91454 7.36604 4.91455 9.12843 3.53154Z" fill="#9DA0A8"/>
</svg>
