<!-- Copyright © 2000–2024 JetBrains s.r.o. -->
<svg width="16" height="16" viewBox="0 0 16 16" xmlns="http://www.w3.org/2000/svg">
  <path fill="#253627" d="m12.99 7.13-8-4.5a.994.994 0 0 0-.49-.13c-.55 0-1 .45-1 1v2.64s.17.11.27.05A1.498 1.498 0 0 1 6 7.5v2.54c.28-.18.65-.34 1.04-.34.86 0 1.5.57 1.63 1.38.01.07.13.14.13.14l4.18-2.35c.3-.17.51-.5.51-.87s-.21-.7-.51-.87z"/>
  <path fill="none" stroke="#57965C" stroke-linecap="round" stroke-linejoin="round" d="M3.5 5.77V3.5c0-.55.45-1 1-1 .18 0 .35.05.49.13l8 4.5c.3.17.51.5.51.87s-.21.7-.51.87l-3.81 2.14"/>
  <path fill="#DB5C5C" d="M7.71 11.38c0-.4-.23-.68-.66-.68-.35 0-.77.35-.91.5-.23.26-.48.92-.77.97-.62.11-.98.66-1.06 1.08-.13.71-1.12.59-1.07-.09.05-.72.63-1.51 1.47-1.84.18-.07.29-.24.29-.43V7.5c0-.28-.22-.5-.5-.5s-.5.22-.5.5v2.75c0 .28-.22.5-.5.5s-.5-.22-.5-.5v-2.4c0-.28-.22-.5-.5-.5s-.5.22-.5.5v2.9c0 .28-.22.5-.5.5s-.5-.22-.5-.5V8.2c0-.28-.22-.5-.5-.5s-.5.22-.5.5v5.32C0 14.89 1.06 16 2.36 16H4.5c1.28 0 2.16-1.2 2.16-2.28 0-1.88.49-1.86 1.04-2.34z"/>
</svg>
