<!-- Copyright © 2000–2024 JetBrains s.r.o. -->
<svg width="16" height="16" viewBox="0 0 16 16" xmlns="http://www.w3.org/2000/svg">
  <path fill="#59a869" d="M4.28 5.91c.22-.16.49-.25.78-.25.79 0 1.39.66 1.39 1.53v1.36c.17-.05.35-.07.56-.07.55 0 1 .45 1 1v1.86c0 .09 0 .18-.01.27L14.01 8 4 2v3.77c.1.04.19.08.28.14Z"/>
  <path fill="#db5860" d="M6.22 10.88c0 .45-1.56 1.23-1.56 2.01h-.78c0-1.56 1.56-1.56 1.56-2.33V7.2c0-.7-.78-.7-.78 0v3.36c0 .65-.78.65-.78 0V7.2c0-.7-.78-.7-.78 0v3.36c0 .78-.78.77-.78 0V7.2c0-.7-.78-.7-.78 0v3.56c0 .78-.78.78-.78 0v-2C.78 8.05 0 8.05 0 8.75v3.36C0 13.67 1.4 16 2.33 16h2.33c.78 0 2.33-2.8 2.33-4.67V9.47c-.63 0-.78.47-.78 1.4Z"/>
</svg>
