<!-- Copyright © 2000–2024 JetBrains s.r.o. -->
<svg width="16" height="16" viewBox="0 0 16 16" xmlns="http://www.w3.org/2000/svg">
  <path fill="#253627" d="m12.99 7.13-8-4.5a.994.994 0 0 0-.49-.13c-.55 0-1 .45-1 1V8c.53 0 1.02.21 1.4.58l2.52 2.52c.19.19.34.42.43.66l5.14-2.89c.3-.17.51-.5.51-.87s-.21-.7-.51-.87"/>
  <path fill="none" stroke="#57965C" stroke-linecap="round" stroke-linejoin="round" d="M3.5 7.5v-4c0-.55.45-1 1-1 .18 0 .35.05.49.13l8 4.5c.3.17.51.5.51.87s-.21.7-.51.87l-4.7 2.64"/>
  <path fill="#DB5C5C" d="M6.71 11.81 4.19 9.29c-.38-.38-1-.38-1.38 0L.29 11.81c-.38.38-.38 1 0 1.38l2.52 2.52c.38.38 1 .38 1.38 0l2.52-2.52c.38-.38.38-1 0-1.38M5 13H2c-.28 0-.5-.22-.5-.5s.22-.5.5-.5h3c.28 0 .5.22.5.5s-.22.5-.5.5"/>
</svg>
