<!-- Copyright © 2000–2024 JetBrains s.r.o. -->
<svg width="16" height="16" viewBox="0 0 16 16" xmlns="http://www.w3.org/2000/svg">
  <path fill="#3D3223" fill-rule="evenodd" stroke="#D6AE58" stroke-linecap="round" stroke-linejoin="round" d="M14.5 8c0 .28-.11.52-.29.71l-5.5 5.5a1.014 1.014 0 0 1-1.42 0l-5.5-5.5a1.014 1.014 0 0 1 0-1.42l5.5-5.5a1.014 1.014 0 0 1 1.42 0l5.5 5.5c.18.19.29.43.29.71" clip-rule="evenodd"/>
  <path fill="#D6AE58" d="M8 12a1 1 0 1 0 0-2 1 1 0 0 0 0 2"/>
  <path fill="none" stroke="#D6AE58" stroke-linecap="round" stroke-linejoin="round" d="M9 5s0 .1-.01.14l-.5 3.43A.48.48 0 0 1 8 9a.48.48 0 0 1-.49-.43l-.5-3.43S7 5.05 7 5c0-.55.45-1 1-1s1 .45 1 1" clip-rule="evenodd"/>
</svg>
