<!-- Copyright © 2000–2024 JetBrains s.r.o. -->
<svg width="16" height="16" viewBox="0 0 16 16" xmlns="http://www.w3.org/2000/svg">
  <path fill="#9aa7b0" d="M6 6c-1.06 0-2.08.42-2.83 1.17a4.004 4.004 0 0 0 0 5.66 4.004 4.004 0 0 0 5.66 0C9.58 12.08 10 11.06 10 10c0-.7-.18-1.39-.54-2A4.008 4.008 0 0 0 6 6m0 6.7V7.3c.72 0 1.4.28 1.91.79S8.7 9.28 8.7 10s-.28 1.4-.79 1.91-1.19.79-1.91.79ZM14 6c0 .89-.3 1.75-.84 2.45-.55.7-1.31 1.2-2.17 1.41-.02-.44-.09-.87-.22-1.29.62-.18 1.16-.58 1.51-1.13a2.678 2.678 0 0 0-.51-3.49c-.49-.42-1.12-.65-1.77-.65v3.73a4.95 4.95 0 0 0-1.7-1.45c-.67-.35-1.41-.54-2.16-.56.24-.94.81-1.77 1.62-2.32a3.993 3.993 0 0 1 5.25.65c.64.73 1 1.67 1 2.65Z" opacity=".8"/>
</svg>
