<!-- Copyright © 2000–2024 JetBrains s.r.o. -->
<svg width="16" height="16" viewBox="0 0 16 16" xmlns="http://www.w3.org/2000/svg">
  <path fill="#FFF7F7" d="M9.5 8.41c.29-.13.62-.18.98-.15.23-.92 1.06-1.76 1.91-1.76.57 0 1.12.36 1.12 1.09-.76.56-1.41 2.28-1.41 3.4s-.98 2.5-2.5 2.5H6.31a2.8 2.8 0 0 1-2.8-2.79V3.82c0-.86.62-1.59 1.46-1.73l3.45-.58c.27-.04.54.03.75.21.21.18.33.44.33.71v5.99z"/>
  <path fill="none" stroke="#DB3B4B" stroke-linecap="round" stroke-linejoin="round" d="M5.5 2v4.99m2-5.32v4.82m.91 3.22c.28-.93 1.07-1.53 2.07-1.44.23-.92 1.06-1.76 1.91-1.76.57 0 1.12.36 1.12 1.09-.76.56-1.41 2.28-1.41 3.4s-.98 2.5-2.5 2.5H6.31a2.8 2.8 0 0 1-2.8-2.79V3.82c0-.86.62-1.59 1.46-1.73l3.45-.58c.27-.04.54.03.75.21.21.18.33.44.33.71v3.56"/>
</svg>
