<!-- Copyright © 2000–2024 JetBrains s.r.o. -->
<svg width="16" height="16" viewBox="0 0 16 16" xmlns="http://www.w3.org/2000/svg">
  <path fill="#EBECF0" d="M10.5 1.5c-2.07 0-3.76 1.58-3.96 3.6 2.2.42 3.94 2.16 4.36 4.36 2.02-.2 3.6-1.89 3.6-3.96 0-2.21-1.79-4-4-4"/>
  <path fill="#EBECF0" stroke="#6C707E" stroke-linecap="round" stroke-linejoin="round" d="M5.5 14.5c2.21 0 4-1.79 4-4s-1.79-4-4-4-4 1.79-4 4 1.79 4 4 4"/>
  <path fill="#6C707E" d="M5.5 8a2.5 2.5 0 0 0 0 5zm4.89-.01s.07.01.11.01V3A2.5 2.5 0 0 0 8 5.5c0 .04 0 .07.01.11a5.58 5.58 0 0 1 2.38 2.38"/>
  <path fill="none" stroke="#6C707E" stroke-linecap="round" stroke-linejoin="round" d="M11.4 9.4a4 4 0 0 0 3.1-3.9c0-2.21-1.79-4-4-4a4 4 0 0 0-3.9 3.1"/>
</svg>
