<!-- Copyright © 2000–2024 JetBrains s.r.o. -->
<svg width="16" height="16" viewBox="0 0 16 16" xmlns="http://www.w3.org/2000/svg">
  <path fill="none" stroke="#DB3B4B" stroke-linecap="round" stroke-linejoin="round" d="M14.47 8.61A6.5 6.5 0 1 0 1.5 8c0 3.59 2.64 6.23 6 6.48"/>
  <path fill="none" stroke="#DB3B4B" stroke-linecap="round" stroke-linejoin="round" stroke-width="1.5" d="M4.75 8H7.8"/>
  <path fill="#F2FCF3" stroke="#369650" stroke-linecap="round" stroke-linejoin="round" d="M15.5 12c0 .27-.15.51-.36.64l-4.5 2.75c-.11.07-.25.11-.39.11-.41 0-.75-.34-.75-.75v-5.5c0-.41.34-.75.75-.75.14 0 .28.04.39.11l4.5 2.75c.21.13.36.37.36.64"/>
</svg>
