<!-- Copyright © 2000–2024 JetBrains s.r.o. -->
<svg width="16" height="16" viewBox="0 0 16 16" xmlns="http://www.w3.org/2000/svg">
  <path fill="none" stroke="#6C707E" stroke-linecap="round" stroke-linejoin="round" d="M14.3 8.5c.08-.16.15-.33.2-.5-.21-.59-.53-1.16-.93-1.67m-7.72 5.78c.54.19 1.09.32 1.65.37m2.65-8.59C9.45 3.64 8.72 3.5 8 3.5 5.32 3.5 2.39 5.47 1.5 8c.21.59.53 1.16.93 1.67"/>
  <path fill="none" stroke="#6C707E" stroke-linecap="round" stroke-linejoin="round" d="M5.6 7.3C5.9 6.26 6.86 5.5 8 5.5"/>
  <path fill="none" stroke="#DB3B4B" stroke-linecap="round" stroke-miterlimit="10" d="m2 12.5 12-9"/>
  <path fill="#F2FCF3" stroke="#369650" stroke-linecap="round" stroke-linejoin="round" d="M15.5 12c0 .27-.15.51-.36.64l-4.5 2.75c-.11.07-.25.11-.39.11-.41 0-.75-.34-.75-.75v-5.5c0-.41.34-.75.75-.75.14 0 .28.04.39.11l4.5 2.75c.21.13.36.37.36.64"/>
</svg>
