<!-- Copyright © 2000–2024 JetBrains s.r.o. -->
<svg width="16" height="16" viewBox="0 0 16 16" xmlns="http://www.w3.org/2000/svg">
  <path fill="#F2FCF3" d="M9.24 5.02 4.99 2.63a.994.994 0 0 0-.49-.13c-.55 0-1 .45-1 1v5.76s.11.15.31 0l5.38-4.04c.07-.05.05-.21.05-.21zm3.75 2.11-.76-.43-8.41 6.31s-.07.13-.05.15c.18.2.44.34.73.34.18 0 .35-.05.49-.13l8-4.5c.3-.17.51-.5.51-.87s-.21-.7-.51-.87"/>
  <path fill="none" stroke="#369650" stroke-linecap="round" stroke-linejoin="round" d="M3.5 8.88V3.5c0-.55.45-1 1-1 .18 0 .35.05.49.13l3.91 2.2m3.81 2.14.28.16c.3.17.51.5.51.87s-.21.7-.51.87l-8 4.5a.994.994 0 0 1-.88.05"/>
  <path fill="none" stroke="#DB3B4B" stroke-linecap="round" stroke-miterlimit="10" d="m2 12.5 12-9"/>
</svg>
