<!-- Copyright © 2000–2024 JetBrains s.r.o. -->
<svg width="16" height="16" viewBox="0 0 16 16" xmlns="http://www.w3.org/2000/svg">
  <path fill="#db5860" d="M2 13.155 13.151 2.004l.849.848L2.849 14.003z"/>
  <path fill="#6e6e6e" d="M4.5 8c0 .15.02.3.04.45l-2.03 2.03A8.127 8.127 0 0 1 .99 8a7.543 7.543 0 0 1 7-5c.59 0 1.18.09 1.75.24L8.43 4.55c-.15-.02-.3-.04-.45-.04-1.93 0-3.5 1.57-3.5 3.5Zm6.91.1c.06.03.11.05.17.08L14 9.88c.41-.57.76-1.19 1-1.88a7.78 7.78 0 0 0-2.66-3.49l-1.5 1.5c.42.63.6 1.37.56 2.09ZM7.1 9.74A1.986 1.986 0 0 0 9.74 7.1zm2.9.99c-1.18.87-2.78.91-4 .11l-1.31 1.31c1.02.54 2.15.84 3.31.84.69 0 1.36-.13 2-.31z"/>
  <path fill="#59a869" d="m11 16 5-3.5L11 9z"/>
</svg>
