<!-- Copyright © 2000–2024 JetBrains s.r.o. -->
<svg width="16" height="16" viewBox="0 0 16 16" xmlns="http://www.w3.org/2000/svg">
  <path fill="#6e6e6e" d="M3.42 8.03C2.51 8.03 2 7.01 2 5.87c0-.58.2-1.57.73-1.57S4.5 5.93 4.5 7.04c0 1-1.05 1-1.08 1Zm3.04-1.78c.66 0 1.09-.41 1.09-1.23 0-1.17-.73-3.01-1.37-3.01-.57 0-1.12 1.2-1.12 2.32 0 1.32.71 1.93 1.41 1.93Zm3.46.07c.58 0 1.27-.55 1.27-1.87 0-.75-.37-2.2-.99-2.2-.5 0-1.57 1.6-1.57 2.72s1.05 1.35 1.29 1.35Zm3.33-1.86c-.23 0-.36.18-.59.42-.54.54-1.26 1.28-1.26 2.04 0 .66.58 1.14 1.09 1.14C13.5 8.06 14 6.81 14 5.81c0-.24-.05-1.35-.75-1.35M4 11.64c0 2.14 1.72 2.3 1.78 2.3.81 0 1.23-.71 2.26-.71s1.6.77 2.44.77c1.23 0 1.52-1.64 1.52-2.3C12 9.57 10.08 7 7.93 7 5.35 7 4 10.17 4 11.64"/>
</svg>
