<!-- Copyright © 2000–2024 JetBrains s.r.o. -->
<svg width="16" height="16" viewBox="0 0 16 16" xmlns="http://www.w3.org/2000/svg">
  <path fill="none" stroke="#6C707E" stroke-linecap="round" stroke-linejoin="round" d="M4 7.02c0 .52-.57.51-.59.51-.59 0-.92-.82-.92-1.63 0-.41.08-.81.26-1.11.58.59 1.24 1.63 1.24 2.23zM6.16 2.5c-.42.5-.61 1.19-.61 1.79 0 .79.32 1.45.91 1.45.51 0 .6-.37.6-.77 0-.72-.36-1.78-.89-2.47h-.01m4.03.24c-.43.5-1.06 1.46-1.06 2.19s.66.88.79.88c.46 0 .77-.62.77-1.39 0-.54-.15-1.16-.5-1.69v.01m3.07 2.22c-.42.45-1.37 1.28-1.37 1.95 0 .36.33.64.6.64.5 0 1.02-.78 1.02-1.65 0-.32-.07-.65-.24-.95zm-5.22 7.77c1.13 0 1.82.77 2.43.77.48 0 1.03-.6 1.03-1.79 0-1.81-1.66-4.21-3.57-4.21-2.2 0-3.43 2.86-3.43 4.11 0 1 .65 1.83 1.28 1.83s1.12-.71 2.25-.71h.01" clip-rule="evenodd"/>
</svg>
