<svg width="16" height="16" viewBox="0 0 16 16" fill="none" xmlns="http://www.w3.org/2000/svg">
<path d="M12 8C12 10.2091 10.2091 12 8 12C5.79086 12 4 10.2091 4 8C4 5.79086 5.79086 4 8 4C10.2091 4 12 5.79086 12 8Z" fill="#253627"/>
<path fill-rule="evenodd" clip-rule="evenodd" d="M11.5648 9.81636L10.6741 9.36164C10.8822 8.95412 11 8.49227 11 8C11 7.50773 10.8822 7.04588 10.6741 6.63836L11.5648 6.18364C11.8431 6.7287 12 7.34602 12 8C12 8.65398 11.8431 9.2713 11.5648 9.81636ZM9.81636 4.43522L9.36164 5.32586C8.95412 5.1178 8.49227 5 8 5C7.50773 5 7.04588 5.1178 6.63836 5.32586L6.18364 4.43522C6.7287 4.15694 7.34602 4 8 4C8.65398 4 9.2713 4.15694 9.81636 4.43522ZM4.43522 6.18364C4.15694 6.7287 4 7.34602 4 8C4 8.65398 4.15694 9.2713 4.43522 9.81636L5.32586 9.36164C5.1178 8.95412 5 8.49227 5 8C5 7.50773 5.1178 7.04588 5.32586 6.63836L4.43522 6.18364ZM6.18364 11.5648L6.63836 10.6741C7.04588 10.8822 7.50773 11 8 11C8.49227 11 8.95412 10.8822 9.36164 10.6741L9.81636 11.5648C9.2713 11.8431 8.65398 12 8 12C7.34602 12 6.7287 11.8431 6.18364 11.5648Z" fill="#57965C"/>
</svg>
