<!-- Copyright 2000-2024 JetBrains s.r.o. and contributors. Use of this source code is governed by the Apache 2.0 license. -->
<svg width="16" height="16" viewBox="0 0 16 16" fill="none" xmlns="http://www.w3.org/2000/svg">
<path fill-rule="evenodd" clip-rule="evenodd" d="M15 8C15 4.13401 11.866 1 8 1C4.13401 1 1 4.13401 1 8C1 11.866 4.13401 15 8 15C8.24744 15 8.49188 14.9872 8.73269 14.9621C8.52335 14.6424 8.35359 14.2945 8.23039 13.9253C8.12379 13.988 8.04676 14 8 14C7.92395 14 7.76787 13.9683 7.5347 13.7382C7.29723 13.5038 7.03751 13.1151 6.79782 12.5558C6.60693 12.1104 6.44122 11.586 6.31105 11H8.25606C8.3819 10.644 8.55127 10.3085 8.75777 10H6.13293C6.04739 9.37645 6 8.70458 6 8C6 7.29542 6.04739 6.62355 6.13293 6H9.86707C9.95261 6.62355 10 7.29542 10 8C10 8.26166 9.99346 8.51882 9.98087 8.77066C10.294 8.55869 10.6354 8.38514 10.998 8.25676C10.9993 8.17156 11 8.08596 11 8C11 7.30503 10.9566 6.63371 10.8758 6H13.6586C13.8797 6.62556 14 7.29873 14 8C14 8.08516 13.9982 8.1699 13.9947 8.25419C14.3382 8.37511 14.6626 8.53652 14.9621 8.73269C14.9872 8.49188 15 8.24744 15 8ZM2.34141 10H5.12423C5.0434 9.36629 5 8.69497 5 8C5 7.30503 5.0434 6.63371 5.12423 6H2.34141C2.12031 6.62556 2 7.29873 2 8C2 8.70127 2.12031 9.37444 2.34141 10ZM5.2887 11H2.80269C3.56266 12.3137 4.80644 13.3126 6.2904 13.7529C5.86182 13.0582 5.51457 12.1094 5.2887 11ZM9.68895 5H6.31105C6.44122 4.41404 6.60693 3.8896 6.79782 3.44417C7.03751 2.8849 7.29723 2.4962 7.5347 2.26184C7.76787 2.03173 7.92395 2 8 2C8.07605 2 8.23213 2.03173 8.4653 2.26184C8.70277 2.4962 8.96249 2.8849 9.20218 3.44417C9.39307 3.8896 9.55878 4.41404 9.68895 5ZM13.1973 5H10.7113C10.4854 3.89059 10.1382 2.9418 9.7096 2.24707C11.1936 2.6874 12.4373 3.68625 13.1973 5ZM5.2887 5C5.51457 3.89059 5.86182 2.9418 6.2904 2.24707C4.80644 2.6874 3.56266 3.68625 2.80269 5H5.2887Z" fill="#6C707E"/>
<circle cx="12.5" cy="12.5" r="3" stroke="#DB3B4B"/>
<circle cx="12.5" cy="12.5" r="1" fill="#DB3B4B" stroke="#DB3B4B"/>
</svg>
