<!-- Copyright 2000-2024 JetBrains s.r.o. and contributors. Use of this source code is governed by the Apache 2.0 license. -->
<svg width="16" height="16" viewBox="0 0 16 16" fill="none" xmlns="http://www.w3.org/2000/svg">
<g clip-path="url(#clip0_18152_15574)">
<path d="M9 12C9 10.3431 10.3431 9 12 9C12.8881 9 13.6866 9.38587 14.2362 10H13.5C13.2239 10 13 10.2239 13 10.5C13 10.7761 13.2239 11 13.5 11H15.1527C15.1599 11.0002 15.1671 11.0002 15.1743 11H15.5C15.7761 11 16 10.7761 16 10.5V8.5C16 8.22386 15.7761 8 15.5 8C15.2239 8 15 8.22386 15 8.5V9.3543C14.2674 8.5242 13.1952 8 12 8C9.79086 8 8 9.79086 8 12C8 14.2091 9.79086 16 12 16C14.0156 16 15.6822 14.5097 15.9595 12.5708C15.9986 12.2974 15.8087 12.0441 15.5354 12.005C15.262 11.9659 15.0087 12.1558 14.9696 12.4292C14.7617 13.8826 13.5109 15 12 15C10.3431 15 9 13.6569 9 12Z" fill="#3574F0"/>
<path fill-rule="evenodd" clip-rule="evenodd" d="M14.9291 7C14.4439 3.60771 11.5265 1 8 1C4.13401 1 1 4.13401 1 8C1 11.866 4.13401 15 8 15C7.99999 15 8.00001 15 8 15C7.61538 14.4877 7.32619 13.898 7.16017 13.2579C7.0379 13.0637 6.91545 12.8303 6.79782 12.5558C6.60693 12.1104 6.44122 11.586 6.31105 11H7.08535C7.03008 10.8436 7 10.6753 7 10.5V10H6.13293C6.04739 9.37645 6 8.70458 6 8C6 7.29542 6.04739 6.62355 6.13293 6H9.86707C9.92887 6.4505 9.97076 6.92622 9.98925 7.42127C10.3026 7.28348 10.6327 7.17681 10.9757 7.10528C10.955 6.72656 10.9213 6.3573 10.8758 6H13.6586C13.7723 6.32163 13.8593 6.65585 13.917 7H14.9291ZM2.34141 10H5.12423C5.0434 9.36629 5 8.69497 5 8C5 7.30503 5.0434 6.63371 5.12423 6H2.34141C2.12031 6.62556 2 7.29873 2 8C2 8.70127 2.12031 9.37444 2.34141 10ZM5.2887 11H2.80269C3.56266 12.3137 4.80644 13.3126 6.2904 13.7529C5.86182 13.0582 5.51457 12.1094 5.2887 11ZM9.20218 3.44417C9.39307 3.8896 9.55878 4.41404 9.68895 5H6.31105C6.44122 4.41404 6.60693 3.8896 6.79782 3.44417C7.03751 2.8849 7.29723 2.4962 7.5347 2.26184C7.76787 2.03173 7.92395 2 8 2C8.07605 2 8.23213 2.03173 8.4653 2.26184C8.70277 2.4962 8.96249 2.8849 9.20218 3.44417ZM13.1973 5H10.7113C10.4854 3.89059 10.1382 2.9418 9.7096 2.24707C11.1936 2.6874 12.4373 3.68625 13.1973 5ZM5.2887 5C5.51457 3.89059 5.86182 2.9418 6.2904 2.24707C4.80644 2.6874 3.56266 3.68625 2.80269 5H5.2887Z" fill="#6C707E"/>
</g>
<defs>
<clipPath id="clip0_18152_15574">
<rect width="16" height="16" fill="white"/>
</clipPath>
</defs>
</svg>
