<svg width="40" height="40" viewBox="0 0 40 40" fill="none" xmlns="http://www.w3.org/2000/svg">
<path d="M16.0001 30C16 29.6299 16.1027 29.2671 16.2966 28.9519C16.4906 28.6367 16.7683 28.3816 17.0987 28.2149L17.9639 27.7774L17.0987 27.3408C16.7683 27.1741 16.4906 26.919 16.2966 26.6038C16.1027 26.2886 16 25.9258 16.0001 25.5557C16 25.1856 16.1027 24.8227 16.2966 24.5076C16.4906 24.1924 16.7683 23.9372 17.0987 23.7705L27.248 18.6445C28.2297 14.2832 28.3709 9.77465 27.6641 5.36041L6.34351 28.5119L16.2955 31.0456C16.1023 30.7311 16.0001 30.3691 16.0001 30V30Z" fill="#F5B251"/>
<path d="M16 30C15.9999 29.6299 16.1026 29.2671 16.2966 28.9519C16.4905 28.6367 16.7682 28.3815 17.0986 28.2148L17.9639 27.7773L17.0986 27.3408C16.7682 27.1741 16.4905 26.919 16.2966 26.6038C16.1026 26.2886 15.9999 25.9258 16 25.5557C15.9999 25.1856 16.1026 24.8227 16.2966 24.5075C16.4905 24.1924 16.7682 23.9372 17.0986 23.7705L28.0986 18.2148C28.3781 18.0734 28.6868 17.9998 29 18C29.3132 17.9998 29.6219 18.0734 29.9014 18.2148L36.9944 21.7973C40.2763 12.8494 38.7341 5.3775 37.8769 1L11.1866 29.7063L16.2829 31.0171C16.099 30.7096 16.0012 30.3583 16 30V30Z" fill="#FFAD0A"/>
<path fill-rule="evenodd" clip-rule="evenodd" d="M16 30C15.9999 29.6299 16.1026 29.2671 16.2965 28.9519C16.4905 28.6367 16.7682 28.3815 17.0986 28.2149L17.9638 27.7774L17.0986 27.3408C16.7682 27.1741 16.4905 26.919 16.2965 26.6038C16.1026 26.2886 15.9999 25.9258 16 25.5557C15.9999 25.1856 16.1026 24.8227 16.2965 24.5076C16.4905 24.1924 16.7682 23.9372 17.0986 23.7705L27.2519 18.6425C27.7591 16.2975 28.0437 13.9099 28.1019 11.5114L11.1537 29.7365L16.2954 31.0457C16.1022 30.7311 16 30.3692 16 30V30Z" fill="#FF7A00"/>
<path d="M16 34.4443C15.9999 34.0742 16.1026 33.7114 16.2966 33.3962C16.4905 33.081 16.7682 32.8259 17.0986 32.6592L17.5877 32.4119L1 28.3066C1 28.3066 8.3175 32.5112 11.8973 39C13.3745 37.6719 15.1469 36.7148 17.0676 36.208C16.746 36.0389 16.4766 35.7854 16.2885 35.4746C16.1004 35.1638 16.0006 34.8076 16 34.4443V34.4443Z" fill="#8D97DE"/>
<path fill-rule="evenodd" clip-rule="evenodd" d="M29 20L40 25.5556L29 31.1111L18 25.5556L29 20ZM20.2 28.8889L18 30L29 35.5556L40 30L37.8 28.8889L29 33.3333L20.2 28.8889ZM18 34.4444L20.2 33.3333L29 37.7778L37.8 33.3333L40 34.4444L29 40L18 34.4444Z" fill="#8F989D"/>
</svg>
