<svg width="64" height="64" viewBox="0 0 64 64" fill="none" xmlns="http://www.w3.org/2000/svg">
<path d="M23.7 25.6001L25 2.6001L38.4 10.0001L23.7 25.6001Z" fill="url(#paint0_linear)"/>
<path d="M23.7 25.6L24.5 11.3L38.4 10L23.7 25.6Z" fill="url(#paint1_linear)"/>
<path d="M23.7 25.6001L24.5 11.5001L25 2.6001L7.99998 13.3001L2.59998 45.8001L23.7 25.6001Z" fill="#00FF6A"/>
<path d="M23.7 25.6003L24.5 11.3003L8 13.3003L14 35.0003L23.7 25.6003Z" fill="url(#paint2_linear)"/>
<path d="M23.7 25.6001L25 2.6001L8 13.3001L14 35.0001L23.7 25.6001Z" fill="url(#paint3_linear)"/>
<path d="M23.7 25.1001L22.6 46.2001L37.4 58.3001L52.2 61.4001L61.4 40.4001L23.7 25.1001Z" fill="url(#paint4_linear)"/>
<path d="M47.6 39.8L34.5 31.8L36.1 30L61.4 40.4L47.6 39.8Z" fill="url(#paint5_linear)"/>
<path d="M47.6 39.8003L37.4 58.3003L52.2 61.4003L61.4 40.4003L47.6 39.8003Z" fill="url(#paint6_linear)"/>
<path d="M23.1 32.5L22.6 46.2L37.4 58.3L23.1 32.5Z" fill="url(#paint7_linear)"/>
<path d="M23.6 33.7002L52.2 61.4002L37.4 58.3002L23.6 33.7002Z" fill="url(#paint8_linear)"/>
<path d="M23.6 33.7002L52.2 61.4002L37.4 58.3002L23.6 33.7002Z" fill="url(#paint9_linear)"/>
<path d="M2.59998 45.8003L23.7 25.6003L7.99998 13.3003L2.59998 45.8003Z" fill="url(#paint10_linear)"/>
<path d="M2.59998 45.8003L18.1 30.2003L7.99998 13.3003L2.59998 45.8003Z" fill="url(#paint11_linear)"/>
<path d="M61.4 22.9003L52.7 4.80029L38.4 10.0003L2.59998 45.8003L21.7 59.7003L61.4 22.9003Z" fill="url(#paint12_linear)"/>
<path d="M23.3 33.5L22.6 46.2L29.9 52.1L32.6 49.6L23.3 33.5Z" fill="url(#paint13_linear)"/>
<path d="M2.59998 45.8L23.3 33.5L21.7 59.7L2.59998 45.8Z" fill="url(#paint14_linear)"/>
<path d="M2.59998 45.8L23.3 33.5L21.7 59.7L2.59998 45.8Z" fill="url(#paint15_linear)"/>
<path d="M13.5 39.3L23.3 33.5L22.5 45.9L13.5 39.3Z" fill="url(#paint16_linear)"/>
<path d="M2.59998 45.8003L23.2 33.6003L52.7 4.80029L38.4 10.0003L2.59998 45.8003Z" fill="url(#paint17_linear)"/>
<path d="M2.59998 45.8003L23.2 33.6003L52.7 4.80029L38.4 10.0003L2.59998 45.8003Z" fill="url(#paint18_linear)"/>
<path d="M44.1 13.2003L52.7 4.80029L38.4 10.0003L44.1 13.2003Z" fill="url(#paint19_linear)"/>
<path d="M61.1999 22.6L29.9999 51.9L18.2999 30.2L38.3999 10L61.1999 22.6Z" fill="url(#paint20_linear)"/>
<path d="M48.1 34.8999L23.6 24.8999V24.9999L44.8 38.0999L48.1 34.8999Z" fill="url(#paint21_linear)"/>
<path d="M44.1 13.2L23.3 33.5L2.59998 45.8L18.3 30.2L38.4 10L44.1 13.2Z" fill="url(#paint22_linear)"/>
<path d="M44.3 13L23.3 33.5L2.59998 45.8L18.3 30.2L38.4 10L44.3 13Z" fill="url(#paint23_linear)"/>
<path d="M44.2999 12.7003L52.6999 4.80029L61.3999 22.9003L44.2999 12.7003Z" fill="url(#paint24_linear)"/>
<path d="M23.7999 24.6L33.3999 29.4L38.3999 10L23.7999 24.6Z" fill="url(#paint25_linear)"/>
<path d="M38.3999 10.0001L24.9999 2.6001L23.7999 24.6001L38.3999 10.0001Z" fill="url(#paint26_linear)"/>
<path d="M50 14H14V50H50V14Z" fill="url(#paint27_linear)"/>
<g opacity="0.3">
<path opacity="0.3" d="M50 35.9002L23.9 25.2002L22.8 45.9002L27.9 50.0002H50V35.9002Z" fill="url(#paint28_linear)"/>
<path opacity="0.3" d="M50 50.0001V39.8001L47.2 39.6001L41.5 50.0001H50Z" fill="url(#paint29_linear)"/>
<path opacity="0.3" d="M14 14V33.5V35.6L23.9 25.7L24.6 14H14Z" fill="url(#paint30_linear)"/>
<path opacity="0.3" d="M14 33.5V35.2L23.9 25.7L14 18V33.5Z" fill="url(#paint31_linear)"/>
<path opacity="0.3" d="M24.6 14L24 24.8L34.7 14H24.6Z" fill="url(#paint32_linear)"/>
<path opacity="0.3" d="M50 33.1V14H34.7L14 34.7V50H31.8L50 33.1Z" fill="url(#paint33_linear)"/>
<path opacity="0.3" d="M14 34.8V39.3L23.4 33.5L43.4 14H34.7L14 34.7V34.8Z" fill="url(#paint34_linear)"/>
<path opacity="0.3" d="M14 50H22.4L23.5 33.5L14 39.1V50Z" fill="url(#paint35_linear)"/>
</g>
<path d="M31.9999 43.1997H18.3999V45.3997H31.9999V43.1997Z" fill="white"/>
<path d="M32.5048 18.604H35.5471V29.7593H41.5304V32.2946H32.5048V18.604Z" fill="white"/>
<path d="M17.8 25.5C17.8 21.545 20.741 18.2998 25.0003 18.2998C27.637 18.2998 29.1581 19.2125 30.4765 20.4294L28.5497 22.6605C27.4341 21.7478 26.42 21.1393 25.0003 21.1393C22.6678 21.1393 21.0452 23.0661 21.0452 25.3986C21.0452 27.7311 22.6678 29.7593 25.0003 29.7593C26.6229 29.7593 27.5356 29.1508 28.6511 28.1367L30.5779 30.0635C29.1581 31.5847 27.5356 32.4974 24.8989 32.4974C20.8424 32.5988 17.8 29.4551 17.8 25.5Z" fill="white"/>
<defs>
<linearGradient id="paint0_linear" x1="23.7241" y1="14.072" x2="40.5938" y2="14.072" gradientUnits="userSpaceOnUse">
<stop  offset="0" stop-color="#FF318C"/>
<stop offset="0.149" stop-color="#FB348C"/>
<stop offset="0.2849" stop-color="#F03C8C"/>
<stop offset="0.4157" stop-color="#DE4A8C"/>
<stop offset="0.5434" stop-color="#C45D8B"/>
<stop offset="0.6689" stop-color="#A2778B"/>
<stop offset="0.7926" stop-color="#79958A"/>
<stop offset="0.9128" stop-color="#49B98A"/>
<stop offset="1" stop-color="#21D789"/>
</linearGradient>
<linearGradient id="paint1_linear" x1="21.7145" y1="19.3895" x2="45.1496" y2="10.241" gradientUnits="userSpaceOnUse">
<stop offset="0.1069" stop-color="#FF318C"/>
<stop offset="0.2181" stop-color="#FB338C"/>
<stop offset="0.3194" stop-color="#F0388E"/>
<stop offset="0.4168" stop-color="#DE4190"/>
<stop offset="0.5114" stop-color="#C44E93"/>
<stop offset="0.6008" stop-color="#A45E97"/>
<stop offset="0.6375" stop-color="#976A96"/>
<stop offset="0.7051" stop-color="#758992"/>
<stop offset="0.7956" stop-color="#3FBC8C"/>
<stop offset="0.8402" stop-color="#21D789"/>
</linearGradient>
<linearGradient id="paint2_linear" x1="21.6415" y1="9.04499" x2="8.8284" y2="32.0653" gradientUnits="userSpaceOnUse">
<stop offset="0.0294109" stop-color="#00FF6A"/>
<stop offset="0.375" stop-color="#21D789"/>
<stop offset="0.9032" stop-color="#009AE5"/>
</linearGradient>
<linearGradient id="paint3_linear" x1="24.7716" y1="18.3259" x2="16.2498" y2="19.0778" gradientUnits="userSpaceOnUse">
<stop offset="0.0294109" stop-color="#A6FF9E"/>
<stop offset="0.6015" stop-color="#21D789" stop-opacity="0"/>
</linearGradient>
<linearGradient id="paint4_linear" x1="34.1127" y1="42.7062" x2="61.4521" y2="46.5933" gradientUnits="userSpaceOnUse">
<stop offset="0.3444" stop-color="#21D789"/>
<stop offset="0.8032" stop-color="#009AE5"/>
<stop offset="0.9931" stop-color="#0855FA"/>
</linearGradient>
<linearGradient id="paint5_linear" x1="35.583" y1="42.5225" x2="56.6725" y2="30.8699" gradientUnits="userSpaceOnUse">
<stop offset="0.0962983" stop-color="#00FF6A"/>
<stop offset="0.9654" stop-color="#00FF6A" stop-opacity="0"/>
</linearGradient>
<linearGradient id="paint6_linear" x1="31.4073" y1="60.8178" x2="63.65" y2="43.0028" gradientUnits="userSpaceOnUse">
<stop  offset="0" stop-color="#42FFFA" stop-opacity="0.5"/>
<stop offset="0.9989" stop-color="#00FF6A" stop-opacity="0"/>
</linearGradient>
<linearGradient id="paint7_linear" x1="40.2092" y1="47.13" x2="28.8468" y2="45.1248" gradientUnits="userSpaceOnUse">
<stop offset="0.0521494" stop-color="#00FF6A"/>
<stop offset="1" stop-color="#009AE5"/>
</linearGradient>
<linearGradient id="paint8_linear" x1="61.7492" y1="49.786" x2="25.1313" y2="46.3579" gradientUnits="userSpaceOnUse">
<stop offset="0.1212" stop-color="#21D789" stop-opacity="0"/>
<stop offset="0.7868" stop-color="#00FF6A"/>
</linearGradient>
<linearGradient id="paint9_linear" x1="41.4293" y1="44.6917" x2="33.8021" y2="50.8708" gradientUnits="userSpaceOnUse">
<stop offset="0.0962983" stop-color="#42FFFA"/>
<stop offset="0.9654" stop-color="#42FFFA" stop-opacity="0"/>
</linearGradient>
<linearGradient id="paint10_linear" x1="19.1006" y1="12.3626" x2="1.53378" y2="50.6902" gradientUnits="userSpaceOnUse">
<stop offset="0.0913979" stop-color="#00FF6A"/>
<stop offset="0.759" stop-color="#009AE5"/>
</linearGradient>
<linearGradient id="paint11_linear" x1="5.65488" y1="21.152" x2="12.0045" y2="44.0441" gradientUnits="userSpaceOnUse">
<stop offset="0.1163" stop-color="#21D789" stop-opacity="0.6"/>
<stop offset="1" stop-color="#009AE5"/>
</linearGradient>
<linearGradient id="paint12_linear" x1="56.6311" y1="8.37679" x2="-2.60152" y2="70.9352" gradientUnits="userSpaceOnUse">
<stop offset="0.0913979" stop-color="#21D789"/>
<stop offset="0.9032" stop-color="#009AE5"/>
</linearGradient>
<linearGradient id="paint13_linear" x1="32.6233" y1="58.7866" x2="21.4387" y2="34.5533" gradientUnits="userSpaceOnUse">
<stop offset="0.00994756" stop-color="#009AE5"/>
<stop offset="0.9654" stop-color="#009AE5" stop-opacity="0"/>
</linearGradient>
<linearGradient id="paint14_linear" x1="2.55998" y1="46.6253" x2="23.2839" y2="46.6253" gradientUnits="userSpaceOnUse">
<stop offset="0.0556783" stop-color="#009AE5" stop-opacity="0.4"/>
<stop offset="0.7897" stop-color="#009AE5"/>
</linearGradient>
<linearGradient id="paint15_linear" x1="6.11128" y1="33.9607" x2="20.6486" y2="46.1586" gradientUnits="userSpaceOnUse">
<stop offset="0.1196" stop-color="#42FFFA"/>
<stop offset="0.6743" stop-color="#42FFFA" stop-opacity="0"/>
</linearGradient>
<linearGradient id="paint16_linear" x1="13.5433" y1="39.7266" x2="23.2839" y2="39.7266" gradientUnits="userSpaceOnUse">
<stop offset="0.0556783" stop-color="#009AE5" stop-opacity="0.4"/>
<stop offset="1" stop-color="#087CFA"/>
</linearGradient>
<linearGradient id="paint17_linear" x1="12.5435" y1="43.8276" x2="49.6262" y2="-1.65511" gradientUnits="userSpaceOnUse">
<stop  offset="0" stop-color="#0697DC"/>
<stop offset="0.9032" stop-color="#00FF6A"/>
</linearGradient>
<linearGradient id="paint18_linear" x1="35.0616" y1="31.04" x2="28.2107" y2="25.7765" gradientUnits="userSpaceOnUse">
<stop offset="0.0962983" stop-color="#6EFFA3"/>
<stop offset="0.6015" stop-color="#21D789" stop-opacity="0"/>
</linearGradient>
<linearGradient id="paint19_linear" x1="50.8768" y1="10.2077" x2="41.3524" y2="5.52899" gradientUnits="userSpaceOnUse">
<stop offset="0.0962983" stop-color="#6EFFA3"/>
<stop offset="0.9654" stop-color="#FCF84A" stop-opacity="0"/>
</linearGradient>
<linearGradient id="paint20_linear" x1="57.5542" y1="48.5922" x2="18.4539" y2="11.497" gradientUnits="userSpaceOnUse">
<stop offset="0.5747" stop-color="#0CAFA3" stop-opacity="0.1365"/>
<stop offset="1" stop-color="#07C3F2" stop-opacity="0.88"/>
</linearGradient>
<linearGradient id="paint21_linear" x1="18.1109" y1="23.2454" x2="49.8477" y2="38.0961" gradientUnits="userSpaceOnUse">
<stop offset="0.4862" stop-color="#087CFA" stop-opacity="0"/>
<stop offset="1" stop-color="#21D789"/>
</linearGradient>
<linearGradient id="paint22_linear" x1="29.907" y1="34.7927" x2="24.2394" y2="30.2248" gradientUnits="userSpaceOnUse">
<stop offset="0.311" stop-color="#65FFC5" stop-opacity="0.88"/>
<stop offset="0.4437" stop-color="#56F2BE" stop-opacity="0.6801"/>
<stop offset="0.6983" stop-color="#2FD0AD" stop-opacity="0.2969"/>
<stop offset="0.8955" stop-color="#0CB29E" stop-opacity="0"/>
</linearGradient>
<linearGradient id="paint23_linear" x1="27.3725" y1="36.7786" x2="19.0178" y2="21.2387" gradientUnits="userSpaceOnUse">
<stop offset="0.0962983" stop-color="#42FFFA"/>
<stop offset="0.6336" stop-color="#42FFFA" stop-opacity="0"/>
</linearGradient>
<linearGradient id="paint24_linear" x1="65.4445" y1="17.9865" x2="47.5091" y2="9.17619" gradientUnits="userSpaceOnUse">
<stop offset="0.1514" stop-color="#00865B"/>
<stop offset="0.2496" stop-color="#048D64" stop-opacity="0.8794"/>
<stop offset="0.412" stop-color="#0EA07D" stop-opacity="0.6799"/>
<stop offset="0.6187" stop-color="#1FBFA6" stop-opacity="0.426"/>
<stop offset="0.8591" stop-color="#37EADF" stop-opacity="0.1306"/>
<stop offset="0.9654" stop-color="#42FFFA" stop-opacity="0"/>
</linearGradient>
<linearGradient id="paint25_linear" x1="56.4018" y1="5.7211" x2="21.0612" y2="29.7828" gradientUnits="userSpaceOnUse">
<stop offset="0.1446" stop-color="#FF67AA"/>
<stop offset="0.2328" stop-color="#FB69A9" stop-opacity="0.8603"/>
<stop offset="0.3132" stop-color="#F06FA6" stop-opacity="0.7328"/>
<stop offset="0.3907" stop-color="#DE7AA2" stop-opacity="0.6101"/>
<stop offset="0.4663" stop-color="#C48A9B" stop-opacity="0.4903"/>
<stop offset="0.5406" stop-color="#A29E93" stop-opacity="0.3725"/>
<stop offset="0.6139" stop-color="#79B788" stop-opacity="0.2564"/>
<stop offset="0.6864" stop-color="#48D47C" stop-opacity="0.1415"/>
<stop offset="0.7565" stop-color="#10F56E" stop-opacity="0.0303353"/>
<stop offset="0.7757" stop-color="#00FF6A" stop-opacity="0"/>
</linearGradient>
<linearGradient id="paint26_linear" x1="19.8021" y1="13.0366" x2="32.9608" y2="14.6658" gradientUnits="userSpaceOnUse">
<stop offset="0.2258" stop-color="#FF52A0"/>
<stop offset="0.4026" stop-color="#FF4E9E" stop-opacity="0.6404"/>
<stop offset="0.5635" stop-color="#FF4397" stop-opacity="0.3132"/>
<stop offset="0.7175" stop-color="#FF318C" stop-opacity="0"/>
</linearGradient>
<linearGradient id="paint27_linear" x1="13.5472" y1="14.0868" x2="49.3432" y2="48.8362" gradientUnits="userSpaceOnUse">
<stop  offset="0" stop-color="#007859"/>
<stop offset="0.0882966" stop-color="#00533E"/>
<stop offset="0.1921" stop-color="#002F23"/>
<stop offset="0.2894" stop-color="#001510"/>
<stop offset="0.3766" stop-color="#000604"/>
<stop offset="0.4452"/>
<stop offset="0.9138"/>
</linearGradient>
<linearGradient id="paint28_linear" x1="31.5993" y1="38.4197" x2="51.8952" y2="41.3053" gradientUnits="userSpaceOnUse">
<stop offset="0.0207811" stop-color="#00A466"/>
<stop offset="0.9931" stop-color="#083737"/>
</linearGradient>
<linearGradient id="paint29_linear" x1="41.5447" y1="44.8117" x2="50" y2="44.8117" gradientUnits="userSpaceOnUse">
<stop offset="0.1545" stop-color="#003127"/>
<stop offset="0.9931" stop-color="#0855FA"/>
</linearGradient>
<linearGradient id="paint30_linear" x1="24.3038" y1="23.8801" x2="18.4053" y2="24.4006" gradientUnits="userSpaceOnUse">
<stop offset="0.0962983" stop-color="#6EFFA3"/>
<stop offset="0.9654" stop-color="#FCF84A"/>
</linearGradient>
<linearGradient id="paint31_linear" x1="20.6749" y1="18.0871" x2="12.0607" y2="36.8818" gradientUnits="userSpaceOnUse">
<stop offset="0.0913979" stop-color="#00FF6A"/>
<stop offset="0.759" stop-color="#009AE5"/>
</linearGradient>
<linearGradient id="paint32_linear" x1="26.2597" y1="13.0435" x2="32.5087" y2="25.9462" gradientUnits="userSpaceOnUse">
<stop offset="0.3369" stop-color="#FF52A0"/>
<stop offset="0.493" stop-color="#FF489A"/>
<stop offset="0.7175" stop-color="#FF318C"/>
</linearGradient>
<linearGradient id="paint33_linear" x1="35.7453" y1="11.9753" x2="29.0338" y2="51.3184" gradientUnits="userSpaceOnUse">
<stop  offset="0" stop-color="#21D789"/>
<stop offset="1" stop-color="#090C1B"/>
</linearGradient>
<linearGradient id="paint34_linear" x1="32.8903" y1="15.2061" x2="22.447" y2="38.1755" gradientUnits="userSpaceOnUse">
<stop offset="0.0962983" stop-color="#6EFFA3"/>
<stop offset="0.9654" stop-color="#218F59"/>
</linearGradient>
<linearGradient id="paint35_linear" x1="12.5117" y1="36.512" x2="20.8214" y2="43.4846" gradientUnits="userSpaceOnUse">
<stop offset="0.1545" stop-color="#001A18"/>
<stop offset="0.9931" stop-color="#0855FA"/>
</linearGradient>
</defs>
</svg>
