<svg width="48" height="48" viewBox="0 0 48 48" fill="none" xmlns="http://www.w3.org/2000/svg">
<path d="M17.7 19.1L18.7 1.5L28.9 7.2L17.7 19.1Z" fill="url(#paint0_linear)"/>
<path d="M17.7 19.1002L18.2999 8.2002L28.9 7.2002L17.7 19.1002Z" fill="url(#paint1_linear)"/>
<path d="M17.7 19.1L18.3 8.3L18.7 1.5L5.7 9.7L1.5 34.6L17.7 19.1Z" fill="#00FF6A"/>
<path d="M17.7 19.1002L18.3 8.2002L5.69995 9.7002L10.2 26.3002L17.7 19.1002Z" fill="url(#paint2_linear)"/>
<path d="M17.7 19.1L18.7 1.5L5.69995 9.7L10.2 26.3L17.7 19.1Z" fill="url(#paint3_linear)"/>
<path d="M17.7001 18.7002L16.8 34.8002L28.2001 44.1002L39.4001 46.5002L46.5 30.4002L17.7001 18.7002Z" fill="url(#paint4_linear)"/>
<path d="M35.9 30L25.9 23.8L27.1 22.5L46.5 30.4L35.9 30Z" fill="url(#paint5_linear)"/>
<path d="M35.9 30L28.2 44.1L39.4 46.5L46.5 30.4L35.9 30Z" fill="url(#paint6_linear)"/>
<path d="M17.2001 24.3999L16.8 34.7999L28.2001 44.0999L17.2001 24.3999Z" fill="url(#paint7_linear)"/>
<path d="M17.6 25.2998L39.4 46.4998L28.2 44.0998L17.6 25.2998Z" fill="url(#paint8_linear)"/>
<path d="M17.6 25.2998L39.4 46.4998L28.2 44.0998L17.6 25.2998Z" fill="url(#paint9_linear)"/>
<path d="M1.5 34.6002L17.7 19.1002L5.7 9.7002L1.5 34.6002Z" fill="url(#paint10_linear)"/>
<path d="M1.5 34.6002L13.4 22.7002L5.7 9.7002L1.5 34.6002Z" fill="url(#paint11_linear)"/>
<path d="M46.5 17.1002L39.8 3.2002L28.9 7.2002L1.5 34.6002L16.1 45.2002L46.5 17.1002Z" fill="url(#paint12_linear)"/>
<path d="M17.4 25.2002L16.8 34.8002L22.4 39.4002L24.5 37.4002L17.4 25.2002Z" fill="url(#paint13_linear)"/>
<path d="M1.5 34.6001L17.3 25.1001L16.1 45.2001L1.5 34.6001Z" fill="url(#paint14_linear)"/>
<path d="M1.5 34.6001L17.3 25.1001L16.1 45.2001L1.5 34.6001Z" fill="url(#paint15_linear)"/>
<path d="M9.90002 29.6001L17.3 25.1001L16.7 34.7001L9.90002 29.6001Z" fill="url(#paint16_linear)"/>
<path d="M1.5 34.6002L17.3 25.2002L39.8 3.2002L28.9 7.2002L1.5 34.6002Z" fill="url(#paint17_linear)"/>
<path d="M1.5 34.6002L17.3 25.2002L39.8 3.2002L28.9 7.2002L1.5 34.6002Z" fill="url(#paint18_linear)"/>
<path d="M33.3 9.6002L39.8 3.2002L28.9 7.2002L33.3 9.6002Z" fill="url(#paint19_linear)"/>
<path d="M46.3 16.8002L22.5 39.2002L13.5 22.6002L28.9 7.2002L46.3 16.8002Z" fill="url(#paint20_linear)"/>
<path d="M36.3 26.2L17.6 18.5V18.6L33.8 28.6L36.3 26.2Z" fill="url(#paint21_linear)"/>
<path d="M33.3 9.6002L17.3 25.2002L1.5 34.6002L13.5 22.6002L28.9 7.2002L33.3 9.6002Z" fill="url(#paint22_linear)"/>
<path d="M33.4 9.5002L17.3 25.2002L1.5 34.6002L13.5 22.6002L28.9 7.2002L33.4 9.5002Z" fill="url(#paint23_linear)"/>
<path d="M33.4 9.2002L39.8 3.2002L46.5 17.1002L33.4 9.2002Z" fill="url(#paint24_linear)"/>
<path d="M17.7 18.4002L25 22.0002L28.9 7.2002L17.7 18.4002Z" fill="url(#paint25_linear)"/>
<path d="M28.9 7.2L18.7 1.5L17.7 18.4L28.9 7.2Z" fill="url(#paint26_linear)"/>
<path d="M38 10H10V38H38V10Z" fill="url(#paint27_linear)"/>
<g opacity="0.3">
<path opacity="0.3" d="M38 27.0002L17.7 18.7002L16.8 34.8002L20.8 38.0002H38V27.0002Z" fill="url(#paint28_linear)"/>
<path opacity="0.3" d="M38 37.9999V29.9999L35.9 29.8999L31.4 37.9999H38Z" fill="url(#paint29_linear)"/>
<path opacity="0.3" d="M10 10V25.2V26.8L17.7 19.1L18.2 10H10Z" fill="url(#paint30_linear)"/>
<path opacity="0.3" d="M10 25.2001V26.5001L17.7 19.1001L10 13.1001V25.2001Z" fill="url(#paint31_linear)"/>
<path opacity="0.3" d="M18.2 10L17.7 18.4L26.1 10H18.2Z" fill="url(#paint32_linear)"/>
<path opacity="0.3" d="M38 24.9V10H26.1L10 26.1V38H23.8L38 24.9Z" fill="url(#paint33_linear)"/>
<path opacity="0.3" d="M10 26.1V29.6L17.3 25.2L32.9 10H26.1L10 26.1Z" fill="url(#paint34_linear)"/>
<path opacity="0.3" d="M10 38.0001H16.6L17.4 25.1001L10 29.5001V38.0001Z" fill="url(#paint35_linear)"/>
</g>
<path d="M24 32.6997H13.5V34.3997H24V32.6997Z" fill="white"/>
<path d="M24.3 13.3999H26.6V21.9999H31.3V23.8999H24.3V13.3999Z" fill="white"/>
<path d="M13 18.6997C13 15.6997 15.3 13.1997 18.5 13.1997C20.5 13.1997 21.7 13.8997 22.7 14.7997L21.3 16.4997C20.5 15.7997 19.7 15.2997 18.6 15.2997C16.8 15.2997 15.5 16.7997 15.5 18.5997C15.5 20.3997 16.8 21.8997 18.6 21.8997C19.8 21.8997 20.6 21.3997 21.4 20.6997L22.9 22.1997C21.8 23.3997 20.6 24.0997 18.6 24.0997C15.4 24.1997 13 21.6997 13 18.6997Z" fill="white"/>
<defs>
<linearGradient id="paint0_linear" x1="17.675" y1="10.2982" x2="30.5679" y2="10.2982" gradientUnits="userSpaceOnUse">
<stop stop-color="#FF318C"/>
<stop offset="0.149" stop-color="#FB348C"/>
<stop offset="0.2849" stop-color="#F03C8C"/>
<stop offset="0.4157" stop-color="#DE4A8C"/>
<stop offset="0.5434" stop-color="#C45D8B"/>
<stop offset="0.6689" stop-color="#A2778B"/>
<stop offset="0.7926" stop-color="#79958A"/>
<stop offset="0.9128" stop-color="#49B98A"/>
<stop offset="1" stop-color="#21D789"/>
</linearGradient>
<linearGradient id="paint1_linear" x1="16.1391" y1="14.3624" x2="34.0498" y2="7.3705" gradientUnits="userSpaceOnUse">
<stop offset="0.1069" stop-color="#FF318C"/>
<stop offset="0.2181" stop-color="#FB338C"/>
<stop offset="0.3194" stop-color="#F0388E"/>
<stop offset="0.4168" stop-color="#DE4190"/>
<stop offset="0.5114" stop-color="#C44E93"/>
<stop offset="0.6008" stop-color="#A45E97"/>
<stop offset="0.6375" stop-color="#976A96"/>
<stop offset="0.7051" stop-color="#758992"/>
<stop offset="0.7956" stop-color="#3FBC8C"/>
<stop offset="0.8402" stop-color="#21D789"/>
</linearGradient>
<linearGradient id="paint2_linear" x1="16.0834" y1="6.4563" x2="6.29065" y2="24.0499" gradientUnits="userSpaceOnUse">
<stop offset="0.0294109" stop-color="#00FF6A"/>
<stop offset="0.375" stop-color="#21D789"/>
<stop offset="0.9032" stop-color="#009AE5"/>
</linearGradient>
<linearGradient id="paint3_linear" x1="18.4756" y1="13.5492" x2="11.9626" y2="14.1239" gradientUnits="userSpaceOnUse">
<stop offset="0.0294109" stop-color="#A6FF9E"/>
<stop offset="0.6015" stop-color="#21D789" stop-opacity="0"/>
</linearGradient>
<linearGradient id="paint4_linear" x1="25.6147" y1="32.1825" x2="46.5092" y2="35.1533" gradientUnits="userSpaceOnUse">
<stop offset="0.3444" stop-color="#21D789"/>
<stop offset="0.8032" stop-color="#009AE5"/>
<stop offset="0.9931" stop-color="#0855FA"/>
</linearGradient>
<linearGradient id="paint5_linear" x1="26.7384" y1="32.042" x2="42.8563" y2="23.1363" gradientUnits="userSpaceOnUse">
<stop offset="0.0962983" stop-color="#00FF6A"/>
<stop offset="0.9654" stop-color="#00FF6A" stop-opacity="0"/>
</linearGradient>
<linearGradient id="paint6_linear" x1="23.547" y1="46.0243" x2="48.189" y2="32.4088" gradientUnits="userSpaceOnUse">
<stop stop-color="#42FFFA" stop-opacity="0.5"/>
<stop offset="0.9989" stop-color="#00FF6A" stop-opacity="0"/>
</linearGradient>
<linearGradient id="paint7_linear" x1="30.2741" y1="35.5632" x2="21.5901" y2="34.0308" gradientUnits="userSpaceOnUse">
<stop offset="0.0521494" stop-color="#00FF6A"/>
<stop offset="1" stop-color="#009AE5"/>
</linearGradient>
<linearGradient id="paint8_linear" x1="46.7363" y1="37.5929" x2="18.7505" y2="34.9729" gradientUnits="userSpaceOnUse">
<stop offset="0.1212" stop-color="#21D789" stop-opacity="0"/>
<stop offset="0.7868" stop-color="#00FF6A"/>
</linearGradient>
<linearGradient id="paint9_linear" x1="31.2065" y1="33.6995" x2="25.3772" y2="38.4219" gradientUnits="userSpaceOnUse">
<stop offset="0.0962983" stop-color="#42FFFA"/>
<stop offset="0.9654" stop-color="#42FFFA" stop-opacity="0"/>
</linearGradient>
<linearGradient id="paint10_linear" x1="14.1414" y1="8.9917" x2="0.715703" y2="38.2843" gradientUnits="userSpaceOnUse">
<stop offset="0.0913979" stop-color="#00FF6A"/>
<stop offset="0.759" stop-color="#009AE5"/>
</linearGradient>
<linearGradient id="paint11_linear" x1="3.8653" y1="15.7092" x2="8.7181" y2="33.2048" gradientUnits="userSpaceOnUse">
<stop offset="0.1163" stop-color="#21D789" stop-opacity="0.6"/>
<stop offset="1" stop-color="#009AE5"/>
</linearGradient>
<linearGradient id="paint12_linear" x1="42.8247" y1="5.94549" x2="-2.4447" y2="53.7569" gradientUnits="userSpaceOnUse">
<stop offset="0.0913979" stop-color="#21D789"/>
<stop offset="0.9032" stop-color="#009AE5"/>
</linearGradient>
<linearGradient id="paint13_linear" x1="24.4764" y1="44.4723" x2="15.9284" y2="25.9516" gradientUnits="userSpaceOnUse">
<stop offset="0.00994756" stop-color="#009AE5"/>
<stop offset="0.9654" stop-color="#009AE5" stop-opacity="0"/>
</linearGradient>
<linearGradient id="paint14_linear" x1="1.5" y1="35.1778" x2="17.3386" y2="35.1778" gradientUnits="userSpaceOnUse">
<stop offset="0.0556783" stop-color="#009AE5" stop-opacity="0.4"/>
<stop offset="0.7897" stop-color="#009AE5"/>
</linearGradient>
<linearGradient id="paint15_linear" x1="4.2141" y1="25.4986" x2="15.3245" y2="34.8211" gradientUnits="userSpaceOnUse">
<stop offset="0.1196" stop-color="#42FFFA"/>
<stop offset="0.6743" stop-color="#42FFFA" stop-opacity="0"/>
</linearGradient>
<linearGradient id="paint16_linear" x1="9.89422" y1="29.9053" x2="17.3386" y2="29.9053" gradientUnits="userSpaceOnUse">
<stop offset="0.0556783" stop-color="#009AE5" stop-opacity="0.4"/>
<stop offset="1" stop-color="#087CFA"/>
</linearGradient>
<linearGradient id="paint17_linear" x1="9.1301" y1="33.0394" x2="37.4711" y2="-1.7215" gradientUnits="userSpaceOnUse">
<stop stop-color="#0697DC"/>
<stop offset="0.9032" stop-color="#00FF6A"/>
</linearGradient>
<linearGradient id="paint18_linear" x1="26.3399" y1="23.2663" x2="21.1039" y2="19.2435" gradientUnits="userSpaceOnUse">
<stop offset="0.0962983" stop-color="#6EFFA3"/>
<stop offset="0.6015" stop-color="#21D789" stop-opacity="0"/>
</linearGradient>
<linearGradient id="paint19_linear" x1="38.4269" y1="7.3448" x2="31.1477" y2="3.7691" gradientUnits="userSpaceOnUse">
<stop offset="0.0962983" stop-color="#6EFFA3"/>
<stop offset="0.9654" stop-color="#FCF84A" stop-opacity="0"/>
</linearGradient>
<linearGradient id="paint20_linear" x1="43.5303" y1="36.6811" x2="13.6473" y2="8.3305" gradientUnits="userSpaceOnUse">
<stop offset="0.5747" stop-color="#0CAFA3" stop-opacity="0.1365"/>
<stop offset="1" stop-color="#07C3F2" stop-opacity="0.88"/>
</linearGradient>
<linearGradient id="paint21_linear" x1="13.385" y1="17.3092" x2="37.6404" y2="28.6591" gradientUnits="userSpaceOnUse">
<stop offset="0.4862" stop-color="#087CFA" stop-opacity="0"/>
<stop offset="1" stop-color="#21D789"/>
</linearGradient>
<linearGradient id="paint22_linear" x1="22.4004" y1="26.1346" x2="18.0688" y2="22.6435" gradientUnits="userSpaceOnUse">
<stop offset="0.311" stop-color="#65FFC5" stop-opacity="0.88"/>
<stop offset="0.4437" stop-color="#56F2BE" stop-opacity="0.6801"/>
<stop offset="0.6983" stop-color="#2FD0AD" stop-opacity="0.2969"/>
<stop offset="0.8955" stop-color="#0CB29E" stop-opacity="0"/>
</linearGradient>
<linearGradient id="paint23_linear" x1="20.4634" y1="27.6523" x2="14.0781" y2="15.7757" gradientUnits="userSpaceOnUse">
<stop offset="0.0962983" stop-color="#42FFFA"/>
<stop offset="0.6336" stop-color="#42FFFA" stop-opacity="0"/>
</linearGradient>
<linearGradient id="paint24_linear" x1="49.5606" y1="13.2899" x2="35.8532" y2="6.5565" gradientUnits="userSpaceOnUse">
<stop offset="0.1514" stop-color="#00865B"/>
<stop offset="0.2496" stop-color="#048D64" stop-opacity="0.8794"/>
<stop offset="0.412" stop-color="#0EA07D" stop-opacity="0.6799"/>
<stop offset="0.6187" stop-color="#1FBFA6" stop-opacity="0.426"/>
<stop offset="0.8591" stop-color="#37EADF" stop-opacity="0.1306"/>
<stop offset="0.9654" stop-color="#42FFFA" stop-opacity="0"/>
</linearGradient>
<linearGradient id="paint25_linear" x1="42.6495" y1="3.9161" x2="15.6398" y2="22.3057" gradientUnits="userSpaceOnUse">
<stop offset="0.1446" stop-color="#FF67AA"/>
<stop offset="0.2328" stop-color="#FB69A9" stop-opacity="0.8603"/>
<stop offset="0.3132" stop-color="#F06FA6" stop-opacity="0.7328"/>
<stop offset="0.3907" stop-color="#DE7AA2" stop-opacity="0.6101"/>
<stop offset="0.4663" stop-color="#C48A9B" stop-opacity="0.4903"/>
<stop offset="0.5406" stop-color="#A29E93" stop-opacity="0.3725"/>
<stop offset="0.6139" stop-color="#79B788" stop-opacity="0.2564"/>
<stop offset="0.6864" stop-color="#48D47C" stop-opacity="0.1415"/>
<stop offset="0.7565" stop-color="#10F56E" stop-opacity="0.0303353"/>
<stop offset="0.7757" stop-color="#00FF6A" stop-opacity="0"/>
</linearGradient>
<linearGradient id="paint26_linear" x1="14.6776" y1="9.5068" x2="24.7344" y2="10.752" gradientUnits="userSpaceOnUse">
<stop offset="0.2258" stop-color="#FF52A0"/>
<stop offset="0.4026" stop-color="#FF4E9E" stop-opacity="0.6404"/>
<stop offset="0.5635" stop-color="#FF4397" stop-opacity="0.3132"/>
<stop offset="0.7175" stop-color="#FF318C" stop-opacity="0"/>
</linearGradient>
<linearGradient id="paint27_linear" x1="9.64782" y1="10.0675" x2="37.4892" y2="37.0948" gradientUnits="userSpaceOnUse">
<stop stop-color="#007859"/>
<stop offset="0.0882966" stop-color="#00533E"/>
<stop offset="0.1921" stop-color="#002F23"/>
<stop offset="0.2894" stop-color="#001510"/>
<stop offset="0.3766" stop-color="#000604"/>
<stop offset="0.4452"/>
<stop offset="0.9138"/>
</linearGradient>
<linearGradient id="paint28_linear" x1="23.6884" y1="28.9931" x2="39.474" y2="31.2375" gradientUnits="userSpaceOnUse">
<stop offset="0.0207811" stop-color="#00A466"/>
<stop offset="0.9931" stop-color="#083737"/>
</linearGradient>
<linearGradient id="paint29_linear" x1="31.4237" y1="33.9645" x2="38" y2="33.9645" gradientUnits="userSpaceOnUse">
<stop offset="0.1545" stop-color="#003127"/>
<stop offset="0.9931" stop-color="#0855FA"/>
</linearGradient>
<linearGradient id="paint30_linear" x1="18.0141" y1="17.6845" x2="13.4264" y2="18.0893" gradientUnits="userSpaceOnUse">
<stop offset="0.0962983" stop-color="#6EFFA3"/>
<stop offset="0.9654" stop-color="#FCF84A"/>
</linearGradient>
<linearGradient id="paint31_linear" x1="15.1916" y1="13.1789" x2="8.4917" y2="27.797" gradientUnits="userSpaceOnUse">
<stop offset="0.0913979" stop-color="#00FF6A"/>
<stop offset="0.759" stop-color="#009AE5"/>
</linearGradient>
<linearGradient id="paint32_linear" x1="19.5353" y1="9.256" x2="24.3957" y2="19.2915" gradientUnits="userSpaceOnUse">
<stop offset="0.3369" stop-color="#FF52A0"/>
<stop offset="0.493" stop-color="#FF489A"/>
<stop offset="0.7175" stop-color="#FF318C"/>
</linearGradient>
<linearGradient id="paint33_linear" x1="26.913" y1="8.4252" x2="21.6929" y2="39.0254" gradientUnits="userSpaceOnUse">
<stop stop-color="#21D789"/>
<stop offset="1" stop-color="#090C1B"/>
</linearGradient>
<linearGradient id="paint34_linear" x1="24.6924" y1="10.938" x2="16.5699" y2="28.8032" gradientUnits="userSpaceOnUse">
<stop offset="0.0962983" stop-color="#6EFFA3"/>
<stop offset="0.9654" stop-color="#218F59"/>
</linearGradient>
<linearGradient id="paint35_linear" x1="8.8424" y1="27.5095" x2="15.3056" y2="32.9326" gradientUnits="userSpaceOnUse">
<stop offset="0.1545" stop-color="#001A18"/>
<stop offset="0.9931" stop-color="#0855FA"/>
</linearGradient>
</defs>
</svg>
