<svg width="16" height="16" viewBox="0 0 16 16" fill="none" xmlns="http://www.w3.org/2000/svg">
<path d="M4.5 2C4.22386 2 4 2.22386 4 2.5C4 2.77614 4.22386 3 4.5 3H12C13.1046 3 14 3.89543 14 5V10.5C14 10.7761 14.2239 11 14.5 11C14.7761 11 15 10.7761 15 10.5V5C15 3.34315 13.6569 2 12 2H4.5Z" fill="#CED0D6"/>
<path fill-rule="evenodd" clip-rule="evenodd" d="M3 4C1.89543 4 1 4.89543 1 6V12C1 13.1046 1.89543 14 3 14H11C12.1046 14 13 13.1046 13 12V6C13 4.89543 12.1046 4 11 4H3ZM11 5H10V7H12V6C12 5.44772 11.5523 5 11 5ZM5 5H9V7H5V5ZM3 5H4V7H2V6C2 5.44772 2.44772 5 3 5ZM2 12V8H4V13H3C2.44772 13 2 12.5523 2 12ZM9 13H5V8H9V13ZM11 13H10V8H12V12C12 12.5523 11.5523 13 11 13Z" fill="#CED0D6"/>
</svg>
