<svg width="20" height="20" viewBox="0 0 20 20" fill="none" xmlns="http://www.w3.org/2000/svg">
<path d="M5.75 2C5.33579 2 5 2.33579 5 2.75C5 3.16421 5.33579 3.5 5.75 3.5H15.5C16.6046 3.5 17.5 4.39543 17.5 5.5V13.25C17.5 13.6642 17.8358 14 18.25 14C18.6642 14 19 13.6642 19 13.25V5.5C19 3.567 17.433 2 15.5 2H5.75Z" fill="#CED0D6"/>
<path fill-rule="evenodd" clip-rule="evenodd" d="M3 5C1.89543 5 1 5.89543 1 7V16C1 17.1046 1.89543 18 3 18H14C15.1046 18 16 17.1046 16 16V7C16 5.89543 15.1046 5 14 5H3ZM10.5 6.5H6.5V9H10.5V6.5ZM5 6.5V9H2.5V7C2.5 6.72386 2.72386 6.5 3 6.5H5ZM2.5 16V10.5H5V16.5H3C2.72386 16.5 2.5 16.2761 2.5 16ZM10.5 10.5H6.5V16.5H10.5V10.5ZM12 16.5V10.5H14.5V16C14.5 16.2761 14.2761 16.5 14 16.5H12ZM14.5 7V9H12V6.5H14C14.2761 6.5 14.5 6.72386 14.5 7Z" fill="#CED0D6"/>
</svg>
