<svg xmlns="http://www.w3.org/2000/svg" width="16" height="16" viewBox="0 0 16 16">
  <defs>
    <linearGradient id="cmakeloadchanges-a" x1="47.622%" x2="2.312%" y1="-39.906%" y2="7.8%">
      <stop offset="0%" stop-color="#7777E9"/>
      <stop offset="100%" stop-color="#01009A"/>
    </linearGradient>
    <linearGradient id="cmakeloadchanges-b" x1="22.307%" x2="81.026%" y1="89.651%" y2="156.773%">
      <stop offset="0%" stop-color="#B83535"/>
      <stop offset="100%" stop-color="#FD5B5A"/>
    </linearGradient>
    <linearGradient id="cmakeloadchanges-c" x1="240.033%" x2="185.457%" y1="52.698%" y2=".506%">
      <stop offset="0%" stop-color="#01B202"/>
      <stop offset="100%" stop-color="#0FE90F"/>
    </linearGradient>
  </defs>
  <g fill="none" fill-rule="evenodd">
    <polygon fill="url(#cmakeloadchanges-a)" points="6 0 6.7 5.934 0 11.766"/>
    <path fill="url(#cmakeloadchanges-b)" d="M9.00343,5.88982 L6,0 L6.71983,6.92301 C6.85614,6.78742 7.01502,6.64797 7.19995,6.50003 C7.80169,6.01865 8.3655,5.87053 9.00343,5.88982 Z"/>
    <path fill="url(#cmakeloadchanges-c)" d="M5.93227,9.16683 L3.95,8.31763 L0,11.7662 L5.99925,11.7662 C5.99521,11.1237 5.97533,10.5819 5.95825,10.1162 C5.94513,9.75862 5.93366,9.44588 5.93227,9.16683 Z"/>
    <path fill="#389FD6" d="M15.6456,12.0155 L15.6456,15.5871 L14.3872,14.3277 C13.6029,15.1282 12.4916,15.6008 11.2845,15.5375 C9.29176,15.4331 7.71156,13.9037 7.4795,11.9885 L8.84058,12.1068 C9.10844,13.2635 10.1149,14.1522 11.3598,14.2175 C12.1761,14.2603 12.9276,13.9402 13.4574,13.3982 L12.0739,12.0155 L15.6456,12.0155 Z M11.708,7.45646 C13.6743,7.5595 15.2389,9.04985 15.503,10.9293 L14.1505,10.8115 C13.8623,9.68402 12.8692,8.82461 11.6458,8.7605 C10.7935,8.71583 10.012,9.06674 9.47952,9.65269 L10.9131,11.0862 L7.34133,11.0862 L7.34133,7.51451 L8.54986,8.7239 C9.33683,7.88856 10.4722,7.39169 11.708,7.45646 Z"/>
  </g>
</svg>
