<svg width="40" height="40" viewBox="0 0 40 40" fill="none" xmlns="http://www.w3.org/2000/svg">
<path fill-rule="evenodd" clip-rule="evenodd" d="M35.7941 31.2761C32.6322 35.5396 27.401 36.9651 22 37C19.0444 37.0191 10 37 10 37H7C7 37 9.33361 36.2332 10 36C15.4285 34.0996 16.793 34.2589 20.0946 32.5411C26.2923 29.325 34 21 34 12C32.0714 19.0714 24.1792 28.0684 17.6455 30.5086C13.5804 32.1601 9.33659 33.3318 5 34C3.80048 33.0297 2.8228 31.8136 2.13282 30.4336C1.44283 29.0536 1.05655 27.5418 1 26C1.06937 23.5587 1.87996 21.1963 3.32408 19.2267C4.7682 17.2572 6.77746 15.7736 9.08488 14.9733C13.4665 13.2669 16.2657 13.1442 21 12C26.2286 10.6714 32.6027 6.96923 36 2C37.8616 7.82423 38.872 13.8868 39 20C39 24.2126 38.1859 28.0501 35.7941 31.2761Z" fill="#6CC149"/>
</svg>
