<svg width="16" height="16" viewBox="0 0 16 16" fill="none" xmlns="http://www.w3.org/2000/svg">
<path d="M3.83325 3.89999H5.04225V11.869H7.40825V13H3.83325V3.89999Z" fill="#5FB865"/>
<path d="M8.08618 13V3.89999H10.1207C10.6493 3.89999 11.0892 4.04083 11.4402 4.32249C11.7955 4.59983 12.0598 5.02666 12.2332 5.60299C12.4108 6.17499 12.4997 6.90299 12.4997 7.78699V9.11299C12.4997 9.99699 12.4108 10.7272 12.2332 11.3035C12.0598 11.8755 11.7977 12.3023 11.4467 12.584C11.0957 12.8613 10.6558 13 10.1272 13H8.08618ZM10.1207 11.8755C10.3677 11.8755 10.5735 11.778 10.7382 11.583C10.9072 11.3837 11.0328 11.0825 11.1152 10.6795C11.1975 10.2722 11.2387 9.74999 11.2387 9.11299V7.78699C11.2387 7.14999 11.1975 6.62999 11.1152 6.22699C11.0328 5.81966 10.9072 5.51849 10.7382 5.32349C10.5735 5.12416 10.3677 5.02449 10.1207 5.02449H9.30818V11.8755H10.1207Z" fill="#5FB865"/>
</svg>
