<svg width="16" height="16" viewBox="0 0 16 16" fill="none" xmlns="http://www.w3.org/2000/svg">
<path d="M3.83301 3.89999H5.04201V11.869H7.40801V13H3.83301V3.89999Z" fill="#57965C"/>
<path d="M8.08594 13V3.89999H10.1204C10.6491 3.89999 11.0889 4.04083 11.4399 4.32249C11.7953 4.59983 12.0596 5.02666 12.2329 5.60299C12.4106 6.17499 12.4994 6.90299 12.4994 7.78699V9.11299C12.4994 9.99699 12.4106 10.7272 12.2329 11.3035C12.0596 11.8755 11.7974 12.3023 11.4464 12.584C11.0954 12.8613 10.6556 13 10.1269 13H8.08594ZM10.1204 11.8755C10.3674 11.8755 10.5733 11.778 10.7379 11.583C10.9069 11.3837 11.0326 11.0825 11.1149 10.6795C11.1973 10.2722 11.2384 9.74999 11.2384 9.11299V7.78699C11.2384 7.14999 11.1973 6.62999 11.1149 6.22699C11.0326 5.81966 10.9069 5.51849 10.7379 5.32349C10.5733 5.12416 10.3674 5.02449 10.1204 5.02449H9.30794V11.8755H10.1204Z" fill="#57965C"/>
</svg>
