<svg width="16" height="16" viewBox="0 0 16 16" fill="none" xmlns="http://www.w3.org/2000/svg">
<path d="M11 2C11.5523 2 12 2.44772 12 3V9H6C5.44772 9 5 9.44772 5 10V14C4.44772 14 4 13.5523 4 13V6H6C7.10457 6 8 5.10457 8 4V2H11Z" fill="#253627"/>
<path d="M7 4C7 4.06893 6.99277 4.13617 6.97949 4.20117C6.88625 4.65686 6.48325 5 6 5H4.41406L7 2.41406V4Z" fill="#253627"/>
<path fill-rule="evenodd" clip-rule="evenodd" d="M11 1C12.1046 1 13 1.89543 13 3V9H12V3C12 2.44772 11.5523 2 11 2H8V4C8 5.10457 7.10457 6 6 6H4V13C4 13.5523 4.44772 14 5 14V15C3.89543 15 3 14.1046 3 13V5.41406C3.00004 5.1489 3.10547 4.89453 3.29297 4.70703L6.70703 1.29297C6.89453 1.10547 7.1489 1.00004 7.41406 1H11ZM4.41406 5H6C6.55228 5 7 4.55228 7 4V2.41406L4.41406 5Z" fill="#57965C"/>
<path d="M7.41211 15.0488H9.9541V16H6.38672V10.0137H7.41211V15.0488Z" fill="#CED0D6"/>
<path fill-rule="evenodd" clip-rule="evenodd" d="M12.8535 10.0137C13.2579 10.0137 13.6082 10.0902 13.9033 10.2432C14.204 10.3962 14.4366 10.6128 14.6006 10.8916C14.7645 11.1704 14.8467 11.5012 14.8467 11.8838V14.1221C14.8467 14.4992 14.7645 14.83 14.6006 15.1143C14.4366 15.3931 14.204 15.612 13.9033 15.7705C13.6081 15.9235 13.258 16 12.8535 16H11.0742V10.0137H12.8535ZM12.0996 15.0566H12.8535C13.1487 15.0566 13.3837 14.9745 13.5586 14.8105C13.7335 14.6411 13.8213 14.4118 13.8213 14.1221V11.8838C13.8213 11.5995 13.7335 11.3749 13.5586 11.2109C13.3837 11.0417 13.1485 10.957 12.8535 10.957H12.0996V15.0566Z" fill="#CED0D6"/>
</svg>
