<svg width="16" height="16" viewBox="0 0 16 16" fill="none" xmlns="http://www.w3.org/2000/svg">
<path fill-rule="evenodd" clip-rule="evenodd" d="M3.71429 2C2.76751 2 2 2.76751 2 3.71429V12.2857C2 13.2325 2.76751 14 3.71429 14H12.2857C13.2325 14 14 13.2325 14 12.2857V3.71429C14 2.76751 13.2325 2 12.2857 2H3.71429ZM10.5364 5.97324L11.1859 4.6595C11.1859 4.6595 7.15685 2.76159 5.71493 4.34448C5.06653 5.05627 4.98049 5.5476 5 6.66369V9.60411C4.98287 10.3888 5.01239 11.2228 6.15818 11.9452C7.82003 12.993 11.1926 11.2883 11.1926 11.2883L10.5363 10.0349C10.5363 10.0349 7.96077 11.0606 7.25665 10.6181C6.70125 10.269 6.7067 10 6.7067 9.04292L6.70383 6.7721C6.7067 6.07812 6.68497 5.60091 7.20154 5.38347C8.17269 4.97468 10.5364 5.97324 10.5364 5.97324Z" fill="#57965C"/>
</svg>
