<svg width="16" height="16" viewBox="0 0 16 16" xmlns="http://www.w3.org/2000/svg">
  <path fill="#43454A" d="M3 11.5C3 10.121 4.122 9 5.5 9h4c1.03 0 1.911.629 2.293 1.521l.349-.109a2.48 2.48 0 0 1 1.31-.408h1.049V5.999a1.5 1.5 0 0 0-1.5-1.5H8.193l-1.892-2h-3.3a1.5 1.5 0 0 0-1.5 1.5v8a1.5 1.5 0 0 0 1 1.415l.5-.156v-1.759L3 11.5Z"/>
  <path fill="none" stroke="#CED0D6" stroke-linecap="round" stroke-linejoin="round" d="M14.5 9.678V6A1.5 1.5 0 0 0 13 4.5H8.192L6.3 2.5H3A1.5 1.5 0 0 0 1.5 4v8a1.5 1.5 0 0 0 1 1.415"/>
  <path fill="#25324D" stroke="#548AF7" stroke-miterlimit="10" d="M9.5 10.5h-4a1 1 0 0 0-1 1v2a1 1 0 0 0 1 1h4a1 1 0 0 0 1-1v-2a1 1 0 0 0-1-1Zm4 3a1 1 0 1 0 0-2 1 1 0 0 0 0 2Z"/>
  <path fill="none" stroke="#548AF7" stroke-miterlimit="10" d="M12.5 12.5h-2"/>
</svg>
