<svg width="16" height="16" viewBox="0 0 16 16" xmlns="http://www.w3.org/2000/svg">
  <path fill="#9aa7b0" d="M13 2H8c-1.1 0-2 .9-2 2v1H3.908A1.495 1.495 0 0 0 1 5.5a1.495 1.495 0 0 0 2.908.5H6v1c0 1.1.9 2 2 2h5c1.1 0 2-.9 2-2V4c0-1.1-.9-2-2-2ZM2.5 6a.5.5 0 1 1 0-1 .5.5 0 0 1 0 1ZM14 7c0 .552-.449 1-1 1H8c-.551 0-1-.448-1-1V4c0-.552.449-1 1-1h5c.551 0 1 .448 1 1v3Z"/>
  <path fill="#40B6E0" fill-opacity=".7" d="M0 9h7v7H0z"/>
  <path fill="#fff" d="M6 14H5v-2.293l-3.297 3.297-.707-.707L4.293 11H2v-1h4v4z"/>
</svg>
