<svg width="16" height="16" viewBox="0 0 16 16" xmlns="http://www.w3.org/2000/svg">
  <path fill="#9AA7B0" fill-opacity=".8" d="M3 11.5C3 10.121 4.121 9 5.5 9h4c1.074 0 1.991.681 2.345 1.633A2.49 2.49 0 0 1 13.5 10c.565 0 1.081.195 1.5.512V4H7.985L6.697 2.711A2.796 2.796 0 0 0 4.98 2H1.051A.051.051 0 0 0 1 2.051V13h2v-1.5Z"/>
  <path fill="#40b6e0" d="M13.5 11c-.651 0-1.201.419-1.408 1H11v-.5c0-.827-.673-1.5-1.5-1.5h-4c-.827 0-1.5.673-1.5 1.5v2c0 .827.673 1.5 1.5 1.5h4c.827 0 1.5-.673 1.5-1.5V13h1.092c.207.581.757 1 1.408 1 .827 0 1.5-.673 1.5-1.5s-.673-1.5-1.5-1.5ZM10 13.5c0 .275-.225.5-.5.5h-4a.501.501 0 0 1-.5-.5v-2c0-.275.225-.5.5-.5h4c.275 0 .5.225.5.5v2Zm3.5-.5c-.275 0-.5-.225-.5-.5s.225-.5.5-.5.5.225.5.5-.225.5-.5.5Z"/>
</svg>
