<svg width="16" height="16" viewBox="0 0 16 16" xmlns="http://www.w3.org/2000/svg">
    <path fill="#40b6e0" d="M7.302 12.808a1.363 1.363 0 0 1-.502-.523l-.425-.785-.8.383a1.365 1.365 0 0 1-.953.084c-.056-.016-.101-.052-.154-.074l-.904 1.999 3.186 1.109.585-2.178c-.01-.006-.022-.008-.033-.014Zm3.716-.788c-.203 0-.403-.045-.586-.132l-.807-.388-.424.783c-.117.217-.29.398-.502.524-.011.006-.023.008-.034.014L9.25 15l3.187-1.109-.9-1.989a1.374 1.374 0 0 1-.52.118Z"/>
    <path fill="#f4af3d" d="m13.141 7.842-1.129-1.081a.36.36 0 0 1 0-.522l1.127-1.085a.346.346 0 0 0 .028-.471.348.348 0 0 0-.221-.124l-1.549-.211a.36.36 0 0 1-.307-.421l.278-1.538a.349.349 0 0 0-.251-.394.347.347 0 0 0-.249.027l-1.377.739a.364.364 0 0 1-.5-.161l-.679-1.4c-.038-.079-.104-.141-.185-.172s-.172-.032-.253 0-.148.094-.185.172L7.01 2.6a.363.363 0 0 1-.209.191.36.36 0 0 1-.293-.026l-1.377-.739a.347.347 0 0 0-.451.121.349.349 0 0 0-.049.246l.277 1.538a.355.355 0 0 1-.13.346.35.35 0 0 1-.177.075l-1.548.211a.349.349 0 0 0-.193.595l1.129 1.081a.36.36 0 0 1 0 .522L2.86 7.842a.346.346 0 0 0-.028.471.348.348 0 0 0 .221.124l1.548.211a.36.36 0 0 1 .311.426l-.278 1.538a.349.349 0 0 0 .251.394.347.347 0 0 0 .249-.027l1.377-.739a.364.364 0 0 1 .5.161l.679 1.4a.346.346 0 0 0 .623 0l.682-1.404a.359.359 0 0 1 .311-.205.366.366 0 0 1 .189.044l1.377.739a.347.347 0 0 0 .451-.121.349.349 0 0 0 .049-.246l-.278-1.538a.355.355 0 0 1 .13-.346.35.35 0 0 1 .177-.075l1.548-.211a.349.349 0 0 0 .193-.595ZM8 8.5a2 2 0 1 1-.001-3.999A2 2 0 0 1 8 8.5Z"/>
</svg>
