<svg width="16" height="16" viewBox="0 0 16 16" xmlns="http://www.w3.org/2000/svg">
  <path fill="#2F2936" stroke="#955AE0" stroke-miterlimit="10" d="M15.5 11.5v-7a2 2 0 0 0-2-2h-11a2 2 0 0 0-2 2v7a2 2 0 0 0 2 2h11a2 2 0 0 0 2-2Z"/>
  <path fill="#955AE0" d="M12.023 5.966v-1.13h.873v1.126h1.096v.852h-1.096v1.142h-.873V6.818h-1.135v-.852h1.135Zm-1.899 3.2v-1.13h.872v1.126h1.097v.852h-1.097v1.142h-.872v-1.137H8.988v-.853h1.136ZM2.672 8c0-1.64 1.166-2.896 2.8-2.896 1.306 0 2.473.895 2.592 2.06h-.968C6.954 6.559 6.283 6 5.468 6 4.376 6 3.68 6.893 3.68 8c0 1.133.718 2 1.788 2 .82 0 1.486-.557 1.628-1.152h.968c-.109 1.067-1.188 2.049-2.592 2.049-1.625 0-2.8-1.246-2.8-2.896V8Z"/>
</svg>
