<svg width="16" height="16" viewBox="0 0 16 16" xmlns="http://www.w3.org/2000/svg">
  <path fill="#f4f4f4" d="M0 1h14v12H0V1Z"/>
  <path fill="#323232" d="M1 2h12v10H1V2Z"/>
  <path fill="#323232" d="M1 2h12v3H1V2Z"/>
  <path fill="#ebebeb" d="M2 5h11v7H2V5Z"/>
  <path fill="#f4f4f4" d="M16 9h-.783l.172-2h-5.01l-.07.819-.265-.188A4.304 4.304 0 0 0 7.726 7C3.9 7 3.043 9.436 3 11.521 3.043 13.564 3.9 16 7.726 16a4.716 4.716 0 0 0 1.916-.4l-.035.4h5.01l.172-2h.872L16 10.048V9Z"/>
  <path fill="#388a34" d="M5.664 11.5c.02 2.2 1.744 2.222 2.024 2.222a3.031 3.031 0 0 0 1.781-.581v1.412A3.377 3.377 0 0 1 7.73 15c-1.06 0-3.65-.03-3.723-3.5C4.08 8.03 6.67 8 7.73 8a3.377 3.377 0 0 1 1.739.447v1.412a3.031 3.031 0 0 0-1.781-.581c-.28 0-2.004.022-2.024 2.222Zm8.379-.5-.086 1h.872l-.086 1h-.872l-.171 2h-1l.171-2h-1l-.171 2h-1l.171-2H10l.086-1h.871l.086-1h-.872l.086-1h.872l.171-2h1l-.171 2h1l.171-2h1l-.171 2H15l-.086 1h-.871Zm-1 0h-1l-.086 1h1l.086-1Z"/>
  <path fill="#f4f4f4" d="M12 7.875c-1.333 0-2.844 0-3.526-1.396-.22-.451-.17-.964.085-1.356l-.879-.878a1.38 1.38 0 0 1-.002-1.943c.184-.185.41-.31.656-.368C8.776.427 9.962.125 12 .125c3.078 0 3.875.797 3.875 3.875S15.078 7.875 12 7.875Z"/>
  <path fill="#c7781a" d="M14.875 4c0 2.525-.35 2.875-2.875 2.875-1.376 0-2.239-.04-2.628-.835a.375.375 0 1 1 .674-.33c.161.33.562.415 1.954.415 2.105 0 2.125-.02 2.125-2.125S14.105 1.875 12 1.875c-1.792 0-2.07.027-2.114 1.328l.196-.196a.377.377 0 0 1 .531 0 .377.377 0 0 1 0 .531l-.848.848a.377.377 0 0 1-.532 0l-.848-.848a.377.377 0 0 1 0-.531.377.377 0 0 1 .531 0l.225.225c.091-1.824.617-2.107 2.857-2.107 2.525 0 2.875.35 2.875 2.875ZM12 2.447a.375.375 0 0 0-.375.375V4c0 .131.068.253.181.321l1.05.635a.374.374 0 0 0 .515-.127.378.378 0 0 0-.127-.516l-.869-.525v-.966A.375.375 0 0 0 12 2.447Z"/>
</svg>
