<svg width="16" height="16" viewBox="0 0 16 16" xmlns="http://www.w3.org/2000/svg">
  <path fill="#F2FCF3" d="M13.5 2.5h-11a2 2 0 0 0-2 2v7a2 2 0 0 0 2 2h2.125c0-.232.059-.452.161-.645l-.383-.383a1.38 1.38 0 0 1-.002-1.943l.85-.85c.26-.26.605-.402.973-.402a1.37 1.37 0 0 1 1.27.847h.507c2.618 0 3.375.757 3.375 3.375h2.125a2 2 0 0 0 2-2v-7a2 2 0 0 0-2-2L13.5 2.5Z"/>
  <path fill="none" stroke="#369650" stroke-linecap="round" stroke-miterlimit="10" d="M4.125 13.5H2.5a2 2 0 0 1-2-2v-7a2 2 0 0 1 2-2h11a2 2 0 0 1 2 2v7a2 2 0 0 1-2 2h-1.625"/>
  <path fill="#FFF4EB" d="M6 13.5c0-1.855.145-2 2-2s2 .145 2 2-.145 2-2 2-2-.145-2-2Z"/>
  <path fill="none" stroke="#E66D17" stroke-linecap="round" stroke-linejoin="round" stroke-width=".75" d="M8 12.557v.943l.84.508m-2.616-3.356-.848.848.848.848"/>
  <path fill="none" stroke="#E66D17" stroke-linecap="round" stroke-linejoin="round" stroke-width=".75" d="M5.876 11.5H8c1.855 0 2 .145 2 2s-.145 2-2 2-2-.145-2-2"/>
  <path fill="#369650" d="M6.996 8.848a1.317 1.317 0 0 1-.29.525c.181.068.349.167.49.307.099.1.163.219.226.338a2.05 2.05 0 0 0 .542-1.17h-.968Zm-2.595 1.681.572-.572C4.118 9.77 3.58 8.976 3.58 8c0-1.107.696-2 1.788-2 .815 0 1.485.559 1.628 1.164h.968c-.118-1.165-1.286-2.06-2.592-2.06-1.634 0-2.8 1.255-2.8 2.896 0 1.256.682 2.273 1.723 2.69.039-.052.059-.113.106-.161Zm9.076-3.189v-.72h-.788l.304-1.42h-.796l-.304 1.424h-1.192l.305-1.424h-.797l-.304 1.428h-.979v.72h.823L9.47 8.664h-.944v.72h.788l-.176.819c.284.039.536.1.757.179l.214-1.002h1.192l-.305 1.42h.796l.305-1.424h.979v-.72h-.824l.28-1.316h.945Zm-2.021 1.32h-1.191l.279-1.316h1.192l-.28 1.316Z"/>
</svg>
