<svg width="16" height="16" viewBox="0 0 16 16" xmlns="http://www.w3.org/2000/svg">
  <path fill="#62b543" d="M5.664 11.5c0 2.2 1.744 2.222 2.024 2.222.64 0 1.264-.204 1.781-.581v1.412A3.437 3.437 0 0 1 7.73 15c-1.06-.009-3.723-.029-3.723-3.5S6.67 8.009 7.73 8a3.437 3.437 0 0 1 1.739.447v1.412a3.031 3.031 0 0 0-1.781-.581c-.28 0-2.024.022-2.024 2.222Zm8.379-.5-.086 1h.872l-.086 1h-.872l-.171 2h-1l.171-2h-1l-.171 2h-1l.171-2H10l.086-1h.871l.086-1h-.872l.086-1h.872l.171-2h1l-.171 2h1l.171-2h1l-.171 2H15l-.086 1h-.871Zm-1 0h-1l-.086 1h1l.086-1Z"/>
  <path fill="#d9a343" d="M12 2.447a.375.375 0 0 0-.375.375V4c0 .131.068.253.181.321l1.05.635a.374.374 0 0 0 .515-.127.378.378 0 0 0-.127-.516l-.869-.525v-.966A.375.375 0 0 0 12 2.447Z"/>
  <path fill="#d9a343" d="M12 1.125H9.982l.207-.207a.377.377 0 0 0 0-.531.377.377 0 0 0-.531 0l-.848.848a.377.377 0 0 0 0 .531l.848.848a.377.377 0 0 0 .532 0 .377.377 0 0 0 0-.531l-.207-.207h2.018c2.105 0 2.125.02 2.125 2.125s-.02 2.125-2.125 2.125-2.125-.02-2.125-2.125a.375.375 0 0 0-.75 0c0 2.525.35 2.875 2.875 2.875s2.875-.35 2.875-2.875-.35-2.875-2.875-2.875Z"/>
  <path fill="#9aa7b0" d="M8.125 4c0-.412.183-.783.471-1.035l-.492-.492A1.373 1.373 0 0 1 7.8 2H1v10h2v-1H2V5h6.163a12.191 12.191 0 0 1-.038-1Z"/>
</svg>
