<svg xmlns:xlink="http://www.w3.org/1999/xlink" width="16" height="16" viewBox="0 0 16 16" xmlns="http://www.w3.org/2000/svg">
  <defs>
    <linearGradient id="b" x1="-327.179" x2="-327.179" y1="-566.752" y2="-567.746" gradientTransform="matrix(14 0 0 -12 4587.5 -6800)" gradientUnits="userSpaceOnUse">
      <stop offset="0" stop-color="#576a80"/>
      <stop offset="1" stop-color="#2d3742"/>
    </linearGradient>
    <linearGradient id="a" x1="-319.792" x2="-318.792" y1="-582.6" y2="-582.6" gradientTransform="matrix(12 0 0 -10 3838.5 -5819)" gradientUnits="userSpaceOnUse">
      <stop offset="0" stop-color="#fff"/>
      <stop offset="1" stop-color="#a6bada"/>
    </linearGradient>
    <linearGradient id="c" x1="-319.792" x2="-318.792" y1="-797.5" y2="-797.5" gradientTransform="matrix(12 0 0 -3 3838.5 -2389)" gradientUnits="userSpaceOnUse">
      <stop offset="0" stop-color="#6e96e6"/>
      <stop offset="1" stop-color="#2f62c7"/>
    </linearGradient>
    <linearGradient xlink:href="#a" id="d" x1="-314.273" x2="-314.273" y1="-621.571" y2="-622.582" gradientTransform="matrix(11 0 0 -7 3464.5 -4346)"/>
    <linearGradient id="e" x1="-323.538" x2="-323.538" y1="-592.333" y2="-593.333" gradientTransform="matrix(13 0 0 -9.001 4215.5 -5324.327)" gradientUnits="userSpaceOnUse">
      <stop offset="0" stop-color="#204f1d"/>
      <stop offset="1" stop-color="#358432"/>
    </linearGradient>
    <linearGradient id="f" x1="-314.234" x2="-314.234" y1="-621.582" y2="-622.572" gradientTransform="matrix(10.993 0 0 -7.001 3463.882 -4343.502)" gradientUnits="userSpaceOnUse">
      <stop offset="0" stop-color="#d2ffd0"/>
      <stop offset="1" stop-color="#8ce788"/>
    </linearGradient>
    <linearGradient id="g" x1="11.577" x2="11.577" y1=".125" y2="7.875" gradientUnits="userSpaceOnUse">
      <stop offset="0" stop-color="#996200"/>
      <stop offset="1" stop-color="#472e01"/>
    </linearGradient>
    <linearGradient id="h" x1="11.576" x2="11.576" y1="1.125" y2="6.875" gradientUnits="userSpaceOnUse">
      <stop offset="0" stop-color="#ffe5b5"/>
      <stop offset="1" stop-color="#fb0"/>
    </linearGradient>
  </defs>
  <path fill="url(#b)" d="M0 1h14v12H0V1Z"/>
  <path fill="url(#a)" d="M1 2h12v10H1V2Z"/>
  <path fill="url(#c)" d="M1 2h12v3H1V2Z"/>
  <path fill="url(#d)" d="M2 5h11v7H2V5Z"/>
  <path fill="url(#e)" d="M16 9h-.783l.172-2h-5.01l-.07.819-.265-.188A4.304 4.304 0 0 0 7.726 7C3.9 7 3.043 9.436 3 11.521 3.043 13.564 3.9 16 7.726 16a4.716 4.716 0 0 0 1.916-.4l-.035.4h5.01l.172-2h.872L16 10.048V9Z"/>
  <path fill="url(#f)" d="M5.664 11.5c.02 2.2 1.744 2.222 2.024 2.222a3.031 3.031 0 0 0 1.781-.581v1.412A3.377 3.377 0 0 1 7.73 15c-1.06 0-3.65-.03-3.723-3.5C4.08 8.03 6.67 8 7.73 8a3.377 3.377 0 0 1 1.739.447v1.412a3.031 3.031 0 0 0-1.781-.581c-.28 0-2.004.022-2.024 2.222Zm8.379-.5-.086 1h.872l-.086 1h-.872l-.171 2h-1l.171-2h-1l-.171 2h-1l.171-2H10l.086-1h.871l.086-1h-.872l.086-1h.872l.171-2h1l-.171 2h1l.171-2h1l-.171 2H15l-.086 1h-.871Zm-1 0h-1l-.086 1h1l.086-1Z"/>
  <path fill="url(#g)" d="M12 7.875c-1.333 0-2.844 0-3.526-1.396-.22-.451-.17-.964.085-1.356l-.879-.878a1.38 1.38 0 0 1-.002-1.943c.184-.185.41-.31.656-.368C8.776.427 9.962.125 12 .125c3.078 0 3.875.797 3.875 3.875S15.078 7.875 12 7.875Z"/>
  <path fill="url(#h)" d="M14.875 4c0 2.525-.35 2.875-2.875 2.875-1.376 0-2.239-.04-2.628-.835a.375.375 0 1 1 .674-.33c.161.33.562.415 1.954.415 2.105 0 2.125-.02 2.125-2.125S14.105 1.875 12 1.875c-1.792 0-2.07.027-2.114 1.328l.196-.196a.377.377 0 0 1 .531 0 .377.377 0 0 1 0 .531l-.848.848a.377.377 0 0 1-.532 0l-.848-.848a.377.377 0 0 1 0-.531.377.377 0 0 1 .531 0l.225.225c.091-1.824.617-2.107 2.857-2.107 2.525 0 2.875.35 2.875 2.875ZM12 2.447a.375.375 0 0 0-.375.375V4c0 .131.068.253.181.321l1.05.635a.374.374 0 0 0 .515-.127.378.378 0 0 0-.127-.516l-.869-.525v-.966A.375.375 0 0 0 12 2.447Z"/>
</svg>
