<svg width="16" height="16" viewBox="0 0 16 16" xmlns="http://www.w3.org/2000/svg">
  <path fill="#253627" d="M13.5 2.5h-11a2 2 0 0 0-2 2v7a2 2 0 0 0 2 2h11a2 2 0 0 0 2-2v-7a2 2 0 0 0-2-2Z"/>
  <path fill="#43454A" d="M8 15.25a1.75 1.75 0 1 0 0-3.5 1.75 1.75 0 0 0 0 3.5Z"/>
  <path fill="none" stroke="#5FAD65" stroke-linecap="round" stroke-linejoin="round" d="M10.932 13.5H13.5a2 2 0 0 0 2-2v-7a2 2 0 0 0-2-2h-11a2 2 0 0 0-2 2v7a2 2 0 0 0 2 2h1.875"/>
  <path fill="#5FAD65" d="M2.572 8c0-1.64 1.166-2.896 2.8-2.896 1.306 0 2.473.895 2.592 2.06h-.968C6.854 6.559 6.183 6 5.368 6 4.276 6 3.58 6.893 3.58 8c0 1.133.718 2 1.788 2 .82 0 1.486-.557 1.628-1.152h.968c-.109 1.067-1.188 2.049-2.592 2.049-1.625 0-2.8-1.246-2.8-2.896V8Zm6.74 1.384h-.788v-.72h.944l.279-1.316h-.823v-.72h.979l.304-1.428h.797l-.305 1.424h1.192l.304-1.424h.796l-.304 1.42h.788v.72h-.944l-.28 1.316h.824v.72h-.979l-.305 1.424h-.796l.305-1.42h-1.192l-.304 1.42h-.796l.304-1.416Zm2.144-.724.28-1.316h-1.192l-.279 1.316h1.191Z"/>
  <path fill="none" stroke="#9DA0A8" stroke-linecap="round" stroke-linejoin="round" stroke-width=".75" d="M9.28 12.314A1.739 1.739 0 0 0 8 11.75a1.75 1.75 0 0 0 0 3.5c.507 0 .96-.219 1.28-.564"/>
  <path fill="#3574F0" d="M8 14.25a.75.75 0 1 0 0-1.5.75.75 0 0 0 0 1.5Z"/>
</svg>
