<svg width="16" height="16" viewBox="0 0 16 16" xmlns="http://www.w3.org/2000/svg">
  <path fill="#253627" stroke="#5FAD65" stroke-miterlimit="10" d="M15.5 11.5v-7a2 2 0 0 0-2-2h-11a2 2 0 0 0-2 2v7a2 2 0 0 0 2 2h11a2 2 0 0 0 2-2Z"/>
  <path fill="#5FAD65" d="M2.572 8c0-1.64 1.166-2.896 2.8-2.896 1.306 0 2.473.895 2.592 2.06h-.968C6.854 6.559 6.183 6 5.368 6 4.276 6 3.58 6.893 3.58 8c0 1.12.707 2 1.788 2 .807 0 1.483-.545 1.628-1.152h.968c-.119 1.167-1.302 2.049-2.592 2.049-1.625 0-2.8-1.246-2.8-2.896V8Zm6.74 1.384h-.788v-.72h.944l.279-1.316h-.823v-.72h.979l.304-1.428h.797l-.305 1.424h1.192l.304-1.424h.796l-.304 1.42h.788v.72h-.944l-.28 1.316h.824v.72h-.979l-.305 1.424h-.796l.305-1.42h-1.192l-.304 1.42h-.796l.304-1.416Zm2.144-.724.28-1.316h-1.192l-.279 1.316h1.191Z"/>
</svg>
