<!-- Copyright © 2000–2024 JetBrains s.r.o. -->
<svg width="16" height="16" viewBox="0 0 16 16" xmlns="http://www.w3.org/2000/svg">
  <path d="M13.49 13.92c-.21 0-.4-.13-.47-.34-.09-.26.05-.55.31-.64.4-.14.67-.52.67-.95v-6c0-.55-.45-1-1-1H8.19c-.14 0-.27-.06-.36-.16L6.09 2.99H3.01c-.55 0-1 .45-1 1v8c0 .43.27.81.67.95.26.09.4.38.31.64s-.38.4-.64.31A2 2 0 0 1 1 12V4c0-1.1.9-2 2-2h3.3c.14 0 .27.06.36.16L8.4 4h4.59c1.1 0 2 .9 2 2v6c0 .85-.54 1.61-1.35 1.89-.05.02-.11.03-.16.03Z"/>
  <path d="M4 8v5c0 1.31 2.01 2 4 2s4-.69 4-2V8c0-2.63-8-2.63-8 0m4-1c1.86 0 3 .65 3 1S9.86 9 8 9s-3-.65-3-1 1.14-1 3-1m0 7c-1.86 0-3-.65-3-1v-1.15c.77.42 1.88.65 3 .65s2.23-.22 3-.65V13c0 .35-1.14 1-3 1m0-2.5c-1.86 0-3-.65-3-1V9.35c.77.42 1.88.65 3 .65s2.23-.22 3-.65v1.15c0 .35-1.14 1-3 1"/>
</svg>
