<!-- Copyright © 2000–2024 JetBrains s.r.o. -->
<svg width="16" height="16" viewBox="0 0 16 16" xmlns="http://www.w3.org/2000/svg">
  <path d="M2 4.5V9h1v-.73c.5.31 1.17.55 1.93.73H6c.26 0 .5.11.68.27.43.04.88.06 1.32.06 1.93 0 3.87-.36 5-1.06v.89c0 .6-1.99 1.5-5 1.5-.35 0-.68-.01-1-.04v1c.33.02.67.04 1 .04 1.93 0 3.87-.36 5-1.06v.89c0 .6-1.99 1.5-5 1.5-.35 0-.68-.01-1-.04v1c.33.02.67.03 1 .03 2.98 0 6-.86 6-2.5v-7c0-3.28-12-3.28-12 0Zm11 2.33c0 .6-1.99 1.5-5 1.5s-5-.9-5-1.5v-.89C4.13 6.64 6.07 7 8 7s3.87-.36 5-1.06zM8 6c-3.01 0-5-.9-5-1.5S4.99 3 8 3s5 .9 5 1.5S11.01 6 8 6"/>
  <path d="M5.96 10.31A.51.51 0 0 0 5.5 10h-3c-.28 0-.5.22-.5.5s.22.5.5.5h1.79l-3.15 3.15c-.2.2-.2.51 0 .71a.485.485 0 0 0 .7 0l3.15-3.15v1.79c0 .28.22.5.5.5s.5-.22.5-.5v-3c0-.07-.01-.13-.04-.19Z"/>
</svg>
