<!-- Copyright © 2000–2024 JetBrains s.r.o. -->
<svg width="16" height="16" viewBox="0 0 16 16" xmlns="http://www.w3.org/2000/svg">
  <path fill="#EBECF0" d="M8 2.5c-3.04 0-5.5.9-5.5 2v7c0 1.1 2.46 2 5.5 2s5.5-.9 5.5-2v-7c0-1.1-2.46-2-5.5-2"/>
  <path fill="none" stroke="#6C707E" stroke-miterlimit="10" d="M8 6.5c3.038 0 5.5-.895 5.5-2s-2.462-2-5.5-2-5.5.895-5.5 2 2.462 2 5.5 2Zm5.5.33c0 1.1-2.46 2-5.5 2s-5.5-.9-5.5-2m11 2.34c0 1.1-2.46 2-5.5 2s-5.5-.9-5.5-2"/>
  <path fill="none" stroke="#6C707E" stroke-miterlimit="10" d="M2.5 4.5v7c0 1.1 2.46 2 5.5 2s5.5-.9 5.5-2v-7"/>
  <path fill="#3574F0" fill-rule="evenodd" d="M7 15c0 .55-.45 1-1 1H1c-.55 0-1-.45-1-1v-5c0-.55.45-1 1-1h5c.55 0 1 .45 1 1z"/>
  <path fill="none" stroke="#fff" stroke-linecap="round" stroke-linejoin="round" d="m1.5 14.5 4-4m-3 0h3v3"/>
</svg>
