<!-- Copyright © 2000–2024 JetBrains s.r.o. -->
<svg width="16" height="16" viewBox="0 0 16 16" xmlns="http://www.w3.org/2000/svg">
  <path fill="#f4f4f4" d="M1 15V3h6.59l2-2H16v14z"/>
  <path fill="#313131" d="M15 14V2h-5L8 4H2v10z"/>
  <path fill="#ebebeb" d="M3 6h11v7H3z"/>
  <path fill="#f4f4f4" d="M4.5 16C1.85 16 0 14.97 0 13.5v-4C0 8.03 1.85 7 4.5 7S9 8.03 9 9.5v4C9 14.97 7.15 16 4.5 16"/>
  <path fill="#388a34" d="M4.5 8C6.43 8 8 8.67 8 9.5S6.43 11 4.5 11 1 10.33 1 9.5 2.57 8 4.5 8m0 4c-1.52 0-2.8-.42-3.29-1-.13.16-.21.32-.21.5 0 .83 1.57 1.5 3.5 1.5S8 12.33 8 11.5c0-.18-.08-.34-.21-.5-.48.58-1.76 1-3.29 1m0 2c-1.52 0-2.8-.42-3.29-1-.13.16-.21.32-.21.5 0 .83 1.57 1.5 3.5 1.5S8 14.33 8 13.5c0-.18-.08-.34-.21-.5-.48.58-1.76 1-3.29 1"/>
</svg>
