<svg xmlns="http://www.w3.org/2000/svg" xmlns:xlink="http://www.w3.org/1999/xlink" width="16" height="16">
  <defs>
    <linearGradient id="c" x1="-55.884" y1="-14.699" x2="-55.884" y2="-15.687" gradientTransform="matrix(13.999 0 0 -13.001 791.317 -189.944)" gradientUnits="userSpaceOnUse">
      <stop offset="0" stop-color="#566980"/>
      <stop offset="1" stop-color="#2c3641"/>
    </linearGradient>
    <linearGradient id="a" x1="-51.938" y1="-34.995" x2="-50.95" y2="-34.995" gradientTransform="matrix(12 0 0 -8 626.4 -270.96)" gradientUnits="userSpaceOnUse">
      <stop offset="0" stop-color="#fff"/>
      <stop offset="1" stop-color="#a7bbdb"/>
    </linearGradient>
    <linearGradient id="d" x1="-45.24" y1="-41.862" x2="-45.24" y2="-42.852" gradientTransform="matrix(10 0 0 -7 461.4 -287.96)" xlink:href="#a"/>
    <linearGradient id="e" x1="-51.95" y1="-120.82" x2="-50.95" y2="-120.82" gradientTransform="matrix(12 0 0 -3 626.4 -358.96)" gradientUnits="userSpaceOnUse">
      <stop offset="0" stop-color="#6d97e7"/>
      <stop offset="1" stop-color="#2e61c8"/>
    </linearGradient>
    <linearGradient id="f" y1="11" x2="11" y2="11" gradientUnits="userSpaceOnUse">
      <stop offset="0" stop-color="#597f95"/>
      <stop offset="1" stop-color="#22464f"/>
    </linearGradient>
    <linearGradient id="b" x1="1" y1="9" x2="10" y2="9" gradientUnits="userSpaceOnUse">
      <stop offset="0" stop-color="#d3fffd"/>
      <stop offset="1" stop-color="#80d3ff"/>
    </linearGradient>
    <linearGradient id="g" y1="11.899" y2="11.899" xlink:href="#b"/>
    <linearGradient id="h" y1="13.899" y2="13.899" xlink:href="#b"/>
  </defs>
  <path d="M2,14H16V1H2Z" fill-rule="evenodd" fill="url(#c)"/>
  <path d="M3,13H15V5H3Z" fill-rule="evenodd" fill="url(#a)"/>
  <path d="M4,12H14V5H4Z" fill-rule="evenodd" fill="url(#d)"/>
  <path d="M3,5H15V2H3Z" fill-rule="evenodd" fill="url(#e)"/>
  <path d="M5.5,16C2.767,16,0,14.97,0,13V9C0,7.03,2.767,6,5.5,6S11,7.03,11,9v4C11,14.97,8.233,16,5.5,16Z" fill="url(#f)"/>
  <ellipse cx="5.5" cy="9" rx="4.5" ry="2" fill="url(#b)"/>
  <path d="M5.5,12A7.838,7.838,0,0,1,1,10.8V11c0,1.105,2.015,2,4.5,2s4.5-.895,4.5-2v-.2A7.838,7.838,0,0,1,5.5,12Z" fill="url(#g)"/>
  <path d="M5.5,14A7.838,7.838,0,0,1,1,12.8V13c0,1.105,2.015,2,4.5,2s4.5-.895,4.5-2v-.2A7.838,7.838,0,0,1,5.5,14Z" fill="url(#h)"/>
</svg>
