<!-- Copyright © 2000–2024 JetBrains s.r.o. -->
<svg width="16" height="16" viewBox="0 0 16 16" xmlns="http://www.w3.org/2000/svg">
  <defs>
    <linearGradient id="a" x1="-538.97" x2="-538.97" y1="189.5" y2="188.5" gradientTransform="matrix(15 0 0 -14 8093 2654)" gradientUnits="userSpaceOnUse">
      <stop offset="0" stop-color="#c28c21"/>
      <stop offset="1" stop-color="#634933"/>
    </linearGradient>
    <linearGradient id="b" x1="-533.04" x2="-533.04" y1="191.25" y2="190.25" gradientTransform="matrix(13 0 0 -12 6938 2297)" gradientUnits="userSpaceOnUse">
      <stop offset="0" stop-color="#ffe9bd"/>
      <stop offset="1" stop-color="#d4a24c"/>
    </linearGradient>
    <linearGradient id="c" x1="-524.95" x2="-524.95" y1="200" y2="199" gradientTransform="matrix(11 0 0 -7 5783 1406)" gradientUnits="userSpaceOnUse">
      <stop offset="0" stop-color="#b88143"/>
      <stop offset="1" stop-color="#8a4717"/>
    </linearGradient>
    <linearGradient id="d" x1="4.5" x2="4.5" y1="7.06" y2="15.95" gradientUnits="userSpaceOnUse">
      <stop offset="0" stop-color="#005439"/>
      <stop offset="1" stop-color="#007356"/>
    </linearGradient>
    <linearGradient id="e" x1="4.5" x2="4.5" y1="8" y2="15.07" gradientUnits="userSpaceOnUse">
      <stop offset="0" stop-color="#b3ffcc"/>
      <stop offset="1" stop-color="#10bf41"/>
    </linearGradient>
  </defs>
  <path fill="url(#a)" d="M1 15V3h6.59l2-2H16v14z"/>
  <path fill="url(#b)" d="M15 14V2h-5L8 4H2v10z"/>
  <path fill="url(#c)" d="M3 6h11v7H3z"/>
  <path fill="url(#d)" d="M4.5 16C1.85 16 0 14.97 0 13.5v-4C0 8.03 1.85 7 4.5 7S9 8.03 9 9.5v4C9 14.97 7.15 16 4.5 16"/>
  <path fill="url(#e)" d="M4.5 8C6.43 8 8 8.67 8 9.5S6.43 11 4.5 11 1 10.33 1 9.5 2.57 8 4.5 8m0 4c-1.52 0-2.8-.42-3.29-1-.13.16-.21.32-.21.5 0 .83 1.57 1.5 3.5 1.5S8 12.33 8 11.5c0-.18-.08-.34-.21-.5-.48.58-1.76 1-3.29 1m0 2c-1.52 0-2.8-.42-3.29-1-.13.16-.21.32-.21.5 0 .83 1.57 1.5 3.5 1.5S8 14.33 8 13.5c0-.18-.08-.34-.21-.5-.48.58-1.76 1-3.29 1"/>
</svg>
