<!-- Copyright © 2000–2024 JetBrains s.r.o. -->
<svg width="16" height="16" viewBox="0 0 16 16" xmlns="http://www.w3.org/2000/svg">
  <path fill="#EBECF0" d="M13.49 13.42c.59-.2 1.01-.76 1.01-1.42V6c0-.83-.67-1.5-1.5-1.5H8.19l-1.89-2H3c-.83 0-1.5.67-1.5 1.5v8c0 .66.42 1.21 1.01 1.42"/>
  <path fill="none" stroke="#6C707E" stroke-linecap="round" stroke-linejoin="round" d="M13.49 13.42c.59-.2 1.01-.76 1.01-1.42V6c0-.83-.67-1.5-1.5-1.5H8.19l-1.89-2H3c-.83 0-1.5.67-1.5 1.5v8c0 .66.42 1.21 1.01 1.42"/>
  <path fill="#EBECF0" fill-rule="evenodd" stroke="#6C707E" stroke-linecap="round" stroke-linejoin="round" d="M11.5 8v5c0 .83-1.57 1.5-3.5 1.5s-3.5-.67-3.5-1.5V8c0-.83 1.57-1.5 3.5-1.5s3.5.67 3.5 1.5"/>
  <path fill="none" stroke="#6C707E" stroke-miterlimit="10" d="M11.5 8c0 .83-1.57 1.5-3.5 1.5S4.5 8.83 4.5 8m7 2.5c0 .83-1.57 1.5-3.5 1.5s-3.5-.67-3.5-1.5"/>
</svg>
