<!-- Copyright © 2000–2024 JetBrains s.r.o. -->
<svg width="16" height="16" viewBox="0 0 16 16" xmlns="http://www.w3.org/2000/svg">
  <path fill="#242424" d="M8 15c-3.48 0-7-.93-7-3V3C1 .93 4.52 0 8 0s7 .93 7 3v9c0 2.07-3.52 3-7 3"/>
  <path fill="#8dcf8d" d="M8 1c3.31 0 6 .9 6 2s-2.69 2-6 2-6-.9-6-2 2.69-2 6-2m5.7 9.88c-.79.8-3.04 1.38-5.7 1.38s-4.91-.58-5.7-1.38c-.19.2-.3.41-.3.62v.5c0 1.1 2.69 2 6 2s6-.9 6-2v-.5c0-.22-.11-.43-.3-.62m0-3c-.79.8-3.04 1.38-5.7 1.38s-4.91-.58-5.7-1.38c-.19.2-.3.41-.3.62V9c0 1.1 2.69 2 6 2s6-.9 6-2v-.5c0-.22-.11-.43-.3-.62m0-3c-.79.8-3.04 1.38-5.7 1.38s-4.91-.58-5.7-1.38c-.19.2-.3.41-.3.62V6c0 1.1 2.69 2 6 2s6-.9 6-2v-.5c0-.22-.11-.43-.3-.62"/>
  <path fill="#242424" fill-rule="evenodd" d="M9 16H0V7h9z"/>
  <path fill="#c4c4c4" fill-rule="evenodd" d="M8 15H1V8h7z"/>
  <path fill="#282828" fill-rule="evenodd" d="m3 9-1 1h2l.5.5L2 13v1h1l2.5-2.5.5.5v2l1-1V9z"/>
</svg>
