<svg width="16" height="16" viewBox="0 0 16 16" xmlns="http://www.w3.org/2000/svg">
  <path fill="#43454A" d="M14.107 2.5H6.892c-.769 0-1.393.623-1.393 1.393V5.5l.028 2H1.579C.983 7.5.5 7.983.5 8.579v3.843c0 .596.483 1.079 1.079 1.079h5.843c.569 0 1.036-.441 1.076-1v-2h5.61c.769 0 1.393-.624 1.393-1.393V3.893c0-.769-.624-1.393-1.394-1.393Z"/>
  <path fill="none" stroke="#CED0D6" stroke-linecap="round" stroke-linejoin="round" d="M5.5 5.5V3.893c0-.769.623-1.393 1.393-1.393h7.215c.769 0 1.393.623 1.393 1.393v5.215c0 .769-.623 1.393-1.393 1.393H6.893a1.392 1.392 0 0 1-1.336-1"/>
  <path fill="none" stroke="#CED0D6" stroke-linecap="round" stroke-linejoin="round" d="M8.497 12.5c-.04.559-.507 1-1.076 1H1.579A1.079 1.079 0 0 1 .5 12.421V8.578c0-.596.483-1.079 1.079-1.079h5.843c.569 0 1.036.441 1.076 1M7.5 4.5h6m-11 5h1"/>
</svg>
