<svg width="16" height="16" viewBox="0 0 16 16" xmlns="http://www.w3.org/2000/svg">
  <path fill="#9AA7B0" fill-opacity=".8" d="M7 1 3 5h4V1z"/>
  <path fill="#d9a343" d="M12.5 10.432a.45.45 0 0 0-.45.45V12.5c0 .146.072.284.192.369l1.36.951a.45.45 0 1 0 .516-.738l-1.168-.816v-1.384a.45.45 0 0 0-.45-.45Z"/>
  <path fill="#9AA7B0" fill-opacity=".8" d="M8.05 12.5v-.271a1.46 1.46 0 0 1 .458-1.045l-.658-.659a1.453 1.453 0 0 1 0-2.051l1.147-1.147c.273-.274.638-.425 1.025-.425s.752.15 1.025.425c.205.205.336.458.393.723 0 0 1.396.004 1.559.008V1h-5v5H3v9h5.328c-.199-.631-.277-1.446-.277-2.5Z"/>
  <path fill="#d9a343" d="M12.5 9.05H9.963l.379-.379a.45.45 0 1 0-.637-.637L8.558 9.181a.45.45 0 0 0 0 .637l1.147 1.147a.448.448 0 0 0 .636 0 .45.45 0 0 0 0-.637l-.379-.379h2.537c2.526 0 2.55.023 2.55 2.55s-.023 2.55-2.55 2.55-2.549-.023-2.549-2.55v-.257a.45.45 0 0 0-.9-.01v.267c0 3.031.418 3.45 3.45 3.45s3.45-.419 3.45-3.45-.419-3.45-3.45-3.45Z"/>
</svg>
