<svg width="16" height="16" viewBox="0 0 16 16" fill="none" xmlns="http://www.w3.org/2000/svg">
  <path fill-rule="evenodd" clip-rule="evenodd" d="M8.05 12.5V12.229C8.053 11.811 8.225 11.435 8.497 11.171L7.851 10.525C7.286 9.96 7.286 9.04 7.851 8.474L8.998 7.327C9.271 7.053 9.636 6.902 10.023 6.902C10.41 6.902 10.775 7.052 11.048 7.327C11.253 7.532 11.384 7.785 11.441 8.05H12.5V3C12.5 2.172 11.828 1.5 11 1.5H8.121C7.723 1.5 7.342 1.658 7.06 1.939L3.939 5.06C3.658 5.341 3.5 5.723 3.5 6.121V13C3.5 13.828 4.172 14.5 5 14.5H8.203C8.096 13.952 8.05 13.296 8.05 12.5Z" fill="#43454A"/>
  <path d="M7.5 1.75V4C7.5 4.828 6.828 5.5 6 5.5H3.75" stroke="#CED0D6" stroke-miterlimit="10" stroke-linecap="round"/>
  <path d="M12.5 7.55V3C12.5 2.172 11.828 1.5 11 1.5H8.121C7.723 1.5 7.342 1.658 7.06 1.939L3.939 5.06C3.658 5.341 3.5 5.723 3.5 6.121V13C3.5 13.828 4.172 14.5 5 14.5H7.699" stroke="#CED0D6" stroke-linecap="round" stroke-linejoin="round"/>
  <path d="M12.5 15.5C14.1569 15.5 15.5 14.1569 15.5 12.5C15.5 10.8431 14.1569 9.5 12.5 9.5C10.8431 9.5 9.5 10.8431 9.5 12.5C9.5 14.1569 10.8431 15.5 12.5 15.5Z" fill="#45322B"/>
  <path d="M12.5 10.882V12.5L13.86 13.451" stroke="#C77D55" stroke-width="0.9" stroke-linecap="round" stroke-linejoin="round"/>
  <path d="M10.024 8.35201L8.876 9.5L10.024 10.648" stroke="#C77D55" stroke-width="0.9" stroke-linecap="round" stroke-linejoin="round"/>
  <path d="M9.376 9.5H12.5C15.282 9.5 15.5 9.718 15.5 12.5C15.5 15.282 15.282 15.5 12.5 15.5C9.718 15.5 9.5 15.282 9.5 12.5C9.5 12.41 9.5 12.323 9.5 12.238" stroke="#C77D55" stroke-width="0.9" stroke-miterlimit="10" stroke-linecap="round"/>
</svg>
