<svg width="16" height="16" viewBox="0 0 16 16" xmlns="http://www.w3.org/2000/svg">
  <path fill="#242424" d="M16 14H2V1h14v13Z"/>
  <path fill="#c3c3c3" d="M3 13h12V5H3v8Z"/>
  <path fill="#292929" d="M14 12H4V5h10v7Z"/>
  <path fill="#c3c3c3" d="M15 5H3V2h12v3Z"/>
  <path fill="#252525" d="M6 6c-3.055 0-4.449.465-4.861 2.823a1.493 1.493 0 0 0-.886.43 1.486 1.486 0 0 0-.253.35v1.421c.068.126.149.246.253.35 0 0 1.23 1.229 1.253 1.249a1.502 1.502 0 0 0-.174 1.399C2.089 16 4.077 16 6 16c4.065 0 5-.935 5-5s-.935-5-5-5Z"/>
  <path fill="#e9a755" d="M10 11c0 3.514-.486 4-4 4-1.999 0-3.248-.064-3.734-1.335a.5.5 0 1 1 .934-.358c.216.562.739.692 2.801.692 2.972 0 3-.028 3-3s-.028-3-3-3c-2.71 0-2.971.031-2.997 2.289l.33-.33a.5.5 0 0 1 .707.707l-1.187 1.187a.498.498 0 0 1-.708 0L.959 10.665a.5.5 0 0 1 .707-.707l.342.342c.076-2.878.726-3.302 3.991-3.302 3.514 0 4 .486 4 4ZM6 8.851a.5.5 0 0 0-.5.5V11c0 .175.092.337.241.428l1.47.89a.5.5 0 1 0 .518-.856L6.5 10.718V9.351a.5.5 0 0 0-.5-.5Z"/>
</svg>
