<svg width="16" height="16" viewBox="0 0 16 16" xmlns="http://www.w3.org/2000/svg">
  <path fill="#9aa7b0" d="M2 5h4.755l.208-.208c.283-.283.66-.439 1.061-.439s.777.156 1.061.439c.064.064.115.136.165.208h3.751V2H1v10h4v-1H2V5Z"/>
  <path fill="#d9a343" d="M11 8.612a.5.5 0 0 0-.5.5V11c0 .163.08.316.214.41l1.587 1.109a.496.496 0 0 0 .696-.124.5.5 0 0 0-.124-.696l-1.373-.96V9.112a.5.5 0 0 0-.5-.5Z"/>
  <path fill="#d9a343" d="M11 7H7.583l.794-.794a.5.5 0 0 0-.707-.707L6.023 7.146a.5.5 0 0 0 0 .707L7.67 9.5a.498.498 0 0 0 .708 0 .5.5 0 0 0 0-.707l-.794-.794h3.417c2.972 0 3 .028 3 3s-.028 3-3 3-2.998-.027-3-2.972a.5.5 0 0 0-1 0c.002 3.489.488 3.972 4 3.972s4-.486 4-4-.486-4-4-4Z"/>
</svg>
