<svg width="16" height="16" viewBox="0 0 16 16" xmlns="http://www.w3.org/2000/svg">
  <path fill="#43454A" d="M8 12.5C8 10.019 10.019 8 12.5 8V3A1.5 1.5 0 0 0 11 1.5H8.121c-.398 0-.779.158-1.061.439L3.939 5.06A1.5 1.5 0 0 0 3.5 6.121V13A1.5 1.5 0 0 0 5 14.5h3.351v-.301A4.36 4.36 0 0 1 8 12.5Z"/>
  <path fill="none" stroke="#CED0D6" stroke-linecap="round" stroke-miterlimit="10" d="M7.5 1.75V4A1.5 1.5 0 0 1 6 5.5H3.75"/>
  <path fill="none" stroke="#CED0D6" stroke-linecap="round" stroke-linejoin="round" d="M12.5 7.5V3A1.5 1.5 0 0 0 11 1.5H8.121c-.398 0-.779.158-1.061.439L3.939 5.06A1.5 1.5 0 0 0 3.5 6.121V13A1.5 1.5 0 0 0 5 14.5h2.918"/>
  <path fill="#43454A" d="M14.693 14.534v-4.068A2.98 2.98 0 0 0 12.5 9.5a3 3 0 1 0 0 6c.869 0 1.646-.375 2.194-.966h-.001Z"/>
  <path fill="none" stroke="#CED0D6" stroke-linecap="round" stroke-linejoin="round" d="M14.693 10.466A2.98 2.98 0 0 0 12.5 9.5a3 3 0 1 0 0 6c.869 0 1.646-.376 2.193-.966"/>
  <path fill="#548AF7" d="M12.5 14a1.5 1.5 0 1 0 0-3 1.5 1.5 0 0 0 0 3Z"/>
</svg>
