<svg xmlns:xlink="http://www.w3.org/1999/xlink" width="16" height="16" viewBox="0 0 16 16" xmlns="http://www.w3.org/2000/svg">
  <defs>
    <linearGradient id="b" x1="-327.175" x2="-327.175" y1="-621.166" y2="-622.154" gradientTransform="matrix(13.999 0 0 -13 4589.125 -8074)" gradientUnits="userSpaceOnUse">
      <stop offset="0" stop-color="#566980"/>
      <stop offset="1" stop-color="#2d3641"/>
    </linearGradient>
    <linearGradient id="a" x1="-319.78" x2="-318.792" y1="-668.625" y2="-668.625" gradientTransform="matrix(12 0 0 -8 3840.5 -5340)" gradientUnits="userSpaceOnUse">
      <stop offset="0" stop-color="#fff"/>
      <stop offset="1" stop-color="#a7badb"/>
    </linearGradient>
    <linearGradient xlink:href="#a" id="c" x1="-308.25" x2="-308.25" y1="-685.602" y2="-686.592" gradientTransform="matrix(10 0 0 -6.999 3091.5 -4793.453)"/>
    <linearGradient id="d" x1="-319.792" x2="-318.792" y1="-872.058" y2="-872.058" gradientTransform="matrix(12 0 0 -3.001 3840.5 -2613.547)" gradientUnits="userSpaceOnUse">
      <stop offset="0" stop-color="#6d97e6"/>
      <stop offset="1" stop-color="#2f62c7"/>
    </linearGradient>
    <linearGradient id="e" x1="5.5" x2="5.5" y1="6" y2="16" gradientUnits="userSpaceOnUse">
      <stop offset="0" stop-color="#996200"/>
      <stop offset="1" stop-color="#472e01"/>
    </linearGradient>
    <linearGradient id="f" x1="5.407" x2="5.407" y1="7" y2="15" gradientUnits="userSpaceOnUse">
      <stop offset="0" stop-color="#ffe5b5"/>
      <stop offset="1" stop-color="#fb0"/>
    </linearGradient>
  </defs>
  <path fill="url(#b)" d="M2 14h13.999V1H2v13Z"/>
  <path fill="url(#a)" d="M3 13h12V5H3v8Z"/>
  <path fill="url(#c)" d="M4 12h10V5.001H4V12Z"/>
  <path fill="url(#d)" d="M3 5h12V1.999H3V5Z"/>
  <path fill="url(#e)" d="M6 6c-3.055 0-4.449.465-4.861 2.823a1.493 1.493 0 0 0-.886.43 1.486 1.486 0 0 0-.253.35v1.421c.068.126.149.246.253.35 0 0 1.23 1.229 1.253 1.249a1.502 1.502 0 0 0-.174 1.399C2.089 16 4.077 16 6 16c4.065 0 5-.935 5-5s-.935-5-5-5Z"/>
  <path fill="url(#f)" d="M10 11c0 3.514-.486 4-4 4-1.999 0-3.248-.064-3.734-1.335a.5.5 0 1 1 .934-.358c.216.562.739.692 2.801.692 2.972 0 3-.028 3-3s-.028-3-3-3c-2.71 0-2.971.031-2.997 2.289l.33-.33a.5.5 0 0 1 .707.707l-1.187 1.187a.498.498 0 0 1-.708 0L.959 10.665a.5.5 0 0 1 .707-.707l.342.342c.076-2.878.726-3.302 3.991-3.302 3.514 0 4 .486 4 4ZM6 8.851a.5.5 0 0 0-.5.5V11c0 .175.092.337.241.428l1.47.89a.5.5 0 1 0 .518-.856L6.5 10.718V9.351a.5.5 0 0 0-.5-.5Z"/>
</svg>
