<svg width="16" height="16" viewBox="0 0 16 16" xmlns="http://www.w3.org/2000/svg">
  <path fill="#9AA7B0" fill-opacity=".8" d="M7 1 3 5h4V1z"/>
  <path fill="#9aa7b0" d="M12.5 10c1.379 0 2.5 1.121 2.5 2.5S13.879 15 12.5 15 10 13.879 10 12.5s1.121-2.5 2.5-2.5Zm0-1a3.5 3.5 0 1 0 0 7 3.5 3.5 0 0 0 0-7Z"/>
  <circle cx="12.5" cy="12.5" r="1.5" fill="#40b6e0"/>
  <path fill="#9AA7B0" fill-opacity=".8" d="M8 12.5A4.5 4.5 0 0 1 12.5 8c.171 0 .334.032.5.05V1H8v5H3v9h5.76A4.478 4.478 0 0 1 8 12.5Z"/>
</svg>
