<!-- Copyright © 2000–2024 JetBrains s.r.o. -->
<svg width="16" height="16" viewBox="0 0 16 16" xmlns="http://www.w3.org/2000/svg">
  <path fill="#9aa7b0" fill-rule="evenodd" d="M7.98 4 6.69 2.71c-.47-.43-1.08-.68-1.72-.71H1.05S1 2.02 1 2.05v6.27c.44-.21.91-.32 1.37-.32.17 0 .35.03.53.07.09-.53.33-1.05.7-1.5.6-.71 1.44-1.14 2.3-1.19l.94-.05.11.94c.07.61-.07 1.25-.4 1.81.94.21 2.09.82 2.09 1.94 0 .62-.38 1-.61 1.22-.21.21-.29.29-.29.59 0 .34.03.36.33.53.19.11.5.3.71.64h6.21V4H7.97Z" opacity=".8"/>
  <path fill="#9aa7b0" d="M3.88 8.7c-.14-1.08.89-2.26 2.08-2.32.14 1.22-1.04 2.4-2.08 2.32M8 13.76c0-.68-1.25-.43-1.25-1.93 0-1.17.9-1.3.9-1.81C7.65 9.43 6.54 9 5.89 9c-.68 0-1.47.46-1.82.46-.3 0-1.21-.46-1.7-.46C1.19 9 0 9.94 0 11.74S1.46 16 2.51 16c.42 0 1.07-.39 1.68-.39s1.25.39 1.72.39C6.77 16 8 14.2 8 13.76"/>
</svg>
