<!-- Copyright © 2000–2024 JetBrains s.r.o. -->
<svg width="16" height="16" viewBox="0 0 16 16" xmlns="http://www.w3.org/2000/svg">
  <path fill="#f4f4f4" d="M1 15V3h6.59l2-2H16v14z"/>
  <path fill="#c7781a" d="M15 14V2h-5L8 4H2v10z"/>
  <path fill="#ebebeb" d="M3 6h11v7H3z"/>
  <path fill="#f4f4f4" d="M6.91 16c-.38 0-.72-.11-1.05-.22-.24-.08-.49-.17-.67-.17-.17 0-.43.09-.67.17-.32.11-.65.22-1.01.22C1.61 16 0 12.77 0 10.74 0 8.31 1.74 7 3.37 7c.17 0 .35.03.53.07.09-.53.33-1.05.7-1.5.6-.71 1.44-1.14 2.3-1.19l.94-.05.11.94c.07.61-.07 1.25-.4 1.81.94.21 2.09.82 2.09 1.94 0 .62-.38 1-.61 1.22-.21.21-.29.29-.29.59 0 .34.03.36.33.53.3.18.92.56.92 1.4 0 .96-1.62 3.24-3.09 3.24Z"/>
  <path fill="#323232" d="M4.88 7.7c-.14-1.08.89-2.26 2.08-2.32.14 1.22-1.04 2.4-2.08 2.32ZM9 12.76c0-.68-1.25-.43-1.25-1.93 0-1.17.9-1.3.9-1.81C8.65 8.43 7.54 8 6.89 8c-.68 0-1.47.46-1.82.46-.3 0-1.21-.46-1.7-.46C2.19 8 1 8.94 1 10.74S2.46 15 3.51 15c.42 0 1.07-.39 1.68-.39s1.25.39 1.72.39C7.77 15 9 13.2 9 12.76"/>
</svg>
