<!-- Copyright © 2000–2024 JetBrains s.r.o. -->
<svg width="16" height="16" viewBox="0 0 16 16" xmlns="http://www.w3.org/2000/svg">
  <defs>
    <linearGradient id="a" x1="-578.17" x2="-578.17" y1="227.5" y2="226.5" gradientTransform="matrix(15 0 0 -14 8681 3186)" gradientUnits="userSpaceOnUse">
      <stop offset="0" stop-color="#c28c21"/>
      <stop offset="1" stop-color="#634933"/>
    </linearGradient>
    <linearGradient id="b" x1="-571.81" x2="-571.81" y1="221.58" y2="220.59" gradientTransform="matrix(13 0 0 -12 7442 2661)" gradientUnits="userSpaceOnUse">
      <stop offset="0" stop-color="#ffe9bd"/>
      <stop offset="1" stop-color="#d4a24c"/>
    </linearGradient>
    <linearGradient id="c" x1="-563.14" x2="-563.14" y1="192" y2="191" gradientTransform="matrix(11 0 0 -7 6203 1350)" gradientUnits="userSpaceOnUse">
      <stop offset="0" stop-color="#b88143"/>
      <stop offset="1" stop-color="#8a4717"/>
    </linearGradient>
    <linearGradient id="d" x1="5.5" x2="5.5" y1="5.19" y2="16.15" gradientUnits="userSpaceOnUse">
      <stop offset="0" stop-color="#37627d"/>
      <stop offset="1" stop-color="#0e3852"/>
    </linearGradient>
    <linearGradient id="e" x1="5.5" x2="5.5" y1="6.16" y2="15.12" gradientUnits="userSpaceOnUse">
      <stop offset="0" stop-color="#b7f3ff"/>
      <stop offset="1" stop-color="#61c2ff"/>
    </linearGradient>
  </defs>
  <path fill="url(#a)" d="M1 15V3h6.59l2-2H16v14z"/>
  <path fill="url(#b)" d="M15 14V2h-5L8 4H2v10z"/>
  <path fill="url(#c)" d="M3 6h11v7H3z"/>
  <path fill="url(#d)" d="M0 6.1v8.8L9.94 16H11V5H9.94z"/>
  <path fill="url(#e)" d="M5.9 6.46v3.64H10V6zM1 10.1h4.1V6.54L1 7zm4.9 4.44L10 15v-4.1H5.9v3.64ZM1 14l4.1.46V10.9H1z"/>
</svg>
