<svg xmlns="http://www.w3.org/2000/svg" width="16" height="16">
  <defs>
    <linearGradient id="a" x1="8.5" y1="1.023" x2="8.5" y2="14.939" gradientUnits="userSpaceOnUse">
      <stop offset="0" stop-color="#c28c21"/>
      <stop offset="1" stop-color="#634933"/>
    </linearGradient>
    <linearGradient id="b" x1="8.5" y1="2.02" x2="8.5" y2="13.948" gradientUnits="userSpaceOnUse">
      <stop offset="0" stop-color="#ffe9bd"/>
      <stop offset="1" stop-color="#d4a24c"/>
    </linearGradient>
    <linearGradient id="c" x1="8.5" y1="6.012" x2="8.5" y2="12.97" gradientUnits="userSpaceOnUse">
      <stop offset="0" stop-color="#b88143"/>
      <stop offset="1" stop-color="#8a4717"/>
    </linearGradient>
    <linearGradient id="d" x1="5.5" y1="5.038" x2="5.5" y2="16.038" gradientUnits="userSpaceOnUse">
      <stop offset="0" stop-color="#0078da"/>
      <stop offset="1" stop-color="#002caf"/>
    </linearGradient>
    <linearGradient id="e" x1="5.5" y1="6.08" x2="5.5" y2="15.08" gradientUnits="userSpaceOnUse">
      <stop offset="0" stop-color="#ffe8ff"/>
      <stop offset="1" stop-color="#54d4ff"/>
    </linearGradient>
    <linearGradient id="f" x1="5.5" y1="7.024" x2="5.5" y2="14.024" gradientUnits="userSpaceOnUse">
      <stop offset="0" stop-color="#002caf"/>
      <stop offset="1" stop-color="#0078da"/>
    </linearGradient>
  </defs>
  <path fill="url(#a)" d="M1 15 1 3 7.586 3 9.586 1 16 1 16 15 1 15z"/>
  <path fill="url(#b)" d="M15 14 15 2 10 2 8 4 2 4 2 14 15 14z"/>
  <path fill="url(#c)" d="M3 6H14V13H3z"/>
  <g>
    <circle cx="5.5" cy="10.5" r="5.5" fill="url(#d)"/>
    <circle cx="5.5" cy="10.5" r="4.5" fill="url(#e)"/>
    <path d="M8.65,9H7V7.35A3.487,3.487,0,0,1,8.65,9ZM5.5,7a3.588,3.588,0,0,0-.5.05V9H6V7.05A3.588,3.588,0,0,0,5.5,7ZM5,10v1H6V10ZM2.35,9H4V7.35A3.487,3.487,0,0,0,2.35,9ZM2,10.5a3.443,3.443,0,0,0,.05.5H4V10H2.05A3.443,3.443,0,0,0,2,10.5Zm2,3.15V12H2.35A3.487,3.487,0,0,0,4,13.65ZM5.5,14a3.443,3.443,0,0,0,.5-.051V12H5v1.949A3.443,3.443,0,0,0,5.5,14Zm3.15-2H7v1.65A3.487,3.487,0,0,0,8.65,12ZM9,10.5a3.443,3.443,0,0,0-.05-.5H7v1H8.95A3.443,3.443,0,0,0,9,10.5Z" fill="url(#f)"/>
  </g>
</svg>
