<!-- Copyright © 2000–2024 JetBrains s.r.o. -->
<svg width="16" height="16" viewBox="0 0 16 16" xmlns="http://www.w3.org/2000/svg">
  <path fill="#f4f4f4" d="M1 15V3h6.59l2-2H16v14z"/>
  <path fill="#c7781a" d="M15 14V2h-5L8 4H2v10z"/>
  <path fill="#ebebeb" d="M3 6h11v7H3z"/>
  <circle cx="5.5" cy="10.5" r="5.5" fill="#f4f4f4"/>
  <path fill="#02509e" d="m7.24 8.41 1.03.55 1.42-.56-2.02-1.79zM6.05 9.93l1.62-3.32-2.55.82.25 2.36zm2.11 1.54-.21 1.15.98 1.18L10 11.32zm-1.82-.66 3.66.51-1.57-2.17-2.16.97zm-.81 2.48-1.15.16-.82 1.29 2.68.26zm.07-1.93L6.24 15l1.58-2.16-1.59-1.76zm-2.61-.01-.51-1.05L1 9.92l.59 2.64zm1.86-.52-3.26 1.73 2.54.84 1.18-2.06zm-.8-2.49.84-.81L4.79 6 2.46 7.37zm1.07 1.6L2.46 7.37v2.69l2.32.48z"/>
</svg>
