<svg xmlns="http://www.w3.org/2000/svg" width="16" height="16">
  <path fill="#f4f4f4" d="M1 15 1 3 7.586 3 9.586 1 16 1 16 15 1 15z"/>
  <path fill="#c7781a" d="M15 14 15 2 10 2 8 4 2 4 2 14 15 14z"/>
  <path fill="#ebebeb" d="M3 6H14V13H3z"/>
  <g>
    <circle cx="5.5" cy="10.5" r="5.5" fill="#f4f4f4"/>
    <circle cx="5.5" cy="10.5" r="4.5" fill="#0095d7"/>
    <path d="M8.65,9H7V7.35A3.487,3.487,0,0,1,8.65,9ZM5.5,7a3.588,3.588,0,0,0-.5.05V9H6V7.05A3.588,3.588,0,0,0,5.5,7ZM5,10v1H6V10ZM2.35,9H4V7.35A3.487,3.487,0,0,0,2.35,9ZM2,10.5a3.443,3.443,0,0,0,.05.5H4V10H2.05A3.443,3.443,0,0,0,2,10.5Zm2,3.15V12H2.35A3.487,3.487,0,0,0,4,13.65ZM5.5,14a3.443,3.443,0,0,0,.5-.051V12H5v1.949A3.443,3.443,0,0,0,5.5,14Zm3.15-2H7v1.65A3.487,3.487,0,0,0,8.65,12ZM9,10.5a3.443,3.443,0,0,0-.05-.5H7v1H8.95A3.443,3.443,0,0,0,9,10.5Z" fill="#ebebeb"/>
  </g>
</svg>
