<!-- Copyright © 2000–2024 JetBrains s.r.o. -->
<svg width="16" height="16" viewBox="0 0 16 16" xmlns="http://www.w3.org/2000/svg">
  <path d="M6.03 12H4c-.55 0-1-.45-1-1V6.5h2.75c.12 0 .24-.05.34-.13L7.6 5h4.41c.55 0 1 .45 1 1v.03c.37.05.71.19 1 .39v-.43c0-1.1-.9-2-2-2H7.19L6.08 3.1a.51.51 0 0 0-.31-.11H4.02c-1.1 0-2 .9-2 2v6c0 1.1.9 2 2 2h2.44c-.21-.29-.35-.63-.4-1zM3 5c0-.55.45-1 1-1h1.57l.87.69-.89.81H2.99V5z"/>
  <path d="M14.65 10H14V8.34C14 7.6 13.4 7 12.65 7H8.34c-.74 0-1.35.6-1.35 1.34v3.31c0 .74.6 1.34 1.35 1.34h.65v1.66c0 .74.6 1.34 1.35 1.34h4.31c.74 0 1.35-.6 1.35-1.34v-3.31c0-.74-.6-1.34-1.35-1.34m-6.3 2c-.19 0-.35-.15-.35-.34V8.35c0-.19.15-.34.35-.34h4.31c.19 0 .35.15.35.34v1.66h-2.65c-.74 0-1.35.6-1.35 1.34v.66h-.65zM13 11v.66c0 .19-.15.34-.35.34H10v-.66c0-.19.15-.34.35-.34zm2 3.66c0 .19-.15.34-.35.34h-4.31c-.19 0-.35-.15-.35-.34V13h2.65c.74 0 1.35-.6 1.35-1.34V11h.65c.19 0 .35.15.35.34v3.31z"/>
</svg>
