<!-- Copyright © 2000–2024 JetBrains s.r.o. -->
<svg width="16" height="16" viewBox="0 0 16 16" xmlns="http://www.w3.org/2000/svg">
  <path fill="#40b6e0" d="m6.93 8.68 1.14.61 1.59-.63-2.25-1.98z"/>
  <path fill="#9aa7b0" d="m5.61 10.37 1.8-3.69-2.84.91.29 2.62z"/>
  <path fill="#40b6e0" d="m7.95 12.08-.23 1.27 1.09 1.32L10 11.91z"/>
  <path fill="#9aa7b0" d="m5.94 11.34 4.06.57L8.26 9.5l-2.41 1.08z"/>
  <path fill="#40b6e0" d="m5.03 14.1-1.28.18-.91 1.44 2.99.28z"/>
  <path fill="#9aa7b0" d="M5.11 11.96 5.83 16l1.75-2.41-1.77-1.95z"/>
  <path fill="#40b6e0" d="m2.21 11.95-.56-1.17L0 10.36l.65 2.93z"/>
  <path fill="#9aa7b0" d="M4.27 11.36.65 13.29l2.83.93 1.31-2.29z"/>
  <path fill="#40b6e0" d="m3.39 8.6.93-.9L4.21 6 1.63 7.53z"/>
  <path fill="#9aa7b0" d="M4.58 10.38 1.63 7.53v2.98l2.57.53z"/>
  <path fill="#9aa7b0" fill-rule="evenodd" d="M7.98 4 6.69 2.71c-.47-.43-1.08-.68-1.72-.71H1.05S1 2.02 1 2.05v4.71s.08-.07.12-.09L3.7 5.14c.16-.09.33-.14.51-.14.16 0 .32.04.47.12.31.16.51.47.53.82l.02.39 1.87-.6c.1-.03.2-.05.31-.05.08 0 .16 0 .23.03.05.01.12.03.17.06.1.04.19.1.27.17l2.24 1.98a1.002 1.002 0 0 1-.3 1.68l-.36.14 1.15 1.59c.11.15.17.33.19.51v.17c-.01.1-.04.21-.08.3l-.3.68H15V4z" opacity=".8"/>
</svg>
