<!-- Copyright © 2000–2024 JetBrains s.r.o. -->
<svg width="16" height="16" viewBox="0 0 16 16" xmlns="http://www.w3.org/2000/svg">
  <path d="M10.88 8.7c-.14-1.08.89-2.26 2.08-2.32.14 1.22-1.04 2.4-2.08 2.32m2.03 7.3c-.26 0-.5-.09-.76-.18-.29-.1-.59-.21-.96-.21s-.71.12-.99.22c-.23.09-.45.17-.69.17C8.45 16 7 13.53 7 11.74 7 9.95 8.19 9 9.37 9c.27 0 .59.11.95.24.25.09.6.21.75.21.2 0 .44-.09.71-.19.33-.12.71-.26 1.11-.26.48 0 1.34.24 1.67.75.14.21.09.5-.11.66-.46.37-.71.87-.71 1.42 0 .67.37 1.26.92 1.46a.5.5 0 0 1 .29.28c.05.13.05.28-.01.41-.39.81-1.31 2.02-2.04 2.02zm-3.54-6C8.71 10 8 10.54 8 11.74c0 1.5 1.18 3.14 1.56 3.27 0 0 .17-.07.29-.11.32-.12.77-.29 1.34-.29.57 0 .99.16 1.3.27.15.06.29.11.39.12.17-.07.59-.48.94-1.03-.65-.46-1.06-1.25-1.06-2.13 0-.64.22-1.24.62-1.74-.39-.14-.78-.07-1.24.1-.33.12-.68.25-1.06.25-.33 0-.71-.14-1.09-.27-.21-.07-.51-.18-.61-.18z"/>
  <path d="M13.95 6.27c.01.1 0 .2 0 .3h.04V6c0-1.1-.9-2-2-2H7.17l-1.11-.89A.51.51 0 0 0 5.75 3H4c-1.1 0-2 .9-2 2v6c0 1.1.9 2 2 2h2.17c-.08-.35-.14-.68-.16-1H4c-.55 0-1-.45-1-1V6.5h2.75c.12 0 .24-.05.34-.13L7.6 5h4.41c.32 0 .6.16.78.4.04 0 .09-.02.13-.02h.05c.51 0 .94.38.99.89zM5.56 5.5H3V5c0-.55.45-1 1-1h1.57l.87.69-.89.81z"/>
</svg>
