<!-- Copyright © 2000–2024 JetBrains s.r.o. -->
<svg width="16" height="16" viewBox="0 0 16 16" xmlns="http://www.w3.org/2000/svg">
  <path fill="#f4f4f4" d="M1 15V3h6.59l2-2H16v14z"/>
  <path fill="#c7781a" d="M15 14V2h-5L8 4H2v10z"/>
  <path fill="#ebebeb" d="M3 6h11v7H3z"/>
  <path fill="#f4f4f4" d="M0 16v-2.5c0-1.25.44-2.46 1.23-3.44L.8 9.47C.56 9.15.47 8.75.53 8.35c.06-.4.28-.74.6-.98a1.488 1.488 0 0 1 2.09.33l.44.61c.59-.22 1.21-.33 1.83-.33s1.24.11 1.84.33l.45-.62a1.488 1.488 0 0 1 2.09-.33c.32.23.54.58.6.98.06.4-.03.79-.27 1.12l-.43.59c.78.97 1.22 2.18 1.22 3.43v2.5H0Z"/>
  <path fill="#388a34" d="M8.48 10.16 9.4 8.9c.16-.22.11-.54-.11-.7a.507.507 0 0 0-.7.11l-.93 1.28c-.65-.36-1.38-.58-2.17-.58s-1.51.22-2.16.57l-.92-1.27a.507.507 0 0 0-.7-.11c-.22.16-.27.48-.11.7l.91 1.26c-.93.82-1.52 2.01-1.52 3.35v1.5h9v-1.5c0-1.33-.59-2.52-1.52-3.34ZM3.61 13.1c-.33 0-.6-.27-.6-.6s.27-.6.6-.6.6.27.6.6-.27.6-.6.6Zm3.8 0c-.33 0-.6-.27-.6-.6s.27-.6.6-.6.6.27.6.6-.27.6-.6.6"/>
</svg>
