<svg width="16" height="16" viewBox="0 0 16 16" xmlns="http://www.w3.org/2000/svg">
  <path fill="#9AA7B0" fill-opacity=".8" d="M6 11.5a5.5 5.5 0 0 1 9-4.243V4H7.985L6.697 2.711A2.796 2.796 0 0 0 4.98 2H1.051A.051.051 0 0 0 1 2.051V13h5.212A5.496 5.496 0 0 1 6 11.5Z"/>
  <path fill="#40b6e0" d="M11.5 7a4.5 4.5 0 1 0 0 9 4.5 4.5 0 0 0 0-9ZM13 8.35A3.487 3.487 0 0 1 14.65 10H13V8.35Zm-3 6.3A3.487 3.487 0 0 1 8.35 13H10v1.65ZM10 12H8.05a3.348 3.348 0 0 1-.05-.5c.004-.168.021-.335.05-.5H10v1Zm0-2H8.35A3.487 3.487 0 0 1 10 8.35V10Zm2 4.949a3.487 3.487 0 0 1-.5.051 3.487 3.487 0 0 1-.5-.051V13h1v1.949ZM12 12h-1v-1h1v1Zm0-2h-1V8.05c.165-.028.332-.045.5-.05.168.005.335.022.5.05V10Zm1 4.65V13h1.65A3.487 3.487 0 0 1 13 14.65ZM13 12v-1h1.95c.029.165.046.332.05.5a3.348 3.348 0 0 1-.05.5H13Z"/>
</svg>
