<!-- Copyright © 2000–2024 JetBrains s.r.o. -->
<svg width="16" height="16" viewBox="0 0 16 16" xmlns="http://www.w3.org/2000/svg">
  <path d="M6 12H4c-.55 0-1-.45-1-1V6.5h2.75c.12 0 .24-.05.34-.13L7.6 5h4.41c.55 0 1 .45 1 1v.3l1-.12V6c0-1.1-.9-2-2-2H7.19l-1.11-.89A.51.51 0 0 0 5.77 3H4.02c-1.1 0-2 .9-2 2v6c0 1.1.9 2 2 2h2v-1zM3 5c0-.55.45-1 1-1h1.57l.87.69-.89.81H2.99V5z"/>
  <path d="M15.83 7.12a.508.508 0 0 0-.39-.12l-8 1c-.25.03-.44.24-.44.5v6c0 .25.19.46.44.5l8 1h.06c.12 0 .24-.04.33-.12.11-.09.17-.23.17-.38v-8c0-.14-.06-.28-.17-.38M15 11.1h-3.1V8.45l3.1-.39v3.03zm-3.9-2.55v2.55H8V8.94zM8 11.9h3.1v2.55L8 14.06zm3.9 2.65V11.9H15v3.03l-3.1-.39z"/>
</svg>
