<!-- Copyright © 2000–2024 JetBrains s.r.o. -->
<svg width="16" height="16" viewBox="0 0 16 16" xmlns="http://www.w3.org/2000/svg">
  <path fill="#9aa7b0" fill-rule="evenodd" d="M7.98 4 6.69 2.71c-.47-.43-1.08-.68-1.72-.71H1.05S1 2.02 1 2.05V7.1h.01c.48 0 .93.23 1.21.62l.44.61C3.25 8.11 3.87 8 4.49 8s1.24.11 1.84.33l.45-.62a1.488 1.488 0 0 1 2.09-.33c.32.23.54.58.6.98.06.4-.03.79-.27 1.12l-.43.59c.68.84 1.07 1.86 1.18 2.93h5.04V4H7.97Z" opacity=".8"/>
  <path fill="#62b543" d="M7.48 10.16 8.4 8.9c.16-.22.11-.54-.11-.7a.507.507 0 0 0-.7.11l-.93 1.28c-.65-.36-1.38-.58-2.17-.58s-1.51.22-2.16.57l-.92-1.27a.507.507 0 0 0-.7-.11c-.22.16-.27.48-.11.7l.91 1.26c-.93.82-1.52 2.01-1.52 3.35v1.5h9v-1.5c0-1.33-.59-2.52-1.52-3.34ZM2.61 13.1c-.33 0-.6-.27-.6-.6s.27-.6.6-.6.6.27.6.6-.27.6-.6.6m3.8 0c-.33 0-.6-.27-.6-.6s.27-.6.6-.6.6.27.6.6-.27.6-.6.6"/>
</svg>
