<!-- Copyright © 2000–2024 JetBrains s.r.o. -->
<svg width="16" height="16" viewBox="0 0 16 16" xmlns="http://www.w3.org/2000/svg">
  <path fill="#45322B" d="M14.65 10.5H13.5V8.35a.85.85 0 0 0-.85-.85H8.34a.85.85 0 0 0-.85.85v3.31c0 .47.38.85.85.85h1.15v2.15c0 .47.38.85.85.85h4.31c.47 0 .85-.38.85-.85v-3.31a.85.85 0 0 0-.85-.85"/>
  <path fill="none" stroke="#C77D55" stroke-linejoin="round" d="M12.65 7.5h-4.3a.85.85 0 0 0-.85.85v3.3c0 .47.38.85.85.85h4.3c.47 0 .85-.38.85-.85v-3.3a.85.85 0 0 0-.85-.85Z"/>
  <path fill="none" stroke="#C77D55" stroke-linejoin="round" d="M14.65 10.5h-4.3a.85.85 0 0 0-.85.85v3.3c0 .47.38.85.85.85h4.3c.47 0 .85-.38.85-.85v-3.3a.85.85 0 0 0-.85-.85Z"/>
  <path fill="#43454A" d="M6 11.66V8.34C6 7.05 7.05 6 8.34 6h4.32c.58 0 1.1.21 1.51.57.12.1.33-.03.33-.03V6c0-.83-.67-1.5-1.5-1.5H8.19l-1.89-2H3c-.83 0-1.5.67-1.5 1.5v8c0 .83.67 1.5 1.5 1.5h3.56s.1-.2 0-.32a2.34 2.34 0 0 1-.57-1.52z"/>
  <path fill="none" stroke="#CED0D6" stroke-linecap="round" stroke-linejoin="round" d="M14.5 6.18V6c0-.83-.67-1.5-1.5-1.5H8.19l-1.89-2H3c-.83 0-1.5.67-1.5 1.5v8c0 .83.67 1.5 1.5 1.5h3.18"/>
</svg>
