<!-- Copyright © 2000–2024 JetBrains s.r.o. -->
<svg width="16" height="16" viewBox="0 0 16 16" xmlns="http://www.w3.org/2000/svg">
  <path fill="#fff" d="M6 12.9c0-.3.03-.6.08-.9H4c-.55 0-1-.45-1-1V6.5h2.75c.12 0 .24-.05.34-.13L7.6 5h4.41c.55 0 1 .45 1 1v1.64c.13.04.26.06.39.11l.39-.54c.06-.09.14-.17.22-.24v-.98c0-1.1-.9-2-2-2H7.19L6.08 3.1a.51.51 0 0 0-.31-.11H4.02c-1.1 0-2 .9-2 2v6c0 1.1.9 2 2 2h2v-.1zM3 5c0-.55.45-1 1-1h1.57l.87.69-.89.81H2.99V5z"/>
  <path fill="#fff" d="m14.52 9.59.87-1.2c.16-.22.11-.54-.11-.7a.507.507 0 0 0-.7.11L13.7 9c-.66-.37-1.4-.61-2.21-.61s-1.56.23-2.21.61L8.4 7.8a.507.507 0 0 0-.7-.11c-.22.16-.27.48-.11.7l.87 1.2c-.9.82-1.48 2-1.48 3.31v1.6c0 .28.22.5.5.5h8c.28 0 .5-.22.5-.5v-1.6c0-1.31-.58-2.49-1.48-3.31h.02M15 14H8v-1.1c0-1.93 1.57-3.5 3.5-3.5s3.5 1.57 3.5 3.5z"/>
  <path fill="#fff" d="M10.1 12.7a.6.6 0 1 0 0-1.2.6.6 0 0 0 0 1.2m2.8 0a.6.6 0 1 0 0-1.2.6.6 0 0 0 0 1.2"/>
</svg>
