<!-- Copyright © 2000–2024 JetBrains s.r.o. -->
<svg width="16" height="16" viewBox="0 0 16 16" xmlns="http://www.w3.org/2000/svg">
  <path d="M5.9 12.97 5.52 12H4c-.55 0-1-.45-1-1V6.5h2.75c.12 0 .24-.05.34-.13L7.6 5h4.41c.55 0 1 .45 1 1v.55l.47-.1c.07-.01.23-.03.29-.03.08 0 .16.02.23.03v-.46c0-1.1-.9-2-2-2H7.18L6.07 3.1a.51.51 0 0 0-.31-.11H4.01c-1.1 0-2 .9-2 2v6c0 1.1.9 2 2 2h1.92s-.02-.02-.02-.03zM3 5c0-.55.45-1 1-1h1.57l.87.69-.89.81H2.99V5z"/>
  <path d="M15.74 8.61 14.01 7.5a.453.453 0 0 0-.34-.07l-2.1.44c-.21.04-.36.22-.36.44v1.79c0 .25.21.45.45.45.02 0 .03 0 .05-.01.05 0 .09-.01.13-.03.03-.01.06-.03.09-.06.02 0 .03-.01.04-.03l.04-.05.94-1.1.81.54c.08.06.19.08.29.05l1.51-.42s.01-.01.02-.01c.12-.02.23-.09.3-.2.13-.21.07-.49-.14-.62m-3.63.58v-.52l.51-.1zm1.91-.05-.93-.63-.06-.03.65-.13.96.62zm1.58 3.2-1.05-1.86a.452.452 0 0 0-.53-.2l-1.72.55c-.23.08-.36.33-.29.57 0 .01.01.02.02.03.03.1.11.18.2.22l.11.04 1.3.54-.28.92c-.03.1-.01.21.05.3l.87 1.29s.03.05.05.07c.05.08.14.14.24.17.04.01.08.02.12.02.2 0 .38-.13.43-.34l.53-1.98c.03-.12 0-.24-.05-.34m-1.65-1.09.26.46h-.02l-.73-.29.49-.16zm.45.87v-.07l.32.57-.29 1.11-.36-.54.32-1.07zM13 13.54l-1.06-1.45a.46.46 0 0 0-.63-.1h-.01s-.05.05-.07.08a.46.46 0 0 0-.09.17.59.59 0 0 0-.02.14l-.1 1.4-.97.03c-.1 0-.2.05-.26.13l-.97 1.23-.01.01c-.09.09-.14.21-.13.35.01.23.21.42.45.42h.02l2.06-.12c.12 0 .23-.05.31-.14l1.44-1.58c.15-.16.16-.4.04-.57m-.95.23-.35.38.05-.79zm-.69.7s.04 0 .06-.01l-.44.49-1.15.06.4-.5zm-.79-2.9s-.03-.05-.05-.06a.42.42 0 0 0-.32-.08l-.1.02s-.03 0-.04.02l-1.34.32-.32-.91a.337.337 0 0 0-.21-.21l-1.43-.52s-.03-.02-.04-.02a.422.422 0 0 0-.38-.02c-.24.09-.35.35-.26.58l.75 1.91c.04.11.13.2.23.25l1.96.88c.06.03.12.04.18.04.14 0 .28-.06.36-.18l1.06-1.45c.14-.18.12-.43-.05-.57m-2.78-.3.38 1.05.03.06-.6-.27-.42-1.07.61.23m.79 1.27.77-.18-.3.4-.49-.22h.02m2.21-6.32a.45.45 0 0 0-.64-.07l-1.59 1.3c-.09.08-.15.18-.17.3l-.23 2.12c-.03.21.1.42.3.48l1.72.55s.09.03.13.03c.16 0 .3-.1.38-.24 0-.01.01-.01.01-.01s0-.01.01-.01c0-.02.02-.03.03-.05 0-.01.01-.02 0-.03.01-.01.02-.03.01-.04.02-.07.01-.15-.01-.21a.37.37 0 0 0-.05-.11c-.01-.01-.01-.02-.02-.03L9.92 9l.77-.59c.08-.06.13-.16.13-.27l.07-1.56v-.04a.47.47 0 0 0-.1-.32m-1.7 3.39.06-.53v.02l.41.66-.48-.15zm1.04-1.66-.89.69s-.04.03-.05.05l.08-.66.89-.72z"/>
</svg>
