<!-- Copyright © 2000–2024 JetBrains s.r.o. -->
<svg width="16" height="16" viewBox="0 0 16 16" xmlns="http://www.w3.org/2000/svg">
  <defs>
    <linearGradient id="a" x1="-578.17" x2="-578.17" y1="280" y2="279" gradientTransform="matrix(15 0 0 -14 8681 3921)" gradientUnits="userSpaceOnUse">
      <stop offset="0" stop-color="#c28c21"/>
      <stop offset="1" stop-color="#634933"/>
    </linearGradient>
    <linearGradient id="b" x1="-571.81" x2="-571.81" y1="274.66" y2="273.67" gradientTransform="matrix(13 0 0 -12 7442 3298)" gradientUnits="userSpaceOnUse">
      <stop offset="0" stop-color="#ffe9bd"/>
      <stop offset="1" stop-color="#d4a24c"/>
    </linearGradient>
    <linearGradient id="c" x1="-563.14" x2="-563.14" y1="248" y2="247" gradientTransform="matrix(11 0 0 -7 6203 1742)" gradientUnits="userSpaceOnUse">
      <stop offset="0" stop-color="#b88143"/>
      <stop offset="1" stop-color="#8a4717"/>
    </linearGradient>
    <linearGradient id="d" x1="5.5" x2="5.5" y1="5" y2="16" gradientUnits="userSpaceOnUse">
      <stop offset="0" stop-color="#541900"/>
      <stop offset="1" stop-color="#72490c"/>
    </linearGradient>
    <linearGradient id="e" x1="5.5" x2="5.5" y1="6" y2="15" gradientUnits="userSpaceOnUse">
      <stop offset="0" stop-color="#ffe38b"/>
      <stop offset="1" stop-color="#ffa500"/>
    </linearGradient>
  </defs>
  <path fill="url(#a)" d="M1 15V3h6.59l2-2H16v14z"/>
  <path fill="url(#b)" d="M15 14V2h-5L8 4H2v10z"/>
  <path fill="url(#c)" d="M3 6h11v7H3z"/>
  <path fill="url(#d)" d="M2 16v-3H0V5h9v3h2v8z"/>
  <path fill="url(#e)" d="M8 9V6H1v6h2v3h7V9zm-6 2V7h5v2H3v2zm5-1v1H4v-1zm2 4H4v-2h4v-2h1z"/>
</svg>
