<svg width="16" height="16" viewBox="0 0 16 16" xmlns="http://www.w3.org/2000/svg">
  <path fill="#9AA7B0" fill-opacity=".8" d="M3 10.5C3 9.121 4.122 8 5.5 8h5c1.378 0 2.5 1.121 2.5 2.5a2.482 2.482 0 0 1 2-.449V4H7.985L6.697 2.711A2.796 2.796 0 0 0 4.98 2H1.051A.051.051 0 0 0 1 2.051V13h2v-2.5Z"/>
  <path fill="#40b6e0" d="M14.5 11c-.651 0-1.201.419-1.408 1H12v-1.5c0-.827-.673-1.5-1.5-1.5h-5C4.673 9 4 9.673 4 10.5v4c0 .827.673 1.5 1.5 1.5h5c.827 0 1.5-.673 1.5-1.5V13h1.092c.207.581.757 1 1.408 1 .827 0 1.5-.673 1.5-1.5s-.673-1.5-1.5-1.5ZM11 14.5c0 .275-.225.5-.5.5h-5a.501.501 0 0 1-.5-.5v-4c0-.275.225-.5.5-.5h5c.275 0 .5.225.5.5v4Zm3.5-1.5c-.275 0-.5-.225-.5-.5s.225-.5.5-.5.5.225.5.5-.225.5-.5.5Z"/>
  <path fill="#40b6e0" d="M8 11h2v3H8zm-2 0h1v1H6zm0 2h1v1H6z"/>
</svg>
