<svg width="16" height="16" viewBox="0 0 16 16" xmlns="http://www.w3.org/2000/svg">
  <path fill="#9aa7b0" d="M9 12c0-.546.438-.989.981-1H7a1 1 0 0 1-1-1V5a1 1 0 0 1 1-1h6a1 1 0 0 1 1 1v3.509c.54.409.903 1.027.975 1.737.01-.081.025-.161.025-.245v-5a2.006 2.006 0 0 0-2-2H7a2.006 2.006 0 0 0-2 2v2H3.908a1.5 1.5 0 1 0 0 1H5v2a2.006 2.006 0 0 0 2 2h2ZM2.5 8a.5.5 0 1 1 0-1 .5.5 0 0 1 0 1Z"/>
  <path fill="#9aa7b0" d="M11 8.509c.409-.31.912-.5 1.461-.509H11v.509ZM7 6h3v3H7zm4-1h2v2h-2z"/>
  <path fill="#40b6e0" d="M14 11.997v-1.5a1.5 1.5 0 0 0-3 0v1.5h-1v4h5v-4h-1Zm-2-1.304c0-.385.224-.696.5-.696s.5.312.5.696v1.304h-1v-1.304Z"/>
</svg>
