<svg width="16" height="16" viewBox="0 0 16 16" xmlns="http://www.w3.org/2000/svg">
  <path fill="#9aa7b0" d="m8.371 12 .571-1H7a1 1 0 0 1-1-1V5a1 1 0 0 1 1-1h6a1 1 0 0 1 1 1v5a.974.974 0 0 1-.194.56l.525.919c.406-.366.667-.89.669-1.479V5a2.006 2.006 0 0 0-2-2H7a2.006 2.006 0 0 0-2 2v2H3.908a1.5 1.5 0 1 0 0 1H5v2a2.006 2.006 0 0 0 2 2h1.371ZM2.5 8a.5.5 0 1 1 0-1 .5.5 0 0 1 0 1Z"/>
  <path fill="#9aa7b0" d="M7 6h3v3H7zm4-1h2v2h-2zm.763 3c.359 0 .69.192.868.504l.369.645V8h-1.237Z"/>
  <path fill="#f4af3d" d="M11.763 9h-.527l-3.737 6.539.263.461h7.473l.263-.461L11.761 9ZM12 15h-1v-1h1v1Zm-.1-1.75h-.8L11 11h1l-.1 2.25Z"/>
</svg>
