<svg width="16" height="16" viewBox="0 0 16 16" xmlns="http://www.w3.org/2000/svg">
  <path fill="#F2FCFC" d="M13.5 2.5h-11a2 2 0 0 0-2 2v7a2 2 0 0 0 2 2h2.125c0-.232.059-.452.161-.645l-.383-.383a1.38 1.38 0 0 1-.002-1.943l.85-.85c.26-.26.605-.402.973-.402a1.37 1.37 0 0 1 1.27.847h.507c2.618 0 3.375.757 3.375 3.375h2.125a2 2 0 0 0 2-2v-7a2 2 0 0 0-2-2L13.5 2.5Z"/>
  <path fill="none" stroke="#039BA1" stroke-linecap="round" stroke-miterlimit="10" d="M4.125 13.5H2.5a2 2 0 0 1-2-2v-7a2 2 0 0 1 2-2h11a2 2 0 0 1 2 2v7a2 2 0 0 1-2 2h-1.625"/>
  <path fill="#FFF4EB" d="M6 13.5c0-1.855.145-2 2-2s2 .145 2 2-.145 2-2 2-2-.145-2-2Z"/>
  <path fill="none" stroke="#E66D17" stroke-linecap="round" stroke-linejoin="round" stroke-width=".75" d="M8 12.557v.943l.84.508m-2.616-3.356-.848.848.848.848"/>
  <path fill="none" stroke="#E66D17" stroke-linecap="round" stroke-linejoin="round" stroke-width=".75" d="M5.876 11.5H8c1.855 0 2 .145 2 2s-.145 2-2 2-2-.145-2-2"/>
  <path fill="#039BA1" d="M4.393 10.543v-1.97h2.596v-.916H4.393v-1.54h2.756v-.916H3.413v5.6h.811c.053-.088.095-.181.17-.257l-.001-.001Zm8.235-3.203v-.72h-.788l.304-1.42h-.796l-.304 1.424H9.852l.305-1.424H9.36l-.304 1.428h-.979v.72H8.9l-.279 1.316h-.944v.72h.788l-.162.754c.283.008.547.026.783.056l.174-.814h1.192l-.24 1.12c.158.083.293.185.415.3h.316l.305-1.424h.979v-.72h-.824l.28-1.316h.945Zm-2.021 1.32H9.416l.279-1.316h1.192l-.28 1.316Z"/>
</svg>
