<!-- Copyright © 2000–2024 JetBrains s.r.o. -->
<svg width="16" height="16" viewBox="0 0 16 16" xmlns="http://www.w3.org/2000/svg">
  <linearGradient id="a" x1=".5" x2=".5" y1=".003" y2="1.003">
    <stop offset="0" stop-color="#7C6D48"/>
    <stop offset="1" stop-color="#60492F"/>
  </linearGradient>
  <path fill="url(#a)" fill-rule="evenodd" d="M2 15V1h7.414L14 5.586V15z"/>
  <linearGradient id="b" x1=".5" x2=".5" y1=".004" y2="1">
    <stop offset="0" stop-color="#E2D7BC"/>
    <stop offset="1" stop-color="#E2CCB3"/>
  </linearGradient>
  <path fill="url(#b)" fill-rule="evenodd" d="M9 2H3v12h10V6z"/>
  <linearGradient id="c" x1=".5" x2=".5" y1=".012" y2="1.006">
    <stop offset="0" stop-color="#FFF2D3"/>
    <stop offset="1" stop-color="#FFF"/>
  </linearGradient>
  <path fill="url(#c)" fill-rule="evenodd" d="M9 6V4H5v8h6V6z"/>
  <linearGradient id="d" x1=".5" x2=".5" y1="0" y2="1">
    <stop offset="0" stop-color="#004F5D"/>
    <stop offset="1" stop-color="#007E93"/>
  </linearGradient>
  <path fill="url(#d)" fill-rule="evenodd" d="M5 16v-1H4v-1H3v2H0V9h10v1h1v5h-1v1z"/>
  <linearGradient id="e" x1=".5" x2=".5" y1="0" y2="1">
    <stop offset="0" stop-color="#CEFFFB"/>
    <stop offset="1" stop-color="#78E3FF"/>
  </linearGradient>
  <path fill="url(#e)" fill-rule="evenodd" d="M2 11v1h2l-.5 1H2v2H1v-5h3.5v1M8 13H7v-1h1m2 0v-1H9v-1H8v1H7v-1H6v1H5v1h1v1H5v1h1v1h1v-1h1v1h1v-1h1v-1H9v-1z"/>
</svg>
