<svg width="16" height="16" viewBox="0 0 16 16" xmlns="http://www.w3.org/2000/svg">
    <path fill="#2eb2bc" d="M6.6 9.3V11H9v1H6.6v3H5V8h4.5v1.3H6.6Zm7.443 1.7-.086 1h.872l-.086 1h-.872l-.171 2h-1l.171-2h-1l-.171 2h-1l.171-2H10l.086-1h.871l.086-1h-.872l.086-1h.872l.171-2h1l-.171 2h1l.171-2h1l-.171 2H15l-.086 1h-.871Zm-1 0h-1l-.086 1h1l.086-1Z"/>
    <path fill="#d9a343" d="M12 2.447a.375.375 0 0 0-.375.375V4c0 .131.068.253.181.321l1.05.635a.374.374 0 0 0 .515-.127.378.378 0 0 0-.127-.516l-.869-.525v-.966A.375.375 0 0 0 12 2.447Z"/>
    <path fill="#d9a343" d="M12 1.125H9.982l.207-.207a.377.377 0 0 0 0-.531.377.377 0 0 0-.531 0l-.848.848a.377.377 0 0 0 0 .531l.848.848a.377.377 0 0 0 .532 0 .377.377 0 0 0 0-.531l-.207-.207h2.018c2.105 0 2.125.02 2.125 2.125s-.02 2.125-2.125 2.125-2.125-.02-2.125-2.125a.375.375 0 0 0-.75 0c0 2.525.35 2.875 2.875 2.875s2.875-.35 2.875-2.875-.35-2.875-2.875-2.875Z"/>
    <path fill="#9aa7b0" d="M8.125 4c0-.412.183-.783.471-1.035l-.492-.492A1.373 1.373 0 0 1 7.8 2H1v10h2v-1H2V5h6.163a12.191 12.191 0 0 1-.038-1Z"/>
</svg>
