<svg width="16" height="16" viewBox="0 0 16 16" xmlns="http://www.w3.org/2000/svg">
    <path fill="#9aa7b0" d="M12 1a3 3 0 1 0 0 6 3 3 0 0 0 0-6Zm0 5a2 2 0 1 1-.001-3.999A2 2 0 0 1 12 6Z"/>
    <path fill="#40b6e0" d="M13.5 4a1.5 1.5 0 1 1-3.001-.001A1.5 1.5 0 0 1 13.5 4Z"/>
    <path fill="#2eb2bc" d="M6.6 9.3V11H9v1H6.6v3H5V8h4.5v1.3H6.6Zm7.443 1.7-.086 1h.872l-.086 1h-.872l-.171 2h-1l.171-2h-1l-.171 2h-1l.171-2H10l.086-1h.871l.086-1h-.872l.086-1h.872l.171-2h1l-.171 2h1l.171-2h1l-.171 2H15l-.086 1h-.871Zm-1 0h-1l-.086 1h1l.086-1Z"/>
    <path fill="#9aa7b0" d="M8.141 5A3.977 3.977 0 0 1 8 4c0-.732.211-1.41.555-2H1v10h2v-1H2V5h6.141Z"/>
</svg>
