<svg width="16" height="16" viewBox="0 0 16 16" xmlns="http://www.w3.org/2000/svg">
  <path fill="#252525" d="M10 12H6c-1.103 0-2 .897-2 2v1h8v-1c0-1.103-.897-2-2-2Z"/>
  <rect width="14" height="11" x="1" y="2" fill="#252525" rx="2" ry="2"/>
  <rect width="12" height="9" x="2" y="3" fill="#c4c4c4" rx="1" ry="1"/>
  <path fill="#292929" d="M3 4h10v6.5H3z"/>
  <path fill="#c4c4c4" d="m8.75 13-.25-.5h-1l-.25.5H6a1 1 0 0 0-1 1h6a1 1 0 0 0-1-1H8.75Z"/>
  <rect width="7" height="10" x="9" fill="#252525" rx="2" ry="2"/>
  <rect width="5" height="8" x="10" y="1" fill="#c4c4c4" rx="1" ry="1"/>
  <path fill="#292929" d="M14 8h-3V2h1v.25c0 .138.112.25.25.25h.5a.25.25 0 0 0 .25-.25V2h1v6Z"/>
</svg>
