<svg width="16" height="16" viewBox="0 0 16 16" xmlns="http://www.w3.org/2000/svg">
  <path fill="#43454A" d="M7.268 12.982A1.503 1.503 0 0 1 6 11.5c0-.748.551-1.37 1.268-1.482a4.53 4.53 0 0 1 2.75-2.75A1.503 1.503 0 0 1 11.5 6c.748 0 1.37.551 1.482 1.268a4.436 4.436 0 0 1 2.112 1.599h.406V4.501a2 2 0 0 0-2-2h-11a2 2 0 0 0-2 2v7a2 2 0 0 0 2 2h4.89v-.245a2.04 2.04 0 0 1-.122-.274Z"/>
  <path fill="none" stroke="#CED0D6" stroke-linecap="round" stroke-linejoin="round" d="M15.5 8.561V4.5a2 2 0 0 0-2-2h-11a2 2 0 0 0-2 2v7a2 2 0 0 0 2 2h4.446M2.5 5.5h11"/>
  <path fill="#25324D" stroke="#548AF7" stroke-linecap="round" stroke-linejoin="round" d="M11.5 14.5a3 3 0 1 0 0-6 3 3 0 0 0 0 6Z"/>
  <path fill="none" stroke="#548AF7" stroke-linecap="round" stroke-linejoin="round" d="M11.5 7.5V10m-4 1.5H10m3 0h2.5m-4 1.5v2.5"/>
</svg>
