<svg width="16" height="16" viewBox="0 0 16 16" xmlns="http://www.w3.org/2000/svg">
  <path fill="#40b6e0" d="M16 11h-1.051A3.486 3.486 0 0 0 12 8.051V7h-1v1.051A3.486 3.486 0 0 0 8.051 11H7v1h1.051A3.486 3.486 0 0 0 11 14.949V16h1v-1.051A3.486 3.486 0 0 0 14.949 12H16v-1Zm-4 2.949V12.5h-1v1.449A2.505 2.505 0 0 1 9.051 12H10.5v-1H9.051A2.505 2.505 0 0 1 11 9.051V10.5h1V9.051c.978.199 1.75.971 1.949 1.949H12.5v1h1.449A2.505 2.505 0 0 1 12 13.949Z"/>
  <path fill="#9aa7b0" d="M13 5V2H1v10h4v-1H2V5h11z"/>
</svg>
