<svg width="16" height="16" viewBox="0 0 16 16" xmlns="http://www.w3.org/2000/svg">
  <path fill="#43454A" d="M7.268 12.982A1.503 1.503 0 0 1 6 11.5c0-.748.551-1.37 1.268-1.482a4.53 4.53 0 0 1 2.75-2.75A1.503 1.503 0 0 1 11.5 6c.279 0 .528.096.753.229h.247V3A1.5 1.5 0 0 0 11 1.5H8.121c-.398 0-.779.158-1.061.439L3.939 5.06A1.5 1.5 0 0 0 3.5 6.121V13A1.5 1.5 0 0 0 5 14.5h2.82v-.473a4.464 4.464 0 0 1-.552-1.045Z"/>
  <path fill="none" stroke="#CED0D6" stroke-linecap="round" stroke-miterlimit="10" d="M7.5 1.75V4A1.5 1.5 0 0 1 6 5.5H3.75"/>
  <path fill="#25324D" stroke="#548AF7" stroke-linecap="round" stroke-linejoin="round" d="M11.5 14.5a3 3 0 1 0 0-6 3 3 0 0 0 0 6Z"/>
  <path fill="none" stroke="#548AF7" stroke-linecap="round" stroke-linejoin="round" d="M11.5 7.5V10m-4 1.5H10m3 0h2.5m-4 1.5v2.5"/>
  <path fill="none" stroke="#CED0D6" stroke-linecap="round" stroke-linejoin="round" d="M12.5 5.794V3A1.5 1.5 0 0 0 11 1.5H8.121c-.398 0-.779.158-1.061.439L3.939 5.06A1.5 1.5 0 0 0 3.5 6.121V13A1.5 1.5 0 0 0 5 14.5h2.55"/>
</svg>
