<svg width="16" height="16" viewBox="0 0 16 16" xmlns="http://www.w3.org/2000/svg">
  <path fill="#43454A" d="M10 12.728A4.512 4.512 0 0 1 8 9c0-1.52.771-2.925 2.062-3.76.241-.156.523-.24.814-.24h.623c.384 0 .734.145 1 .383a1.494 1.494 0 0 1 1-.383h.623c.291 0 .573.084.816.242.091.059.178.121.263.187h.298V4.5a2 2 0 0 0-2-2H2.5a2 2 0 0 0-2 2v7a2 2 0 0 0 2 2H10v-.772Z"/>
  <path fill="none" stroke="#CED0D6" stroke-linecap="round" stroke-linejoin="round" d="M2.5 5.5h6.451m6.549-.464V4.5a2 2 0 0 0-2-2h-11a2 2 0 0 0-2 2v7a2 2 0 0 0 2 2h7"/>
  <path fill="#25324D" stroke="#548AF7" stroke-linecap="round" stroke-linejoin="round" d="M14.123 6.5H13.5v2a1 1 0 0 1-2 0v-2h-.623A2.97 2.97 0 0 0 9.5 9a2.99 2.99 0 0 0 2 2.816V14.5a1 1 0 0 0 2 0v-2.684A2.99 2.99 0 0 0 15.5 9a2.967 2.967 0 0 0-1.377-2.5Z"/>
</svg>
