<svg width="16" height="16" viewBox="0 0 16 16" xmlns="http://www.w3.org/2000/svg">
  <path fill="none" stroke="#6C707E" stroke-linecap="round" stroke-linejoin="round" d="M5.5 5.5v-1a1 1 0 0 1 1-1h3a1 1 0 0 1 1 1v1"/>
  <path fill="#EBECF0" stroke="#6C707E" stroke-linecap="round" stroke-linejoin="round" d="M14.5 11.5v-5a1 1 0 0 0-1-1h-11a1 1 0 0 0-1 1v5a1 1 0 0 0 1 1h11a1 1 0 0 0 1-1Z"/>
  <path fill="none" stroke="#6C707E" stroke-linecap="round" stroke-linejoin="round" d="M1.5 8.5h3m2-1h-2v2h2v-2Zm5 0h-2v2h2v-2Zm-5 1h3m2 0h3"/>
</svg>
