<svg width="16" height="16" viewBox="0 0 16 16" xmlns="http://www.w3.org/2000/svg">
  <path fill="#40b6e0" d="M10 8h3v1h-3V8Zm-1 4h1v1H9v-1Zm-2-2v2h1.5a.5.5 0 0 1 .5-.5h1a.5.5 0 0 1 .5.5h2a.5.5 0 0 1 .5-.5h1a.5.5 0 0 1 .5.5H16v-2H7Zm7.5 3.5a.5.5 0 0 1-.5.5h-1a.5.5 0 0 1-.5-.5V13h-2v.5a.5.5 0 0 1-.5.5H9a.5.5 0 0 1-.5-.5V13H7v3h9v-3h-1.5v.5ZM13 12h1v1h-1v-1Z"/>
  <path fill="#9AA7B0" fill-opacity=".8" d="M6 9h3V7h5v2h1V4H7.985L6.697 2.711A2.796 2.796 0 0 0 4.98 2H1.051A.051.051 0 0 0 1 2.051V13h5V9Z"/>
</svg>
