<svg width="16" height="16" viewBox="0 0 16 16" xmlns="http://www.w3.org/2000/svg">
  <path fill="#EBECF0" d="M5 11c0-1.103.897-2 2-2h1c0-1.103.897-2 2-2h2c.978 0 1.794.706 1.967 1.635.039.208.275.365.533.365V6A1.5 1.5 0 0 0 13 4.5H8.192L6.3 2.5H3A1.5 1.5 0 0 0 1.5 4v8A1.5 1.5 0 0 0 3 13.5h2V11Z"/>
  <path fill="none" stroke="#6C707E" stroke-linecap="round" stroke-linejoin="round" d="M14.5 8.5V6A1.5 1.5 0 0 0 13 4.5H8.192L6.3 2.5H3A1.5 1.5 0 0 0 1.5 4v8A1.5 1.5 0 0 0 3 13.5h1.5"/>
  <path fill="none" stroke="#3574F0" stroke-linecap="round" stroke-linejoin="round" d="M9.5 10.5V9a.5.5 0 0 1 .5-.5h2a.5.5 0 0 1 .5.5v1.5"/>
  <path fill="#EDF3FF" stroke="#3574F0" stroke-linecap="round" stroke-linejoin="round" d="M15.5 15v-4a.5.5 0 0 0-.5-.5H7a.5.5 0 0 0-.5.5v4a.5.5 0 0 0 .5.5h8a.5.5 0 0 0 .5-.5Z"/>
  <path fill="none" stroke="#3574F0" stroke-linecap="round" stroke-linejoin="round" d="M9.5 12v1.5m3-1.5v1.5m-6-1h9"/>
</svg>
