<svg xmlns="http://www.w3.org/2000/svg" width="16" height="16"><path fill="#252525" d="M1 15V3h6.586l2-2H16v14H1z"/><path fill="#e9a755" d="M15 14V2h-5L8 4H2v10h13z"/><path fill="#292929" d="M3 6h11v7H3z"/><g><path d="M6 9.243V9.5c0 .827-.673 1.5-1.5 1.5S3 10.327 3 9.5v-.402l-.348.201a1.497 1.497 0 0 1-2.049-.548 1.503 1.503 0 0 1 .549-2.05L1.5 6.5l-.348-.201a1.504 1.504 0 0 1-.551-2.048 1.503 1.503 0 0 1 2.05-.551L3 3.902V3.5C3 2.673 3.673 2 4.5 2S6 2.673 6 3.5v.402l.348-.201a1.5 1.5 0 1 1 1.5 2.598l-.223.129 5.741 3.314-1.625 2.815L6 9.242Z" fill="#252525"/><path d="M4.5 3a.5.5 0 0 1 .5.5v1a.5.5 0 0 1-1 0v-1a.5.5 0 0 1 .5-.5Zm0 5a.5.5 0 0 1 .5.5v1a.5.5 0 0 1-1 0v-1a.5.5 0 0 1 .5-.5ZM1.469 4.75a.5.5 0 0 1 .683-.183l.866.5a.5.5 0 0 1-.5.866l-.866-.5a.5.5 0 0 1-.183-.683Zm0 3.5a.5.5 0 0 1 .183-.683l.866-.5a.5.5 0 0 1 .5.866l-.866.5a.5.5 0 0 1-.683-.183Zm4.33-2.5a.5.5 0 0 1 .183-.683l.866-.5a.5.5 0 0 1 .5.866l-.866.5a.5.5 0 0 1-.683-.183ZM12 10.108l-7.188-4.15a.625.625 0 1 0-.625 1.083l7.188 4.15.625-1.083Z" fill="#43c2ff"/></g></svg>