<svg width="16" height="16" viewBox="0 0 16 16" xmlns="http://www.w3.org/2000/svg">
  <path fill="#40b6e0" d="m4.952 9.281 7.731-4.464.5.865-7.731 4.464zM12.5 9a.5.5 0 0 1-.5-.5v-1a.5.5 0 0 1 1 0v1a.5.5 0 0 1-.5.5Zm0-5a.5.5 0 0 1-.5-.5v-1a.5.5 0 0 1 1 0v1a.5.5 0 0 1-.5.5Zm1.725 1.004a.5.5 0 0 1-.25-.933l.873-.504a.498.498 0 0 1 .683.183.498.498 0 0 1-.183.683l-.873.504a.494.494 0 0 1-.25.067Zm.873 2.496a.494.494 0 0 1-.25-.067l-.873-.504a.5.5 0 1 1 .5-.866l.873.504a.5.5 0 0 1-.25.933Zm-4.323-2.496a.494.494 0 0 1-.25-.067l-.873-.504a.5.5 0 1 1 .5-.866l.873.504a.5.5 0 0 1-.25.933Z"/>
  <path fill="#9AA7B0" fill-opacity=".8" d="m14.346 8.298-.346-.2V8.5c0 .827-.673 1.5-1.5 1.5S11 9.327 11 8.5v-.402l-5.048 2.915a.998.998 0 0 1-1.366-.366l-.5-.865a1 1 0 0 1 .366-1.366l5.049-2.915-.349-.201a1.482 1.482 0 0 1-.699-.911 1.502 1.502 0 0 1-.045-.388h-.423L6.697 2.712a2.796 2.796 0 0 0-1.717-.711H1.051A.051.051 0 0 0 1 2.052v10.949h14V8.488a1.503 1.503 0 0 1-.654-.189Z"/>
</svg>
