<!-- Copyright © 2000–2024 JetBrains s.r.o. -->
<svg width="16" height="16" viewBox="0 0 16 16" xmlns="http://www.w3.org/2000/svg">
  <path d="M12.48 13H9.23c-.28 0-.5.22-.5.5s.22.5.5.5h3.25c.28 0 .5-.22.5-.5s-.22-.5-.5-.5m-6-1c-.65 0-1.2.42-1.41 1H3.48c-.28 0-.5.22-.5.5s.22.5.5.5h1.59c.21.58.76 1 1.41 1 .83 0 1.5-.67 1.5-1.5S7.31 12 6.48 12m0 2c-.28 0-.5-.22-.5-.5s.22-.5.5-.5.5.22.5.5-.22.5-.5.5M3.98 4v5c0 1.31 2.01 2 4 2s4-.69 4-2V4c0-2.63-8-2.63-8 0m4-1c1.86 0 3 .65 3 1s-1.14 1-3 1-3-.65-3-1 1.14-1 3-1m0 7c-1.86 0-3-.65-3-1V7.85c.77.42 1.88.65 3 .65s2.23-.22 3-.65V9c0 .35-1.14 1-3 1m0-2.5c-1.86 0-3-.65-3-1V5.35c.77.42 1.88.65 3 .65s2.23-.22 3-.65V6.5c0 .35-1.14 1-3 1"/>
</svg>
