<!-- Copyright © 2000–2024 JetBrains s.r.o. -->
<svg width="16" height="16" viewBox="0 0 16 16" xmlns="http://www.w3.org/2000/svg">
  <defs>
    <linearGradient id="a" x1="8" x2="8" y1="1.06" y2="9.95" gradientUnits="userSpaceOnUse">
      <stop offset="0" stop-color="#005439"/>
      <stop offset="1" stop-color="#007356"/>
    </linearGradient>
    <linearGradient id="b" x1="8" x2="8" y1="2" y2="9.07" gradientUnits="userSpaceOnUse">
      <stop offset="0" stop-color="#b3ffcc"/>
      <stop offset="1" stop-color="#10bf41"/>
    </linearGradient>
    <linearGradient id="c" x1="2" x2="14" y1="12.5" y2="12.5" gradientUnits="userSpaceOnUse">
      <stop offset="0" stop-color="#597f95"/>
      <stop offset="1" stop-color="#22464f"/>
    </linearGradient>
    <linearGradient id="d" x1="3" x2="13" y1="12.5" y2="12.5" gradientUnits="userSpaceOnUse">
      <stop offset="0" stop-color="#d3fffd"/>
      <stop offset="1" stop-color="#80d3ff"/>
    </linearGradient>
  </defs>
  <path fill="url(#a)" d="M13 3.5C13 1.77 10.49 1 8 1s-5 .77-5 2.5v4C3 9.23 5.51 10 8 10s5-.77 5-2.5z"/>
  <path fill="url(#b)" d="M8 2c2.21 0 4 .67 4 1.5S10.21 5 8 5s-4-.67-4-1.5S5.79 2 8 2m0 4c-1.74 0-3.2-.42-3.76-1-.15.16-.24.32-.24.5C4 6.33 5.79 7 8 7s4-.67 4-1.5c0-.18-.1-.34-.24-.5-.55.58-2.02 1-3.76 1m0 2c-1.74 0-3.2-.42-3.76-1-.15.16-.24.32-.24.5C4 8.33 5.79 9 8 9s4-.67 4-1.5c0-.18-.1-.34-.24-.5-.55.58-2.02 1-3.76 1"/>
  <path fill="url(#c)" d="M14 11H8.49c-.46-.6-1.17-1-1.99-1s-1.53.38-1.99 1H2v3h2.51c.46.62 1.2 1 1.99 1s1.53-.4 1.99-1H14z"/>
  <path fill="url(#d)" d="M13 13H9v-1h4zm-6.5-2c-.65 0-1.2.42-1.41 1H3v1h2.09c.21.58.76 1 1.41 1 .83 0 1.5-.67 1.5-1.5S7.33 11 6.5 11"/>
</svg>
