<!-- Copyright © 2000–2024 JetBrains s.r.o. -->
<svg width="16" height="16" viewBox="0 0 16 16" xmlns="http://www.w3.org/2000/svg">
  <path fill="#43454A" stroke="#CED0D6" stroke-linecap="round" stroke-linejoin="round" d="M2.98 2.5c-.83 0-1.5.67-1.5 1.5v8c0 .83.67 1.5 1.5 1.5h10c.83 0 1.5-.67 1.5-1.5V6c0-.83-.67-1.5-1.5-1.5H8.17l-1.89-2z"/>
  <path fill="none" stroke="#CED0D6" stroke-linecap="round" stroke-linejoin="round" d="M8.73 7.5h2.25m-6.5 0h1m1 .75a.75.75 0 1 0 0-1.5.75.75 0 0 0 0 1.5m.25 2.25H4.48m6.5 0h-1m-1 .75a.75.75 0 1 0 0-1.5.75.75 0 0 0 0 1.5"/>
</svg>
