<!-- Copyright © 2000–2024 JetBrains s.r.o. -->
<svg width="16" height="16" viewBox="0 0 16 16" xmlns="http://www.w3.org/2000/svg">
  <path fill="none" stroke="#548AF7" stroke-linecap="round" stroke-linejoin="round" d="M9.23 13.5h3.25m-9 0h2m1 1a1 1 0 1 0 0-2 1 1 0 0 0 0 2"/>
  <path fill="#43454A" fill-rule="evenodd" stroke="#CED0D6" stroke-linecap="round" stroke-linejoin="round" d="M11.48 4v5c0 .83-1.57 1.5-3.5 1.5s-3.5-.67-3.5-1.5V4c0-.83 1.57-1.5 3.5-1.5s3.5.67 3.5 1.5"/>
  <path fill="none" stroke="#CED0D6" stroke-miterlimit="10" d="M11.48 4c0 .83-1.57 1.5-3.5 1.5s-3.5-.67-3.5-1.5m7 2.5c0 .83-1.57 1.5-3.5 1.5s-3.5-.67-3.5-1.5"/>
</svg>
