<!-- Copyright © 2000–2024 JetBrains s.r.o. -->
<svg width="16" height="16" viewBox="0 0 16 16" xmlns="http://www.w3.org/2000/svg">
  <defs>
    <linearGradient id="a" x1="-538.97" x2="-538.97" y1="120.93" y2="119.93" gradientTransform="matrix(15 0 0 -14 8093 1694)" gradientUnits="userSpaceOnUse">
      <stop offset="0" stop-color="#c28c21"/>
      <stop offset="1" stop-color="#634933"/>
    </linearGradient>
    <linearGradient id="b" x1="-533.04" x2="-533.04" y1="121.91" y2="120.92" gradientTransform="matrix(13 0 0 -12 6938 1465)" gradientUnits="userSpaceOnUse">
      <stop offset="0" stop-color="#ffe9bd"/>
      <stop offset="1" stop-color="#d4a24c"/>
    </linearGradient>
    <linearGradient id="c" x1="-524.95" x2="-524.95" y1="126.86" y2="125.86" gradientTransform="matrix(11 0 0 -7 5783 894)" gradientUnits="userSpaceOnUse">
      <stop offset="0" stop-color="#b88143"/>
      <stop offset="1" stop-color="#8a4717"/>
    </linearGradient>
    <linearGradient id="d" x1="4" x2="13" y1="9.5" y2="9.5" gradientUnits="userSpaceOnUse">
      <stop offset="0" stop-color="#e8fffe"/>
      <stop offset="1" stop-color="#b0faff"/>
    </linearGradient>
  </defs>
  <path fill="url(#a)" d="M1 15V3h6.59l2-2H16v14z"/>
  <path fill="url(#b)" d="M15 14V2h-5L8 4H2v10z"/>
  <path fill="url(#c)" d="M3 6h11v7H3z"/>
  <path fill="url(#d)" d="M13 10h-3V9h3zM7.5 8c-.65 0-1.2.42-1.41 1H4v1h2.09c.21.58.76 1 1.41 1 .83 0 1.5-.67 1.5-1.5S8.33 8 7.5 8"/>
</svg>
