<!-- Copyright © 2000–2024 JetBrains s.r.o. -->
<svg width="16" height="16" viewBox="0 0 16 16" xmlns="http://www.w3.org/2000/svg">
  <path fill="#fff" d="M12.98 14h-10c-1.1 0-2-.9-2-2V4c0-1.1.9-2 2-2h3.3c.14 0 .27.06.36.16L8.38 4h4.59c1.1 0 2 .9 2 2v6c0 1.1-.9 2-2 2Zm-10-11c-.55 0-1 .45-1 1v8c0 .55.45 1 1 1h10c.55 0 1-.45 1-1V6c0-.55-.45-1-1-1H8.17c-.14 0-.27-.06-.36-.16L6.07 3H2.99Z"/>
  <path fill="#fff" d="M8.73 8h2.25c.28 0 .5-.22.5-.5s-.22-.5-.5-.5H8.73c-.28 0-.5.22-.5.5s.22.5.5.5M6.48 6.25c-.51 0-.95.31-1.14.75h-.86c-.28 0-.5.22-.5.5s.22.5.5.5h.86c.19.44.63.75 1.14.75a1.25 1.25 0 0 0 0-2.5M6.23 7.5c0-.14.11-.25.25-.25s.25.11.25.25c0 .28-.5.28-.5 0m.5 2.5H4.48c-.28 0-.5.22-.5.5s.22.5.5.5h2.25c.28 0 .5-.22.5-.5s-.22-.5-.5-.5m4.25 0h-.86c-.19-.44-.63-.75-1.14-.75a1.25 1.25 0 0 0 0 2.5c.51 0 .95-.31 1.14-.75h.86c.28 0 .5-.22.5-.5s-.22-.5-.5-.5m-2.25.5c0-.14.11-.25.25-.25s.25.11.25.25c0 .28-.5.28-.5 0"/>
</svg>
