<svg width="16" height="16" viewBox="0 0 16 16" xmlns="http://www.w3.org/2000/svg">
  <path fill="#9aa7b0" d="M1 1v14h14V1H1Zm9 1a1 1 0 1 1 0 2 1 1 0 0 1 0-2ZM6 14a1 1 0 1 1 0-2 1 1 0 0 1 0 2Zm4.937-.369-1.544.191c-.015.062-.041.118-.059.178H7.723A1.987 1.987 0 0 0 6 11.001a1.99 1.99 0 0 0-1.971 1.652c-.079.464.009.942.248 1.347H2.666c-.018-.06-.044-.116-.059-.178L2 13.747v-1.493l.607-.076c.085-.351.225-.687.415-.994l-.96-1.231c.258-.333.557-.632.89-.89l1.232.958c.308-.189.643-.328.994-.414l.192-1.542c.208-.035.419-.057.63-.065.211.008.422.03.63.065l.192 1.542c.351.086.686.225.994.414l1.232-.958c.333.258.632.557.89.89l-.959 1.231c.189.308.329.643.414.994l1.544.193c.034.208.055.418.063.629a5.147 5.147 0 0 1-.063.631ZM14 3.746l-.607.076a3.419 3.419 0 0 1-.415.994l.96 1.231a4.999 4.999 0 0 1-.89.89l-1.232-.958a3.484 3.484 0 0 1-.994.414l-.192 1.542A4.927 4.927 0 0 1 10 8a4.927 4.927 0 0 1-.63-.065l-.192-1.542a3.484 3.484 0 0 1-.994-.414l-1.232.958a4.999 4.999 0 0 1-.89-.89l.959-1.231a3.455 3.455 0 0 1-.414-.994l-1.544-.193A5.095 5.095 0 0 1 5 3c.008-.211.029-.422.063-.631l1.544-.191c.015-.062.041-.118.059-.178h1.611a1.992 1.992 0 0 0 .434 2.535c.361.303.818.467 1.289.464a1.99 1.99 0 0 0 1.971-1.652A1.994 1.994 0 0 0 11.723 2h1.611c.018.06.044.116.059.178l.607.075v1.493Z"/>
</svg>
