<svg width="16" height="16" viewBox="0 0 16 16" xmlns="http://www.w3.org/2000/svg">
  <path fill="#EBECF0" stroke="#6C707E" stroke-linecap="round" stroke-linejoin="round" d="M12.988 5.152a.25.25 0 0 1 0-.304l.734-.958a.248.248 0 0 0 .018-.277l-.419-.726a.25.25 0 0 0-.249-.123l-1.197.157a.25.25 0 0 1-.263-.152l-.462-1.115a.25.25 0 0 0-.231-.154h-.838a.25.25 0 0 0-.231.154l-.462 1.115a.25.25 0 0 1-.263.152l-1.197-.157a.25.25 0 0 0-.249.123l-.419.726a.25.25 0 0 0 .018.277l.734.958a.25.25 0 0 1 0 .304l-.734.958a.248.248 0 0 0-.018.277l.419.726a.25.25 0 0 0 .249.123l1.197-.157a.25.25 0 0 1 .263.152l.462 1.115a.25.25 0 0 0 .231.154h.838a.25.25 0 0 0 .231-.154l.462-1.115a.25.25 0 0 1 .263-.152l1.197.157a.25.25 0 0 0 .249-.123l.419-.726a.25.25 0 0 0-.018-.277l-.734-.958ZM10.5 5.5a.5.5 0 1 1 0-1 .5.5 0 0 1 0 1Zm-2.512 5.652a.25.25 0 0 1 0-.304l.734-.958a.248.248 0 0 0 .018-.277l-.419-.726a.25.25 0 0 0-.249-.123l-1.197.157a.25.25 0 0 1-.263-.152L6.15 7.654a.25.25 0 0 0-.231-.154h-.838a.25.25 0 0 0-.231.154l-.462 1.115a.25.25 0 0 1-.263.152l-1.197-.157a.25.25 0 0 0-.249.123l-.419.726a.25.25 0 0 0 .018.277l.734.958a.25.25 0 0 1 0 .304l-.734.958a.248.248 0 0 0-.018.277l.419.726a.25.25 0 0 0 .249.123l1.197-.157a.25.25 0 0 1 .263.152l.462 1.115a.25.25 0 0 0 .231.154h.838a.25.25 0 0 0 .231-.154l.462-1.115a.25.25 0 0 1 .263-.152l1.197.157a.25.25 0 0 0 .249-.123l.419-.726a.25.25 0 0 0-.018-.277l-.734-.958ZM5.5 11.5a.5.5 0 1 1 0-1 .5.5 0 0 1 0 1Z"/>
</svg>
