<svg width="16" height="16" viewBox="0 0 16 16" xmlns="http://www.w3.org/2000/svg">
    <path fill="#299cce" d="m9.5 8-2.016 7H5.991L4 8h1.722s.778 3.698 1.13 5.57h.265C7.499 11.706 8.423 8 8.423 8H9.5Zm5.5 4.911C15 14.289 13.961 15 12.558 15H10V8h2.423c1.221 0 2.312.425 2.312 1.64 0 .784-.564 1.368-1.295 1.582v.02c.966.125 1.56.803 1.56 1.669ZM11.541 11h.685c.686 0 1.159-.371 1.159-1.07 0-.62-.424-.93-1.272-.93h-.572v2Zm2.184 1.974c0-.671-.568-.974-1.299-.974h-.885v2h.874c.747 0 1.31-.335 1.31-1.026Z"/>
    <path fill="#d9a343" d="M12 2.447a.375.375 0 0 0-.375.375V4c0 .131.068.253.181.321l1.05.635a.374.374 0 0 0 .515-.127.378.378 0 0 0-.127-.516l-.869-.525v-.966A.375.375 0 0 0 12 2.447Z"/>
    <path fill="#d9a343" d="M12 1.125H9.982l.207-.207a.377.377 0 0 0 0-.531.377.377 0 0 0-.531 0l-.848.848a.377.377 0 0 0 0 .531l.848.848a.377.377 0 0 0 .532 0 .377.377 0 0 0 0-.531l-.207-.207h2.018c2.105 0 2.125.02 2.125 2.125s-.02 2.125-2.125 2.125-2.125-.02-2.125-2.125a.375.375 0 0 0-.75 0c0 2.525.35 2.875 2.875 2.875s2.875-.35 2.875-2.875-.35-2.875-2.875-2.875Z"/>
    <path fill="#9aa7b0" d="M8.125 4c0-.412.183-.783.471-1.035l-.492-.492A1.373 1.373 0 0 1 7.8 2H1v10h2v-1H2V5h6.163a12.191 12.191 0 0 1-.038-1Z"/>
</svg>
