<svg width="16" height="16" viewBox="0 0 16 16" xmlns="http://www.w3.org/2000/svg">
  <path fill="#EDF3FF" d="M13.5 2.5h-11a2 2 0 0 0-2 2v7a2 2 0 0 0 2 2h11a2 2 0 0 0 2-2v-7a2 2 0 0 0-2-2Z"/>
  <path fill="#EBECF0" d="M8 15.25a1.75 1.75 0 1 0 0-3.5 1.75 1.75 0 0 0 0 3.5Z"/>
  <path fill="none" stroke="#6C707E" stroke-linecap="round" stroke-linejoin="round" stroke-width=".75" d="M9.28 12.314A1.739 1.739 0 0 0 8 11.75a1.75 1.75 0 0 0 0 3.5c.507 0 .96-.219 1.28-.564"/>
  <path fill="#3574F0" d="M8 14.25a.75.75 0 1 0 0-1.5.75.75 0 0 0 0 1.5Z"/>
  <path fill="none" stroke="#3574F0" stroke-linecap="round" stroke-linejoin="round" d="M10.932 13.5H13.5a2 2 0 0 0 2-2v-7a2 2 0 0 0-2-2h-11a2 2 0 0 0-2 2v7a2 2 0 0 0 2 2h1.875"/>
  <path fill="#3574F0" d="M2.771 5.2h1.052l1.569 4.348L6.879 5.2h1.06l-2.051 5.6H4.835L2.771 5.2Zm10.116 1.468c0 .607-.356 1.046-.892 1.208.643.172 1.035.706 1.035 1.372 0 .979-.852 1.552-1.867 1.552h-2.44V5.2h2.392c.955 0 1.772.538 1.772 1.468Zm-1.876.9c.495 0 .876-.289.876-.792 0-.447-.319-.784-.876-.784H9.687v1.576h1.324Zm.048 2.439c.536 0 .96-.298.96-.824s-.424-.848-.96-.848H9.687v1.672h1.372Z"/>
</svg>
