<svg width="16" height="16" viewBox="0 0 16 16" xmlns="http://www.w3.org/2000/svg">
  <path fill="#25324D" d="M13.5 2.5h-11a2 2 0 0 0-2 2v7a2 2 0 0 0 2 2h2.125c0-.232.059-.452.161-.645l-.383-.383a1.38 1.38 0 0 1-.002-1.943l.85-.85c.26-.26.605-.402.973-.402a1.37 1.37 0 0 1 1.27.847h.507c2.618 0 3.375.757 3.375 3.375h2.125a2 2 0 0 0 2-2v-7a2 2 0 0 0-2-2L13.5 2.5Z"/>
  <path fill="none" stroke="#548AF7" stroke-linecap="round" stroke-miterlimit="10" d="M4.125 13.5H2.5a2 2 0 0 1-2-2v-7a2 2 0 0 1 2-2h11a2 2 0 0 1 2 2v7a2 2 0 0 1-2 2h-1.625"/>
  <path fill="#45322B" d="M6 13.5c0-1.855.145-2 2-2s2 .145 2 2-.145 2-2 2-2-.145-2-2Z"/>
  <path fill="none" stroke="#C77D55" stroke-linecap="round" stroke-linejoin="round" stroke-width=".75" d="M8 12.557v.943l.84.508m-2.616-3.356-.848.848.848.848"/>
  <path fill="none" stroke="#C77D55" stroke-linecap="round" stroke-linejoin="round" stroke-width=".75" d="M5.876 11.5H8c1.855 0 2 .145 2 2s-.145 2-2 2-2-.145-2-2"/>
  <path fill="#548AF7" d="M5.251 9.68c.26-.26.605-.402.973-.402.072 0 .137.03.207.041L7.94 5.201H6.879L5.392 9.549 3.824 5.201H2.772l1.874 5.085.605-.606Zm6.744-1.804c.535-.162.892-.601.892-1.208 0-.93-.818-1.468-1.772-1.468H8.723v4.955c.874.063 1.492.256 1.904.644h.536c1.015 0 1.867-.572 1.867-1.552 0-.666-.392-1.199-1.035-1.371ZM9.686 5.992h1.324c.557 0 .876.337.876.784 0 .503-.381.792-.876.792H9.686V5.992Zm1.372 4.016H9.686V8.336h1.372c.536 0 .96.323.96.848 0 .525-.424.824-.96.824Z"/>
</svg>
