<svg width="16" height="16" viewBox="0 0 16 16" xmlns="http://www.w3.org/2000/svg">
    <path fill="#9aa7b0" d="M12 1a3 3 0 1 0 0 6 3 3 0 0 0 0-6Zm0 5a2 2 0 1 1-.001-3.999A2 2 0 0 1 12 6Z"/>
    <path fill="#40b6e0" d="M13.5 4a1.5 1.5 0 1 1-3.001-.001A1.5 1.5 0 0 1 13.5 4Z"/>
    <path fill="#9aa7b0" d="M8.141 5A3.977 3.977 0 0 1 8 4c0-.732.211-1.41.555-2H1v10h2v-1H2V5h6.141Z"/>
    <path fill="#299cce" d="m9.5 8-2.016 7H5.991L4 8h1.722s.778 3.698 1.13 5.57h.265C7.499 11.706 8.423 8 8.423 8H9.5Zm5.5 4.911C15 14.289 13.961 15 12.558 15H10V8h2.423c1.221 0 2.312.425 2.312 1.64 0 .784-.564 1.368-1.295 1.582v.02c.966.125 1.56.803 1.56 1.669ZM11.541 11h.685c.686 0 1.159-.371 1.159-1.07 0-.62-.424-.93-1.272-.93h-.572v2Zm2.184 1.974c0-.671-.568-.974-1.299-.974h-.885v2h.874c.747 0 1.31-.335 1.31-1.026Z"/>
</svg>
