<svg width="16" height="16" viewBox="0 0 16 16" xmlns="http://www.w3.org/2000/svg">
  <path fill="#f4f4f4" d="M0 1h14v12H0V1Z"/>
  <path fill="#323232" d="M1 2h12v10H1V2Z"/>
  <path fill="#323232" d="M1 2h12v3H1V2Z"/>
  <path fill="#ebebeb" d="M2 5h11v7H2V5Z"/>
  <path fill="#f4f4f4" d="M15.735 9.64C15.732 8.364 14.865 7 12.423 7H7.642s-.378 1.516-.6 2.434C6.847 8.491 6.534 7 6.534 7H3v1.14L5.236 16h3L9 13.351V16h3.558c2.059 0 3.434-1.242 3.442-3.089a2.623 2.623 0 0 0-.717-1.82c.297-.425.453-.932.452-1.451Z"/>
  <path fill="#00539c" d="m9.5 8-2.016 7H5.991L4 8h1.722s.778 3.7 1.13 5.57h.266C7.5 11.706 8.423 8 8.423 8H9.5Zm5.5 4.911C14.995 14.289 13.961 15 12.558 15H10V8h2.423c1.221 0 2.33.425 2.312 1.64a1.678 1.678 0 0 1-1.295 1.582v.019c.424.026.823.214 1.113.524.29.311.449.721.447 1.146ZM11.541 11h.685a1.034 1.034 0 0 0 1.159-1.07L12.113 9h-.572v2Zm2.184 1.974c0-.671-.568-.974-1.3-.974h-.885v2h.874c.748 0 1.311-.335 1.311-1.026Z"/>
  <path fill="#f4f4f4" d="M12 7.875c-1.333 0-2.844 0-3.526-1.396-.22-.451-.17-.964.085-1.356l-.879-.878a1.38 1.38 0 0 1-.002-1.943c.184-.185.41-.31.656-.368C8.776.427 9.962.125 12 .125c3.078 0 3.875.797 3.875 3.875S15.078 7.875 12 7.875Z"/>
  <path fill="#c7781a" d="M14.875 4c0 2.525-.35 2.875-2.875 2.875-1.376 0-2.239-.04-2.628-.835a.375.375 0 1 1 .674-.33c.161.33.562.415 1.954.415 2.105 0 2.125-.02 2.125-2.125S14.105 1.875 12 1.875c-1.792 0-2.07.027-2.114 1.328l.196-.196a.377.377 0 0 1 .531 0 .377.377 0 0 1 0 .531l-.848.848a.377.377 0 0 1-.532 0l-.848-.848a.377.377 0 0 1 0-.531.377.377 0 0 1 .531 0l.225.225c.091-1.824.617-2.107 2.857-2.107 2.525 0 2.875.35 2.875 2.875ZM12 2.447a.375.375 0 0 0-.375.375V4c0 .131.068.253.181.321l1.05.635a.374.374 0 0 0 .515-.127.378.378 0 0 0-.127-.516l-.869-.525v-.966A.375.375 0 0 0 12 2.447Z"/>
</svg>
