<svg width="16" height="16" viewBox="0 0 16 16" xmlns="http://www.w3.org/2000/svg">
  <path fill="#43454A" stroke="#CED0D6" stroke-linecap="round" stroke-miterlimit="10" d="M15.5 11.5v-7a2 2 0 0 0-2-2h-11a2 2 0 0 0-2 2v7a2 2 0 0 0 2 2h11a2 2 0 0 0 2-2Z"/>
  <path fill="#CED0D6" d="M7.73 5.309 6.665 9.357 5.61 5.309h-.817L3.752 9.358 2.661 5.309h-.846L3.298 10.7h.827l1.066-4.013L6.238 10.7h.83l1.484-5.391H7.73Zm5.168 2.64 1.568-2.64h-.934l-1.105 1.924-1.108-1.924h-.952l1.565 2.636-1.647 2.755h.944l1.17-2.032 1.196 2.032h.958l-1.655-2.751Z"/>
  <path fill="#E08855" d="M8.997 4.024h.997v.879h-.997v-.879Zm.046 6.676h.905V5.309h-.905V10.7Z"/>
</svg>
