<svg width="16" height="16" viewBox="0 0 16 16" xmlns="http://www.w3.org/2000/svg">
  <path fill="#9aa7b0" d="M13 5V2H1v10h1V5h11z"/>
  <path fill="#9aa7b0" d="m8.429 9-.772 4.022L6.765 9H5.699l-.892 4.022L4.035 9H3.001c0 .043-.007.085.003.128L4.241 15h1.063l.927-4.049L7.158 15h1.063l1.237-5.872c.01-.043.003-.085.003-.128H8.427Zm5.988 0h1.074a.683.683 0 0 1-.062.308l-1.346 2.572 1.346 2.812a.672.672 0 0 1 .062.308h-1.074l-.917-2.194L12.583 15h-1.074c0-.106.014-.211.062-.308l1.346-2.812-1.346-2.572A.672.672 0 0 1 11.509 9h1.074l.917 1.954L14.417 9Z"/>
  <path fill="#f26522" d="M10 9h1v6h-1zm0-1.8h1v1.129h-1z"/>
</svg>
