<!-- Copyright © 2000–2024 JetBrains s.r.o. -->
<svg width="16" height="16" viewBox="0 0 16 16" xmlns="http://www.w3.org/2000/svg">
  <path fill="#43454A" d="M5.71 12.97c0-.37.17-.72.44-.96l.57-.51-.57-.51c-.27-.25-.43-.6-.44-.96 0-.37.13-.72.39-.98l.54-.54c.26-.25.59-.39.95-.39.27 0 .53.08.75.23l1.06.73 2.9-2.62c.32-.29.73-.45 1.16-.45.27 0 .54.06.77.18l.26.13v-.31c0-.83-.67-1.5-1.5-1.5H8.24l-.15-.15-1.62-1.69a.48.48 0 0 0-.36-.15H2.62c-.57 0-1.13.55-1.13 1.37v8.27c0 .82.57 1.37 1.13 1.37h3.17c-.07-.17-.1-.35-.09-.53z"/>
  <path fill="none" stroke="#CED0D6" stroke-linecap="round" d="M5.28 13.5H2.64c-.57 0-1.13-.55-1.13-1.37V3.87c0-.82.57-1.37 1.13-1.37h3.49c.14 0 .27.06.36.15l1.62 1.69.15.15h4.75c.74 0 1.35.53 1.48 1.24.02.09.02.17.02.26"/>
  <path fill="#548AF7" d="m15.6 7.97-1.8-.9a.75.75 0 0 0-.82.11l-3.49 3.16-1.7-1.18a.35.35 0 0 0-.44.04l-.54.54c-.07.07-.1.16-.1.25s.04.18.11.25l1.39 1.26-1.39 1.26c-.07.06-.11.15-.11.25 0 .09.03.19.1.25l.54.54c.12.12.3.13.44.04l1.7-1.18 3.49 3.16c.22.2.55.25.82.11l1.8-.9c.25-.12.4-.38.4-.66V8.64c0-.28-.16-.53-.4-.66zm-2.25 5.04-2.19-1.51 2.19-1.51v3.03z"/>
</svg>
