<svg width="16" height="16" viewBox="0 0 16 16" xmlns="http://www.w3.org/2000/svg">
  <path fill="#57965C" d="M10.333 5.983h-.845v-.772H10.5l.3-1.41h-.883V3.03h1.051l.326-1.53h.853l-.326 1.526h1.277l.326-1.526h.853l-.326 1.521h.845v.771h-1.012l-.3 1.41h.883v.772h-1.051l-.326 1.525h-.853l.326-1.522h-1.277l-.326 1.522h-.853l.326-1.516Zm2.297-.776.301-1.41h-1.277l-.301 1.41h1.277ZM1.665 5.5c0-2.073 1.481-3.62 3.5-3.62 1.631 0 3.091 1.119 3.24 2.575h-1.21C7.012 3.688 6.167 3 5.16 3 3.819 3 2.925 4.087 2.925 5.5c0 1.425.906 2.5 2.235 2.5 1.01 0 1.852-.683 2.035-1.44h1.21c-.152 1.475-1.647 2.56-3.24 2.56-2.03 0-3.5-1.557-3.5-3.62Z"/>
  <path fill="#A571E6" d="M13.576 12.99c-.371 0-.704-.162-.862-.493a1.16 1.16 0 0 1-.979.504c-.825 0-1.327-.648-1.327-1.483 0-.85.516-1.483 1.327-1.483.344 0 .708.12.886.414l-.003-.379h.676v2.055c0 .206.134.352.324.352.439 0 .596-.563.596-1.01 0-1.405-.919-2.39-2.276-2.39-1.344 0-2.31.984-2.31 2.493 0 1.403.99 2.338 2.393 2.338h1.986v.593h-1.986c-1.8 0-3.02-1.198-3.02-2.931 0-1.809 1.183-3.069 2.938-3.069 1.738 0 2.904 1.228 2.904 2.966 0 .843-.473 1.524-1.266 1.524l-.001-.001Zm-1.71-.593c.458 0 .697-.406.697-.879 0-.577-.32-.879-.697-.879-.466 0-.707.407-.707.879 0 .578.325.879.707.879Z"/>
</svg>
