<svg width="16" height="16" viewBox="0 0 16 16" xmlns="http://www.w3.org/2000/svg">
  <path fill="#A571E6" d="M11.31 10.979c-.741 0-1.407-.323-1.724-.986C9.139 10.633 8.451 11 7.627 11c-1.65 0-2.654-1.296-2.654-2.966 0-1.7 1.033-2.965 2.654-2.965.687 0 1.416.24 1.772.827l-.007-.758h1.352v4.11c0 .412.267.703.648.703.879 0 1.193-1.126 1.193-2.02 0-2.81-1.837-4.78-4.552-4.78-2.688 0-4.62 1.968-4.62 4.986 0 2.806 1.979 4.676 4.785 4.676h3.972v1.186H8.198c-3.6 0-6.041-2.396-6.041-5.862 0-3.618 2.365-6.138 5.875-6.138 3.476 0 5.807 2.455 5.807 5.931 0 1.685-.947 3.048-2.531 3.048l.002.001ZM7.89 9.793c.916 0 1.393-.812 1.393-1.759 0-1.155-.64-1.758-1.393-1.758-.932 0-1.414.814-1.414 1.758 0 1.156.651 1.759 1.414 1.759Z"/>
</svg>
