<svg width="12" height="12" viewBox="0 0 12 12" fill="none" xmlns="http://www.w3.org/2000/svg">
  <path d="M6 3.30275C9.03757 3.30275 11.5 2.56341 11.5 1.65138C11.5 0.739346 9.03757 0 6 0C2.96243 0 0.5 0.739346 0.5 1.65138C0.5 2.56341 2.96243 3.30275 6 3.30275Z" fill="#6E6E6E"/>
  <path d="M11.5 3.23423C10.2834 3.94156 8.27352 4.40367 5.99999 4.40367C3.72647 4.40367 1.71656 3.94156 0.5 3.23424V4.51377C0.5 5.4258 2.96243 6.16515 6 6.16515C6.3415 6.16515 6.67572 6.1558 7 6.13792V5H11.2577C11.4152 4.84628 11.5 4.683 11.5 4.51377V3.23423Z" fill="#6E6E6E"/>
  <path d="M5 11.9727C2.43992 11.8315 0.500053 11.1581 0.5 10.3486V8.95901C1.53473 9.56061 3.14338 9.98482 5 10.0982V11.9727Z" fill="#6E6E6E"/>
  <path d="M5 9.00158V7.23584C3.14338 7.12247 1.53473 6.69826 0.5 6.09665V7.45666C0.5 8.22667 2.43988 8.86727 5 9.00158Z" fill="#6E6E6E"/>
  <path d="M10 6H8V8H6V10H8V12H10V10H12V8H10V6Z" fill="#6E6E6E"/>
</svg>
