<svg width="16" height="16" viewBox="0 0 16 16" xmlns="http://www.w3.org/2000/svg">
  <path fill="#40b6e0" d="M4.985 5.696c-.196-.494-.701-2.296-.813-2.982.231 0 .442.143.56.579.142.528.505 2.449 1.129 2.992-.34.013-.683-.101-.876-.589ZM9.286 2S8.283 4.235 8.117 4.527a4.709 4.709 0 0 1-.364.553C8.082 4.207 8.769 2 8.769 2h-.12c-.952 0-1.329.709-1.537 1.728-.101.494-.453 1.822-.618 2.196-.11-.343-.38-2.29-.734-3.066-.26-.57-.615-.857-1.134-.857H2.951c-.323 0-.647.183-1.022.564C1.338 3.167.435 4.891 0 6.992h.859c.216-1.181.638-2.401 1.269-3.206-.364.939-.711 2.37-.826 3.193.672-.061 1.141-.411 1.228-1.05.117-.856.446-2.277.985-2.91.117.416.391 2.058.576 2.641.248.783.497 1.34 1.084 1.34h1.863c.506 0 .891-.622 1.248-1.223C8.597 5.253 9.832 2.658 10 2h-.714Z"/>
  <path fill="#9aa7b0" d="M10.607 3.225a40.177 40.177 0 0 1-.824 1.811c.389.61.697 1.27.908 1.965H8.682c-.385.52-.903 1-1.644 1h-.966a7.785 7.785 0 0 0 0 1.999H4.413a4.698 4.698 0 0 1-.112-.999c0-.344.042-.677.112-1h.762c-.943 0-1.443-.631-1.736-1.244A6 6 0 0 0 3 9a6.003 6.003 0 0 0 6 6 6.003 6.003 0 0 0 6-6 6 6 0 0 0-4.393-5.775Zm2.628 3.776h-1.503a8.522 8.522 0 0 0-1.016-2.358 4.73 4.73 0 0 1 2.519 2.358Zm-6.15 1h3.83c.047.32.078.651.078.999s-.031.679-.078.999h-3.83c-.047-.32-.078-.651-.078-.999s.031-.679.078-.999Zm-2.32 2.998h1.503c.218.833.56 1.628 1.016 2.358a4.73 4.73 0 0 1-2.519-2.358Zm4.511 2.68c-.093.005-.181.019-.276.02-.095-.001-.183-.015-.276-.02a7.967 7.967 0 0 1-1.415-2.68h3.382a7.967 7.967 0 0 1-1.415 2.68Zm1.44-.322a8.522 8.522 0 0 0 1.016-2.358h1.503a4.73 4.73 0 0 1-2.519 2.358Zm1.212-3.358a7.77 7.77 0 0 0 0-1.998h1.659c.07.323.112.655.112.999s-.042.676-.112.999h-1.659Z"/>
</svg>
