<svg width="16" height="16" viewBox="0 0 16 16" xmlns="http://www.w3.org/2000/svg">
  <path fill="#40b6e0" d="M5 0C2.241 0 0 2.24 0 5s2.241 5 5 5 5-2.24 5-5-2.24-5-5-5Zm0 9a4.005 4.005 0 0 1-3.975-4.43A5.03 5.03 0 0 0 3.63 1.885 4.987 4.987 0 0 0 8.835 3.87C8.94 4.225 9 4.605 9 5c0 2.205-1.795 4-4 4Z"/>
  <circle cx="6.5" cy="5.5" r=".625" fill="#40b6e0"/>
  <circle cx="3.5" cy="5.5" r=".625" fill="#40b6e0"/>
  <path fill="#9aa7b0" d="M10.742 3.26c.147.484.229.996.247 1.523a4.718 4.718 0 0 1 2.246 2.218h-1.503a8.485 8.485 0 0 0-.741-1.832 5.97 5.97 0 0 1-.32 1.777l.02.055h-.04a5.93 5.93 0 0 1-.461 1h.725c.047.32.078.651.078.999s-.031.679-.078.999H8.316a5.97 5.97 0 0 1-3.296 1h1.249c.218.833.56 1.628 1.016 2.358a4.73 4.73 0 0 1-2.519-2.358h.216a5.962 5.962 0 0 1-1.721-.258A6.005 6.005 0 0 0 9.001 15a6.003 6.003 0 0 0 6-6 6.003 6.003 0 0 0-4.258-5.74ZM9.276 13.679c-.093.005-.181.019-.276.02-.095-.001-.183-.015-.276-.02a7.967 7.967 0 0 1-1.415-2.68h3.382a7.967 7.967 0 0 1-1.415 2.68Zm1.44-.322a8.522 8.522 0 0 0 1.016-2.358h1.503a4.73 4.73 0 0 1-2.519 2.358Zm1.212-3.358a7.77 7.77 0 0 0 0-1.998h1.659c.07.323.112.655.112.999s-.042.676-.112.999h-1.659Z"/>
</svg>
