<svg width="16" height="16" viewBox="0 0 16 16" xmlns="http://www.w3.org/2000/svg">
  <path fill="#f26522" d="M1 4h3V1H1v3z"/>
  <path fill="#62b543" d="M5 4h3V1H5v3z"/>
  <path fill="#40b6e0" d="M1 8h3V5H1v3z"/>
  <path fill="#f4af3d" d="M5 8h3V5H5v3z"/>
  <path fill="#9aa7b0" d="M11.929 10a7.863 7.863 0 0 0 0-2h1.659c.07.323.112.656.112 1s-.042.677-.112 1h-1.659Zm-1.212 3.358A8.524 8.524 0 0 0 11.733 11h1.503a4.732 4.732 0 0 1-2.519 2.358Zm-1.44.322c-.095.005-.186.02-.283.02-.096 0-.188-.015-.282-.021A7.925 7.925 0 0 1 7.297 11h3.395a7.968 7.968 0 0 1-1.415 2.68ZM4.763 11h1.493a8.552 8.552 0 0 0 1.014 2.356A4.73 4.73 0 0 1 4.763 11Zm5.954-6.358A4.732 4.732 0 0 1 13.236 7h-1.503a8.553 8.553 0 0 0-1.016-2.358ZM9 3v1.301c.095 0 .184.014.277.019A7.968 7.968 0 0 1 10.692 7H9v1h1.916c.047.32.078.651.078 1s-.031.68-.078 1H7.073a6.833 6.833 0 0 1-.079-1h-1c0 .347.025.679.066 1H4.412A4.707 4.707 0 0 1 4.3 9H3c0 3.313 2.682 6 5.994 6S15 12.313 15 9s-2.684-5.996-6-6Z"/>
</svg>
