<svg width="16" height="16" viewBox="0 0 16 16" xmlns="http://www.w3.org/2000/svg">
  <path fill="#9aa7b0" d="M11.929 10a7.863 7.863 0 0 0 0-2h1.659c.07.323.112.656.112 1s-.042.677-.112 1h-1.659Zm-1.212 3.358A8.524 8.524 0 0 0 11.733 11h1.503a4.732 4.732 0 0 1-2.519 2.358Zm-1.44.322c-.095.005-.186.02-.283.02-.096 0-.188-.015-.282-.021A7.925 7.925 0 0 1 7.297 11h3.395a7.968 7.968 0 0 1-1.415 2.68Zm1.465-10.42c.146.484.228.994.247 1.521A4.714 4.714 0 0 1 13.236 7h-1.503a8.229 8.229 0 0 0-.741-1.838 5.966 5.966 0 0 1-.32 1.782c.006.02.014.036.02.056h-.04c-.124.35-.278.684-.461 1h.725c.047.321.078.651.078 1s-.031.679-.078 1H8.314a5.856 5.856 0 0 1-2.089.859c.031.127.252 1.217 1.045 2.497a4.73 4.73 0 0 1-2.496-2.338l-.02-.037a5.989 5.989 0 0 1-1.495-.24A5.995 5.995 0 0 0 8.994 15 6.003 6.003 0 0 0 15 9a6.003 6.003 0 0 0-4.258-5.74Z"/>
  <path fill="#40b6e0" d="M5 6.784a1.784 1.784 0 1 1 0-3.567 1.784 1.784 0 0 1 0 3.567Zm3.244-1.306c.023-.157.048-.314.048-.478 0-.163-.025-.32-.048-.477l1.488-1.065a4.96 4.96 0 0 0-1.026-1.787l-1.672.759a3.306 3.306 0 0 0-.826-.486L6.029.108C5.696.039 5.353 0 5 0s-.696.039-1.029.108l-.179 1.836c-.302.12-.575.288-.826.486l-1.672-.759A4.96 4.96 0 0 0 .268 3.458l1.488 1.065c-.023.157-.048.314-.048.477 0 .164.025.321.048.478L.268 6.542a4.95 4.95 0 0 0 1.026 1.787l1.672-.759c.251.199.524.367.826.486l.179 1.836a4.99 4.99 0 0 0 2.058 0l.179-1.836c.302-.119.575-.287.826-.486l1.672.759a4.95 4.95 0 0 0 1.026-1.787L8.244 5.478Z"/>
</svg>
