<svg xmlns="http://www.w3.org/2000/svg" width="16" height="16"><defs><linearGradient id="a" x1="8.5" y1="1.023" x2="8.5" y2="14.939" gradientUnits="userSpaceOnUse"><stop offset="0" stop-color="#c28c21"/><stop offset="1" stop-color="#634933"/></linearGradient><linearGradient id="b" x1="8.5" y1="2.02" x2="8.5" y2="13.948" gradientUnits="userSpaceOnUse"><stop offset="0" stop-color="#ffe9bd"/><stop offset="1" stop-color="#d4a24c"/></linearGradient><linearGradient id="c" x1="8.5" y1="6.012" x2="8.5" y2="12.97" gradientUnits="userSpaceOnUse"><stop offset="0" stop-color="#b88143"/><stop offset="1" stop-color="#8a4717"/></linearGradient><linearGradient id="d" x1="6.884" y1="2.046" x2="6.884" y2="12.558" gradientUnits="userSpaceOnUse"><stop offset="0" stop-color="#656e0c"/><stop offset="1" stop-color="#101a40"/></linearGradient><linearGradient id="e" x1="4.5" y1="3.116" x2="4.5" y2="10.354" gradientUnits="userSpaceOnUse"><stop offset="0" stop-color="#fff6a6"/><stop offset="1" stop-color="#ffd3ab"/></linearGradient><linearGradient id="f" x1="3.972" y1="6.186" x2="11.592" y2="10.603" gradientUnits="userSpaceOnUse"><stop offset="0" stop-color="#bfefff"/><stop offset="1" stop-color="#76aef5"/></linearGradient></defs><path fill="url(#a)" d="M1 15V3h6.586l2-2H16v14H1z"/><path fill="url(#b)" d="M15 14V2h-5L8 4H2v10h13z"/><path fill="url(#c)" d="M3 6h11v7H3z"/><g><path d="M6 9.243V9.5c0 .827-.673 1.5-1.5 1.5S3 10.327 3 9.5v-.402l-.348.201a1.497 1.497 0 0 1-2.049-.548 1.503 1.503 0 0 1 .549-2.05L1.5 6.5l-.348-.201a1.504 1.504 0 0 1-.551-2.048 1.503 1.503 0 0 1 2.05-.551L3 3.902V3.5C3 2.673 3.673 2 4.5 2S6 2.673 6 3.5v.402l.348-.201a1.5 1.5 0 1 1 1.5 2.598l-.223.129 5.741 3.314-1.625 2.815L6 9.242Z" fill="url(#d)"/><path d="M4.5 3a.5.5 0 0 1 .5.5v1a.5.5 0 0 1-1 0v-1a.5.5 0 0 1 .5-.5Zm0 5a.5.5 0 0 1 .5.5v1a.5.5 0 0 1-1 0v-1a.5.5 0 0 1 .5-.5ZM1.469 4.75a.5.5 0 0 1 .683-.183l.866.5a.5.5 0 0 1-.5.866l-.866-.5a.5.5 0 0 1-.183-.683Zm0 3.5a.5.5 0 0 1 .183-.683l.866-.5a.5.5 0 0 1 .5.866l-.866.5a.5.5 0 0 1-.683-.183Zm4.33-2.5a.5.5 0 0 1 .183-.683l.866-.5a.5.5 0 0 1 .5.866l-.866.5a.5.5 0 0 1-.683-.183Z" fill="url(#e)"/><path d="m12 10.108-7.188-4.15a.625.625 0 1 0-.625 1.083l7.188 4.15.625-1.083Z" fill="url(#f)"/></g></svg>