<svg width="16" height="16" viewBox="0 0 16 16" xmlns="http://www.w3.org/2000/svg">
  <path fill="#fff" d="m1.147 2.854 1.499 1.499a.498.498 0 0 0 .708 0 .502.502 0 0 0 0-.708l-.646-.646h2.141c.582 0 1.116.341 1.361.868l.042.091a.5.5 0 0 0 .954-.21c0-.124-.039-.195-.088-.302A2.504 2.504 0 0 0 4.85 1.999H2.709l.646-.646a.498.498 0 0 0 0-.708.5.5 0 0 0-.707 0L1.149 2.144a.502.502 0 0 0 0 .708Zm13.706 0-1.499 1.499a.498.498 0 0 1-.708 0 .502.502 0 0 1 0-.708l.646-.646h-2.141c-.582 0-1.116.341-1.361.868l-.042.091a.5.5 0 0 1-.954-.21c0-.124.039-.195.088-.302a2.504 2.504 0 0 1 2.268-1.447h2.141l-.646-.646a.498.498 0 0 1 0-.708.5.5 0 0 1 .707 0l1.499 1.499a.502.502 0 0 1 0 .708ZM13.5 10.5h-1.551a3.957 3.957 0 0 0-.43-1.361l1.475-.828a.5.5 0 0 0-.49-.871l-1.56.876a4.003 4.003 0 0 0-1.013-.796 2.002 2.002 0 0 0-1.932-2.519A2.002 2.002 0 0 0 6.067 7.52c-.38.212-.722.477-1.013.796l-1.56-.876a.5.5 0 0 0-.49.871l1.475.828a3.915 3.915 0 0 0-.43 1.361H2.498a.5.5 0 0 0 0 1h1.551c.062.488.209.944.43 1.361l-1.475.828a.499.499 0 1 0 .49.871l1.56-.876c.732.802 1.776 1.315 2.945 1.315s2.213-.513 2.945-1.315l1.56.876a.5.5 0 0 0 .49-.871l-1.475-.828c.222-.417.369-.873.43-1.361H13.5a.5.5 0 0 0 0-1ZM8 6c.551 0 1 .448 1 1 0 .046-.012.091-.018.136C8.666 7.055 8.341 7 8 7s-.666.056-.982.136C7.012 7.09 7 7.046 7 7c0-.552.449-1 1-1Zm0 8c-1.654 0-3-1.346-3-3s1.346-3 3-3 3 1.346 3 3-1.346 3-3 3Z"/>
</svg>
