<svg width="16" height="16" viewBox="0 0 16 16" xmlns="http://www.w3.org/2000/svg">
  <path fill="#252525" d="M8 16a4.42 4.42 0 0 1-2.684-.898l-.904.508a.999.999 0 0 1-1.363-.383l-.489-.872a.998.998 0 0 1 .375-1.356 1.001 1.001 0 0 1-.936-.998v-1a1 1 0 0 1 .936-.998 1 1 0 0 1-.375-1.356l.489-.872a1.006 1.006 0 0 1 .873-.511c.17 0 .339.043.49.128l.6.337C5.15 6.203 6.437 5.001 8 5.001s2.85 1.201 2.988 2.728l.6-.337a.999.999 0 0 1 1.363.383l.489.872a.998.998 0 0 1-.375 1.356c.522.033.936.468.936.998v1a1 1 0 0 1-.936.998 1 1 0 0 1 .375 1.356l-.489.872a1.006 1.006 0 0 1-.873.511.999.999 0 0 1-.49-.128l-.904-.508A4.42 4.42 0 0 1 8 16Z"/>
  <path fill="#c4c4c4" d="M13 12v-1h-1.551a3.45 3.45 0 0 0-.329-1.053l1.447-.812-.489-.872-1.527.857a3.518 3.518 0 0 0-.644-.548C9.962 8.39 10 8.2 10 8c0-1.103-.897-2-2-2s-2 .897-2 2c0 .2.038.39.093.572a3.479 3.479 0 0 0-.644.548l-1.527-.857-.489.872 1.447.812A3.458 3.458 0 0 0 4.551 11H3v1h1.551c.054.374.166.727.329 1.053l-1.447.812.489.872 1.527-.857C6.088 14.565 6.991 15 8 15s1.911-.435 2.551-1.12l1.527.857.489-.872-1.447-.812c.163-.327.275-.679.329-1.053H13Z"/>
  <path fill="#292929" d="M8 9.5c-1.103 0-2 .897-2 2s.897 2 2 2 2-.897 2-2-.897-2-2-2Zm-.969-1.346C7.023 8.102 7 8.055 7 8a1.001 1.001 0 0 1 2 0c0 .054-.023.101-.031.154C8.659 8.064 8.338 8 8 8s-.659.063-.969.154Z"/>
  <path fill="#252525" d="M5.8 0H2.586L0 2.586v.828L2.586 6H5.8V4.75H8v-1.5c0-1.103-.897-2-2-2h-.2V0Z"/>
  <path fill="#f28366" d="M7 3.25a1 1 0 0 0-1-1H3.55L4.8 1H3L1 3l2 2h1.8L3.55 3.75H7v-.5Z"/>
  <path fill="#252525" d="M10.2 0h3.214L16 2.586v.828L13.414 6H10.2V4.75H8v-1.5c0-1.103.897-2 2-2h.2V0Z"/>
  <path fill="#8dcf8d" d="M9 3.25a1 1 0 0 1 1-1h2.45L11.2 1H13l2 2-2 2h-1.8l1.25-1.25H9v-.5Z"/>
</svg>
