<svg xmlns="http://www.w3.org/2000/svg" width="16" height="16" viewBox="0 0 16 16">
  <g fill="none" fill-rule="evenodd">
    <polygon fill="#FFD3FF" points="0 16 16 16 16 0 0 0" opacity="0"/>
    <g>
      <path d="M13 15.5V14H6V12H9V12.5C9.00012 12.6901 9.05437 12.8762 9.1564 13.0365C9.25843 13.1969 9.40403 13.3249 9.57615 13.4055C9.74827 13.4861 9.93979 13.5161 10.1283 13.4918C10.3168 13.4676 10.4945 13.3901 10.6406 13.2685L12.1629 12H13V11.3024L13.4815 10.9012L16 13L13 15.5ZM13 10L10 7.5V9H6V11H10V12.5L13 10Z" fill="#40B6E0"/>
      <path d="M1.27639 3.14999L5 1V2.11803L2.61803 3.5972L5.5 5.28196L8.38196 3.5972L6 2.11804V1L9.7236 3.14999L10 3.29719V3.5972V6.05441C9.91331 6.01877 9.81981 6 9.72454 6C9.32439 6 9 6.32438 9 6.72453L9 7.19929V4.40622L6 6.14999L6 8H5V10.736L1.51702 8.76681L2.55478 8.16766L5 9.63599L5 6.14999L2 4.40622V7.33326L1 7.91061V3.5972V3.29719L1.27639 3.14999Z" fill="#6E6E6E"/>
    </g>
  </g>
</svg>