<svg width="16" height="16" viewBox="0 0 16 16" fill="none" xmlns="http://www.w3.org/2000/svg">
<g clip-path="url(#clip0_20722_16404)">
<path d="M10.2536 13.6509C11.2877 12.264 12.2048 10.0704 12.2048 7.99911C12.2048 5.92 11.2907 3.73356 10.2566 2.34903C10.1168 2.16174 10.3091 1.90629 10.5046 2.03475C11.4379 2.64795 12.3965 3.55931 12.9138 4.34059C13.6248 5.41412 14.0059 6.69094 14.0059 7.99911C14.0059 9.30731 13.6248 10.5841 12.9138 11.6577C12.3959 12.4397 11.436 13.3521 10.5018 13.9653C10.3064 14.0936 10.1139 13.8382 10.2536 13.6509Z" fill="#CED0D6"/>
<path d="M5.75814 2.3491C4.72399 3.73604 3.80694 5.9296 3.80694 8.00089C3.80694 10.08 4.72103 12.2664 5.75508 13.651C5.89495 13.8383 5.70261 14.0937 5.5071 13.9653C4.5738 13.352 3.61525 12.4407 3.09788 11.6594C2.38696 10.5859 2.00586 9.30906 2.00586 8.00089C2.00586 6.69269 2.38696 5.4159 3.09788 4.34234C3.61577 3.5603 4.57571 2.64791 5.50989 2.03468C5.70535 1.90637 5.8978 2.16181 5.75814 2.3491Z" fill="#CED0D6"/>
<path d="M5.5 10.5H6.5L9.5 5.5H10.5M10.5 10.5H9.5L6.5 5.5H5.5" stroke="#CED0D6" stroke-linecap="round" stroke-linejoin="round"/>
</g>
<defs>
<clipPath id="clip0_20722_16404">
<rect width="16" height="16" fill="white"/>
</clipPath>
</defs>
</svg>
