<svg width="20" height="20" viewBox="0 0 20 20" fill="none" xmlns="http://www.w3.org/2000/svg">
<g clip-path="url(#clip0_20722_16409)">
<path d="M13.0559 17.1183C14.4407 15.4269 15.5982 12.6746 15.5982 9.99893C15.5982 7.31385 14.4428 4.5695 13.0597 2.8819C12.9036 2.69142 13.1016 2.40597 13.3144 2.53041C14.5618 3.25992 15.8164 4.39644 16.5437 5.4259C17.4918 6.7678 18 8.36374 18 9.99893C18 11.6341 17.4918 13.2301 16.5437 14.5719C15.8157 15.6024 14.5592 16.7402 13.3106 17.4696C13.0979 17.5939 12.9 17.3088 13.0559 17.1183Z" fill="#CED0D6"/>
<path d="M6.94411 2.88168C5.5593 4.57311 4.40184 7.32543 4.40184 10.0011C4.40184 12.6862 5.55717 15.4305 6.9403 17.1181C7.09641 17.3086 6.89839 17.594 6.68562 17.4696C5.43824 16.7401 4.1836 15.6036 3.45627 14.5741C2.50821 13.2322 2 11.6363 2 10.0011C2 8.36591 2.50821 6.76993 3.45627 5.42807C4.18433 4.39755 5.44078 3.25977 6.68941 2.53035C6.90211 2.4061 7.10003 2.69124 6.94411 2.88168Z" fill="#CED0D6"/>
<path d="M6.75 6.75H7.75L12.25 13.25H13.25M13.25 6.75H12.25L7.75 13.25H6.75" stroke="#CED0D6" stroke-width="1.5" stroke-linecap="round" stroke-linejoin="round"/>
</g>
<defs>
<clipPath id="clip0_20722_16409">
<rect width="20" height="20" fill="white"/>
</clipPath>
</defs>
</svg>
