<svg width="14" height="14" viewBox="0 0 14 14" fill="none" xmlns="http://www.w3.org/2000/svg">
<g clip-path="url(#clip0_8037_13504)">
<path d="M9.99792 11C10.5502 11 10.9979 10.5523 10.9979 10C10.9979 9.44771 10.5502 9 9.99792 9C9.44564 9 8.99792 9.44771 8.99792 10C8.99792 10.5523 9.44564 11 9.99792 11Z" fill="#6C707E"/>
<path fill-rule="evenodd" clip-rule="evenodd" d="M11.1195 13.6756C11.0463 13.8707 10.8598 14 10.6514 14H9.34437C9.13594 14 8.94938 13.8707 8.8762 13.6756L8.62671 13.0102C8.54279 12.7865 8.31225 12.6534 8.0765 12.6926L7.37558 12.8092C7.16998 12.8434 6.96474 12.7464 6.86053 12.5659L6.20703 11.4341C6.10281 11.2536 6.1215 11.0273 6.25391 10.8664L6.70534 10.3177C6.85718 10.1331 6.85718 9.86691 6.70534 9.68235L6.25389 9.13361C6.12148 8.97266 6.10279 8.74645 6.20701 8.56595L6.86051 7.43405C6.96472 7.25355 7.16996 7.15663 7.37556 7.19083L8.0765 7.30742C8.31225 7.34664 8.54279 7.21353 8.62671 6.98976L8.8762 6.32444C8.94938 6.12929 9.13594 6 9.34437 6H10.6514C10.8598 6 11.0463 6.12929 11.1195 6.32444L11.369 6.98976C11.4529 7.21353 11.6835 7.34664 11.9192 7.30742L12.6202 7.19083C12.8258 7.15663 13.031 7.25355 13.1352 7.43405L13.7887 8.56595C13.8929 8.74645 13.8743 8.97266 13.7418 9.13361L13.2904 9.68235C13.1386 9.86691 13.1386 10.1331 13.2904 10.3177L13.7418 10.8664C13.8742 11.0273 13.8929 11.2536 13.7887 11.4341L13.1352 12.5659C13.031 12.7464 12.8258 12.8434 12.6202 12.8092L11.9192 12.6926C11.6835 12.6534 11.4529 12.7865 11.369 13.0102L11.1195 13.6756ZM9.69087 13H10.3049L10.4327 12.6591C10.6844 11.9878 11.3761 11.5885 12.0833 11.7061L12.4424 11.7659L12.7494 11.2341L12.5181 10.953C12.0626 10.3993 12.0626 9.6007 12.5181 9.04703L12.7495 8.76587L12.4425 8.23413L12.0833 8.29387C11.3761 8.41151 10.6844 8.0122 10.4327 7.34088L10.3049 7H9.69087L9.56304 7.34088C9.31129 8.0122 8.61967 8.41151 7.91242 8.29387L7.55328 8.23413L7.24628 8.76587L7.47759 9.04703C7.93309 9.6007 7.93309 10.3993 7.47759 10.953L7.2463 11.2341L7.5533 11.7659L7.91242 11.7061C8.61967 11.5885 9.31129 11.9878 9.56304 12.6591L9.69087 13Z" fill="#6C707E"/>
<path fill-rule="evenodd" clip-rule="evenodd" d="M10.3086 13H9.69459L9.56676 12.6591C9.31501 11.9878 8.62339 11.5885 7.91614 11.7061L7.55702 11.7659L7.25002 11.2341L7.48131 10.953C7.93681 10.3993 7.93681 9.6007 7.48131 9.04703L7.25 8.76587L7.557 8.23413L7.91614 8.29387C8.62339 8.41151 9.31501 8.0122 9.56676 7.34088L9.69459 7H10.3086L10.4364 7.34088C10.6882 8.0122 11.3798 8.41151 12.087 8.29387L12.4462 8.23413L12.7532 8.76587L12.5219 9.04703C12.0664 9.6007 12.0664 10.3993 12.5219 10.953L12.7532 11.2341L12.4462 11.7659L12.087 11.7061C11.3798 11.5885 10.6882 11.9878 10.4364 12.6591L10.3086 13ZM11.0016 10C11.0016 10.5523 10.5539 11 10.0016 11C9.44936 11 9.00164 10.5523 9.00164 10C9.00164 9.44771 9.44936 9 10.0016 9C10.5539 9 11.0016 9.44771 11.0016 10Z" fill="#EBECF0"/>
<path d="M13.8796 6.84559C13.5753 5.32542 12.7072 3.82953 11.4211 2.54342C8.55592 -0.321695 4.60271 -1.034 1.76887 1.79978C-1.06496 4.63356 -0.250103 8.73619 2.48908 11.4753C3.74904 12.7353 5.28756 13.6046 6.86367 13.8942C5.72709 12.9777 5 11.5738 5 10C5 7.23858 7.23858 5 10 5C11.5654 5 12.9628 5.71938 13.8796 6.84559Z" fill="#FFF4EB"/>
<path d="M13.8796 6.84559C13.5753 5.32542 12.7072 3.82953 11.4211 2.54342C8.55592 -0.321695 4.60271 -1.034 1.76887 1.79978C-1.06496 4.63356 -0.250103 8.73619 2.48908 11.4753C3.74904 12.7353 5.28756 13.6046 6.86367 13.8942C6.37775 13.5024 5.96667 13.0215 5.65526 12.4763C4.78658 12.095 3.94532 11.5145 3.19761 10.7668C1.96238 9.53159 1.1978 8.02377 1.03495 6.5621C0.891189 5.27175 1.20946 3.98843 2.13864 2.87802L6.11407 6.85338C6.32492 6.59332 6.56135 6.35484 6.81952 6.14177L2.84627 2.1686C3.96097 1.22632 5.21752 0.896088 6.47661 1.03083C7.90451 1.18363 9.40651 1.94592 10.7126 3.25194C11.46 3.99939 12.0343 4.80559 12.4202 5.62372C12.9817 5.93491 13.477 6.35102 13.8796 6.84559Z" fill="#E66D17"/>
</g>
<defs>
<clipPath id="clip0_8037_13504">
<rect width="14" height="14" fill="white"/>
</clipPath>
</defs>
</svg>
