<svg width="14" height="14" viewBox="0 0 14 14" fill="none" xmlns="http://www.w3.org/2000/svg">
<path fill-rule="evenodd" clip-rule="evenodd" d="M1.08296 6C1.55904 3.16229 4.027 1 7 1C9.973 1 12.441 3.16229 12.917 6H11C9.89543 6 9 6.89543 9 8V11C9 12.1046 9.89543 13 11 13H12C13.1046 13 14 12.1046 14 11V7C14 3.13401 10.866 0 7 0C3.13401 0 0 3.13401 0 7V11C0 12.1046 0.895431 13 2 13H3C4.10457 13 5 12.1046 5 11V8C5 6.89543 4.10457 6 3 6H1.08296ZM11 7H13V11C13 11.5523 12.5523 12 12 12H11C10.4477 12 10 11.5523 10 11V8C10 7.44772 10.4477 7 11 7ZM1 11V7H3C3.55228 7 4 7.44772 4 8V11C4 11.5523 3.55228 12 3 12H2C1.44772 12 1 11.5523 1 11Z" fill="#E66D17"/>
<path d="M13 7H11C10.4477 7 10 7.44772 10 8V11C10 11.5523 10.4477 12 11 12H12C12.5523 12 13 11.5523 13 11V7Z" fill="#FFF4EB"/>
<path d="M1 7V11C1 11.5523 1.44772 12 2 12H3C3.55228 12 4 11.5523 4 11V8C4 7.44772 3.55228 7 3 7H1Z" fill="#FFF4EB"/>
</svg>
