<svg width="16" height="16" viewBox="0 0 16 16" fill="none" xmlns="http://www.w3.org/2000/svg">
<path fill-rule="evenodd" clip-rule="evenodd" d="M12 1.5C12 1.3156 11.8985 1.14617 11.7359 1.05916C11.5733 0.972154 11.3761 0.98169 11.2226 1.08398L5.34861 5H3C1.89543 5 1 5.89543 1 7V9C1 10.1046 1.89543 11 3 11H5.34861L11.2226 14.916C11.3761 15.0183 11.5733 15.0278 11.7359 14.9408C11.8985 14.8538 12 14.6844 12 14.5V11C13.6569 11 15 9.65685 15 8C15 6.34315 13.6569 5 12 5V1.5ZM12 6V10C13.1046 10 14 9.10457 14 8C14 6.89543 13.1046 6 12 6ZM3 6H5V10H3C2.44772 10 2 9.55229 2 9V7C2 6.44772 2.44772 6 3 6ZM11 13.5657L6 10.2324V5.76759L11 2.43426V13.5657Z" fill="#C77D55"/>
<path d="M12 6.00001V10C13.1046 10 14 9.10458 14 8.00001C14 6.89544 13.1046 6.00001 12 6.00001Z" fill="#45322B"/>
<path d="M5 6.00001H3C2.44772 6.00001 2 6.44772 2 7.00001V9.00001C2 9.55229 2.44772 10 3 10H5V6.00001Z" fill="#45322B"/>
<path d="M6 10.2324L11 13.5657V2.43427L6 5.7676V10.2324Z" fill="#45322B"/>
</svg>
