<svg width="14" height="14" viewBox="0 0 14 14" fill="none" xmlns="http://www.w3.org/2000/svg">
<path fill-rule="evenodd" clip-rule="evenodd" d="M11 0.500001C11 0.315603 10.8985 0.146173 10.7359 0.0591635C10.5733 -0.027846 10.3761 -0.0183098 10.2226 0.0839756L4.34861 4H2C0.895431 4 0 4.89543 0 6V8C0 9.10457 0.895431 10 2 10H4.34861L10.2226 13.916C10.3761 14.0183 10.5733 14.0278 10.7359 13.9408C10.8985 13.8538 11 13.6844 11 13.5V10C12.6569 10 14 8.65685 14 7C14 5.34315 12.6569 4 11 4V0.500001ZM11 5V9C12.1046 9 13 8.10457 13 7C13 5.89543 12.1046 5 11 5ZM2 5H4V9H2C1.44772 9 1 8.55229 1 8V6C1 5.44772 1.44772 5 2 5ZM10 12.5657L5 9.23241V4.76759L10 1.43426V12.5657Z" fill="#E66D17"/>
<path d="M11 5.00031V9.00031C12.1046 9.00031 13 8.10488 13 7.00031C13 5.89574 12.1046 5.00031 11 5.00031Z" fill="#FFF4EB"/>
<path d="M4 5.00031H2C1.44772 5.00031 1 5.44803 1 6.00031V8.00031C1 8.5526 1.44772 9.00031 2 9.00031H4V5.00031Z" fill="#FFF4EB"/>
<path d="M5 9.23272L10 12.5661V1.43457L5 4.7679V9.23272Z" fill="#FFF4EB"/>
</svg>
