<svg xmlns="http://www.w3.org/2000/svg" width="16" height="16"><g fill="#afb1b3"><path d="M6.5 5.617A1.49 1.49 0 0 1 6.4 7l2.601 1.43 4.481-2.465-4.481-2.466-2.012 1.107a1.496 1.496 0 0 1-.488 1.01Z"/><path d="M9 9.572 5.5 7.647c-.123.032-.246.072-.376.072a1.3 1.3 0 0 1-.14-.007 1.499 1.499 0 0 1-.985 1.196v2.842l5 2.75 5-2.75V6.822l-5 2.75Z"/></g><path d="M6 4.5a.5.5 0 0 0-.5-.5h-.839l.827-.875a.5.5 0 1 0-.727-.687l-.762.806V1.5a.5.5 0 0 0-1 0v1.743l-.762-.806a.5.5 0 0 0-.727.687l.827.875h-.839a.5.5 0 0 0 0 1h.839l-.827.875a.5.5 0 1 0 .727.688l.762-.806v1.743a.5.5 0 0 0 1 0V5.756l.762.806a.496.496 0 0 0 .707.019.501.501 0 0 0 .02-.707l-.827-.875H5.5a.5.5 0 0 0 .5-.5ZM3.5 5a.5.5 0 1 1 0-1 .5.5 0 0 1 0 1Z" fill="#f0a732"/></svg>