<svg width="70" height="70" viewBox="0 0 70 70" fill="none" xmlns="http://www.w3.org/2000/svg">
<path d="M9.4 63.3001L0 7.3001L17.5 0.100098L28.6 6.7001L38.8 1.2001L60.1 9.4001L48.1 70.0001L9.4 63.3001Z" fill="url(#paint0_linear)"/>
<path d="M38.8001 1.19995L28.6001 6.69995L31.6001 29.5L37.8001 33.9L39.8001 47.0999L46.9001 47.7999L41.5001 23.2999L38.8001 1.19995Z" fill="url(#paint1_linear)"/>
<path d="M31.5 31.8001L28.6 6.7001L17.5 0.100098L22.1 27.2001L23.8 44.1001L33.4 43.8001L32.6 39.5001L31.5 31.8001Z" fill="url(#paint2_linear)"/>
<path d="M9.4 63.3001L0 7.3001L17.5 0.100098L22.3 28.2001L9.4 63.3001Z" fill="url(#paint3_linear)"/>
<path d="M22.3 28.0001L17.5 0.100098L0 7.3001L19.4 24.3001L22.3 28.0001Z" fill="url(#paint4_linear)"/>
<path d="M9.4 63.3L0 7.30005L19.4 24.3L38.8 50L9.4 63.3Z" fill="url(#paint5_linear)"/>
<path d="M9.3999 63.3L25.9999 51.3L48.0999 70L9.3999 63.3Z" fill="url(#paint6_linear)"/>
<path d="M33.8001 48.5L26.1001 55.6L48.1001 70L52.0001 50.5L33.8001 48.5Z" fill="url(#paint7_linear)"/>
<path d="M9.3999 63.3001L26.0999 55.6001L48.0999 70.0001L9.3999 63.3001Z" fill="url(#paint8_linear)"/>
<path d="M70 23.7L61 1.4L44.6 0L19.3 24.3L25.8 55.6L39.3 64.3L70 46L62.3 31.7L70 23.7Z" fill="url(#paint9_linear)"/>
<path d="M46.5 22.6L44.6 0L19.3 24.3L38 30.1L46.5 22.6Z" fill="url(#paint10_linear)"/>
<path d="M42 2.3999L19.3 24.2999L38 30.0999L48.1 40.9999L44.9001 3.4999L42 2.3999Z" fill="url(#paint11_linear)"/>
<path d="M38.0001 30.1001L42.2001 26.3001L41.5001 23.3001L39.3001 5.1001L29.6001 14.4001L31.4001 28.1001L38.0001 30.1001Z" fill="url(#paint12_linear)"/>
<path d="M31.4 28.1L29.5 14.5L21.3 22.4L21.7001 25.1L31.4 28.1Z" fill="url(#paint13_linear)"/>
<path d="M42 2.3999L19.3 24.2999L44.9001 3.4999L42 2.3999Z" fill="url(#paint14_linear)"/>
<path d="M39.6001 7.59985L39.3001 5.09985L29.6001 14.3999L29.8001 15.6999L39.6001 7.59985Z" fill="url(#paint15_linear)"/>
<path d="M29.7001 15.7L29.5 14.5L21.3 22.4V22.6L29.7001 15.7Z" fill="url(#paint16_linear)"/>
<path d="M53.6 16L38 30.1L39.3 64.3L70 46L62.3 31.7L53.6 16Z" fill="url(#paint17_linear)"/>
<path d="M46.6001 24.4001L47.9001 42.2001L70.0001 46.0001L62.3001 31.7001L57.9001 23.6001L46.6001 24.4001Z" fill="url(#paint18_linear)"/>
<path d="M46.6001 24.4001L47.9001 42.2001L51.4001 42.8001L62.3001 31.7001L57.9001 23.6001L46.6001 24.4001Z" fill="url(#paint19_linear)"/>
<path d="M38 30.1L19.3 24.3L25.8 55.6L39.3 64.3001L38 30.1Z" fill="url(#paint20_linear)"/>
<path d="M31.7999 31.8001L31.2999 28.0001L21.7 25.1001L22.1 27.2001L25.2 51.5001L25.7999 53.8001L35.7 61.5001L31.7999 31.8001Z" fill="url(#paint21_linear)"/>
<path d="M25.8 55.6L39.3 64.3001L38.6 47.3L25.8 55.6Z" fill="url(#paint22_linear)"/>
<path d="M53.6001 15.9999L62.3001 31.6999L70.0001 23.6999L61.0001 1.3999L49.6001 15.4999L53.6001 15.9999Z" fill="url(#paint23_linear)"/>
<path d="M57.8999 23.7L62.2999 31.7L69.9999 23.7H57.8999Z" fill="url(#paint24_linear)"/>
<path d="M19.3 24.3L20.8 31.6L19.3 24.3Z" fill="url(#paint25_linear)"/>
<path d="M57 13H13V57H57V13Z" fill="url(#paint26_linear)"/>
<g opacity="0.3">
<path opacity="0.3" d="M31.4 29.5L33 43.3L38.1 50.1L46.7999 47.9L41.4 23.2L40.1 13H29.2L31.4 29.5Z" fill="url(#paint27_linear)"/>
<g opacity="0.3">
<path opacity="0.3" d="M57 53.8999V21.7999L53.7 15.8999L38 30.0999L39 56.9999H51.9L57 53.8999Z" fill="url(#paint28_linear)"/>
<path opacity="0.3" d="M57 13H51.7L49.7 15.4L53.7 15.9L57 21.8V13Z" fill="url(#paint29_linear)"/>
</g>
<path opacity="0.3" d="M22.0001 27.2L26.0001 56.2L33.4001 43.8L32.6001 39.5L31.5001 31.8L29.3001 13H19.6001L22.0001 27.2Z" fill="url(#paint30_linear)"/>
<path opacity="0.3" d="M53.7 15.9L49.7 15.4L51.7 13H30.9L19.2 24.2L25.7 55.8L27.7 57H39L38 30.1L53.7 15.9Z" fill="url(#paint31_linear)"/>
<path opacity="0.3" d="M13 18.7L19.4 24.2L22.2 28L19.6 13H13V18.7Z" fill="url(#paint32_linear)"/>
<g opacity="0.3">
<path opacity="0.3" d="M13 18.7V57H23.5L26 55.7L19.4 24.2L13 18.7Z" fill="url(#paint33_linear)"/>
</g>
</g>
<path d="M35 48.7H18.5V51.4H35V48.7Z" fill="white"/>
<path d="M34.0999 18.3999L31.6999 27.9999L28.7999 18.3999H25.9999L23.1999 27.9999L20.7999 18.3999H16.8999L21.5999 34.8999H24.6999L27.3999 25.2999L30.0999 34.8999H33.1999L37.9999 18.3999H34.0999Z" fill="white"/>
<path d="M38.5999 32.5L40.7999 29.9C42.2999 31.1 43.8999 31.9 45.6999 31.9C47.1999 31.9 48.0999 31.3 48.0999 30.3C48.0999 29.4 47.4999 28.9 44.7999 28.2C41.4999 27.3 39.2999 26.4 39.2999 23.1V23C39.2999 20 41.6999 18 45.0999 18C47.4999 18 49.5999 18.8 51.1999 20.1L49.2999 22.8C47.7999 21.8 46.3999 21.2 44.9999 21.2C43.5999 21.2 42.8999 21.8 42.8999 22.6C42.8999 23.7 43.5999 24 46.4999 24.8C49.8999 25.7 51.6999 26.9 51.6999 29.8C51.6999 33.1 49.1999 34.9 45.5999 34.9C43.1999 35.2 40.5999 34.3 38.5999 32.5Z" fill="white"/>
<defs>
<linearGradient id="paint0_linear" x1="25.0676" y1="1.46" x2="43.1829" y2="66.6751" gradientUnits="userSpaceOnUse">
<stop offset="0.2849" stop-color="#07C3F2"/>
<stop offset="0.9409" stop-color="#087CFA"/>
</linearGradient>
<linearGradient id="paint1_linear" x1="31.0867" y1="-2.25055" x2="40.5227" y2="38.3739" gradientUnits="userSpaceOnUse">
<stop offset="0.0669317" stop-color="#42FFFA"/>
<stop offset="0.3409" stop-color="#07C3F2"/>
<stop offset="0.9409" stop-color="#087CFA"/>
</linearGradient>
<linearGradient id="paint2_linear" x1="15.2154" y1="-2.1531" x2="30.02" y2="35.0074" gradientUnits="userSpaceOnUse">
<stop offset="0.2849" stop-color="#07C3F2"/>
<stop offset="0.9409" stop-color="#087CFA"/>
</linearGradient>
<linearGradient id="paint3_linear" x1="4.0264" y1="-6.5713" x2="20.0179" y2="58.3881" gradientUnits="userSpaceOnUse">
<stop offset="0.0669317" stop-color="#42FFFA"/>
<stop offset="0.3409" stop-color="#07C3F2"/>
<stop offset="0.9409" stop-color="#087CFA"/>
</linearGradient>
<linearGradient id="paint4_linear" x1="9.9046" y1="18.9764" x2="14.7119" y2="14.0033" gradientUnits="userSpaceOnUse">
<stop offset="0.00971316" stop-color="#42FFFA"/>
<stop offset="0.9216" stop-color="#07C3F2" stop-opacity="0"/>
</linearGradient>
<linearGradient id="paint5_linear" x1="-17.4871" y1="21.0261" x2="29.7922" y2="51.4199" gradientUnits="userSpaceOnUse">
<stop offset="0.1985" stop-color="#07C3F2"/>
<stop offset="0.9403" stop-color="#087CFA"/>
</linearGradient>
<linearGradient id="paint6_linear" x1="0.230303" y1="59.5661" x2="27.4457" y2="60.3607" gradientUnits="userSpaceOnUse">
<stop offset="0.1291" stop-color="#1D53B8"/>
<stop offset="0.8696" stop-color="#087CFA"/>
</linearGradient>
<linearGradient id="paint7_linear" x1="37.7509" y1="48.482" x2="43.6491" y2="69.7158" gradientUnits="userSpaceOnUse">
<stop offset="0.2771" stop-color="#087BFA"/>
<stop offset="0.6826" stop-color="#085DFA"/>
</linearGradient>
<linearGradient id="paint8_linear" x1="24.9185" y1="35.3353" x2="29.0902" y2="69.1062" gradientUnits="userSpaceOnUse">
<stop offset="0.5232" stop-color="#087BFA"/>
<stop offset="0.9771" stop-color="#086DFA"/>
</linearGradient>
<linearGradient id="paint9_linear" x1="30.6055" y1="9.8123" x2="61.2507" y2="54.7492" gradientUnits="userSpaceOnUse">
<stop offset="0.1286" stop-color="#FCF84A"/>
<stop offset="0.4986" stop-color="#07C3F2"/>
</linearGradient>
<linearGradient id="paint10_linear" x1="44.0748" y1="-0.2912" x2="41.0825" y2="6.0454" gradientUnits="userSpaceOnUse">
<stop stop-color="#73A4AA"/>
<stop offset="0.6751" stop-color="#FCF84A"/>
</linearGradient>
<linearGradient id="paint11_linear" x1="28.5063" y1="-10.3255" x2="39.2128" y2="62.4496" gradientUnits="userSpaceOnUse">
<stop offset="0.1786" stop-color="#FCF84A"/>
<stop offset="0.8591" stop-color="#07C3F2"/>
</linearGradient>
<linearGradient id="paint12_linear" x1="32.4019" y1="4.0132" x2="40.5726" y2="39.1901" gradientUnits="userSpaceOnUse">
<stop offset="0.1787" stop-color="#FCF84A"/>
<stop offset="0.9725" stop-color="#12C6EC"/>
</linearGradient>
<linearGradient id="paint13_linear" x1="23.7156" y1="15.8143" x2="30.3838" y2="29.6935" gradientUnits="userSpaceOnUse">
<stop offset="0.1286" stop-color="#FCF84A"/>
<stop offset="0.9414" stop-color="#07C3F2"/>
</linearGradient>
<linearGradient id="paint14_linear" x1="29.6433" y1="-2.6594" x2="34.6683" y2="31.4968" gradientUnits="userSpaceOnUse">
<stop offset="0.1786" stop-color="#FCF84A"/>
<stop offset="0.8591" stop-color="#07C3F2"/>
</linearGradient>
<linearGradient id="paint15_linear" x1="33.3941" y1="5.55545" x2="36.154" y2="17.4375" gradientUnits="userSpaceOnUse">
<stop offset="0.1787" stop-color="#D3FF8C"/>
<stop offset="0.8762" stop-color="#12C6EC"/>
</linearGradient>
<linearGradient id="paint16_linear" x1="24.4241" y1="16.501" x2="26.3614" y2="20.5333" gradientUnits="userSpaceOnUse">
<stop offset="0.1286" stop-color="#FCF84A"/>
<stop offset="0.9414" stop-color="#07C3F2"/>
</linearGradient>
<linearGradient id="paint17_linear" x1="37.5815" y1="27.0906" x2="57.5243" y2="56.334" gradientUnits="userSpaceOnUse">
<stop stop-color="#07C3F2"/>
<stop offset="0.906" stop-color="#00A0FF"/>
</linearGradient>
<linearGradient id="paint18_linear" x1="66.5031" y1="34.1608" x2="41.4728" y2="37.3393" gradientUnits="userSpaceOnUse">
<stop stop-color="#07C3F2"/>
<stop offset="1" stop-color="#0895F7"/>
</linearGradient>
<linearGradient id="paint19_linear" x1="60.9467" y1="32.0893" x2="42.6832" y2="34.4085" gradientUnits="userSpaceOnUse">
<stop stop-color="#07C3F2"/>
<stop offset="1" stop-color="#0895F7"/>
</linearGradient>
<linearGradient id="paint20_linear" x1="16.4273" y1="20.2556" x2="42.3504" y2="58.2683" gradientUnits="userSpaceOnUse">
<stop offset="0.080633" stop-color="#FCF84A"/>
<stop offset="0.5708" stop-color="#07C3F2"/>
</linearGradient>
<linearGradient id="paint21_linear" x1="19.3765" y1="21.9048" x2="39.205" y2="63.1757" gradientUnits="userSpaceOnUse">
<stop offset="0.1286" stop-color="#FCF84A"/>
<stop offset="0.4216" stop-color="#07C3F2"/>
</linearGradient>
<linearGradient id="paint22_linear" x1="25.1024" y1="46.6726" x2="41.9624" y2="58.0871" gradientUnits="userSpaceOnUse">
<stop offset="0.09347" stop-color="#087CFA"/>
<stop offset="0.6584" stop-color="#07C3F2"/>
</linearGradient>
<linearGradient id="paint23_linear" x1="54.6893" y1="1.4467" x2="63.3395" y2="32.0831" gradientUnits="userSpaceOnUse">
<stop stop-color="#FCF84A"/>
<stop offset="0.4651" stop-color="#07C3F2"/>
<stop offset="0.9409" stop-color="#087CFA"/>
</linearGradient>
<linearGradient id="paint24_linear" x1="73.3815" y1="25.7239" x2="47.7553" y2="29.4983" gradientUnits="userSpaceOnUse">
<stop stop-color="#0863FA"/>
<stop offset="0.9409" stop-color="#1AC8FB"/>
</linearGradient>
<linearGradient id="paint25_linear" x1="18.1067" y1="25.1439" x2="22.1404" y2="31.0588" gradientUnits="userSpaceOnUse">
<stop offset="0.1286" stop-color="#FCF84A"/>
<stop offset="0.4216" stop-color="#07C3F2"/>
</linearGradient>
<linearGradient id="paint26_linear" x1="11.8949" y1="11.002" x2="50.4053" y2="51.0006" gradientUnits="userSpaceOnUse">
<stop stop-color="#006396"/>
<stop offset="0.0470796" stop-color="#005682"/>
<stop offset="0.1677" stop-color="#003754"/>
<stop offset="0.2832" stop-color="#001F2F"/>
<stop offset="0.3905" stop-color="#000E15"/>
<stop offset="0.4867" stop-color="#000406"/>
<stop offset="0.5623"/>
<stop offset="0.9138"/>
</linearGradient>
<linearGradient id="paint27_linear" x1="31.8868" y1="8.1385" x2="39.5153" y2="40.9815" gradientUnits="userSpaceOnUse">
<stop offset="0.0669317" stop-color="#42FFFA"/>
<stop offset="0.3409" stop-color="#07C3F2"/>
<stop offset="0.9409" stop-color="#0838AF"/>
</linearGradient>
<linearGradient id="paint28_linear" x1="39.2221" y1="25.9312" x2="58.7153" y2="54.5153" gradientUnits="userSpaceOnUse">
<stop offset="0.1825" stop-color="#07C3F2"/>
<stop offset="0.906" stop-color="#00171C"/>
</linearGradient>
<linearGradient id="paint29_linear" x1="52.7693" y1="12.1115" x2="55.6661" y2="22.3711" gradientUnits="userSpaceOnUse">
<stop stop-color="#FCF84A"/>
<stop offset="0.4651" stop-color="#07C3F2"/>
<stop offset="0.9409" stop-color="#087CFA"/>
</linearGradient>
<linearGradient id="paint30_linear" x1="18.1544" y1="10.7087" x2="31.6911" y2="44.6866" gradientUnits="userSpaceOnUse">
<stop offset="0.0167591" stop-color="#086DFA"/>
<stop offset="1" stop-color="#08328E"/>
</linearGradient>
<linearGradient id="paint31_linear" x1="37.1051" y1="10.9374" x2="33.6555" y2="59.081" gradientUnits="userSpaceOnUse">
<stop offset="0.0186027" stop-color="#00FE80"/>
<stop offset="0.3413" stop-color="#21DE9B"/>
<stop offset="0.9563" stop-color="#0770B1"/>
</linearGradient>
<linearGradient id="paint32_linear" x1="12.2015" y1="2.8146" x2="23.3273" y2="38.0776" gradientUnits="userSpaceOnUse">
<stop offset="0.1985" stop-color="#07C3F2"/>
<stop offset="0.9403" stop-color="#0845D7"/>
</linearGradient>
<linearGradient id="paint33_linear" x1="6.4475" y1="22.3366" x2="25.9239" y2="58.9009" gradientUnits="userSpaceOnUse">
<stop stop-color="#07C3F2"/>
<stop offset="0.9409" stop-color="#0838AF"/>
</linearGradient>
</defs>
</svg>
