<svg width="24" height="24" viewBox="0 0 24 24" fill="none" xmlns="http://www.w3.org/2000/svg">
<path d="M3.2 21.7L0 2.5L6 0L9.8 2.3L13.3 0.4L20.6 3.2L16.5 24L3.2 21.7Z" fill="url(#paint0_linear)"/>
<path d="M13.3 0.399902L9.80005 2.2999L10.8 10.0999L13 11.5999L13.6 16.1999L16.1 16.3999L14.2 7.9999L13.3 0.399902Z" fill="url(#paint1_linear)"/>
<path d="M10.8 10.9L9.8 2.3L6 0L7.6 9.3L8.2 15.1L11.4 15L11.2 13.5L10.8 10.9Z" fill="url(#paint2_linear)"/>
<path d="M3.2 21.7L0 2.5L6 0L7.7 9.7L3.2 21.7Z" fill="url(#paint3_linear)"/>
<path d="M7.6 9.6L6 0L0 2.5L6.7 8.3L7.6 9.6Z" fill="url(#paint4_linear)"/>
<path d="M3.2 21.7L0 2.5L6.7 8.3L13.3 17.1L3.2 21.7Z" fill="url(#paint5_linear)"/>
<path d="M3.19995 21.7001L8.89995 17.6001L16.5 24.0001L3.19995 21.7001Z" fill="url(#paint6_linear)"/>
<path d="M11.5999 16.6001L8.8999 19.1001L16.4999 24.0001L17.7999 17.3001L11.5999 16.6001Z" fill="url(#paint7_linear)"/>
<path d="M3.19995 21.7001L8.89995 19.1001L16.5 24.0001L3.19995 21.7001Z" fill="url(#paint8_linear)"/>
<path d="M24.0001 8.1L20.9001 0.5L15.3001 0L6.6001 8.3L8.8001 19.1L13.5001 22L24.0001 15.8L21.4001 10.9L24.0001 8.1Z" fill="url(#paint9_linear)"/>
<path d="M15.9001 7.7L15.3001 0L6.6001 8.3L13.0001 10.3L15.9001 7.7Z" fill="url(#paint10_linear)"/>
<path d="M14.4001 0.800049L6.6001 8.30005L13.0001 10.3L16.5001 14.1L15.4001 1.20005L14.4001 0.800049Z" fill="url(#paint11_linear)"/>
<path d="M13.0001 10.3L14.5001 8.99995L14.2001 7.99995L13.5001 1.69995L10.1001 4.89995L10.8001 9.59995L13.0001 10.3Z" fill="url(#paint12_linear)"/>
<path d="M10.8 9.6L10.1 5L7.30005 7.7L7.50005 8.6L10.8 9.6Z" fill="url(#paint13_linear)"/>
<path d="M14.4001 0.800049L6.6001 8.30005L15.4001 1.20005L14.4001 0.800049Z" fill="url(#paint14_linear)"/>
<path d="M13.6001 2.59995L13.5001 1.69995L10.1001 4.89995L10.2001 5.39995L13.6001 2.59995Z" fill="url(#paint15_linear)"/>
<path d="M10.2 5.4L10.1 5L7.30005 7.7V7.8L10.2 5.4Z" fill="url(#paint16_linear)"/>
<path d="M18.4 5.5L13 10.3L13.5 22L24 15.8L21.4 10.9L18.4 5.5Z" fill="url(#paint17_linear)"/>
<path d="M16 8.4001L16.4 14.5001L24 15.8001L21.4 10.9001L19.8 8.1001L16 8.4001Z" fill="url(#paint18_linear)"/>
<path d="M16 8.4001L16.4 14.5001L17.6 14.7001L21.4 10.9001L19.8 8.1001L16 8.4001Z" fill="url(#paint19_linear)"/>
<path d="M13.0001 10.3L6.6001 8.30005L8.8001 19.1L13.5001 22L13.0001 10.3Z" fill="url(#paint20_linear)"/>
<path d="M10.9 10.9001L10.7 9.6001L7.5 8.6001L7.6 9.3001L8.7 17.7001L8.8 18.5001L12.2 21.1001L10.9 10.9001Z" fill="url(#paint21_linear)"/>
<path d="M8.80005 19.1L13.5 22L13.3 16.2L8.80005 19.1Z" fill="url(#paint22_linear)"/>
<path d="M18.4 5.5L21.4 10.9L24 8.1L20.9 0.5L17 5.3L18.4 5.5Z" fill="url(#paint23_linear)"/>
<path d="M19.8 8.1001L21.4 10.9001L24 8.1001H19.8Z" fill="url(#paint24_linear)"/>
<path d="M6.6001 8.30005L7.1001 10.8L6.6001 8.30005Z" fill="url(#paint25_linear)"/>
<path d="M20 4H4V20H20V4Z" fill="url(#paint26_linear)"/>
<g opacity="0.3">
<g opacity="0.3">
<path opacity="0.3" d="M19.7 20.0001H20V16.6001L17.7 20.0001H19.7Z" fill="#231F20"/>
<path opacity="0.3" d="M14.2 4H5.6L4.3 7.7L19.3 16L4.4 7.8L4 7.9V11.2L13 14.9L20 16.4V16.3V11.2L14.2 4Z" fill="url(#paint27_linear)"/>
<path opacity="0.3" d="M5.60005 4L4.30005 7.7L20 16.3V11.2L14.2 4H5.60005Z" fill="url(#paint28_linear)"/>
<path opacity="0.3" d="M4 4V8.2L4.4 7.8L5.6 4H4Z" fill="#F9ED32"/>
</g>
<path opacity="0.3" d="M4 7.90005V11.2L13 14.9L20 16.4V16.3L4.4 7.80005L4 7.90005Z" fill="url(#paint29_linear)"/>
<path opacity="0.3" d="M4 10.6L14.3 13.2L4.4 7.80005L4 7.90005V10.6Z" fill="url(#paint30_linear)"/>
<path opacity="0.3" d="M10.3 19.9999L13 14.8999L6.5 19.9999H10.3Z" fill="url(#paint31_linear)"/>
<path opacity="0.3" d="M4 13.5999L4.3 12.3999L4 12.4999V13.5999Z" fill="#F7941D"/>
<path opacity="0.3" d="M4 12.5L4.3 12.4L4 13.6V20H6.5L13 14.9L4 11.2V12.5Z" fill="url(#paint32_linear)"/>
<path opacity="0.3" d="M10.3 19.9999H17.7L20 16.5999V16.3999L13 14.8999L10.3 19.9999Z" fill="url(#paint33_linear)"/>
<g opacity="0.3">
<path opacity="0.3" d="M19 9.9L20 9.3V4H14.2L19 9.9Z" fill="url(#paint34_linear)"/>
</g>
</g>
<path d="M20 4H4V20H20V4Z" fill="url(#paint35_linear)"/>
<path d="M11.9742 16.9805H5.98706V17.9869H11.9742V16.9805Z" fill="white"/>
<path d="M11.8 6L10.9 9.5L9.9 6H8.8L7.8 9.5L6.9 6H5.5L7.2 12H8.4L9.4 8.5L10.3 12H11.5L13.2 6H11.8Z" fill="white"/>
<path d="M13.3999 11.0999L14.1999 10.1999C14.6999 10.5999 15.2999 10.8999 15.9999 10.8999C16.4999 10.8999 16.8999 10.6999 16.8999 10.2999C16.8999 9.9999 16.6999 9.7999 15.6999 9.4999C14.4999 9.1999 13.6999 8.8999 13.6999 7.6999C13.6999 6.5999 14.5999 5.8999 15.7999 5.8999C16.6999 5.8999 17.3999 6.1999 17.9999 6.6999L17.2999 7.6999C16.7999 7.2999 16.1999 7.0999 15.6999 7.0999C15.1999 7.0999 14.8999 7.2999 14.8999 7.5999C14.8999 7.9999 15.1999 8.0999 16.1999 8.3999C17.3999 8.6999 18.0999 9.1999 18.0999 10.1999C18.0999 11.3999 17.1999 12.0999 15.8999 12.0999C15.0999 12.0999 14.0999 11.7999 13.3999 11.0999Z" fill="white"/>
<defs>
<linearGradient id="paint0_linear" x1="8.5946" y1="0.5005" x2="14.8056" y2="22.86" gradientUnits="userSpaceOnUse">
<stop offset="0.2849" stop-color="#07C3F2"/>
<stop offset="0.9409" stop-color="#087CFA"/>
</linearGradient>
<linearGradient id="paint1_linear" x1="10.6582" y1="-0.771698" x2="13.8934" y2="13.1567" gradientUnits="userSpaceOnUse">
<stop offset="0.0669317" stop-color="#42FFFA"/>
<stop offset="0.3409" stop-color="#07C3F2"/>
<stop offset="0.9409" stop-color="#087CFA"/>
</linearGradient>
<linearGradient id="paint2_linear" x1="5.2167" y1="-0.7382" x2="10.2926" y2="12.0025" gradientUnits="userSpaceOnUse">
<stop offset="0.2849" stop-color="#07C3F2"/>
<stop offset="0.9409" stop-color="#087CFA"/>
</linearGradient>
<linearGradient id="paint3_linear" x1="1.3805" y1="-2.253" x2="6.8633" y2="20.0187" gradientUnits="userSpaceOnUse">
<stop offset="0.0669317" stop-color="#42FFFA"/>
<stop offset="0.3409" stop-color="#07C3F2"/>
<stop offset="0.9409" stop-color="#087CFA"/>
</linearGradient>
<linearGradient id="paint4_linear" x1="3.3959" y1="6.5062" x2="5.0441" y2="4.8011" gradientUnits="userSpaceOnUse">
<stop offset="0.00971316" stop-color="#42FFFA"/>
<stop offset="0.9216" stop-color="#07C3F2" stop-opacity="0"/>
</linearGradient>
<linearGradient id="paint5_linear" x1="-5.9956" y1="7.2089" x2="10.2145" y2="17.6297" gradientUnits="userSpaceOnUse">
<stop offset="0.1985" stop-color="#07C3F2"/>
<stop offset="0.9403" stop-color="#087CFA"/>
</linearGradient>
<linearGradient id="paint6_linear" x1="0.0789459" y1="20.4228" x2="9.40995" y2="20.6952" gradientUnits="userSpaceOnUse">
<stop offset="0.1291" stop-color="#1D53B8"/>
<stop offset="0.8696" stop-color="#087CFA"/>
</linearGradient>
<linearGradient id="paint7_linear" x1="12.943" y1="16.6225" x2="14.9653" y2="23.9026" gradientUnits="userSpaceOnUse">
<stop offset="0.2771" stop-color="#087BFA"/>
<stop offset="0.6826" stop-color="#085DFA"/>
</linearGradient>
<linearGradient id="paint8_linear" x1="8.54345" y1="12.115" x2="9.97375" y2="23.6936" gradientUnits="userSpaceOnUse">
<stop offset="0.5232" stop-color="#087BFA"/>
<stop offset="0.9771" stop-color="#086DFA"/>
</linearGradient>
<linearGradient id="paint9_linear" x1="10.4934" y1="3.3642" x2="21.0003" y2="18.7712" gradientUnits="userSpaceOnUse">
<stop offset="0.1286" stop-color="#FCF84A"/>
<stop offset="0.4986" stop-color="#07C3F2"/>
</linearGradient>
<linearGradient id="paint10_linear" x1="15.1115" y1="-0.0998567" x2="14.0855" y2="2.0727" gradientUnits="userSpaceOnUse">
<stop  offset="0" stop-color="#73A4AA"/>
<stop offset="0.6751" stop-color="#FCF84A"/>
</linearGradient>
<linearGradient id="paint11_linear" x1="9.7737" y1="-3.54005" x2="13.4445" y2="21.4113" gradientUnits="userSpaceOnUse">
<stop offset="0.1786" stop-color="#FCF84A"/>
<stop offset="0.8591" stop-color="#07C3F2"/>
</linearGradient>
<linearGradient id="paint12_linear" x1="11.1093" y1="1.37585" x2="13.9107" y2="13.4366" gradientUnits="userSpaceOnUse">
<stop offset="0.1787" stop-color="#FCF84A"/>
<stop offset="0.9725" stop-color="#12C6EC"/>
</linearGradient>
<linearGradient id="paint13_linear" x1="8.13115" y1="5.4221" x2="10.4173" y2="10.1806" gradientUnits="userSpaceOnUse">
<stop offset="0.1286" stop-color="#FCF84A"/>
<stop offset="0.9414" stop-color="#07C3F2"/>
</linearGradient>
<linearGradient id="paint14_linear" x1="10.1635" y1="-0.911651" x2="11.8864" y2="10.7989" gradientUnits="userSpaceOnUse">
<stop offset="0.1786" stop-color="#FCF84A"/>
<stop offset="0.8591" stop-color="#07C3F2"/>
</linearGradient>
<linearGradient id="paint15_linear" x1="11.4495" y1="1.90475" x2="12.3957" y2="5.97855" gradientUnits="userSpaceOnUse">
<stop offset="0.1787" stop-color="#D3FF8C"/>
<stop offset="0.8762" stop-color="#12C6EC"/>
</linearGradient>
<linearGradient id="paint16_linear" x1="8.37405" y1="5.6575" x2="9.03825" y2="7.04" gradientUnits="userSpaceOnUse">
<stop offset="0.1286" stop-color="#FCF84A"/>
<stop offset="0.9414" stop-color="#07C3F2"/>
</linearGradient>
<linearGradient id="paint17_linear" x1="12.8851" y1="9.2882" x2="19.7226" y2="19.3145" gradientUnits="userSpaceOnUse">
<stop  offset="0" stop-color="#07C3F2"/>
<stop offset="0.906" stop-color="#00A0FF"/>
</linearGradient>
<linearGradient id="paint18_linear" x1="22.801" y1="11.7124" x2="14.2192" y2="12.8021" gradientUnits="userSpaceOnUse">
<stop  offset="0" stop-color="#07C3F2"/>
<stop offset="1" stop-color="#0895F7"/>
</linearGradient>
<linearGradient id="paint19_linear" x1="20.896" y1="11.0021" x2="14.6342" y2="11.7973" gradientUnits="userSpaceOnUse">
<stop  offset="0" stop-color="#07C3F2"/>
<stop offset="1" stop-color="#0895F7"/>
</linearGradient>
<linearGradient id="paint20_linear" x1="5.6323" y1="6.94485" x2="14.5202" y2="19.9777" gradientUnits="userSpaceOnUse">
<stop offset="0.080633" stop-color="#FCF84A"/>
<stop offset="0.5708" stop-color="#07C3F2"/>
</linearGradient>
<linearGradient id="paint21_linear" x1="6.6434" y1="7.5103" x2="13.4417" y2="21.6603" gradientUnits="userSpaceOnUse">
<stop offset="0.1286" stop-color="#FCF84A"/>
<stop offset="0.4216" stop-color="#07C3F2"/>
</linearGradient>
<linearGradient id="paint22_linear" x1="8.60655" y1="16.002" x2="14.3871" y2="19.9156" gradientUnits="userSpaceOnUse">
<stop offset="0.09347" stop-color="#087CFA"/>
<stop offset="0.6584" stop-color="#07C3F2"/>
</linearGradient>
<linearGradient id="paint23_linear" x1="18.7506" y1="0.4961" x2="21.7164" y2="10.9999" gradientUnits="userSpaceOnUse">
<stop  offset="0" stop-color="#FCF84A"/>
<stop offset="0.4651" stop-color="#07C3F2"/>
<stop offset="0.9409" stop-color="#087CFA"/>
</linearGradient>
<linearGradient id="paint24_linear" x1="25.1594" y1="8.8197" x2="16.3733" y2="10.1138" gradientUnits="userSpaceOnUse">
<stop  offset="0" stop-color="#0863FA"/>
<stop offset="0.9409" stop-color="#1AC8FB"/>
</linearGradient>
<linearGradient id="paint25_linear" x1="6.2081" y1="8.62085" x2="7.5911" y2="10.6487" gradientUnits="userSpaceOnUse">
<stop offset="0.1286" stop-color="#FCF84A"/>
<stop offset="0.4216" stop-color="#07C3F2"/>
</linearGradient>
<linearGradient id="paint26_linear" x1="3.7531" y1="5.2766" x2="20.1319" y2="18.6296" gradientUnits="userSpaceOnUse">
<stop  offset="0" stop-color="#521713"/>
<stop offset="0.080028" stop-color="#451310"/>
<stop offset="0.2989" stop-color="#270B09"/>
<stop offset="0.514" stop-color="#110504"/>
<stop offset="0.7218" stop-color="#040101"/>
<stop offset="0.9138"/>
</linearGradient>
<linearGradient id="paint27_linear" x1="4" y1="10.19" x2="20" y2="10.19" gradientUnits="userSpaceOnUse">
<stop offset="0.2464" stop-color="#FE2857"/>
<stop offset="0.292" stop-color="#FE265F"/>
<stop offset="0.3641" stop-color="#FE1F76"/>
<stop offset="0.4534" stop-color="#FF159B"/>
<stop offset="0.4574" stop-color="#FF149D"/>
<stop offset="0.536" stop-color="#EF1AB2"/>
<stop offset="0.6983" stop-color="#C82BE9"/>
<stop offset="0.7574" stop-color="#B831FF"/>
<stop offset="0.811" stop-color="#A33AFE"/>
<stop offset="0.9215" stop-color="#6C52FD"/>
<stop offset="1" stop-color="#4164FC"/>
</linearGradient>
<linearGradient id="paint28_linear" x1="4.32735" y1="10.1718" x2="20" y2="10.1718" gradientUnits="userSpaceOnUse">
<stop offset="0.1118" stop-color="#F7941D"/>
<stop offset="0.1374" stop-color="#F88C25"/>
<stop offset="0.178" stop-color="#F9753A"/>
<stop offset="0.2284" stop-color="#FB505D"/>
<stop offset="0.2863" stop-color="#FF1C8C"/>
<stop offset="0.2928" stop-color="#FF1692"/>
<stop offset="0.4031" stop-color="#EA1A93"/>
<stop offset="0.4677" stop-color="#DB1D93"/>
<stop offset="0.5543" stop-color="#9F2895"/>
<stop offset="0.7229" stop-color="#21409A"/>
<stop offset="0.8671" stop-color="#222F5C"/>
<stop offset="1" stop-color="#231F20"/>
</linearGradient>
<linearGradient id="paint29_linear" x1="4" y1="12.0955" x2="20" y2="12.0955" gradientUnits="userSpaceOnUse">
<stop offset="0.0878508" stop-color="#FE2857"/>
<stop offset="0.1283" stop-color="#FE265F"/>
<stop offset="0.1923" stop-color="#FE1F76"/>
<stop offset="0.2716" stop-color="#FF159B"/>
<stop offset="0.2751" stop-color="#FF149D"/>
<stop offset="0.4167" stop-color="#B21871"/>
<stop offset="0.5427" stop-color="#741B4E"/>
<stop offset="0.6489" stop-color="#481D35"/>
<stop offset="0.731" stop-color="#2D1E26"/>
<stop offset="0.7791" stop-color="#231F20"/>
</linearGradient>
<linearGradient id="paint30_linear" x1="5.5488" y1="9.89575" x2="11.8145" y2="13.3809" gradientUnits="userSpaceOnUse">
<stop offset="0.00629908" stop-color="#FF45ED"/>
<stop offset="0.1766" stop-color="#FF35D8"/>
<stop offset="0.3352" stop-color="#FF24C0"/>
<stop offset="0.451" stop-color="#EA24B0"/>
<stop offset="0.6916" stop-color="#B22388"/>
<stop offset="1" stop-color="#63214F"/>
</linearGradient>
<linearGradient id="paint31_linear" x1="6.5134" y1="17.4396" x2="13.0321" y2="17.4396" gradientUnits="userSpaceOnUse">
<stop offset="0.4574" stop-color="#FF149D"/>
<stop offset="0.536" stop-color="#EF1AB2"/>
<stop offset="0.6983" stop-color="#C82BE9"/>
<stop offset="0.7574" stop-color="#B831FF"/>
<stop offset="0.8388" stop-color="#A33AFE"/>
<stop offset="1" stop-color="#6E51FD"/>
</linearGradient>
<linearGradient id="paint32_linear" x1="4" y1="15.6219" x2="13.0321" y2="15.6219" gradientUnits="userSpaceOnUse">
<stop offset="0.00442798" stop-color="#FFDE17"/>
<stop offset="0.0386836" stop-color="#FECB12"/>
<stop offset="0.0790912" stop-color="#FDBB0E"/>
<stop offset="0.1111" stop-color="#FDB60D"/>
<stop offset="0.1673" stop-color="#FDAE0F"/>
<stop offset="0.2521" stop-color="#FC9A15"/>
<stop offset="0.3323" stop-color="#FC801D"/>
<stop offset="0.7374" stop-color="#BE1E2D"/>
</linearGradient>
<linearGradient id="paint33_linear" x1="10.3033" y1="17.4396" x2="20" y2="17.4396" gradientUnits="userSpaceOnUse">
<stop  offset="0" stop-color="#087CFA"/>
<stop offset="0.7942" stop-color="#231F20"/>
</linearGradient>
<linearGradient id="paint34_linear" x1="26.5288" y1="19.2317" x2="16.3332" y2="2.7214" gradientUnits="userSpaceOnUse">
<stop offset="0.3486" stop-color="#3595F3"/>
<stop offset="0.4019" stop-color="#3490EB"/>
<stop offset="0.4865" stop-color="#3284D4"/>
<stop offset="0.5918" stop-color="#2F6FAE"/>
<stop offset="0.7135" stop-color="#2B527B"/>
<stop offset="0.8476" stop-color="#252D39"/>
<stop offset="0.8951" stop-color="#231F20"/>
</linearGradient>
<linearGradient id="paint35_linear" x1="3.59816" y1="3.27344" x2="17.6019" y2="17.8184" gradientUnits="userSpaceOnUse">
<stop  offset="0" stop-color="#006396"/>
<stop offset="0.0470796" stop-color="#005682"/>
<stop offset="0.1677" stop-color="#003754"/>
<stop offset="0.2832" stop-color="#001F2F"/>
<stop offset="0.3905" stop-color="#000E15"/>
<stop offset="0.4867" stop-color="#000406"/>
<stop offset="0.5623"/>
<stop offset="0.9138"/>
</linearGradient>
</defs>
</svg>
