<svg width="80" height="80" viewBox="0 0 80 80" fill="none" xmlns="http://www.w3.org/2000/svg">
<path d="M10.8 72.3001L0 8.4001L19.9 0.100098L32.7 7.7001L44.3 1.4001L68.6 10.7001L55 80.0001L10.8 72.3001Z" fill="url(#paint0_linear)"/>
<path d="M44.2999 1.3999L32.7 7.6999L36.0999 33.6999L43.2 38.6999L45.5 53.7999L53.5999 54.5999L47.4 26.5999L44.2999 1.3999Z" fill="url(#paint1_linear)"/>
<path d="M35.9999 36.4001L32.6999 7.7001L19.8999 0.100098L25.2999 31.1001L27.1999 50.4001L38.0999 50.0001L37.2999 45.2001L35.9999 36.4001Z" fill="url(#paint2_linear)"/>
<path d="M10.8 72.3001L0 8.4001L19.9 0.100098L25.5 32.3001L10.8 72.3001Z" fill="url(#paint3_linear)"/>
<path d="M25.5 32.1001L19.9 0.100098L0 8.4001L22.2 27.7001L25.5 32.1001Z" fill="url(#paint4_linear)"/>
<path d="M10.8 72.2999L0 8.3999L22.2 27.6999L44.4 57.0999L10.8 72.2999Z" fill="url(#paint5_linear)"/>
<path d="M10.8 72.3001L29.7001 58.6001L55 80.0001L10.8 72.3001Z" fill="url(#paint6_linear)"/>
<path d="M38.6 55.3999L29.8 63.5999L55 79.9999L59.4001 57.6999L38.6 55.3999Z" fill="url(#paint7_linear)"/>
<path d="M10.8 72.3001L29.8 63.6001L55 80.0001L10.8 72.3001Z" fill="url(#paint8_linear)"/>
<path d="M80 27.1L69.7 1.6L50.9 0L22 27.8L29.4 63.6L44.9 73.4L80 52.6L71.3 36.2L80 27.1Z" fill="url(#paint9_linear)"/>
<path d="M53.1 25.8L50.9 0L22 27.8L43.4 34.4L53.1 25.8Z" fill="url(#paint10_linear)"/>
<path d="M48 2.80005L22 27.8L43.4 34.4001L55 46.9001L51.3 4.00005L48 2.80005Z" fill="url(#paint11_linear)"/>
<path d="M43.4001 34.4001L48.2001 30.1L47.4001 26.6L44.9001 5.80005L33.8 16.5L35.9001 32.1L43.4001 34.4001Z" fill="url(#paint12_linear)"/>
<path d="M35.9001 32.1001L33.7001 16.6001L24.3 25.6001L24.8 28.7001L35.9001 32.1001Z" fill="url(#paint13_linear)"/>
<path d="M48 2.80005L22 27.8L51.3 4.00005L48 2.80005Z" fill="url(#paint14_linear)"/>
<path d="M45.2001 8.60005L44.9001 5.80005L33.8 16.5L34 17.9L45.2001 8.60005Z" fill="url(#paint15_linear)"/>
<path d="M33.9001 18.0001L33.7001 16.6001L24.3 25.6001L24.4 25.9001L33.9001 18.0001Z" fill="url(#paint16_linear)"/>
<path d="M61.2999 18.3L43.3999 34.4001L44.8999 73.4001L79.9999 52.6L71.2999 36.2001L61.2999 18.3Z" fill="url(#paint17_linear)"/>
<path d="M53.2 27.8L54.7999 48.3L80 52.6L71.3 36.2L66.0999 27L53.2 27.8Z" fill="url(#paint18_linear)"/>
<path d="M53.2 27.8L54.7999 48.3L58.7999 49L71.3 36.2L66.0999 27L53.2 27.8Z" fill="url(#paint19_linear)"/>
<path d="M43.4 34.4001L22 27.8L29.4 63.6L44.9 73.4001L43.4 34.4001Z" fill="url(#paint20_linear)"/>
<path d="M36.3 36.4L35.8 32.0999L24.8 28.7L25.3 31.1L28.8 58.7999L29.4 61.5L40.8 70.1999L36.3 36.4Z" fill="url(#paint21_linear)"/>
<path d="M29.3999 63.6001L44.8999 73.4001L44.1999 54.1001L29.3999 63.6001Z" fill="url(#paint22_linear)"/>
<path d="M61.2999 18.3001L71.3 36.2001L80 27.1001L69.6999 1.6001L56.7 17.7001L61.2999 18.3001Z" fill="url(#paint23_linear)"/>
<path d="M66.2 27L71.3 36.2L80 27.1L66.2 27Z" fill="url(#paint24_linear)"/>
<path d="M22 27.8L23.8 36.1L22 27.8Z" fill="url(#paint25_linear)"/>
<path d="M65 15H15V65H65V15Z" fill="url(#paint26_linear)"/>
<g opacity="0.3">
<path opacity="0.3" d="M35.8999 33.7L37.6999 49.5L43.4999 57.2L53.3999 54.6L47.1999 26.6L45.7999 15H33.3999L35.8999 33.7Z" fill="url(#paint27_linear)"/>
<g opacity="0.3">
<path opacity="0.3" d="M64.9999 61.5V25L61.2999 18.3L43.3999 34.4L44.5999 65H59.0999L64.9999 61.5Z" fill="url(#paint28_linear)"/>
<path opacity="0.3" d="M65 15H58.9L56.7 17.7L61.2999 18.3L65 25V15Z" fill="url(#paint29_linear)"/>
</g>
<path opacity="0.3" d="M25.3 31.1L29.8 64.1L38.1 50L37.3 45.2L36 36.4L33.5 15H22.5L25.3 31.1Z" fill="url(#paint30_linear)"/>
<path opacity="0.3" d="M61.3 18.3L56.7 17.7L58.9 15H35.3L22 27.8L29.4 63.6L31.6 65H44.6L43.4 34.4L61.3 18.3Z" fill="url(#paint31_linear)"/>
<path opacity="0.3" d="M15 21.4L22.2 27.7L25.5 32.1L22.5 15H15V21.4Z" fill="url(#paint32_linear)"/>
<g opacity="0.3">
<path opacity="0.3" d="M15 21.3999V64.9999H26.9L29.8 63.5999L22.2 27.6999L15 21.3999Z" fill="url(#paint33_linear)"/>
</g>
</g>
<path d="M39.9 55.5999H21.2V58.6999H39.9V55.5999Z" fill="white"/>
<path d="M39 21.2L36.2 32.2L33 21.2H29.8L26.6 32.2L23.8 21.2H19.5L24.8 40H28.3L31.4 29.1L34.4 40H38L43.4 21.2H39Z" fill="white"/>
<path d="M44.1001 37.2999L46.5001 34.3999C48.2001 35.7999 50.0001 36.6999 52.1001 36.6999C53.8001 36.6999 54.8001 35.9999 54.8001 34.8999V34.7999C54.8001 33.7999 54.2001 33.1999 51.0001 32.3999C47.2001 31.3999 44.8001 30.3999 44.8001 26.6999V26.5999C44.8001 23.1999 47.5001 20.8999 51.4001 20.8999C54.1001 20.8999 56.5001 21.7999 58.4001 23.2999L56.2001 26.3999C54.5001 25.1999 52.9001 24.4999 51.3001 24.4999C49.7001 24.4999 48.9001 25.1999 48.9001 26.0999V26.1999C48.9001 27.3999 49.7001 27.7999 53.0001 28.6999C56.8001 29.6999 59.0001 31.0999 59.0001 34.2999V34.3999C59.0001 38.0999 56.2001 40.1999 52.1001 40.1999C49.3001 40.2999 46.4001 39.2999 44.1001 37.2999Z" fill="white"/>
<defs>
<linearGradient id="paint0_linear" x1="28.6486" y1="1.6685" x2="49.3518" y2="76.2001" gradientUnits="userSpaceOnUse">
<stop offset="0.2849" stop-color="#07C3F2"/>
<stop offset="0.9409" stop-color="#087CFA"/>
</linearGradient>
<linearGradient id="paint1_linear" x1="35.5275" y1="-2.5721" x2="46.3114" y2="43.8558" gradientUnits="userSpaceOnUse">
<stop offset="0.0669317" stop-color="#42FFFA"/>
<stop offset="0.3409" stop-color="#07C3F2"/>
<stop offset="0.9409" stop-color="#087CFA"/>
</linearGradient>
<linearGradient id="paint2_linear" x1="17.389" y1="-2.4607" x2="34.3085" y2="40.0084" gradientUnits="userSpaceOnUse">
<stop offset="0.2849" stop-color="#07C3F2"/>
<stop offset="0.9409" stop-color="#087CFA"/>
</linearGradient>
<linearGradient id="paint3_linear" x1="4.6016" y1="-7.51" x2="22.8776" y2="66.7293" gradientUnits="userSpaceOnUse">
<stop offset="0.0669317" stop-color="#42FFFA"/>
<stop offset="0.3409" stop-color="#07C3F2"/>
<stop offset="0.9409" stop-color="#087CFA"/>
</linearGradient>
<linearGradient id="paint4_linear" x1="11.3195" y1="21.6873" x2="16.8136" y2="16.0038" gradientUnits="userSpaceOnUse">
<stop offset="0.00971316" stop-color="#42FFFA"/>
<stop offset="0.9216" stop-color="#07C3F2" stop-opacity="0"/>
</linearGradient>
<linearGradient id="paint5_linear" x1="-19.9853" y1="24.0297" x2="34.0482" y2="58.7656" gradientUnits="userSpaceOnUse">
<stop offset="0.1985" stop-color="#07C3F2"/>
<stop offset="0.9403" stop-color="#087CFA"/>
</linearGradient>
<linearGradient id="paint6_linear" x1="0.263348" y1="68.0756" x2="31.3667" y2="68.9838" gradientUnits="userSpaceOnUse">
<stop offset="0.1291" stop-color="#1D53B8"/>
<stop offset="0.8696" stop-color="#087CFA"/>
</linearGradient>
<linearGradient id="paint7_linear" x1="43.1437" y1="55.4079" x2="49.8846" y2="79.6751" gradientUnits="userSpaceOnUse">
<stop offset="0.2771" stop-color="#087BFA"/>
<stop offset="0.6826" stop-color="#085DFA"/>
</linearGradient>
<linearGradient id="paint8_linear" x1="28.4785" y1="40.3832" x2="33.2461" y2="78.9785" gradientUnits="userSpaceOnUse">
<stop offset="0.5232" stop-color="#087BFA"/>
<stop offset="0.9771" stop-color="#086DFA"/>
</linearGradient>
<linearGradient id="paint9_linear" x1="34.9777" y1="11.2141" x2="70.0007" y2="62.5705" gradientUnits="userSpaceOnUse">
<stop offset="0.1286" stop-color="#FCF84A"/>
<stop offset="0.4986" stop-color="#07C3F2"/>
</linearGradient>
<linearGradient id="paint10_linear" x1="50.3712" y1="-0.3329" x2="46.9514" y2="6.909" gradientUnits="userSpaceOnUse">
<stop stop-color="#73A4AA"/>
<stop offset="0.6751" stop-color="#FCF84A"/>
</linearGradient>
<linearGradient id="paint11_linear" x1="32.5787" y1="-11.8005" x2="44.8146" y2="71.3711" gradientUnits="userSpaceOnUse">
<stop offset="0.1786" stop-color="#FCF84A"/>
<stop offset="0.8591" stop-color="#07C3F2"/>
</linearGradient>
<linearGradient id="paint12_linear" x1="37.0306" y1="4.58645" x2="46.3685" y2="44.7887" gradientUnits="userSpaceOnUse">
<stop offset="0.1787" stop-color="#FCF84A"/>
<stop offset="0.9725" stop-color="#12C6EC"/>
</linearGradient>
<linearGradient id="paint13_linear" x1="27.1036" y1="18.0736" x2="34.7243" y2="33.9355" gradientUnits="userSpaceOnUse">
<stop offset="0.1286" stop-color="#FCF84A"/>
<stop offset="0.9414" stop-color="#07C3F2"/>
</linearGradient>
<linearGradient id="paint14_linear" x1="33.8781" y1="-3.03905" x2="39.6209" y2="35.9965" gradientUnits="userSpaceOnUse">
<stop offset="0.1786" stop-color="#FCF84A"/>
<stop offset="0.8591" stop-color="#07C3F2"/>
</linearGradient>
<linearGradient id="paint15_linear" x1="38.1646" y1="6.34935" x2="41.3187" y2="19.9287" gradientUnits="userSpaceOnUse">
<stop offset="0.1787" stop-color="#D3FF8C"/>
<stop offset="0.8762" stop-color="#12C6EC"/>
</linearGradient>
<linearGradient id="paint16_linear" x1="27.9132" y1="18.8584" x2="30.1273" y2="23.4668" gradientUnits="userSpaceOnUse">
<stop offset="0.1286" stop-color="#FCF84A"/>
<stop offset="0.9414" stop-color="#07C3F2"/>
</linearGradient>
<linearGradient id="paint17_linear" x1="42.9502" y1="30.9607" x2="65.742" y2="64.3818" gradientUnits="userSpaceOnUse">
<stop stop-color="#07C3F2"/>
<stop offset="0.906" stop-color="#00A0FF"/>
</linearGradient>
<linearGradient id="paint18_linear" x1="76.0034" y1="39.0408" x2="47.3974" y2="42.6734" gradientUnits="userSpaceOnUse">
<stop stop-color="#07C3F2"/>
<stop offset="1" stop-color="#0895F7"/>
</linearGradient>
<linearGradient id="paint19_linear" x1="69.6533" y1="36.6734" x2="48.7807" y2="39.3238" gradientUnits="userSpaceOnUse">
<stop stop-color="#07C3F2"/>
<stop offset="1" stop-color="#0895F7"/>
</linearGradient>
<linearGradient id="paint20_linear" x1="18.774" y1="23.1493" x2="48.4003" y2="66.5924" gradientUnits="userSpaceOnUse">
<stop offset="0.080633" stop-color="#FCF84A"/>
<stop offset="0.5708" stop-color="#07C3F2"/>
</linearGradient>
<linearGradient id="paint21_linear" x1="22.1445" y1="25.0339" x2="44.8057" y2="72.2006" gradientUnits="userSpaceOnUse">
<stop offset="0.1286" stop-color="#FCF84A"/>
<stop offset="0.4216" stop-color="#07C3F2"/>
</linearGradient>
<linearGradient id="paint22_linear" x1="28.6884" y1="53.3402" x2="47.9568" y2="66.3853" gradientUnits="userSpaceOnUse">
<stop offset="0.09347" stop-color="#087CFA"/>
<stop offset="0.6584" stop-color="#07C3F2"/>
</linearGradient>
<linearGradient id="paint23_linear" x1="62.5019" y1="1.6536" x2="72.3879" y2="36.6666" gradientUnits="userSpaceOnUse">
<stop stop-color="#FCF84A"/>
<stop offset="0.4651" stop-color="#07C3F2"/>
<stop offset="0.9409" stop-color="#087CFA"/>
</linearGradient>
<linearGradient id="paint24_linear" x1="83.8647" y1="29.3988" x2="54.5775" y2="33.7124" gradientUnits="userSpaceOnUse">
<stop stop-color="#0863FA"/>
<stop offset="0.9409" stop-color="#1AC8FB"/>
</linearGradient>
<linearGradient id="paint25_linear" x1="20.6934" y1="28.7359" x2="25.3034" y2="35.4958" gradientUnits="userSpaceOnUse">
<stop offset="0.1286" stop-color="#FCF84A"/>
<stop offset="0.4216" stop-color="#07C3F2"/>
</linearGradient>
<linearGradient id="paint26_linear" x1="13.7442" y1="12.7295" x2="57.506" y2="58.1825" gradientUnits="userSpaceOnUse">
<stop stop-color="#006396"/>
<stop offset="0.0470796" stop-color="#005682"/>
<stop offset="0.1677" stop-color="#003754"/>
<stop offset="0.2832" stop-color="#001F2F"/>
<stop offset="0.3905" stop-color="#000E15"/>
<stop offset="0.4867" stop-color="#000406"/>
<stop offset="0.5623"/>
<stop offset="0.9138"/>
</linearGradient>
<linearGradient id="paint27_linear" x1="36.4621" y1="9.4756" x2="45.131" y2="46.7971" gradientUnits="userSpaceOnUse">
<stop offset="0.0669317" stop-color="#42FFFA"/>
<stop offset="0.3409" stop-color="#07C3F2"/>
<stop offset="0.9409" stop-color="#0838AF"/>
</linearGradient>
<linearGradient id="paint28_linear" x1="44.7977" y1="29.6947" x2="66.9491" y2="62.1766" gradientUnits="userSpaceOnUse">
<stop offset="0.1825" stop-color="#07C3F2"/>
<stop offset="0.906" stop-color="#00171C"/>
</linearGradient>
<linearGradient id="paint29_linear" x1="60.1924" y1="13.9904" x2="63.4843" y2="25.649" gradientUnits="userSpaceOnUse">
<stop stop-color="#FCF84A"/>
<stop offset="0.4651" stop-color="#07C3F2"/>
<stop offset="0.9409" stop-color="#087CFA"/>
</linearGradient>
<linearGradient id="paint30_linear" x1="20.8572" y1="12.3963" x2="36.2397" y2="51.0075" gradientUnits="userSpaceOnUse">
<stop offset="0.0167591" stop-color="#086DFA"/>
<stop offset="1" stop-color="#08328E"/>
</linearGradient>
<linearGradient id="paint31_linear" x1="42.3921" y1="12.6562" x2="38.4722" y2="67.3648" gradientUnits="userSpaceOnUse">
<stop offset="0.0186027" stop-color="#00FE80"/>
<stop offset="0.3413" stop-color="#21DE9B"/>
<stop offset="0.9563" stop-color="#0770B1"/>
</linearGradient>
<linearGradient id="paint32_linear" x1="14.0927" y1="3.4257" x2="26.7356" y2="43.4973" gradientUnits="userSpaceOnUse">
<stop offset="0.1985" stop-color="#07C3F2"/>
<stop offset="0.9403" stop-color="#0845D7"/>
</linearGradient>
<linearGradient id="paint33_linear" x1="7.5539" y1="25.6097" x2="29.6863" y2="67.16" gradientUnits="userSpaceOnUse">
<stop stop-color="#07C3F2"/>
<stop offset="0.9409" stop-color="#0838AF"/>
</linearGradient>
</defs>
</svg>
