<svg width="16" height="16" viewBox="0 0 16 16" fill="none" xmlns="http://www.w3.org/2000/svg">
<path d="M8 10.062L8.00083 10.0009H7V16.0009H8.00083L8 12.4615C8 12.1106 8.06323 11.8044 8.18803 11.5431C8.31673 11.2817 8.49808 11.0809 8.73208 10.9406C8.96998 10.8002 9.3129 10.73 9.6249 10.73C9.9135 10.73 10.1592 10.7924 10.362 10.9171C10.5687 11.042 10.7267 11.2213 10.8359 11.4553C10.9451 11.6893 10.9996 11.9644 10.9996 12.2802V16.0009H12V12.4615C12 12.1106 12.0644 11.8064 12.1931 11.549C12.3217 11.2876 12.5719 11.0868 12.8059 10.9464C13.0399 10.8021 13.3129 10.73 13.6249 10.73C13.9135 10.73 14.1592 10.7924 14.362 10.9171C14.5687 11.042 14.7247 11.2213 14.83 11.4553C14.9392 11.6893 15 11.9644 15 12.2802V16.0009H16V12.2217C16 11.7498 15.9083 11.3364 15.7251 10.9814C15.5456 10.6266 15.2922 10.3536 14.9646 10.1625C14.6369 9.96753 14.2606 9.87 13.8355 9.87C13.3714 9.87 12.9658 9.98315 12.6187 10.2094C12.2941 10.4209 11.9792 10.7142 11.7867 11.0895C11.7709 11.0529 11.7543 11.0168 11.7367 10.9814C11.5651 10.6266 11.3195 10.3536 10.9996 10.1625C10.6837 9.96753 10.3132 9.87 9.88815 9.87C9.43575 9.87 8.97778 9.97925 8.65018 10.1976C8.38295 10.3779 8.16622 10.6233 8 10.9338V10.062Z" fill="#6C707E"/>
<path d="M13.9977 8.87367C14.0134 7.02612 13.4493 5.06442 12.9454 3.59766C12.1948 5.12972 10.3481 6.30783 8.75308 6.67987C8.09806 6.83344 7.47602 6.86451 6.86743 6.8949C6.08696 6.93389 5.32861 6.97177 4.55116 7.26548C1.39622 8.45651 1.44444 12.1519 3.18238 12.9821L3.28585 13.0363L3.31088 13.0313C3.50522 12.9922 4.79732 12.7325 6 12.4085V9.00098H8.90827C9.23636 8.90951 9.5738 8.87012 9.88815 8.87012C10.469 8.87012 11.0247 9.00469 11.5188 9.30788C11.6331 9.37656 11.7409 9.452 11.8422 9.5338C11.9195 9.47516 11.9968 9.42117 12.0727 9.37168C12.6012 9.02726 13.2015 8.87012 13.8355 8.87012C13.8898 8.87012 13.9439 8.87129 13.9977 8.87367Z" fill="#F2FCF3"/>
<path d="M6 13.3878V13.913C5.63184 13.9051 5.28004 13.9037 4.95277 13.9182C4.95277 13.9182 4.52047 13.9423 4.08467 14.0129C4.08467 14.0129 4.24952 13.944 4.45997 13.8726C5.0709 13.6651 5.56713 13.5167 6 13.3878Z" fill="#F2FCF3"/>
<path d="M4.19306 6.34848C5.04122 6.0281 5.85274 5.96513 6.55611 5.92719C6.64574 5.92236 6.73331 5.91791 6.81914 5.91355L6.82056 5.91348C7.43529 5.88228 7.96186 5.85554 8.52154 5.72433L8.52266 5.72407C9.90789 5.40096 11.4581 4.36933 12.0449 3.17167L13.1088 1L13.8934 3.28357C14.3228 4.53336 14.8172 6.1955 14.9587 7.87787C14.9916 8.26895 15.0061 8.66939 14.9946 9.07216C14.6774 8.95329 14.3431 8.88893 13.9982 8.87369C14.0139 7.02619 13.4498 5.06454 12.9458 3.59782C12.1953 5.12988 10.3486 6.308 8.75357 6.68003C8.09855 6.8336 7.47651 6.86467 6.86792 6.89507C6.08745 6.93405 5.3291 6.97193 4.55165 7.26564C1.3967 8.45667 1.44493 12.1521 3.18287 12.9822L3.28634 13.0365C3.28634 13.0365 4.69567 12.7605 6 12.409V13.3881C5.56724 13.5169 5.07116 13.6653 4.46046 13.8727C4.25001 13.9442 4.08516 14.0131 4.08516 14.0131C4.52096 13.9425 4.95325 13.9184 4.95325 13.9184C5.28039 13.9038 5.63202 13.9053 6 13.9131V14.8959C5.64166 14.888 5.31148 14.8863 5.00581 14.8996L4.9978 14.9001L4.95111 14.9032C4.90953 14.9062 4.84878 14.9109 4.77532 14.9176C4.62629 14.9312 4.43448 14.9523 4.24795 14.9825C4.03864 15.0165 3.80724 15.0043 3.57859 14.9162C3.35522 14.8302 3.19454 14.695 3.08492 14.572C2.90264 14.3675 2.80274 14.1231 2.76153 14.0223L2.72278 13.9275C2.70621 13.8868 2.69455 13.8582 2.68495 13.836C1.33026 13.1485 0.845643 11.5236 1.04186 10.1251C1.25338 8.61754 2.25367 7.08072 4.19306 6.34848Z" fill="#208A3C"/>
</svg>
