<svg width="16" height="16" viewBox="0 0 16 16" fill="none" xmlns="http://www.w3.org/2000/svg">
<path fill-rule="evenodd" clip-rule="evenodd" d="M14.4122 8.29491C14.0217 7.90438 13.3885 7.90438 12.998 8.29491L11.6466 9.64627L8 13.2929V16H10.7071L15.7051 11.002C16.0956 10.6115 16.0956 9.97832 15.7051 9.5878L14.4122 8.29491ZM14 11.2929L14.998 10.2949L13.7051 9.00201L12.7071 9.99999L14 11.2929ZM12 10.7071L13.2929 12L10.2929 15H9V13.7071L12 10.7071Z" fill="#6C707E"/>
<path d="M7 13.9417C6.90121 13.9388 6.80301 13.9357 6.70554 13.9327C6.07993 13.9132 5.48404 13.8946 4.95277 13.9182C4.95277 13.9182 4.52047 13.9423 4.08467 14.0129C4.08467 14.0129 4.24952 13.944 4.45997 13.8726C5.08689 13.6597 5.59303 13.5089 6.03386 13.3777C6.38853 13.2721 6.70096 13.179 7 13.0763V13.9417Z" fill="#F2FCF3"/>
<path d="M13.8432 7.0067C13.6433 5.77078 13.281 4.57446 12.9454 3.59766C12.1948 5.12972 10.3481 6.30783 8.75308 6.67987C8.09806 6.83344 7.47602 6.86451 6.86743 6.8949C6.08696 6.93389 5.32861 6.97177 4.55116 7.26548C1.39622 8.45651 1.44444 12.1519 3.18238 12.9821L3.28585 13.0363L3.31088 13.0313C3.57821 12.9775 5.92295 12.5063 7.25453 12.0244C7.61275 11.8947 7.9771 11.7318 8.33856 11.54L12.2909 7.58774C12.7165 7.16206 13.2864 6.96838 13.8432 7.0067Z" fill="#F2FCF3"/>
<path d="M6.55611 5.92719C5.85274 5.96513 5.04122 6.0281 4.19306 6.34848C2.25367 7.08072 1.25338 8.61754 1.04186 10.1251C0.845643 11.5236 1.33026 13.1485 2.68495 13.836C2.69455 13.8582 2.70621 13.8868 2.72278 13.9275L2.76153 14.0223C2.80274 14.1231 2.90264 14.3675 3.08492 14.572C3.19454 14.695 3.35522 14.8302 3.57859 14.9162C3.80724 15.0043 4.03864 15.0165 4.24795 14.9825C4.43448 14.9523 4.62629 14.9312 4.77532 14.9176C4.84878 14.9109 4.90953 14.9062 4.95111 14.9032L4.9978 14.9001L5.00581 14.8996C5.49374 14.8783 6.04412 14.8954 6.67179 14.9149L6.95762 14.9236C6.97172 14.924 6.98584 14.9244 7 14.9248V13.9419C6.90138 13.9389 6.80334 13.9359 6.70602 13.9328C6.08041 13.9133 5.48453 13.8948 4.95325 13.9184C4.95325 13.9184 4.52096 13.9425 4.08516 14.0131C4.08516 14.0131 4.25001 13.9442 4.46046 13.8727C5.08736 13.6598 5.59348 13.5091 6.03431 13.3779C6.38879 13.2723 6.7011 13.1793 7 13.0767V12.8786L8.33766 11.5409C7.97666 11.7324 7.61278 11.895 7.25502 12.0246C5.84152 12.5361 3.28634 13.0365 3.28634 13.0365L3.18287 12.9822C1.44493 12.1521 1.3967 8.45667 4.55165 7.26564C5.3291 6.97193 6.08745 6.93405 6.86791 6.89507C7.4765 6.86467 8.09855 6.8336 8.75357 6.68003C10.3486 6.308 12.1953 5.12988 12.9458 3.59782C13.2814 4.57459 13.6437 5.77086 13.8437 7.00673C14.2214 7.03282 14.5932 7.16566 14.9099 7.40527C14.725 5.88728 14.2825 4.41612 13.8934 3.28357L13.1088 1L12.0449 3.17167C11.4581 4.36933 9.90789 5.40096 8.52266 5.72407L8.52154 5.72433C7.96186 5.85554 7.43529 5.88228 6.82056 5.91348L6.81914 5.91355C6.73331 5.91791 6.64574 5.92236 6.55611 5.92719Z" fill="#208A3C"/>
</svg>
