<svg width="16" height="16" viewBox="0 0 16 16" fill="none" xmlns="http://www.w3.org/2000/svg">
<path d="M2 4C2 3.44772 2.44772 3 3 3H5V13H3C2.44772 13 2 12.5523 2 12V4Z" fill="#EBECF0"/>
<path fill-rule="evenodd" clip-rule="evenodd" d="M3 2C1.89543 2 1 2.89543 1 4V12C1 13.1046 1.89543 14 3 14H8V13H6V3H13C13.5523 3 14 3.44772 14 4V8H15V4C15 2.89543 14.1046 2 13 2H3ZM5 3H3C2.44772 3 2 3.44772 2 4V12C2 12.5523 2.44772 13 3 13H5V3Z" fill="#6C707E"/>
<path fill-rule="evenodd" clip-rule="evenodd" d="M12.5 16C14.433 16 16 14.433 16 12.5C16 10.567 14.433 9 12.5 9C10.567 9 9 10.567 9 12.5C9 14.433 10.567 16 12.5 16ZM13 10.5C13 10.2239 12.7761 10 12.5 10C12.2239 10 12 10.2239 12 10.5V12.5C12 12.6326 12.0527 12.7598 12.1464 12.8536L13.5607 14.2678C13.7559 14.463 14.0725 14.463 14.2678 14.2678C14.463 14.0725 14.463 13.7559 14.2678 13.5607L13 12.2929V10.5Z" fill="#4682FA"/>
</svg>
