<svg width="32" height="32" viewBox="0 0 32 32" fill="none" xmlns="http://www.w3.org/2000/svg" data-scaled="true">
<g clip-path="url(#clip0_4372_11947)">
<path d="M2.03636 32H19.0205C19.8351 32 20.5713 31.5145 20.8922 30.766L28.9263 12.0207C29.0348 11.7673 29.0909 11.4941 29.0909 11.2183V2.03636C29.0909 0.911709 28.1792 0 27.0545 0H18.0716C17.6692 0 17.2759 0.119273 16.9411 0.342691L0.906764 11.0441C0.340655 11.422 0.000872727 12.0573 0.000872727 12.7377L0 29.9636C0 31.0883 0.911709 32 2.03636 32Z" fill="url(#paint0_linear_4372_11947)"/>
<path d="M24.7403 29.0909H29.9636C31.0883 29.0909 32 28.1792 32 27.0545V20.5082C32 20.4119 31.993 20.3156 31.9796 20.2202L29.3408 1.74836C29.1974 0.745018 28.3383 0 27.3248 0H19.4883C18.3633 0 17.4516 0.912 17.4519 2.03695L17.4542 11.3062C17.4542 11.5249 17.4894 11.7423 17.5587 11.9497L22.8084 27.6986C23.0856 28.53 23.8638 29.0909 24.7403 29.0909Z" fill="url(#paint1_linear_4372_11947)"/>
<path d="M24.0261 29.091L29.9638 29.0901C31.0885 29.0901 31.9999 28.1784 31.9999 27.0538V21.3005C31.9999 20.7061 31.7401 20.1412 31.2889 19.7543L12.2082 3.39936C11.839 3.08314 11.3689 2.90918 10.8828 2.90918H4.94506C3.8204 2.90918 2.90869 3.82089 2.90869 4.94554V10.6997C2.90869 11.2941 3.16847 11.859 3.61967 12.2459L22.7001 28.6005C23.0693 28.917 23.5394 29.0907 24.0258 29.0907L24.0261 29.091Z" fill="#FF43F2"/>
<path d="M26 6H6V26H26V6Z" fill="black"/>
<path d="M16 22H9V23H16V22Z" fill="white"/>
<path d="M8.94995 9.00775H11.8394C12.5585 9.00775 13.2018 9.17039 13.7693 9.49567C14.3403 9.82095 14.7867 10.2729 15.1085 10.8511C15.43 11.4259 15.5909 12.0764 15.5909 12.8028C15.5909 13.5291 15.43 14.1817 15.1085 14.76C14.7867 15.3347 14.3403 15.7846 13.7693 16.1099C13.2018 16.4352 12.5585 16.5978 11.8394 16.5978H8.94995V9.00804V9.00775ZM11.8232 15.3182C12.2751 15.3182 12.6706 15.2171 13.0104 15.0147C13.3502 14.812 13.6122 14.5233 13.7966 14.1472C13.981 13.7676 14.0731 13.3197 14.0731 12.8028C14.0731 12.2858 13.981 11.8397 13.7966 11.4636C13.6122 11.084 13.3502 10.7933 13.0104 10.5909C12.6706 10.3882 12.2748 10.2874 11.8232 10.2874H10.43V15.3185H11.8232V15.3182ZM20.1251 16.7279C19.3987 16.7279 18.7409 16.5577 18.1516 16.2182C17.5626 15.8746 17.1 15.405 16.7636 14.8088C16.4276 14.209 16.2595 13.5402 16.2595 12.8028C16.2595 12.0654 16.4276 11.3986 16.7636 10.8023C17.0997 10.2026 17.5623 9.73237 18.1516 9.39286C18.7409 9.04928 19.3984 8.87793 20.1251 8.87793C20.7144 8.87793 21.2563 8.98307 21.7515 9.19246C22.2501 9.40186 22.6695 9.69665 23.0093 10.0762C23.3526 10.4558 23.5931 10.8929 23.7305 11.3881H22.1473C22.0317 11.1497 21.8746 10.9435 21.6757 10.7701C21.4805 10.5932 21.2511 10.4576 20.9871 10.3635C20.7234 10.2659 20.4396 10.2171 20.1358 10.2171C19.6877 10.2171 19.2828 10.3289 18.9215 10.5531C18.5602 10.7773 18.2765 11.0864 18.0703 11.4802C17.8679 11.8705 17.7668 12.3117 17.7668 12.8031C17.7668 13.2945 17.8681 13.7377 18.0703 14.1312C18.2762 14.5215 18.5599 14.8285 18.9215 15.0527C19.2831 15.2769 19.6877 15.3888 20.1358 15.3888C20.5514 15.3888 20.9272 15.3109 21.2636 15.1555C21.6034 15.0005 21.8726 14.785 22.0712 14.5105C22.2702 14.236 22.3768 13.927 22.391 13.5835L22.3965 13.7406H20.613V12.5751H23.8277V13.1713C23.8277 13.8402 23.6651 14.4454 23.3398 14.9874C23.0183 15.5261 22.5754 15.9505 22.0117 16.2615C21.4515 16.5726 20.8227 16.7276 20.1251 16.7276V16.7279Z" fill="white"/>
</g>
<defs>
<linearGradient id="paint0_linear_4372_11947" x1="29.8889" y1="1.99098" x2="0.536435" y2="31.3434" gradientUnits="userSpaceOnUse">
<stop offset="0.28" stop-color="#7256FF"/>
<stop offset="0.66" stop-color="#00D980"/>
</linearGradient>
<linearGradient id="paint1_linear_4372_11947" x1="32.3587" y1="28.1894" x2="19.7385" y2="0.969308" gradientUnits="userSpaceOnUse">
<stop offset="0.3" stop-color="#FF43F2"/>
<stop offset="0.54" stop-color="#7256FF"/>
</linearGradient>
<clipPath id="clip0_4372_11947">
<rect width="32" height="32" fill="white"/>
</clipPath>
</defs>
<path d="M28.0943 32H11.9057C11.3928 32 10.8849 31.8989 10.411 31.7026C9.93718 31.5064 9.50663 31.2188 9.14395 30.8561C8.78128 30.4934 8.49358 30.0628 8.2973 29.589C8.10102 29.1151 8 28.6073 8 28.0944V23.9056C8 23.3927 8.10102 22.8849 8.2973 22.411C8.49358 21.9372 8.78128 21.5066 9.14395 21.1439C9.50663 20.7812 9.93718 20.4935 10.411 20.2972C10.8849 20.101 11.3928 20 11.9057 20H28.0943C28.6072 20 29.1151 20.101 29.589 20.2972C30.0628 20.4935 30.4934 20.7812 30.856 21.1439C31.2187 21.5066 31.5064 21.9372 31.7027 22.411C31.899 22.8849 32 23.3927 32 23.9056V28.0944C32 29.1302 31.5885 30.1236 30.856 30.8561C30.1236 31.5885 29.1302 32 28.0943 32V32Z" fill="#FDB60D"/>
<path d="M12.4562 23.3781H16.5756V24.4473H13.6498V25.5551H16.2246V26.6238H13.6498V27.7708H16.6147V28.8395H12.4562V23.3781Z" fill="black"/>
<path d="M19.5557 23.3395H20.6635L23.0041 28.8395H21.748L21.2487 27.6147H18.9395L18.4402 28.8395H17.2156L19.5557 23.3395ZM20.8199 26.5537L20.0941 24.7825L19.3687 26.5537H20.8199Z" fill="black"/>
<path d="M23.8468 23.378H26.0782C26.3431 23.3466 26.6118 23.3722 26.866 23.4531C27.1203 23.534 27.3543 23.6684 27.5523 23.8473C27.7503 24.0261 27.9078 24.2453 28.0141 24.49C28.1205 24.7347 28.1732 24.9992 28.1689 25.266V25.2817C28.1666 25.5583 28.1056 25.8313 27.9899 26.0825C27.8742 26.3337 27.7064 26.5575 27.4977 26.739C27.289 26.9205 27.0441 27.0555 26.7792 27.1352C26.5144 27.2149 26.2356 27.2375 25.9614 27.2013H25.0486V28.8395H23.8468V23.378ZM26 26.1321C26.118 26.1471 26.238 26.1369 26.3519 26.1024C26.4658 26.0678 26.5711 26.0097 26.6609 25.9316C26.7508 25.8536 26.8232 25.7573 26.8733 25.6494C26.9234 25.5414 26.9502 25.4242 26.9518 25.3052V25.2894C26.9518 24.7515 26.5775 24.4625 25.9766 24.4625H25.0486V26.1321H26Z" fill="black"/>
</svg>