<svg width="16" height="16" viewBox="0 0 16 16" fill="none" xmlns="http://www.w3.org/2000/svg">
<g clip-path="url(#clip0_4372_11945)">
<path d="M16 0H0V16H16V0Z" fill="#21D789"/>
<path d="M14.9995 1H0.999512V15H14.9995V1Z" fill="black"/>
<path d="M8 12H3V13H8V12Z" fill="white"/>
<path d="M2.90161 2.86674H4.89141C5.38661 2.86674 5.82961 2.97874 6.22041 3.20274C6.61361 3.42674 6.92101 3.73794 7.14261 4.13614C7.36401 4.53194 7.47481 4.97994 7.47481 5.48014C7.47481 5.98034 7.36401 6.42974 7.14261 6.82794C6.92101 7.22374 6.61361 7.53354 6.22041 7.75754C5.82961 7.98154 5.38661 8.09354 4.89141 8.09354H2.90161V2.86694V2.86674ZM4.88021 7.21234C5.19141 7.21234 5.46381 7.14274 5.69781 7.00334C5.93181 6.86374 6.11221 6.66494 6.23921 6.40594C6.36621 6.14454 6.42961 5.83614 6.42961 5.48014C6.42961 5.12414 6.36621 4.81694 6.23921 4.55794C6.11221 4.29654 5.93181 4.09634 5.69781 3.95694C5.46381 3.81734 5.19121 3.74794 4.88021 3.74794H3.92081V7.21254H4.88021V7.21234ZM10.5972 8.18314C10.097 8.18314 9.64401 8.06594 9.23821 7.83214C8.83261 7.59554 8.51401 7.27214 8.28241 6.86154C8.05101 6.44854 7.93521 5.98794 7.93521 5.48014C7.93521 4.97234 8.05101 4.51314 8.28241 4.10254C8.51381 3.68954 8.83241 3.36574 9.23821 3.13194C9.64401 2.89534 10.0968 2.77734 10.5972 2.77734C11.003 2.77734 11.3762 2.84974 11.7172 2.99394C12.0606 3.13814 12.3494 3.34114 12.5834 3.60254C12.8198 3.86394 12.9854 4.16494 13.08 4.50594H11.9898C11.9102 4.34174 11.802 4.19974 11.665 4.08034C11.5306 3.95854 11.3726 3.86514 11.1908 3.80034C11.0092 3.73314 10.8138 3.69954 10.6046 3.69954C10.296 3.69954 10.0172 3.77654 9.76841 3.93094C9.51961 4.08534 9.32421 4.29814 9.18221 4.56934C9.04281 4.83814 8.97321 5.14194 8.97321 5.48034C8.97321 5.81874 9.04301 6.12394 9.18221 6.39494C9.32401 6.66374 9.51941 6.87514 9.76841 7.02954C10.0174 7.18394 10.296 7.26094 10.6046 7.26094C10.8908 7.26094 11.1496 7.20734 11.3812 7.10034C11.6152 6.99354 11.8006 6.84514 11.9374 6.65614C12.0744 6.46714 12.1478 6.25434 12.1576 6.01774L12.1614 6.12594H10.9332V5.32334H13.147V5.73394C13.147 6.19454 13.035 6.61134 12.811 6.98454C12.5896 7.35554 12.2846 7.64774 11.8964 7.86194C11.5106 8.07614 11.0776 8.18294 10.5972 8.18294V8.18314Z" fill="white"/>
</g>
<defs>
<clipPath id="clip0_4372_11945">
<rect width="16" height="16" fill="white"/>
</clipPath>
</defs>
<path d="M16 16H5.95284C5.43491 16 4.9382 15.7942 4.57198 15.428C4.20575 15.0618 4 14.565 4 14.0471V11.9529C4 11.435 4.20575 10.9382 4.57198 10.572C4.9382 10.2058 5.43491 10 5.95284 10H14.0471C14.5651 10 15.0618 10.2058 15.428 10.572C15.7942 10.9382 16 11.435 16 11.9529L16 16Z" fill="#FDB60D"/>
<path d="M5.87097 11.5658H8.11797V12.1489H6.52211V12.7533H7.92653V13.3362H6.52211V13.9618H8.13931V14.5447H5.87102L5.87097 11.5658Z" fill="black"/>
<path d="M9.74345 11.5447H10.3477L11.6244 14.5447H10.9393L10.6669 13.8767H9.40739L9.13504 14.5447H8.46704L9.74345 11.5447ZM10.4331 13.298L10.0372 12.3318L9.64149 13.298H10.4331Z" fill="black"/>
<path d="M12.084 11.5658H13.3011C13.4456 11.5487 13.5921 11.5626 13.7308 11.6067C13.8695 11.6509 13.9971 11.7243 14.1051 11.8218C14.2132 11.9194 14.2991 12.0388 14.3571 12.1723C14.4151 12.3058 14.4439 12.4501 14.4415 12.5956V12.6043C14.4403 12.7552 14.407 12.904 14.3439 13.0411C14.2808 13.1781 14.1892 13.3001 14.0754 13.3991C13.9615 13.4981 13.828 13.5718 13.6835 13.6153C13.539 13.6587 13.387 13.671 13.2374 13.6513H12.7395V14.5447H12.084L12.084 11.5658ZM13.2585 13.068C13.3229 13.0762 13.3883 13.0708 13.4504 13.0519C13.5125 13.0331 13.57 13.0012 13.619 12.9587C13.668 12.9161 13.7075 12.8636 13.7348 12.8047C13.7622 12.7458 13.7768 12.6819 13.7777 12.617V12.6084C13.7777 12.315 13.5735 12.1574 13.2457 12.1574H12.7395V13.068H13.2585Z" fill="black"/>
</svg>