<svg width="80" height="80" viewBox="0 0 80 80" fill="none" xmlns="http://www.w3.org/2000/svg">
<path d="M77 22.7L73.5 50.1L71.6 62.1L47.2 77L17 53.8L53.7 15.3L77 22.7Z" fill="url(#paint0_linear)"/>
<path d="M47.2 70.9V73.1H49.7999L50.5999 71.7L47.2 70.9Z" fill="url(#paint1_linear)"/>
<path d="M69.8 60.8L73.5 50L75.6 65.6L69.8 60.8Z" fill="url(#paint2_linear)"/>
<path d="M77 22.7L34.4 51.7999L15.1 54.7999L53.7 4.19995L77 22.7Z" fill="url(#paint3_linear)"/>
<path d="M45.6 15.1L53.7 4.19995L52.3 26.6L45.6 15.1Z" fill="url(#paint4_linear)"/>
<path d="M14.9 54.6L3.80005 46.6L14.4 36.1L46.1 48.9L14.9 54.6Z" fill="url(#paint5_linear)"/>
<path d="M33 67.1L9 75.2L15 58.2001L44.5 46.8L60.9 56.9001L33 67.1Z" fill="url(#paint6_linear)"/>
<path d="M26.3 18.6L13.7 3L37.9 5.9L40.7 13.8L26.3 18.6Z" fill="url(#paint7_linear)"/>
<path d="M73.5 50L37.9 5.90002L24.9 6.00002L17.5 27.6L63.7 52.9L55.9 64.3L71.6 62.1L73.5 50Z" fill="url(#paint8_linear)"/>
<path d="M17.4 28.8L9.19995 28.6L13.7 3L24.9 6.1L17.4 28.8Z" fill="#FFD460"/>
<path d="M63.7 52.9L43 48.4L3 32.2999L17.7 27.7L63.7 52.9Z" fill="url(#paint9_linear)"/>
<path d="M23.6 9.90002L17.7 27.7L17.6 27.8L17.7 27.7L46.7 43.6L47.3 43.7L59.2 34.8L23.6 9.90002Z" fill="url(#paint10_linear)"/>
<path d="M13.7 3L3 32.3L16.7 28.8L17.7 27.7L23.6 9.9L13.7 3Z" fill="url(#paint11_linear)"/>
<path d="M9 75.2L18.1 38.5L43 48.4L9 75.2Z" fill="url(#paint12_linear)"/>
<path d="M43 48.4L29.2001 36.5L10.2 34.7L3.80005 46.5999L17.3 41.0999H17.5L9.00005 75.1999L43 48.4Z" fill="url(#paint13_linear)"/>
<path d="M63.7 52.9L50.8 71.8L33 67.2L43 48.4L63.7 52.9Z" fill="url(#paint14_linear)"/>
<path d="M63.7 52.9L43 48.4L3 32.2999L17.7 27.7L63.7 52.9Z" fill="url(#paint15_linear)"/>
<path d="M17.7 27.7L3 32.2999L46.7 43.5999L17.7 27.7Z" fill="url(#paint16_linear)"/>
<path d="M71.5999 62.1L55.5 64.4L47.2 77L75.5999 65.6L71.5999 62.1Z" fill="url(#paint17_linear)"/>
<path d="M47.2 77L55.8 64.5L33 67.3L47.2 77Z" fill="url(#paint18_linear)"/>
<path d="M30.5 34.6L46.6 43.5L60.5 34L45.4 15.1L30.5 34.6Z" fill="url(#paint19_linear)"/>
<path d="M59.2 34.8L40.4 21.6L30.5 34.6L46.6 43.5L58.6 35.3L59.2 34.8Z" fill="url(#paint20_linear)"/>
<path d="M63 17H17V63H63V17Z" fill="url(#paint21_linear)"/>
<g opacity="0.4">
<g opacity="0.3">
<path opacity="0.3" d="M62.2001 63L63 62.9V53.1L56.3 63H62.2001Z" fill="#231F20"/>
<path opacity="0.3" d="M46.5 17H21.6L17.9 27.8L61 51.4L18.1 28L17 28.3V37.8L43 48.3L63 52.6V52.5V37.6L46.5 17Z" fill="url(#paint22_linear)"/>
<path opacity="0.3" d="M21.6 17L17.9 27.8L63 52.5V37.6L46.5 17H21.6Z" fill="url(#paint23_linear)"/>
<path opacity="0.3" d="M17 17V29H17.1L18.1 27.9L21.7 17H17Z" fill="#F9ED32"/>
</g>
<path opacity="0.3" d="M17 28.3V37.8L43 48.3L63 52.6V52.5L18.1 28L17 28.3Z" fill="url(#paint24_linear)"/>
<path opacity="0.3" d="M17 35.9L46.6 43.5L18.1 28L17 28.3V35.9Z" fill="url(#paint25_linear)"/>
<path opacity="0.3" d="M35.0999 63L43 48.3L24.2 63H35.0999Z" fill="url(#paint26_linear)"/>
<path opacity="0.3" d="M17 44.6L17.9 41.1H17.7L17 41.4V44.6Z" fill="#F7941D"/>
<path opacity="0.3" d="M17 41.4001L17.7 41.1H17.9L17 44.6V63H24.2L43 48.3L17 37.8V41.4001Z" fill="url(#paint27_linear)"/>
<path opacity="0.3" d="M35.1 63H56.3L63 53.1V52.6L43 48.3L35.1 63Z" fill="url(#paint28_linear)"/>
<g opacity="0.3">
<path opacity="0.3" d="M60.2 34.1L63 32.2V17H46.5L60.2 34.1Z" fill="url(#paint29_linear)"/>
</g>
</g>
<g opacity="0.5">
<path opacity="0.3" d="M21.6 17L17.9 27.8L63 52.5V37.6L46.5 17H21.6Z" fill="url(#paint30_linear)"/>
<path opacity="0.3" d="M17 17V29H17.1L18.1 27.9L21.7 17H17Z" fill="#F9ED32"/>
</g>
<path d="M39.9 54.3H22.7V57.2001H39.9V54.3Z" fill="white"/>
<path d="M31.2999 25.9V22.8H22.7999V25.9H25.1999V36.8H22.7999V39.9001H31.2999V36.8H28.8999V25.9H31.2999Z" fill="white"/>
<path d="M39.6 40.2C38.3 40.2 37.1 39.9 36.2 39.4C35.3 38.9 34.5 38.3 34 37.6L36.4 35C36.9 35.5 37.4 36 37.9 36.3C38.4 36.6 38.9 36.8 39.6 36.8C40.3 36.8 40.9 36.6 41.3 36.1C41.7 35.7 41.9 34.9 41.9 33.9V22.9H45.8V34C45.8 35 45.7 35.9 45.4 36.7C45 37.4 44.6 38 44 38.6C43.5 39.1 42.8 39.5 42.1 39.8C41.3 40 40.5 40.2 39.6 40.2Z" fill="white"/>
<defs>
<linearGradient id="paint0_linear" x1="45.9339" y1="25.189" x2="49.0607" y2="64.2059" gradientUnits="userSpaceOnUse">
<stop offset="0.0998726" stop-color="#087CFA"/>
<stop offset="0.4602" stop-color="#079AF6"/>
<stop offset="0.8454" stop-color="#07C3F2"/>
</linearGradient>
<linearGradient id="paint1_linear" x1="49.002" y1="72.5085" x2="49.615" y2="73.398" gradientUnits="userSpaceOnUse">
<stop offset="0.2859" stop-color="#087CFA"/>
<stop offset="1" stop-color="#079AF6"/>
</linearGradient>
<linearGradient id="paint2_linear" x1="71.3745" y1="67.1707" x2="78.258" y2="46.4311" gradientUnits="userSpaceOnUse">
<stop offset="0.1184" stop-color="#27A6F6"/>
<stop offset="0.2418" stop-color="#2F99F5"/>
<stop offset="0.9197" stop-color="#5753F2"/>
</linearGradient>
<linearGradient id="paint3_linear" x1="78.4544" y1="7.22095" x2="35.4334" y2="33.2357" gradientUnits="userSpaceOnUse">
<stop offset="0.286" stop-color="#0AEFFF"/>
<stop offset="0.3292" stop-color="#09DEFA"/>
<stop offset="0.3966" stop-color="#07CAF4"/>
<stop offset="0.442" stop-color="#07C3F2"/>
<stop offset="0.5015" stop-color="#07ACF5"/>
<stop offset="0.5749" stop-color="#0897F7"/>
<stop offset="0.6568" stop-color="#0888F9"/>
<stop offset="0.7528" stop-color="#087FFA"/>
<stop offset="0.8981" stop-color="#087CFA"/>
</linearGradient>
<linearGradient id="paint4_linear" x1="49.6681" y1="2.46715" x2="49.6681" y2="31.0026" gradientUnits="userSpaceOnUse">
<stop offset="0.207" stop-color="#02C5FE"/>
<stop offset="0.317" stop-color="#04ACFD"/>
<stop offset="0.4435" stop-color="#0697FB"/>
<stop offset="0.5845" stop-color="#0788FB"/>
<stop offset="0.7499" stop-color="#087FFA"/>
<stop offset="1" stop-color="#087CFA"/>
</linearGradient>
<linearGradient id="paint5_linear" x1="14.9357" y1="38.3664" x2="21.3163" y2="44.3432" gradientUnits="userSpaceOnUse">
<stop stop-color="#FF581C"/>
<stop offset="0.1918" stop-color="#FF5124"/>
<stop offset="0.4947" stop-color="#FE3F3B"/>
<stop offset="0.7851" stop-color="#FE2857"/>
</linearGradient>
<linearGradient id="paint6_linear" x1="23.2026" y1="53.3846" x2="33.9579" y2="64.9672" gradientUnits="userSpaceOnUse">
<stop offset="0.4574" stop-color="#FF149D"/>
<stop offset="0.536" stop-color="#EF1AB2"/>
<stop offset="0.6983" stop-color="#C82BE9"/>
<stop offset="0.7574" stop-color="#B831FF"/>
<stop offset="0.8388" stop-color="#A33AFE"/>
<stop offset="1" stop-color="#6E51FD"/>
</linearGradient>
<linearGradient id="paint7_linear" x1="25.53" y1="1.0955" x2="28.9568" y2="16.0877" gradientUnits="userSpaceOnUse">
<stop offset="0.0276342" stop-color="#FFDE17"/>
<stop offset="0.276" stop-color="#FDB60D"/>
<stop offset="0.5939" stop-color="#FC801D"/>
<stop offset="0.6532" stop-color="#FC7A25"/>
<stop offset="0.7469" stop-color="#FD6A3C"/>
<stop offset="0.8628" stop-color="#FE4F61"/>
<stop offset="0.976" stop-color="#FF318C"/>
</linearGradient>
<linearGradient id="paint8_linear" x1="23.0663" y1="16.1567" x2="74.7879" y2="57.2181" gradientUnits="userSpaceOnUse">
<stop stop-color="#FE2857"/>
<stop offset="0.0557468" stop-color="#FE255F"/>
<stop offset="0.1437" stop-color="#FF1F76"/>
<stop offset="0.2282" stop-color="#FF1692"/>
<stop offset="0.289" stop-color="#F11BA7"/>
<stop offset="0.4143" stop-color="#CD29DE"/>
<stop offset="0.4828" stop-color="#B831FF"/>
<stop offset="0.581" stop-color="#7A4CFD"/>
<stop offset="0.748" stop-color="#087CFA"/>
<stop offset="0.9745" stop-color="#07A5F5"/>
</linearGradient>
<linearGradient id="paint9_linear" x1="8.6856" y1="29.1537" x2="59.9704" y2="55.8346" gradientUnits="userSpaceOnUse">
<stop offset="0.2464" stop-color="#FE2857"/>
<stop offset="0.292" stop-color="#FE265F"/>
<stop offset="0.3641" stop-color="#FE1F76"/>
<stop offset="0.4534" stop-color="#FF159B"/>
<stop offset="0.4574" stop-color="#FF149D"/>
<stop offset="0.536" stop-color="#EF1AB2"/>
<stop offset="0.6983" stop-color="#C82BE9"/>
<stop offset="0.7574" stop-color="#B831FF"/>
<stop offset="0.811" stop-color="#A33AFE"/>
<stop offset="0.9215" stop-color="#6C52FD"/>
<stop offset="1" stop-color="#4164FC"/>
</linearGradient>
<linearGradient id="paint10_linear" x1="19.9611" y1="18.0891" x2="48.9176" y2="38.7723" gradientUnits="userSpaceOnUse">
<stop offset="0.00823305" stop-color="#FC35E3"/>
<stop offset="0.2164" stop-color="#F12CD5"/>
<stop offset="0.4105" stop-color="#EB27CD"/>
<stop offset="0.4984" stop-color="#DE2ADA"/>
<stop offset="0.7777" stop-color="#B831FF"/>
<stop offset="1" stop-color="#6D51FD"/>
</linearGradient>
<linearGradient id="paint11_linear" x1="8.1875" y1="17.5478" x2="18.1844" y2="23.9596" gradientUnits="userSpaceOnUse">
<stop offset="0.0433729" stop-color="#FFD25F"/>
<stop offset="0.2889" stop-color="#FEBC9B"/>
<stop offset="0.6173" stop-color="#FC9CF0"/>
<stop offset="1" stop-color="#FD5ED7"/>
</linearGradient>
<linearGradient id="paint12_linear" x1="-0.00430494" y1="36.357" x2="46.28" y2="81.6549" gradientUnits="userSpaceOnUse">
<stop offset="0.0226617" stop-color="#FC801D"/>
<stop offset="0.2467" stop-color="#FC7E20"/>
<stop offset="0.276" stop-color="#FC772A"/>
<stop offset="0.3253" stop-color="#FD6444"/>
<stop offset="0.3881" stop-color="#FE466E"/>
<stop offset="0.4273" stop-color="#FF318C"/>
<stop offset="0.4924" stop-color="#EA3896"/>
<stop offset="0.6276" stop-color="#B248AE"/>
<stop offset="0.8194" stop-color="#5A63D6"/>
<stop offset="0.9859" stop-color="#087CFA"/>
</linearGradient>
<linearGradient id="paint13_linear" x1="11.342" y1="36.4831" x2="25.9492" y2="61.7246" gradientUnits="userSpaceOnUse">
<stop offset="0.00442798" stop-color="#FFDE17"/>
<stop offset="0.0525354" stop-color="#FECB12"/>
<stop offset="0.1093" stop-color="#FDBB0E"/>
<stop offset="0.1542" stop-color="#FDB60D"/>
<stop offset="0.2351" stop-color="#FDAE0F"/>
<stop offset="0.3571" stop-color="#FC9A15"/>
<stop offset="0.4724" stop-color="#FC801D"/>
<stop offset="1" stop-color="#FE4176"/>
</linearGradient>
<linearGradient id="paint14_linear" x1="41.7645" y1="49.4959" x2="55.2701" y2="71.0122" gradientUnits="userSpaceOnUse">
<stop offset="0.0211218" stop-color="#B149AF"/>
<stop offset="0.0831639" stop-color="#9153BD"/>
<stop offset="0.2186" stop-color="#3F6BE2"/>
<stop offset="0.3042" stop-color="#087CFA"/>
<stop offset="0.7942" stop-color="#07C3F2"/>
</linearGradient>
<linearGradient id="paint15_linear" x1="8.6856" y1="29.1537" x2="59.9704" y2="55.8346" gradientUnits="userSpaceOnUse">
<stop offset="0.2464" stop-color="#FE2857"/>
<stop offset="0.292" stop-color="#FE265F"/>
<stop offset="0.3641" stop-color="#FE1F76"/>
<stop offset="0.4534" stop-color="#FF159B"/>
<stop offset="0.4574" stop-color="#FF149D"/>
<stop offset="0.536" stop-color="#EF1AB2"/>
<stop offset="0.6983" stop-color="#C82BE9"/>
<stop offset="0.7574" stop-color="#B831FF"/>
<stop offset="0.811" stop-color="#A33AFE"/>
<stop offset="0.9215" stop-color="#6C52FD"/>
<stop offset="1" stop-color="#4164FC"/>
</linearGradient>
<linearGradient id="paint16_linear" x1="13.3868" y1="31.5684" x2="37.0439" y2="44.7273" gradientUnits="userSpaceOnUse">
<stop offset="0.00629908" stop-color="#FF45ED"/>
<stop offset="0.1766" stop-color="#FF35D8"/>
<stop offset="0.3352" stop-color="#FF24C0"/>
<stop offset="0.7349" stop-color="#EA23CA"/>
<stop offset="1" stop-color="#D923D1"/>
</linearGradient>
<linearGradient id="paint17_linear" x1="67.106" y1="56.4733" x2="59.357" y2="76.5934" gradientUnits="userSpaceOnUse">
<stop offset="0.2157" stop-color="#07C3F2"/>
<stop offset="0.3237" stop-color="#04B1EC"/>
<stop offset="0.4576" stop-color="#01A1E7"/>
<stop offset="0.5613" stop-color="#009BE5"/>
<stop offset="0.5745" stop-color="#0198E7"/>
<stop offset="0.6778" stop-color="#058AF1"/>
<stop offset="0.7992" stop-color="#0781F7"/>
<stop offset="0.9829" stop-color="#087EF9"/>
</linearGradient>
<linearGradient id="paint18_linear" x1="34.7083" y1="64.7501" x2="52.4498" y2="71.093" gradientUnits="userSpaceOnUse">
<stop offset="0.1529" stop-color="#087CFA"/>
<stop offset="0.6343" stop-color="#009AE5"/>
<stop offset="1" stop-color="#07C3F2"/>
</linearGradient>
<linearGradient id="paint19_linear" x1="49.0381" y1="18.0216" x2="43.5248" y2="43.4141" gradientUnits="userSpaceOnUse">
<stop stop-color="#FF188D"/>
<stop offset="0.3188" stop-color="#D82EC8"/>
<stop offset="0.4411" stop-color="#CC30CC"/>
<stop offset="0.6628" stop-color="#AC35D7"/>
<stop offset="0.8981" stop-color="#833CE5"/>
</linearGradient>
<linearGradient id="paint20_linear" x1="37.2533" y1="24.0094" x2="48.0086" y2="39.1771" gradientUnits="userSpaceOnUse">
<stop stop-color="#FF188D"/>
<stop offset="0.3188" stop-color="#D82EC8"/>
<stop offset="0.4411" stop-color="#CC30CC"/>
<stop offset="0.6628" stop-color="#AC35D7"/>
<stop offset="0.8981" stop-color="#833CE5"/>
</linearGradient>
<linearGradient id="paint21_linear" x1="16.2902" y1="20.6704" x2="63.3791" y2="59.0601" gradientUnits="userSpaceOnUse">
<stop stop-color="#521713"/>
<stop offset="0.080028" stop-color="#451310"/>
<stop offset="0.2989" stop-color="#270B09"/>
<stop offset="0.514" stop-color="#110504"/>
<stop offset="0.7218" stop-color="#040101"/>
<stop offset="0.9138"/>
</linearGradient>
<linearGradient id="paint22_linear" x1="17" y1="34.7963" x2="63" y2="34.7963" gradientUnits="userSpaceOnUse">
<stop offset="0.2464" stop-color="#FE2857"/>
<stop offset="0.292" stop-color="#FE265F"/>
<stop offset="0.3641" stop-color="#FE1F76"/>
<stop offset="0.4534" stop-color="#FF159B"/>
<stop offset="0.4574" stop-color="#FF149D"/>
<stop offset="0.536" stop-color="#EF1AB2"/>
<stop offset="0.6983" stop-color="#C82BE9"/>
<stop offset="0.7574" stop-color="#B831FF"/>
<stop offset="0.811" stop-color="#A33AFE"/>
<stop offset="0.9215" stop-color="#6C52FD"/>
<stop offset="1" stop-color="#4164FC"/>
</linearGradient>
<linearGradient id="paint23_linear" x1="17.941" y1="34.744" x2="63" y2="34.744" gradientUnits="userSpaceOnUse">
<stop offset="0.1118" stop-color="#F7941D"/>
<stop offset="0.1374" stop-color="#F88C25"/>
<stop offset="0.178" stop-color="#F9753A"/>
<stop offset="0.2284" stop-color="#FB505D"/>
<stop offset="0.2863" stop-color="#FF1C8C"/>
<stop offset="0.2928" stop-color="#FF1692"/>
<stop offset="0.4031" stop-color="#EA1A93"/>
<stop offset="0.4677" stop-color="#DB1D93"/>
<stop offset="0.5543" stop-color="#9F2895"/>
<stop offset="0.7229" stop-color="#21409A"/>
<stop offset="0.8671" stop-color="#222F5C"/>
<stop offset="1" stop-color="#231F20"/>
</linearGradient>
<linearGradient id="paint24_linear" x1="17" y1="40.2744" x2="63" y2="40.2744" gradientUnits="userSpaceOnUse">
<stop offset="0.0878508" stop-color="#FE2857"/>
<stop offset="0.1283" stop-color="#FE265F"/>
<stop offset="0.1923" stop-color="#FE1F76"/>
<stop offset="0.2716" stop-color="#FF159B"/>
<stop offset="0.2751" stop-color="#FF149D"/>
<stop offset="0.4167" stop-color="#B21871"/>
<stop offset="0.5427" stop-color="#741B4E"/>
<stop offset="0.6489" stop-color="#481D35"/>
<stop offset="0.731" stop-color="#2D1E26"/>
<stop offset="0.7791" stop-color="#231F20"/>
</linearGradient>
<linearGradient id="paint25_linear" x1="21.4527" y1="33.9502" x2="39.4666" y2="43.97" gradientUnits="userSpaceOnUse">
<stop offset="0.00629908" stop-color="#FF45ED"/>
<stop offset="0.1766" stop-color="#FF35D8"/>
<stop offset="0.3352" stop-color="#FF24C0"/>
<stop offset="0.451" stop-color="#EA24B0"/>
<stop offset="0.6916" stop-color="#B22388"/>
<stop offset="1" stop-color="#63214F"/>
</linearGradient>
<linearGradient id="paint26_linear" x1="24.2259" y1="55.6392" x2="42.9672" y2="55.6392" gradientUnits="userSpaceOnUse">
<stop offset="0.4574" stop-color="#FF149D"/>
<stop offset="0.536" stop-color="#EF1AB2"/>
<stop offset="0.6983" stop-color="#C82BE9"/>
<stop offset="0.7574" stop-color="#B831FF"/>
<stop offset="0.8388" stop-color="#A33AFE"/>
<stop offset="1" stop-color="#6E51FD"/>
</linearGradient>
<linearGradient id="paint27_linear" x1="17" y1="50.413" x2="42.9672" y2="50.413" gradientUnits="userSpaceOnUse">
<stop offset="0.00442798" stop-color="#FFDE17"/>
<stop offset="0.0386836" stop-color="#FECB12"/>
<stop offset="0.0790912" stop-color="#FDBB0E"/>
<stop offset="0.1111" stop-color="#FDB60D"/>
<stop offset="0.1673" stop-color="#FDAE0F"/>
<stop offset="0.2521" stop-color="#FC9A15"/>
<stop offset="0.3323" stop-color="#FC801D"/>
<stop offset="0.7374" stop-color="#BE1E2D"/>
</linearGradient>
<linearGradient id="paint28_linear" x1="35.122" y1="55.6392" x2="63" y2="55.6392" gradientUnits="userSpaceOnUse">
<stop stop-color="#087CFA"/>
<stop offset="0.7942" stop-color="#231F20"/>
</linearGradient>
<linearGradient id="paint29_linear" x1="81.7702" y1="60.7912" x2="52.4578" y2="13.324" gradientUnits="userSpaceOnUse">
<stop offset="0.3486" stop-color="#3595F3"/>
<stop offset="0.4019" stop-color="#3490EB"/>
<stop offset="0.4865" stop-color="#3284D4"/>
<stop offset="0.5918" stop-color="#2F6FAE"/>
<stop offset="0.7135" stop-color="#2B527B"/>
<stop offset="0.8476" stop-color="#252D39"/>
<stop offset="0.8951" stop-color="#231F20"/>
</linearGradient>
<linearGradient id="paint30_linear" x1="17.941" y1="34.744" x2="63" y2="34.744" gradientUnits="userSpaceOnUse">
<stop offset="0.1118" stop-color="#F7941D"/>
<stop offset="0.1374" stop-color="#F88C25"/>
<stop offset="0.178" stop-color="#F9753A"/>
<stop offset="0.2284" stop-color="#FB505D"/>
<stop offset="0.2863" stop-color="#FF1C8C"/>
<stop offset="0.2928" stop-color="#FF1692"/>
<stop offset="0.4031" stop-color="#EA1A93"/>
<stop offset="0.4677" stop-color="#DB1D93"/>
<stop offset="0.5543" stop-color="#9F2895"/>
<stop offset="0.7229" stop-color="#21409A"/>
<stop offset="0.8671" stop-color="#222F5C"/>
<stop offset="1" stop-color="#231F20"/>
</linearGradient>
</defs>
</svg>
