<svg width="32" height="32" viewBox="0 0 32 32" fill="none" xmlns="http://www.w3.org/2000/svg">
<path d="M30.5 9.30002L29.1 19.9L28.3 24.6L18.8 30.4L7 21.4L21.4 6.40002L30.5 9.30002Z" fill="url(#paint0_linear)"/>
<path d="M18.8 28.1V28.9H19.8L20.1 28.4L18.8 28.1Z" fill="url(#paint1_linear)"/>
<path d="M27.6 24.1L29.1 19.9L29.9 26L27.6 24.1Z" fill="url(#paint2_linear)"/>
<path d="M30.5 9.3L13.8 20.6L6.30005 21.8L21.4 2L30.5 9.3Z" fill="url(#paint3_linear)"/>
<path d="M18.2 6.3L21.4 2L20.7999 10.8L18.2 6.3Z" fill="url(#paint4_linear)"/>
<path d="M6.20002 21.7L1.90002 18.6L6.00002 14.5L18.4 19.5L6.20002 21.7Z" fill="url(#paint5_linear)"/>
<path d="M13.3 26.6L3.90002 29.7L6.20002 23.1L17.7 18.6L24.2 22.6L13.3 26.6Z" fill="url(#paint6_linear)"/>
<path d="M10.6 7.6L5.69995 1.5L15.2 2.7L16.3 5.8L10.6 7.6Z" fill="url(#paint7_linear)"/>
<path d="M29.1 19.9L15.2 2.69995H10.1L7.19995 11.1L25.2999 21L22.2 25.5L28.2999 24.6L29.1 19.9Z" fill="url(#paint8_linear)"/>
<path d="M7.2 11.6L4 11.5L5.7 1.5L10.1 2.7L7.2 11.6Z" fill="#FFD463"/>
<path d="M25.3 21L17.2 19.3L1.5 13L7.3 11.2L25.3 21Z" fill="url(#paint9_linear)"/>
<path d="M9.60005 4.19995L7.30005 11.2L18.6 17.4L18.9 17.5L23.5 14L9.60005 4.19995Z" fill="url(#paint10_linear)"/>
<path d="M5.7 1.5L1.5 13L6.9 11.6L7.3 11.2L9.6 4.2L5.7 1.5Z" fill="url(#paint11_linear)"/>
<path d="M3.90002 29.7L7.50002 15.4L17.2 19.3L3.90002 29.7Z" fill="url(#paint12_linear)"/>
<path d="M17.2 19.3L11.8 14.6L4.40002 13.9L1.90002 18.6L7.10002 16.4H7.20002L3.90002 29.7L17.2 19.3Z" fill="url(#paint13_linear)"/>
<path d="M25.3 21L20.2 28.4L13.3 26.6L17.2 19.3L25.3 21Z" fill="url(#paint14_linear)"/>
<path d="M25.3 21L17.2 19.3L1.5 13L7.3 11.2L25.3 21Z" fill="url(#paint15_linear)"/>
<path d="M7.3 11.2L1.5 13L18.6 17.4L7.3 11.2Z" fill="url(#paint16_linear)"/>
<path d="M28.3 24.6L22 25.5L18.8 30.4L29.9 26L28.3 24.6Z" fill="url(#paint17_linear)"/>
<path d="M18.8 30.4L22.2 25.6L13.3 26.7L18.8 30.4Z" fill="url(#paint18_linear)"/>
<path d="M12.3 13.9L18.6 17.4L24 13.6L18.1 6.30005L12.3 13.9Z" fill="url(#paint19_linear)"/>
<path d="M23.5 14L16.2 8.80005L12.3 13.9L18.6 17.4L23.3 14.2L23.5 14Z" fill="url(#paint20_linear)"/>
<path d="M25 7H7V25H25V7Z" fill="url(#paint21_linear)"/>
<g opacity="0.3">
<g opacity="0.3">
<path opacity="0.3" d="M24.7 25H25V21.2L22.4 25H24.7Z" fill="#231F20"/>
<path opacity="0.3" d="M18.5 7H8.8L7.4 11.2L24.2 20.5L7.4 11.3L7 11.4V15.1L17.2 19.2L25 20.9V15L18.5 7Z" fill="url(#paint22_linear)"/>
<path opacity="0.3" d="M8.80002 7L7.40002 11.2L25 20.9V15L18.5 7H8.80002Z" fill="url(#paint23_linear)"/>
<path opacity="0.3" d="M7 7V11.7L7.4 11.3L8.8 7H7Z" fill="#F9ED32"/>
</g>
<path opacity="0.3" d="M7 11.4V15.1L17.2 19.2L25 20.9L7.4 11.3L7 11.4Z" fill="url(#paint24_linear)"/>
<path opacity="0.3" d="M7 14.4L18.6 17.4L7.4 11.3L7 11.4V14.4Z" fill="url(#paint25_linear)"/>
<path opacity="0.3" d="M14.1 25L17.2 19.2L9.80005 25H14.1Z" fill="url(#paint26_linear)"/>
<path opacity="0.3" d="M7 17.8L7.3 16.4L7 16.6V17.8Z" fill="#F7941D"/>
<path opacity="0.3" d="M7 16.6L7.3 16.4L7 17.8V25H9.8L17.2 19.2L7 15.1V16.6Z" fill="url(#paint27_linear)"/>
<path opacity="0.3" d="M14.1 25H22.4L25 21.2V20.9L17.2 19.2L14.1 25Z" fill="url(#paint28_linear)"/>
<g opacity="0.3">
<path opacity="0.3" d="M23.9 13.7L25 12.9V7H18.5L23.9 13.7Z" fill="url(#paint29_linear)"/>
</g>
</g>
<path d="M15.9 21.4H9.09998V23H15.9V21.4Z" fill="white"/>
<path d="M12 10.3382V9H9V10.3382H9.88235V14.6618H9V16H12V14.6618H11.2059V10.3382H12Z" fill="white"/>
<path d="M15.4444 16C14.8889 16 14.3333 15.8986 14 15.6957C13.5556 15.4928 13.3333 15.2899 13 14.9855L14 13.971C14.2222 14.1739 14.4444 14.3768 14.6667 14.4783C14.8889 14.5797 15.1111 14.6812 15.3333 14.6812C15.6667 14.6812 15.8889 14.5797 16.1111 14.3768C16.3333 14.1739 16.3333 13.8696 16.3333 13.4638V9H18V13.4638C18 13.8696 17.8889 14.2754 17.7778 14.4783C17.6667 14.7826 17.4444 14.9855 17.2222 15.1884C17 15.3913 16.6667 15.5942 16.3333 15.6957C16.2222 15.8986 15.8889 16 15.4444 16Z" fill="white"/>
<defs>
<linearGradient id="paint0_linear" x1="18.3174" y1="10.2157" x2="19.5386" y2="25.4533" gradientUnits="userSpaceOnUse">
<stop offset="0.0998726" stop-color="#087CFA"/>
<stop offset="0.4602" stop-color="#079AF6"/>
<stop offset="0.8454" stop-color="#07C3F2"/>
</linearGradient>
<linearGradient id="paint1_linear" x1="19.5157" y1="28.6959" x2="19.7551" y2="29.0433" gradientUnits="userSpaceOnUse">
<stop offset="0.2859" stop-color="#087CFA"/>
<stop offset="1" stop-color="#079AF6"/>
</linearGradient>
<linearGradient id="paint2_linear" x1="28.253" y1="26.6112" x2="30.9413" y2="18.5116" gradientUnits="userSpaceOnUse">
<stop offset="0.1184" stop-color="#27A6F6"/>
<stop offset="0.2418" stop-color="#2F99F5"/>
<stop offset="0.9197" stop-color="#5753F2"/>
</linearGradient>
<linearGradient id="paint3_linear" x1="31.0181" y1="3.1984" x2="14.2167" y2="13.3583" gradientUnits="userSpaceOnUse">
<stop offset="0.286" stop-color="#0AEFFF"/>
<stop offset="0.3292" stop-color="#09DEFA"/>
<stop offset="0.3966" stop-color="#07CAF4"/>
<stop offset="0.442" stop-color="#07C3F2"/>
<stop offset="0.5015" stop-color="#07ACF5"/>
<stop offset="0.5749" stop-color="#0897F7"/>
<stop offset="0.6568" stop-color="#0888F9"/>
<stop offset="0.7528" stop-color="#087FFA"/>
<stop offset="0.8981" stop-color="#087CFA"/>
</linearGradient>
<linearGradient id="paint4_linear" x1="19.7758" y1="1.3419" x2="19.7758" y2="12.4861" gradientUnits="userSpaceOnUse">
<stop offset="0.207" stop-color="#02C5FE"/>
<stop offset="0.317" stop-color="#04ACFD"/>
<stop offset="0.4435" stop-color="#0697FB"/>
<stop offset="0.5845" stop-color="#0788FB"/>
<stop offset="0.7499" stop-color="#087FFA"/>
<stop offset="1" stop-color="#087CFA"/>
</linearGradient>
<linearGradient id="paint5_linear" x1="6.21142" y1="15.362" x2="8.70332" y2="17.6962" gradientUnits="userSpaceOnUse">
<stop  offset="0" stop-color="#FF581C"/>
<stop offset="0.1918" stop-color="#FF5124"/>
<stop offset="0.4947" stop-color="#FE3F3B"/>
<stop offset="0.7851" stop-color="#FE2857"/>
</linearGradient>
<linearGradient id="paint6_linear" x1="9.43992" y1="21.2272" x2="13.6403" y2="25.7507" gradientUnits="userSpaceOnUse">
<stop offset="0.4574" stop-color="#FF149D"/>
<stop offset="0.536" stop-color="#EF1AB2"/>
<stop offset="0.6983" stop-color="#C82BE9"/>
<stop offset="0.7574" stop-color="#B831FF"/>
<stop offset="0.8388" stop-color="#A33AFE"/>
<stop offset="1" stop-color="#6E51FD"/>
</linearGradient>
<linearGradient id="paint7_linear" x1="10.3489" y1="0.8062" x2="11.6872" y2="6.6613" gradientUnits="userSpaceOnUse">
<stop offset="0.0276342" stop-color="#FFDE17"/>
<stop offset="0.276" stop-color="#FDB60D"/>
<stop offset="0.5939" stop-color="#FC801D"/>
<stop offset="0.6532" stop-color="#FC7A25"/>
<stop offset="0.7469" stop-color="#FD6A3C"/>
<stop offset="0.8628" stop-color="#FE4F61"/>
<stop offset="0.976" stop-color="#FF318C"/>
</linearGradient>
<linearGradient id="paint8_linear" x1="9.38665" y1="6.68815" x2="29.5861" y2="22.7243" gradientUnits="userSpaceOnUse">
<stop  offset="0" stop-color="#FE2857"/>
<stop offset="0.0557468" stop-color="#FE255F"/>
<stop offset="0.1437" stop-color="#FF1F76"/>
<stop offset="0.2282" stop-color="#FF1692"/>
<stop offset="0.289" stop-color="#F11BA7"/>
<stop offset="0.4143" stop-color="#CD29DE"/>
<stop offset="0.4828" stop-color="#B831FF"/>
<stop offset="0.581" stop-color="#7A4CFD"/>
<stop offset="0.748" stop-color="#087CFA"/>
<stop offset="0.9745" stop-color="#07A5F5"/>
</linearGradient>
<linearGradient id="paint9_linear" x1="3.7705" y1="11.7641" x2="23.7992" y2="22.184" gradientUnits="userSpaceOnUse">
<stop offset="0.2464" stop-color="#FE2857"/>
<stop offset="0.292" stop-color="#FE265F"/>
<stop offset="0.3641" stop-color="#FE1F76"/>
<stop offset="0.4534" stop-color="#FF159B"/>
<stop offset="0.4574" stop-color="#FF149D"/>
<stop offset="0.536" stop-color="#EF1AB2"/>
<stop offset="0.6983" stop-color="#C82BE9"/>
<stop offset="0.7574" stop-color="#B831FF"/>
<stop offset="0.811" stop-color="#A33AFE"/>
<stop offset="0.9215" stop-color="#6C52FD"/>
<stop offset="1" stop-color="#4164FC"/>
</linearGradient>
<linearGradient id="paint10_linear" x1="8.17405" y1="7.44285" x2="19.4827" y2="15.5205" gradientUnits="userSpaceOnUse">
<stop offset="0.00823305" stop-color="#FC35E3"/>
<stop offset="0.2164" stop-color="#F12CD5"/>
<stop offset="0.4105" stop-color="#EB27CD"/>
<stop offset="0.4984" stop-color="#DE2ADA"/>
<stop offset="0.7777" stop-color="#B831FF"/>
<stop offset="1" stop-color="#6D51FD"/>
</linearGradient>
<linearGradient id="paint11_linear" x1="3.5759" y1="7.2315" x2="7.4801" y2="9.7355" gradientUnits="userSpaceOnUse">
<stop offset="0.0433729" stop-color="#FFD25F"/>
<stop offset="0.2889" stop-color="#FEBC9B"/>
<stop offset="0.6173" stop-color="#FC9CF0"/>
<stop offset="1" stop-color="#FD5ED7"/>
</linearGradient>
<linearGradient id="paint12_linear" x1="0.376724" y1="14.5773" x2="18.4526" y2="32.2679" gradientUnits="userSpaceOnUse">
<stop offset="0.0226617" stop-color="#FC801D"/>
<stop offset="0.2467" stop-color="#FC7E20"/>
<stop offset="0.276" stop-color="#FC772A"/>
<stop offset="0.3253" stop-color="#FD6444"/>
<stop offset="0.3881" stop-color="#FE466E"/>
<stop offset="0.4273" stop-color="#FF318C"/>
<stop offset="0.4924" stop-color="#EA3896"/>
<stop offset="0.6276" stop-color="#B248AE"/>
<stop offset="0.8194" stop-color="#5A63D6"/>
<stop offset="0.9859" stop-color="#087CFA"/>
</linearGradient>
<linearGradient id="paint13_linear" x1="4.80792" y1="14.6265" x2="10.5126" y2="24.4843" gradientUnits="userSpaceOnUse">
<stop offset="0.00442798" stop-color="#FFDE17"/>
<stop offset="0.0525354" stop-color="#FECB12"/>
<stop offset="0.1093" stop-color="#FDBB0E"/>
<stop offset="0.1542" stop-color="#FDB60D"/>
<stop offset="0.2351" stop-color="#FDAE0F"/>
<stop offset="0.3571" stop-color="#FC9A15"/>
<stop offset="0.4724" stop-color="#FC801D"/>
<stop offset="1" stop-color="#FE4176"/>
</linearGradient>
<linearGradient id="paint14_linear" x1="16.6891" y1="19.7085" x2="21.9636" y2="28.1115" gradientUnits="userSpaceOnUse">
<stop offset="0.0211218" stop-color="#B149AF"/>
<stop offset="0.0831639" stop-color="#9153BD"/>
<stop offset="0.2186" stop-color="#3F6BE2"/>
<stop offset="0.3042" stop-color="#087CFA"/>
<stop offset="0.7942" stop-color="#07C3F2"/>
</linearGradient>
<linearGradient id="paint15_linear" x1="3.7705" y1="11.7641" x2="23.7992" y2="22.184" gradientUnits="userSpaceOnUse">
<stop offset="0.2464" stop-color="#FE2857"/>
<stop offset="0.292" stop-color="#FE265F"/>
<stop offset="0.3641" stop-color="#FE1F76"/>
<stop offset="0.4534" stop-color="#FF159B"/>
<stop offset="0.4574" stop-color="#FF149D"/>
<stop offset="0.536" stop-color="#EF1AB2"/>
<stop offset="0.6983" stop-color="#C82BE9"/>
<stop offset="0.7574" stop-color="#B831FF"/>
<stop offset="0.811" stop-color="#A33AFE"/>
<stop offset="0.9215" stop-color="#6C52FD"/>
<stop offset="1" stop-color="#4164FC"/>
</linearGradient>
<linearGradient id="paint16_linear" x1="5.6065" y1="12.7071" x2="14.8455" y2="17.8462" gradientUnits="userSpaceOnUse">
<stop offset="0.00629908" stop-color="#FF45ED"/>
<stop offset="0.1766" stop-color="#FF35D8"/>
<stop offset="0.3352" stop-color="#FF24C0"/>
<stop offset="0.7349" stop-color="#EA23CA"/>
<stop offset="1" stop-color="#D923D1"/>
</linearGradient>
<linearGradient id="paint17_linear" x1="26.586" y1="22.4335" x2="23.5598" y2="30.2912" gradientUnits="userSpaceOnUse">
<stop offset="0.2157" stop-color="#07C3F2"/>
<stop offset="0.3237" stop-color="#04B1EC"/>
<stop offset="0.4576" stop-color="#01A1E7"/>
<stop offset="0.5613" stop-color="#009BE5"/>
<stop offset="0.5745" stop-color="#0198E7"/>
<stop offset="0.6778" stop-color="#058AF1"/>
<stop offset="0.7992" stop-color="#0781F7"/>
<stop offset="0.9829" stop-color="#087EF9"/>
</linearGradient>
<linearGradient id="paint18_linear" x1="13.9334" y1="25.6659" x2="20.8622" y2="28.1431" gradientUnits="userSpaceOnUse">
<stop offset="0.1529" stop-color="#087CFA"/>
<stop offset="0.6343" stop-color="#009AE5"/>
<stop offset="1" stop-color="#07C3F2"/>
</linearGradient>
<linearGradient id="paint19_linear" x1="19.5297" y1="7.41655" x2="17.3766" y2="17.3333" gradientUnits="userSpaceOnUse">
<stop  offset="0" stop-color="#FF188D"/>
<stop offset="0.3188" stop-color="#D82EC8"/>
<stop offset="0.4411" stop-color="#CC30CC"/>
<stop offset="0.6628" stop-color="#AC35D7"/>
<stop offset="0.8981" stop-color="#833CE5"/>
</linearGradient>
<linearGradient id="paint20_linear" x1="14.9273" y1="9.75505" x2="19.1277" y2="15.6786" gradientUnits="userSpaceOnUse">
<stop  offset="0" stop-color="#FF188D"/>
<stop offset="0.3188" stop-color="#D82EC8"/>
<stop offset="0.4411" stop-color="#CC30CC"/>
<stop offset="0.6628" stop-color="#AC35D7"/>
<stop offset="0.8981" stop-color="#833CE5"/>
</linearGradient>
<linearGradient id="paint21_linear" x1="6.7037" y1="8.4211" x2="25.1667" y2="23.4732" gradientUnits="userSpaceOnUse">
<stop  offset="0" stop-color="#521713"/>
<stop offset="0.080028" stop-color="#451310"/>
<stop offset="0.2989" stop-color="#270B09"/>
<stop offset="0.514" stop-color="#110504"/>
<stop offset="0.7218" stop-color="#040101"/>
<stop offset="0.9138"/>
</linearGradient>
<linearGradient id="paint22_linear" x1="6.982" y1="13.9597" x2="25.018" y2="13.9597" gradientUnits="userSpaceOnUse">
<stop offset="0.2464" stop-color="#FE2857"/>
<stop offset="0.292" stop-color="#FE265F"/>
<stop offset="0.3641" stop-color="#FE1F76"/>
<stop offset="0.4534" stop-color="#FF159B"/>
<stop offset="0.4574" stop-color="#FF149D"/>
<stop offset="0.536" stop-color="#EF1AB2"/>
<stop offset="0.6983" stop-color="#C82BE9"/>
<stop offset="0.7574" stop-color="#B831FF"/>
<stop offset="0.811" stop-color="#A33AFE"/>
<stop offset="0.9215" stop-color="#6C52FD"/>
<stop offset="1" stop-color="#4164FC"/>
</linearGradient>
<linearGradient id="paint23_linear" x1="7.35092" y1="13.9392" x2="25.018" y2="13.9392" gradientUnits="userSpaceOnUse">
<stop offset="0.1118" stop-color="#F7941D"/>
<stop offset="0.1374" stop-color="#F88C25"/>
<stop offset="0.178" stop-color="#F9753A"/>
<stop offset="0.2284" stop-color="#FB505D"/>
<stop offset="0.2863" stop-color="#FF1C8C"/>
<stop offset="0.2928" stop-color="#FF1692"/>
<stop offset="0.4031" stop-color="#EA1A93"/>
<stop offset="0.4677" stop-color="#DB1D93"/>
<stop offset="0.5543" stop-color="#9F2895"/>
<stop offset="0.7229" stop-color="#21409A"/>
<stop offset="0.8671" stop-color="#222F5C"/>
<stop offset="1" stop-color="#231F20"/>
</linearGradient>
<linearGradient id="paint24_linear" x1="6.982" y1="16.1076" x2="25.018" y2="16.1076" gradientUnits="userSpaceOnUse">
<stop offset="0.0878508" stop-color="#FE2857"/>
<stop offset="0.1283" stop-color="#FE265F"/>
<stop offset="0.1923" stop-color="#FE1F76"/>
<stop offset="0.2716" stop-color="#FF159B"/>
<stop offset="0.2751" stop-color="#FF149D"/>
<stop offset="0.4167" stop-color="#B21871"/>
<stop offset="0.5427" stop-color="#741B4E"/>
<stop offset="0.6489" stop-color="#481D35"/>
<stop offset="0.731" stop-color="#2D1E26"/>
<stop offset="0.7791" stop-color="#231F20"/>
</linearGradient>
<linearGradient id="paint25_linear" x1="8.7279" y1="13.6279" x2="15.7908" y2="17.5566" gradientUnits="userSpaceOnUse">
<stop offset="0.00629908" stop-color="#FF45ED"/>
<stop offset="0.1766" stop-color="#FF35D8"/>
<stop offset="0.3352" stop-color="#FF24C0"/>
<stop offset="0.451" stop-color="#EA24B0"/>
<stop offset="0.6916" stop-color="#B22388"/>
<stop offset="1" stop-color="#63214F"/>
</linearGradient>
<linearGradient id="paint26_linear" x1="9.81525" y1="22.1319" x2="17.1634" y2="22.1319" gradientUnits="userSpaceOnUse">
<stop offset="0.4574" stop-color="#FF149D"/>
<stop offset="0.536" stop-color="#EF1AB2"/>
<stop offset="0.6983" stop-color="#C82BE9"/>
<stop offset="0.7574" stop-color="#B831FF"/>
<stop offset="0.8388" stop-color="#A33AFE"/>
<stop offset="1" stop-color="#6E51FD"/>
</linearGradient>
<linearGradient id="paint27_linear" x1="6.982" y1="20.0828" x2="17.1634" y2="20.0828" gradientUnits="userSpaceOnUse">
<stop offset="0.00442798" stop-color="#FFDE17"/>
<stop offset="0.0386836" stop-color="#FECB12"/>
<stop offset="0.0790912" stop-color="#FDBB0E"/>
<stop offset="0.1111" stop-color="#FDB60D"/>
<stop offset="0.1673" stop-color="#FDAE0F"/>
<stop offset="0.2521" stop-color="#FC9A15"/>
<stop offset="0.3323" stop-color="#FC801D"/>
<stop offset="0.7374" stop-color="#BE1E2D"/>
</linearGradient>
<linearGradient id="paint28_linear" x1="14.0874" y1="22.1319" x2="25.018" y2="22.1319" gradientUnits="userSpaceOnUse">
<stop  offset="0" stop-color="#087CFA"/>
<stop offset="0.7942" stop-color="#231F20"/>
</linearGradient>
<linearGradient id="paint29_linear" x1="32.3776" y1="24.1519" x2="20.8845" y2="5.5407" gradientUnits="userSpaceOnUse">
<stop offset="0.3486" stop-color="#3595F3"/>
<stop offset="0.4019" stop-color="#3490EB"/>
<stop offset="0.4865" stop-color="#3284D4"/>
<stop offset="0.5918" stop-color="#2F6FAE"/>
<stop offset="0.7135" stop-color="#2B527B"/>
<stop offset="0.8476" stop-color="#252D39"/>
<stop offset="0.8951" stop-color="#231F20"/>
</linearGradient>
</defs>
</svg>
