<svg width="256" height="256" viewBox="0 0 256 256" fill="none" xmlns="http://www.w3.org/2000/svg">
<path d="M244 73.9L232.9 159.6L227 197.4L150.5 244L55.8 171.3L171 50.7L244 73.9Z" fill="url(#paint0_linear)"/>
<path d="M150.6 224.8L150.7 231.6H158.6L161.3 227.5L150.6 224.8Z" fill="url(#paint1_linear)"/>
<path d="M221.3 193.2L232.9 159.5L239.7 208.4L221.3 193.2Z" fill="url(#paint2_linear)"/>
<path d="M244 73.9001L110.4 165.1L49.9 174.3L171 15.8L244 73.9001Z" fill="url(#paint3_linear)"/>
<path d="M145.6 49.9001L171 15.8L166.7 86L145.6 49.9001Z" fill="url(#paint4_linear)"/>
<path d="M49.3 173.8L14.6 148.7L47.8 115.8L147.2 156L49.3 173.8Z" fill="url(#paint5_linear)"/>
<path d="M106.2 212.9L30.7 238.3L49.7 184.9L142 149.2L193.5 180.9L106.2 212.9Z" fill="url(#paint6_linear)"/>
<path d="M84.9 60.8L45.6 12L121.5 21L130.1 45.9L84.9 60.8Z" fill="url(#paint7_linear)"/>
<path d="M232.9 159.5L121.5 21L80.6 21.5L57.6 89L202.4 168.4L177.9 204.3L227 197.4L232.9 159.5Z" fill="url(#paint8_linear)"/>
<path d="M57.6 92.8L32 92.2L46 12L81 21.6L57.6 92.8Z" fill="url(#paint9_linear)"/>
<path d="M202.4 168.4L137.5 154.4L12 103.9L58.2 89.6L202.4 168.4Z" fill="url(#paint10_linear)"/>
<path d="M76.5 33.6L58.1 89.5L57.9 89.7L58.2 89.6L149 139.2L150.9 139.7L188.3 111.7L76.5 33.6Z" fill="url(#paint11_linear)"/>
<path d="M45.6 12L12 103.9L54.8 92.9L58.1 89.5L76.5 33.6L45.6 12Z" fill="url(#paint12_linear)"/>
<path d="M30.7 238.3L59.4 123.3L137.5 154.4L30.7 238.3Z" fill="url(#paint13_linear)"/>
<path d="M137.5 154.4L94 116.9L34.7 111.5L14.6 148.7L56.9 131.6L57.4 131.4L30.7 238.3L137.5 154.4Z" fill="url(#paint14_linear)"/>
<path d="M202.4 168.4L161.9 227.7L106.1 213.2L137.5 154.4L202.4 168.4Z" fill="url(#paint15_linear)"/>
<path d="M202.4 168.4L137.5 154.4L12 103.9L58.2 89.6L202.4 168.4Z" fill="url(#paint16_linear)"/>
<path d="M58.2 89.6L12 103.9L149 139.2L58.2 89.6Z" fill="url(#paint17_linear)"/>
<path d="M227 197.4L176.5 204.5L150.5 244L239.7 208.4L227 197.4Z" fill="url(#paint18_linear)"/>
<path d="M150.5 244L177.4 204.8L106 213.5L150.5 244Z" fill="url(#paint19_linear)"/>
<path d="M98.1 111.2L148.7 138.9L192.4 109.1L144.9 50L98.1 111.2Z" fill="url(#paint20_linear)"/>
<path d="M188.3 111.7L129.2 70.5L98.1 111.2L148.7 138.9L186.3 113.3L188.3 111.7Z" fill="url(#paint21_linear)"/>
<path d="M200 56H56V200H200V56Z" fill="url(#paint22_linear)"/>
<g opacity="0.5">
<g opacity="0.3">
<path opacity="0.3" d="M197.4 200L200 199.6V169.1L178.9 200H197.4Z" fill="#231F20"/>
<path opacity="0.3" d="M148.2 56H70.4L58.9 89.7L193.8 163.7L59.5 90.3L56 91.4V121.2L137.3 153.9L200 167.4V167.1V120.4L148.2 56Z" fill="url(#paint23_linear)"/>
<path opacity="0.3" d="M70.4 56L58.9 89.7L200 167.1V120.4L148.2 56H70.4Z" fill="url(#paint24_linear)"/>
<path opacity="0.3" d="M70.4 56L58.9 89.7L200 167.1V120.4L148.2 56H70.4Z" fill="url(#paint25_linear)"/>
<path opacity="0.3" d="M56 56V93.6H56.2L59.4 90.2L70.7 56H56Z" fill="#F9ED32"/>
</g>
<path opacity="0.3" d="M56 91.4V121.2L137.3 153.9L200 167.4V167.1L59.5 90.3L56 91.4Z" fill="url(#paint26_linear)"/>
<path opacity="0.3" d="M56 115.1L148.6 139L59.5 90.3L56 91.4V115.1Z" fill="url(#paint27_linear)"/>
<path opacity="0.3" d="M112.7 200L137.3 153.9L78.6 200H112.7Z" fill="url(#paint28_linear)"/>
<path opacity="0.3" d="M56 142.3L58.7 131.3L58.3 131.5L56 132.4V142.3Z" fill="#F7941D"/>
<path opacity="0.3" d="M56 132.4L58.3 131.5L58.7 131.3L56 142.3V200H78.6L137.3 153.9L56 121.2V132.4Z" fill="url(#paint29_linear)"/>
<path opacity="0.3" d="M112.7 200H178.9L200 169.1V167.4L137.3 153.9L112.7 200Z" fill="url(#paint30_linear)"/>
<g opacity="0.3">
<path opacity="0.3" d="M191.2 109.5L200 103.4V56H148.2L191.2 109.5Z" fill="url(#paint31_linear)"/>
</g>
<path opacity="0.1" d="M70.5 56L59 89.7L200.1 167.1V120.4L148.3 56H70.5Z" fill="url(#paint32_linear)"/>
<path opacity="0.3" d="M56 56V93.6H56.2L59.4 90.2L70.7 56H56Z" fill="#F9ED32"/>
</g>
<path d="M127.9 172.9H73.8V181.9H127.9V172.9Z" fill="white"/>
<path d="M100.8 83.8V73.9H73.9V83.8H81.5V117.9H73.9V127.7H100.8V117.9H93.3V83.8H100.8Z" fill="white"/>
<path d="M126.7 128.5C122.5 128.5 119 127.7 116.1 126.1C113.3 124.5 110.9 122.6 109.1 120.4L116.6 112.1C118.1 113.8 119.7 115.1 121.2 116.1C122.8 117 124.5 117.5 126.4 117.5C128.7 117.5 130.4 116.8 131.7 115.4C133 114 133.6 111.7 133.6 108.6V73.9H145.7V109.1C145.7 112.3 145.3 115.1 144.4 117.5C143.5 119.9 142.3 121.9 140.6 123.5C139 125.1 137 126.4 134.6 127.2C132.2 128.1 129.6 128.5 126.7 128.5Z" fill="white"/>
<defs>
<linearGradient id="paint0_linear" x1="146.604" y1="81.5654" x2="156.407" y2="203.888" gradientUnits="userSpaceOnUse">
<stop offset="0.0998726" stop-color="#087CFA"/>
<stop offset="0.4602" stop-color="#079AF6"/>
<stop offset="0.8454" stop-color="#07C3F2"/>
</linearGradient>
<linearGradient id="paint1_linear" x1="156.223" y1="229.918" x2="158.145" y2="232.707" gradientUnits="userSpaceOnUse">
<stop offset="0.2859" stop-color="#087CFA"/>
<stop offset="1" stop-color="#079AF6"/>
</linearGradient>
<linearGradient id="paint2_linear" x1="226.363" y1="213.184" x2="247.944" y2="148.162" gradientUnits="userSpaceOnUse">
<stop offset="0.1184" stop-color="#27A6F6"/>
<stop offset="0.2418" stop-color="#2F99F5"/>
<stop offset="0.9197" stop-color="#5753F2"/>
</linearGradient>
<linearGradient id="paint3_linear" x1="248.56" y1="25.2334" x2="113.683" y2="106.793" gradientUnits="userSpaceOnUse">
<stop offset="0.286" stop-color="#0AEFFF"/>
<stop offset="0.3292" stop-color="#09DEFA"/>
<stop offset="0.3966" stop-color="#07CAF4"/>
<stop offset="0.442" stop-color="#07C3F2"/>
<stop offset="0.5015" stop-color="#07ACF5"/>
<stop offset="0.5749" stop-color="#0897F7"/>
<stop offset="0.6568" stop-color="#0888F9"/>
<stop offset="0.7528" stop-color="#087FFA"/>
<stop offset="0.8981" stop-color="#087CFA"/>
</linearGradient>
<linearGradient id="paint4_linear" x1="158.311" y1="10.3295" x2="158.311" y2="99.7917" gradientUnits="userSpaceOnUse">
<stop offset="0.207" stop-color="#02C5FE"/>
<stop offset="0.317" stop-color="#04ACFD"/>
<stop offset="0.4435" stop-color="#0697FB"/>
<stop offset="0.5845" stop-color="#0788FB"/>
<stop offset="0.7499" stop-color="#087FFA"/>
<stop offset="1" stop-color="#087CFA"/>
</linearGradient>
<linearGradient id="paint5_linear" x1="49.42" y1="122.878" x2="69.4242" y2="141.616" gradientUnits="userSpaceOnUse">
<stop stop-color="#FF581C"/>
<stop offset="0.1918" stop-color="#FF5124"/>
<stop offset="0.4947" stop-color="#FE3F3B"/>
<stop offset="0.7851" stop-color="#FE2857"/>
</linearGradient>
<linearGradient id="paint6_linear" x1="75.3379" y1="169.962" x2="109.057" y2="206.275" gradientUnits="userSpaceOnUse">
<stop offset="0.4574" stop-color="#FF149D"/>
<stop offset="0.536" stop-color="#EF1AB2"/>
<stop offset="0.6983" stop-color="#C82BE9"/>
<stop offset="0.7574" stop-color="#B831FF"/>
<stop offset="0.8388" stop-color="#A33AFE"/>
<stop offset="1" stop-color="#6E51FD"/>
</linearGradient>
<linearGradient id="paint7_linear" x1="82.6347" y1="6.029" x2="93.3782" y2="53.0316" gradientUnits="userSpaceOnUse">
<stop offset="0.0276342" stop-color="#FFDE17"/>
<stop offset="0.276" stop-color="#FDB60D"/>
<stop offset="0.5939" stop-color="#FC801D"/>
<stop offset="0.6532" stop-color="#FC7A25"/>
<stop offset="0.7469" stop-color="#FD6A3C"/>
<stop offset="0.8628" stop-color="#FE4F61"/>
<stop offset="0.976" stop-color="#FF318C"/>
</linearGradient>
<linearGradient id="paint8_linear" x1="74.9106" y1="53.2479" x2="237.065" y2="181.981" gradientUnits="userSpaceOnUse">
<stop stop-color="#FE2857"/>
<stop offset="0.0557468" stop-color="#FE255F"/>
<stop offset="0.1437" stop-color="#FF1F76"/>
<stop offset="0.2282" stop-color="#FF1692"/>
<stop offset="0.289" stop-color="#F11BA7"/>
<stop offset="0.4143" stop-color="#CD29DE"/>
<stop offset="0.4828" stop-color="#B831FF"/>
<stop offset="0.581" stop-color="#7A4CFD"/>
<stop offset="0.748" stop-color="#087CFA"/>
<stop offset="0.9745" stop-color="#07A5F5"/>
</linearGradient>
<linearGradient id="paint9_linear" x1="36.819" y1="47.9376" x2="69.6736" y2="62.9239" gradientUnits="userSpaceOnUse">
<stop offset="0.494792" stop-color="#FFD360"/>
<stop offset="1" stop-color="#FFE77C"/>
</linearGradient>
<linearGradient id="paint10_linear" x1="29.8251" y1="93.9952" x2="190.61" y2="177.643" gradientUnits="userSpaceOnUse">
<stop offset="0.2464" stop-color="#FE2857"/>
<stop offset="0.292" stop-color="#FE265F"/>
<stop offset="0.3641" stop-color="#FE1F76"/>
<stop offset="0.4534" stop-color="#FF159B"/>
<stop offset="0.4574" stop-color="#FF149D"/>
<stop offset="0.536" stop-color="#EF1AB2"/>
<stop offset="0.6983" stop-color="#C82BE9"/>
<stop offset="0.7574" stop-color="#B831FF"/>
<stop offset="0.811" stop-color="#A33AFE"/>
<stop offset="0.9215" stop-color="#6C52FD"/>
<stop offset="1" stop-color="#4164FC"/>
</linearGradient>
<linearGradient id="paint11_linear" x1="65.1755" y1="59.3064" x2="155.958" y2="124.151" gradientUnits="userSpaceOnUse">
<stop offset="0.00823305" stop-color="#FC35E3"/>
<stop offset="0.2164" stop-color="#F12CD5"/>
<stop offset="0.4105" stop-color="#EB27CD"/>
<stop offset="0.4984" stop-color="#DE2ADA"/>
<stop offset="0.7777" stop-color="#B831FF"/>
<stop offset="1" stop-color="#6D51FD"/>
</linearGradient>
<linearGradient id="paint12_linear" x1="28.2636" y1="57.6092" x2="59.6052" y2="77.711" gradientUnits="userSpaceOnUse">
<stop offset="0.0433729" stop-color="#FFD25F"/>
<stop offset="0.2889" stop-color="#FEBC9B"/>
<stop offset="0.6173" stop-color="#FC9CF0"/>
<stop offset="1" stop-color="#FD5ED7"/>
</linearGradient>
<linearGradient id="paint13_linear" x1="2.58105" y1="116.579" x2="147.688" y2="258.594" gradientUnits="userSpaceOnUse">
<stop offset="0.0226617" stop-color="#FC801D"/>
<stop offset="0.2467" stop-color="#FC7E20"/>
<stop offset="0.276" stop-color="#FC772A"/>
<stop offset="0.3253" stop-color="#FD6444"/>
<stop offset="0.3881" stop-color="#FE466E"/>
<stop offset="0.4273" stop-color="#FF318C"/>
<stop offset="0.4924" stop-color="#EA3896"/>
<stop offset="0.6276" stop-color="#B248AE"/>
<stop offset="0.8194" stop-color="#5A63D6"/>
<stop offset="0.9859" stop-color="#087CFA"/>
</linearGradient>
<linearGradient id="paint14_linear" x1="38.1534" y1="116.974" x2="83.9488" y2="196.11" gradientUnits="userSpaceOnUse">
<stop offset="0.00442798" stop-color="#FFDE17"/>
<stop offset="0.0525354" stop-color="#FECB12"/>
<stop offset="0.1093" stop-color="#FDBB0E"/>
<stop offset="0.1542" stop-color="#FDB60D"/>
<stop offset="0.2351" stop-color="#FDAE0F"/>
<stop offset="0.3571" stop-color="#FC9A15"/>
<stop offset="0.4724" stop-color="#FC801D"/>
<stop offset="1" stop-color="#FE4176"/>
</linearGradient>
<linearGradient id="paint15_linear" x1="133.532" y1="157.771" x2="175.874" y2="225.227" gradientUnits="userSpaceOnUse">
<stop offset="0.0211218" stop-color="#B149AF"/>
<stop offset="0.0831639" stop-color="#9153BD"/>
<stop offset="0.2186" stop-color="#3F6BE2"/>
<stop offset="0.3042" stop-color="#087CFA"/>
<stop offset="0.7942" stop-color="#07C3F2"/>
</linearGradient>
<linearGradient id="paint16_linear" x1="29.8251" y1="93.9952" x2="190.61" y2="177.643" gradientUnits="userSpaceOnUse">
<stop offset="0.2464" stop-color="#FE2857"/>
<stop offset="0.292" stop-color="#FE265F"/>
<stop offset="0.3641" stop-color="#FE1F76"/>
<stop offset="0.4534" stop-color="#FF159B"/>
<stop offset="0.4574" stop-color="#FF149D"/>
<stop offset="0.536" stop-color="#EF1AB2"/>
<stop offset="0.6983" stop-color="#C82BE9"/>
<stop offset="0.7574" stop-color="#B831FF"/>
<stop offset="0.811" stop-color="#A33AFE"/>
<stop offset="0.9215" stop-color="#6C52FD"/>
<stop offset="1" stop-color="#4164FC"/>
</linearGradient>
<linearGradient id="paint17_linear" x1="44.5641" y1="101.566" x2="118.732" y2="142.821" gradientUnits="userSpaceOnUse">
<stop offset="0.00629908" stop-color="#FF45ED"/>
<stop offset="0.1766" stop-color="#FF35D8"/>
<stop offset="0.3352" stop-color="#FF24C0"/>
<stop offset="0.7349" stop-color="#EA23CA"/>
<stop offset="1" stop-color="#D923D1"/>
</linearGradient>
<linearGradient id="paint18_linear" x1="212.981" y1="179.646" x2="188.687" y2="242.725" gradientUnits="userSpaceOnUse">
<stop offset="0.2157" stop-color="#07C3F2"/>
<stop offset="0.3237" stop-color="#04B1EC"/>
<stop offset="0.4576" stop-color="#01A1E7"/>
<stop offset="0.5613" stop-color="#009BE5"/>
<stop offset="0.5745" stop-color="#0198E7"/>
<stop offset="0.6778" stop-color="#058AF1"/>
<stop offset="0.7992" stop-color="#0781F7"/>
<stop offset="0.9829" stop-color="#087EF9"/>
</linearGradient>
<linearGradient id="paint19_linear" x1="111.41" y1="205.595" x2="167.032" y2="225.481" gradientUnits="userSpaceOnUse">
<stop offset="0.1529" stop-color="#087CFA"/>
<stop offset="0.6343" stop-color="#009AE5"/>
<stop offset="1" stop-color="#07C3F2"/>
</linearGradient>
<linearGradient id="paint20_linear" x1="156.336" y1="59.0947" x2="139.051" y2="138.704" gradientUnits="userSpaceOnUse">
<stop stop-color="#FF188D"/>
<stop offset="0.3188" stop-color="#D82EC8"/>
<stop offset="0.4411" stop-color="#CC30CC"/>
<stop offset="0.6628" stop-color="#AC35D7"/>
<stop offset="0.8981" stop-color="#833CE5"/>
</linearGradient>
<linearGradient id="paint21_linear" x1="119.389" y1="77.8674" x2="153.108" y2="125.42" gradientUnits="userSpaceOnUse">
<stop stop-color="#FF188D"/>
<stop offset="0.3188" stop-color="#D82EC8"/>
<stop offset="0.4411" stop-color="#CC30CC"/>
<stop offset="0.6628" stop-color="#AC35D7"/>
<stop offset="0.8981" stop-color="#833CE5"/>
</linearGradient>
<linearGradient id="paint22_linear" x1="53.778" y1="67.4898" x2="201.187" y2="187.666" gradientUnits="userSpaceOnUse">
<stop stop-color="#521713"/>
<stop offset="0.080028" stop-color="#451310"/>
<stop offset="0.2989" stop-color="#270B09"/>
<stop offset="0.514" stop-color="#110504"/>
<stop offset="0.7218" stop-color="#040101"/>
<stop offset="0.9138"/>
</linearGradient>
<linearGradient id="paint23_linear" x1="56" y1="111.71" x2="200" y2="111.71" gradientUnits="userSpaceOnUse">
<stop offset="0.2464" stop-color="#FE2857"/>
<stop offset="0.292" stop-color="#FE265F"/>
<stop offset="0.3641" stop-color="#FE1F76"/>
<stop offset="0.4534" stop-color="#FF159B"/>
<stop offset="0.4574" stop-color="#FF149D"/>
<stop offset="0.536" stop-color="#EF1AB2"/>
<stop offset="0.6983" stop-color="#C82BE9"/>
<stop offset="0.7574" stop-color="#B831FF"/>
<stop offset="0.811" stop-color="#A33AFE"/>
<stop offset="0.9215" stop-color="#6C52FD"/>
<stop offset="1" stop-color="#4164FC"/>
</linearGradient>
<linearGradient id="paint24_linear" x1="58.9456" y1="111.546" x2="200" y2="111.546" gradientUnits="userSpaceOnUse">
<stop offset="0.1118" stop-color="#F7941D"/>
<stop offset="0.1374" stop-color="#F88C25"/>
<stop offset="0.178" stop-color="#F9753A"/>
<stop offset="0.2284" stop-color="#FB505D"/>
<stop offset="0.2863" stop-color="#FF1C8C"/>
<stop offset="0.2928" stop-color="#FF1692"/>
<stop offset="0.4031" stop-color="#EA1A93"/>
<stop offset="0.4677" stop-color="#DB1D93"/>
<stop offset="0.5543" stop-color="#9F2895"/>
<stop offset="0.7229" stop-color="#21409A"/>
<stop offset="0.8671" stop-color="#222F5C"/>
<stop offset="1" stop-color="#231F20"/>
</linearGradient>
<linearGradient id="paint25_linear" x1="58.9456" y1="111.546" x2="200" y2="111.546" gradientUnits="userSpaceOnUse">
<stop offset="0.3438" stop-color="#FF69FE"/>
<stop offset="0.3801" stop-color="#EA65F4"/>
<stop offset="0.4555" stop-color="#B25BDB"/>
<stop offset="0.5626" stop-color="#5A4AB4"/>
<stop offset="0.6276" stop-color="#21409A"/>
<stop offset="0.8214" stop-color="#222F5C"/>
<stop offset="1" stop-color="#231F20"/>
</linearGradient>
<linearGradient id="paint26_linear" x1="56" y1="128.859" x2="200" y2="128.859" gradientUnits="userSpaceOnUse">
<stop offset="0.0878508" stop-color="#FE2857"/>
<stop offset="0.1283" stop-color="#FE265F"/>
<stop offset="0.1923" stop-color="#FE1F76"/>
<stop offset="0.2716" stop-color="#FF159B"/>
<stop offset="0.2751" stop-color="#FF149D"/>
<stop offset="0.4167" stop-color="#B21871"/>
<stop offset="0.5427" stop-color="#741B4E"/>
<stop offset="0.6489" stop-color="#481D35"/>
<stop offset="0.731" stop-color="#2D1E26"/>
<stop offset="0.7791" stop-color="#231F20"/>
</linearGradient>
<linearGradient id="paint27_linear" x1="69.939" y1="109.061" x2="126.33" y2="140.428" gradientUnits="userSpaceOnUse">
<stop offset="0.00629908" stop-color="#FF45ED"/>
<stop offset="0.1766" stop-color="#FF35D8"/>
<stop offset="0.3352" stop-color="#FF24C0"/>
<stop offset="0.451" stop-color="#EA24B0"/>
<stop offset="0.6916" stop-color="#B22388"/>
<stop offset="1" stop-color="#63214F"/>
</linearGradient>
<linearGradient id="paint28_linear" x1="78.6204" y1="176.958" x2="137.289" y2="176.958" gradientUnits="userSpaceOnUse">
<stop offset="0.4574" stop-color="#FF149D"/>
<stop offset="0.536" stop-color="#EF1AB2"/>
<stop offset="0.6983" stop-color="#C82BE9"/>
<stop offset="0.7574" stop-color="#B831FF"/>
<stop offset="0.8388" stop-color="#A33AFE"/>
<stop offset="1" stop-color="#6E51FD"/>
</linearGradient>
<linearGradient id="paint29_linear" x1="56" y1="160.597" x2="137.289" y2="160.597" gradientUnits="userSpaceOnUse">
<stop offset="0.00442798" stop-color="#FFDE17"/>
<stop offset="0.0386836" stop-color="#FECB12"/>
<stop offset="0.0790912" stop-color="#FDBB0E"/>
<stop offset="0.1111" stop-color="#FDB60D"/>
<stop offset="0.1673" stop-color="#FDAE0F"/>
<stop offset="0.2521" stop-color="#FC9A15"/>
<stop offset="0.3323" stop-color="#FC801D"/>
<stop offset="0.7374" stop-color="#BE1E2D"/>
</linearGradient>
<linearGradient id="paint30_linear" x1="112.73" y1="176.958" x2="200" y2="176.958" gradientUnits="userSpaceOnUse">
<stop stop-color="#087CFA"/>
<stop offset="0.7942" stop-color="#231F20"/>
</linearGradient>
<linearGradient id="paint31_linear" x1="258.759" y1="193.085" x2="166.998" y2="44.4925" gradientUnits="userSpaceOnUse">
<stop offset="0.3486" stop-color="#3595F3"/>
<stop offset="0.4019" stop-color="#3490EB"/>
<stop offset="0.4865" stop-color="#3284D4"/>
<stop offset="0.5918" stop-color="#2F6FAE"/>
<stop offset="0.7135" stop-color="#2B527B"/>
<stop offset="0.8476" stop-color="#252D39"/>
<stop offset="0.8951" stop-color="#231F20"/>
</linearGradient>
<linearGradient id="paint32_linear" x1="59.0456" y1="111.546" x2="200.1" y2="111.546" gradientUnits="userSpaceOnUse">
<stop offset="0.1118" stop-color="#F7941D"/>
<stop offset="0.1374" stop-color="#F88C25"/>
<stop offset="0.178" stop-color="#F9753A"/>
<stop offset="0.2284" stop-color="#FB505D"/>
<stop offset="0.2863" stop-color="#FF1C8C"/>
<stop offset="0.2928" stop-color="#FF1692"/>
<stop offset="0.4031" stop-color="#EA1A93"/>
<stop offset="0.4677" stop-color="#DB1D93"/>
<stop offset="0.5543" stop-color="#9F2895"/>
<stop offset="0.7229" stop-color="#21409A"/>
<stop offset="0.8671" stop-color="#222F5C"/>
<stop offset="1" stop-color="#231F20"/>
</linearGradient>
</defs>
</svg>
