<svg width="256" height="256" viewBox="0 0 256 256" fill="none" xmlns="http://www.w3.org/2000/svg">
<path d="M256 223L256 103.836C256 97.3198 252.116 91.4295 246.128 88.8625L96.1652 24.5902C94.1382 23.7221 91.9529 23.2729 89.7466 23.2729L16.2909 23.2729C7.29367 23.2729 0 30.5666 0 39.5639L0 111.428C0 114.646 0.954182 117.793 2.74153 120.472L88.3549 248.746C91.3757 253.275 96.4608 255.993 101.904 255.993L218 256C226.997 256 256 231.997 256 223Z" fill="url(#paint0_linear_4407_10086)"/>
<path d="M232.727 58.0771V16.2909C232.727 7.29367 225.434 0 216.436 0L164.066 0C163.295 0 162.525 0.0558545 161.762 0.162909L13.9869 21.2736C5.96247 22.4186 0 29.2934 0 37.3993L0 100.091C0 109.091 7.296 116.385 16.2956 116.382L90.4495 116.364C92.1996 116.364 93.938 116.082 95.5974 115.528L221.589 73.5302C228.24 71.3123 232.727 65.0868 232.727 58.0748V58.0771Z" fill="url(#paint1_linear_4407_10086)"/>
<path d="M232.727 63.7905L232.72 16.2886C232.718 7.29367 225.424 0 216.429 0L170.403 0C165.648 0 161.128 2.07825 158.033 5.68785L27.1939 158.334C24.6642 161.287 23.2725 165.048 23.2725 168.937L23.2725 216.439C23.2725 225.436 30.5661 232.73 39.5634 232.73H85.5968C90.3514 232.73 94.871 230.651 97.9663 227.042L228.806 74.3959C231.338 71.4426 232.727 67.6817 232.727 63.7905Z" fill="#F7F219"/>
<path d="M209 47L47 47L47 209L209 209L209 47Z" fill="black"/>
<path d="M133 177H68V188H133V177Z" fill="white"/>
<path d="M69.0117 68.9865H92.2327C98.0117 68.9865 103.182 70.2935 107.742 72.9076C112.331 75.5217 115.918 79.1697 118.504 83.8004C121.088 88.4287 122.381 93.6569 122.381 99.4849C122.381 105.313 121.088 110.541 118.504 115.223C115.918 119.851 112.331 123.446 107.742 126.06C103.182 128.674 98.0117 129.981 92.2327 129.981H69.0117L69.0117 68.9865ZM92.102 119.69C95.7337 119.69 98.9127 118.874 101.643 117.24C104.374 115.66 106.479 113.319 107.962 110.268C109.444 107.217 110.184 103.623 110.184 99.4849C110.184 95.3467 109.444 91.7524 107.962 88.7018C106.479 85.6513 104.374 83.3103 101.643 81.7302C98.9127 80.0964 95.7314 79.2794 92.102 79.2794H80.9058L80.9058 119.688H92.102V119.69ZM150.935 131.017C146.522 131.017 142.601 130.254 139.172 128.62C135.774 127.043 133.101 124.809 131.155 121.922C129.238 119.035 128.251 115.713 128.193 112.009L140.131 112.009C140.131 113.753 140.596 115.33 141.525 116.638C142.454 117.998 143.747 119.035 145.401 119.795C147.056 120.559 148.961 120.939 151.108 120.939C153.255 120.939 154.971 120.559 156.511 119.905C158.08 119.198 159.286 118.271 160.127 117.018C160.997 115.821 161.434 114.404 161.434 112.88C161.434 110.919 160.838 109.285 159.648 108.032C158.486 106.725 156.875 105.854 154.812 105.364L144.05 102.967C141.146 102.314 138.619 101.224 136.469 99.6997C134.32 98.1195 132.651 96.215 131.458 93.9277C130.268 91.5867 129.673 89.0263 129.673 86.1391C129.673 82.6544 130.573 79.5479 132.373 76.7727C134.175 73.9953 136.686 71.8176 139.909 70.2912C143.133 68.7111 146.792 67.9502 150.889 67.9502C154.985 67.9502 158.745 68.7111 161.998 70.1815C165.252 71.7056 167.78 73.8295 169.579 76.4996C171.409 79.1674 172.338 82.2716 172.368 85.7586H160.474C160.474 84.2882 160.082 82.9812 159.298 81.7838C158.514 80.5865 157.396 79.7136 155.944 79.0601C154.52 78.4065 152.88 78.0261 151.022 78.0261C149.164 78.0261 147.523 78.3529 146.099 79.0064C144.706 79.6062 143.616 80.4768 142.832 81.6205C142.047 82.7104 141.655 84.0175 141.655 85.4879C141.655 87.1754 142.192 88.5921 143.268 89.6821C144.372 90.7721 145.868 91.589 147.756 92.0231L158.126 94.3104C161.119 94.9103 163.777 96.0539 166.099 97.7951C168.452 99.4826 170.282 101.553 171.589 104.057C172.896 106.508 173.549 109.232 173.549 112.173C173.549 115.767 172.59 118.981 170.674 121.866C168.786 124.697 166.13 126.984 162.701 128.564C159.275 130.198 155.354 131.015 150.938 131.015L150.935 131.017Z" fill="white"/>
<path d="M224.755 256H95.2454C86.9586 256 79.0112 252.708 73.1516 246.849C67.292 240.989 64 233.042 64 224.755V191.245C64 187.142 64.8082 183.079 66.3784 179.288C67.9486 175.497 70.2502 172.053 73.1516 169.151C76.053 166.25 79.4974 163.949 83.2882 162.378C87.0791 160.808 91.1422 160 95.2454 160H224.755C233.042 160 240.989 163.292 246.849 169.151C252.708 175.011 256 182.958 256 191.245V224.755C256 233.042 252.708 240.989 246.849 246.849C240.989 252.708 233.042 256 224.755 256Z" fill="#FDB60D"/>
<path d="M99.6494 187.024H132.605V195.578H109.199V204.441H129.797V212.99H109.199V222.166H132.917V230.716H99.6494V187.024Z" fill="black"/>
<path d="M156.445 186.716H165.308L184.033 230.716H173.984L169.989 220.918H151.516L147.522 230.716H137.725L156.445 186.716ZM166.56 212.43L160.753 198.26L154.95 212.43H166.56Z" fill="black"/>
<path d="M190.774 187.024H208.625C219.048 187.024 225.351 193.205 225.351 202.128V202.254C225.351 212.364 217.488 217.61 207.691 217.61H200.389V230.715H190.775L190.774 187.024ZM208 209.057C208.944 209.177 209.904 209.096 210.815 208.82C211.726 208.543 212.569 208.078 213.288 207.453C214.006 206.829 214.585 206.059 214.986 205.196C215.387 204.332 215.601 203.394 215.615 202.441V202.315C215.615 198.012 212.62 195.7 207.813 195.7H200.389V209.057H208Z" fill="black"/>
<defs>
<linearGradient id="paint0_linear_4407_10086" x1="15.9278" y1="16.8892" x2="250.747" y2="251.709" gradientUnits="userSpaceOnUse">
<stop offset="0.28" stop-color="#007DFE"/>
<stop offset="0.73" stop-color="#00D980"/>
</linearGradient>
<linearGradient id="paint1_linear_4407_10086" x1="225.515" y1="-2.86952" x2="7.75449" y2="98.0922" gradientUnits="userSpaceOnUse">
<stop offset="0.32" stop-color="#F7F219"/>
<stop offset="0.55" stop-color="#007DFE"/>
</linearGradient>
</defs>
</svg>
