<svg width="16" height="16" viewBox="0 0 16 16" fill="none" xmlns="http://www.w3.org/2000/svg">
<g clip-path="url(#clip0_4897_52656)">
<path fill-rule="evenodd" clip-rule="evenodd" d="M7.62353 13.2883C7.46006 13.1309 7.46014 12.8692 7.62369 12.7119L10.3226 10.1163C10.5767 9.87185 10.9999 10.0519 10.9999 10.4045V15.5986C10.9999 15.9514 10.5765 16.1314 10.3224 15.8868L7.62353 13.2883Z" fill="#E35252"/>
<path fill-rule="evenodd" clip-rule="evenodd" d="M15.3798 12.7117C15.5435 12.8691 15.5436 13.131 15.3799 13.2884L12.6774 15.8876C12.4232 16.132 12 15.9519 12 15.5993L12 10.4038C12 10.0513 12.423 9.87118 12.6772 10.1154L15.3798 12.7117Z" fill="#5FB865"/>
</g>
<path fill-rule="evenodd" clip-rule="evenodd" d="M6.93797 4.1665C6.58263 3.98883 6.14063 3.9 5.61197 3.9H3.92847V13H5.68997C5.98617 13 6.25722 12.9742 6.50311 12.9227C6.52185 12.5822 6.66432 12.2471 6.9305 11.9911L8.2443 10.7276C8.24874 10.6465 8.25097 10.5633 8.25097 10.478C8.25097 9.96233 8.17297 9.53116 8.01697 9.1845C7.86097 8.83783 7.62697 8.57783 7.31497 8.4045C7.19505 8.33694 7.06328 8.28255 6.91967 8.24132C7.01438 8.20941 7.10281 8.17064 7.18497 8.125C7.4623 7.969 7.6703 7.73716 7.80897 7.4295C7.94763 7.12183 8.01697 6.73833 8.01697 6.279C8.01697 5.75033 7.92597 5.3105 7.74397 4.9595C7.5663 4.60416 7.29763 4.33983 6.93797 4.1665ZM5.12447 11.9405V8.866H5.64447C5.94347 8.866 6.19263 8.92233 6.39197 9.035C6.5913 9.14766 6.7408 9.31883 6.84047 9.5485C6.94013 9.77816 6.98997 10.0663 6.98997 10.413C6.98997 10.9287 6.8773 11.3122 6.65197 11.5635C6.43097 11.8148 6.09513 11.9405 5.64447 11.9405H5.12447ZM6.45697 7.475C6.25763 7.71333 5.9608 7.8325 5.56647 7.8325H5.12447V4.9595H5.56647C5.9608 4.9595 6.25763 5.07866 6.45697 5.317C6.66063 5.55533 6.76247 5.915 6.76247 6.396C6.76247 6.877 6.66063 7.23666 6.45697 7.475Z" fill="#6C707E"/>
<path d="M11.3065 9.19554C10.9466 8.98713 10.4981 8.93568 10.091 9.09633V5.0245H8.60247V3.9H12.795V5.0245H11.3065V9.19554Z" fill="#6C707E"/>
<defs>
<clipPath id="clip0_4897_52656">
<rect width="9" height="6" fill="white" transform="translate(7 10)"/>
</clipPath>
</defs>
</svg>
