<svg width="16" height="16" viewBox="0 0 16 16" fill="none" xmlns="http://www.w3.org/2000/svg">
<path d="M8.82478 14.9519C12.3021 14.5438 15 11.587 15 8C15 4.13401 11.866 1 8 1C4.13401 1 1 4.13401 1 8C1 8.7108 1.10594 9.39685 1.3029 10.0432C2.1245 9.46087 3.18841 9 4.5 9C7.32497 9 9.00091 11.138 9.58158 12.0231C9.97273 12.6193 9.97273 13.3807 9.58158 13.9769C9.41735 14.2273 9.16548 14.5778 8.82478 14.9519Z" fill="#E7EFFD"/>
<path d="M5.5 13C5.5 13.5523 5.05229 14 4.5 14C3.94772 14 3.5 13.5523 3.5 13C3.5 12.4477 3.94772 12 4.5 12C5.05229 12 5.5 12.4477 5.5 13Z" fill="#6C707E"/>
<path fill-rule="evenodd" clip-rule="evenodd" d="M8.74545 12.5716C8.9181 12.8348 8.9181 13.1652 8.74545 13.4284C8.20164 14.2573 6.78649 16 4.5 16C2.21351 16 0.798363 14.2573 0.254551 13.4284C0.0818979 13.1652 0.0818978 12.8348 0.254551 12.5716C0.798363 11.7427 2.21351 10 4.5 10C6.78649 10 8.20164 11.7427 8.74545 12.5716ZM6.5 13C6.5 14.1046 5.60457 15 4.5 15C3.39543 15 2.5 14.1046 2.5 13C2.5 11.8954 3.39543 11 4.5 11C5.60457 11 6.5 11.8954 6.5 13Z" fill="#6C707E"/>
<path d="M2.19404 9.51934C2.06741 9.03409 2 8.52492 2 8C2 4.68629 4.68629 2 8 2C11.3137 2 14 4.68629 14 8C14 10.7209 12.1888 13.0188 9.70635 13.7539C9.67048 13.8303 9.62889 13.9048 9.58158 13.9769C9.41735 14.2273 9.16548 14.5778 8.82478 14.9519C12.3021 14.5438 15 11.587 15 8C15 4.13401 11.866 1 8 1C4.13401 1 1 4.13401 1 8C1 8.7108 1.10594 9.39685 1.3029 10.0432C1.57358 9.85137 1.87056 9.67269 2.19404 9.51934Z" fill="#3574F0"/>
<path d="M4.91761 9.0158C4.83272 8.69707 4.78766 8.35663 4.78766 8C4.78766 5.99378 6.21376 4.5 8.13296 4.5C9.62191 4.5 10.8982 5.39917 11.2124 6.67541H10.1972C9.88296 5.94544 9.10465 5.42334 8.13296 5.42334C6.79387 5.42334 5.82702 6.49655 5.82702 8C5.82702 8.45804 5.91676 8.87615 6.07943 9.23614C5.71879 9.12483 5.33158 9.04735 4.91761 9.0158Z" fill="#3574F0"/>
<path d="M9.10093 11.3683C10.1495 11.0745 10.9691 10.3125 11.2124 9.32459H10.1972C9.90632 10.0003 9.21781 10.4979 8.34637 10.5681C8.6433 10.8397 8.89468 11.1157 9.10093 11.3683Z" fill="#3574F0"/>
</svg>
