<svg width="19" height="12" viewBox="0 0 19 12" xmlns="http://www.w3.org/2000/svg">
  <path fill="#EBECF0" d="M10.98 8.75c-.16-1.66.32-2.66.66-3.39.29-.61.47-.98.39-1.82-.05-.47-.15-.77-.3-1.04H10.5c-.55 0-1 .45-1 1v5c0 .55.45 1 1 1h.6c-.05-.23-.09-.48-.12-.75ZM15.5 2.5h-.6c.05.23.09.48.12.75.16 1.66-.32 2.66-.66 3.39-.29.61-.47.98-.39 1.82.05.47.15.77.3 1.04h1.23c.55 0 1-.45 1-1v-5c0-.55-.45-1-1-1Z"/>
  <path fill="none" stroke="#6C707E" stroke-linecap="round" stroke-linejoin="round" d="M10.59 9.5h-.09c-.55 0-1-.45-1-1v-5c0-.55.45-1 1-1h.65m4.26 0h.09c.55 0 1 .45 1 1v5c0 .55-.45 1-1 1h-.65"/>
  <path fill="none" stroke="#369650" stroke-linecap="round" stroke-linejoin="round" d="M12.52 1c.44.57.89 1.15 1.01 2.4.24 2.5-1.29 2.71-1.05 5.21.12 1.25.56 1.82 1.01 2.4"/>
</svg>
