<svg width="19" height="12" viewBox="0 0 19 12" xmlns="http://www.w3.org/2000/svg">
  <path fill="#FAF5FF" d="M16.71 5.29c.2.2.29.45.29.71 0 .26-.1.51-.29.71l-3 3c-.2.2-.45.29-.71.29-.26 0-.51-.1-.71-.29l-3-3C9.09 6.51 9 6.26 9 6c0-.26.1-.51.29-.71l3-3c.2-.2.45-.29.71-.29.26 0 .51.1.71.29l3 3Z"/>
  <path fill="none" stroke="#834DF0" stroke-linecap="round" stroke-linejoin="round" d="m9.73 7.15-.44-.44C9.09 6.51 9 6.26 9 6c0-.26.1-.51.29-.71l.44-.44m4.42 4.42-.44.44c-.2.2-.45.29-.71.29-.26 0-.51-.1-.71-.29l-.44-.44m4.42-4.42.44.44c.2.2.29.45.29.71 0 .26-.1.51-.29.71l-.44.44m-4.42-4.42.44-.44c.2-.2.45-.29.71-.29.26 0 .51.1.71.29l.44.44"/>
</svg>
