<!-- Copyright © 2000–2024 JetBrains s.r.o. -->
<svg width="16" height="16" viewBox="0 0 16 16" xmlns="http://www.w3.org/2000/svg">
  <path fill="#FFF7F7" d="M11 8c-.83 0-1.58.34-2.12.88S8 10.17 8 11c0 .45.2.67.36.52l3.17-3.17c.15-.15-.07-.36-.52-.36zm0 6c.83 0 1.58-.34 2.12-.88S14 11.83 14 11c0-.45-.2-.67-.36-.52l-3.17 3.17c-.15.15.07.36.52.36z"/>
  <path fill="none" stroke="#DB3B4B" stroke-linecap="round" stroke-miterlimit="10" d="M8 11.17V11c0-1.66 1.34-3 3-3h.17M14 10.83V11c0 1.66-1.34 3-3 3h-.17"/>
  <path fill="#FFF7F7" stroke="#DB3B4B" stroke-miterlimit="10" d="M5 8a3 3 0 1 0 0-6 3 3 0 0 0 0 6Z"/>
  <path fill="none" stroke="#6C707E" stroke-linecap="round" stroke-miterlimit="10" d="m7.5 14.5 7-7"/>
</svg>
