<!-- Copyright © 2000–2024 JetBrains s.r.o. -->
<svg width="16" height="16" viewBox="0 0 16 16" xmlns="http://www.w3.org/2000/svg">
  <path fill="none" stroke="#6C707E" stroke-linecap="round" stroke-linejoin="round" d="m14.03 10.18-.9-1.52c-.24-.4-.24-.9 0-1.3l.9-1.52c.04-.06.05-.14.02-.2a6.3 6.3 0 0 0-.97-1.67.27.27 0 0 0-.19-.08l-1.78.02c-.46 0-.89-.25-1.11-.65l-.87-1.54a.22.22 0 0 0-.17-.12c-.64-.09-1.29-.09-1.93 0a.22.22 0 0 0-.16.12L6 3.26c-.23.41-.66.65-1.13.65L3.1 3.89c-.07 0-.14.03-.19.08-.4.51-.73 1.07-.97 1.67-.02.07-.01.14.02.2l.9 1.52c.24.4.24.9 0 1.3l-.9 1.52c-.04.06-.05.13-.02.2.24.6.56 1.17.97 1.67.04.05.11.08.19.08l1.78-.02c.46 0 .89.25 1.11.65l.87 1.54c.03.06.09.11.16.12.64.09 1.29.09 1.93 0a.22.22 0 0 0 .16-.12l.87-1.54c.23-.41.66-.66 1.13-.65l1.77.02c.07 0 .14-.03.19-.08.4-.51.73-1.07.97-1.67.02-.07.01-.14-.02-.2z"/>
  <path fill="none" stroke="#6C707E" stroke-linecap="round" stroke-linejoin="round" d="M6.5 5.74c0-.21.12-.41.31-.51s.42-.09.6.03l3.3 2.26c.16.11.25.29.25.48s-.09.37-.25.48l-3.3 2.26c-.18.12-.41.13-.6.03s-.31-.3-.31-.51z"/>
</svg>
