<svg xmlns="http://www.w3.org/2000/svg" width="16" height="16"><path fill="#ced0d6" d="M7.08 12.788c-.028.018-.052.037-.08.054-4.196-2.599-4.914-7.111-4.992-9.384C3.023 2.715 5.047 2 7 2s3.978.715 4.992 1.458a13.83 13.83 0 0 1-.608 3.604C11.588 7.036 11.789 7 12 7c.15 0 .291.031.437.044C12.824 5.702 13 4.323 13 3c-1.128-1.093-3.738-2-6-2s-4.872.907-6 2c0 4.024 1.585 8.572 6 11 .12-.066.23-.139.346-.209a4.872 4.872 0 0 1-.266-1.003Z"/><path fill="#ced0d6" d="M12 9c1.654 0 3 1.346 3 3s-1.346 3-3 3-3-1.346-3-3 1.346-3 3-3Zm0-1a4 4 0 1 0 0 8 4 4 0 0 0 0-8Zm0 2a2 2 0 1 0 0 4v-4Z"/></svg>