<svg xmlns="http://www.w3.org/2000/svg" width="20" height="20"><path fill="#6c707e" d="m8.016 14.325-.016.01C3.702 12.022 2.751 6.271 2.548 3.438 3.808 2.929 5.474 2.5 8 2.5s4.192.429 5.452.938c-.087 1.212-.313 2.958-.877 4.74A5.98 5.98 0 0 1 14 8.001c.068 0 .134.008.201.01.504-1.803.755-3.703.799-5.523-1.736-.845-3.763-1.487-7-1.487s-5.264.642-7 1.486C1.129 7.797 2.959 13.817 8 16c.102-.044.195-.1.295-.147a6.026 6.026 0 0 1-.279-1.528Z"/><path fill="#6c707e" d="M14 9a5 5 0 1 0 .001 10.001A5 5 0 0 0 14 9Zm0 8.5c-1.93 0-3.5-1.57-3.5-3.5s1.57-3.5 3.5-3.5 3.5 1.57 3.5 3.5-1.57 3.5-3.5 3.5Z"/><path fill="#6c707e" d="M14 11.75c-1.24 0-2.25 1.01-2.25 2.25s1.01 2.25 2.25 2.25v-4.5Z"/></svg>