<svg xmlns="http://www.w3.org/2000/svg" width="16" height="16"><path fill="#ced0d6" d="M11 9.217v.92c0 .29-.157.561-.41.705l-1.536.878c-.321.184-.688.275-1.055.275s-.734-.092-1.054-.275l-1.536-.878A.814.814 0 0 1 5 10.137v-.92l-1-.462v1.381c0 .649.35 1.252.913 1.574l1.536.878a3.134 3.134 0 0 0 3.101 0l1.537-.879c.563-.322.913-.925.913-1.573V8.755l-1 .461Z"/><path fill="#ced0d6" d="M15 6.5a.5.5 0 0 0-.29-.454l-6.5-3a.493.493 0 0 0-.418 0l-6.501 3a.501.501 0 0 0 0 .908l6.5 3a.508.508 0 0 0 .418 0L14 7.282V10.5a.5.5 0 0 0 1 0v-4ZM8 8.949 2.694 6.5l5.307-2.449L13.307 6.5 8 8.949Z"/></svg>