<svg xmlns="http://www.w3.org/2000/svg" width="20" height="20"><path fill="#ced0d6" d="M13.75 11.649v1.601c0 .29-.17.557-.432.68l-2.363 1.107c-.3.141-.628.211-.956.211s-.656-.07-.954-.21L6.682 13.93a.754.754 0 0 1-.432-.679v-1.602l-1.5-.703v2.305c0 .868.508 1.668 1.295 2.036l2.364 1.109a3.74 3.74 0 0 0 3.182 0l2.364-1.108a2.259 2.259 0 0 0 1.295-2.037v-2.304l-1.5.703Z"/><path fill="#ced0d6" d="m18.318 7.321-8-3.75a.737.737 0 0 0-.636 0l-8 3.75a.75.75 0 0 0 0 1.358l8 3.75a.74.74 0 0 0 .636 0L17.25 9.18v3.07a.75.75 0 0 0 1.5 0V8a.749.749 0 0 0-.432-.679ZM10 10.922 3.767 8 10 5.078 16.233 8 10 10.922Z"/></svg>