<svg width="16" height="16" viewBox="0 0 16 16" fill="none" xmlns="http://www.w3.org/2000/svg">
<g id="ideUpdate" clip-path="url(#clip0_19679_232994)">
<g id="Union">
<path d="M7.5 10.7929L4.85355 8.14643C4.65829 7.95117 4.34171 7.95117 4.14645 8.14643C3.95118 8.34169 3.95118 8.65828 4.14645 8.85354L7.64645 12.3535C7.84171 12.5488 8.15829 12.5488 8.35355 12.3535L11.8536 8.85354C12.0488 8.65828 12.0488 8.34169 11.8536 8.14643C11.6583 7.95117 11.3417 7.95117 11.1464 8.14643L8.5 10.7929L8.5 4C8.5 3.72386 8.27614 3.5 8 3.5C7.72386 3.5 7.5 3.72386 7.5 4L7.5 10.7929Z" fill="url(#paint0_linear_19679_232994)"/>
<path fill-rule="evenodd" clip-rule="evenodd" d="M8 -6.99382e-07C3.58172 -1.08564e-06 1.08564e-06 3.58172 6.99382e-07 8C3.13124e-07 12.4183 3.58172 16 8 16C12.4183 16 16 12.4183 16 8C16 3.58172 12.4183 -3.13124e-07 8 -6.99382e-07ZM8 0.999999C4.13401 0.999999 1 4.13401 1 8C1 11.866 4.13401 15 8 15C11.866 15 15 11.866 15 8C15 4.13401 11.866 1 8 0.999999Z" fill="url(#paint1_linear_19679_232994)"/>
</g>
</g>
<defs>
<linearGradient id="paint0_linear_19679_232994" x1="13.3333" y1="4" x2="2.66667" y2="12" gradientUnits="userSpaceOnUse">
<stop stop-color="#F48633"/>
<stop offset="1" stop-color="#EC26F0"/>
</linearGradient>
<linearGradient id="paint1_linear_19679_232994" x1="13.3333" y1="4" x2="2.66667" y2="12" gradientUnits="userSpaceOnUse">
<stop stop-color="#F48633"/>
<stop offset="1" stop-color="#EC26F0"/>
</linearGradient>
<clipPath id="clip0_19679_232994">
<rect width="16" height="16" fill="white" transform="translate(16 16) rotate(-180)"/>
</clipPath>
</defs>
</svg>
