<!-- Copyright © 2000–2024 JetBrains s.r.o. -->
<svg width="128" height="128" viewBox="0 0 128 128" xmlns="http://www.w3.org/2000/svg">
  <defs>
    <linearGradient id="a" x1="4546.44" x2="4496.7" y1="-4639.76" y2="-4532.5" gradientTransform="matrix(1 0 0 -1 -4417 -4527)" gradientUnits="userSpaceOnUse">
      <stop offset=".21" stop-color="#007dfe"/>
      <stop offset=".55" stop-color="#ffb700"/>
    </linearGradient>
    <linearGradient id="b" x1="4536.55" x2="4419.14" y1="-4534.96" y2="-4652.37" gradientTransform="matrix(1 0 0 -1 -4417 -4527)" gradientUnits="userSpaceOnUse">
      <stop offset=".23" stop-color="#ffb700"/>
      <stop offset=".73" stop-color="#ff0a67"/>
    </linearGradient>
  </defs>
  <path fill="#007dfe" d="M96.1 116.36h23.76c4.5 0 8.14-3.64 8.14-8.14V85.2c0-2.38-1.04-4.64-2.84-6.18L48.84 13.6a8.2 8.2 0 0 0-5.3-1.96H19.78c-4.5 0-8.14 3.64-8.14 8.14V42.8c0 2.38 1.04 4.64 2.84 6.18L90.8 114.4a8.2 8.2 0 0 0 5.3 1.96"/>
  <path fill="url(#a)" d="M98.96 116.36h20.9c4.5 0 8.14-3.64 8.14-8.14V82.04c0-.4-.02-.78-.08-1.16L117.36 7c-.58-4.02-4-7-8.06-7H77.96c-4.5 0-8.15 3.64-8.15 8.14v37.08c0 .88.15 1.74.43 2.58l21 63a8.13 8.13 0 0 0 7.72 5.56"/>
  <path fill="url(#b)" d="M8.14 128h67.94c3.26 0 6.2-1.94 7.48-4.94l32.14-74.98c.44-1.02.66-2.1.66-3.2V8.14c0-4.5-3.64-8.14-8.14-8.14H72.28c-1.6 0-3.18.48-4.52 1.38L3.62 44.18A8.12 8.12 0 0 0 0 50.96v68.9c0 4.5 3.64 8.14 8.14 8.14"/>
  <path d="M104 24H24v80h80z"/>
  <path fill="#fff" fill-rule="evenodd" d="M86.9 41.28c-1.27-2.28-3.04-4.06-5.3-5.36S76.82 34 73.98 34H62.56v30h11.42q4.26 0 7.62-1.92c3.36-1.92 4.03-3.05 5.3-5.34s1.9-4.88 1.9-7.74-.63-5.44-1.9-7.72M81.72 54.3c-.73 1.5-1.78 2.65-3.12 3.44s-2.9 1.2-4.68 1.2H68.4V39.06h5.52c1.78 0 3.34.41 4.68 1.2s2.39 1.94 3.12 3.44 1.08 3.26 1.08 5.3-.35 3.8-1.08 5.3m-41.68-1.64h5.04L51.54 64h6.72l-7.14-12.02c.14-.04.28-.08.44-.12.34-.09.66-.19.98-.34 1.64-.76 2.87-1.9 3.74-3.32s1.32-3.06 1.32-4.94-.43-3.44-1.3-4.84-2.08-2.49-3.68-3.26S49.16 34 47.06 34H34.18v30h5.86zm0-13.78h6.64q1.47 0 2.58.54c.74.36 1.3.88 1.7 1.54s.6 1.46.6 2.36-.19 1.68-.6 2.38-.96 1.18-1.7 1.56-1.6.54-2.58.54h-6.64z"/>
  <path fill="#fff" d="M33.98 88h32v6h-32z"/>
</svg>
