<svg width="128" height="128" viewBox="0 0 128 128" fill="none" xmlns="http://www.w3.org/2000/svg">
<path d="M82.3 0L88.9 80.7L33 110.9L0 25.9L82.3 0Z" fill="url(#paint0_linear)"/>
<path d="M47.4 73.4999L33 110.9L0 25.8999L47.4 73.4999Z" fill="url(#paint1_linear)"/>
<path d="M82.3001 0L84.8001 44.5H48.3L31.8 15.9L82.3001 0Z" fill="url(#paint2_linear)"/>
<path d="M68.6001 42.2999L128 30.3999V86.5999L87.2001 101.8L70.5001 86.6999L68.6001 42.2999Z" fill="url(#paint3_linear)"/>
<path d="M128 30.4L73.1001 89.8L82.3001 0L128 30.4Z" fill="#21D789"/>
<path d="M128 30.3998L97.6 23.2998L86.5 102.6L128 86.5998V30.3998Z" fill="url(#paint4_linear)"/>
<path d="M43.8 25.8999L84.8001 32.2999L128 86.5999L86.5 102.6L70.5 86.6999L43.8 25.8999Z" fill="url(#paint5_linear)"/>
<path d="M26.2999 0L84.8 32.3L64.6999 128H30.7L1.19995 97.6L26.2999 0Z" fill="url(#paint6_linear)"/>
<path d="M46.7001 11.2002L21.4 19.2002L11.8 56.4002L33 110.9L73.8001 84.8002L84.7 32.8002V32.2002L46.7001 11.2002Z" fill="url(#paint7_linear)"/>
<path d="M76.3 33.1998L84.8 32.2998L76.3 33.1998Z" fill="url(#paint8_linear)"/>
<path d="M40.2 80.7L56 35.3L26.2999 0L1.19995 97.6L40.2 80.7Z" fill="url(#paint9_linear)"/>
<path d="M30.7 128L11.5 108.2L30.7 128H64.7H30.7Z" fill="url(#paint10_linear)"/>
<path d="M11.8 56.4001L25.9 92.5001L33 110.9L47.4001 73.5001L15.6 41.6001L11.8 56.4001Z" fill="url(#paint11_linear)"/>
<path d="M40.2 80.7002L64.6999 128H30.7L1.19995 97.6002L40.2 80.7002Z" fill="url(#paint12_linear)"/>
<path d="M40.2 80.6998L64.6999 128L84.8 32.2998L56 35.2998L40.2 80.6998Z" fill="url(#paint13_linear)"/>
<path d="M72.4 89.6001L64.6999 128H30.7L33 110.7L72.4 89.6001Z" fill="url(#paint14_linear)"/>
<path d="M33 110.9L50.8 101.3L40.2 80.7002L24 87.7002L33 110.9Z" fill="url(#paint15_linear)"/>
<path d="M50.8 101.2L64.7 128L72.4001 89.6001L50.8 101.2Z" fill="url(#paint16_linear)"/>
<path d="M26.3 0L84.8001 32.3L71.1 33.7L56 35.3L26.3 0Z" fill="url(#paint17_linear)"/>
<path d="M84.1 31.8002L46.7 11.2002L38 13.9002L56 35.3002L71.1 33.7002L84.1 32.3002V31.8002Z" fill="url(#paint18_linear)"/>
<path d="M78.8999 32.9002L84.7999 32.3002L79.2999 29.2002L78.8999 32.9002Z" fill="url(#paint19_linear)"/>
<path d="M128 86.5998L84.8 32.2998L71.1 33.6998L56 35.2998L128 86.5998Z" fill="url(#paint20_linear)"/>
<path d="M77.1001 50.2998L96.7001 64.2998L104 56.3998L84.8001 32.2998L78.9001 32.8998L77.1001 50.2998Z" fill="url(#paint21_linear)"/>
<path d="M92.3 61.2001L128 86.6001L94.6 44.6001L92.3 61.2001Z" fill="url(#paint22_linear)"/>
<path d="M128 86.5998L86.5 102.6L73.1 89.7998L56 35.2998L128 86.5998Z" fill="url(#paint23_linear)"/>
<path d="M77.1001 50.2998L73.1001 89.7998L96.7001 64.2998L77.1001 50.2998Z" fill="url(#paint24_linear)"/>
<path d="M86.5 102.6L128 86.6002L92.3 61.2002L86.5 102.6Z" fill="url(#paint25_linear)"/>
<path d="M73.1001 89.3002L73.3001 89.5002L91.0001 70.3002L92.3001 61.2002L75.6001 65.0002L73.1001 89.3002Z" fill="url(#paint26_linear)"/>
<path d="M86.5 102.6L73.1 89.7998L56 35.2998L86.5 102.6Z" fill="url(#paint27_linear)"/>
<path d="M73.1001 89.8001L86.5001 102.6L74.5001 76.1001L73.1001 89.8001Z" fill="url(#paint28_linear)"/>
<path d="M82.3001 0L73.1001 89.8L91.0001 70.3L97.6001 23.3L82.3001 0Z" fill="url(#paint29_linear)"/>
<path d="M128 30.4L97.6 23.3L82.3 0L128 30.4Z" fill="url(#paint30_linear)"/>
<path d="M104 24H24V104H104V24Z" fill="url(#paint31_linear)"/>
<g opacity="0.3">
<path opacity="0.3" d="M24 88.4L30.1 104H43.7L88.3 79.9L83.8 24H24V88.4Z" fill="url(#paint32_linear)"/>
<path opacity="0.3" d="M79.2 24L72.5 89L90.5 69.6L96.8 24H79.2Z" fill="url(#paint33_linear)"/>
<path opacity="0.3" d="M104 24.1L103.4 24H96.8L86 101.9L104 94.9V24.1Z" fill="url(#paint34_linear)"/>
<path opacity="0.3" d="M104 69.1L55.3999 34.5L72.4999 89L85.9999 101.9L104 94.9V69.1Z" fill="url(#paint35_linear)"/>
<path opacity="0.3" d="M24 104H69L84.3 31.5L70.7 24H24V104Z" fill="url(#paint36_linear)"/>
<path opacity="0.3" d="M24 86.7L39.6 79.9L55.4 34.5L46.6 24H24V86.7Z" fill="url(#paint37_linear)"/>
<path opacity="0.3" d="M55.4001 34.5L70.5001 32.9L84.3001 31.5L83.5001 31.1L72.7001 25.1L70.7001 24H46.6001L55.4001 34.5Z" fill="url(#paint38_linear)"/>
</g>
<path d="M64 88.8999H34V93.8999H64V88.8999Z" fill="white"/>
<path d="M34 34.002H45.669C55.1249 34.002 61.7642 40.44 61.7642 48.89C61.7642 57.3399 55.1249 63.9792 45.669 63.9792H34V34.002ZM40.6393 40.0376V58.1447H45.669C51.1011 58.1447 54.7225 54.5233 54.7225 49.0912C54.7225 43.6591 51.1011 40.0376 45.669 40.0376H40.6393Z" fill="white"/>
<path d="M64.1782 59.9554L68.202 55.1269C71.0187 57.34 73.8353 58.7483 77.2555 58.7483C80.0722 58.7483 81.6817 57.7424 81.6817 55.9317C81.6817 54.3221 80.6758 53.3162 75.646 52.1091C69.6103 50.4995 65.5866 48.89 65.5866 42.8543C65.5866 37.4222 70.0127 33.5996 76.2496 33.5996C80.6758 33.5996 84.4984 35.0079 87.5162 37.4222L84.096 42.452C81.4805 40.6412 78.6639 39.4341 76.2496 39.4341C73.6341 39.4341 72.427 40.6412 72.427 42.0496C72.427 44.0615 73.6341 44.665 79.0663 46.0734C85.3031 47.6829 88.7234 49.896 88.7234 55.1269C88.7234 61.1626 84.096 64.5828 77.6579 64.5828C72.427 64.784 67.7996 63.1745 64.1782 59.9554Z" fill="white"/>
<defs>
<linearGradient id="paint0_linear" x1="99.4541" y1="55.445" x2="10.5659" y2="55.445" gradientUnits="userSpaceOnUse">
<stop offset="0.0782105" stop-color="#21D789"/>
<stop offset="0.8726" stop-color="#FCF84A"/>
</linearGradient>
<linearGradient id="paint1_linear" x1="32.4208" y1="56.3502" x2="19.7351" y2="65.9501" gradientUnits="userSpaceOnUse">
<stop offset="0.0782105" stop-color="white"/>
<stop offset="0.8726" stop-color="#FCF84A"/>
</linearGradient>
<linearGradient id="paint2_linear" x1="66.3757" y1="18.4419" x2="79.2488" y2="-0.3045" gradientUnits="userSpaceOnUse">
<stop offset="0.095296" stop-color="#BBF8AF" stop-opacity="0"/>
<stop offset="1" stop-color="#21FF79"/>
</linearGradient>
<linearGradient id="paint3_linear" x1="98.3136" y1="36.9516" x2="98.3136" y2="142.841" gradientUnits="userSpaceOnUse">
<stop  offset="0" stop-color="#21D789"/>
<stop offset="1" stop-color="#087CFA"/>
</linearGradient>
<linearGradient id="paint4_linear" x1="138.936" y1="79.9521" x2="63.0789" y2="47.8093" gradientUnits="userSpaceOnUse">
<stop offset="0.0202374" stop-color="#21D789" stop-opacity="0"/>
<stop offset="1" stop-color="#00FF6A"/>
</linearGradient>
<linearGradient id="paint5_linear" x1="168.482" y1="134.432" x2="42.1895" y2="32.2621" gradientUnits="userSpaceOnUse">
<stop offset="0.1049" stop-color="#21D789"/>
<stop offset="0.9668" stop-color="#087CFA"/>
</linearGradient>
<linearGradient id="paint6_linear" x1="110.666" y1="-9.8524" x2="22.4444" y2="90.1329" gradientUnits="userSpaceOnUse">
<stop offset="0.2348" stop-color="#21D789"/>
<stop offset="0.7396" stop-color="#087CFA"/>
</linearGradient>
<linearGradient id="paint7_linear" x1="-0.92335" y1="26.4523" x2="49.305" y2="64.3379" gradientUnits="userSpaceOnUse">
<stop offset="0.0782105" stop-color="#21D789"/>
<stop offset="0.8283" stop-color="#087CFA" stop-opacity="0"/>
</linearGradient>
<linearGradient id="paint8_linear" x1="80.3032" y1="33.0484" x2="82.1408" y2="30.7361" gradientUnits="userSpaceOnUse">
<stop offset="0.0782105" stop-color="#21D789" stop-opacity="0"/>
<stop offset="0.8726" stop-color="#01D0FF"/>
</linearGradient>
<linearGradient id="paint9_linear" x1="17.4993" y1="60.1818" x2="50.9219" y2="18.1229" gradientUnits="userSpaceOnUse">
<stop offset="0.3826" stop-color="#087CFA" stop-opacity="0"/>
<stop offset="1" stop-color="#01EFDB"/>
</linearGradient>
<linearGradient id="paint10_linear" x1="36.0121" y1="120.671" x2="42.4678" y2="112.547" gradientUnits="userSpaceOnUse">
<stop offset="0.0782105" stop-color="#21D789" stop-opacity="0"/>
<stop offset="0.8726" stop-color="#01D0FF"/>
</linearGradient>
<linearGradient id="paint11_linear" x1="30.3568" y1="38.8809" x2="29.6711" y2="63.0522" gradientUnits="userSpaceOnUse">
<stop offset="0.0782105" stop-color="#21D789"/>
<stop offset="0.8283" stop-color="#087CFA" stop-opacity="0"/>
</linearGradient>
<linearGradient id="paint12_linear" x1="77.0382" y1="56.2341" x2="19.4384" y2="130.12" gradientUnits="userSpaceOnUse">
<stop offset="0.2348" stop-color="#083FFA"/>
<stop offset="0.7396" stop-color="#087CFA"/>
</linearGradient>
<linearGradient id="paint13_linear" x1="33.6932" y1="7.04311" x2="89.7502" y2="106.814" gradientUnits="userSpaceOnUse">
<stop offset="0.2458" stop-color="#083FFA"/>
<stop offset="0.9131" stop-color="#087CFA"/>
</linearGradient>
<linearGradient id="paint14_linear" x1="33.8621" y1="91.1212" x2="62.6436" y2="119.903" gradientUnits="userSpaceOnUse">
<stop offset="0.2348" stop-color="#089FFF"/>
<stop offset="0.7396" stop-color="#087CFA" stop-opacity="0"/>
</linearGradient>
<linearGradient id="paint15_linear" x1="52.4229" y1="113.05" x2="33.4088" y2="92.3227" gradientUnits="userSpaceOnUse">
<stop offset="0.1526" stop-color="#0832FF"/>
<stop offset="0.9138" stop-color="#087CFA" stop-opacity="0"/>
</linearGradient>
<linearGradient id="paint16_linear" x1="79.5346" y1="121.815" x2="56.396" y2="94.4312" gradientUnits="userSpaceOnUse">
<stop offset="0.1526" stop-color="#0832FF"/>
<stop offset="0.9138" stop-color="#087CFA" stop-opacity="0"/>
</linearGradient>
<linearGradient id="paint17_linear" x1="55.0561" y1="-28.7014" x2="55.8676" y2="39.4657" gradientUnits="userSpaceOnUse">
<stop offset="0.2348" stop-color="#21D789"/>
<stop offset="0.8246" stop-color="#087CFA"/>
</linearGradient>
<linearGradient id="paint18_linear" x1="60.7475" y1="20.0082" x2="58.9941" y2="3.7892" gradientUnits="userSpaceOnUse">
<stop offset="0.095296" stop-color="#BBF8AF" stop-opacity="0"/>
<stop offset="1" stop-color="#21FF79"/>
</linearGradient>
<linearGradient id="paint19_linear" x1="83.6627" y1="34.6332" x2="78.0609" y2="28.1278" gradientUnits="userSpaceOnUse">
<stop  offset="0" stop-color="#21D789" stop-opacity="0"/>
<stop offset="0.9185" stop-color="#21D789"/>
</linearGradient>
<linearGradient id="paint20_linear" x1="114.294" y1="94.3763" x2="71.43" y2="30.0809" gradientUnits="userSpaceOnUse">
<stop offset="0.027928" stop-color="#21D789"/>
<stop offset="0.9294" stop-color="#0860FA"/>
</linearGradient>
<linearGradient id="paint21_linear" x1="91.5061" y1="60.303" x2="86.6204" y2="24.3031" gradientUnits="userSpaceOnUse">
<stop offset="0.0757413" stop-color="#087CFA" stop-opacity="0"/>
<stop offset="1" stop-color="#21D789" stop-opacity="0.6"/>
</linearGradient>
<linearGradient id="paint22_linear" x1="104.154" y1="65.5636" x2="80.4966" y2="32.9065" gradientUnits="userSpaceOnUse">
<stop offset="0.0757413" stop-color="#087CFA" stop-opacity="0"/>
<stop offset="1" stop-color="#4F46C6" stop-opacity="0.6"/>
</linearGradient>
<linearGradient id="paint23_linear" x1="107.629" y1="98.8191" x2="64.7657" y2="34.5238" gradientUnits="userSpaceOnUse">
<stop  offset="0" stop-color="#18AFAF"/>
<stop offset="0.6591" stop-color="#0860FA"/>
<stop offset="0.9983" stop-color="#084CFA"/>
</linearGradient>
<linearGradient id="paint24_linear" x1="87.2044" y1="80.7361" x2="70.233" y2="53.7361" gradientUnits="userSpaceOnUse">
<stop offset="0.0757413" stop-color="#087CFA" stop-opacity="0"/>
<stop offset="1" stop-color="#21D789" stop-opacity="0.6"/>
</linearGradient>
<linearGradient id="paint25_linear" x1="107.008" y1="94.3611" x2="79.9212" y2="69.108" gradientUnits="userSpaceOnUse">
<stop offset="0.0757413" stop-color="#087CFA" stop-opacity="0"/>
<stop offset="1" stop-color="#21D789" stop-opacity="0.6"/>
</linearGradient>
<linearGradient id="paint26_linear" x1="80.0336" y1="72.7427" x2="70.6695" y2="64.0126" gradientUnits="userSpaceOnUse">
<stop  offset="0" stop-color="#087CFA" stop-opacity="0"/>
<stop offset="0.8547" stop-color="#0841FA"/>
</linearGradient>
<linearGradient id="paint27_linear" x1="89.2647" y1="99.6495" x2="51.3951" y2="42.845" gradientUnits="userSpaceOnUse">
<stop  offset="0" stop-color="#089CFA"/>
<stop offset="0.7396" stop-color="#083CFA"/>
</linearGradient>
<linearGradient id="paint28_linear" x1="86.5825" y1="102.144" x2="71.6369" y2="79.7255" gradientUnits="userSpaceOnUse">
<stop  offset="0" stop-color="#087CFA" stop-opacity="0"/>
<stop offset="0.9787" stop-color="#0860FA"/>
</linearGradient>
<linearGradient id="paint29_linear" x1="85.4104" y1="41.0061" x2="91.4104" y2="13.5776" gradientUnits="userSpaceOnUse">
<stop offset="0.3551" stop-color="#BBF8AF" stop-opacity="0"/>
<stop offset="1" stop-color="#21FF79"/>
</linearGradient>
<linearGradient id="paint30_linear" x1="79.5306" y1="1.8128" x2="114.845" y2="28.3841" gradientUnits="userSpaceOnUse">
<stop offset="0.0202374" stop-color="#BBF8AF" stop-opacity="0"/>
<stop offset="1" stop-color="#21FF79"/>
</linearGradient>
<linearGradient id="paint31_linear" x1="24.6728" y1="24.6728" x2="106.733" y2="106.733" gradientUnits="userSpaceOnUse">
<stop offset="0.0284813" stop-color="#002846"/>
<stop offset="0.1369" stop-color="#002038"/>
<stop offset="0.4947" stop-color="#000910"/>
<stop offset="0.6795"/>
</linearGradient>
<linearGradient id="paint32_linear" x1="16.3554" y1="64" x2="80.6668" y2="64" gradientUnits="userSpaceOnUse">
<stop offset="0.0782105" stop-color="#21D789"/>
<stop offset="0.8726" stop-color="#FCF84A"/>
</linearGradient>
<linearGradient id="paint33_linear" x1="85.6506" y1="83.8731" x2="83.2886" y2="18.3583" gradientUnits="userSpaceOnUse">
<stop  offset="0" stop-color="#218640"/>
<stop offset="0.8027" stop-color="#B5FA59"/>
</linearGradient>
<linearGradient id="paint34_linear" x1="93.6034" y1="28.6953" x2="97.1274" y2="116.796" gradientUnits="userSpaceOnUse">
<stop offset="0.2348" stop-color="#21D789"/>
<stop offset="1" stop-color="#083450"/>
</linearGradient>
<linearGradient id="paint35_linear" x1="99.8173" y1="96.4195" x2="59.7743" y2="36.355" gradientUnits="userSpaceOnUse">
<stop  offset="0" stop-color="#021A43"/>
<stop offset="0.6591" stop-color="#0860FA"/>
</linearGradient>
<linearGradient id="paint36_linear" x1="49.4279" y1="-0.095" x2="57.2101" y2="112.086" gradientUnits="userSpaceOnUse">
<stop offset="0.2348" stop-color="#21D789"/>
<stop offset="0.7396" stop-color="#083450"/>
</linearGradient>
<linearGradient id="paint37_linear" x1="42.4914" y1="86.8082" x2="35.5902" y2="21.9076" gradientUnits="userSpaceOnUse">
<stop offset="0.2268" stop-color="#086C93"/>
<stop offset="0.8196" stop-color="#01EFDB"/>
</linearGradient>
<linearGradient id="paint38_linear" x1="49.4392" y1="25.0034" x2="88.854" y2="37.3206" gradientUnits="userSpaceOnUse">
<stop offset="0.2508" stop-color="#21D789"/>
<stop offset="0.8847" stop-color="#0C515A"/>
</linearGradient>
</defs>
</svg>
