<?xml version="1.0" encoding="UTF-8"?>
<svg xmlns="http://www.w3.org/2000/svg" xmlns:xlink="http://www.w3.org/1999/xlink" width="16px" height="16px" viewBox="0 0 16 16" version="1.1">
<g id="surface1">
<path style=" stroke:none;fill-rule:nonzero;fill:rgb(97.647059%,67.843139%,0%);fill-opacity:1;" d="M 15.707031 4.976562 L 10.832031 4.976562 L 10.832031 0.0976562 L 15.707031 0.0976562 Z M 15.707031 4.976562 "/>
<path style=" stroke:none;fill-rule:nonzero;fill:rgb(97.647059%,67.843139%,0%);fill-opacity:1;" d="M 10.339844 4.976562 L 5.464844 4.976562 L 5.464844 0.0976562 L 10.339844 0.0976562 Z M 10.339844 4.976562 "/>
<path style=" stroke:none;fill-rule:nonzero;fill:rgb(97.647059%,67.843139%,0%);fill-opacity:1;" d="M 4.976562 4.976562 L 0.0976562 4.976562 L 0.0976562 0.0976562 L 4.976562 0.0976562 Z M 4.976562 4.976562 "/>
<path style=" stroke:none;fill-rule:nonzero;fill:rgb(97.647059%,67.843139%,0%);fill-opacity:1;" d="M 15.707031 10.339844 L 10.832031 10.339844 L 10.832031 5.464844 L 15.707031 5.464844 Z M 15.707031 10.339844 "/>
<path style=" stroke:none;fill-rule:nonzero;fill:rgb(30.588236%,30.588236%,30.588236%);fill-opacity:1;" d="M 10.339844 10.339844 L 5.464844 10.339844 L 5.464844 5.464844 L 10.339844 5.464844 Z M 10.339844 10.339844 "/>
<path style=" stroke:none;fill-rule:nonzero;fill:rgb(30.588236%,30.588236%,30.588236%);fill-opacity:1;" d="M 10.339844 15.707031 L 5.464844 15.707031 L 5.464844 10.828125 L 10.339844 10.828125 Z M 10.339844 15.707031 "/>
<path style=" stroke:none;fill-rule:nonzero;fill:rgb(30.588236%,30.588236%,30.588236%);fill-opacity:1;" d="M 15.707031 15.707031 L 10.832031 15.707031 L 10.832031 10.828125 L 15.707031 10.828125 Z M 15.707031 15.707031 "/>
<path style=" stroke:none;fill-rule:nonzero;fill:rgb(30.588236%,30.588236%,30.588236%);fill-opacity:1;" d="M 4.976562 15.707031 L 0.0976562 15.707031 L 0.0976562 10.828125 L 4.976562 10.828125 Z M 4.976562 15.707031 "/>
</g>
</svg>
