<svg width="256" height="256" viewBox="0 0 256 256" fill="none" xmlns="http://www.w3.org/2000/svg">
<path d="M147.2 45L132.8 19.2L93.2001 38.4L40.6001 43L47.8001 133L122.2 120.6L147.2 45Z" fill="url(#paint0_linear)"/>
<path d="M70.6 67.9999L0 49.3999L24.4 196L148.2 203.4L70.6 67.9999Z" fill="url(#paint1_linear)"/>
<path d="M105 127.4L24.3999 196L148.2 203.4L105 127.4Z" fill="url(#paint2_linear)"/>
<path d="M148.2 202.4L137.4 78.4L170.2 48.5999L222.6 27.2L256 110L148.2 202.4Z" fill="url(#paint3_linear)"/>
<path d="M148.2 202.4L137.4 78.3999L187 95.5999L256 110L148.2 202.4Z" fill="url(#paint4_linear)"/>
<path d="M208 108.8L191.4 74.8L60.6001 101.2L74.2001 226L160.4 256L256 198.8L208 108.8Z" fill="url(#paint5_linear)"/>
<path d="M208 108.8L191.8 75.5999L140.4 115L160.4 256L256 198.8L208 108.8Z" fill="url(#paint6_linear)"/>
<path d="M140.6 115L140.8 116.8L152.4 198.8L223.4 137.8L208 108.8L191.8 75.5999L140.6 115Z" fill="url(#paint7_linear)"/>
<path d="M78.3999 97.6L148.2 203.4L205.8 153.6L165.6 80L78.3999 97.6Z" fill="url(#paint8_linear)"/>
<path d="M140.4 115L60.6001 101.2L74.2001 226L160.4 256L140.4 115Z" fill="url(#paint9_linear)"/>
<path d="M152.4 199.8L140.4 115L60.6001 101.2L65.4001 145.4L148.2 203.4L152.4 199.8Z" fill="url(#paint10_linear)"/>
<path d="M152.4 199.8L142.8 131.2L118 149.6L147.8 203.2L148.2 203.4L152.4 199.8Z" fill="url(#paint11_linear)"/>
<path d="M93.4001 106.8L60.6001 101.2L71.2001 198.8L148.2 203.4L93.4001 106.8Z" fill="url(#paint12_linear)"/>
<path d="M110.6 201.2L148.2 203.4L116.8 148L110.6 201.2Z" fill="url(#paint13_linear)"/>
<path d="M140.4 115L60.6001 101.2L158 15.2L222.6 27.2L179 71.1999L191.8 75.4L140.4 115Z" fill="url(#paint14_linear)"/>
<path d="M147.2 44.9999L139.6 31.3999L60.6001 101.2L140.4 115L172.6 90.1999L147.2 44.9999Z" fill="url(#paint15_linear)"/>
<path d="M132.8 19.2L43.6 0L0 49.4L70.8 68.2L132.8 19.2Z" fill="url(#paint16_linear)"/>
<path d="M78.2 62L43.6 0L0 49.4L70.8 68.2L78.2 62Z" fill="url(#paint17_linear)"/>
<path d="M110 201.2L74.2002 226L160.4 256L152.4 199.8L148.4 203.4L110 201.2Z" fill="url(#paint18_linear)"/>
<path d="M256 198.8L205.6 153L179 71.2L191.8 75.4L256 198.8Z" fill="url(#paint19_linear)"/>
<path d="M182.6 82.4L191.8 75.4L179 71.2L182.6 82.4Z" fill="url(#paint20_linear)"/>
<path d="M178.8 104.2L142.8 131.2L152.4 199.8L205.8 153.6L178.8 104.2Z" fill="url(#paint21_linear)"/>
<path d="M208 48H48V208H208V48Z" fill="url(#paint22_linear)"/>
<g opacity="0.3">
<path opacity="0.3" d="M48 197.4L148.2 203.4L70.6 68L48 62V197.4Z" fill="url(#paint23_linear)"/>
<path opacity="0.3" d="M151.2 208H156.2L152.6 60.4L148.2 48H96.3998L70.7998 68.2L151.2 208Z" fill="url(#paint24_linear)"/>
<path opacity="0.3" d="M208 151.2V48H202L179 71.2L191.8 75.4V75.6L208 108.8V151.2Z" fill="url(#paint25_linear)"/>
<path opacity="0.3" d="M208 108.8L191.8 75.6001L140.4 115L153.6 208H208V108.8Z" fill="url(#paint26_linear)"/>
<path opacity="0.3" d="M120.8 48L60.6001 101.2L140.4 115L191.8 75.4L179 71.2L202 48H120.8Z" fill="url(#paint27_linear)"/>
<path opacity="0.3" d="M70.8 68.2L96.4 48H48V62.2L70.8 68.2Z" fill="url(#paint28_linear)"/>
</g>
<path d="M128 177.8H68V187.8H128V177.8Z" fill="white"/>
<path d="M120.369 119.569L128.194 110.138C133.612 114.553 139.23 117.562 146.253 117.562C151.67 117.562 154.88 115.355 154.88 111.944V111.744C154.88 108.333 152.874 106.727 142.641 104.119C130.402 101.109 122.576 97.6983 122.576 85.6595V85.4589C122.576 74.4233 131.405 67.2 143.644 67.2C152.473 67.2 159.897 70.009 166.117 74.8245L159.295 84.8569C153.877 81.0446 148.66 78.8375 143.644 78.8375C138.628 78.8375 135.819 81.2453 135.819 84.0543V84.255C135.819 88.2679 138.427 89.4718 148.861 92.2809C161.101 95.4912 167.923 99.9055 167.923 110.339V110.54C167.923 122.579 158.693 129.2 145.851 129.2C136.822 129.2 127.592 125.99 120.369 119.569Z" fill="white"/>
<path d="M68 68.0027H92.479C106.725 68.0027 115.553 76.4299 115.553 88.87V89.0706C115.553 102.915 104.718 110.139 91.2751 110.139H81.2427V128.197H68V68.0027ZM91.6764 98.3004C98.2977 98.3004 102.11 94.2875 102.11 89.2713V89.0706C102.11 83.0512 97.8964 80.0415 91.2751 80.0415H81.0421V98.3004H91.6764Z" fill="white"/>
<defs>
<linearGradient id="paint0_linear" x1="47.1999" y1="147.61" x2="119.487" y2="8.78676" gradientUnits="userSpaceOnUse">
<stop stop-color="#AF1DF5"/>
<stop offset="0.2116" stop-color="#BC20E4"/>
<stop offset="0.6282" stop-color="#DD29B8"/>
<stop offset="1" stop-color="#FF318C"/>
</linearGradient>
<linearGradient id="paint1_linear" x1="26.1036" y1="189.813" x2="113.725" y2="74.0739" gradientUnits="userSpaceOnUse">
<stop offset="0.1207" stop-color="#6B57FF"/>
<stop offset="0.4014" stop-color="#B74AF7"/>
<stop offset="0.7088" stop-color="#FF318C"/>
<stop offset="0.8648" stop-color="#FF7FB8"/>
</linearGradient>
<linearGradient id="paint2_linear" x1="38.8623" y1="226.107" x2="106.1" y2="179.558" gradientUnits="userSpaceOnUse">
<stop offset="0.0892486" stop-color="#6B57FF"/>
<stop offset="0.4021" stop-color="#8253FD"/>
<stop offset="0.4579" stop-color="#8A52FC"/>
<stop offset="0.7051" stop-color="#AB4CF8"/>
<stop offset="0.8412" stop-color="#B74AF7"/>
</linearGradient>
<linearGradient id="paint3_linear" x1="214.567" y1="183.949" x2="158.411" y2="50.6734" gradientUnits="userSpaceOnUse">
<stop stop-color="#4335BE"/>
<stop offset="0.1308" stop-color="#5638C7"/>
<stop offset="0.5322" stop-color="#8A42E1"/>
<stop offset="0.8343" stop-color="#AB48F1"/>
<stop offset="1" stop-color="#B74AF7"/>
</linearGradient>
<linearGradient id="paint4_linear" x1="213.525" y1="183.337" x2="163.574" y2="64.7865" gradientUnits="userSpaceOnUse">
<stop stop-color="#4335BE"/>
<stop offset="0.2419" stop-color="#663BCF"/>
<stop offset="0.7408" stop-color="#B74AF7"/>
</linearGradient>
<linearGradient id="paint5_linear" x1="184.907" y1="226.841" x2="104.188" y2="108.527" gradientUnits="userSpaceOnUse">
<stop offset="0.016129" stop-color="#6B57FF"/>
<stop offset="0.7829" stop-color="#B74AF7"/>
</linearGradient>
<linearGradient id="paint6_linear" x1="209.924" y1="215.418" x2="151.503" y2="129.788" gradientUnits="userSpaceOnUse">
<stop offset="0.016129" stop-color="#6B57FF"/>
<stop offset="0.7829" stop-color="#B74AF7"/>
</linearGradient>
<linearGradient id="paint7_linear" x1="295.727" y1="195.099" x2="113.328" y2="109.728" gradientUnits="userSpaceOnUse">
<stop stop-color="#4335BE"/>
<stop offset="0.2419" stop-color="#663BCF"/>
<stop offset="0.7408" stop-color="#B74AF7"/>
</linearGradient>
<linearGradient id="paint8_linear" x1="194.037" y1="224.747" x2="114.837" y2="73.5472" gradientUnits="userSpaceOnUse">
<stop offset="0.016129" stop-color="#6B57FF"/>
<stop offset="0.7829" stop-color="#B74AF7"/>
</linearGradient>
<linearGradient id="paint9_linear" x1="154.803" y1="240.087" x2="76.8811" y2="125.872" gradientUnits="userSpaceOnUse">
<stop offset="0.016129" stop-color="#6B57FF"/>
<stop offset="0.6909" stop-color="#B74AF7"/>
</linearGradient>
<linearGradient id="paint10_linear" x1="90.4413" y1="181.385" x2="129.078" y2="107.186" gradientUnits="userSpaceOnUse">
<stop offset="0.016129" stop-color="#6B57FF"/>
<stop offset="0.6969" stop-color="#A329F5"/>
</linearGradient>
<linearGradient id="paint11_linear" x1="110.728" y1="101.781" x2="152.642" y2="184.066" gradientUnits="userSpaceOnUse">
<stop offset="0.016129" stop-color="#6B57FF"/>
<stop offset="0.6969" stop-color="#A329F5"/>
</linearGradient>
<linearGradient id="paint12_linear" x1="61.0053" y1="229.567" x2="128.372" y2="109.686" gradientUnits="userSpaceOnUse">
<stop offset="0.0242547" stop-color="#6B57FF"/>
<stop offset="0.263" stop-color="#6B57FF"/>
<stop offset="0.706" stop-color="#B74AF7"/>
<stop offset="0.7659" stop-color="#BC48F0"/>
<stop offset="0.8555" stop-color="#CA44DB"/>
<stop offset="0.9632" stop-color="#E03CBA"/>
<stop offset="1" stop-color="#E939AD"/>
</linearGradient>
<linearGradient id="paint13_linear" x1="107.865" y1="219.472" x2="140.604" y2="161.213" gradientUnits="userSpaceOnUse">
<stop offset="0.0455723" stop-color="#6B57FF"/>
<stop offset="0.295" stop-color="#8A52FC"/>
<stop offset="0.5991" stop-color="#AB4CF8"/>
<stop offset="0.7667" stop-color="#B74AF7"/>
</linearGradient>
<linearGradient id="paint14_linear" x1="160.442" y1="163.334" x2="133.699" y2="21.906" gradientUnits="userSpaceOnUse">
<stop offset="0.016129" stop-color="#6B57FF"/>
<stop offset="0.5665" stop-color="#B74AF7"/>
<stop offset="0.9064" stop-color="#C276FF"/>
</linearGradient>
<linearGradient id="paint15_linear" x1="98.1727" y1="131.148" x2="148.841" y2="33.8423" gradientUnits="userSpaceOnUse">
<stop offset="0.016129" stop-color="#6B57FF"/>
<stop offset="0.5974" stop-color="#B74AF7"/>
</linearGradient>
<linearGradient id="paint16_linear" x1="29.1264" y1="101.932" x2="77.144" y2="14.7884" gradientUnits="userSpaceOnUse">
<stop offset="0.0874352" stop-color="#AF1DF5"/>
<stop offset="0.2329" stop-color="#BC20E4"/>
<stop offset="0.5194" stop-color="#DD29B8"/>
<stop offset="0.7751" stop-color="#FF318C"/>
<stop offset="0.997" stop-color="#FF64B9"/>
</linearGradient>
<linearGradient id="paint17_linear" x1="21.7132" y1="87.3006" x2="51.3218" y2="33.5666" gradientUnits="userSpaceOnUse">
<stop offset="0.00935173" stop-color="#BC20E4"/>
<stop offset="0.4441" stop-color="#D827C0"/>
<stop offset="1" stop-color="#FF318C"/>
</linearGradient>
<linearGradient id="paint18_linear" x1="89.3152" y1="243.235" x2="159.504" y2="220.841" gradientUnits="userSpaceOnUse">
<stop offset="0.016129" stop-color="#6B57FF"/>
<stop offset="0.6909" stop-color="#B74AF7"/>
<stop offset="0.9772" stop-color="#BD6CF7"/>
</linearGradient>
<linearGradient id="paint19_linear" x1="228.977" y1="130.804" x2="201.72" y2="140.832" gradientUnits="userSpaceOnUse">
<stop offset="0.0753552" stop-color="#6B57FF"/>
<stop offset="0.7396" stop-color="#B74AF7"/>
</linearGradient>
<linearGradient id="paint20_linear" x1="182.534" y1="94.2868" x2="185.877" y2="70.3726" gradientUnits="userSpaceOnUse">
<stop stop-color="#B74AF7"/>
<stop offset="1" stop-color="#C276FF"/>
</linearGradient>
<linearGradient id="paint21_linear" x1="193.546" y1="204.215" x2="148.086" y2="117.428" gradientUnits="userSpaceOnUse">
<stop offset="0.016129" stop-color="#6B57FF"/>
<stop offset="0.7829" stop-color="#B74AF7"/>
</linearGradient>
<linearGradient id="paint22_linear" x1="52.2336" y1="44.6316" x2="189.493" y2="195.663" gradientUnits="userSpaceOnUse">
<stop stop-color="#562274"/>
<stop offset="0.59375" stop-color="#020202"/>
</linearGradient>
<linearGradient id="paint23_linear" x1="100.135" y1="224.902" x2="85.5528" y2="50.3152" gradientUnits="userSpaceOnUse">
<stop offset="0.1391" stop-color="#2C083E"/>
<stop offset="0.1711" stop-color="#0E0A25"/>
<stop offset="0.5145" stop-color="#8D1BC7"/>
<stop offset="0.8648" stop-color="#FF45ED"/>
</linearGradient>
<linearGradient id="paint24_linear" x1="141.034" y1="192.16" x2="109.153" y2="53.2794" gradientUnits="userSpaceOnUse">
<stop offset="0.0862819" stop-color="#3B0B6E"/>
<stop offset="0.2814" stop-color="#601274"/>
<stop offset="0.7133" stop-color="#BE2482"/>
<stop offset="1" stop-color="#FF318C"/>
</linearGradient>
<linearGradient id="paint25_linear" x1="190.3" y1="49.9794" x2="205.045" y2="94.215" gradientUnits="userSpaceOnUse">
<stop offset="0.1893" stop-color="#4335BE"/>
<stop offset="0.5166" stop-color="#2B227A"/>
<stop offset="0.8443" stop-color="#15113C"/>
<stop offset="1" stop-color="#0C0A23"/>
</linearGradient>
<linearGradient id="paint26_linear" x1="208.802" y1="194.744" x2="158.604" y2="121.166" gradientUnits="userSpaceOnUse">
<stop stop-color="#15132A"/>
<stop offset="0.4052" stop-color="#331444"/>
<stop offset="0.9653" stop-color="#9F40D7"/>
</linearGradient>
<linearGradient id="paint27_linear" x1="146.053" y1="152.125" x2="126.456" y2="48.4878" gradientUnits="userSpaceOnUse">
<stop offset="0.016129" stop-color="#6B57FF"/>
<stop offset="0.5665" stop-color="#B74AF7"/>
<stop offset="0.9064" stop-color="#C276FF"/>
</linearGradient>
<linearGradient id="paint28_linear" x1="54.459" y1="80.1332" x2="73.414" y2="45.7334" gradientUnits="userSpaceOnUse">
<stop offset="0.0874352" stop-color="#FF45ED"/>
<stop offset="0.2127" stop-color="#FF42DC"/>
<stop offset="0.4594" stop-color="#FF38B0"/>
<stop offset="0.6408" stop-color="#FF318C"/>
</linearGradient>
</defs>
</svg>
