<svg width="70" height="70" viewBox="0 0 70 70" fill="none" xmlns="http://www.w3.org/2000/svg">
<path d="M40.2001 12.3L36.3001 5.19995L25.5001 10.5L11.1001 11.8L13.1001 36.4L33.4001 33L40.2001 12.3Z" fill="url(#paint0_linear)"/>
<path d="M19.3 18.6L0 13.5L6.7 53.6L40.5 55.6L19.3 18.6Z" fill="url(#paint1_linear)"/>
<path d="M28.7 34.8L6.69995 53.6L40.5 55.6L28.7 34.8Z" fill="url(#paint2_linear)"/>
<path d="M40.5001 55.2999L37.6001 21.4999L46.6001 13.2999L60.9001 7.3999L70.0001 30.0999L40.5001 55.2999Z" fill="url(#paint3_linear)"/>
<path d="M40.5001 55.3L37.6001 21.5L51.2001 26.1L70.0001 30.1L40.5001 55.3Z" fill="url(#paint4_linear)"/>
<path d="M56.9001 29.8L52.3001 20.5L16.6001 27.7L20.3001 61.8L43.9001 70L70.0001 54.4L56.9001 29.8Z" fill="url(#paint5_linear)"/>
<path d="M56.8999 29.7999L52.3999 20.7L38.3999 31.4L43.8999 70L69.9999 54.4L56.8999 29.7999Z" fill="url(#paint6_linear)"/>
<path d="M38.3999 31.4L38.4999 31.9L41.5999 54.4L61.0999 37.7L56.8999 29.7999L52.3999 20.7L38.3999 31.4Z" fill="url(#paint7_linear)"/>
<path d="M21.3999 26.6999L40.4999 55.5999L56.2999 41.9999L45.2999 21.8999L21.3999 26.6999Z" fill="url(#paint8_linear)"/>
<path d="M38.4001 31.4L16.6001 27.7L20.3001 61.7999L43.9001 70L38.4001 31.4Z" fill="url(#paint9_linear)"/>
<path d="M41.7001 54.5999L38.4001 31.4L16.6001 27.7L17.9001 39.7L40.5001 55.5999L41.7001 54.5999Z" fill="url(#paint10_linear)"/>
<path d="M41.7001 54.5999L39 35.8999L32.3 40.8999L40.4001 55.4999L40.5 55.5999L41.7001 54.5999Z" fill="url(#paint11_linear)"/>
<path d="M25.6001 29.2L16.6001 27.7L19.5001 54.2999L40.5001 55.5999L25.6001 29.2Z" fill="url(#paint12_linear)"/>
<path d="M30.2 54.9999L40.5 55.5999L31.9 40.3999L30.2 54.9999Z" fill="url(#paint13_linear)"/>
<path d="M38.4001 31.4L16.6001 27.7L43.2001 4.19995L60.9001 7.39995L49.0001 19.5L52.5001 20.6L38.4001 31.4Z" fill="url(#paint14_linear)"/>
<path d="M40.2001 12.3001L38.2001 8.6001L16.6001 27.7001L38.4001 31.4001L47.2001 24.7001L40.2001 12.3001Z" fill="url(#paint15_linear)"/>
<path d="M36.3 5.2L11.9 0L0 13.5L19.3 18.7L36.3 5.2Z" fill="url(#paint16_linear)"/>
<path d="M21.4 17L11.9 0L0 13.5L19.3 18.7L21.4 17Z" fill="url(#paint17_linear)"/>
<path d="M30.1 55.0001L20.3 61.8001L43.9001 70.0001L41.7001 54.6001L40.6 55.6001L30.1 55.0001Z" fill="url(#paint18_linear)"/>
<path d="M70 54.4L56.2 41.8L49 19.5L52.5 20.6L70 54.4Z" fill="url(#paint19_linear)"/>
<path d="M49.9 22.6L52.5 20.6L49 19.5L49.9 22.6Z" fill="url(#paint20_linear)"/>
<path d="M48.9 28.5L39 35.9L41.7 54.6L56.3 42L48.9 28.5Z" fill="url(#paint21_linear)"/>
<path d="M57 13H13V57H57V13Z" fill="url(#paint22_linear)"/>
<g opacity="0.3">
<path opacity="0.3" d="M13 54.0999L40.5 55.6999L19.2 18.4999L13 16.8999V54.0999Z" fill="url(#paint23_linear)"/>
<path opacity="0.3" d="M41.4 57H42.7001L41.8 16.4L40.6 13H26.3L19.3 18.6L41.4 57Z" fill="url(#paint24_linear)"/>
<path opacity="0.3" d="M57 41.4V13H55.4L49 19.4L52.6 20.5L52.5 20.6L57 29.7V41.4Z" fill="url(#paint25_linear)"/>
<path opacity="0.3" d="M56.9999 29.7001L52.4999 20.6001L38.3999 31.4001L41.9999 57.0001H56.9999V29.7001Z" fill="url(#paint26_linear)"/>
<path opacity="0.3" d="M33 13L16.5 27.6L38.4 31.4L52.6 20.5L49 19.4L55.4 13H33Z" fill="url(#paint27_linear)"/>
<path opacity="0.3" d="M19.3 18.6L26.3 13H13V16.9L19.3 18.6Z" fill="url(#paint28_linear)"/>
</g>
<path d="M35 48.7H18.5V51.4H35V48.7Z" fill="white"/>
<path d="M32.8999 32.5L35.0999 29.9C36.5999 31.1 38.1999 31.9 39.9999 31.9C41.4999 31.9 42.3999 31.3 42.3999 30.3C42.3999 29.4 41.7999 28.9 39.0999 28.2C35.7999 27.3 33.5999 26.4 33.5999 23.1V23C33.5999 20 35.9999 18 39.3999 18C41.7999 18 43.8999 18.8 45.4999 20.1L43.5999 22.8C42.0999 21.8 40.6999 21.2 39.2999 21.2C37.8999 21.2 37.1999 21.8 37.1999 22.6C37.1999 23.7 37.8999 24 40.7999 24.8C44.1999 25.7 45.9999 26.9 45.9999 29.8C45.9999 33.1 43.5 34.9 39.8999 34.9C37 35 34.8999 34.3 32.8999 32.5Z" fill="white"/>
<path d="M18.5 18.3999H25.2C29.1 18.3999 31.5 20.6999 31.5 24.0999C31.5 27.8999 28.5 29.8999 24.8 29.8999H22.1V34.8999H18.5V18.3999ZM25 26.6999C26.8 26.6999 27.9 25.5999 27.9 24.1999C27.9 22.5999 26.8 21.6999 25 21.6999H22.1V26.6999H25Z" fill="white"/>
<defs>
<linearGradient id="paint0_linear" x1="12.9063" y1="40.3622" x2="32.6722" y2="2.40255" gradientUnits="userSpaceOnUse">
<stop stop-color="#AF1DF5"/>
<stop offset="0.2116" stop-color="#BC20E4"/>
<stop offset="0.6282" stop-color="#DD29B8"/>
<stop offset="1" stop-color="#FF318C"/>
</linearGradient>
<linearGradient id="paint1_linear" x1="7.1377" y1="51.9019" x2="31.0967" y2="20.2546" gradientUnits="userSpaceOnUse">
<stop offset="0.1207" stop-color="#6B57FF"/>
<stop offset="0.4014" stop-color="#B74AF7"/>
<stop offset="0.7088" stop-color="#FF318C"/>
<stop offset="0.8648" stop-color="#FF7FB8"/>
</linearGradient>
<linearGradient id="paint2_linear" x1="10.6265" y1="61.8261" x2="29.0117" y2="49.0979" gradientUnits="userSpaceOnUse">
<stop offset="0.0892486" stop-color="#6B57FF"/>
<stop offset="0.4021" stop-color="#8253FD"/>
<stop offset="0.4579" stop-color="#8A52FC"/>
<stop offset="0.7051" stop-color="#AB4CF8"/>
<stop offset="0.8412" stop-color="#B74AF7"/>
</linearGradient>
<linearGradient id="paint3_linear" x1="58.6707" y1="50.2984" x2="43.3157" y2="13.8559" gradientUnits="userSpaceOnUse">
<stop stop-color="#4335BE"/>
<stop offset="0.1308" stop-color="#5638C7"/>
<stop offset="0.5322" stop-color="#8A42E1"/>
<stop offset="0.8343" stop-color="#AB48F1"/>
<stop offset="1" stop-color="#B74AF7"/>
</linearGradient>
<linearGradient id="paint4_linear" x1="58.3858" y1="50.1312" x2="44.7273" y2="17.7151" gradientUnits="userSpaceOnUse">
<stop stop-color="#4335BE"/>
<stop offset="0.2419" stop-color="#663BCF"/>
<stop offset="0.7408" stop-color="#B74AF7"/>
</linearGradient>
<linearGradient id="paint5_linear" x1="50.5606" y1="62.0269" x2="28.489" y2="29.6754" gradientUnits="userSpaceOnUse">
<stop offset="0.016129" stop-color="#6B57FF"/>
<stop offset="0.7829" stop-color="#B74AF7"/>
</linearGradient>
<linearGradient id="paint6_linear" x1="57.401" y1="58.9035" x2="41.4266" y2="35.4888" gradientUnits="userSpaceOnUse">
<stop offset="0.016129" stop-color="#6B57FF"/>
<stop offset="0.7829" stop-color="#B74AF7"/>
</linearGradient>
<linearGradient id="paint7_linear" x1="80.8629" y1="53.3474" x2="30.988" y2="30.0037" gradientUnits="userSpaceOnUse">
<stop stop-color="#4335BE"/>
<stop offset="0.2419" stop-color="#663BCF"/>
<stop offset="0.7408" stop-color="#B74AF7"/>
</linearGradient>
<linearGradient id="paint8_linear" x1="53.0568" y1="61.4541" x2="31.4006" y2="20.1105" gradientUnits="userSpaceOnUse">
<stop offset="0.016129" stop-color="#6B57FF"/>
<stop offset="0.7829" stop-color="#B74AF7"/>
</linearGradient>
<linearGradient id="paint9_linear" x1="42.329" y1="65.6488" x2="21.0222" y2="34.4183" gradientUnits="userSpaceOnUse">
<stop offset="0.016129" stop-color="#6B57FF"/>
<stop offset="0.6909" stop-color="#B74AF7"/>
</linearGradient>
<linearGradient id="paint10_linear" x1="24.7301" y1="49.5975" x2="35.2948" y2="29.3085" gradientUnits="userSpaceOnUse">
<stop offset="0.016129" stop-color="#6B57FF"/>
<stop offset="0.6969" stop-color="#A329F5"/>
</linearGradient>
<linearGradient id="paint11_linear" x1="30.2772" y1="27.8305" x2="41.7381" y2="50.3305" gradientUnits="userSpaceOnUse">
<stop offset="0.016129" stop-color="#6B57FF"/>
<stop offset="0.6969" stop-color="#A329F5"/>
</linearGradient>
<linearGradient id="paint12_linear" x1="16.6812" y1="62.7721" x2="35.1017" y2="29.9924" gradientUnits="userSpaceOnUse">
<stop offset="0.0242547" stop-color="#6B57FF"/>
<stop offset="0.263" stop-color="#6B57FF"/>
<stop offset="0.706" stop-color="#B74AF7"/>
<stop offset="0.7659" stop-color="#BC48F0"/>
<stop offset="0.8555" stop-color="#CA44DB"/>
<stop offset="0.9632" stop-color="#E03CBA"/>
<stop offset="1" stop-color="#E939AD"/>
</linearGradient>
<linearGradient id="paint13_linear" x1="29.4944" y1="60.0118" x2="38.4463" y2="44.0816" gradientUnits="userSpaceOnUse">
<stop offset="0.0455723" stop-color="#6B57FF"/>
<stop offset="0.295" stop-color="#8A52FC"/>
<stop offset="0.5991" stop-color="#AB4CF8"/>
<stop offset="0.7667" stop-color="#B74AF7"/>
</linearGradient>
<linearGradient id="paint14_linear" x1="43.871" y1="44.6617" x2="36.5585" y2="5.98985" gradientUnits="userSpaceOnUse">
<stop offset="0.016129" stop-color="#6B57FF"/>
<stop offset="0.5665" stop-color="#B74AF7"/>
<stop offset="0.9064" stop-color="#C276FF"/>
</linearGradient>
<linearGradient id="paint15_linear" x1="26.8442" y1="35.8609" x2="40.6987" y2="9.2539" gradientUnits="userSpaceOnUse">
<stop offset="0.016129" stop-color="#6B57FF"/>
<stop offset="0.5974" stop-color="#B74AF7"/>
</linearGradient>
<linearGradient id="paint16_linear" x1="7.9643" y1="27.8719" x2="21.0941" y2="4.0437" gradientUnits="userSpaceOnUse">
<stop offset="0.0874352" stop-color="#AF1DF5"/>
<stop offset="0.2329" stop-color="#BC20E4"/>
<stop offset="0.5194" stop-color="#DD29B8"/>
<stop offset="0.7751" stop-color="#FF318C"/>
<stop offset="0.997" stop-color="#FF64B9"/>
</linearGradient>
<linearGradient id="paint17_linear" x1="5.9372" y1="23.8713" x2="14.0333" y2="9.1783" gradientUnits="userSpaceOnUse">
<stop offset="0.00935173" stop-color="#BC20E4"/>
<stop offset="0.4441" stop-color="#D827C0"/>
<stop offset="1" stop-color="#FF318C"/>
</linearGradient>
<linearGradient id="paint18_linear" x1="24.4221" y1="66.5096" x2="43.6145" y2="60.3863" gradientUnits="userSpaceOnUse">
<stop offset="0.016129" stop-color="#6B57FF"/>
<stop offset="0.6909" stop-color="#B74AF7"/>
<stop offset="0.9772" stop-color="#BD6CF7"/>
</linearGradient>
<linearGradient id="paint19_linear" x1="62.6108" y1="35.7666" x2="55.1577" y2="38.5088" gradientUnits="userSpaceOnUse">
<stop offset="0.0753552" stop-color="#6B57FF"/>
<stop offset="0.7396" stop-color="#B74AF7"/>
</linearGradient>
<linearGradient id="paint20_linear" x1="49.9116" y1="25.7816" x2="50.8257" y2="19.2425" gradientUnits="userSpaceOnUse">
<stop stop-color="#B74AF7"/>
<stop offset="1" stop-color="#C276FF"/>
</linearGradient>
<linearGradient id="paint21_linear" x1="52.9227" y1="55.84" x2="40.4923" y2="32.1093" gradientUnits="userSpaceOnUse">
<stop offset="0.016129" stop-color="#6B57FF"/>
<stop offset="0.7829" stop-color="#B74AF7"/>
</linearGradient>
<linearGradient id="paint22_linear" x1="14.1642" y1="12.0737" x2="51.9107" y2="53.6074" gradientUnits="userSpaceOnUse">
<stop stop-color="#562274"/>
<stop offset="0.59375" stop-color="#020202"/>
</linearGradient>
<linearGradient id="paint23_linear" x1="27.337" y1="61.6479" x2="23.327" y2="13.6366" gradientUnits="userSpaceOnUse">
<stop offset="0.1391" stop-color="#2C083E"/>
<stop offset="0.1711" stop-color="#0E0A25"/>
<stop offset="0.5145" stop-color="#8D1BC7"/>
<stop offset="0.8648" stop-color="#FF45ED"/>
</linearGradient>
<linearGradient id="paint24_linear" x1="38.5844" y1="52.644" x2="29.817" y2="14.4518" gradientUnits="userSpaceOnUse">
<stop offset="0.0862819" stop-color="#3B0B6E"/>
<stop offset="0.2814" stop-color="#601274"/>
<stop offset="0.7133" stop-color="#BE2482"/>
<stop offset="1" stop-color="#FF318C"/>
</linearGradient>
<linearGradient id="paint25_linear" x1="52.1326" y1="13.5443" x2="56.1875" y2="25.7091" gradientUnits="userSpaceOnUse">
<stop offset="0.1893" stop-color="#4335BE"/>
<stop offset="0.5166" stop-color="#2B227A"/>
<stop offset="0.8443" stop-color="#15113C"/>
<stop offset="1" stop-color="#0C0A23"/>
</linearGradient>
<linearGradient id="paint26_linear" x1="57.2206" y1="53.3548" x2="43.4161" y2="33.1208" gradientUnits="userSpaceOnUse">
<stop stop-color="#15132A"/>
<stop offset="0.4052" stop-color="#331444"/>
<stop offset="0.9653" stop-color="#9F40D7"/>
</linearGradient>
<linearGradient id="paint27_linear" x1="39.9645" y1="41.6344" x2="34.5753" y2="13.1341" gradientUnits="userSpaceOnUse">
<stop offset="0.016129" stop-color="#6B57FF"/>
<stop offset="0.5665" stop-color="#B74AF7"/>
<stop offset="0.9064" stop-color="#C276FF"/>
</linearGradient>
<linearGradient id="paint28_linear" x1="14.7762" y1="21.8366" x2="19.9889" y2="12.3767" gradientUnits="userSpaceOnUse">
<stop offset="0.0874352" stop-color="#FF45ED"/>
<stop offset="0.2127" stop-color="#FF42DC"/>
<stop offset="0.4594" stop-color="#FF38B0"/>
<stop offset="0.6408" stop-color="#FF318C"/>
</linearGradient>
</defs>
</svg>
