<svg width="24" height="24" viewBox="0 0 24 24" fill="none" xmlns="http://www.w3.org/2000/svg">
<path d="M13.8 4.20005L12.4 1.80005L8.70005 3.60005L3.80005 4.00005L4.50005 12.5L11.5 11.3L13.8 4.20005Z" fill="url(#paint0_linear)"/>
<path d="M6.6 6.4001L0 4.6001L2.3 18.4001L13.9 19.1001L6.6 6.4001Z" fill="url(#paint1_linear)"/>
<path d="M9.80005 11.9001L2.30005 18.4001L13.9 19.1001L9.80005 11.9001Z" fill="url(#paint2_linear)"/>
<path d="M13.9 19L12.9 7.4L16 4.6L20.9 2.5L24 10.3L13.9 19Z" fill="url(#paint3_linear)"/>
<path d="M13.9 19.0001L12.9 7.40015L17.5 9.00015L24 10.3001L13.9 19.0001Z" fill="url(#paint4_linear)"/>
<path d="M19.5 10.2L17.9 7L5.69995 9.5L6.89995 21.2L15 24L24 18.6L19.5 10.2Z" fill="url(#paint5_linear)"/>
<path d="M19.5 10.2001L18 7.1001L13.2 10.8001L15 24.0001L24 18.6001L19.5 10.2001Z" fill="url(#paint6_linear)"/>
<path d="M13.2 10.8001V10.9001L14.3 18.6001L21 12.9001L19.5 10.2001L18 7.1001L13.2 10.8001Z" fill="url(#paint7_linear)"/>
<path d="M7.30005 9.1L13.9 19.1L19.3 14.4L15.5 7.5L7.30005 9.1Z" fill="url(#paint8_linear)"/>
<path d="M13.2 10.8L5.69995 9.5L6.89995 21.2L15 24L13.2 10.8Z" fill="url(#paint9_linear)"/>
<path d="M14.3 18.7L13.2 10.8L5.69995 9.5L6.09995 13.6L13.9 19.1L14.3 18.7Z" fill="url(#paint10_linear)"/>
<path d="M14.3 18.7L13.4 12.3L11.1 14L13.8 19L13.9 19.1L14.3 18.7Z" fill="url(#paint11_linear)"/>
<path d="M8.79995 10L5.69995 9.5L6.69995 18.6L13.9 19.1L8.79995 10Z" fill="url(#paint12_linear)"/>
<path d="M10.4 18.9001L13.9 19.1001L10.9 13.9001L10.4 18.9001Z" fill="url(#paint13_linear)"/>
<path d="M13.2 10.7999L5.69995 9.4999L14.8 1.3999L20.9 2.4999L16.8 6.6999L18 7.0999L13.2 10.7999Z" fill="url(#paint14_linear)"/>
<path d="M13.8 4.2L13.1 3L5.69995 9.5L13.2 10.8L16.2 8.5L13.8 4.2Z" fill="url(#paint15_linear)"/>
<path d="M12.4 1.8L4.1 0L0 4.6L6.6 6.4L12.4 1.8Z" fill="url(#paint16_linear)"/>
<path d="M7.3 5.8L4.1 0L0 4.6L6.6 6.4L7.3 5.8Z" fill="url(#paint17_linear)"/>
<path d="M10.3 18.9L6.90002 21.2L15 24L14.3 18.7L13.9 19.1L10.3 18.9Z" fill="url(#paint18_linear)"/>
<path d="M24 18.6L19.3 14.3L16.8 6.69995L18 7.09995L24 18.6Z" fill="url(#paint19_linear)"/>
<path d="M17.1 7.69995L18 7.09995L16.8 6.69995L17.1 7.69995Z" fill="url(#paint20_linear)"/>
<path d="M16.8 9.80005L13.4 12.3L14.3 18.7L19.3 14.4L16.8 9.80005Z" fill="url(#paint21_linear)"/>
<path d="M20 4H4V20H20V4Z" fill="url(#paint22_linear)"/>
<g opacity="0.3">
<g opacity="0.3">
<path opacity="0.3" d="M19.7 20.0001H20V16.6001L17.7 20.0001H19.7Z" fill="#231F20"/>
<path opacity="0.3" d="M14.2 4H5.6L4.3 7.7L19.3 16L4.4 7.8L4 7.9V11.2L13 14.9L20 16.4V16.3V11.2L14.2 4Z" fill="url(#paint23_linear)"/>
<path opacity="0.3" d="M5.60005 4L4.30005 7.7L20 16.3V11.2L14.2 4H5.60005Z" fill="url(#paint24_linear)"/>
<path opacity="0.3" d="M4 4V8.2L4.4 7.8L5.6 4H4Z" fill="#F9ED32"/>
</g>
<path opacity="0.3" d="M4 7.90005V11.2L13 14.9L20 16.4V16.3L4.4 7.80005L4 7.90005Z" fill="url(#paint25_linear)"/>
<path opacity="0.3" d="M4 10.6L14.3 13.2L4.4 7.80005L4 7.90005V10.6Z" fill="url(#paint26_linear)"/>
<path opacity="0.3" d="M10.3 19.9999L13 14.8999L6.5 19.9999H10.3Z" fill="url(#paint27_linear)"/>
<path opacity="0.3" d="M4 13.5999L4.3 12.3999L4 12.4999V13.5999Z" fill="#F7941D"/>
<path opacity="0.3" d="M4 12.5L4.3 12.4L4 13.6V20H6.5L13 14.9L4 11.2V12.5Z" fill="url(#paint28_linear)"/>
<path opacity="0.3" d="M10.3 19.9999H17.7L20 16.5999V16.3999L13 14.8999L10.3 19.9999Z" fill="url(#paint29_linear)"/>
<g opacity="0.3">
<path opacity="0.3" d="M19 9.9L20 9.3V4H14.2L19 9.9Z" fill="url(#paint30_linear)"/>
</g>
</g>
<path d="M20 4H4V20H20V4Z" fill="url(#paint31_linear)"/>
<path d="M11.9742 16.9805H5.98706V17.9869H11.9742V16.9805Z" fill="white"/>
<path d="M11.2 11.0999L12 10.1999C12.5 10.5999 13.1 10.8999 13.8 10.8999C14.3 10.8999 14.7 10.6999 14.7 10.2999C14.7 9.9999 14.5 9.7999 13.5 9.4999C12.3 9.1999 11.5 8.8999 11.5 7.6999C11.5 6.5999 12.4 5.8999 13.6 5.8999C14.5 5.8999 15.2 6.1999 15.8 6.6999L15.1 7.6999C14.6 7.2999 14 7.0999 13.5 7.0999C13 7.0999 12.8 7.2999 12.8 7.5999C12.8 7.9999 13 8.0999 14.1 8.3999C15.3 8.6999 16 9.1999 16 10.1999C16 11.3999 15.1 12.0999 13.8 12.0999C12.9 12.0999 11.9 11.7999 11.2 11.0999Z" fill="white"/>
<path d="M6 6H8.4C9.8 6 10.7 6.8 10.7 8.1C10.7 9.5 9.6 10.2 8.3 10.2H7.3V12H6V6ZM8.4 9C9.1 9 9.4 8.6 9.4 8.1C9.4 7.5 9 7.2 8.3 7.2H7.3V9H8.4Z" fill="white"/>
<defs>
<linearGradient id="paint0_linear" x1="4.42505" y1="13.8385" x2="11.2019" y2="0.823849" gradientUnits="userSpaceOnUse">
<stop  offset="0" stop-color="#AF1DF5"/>
<stop offset="0.2116" stop-color="#BC20E4"/>
<stop offset="0.6282" stop-color="#DD29B8"/>
<stop offset="1" stop-color="#FF318C"/>
</linearGradient>
<linearGradient id="paint1_linear" x1="2.4472" y1="17.795" x2="10.6617" y2="6.9445" gradientUnits="userSpaceOnUse">
<stop offset="0.1207" stop-color="#6B57FF"/>
<stop offset="0.4014" stop-color="#B74AF7"/>
<stop offset="0.7088" stop-color="#FF318C"/>
<stop offset="0.8648" stop-color="#FF7FB8"/>
</linearGradient>
<linearGradient id="paint2_linear" x1="3.64345" y1="21.1976" x2="9.94695" y2="16.8337" gradientUnits="userSpaceOnUse">
<stop offset="0.0892486" stop-color="#6B57FF"/>
<stop offset="0.4021" stop-color="#8253FD"/>
<stop offset="0.4579" stop-color="#8A52FC"/>
<stop offset="0.7051" stop-color="#AB4CF8"/>
<stop offset="0.8412" stop-color="#B74AF7"/>
</linearGradient>
<linearGradient id="paint3_linear" x1="20.1156" y1="17.2452" x2="14.8511" y2="4.7506" gradientUnits="userSpaceOnUse">
<stop  offset="0" stop-color="#4335BE"/>
<stop offset="0.1308" stop-color="#5638C7"/>
<stop offset="0.5322" stop-color="#8A42E1"/>
<stop offset="0.8343" stop-color="#AB48F1"/>
<stop offset="1" stop-color="#B74AF7"/>
</linearGradient>
<linearGradient id="paint4_linear" x1="20.0179" y1="17.1879" x2="15.335" y2="6.07385" gradientUnits="userSpaceOnUse">
<stop  offset="0" stop-color="#4335BE"/>
<stop offset="0.2419" stop-color="#663BCF"/>
<stop offset="0.7408" stop-color="#B74AF7"/>
</linearGradient>
<linearGradient id="paint5_linear" x1="17.335" y1="21.2664" x2="9.76755" y2="10.1744" gradientUnits="userSpaceOnUse">
<stop offset="0.016129" stop-color="#6B57FF"/>
<stop offset="0.7829" stop-color="#B74AF7"/>
</linearGradient>
<linearGradient id="paint6_linear" x1="19.6804" y1="20.1956" x2="14.2034" y2="12.1677" gradientUnits="userSpaceOnUse">
<stop offset="0.016129" stop-color="#6B57FF"/>
<stop offset="0.7829" stop-color="#B74AF7"/>
</linearGradient>
<linearGradient id="paint7_linear" x1="27.7244" y1="18.2906" x2="10.6245" y2="10.2871" gradientUnits="userSpaceOnUse">
<stop  offset="0" stop-color="#4335BE"/>
<stop offset="0.2419" stop-color="#663BCF"/>
<stop offset="0.7408" stop-color="#B74AF7"/>
</linearGradient>
<linearGradient id="paint8_linear" x1="18.1909" y1="21.07" x2="10.766" y2="6.8951" gradientUnits="userSpaceOnUse">
<stop offset="0.016129" stop-color="#6B57FF"/>
<stop offset="0.7829" stop-color="#B74AF7"/>
</linearGradient>
<linearGradient id="paint9_linear" x1="14.5128" y1="22.5082" x2="7.20755" y2="11.8005" gradientUnits="userSpaceOnUse">
<stop offset="0.016129" stop-color="#6B57FF"/>
<stop offset="0.6909" stop-color="#B74AF7"/>
</linearGradient>
<linearGradient id="paint10_linear" x1="8.47885" y1="17.0049" x2="12.101" y2="10.0486" gradientUnits="userSpaceOnUse">
<stop offset="0.016129" stop-color="#6B57FF"/>
<stop offset="0.6969" stop-color="#A329F5"/>
</linearGradient>
<linearGradient id="paint11_linear" x1="10.3807" y1="9.54195" x2="14.3102" y2="17.2562" gradientUnits="userSpaceOnUse">
<stop offset="0.016129" stop-color="#6B57FF"/>
<stop offset="0.6969" stop-color="#A329F5"/>
</linearGradient>
<linearGradient id="paint12_linear" x1="5.71915" y1="21.5219" x2="12.0348" y2="10.2831" gradientUnits="userSpaceOnUse">
<stop offset="0.0242547" stop-color="#6B57FF"/>
<stop offset="0.263" stop-color="#6B57FF"/>
<stop offset="0.706" stop-color="#B74AF7"/>
<stop offset="0.7659" stop-color="#BC48F0"/>
<stop offset="0.8555" stop-color="#CA44DB"/>
<stop offset="0.9632" stop-color="#E03CBA"/>
<stop offset="1" stop-color="#E939AD"/>
</linearGradient>
<linearGradient id="paint13_linear" x1="10.1124" y1="20.5756" x2="13.1816" y2="15.1138" gradientUnits="userSpaceOnUse">
<stop offset="0.0455723" stop-color="#6B57FF"/>
<stop offset="0.295" stop-color="#8A52FC"/>
<stop offset="0.5991" stop-color="#AB4CF8"/>
<stop offset="0.7667" stop-color="#B74AF7"/>
</linearGradient>
<linearGradient id="paint14_linear" x1="15.0414" y1="15.3125" x2="12.5343" y2="2.0536" gradientUnits="userSpaceOnUse">
<stop offset="0.016129" stop-color="#6B57FF"/>
<stop offset="0.5665" stop-color="#B74AF7"/>
<stop offset="0.9064" stop-color="#C276FF"/>
</linearGradient>
<linearGradient id="paint15_linear" x1="9.20365" y1="12.2951" x2="13.9538" y2="3.1727" gradientUnits="userSpaceOnUse">
<stop offset="0.016129" stop-color="#6B57FF"/>
<stop offset="0.5974" stop-color="#B74AF7"/>
</linearGradient>
<linearGradient id="paint16_linear" x1="2.7306" y1="9.5561" x2="7.2323" y2="1.3864" gradientUnits="userSpaceOnUse">
<stop offset="0.0874352" stop-color="#AF1DF5"/>
<stop offset="0.2329" stop-color="#BC20E4"/>
<stop offset="0.5194" stop-color="#DD29B8"/>
<stop offset="0.7751" stop-color="#FF318C"/>
<stop offset="0.997" stop-color="#FF64B9"/>
</linearGradient>
<linearGradient id="paint17_linear" x1="2.0356" y1="8.1844" x2="4.8114" y2="3.1469" gradientUnits="userSpaceOnUse">
<stop offset="0.00935173" stop-color="#BC20E4"/>
<stop offset="0.4441" stop-color="#D827C0"/>
<stop offset="1" stop-color="#FF318C"/>
</linearGradient>
<linearGradient id="paint18_linear" x1="8.37332" y1="22.8032" x2="14.9535" y2="20.7038" gradientUnits="userSpaceOnUse">
<stop offset="0.016129" stop-color="#6B57FF"/>
<stop offset="0.6909" stop-color="#B74AF7"/>
<stop offset="0.9772" stop-color="#BD6CF7"/>
</linearGradient>
<linearGradient id="paint19_linear" x1="21.4666" y1="12.2628" x2="18.9112" y2="13.203" gradientUnits="userSpaceOnUse">
<stop offset="0.0753552" stop-color="#6B57FF"/>
<stop offset="0.7396" stop-color="#B74AF7"/>
</linearGradient>
<linearGradient id="paint20_linear" x1="17.1126" y1="8.83935" x2="17.426" y2="6.59735" gradientUnits="userSpaceOnUse">
<stop  offset="0" stop-color="#B74AF7"/>
<stop offset="1" stop-color="#C276FF"/>
</linearGradient>
<linearGradient id="paint21_linear" x1="18.1449" y1="19.1452" x2="13.8831" y2="11.0089" gradientUnits="userSpaceOnUse">
<stop offset="0.016129" stop-color="#6B57FF"/>
<stop offset="0.7829" stop-color="#B74AF7"/>
</linearGradient>
<linearGradient id="paint22_linear" x1="3.7531" y1="5.2766" x2="20.1319" y2="18.6296" gradientUnits="userSpaceOnUse">
<stop  offset="0" stop-color="#521713"/>
<stop offset="0.080028" stop-color="#451310"/>
<stop offset="0.2989" stop-color="#270B09"/>
<stop offset="0.514" stop-color="#110504"/>
<stop offset="0.7218" stop-color="#040101"/>
<stop offset="0.9138"/>
</linearGradient>
<linearGradient id="paint23_linear" x1="4" y1="10.19" x2="20" y2="10.19" gradientUnits="userSpaceOnUse">
<stop offset="0.2464" stop-color="#FE2857"/>
<stop offset="0.292" stop-color="#FE265F"/>
<stop offset="0.3641" stop-color="#FE1F76"/>
<stop offset="0.4534" stop-color="#FF159B"/>
<stop offset="0.4574" stop-color="#FF149D"/>
<stop offset="0.536" stop-color="#EF1AB2"/>
<stop offset="0.6983" stop-color="#C82BE9"/>
<stop offset="0.7574" stop-color="#B831FF"/>
<stop offset="0.811" stop-color="#A33AFE"/>
<stop offset="0.9215" stop-color="#6C52FD"/>
<stop offset="1" stop-color="#4164FC"/>
</linearGradient>
<linearGradient id="paint24_linear" x1="4.32735" y1="10.1718" x2="20" y2="10.1718" gradientUnits="userSpaceOnUse">
<stop offset="0.1118" stop-color="#F7941D"/>
<stop offset="0.1374" stop-color="#F88C25"/>
<stop offset="0.178" stop-color="#F9753A"/>
<stop offset="0.2284" stop-color="#FB505D"/>
<stop offset="0.2863" stop-color="#FF1C8C"/>
<stop offset="0.2928" stop-color="#FF1692"/>
<stop offset="0.4031" stop-color="#EA1A93"/>
<stop offset="0.4677" stop-color="#DB1D93"/>
<stop offset="0.5543" stop-color="#9F2895"/>
<stop offset="0.7229" stop-color="#21409A"/>
<stop offset="0.8671" stop-color="#222F5C"/>
<stop offset="1" stop-color="#231F20"/>
</linearGradient>
<linearGradient id="paint25_linear" x1="4" y1="12.0955" x2="20" y2="12.0955" gradientUnits="userSpaceOnUse">
<stop offset="0.0878508" stop-color="#FE2857"/>
<stop offset="0.1283" stop-color="#FE265F"/>
<stop offset="0.1923" stop-color="#FE1F76"/>
<stop offset="0.2716" stop-color="#FF159B"/>
<stop offset="0.2751" stop-color="#FF149D"/>
<stop offset="0.4167" stop-color="#B21871"/>
<stop offset="0.5427" stop-color="#741B4E"/>
<stop offset="0.6489" stop-color="#481D35"/>
<stop offset="0.731" stop-color="#2D1E26"/>
<stop offset="0.7791" stop-color="#231F20"/>
</linearGradient>
<linearGradient id="paint26_linear" x1="5.5488" y1="9.89575" x2="11.8145" y2="13.3809" gradientUnits="userSpaceOnUse">
<stop offset="0.00629908" stop-color="#FF45ED"/>
<stop offset="0.1766" stop-color="#FF35D8"/>
<stop offset="0.3352" stop-color="#FF24C0"/>
<stop offset="0.451" stop-color="#EA24B0"/>
<stop offset="0.6916" stop-color="#B22388"/>
<stop offset="1" stop-color="#63214F"/>
</linearGradient>
<linearGradient id="paint27_linear" x1="6.5134" y1="17.4396" x2="13.0321" y2="17.4396" gradientUnits="userSpaceOnUse">
<stop offset="0.4574" stop-color="#FF149D"/>
<stop offset="0.536" stop-color="#EF1AB2"/>
<stop offset="0.6983" stop-color="#C82BE9"/>
<stop offset="0.7574" stop-color="#B831FF"/>
<stop offset="0.8388" stop-color="#A33AFE"/>
<stop offset="1" stop-color="#6E51FD"/>
</linearGradient>
<linearGradient id="paint28_linear" x1="4" y1="15.6219" x2="13.0321" y2="15.6219" gradientUnits="userSpaceOnUse">
<stop offset="0.00442798" stop-color="#FFDE17"/>
<stop offset="0.0386836" stop-color="#FECB12"/>
<stop offset="0.0790912" stop-color="#FDBB0E"/>
<stop offset="0.1111" stop-color="#FDB60D"/>
<stop offset="0.1673" stop-color="#FDAE0F"/>
<stop offset="0.2521" stop-color="#FC9A15"/>
<stop offset="0.3323" stop-color="#FC801D"/>
<stop offset="0.7374" stop-color="#BE1E2D"/>
</linearGradient>
<linearGradient id="paint29_linear" x1="10.3033" y1="17.4396" x2="20" y2="17.4396" gradientUnits="userSpaceOnUse">
<stop  offset="0" stop-color="#087CFA"/>
<stop offset="0.7942" stop-color="#231F20"/>
</linearGradient>
<linearGradient id="paint30_linear" x1="26.5288" y1="19.2317" x2="16.3332" y2="2.7214" gradientUnits="userSpaceOnUse">
<stop offset="0.3486" stop-color="#3595F3"/>
<stop offset="0.4019" stop-color="#3490EB"/>
<stop offset="0.4865" stop-color="#3284D4"/>
<stop offset="0.5918" stop-color="#2F6FAE"/>
<stop offset="0.7135" stop-color="#2B527B"/>
<stop offset="0.8476" stop-color="#252D39"/>
<stop offset="0.8951" stop-color="#231F20"/>
</linearGradient>
<linearGradient id="paint31_linear" x1="4.42336" y1="3.66316" x2="18.1493" y2="18.7663" gradientUnits="userSpaceOnUse">
<stop  offset="0" stop-color="#562274"/>
<stop offset="0.59375" stop-color="#020202"/>
</linearGradient>
</defs>
</svg>
