<svg width="80" height="80" viewBox="0 0 80 80" fill="none" xmlns="http://www.w3.org/2000/svg">
<path d="M46 14.1L41.5 6L29.1 12L12.7 13.4L15 41.6L38.2 37.7L46 14.1Z" fill="url(#paint0_linear)"/>
<path d="M22.1 21.1999L0 15.3999L7.6 61.1999L46.3 63.5999L22.1 21.1999Z" fill="url(#paint1_linear)"/>
<path d="M32.8001 39.8L7.6001 61.2001L46.3001 63.6L32.8001 39.8Z" fill="url(#paint2_linear)"/>
<path d="M46.2999 63.3L42.8999 24.5L53.1999 15.2L69.5999 8.5L79.9999 34.4L46.2999 63.3Z" fill="url(#paint3_linear)"/>
<path d="M46.2999 63.3L42.8999 24.5L58.4999 29.9L79.9999 34.4L46.2999 63.3Z" fill="url(#paint4_linear)"/>
<path d="M65 33.9999L59.8 23.3999L19 31.5999L23.2 70.5999L50.1 79.9999L80 62.0999L65 33.9999Z" fill="url(#paint5_linear)"/>
<path d="M64.9999 34.0001L59.8999 23.6001L43.8999 35.9001L50.0999 80.0001L79.9999 62.1001L64.9999 34.0001Z" fill="url(#paint6_linear)"/>
<path d="M43.8999 35.9001L43.9999 36.5001L47.5999 62.1001L69.7999 43.1001L64.9999 34.0001L59.8999 23.6001L43.8999 35.9001Z" fill="url(#paint7_linear)"/>
<path d="M24.5 30.5L46.3 63.6L64.3 48L51.8 25L24.5 30.5Z" fill="url(#paint8_linear)"/>
<path d="M43.9 35.9001L19 31.6001L23.2 70.6001L50.1 80.0001L43.9 35.9001Z" fill="url(#paint9_linear)"/>
<path d="M47.6 62.4001L43.9 35.9001L19 31.6001L20.5 45.4001L46.3 63.6001L47.6 62.4001Z" fill="url(#paint10_linear)"/>
<path d="M47.5999 62.4L44.5999 41L36.8999 46.8L46.1999 63.5L46.2999 63.6L47.5999 62.4Z" fill="url(#paint11_linear)"/>
<path d="M29.2 33.4001L19 31.6001L22.3 62.1001L46.3 63.6001L29.2 33.4001Z" fill="url(#paint12_linear)"/>
<path d="M34.6001 62.9L46.3001 63.5999L36.5001 46.2L34.6001 62.9Z" fill="url(#paint13_linear)"/>
<path d="M43.9 35.9L19 31.6L49.4 4.69995L69.6 8.49995L55.9 22.2999L60 23.6L43.9 35.9Z" fill="url(#paint14_linear)"/>
<path d="M46 14.1L43.6 9.80005L19 31.6L43.9 35.9001L53.9 28.2001L46 14.1Z" fill="url(#paint15_linear)"/>
<path d="M41.5 6L13.6 0L0 15.4L22.1 21.3L41.5 6Z" fill="url(#paint16_linear)"/>
<path d="M24.4 19.4L13.6 0L0 15.4L22.1 21.3L24.4 19.4Z" fill="url(#paint17_linear)"/>
<path d="M34.4 62.8999L23.2 70.5999L50.0999 79.9999L47.5999 62.3999L46.4 63.5999L34.4 62.8999Z" fill="url(#paint18_linear)"/>
<path d="M79.9999 62.1L64.1999 47.8L55.8999 22.3L59.9999 23.6L79.9999 62.1Z" fill="url(#paint19_linear)"/>
<path d="M57.0999 25.8L59.9999 23.6L55.8999 22.3L57.0999 25.8Z" fill="url(#paint20_linear)"/>
<path d="M55.9001 32.6001L44.6001 41.0001L47.6001 62.4001L64.3001 48.0001L55.9001 32.6001Z" fill="url(#paint21_linear)"/>
<path d="M65 15H15V65H65V15Z" fill="url(#paint22_linear)"/>
<g opacity="0.3">
<path opacity="0.3" d="M15 61.6999L46.3 63.5999L22.1 21.1999L15 19.3999V61.6999Z" fill="url(#paint23_linear)"/>
<path opacity="0.3" d="M47.3001 65H48.8001L47.7001 18.9L46.3001 15H30.1001L22.1001 21.3L47.3001 65Z" fill="url(#paint24_linear)"/>
<path opacity="0.3" d="M64.9999 47.2V15H63.0999L55.8999 22.3L59.9999 23.6H59.8999L64.9999 34V47.2Z" fill="url(#paint25_linear)"/>
<path opacity="0.3" d="M64.9999 34.0001L59.8999 23.6001L43.8999 35.9001L47.9999 65.0001H64.9999V34.0001Z" fill="url(#paint26_linear)"/>
<path opacity="0.3" d="M37.8 15L19 31.6L43.9 35.9L60 23.6L55.9 22.3L63.1 15H37.8Z" fill="url(#paint27_linear)"/>
<path opacity="0.3" d="M22.1 21.3L30.1 15H15V19.4L22.1 21.3Z" fill="url(#paint28_linear)"/>
</g>
<path d="M39.9 55.5999H21.2V58.6999H39.9V55.5999Z" fill="white"/>
<path d="M37.6001 37.2999L40.0001 34.3999C41.7001 35.7999 43.5001 36.6999 45.6001 36.6999C47.3001 36.6999 48.3001 35.9999 48.3001 34.8999V34.7999C48.3001 33.7999 47.7001 33.1999 44.5001 32.3999C40.7001 31.3999 38.3001 30.3999 38.3001 26.6999V26.5999C38.3001 23.1999 41.0001 20.8999 44.9001 20.8999C47.6001 20.8999 50.0001 21.7999 51.9001 23.2999L49.7001 26.3999C48.0001 25.1999 46.4001 24.4999 44.8001 24.4999C43.2001 24.4999 42.4001 25.1999 42.4001 26.0999V26.1999C42.4001 27.3999 43.2001 27.7999 46.5001 28.6999C50.3001 29.6999 52.5001 31.0999 52.5001 34.2999V34.3999C52.5001 38.0999 49.7001 40.1999 45.6001 40.1999C42.7001 40.2999 39.8001 39.2999 37.6001 37.2999Z" fill="white"/>
<path d="M21.3 21.2998H29C33.5 21.2998 36.2 23.8998 36.2 27.7998V27.8998C36.2 32.1998 32.8 34.4998 28.6 34.4998H25.5V39.9998H21.3V21.2998ZM28.7 30.6998C30.8 30.6998 32 29.4998 32 27.8998V27.7998C32 25.9998 30.7 24.9998 28.7 24.9998H25.5V30.6998H28.7Z" fill="white"/>
<defs>
<linearGradient id="paint0_linear" x1="14.7499" y1="46.1282" x2="37.3395" y2="2.7459" gradientUnits="userSpaceOnUse">
<stop stop-color="#AF1DF5"/>
<stop offset="0.2116" stop-color="#BC20E4"/>
<stop offset="0.6282" stop-color="#DD29B8"/>
<stop offset="1" stop-color="#FF318C"/>
</linearGradient>
<linearGradient id="paint1_linear" x1="8.1574" y1="59.3163" x2="35.539" y2="23.1481" gradientUnits="userSpaceOnUse">
<stop offset="0.1207" stop-color="#6B57FF"/>
<stop offset="0.4014" stop-color="#B74AF7"/>
<stop offset="0.7088" stop-color="#FF318C"/>
<stop offset="0.8648" stop-color="#FF7FB8"/>
</linearGradient>
<linearGradient id="paint2_linear" x1="12.1446" y1="70.6584" x2="33.1563" y2="56.1119" gradientUnits="userSpaceOnUse">
<stop offset="0.0892486" stop-color="#6B57FF"/>
<stop offset="0.4021" stop-color="#8253FD"/>
<stop offset="0.4579" stop-color="#8A52FC"/>
<stop offset="0.7051" stop-color="#AB4CF8"/>
<stop offset="0.8412" stop-color="#B74AF7"/>
</linearGradient>
<linearGradient id="paint3_linear" x1="67.052" y1="57.484" x2="49.5034" y2="15.8354" gradientUnits="userSpaceOnUse">
<stop stop-color="#4335BE"/>
<stop offset="0.1308" stop-color="#5638C7"/>
<stop offset="0.5322" stop-color="#8A42E1"/>
<stop offset="0.8343" stop-color="#AB48F1"/>
<stop offset="1" stop-color="#B74AF7"/>
</linearGradient>
<linearGradient id="paint4_linear" x1="66.7264" y1="57.2928" x2="51.1167" y2="20.2458" gradientUnits="userSpaceOnUse">
<stop stop-color="#4335BE"/>
<stop offset="0.2419" stop-color="#663BCF"/>
<stop offset="0.7408" stop-color="#B74AF7"/>
</linearGradient>
<linearGradient id="paint5_linear" x1="57.7835" y1="70.8878" x2="32.5588" y2="33.9146" gradientUnits="userSpaceOnUse">
<stop offset="0.016129" stop-color="#6B57FF"/>
<stop offset="0.7829" stop-color="#B74AF7"/>
</linearGradient>
<linearGradient id="paint6_linear" x1="65.6012" y1="67.3184" x2="47.3446" y2="40.5588" gradientUnits="userSpaceOnUse">
<stop offset="0.016129" stop-color="#6B57FF"/>
<stop offset="0.7829" stop-color="#B74AF7"/>
</linearGradient>
<linearGradient id="paint7_linear" x1="92.4147" y1="60.9686" x2="35.4149" y2="34.2901" gradientUnits="userSpaceOnUse">
<stop stop-color="#4335BE"/>
<stop offset="0.2419" stop-color="#663BCF"/>
<stop offset="0.7408" stop-color="#B74AF7"/>
</linearGradient>
<linearGradient id="paint8_linear" x1="60.6365" y1="70.2334" x2="35.8865" y2="22.9835" gradientUnits="userSpaceOnUse">
<stop offset="0.016129" stop-color="#6B57FF"/>
<stop offset="0.7829" stop-color="#B74AF7"/>
</linearGradient>
<linearGradient id="paint9_linear" x1="48.3759" y1="75.0273" x2="24.0253" y2="39.3352" gradientUnits="userSpaceOnUse">
<stop offset="0.016129" stop-color="#6B57FF"/>
<stop offset="0.6909" stop-color="#B74AF7"/>
</linearGradient>
<linearGradient id="paint10_linear" x1="28.2629" y1="56.683" x2="40.3368" y2="33.4956" gradientUnits="userSpaceOnUse">
<stop offset="0.016129" stop-color="#6B57FF"/>
<stop offset="0.6969" stop-color="#A329F5"/>
</linearGradient>
<linearGradient id="paint11_linear" x1="34.6024" y1="31.8064" x2="47.7005" y2="57.5207" gradientUnits="userSpaceOnUse">
<stop offset="0.016129" stop-color="#6B57FF"/>
<stop offset="0.6969" stop-color="#A329F5"/>
</linearGradient>
<linearGradient id="paint12_linear" x1="19.0641" y1="71.7397" x2="40.1161" y2="34.2771" gradientUnits="userSpaceOnUse">
<stop offset="0.0242547" stop-color="#6B57FF"/>
<stop offset="0.263" stop-color="#6B57FF"/>
<stop offset="0.706" stop-color="#B74AF7"/>
<stop offset="0.7659" stop-color="#BC48F0"/>
<stop offset="0.8555" stop-color="#CA44DB"/>
<stop offset="0.9632" stop-color="#E03CBA"/>
<stop offset="1" stop-color="#E939AD"/>
</linearGradient>
<linearGradient id="paint13_linear" x1="33.708" y1="68.585" x2="43.9388" y2="50.379" gradientUnits="userSpaceOnUse">
<stop offset="0.0455723" stop-color="#6B57FF"/>
<stop offset="0.295" stop-color="#8A52FC"/>
<stop offset="0.5991" stop-color="#AB4CF8"/>
<stop offset="0.7667" stop-color="#B74AF7"/>
</linearGradient>
<linearGradient id="paint14_linear" x1="50.1381" y1="51.0419" x2="41.781" y2="6.84555" gradientUnits="userSpaceOnUse">
<stop offset="0.016129" stop-color="#6B57FF"/>
<stop offset="0.5665" stop-color="#B74AF7"/>
<stop offset="0.9064" stop-color="#C276FF"/>
</linearGradient>
<linearGradient id="paint15_linear" x1="30.6789" y1="40.9838" x2="46.5127" y2="10.5758" gradientUnits="userSpaceOnUse">
<stop offset="0.016129" stop-color="#6B57FF"/>
<stop offset="0.5974" stop-color="#B74AF7"/>
</linearGradient>
<linearGradient id="paint16_linear" x1="9.102" y1="31.8536" x2="24.1075" y2="4.6214" gradientUnits="userSpaceOnUse">
<stop offset="0.0874352" stop-color="#AF1DF5"/>
<stop offset="0.2329" stop-color="#BC20E4"/>
<stop offset="0.5194" stop-color="#DD29B8"/>
<stop offset="0.7751" stop-color="#FF318C"/>
<stop offset="0.997" stop-color="#FF64B9"/>
</linearGradient>
<linearGradient id="paint17_linear" x1="6.7854" y1="27.2814" x2="16.0381" y2="10.4895" gradientUnits="userSpaceOnUse">
<stop offset="0.00935173" stop-color="#BC20E4"/>
<stop offset="0.4441" stop-color="#D827C0"/>
<stop offset="1" stop-color="#FF318C"/>
</linearGradient>
<linearGradient id="paint18_linear" x1="27.9109" y1="76.0107" x2="49.8449" y2="69.0127" gradientUnits="userSpaceOnUse">
<stop offset="0.016129" stop-color="#6B57FF"/>
<stop offset="0.6909" stop-color="#B74AF7"/>
<stop offset="0.9772" stop-color="#BD6CF7"/>
</linearGradient>
<linearGradient id="paint19_linear" x1="71.5551" y1="40.8761" x2="63.0372" y2="44.01" gradientUnits="userSpaceOnUse">
<stop offset="0.0753552" stop-color="#6B57FF"/>
<stop offset="0.7396" stop-color="#B74AF7"/>
</linearGradient>
<linearGradient id="paint20_linear" x1="57.0418" y1="29.4646" x2="58.0864" y2="21.9914" gradientUnits="userSpaceOnUse">
<stop stop-color="#B74AF7"/>
<stop offset="1" stop-color="#C276FF"/>
</linearGradient>
<linearGradient id="paint21_linear" x1="60.4832" y1="63.8173" x2="46.277" y2="36.6965" gradientUnits="userSpaceOnUse">
<stop offset="0.016129" stop-color="#6B57FF"/>
<stop offset="0.7829" stop-color="#B74AF7"/>
</linearGradient>
<linearGradient id="paint22_linear" x1="16.323" y1="13.9474" x2="59.2167" y2="61.1447" gradientUnits="userSpaceOnUse">
<stop stop-color="#562274"/>
<stop offset="0.59375" stop-color="#020202"/>
</linearGradient>
<linearGradient id="paint23_linear" x1="31.292" y1="70.2817" x2="26.7352" y2="15.7234" gradientUnits="userSpaceOnUse">
<stop offset="0.1391" stop-color="#2C083E"/>
<stop offset="0.1711" stop-color="#0E0A25"/>
<stop offset="0.5145" stop-color="#8D1BC7"/>
<stop offset="0.8648" stop-color="#FF45ED"/>
</linearGradient>
<linearGradient id="paint24_linear" x1="44.0733" y1="60.0499" x2="34.1104" y2="16.6498" gradientUnits="userSpaceOnUse">
<stop offset="0.0862819" stop-color="#3B0B6E"/>
<stop offset="0.2814" stop-color="#601274"/>
<stop offset="0.7133" stop-color="#BE2482"/>
<stop offset="1" stop-color="#FF318C"/>
</linearGradient>
<linearGradient id="paint25_linear" x1="59.4687" y1="15.6186" x2="64.0766" y2="29.4422" gradientUnits="userSpaceOnUse">
<stop offset="0.1893" stop-color="#4335BE"/>
<stop offset="0.5166" stop-color="#2B227A"/>
<stop offset="0.8443" stop-color="#15113C"/>
<stop offset="1" stop-color="#0C0A23"/>
</linearGradient>
<linearGradient id="paint26_linear" x1="65.2506" y1="60.8577" x2="49.5637" y2="37.8645" gradientUnits="userSpaceOnUse">
<stop stop-color="#15132A"/>
<stop offset="0.4052" stop-color="#331444"/>
<stop offset="0.9653" stop-color="#9F40D7"/>
</linearGradient>
<linearGradient id="paint27_linear" x1="45.6414" y1="47.539" x2="39.5174" y2="15.1524" gradientUnits="userSpaceOnUse">
<stop offset="0.016129" stop-color="#6B57FF"/>
<stop offset="0.5665" stop-color="#B74AF7"/>
<stop offset="0.9064" stop-color="#C276FF"/>
</linearGradient>
<linearGradient id="paint28_linear" x1="17.0185" y1="25.0416" x2="22.9419" y2="14.2917" gradientUnits="userSpaceOnUse">
<stop offset="0.0874352" stop-color="#FF45ED"/>
<stop offset="0.2127" stop-color="#FF42DC"/>
<stop offset="0.4594" stop-color="#FF38B0"/>
<stop offset="0.6408" stop-color="#FF318C"/>
</linearGradient>
</defs>
</svg>
