<svg width="32" height="32" viewBox="0 0 32 32" fill="none" xmlns="http://www.w3.org/2000/svg" data-scaled="true">
<path d="M32 29V12.9796C32 12.165 31.5145 11.4287 30.766 11.1079L12.0207 3.07383C11.7673 2.96533 11.4941 2.90918 11.2183 2.90918H2.03636C0.911709 2.90918 0 3.82089 0 4.94554V13.9285C0 14.3309 0.119273 14.7242 0.342691 15.059L11.0444 31.0933C11.422 31.6594 12.0576 31.9992 12.738 31.9992L29 32.0001C30.1247 32.0001 32 30.1247 32 29Z" fill="url(#paint0_linear_4407_11113)"/>
<path d="M29.0909 7.25964V2.03636C29.0909 0.911709 28.1792 0 27.0545 0H20.5082C20.4119 0 20.3156 0.00698182 20.2202 0.0203636L1.74836 2.6592C0.745018 2.80233 0 3.66167 0 4.67491V12.5114C0 13.6364 0.912 14.5481 2.03695 14.5478L11.3062 14.5455C11.5249 14.5455 11.7423 14.5103 11.9497 14.441L27.6986 9.19127C28.53 8.91404 29.0909 8.13585 29.0909 7.25934V7.25964Z" fill="url(#paint1_linear_4407_11113)"/>
<path d="M29.0907 7.97382L29.0898 2.03607C29.0898 0.911709 28.1781 0 27.0535 0H21.3002C20.7058 0 20.1409 0.259782 19.754 0.710982L3.39936 19.7917C3.08314 20.1609 2.90918 20.631 2.90918 21.1171V27.0548C2.90918 28.1795 3.82089 29.0912 4.94554 29.0912H10.6997C11.2941 29.0912 11.859 28.8314 12.2459 28.3802L28.6005 9.29949C28.917 8.93033 29.0907 8.46022 29.0907 7.97382Z" fill="#00D980"/>
<path d="M26 6H6V26H26V6Z" fill="black"/>
<path d="M12.0513 16.6668C11.3246 16.6668 10.6664 16.4965 10.0768 16.1568C9.48747 15.8131 9.02456 15.3432 8.68806 14.7466C8.35184 14.1466 8.18359 13.4773 8.18359 12.7395C8.18359 12.0017 8.35184 11.3345 8.68806 10.7379C9.02427 10.1379 9.48718 9.66741 10.0768 9.32771C10.6661 8.98395 11.3243 8.8125 12.0513 8.8125C12.6659 8.8125 13.2303 8.92641 13.7437 9.15423C14.2572 9.38205 14.6838 9.70199 15.0238 10.1143C15.3672 10.5232 15.5968 10.9931 15.7128 11.5246H14.1613C14.0599 11.25 13.9082 11.0094 13.7057 10.803C13.5066 10.5935 13.2663 10.4322 12.9841 10.3204C12.702 10.2085 12.3945 10.1521 12.0621 10.1521C11.6137 10.1521 11.2086 10.264 10.8471 10.4883C10.4856 10.7127 10.2017 11.0218 9.99542 11.4159C9.79288 11.8064 9.69175 12.2478 9.69175 12.7395C9.69175 13.2312 9.79288 13.6746 9.99542 14.0684C10.2014 14.4589 10.4853 14.7661 10.8471 14.9904C11.2086 15.2148 11.6137 15.3266 12.0621 15.3266C12.3948 15.3266 12.7023 15.2703 12.9841 15.1584C13.2663 15.0465 13.5066 14.8873 13.7057 14.6809C13.9082 14.4714 14.0599 14.2288 14.1613 13.9542H15.7128C15.5971 14.4857 15.3672 14.9576 15.0238 15.3699C14.6838 15.7788 14.2572 16.0967 13.7437 16.3245C13.2303 16.5523 12.6659 16.6662 12.0513 16.6662V16.6668ZM18.2528 8.94239V15.202H21.8546V16.5364H16.7775V8.94239H18.2528Z" fill="white"/>
<path d="M16 22H9V23H16V22Z" fill="white"/>
<rect y="22" width="32" height="10.0001" rx="2.5" fill="#22D789"/>
<g opacity="0.9">
<path d="M2.0625 29.9629H2.95253V28.2427H3.62873C4.5361 28.2427 5.2643 27.5546 5.2643 26.2276V26.2112C5.2643 25.0398 4.68058 24.2288 3.71542 24.2288H2.0625V29.9629ZM2.95253 27.1204V25.3674H3.64028C4.0853 25.3674 4.36271 25.6705 4.36271 26.2357V26.2521C4.36271 26.7436 4.10264 27.1204 3.65762 27.1204H2.95253Z" fill="#010101"/>
<path d="M5.92298 29.9629H6.81301V28.128H7.51232L8.37924 29.9629H9.41953L8.43125 27.915C8.94562 27.6447 9.29817 27.0631 9.29817 26.1374V26.1211C9.29817 25.5804 9.1768 25.1299 8.9514 24.8104C8.68555 24.4336 8.28677 24.2288 7.7724 24.2288H5.92298V29.9629ZM6.81301 27.014V25.3674H7.69727C8.13072 25.3674 8.39658 25.6459 8.39658 26.1866V26.203C8.39658 26.6863 8.14806 27.014 7.7146 27.014H6.81301Z" fill="#010101"/>
<path d="M10.0995 29.9629H13.18V28.8407H10.9838V27.6365H12.891V26.5143H10.9838V25.351H13.1511V24.2288H10.0995V29.9629Z" fill="#010101"/>
<path d="M15.2601 30.0039H16.0461L17.6817 24.2288H16.7223L15.6647 28.2673L14.607 24.2288H13.6245L15.2601 30.0039Z" fill="#010101"/>
<path d="M18.3463 29.9629H19.2364V24.2288H18.3463V29.9629Z" fill="#010101"/>
<path d="M20.2474 29.9629H23.3278V28.8407H21.1316V27.6365H23.0389V26.5143H21.1316V25.351H23.2989V24.2288H20.2474V29.9629Z" fill="#010101"/>
<path d="M25.1884 30.0039H25.9628L26.8759 26.2521L27.7891 30.0039H28.5635L29.9448 24.2288H29.0143L28.1763 28.1116L27.2689 24.2124H26.5061L25.5987 28.1116L24.7607 24.2288H23.8071L25.1884 30.0039Z" fill="#010101"/>
</g>
<defs>
<linearGradient id="paint0_linear_4407_11113" x1="1.99069" y1="2.11122" x2="31.3434" y2="31.4637" gradientUnits="userSpaceOnUse">
<stop offset="0.29" stop-color="#009AE5"/>
<stop offset="0.7" stop-color="#FF318C"/>
</linearGradient>
<linearGradient id="paint1_linear_4407_11113" x1="28.1894" y1="-0.35869" x2="1.37629" y2="12.0727" gradientUnits="userSpaceOnUse">
<stop offset="0.3" stop-color="#00D980"/>
<stop offset="0.54" stop-color="#009AE5"/>
</linearGradient>
</defs>
</svg>
