<svg width="512" height="512" viewBox="0 0 512 512" fill="none" xmlns="http://www.w3.org/2000/svg">
<g filter="url(#filter0_d_5733_9996)">
<g clip-path="url(#clip0_5733_9996)">
<rect x="50" y="50" width="412" height="412" rx="90" fill="#22272C"/>
<g clip-path="url(#clip1_5733_9996)">
<path d="M226.405 151.199H226.414C293.964 151.199 348.807 206.043 348.807 273.596V273.602C348.807 341.155 293.965 395.999 226.415 395.999H226.406C158.852 395.999 104.007 341.152 104.007 273.596V273.601C104.007 206.045 158.852 151.199 226.405 151.199Z" fill="url(#paint0_linear_5733_9996)"/>
<path d="M236.436 306.476L365.088 306.476C388.788 306.476 408 287.264 408 263.564L408 134.913C408 111.213 388.788 92.0009 365.088 92.0009L236.437 92.0008C212.737 92.0007 193.525 111.213 193.525 134.913L193.524 263.564C193.524 287.264 212.737 306.476 236.436 306.476Z" fill="url(#paint1_linear_5733_9996)"/>
<path d="M193.531 156.351L343.655 156.351L343.655 306.474L193.531 306.474L193.531 156.351Z" fill="black"/>
<path d="M214.971 263.577L298.077 263.577V285.024L214.971 285.024L214.971 263.577Z" fill="white"/>
</g>
</g>
</g>
<path d="M50 334H462V377C462 423.944 423.944 462 377 462H135C88.0558 462 50 423.944 50 377V334Z" fill="#EFEFEF"/>
<path d="M103 374H122.296C125.486 374 128.288 374.576 130.701 375.729C133.135 376.881 135.003 378.515 136.304 380.631C137.626 382.727 138.287 385.147 138.287 387.891C138.287 390.699 137.616 393.161 136.273 395.277C134.951 397.393 133.062 399.038 130.607 400.211C128.151 401.385 125.297 401.971 122.045 401.971H112.758V418H103V374ZM121.541 394.083C122.905 394.083 124.091 393.842 125.098 393.36C126.105 392.857 126.882 392.145 127.427 391.223C127.994 390.301 128.277 389.211 128.277 387.954C128.277 386.718 127.994 385.65 127.427 384.749C126.882 383.848 126.105 383.156 125.098 382.674C124.091 382.171 122.905 381.92 121.541 381.92H112.758V394.083H121.541Z" fill="black"/>
<path d="M161.408 398.64H171.67L183.002 418H172.174L161.408 398.64ZM146.802 374H166.098C169.288 374 172.09 374.576 174.503 375.729C176.937 376.881 178.805 378.515 180.106 380.631C181.428 382.727 182.089 385.147 182.089 387.891C182.089 390.678 181.418 393.14 180.075 395.277C178.753 397.393 176.864 399.038 174.409 400.211C171.953 401.385 169.099 401.971 165.846 401.971H156.56V418H146.802V374ZM165.343 394.083C166.707 394.083 167.892 393.842 168.9 393.36C169.907 392.857 170.684 392.145 171.229 391.223C171.796 390.301 172.079 389.211 172.079 387.954C172.079 386.718 171.796 385.65 171.229 384.749C170.684 383.848 169.907 383.156 168.9 382.674C167.892 382.171 166.707 381.92 165.343 381.92H156.56V394.083H165.343Z" fill="black"/>
<path d="M193.001 374H225.393V382.486H202.508V391.82H223.252V400.054H202.508V409.514H226.022V418H193.001V374Z" fill="black"/>
<path d="M232.441 374H242.703L253.784 405.806L264.171 374H274.496L258.789 418H248.243L232.441 374Z" fill="black"/>
<path d="M282.696 374H292.769V418H282.696V374Z" fill="black"/>
<path d="M304.794 374H337.186V382.486H314.301V391.82H335.045V400.054H314.301V409.514H337.815V418H304.794V374Z" fill="black"/>
<path d="M354.307 374L363.467 406.309L372.407 374H383.173L392.396 406.309L401.147 374H411L398.125 418H386.762L377.696 385.503L368.535 418H357.266L344.297 374H354.307Z" fill="black"/>
<defs>
<filter id="filter0_d_5733_9996" x="37" y="42" width="438" height="438" filterUnits="userSpaceOnUse" color-interpolation-filters="sRGB">
<feFlood flood-opacity="0" result="BackgroundImageFix"/>
<feColorMatrix in="SourceAlpha" type="matrix" values="0 0 0 0 0 0 0 0 0 0 0 0 0 0 0 0 0 0 127 0" result="hardAlpha"/>
<feOffset dy="5"/>
<feGaussianBlur stdDeviation="6.5"/>
<feComposite in2="hardAlpha" operator="out"/>
<feColorMatrix type="matrix" values="0 0 0 0 0 0 0 0 0 0 0 0 0 0 0 0 0 0 0.35 0"/>
<feBlend mode="normal" in2="BackgroundImageFix" result="effect1_dropShadow_5733_9996"/>
<feBlend mode="normal" in="SourceGraphic" in2="effect1_dropShadow_5733_9996" result="shape"/>
</filter>
<linearGradient id="paint0_linear_5733_9996" x1="131.326" y1="407.868" x2="283.36" y2="217.825" gradientUnits="userSpaceOnUse">
<stop  offset="0" stop-color="#3BEA62"/>
<stop offset="0.543588" stop-color="#0894FA"/>
<stop offset="1" stop-color="#764EFF"/>
</linearGradient>
<linearGradient id="paint1_linear_5733_9996" x1="401.821" y1="96.9431" x2="249.825" y2="248.939" gradientUnits="userSpaceOnUse">
<stop  offset="0" stop-color="#3BEA62"/>
<stop offset="0.543588" stop-color="#0894FA"/>
<stop offset="1" stop-color="#764EFF"/>
</linearGradient>
<clipPath id="clip0_5733_9996">
<rect x="50" y="50" width="412" height="412" rx="90" fill="white"/>
</clipPath>
<clipPath id="clip1_5733_9996">
<rect width="304" height="304" fill="white" transform="translate(104 92)"/>
</clipPath>
</defs>
</svg>
