<svg width="256" height="256" viewBox="0 0 256 256" fill="none" xmlns="http://www.w3.org/2000/svg">
<g filter="url(#filter0_d_5733_9997)">
<g clip-path="url(#clip0_5733_9997)">
<rect x="25" y="25" width="206" height="206" rx="45" fill="#22272C"/>
<g clip-path="url(#clip1_5733_9997)">
<path d="M113.203 75.5996H113.207C146.983 75.5996 174.404 103.022 174.404 136.798V136.801C174.404 170.578 146.983 198 113.208 198H113.204C79.4265 198 52.0039 170.576 52.0039 136.798V136.801C52.0039 103.023 79.4263 75.5996 113.203 75.5996Z" fill="url(#paint0_linear_5733_9997)"/>
<path d="M118.218 153.238L182.544 153.238C194.394 153.238 204 143.632 204 131.782L204 67.4562C204 55.6064 194.394 46.0002 182.544 46.0002L118.218 46.0001C106.368 46.0001 96.7623 55.6063 96.7623 67.4561L96.7622 131.782C96.7622 143.632 106.368 153.238 118.218 153.238Z" fill="url(#paint1_linear_5733_9997)"/>
<path d="M96.7657 78.1754L171.828 78.1753L171.827 153.237L96.7656 153.237L96.7657 78.1754Z" fill="black"/>
<path d="M107.485 131.789L149.038 131.789V142.512L107.485 142.512L107.485 131.789Z" fill="white"/>
</g>
</g>
</g>
<path d="M25 167H231V188.5C231 211.972 211.972 231 188.5 231H67.5C44.0279 231 25 211.972 25 188.5V167Z" fill="#EFEFEF"/>
<path d="M51.5 187H61.1482C62.7431 187 64.1439 187.288 65.3505 187.864C66.5677 188.44 67.5016 189.258 68.1521 190.316C68.8132 191.363 69.1437 192.573 69.1437 193.946C69.1437 195.35 68.8079 196.58 68.1364 197.639C67.4753 198.697 66.531 199.519 65.3033 200.106C64.0757 200.692 62.6486 200.986 61.0223 200.986H56.3792V209H51.5V187ZM60.7704 197.041C61.4525 197.041 62.0453 196.921 62.549 196.68C63.0526 196.429 63.4408 196.072 63.7137 195.611C63.997 195.15 64.1386 194.606 64.1386 193.977C64.1386 193.359 63.997 192.825 63.7137 192.374C63.4408 191.924 63.0526 191.578 62.549 191.337C62.0453 191.086 61.4525 190.96 60.7704 190.96H56.3792V197.041H60.7704Z" fill="black"/>
<path d="M80.7039 199.32H85.8349L91.5011 209H86.0868L80.7039 199.32ZM73.4009 187H83.0491C84.644 187 86.0448 187.288 87.2515 187.864C88.4686 188.44 89.4025 189.258 90.0531 190.316C90.7141 191.363 91.0446 192.573 91.0446 193.946C91.0446 195.339 90.7089 196.57 90.0373 197.639C89.3763 198.697 88.4319 199.519 87.2043 200.106C85.9766 200.692 84.5496 200.986 82.9232 200.986H78.2801V209H73.4009V187ZM82.6714 197.041C83.3534 197.041 83.9462 196.921 84.4499 196.68C84.9535 196.429 85.3418 196.072 85.6146 195.611C85.8979 195.15 86.0396 194.606 86.0396 193.977C86.0396 193.359 85.8979 192.825 85.6146 192.374C85.3418 191.924 84.9535 191.578 84.4499 191.337C83.9462 191.086 83.3534 190.96 82.6714 190.96H78.2801V197.041H82.6714Z" fill="black"/>
<path d="M96.5007 187H112.696V191.243H101.254V195.91H111.626V200.027H101.254V204.757H113.011V209H96.5007V187Z" fill="black"/>
<path d="M116.221 187H121.352L126.892 202.903L132.086 187H137.248L129.394 209H124.122L116.221 187Z" fill="black"/>
<path d="M141.348 187H146.384V209H141.348V187Z" fill="black"/>
<path d="M152.397 187H168.593V191.243H157.15V195.91H167.523V200.027H157.15V204.757H168.908V209H152.397V187Z" fill="black"/>
<path d="M177.154 187L181.734 203.154L186.204 187H191.587L196.198 203.154L200.574 187H205.5L199.063 209H193.381L188.848 192.751L184.268 209H178.633L172.149 187H177.154Z" fill="black"/>
<defs>
<filter id="filter0_d_5733_9997" x="18.5" y="21" width="219" height="219" filterUnits="userSpaceOnUse" color-interpolation-filters="sRGB">
<feFlood flood-opacity="0" result="BackgroundImageFix"/>
<feColorMatrix in="SourceAlpha" type="matrix" values="0 0 0 0 0 0 0 0 0 0 0 0 0 0 0 0 0 0 127 0" result="hardAlpha"/>
<feOffset dy="2.5"/>
<feGaussianBlur stdDeviation="3.25"/>
<feComposite in2="hardAlpha" operator="out"/>
<feColorMatrix type="matrix" values="0 0 0 0 0 0 0 0 0 0 0 0 0 0 0 0 0 0 0.35 0"/>
<feBlend mode="normal" in2="BackgroundImageFix" result="effect1_dropShadow_5733_9997"/>
<feBlend mode="normal" in="SourceGraphic" in2="effect1_dropShadow_5733_9997" result="shape"/>
</filter>
<linearGradient id="paint0_linear_5733_9997" x1="65.6633" y1="203.934" x2="141.681" y2="108.913" gradientUnits="userSpaceOnUse">
<stop  offset="0" stop-color="#3BEA62"/>
<stop offset="0.543588" stop-color="#0894FA"/>
<stop offset="1" stop-color="#764EFF"/>
</linearGradient>
<linearGradient id="paint1_linear_5733_9997" x1="200.911" y1="48.4713" x2="124.912" y2="124.469" gradientUnits="userSpaceOnUse">
<stop  offset="0" stop-color="#3BEA62"/>
<stop offset="0.543588" stop-color="#0894FA"/>
<stop offset="1" stop-color="#764EFF"/>
</linearGradient>
<clipPath id="clip0_5733_9997">
<rect x="25" y="25" width="206" height="206" rx="45" fill="white"/>
</clipPath>
<clipPath id="clip1_5733_9997">
<rect width="152" height="152" fill="white" transform="translate(52 46)"/>
</clipPath>
</defs>
</svg>
