<svg width="32" height="32" viewBox="0 0 32 32" fill="none" xmlns="http://www.w3.org/2000/svg">
<g clip-path="url(#clip0_5733_9999)">
<g clip-path="url(#clip1_5733_9999)" filter="url(#filter0_d_5733_9999)">
<rect x="2" y="2" width="28" height="28" rx="6" fill="#22272C"/>
<g clip-path="url(#clip2_5733_9999)">
<path d="M13.9882 8.87793H13.9888C18.5797 8.87793 22.3068 12.6052 22.3068 17.1962V17.1966C22.3068 21.7876 18.5797 25.5148 13.9889 25.5148H13.9883C9.39727 25.5148 5.66992 21.7874 5.66992 17.1962V17.1965C5.66992 12.6054 9.39724 8.87793 13.9882 8.87793Z" fill="url(#paint0_linear_5733_9999)"/>
<path d="M14.6704 19.4307L23.4137 19.4307C25.0244 19.4307 26.3301 18.125 26.3301 16.5143L26.3301 7.77103C26.3301 6.16037 25.0244 4.85468 23.4137 4.85468L14.6704 4.85467C13.0598 4.85467 11.7541 6.16036 11.7541 7.77102L11.7541 16.5143C11.7541 18.125 13.0598 19.4307 14.6704 19.4307Z" fill="url(#paint1_linear_5733_9999)"/>
<path d="M11.7549 9.22804L21.9575 9.22803L21.9575 19.4306L11.7549 19.4306L11.7549 9.22804Z" fill="black"/>
<path d="M13.2119 16.5151L18.8599 16.5151V17.9727L13.2119 17.9727L13.2119 16.5151Z" fill="white"/>
</g>
</g>
<path d="M2 22H30V22C30 23.8599 30 24.7899 29.7956 25.5529C29.2408 27.6235 27.6235 29.2408 25.5529 29.7956C24.7899 30 23.8599 30 22 30H10C8.14006 30 7.21009 30 6.44709 29.7956C4.37653 29.2408 2.75925 27.6235 2.20445 25.5529C2 24.7899 2 23.8599 2 22V22Z" fill="#EFEFEF"/>
<path d="M5.02441 24.0098H6.21856C6.47126 24.0098 6.68501 24.0573 6.85981 24.1523C7.03651 24.2473 7.17046 24.385 7.26166 24.5655C7.35286 24.7441 7.39846 24.9617 7.39846 25.2182C7.39846 25.4785 7.35191 25.6998 7.25881 25.8822C7.16571 26.0627 7.02986 26.2005 6.85126 26.2955C6.67266 26.3905 6.45416 26.438 6.19576 26.438H5.71981V27.9998H5.02441V24.0098ZM6.18721 25.8366C6.29931 25.8366 6.39241 25.8148 6.46651 25.7711C6.54061 25.7255 6.59571 25.658 6.63181 25.5687C6.66791 25.4775 6.68596 25.3616 6.68596 25.221C6.68596 25.0823 6.66791 24.9683 6.63181 24.879C6.59571 24.7897 6.54061 24.7232 6.46651 24.6795C6.39241 24.6358 6.29931 24.614 6.18721 24.614H5.71981V25.8366H6.18721Z" fill="black"/>
<path d="M9.1501 26.2128H9.8911L10.6948 27.9998H9.93385L9.1501 26.2128ZM8.25805 24.0098H9.4522C9.7049 24.0098 9.91865 24.0573 10.0935 24.1523C10.2702 24.2473 10.4041 24.385 10.4953 24.5655C10.5865 24.7441 10.6321 24.9617 10.6321 25.2182C10.6321 25.4785 10.5856 25.6998 10.4925 25.8822C10.3994 26.0627 10.2635 26.2005 10.0849 26.2955C9.9063 26.3905 9.6878 26.438 9.4294 26.438H8.95345V27.9998H8.25805V24.0098ZM9.42085 25.8366C9.53295 25.8366 9.62605 25.8148 9.70015 25.7711C9.77425 25.7255 9.82935 25.658 9.86545 25.5687C9.90155 25.4775 9.9196 25.3616 9.9196 25.221C9.9196 25.0823 9.90155 24.9683 9.86545 24.879C9.82935 24.7897 9.77425 24.7232 9.70015 24.6795C9.62605 24.6358 9.53295 24.614 9.42085 24.614H8.95345V25.8366H9.42085Z" fill="black"/>
<path d="M11.6698 24.0098H13.7988V24.6425H12.3595V25.6827H13.6363V26.304H12.3595V27.3671H13.8558V27.9998H11.6698V24.0098Z" fill="black"/>
<path d="M14.5397 24.0098H15.2437L15.8821 26.8199L15.9391 27.2217H15.9989L16.0531 26.8199L16.6658 24.0098H17.3698L16.3552 27.9998H15.5657L14.5397 24.0098Z" fill="black"/>
<path d="M18.2039 24.0098H18.8993V27.9998H18.2039V24.0098Z" fill="black"/>
<path d="M20.0515 24.0098H22.1804V24.6425H20.7412V25.6827H22.018V26.304H20.7412V27.3671H22.2374V27.9998H20.0515V24.0098Z" fill="black"/>
<path d="M22.9271 24.0098H23.6453L24.1013 26.7486L24.1412 27.1562H24.201L24.2438 26.7515L24.7568 24.0098H25.4864L26.0165 26.78L26.0621 27.1847H26.1219L26.1533 26.78L26.5808 24.0098H27.2876L26.4981 27.9998H25.703L25.1928 25.2581L25.1472 24.8534H25.0874L25.0418 25.2581L24.5202 27.9998H23.7194L22.9271 24.0098Z" fill="black"/>
</g>
<defs>
<filter id="filter0_d_5733_9999" x="0.4" y="1.1" width="31.2" height="31.2" filterUnits="userSpaceOnUse" color-interpolation-filters="sRGB">
<feFlood flood-opacity="0" result="BackgroundImageFix"/>
<feColorMatrix in="SourceAlpha" type="matrix" values="0 0 0 0 0 0 0 0 0 0 0 0 0 0 0 0 0 0 127 0" result="hardAlpha"/>
<feOffset dy="0.7"/>
<feGaussianBlur stdDeviation="0.8"/>
<feComposite in2="hardAlpha" operator="out"/>
<feColorMatrix type="matrix" values="0 0 0 0 0 0 0 0 0 0 0 0 0 0 0 0 0 0 0.35 0"/>
<feBlend mode="normal" in2="BackgroundImageFix" result="effect1_dropShadow_5733_9999"/>
<feBlend mode="normal" in="SourceGraphic" in2="effect1_dropShadow_5733_9999" result="shape"/>
</filter>
<linearGradient id="paint0_linear_5733_9999" x1="7.52653" y1="26.3215" x2="17.859" y2="13.4059" gradientUnits="userSpaceOnUse">
<stop  offset="0" stop-color="#3BEA62"/>
<stop offset="0.543588" stop-color="#0894FA"/>
<stop offset="1" stop-color="#764EFF"/>
</linearGradient>
<linearGradient id="paint1_linear_5733_9999" x1="25.9102" y1="5.19056" x2="15.5803" y2="15.5204" gradientUnits="userSpaceOnUse">
<stop  offset="0" stop-color="#3BEA62"/>
<stop offset="0.543588" stop-color="#0894FA"/>
<stop offset="1" stop-color="#764EFF"/>
</linearGradient>
<clipPath id="clip0_5733_9999">
<rect width="32" height="32" fill="white"/>
</clipPath>
<clipPath id="clip1_5733_9999">
<rect width="28" height="28" fill="white" transform="translate(2 2)"/>
</clipPath>
<clipPath id="clip2_5733_9999">
<rect width="20.6602" height="20.6602" fill="white" transform="translate(5.66992 4.85449)"/>
</clipPath>
</defs>
</svg>
