<svg width="70" height="70" viewBox="0 0 70 70" fill="none" xmlns="http://www.w3.org/2000/svg">
<path d="M31.3001 39.2L24.5001 43L24.1001 50.2L14.2001 54.5L1.6001 55.6L4.3001 10.7L29.9001 0L57.7001 25.5L31.3001 39.2Z" fill="url(#paint0_linear)"/>
<path d="M47.5999 11.9L69.5 26.7L62.2 43L49.7999 39.6H39.2L47.5999 11.9Z" fill="url(#paint1_linear)"/>
<path d="M35.8 51.8L17.3 8.8L29.9 0L69.5 26.7L35.8 51.8Z" fill="url(#paint2_linear)"/>
<path d="M4.30005 10.7L29.9 0L17.3 8.8L4.30005 10.7Z" fill="url(#paint3_linear)"/>
<path d="M4.3 10.7L29.9 0L17.3 8.8L0 56L4.3 10.7Z" fill="url(#paint4_linear)"/>
<path d="M26.2 23.1L37.6 59.9L24 70L0 56L6.3 38.3L25.6 18.6L26.2 23.1Z" fill="#21D789"/>
<path d="M21.4 51.9L0 56L24 70L37.6 59.9L21.4 51.9Z" fill="url(#paint5_linear)"/>
<path d="M21.4 51.9L0 56L6.3 38.3L25.6 18.6L21.4 51.9Z" fill="url(#paint6_linear)"/>
<path d="M27.2 50.3L37.5 59.9L24 70L27.2 50.3Z" fill="url(#paint7_linear)"/>
<path d="M70 62.6L48.5999 69.9L20.2 61.9L25.6 18.6L52.0999 0L54.7 19.3L47.5 34.9L61.2999 29.6L64.0999 40.2L70 62.6Z" fill="url(#paint8_linear)"/>
<path d="M70.0001 62.6L48.6001 69.9L61.3001 29.6L70.0001 62.6Z" fill="url(#paint9_linear)"/>
<path d="M52.1001 0L42.0001 22.3L34.1001 39.7L47.5001 34.9L54.9001 19.1L52.1001 0Z" fill="url(#paint10_linear)"/>
<path d="M4.30005 10.7L29.9 0L17.3 8.8L4.30005 10.7Z" fill="url(#paint11_linear)"/>
<path d="M70 62.6L48.5999 69.9L20.2 61.9L37.4 60.1L70 62.6Z" fill="url(#paint12_linear)"/>
<path d="M51.4001 61.2L48.6001 69.9L70.0001 62.6L51.4001 61.2Z" fill="url(#paint13_linear)"/>
<path d="M57 13H13V57H57V13Z" fill="url(#paint14_linear)"/>
<g opacity="0.3">
<path opacity="0.3" d="M56.9999 36.0266V18.1333L54.3599 16.3733L54.7999 19.16L47.6133 34.8533L56.9999 31.1866V36.0266Z" fill="url(#paint15_linear)"/>
<path opacity="0.3" d="M57.0001 57V31.1867L47.6134 34.8533L54.8001 19.16L53.9201 13H33.3868L25.4668 18.5733L20.7734 57H57.0001Z" fill="url(#paint16_linear)"/>
<path opacity="0.3" d="M42.0399 22.24L34.1199 39.6933L47.6132 34.8533L54.9465 19.0133L54.0665 13H46.2932L42.0399 22.24Z" fill="url(#paint17_linear)"/>
<path opacity="0.3" d="M19.0133 13H13V31.3333L22.68 21.36L19.0133 13Z" fill="url(#paint18_linear)"/>
<path opacity="0.3" d="M13 53.6266L21.36 52.0133L25.4667 18.5733L13 31.3333V53.6266Z" fill="url(#paint19_linear)"/>
</g>
<path d="M35 48.7H18.5V51.4H35V48.7Z" fill="white"/>
<path d="M18.5 18.4H25.2C29.1 18.4 31.5 20.7 31.5 24.1C31.5 27.9 28.5 29.9 24.8 29.9H22.1V34.9H18.5V18.4ZM25 26.7C26.8 26.7 27.9 25.6 27.9 24.2C27.9 22.6 26.8 21.7 25 21.7H22.1V26.7H25Z" fill="white"/>
<path d="M33.5 26.7C33.5 22 37 18.1 42.1 18.1C45.2 18.1 47.1 19.1 48.6 20.6L46.3 23.3C45 22.1 43.7 21.4 42.1 21.4C39.3 21.4 37.3 23.7 37.3 26.5C37.3 29.3 39.3 31.7 42.1 31.7C44 31.7 45.1 30.9 46.4 29.8L48.7 32.1C47 33.9 45.1 35 41.9 35C37.1 35.2 33.5 31.4 33.5 26.7Z" fill="white"/>
<defs>
<linearGradient id="paint0_linear" x1="-23.0554" y1="58.023" x2="61.5389" y2="-4.42431" gradientUnits="userSpaceOnUse">
<stop offset="0.0107527" stop-color="#FCF84A"/>
<stop offset="0.1116" stop-color="#A7EB62"/>
<stop offset="0.2056" stop-color="#5FE077"/>
<stop offset="0.2727" stop-color="#32DA84"/>
<stop offset="0.3065" stop-color="#21D789"/>
<stop offset="0.5768" stop-color="#21D789"/>
<stop offset="0.5968" stop-color="#21D789"/>
<stop offset="0.686" stop-color="#20D68C"/>
<stop offset="0.7627" stop-color="#1ED497"/>
<stop offset="0.8348" stop-color="#19D1A9"/>
<stop offset="0.904" stop-color="#13CCC2"/>
<stop offset="0.9707" stop-color="#0BC6E1"/>
<stop offset="1" stop-color="#07C3F2"/>
</linearGradient>
<linearGradient id="paint1_linear" x1="49.5047" y1="17.8481" x2="59.7135" y2="50.1301" gradientUnits="userSpaceOnUse">
<stop stop-color="#009AE5"/>
<stop offset="1" stop-color="#07C3F2"/>
</linearGradient>
<linearGradient id="paint2_linear" x1="8.82505" y1="15.0209" x2="62.1057" y2="39.1412" gradientUnits="userSpaceOnUse">
<stop offset="0.0344093" stop-color="#10E899"/>
<stop offset="0.1745" stop-color="#13E596"/>
<stop offset="0.2947" stop-color="#1EDA8C"/>
<stop offset="0.3185" stop-color="#21D789"/>
<stop offset="0.3975" stop-color="#20D68C"/>
<stop offset="0.4653" stop-color="#1ED497"/>
<stop offset="0.529" stop-color="#19D1A9"/>
<stop offset="0.5903" stop-color="#13CCC2"/>
<stop offset="0.6492" stop-color="#0BC6E1"/>
<stop offset="0.6752" stop-color="#07C3F2"/>
<stop offset="0.9215" stop-color="#07EBFF"/>
</linearGradient>
<linearGradient id="paint3_linear" x1="20.1187" y1="9.8525" x2="15.4458" y2="2.8802" gradientUnits="userSpaceOnUse">
<stop stop-color="#07C3F2"/>
<stop offset="0.1949" stop-color="#0BC6E2"/>
<stop offset="0.5746" stop-color="#15CEB8"/>
<stop offset="0.9463" stop-color="#21D789"/>
</linearGradient>
<linearGradient id="paint4_linear" x1="-7.7131" y1="16.6655" x2="19.5283" y2="30.2862" gradientUnits="userSpaceOnUse">
<stop offset="0.030218" stop-color="#C1EF5B"/>
<stop offset="0.2486" stop-color="#9DEA65"/>
<stop offset="0.7318" stop-color="#41DC80"/>
<stop offset="0.896" stop-color="#21D789"/>
</linearGradient>
<linearGradient id="paint5_linear" x1="26.8578" y1="38.2957" x2="11.1854" y2="76.4681" gradientUnits="userSpaceOnUse">
<stop offset="0.1026" stop-color="#087CFA"/>
<stop offset="0.2273" stop-color="#0C89EA" stop-opacity="0.8064"/>
<stop offset="0.4716" stop-color="#15ABC0" stop-opacity="0.427"/>
<stop offset="0.7466" stop-color="#21D789" stop-opacity="0"/>
</linearGradient>
<linearGradient id="paint6_linear" x1="12.3145" y1="16.8218" x2="13.223" y2="56.013" gradientUnits="userSpaceOnUse">
<stop offset="0.0108126" stop-color="#FCF84A"/>
<stop offset="0.0924045" stop-color="#ECF64F"/>
<stop offset="0.2525" stop-color="#C1EF5B"/>
<stop offset="0.4754" stop-color="#7DE56F"/>
<stop offset="0.7466" stop-color="#21D789"/>
</linearGradient>
<linearGradient id="paint7_linear" x1="24.0072" y1="60.1379" x2="37.4673" y2="60.1379" gradientUnits="userSpaceOnUse">
<stop stop-color="#13A5C7"/>
<stop offset="1" stop-color="#21D789"/>
</linearGradient>
<linearGradient id="paint8_linear" x1="84.3681" y1="65.4666" x2="12.5464" y2="14.0371" gradientUnits="userSpaceOnUse">
<stop offset="0.4732" stop-color="#FCF84A"/>
<stop offset="0.5319" stop-color="#ECF74C"/>
<stop offset="0.647" stop-color="#C1F451"/>
<stop offset="0.8056" stop-color="#7EEF5A"/>
<stop offset="0.9489" stop-color="#3BEA62"/>
</linearGradient>
<linearGradient id="paint9_linear" x1="82.4445" y1="45.0574" x2="25.1233" y2="54.7834" gradientUnits="userSpaceOnUse">
<stop offset="0.2756" stop-color="#FCF84A"/>
<stop offset="0.3649" stop-color="#ECF74C"/>
<stop offset="0.5402" stop-color="#C1F451"/>
<stop offset="0.7817" stop-color="#7EEF5A"/>
<stop offset="1" stop-color="#3BEA62"/>
</linearGradient>
<linearGradient id="paint10_linear" x1="60.0721" y1="43.4168" x2="38.4129" y2="13.3421" gradientUnits="userSpaceOnUse">
<stop offset="0.1216" stop-color="#FCF84A"/>
<stop offset="0.2021" stop-color="#F3F74B"/>
<stop offset="0.3351" stop-color="#DAF350"/>
<stop offset="0.5044" stop-color="#B1ED56"/>
<stop offset="0.7031" stop-color="#78E55F"/>
<stop offset="0.9242" stop-color="#30DB6B"/>
<stop offset="1" stop-color="#16D76F"/>
</linearGradient>
<linearGradient id="paint11_linear" x1="6.08175" y1="4.2648" x2="25.5893" y2="6.2271" gradientUnits="userSpaceOnUse">
<stop stop-color="#FCF84A"/>
<stop offset="0.1636" stop-color="#D8F957"/>
<stop offset="0.529" stop-color="#7BFC79"/>
<stop offset="0.9855" stop-color="#00FFA6"/>
</linearGradient>
<linearGradient id="paint12_linear" x1="68.8163" y1="60.0335" x2="14.6248" y2="69.2284" gradientUnits="userSpaceOnUse">
<stop offset="0.0899703" stop-color="#3BEA62"/>
<stop offset="0.1675" stop-color="#67ED5C"/>
<stop offset="0.25" stop-color="#8FF058"/>
<stop offset="0.3382" stop-color="#B1F353"/>
<stop offset="0.4319" stop-color="#CCF550"/>
<stop offset="0.5329" stop-color="#E1F64D"/>
<stop offset="0.6448" stop-color="#F0F74B"/>
<stop offset="0.776" stop-color="#F9F84A"/>
<stop offset="0.9744" stop-color="#FCF84A"/>
</linearGradient>
<linearGradient id="paint13_linear" x1="53.7904" y1="58.7201" x2="64.9871" y2="73.9567" gradientUnits="userSpaceOnUse">
<stop stop-color="#3BEA62"/>
<stop offset="0.0877078" stop-color="#67ED5C"/>
<stop offset="0.1809" stop-color="#8FF058"/>
<stop offset="0.2807" stop-color="#B1F353"/>
<stop offset="0.3866" stop-color="#CCF550"/>
<stop offset="0.5008" stop-color="#E1F64D"/>
<stop offset="0.6273" stop-color="#F0F74B"/>
<stop offset="0.7757" stop-color="#F9F84A"/>
<stop offset="1" stop-color="#FCF84A"/>
</linearGradient>
<linearGradient id="paint14_linear" x1="12.3211" y1="16.5108" x2="57.3627" y2="53.2314" gradientUnits="userSpaceOnUse">
<stop stop-color="#2C4915"/>
<stop offset="0.479167"/>
</linearGradient>
<linearGradient id="paint15_linear" x1="49.4314" y1="24.9282" x2="59.632" y2="29.546" gradientUnits="userSpaceOnUse">
<stop offset="0.3185" stop-color="#21D789" stop-opacity="0"/>
<stop offset="0.4209" stop-color="#20D68C" stop-opacity="0.2213"/>
<stop offset="0.509" stop-color="#1ED497" stop-opacity="0.4115"/>
<stop offset="0.5917" stop-color="#19D1A9" stop-opacity="0.5903"/>
<stop offset="0.6711" stop-color="#13CCC2" stop-opacity="0.762"/>
<stop offset="0.7476" stop-color="#0BC6E1" stop-opacity="0.9273"/>
<stop offset="0.7813" stop-color="#07C3F2"/>
</linearGradient>
<linearGradient id="paint16_linear" x1="23.1987" y1="23.4673" x2="58.6456" y2="52.3658" gradientUnits="userSpaceOnUse">
<stop offset="0.0268021" stop-color="#FCF84A"/>
<stop offset="0.093679" stop-color="#E5E543"/>
<stop offset="0.3358" stop-color="#94A22C"/>
<stop offset="0.5509" stop-color="#556D19"/>
<stop offset="0.731" stop-color="#27470B"/>
<stop offset="0.8692" stop-color="#0B3003"/>
<stop offset="0.9489" stop-color="#002700"/>
</linearGradient>
<linearGradient id="paint17_linear" x1="35.7334" y1="3.69356" x2="47.5962" y2="35.793" gradientUnits="userSpaceOnUse">
<stop offset="0.1216" stop-color="#21D789"/>
<stop offset="0.2439" stop-color="#1FCE80"/>
<stop offset="0.4459" stop-color="#18B667"/>
<stop offset="0.7026" stop-color="#0E8E3E"/>
<stop offset="1" stop-color="#005806"/>
</linearGradient>
<linearGradient id="paint18_linear" x1="13" y1="22.1555" x2="22.6763" y2="22.1555" gradientUnits="userSpaceOnUse">
<stop offset="0.0108126" stop-color="#FCF84A"/>
<stop offset="0.0924045" stop-color="#ECF64F"/>
<stop offset="0.2525" stop-color="#C1EF5B"/>
<stop offset="0.4754" stop-color="#7DE56F"/>
<stop offset="0.7466" stop-color="#21D789"/>
</linearGradient>
<linearGradient id="paint19_linear" x1="13.5878" y1="31.4355" x2="27.812" y2="43.0319" gradientUnits="userSpaceOnUse">
<stop offset="0.0108126" stop-color="#FCF84A"/>
<stop offset="0.0924045" stop-color="#ECF64F"/>
<stop offset="0.2525" stop-color="#C1EF5B"/>
<stop offset="0.4754" stop-color="#7DE56F"/>
<stop offset="0.7466" stop-color="#21D789"/>
</linearGradient>
</defs>
</svg>
