<svg width="128" height="128" viewBox="0 0 128 128" fill="none" xmlns="http://www.w3.org/2000/svg">
<path d="M57.2 71.6L44.8 78.7L44.1 91.7L25.9 99.6L3 101.7L7.9 19.7L54.7 0L105.5 46.6L57.2 71.6Z" fill="url(#paint0_linear)"/>
<path d="M87.0001 21.8L127.2 48.9L113.7 78.7L91.1001 72.5H71.6001L87.0001 21.8Z" fill="url(#paint1_linear)"/>
<path d="M65.4001 94.7L31.6001 16L54.7001 0L127 48.9L65.4001 94.7Z" fill="url(#paint2_linear)"/>
<path d="M7.90002 19.7L54.7 0L31.6 16L7.90002 19.7Z" fill="url(#paint3_linear)"/>
<path d="M7.9 19.7L54.7 0L31.6 16L0 102.4L7.9 19.7Z" fill="url(#paint4_linear)"/>
<path d="M47.9 42.3L68.7 109.5L43.9 128L0 102.4L11.5 70.1L46.8 34L47.9 42.3Z" fill="#21D789"/>
<path d="M39.2 95L0 102.4L43.9 128L68.7 109.5L39.2 95Z" fill="url(#paint5_linear)"/>
<path d="M39.2 95L0 102.4L11.5 70.1L46.8 34L39.2 95Z" fill="url(#paint6_linear)"/>
<path d="M49.6999 91.9L68.4999 109.5L43.8999 128L49.6999 91.9Z" fill="url(#paint7_linear)"/>
<path d="M128 114.5L89 127.8L37 113.1L46.8 34L95.2 0L99.9 35.3L86.9 63.8L112.1 54.1L117.2 73.5L128 114.5Z" fill="url(#paint8_linear)"/>
<path d="M128 114.5L89 127.8L112.1 54.1L128 114.5Z" fill="url(#paint9_linear)"/>
<path d="M95.1999 0L76.8999 40.8L62.3999 72.5L86.8999 63.8L100.4 35L95.1999 0Z" fill="url(#paint10_linear)"/>
<path d="M7.90002 19.7L54.7 0L31.6 16L7.90002 19.7Z" fill="url(#paint11_linear)"/>
<path d="M128 114.5L89 127.8L37 113.1L68.4 109.8L128 114.5Z" fill="url(#paint12_linear)"/>
<path d="M93.9 111.8L89 127.8L128 114.5L93.9 111.8Z" fill="url(#paint13_linear)"/>
<path d="M104 24H24V104H104V24Z" fill="url(#paint14_linear)"/>
<g opacity="0.3">
<path opacity="0.3" d="M104 65.8666V33.3333L99.1998 30.1333L99.9998 35.2L86.9331 63.7333L104 57.0666V65.8666Z" fill="url(#paint15_linear)"/>
<path opacity="0.3" d="M104 104V57.0667L86.9333 63.7333L100 35.2L98.4 24H61.0666L46.6666 34.1333L38.1333 104H104Z" fill="url(#paint16_linear)"/>
<path opacity="0.3" d="M76.7999 40.8L62.3999 72.5333L86.9332 63.7333L100.267 34.9333L98.6666 24H84.5332L76.7999 40.8Z" fill="url(#paint17_linear)"/>
<path opacity="0.3" d="M34.9333 24H24V57.3333L41.6 39.2L34.9333 24Z" fill="url(#paint18_linear)"/>
<path opacity="0.3" d="M24 97.8666L39.2 94.9333L46.6667 34.1333L24 57.3333V97.8666Z" fill="url(#paint19_linear)"/>
</g>
<path d="M64 88.9H34V93.9H64V88.9Z" fill="white"/>
<path d="M34 33.9H46.2C53.3 33.9 57.7 38.1 57.7 44.3V44.4C57.7 51.3 52.3 54.9 45.6 54.9H40.6V63.9H34V33.9ZM45.8 49C49.1 49 51 47 51 44.5V44.4C51 41.4 48.9 39.9 45.6 39.9H40.5V49.1H45.8V49Z" fill="white"/>
<path d="M61.3 49C61.3 40.4 67.7001 33.4 76.9001 33.4C82.5001 33.4 85.9 35.3 88.7 38L84.6 42.9C82.3 40.8 79.9001 39.5 76.9001 39.5C71.9001 39.5 68.2001 43.7 68.2001 48.8V48.9C68.2001 54 71.8001 58.3 76.9001 58.3C80.3001 58.3 82.4 56.9 84.8 54.8L89 59C85.9 62.3 82.5001 64.4 76.7001 64.4C67.9001 64.4 61.3 57.6 61.3 49Z" fill="white"/>
<defs>
<linearGradient id="paint0_linear" x1="-42.1587" y1="106.099" x2="112.528" y2="-8.0902" gradientUnits="userSpaceOnUse">
<stop offset="0.0107527" stop-color="#FCF84A"/>
<stop offset="0.1116" stop-color="#A7EB62"/>
<stop offset="0.2056" stop-color="#5FE077"/>
<stop offset="0.2727" stop-color="#32DA84"/>
<stop offset="0.3065" stop-color="#21D789"/>
<stop offset="0.5768" stop-color="#21D789"/>
<stop offset="0.5968" stop-color="#21D789"/>
<stop offset="0.686" stop-color="#20D68C"/>
<stop offset="0.7627" stop-color="#1ED497"/>
<stop offset="0.8348" stop-color="#19D1A9"/>
<stop offset="0.904" stop-color="#13CCC2"/>
<stop offset="0.9707" stop-color="#0BC6E1"/>
<stop offset="1" stop-color="#07C3F2"/>
</linearGradient>
<linearGradient id="paint1_linear" x1="90.523" y1="32.6366" x2="109.191" y2="91.6664" gradientUnits="userSpaceOnUse">
<stop  offset="0" stop-color="#009AE5"/>
<stop offset="1" stop-color="#07C3F2"/>
</linearGradient>
<linearGradient id="paint2_linear" x1="16.1372" y1="27.4668" x2="113.565" y2="71.5725" gradientUnits="userSpaceOnUse">
<stop offset="0.0344093" stop-color="#10E899"/>
<stop offset="0.1745" stop-color="#13E596"/>
<stop offset="0.2947" stop-color="#1EDA8C"/>
<stop offset="0.3185" stop-color="#21D789"/>
<stop offset="0.3975" stop-color="#20D68C"/>
<stop offset="0.4653" stop-color="#1ED497"/>
<stop offset="0.529" stop-color="#19D1A9"/>
<stop offset="0.5903" stop-color="#13CCC2"/>
<stop offset="0.6492" stop-color="#0BC6E1"/>
<stop offset="0.6752" stop-color="#07C3F2"/>
<stop offset="0.9215" stop-color="#07EBFF"/>
</linearGradient>
<linearGradient id="paint3_linear" x1="36.7885" y1="18.0159" x2="28.2437" y2="5.2667" gradientUnits="userSpaceOnUse">
<stop  offset="0" stop-color="#07C3F2"/>
<stop offset="0.1949" stop-color="#0BC6E2"/>
<stop offset="0.5746" stop-color="#15CEB8"/>
<stop offset="0.9463" stop-color="#21D789"/>
</linearGradient>
<linearGradient id="paint4_linear" x1="-14.1039" y1="30.4741" x2="35.7089" y2="55.3805" gradientUnits="userSpaceOnUse">
<stop offset="0.030218" stop-color="#C1EF5B"/>
<stop offset="0.2486" stop-color="#9DEA65"/>
<stop offset="0.7318" stop-color="#41DC80"/>
<stop offset="0.896" stop-color="#21D789"/>
</linearGradient>
<linearGradient id="paint5_linear" x1="49.1115" y1="70.0265" x2="20.4534" y2="139.827" gradientUnits="userSpaceOnUse">
<stop offset="0.1026" stop-color="#087CFA"/>
<stop offset="0.2273" stop-color="#0C89EA" stop-opacity="0.8064"/>
<stop offset="0.4716" stop-color="#15ABC0" stop-opacity="0.427"/>
<stop offset="0.7466" stop-color="#21D789" stop-opacity="0"/>
</linearGradient>
<linearGradient id="paint6_linear" x1="22.5179" y1="30.7598" x2="24.1792" y2="102.424" gradientUnits="userSpaceOnUse">
<stop offset="0.0108126" stop-color="#FCF84A"/>
<stop offset="0.0924045" stop-color="#ECF64F"/>
<stop offset="0.2525" stop-color="#C1EF5B"/>
<stop offset="0.4754" stop-color="#7DE56F"/>
<stop offset="0.7466" stop-color="#21D789"/>
</linearGradient>
<linearGradient id="paint7_linear" x1="43.8988" y1="109.967" x2="68.5115" y2="109.967" gradientUnits="userSpaceOnUse">
<stop  offset="0" stop-color="#13A5C7"/>
<stop offset="1" stop-color="#21D789"/>
</linearGradient>
<linearGradient id="paint8_linear" x1="154.273" y1="119.71" x2="22.9422" y2="25.6679" gradientUnits="userSpaceOnUse">
<stop offset="0.4732" stop-color="#FCF84A"/>
<stop offset="0.5319" stop-color="#ECF74C"/>
<stop offset="0.647" stop-color="#C1F451"/>
<stop offset="0.8056" stop-color="#7EEF5A"/>
<stop offset="0.9489" stop-color="#3BEA62"/>
</linearGradient>
<linearGradient id="paint9_linear" x1="150.755" y1="82.3907" x2="45.9395" y2="100.175" gradientUnits="userSpaceOnUse">
<stop offset="0.2756" stop-color="#FCF84A"/>
<stop offset="0.3649" stop-color="#ECF74C"/>
<stop offset="0.5402" stop-color="#C1F451"/>
<stop offset="0.7817" stop-color="#7EEF5A"/>
<stop offset="1" stop-color="#3BEA62"/>
</linearGradient>
<linearGradient id="paint10_linear" x1="109.846" y1="79.3907" x2="70.2404" y2="24.3971" gradientUnits="userSpaceOnUse">
<stop offset="0.1216" stop-color="#FCF84A"/>
<stop offset="0.2021" stop-color="#F3F74B"/>
<stop offset="0.3351" stop-color="#DAF350"/>
<stop offset="0.5044" stop-color="#B1ED56"/>
<stop offset="0.7031" stop-color="#78E55F"/>
<stop offset="0.9242" stop-color="#30DB6B"/>
<stop offset="1" stop-color="#16D76F"/>
</linearGradient>
<linearGradient id="paint11_linear" x1="11.1209" y1="7.7985" x2="46.7919" y2="11.3867" gradientUnits="userSpaceOnUse">
<stop  offset="0" stop-color="#FCF84A"/>
<stop offset="0.1636" stop-color="#D8F957"/>
<stop offset="0.529" stop-color="#7BFC79"/>
<stop offset="0.9855" stop-color="#00FFA6"/>
</linearGradient>
<linearGradient id="paint12_linear" x1="125.836" y1="109.775" x2="26.7428" y2="126.589" gradientUnits="userSpaceOnUse">
<stop offset="0.0899703" stop-color="#3BEA62"/>
<stop offset="0.1675" stop-color="#67ED5C"/>
<stop offset="0.25" stop-color="#8FF058"/>
<stop offset="0.3382" stop-color="#B1F353"/>
<stop offset="0.4319" stop-color="#CCF550"/>
<stop offset="0.5329" stop-color="#E1F64D"/>
<stop offset="0.6448" stop-color="#F0F74B"/>
<stop offset="0.776" stop-color="#F9F84A"/>
<stop offset="0.9744" stop-color="#FCF84A"/>
</linearGradient>
<linearGradient id="paint13_linear" x1="98.3595" y1="107.374" x2="118.833" y2="135.235" gradientUnits="userSpaceOnUse">
<stop  offset="0" stop-color="#3BEA62"/>
<stop offset="0.0877078" stop-color="#67ED5C"/>
<stop offset="0.1809" stop-color="#8FF058"/>
<stop offset="0.2807" stop-color="#B1F353"/>
<stop offset="0.3866" stop-color="#CCF550"/>
<stop offset="0.5008" stop-color="#E1F64D"/>
<stop offset="0.6273" stop-color="#F0F74B"/>
<stop offset="0.7757" stop-color="#F9F84A"/>
<stop offset="1" stop-color="#FCF84A"/>
</linearGradient>
<linearGradient id="paint14_linear" x1="22.7656" y1="30.3832" x2="104.659" y2="97.1481" gradientUnits="userSpaceOnUse">
<stop  offset="0" stop-color="#2C4915"/>
<stop offset="0.479167"/>
</linearGradient>
<linearGradient id="paint15_linear" x1="90.2387" y1="45.6877" x2="108.785" y2="54.0837" gradientUnits="userSpaceOnUse">
<stop offset="0.3185" stop-color="#21D789" stop-opacity="0"/>
<stop offset="0.4209" stop-color="#20D68C" stop-opacity="0.2213"/>
<stop offset="0.509" stop-color="#1ED497" stop-opacity="0.4115"/>
<stop offset="0.5917" stop-color="#19D1A9" stop-opacity="0.5903"/>
<stop offset="0.6711" stop-color="#13CCC2" stop-opacity="0.762"/>
<stop offset="0.7476" stop-color="#0BC6E1" stop-opacity="0.9273"/>
<stop offset="0.7813" stop-color="#07C3F2"/>
</linearGradient>
<linearGradient id="paint16_linear" x1="42.5429" y1="43.0315" x2="106.992" y2="95.5741" gradientUnits="userSpaceOnUse">
<stop offset="0.0268021" stop-color="#FCF84A"/>
<stop offset="0.093679" stop-color="#E5E543"/>
<stop offset="0.3358" stop-color="#94A22C"/>
<stop offset="0.5509" stop-color="#556D19"/>
<stop offset="0.731" stop-color="#27470B"/>
<stop offset="0.8692" stop-color="#0B3003"/>
<stop offset="0.9489" stop-color="#002700"/>
</linearGradient>
<linearGradient id="paint17_linear" x1="65.3335" y1="7.0792" x2="86.9023" y2="65.4419" gradientUnits="userSpaceOnUse">
<stop offset="0.1216" stop-color="#21D789"/>
<stop offset="0.2439" stop-color="#1FCE80"/>
<stop offset="0.4459" stop-color="#18B667"/>
<stop offset="0.7026" stop-color="#0E8E3E"/>
<stop offset="1" stop-color="#005806"/>
</linearGradient>
<linearGradient id="paint18_linear" x1="24" y1="40.6464" x2="41.5933" y2="40.6464" gradientUnits="userSpaceOnUse">
<stop offset="0.0108126" stop-color="#FCF84A"/>
<stop offset="0.0924045" stop-color="#ECF64F"/>
<stop offset="0.2525" stop-color="#C1EF5B"/>
<stop offset="0.4754" stop-color="#7DE56F"/>
<stop offset="0.7466" stop-color="#21D789"/>
</linearGradient>
<linearGradient id="paint19_linear" x1="25.0688" y1="57.5192" x2="50.9309" y2="78.6034" gradientUnits="userSpaceOnUse">
<stop offset="0.0108126" stop-color="#FCF84A"/>
<stop offset="0.0924045" stop-color="#ECF64F"/>
<stop offset="0.2525" stop-color="#C1EF5B"/>
<stop offset="0.4754" stop-color="#7DE56F"/>
<stop offset="0.7466" stop-color="#21D789"/>
</linearGradient>
</defs>
</svg>
