<svg width="80" height="80" viewBox="0 0 80 80" fill="none" xmlns="http://www.w3.org/2000/svg">
<path d="M35.7001 44.8L28 49.2L27.6 57.3L16.2 62.3L1.80005 63.6L4.90005 12.3L34.2001 0L66 29.1L35.7001 44.8Z" fill="url(#paint0_linear)"/>
<path d="M54.4001 13.6L79.5 30.5L71 49.2L57 45.3H44.8L54.4001 13.6Z" fill="url(#paint1_linear)"/>
<path d="M40.9 59.2L19.7 10L34.2 0L79.4 30.5L40.9 59.2Z" fill="url(#paint2_linear)"/>
<path d="M4.8999 12.3L34.1999 0L19.6999 10L4.8999 12.3Z" fill="url(#paint3_linear)"/>
<path d="M4.9 12.3L34.2 0L19.7 10L0 64L4.9 12.3Z" fill="url(#paint4_linear)"/>
<path d="M29.9 26.4L42.9 68.4L27.4 80L0 64L7.2 43.8L29.2 21.3L29.9 26.4Z" fill="#21D789"/>
<path d="M24.5 59.4L0 64L27.4 80L42.9 68.4L24.5 59.4Z" fill="url(#paint5_linear)"/>
<path d="M24.5 59.4L0 64L7.2 43.8L29.2 21.3L24.5 59.4Z" fill="url(#paint6_linear)"/>
<path d="M31.0999 57.5L42.7999 68.4L27.3999 80L31.0999 57.5Z" fill="url(#paint7_linear)"/>
<path d="M80.0001 71.6L55.6001 79.9L23.1001 70.7L29.2001 21.3L59.5001 0L62.5001 22.1L54.3001 39.9L70.0001 33.8L73.2001 45.9L80.0001 71.6Z" fill="url(#paint8_linear)"/>
<path d="M80.0001 71.6L55.6001 79.9L70.0001 33.8L80.0001 71.6Z" fill="url(#paint9_linear)"/>
<path d="M59.5 0L48 25.5L39 45.3L54.3 39.9L62.7 21.9L59.5 0Z" fill="url(#paint10_linear)"/>
<path d="M4.8999 12.3L34.1999 0L19.6999 10L4.8999 12.3Z" fill="url(#paint11_linear)"/>
<path d="M80.0001 71.6L55.6001 79.9L23.1001 70.7L42.8001 68.7L80.0001 71.6Z" fill="url(#paint12_linear)"/>
<path d="M58.7001 69.9L55.6001 79.9L80.0001 71.6L58.7001 69.9Z" fill="url(#paint13_linear)"/>
<path d="M65 15H15V65H65V15Z" fill="url(#paint14_linear)"/>
<g opacity="0.3">
<path opacity="0.3" d="M64.9999 41.1666V20.8333L61.9999 18.8333L62.4999 22L54.3333 39.8333L64.9999 35.6666V41.1666Z" fill="url(#paint15_linear)"/>
<path opacity="0.3" d="M64.9999 65V35.6667L54.3332 39.8333L62.4999 22L61.4999 15H38.1666L29.1666 21.3333L23.8333 65H64.9999Z" fill="url(#paint16_linear)"/>
<path opacity="0.3" d="M48 25.5L39 45.3333L54.3333 39.8333L62.6667 21.8333L61.6667 15H52.8333L48 25.5Z" fill="url(#paint17_linear)"/>
<path opacity="0.3" d="M21.8333 15H15V35.8333L26 24.5L21.8333 15Z" fill="url(#paint18_linear)"/>
<path opacity="0.3" d="M15 61.1666L24.5 59.3333L29.1667 21.3333L15 35.8333V61.1666Z" fill="url(#paint19_linear)"/>
</g>
<path d="M39.9 55.6H21.2V58.7H39.9V55.6Z" fill="white"/>
<path d="M21.3 21.2H29C33.5 21.2 36.2 23.8 36.2 27.7V27.8C36.2 32.1 32.8 34.4 28.6 34.4H25.5V39.9H21.3V21.2ZM28.7 30.6C30.8 30.6 32 29.4 32 27.8V27.7C32 25.9 30.7 24.9 28.7 24.9H25.5V30.6H28.7Z" fill="white"/>
<path d="M38.3 30.6C38.3 25.2 42.3 20.9 48.1 20.9C51.6 20.9 53.7 22.1 55.5 23.8L52.9001 26.8C51.5001 25.5 50 24.7 48.1 24.7C44.9 24.7 42.7001 27.3 42.7001 30.5V30.6C42.7001 33.8 44.9 36.5 48.1 36.5C50.2 36.5 51.6 35.6 53 34.3L55.6 36.9C53.7 39 51.5001 40.2 47.9001 40.2C42.4001 40.2 38.3 36 38.3 30.6Z" fill="white"/>
<defs>
<linearGradient id="paint0_linear" x1="-26.3491" y1="66.312" x2="70.3301" y2="-5.0564" gradientUnits="userSpaceOnUse">
<stop offset="0.0107527" stop-color="#FCF84A"/>
<stop offset="0.1116" stop-color="#A7EB62"/>
<stop offset="0.2056" stop-color="#5FE077"/>
<stop offset="0.2727" stop-color="#32DA84"/>
<stop offset="0.3065" stop-color="#21D789"/>
<stop offset="0.5768" stop-color="#21D789"/>
<stop offset="0.5968" stop-color="#21D789"/>
<stop offset="0.686" stop-color="#20D68C"/>
<stop offset="0.7627" stop-color="#1ED497"/>
<stop offset="0.8348" stop-color="#19D1A9"/>
<stop offset="0.904" stop-color="#13CCC2"/>
<stop offset="0.9707" stop-color="#0BC6E1"/>
<stop offset="1" stop-color="#07C3F2"/>
</linearGradient>
<linearGradient id="paint1_linear" x1="56.5768" y1="20.3979" x2="68.244" y2="57.2915" gradientUnits="userSpaceOnUse">
<stop stop-color="#009AE5"/>
<stop offset="1" stop-color="#07C3F2"/>
</linearGradient>
<linearGradient id="paint2_linear" x1="10.0857" y1="17.1668" x2="70.9779" y2="44.7328" gradientUnits="userSpaceOnUse">
<stop offset="0.0344093" stop-color="#10E899"/>
<stop offset="0.1745" stop-color="#13E596"/>
<stop offset="0.2947" stop-color="#1EDA8C"/>
<stop offset="0.3185" stop-color="#21D789"/>
<stop offset="0.3975" stop-color="#20D68C"/>
<stop offset="0.4653" stop-color="#1ED497"/>
<stop offset="0.529" stop-color="#19D1A9"/>
<stop offset="0.5903" stop-color="#13CCC2"/>
<stop offset="0.6492" stop-color="#0BC6E1"/>
<stop offset="0.6752" stop-color="#07C3F2"/>
<stop offset="0.9215" stop-color="#07EBFF"/>
</linearGradient>
<linearGradient id="paint3_linear" x1="22.9927" y1="11.26" x2="17.6522" y2="3.2917" gradientUnits="userSpaceOnUse">
<stop stop-color="#07C3F2"/>
<stop offset="0.1949" stop-color="#0BC6E2"/>
<stop offset="0.5746" stop-color="#15CEB8"/>
<stop offset="0.9463" stop-color="#21D789"/>
</linearGradient>
<linearGradient id="paint4_linear" x1="-8.8149" y1="19.0463" x2="22.3181" y2="34.6128" gradientUnits="userSpaceOnUse">
<stop offset="0.030218" stop-color="#C1EF5B"/>
<stop offset="0.2486" stop-color="#9DEA65"/>
<stop offset="0.7318" stop-color="#41DC80"/>
<stop offset="0.896" stop-color="#21D789"/>
</linearGradient>
<linearGradient id="paint5_linear" x1="30.6947" y1="43.7665" x2="12.7834" y2="87.3921" gradientUnits="userSpaceOnUse">
<stop offset="0.1026" stop-color="#087CFA"/>
<stop offset="0.2273" stop-color="#0C89EA" stop-opacity="0.8064"/>
<stop offset="0.4716" stop-color="#15ABC0" stop-opacity="0.427"/>
<stop offset="0.7466" stop-color="#21D789" stop-opacity="0"/>
</linearGradient>
<linearGradient id="paint6_linear" x1="14.0737" y1="19.2249" x2="15.112" y2="64.0148" gradientUnits="userSpaceOnUse">
<stop offset="0.0108126" stop-color="#FCF84A"/>
<stop offset="0.0924045" stop-color="#ECF64F"/>
<stop offset="0.2525" stop-color="#C1EF5B"/>
<stop offset="0.4754" stop-color="#7DE56F"/>
<stop offset="0.7466" stop-color="#21D789"/>
</linearGradient>
<linearGradient id="paint7_linear" x1="27.4367" y1="68.7291" x2="42.8196" y2="68.7291" gradientUnits="userSpaceOnUse">
<stop stop-color="#13A5C7"/>
<stop offset="1" stop-color="#21D789"/>
</linearGradient>
<linearGradient id="paint8_linear" x1="96.421" y1="74.819" x2="14.339" y2="16.0424" gradientUnits="userSpaceOnUse">
<stop offset="0.4732" stop-color="#FCF84A"/>
<stop offset="0.5319" stop-color="#ECF74C"/>
<stop offset="0.647" stop-color="#C1F451"/>
<stop offset="0.8056" stop-color="#7EEF5A"/>
<stop offset="0.9489" stop-color="#3BEA62"/>
</linearGradient>
<linearGradient id="paint9_linear" x1="94.2222" y1="51.4942" x2="28.7123" y2="62.6096" gradientUnits="userSpaceOnUse">
<stop offset="0.2756" stop-color="#FCF84A"/>
<stop offset="0.3649" stop-color="#ECF74C"/>
<stop offset="0.5402" stop-color="#C1F451"/>
<stop offset="0.7817" stop-color="#7EEF5A"/>
<stop offset="1" stop-color="#3BEA62"/>
</linearGradient>
<linearGradient id="paint10_linear" x1="68.6537" y1="49.6192" x2="43.9003" y2="15.2482" gradientUnits="userSpaceOnUse">
<stop offset="0.1216" stop-color="#FCF84A"/>
<stop offset="0.2021" stop-color="#F3F74B"/>
<stop offset="0.3351" stop-color="#DAF350"/>
<stop offset="0.5044" stop-color="#B1ED56"/>
<stop offset="0.7031" stop-color="#78E55F"/>
<stop offset="0.9242" stop-color="#30DB6B"/>
<stop offset="1" stop-color="#16D76F"/>
</linearGradient>
<linearGradient id="paint11_linear" x1="6.9505" y1="4.8741" x2="29.2448" y2="7.1167" gradientUnits="userSpaceOnUse">
<stop stop-color="#FCF84A"/>
<stop offset="0.1636" stop-color="#D8F957"/>
<stop offset="0.529" stop-color="#7BFC79"/>
<stop offset="0.9855" stop-color="#00FFA6"/>
</linearGradient>
<linearGradient id="paint12_linear" x1="78.6474" y1="68.6097" x2="16.7143" y2="79.1182" gradientUnits="userSpaceOnUse">
<stop offset="0.0899703" stop-color="#3BEA62"/>
<stop offset="0.1675" stop-color="#67ED5C"/>
<stop offset="0.25" stop-color="#8FF058"/>
<stop offset="0.3382" stop-color="#B1F353"/>
<stop offset="0.4319" stop-color="#CCF550"/>
<stop offset="0.5329" stop-color="#E1F64D"/>
<stop offset="0.6448" stop-color="#F0F74B"/>
<stop offset="0.776" stop-color="#F9F84A"/>
<stop offset="0.9744" stop-color="#FCF84A"/>
</linearGradient>
<linearGradient id="paint13_linear" x1="61.4748" y1="67.1086" x2="74.2709" y2="84.522" gradientUnits="userSpaceOnUse">
<stop stop-color="#3BEA62"/>
<stop offset="0.0877078" stop-color="#67ED5C"/>
<stop offset="0.1809" stop-color="#8FF058"/>
<stop offset="0.2807" stop-color="#B1F353"/>
<stop offset="0.3866" stop-color="#CCF550"/>
<stop offset="0.5008" stop-color="#E1F64D"/>
<stop offset="0.6273" stop-color="#F0F74B"/>
<stop offset="0.7757" stop-color="#F9F84A"/>
<stop offset="1" stop-color="#FCF84A"/>
</linearGradient>
<linearGradient id="paint14_linear" x1="14.2285" y1="18.9895" x2="65.4121" y2="60.7175" gradientUnits="userSpaceOnUse">
<stop stop-color="#2C4915"/>
<stop offset="0.479167"/>
</linearGradient>
<linearGradient id="paint15_linear" x1="56.3993" y1="28.5548" x2="67.9909" y2="33.8023" gradientUnits="userSpaceOnUse">
<stop offset="0.3185" stop-color="#21D789" stop-opacity="0"/>
<stop offset="0.4209" stop-color="#20D68C" stop-opacity="0.2213"/>
<stop offset="0.509" stop-color="#1ED497" stop-opacity="0.4115"/>
<stop offset="0.5917" stop-color="#19D1A9" stop-opacity="0.5903"/>
<stop offset="0.6711" stop-color="#13CCC2" stop-opacity="0.762"/>
<stop offset="0.7476" stop-color="#0BC6E1" stop-opacity="0.9273"/>
<stop offset="0.7813" stop-color="#07C3F2"/>
</linearGradient>
<linearGradient id="paint16_linear" x1="26.5893" y1="26.8947" x2="66.8698" y2="59.7338" gradientUnits="userSpaceOnUse">
<stop offset="0.0268021" stop-color="#FCF84A"/>
<stop offset="0.093679" stop-color="#E5E543"/>
<stop offset="0.3358" stop-color="#94A22C"/>
<stop offset="0.5509" stop-color="#556D19"/>
<stop offset="0.731" stop-color="#27470B"/>
<stop offset="0.8692" stop-color="#0B3003"/>
<stop offset="0.9489" stop-color="#002700"/>
</linearGradient>
<linearGradient id="paint17_linear" x1="40.8335" y1="4.4245" x2="54.314" y2="40.9012" gradientUnits="userSpaceOnUse">
<stop offset="0.1216" stop-color="#21D789"/>
<stop offset="0.2439" stop-color="#1FCE80"/>
<stop offset="0.4459" stop-color="#18B667"/>
<stop offset="0.7026" stop-color="#0E8E3E"/>
<stop offset="1" stop-color="#005806"/>
</linearGradient>
<linearGradient id="paint18_linear" x1="15" y1="25.404" x2="25.9958" y2="25.404" gradientUnits="userSpaceOnUse">
<stop offset="0.0108126" stop-color="#FCF84A"/>
<stop offset="0.0924045" stop-color="#ECF64F"/>
<stop offset="0.2525" stop-color="#C1EF5B"/>
<stop offset="0.4754" stop-color="#7DE56F"/>
<stop offset="0.7466" stop-color="#21D789"/>
</linearGradient>
<linearGradient id="paint19_linear" x1="15.668" y1="35.9495" x2="31.8318" y2="49.1271" gradientUnits="userSpaceOnUse">
<stop offset="0.0108126" stop-color="#FCF84A"/>
<stop offset="0.0924045" stop-color="#ECF64F"/>
<stop offset="0.2525" stop-color="#C1EF5B"/>
<stop offset="0.4754" stop-color="#7DE56F"/>
<stop offset="0.7466" stop-color="#21D789"/>
</linearGradient>
</defs>
</svg>
