<svg width="32" height="32" viewBox="0 0 32 32" fill="none" xmlns="http://www.w3.org/2000/svg" data-scaled="true">
<g clip-path="url(#clip0_4372_11419)">
<path d="M29.9636 0H12.4803C11.9404 0 11.4223 0.2144 11.0403 0.596364L0.596364 11.04C0.2144 11.422 0 11.9398 0 12.48V29.9636C0 31.0883 0.911709 32 2.03636 32H19.5194C20.0599 32 20.5783 31.785 20.9603 31.4028L31.4036 20.9475C31.785 20.5658 31.9991 20.048 31.9991 19.5084L32 2.03636C32 0.911709 31.0883 0 29.9636 0Z" fill="url(#paint0_radial_4372_11419)"/>
<path d="M26 6H6V26H26V6Z" fill="black"/>
<path d="M8.9502 9.02017H12.2139C12.746 9.02017 13.2149 9.11792 13.6205 9.31341C14.026 9.5089 14.3373 9.78381 14.5546 10.1387C14.7754 10.4936 14.8859 10.9044 14.8859 11.3713C14.8859 11.8382 14.7736 12.2618 14.5493 12.6202C14.3285 12.9786 14.0117 13.2576 13.5989 13.4565C13.1899 13.652 12.7137 13.7498 12.1709 13.7498H10.4333V16.6225H8.95078V9.02017H8.9502ZM12.1159 12.5175C12.3658 12.5175 12.5828 12.4721 12.7675 12.3816C12.9557 12.2874 13.1006 12.1556 13.2018 11.9851C13.3031 11.8114 13.354 11.6104 13.354 11.3824C13.354 11.1543 13.3034 10.9512 13.2018 10.7851C13.1003 10.6146 12.9557 10.4843 12.7675 10.3941C12.5828 10.2999 12.3658 10.253 12.1159 10.253H10.4324V12.5175H12.1159ZM19.1788 16.7531C18.4513 16.7531 17.7924 16.5826 17.2021 16.2426C16.6119 15.8984 16.1487 15.428 15.8119 14.8308C15.4753 14.2301 15.3069 13.5601 15.3069 12.8215C15.3069 12.0829 15.4753 11.4149 15.8119 10.8177C16.1484 10.217 16.6119 9.74599 17.2021 9.40592C17.7921 9.06177 18.451 8.89014 19.1788 8.89014C19.7941 8.89014 20.3591 9.00417 20.8731 9.23225C21.3871 9.46032 21.8142 9.78061 22.1546 10.1934C22.4984 10.6027 22.7282 11.0731 22.8443 11.6052H21.2911C21.1896 11.3303 21.0378 11.0894 20.835 10.8829C20.6357 10.6731 20.3951 10.5117 20.1127 10.3997C19.8302 10.2877 19.5224 10.2312 19.1896 10.2312C18.7407 10.2312 18.3352 10.3432 17.9733 10.5678C17.6111 10.7924 17.3272 11.1019 17.1207 11.4964C16.9179 11.8874 16.8167 12.3293 16.8167 12.8215C16.8167 13.3137 16.9179 13.7576 17.1207 14.1518C17.3269 14.5428 17.6111 14.8503 17.9733 15.0749C18.3352 15.2994 18.7407 15.4114 19.1896 15.4114C19.5227 15.4114 19.8305 15.355 20.1127 15.243C20.3949 15.131 20.6357 14.9716 20.835 14.765C21.0378 14.5553 21.1896 14.3124 21.2911 14.0375H22.8443C22.7285 14.5696 22.4984 15.042 22.1546 15.4548C21.8142 15.8641 21.3871 16.1824 20.8731 16.4104C20.3591 16.6385 19.7941 16.7525 19.1788 16.7525V16.7531Z" fill="white"/>
<path d="M16 22H9V23H16V22Z" fill="white"/>
</g>
<defs>
<radialGradient id="paint0_radial_4372_11419" cx="0" cy="0" r="1" gradientUnits="userSpaceOnUse" gradientTransform="translate(30.7499 1.24986) rotate(135) scale(41.0488)">
<stop offset="0.1" stop-color="#F0EB18"/>
<stop offset="0.6" stop-color="#00C4F4"/>
</radialGradient>
<clipPath id="clip0_4372_11419">
<rect width="32" height="32" fill="white"/>
</clipPath>
</defs>
</svg>
