<svg width="256" height="256" viewBox="0 0 256 256" fill="none" xmlns="http://www.w3.org/2000/svg">
<path d="M256 222.5L256 103.836C256 97.3198 252.116 91.4295 246.128 88.8625L96.1652 24.5902C94.1382 23.7221 91.9529 23.2729 89.7466 23.2729L16.2909 23.2729C7.29367 23.2729 0 30.5666 0 39.5639L0 111.428C0 114.646 0.954182 117.793 2.74153 120.472L88.3549 248.746C91.3757 253.275 96.4608 255.993 101.904 255.993L222 256C230.997 256 256 231.497 256 222.5Z" fill="url(#paint0_linear_4407_11148)"/>
<path d="M232.727 58.0771V16.2909C232.727 7.29367 225.434 0 216.436 0L164.066 0C163.295 0 162.525 0.0558545 161.762 0.162909L13.9869 21.2736C5.96014 22.4186 0 29.2934 0 37.3993L0 100.091C0 109.091 7.296 116.385 16.2956 116.382L90.4495 116.364C92.1996 116.364 93.938 116.082 95.5974 115.528L221.589 73.5302C228.24 71.3123 232.727 65.0868 232.727 58.0748V58.0771Z" fill="url(#paint1_linear_4407_11148)"/>
<path d="M232.726 63.7905L232.719 16.2886C232.719 7.29367 225.425 0 216.428 0L170.401 0C165.647 0 161.127 2.07825 158.032 5.68785L27.1949 158.334C24.6651 161.287 23.2734 165.048 23.2734 168.937L23.2734 216.439C23.2734 225.436 30.5671 232.73 39.5643 232.73H85.5978C90.3524 232.73 94.872 230.651 97.9673 227.042L228.804 74.3959C231.336 71.4426 232.726 67.6817 232.726 63.7905Z" fill="#00D980"/>
<path d="M209 47L47 47L47 209L209 209L209 47Z" fill="black"/>
<path d="M133 177H69V187H133V177Z" fill="white"/>
<path d="M96.5717 130.118C90.7837 130.118 85.5418 128.762 80.8461 126.056C76.1528 123.318 72.4661 119.576 69.7862 114.825C67.1085 110.046 65.7686 104.716 65.7686 98.8402C65.7686 92.9642 67.1085 87.6506 69.7862 82.8994C72.4638 78.1204 76.1504 74.3736 80.8461 71.6682C85.5395 68.9304 90.7814 67.5649 96.5717 67.5649C101.466 67.5649 105.961 68.4721 110.05 70.2865C114.139 72.1009 117.537 74.649 120.245 77.9329C122.98 81.1891 124.808 84.9313 125.732 89.1642L113.376 89.1642C112.568 86.9772 111.36 85.0609 109.747 83.4178C108.162 81.7492 106.248 80.4648 104.001 79.5738C101.753 78.6828 99.3049 78.2338 96.6573 78.2338C93.0864 78.2338 89.8603 79.1248 86.9813 80.9114C84.1023 82.6981 81.8413 85.1605 80.1981 88.2986C78.5851 91.409 77.7797 94.9244 77.7797 98.8402C77.7797 102.756 78.5851 106.288 80.1981 109.423C81.839 112.534 84.1 114.98 86.9813 116.767C89.8603 118.553 93.0864 119.444 96.6573 119.444C99.3072 119.444 101.756 118.995 104.001 118.104C106.248 117.213 108.162 115.945 109.747 114.302C111.36 112.633 112.568 110.701 113.376 108.514H125.732C124.811 112.747 122.98 116.505 120.245 119.789C117.537 123.045 114.139 125.577 110.05 127.392C105.961 129.206 101.466 130.113 96.5717 130.113V130.118ZM145.961 68.5994V118.451H174.646V129.079H134.211V68.5994H145.961Z" fill="white"/>
<rect y="176" width="255.998" height="80" rx="26" fill="#22D789"/>
<g opacity="0.9">
<path d="M21.9707 231.774H28.8206V222.269H34.0247C41.008 222.269 46.6125 218.467 46.6125 211.134V211.044C46.6125 204.571 42.12 200.091 34.6919 200.091H21.9707V231.774ZM28.8206 216.068V206.382H34.1137C37.5386 206.382 39.6736 208.057 39.6736 211.18V211.27C39.6736 213.986 37.672 216.068 34.2471 216.068H28.8206Z" fill="#010101"/>
<path d="M51.6818 231.774H58.5316V221.635H63.9137L70.5856 231.774H78.592L70.986 220.458C74.9447 218.965 77.6579 215.751 77.6579 210.636V210.546C77.6579 207.559 76.7238 205.069 74.9891 203.304C72.9431 201.222 69.874 200.091 65.9153 200.091H51.6818V231.774ZM58.5316 215.479V206.382H65.337C68.673 206.382 70.7191 207.921 70.7191 210.908V210.999C70.7191 213.669 68.8065 215.479 65.4705 215.479H58.5316Z" fill="#010101"/>
<path d="M83.8253 231.774H107.533V225.573H90.6307V218.919H105.309V212.719H90.6307V206.291H107.311V200.091H83.8253V231.774Z" fill="#010101"/>
<path d="M123.542 232H129.591L142.179 200.091H134.796L126.656 222.405L118.516 200.091H110.954L123.542 232Z" fill="#010101"/>
<path d="M147.294 231.774H154.144V200.091H147.294V231.774Z" fill="#010101"/>
<path d="M161.925 231.774H185.633V225.573H168.731V218.919H183.409V212.719H168.731V206.291H185.411V200.091H161.925V231.774Z" fill="#010101"/>
<path d="M199.952 232H205.912L212.94 211.27L219.968 232H225.928L236.559 200.091H229.398L222.948 221.545L215.965 200H210.094L203.11 221.545L196.661 200.091H189.321L199.952 232Z" fill="#010101"/>
</g>
<defs>
<linearGradient id="paint0_linear_4407_11148" x1="15.9255" y1="16.8892" x2="250.747" y2="251.709" gradientUnits="userSpaceOnUse">
<stop offset="0.29" stop-color="#009AE5"/>
<stop offset="0.7" stop-color="#FF318C"/>
</linearGradient>
<linearGradient id="paint1_linear_4407_11148" x1="225.515" y1="-2.86952" x2="11.0103" y2="96.5818" gradientUnits="userSpaceOnUse">
<stop offset="0.3" stop-color="#00D980"/>
<stop offset="0.54" stop-color="#009AE5"/>
</linearGradient>
</defs>
</svg>
