<svg width="40" height="40" viewBox="0 0 40 40" fill="none" xmlns="http://www.w3.org/2000/svg">
  <path
    d="M23.1895 35.6973C23.6182 35.6973 24.0467 35.6985 24.4758 35.7039L24.595 35.6989C25.2765 35.6989 25.9986 35.6295 26.8019 35.4863L26.8511 35.4775C26.957 35.458 27.0664 35.4379 27.1717 35.4379C27.2951 35.4382 27.4235 35.4549 27.5684 35.4878L27.6461 35.5064L27.6526 35.5079C27.8035 35.5432 27.9598 35.5799 28.1196 35.5799C28.1631 35.5799 28.2062 35.578 28.2503 35.5717C28.3587 35.5566 28.4818 35.5331 28.5779 35.4699C28.7631 35.3469 28.8268 35.1459 28.7621 34.8881C28.7371 34.7911 28.6911 34.701 28.6372 34.602C28.6102 34.5524 28.5722 34.5182 28.5281 34.4934C28.5389 34.4943 28.549 34.4969 28.5592 34.5006C28.7047 34.5468 28.7885 34.641 28.8081 34.7804C28.8167 34.8429 28.8167 34.9063 28.8167 34.9735V34.9804C28.8164 35.0131 28.816 35.0448 28.8167 35.0774C28.8173 35.1019 28.8173 35.1271 28.8173 35.1519L28.8174 35.1599C28.8176 35.2171 28.8179 35.2764 28.8246 35.334C28.8351 35.4213 28.8982 35.4743 28.9974 35.4803C29.0089 35.4809 29.0193 35.4813 29.0301 35.4813C29.2917 35.4813 29.4833 35.3048 29.4966 35.0514C29.5096 34.7961 29.4379 34.5662 29.2781 34.3512C29.3675 34.4206 29.4268 34.5242 29.4697 34.6827C29.4719 34.6915 29.4735 34.7016 29.4754 34.711C29.4798 34.7399 29.4855 34.7732 29.509 34.7986C29.5508 34.8441 29.6054 34.8953 29.6637 34.8953C29.7265 34.8934 29.802 34.847 29.835 34.7914C29.8851 34.7076 29.8905 34.6046 29.8524 34.484C29.7104 34.0384 29.3939 33.7549 28.9118 33.6406C28.7777 33.6089 28.64 33.5925 28.5024 33.5925C28.2449 33.5925 27.9763 33.65 27.7048 33.7621C27.5992 33.8055 27.4945 33.8503 27.3897 33.895C27.3702 33.9034 27.3507 33.9117 27.3312 33.92L27.1137 34.013C27.0778 34.0287 27.0417 34.0431 27.0052 34.0551C26.931 34.0789 26.885 34.0899 26.8558 34.0899C26.821 34.0899 26.807 34.083 26.7988 33.8977C26.7934 33.7853 26.8432 33.6786 26.9393 33.5969C27.0515 33.5018 27.1749 33.4092 27.3062 33.3222L27.3084 33.3207C27.569 33.1462 27.8383 32.966 28.0552 32.7183C28.3308 32.4034 28.498 32.0809 28.5668 31.7327C28.6137 31.4956 28.5909 31.2554 28.4992 31.0199C28.4615 30.9235 28.4006 30.8635 28.3131 30.8356C28.1548 30.7853 27.9956 30.7367 27.8355 30.6918C27.2497 30.5288 26.8222 30.2886 26.4905 29.9372C26.2558 29.6879 26.0928 29.3927 25.9647 29.1378C25.743 28.6979 25.5686 28.2438 25.4465 27.7879C25.2283 26.9721 24.7158 26.3202 23.8808 25.7955C23.2672 25.4106 22.565 25.176 21.7941 25.0988C21.6276 25.0827 21.4627 25.0733 21.2892 25.0655L21.3034 25.0625C21.3489 25.0528 21.3938 25.0433 21.4389 25.0353C21.6847 24.9917 21.926 24.97 22.1569 24.97C22.7081 24.97 23.2294 25.0959 23.7058 25.3443C24.3017 25.6549 24.7786 26.1299 25.1643 26.7966C25.3767 27.164 25.5445 27.5596 25.6777 28.0083C25.7031 28.094 25.7262 28.182 25.7487 28.268L25.7516 28.2787C25.7976 28.4537 25.845 28.6338 25.9149 28.8037C26.3392 29.838 27.1241 30.4434 28.2487 30.6026C28.5338 30.6428 28.8138 30.6626 29.0805 30.6626C29.5883 30.6626 30.0747 30.5888 30.5273 30.4412C31.1514 30.2387 31.6296 29.9203 31.9883 29.4687C32.1485 29.2671 32.2668 29.0464 32.34 28.8112L32.3863 28.8222L32.39 28.8231C32.4528 28.8385 32.5141 28.8535 32.576 28.8649C32.6273 28.8746 32.6803 28.8797 32.7368 28.8797C32.8782 28.8797 33.0165 28.8492 33.1506 28.8184L33.1738 28.8131C33.2527 28.7952 33.3377 28.7917 33.4205 28.7886L33.4903 28.7855C33.4925 28.7861 33.503 28.793 33.5058 28.7974C33.5968 28.9538 33.7478 29.004 33.8692 29.0304C33.9152 29.0401 33.9634 29.0461 34.0123 29.0461C34.4242 29.0461 34.8251 28.6894 34.8371 28.3126C34.8432 28.1396 34.781 28.0083 34.6538 27.9226C34.6002 27.8865 34.5457 27.8522 34.4896 27.8183C34.5095 27.824 34.5314 27.8337 34.5552 27.846C34.612 27.8745 34.6529 27.8871 34.6878 27.8871C34.8022 27.8871 34.8154 27.7555 34.8212 27.6981L34.8213 27.6971C34.8397 27.494 34.774 27.3225 34.625 27.1872C34.6012 27.1649 34.5758 27.1439 34.5511 27.1238C34.5263 27.1037 34.5022 27.0836 34.4791 27.0625C34.4642 27.0487 34.4578 27.038 34.4572 27.0349C34.4455 26.855 34.3189 26.7586 34.2241 26.7008C34.0319 26.5837 33.8188 26.5422 33.6362 26.5177C33.5654 26.5083 33.4941 26.503 33.4227 26.503C33.1563 26.503 32.8864 26.568 32.5734 26.7058C32.4432 26.763 32.3068 26.814 32.1745 26.8635L32.1704 26.865L32.099 26.8914C32.0809 26.898 32.0638 26.9014 32.046 26.9014C32.014 26.9014 31.9794 26.8914 31.9316 26.8669C31.6874 26.7432 31.4267 26.6126 31.16 26.5045C31.121 26.4885 31.0747 26.4816 31.0185 26.4816C30.9767 26.4816 30.9329 26.4854 30.8898 26.4895L30.8314 26.4954C30.7293 26.502 30.6348 26.5058 30.5431 26.5058C30.3995 26.5058 30.2657 26.4973 30.1375 26.4797C30.436 26.4659 30.7661 26.4336 31.0931 26.3475C31.2012 26.3193 31.317 26.27 31.4479 26.1981C31.8285 25.988 32.1678 25.89 32.5164 25.89L32.5963 25.8907C33.1078 25.8907 33.6044 25.7575 34.1138 25.484C34.1943 25.4413 34.2149 25.4055 34.2251 25.3098C34.2802 25.3195 34.3345 25.3245 34.3878 25.3245C34.6367 25.3245 34.8628 25.2197 35.0785 25.0036C35.2596 24.8215 35.3601 24.5851 35.3782 24.2999C35.381 24.2563 35.3598 24.2032 35.3277 24.1743C35.1755 24.0359 35.0208 23.8993 34.8657 23.763L34.7788 23.6861C34.7997 23.6726 34.8222 23.6657 34.8457 23.6657C34.8682 23.6657 34.8914 23.6726 34.9136 23.6848C34.9694 23.7152 35.0201 23.7545 35.0732 23.7956C35.0788 23.8 35.0845 23.8044 35.0902 23.8088C35.1138 23.8283 35.1378 23.8467 35.162 23.8653L35.1654 23.8679L35.1745 23.8747C35.1943 23.8893 35.214 23.9039 35.2332 23.9197C35.2805 23.9567 35.3277 23.9925 35.3785 24.0249C35.4029 24.0399 35.427 24.0472 35.4495 24.0472C35.479 24.0472 35.5323 24.0343 35.5577 23.9473C35.6163 23.7448 35.6074 23.5432 35.531 23.3482C35.4815 23.2211 35.4219 23.0971 35.3636 22.9756L35.3626 22.9736C35.3585 22.9649 35.3543 22.9563 35.3501 22.9476C35.3295 22.9047 35.3088 22.8618 35.289 22.8185C35.2613 22.7582 35.2313 22.6979 35.202 22.6389L35.2015 22.6379C35.1343 22.5042 35.0655 22.3647 35.0198 22.2231C34.9837 22.1123 34.9737 21.9894 34.964 21.8701L34.9635 21.864C34.9594 21.8138 34.9553 21.7634 34.9494 21.7135C34.7265 19.8135 33.443 18.4092 31.5998 18.0481C31.4894 18.0266 31.3781 18.012 31.27 17.9978L31.2637 17.997C31.2304 17.9929 31.218 17.9835 31.2044 17.9539C31.094 17.7071 30.9722 17.5213 30.8203 17.3702C30.7851 17.3347 30.7452 17.2999 30.7014 17.2666C30.5856 17.1796 30.467 17.1344 30.3484 17.1344C30.2549 17.1344 30.1585 17.162 30.0617 17.217C29.6282 17.4635 29.274 17.8148 28.9787 18.2921C28.9597 18.3232 28.9302 18.3505 28.9042 18.3615C28.0016 18.7427 27.2485 19.3308 26.6025 20.1598C26.5123 20.2752 26.3981 20.3798 26.2974 20.472L26.2955 20.4738C25.619 21.0924 24.7957 21.5443 23.8485 21.819C23.2188 22.0021 22.569 22.1568 21.9405 22.3064L21.7671 22.3478C20.883 22.5582 19.9442 22.7962 19.0433 23.1928C18.0059 23.6487 17.1823 24.1762 16.5259 24.8045C15.5523 25.7362 14.9599 26.8839 14.7639 28.2155C14.7542 28.2814 14.7454 28.3475 14.7377 28.4137C15.539 29.7584 16.0001 31.3274 16.0001 33C16.0001 33.9395 15.8546 34.8464 15.585 35.6992C15.7158 35.6999 15.8464 35.7001 15.9775 35.7001C16.156 35.7001 16.3343 35.6996 16.5126 35.6991C16.5723 35.6989 16.632 35.6987 16.6917 35.6985C16.7512 35.6984 16.8108 35.6982 16.8703 35.698C17.0487 35.6975 17.2272 35.697 17.4053 35.697C18.918 35.697 22.083 35.6982 22.083 35.6982L23.1895 35.6973Z"
    fill="#E65270"/>
  <path
    d="M4.57739 24H5.28029C5.23924 23.893 5.19962 23.7855 5.1614 23.6776C5.08783 23.4703 5.02503 23.2543 4.96478 23.0455C4.95933 23.0268 4.95389 23.0081 4.94845 22.9893C4.92476 22.9077 4.901 22.8259 4.87598 22.7447C4.86837 22.7196 4.85822 22.6863 4.82556 22.6542L4.76372 22.594L4.72724 22.7981L4.72533 22.8085C4.70948 22.8948 4.69373 22.9805 4.68063 23.0662C4.63286 23.3774 4.59843 23.6892 4.57739 24Z"
    fill="#E65270"/>
  <path
    d="M11.3037 25.1008C11.9199 25.4385 12.4927 25.8462 13.0113 26.313C13.0934 26.293 13.1788 26.2753 13.2676 26.2596C13.4164 26.2326 13.5661 26.2116 13.7157 26.1907L13.7367 26.1877C13.9324 26.1607 14.1344 26.1325 14.3316 26.0935C14.5149 26.0574 14.6951 25.999 14.8698 25.9409C14.9108 25.9273 14.9518 25.914 14.9929 25.9007C15.0068 25.8962 15.0208 25.8917 15.0347 25.8872C15.0791 25.8731 15.1254 25.8329 15.147 25.7893C15.4013 25.274 15.7273 24.7951 16.1158 24.3643C16.1225 24.3568 16.1263 24.3496 16.131 24.3408L16.1916 24.2387L15.9611 24.2864L15.9584 24.287C15.8649 24.3072 15.7744 24.3268 15.6832 24.3404L15.4362 24.3781C15.0258 24.4409 14.6012 24.505 14.1823 24.5593L13.8616 24.6001L13.8599 24.6003C13.1123 24.6945 12.3391 24.7918 11.5983 25.0077C11.4974 25.0371 11.3992 25.0681 11.3037 25.1008Z"
    fill="#E65270"/>
  <path
    d="M13.2186 26.5055C13.712 26.9782 14.152 27.5063 14.5284 28.0795C14.5755 27.5618 14.6803 27.0395 14.8428 26.5137L14.86 26.4574L14.6297 26.448C14.5105 26.4424 14.3931 26.437 14.2755 26.4358L14.187 26.4355C13.8315 26.4355 13.5129 26.4582 13.2186 26.5055Z"
    fill="#E65270"/>
  <path opacity="0.2"
        d="M31.0139 26.4217C31.0139 26.4217 29.8294 27.8208 27.8179 27.0192C25.9753 26.2841 26.647 24.261 26.647 24.261C26.647 24.261 26.9737 25.5158 27.927 25.9912C29.3071 26.6798 31.0139 26.4217 31.0139 26.4217Z"
        fill="#430A1D"/>
  <path opacity="0.2"
        d="M25.1778 27.0208C25.4344 27.2789 25.4391 27.543 25.5197 27.8648C25.6716 28.4702 25.8584 28.9959 26.2478 29.4939C26.6223 29.9724 27.0705 30.3109 27.6492 30.531C28.1506 30.7213 28.7953 30.6651 28.6993 31.4043L28.5312 32.0266C27.25 32.0266 26.0496 31.4476 25.5606 30.1884C25.1318 29.0838 25.637 27.749 24.3374 25.8813C24.4414 26.0075 25.0449 26.8864 25.1778 27.0208Z"
        fill="#430A1D"/>
  <g opacity="0.2">
    <path d="M24.6705 26.4719C24.6901 26.5504 24.7079 26.6302 24.726 26.7096C24.6781 26.6515 24.6533 26.5774 24.6705 26.4719Z"
          fill="#2B2B2B"/>
  </g>
  <path opacity="0.2"
        d="M8.53556 29.4844C8.53556 29.4844 7.52201 29.5799 6.16943 27.9543C7.47348 30.2971 9.16349 30.3448 9.16349 30.3448L8.53556 29.4844Z"
        fill="#2B2B2B"/>
  <path
    d="M31.6168 21.8752C31.6609 21.7546 31.7367 21.6005 31.8321 21.5094C31.8543 21.5198 31.8781 21.521 31.8962 21.5323C32.0548 21.4306 32.3053 21.4441 32.5045 21.4441C32.6237 21.4441 32.7975 21.4114 32.9126 21.4557C33.0801 21.5201 33.061 21.6947 33.1311 21.8269C33.2624 22.0737 33.6671 22.0768 33.6687 22.4257C33.6699 22.5899 33.7115 22.8125 33.669 22.9733C33.6373 23.0926 33.5025 23.0562 33.3864 23.0562C33.0347 23.0562 32.684 23.0659 32.3316 23.0659L31.8445 22.7064C31.7145 22.7475 31.6127 22.4775 31.5949 22.3858C31.5657 22.2344 31.5619 22.025 31.6168 21.8752Z"
    fill="#F9E0E7"/>
  <path
    d="M33.2422 22.3531C33.3018 22.3289 33.3897 22.2344 33.4265 22.1788C33.4531 22.139 33.4455 22.1135 33.5026 22.1151C33.6513 22.1192 33.6526 22.3179 33.645 22.4206C33.6361 22.5519 33.5825 22.6725 33.5631 22.8015C33.5149 22.7896 33.4883 22.7296 33.4341 22.7145C33.3909 22.702 33.3291 22.7079 33.2841 22.7098C33.2181 22.7127 33.1268 22.7566 33.0671 22.7315L33.2422 22.3531Z"
    fill="white"/>
  <path
    d="M13.9775 15.8966C13.9997 15.8712 14.0054 15.8637 14.0124 15.8564C14.6578 15.2598 15 14.5069 15.1839 13.665C15.3047 13.1139 15.1506 12.6279 14.9001 12.1528C14.8956 12.1449 14.8877 12.1371 14.8791 12.1264C14.829 12.2815 14.7834 12.4338 14.7301 12.5836C14.5991 12.9529 14.4405 13.3102 14.1887 13.616C14.0882 13.7379 9.87161 16.0505 10.3058 21.1722C10.3086 21.2039 10.314 21.234 10.3185 21.2695C10.3965 21.1976 10.4647 21.1232 10.543 21.062C10.8236 20.8447 11.1478 20.7062 11.4858 20.6126C12.1045 20.4418 12.7274 20.2848 13.3509 20.1338C14.0603 19.9617 14.7739 19.8022 15.4582 19.5428C15.8451 19.3965 16.2048 19.2037 16.5482 18.9713C17.0601 18.6247 17.5018 18.2096 17.8824 17.7292C18.1041 17.4494 18.2075 17.2359 18.3074 16.9071C18.3705 17.0763 18.3375 17.548 18.2423 17.8488C18.144 18.1596 17.9769 18.4309 17.759 18.68C17.8114 18.6633 17.8684 18.6548 17.9151 18.6285C18.5182 18.2881 19.0526 17.8689 19.4471 17.2943C19.7116 16.9093 19.8727 16.4879 19.8952 16.0188C19.8956 16.0122 19.8984 16.0056 19.9006 15.9952C20.0262 16.5705 20.0081 17.5502 19.3529 18.2466C19.5844 18.1656 19.7938 18.0843 20.0081 18.0212C20.1854 17.9691 20.3024 17.8664 20.4004 17.7122C20.8305 17.0383 21.1869 16.3318 21.3797 15.5528C21.5288 14.9512 21.5659 14.347 21.3988 13.7426C21.2091 13.0593 20.7924 12.5334 20.2254 12.1154C19.8315 11.825 19.397 11.6096 18.941 11.4331C18.9134 11.4224 18.8858 11.4127 18.8588 11.4007C18.8544 11.3992 18.8522 11.3942 18.8347 11.3753C18.9927 11.4183 19.1344 11.4548 19.2743 11.4959C19.9276 11.6881 20.5536 11.9386 21.108 12.3399C21.6027 12.6979 21.9813 13.1444 22.1707 13.7316C22.3397 14.2572 22.3251 14.7885 22.2036 15.3198C22.0261 16.0945 21.6617 16.7846 21.2177 17.4381C21.204 17.4585 21.1907 17.4786 21.1777 17.4987C21.1758 17.5018 21.1761 17.5068 21.1736 17.5181C21.192 17.5115 21.2066 17.5068 21.2199 17.4996C22.1494 17.0289 22.9759 16.427 23.6342 15.6181C24.2736 14.8331 24.7388 13.9589 24.9599 12.9686C25.238 11.7188 24.9329 10.6091 24.1153 9.6304C23.5987 9.01087 22.96 8.54238 22.2528 8.16055C21.3404 7.66882 20.3697 7.34729 19.3425 7.19939C18.7583 7.11492 18.1735 7.09891 17.5897 7.21007C17.2687 7.27036 17.0607 7.35388 16.7049 7.55735C16.7499 7.51936 16.7927 7.47917 16.84 7.44494C17.1593 7.20473 17.5275 7.0807 17.9141 7.00314C18.5534 6.87503 19.1982 6.8766 19.8429 6.95101C20.8412 7.06657 21.793 7.34038 22.6943 7.78187C22.7824 7.82583 22.8696 7.87073 22.967 7.92034C22.967 7.83933 22.9622 7.76868 22.9683 7.69865C22.9765 7.59064 23.0314 7.52878 23.1173 7.51873C23.1991 7.50868 23.2473 7.53914 23.2632 7.6189C23.2762 7.68641 23.2797 7.7558 23.2895 7.82363C23.3117 7.97812 23.384 8.10906 23.4912 8.22272C23.5017 8.23434 23.5147 8.24439 23.5277 8.25318C23.5337 8.25789 23.5423 8.25758 23.5651 8.26197C23.5651 8.2064 23.5654 8.15521 23.5651 8.10435C23.5635 8.00104 23.5594 7.89742 23.5616 7.79411C23.5626 7.76868 23.5806 7.72786 23.5984 7.72283C23.6228 7.71624 23.6672 7.72848 23.6824 7.74764C23.7234 7.80102 23.7674 7.8588 23.7861 7.92222C23.8271 8.05662 23.8454 8.19729 23.8879 8.33074C23.9159 8.41709 23.9602 8.5025 24.0157 8.57409C24.0766 8.65259 24.1382 8.63532 24.1613 8.53924C24.1829 8.44943 24.1908 8.35618 24.2044 8.26449C24.2092 8.23277 24.2102 8.20012 24.22 8.1706C24.2279 8.14517 24.2466 8.12413 24.2606 8.10058C24.2815 8.11973 24.3123 8.13386 24.3215 8.15773C24.3427 8.21111 24.3636 8.26857 24.3662 8.32478C24.3728 8.44912 24.3611 8.57441 24.3703 8.69812C24.3751 8.76406 24.3973 8.8344 24.4299 8.89155C24.4661 8.95529 24.5241 8.94776 24.5441 8.87648C24.573 8.77474 24.5872 8.66955 24.6082 8.56562C24.6224 8.49528 24.6373 8.42526 24.6548 8.33922C24.7388 8.41018 24.7591 8.489 24.7674 8.5653C24.7889 8.76846 24.7994 8.97256 24.8175 9.17604C24.8314 9.32864 24.8844 9.46272 24.9754 9.59303C25.1406 9.8301 25.2868 10.081 25.4346 10.3297C25.5107 10.4572 25.5811 10.4688 25.6522 10.3375C25.7327 10.1884 25.7926 10.0292 25.8608 9.87312C25.8906 9.80498 25.9157 9.73559 25.9471 9.66839C25.9617 9.63574 25.9864 9.6081 26.0089 9.57419C26.0898 9.63228 26.1091 9.70827 26.0936 9.78363C26.0705 9.89699 26.0283 10.0072 25.9985 10.1193C25.9664 10.2418 25.9322 10.3639 25.9128 10.4889C25.9055 10.5391 25.9284 10.5994 25.9515 10.6481C25.9842 10.7187 26.0362 10.7272 26.092 10.6719C26.1488 10.6161 26.1929 10.5479 26.248 10.4911C26.2794 10.4584 26.3226 10.4386 26.3603 10.4129C26.3816 10.4587 26.4247 10.5065 26.4209 10.5504C26.413 10.6437 26.3904 10.7388 26.3559 10.8261C26.2855 11.0035 26.1906 11.1725 26.1301 11.3524C26.0863 11.483 26.0781 11.6259 26.0638 11.7644C26.06 11.7983 26.0885 11.8582 26.1155 11.868C26.1437 11.8777 26.1995 11.8501 26.2246 11.8228C26.3397 11.6978 26.4478 11.5656 26.5607 11.4372C26.5883 11.4051 26.6251 11.3825 26.6575 11.3549C26.6686 11.3606 26.679 11.3649 26.6901 11.3709C26.6793 11.4434 26.6822 11.5219 26.6556 11.5895C26.6102 11.7016 26.5541 11.8118 26.4894 11.9138C26.387 12.0762 26.2699 12.2285 26.165 12.3886C25.9709 12.6847 25.8424 13.0081 25.7619 13.3523C25.7038 13.5997 25.6214 13.8418 25.5491 14.0852C25.5405 14.1153 25.5297 14.1445 25.5285 14.1781C25.5916 14.0786 25.6531 13.9768 25.7184 13.8776C25.8551 13.6691 26.0127 13.4776 26.2246 13.3394C26.3311 13.2703 26.4456 13.2081 26.5649 13.1648C27.1779 12.9416 27.7976 12.734 28.382 12.4429C28.5482 12.3591 28.7071 12.2583 28.8584 12.149C29.0496 12.0115 29.1203 11.8196 29.0632 11.5873C29.0233 11.4259 28.9833 11.2648 28.9418 11.0968C28.8428 11.2532 28.7556 11.4039 28.6557 11.5452C28.5558 11.6865 28.4325 11.8064 28.2488 11.8871C28.2653 11.856 28.2701 11.8425 28.2783 11.8316C28.5358 11.4802 28.6843 11.0808 28.7991 10.6672C28.8108 10.6245 28.7975 10.573 28.7899 10.5269C28.7372 10.2254 28.7626 9.92336 28.7762 9.62098C28.7794 9.561 28.7794 9.49852 28.7708 9.43886C28.7674 9.41122 28.7445 9.37668 28.7207 9.36632C28.7046 9.3591 28.6624 9.38108 28.6481 9.40023C28.5891 9.4825 28.5232 9.5632 28.4835 9.65395C28.324 10.021 28.1711 10.3912 28.0189 10.7605C27.8293 11.2218 27.6155 11.6695 27.2898 12.0545C27.1427 12.2288 26.9749 12.3804 26.7691 12.4863C26.7298 12.506 26.6879 12.522 26.6438 12.5359C26.9625 12.2096 27.0342 11.7967 27.0485 11.3744C27.0672 10.8337 27.0564 10.2917 27.0618 9.75035C27.0675 9.16505 27.1164 8.58477 27.2927 8.02082C27.2993 7.99853 27.2882 7.96587 27.2759 7.94358C27.2261 7.84749 27.163 7.75769 27.1217 7.65846C27.0352 7.45028 26.9629 7.23676 26.8782 7.02732C26.8287 6.90423 26.8119 6.89512 26.6787 6.90454C26.5354 6.91459 26.4497 6.83326 26.3736 6.73247C26.3156 6.65617 26.2918 6.65805 26.2519 6.74754C26.2084 6.84488 26.1742 6.94505 26.1272 7.04082C26.111 7.07348 26.0698 7.09483 26.04 7.1212C26.0172 7.08792 25.9791 7.05526 25.9753 7.01978C25.9629 6.90391 25.9661 6.7871 25.9579 6.67092C25.9541 6.61315 25.9461 6.55474 25.9265 6.50073C25.917 6.4753 25.8776 6.44767 25.8494 6.44547C25.8291 6.4439 25.7939 6.47813 25.7854 6.50387C25.7565 6.58646 25.7394 6.67249 25.713 6.7557C25.6918 6.82259 25.6617 6.82981 25.6214 6.77517C25.328 6.37953 24.9367 6.09913 24.5184 5.84981C24.395 5.77633 24.2736 5.6994 24.1508 5.6253C24.1423 5.62812 24.1337 5.63126 24.1258 5.63346C24.1413 5.76817 24.1575 5.90256 24.173 6.03695C24.1619 6.04292 24.1508 6.04794 24.1401 6.05359C24.1014 6.02094 24.057 5.99393 24.0246 5.95563C23.9431 5.86048 23.8695 5.75937 23.7871 5.66455C23.6241 5.47489 23.4186 5.33924 23.221 5.29434C23.2835 5.50629 23.3431 5.70694 23.4021 5.90821C23.3929 5.91292 23.3828 5.91669 23.3736 5.92077C23.3529 5.89565 23.3292 5.87242 23.3123 5.8451C23.2645 5.76817 23.2172 5.69155 23.1734 5.61242C22.9851 5.27487 22.6946 5.08019 22.3134 5.02586C22.054 4.98881 21.7917 4.96432 21.5304 4.94674C21.3385 4.93355 21.1549 4.9056 20.9792 4.82239C20.8562 4.76744 20.7242 4.72976 20.5948 4.68706C20.573 4.67952 20.5444 4.68863 20.519 4.6902C20.5209 4.71751 20.5152 4.74923 20.5263 4.77184C20.5872 4.8899 20.6535 5.00514 20.7147 5.12321C20.7372 5.1656 20.7518 5.21238 20.7696 5.25728C20.7635 5.26388 20.7578 5.26984 20.7521 5.27644C20.7131 5.26356 20.6725 5.25477 20.6361 5.23719C20.4673 5.15618 20.2961 5.07987 20.1331 4.98881C19.9669 4.89587 19.7842 4.88833 19.6041 4.87326C19.0412 4.82647 18.4853 4.86384 17.9414 5.02681C17.6106 5.1254 17.3049 5.27424 17.036 5.5044C17.0699 5.50095 17.1048 5.50095 17.1378 5.49498C17.4663 5.4281 17.7949 5.3653 18.1329 5.37629C18.3629 5.38351 18.5871 5.41994 18.7894 5.53549C18.8214 5.5537 18.842 5.59201 18.868 5.62059C18.8227 5.63629 18.7751 5.66643 18.7317 5.66078C18.6267 5.64853 18.524 5.60991 18.4183 5.60143C18.0816 5.5716 17.7574 5.64853 17.4368 5.73614C16.6605 5.94715 15.9574 6.30605 15.3044 6.76795C15.1452 6.88005 14.98 6.98398 14.8148 7.08823C14.4926 7.29108 14.2316 7.55327 14.0254 7.87073C14.0013 7.90841 13.9788 7.94891 13.9636 7.99068C13.9214 8.10686 13.9525 8.20388 14.0635 8.26166C14.1424 8.30311 14.2306 8.33263 14.3181 8.35366C15.4785 8.63375 16.3427 9.58079 16.4765 10.7523C16.527 11.1916 16.5888 11.6322 16.5666 12.0777C16.5156 13.1004 16.1455 13.9916 15.456 14.7527C15.046 15.2055 14.5611 15.5657 14.0305 15.8687C14.02 15.8759 14.0086 15.8806 13.9775 15.8966Z"
    fill="url(#paint0_linear_3419_195)"/>
  <path opacity="0.2"
        d="M28.847 9.10756C28.3542 12.9189 26.6458 12.0564 25.5282 14.184C25.467 14.1037 25.3262 14.7543 25.6078 13.5463C25.8897 12.3371 26.6975 12.8831 27.4621 11.5003C28.4303 9.75221 28.2369 9.59552 28.847 9.10756Z"
        fill="#8B4FBA"/>
  <path opacity="0.3"
        d="M23.7433 9.17917C23.56 10.27 22.0023 10.2207 20.6694 9.75787C19.2207 9.25484 16.2114 9.09344 15.9691 9.6935C15.8483 9.83104 15.6057 9.26552 15.6057 9.26552C15.6057 9.26552 17.8913 6.79652 21.7175 9.40242C21.5618 9.16252 23.0926 8.46042 23.0926 8.46042C23.0926 8.46042 23.5531 8.32194 23.7433 9.17917Z"
        fill="white"/>
  <path opacity="0.2"
        d="M15.8154 19.6533C15.8985 19.8574 16.5752 19.7199 16.6386 19.4012C15.6403 18.2814 18.2687 16.2238 15.8445 13.5381C17.4312 17.6814 14.0537 17.85 15.8154 19.6533Z"
        fill="#8B4FBA"/>
  <path opacity="0.6"
        d="M15.8154 19.6533C15.8985 19.8574 15.8836 19.799 15.947 19.4803C14.9486 18.3603 17.6078 16.7271 15.8445 13.5381C17.4312 17.6814 14.0537 17.85 15.8154 19.6533Z"
        fill="#8B4FBA"/>
  <path
    d="M19.4536 18.8357C24.2511 13.8371 18.186 14.6742 16.2093 11.2814C16.2128 11.223 16.2169 11.1665 16.2169 11.1065C16.2169 10.6349 16.1015 10.1909 15.9004 9.79713C17.7505 12.5142 22.4409 10.1184 21.5298 15.6727C21.4477 15.9585 20.795 18.7732 19.4536 18.8357Z"
    fill="url(#paint1_linear_3419_195)"/>
  <path
    d="M19.4535 18.8357C17.4781 19.7956 15.7513 19.8235 15.8331 19.5387C19.7576 16.902 16.5895 14.185 15.8509 11.6255C15.9013 11.4189 16.2168 11.342 16.2168 11.1074C16.2168 11.0823 16.214 11.0584 16.2134 11.0336C16.2704 11.2877 16.4055 11.3759 16.5349 11.5046C18.3591 13.3265 24.1575 13.9353 19.4535 18.8357Z"
    fill="url(#paint2_linear_3419_195)"/>
  <path
    d="M18.8349 18.7613C21.873 14.2685 16.2014 13.415 16.2427 11.9907C15.7908 14.9204 21.227 16.1745 16.1193 19.681C16.0375 19.9655 16.8595 19.7212 18.8349 18.7613Z"
    fill="#E65271"/>
  <path
    d="M27.324 10.9567C27.5653 11.3558 27.2973 11.8268 27.0164 12.268C26.7569 12.6756 26.1306 12.5421 25.7056 13.5247L25.7421 12.7591C26.2131 11.9468 25.4164 10.8286 25.1947 10.0728C24.8174 8.78542 24.407 7.59755 24.9071 6.2913C24.941 6.20369 24.9699 6.1076 25.0042 6.01749C25.2534 6.19992 25.4418 6.38173 25.6565 6.65899C25.7983 6.843 25.7488 6.18422 25.9353 6.3227C26.0723 6.42286 25.9286 6.88884 26.0593 6.99655C26.2058 7.11901 26.2939 6.40999 26.4002 6.56699C26.6479 6.93563 26.7899 6.7017 26.8955 6.81223C26.991 6.91239 27.2143 7.68452 27.3043 7.78909C27.3925 7.89051 27.4765 7.99507 27.5596 8.10026C27.5095 8.66233 27.3991 9.2941 27.2165 9.80122C27.0443 10.2804 27.036 10.4801 27.324 10.9567Z"
    fill="url(#paint3_linear_3419_195)"/>
  <path
    d="M20.5708 5.08801C20.5854 5.09335 20.5981 5.09555 20.6057 5.09523C20.7386 5.09303 20.2477 4.48167 20.3888 4.48167C20.627 4.48167 20.9634 4.72534 21.1965 4.74324C21.6887 4.7806 22.199 4.76961 22.6351 4.96712C23.053 5.15678 23.2389 5.74553 23.3324 5.77034C23.4266 5.79609 23.105 5.08989 23.1973 5.1213C23.3537 5.17342 23.4786 5.25004 23.5817 5.33482C23.994 5.91918 24.1278 8.81522 23.523 8.74049C22.8875 8.66199 24.5255 8.9628 24.5321 8.93862C25.0798 6.89101 23.8595 5.63186 23.9147 5.70283C23.9867 5.79703 24.045 5.87019 24.1069 5.89374C24.2372 5.94335 24.026 5.40013 24.1449 5.47204C24.5233 5.70094 24.7916 5.86234 25.012 6.02499C25.0186 6.03441 25.0205 6.05702 25.0313 6.05263C25.1937 5.98574 26.1958 5.75244 25.4331 9.317C26.5913 6.9962 25.6846 6.0856 25.7734 6.18074C26.1847 6.62034 26.2688 7.6936 26.3217 8.33009C26.3718 8.92701 25.9925 10.2879 25.501 10.7379C25.155 11.0544 25.162 10.6625 25.0319 10.3598C24.8185 9.86273 24.4272 9.46207 24.072 9.05261C23.8075 8.74802 23.4866 8.5254 23.1957 8.25284C22.8789 7.9558 22.7121 7.54068 22.4289 7.21475C22.1758 6.92336 21.8644 6.69131 21.6237 6.38735C21.3538 6.04697 21.1731 5.65761 20.875 5.34424C20.7801 5.24376 20.6742 5.16839 20.5708 5.08801Z"
    fill="#E65271"/>
  <path
    d="M22.7918 4.76274C23.4997 4.76054 23.944 5.09621 24.5297 5.41712C25.0152 5.68434 25.6118 5.68685 26.0218 6.05486C26.5663 6.54439 26.802 7.02953 26.9044 7.74608C27.0214 8.56186 27.0354 9.60183 26.8797 10.4148C26.7997 10.8318 26.5004 11.6865 26.1848 11.9914L25.8062 11.7528C25.0593 9.8433 22.8083 9.05987 21.9565 7.18307C21.7053 6.63074 21.6108 5.91293 21.6048 5.30942C21.5981 4.67765 22.2762 4.76431 22.7918 4.76274Z"
    fill="url(#paint4_linear_3419_195)"/>
  <path
    d="M15.7484 9.5343C15.3368 8.90096 14.6851 8.43529 13.9195 8.26605C13.7248 8.22303 13.3759 8.10308 13.7213 7.69142C14.0907 7.12056 14.6216 6.90139 14.9074 6.69164C16.0563 5.84697 15.5813 5.76062 16.2517 5.684C16.5136 5.65386 16.4445 5.63125 16.5774 5.684C16.7103 5.73676 16.4753 5.64695 16.3912 5.592C15.6434 5.10184 15.6973 6.07965 16.0189 5.86832C16.976 5.13544 19.1807 4.6211 19.7988 4.72598C19.8889 4.74105 20.5102 5.0965 20.6053 5.09493C20.7382 5.09274 20.2473 4.48137 20.3884 4.48137C20.6265 4.48137 20.963 4.72504 21.1961 4.74294C21.6785 4.77968 23.1452 5.44568 23.1348 7.19907C23.1316 7.73475 23.1649 8.1103 23.0919 8.45979C22.5573 11.0246 17.1428 7.42515 15.7484 9.5343Z"
    fill="#F6E8A0"/>
  <path
    d="M22.2294 7.95331C21.9785 7.64307 20.3478 7.08384 20.3478 7.08384C20.3478 7.08384 17.6395 6.15973 15.1421 8.79138C16.4186 7.78814 18.6616 8.20891 20.2838 8.39417C20.4982 8.41898 19.8204 8.20482 19.998 8.13983C20.6006 7.91908 21.1584 8.53767 21.7591 8.41835C22.0391 8.36277 22.2075 8.21236 22.2294 7.95331Z"
    fill="white"/>
  <path
    d="M20.1522 7.51901C19.1577 7.25964 18.1635 7.63927 17.9719 7.65089C18.062 7.51681 18.2088 7.20751 18.9455 7.10075C19.1149 7.07595 19.4542 7.10295 19.6321 7.10264C19.9505 7.10201 20.1481 7.178 20.4291 7.31208C20.6083 7.39749 21.0415 7.48855 21.1791 7.4672C21.1791 7.4672 22.7032 7.58086 22.1984 8.09269C21.6941 8.6042 20.9577 7.43297 19.3423 7.80757C19.3426 7.75545 19.7117 7.49451 20.1522 7.51901Z"
    fill="#F6E8A0"/>
  <path
    d="M18.6445 5.39666C18.0159 4.98469 16.9171 5.33794 16.7743 5.33605C16.7712 5.32161 16.7797 5.3056 16.8054 5.28958C17.7628 4.5567 19.1814 4.62201 19.7995 4.72689C19.8042 4.72752 19.8109 4.72971 19.8179 4.73223C19.8207 4.73317 19.8252 4.73474 19.829 4.73631C19.9628 4.78718 20.4001 5.03116 20.5593 5.08485C21.4911 5.60767 22.9632 6.7117 23.0929 8.46069C22.5636 8.2277 22.1831 8.00068 21.8907 7.77962C21.7923 7.7052 19.5654 5.40074 13.6715 8.16961C13.6715 8.16961 13.5076 8.08044 13.6011 7.87194C14.9321 5.75431 17.3623 5.14608 21.2323 7.15162C20.6836 6.50414 20.4176 5.91727 18.6445 5.39666Z"
    fill="#F8D285"/>
  <path
    d="M22.4121 17.2983C24.5952 15.0881 25.4848 13.4367 24.4281 11.6585C22.7168 8.77662 17.4467 11.7826 15.1548 8.87491C15.3977 9.14966 15.914 9.69383 16.4135 9.96136C18.1124 11.0604 21.31 10.7068 22.329 11.5565C23.6397 12.6492 23.9746 14.8526 22.4121 17.2983Z"
    fill="url(#paint5_linear_3419_195)"/>
  <path
    d="M15.3004 12.6787C15.2979 12.8269 15.6404 13.6819 15.5868 13.8788C15.127 15.5597 13.1341 16.3842 13.1341 16.3842C13.1341 16.3842 10.9024 17.2735 10.5479 21.3379C10.1407 21.6281 10.1971 21.0104 10.2098 20.736C10.4632 15.4055 14.9421 16.0015 15.3004 12.6787Z"
    fill="url(#paint6_linear_3419_195)"/>
  <path opacity="0.2"
        d="M10.7837 23.6826C13.3601 20.6352 20.0446 22.2326 22.8931 21.4871C21.0896 22.513 19.6225 22.3355 19.6225 22.3355C19.6225 22.3355 13.4673 21.6626 10.7837 23.6826Z"
        fill="white"/>
  <path
    d="M30.4831 12.1182C30.3959 12.133 30.3315 12.1371 30.2726 12.1559C30.0404 12.2278 29.7984 12.2812 29.5809 12.3848C29.3738 12.4837 29.1819 12.6241 29.0024 12.7685C28.6545 13.0486 28.3225 13.3466 27.9794 13.6301C27.6984 13.8622 27.4 14.0697 27.0448 14.1775C26.9303 14.212 26.8114 14.2318 26.6915 14.2512C27.1545 14.0205 27.4136 13.6091 27.6822 13.1871C27.6594 13.1912 27.6511 13.1902 27.6451 13.1931C26.9392 13.535 26.2475 13.9002 25.6193 14.3734C25.4515 14.4999 25.3193 14.6437 25.2248 14.84C25.0738 15.1521 24.8826 15.4457 24.7088 15.7465C24.7012 15.76 24.6929 15.7732 24.6717 15.8093C24.8239 15.7776 24.9571 15.7566 25.0877 15.7236C25.6408 15.5836 26.1552 15.3465 26.6601 15.089C27.4488 14.6849 28.1991 14.2176 28.9279 13.7162C28.9498 13.7011 28.9723 13.6867 29.0015 13.6779C28.9948 13.687 28.9894 13.697 28.9815 13.7046C28.1173 14.5577 27.1482 15.2604 26.0154 15.7261C25.5254 15.9283 25.0177 16.063 24.489 16.1174C24.4693 16.1202 24.4437 16.1262 24.4326 16.1397C24.3149 16.2806 24.2001 16.4232 24.0701 16.5824C24.3923 16.5139 24.6958 16.454 24.9974 16.3846C25.8409 16.1905 26.668 15.944 27.458 15.5886C28.0415 15.3261 28.5975 15.0174 29.0659 14.5784C29.6836 13.9988 30.1384 13.313 30.4035 12.5098C30.4425 12.392 30.4546 12.2639 30.4831 12.1182Z"
    fill="#E65271"/>
  <path opacity="0.6"
        d="M15.8889 19.8747C16.1391 19.7915 16.4242 19.6885 16.7284 19.573C20.3139 18.4658 21.4987 17.5429 21.4987 17.5429L25.1004 14.9028C25.1004 14.9028 25.689 15.349 26.4507 14.7656C25.9316 15.3826 24.3386 15.8627 24.3386 15.8627C24.3386 15.8627 24.265 16.3481 23.7456 16.7253C25.1632 16.2483 27.5445 16.3849 29.1968 14.9119C27.9473 18.4111 24.8441 15.7437 21.845 17.92C21.4987 18.1257 16.9244 19.2834 19.1976 19.204C21.4705 19.1249 22.9683 20.6607 24.867 20.1573C23.0847 20.7972 21.5098 19.7717 19.0273 19.5993C19.4135 19.6759 19.9428 19.8866 20.1683 20.1746C19.2683 19.5384 17.5069 19.5092 17.0886 19.6546C16.7084 19.7023 16.3091 19.7739 15.8889 19.8747Z"
        fill="#8B4FBA"/>
  <path opacity="0.2"
        d="M24.489 20.9539C21.8767 21.9813 12.644 19.0052 8.49878 23.6223C8.49878 23.6223 8.18831 23.4848 9.83899 21.6526C16.3301 18.5804 21.161 21.4855 24.489 20.9539Z"
        fill="#2B2B2B"/>
  <path opacity="0.7"
        d="M28.5281 16.8612C29.301 16.4307 28.673 17.4829 27.9005 18.1044C24.8579 20.2082 23.4819 17.8142 20.4644 18.9663C25.0815 16.4464 25.5337 19.5868 28.5281 16.8612Z"
        fill="url(#paint7_radial_3419_195)"/>
  <path opacity="0.2"
        d="M28.2918 17.4584C29.065 17.0279 28.673 17.4829 27.9005 18.1047C24.8579 20.2085 23.4819 17.8145 20.4644 18.9666C23.4349 17.33 25.2978 20.1837 28.2918 17.4584Z"
        fill="#8B4FBA"/>
  <path opacity="0.7"
        d="M13.2703 16.3303C11.8629 17.6058 12.9665 20.3988 12.9665 20.3988L11.9647 20.6114C11.9647 20.6114 10.9537 17.9113 13.2703 16.3303Z"
        fill="url(#paint8_radial_3419_195)"/>
  <path opacity="0.7"
        d="M15.6996 14.1907C16.7604 16.0599 13.9471 18.6313 15.4579 19.5416C15.4338 19.6643 14.594 20.0813 14.6334 19.9608C12.7689 17.1281 15.8439 16.4527 15.4401 14.6818C13.284 17.5941 13.2608 18.1706 14.3083 20.0145C14.2953 20.0245 14.1802 20.1733 14.0657 20.0886C12.4277 18.8724 11.9666 17.5062 15.6996 14.1907Z"
        fill="url(#paint9_radial_3419_195)"/>
  <path opacity="0.2"
        d="M19.1663 17.9895C19.2335 18.8649 19.851 17.4428 19.9445 16.4612C20.0251 12.788 16.2636 13.6763 16.0917 10.7046C15.7257 14.0852 19.7961 14.0111 19.1663 17.9895Z"
        fill="#8B4FBA"/>
  <path opacity="0.3"
        d="M22.8134 16.5325C22.88 17.4079 24.6553 15.1546 24.7492 14.1734C24.1536 7.87102 17.6022 11.704 15.8894 9.38231C17.3041 11.9254 26.4614 8.38693 22.8134 16.5325Z"
        fill="white"/>
  <path
    d="M34.8003 28.804C34.7043 28.8875 34.6253 28.9635 34.5384 29.0295C34.4686 29.0819 34.3922 29.1284 34.3135 29.167C34.122 29.2587 33.9292 29.2706 33.7354 29.1689C33.4338 29.0106 33.1103 28.9987 32.7802 29.0345C32.6841 29.0445 32.6213 29.0898 32.5772 29.1786C32.2465 29.8525 31.6953 30.2852 31.0049 30.559C30.9259 30.5904 30.8888 30.6268 30.8749 30.7119C30.8397 30.9264 30.8251 31.1374 30.8765 31.3512C30.9599 31.6931 31.1749 31.9384 31.4641 32.1271C31.7673 32.3249 32.105 32.4414 32.4542 32.5281C32.8738 32.6308 33.2984 32.7002 33.7319 32.6989C33.9523 32.6986 34.1702 32.6731 34.382 32.6097C34.8555 32.4681 35.1476 32.155 35.2551 31.6818C35.3246 31.3744 35.3902 31.0639 35.4219 30.7515C35.4946 30.0352 35.3008 29.3924 34.8229 28.8411C34.8143 28.8304 34.8086 28.8175 34.8003 28.804Z"
    fill="url(#paint10_linear_3419_195)"/>
  <path opacity="0.3"
        d="M33.4322 28.8571C33.4681 29.0722 33.8759 29.1306 34.0652 29.1243C34.3985 29.1133 34.6142 28.9208 34.8308 28.6709C34.8657 28.63 34.8929 28.5898 34.9167 28.5487C35.2941 28.8467 35.505 29.2502 35.447 29.6618C35.3442 30.3872 34.442 30.8604 33.4325 30.72C32.7345 30.6227 32.1678 30.2569 31.9192 29.8006C32.1038 29.567 32.1761 29.2703 32.4193 29.0681C32.6562 28.8721 33.1243 28.8439 33.4322 28.8571Z"
        fill="#F6E8A0"/>
  <path
    d="M8.886 22.0366C9.10451 22.1434 9.25673 22.1666 9.39215 22.1183C9.23643 21.3333 9.15493 20.5417 9.18252 19.745C9.2136 18.8633 9.36773 18.0048 9.75843 17.201C9.80791 17.0989 9.86531 17 9.93254 16.9058C9.92842 16.9215 9.92588 16.9376 9.91986 16.952C9.7096 17.4748 9.61255 18.0205 9.58052 18.5807C9.53073 19.4537 9.63444 20.3128 9.82503 21.1634C9.82947 21.1841 9.83582 21.2042 9.84438 21.2344C9.96901 21.1515 10.0905 21.0723 10.2088 20.9891C10.223 20.9788 10.2234 20.9408 10.2202 20.9166C10.1596 20.4001 10.164 19.8838 10.2202 19.3673C10.3007 18.6294 10.4847 17.9182 10.7469 17.2255C11.1126 16.2584 11.6076 15.3603 12.2127 14.521C12.2267 14.5015 12.241 14.4821 12.2543 14.4623C12.2571 14.4579 12.2568 14.4525 12.2609 14.4365C12.1728 14.4673 12.0903 14.4952 12.0079 14.5248C11.451 14.7245 10.9055 14.9499 10.3803 15.2225C10.2982 15.2645 10.2189 15.3176 10.1495 15.3782C9.41022 16.0263 8.97448 16.8459 8.77754 17.7963C8.74805 17.9376 8.72712 18.0815 8.68748 18.2234C8.69636 18.0658 8.70048 17.9075 8.71443 17.7499C8.7804 16.9997 8.92215 16.2634 9.17745 15.5528C9.24246 15.3722 9.19711 15.2093 9.16952 15.0397C9.16096 14.987 9.12322 14.9386 9.09848 14.8881C9.05757 14.9273 9.00715 14.9603 8.97765 15.0067C8.76771 15.3374 8.63261 15.7004 8.52162 16.0728C8.35195 16.6424 8.25078 17.2283 8.16738 17.8168C8.09 18.3663 8.04052 18.9189 8.04306 19.4744C8.04592 20.0361 8.08936 20.5929 8.27806 21.1292C8.36781 21.3841 8.48863 21.6231 8.66274 21.8319C8.7249 21.9066 8.80133 21.9704 8.87078 22.0395C8.87617 22.0382 8.88093 22.0376 8.886 22.0366Z"
    fill="url(#paint11_linear_3419_195)"/>
  <path opacity="0.2"
        d="M11.4581 14.4566C11.4581 14.4566 10.0481 14.6528 9.45352 15.613C8.85858 16.5726 8.68765 18.223 8.68765 18.223C8.68765 18.223 8.3832 20.6845 9.39232 22.1179C8.75298 16.8615 11.4581 14.4566 11.4581 14.4566Z"
        fill="#2B2B2B"/>
  <path
    d="M32.0609 34.3295C31.9953 34.4281 31.9195 34.5273 31.8592 34.6366C31.8037 34.7358 31.7926 34.8489 31.8294 34.9606C31.8748 35.0988 31.9683 35.1519 32.1132 35.1318C32.2296 35.1142 32.3463 35.0966 32.4634 35.0928C32.5877 35.0888 32.5966 35.1054 32.6105 35.225C32.614 35.2568 32.6181 35.2894 32.6299 35.3183C32.6768 35.4367 32.7462 35.5387 32.8851 35.5569C33.0199 35.5745 33.1148 35.4998 33.1877 35.3971C33.4049 35.0925 33.2248 34.6809 32.8474 34.6313C32.7304 34.6159 32.6083 34.6347 32.4884 34.6379C32.4653 34.6388 32.4424 34.6429 32.4193 34.6448C32.4136 34.6382 32.4079 34.6306 32.4018 34.624C32.4342 34.5867 32.4592 34.5371 32.4998 34.5135C32.5861 34.4655 32.6781 34.4457 32.784 34.4576C33.43 34.5308 34.0462 34.4551 34.5942 34.0717C34.8983 33.8585 35.1228 33.5787 35.2947 33.254C35.2957 33.2518 35.2979 33.2496 35.2988 33.2475C35.3204 33.1884 35.3645 33.1165 35.3058 33.0716C35.2716 33.0452 35.1936 33.0569 35.1419 33.0735C34.9005 33.152 34.6662 33.2515 34.422 33.3175C34.0649 33.4142 33.6951 33.4173 33.3279 33.3975C32.8316 33.3712 32.3438 33.293 31.8751 33.1187C31.3496 32.9234 30.8755 32.6477 30.4642 32.2681C30.4169 32.2241 30.369 32.1811 30.3161 32.1456C30.2263 32.0866 30.1651 32.1158 30.1616 32.2232C30.1591 32.2992 30.1667 32.3773 30.1841 32.4521C30.3598 33.211 30.8251 33.7448 31.5123 34.0975C31.6921 34.1907 31.8855 34.2563 32.0609 34.3295Z"
    fill="#E65270"/>
  <path
    d="M27.3886 11.1982C27.7203 10.6302 28.0625 10.0835 28.1839 9.43945C28.2042 9.33175 28.1979 9.21714 28.1912 9.10598C28.1551 8.48489 28.2201 7.87855 28.4234 7.28697C28.4414 7.23453 28.4633 7.17926 28.4621 7.12588C28.4611 7.08161 28.438 7.03043 28.4082 6.99557C28.3701 6.9513 28.3184 6.967 28.2696 6.99463C28.1132 7.08224 27.9997 7.21098 27.9087 7.36076C27.7235 7.66188 27.6248 7.99536 27.556 8.33605C27.3673 9.27021 27.3388 10.2147 27.3759 11.1643C27.3762 11.1693 27.3794 11.1737 27.3886 11.1982Z"
    fill="url(#paint12_linear_3419_195)"/>
  <path opacity="0.4"
        d="M27.5838 7.57962C27.6441 7.45276 27.8921 7.17518 27.9917 7.09511L28.2159 6.9535C27.9907 7.52247 27.9098 8.10149 27.9098 8.70751C27.9098 9.21808 28.0687 9.69223 28.0938 10.2003C28.1141 10.6188 27.9298 10.8292 27.7104 11.1699C27.6114 11.3232 27.4763 11.6551 27.2613 11.6563C27.1617 11.4142 27.1779 11.1109 27.1754 10.8518C27.1725 10.5419 27.1224 10.2395 27.1348 9.92647C27.1582 9.33552 27.4804 7.79753 27.5838 7.57962Z"
        fill="#8B4FBA"/>
  <path
    d="M35.3036 32.0546C35.2941 32.0621 35.291 32.0634 35.29 32.0653C35.0461 32.5617 34.6126 32.7784 34.0887 32.822C33.2232 32.8949 32.393 32.7344 31.6052 32.3758C31.2732 32.2245 30.989 32.0047 30.8292 31.6668C30.7601 31.5208 30.7265 31.3581 30.6748 31.1977C30.5029 31.1967 30.2983 31.365 30.2847 31.5465C30.2803 31.6056 30.3053 31.6715 30.3323 31.7268C30.441 31.9494 30.6158 32.118 30.8064 32.2706C31.2963 32.6622 31.8574 32.9093 32.4656 33.055C33.2645 33.2465 34.0633 33.2522 34.8536 33.0151C35.0407 32.9589 35.218 32.8647 35.3918 32.773C35.5263 32.7017 35.5948 32.5799 35.5748 32.4213C35.5532 32.2505 35.4638 32.1281 35.3036 32.0546Z"
    fill="#E65270"/>
  <path opacity="0.4"
        d="M35.3036 32.0546C35.2941 32.0621 35.291 32.0634 35.29 32.0653C35.0461 32.5617 34.6126 32.7784 34.0887 32.822C33.2232 32.8949 32.393 32.7344 31.6052 32.3758C31.2732 32.2245 30.989 32.0047 30.8292 31.6668C30.7601 31.5208 30.7265 31.3581 30.6748 31.1977C30.5029 31.1967 30.2983 31.365 30.2847 31.5465C30.2803 31.6056 30.3053 31.6715 30.3323 31.7268C30.441 31.9494 30.6158 32.118 30.8064 32.2706C31.2963 32.6622 31.8574 32.9093 32.4656 33.055C33.2645 33.2465 34.0633 33.2522 34.8536 33.0151C35.0407 32.9589 35.218 32.8647 35.3918 32.773C35.5263 32.7017 35.5948 32.5799 35.5748 32.4213C35.5532 32.2505 35.4638 32.1281 35.3036 32.0546Z"
        fill="#2B2B2B"/>
  <path
    d="M26.6139 24.1759C26.6079 24.4827 26.6726 24.7712 26.8061 25.0451C27.0763 25.5949 27.5219 25.9544 28.08 26.1902C28.5668 26.3962 29.0777 26.4662 29.6042 26.4392C29.6108 26.4389 29.6175 26.4361 29.64 26.4292C29.2718 26.373 28.929 26.2822 28.5979 26.1513C28.0239 25.9243 27.5177 25.6015 27.1248 25.1201C26.9139 24.8626 26.755 24.5759 26.6466 24.2613C26.6371 24.2324 26.625 24.2042 26.6139 24.1759Z"
    fill="#0D0D0D"/>
  <path d="M30.9131 19.7858C31.4798 19.4433 31.6022 18.6385 31.2391 18.1784C31.3244 18.7531 31.2071 19.2869 30.9131 19.7858Z"
        fill="#0D0D0D"/>
  <path
    d="M31.8475 22.944C32.1247 23.1689 32.458 23.231 32.8059 23.2251C32.9448 23.2216 33.0831 23.199 33.222 23.1924C33.2971 23.189 33.3758 23.1937 33.4497 23.2097C33.5898 23.2414 33.6523 23.2201 33.7002 23.0869C33.8087 22.7833 33.8597 22.4686 33.8232 22.1481C33.8055 21.9942 33.7731 21.8366 33.7116 21.6956C33.4696 21.1357 32.7371 20.9055 32.1944 21.2114C32.1247 21.2506 32.0587 21.2965 31.9962 21.3473C31.9303 21.4004 31.8707 21.462 31.8022 21.5254C31.8326 21.5602 31.858 21.5938 31.8865 21.623C31.9522 21.6896 31.9769 21.7684 31.9569 21.857C31.8948 22.1352 32.0162 22.3327 32.2506 22.4592C32.418 22.5497 32.6013 22.6147 32.7837 22.6749C32.8776 22.7067 32.9743 22.7293 33.0726 22.7487C33.1027 22.7478 33.1154 22.7428 33.1389 22.7242C33.2851 22.6307 33.3897 22.5079 33.4544 22.3471C33.4893 22.442 33.4823 22.5996 33.4516 22.7167C33.4325 22.7889 33.4449 22.966 33.482 23.0175C33.4792 23.0207 33.4763 23.0241 33.4744 23.0269C33.457 23.0188 33.4398 23.01 33.4233 23.0003C33.2356 22.8863 33.0257 22.8502 32.8116 22.8238C32.5468 22.7905 32.2893 22.7305 32.0638 22.5795C31.7923 22.3977 31.6468 22.1449 31.6312 21.8199C31.6306 21.8099 31.629 21.8005 31.6255 21.7738C31.38 22.2488 31.4552 22.6253 31.8475 22.944Z"
    fill="#0D0D0D"/>
  <path
    d="M32.2068 21.9214C32.2068 22.2168 32.4488 22.4564 32.7465 22.4564C33.0453 22.4564 33.2873 22.2168 33.2873 21.9214C33.2873 21.6259 33.0453 21.3863 32.7465 21.3863C32.4488 21.3863 32.2068 21.6259 32.2068 21.9214Z"
    fill="url(#paint13_linear_3419_195)"/>
  <g clip-path="url(#clip0_3419_195)">
    <path
      d="M32.3843 21.8322C32.396 21.8322 32.4077 21.829 32.4181 21.8226L32.5457 21.7436C32.5643 21.7321 32.5757 21.7119 32.5757 21.6901V21.5321C32.5757 21.5103 32.5643 21.49 32.5457 21.4785L32.4181 21.3996C32.4077 21.3932 32.396 21.39 32.3843 21.39C32.3725 21.39 32.3608 21.3932 32.3504 21.3996L32.2228 21.4785C32.2042 21.49 32.1928 21.5103 32.1928 21.5321V21.6901C32.1928 21.7119 32.2042 21.7321 32.2228 21.7436L32.3504 21.8226C32.3608 21.829 32.3725 21.8322 32.3843 21.8322Z"
      fill="white"/>
  </g>
  <path
    d="M34.6223 30.9367C34.718 30.9957 34.8674 30.9706 34.9229 30.8663C35.1531 30.4324 35.1322 29.9268 34.9067 29.4954C34.7773 29.248 34.3898 29.4477 34.5189 29.6942C34.6727 29.989 34.7041 30.3514 34.5509 30.6406C34.496 30.7442 34.5157 30.8717 34.6223 30.9367Z"
    fill="white"/>
  <path
    d="M30.3769 19.8091C30.1108 19.2473 30.1076 19.0099 30.4019 18.4783C30.6239 18.077 31.2138 18.434 31.1339 17.986C31.1003 17.5966 30.6883 17.1689 30.6119 17.076C30.518 16.9658 30.4657 16.8574 30.3271 16.8854C30.2002 16.9111 30.08 16.9717 29.9779 17.0468C29.6173 17.3121 29.2831 17.6079 29.0123 17.9662C28.5229 18.6127 28.7246 19.0049 29.2977 19.5205C29.5403 19.7378 30.4054 19.869 30.3769 19.8091Z"
    fill="#E65270"/>
  <path opacity="0.2"
        d="M29.8464 17.6767C29.9875 17.5241 30.2073 17.3765 30.4366 17.2252C30.5584 17.1454 30.1959 18.1254 30.0903 18.387C29.744 19.2439 30.1978 19.7749 30.0728 19.7093C29.7982 19.5648 29.4059 19.0602 29.3786 18.7484C29.3482 18.4109 29.613 17.9295 29.8464 17.6767Z"
        fill="#2B2B2B"/>
  <path
    d="M30.2672 19.7567C30.0008 19.1952 29.998 18.9578 30.2926 18.4262C30.5143 18.0253 30.617 17.6211 30.5371 17.1724C30.5282 17.1225 30.5184 17.0716 30.5019 17.0233C30.4546 16.8886 30.3712 16.8226 30.2326 16.8509C30.1058 16.8766 29.9694 16.919 29.8679 16.9938C29.5074 17.2591 29.1731 17.5549 28.9023 17.9132C28.5268 18.409 28.568 18.7475 28.8525 19.1233C28.934 19.2307 28.9841 19.2276 29.0891 19.247C29.2248 19.2725 29.2524 19.0853 29.2093 19.0097C29.11 18.8357 29.0447 18.6608 29.0323 18.5233C29.0022 18.1854 29.1931 17.8186 29.4265 17.5659C29.6428 17.3316 30.0801 16.968 30.3785 16.8798C30.4505 17.1533 30.297 17.699 30.1997 17.964C30.0811 18.2878 29.7221 18.8784 29.8121 19.2634C29.8121 19.2634 29.9387 19.6195 30.0728 19.7099C30.207 19.7997 30.2672 19.7567 30.2672 19.7567Z"
    fill="#0D0D0D"/>
  <g opacity="0.2">
    <path d="M14.0991 26.237C14.0627 26.2389 14.0291 26.2352 14.0015 26.2204C14.036 26.2185 14.0687 26.2248 14.0991 26.237Z"
          fill="#8B4FBA"/>
  </g>
  <path opacity="0.2"
        d="M30.4934 30.9443C30.8045 30.4764 31.1543 30.3181 31.5495 29.9498C31.9253 29.6003 32.2139 29.1786 32.5881 28.8354C32.8811 28.896 33.2106 28.847 33.5113 28.8621C33.7263 29.3877 34.7703 28.8875 34.8657 28.5484L35.0043 28.7541C35.3053 29.341 34.2258 29.3802 33.6112 29.3193C33.1799 29.2769 31.3183 29.7614 31.3795 32.1387C31.1699 32.4574 30.6761 32.1463 30.6755 32.5617C30.6751 32.9868 30.6821 33.7367 31.0532 34.0074C30.9469 34.3782 30.5781 33.986 30.4763 33.8375C30.2486 33.505 29.9232 32.9162 29.8493 32.5221C29.7244 31.8489 30.1531 31.4558 30.4934 30.9443Z"
        fill="#430A1D"/>
  <path fill-rule="evenodd" clip-rule="evenodd" d="M7 26H0V40H6.99934H7C10.85 40 14 36.85 14 33C14 29.15 10.85 26 7 26"
        fill="url(#paint14_linear_3419_195)"/>
  <path
    d="M8.87113 22.0388C8.87621 22.0382 8.88096 22.0376 8.88604 22.0366C8.88392 22.0448 8.88258 22.0537 8.88123 22.0626C8.87832 22.0818 8.8754 22.1011 8.86479 22.1136C8.5207 22.496 8.23179 22.9152 8.00631 23.3768C8.00289 23.384 7.99807 23.3904 7.99249 23.3978C7.98927 23.4021 7.9858 23.4067 7.98221 23.412C7.81318 23.2233 7.66698 23.0267 7.5785 22.7865C7.55154 22.8851 7.52902 22.9815 7.523 23.0794C7.50365 23.3994 7.57437 23.7068 7.67617 24.0076C7.6782 24.0137 7.68003 24.0198 7.68166 24.0257C7.62101 24.0211 7.5602 24.0171 7.49923 24.0138C7.46456 23.9414 7.43793 23.8647 7.41084 23.7867C7.4037 23.7661 7.39653 23.7454 7.38917 23.7247C7.3232 23.812 7.30037 23.8999 7.2953 23.9941C7.29512 23.9977 7.29495 24.0013 7.2948 24.0048C7.1969 24.0016 7.09861 24 6.99997 24H6.5627C6.01046 23.1211 5.55923 22.1933 5.2463 21.2027C5.23425 21.1631 5.22981 21.1122 5.24376 21.0745C5.77464 19.6279 6.58524 18.3534 7.66381 17.2465C7.67181 17.2382 7.68101 17.2309 7.69223 17.2219C7.69924 17.2163 7.70703 17.2101 7.71582 17.2026C7.71555 17.2081 7.71533 17.2131 7.71513 17.2176C7.71436 17.2347 7.7139 17.2449 7.71264 17.2553C7.69937 17.3638 7.68523 17.4722 7.67109 17.5808C7.63727 17.8403 7.6034 18.1003 7.58103 18.3609C7.52554 19.0081 7.53664 19.6549 7.66698 20.2949C7.75451 20.7241 7.8969 21.1345 8.16741 21.4893C8.35294 21.7327 8.58032 21.9264 8.87113 22.0388Z"
    fill="url(#paint15_linear_3419_195)"/>
  <path
    d="M5.40699 24C4.96664 22.8226 4.75602 21.557 4.76967 20.2029C4.77924 20.2691 4.78783 20.3339 4.79628 20.3977C4.81498 20.5388 4.83298 20.6747 4.85941 20.8092C4.97739 21.4134 5.19748 21.9858 5.45499 22.5431C5.68575 23.0428 5.94313 23.5272 6.22043 24H5.40699Z"
    fill="url(#paint16_linear_3419_195)"/>
  <path
    d="M22.8574 21.4693C22.8693 21.4754 22.8812 21.4814 22.8933 21.4868L22.8895 21.5094C22.8825 21.5123 22.8756 21.5154 22.8686 21.5185C22.8501 21.5267 22.8314 21.5351 22.8118 21.539C22.6926 21.5625 22.5737 21.5875 22.4546 21.6125C22.1808 21.6701 21.9067 21.7277 21.6301 21.7669C20.9581 21.8614 20.2925 21.9767 19.642 22.1726C19.5868 22.1886 19.5256 22.1968 19.4686 22.1921C18.8157 22.1478 18.1635 22.1008 17.511 22.0538L17.4954 22.0527C16.7349 21.998 15.9747 21.9905 15.2148 22.0699C14.3522 22.1604 13.5176 22.3632 12.7092 22.6719C11.5987 23.0968 10.5875 23.695 9.63661 24.3955C9.14814 24.2451 8.64221 24.1352 8.1228 24.07C8.21483 23.9493 8.31878 23.8327 8.43486 23.7203C8.46213 23.6936 8.48116 23.6572 8.49892 23.6224C8.53183 23.5565 8.5628 23.4894 8.59378 23.4223C8.65414 23.2916 8.71448 23.161 8.7891 23.0389C9.11067 22.5155 9.56544 22.1224 10.0763 21.7895C10.755 21.3484 11.4974 21.0403 12.2633 20.7841C13.4709 20.3797 14.7138 20.1156 15.963 19.8779C16.4182 19.7912 16.8738 19.7061 17.3294 19.621C17.8922 19.5159 18.455 19.4107 19.017 19.3026C19.8101 19.15 20.5817 18.9346 21.312 18.5789C22.2279 18.133 23.0766 17.5967 23.7952 16.871C23.819 16.8465 23.8647 16.833 23.9008 16.8321C24.3813 16.8182 24.8585 16.774 25.3308 16.6857C26.6523 16.438 27.8631 15.928 28.9718 15.176C28.9808 15.1702 28.9901 15.1651 29.0009 15.1592C29.0118 15.1533 29.0242 15.1465 29.0393 15.1374C29.0367 15.1518 29.0348 15.1641 29.033 15.1751C29.03 15.1938 29.0277 15.2085 29.0241 15.2228C28.9309 15.631 28.81 16.0332 28.6524 16.4223C27.8821 18.3255 26.6018 19.7868 24.79 20.7854C24.6185 20.8799 24.4361 20.9646 24.249 21.0212C23.8656 21.1361 23.4663 21.138 23.069 21.137C22.9809 21.1368 22.8929 21.1363 22.8049 21.1358C22.6113 21.1347 22.4178 21.1336 22.2244 21.1358C22.176 21.1364 22.128 21.147 22.0798 21.1577C22.058 21.1625 22.0361 21.1673 22.0142 21.1713C22.014 21.1776 22.0138 21.1839 22.0136 21.1903C22.0133 21.1969 22.0131 21.2035 22.0129 21.2102C22.0325 21.2176 22.052 21.2256 22.0714 21.2335C22.112 21.2501 22.1525 21.2667 22.1943 21.2783C22.3031 21.309 22.4122 21.3379 22.5212 21.3669C22.6085 21.39 22.6959 21.4132 22.7829 21.4372C22.8087 21.4446 22.8331 21.457 22.8574 21.4693Z"
    fill="url(#paint17_linear_3419_195)"/>
  <path
    d="M10.9816 24.9327C11.2435 24.8416 11.5116 24.7678 11.7841 24.7082C12.445 24.5637 13.1116 24.4422 13.7779 24.3226C13.9073 24.2994 14.0369 24.2769 14.1664 24.2543C14.8465 24.136 15.5262 24.0177 16.1869 23.8114C16.3397 23.764 16.491 23.709 16.641 23.6525C16.8344 23.5806 17.0152 23.488 17.1836 23.3643C17.7411 22.9576 18.3519 22.6461 18.996 22.3968C19.0053 22.3933 19.0145 22.3895 19.0237 22.3858C19.0317 22.3825 19.0397 22.3792 19.0477 22.3761L19.0487 22.3725C19.0493 22.3702 19.05 22.3673 19.0515 22.3629C19.0489 22.3627 19.0463 22.3624 19.0437 22.3621C19.0363 22.3614 19.0294 22.3607 19.0223 22.3607C18.8105 22.3609 18.5985 22.3613 18.3865 22.3618C17.8776 22.3629 17.3685 22.364 16.8598 22.3613C16.2154 22.3573 15.5729 22.377 14.9336 22.4602C14.0484 22.5764 13.1919 22.8034 12.3578 23.1178C11.4278 23.4691 10.5448 23.9133 9.68844 24.4117C10.1353 24.5523 10.5674 24.727 10.9816 24.9327Z"
    fill="url(#paint18_linear_3419_195)"/>
  <path d="M4.3103 24H5.25307C4.9783 23.2924 4.77163 22.517 4.68884 21.688C4.46166 22.4911 4.35482 23.3 4.3103 24Z"
        fill="url(#paint19_linear_3419_195)"/>
  <path
    d="M13.233 26.5194C12.4487 25.7647 11.5287 25.1502 10.5142 24.717C12.9421 23.5487 16.3721 24.1854 16.3721 24.1854C16.3721 24.1854 15.2345 25.4784 14.8555 27.5226C14.7424 27.7186 14.6204 27.8837 14.4919 28.0244C14.1692 27.5407 13.8009 27.0896 13.3933 26.6775C13.8219 26.5421 14.2556 26.4783 14.6613 26.4937C14.1281 26.4643 13.654 26.4751 13.233 26.5194Z"
    fill="url(#paint20_linear_3419_195)"/>
  <path fill-rule="evenodd" clip-rule="evenodd"
        d="M4.01538 24C4.02363 23.8368 4.03521 23.6727 4.05011 23.5077C4.12115 22.7211 4.28859 21.9515 4.53057 21.1985C4.54325 21.159 4.55372 21.115 4.55086 21.0742C4.49536 20.2688 4.5534 19.4728 4.73987 18.6865C4.77122 18.5527 4.80839 18.42 4.84555 18.2874C4.86252 18.2268 4.87949 18.1663 4.8959 18.1056C4.83026 18.7572 4.85246 19.4021 4.96409 20.0499C4.96865 20.0458 4.9722 20.043 4.97496 20.0409C4.97871 20.0379 4.98102 20.0361 4.98248 20.0336C4.98407 20.0305 4.98566 20.0273 4.98726 20.0242C4.99524 20.0085 5.00326 19.9927 5.01039 19.9765C5.35131 19.2373 5.77119 18.5462 6.26306 17.8962C6.83739 17.1376 7.51479 16.4788 8.24198 15.8665C8.29018 15.826 8.32919 15.7676 8.35392 15.7095C8.38863 15.6284 8.41953 15.5457 8.45042 15.4631C8.47994 15.3841 8.50945 15.3051 8.5423 15.2275C8.66947 14.9267 8.80203 14.6265 9.01578 14.3731C9.0827 14.2943 9.168 14.2198 9.26092 14.1749C9.44645 14.0858 9.5251 14.1508 9.49782 14.3502C9.49719 14.3567 9.49579 14.3631 9.49438 14.3695C9.49294 14.376 9.49149 14.3826 9.49085 14.3894C9.48721 14.4201 9.48318 14.4509 9.47915 14.4817C9.46838 14.5638 9.4576 14.646 9.45438 14.7282C9.45089 14.813 9.48355 14.889 9.56315 14.9399C9.5654 14.9387 9.56763 14.9375 9.56986 14.9363C9.57988 14.931 9.58964 14.9258 9.59899 14.9204C10.4388 14.4199 11.3248 14.0132 12.2426 13.6754C12.5751 13.5529 12.9103 13.4376 13.2455 13.3224C13.4285 13.2595 13.6115 13.1965 13.794 13.1325C13.8362 13.1177 13.8812 13.0985 13.911 13.0675C14.4017 12.5632 14.6179 11.9631 14.5279 11.2654C14.486 10.9373 14.552 10.7228 14.7185 10.904C15.0052 11.2148 15.1736 11.5869 15.2915 11.9857C15.3072 12.0391 15.3211 12.0926 15.3357 12.1483C15.3433 12.1774 15.3511 12.2072 15.3594 12.2379C15.3812 12.2161 15.4025 12.1955 15.4231 12.1755C15.4632 12.1368 15.501 12.1003 15.5357 12.0614C16.0571 11.4777 16.2068 10.8183 15.9302 10.0816C15.7425 9.58297 15.4133 9.18418 14.9814 8.87301C14.5469 8.56057 14.076 8.3593 13.5194 8.44596C13.4217 8.46103 13.3491 8.40828 13.3167 8.31314C13.278 8.19727 13.2891 8.08047 13.3358 7.96994L13.3438 7.95104C13.4024 7.81368 13.4616 7.67479 13.5356 7.54509C13.9142 6.87721 14.4483 6.35031 15.0708 5.90663C15.9226 5.29997 16.8737 4.91406 17.886 4.66537C18.5507 4.50115 19.2259 4.40318 19.909 4.3611C20.0121 4.35451 20.0926 4.25937 20.1583 4.17804C20.1703 4.16315 20.1842 4.13934 20.199 4.11391C20.2302 4.06052 20.2655 4 20.2968 4H20.4418C20.5552 4 20.6678 4.06342 20.7812 4.12723C20.8663 4.17513 20.9518 4.22325 21.0383 4.24492C21.1563 4.27413 21.2825 4.30176 21.4049 4.3118C21.4597 4.31632 21.5145 4.3239 21.5694 4.33149C21.6481 4.34238 21.727 4.35329 21.8061 4.35514C21.8479 4.35577 21.9006 4.34289 21.9301 4.314C21.9764 4.26816 22.0201 4.25529 22.0798 4.27852C22.0825 4.27981 22.0854 4.28092 22.0883 4.28204C22.0932 4.28392 22.0981 4.28582 22.1023 4.28857C22.331 4.43098 22.5877 4.48128 22.844 4.53152C22.9256 4.54752 23.0073 4.56351 23.0879 4.58248C24.1839 4.83996 25.1978 5.28082 26.1251 5.91542C26.147 5.9308 26.1695 5.94556 26.192 5.95969C26.1947 5.96132 26.1982 5.96163 26.206 5.96233C26.2102 5.96271 26.2157 5.9632 26.2231 5.96409C26.221 5.94674 26.2189 5.92962 26.2169 5.91265C26.2103 5.85867 26.204 5.80634 26.1968 5.75402C26.1903 5.70488 26.1826 5.65591 26.1737 5.59937C26.1705 5.5786 26.1671 5.5568 26.1635 5.53359C26.1766 5.54161 26.1873 5.54792 26.1963 5.55326C26.2124 5.56276 26.2233 5.56917 26.2333 5.57661C26.4629 5.75779 26.6297 5.9845 26.7318 6.25768C26.7527 6.31389 26.7759 6.37135 26.8066 6.42347C26.8412 6.48282 26.8751 6.48251 26.9189 6.43007C26.9292 6.4175 26.9384 6.40387 26.9475 6.39026C26.9532 6.38177 26.9589 6.37328 26.9649 6.36507C27.022 6.28625 27.0569 6.28437 27.1038 6.37104C27.1688 6.49193 27.2316 6.61627 27.2795 6.74532C27.354 6.94691 27.497 7.09418 27.654 7.24522L27.656 7.24118C27.6729 7.20719 27.687 7.17878 27.7025 7.15007C27.9004 6.78363 28.1979 6.52772 28.5892 6.38202C28.6622 6.35471 28.7453 6.34246 28.8242 6.34089C28.9831 6.33838 29.0678 6.44953 29.0237 6.59994C28.999 6.68284 28.9625 6.76354 28.9241 6.84204C28.7754 7.14411 28.6546 7.45403 28.6225 7.79253C28.5972 8.06665 28.6118 8.33952 28.6714 8.60768C28.6793 8.6429 28.6983 8.67621 28.7212 8.71627C28.733 8.73692 28.7458 8.75936 28.7586 8.78477C28.7717 8.76332 28.7834 8.7451 28.794 8.72869C28.8116 8.7014 28.826 8.67914 28.8379 8.6554C29.0056 8.31534 29.3148 8.27703 29.6142 8.34234C29.6252 8.34461 29.6355 8.35053 29.648 8.35779C29.6545 8.3616 29.6617 8.36577 29.67 8.36998C29.6636 8.37735 29.6581 8.38444 29.653 8.39105C29.6438 8.40301 29.6358 8.41336 29.6256 8.42084C29.4185 8.57471 29.332 8.79388 29.2914 9.03535C29.2235 9.44104 29.293 9.83448 29.416 10.2194C29.5768 10.7237 29.716 11.2321 29.7969 11.7549C29.8031 11.7967 29.8107 11.8378 29.8184 11.8795L29.82 11.8881C29.8202 11.8912 29.8226 11.8941 29.8262 11.8985C29.8279 11.9006 29.8299 11.903 29.8321 11.906C30.134 11.7339 30.4286 11.5521 30.6785 11.3072C30.7042 11.2817 30.7331 11.2541 30.7664 11.2406C30.8288 11.2158 30.8907 11.2742 30.8881 11.3665C30.885 11.4934 30.8742 11.6212 30.8583 11.7471C30.8019 12.1999 30.6852 12.6366 30.5168 13.0605C30.512 13.0722 30.5098 13.0847 30.5193 13.107C30.53 13.0938 30.5411 13.0811 30.5521 13.0685C30.5727 13.0449 30.5931 13.0217 30.61 12.9959C30.6267 12.9705 30.6418 12.9439 30.6569 12.9174C30.6772 12.8814 30.6977 12.8454 30.7223 12.8122C30.7348 12.7952 30.7572 12.785 30.7797 12.7747C30.7901 12.77 30.8006 12.7652 30.8101 12.7597C30.8145 12.7689 30.8203 12.7781 30.8261 12.7873C30.8386 12.8072 30.8511 12.827 30.8498 12.8461C30.8434 12.9381 30.8333 13.0307 30.812 13.1208C30.7302 13.465 30.5767 13.7746 30.3262 14.0305C30.2402 14.1187 30.1521 14.2049 30.064 14.2911C29.9919 14.3616 29.9198 14.4321 29.8489 14.5037C29.8226 14.5298 29.7978 14.5671 29.7915 14.6017C29.6034 15.7048 29.1946 16.7168 28.5521 17.6368C28.5468 17.6445 28.5413 17.6521 28.5356 17.6599C28.5142 17.6892 28.4923 17.7193 28.4843 17.7524C28.4754 17.7879 28.4805 17.8488 28.503 17.8638C28.5322 17.8839 28.5883 17.8795 28.6263 17.8673C28.6514 17.8589 28.6709 17.8288 28.6881 17.8024C28.6903 17.7991 28.6924 17.7958 28.6945 17.7926C28.9371 17.418 29.2292 17.0867 29.5984 16.8317C29.7334 16.7374 29.8858 16.6678 30.0365 16.599L30.0569 16.5896C30.1673 16.5403 30.2843 16.5494 30.4017 16.5899C30.8536 16.7463 31.1675 17.0474 31.3584 17.476C31.3924 17.5514 31.433 17.5759 31.51 17.5838C32.3844 17.6758 33.1737 17.9759 33.847 18.5459C34.5139 19.1107 34.9294 19.8308 35.1625 20.6616C35.2715 21.0507 35.3255 21.4498 35.361 21.8526C35.3743 21.9944 35.4278 22.135 35.4798 22.2715C35.5214 22.3794 35.5678 22.4863 35.6141 22.5929C35.6768 22.7372 35.7394 22.8816 35.7907 23.0295C35.9315 23.4361 35.9115 23.8318 35.6683 24.2042C35.6465 24.2374 35.6413 24.2813 35.6362 24.3248C35.6343 24.3409 35.6323 24.357 35.6296 24.3725C35.5294 24.9383 35.0679 25.3851 34.4936 25.4721C34.4603 25.4775 34.4273 25.4925 34.3978 25.5101C33.9535 25.7726 33.4804 25.9569 32.9644 26.0188C32.8027 26.038 32.6384 26.0424 32.4751 26.0424C32.2572 26.0424 32.0495 26.0847 31.8484 26.1632C31.8116 26.1777 31.7698 26.2176 31.7622 26.2527C31.7574 26.2717 31.7901 26.3009 31.8181 26.3258C31.824 26.3311 31.8297 26.3362 31.8348 26.341C31.843 26.3481 31.854 26.3526 31.8652 26.3572C31.8768 26.3619 31.8885 26.3667 31.8976 26.3746C32.0032 26.4659 32.1075 26.4393 32.2217 26.3859C32.4801 26.2647 32.7411 26.1453 33.0272 26.0979C33.4639 26.026 33.8876 26.0665 34.2872 26.2659C34.4854 26.3645 34.6354 26.5105 34.708 26.725C34.7182 26.754 34.7416 26.7794 34.7634 26.803L34.7673 26.8073C35.027 27.0858 35.1758 27.4054 35.1273 27.7913C35.1087 27.9425 35.0769 28.0921 35.0451 28.2415C35.0367 28.2811 35.0282 28.3207 35.0201 28.3603C35.0109 28.4046 35.0131 28.4354 35.048 28.4715C35.6401 29.0879 35.9077 29.8273 35.8529 30.6707C35.8372 30.9103 35.7921 31.1478 35.747 31.3853C35.7251 31.5002 35.7033 31.615 35.6848 31.7302C35.6803 31.76 35.6819 31.804 35.7003 31.8222C35.9933 32.0998 36.0568 32.4348 35.9543 32.8088C35.6975 33.7433 35.0914 34.3568 34.1733 34.6733C34.0357 34.7209 33.8936 34.7551 33.7521 34.7892C33.6891 34.8043 33.6263 34.8194 33.5641 34.8357C33.5703 34.8642 33.5775 34.8935 33.5848 34.9235C33.6004 34.9869 33.6166 35.0532 33.6256 35.1202C33.6773 35.5026 33.4899 35.9064 33.0437 35.9808C33.0402 35.9815 33.0368 35.9861 33.0334 35.9907C33.0298 35.9957 33.0262 36.0006 33.0224 36.0006H32.8455C32.5921 35.8499 32.4243 35.7475 32.3558 35.4901C32.35 35.4677 32.3454 35.4427 32.341 35.4185C32.339 35.4073 32.337 35.3964 32.3349 35.3858C32.0977 35.4844 31.8471 35.4671 31.6296 35.3472C31.5341 35.2941 31.4672 35.2194 31.4307 35.1164C31.3705 34.9475 31.3642 34.7766 31.4171 34.6077C31.4355 34.5481 31.4216 34.5254 31.3683 34.4997C30.9544 34.2987 30.5884 34.034 30.2913 33.6823C29.9608 33.2902 29.7579 32.8455 29.7363 32.3287C29.7224 32.0087 29.7902 31.7004 29.8869 31.3986C29.9694 31.1424 30.134 30.9502 30.3858 30.835C30.4038 30.8268 30.4163 30.8066 30.4287 30.7863C30.4345 30.7769 30.4403 30.7675 30.4467 30.7593C30.3552 30.7651 30.2698 30.7783 30.1869 30.7911C30.1161 30.8021 30.0471 30.8128 29.9776 30.8183C29.7105 30.8391 29.4427 30.8511 29.1747 30.863C29.1268 30.8652 29.0789 30.8673 29.031 30.8695C28.9238 30.8745 28.887 30.9078 28.8911 31.0152C28.8914 31.0219 28.8918 31.0287 28.8923 31.0355C28.8929 31.0445 28.8936 31.0537 28.8943 31.0629C28.9133 31.2705 28.8978 31.4762 28.8448 31.6787C28.6993 32.2351 28.3952 32.6936 27.9534 33.0656C27.9352 33.0805 27.9226 33.1019 27.9099 33.1234C27.9041 33.1334 27.8983 33.1433 27.8919 33.1526C27.9033 33.1569 27.9146 33.1616 27.926 33.1664C27.95 33.1765 27.9741 33.1866 27.9991 33.1919C28.019 33.1964 28.0409 33.1935 28.0623 33.1907C28.0678 33.19 28.0733 33.1893 28.0787 33.1887C28.1167 33.1849 28.1547 33.1804 28.1928 33.1758C28.2694 33.1668 28.3461 33.1577 28.4227 33.1539C28.8506 33.135 29.2565 33.2095 29.6104 33.4651C30.0924 33.8139 30.2834 34.4614 30.0598 34.976C29.9041 35.3324 29.624 35.5525 29.2612 35.6769C28.8915 35.8044 28.5058 35.8298 28.1192 35.8304C26.8364 35.8337 25.5534 35.834 24.2704 35.8342C23.9285 35.8343 23.5865 35.8344 23.2446 35.8345C22.5735 35.8346 21.9024 35.8342 21.2313 35.8338C19.4868 35.8328 17.7422 35.8317 15.9975 35.8392C15.8449 35.8398 15.6926 35.8389 15.5405 35.836C15.5769 35.727 15.6112 35.6171 15.6435 35.5064C15.995 35.508 16.3466 35.5067 16.6982 35.5054C16.9339 35.5045 17.1696 35.5036 17.4052 35.5036C18.1617 35.5036 18.918 35.5037 19.6742 35.5039C20.4302 35.504 21.186 35.5042 21.9418 35.5042C22.1688 35.5044 22.3957 35.5041 22.6226 35.5039C23.2402 35.5032 23.8578 35.5026 24.4754 35.5102C24.6328 35.512 24.7899 35.5158 24.9465 35.5196C25.5668 35.5348 26.1814 35.5497 26.7936 35.4404C26.8098 35.4376 26.8259 35.4347 26.8421 35.4317C26.9524 35.4118 27.0643 35.3915 27.1751 35.3918C27.3096 35.3921 27.4463 35.4122 27.5782 35.4426C27.6056 35.4489 27.633 35.4554 27.6604 35.4619C27.8526 35.5073 28.0446 35.5527 28.2436 35.5252C28.3495 35.5108 28.4662 35.4872 28.5525 35.4304C28.7443 35.3035 28.7694 35.1042 28.7177 34.8975C28.6936 34.8018 28.6447 34.7101 28.5968 34.6222C28.5471 34.5305 28.4526 34.501 28.3536 34.4809C28.424 34.4454 28.497 34.4325 28.5727 34.4564C28.7297 34.5063 28.8303 34.6115 28.8528 34.7732C28.8624 34.8399 28.8621 34.9083 28.8617 34.9767C28.8615 35.0094 28.8614 35.0421 28.8623 35.0746C28.8627 35.0986 28.8628 35.1225 28.8628 35.1465C28.8628 35.2071 28.8629 35.2676 28.8699 35.3277C28.8778 35.3968 28.9283 35.4301 28.9999 35.4342C29.2463 35.448 29.4379 35.2904 29.4503 35.0483C29.4667 34.7295 29.3437 34.4652 29.1163 34.2315C29.1282 34.2351 29.1404 34.2379 29.1525 34.2407C29.1758 34.2461 29.199 34.2515 29.2203 34.262C29.391 34.3455 29.4667 34.4975 29.513 34.6696C29.5159 34.6801 29.5179 34.6915 29.5198 34.7028C29.524 34.7275 29.5281 34.7521 29.5422 34.7675C29.5758 34.8037 29.624 34.8498 29.665 34.8486C29.7103 34.8473 29.7715 34.8074 29.7953 34.7669C29.8448 34.685 29.8378 34.5879 29.8086 34.4966C29.6662 34.0507 29.3497 33.7897 28.901 33.6836C28.4963 33.5872 28.1021 33.6453 27.7222 33.8026C27.5869 33.8586 27.4526 33.9163 27.3182 33.9739C27.2559 34.0006 27.1937 34.0273 27.1314 34.0538C27.0946 34.0698 27.0572 34.0846 27.0194 34.0971C26.7784 34.1766 26.7641 34.1386 26.753 33.899C26.7467 33.7649 26.8085 33.6475 26.91 33.5621C27.0274 33.4619 27.1523 33.3693 27.2811 33.2842C27.5456 33.1074 27.81 32.9306 28.0212 32.6885C28.267 32.4078 28.4497 32.0938 28.5223 31.7239C28.5693 31.4887 28.5442 31.2604 28.4573 31.0369C28.4265 30.9587 28.3777 30.9041 28.2997 30.8789C28.1421 30.8287 27.9835 30.7797 27.8237 30.7354C27.3042 30.5907 26.833 30.3662 26.4578 29.968C26.232 29.7284 26.0702 29.4493 25.924 29.1579C25.7043 28.7227 25.5283 28.2683 25.403 27.8001C25.1683 26.9234 24.607 26.3055 23.8563 25.8342C23.2252 25.4385 22.5307 25.2181 21.7896 25.1443C21.6108 25.1264 21.431 25.1178 21.2436 25.1089C21.152 25.1045 21.0587 25.1 20.9628 25.0944C21.0148 25.0828 21.0649 25.0711 21.1139 25.0597C21.2231 25.0342 21.3266 25.0101 21.4312 24.9917C22.2301 24.851 23.0014 24.9267 23.727 25.3054C24.373 25.6426 24.8445 26.1538 25.2038 26.7749C25.4271 27.1618 25.5952 27.5712 25.7211 27.997C25.7467 28.0835 25.7696 28.171 25.7926 28.2584C25.8398 28.4383 25.887 28.618 25.957 28.7886C26.3772 29.8132 27.1561 30.4038 28.255 30.5593C29.0151 30.6673 29.7744 30.6409 30.5133 30.4007C31.0832 30.2158 31.5773 29.9162 31.9531 29.4433C32.1148 29.2389 32.236 29.0134 32.3095 28.7597C32.344 28.7676 32.378 28.7758 32.4116 28.7841C32.4697 28.7983 32.5268 28.8122 32.5845 28.8232C32.7754 28.859 32.9592 28.8177 33.1445 28.776L33.1639 28.7717C33.2458 28.7535 33.3314 28.7499 33.4168 28.7464C33.4405 28.7454 33.4641 28.7444 33.4877 28.7431C33.5067 28.7418 33.5349 28.7597 33.5448 28.7767C33.6196 28.9051 33.742 28.9588 33.879 28.9886C34.2945 29.0794 34.7784 28.7199 34.7914 28.3135C34.7958 28.1675 34.7518 28.0463 34.6278 27.9622C34.5733 27.925 34.5172 27.8905 34.46 27.8554C34.4303 27.8371 34.4002 27.8186 34.3699 27.7995C34.4397 27.7468 34.5092 27.7741 34.5758 27.8074C34.7137 27.8768 34.7606 27.8507 34.7756 27.6937C34.7927 27.5069 34.7337 27.3486 34.5942 27.2211C34.5713 27.2005 34.5474 27.1808 34.5235 27.1612C34.4979 27.1401 34.4722 27.119 34.448 27.0968C34.4315 27.0817 34.4131 27.0594 34.4115 27.0393C34.4026 26.8961 34.3132 26.8082 34.2 26.7391C34.0252 26.6333 33.8299 26.5897 33.6294 26.5627C33.2631 26.5127 32.9235 26.6006 32.5918 26.7467C32.4463 26.8108 32.2968 26.8661 32.1474 26.9214L32.1148 26.9335C32.0431 26.9599 31.981 26.9426 31.9103 26.9065C31.6581 26.7781 31.4041 26.6518 31.1422 26.5463C31.0703 26.5176 30.9814 26.5261 30.896 26.5343C30.8751 26.5363 30.8544 26.5383 30.8342 26.5397C30.5168 26.5627 30.2019 26.5532 29.8911 26.4807C29.8711 26.476 29.8511 26.4691 29.8311 26.4468C29.8376 26.4465 29.844 26.4461 29.8504 26.4458C29.8756 26.4445 29.9007 26.4432 29.9263 26.4427C30.3157 26.4327 30.7032 26.4041 31.0806 26.3049C31.2002 26.2735 31.3166 26.2194 31.425 26.1595C31.7745 25.966 32.1408 25.8386 32.5471 25.8455C33.0992 25.8558 33.6098 25.7035 34.0915 25.4451C34.1657 25.4056 34.1746 25.3836 34.1835 25.2558C34.5298 25.3362 34.8085 25.2093 35.0454 24.9716C35.2297 24.787 35.3156 24.5543 35.3318 24.2978C35.3337 24.2673 35.3182 24.2277 35.2966 24.2083C35.1544 24.0783 35.0101 23.9513 34.8655 23.8241C34.826 23.7893 34.7865 23.7545 34.747 23.7197C34.7356 23.709 34.7226 23.6999 34.7071 23.6883C34.7743 23.612 34.8596 23.6035 34.9348 23.6446C34.9997 23.6798 35.0583 23.7259 35.1171 23.7722C35.1419 23.7917 35.1667 23.8112 35.1919 23.8299C35.2152 23.8471 35.2381 23.865 35.261 23.8828C35.3069 23.9186 35.3528 23.9544 35.4019 23.985C35.4542 24.0174 35.4935 23.9998 35.5129 23.9332C35.5693 23.7395 35.5601 23.5473 35.4878 23.363C35.4382 23.2358 35.3791 23.1128 35.3199 22.9897C35.2952 22.9383 35.2705 22.8869 35.2465 22.8351C35.2186 22.775 35.189 22.7155 35.1594 22.6559C35.0907 22.5177 35.022 22.3795 34.975 22.2344C34.9374 22.1177 34.9273 21.9922 34.9172 21.8665C34.9132 21.8163 34.9091 21.7661 34.9034 21.7163C34.6766 19.784 33.376 18.44 31.59 18.0902C31.4799 18.0692 31.3683 18.0538 31.257 18.0394C31.2097 18.0334 31.1824 18.0155 31.1621 17.97C31.0683 17.7599 30.9525 17.564 30.7873 17.3994C30.7518 17.3646 30.7131 17.3313 30.6728 17.3005C30.6141 17.2553 30.5545 17.2233 30.4946 17.2029C30.4885 17.1718 30.4816 17.1413 30.4714 17.1109C30.4331 17.0032 30.3655 16.9495 30.2532 16.9724C30.1502 16.9925 30.0401 17.0273 29.9573 17.0879C29.665 17.303 29.3935 17.5426 29.174 17.8334C29.0196 18.0406 28.9203 18.2391 28.8636 18.4272C27.9658 18.8184 27.236 19.4188 26.6376 20.1856C26.5469 20.303 26.4359 20.4057 26.3259 20.5062C25.6155 21.1549 24.7817 21.5939 23.8608 21.8611C23.2325 22.0444 22.5945 22.1963 21.9578 22.3479C21.8977 22.3622 21.8376 22.3765 21.7775 22.3908C20.8521 22.6119 19.9344 22.8496 19.0613 23.2339C18.1422 23.6383 17.2857 24.1401 16.5572 24.8372C15.5852 25.7676 15.0033 26.8968 14.8089 28.2222C14.7962 28.3078 14.7853 28.3933 14.776 28.4787C14.684 28.3214 14.5874 28.1671 14.4863 28.016C14.537 27.5145 14.6417 27.0094 14.799 26.5005C14.7439 26.4983 14.6893 26.4959 14.635 26.4935C14.5139 26.4881 14.3944 26.4827 14.2748 26.481C13.9331 26.4778 13.594 26.4939 13.2599 26.5454C13.1664 26.4547 13.071 26.366 12.9737 26.2794C13.0657 26.2567 13.1612 26.2355 13.2603 26.216C13.4342 26.1821 13.6101 26.1585 13.786 26.1349C13.9658 26.1107 14.1456 26.0865 14.3233 26.0515C14.5002 26.0163 14.6729 25.9597 14.8451 25.9033C14.9038 25.884 14.9625 25.8648 15.0213 25.8464C15.0556 25.8357 15.0914 25.8037 15.107 25.7714C15.3657 25.2482 15.6911 24.7713 16.0821 24.337C16.0853 24.3333 16.0878 24.329 16.0915 24.3224C16.094 24.3179 16.0971 24.3124 16.1015 24.3053C16.0577 24.3142 16.0149 24.3235 15.9726 24.3327C15.8769 24.3534 15.7844 24.3735 15.6911 24.3872C15.6045 24.4003 15.518 24.4135 15.4314 24.4267C15.0178 24.4897 14.6043 24.5526 14.1892 24.6061C14.0798 24.6203 13.9703 24.6342 13.8609 24.648C13.1043 24.7438 12.3478 24.8395 11.6125 25.0529C11.5275 25.0778 11.4433 25.1041 11.36 25.132C11.2351 25.0623 11.1084 24.9956 10.9799 24.9319C11.2423 24.8405 11.5109 24.7665 11.7837 24.7069C12.4446 24.5625 13.1109 24.4403 13.7775 24.3213C13.908 24.298 14.0385 24.2753 14.1691 24.2526C14.8482 24.1344 15.5271 24.0163 16.1865 23.8101C16.3397 23.7624 16.4906 23.7074 16.6406 23.6512C16.8341 23.5793 17.0148 23.4867 17.1832 23.363C17.7407 22.9563 18.3515 22.6448 18.9956 22.3955C19.0067 22.3914 19.0175 22.3868 19.0284 22.3823C19.0347 22.3797 19.041 22.377 19.0473 22.3745C19.048 22.374 19.0484 22.3727 19.0491 22.3708C19.0496 22.3692 19.0503 22.367 19.0515 22.3644C19.0488 22.3642 19.0462 22.3639 19.0437 22.3637C19.0363 22.3629 19.0294 22.3622 19.0223 22.3622C18.7959 22.3623 18.5694 22.3628 18.3429 22.3632C17.8485 22.3642 17.3539 22.3651 16.8598 22.3626C16.2153 22.3585 15.5731 22.3776 14.9335 22.4615C14.0484 22.5776 13.1918 22.8047 12.3577 23.119C11.4282 23.4696 10.5457 23.914 9.68976 24.4121C9.67245 24.4066 9.65512 24.4012 9.63777 24.3959C10.5885 23.6957 11.5991 23.0979 12.7091 22.6731C13.5172 22.3641 14.3519 22.1613 15.2148 22.0712C15.9743 21.9917 16.7348 21.9989 17.4953 22.0539C18.1533 22.1013 18.8108 22.1484 19.4685 22.1933C19.5256 22.1971 19.5868 22.1892 19.642 22.1729C20.2924 21.977 20.9584 21.8617 21.6301 21.7669C21.9042 21.7283 22.176 21.6713 22.4475 21.6145C22.5689 21.5891 22.6902 21.5636 22.8117 21.5399C22.8302 21.5358 22.8479 21.5279 22.8654 21.5201C22.8734 21.5165 22.8814 21.5129 22.8894 21.5097L22.8932 21.4871C22.8814 21.4817 22.8697 21.4758 22.8581 21.47C22.8334 21.4574 22.8088 21.445 22.7828 21.4375C22.6958 21.4135 22.6085 21.3903 22.5211 21.3671C22.4121 21.3382 22.303 21.3093 22.1942 21.2786C22.1528 21.2668 22.1126 21.2504 22.0724 21.2339C22.0526 21.2258 22.0328 21.2177 22.0128 21.2102C22.013 21.2034 22.0133 21.1968 22.0135 21.1902C22.0137 21.1838 22.014 21.1775 22.0141 21.1712C22.0358 21.1673 22.0575 21.1626 22.0791 21.1578C22.1274 21.1471 22.1758 21.1364 22.2244 21.1357C22.4178 21.1336 22.6114 21.1347 22.805 21.1358C22.893 21.1363 22.9809 21.1368 23.0689 21.137C23.4663 21.1379 23.8655 21.1361 24.249 21.0211C24.4361 20.9646 24.6184 20.8798 24.79 20.7853C26.6014 19.7868 27.882 18.3254 28.652 16.421C28.8096 16.032 28.9305 15.6307 29.0237 15.2215C29.0277 15.2057 29.0303 15.1895 29.0338 15.1677C29.0353 15.1583 29.0369 15.1479 29.0389 15.1361C29.0238 15.1452 29.0114 15.152 29.0005 15.1579C28.9897 15.1638 28.9804 15.1689 28.9714 15.1747C27.8627 15.9268 26.6519 16.4364 25.3304 16.6844C24.8582 16.7727 24.3809 16.8173 23.9004 16.8308C23.8643 16.832 23.8186 16.8452 23.7948 16.8697C23.0765 17.5947 22.2282 18.1311 21.312 18.5776C20.5816 18.934 19.81 19.1494 19.0166 19.3013C18.4546 19.4094 17.8918 19.5146 17.3291 19.6197C16.8734 19.7048 16.4178 19.7899 15.9626 19.8766C14.7134 20.1143 13.4705 20.3784 12.2629 20.7828C11.497 21.039 10.7549 21.3471 10.076 21.7882C9.56474 22.1211 9.11029 22.5148 8.78871 23.0377C8.71384 23.1599 8.65334 23.291 8.59277 23.4222C8.562 23.4888 8.53122 23.5555 8.49854 23.6211C8.48078 23.6566 8.46175 23.6924 8.43447 23.719C8.31804 23.8318 8.21382 23.9487 8.12159 24.0699C7.97607 24.0516 7.8295 24.0369 7.68196 24.0257C7.68027 24.0194 7.67835 24.0131 7.67621 24.0067C7.57441 23.7059 7.50369 23.3991 7.52304 23.0785C7.52906 22.9802 7.55158 22.8835 7.57853 22.7855C7.66701 23.0251 7.81321 23.2214 7.98224 23.411C7.98584 23.4057 7.98927 23.4012 7.99245 23.3969C7.99796 23.3896 8.00273 23.3832 8.00635 23.3758C8.23183 22.9149 8.52074 22.4957 8.86483 22.1126C8.87526 22.1006 8.87825 22.0813 8.88124 22.0619C8.88261 22.0531 8.88398 22.0442 8.88607 22.036C9.1049 22.1428 9.2568 22.1657 9.39222 22.1176C9.2365 21.3326 9.155 20.5407 9.18259 19.7444C9.21335 18.8627 9.3678 18.0045 9.75851 17.2004C9.80798 17.0983 9.86538 17.0003 9.93261 16.9052C9.93126 16.9101 9.93008 16.9152 9.92889 16.9202C9.92645 16.9307 9.92398 16.9412 9.91993 16.9514C9.70967 17.4745 9.61294 18.0205 9.58059 18.5801C9.53049 19.4536 9.63419 20.3121 9.8251 21.1628C9.82806 21.177 9.832 21.1905 9.83674 21.2068C9.83912 21.2149 9.8417 21.2238 9.84445 21.2337C9.86592 21.2195 9.88732 21.2054 9.90864 21.1913C10.0107 21.124 10.111 21.0578 10.2088 20.9885C10.2231 20.9781 10.2234 20.9401 10.2203 20.9159C10.1597 20.3994 10.1641 19.8832 10.2203 19.3667C10.3008 18.6294 10.4847 17.9175 10.747 17.2248C11.1127 16.258 11.6077 15.3597 12.2128 14.5203C12.2179 14.5132 12.223 14.506 12.2281 14.4989C12.237 14.4864 12.2459 14.474 12.2543 14.4616C12.256 14.459 12.2566 14.4561 12.2577 14.4508C12.2584 14.4472 12.2593 14.4424 12.261 14.4359L12.2489 14.4401C12.165 14.4689 12.0866 14.4959 12.0082 14.5232C11.4514 14.7229 10.9059 14.949 10.3807 15.2209C10.2986 15.263 10.2193 15.316 10.1498 15.3766C9.41061 16.0247 8.97487 16.8443 8.77793 17.7948C8.76845 17.8402 8.75985 17.8859 8.75123 17.9317C8.73304 18.0284 8.71476 18.1255 8.68787 18.2218C8.69077 18.1703 8.69316 18.1187 8.69556 18.0671C8.70049 17.9608 8.70543 17.8544 8.71482 17.7483C8.78079 16.9978 8.92254 16.2621 9.17784 15.5512C9.23377 15.3961 9.20825 15.2539 9.18225 15.109C9.17804 15.0854 9.1738 15.0619 9.16991 15.0381C9.16384 15.0021 9.14433 14.9681 9.12478 14.9341C9.1157 14.9183 9.10662 14.9025 9.09887 14.8865C9.08603 14.8988 9.07226 14.9105 9.05848 14.9223C9.02837 14.948 8.99828 14.9737 8.97804 15.0052C8.76778 15.3358 8.633 15.6988 8.522 16.0712C8.35234 16.6417 8.25117 17.2267 8.16777 17.8152C8.09007 18.365 8.0406 18.9167 8.04345 19.4728C8.0463 20.0352 8.08944 20.5916 8.27845 21.1276C8.3682 21.3822 8.48902 21.6215 8.66313 21.8303C8.70577 21.8818 8.75499 21.9278 8.80432 21.974C8.82689 21.9951 8.84948 22.0162 8.87149 22.0379C8.58036 21.9255 8.35297 21.7314 8.16745 21.4884C7.89725 21.1332 7.75454 20.7232 7.66701 20.2939C7.53667 19.654 7.52557 19.0074 7.58107 18.36C7.60335 18.1007 7.63707 17.8418 7.67077 17.5829C7.68503 17.4734 7.69929 17.3639 7.71268 17.2544C7.71392 17.2441 7.71438 17.2338 7.71513 17.2172C7.71534 17.2126 7.71557 17.2074 7.71585 17.2016C7.70707 17.2091 7.69928 17.2153 7.69227 17.2209C7.68105 17.2299 7.67185 17.2373 7.66384 17.2456C6.58496 18.3524 5.77468 19.6276 5.2438 21.0736C5.22985 21.1113 5.23429 21.1621 5.24634 21.2017C5.55938 22.1933 6.01082 23.1205 6.56334 24H6.22045C5.94315 23.5272 5.68577 23.0428 5.45501 22.5431C5.1975 21.9851 4.97741 21.4133 4.85943 20.8086C4.8335 20.677 4.81582 20.5437 4.79749 20.4055C4.7887 20.3392 4.77976 20.2717 4.76968 20.2028C4.75604 21.557 4.96666 22.8225 5.40701 24H5.23126C5.1926 23.899 5.15512 23.7972 5.11885 23.6949C5.04538 23.4868 4.98384 23.2746 4.92231 23.0625C4.893 22.9614 4.8637 22.8604 4.83311 22.7598C4.82582 22.7353 4.81789 22.7114 4.79379 22.6879C4.78577 22.7338 4.77731 22.7797 4.76885 22.8256C4.75355 22.9085 4.73826 22.9914 4.7256 23.0747C4.67857 23.3825 4.64417 23.6909 4.62308 24H4.01538ZM28.4298 7.26969C28.4464 7.22258 28.4635 7.17365 28.4624 7.12621C28.4614 7.08194 28.438 7.03075 28.4088 6.99716C28.3704 6.95288 28.3187 6.9689 28.2702 6.99622C28.1139 7.08414 28.0003 7.21288 27.9093 7.36234C27.7241 7.66347 27.6258 7.99631 27.5567 8.33763C27.3683 9.27179 27.3397 10.2173 27.3765 11.1659C27.3765 11.1679 27.3775 11.1701 27.3798 11.1757C27.3818 11.1804 27.3847 11.1874 27.3889 11.1985C27.4141 11.1554 27.4394 11.1123 27.4646 11.0694C27.7713 10.5468 28.072 10.0346 28.1843 9.43978C28.2046 9.33239 28.1982 9.21747 28.1916 9.10631C28.1551 8.48553 28.2201 7.87888 28.4237 7.28729C28.4257 7.28146 28.4278 7.27559 28.4298 7.26969ZM28.3821 12.4492C28.5483 12.366 28.7072 12.2642 28.8585 12.1559C29.0494 12.0181 29.1204 11.8262 29.0637 11.5916L28.9422 11.1012C28.9132 11.1472 28.8851 11.1927 28.8574 11.2376C28.791 11.3453 28.7266 11.4496 28.6562 11.5496C28.5563 11.6906 28.4329 11.8105 28.2493 11.8915C28.2558 11.8792 28.2605 11.8696 28.2644 11.8619C28.2702 11.8501 28.274 11.8426 28.2788 11.8359C28.5363 11.4846 28.685 11.0852 28.7995 10.6716C28.8093 10.6363 28.8017 10.5945 28.7944 10.5548C28.793 10.5468 28.7916 10.539 28.7903 10.5313C28.7446 10.2693 28.7577 10.0068 28.7709 9.74414C28.7729 9.70455 28.7749 9.66496 28.7767 9.62536C28.7795 9.5657 28.7795 9.5029 28.7713 9.44324C28.7678 9.41655 28.7449 9.38138 28.7212 9.37102C28.705 9.36285 28.6628 9.38515 28.6485 9.40461C28.6367 9.42121 28.6246 9.43771 28.6124 9.45423C28.5641 9.51993 28.5156 9.58588 28.4839 9.65864C28.3244 10.0254 28.1713 10.395 28.0193 10.7649C27.8297 11.2268 27.6156 11.6733 27.2903 12.0589C27.1431 12.2335 26.975 12.3851 26.7695 12.4906C26.7302 12.5107 26.6883 12.5264 26.6443 12.5402C26.963 12.2143 27.0347 11.8017 27.0489 11.3787C27.061 11.0295 27.0608 10.6799 27.0606 10.3302C27.0605 10.1384 27.0603 9.94657 27.0622 9.75473C27.0679 9.16943 27.1168 8.58883 27.2931 8.0252C27.2995 8.00291 27.2887 7.97056 27.2763 7.94795C27.2576 7.9121 27.237 7.87696 27.2164 7.84179C27.1822 7.78333 27.1479 7.7248 27.1222 7.66284C27.075 7.54975 27.0322 7.43509 26.9893 7.32036C26.9533 7.22388 26.9173 7.12736 26.8786 7.0317C26.8291 6.90892 26.8123 6.89919 26.6791 6.90923C26.5358 6.91928 26.4502 6.83796 26.3741 6.73716C26.316 6.66086 26.2922 6.66243 26.2523 6.75223C26.234 6.79304 26.2173 6.83451 26.2006 6.87595C26.1776 6.93304 26.1547 6.99007 26.1277 7.0452C26.1167 7.06827 26.0935 7.08531 26.0702 7.10238C26.06 7.10993 26.0497 7.11749 26.0404 7.12558C26.0337 7.11585 26.0256 7.10611 26.0175 7.09632C25.9981 7.07293 25.9784 7.04917 25.9757 7.02416C25.9685 6.9565 25.9665 6.88841 25.9645 6.82027C25.963 6.77204 25.9616 6.72377 25.9583 6.67562C25.9545 6.61753 25.9466 6.55881 25.9269 6.50543C25.9174 6.47999 25.8781 6.45236 25.8498 6.45016C25.8295 6.44891 25.7943 6.48314 25.7858 6.50826C25.7696 6.55448 25.7571 6.60179 25.7447 6.64908C25.7349 6.68627 25.7251 6.72345 25.7135 6.76008C25.6922 6.82634 25.6621 6.83419 25.6218 6.77955C25.3285 6.38391 24.9368 6.10319 24.5188 5.85387C24.4552 5.81556 24.3919 5.77666 24.3287 5.73779C24.2696 5.70146 24.2106 5.66515 24.1513 5.62936C24.1434 5.63138 24.1356 5.63418 24.1282 5.63681L24.1262 5.63752C24.1376 5.7387 24.1496 5.83936 24.1615 5.94001C24.1655 5.97367 24.1695 6.00733 24.1735 6.04102C24.1676 6.04432 24.1618 6.0472 24.156 6.05005C24.1508 6.05261 24.1456 6.05515 24.1405 6.05797C24.1278 6.04728 24.1146 6.03712 24.1013 6.02697C24.0742 6.00614 24.047 5.98535 24.0251 5.96001C23.9857 5.91425 23.9482 5.86695 23.9107 5.8196C23.8705 5.76883 23.8302 5.718 23.7875 5.66893C23.6245 5.47895 23.419 5.34362 23.2214 5.29903L23.4025 5.91259C23.3965 5.9159 23.39 5.91853 23.3837 5.9211C23.3804 5.92243 23.3771 5.92376 23.374 5.92515C23.3678 5.91774 23.3614 5.91046 23.355 5.90318C23.3399 5.88609 23.3248 5.86895 23.3128 5.84979C23.2649 5.77286 23.218 5.69562 23.1739 5.6168C22.9855 5.27925 22.695 5.08457 22.3138 5.03025C22.0541 4.99351 21.7921 4.96902 21.5308 4.95112C21.3389 4.93824 21.1556 4.90998 20.9796 4.82708C20.8821 4.78178 20.779 4.74872 20.676 4.71568C20.649 4.70704 20.6221 4.6984 20.5953 4.68955C20.5805 4.68447 20.5627 4.6871 20.5449 4.68974C20.5363 4.69101 20.5277 4.69228 20.5195 4.69269C20.5199 4.7008 20.5198 4.70933 20.5196 4.7179C20.5193 4.73817 20.519 4.75866 20.5268 4.77433C20.5566 4.83198 20.5877 4.88895 20.6188 4.9459C20.6514 5.0056 20.684 5.06528 20.7151 5.1257C20.7313 5.15643 20.7434 5.1891 20.7556 5.22186C20.7603 5.23463 20.765 5.24741 20.77 5.26009C20.7676 5.26268 20.7653 5.26512 20.763 5.26753C20.7595 5.27127 20.756 5.27493 20.7526 5.27893C20.7404 5.27491 20.728 5.27128 20.7157 5.26767C20.6886 5.2597 20.6616 5.25177 20.6365 5.23968C20.5959 5.22019 20.5552 5.20098 20.5144 5.18176C20.3859 5.1211 20.2573 5.06046 20.1335 4.99131C19.9814 4.90592 19.8154 4.89266 19.6502 4.87946C19.635 4.87824 19.6197 4.87703 19.6045 4.87575C19.0416 4.82897 18.4857 4.86571 17.9418 5.0293C17.611 5.12758 17.3056 5.27642 17.0364 5.5069C17.0466 5.50605 17.0569 5.50546 17.0672 5.50486C17.0911 5.50348 17.1151 5.50209 17.1382 5.49748C17.4667 5.43122 17.7956 5.3678 18.1334 5.3791C18.363 5.38664 18.5872 5.42243 18.7898 5.53799C18.8113 5.54998 18.8276 5.57112 18.8439 5.59218C18.8519 5.60256 18.8599 5.61291 18.8685 5.62214C18.8539 5.62652 18.8391 5.63258 18.8244 5.63863C18.7927 5.65165 18.7611 5.66462 18.7315 5.66076C18.6825 5.65505 18.6341 5.64362 18.5856 5.63217C18.5301 5.61906 18.4745 5.60594 18.4181 5.60142C18.0813 5.57221 17.7572 5.64914 17.4366 5.73612C16.66 5.94713 15.9572 6.30572 15.3042 6.76793C15.1488 6.87799 14.9876 6.97937 14.8263 7.08084L14.8146 7.08822C14.4927 7.29138 14.2314 7.55357 14.0252 7.87071C14.0011 7.90839 13.9786 7.9489 13.9634 7.99066C13.9212 8.10684 13.952 8.20293 14.0633 8.26165C14.1422 8.30278 14.2307 8.33261 14.3179 8.35365C15.4786 8.63342 16.3425 9.5814 16.4763 10.7523C16.4823 10.8046 16.4885 10.8568 16.4946 10.9091C16.5403 11.2968 16.586 11.6851 16.5664 12.0777C16.5153 13.1007 16.1453 13.9916 15.4558 14.7527C15.0457 15.2061 14.5609 15.566 14.0303 15.8687C14.0241 15.8728 14.0176 15.8759 14.0069 15.8811C13.9995 15.8846 13.9901 15.8892 13.9773 15.8957C13.988 15.8836 13.9948 15.8754 13.9998 15.8694C14.0053 15.8629 14.0086 15.8589 14.0122 15.8555C14.6576 15.2589 14.9998 14.5065 15.1837 13.6641C15.3042 13.1133 15.1501 12.6275 14.8999 12.1518C14.8973 12.147 14.8932 12.1422 14.8884 12.1367C14.8854 12.1333 14.8822 12.1296 14.8789 12.1254C14.8645 12.1701 14.8505 12.2145 14.8366 12.2586C14.802 12.368 14.7679 12.4759 14.7299 12.5826C14.5989 12.9519 14.4492 13.3171 14.1885 13.6151C14.0269 13.7997 13.7986 14.0148 13.5334 14.2647C12.329 15.3992 10.3615 17.2529 10.395 20.2496C10.3985 20.5599 10.4927 20.9505 10.5428 21.061C10.8234 20.8431 11.1479 20.7052 11.4856 20.6117C12.1043 20.4405 12.7272 20.2839 13.3507 20.1328C13.4313 20.1133 13.512 20.0939 13.5927 20.0745C14.2222 19.9233 14.8517 19.772 15.458 19.5419C15.8449 19.3955 16.2046 19.2031 16.548 18.9704C17.0602 18.625 17.5019 18.2096 17.8825 17.7298C18.1042 17.45 18.2079 17.2358 18.3075 16.9071C18.3706 17.0763 18.3376 17.548 18.2425 17.8488C18.1445 18.1596 17.9773 18.4309 17.7591 18.6799C17.7755 18.6747 17.7924 18.6703 17.8092 18.6659C17.8462 18.6562 17.8832 18.6466 17.9152 18.6284C18.5184 18.2877 19.0527 17.8689 19.4472 17.2942C19.7117 16.9093 19.8728 16.4873 19.8953 16.0188C19.8955 16.0145 19.8967 16.0103 19.8981 16.0054C19.899 16.0023 19.8999 15.999 19.9007 15.9952C20.0263 16.5702 20.0082 17.5498 19.3531 18.2463C19.4197 18.223 19.4845 18.1996 19.5482 18.1767C19.7055 18.12 19.8555 18.066 20.0079 18.0215C20.1849 17.9693 20.3019 17.8667 20.4002 17.7125C20.8306 17.038 21.187 16.3325 21.3795 15.5537C21.5286 14.9524 21.5657 14.348 21.3986 13.7435C21.2092 13.0599 20.7922 12.5343 20.2252 12.117C19.8313 11.8259 19.3968 11.6105 18.9408 11.434C18.935 11.4318 18.9292 11.4295 18.9234 11.4273C18.9016 11.4189 18.8799 11.4106 18.8586 11.4017C18.8561 11.4008 18.8544 11.3988 18.8501 11.3937C18.8469 11.3899 18.8422 11.3844 18.8345 11.3762C18.8824 11.3893 18.9289 11.4017 18.9742 11.4139C19.0784 11.4418 19.1769 11.4682 19.2741 11.4968C19.9271 11.689 20.5534 11.9396 21.1077 12.3409C21.6025 12.6988 21.9811 13.1456 22.1705 13.7325C22.3398 14.2582 22.3252 14.7901 22.2034 15.3207C22.0262 16.0957 21.6615 16.7856 21.2175 17.439C21.2042 17.4588 21.1908 17.4789 21.1778 17.4993C21.1768 17.5009 21.1764 17.5034 21.1758 17.5072C21.1754 17.5101 21.1748 17.5139 21.1737 17.5188C21.1921 17.5112 21.2067 17.5065 21.22 17.5034C22.1492 17.0327 22.976 16.4307 23.6343 15.6231C24.2737 14.8381 24.7392 13.9636 24.96 12.9736C25.0098 12.7491 25.0402 12.5296 25.0532 12.3138C24.8945 11.403 24.2352 11.0006 24.0084 10.8622C23.9061 10.7997 23.8918 10.791 24.0511 10.8135C24.5883 10.8902 24.5464 10.4333 24.3114 10.2562C23.8791 9.92996 23.4365 9.9925 22.9201 10.0655C22.3334 10.1484 21.6514 10.2448 20.7805 9.80026C21.3663 10.005 21.9521 9.88318 22.5216 9.76473C23.1139 9.64157 23.6886 9.52204 24.2277 9.77702L24.2173 9.76356C24.1842 9.72081 24.1507 9.67752 24.1154 9.63603C23.5988 9.01651 22.9601 8.54833 22.2529 8.1665C21.3405 7.67352 20.3698 7.35292 19.3426 7.20503C18.7587 7.12119 18.174 7.10454 17.5898 7.2157C17.2689 7.27599 17.0608 7.3592 16.705 7.56299C16.7193 7.55103 16.7334 7.53882 16.7475 7.52661C16.7778 7.50036 16.8081 7.47415 16.8401 7.45057C17.1594 7.21099 17.5276 7.08633 17.9142 7.00877C18.5536 6.88035 19.1983 6.88223 19.843 6.95665C20.8414 7.0722 21.7931 7.34601 22.6944 7.78782C22.7549 7.81734 22.8148 7.84805 22.878 7.88045C22.9069 7.89526 22.9365 7.91042 22.9671 7.92598C22.9671 7.90044 22.9666 7.87596 22.9662 7.85221C22.9652 7.80061 22.9642 7.75245 22.9684 7.70429C22.9769 7.59627 23.0315 7.53441 23.1174 7.52437C23.1992 7.51432 23.2474 7.54478 23.2633 7.62453C23.2711 7.66527 23.2755 7.70646 23.2799 7.74783C23.2828 7.77503 23.2857 7.8023 23.2896 7.82958C23.3121 7.98501 23.3841 8.11595 23.4913 8.22867C23.5018 8.24029 23.5148 8.25097 23.5278 8.25976C23.5311 8.26178 23.5356 8.26251 23.5432 8.26378C23.5487 8.26468 23.5558 8.26584 23.5652 8.26792C23.5652 8.24919 23.5653 8.23093 23.5653 8.21297C23.5654 8.17796 23.5654 8.14413 23.5652 8.11029C23.5648 8.0808 23.5641 8.05129 23.5634 8.02177C23.5618 7.94788 23.5601 7.87397 23.5617 7.80037C23.5627 7.77463 23.5804 7.73349 23.5985 7.72878C23.6229 7.72156 23.6673 7.73412 23.6826 7.75359C23.7235 7.80728 23.7672 7.86506 23.7863 7.92817C23.8058 7.99275 23.8202 8.05847 23.8345 8.1241C23.8501 8.19571 23.8657 8.26721 23.8881 8.337C23.916 8.42304 23.96 8.50814 24.0159 8.58004C24.0767 8.65854 24.1383 8.64222 24.1614 8.54519C24.1768 8.48257 24.1851 8.41763 24.1934 8.35275C24.197 8.32524 24.2005 8.29774 24.2046 8.27044C24.206 8.26101 24.207 8.25153 24.2081 8.24207C24.2107 8.21972 24.2132 8.19751 24.2201 8.17655C24.2256 8.15895 24.2362 8.14331 24.2469 8.12764C24.2516 8.12067 24.2564 8.11369 24.2607 8.10653C24.2672 8.11243 24.2748 8.118 24.2823 8.12357C24.2988 8.13575 24.3153 8.14794 24.3216 8.16368C24.3431 8.21737 24.3638 8.27421 24.3663 8.33073C24.3694 8.38946 24.3686 8.44826 24.3677 8.50703C24.3667 8.573 24.3657 8.63894 24.3704 8.7047C24.3752 8.77064 24.3974 8.83972 24.43 8.8975C24.4662 8.96124 24.5242 8.95402 24.5442 8.88243C24.564 8.81281 24.577 8.74126 24.5899 8.66972C24.5958 8.63704 24.6017 8.60437 24.6083 8.57188C24.6187 8.51925 24.6296 8.46679 24.6418 8.40802C24.646 8.3879 24.6504 8.36703 24.6549 8.34517C24.7386 8.41676 24.7592 8.49558 24.7675 8.57125C24.78 8.68889 24.7886 8.80705 24.7973 8.92507C24.8035 9.01087 24.8098 9.0966 24.8176 9.18199C24.8315 9.33459 24.8845 9.46867 24.9755 9.59898C25.1256 9.81466 25.26 10.0412 25.3942 10.2674C25.4077 10.2901 25.4212 10.3129 25.4347 10.3356C25.5111 10.4628 25.5812 10.4744 25.6523 10.3435C25.7093 10.238 25.7561 10.1267 25.8027 10.0157C25.8219 9.96995 25.8411 9.92429 25.8609 9.87907C25.8733 9.85095 25.8849 9.82227 25.8965 9.7935C25.9126 9.75354 25.9288 9.71341 25.9472 9.67434C25.9575 9.65098 25.973 9.63015 25.9891 9.60837C25.9957 9.59941 26.0025 9.59029 26.009 9.58077C26.0899 9.63823 26.1096 9.71391 26.0937 9.79021C26.0797 9.85864 26.0586 9.92627 26.0375 9.99385C26.0239 10.0376 26.0103 10.0813 25.9986 10.1253C25.9943 10.1417 25.99 10.1581 25.9857 10.1745C25.9577 10.2811 25.9297 10.3874 25.913 10.4955C25.9053 10.5451 25.9285 10.6054 25.9516 10.6543C25.984 10.7244 26.036 10.7335 26.0921 10.6785C26.1222 10.6486 26.1487 10.6157 26.1751 10.5829C26.1987 10.5536 26.2222 10.5244 26.2482 10.4973C26.2698 10.4748 26.2974 10.4581 26.3249 10.4414C26.337 10.4342 26.349 10.4269 26.3604 10.4192C26.3671 10.4335 26.376 10.4481 26.3849 10.4627C26.4042 10.4944 26.4236 10.5263 26.421 10.5564C26.4131 10.6493 26.3906 10.7454 26.356 10.8321C26.3264 10.9069 26.2924 10.9801 26.2585 11.0532C26.2118 11.1539 26.1651 11.2544 26.1302 11.3587C26.093 11.4698 26.0814 11.5897 26.07 11.7083C26.068 11.7291 26.066 11.7499 26.0639 11.7706C26.0601 11.8052 26.0886 11.8645 26.1156 11.8742C26.1438 11.8843 26.1996 11.857 26.2247 11.829C26.2953 11.7522 26.3632 11.6728 26.4311 11.5935C26.4742 11.5433 26.5172 11.493 26.5609 11.4434C26.5797 11.4219 26.603 11.4041 26.6261 11.3863C26.6367 11.3782 26.6474 11.37 26.6576 11.3615C26.669 11.3665 26.6795 11.3718 26.6902 11.3772C26.6868 11.4003 26.6848 11.424 26.6827 11.4477C26.6783 11.4989 26.6739 11.5501 26.6557 11.596C26.6106 11.7078 26.5542 11.8184 26.4895 11.9201C26.4325 12.0104 26.371 12.0978 26.3095 12.1851C26.2606 12.2547 26.2116 12.3243 26.1651 12.3952C25.971 12.691 25.8429 13.0134 25.762 13.3585C25.7208 13.534 25.6674 13.7066 25.614 13.8791C25.5921 13.9499 25.5702 14.0206 25.5492 14.0914C25.5477 14.0968 25.5461 14.1022 25.5445 14.1076C25.5372 14.1325 25.5299 14.1574 25.5286 14.185C25.5504 14.1505 25.572 14.1158 25.5936 14.0811C25.6347 14.0151 25.6757 13.9491 25.7185 13.8845C25.8552 13.676 26.0128 13.4832 26.2247 13.3457C26.3313 13.2766 26.4457 13.2144 26.565 13.1711C26.6652 13.1345 26.7655 13.0984 26.8659 13.0623C27.3794 12.8775 27.893 12.6927 28.3821 12.4492ZM27.458 15.5892C28.0415 15.3267 28.5972 15.0174 29.0659 14.5791C29.6837 14 30.1384 13.3136 30.4036 12.511C30.43 12.4306 30.4441 12.3459 30.4593 12.2543C30.4665 12.2108 30.474 12.1658 30.4832 12.1189C30.4536 12.124 30.4267 12.1277 30.4017 12.1312C30.353 12.1379 30.3118 12.1437 30.2726 12.1565C30.2118 12.1752 30.1505 12.1926 30.0891 12.21C29.9155 12.2593 29.7416 12.3087 29.5809 12.3854C29.3738 12.4853 29.182 12.6247 29.0025 12.7692C28.8038 12.9288 28.6102 13.0946 28.4169 13.2604C28.2717 13.3848 28.1265 13.5092 27.9794 13.6308C27.6987 13.8631 27.4 14.0704 27.0448 14.1781C26.9303 14.2126 26.8114 14.2324 26.6915 14.2519C27.1512 14.0221 27.4099 13.6157 27.6764 13.1969L27.6822 13.1877C27.6717 13.1896 27.6643 13.1904 27.6588 13.191C27.6524 13.1917 27.6485 13.1922 27.6451 13.1937C26.9392 13.5356 26.2472 13.9008 25.6193 14.374C25.4515 14.5006 25.3193 14.6444 25.2248 14.8406C25.1187 15.0598 24.9929 15.2699 24.8671 15.4798C24.8138 15.5687 24.7605 15.6576 24.7088 15.7472C24.7038 15.7562 24.6986 15.765 24.6896 15.78C24.6848 15.7879 24.679 15.7976 24.6717 15.81C24.7184 15.8005 24.7632 15.7919 24.8068 15.7836C24.9055 15.7647 24.9973 15.7471 25.0878 15.7242C25.6409 15.5842 26.1552 15.3471 26.6601 15.0896C27.4488 14.6852 28.1988 14.218 28.9279 13.7168C28.9498 13.7017 28.972 13.6873 29.0015 13.6785C28.9997 13.681 28.9979 13.6836 28.9962 13.6863C28.9917 13.6929 28.9872 13.6996 28.9815 13.7052C28.1173 14.558 27.1479 15.2614 26.0154 15.7267C25.5257 15.9283 25.0177 16.0637 24.489 16.118C24.469 16.1208 24.4437 16.1268 24.4326 16.1403C24.3425 16.2479 24.2544 16.3564 24.16 16.4725C24.1307 16.5085 24.1008 16.5453 24.0701 16.583C24.1727 16.5612 24.2735 16.5403 24.3728 16.5196C24.5855 16.4754 24.7919 16.4325 24.9974 16.3852C25.841 16.1912 26.668 15.9447 27.458 15.5892ZM35.2551 31.6812C35.3242 31.3735 35.3898 31.0636 35.4219 30.7508C35.4942 30.0346 35.3007 29.3918 34.8228 28.8398C34.8168 28.8328 34.8122 28.8245 34.8072 28.8155C34.805 28.8116 34.8028 28.8075 34.8003 28.8034C34.7702 28.8296 34.7417 28.855 34.7142 28.8797C34.6539 28.9337 34.598 28.9838 34.5383 29.0288C34.4686 29.0813 34.3921 29.1284 34.3135 29.1664C34.1223 29.2584 33.9291 29.27 33.7354 29.1682C33.4338 29.0097 33.1103 28.9977 32.7802 29.0339C32.6841 29.0436 32.6213 29.0888 32.5772 29.178C32.2464 29.8525 31.6952 30.2855 31.0048 30.5583C30.9259 30.5888 30.8888 30.6262 30.8748 30.7113C30.8396 30.9254 30.825 31.1367 30.8764 31.3506C30.9598 31.6925 31.1751 31.9377 31.464 32.1265C31.7672 32.3243 32.1047 32.4408 32.4541 32.5274C32.8737 32.6301 33.2983 32.6992 33.7319 32.6983C33.9526 32.6976 34.1701 32.6725 34.382 32.6091C34.8555 32.4675 35.1476 32.1544 35.2551 31.6812ZM30.4556 32.2616C30.4109 32.2208 30.3658 32.1797 30.316 32.1475C30.2263 32.0882 30.1654 32.1174 30.1619 32.226C30.1594 32.3023 30.1667 32.3808 30.1844 32.4549C30.3598 33.2139 30.8253 33.7477 31.5126 34.1003C31.6383 34.1649 31.7706 34.2165 31.899 34.2665C31.954 34.2879 32.0082 34.309 32.0609 34.3308C32.0397 34.3628 32.0175 34.3948 31.9951 34.4271C31.9479 34.495 31.8998 34.5642 31.8592 34.6379C31.8037 34.7371 31.7926 34.8501 31.8294 34.9619C31.8747 35.1004 31.9686 35.1531 32.1132 35.133L32.1195 35.1321C32.2338 35.1148 32.3484 35.0975 32.4633 35.0941C32.5877 35.09 32.5965 35.1067 32.6105 35.2263C32.614 35.258 32.6184 35.2907 32.6298 35.3196C32.6771 35.4379 32.7462 35.54 32.8851 35.5582C33.0199 35.5748 33.1147 35.5011 33.1877 35.3984C33.4049 35.0944 33.2248 34.6821 32.8474 34.6325C32.7655 34.6218 32.6812 34.6274 32.5969 34.6331C32.5607 34.6355 32.5244 34.638 32.4884 34.6391C32.4721 34.6393 32.456 34.6414 32.4398 34.6435C32.433 34.6444 32.4261 34.6453 32.4193 34.646C32.4169 34.6433 32.4145 34.6404 32.4121 34.6375C32.4088 34.6333 32.4053 34.6292 32.4018 34.6253C32.4119 34.6135 32.4212 34.6006 32.4305 34.5877C32.4512 34.5591 32.4718 34.5306 32.4998 34.5148C32.5864 34.4661 32.678 34.4469 32.784 34.4589C33.43 34.532 34.0461 34.4564 34.5942 34.073C34.8983 33.8601 35.1228 33.5797 35.2947 33.2553C35.2952 33.2542 35.2962 33.2531 35.2971 33.2518C35.2978 33.2508 35.2984 33.2498 35.2988 33.2487C35.3023 33.2391 35.3064 33.2291 35.3105 33.219C35.332 33.1667 35.355 33.1105 35.3058 33.0729C35.2712 33.0465 35.1932 33.0581 35.1418 33.0748C35.0482 33.1052 34.9556 33.1389 34.863 33.1725C34.7171 33.2255 34.5714 33.2784 34.422 33.3187C34.0649 33.4151 33.6951 33.4183 33.3278 33.3988C32.8315 33.3724 32.3441 33.2942 31.8751 33.12C31.3496 32.9247 30.8755 32.649 30.4641 32.2693L30.4556 32.2616ZM30.7199 31.3502C30.7054 31.2995 30.6908 31.2485 30.6744 31.1976C30.5025 31.1967 30.2983 31.365 30.2843 31.5474C30.2799 31.6059 30.3049 31.6724 30.3319 31.7277C30.4407 31.9506 30.6151 32.1189 30.806 32.2715C31.2957 32.6631 31.857 32.9102 32.4652 33.0559C33.2638 33.2475 34.063 33.2531 34.8532 33.016C35.0362 32.9614 35.2098 32.8698 35.38 32.78L35.3914 32.7739C35.5259 32.7033 35.5941 32.5808 35.5744 32.4226C35.5528 32.2505 35.4634 32.128 35.3033 32.0546C35.2937 32.0621 35.2906 32.0634 35.2896 32.0652C35.0461 32.5614 34.6122 32.778 34.0883 32.822C33.2232 32.8948 32.3926 32.7344 31.6049 32.3758C31.2728 32.2238 30.9887 32.0046 30.8288 31.6668C30.7818 31.567 30.7511 31.4595 30.7199 31.3502Z"
        fill="#0D0D0D"/>
  <path
    d="M7.29479 24.0048C7.36328 24.007 7.43157 24.01 7.49967 24.0138C7.46485 23.9413 7.43815 23.8643 7.41099 23.786C7.40381 23.7653 7.3966 23.7446 7.3892 23.7238C7.32324 23.8111 7.30041 23.8996 7.29533 23.9932C7.29514 23.997 7.29496 24.0009 7.29479 24.0048Z"
    fill="#0D0D0D"/>
  <defs>
    <linearGradient id="paint0_linear_3419_195" x1="20.0185" y1="0.386196" x2="19.4574" y2="26.7462" gradientUnits="userSpaceOnUse">
      <stop stop-color="#FAA7B5"/>
      <stop offset="0.3836" stop-color="#FAA100"/>
      <stop offset="0.7317" stop-color="#BF73F2"/>
    </linearGradient>
    <linearGradient id="paint1_linear_3419_195" x1="12.9178" y1="3.09541" x2="19.2497" y2="14.1123" gradientUnits="userSpaceOnUse">
      <stop stop-color="#F6E8A0"/>
      <stop offset="1" stop-color="#E65271"/>
    </linearGradient>
    <linearGradient id="paint2_linear_3419_195" x1="14.0475" y1="9.68268" x2="19.5081" y2="19.183" gradientUnits="userSpaceOnUse">
      <stop stop-color="#F6E8A0"/>
      <stop offset="1" stop-color="#E65271"/>
    </linearGradient>
    <linearGradient id="paint3_linear_3419_195" x1="26.432" y1="2.69647" x2="25.8053" y2="13.741" gradientUnits="userSpaceOnUse">
      <stop stop-color="#F6E8A0"/>
      <stop offset="1" stop-color="#E65271"/>
    </linearGradient>
    <linearGradient id="paint4_linear_3419_195" x1="25.8336" y1="13.7267" x2="22.2184" y2="-2.45061" gradientUnits="userSpaceOnUse">
      <stop stop-color="#E65271"/>
      <stop offset="0.3836" stop-color="#FAA100"/>
    </linearGradient>
    <linearGradient id="paint5_linear_3419_195" x1="13.0491" y1="5.63807" x2="26.5743" y2="17.2741" gradientUnits="userSpaceOnUse">
      <stop stop-color="#F6E8A0"/>
      <stop offset="1" stop-color="#E65271"/>
    </linearGradient>
    <linearGradient id="paint6_linear_3419_195" x1="25.3529" y1="13.6782" x2="12.116" y2="17.3139" gradientUnits="userSpaceOnUse">
      <stop stop-color="#FAA7B5"/>
      <stop offset="0.3836" stop-color="#FAA100"/>
      <stop offset="0.7317" stop-color="#BF73F2"/>
    </linearGradient>
    <radialGradient id="paint7_radial_3419_195" cx="0" cy="0" r="1" gradientUnits="userSpaceOnUse"
                    gradientTransform="translate(26.0446 18.5417) rotate(-163.305) scale(2.25544 4.31355)">
      <stop offset="0.0091" stop-color="white"/>
      <stop offset="1" stop-color="white" stop-opacity="0"/>
    </radialGradient>
    <radialGradient id="paint8_radial_3419_195" cx="0" cy="0" r="1" gradientUnits="userSpaceOnUse"
                    gradientTransform="translate(14.0622 15.9435) rotate(180) scale(3.52901 3.49417)">
      <stop offset="0.0091" stop-color="white"/>
      <stop offset="1" stop-color="white" stop-opacity="0"/>
    </radialGradient>
    <radialGradient id="paint9_radial_3419_195" cx="0" cy="0" r="1" gradientUnits="userSpaceOnUse"
                    gradientTransform="translate(14.0598 15.9441) rotate(180) scale(3.52754 3.49272)">
      <stop offset="0.0091" stop-color="white"/>
      <stop offset="1" stop-color="white" stop-opacity="0"/>
    </radialGradient>
    <linearGradient id="paint10_linear_3419_195" x1="35.0428" y1="26.8102" x2="31.6082" y2="34.6302" gradientUnits="userSpaceOnUse">
      <stop offset="0.0041" stop-color="#FAA7B5"/>
      <stop offset="0.3836" stop-color="#FAA100"/>
    </linearGradient>
    <linearGradient id="paint11_linear_3419_195" x1="11.7855" y1="4.30419" x2="8.97787" y2="25.8534" gradientUnits="userSpaceOnUse">
      <stop stop-color="#FAA7B5"/>
      <stop offset="0.3836" stop-color="#FAA100"/>
      <stop offset="0.7317" stop-color="#BF73F2"/>
    </linearGradient>
    <linearGradient id="paint12_linear_3419_195" x1="28.0894" y1="0.556981" x2="27.5283" y2="26.9193" gradientUnits="userSpaceOnUse">
      <stop stop-color="#FAA7B5"/>
      <stop offset="0.3836" stop-color="#FAA100"/>
      <stop offset="0.7317" stop-color="#BF73F2"/>
    </linearGradient>
    <linearGradient id="paint13_linear_3419_195" x1="33.4806" y1="20.723" x2="32.0839" y2="23.0507" gradientUnits="userSpaceOnUse">
      <stop stop-color="#FAA7B5"/>
      <stop offset="0.3836" stop-color="#FAA100"/>
      <stop offset="0.7317" stop-color="#BF73F2"/>
    </linearGradient>
    <linearGradient id="paint14_linear_3419_195" x1="-6.79883" y1="27.9631" x2="1.0516" y2="39.8599" gradientUnits="userSpaceOnUse">
      <stop stop-color="#FF45ED"/>
      <stop offset="1" stop-color="#6B57FF"/>
    </linearGradient>
    <linearGradient id="paint15_linear_3419_195" x1="9.39583" y1="3.99325" x2="6.58828" y2="25.5424" gradientUnits="userSpaceOnUse">
      <stop stop-color="#FAA7B5"/>
      <stop offset="0.3836" stop-color="#FAA100"/>
      <stop offset="0.7317" stop-color="#BF73F2"/>
    </linearGradient>
    <linearGradient id="paint16_linear_3419_195" x1="5.19136" y1="13.1797" x2="6.45215" y2="28.1717" gradientUnits="userSpaceOnUse">
      <stop stop-color="#FAA7B5"/>
      <stop offset="0.3836" stop-color="#FAA100"/>
      <stop offset="0.7317" stop-color="#BF73F2"/>
    </linearGradient>
    <linearGradient id="paint17_linear_3419_195" x1="60.6352" y1="-1.66184" x2="-1.34588" y2="31.9017" gradientUnits="userSpaceOnUse">
      <stop stop-color="#FAA7B5"/>
      <stop offset="0.3836" stop-color="#FAA100"/>
      <stop offset="0.7317" stop-color="#BF73F2"/>
    </linearGradient>
    <linearGradient id="paint18_linear_3419_195" x1="60.6352" y1="-1.66184" x2="-1.34588" y2="31.9017" gradientUnits="userSpaceOnUse">
      <stop stop-color="#FAA7B5"/>
      <stop offset="0.3836" stop-color="#FAA100"/>
      <stop offset="0.7317" stop-color="#BF73F2"/>
    </linearGradient>
    <linearGradient id="paint19_linear_3419_195" x1="13.3452" y1="-1.87625" x2="4.48654" y2="39.8745" gradientUnits="userSpaceOnUse">
      <stop offset="0.3836" stop-color="#FAA100"/>
      <stop offset="0.6584" stop-color="#BF73F2"/>
      <stop offset="0.6649" stop-color="#C370E6"/>
      <stop offset="0.6852" stop-color="#CC68C7"/>
      <stop offset="0.7081" stop-color="#D461AB"/>
      <stop offset="0.7341" stop-color="#DB5B95"/>
      <stop offset="0.7643" stop-color="#E05784"/>
      <stop offset="0.8017" stop-color="#E35479"/>
      <stop offset="0.8543" stop-color="#E55272"/>
      <stop offset="1" stop-color="#E65270"/>
    </linearGradient>
    <linearGradient id="paint20_linear_3419_195" x1="18.4417" y1="-2.43306" x2="9.00561" y2="42.0395" gradientUnits="userSpaceOnUse">
      <stop offset="0.3836" stop-color="#FAA100"/>
      <stop offset="0.6584" stop-color="#BF73F2"/>
      <stop offset="0.6649" stop-color="#C370E6"/>
      <stop offset="0.6852" stop-color="#CC68C7"/>
      <stop offset="0.7081" stop-color="#D461AB"/>
      <stop offset="0.7341" stop-color="#DB5B95"/>
      <stop offset="0.7643" stop-color="#E05784"/>
      <stop offset="0.8017" stop-color="#E35479"/>
      <stop offset="0.8543" stop-color="#E55272"/>
      <stop offset="1" stop-color="#E65270"/>
    </linearGradient>
    <clipPath id="clip0_3419_195">
      <rect width="0.382843" height="0.442241" fill="white" transform="matrix(-1 0 0 -1 32.5757 21.8322)"/>
    </clipPath>
  </defs>
</svg>
