<!-- Copyright © 2000–2024 JetBrains s.r.o. -->
<svg width="16" height="16" viewBox="0 0 16 16" xmlns="http://www.w3.org/2000/svg">
  <path fill="#6e6e6e" d="M1 1v14h14V1zm9 1c.55 0 1 .45 1 1s-.45 1-1 1-1-.45-1-1 .45-1 1-1M6 14c-.55 0-1-.45-1-1s.45-1 1-1 1 .45 1 1-.45 1-1 1m4.94-.37-1.54.19-.06.18H7.73a1.991 1.991 0 0 0-.43-2.54c-.36-.3-.82-.47-1.29-.46-.47 0-.93.16-1.29.46-.36.3-.6.72-.68 1.19-.08.46 0 .94.25 1.35H2.68l-.06-.18-.61-.07v-1.49l.61-.08c.09-.35.23-.69.42-.99l-.96-1.23c.26-.33.56-.63.89-.89l1.23.96c.31-.19.64-.33.99-.41l.19-1.54c.21-.04.42-.06.63-.07.21 0 .42.03.63.07l.19 1.54c.35.09.69.23.99.41l1.23-.96c.33.26.63.56.89.89l-.96 1.23c.19.31.33.64.41.99l1.54.19c.03.21.06.42.06.63 0 .21-.03.42-.06.63ZM14 3.75l-.61.08c-.09.35-.23.69-.41.99l.96 1.23c-.26.33-.56.63-.89.89l-1.23-.96c-.31.19-.64.33-.99.41l-.19 1.54c-.21.04-.42.06-.63.07-.21 0-.42-.03-.63-.07l-.19-1.54a3.76 3.76 0 0 1-.99-.41l-1.23.96c-.33-.26-.63-.56-.89-.89l.96-1.23c-.19-.31-.33-.64-.41-.99l-1.54-.19c-.03-.21-.06-.42-.06-.63 0-.21.03-.42.06-.63l1.54-.19.06-.18H8.3a1.991 1.991 0 0 0 .43 2.54c.36.3.82.47 1.29.46.47 0 .93-.16 1.29-.46.36-.3.6-.72.68-1.19s0-.94-.25-1.35h1.61l.06.18.61.08v1.49Z"/>
</svg>
