<svg width="16" height="16" viewBox="0 0 16 16" fill="none" xmlns="http://www.w3.org/2000/svg">
<path fill-rule="evenodd" clip-rule="evenodd" d="M3.00025 9.44673C3.00008 9.46447 3 9.48222 3 9.5C3 12.369 5.19675 14.725 8 14.9776V12.9646C6.30385 12.7219 5 11.2632 5 9.5C5 9.39546 5.00458 9.29199 5.01356 9.18978L4.13538 8.3116L3.00025 9.44673ZM9.88431 6L9.6678 5.78348L8.95785 5.71L7.56984 4.32198L7.86304 4.03649C8.07202 4.01239 8.28456 4 8.5 4H12V6H9.88431Z" fill="#59A869"/>
<path fill-rule="evenodd" clip-rule="evenodd" d="M12 1L16 5L12 9V1Z" fill="#59A869"/>
<path fill-rule="evenodd" clip-rule="evenodd" d="M1.59502 4.91352L0 6.50854L1.90869 8.41724L3.59529 6.73064L3.73575 6.41109L3.83221 5.88685L6.68064 8.73528L6.75632 9.44707L11.4523 14.1431L13.6793 11.9161L8.98394 7.22069L8.274 7.14721L5.43455 4.30777L7.02384 2.76027L8.05425 2.27195L8.06274 1.55421L5.05543 1.66056L5.05734 1.66166L4.70844 1.80018L2.19871 4.30991C2.07938 4.42924 2.03297 4.59388 2.0595 4.74845L1.59502 4.91352Z" fill="#6E6E6E"/>
</svg>
