<svg width="80" height="80" viewBox="0 0 80 80" fill="none" xmlns="http://www.w3.org/2000/svg">
<path d="M74 6H6V74H74V6Z" fill="url(#paint0_linear)"/>
<path d="M61.5999 18.4H18.3999V61.7H61.6999V18.4H61.5999Z" fill="url(#paint1_linear)"/>
<path d="M68.1998 11.8H11.7998V68.1H68.0998V11.8H68.1998Z" fill="url(#paint2_linear)"/>
<path d="M18.4 18.4H61.6L74 6H6L18.4 18.4Z" fill="url(#paint3_linear)"/>
<path d="M61.6 61.6H18.4L6 74H74L61.6 61.6Z" fill="url(#paint4_linear)"/>
<path d="M61.6001 18.4V61.6L74.0001 74V6L61.6001 18.4Z" fill="url(#paint5_linear)"/>
<path d="M18.4 61.6V18.4L6 6V74L18.4 61.6Z" fill="url(#paint6_linear)"/>
<path d="M11.8 11.8H68.2L74 6H6L11.8 11.8Z" fill="url(#paint7_linear)"/>
<path d="M11.8 11.8H68.2L74 6H6L11.8 11.8Z" fill="url(#paint8_linear)"/>
<path d="M11.8 11.8H68.2L74 6H6L11.8 11.8Z" fill="url(#paint9_linear)"/>
<path d="M68.1998 11.8H11.7998L18.3998 18.4H61.5998L68.1998 11.8Z" fill="url(#paint10_linear)"/>
<path d="M68.2 68.2H11.8L6 74H74L68.2 68.2Z" fill="url(#paint11_linear)"/>
<path d="M68.2 68.2H11.8L6 74H74L68.2 68.2Z" fill="url(#paint12_linear)"/>
<path d="M68.2 68.2H11.8L6 74H74L68.2 68.2Z" fill="url(#paint13_linear)"/>
<path d="M68.2002 68.2L74.0002 74V6L68.2002 11.8V68.2Z" fill="url(#paint14_linear)"/>
<path d="M68.2002 68.2L74.0002 74V6L68.2002 11.8V68.2Z" fill="url(#paint15_linear)"/>
<path d="M68.2002 68.2L74.0002 74V6L68.2002 11.8V68.2Z" fill="url(#paint16_linear)"/>
<path d="M68.2002 68.2L74.0002 74V6L68.2002 11.8V68.2Z" fill="url(#paint17_linear)"/>
<path d="M11.8 68.2V11.8L6 6V74L11.8 68.2Z" fill="url(#paint18_linear)"/>
<path d="M11.8 68.2V11.8L6 6V74L11.8 68.2Z" fill="url(#paint19_linear)"/>
<path d="M11.7998 11.8V68.2001L18.3998 61.6V18.4L11.7998 11.8Z" fill="url(#paint20_linear)"/>
<path d="M65 15H15V65H65V15Z" fill="url(#paint21_linear)"/>
<path d="M39.9002 55.6001H21.2002V58.7001H39.9002V55.6001Z" fill="white"/>
<path d="M30.6003 24.7001V21.3H21.3003V24.7001H23.9003V36.5H21.3003V39.9001H30.6003V36.5H28.0003V24.7001H30.6003Z" fill="white"/>
<path d="M35 21.3H49.2933V24.9202H39.3067V28.79H48.1698V32.4101H39.3067V36.2799H49.543V39.9H35.1873V21.3H35Z" fill="white"/>
<defs>
<linearGradient id="paint0_linear" x1="81.6017" y1="81.6016" x2="-14.4523" y2="-14.4521" gradientUnits="userSpaceOnUse">
<stop offset="0.3475" stop-color="#087CFA"/>
<stop offset="0.8562" stop-color="#FE2857"/>
<stop offset="1" stop-color="#FE2857"/>
</linearGradient>
<linearGradient id="paint1_linear" x1="66.4737" y1="66.4737" x2="5.3484" y2="5.34872" gradientUnits="userSpaceOnUse">
<stop offset="0.3475" stop-color="#087CFA"/>
<stop offset="0.8562" stop-color="#FE2857"/>
<stop offset="1" stop-color="#FE2857"/>
</linearGradient>
<linearGradient id="paint2_linear" x1="74.4613" y1="74.461" x2="-5.10669" y2="-5.10586" gradientUnits="userSpaceOnUse">
<stop stop-color="#087CFA"/>
<stop offset="0.2816" stop-color="#0855FA"/>
<stop offset="0.7644" stop-color="#E0326B"/>
<stop offset="0.7721" stop-color="#FE2857"/>
<stop offset="1" stop-color="#FE2857"/>
</linearGradient>
<linearGradient id="paint3_linear" x1="78.8867" y1="25.2859" x2="8.4674" y2="-2.9295" gradientUnits="userSpaceOnUse">
<stop offset="0.3475" stop-color="#087CFA"/>
<stop offset="0.7698" stop-color="#F01A72"/>
<stop offset="0.9872" stop-color="#FE2857"/>
</linearGradient>
<linearGradient id="paint4_linear" x1="81.7095" y1="75.8698" x2="18.3639" y2="65.2194" gradientUnits="userSpaceOnUse">
<stop offset="0.2513" stop-color="#087CFA" stop-opacity="0.9703"/>
<stop offset="0.5721" stop-color="#087CFA"/>
<stop offset="0.8921" stop-color="#087CFA" stop-opacity="0.5"/>
</linearGradient>
<linearGradient id="paint5_linear" x1="67.0221" y1="7.3337" x2="69.0885" y2="76.0837" gradientUnits="userSpaceOnUse">
<stop offset="0.018393" stop-color="#429EFA"/>
<stop offset="0.518" stop-color="#087CFA"/>
<stop offset="1" stop-color="#965CF3" stop-opacity="0.9769"/>
</linearGradient>
<linearGradient id="paint6_linear" x1="15.0053" y1="68.9729" x2="7.3752" y2="7.376" gradientUnits="userSpaceOnUse">
<stop offset="0.323" stop-color="#087CFA"/>
<stop offset="0.7201" stop-color="#DF0373"/>
<stop offset="1" stop-color="#FE2857"/>
</linearGradient>
<linearGradient id="paint7_linear" x1="37.2507" y1="8.7831" x2="20.7189" y2="21.9768" gradientUnits="userSpaceOnUse">
<stop offset="0.1018" stop-color="#FF00BB" stop-opacity="0"/>
<stop offset="0.8133" stop-color="#FCBD36"/>
<stop offset="1" stop-color="white" stop-opacity="0.9"/>
</linearGradient>
<linearGradient id="paint8_linear" x1="75.0726" y1="14.2004" x2="52.8182" y2="10.5443" gradientUnits="userSpaceOnUse">
<stop offset="0.018393" stop-color="#00FFFA"/>
<stop offset="0.8562" stop-color="#07C3F2" stop-opacity="0"/>
</linearGradient>
<linearGradient id="paint9_linear" x1="41.0066" y1="-1.8022" x2="39.7114" y2="8.2358" gradientUnits="userSpaceOnUse">
<stop offset="0.2032" stop-color="#087CFA"/>
<stop offset="1" stop-color="#6D6E71" stop-opacity="0"/>
</linearGradient>
<linearGradient id="paint10_linear" x1="60.5585" y1="6.52335" x2="24.7925" y2="19.399" gradientUnits="userSpaceOnUse">
<stop offset="0.1744" stop-color="#0861FA"/>
<stop offset="0.723" stop-color="#0855FA" stop-opacity="0"/>
</linearGradient>
<linearGradient id="paint11_linear" x1="81.2655" y1="78.5102" x2="17.92" y2="67.8599" gradientUnits="userSpaceOnUse">
<stop stop-color="#434FCF" stop-opacity="0"/>
<stop offset="1" stop-color="#1B6EEC"/>
</linearGradient>
<linearGradient id="paint12_linear" x1="39.9998" y1="64.1656" x2="39.9998" y2="72.459" gradientUnits="userSpaceOnUse">
<stop offset="0.018393" stop-color="#42FFFA"/>
<stop offset="0.8562" stop-color="#07C3F2" stop-opacity="0"/>
</linearGradient>
<linearGradient id="paint13_linear" x1="71.201" y1="59.5421" x2="51.331" y2="67.6491" gradientUnits="userSpaceOnUse">
<stop offset="0.018393" stop-color="#FF39FF" stop-opacity="0.5"/>
<stop offset="0.8562" stop-color="#FF318C" stop-opacity="0"/>
</linearGradient>
<linearGradient id="paint14_linear" x1="70.1851" y1="7.2386" x2="72.2516" y2="75.9885" gradientUnits="userSpaceOnUse">
<stop offset="0.018393" stop-color="#085EFA"/>
<stop offset="0.8562" stop-color="#FF45ED" stop-opacity="0"/>
</linearGradient>
<linearGradient id="paint15_linear" x1="60.6013" y1="39.4109" x2="75.0666" y2="40.0467" gradientUnits="userSpaceOnUse">
<stop offset="0.018393" stop-color="#42FFFA"/>
<stop offset="0.8562" stop-color="#07C3F2" stop-opacity="0"/>
</linearGradient>
<linearGradient id="paint16_linear" x1="48.8591" y1="-3.3567" x2="77.9487" y2="49.5769" gradientUnits="userSpaceOnUse">
<stop offset="0.018393" stop-color="#42FFFA"/>
<stop offset="0.8562" stop-color="#07C3F2" stop-opacity="0"/>
</linearGradient>
<linearGradient id="paint17_linear" x1="58.9596" y1="8.5354" x2="68.8151" y2="31.7435" gradientUnits="userSpaceOnUse">
<stop offset="0.018393" stop-color="#42FFFA" stop-opacity="0.5"/>
<stop offset="0.8562" stop-color="#07C3F2" stop-opacity="0"/>
</linearGradient>
<linearGradient id="paint18_linear" x1="4.625" y1="54.445" x2="15.4343" y2="10.7311" gradientUnits="userSpaceOnUse">
<stop offset="0.4995" stop-color="#FF318C" stop-opacity="0"/>
<stop offset="0.9613" stop-color="#FCBD36"/>
</linearGradient>
<linearGradient id="paint19_linear" x1="-7.5421" y1="69.8279" x2="7.6769" y2="39.5518" gradientUnits="userSpaceOnUse">
<stop offset="0.00131053" stop-color="#5AFFFA" stop-opacity="0.5"/>
<stop offset="0.9231" stop-color="#07C3F2" stop-opacity="0"/>
</linearGradient>
<linearGradient id="paint20_linear" x1="5.8662" y1="43.3318" x2="19.5367" y2="35.7017" gradientUnits="userSpaceOnUse">
<stop offset="0.018393" stop-color="#0855FA"/>
<stop offset="0.723" stop-color="#0855FA" stop-opacity="0"/>
</linearGradient>
<linearGradient id="paint21_linear" x1="15.0761" y1="15.0761" x2="58.8859" y2="58.8859" gradientUnits="userSpaceOnUse">
<stop offset="0.1196" stop-color="#5A044A"/>
<stop offset="0.3733" stop-color="#39032F"/>
<stop offset="0.7299" stop-color="#10010D"/>
<stop offset="0.9138"/>
</linearGradient>
</defs>
</svg>
