<svg width="256" height="256" viewBox="0 0 256 256" fill="none" xmlns="http://www.w3.org/2000/svg">
<path d="M239.6 39.7998L256 141.8L225.8 162.2L239.6 39.7998Z" fill="url(#paint0_linear)"/>
<path d="M256 141.8L225.8 162.2L231.2 114L256 141.8Z" fill="url(#paint1_linear)"/>
<path d="M239.6 39.8L148 0L122.4 21.2L239.6 39.8Z" fill="url(#paint2_linear)"/>
<path d="M167.6 28.6L148 0L122.4 21.2L167.6 28.6Z" fill="url(#paint3_linear)"/>
<path d="M173 256L30.8002 142.6L2.2002 228.6L173 256Z" fill="url(#paint4_linear)"/>
<path d="M173 256L58.8002 206L2.2002 228.6L173 256Z" fill="url(#paint5_linear)"/>
<path d="M192.8 184.4L0 118.2L173 256L192.8 184.4Z" fill="url(#paint6_linear)"/>
<path d="M192.8 184.4L180 180L161.2 204.4L173 256L192.8 184.4Z" fill="url(#paint7_linear)"/>
<path d="M161.2 204.4L0 118.2L147.8 235.8L173 256L161.2 204.4Z" fill="url(#paint8_linear)"/>
<path d="M0 1.7998V118.2L222.2 194.6L239.6 39.7998L0 1.7998Z" fill="url(#paint9_linear)"/>
<path d="M0 1.7998V118.2L222.2 194.6L196 77.5998L0 1.7998Z" fill="url(#paint10_linear)"/>
<path d="M0 1.7998V118.2L53 86.1998L0 1.7998Z" fill="url(#paint11_linear)"/>
<path d="M58.8002 206L196.6 78.5996L51.2002 87.1996L2.2002 228.6L58.8002 206Z" fill="url(#paint12_linear)"/>
<path d="M58.8002 206L63.6002 168.4L30.8002 142.6L2.2002 228.6L58.8002 206Z" fill="url(#paint13_linear)"/>
<path d="M58.8002 206L63.6002 168.4L30.8002 142.6L2.2002 228.6L58.8002 206Z" fill="url(#paint14_linear)"/>
<path d="M239.6 39.7998L222.2 194.6L196 77.5998L239.6 39.7998Z" fill="url(#paint15_linear)"/>
<path d="M222.2 194.6L225.8 162.2L216.4 168.6L222.2 194.6Z" fill="url(#paint16_linear)"/>
<path d="M222.2 194.6L192.8 184.4L216.4 168.6L222.2 194.6Z" fill="url(#paint17_linear)"/>
<path d="M239.6 39.8002L176.4 95.4002L50 86.8002L122.4 21.2002L239.6 39.8002Z" fill="url(#paint18_linear)"/>
<path d="M196 77.5998L239.6 39.7998L0 1.7998L196 77.5998Z" fill="url(#paint19_linear)"/>
<path d="M196 77.5998L239.6 39.7998L0 1.7998L196 77.5998Z" fill="url(#paint20_linear)"/>
<path d="M100.8 40.8002L196 77.6002L199.2 75.0002L167.4 28.4002L122.4 21.2002L100.8 40.8002Z" fill="url(#paint21_linear)"/>
<path d="M208 48H48V208H208V48Z" fill="url(#paint22_linear)"/>
<g opacity="0.5">
<path opacity="0.3" d="M48 156.8V208H112.4L48 156.8Z" fill="url(#paint23_linear)"/>
<path opacity="0.3" d="M48 156.8V208H54.8L58.8 206.4L82.6 184.4L48 156.8Z" fill="url(#paint24_linear)"/>
<path opacity="0.3" d="M48 156.8L112.4 208H186.4L192.8 184.8L48 135V156.8Z" fill="url(#paint25_linear)"/>
<path opacity="0.3" d="M161.2 204.8L162 208H186.4L192.8 184.8L154.4 171.8L161.2 204.8Z" fill="url(#paint26_linear)"/>
<path opacity="0.3" d="M208 67.5996L196 77.9996L208 131.4V67.5996Z" fill="url(#paint27_linear)"/>
<path opacity="0.3" d="M208 48H118.6L196 78L208 67.6V48Z" fill="url(#paint28_linear)"/>
<path opacity="0.3" d="M208 190V131.4L196 78L118.6 48H48V135L208 190Z" fill="url(#paint29_linear)"/>
</g>
<path d="M128 177.8H68V187.8H128V177.8Z" fill="white"/>
<path d="M66.1997 68.1035H89.5175C108.316 68.1035 121.331 80.9373 121.331 97.9286V98.1093C121.331 114.92 108.316 128.115 89.5175 128.115H66.1997V68.1035ZM79.395 80.0335V116.185H89.5175C100.363 116.185 107.593 108.955 107.593 98.2901V98.1093C107.593 87.4446 100.363 80.0335 89.5175 80.0335H79.395Z" fill="white"/>
<path d="M126.681 98.2901C126.681 81.1181 139.876 67.1997 158.133 67.1997C168.978 67.1997 175.486 70.0918 181.631 75.3338L173.316 85.2755C168.617 81.4796 164.64 79.1297 157.591 79.1297C148.01 79.1297 140.419 87.6254 140.419 97.7478V98.1093C140.419 109.136 148.01 117.089 158.494 117.089C163.375 117.089 167.532 115.824 170.967 113.474V104.978H157.771V93.5904H183.8V119.62C177.655 124.862 169.159 129.2 158.133 129.2C139.515 129.019 126.681 116.004 126.681 98.2901Z" fill="white"/>
<defs>
<linearGradient id="paint0_linear" x1="234.523" y1="96.2934" x2="242.01" y2="161.468" gradientUnits="userSpaceOnUse">
<stop offset="0.1599" stop-color="#21D789"/>
<stop offset="0.5402" stop-color="#419FBC"/>
<stop offset="1" stop-color="#6B57FF"/>
</linearGradient>
<linearGradient id="paint1_linear" x1="201.685" y1="128.641" x2="298.97" y2="162.897" gradientUnits="userSpaceOnUse">
<stop offset="0.0212475" stop-color="#B74AF7" stop-opacity="0"/>
<stop offset="0.744" stop-color="#8053FD" stop-opacity="0.7385"/>
<stop offset="1" stop-color="#6B57FF"/>
</linearGradient>
<linearGradient id="paint2_linear" x1="166.277" y1="68.332" x2="185.213" y2="19.8918" gradientUnits="userSpaceOnUse">
<stop stop-color="#6B57FF"/>
<stop offset="0.9516" stop-color="#21D789"/>
</linearGradient>
<linearGradient id="paint3_linear" x1="166.606" y1="8.1906" x2="135.902" y2="29.7058" gradientUnits="userSpaceOnUse">
<stop stop-color="#00FF6A"/>
<stop offset="0.9516" stop-color="#21D789" stop-opacity="0"/>
</linearGradient>
<linearGradient id="paint4_linear" x1="172.398" y1="292.405" x2="-7.41099" y2="169.263" gradientUnits="userSpaceOnUse">
<stop offset="0.09839" stop-color="#6B57FF"/>
<stop offset="0.1176" stop-color="#685CFB"/>
<stop offset="0.3447" stop-color="#4A91CA"/>
<stop offset="0.5417" stop-color="#34B7A7"/>
<stop offset="0.6991" stop-color="#26CE91"/>
<stop offset="0.7971" stop-color="#21D789"/>
</linearGradient>
<linearGradient id="paint5_linear" x1="80.2272" y1="156.821" x2="90.7712" y2="278.976" gradientUnits="userSpaceOnUse">
<stop offset="0.09839" stop-color="#6B57FF"/>
<stop offset="0.1176" stop-color="#685CFB"/>
<stop offset="0.3447" stop-color="#4A91CA"/>
<stop offset="0.5417" stop-color="#34B7A7"/>
<stop offset="0.6991" stop-color="#26CE91"/>
<stop offset="0.7971" stop-color="#21D789"/>
</linearGradient>
<linearGradient id="paint6_linear" x1="15.9466" y1="128.029" x2="240.273" y2="251.887" gradientUnits="userSpaceOnUse">
<stop offset="0.0752688" stop-color="#21D789"/>
<stop offset="0.8874" stop-color="#6B57FF"/>
</linearGradient>
<linearGradient id="paint7_linear" x1="161.192" y1="218.033" x2="192.796" y2="218.033" gradientUnits="userSpaceOnUse">
<stop offset="0.0266187" stop-color="#4F46C6"/>
<stop offset="1" stop-color="#6B57FF"/>
</linearGradient>
<linearGradient id="paint8_linear" x1="8.017" y1="142.391" x2="232.344" y2="266.249" gradientUnits="userSpaceOnUse">
<stop offset="0.0266187" stop-color="#21D789"/>
<stop offset="0.6999" stop-color="#685CFA"/>
<stop offset="1" stop-color="#6B57FF"/>
</linearGradient>
<linearGradient id="paint9_linear" x1="-12.4332" y1="64.2076" x2="207.528" y2="112.062" gradientUnits="userSpaceOnUse">
<stop offset="0.2422" stop-color="#21D789"/>
<stop offset="0.4465" stop-color="#59A3B2"/>
<stop offset="0.7668" stop-color="#B74AF7"/>
<stop offset="1" stop-color="#FF45ED"/>
</linearGradient>
<linearGradient id="paint10_linear" x1="16.0512" y1="98.1592" x2="225.037" y2="98.1592" gradientUnits="userSpaceOnUse">
<stop offset="0.1308" stop-color="#21D789"/>
<stop offset="0.3487" stop-color="#59A3B2"/>
<stop offset="0.6901" stop-color="#B74AF7"/>
<stop offset="1" stop-color="#FF45ED"/>
</linearGradient>
<linearGradient id="paint11_linear" x1="3.8294" y1="59.9886" x2="53.6888" y2="59.9886" gradientUnits="userSpaceOnUse">
<stop offset="0.3086" stop-color="#56D789"/>
<stop offset="0.9587" stop-color="#8DFC77"/>
<stop offset="1" stop-color="#91FF76"/>
</linearGradient>
<linearGradient id="paint12_linear" x1="87.8312" y1="304.977" x2="105.003" y2="80.5148" gradientUnits="userSpaceOnUse">
<stop stop-color="#21D789"/>
<stop offset="0.9961" stop-color="#6B57FF" stop-opacity="0"/>
</linearGradient>
<linearGradient id="paint13_linear" x1="19.8998" y1="141.722" x2="35.3164" y2="208.895" gradientUnits="userSpaceOnUse">
<stop offset="0.2061" stop-color="#6B57FF"/>
<stop offset="0.3273" stop-color="#6266F1"/>
<stop offset="0.5619" stop-color="#4B8FCC"/>
<stop offset="0.8839" stop-color="#26CF90"/>
<stop offset="0.9206" stop-color="#21D789"/>
</linearGradient>
<linearGradient id="paint14_linear" x1="0.525395" y1="173.184" x2="64.8208" y2="223.313" gradientUnits="userSpaceOnUse">
<stop offset="0.3086" stop-color="#56D789" stop-opacity="0"/>
<stop offset="0.9587" stop-color="#8DFC77" stop-opacity="0.9403"/>
<stop offset="1" stop-color="#91FF76"/>
</linearGradient>
<linearGradient id="paint15_linear" x1="196.044" y1="117.152" x2="239.675" y2="117.152" gradientUnits="userSpaceOnUse">
<stop offset="0.2609" stop-color="#B74AF7"/>
<stop offset="1" stop-color="#FF45ED"/>
</linearGradient>
<linearGradient id="paint16_linear" x1="231.066" y1="188.773" x2="217.444" y2="168.613" gradientUnits="userSpaceOnUse">
<stop stop-color="#FF72F1"/>
<stop offset="0.963" stop-color="#B74AF7"/>
</linearGradient>
<linearGradient id="paint17_linear" x1="232.707" y1="207.535" x2="206.553" y2="178.657" gradientUnits="userSpaceOnUse">
<stop offset="0.668" stop-color="#FF72F1"/>
<stop offset="1" stop-color="#B74AF7"/>
</linearGradient>
<linearGradient id="paint18_linear" x1="92.4592" y1="-24.2266" x2="160.012" y2="88.5838" gradientUnits="userSpaceOnUse">
<stop offset="0.1625" stop-color="#B74AF7" stop-opacity="0.5"/>
<stop offset="0.9989" stop-color="#00FF6A" stop-opacity="0"/>
</linearGradient>
<linearGradient id="paint19_linear" x1="194.758" y1="111.666" x2="143.539" y2="49.55" gradientUnits="userSpaceOnUse">
<stop offset="0.2973" stop-color="#FF4FFF" stop-opacity="0.96"/>
<stop offset="0.9989" stop-color="#FF45ED" stop-opacity="0"/>
</linearGradient>
<linearGradient id="paint20_linear" x1="114.415" y1="51.171" x2="119.864" y2="20.6578" gradientUnits="userSpaceOnUse">
<stop stop-color="#FF4FFF" stop-opacity="0.96"/>
<stop offset="0.9928" stop-color="#FF45ED" stop-opacity="0"/>
</linearGradient>
<linearGradient id="paint21_linear" x1="180.556" y1="22.557" x2="155.05" y2="52.0312" gradientUnits="userSpaceOnUse">
<stop offset="0.1209" stop-color="#A326F7"/>
<stop offset="0.9516" stop-color="#B74AF7" stop-opacity="0"/>
</linearGradient>
<linearGradient id="paint22_linear" x1="45.8507" y1="45.8507" x2="197.34" y2="197.34" gradientUnits="userSpaceOnUse">
<stop offset="0.0284813" stop-color="#007E67"/>
<stop offset="0.1121" stop-color="#005344"/>
<stop offset="0.1976" stop-color="#002F27"/>
<stop offset="0.2776" stop-color="#001511"/>
<stop offset="0.3494" stop-color="#000605"/>
<stop offset="0.4058"/>
<stop offset="0.9138"/>
</linearGradient>
<linearGradient id="paint23_linear" x1="111.239" y1="225.678" x2="29.9006" y2="169.974" gradientUnits="userSpaceOnUse">
<stop offset="0.09839" stop-color="#6B57FF"/>
<stop offset="0.1176" stop-color="#685CFB"/>
<stop offset="0.3447" stop-color="#4A91CA"/>
<stop offset="0.5417" stop-color="#34B7A7"/>
<stop offset="0.6991" stop-color="#26CE91"/>
<stop offset="0.7971" stop-color="#21D789"/>
</linearGradient>
<linearGradient id="paint24_linear" x1="60.711" y1="230.685" x2="66.0496" y2="160.901" gradientUnits="userSpaceOnUse">
<stop offset="0.0752688" stop-color="#21D789"/>
<stop offset="0.8874" stop-color="#6B57FF"/>
</linearGradient>
<linearGradient id="paint25_linear" x1="58.216" y1="144.277" x2="219.123" y2="233.119" gradientUnits="userSpaceOnUse">
<stop stop-color="#34B7A7"/>
<stop offset="0.8874" stop-color="#000069"/>
</linearGradient>
<linearGradient id="paint26_linear" x1="154.347" y1="189.854" x2="192.795" y2="189.854" gradientUnits="userSpaceOnUse">
<stop offset="0.0266187" stop-color="#4F46C6"/>
<stop offset="1" stop-color="#1F2C61"/>
</linearGradient>
<linearGradient id="paint27_linear" x1="196.044" y1="99.5108" x2="208" y2="99.5108" gradientUnits="userSpaceOnUse">
<stop offset="0.2609" stop-color="#B74AF7"/>
<stop offset="1" stop-color="#FF45ED"/>
</linearGradient>
<linearGradient id="paint28_linear" x1="162.262" y1="63.5666" x2="166.095" y2="42.1032" gradientUnits="userSpaceOnUse">
<stop stop-color="#FF4FFF"/>
<stop offset="0.9928" stop-color="#FF75FF"/>
</linearGradient>
<linearGradient id="paint29_linear" x1="76.5832" y1="51.541" x2="184.926" y2="182.512" gradientUnits="userSpaceOnUse">
<stop stop-color="#20D185"/>
<stop offset="0.4429" stop-color="#198767"/>
<stop offset="0.844" stop-color="#12414A"/>
</linearGradient>
</defs>
</svg>
