<svg width="48" height="48" viewBox="0 0 48 48" fill="none" xmlns="http://www.w3.org/2000/svg">
<path d="M44.9001 7.5L48 26.6L42.3 30.4L44.9001 7.5Z" fill="url(#paint0_linear)"/>
<path d="M48 26.5999L42.3 30.3999L43.4001 21.3999L48 26.5999Z" fill="url(#paint1_linear)"/>
<path d="M44.9 7.5L27.8 0L23 4L44.9 7.5Z" fill="url(#paint2_linear)"/>
<path d="M31.4 5.4L27.8 0L23 4L31.4 5.4Z" fill="url(#paint3_linear)"/>
<path d="M32.3999 47.9998L5.7999 26.7998L0.399902 42.8998L32.3999 47.9998Z" fill="url(#paint4_linear)"/>
<path d="M32.3999 48.0001L10.9999 38.6001L0.399902 42.9001L32.3999 48.0001Z" fill="url(#paint5_linear)"/>
<path d="M36.1 34.6002L0 22.2002L32.4 48.0002L36.1 34.6002Z" fill="url(#paint6_linear)"/>
<path d="M36.0999 34.5998L33.7999 33.7998L30.2 38.2998L32.4 47.9998L36.0999 34.5998Z" fill="url(#paint7_linear)"/>
<path d="M30.2 38.3002L0 22.2002L27.7 44.2002L32.4 48.0002L30.2 38.3002Z" fill="url(#paint8_linear)"/>
<path d="M0 0.299805V22.1998L41.7 36.4998L44.9 7.4998L0 0.299805Z" fill="url(#paint9_linear)"/>
<path d="M0 0.299805V22.1998L41.7 36.4998L36.8 14.5998L0 0.299805Z" fill="url(#paint10_linear)"/>
<path d="M0 0.299805V22.1998L9.9 16.1998L0 0.299805Z" fill="url(#paint11_linear)"/>
<path d="M10.9999 38.6002L36.8999 14.7002L9.5999 16.4002L0.399902 42.9002L10.9999 38.6002Z" fill="url(#paint12_linear)"/>
<path d="M10.9999 38.5998L11.8999 31.5998L5.7999 26.7998L0.399902 42.8998L10.9999 38.5998Z" fill="url(#paint13_linear)"/>
<path d="M10.9999 38.5998L11.8999 31.5998L5.7999 26.7998L0.399902 42.8998L10.9999 38.5998Z" fill="url(#paint14_linear)"/>
<path d="M44.9001 7.5L41.7001 36.5L36.8 14.6L44.9001 7.5Z" fill="url(#paint15_linear)"/>
<path d="M41.7001 36.4999L42.3001 30.3999L40.6001 31.5999L41.7001 36.4999Z" fill="url(#paint16_linear)"/>
<path d="M41.7 36.5001L36.2 34.6001L40.5999 31.6001L41.7 36.5001Z" fill="url(#paint17_linear)"/>
<path d="M44.8999 7.5L33.0999 17.9L9.3999 16.3L22.9999 4L44.8999 7.5Z" fill="url(#paint18_linear)"/>
<path d="M36.8 14.5998L44.9 7.4998L0 0.299805L36.8 14.5998Z" fill="url(#paint19_linear)"/>
<path d="M36.8 14.5998L44.9 7.4998L0 0.299805L36.8 14.5998Z" fill="url(#paint20_linear)"/>
<path d="M18.8999 7.7L36.7999 14.6L37.2999 14.1L31.3999 5.3L22.9999 4L18.8999 7.7Z" fill="url(#paint21_linear)"/>
<path d="M39 9H9V39H39V9Z" fill="url(#paint22_linear)"/>
<g opacity="0.5">
<path opacity="0.3" d="M9 29.3999V38.9999H21.075L9 29.3999Z" fill="url(#paint23_linear)"/>
<path opacity="0.3" d="M9 29.3999V38.9999H10.275L11.025 38.6999L15.4875 34.5749L9 29.3999Z" fill="url(#paint24_linear)"/>
<path opacity="0.3" d="M9 29.4L21.075 39H34.95L36.15 34.65L9 25.3125V29.4Z" fill="url(#paint25_linear)"/>
<path opacity="0.3" d="M30.225 38.3999L30.375 38.9999H34.95L36.15 34.6499L28.95 32.2124L30.225 38.3999Z" fill="url(#paint26_linear)"/>
<path opacity="0.3" d="M39 12.6748L36.75 14.6248L39 24.6373V12.6748Z" fill="url(#paint27_linear)"/>
<path opacity="0.3" d="M39 9H22.2375L36.75 14.625L39 12.675V9Z" fill="url(#paint28_linear)"/>
<path opacity="0.3" d="M39 35.625V24.6375L36.75 14.625L22.2375 9H9V25.3125L39 35.625Z" fill="url(#paint29_linear)"/>
</g>
<path d="M23.9 33.2998H12.7V35.1998H23.9V33.2998Z" fill="white"/>
<path d="M12.7 12.8691H17.0626C20.5798 12.8691 23.0148 15.2703 23.0148 18.4493V18.4831C23.0148 21.6283 20.5798 24.0971 17.0626 24.0971H12.7V12.8691ZM15.1688 15.1012V21.8651H17.0626C19.0918 21.8651 20.4446 20.5123 20.4446 18.517V18.4831C20.4446 16.4878 19.0918 15.1012 17.0626 15.1012H15.1688Z" fill="white"/>
<path d="M24.0159 18.5166C24.0159 15.3038 26.4847 12.6997 29.9004 12.6997C31.9296 12.6997 33.1471 13.2408 34.2969 14.2216L32.7412 16.0816C31.8619 15.3714 31.1179 14.9318 29.799 14.9318C28.0065 14.9318 26.5861 16.5213 26.5861 18.4152V18.4828C26.5861 20.5458 28.0065 22.0338 29.9681 22.0338C30.8812 22.0338 31.659 21.7971 32.3016 21.3574V19.7679H29.8328V17.6373H34.7028V22.5073C33.5529 23.488 31.9634 24.2997 29.9004 24.2997C26.417 24.2659 24.0159 21.8309 24.0159 18.5166Z" fill="white"/>
<defs>
<linearGradient id="paint0_linear" x1="43.9732" y1="18.0551" x2="45.3768" y2="30.2752" gradientUnits="userSpaceOnUse">
<stop offset="0.1599" stop-color="#21D789"/>
<stop offset="0.5402" stop-color="#419FBC"/>
<stop offset="1" stop-color="#6B57FF"/>
</linearGradient>
<linearGradient id="paint1_linear" x1="37.816" y1="24.1202" x2="56.0571" y2="30.543" gradientUnits="userSpaceOnUse">
<stop offset="0.0212475" stop-color="#B74AF7" stop-opacity="0"/>
<stop offset="0.744" stop-color="#8053FD" stop-opacity="0.7385"/>
<stop offset="1" stop-color="#6B57FF"/>
</linearGradient>
<linearGradient id="paint2_linear" x1="31.177" y1="12.8123" x2="34.7275" y2="3.7297" gradientUnits="userSpaceOnUse">
<stop  offset="0" stop-color="#6B57FF"/>
<stop offset="0.9516" stop-color="#21D789"/>
</linearGradient>
<linearGradient id="paint3_linear" x1="31.2387" y1="1.5357" x2="25.4817" y2="5.5698" gradientUnits="userSpaceOnUse">
<stop  offset="0" stop-color="#00FF6A"/>
<stop offset="0.9516" stop-color="#21D789" stop-opacity="0"/>
</linearGradient>
<linearGradient id="paint4_linear" x1="32.3245" y1="54.8258" x2="-1.3897" y2="31.7367" gradientUnits="userSpaceOnUse">
<stop offset="0.09839" stop-color="#6B57FF"/>
<stop offset="0.1176" stop-color="#685CFB"/>
<stop offset="0.3447" stop-color="#4A91CA"/>
<stop offset="0.5417" stop-color="#34B7A7"/>
<stop offset="0.6991" stop-color="#26CE91"/>
<stop offset="0.7971" stop-color="#21D789"/>
</linearGradient>
<linearGradient id="paint5_linear" x1="15.0425" y1="29.404" x2="17.0194" y2="52.3082" gradientUnits="userSpaceOnUse">
<stop offset="0.09839" stop-color="#6B57FF"/>
<stop offset="0.1176" stop-color="#685CFB"/>
<stop offset="0.3447" stop-color="#4A91CA"/>
<stop offset="0.5417" stop-color="#34B7A7"/>
<stop offset="0.6991" stop-color="#26CE91"/>
<stop offset="0.7971" stop-color="#21D789"/>
</linearGradient>
<linearGradient id="paint6_linear" x1="2.99" y1="24.0056" x2="45.0513" y2="47.229" gradientUnits="userSpaceOnUse">
<stop offset="0.0752688" stop-color="#21D789"/>
<stop offset="0.8874" stop-color="#6B57FF"/>
</linearGradient>
<linearGradient id="paint7_linear" x1="30.2234" y1="40.8809" x2="36.1491" y2="40.8809" gradientUnits="userSpaceOnUse">
<stop offset="0.0266187" stop-color="#4F46C6"/>
<stop offset="1" stop-color="#6B57FF"/>
</linearGradient>
<linearGradient id="paint8_linear" x1="1.5032" y1="26.6984" x2="43.5645" y2="49.9218" gradientUnits="userSpaceOnUse">
<stop offset="0.0266187" stop-color="#21D789"/>
<stop offset="0.6999" stop-color="#685CFA"/>
<stop offset="1" stop-color="#6B57FF"/>
</linearGradient>
<linearGradient id="paint9_linear" x1="-2.3312" y1="12.0388" x2="38.9116" y2="21.0114" gradientUnits="userSpaceOnUse">
<stop offset="0.2422" stop-color="#21D789"/>
<stop offset="0.4465" stop-color="#59A3B2"/>
<stop offset="0.7668" stop-color="#B74AF7"/>
<stop offset="1" stop-color="#FF45ED"/>
</linearGradient>
<linearGradient id="paint10_linear" x1="3.0096" y1="18.4047" x2="42.1944" y2="18.4047" gradientUnits="userSpaceOnUse">
<stop offset="0.1308" stop-color="#21D789"/>
<stop offset="0.3487" stop-color="#59A3B2"/>
<stop offset="0.6901" stop-color="#B74AF7"/>
<stop offset="1" stop-color="#FF45ED"/>
</linearGradient>
<linearGradient id="paint11_linear" x1="0.718" y1="11.2477" x2="10.0666" y2="11.2477" gradientUnits="userSpaceOnUse">
<stop offset="0.3086" stop-color="#56D789"/>
<stop offset="0.9587" stop-color="#8DFC77"/>
<stop offset="1" stop-color="#91FF76"/>
</linearGradient>
<linearGradient id="paint12_linear" x1="16.4682" y1="57.1834" x2="19.688" y2="15.0968" gradientUnits="userSpaceOnUse">
<stop  offset="0" stop-color="#21D789"/>
<stop offset="0.9961" stop-color="#6B57FF" stop-opacity="0"/>
</linearGradient>
<linearGradient id="paint13_linear" x1="3.7311" y1="26.5728" x2="6.6217" y2="39.1677" gradientUnits="userSpaceOnUse">
<stop offset="0.2061" stop-color="#6B57FF"/>
<stop offset="0.3273" stop-color="#6266F1"/>
<stop offset="0.5619" stop-color="#4B8FCC"/>
<stop offset="0.8839" stop-color="#26CF90"/>
<stop offset="0.9206" stop-color="#21D789"/>
</linearGradient>
<linearGradient id="paint14_linear" x1="0.0983826" y1="32.472" x2="12.1538" y2="41.8711" gradientUnits="userSpaceOnUse">
<stop offset="0.3086" stop-color="#56D789" stop-opacity="0"/>
<stop offset="0.9587" stop-color="#8DFC77" stop-opacity="0.9403"/>
<stop offset="1" stop-color="#91FF76"/>
</linearGradient>
<linearGradient id="paint15_linear" x1="36.7583" y1="21.966" x2="44.9391" y2="21.966" gradientUnits="userSpaceOnUse">
<stop offset="0.2609" stop-color="#B74AF7"/>
<stop offset="1" stop-color="#FF45ED"/>
</linearGradient>
<linearGradient id="paint16_linear" x1="43.325" y1="35.3948" x2="40.7709" y2="31.6148" gradientUnits="userSpaceOnUse">
<stop  offset="0" stop-color="#FF72F1"/>
<stop offset="0.963" stop-color="#B74AF7"/>
</linearGradient>
<linearGradient id="paint17_linear" x1="43.6326" y1="38.9131" x2="38.7287" y2="33.4984" gradientUnits="userSpaceOnUse">
<stop offset="0.668" stop-color="#FF72F1"/>
<stop offset="1" stop-color="#B74AF7"/>
</linearGradient>
<linearGradient id="paint18_linear" x1="17.336" y1="-4.5425" x2="30.0022" y2="16.6094" gradientUnits="userSpaceOnUse">
<stop offset="0.1625" stop-color="#B74AF7" stop-opacity="0.5"/>
<stop offset="0.9989" stop-color="#00FF6A" stop-opacity="0"/>
</linearGradient>
<linearGradient id="paint19_linear" x1="36.5171" y1="20.9372" x2="26.9136" y2="9.2905" gradientUnits="userSpaceOnUse">
<stop offset="0.2973" stop-color="#FF4FFF" stop-opacity="0.96"/>
<stop offset="0.9989" stop-color="#FF45ED" stop-opacity="0"/>
</linearGradient>
<linearGradient id="paint20_linear" x1="21.4528" y1="9.5944" x2="22.4745" y2="3.8732" gradientUnits="userSpaceOnUse">
<stop  offset="0" stop-color="#FF4FFF" stop-opacity="0.96"/>
<stop offset="0.9928" stop-color="#FF45ED" stop-opacity="0"/>
</linearGradient>
<linearGradient id="paint21_linear" x1="33.8543" y1="4.2294" x2="29.0718" y2="9.7558" gradientUnits="userSpaceOnUse">
<stop offset="0.1209" stop-color="#A326F7"/>
<stop offset="0.9516" stop-color="#B74AF7" stop-opacity="0"/>
</linearGradient>
<linearGradient id="paint22_linear" x1="8.597" y1="8.597" x2="37.0012" y2="37.0012" gradientUnits="userSpaceOnUse">
<stop offset="0.0284813" stop-color="#007E67"/>
<stop offset="0.1121" stop-color="#005344"/>
<stop offset="0.1976" stop-color="#002F27"/>
<stop offset="0.2776" stop-color="#001511"/>
<stop offset="0.3494" stop-color="#000605"/>
<stop offset="0.4058"/>
<stop offset="0.9138"/>
</linearGradient>
<linearGradient id="paint23_linear" x1="20.8573" y1="42.3146" x2="5.60636" y2="31.87" gradientUnits="userSpaceOnUse">
<stop offset="0.09839" stop-color="#6B57FF"/>
<stop offset="0.1176" stop-color="#685CFB"/>
<stop offset="0.3447" stop-color="#4A91CA"/>
<stop offset="0.5417" stop-color="#34B7A7"/>
<stop offset="0.6991" stop-color="#26CE91"/>
<stop offset="0.7971" stop-color="#21D789"/>
</linearGradient>
<linearGradient id="paint24_linear" x1="11.3833" y1="43.2533" x2="12.3843" y2="30.1688" gradientUnits="userSpaceOnUse">
<stop offset="0.0752688" stop-color="#21D789"/>
<stop offset="0.8874" stop-color="#6B57FF"/>
</linearGradient>
<linearGradient id="paint25_linear" x1="10.9155" y1="27.0519" x2="41.0856" y2="43.7098" gradientUnits="userSpaceOnUse">
<stop  offset="0" stop-color="#34B7A7"/>
<stop offset="0.8874" stop-color="#000069"/>
</linearGradient>
<linearGradient id="paint26_linear" x1="28.9399" y1="35.5976" x2="36.1491" y2="35.5976" gradientUnits="userSpaceOnUse">
<stop offset="0.0266187" stop-color="#4F46C6"/>
<stop offset="1" stop-color="#1F2C61"/>
</linearGradient>
<linearGradient id="paint27_linear" x1="36.7582" y1="18.6582" x2="39" y2="18.6582" gradientUnits="userSpaceOnUse">
<stop offset="0.2609" stop-color="#B74AF7"/>
<stop offset="1" stop-color="#FF45ED"/>
</linearGradient>
<linearGradient id="paint28_linear" x1="30.4242" y1="11.9187" x2="31.1429" y2="7.89435" gradientUnits="userSpaceOnUse">
<stop  offset="0" stop-color="#FF4FFF"/>
<stop offset="0.9928" stop-color="#FF75FF"/>
</linearGradient>
<linearGradient id="paint29_linear" x1="14.3593" y1="9.66394" x2="34.6736" y2="34.221" gradientUnits="userSpaceOnUse">
<stop  offset="0" stop-color="#20D185"/>
<stop offset="0.4429" stop-color="#198767"/>
<stop offset="0.844" stop-color="#12414A"/>
</linearGradient>
</defs>
</svg>
