<svg width="256" height="256" viewBox="0 0 256 256" fill="none" xmlns="http://www.w3.org/2000/svg">
<path d="M256 219L256 103.836C256 97.3198 252.116 91.4295 246.128 88.8625L96.1652 24.5902C94.1382 23.7221 91.9529 23.2729 89.7466 23.2729L16.2909 23.2729C7.29367 23.2729 0 30.5666 0 39.5639L0 111.428C0 114.646 0.954182 117.793 2.74153 120.472L88.3549 248.746C91.3757 253.275 96.4608 255.993 101.904 255.993L217.5 256C226.497 256 256 227.997 256 219Z" fill="url(#paint0_linear_4407_10176)"/>
<path d="M232.727 58.0771V16.2909C232.727 7.29367 225.434 0 216.436 0L164.066 0C163.295 0 162.525 0.0558545 161.762 0.162909L13.9869 21.2736C5.96014 22.4186 0 29.2934 0 37.3993L0 100.091C0 109.091 7.296 116.385 16.2956 116.382L90.4495 116.364C92.1996 116.364 93.938 116.082 95.5974 115.528L221.589 73.5302C228.24 71.3123 232.727 65.0868 232.727 58.0748V58.0771Z" fill="url(#paint1_linear_4407_10176)"/>
<path d="M232.725 63.7905L232.718 16.2886C232.718 7.29367 225.424 0 216.427 0L170.4 0C165.646 0 161.126 2.07825 158.031 5.68785L27.1939 158.334C24.6642 161.287 23.2725 165.048 23.2725 168.937L23.2725 216.439C23.2725 225.436 30.5661 232.73 39.5634 232.73H85.5968C90.3514 232.73 94.871 230.651 97.9663 227.042L228.803 74.3959C231.335 71.4426 232.725 67.6817 232.725 63.7905Z" fill="#FF318C"/>
<path d="M209 47L47 47L47 209L209 209L209 47Z" fill="black"/>
<path d="M133 177H68V188H133V177Z" fill="white"/>
<path d="M96.8359 131.037C90.9984 131.037 85.7117 129.67 80.9759 126.941C76.2425 124.18 72.5243 120.406 69.8215 115.614C67.1209 110.794 65.7695 105.419 65.7695 99.4927C65.7695 93.5665 67.1209 88.2075 69.8215 83.4157C72.522 78.5958 76.2401 74.817 80.9759 72.0885C85.7094 69.3273 90.996 67.9502 96.8359 67.9502C101.772 67.9502 106.305 68.8651 110.429 70.6951C114.554 72.525 117.98 75.0948 120.711 78.4068C123.47 81.6908 125.314 85.465 126.245 89.734L113.783 89.734C112.969 87.5283 111.751 85.5957 110.124 83.9385C108.525 82.2556 106.595 80.9602 104.328 80.0616C102.062 79.163 99.5924 78.7102 96.9222 78.7102C93.3208 78.7102 90.0671 79.6088 87.1635 81.4107C84.26 83.2126 81.9796 85.6961 80.3224 88.861C78.6956 91.998 77.8833 95.5434 77.8833 99.4927C77.8833 103.442 78.6956 107.004 80.3224 110.166C81.9772 113.303 84.2576 115.77 87.1635 117.572C90.0671 119.374 93.3208 120.273 96.9222 120.273C99.5947 120.273 102.064 119.82 104.328 118.921C106.595 118.023 108.525 116.744 110.124 115.087C111.751 113.404 112.969 111.455 113.783 109.249H126.245C125.316 113.518 123.47 117.309 120.711 120.621C117.98 123.905 114.554 126.458 110.429 128.288C106.305 130.118 101.772 131.033 96.8359 131.033V131.037ZM146.647 68.9935V119.271H175.578V129.989H134.797V68.9935H146.647Z" fill="white"/>
<path d="M224.755 256H95.2454C86.9586 256 79.0112 252.708 73.1516 246.849C67.292 240.989 64 233.042 64 224.755V191.245C64 187.142 64.8082 183.079 66.3784 179.288C67.9486 175.497 70.2502 172.053 73.1516 169.151C76.053 166.25 79.4974 163.949 83.2882 162.378C87.0791 160.808 91.1422 160 95.2454 160H224.755C233.042 160 240.989 163.292 246.849 169.151C252.708 175.011 256 182.958 256 191.245V224.755C256 233.042 252.708 240.989 246.849 246.849C240.989 252.708 233.042 256 224.755 256Z" fill="#FDB60D"/>
<path d="M99.6494 187.024H132.605V195.578H109.199V204.441H129.797V212.99H109.199V222.166H132.917V230.716H99.6494V187.024Z" fill="black"/>
<path d="M156.445 186.716H165.308L184.033 230.716H173.984L169.989 220.918H151.516L147.522 230.716H137.725L156.445 186.716ZM166.56 212.43L160.753 198.26L154.95 212.43H166.56Z" fill="black"/>
<path d="M190.774 187.024H208.625C219.048 187.024 225.351 193.205 225.351 202.128V202.254C225.351 212.364 217.488 217.61 207.691 217.61H200.389V230.715H190.775L190.774 187.024ZM208 209.057C208.944 209.177 209.904 209.096 210.815 208.82C211.726 208.543 212.569 208.078 213.288 207.453C214.006 206.829 214.585 206.059 214.986 205.196C215.387 204.332 215.601 203.394 215.615 202.441V202.315C215.615 198.012 212.62 195.7 207.813 195.7H200.389V209.057H208Z" fill="black"/>
<defs>
<linearGradient id="paint0_linear_4407_10176" x1="15.9255" y1="16.8892" x2="250.747" y2="251.709" gradientUnits="userSpaceOnUse">
<stop offset="0.29" stop-color="#009AE5"/>
<stop offset="0.7" stop-color="#00D980"/>
</linearGradient>
<linearGradient id="paint1_linear_4407_10176" x1="225.515" y1="-2.86952" x2="11.0103" y2="96.5818" gradientUnits="userSpaceOnUse">
<stop offset="0.3" stop-color="#FF318C"/>
<stop offset="0.54" stop-color="#009AE5"/>
</linearGradient>
</defs>
</svg>
