<!-- Copyright © 2000–2024 JetBrains s.r.o. -->
<svg width="16" height="16" viewBox="0 0 16 16" xmlns="http://www.w3.org/2000/svg">
  <defs>
    <linearGradient id="a" x1="8.14" x2="8.14" y1="1.07" y2="15.15" gradientUnits="userSpaceOnUse">
      <stop offset="0" stop-color="#576a80"/>
      <stop offset="1" stop-color="#2d3742"/>
    </linearGradient>
    <linearGradient id="b" x1="8.15" x2="8.15" y1="5.27" y2="9.38" gradientUnits="userSpaceOnUse">
      <stop offset="0" stop-color="#fff"/>
      <stop offset="1" stop-color="#e0efff"/>
    </linearGradient>
  </defs>
  <path fill="url(#a)" d="M15.07 1.79c-.29-.5-.84-.79-1.52-.79H9.42c-.67 0-1.22.29-1.52.79-.29.51-.27 1.13.07 1.71L9.1 5.46 7.99 7.2l-.54-.85c.34-.54.54-1.17.54-1.85 0-1.93-1.57-3.5-3.5-3.5S.99 2.57.99 4.5 2.56 8 4.49 8h-.5v7h8V8h-.51c.58 0 1.11-.33 1.45-.92L15 3.5c.34-.58.36-1.2.07-1.71"/>
  <path fill="url(#b)" d="M7 9.36 5.2 6.53l.77-.65L8 9.07l2.42-3.8.68.79-2.11 3.32z"/>
  <path fill="#00d43b" d="M12.07 6.59c-.32.55-.84.55-1.16 0L8.84 3.01C8.52 2.46 8.78 2 9.42 2h4.13c.64 0 .9.45.58 1.01l-2.07 3.58Z"/>
  <path fill="#ff9800" d="M5 9h6v5H5z"/>
  <circle cx="4.5" cy="4.5" r="2.5" fill="#4db8ff"/>
</svg>
