<!-- Copyright © 2000–2024 JetBrains s.r.o. -->
<svg width="16" height="16" viewBox="0 0 16 16" xmlns="http://www.w3.org/2000/svg">
  <path fill="#fff" d="M14.77 2.5c-.19-.32-.55-.5-.99-.5h-3.56c-.45 0-.81.18-.99.5-.19.32-.16.73.06 1.11l1.34 2.31-.02.02-2.35 3.05h-.51L5.7 6.32c.49-.46.81-1.1.81-1.83a2.5 2.5 0 0 0-5 0 2.5 2.5 0 0 0 2.5 2.5c.29 0 .57-.06.83-.15L6.5 8.99h-.43c-.58 0-1.06.47-1.06 1.06v2.88c0 .58.48 1.06 1.06 1.06h3.88c.58 0 1.06-.47 1.06-1.06v-2.88c0-.58-.48-1.06-1.06-1.06h-.43l1.66-2.15c.22.29.51.46.83.46.37 0 .71-.22.93-.61l1.78-3.08c.22-.39.24-.79.06-1.11ZM2.5 4.5C2.5 3.67 3.17 3 4 3s1.5.67 1.5 1.5S4.83 6 4 6s-1.5-.67-1.5-1.5m7.5 5.56L9.94 13H6.06S6 12.97 6 12.94L6.06 10zm3.85-6.94L12.07 6.2c-.03.05-.06.08-.06.1-.02-.02-.04-.05-.08-.1l-1.78-3.08c-.03-.05-.04-.09-.06-.1.02 0 .06-.02.12-.02h3.67c0 .02-.02.06-.05.12Z"/>
</svg>
