<!-- Copyright © 2000–2024 JetBrains s.r.o. -->
<svg width="16" height="16" viewBox="0 0 16 16" xmlns="http://www.w3.org/2000/svg">
  <path fill="#afb1b3" d="M15.21 2.25a.5.5 0 0 0-.43-.25H9.22c-.18 0-.34.1-.43.25s-.09.35 0 .5l1.83 3.18-.02.02L8.25 9h-.5L5.69 6.33c.5-.46.81-1.11.81-1.83a2.5 2.5 0 0 0-5 0A2.5 2.5 0 0 0 4 7c.29 0 .57-.06.83-.15L6.48 9H5v5h6V9H9.52l1.64-2.14.41.71c.09.15.25.25.43.25s.34-.1.43-.25l2.78-4.82c.09-.15.09-.35 0-.5M4 5.5c-.55 0-1-.45-1-1s.45-1 1-1 1 .45 1 1-.45 1-1 1m5.5 7h-3v-2h3zM12 5.32 10.95 3.5h2.1z"/>
</svg>
