<!-- Copyright © 2000–2024 JetBrains s.r.o. -->
<svg width="16" height="16" viewBox="0 0 16 16" xmlns="http://www.w3.org/2000/svg">
  <path d="M14 6h-4c-.25 0-.48.1-.66.26L7.95 5.22c.02-.07.04-.14.04-.22V3c0-.55-.45-1-1-1H3c-.55 0-1 .45-1 1v2c0 .55.45 1 1 1h4c.09 0 .18-.03.26-.05L9 7.25v1.5l-1.74 1.3C7.17 10.03 7.09 10 7 10H3c-.55 0-1 .45-1 1v2c0 .55.45 1 1 1h4c.55 0 1-.45 1-1v-2c0-.08-.03-.14-.04-.22l1.39-1.04c.18.16.4.26.66.26h4c.55 0 1-.45 1-1V7c0-.55-.45-1-1-1ZM7 5H3V3h4zm0 8H3v-2h4zm7-4h-4V7h4z"/>
</svg>
