<!-- Copyright © 2000–2024 JetBrains s.r.o. -->
<svg width="16" height="16" viewBox="0 0 16 16" xmlns="http://www.w3.org/2000/svg">
  <path fill="#fff" d="M14.5 2h-13c-.28 0-.5.22-.5.5v11c0 .28.22.5.5.5h13c.28 0 .5-.22.5-.5v-11c0-.28-.22-.5-.5-.5M2 3h3v10H2zm12 10H6V3h8z"/>
  <path fill="#fff" d="M3.5 5a.5.5 0 1 0 0-1 .5.5 0 0 0 0 1m0 2a.5.5 0 1 0 0-1 .5.5 0 0 0 0 1m0 2a.5.5 0 1 0 0-1 .5.5 0 0 0 0 1m0 2a.5.5 0 1 0 0-1 .5.5 0 0 0 0 1m0 2a.5.5 0 1 0 0-1 .5.5 0 0 0 0 1m-1-9a.5.5 0 1 0 0-1 .5.5 0 0 0 0 1m0 2a.5.5 0 1 0 0-1 .5.5 0 0 0 0 1m0 2a.5.5 0 1 0 0-1 .5.5 0 0 0 0 1m0 2a.5.5 0 1 0 0-1 .5.5 0 0 0 0 1m0 2a.5.5 0 1 0 0-1 .5.5 0 0 0 0 1m2-8a.5.5 0 1 0 0-1 .5.5 0 0 0 0 1m0 2a.5.5 0 1 0 0-1 .5.5 0 0 0 0 1m0 2a.5.5 0 1 0 0-1 .5.5 0 0 0 0 1m0 2a.5.5 0 1 0 0-1 .5.5 0 0 0 0 1m0 2a.5.5 0 1 0 0-1 .5.5 0 0 0 0 1"/>
</svg>
