<!-- Copyright © 2000–2024 JetBrains s.r.o. -->
<svg width="16" height="16" viewBox="0 0 16 16" xmlns="http://www.w3.org/2000/svg">
  <path fill="#252525" d="M2 15V1h7.41L14 5.59V15Zm0 0"/>
  <path fill="#C4C4C4" d="M9 2H3v12h10V6Zm0 0"/>
  <path fill="#292929" d="M9 6V4H5v8h6V6Zm0 0"/>
  <path fill="#252525" d="M6.5 16c-.74 0-1.4-.32-1.86-.83-.38.54-1.03.83-1.64.83H0v-3h.25C.1 12.72 0 12.39 0 12v-1c0-1.3 1.03-2 2-2h3v.5c.42-.31.94-.5 1.5-.5s1.08.19 1.5.5V9h3v4h2v3Zm0 0"/>
  <path fill="#76BCFF" d="M4 11v-1H2s-1 0-1 1v1c0 1 1 1 1 1h1v1H1v1h2s1 0 1-1v-1c0-1-1-1-1-1H2v-1Zm6 3v-4H9v5h3v-1Zm-2.24.31c.15-.23.24-.51.24-.81v-2c0-.83-.67-1.5-1.5-1.5S5 10.67 5 11.5v2c0 .83.67 1.5 1.5 1.5h2v-.5ZM6 13.5v-2c0-.28.22-.5.5-.5s.5.22.5.5v2c0 .28-.22.5-.5.5s-.5-.22-.5-.5"/>
</svg>
