<!-- Copyright © 2000–2024 JetBrains s.r.o. -->
<svg width="16" height="16" viewBox="0 0 16 16" xmlns="http://www.w3.org/2000/svg">
  <path fill="url(#a)" d="M7.75 15.5c-.44 0-.84-.19-1.12-.5H4v-3h1v-1h1.25v-.35c-2.52-.38-3-1.87-3-4.65 0-3.73 1.02-4.75 4.75-4.75S12.75 2.27 12.75 6c0 2.78-.48 4.27-3 4.65V14c0 .83-.67 1.5-1.5 1.5z"/>
  <path fill="url(#b)" d="M8 2.25c-3.19 0-3.75.56-3.75 3.75 0 2.92.48 3.63 3 3.73V12H6v1H5v1h2.25c0 .28.22.5.5.5h.5c.28 0 .5-.22.5-.5V9.73c2.52-.1 3-.82 3-3.73 0-3.19-.56-3.75-3.75-3.75"/>
  <path fill="url(#c)" d="M10 7.5H9V5.71L6.7 8 6 7.3 8.29 5H6.5V4H10z"/>
  <defs>
    <linearGradient id="a" x1="8" x2="8" y1="1.32" y2="15.57" gradientUnits="userSpaceOnUse">
      <stop stop-color="#576A80"/>
      <stop offset="1" stop-color="#2D3742"/>
    </linearGradient>
    <linearGradient id="b" x1="8" x2="8" y1="2.25" y2="14.59" gradientUnits="userSpaceOnUse">
      <stop stop-color="#F2FCFF"/>
      <stop offset="1" stop-color="#9CC9F7"/>
    </linearGradient>
    <linearGradient id="c" x1="8" x2="8" y1="4" y2="8.03" gradientUnits="userSpaceOnUse">
      <stop stop-color="#4490EB"/>
      <stop offset="1" stop-color="#073D78"/>
    </linearGradient>
  </defs>
</svg>
