<!-- Copyright © 2000–2024 JetBrains s.r.o. -->
<svg width="16" height="16" viewBox="0 0 16 16" xmlns="http://www.w3.org/2000/svg">
  <path fill="#40B6E0" d="M14 10.75v1.75c0 .83-2.69 1.5-6 1.5s-6-.67-6-1.5v-1.75c0 .83 2.69 1.5 6 1.5s6-.67 6-1.5m-6-1.5c-3.31 0-6-.67-6-1.5V9.5c0 .83 2.69 1.5 6 1.5s6-.67 6-1.5V7.75c0 .83-2.69 1.5-6 1.5m0-3c-3.31 0-6-.67-6-1.5V6.5C2 7.33 4.69 8 8 8s6-.67 6-1.5V4.75c0 .83-2.69 1.5-6 1.5M2 3.5C2 2.67 4.69 2 8 2s6 .67 6 1.5S11.31 5 8 5s-6-.67-6-1.5" opacity=".698"/>
</svg>
