<!-- Copyright © 2000–2024 JetBrains s.r.o. -->
<svg width="16" height="16" viewBox="0 0 16 16" xmlns="http://www.w3.org/2000/svg">
  <path fill="#fff" d="M12 5c0-3.51-.49-4-4-4s-4 .49-4 4 .44 3.94 3.5 3.99V11H6c-.28 0-.5.22-.5.5s.22.5.5.5h1.5v1H6c-.28 0-.5.22-.5.5s.22.5.5.5h1.5v.5c0 .28.22.5.5.5s.5-.22.5-.5V8.99C11.56 8.94 12 8.33 12 5M8 8c-2.97 0-3-.03-3-3s.03-3 3-3 3 .03 3 3-.03 3-3 3"/>
  <path fill="#fff" d="M9.96 3.31A.51.51 0 0 0 9.5 3h-2c-.28 0-.5.22-.5.5s.22.5.5.5h.79L6.14 6.15c-.2.2-.2.51 0 .71a.485.485 0 0 0 .7 0l2.15-2.15v.79c0 .28.22.5.5.5s.5-.22.5-.5v-2c0-.07-.01-.13-.04-.19z"/>
</svg>
