<!-- Copyright © 2000–2024 JetBrains s.r.o. -->
<svg width="16" height="16" viewBox="0 0 16 16" xmlns="http://www.w3.org/2000/svg">
  <path fill="#43454A" d="M8 2.5c-3.04 0-5.5.9-5.5 2v7c0 1.1 2.46 2 5.5 2s5.5-.9 5.5-2v-7c0-1.1-2.46-2-5.5-2"/>
  <path fill="none" stroke="#CED0D6" stroke-miterlimit="10" d="M8 6.5c3.038 0 5.5-.895 5.5-2s-2.462-2-5.5-2-5.5.895-5.5 2 2.462 2 5.5 2Zm5.5.33c0 1.1-2.46 2-5.5 2s-5.5-.9-5.5-2m11 2.34c0 1.1-2.46 2-5.5 2s-5.5-.9-5.5-2"/>
  <path fill="none" stroke="#CED0D6" stroke-miterlimit="10" d="M2.5 4.5v7c0 1.1 2.46 2 5.5 2s5.5-.9 5.5-2v-7"/>
</svg>
