<!-- Copyright © 2000–2024 JetBrains s.r.o. -->
<svg width="16" height="16" viewBox="0 0 16 16" xmlns="http://www.w3.org/2000/svg">
  <path d="M2 4.5v7C2 13.14 5.02 14 8 14s6-.86 6-2.5v-7c0-3.28-12-3.28-12 0M8 3c3.01 0 5 .9 5 1.5S11.01 6 8 6s-5-.9-5-1.5S4.99 3 8 3m0 10c-3.01 0-5-.9-5-1.5v-.89c1.13.7 3.07 1.06 5 1.06s3.87-.36 5-1.06v.89c0 .6-1.99 1.5-5 1.5m0-2.33c-3.01 0-5-.9-5-1.5v-.89c1.13.7 3.07 1.06 5 1.06s3.87-.36 5-1.06v.89c0 .6-1.99 1.5-5 1.5m0-2.34c-3.01 0-5-.9-5-1.5v-.89C4.13 6.64 6.07 7 8 7s3.87-.36 5-1.06v.89c0 .6-1.99 1.5-5 1.5"/>
</svg>
