<!-- Copyright © 2000–2024 JetBrains s.r.o. -->
<svg width="16" height="16" viewBox="0 0 16 16" xmlns="http://www.w3.org/2000/svg">
  <path d="m13.75 4.74-5.5-3.18a.5.5 0 0 0-.5 0l-5.5 3.18c-.15.09-.25.25-.25.43v5.65c0 .18.1.34.25.43l5.5 3.18c.08.04.16.07.25.07s.17-.02.25-.07l5.5-3.18c.15-.09.25-.25.25-.43V5.17c0-.18-.1-.34-.25-.43m-.75 5.8-5 2.89-5-2.89V5.47l5-2.89 5 2.89z"/>
  <path d="M6.3 7v1h1.03l-.54 1.9c-.1.35-.43.6-.79.6h-.5v1H6c.81 0 1.53-.54 1.75-1.33L8.37 8H9.7V7H8.65l.31-1.09c.07-.24.29-.41.54-.41h.5v-1h-.5c-.69 0-1.31.47-1.5 1.13L7.61 7z"/>
</svg>
