<!-- Copyright © 2000–2024 JetBrains s.r.o. -->
<svg width="16" height="16" viewBox="0 0 16 16" xmlns="http://www.w3.org/2000/svg">
  <path fill="#252525" d="M1 11.69V4.31L8 .27l7 4.04v7.38l-7 4.04z"/>
  <path fill="#b280d3" d="m8 14.58-6-3.47V4.89l6-3.47 6 3.47v6.22z"/>
  <path fill="#292929" d="m3 10.54 5 2.88 5-2.88V5.46L8 2.58 3 5.46z"/>
  <path fill="#b280d3" d="M9.5 5.5h.5v-1h-.5c-.69 0-1.31.47-1.5 1.13L7.61 7H6.3v1h1.03l-.54 1.9c-.1.35-.43.6-.79.6h-.5v1H6c.81 0 1.53-.54 1.75-1.33L8.37 8H9.7V7H8.65l.31-1.09c.07-.24.29-.41.54-.41"/>
</svg>
