<!-- Copyright © 2000–2024 JetBrains s.r.o. -->
<svg width="16" height="16" viewBox="0 0 16 16" xmlns="http://www.w3.org/2000/svg">
  <path fill="#F4F4F4" d="M8 12V9a2 2 0 0 0-2-2H3a2 2 0 0 0-2 2v3a2 2 0 0 0 2 2h3a2 2 0 0 0 2-2"/>
  <path fill="#323232" d="M6 8H3a1 1 0 0 0-1 1v3a1 1 0 0 0 1 1h3a1 1 0 0 0 1-1V9a1 1 0 0 0-1-1"/>
  <path fill="#EBEBEB" d="M6 12V9H3v3z"/>
  <path fill="#F4F4F4" d="M15 12V9a2 2 0 0 0-2-2h-3a2 2 0 0 0-2 2v3a2 2 0 0 0 2 2h3a2 2 0 0 0 2-2"/>
  <path fill="#323232" d="M13 8h-3a1 1 0 0 0-1 1v3a1 1 0 0 0 1 1h3a1 1 0 0 0 1-1V9a1 1 0 0 0-1-1"/>
  <path fill="#EBEBEB" d="M13 12V9h-3v3z"/>
  <path fill="#F4F4F4" d="M15 6V3a2 2 0 0 0-2-2h-3a2 2 0 0 0-2 2v3a2 2 0 0 0 2 2h3a2 2 0 0 0 2-2"/>
  <path fill="#323232" d="M13 2h-3a1 1 0 0 0-1 1v3a1 1 0 0 0 1 1h3a1 1 0 0 0 1-1V3a1 1 0 0 0-1-1"/>
  <path fill="#EBEBEB" d="M13 6V3h-3v3z"/>
  <path fill="#F4F4F4" d="M3 8V6.5C3 4.57 4.57 3 6.5 3H9v3H6.5c-.28 0-.5.22-.5.5V8z"/>
  <path fill="#323232" d="M5 8H4V6.5A2.5 2.5 0 0 1 6.5 4H9v1H6.5C5.67 5 5 5.67 5 6.5zm4 2H7v1h2z"/>
</svg>
