<!-- Copyright © 2000–2024 JetBrains s.r.o. -->
<svg width="16" height="16" viewBox="0 0 16 16" xmlns="http://www.w3.org/2000/svg">
  <path fill="#9AA7B0" d="M10.3 7h2.4c.72 0 1.3-.58 1.3-1.3V3.3c0-.72-.58-1.3-1.3-1.3h-2.4C9.58 2 9 2.58 9 3.3V4H6.5A2.5 2.5 0 0 0 4 6.5V8h-.7C2.58 8 2 8.58 2 9.3v2.4c0 .72.58 1.3 1.3 1.3h2.4c.72 0 1.3-.58 1.3-1.3V11h2v.7c0 .72.58 1.3 1.3 1.3h2.4c.72 0 1.3-.58 1.3-1.3V9.3c0-.72-.58-1.3-1.3-1.3h-2.4C9.58 8 9 8.58 9 9.3v.7H7v-.7C7 8.58 6.42 8 5.7 8H5V6.5C5 5.67 5.67 5 6.5 5H9v.7c0 .72.58 1.3 1.3 1.3m.2-3.3c0-.11.09-.2.2-.2h1.6c.11 0 .2.09.2.2v1.6a.2.2 0 0 1-.2.2h-1.6a.2.2 0 0 1-.2-.2zm0 6c0-.11.09-.2.2-.2h1.6c.11 0 .2.09.2.2v1.6a.2.2 0 0 1-.2.2h-1.6a.2.2 0 0 1-.2-.2zm-5.2-.2c.11 0 .2.09.2.2v1.6a.2.2 0 0 1-.2.2H3.7a.2.2 0 0 1-.2-.2V9.7c0-.11.09-.2.2-.2z"/>
</svg>
