<!-- Copyright © 2000–2024 JetBrains s.r.o. -->
<svg width="16" height="16" viewBox="0 0 16 16" xmlns="http://www.w3.org/2000/svg">
  <path d="M9.5 7h4c.28 0 .5-.22.5-.5v-4c0-.28-.22-.5-.5-.5h-4c-.28 0-.5.22-.5.5V4H6.5A2.5 2.5 0 0 0 4 6.5V8H2.5c-.28 0-.5.22-.5.5v4c0 .28.22.5.5.5h4c.28 0 .5-.22.5-.5V11h2v1.5c0 .28.22.5.5.5h4c.28 0 .5-.22.5-.5v-4c0-.28-.22-.5-.5-.5h-4c-.28 0-.5.22-.5.5V10H7V8.5c0-.28-.22-.5-.5-.5H5V6.5C5 5.67 5.67 5 6.5 5H9v1.5c0 .28.22.5.5.5m.5-4h3v3h-3zm0 6h3v3h-3zM6 9v3H3V9z"/>
</svg>
