<!-- Copyright © 2000–2024 JetBrains s.r.o. -->
<svg width="32" height="32" viewBox="0 0 32 32" xmlns="http://www.w3.org/2000/svg">
  <path fill="#408DF7" d="M16 3C10.22 3 4 4.41 4 7.5v17c0 3.09 6.22 4.5 12 4.5s12-1.41 12-4.5v-17C28 4.41 21.78 3 16 3m10 10.17c0 .39-1.29 1.37-4.36 1.99l.34-.37a.996.996 0 0 0-.06-1.41.996.996 0 0 0-1.41.06l-2.25 2.44a1 1 0 0 0 .13 1.47l2.22 1.69c.18.14.39.21.61.21.3 0 .6-.14.8-.39.33-.44.25-1.07-.19-1.4l-.32-.24c1.42-.25 3.16-.69 4.49-1.41v2.97c-.4.74-4.19 2.22-6.66 2.43-.97.07-1.62-.85-2.56-2.4-.88-1.45-1.88-3.08-3.69-3.25C8.04 15.11 6 13.7 6 13.19v-3.04c2.3 1.27 6.24 1.87 10 1.87s7.7-.6 10-1.87v3.04ZM16 5c6.6 0 10 1.75 10 2.5S22.6 10 16 10 6 8.25 6 7.5 9.4 5 16 5m0 22c-6.6 0-10-1.75-10-2.5v-3.03c1.39.76 3.24 1.2 4.68 1.44l-.3.26c-.42.36-.46.99-.1 1.41.2.23.48.34.75.34.23 0 .47-.08.66-.25l1.96-1.71a1 1 0 0 0 .13-1.37l-1.94-2.45a1 1 0 0 0-1.4-.17 1 1 0 0 0-.17 1.4l.39.49C7.18 20.22 6 19.16 6 18.81v-3.03c2.18 1.19 5.55 1.61 6.91 1.73.8.07 1.46 1.15 2.16 2.29.92 1.51 2.05 3.37 4.13 3.37.1 0 .2 0 .31-.01 1.12-.09 4.35-.77 6.49-1.96v3.28c0 .75-3.4 2.5-10 2.5Z"/>
</svg>
