<!-- Copyright © 2000–2024 JetBrains s.r.o. -->
<svg width="16" height="16" viewBox="0 0 16 16" xmlns="http://www.w3.org/2000/svg">
  <path fill="#F4F4F4" d="M16 1H0v14h16z"/>
  <path fill="#323232" d="M15 2H1v12h14z"/>
  <path fill="#EBEBEB" d="M5 6H2V3h3zm5 0V3H6v3zm1-3v3h3V3zM2 7v6h3V7zm9 6h3V7h-3zM6 7v6h4V7z"/>
  <path fill="#F4F4F4" d="m15.86 13.02.14-.24v-.56l-.14-.24C14.73 10.11 12.91 9 11 9s-3.72 1.11-4.86 2.98l-.14.24v.56l.14.24C7.27 14.89 9.09 16 11 16s3.72-1.11 4.86-2.98"/>
  <path fill="#1BA1E2" d="M11 10c-1.57 0-3.05.94-4 2.5.95 1.56 2.43 2.5 4 2.5s3.05-.94 4-2.5c-.95-1.56-2.43-2.5-4-2.5"/>
  <path fill="#EBEBEB" d="M11 13.75a1.25 1.25 0 1 0 0-2.5 1.25 1.25 0 0 0 0 2.5"/>
</svg>
