<!-- Copyright © 2000–2024 JetBrains s.r.o. -->
<svg width="16" height="16" viewBox="0 0 16 16" xmlns="http://www.w3.org/2000/svg">
  <path fill="url(#a)" d="M16 1H0v14h16z"/>
  <path fill="url(#b)" d="M15 2H1v12h14z"/>
  <path fill="url(#c)" d="M14 3H2v10h12z"/>
  <path fill="url(#d)" d="M14.5 6H11V2.5h-1V6H6V2.5H5V6H1.5v1H5v6.5h1V7h4v6.5h1V7h3.5z"/>
  <path fill="url(#e)" d="m15.86 13.02.14-.24v-.56l-.14-.24C14.73 10.11 12.91 9 11 9s-3.72 1.11-4.86 2.98l-.14.24v.56l.14.24C7.27 14.89 9.09 16 11 16s3.72-1.11 4.86-2.98"/>
  <path fill="url(#f)" d="M11 10c-1.57 0-3.05.94-4 2.5.95 1.56 2.43 2.5 4 2.5s3.05-.94 4-2.5c-.95-1.56-2.43-2.5-4-2.5"/>
  <path fill="#005BB2" d="M11 13.75a1.25 1.25 0 1 0 0-2.5 1.25 1.25 0 0 0 0 2.5"/>
  <defs>
    <linearGradient id="a" x1="8" x2="8" y1="1.07" y2="15.07" gradientUnits="userSpaceOnUse">
      <stop stop-color="#576A80"/>
      <stop offset="1" stop-color="#2D3742"/>
    </linearGradient>
    <linearGradient id="b" x1="8" x2="8" y1="2" y2="14.09" gradientUnits="userSpaceOnUse">
      <stop stop-color="#F2FCFF"/>
      <stop offset="1" stop-color="#9CC9F7"/>
    </linearGradient>
    <linearGradient id="c" x1="8" x2="8" y1="3" y2="13.08" gradientUnits="userSpaceOnUse">
      <stop stop-color="#ADD2F7"/>
      <stop offset="1" stop-color="#9CC9F7"/>
    </linearGradient>
    <linearGradient id="d" x1="8" x2="8" y1="2.5" y2="13.5" gradientUnits="userSpaceOnUse">
      <stop stop-color="#4490EB"/>
      <stop offset="1" stop-color="#073D78"/>
    </linearGradient>
    <linearGradient id="e" x1="11" x2="11" y1="8.98" y2="16" gradientUnits="userSpaceOnUse">
      <stop stop-color="#484D73"/>
      <stop offset="1" stop-color="#7178B2"/>
    </linearGradient>
    <linearGradient id="f" x1="11" x2="11" y1="10.02" y2="15.04" gradientUnits="userSpaceOnUse">
      <stop stop-color="#fff"/>
      <stop offset="1" stop-color="#DFDCCF"/>
    </linearGradient>
  </defs>
</svg>
