<!-- Copyright © 2000–2024 JetBrains s.r.o. -->
<svg width="16" height="16" viewBox="0 0 16 16" xmlns="http://www.w3.org/2000/svg">
  <path d="M6.22 13.78c-.14-.23-.22-.5-.22-.78V6h4v3.21c.33-.09.66-.15 1-.18V5.99h3V9.6c.35.17.68.38 1 .62V2.5c0-.28-.22-.5-.5-.5h-13c-.28 0-.5.22-.5.5v11c0 .28.22.5.5.5h4.87c-.05-.08-.11-.15-.15-.22M11 3h3v2h-3zM6 3h4v2H6zM5 13H2V6h3zm0-8H2V3h3z"/>
  <path d="M15.93 12.74C14.89 11.02 13.24 10 11.5 10s-3.39 1.02-4.43 2.74c-.05.08-.07.17-.07.26s.02.18.07.26C8.11 14.98 9.76 16 11.5 16s3.39-1.02 4.43-2.74c.05-.08.07-.17.07-.26s-.02-.18-.07-.26M11.5 15c-1.29 0-2.55-.74-3.41-2 .86-1.26 2.11-2 3.41-2s2.55.74 3.41 2c-.86 1.26-2.11 2-3.41 2"/>
  <path d="M11.5 14.25a1.25 1.25 0 1 0 0-2.5 1.25 1.25 0 0 0 0 2.5"/>
</svg>
