<!-- Copyright © 2000–2024 JetBrains s.r.o. -->
<svg width="16" height="16" viewBox="0 0 16 16" xmlns="http://www.w3.org/2000/svg">
  <path fill="none" stroke="#6C707E" stroke-linecap="round" stroke-miterlimit="10" d="M5.46 13.5H2.5c-.55 0-1-.45-1-1v-9c0-.55.45-1 1-1h11c.55 0 1 .45 1 1v5.8m-9-6.8v11m5-11v6.08m-9-3.08h13"/>
  <path fill="#EDF3FF" stroke="#3574F0" stroke-linecap="round" stroke-miterlimit="10" d="M11.5 10.5c-1.57 0-3.05.94-4 2.5.95 1.56 2.43 2.5 4 2.5s3.05-.94 4-2.5c-.95-1.56-2.43-2.5-4-2.5Z"/>
  <path fill="#3574F0" d="M11.5 14a1 1 0 1 0 0-2 1 1 0 0 0 0 2"/>
</svg>
