<!-- Copyright © 2000–2024 JetBrains s.r.o. -->
<svg width="16" height="16" viewBox="0 0 16 16" xmlns="http://www.w3.org/2000/svg">
  <path fill="#9AA7B0" d="M6 13.78v-.56l.13-.22H6v-2h1.98c.91-.64 1.95-1 3.02-1V8h3v2h-3c1.48 0 2.91.68 4 1.86V2H1v12h5.13zM11 5h3v2h-3zM6 5h4v2H6zm0 3h4v2H6zm-1 5H2v-2h3zm0-3H2V8h3zm0-3H2V5h3z"/>
  <path fill="#40B6E0" d="M11 11c-1.57 0-3.05.94-4 2.5.95 1.56 2.43 2.5 4 2.5s3.05-.94 4-2.5c-.95-1.56-2.43-2.5-4-2.5m0 3.75a1.25 1.25 0 1 1 0-2.5 1.25 1.25 0 0 1 0 2.5"/>
</svg>
