<svg width="12" height="12" viewBox="0 0 12 12" fill="none" xmlns="http://www.w3.org/2000/svg">
<path fill-rule="evenodd" clip-rule="evenodd" d="M12 6H5V12H12V6ZM11 7H6V11H11V7Z" fill="#9AA7B0"/>
<rect x="7" y="8" width="3" height="2" fill="#62B543"/>
<path d="M2 6C2 6.05677 2.00118 6.11327 2.00352 6.16946C1.65139 6.29343 1.32936 6.48124 1.05131 6.719C1.0175 6.48421 1 6.24415 1 6C1 3.23858 3.23858 1 6 1C6.24415 1 6.48421 1.0175 6.719 1.05131C6.48124 1.32936 6.29342 1.6514 6.16946 2.00353C6.11327 2.00119 6.05677 2 6 2C3.79086 2 2 3.79086 2 6Z" fill="#9AA7B0"/>
<path d="M11.2361 5C11.7111 4.46924 12 3.76835 12 3C12 1.34315 10.6569 0 9 0C7.34315 0 6 1.34315 6 3C6 3.76835 6.28885 4.46924 6.76389 5H11.2361Z" fill="#F4AF3D" fill-opacity="0.7"/>
<path d="M4 6.17071V11.8293C3.68722 11.9398 3.35064 12 3 12C1.34315 12 0 10.6569 0 9C0 7.34315 1.34315 6 3 6C3.35064 6 3.68722 6.06015 4 6.17071Z" fill="#F4AF3D" fill-opacity="0.7"/>
</svg>
