<svg width="16" height="16" viewBox="0 0 16 16" fill="none" xmlns="http://www.w3.org/2000/svg">
<path fill-rule="evenodd" clip-rule="evenodd" d="M11.5 8C13.433 8 15 6.433 15 4.5C15 2.567 13.433 1 11.5 1C9.567 1 8 2.567 8 4.5C8 6.433 9.567 8 11.5 8Z" fill="#F4AF3D" fill-opacity="0.7"/>
<path fill-rule="evenodd" clip-rule="evenodd" d="M16 9H7V16H16V9ZM15 10H8V15H15V10Z" fill="#9AA7B0"/>
<rect x="9" y="11" width="5" height="3" fill="#62B543"/>
<path d="M4 8L4.00015 8.03542C3.65112 8.08533 3.3187 8.18674 3.01083 8.3317C3.00365 8.22206 3 8.11145 3 8C3 5.23858 5.23858 3 8 3C8.11145 3 8.22206 3.00365 8.3317 3.01083C8.18674 3.3187 8.08533 3.65112 8.03542 4.00015L8 4C5.79086 4 4 5.79086 4 8Z" fill="#9AA7B0"/>
<path d="M6 14.6632C5.54537 14.8792 5.0368 15 4.5 15C2.567 15 1 13.433 1 11.5C1 9.567 2.567 8 4.5 8C5.0368 8 5.54537 8.12085 6 8.33682V14.6632Z" fill="#F4AF3D" fill-opacity="0.7"/>
</svg>
