<svg width="16" height="16" viewBox="0 0 16 16" fill="none" xmlns="http://www.w3.org/2000/svg">
  <path
    d="M1.92859 7.00002C1.92859 4.19914 4.19914 1.92859 7.00002 1.92859C9.80089 1.92859 12.0714 4.19914 12.0714 7.00002C12.0714 7.71229 11.9246 8.39026 11.6596 9.00532L12.988 8.009C13.0429 7.68084 13.0714 7.34377 13.0714 7.00002C13.0714 3.64686 10.3532 0.928589 7.00002 0.928589C3.64686 0.928589 0.928589 3.64686 0.928589 7.00002C0.928589 9.26201 2.16558 11.2351 4 12.2797L4.5 11.4134C2.96448 10.5418 1.92859 8.89186 1.92859 7.00002Z"
    fill="#AFB1B3"/>
  <circle cx="11.5" cy="3.5" r="2.5" fill="#F68E1E"/>
  <circle cx="3.5" cy="11.5" r="2.5" fill="#F68E1E"/>
  <path fill-rule="evenodd" clip-rule="evenodd" d="M16 8V7L10.6667 11H7V12H10.6667L16 16V15L12.1429 12H16V11H12.1428L16 8Z" fill="#AFB1B3"/>
</svg>
