<svg width="16" height="16" viewBox="0 0 16 16" fill="none" xmlns="http://www.w3.org/2000/svg">
  <path
    d="M1.92857 7.00002C1.92857 4.19914 4.19913 1.92859 7 1.92859C9.80087 1.92859 12.0714 4.19914 12.0714 7H13.0714C13.0714 3.64685 10.3532 0.928589 7 0.928589C3.64684 0.928589 0.928574 3.64686 0.928574 7.00002C0.928574 9.05676 1.95127 10.8746 3.51587 11.9729L4 11.0894C2.74386 10.1663 1.92857 8.67837 1.92857 7.00002Z"
    fill="#AFB1B3"/>
  <circle cx="11.5" cy="3.5" r="2.5" fill="#F68E1E"/>
  <circle cx="3.5" cy="11.5" r="2.5" fill="#F68E1E"/>
  <path fill-rule="evenodd" clip-rule="evenodd" d="M13 11V8H12V11H7V12H12V15H13V12H16V11H13Z" fill="#AFB1B3"/>
</svg>
