<svg width="40" height="40" viewBox="0 0 40 40" fill="none" xmlns="http://www.w3.org/2000/svg">
<path fill-rule="evenodd" clip-rule="evenodd" d="M16 30C15.9999 29.63 16.1026 29.2672 16.2964 28.952C16.4903 28.6368 16.7678 28.3816 17.0981 28.2148L17.9634 27.7773L17.0981 27.3408C16.7679 27.174 16.4904 26.9188 16.2965 26.6036C16.1026 26.2884 16 25.9257 16 25.5557C16 25.1856 16.1026 24.8229 16.2965 24.5077C16.4904 24.1926 16.7679 23.9374 17.0981 23.7705L28.0986 18.2148C28.3781 18.0736 28.6869 18 29 18C29.3131 18 29.6219 18.0736 29.9014 18.2148L30.8269 18.6823C32.2165 16.6282 33.2864 14.3751 34 12C33.963 14.5684 33.3892 17.1007 32.3154 19.4341L38.8637 22.7413C38.952 21.8466 39 20.9343 39 20C38.872 13.8868 37.8616 7.82422 36 2C32.6027 6.96924 26.2286 10.6714 21 12C16.2657 13.1442 13.4665 13.2668 9.0849 14.9733C6.77747 15.7736 4.76821 17.2572 3.32409 19.2267C1.87997 21.1963 1.06937 23.5587 1 26C1.05655 27.5418 1.44283 29.0536 2.13282 30.4336C2.8228 31.8136 3.80048 33.0297 5 34C8.85663 33.3961 12.6439 32.4112 16.3062 31.0599C16.1066 30.7424 16.0005 30.375 16 30V30Z" fill="#6CC149"/>
<path fill-rule="evenodd" clip-rule="evenodd" d="M17.0981 36.2295C16.7678 36.0627 16.4903 35.8075 16.2964 35.4923C16.1026 35.1772 15.9999 34.8144 16 34.4443C16.0062 34.3434 16.0203 34.243 16.042 34.1442C14.5669 34.5749 12.8414 35.0053 10 36C9.33362 36.2331 7 37 7 37H10C10 37 14.8775 37.0103 18.6399 37.0082L17.0981 36.2295Z" fill="#6CC149"/>
<path fill-rule="evenodd" clip-rule="evenodd" d="M29 20L40 25.5556L29 31.1111L18 25.5556L29 20ZM20.2 28.8889L18 30L29 35.5556L40 30L37.8 28.8889L29 33.3333L20.2 28.8889ZM18 34.4444L20.2 33.3333L29 37.7778L37.8 33.3333L40 34.4444L29 40L18 34.4444Z" fill="#8F989D"/>
</svg>
