<svg version="1.1" width="40" height="40" viewBox="0 0 40 40" xmlns="http://www.w3.org/2000/svg">
  <path d="m19 39c-3.1-.4-5.8-2-7.7-4.3h-7.3v-4.4h5c-.25-.94-.42-1.9-.42-2.9v-1.5h-4.6v-4.4h4.6v-2.9c0-.5.089-.98.15-1.5h-4.8v-4.4h6.3c1.1-1.9 2.8-3.5 4.8-4.5l-4.2-4.1 3.1-3.1 6 5.9c.16-.0058.14-.029.3-.029.056 0 .27.023.33.026l6-5.9 3.1 3.1-4.1 4c2.1 1 3.8 2.6 5 4.6h5.9v4.4h-4.4c.062.49.15.96.15 1.5v2.8h-13v4.1h-3.5v4.1h3.5zm-3.5-22v4.1h9.8v-4.1z" fill="#40b6e0" fill-rule="evenodd" stroke-width="2.7"/>
  <path d="m32 32a2.5 2.5 0 00-1.8.76l-3.7-1.9a2.5 2.5 0 00.039-.39 2.5 2.5 0 00-.039-.39l3.7-1.9a2.5 2.5 0 10-.71-1.7 2.5 2.5 0 00.039.39l-3.7 1.9a2.5 2.5 0 100 3.5l3.7 1.9a2.5 2.5 0 00-.039.39 2.5 2.5 0 102.5-2.5z" fill="#afb1b3"/>
</svg>
