<!-- Copyright © 2000–2024 JetBrains s.r.o. -->
<svg width="16" height="16" viewBox="0 0 16 16" xmlns="http://www.w3.org/2000/svg">
  <defs>
    <linearGradient id="a" x1="4416.9" x2="4423.1" y1="-3736.92" y2="-3750.28" gradientTransform="matrix(1 0 0 -1 -4417 -3735)" gradientUnits="userSpaceOnUse">
      <stop offset=".19" stop-color="#ff45ed"/>
      <stop offset=".54" stop-color="#ff0a67"/>
    </linearGradient>
    <linearGradient id="b" x1="4418.08" x2="4432.73" y1="-3749.99" y2="-3735.33" gradientTransform="matrix(1 0 0 -1 -4417 -3735)" gradientUnits="userSpaceOnUse">
      <stop offset=".26" stop-color="#ff0a67"/>
      <stop offset=".65" stop-color="#fdb60d"/>
    </linearGradient>
  </defs>
  <path fill="#ff45ed" d="M4.11 1.5H1.05C.47 1.5 0 1.97.02 2.55l.04 2.76c0 .29.14.58.36.77l9.54 8.18c.19.16.43.25.67.25h2.84c.57 0 1.03-.46 1.03-1.03v-2.75c0-.3-.13-.58-.35-.78L4.79 1.76c-.19-.16-.43-.26-.68-.26"/>
  <path fill="url(#a)" d="M3.75 1.5H1.03C.46 1.5 0 1.96 0 2.53v3.14s0 .1.01.15l1.36 9.29c.07.51.51.88 1.02.88h3.85c.57 0 1.03-.46 1.03-1.03v-4.62c0-.11-.02-.21-.05-.31L4.73 2.22c-.14-.43-.54-.72-.98-.72"/>
  <path fill="url(#b)" d="M14.97 0H6.44c-.42 0-.79.25-.95.63L1.54 9.98c-.05.13-.06.27-.06.41v4.58c0 .57.48 1.02 1.05 1.02h4.42c.2 0 .4-.06.56-.17l8.03-5.28c.29-.19.46-.52.46-.86V1.03C16 .46 15.54 0 14.97 0"/>
  <path d="M13 3H3v10h10z"/>
  <path fill="#fff" d="M8 11H4v1h4z"/>
  <path fill="#fff" fill-rule="evenodd" d="M11.03 4.96H10v-.93h1.03V3h.94v1.03H13v.93h-1.03V6h-.94zm-2 2H8v-.93h1.03V5h.94v1.03H11v.93H9.97V8h-.94zM6.36 5.81c-.1.1-.3.15-.5.15H4.9V4.78h.91c.25 0 .4.05.55.15s.2.25.2.44-.1.34-.2.44m.23.76c.25-.1.51-.25.66-.44.15-.2.25-.44.25-.79 0-.4-.1-.69-.36-.94S6.43 4 5.92 4H3.99v4h.91V6.77h.76L6.52 8h1.06L6.57 6.57Z"/>
</svg>
