<!-- Copyright © 2000–2024 JetBrains s.r.o. -->
<svg width="48" height="48" viewBox="0 0 48 48" xmlns="http://www.w3.org/2000/svg">
  <path fill="url(#a)" d="M29.28 0 0 3.36V18.4l7.36 24.48 36.96-9.44z"/>
  <path fill="url(#b)" d="M48 28.32 45.28 15.2l-6.4 8.64-4.32 13.28L33.12 48l10.72-6.88z"/>
  <path fill="url(#d)" d="M45.28 15.2 36 10.72l-10.72.96-10.56 7.36-2.08 13.12 9.12 12.64L33.12 48z"/>
  <path fill="url(#e)" d="M39 9H9v30h30z"/>
  <path fill="#fff" d="m21.5 19.9 5.37 4.1-5.37 4.1v-8.19m-1-3.91H19v16h1.5L31 24z"/>
  <path fill="#6B57FF" d="M43.5 12.338V3.142a3.09 3.09 0 0 0-3.142-3.09l-8.28.128a3.1 3.1 0 0 0-2.303 1.08L5.243 29.88a3.1 3.1 0 0 0-.743 2.018v8.505A3.097 3.097 0 0 0 7.59 43.5h8.258a3.07 3.07 0 0 0 2.324-1.057l24.563-28.065c.495-.57.765-1.29.765-2.04"/>
  <path fill="url(#f)" d="M43.5 11.243V3.09A3.095 3.095 0 0 0 40.41 0h-9.427c-.15 0-.3 0-.45.03L2.647 4.117A3.1 3.1 0 0 0 0 7.178v11.55a3.1 3.1 0 0 0 3.098 3.098h13.875a3.6 3.6 0 0 0 .937-.15l23.437-7.485a3.1 3.1 0 0 0 2.153-2.947"/>
  <path fill="url(#g)" d="M48 44.903v-25.59c0-1.245-.742-2.37-1.89-2.85L18.045 4.613c-.39-.165-.81-.192-1.23-.184H3.067C1.372 4.429 0 5.873 0 7.575v13.253c0 .6.18 1.192.51 1.695l15.833 24.082A3.08 3.08 0 0 0 18.923 48H44.91A3.097 3.097 0 0 0 48 44.903"/>
  <path d="M39 9H9v30h30z"/>
  <path fill="#fff" d="M21 20.295 27.172 24 21 27.705zM18 15v18l15-9z"/>
  <defs>
    <linearGradient id="a" x1="25.44" x2="16.19" y1="38.12" y2="3.69" gradientUnits="userSpaceOnUse">
      <stop offset=".05" stop-color="#7866FF"/>
      <stop offset=".14" stop-color="#8265FA"/>
      <stop offset=".28" stop-color="#9C64EE"/>
      <stop offset=".47" stop-color="#C661D9"/>
      <stop offset=".61" stop-color="#EB5FC7"/>
      <stop offset=".73" stop-color="#FA6398"/>
      <stop offset=".77" stop-color="#FF6488"/>
      <stop offset=".99" stop-color="#FF7500"/>
    </linearGradient>
    <linearGradient id="b" x1="47.39" x2="39.2" y1="34.56" y2="31.6" gradientUnits="userSpaceOnUse">
      <stop offset=".25" stop-color="#7866FF"/>
      <stop offset=".35" stop-color="#8F5FFA"/>
      <stop offset=".53" stop-color="#B353F1"/>
      <stop offset=".7" stop-color="#CD4AEB"/>
      <stop offset=".86" stop-color="#DD45E7"/>
      <stop offset=".98" stop-color="#E343E6"/>
    </linearGradient>
    <linearGradient id="d" x1="39.11" x2="16.29" y1="32.06" y2="22.47" gradientUnits="userSpaceOnUse">
      <stop  offset="0" stop-color="#E343E6"/>
      <stop offset=".06" stop-color="#E649CA"/>
      <stop offset=".19" stop-color="#EF5982"/>
      <stop offset=".37" stop-color="#FD7110"/>
      <stop offset=".4" stop-color="#FF7500"/>
    </linearGradient>
    <linearGradient id="e" x1="9" x2="39" y1="9" y2="39" gradientUnits="userSpaceOnUse">
      <stop  offset="0" stop-opacity=".5"/>
      <stop offset="1"/>
    </linearGradient>
    <linearGradient id="f" x1="42.248" x2="2.152" y1="-.291" y2="18.294" gradientUnits="userSpaceOnUse">
      <stop offset=".18" stop-color="#6B57FF"/>
      <stop offset=".54" stop-color="#FF45ED"/>
    </linearGradient>
    <linearGradient id="g" x1="3.038" x2="46.997" y1="3.223" y2="47.19" gradientUnits="userSpaceOnUse">
      <stop offset=".12" stop-color="#FF45ED"/>
      <stop offset=".92" stop-color="#FC801D"/>
    </linearGradient>
  </defs>
</svg>
