<svg width="12" height="12" viewBox="0 0 12 12" xmlns="http://www.w3.org/2000/svg">
  <path fill="#5D6B99" d="M7.035 11C3.54 11 1 9.159 1 6.645 1 4.63 2.707 3.177 5.06 3.177c2.002 0 3.44.888 3.44 2.178 0 1.21-1.223 1.841-2.728 1.277L5.987 6c-.968-.296-1.654-.04-1.654.618 0 .793 1.049 1.425 2.568 1.425 1.8 0 3.266-1.129 3.266-2.688 0-2.043-2.191-3.522-5.202-3.522-.74 0-1.734.175-2.379.457-.457.188-.753 0-.753-.295 0-.229.162-.39.484-.525C2.962 1.188 4.065 1 4.965 1 8.46 1 11 2.841 11 5.355c0 2.016-1.707 3.468-4.06 3.468-2.002 0-3.44-.888-3.44-2.205 0-1.183 1.223-1.787 2.728-1.263L6.013 6c.968.323 1.654.054 1.654-.645 0-.766-1.049-1.398-2.568-1.398-1.868 0-3.266 1.156-3.266 2.688 0 2.043 2.191 3.522 5.202 3.522.74 0 1.734-.175 2.379-.457.457-.189.753 0 .753.295 0 .229-.162.39-.484.525-.645.282-1.748.47-2.648.47"/>
</svg>
