<!-- Copyright © 2000–2024 JetBrains s.r.o. -->
<svg width="32" height="32" viewBox="0 0 32 32" xmlns="http://www.w3.org/2000/svg">
  <path fill="#3574F0" d="M19.312 32C8.129 32 0 26.108 0 18.064 0 11.613 5.462 6.968 12.99 6.968c6.408 0 11.01 2.838 11.01 6.967 0 3.871-3.914 5.893-8.731 4.086L15.957 16c-3.097-.946-5.29-.129-5.29 1.979 0 2.537 3.355 4.559 8.215 4.559 5.763 0 10.451-3.613 10.451-8.603 0-6.537-7.01-11.268-16.645-11.268-2.365 0-5.548.559-7.613 1.462-1.462.602-2.408 0-2.408-.946 0-.731.516-1.248 1.548-1.678C6.28.602 9.806 0 12.688 0 23.871 0 32 5.892 32 13.936c0 6.451-5.462 11.096-12.99 11.096C12.603 25.032 8 22.194 8 17.98c0-3.785 3.914-5.72 8.731-4.043L16.043 16c3.097 1.032 5.29.172 5.29-2.065 0-2.451-3.354-4.473-8.215-4.473-5.978 0-10.451 3.7-10.451 8.603 0 6.537 7.01 11.268 16.645 11.268 2.365 0 5.548-.559 7.613-1.462 1.462-.602 2.408 0 2.408.946 0 .731-.516 1.247-1.548 1.678C25.72 31.398 22.194 32 19.312 32"/>
</svg>
