<!-- Copyright © 2000–2024 JetBrains s.r.o. -->
<svg width="24" height="24" viewBox="0 0 24 24" xmlns="http://www.w3.org/2000/svg">
  <path fill="#C4C4C4" d="M11.204 5.137a.467.467 0 0 1 .66 0l1.4 1.4a.467.467 0 0 1 0 .66l-1.4 1.4a.467.467 0 0 1-.66-.66l.599-.6a4.667 4.667 0 0 0-2.74 8.289.467.467 0 0 1-.589.725 5.6 5.6 0 0 1 3.336-9.947l-.606-.607a.467.467 0 0 1 0-.66m3.666 2.58c.163-.2.457-.23.657-.067a5.6 5.6 0 0 1-3.336 9.947l.606.606a.467.467 0 1 1-.66.66l-1.4-1.4a.467.467 0 0 1 0-.66l1.4-1.4a.467.467 0 1 1 .66.66l-.6.6a4.667 4.667 0 0 0 2.742-8.289.467.467 0 0 1-.069-.656"/>
</svg>
