<svg width="40" height="40" viewBox="0 0 40 40" fill="none" xmlns="http://www.w3.org/2000/svg">
<path fill-rule="evenodd" clip-rule="evenodd" d="M16 29C15.992 27.0203 16.4381 25.0651 17.304 23.2848C18.1699 21.5044 19.4325 19.9464 20.9947 18.7303C22.557 17.5143 24.3773 16.6727 26.3157 16.2703C28.2541 15.8678 30.2589 15.9152 32.1762 16.4088C32.9461 15.0116 33.5578 13.5328 34 12C33.9898 13.6071 33.7548 15.205 33.3019 16.747C35.5153 17.5251 37.4778 18.8859 38.9825 20.6861C38.9876 20.457 39 20.2313 39 20C38.872 13.8868 37.8616 7.82422 36 2C32.6027 6.96924 26.2286 10.6714 21 12C16.2657 13.1442 13.4665 13.2668 9.0849 14.9733C6.77747 15.7736 4.76821 17.2572 3.32409 19.2267C1.87997 21.1963 1.06937 23.5587 1 26C1.05655 27.5418 1.44283 29.0536 2.13282 30.4336C2.8228 31.8136 3.80048 33.0297 5 34C8.81414 33.4017 12.5607 32.4323 16.1863 31.1055C16.0671 30.4099 16.0048 29.7057 16 29V29Z" fill="#6CC149"/>
<path fill-rule="evenodd" clip-rule="evenodd" d="M16.9536 33.8652C15.2496 34.4175 13.4418 34.7951 10 36C9.33362 36.2332 7 37 7 37H10C10 37 15.0007 37.0106 18.7806 37.0081C18.0273 36.0513 17.4123 34.9933 16.9536 33.8652Z" fill="#6CC149"/>
<path fill-rule="evenodd" clip-rule="evenodd" d="M36.7782 21.2218C35.2398 19.6834 33.2798 18.6358 31.146 18.2113C29.0122 17.7869 26.8005 18.0047 24.7905 18.8373C22.7805 19.6699 21.0625 21.0798 19.8538 22.8887C18.6451 24.6976 18 26.8244 18 29C18 31.1756 18.6451 33.3023 19.8538 35.1112C21.0625 36.9202 22.7805 38.3301 24.7905 39.1627C26.8005 39.9952 29.0122 40.2131 31.146 39.7886C33.2798 39.3642 35.2398 38.3165 36.7782 36.7781C37.7996 35.7567 38.6099 34.5441 39.1627 33.2095C39.7155 31.8749 40 30.4445 40 29C40 27.5554 39.7155 26.125 39.1627 24.7905C38.6099 23.4559 37.7996 22.2432 36.7782 21.2218V21.2218ZM19.6904 31.4606L26.935 24.2159L24.7192 22H31V28.2808L28.5143 25.7948L21.2695 33.0398L19.6904 31.4606ZM33.2809 36H27V29.7191L29.4858 32.2051L36.7306 24.9602L38.3097 26.5395L31.065 33.7841L33.2809 36Z" fill="#3DABC4"/>
</svg>
