<svg xmlns="http://www.w3.org/2000/svg" width="16" height="16">
  <path d="M10.559,4.208A.72.72,0,0,1,9.833,3.5a.691.691,0,0,1,.7-.7.708.708,0,1,1,.022,1.416Zm1.812.984A4.7,4.7,0,0,0,9.79,5.9V7.15a3.739,3.739,0,0,1,2.477-.935q1.565,0,1.565,1.936l-2.277.319q-2.506.348-2.507,2.477a2.146,2.146,0,0,0,2.418,2.2A2.546,2.546,0,0,0,13.8,11.777h.03v1.187h1.216V8.025Q15.048,5.192,12.371,5.192Zm1.461,4.687a2.091,2.091,0,0,1-2.084,2.24,1.3,1.3,0,0,1-1.454-1.261c0-.773.258-1.28,1.706-1.484l1.832-.252Zm-.284-5.671a.7.7,0,0,1-.7-.712.685.685,0,0,1,.691-.7.708.708,0,1,1,.014,1.416Z" fill="#afb1b3"/>
  <path fill="#3592c4" d="M5 1 2 4 2 6.5 5 3.5 8 6.5 8 4 5 1z"/>
</svg>
