<svg xmlns="http://www.w3.org/2000/svg" width="16" height="16">
  <path d="M14.594,3.816A1.7,1.7,0,0,0,15.205,2.5,1.664,1.664,0,0,0,14.3,1H12.683A1.631,1.631,0,0,0,12,1.668,1.677,1.677,0,0,0,11.3,1H9.679a1.656,1.656,0,0,0-.895,1.5A1.7,1.7,0,0,0,9.5,3.885c-.223.122-.344.208-.758.469V7.743A3.388,3.388,0,0,0,8,9.947,3,3,0,0,0,10.344,13h2.082a3.568,3.568,0,0,0,.358-.1v.063H16V7.025A3.681,3.681,0,0,0,14.594,3.816Z" fill="#f4f4f4"/>
  <path d="M10.511,3.208A.721.721,0,0,1,9.784,2.5a.692.692,0,0,1,.705-.7.708.708,0,1,1,.022,1.416Zm1.812.984A4.7,4.7,0,0,0,9.742,4.9V6.15a3.737,3.737,0,0,1,2.477-.935q1.565,0,1.565,1.936l-2.277.319Q9,7.818,9,9.947a2.146,2.146,0,0,0,2.418,2.2,2.546,2.546,0,0,0,2.336-1.365h.03v1.187H15V7.025Q15,4.192,12.323,4.192Zm1.461,4.687a2.091,2.091,0,0,1-2.084,2.24,1.3,1.3,0,0,1-1.454-1.261c0-.773.258-1.28,1.706-1.484l1.832-.252ZM13.5,3.208a.7.7,0,0,1-.7-.712.685.685,0,0,1,.691-.7A.708.708,0,1,1,13.5,3.208Z" fill="#323232"/>
  <g>
    <path d="M7.729,10.179l3.235-3.941V5H8.909L5.954,7.69,4.636,5.843A2.007,2.007,0,0,0,4.428,5.6,2,2,0,1,0,1.58,8.412l1.7,1.716L.647,12.522a2.328,2.328,0,0,0-.192.205,2,2,0,0,0,3.1,2.542l2.183-2.66L9.089,16h1.875V14.715Z" fill="#f4f4f4"/>
    <path d="M9.939,15,6.47,10.136,9.865,6H9.3l-3.5,3.189L3.82,6.421a1.1,1.1,0,0,0-.1-.124A1,1,0,0,0,2.29,7.709l2.431,2.456L1.328,13.256a1.106,1.106,0,0,0-.1.105,1,1,0,0,0,1.55,1.273l2.886-3.516L9.506,15Z" fill="#a1260d"/>
  </g>
</svg>
