<!-- Copyright © 2000–2024 JetBrains s.r.o. -->
<svg width="16" height="16" viewBox="0 0 16 16" xmlns="http://www.w3.org/2000/svg">
  <path fill="#fff" d="m11.2 6.01 1.15-1.15c.2-.2.2-.51 0-.71s-.51-.2-.71 0l-2 2c-.2.2-.2.51 0 .71l2 2a.485.485 0 0 0 .7 0c.2-.2.2-.51 0-.71L11.2 7.01c2.73.03 2.79.32 2.79 3.5 0 3.43-.07 3.5-3.5 3.5-3.26 0-3.48-.06-3.5-3h3.5c.28 0 .5-.22.5-.5v-.89s-.04-.03-.06-.05l-.94-.94v1.38H3V3h7v1.38l.94-.94s.04-.03.06-.05V2.5c0-.28-.22-.5-.5-.5h-8c-.28 0-.5.22-.5.5v8c0 .28.22.5.5.5H6c.05 3.53.68 4 4.5 4s4.5-.5 4.5-4.5c0-3.75-.44-4.42-3.8-4.49"/>
</svg>
