<svg xmlns="http://www.w3.org/2000/svg" width="16" height="16">
  <path d="M14.594,4.6a1.7,1.7,0,0,0,.611-1.319,1.664,1.664,0,0,0-.9-1.5H12.683A1.631,1.631,0,0,0,12,2.453a1.677,1.677,0,0,0-.7-.668H9.679a1.656,1.656,0,0,0-.895,1.5A1.705,1.705,0,0,0,9.5,4.67c-.223.122-.344.208-.758.469V8.528A3.388,3.388,0,0,0,8,10.732a3,3,0,0,0,2.344,3.053h2.082a3.568,3.568,0,0,0,.358-.1v.063H16V7.81A3.681,3.681,0,0,0,14.594,4.6Z" fill="#f4f4f4"/>
  <path d="M10.511,3.993a.721.721,0,0,1-.727-.712.692.692,0,0,1,.705-.7.709.709,0,1,1,.022,1.417Zm1.812.984a4.71,4.71,0,0,0-2.581.711V6.934A3.736,3.736,0,0,1,12.219,6q1.565,0,1.565,1.936l-2.277.319Q9,8.6,9,10.732a2.146,2.146,0,0,0,2.418,2.2,2.546,2.546,0,0,0,2.336-1.365h.03v1.187H15V7.81Q15,4.977,12.323,4.977Zm1.461,4.687A2.091,2.091,0,0,1,11.7,11.9a1.3,1.3,0,0,1-1.454-1.261c0-.773.258-1.28,1.706-1.484l1.832-.252ZM13.5,3.993a.7.7,0,0,1-.7-.712.686.686,0,0,1,.691-.7A.709.709,0,1,1,13.5,3.993Z" fill="#323232"/>
  <path fill="#f4f4f4" d="M5 11.086 1.914 8 1 8 1 12.414 4.586 16 5.414 16 9 12.414 9 8 8.086 8 5 11.086z"/>
  <path fill="#00539c" d="M5 15 8 12 8 9.5 5 12.5 2 9.5 2 12 5 15z"/>
</svg>
