<svg xmlns="http://www.w3.org/2000/svg" width="16" height="16">
  <defs>
    <linearGradient id="a" x1="12" y1="1.92" x2="12" y2="13.92" gradientUnits="userSpaceOnUse">
      <stop offset="0" stop-color="#00756d"/>
      <stop offset="1" stop-color="#0b4743"/>
    </linearGradient>
    <linearGradient id="b" x1="12" y1="2.785" x2="12" y2="13.135" gradientUnits="userSpaceOnUse">
      <stop offset="0" stop-color="#ddfffc"/>
      <stop offset="1" stop-color="#55eae1"/>
    </linearGradient>
    <linearGradient id="c" x1="5" y1="8.182" x2="5" y2="16.096" gradientUnits="userSpaceOnUse">
      <stop offset="0" stop-color="#4f2952"/>
      <stop offset="1" stop-color="#804284"/>
    </linearGradient>
    <linearGradient id="d" x1="5" y1="9.576" x2="5" y2="14.924" gradientUnits="userSpaceOnUse">
      <stop offset="0" stop-color="#fc8bff"/>
      <stop offset="1" stop-color="#fdc8ff"/>
    </linearGradient>
  </defs>
  <path d="M14.594,4.665a1.7,1.7,0,0,0,.611-1.319,1.664,1.664,0,0,0-.9-1.5H12.683A1.627,1.627,0,0,0,12,2.518a1.673,1.673,0,0,0-.7-.669H9.679a1.656,1.656,0,0,0-.895,1.5A1.7,1.7,0,0,0,9.5,4.734c-.223.122-.344.209-.758.469V8.592A3.39,3.39,0,0,0,8,10.8a3,3,0,0,0,2.344,3.053h2.082c.119-.032.244-.055.358-.1v.063H16V7.874A3.681,3.681,0,0,0,14.594,4.665Z" fill="url(#a)"/>
  <path d="M10.511,4.058a.721.721,0,0,1-.727-.712.692.692,0,0,1,.705-.7.709.709,0,1,1,.022,1.417Zm1.812.983a4.7,4.7,0,0,0-2.581.712V7a3.737,3.737,0,0,1,2.477-.935q1.565,0,1.565,1.936l-2.277.319Q9,8.667,9,10.8a2.146,2.146,0,0,0,2.418,2.2,2.547,2.547,0,0,0,2.336-1.364h.03v1.186H15V7.874Q15,5.041,12.323,5.041Zm1.461,4.687a2.091,2.091,0,0,1-2.084,2.24,1.3,1.3,0,0,1-1.454-1.261c0-.773.258-1.28,1.706-1.483l1.832-.252ZM13.5,4.058a.7.7,0,0,1-.7-.712.685.685,0,0,1,.691-.7A.709.709,0,1,1,13.5,4.058Z" fill="url(#b)"/>
  <path fill="url(#c)" d="M5 11.086 1.914 8 1 8 1 12.414 4.586 16 5.414 16 9 12.414 9 8 8.086 8 5 11.086z"/>
  <path fill="url(#d)" d="M5 15 8 12 8 9.5 5 12.5 2 9.5 2 12 5 15z"/>
</svg>
