<svg xmlns="http://www.w3.org/2000/svg" width="16" height="16">
  <path d="M10.559,3.993a.72.72,0,0,1-.726-.712.691.691,0,0,1,.7-.7.709.709,0,1,1,.022,1.417Zm1.812.984a4.71,4.71,0,0,0-2.581.711V6.934A3.738,3.738,0,0,1,12.267,6q1.565,0,1.565,1.936l-2.277.319Q9.049,8.6,9.048,10.732a2.146,2.146,0,0,0,2.418,2.2A2.546,2.546,0,0,0,13.8,11.562h.03v1.187h1.216V7.81Q15.048,4.977,12.371,4.977Zm1.461,4.687a2.091,2.091,0,0,1-2.084,2.24,1.3,1.3,0,0,1-1.454-1.261c0-.773.258-1.28,1.706-1.484l1.832-.252Zm-.284-5.671a.7.7,0,0,1-.7-.712.686.686,0,0,1,.691-.7.709.709,0,1,1,.014,1.417Z" fill="#6e6e6e"/>
  <path fill="#389fd6" d="M5 15 8 12 8 9.5 5 12.5 2 9.5 2 12 5 15z"/>
</svg>
