<svg width="16" height="16" viewBox="0 0 16 16" xmlns="http://www.w3.org/2000/svg">
  <path fill="none" stroke="#6C707E" stroke-linecap="round" stroke-linejoin="round" d="M7.5 12.606v-2.212c0-.494-.4-.894-.894-.894H4.394c-.494 0-.894.4-.894.894v2.212c0 .494.4.894.894.894h2.212c.494 0 .894-.4.894-.894Zm6 0v-2.212c0-.494-.4-.894-.894-.894h-2.212c-.494 0-.894.4-.894.894v2.212c0 .494.4.894.894.894h2.212c.494 0 .894-.4.894-.894Zm-2-3.106v-1a1 1 0 0 0-1-1h-4a1 1 0 0 0-1 1v1m3-2v-2m2-.894V2.394c0-.494-.4-.894-.894-.894H7.394c-.494 0-.894.4-.894.894v2.212c0 .494.4.894.894.894h2.212c.494 0 .894-.4.894-.894Z"/>
</svg>
