<svg width="16" height="16" viewBox="0 0 16 16" fill="none" xmlns="http://www.w3.org/2000/svg">
<path d="M8.58887 10C8.73644 10.0366 8.87432 10.0871 9.00195 10.1533C9.28603 10.3009 9.50853 10.5086 9.66699 10.7764C9.78586 10.9773 9.86009 11.2047 9.88965 11.458C9.89982 11.5426 9.9043 11.6299 9.9043 11.7197V14.2939C9.9043 14.5106 9.87592 14.7092 9.82031 14.8896C9.81659 14.9019 9.81062 14.9136 9.80664 14.9258L8.87891 13.417V11.7197C8.87891 11.542 8.84731 11.3887 8.78516 11.2598C8.74821 11.1854 8.70001 11.1199 8.6416 11.0635C8.59534 11.0156 8.54262 10.9757 8.48535 10.9424C8.35363 10.8708 8.19254 10.8341 8.00195 10.834C7.81298 10.834 7.65389 10.8679 7.52539 10.9355C7.46264 10.97 7.40542 11.0126 7.35449 11.0635L7.30078 11.126C7.2505 11.1911 7.2105 11.2646 7.18164 11.3467C7.14433 11.4551 7.125 11.5793 7.125 11.7197V14.2939C7.125 14.4397 7.14669 14.5687 7.18848 14.6816C7.22818 14.7864 7.28567 14.8762 7.3623 14.9502C7.4083 14.9978 7.46073 15.0371 7.51758 15.0703C7.64956 15.1423 7.81077 15.1797 8.00195 15.1797C8.108 15.1796 8.2042 15.1662 8.29102 15.1445L7.58691 14H8.69141L9.91699 15.999H8.81738L8.78809 15.9521C8.73866 15.9703 8.68771 15.9856 8.63574 16H7.36328C7.23521 15.9646 7.11451 15.9187 7.00195 15.8604C6.71777 15.7128 6.49544 15.5051 6.33691 15.2373C6.17838 14.9694 6.09863 14.6547 6.09863 14.2939V11.7197C6.09863 11.3535 6.17936 11.0388 6.33789 10.7764C6.4964 10.5088 6.7179 10.3008 7.00195 10.1533C7.1296 10.0871 7.26748 10.0366 7.41504 10H8.58887Z" fill="#CED0D6"/>
<path d="M15.001 10.9648H13.4355V16H12.4023V10.9648H10.8359V10.0137H15.001V10.9648Z" fill="#CED0D6"/>
<path d="M5 15.001H0.615234L5 11.1729V15.001Z" fill="url(#paint0_linear_21119_12074)"/>
<path d="M12.3242 9H8.88184L8 0.519531L12.3242 9Z" fill="url(#paint1_linear_21119_12074)"/>
<path d="M8.76758 7.90527L7.50977 9H6C5.44772 9 5 9.44772 5 10V11.1729L0.615234 15.001L8 0.519531L8.76758 7.90527Z" fill="url(#paint2_linear_21119_12074)"/>
<defs>
<linearGradient id="paint0_linear_21119_12074" x1="18.3386" y1="13.2253" x2="14.3088" y2="6.52133" gradientUnits="userSpaceOnUse">
<stop stop-color="#01B202"/>
<stop offset="1" stop-color="#0FE90F"/>
</linearGradient>
<linearGradient id="paint1_linear_21119_12074" x1="4.4092" y1="8.15852" x2="15.9417" y2="13.8777" gradientUnits="userSpaceOnUse">
<stop stop-color="#B83535"/>
<stop offset="1" stop-color="#FD5B5A"/>
</linearGradient>
<linearGradient id="paint2_linear_21119_12074" x1="4.13355" y1="-5.25929" x2="-7.38965" y2="1.64922" gradientUnits="userSpaceOnUse">
<stop stop-color="#7777E9"/>
<stop offset="1" stop-color="#01009A"/>
</linearGradient>
</defs>
</svg>
