<svg width="16" height="16" viewBox="0 0 16 16" fill="none" xmlns="http://www.w3.org/2000/svg">
<path d="M4.6327 13.5801L4.97911 13.7801L4.67911 14.2997C4.62388 14.3954 4.50156 14.4282 4.40591 14.3729C4.31025 14.3177 4.27747 14.1954 4.3327 14.0997L4.6327 13.5801Z" stroke="white" stroke-width="1.2"/>
<path d="M11.4742 13.5801L11.1278 13.7801L11.4278 14.2997C11.4831 14.3954 11.6054 14.4282 11.701 14.3729C11.7967 14.3177 11.8295 14.1954 11.7742 14.0997L11.4742 13.5801Z" stroke="white" stroke-width="1.2"/>
<path d="M3.93094 2.60387L3.2115 2.31513C3.20958 2.31435 3.20738 2.31492 3.20607 2.31653C3.20469 2.31824 3.20466 2.32067 3.20601 2.3224L3.66377 2.9109L3.93094 2.60387Z" stroke="white" stroke-width="1.2"/>
<path d="M12.3879 2.89616L12.1978 2.56516L12.8015 2.31758L12.3879 2.89616ZM12.8788 2.20945L12.8788 2.20952L12.8788 2.20945Z" stroke="white" stroke-width="1.2"/>
<path d="M7.41156 1.5H8.61338C10.431 1.5 12.3104 3.1676 12.3691 5.29229C12.4142 6.92089 12.4142 8.52009 12.3691 10.1487C12.3391 11.2352 11.9481 12.0487 11.3739 12.5914C10.7957 13.1378 9.98599 13.4526 9.04693 13.4526H7.12388C5.24653 13.4526 3.69193 12.2003 3.6267 10.0891C3.57756 8.49893 3.57756 6.88475 3.6267 5.29458C3.69299 3.14914 5.56978 1.5 7.41156 1.5Z" stroke="white"/>
<path fill-rule="evenodd" clip-rule="evenodd" d="M6.20596 6.30303C7.08956 6.30303 7.80596 5.58677 7.80596 4.70303C7.80596 3.81929 7.08956 3.10303 6.20596 3.10303C5.32236 3.10303 4.60596 3.81929 4.60596 4.70303C4.60596 5.58677 5.32236 6.30303 6.20596 6.30303ZM5.85086 5.30303C6.26522 5.30303 6.60107 4.96701 6.60107 4.55303C6.60107 4.13905 6.26522 3.80303 5.85086 3.80303C5.43693 3.80303 5.10107 4.13905 5.10107 4.55303C5.10107 4.96701 5.43693 5.30303 5.85086 5.30303Z" fill="white"/>
<path fill-rule="evenodd" clip-rule="evenodd" d="M9.90078 6.30303C10.7844 6.30303 11.5008 5.58677 11.5008 4.70303C11.5008 3.81929 10.7844 3.10303 9.90078 3.10303C9.01678 3.10303 8.30078 3.81929 8.30078 4.70303C8.30078 5.58677 9.01678 6.30303 9.90078 6.30303ZM10.2502 5.30718C10.6641 5.30718 11 4.97116 11 4.55718C11 4.1432 10.6641 3.80718 10.2502 3.80718C9.83585 3.80718 9.5 4.1432 9.5 4.55718C9.5 4.97116 9.83585 5.30718 10.2502 5.30718Z" fill="white"/>
<path fill-rule="evenodd" clip-rule="evenodd" d="M7.51172 8.00005H8.5V7.1956H7.51172V8.00005Z" fill="white"/>
<path fill-rule="evenodd" clip-rule="evenodd" d="M8.95267 6.92805C8.95267 7.22409 8.55183 7.48755 8.01251 7.48755C7.47358 7.48755 7.06641 7.224 7.06641 6.92796C7.06641 6.63193 7.47358 6.39189 8.01251 6.39189C8.55183 6.39189 8.95267 6.63202 8.95267 6.92805Z" fill="white"/>
<path fill-rule="evenodd" clip-rule="evenodd" d="M8.50924 6.65102C8.50924 6.95228 8.28711 6.92815 8.01251 6.92815C7.73829 6.92815 7.51577 6.95228 7.51577 6.65102C7.51577 6.34976 7.73829 6.11719 8.01251 6.11719C8.28711 6.11719 8.50924 6.34976 8.50924 6.65102Z" fill="white"/>
<path d="M2.24227 9.38644L2.75453 8.85501L2.74363 9.15994L2.37657 9.51963C2.34003 9.55543 2.28165 9.5557 2.24479 9.52023C2.20713 9.48399 2.206 9.42407 2.24227 9.38644Z" stroke="white" stroke-width="1.2"/>
<path d="M13.748 9.38668L13.2357 8.85526L13.2466 9.16019L13.6137 9.51987C13.6502 9.55567 13.7086 9.55594 13.7454 9.52048C13.7831 9.48424 13.7842 9.42431 13.748 9.38668Z" stroke="white" stroke-width="1.2"/>
</svg>
