<!-- Copyright 2000-2023 JetBrains s.r.o. and contributors. Use of this source code is governed by the Apache 2.0 license. -->
<svg width="16" height="16" viewBox="0 0 16 16" fill="none" xmlns="http://www.w3.org/2000/svg">
<g clip-path="url(#clip0_10487_9467)">
<path d="M7 14.7565V9V7H12.0768C12.1401 5.83074 12.2855 4.55538 12.2855 4.55538C12.2855 2.59962 10.4997 1 7.99974 1C5.49974 1 3.71436 2.59962 3.71436 4.55538C3.71436 4.55538 3.95205 6.38423 3.95205 7.92308C3.95205 8.29962 3.93589 8.62231 3.91436 8.91192H3.92397C3.86128 10.1492 3.71436 11.2904 3.71436 11.2904C3.71436 12.9739 5.03721 14.3937 7 14.7565Z" fill="#77BBE2"/>
<path fill-rule="evenodd" clip-rule="evenodd" d="M13 3.17953C13 3.6753 12.6269 4.07684 12.1665 4.07684C11.7065 4.07684 11.3335 3.6753 11.3335 3.17953C11.3335 2.68377 11.7065 2.28223 12.1665 2.28223C12.6269 2.28223 13 2.68377 13 3.17953ZM3 3.17953C3 3.6753 3.37308 4.07684 3.83346 4.07684C4.29346 4.07684 4.66654 3.6753 4.66654 3.17953C4.66654 2.68377 4.29346 2.28223 3.83346 2.28223C3.37308 2.28223 3 2.68377 3 3.17953Z" fill="#77BBE2"/>
<path fill-rule="evenodd" clip-rule="evenodd" d="M7.74343 5.07781C7.74343 5.91396 7.05458 6.59166 6.20497 6.59166C5.35535 6.59166 4.6665 5.91396 4.6665 5.07781C4.6665 4.24166 5.35535 3.56396 6.20497 3.56396C7.05458 3.56396 7.74343 4.24166 7.74343 5.07781Z" fill="white"/>
<path fill-rule="evenodd" clip-rule="evenodd" d="M7.74343 5.07781C7.74343 5.91396 7.05458 6.59166 6.20497 6.59166C5.35535 6.59166 4.6665 5.91396 4.6665 5.07781C4.6665 4.24166 5.35535 3.56396 6.20497 3.56396C7.05458 3.56396 7.74343 4.24166 7.74343 5.07781Z" fill="white"/>
<path fill-rule="evenodd" clip-rule="evenodd" d="M6.99337 5.0735C6.99337 5.48196 6.68568 5.8135 6.30606 5.8135C5.92683 5.8135 5.61914 5.48196 5.61914 5.0735C5.61914 4.66503 5.92683 4.3335 6.30606 4.3335C6.68568 4.3335 6.99337 4.66503 6.99337 5.0735Z" fill="black"/>
<path fill-rule="evenodd" clip-rule="evenodd" d="M11.1375 5.07781C11.1375 5.91396 10.4486 6.59166 9.59901 6.59166C8.74901 6.59166 8.06055 5.91396 8.06055 5.07781C8.06055 4.24166 8.74901 3.56396 9.59901 3.56396C10.4486 3.56396 11.1375 4.24166 11.1375 5.07781Z" fill="white"/>
<path fill-rule="evenodd" clip-rule="evenodd" d="M10.3869 5.0735C10.3869 5.48196 10.0792 5.8135 9.7 5.8135C9.32039 5.8135 9.0127 5.48196 9.0127 5.0735C9.0127 4.66503 9.32039 4.3335 9.7 4.3335C10.0792 4.3335 10.3869 4.66503 10.3869 5.0735Z" fill="black"/>
<path d="M8.9333 7C8.9458 6.96687 8.95236 6.93257 8.95236 6.89746C8.95236 6.61438 8.52582 6.38477 7.99967 6.38477C7.4739 6.38477 7.04736 6.61438 7.04736 6.89746C7.04736 6.93257 7.05393 6.96687 7.06643 7H8.9333Z" fill="#B7937F"/>
<path fill-rule="evenodd" clip-rule="evenodd" d="M8.47627 6.63248C8.47627 6.92056 8.25974 6.89748 7.99204 6.89748C7.72474 6.89748 7.50781 6.92056 7.50781 6.63248C7.50781 6.34441 7.72474 6.11133 7.99204 6.11133C8.25974 6.11133 8.47627 6.34441 8.47627 6.63248Z" fill="black"/>
<path d="M4.19077 8.27104C4.19077 8.62488 3.92423 8.91219 3.59538 8.91219C3.26692 8.91219 3 8.62488 3 8.27104C3 7.91719 3.26692 7.62988 3.59538 7.62988C3.92423 7.62988 4.19077 7.91719 4.19077 8.27104ZM5.19062 14.205C5.19062 14.5592 4.92408 14.8461 4.59523 14.8461C4.26677 14.8461 3.99985 14.5592 3.99985 14.205C3.99985 13.8511 4.26677 13.5642 4.59523 13.5642C4.92408 13.5642 5.19062 13.8511 5.19062 14.205Z" fill="#B7937F"/>
<path d="M16 8H9V9H15V15H16V8Z" fill="#3592C4"/>
<path d="M14 16H8V10H14V16Z" fill="#3592C4"/>
</g>
<defs>
<clipPath id="clip0_10487_9467">
<rect width="16" height="16" fill="white"/>
</clipPath>
</defs>
</svg>
