<svg width="32" height="32" viewBox="0 0 32 32" fill="none" xmlns="http://www.w3.org/2000/svg">
<g clip-path="url(#clip0_5739_40237)">
<g clip-path="url(#clip1_5739_40237)" filter="url(#filter0_d_5739_40237)">
<rect x="2" y="2" width="28" height="28" rx="6" fill="#22272C"/>
<g clip-path="url(#clip2_5739_40237)">
<path d="M13.9882 8.87793H13.9888C18.5797 8.87793 22.3068 12.6052 22.3068 17.1962V17.1966C22.3068 21.7876 18.5797 25.5148 13.9889 25.5148H13.9883C9.39727 25.5148 5.66992 21.7874 5.66992 17.1962V17.1965C5.66992 12.6054 9.39724 8.87793 13.9882 8.87793Z" fill="url(#paint0_linear_5739_40237)"/>
<path d="M14.6704 19.4307L23.4137 19.4307C25.0244 19.4307 26.3301 18.125 26.3301 16.5143L26.3301 7.77103C26.3301 6.16037 25.0244 4.85468 23.4137 4.85468L14.6704 4.85467C13.0598 4.85467 11.7541 6.16036 11.7541 7.77102L11.7541 16.5143C11.7541 18.125 13.0598 19.4307 14.6704 19.4307Z" fill="url(#paint1_linear_5739_40237)"/>
<path d="M11.7539 9.22804L21.9565 9.22803L21.9565 19.4306L11.7539 19.4306L11.7539 9.22804Z" fill="black"/>
<path d="M13.2109 16.5151L18.8589 16.5151V17.9727L13.2109 17.9727L13.2109 16.5151Z" fill="white"/>
</g>
</g>
<path d="M2 22H30V22C30 23.8599 30 24.7899 29.7956 25.5529C29.2408 27.6235 27.6235 29.2408 25.5529 29.7956C24.7899 30 23.8599 30 22 30H10C8.14006 30 7.21009 30 6.44709 29.7956C4.37653 29.2408 2.75925 27.6235 2.20445 25.5529C2 24.7899 2 23.8599 2 22V22Z" fill="#EFEFEF"/>
<path d="M5.02344 24.0098H6.21759C6.47029 24.0098 6.68404 24.0573 6.85884 24.1523C7.03554 24.2473 7.16949 24.385 7.26069 24.5655C7.35189 24.7441 7.39749 24.9617 7.39749 25.2182C7.39749 25.4785 7.35094 25.6998 7.25784 25.8822C7.16474 26.0627 7.02889 26.2005 6.85029 26.2955C6.67169 26.3905 6.45319 26.438 6.19479 26.438H5.71884V27.9998H5.02344V24.0098ZM6.18624 25.8366C6.29834 25.8366 6.39144 25.8148 6.46554 25.7711C6.53964 25.7255 6.59474 25.658 6.63084 25.5687C6.66694 25.4775 6.68499 25.3616 6.68499 25.221C6.68499 25.0823 6.66694 24.9683 6.63084 24.879C6.59474 24.7897 6.53964 24.7232 6.46554 24.6795C6.39144 24.6358 6.29834 24.614 6.18624 24.614H5.71884V25.8366H6.18624Z" fill="black"/>
<path d="M9.14912 26.2128H9.89012L10.6938 27.9998H9.93287L9.14912 26.2128ZM8.25707 24.0098H9.45122C9.70392 24.0098 9.91767 24.0573 10.0925 24.1523C10.2692 24.2473 10.4031 24.385 10.4943 24.5655C10.5855 24.7441 10.6311 24.9617 10.6311 25.2182C10.6311 25.4785 10.5846 25.6998 10.4915 25.8822C10.3984 26.0627 10.2625 26.2005 10.0839 26.2955C9.90532 26.3905 9.68682 26.438 9.42842 26.438H8.95247V27.9998H8.25707V24.0098ZM9.41987 25.8366C9.53197 25.8366 9.62507 25.8148 9.69917 25.7711C9.77327 25.7255 9.82837 25.658 9.86447 25.5687C9.90057 25.4775 9.91862 25.3616 9.91862 25.221C9.91862 25.0823 9.90057 24.9683 9.86447 24.879C9.82837 24.7897 9.77327 24.7232 9.69917 24.6795C9.62507 24.6358 9.53197 24.614 9.41987 24.614H8.95247V25.8366H9.41987Z" fill="black"/>
<path d="M11.6688 24.0098H13.7978V24.6425H12.3585V25.6827H13.6353V26.304H12.3585V27.3671H13.8548V27.9998H11.6688V24.0098Z" fill="black"/>
<path d="M14.5387 24.0098H15.2427L15.8811 26.8199L15.9381 27.2217H15.9979L16.0521 26.8199L16.6648 24.0098H17.3688L16.3542 27.9998H15.5647L14.5387 24.0098Z" fill="black"/>
<path d="M18.2029 24.0098H18.8983V27.9998H18.2029V24.0098Z" fill="black"/>
<path d="M20.0505 24.0098H22.1795V24.6425H20.7402V25.6827H22.017V26.304H20.7402V27.3671H22.2365V27.9998H20.0505V24.0098Z" fill="black"/>
<path d="M22.9261 24.0098H23.6443L24.1003 26.7486L24.1402 27.1562H24.2001L24.2428 26.7515L24.7558 24.0098H25.4854L26.0155 26.78L26.0611 27.1847H26.121L26.1523 26.78L26.5798 24.0098H27.2866L26.4972 27.9998H25.702L25.1919 25.2581L25.1463 24.8534H25.0864L25.0408 25.2581L24.5193 27.9998H23.7184L22.9261 24.0098Z" fill="black"/>
</g>
<defs>
<filter id="filter0_d_5739_40237" x="0.4" y="1.1" width="31.2" height="31.2" filterUnits="userSpaceOnUse" color-interpolation-filters="sRGB">
<feFlood flood-opacity="0" result="BackgroundImageFix"/>
<feColorMatrix in="SourceAlpha" type="matrix" values="0 0 0 0 0 0 0 0 0 0 0 0 0 0 0 0 0 0 127 0" result="hardAlpha"/>
<feOffset dy="0.7"/>
<feGaussianBlur stdDeviation="0.8"/>
<feComposite in2="hardAlpha" operator="out"/>
<feColorMatrix type="matrix" values="0 0 0 0 0 0 0 0 0 0 0 0 0 0 0 0 0 0 0.35 0"/>
<feBlend mode="normal" in2="BackgroundImageFix" result="effect1_dropShadow_5739_40237"/>
<feBlend mode="normal" in="SourceGraphic" in2="effect1_dropShadow_5739_40237" result="shape"/>
</filter>
<linearGradient id="paint0_linear_5739_40237" x1="7.52653" y1="26.3215" x2="17.859" y2="13.4059" gradientUnits="userSpaceOnUse">
<stop stop-color="#3BEA62"/>
<stop offset="0.543588" stop-color="#0894FA"/>
<stop offset="1" stop-color="#764EFF"/>
</linearGradient>
<linearGradient id="paint1_linear_5739_40237" x1="25.9102" y1="5.19056" x2="15.5803" y2="15.5204" gradientUnits="userSpaceOnUse">
<stop stop-color="#3BEA62"/>
<stop offset="0.543588" stop-color="#0894FA"/>
<stop offset="1" stop-color="#764EFF"/>
</linearGradient>
<clipPath id="clip0_5739_40237">
<rect width="32" height="32" fill="white"/>
</clipPath>
<clipPath id="clip1_5739_40237">
<rect width="28" height="28" fill="white" transform="translate(2 2)"/>
</clipPath>
<clipPath id="clip2_5739_40237">
<rect width="20.6602" height="20.6602" fill="white" transform="translate(5.66992 4.85449)"/>
</clipPath>
</defs>
</svg>
