<svg width="16" height="16" viewBox="0 0 16 16" xmlns="http://www.w3.org/2000/svg">
  <path fill="#59a869" d="M13.6 5.4h-1.94c-.34-.77-.92-1.41-1.64-1.84l1.46-1.51-.95-.92-1.86 1.93c-.22-.04-.44-.07-.66-.07s-.45.03-.66.07L5.49 1.13l-.95.92L6 3.56c-.72.43-1.31 1.06-1.64 1.84H2.42v1.32h1.63c0 .09-.03.18-.03.28v1.04h-1.6v1.32h1.6V10c0 .23.03.46.07.68H2.42V12h2.15c.69 1.19 1.97 2 3.45 2s2.75-.81 3.45-2h2.15v-1.32h-1.67c.04-.22.07-.45.07-.68v-.64h1.6V8.04h-1.6V7c0-.1-.02-.19-.03-.28h1.63V5.4ZM10 10.68H6V9.36h4v1.32Zm0-2.64H6V6.72h4v1.32Z"/>
</svg>
