<svg width="16" height="16" viewBox="0 0 16 16" xmlns="http://www.w3.org/2000/svg">
  <path fill="none" stroke="#57965C" stroke-linecap="round" stroke-linejoin="round" d="M8.88 4.5H7.13c-1.45 0-2.62 1.18-2.62 2.62v2.19c0 1.93 1.57 3.5 3.5 3.5s3.5-1.57 3.5-3.5V7.12c0-1.45-1.18-2.62-2.62-2.62h-.01Z"/>
  <path fill="none" stroke="#57965C" stroke-linecap="round" stroke-linejoin="round" d="M6.25 4.65c-.06-.19-.1-.39-.1-.6 0-1.02.83-1.85 1.85-1.85a1.852 1.852 0 0 1 1.75 2.45M11.5 8.5H14m-2.72-2.44 2.13-1.17m-2.21 5.83 2.21 1.29M4.5 8.5H2m2.72-2.44L2.59 4.89m2.21 5.83-2.21 1.29"/>
</svg>
