<svg width="16" height="16" viewBox="0 0 16 16" fill="none" xmlns="http://www.w3.org/2000/svg">
<path fill-rule="evenodd" clip-rule="evenodd" d="M8.14645 12.1464C7.95118 12.3417 7.95118 12.6583 8.14645 12.8536C8.34171 13.0488 8.65829 13.0488 8.85355 12.8536L12 9.70711V11C12 11.2761 12.2239 11.5 12.5 11.5C12.7761 11.5 13 11.2761 13 11V8.5C13 8.22386 12.7761 8 12.5 8H10C9.72386 8 9.5 8.22386 9.5 8.5C9.5 8.77614 9.72386 9 10 9H11.2929L8.14645 12.1464ZM12.7071 15L15.8536 11.8536C16.0488 11.6583 16.0488 11.3417 15.8536 11.1464C15.6583 10.9512 15.3417 10.9512 15.1464 11.1464L12 14.2929V13C12 12.7239 11.7761 12.5 11.5 12.5C11.2239 12.5 11 12.7239 11 13V15.5C11 15.7761 11.2239 16 11.5 16H14C14.2761 16 14.5 15.7761 14.5 15.5C14.5 15.2239 14.2761 15 14 15H12.7071Z" fill="#CED0D6"/>
<path d="M13.9988 8.43997C13.9673 7.63937 13.3083 7 12.5 7H10C9.17157 7 8.5 7.67157 8.5 8.5C8.5 9.01094 8.75546 9.46221 9.14562 9.73306L7.43934 11.4393C7.40578 11.4729 7.37414 11.5077 7.34443 11.5435C7.31507 11.5547 7.28576 11.5657 7.25648 11.5765C5.84298 12.0972 3.28781 12.6064 3.28781 12.6064L3.18434 12.5512C1.4464 11.7062 1.39817 7.9452 4.55312 6.733C5.33057 6.43407 6.08892 6.39552 6.86938 6.35584C7.47797 6.3249 8.10001 6.29328 8.75504 6.13698C10.35 5.75834 12.1967 4.55929 12.9473 3C13.4575 4.51142 14.0295 6.53921 13.9988 8.43997Z" fill="#253627"/>
<path d="M7.41822 13.5391C7.17552 13.2866 7.03845 12.9701 7.00702 12.6454C6.70644 12.7506 6.3925 12.8457 6.03582 12.9538C5.59499 13.0874 5.08885 13.2408 4.46192 13.4575C4.25148 13.5302 4.08663 13.6004 4.08663 13.6004C4.52243 13.5285 4.95472 13.5039 4.95472 13.5039C5.48599 13.4799 6.08188 13.4988 6.70749 13.5187C6.94087 13.5261 7.17838 13.5336 7.41822 13.5391Z" fill="#253627"/>
<path d="M6.55758 5.37077C5.85421 5.40938 5.04269 5.47346 4.19453 5.79954C2.25514 6.54479 1.25485 8.10892 1.04333 9.64326C0.847108 11.0666 1.33173 12.7204 2.68642 13.4201C2.69602 13.4428 2.70767 13.4719 2.72425 13.5133L2.76299 13.6097C2.80421 13.7123 2.90411 13.9611 3.08639 14.1692C3.196 14.2944 3.35669 14.432 3.58005 14.5196C3.8087 14.6092 4.04011 14.6216 4.24942 14.587C4.43594 14.5563 4.62776 14.5348 4.77678 14.5209C4.85025 14.5141 4.911 14.5093 4.95257 14.5063L4.99926 14.5031L5.00728 14.5026C5.49521 14.481 6.04559 14.4983 6.67327 14.5181L6.95908 14.527C7.6884 14.5491 8.49562 14.5661 9.29327 14.5061C9.52558 14.4886 9.76201 14.4642 10 14.4305V13.4193C9.88569 13.4375 9.77038 13.4533 9.65429 13.467L9.56066 13.5607C8.97487 14.1464 8.02513 14.1464 7.43934 13.5607C7.43221 13.5535 7.42517 13.5463 7.41822 13.5391C7.17838 13.5336 6.94087 13.5261 6.70749 13.5187C6.08189 13.4988 5.48598 13.4799 4.95472 13.5039C4.95472 13.5039 4.52243 13.5285 4.08663 13.6004C4.08663 13.6004 4.25148 13.5302 4.46192 13.4575C5.08884 13.2408 5.59497 13.0874 6.0358 12.9538C6.39248 12.8457 6.70644 12.7506 7.00702 12.6454C6.96957 12.2584 7.08204 11.8597 7.34443 11.5435C7.31507 11.5547 7.28576 11.5657 7.25648 11.5765C5.84298 12.0972 3.28781 12.6064 3.28781 12.6064L3.18434 12.5512C1.4464 11.7062 1.39817 7.9452 4.55312 6.733C5.33057 6.43407 6.08892 6.39552 6.86938 6.35584C7.47797 6.3249 8.10001 6.29328 8.75504 6.13698C10.35 5.75834 12.1967 4.55929 12.9473 3C13.4575 4.51142 14.0295 6.53921 13.9988 8.43997C13.9996 8.45989 14 8.4799 14 8.5V10.8787L14.4393 10.4393C14.549 10.3297 14.6714 10.2405 14.8018 10.1719C15.0141 9.24105 15.036 8.2733 14.9602 7.35611C14.8186 5.64384 14.3242 3.95217 13.8949 2.68017L13.1103 0.356018L12.0463 2.56628C11.4596 3.78522 9.90936 4.83519 8.52413 5.16403L8.52301 5.1643C7.96333 5.29785 7.43676 5.32505 6.82202 5.35681L6.82091 5.35687C6.73498 5.36131 6.64731 5.36584 6.55758 5.37077Z" fill="#57965C"/>
</svg>
