<svg width="16" height="16" viewBox="0 0 16 16" fill="none" xmlns="http://www.w3.org/2000/svg">
<path fill-rule="evenodd" clip-rule="evenodd" d="M10.0775 2.44037C10.1656 2.12093 9.97809 1.79054 9.65866 1.70242C9.33922 1.6143 9.00882 1.80182 8.9207 2.12126L5.76529 13.5596C5.67717 13.8791 5.86469 14.2095 6.18412 14.2976C6.50356 14.3857 6.83396 14.1982 6.92208 13.8788L10.0775 2.44037ZM5.41281 4.66699C5.61982 4.92575 5.57786 5.30332 5.31911 5.51033L1.96049 8.19723L5.31911 10.8841C5.57786 11.0911 5.61982 11.4687 5.41281 11.7275C5.20581 11.9862 4.82823 12.0282 4.56947 11.8212L0.0395508 8.19723L4.56947 4.57329C4.82823 4.36628 5.20581 4.40823 5.41281 4.66699Z" fill="#F28C35"/>
<path fill-rule="evenodd" clip-rule="evenodd" d="M15 8.96484L10.681 5.51035C10.4223 5.30334 10.3803 4.92577 10.5873 4.66701C10.7943 4.40825 11.1719 4.3663 11.4306 4.5733L15.9606 8.19724L15 8.96484Z" fill="#F28C35"/>
<path fill-rule="evenodd" clip-rule="evenodd" d="M8.14645 12.1464C7.95118 12.3417 7.95118 12.6583 8.14645 12.8536C8.34171 13.0488 8.65829 13.0488 8.85355 12.8536L12 9.70711V11C12 11.2761 12.2239 11.5 12.5 11.5C12.7761 11.5 13 11.2761 13 11V8.5C13 8.22386 12.7761 8 12.5 8H10C9.72386 8 9.5 8.22386 9.5 8.5C9.5 8.77614 9.72386 9 10 9H11.2929L8.14645 12.1464ZM12.7071 15L15.8536 11.8536C16.0488 11.6583 16.0488 11.3417 15.8536 11.1464C15.6583 10.9512 15.3417 10.9512 15.1464 11.1464L12 14.2929V13C12 12.7239 11.7761 12.5 11.5 12.5C11.2239 12.5 11 12.7239 11 13V15.5C11 15.7761 11.2239 16 11.5 16H14C14.2761 16 14.5 15.7761 14.5 15.5C14.5 15.2239 14.2761 15 14 15H12.7071Z" fill="#3574F0"/>
</svg>
