<svg width="16" height="16" viewBox="0 0 16 16" fill="none" xmlns="http://www.w3.org/2000/svg">
    <path fill-rule="evenodd" clip-rule="evenodd"
          d="M15 7.5C15 10.5376 12.5892 13 9.61538 13C8.83383 13 8.09117 12.8299 7.42093 12.524L7.46154 12.4923C7.83432 12.1679 8.57988 11.2315 8.57988 10.0808C8.80049 10.0808 9.19247 10.0933 9.51133 10.1058C9.69407 10.113 9.82362 9.92372 9.75301 9.75141L8.57478 6.87644C8.50219 6.6993 8.27077 6.66546 8.15243 6.81467L6.07224 9.43742C5.94406 9.59903 6.05013 9.84087 6.25353 9.85077L7.50296 9.91154C7.40728 10.5663 7.01056 11.6912 6.12534 12.3651C5.60466 12.7131 4.98227 12.9154 4.31361 12.9154C2.48355 12.9154 1 11.4 1 9.53077C1 7.6615 2.48355 6.14615 4.31361 6.14615C4.34078 6.14615 4.36786 6.14649 4.39487 6.14715C4.98505 3.76373 7.09857 2 9.61538 2C12.5892 2 15 4.46243 15 7.5Z"
          fill="#F26522" fill-opacity="0.7"/>
</svg>
