<?xml version="1.0" encoding="UTF-8"?>
<svg xmlns="http://www.w3.org/2000/svg" width="16px" height="16px" viewBox="0 0 16 16" version="1.1">
    <g id="surface1">
        <path style=" stroke:none;fill-rule:nonzero;fill:rgb(96.078431%,51.764706%,20.784314%);fill-opacity:1;"
              d="M 8.949219 7.996094 L 3.710938 7.996094 L 3.710938 11.617188 L 8.949219 10.417969 Z M 8.949219 7.996094 "/>
        <path style=" stroke:none;fill-rule:nonzero;fill:rgb(96.078431%,51.764706%,20.784314%);fill-opacity:1;"
              d="M 10.519531 7.996094 L 4.824219 7.996094 L 4.824219 12.171875 L 10.519531 10.558594 Z M 10.519531 7.996094 "/>
        <path style=" stroke:none;fill-rule:nonzero;fill:rgb(96.078431%,51.764706%,20.784314%);fill-opacity:1;"
              d="M 11.757812 7.996094 L 6.214844 7.996094 L 6.214844 12.867188 L 11.757812 10.839844 Z M 11.757812 7.996094 "/>
        <path style=" stroke:none;fill-rule:nonzero;fill:rgb(96.078431%,51.764706%,20.784314%);fill-opacity:1;"
              d="M 8 13.761719 L 8 7.996094 L 12.769531 7.996094 L 12.769531 11.375 Z M 8 13.761719 "/>
        <path style=" stroke:none;fill-rule:nonzero;fill:rgb(61.568627%,31.372549%,14.509804%);fill-opacity:1;"
              d="M 3.710938 7.996094 L 3.710938 11.617188 L 3.234375 11.375 L 3.234375 7.996094 Z M 3.710938 7.996094 "/>
        <path style=" stroke:none;fill-rule:nonzero;fill:rgb(61.568627%,31.372549%,14.509804%);fill-opacity:1;"
              d="M 4.824219 7.996094 L 4.824219 12.171875 L 4.238281 11.878906 L 4.238281 7.996094 Z M 4.824219 7.996094 "/>
        <path style=" stroke:none;fill-rule:nonzero;fill:rgb(61.568627%,31.372549%,14.509804%);fill-opacity:1;"
              d="M 6.214844 7.996094 L 6.214844 12.867188 L 5.480469 12.5 L 5.480469 7.996094 Z M 6.214844 7.996094 "/>
        <path style=" stroke:none;fill-rule:nonzero;fill:rgb(61.568627%,31.372549%,14.509804%);fill-opacity:1;"
              d="M 7.046875 13.285156 L 7.046875 7.996094 L 8 7.996094 L 8 13.761719 Z M 7.046875 13.285156 "/>
        <path style=" stroke:none;fill-rule:nonzero;fill:rgb(96.078431%,51.764706%,20.784314%);fill-opacity:1;"
              d="M 12.769531 6.835938 L 8 6.019531 L 8 2.238281 L 12.769531 4.625 Z M 12.769531 6.835938 "/>
        <path style=" stroke:none;fill-rule:nonzero;fill:rgb(61.568627%,31.372549%,14.509804%);fill-opacity:1;"
              d="M 3.230469 6.835938 L 8 6.019531 L 8 2.238281 L 3.230469 4.625 Z M 3.230469 6.835938 "/>
        <path style=" stroke:none;fill-rule:nonzero;fill:rgb(41.960784%,23.137255%,9.803922%);fill-opacity:1;"
              d="M 12.769531 6.835938 L 8 7.175781 L 3.230469 6.835938 L 8 6.019531 Z M 12.769531 6.835938 "/>
    </g>
</svg>
