<svg width="16" height="16" viewBox="0 0 16 16" fill="none" xmlns="http://www.w3.org/2000/svg">
  <path
    d="M11.0064 10.6087C11.1034 10.271 11.0659 9.96145 10.9033 9.73006C10.7532 9.52056 10.4999 9.39862 10.1966 9.38298L4.42134 9.30794C4.38695 9.30794 4.35255 9.28918 4.33379 9.26104C4.31503 9.23289 4.3119 9.19537 4.32128 9.15785C4.34004 9.10157 4.39633 9.05779 4.45574 9.05467L10.2841 8.97962C10.9752 8.94835 11.7256 8.38865 11.9883 7.70387L12.3197 6.83462C12.3354 6.79709 12.3385 6.75957 12.3291 6.72205C11.9539 5.02418 10.4374 3.75781 8.62693 3.75781C6.9572 3.75781 5.54075 4.83657 5.0342 6.33432C4.70588 6.09043 4.28689 5.9591 3.83662 6.00288C3.03303 6.08105 2.39203 6.72518 2.31073 7.52877C2.29197 7.73514 2.3076 7.93839 2.3545 8.126C1.04436 8.16352 0 9.2329 0 10.5524C0 10.6681 0.00938012 10.7869 0.0250143 10.9026C0.0343948 10.9589 0.0812974 10.9996 0.13758 10.9996H10.797C10.8564 10.9996 10.9158 10.9558 10.9314 10.8964L11.0064 10.6087Z"
    fill="#F38020"/>
  <path
    d="M12.6861 6.91641C12.6486 6.91641 12.6173 6.94455 12.6017 6.98207L12.3765 7.76378C12.2796 8.10148 12.314 8.41103 12.4797 8.64242C12.6298 8.85192 12.8831 8.97387 13.1895 8.9895L14.4183 9.06454C14.4559 9.06454 14.4903 9.0833 14.5059 9.11144C14.5247 9.13959 14.5278 9.18336 14.5215 9.21463C14.5028 9.27091 14.4465 9.31469 14.384 9.31782L13.102 9.39286C12.4078 9.42413 11.6636 9.98383 11.3978 10.6686L11.304 10.9062C11.2853 10.9531 11.3197 11.0001 11.3697 11.0001H15.7723C15.8223 11.0001 15.8692 10.9688 15.8848 10.9156C15.9599 10.6436 16.0005 10.3559 16.0005 10.062C16.0005 8.32661 14.5841 6.91016 12.8424 6.91016"
    fill="#FAAE40"/>
</svg>
