<svg width="128" height="128" viewBox="0 0 128 128" fill="none" xmlns="http://www.w3.org/2000/svg">
<path d="M17.2 115.7L0 13.4L31.9 0.199951L52.3 12.3L70.9 2.19995L109.8 17.1L88 128L17.2 115.7Z" fill="url(#paint0_linear)"/>
<path d="M70.9001 2.19995L52.3 12.3L57.7001 54L69.2 62L72.8001 86.1L85.7 87.4L75.9001 42.5999L70.9001 2.19995Z" fill="url(#paint1_linear)"/>
<path d="M57.6999 58.2L52.2999 12.3L31.8999 0.199951L40.3999 49.7999L43.4999 80.7L60.9999 80L59.6999 72.2L57.6999 58.2Z" fill="url(#paint2_linear)"/>
<path d="M17.2 115.7L0 13.4L31.9 0.199951L40.8 51.5999L17.2 115.7Z" fill="url(#paint3_linear)"/>
<path d="M40.8 51.2999L31.9 0.199951L0 13.4L35.6 44.4L40.8 51.2999Z" fill="url(#paint4_linear)"/>
<path d="M17.2 115.7L0 13.3999L35.6 44.3999L71 91.3999L17.2 115.7Z" fill="url(#paint5_linear)"/>
<path d="M17.2 115.7L47.5 93.8L88 128L17.2 115.7Z" fill="url(#paint6_linear)"/>
<path d="M61.7 88.6001L47.7 101.7L88 128L95 92.4001L61.7 88.6001Z" fill="url(#paint7_linear)"/>
<path d="M17.2 115.7L47.7 101.7L88 128L17.2 115.7Z" fill="url(#paint8_linear)"/>
<path d="M128 43.3L111.5 2.5L81.5 0L35.2 44.5L47.0999 101.7L71.9 117.5L128 84.2L114 58L128 43.3Z" fill="url(#paint9_linear)"/>
<path d="M84.9 41.3L81.5 0L35.2 44.5L69.4 55.1L84.9 41.3Z" fill="url(#paint10_linear)"/>
<path d="M76.9 4.5L35.2 44.5L69.4 55.1L88 75L82 6.4L76.9 4.5Z" fill="url(#paint11_linear)"/>
<path d="M69.4001 55.1L77.1001 48.1L75.9001 42.6L71.8001 9.30005L54.1001 26.3L57.4001 51.3L69.4001 55.1Z" fill="url(#paint12_linear)"/>
<path d="M57.3999 51.3L53.8999 26.5L38.8999 40.9L39.6999 45.9L57.3999 51.3Z" fill="url(#paint13_linear)"/>
<path d="M76.9 4.5L35.2 44.5L82.0999 6.5L76.9 4.5Z" fill="url(#paint14_linear)"/>
<path d="M72.3999 13.8L71.7999 9.30005L54.0999 26.3L54.3999 28.6L72.3999 13.8Z" fill="url(#paint15_linear)"/>
<path d="M54.2999 28.8L53.8999 26.5L38.8999 40.9L38.9999 41.4L54.2999 28.8Z" fill="url(#paint16_linear)"/>
<path d="M97.9999 29.2L69.3999 55.0999L71.8999 117.5L128 84.1999L114 58L97.9999 29.2Z" fill="url(#paint17_linear)"/>
<path d="M85.1001 44.5999L87.7001 77.1999L128 84.1999L114 58L105.8 43.2L85.1001 44.5999Z" fill="url(#paint18_linear)"/>
<path d="M85.1001 44.5999L87.7001 77.1999L94.1001 78.3L114 58L105.8 43.2L85.1001 44.5999Z" fill="url(#paint19_linear)"/>
<path d="M69.4 55.1L35.2 44.5L47.0999 101.7L71.9 117.5L69.4 55.1Z" fill="url(#paint20_linear)"/>
<path d="M58.0999 58.1999L57.2 51.2999L39.7 45.8999L40.4 49.7999L46.2 94.1999L47.0999 98.3999L65.3 112.4L58.0999 58.1999Z" fill="url(#paint21_linear)"/>
<path d="M47.1001 101.7L71.9001 117.5L70.7001 86.5L47.1001 101.7Z" fill="url(#paint22_linear)"/>
<path d="M98 29.2L114 58L128 43.3L111.5 2.5L90.8 28.4L98 29.2Z" fill="url(#paint23_linear)"/>
<path d="M105.8 43.3L114 58L128 43.3H105.8Z" fill="url(#paint24_linear)"/>
<path d="M35.2 44.5L38 57.8L35.2 44.5Z" fill="url(#paint25_linear)"/>
<path d="M104 24H24V104H104V24Z" fill="url(#paint26_linear)"/>
<g opacity="0.3">
<path opacity="0.3" d="M57.4 54L60.3 79.2L69.6 91.5L85.4 87.4L75.6 42.6L73.3 24H53.5L57.4 54Z" fill="url(#paint27_linear)"/>
<g opacity="0.3">
<path opacity="0.3" d="M104 98.4V39.9L97.9999 29.2L69.3999 55.1L71.3999 104H94.5999L104 98.4Z" fill="url(#paint28_linear)"/>
<path opacity="0.3" d="M104 24H94.2998L90.7998 28.4L97.9998 29.2L104 39.9V24Z" fill="url(#paint29_linear)"/>
</g>
<path opacity="0.3" d="M40.4 49.8L47.7 102.5L61 80L59.7 72.2L57.7 58.2L53.7 24H36L40.4 49.8Z" fill="url(#paint30_linear)"/>
<path opacity="0.3" d="M98 29.2L90.8 28.4L94.3 24H56.5L35.2 44.5L47.1 101.7L50.6 104H71.4L69.4 55.1L98 29.2Z" fill="url(#paint31_linear)"/>
<path opacity="0.3" d="M24 34.3L35.6 44.4L40.8 51.3L36 24H24V34.3Z" fill="url(#paint32_linear)"/>
<g opacity="0.3">
<path opacity="0.3" d="M24 34.3V104H43.1L47.7 101.7L35.6 44.4L24 34.3Z" fill="url(#paint33_linear)"/>
</g>
</g>
<path d="M64 88.8999H34V93.8999H64V88.8999Z" fill="white"/>
<path d="M62.4001 33.8999L57.9001 51.3999L52.8001 33.8999H47.7001L42.6001 51.3999L38.1001 33.8999H31.1001L39.7001 63.8999H45.3001L50.3001 46.4999L55.1001 63.8999H60.8001L69.4001 33.8999H62.4001Z" fill="white"/>
<path d="M70.6001 59.6L74.5001 54.9C77.2001 57.1 80.0001 58.6 83.5001 58.6C86.2001 58.6 87.8001 57.5 87.8001 55.8V55.7C87.8001 54 86.8001 53.2 81.7001 51.9C75.6001 50.4 71.7001 48.7 71.7001 42.7V42.6C71.7001 37.1 76.1001 33.5 82.2001 33.5C86.6001 33.5 90.3001 34.9 93.4001 37.3L90.0001 42.3C87.3001 40.4 84.7001 39.3 82.2001 39.3C79.7001 39.3 78.3001 40.5 78.3001 41.9V42C78.3001 44 79.6001 44.6 84.8001 46C90.9001 47.6 94.3001 49.8 94.3001 55V55.1C94.3001 61.1 89.7001 64.4 83.3001 64.4C78.8001 64.4 74.2001 62.8 70.6001 59.6Z" fill="white"/>
<defs>
<linearGradient id="paint0_linear" x1="45.8378" y1="2.66945" x2="78.9629" y2="121.92" gradientUnits="userSpaceOnUse">
<stop offset="0.2849" stop-color="#07C3F2"/>
<stop offset="0.9409" stop-color="#087CFA"/>
</linearGradient>
<linearGradient id="paint1_linear" x1="56.844" y1="-4.11525" x2="74.0985" y2="70.1695" gradientUnits="userSpaceOnUse">
<stop offset="0.0669317" stop-color="#42FFFA"/>
<stop offset="0.3409" stop-color="#07C3F2"/>
<stop offset="0.9409" stop-color="#087CFA"/>
</linearGradient>
<linearGradient id="paint2_linear" x1="27.8224" y1="-3.93735" x2="54.8936" y2="64.0132" gradientUnits="userSpaceOnUse">
<stop offset="0.2849" stop-color="#07C3F2"/>
<stop offset="0.9409" stop-color="#087CFA"/>
</linearGradient>
<linearGradient id="paint3_linear" x1="7.3626" y1="-12.0162" x2="36.6042" y2="106.767" gradientUnits="userSpaceOnUse">
<stop offset="0.0669317" stop-color="#42FFFA"/>
<stop offset="0.3409" stop-color="#07C3F2"/>
<stop offset="0.9409" stop-color="#087CFA"/>
</linearGradient>
<linearGradient id="paint4_linear" x1="18.1112" y1="34.6995" x2="26.9018" y2="25.6058" gradientUnits="userSpaceOnUse">
<stop offset="0.00971316" stop-color="#42FFFA"/>
<stop offset="0.9216" stop-color="#07C3F2" stop-opacity="0"/>
</linearGradient>
<linearGradient id="paint5_linear" x1="-31.9765" y1="38.4476" x2="54.4772" y2="94.0249" gradientUnits="userSpaceOnUse">
<stop offset="0.1985" stop-color="#07C3F2"/>
<stop offset="0.9403" stop-color="#087CFA"/>
</linearGradient>
<linearGradient id="paint6_linear" x1="0.42125" y1="108.921" x2="50.1867" y2="110.374" gradientUnits="userSpaceOnUse">
<stop offset="0.1291" stop-color="#1D53B8"/>
<stop offset="0.8696" stop-color="#087CFA"/>
</linearGradient>
<linearGradient id="paint7_linear" x1="69.03" y1="88.6528" x2="79.8154" y2="127.48" gradientUnits="userSpaceOnUse">
<stop offset="0.2771" stop-color="#087BFA"/>
<stop offset="0.6826" stop-color="#085DFA"/>
</linearGradient>
<linearGradient id="paint8_linear" x1="45.5655" y1="64.6128" x2="53.1938" y2="126.365" gradientUnits="userSpaceOnUse">
<stop offset="0.5232" stop-color="#087BFA"/>
<stop offset="0.9771" stop-color="#086DFA"/>
</linearGradient>
<linearGradient id="paint9_linear" x1="55.9644" y1="17.9425" x2="112.001" y2="100.113" gradientUnits="userSpaceOnUse">
<stop offset="0.1286" stop-color="#FCF84A"/>
<stop offset="0.4986" stop-color="#07C3F2"/>
</linearGradient>
<linearGradient id="paint10_linear" x1="80.5939" y1="-0.5326" x2="75.1223" y2="11.0544" gradientUnits="userSpaceOnUse">
<stop  offset="0" stop-color="#73A4AA"/>
<stop offset="0.6751" stop-color="#FCF84A"/>
</linearGradient>
<linearGradient id="paint11_linear" x1="52.1258" y1="-18.8808" x2="71.7033" y2="114.194" gradientUnits="userSpaceOnUse">
<stop offset="0.1786" stop-color="#FCF84A"/>
<stop offset="0.8591" stop-color="#07C3F2"/>
</linearGradient>
<linearGradient id="paint12_linear" x1="59.2491" y1="7.33835" x2="74.1897" y2="71.6617" gradientUnits="userSpaceOnUse">
<stop offset="0.1787" stop-color="#FCF84A"/>
<stop offset="0.9725" stop-color="#12C6EC"/>
</linearGradient>
<linearGradient id="paint13_linear" x1="43.3656" y1="28.9177" x2="55.5588" y2="54.2966" gradientUnits="userSpaceOnUse">
<stop offset="0.1286" stop-color="#FCF84A"/>
<stop offset="0.9414" stop-color="#07C3F2"/>
</linearGradient>
<linearGradient id="paint14_linear" x1="54.2049" y1="-4.8626" x2="63.3934" y2="57.5943" gradientUnits="userSpaceOnUse">
<stop offset="0.1786" stop-color="#FCF84A"/>
<stop offset="0.8591" stop-color="#07C3F2"/>
</linearGradient>
<linearGradient id="paint15_linear" x1="61.0633" y1="10.1589" x2="66.1099" y2="31.8859" gradientUnits="userSpaceOnUse">
<stop offset="0.1787" stop-color="#D3FF8C"/>
<stop offset="0.8762" stop-color="#12C6EC"/>
</linearGradient>
<linearGradient id="paint16_linear" x1="44.6611" y1="30.1733" x2="48.2036" y2="37.5467" gradientUnits="userSpaceOnUse">
<stop offset="0.1286" stop-color="#FCF84A"/>
<stop offset="0.9414" stop-color="#07C3F2"/>
</linearGradient>
<linearGradient id="paint17_linear" x1="68.7204" y1="49.5371" x2="105.187" y2="103.011" gradientUnits="userSpaceOnUse">
<stop  offset="0" stop-color="#07C3F2"/>
<stop offset="0.906" stop-color="#00A0FF"/>
</linearGradient>
<linearGradient id="paint18_linear" x1="121.606" y1="62.4653" x2="75.8359" y2="68.2773" gradientUnits="userSpaceOnUse">
<stop  offset="0" stop-color="#07C3F2"/>
<stop offset="1" stop-color="#0895F7"/>
</linearGradient>
<linearGradient id="paint19_linear" x1="111.445" y1="58.6774" x2="78.0493" y2="62.9182" gradientUnits="userSpaceOnUse">
<stop  offset="0" stop-color="#07C3F2"/>
<stop offset="1" stop-color="#0895F7"/>
</linearGradient>
<linearGradient id="paint20_linear" x1="30.0385" y1="37.0389" x2="77.4405" y2="106.548" gradientUnits="userSpaceOnUse">
<stop offset="0.080633" stop-color="#FCF84A"/>
<stop offset="0.5708" stop-color="#07C3F2"/>
</linearGradient>
<linearGradient id="paint21_linear" x1="35.4312" y1="40.0541" x2="71.6891" y2="115.521" gradientUnits="userSpaceOnUse">
<stop offset="0.1286" stop-color="#FCF84A"/>
<stop offset="0.4216" stop-color="#07C3F2"/>
</linearGradient>
<linearGradient id="paint22_linear" x1="45.9017" y1="85.3442" x2="76.7311" y2="106.216" gradientUnits="userSpaceOnUse">
<stop offset="0.09347" stop-color="#087CFA"/>
<stop offset="0.6584" stop-color="#07C3F2"/>
</linearGradient>
<linearGradient id="paint23_linear" x1="100.003" y1="2.6456" x2="115.821" y2="58.6664" gradientUnits="userSpaceOnUse">
<stop  offset="0" stop-color="#FCF84A"/>
<stop offset="0.4651" stop-color="#07C3F2"/>
<stop offset="0.9409" stop-color="#087CFA"/>
</linearGradient>
<linearGradient id="paint24_linear" x1="134.184" y1="47.0382" x2="87.3242" y2="53.9398" gradientUnits="userSpaceOnUse">
<stop  offset="0" stop-color="#0863FA"/>
<stop offset="0.9409" stop-color="#1AC8FB"/>
</linearGradient>
<linearGradient id="paint25_linear" x1="33.1094" y1="45.9774" x2="40.4854" y2="56.7933" gradientUnits="userSpaceOnUse">
<stop offset="0.1286" stop-color="#FCF84A"/>
<stop offset="0.4216" stop-color="#07C3F2"/>
</linearGradient>
<linearGradient id="paint26_linear" x1="21.9908" y1="20.3672" x2="92.0096" y2="93.092" gradientUnits="userSpaceOnUse">
<stop  offset="0" stop-color="#006396"/>
<stop offset="0.0470796" stop-color="#005682"/>
<stop offset="0.1677" stop-color="#003754"/>
<stop offset="0.2832" stop-color="#001F2F"/>
<stop offset="0.3905" stop-color="#000E15"/>
<stop offset="0.4867" stop-color="#000406"/>
<stop offset="0.5623"/>
<stop offset="0.9138"/>
</linearGradient>
<linearGradient id="paint27_linear" x1="58.3396" y1="15.1609" x2="72.2097" y2="74.8754" gradientUnits="userSpaceOnUse">
<stop offset="0.0669317" stop-color="#42FFFA"/>
<stop offset="0.3409" stop-color="#07C3F2"/>
<stop offset="0.9409" stop-color="#0838AF"/>
</linearGradient>
<linearGradient id="paint28_linear" x1="71.6764" y1="47.5115" x2="107.119" y2="99.4826" gradientUnits="userSpaceOnUse">
<stop offset="0.1825" stop-color="#07C3F2"/>
<stop offset="0.906" stop-color="#00171C"/>
</linearGradient>
<linearGradient id="paint29_linear" x1="96.3077" y1="22.3846" x2="101.575" y2="41.0384" gradientUnits="userSpaceOnUse">
<stop  offset="0" stop-color="#FCF84A"/>
<stop offset="0.4651" stop-color="#07C3F2"/>
<stop offset="0.9409" stop-color="#087CFA"/>
</linearGradient>
<linearGradient id="paint30_linear" x1="33.3715" y1="19.834" x2="57.9836" y2="81.612" gradientUnits="userSpaceOnUse">
<stop offset="0.0167591" stop-color="#086DFA"/>
<stop offset="1" stop-color="#08328E"/>
</linearGradient>
<linearGradient id="paint31_linear" x1="67.8274" y1="20.2499" x2="61.5555" y2="107.784" gradientUnits="userSpaceOnUse">
<stop offset="0.0186027" stop-color="#00FE80"/>
<stop offset="0.3413" stop-color="#21DE9B"/>
<stop offset="0.9563" stop-color="#0770B1"/>
</linearGradient>
<linearGradient id="paint32_linear" x1="22.5483" y1="5.4811" x2="42.7769" y2="69.5957" gradientUnits="userSpaceOnUse">
<stop offset="0.1985" stop-color="#07C3F2"/>
<stop offset="0.9403" stop-color="#0845D7"/>
</linearGradient>
<linearGradient id="paint33_linear" x1="12.0863" y1="40.9757" x2="47.498" y2="107.456" gradientUnits="userSpaceOnUse">
<stop  offset="0" stop-color="#07C3F2"/>
<stop offset="0.9409" stop-color="#0838AF"/>
</linearGradient>
</defs>
</svg>
