<svg width="16" height="16" viewBox="0 0 16 16" fill="none" xmlns="http://www.w3.org/2000/svg">
<g clip-path="url(#clip0_4372_13107)">
<path d="M16 0H0V16H16V0Z" fill="#07C3F2"/>
<path d="M15 1H1V15H15V1Z" fill="black"/>
<path d="M3.48784 2.86666L4.33164 6.68206L5.23144 2.86666H6.26184L7.20264 6.68206L8.02024 2.86666H9.05444L7.78504 8.09326H6.62404L5.74304 4.29646L4.85084 8.09326H3.69344L2.43164 2.86666H3.48824H3.48784ZM11.256 8.18306C10.8776 8.18306 10.5416 8.11446 10.248 7.97766C9.95684 7.84086 9.72784 7.64906 9.56104 7.40266C9.39684 7.15626 9.31224 6.87246 9.30724 6.55146H10.3302C10.3302 6.70306 10.37 6.83666 10.4496 6.95086C10.5292 7.06526 10.64 7.15486 10.7818 7.21966C10.9236 7.28446 11.0866 7.31666 11.2708 7.31666C11.455 7.31666 11.6018 7.28826 11.7338 7.23086C11.8682 7.17106 11.9714 7.08906 12.0436 6.98446C12.1182 6.87986 12.1556 6.76046 12.1556 6.62606C12.1556 6.45946 12.1046 6.32126 12.0026 6.21166C11.903 6.10206 11.765 6.02646 11.5882 5.98386L10.666 5.77846C10.4172 5.72386 10.2006 5.63046 10.0164 5.49846C9.83224 5.36406 9.68924 5.19846 9.58704 5.00186C9.48504 4.80546 9.43404 4.58366 9.43404 4.33726C9.43404 4.03866 9.51124 3.77126 9.66544 3.53466C9.81984 3.29566 10.035 3.11046 10.3112 2.97846C10.5874 2.84406 10.901 2.77686 11.252 2.77686C11.603 2.77686 11.9252 2.84166 12.204 2.97106C12.4828 3.10026 12.6992 3.28086 12.8536 3.51246C13.0104 3.74166 13.09 4.00526 13.0926 4.30386H12.0734C12.0734 4.17686 12.0398 4.06346 11.9726 3.96406C11.9054 3.86186 11.8096 3.78346 11.6852 3.72886C11.5632 3.67146 11.4226 3.64306 11.2634 3.64306C11.1042 3.64306 10.9634 3.67066 10.8416 3.72526C10.7222 3.77746 10.6288 3.85226 10.5616 3.94926C10.4944 4.04406 10.4608 4.15466 10.4608 4.28146C10.4608 4.42566 10.5068 4.54506 10.599 4.63986C10.6936 4.73466 10.8218 4.80186 10.9836 4.84146L11.8722 5.03566C12.1286 5.08786 12.3562 5.18726 12.5554 5.33426C12.757 5.47846 12.9138 5.65766 13.0258 5.87186C13.1378 6.08326 13.1938 6.31466 13.1938 6.56626C13.1938 6.87466 13.1116 7.15246 12.9474 7.39886C12.7856 7.64286 12.5578 7.83426 12.2642 7.97386C11.9706 8.11346 11.6346 8.18286 11.2562 8.18286L11.256 8.18306Z" fill="white"/>
<path d="M8 12H3V13H8V12Z" fill="white"/>
</g>
<defs>
<clipPath id="clip0_4372_13107">
<rect width="16" height="16" fill="white"/>
</clipPath>
</defs>
</svg>
