<svg width="16" height="16" viewBox="0 0 16 16" xmlns="http://www.w3.org/2000/svg">
  <path fill="#43454A" stroke="#CED0D6" stroke-linecap="round" stroke-linejoin="round" d="M6.5 2.5H4v2h2.5v-2Zm5.5 0H9.5v2H12v-2Z"/>
  <path fill="#25324D" stroke="#548AF7" stroke-linejoin="round" d="M14.489 12.152a.25.25 0 0 1 0-.304l.733-.958a.248.248 0 0 0 .019-.277l-.42-.726a.25.25 0 0 0-.248-.123l-1.197.157a.25.25 0 0 1-.263-.152l-.463-1.115a.25.25 0 0 0-.23-.154h-.838a.25.25 0 0 0-.232.154l-.461 1.115a.25.25 0 0 1-.263.152l-1.198-.157a.25.25 0 0 0-.249.123l-.419.726a.25.25 0 0 0 .018.277l.734.958a.25.25 0 0 1 0 .304l-.734.958a.248.248 0 0 0-.018.277l.42.726a.25.25 0 0 0 .248.123l1.197-.157a.25.25 0 0 1 .264.152l.462 1.115a.25.25 0 0 0 .23.154h.838a.25.25 0 0 0 .231-.154l.463-1.115a.25.25 0 0 1 .263-.152l1.197.157a.25.25 0 0 0 .248-.123l.42-.726a.25.25 0 0 0-.018-.277l-.735-.958ZM12 12.5a.5.5 0 1 1 0-1 .5.5 0 0 1 0 1Z"/>
  <path fill="#43454A" d="m7.465 9.856.413-.719a1.76 1.76 0 0 1 1.523-.875h.057l.146.012.266.034.095-.229A1.746 1.746 0 0 1 11.582 7h.838c.302 0 .585.083.835.225l.246.011V4.498H2.5v7h4.838v-.189a1.713 1.713 0 0 1 .127-1.455v.002Z"/>
  <path fill="none" stroke="#CED0D6" stroke-linecap="round" stroke-linejoin="round" d="M13.5 6.792V4.5h-11v7h4.367"/>
</svg>
