<svg width="16" height="16" viewBox="0 0 16 16" xmlns="http://www.w3.org/2000/svg">
  <path fill="#f4af3d" d="M7.151 11.5c0-.17-.017-.34-.051-.507l.816-.571a3.476 3.476 0 0 0-.749-1.264l-.915.4c-.264-.227-.57-.4-.9-.509l-.1-.975a3.715 3.715 0 0 0-1.5 0l-.1.975c-.33.109-.636.282-.9.509l-.915-.4a3.476 3.476 0 0 0-.749 1.264l.816.571a2.546 2.546 0 0 0 0 1.014l-.816.571c.157.47.412.901.749 1.264l.915-.4c.264.227.57.4.9.509l.1.975a3.715 3.715 0 0 0 1.5 0l.1-.975c.33-.109.636-.282.9-.509l.915.4c.337-.363.592-.794.749-1.264l-.816-.571c.034-.167.051-.337.051-.507ZM4.5 12.739a1.24 1.24 0 1 1 1.27-1.24 1.255 1.255 0 0 1-1.27 1.239Z"/>
  <path fill="#9aa7b0" d="M9 2h3v1.5H9V2ZM4 2h3v1.5H4V2ZM2 4v3.76A4.478 4.478 0 0 1 8.95 11H14V4H2Z" opacity=".8"/>
</svg>
