<svg xmlns="http://www.w3.org/2000/svg" width="16" height="16">
  <path d="M7.151,11.5a2.572,2.572,0,0,0-.051-.507l.816-.571a3.468,3.468,0,0,0-.749-1.264l-.915.4a2.673,2.673,0,0,0-.9-.509l-.1-.975a3.729,3.729,0,0,0-1.5,0l-.1.975a2.673,2.673,0,0,0-.9.509l-.915-.4a3.468,3.468,0,0,0-.749,1.264l.816.571a2.546,2.546,0,0,0,0,1.014l-.816.571a3.468,3.468,0,0,0,.749,1.264l.915-.4a2.673,2.673,0,0,0,.9.509l.1.975a3.729,3.729,0,0,0,1.5,0l.1-.975a2.673,2.673,0,0,0,.9-.509l.915.4a3.468,3.468,0,0,0,.749-1.264L7.1,12.007A2.572,2.572,0,0,0,7.151,11.5ZM4.5,12.739A1.239,1.239,0,1,1,5.77,11.5,1.255,1.255,0,0,1,4.5,12.739Z" fill="#f4af3d" fill-rule="evenodd"/>
  <path fill="#9aa7b0" opacity=".8" d="M9 2H12V3.5H9zM4 2H7V3.5H4zM2 4V7.76A4.479 4.479 0 018.95 11H14V4z"/>
</svg>
