<svg xmlns="http://www.w3.org/2000/svg" width="16" height="16">
  <path fill="#252525" d="M1 12L1 3 3 3 3 1 13 1 13 3 15 3 15 12 1 12z"/>
  <path fill="#c4c4c4" d="M9 2H12V3.5H9zM9 4L7 4 4 4 2 4 2 11 14 11 14 4 12 4 9 4zM4 2H7V3.5H4z"/>
  <circle cx="4.5" cy="11.5" r="4.5" fill="#252525"/>
  <path d="M7.151,11.5a2.572,2.572,0,0,0-.051-.507l.816-.571a3.468,3.468,0,0,0-.749-1.264l-.915.4a2.673,2.673,0,0,0-.9-.509l-.1-.975a3.729,3.729,0,0,0-1.5,0l-.1.975a2.673,2.673,0,0,0-.9.509l-.915-.4a3.468,3.468,0,0,0-.749,1.264l.816.571a2.546,2.546,0,0,0,0,1.014l-.816.571a3.468,3.468,0,0,0,.749,1.264l.915-.4a2.673,2.673,0,0,0,.9.509l.1.975a3.729,3.729,0,0,0,1.5,0l.1-.975a2.673,2.673,0,0,0,.9-.509l.915.4a3.468,3.468,0,0,0,.749-1.264L7.1,12.007A2.572,2.572,0,0,0,7.151,11.5Z" fill="#e9a34d" fill-rule="evenodd"/>
  <ellipse cx="4.5" cy="11.5" rx="1.27" ry="1.239" fill="#292929"/>
</svg>
