<svg xmlns="http://www.w3.org/2000/svg" xmlns:xlink="http://www.w3.org/1999/xlink" width="16" height="16">
  <defs>
    <linearGradient id="b" x1="8" y1=".899" x2="8" y2="12.001" gradientUnits="userSpaceOnUse">
      <stop offset="0" stop-color="#576a80"/>
      <stop offset="1" stop-color="#2d3742"/>
    </linearGradient>
    <linearGradient id="a" x1="10.5" y1="1.996" x2="10.5" y2="3.507" gradientUnits="userSpaceOnUse">
      <stop offset="0" stop-color="#e8f4ff"/>
      <stop offset="1" stop-color="#87a0bc"/>
    </linearGradient>
    <linearGradient id="c" x1="8" y1="3.981" x2="8" y2="11.03" gradientUnits="userSpaceOnUse">
      <stop offset="0" stop-color="#def5ff"/>
      <stop offset="1" stop-color="#9cabbc"/>
    </linearGradient>
    <linearGradient id="d" x1="5.5" y1="1.996" x2="5.5" y2="3.507" xlink:href="#a"/>
    <linearGradient id="e" x1="4.5" y1="7.094" x2="4.5" y2="16.001" gradientUnits="userSpaceOnUse">
      <stop offset="0" stop-color="#845a00"/>
      <stop offset="1" stop-color="#3d2900"/>
    </linearGradient>
    <linearGradient id="f" x1="4.5" y1="8.109" x2="4.5" y2="14.949" gradientUnits="userSpaceOnUse">
      <stop offset="0" stop-color="#ffc13f"/>
      <stop offset="1" stop-color="#d89300"/>
    </linearGradient>
    <linearGradient id="g" x1="4.5" y1="10.287" x2="4.5" y2="12.739" gradientUnits="userSpaceOnUse">
      <stop offset="0" stop-color="#3d2900"/>
      <stop offset="1" stop-color="#845a00"/>
    </linearGradient>
  </defs>
  <path fill="url(#b)" d="M1 12L1 3 3 3 3 1 13 1 13 3 15 3 15 12 1 12z"/>
  <path fill="url(#a)" d="M9 2H12V3.5H9z"/>
  <path fill="url(#c)" d="M9 4L7 4 4 4 2 4 2 11 14 11 14 4 12 4 9 4z"/>
  <path fill="url(#d)" d="M4 2H7V3.5H4z"/>
  <circle cx="4.5" cy="11.5" r="4.5" fill="url(#e)"/>
  <path d="M7.151,11.5a2.572,2.572,0,0,0-.051-.507l.816-.571a3.468,3.468,0,0,0-.749-1.264l-.915.4a2.673,2.673,0,0,0-.9-.509l-.1-.975a3.729,3.729,0,0,0-1.5,0l-.1.975a2.673,2.673,0,0,0-.9.509l-.915-.4a3.468,3.468,0,0,0-.749,1.264l.816.571a2.546,2.546,0,0,0,0,1.014l-.816.571a3.468,3.468,0,0,0,.749,1.264l.915-.4a2.673,2.673,0,0,0,.9.509l.1.975a3.729,3.729,0,0,0,1.5,0l.1-.975a2.673,2.673,0,0,0,.9-.509l.915.4a3.468,3.468,0,0,0,.749-1.264L7.1,12.007A2.572,2.572,0,0,0,7.151,11.5Z" fill="url(#f)"/>
  <ellipse cx="4.5" cy="11.5" rx="1.27" ry="1.239" fill="url(#g)"/>
</svg>
