<svg xmlns="http://www.w3.org/2000/svg" width="16" height="16">
  <path d="M7,12A4,4,0,0,1,3,8H1V4H3A4,4,0,0,1,7,0h6V2h3v8H13v2Z" fill="#252525"/>
  <path d="M12 7V1H7A3 3 0 004 4V5H2V7H4V8a3 3 0 003 3h5V7zM12.5 7H15V9H12.5zM12.5 3H15V5H12.5z" fill="#c4c4c4"/>
  <path d="M10,9H7A1,1,0,0,1,6,8V4A1,1,0,0,1,7,3h3Z" fill="#292929"/>
  <circle cx="4.5" cy="11.5" r="4.5" fill="#252525"/>
  <path d="M7.151,11.5a2.572,2.572,0,0,0-.051-.507l.816-.571a3.468,3.468,0,0,0-.749-1.264l-.915.4a2.673,2.673,0,0,0-.9-.509l-.1-.975a3.729,3.729,0,0,0-1.5,0l-.1.975a2.673,2.673,0,0,0-.9.509l-.915-.4a3.468,3.468,0,0,0-.749,1.264l.816.571a2.546,2.546,0,0,0,0,1.014l-.816.571a3.468,3.468,0,0,0,.749,1.264l.915-.4a2.673,2.673,0,0,0,.9.509l.1.975a3.729,3.729,0,0,0,1.5,0l.1-.975a2.673,2.673,0,0,0,.9-.509l.915.4a3.468,3.468,0,0,0,.749-1.264L7.1,12.007A2.572,2.572,0,0,0,7.151,11.5Z" fill="#e9a34d" fill-rule="evenodd"/>
  <ellipse cx="4.5" cy="11.5" rx="1.27" ry="1.239" fill="#292929"/>
</svg>
