<svg width="16" height="16" viewBox="0 0 16 16" xmlns="http://www.w3.org/2000/svg">
  <path fill="#EBECF0" d="M4.5 10.5h-3v-2h3"/>
  <path fill="none" stroke="#6C707E" stroke-linecap="round" stroke-linejoin="round" d="M4.5 10.5h-3v-2h3"/>
  <path fill="#EBECF0" d="M4.5 5.5h-3v-2h3"/>
  <path fill="none" stroke="#6C707E" stroke-linecap="round" stroke-linejoin="round" d="M4.5 5.5h-3v-2h3"/>
  <path fill="#EDF3FF" stroke="#3574F0" stroke-linejoin="round" d="M13.5 10.5v-2h-3v2h-2v3h2v2h3v-2h2v-3h-2Z"/>
  <path fill="#3574F0" d="M10 12.5a.5.5 0 1 0 0-1 .5.5 0 0 0 0 1Zm2 2a.5.5 0 1 0 0-1 .5.5 0 0 0 0 1Zm0-4a.5.5 0 1 0 0-1 .5.5 0 0 0 0 1Zm2 2a.5.5 0 1 0 0-1 .5.5 0 0 0 0 1Z"/>
  <path fill="#EBECF0" d="M7 10.5C7 9.673 7.673 9 8.5 9H9v-.5c0-.827.673-1.5 1.5-1.5h1V5.5a3 3 0 0 0-3-3h-4v9H7v-1ZM13.5 7c.276 0 .532.077.753.208l.247.01V5.999h-3v1l2 .001Z"/>
  <path fill="none" stroke="#6C707E" stroke-linecap="round" stroke-linejoin="round" d="M11.5 6.5v-1a3 3 0 0 0-3-3h-4v9h2m8-4.722V6h-3v.5"/>
</svg>
