<svg width="16" height="16" viewBox="0 0 16 16" xmlns="http://www.w3.org/2000/svg">
  <path fill="#43454A" d="M4.5 10.5h-3v-2h3"/>
  <path fill="none" stroke="#CED0D6" stroke-linecap="round" stroke-linejoin="round" d="M4.5 10.5h-3v-2h3"/>
  <path fill="#43454A" d="M4.5 5.5h-3v-2h3"/>
  <path fill="none" stroke="#CED0D6" stroke-linecap="round" stroke-linejoin="round" d="M4.5 5.5h-3v-2h3"/>
  <path fill="#25324D" stroke="#548AF7" stroke-linejoin="round" d="M14.489 12.152a.25.25 0 0 1 0-.304l.733-.958a.248.248 0 0 0 .019-.277l-.42-.726a.25.25 0 0 0-.248-.123l-1.197.157a.25.25 0 0 1-.263-.152l-.463-1.115a.25.25 0 0 0-.23-.154h-.838a.25.25 0 0 0-.232.154l-.461 1.115a.25.25 0 0 1-.263.152l-1.198-.157a.25.25 0 0 0-.249.123l-.419.726a.25.25 0 0 0 .018.277l.734.958a.25.25 0 0 1 0 .304l-.734.958a.248.248 0 0 0-.018.277l.42.726a.25.25 0 0 0 .248.123l1.197-.157a.25.25 0 0 1 .264.152l.462 1.115a.25.25 0 0 0 .23.154h.838a.25.25 0 0 0 .231-.154l.463-1.115a.25.25 0 0 1 .263-.152l1.197.157a.25.25 0 0 0 .248-.123l.42-.726a.25.25 0 0 0-.018-.277l-.735-.958ZM12 12.5a.5.5 0 1 1 0-1 .5.5 0 0 1 0 1Z"/>
  <path fill="#43454A" d="m7.465 9.856.413-.719c.31-.539.893-.876 1.521-.876h.061l.151.013.259.034.095-.229a1.741 1.741 0 0 1 1.536-1.068V5.499a3 3 0 0 0-3-3h-4v9H7.42a1.724 1.724 0 0 1 .046-1.644l-.001.001Z"/>
  <path fill="#43454A" d="M11.581 7h.838c.678 0 1.279.394 1.57 1h.511V6h-3v1.012c.028-.001.053-.012.081-.012Z"/>
  <path fill="none" stroke="#CED0D6" stroke-linecap="round" stroke-linejoin="round" d="M11.5 6.511V5.5a3 3 0 0 0-3-3h-4v9h2.367M14.5 7.765V6h-3v.511"/>
</svg>
