<svg xmlns="http://www.w3.org/2000/svg" width="16" height="16">
  <path d="M7.151,11.5a2.572,2.572,0,0,0-.051-.507l.816-.571a3.468,3.468,0,0,0-.749-1.264l-.915.4a2.673,2.673,0,0,0-.9-.509l-.1-.975a3.729,3.729,0,0,0-1.5,0l-.1.975a2.673,2.673,0,0,0-.9.509l-.915-.4a3.468,3.468,0,0,0-.749,1.264l.816.571a2.546,2.546,0,0,0,0,1.014l-.816.571a3.468,3.468,0,0,0,.749,1.264l.915-.4a2.673,2.673,0,0,0,.9.509l.1.975a3.729,3.729,0,0,0,1.5,0l.1-.975a2.673,2.673,0,0,0,.9-.509l.915.4a3.468,3.468,0,0,0,.749-1.264L7.1,12.007A2.572,2.572,0,0,0,7.151,11.5ZM4.5,12.739A1.239,1.239,0,1,1,5.77,11.5,1.255,1.255,0,0,1,4.5,12.739Z" fill="#f4af3d" fill-rule="evenodd"/>
  <path d="M12 9v2H8.95a4.478 4.478 0 00-.71-2H10V3H7A1 1 0 006 4V7.276A4.445 4.445 0 004.5 7H2V5H4V4A3 3 0 017 1h5V9zM12.5 7H15V9H12.5zM12.5 3H15V5H12.5z" fill="#9aa7b0" opacity=".8"/>
</svg>
