<svg xmlns="http://www.w3.org/2000/svg" width="16" height="16">
  <path d="M7,12A4,4,0,0,1,3,8H1V4H3A4,4,0,0,1,7,0h6V2h3v8H13v2Z" fill="#252525"/>
  <path d="M12 7V1H7A3 3 0 004 4V5H2V7H4V8a3 3 0 003 3h5V7zM12.5 7H15V9H12.5zM12.5 3H15V5H12.5z" fill="#c4c4c4"/>
  <path d="M10,9H7A1,1,0,0,1,6,8V4A1,1,0,0,1,7,3h3Z" fill="#292929"/>
  <circle cx="4.5" cy="11.5" r="4.5" fill="#252525"/>
  <path fill="#7cbeff" fill-rule="evenodd" d="M8 10L6 10 6 8 3 8 3 10 1 10 1 13 3 13 3 15 6 15 6 13 8 13 8 10z"/>
  <circle cx="4.5" cy="9.5" r=".5" fill="#292929"/>
  <circle cx="2.5" cy="11.5" r=".5" fill="#292929"/>
  <circle cx="6.5" cy="11.5" r=".5" fill="#292929"/>
  <circle cx="4.5" cy="13.5" r=".5" fill="#292929"/>
</svg>
