<svg width="16" height="16" viewBox="0 0 16 16" xmlns="http://www.w3.org/2000/svg">
  <path fill="#f4af3d" d="M7.151 11.5c0-.17-.017-.34-.051-.507l.816-.571a3.476 3.476 0 0 0-.749-1.264l-.915.4c-.264-.227-.57-.4-.9-.509l-.1-.975a3.715 3.715 0 0 0-1.5 0l-.1.975c-.33.109-.636.282-.9.509l-.915-.4a3.476 3.476 0 0 0-.749 1.264l.816.571a2.546 2.546 0 0 0 0 1.014l-.816.571c.157.47.412.901.749 1.264l.915-.4c.264.227.57.4.9.509l.1.975a3.715 3.715 0 0 0 1.5 0l.1-.975c.33-.109.636-.282.9-.509l.915.4c.337-.363.592-.794.749-1.264l-.816-.571c.034-.167.051-.337.051-.507ZM4.5 12.739a1.24 1.24 0 1 1 1.27-1.24 1.255 1.255 0 0 1-1.27 1.239Z"/>
  <path fill="#9aa7b0" d="M12 9v2H8.95a4.471 4.471 0 0 0-.71-2H10V3H7a1 1 0 0 0-1 1v3.276A4.44 4.44 0 0 0 4.5 7H2V5h2V4a3 3 0 0 1 3-3h5v8Zm.5-2H15v2h-2.5V7Zm0-4H15v2h-2.5V3Z"/>
</svg>
