<svg width="16" height="16" viewBox="0 0 16 16" xmlns="http://www.w3.org/2000/svg">
    <path fill="#9aa7b0" d="m10.133 9.728-.376.267H7.11a6.045 6.045 0 0 1-1.6 2.37l1.545.076-1.235 1.332L2 13.637l1.51-1.387.819.049c2.076-1.729 1.93-6.972 5.057-8.965-5.214-.742-6.275 1.377-5.033 3.726L2.75 8.628C1.376 4.985 2.986 2 9.225 2c1.814 0 1.062.107 3.275.107-1.224 1.934-.885 8.452-.075 9.904.334.31 1.016-.026 1.424-.23.191.473.289.792-.282 1.061-.526.261.002.019-2.576 1.163a18.044 18.044 0 0 1-.858-4.277Zm-.058-1.034c-.108-1.444-.184-2.991.081-4.853-1.833 1.792-2.002 3.467-2.551 4.853h2.47Z"/>
</svg>
