<svg width="16" height="16" viewBox="0 0 16 16" xmlns="http://www.w3.org/2000/svg">
  <path fill="#EBECF0" d="M13.803 9.263C13.687 9.029 10 1.5 10 1.5L7.465 6.676C8.97 7.538 10 9.143 10 11c0 .345-.045.678-.118 1-.025.111-.054.22-.085.328-.015.052.118.172.203.172 2.209 0 4-1.119 4-2.5 0-.258-.081-.502-.197-.737Z"/>
  <path fill="#6C707E" d="m10.415 4.619.73 6.239a3.193 3.193 0 0 0 1.01-.438l-1.74-5.801Z"/>
  <path fill="#EBECF0" stroke="#6C707E" stroke-linecap="round" stroke-linejoin="round" d="M8.5 11a3.5 3.5 0 1 1-7 0 3.5 3.5 0 0 1 7 0Z"/>
  <path fill="#6C707E" d="M6.25 9.5c0 .276-.56.5-1.25.5s-1.25-.224-1.25-.5S4.31 9 5 9s1.25.224 1.25.5Z"/>
  <path fill="none" stroke="#6C707E" stroke-linecap="round" stroke-linejoin="round" d="M10.292 12.482C12.363 12.387 14 11.319 14 10c0-.258-.08-.502-.197-.737L10 1.5S8.76 4.035 7.693 6.21"/>
</svg>
