<svg width="16" height="16" viewBox="0 0 16 16" xmlns="http://www.w3.org/2000/svg">
    <path fill="#b99bf8" d="M13.803 8.763C13.687 8.529 10 1 10 1L7.271 6.571C8.883 7.402 10 9.065 10 11c0 .34-.035.672-.101.994.034 0 .066.006.101.006 2.209 0 4-1.119 4-2.5 0-.258-.081-.502-.197-.737Zm-2.599 2.104-.784-7.604 1.884 7.157a3.65 3.65 0 0 1-1.1.447Z"/>
    <path fill="#62b543" d="M5 7a4 4 0 1 0 0 8 4 4 0 0 0 0-8Zm0 2.75c-.828 0-1.5-.336-1.5-.75s.672-.75 1.5-.75 1.5.336 1.5.75-.672.75-1.5.75Z"/>
</svg>
