<svg width="16" height="16" viewBox="0 0 16 16" xmlns="http://www.w3.org/2000/svg">
  <path fill="#C77D55" d="M3 10.36h1.17c.53 0 .9-.36.9-.9V4.5h1.22v5.04c0 1.15-.8 1.96-1.99 1.96H2.99v-1.14zm4.59-.9h1.25c0 .71.61 1.1 1.34 1.1.69 0 1.28-.34 1.28-1.01 0-.5-.33-.89-.83-.98-1.09-.18-1.59-.2-2.08-.56-.51-.37-.78-.94-.78-1.58 0-1.26 1.06-2.05 2.38-2.05 1.32 0 2.41.74 2.42 2.02h-1.24c0-.62-.53-.96-1.16-.96-.63 0-1.15.33-1.15.93 0 .43.3.78.76.86.98.17 1.56.18 2.09.57.53.39.85 1 .85 1.68 0 1.3-1.13 2.13-2.55 2.13s-2.56-.8-2.57-2.17l-.01.02"/>
</svg>
