<!-- Copyright 2000-2024 JetBrains s.r.o. and contributors. Use of this source code is governed by the Apache 2.0 license. -->
<svg width="16" height="16" viewBox="0 0 16 16" fill="none" xmlns="http://www.w3.org/2000/svg">
<path d="M2.49613 11.7894L3.57893 12.4211L12.421 3.57895L8.50387 1.29394C8.19251 1.11231 7.80749 1.11231 7.49613 1.29394L2.49613 4.2106C2.18891 4.38981 2 4.71871 2 5.07438V10.9256C2 11.2813 2.18891 11.6102 2.49613 11.7894Z" fill="#43454A"/>
<path d="M7.49613 14.7061L4.91871 13.2026L8.5 9.6213V11H11V13.25L8.50387 14.7061C8.19251 14.8877 7.80749 14.8877 7.49613 14.7061Z" fill="#43454A"/>
<path d="M14 8V5.07438C14 4.81711 13.9012 4.57385 13.7302 4.39111L10.1213 8H14Z" fill="#43454A"/>
<path fill-rule="evenodd" clip-rule="evenodd" d="M11.9745 3.31844L14.1464 1.14645C14.3417 0.951184 14.6583 0.951184 14.8536 1.14645C15.0488 1.34171 15.0488 1.65829 14.8536 1.85355L1.85355 14.8536C1.65829 15.0488 1.34171 15.0488 1.14645 14.8536C0.951184 14.6583 0.951184 14.3417 1.14645 14.1464L3.13235 12.1605L2.49613 11.7894C2.18891 11.6102 2 11.2813 2 10.9256V5.07438C2 4.71871 2.18891 4.38981 2.49613 4.2106L7.49613 1.29394C7.80749 1.11231 8.19251 1.11231 8.50387 1.29394L11.9745 3.31844ZM3.86353 11.4294L3 10.9256L3 5.07438L8 2.15771L11.2433 4.04962L3.86353 11.4294Z" fill="#CED0D6"/>
<path d="M11 13.25V12.0923L8 13.8423L5.64989 12.4714L4.91871 13.2026L7.49613 14.7061C7.80749 14.8877 8.19251 14.8877 8.50387 14.7061L11 13.25Z" fill="#CED0D6"/>
<path d="M14 8H13V5.1213L13.7302 4.39111C13.9012 4.57385 14 4.81711 14 5.07438V8Z" fill="#CED0D6"/>
<path d="M9.5 10H12V16H13V10H15.5V9H9.5V10Z" fill="#CED0D6"/>
</svg>
