<!-- Copyright 2000-2024 JetBrains s.r.o. and contributors. Use of this source code is governed by the Apache 2.0 license. -->
<svg width="16" height="16" viewBox="0 0 16 16" fill="none" xmlns="http://www.w3.org/2000/svg">
<path d="M7.49613 14.7061L2.49613 11.7894C2.18891 11.6102 2 11.2813 2 10.9256V5.07438C2 4.71871 2.18891 4.38981 2.49613 4.2106L7.49613 1.29394C7.80749 1.11231 8.19251 1.11231 8.50387 1.29394L13.5039 4.2106C13.8111 4.38981 14 4.71871 14 5.07438V8H8.5V11H11V13.25L8.50387 14.7061C8.19251 14.8877 7.80749 14.8877 7.49613 14.7061Z" fill="#43454A"/>
<path d="M11 13.25L8.50387 14.7061C8.19251 14.8877 7.80749 14.8877 7.49613 14.7061L2.49613 11.7894C2.18891 11.6102 2 11.2813 2 10.9256V5.07438C2 4.71871 2.18891 4.38981 2.49613 4.2106L7.49613 1.29394C7.80749 1.11231 8.19251 1.11231 8.50387 1.29394L13.5039 4.2106C13.8111 4.38981 14 4.71871 14 5.07438V8H13V5.07438L8 2.15771L3 5.07438L3 10.9256L8 13.8423L11 12.0923V13.25Z" fill="#CED0D6"/>
<path fill-rule="evenodd" clip-rule="evenodd" d="M12 10H9.5V9H15.5V10H13V16H12V10Z" fill="#CED0D6"/>
</svg>
