<svg width="256" height="256" viewBox="0 0 256 256" fill="none" xmlns="http://www.w3.org/2000/svg">
<path d="M175.4 77.5L160.4 12H77.1L12 111.5L30.8 157.3L12 199L123.3 218.8L193.6 156.3L175.4 77.5Z" fill="url(#paint0_linear)"/>
<path d="M34.7 114.8L12 111.5L30.8 157.3L12 199L56.6 162.5L34.7 114.8Z" fill="url(#paint1_linear)"/>
<path d="M34.7 114.8L12 111.5L30.8 157.3L56.6 162.5L34.7 114.8Z" fill="url(#paint2_linear)"/>
<path d="M34.7 114.6L160.4 12H77.1L12 111.5L34.7 114.6Z" fill="url(#paint3_linear)"/>
<path d="M34.7 114.6L160.4 12H77.1L12 111.5L34.7 114.6Z" fill="url(#paint4_linear)"/>
<path d="M34.7 114.6L93.6 66.5L77.1 12L12 111.5L34.7 114.6Z" fill="url(#paint5_linear)"/>
<path d="M34.7 114.6L93.6 66.5L77.1 12L12 111.5L34.7 114.6Z" fill="url(#paint6_linear)"/>
<path d="M216.4 101.7L244 163.1L196.7 244L167.6 173.2L216.4 101.7Z" fill="url(#paint7_linear)"/>
<path d="M191.8 138.9L244 163.1L196.7 244L167.6 173.2L191.8 138.9Z" fill="url(#paint8_linear)"/>
<path d="M167.5 173.2L196.6 244L123.3 218.8L167.5 173.2Z" fill="url(#paint9_linear)"/>
<path d="M244 61.3L146.7 84.3001L12 199L98.9 244L167.5 173.2L244 61.3Z" fill="url(#paint10_linear)"/>
<path d="M69.7 201.7L12 199L98.9 244L124 218.1L69.7 201.7Z" fill="url(#paint11_linear)"/>
<path d="M69.7 201.7L12 199L55.8 161.4L69.7 201.7Z" fill="url(#paint12_linear)"/>
<path d="M244 61.3L146.7 84.3001L215.3 103.3L244 61.3Z" fill="url(#paint13_linear)"/>
<path d="M244 61.3L146.7 84.3001L211.1 102.1L244 61.3Z" fill="url(#paint14_linear)"/>
<path d="M190 140.4L175.4 77.5L146.7 84.3L107.5 117.7L190 140.4Z" fill="url(#paint15_linear)"/>
<path d="M179.1 93.3L175.4 77.5L146.7 84.3L179.1 93.3Z" fill="url(#paint16_linear)"/>
<path d="M56 161.7L167.5 173.2L216.4 101.7L180.5 106.3L56 161.7Z" fill="url(#paint17_linear)"/>
<path d="M244 61.3L98.9 244L167.5 173.2L244 61.3Z" fill="url(#paint18_linear)"/>
<path d="M244 61.3L98.9 244L167.5 173.2L244 61.3Z" fill="url(#paint19_linear)"/>
<path d="M200 56H56V200H200V56Z" fill="url(#paint20_linear)"/>
<g opacity="0.3">
<g opacity="0.3">
<path opacity="0.3" d="M146.6 84.6L175.1 77.9L170.1 56H107.3L56 97.9V161.7L146.6 84.6Z" fill="url(#paint21_linear)"/>
</g>
<path opacity="0.3" d="M56 97.9L107.3 56H56V97.9Z" fill="url(#paint22_linear)"/>
<g opacity="0.3">
<path opacity="0.3" d="M172.2 185L178.4 200L172.2 185Z" fill="url(#paint23_linear)"/>
<path opacity="0.3" d="M191.4 138.8L200 142.8V125L167.3 172.9L191.4 138.8Z" fill="url(#paint24_linear)"/>
</g>
<path opacity="0.3" d="M200 142.8L191.1 137.6L167.3 172.9L178.4 200H200V142.8Z" fill="url(#paint25_linear)"/>
<path opacity="0.3" d="M167.3 172.9L141 200H178.4L167.3 172.9Z" fill="url(#paint26_linear)"/>
<path opacity="0.3" d="M200 72L146.6 84.6L56 161.7V200H141L167.3 172.9L200 125V72Z" fill="url(#paint27_linear)"/>
<path opacity="0.3" d="M200 99.4V72L146.6 84.6L200 99.4Z" fill="#08FF6C"/>
</g>
<path d="M127.9 172.9H73.8V181.9H127.9V172.9Z" fill="white"/>
<path d="M128 172.8H73.8V181.8H128V172.8Z" fill="white"/>
<path d="M71 101.05C71 85.4573 83.1071 72.7998 99.6169 72.7998C109.339 72.7998 115.393 75.368 121.08 80.3209L113.558 89.493C109.339 86.0076 105.67 83.9897 99.25 83.9897C90.4448 83.9897 83.6575 91.6943 83.6575 100.866V101.05C83.6575 110.956 90.4448 118.293 100.167 118.293C104.57 118.293 108.422 117.193 111.357 114.991V107.287H99.25V96.6472H122.914V120.311C117.227 125.081 109.523 128.933 99.6169 128.933C82.7403 128.933 71 117.193 71 101.05Z" fill="white"/>
<path d="M128.05 101.05C128.05 85.4573 140.341 72.7998 157.034 72.7998C173.911 72.7998 185.834 85.2738 185.834 100.866V101.05C185.834 116.459 173.544 129.3 156.851 129.3C139.974 128.933 128.05 116.459 128.05 101.05ZM173.36 101.05C173.36 91.5108 166.573 83.8063 156.851 83.8063C147.128 83.8063 140.524 91.5108 140.524 100.683V100.866C140.524 110.222 147.312 117.926 157.034 117.926C166.573 117.926 173.36 110.405 173.36 101.05Z" fill="white"/>
<defs>
<linearGradient id="paint0_linear" x1="116.496" y1="105.59" x2="171.569" y2="42.9338" gradientUnits="userSpaceOnUse">
<stop  offset="0" stop-color="#087CFA"/>
<stop offset="0.0225255" stop-color="#0D7BFA"/>
<stop offset="0.3726" stop-color="#5566F9"/>
<stop offset="0.6634" stop-color="#8A57F8"/>
<stop offset="0.8808" stop-color="#AB4EF7"/>
<stop offset="1" stop-color="#B74AF7"/>
</linearGradient>
<linearGradient id="paint1_linear" x1="11.922" y1="155.253" x2="72.494" y2="152.619" gradientUnits="userSpaceOnUse">
<stop offset="0.1204" stop-color="#2D58F9"/>
<stop offset="0.9461" stop-color="#B74AF7"/>
</linearGradient>
<linearGradient id="paint2_linear" x1="23.096" y1="105.668" x2="45.2491" y2="167.596" gradientUnits="userSpaceOnUse">
<stop offset="0.0852751" stop-color="#086AFA"/>
<stop offset="0.4762" stop-color="#087CFA"/>
<stop offset="0.6849" stop-color="#466AF9"/>
<stop offset="0.8976" stop-color="#8059F8"/>
<stop offset="1" stop-color="#9653F8"/>
</linearGradient>
<linearGradient id="paint3_linear" x1="20.1536" y1="92.6179" x2="147.552" y2="-11.5726" gradientUnits="userSpaceOnUse">
<stop  offset="0" stop-color="#087CFA"/>
<stop offset="0.0188132" stop-color="#0D7BFA"/>
<stop offset="0.3112" stop-color="#5566F9"/>
<stop offset="0.5541" stop-color="#8A57F8"/>
<stop offset="0.7356" stop-color="#AB4EF7"/>
<stop offset="0.8352" stop-color="#B74AF7"/>
<stop offset="0.9797" stop-color="#DB5CFF"/>
</linearGradient>
<linearGradient id="paint4_linear" x1="78.7483" y1="55.902" x2="104.555" y2="76.1788" gradientUnits="userSpaceOnUse">
<stop offset="0.5234" stop-color="#B74AF7" stop-opacity="0"/>
<stop offset="0.9263" stop-color="#D66EFF"/>
</linearGradient>
<linearGradient id="paint5_linear" x1="15.0033" y1="96.7903" x2="119.309" y2="11.4859" gradientUnits="userSpaceOnUse">
<stop  offset="0" stop-color="#087CFA"/>
<stop offset="0.0163189" stop-color="#0D7BFA"/>
<stop offset="0.2699" stop-color="#5566F9"/>
<stop offset="0.4806" stop-color="#8A57F8"/>
<stop offset="0.6381" stop-color="#AB4EF7"/>
<stop offset="0.7245" stop-color="#B74AF7"/>
<stop offset="0.9526" stop-color="#DB5CFF"/>
</linearGradient>
<linearGradient id="paint6_linear" x1="23.0004" y1="125.857" x2="42.7791" y2="98.3867" gradientUnits="userSpaceOnUse">
<stop  offset="0" stop-color="#8F99FF"/>
<stop offset="1" stop-color="#B74AF7" stop-opacity="0"/>
</linearGradient>
<linearGradient id="paint7_linear" x1="240.45" y1="144.155" x2="149.835" y2="220.829" gradientUnits="userSpaceOnUse">
<stop  offset="0" stop-color="#087CFA"/>
<stop offset="0.0225255" stop-color="#0D7BFA"/>
<stop offset="0.3726" stop-color="#5566F9"/>
<stop offset="0.6634" stop-color="#8A57F8"/>
<stop offset="0.8808" stop-color="#AB4EF7"/>
<stop offset="1" stop-color="#B74AF7"/>
</linearGradient>
<linearGradient id="paint8_linear" x1="237.757" y1="184.867" x2="155.165" y2="197.359" gradientUnits="userSpaceOnUse">
<stop offset="0.003297" stop-color="#2D58F9"/>
<stop offset="0.8129" stop-color="#B74AF7"/>
</linearGradient>
<linearGradient id="paint9_linear" x1="193.116" y1="198.767" x2="160.757" y2="227.72" gradientUnits="userSpaceOnUse">
<stop  offset="0" stop-color="#C386F7"/>
<stop offset="0.8129" stop-color="#B74AF7"/>
</linearGradient>
<linearGradient id="paint10_linear" x1="44.2308" y1="214.669" x2="211.585" y2="107.128" gradientUnits="userSpaceOnUse">
<stop  offset="0" stop-color="#087CFA"/>
<stop offset="0.1021" stop-color="#1598D3"/>
<stop offset="0.2248" stop-color="#23B6AA"/>
<stop offset="0.3455" stop-color="#2DCC8B"/>
<stop offset="0.4619" stop-color="#35DD74"/>
<stop offset="0.5723" stop-color="#39E767"/>
<stop offset="0.6701" stop-color="#3BEA62"/>
</linearGradient>
<linearGradient id="paint11_linear" x1="53.6946" y1="223.224" x2="131.693" y2="146.273" gradientUnits="userSpaceOnUse">
<stop  offset="0" stop-color="#087CFA"/>
<stop offset="0.1021" stop-color="#1598D3"/>
<stop offset="0.2248" stop-color="#23B6AA"/>
<stop offset="0.3455" stop-color="#2DCC8B"/>
<stop offset="0.4619" stop-color="#35DD74"/>
<stop offset="0.5723" stop-color="#39E767"/>
<stop offset="0.6701" stop-color="#3BEA62"/>
</linearGradient>
<linearGradient id="paint12_linear" x1="34.7428" y1="206.372" x2="102.536" y2="139.489" gradientUnits="userSpaceOnUse">
<stop offset="0.1708" stop-color="#087CFA"/>
<stop offset="0.4017" stop-color="#19A1C8"/>
<stop offset="0.6796" stop-color="#2BC891"/>
<stop offset="0.8874" stop-color="#37E16F"/>
<stop offset="1" stop-color="#3BEA62"/>
</linearGradient>
<linearGradient id="paint13_linear" x1="163.836" y1="109.845" x2="231.604" y2="46.5951" gradientUnits="userSpaceOnUse">
<stop offset="0.4926" stop-color="#00FA45"/>
<stop offset="0.8682" stop-color="#B5FF91"/>
</linearGradient>
<linearGradient id="paint14_linear" x1="182.257" y1="65.2655" x2="222.418" y2="88.3583" gradientUnits="userSpaceOnUse">
<stop offset="0.175" stop-color="#00FA45" stop-opacity="0"/>
<stop offset="0.8682" stop-color="#A0FF5E"/>
</linearGradient>
<linearGradient id="paint15_linear" x1="193.156" y1="81.4792" x2="146.748" y2="131.18" gradientUnits="userSpaceOnUse">
<stop  offset="0" stop-color="#7165DF"/>
<stop offset="0.0682475" stop-color="#6475D9"/>
<stop offset="0.2346" stop-color="#4897CD"/>
<stop offset="0.3197" stop-color="#44B2AA"/>
<stop offset="0.4142" stop-color="#40CA8B"/>
<stop offset="0.506" stop-color="#3DDC74"/>
<stop offset="0.593" stop-color="#3CE667"/>
<stop offset="0.6701" stop-color="#3BEA62"/>
</linearGradient>
<linearGradient id="paint16_linear" x1="176.409" y1="74.3443" x2="161.356" y2="90.4657" gradientUnits="userSpaceOnUse">
<stop offset="0.3832" stop-color="#59C1DB"/>
<stop offset="0.4687" stop-color="#4FCEB4"/>
<stop offset="0.5786" stop-color="#44DD88"/>
<stop offset="0.664" stop-color="#3EE76C"/>
<stop offset="0.7139" stop-color="#3BEA62"/>
</linearGradient>
<linearGradient id="paint17_linear" x1="101.212" y1="120.146" x2="250.667" y2="169.525" gradientUnits="userSpaceOnUse">
<stop  offset="0" stop-color="#1CA7BE"/>
<stop offset="0.3751" stop-color="#2FCF87"/>
<stop offset="0.6552" stop-color="#3BEA62"/>
<stop offset="0.8574" stop-color="#5FFF58"/>
</linearGradient>
<linearGradient id="paint18_linear" x1="94.6131" y1="156.822" x2="203.248" y2="150.896" gradientUnits="userSpaceOnUse">
<stop offset="0.2959" stop-color="#1CA7BE"/>
<stop offset="0.3429" stop-color="#23B5AA"/>
<stop offset="0.4312" stop-color="#2DCC8B"/>
<stop offset="0.5168" stop-color="#35DD74"/>
<stop offset="0.5981" stop-color="#39E767"/>
<stop offset="0.6701" stop-color="#3BEA62"/>
<stop offset="1" stop-color="#7EEF5A"/>
</linearGradient>
<linearGradient id="paint19_linear" x1="215.4" y1="34.9084" x2="174.252" y2="145.127" gradientUnits="userSpaceOnUse">
<stop offset="0.124" stop-color="#1CA563"/>
<stop offset="0.3268" stop-color="#29C163" stop-opacity="0.7473"/>
<stop offset="0.5412" stop-color="#33D862" stop-opacity="0.48"/>
<stop offset="0.7453" stop-color="#39E562" stop-opacity="0.2256"/>
<stop offset="0.9263" stop-color="#3BEA62" stop-opacity="0"/>
</linearGradient>
<linearGradient id="paint20_linear" x1="56.5627" y1="56.5626" x2="205.456" y2="205.456" gradientUnits="userSpaceOnUse">
<stop  offset="0" stop-color="#006396"/>
<stop offset="0.0339724" stop-color="#005682"/>
<stop offset="0.121" stop-color="#003754"/>
<stop offset="0.2043" stop-color="#001F2F"/>
<stop offset="0.2818" stop-color="#000E15"/>
<stop offset="0.3512" stop-color="#000406"/>
<stop offset="0.4058"/>
<stop offset="0.9138"/>
</linearGradient>
<linearGradient id="paint21_linear" x1="112.595" y1="91.2489" x2="148.34" y2="50.5824" gradientUnits="userSpaceOnUse">
<stop  offset="0" stop-color="#083268"/>
<stop offset="0.0225255" stop-color="#0D336C"/>
<stop offset="0.3726" stop-color="#553DA7"/>
<stop offset="0.6634" stop-color="#8A44D2"/>
<stop offset="0.8808" stop-color="#AB48ED"/>
<stop offset="1" stop-color="#B74AF7"/>
</linearGradient>
<linearGradient id="paint22_linear" x1="69.3803" y1="67.3059" x2="85.2581" y2="79.7813" gradientUnits="userSpaceOnUse">
<stop  offset="0" stop-color="#087CFA"/>
<stop offset="0.0225255" stop-color="#0D7BFA"/>
<stop offset="0.3726" stop-color="#5566F9"/>
<stop offset="0.6634" stop-color="#8A57F8"/>
<stop offset="0.8808" stop-color="#AB4EF7"/>
<stop offset="1" stop-color="#B74AF7"/>
</linearGradient>
<linearGradient id="paint23_linear" x1="176.898" y1="191.192" x2="172.696" y2="194.747" gradientUnits="userSpaceOnUse">
<stop  offset="0" stop-color="#087CFA"/>
<stop offset="0.0225255" stop-color="#0D7BFA"/>
<stop offset="0.3726" stop-color="#5566F9"/>
<stop offset="0.6634" stop-color="#8A57F8"/>
<stop offset="0.8808" stop-color="#AB4EF7"/>
<stop offset="1" stop-color="#B74AF7"/>
</linearGradient>
<linearGradient id="paint24_linear" x1="201.391" y1="133.929" x2="153.959" y2="174.064" gradientUnits="userSpaceOnUse">
<stop  offset="0" stop-color="#087CFA"/>
<stop offset="0.0225255" stop-color="#0D7BFA"/>
<stop offset="0.3726" stop-color="#5566F9"/>
<stop offset="0.6634" stop-color="#8A57F8"/>
<stop offset="0.8808" stop-color="#AB4EF7"/>
<stop offset="1" stop-color="#B74AF7"/>
</linearGradient>
<linearGradient id="paint25_linear" x1="199.284" y1="168.23" x2="159.793" y2="174.203" gradientUnits="userSpaceOnUse">
<stop offset="0.003297" stop-color="#103964"/>
<stop offset="0.8129" stop-color="#B74AF7"/>
</linearGradient>
<linearGradient id="paint26_linear" x1="177.368" y1="182.407" x2="158.14" y2="199.611" gradientUnits="userSpaceOnUse">
<stop  offset="0" stop-color="#3A3531"/>
<stop offset="0.8129" stop-color="#B74AF7"/>
</linearGradient>
<linearGradient id="paint27_linear" x1="119.628" y1="187.435" x2="142.758" y2="65.6608" gradientUnits="userSpaceOnUse">
<stop  offset="0" stop-color="#235B5E"/>
<stop offset="0.1291" stop-color="#24635E"/>
<stop offset="0.3263" stop-color="#28785F"/>
<stop offset="0.5673" stop-color="#2E9B60"/>
<stop offset="0.84" stop-color="#36CB61"/>
<stop offset="1" stop-color="#3BEA62"/>
</linearGradient>
</defs>
</svg>
