<svg xmlns="http://www.w3.org/2000/svg" width="64" height="64" fill="none" viewBox="0 0 64 64">
  <defs>
    <linearGradient id="a" x1="13.938" x2="27.221" y1="14.59" y2="45.351" gradientUnits="userSpaceOnUse">
      <stop offset=".068" stop-color="#FF4EFD"/>
      <stop offset=".964" stop-color="#484DFC"/>
    </linearGradient>
    <linearGradient id="b" x1="3.023" x2="18.929" y1="16.146" y2="54.218" gradientUnits="userSpaceOnUse">
      <stop  offset="0" stop-color="#DA38FF"/>
      <stop offset=".223" stop-color="#DA38FF"/>
      <stop offset=".828" stop-color="#087CFA"/>
    </linearGradient>
    <linearGradient id="c" x1="32.93" x2="23.93" y1="38.127" y2="11.543" gradientUnits="userSpaceOnUse">
      <stop offset=".281" stop-color="#6B57FF"/>
      <stop offset=".875" stop-color="#9E3DFF"/>
    </linearGradient>
    <linearGradient id="d" x1="7.781" x2="7.781" y1="19.431" y2="29.853" gradientUnits="userSpaceOnUse">
      <stop  offset="0" stop-color="#E19AFB"/>
      <stop offset=".688" stop-color="#EB73FF" stop-opacity=".69"/>
    </linearGradient>
    <linearGradient id="e" x1="48.103" x2="1.298" y1="21.719" y2="48.617" gradientUnits="userSpaceOnUse">
      <stop offset=".044" stop-color="#3BEA62"/>
      <stop offset=".98" stop-color="#009AE5"/>
    </linearGradient>
    <linearGradient id="f" x1="55.983" x2="21.96" y1="28.358" y2="47.91" gradientUnits="userSpaceOnUse">
      <stop offset=".01" stop-color="#3BEA62"/>
      <stop offset=".3" stop-color="#2BD486"/>
      <stop offset=".76" stop-color="#009AE5"/>
    </linearGradient>
    <linearGradient id="g" x1="37.212" x2="49.25" y1="-1.693" y2="25.174" gradientUnits="userSpaceOnUse">
      <stop offset=".193" stop-color="#3BEA62"/>
      <stop offset=".333" stop-color="#39E766"/>
      <stop offset=".474" stop-color="#33E072"/>
      <stop offset=".616" stop-color="#2AD386"/>
      <stop offset=".759" stop-color="#1DC2A2"/>
      <stop offset=".9" stop-color="#0DACC6"/>
      <stop offset="1" stop-color="#009AE5"/>
    </linearGradient>
    <linearGradient id="h" x1="26.36" x2="45.028" y1="9.092" y2="13.104" gradientUnits="userSpaceOnUse">
      <stop offset=".097" stop-color="#A8FF68"/>
      <stop offset=".501" stop-color="#2BD486" stop-opacity="0"/>
    </linearGradient>
    <linearGradient id="i" x1="65.031" x2="49.678" y1="16.542" y2="12.704" gradientUnits="userSpaceOnUse">
      <stop offset=".463" stop-color="#3BEA62"/>
      <stop offset=".98" stop-color="#009AE5"/>
    </linearGradient>
    <linearGradient id="j" x1="31.444" x2="24.194" y1="64.114" y2="23.851" gradientUnits="userSpaceOnUse">
      <stop offset=".044" stop-color="#3BEA62"/>
      <stop offset=".98" stop-color="#009AE5"/>
    </linearGradient>
    <linearGradient id="k" x1="17.445" x2="28.429" y1="22.71" y2="48.147" gradientUnits="userSpaceOnUse">
      <stop  offset="0" stop-color="#C7489F"/>
      <stop offset=".072" stop-color="#C34DA5" stop-opacity=".914"/>
      <stop offset=".216" stop-color="#B95CB4" stop-opacity=".69"/>
      <stop offset=".415" stop-color="#A974CD" stop-opacity=".332"/>
      <stop offset=".585" stop-color="#9B8BE5" stop-opacity="0"/>
    </linearGradient>
    <linearGradient id="l" x1="39.5" x2="8.461" y1="15.014" y2="23.17" gradientUnits="userSpaceOnUse">
      <stop offset=".044" stop-color="#3BEA62"/>
      <stop offset=".98" stop-color="#009AE5"/>
    </linearGradient>
    <linearGradient id="m" x1="20.922" x2="15.61" y1="56.021" y2="31.469" gradientUnits="userSpaceOnUse">
      <stop offset=".373" stop-color="#3BEA62" stop-opacity="0"/>
      <stop offset="1" stop-color="#C931FF"/>
    </linearGradient>
    <linearGradient id="n" x1="15.444" x2="29.515" y1="28.495" y2="26.561" gradientUnits="userSpaceOnUse">
      <stop  offset="0" stop-color="#26B2C4" stop-opacity="0"/>
      <stop offset=".287" stop-color="#43C3AA" stop-opacity=".285"/>
      <stop offset=".953" stop-color="#8CF06A" stop-opacity=".994"/>
      <stop offset=".958" stop-color="#8DF16A"/>
    </linearGradient>
    <linearGradient id="o" x1="51.572" x2="28.278" y1="35.523" y2="64.216" gradientUnits="userSpaceOnUse">
      <stop  offset="0" stop-color="#C7489F"/>
      <stop offset=".072" stop-color="#C34DA5" stop-opacity=".914"/>
      <stop offset=".216" stop-color="#B95CB4" stop-opacity=".69"/>
      <stop offset=".415" stop-color="#A974CD" stop-opacity=".332"/>
      <stop offset=".585" stop-color="#9B8BE5" stop-opacity="0"/>
    </linearGradient>
    <linearGradient id="p" x1="45.443" x2="42.416" y1="41.03" y2="44.758" gradientUnits="userSpaceOnUse">
      <stop offset=".306" stop-color="#EB73FF" stop-opacity="0"/>
      <stop offset="1" stop-color="#BD31FF"/>
    </linearGradient>
    <linearGradient id="q" x1="9.367" x2="29.531" y1="35.404" y2="61.006" gradientUnits="userSpaceOnUse">
      <stop offset=".212" stop-color="#3BEA62"/>
      <stop offset=".98" stop-color="#009AE5"/>
    </linearGradient>
    <linearGradient id="r" x1="55.947" x2="48.271" y1="18.091" y2="40.073" gradientUnits="userSpaceOnUse">
      <stop offset=".097" stop-color="#95F286"/>
      <stop offset=".501" stop-color="#2BD486" stop-opacity="0"/>
    </linearGradient>
    <linearGradient id="s" x1="13.547" x2="49.343" y1="14.087" y2="48.836" gradientUnits="userSpaceOnUse">
      <stop  offset="0" stop-color="#007859"/>
      <stop offset=".088" stop-color="#00533E"/>
      <stop offset=".192" stop-color="#002F23"/>
      <stop offset=".289" stop-color="#001510"/>
      <stop offset=".377" stop-color="#000604"/>
      <stop offset=".445"/>
      <stop offset=".914"/>
    </linearGradient>
    <linearGradient id="t" x1="17.299" x2="27.305" y1="18.648" y2="41.819" gradientUnits="userSpaceOnUse">
      <stop offset=".326" stop-color="#FF318C"/>
      <stop offset=".384" stop-color="#F4358F"/>
      <stop offset=".484" stop-color="#D84099"/>
      <stop offset=".614" stop-color="#AA53A9"/>
      <stop offset=".769" stop-color="#6B6DBF"/>
      <stop offset=".944" stop-color="#1B8EDB"/>
      <stop offset="1" stop-color="#009AE5"/>
    </linearGradient>
    <linearGradient id="u" x1="12.139" x2="18.161" y1="32.965" y2="46.912" gradientUnits="userSpaceOnUse">
      <stop offset=".058" stop-color="#FF318C"/>
      <stop offset=".141" stop-color="#F43492"/>
      <stop offset=".285" stop-color="#D83DA4"/>
      <stop offset=".47" stop-color="#AB4CC1"/>
      <stop offset=".584" stop-color="#8C57D5"/>
      <stop offset=".71" stop-color="#5C6DDA"/>
      <stop offset=".933" stop-color="#009AE5"/>
    </linearGradient>
    <linearGradient id="v" x1="16.442" x2="36.796" y1="19.362" y2="43.671" gradientUnits="userSpaceOnUse">
      <stop offset=".191" stop-color="#FF318C"/>
      <stop offset=".464" stop-color="#8363B7"/>
      <stop offset=".764" stop-color="#009AE5"/>
    </linearGradient>
    <linearGradient id="w" x1="44.129" x2="5.712" y1="25.03" y2="47.107" gradientUnits="userSpaceOnUse">
      <stop offset=".044" stop-color="#3BEA62"/>
      <stop offset=".877" stop-color="#024546"/>
    </linearGradient>
    <linearGradient id="x" x1="36.748" x2="50.316" y1="12.613" y2="21.008" gradientUnits="userSpaceOnUse">
      <stop offset=".097" stop-color="#A8FF68"/>
      <stop offset=".501" stop-color="#2BD486"/>
      <stop offset="1" stop-color="#1686E6"/>
    </linearGradient>
    <linearGradient id="y" x1="29.207" x2="10.035" y1="15.652" y2="53.188" gradientUnits="userSpaceOnUse">
      <stop offset=".044" stop-color="#99EA51"/>
      <stop offset=".98" stop-color="#009AE5"/>
    </linearGradient>
    <linearGradient id="z" x1="49.176" x2="42.015" y1="25.878" y2="53.482" gradientUnits="userSpaceOnUse">
      <stop offset=".097" stop-color="#95F286"/>
      <stop offset=".501" stop-color="#2BD486"/>
    </linearGradient>
  </defs>
  <path fill="#fff" d="M31.8 18.4H35l3.6 5.7 3.6-5.7h3.2v13.5h-3v-8.8l-3.8 5.8h-.1l-3.8-5.8v8.8h-2.9V18.4Z"/>
  <path fill="#fff" d="M18.5 18.4h6.2c1.7 0 3 .5 3.9 1.4.8.8 1.2 1.8 1.2 3.1 0 1.1-.3 2-.8 2.7-.5.7-1.2 1.2-2.1 1.5l3.3 4.8h-3.5l-2.8-4.2h-2.5v4.2h-3V18.4h.1Zm6 6.5c.7 0 1.3-.2 1.7-.5.4-.3.6-.8.6-1.4 0-.6-.2-1.1-.6-1.4-.4-.3-1-.5-1.7-.5h-3v3.8h3Z"/>
  <path fill="url(#a)" d="m30.436 23.836-24.53-5.995-2.883 6.82 8.843 28.283 23.493 8.061 10.113-16.543-15.036-20.626Z"/>
  <path fill="url(#b)" d="m5.906 17.841-2.883 6.82 8.843 28.283 4.153-11.653.906-6.797L5.906 17.84Z"/>
  <path fill="url(#c)" d="m30.436 23.727-24.53-5.995-2.883 6.82 28.843 9.975-1.43-10.8Z"/>
  <path fill="url(#d)" d="m5.906 17.842-2.883 6.82 9.59 3.316-6.707-10.136Z"/>
  <path fill="url(#e)" d="M61.023 19.597 55.128 8.054 25.045 3.006l-13.18 49.938 23.494 8.062 25.664-41.409Z"/>
  <path fill="url(#f)" d="M61.023 19.597 55.129 8.054 35.36 61.006l25.664-41.409Z"/>
  <path fill="url(#g)" d="M61.023 19.597 55.128 8.054 25.046 3.006 35.05 18.18l25.973 1.416Z"/>
  <path fill="url(#h)" d="M61.023 19.597 55.128 8.054 25.046 3.006 35.05 18.18l25.973 1.416Z"/>
  <path fill="url(#i)" d="M61.023 19.597 55.128 8.054l-4.105 10.998 10 .545Z"/>
  <path fill="url(#j)" d="m16.925 34.494-.135-.205-4.924 18.655 23.494 8.062 10.112-16.543-28.547-9.97Z"/>
  <path fill="url(#k)" d="m45.472 44.463-13.14-20.39-12.124-2.736-8.342 31.608 23.494 8.06 10.112-16.542Z"/>
  <path fill="url(#l)" d="M35.05 18.181 25.044 3.006l-13.18 49.938 12.31-11.653 10.874-23.11Z"/>
  <path fill="url(#m)" d="m11.866 52.944 12.31-11.653 1.723-3.663-8.974-3.134-.135-.205-2.336 8.849-2.588 9.806Z"/>
  <path fill="url(#n)" d="m17.967 29.83 9.978 3.45 4.386-9.208-12.123-2.735-2.241 8.492Z"/>
  <path fill="url(#o)" d="m35.36 61.006 10.112-16.543-2.493-3.868-7.62 20.411Z"/>
  <path fill="url(#p)" d="m45.472 44.463-2.493-3.868-.99 2.652 3.483 1.216Z"/>
  <path fill="url(#q)" d="M24.175 41.29 11.866 52.945l23.494 8.062L24.175 41.29Z"/>
  <path fill="url(#r)" d="M51.022 19.052 35.36 61.006l25.664-41.41-10-.544Z"/>
  <path fill="url(#s)" d="M50 14H14v36h36V14Z"/>
  <g opacity=".2">
    <path fill="url(#t)" d="M14.007 19.906V50h27.791l3.44-5.628-14.93-20.482-16.301-3.984Z"/>
    <path fill="url(#u)" d="m14.007 46.792 1.985-5.57.9-6.75-2.885-4.359v16.679Z"/>
    <path fill="url(#v)" d="m14.007 28.485 17.721 6.129-1.42-10.724-16.301-3.984v8.579Z"/>
    <path fill="url(#w)" d="M50.003 36.91V14.002H22.106l-8.1 30.686V50H41.89l8.113-13.09Z"/>
    <path fill="url(#x)" d="m34.89 18.274 15.114.824v-5.095h-17.93l2.816 4.271Z"/>
    <path fill="url(#y)" d="M14.007 44.69V50h.812l9.272-8.778L34.89 18.274l-2.815-4.27h-9.97l-8.098 30.685Z"/>
    <path fill="url(#z)" d="m41.89 50 8.114-13.09V21.14L39.229 50h2.661Z"/>
  </g>
  <path fill="#fff" d="M32 43.2H18.4v2.2H32v-2.2Z"/>
  <path fill="#fff" d="M38.142 18.375h2.653L46.4 31.92h-3.008l-1.196-3.016h-5.53L35.47 31.92h-2.933l5.605-13.544Zm3.026 7.915-1.737-4.36-1.738 4.36h3.475Z"/>
  <path fill="#fff" d="m30.253 32.323-1.438-1.326a6.985 6.985 0 0 1-3.887 1.153c-4.035 0-6.93-3.093-6.93-6.916v-.039c0-3.823 2.932-6.954 6.968-6.954s6.931 3.093 6.931 6.916v.038c0 1.422-.43 2.747-1.158 3.862l1.345 1.172-1.83 2.094Zm-3.568-3.266-2.13-1.864 1.83-2.113 2.15 1.998a4.828 4.828 0 0 0 .354-1.844v-.039c0-2.305-1.644-4.226-3.96-4.226-2.317 0-3.924 1.883-3.924 4.188v.038c0 2.306 1.644 4.227 3.961 4.227.635 0 1.214-.116 1.719-.365Z"/>
  <rect width="63.999" height="20" y="41" fill="#3BEA62" rx="7"/>
  <g opacity=".9">
    <path fill="#010101" d="M5.493 54.943h1.712v-2.376h1.301c1.746 0 3.147-.95 3.147-2.783v-.023c0-1.618-1.123-2.738-2.98-2.738h-3.18v7.92Zm1.712-3.926v-2.422h1.323c.857 0 1.39.42 1.39 1.2v.023c0 .678-.5 1.199-1.356 1.199H7.205Z"/>
    <path fill="#010101" d="M12.92 54.943h1.713V52.41h1.345l1.668 2.534h2.002l-1.901-2.828c.99-.374 1.668-1.177 1.668-2.456v-.023c0-.746-.234-1.369-.668-1.81-.511-.52-1.279-.803-2.268-.803H12.92v7.92Zm1.713-4.073v-2.274h1.701c.834 0 1.346.384 1.346 1.131v.023c0 .667-.478 1.12-1.312 1.12h-1.735Z"/>
    <path fill="#010101" d="M20.956 54.943h5.927v-1.55h-4.225V51.73h3.67v-1.55h-3.67v-1.607h4.17v-1.55h-5.872v7.92Z"/>
    <path fill="#010101" d="M30.886 55h1.512l3.147-7.977h-1.846L31.664 52.6l-2.035-5.578h-1.89L30.886 55Z"/>
    <path fill="#010101" d="M36.824 54.943h1.712v-7.92h-1.712v7.92Z"/>
    <path fill="#010101" d="M40.481 54.943h5.927v-1.55h-4.225V51.73h3.67v-1.55h-3.67v-1.607h4.17v-1.55H40.48v7.92Z"/>
    <path fill="#010101" d="M49.988 55h1.49l1.757-5.182L54.992 55h1.49l2.658-7.977h-1.79l-1.613 5.363L53.991 47h-1.468l-1.745 5.386-1.613-5.363H47.33L49.988 55Z"/>
  </g>
</svg>
