<svg xmlns="http://www.w3.org/2000/svg" width="24" height="24" fill="none" viewBox="0 0 24 24">
  <defs>
    <linearGradient id="a" x1="5.012" x2="10.165" y1="5.245" y2="17.178" gradientUnits="userSpaceOnUse">
      <stop offset=".068" stop-color="#FF4EFD"/>
      <stop offset=".964" stop-color="#484DFC"/>
    </linearGradient>
    <linearGradient id="b" x1=".778" x2="6.949" y1="5.849" y2="20.618" gradientUnits="userSpaceOnUse">
      <stop stop-color="#DA38FF"/>
      <stop offset=".223" stop-color="#DA38FF"/>
      <stop offset=".828" stop-color="#087CFA"/>
    </linearGradient>
    <linearGradient id="c" x1="12.38" x2="8.888" y1="14.375" y2="4.062" gradientUnits="userSpaceOnUse">
      <stop offset=".281" stop-color="#6B57FF"/>
      <stop offset=".875" stop-color="#9E3DFF"/>
    </linearGradient>
    <linearGradient id="d" x1="2.624" x2="2.624" y1="7.123" y2="11.166" gradientUnits="userSpaceOnUse">
      <stop stop-color="#E19AFB"/>
      <stop offset=".688" stop-color="#EB73FF" stop-opacity=".69"/>
    </linearGradient>
    <linearGradient id="e" x1="18.266" x2=".109" y1="8.01" y2="18.445" gradientUnits="userSpaceOnUse">
      <stop offset=".044" stop-color="#3BEA62"/>
      <stop offset=".98" stop-color="#009AE5"/>
    </linearGradient>
    <linearGradient id="f" x1="21.323" x2="8.124" y1="10.586" y2="18.171" gradientUnits="userSpaceOnUse">
      <stop offset=".01" stop-color="#3BEA62"/>
      <stop offset=".3" stop-color="#2BD486"/>
      <stop offset=".76" stop-color="#009AE5"/>
    </linearGradient>
    <linearGradient id="g" x1="14.041" x2="18.711" y1="-1.072" y2="9.351" gradientUnits="userSpaceOnUse">
      <stop offset=".193" stop-color="#3BEA62"/>
      <stop offset=".333" stop-color="#39E766"/>
      <stop offset=".474" stop-color="#33E072"/>
      <stop offset=".616" stop-color="#2AD386"/>
      <stop offset=".759" stop-color="#1DC2A2"/>
      <stop offset=".9" stop-color="#0DACC6"/>
      <stop offset="1" stop-color="#009AE5"/>
    </linearGradient>
    <linearGradient id="h" x1="9.831" x2="17.073" y1="3.112" y2="4.669" gradientUnits="userSpaceOnUse">
      <stop offset=".097" stop-color="#A8FF68"/>
      <stop offset=".501" stop-color="#2BD486" stop-opacity="0"/>
    </linearGradient>
    <linearGradient id="i" x1="24.833" x2="18.877" y1="6.002" y2="4.513" gradientUnits="userSpaceOnUse">
      <stop offset=".463" stop-color="#3BEA62"/>
      <stop offset=".98" stop-color="#009AE5"/>
    </linearGradient>
    <linearGradient id="j" x1="11.803" x2="8.991" y1="24.457" y2="8.838" gradientUnits="userSpaceOnUse">
      <stop offset=".044" stop-color="#3BEA62"/>
      <stop offset=".98" stop-color="#009AE5"/>
    </linearGradient>
    <linearGradient id="k" x1="6.373" x2="10.634" y1="8.395" y2="18.262" gradientUnits="userSpaceOnUse">
      <stop stop-color="#C7489F"/>
      <stop offset=".072" stop-color="#C34DA5" stop-opacity=".914"/>
      <stop offset=".216" stop-color="#B95CB4" stop-opacity=".69"/>
      <stop offset=".415" stop-color="#A974CD" stop-opacity=".332"/>
      <stop offset=".585" stop-color="#9B8BE5" stop-opacity="0"/>
    </linearGradient>
    <linearGradient id="l" x1="14.929" x2="2.888" y1="5.409" y2="8.573" gradientUnits="userSpaceOnUse">
      <stop offset=".044" stop-color="#3BEA62"/>
      <stop offset=".98" stop-color="#009AE5"/>
    </linearGradient>
    <linearGradient id="m" x1="7.721" x2="5.661" y1="21.317" y2="11.793" gradientUnits="userSpaceOnUse">
      <stop offset=".373" stop-color="#3BEA62" stop-opacity="0"/>
      <stop offset="1" stop-color="#C931FF"/>
    </linearGradient>
    <linearGradient id="n" x1="5.597" x2="11.055" y1="10.639" y2="9.889" gradientUnits="userSpaceOnUse">
      <stop stop-color="#26B2C4" stop-opacity="0"/>
      <stop offset=".287" stop-color="#43C3AA" stop-opacity=".285"/>
      <stop offset=".953" stop-color="#8CF06A" stop-opacity=".994"/>
      <stop offset=".958" stop-color="#8DF16A"/>
    </linearGradient>
    <linearGradient id="o" x1="19.612" x2="10.575" y1="13.366" y2="24.496" gradientUnits="userSpaceOnUse">
      <stop stop-color="#C7489F"/>
      <stop offset=".072" stop-color="#C34DA5" stop-opacity=".914"/>
      <stop offset=".216" stop-color="#B95CB4" stop-opacity=".69"/>
      <stop offset=".415" stop-color="#A974CD" stop-opacity=".332"/>
      <stop offset=".585" stop-color="#9B8BE5" stop-opacity="0"/>
    </linearGradient>
    <linearGradient id="p" x1="17.234" x2="16.06" y1="15.502" y2="16.948" gradientUnits="userSpaceOnUse">
      <stop offset=".306" stop-color="#EB73FF" stop-opacity="0"/>
      <stop offset="1" stop-color="#BD31FF"/>
    </linearGradient>
    <linearGradient id="q" x1="3.239" x2="11.061" y1="13.319" y2="23.251" gradientUnits="userSpaceOnUse">
      <stop offset=".212" stop-color="#3BEA62"/>
      <stop offset=".98" stop-color="#009AE5"/>
    </linearGradient>
    <linearGradient id="r" x1="21.309" x2="18.331" y1="6.603" y2="15.13" gradientUnits="userSpaceOnUse">
      <stop offset=".097" stop-color="#95F286"/>
      <stop offset=".501" stop-color="#2BD486" stop-opacity="0"/>
    </linearGradient>
    <linearGradient id="s" x1="4.824" x2="18.745" y1="5.034" y2="18.547" gradientUnits="userSpaceOnUse">
      <stop stop-color="#007859"/>
      <stop offset=".088" stop-color="#00533E"/>
      <stop offset=".192" stop-color="#002F23"/>
      <stop offset=".289" stop-color="#001510"/>
      <stop offset=".377" stop-color="#000604"/>
      <stop offset=".445"/>
      <stop offset=".914"/>
    </linearGradient>
    <linearGradient id="t" x1="6.287" x2="10.178" y1="6.809" y2="15.819" gradientUnits="userSpaceOnUse">
      <stop offset=".326" stop-color="#FF318C"/>
      <stop offset=".384" stop-color="#F4358F"/>
      <stop offset=".484" stop-color="#D84099"/>
      <stop offset=".614" stop-color="#AA53A9"/>
      <stop offset=".769" stop-color="#6B6DBF"/>
      <stop offset=".944" stop-color="#1B8EDB"/>
      <stop offset="1" stop-color="#009AE5"/>
    </linearGradient>
    <linearGradient id="u" x1="4.28" x2="6.622" y1="12.377" y2="17.799" gradientUnits="userSpaceOnUse">
      <stop offset=".058" stop-color="#FF318C"/>
      <stop offset=".141" stop-color="#F43492"/>
      <stop offset=".285" stop-color="#D83DA4"/>
      <stop offset=".47" stop-color="#AB4CC1"/>
      <stop offset=".584" stop-color="#8C57D5"/>
      <stop offset=".71" stop-color="#5C6DDA"/>
      <stop offset=".933" stop-color="#009AE5"/>
    </linearGradient>
    <linearGradient id="v" x1="5.954" x2="13.868" y1="7.087" y2="16.539" gradientUnits="userSpaceOnUse">
      <stop offset=".191" stop-color="#FF318C"/>
      <stop offset=".464" stop-color="#8363B7"/>
      <stop offset=".764" stop-color="#009AE5"/>
    </linearGradient>
    <linearGradient id="w" x1="16.719" x2="1.782" y1="9.291" y2="17.875" gradientUnits="userSpaceOnUse">
      <stop offset=".044" stop-color="#3BEA62"/>
      <stop offset=".877" stop-color="#024546"/>
    </linearGradient>
    <linearGradient id="x" x1="13.849" x2="19.125" y1="4.463" y2="7.727" gradientUnits="userSpaceOnUse">
      <stop offset=".097" stop-color="#A8FF68"/>
      <stop offset=".501" stop-color="#2BD486"/>
      <stop offset="1" stop-color="#1686E6"/>
    </linearGradient>
    <linearGradient id="y" x1="10.917" x2="3.462" y1="5.644" y2="20.24" gradientUnits="userSpaceOnUse">
      <stop offset=".044" stop-color="#99EA51"/>
      <stop offset=".98" stop-color="#009AE5"/>
    </linearGradient>
    <linearGradient id="z" x1="18.682" x2="15.897" y1="9.621" y2="20.354" gradientUnits="userSpaceOnUse">
      <stop offset=".097" stop-color="#95F286"/>
      <stop offset=".501" stop-color="#2BD486"/>
    </linearGradient>
  </defs>
  <path fill="url(#a)" d="M11.412 8.832 1.897 6.506.778 9.152l3.43 10.972 9.114 3.127 3.923-6.418-5.833-8.001Z"/>
  <path fill="url(#b)" d="M1.897 6.506.778 9.152l3.43 10.972 1.612-4.521.351-2.637-4.274-6.46Z"/>
  <path fill="url(#c)" d="M11.412 8.79 1.897 6.463.778 9.109l11.19 3.87-.556-4.19Z"/>
  <path fill="url(#d)" d="M1.897 6.506.778 9.152l3.72 1.287-2.601-3.933Z"/>
  <path fill="url(#e)" d="M23.278 7.187 20.991 2.71 9.321.751 4.21 20.124l9.113 3.127 9.956-16.064Z"/>
  <path fill="url(#f)" d="M23.278 7.187 20.991 2.71l-7.669 20.542 9.956-16.064Z"/>
  <path fill="url(#g)" d="M23.278 7.187 20.991 2.71 9.321.751l3.881 5.887 10.076.55Z"/>
  <path fill="url(#h)" d="M23.278 7.187 20.991 2.71 9.321.751l3.881 5.887 10.076.55Z"/>
  <path fill="url(#i)" d="M23.278 7.187 20.991 2.71l-1.593 4.267 3.88.211Z"/>
  <path fill="url(#j)" d="m6.171 12.966-.053-.08-1.91 7.238 9.114 3.127 3.923-6.418-11.074-3.867Z"/>
  <path fill="url(#k)" d="m17.245 16.833-5.097-7.91-4.703-1.06-3.237 12.26 9.114 3.128 3.923-6.418Z"/>
  <path fill="url(#l)" d="M13.202 6.638 9.322.751 4.208 20.124l4.775-4.521 4.218-8.965Z"/>
  <path fill="url(#m)" d="m4.208 20.124 4.776-4.521.668-1.421-3.48-1.216-.054-.08-.905 3.434-1.005 3.804Z"/>
  <path fill="url(#n)" d="m6.575 11.156 3.871 1.34 1.702-3.573-4.703-1.06-.87 3.293Z"/>
  <path fill="url(#o)" d="m13.322 23.251 3.923-6.418-.967-1.5-2.956 7.918Z"/>
  <path fill="url(#p)" d="m17.245 16.833-.966-1.5-.384 1.029 1.35.471Z"/>
  <path fill="url(#q)" d="m8.984 15.603-4.776 4.52 9.114 3.128-4.338-7.648Z"/>
  <path fill="url(#r)" d="M19.398 6.976 13.322 23.25l9.956-16.064-3.88-.211Z"/>
  <path fill="url(#s)" d="M19 5H5v14h14V5Z"/>
  <g opacity=".2">
    <path fill="url(#t)" d="M5.007 7.298V19h10.806l1.338-2.189-5.806-7.964-6.338-1.549Z"/>
    <path fill="url(#u)" d="m5.007 17.753.772-2.166.35-2.624-1.122-1.696v6.486Z"/>
    <path fill="url(#v)" d="m5.007 10.634 6.89 2.383-.552-4.17-6.338-1.549v3.336Z"/>
    <path fill="url(#w)" d="M19.003 13.91V5.003H8.156l-3.15 11.932V19H15.85l3.154-5.09Z"/>
    <path fill="url(#x)" d="m13.127 6.664 5.876.32v-1.98h-6.97l1.094 1.66Z"/>
    <path fill="url(#y)" d="M5.007 16.935V19h.316l3.605-3.413 4.199-8.923-1.095-1.66H8.156l-3.15 11.931Z"/>
    <path fill="url(#z)" d="m15.849 19 3.154-5.09V7.778L14.814 19h1.035Z"/>
  </g>
  <path fill="#fff" d="M13 16H7v1h6v-1Z"/>
  <path fill="#fff" d="M14.696 7.059h1.115l2.356 5.963h-1.264l-.503-1.328h-2.324l-.502 1.328H12.34l2.355-5.963Zm1.272 3.484-.73-1.92-.73 1.92h1.46Z"/>
  <path fill="#fff" d="m11.38 13.2-.604-.584a2.841 2.841 0 0 1-1.633.508c-1.696 0-2.913-1.362-2.913-3.045v-.017C6.23 8.379 7.463 7 9.159 7c1.696 0 2.913 1.362 2.913 3.045v.017c0 .626-.18 1.21-.487 1.7l.565.516-.77.922Zm-1.499-1.438-.895-.82.77-.93.902.879a2.2 2.2 0 0 0 .15-.812v-.017c0-1.015-.691-1.86-1.665-1.86-.974 0-1.649.828-1.649 1.843v.017c0 1.015.691 1.86 1.665 1.86.267 0 .51-.05.722-.16Z"/>
  <rect width="24" height="8" y="16" fill="#3BEA62" rx="1.5"/>
  <g opacity=".9">
    <path fill="#010101" d="M1.125 21.916h.693v-1.154h.526c.707 0 1.274-.462 1.274-1.353v-.011c0-.786-.454-1.33-1.206-1.33H1.125v3.848Zm.693-1.908v-1.176h.535c.347 0 .563.203.563.582v.011c0 .33-.202.583-.55.583h-.548Z"/>
    <path fill="#010101" d="M4.131 21.916h.694v-1.232h.544l.675 1.232h.81l-.769-1.374c.4-.182.675-.572.675-1.194v-.01c0-.363-.094-.666-.27-.88-.207-.253-.518-.39-.918-.39h-1.44v3.848Zm.694-1.98v-1.104h.688c.338 0 .545.187.545.55v.01c0 .325-.194.545-.531.545h-.702Z"/>
    <path fill="#010101" d="M7.384 21.916h2.4v-.753H8.073v-.808H9.56V19.6H8.073v-.78h1.688v-.754H7.384v3.85Z"/>
    <path fill="#010101" d="M11.404 21.944h.612l1.274-3.877h-.747l-.824 2.711-.824-2.71h-.765l1.274 3.876Z"/>
    <path fill="#010101" d="M13.807 21.916h.694v-3.849h-.694v3.85Z"/>
    <path fill="#010101" d="M15.288 21.916h2.4v-.753h-1.711v-.808h1.485V19.6h-1.485v-.78h1.688v-.754h-2.377v3.85Z"/>
    <path fill="#010101" d="M19.137 21.944h.603l.711-2.519.711 2.519h.604l1.075-3.877h-.724l-.653 2.607-.707-2.618h-.594l-.707 2.617-.652-2.606h-.743l1.076 3.877Z"/>
  </g>
</svg>
