<svg xmlns="http://www.w3.org/2000/svg" width="16" height="16" viewBox="0 0 16 16">
  <path fill="#6C707E"
        d="M14.29 12.81a1.7 1.7 0 0 1-.36-.75c-.08-.38-.18-.75-.59-.9a.3.3 0 0 0 0-.07 3.34 3.34 0 0 0 .05-1.8A6.2 6.2 0 0 0 12.3 7c-.32-.43-.66-.84-1-1.27a2.75 2.75 0 0 1-.6-1.87 8 8 0 0 0 0-.82 5 5 0 0 0-.27-1.67A1.92 1.92 0 0 0 8.88.05a3.34 3.34 0 0 0-1.57.1 1.82 1.82 0 0 0-1.25 1.22 3.7 3.7 0 0 0-.18.94v1.64a3.5 3.5 0 0 1-.76 2.37 11 11 0 0 0-1.53 2.44 4.2 4.2 0 0 0-.41 1.87.75.75 0 0 1-.16.52 1.54 1.54 0 0 1-1 .71h-.1a.84.84 0 0 0-.48.87 2 2 0 0 0 0 .26 1.53 1.53 0 0 1-.05.9.5.5 0 0 0 0 .13.74.74 0 0 0 .65 1l.57.08a4 4 0 0 1 1.48.39 2.43 2.43 0 0 0 1.35.28 1.2 1.2 0 0 0 1-.6.2.2 0 0 1 .11-.07l.46-.07A5 5 0 0 1 8.4 15l1.3.12a.2.2 0 0 1 .09.11 1.28 1.28 0 0 0 1.43.8 2.22 2.22 0 0 0 1.32-.79 2.9 2.9 0 0 1 .87-.67l.7-.36a.77.77 0 0 0 .47-.55 1 1 0 0 0-.29-.85m-6-10.32a.57.57 0 0 1 .83 0 1 1 0 0 1 .09 1.27h-.09c-.02 0-.79-.36-1.05-.46l-.05-.06a1 1 0 0 1 .29-.75zM8 3.85l1 .37a.36.36 0 0 1 .24.26 3.7 3.7 0 0 1-1.6.52 5.5 5.5 0 0 1-1.16-.31.23.23 0 0 1 .08-.33L7.12 4A1 1 0 0 1 8 3.85M6.42 2.73a.39.39 0 0 1 .72 0 1 1 0 0 1 .16.6c0 .11 0 .1-.23.2a1.8 1.8 0 0 0-.51.37 2 2 0 0 1-.13-.21 1 1 0 0 1-.01-.96M5.2 15.09H5a1.8 1.8 0 0 1-.85-.21A3.2 3.2 0 0 0 3 14.57a4 4 0 0 1-.52-.09.35.35 0 0 1-.3-.47 2 2 0 0 1 0-.21 1.2 1.2 0 0 0 0-.72 1.3 1.3 0 0 1 0-.28.48.48 0 0 1 .29-.46l.27-.1a.83.83 0 0 0 .44-.32l.24-.31a.46.46 0 0 1 .64-.09 1.8 1.8 0 0 1 .36.36 1.3 1.3 0 0 1 .14.26 7.3 7.3 0 0 0 .92 1.41 2.4 2.4 0 0 1 .3.45.72.72 0 0 1-.58 1.09m4.8-1.47a.2.2 0 0 1-.07.09 3.35 3.35 0 0 1-2.39.63 2.6 2.6 0 0 1-1.07-.4 1.2 1.2 0 0 1-.18-.21l-.33-.44h.21a.38.38 0 0 0 .31-.5 2 2 0 0 0-.27-.56 3.7 3.7 0 0 0-1-.89 1.5 1.5 0 0 1-.3-.19.78.78 0 0 1-.12-.58v-.44a6 6 0 0 1 .56-1.93 14.7 14.7 0 0 0 .85-2.1c.08-.32.14-.64.22-1 .16.13.34.25.5.39a1 1 0 0 0 .64.28 2 2 0 0 0 .72-.13 4 4 0 0 0 .47-.21L9 5.31a3.2 3.2 0 0 0 .55-.42 16 16 0 0 0 1 2.6c.19.41.41.82.58 1.25a2.8 2.8 0 0 1 .3 1c0 .47-.31.47-.39.85a.23.23 0 0 1-.08.11 1.06 1.06 0 0 0-.56.68 6.3 6.3 0 0 0-.18 1.28c-.1.34-.22.64-.22.96m3.78.1a2.6 2.6 0 0 1-.4.22l-.38.2a2.1 2.1 0 0 0-.64.51 1.74 1.74 0 0 1-1 .6.84.84 0 0 1-1-.48 1 1 0 0 1 0-.65 4 4 0 0 1 .12-.49 4.4 4.4 0 0 0 .21-1.18 4.6 4.6 0 0 1 .13-.74.54.54 0 0 1 .3-.36c0 .13.07.27.12.39a.54.54 0 0 0 .71.31 1.4 1.4 0 0 0 .56-.32.3.3 0 0 1 .15-.07h.16a.49.49 0 0 1 .45.33 4 4 0 0 1 .12.46 1 1 0 0 0 .24.45 4 4 0 0 1 .22.32.33.33 0 0 1-.11.5z"/>
</svg>