<svg xmlns="http://www.w3.org/2000/svg" width="16" height="16" viewBox="0 0 16 16">
  <path fill="#CED0D6"
        d="M12.51 8.5a3.54 3.54 0 0 0 2.22 3.24A8.66 8.66 0 0 1 13.58 14c-.69 1-1.4 2-2.53 2s-1.46-.64-2.72-.64-1.66.64-2.71.64S3.71 14.94 3 14C1.59 12 .51 8.36 2 5.91a4.05 4.05 0 0 1 3.41-2c1.07 0 2.08.69 2.73.69s1.88-.86 3.16-.73a3.89 3.89 0 0 1 3 1.59 3.59 3.59 0 0 0-1.78 3m-2.09-5.91A3.46 3.46 0 0 0 11.29 0a3.76 3.76 0 0 0-2.43 1.21A3.26 3.26 0 0 0 8 3.69a3.1 3.1 0 0 0 2.45-1.14"/>
</svg>