<svg width="24" height="24" viewBox="0 0 24 24" fill="none" xmlns="http://www.w3.org/2000/svg">
<g clip-path="url(#clip0_4372_11517)">
<path d="M0 1.52727V14.2654C0 14.8763 0.364145 15.4285 0.925527 15.6692L14.9845 21.6947C15.1745 21.7761 15.3794 21.8182 15.5863 21.8182H22.4727C23.3162 21.8182 24 21.1344 24 20.2909V13.5537C24 13.2519 23.9105 12.9569 23.743 12.7058L15.7169 0.680073C15.4335 0.255491 14.957 0.000654545 14.4467 0.000654545L1.52727 0C0.683782 0 0 0.683782 0 1.52727Z" fill="url(#paint0_linear_4372_11517)"/>
<path d="M2.18176 18.5555V22.4729C2.18176 23.3164 2.86554 24.0002 3.70904 24.0002H8.61878C8.691 24.0002 8.76322 23.995 8.83478 23.9849L22.6887 22.006C23.4412 21.8984 23.9999 21.2542 23.9999 20.494V14.6166C23.9999 13.7729 23.3159 13.0891 22.4722 13.0894L15.5203 13.0911C15.3562 13.0911 15.1932 13.1175 15.0377 13.1694L3.22598 17.1067C2.60242 17.3147 2.18176 17.8983 2.18176 18.5557V18.5555Z" fill="url(#paint1_linear_4372_11517)"/>
<path d="M2.18176 18.0197L2.18242 22.473C2.18242 23.3165 2.8662 24 3.70969 24H8.02467C8.47042 24 8.89412 23.8052 9.18431 23.4668L21.4505 9.15626C21.6876 8.87938 21.8181 8.5268 21.8181 8.16222V3.70891C21.8181 2.86542 21.1343 2.18164 20.2908 2.18164H15.9752C15.5295 2.18164 15.1058 2.37648 14.8156 2.71488L2.54962 17.0254C2.31224 17.3023 2.18198 17.6549 2.18198 18.0197H2.18176Z" fill="#00D886"/>
<path d="M20 4H4V20H20V4Z" fill="black"/>
<path d="M7.34703 11.7758C7.67092 11.9607 8.02178 12.0773 8.39618 12.1339L8.39663 12.2078C8.39663 12.4585 8.44783 12.6773 8.55023 12.8585C8.65538 13.0453 8.80486 13.1893 8.99823 13.2853C9.19458 13.3865 9.422 13.44 9.68098 13.44H10.641V12.576H9.91138C9.8204 12.576 9.7436 12.5602 9.68098 12.528C9.61835 12.496 9.57012 12.448 9.53583 12.384C9.50178 12.32 9.48463 12.2453 9.48463 12.1547V12.1209C9.83298 12.0603 10.1603 11.9493 10.4618 11.776C10.9283 11.504 11.2938 11.136 11.5582 10.6667C11.8227 10.192 11.955 9.66926 11.955 9.088C11.955 8.50674 11.8227 7.984 11.5582 7.51451C11.2938 7.04 10.9281 6.672 10.4618 6.40526C9.998 6.13326 9.47892 6 8.90452 6C8.33012 6 7.81378 6.13326 7.34726 6.40526C6.88372 6.672 6.51823 7.04 6.2508 7.51451C5.98635 7.984 5.854 8.50651 5.854 9.088C5.854 9.66949 5.98635 10.192 6.2508 10.6667C6.51823 11.136 6.88372 11.504 7.34726 11.776L7.34703 11.7758ZM7.28738 8.03177C7.44943 7.71177 7.67138 7.46651 7.95298 7.29029C8.23732 7.11429 8.55595 7.02354 8.90863 7.02354C9.26132 7.02354 9.57858 7.11406 9.86018 7.29029C10.1418 7.46629 10.3621 7.71154 10.5214 8.03177C10.6807 8.34103 10.7603 8.69303 10.7603 9.08777C10.7603 9.48251 10.6805 9.83429 10.5214 10.149C10.3621 10.4635 10.1418 10.709 9.86018 10.8903C9.57858 11.0663 9.26132 11.1515 8.90863 11.1515C8.55595 11.1515 8.23732 11.0663 7.95298 10.8903C7.67138 10.7088 7.44943 10.4635 7.28738 10.149C7.12806 9.83429 7.04852 9.48229 7.04852 9.08777C7.04852 8.69326 7.12806 8.34103 7.28738 8.03177Z" fill="white"/>
<path d="M15.485 6.10107H14.2221L12.0674 12.0743H13.2662L13.7186 10.6878H16.0438L16.5259 12.0743H17.6992L15.4848 6.10107H15.485ZM13.9958 9.78656L14.7554 7.5093L14.8406 7.13056L14.9302 7.5093L15.7366 9.78656H13.9958Z" fill="white"/>
<path d="M12 17H6V18H12V17Z" fill="white"/>
</g>
<defs>
<linearGradient id="paint0_linear_4372_11517" x1="22.507" y1="22.4166" x2="0.492437" y2="0.402326" gradientUnits="userSpaceOnUse">
<stop offset="0.25" stop-color="#7256FF"/>
<stop offset="0.73" stop-color="#007DFE"/>
</linearGradient>
<linearGradient id="paint1_linear_4372_11517" x1="2.85813" y1="24.2692" x2="23.273" y2="14.804" gradientUnits="userSpaceOnUse">
<stop offset="0.3" stop-color="#00D886"/>
<stop offset="0.54" stop-color="#7256FF"/>
</linearGradient>
<clipPath id="clip0_4372_11517">
<rect width="24" height="24" fill="white"/>
</clipPath>
</defs>
</svg>
