<svg width="64" height="64" viewBox="0 0 64 64" fill="none" xmlns="http://www.w3.org/2000/svg">
<g clip-path="url(#clip0_4372_11520)">
<path d="M0 4.07273V38.041C0 39.6701 0.971054 41.1427 2.46807 41.7844L39.9587 57.8525C40.4654 58.0695 41.0118 58.1818 41.5633 58.1818H59.9273C62.1766 58.1818 64 56.3584 64 54.1091V36.1431C64 35.3385 63.7614 34.5518 63.3146 33.8822L41.9118 1.81353C41.1561 0.681309 39.8854 0.00174545 38.5245 0.00174545L4.07273 0C1.82342 0 0 1.82342 0 4.07273Z" fill="url(#paint0_linear_4372_11520)"/>
<path d="M5.81824 49.4806V59.9271C5.81824 62.1764 7.64166 63.9999 9.89096 63.9999H22.9836C23.1762 63.9999 23.3688 63.9859 23.5596 63.9591L60.5033 58.682C62.51 58.3952 64 56.6771 64 54.65V38.977C64 36.7271 62.176 34.9037 59.9262 34.9043L41.3877 34.909C40.9502 34.909 40.5155 34.9794 40.1007 35.1178L8.60282 45.6173C6.93998 46.1718 5.81824 47.7282 5.81824 49.4812V49.4806Z" fill="url(#paint1_linear_4372_11520)"/>
<path d="M5.81824 48.0521L5.81998 59.9276C5.81998 62.1769 7.6434 63.9998 9.89271 63.9998H21.3993C22.588 63.9998 23.7179 63.4802 24.4917 62.5778L57.2015 24.4164C57.8339 23.678 58.1819 22.7378 58.1819 21.7656V9.89011C58.1819 7.6408 56.3584 5.81738 54.1091 5.81738H42.6008C41.4121 5.81738 40.2822 6.33695 39.5084 7.23935L6.79918 45.4008C6.16616 46.1391 5.81882 47.0793 5.81882 48.0521H5.81824Z" fill="#00D886"/>
<path d="M52 12H12V52H52V12Z" fill="black"/>
<path d="M20.0884 31.2109C20.9016 31.6752 21.7825 31.9678 22.7225 32.1102L22.7236 32.2955C22.7236 32.925 22.8522 33.4742 23.1093 33.9293C23.3732 34.3981 23.7485 34.7597 24.234 35.0007C24.727 35.2549 25.298 35.3892 25.9482 35.3892H28.3584V33.22H26.5266C26.2982 33.22 26.1054 33.1804 25.9482 33.0995C25.7909 33.0192 25.6698 32.8986 25.5838 32.738C25.4983 32.5773 25.4552 32.3896 25.4552 32.1624V32.0774C26.3298 31.9254 27.1515 31.6465 27.9085 31.2115C29.0797 30.5286 29.9973 29.6047 30.6613 28.4265C31.3253 27.2346 31.6575 25.9222 31.6575 24.4629C31.6575 23.0035 31.3253 21.6911 30.6613 20.5124C29.9973 19.321 29.0792 18.3971 27.9085 17.7274C26.7441 17.0445 25.4409 16.71 23.9987 16.71C22.5566 16.71 21.2603 17.0445 20.089 17.7274C18.9252 18.3971 18.0076 19.321 17.3362 20.5124C16.6722 21.6911 16.34 23.0029 16.34 24.4629C16.34 25.9228 16.6722 27.2346 17.3362 28.4265C18.0076 29.6047 18.9252 30.5286 20.089 31.2115L20.0884 31.2109ZM19.9387 21.811C20.3455 21.0076 20.9028 20.3919 21.6098 19.9494C22.3236 19.5075 23.1236 19.2797 24.0091 19.2797C24.8945 19.2797 25.6911 19.507 26.3981 19.9494C27.1051 20.3913 27.6583 21.007 28.0583 21.811C28.4582 22.5875 28.6579 23.4712 28.6579 24.4623C28.6579 25.4533 28.4577 26.3365 28.0583 27.1267C27.6583 27.9164 27.1051 28.5327 26.3981 28.9878C25.6911 29.4296 24.8945 29.6437 24.0091 29.6437C23.1236 29.6437 22.3236 29.4296 21.6098 28.9878C20.9028 28.5321 20.3455 27.9164 19.9387 27.1267C19.5387 26.3365 19.339 25.4528 19.339 24.4623C19.339 23.4718 19.5387 22.5875 19.9387 21.811Z" fill="white"/>
<path d="M40.5192 16.9634H37.3487L31.9388 31.9601H34.9488L36.0844 28.4791H41.9223L43.1326 31.9601H46.0783L40.5187 16.9634H40.5192ZM36.7805 26.2164L38.6875 20.499L38.9015 19.5481L39.1265 20.499L41.1511 26.2164H36.7805Z" fill="white"/>
<path d="M33 44H17V47H33V44Z" fill="white"/>
</g>
<defs>
<linearGradient id="paint0_linear_4372_11520" x1="60.0186" y1="59.7777" x2="1.31316" y2="1.07287" gradientUnits="userSpaceOnUse">
<stop offset="0.25" stop-color="#7256FF"/>
<stop offset="0.73" stop-color="#007DFE"/>
</linearGradient>
<linearGradient id="paint1_linear_4372_11520" x1="7.62187" y1="64.7172" x2="62.0614" y2="39.4768" gradientUnits="userSpaceOnUse">
<stop offset="0.3" stop-color="#00D886"/>
<stop offset="0.54" stop-color="#7256FF"/>
</linearGradient>
<clipPath id="clip0_4372_11520">
<rect width="64" height="64" fill="white"/>
</clipPath>
</defs>
</svg>
