<svg width="16" height="16" viewBox="0 0 16 16" fill="none" xmlns="http://www.w3.org/2000/svg">
<g clip-path="url(#clip0_4372_11516)">
<path d="M16 0H0V16H16V0Z" fill="#3BEA62"/>
<path d="M15 1H1V15H15V1Z" fill="black"/>
<path d="M3.92896 7.83212C4.21236 7.99392 4.51936 8.09592 4.84696 8.14552L4.84736 8.21012C4.84736 8.42952 4.89216 8.62092 4.98176 8.77952C5.07376 8.94292 5.20456 9.06892 5.37376 9.15292C5.54556 9.24152 5.74456 9.28832 5.97116 9.28832H6.81116V8.53232H6.17276C6.09316 8.53232 6.02596 8.51852 5.97116 8.49032C5.91636 8.46232 5.87416 8.42032 5.84416 8.36432C5.81436 8.30832 5.79936 8.24292 5.79936 8.16372V8.13412C6.10416 8.08112 6.39056 7.98392 6.65436 7.83232C7.06256 7.59432 7.38236 7.27232 7.61376 6.86172C7.84516 6.44632 7.96096 5.98892 7.96096 5.48032C7.96096 4.97172 7.84516 4.51432 7.61376 4.10352C7.38236 3.68832 7.06236 3.36632 6.65436 3.13292C6.24856 2.89492 5.79436 2.77832 5.29176 2.77832C4.78916 2.77832 4.33736 2.89492 3.92916 3.13292C3.52356 3.36632 3.20376 3.68832 2.96976 4.10352C2.73836 4.51432 2.62256 4.97152 2.62256 5.48032C2.62256 5.98912 2.73836 6.44632 2.96976 6.86172C3.20376 7.27232 3.52356 7.59432 3.92916 7.83232L3.92896 7.83212ZM3.87676 4.55612C4.01856 4.27612 4.21276 4.06152 4.45916 3.90732C4.70796 3.75332 4.98676 3.67392 5.29536 3.67392C5.60396 3.67392 5.88156 3.75312 6.12796 3.90732C6.37436 4.06132 6.56716 4.27592 6.70656 4.55612C6.84596 4.82672 6.91556 5.13472 6.91556 5.48012C6.91556 5.82552 6.84576 6.13332 6.70656 6.40872C6.56716 6.68392 6.37436 6.89872 6.12796 7.05732C5.88156 7.21132 5.60396 7.28592 5.29536 7.28592C4.98676 7.28592 4.70796 7.21132 4.45916 7.05732C4.21276 6.89852 4.01856 6.68392 3.87676 6.40872C3.73736 6.13332 3.66776 5.82532 3.66776 5.48012C3.66776 5.13492 3.73736 4.82672 3.87676 4.55612Z" fill="white"/>
<path d="M11.0492 2.8667H9.94424L8.05884 8.0933H9.10784L9.50364 6.8801H11.5382L11.96 8.0933H12.9866L11.049 2.8667H11.0492ZM9.74624 6.0915L10.4108 4.0989L10.4854 3.7675L10.5638 4.0989L11.2694 6.0915H9.74624Z" fill="white"/>
<path d="M8 12H3V13H8V12Z" fill="white"/>
</g>
<defs>
<clipPath id="clip0_4372_11516">
<rect width="16" height="16" fill="white"/>
</clipPath>
</defs>
</svg>
