<svg xmlns="http://www.w3.org/2000/svg" width="80" height="80" fill="none" viewBox="0 0 80 80">
  <defs>
    <linearGradient id="a" x1="15.055" x2="33.376" y1="15.978" y2="58.407" gradientUnits="userSpaceOnUse">
      <stop offset=".068" stop-color="#FF4EFD"/>
      <stop offset=".964" stop-color="#484DFC"/>
    </linearGradient>
    <linearGradient id="b" x1="0" x2="21.939" y1="18.125" y2="70.637" gradientUnits="userSpaceOnUse">
      <stop stop-color="#DA38FF"/>
      <stop offset=".223" stop-color="#DA38FF"/>
      <stop offset=".828" stop-color="#087CFA"/>
    </linearGradient>
    <linearGradient id="c" x1="41.25" x2="28.836" y1="48.443" y2="11.775" gradientUnits="userSpaceOnUse">
      <stop offset=".281" stop-color="#6B57FF"/>
      <stop offset=".875" stop-color="#9E3DFF"/>
    </linearGradient>
    <linearGradient id="d" x1="6.562" x2="6.562" y1="22.656" y2="37.031" gradientUnits="userSpaceOnUse">
      <stop stop-color="#E19AFB"/>
      <stop offset=".688" stop-color="#EB73FF" stop-opacity=".69"/>
    </linearGradient>
    <linearGradient id="e" x1="62.179" x2="-2.38" y1="25.811" y2="62.911" gradientUnits="userSpaceOnUse">
      <stop offset=".044" stop-color="#3BEA62"/>
      <stop offset=".98" stop-color="#009AE5"/>
    </linearGradient>
    <linearGradient id="f" x1="73.047" x2="26.12" y1="34.969" y2="61.937" gradientUnits="userSpaceOnUse">
      <stop offset=".01" stop-color="#3BEA62"/>
      <stop offset=".3" stop-color="#2BD486"/>
      <stop offset=".76" stop-color="#009AE5"/>
    </linearGradient>
    <linearGradient id="g" x1="47.157" x2="63.761" y1="-6.482" y2="30.577" gradientUnits="userSpaceOnUse">
      <stop offset=".193" stop-color="#3BEA62"/>
      <stop offset=".333" stop-color="#39E766"/>
      <stop offset=".474" stop-color="#33E072"/>
      <stop offset=".616" stop-color="#2AD386"/>
      <stop offset=".759" stop-color="#1DC2A2"/>
      <stop offset=".9" stop-color="#0DACC6"/>
      <stop offset="1" stop-color="#009AE5"/>
    </linearGradient>
    <linearGradient id="h" x1="32.189" x2="57.938" y1="8.394" y2="13.929" gradientUnits="userSpaceOnUse">
      <stop offset=".097" stop-color="#A8FF68"/>
      <stop offset=".501" stop-color="#2BD486" stop-opacity="0"/>
    </linearGradient>
    <linearGradient id="i" x1="85.529" x2="64.352" y1="18.67" y2="13.376" gradientUnits="userSpaceOnUse">
      <stop offset=".463" stop-color="#3BEA62"/>
      <stop offset=".98" stop-color="#009AE5"/>
    </linearGradient>
    <linearGradient id="j" x1="39.202" x2="29.201" y1="84.287" y2="28.752" gradientUnits="userSpaceOnUse">
      <stop offset=".044" stop-color="#3BEA62"/>
      <stop offset=".98" stop-color="#009AE5"/>
    </linearGradient>
    <linearGradient id="k" x1="19.892" x2="35.042" y1="27.178" y2="62.264" gradientUnits="userSpaceOnUse">
      <stop stop-color="#C7489F"/>
      <stop offset=".072" stop-color="#C34DA5" stop-opacity=".914"/>
      <stop offset=".216" stop-color="#B95CB4" stop-opacity=".69"/>
      <stop offset=".415" stop-color="#A974CD" stop-opacity=".332"/>
      <stop offset=".585" stop-color="#9B8BE5" stop-opacity="0"/>
    </linearGradient>
    <linearGradient id="l" x1="50.313" x2="7.501" y1="16.562" y2="27.812" gradientUnits="userSpaceOnUse">
      <stop offset=".044" stop-color="#3BEA62"/>
      <stop offset=".98" stop-color="#009AE5"/>
    </linearGradient>
    <linearGradient id="m" x1="24.688" x2="17.361" y1="73.125" y2="39.26" gradientUnits="userSpaceOnUse">
      <stop offset=".373" stop-color="#3BEA62" stop-opacity="0"/>
      <stop offset="1" stop-color="#C931FF"/>
    </linearGradient>
    <linearGradient id="n" x1="17.132" x2="36.539" y1="35.158" y2="32.489" gradientUnits="userSpaceOnUse">
      <stop stop-color="#26B2C4" stop-opacity="0"/>
      <stop offset=".287" stop-color="#43C3AA" stop-opacity=".285"/>
      <stop offset=".953" stop-color="#8CF06A" stop-opacity=".994"/>
      <stop offset=".958" stop-color="#8DF16A"/>
    </linearGradient>
    <linearGradient id="o" x1="66.964" x2="34.834" y1="44.852" y2="84.428" gradientUnits="userSpaceOnUse">
      <stop stop-color="#C7489F"/>
      <stop offset=".072" stop-color="#C34DA5" stop-opacity=".914"/>
      <stop offset=".216" stop-color="#B95CB4" stop-opacity=".69"/>
      <stop offset=".415" stop-color="#A974CD" stop-opacity=".332"/>
      <stop offset=".585" stop-color="#9B8BE5" stop-opacity="0"/>
    </linearGradient>
    <linearGradient id="p" x1="58.509" x2="54.335" y1="52.447" y2="57.588" gradientUnits="userSpaceOnUse">
      <stop offset=".306" stop-color="#EB73FF" stop-opacity="0"/>
      <stop offset="1" stop-color="#BD31FF"/>
    </linearGradient>
    <linearGradient id="q" x1="8.75" x2="36.563" y1="44.687" y2="80" gradientUnits="userSpaceOnUse">
      <stop offset=".212" stop-color="#3BEA62"/>
      <stop offset=".98" stop-color="#009AE5"/>
    </linearGradient>
    <linearGradient id="r" x1="72.999" x2="62.411" y1="20.807" y2="51.128" gradientUnits="userSpaceOnUse">
      <stop offset=".097" stop-color="#95F286"/>
      <stop offset=".501" stop-color="#2BD486" stop-opacity="0"/>
    </linearGradient>
    <linearGradient id="s" x1="14.371" x2="64.088" y1="15.121" y2="63.384" gradientUnits="userSpaceOnUse">
      <stop stop-color="#007859"/>
      <stop offset=".088" stop-color="#00533E"/>
      <stop offset=".192" stop-color="#002F23"/>
      <stop offset=".289" stop-color="#001510"/>
      <stop offset=".377" stop-color="#000604"/>
      <stop offset=".445"/>
      <stop offset=".914"/>
    </linearGradient>
    <linearGradient id="t" x1="19.58" x2="33.477" y1="21.454" y2="53.637" gradientUnits="userSpaceOnUse">
      <stop offset=".326" stop-color="#FF318C"/>
      <stop offset=".384" stop-color="#F4358F"/>
      <stop offset=".484" stop-color="#D84099"/>
      <stop offset=".614" stop-color="#AA53A9"/>
      <stop offset=".769" stop-color="#6B6DBF"/>
      <stop offset=".944" stop-color="#1B8EDB"/>
      <stop offset="1" stop-color="#009AE5"/>
    </linearGradient>
    <linearGradient id="u" x1="12.412" x2="20.777" y1="41.34" y2="60.711" gradientUnits="userSpaceOnUse">
      <stop offset=".058" stop-color="#FF318C"/>
      <stop offset=".141" stop-color="#F43492"/>
      <stop offset=".285" stop-color="#D83DA4"/>
      <stop offset=".47" stop-color="#AB4CC1"/>
      <stop offset=".584" stop-color="#8C57D5"/>
      <stop offset=".71" stop-color="#5C6DDA"/>
      <stop offset=".933" stop-color="#009AE5"/>
    </linearGradient>
    <linearGradient id="v" x1="18.39" x2="46.66" y1="22.445" y2="56.209" gradientUnits="userSpaceOnUse">
      <stop offset=".191" stop-color="#FF318C"/>
      <stop offset=".464" stop-color="#8363B7"/>
      <stop offset=".764" stop-color="#009AE5"/>
    </linearGradient>
    <linearGradient id="w" x1="56.844" x2="3.486" y1="30.319" y2="60.982" gradientUnits="userSpaceOnUse">
      <stop offset=".044" stop-color="#3BEA62"/>
      <stop offset=".877" stop-color="#024546"/>
    </linearGradient>
    <linearGradient id="x" x1="46.593" x2="65.437" y1="13.072" y2="24.732" gradientUnits="userSpaceOnUse">
      <stop offset=".097" stop-color="#A8FF68"/>
      <stop offset=".501" stop-color="#2BD486"/>
      <stop offset="1" stop-color="#1686E6"/>
    </linearGradient>
    <linearGradient id="y" x1="36.119" x2="9.49" y1="17.293" y2="69.429" gradientUnits="userSpaceOnUse">
      <stop offset=".044" stop-color="#99EA51"/>
      <stop offset=".98" stop-color="#009AE5"/>
    </linearGradient>
    <linearGradient id="z" x1="63.853" x2="53.908" y1="31.497" y2="69.836" gradientUnits="userSpaceOnUse">
      <stop offset=".097" stop-color="#95F286"/>
      <stop offset=".501" stop-color="#2BD486"/>
    </linearGradient>
  </defs>
  <path fill="url(#a)" d="m37.81 28.732-33.834-8.27L0 29.87l12.196 39.01L44.601 80 58.55 57.181 37.81 28.732Z"/>
  <path fill="url(#b)" d="M3.976 20.463 0 29.869 12.196 68.88l5.728-16.073 1.25-9.375-15.198-22.97Z"/>
  <path fill="url(#c)" d="M37.81 28.581 3.976 20.313 0 29.718l39.783 13.758L37.81 28.58Z"/>
  <path fill="url(#d)" d="M3.976 20.463 0 29.87l13.227 4.574-9.251-13.98Z"/>
  <path fill="url(#e)" d="M80 22.884 71.868 6.963 30.377 0l-18.18 68.88L44.601 80 80 22.884Z"/>
  <path fill="url(#f)" d="M80 22.884 71.87 6.963 44.602 80 80 22.884Z"/>
  <path fill="url(#g)" d="M80 22.884 71.87 6.963 30.376 0l13.799 20.932L80 22.884Z"/>
  <path fill="url(#h)" d="M80 22.884 71.869 6.963 30.376 0l13.799 20.932L80 22.884Z"/>
  <path fill="url(#i)" d="M80 22.885 71.87 6.963l-5.664 15.17L80 22.885Z"/>
  <path fill="url(#j)" d="m19.175 43.432-.187-.283-6.79 25.732L44.601 80 58.55 57.182l-39.375-13.75Z"/>
  <path fill="url(#k)" d="M58.55 57.182 40.425 29.057l-16.721-3.773-11.507 43.597L44.602 80 58.55 57.182Z"/>
  <path fill="url(#l)" d="M44.175 20.932 30.375 0 12.197 68.88l16.978-16.073 15-31.875Z"/>
  <path fill="url(#m)" d="m12.197 68.88 16.978-16.073 2.378-5.053-12.378-4.322-.187-.283-3.22 12.206-3.57 13.525Z"/>
  <path fill="url(#n)" d="m20.611 36.998 13.764 4.76 6.05-12.7-16.722-3.774-3.092 11.714Z"/>
  <path fill="url(#o)" d="M44.602 80 58.55 57.182l-3.438-5.335L44.602 80Z"/>
  <path fill="url(#p)" d="m58.55 57.182-3.438-5.335-1.366 3.658 4.803 1.677Z"/>
  <path fill="url(#q)" d="M29.175 52.807 12.197 68.88 44.602 80 29.175 52.807Z"/>
  <path fill="url(#r)" d="M66.205 22.132 44.602 80 80 22.884l-13.795-.752Z"/>
  <path fill="url(#s)" d="M65 15H15v50h50V15Z"/>
  <g opacity=".2">
    <path fill="url(#t)" d="M15.007 23.201v41.8h38.6l4.779-7.818-20.738-28.448L15.007 23.2Z"/>
    <path fill="url(#u)" d="m15.007 60.544 2.757-7.736 1.25-9.374-4.007-6.056v23.166Z"/>
    <path fill="url(#v)" d="M15.007 35.117 39.62 43.63l-1.973-14.896-22.641-5.533v11.916Z"/>
    <path fill="url(#w)" d="M65.003 46.818V15.003H26.255l-11.248 42.62V65h38.727l11.27-18.182Z"/>
    <path fill="url(#x)" d="m44.012 20.935 20.991 1.144v-7.076H40.102l3.91 5.932Z"/>
    <path fill="url(#y)" d="M15.007 57.624V65h1.128l12.878-12.192 14.999-31.873-3.91-5.932H26.256l-11.25 42.62Z"/>
    <path fill="url(#z)" d="m53.734 65 11.27-18.182V24.915L50.037 65h3.696Z"/>
  </g>
  <path fill="#fff" d="M39.901 55.6h-18.7v3.1h18.7v-3.1Z"/>
  <path fill="#fff" d="M48.694 21.316h3.678l7.768 18.772h-4.169l-1.657-4.18h-7.665l-1.658 4.18h-4.065l7.768-18.772Zm4.196 10.97-2.409-6.044-2.408 6.044h4.817Z"/>
  <path fill="#fff" d="m37.76 40.647-1.993-1.837c-1.528 1.012-3.367 1.597-5.386 1.597-5.594 0-9.608-4.286-9.608-9.585v-.053c0-5.3 4.066-9.64 9.66-9.64 5.593 0 9.607 4.287 9.607 9.586v.053c0 1.97-.596 3.808-1.606 5.353l1.865 1.624-2.538 2.902Zm-4.945-4.526-2.952-2.583 2.538-2.93 2.977 2.77a6.69 6.69 0 0 0 .492-2.556v-.053c0-3.196-2.278-5.858-5.49-5.858-3.21 0-5.437 2.609-5.437 5.804v.053c0 3.196 2.278 5.858 5.49 5.858.88 0 1.683-.16 2.382-.505Z"/>
  <rect width="80" height="25" y="55" fill="#3BEA62" rx="7"/>
  <g opacity=".9">
    <path fill="#010101" d="M6.866 72.43h2.14v-2.971h1.627c2.182 0 3.934-1.188 3.934-3.48v-.028c0-2.023-1.404-3.423-3.725-3.423H6.866v9.901Zm2.14-4.909v-3.027h1.655c1.07 0 1.737.523 1.737 1.5v.028c0 .848-.625 1.499-1.695 1.499H9.007Z"/>
    <path fill="#010101" d="M16.151 72.43h2.14v-3.17h1.683l2.084 3.17h2.503l-2.377-3.537c1.237-.467 2.085-1.471 2.085-3.07v-.028c0-.933-.292-1.711-.834-2.263-.64-.65-1.599-1.004-2.836-1.004h-4.448v9.901Zm2.14-5.093v-2.843h2.127c1.043 0 1.682.481 1.682 1.415v.028c0 .834-.598 1.4-1.64 1.4h-2.168Z"/>
    <path fill="#010101" d="M26.196 72.43h7.409v-1.94h-5.282v-2.079h4.587v-1.938h-4.587v-2.008h5.212v-1.938h-7.339v9.901Z"/>
    <path fill="#010101" d="M38.608 72.5h1.89l3.934-9.972h-2.308l-2.543 6.973-2.544-6.973h-2.363l3.934 9.972Z"/>
    <path fill="#010101" d="M46.03 72.43h2.14v-9.902h-2.14v9.901Z"/>
    <path fill="#010101" d="M50.602 72.43h7.41v-1.94h-5.283v-2.079h4.587v-1.938H52.73v-2.008h5.213v-1.938h-7.34v9.901Z"/>
    <path fill="#010101" d="M62.486 72.5h1.863l2.196-6.478L68.74 72.5h1.863l3.322-9.972h-2.238l-2.016 6.705L67.49 62.5h-1.835l-2.182 6.733-2.016-6.705h-2.293l3.322 9.972Z"/>
  </g>
</svg>
