<svg width="16" height="16" viewBox="0 0 16 16" fill="none" xmlns="http://www.w3.org/2000/svg">
<g clip-path="url(#clip0_18236_15354)">
<path fill-rule="evenodd" clip-rule="evenodd" d="M9 9.50215C9 8.32441 10.2951 7.60608 11.2942 8.22967L15.2962 10.7275C16.2372 11.3149 16.2372 12.6851 15.2962 13.2725L11.2942 15.7703C10.2951 16.3939 9 15.6756 9 14.4978V9.50215ZM10.7647 9.07799C10.4317 8.87013 10 9.10957 10 9.50215V14.4978C10 14.8904 10.4317 15.1298 10.7647 14.922L14.7667 12.4241C15.0804 12.2284 15.0804 11.7716 14.7667 11.5758L10.7647 9.07799Z" fill="#57965C"/>
<path d="M10 9.50217C10 9.10959 10.4317 8.87015 10.7647 9.07801L14.7667 11.5758C15.0804 11.7716 15.0804 12.2284 14.7667 12.4242L10.7647 14.922C10.4317 15.1299 10 14.8904 10 14.4978V9.50217Z" fill="#253627"/>
<path fill-rule="evenodd" clip-rule="evenodd" d="M13 8.11542L14 8.73957V3.60275C14 3.12191 13.7432 2.7208 13.4031 2.41334C13.0629 2.10586 12.5987 1.85189 12.0676 1.64885C11.0021 1.24147 9.56381 1 8 1C6.43619 1 4.99792 1.24147 3.93236 1.64885C3.40129 1.85189 2.9371 2.10586 2.59694 2.41334C2.25679 2.7208 2 3.12191 2 3.60275V6.5C2 6.77614 2.22386 7 2.5 7C2.77614 7 3 6.77614 3 6.5V5.09723C3.27236 5.27221 3.58833 5.42512 3.93236 5.55665C4.99792 5.96403 6.43619 6.2055 8 6.2055C9.56381 6.2055 11.0021 5.96403 12.0676 5.55665C12.4117 5.42512 12.7276 5.27221 13 5.09723V8.11542ZM3 3.60275C3 3.50293 3.05102 3.35087 3.2675 3.15519C3.48396 2.95953 3.82523 2.7604 4.28947 2.58291C5.21452 2.22925 6.52624 2 8 2C9.47376 2 10.7855 2.22925 11.7105 2.58291C12.1748 2.7604 12.516 2.95953 12.7325 3.15519C12.949 3.35087 13 3.50293 13 3.60275C13 3.70256 12.949 3.85463 12.7325 4.05031C12.516 4.24597 12.1748 4.4451 11.7105 4.62258C10.7855 4.97625 9.47376 5.2055 8 5.2055C6.52624 5.2055 5.21452 4.97625 4.28947 4.62258C3.82523 4.4451 3.48396 4.24597 3.2675 4.05031C3.05102 3.85463 3 3.70256 3 3.60275Z" fill="#CED0D6"/>
<path d="M8 14.0027C6.52624 14.0027 5.21452 13.7735 4.28947 13.4198C3.82523 13.2424 3.48396 13.0432 3.2675 12.8476C3.05102 12.6519 3 12.4998 3 12.4V9.70711L4.14645 10.8536C4.34171 11.0488 4.65829 11.0488 4.85355 10.8536C5.04882 10.6583 5.04882 10.3417 4.85355 10.1464L2.85322 8.14612C2.76277 8.05583 2.6379 8 2.5 8C2.3652 8 2.24286 8.05334 2.15294 8.14007L2.14645 8.14645L0.146446 10.1464C-0.0488155 10.3417 -0.0488155 10.6583 0.146446 10.8536C0.341709 11.0488 0.658291 11.0488 0.853553 10.8536L2 9.70711V12.4C2 12.8808 2.25679 13.2819 2.59694 13.5894C2.9371 13.8969 3.40129 14.1509 3.93236 14.3539C4.99792 14.7613 6.43619 15.0027 8 15.0027V14.0027Z" fill="#CED0D6"/>
</g>
<defs>
<clipPath id="clip0_18236_15354">
<rect width="16" height="16" fill="white"/>
</clipPath>
</defs>
</svg>
