<svg width="16" height="16" viewBox="0 0 16 16" fill="none" xmlns="http://www.w3.org/2000/svg">
<path d="M13 13.5C13 13.2239 13.2239 13 13.5 13H15.5C15.7761 13 16 13.2239 16 13.5V15.5C16 15.7761 15.7761 16 15.5 16H13.5C13.2239 16 13 15.7761 13 15.5V13.5Z" fill="#6C707E"/>
<path d="M9 13.5C9 13.2239 9.22386 13 9.5 13H11.5C11.7761 13 12 13.2239 12 13.5V15.5C12 15.7761 11.7761 16 11.5 16H9.5C9.22386 16 9 15.7761 9 15.5V13.5Z" fill="#6C707E"/>
<path d="M13 9.5C13 9.22386 13.2239 9 13.5 9H15.5C15.7761 9 16 9.22386 16 9.5V11.5C16 11.7761 15.7761 12 15.5 12H13.5C13.2239 12 13 11.7761 13 11.5V9.5Z" fill="#6C707E"/>
<path fill-rule="evenodd" clip-rule="evenodd" d="M8.71446 3H6.58589V6.213C6.2681 6.13162 6.00514 6.10445 5.65995 6.10445C3.43549 6.10445 2 7.49931 2 9.64854C2 11.8792 3.3533 13.0407 5.95308 13.0434C6.66318 13.0434 7.32928 12.9891 8.14461 12.8566C8.2695 12.594 8.46845 12.3734 8.71446 12.2219V3ZM5.94273 7.8626C6.20574 7.8626 6.41117 7.88972 6.66048 7.97115V11.3554C6.3564 11.3961 6.16463 11.4094 5.92907 11.4094C4.83877 11.4094 4.24428 10.7907 4.24428 9.67016C4.24428 8.51929 4.86614 7.8626 5.94273 7.8626Z" fill="#6C707E"/>
<path d="M8 15.0269C7.97055 15.041 7.94061 15.0551 7.91016 15.0692L8 15.1116V15.0269Z" fill="#6C707E"/>
<path d="M12.1104 12H9.95988C9.98453 11.6059 9.99487 11.1262 9.99487 10.5238V6.36642L12.1207 6.36638V11.2511C12.1207 11.5224 12.1175 11.7709 12.1104 12Z" fill="#6C707E"/>
<path d="M9.99487 3H12.1234V5.16282H9.99487V3Z" fill="#6C707E"/>
</svg>
