<svg width="16" height="16" viewBox="0 0 16 16" fill="none" xmlns="http://www.w3.org/2000/svg">
<path d="M8 1C4.13401 1 1 4.13401 1 8C1 11.866 4.13401 15 8 15C9.48711 15 10.8659 14.5363 11.9997 13.7455V12H10.417V11.0597C10.417 10.5009 10.5376 9.9638 10.8115 9.48034L10.8154 9.47346C11.0918 8.99466 11.485 8.62194 11.9754 8.36813C12.4669 8.11211 13.0088 8 13.573 8C14.0702 8 14.5511 8.08794 14.9941 8.28929C14.998 8.19335 15 8.0969 15 8C15 4.13401 11.866 1 8 1Z" fill="#25324D"/>
<path d="M8 14C4.68629 14 2 11.3137 2 8C2 4.68629 4.68629 2 8 2C11.3137 2 14 4.68629 14 8C14 8.00757 14 8.01514 14 8.02271C14.3453 8.06038 14.6793 8.1462 14.9941 8.28929C14.998 8.19335 15 8.0969 15 8C15 4.13401 11.866 1 8 1C4.13401 1 1 4.13401 1 8C1 11.866 4.13401 15 8 15C9.48711 15 10.8659 14.5363 11.9997 13.7455V12.4725C10.9382 13.4224 9.53656 14 8 14Z" fill="#548AF7"/>
<path d="M12.9997 13.5815C12.9997 13.3717 13.0356 13.1866 13.1075 13.026C13.1826 12.8621 13.2725 12.7212 13.377 12.6032C13.4848 12.4853 13.6269 12.346 13.8033 12.1854C13.9699 12.0314 14.1006 11.9019 14.1953 11.7971C14.2933 11.6922 14.375 11.5676 14.4403 11.4235C14.5089 11.2793 14.5432 11.117 14.5432 10.9368C14.5432 10.7434 14.5007 10.5714 14.4158 10.4206C14.3341 10.2699 14.2182 10.1536 14.0679 10.0716C13.9209 9.98642 13.751 9.94382 13.5583 9.94382C13.3427 9.94382 13.1532 9.99134 12.9899 10.0864C12.8266 10.1781 12.7008 10.3092 12.6126 10.4796C12.5244 10.6468 12.4803 10.8401 12.4803 11.0597H11.417C11.417 10.6468 11.5052 10.2846 11.6816 9.97331C11.8613 9.66198 12.1128 9.42275 12.4362 9.25562C12.7629 9.08521 13.1418 9 13.573 9C13.9846 9 14.3456 9.07865 14.6559 9.23595C14.9662 9.38998 15.2047 9.60955 15.3713 9.89466C15.5412 10.1765 15.6245 10.5026 15.6212 10.8729C15.6212 11.1613 15.5755 11.4136 15.484 11.6299C15.3925 11.8429 15.2831 12.0215 15.1557 12.1657C15.0283 12.3066 14.8617 12.464 14.6559 12.6376C14.5089 12.7687 14.3913 12.8801 14.3031 12.9719C14.2182 13.0604 14.1479 13.1603 14.0924 13.2718C14.0369 13.3799 14.0091 13.4995 14.0091 13.6306V13.8174H12.9997V13.5815ZM12.8968 14.7416H14.1512V16H12.8968V14.7416Z" fill="#CED0D6"/>
</svg>
