<svg width="16" height="16" viewBox="0 0 16 16" fill="none" xmlns="http://www.w3.org/2000/svg">
<path fill-rule="evenodd" clip-rule="evenodd" d="M4 8H14V7H4V8Z" fill="#9AA7B0"/>
<path fill-rule="evenodd" clip-rule="evenodd" d="M4 6H14V5H4V6Z" fill="#9AA7B0"/>
<path fill-rule="evenodd" clip-rule="evenodd" d="M4 11H14V10H4V11Z" fill="#9AA7B0"/>
<path fill-rule="evenodd" clip-rule="evenodd" d="M11 13H13V5H11V13ZM8 13H10V5H8V13ZM5 13H7V5H5V13ZM4 14H14V4H4V14Z" fill="#9AA7B0"/>
<path fill-rule="evenodd" clip-rule="evenodd" d="M2 3H13V2H2V3Z" fill="#9AA7B0"/>
<path fill-rule="evenodd" clip-rule="evenodd" d="M2 2L2 12L3 12L3 2L2 2Z" fill="#9AA7B0"/>
</svg>
