<svg width="16" height="16" viewBox="0 0 16 16" fill="none" xmlns="http://www.w3.org/2000/svg">
<path fill-rule="evenodd" clip-rule="evenodd" d="M15 6.19134C15 6.96765 12.7134 7.59698 9.89285 7.59698C7.07225 7.59698 4.78571 6.96765 4.78571 6.19134C4.78571 5.41503 7.07225 4.78571 9.89285 4.78571C12.7134 4.78571 15 5.41503 15 6.19134ZM9.89287 8.53408C12.004 8.53408 13.8703 8.14075 15 7.53868V8.62778C15 9.40409 12.7134 10.0334 9.89285 10.0334C7.07225 10.0334 4.78571 9.40409 4.78571 8.62778V7.53866C5.91537 8.14074 7.78172 8.53408 9.89287 8.53408ZM9.89289 10.9705C12.004 10.9705 13.8703 10.5772 15 9.97512V11.1328C15 11.8712 12.7135 12.4699 9.89287 12.4699C7.07227 12.4699 4.78572 11.8712 4.78572 11.1328V9.9751C5.91538 10.5772 7.78174 10.9705 9.89289 10.9705ZM4.78571 13.5944V12.4115C5.91537 13.0136 7.78174 13.4069 9.89289 13.4069C12.004 13.4069 13.8703 13.0136 15 12.4115V13.5918L15 13.5944C15 14.3707 12.7135 15 9.89287 15C7.07228 15 4.78573 14.3707 4.78572 13.5944H4.78571Z" fill="#9AA7B0"/>
<path fill-rule="evenodd" clip-rule="evenodd" d="M6.17858 3.81127C8.99918 3.81127 11.2857 3.18195 11.2857 2.40564C11.2857 1.62932 8.99918 1 6.17858 1C3.35799 1 1.07144 1.62932 1.07144 2.40564C1.07144 3.18195 3.35799 3.81127 6.17858 3.81127ZM4 9.47457V11.0803C2.26907 10.8553 1.07145 10.3705 1.07145 9.80863L1.07147 9.80542V8.6258C1.79109 9.00933 2.80965 9.30816 4 9.47457ZM4 7.03815V8.55672C2.26906 8.34267 1.07144 7.88148 1.07144 7.34706V6.18937C1.79106 6.57291 2.80964 6.87174 4 7.03815ZM4.08088 6.12404C4.21093 5.57576 4.49165 5.08434 4.87824 4.69746C3.3119 4.57289 1.96251 4.22786 1.07145 3.75296V4.84207C1.07145 5.4126 2.30649 5.90375 4.08088 6.12404Z" fill="#9AA7B0"/>
</svg>
