<svg width="256" height="256" viewBox="0 0 256 256" fill="none" xmlns="http://www.w3.org/2000/svg">
<path d="M215.004 245.518H98.9856C91.476 245.431 84.3086 242.364 79.0595 236.993C73.8105 231.622 70.9097 224.386 70.995 216.876V186.159C70.9097 178.65 73.8105 171.414 79.0595 166.043C84.3086 160.672 91.476 157.605 98.9856 157.518H215.004C222.514 157.605 229.681 160.672 234.93 166.043C240.18 171.414 243.08 178.65 242.995 186.159V216.876C243.08 224.386 240.18 231.622 234.93 236.993C229.681 242.364 222.514 245.431 215.004 245.518Z" fill="#FDB60D"/>
<path d="M101.673 182.29H131.882V190.131H110.427V198.255H129.308V206.093H110.427V214.503H132.169V222.341H101.673V182.29Z" fill="black"/>
<path d="M153.736 182.007H161.86L179.025 222.341H169.813L166.151 213.36H149.218L145.556 222.341H136.576L153.736 182.007ZM163.008 205.578L157.685 192.59L152.366 205.578H163.008Z" fill="black"/>
<path d="M185.205 182.29H201.568C211.122 182.29 216.9 187.956 216.9 196.136V196.251C216.9 205.519 209.692 210.328 200.711 210.328H194.018V222.341H185.205V182.29ZM200.994 202.487C205.401 202.487 207.975 199.857 207.975 196.423V196.307C207.975 192.362 205.23 190.243 200.823 190.243H194.018V202.487H200.994Z" fill="black"/>
</svg>
