<svg width="32" height="32" viewBox="0 0 32 32" fill="none" xmlns="http://www.w3.org/2000/svg">
<path d="M27.593 31.2314H12.7534C12.2832 31.2314 11.8177 31.1389 11.3833 30.959C10.949 30.7791 10.5543 30.5153 10.2218 30.1829C9.88938 29.8504 9.62567 29.4557 9.44574 29.0214C9.26582 28.587 9.17322 28.1215 9.17322 27.6514V23.8116C9.17322 22.8621 9.55041 21.9516 10.2218 21.2802C10.8932 20.6087 11.8039 20.2314 12.7534 20.2314H27.593C28.5426 20.2314 29.4532 20.6087 30.1246 21.2802C30.796 21.9516 31.1732 22.8621 31.1732 23.8116V27.6514C31.1732 28.1215 31.0806 28.587 30.9007 29.0214C30.7208 29.4557 30.4571 29.8504 30.1246 30.1829C29.7922 30.5153 29.3975 30.7791 28.9631 30.959C28.5287 31.1389 28.0632 31.2314 27.593 31.2314V31.2314Z" fill="#FDB60D"/>
<path d="M13.2581 23.3281H17.0342V24.3082H14.3523V25.3237H16.7125V26.3033H14.3523V27.3547H17.0701V28.3344H13.2581L13.2581 23.3281Z" fill="black"/>
<path d="M19.7659 23.2926H20.7815L22.927 28.3344H21.7755L21.3179 27.2117H19.2011L18.7435 28.3344H17.6208L19.7659 23.2926ZM20.9249 26.239L20.2595 24.6155L19.5946 26.239H20.9249Z" fill="black"/>
<path d="M23.6995 23.3281H25.7449C25.9878 23.2993 26.234 23.3228 26.4671 23.397C26.7001 23.4711 26.9146 23.5942 27.0961 23.7582C27.2777 23.9221 27.422 24.123 27.5195 24.3473C27.617 24.5716 27.6654 24.8141 27.6614 25.0587V25.0732C27.6593 25.3268 27.6034 25.5769 27.4973 25.8072C27.3913 26.0375 27.2375 26.2427 27.0461 26.409C26.8548 26.5754 26.6303 26.6992 26.3875 26.7722C26.1447 26.8453 25.8892 26.8659 25.6378 26.8327H24.8011V28.3343H23.6995V23.3281ZM25.6732 25.8526C25.7814 25.8664 25.8914 25.8571 25.9958 25.8254C26.1002 25.7938 26.1967 25.7404 26.2791 25.6688C26.3615 25.5973 26.4278 25.5092 26.4737 25.4103C26.5197 25.3113 26.5442 25.2037 26.5458 25.0946V25.0802C26.5458 24.5871 26.2026 24.3221 25.6518 24.3221H24.8011V25.8526H25.6732Z" fill="black"/>
</svg>
