<svg xmlns="http://www.w3.org/2000/svg" width="16" height="16">
  <path d="M8,2A16.849,16.849,0,0,0,2,3.182C2,10.911,5.108,12.991,8,15c2.892-2.009,6-4.089,6-11.818A16.849,16.849,0,0,0,8,2ZM8,13.781c-.36-.252-.713-.51-1.057-.781H8V12H5.815a8.694,8.694,0,0,1-.851-1H8V10H4.346a9.24,9.24,0,0,1-.452-1H8V8H3.564c-.088-.316-.169-.646-.237-1H8V6H3.165q-.061-.479-.1-1H8V4H3.015c0-.043-.005-.082-.006-.126a15.755,15.755,0,0,1,5-.874,15.73,15.73,0,0,1,4.979.874C12.833,10.044,10.541,12,8,13.781Z" fill="#9aa7b0"/>
</svg>
