<!-- Copyright © 2000–2024 JetBrains s.r.o. -->
<svg width="16" height="16" viewBox="0 0 16 16" xmlns="http://www.w3.org/2000/svg">
  <path fill="#FAF2FF" d="M8 1.95 3.25 4.56 3.5 5a4.507 4.507 0 0 1 3.9 6.75l-.86 1.49 1.47.81 5.5-3.03V4.97l-5.5-3.03z"/>
  <path fill="none" stroke="#B153E0" stroke-linecap="round" stroke-linejoin="round" d="M3.46 4.5 8 2l5.5 3.03v5.94L8 14l-1.01-.55m1.24-5.57 5.27-2.85"/>
  <path fill="#FFFAEB" stroke="#C27D04" stroke-linecap="round" stroke-linejoin="round" d="M3.5 6.5c-1.66 0-3 1.34-3 3 0 .55.15 1.06.4 1.5l2.6 4.5L6.1 11c.25-.44.4-.95.4-1.5 0-1.66-1.34-3-3-3m0 4c-.55 0-1-.45-1-1s.45-1 1-1 1 .45 1 1-.45 1-1 1"/>
</svg>
