<!-- Copyright © 2000–2024 JetBrains s.r.o. -->
<svg width="16" height="16" viewBox="0 0 16 16" xmlns="http://www.w3.org/2000/svg">
  <path fill="#242424" fill-rule="evenodd" d="M15 7.5a4.5 4.5 0 1 1-9 0 4.5 4.5 0 0 1 9 0"/>
  <path fill="#75BCFF" fill-rule="evenodd" d="M14 7.5A3.5 3.5 0 1 1 10.5 4 3.5 3.5 0 0 1 14 7.5"/>
  <path fill="#282828" fill-rule="evenodd" d="M12 7.5a1.5 1.5 0 1 1-3.001-.001A1.5 1.5 0 0 1 12 7.5"/>
  <path fill="#242424" fill-rule="evenodd" d="M7 6H4.488A2.486 2.486 0 0 0 2.5 5a2.5 2.5 0 1 0 0 5c.815 0 1.532-.396 1.988-1H7z"/>
  <path fill="#75BCFF" fill-rule="evenodd" d="M7 7H3.908A1.496 1.496 0 0 0 1 7.5a1.496 1.496 0 0 0 2.908.5H7z"/>
</svg>
