<svg xmlns="http://www.w3.org/2000/svg" width="16" height="16">
  <defs>
    <linearGradient id="a" x1="-512" y1="268.152" x2="-512" y2="267.156" gradientTransform="matrix(6 0 0 -13 3077 3488)" gradientUnits="userSpaceOnUse">
      <stop offset="0" stop-color="#2fa323"/>
      <stop offset="1" stop-color="#0a6600"/>
    </linearGradient>
    <linearGradient id="b" x1="-512" y1="268.156" x2="-512" y2="267.156" gradientTransform="matrix(6 0 0 -13 3083 3488)" gradientUnits="userSpaceOnUse">
      <stop offset="0" stop-color="#9c6500"/>
      <stop offset="1" stop-color="#634700"/>
    </linearGradient>
    <linearGradient id="c" x1="-491.5" y1="264.339" x2="-491.5" y2="263.364" gradientTransform="matrix(5 0 0 -11 2463 2911)" gradientUnits="userSpaceOnUse">
      <stop offset="0" stop-color="#e0ffe0"/>
      <stop offset="1" stop-color="#12b812"/>
    </linearGradient>
    <linearGradient id="d" x1="-491.5" y1="264.339" x2="-491.5" y2="263.364" gradientTransform="matrix(5 0 0 -11 2468 2911)" gradientUnits="userSpaceOnUse">
      <stop offset="0" stop-color="#fff3d9"/>
      <stop offset="1" stop-color="#a36222"/>
    </linearGradient>
    <linearGradient id="e" x1="-460.75" y1="258.099" x2="-460.75" y2="257.083" gradientTransform="matrix(4 0 0 -8.77 1849 2267.53)" gradientUnits="userSpaceOnUse">
      <stop offset="0" stop-color="#4aff36"/>
      <stop offset="1" stop-color="#36ba27"/>
    </linearGradient>
    <linearGradient id="f" x1="-460.75" y1="258.068" x2="-460.75" y2="257.067" gradientTransform="matrix(4 0 0 -8.77 1853 2267.53)" gradientUnits="userSpaceOnUse">
      <stop offset="0" stop-color="#ffb700"/>
      <stop offset="1" stop-color="#a86500"/>
    </linearGradient>
  </defs>
  <path d="M2.63,3.07,2,3.33V4c0,7,2.84,9,5.42,10.82l.34.18H8V2A15.881,15.881,0,0,0,2.63,3.07Z" fill="url(#a)"/>
  <path d="M8.65,14.77C11.16,13,14,11,14,4V3.33l-.62-.26A15.981,15.981,0,0,0,8,2V15h.32Z" fill="url(#b)"/>
  <path d="M8,14C5.59,12.3,3,10.54,3,4A14.812,14.812,0,0,1,8,3Z" fill="url(#c)"/>
  <path d="M8,14c2.41-1.7,5-3.46,5-10A14.812,14.812,0,0,0,8,3Z" fill="url(#d)"/>
  <path d="M4,4.7c.15,5,2,6.62,4,8.07H8V4A13.777,13.777,0,0,0,4,4.7Z" fill="url(#e)"/>
  <path d="M12,4.7A13.777,13.777,0,0,0,8,4v8.77C10.06,11.29,11.85,9.63,12,4.7Z" fill="url(#f)"/>
  <g>
    <path d="M14.259,3,0,10.371v.872L.908,13h.8L16,5.611V4.757L15.092,3Z" fill="#810000"/>
    <path d="M.992,10.984l13.5-6.976L15,5,1.506,11.978Z" fill="#ff7b57"/>
  </g>
</svg>
