<!-- Copyright © 2000–2024 JetBrains s.r.o. -->
<svg width="13" height="13" viewBox="0 0 13 13" xmlns="http://www.w3.org/2000/svg">
  <path fill="#fff" d="M6.36 12.71s-.07 0-.1-.03C2.87 10.8 1 8.6 1 6.47V1.85c0-.23.16-.44.39-.49l5-1.1s.07-.01.11-.01.07 0 .11.01l5 1.1c.23.05.39.25.39.49v3.91c-.31-.21-.65-.36-1-.49V2.25l-4.5-.99-4.5.99v4.23c0 1.4 1.17 2.96 3.24 4.39.23.7.61 1.34 1.12 1.84M3.41 5.73l2.63.04c.25 0 .45-.2.45-.44 0-.25-.2-.45-.44-.46l-2.63-.04c-.21-.03-.45.2-.46.44 0 .25.2.45.44.46ZM4.76 9.5l.25.11S5 9.54 5 9.5c0-.29.03-.56.08-.83a.45.45 0 0 0-.55.24c-.1.23 0 .49.23.59M3.51 7.52l1.83.28c.12-.3.28-.58.46-.84l-2.15-.32a.444.444 0 0 0-.51.38c-.04.25.13.48.38.51Zm-.04-3.59 2.63-.3c.25-.03.42-.25.4-.5s-.27-.42-.5-.4l-2.63.3c-.25.03-.42.25-.4.5.03.23.22.4.45.4z"/>
  <path fill="#fff" d="M9.5 6C7.57 6 6 7.57 6 9.5S7.57 13 9.5 13 13 11.43 13 9.5 11.43 6 9.5 6m-.21 5.39c-.11.11-.27.18-.43.18s-.32-.07-.43-.18L7.17 10.1a.6.6 0 1 1 .86-.84l.83.86 2.31-2.33c.23-.24.61-.24.85 0 .24.23.24.61 0 .85l-2.74 2.77Z"/>
</svg>
