<!-- Copyright © 2000–2024 JetBrains s.r.o. -->
<svg width="16" height="16" viewBox="0 0 16 16" xmlns="http://www.w3.org/2000/svg">
  <path fill="none" stroke="#369650" stroke-linecap="round" stroke-linejoin="round" d="M6.64 13.25C3.99 11.6 2.5 9.72 2.5 7.99V3.35l5-1.1 5 1.1v3.17M7.05 4.68l-2.63.3m2.63 1.83-2.63-.03m2.63 2.17-2.48-.38m2.04 2.32-.66-.3"/>
  <path fill="#369650" d="M12 8c-2.21 0-4 1.79-4 4s1.79 4 4 4 4-1.79 4-4-1.79-4-4-4m-.36 6.17c-.11.11-.27.18-.43.18s-.32-.07-.43-.18l-1.52-1.56a.6.6 0 1 1 .86-.84l1.09 1.12 2.87-2.9c.23-.24.61-.24.85 0 .24.23.24.61 0 .85l-3.3 3.33z"/>
</svg>
