<!-- Copyright © 2000–2024 JetBrains s.r.o. -->
<svg width="13" height="13" viewBox="0 0 13 13" xmlns="http://www.w3.org/2000/svg">
  <path d="M6.5 12.75c-.08 0-.17-.02-.24-.06C2.87 10.81 1 8.61 1 6.48V1.85c0-.23.16-.44.39-.49l5-1.1s.07-.01.11-.01.07 0 .11.01l5 1.1c.23.05.39.25.39.49v4.63c0 2.12-1.87 4.33-5.26 6.21q-.12.06-.24.06M2 2.25v4.23c0 1.67 1.64 3.55 4.5 5.19C9.36 10.03 11 8.15 11 6.48V2.25l-4.5-.99zm1.47 1.68 2.63-.3c.25-.03.42-.25.4-.5s-.27-.42-.5-.4l-2.63.3c-.25.03-.42.25-.4.5.03.23.22.4.45.4zM6.5 5.32c0-.25-.2-.45-.44-.46l-2.63-.04c-.21-.03-.45.2-.46.44 0 .25.2.45.44.46l2.63.04c.25 0 .45-.2.45-.44Zm-.01 2.19A.44.44 0 0 0 6.11 7l-2.47-.37a.444.444 0 0 0-.51.38c-.04.25.13.48.38.51l2.47.37h.07c.22 0 .41-.16.44-.38m-.03 2.25c.1-.23 0-.49-.23-.59l-1.1-.49c-.23-.1-.49 0-.59.23s0 .49.23.59l1.1.49a.445.445 0 0 0 .59-.23"/>
</svg>
