<!-- Copyright © 2000–2024 JetBrains s.r.o. -->
<svg width="13" height="13" viewBox="0 0 13 13" xmlns="http://www.w3.org/2000/svg">
  <path fill="#c42b1d" d="M2.97 5.26c0-.25.25-.48.46-.44l2.63.04c.25 0 .45.21.44.46 0 .25-.2.44-.45.44l-2.63-.04c-.25 0-.45-.21-.44-.46Zm2.27 5.6C3.17 9.43 2 7.88 2 6.47V2.24l4.5-.99 4.5.99v3.02c.35.13.69.28 1 .49V1.84c0-.23-.16-.44-.39-.49l-5-1.1S6.54.24 6.5.24s-.07 0-.11.01l-5 1.1c-.23.05-.39.25-.39.49v4.63c0 2.12 1.87 4.33 5.26 6.21.03.02.07.02.1.03-.52-.51-.9-1.14-1.12-1.84ZM3.51 7.51l1.83.28c.12-.3.28-.58.46-.84l-2.15-.32a.444.444 0 0 0-.51.38c-.04.25.13.48.38.51Zm-.04-3.59 2.63-.3c.25-.03.42-.25.4-.5s-.27-.42-.5-.4l-2.63.3c-.25.03-.42.25-.4.5.03.23.22.4.45.4zm1.29 5.57.25.11S5 9.53 5 9.49c0-.29.03-.56.08-.83a.45.45 0 0 0-.55.24c-.1.23 0 .49.23.59"/>
  <path fill="#c42b1d" d="M9.5 5.99C7.57 5.99 6 7.56 6 9.49s1.57 3.5 3.5 3.5 3.5-1.57 3.5-3.5-1.57-3.5-3.5-3.5m1.92 4.58c.23.23.23.61 0 .85-.12.12-.27.18-.42.18s-.31-.06-.42-.18L9.5 10.34l-1.08 1.08c-.12.12-.27.18-.42.18s-.31-.06-.42-.18a.61.61 0 0 1 0-.85l1.08-1.08-1.08-1.08a.61.61 0 0 1 0-.85.61.61 0 0 1 .85 0l1.08 1.08 1.08-1.08a.61.61 0 0 1 .85 0c.23.23.23.61 0 .85l-1.08 1.08 1.08 1.08Z"/>
</svg>
