<!-- Copyright © 2000–2024 JetBrains s.r.o. -->
<svg width="16" height="16" viewBox="0 0 16 16" xmlns="http://www.w3.org/2000/svg">
  <path fill="#c75450" d="M7 12c0-.77.19-1.49.5-2.14V3.04l4 .88v3.13c.17-.02.33-.05.5-.05.34 0 .68.04 1 .1V2.71L7.5 1.5 2 2.71v5.45c0 2.81 3.09 5.01 5.5 6.34.05-.03.1-.06.15-.08C7.25 13.7 7 12.89 7 12"/>
  <path fill="#c75450" d="M12 8c-2.21 0-4 1.79-4 4s1.79 4 4 4 4-1.79 4-4-1.79-4-4-4m1.92 5.08c.23.23.23.61 0 .85-.12.12-.27.18-.42.18s-.31-.06-.42-.18L12 12.85l-1.08 1.08c-.12.12-.27.18-.42.18s-.31-.06-.42-.18a.61.61 0 0 1 0-.85L11.16 12l-1.08-1.08a.61.61 0 0 1 0-.85.61.61 0 0 1 .85 0l1.08 1.08 1.08-1.08a.61.61 0 0 1 .85 0c.23.23.23.61 0 .85L12.86 12l1.08 1.08Z"/>
</svg>
