<!-- Copyright © 2000–2024 JetBrains s.r.o. -->
<svg width="16" height="16" viewBox="0 0 16 16" xmlns="http://www.w3.org/2000/svg">
  <path fill="#59a869" d="M7 12c0-.77.19-1.49.5-2.14V3.04l4 .88v3.13c.17-.02.33-.05.5-.05.34 0 .68.04 1 .1V2.71L7.5 1.5 2 2.71v5.45c0 2.81 3.09 5.01 5.5 6.34.05-.03.1-.06.15-.08C7.25 13.7 7 12.89 7 12"/>
  <path fill="#59a869" d="M12 8c-2.21 0-4 1.79-4 4s1.79 4 4 4 4-1.79 4-4-1.79-4-4-4m-.36 6.17c-.11.11-.27.18-.43.18s-.32-.07-.43-.18l-1.52-1.56a.6.6 0 1 1 .86-.84l1.09 1.12 2.87-2.9c.23-.24.61-.24.85 0 .24.23.24.61 0 .85l-3.3 3.33Z"/>
</svg>
