<!-- Copyright © 2000–2024 JetBrains s.r.o. -->
<svg width="16" height="16" viewBox="0 0 16 16" xmlns="http://www.w3.org/2000/svg">
  <path fill="none" stroke="#DB3B4B" stroke-linecap="round" stroke-linejoin="round" d="M6.64 13.25C3.99 11.6 2.5 9.72 2.5 7.99V3.35l5-1.1 5 1.1v3.17M7.05 4.68l-2.63.3m2.63 1.83-2.63-.03m2.63 2.17-2.48-.38m2.04 2.32-.66-.3"/>
  <path fill="#DB3B4B" d="M12 8c-2.21 0-4 1.79-4 4s1.79 4 4 4 4-1.79 4-4-1.79-4-4-4m1.92 5.08c.23.23.23.61 0 .85-.12.12-.27.18-.42.18s-.31-.06-.42-.18L12 12.85l-1.08 1.08c-.12.12-.27.18-.42.18s-.31-.06-.42-.18a.61.61 0 0 1 0-.85L11.16 12l-1.08-1.08a.61.61 0 0 1 0-.85.61.61 0 0 1 .85 0l1.08 1.08 1.08-1.08a.61.61 0 0 1 .85 0c.23.23.23.61 0 .85L12.86 12l1.08 1.08z"/>
</svg>
