<!-- Copyright © 2000–2024 JetBrains s.r.o. -->
<svg width="16" height="16" viewBox="0 0 16 16" xmlns="http://www.w3.org/2000/svg">
  <path d="M4 5.98c-.01-.28.2-.51.48-.52l3-.13c.27-.02.51.2.52.48s-.2.51-.48.52l-3 .13H4.5c-.27 0-.49-.21-.5-.48m.5-1.25h.08l3-.5c.27-.04.46-.3.41-.58a.506.506 0 0 0-.58-.41l-3 .5c-.27.04-.46.3-.41.58.04.25.25.42.49.42Zm2.76 8.8C4.58 12 3 10.24 3 8.74V3.01l5-1 5 1V7.1c.35.07.68.18 1 .32V2.6c0-.24-.17-.44-.4-.49l-5.5-1.1h-.2l-5.5 1.1c-.23.05-.4.25-.4.49v6.13c0 2.13 2.05 4.34 5.78 6.21.07.04.15.05.22.05h.02c-.33-.44-.58-.93-.76-1.47Zm-2.55-3.51 2.58.38c.11-.32.25-.63.42-.92a.5.5 0 0 0-.13-.05l-2.72-.41a.51.51 0 0 0-.57.42c-.04.27.15.53.42.57Zm1.56 2.1.76.2c0-.11-.03-.21-.03-.32 0-.24.04-.47.07-.7l-.54-.14a.5.5 0 0 0-.61.35.5.5 0 0 0 .35.61M4.48 8.23l3 .15h.02c.26 0 .49-.21.5-.48.01-.28-.2-.51-.47-.52l-3-.15c-.26-.04-.51.2-.52.47s.2.51.47.52Z"/>
  <path d="M12 8c-2.21 0-4 1.79-4 4s1.79 4 4 4 4-1.79 4-4-1.79-4-4-4m-.36 6.17c-.11.11-.27.18-.43.18s-.32-.07-.43-.18l-1.52-1.56a.6.6 0 1 1 .86-.84l1.09 1.12 2.87-2.9c.23-.24.61-.24.85 0 .24.23.24.61 0 .85l-3.3 3.33Z"/>
</svg>
