<!-- Copyright © 2000–2024 JetBrains s.r.o. -->
<svg width="16" height="16" viewBox="0 0 16 16" xmlns="http://www.w3.org/2000/svg">
  <path fill="#fff" d="M5.92 11.51c.07-.27.34-.42.61-.35l1.1.29c.27.07.43.35.35.61-.06.22-.26.37-.48.37-.04 0-.09 0-.13-.02l-1.1-.29a.49.49 0 0 1-.35-.61m4.52 1.43.94-.94-.2-.2c-.82.74-1.88 1.46-3.18 2.14-3.14-1.62-5-3.56-5-5.21V3.01l5-1 5 1V7h1V2.6c0-.24-.17-.44-.4-.49l-5.5-1.1h-.2l-5.5 1.1c-.23.05-.4.25-.4.49v6.13c0 2.13 2.05 4.34 5.78 6.21.07.04.15.05.22.05s.15-.02.22-.05c.65-.33 1.23-.67 1.78-1.02.02-.37.17-.72.43-.99ZM7.5 10.43c.24 0 .46-.18.49-.43a.505.505 0 0 0-.42-.57l-2.72-.41a.51.51 0 0 0-.57.42c-.04.27.15.53.42.57l2.72.41h.07Zm-3-5.7h.08l3-.5c.27-.04.46-.3.41-.58a.506.506 0 0 0-.58-.41l-3 .5c-.27.04-.46.3-.41.58.04.25.25.42.49.42Zm3.02 2.65-3-.15c-.26-.04-.51.2-.52.47s.2.51.47.52l3 .15h.02c.26 0 .49-.21.5-.48.01-.28-.2-.51-.47-.52Zm-.04-2.05-3 .13c-.28.01-.49.25-.48.52s.23.48.5.48h.02l3-.13c.28-.01.49-.25.48-.52a.495.495 0 0 0-.52-.48"/>
  <path fill="#fff" d="M16 10V8.5c0-.28-.22-.5-.5-.5h-4c-.28 0-.5.22-.5.5V10c0 .13.05.26.15.35L12.8 12l-1.65 1.65A.5.5 0 0 0 11 14v1.5c0 .28.22.5.5.5h4c.28 0 .5-.22.5-.5V14a.47.47 0 0 0-.15-.35L14.2 12l1.65-1.65A.5.5 0 0 0 16 10m-1 5h-3v-.79l1.5-1.5 1.5 1.5zm0-5.21-1.5 1.5-1.5-1.5V9h3z"/>
</svg>
