<!-- Copyright © 2000–2024 JetBrains s.r.o. -->
<svg width="16" height="16" viewBox="0 0 16 16" xmlns="http://www.w3.org/2000/svg">
  <path fill="#499c54" d="M7 12c0-1.12.38-2.14 1-2.97V2.54l4.5.99v3.52c.53.05 1.03.17 1.5.37v-5.1L8 1 2 2.32v5.76c0 3.07 3.38 5.46 6 6.92h.02C7.39 14.16 7 13.14 7 12.01Z"/>
  <path fill="#499c54" d="M12 8c-2.21 0-4 1.79-4 4s1.79 4 4 4 4-1.79 4-4-1.79-4-4-4m-.36 6.17c-.11.11-.27.18-.43.18s-.32-.07-.43-.18l-1.52-1.56a.6.6 0 1 1 .86-.84l1.09 1.12 2.87-2.9c.23-.24.61-.24.85 0 .24.23.24.61 0 .85l-3.3 3.33Z"/>
</svg>
