<!-- Copyright © 2000–2024 JetBrains s.r.o. -->
<svg xmlns:xlink="http://www.w3.org/1999/xlink" width="16" height="16" viewBox="0 0 16 16" xmlns="http://www.w3.org/2000/svg">
  <defs>
    <linearGradient id="a" x1="8" x2="8" y1="1" y2="15" gradientUnits="userSpaceOnUse">
      <stop offset="0" stop-color="#1f7d15"/>
      <stop offset="1" stop-color="#096600"/>
    </linearGradient>
    <linearGradient id="b" x1="8" x2="8" y1="2" y2="14" gradientUnits="userSpaceOnUse">
      <stop offset="0" stop-color="#bfffaf"/>
      <stop offset="1" stop-color="#11c911"/>
    </linearGradient>
    <linearGradient id="c" x1="10" x2="10" y1="3.02" y2="12.88" gradientUnits="userSpaceOnUse">
      <stop offset="0" stop-color="#096600"/>
      <stop offset="1" stop-color="#1f7d15"/>
    </linearGradient>
    <linearGradient xlink:href="#a" id="d" x1="11" x2="11" y1="6" y2="16"/>
    <linearGradient id="e" x1="11" x2="11" y1="7" y2="15" gradientUnits="userSpaceOnUse">
      <stop offset="0" stop-color="#16e200"/>
      <stop offset="1" stop-color="#007a00"/>
    </linearGradient>
  </defs>
  <path fill="url(#a)" fill-rule="evenodd" d="M7.9 1 2 2.16v6.73c.21 2.31 2.08 4.33 5.57 6.01l.21.1h.46l.21-.1c3.48-1.68 5.35-3.7 5.57-6.1V2.16L8.12 1h-.2Z"/>
  <path fill="url(#b)" fill-rule="evenodd" d="M3 8.8c.18 1.95 1.84 3.68 5 5.2 3.16-1.52 4.82-3.26 5-5.2V2.98L8 2l-5 .98v5.81Z"/>
  <path fill="url(#c)" fill-rule="evenodd" d="M8 3.02v9.86c2.52-1.29 3.87-2.69 4-4.09V3.8l-4-.79Z"/>
  <circle cx="11" cy="11" r="5" fill="#f4f4f4"/>
  <circle cx="11" cy="11" r="5" fill="url(#d)"/>
  <circle cx="11" cy="11" r="4" fill="#6c707e"/>
  <circle cx="11" cy="11" r="4" fill="url(#e)"/>
  <path fill="#fff" d="M10.22 13.35c-.16 0-.32-.07-.43-.18l-1.52-1.56a.6.6 0 1 1 .86-.84l1.09 1.12 2.87-2.9c.23-.24.61-.24.85 0 .24.23.24.61 0 .85l-3.3 3.33c-.11.11-.27.18-.43.18Z"/>
</svg>
