<!-- Copyright © 2000–2024 JetBrains s.r.o. -->
<svg width="16" height="16" viewBox="0 0 16 16" xmlns="http://www.w3.org/2000/svg">
  <path fill="#f4f4f4" d="M7.9 1 2 2.16v6.73c.21 2.31 2.08 4.33 5.57 6.01l.21.1h.46l.21-.1c3.48-1.68 5.35-3.7 5.57-6.1V2.16L8.12 1h-.2Z"/>
  <path fill="#393" d="M3 8.8c.18 1.95 1.84 3.68 5 5.2 3.16-1.52 4.82-3.26 5-5.2V2.98L8 2l-5 .98v5.81Z"/>
  <path fill="#ebebeb" d="M8 3.02v9.86c2.52-1.29 3.87-2.69 4-4.09V3.8l-4-.79Z"/>
  <path fill="#f4f4f4" fill-rule="evenodd" d="M10.5 16c-.83 0-1.5-.67-1.5-1.5V13c0-.4.16-.78.44-1.06l.94-.94-.94-.94C9.16 9.78 9 9.4 9 9V7.5c0-.83.67-1.5 1.5-1.5h4c.83 0 1.5.67 1.5 1.5V9c0 .4-.16.78-.44 1.06l-.94.94.94.94c.28.28.44.66.44 1.06v1.5c0 .83-.67 1.5-1.5 1.5z"/>
  <path fill="#323232" fill-rule="evenodd" d="M15 9V7.5c0-.28-.22-.5-.5-.5h-4c-.28 0-.5.22-.5.5V9c0 .13.05.26.15.35L11.8 11l-1.65 1.65A.5.5 0 0 0 10 13v1.5c0 .28.22.5.5.5h4c.28 0 .5-.22.5-.5V13a.47.47 0 0 0-.15-.35L13.2 11l1.65-1.65A.5.5 0 0 0 15 9"/>
  <path fill="#ebebeb" fill-rule="evenodd" d="M14 14h-3v-.79l1.5-1.5 1.5 1.5zm0-5.21-1.5 1.5-1.5-1.5V8h3z"/>
</svg>
