<!-- Copyright © 2000–2024 JetBrains s.r.o. -->
<svg width="16" height="16" viewBox="0 0 16 16" xmlns="http://www.w3.org/2000/svg">
  <path fill="#252525" d="M7.9 1 2 2.16v6.73c.21 2.31 2.08 4.33 5.57 6.01l.21.1h.46l.21-.1c3.48-1.68 5.35-3.7 5.57-6.1V2.16L8.12 1h-.2Z"/>
  <path fill="#393" d="M3 8.8c.18 1.95 1.84 3.68 5 5.2 3.16-1.52 4.82-3.26 5-5.2V2.98L8 2l-5 .98v5.81Z"/>
  <path fill="#292929" d="M8 3.02v9.86c2.52-1.29 3.87-2.69 4-4.09V3.8l-4-.79Z"/>
  <circle cx="11" cy="11" r="5" fill="#f4f4f4"/>
  <circle cx="11" cy="11" r="5" fill="#252525"/>
  <circle cx="11" cy="11" r="4" fill="#6c707e"/>
  <circle cx="11" cy="11" r="4" fill="#393"/>
  <path fill="#292929" d="M10.22 13.35c-.16 0-.32-.07-.43-.18l-1.52-1.56a.6.6 0 1 1 .86-.84l1.09 1.12 2.87-2.9c.23-.24.61-.24.85 0 .24.23.24.61 0 .85l-3.3 3.33c-.11.11-.27.18-.43.18Z"/>
</svg>
