<!-- Copyright © 2000–2024 JetBrains s.r.o. -->
<svg width="16" height="16" viewBox="0 0 16 16" xmlns="http://www.w3.org/2000/svg">
  <path d="M8 15c-.08 0-.15-.02-.22-.05C4.06 13.07 2 10.87 2 8.74V2.6c0-.24.17-.44.4-.49l5.5-1.1h.2l5.5 1.1c.23.05.4.25.4.49v6.13c0 2.13-2.05 4.34-5.78 6.21-.07.04-.15.05-.22.05ZM3 3.01v5.72c0 1.64 1.86 3.58 5 5.21 3.14-1.62 5-3.56 5-5.21V3.01l-5-1zm1.58 1.71 3-.5c.27-.04.46-.3.41-.58a.506.506 0 0 0-.58-.41l-3 .5c-.27.04-.46.3-.41.58.04.25.25.42.49.42h.08Zm-.06 1.74 3-.13c.28-.01.49-.25.48-.52a.495.495 0 0 0-.52-.48l-3 .13c-.28.01-.49.25-.48.52s.23.48.5.48zM8 7.9c.01-.28-.2-.51-.47-.52l-3-.15c-.26-.04-.51.2-.52.47s.2.51.47.52l3 .15h.02c.26 0 .49-.21.5-.48ZM7.99 10a.505.505 0 0 0-.42-.57l-2.72-.41a.51.51 0 0 0-.57.42c-.04.27.15.53.42.57l2.72.41h.07c.24 0 .46-.18.49-.43Zm-.01 2.06a.5.5 0 0 0-.35-.61l-1.1-.29a.5.5 0 0 0-.61.35.5.5 0 0 0 .35.61l1.1.29s.09.02.13.02c.22 0 .42-.15.48-.37"/>
</svg>
