<!-- Copyright © 2000–2024 JetBrains s.r.o. -->
<svg width="16" height="16" viewBox="0 0 16 16" xmlns="http://www.w3.org/2000/svg">
  <defs>
    <linearGradient id="a" x1="8" x2="8" y1="1" y2="15" gradientUnits="userSpaceOnUse">
      <stop offset="0" stop-color="#1f7d15"/>
      <stop offset="1" stop-color="#096600"/>
    </linearGradient>
    <linearGradient id="b" x1="8" x2="8" y1="2" y2="14" gradientUnits="userSpaceOnUse">
      <stop offset="0" stop-color="#bfffaf"/>
      <stop offset="1" stop-color="#11c911"/>
    </linearGradient>
    <linearGradient id="c" x1="10" x2="10" y1="3.02" y2="12.88" gradientUnits="userSpaceOnUse">
      <stop offset="0" stop-color="#096600"/>
      <stop offset="1" stop-color="#1f7d15"/>
    </linearGradient>
    <linearGradient id="d" x1="12.5" x2="12.5" y1="16" y2="6" gradientUnits="userSpaceOnUse">
      <stop offset="0" stop-color="#2d3641"/>
      <stop offset="1" stop-color="#566980"/>
    </linearGradient>
    <linearGradient id="e" x1="12.5" x2="12.5" y1="15" y2="7" gradientUnits="userSpaceOnUse">
      <stop offset="0" stop-color="#a5b1bc"/>
      <stop offset="1" stop-color="#dfefff"/>
    </linearGradient>
    <linearGradient id="f" x1="12.5" x2="12.5" y1="8" y2="14" gradientUnits="userSpaceOnUse">
      <stop offset="0" stop-color="#2d3641"/>
      <stop offset="1" stop-color="#2e445e"/>
    </linearGradient>
  </defs>
  <path fill="url(#a)" fill-rule="evenodd" d="M7.9 1 2 2.16v6.73c.21 2.31 2.08 4.33 5.57 6.01l.21.1h.46l.21-.1c3.48-1.68 5.35-3.7 5.57-6.1V2.16L8.12 1h-.2Z"/>
  <path fill="url(#b)" fill-rule="evenodd" d="M3 8.8c.18 1.95 1.84 3.68 5 5.2 3.16-1.52 4.82-3.26 5-5.2V2.98L8 2l-5 .98v5.81Z"/>
  <path fill="url(#c)" fill-rule="evenodd" d="M8 3.02v9.86c2.52-1.29 3.87-2.69 4-4.09V3.8l-4-.79Z"/>
  <path fill="url(#d)" fill-rule="evenodd" d="M10.5 16c-.83 0-1.5-.67-1.5-1.5V13c0-.4.16-.78.44-1.06l.94-.94-.94-.94C9.16 9.78 9 9.4 9 9V7.5c0-.83.67-1.5 1.5-1.5h4c.83 0 1.5.67 1.5 1.5V9c0 .4-.16.78-.44 1.06l-.94.94.94.94c.28.28.44.66.44 1.06v1.5c0 .83-.67 1.5-1.5 1.5z"/>
  <path fill="url(#e)" fill-rule="evenodd" d="M15 9V7.5c0-.28-.22-.5-.5-.5h-4c-.28 0-.5.22-.5.5V9c0 .13.05.26.15.35L11.8 11l-1.65 1.65A.5.5 0 0 0 10 13v1.5c0 .28.22.5.5.5h4c.28 0 .5-.22.5-.5V13a.47.47 0 0 0-.15-.35L13.2 11l1.65-1.65A.5.5 0 0 0 15 9"/>
  <path fill="url(#f)" fill-rule="evenodd" d="M14 14h-3v-.79l1.5-1.5 1.5 1.5zm0-5.21-1.5 1.5-1.5-1.5V8h3z"/>
</svg>
