<!-- Copyright © 2000–2024 JetBrains s.r.o. -->
<svg xmlns:xlink="http://www.w3.org/1999/xlink" width="16" height="16" viewBox="0 0 16 16" xmlns="http://www.w3.org/2000/svg">
  <defs>
    <linearGradient id="a" x1="8" x2="8" y1="15" y2="1" gradientUnits="userSpaceOnUse">
      <stop offset="0" stop-color="#3f1e1e"/>
      <stop offset="1" stop-color="#873f3f"/>
    </linearGradient>
    <linearGradient id="b" x1="8" x2="8" y1="2" y2="14" gradientUnits="userSpaceOnUse">
      <stop offset="0" stop-color="#ffbf82"/>
      <stop offset="1" stop-color="#ff5252"/>
    </linearGradient>
    <linearGradient xlink:href="#a" id="c" x1="10" x2="10" y1="3.02" y2="12.88"/>
    <linearGradient xlink:href="#a" id="d" x1="11" x2="11" y1="16" y2="6"/>
    <linearGradient id="e" x1="11" x2="11" y1="7" y2="15" gradientUnits="userSpaceOnUse">
      <stop offset="0" stop-color="#ff7b00"/>
      <stop offset="1" stop-color="#f00"/>
    </linearGradient>
  </defs>
  <path fill="url(#a)" fill-rule="evenodd" d="M7.9 1 2 2.16v6.73c.21 2.31 2.08 4.33 5.57 6.01l.21.1h.46l.21-.1c3.48-1.68 5.35-3.7 5.57-6.1V2.16L8.12 1h-.2Z"/>
  <path fill="url(#b)" fill-rule="evenodd" d="M3 8.8c.18 1.95 1.84 3.68 5 5.2 3.16-1.52 4.82-3.26 5-5.2V2.98L8 2l-5 .98v5.81Z"/>
  <path fill="url(#c)" fill-rule="evenodd" d="M8 3.02v9.86c2.52-1.29 3.87-2.69 4-4.09V3.8l-4-.79Z"/>
  <circle cx="11" cy="11" r="4" fill="#6c707e"/>
  <circle cx="11" cy="11" r="5" fill="url(#d)"/>
  <circle cx="11" cy="11" r="4" fill="url(#e)"/>
  <path fill="#fff" d="m11.85 11 1.08-1.08a.61.61 0 0 0 0-.85.61.61 0 0 0-.85 0L11 10.15 9.92 9.07a.61.61 0 0 0-.85 0 .61.61 0 0 0 0 .85L10.15 11l-1.08 1.08a.61.61 0 0 0 0 .85c.12.12.27.18.42.18s.31-.06.42-.18l1.08-1.08 1.08 1.08c.12.12.27.18.42.18s.31-.06.42-.18a.61.61 0 0 0 0-.85L11.83 11Z"/>
</svg>
