<!-- Copyright © 2000–2024 JetBrains s.r.o. -->
<svg width="16" height="16" viewBox="0 0 16 16" xmlns="http://www.w3.org/2000/svg">
  <path fill="#c75450" d="M6.92 11.92c0-1.16.41-2.21 1.08-3.06V2.54l4.5.99v3.45c.53.06 1.03.19 1.5.41V2.32L8 1 2 2.32v5.76c0 3.07 3.38 5.46 6 6.92a4.94 4.94 0 0 1-1.08-3.07Z"/>
  <path fill="#c75450" d="M11.92 7.92c-2.21 0-4 1.79-4 4s1.79 4 4 4 4-1.79 4-4-1.79-4-4-4M13.85 13c.23.23.23.61 0 .85-.12.12-.27.18-.42.18s-.31-.06-.42-.18l-1.08-1.08-1.08 1.08c-.12.12-.27.18-.42.18s-.31-.06-.42-.18a.61.61 0 0 1 0-.85l1.08-1.08-1.08-1.08a.61.61 0 0 1 0-.85.61.61 0 0 1 .85 0l1.08 1.08 1.08-1.08a.61.61 0 0 1 .85 0c.23.23.23.61 0 .85l-1.08 1.08L13.87 13Z"/>
</svg>
