<!-- Copyright © 2000–2024 JetBrains s.r.o. -->
<svg width="16" height="16" viewBox="0 0 16 16" xmlns="http://www.w3.org/2000/svg">
  <path fill="#252525" d="M7.9 1 2 2.16v6.73c.21 2.31 2.08 4.33 5.57 6.01l.21.1h.46l.21-.1c3.48-1.68 5.35-3.7 5.57-6.1V2.16L8.12 1h-.2Z"/>
  <path fill="#e31600" d="M3 8.8c.18 1.95 1.84 3.68 5 5.2 3.16-1.52 4.82-3.26 5-5.2V2.98L8 2l-5 .98v5.81Z"/>
  <path fill="#292929" d="M8 3.02v9.86c2.52-1.29 3.87-2.69 4-4.09V3.8l-4-.79Z"/>
  <circle cx="11" cy="11" r="4" fill="#6c707e"/>
  <circle cx="11" cy="11" r="5" fill="#252525"/>
  <circle cx="11" cy="11" r="4" fill="#e31600"/>
  <path fill="#292929" d="m11.85 11 1.08-1.08a.61.61 0 0 0 0-.85.61.61 0 0 0-.85 0L11 10.15 9.92 9.07a.61.61 0 0 0-.85 0 .61.61 0 0 0 0 .85L10.15 11l-1.08 1.08a.61.61 0 0 0 0 .85c.12.12.27.18.42.18s.31-.06.42-.18l1.08-1.08 1.08 1.08c.12.12.27.18.42.18s.31-.06.42-.18a.61.61 0 0 0 0-.85L11.83 11Z"/>
</svg>
