<!-- Copyright © 2000–2024 JetBrains s.r.o. -->
<svg width="16" height="16" viewBox="0 0 16 16" xmlns="http://www.w3.org/2000/svg">
  <path fill="none" stroke="#DB5C5C" stroke-linecap="round" stroke-linejoin="round" d="M6.82 13.86C4.05 12.24 2.5 10.41 2.5 8.73V2.6L8 1.5l5.5 1.1v4.11"/>
  <path fill="none" stroke="#DB5C5C" stroke-linecap="round" stroke-linejoin="round" stroke-width=".9" d="m7.5 3.73-3 .5m3 1.6-3 .12m3 1.93-3-.15m2.44 2.12-2.16-.33m1.73 2.15-.11-.03"/>
  <path fill="#DB5C5C" d="M12 8c-2.21 0-4 1.79-4 4s1.79 4 4 4 4-1.79 4-4-1.79-4-4-4m1.92 5.08c.23.23.23.61 0 .85-.12.12-.27.18-.42.18s-.31-.06-.42-.18L12 12.85l-1.08 1.08c-.12.12-.27.18-.42.18s-.31-.06-.42-.18a.61.61 0 0 1 0-.85L11.16 12l-1.08-1.08a.61.61 0 0 1 0-.85.61.61 0 0 1 .85 0l1.08 1.08 1.08-1.08a.61.61 0 0 1 .85 0c.23.23.23.61 0 .85L12.86 12l1.08 1.08z"/>
</svg>
