<!-- Copyright © 2000–2024 JetBrains s.r.o. -->
<svg width="16" height="16" viewBox="0 0 16 16" xmlns="http://www.w3.org/2000/svg">
  <path fill="#F4F4F4" fill-rule="evenodd" d="M2 15V1h7.414L14 5.586V15z"/>
  <path fill="#313131" fill-rule="evenodd" d="M9 2H3v12h10V6z"/>
  <path fill="#EBEBEB" fill-rule="evenodd" d="M9 6V4H5v8h6V6z"/>
  <path fill="#F4F4F4" fill-rule="evenodd" d="M0 16V9h6.414L7.5 10.086 8.586 9H13v4h1v3z"/>
  <path fill="#900" fill-rule="evenodd" d="M8 11v1H7v-1l-1-1H5v5h1v-3l1 1v2h1v-2l1-1v3h1v-5H9m3 4v-4h-1v5h2v-1m-9-3v-1H3v2s1 0 1-1m-2 2h1v-1H2m2 1H3v2h1m-3 0h1v-2H1m1-3v2s-1 0-1-1v-1z"/>
</svg>
