<!-- Copyright © 2000–2024 JetBrains s.r.o. -->
<svg width="16" height="16" viewBox="0 0 16 16" xmlns="http://www.w3.org/2000/svg">
  <path fill="#F4F4F4" fill-rule="evenodd" d="M2 15V1h7.414L14 5.586V15z"/>
  <path fill="#313131" fill-rule="evenodd" d="M9 2H3v12h10V6z"/>
  <path fill="#EBEBEB" fill-rule="evenodd" d="M9 6V4H5v8h6V6z"/>
  <path fill="#F4F4F4" fill-rule="evenodd" d="M11 16v-.584A2.24 2.24 0 0 1 9.5 16c-.716 0-1.352-.344-1.804-.903C7.319 15.689 6.646 16 6 16H0v-3h1V9h7v.584A2.24 2.24 0 0 1 9.5 9c.567 0 1.085.216 1.5.584V9h5v7z"/>
  <path fill="#F06421" fill-rule="evenodd" d="M10 13.5c0 .553-.047 1-.5 1s-.5-.447-.5-1v-2c0-.553.016-1 .5-1s.5.447.5 1M9.5 10c-.828 0-1.5.896-1.5 2v1c0 1.104.672 2 1.5 2s1.5-.896 1.5-2v-1c0-1.104-.672-2-1.5-2m4.5 0v2.632L13 10h-1v5h1v-2.632L14 15h1v-5m-8 1v-1H5s-1 0-1 1v1c0 1 1 1 1 1h1v1H4v1h2s1 0 1-1v-1c0-1-1-1-1-1H5v-1m-2-1v4s0 1-1 1H1v-1h1v-4z"/>
</svg>
