<!-- Copyright © 2000–2024 JetBrains s.r.o. -->
<svg width="16" height="16" viewBox="0 0 16 16" xmlns="http://www.w3.org/2000/svg">
  <path fill="#afb1b3" d="M5 6.5V4c0-.55.45-1 1-1h1V2H6c-1.1 0-2 .9-2 2v2.5c0 .55-.45 1-1 1H2v1h1c.55 0 1 .45 1 1V12c0 1.1.9 2 2 2h1v-1H6c-.55 0-1-.45-1-1V9.5c0-.6-.27-1.13-.69-1.5.42-.37.69-.9.69-1.5m6 0V4c0-.55-.45-1-1-1H9V2h1c1.1 0 2 .9 2 2v2.5c0 .55.45 1 1 1h1v1h-1c-.55 0-1 .45-1 1V12c0 1.1-.9 2-2 2H9v-1h1c.55 0 1-.45 1-1V9.5c0-.6.27-1.13.69-1.5-.42-.37-.69-.9-.69-1.5"/>
</svg>
