<!-- Copyright © 2000–2024 JetBrains s.r.o. -->
<svg width="16" height="16" viewBox="0 0 16 16" xmlns="http://www.w3.org/2000/svg">
  <linearGradient id="a" x1=".5" x2=".5" y1=".003" y2="1.003">
    <stop offset="0" stop-color="#7C6E48"/>
    <stop offset="1" stop-color="#60492F"/>
  </linearGradient>
  <path fill="url(#a)" fill-rule="evenodd" d="M2 1v14h12V5.586L9.414 1z"/>
  <linearGradient id="b" x1=".5" x2=".5" y1=".004" y2="1">
    <stop offset="0" stop-color="#E2D8BC"/>
    <stop offset="1" stop-color="#E2CDB3"/>
  </linearGradient>
  <path fill="url(#b)" fill-rule="evenodd" d="M3 2v12h10V6L9 2z"/>
  <linearGradient id="c" x1=".5" x2=".5" y1=".012" y2="1.006">
    <stop offset="0" stop-color="#FFF2D4"/>
    <stop offset="1" stop-color="#FFF"/>
  </linearGradient>
  <path fill="url(#c)" fill-rule="evenodd" d="M5 4v8h6V6H9V4z"/>
  <linearGradient id="d" x1=".5" x2=".5" y1=".006" y2="1.006">
    <stop offset="0" stop-color="#540000"/>
    <stop offset="1" stop-color="#790000"/>
  </linearGradient>
  <path fill="url(#d)" fill-rule="evenodd" d="M8.585 9 7.5 10.086 6.414 9H0v7h14v-3h-1V9z"/>
  <linearGradient id="e" x1=".5" x2=".5" y1=".008" y2="1.019">
    <stop offset="0" stop-color="#FFD8D8"/>
    <stop offset="1" stop-color="#FFB5B5"/>
  </linearGradient>
  <path fill="url(#e)" fill-rule="evenodd" d="M11 10v5h2v-1h-1v-4m-3 0-1 1v1H7v-1l-1-1H5v5h1v-3l1 1v2h1v-2l1-1v3h1v-5m-7 0v2H2v1H1v2h1v-2h1v-1s1 0 1-1v-1m-3 0v1c0 1 1 1 1 1v-2m1 5h1v-2H3z"/>
</svg>
