<!-- Copyright © 2000–2024 JetBrains s.r.o. -->
<svg width="16" height="16" viewBox="0 0 16 16" xmlns="http://www.w3.org/2000/svg">
  <path fill="none" stroke="#6C707E" stroke-linecap="round" stroke-linejoin="round" d="M12.99 5.15a.24.24 0 0 1 0-.3l.73-.96c.06-.08.07-.19.02-.28l-.42-.73a.235.235 0 0 0-.25-.12l-1.2.16a.255.255 0 0 1-.26-.15l-.46-1.11a.25.25 0 0 0-.23-.15h-.84c-.1 0-.19.06-.23.15l-.46 1.11c-.04.1-.15.17-.26.15l-1.2-.16c-.1 0-.2.04-.25.12l-.42.73c-.05.09-.04.2.02.28l.73.96c.07.09.07.21 0 .3l-.73.96c-.06.08-.07.19-.02.28l.42.73c.05.09.15.14.25.12l1.2-.16c.11-.01.22.05.26.15l.46 1.11c.04.09.13.15.23.15h.84c.1 0 .19-.06.23-.15l.46-1.11c.04-.1.15-.17.26-.15l1.2.16c.1.01.2-.04.25-.12l.42-.73c.05-.09.04-.2-.02-.28zm-2.49.35c-.28 0-.5-.22-.5-.5s.22-.5.5-.5.5.22.5.5-.22.5-.5.5m-2.51 5.65a.24.24 0 0 1 0-.3l.73-.96c.06-.08.07-.19.02-.28l-.42-.73a.235.235 0 0 0-.25-.12l-1.2.16a.255.255 0 0 1-.26-.15l-.46-1.11a.25.25 0 0 0-.23-.15h-.84c-.1 0-.19.06-.23.15l-.46 1.11c-.04.1-.15.17-.26.15l-1.2-.16c-.1-.01-.2.04-.25.12l-.42.73c-.05.09-.04.2.02.28l.73.96c.07.09.07.21 0 .3l-.73.96c-.06.08-.07.19-.02.28l.42.73c.05.09.15.14.25.12l1.2-.16c.11-.01.22.05.26.15l.46 1.11c.04.09.13.15.23.15h.84c.1 0 .19-.06.23-.15l.46-1.11c.04-.1.15-.17.26-.15l1.2.16c.1.01.2-.04.25-.12l.42-.73c.05-.09.04-.2-.02-.28zm-2.49.35c-.28 0-.5-.22-.5-.5s.22-.5.5-.5.5.22.5.5-.22.5-.5.5"/>
</svg>
