<!-- Copyright © 2000–2024 JetBrains s.r.o. -->
<svg width="16" height="16" viewBox="0 0 16 16" xmlns="http://www.w3.org/2000/svg">
  <path fill="#9AA7B0" fill-rule="evenodd" d="M8.42 13.9c0-.16.02-.58.02-.76 0-.82-.31-1.16-1.17-1.16H7v-.97h.27c.86 0 1.17-.35 1.17-1.17 0-.18-.02-.6-.02-.76 0-1.07.47-1.75 2.35-2.09l.22.84c-1.24.35-1.41.67-1.41 1.44 0 .21.02.56.02.78 0 .82-.39 1.22-1.08 1.44.69.23 1.08.62 1.08 1.44 0 .22-.02.57-.02.78 0 .77.16 1.09 1.41 1.44l-.22.84c-1.88-.35-2.35-1.02-2.35-2.1m3.6 1.27c1.24-.35 1.41-.67 1.41-1.44 0-.21-.02-.56-.02-.78 0-.82.39-1.22 1.07-1.44-.69-.23-1.07-.62-1.07-1.44 0-.22.02-.57.02-.78 0-.77-.16-1.09-1.41-1.44l.22-.84c1.88.35 2.35 1.02 2.35 2.09 0 .16-.02.58-.02.76 0 .82.31 1.17 1.17 1.17h.27v.97h-.27c-.86 0-1.17.34-1.17 1.16 0 .18.02.6.02.76 0 1.08-.47 1.76-2.35 2.1l-.22-.84z"/>
  <path fill="#9AA7B0" fill-rule="evenodd" d="M7 1 3 5h4zm3.6 11.94c0 .12-.01 1.01 0 1.03.03 0 .91.29.91.29s.87-.29.93-.32c0-.01-.02-.88-.02-1 0-.45.09-.98.4-1.44-.27-.39-.4-.87-.4-1.44V9.03c-.03 0-.91-.29-.91-.29s-.87.29-.92.32c0 .01.02.88.02 1 0 .45-.09.97-.4 1.44.27.39.4.87.4 1.44" opacity=".8"/>
  <path fill="#9AA7B0" fill-rule="evenodd" d="M7.42 13.9c0-.08.02-.87.02-.91H6.01v-2.97h1.43c0-.04-.02-.83-.02-.92 0-2.21 1.69-2.8 3.17-3.08l.92-.17.92.17c.19.03.39.08.58.13V1h-5v5H3v9h4.61a3.3 3.3 0 0 1-.19-1.1" opacity=".8"/>
</svg>
