<!-- Copyright © 2000–2024 JetBrains s.r.o. -->
<svg width="16" height="16" viewBox="0 0 16 16" xmlns="http://www.w3.org/2000/svg">
  <path fill="none" stroke="#6C707E" stroke-linecap="round" stroke-linejoin="round" d="M6.5 13.5h-.09c-1.05 0-1.91-.86-1.91-1.91V9.98C4.5 8.89 3.61 8 2.52 8m0 0H2m.52 0C3.61 8 4.5 7.11 4.5 6.02V4.41c0-1.05.86-1.91 1.91-1.91h.09m3 11h.09c1.05 0 1.91-.86 1.91-1.91V9.98c0-1.09.89-1.98 1.98-1.98m0 0H14m-.52 0c-1.09 0-1.98-.89-1.98-1.98V4.41c0-1.05-.86-1.91-1.91-1.91H9.5"/>
</svg>
