<!-- Copyright © 2000–2024 JetBrains s.r.o. -->
<svg width="16" height="16" viewBox="0 0 16 16" xmlns="http://www.w3.org/2000/svg">
  <path fill="#F4F4F4" d="M0 0h16v16H0Z"/>
  <path fill="#323232" d="M1 1h14v14H1Z"/>
  <path fill="#EBEBEB" d="M9.393 12.178a3.5 3.5 0 0 0-.414-.994l.959-1.231a5 5 0 0 0-.89-.89l-1.232.958a3.5 3.5 0 0 0-.994-.414L6.63 8.065A5 5 0 0 0 6 8q-.317.012-.63.065l-.192 1.542c-.35.086-.686.225-.994.414l-1.232-.958a5 5 0 0 0-.89.89l.96 1.231c-.19.307-.33.643-.415.994L2 12.254v1.493l.607.075c.015.062.041.118.059.178h6.668c.018-.06.044-.116.059-.178l1.544-.191q.051-.314.063-.631a5 5 0 0 0-.063-.629Zm0 0"/>
  <path fill="#323232" d="M6 11a1.988 1.988 0 0 0-1.723 3h3.446A1.988 1.988 0 0 0 6 11m0 0"/>
  <path fill="#EBEBEB" d="M7 13a1 1 0 1 1-2 0 1 1 0 0 1 2 0m-.393-9.178c.085.35.225.686.414.994l-.959 1.231a5 5 0 0 0 .89.89l1.232-.958c.308.189.643.328.994.414l.192 1.542q.313.053.63.065.317-.012.63-.065l.192-1.542c.35-.086.686-.225.994-.414l1.232.958a5 5 0 0 0 .89-.89l-.96-1.231c.19-.307.33-.643.415-.994L14 3.746V2.253l-.607-.075c-.015-.062-.041-.118-.059-.178H6.666c-.018.06-.044.116-.059.178l-1.544.191Q5.012 2.683 5 3q.012.315.063.629Zm0 0"/>
  <path fill="#323232" d="M10 5a1.988 1.988 0 0 0 1.723-3H8.277A1.988 1.988 0 0 0 10 5m0 0"/>
  <path fill="#EBEBEB" d="M11 3a1 1 0 1 1-2 0 1 1 0 0 1 2 0"/>
</svg>
