<!-- Copyright © 2000–2024 JetBrains s.r.o. -->
<svg width="16" height="16" viewBox="0 0 16 16" xmlns="http://www.w3.org/2000/svg">
  <path fill="#6e6e6e" d="M13.28 10.85C12.26 12.72 10.28 14 8 14c-1.53 0-2.91-.58-3.97-1.53L5.5 11H2v3.5l1.32-1.32A6.906 6.906 0 0 0 8 15c3.26 0 6-2.25 6.78-5.27-.43.39-.94.76-1.5 1.13ZM2 8c0-2.22 1.21-4.15 3-5.19V1.68C2.64 2.81 1 5.21 1 8c0 .7.11 1.37.29 2h1.06C2.13 9.37 2 8.7 2 8"/>
  <path fill="#6e6e6e" d="M11 0 6 1.5v4.2c.18 1.98 1.84 3.75 5 5.3 3.16-1.55 4.82-3.32 5-5.3V1.5zm0 9.88C8.48 8.56 7.13 7.13 7 5.61V2.24l4-1.2v8.83Z"/>
</svg>
