<svg width="40" height="40" viewBox="0 0 40 40" fill="none" xmlns="http://www.w3.org/2000/svg">
<path d="M12.8827 24.0004C12.2667 24.0004 11.7307 23.8964 11.2747 23.6884C10.8187 23.4804 10.4667 23.1884 10.2187 22.8124C9.97068 22.4364 9.84668 21.9924 9.84668 21.4804H11.6467C11.6467 21.7764 11.7587 22.0124 11.9827 22.1884C12.2147 22.3564 12.5267 22.4404 12.9187 22.4404C13.2947 22.4404 13.5867 22.3564 13.7947 22.1884C14.0107 22.0204 14.1187 21.7884 14.1187 21.4924C14.1187 21.2364 14.0387 21.0164 13.8787 20.8324C13.7187 20.6484 13.4947 20.5244 13.2067 20.4604L12.3187 20.2564C11.5747 20.0804 10.9947 19.7564 10.5787 19.2844C10.1707 18.8044 9.96668 18.2204 9.96668 17.5324C9.96668 16.7644 10.2267 16.1524 10.7467 15.6964C11.2667 15.2324 11.9707 15.0004 12.8587 15.0004C13.7547 15.0004 14.4627 15.2244 14.9827 15.6724C15.5107 16.1124 15.7747 16.7084 15.7747 17.4604H13.9747C13.9747 17.1804 13.8747 16.9604 13.6747 16.8004C13.4827 16.6404 13.2027 16.5604 12.8347 16.5604C12.4907 16.5604 12.2267 16.6404 12.0427 16.8004C11.8587 16.9524 11.7667 17.1724 11.7667 17.4604C11.7667 17.7164 11.8387 17.9364 11.9827 18.1204C12.1347 18.2964 12.3467 18.4164 12.6187 18.4804L13.5547 18.6964C14.3307 18.8724 14.9187 19.1924 15.3187 19.6564C15.7187 20.1124 15.9187 20.6964 15.9187 21.4084C15.9187 21.9204 15.7907 22.3724 15.5347 22.7644C15.2867 23.1564 14.9347 23.4604 14.4787 23.6764C14.0307 23.8924 13.4987 24.0004 12.8827 24.0004Z" fill="#40B6E0"/>
<path fill-rule="evenodd" clip-rule="evenodd" d="M21.278 26.0404L20.042 24.0004C19.466 23.9924 18.966 23.8804 18.542 23.6644C18.118 23.4404 17.786 23.1324 17.546 22.7404C17.314 22.3404 17.198 21.8804 17.198 21.3604V17.6404C17.198 17.1044 17.318 16.6404 17.558 16.2484C17.798 15.8564 18.134 15.5524 18.566 15.3364C18.998 15.1124 19.502 15.0004 20.078 15.0004C20.654 15.0004 21.158 15.1124 21.59 15.3364C22.022 15.5524 22.358 15.8604 22.598 16.2604C22.838 16.6524 22.958 17.1124 22.958 17.6404V21.3604C22.958 21.8804 22.846 22.3404 22.622 22.7404C22.406 23.1324 22.09 23.4324 21.674 23.6404L23.15 26.0404H21.278ZM20.078 22.4284C20.454 22.4284 20.726 22.3364 20.894 22.1524C21.07 21.9684 21.158 21.7044 21.158 21.3604V17.6404C21.158 17.2884 21.066 17.0204 20.882 16.8364C20.698 16.6524 20.43 16.5604 20.078 16.5604C19.734 16.5604 19.466 16.6524 19.274 16.8364C19.09 17.0204 18.998 17.2884 18.998 17.6404V21.3604C18.998 21.7044 19.086 21.9684 19.262 22.1524C19.438 22.3364 19.71 22.4284 20.078 22.4284Z" fill="#40B6E0"/>
<path d="M24.8133 15.1204V23.8804H30.1533V22.2004H26.6133V15.1204H24.8133Z" fill="#40B6E0"/>
<path fill-rule="evenodd" clip-rule="evenodd" d="M20 35.3178C18.9251 36.9345 17.087 38 15 38C12.2011 38 9.84987 36.0836 9.18681 33.4914C6.15641 32.3528 4 29.4283 4 26C4 25.4928 4.04719 24.9967 4.13742 24.5158C3.42185 23.5278 3 22.3132 3 21C3 19.238 3.75952 17.6534 4.96904 16.5557C4.35332 15.5136 4 14.2981 4 13C4 9.73114 6.24064 6.9856 9.26985 6.21545C10.0296 3.77321 12.3077 2 15 2C17.087 2 18.9251 3.06551 20 4.68221C21.0749 3.06551 22.913 2 25 2C27.6923 2 29.9704 3.77321 30.7301 6.21545C33.7594 6.9856 36 9.73114 36 13C36 14.2981 35.6467 15.5136 35.031 16.5557C36.2405 17.6534 37 19.238 37 21C37 22.3132 36.5782 23.5278 35.8626 24.5158C35.9528 24.9967 36 25.4928 36 26C36 29.4283 33.8436 32.3528 30.8132 33.4914C30.1501 36.0836 27.7989 38 25 38C22.913 38 21.0749 36.9345 20 35.3178ZM18.9862 7.66444L19 7.83129V12H21V7.83129L21.0138 7.66444C21.183 5.61334 22.9041 4 25 4C26.7918 4 28.3134 5.17966 28.8204 6.80956L29.1528 7.87806L30.2373 8.15379C32.4014 8.70399 34 10.6678 34 13C34 13.9305 33.7477 14.7959 33.3091 15.5383L32.48 16.9415L33.6869 18.0367C34.4963 18.7713 35 19.8254 35 21C35 21.8779 34.7195 22.6844 34.2428 23.3426L33.7383 24.0392L33.8969 24.8845C33.9644 25.2445 34 25.6172 34 26C34 28.568 32.3857 30.7641 30.1098 31.6191L29.1339 31.9858L28.8756 32.9958C28.4334 34.7243 26.8632 36 25 36C22.9034 36 21.1819 34.3856 21.0136 32.3336L21 32.1677L20.9864 28H18.9864L19 32.1677L18.9864 32.3336C18.8181 34.3856 17.0966 36 15 36C13.1368 36 11.5666 34.7243 11.1244 32.9958L10.8661 31.9858L9.89021 31.6191C7.61425 30.7641 6 28.568 6 26C6 25.6172 6.0356 25.2445 6.10313 24.8845L6.26173 24.0392L5.75719 23.3426C5.2805 22.6844 5 21.8779 5 21C5 19.8254 5.50371 18.7713 6.31312 18.0367L7.51997 16.9415L6.69094 15.5383C6.25228 14.7959 6 13.9305 6 13C6 10.6678 7.59858 8.70399 9.76265 8.15379L10.8472 7.87806L11.1796 6.80956C11.6866 5.17966 13.2082 4 15 4C17.0959 4 18.817 5.61334 18.9862 7.66444Z" fill="#40B6E0"/>
</svg>
