<svg width="16" height="16" viewBox="0 0 16 16" xmlns="http://www.w3.org/2000/svg">
  <path fill="#9aa7b0" d="M13 5h-3v1h3c.55 0 1 .45 1 1v3c0 .55-.45 1-1 1h-3v1h3c1.1 0 2-.9 2-2V7c0-1.1-.9-2-2-2Zm-6 5V5.28c-.59.35-1 .99-1 1.72v1H3.91a1.491 1.491 0 0 0-1.9-.92C1.4 7.29 1 7.86 1 8.5c0 .83.66 1.5 1.48 1.51.64 0 1.22-.4 1.42-1.01h2.09v1c0 .73.41 1.37 1 1.72V10ZM2.5 9c-.28 0-.5-.22-.5-.5s.22-.5.5-.5.5.22.5.5-.22.5-.5.5ZM9 9H8v1h1V9Zm0 4H8v1h1v-1Zm0 2H8v1h1v-1Zm0-4H8v1h1v-1ZM9 1H8v1h1V1Zm0 4H8v1h1V5Zm0 2H8v1h1V7Zm0-4H8v1h1V3Z"/>
</svg>
