<svg width="16" height="16" viewBox="0 0 16 16" xmlns="http://www.w3.org/2000/svg">
  <path fill="#9AA7B0" fill-opacity=".8" d="M10 4v5.06c.85.17 1.55.78 1.84 1.58a2.47 2.47 0 0 1 1.66-.63c.57 0 1.08.2 1.5.51V4.01h-5Zm-3-.99-.3-.3c-.47-.43-1.08-.68-1.72-.71H1.05S1 2.02 1 2.05V13h2v-1.5A2.5 2.5 0 0 1 5.5 9H7V3.01Z"/>
  <path fill="#9aa7b0" d="M9 9H8v1h1V9Zm0 4H8v1h1v-1Zm0 2H8v1h1v-1Zm0-4H8v1h1v-1ZM9 1H8v1h1V1Zm0 4H8v1h1V5Zm0 2H8v1h1V7Zm0-4H8v1h1V3Z"/>
  <path fill="#40b6e0" d="M7 14H5.5c-.28 0-.5-.22-.5-.5v-2c0-.28.22-.5.5-.5H7v-1H5.5c-.83 0-1.5.67-1.5 1.5v2c0 .83.67 1.5 1.5 1.5H7v-1Zm6.5-3c-.65 0-1.2.42-1.41 1H11v-.5c0-.65-.42-1.2-1-1.41v4.82c.58-.21 1-.76 1-1.41V13h1.09c.21.58.76 1 1.41 1 .83 0 1.5-.67 1.5-1.5s-.67-1.5-1.5-1.5Zm0 2c-.28 0-.5-.22-.5-.5s.22-.5.5-.5.5.22.5.5-.22.5-.5.5Z"/>
</svg>
