<svg width="16" height="16" viewBox="0 0 16 16" xmlns="http://www.w3.org/2000/svg">
  <path fill="#6e6e6e" d="M8.142 11a3.93 3.93 0 0 1 .414-1H8c-.551 0-1-.448-1-1V6c0-.552.449-1 1-1h5c.551 0 1 .448 1 1v2.556c.363.211.687.474.965.784A2.01 2.01 0 0 0 15 9V6c0-1.1-.9-2-2-2H8c-1.1 0-2 .9-2 2v1H3.908A1.495 1.495 0 0 0 1 7.5a1.495 1.495 0 0 0 2.908.5H6v1c0 1.1.9 2 2 2h.142ZM2.5 8a.5.5 0 1 1 0-1 .5.5 0 0 1 0 1Z"/>
  <path fill="#389fd6" d="m15.997 15.29-1.557-1.557c.349-.49.56-1.086.56-1.733 0-1.654-1.346-3-3-3s-3 1.346-3 3 1.346 3 3 3a2.97 2.97 0 0 0 1.733-.56l1.557 1.557.707-.707ZM10 12c0-1.103.897-2 2-2s2 .897 2 2-.897 2-2 2-2-.897-2-2Z"/>
</svg>
