<svg width="16" height="16" viewBox="0 0 16 16" xmlns="http://www.w3.org/2000/svg">
  <path fill="#43454A" d="M10 13.5h3c.83 0 1.5-.67 1.5-1.5V6c0-.83-.67-1.5-1.5-1.5h-3v9ZM7 3.24l-.7-.74H3c-.83 0-1.5.67-1.5 1.5v8c0 .83.67 1.5 1.5 1.5h4V3.24Z"/>
  <path fill="none" stroke="#CED0D6" stroke-linecap="round" stroke-linejoin="round" d="m6.5 2.71-.2-.21H3c-.83 0-1.5.67-1.5 1.5v8c0 .83.67 1.5 1.5 1.5h3.5m4 0H13c.83 0 1.5-.67 1.5-1.5V6c0-.83-.67-1.5-1.5-1.5h-2.5"/>
  <path fill="#CED0D6" d="M8.5 2a.5.5 0 1 0 0-1 .5.5 0 0 0 0 1Zm0 2a.5.5 0 1 0 0-1 .5.5 0 0 0 0 1Zm0 2a.5.5 0 1 0 0-1 .5.5 0 0 0 0 1Zm0 2a.5.5 0 1 0 0-1 .5.5 0 0 0 0 1Zm0 2a.5.5 0 1 0 0-1 .5.5 0 0 0 0 1Zm0 2a.5.5 0 1 0 0-1 .5.5 0 0 0 0 1Zm0 2a.5.5 0 1 0 0-1 .5.5 0 0 0 0 1Zm0 2a.5.5 0 1 0 0-1 .5.5 0 0 0 0 1Z"/>
</svg>
