<svg width="16" height="16" viewBox="0 0 16 16" xmlns="http://www.w3.org/2000/svg">
  <path fill="#EBECF0" d="M10 13.5h3c.83 0 1.5-.67 1.5-1.5V6c0-.83-.67-1.5-1.5-1.5h-3v9ZM7 3.24l-.7-.74H3c-.83 0-1.5.67-1.5 1.5v8c0 .83.67 1.5 1.5 1.5h4V3.24Z"/>
  <path fill="none" stroke="#6C707E" stroke-linecap="round" stroke-linejoin="round" d="m6.5 2.71-.2-.21H3c-.83 0-1.5.67-1.5 1.5v8c0 .83.67 1.5 1.5 1.5h3.5m4 0H13c.83 0 1.5-.67 1.5-1.5V6c0-.83-.67-1.5-1.5-1.5h-2.5"/>
  <path fill="#3574F0" d="M10.04 7.05H10v3.99h.05c1.1-.02 1.98-.94 1.95-2.04a1.994 1.994 0 0 0-1.96-1.95ZM5.5 6C4.67 6 4 6.67 4 7.5S4.67 9 5.5 9 7 8.33 7 7.5 6.33 6 5.5 6Z"/>
  <path fill="#6C707E" d="M8.5 2a.5.5 0 1 0 0-1 .5.5 0 0 0 0 1Zm0 2a.5.5 0 1 0 0-1 .5.5 0 0 0 0 1Zm0 2a.5.5 0 1 0 0-1 .5.5 0 0 0 0 1Zm0 2a.5.5 0 1 0 0-1 .5.5 0 0 0 0 1Zm0 2a.5.5 0 1 0 0-1 .5.5 0 0 0 0 1Zm0 2a.5.5 0 1 0 0-1 .5.5 0 0 0 0 1Zm0 2a.5.5 0 1 0 0-1 .5.5 0 0 0 0 1Zm0 2a.5.5 0 1 0 0-1 .5.5 0 0 0 0 1Z"/>
</svg>
