<svg width="16" height="16" viewBox="0 0 16 16" xmlns="http://www.w3.org/2000/svg">
  <path fill="none" stroke="#CED0D6" stroke-linecap="round" stroke-linejoin="round" d="M8 13H3a1 1 0 0 1-1-1V3a1 1 0 0 1 1-1h8l2 2v4"/>
  <path fill="none" stroke="#CED0D6" stroke-linecap="round" stroke-linejoin="round" d="M5 2.5V5h5V2.5m-6 10V10a1 1 0 0 1 1-1h3"/>
  <path fill="none" stroke="#3574F0" stroke-linecap="round" stroke-linejoin="round" d="M11.5 13.5h-2v2h2v-2Zm0-4h-2v2h2v-2Zm4 0h-2v2h2v-2Zm0 4h-2v2h2v-2Z"/>
</svg>
