<svg width="16" height="16" viewBox="0 0 16 16" xmlns="http://www.w3.org/2000/svg">
  <path fill="#EBECF0" d="M10 13.5h3c.83 0 1.5-.67 1.5-1.5V6c0-.83-.67-1.5-1.5-1.5h-3v9ZM7 3.24l-.7-.74H3c-.83 0-1.5.67-1.5 1.5v8c0 .83.67 1.5 1.5 1.5h4V3.24Z"/>
  <path fill="none" stroke="#6C707E" stroke-linecap="round" stroke-linejoin="round" d="m6.5 2.71-.2-.21H3c-.83 0-1.5.67-1.5 1.5v8c0 .83.67 1.5 1.5 1.5h3.5m4 0H13c.83 0 1.5-.67 1.5-1.5V6c0-.83-.67-1.5-1.5-1.5h-2.5"/>
  <path fill="#3574F0" d="M4.5 4h-1a.5.5 0 0 0-.5.5v1a.5.5 0 0 0 .5.5h1a.5.5 0 0 0 .5-.5v-1a.5.5 0 0 0-.5-.5Zm0 4h-1a.5.5 0 0 0-.5.5v1a.5.5 0 0 0 .5.5h1a.5.5 0 0 0 .5-.5v-1a.5.5 0 0 0-.5-.5Zm2 2h-1a.5.5 0 0 0-.5.5v1a.5.5 0 0 0 .5.5h1a.5.5 0 0 0 .5-.5v-1a.5.5 0 0 0-.5-.5Zm0-4h-1a.5.5 0 0 0-.5.5v1a.5.5 0 0 0 .5.5h1a.5.5 0 0 0 .5-.5v-1a.5.5 0 0 0-.5-.5Z"/>
  <path fill="#6C707E" d="M8.5 2a.5.5 0 1 0 0-1 .5.5 0 0 0 0 1Zm0 2a.5.5 0 1 0 0-1 .5.5 0 0 0 0 1Zm0 2a.5.5 0 1 0 0-1 .5.5 0 0 0 0 1Zm0 2a.5.5 0 1 0 0-1 .5.5 0 0 0 0 1Zm0 2a.5.5 0 1 0 0-1 .5.5 0 0 0 0 1Zm0 2a.5.5 0 1 0 0-1 .5.5 0 0 0 0 1Zm0 2a.5.5 0 1 0 0-1 .5.5 0 0 0 0 1Zm0 2a.5.5 0 1 0 0-1 .5.5 0 0 0 0 1Z"/>
</svg>
