<svg width="16" height="16" viewBox="0 0 16 16" fill="none" xmlns="http://www.w3.org/2000/svg">
<path d="M7.70629 10.8105L5.79492 11.6176L7.42003 12.4383L7.70629 10.8105Z" fill="#7929D2"/>
<path d="M3.5798 11.8805L1.54102 11.1172L2.01371 12.7201L3.5798 11.8805Z" fill="#9454DB"/>
<path d="M4.54685 10.4453L5.79544 11.6175L3.58008 11.88L4.54685 10.4453Z" fill="#AF7FE4"/>
<path d="M1.78722 9.34375L1.54107 11.1165L0 9.57837L1.78722 9.34375Z" fill="#AF7FE4"/>
<path d="M7.70703 10.8105L12.7386 6.18164L15.0004 9.17875L7.70703 10.8105Z" fill="url(#paint0_linear_15697_10363)"/>
<path d="M7.70703 10.8107L9.85616 4L12.7386 6.18191L7.70703 10.8107Z" fill="url(#paint1_linear_15697_10363)"/>
<path d="M9.85547 4H14.9997L12.7379 6.18191L9.85547 4Z" fill="url(#paint2_linear_15697_10363)"/>
<path d="M15.0002 9.17902V4L12.7383 6.18191L15.0002 9.17902Z" fill="url(#paint3_linear_15697_10363)"/>
<defs>
<linearGradient id="paint0_linear_15697_10363" x1="9.87219" y1="8.49606" x2="15.658" y2="8.49606" gradientUnits="userSpaceOnUse">
<stop stop-color="#7929D2"/>
<stop offset="1" stop-color="#0070C5"/>
</linearGradient>
<linearGradient id="paint1_linear_15697_10363" x1="10.266" y1="3.39922" x2="10.2175" y2="9.11854" gradientUnits="userSpaceOnUse">
<stop stop-color="#00AEFF"/>
<stop offset="1" stop-color="#9454DB"/>
</linearGradient>
<linearGradient id="paint2_linear_15697_10363" x1="13.45" y1="5.77076" x2="12.2147" y2="3.63126" gradientUnits="userSpaceOnUse">
<stop stop-color="#66A9DC"/>
<stop offset="1" stop-color="#B1E4FA"/>
</linearGradient>
<linearGradient id="paint3_linear_15697_10363" x1="13.7252" y1="4.09437" x2="14.427" y2="8.94864" gradientUnits="userSpaceOnUse">
<stop stop-color="#00AEFF"/>
<stop offset="1" stop-color="#9454DB"/>
</linearGradient>
</defs>
</svg>
