<svg width="24" height="24" viewBox="0 0 24 24" fill="none" xmlns="http://www.w3.org/2000/svg">
<path d="M13.7 4.6999L12.4 2.3999L8.90005 4.0999L4.30005 4.4999L5.00005 12.3999L11.5 11.2999L13.7 4.6999Z" fill="url(#paint0_linear)"/>
<path d="M7.00005 6.69985L0.800049 5.09985L2.90005 17.9999L13.8 18.5999L7.00005 6.69985Z" fill="url(#paint1_linear)"/>
<path d="M10 11.8999L2.90002 17.9999L13.8 18.5999L10 11.8999Z" fill="url(#paint2_linear)"/>
<path d="M13.8 18.4999L12.8 7.59985L15.7 4.99985L20.3 3.09985L23.2 10.3999L13.8 18.4999Z" fill="url(#paint3_linear)"/>
<path d="M13.8 18.4999L12.8 7.59985L17.2 9.19985L23.2 10.3999L13.8 18.4999Z" fill="url(#paint4_linear)"/>
<path d="M19.0001 10.2998L17.6001 7.2998L6.1001 9.5998L7.3001 20.5998L14.8001 23.1998L23.2001 18.1998L19.0001 10.2998Z" fill="url(#paint5_linear)"/>
<path d="M19.0001 10.2999L17.6001 7.3999L13.1001 10.8999L14.8001 23.2999L23.2001 18.1999L19.0001 10.2999Z" fill="url(#paint6_linear)"/>
<path d="M13.1001 10.7999V10.9999L14.1001 18.1999L20.4001 12.8999L19.0001 10.2999L17.6001 7.3999L13.1001 10.7999Z" fill="url(#paint7_linear)"/>
<path d="M7.6001 9.2998L13.8001 18.5998L18.8001 14.1998L15.3001 7.7998L7.6001 9.2998Z" fill="url(#paint8_linear)"/>
<path d="M13.1001 10.8999L6.1001 9.59985L7.3001 20.5999L14.8001 23.1999L13.1001 10.8999Z" fill="url(#paint9_linear)"/>
<path d="M14.1001 18.2999L13.1001 10.8999L6.1001 9.59985L6.5001 13.4999L13.8001 18.5999L14.1001 18.2999Z" fill="url(#paint10_linear)"/>
<path d="M14.1001 18.2998L13.3001 12.2998L11.1001 13.8998L13.7001 18.5998H13.8001L14.1001 18.2998Z" fill="url(#paint11_linear)"/>
<path d="M9.0001 10.0999L6.1001 9.59985L7.0001 18.1999L13.8001 18.5999L9.0001 10.0999Z" fill="url(#paint12_linear)"/>
<path d="M10.5 18.3998L13.8 18.5998L11 13.7998L10.5 18.3998Z" fill="url(#paint13_linear)"/>
<path d="M13.1001 10.8999L6.1001 9.59985L14.6001 2.09985L20.3001 3.09985L16.5001 6.99985L17.6001 7.39985L13.1001 10.8999Z" fill="url(#paint14_linear)"/>
<path d="M13.7001 4.7L13.0001 3.5L6.1001 9.6L13.1001 10.9L15.9001 8.7L13.7001 4.7Z" fill="url(#paint15_linear)"/>
<path d="M12.4 2.39995L4.60005 0.699951L0.800049 5.09995L7.00005 6.69995L12.4 2.39995Z" fill="url(#paint16_linear)"/>
<path d="M7.60005 6.19995L4.60005 0.699951L0.800049 5.09995L7.00005 6.69995L7.60005 6.19995Z" fill="url(#paint17_linear)"/>
<path d="M10.4 18.4L7.30005 20.6L14.8 23.2001L14.1 18.3L13.8 18.6L10.4 18.4Z" fill="url(#paint18_linear)"/>
<path d="M23.2 18.2L18.8 14.2L16.5 7L17.6 7.4L23.2 18.2Z" fill="url(#paint19_linear)"/>
<path d="M16.8 8L17.6 7.4L16.5 7L16.8 8Z" fill="url(#paint20_linear)"/>
<path d="M16.5 9.8999L13.3 12.2999L14.1 18.2999L18.8 14.1999L16.5 9.8999Z" fill="url(#paint21_linear)"/>
<path d="M19 5H5V19H19V5Z" fill="url(#paint22_linear)"/>
<path d="M13 16H7V17H13V16Z" fill="white"/>
<path d="M12.2 12.0999L13 11.1999C13.5 11.5999 14.1 11.8999 14.8 11.8999C15.3 11.8999 15.7 11.6999 15.7 11.2999C15.7 10.9999 15.5 10.7999 14.5 10.4999C13.3 10.1999 12.5 9.8999 12.5 8.6999C12.5 7.5999 13.4 6.8999 14.6 6.8999C15.5 6.8999 16.2 7.1999 16.8 7.6999L16.1 8.6999C15.6 8.2999 15 8.0999 14.5 8.0999C14 8.0999 13.7 8.2999 13.7 8.5999C13.7 8.9999 14 9.0999 15 9.3999C16.3 9.6999 17 10.1999 17 11.1999C17 12.3999 16.1 13.0999 14.8 13.0999C13.9 13.0999 13 12.7999 12.2 12.0999Z" fill="white"/>
<path d="M7 7H9.4C10.8 7 11.6 7.8 11.6 9.1C11.6 10.5 10.5 11.2 9.2 11.2H8.2V13H7V7ZM9.3 10C9.9 10 10.3 9.6 10.3 9.1C10.3 8.5 9.9 8.2 9.3 8.2H8.3V10H9.3Z" fill="white"/>
<defs>
<linearGradient id="paint0_linear" x1="4.89845" y1="13.7235" x2="11.2518" y2="1.5222" gradientUnits="userSpaceOnUse">
<stop stop-color="#AF1DF5"/>
<stop offset="0.2116" stop-color="#BC20E4"/>
<stop offset="0.6282" stop-color="#DD29B8"/>
<stop offset="1" stop-color="#FF318C"/>
</linearGradient>
<linearGradient id="paint1_linear" x1="3.04435" y1="17.4326" x2="10.7454" y2="7.26025" gradientUnits="userSpaceOnUse">
<stop offset="0.1207" stop-color="#6B57FF"/>
<stop offset="0.4014" stop-color="#B74AF7"/>
<stop offset="0.7088" stop-color="#FF318C"/>
<stop offset="0.8648" stop-color="#FF7FB8"/>
</linearGradient>
<linearGradient id="paint2_linear" x1="4.16562" y1="20.6226" x2="10.0752" y2="16.5314" gradientUnits="userSpaceOnUse">
<stop offset="0.0892486" stop-color="#6B57FF"/>
<stop offset="0.4021" stop-color="#8253FD"/>
<stop offset="0.4579" stop-color="#8A52FC"/>
<stop offset="0.7051" stop-color="#AB4CF8"/>
<stop offset="0.8412" stop-color="#B74AF7"/>
</linearGradient>
<linearGradient id="paint3_linear" x1="19.6084" y1="16.9173" x2="14.6729" y2="5.20355" gradientUnits="userSpaceOnUse">
<stop stop-color="#4335BE"/>
<stop offset="0.1308" stop-color="#5638C7"/>
<stop offset="0.5322" stop-color="#8A42E1"/>
<stop offset="0.8343" stop-color="#AB48F1"/>
<stop offset="1" stop-color="#B74AF7"/>
</linearGradient>
<linearGradient id="paint4_linear" x1="19.5168" y1="16.8635" x2="15.1266" y2="6.44395" gradientUnits="userSpaceOnUse">
<stop stop-color="#4335BE"/>
<stop offset="0.2419" stop-color="#663BCF"/>
<stop offset="0.7408" stop-color="#B74AF7"/>
</linearGradient>
<linearGradient id="paint5_linear" x1="17.0017" y1="20.687" x2="9.9073" y2="10.2883" gradientUnits="userSpaceOnUse">
<stop offset="0.016129" stop-color="#6B57FF"/>
<stop offset="0.7829" stop-color="#B74AF7"/>
</linearGradient>
<linearGradient id="paint6_linear" x1="19.2005" y1="19.6832" x2="14.0658" y2="12.157" gradientUnits="userSpaceOnUse">
<stop offset="0.016129" stop-color="#6B57FF"/>
<stop offset="0.7829" stop-color="#B74AF7"/>
</linearGradient>
<linearGradient id="paint7_linear" x1="26.7418" y1="17.8973" x2="10.7106" y2="10.394" gradientUnits="userSpaceOnUse">
<stop stop-color="#4335BE"/>
<stop offset="0.2419" stop-color="#663BCF"/>
<stop offset="0.7408" stop-color="#B74AF7"/>
</linearGradient>
<linearGradient id="paint8_linear" x1="17.8041" y1="20.5029" x2="10.8432" y2="7.2139" gradientUnits="userSpaceOnUse">
<stop offset="0.016129" stop-color="#6B57FF"/>
<stop offset="0.7829" stop-color="#B74AF7"/>
</linearGradient>
<linearGradient id="paint9_linear" x1="14.3558" y1="21.8513" x2="7.5072" y2="11.8129" gradientUnits="userSpaceOnUse">
<stop offset="0.016129" stop-color="#6B57FF"/>
<stop offset="0.6909" stop-color="#B74AF7"/>
</linearGradient>
<linearGradient id="paint10_linear" x1="8.699" y1="16.692" x2="12.0948" y2="10.1705" gradientUnits="userSpaceOnUse">
<stop offset="0.016129" stop-color="#6B57FF"/>
<stop offset="0.6969" stop-color="#A329F5"/>
</linearGradient>
<linearGradient id="paint11_linear" x1="10.482" y1="9.6954" x2="14.1659" y2="16.9275" gradientUnits="userSpaceOnUse">
<stop offset="0.016129" stop-color="#6B57FF"/>
<stop offset="0.6969" stop-color="#A329F5"/>
</linearGradient>
<linearGradient id="paint12_linear" x1="6.1119" y1="20.9267" x2="12.0328" y2="10.3903" gradientUnits="userSpaceOnUse">
<stop offset="0.0242547" stop-color="#6B57FF"/>
<stop offset="0.263" stop-color="#6B57FF"/>
<stop offset="0.706" stop-color="#B74AF7"/>
<stop offset="0.7659" stop-color="#BC48F0"/>
<stop offset="0.8555" stop-color="#CA44DB"/>
<stop offset="0.9632" stop-color="#E03CBA"/>
<stop offset="1" stop-color="#E939AD"/>
</linearGradient>
<linearGradient id="paint13_linear" x1="10.2304" y1="20.0394" x2="13.1078" y2="14.9189" gradientUnits="userSpaceOnUse">
<stop offset="0.0455723" stop-color="#6B57FF"/>
<stop offset="0.295" stop-color="#8A52FC"/>
<stop offset="0.5991" stop-color="#AB4CF8"/>
<stop offset="0.7667" stop-color="#B74AF7"/>
</linearGradient>
<linearGradient id="paint14_linear" x1="14.8515" y1="15.1055" x2="12.501" y2="2.67515" gradientUnits="userSpaceOnUse">
<stop offset="0.016129" stop-color="#6B57FF"/>
<stop offset="0.5665" stop-color="#B74AF7"/>
<stop offset="0.9064" stop-color="#C276FF"/>
</linearGradient>
<linearGradient id="paint15_linear" x1="9.3785" y1="12.2767" x2="13.8318" y2="3.7244" gradientUnits="userSpaceOnUse">
<stop offset="0.016129" stop-color="#6B57FF"/>
<stop offset="0.5974" stop-color="#B74AF7"/>
</linearGradient>
<linearGradient id="paint16_linear" x1="3.30995" y1="9.70875" x2="7.53025" y2="2.04975" gradientUnits="userSpaceOnUse">
<stop offset="0.0874352" stop-color="#AF1DF5"/>
<stop offset="0.2329" stop-color="#BC20E4"/>
<stop offset="0.5194" stop-color="#DD29B8"/>
<stop offset="0.7751" stop-color="#FF318C"/>
<stop offset="0.997" stop-color="#FF64B9"/>
</linearGradient>
<linearGradient id="paint17_linear" x1="2.65845" y1="8.42285" x2="5.26075" y2="3.70015" gradientUnits="userSpaceOnUse">
<stop offset="0.00935173" stop-color="#BC20E4"/>
<stop offset="0.4441" stop-color="#D827C0"/>
<stop offset="1" stop-color="#FF318C"/>
</linearGradient>
<linearGradient id="paint18_linear" x1="8.60005" y1="22.128" x2="14.7689" y2="20.1599" gradientUnits="userSpaceOnUse">
<stop offset="0.016129" stop-color="#6B57FF"/>
<stop offset="0.6909" stop-color="#B74AF7"/>
<stop offset="0.9772" stop-color="#BD6CF7"/>
</linearGradient>
<linearGradient id="paint19_linear" x1="20.8749" y1="12.2464" x2="18.4793" y2="13.1278" gradientUnits="userSpaceOnUse">
<stop offset="0.0753552" stop-color="#6B57FF"/>
<stop offset="0.7396" stop-color="#B74AF7"/>
</linearGradient>
<linearGradient id="paint20_linear" x1="16.793" y1="9.0369" x2="17.0868" y2="6.9351" gradientUnits="userSpaceOnUse">
<stop stop-color="#B74AF7"/>
<stop offset="1" stop-color="#C276FF"/>
</linearGradient>
<linearGradient id="paint21_linear" x1="17.7609" y1="18.6985" x2="13.7654" y2="11.0708" gradientUnits="userSpaceOnUse">
<stop offset="0.016129" stop-color="#6B57FF"/>
<stop offset="0.7829" stop-color="#B74AF7"/>
</linearGradient>
<linearGradient id="paint22_linear" x1="5.37044" y1="4.70526" x2="17.3807" y2="17.9205" gradientUnits="userSpaceOnUse">
<stop stop-color="#562274"/>
<stop offset="0.59375" stop-color="#020202"/>
</linearGradient>
</defs>
</svg>
