<svg width="48" height="48" viewBox="0 0 48 48" fill="none" xmlns="http://www.w3.org/2000/svg">
<path d="M30.9 0L33.3 30.3L12.4 41.6L0 9.7L30.9 0Z" fill="url(#paint0_linear)"/>
<path d="M17.8 27.6002L12.4 41.6002L0 9.7002L17.8 27.6002Z" fill="url(#paint1_linear)"/>
<path d="M30.8999 0L31.7999 16.7H18.0999L11.8999 6L30.8999 0Z" fill="url(#paint2_linear)"/>
<path d="M25.7 15.8999L48 11.3999V32.4999L32.7 38.1999L26.4 32.4999L25.7 15.8999Z" fill="url(#paint3_linear)"/>
<path d="M47.9999 11.4L27.3999 33.7L30.8999 0L47.9999 11.4Z" fill="#21D789"/>
<path d="M47.9999 11.4002L36.5999 8.7002L32.3999 38.5002L47.9999 32.5002V11.4002Z" fill="url(#paint4_linear)"/>
<path d="M16.3999 9.7002L31.7999 12.1002L47.9999 32.5002L32.3999 38.5002L26.3999 32.5002L16.3999 9.7002Z" fill="url(#paint5_linear)"/>
<path d="M9.9 0L31.8 12.1L24.3 48H11.5L0.5 36.6L9.9 0Z" fill="url(#paint6_linear)"/>
<path d="M17.4999 4.2002L7.9999 7.2002L4.3999 21.1002L12.3999 41.6002L27.6999 31.8002L31.7999 12.3002V12.1002L17.4999 4.2002Z" fill="url(#paint7_linear)"/>
<path d="M28.6001 12.4001L31.8001 12.1001L28.6001 12.4001Z" fill="url(#paint8_linear)"/>
<path d="M15.1 30.3L21 13.2L9.9 0L0.5 36.6L15.1 30.3Z" fill="url(#paint9_linear)"/>
<path d="M11.5 48.0001L4.30005 40.6001L11.5 48.0001H24.3H11.5Z" fill="url(#paint10_linear)"/>
<path d="M4.3999 21.1001L9.6999 34.7001L12.3999 41.6001L17.7999 27.6001L5.8999 15.6001L4.3999 21.1001Z" fill="url(#paint11_linear)"/>
<path d="M15.1 30.2998L24.3 47.9998H11.5L0.5 36.5998L15.1 30.2998Z" fill="url(#paint12_linear)"/>
<path d="M15.1001 30.3001L24.3001 48.0001L31.8001 12.1001L21.0001 13.2001L15.1001 30.3001Z" fill="url(#paint13_linear)"/>
<path d="M27.2 33.6001L24.3 48.0001H11.5L12.4 41.5001L27.2 33.6001Z" fill="url(#paint14_linear)"/>
<path d="M12.4 41.5998L19.1 37.9998L15.1 30.2998L9 32.8998L12.4 41.5998Z" fill="url(#paint15_linear)"/>
<path d="M19 38.0001L24.3 48.0001L27.2 33.6001L19 38.0001Z" fill="url(#paint16_linear)"/>
<path d="M9.8999 0L31.7999 12.1L26.6999 12.6L20.9999 13.2L9.8999 0Z" fill="url(#paint17_linear)"/>
<path d="M31.5 11.9002L17.5 4.2002L14.3 5.2002L21 13.2002L26.7 12.6002L31.5 12.1002V11.9002Z" fill="url(#paint18_linear)"/>
<path d="M29.6001 12.3L31.8001 12.1L29.7001 11L29.6001 12.3Z" fill="url(#paint19_linear)"/>
<path d="M48 32.5001L31.8 12.1001L26.7 12.6001L21 13.2001L48 32.5001Z" fill="url(#paint20_linear)"/>
<path d="M28.8999 18.9001L36.2999 24.1001L38.9999 21.1001L31.7999 12.1001L29.5999 12.3001L28.8999 18.9001Z" fill="url(#paint21_linear)"/>
<path d="M34.6001 22.9002L48.0001 32.5002L35.5001 16.7002L34.6001 22.9002Z" fill="url(#paint22_linear)"/>
<path d="M48 32.5002L32.4 38.5002L27.4 33.7002L21 13.2002L48 32.5002Z" fill="url(#paint23_linear)"/>
<path d="M28.8999 18.8999L27.3999 33.6999L36.2999 24.0999L28.8999 18.8999Z" fill="url(#paint24_linear)"/>
<path d="M32.3999 38.4999L47.9999 32.4999L34.5999 22.8999L32.3999 38.4999Z" fill="url(#paint25_linear)"/>
<path d="M27.3999 33.4999L27.4999 33.5999L34.0999 26.3999L34.5999 22.8999L28.3999 24.3999L27.3999 33.4999Z" fill="url(#paint26_linear)"/>
<path d="M32.4 38.5002L27.4 33.7002L21 13.2002L32.4 38.5002Z" fill="url(#paint27_linear)"/>
<path d="M27.3999 33.7L32.3999 38.5L27.8999 28.5L27.3999 33.7Z" fill="url(#paint28_linear)"/>
<path d="M30.8999 0L27.3999 33.7L34.0999 26.4L36.5999 8.7L30.8999 0Z" fill="url(#paint29_linear)"/>
<path d="M47.9999 11.4L36.5999 8.7L30.8999 0L47.9999 11.4Z" fill="url(#paint30_linear)"/>
<path d="M39 9H9V39H39V9Z" fill="url(#paint31_linear)"/>
<g opacity="0.3">
<path opacity="0.3" d="M9 33.2L11.3 39H16.4L33.1 30L31.4 9H9V33.2Z" fill="url(#paint32_linear)"/>
<path opacity="0.3" d="M29.7 9L27.2 33.4L33.9 26.1L36.2999 9H29.7Z" fill="url(#paint33_linear)"/>
<path opacity="0.3" d="M39 9.1L38.7999 9H36.2999L32.2 38.2L39 35.6V9.1Z" fill="url(#paint34_linear)"/>
<path opacity="0.3" d="M39 25.8999L20.8 12.8999L27.2 33.3999L32.2 38.1999L39 35.5999V25.8999Z" fill="url(#paint35_linear)"/>
<path opacity="0.3" d="M9 39H25.9L31.6 11.8L26.5 9H9V39Z" fill="url(#paint36_linear)"/>
<path opacity="0.3" d="M9 32.5L14.9 30L20.8 12.9L17.5 9H9V32.5Z" fill="url(#paint37_linear)"/>
<path opacity="0.3" d="M20.8 12.9L26.4 12.3L31.6 11.8L31.3 11.6L27.3 9.4L26.5 9H17.5L20.8 12.9Z" fill="url(#paint38_linear)"/>
</g>
<path d="M23.9 33.3003H12.7V35.2003H23.9V33.3003Z" fill="white"/>
<path d="M24 22.5002L25.5 20.7002C26.5 21.5002 27.6 22.1002 28.9 22.1002C29.9 22.1002 30.5 21.7002 30.5 21.0002C30.5 20.4002 30.1 20.0002 28.2 19.6002C25.9 19.0002 24.4 18.4002 24.4 16.1002C24.4 14.0002 26.1 12.7002 28.4 12.7002C30.1 12.7002 31.5 13.2002 32.6 14.1002L31.3 16.0002C30.3 15.3002 29.3 14.9002 28.4 14.9002C27.4 14.9002 26.9 15.3002 26.9 15.9002C26.9 16.6002 27.4 16.9002 29.3 17.4002C31.6 18.0002 32.9 18.8002 32.9 20.8002C32.9 23.0002 31.2 24.3002 28.7 24.3002C27.1 24.3002 25.4 23.7002 24 22.5002Z" fill="white"/>
<path d="M12.8 12.9004H17.2C20.7 12.9004 23.2 15.3004 23.2 18.5004C23.2 21.7004 20.8 24.1004 17.2 24.1004H12.8V12.9004ZM15.2 15.1004V21.9004H17.1C19.1 21.9004 20.5 20.5004 20.5 18.5004C20.5 16.5004 19.1 15.1004 17.1 15.1004H15.2Z" fill="white"/>
<defs>
<linearGradient id="paint0_linear" x1="37.2954" y1="20.7919" x2="3.9624" y2="20.7919" gradientUnits="userSpaceOnUse">
<stop offset="0.0782105" stop-color="#21D789"/>
<stop offset="0.8726" stop-color="#FCF84A"/>
</linearGradient>
<linearGradient id="paint1_linear" x1="12.1578" y1="21.1316" x2="7.4007" y2="24.7316" gradientUnits="userSpaceOnUse">
<stop offset="0.0782105" stop-color="white"/>
<stop offset="0.8726" stop-color="#FCF84A"/>
</linearGradient>
<linearGradient id="paint2_linear" x1="24.8908" y1="6.9157" x2="29.7182" y2="-0.1142" gradientUnits="userSpaceOnUse">
<stop offset="0.095296" stop-color="#BBF8AF" stop-opacity="0"/>
<stop offset="1" stop-color="#21FF79"/>
</linearGradient>
<linearGradient id="paint3_linear" x1="36.8677" y1="13.8568" x2="36.8677" y2="53.5655" gradientUnits="userSpaceOnUse">
<stop  offset="0" stop-color="#21D789"/>
<stop offset="1" stop-color="#087CFA"/>
</linearGradient>
<linearGradient id="paint4_linear" x1="52.1008" y1="29.9823" x2="23.6545" y2="17.9288" gradientUnits="userSpaceOnUse">
<stop offset="0.0202374" stop-color="#21D789" stop-opacity="0"/>
<stop offset="1" stop-color="#00FF6A"/>
</linearGradient>
<linearGradient id="paint5_linear" x1="63.181" y1="50.4121" x2="15.8212" y2="12.0985" gradientUnits="userSpaceOnUse">
<stop offset="0.1049" stop-color="#21D789"/>
<stop offset="0.9668" stop-color="#087CFA"/>
</linearGradient>
<linearGradient id="paint6_linear" x1="41.5005" y1="-3.6947" x2="8.417" y2="33.7998" gradientUnits="userSpaceOnUse">
<stop offset="0.2348" stop-color="#21D789"/>
<stop offset="0.7396" stop-color="#087CFA"/>
</linearGradient>
<linearGradient id="paint7_linear" x1="-0.346398" y1="9.91979" x2="18.4893" y2="24.1269" gradientUnits="userSpaceOnUse">
<stop offset="0.0782105" stop-color="#21D789"/>
<stop offset="0.8283" stop-color="#087CFA" stop-opacity="0"/>
</linearGradient>
<linearGradient id="paint8_linear" x1="30.1138" y1="12.3933" x2="30.8029" y2="11.5262" gradientUnits="userSpaceOnUse">
<stop offset="0.0782105" stop-color="#21D789" stop-opacity="0"/>
<stop offset="0.8726" stop-color="#01D0FF"/>
</linearGradient>
<linearGradient id="paint9_linear" x1="6.5623" y1="22.5682" x2="19.0957" y2="6.7961" gradientUnits="userSpaceOnUse">
<stop offset="0.3826" stop-color="#087CFA" stop-opacity="0"/>
<stop offset="1" stop-color="#01EFDB"/>
</linearGradient>
<linearGradient id="paint10_linear" x1="13.5046" y1="45.2518" x2="15.9254" y2="42.2053" gradientUnits="userSpaceOnUse">
<stop offset="0.0782105" stop-color="#21D789" stop-opacity="0"/>
<stop offset="0.8726" stop-color="#01D0FF"/>
</linearGradient>
<linearGradient id="paint11_linear" x1="11.3836" y1="14.5804" x2="11.1265" y2="23.6447" gradientUnits="userSpaceOnUse">
<stop offset="0.0782105" stop-color="#21D789"/>
<stop offset="0.8283" stop-color="#087CFA" stop-opacity="0"/>
</linearGradient>
<linearGradient id="paint12_linear" x1="28.8894" y1="21.0875" x2="7.2894" y2="48.7946" gradientUnits="userSpaceOnUse">
<stop offset="0.2348" stop-color="#083FFA"/>
<stop offset="0.7396" stop-color="#087CFA"/>
</linearGradient>
<linearGradient id="paint13_linear" x1="12.6351" y1="2.6413" x2="33.6565" y2="40.0555" gradientUnits="userSpaceOnUse">
<stop offset="0.2458" stop-color="#083FFA"/>
<stop offset="0.9131" stop-color="#087CFA"/>
</linearGradient>
<linearGradient id="paint14_linear" x1="12.6983" y1="34.1706" x2="23.4914" y2="44.9636" gradientUnits="userSpaceOnUse">
<stop offset="0.2348" stop-color="#089FFF"/>
<stop offset="0.7396" stop-color="#087CFA" stop-opacity="0"/>
</linearGradient>
<linearGradient id="paint15_linear" x1="19.6586" y1="42.3934" x2="12.5283" y2="34.6208" gradientUnits="userSpaceOnUse">
<stop offset="0.1526" stop-color="#0832FF"/>
<stop offset="0.9138" stop-color="#087CFA" stop-opacity="0"/>
</linearGradient>
<linearGradient id="paint16_linear" x1="29.8254" y1="45.6808" x2="21.1485" y2="35.4118" gradientUnits="userSpaceOnUse">
<stop offset="0.1526" stop-color="#0832FF"/>
<stop offset="0.9138" stop-color="#087CFA" stop-opacity="0"/>
</linearGradient>
<linearGradient id="paint17_linear" x1="20.6459" y1="-10.763" x2="20.9502" y2="14.7996" gradientUnits="userSpaceOnUse">
<stop offset="0.2348" stop-color="#21D789"/>
<stop offset="0.8246" stop-color="#087CFA"/>
</linearGradient>
<linearGradient id="paint18_linear" x1="22.7803" y1="7.5032" x2="22.1228" y2="1.4211" gradientUnits="userSpaceOnUse">
<stop offset="0.095296" stop-color="#BBF8AF" stop-opacity="0"/>
<stop offset="1" stop-color="#21FF79"/>
</linearGradient>
<linearGradient id="paint19_linear" x1="31.3737" y1="12.9874" x2="29.273" y2="10.5479" gradientUnits="userSpaceOnUse">
<stop  offset="0" stop-color="#21D789" stop-opacity="0"/>
<stop offset="0.9185" stop-color="#21D789"/>
</linearGradient>
<linearGradient id="paint20_linear" x1="42.8601" y1="35.3913" x2="26.7862" y2="11.2805" gradientUnits="userSpaceOnUse">
<stop offset="0.027928" stop-color="#21D789"/>
<stop offset="0.9294" stop-color="#0860FA"/>
</linearGradient>
<linearGradient id="paint21_linear" x1="34.3147" y1="22.6138" x2="32.4825" y2="9.1138" gradientUnits="userSpaceOnUse">
<stop offset="0.0757413" stop-color="#087CFA" stop-opacity="0"/>
<stop offset="1" stop-color="#21D789" stop-opacity="0.6"/>
</linearGradient>
<linearGradient id="paint22_linear" x1="39.0577" y1="24.5865" x2="30.1863" y2="12.3401" gradientUnits="userSpaceOnUse">
<stop offset="0.0757413" stop-color="#087CFA" stop-opacity="0"/>
<stop offset="1" stop-color="#4F46C6" stop-opacity="0.6"/>
</linearGradient>
<linearGradient id="paint23_linear" x1="40.361" y1="37.0575" x2="24.2871" y2="12.9467" gradientUnits="userSpaceOnUse">
<stop  offset="0" stop-color="#18AFAF"/>
<stop offset="0.6591" stop-color="#0860FA"/>
<stop offset="0.9983" stop-color="#084CFA"/>
</linearGradient>
<linearGradient id="paint24_linear" x1="32.7015" y1="30.276" x2="26.3373" y2="20.151" gradientUnits="userSpaceOnUse">
<stop offset="0.0757413" stop-color="#087CFA" stop-opacity="0"/>
<stop offset="1" stop-color="#21D789" stop-opacity="0.6"/>
</linearGradient>
<linearGradient id="paint25_linear" x1="40.128" y1="35.3852" x2="29.9703" y2="25.9154" gradientUnits="userSpaceOnUse">
<stop offset="0.0757413" stop-color="#087CFA" stop-opacity="0"/>
<stop offset="1" stop-color="#21D789" stop-opacity="0.6"/>
</linearGradient>
<linearGradient id="paint26_linear" x1="30.0125" y1="27.2783" x2="26.5009" y2="24.0046" gradientUnits="userSpaceOnUse">
<stop  offset="0" stop-color="#087CFA" stop-opacity="0"/>
<stop offset="0.8547" stop-color="#0841FA"/>
</linearGradient>
<linearGradient id="paint27_linear" x1="33.4743" y1="37.3689" x2="19.2731" y2="16.0672" gradientUnits="userSpaceOnUse">
<stop  offset="0" stop-color="#089CFA"/>
<stop offset="0.7396" stop-color="#083CFA"/>
</linearGradient>
<linearGradient id="paint28_linear" x1="32.4683" y1="38.304" x2="26.8637" y2="29.897" gradientUnits="userSpaceOnUse">
<stop  offset="0" stop-color="#087CFA" stop-opacity="0"/>
<stop offset="0.9787" stop-color="#0860FA"/>
</linearGradient>
<linearGradient id="paint29_linear" x1="32.0288" y1="15.3773" x2="34.2788" y2="5.0916" gradientUnits="userSpaceOnUse">
<stop offset="0.3551" stop-color="#BBF8AF" stop-opacity="0"/>
<stop offset="1" stop-color="#21FF79"/>
</linearGradient>
<linearGradient id="paint30_linear" x1="29.8239" y1="0.6798" x2="43.0667" y2="10.6441" gradientUnits="userSpaceOnUse">
<stop offset="0.0202374" stop-color="#BBF8AF" stop-opacity="0"/>
<stop offset="1" stop-color="#21FF79"/>
</linearGradient>
<linearGradient id="paint31_linear" x1="9.2523" y1="9.2523" x2="40.0248" y2="40.0248" gradientUnits="userSpaceOnUse">
<stop offset="0.0284813" stop-color="#002846"/>
<stop offset="0.1369" stop-color="#002038"/>
<stop offset="0.4947" stop-color="#000910"/>
<stop offset="0.6795"/>
</linearGradient>
<linearGradient id="paint32_linear" x1="6.1333" y1="24" x2="30.2501" y2="24" gradientUnits="userSpaceOnUse">
<stop offset="0.0782105" stop-color="#21D789"/>
<stop offset="0.8726" stop-color="#FCF84A"/>
</linearGradient>
<linearGradient id="paint33_linear" x1="32.119" y1="31.4524" x2="31.2332" y2="6.8844" gradientUnits="userSpaceOnUse">
<stop  offset="0" stop-color="#218640"/>
<stop offset="0.8027" stop-color="#B5FA59"/>
</linearGradient>
<linearGradient id="paint34_linear" x1="35.1013" y1="10.7607" x2="36.4228" y2="43.7984" gradientUnits="userSpaceOnUse">
<stop offset="0.2348" stop-color="#21D789"/>
<stop offset="1" stop-color="#083450"/>
</linearGradient>
<linearGradient id="paint35_linear" x1="37.4315" y1="36.1572" x2="22.4154" y2="13.633" gradientUnits="userSpaceOnUse">
<stop  offset="0" stop-color="#021A43"/>
<stop offset="0.6591" stop-color="#0860FA"/>
</linearGradient>
<linearGradient id="paint36_linear" x1="18.5355" y1="-0.0355998" x2="21.4538" y2="42.0323" gradientUnits="userSpaceOnUse">
<stop offset="0.2348" stop-color="#21D789"/>
<stop offset="0.7396" stop-color="#083450"/>
</linearGradient>
<linearGradient id="paint37_linear" x1="15.9343" y1="32.5531" x2="13.3463" y2="8.2153" gradientUnits="userSpaceOnUse">
<stop offset="0.2268" stop-color="#086C93"/>
<stop offset="0.8196" stop-color="#01EFDB"/>
</linearGradient>
<linearGradient id="paint38_linear" x1="18.5397" y1="9.3763" x2="33.3202" y2="13.9952" gradientUnits="userSpaceOnUse">
<stop offset="0.2508" stop-color="#21D789"/>
<stop offset="0.8847" stop-color="#0C515A"/>
</linearGradient>
</defs>
</svg>
