<svg width="256" height="256" viewBox="0 0 256 256" fill="none" xmlns="http://www.w3.org/2000/svg">
<path d="M164.6 0L177.8 161.4L66 221.8L0 51.8L164.6 0Z" fill="url(#paint0_linear)"/>
<path d="M94.8 147L66 221.8L0 51.7998L94.8 147Z" fill="url(#paint1_linear)"/>
<path d="M164.6 0L169.6 89H96.6001L63.6001 31.8L164.6 0Z" fill="url(#paint2_linear)"/>
<path d="M137.2 84.5998L256 60.7998V173.2L174.4 203.6L141 173.4L137.2 84.5998Z" fill="url(#paint3_linear)"/>
<path d="M256 60.8L146.2 179.6L164.6 0L256 60.8Z" fill="#21D789"/>
<path d="M256 60.7996L195.2 46.5996L173 205.2L256 173.2V60.7996Z" fill="url(#paint4_linear)"/>
<path d="M87.6001 51.7998L169.6 64.5998L256 173.2L173 205.2L141 173.4L87.6001 51.7998Z" fill="url(#paint5_linear)"/>
<path d="M52.5999 0L169.6 64.6L129.4 256H61.3999L2.3999 195.2L52.5999 0Z" fill="url(#paint6_linear)"/>
<path d="M93.4001 22.4004L42.8001 38.4004L23.6001 112.8L66.0001 221.8L147.6 169.6L169.4 65.6004V64.4004L93.4001 22.4004Z" fill="url(#paint7_linear)"/>
<path d="M152.6 66.3996L169.6 64.5996L152.6 66.3996Z" fill="url(#paint8_linear)"/>
<path d="M80.3999 161.4L112 70.6L52.5999 0L2.3999 195.2L80.3999 161.4Z" fill="url(#paint9_linear)"/>
<path d="M61.4 256L23 216.4L61.4 256H129.4H61.4Z" fill="url(#paint10_linear)"/>
<path d="M23.6001 112.8L51.8001 185L66.0001 221.8L94.8001 147L31.2001 83.2002L23.6001 112.8Z" fill="url(#paint11_linear)"/>
<path d="M80.3999 161.4L129.4 256H61.3999L2.3999 195.2L80.3999 161.4Z" fill="url(#paint12_linear)"/>
<path d="M80.3999 161.4L129.4 256L169.6 64.5996L112 70.5996L80.3999 161.4Z" fill="url(#paint13_linear)"/>
<path d="M144.8 179.2L129.4 256H61.3999L65.9999 221.4L144.8 179.2Z" fill="url(#paint14_linear)"/>
<path d="M66 221.8L101.6 202.6L80.4 161.4L48 175.4L66 221.8Z" fill="url(#paint15_linear)"/>
<path d="M101.6 202.4L129.4 256L144.8 179.2L101.6 202.4Z" fill="url(#paint16_linear)"/>
<path d="M52.6001 0L169.6 64.6L142.2 67.4L112 70.6L52.6001 0Z" fill="url(#paint17_linear)"/>
<path d="M168.2 63.6004L93.4 22.4004L76 27.8004L112 70.6004L142.2 67.4004L168.2 64.6004V63.6004Z" fill="url(#paint18_linear)"/>
<path d="M157.8 65.8004L169.6 64.6004L158.6 58.4004L157.8 65.8004Z" fill="url(#paint19_linear)"/>
<path d="M256 173.2L169.6 64.5996L142.2 67.3996L112 70.5996L256 173.2Z" fill="url(#paint20_linear)"/>
<path d="M154.2 100.6L193.4 128.6L208 112.8L169.6 64.5996L157.8 65.7996L154.2 100.6Z" fill="url(#paint21_linear)"/>
<path d="M184.6 122.4L256 173.2L189.2 89.2002L184.6 122.4Z" fill="url(#paint22_linear)"/>
<path d="M256 173.2L173 205.2L146.2 179.6L112 70.5996L256 173.2Z" fill="url(#paint23_linear)"/>
<path d="M154.2 100.6L146.2 179.6L193.4 128.6L154.2 100.6Z" fill="url(#paint24_linear)"/>
<path d="M173 205.2L256 173.2L184.6 122.4L173 205.2Z" fill="url(#paint25_linear)"/>
<path d="M146.2 178.6L146.6 179L182 140.6L184.6 122.4L151.2 130L146.2 178.6Z" fill="url(#paint26_linear)"/>
<path d="M173 205.2L146.2 179.6L112 70.5996L173 205.2Z" fill="url(#paint27_linear)"/>
<path d="M146.2 179.6L173 205.2L149 152.2L146.2 179.6Z" fill="url(#paint28_linear)"/>
<path d="M164.6 0L146.2 179.6L182 140.6L195.2 46.6L164.6 0Z" fill="url(#paint29_linear)"/>
<path d="M256 60.8L195.2 46.6L164.6 0L256 60.8Z" fill="url(#paint30_linear)"/>
<path d="M208 48H48V208H208V48Z" fill="url(#paint31_linear)"/>
<g opacity="0.3">
<path opacity="0.3" d="M48 176.8L60.2 208H87.4L176.6 159.8L167.6 48H48V176.8Z" fill="url(#paint32_linear)"/>
<path opacity="0.3" d="M158.4 48L145 178L181 139.2L193.6 48H158.4Z" fill="url(#paint33_linear)"/>
<path opacity="0.3" d="M208 48.2L206.8 48H193.6L172 203.8L208 189.8V48.2Z" fill="url(#paint34_linear)"/>
<path opacity="0.3" d="M208 138.2L110.8 69L145 178L172 203.8L208 189.8V138.2Z" fill="url(#paint35_linear)"/>
<path opacity="0.3" d="M48 208H138L168.6 63L141.4 48H48V208Z" fill="url(#paint36_linear)"/>
<path opacity="0.3" d="M48 173.4L79.2 159.8L110.8 69L93.2 48H48V173.4Z" fill="url(#paint37_linear)"/>
<path opacity="0.3" d="M110.8 69L141 65.8L168.6 63L167 62.2L145.4 50.2L141.4 48H93.2002L110.8 69Z" fill="url(#paint38_linear)"/>
</g>
<path d="M128 177.8H68V187.8H128V177.8Z" fill="white"/>
<path d="M68 68.0039H91.338C110.25 68.0039 123.528 80.88 123.528 97.78C123.528 114.68 110.25 127.958 91.338 127.958H68V68.0039ZM81.2785 80.0753V116.289H91.338C102.202 116.289 109.445 109.047 109.445 98.1823C109.445 87.3181 102.202 80.0753 91.338 80.0753H81.2785Z" fill="white"/>
<path d="M128.356 119.911L136.404 110.254C142.037 114.68 147.671 117.497 154.511 117.497C160.144 117.497 163.363 115.485 163.363 111.863C163.363 108.644 161.352 106.632 151.292 104.218C139.221 100.999 131.173 97.78 131.173 85.7087C131.173 74.8444 140.025 67.1992 152.499 67.1992C161.352 67.1992 168.997 70.0159 175.032 74.8444L168.192 84.9039C162.961 81.2825 157.328 78.8682 152.499 78.8682C147.268 78.8682 144.854 81.2825 144.854 84.0991C144.854 88.1229 147.268 89.3301 158.133 92.1467C170.606 95.3658 177.447 99.7919 177.447 110.254C177.447 122.325 168.192 129.166 155.316 129.166C144.854 129.568 135.599 126.349 128.356 119.911Z" fill="white"/>
<defs>
<linearGradient id="paint0_linear" x1="198.908" y1="110.89" x2="21.1318" y2="110.89" gradientUnits="userSpaceOnUse">
<stop offset="0.0782105" stop-color="#21D789"/>
<stop offset="0.8726" stop-color="#FCF84A"/>
</linearGradient>
<linearGradient id="paint1_linear" x1="64.8416" y1="112.7" x2="39.4702" y2="131.9" gradientUnits="userSpaceOnUse">
<stop offset="0.0782105" stop-color="white"/>
<stop offset="0.8726" stop-color="#FCF84A"/>
</linearGradient>
<linearGradient id="paint2_linear" x1="132.751" y1="36.8838" x2="158.498" y2="-0.609" gradientUnits="userSpaceOnUse">
<stop offset="0.095296" stop-color="#BBF8AF" stop-opacity="0"/>
<stop offset="1" stop-color="#21FF79"/>
</linearGradient>
<linearGradient id="paint3_linear" x1="196.627" y1="73.9032" x2="196.627" y2="285.683" gradientUnits="userSpaceOnUse">
<stop stop-color="#21D789"/>
<stop offset="1" stop-color="#087CFA"/>
</linearGradient>
<linearGradient id="paint4_linear" x1="277.872" y1="159.904" x2="126.158" y2="95.6186" gradientUnits="userSpaceOnUse">
<stop offset="0.0202374" stop-color="#21D789" stop-opacity="0"/>
<stop offset="1" stop-color="#00FF6A"/>
</linearGradient>
<linearGradient id="paint5_linear" x1="336.965" y1="268.863" x2="84.3791" y2="64.5242" gradientUnits="userSpaceOnUse">
<stop offset="0.1049" stop-color="#21D789"/>
<stop offset="0.9668" stop-color="#087CFA"/>
</linearGradient>
<linearGradient id="paint6_linear" x1="221.333" y1="-19.7048" x2="44.8887" y2="180.266" gradientUnits="userSpaceOnUse">
<stop offset="0.2348" stop-color="#21D789"/>
<stop offset="0.7396" stop-color="#087CFA"/>
</linearGradient>
<linearGradient id="paint7_linear" x1="-1.8467" y1="52.9046" x2="98.6101" y2="128.676" gradientUnits="userSpaceOnUse">
<stop offset="0.0782105" stop-color="#21D789"/>
<stop offset="0.8283" stop-color="#087CFA" stop-opacity="0"/>
</linearGradient>
<linearGradient id="paint8_linear" x1="160.606" y1="66.0968" x2="164.282" y2="61.4722" gradientUnits="userSpaceOnUse">
<stop offset="0.0782105" stop-color="#21D789" stop-opacity="0"/>
<stop offset="0.8726" stop-color="#01D0FF"/>
</linearGradient>
<linearGradient id="paint9_linear" x1="34.9987" y1="120.364" x2="101.844" y2="36.2458" gradientUnits="userSpaceOnUse">
<stop offset="0.3826" stop-color="#087CFA" stop-opacity="0"/>
<stop offset="1" stop-color="#01EFDB"/>
</linearGradient>
<linearGradient id="paint10_linear" x1="72.0242" y1="241.342" x2="84.9356" y2="225.095" gradientUnits="userSpaceOnUse">
<stop offset="0.0782105" stop-color="#21D789" stop-opacity="0"/>
<stop offset="0.8726" stop-color="#01D0FF"/>
</linearGradient>
<linearGradient id="paint11_linear" x1="60.7135" y1="77.7618" x2="59.3421" y2="126.104" gradientUnits="userSpaceOnUse">
<stop offset="0.0782105" stop-color="#21D789"/>
<stop offset="0.8283" stop-color="#087CFA" stop-opacity="0"/>
</linearGradient>
<linearGradient id="paint12_linear" x1="154.076" y1="112.468" x2="38.8769" y2="260.239" gradientUnits="userSpaceOnUse">
<stop offset="0.2348" stop-color="#083FFA"/>
<stop offset="0.7396" stop-color="#087CFA"/>
</linearGradient>
<linearGradient id="paint13_linear" x1="67.3865" y1="14.0862" x2="179.5" y2="213.629" gradientUnits="userSpaceOnUse">
<stop offset="0.2458" stop-color="#083FFA"/>
<stop offset="0.9131" stop-color="#087CFA"/>
</linearGradient>
<linearGradient id="paint14_linear" x1="67.7241" y1="182.242" x2="125.287" y2="239.806" gradientUnits="userSpaceOnUse">
<stop offset="0.2348" stop-color="#089FFF"/>
<stop offset="0.7396" stop-color="#087CFA" stop-opacity="0"/>
</linearGradient>
<linearGradient id="paint15_linear" x1="104.846" y1="226.1" x2="66.8176" y2="184.645" gradientUnits="userSpaceOnUse">
<stop offset="0.1526" stop-color="#0832FF"/>
<stop offset="0.9138" stop-color="#087CFA" stop-opacity="0"/>
</linearGradient>
<linearGradient id="paint16_linear" x1="159.069" y1="243.63" x2="112.792" y2="188.862" gradientUnits="userSpaceOnUse">
<stop offset="0.1526" stop-color="#0832FF"/>
<stop offset="0.9138" stop-color="#087CFA" stop-opacity="0"/>
</linearGradient>
<linearGradient id="paint17_linear" x1="110.112" y1="-57.4028" x2="111.735" y2="78.9314" gradientUnits="userSpaceOnUse">
<stop offset="0.2348" stop-color="#21D789"/>
<stop offset="0.8246" stop-color="#087CFA"/>
</linearGradient>
<linearGradient id="paint18_linear" x1="121.495" y1="40.0164" x2="117.988" y2="7.57839" gradientUnits="userSpaceOnUse">
<stop offset="0.095296" stop-color="#BBF8AF" stop-opacity="0"/>
<stop offset="1" stop-color="#21FF79"/>
</linearGradient>
<linearGradient id="paint19_linear" x1="167.325" y1="69.2664" x2="156.122" y2="56.2556" gradientUnits="userSpaceOnUse">
<stop stop-color="#21D789" stop-opacity="0"/>
<stop offset="0.9185" stop-color="#21D789"/>
</linearGradient>
<linearGradient id="paint20_linear" x1="228.587" y1="188.753" x2="142.86" y2="60.1618" gradientUnits="userSpaceOnUse">
<stop offset="0.027928" stop-color="#21D789"/>
<stop offset="0.9294" stop-color="#0860FA"/>
</linearGradient>
<linearGradient id="paint21_linear" x1="183.012" y1="120.606" x2="173.241" y2="48.6062" gradientUnits="userSpaceOnUse">
<stop offset="0.0757413" stop-color="#087CFA" stop-opacity="0"/>
<stop offset="1" stop-color="#21D789" stop-opacity="0.6"/>
</linearGradient>
<linearGradient id="paint22_linear" x1="208.307" y1="131.127" x2="160.993" y2="65.813" gradientUnits="userSpaceOnUse">
<stop offset="0.0757413" stop-color="#087CFA" stop-opacity="0"/>
<stop offset="1" stop-color="#4F46C6" stop-opacity="0.6"/>
</linearGradient>
<linearGradient id="paint23_linear" x1="215.259" y1="197.638" x2="129.531" y2="69.0476" gradientUnits="userSpaceOnUse">
<stop stop-color="#18AFAF"/>
<stop offset="0.6591" stop-color="#0860FA"/>
<stop offset="0.9983" stop-color="#084CFA"/>
</linearGradient>
<linearGradient id="paint24_linear" x1="174.409" y1="161.472" x2="140.466" y2="107.472" gradientUnits="userSpaceOnUse">
<stop offset="0.0757413" stop-color="#087CFA" stop-opacity="0"/>
<stop offset="1" stop-color="#21D789" stop-opacity="0.6"/>
</linearGradient>
<linearGradient id="paint25_linear" x1="214.016" y1="188.722" x2="159.842" y2="138.216" gradientUnits="userSpaceOnUse">
<stop offset="0.0757413" stop-color="#087CFA" stop-opacity="0"/>
<stop offset="1" stop-color="#21D789" stop-opacity="0.6"/>
</linearGradient>
<linearGradient id="paint26_linear" x1="160.067" y1="145.485" x2="141.339" y2="128.025" gradientUnits="userSpaceOnUse">
<stop stop-color="#087CFA" stop-opacity="0"/>
<stop offset="0.8547" stop-color="#0841FA"/>
</linearGradient>
<linearGradient id="paint27_linear" x1="178.529" y1="199.299" x2="102.79" y2="85.69" gradientUnits="userSpaceOnUse">
<stop stop-color="#089CFA"/>
<stop offset="0.7396" stop-color="#083CFA"/>
</linearGradient>
<linearGradient id="paint28_linear" x1="173.165" y1="204.288" x2="143.274" y2="159.451" gradientUnits="userSpaceOnUse">
<stop stop-color="#087CFA" stop-opacity="0"/>
<stop offset="0.9787" stop-color="#0860FA"/>
</linearGradient>
<linearGradient id="paint29_linear" x1="170.821" y1="82.0122" x2="182.821" y2="27.1552" gradientUnits="userSpaceOnUse">
<stop offset="0.3551" stop-color="#BBF8AF" stop-opacity="0"/>
<stop offset="1" stop-color="#21FF79"/>
</linearGradient>
<linearGradient id="paint30_linear" x1="159.061" y1="3.6256" x2="229.69" y2="56.7682" gradientUnits="userSpaceOnUse">
<stop offset="0.0202374" stop-color="#BBF8AF" stop-opacity="0"/>
<stop offset="1" stop-color="#21FF79"/>
</linearGradient>
<linearGradient id="paint31_linear" x1="49.3456" y1="49.3456" x2="213.466" y2="213.466" gradientUnits="userSpaceOnUse">
<stop offset="0.0284813" stop-color="#002846"/>
<stop offset="0.1369" stop-color="#002038"/>
<stop offset="0.4947" stop-color="#000910"/>
<stop offset="0.6795"/>
</linearGradient>
<linearGradient id="paint32_linear" x1="32.7108" y1="128" x2="161.334" y2="128" gradientUnits="userSpaceOnUse">
<stop offset="0.0782105" stop-color="#21D789"/>
<stop offset="0.8726" stop-color="#FCF84A"/>
</linearGradient>
<linearGradient id="paint33_linear" x1="171.301" y1="167.746" x2="166.577" y2="36.7166" gradientUnits="userSpaceOnUse">
<stop stop-color="#218640"/>
<stop offset="0.8027" stop-color="#B5FA59"/>
</linearGradient>
<linearGradient id="paint34_linear" x1="187.207" y1="57.3906" x2="194.255" y2="233.591" gradientUnits="userSpaceOnUse">
<stop offset="0.2348" stop-color="#21D789"/>
<stop offset="1" stop-color="#083450"/>
</linearGradient>
<linearGradient id="paint35_linear" x1="199.635" y1="192.839" x2="119.549" y2="72.71" gradientUnits="userSpaceOnUse">
<stop stop-color="#021A43"/>
<stop offset="0.6591" stop-color="#0860FA"/>
</linearGradient>
<linearGradient id="paint36_linear" x1="98.8558" y1="-0.19" x2="114.42" y2="224.172" gradientUnits="userSpaceOnUse">
<stop offset="0.2348" stop-color="#21D789"/>
<stop offset="0.7396" stop-color="#083450"/>
</linearGradient>
<linearGradient id="paint37_linear" x1="84.9828" y1="173.616" x2="71.1804" y2="43.8152" gradientUnits="userSpaceOnUse">
<stop offset="0.2268" stop-color="#086C93"/>
<stop offset="0.8196" stop-color="#01EFDB"/>
</linearGradient>
<linearGradient id="paint38_linear" x1="98.8784" y1="50.0068" x2="177.708" y2="74.6412" gradientUnits="userSpaceOnUse">
<stop offset="0.2508" stop-color="#21D789"/>
<stop offset="0.8847" stop-color="#0C515A"/>
</linearGradient>
</defs>
</svg>
