<svg width="70" height="70" viewBox="0 0 70 70" fill="none" xmlns="http://www.w3.org/2000/svg">
<path d="M45 0L48.6 44.1L18 60.6L0 14.2L45 0Z" fill="url(#paint0_linear)"/>
<path d="M25.9 40.2002L18 60.6002L0 14.2002L25.9 40.2002Z" fill="url(#paint1_linear)"/>
<path d="M44.9999 0L46.3999 24.4H26.3999L17.3999 8.7L44.9999 0Z" fill="url(#paint2_linear)"/>
<path d="M37.5 23.2001L70 16.6001V47.3001L47.7 55.7001L38.6 47.4001L37.5 23.2001Z" fill="url(#paint3_linear)"/>
<path d="M70 16.6L40 49.1L45 0L70 16.6Z" fill="#21D789"/>
<path d="M70 16.6002L53.4001 12.7002L47.3 56.1002L70 47.3002V16.6002Z" fill="url(#paint4_linear)"/>
<path d="M23.8999 14.1001L46.3999 17.6001L69.9999 47.3001L47.2999 56.1001L38.5999 47.4001L23.8999 14.1001Z" fill="url(#paint5_linear)"/>
<path d="M14.4 0L46.4 17.6L35.4 70H16.7999L0.699951 53.4L14.4 0Z" fill="url(#paint6_linear)"/>
<path d="M25.5 6.1001L11.7 10.5001L6.5 30.8001L18 60.6001L40.3 46.4001L46.3 18.0001V17.6001L25.5 6.1001Z" fill="url(#paint7_linear)"/>
<path d="M41.7 18.1001L46.4 17.6001L41.7 18.1001Z" fill="url(#paint8_linear)"/>
<path d="M22 44.1L30.6 19.3L14.4 0L0.699951 53.4L22 44.1Z" fill="url(#paint9_linear)"/>
<path d="M16.8 70.0001L6.30005 59.1001L16.8 70.0001H35.4001H16.8Z" fill="url(#paint10_linear)"/>
<path d="M6.5 30.7998L14.1 50.5998L18 60.5998L25.9 40.1998L8.5 22.7998L6.5 30.7998Z" fill="url(#paint11_linear)"/>
<path d="M22 44.1001L35.4 70.0001H16.7999L0.699951 53.4001L22 44.1001Z" fill="url(#paint12_linear)"/>
<path d="M22 44.1001L35.4 70.0001L46.4 17.6001L30.6 19.3001L22 44.1001Z" fill="url(#paint13_linear)"/>
<path d="M39.6 49L35.4001 70H16.8L18 60.5L39.6 49Z" fill="url(#paint14_linear)"/>
<path d="M18.0001 60.6001L27.8001 55.4001L22.0001 44.1001L13.1001 48.0001L18.0001 60.6001Z" fill="url(#paint15_linear)"/>
<path d="M27.8 55.3L35.4001 70L39.6 49L27.8 55.3Z" fill="url(#paint16_linear)"/>
<path d="M14.3999 0L46.3999 17.6L38.8999 18.4L30.5999 19.3L14.3999 0Z" fill="url(#paint17_linear)"/>
<path d="M46 17.4001L25.5 6.1001L20.8 7.6001L30.6 19.3001L38.9001 18.4001L46 17.7001V17.4001Z" fill="url(#paint18_linear)"/>
<path d="M43.2 18L46.4 17.6L43.4 16L43.2 18Z" fill="url(#paint19_linear)"/>
<path d="M70.0001 47.3001L46.4001 17.6001L38.9001 18.4001L30.6001 19.3001L70.0001 47.3001Z" fill="url(#paint20_linear)"/>
<path d="M42.2 27.5001L52.9 35.1001L56.9 30.8001L46.4 17.6001L43.2 18.0001L42.2 27.5001Z" fill="url(#paint21_linear)"/>
<path d="M50.5 33.4999L70 47.2999L51.8 24.3999L50.5 33.4999Z" fill="url(#paint22_linear)"/>
<path d="M70.0001 47.2998L47.3001 56.0998L40.0001 49.0998L30.6001 19.2998L70.0001 47.2998Z" fill="url(#paint23_linear)"/>
<path d="M42.2 27.5L40 49.1L52.9 35.1L42.2 27.5Z" fill="url(#paint24_linear)"/>
<path d="M47.3 56.1L70 47.3L50.5 33.5L47.3 56.1Z" fill="url(#paint25_linear)"/>
<path d="M40 48.8L40.1 49L49.8 38.5L50.5 33.5L41.4 35.6L40 48.8Z" fill="url(#paint26_linear)"/>
<path d="M47.3001 56.0998L40.0001 49.0998L30.6001 19.2998L47.3001 56.0998Z" fill="url(#paint27_linear)"/>
<path d="M40 49.1001L47.3 56.1001L40.7 41.6001L40 49.1001Z" fill="url(#paint28_linear)"/>
<path d="M45 0L40 49.1L49.8 38.5L53.4 12.7L45 0Z" fill="url(#paint29_linear)"/>
<path d="M70 16.6L53.4 12.7L45 0L70 16.6Z" fill="url(#paint30_linear)"/>
<path d="M57 13H13V57H57V13Z" fill="url(#paint31_linear)"/>
<g opacity="0.3">
<path opacity="0.3" d="M13 48.4L16.3 57H23.9L48.4 43.8L45.9 13H13V48.4Z" fill="url(#paint32_linear)"/>
<path opacity="0.3" d="M43.4 13L39.7 48.8L49.5999 38.1L53.0999 13H43.4Z" fill="url(#paint33_linear)"/>
<path opacity="0.3" d="M57.0001 13.1L56.7001 13H53.1001L47.1001 55.8L57.0001 52V13.1Z" fill="url(#paint34_linear)"/>
<path opacity="0.3" d="M57 37.7998L30.3 18.7998L39.7001 48.7998L47.1 55.7998L57 51.9998V37.7998Z" fill="url(#paint35_linear)"/>
<path opacity="0.3" d="M13 57H37.7L46.1 17.1L38.7 13H13V57Z" fill="url(#paint36_linear)"/>
<path opacity="0.3" d="M13 47.5L21.6 43.8L30.3 18.8L25.4 13H13V47.5Z" fill="url(#paint37_linear)"/>
<path opacity="0.3" d="M30.2999 18.8L38.5999 17.9L46.1999 17.1L45.6999 16.9L39.7999 13.6L38.6999 13H25.3999L30.2999 18.8Z" fill="url(#paint38_linear)"/>
</g>
<path d="M35 48.7002H18.5V51.4002H35V48.7002Z" fill="white"/>
<path d="M34.9927 32.4936L37.1917 29.8947C38.691 31.0942 40.2903 31.8938 42.1895 31.8938C43.6888 31.8938 44.5884 31.2941 44.5884 30.2946C44.5884 29.395 43.9887 28.8952 41.2899 28.1955C37.9913 27.2959 35.7923 26.3963 35.7923 23.0977V22.9978C35.7923 19.9991 38.1913 18 41.5898 18C43.9887 18 46.0878 18.7996 47.787 20.0991L45.8879 22.8978C44.3885 21.8983 42.9891 21.2985 41.5898 21.2985C40.1904 21.2985 39.4907 21.8983 39.4907 22.6979C39.4907 23.7974 40.1904 24.1973 43.0891 24.8969C46.4876 25.7965 48.3867 26.996 48.3867 29.8947C48.3867 33.1933 45.8879 34.9925 42.2894 34.9925C39.4907 35.0924 36.9918 34.1928 34.9927 32.4936Z" fill="white"/>
<path d="M18.5 18.2998H24.8972C30.0949 18.2998 33.6933 21.8982 33.6933 26.4962C33.6933 31.0941 30.0949 34.6925 24.8972 34.6925H18.5V18.2998ZM22.0984 21.5983V31.494H24.8972C27.8958 31.494 29.895 29.4948 29.895 26.5961C29.895 23.6974 27.8958 21.5983 24.8972 21.5983H22.0984V21.5983Z" fill="white"/>
<defs>
<linearGradient id="paint0_linear" x1="54.3892" y1="30.3215" x2="5.7784" y2="30.3215" gradientUnits="userSpaceOnUse">
<stop offset="0.0782105" stop-color="#21D789"/>
<stop offset="0.8726" stop-color="#FCF84A"/>
</linearGradient>
<linearGradient id="paint1_linear" x1="17.7301" y1="30.8168" x2="10.7926" y2="36.0668" gradientUnits="userSpaceOnUse">
<stop offset="0.0782105" stop-color="white"/>
<stop offset="0.8726" stop-color="#FCF84A"/>
</linearGradient>
<linearGradient id="paint2_linear" x1="36.2991" y1="10.0854" x2="43.339" y2="-0.1665" gradientUnits="userSpaceOnUse">
<stop offset="0.095296" stop-color="#BBF8AF" stop-opacity="0"/>
<stop offset="1" stop-color="#21FF79"/>
</linearGradient>
<linearGradient id="paint3_linear" x1="53.7652" y1="20.2081" x2="53.7652" y2="78.1166" gradientUnits="userSpaceOnUse">
<stop stop-color="#21D789"/>
<stop offset="1" stop-color="#087CFA"/>
</linearGradient>
<linearGradient id="paint4_linear" x1="75.9807" y1="43.7241" x2="34.4963" y2="26.1461" gradientUnits="userSpaceOnUse">
<stop offset="0.0202374" stop-color="#21D789" stop-opacity="0"/>
<stop offset="1" stop-color="#00FF6A"/>
</linearGradient>
<linearGradient id="paint5_linear" x1="92.1391" y1="73.5174" x2="23.0727" y2="17.6435" gradientUnits="userSpaceOnUse">
<stop offset="0.1049" stop-color="#21D789"/>
<stop offset="0.9668" stop-color="#087CFA"/>
</linearGradient>
<linearGradient id="paint6_linear" x1="60.521" y1="-5.388" x2="12.2745" y2="49.2914" gradientUnits="userSpaceOnUse">
<stop offset="0.2348" stop-color="#21D789"/>
<stop offset="0.7396" stop-color="#087CFA"/>
</linearGradient>
<linearGradient id="paint7_linear" x1="-0.505" y1="14.4661" x2="26.9637" y2="35.1848" gradientUnits="userSpaceOnUse">
<stop offset="0.0782105" stop-color="#21D789"/>
<stop offset="0.8283" stop-color="#087CFA" stop-opacity="0"/>
</linearGradient>
<linearGradient id="paint8_linear" x1="43.9158" y1="18.0736" x2="44.9207" y2="16.809" gradientUnits="userSpaceOnUse">
<stop offset="0.0782105" stop-color="#21D789" stop-opacity="0"/>
<stop offset="0.8726" stop-color="#01D0FF"/>
</linearGradient>
<linearGradient id="paint9_linear" x1="9.56995" y1="32.9119" x2="27.848" y2="9.9109" gradientUnits="userSpaceOnUse">
<stop offset="0.3826" stop-color="#087CFA" stop-opacity="0"/>
<stop offset="1" stop-color="#01EFDB"/>
</linearGradient>
<linearGradient id="paint10_linear" x1="19.6942" y1="65.9921" x2="23.2247" y2="61.5494" gradientUnits="userSpaceOnUse">
<stop offset="0.0782105" stop-color="#21D789" stop-opacity="0"/>
<stop offset="0.8726" stop-color="#01D0FF"/>
</linearGradient>
<linearGradient id="paint11_linear" x1="16.6013" y1="21.2627" x2="16.2263" y2="34.4815" gradientUnits="userSpaceOnUse">
<stop offset="0.0782105" stop-color="#21D789"/>
<stop offset="0.8283" stop-color="#087CFA" stop-opacity="0"/>
</linearGradient>
<linearGradient id="paint12_linear" x1="42.1303" y1="30.753" x2="10.6303" y2="71.1592" gradientUnits="userSpaceOnUse">
<stop offset="0.2348" stop-color="#083FFA"/>
<stop offset="0.7396" stop-color="#087CFA"/>
</linearGradient>
<linearGradient id="paint13_linear" x1="18.426" y1="3.8519" x2="49.0822" y2="58.4143" gradientUnits="userSpaceOnUse">
<stop offset="0.2458" stop-color="#083FFA"/>
<stop offset="0.9131" stop-color="#087CFA"/>
</linearGradient>
<linearGradient id="paint14_linear" x1="18.5183" y1="49.8319" x2="34.2582" y2="65.5718" gradientUnits="userSpaceOnUse">
<stop offset="0.2348" stop-color="#089FFF"/>
<stop offset="0.7396" stop-color="#087CFA" stop-opacity="0"/>
</linearGradient>
<linearGradient id="paint15_linear" x1="28.6689" y1="61.8242" x2="18.2705" y2="50.489" gradientUnits="userSpaceOnUse">
<stop offset="0.1526" stop-color="#0832FF"/>
<stop offset="0.9138" stop-color="#087CFA" stop-opacity="0"/>
</linearGradient>
<linearGradient id="paint16_linear" x1="43.4954" y1="66.6177" x2="30.8416" y2="51.642" gradientUnits="userSpaceOnUse">
<stop offset="0.1526" stop-color="#0832FF"/>
<stop offset="0.9138" stop-color="#087CFA" stop-opacity="0"/>
</linearGradient>
<linearGradient id="paint17_linear" x1="30.1087" y1="-15.6961" x2="30.5524" y2="21.5828" gradientUnits="userSpaceOnUse">
<stop offset="0.2348" stop-color="#21D789"/>
<stop offset="0.8246" stop-color="#087CFA"/>
</linearGradient>
<linearGradient id="paint18_linear" x1="33.2213" y1="10.942" x2="32.2624" y2="2.0722" gradientUnits="userSpaceOnUse">
<stop offset="0.095296" stop-color="#BBF8AF" stop-opacity="0"/>
<stop offset="1" stop-color="#21FF79"/>
</linearGradient>
<linearGradient id="paint19_linear" x1="45.7531" y1="18.9399" x2="42.6896" y2="15.3823" gradientUnits="userSpaceOnUse">
<stop stop-color="#21D789" stop-opacity="0"/>
<stop offset="0.9185" stop-color="#21D789"/>
</linearGradient>
<linearGradient id="paint20_linear" x1="62.5044" y1="51.6123" x2="39.0634" y2="16.4507" gradientUnits="userSpaceOnUse">
<stop offset="0.027928" stop-color="#21D789"/>
<stop offset="0.9294" stop-color="#0860FA"/>
</linearGradient>
<linearGradient id="paint21_linear" x1="50.0424" y1="32.9784" x2="47.3705" y2="13.291" gradientUnits="userSpaceOnUse">
<stop offset="0.0757413" stop-color="#087CFA" stop-opacity="0"/>
<stop offset="1" stop-color="#21D789" stop-opacity="0.6"/>
</linearGradient>
<linearGradient id="paint22_linear" x1="56.959" y1="35.855" x2="44.0216" y2="17.9956" gradientUnits="userSpaceOnUse">
<stop offset="0.0757413" stop-color="#087CFA" stop-opacity="0"/>
<stop offset="1" stop-color="#4F46C6" stop-opacity="0.6"/>
</linearGradient>
<linearGradient id="paint23_linear" x1="58.8599" y1="54.0416" x2="35.4189" y2="18.8801" gradientUnits="userSpaceOnUse">
<stop stop-color="#18AFAF"/>
<stop offset="0.6591" stop-color="#0860FA"/>
<stop offset="0.9983" stop-color="#084CFA"/>
</linearGradient>
<linearGradient id="paint24_linear" x1="47.6899" y1="44.1527" x2="38.4086" y2="29.3871" gradientUnits="userSpaceOnUse">
<stop offset="0.0757413" stop-color="#087CFA" stop-opacity="0"/>
<stop offset="1" stop-color="#21D789" stop-opacity="0.6"/>
</linearGradient>
<linearGradient id="paint25_linear" x1="58.5201" y1="51.6036" x2="43.707" y2="37.7934" gradientUnits="userSpaceOnUse">
<stop offset="0.0757413" stop-color="#087CFA" stop-opacity="0"/>
<stop offset="1" stop-color="#21D789" stop-opacity="0.6"/>
</linearGradient>
<linearGradient id="paint26_linear" x1="43.7683" y1="39.7811" x2="38.6473" y2="35.0068" gradientUnits="userSpaceOnUse">
<stop stop-color="#087CFA" stop-opacity="0"/>
<stop offset="0.8547" stop-color="#0841FA"/>
</linearGradient>
<linearGradient id="paint27_linear" x1="48.8168" y1="54.4958" x2="28.1068" y2="23.4308" gradientUnits="userSpaceOnUse">
<stop stop-color="#089CFA"/>
<stop offset="0.7396" stop-color="#083CFA"/>
</linearGradient>
<linearGradient id="paint28_linear" x1="47.3498" y1="55.8601" x2="39.1764" y2="43.6" gradientUnits="userSpaceOnUse">
<stop stop-color="#087CFA" stop-opacity="0"/>
<stop offset="0.9787" stop-color="#0860FA"/>
</linearGradient>
<linearGradient id="paint29_linear" x1="46.7087" y1="22.4253" x2="49.99" y2="7.4253" gradientUnits="userSpaceOnUse">
<stop offset="0.3551" stop-color="#BBF8AF" stop-opacity="0"/>
<stop offset="1" stop-color="#21FF79"/>
</linearGradient>
<linearGradient id="paint30_linear" x1="43.4933" y1="0.9914" x2="62.8058" y2="15.5226" gradientUnits="userSpaceOnUse">
<stop offset="0.0202374" stop-color="#BBF8AF" stop-opacity="0"/>
<stop offset="1" stop-color="#21FF79"/>
</linearGradient>
<linearGradient id="paint31_linear" x1="13.37" y1="13.37" x2="58.503" y2="58.503" gradientUnits="userSpaceOnUse">
<stop offset="0.0284813" stop-color="#002846"/>
<stop offset="0.1369" stop-color="#002038"/>
<stop offset="0.4947" stop-color="#000910"/>
<stop offset="0.6795"/>
</linearGradient>
<linearGradient id="paint32_linear" x1="8.7955" y1="35" x2="44.1667" y2="35" gradientUnits="userSpaceOnUse">
<stop offset="0.0782105" stop-color="#21D789"/>
<stop offset="0.8726" stop-color="#FCF84A"/>
</linearGradient>
<linearGradient id="paint33_linear" x1="46.9078" y1="45.9302" x2="45.6087" y2="9.897" gradientUnits="userSpaceOnUse">
<stop stop-color="#218640"/>
<stop offset="0.8027" stop-color="#B5FA59"/>
</linearGradient>
<linearGradient id="paint34_linear" x1="51.282" y1="15.5824" x2="53.2202" y2="64.0376" gradientUnits="userSpaceOnUse">
<stop offset="0.2348" stop-color="#21D789"/>
<stop offset="1" stop-color="#083450"/>
</linearGradient>
<linearGradient id="paint35_linear" x1="54.6996" y1="52.8305" x2="32.6759" y2="19.795" gradientUnits="userSpaceOnUse">
<stop stop-color="#021A43"/>
<stop offset="0.6591" stop-color="#0860FA"/>
</linearGradient>
<linearGradient id="paint36_linear" x1="26.9853" y1="-0.2522" x2="31.2656" y2="61.4474" gradientUnits="userSpaceOnUse">
<stop offset="0.2348" stop-color="#21D789"/>
<stop offset="0.7396" stop-color="#083450"/>
</linearGradient>
<linearGradient id="paint37_linear" x1="23.1703" y1="47.5445" x2="19.3746" y2="11.8492" gradientUnits="userSpaceOnUse">
<stop offset="0.2268" stop-color="#086C93"/>
<stop offset="0.8196" stop-color="#01EFDB"/>
</linearGradient>
<linearGradient id="paint38_linear" x1="26.9914" y1="13.5519" x2="48.6695" y2="20.3263" gradientUnits="userSpaceOnUse">
<stop offset="0.2508" stop-color="#21D789"/>
<stop offset="0.8847" stop-color="#0C515A"/>
</linearGradient>
</defs>
</svg>
