<svg width="80" height="80" viewBox="0 0 80 80" fill="none" xmlns="http://www.w3.org/2000/svg">
<path d="M51.5 0L55.6 50.4L20.6 69.3L0 16.2L51.5 0Z" fill="url(#paint0_linear)"/>
<path d="M29.6 45.9002L20.6 69.3002L0 16.2002L29.6 45.9002Z" fill="url(#paint1_linear)"/>
<path d="M51.4999 0L52.9999 27.8H30.1999L19.8999 9.9L51.4999 0Z" fill="url(#paint2_linear)"/>
<path d="M42.8999 26.5L79.9999 19V54.1L54.4999 63.6L44.0999 54.2L42.8999 26.5Z" fill="url(#paint3_linear)"/>
<path d="M80 19L45.7 56.1L51.5 0L80 19Z" fill="#21D789"/>
<path d="M80.0001 19.0001L61.0001 14.6001L54.1001 64.2001L80.0001 54.1001V19.0001Z" fill="url(#paint4_linear)"/>
<path d="M27.3999 16.2002L52.9999 20.2002L79.9999 54.1002L54.0999 64.2002L44.0999 54.2002L27.3999 16.2002Z" fill="url(#paint5_linear)"/>
<path d="M16.5 0L53 20.2L40.4001 80H19.2001L0.800049 61L16.5 0Z" fill="url(#paint6_linear)"/>
<path d="M29.1999 7L13.3999 12L7.3999 35.2L20.5999 69.3L46.0999 53L52.9999 20.5L52.8999 20.1L29.1999 7Z" fill="url(#paint7_linear)"/>
<path d="M47.7 20.7002L53 20.2002L47.7 20.7002Z" fill="url(#paint8_linear)"/>
<path d="M25.1 50.4L35 22.1L16.5 0L0.800049 61L25.1 50.4Z" fill="url(#paint9_linear)"/>
<path d="M19.2 80.0001L7.19995 67.6001L19.2 80.0001H40.4H19.2Z" fill="url(#paint10_linear)"/>
<path d="M7.3999 35.2L16.1999 57.8L20.5999 69.3L29.5999 45.9L9.7999 26L7.3999 35.2Z" fill="url(#paint11_linear)"/>
<path d="M25.1 50.3999L40.4001 79.9999H19.2001L0.800049 60.9999L25.1 50.3999Z" fill="url(#paint12_linear)"/>
<path d="M25.1001 50.4002L40.4001 80.0002L53.0001 20.2002L35.0001 22.1002L25.1001 50.4002Z" fill="url(#paint13_linear)"/>
<path d="M45.2999 56L40.4 80H19.2L20.6 69.2L45.2999 56Z" fill="url(#paint14_linear)"/>
<path d="M20.6 69.2999L31.8 63.2999L25.1 50.3999L15 54.7999L20.6 69.2999Z" fill="url(#paint15_linear)"/>
<path d="M31.7 63.3L40.4 80L45.2999 56L31.7 63.3Z" fill="url(#paint16_linear)"/>
<path d="M16.5 0L53 20.2L44.4 21.1L35 22.1L16.5 0Z" fill="url(#paint17_linear)"/>
<path d="M52.5 19.9L29.2001 7L23.8 8.7L35 22.1L44.4001 21.1L52.6 20.2L52.5 19.9Z" fill="url(#paint18_linear)"/>
<path d="M49.3 20.5998L53 20.1998L49.6 18.2998L49.3 20.5998Z" fill="url(#paint19_linear)"/>
<path d="M80 54.1002L53 20.2002L44.4 21.1002L35 22.1002L80 54.1002Z" fill="url(#paint20_linear)"/>
<path d="M48.2 31.5002L60.4 40.2002L65 35.2002L53 20.2002L49.2999 20.6002L48.2 31.5002Z" fill="url(#paint21_linear)"/>
<path d="M57.7 38.1999L80 54.0999L59.2 27.8999L57.7 38.1999Z" fill="url(#paint22_linear)"/>
<path d="M80 54.1001L54.1 64.2001L45.7 56.1001L35 22.1001L80 54.1001Z" fill="url(#paint23_linear)"/>
<path d="M48.2 31.5L45.7 56.1L60.4 40.2L48.2 31.5Z" fill="url(#paint24_linear)"/>
<path d="M54.1001 64.2002L80.0001 54.1002L57.7001 38.2002L54.1001 64.2002Z" fill="url(#paint25_linear)"/>
<path d="M45.7 55.8002L45.7999 55.9002L56.9 44.0002L57.7 38.2002L47.2999 40.6002L45.7 55.8002Z" fill="url(#paint26_linear)"/>
<path d="M54.1 64.2001L45.7 56.1001L35 22.1001L54.1 64.2001Z" fill="url(#paint27_linear)"/>
<path d="M45.7 56.1L54.0999 64.2L46.5 47.5L45.7 56.1Z" fill="url(#paint28_linear)"/>
<path d="M51.5 0L45.7 56.1L56.9 44L61 14.6L51.5 0Z" fill="url(#paint29_linear)"/>
<path d="M80 19L61 14.6L51.5 0L80 19Z" fill="url(#paint30_linear)"/>
<path d="M65 15H15V65H65V15Z" fill="url(#paint31_linear)"/>
<g opacity="0.3">
<path opacity="0.3" d="M15 55.3L18.8 65H27.3L55.2 50L52.4 15H15V55.3Z" fill="url(#paint32_linear)"/>
<path opacity="0.3" d="M49.5 15L45.3 55.6L56.5 43.5L60.5 15H49.5Z" fill="url(#paint33_linear)"/>
<path opacity="0.3" d="M65 15.1L64.5999 15H60.5L53.7 63.7L65 59.3V15.1Z" fill="url(#paint34_linear)"/>
<path opacity="0.3" d="M65.0001 43.2001L34.6001 21.6001L45.3001 55.6001L53.7001 63.7001L65.0001 59.3001V43.2001Z" fill="url(#paint35_linear)"/>
<path opacity="0.3" d="M15 65H43.1L52.7 19.7L44.2 15H15V65Z" fill="url(#paint36_linear)"/>
<path opacity="0.3" d="M15 54.2L24.8 50L34.6 21.6L29.1 15H15V54.2Z" fill="url(#paint37_linear)"/>
<path opacity="0.3" d="M34.6001 21.6L44.1001 20.6L52.7001 19.7L52.2001 19.4L45.4001 15.7L44.2001 15H29.1001L34.6001 21.6Z" fill="url(#paint38_linear)"/>
</g>
<path d="M39.9 55.6001H21.2V58.7001H39.9V55.6001Z" fill="white"/>
<path d="M39.9758 37.3786L42.4726 34.4824C44.1704 35.8806 45.9681 36.7794 48.0654 36.7794C49.7632 36.7794 50.7619 36.0803 50.7619 34.9817V34.8818C50.7619 33.7833 50.1627 33.2839 46.9668 32.4849C43.1717 31.4862 40.6749 30.4875 40.6749 26.6924V26.5925C40.6749 23.1969 43.4713 20.8999 47.2664 20.8999C50.0628 20.8999 52.3598 21.7987 54.2574 23.2968L52.0602 26.3928C50.3624 25.1944 48.7645 24.4953 47.1665 24.4953C45.5686 24.4953 44.7696 25.1944 44.7696 26.0932V26.1931C44.7696 27.3915 45.5686 27.791 48.8644 28.6898C52.6594 29.6886 54.8566 31.0867 54.8566 34.3825V34.4824C54.8566 38.1776 51.9603 40.2749 47.9655 40.2749C45.1691 40.4746 42.2729 39.4759 39.9758 37.3786Z" fill="white"/>
<path d="M21.3 21.3999H28.5906C34.483 21.3999 38.5777 25.3947 38.5777 30.6879V30.7878C38.5777 36.0809 34.483 40.1756 28.5906 40.1756H21.3V21.3999ZM25.3948 25.0951V36.3806H28.5906C31.9862 36.3806 34.1834 34.0835 34.1834 30.7878V30.6879C34.1834 27.3922 31.8864 25.0951 28.5906 25.0951H25.3948V25.0951Z" fill="white"/>
<defs>
<linearGradient id="paint0_linear" x1="62.1587" y1="34.6531" x2="6.6035" y2="34.6531" gradientUnits="userSpaceOnUse">
<stop offset="0.0782105" stop-color="#21D789"/>
<stop offset="0.8726" stop-color="#FCF84A"/>
</linearGradient>
<linearGradient id="paint1_linear" x1="20.263" y1="35.2191" x2="12.3344" y2="41.2191" gradientUnits="userSpaceOnUse">
<stop offset="0.0782105" stop-color="white"/>
<stop offset="0.8726" stop-color="#FCF84A"/>
</linearGradient>
<linearGradient id="paint2_linear" x1="41.4847" y1="11.5262" x2="49.5303" y2="-0.1903" gradientUnits="userSpaceOnUse">
<stop offset="0.095296" stop-color="#BBF8AF" stop-opacity="0"/>
<stop offset="1" stop-color="#21FF79"/>
</linearGradient>
<linearGradient id="paint3_linear" x1="61.4457" y1="23.0949" x2="61.4457" y2="89.276" gradientUnits="userSpaceOnUse">
<stop stop-color="#21D789"/>
<stop offset="1" stop-color="#087CFA"/>
</linearGradient>
<linearGradient id="paint4_linear" x1="86.835" y1="49.9703" x2="39.4244" y2="29.8811" gradientUnits="userSpaceOnUse">
<stop offset="0.0202374" stop-color="#21D789" stop-opacity="0"/>
<stop offset="1" stop-color="#00FF6A"/>
</linearGradient>
<linearGradient id="paint5_linear" x1="105.301" y1="84.02" x2="26.368" y2="20.1641" gradientUnits="userSpaceOnUse">
<stop offset="0.1049" stop-color="#21D789"/>
<stop offset="0.9668" stop-color="#087CFA"/>
</linearGradient>
<linearGradient id="paint6_linear" x1="69.1666" y1="-6.1578" x2="14.0278" y2="56.3331" gradientUnits="userSpaceOnUse">
<stop offset="0.2348" stop-color="#21D789"/>
<stop offset="0.7396" stop-color="#087CFA"/>
</linearGradient>
<linearGradient id="paint7_linear" x1="-0.577197" y1="16.5326" x2="30.8156" y2="40.2111" gradientUnits="userSpaceOnUse">
<stop offset="0.0782105" stop-color="#21D789"/>
<stop offset="0.8283" stop-color="#087CFA" stop-opacity="0"/>
</linearGradient>
<linearGradient id="paint8_linear" x1="50.1895" y1="20.6556" x2="51.338" y2="19.2104" gradientUnits="userSpaceOnUse">
<stop offset="0.0782105" stop-color="#21D789" stop-opacity="0"/>
<stop offset="0.8726" stop-color="#01D0FF"/>
</linearGradient>
<linearGradient id="paint9_linear" x1="10.9371" y1="37.6136" x2="31.8262" y2="11.3268" gradientUnits="userSpaceOnUse">
<stop offset="0.3826" stop-color="#087CFA" stop-opacity="0"/>
<stop offset="1" stop-color="#01EFDB"/>
</linearGradient>
<linearGradient id="paint10_linear" x1="22.5076" y1="75.4195" x2="26.5424" y2="70.3421" gradientUnits="userSpaceOnUse">
<stop offset="0.0782105" stop-color="#21D789" stop-opacity="0"/>
<stop offset="0.8726" stop-color="#01D0FF"/>
</linearGradient>
<linearGradient id="paint11_linear" x1="18.9728" y1="24.3005" x2="18.5442" y2="39.4076" gradientUnits="userSpaceOnUse">
<stop offset="0.0782105" stop-color="#21D789"/>
<stop offset="0.8283" stop-color="#087CFA" stop-opacity="0"/>
</linearGradient>
<linearGradient id="paint12_linear" x1="48.1491" y1="35.1461" x2="12.1491" y2="81.3246" gradientUnits="userSpaceOnUse">
<stop offset="0.2348" stop-color="#083FFA"/>
<stop offset="0.7396" stop-color="#087CFA"/>
</linearGradient>
<linearGradient id="paint13_linear" x1="21.0584" y1="4.4023" x2="56.0941" y2="66.7593" gradientUnits="userSpaceOnUse">
<stop offset="0.2458" stop-color="#083FFA"/>
<stop offset="0.9131" stop-color="#087CFA"/>
</linearGradient>
<linearGradient id="paint14_linear" x1="21.1638" y1="56.9508" x2="39.1523" y2="74.9392" gradientUnits="userSpaceOnUse">
<stop offset="0.2348" stop-color="#089FFF"/>
<stop offset="0.7396" stop-color="#087CFA" stop-opacity="0"/>
</linearGradient>
<linearGradient id="paint15_linear" x1="32.7643" y1="70.656" x2="20.8805" y2="57.7015" gradientUnits="userSpaceOnUse">
<stop offset="0.1526" stop-color="#0832FF"/>
<stop offset="0.9138" stop-color="#087CFA" stop-opacity="0"/>
</linearGradient>
<linearGradient id="paint16_linear" x1="49.7089" y1="76.1345" x2="35.2474" y2="59.0195" gradientUnits="userSpaceOnUse">
<stop offset="0.1526" stop-color="#0832FF"/>
<stop offset="0.9138" stop-color="#087CFA" stop-opacity="0"/>
</linearGradient>
<linearGradient id="paint17_linear" x1="34.41" y1="-17.9384" x2="34.9172" y2="24.6661" gradientUnits="userSpaceOnUse">
<stop offset="0.2348" stop-color="#21D789"/>
<stop offset="0.8246" stop-color="#087CFA"/>
</linearGradient>
<linearGradient id="paint18_linear" x1="37.9672" y1="12.505" x2="36.8713" y2="2.3682" gradientUnits="userSpaceOnUse">
<stop offset="0.095296" stop-color="#BBF8AF" stop-opacity="0"/>
<stop offset="1" stop-color="#21FF79"/>
</linearGradient>
<linearGradient id="paint19_linear" x1="52.2893" y1="21.6454" x2="48.7881" y2="17.5796" gradientUnits="userSpaceOnUse">
<stop stop-color="#21D789" stop-opacity="0"/>
<stop offset="0.9185" stop-color="#21D789"/>
</linearGradient>
<linearGradient id="paint20_linear" x1="71.4335" y1="58.9855" x2="44.6437" y2="18.8009" gradientUnits="userSpaceOnUse">
<stop offset="0.027928" stop-color="#21D789"/>
<stop offset="0.9294" stop-color="#0860FA"/>
</linearGradient>
<linearGradient id="paint21_linear" x1="57.1913" y1="37.6897" x2="54.1377" y2="15.1898" gradientUnits="userSpaceOnUse">
<stop offset="0.0757413" stop-color="#087CFA" stop-opacity="0"/>
<stop offset="1" stop-color="#21D789" stop-opacity="0.6"/>
</linearGradient>
<linearGradient id="paint22_linear" x1="65.096" y1="40.9771" x2="50.3104" y2="20.5664" gradientUnits="userSpaceOnUse">
<stop offset="0.0757413" stop-color="#087CFA" stop-opacity="0"/>
<stop offset="1" stop-color="#4F46C6" stop-opacity="0.6"/>
</linearGradient>
<linearGradient id="paint23_linear" x1="67.2683" y1="61.7622" x2="40.4786" y2="21.5776" gradientUnits="userSpaceOnUse">
<stop stop-color="#18AFAF"/>
<stop offset="0.6591" stop-color="#0860FA"/>
<stop offset="0.9983" stop-color="#084CFA"/>
</linearGradient>
<linearGradient id="paint24_linear" x1="54.5027" y1="50.4602" x2="43.8956" y2="33.5852" gradientUnits="userSpaceOnUse">
<stop offset="0.0757413" stop-color="#087CFA" stop-opacity="0"/>
<stop offset="1" stop-color="#21D789" stop-opacity="0.6"/>
</linearGradient>
<linearGradient id="paint25_linear" x1="66.8802" y1="58.9758" x2="49.9508" y2="43.1926" gradientUnits="userSpaceOnUse">
<stop offset="0.0757413" stop-color="#087CFA" stop-opacity="0"/>
<stop offset="1" stop-color="#21D789" stop-opacity="0.6"/>
</linearGradient>
<linearGradient id="paint26_linear" x1="50.0209" y1="45.4643" x2="44.1683" y2="40.008" gradientUnits="userSpaceOnUse">
<stop stop-color="#087CFA" stop-opacity="0"/>
<stop offset="0.8547" stop-color="#0841FA"/>
</linearGradient>
<linearGradient id="paint27_linear" x1="55.7905" y1="62.2812" x2="32.1219" y2="26.7784" gradientUnits="userSpaceOnUse">
<stop stop-color="#089CFA"/>
<stop offset="0.7396" stop-color="#083CFA"/>
</linearGradient>
<linearGradient id="paint28_linear" x1="54.1139" y1="63.84" x2="44.773" y2="49.8284" gradientUnits="userSpaceOnUse">
<stop stop-color="#087CFA" stop-opacity="0"/>
<stop offset="0.9787" stop-color="#0860FA"/>
</linearGradient>
<linearGradient id="paint29_linear" x1="53.3814" y1="25.6289" x2="57.1314" y2="8.486" gradientUnits="userSpaceOnUse">
<stop offset="0.3551" stop-color="#BBF8AF" stop-opacity="0"/>
<stop offset="1" stop-color="#21FF79"/>
</linearGradient>
<linearGradient id="paint30_linear" x1="49.7066" y1="1.133" x2="71.778" y2="17.7401" gradientUnits="userSpaceOnUse">
<stop offset="0.0202374" stop-color="#BBF8AF" stop-opacity="0"/>
<stop offset="1" stop-color="#21FF79"/>
</linearGradient>
<linearGradient id="paint31_linear" x1="15.4205" y1="15.4205" x2="66.708" y2="66.708" gradientUnits="userSpaceOnUse">
<stop offset="0.0284813" stop-color="#002846"/>
<stop offset="0.1369" stop-color="#002038"/>
<stop offset="0.4947" stop-color="#000910"/>
<stop offset="0.6795"/>
</linearGradient>
<linearGradient id="paint32_linear" x1="10.2221" y1="40" x2="50.4168" y2="40" gradientUnits="userSpaceOnUse">
<stop offset="0.0782105" stop-color="#21D789"/>
<stop offset="0.8726" stop-color="#FCF84A"/>
</linearGradient>
<linearGradient id="paint33_linear" x1="53.5316" y1="52.4208" x2="52.0554" y2="11.4739" gradientUnits="userSpaceOnUse">
<stop stop-color="#218640"/>
<stop offset="0.8027" stop-color="#B5FA59"/>
</linearGradient>
<linearGradient id="paint34_linear" x1="58.502" y1="17.9346" x2="60.7045" y2="72.9974" gradientUnits="userSpaceOnUse">
<stop offset="0.2348" stop-color="#21D789"/>
<stop offset="1" stop-color="#083450"/>
</linearGradient>
<linearGradient id="paint35_linear" x1="62.386" y1="60.2623" x2="37.3591" y2="22.722" gradientUnits="userSpaceOnUse">
<stop stop-color="#021A43"/>
<stop offset="0.6591" stop-color="#0860FA"/>
</linearGradient>
<linearGradient id="paint36_linear" x1="30.8924" y1="-0.0593998" x2="35.7563" y2="70.0539" gradientUnits="userSpaceOnUse">
<stop offset="0.2348" stop-color="#21D789"/>
<stop offset="0.7396" stop-color="#083450"/>
</linearGradient>
<linearGradient id="paint37_linear" x1="26.5571" y1="54.2552" x2="22.2439" y2="13.6922" gradientUnits="userSpaceOnUse">
<stop offset="0.2268" stop-color="#086C93"/>
<stop offset="0.8196" stop-color="#01EFDB"/>
</linearGradient>
<linearGradient id="paint38_linear" x1="30.8995" y1="15.6272" x2="55.5338" y2="23.3254" gradientUnits="userSpaceOnUse">
<stop offset="0.2508" stop-color="#21D789"/>
<stop offset="0.8847" stop-color="#0C515A"/>
</linearGradient>
</defs>
</svg>
