<svg width="128" height="128" viewBox="0 0 128 128" fill="none" xmlns="http://www.w3.org/2000/svg">
<path d="M119.8 19.8999L128 70.8999L112.9 81.0999L119.8 19.8999Z" fill="url(#paint0_linear)"/>
<path d="M128 70.9L112.9 81.1L115.6 57L128 70.9Z" fill="url(#paint1_linear)"/>
<path d="M119.8 19.9L74 0L61.2 10.6L119.8 19.9Z" fill="url(#paint2_linear)"/>
<path d="M83.8 14.3L74 0L61.2 10.6L83.8 14.3Z" fill="url(#paint3_linear)"/>
<path d="M86.5001 128L15.4001 71.2998L1.1001 114.3L86.5001 128Z" fill="url(#paint4_linear)"/>
<path d="M86.5001 128L29.4001 103L1.1001 114.3L86.5001 128Z" fill="url(#paint5_linear)"/>
<path d="M96.4 92.2001L0 59.1001L86.5 128L96.4 92.2001Z" fill="url(#paint6_linear)"/>
<path d="M96.4001 92.2L90.0001 90L80.6001 102.2L86.5001 128L96.4001 92.2Z" fill="url(#paint7_linear)"/>
<path d="M80.6 102.2L0 59.1001L73.9 117.9L86.5 128L80.6 102.2Z" fill="url(#paint8_linear)"/>
<path d="M0 0.899902V59.0999L111.1 97.2999L119.8 19.8999L0 0.899902Z" fill="url(#paint9_linear)"/>
<path d="M0 0.899902V59.0999L111.1 97.2999L98 38.7999L0 0.899902Z" fill="url(#paint10_linear)"/>
<path d="M0 0.899902V59.0999L26.5 43.0999L0 0.899902Z" fill="url(#paint11_linear)"/>
<path d="M29.4001 103L98.3001 39.2998L25.6001 43.5998L1.1001 114.3L29.4001 103Z" fill="url(#paint12_linear)"/>
<path d="M29.4001 103L31.8001 84.1998L15.4001 71.2998L1.1001 114.3L29.4001 103Z" fill="url(#paint13_linear)"/>
<path d="M29.4001 103L31.8001 84.1998L15.4001 71.2998L1.1001 114.3L29.4001 103Z" fill="url(#paint14_linear)"/>
<path d="M119.8 19.8999L111.1 97.2999L98 38.7999L119.8 19.8999Z" fill="url(#paint15_linear)"/>
<path d="M111.1 97.3001L112.9 81.1001L108.2 84.3001L111.1 97.3001Z" fill="url(#paint16_linear)"/>
<path d="M111.1 97.2998L96.3999 92.1998L108.2 84.2998L111.1 97.2998Z" fill="url(#paint17_linear)"/>
<path d="M119.8 19.9001L88.2 47.7001L25 43.4001L61.2 10.6001L119.8 19.9001Z" fill="url(#paint18_linear)"/>
<path d="M98 38.7999L119.8 19.8999L0 0.899902L98 38.7999Z" fill="url(#paint19_linear)"/>
<path d="M98 38.7999L119.8 19.8999L0 0.899902L98 38.7999Z" fill="url(#paint20_linear)"/>
<path d="M50.3999 20.4001L97.9999 38.8001L99.5999 37.5001L83.6999 14.2001L61.1999 10.6001L50.3999 20.4001Z" fill="url(#paint21_linear)"/>
<path d="M104 24H24V104H104V24Z" fill="url(#paint22_linear)"/>
<g opacity="0.5">
<path opacity="0.3" d="M24 78.3999V104H56.2L24 78.3999Z" fill="url(#paint23_linear)"/>
<path opacity="0.3" d="M24 78.3999V104H27.4L29.4 103.2L41.3 92.1999L24 78.3999Z" fill="url(#paint24_linear)"/>
<path opacity="0.3" d="M24 78.4L56.2 104H93.2L96.4 92.4L24 67.5V78.4Z" fill="url(#paint25_linear)"/>
<path opacity="0.3" d="M80.5999 102.4L81 104H93.2L96.4 92.3999L77.2 85.8999L80.5999 102.4Z" fill="url(#paint26_linear)"/>
<path opacity="0.3" d="M104 33.7998L98 38.9998L104 65.6998V33.7998Z" fill="url(#paint27_linear)"/>
<path opacity="0.3" d="M104 24H59.3L98 39L104 33.8V24Z" fill="url(#paint28_linear)"/>
<path opacity="0.3" d="M104 95V65.7L98 39L59.3 24H24V67.5L104 95Z" fill="url(#paint29_linear)"/>
</g>
<path d="M64 88.8999H34V93.8999H64V88.8999Z" fill="white"/>
<path d="M33.0999 34.0513H44.7587C54.1582 34.0513 60.6654 40.4682 60.6654 48.9638V49.0542C60.6654 57.4594 54.1582 64.0571 44.7587 64.0571H33.0999V34.0513ZM39.6975 40.0163V58.0921H44.7587C50.1815 58.0921 53.7966 54.4769 53.7966 49.1446V49.0542C53.7966 43.7218 50.1815 40.0163 44.7587 40.0163H39.6975Z" fill="white"/>
<path d="M63.3406 49.1448C63.3406 40.5588 69.9382 33.5996 79.0665 33.5996C84.4893 33.5996 87.7429 35.0457 90.8158 37.6667L86.6584 42.6375C84.3085 40.7395 82.3202 39.5646 78.7954 39.5646C74.0053 39.5646 70.2094 43.8124 70.2094 48.8737V49.0544C70.2094 54.5675 74.0053 58.5442 79.2473 58.5442C81.6875 58.5442 83.7662 57.9116 85.4834 56.7366V52.4888H78.8858V46.7949H91.9003V59.8095C88.8275 62.4305 84.5796 64.5996 79.0665 64.5996C69.7575 64.5092 63.3406 58.0019 63.3406 49.1448Z" fill="white"/>
<defs>
<linearGradient id="paint0_linear" x1="117.262" y1="48.1467" x2="121.005" y2="80.7338" gradientUnits="userSpaceOnUse">
<stop offset="0.1599" stop-color="#21D789"/>
<stop offset="0.5402" stop-color="#419FBC"/>
<stop offset="1" stop-color="#6B57FF"/>
</linearGradient>
<linearGradient id="paint1_linear" x1="100.843" y1="64.3207" x2="149.485" y2="81.4484" gradientUnits="userSpaceOnUse">
<stop offset="0.0212475" stop-color="#B74AF7" stop-opacity="0"/>
<stop offset="0.744" stop-color="#8053FD" stop-opacity="0.7385"/>
<stop offset="1" stop-color="#6B57FF"/>
</linearGradient>
<linearGradient id="paint2_linear" x1="83.1387" y1="34.166" x2="92.6065" y2="9.9459" gradientUnits="userSpaceOnUse">
<stop  offset="0" stop-color="#6B57FF"/>
<stop offset="0.9516" stop-color="#21D789"/>
</linearGradient>
<linearGradient id="paint3_linear" x1="83.3032" y1="4.0953" x2="67.9512" y2="14.8529" gradientUnits="userSpaceOnUse">
<stop  offset="0" stop-color="#00FF6A"/>
<stop offset="0.9516" stop-color="#21D789" stop-opacity="0"/>
</linearGradient>
<linearGradient id="paint4_linear" x1="86.1991" y1="146.203" x2="-3.70549" y2="84.6316" gradientUnits="userSpaceOnUse">
<stop offset="0.09839" stop-color="#6B57FF"/>
<stop offset="0.1176" stop-color="#685CFB"/>
<stop offset="0.3447" stop-color="#4A91CA"/>
<stop offset="0.5417" stop-color="#34B7A7"/>
<stop offset="0.6991" stop-color="#26CE91"/>
<stop offset="0.7971" stop-color="#21D789"/>
</linearGradient>
<linearGradient id="paint5_linear" x1="40.1136" y1="78.4103" x2="45.3856" y2="139.488" gradientUnits="userSpaceOnUse">
<stop offset="0.09839" stop-color="#6B57FF"/>
<stop offset="0.1176" stop-color="#685CFB"/>
<stop offset="0.3447" stop-color="#4A91CA"/>
<stop offset="0.5417" stop-color="#34B7A7"/>
<stop offset="0.6991" stop-color="#26CE91"/>
<stop offset="0.7971" stop-color="#21D789"/>
</linearGradient>
<linearGradient id="paint6_linear" x1="7.9733" y1="64.0145" x2="120.137" y2="125.944" gradientUnits="userSpaceOnUse">
<stop offset="0.0752688" stop-color="#21D789"/>
<stop offset="0.8874" stop-color="#6B57FF"/>
</linearGradient>
<linearGradient id="paint7_linear" x1="80.596" y1="109.016" x2="96.3979" y2="109.016" gradientUnits="userSpaceOnUse">
<stop offset="0.0266187" stop-color="#4F46C6"/>
<stop offset="1" stop-color="#6B57FF"/>
</linearGradient>
<linearGradient id="paint8_linear" x1="4.0085" y1="71.1954" x2="116.172" y2="133.124" gradientUnits="userSpaceOnUse">
<stop offset="0.0266187" stop-color="#21D789"/>
<stop offset="0.6999" stop-color="#685CFA"/>
<stop offset="1" stop-color="#6B57FF"/>
</linearGradient>
<linearGradient id="paint9_linear" x1="-6.2166" y1="32.1038" x2="103.764" y2="56.0309" gradientUnits="userSpaceOnUse">
<stop offset="0.2422" stop-color="#21D789"/>
<stop offset="0.4465" stop-color="#59A3B2"/>
<stop offset="0.7668" stop-color="#B74AF7"/>
<stop offset="1" stop-color="#FF45ED"/>
</linearGradient>
<linearGradient id="paint10_linear" x1="8.0256" y1="49.0796" x2="112.518" y2="49.0796" gradientUnits="userSpaceOnUse">
<stop offset="0.1308" stop-color="#21D789"/>
<stop offset="0.3487" stop-color="#59A3B2"/>
<stop offset="0.6901" stop-color="#B74AF7"/>
<stop offset="1" stop-color="#FF45ED"/>
</linearGradient>
<linearGradient id="paint11_linear" x1="1.9147" y1="29.9943" x2="26.8444" y2="29.9943" gradientUnits="userSpaceOnUse">
<stop offset="0.3086" stop-color="#56D789"/>
<stop offset="0.9587" stop-color="#8DFC77"/>
<stop offset="1" stop-color="#91FF76"/>
</linearGradient>
<linearGradient id="paint12_linear" x1="43.9156" y1="152.488" x2="52.5016" y2="40.2574" gradientUnits="userSpaceOnUse">
<stop  offset="0" stop-color="#21D789"/>
<stop offset="0.9961" stop-color="#6B57FF" stop-opacity="0"/>
</linearGradient>
<linearGradient id="paint13_linear" x1="9.9499" y1="70.8611" x2="17.6582" y2="104.447" gradientUnits="userSpaceOnUse">
<stop offset="0.2061" stop-color="#6B57FF"/>
<stop offset="0.3273" stop-color="#6266F1"/>
<stop offset="0.5619" stop-color="#4B8FCC"/>
<stop offset="0.8839" stop-color="#26CF90"/>
<stop offset="0.9206" stop-color="#21D789"/>
</linearGradient>
<linearGradient id="paint14_linear" x1="0.262698" y1="86.5922" x2="32.4104" y2="111.657" gradientUnits="userSpaceOnUse">
<stop offset="0.3086" stop-color="#56D789" stop-opacity="0"/>
<stop offset="0.9587" stop-color="#8DFC77" stop-opacity="0.9403"/>
<stop offset="1" stop-color="#91FF76"/>
</linearGradient>
<linearGradient id="paint15_linear" x1="98.0221" y1="58.5759" x2="119.838" y2="58.5759" gradientUnits="userSpaceOnUse">
<stop offset="0.2609" stop-color="#B74AF7"/>
<stop offset="1" stop-color="#FF45ED"/>
</linearGradient>
<linearGradient id="paint16_linear" x1="115.533" y1="94.3866" x2="108.722" y2="84.3064" gradientUnits="userSpaceOnUse">
<stop  offset="0" stop-color="#FF72F1"/>
<stop offset="0.963" stop-color="#B74AF7"/>
</linearGradient>
<linearGradient id="paint17_linear" x1="116.353" y1="103.768" x2="103.276" y2="89.3285" gradientUnits="userSpaceOnUse">
<stop offset="0.668" stop-color="#FF72F1"/>
<stop offset="1" stop-color="#B74AF7"/>
</linearGradient>
<linearGradient id="paint18_linear" x1="46.2296" y1="-12.1133" x2="80.0061" y2="44.2919" gradientUnits="userSpaceOnUse">
<stop offset="0.1625" stop-color="#B74AF7" stop-opacity="0.5"/>
<stop offset="0.9989" stop-color="#00FF6A" stop-opacity="0"/>
</linearGradient>
<linearGradient id="paint19_linear" x1="97.3788" y1="55.833" x2="71.7696" y2="24.775" gradientUnits="userSpaceOnUse">
<stop offset="0.2973" stop-color="#FF4FFF" stop-opacity="0.96"/>
<stop offset="0.9989" stop-color="#FF45ED" stop-opacity="0"/>
</linearGradient>
<linearGradient id="paint20_linear" x1="57.2076" y1="25.5855" x2="59.9319" y2="10.3289" gradientUnits="userSpaceOnUse">
<stop  offset="0" stop-color="#FF4FFF" stop-opacity="0.96"/>
<stop offset="0.9928" stop-color="#FF45ED" stop-opacity="0"/>
</linearGradient>
<linearGradient id="paint21_linear" x1="90.2782" y1="11.2785" x2="77.5249" y2="26.0156" gradientUnits="userSpaceOnUse">
<stop offset="0.1209" stop-color="#A326F7"/>
<stop offset="0.9516" stop-color="#B74AF7" stop-opacity="0"/>
</linearGradient>
<linearGradient id="paint22_linear" x1="22.9253" y1="22.9253" x2="98.6698" y2="98.6698" gradientUnits="userSpaceOnUse">
<stop offset="0.0284813" stop-color="#007E67"/>
<stop offset="0.1121" stop-color="#005344"/>
<stop offset="0.1976" stop-color="#002F27"/>
<stop offset="0.2776" stop-color="#001511"/>
<stop offset="0.3494" stop-color="#000605"/>
<stop offset="0.4058"/>
<stop offset="0.9138"/>
</linearGradient>
<linearGradient id="paint23_linear" x1="55.6194" y1="112.839" x2="14.9503" y2="84.9868" gradientUnits="userSpaceOnUse">
<stop offset="0.09839" stop-color="#6B57FF"/>
<stop offset="0.1176" stop-color="#685CFB"/>
<stop offset="0.3447" stop-color="#4A91CA"/>
<stop offset="0.5417" stop-color="#34B7A7"/>
<stop offset="0.6991" stop-color="#26CE91"/>
<stop offset="0.7971" stop-color="#21D789"/>
</linearGradient>
<linearGradient id="paint24_linear" x1="30.3555" y1="115.342" x2="33.0248" y2="80.4504" gradientUnits="userSpaceOnUse">
<stop offset="0.0752688" stop-color="#21D789"/>
<stop offset="0.8874" stop-color="#6B57FF"/>
</linearGradient>
<linearGradient id="paint25_linear" x1="29.108" y1="72.1383" x2="109.562" y2="116.559" gradientUnits="userSpaceOnUse">
<stop  offset="0" stop-color="#34B7A7"/>
<stop offset="0.8874" stop-color="#000069"/>
</linearGradient>
<linearGradient id="paint26_linear" x1="77.1733" y1="94.9271" x2="96.3976" y2="94.9271" gradientUnits="userSpaceOnUse">
<stop offset="0.0266187" stop-color="#4F46C6"/>
<stop offset="1" stop-color="#1F2C61"/>
</linearGradient>
<linearGradient id="paint27_linear" x1="98.0219" y1="49.7554" x2="104" y2="49.7554" gradientUnits="userSpaceOnUse">
<stop offset="0.2609" stop-color="#B74AF7"/>
<stop offset="1" stop-color="#FF45ED"/>
</linearGradient>
<linearGradient id="paint28_linear" x1="81.1311" y1="31.7833" x2="83.0475" y2="21.0516" gradientUnits="userSpaceOnUse">
<stop  offset="0" stop-color="#FF4FFF"/>
<stop offset="0.9928" stop-color="#FF75FF"/>
</linearGradient>
<linearGradient id="paint29_linear" x1="38.2916" y1="25.7705" x2="92.4629" y2="91.256" gradientUnits="userSpaceOnUse">
<stop  offset="0" stop-color="#20D185"/>
<stop offset="0.4429" stop-color="#198767"/>
<stop offset="0.844" stop-color="#12414A"/>
</linearGradient>
</defs>
</svg>
