<svg width="16" height="16" viewBox="0 0 16 16" fill="none" xmlns="http://www.w3.org/2000/svg">
<path d="M10.1569 14.002C10.1569 14.002 9.99892 14.002 9.99861 13.843C9.99861 13.5622 9.99788 13.2814 9.99644 13.0006L9.00947 12.9975L8.99522 10.0003H10.0017C10.0017 10.0003 9.99923 10.6915 10.0017 10.998C10.2873 10.998 10.5729 11.0005 10.8589 11.0011C11.2114 11.0011 11.5643 11.0011 11.9168 11.0011C11.9787 11.0011 11.9958 11.0194 11.9955 11.0802C11.993 11.3842 11.9955 11.688 11.9955 11.992L12.892 11.9954C12.9279 11.9954 12.9642 11.9954 13.0001 11.997C13.0001 12.0007 13.0001 12.0044 13.0001 12.0078V11.9957C13.2346 11.9957 13.4688 11.9957 13.703 11.9914C13.7959 11.9914 13.9161 12.0308 13.9716 11.9759C14.027 11.921 13.9883 11.7949 13.9895 11.7007C13.9923 11.4946 13.9895 11.2885 13.9911 11.0823C13.9911 11.0554 13.9796 11.025 14.0053 11.0024H14.9967L14.9948 9.99787H14.0066H13.9911H13.0013H12.01C11.9825 9.97617 11.9939 9.94518 11.9939 9.91852C11.9939 9.31228 11.9939 8.70635 11.9924 8.10011C11.9924 8.02386 12.0896 8 12.0896 8L10.9884 8.00155H9.01133C9.02496 8.00434 9.01318 8.01364 9.00389 8.03254C9.0928 8.03254 8.99491 8.03843 8.99522 8.14257V8.85543C8.99522 8.89232 9.0262 8.93013 8.99801 8.95988V8.96174C9.00075 8.96895 9.00273 8.97643 9.00389 8.98406C9.0046 8.98832 9.0041 8.9927 9.00246 8.99669C9.00082 9.00069 8.9981 9.00415 8.9946 9.00668H8.00329C8.00329 9.31073 7.99926 9.61447 8.00329 9.91852C8.00329 9.98237 7.98749 10.0003 7.92244 10.0003C7.28428 9.99787 6.64582 9.9988 6.00767 9.9988C6.00767 10.3047 6.00364 10.6106 6.00581 10.9162C6.00581 10.9816 5.9928 11.0049 5.92186 11.0036C5.61579 10.9987 5.30973 11.0005 5.00366 10.9999L4.01018 11.003C4.01018 11.6349 4.01018 12.2668 4.01018 12.8989C4.01018 13.0009 4.01018 13.0009 3.91136 13.0009C3.63535 13.0009 3.35964 12.9993 3.08362 13.0009C3.02383 13.0009 3.00401 12.9857 3.00463 12.9234C3.00773 12.6395 3.00463 12.3559 3.00742 12.0723C3.00742 12.0103 2.98821 11.9936 2.92811 11.9942C2.64724 11.9969 2.36627 11.9969 2.08519 11.9942C2.02107 11.9942 2.00031 12.0143 2.00093 12.0785C2.0031 12.3853 2.00093 12.9993 2.00093 12.9993L2 14.0017C2 14.0017 3.71059 14.0704 10.1569 14.002Z" fill="#F8416C"/>
<path d="M11.9883 14.0014C11.677 14.0014 11.366 14.0014 11.0546 14.0051C11.0057 14.0051 10.9942 13.9865 10.9945 13.9416C10.9964 13.6276 10.9973 13 10.9973 13H9.99573C9.99573 13 9.99301 13.6013 9.99147 13.8942C9.99147 14.0222 10.0076 14.0054 9.8818 14.0054C6.94919 14.0054 6.92363 14.0054 3.99102 14.0054L4 15.0106C4 15.0106 6.256 15.0077 8.83752 15.0087C10.1962 15.0087 11.555 15.0093 12.914 15.0106C12.9824 15.0106 12.9995 14.9941 12.9985 14.926C12.9945 14.6191 12.9967 14.3123 12.9967 14.0054L11.992 14.0027L11.9883 14.0014Z" fill="#392A31"/>
<path d="M14.0022 9.67018V10.3315L14.004 11C14.312 11 14.6178 10.9977 14.9249 10.9986C14.98 10.9986 15 10.9915 15 10.9511C14.9982 10.3162 14.9982 9.68138 15 9.04662C15 9.00537 14.9787 8.9998 14.9252 9.00001C14.6172 9.00166 14.3107 9.00001 14.0034 9.00001C14.0034 9.22305 14.0023 9.44589 14 9.66853L14.0022 9.67018Z" fill="#392A31"/>
<path d="M13.0034 13.9991C13.316 13.9991 13.6289 13.9991 13.9417 14C13.9834 14 14.0003 13.9955 14 13.9724C13.9988 13.6579 13.9988 13.3434 14 13.0288C14 13.0073 13.9886 12.9998 13.9439 13C13.631 13.0011 13.3181 13.0009 13.0049 13.0012L13.0031 13.002C13.0031 13.1687 13.0021 13.3354 13 13.5022L13.0034 13.9991Z" fill="#392A31"/>
<path d="M5.99686 3.9932C5.99686 3.82806 5.99871 3.6606 5.99964 3.49531C6.00056 3.33002 5.99964 3.16458 5.99779 3.00052C5.98292 2.99983 5.96796 2.99983 5.95309 3.00052H5.89946C5.63108 3.00052 5.3626 3.00052 5.09401 3.00052H5.00154C5.00154 3.00609 5.00154 2.99851 5 3.00052C5 3.32384 5 3.67715 5 4L5.90655 3.99722C5.93687 3.99929 5.96774 3.99792 5.99686 3.9932Z" fill="#392A31"/>
<path d="M13.0896 11.9947C13.0199 11.9947 13.0029 11.9736 13.0038 11.9066C13.0072 11.6051 13.0054 11.3035 13.0054 11.0019C12.9797 11.0245 12.9911 11.0549 12.9911 11.0819C12.9911 11.288 12.9911 11.4941 12.9896 11.7002C12.9896 11.7932 13.0311 11.9172 12.9716 11.9754C12.9121 12.0337 12.7953 11.9897 12.703 11.9909C12.4688 11.994 12.2346 11.994 12.0001 11.9953V12.0074C12.3065 12.0074 12.6129 12.0074 12.9189 12.0049C12.979 12.0049 12.9924 12.0266 12.9917 12.0818C12.9896 12.3861 12.9902 12.6902 12.9902 12.9942V13.0017L13.9954 12.9982H13.9973L13.9926 11.9947C13.6925 11.9947 13.391 11.9906 13.0896 11.9947Z" fill="#951B39"/>
<path d="M6.00085 3.00188C6.00085 2.69194 6.00085 2.31288 6.00085 2.00418H4.99561C4.99561 2.31071 4.99561 2.6969 4.99746 3.00312H5.0904C5.36022 3.00312 5.63035 3.00312 5.90048 3.00312H5.95408C5.96902 3.00172 5.98405 3.00172 5.99899 3.00312C6.00023 2.99909 6.00054 3.00064 6.00085 3.00188Z" fill="#FEAB6C"/>
<path d="M12 7.00267H13.0034C13.0034 6.69273 13.0015 6.38434 13.0049 6.07534C13.0049 6.01335 12.9864 5.9994 12.9275 6.00002C12.6208 6.0025 12.3144 6.00002 12.0077 6.00002C12.0059 6.03101 12.0019 6.06201 12.0019 6.093C12.001 6.39592 12.0004 6.69914 12 7.00267Z" fill="#392A31"/>
<path d="M10 14.0027H11.0034C11.0034 13.6927 11.0015 13.3843 11.0049 13.0753C11.0049 13.0133 10.9864 12.9994 10.9275 13C10.6208 13.0025 10.3144 13 10.0077 13C10.0059 13.031 10.0019 13.062 10.0019 13.093C10.001 13.3959 10.0004 13.6991 10 14.0027Z" fill="#961B39"/>
<path d="M2 14.0027H3.00339C3.00339 13.6927 3.00153 13.3843 3.00494 13.0753C3.00494 13.0133 2.98635 12.9994 2.92749 13C2.62081 13.0025 2.31443 13 2.00774 13C2.00589 13.031 2.00186 13.062 2.00186 13.093C2.00103 13.3959 2.00041 13.6991 2 14.0027Z" fill="#392A31"/>
<path d="M3 15.0027H4.00339C4.00339 14.6927 4.00153 14.3843 4.00494 14.0753C4.00494 14.0133 3.98635 13.9994 3.92749 14C3.62081 14.0025 3.31443 14 3.00774 14C3.00589 14.031 3.00186 14.062 3.00186 14.093C3.00103 14.3959 3.00041 14.6991 3 15.0027Z" fill="#961B39"/>
<path d="M8 12.0027H9.00339C9.00339 11.6927 9.00153 11.3843 9.00494 11.0753C9.00494 11.0133 8.98635 10.9994 8.92749 11C8.62081 11.0025 8.31443 11 8.00774 11C8.00589 11.031 8.00186 11.062 8.00186 11.093C8.00103 11.3959 8.00041 11.6991 8 12.0027Z" fill="#961B39"/>
<path d="M4.99752 3.00189C4.99442 2.69567 4.99566 2.30948 4.99566 2.00295V2.0014C4.68588 2.0014 4.37795 2.0014 4.0691 2.0014C4.01613 2.0014 3.9994 2.01349 4.00002 2.06866C4.0028 2.36 4.00002 2.71209 4.00002 3.00313C4.00002 3.02327 4.00559 2.98329 4.00869 3.00313H4.12083C4.38756 3.00313 4.65397 3.00127 4.92069 3.00313C4.92348 3.00297 4.92627 3.00297 4.92906 3.00313C4.943 3.00313 4.95446 2.99848 4.96344 3.00313C4.98296 3.01367 4.99225 3.0146 4.99442 3.00313C4.99442 2.9991 4.99597 3.01429 4.99597 3.00313L4.99752 3.00189Z" fill="#392A31"/>
<path d="M11 7H11.9969V6H11.0028L11 7Z" fill="#F8416C"/>
<path d="M10 7H10.9969V6H10.0028L10 7Z" fill="#392A31"/>
<path d="M4.00004 7H6.00004V6H4.00563L4.00004 7Z" fill="#F8416D"/>
<path d="M5.00002 8H6.00002V7H5.00282L5.00002 8Z" fill="#F8416D"/>
<path d="M3.00002 8H4.00002V7H3.00282L3.00002 8Z" fill="#F8416D"/>
<path d="M6.00002 7H7.00002V6H6.00282L6.00002 7Z" fill="#F57B7C"/>
<path d="M6.00002 8H7.00002V7H6.00282L6.00002 8Z" fill="#AE72B2"/>
<path d="M4.00002 8H5.00002V7H4.00282L4.00002 8Z" fill="#AE72B2"/>
<path d="M3.00002 7H4.00002V6H3.00282L3.00002 7Z" fill="#AE72B2"/>
<path d="M11 6H11.9969V5H11.0028L11 6Z" fill="#392A31"/>
<path d="M10 6H10.9969V5H10.0028L10 6Z" fill="#951B39"/>
<path d="M10 4H10.9969V3H10.0028L10 4Z" fill="#392A31"/>
<path d="M10 5H10.9969V4H10.0028L10 5Z" fill="#392A31"/>
<path d="M5.00008 2H9.00008V1H5.01127L5.00008 2Z" fill="#392A31"/>
<path d="M8.00002 5H8.9969V4H8.00281L8.00002 5Z" fill="#FE9E52"/>
<path d="M9.00002 5H9.9969V4H9.00281L9.00002 5Z" fill="#F57C7C"/>
<path d="M8.00002 6H8.9969V5H8.00281L8.00002 6Z" fill="#F8416D"/>
<path d="M9.00002 6H9.9969V5H9.00281L9.00002 6Z" fill="#C62E53"/>
<path d="M8.00002 7H8.9969V6H8.00281L8.00002 7Z" fill="#F57C7B"/>
<path d="M9.00002 7H9.9969V6H9.00281L9.00002 7Z" fill="#C54D5B"/>
<path d="M12 10H12.9969V9H12.0028L12 10Z" fill="#392A31"/>
<path d="M13 10H13.9969V9H13.0028L13 10Z" fill="#F8416C"/>
<path d="M1.00002 12H2.00002V8H1.00282L1.00002 12Z" fill="#392A31"/>
<path d="M1.00002 8H2.00002V7H1.00282L1.00002 8Z" fill="#951B39"/>
<path d="M2.00002 7H3.00002V6H2.00282L2.00002 7Z" fill="#392A31"/>
<path d="M1.00002 13H2.00002V12H1.00282L1.00002 13Z" fill="#951B39"/>
<path d="M9.00002 8H9.9969V7H9.00281L9.00002 8Z" fill="#392A31"/>
<path d="M11 8H11.9969V7H11.0028L11 8Z" fill="#F8416C"/>
<path d="M10 8H10.9969V7H10.0028L10 8Z" fill="#F8416C"/>
<path d="M10.9992 8H11.996V7H11.002L10.9992 8Z" fill="#F8416C"/>
<path d="M12 8H12.9969V7H12.0028L12 8Z" fill="#B92D4E"/>
<path d="M10.9992 9H11.996V8H11.002L10.9992 9Z" fill="#F8416C"/>
<path d="M12 9H12.9969V8H12.0028L12 9Z" fill="#F8416C"/>
<path d="M9.00002 11H9.9969V10H9.00281L9.00002 11Z" fill="#F8416C"/>
<path d="M12 14H12.9969V13H12.0028L12 14Z" fill="#F8416C"/>
<path d="M9.00002 12H9.9969V11H9.00281L9.00002 12Z" fill="#F8416C"/>
<path d="M3.00002 6H3.9969V5H3.00281L3.00002 6Z" fill="#392A31"/>
<path d="M10 13H10.9969V12H10.0028L10 13Z" fill="#392A31"/>
<path d="M9.00002 13H9.9969V12H9.00281L9.00002 13Z" fill="#392A31"/>
<path d="M13.9973 11.0001H13.0059C13.0059 11.3016 13.0078 11.6032 13.0044 11.9048C13.0044 11.9717 13.0205 11.9937 13.0902 11.9928C13.3916 11.9891 13.693 11.9928 13.9945 11.9928C13.9957 11.6622 13.9968 11.3316 13.9979 11.001L13.9973 11.0001Z" fill="#392A31"/>
<path d="M5.00021 4.00288C4.68341 4.00164 4.36671 4.00009 4.05011 3.99823C4.01696 3.99823 4.00519 4.00939 4.0055 4.04286C4.00756 4.35983 4.00901 4.67669 4.00984 4.99345H5.00114C5.00052 4.66346 5.00021 4.33327 5.00021 4.00288Z" fill="#392A31"/>
<path d="M9.00342 2.09028V2.1095V3.00181C9.01333 3.00522 9.0251 3.00181 9.00776 3.00181H9.00342C9.25713 3.00181 9.74969 3.00181 10.0031 3.00181C10.0629 3.00181 9.94392 3.01731 10.0031 3.00181C10.0046 3.00181 10.0031 3.00181 10.0031 3.00181C10.0031 2.67389 9.99751 2.33513 9.99751 2.00691C9.68308 1.99544 9.31785 2.00102 9.00342 2.00412V2.09028Z" fill="#392A31"/>
<path d="M1.99905 12.0762C2.00153 12.383 1.99905 12.997 1.99905 12.997L1.99719 8.98856C1.99719 8.98856 2.06132 9.00374 2.09446 9.00374L3.00151 9.00529C3.00151 9.31182 3.00368 9.61835 3.00151 9.92488C3.0012 9.97695 3.01452 9.99679 3.07028 9.99679C3.38222 9.994 3.69416 9.994 4.0061 9.994H4.00614C4.00758 10.3298 4.00831 10.6653 4.00831 11.0007V12.8966C4.00831 12.9986 4.00831 12.9986 3.90949 12.9986C3.63347 12.9986 3.35776 12.9958 3.08174 12.9986C3.02196 12.9992 3.00275 12.9831 3.00275 12.9211C3.00554 12.6372 3.00244 12.3536 3.00554 12.07C3.00616 12.0077 2.98633 11.9919 2.92623 11.9919C2.64516 11.9946 2.36418 11.9946 2.08331 11.9919C2.01919 11.9912 1.99905 12.012 1.99905 12.0762Z" fill="#A05AA5"/>
<path d="M4.99995 10.0535C4.99995 9.99524 5.03093 9.994 5.07275 9.994C5.38409 9.994 5.69542 9.994 6.00644 9.994V9.0022V8.98639C5.98627 8.99809 5.96311 9.00359 5.93984 9.0022C5.62675 9.0022 5.31356 9.00158 5.00027 9.00034L4.01175 9.0022L4.00989 9.99121C4.00989 10.3268 4.01061 10.6623 4.01206 10.9979L5.00553 10.9948C5.00274 10.6821 5.00305 10.3678 4.99995 10.0535Z" fill="#9A3D70"/>
<path d="M10.0026 11.9916H11.9964C11.9964 11.6875 11.9942 11.3838 11.9964 11.0797C11.9964 11.0177 11.9794 11.0001 11.9177 11.0007C11.5652 11.0032 11.2123 11.0022 10.8598 11.0007C10.5739 11.0007 10.2882 10.9985 10.0026 10.9976L9.99829 11.0016C9.99953 11.3316 10.001 11.6616 10.0026 11.9916Z" fill="#C62E53"/>
<path d="M6.00635 9.00312V9.99492C6.6445 9.99492 7.28297 9.99492 7.92112 9.99647C7.98617 9.99647 8.00259 9.9785 8.00197 9.91465C7.99949 9.6106 8.00197 9.30686 8.00197 9.00281L6.00635 9.00312Z" fill="#392A31"/>
<path d="M8.99777 12.0663C8.99777 12.0185 9.01542 12.0043 9.06127 12.0043C9.70562 12.0057 10.3501 12.0064 10.9946 12.0064H11.9996C11.9996 12.003 11.9996 11.9993 11.9996 11.9956C11.9636 11.9956 11.9274 11.994 11.8915 11.994L10.9949 11.9906H9.00117H8.00708C8.00708 12.3254 8.0076 12.66 8.00863 12.9945L8.9956 12.9976L9.00056 12.993C9.00025 12.6852 8.99994 12.3759 8.99777 12.0663Z" fill="#961B39"/>
<path d="M8.99614 8.98825C8.69286 8.98825 8.3868 8.98825 8.08352 8.99011C8.01939 8.99011 8.0005 8.97213 8.00112 8.90797C8.00452 8.60454 8.00329 8.30111 8.00359 7.99768V7.99365L6.99804 7.99644C6.99804 8.30235 6.99804 8.60826 6.99804 8.91417C6.99804 8.97213 6.97945 8.98887 6.92276 8.98825C6.61701 8.98577 6.31125 8.9867 6.00549 8.98608V9.00188H8.99614C8.99614 8.99724 8.99614 8.99259 8.99614 8.98794V8.98825Z" fill="#9A3D70"/>
<path d="M6.00637 9.99429C5.69659 9.99429 5.38402 9.99429 5.07269 9.99429C5.02994 9.99429 4.99927 9.99429 4.99989 10.0538C5.00298 10.3681 5.00268 10.6824 5.0036 10.9966C5.30967 10.9966 5.61574 10.9966 5.9218 11.0004C5.99274 11.0004 6.00606 10.9784 6.00575 10.913C6.00359 10.6074 6.00575 10.3014 6.00761 9.99553L6.00637 9.99429Z" fill="#392A31"/>
<path d="M8.07228 7.00464C8.01032 7.00464 8.00165 7.0316 8.00196 7.08398C8.00351 7.38741 8.00196 7.69084 8.00196 7.99428V7.9983C8.31174 7.9983 8.68534 7.99831 8.99327 7.99583C8.99327 7.97196 8.99327 7.9484 8.99327 7.92454V7.90346C8.99327 7.89479 8.99327 7.88611 8.99327 7.87774C8.98893 7.58887 9.00876 7.2997 8.99327 7.00991V7.00743C8.68751 7.00743 8.38052 7.00867 8.07228 7.00464Z" fill="#C62E53"/>
<path d="M11.9992 9.00311C11.6953 9.00311 11.3914 9.00497 11.0875 9.00311C11.0255 9.00311 11.0076 9.02078 11.0082 9.08184C11.0113 9.38589 11.0101 9.68994 11.0107 9.99399H12.002C12.0005 9.66339 11.9996 9.3331 11.9992 9.00311Z" fill="#951B39"/>
<path d="M12.0008 12.007H10.9958V12.9989H12.0011C12.0005 12.6678 12.0004 12.3372 12.0008 12.007Z" fill="#951B39"/>
<path d="M6.86604 1.99942C6.62668 1.99942 6.38711 1.99942 6.14734 1.99942C6.3868 2.00035 6.62657 1.9988 6.86604 1.99942Z" fill="#F9D88C"/>
<path d="M7.23682 1.99943C7.31426 1.99943 7.39171 1.99943 7.46977 1.99943C7.59555 1.99943 7.72163 2.00129 7.8474 1.99943H7.79938C7.61165 1.99881 7.42413 1.99881 7.23682 1.99943Z" fill="#F9D88C"/>
<path d="M6.00732 1.99942C6.04419 2.01151 6.08198 1.99942 6.12101 1.99942H6.00732Z" fill="#F9D88C"/>
<path d="M8.00226 2.99216C8.00226 3.32689 8.00443 3.66535 8.00567 3.99977C8.30585 3.99977 8.69339 4.00318 8.99419 3.99977C8.97777 3.98335 8.98955 3.96258 8.99419 3.94212C8.99048 3.78343 8.99419 3.62444 8.99574 3.46575C8.99729 3.30706 8.99574 3.14589 8.99574 2.99123C8.988 2.98906 8.97932 2.99123 8.98924 2.99123C8.74915 2.99123 8.36626 2.99123 8.12897 2.99123H8.00195L8.00226 2.99216ZM8.03324 2.99216C8.03324 2.99526 8.03324 2.99619 8.03324 2.99216V2.99216Z" fill="#F9D88C"/>
<path d="M6.99158 3.00188C6.99158 3.00652 6.99158 2.99134 6.99158 3.00188C6.99158 3.01241 6.99158 2.99382 6.99158 3.00188C6.99777 3.01179 7.01574 3.0121 7.03959 3.00188C7.04796 2.99847 7.05694 3.00188 7.06624 3.00188C7.06624 2.93989 7.08482 3.00188 7.14492 3.00188H7.84131C7.90141 3.00188 7.92062 2.93989 7.92 3.00188H7.92526C7.92918 3.00157 7.93312 3.00157 7.93704 3.00188C7.95717 3.00652 7.97824 3.01737 7.99466 3.00188C7.99466 2.98793 7.99466 3.0059 7.99775 3.00188C7.99775 2.68481 7.99775 2.32001 7.99775 2.00418H6.99251C6.9922 2.30575 6.99189 2.69689 6.99158 3.00188Z" fill="#FE9E52"/>
<path d="M7.99868 3.0019C8.00642 2.98702 8.0312 3.0019 8.08015 3.0019H8.9906C8.98544 3.00221 8.98027 3.00221 8.97511 3.0019C8.97325 3.0019 8.97201 3.0019 8.97047 3.0019C8.96892 3.0019 8.96582 3.0019 8.96427 3.0019C8.9178 2.98547 8.9906 2.91759 8.9906 3.0019V2.00482H7.99744C7.99775 2.32003 7.99837 2.68483 7.99868 3.0019Z" fill="#F9D88C"/>
<path d="M6.00179 3.00188H6.14182C6.38117 3.00188 6.62074 3.00188 6.86051 3.00188H6.91008C6.96336 3.00188 6.98597 2.97925 6.99155 3.00188C6.99155 2.6969 6.99155 2.30576 6.99155 2.00388H6.00024C6.00117 2.31289 6.00148 2.69318 6.00179 3.00188Z" fill="#F9D88C"/>
<path d="M12.9929 7.99643H12.9911C12.9911 8.30451 12.9911 8.61228 12.9911 8.92036C12.9911 8.9777 13.006 9.00962 13.0685 9.00342L13.9939 9.00187C13.9951 8.66714 13.9962 8.3323 13.9973 7.99736L12.9929 7.99643Z" fill="#392A31"/>
<path d="M4.00269 6.0001H4.01043H5.00174C5.00174 5.66537 5.00174 5.33074 5.00174 4.99621V4.99466H4.01043C4.01043 5.03309 4.00733 5.07152 4.00702 5.10965C4.00516 5.40616 4.00372 5.70298 4.00269 6.0001Z" fill="#FB5F81"/>
<path d="M5.00236 4.99562L6.00636 4.99407C6.00636 4.66347 6.00709 4.33173 6.00853 3.99885C6.00849 3.99718 6.00808 3.99553 6.00733 3.99403C6.00658 3.99253 6.00551 3.99121 6.0042 3.99017C5.975 3.99995 5.94398 4.00302 5.91343 3.99916L4.99988 4.00288C4.99988 4.33348 4.99988 4.66408 4.99988 4.99469L5.00236 4.99562Z" fill="#FB5F81"/>
<path d="M7.02161 2.99216H7.02749C7.02749 2.97046 7.02718 2.98286 7.02161 2.99216Z" fill="#F9DD9D"/>
<path d="M6.99586 3.99822L6.99927 4.00442C6.99765 4.00248 6.9962 4.00041 6.99493 3.99822C6.99493 3.66442 6.99493 3.32597 6.99493 2.99185H6.88744C6.6297 2.99185 6.37154 2.99185 6.11298 2.99185H6.00486C6.00486 3.32318 6.003 3.65884 6.00208 3.98986C6.00339 3.9909 6.00446 3.99221 6.00521 3.99371C6.00596 3.99521 6.00637 3.99686 6.00641 3.99853L6.99586 3.99822Z" fill="#F9DD9D"/>
<path d="M3.00491 7.99643L2.00183 7.99953C2.00183 8.32806 2.00183 8.6566 2.00183 8.98514C2.03281 9.0059 2.06596 9.00032 2.0991 9.00032L3.00615 9.00187L3.00491 7.99643Z" fill="#F8416D"/>
<path d="M9.00893 2.99206C9.00893 3.32246 9.00893 3.66897 9.00893 3.99905C9.00933 4.00026 9.00933 4.00157 9.00893 4.00277H10.0074V3.99812C10.0074 3.69438 10.0043 3.29549 10.0074 2.99144C10.0074 2.94588 10.034 2.97625 10.0074 2.99144C9.99404 2.99919 10.0321 2.99144 10.0074 2.99144C9.72608 2.99547 9.34907 2.99144 9.06748 2.99144H9.00769C9.03061 2.99206 9.01977 2.98927 9.00893 2.99206Z" fill="#F9D88C"/>
<path d="M12.0007 12.0071C12.0007 12.3377 12.0007 12.6683 12.0007 12.9989L12.992 12.9945C12.992 12.6905 12.992 12.3864 12.9936 12.0821C12.9936 12.0269 12.9809 12.0046 12.9208 12.0052C12.6147 12.0083 12.3083 12.0074 12.002 12.0077L12.0007 12.0071Z" fill="#392A31"/>
<path d="M4.00982 9.00375H3.00488C3.00488 9.31028 3.00488 9.61681 3.00488 9.92334C3.00488 9.97541 3.01789 9.99587 3.07365 9.99525C3.38561 9.99246 3.69756 9.99308 4.00951 9.99246L4.00982 9.00375Z" fill="#F8416D"/>
<path d="M6.00666 7.99643H5.0011C5.0011 8.33075 5.0011 8.66528 5.0011 9.00001C5.31419 9.00001 5.62738 9.00063 5.94067 9.00187C5.96394 9.00327 5.98711 8.99777 6.00728 8.98607L6.00666 7.99643Z" fill="#A058A3"/>
<path d="M5.00019 7.99643H4.01074C4.01074 8.33137 4.01074 8.66652 4.01074 9.00187L4.99926 9.00001C4.99967 8.66652 4.99998 8.33199 5.00019 7.99643Z" fill="#F8416D"/>
<path d="M8.0033 6.991L6.99744 6.99317C6.99744 7.3279 6.99744 7.66264 6.99744 7.99737L8.00299 7.99458C8.00299 7.69115 8.00299 7.38772 8.00299 7.08429C8.00299 7.03191 8.01043 7.00432 8.07331 7.00494C8.38155 7.00835 8.68854 7.00711 8.99709 7.00773C8.99736 7.00721 8.9975 7.00662 8.9975 7.00603C8.9975 7.00544 8.99736 7.00485 8.99709 7.00432C8.99709 7.00154 8.99461 6.99875 8.99554 6.99627C8.9954 6.99598 8.99533 6.99566 8.99533 6.99534C8.99533 6.99501 8.9954 6.9947 8.99554 6.99441V6.99255C8.69164 6.98976 8.30751 6.991 8.0033 6.991Z" fill="#C54D5B"/>
<path d="M9.00891 5.97617C9.01758 5.97029 9.02936 5.96967 9.00891 5.96967V5.97617Z" fill="#C62E53"/>
<path d="M11.9926 11.0034C11.6828 11.0034 11.3745 11.0034 11.0654 11C11.0139 11 10.9997 11.0177 11 11.0673C11.0022 11.3772 11.0022 11.6856 11.0028 11.9946H11.9969C11.9952 11.663 11.9938 11.3326 11.9926 11.0034Z" fill="#392A31"/>
<path d="M12.9926 11.0034C12.6828 11.0034 12.3745 11.0034 12.0654 11C12.0139 11 11.9997 11.0177 12 11.0673C12.0022 11.3772 12.0022 11.6856 12.0028 11.9946H12.9969C12.9952 11.663 12.9938 11.3326 12.9926 11.0034Z" fill="#951B39"/>
<path d="M6.99704 7.99643H6.00574V8.98607C6.31149 8.98607 6.61725 8.98607 6.92301 8.98824C6.9797 8.98824 6.9989 8.97212 6.99828 8.91416C6.9958 8.60825 6.99828 8.30234 6.99828 7.99643H6.99704Z" fill="#C62E53"/>
<path d="M8.9961 7.99642C8.68632 7.9989 8.31241 7.99828 8.0048 7.9989C8.0048 8.30233 8.0048 8.60576 8.00232 8.90919C8.00232 8.97335 8.0206 8.99195 8.08472 8.99133C8.388 8.98823 8.69406 8.98978 8.99734 8.98947V8.86549C8.99734 8.60793 8.99517 8.35037 8.99734 8.09281C8.99734 8.08258 8.99734 8.07236 8.99734 8.06182C8.99744 8.04982 9.00042 8.03802 9.00602 8.02741C9.01531 8.00882 9.02708 7.99952 9.01345 7.99642C9.0081 7.99582 9.00269 7.99582 8.99734 7.99642H8.9961Z" fill="#392A31"/>
<path d="M8.00206 4.0038L8.00578 3.99977C8.00578 3.66535 8.00361 3.32689 8.00237 2.99216C7.97666 2.99216 7.95095 2.99216 7.92555 2.99216H7.8165C7.60544 2.99216 7.39437 2.99216 7.18331 2.99216H6.99744C6.99744 3.32627 6.99744 3.66473 6.99744 3.99853C6.9987 4.00072 7.00015 4.00279 7.00177 4.00473L8.00206 4.0038Z" fill="#FE9F52"/>
<path d="M8.99609 5.02473C9.01593 5.02473 9.00508 5.02473 8.99609 5.01978V5.02473Z" fill="#FE9E52"/>
<path d="M8.99609 1.99943C9.06021 1.99943 8.99609 1.93527 8.99609 1.99943V1.99943Z" fill="#FE9E52"/>
<path d="M8.99609 2.99216C8.99609 3.05414 9.06239 2.99216 8.99609 2.99216V2.99216Z" fill="#FE9E52"/>
<path d="M6.00608 5.9998V4.99405L5.00208 4.9956C5.00208 5.33033 5.00208 5.66496 5.00208 5.99949H6.00701L6.00608 5.9998Z" fill="#F57B7C"/>
<path d="M6.9964 4.99436C6.9964 4.66376 6.99712 4.33409 6.99857 4.00534L6.99516 3.99915H6.00974C6.00974 4.32975 6.00901 4.66149 6.00757 4.99436H6.9964Z" fill="#F57C7C"/>
<path d="M4.00982 9.00374C4.00982 8.66838 4.00982 8.33323 4.00982 7.99829H3.00488V9.00559H4.01075L4.00982 9.00374Z" fill="#A05AA5"/>
<path d="M3 8V7C3 7 2.30142 6.99069 2 6.99069V7.99645L3 8Z" fill="#A05AA5"/>
<path d="M8.00263 6.00043H6.99707C6.99707 6.33103 6.99707 6.66163 6.99707 6.99223L8.00294 6.99006C8.00273 6.66049 8.00263 6.33062 8.00263 6.00043Z" fill="#F8416D"/>
<path d="M8.99609 5.97657C9.00477 5.97069 9.01655 5.96976 8.99609 5.96976V5.97657Z" fill="#F57C7B"/>
<path d="M8.0023 4.99373C8.0023 4.66313 8.0023 4.33315 8.0023 4.00378H7.00046C7.00046 4.33315 6.99974 4.66282 6.99829 4.9928L8.0023 4.99373Z" fill="#F8416D"/>
<path d="M6.00607 5.9998H6.99582V4.99435H6.00452L6.00607 5.9998Z" fill="#F8416D"/>
<path d="M6.99708 6.00043H8.00295V4.99374H6.99646V6.00043H6.99708Z" fill="#F57B7C"/>
<path d="M11.0028 12.9907C11.0028 13.3046 11.0028 13.6183 11 13.9323C11 13.9772 11.0112 13.9964 11.0601 13.9958C11.3714 13.9933 11.6825 13.993 11.9938 13.9921C11.9938 13.6615 11.9946 13.3309 11.9963 13.0003L11.9925 12.9885L11.0028 12.9907Z" fill="#C62E53"/>
<path d="M11 11.9983V12.9901H11.9898V12.0023V11.9948L11 11.9983Z" fill="#CC5F00"/>
<path d="M11.9907 12.0013V12.9891L11.9944 13.0009H12.9938C12.995 12.6674 12.9961 12.3338 12.9969 12.0001V11.9985L11.9917 12.0019L11.9907 12.0013Z" fill="#FE9C00"/>
</svg>
