<svg width="16" height="16" viewBox="0 0 16 16" fill="none" xmlns="http://www.w3.org/2000/svg">
  <path fill-rule="evenodd" clip-rule="evenodd"
        d="M8 15C11.866 15 15 11.866 15 8C15 4.13401 11.866 1 8 1C4.13401 1 1 4.13401 1 8C1 11.866 4.13401 15 8 15ZM8 4C8.55228 4 9 4.44772 9 5V7.5C9 8.05228 8.55229 8.5 8 8.5C7.44772 8.5 7 8.05229 7 7.5V5C7 4.44772 7.44772 4 8 4ZM9 11C9 11.5523 8.55228 12 8 12C7.44772 12 7 11.5523 7 11C7 10.4477 7.44772 10 8 10C8.55228 10 9 10.4477 9 11Z"
        fill="#FFAF0F"/>
</svg>
