<svg width="16" height="16" viewBox="0 0 16 16" fill="none" xmlns="http://www.w3.org/2000/svg">
  <path fill-rule="evenodd" clip-rule="evenodd"
        d="M4.95101 4.03688C5.79489 3.38669 6.85227 3 7.99997 3C9.14763 3 10.205 3.38667 11.0489 4.03683L12.4716 2.61414C11.2588 1.60615 9.70018 1 7.99997 1C6.29973 1 4.74107 1.60617 3.52832 2.6142L4.95101 4.03688Z"
        fill="#9AA7B0"/>
  <path opacity="0.8" fill-rule="evenodd" clip-rule="evenodd"
        d="M3.6387 5.55297L2.18602 4.10029C1.43703 5.21473 1 6.55633 1 8C1 9.70021 1.60615 11.2588 2.61414 12.4716L4.03683 11.0489C3.38667 10.205 3 9.14766 3 8C3 7.11106 3.23198 6.27631 3.6387 5.55297Z"
        fill="#9AA7B0"/>
  <path opacity="0.6" fill-rule="evenodd" clip-rule="evenodd"
        d="M11.8997 13.814C10.7853 14.563 9.44367 15 8 15C6.5563 15 5.21467 14.5629 4.10022 13.8139L5.5529 12.3613C6.27625 12.768 7.11103 13 8 13C8.88894 13 9.72369 12.768 10.447 12.3613L11.8997 13.814Z"
        fill="#9AA7B0"/>
  <path opacity="0.4" fill-rule="evenodd" clip-rule="evenodd"
        d="M13.3858 12.4717C14.3938 11.2589 15 9.70024 15 8C15 6.5563 14.563 5.21467 13.814 4.10022L12.3613 5.5529C12.768 6.27625 13 7.11103 13 8C13 9.1477 12.6133 10.2051 11.9631 11.049L13.3858 12.4717Z"
        fill="#9AA7B0"/>
</svg>
