<svg width="8" height="10" viewBox="0 0 8 10" fill="none" xmlns="http://www.w3.org/2000/svg">
  <path fill-rule="evenodd" clip-rule="evenodd" d="M6.33386 8.77221C5.91667 8.91973 5.46771 9 5 9C2.79086 9 1 7.20914 1 5C1 2.79086 2.79086 1 5 1C5.46771 1 5.91667 1.08027 6.33386 1.22779C6.56042 0.947896 6.81165 0.688791 7.08424 0.453786C6.44979 0.162443 5.74387 0 5 0C2.23858 0 0 2.23858 0 5C0 7.76142 2.23858 10 5 10C5.69036 10 6.34803 9.86009 6.94623 9.60707C6.99259 9.58746 7.0386 9.56717 7.08424 9.54621C6.81165 9.31121 6.56042 9.0521 6.33386 8.77221Z" fill="#6C707E"/>
</svg>
