<svg width="64" height="64" viewBox="0 0 64 64" fill="none" xmlns="http://www.w3.org/2000/svg">
<path d="M53.7511 61.3794H24.7464C22.869 61.3576 21.0771 60.5909 19.7649 59.2482C18.4526 57.9054 17.7274 56.0964 17.7487 54.219V46.5398C17.7274 44.6624 18.4526 42.8534 19.7649 41.5106C21.0771 40.1678 22.869 39.4012 24.7464 39.3794H53.7511C55.6285 39.4012 57.4204 40.1678 58.7326 41.5106C60.0449 42.8534 60.7701 44.6624 60.7487 46.5398V54.219C60.7701 56.0964 60.0449 57.9054 58.7326 59.2482C57.4204 60.5909 55.6285 61.3576 53.7511 61.3794Z" fill="#FDB60D"/>
<path d="M25.4184 45.5725H32.9706V47.5327H27.6068V49.5637H32.3272V51.5231H27.6068V53.6257H33.0423V55.5851H25.4183L25.4184 45.5725Z" fill="black"/>
<path d="M38.4341 45.5017H40.4651L44.7562 55.5851H42.4533L41.5379 53.3398H37.3045L36.3891 55.5851H34.1439L38.4341 45.5017ZM40.7519 51.3945L39.4212 48.1473L38.0914 51.3945H40.7519Z" fill="black"/>
<path d="M46.3011 45.5725H50.392C52.7806 45.5725 54.225 46.989 54.225 49.0339V49.0627C54.225 51.3796 52.423 52.5819 50.1778 52.5819H48.5044V55.5851H46.3011V45.5725ZM50.2486 50.6216C50.4651 50.6491 50.6849 50.6306 50.8938 50.5673C51.1026 50.5039 51.2957 50.3973 51.4604 50.2542C51.6251 50.111 51.7578 49.9347 51.8497 49.7368C51.9416 49.5389 51.9907 49.3238 51.9937 49.1056V49.0768C51.9937 48.0906 51.3074 47.5608 50.2057 47.5608H48.5044V50.6217L50.2486 50.6216Z" fill="black"/>
</svg>
