<svg width="128" height="128" viewBox="0 0 128 128" fill="none" xmlns="http://www.w3.org/2000/svg">
<path d="M107.502 122.759H49.4928C45.738 122.715 42.1543 121.182 39.5298 118.497C36.9053 115.811 35.4548 112.193 35.4975 108.438V93.0797C35.4548 89.3249 36.9053 85.7069 39.5298 83.0214C42.1543 80.3358 45.738 78.8026 49.4928 78.7589H107.502C111.257 78.8026 114.841 80.3358 117.465 83.0214C120.09 85.7069 121.54 89.3249 121.498 93.0797V108.438C121.54 112.193 120.09 115.811 117.465 118.497C114.841 121.182 111.257 122.715 107.502 122.759Z" fill="#FDB60D"/>
<path d="M50.8367 91.1451H65.9411V95.0657H55.2134V99.1277H64.6542V103.046H55.2134V107.252H66.0846V111.17H50.8367V91.1451Z" fill="black"/>
<path d="M76.8682 91.0037H80.9302L89.5124 111.17H84.9065L83.0757 106.68H74.609L72.7782 111.17H68.2878L76.8682 91.0037ZM81.5038 102.789L78.8424 96.2948L76.1828 102.789H81.5038Z" fill="black"/>
<path d="M92.6023 91.1451H100.784C105.561 91.1451 108.45 93.9779 108.45 98.0679V98.1256C108.45 102.759 104.846 105.164 100.356 105.164H97.0089V111.17H92.6023V91.1451ZM100.497 101.243C102.701 101.243 103.987 99.9285 103.987 98.2113V98.1536C103.987 96.1812 102.615 95.1215 100.412 95.1215H97.0089V101.243H100.497Z" fill="black"/>
</svg>
