<svg width="40" height="40" viewBox="0 0 40 40" fill="none" xmlns="http://www.w3.org/2000/svg">
<path fill-rule="evenodd" clip-rule="evenodd" d="M22.292 26.1885C22.8988 24.8266 23.8441 23.6426 25.0379 22.7494C26.2317 21.8562 27.6343 21.2834 29.1121 21.0855C31.298 18.3912 32.9563 15.3088 34 12C33.9342 15.192 33.076 18.3177 31.5026 21.0958C32.9622 21.312 34.3441 21.892 35.521 22.7821C36.6978 23.6723 37.6319 24.8442 38.2373 26.1899C38.7701 24.1705 39.0267 22.0883 39 20C38.872 13.8868 37.8616 7.82422 36 2C32.6027 6.96924 26.2286 10.6714 21 12C16.2657 13.1442 13.4665 13.2668 9.0849 14.9733C6.77747 15.7736 4.76821 17.2572 3.32409 19.2267C1.87997 21.1963 1.06937 23.5587 1 26C1.05655 27.5418 1.44283 29.0536 2.13281 30.4336C2.8228 31.8136 3.80048 33.0297 5 34C8.96411 33.3824 12.8541 32.3582 16.6083 30.9435C17.0994 29.7497 17.8733 28.6931 18.8635 27.8647C19.8536 27.0364 21.0302 26.4611 22.292 26.1885Z" fill="#6CC149"/>
<path fill-rule="evenodd" clip-rule="evenodd" d="M16.0078 34.1542C14.5402 34.5815 12.8193 35.013 10 36C9.33362 36.2331 7 37 7 37H10C10 37 13.3184 37.007 16.592 37.0083C16.2231 36.1011 16.0251 35.1335 16.0078 34.1542V34.1542Z" fill="#6CC149"/>
<path fill-rule="evenodd" clip-rule="evenodd" d="M16.0328 34.1469C14.5597 34.5767 12.8354 35.0074 10 36C9.33362 36.2332 7 37 7 37H10C10 37 13.4378 37.0073 16.7671 37.0084C16.3557 36.1052 16.1071 35.1365 16.0328 34.1469Z" fill="#6CC149"/>
<path fill-rule="evenodd" clip-rule="evenodd" d="M36.9222 28.7619C36.7002 27.227 35.9546 25.8161 34.8115 24.768C33.6684 23.7199 32.1982 23.0992 30.6499 23.0109C29.1015 22.9226 27.5703 23.3723 26.3155 24.2837C25.0608 25.1951 24.1596 26.5122 23.7647 28.0119C22.1953 28.0726 20.7124 28.7466 19.6346 29.889C18.5569 31.0315 17.9705 32.5512 18.0013 34.1214C18.0321 35.6917 18.6778 37.1872 19.7995 38.2864C20.9212 39.3857 22.4295 40.001 24 40H34C35.3284 40.0003 36.6193 39.5597 37.6702 38.7473C38.7212 37.9349 39.4727 36.7966 39.807 35.511C40.1413 34.2254 40.0394 32.8652 39.5173 31.6437C38.9952 30.4223 38.0824 29.4087 36.9222 28.7619V28.7619Z" fill="#8F989D"/>
</svg>
