<svg width="16" height="16" viewBox="0 0 16 16" fill="none" xmlns="http://www.w3.org/2000/svg">
<path d="M11 2C11.5523 2 12 2.44772 12 3V9H4V6H6C7.10457 6 8 5.10457 8 4V2H11Z" fill="#F2FCF3"/>
<path d="M7 4C7 4.06893 6.99277 4.13617 6.97949 4.20117C6.88625 4.65686 6.48325 5 6 5H4.41406L7 2.41406V4Z" fill="#F2FCF3"/>
<path fill-rule="evenodd" clip-rule="evenodd" d="M11 1C12.1046 1 13 1.89543 13 3V9H12V3C12 2.44772 11.5523 2 11 2H8V4C8 5.10457 7.10457 6 6 6H4V9H3V5.41406C3.00004 5.1489 3.10547 4.89453 3.29297 4.70703L6.70703 1.29297C6.89453 1.10547 7.1489 1.00004 7.41406 1H11ZM4.41406 5H6C6.55228 5 7 4.55228 7 4V2.41406L4.41406 5Z" fill="#208A3C"/>
<path d="M5.00391 10.9648H2.29004V12.5645H4.79102V13.5156H2.30664V16H1.28125V10.0137H5.00391V10.9648Z" fill="#6C707E"/>
<path d="M10.084 10.9648H8.51758V16H7.48438V10.9648H5.91797V10.0137H10.084V10.9648Z" fill="#6C707E"/>
<path fill-rule="evenodd" clip-rule="evenodd" d="M13.082 10.0137C13.4811 10.0137 13.8288 10.0901 14.124 10.2432C14.4247 10.3962 14.6573 10.6128 14.8213 10.8916C14.9852 11.1649 15.0664 11.4878 15.0664 11.8594C15.0664 12.2254 14.9818 12.5475 14.8125 12.8262C14.6485 13.1049 14.4192 13.3215 14.124 13.4746C13.8288 13.6277 13.4811 13.7041 13.082 13.7041H12.1152V16H11.0898V10.0137H13.082ZM12.1152 12.7773H13.082C13.3662 12.7773 13.5932 12.6952 13.7627 12.5312C13.9376 12.3619 14.0253 12.138 14.0254 11.8594C14.0254 11.5751 13.9376 11.3505 13.7627 11.1865C13.5933 11.0227 13.3662 10.9404 13.082 10.9404H12.1152V12.7773Z" fill="#6C707E"/>
</svg>
