<svg width="16" height="16" viewBox="0 0 16 16" fill="none" xmlns="http://www.w3.org/2000/svg">
<path d="M8.66427 2.25239L13.6643 6.69575C13.8778 6.88552 14 7.15756 14 7.44324V13C14 13.5522 13.5523 14 13 14H10C9.44772 14 9 13.5522 9 13V11C9 10.4477 8.55228 9.99995 8 9.99995C7.44772 9.99995 7 10.4477 7 11V13C7 13.5522 6.55228 14 6 14H3C2.44772 14 2 13.5522 2 13V7.44324C2 7.15756 2.12218 6.88552 2.33573 6.69575L7.33573 2.25239C7.71458 1.91571 8.28542 1.91571 8.66427 2.25239Z" fill="#EBECF0"/>
<path fill-rule="evenodd" clip-rule="evenodd" d="M7.33594 2.25172C7.71464 1.9156 8.28536 1.9156 8.66406 2.25172L13.6641 6.69508C13.8775 6.8848 13.9999 7.15754 14 7.44313V12.9998C14 13.5521 13.5523 13.9998 13 13.9998H10C9.44772 13.9998 9 13.5521 9 12.9998V10.9998C8.99987 10.4476 8.55221 9.99977 8 9.99977C7.44779 9.99977 7.00013 10.4476 7 10.9998V12.9998C7 13.5521 6.55228 13.9998 6 13.9998H3C2.44772 13.9998 2 13.5521 2 12.9998V7.44313C2.00006 7.19325 2.09339 6.95332 2.25977 6.77028L2.33594 6.69508L7.33594 2.25172ZM3 7.44313V12.9998H6V10.9998C6.00013 9.89531 6.89551 8.99977 8 8.99977C9.10449 8.99977 9.99987 9.89531 10 10.9998V12.9998H13V7.44313L8 2.99977L3 7.44313Z" fill="#6C707E"/>
</svg>
