<svg width="16" height="16" viewBox="0 0 16 16" fill="none" xmlns="http://www.w3.org/2000/svg">
<path d="M2 3V9C2 10.1046 2.89543 11 4 11H12C13.1046 11 14 10.1046 14 9V5C14 3.89543 13.1046 3 12 3H9L7.29289 1.29289C7.10536 1.10536 6.851 1 6.58579 1H4C2.89543 1 2 1.89543 2 3Z" fill="#43454A"/>
<path fill-rule="evenodd" clip-rule="evenodd" d="M6.58594 1C6.8511 1.00004 7.10547 1.10547 7.29297 1.29297L9 3H12C13.1046 3 14 3.89543 14 5V9C14 10.1046 13.1046 11 12 11H8V12.0869C8.42581 12.2376 8.76242 12.5742 8.91309 13H13.5C13.7761 13 14 13.2239 14 13.5C14 13.7761 13.7761 14 13.5 14H8.91309C8.70703 14.5823 8.15293 15 7.5 15C6.84707 15 6.29297 14.5823 6.08691 14H2.5C2.22386 14 2 13.7761 2 13.5C2 13.2239 2.22386 13 2.5 13H6.08691C6.23758 12.5742 6.57419 12.2376 7 12.0869V11H4L3.7959 10.9893C2.78722 10.887 2 10.0357 2 9V3C2 1.89543 2.89543 1 4 1H6.58594ZM7.5 13C7.22386 13 7 13.2239 7 13.5C7 13.7761 7.22386 14 7.5 14C7.77614 14 8 13.7761 8 13.5C8 13.2239 7.77614 13 7.5 13ZM4 2C3.44772 2 3 2.44772 3 3V9C3 9.55228 3.44772 10 4 10H12C12.5523 10 13 9.55228 13 9V5C13 4.44772 12.5523 4 12 4H8.58594L6.58594 2H4Z" fill="#CED0D6"/>
</svg>
