<svg width="16" height="16" viewBox="0 0 16 16" fill="none" xmlns="http://www.w3.org/2000/svg">
<path d="M11 2C11.5523 2 12 2.44772 12 3V9H4V6H6C7.10457 6 8 5.10457 8 4V2H11Z" fill="#FFF4EB"/>
<path d="M7 4C7 4.06893 6.99277 4.13617 6.97949 4.20117C6.88625 4.65686 6.48325 5 6 5H4.41406L7 2.41406V4Z" fill="#FFF4EB"/>
<path fill-rule="evenodd" clip-rule="evenodd" d="M11 1C12.1046 1 13 1.89543 13 3V9H12V3C12 2.44772 11.5523 2 11 2H8V4C8 5.10457 7.10457 6 6 6H4V9H3V5.41406C3.00004 5.1489 3.10547 4.89453 3.29297 4.70703L6.70703 1.29297C6.89453 1.10547 7.1489 1.00004 7.41406 1H11ZM4.41406 5H6C6.55228 5 7 4.55228 7 4V2.41406L4.41406 5Z" fill="#E66D17"/>
<path d="M3.71387 10C4.01191 10.0714 4.265 10.1986 4.47266 10.3828C4.81156 10.678 4.98377 11.0772 4.98926 11.5801H3.96387C3.96384 11.3451 3.88734 11.1624 3.73438 11.0312C3.58134 10.8946 3.36564 10.8262 3.08691 10.8262C2.81908 10.8262 2.61146 10.8889 2.46387 11.0146C2.31627 11.1404 2.24219 11.3183 2.24219 11.5479C2.24227 11.7553 2.29708 11.9326 2.40625 12.0801C2.52105 12.2222 2.68524 12.3237 2.89844 12.3838L3.61133 12.5811C4.08693 12.7013 4.45068 12.9169 4.70215 13.2285C4.95357 13.5346 5.07909 13.9145 5.0791 14.3682C5.0791 14.7071 4.99701 15.0081 4.83301 15.2705C4.66902 15.5273 4.43959 15.7271 4.14453 15.8691C4.03283 15.9229 3.91371 15.9666 3.78711 16H2.40723C2.27614 15.9677 2.15212 15.9292 2.03711 15.877C1.73647 15.7403 1.50383 15.5464 1.33984 15.2949C1.18133 15.038 1.09922 14.737 1.09375 14.3926H2.11914C2.11914 14.6386 2.20692 14.8325 2.38184 14.9746C2.56223 15.1113 2.80521 15.1797 3.11133 15.1797C3.40652 15.1797 3.63581 15.1113 3.7998 14.9746C3.96927 14.8379 4.05469 14.6497 4.05469 14.4092C4.05468 14.207 3.99415 14.0323 3.87402 13.8848C3.75929 13.7318 3.59252 13.6279 3.37402 13.5732L2.68457 13.3838C2.21473 13.2635 1.85157 13.0478 1.59473 12.7363C1.34326 12.4247 1.2168 12.0473 1.2168 11.6045C1.21684 11.2657 1.29327 10.9701 1.44629 10.7188C1.59935 10.4673 1.81597 10.2734 2.09473 10.1367C2.2186 10.0772 2.35255 10.0336 2.49512 10H3.71387Z" fill="#6C707E"/>
<path d="M8.63086 10C8.92891 10.0714 9.18199 10.1986 9.38965 10.3828C9.72851 10.678 9.90076 11.0772 9.90625 11.5801H8.88086C8.88083 11.3452 8.80425 11.1624 8.65137 11.0312C8.49836 10.8946 8.28254 10.8262 8.00391 10.8262C7.73604 10.8262 7.52748 10.8889 7.37988 11.0146C7.23255 11.1404 7.15918 11.3185 7.15918 11.5479C7.15926 11.7554 7.21402 11.9326 7.32324 12.0801C7.43804 12.2222 7.60223 12.3237 7.81543 12.3838L8.52832 12.5811C9.00388 12.7013 9.36769 12.9169 9.61914 13.2285C9.87051 13.5346 9.99609 13.9145 9.99609 14.3682C9.99609 14.7071 9.914 15.0081 9.75 15.2705C9.58601 15.5273 9.35661 15.7271 9.06152 15.8691C8.94959 15.923 8.83009 15.9666 8.70312 16H7.32422C7.19316 15.9677 7.06916 15.9292 6.9541 15.877C6.65345 15.7403 6.42083 15.5464 6.25684 15.2949C6.0983 15.038 6.01621 14.737 6.01074 14.3926H7.03613C7.03613 14.6386 7.12389 14.8325 7.29883 14.9746C7.47922 15.1112 7.72225 15.1797 8.02832 15.1797C8.32344 15.1797 8.55283 15.1113 8.7168 14.9746C8.8862 14.8379 8.9707 14.6497 8.9707 14.4092C8.9707 14.2071 8.91109 14.0323 8.79102 13.8848C8.67631 13.7318 8.50942 13.6279 8.29102 13.5732L7.60156 13.3838C7.13156 13.2635 6.76762 13.0479 6.51074 12.7363C6.25941 12.4248 6.13379 12.0472 6.13379 11.6045C6.13384 11.2657 6.21026 10.9701 6.36328 10.7188C6.51634 10.4674 6.733 10.2733 7.01172 10.1367C7.1356 10.0772 7.26954 10.0336 7.41211 10H8.63086Z" fill="#6C707E"/>
<path d="M12.1172 12.417H13.7236V10.0137H14.749V16H13.7236V13.3682H12.1172V16H11.0918V10.0137H12.1172V12.417Z" fill="#6C707E"/>
</svg>
