<svg width="16" height="16" viewBox="0 0 16 16" fill="none" xmlns="http://www.w3.org/2000/svg">
<path d="M8 2C9.87134 2 11.4418 3.28487 11.8789 5.02051C13.6336 5.20947 15 6.69507 15 8.5C15 8.66979 14.9872 8.83667 14.9639 9H1.12598C1.04371 8.68038 1 8.3453 1 8C1 5.95377 2.53622 4.26623 4.51855 4.02832C5.20552 2.81782 6.50697 2 8 2Z" fill="#EDF3FF"/>
<path d="M8 2C9.87134 2 11.4418 3.28487 11.8789 5.02051C13.6336 5.20947 15 6.69507 15 8.5C15 8.66979 14.9872 8.83667 14.9639 9H13.9502C13.983 8.83846 14 8.67122 14 8.5C14 7.21142 13.0238 6.14951 11.7715 6.01465L11.0791 5.94043L10.9092 5.26465C10.5812 3.96257 9.4021 3 8 3C6.88153 3 5.90535 3.61193 5.38867 4.52246L5.13965 4.96094L4.6377 5.02148C3.15187 5.19984 2 6.46611 2 8C2 8.351 2.06306 8.68694 2.17383 9H1.12598C1.04371 8.68038 1 8.3453 1 8C1 5.95377 2.53622 4.26623 4.51855 4.02832C5.20552 2.81782 6.50697 2 8 2Z" fill="#3574F0"/>
<path fill-rule="evenodd" clip-rule="evenodd" d="M3.01758 10.0137C3.42206 10.0137 3.77221 10.0901 4.06738 10.2432C4.36805 10.3962 4.60065 10.6128 4.76465 10.8916C4.92854 11.1703 5.01074 11.5013 5.01074 11.8838V14.1221C5.01074 14.4991 4.92854 14.8301 4.76465 15.1143C4.60066 15.393 4.36802 15.612 4.06738 15.7705C3.77218 15.9236 3.42211 16 3.01758 16H1.23828V10.0137H3.01758ZM2.26367 15.0566H3.01758C3.31257 15.0566 3.54776 14.9753 3.72266 14.8115C3.89759 14.6421 3.98535 14.4118 3.98535 14.1221V11.8838C3.98535 11.5995 3.89759 11.3749 3.72266 11.2109C3.54775 11.0416 3.31263 10.957 3.01758 10.957H2.26367V15.0566Z" fill="#6C707E"/>
<path fill-rule="evenodd" clip-rule="evenodd" d="M10.1738 16H9.125L8.79688 14.5488H7.20605L6.87793 16H5.82812L7.33691 10.0137H8.65723L10.1738 16ZM7.91113 11.3838C7.87288 11.5969 7.82044 11.8344 7.75488 12.0967L7.39453 13.7119H8.6084L8.24707 12.1055C8.18698 11.8378 8.13551 11.5969 8.0918 11.3838C8.04811 11.1654 8.01739 11.0066 8.00098 10.9082C7.98456 11.0066 7.95481 11.1654 7.91113 11.3838Z" fill="#6C707E"/>
<path d="M12.7139 13.917C12.7631 14.1083 12.8098 14.3136 12.8535 14.5322C12.8972 14.7509 12.9303 14.9288 12.9521 15.0654C12.974 14.9288 13.0037 14.7509 13.042 14.5322C13.0802 14.3136 13.1213 14.1059 13.165 13.9092L14.0586 10.0137H15.0918L13.583 16H12.2549L10.7461 10.0137H11.8125L12.7139 13.917Z" fill="#6C707E"/>
</svg>
