<?xml version="1.0" encoding="utf-8"?>
<!-- Generator: Adobe Illustrator 25.3.1, SVG Export Plug-In . SVG Version: 6.00 Build 0)  -->
<svg version="1.1" id="Layer_1" xmlns="http://www.w3.org/2000/svg" x="0px" y="0px"
     viewBox="0 0 16 16" style="enable-background:new 0 0 16 16;" xml:space="preserve">
<style type="text/css">
	.st0{fill:#AFB1B3;}
</style>
  <g id="Слой_2">
	<g>
		<g>
			<g id="Слой_1-2_8_">
				<path class="st0" d="M9.7,13.7H7.9c0.6,0.5,0.7,1.2,1,2c0,0.1,0.2,0.3,0.5,0.3h0.4c0.1,0,0.2-0.1,0.2-0.2v-0.1L9.7,13.7z"/>
        <path class="st0" d="M3.7,7.1c-1.6-1-1.8-2.4-1.6-3.6c0,0,0,0,0-0.1c-0.1,0-0.2,0-0.3,0.1C1.2,4.9,1.1,6.6,2.9,8
					C3,7.6,3.3,7.3,3.7,7.1z"/>
        <path class="st0" d="M11.1,13.7h-0.7l0.3,2.3h0.4c0.1,0,0.2-0.1,0.2-0.2l0,0v-0.1L11.1,13.7z"/>
        <path class="st0" d="M3.5,13.7l-0.5,2c0,0.1,0,0.2,0.1,0.3l0,0h0.1h0.7c0.2,0,0.4-0.2,0.5-0.4c0.2-0.8,0.4-1.5,1-2L3.5,13.7z"/>
        <path class="st0" d="M5,15.6C4.9,15.8,4.8,16,4.5,16h0.9c0.2,0,0.4-0.2,0.4-0.4c0.2-0.8,0.4-1.5,1-2H6C5.4,14.2,5.2,14.9,5,15.6
					z"/>
        <path class="st0" d="M11.4,7.9c-0.1-0.1-0.2-0.1-0.3-0.1C11,7.9,11,7.9,11,8l0,0c0,0,0.4,0.7,0.4,2.3S11,12.5,11,12.5
					c0,0.1,0,0.1,0.1,0.2c0.1,0,0.2,0,0.3-0.1c0,0,0.4-0.7,0.4-2.3S11.4,8,11.4,7.9z"/>
        <path class="st0" d="M10.7,7.5c0.1-0.1,0.2-0.1,0.3-0.1H9H8.9c-0.6,0.2-1,1.3-1,2.7l0,0l0,0v0.3l0,0l0,0c0,1.3,0.5,2.4,1,2.7H9
					h2c-0.1,0-0.2,0-0.3-0.1c-0.3-0.2-0.5-0.6-0.6-1.1l0,0c-0.3-1.1-0.3-2.3,0-3.5l0,0C10.2,8.1,10.4,7.7,10.7,7.5z M9.4,8.7H8.7
					c-0.1,0-0.2-0.1-0.2-0.2s0.1-0.2,0.2-0.2h0.7c0.1,0,0.2,0.1,0.2,0.2S9.5,8.7,9.4,8.7z"/>
        <path class="st0" d="M7.6,12L7.6,12c-0.3-1.1-0.3-2.3,0-3.5l0,0C7.7,8,7.9,7.6,8.2,7.4c0.1-0.1,0.2-0.1,0.3-0.1h-2H6.4
					c-0.6,0.2-1,1.3-1,2.7l0,0l0,0v0.3l0,0l0,0c0,1.3,0.5,2.4,1,2.7h0.1h2c-0.1,0-0.2,0-0.3-0.1C7.9,12.9,7.7,12.5,7.6,12z M6.9,8.7
					H6.2C6.1,8.7,6,8.6,6,8.5s0.1-0.2,0.2-0.2h0.7c0.1,0,0.2,0.1,0.2,0.2S7,8.7,6.9,8.7z"/>
        <path class="st0" d="M5.1,12L5.1,12c-0.3-1.1-0.3-2.3,0-3.5l0,0C5.2,8,5.4,7.6,5.7,7.4c0.1,0,0.2,0,0.3,0H4H3.9
					c-0.6,0.2-1,1.3-1,2.7l0,0l0,0v0.3l0,0l0,0c0,1.3,0.5,2.4,1,2.7H4h2c-0.1,0-0.2,0-0.3-0.1C5.4,12.9,5.2,12.5,5.1,12z M4.4,8.7
					H3.8c-0.1,0-0.2-0.1-0.2-0.2s0.1-0.2,0.2-0.2h0.7c0.1,0,0.2,0.1,0.2,0.2S4.6,8.7,4.4,8.7z"/>
        <path class="st0" d="M14.6,3.6c0-0.6-0.5-1-1.1-1.1c-0.3-0.1-1.7-0.6-2.8-0.7c-0.4,0-1.4-0.1-2.2,0.2l0,0C8.3,2,8.2,2.1,8.2,2.1
					C7.4,1.7,6.8,1.2,6.3,0.6c0-0.1-0.1-0.1-0.2,0v0.1v0.4c0,1,0.2,2,0.7,3v0.2C6.8,5,7,5.7,7.6,6.2l0,0C8,6.6,8.7,6.9,9.4,6.9h1.9
					c0.7,0,1.4-0.3,1.9-0.7c0.3-0.3,0.6-0.6,0.8-1s0.4-0.8,0.4-1.2C14.6,3.9,14.6,3.8,14.6,3.6L14.6,3.6L14.6,3.6z M13.8,4.2
					c0,0-0.1,0.1-0.2,0.1h-0.1c-0.3,0-0.5-0.1-0.7-0.2c-0.1-0.1-0.2-0.2-0.1-0.3l0,0c0.3-0.4,0.7-0.6,1.2-0.6c0.1,0,0.2,0.1,0.2,0.2
					l0,0l0,0C14.1,3.7,14,4,13.8,4.2z"/>
        <path class="st0" d="M8.9,0.1C8.9,0,8.8,0,8.8,0l0,0c0,0-0.1,0-0.1,0.1C8.6,0.6,8.5,1,8.4,1.5c0.4-0.1,0.9-0.2,1.4-0.2
					C9.5,0.9,9.2,0.5,8.9,0.1z"/>
			</g>
		</g>
	</g>
</g>
</svg>
