<svg width="16" height="16" viewBox="0 0 16 16" fill="none" xmlns="http://www.w3.org/2000/svg">
  <path fill-rule="evenodd" clip-rule="evenodd"
        d="M2 5V13C2 13.5523 2.44772 14 3 14H5.19441C5.57697 14.3579 6.01115 14.7016 6.49817 15H3C1.89543 15 1 14.1046 1 13V3C1 1.89543 1.89543 1 3 1H13C14.1046 1 15 1.89543 15 3V8.19192C14.7014 7.89557 14.3683 7.60515 14 7.33769V5H2ZM4.5 3.00134C4.5 3.41555 4.16421 3.75134 3.75 3.75134C3.33579 3.75134 3 3.41555 3 3.00134C3 2.58712 3.33579 2.25134 3.75 2.25134C4.16421 2.25134 4.5 2.58712 4.5 3.00134ZM6.25 3.75134C6.66421 3.75134 7 3.41555 7 3.00134C7 2.58712 6.66421 2.25134 6.25 2.25134C5.83579 2.25134 5.5 2.58712 5.5 3.00134C5.5 3.41555 5.83579 3.75134 6.25 3.75134ZM9.50209 3.00134C9.50209 3.41555 9.1663 3.75134 8.75209 3.75134C8.33788 3.75134 8.00209 3.41555 8.00209 3.00134C8.00209 2.58712 8.33788 2.25134 8.75209 2.25134C9.1663 2.25134 9.50209 2.58712 9.50209 3.00134Z"
        fill="#AFB1B3"/>
  <path fill-rule="evenodd" clip-rule="evenodd"
        d="M9.99999 8C12.7958 8 14.321 10.0529 14.8724 11C14.321 11.9471 12.7958 14 9.99999 14C7.20418 14 5.67902 11.9471 5.1276 11C5.67902 10.0529 7.20418 8 9.99999 8ZM15.9069 10.8075C15.9698 10.93 15.9698 11.07 15.9069 11.1925C15.4972 11.991 13.7071 15 9.99999 15C6.29291 15 4.50279 11.991 4.09305 11.1925C4.03018 11.07 4.03018 10.93 4.09305 10.8075C4.50279 10.009 6.29291 7 9.99999 7C13.7071 7 15.4972 10.009 15.9069 10.8075ZM9.99999 13C11.1046 13 12 12.1046 12 11C12 9.89543 11.1046 9 9.99999 9C8.89542 9 7.99999 9.89543 7.99999 11C7.99999 12.1046 8.89542 13 9.99999 13Z"
        fill="#F68E1E"/>
</svg>
