<svg width="16" height="16" viewBox="0 0 16 16" xmlns="http://www.w3.org/2000/svg">
  <path fill="#9aa7b0" d="M13.25 6.75H13V4c0-.55-.45-1-1-1H9.25v-.25a1.25 1.25 0 0 0-2.5 0V3H4c-.55 0-1 .45-1 1v2.75h.25a1.25 1.25 0 0 1 0 2.5H3V12c0 .55.45 1 1 1h2.75v-.25a1.25 1.25 0 0 1 2.5 0V13H12c.55 0 1-.45 1-1V9.25h.25a1.25 1.25 0 0 0 0-2.5ZM8 10.3c-.44 0-.8-.36-.8-.8s.36-.8.8-.8.8.36.8.8-.36.8-.8.8Zm.59-2.2H7.27c0-1.01.94-1.16.94-1.74 0-.18-.24-.36-.36-.36-.34 0-.45.05-.97.53l-.68-.92c.57-.57 1.18-.79 1.63-.81.98-.05 1.77.22 1.77 1.45 0 1.15-1.02 1.2-1.02 1.85Z" opacity=".8"/>
</svg>
