<svg width="16" height="16" viewBox="0 0 16 16" xmlns="http://www.w3.org/2000/svg">
  <path fill="#43454A" d="M7.5 11h.839A3.514 3.514 0 0 1 11.5 9h.619a5.473 5.473 0 0 0 .381-2 5.5 5.5 0 1 0-11 0 5.497 5.497 0 0 0 4.51 5.406A1.496 1.496 0 0 1 7.5 11Z"/>
  <path fill="none" stroke="#CED0D6" stroke-linecap="round" stroke-linejoin="round" d="M12.29 8.5A5.495 5.495 0 0 0 7 1.5a5.499 5.499 0 0 0-1.479 10.793"/>
  <path fill="none" stroke="#CED0D6" stroke-linecap="round" stroke-linejoin="round" d="M9.296 9.177C9.427 8.509 9.5 7.774 9.5 7c0-3.038-1.119-5.5-2.5-5.5S4.5 3.962 4.5 7c0 1.975.475 3.701 1.185 4.671M1.708 5.5h10.584m-10.584 3H12.29"/>
  <path fill="#25324D" stroke="#548AF7" stroke-linecap="round" stroke-linejoin="round" d="M9.5 13.5a2 2 0 0 0 2 2h2v-5h-2a2 2 0 0 0-2 2v1Z"/>
  <path fill="#25324D" d="M9.5 13.5h-2v-1h2"/>
  <path fill="none" stroke="#548AF7" stroke-linecap="round" stroke-linejoin="round" d="M9.5 13.5h-2v-1h2m4-1h2m-2 3h2"/>
</svg>
