<svg width="16" height="16" viewBox="0 0 16 16" xmlns="http://www.w3.org/2000/svg">
    <path fill="#9aa7b0" d="M5 11h.971c-.32-.475-.597-1.157-.772-2h3.603c-.021.104-.052.192-.076.291a2.977 2.977 0 0 1 1.095-.277L9.825 9h2.811c.037-.103.087-.203.118-.308.158-.536.247-1.105.247-1.692s-.089-1.156-.247-1.692C12.022 2.823 9.72 1 7.001 1S1.979 2.823 1.247 5.308C1.089 5.844 1 6.413 1 7s.089 1.156.247 1.692A6.027 6.027 0 0 0 5 12.652V11Zm6.379-5c.074.323.121.655.121 1s-.047.677-.121 1H9.955c.027-.324.045-.656.045-1s-.017-.676-.045-1h1.424Zm-.369-1H9.823a7.734 7.734 0 0 0-.574-1.874A4.5 4.5 0 0 1 11.009 5ZM6.33 2.568c.22-.033.44-.068.67-.068s.449.034.67.068c.469.431.894 1.286 1.132 2.432H5.199c.238-1.147.663-2.002 1.132-2.432ZM5.046 6h3.906a10.681 10.681 0 0 1 0 2H5.046a10.681 10.681 0 0 1 0-2Zm-.297-2.874A7.778 7.778 0 0 0 4.175 5H2.988a4.505 4.505 0 0 1 1.76-1.874ZM2.62 8c-.074-.323-.121-.655-.121-1s.047-.677.121-1h1.424c-.027.324-.045.656-.045 1s.017.676.045 1H2.62Zm.369 1h1.187c.128.705.324 1.337.574 1.874A4.5 4.5 0 0 1 2.99 9Z"/>
    <path fill="#40b6e0" d="M10 10a2 2 0 0 0-2 2H6v2h2a2 2 0 0 0 2 2h3v-6h-3Zm6 2h-2v-1h2v1Zm0 3h-2v-1h2v1Z"/>
</svg>
