<!-- Copyright © 2000–2024 JetBrains s.r.o. -->
<svg width="16" height="16" viewBox="0 0 16 16" xmlns="http://www.w3.org/2000/svg">
  <defs>
    <linearGradient id="a" x1="4431.08" x2="4417.72" y1="-4114.9" y2="-4121.1" gradientTransform="matrix(1 0 0 -1 -4417 -4115)" gradientUnits="userSpaceOnUse">
      <stop offset=".18" stop-color="#6b57ff"/>
      <stop offset=".54" stop-color="#ff45ed"/>
    </linearGradient>
    <linearGradient id="b" x1="4418.01" x2="4432.67" y1="-4116.08" y2="-4130.73" gradientTransform="matrix(1 0 0 -1 -4417 -4115)" gradientUnits="userSpaceOnUse">
      <stop offset=".12" stop-color="#ff45ed"/>
      <stop offset=".92" stop-color="#fc801d"/>
    </linearGradient>
  </defs>
  <path fill="#6b57ff" d="M14.5 4.11V1.05c0-.58-.47-1.05-1.05-1.03l-2.76.04c-.3 0-.57.14-.77.36L1.75 9.96c-.16.19-.25.43-.25.67v2.83c0 .57.46 1.03 1.03 1.03h2.75c.3 0 .58-.13.78-.35l8.18-9.35c.17-.19.26-.43.26-.68"/>
  <path fill="url(#a)" d="M14.5 3.75V1.03C14.5.46 14.04 0 13.47 0h-3.14c-.05 0-.1 0-.15.01L.88 1.37C.37 1.45 0 1.88 0 2.39v3.85c0 .57.46 1.03 1.03 1.03h4.62c.11 0 .21-.02.31-.05l7.81-2.49c.43-.14.72-.54.72-.98Z"/>
  <path fill="url(#b)" d="M16 14.97V6.44c0-.42-.25-.79-.63-.95L6.02 1.54c-.13-.05-.27-.06-.41-.06H1.02C.46 1.48 0 1.96 0 2.53v4.42c0 .2.06.4.17.57l5.28 8.03c.19.29.51.46.86.46h8.66c.57 0 1.03-.46 1.03-1.03Z"/>
  <path d="M13 3H3v10h10z"/>
  <path fill="#fff" d="M8 11H4v1h4zm2.93-4.5h.97l-.03.13c-.06.28-.18.54-.35.75-.18.21-.42.38-.69.51a2.3 2.3 0 0 1-.88.17c-.38 0-.73-.09-1.04-.26s-.56-.44-.73-.75C8 6.74 7.92 6.38 7.92 6a2.04 2.04 0 0 1 .99-1.79c.31-.18.66-.27 1.04-.27.32 0 .62.06.88.18.27.12.51.29.69.51.17.21.29.47.35.75l.03.12h-.97l-.02-.06a1 1 0 0 0-.21-.33 1.1 1.1 0 0 0-.32-.21c-.13-.05-.27-.07-.43-.07-.2 0-.38.05-.55.15s-.31.24-.39.42c-.1.19-.14.39-.14.62s.05.44.14.62.22.32.39.43c.16.1.34.15.55.15.16 0 .29-.02.43-.07a.8.8 0 0 0 .32-.22c.09-.09.16-.2.21-.32l.02-.07ZM7.27 4.97c-.17-.3-.41-.55-.71-.72C6.27 4.08 5.92 4 5.54 4H4v4h1.54c.38 0 .73-.09 1.02-.25.3-.17.54-.42.71-.72s.25-.65.25-1.03-.08-.72-.25-1.02ZM5.54 7.16h-.6V4.84h.6c.2 0 .38.05.54.14s.27.21.35.38c.09.18.13.38.13.63s-.04.45-.13.63-.19.3-.35.39c-.15.09-.33.14-.54.14Z"/>
</svg>
