<!-- Copyright © 2000–2024 JetBrains s.r.o. -->
<svg width="16" height="16" viewBox="0 0 16 16" xmlns="http://www.w3.org/2000/svg">
  <path fill="#6e6e6e" fill-rule="evenodd" d="M15 8.81V7.19l-2.25-.8-.25-.6 1.02-2.15-1.15-1.15-2.16 1.02-.6-.25-.8-2.25H7.19l-.8 2.25-.61.25-2.16-1.02-1.15 1.15 1.02 2.15-.25.6-2.25.8v1.62l2.25.8.25.6-1.02 2.16 1.15 1.15 2.16-1.02.61.25.8 2.25h1.62l.8-2.25.6-.25 2.16 1.02 1.15-1.15-1.02-2.16.25-.6zM8 11c-1.66 0-3-1.34-3-3s1.34-3 3-3 3 1.34 3 3-1.34 3-3 3"/>
  <path fill="#6e6e6e" fill-rule="evenodd" d="M9.5 8c0 .83-.67 1.5-1.5 1.5S6.5 8.83 6.5 8 7.17 6.5 8 6.5s1.5.67 1.5 1.5"/>
</svg>
