<!-- Copyright © 2000–2024 JetBrains s.r.o. -->
<svg width="16" height="16" viewBox="0 0 16 16" xmlns="http://www.w3.org/2000/svg">
  <defs>
    <linearGradient id="a" x1="4418.08" x2="4432.73" y1="-3749.99" y2="-3735.33" gradientTransform="matrix(1 0 0 -1 -4417 -3735)" gradientUnits="userSpaceOnUse">
      <stop offset=".29" stop-color="#ff45ed"/>
      <stop offset=".7" stop-color="#ff0a67"/>
    </linearGradient>
    <linearGradient id="b" x1="4416.9" x2="4423.1" y1="-3736.92" y2="-3750.28" gradientTransform="matrix(1 0 0 -1 -4417 -3735)" gradientUnits="userSpaceOnUse">
      <stop offset=".3" stop-color="#fdb60d"/>
      <stop offset=".54" stop-color="#ff45ed"/>
    </linearGradient>
  </defs>
  <path fill="url(#a)" d="M14.97 0H6.44c-.42 0-.79.25-.95.63L1.54 9.98c-.05.13-.06.27-.06.41v4.58c0 .57.48 1.02 1.05 1.02h4.42c.2 0 .4-.06.56-.17l8.03-5.28c.29-.19.46-.52.46-.86V1.03C16 .46 15.54 0 14.97 0"/>
  <path fill="url(#b)" d="M3.75 1.5H1.03C.46 1.5 0 1.96 0 2.53v3.14s0 .1.01.15l1.36 9.29c.07.51.51.88 1.02.88h3.85c.57 0 1.03-.46 1.03-1.03v-4.62c0-.11-.02-.21-.05-.31L4.73 2.22c-.14-.43-.54-.72-.98-.72"/>
  <path fill="#fdb60d" d="M4.11 1.5H1.05C.47 1.5 0 1.97 0 2.55v2.7c0 .29.19.63.41.83l9.54 8.18c.19.16.43.25.67.25h2.84c.57 0 1.03-.46 1.03-1.03v-2.75c0-.3-.13-.58-.35-.78L4.79 1.76c-.19-.16-.43-.26-.68-.26"/>
  <path d="M13 3H3v10h10z"/>
  <path fill="#fff" d="M8 11H4v1h4zm1.93-4.55.15-.88h-.83l-.15.88m-.89.68h-.43v-.72h.58l.14-.87h-.48v-.72h.63L8.79 4h.77l-.14.82h.82l.14-.82h.77l-.14.82h.43v.72h-.58l-.14.87h.48v.72h-.63l-.14.87h-.77l.14-.87h-.82L8.84 8h-.77M5.81 5.96c.2 0 .39-.05.49-.15s.2-.25.2-.44-.05-.34-.2-.44-.29-.15-.54-.15h-.88v1.18M4 4h1.88c.49 0 .94.15 1.19.4s.35.54.35.94c0 .35-.1.59-.25.79s-.4.35-.64.44L7.52 8H6.48l-.84-1.23H4.9V8h-.89V4Z"/>
</svg>
