<?xml version="1.0" encoding="UTF-8"?>
<svg id="Layer_1" data-name="Layer 1" xmlns="http://www.w3.org/2000/svg" width="16" height="16" viewBox="0 0 16 16">
  <circle cx="8" cy="8" r="8"/>
  <circle cx="8" cy="8" r="7.5" fill="#fff"/>
  <path d="M13.107,9.18c-.356,1.492-1.379,2.737-2.774,3.376l-.8-.9-1.463,1.361c-1.567-.021-3.033-.774-3.964-2.034,.144,.047,.293,.075,.444,.084,.222,.01,.45-.078,.45-.451v-3.685c.017-.331-.237-.613-.568-.631-.002,0-.005,0-.007,0-.625-.017-1.116,1.151-1.306,1.737-.014-1.466,.618-2.864,1.727-3.823,.721-.624,1.604-1.031,2.547-1.175-.602,.301-1.007,.891-1.072,1.561,0,.862,.525,.757,.679,.631v4.972c.113,.288,.391,.478,.7,.479,.474-.091,.919-.294,1.3-.59V6.067c-.03-.437-.263-.834-.629-1.074,.356-.052,.718,.033,1.014,.237,.782-.928,1.874-1.542,3.073-1.73-.828,.669-1.353,1.641-1.458,2.7v3.963c.545,.528,1.374-.232,2.107-.983Z" fill-rule="evenodd"/>
</svg>