<svg width="40" height="40" viewBox="0 0 40 40" fill="none" xmlns="http://www.w3.org/2000/svg">
<path fill-rule="evenodd" clip-rule="evenodd" d="M29.248 32.8721C27.5188 32.0222 26.1113 30.6352 25.2362 28.9186C23.676 30.3306 21.9494 31.5471 20.0946 32.5411C16.793 34.2589 15.4285 34.0996 10 36C9.33362 36.2332 7 37 7 37H10C10 37 19.0444 37.0191 22 37C24.4597 37.0199 26.9067 36.6458 29.248 35.8917V32.8721Z" fill="#6CC149"/>
<path fill-rule="evenodd" clip-rule="evenodd" d="M24.3391 26.2042C24.2712 25.7667 24.2365 25.3246 24.2354 24.8818C24.2387 22.656 25.0769 20.5125 26.5844 18.8749C28.0918 17.2372 30.1588 16.2248 32.3767 16.0375C33.0567 14.7518 33.6007 13.3986 34 12C33.9896 13.3553 33.8167 14.7045 33.4849 16.0186C35.5051 16.0998 37.4363 16.8715 38.9561 18.205C38.6625 12.6998 37.6691 7.25432 36 2C32.6027 6.96924 26.2286 10.6714 21 12C16.2657 13.1442 13.4665 13.2668 9.0849 14.9733C6.77747 15.7736 4.76821 17.2572 3.32409 19.2267C1.87997 21.1963 1.06937 23.5587 1 26C1.05655 27.5418 1.44283 29.0536 2.13282 30.4336C2.8228 31.8136 3.80048 33.0297 5 34C9.33658 33.3318 13.5804 32.1601 17.6455 30.5085C20.1141 29.4817 22.3806 28.0243 24.3391 26.2042V26.2042Z" fill="#6CC149"/>
<path fill-rule="evenodd" clip-rule="evenodd" d="M34.9869 31.5008C36.5863 31.0494 37.9684 30.0346 38.8779 28.6437C39.7874 27.2528 40.1629 25.5798 39.9351 23.9336C39.7072 22.2875 38.8914 20.7793 37.6384 19.6877C36.3853 18.5961 34.7796 17.9948 33.1177 17.9948C31.4558 17.9948 29.8501 18.5961 28.597 19.6877C27.344 20.7793 26.5282 22.2875 26.3003 23.9336C26.0725 25.5798 26.448 27.2528 27.3575 28.6437C28.267 30.0346 29.6491 31.0494 31.2485 31.5008V40H34.9869V37.7568H38.7255V34.3921H34.9869V31.5008ZM29.8212 24.8822C29.8212 24.2303 30.0146 23.5929 30.3768 23.0508C30.739 22.5087 31.2539 22.0862 31.8562 21.8367C32.4586 21.5872 33.1214 21.5219 33.7609 21.6491C34.4003 21.7763 34.9877 22.0903 35.4487 22.5513C35.9097 23.0124 36.2237 23.5998 36.3509 24.2392C36.4781 24.8787 36.4128 25.5415 36.1633 26.1438C35.9138 26.7462 35.4913 27.261 34.9491 27.6233C34.407 27.9855 33.7697 28.1788 33.1177 28.1788C32.6848 28.1788 32.2561 28.0935 31.8562 27.9279C31.4562 27.7622 31.0928 27.5194 30.7867 27.2133C30.4806 26.9072 30.2378 26.5437 30.0721 26.1438C29.9064 25.7438 29.8212 25.3152 29.8212 24.8822V24.8822Z" fill="#8F989D"/>
</svg>
