<svg xmlns="http://www.w3.org/2000/svg" width="20" height="20" viewBox="0 0 20 20" fill="none">
    <path d="M17.1412 19.2008H7.73084C7.15538 19.2008 6.60348 18.9723 6.19655 18.5653C5.78964 18.1584 5.56104 17.6065 5.56104 17.0311V14.7041C5.6293 14.1524 5.87986 13.6393 6.27295 13.2462C6.66604 12.8531 7.17914 12.6024 7.73084 12.5342H17.1412C17.7167 12.5342 18.2686 12.7628 18.6755 13.1698C19.0824 13.5767 19.311 14.1286 19.311 14.7041V17.0311C19.311 17.6065 19.0824 18.1584 18.6755 18.5653C18.2686 18.9723 17.7167 19.2008 17.1412 19.2008Z" fill="#FDB60D"/>
    <path d="M8.32228 14.3654H10.6823V14.9779H9.00617V15.6126H10.4812V16.2249H9.00617V16.8819H10.7048V17.4943H8.32227L8.32228 14.3654Z" fill="black"/>
    <path d="M12.3901 14.3433H13.0247L14.3657 17.4943H13.6461L13.36 16.7927H12.0371L11.751 17.4943H11.0493L12.3901 14.3433ZM13.1144 16.1848L12.6986 15.1701L12.283 16.1848H13.1144Z" fill="black"/>
    <path d="M14.8481 14.3655H16.1265C16.2783 14.3475 16.4322 14.3622 16.5779 14.4085C16.7236 14.4549 16.8576 14.5317 16.9711 14.6342C17.0845 14.7367 17.1747 14.8622 17.2356 15.0025C17.2966 15.1427 17.3268 15.2942 17.3243 15.4471V15.4562C17.3231 15.6147 17.2881 15.7709 17.2218 15.9148C17.1555 16.0587 17.0594 16.1871 16.9398 16.291C16.8202 16.395 16.6799 16.4724 16.5281 16.5181C16.3764 16.5637 16.2167 16.5766 16.0596 16.5558H15.5366V17.4943H14.8481V14.3655ZM16.0817 15.9433C16.1494 15.9519 16.2181 15.9462 16.2833 15.9263C16.3486 15.9066 16.4089 15.8731 16.4604 15.8284C16.5119 15.7837 16.5533 15.7286 16.5821 15.6667C16.6108 15.6049 16.6261 15.5377 16.6271 15.4695V15.4606C16.6271 15.1523 16.4126 14.9867 16.0683 14.9867H15.5366V15.9433H16.0817Z" fill="black"/>
</svg>