<svg width="70" height="70" viewBox="0 0 70 70" fill="none" xmlns="http://www.w3.org/2000/svg">
<path d="M67.2001 27.8998L22.1001 2.7998L52.3001 47.6998L58.5001 43.5998L67.2001 27.8998Z" fill="url(#paint0_linear)"/>
<path d="M67.2001 27.8999L54.3001 28.5999L52.2001 47.4999L58.5001 43.5999L67.2001 27.8999Z" fill="url(#paint1_linear)"/>
<path d="M43.5 3.7998L31 16.0998L36.1 60.7998L48.3 67.1998L67.2 56.0998L43.5 3.7998Z" fill="url(#paint2_linear)"/>
<path d="M47.6 16.9998L36.4 10.7998L31 16.0998L39.8 29.1998L51.2 28.5998L47.6 16.9998Z" fill="url(#paint3_linear)"/>
<path d="M36.1 60.7998L58 50.5998L67.2 56.0998L58 50.5998L43.5 3.7998L31 16.0998L36.1 60.7998Z" fill="url(#paint4_linear)"/>
<path d="M51.2001 28.5996L32.6001 29.4996L33.0001 33.6996L52.2001 47.4996L56.3001 44.9996L51.2001 28.5996Z" fill="url(#paint5_linear)"/>
<path d="M43.5 3.7998L58 50.5998L67.2 56.0998L43.5 3.7998Z" fill="url(#paint6_linear)"/>
<path d="M56.3 44.9996L58.5 43.5996L60.2 40.5996L54.7 28.5996H54.3L53.5 35.9996L56.3 44.9996Z" fill="url(#paint7_linear)"/>
<path d="M58.0001 50.5996L36.1001 60.7996L48.3001 67.1996L67.2001 56.0996L58.0001 50.5996Z" fill="url(#paint8_linear)"/>
<path d="M36.1001 60.8L48.3001 67.2L44.5001 57L36.1001 60.8Z" fill="url(#paint9_linear)"/>
<path d="M22.1 2.7998L2.80005 15.7998L10 59.9998L28.4 67.0998L52.3 47.6998L22.1 2.7998Z" fill="url(#paint10_linear)"/>
<path d="M22.1 2.7998L2.80005 15.7998L15.9 17.5998L22.1 2.7998Z" fill="url(#paint11_linear)"/>
<path d="M22.1 2.7998L2.80005 15.7998L15.9 17.5998L22.1 2.7998Z" fill="url(#paint12_linear)"/>
<path d="M20.5 29.5998L2.80005 15.7998L15.9 17.5998L20.5 29.5998Z" fill="url(#paint13_linear)"/>
<path d="M27.6 48.4997L10 59.9997L28.4 67.0997L52.3 47.6997L27.6 48.4997Z" fill="url(#paint14_linear)"/>
<path d="M27.6 48.4998L15.9 17.5998L22.1 2.7998L52.3 47.6998L27.6 48.4998Z" fill="url(#paint15_linear)"/>
<path d="M22.4001 26.9998L22.1001 2.7998L30.9001 16.0998L22.4001 26.9998Z" fill="url(#paint16_linear)"/>
<path d="M36.1001 60.7996L52.3001 47.6996L31.0001 16.0996L9.6001 37.6996L36.1001 60.7996Z" fill="url(#paint17_linear)"/>
<path d="M24.5 50.6997L10 59.9997L28.4 67.0997L36.1 60.7997L24.5 50.6997Z" fill="url(#paint18_linear)"/>
<path d="M55 15H15V55H55V15Z" fill="url(#paint19_linear)"/>
<g opacity="0.3">
<path opacity="0.3" d="M52.2001 47.6L55 45.7V21.2L43.9 15H30.3L52.2001 47.6Z" fill="url(#paint20_linear)"/>
<path opacity="0.3" d="M15 55H43L52.2 47.6L30.3 15H15V55Z" fill="url(#paint21_linear)"/>
<path opacity="0.3" d="M24.6 50.5L17.6 55H29.7L24.6 50.5Z" fill="url(#paint22_linear)"/>
<path opacity="0.3" d="M15 42.1L29.7 55H55V29.4L48.5 15H32.2L31 16.2L15 32.3V42.1Z" fill="url(#paint23_linear)"/>
<path opacity="0.3" d="M46.9 15L55 41.2V29.4L48.5 15H46.9Z" fill="url(#paint24_linear)"/>
</g>
<path d="M35 47.3999H20V49.8999H35V47.3999Z" fill="white"/>
<path d="M35 47.3999H20V49.8999H35V47.3999Z" fill="white"/>
<path d="M20 19.8999H26.9C28.8 19.8999 30.3 20.3999 31.3 21.3999C32.1 22.1999 32.6 23.3999 32.6 24.7999C32.6 27.1999 31.3 28.7999 29.4 29.4999L33 34.9999H29.1L25.9 30.1999H23.3V34.9999H20V19.8999ZM26.6 27.2999C28.2 27.2999 29.1 26.3999 29.1 25.1999C29.1 23.7999 28.1 23.0999 26.5 23.0999H23.3V27.2999H26.6Z" fill="white"/>
<path d="M35.3 19.8999H41.2001C45.9001 19.8999 49.2001 23.0999 49.2001 27.3999C49.2001 31.5999 45.9001 34.8999 41.2001 34.8999H35.3V19.8999V19.8999ZM38.6 22.8999V31.9999H41.2001C43.9001 31.9999 45.7001 30.1999 45.7001 27.4999C45.7001 24.7999 43.9001 22.9999 41.2001 22.9999H38.6V22.8999Z" fill="white"/>
<defs>
<linearGradient id="paint0_linear" x1="63.0599" y1="39.6928" x2="13.4188" y2="11.2056" gradientUnits="userSpaceOnUse">
<stop stop-color="#DD1265"/>
<stop offset="0.4834" stop-color="#DD1265"/>
<stop offset="0.9424" stop-color="#FDB60D"/>
</linearGradient>
<linearGradient id="paint1_linear" x1="61.7303" y1="38.8633" x2="51.1076" y2="32.7673" gradientUnits="userSpaceOnUse">
<stop stop-color="#DD1265"/>
<stop offset="0.9424" stop-color="#A7004D"/>
</linearGradient>
<linearGradient id="paint2_linear" x1="33.5424" y1="8.4231" x2="53.2202" y2="62.7606" gradientUnits="userSpaceOnUse">
<stop offset="0.1392" stop-color="#087CFA"/>
<stop offset="0.4757" stop-color="#DD1265"/>
<stop offset="0.9581" stop-color="#0855FA"/>
</linearGradient>
<linearGradient id="paint3_linear" x1="49.5286" y1="11.6048" x2="42.6751" y2="20.3773" gradientUnits="userSpaceOnUse">
<stop offset="0.2971" stop-color="#DD1265" stop-opacity="0.96"/>
<stop offset="1" stop-color="#FF318C" stop-opacity="0"/>
</linearGradient>
<linearGradient id="paint4_linear" x1="58.8053" y1="28.0136" x2="49.8501" y2="33.1309" gradientUnits="userSpaceOnUse">
<stop offset="0.0490531" stop-color="#46DBFF" stop-opacity="0.96"/>
<stop offset="0.2971" stop-color="#008DFF" stop-opacity="0.96"/>
<stop offset="0.603" stop-color="#447DFF" stop-opacity="0.2533"/>
<stop offset="0.7127" stop-color="#5D77FF" stop-opacity="0"/>
</linearGradient>
<linearGradient id="paint5_linear" x1="51.5303" y1="21.4257" x2="44.654" y2="36.7351" gradientUnits="userSpaceOnUse">
<stop stop-color="#0855FA"/>
<stop offset="0.9424" stop-color="#DD1265" stop-opacity="0"/>
</linearGradient>
<linearGradient id="paint6_linear" x1="44.8239" y1="4.2739" x2="63.2323" y2="55.1063" gradientUnits="userSpaceOnUse">
<stop offset="0.00724206" stop-color="#0861FA"/>
<stop offset="0.3721" stop-color="#5E51BE"/>
<stop offset="1" stop-color="#B72580"/>
</linearGradient>
<linearGradient id="paint7_linear" x1="63.8804" y1="39.0616" x2="49.9981" y2="35.2991" gradientUnits="userSpaceOnUse">
<stop stop-color="#DD1265"/>
<stop offset="0.9424" stop-color="#A7004D" stop-opacity="0"/>
</linearGradient>
<linearGradient id="paint8_linear" x1="34.9016" y1="51.7886" x2="62.5898" y2="62.6172" gradientUnits="userSpaceOnUse">
<stop offset="0.3285" stop-color="#083DFA"/>
<stop offset="0.8559" stop-color="#0062FC"/>
</linearGradient>
<linearGradient id="paint9_linear" x1="48.6482" y1="58.8763" x2="36.6962" y2="68.3974" gradientUnits="userSpaceOnUse">
<stop offset="0.2194" stop-color="#0855FA"/>
<stop offset="1" stop-color="#07A3F4"/>
</linearGradient>
<linearGradient id="paint10_linear" x1="-3.94755" y1="13.1037" x2="29.0864" y2="43.3963" gradientUnits="userSpaceOnUse">
<stop offset="0.2775" stop-color="#DD1265"/>
<stop offset="0.9684" stop-color="#FDB60D"/>
</linearGradient>
<linearGradient id="paint11_linear" x1="11.2038" y1="4.7451" x2="15.9316" y2="22.3052" gradientUnits="userSpaceOnUse">
<stop offset="0.2301" stop-color="#DD1265"/>
<stop offset="0.8122" stop-color="#F3802A"/>
</linearGradient>
<linearGradient id="paint12_linear" x1="11.0375" y1="24.98" x2="12.8194" y2="4.83061" gradientUnits="userSpaceOnUse">
<stop offset="0.2973" stop-color="#FFA149" stop-opacity="0.96"/>
<stop offset="0.5961" stop-color="#EF5D56" stop-opacity="0.4888"/>
<stop offset="0.906" stop-color="#DD1265" stop-opacity="0"/>
</linearGradient>
<linearGradient id="paint13_linear" x1="30.0626" y1="18.1982" x2="-0.504052" y2="25.6" gradientUnits="userSpaceOnUse">
<stop offset="0.2535" stop-color="#F3A309"/>
<stop offset="0.8544" stop-color="#DD1265"/>
</linearGradient>
<linearGradient id="paint14_linear" x1="28.565" y1="44.7894" x2="34.2711" y2="65.0678" gradientUnits="userSpaceOnUse">
<stop stop-color="#DD1265"/>
<stop offset="0.7086" stop-color="#FDB60D"/>
<stop offset="0.9966" stop-color="#FDD800"/>
</linearGradient>
<linearGradient id="paint15_linear" x1="13.2702" y1="20.5066" x2="53.0206" y2="38.1886" gradientUnits="userSpaceOnUse">
<stop offset="0.2775" stop-color="#DD1265"/>
<stop offset="0.9684" stop-color="#FDB60D"/>
</linearGradient>
<linearGradient id="paint16_linear" x1="17.3719" y1="12.722" x2="29.0516" y2="17.9174" gradientUnits="userSpaceOnUse">
<stop offset="0.00397648" stop-color="#FC4B57"/>
<stop offset="0.9603" stop-color="#FC801D" stop-opacity="0"/>
</linearGradient>
<linearGradient id="paint17_linear" x1="35.8883" y1="11.4094" x2="29.446" y2="52.2564" gradientUnits="userSpaceOnUse">
<stop offset="0.0257838" stop-color="#6B57FF" stop-opacity="0.6"/>
<stop offset="0.3698" stop-color="#DD1265"/>
<stop offset="0.9603" stop-color="#DD1265" stop-opacity="0"/>
</linearGradient>
<linearGradient id="paint18_linear" x1="40.9614" y1="61.8237" x2="21.7884" y2="57.9539" gradientUnits="userSpaceOnUse">
<stop offset="0.00397648" stop-color="#F26522"/>
<stop offset="0.9603" stop-color="#FF45ED" stop-opacity="0"/>
</linearGradient>
<linearGradient id="paint19_linear" x1="14.3452" y1="14.3452" x2="52.0608" y2="52.0608" gradientUnits="userSpaceOnUse">
<stop offset="0.0284813" stop-color="#5A1F3A"/>
<stop offset="0.0797561" stop-color="#4E1B32"/>
<stop offset="0.2774" stop-color="#260D18"/>
<stop offset="0.3795" stop-color="#16080E"/>
<stop offset="0.3907" stop-color="#15080E"/>
<stop offset="0.6833" stop-color="#060204"/>
<stop offset="0.9138"/>
</linearGradient>
<linearGradient id="paint20_linear" x1="60.7697" y1="38.4803" x2="25.6574" y2="18.3306" gradientUnits="userSpaceOnUse">
<stop stop-color="#DD1265"/>
<stop offset="0.4834" stop-color="#DD1265"/>
<stop offset="0.9424" stop-color="#FDB60D"/>
</linearGradient>
<linearGradient id="paint21_linear" x1="34.0275" y1="54.9688" x2="28.6275" y2="9.8832" gradientUnits="userSpaceOnUse">
<stop offset="0.2775" stop-color="#79123A"/>
<stop offset="1" stop-color="#FA4D6C"/>
</linearGradient>
<linearGradient id="paint22_linear" x1="19.027" y1="50.1839" x2="27.2556" y2="58.7554" gradientUnits="userSpaceOnUse">
<stop offset="0.2775" stop-color="#DD1265"/>
<stop offset="0.9684" stop-color="#FDB60D"/>
</linearGradient>
<linearGradient id="paint23_linear" x1="29.8685" y1="18.9593" x2="38.6114" y2="47.5881" gradientUnits="userSpaceOnUse">
<stop offset="0.1368" stop-color="#00AAFF"/>
<stop offset="0.3491" stop-color="#0778BB"/>
<stop offset="0.7127" stop-color="#141E3E"/>
</linearGradient>
<linearGradient id="paint24_linear" x1="47.7102" y1="15.1496" x2="56.5037" y2="39.4318" gradientUnits="userSpaceOnUse">
<stop offset="0.00724206" stop-color="#08396C"/>
<stop offset="1" stop-color="#B72580"/>
</linearGradient>
</defs>
</svg>
