<svg width="16" height="16" viewBox="0 0 16 16" fill="none" xmlns="http://www.w3.org/2000/svg">
  <path fill-rule="evenodd" clip-rule="evenodd"
        d="M11.4787 3.0186C10.0849 3.0132 8.53985 3.44876 7.70718 3.96236C7.39594 4.15434 7.07657 4.36928 6.75651 4.59614C6.75651 4.59614 3.86847 6.8199 2.97112 7.93904C2.85094 8.08893 2.74151 8.2505 2.64617 8.42071C2.63974 8.43293 2.63289 8.44527 2.62658 8.45758C2.61766 8.47397 2.60872 8.4906 2.60007 8.50713C2.59803 8.51128 2.59635 8.51565 2.59431 8.51981C2.45253 8.80965 2.34448 9.12352 2.29125 9.44052C2.29081 9.44318 2.29054 9.44591 2.2901 9.44858C2.28851 9.45972 2.28696 9.47082 2.28549 9.482C2.23725 9.84959 2.25712 10.2418 2.40764 10.5744C2.59061 10.9787 2.89518 11.2805 3.33641 11.5285C3.76192 11.7677 4.54059 11.971 4.54059 11.971L4.52792 11.9768C5.17689 12.0919 5.84916 12.0532 6.50531 11.9895C6.82705 11.9582 7.14892 11.9228 7.47096 11.8823C7.47118 11.8823 7.47189 11.8823 7.47211 11.8823C7.47431 11.8823 7.48129 11.8823 7.48363 11.8823C7.46241 11.7742 7.42813 11.5673 7.4698 11.5562C7.91091 11.4388 8.17352 11.368 8.51727 11.2485C8.84596 11.1343 9.0865 11.0302 9.3527 10.8832C9.41922 10.8465 9.47188 10.7853 9.54169 10.7553C9.76209 10.6606 10.0075 10.6384 10.2446 10.6021C10.4341 10.573 10.6257 10.554 10.8173 10.5502C10.9416 10.5478 11.0675 10.545 11.1895 10.5686C11.283 10.5867 11.3776 10.6129 11.4592 10.662C11.5137 10.6948 11.5643 10.7392 11.5997 10.7922C11.6186 10.8324 11.6342 10.8748 11.6493 10.9166C12.3462 10.6555 13.054 10.3407 13.5921 9.83C14.388 9.07462 15.0204 8.08739 15.3333 7.03561C15.5032 6.46424 15.5327 5.82219 15.3713 5.24835C15.2715 4.89359 15.1176 4.66527 14.7744 4.31728C14.0723 3.6054 13.0494 3.16516 12.0561 3.05087C11.8722 3.02971 11.6779 3.01938 11.4787 3.0186ZM6.75651 4.59614C6.61392 4.69721 6.47088 4.80071 6.329 4.90611L6.75651 4.59614ZM9.76293 5.26794C10.2145 5.26661 10.4647 5.33593 10.4647 5.33593C10.4647 5.33593 9.72179 5.40526 9.30892 5.47882C8.98189 5.53708 8.45587 5.63837 8.04597 5.77727C7.24671 6.04812 6.48639 6.42682 5.73555 6.81206C5.15844 7.10817 4.60546 7.45024 4.05316 7.79039C3.67568 8.02286 2.93886 8.51635 2.93886 8.51635C2.93886 8.51635 3.56677 7.70495 5.2366 6.76712C5.71405 6.49897 6.20132 6.24743 6.7012 6.02387C7.09182 5.84918 7.48788 5.68268 7.89732 5.55833C8.20839 5.46386 8.52939 5.39841 8.85029 5.3463C9.08409 5.30833 9.33263 5.28442 9.55667 5.27371C9.62922 5.27024 9.69842 5.26814 9.76293 5.26794ZM4.03472 6.04231C3.88683 6.04318 3.76 6.21677 3.68211 6.34767C3.58229 6.51542 3.53794 6.80329 3.51733 7.03331C3.8378 6.75921 4.15761 6.50424 4.37927 6.33154C4.29363 6.18767 4.18634 6.06328 4.06468 6.04461C4.05464 6.04307 4.04458 6.04225 4.03472 6.04231ZM10.4912 6.77519C10.4912 6.77519 9.09697 7.30426 8.40434 7.58066C7.60644 7.89907 6.81106 8.22544 6.02133 8.5636C5.46891 8.80014 4.91965 9.04463 4.3735 9.29532C3.8714 9.5258 2.87548 10.0052 2.87548 10.0052C2.87548 10.0052 3.72355 9.3099 5.29652 8.62237C6.21447 8.22114 6.83345 7.86961 7.82126 7.54725C8.28251 7.39672 8.73773 7.22722 9.20405 7.09323C9.62872 6.9712 10.4912 6.77519 10.4912 6.77519ZM10.9752 8.19024C10.9752 8.19024 10.7795 8.42328 10.3426 8.71225C10.1241 8.85673 9.93254 9.00821 9.71799 9.14091C9.4403 9.31267 9.15525 9.47246 8.86181 9.61567C8.49808 9.79318 8.12042 9.94156 7.74406 10.0904C7.37513 10.2364 7.00407 10.3783 6.6263 10.4995C6.16021 10.6491 5.6896 10.7874 5.21125 10.8913C4.86415 10.9666 4.15917 11.0584 4.15917 11.0584C4.15917 11.0584 5.02907 10.7637 5.46245 10.6113C5.92003 10.4504 6.35394 10.2985 6.83142 10.1181C7.32499 9.93158 7.67791 9.79569 8.09782 9.62604C8.44117 9.48733 8.78687 9.35324 9.12224 9.19622C9.37874 9.07613 9.62768 8.93991 9.87701 8.80558C10.2465 8.60653 10.9752 8.19024 10.9752 8.19024ZM11.9881 9.10404C11.9881 9.10404 11.9764 9.24858 11.609 9.62489C11.4606 9.77682 11.1992 9.97289 11.0328 10.0754C10.3878 10.4729 10.0441 10.5744 10.0441 10.5744C10.0441 10.5744 10.6809 10.1579 10.989 9.93486C11.1705 9.80351 11.3494 9.66697 11.5214 9.52348C11.682 9.3895 11.9881 9.10404 11.9881 9.10404ZM2.09536 10.4811C1.87871 10.5785 1.61766 10.6994 1.4466 10.791C1.12941 10.9609 0.505296 11.2581 0.525888 11.3545C0.557364 11.502 1.26394 11.2168 1.63212 11.1437C1.86637 11.0971 2.0993 11.0483 2.33273 10.9985C2.23855 10.8338 2.15668 10.6603 2.09536 10.4811ZM10.732 10.7173C10.6382 10.7179 10.538 10.7234 10.4163 10.7369C10.0435 10.7782 9.94255 10.8116 9.64424 10.9086C9.53797 10.9431 9.47525 10.9987 9.39188 11.0446C9.24208 11.1269 9.10097 11.2263 8.94478 11.2958C8.72034 11.3956 8.48156 11.4596 8.24647 11.5308C8.05262 11.5896 8.02581 11.601 7.65994 11.6887C7.59643 11.7039 7.65616 11.8077 7.71294 11.8869C8.58094 11.9045 11.2063 11.9465 11.2414 11.8005L11.435 10.9962C11.4522 10.99 11.4696 10.984 11.4868 10.9777C11.4795 10.9501 11.4701 10.9224 11.4592 10.904C11.4272 10.8502 11.3804 10.8014 11.3243 10.7738C11.23 10.7273 11.1181 10.7346 11.0132 10.7277C10.9141 10.7211 10.8258 10.7167 10.732 10.7173ZM11.2068 10.9339C11.3108 10.9357 11.3952 10.9515 11.3946 11.0031C11.3934 11.1141 11.1549 11.1086 11.0455 11.1195C10.3398 11.1892 10.0923 11.1774 9.61543 11.1794C9.52381 11.1798 9.34118 11.1702 9.34118 11.1702C9.34118 11.1702 9.79942 11.0614 10.2066 11.0123C10.4433 10.9837 10.6742 10.9542 10.9014 10.9466C10.9794 10.944 11.1028 10.9322 11.2068 10.9339ZM10.6664 11.3764C10.7512 11.3748 10.8361 11.3775 10.9199 11.3891C10.9861 11.3983 11.0609 11.4016 11.1123 11.4444C11.1353 11.4635 11.1619 11.5044 11.1526 11.5239C11.1338 11.5636 11.0629 11.5655 10.9118 11.5758C10.7306 11.5881 10.554 11.6027 10.3748 11.608C9.9306 11.6213 9.04158 11.6057 9.04158 11.6057C9.04158 11.6057 9.31884 11.5321 9.45987 11.5066C9.77447 11.4498 10.0926 11.4086 10.4117 11.3891C10.4961 11.3839 10.5815 11.378 10.6664 11.3764Z"
        fill="#548AF7"/>
  <path fill-rule="evenodd" clip-rule="evenodd"
        d="M11.4787 3.0186C10.0849 3.0132 8.53985 3.44876 7.70718 3.96236C7.39594 4.15434 7.07657 4.36928 6.75651 4.59614C6.75651 4.59614 3.86847 6.8199 2.97112 7.93904C2.85094 8.08893 2.74151 8.2505 2.64617 8.42071C2.63974 8.43293 2.63289 8.44527 2.62658 8.45758C2.61766 8.47397 2.60872 8.4906 2.60007 8.50713C2.59803 8.51128 2.59635 8.51565 2.59431 8.51981C2.45253 8.80965 2.34448 9.12352 2.29125 9.44052C2.29081 9.44318 2.29054 9.44591 2.2901 9.44858C2.28851 9.45972 2.28696 9.47082 2.28549 9.482C2.23725 9.84959 2.25712 10.2418 2.40764 10.5744C2.59061 10.9787 2.89518 11.2805 3.33641 11.5285C3.76192 11.7677 4.54059 11.971 4.54059 11.971L4.52792 11.9768C5.17689 12.0919 5.84916 12.0532 6.50531 11.9895C6.82705 11.9582 7.14892 11.9228 7.47096 11.8823C7.47118 11.8823 7.47189 11.8823 7.47211 11.8823C7.47431 11.8823 7.48129 11.8823 7.48363 11.8823C7.46241 11.7742 7.42813 11.5673 7.4698 11.5562C7.91091 11.4388 8.17352 11.368 8.51727 11.2485C8.84596 11.1343 9.0865 11.0302 9.3527 10.8832C9.41922 10.8465 9.47188 10.7853 9.54169 10.7553C9.76209 10.6606 10.0075 10.6384 10.2446 10.6021C10.4341 10.573 10.6257 10.554 10.8173 10.5502C10.9416 10.5478 11.0675 10.545 11.1895 10.5686C11.283 10.5867 11.3776 10.6129 11.4592 10.662C11.5137 10.6948 11.5643 10.7392 11.5997 10.7922C11.6186 10.8324 11.6342 10.8748 11.6493 10.9166C12.3462 10.6555 13.054 10.3407 13.5921 9.83C14.388 9.07462 15.0204 8.08739 15.3333 7.03561C15.5032 6.46424 15.5327 5.82219 15.3713 5.24835C15.2715 4.89359 15.1176 4.66527 14.7744 4.31728C14.0723 3.6054 13.0494 3.16516 12.0561 3.05087C11.8722 3.02971 11.6779 3.01938 11.4787 3.0186ZM6.75651 4.59614C6.61392 4.69721 6.47088 4.80071 6.329 4.90611L6.75651 4.59614ZM9.76293 5.26794C10.2145 5.26661 10.4647 5.33593 10.4647 5.33593C10.4647 5.33593 9.72179 5.40526 9.30892 5.47882C8.98189 5.53708 8.45587 5.63837 8.04597 5.77727C7.24671 6.04812 6.48639 6.42682 5.73555 6.81206C5.15844 7.10817 4.60546 7.45024 4.05316 7.79039C3.67568 8.02286 2.93886 8.51635 2.93886 8.51635C2.93886 8.51635 3.56677 7.70495 5.2366 6.76712C5.71405 6.49897 6.20132 6.24743 6.7012 6.02387C7.09182 5.84918 7.48788 5.68268 7.89732 5.55833C8.20839 5.46386 8.52939 5.39841 8.85029 5.3463C9.08409 5.30833 9.33263 5.28442 9.55667 5.27371C9.62922 5.27024 9.69842 5.26814 9.76293 5.26794ZM4.03472 6.04231C3.88683 6.04318 3.76 6.21677 3.68211 6.34767C3.58229 6.51542 3.53794 6.80329 3.51733 7.03331C3.8378 6.75921 4.15761 6.50424 4.37927 6.33154C4.29363 6.18767 4.18634 6.06328 4.06468 6.04461C4.05464 6.04307 4.04458 6.04225 4.03472 6.04231ZM10.4912 6.77519C10.4912 6.77519 9.09697 7.30426 8.40434 7.58066C7.60644 7.89907 6.81106 8.22544 6.02133 8.5636C5.46891 8.80014 4.91965 9.04463 4.3735 9.29532C3.8714 9.5258 2.87548 10.0052 2.87548 10.0052C2.87548 10.0052 3.72355 9.3099 5.29652 8.62237C6.21447 8.22114 6.83345 7.86961 7.82126 7.54725C8.28251 7.39672 8.73773 7.22722 9.20405 7.09323C9.62872 6.9712 10.4912 6.77519 10.4912 6.77519ZM10.9752 8.19024C10.9752 8.19024 10.7795 8.42328 10.3426 8.71225C10.1241 8.85673 9.93254 9.00821 9.71799 9.14091C9.4403 9.31267 9.15525 9.47246 8.86181 9.61567C8.49808 9.79318 8.12042 9.94156 7.74406 10.0904C7.37513 10.2364 7.00407 10.3783 6.6263 10.4995C6.16021 10.6491 5.6896 10.7874 5.21125 10.8913C4.86415 10.9666 4.15917 11.0584 4.15917 11.0584C4.15917 11.0584 5.02907 10.7637 5.46245 10.6113C5.92003 10.4504 6.35394 10.2985 6.83142 10.1181C7.32499 9.93158 7.67791 9.79569 8.09782 9.62604C8.44117 9.48733 8.78687 9.35324 9.12224 9.19622C9.37874 9.07613 9.62768 8.93991 9.87701 8.80558C10.2465 8.60653 10.9752 8.19024 10.9752 8.19024ZM11.9881 9.10404C11.9881 9.10404 11.9764 9.24858 11.609 9.62489C11.4606 9.77682 11.1992 9.97289 11.0328 10.0754C10.3878 10.4729 10.0441 10.5744 10.0441 10.5744C10.0441 10.5744 10.6809 10.1579 10.989 9.93486C11.1705 9.80351 11.3494 9.66697 11.5214 9.52348C11.682 9.3895 11.9881 9.10404 11.9881 9.10404ZM2.09536 10.4811C1.87871 10.5785 1.61766 10.6994 1.4466 10.791C1.12941 10.9609 0.505296 11.2581 0.525888 11.3545C0.557364 11.502 1.26394 11.2168 1.63212 11.1437C1.86637 11.0971 2.0993 11.0483 2.33273 10.9985C2.23855 10.8338 2.15668 10.6603 2.09536 10.4811ZM10.732 10.7173C10.6382 10.7179 10.538 10.7234 10.4163 10.7369C10.0435 10.7782 9.94255 10.8116 9.64424 10.9086C9.53797 10.9431 9.47525 10.9987 9.39188 11.0446C9.24208 11.1269 9.10097 11.2263 8.94478 11.2958C8.72034 11.3956 8.48156 11.4596 8.24647 11.5308C8.05262 11.5896 8.02581 11.601 7.65994 11.6887C7.59643 11.7039 7.65616 11.8077 7.71294 11.8869C8.58094 11.9045 11.2063 11.9465 11.2414 11.8005L11.435 10.9962C11.4522 10.99 11.4696 10.984 11.4868 10.9777C11.4795 10.9501 11.4701 10.9224 11.4592 10.904C11.4272 10.8502 11.3804 10.8014 11.3243 10.7738C11.23 10.7273 11.1181 10.7346 11.0132 10.7277C10.9141 10.7211 10.8258 10.7167 10.732 10.7173ZM11.2068 10.9339C11.3108 10.9357 11.3952 10.9515 11.3946 11.0031C11.3934 11.1141 11.1549 11.1086 11.0455 11.1195C10.3398 11.1892 10.0923 11.1774 9.61543 11.1794C9.52381 11.1798 9.34118 11.1702 9.34118 11.1702C9.34118 11.1702 9.79942 11.0614 10.2066 11.0123C10.4433 10.9837 10.6742 10.9542 10.9014 10.9466C10.9794 10.944 11.1028 10.9322 11.2068 10.9339ZM10.6664 11.3764C10.7512 11.3748 10.8361 11.3775 10.9199 11.3891C10.9861 11.3983 11.0609 11.4016 11.1123 11.4444C11.1353 11.4635 11.1619 11.5044 11.1526 11.5239C11.1338 11.5636 11.0629 11.5655 10.9118 11.5758C10.7306 11.5881 10.554 11.6027 10.3748 11.608C9.9306 11.6213 9.04158 11.6057 9.04158 11.6057C9.04158 11.6057 9.31884 11.5321 9.45987 11.5066C9.77447 11.4498 10.0926 11.4086 10.4117 11.3891C10.4961 11.3839 10.5815 11.378 10.6664 11.3764Z"
        fill="#548AF7"/>
</svg>
