<svg width="256" height="256" viewBox="0 0 256 256" fill="none" xmlns="http://www.w3.org/2000/svg">
<path d="M205 12L138.6 35.8L86.1998 12L56.7998 83L57.7998 183.6L219 185L244 57.4L205 12Z" fill="url(#paint0_linear)"/>
<path d="M55.3999 162.6L227.6 64.6L205 12L138.6 35.8L86.1999 12L55.3999 80.8V162.6Z" fill="url(#paint1_linear)"/>
<path d="M55.3999 162.6L227.6 64.6L205 12L138.6 35.8L55.3999 162.6Z" fill="url(#paint2_linear)"/>
<path d="M243.2 57.2L205 12L138.6 35.8L243.2 57.2Z" fill="url(#paint3_linear)"/>
<path d="M227.6 64.6L219 185L244 57.4L227.6 64.6Z" fill="url(#paint4_linear)"/>
<path d="M205 12L227.6 64.6L244 57.4L205 12Z" fill="url(#paint5_linear)"/>
<path d="M188.4 87L97 32.4L197.4 158L188.4 87Z" fill="url(#paint6_linear)"/>
<path d="M195.2 226.4L181.8 200.6L197.4 158L97 32.2L12 53V174.8L61 244L195.2 226.4Z" fill="url(#paint7_linear)"/>
<path d="M80.6 183.8L12 53V174.8L61 244L80.6 183.8Z" fill="url(#paint8_linear)"/>
<path d="M80.6 183.8L91.2 154.6L12 174.8L61 244L80.6 183.8Z" fill="url(#paint9_linear)"/>
<path d="M80.6 183.8L12 53V174.8L61 244L80.6 183.8Z" fill="url(#paint10_linear)"/>
<path d="M80.6 184.2L61 244L195.2 226.4L80.6 184.2Z" fill="url(#paint11_linear)"/>
<path d="M80.6001 184.2L181.8 200.6L195.2 226.4L80.6001 184.2Z" fill="url(#paint12_linear)"/>
<path d="M61 244L181.8 200.6L195.2 226.4L61 244Z" fill="url(#paint13_linear)"/>
<path d="M195.2 226.4L181.8 200.6L153 210.8L195.2 226.4Z" fill="url(#paint14_linear)"/>
<path d="M96.9999 32.2L46.3999 118.6L80.5999 183.8L187.6 184.6L197.4 158L96.9999 32.2Z" fill="url(#paint15_linear)"/>
<path d="M80.6001 184.2L181.8 200.6L197.4 158L80.6001 184.2Z" fill="url(#paint16_linear)"/>
<path d="M12 53V174.8L12.6 175.6L12.8 175.8L46.4 118.8L12 53Z" fill="url(#paint17_linear)"/>
<path d="M97 32.2L12 53L46.4 118.6L97 32.2Z" fill="url(#paint18_linear)"/>
<path d="M74.7998 37.7999L41.7998 110L46.3998 118.6L96.9998 32.2L74.7998 37.7999Z" fill="url(#paint19_linear)"/>
<path d="M55.3999 103.8V135.4L66.1999 156.4L155 105L96.9999 32.2L55.3999 103.8Z" fill="url(#paint20_linear)"/>
<path d="M200 56H56V200H200V56Z" fill="url(#paint21_linear)"/>
<g opacity="0.3">
<path opacity="0.3" d="M200 56H68.6L56 83.2V200H200V56Z" fill="url(#paint22_linear)"/>
<path opacity="0.3" d="M56 200H181.4L197 157.8L115.6 56H56V200Z" fill="url(#paint23_linear)"/>
<path opacity="0.3" d="M56 81V162.4L200 80.4V56H67.2L56 81Z" fill="url(#paint24_linear)"/>
<path opacity="0.3" d="M200 56H68.6L56 83.2V200H200V56Z" fill="url(#paint25_linear)"/>
<path opacity="0.3" d="M181 200L163 166.8L81.5998 182.2L75.7998 200H181Z" fill="url(#paint26_linear)"/>
<path opacity="0.3" d="M197 157.8L188 87.2L135.6 56H115.6L197 157.8Z" fill="url(#paint27_linear)"/>
<path opacity="0.3" d="M83.6 56H56V103.2L83.6 56Z" fill="url(#paint28_linear)"/>
<path opacity="0.3" d="M56 80.4V103.2L58.8 98.6L83.6 56H67.2L56 80.4Z" fill="url(#paint29_linear)"/>
</g>
<path d="M127.9 172.9H73.8V181.9H127.9V172.9Z" fill="white"/>
<path d="M127.4 73.9H140.3L154.5 96.8L168.7 73.9H181.5V128.1H169.7V92.7L154.5 115.8H154.2L139.1 92.9V128.1H127.4V73.9Z" fill="white"/>
<path d="M74 73.9H98.7C105.5 73.9 110.8 75.7 114.5 79.4C117.6 82.5 119.1 86.6 119.1 91.8V92C119.1 96.4 118 99.9 115.9 102.7C113.8 105.5 111 107.5 107.5 108.8L120.8 128H106.9L95.7 111.4H85.9V128H74V73.9ZM98 100.2C100.9 100.2 103.2 99.5 104.8 98.1C106.4 96.7 107.2 94.9 107.2 92.5V92.3C107.2 89.7 106.4 87.8 104.7 86.5C103.1 85.2 100.8 84.6 97.8 84.6H85.9V100.1H98V100.2Z" fill="white"/>
<defs>
<linearGradient id="paint0_linear" x1="160.735" y1="146.186" x2="131.419" y2="69.2324" gradientUnits="userSpaceOnUse">
<stop stop-color="#FE2857"/>
<stop offset="0.0562257" stop-color="#FE3052"/>
<stop offset="0.3252" stop-color="#FD533B"/>
<stop offset="0.5796" stop-color="#FC6C2A"/>
<stop offset="0.8114" stop-color="#FC7B20"/>
<stop offset="1" stop-color="#FC801D"/>
</linearGradient>
<linearGradient id="paint1_linear" x1="141.519" y1="110.968" x2="139.943" y2="23.3458" gradientUnits="userSpaceOnUse">
<stop offset="0.3737" stop-color="#FEB51A"/>
<stop offset="0.4306" stop-color="#FEAD1A"/>
<stop offset="0.6448" stop-color="#FD941C"/>
<stop offset="0.8406" stop-color="#FC851D"/>
<stop offset="1" stop-color="#FC801D"/>
</linearGradient>
<linearGradient id="paint2_linear" x1="208.718" y1="160.754" x2="99.6573" y2="58.6848" gradientUnits="userSpaceOnUse">
<stop offset="0.3737" stop-color="#FEB51A"/>
<stop offset="0.417" stop-color="#FEAD1A"/>
<stop offset="0.5802" stop-color="#FD941C"/>
<stop offset="0.7294" stop-color="#FC851D"/>
<stop offset="0.8508" stop-color="#FC801D"/>
<stop offset="0.9836" stop-color="#F26522"/>
</linearGradient>
<linearGradient id="paint3_linear" x1="173.108" y1="12.6058" x2="192.308" y2="49.2914" gradientUnits="userSpaceOnUse">
<stop offset="0.0238963" stop-color="#FDB60D"/>
<stop offset="1" stop-color="#FF9600" stop-opacity="0"/>
</linearGradient>
<linearGradient id="paint4_linear" x1="235.965" y1="181.68" x2="227.11" y2="61.8994" gradientUnits="userSpaceOnUse">
<stop offset="0.0133474" stop-color="#EE2A7B"/>
<stop offset="0.7157" stop-color="#FE2857"/>
<stop offset="0.9859" stop-color="#FC801D"/>
</linearGradient>
<linearGradient id="paint5_linear" x1="263.309" y1="97.12" x2="202.72" y2="17.422" gradientUnits="userSpaceOnUse">
<stop stop-color="#FE2857"/>
<stop offset="0.1736" stop-color="#FE2C54"/>
<stop offset="0.1983" stop-color="#FE3051"/>
<stop offset="0.4268" stop-color="#FD533B"/>
<stop offset="0.6429" stop-color="#FC6C2A"/>
<stop offset="0.8398" stop-color="#FC7B20"/>
<stop offset="1" stop-color="#FC801D"/>
</linearGradient>
<linearGradient id="paint6_linear" x1="109.39" y1="27.5306" x2="201.206" y2="131.93" gradientUnits="userSpaceOnUse">
<stop stop-color="#6B57FF"/>
<stop offset="1" stop-color="#FE2857"/>
</linearGradient>
<linearGradient id="paint7_linear" x1="10.9804" y1="50.7588" x2="160.103" y2="240.322" gradientUnits="userSpaceOnUse">
<stop offset="0.0417113" stop-color="#7D11EF"/>
<stop offset="0.1162" stop-color="#A019CB"/>
<stop offset="0.2019" stop-color="#C220A8"/>
<stop offset="0.283" stop-color="#DA268F"/>
<stop offset="0.3569" stop-color="#E92980"/>
<stop offset="0.417" stop-color="#EE2A7B"/>
<stop offset="1" stop-color="#F26522"/>
</linearGradient>
<linearGradient id="paint8_linear" x1="-20.3804" y1="76.2966" x2="87.3596" y2="213.254" gradientUnits="userSpaceOnUse">
<stop offset="0.00149909" stop-color="#6B57FF"/>
<stop offset="0.2483" stop-color="#FE2857"/>
<stop offset="0.6853" stop-color="#FE2857"/>
</linearGradient>
<linearGradient id="paint9_linear" x1="52.5492" y1="127.767" x2="50.1296" y2="228.18" gradientUnits="userSpaceOnUse">
<stop offset="0.00149909" stop-color="#FDB60D"/>
<stop offset="0.725" stop-color="#FE2857" stop-opacity="0"/>
</linearGradient>
<linearGradient id="paint10_linear" x1="71.1958" y1="131.345" x2="37.253" y2="148.145" gradientUnits="userSpaceOnUse">
<stop offset="0.0238963" stop-color="#FF7100"/>
<stop offset="1" stop-color="#FF9600" stop-opacity="0"/>
</linearGradient>
<linearGradient id="paint11_linear" x1="100.22" y1="149.276" x2="134.763" y2="255.781" gradientUnits="userSpaceOnUse">
<stop offset="0.3361" stop-color="#FE2857"/>
<stop offset="0.3527" stop-color="#FE3052"/>
<stop offset="0.4321" stop-color="#FD533B"/>
<stop offset="0.5072" stop-color="#FC6C2A"/>
<stop offset="0.5757" stop-color="#FC7B20"/>
<stop offset="0.6313" stop-color="#FC801D"/>
<stop offset="0.9964" stop-color="#FFDE17"/>
</linearGradient>
<linearGradient id="paint12_linear" x1="113.945" y1="131.396" x2="155.203" y2="258.61" gradientUnits="userSpaceOnUse">
<stop offset="0.2209" stop-color="#EE2A7B"/>
<stop offset="0.6985" stop-color="#F7941D"/>
</linearGradient>
<linearGradient id="paint13_linear" x1="118.321" y1="205.088" x2="134.05" y2="253.584" gradientUnits="userSpaceOnUse">
<stop offset="0.092793" stop-color="#F15A29"/>
<stop offset="0.3888" stop-color="#FC801D"/>
<stop offset="1" stop-color="#FEC519"/>
</linearGradient>
<linearGradient id="paint14_linear" x1="110.223" y1="229.232" x2="201.262" y2="210.9" gradientUnits="userSpaceOnUse">
<stop offset="0.092793" stop-color="#F15A29"/>
<stop offset="0.3888" stop-color="#FC801D"/>
<stop offset="0.8214" stop-color="#FEC519"/>
<stop offset="0.9894" stop-color="#FCF84A"/>
</linearGradient>
<linearGradient id="paint15_linear" x1="79.3193" y1="215.875" x2="162.422" y2="74.112" gradientUnits="userSpaceOnUse">
<stop offset="0.0417113" stop-color="#7D11EF"/>
<stop offset="0.1162" stop-color="#A019CB"/>
<stop offset="0.2019" stop-color="#C220A8"/>
<stop offset="0.283" stop-color="#DA268F"/>
<stop offset="0.3569" stop-color="#E92980"/>
<stop offset="0.417" stop-color="#EE2A7B"/>
</linearGradient>
<linearGradient id="paint16_linear" x1="129.674" y1="142.316" x2="155.205" y2="221.033" gradientUnits="userSpaceOnUse">
<stop stop-color="#F7941D" stop-opacity="0"/>
<stop offset="0.5473" stop-color="#FB851D" stop-opacity="0.5473"/>
<stop offset="1" stop-color="#FC801D"/>
</linearGradient>
<linearGradient id="paint17_linear" x1="-17.99" y1="59.2124" x2="40.4744" y2="165.828" gradientUnits="userSpaceOnUse">
<stop offset="0.1915" stop-color="#7D11EF"/>
<stop offset="0.2818" stop-color="#A019CB"/>
<stop offset="0.3858" stop-color="#C220A8"/>
<stop offset="0.4842" stop-color="#DA268F"/>
<stop offset="0.5738" stop-color="#E92980"/>
<stop offset="0.6467" stop-color="#EE2A7B"/>
</linearGradient>
<linearGradient id="paint18_linear" x1="45.4232" y1="27.6802" x2="85.5146" y2="100.791" gradientUnits="userSpaceOnUse">
<stop offset="0.1915" stop-color="#7D11EF"/>
<stop offset="0.2818" stop-color="#A019CB"/>
<stop offset="0.3858" stop-color="#C220A8"/>
<stop offset="0.4842" stop-color="#DA268F"/>
<stop offset="0.5738" stop-color="#E92980"/>
<stop offset="0.6467" stop-color="#EE2A7B"/>
<stop offset="1" stop-color="#F26522"/>
</linearGradient>
<linearGradient id="paint19_linear" x1="99.101" y1="-12.3084" x2="46.8038" y2="134.436" gradientUnits="userSpaceOnUse">
<stop offset="0.1915" stop-color="#7D11EF"/>
<stop offset="0.2818" stop-color="#A019CB"/>
<stop offset="0.3858" stop-color="#C220A8"/>
<stop offset="0.4842" stop-color="#DA268F"/>
<stop offset="0.5738" stop-color="#E92980"/>
<stop offset="0.6467" stop-color="#EE2A7B"/>
<stop offset="1" stop-color="#F26522"/>
</linearGradient>
<linearGradient id="paint20_linear" x1="152.525" y1="146.125" x2="42.5159" y2="65.8636" gradientUnits="userSpaceOnUse">
<stop offset="0.0417113" stop-color="#FFDE17"/>
<stop offset="0.0429608" stop-color="#FFDD18"/>
<stop offset="0.1145" stop-color="#FAA736"/>
<stop offset="0.1843" stop-color="#F67A4E"/>
<stop offset="0.2509" stop-color="#F25762"/>
<stop offset="0.3136" stop-color="#F03E70"/>
<stop offset="0.3706" stop-color="#EE2F78"/>
<stop offset="0.417" stop-color="#EE2A7B"/>
</linearGradient>
<linearGradient id="paint21_linear" x1="34.0794" y1="54.7696" x2="198.761" y2="183.173" gradientUnits="userSpaceOnUse">
<stop offset="0.0108952" stop-color="#7C0F13"/>
<stop offset="0.0756282" stop-color="#6C0D11"/>
<stop offset="0.2517" stop-color="#45080B"/>
<stop offset="0.4263" stop-color="#270506"/>
<stop offset="0.5969" stop-color="#110203"/>
<stop offset="0.7616" stop-color="#040101"/>
<stop offset="0.9138"/>
</linearGradient>
<linearGradient id="paint22_linear" x1="195.917" y1="206.078" x2="112.497" y2="110.178" gradientUnits="userSpaceOnUse">
<stop stop-color="#801E02"/>
<stop offset="0.1961" stop-color="#AC410C"/>
<stop offset="0.3865" stop-color="#CF5C13"/>
<stop offset="0.5655" stop-color="#E87019"/>
<stop offset="0.7285" stop-color="#F77C1C"/>
<stop offset="0.8611" stop-color="#FC801D"/>
</linearGradient>
<linearGradient id="paint23_linear" x1="166.904" y1="225.989" x2="83.898" y2="125.703" gradientUnits="userSpaceOnUse">
<stop stop-color="#45002D"/>
<stop offset="0.06907" stop-color="#720B42"/>
<stop offset="0.1487" stop-color="#9E1656"/>
<stop offset="0.2255" stop-color="#C11F66"/>
<stop offset="0.2977" stop-color="#DA2572"/>
<stop offset="0.3635" stop-color="#E92979"/>
<stop offset="0.417" stop-color="#EE2A7B"/>
<stop offset="1" stop-color="#F26522"/>
</linearGradient>
<linearGradient id="paint24_linear" x1="79.2374" y1="73.1714" x2="130.467" y2="110.989" gradientUnits="userSpaceOnUse">
<stop offset="0.3737" stop-color="#FEB51A"/>
<stop offset="0.4306" stop-color="#FEAD1A"/>
<stop offset="0.6448" stop-color="#FD941C"/>
<stop offset="0.8406" stop-color="#FC851D"/>
<stop offset="1" stop-color="#FC801D"/>
</linearGradient>
<linearGradient id="paint25_linear" x1="91.5534" y1="45.3874" x2="155.764" y2="190.931" gradientUnits="userSpaceOnUse">
<stop stop-color="#FE2857"/>
<stop offset="0.0940498" stop-color="#E7254E"/>
<stop offset="0.3015" stop-color="#BB1E3D"/>
<stop offset="0.5015" stop-color="#98192F"/>
<stop offset="0.6896" stop-color="#7F1525"/>
<stop offset="0.8608" stop-color="#70131F"/>
<stop offset="1" stop-color="#6B121D"/>
</linearGradient>
<linearGradient id="paint26_linear" x1="195.816" y1="170.298" x2="65.4754" y2="212.264" gradientUnits="userSpaceOnUse">
<stop offset="0.0794007" stop-color="#70193B"/>
<stop offset="0.23" stop-color="#962D38"/>
<stop offset="0.4689" stop-color="#CE4B33"/>
<stop offset="0.6473" stop-color="#F05D30"/>
<stop offset="0.7435" stop-color="#FD642F"/>
</linearGradient>
<linearGradient id="paint27_linear" x1="233.89" y1="169.235" x2="98.1187" y2="16.184" gradientUnits="userSpaceOnUse">
<stop stop-color="#6B57FF"/>
<stop offset="1" stop-color="#FE2857"/>
</linearGradient>
<linearGradient id="paint28_linear" x1="55.0088" y1="52.5924" x2="77.4018" y2="93.4284" gradientUnits="userSpaceOnUse">
<stop offset="0.1915" stop-color="#7D11EF"/>
<stop offset="0.2818" stop-color="#A019CB"/>
<stop offset="0.3858" stop-color="#C220A8"/>
<stop offset="0.4842" stop-color="#DA268F"/>
<stop offset="0.5738" stop-color="#E92980"/>
<stop offset="0.6467" stop-color="#EE2A7B"/>
<stop offset="1" stop-color="#F26522"/>
</linearGradient>
<linearGradient id="paint29_linear" x1="83.0354" y1="31.0808" x2="54.5122" y2="111.116" gradientUnits="userSpaceOnUse">
<stop offset="0.1915" stop-color="#7D11EF"/>
<stop offset="0.2818" stop-color="#A019CB"/>
<stop offset="0.3858" stop-color="#C220A8"/>
<stop offset="0.4842" stop-color="#DA268F"/>
<stop offset="0.5738" stop-color="#E92980"/>
<stop offset="0.6467" stop-color="#EE2A7B"/>
<stop offset="1" stop-color="#F26522"/>
</linearGradient>
</defs>
</svg>
