<svg width="16" height="16" viewBox="0 0 16 16" fill="none" xmlns="http://www.w3.org/2000/svg">
<path d="M5.5 13C5.5 13.5523 5.05229 14 4.5 14C3.94772 14 3.5 13.5523 3.5 13C3.5 12.4477 3.94772 12 4.5 12C5.05229 12 5.5 12.4477 5.5 13Z" fill="#818C94" fill-opacity="0.8"/>
<path fill-rule="evenodd" clip-rule="evenodd" d="M8.74545 12.5716C8.9181 12.8348 8.9181 13.1652 8.74545 13.4284C8.20164 14.2573 6.78649 16 4.5 16C2.21351 16 0.798363 14.2573 0.254551 13.4284C0.0818979 13.1652 0.0818978 12.8348 0.254551 12.5716C0.798363 11.7427 2.21351 10 4.5 10C6.78649 10 8.20164 11.7427 8.74545 12.5716ZM6.5 13C6.5 14.1046 5.60457 15 4.5 15C3.39543 15 2.5 14.1046 2.5 13C2.5 11.8954 3.39543 11 4.5 11C5.60457 11 6.5 11.8954 6.5 13Z" fill="#818C94" fill-opacity="0.8"/>
<path d="M8.82478 14.9519C12.3021 14.5438 15 11.587 15 8C15 4.134 11.866 1 8 1C4.134 1 1 4.134 1 8C1 8.7108 1.10594 9.39685 1.3029 10.0432C2.1245 9.46087 3.18841 9 4.5 9C7.32497 9 9.00091 11.138 9.58158 12.0231C9.97273 12.6193 9.97273 13.3807 9.58158 13.9769C9.41735 14.2273 9.16548 14.5778 8.82478 14.9519Z" fill="#40B6E0" fill-opacity="0.6"/>
<path d="M8.09998 10C9.02798 9.978 9.52998 9.74153 9.99998 9.28253L10.6162 9.9814C10.1458 10.4669 9.58897 10.8233 8.73462 10.95C8.6854 10.8978 8.63456 10.8454 8.5821 10.7929C8.29322 10.504 7.94718 10.2067 7.5444 9.9392C7.72613 9.98324 7.91341 10.0039 8.09998 10Z" fill="#231F20" fill-opacity="0.7"/>
<path d="M6.5898 9.42379C6.23398 9.08338 5.99998 8.60104 5.99998 8.0004C5.99998 6.7124 6.97098 6 8.09998 6C9.37248 6 9.89998 6.55426 9.89998 6.55426L10.5162 5.83673C9.82938 5.27017 9.28825 5.0004 8.09818 5.0004C6.34018 5.0004 5.00018 6.3584 5.00018 8.0004C5.00018 8.36881 5.06562 8.71976 5.18505 9.04323C5.6966 9.10852 6.16495 9.24403 6.5898 9.42379Z" fill="#231F20" fill-opacity="0.7"/>
</svg>
