<!-- Copyright 2000-2023 JetBrains s.r.o. and contributors. Use of this source code is governed by the Apache 2.0 license. -->
<svg width="16" height="16" viewBox="0 0 16 16" fill="none" xmlns="http://www.w3.org/2000/svg">
<path d="M5.5 13C5.5 13.5523 5.05229 14 4.5 14C3.94772 14 3.5 13.5523 3.5 13C3.5 12.4477 3.94772 12 4.5 12C5.05229 12 5.5 12.4477 5.5 13Z" fill="#818C94" fill-opacity="0.8"/>
<path fill-rule="evenodd" clip-rule="evenodd" d="M8.74545 12.5716C8.9181 12.8348 8.9181 13.1652 8.74545 13.4284C8.20164 14.2573 6.78649 16 4.5 16C2.21351 16 0.798363 14.2573 0.254551 13.4284C0.0818979 13.1652 0.0818978 12.8348 0.254551 12.5716C0.798363 11.7427 2.21351 10 4.5 10C6.78649 10 8.20164 11.7427 8.74545 12.5716ZM6.5 13C6.5 14.1046 5.60457 15 4.5 15C3.39543 15 2.5 14.1046 2.5 13C2.5 11.8954 3.39543 11 4.5 11C5.60457 11 6.5 11.8954 6.5 13Z" fill="#818C94" fill-opacity="0.8"/>
<path d="M8.82478 14.9519C12.3021 14.5438 15 11.587 15 8C15 4.134 11.866 1 8 1C4.134 1 1 4.134 1 8C1 8.7108 1.10594 9.39685 1.3029 10.0432C2.1245 9.46087 3.18841 9 4.5 9C7.32497 9 9.00091 11.138 9.58158 12.0231C9.97273 12.6193 9.97273 13.3807 9.58158 13.9769C9.41735 14.2273 9.16548 14.5778 8.82478 14.9519Z" fill="#B99BF8" fill-opacity="0.6"/>
<path fill-rule="evenodd" clip-rule="evenodd" d="M8.37776 10.597C7.77708 10.0411 6.9859 9.4999 6.00043 9.21242V5.0001H6.99743V5.7461C6.99743 5.7461 7.55172 5.0001 8.71643 5.0001C9.88113 5.0001 11.0004 5.57819 11.0004 7.8021C11.0004 10.026 9.65457 10.6231 8.71643 10.6231C8.60072 10.6231 8.48744 10.6136 8.37776 10.597ZM8.53538 9.8771C7.23853 9.8771 6.99738 8.83569 6.99738 7.8021C6.99738 6.76851 7.14649 5.7461 8.52438 5.7461C9.90226 5.7461 9.99998 7.1061 9.99998 7.7921C9.99998 8.4641 9.83222 9.8771 8.53538 9.8771Z" fill="#231F20" fill-opacity="0.7"/>
</svg>
