<!-- Copyright 2000-2023 JetBrains s.r.o. and contributors. Use of this source code is governed by the Apache 2.0 license. -->
<svg width="16" height="16" viewBox="0 0 16 16" fill="none" xmlns="http://www.w3.org/2000/svg">
<path d="M14.9291 9C14.9758 8.6734 15 8.33952 15 8C15 4.134 11.866 1 8 1C4.134 1 1 4.134 1 8C1 11.866 4.134 15 8 15C9.48725 15 10.8662 14.5362 12 13.7453V12H10V9H14.9291Z" fill="#62B543" fill-opacity="0.6"/>
<path fill-rule="evenodd" clip-rule="evenodd" d="M7.81249 7.99998C8.77649 7.99998 8.99999 7.67418 8.99999 7.04918V7.03218C8.99999 6.32918 8.76049 5.99998 7.81249 5.99998H7.00049V7.99998H7.81249ZM6.00049 5.00018H7.83249C9.16749 5.00018 10.0005 5.79718 10.0005 7.00618C10.0005 8.36918 8.97249 8.99998 7.71749 8.99998L7.00049 8.98418V11.0002H6.00049V5.00018Z" fill="#231F20" fill-opacity="0.7"/>
<path fill-rule="evenodd" clip-rule="evenodd" d="M16 11V10H11V11H13V16H14V11H16Z" fill="#9AA7B0"/>
</svg>
