<svg width="32" height="32" viewBox="0 0 32 32" fill="none" xmlns="http://www.w3.org/2000/svg" data-scaled="true">
<path d="M32 27.5V12.9796C32 12.165 31.5145 11.4287 30.766 11.1079L12.0207 3.07383C11.7673 2.96533 11.4941 2.90918 11.2183 2.90918H2.03636C0.911709 2.90918 0 3.82089 0 4.94554V13.9285C0 14.3309 0.119273 14.7242 0.342691 15.059L11.0444 31.0933C11.422 31.6594 12.0576 31.9992 12.738 31.9992L28 32.0001C29.1247 32.0001 32 28.6247 32 27.5Z" fill="url(#paint0_linear_4407_10051)"/>
<path d="M29.0909 7.25964V2.03636C29.0909 0.911709 28.1792 0 27.0545 0H20.5082C20.4119 0 20.3156 0.00698182 20.2202 0.0203636L1.74836 2.6592C0.745309 2.80233 0 3.66167 0 4.67491V12.5114C0 13.6364 0.912 14.5481 2.03695 14.5478L11.3062 14.5455C11.5249 14.5455 11.7423 14.5103 11.9497 14.441L27.6986 9.19127C28.53 8.91404 29.0909 8.13585 29.0909 7.25934V7.25964Z" fill="url(#paint1_linear_4407_10051)"/>
<path d="M29.091 7.97382L29.0901 2.03607C29.0898 0.911709 28.1781 0 27.0538 0H21.3005C20.7061 0 20.1412 0.259782 19.7543 0.710982L3.39936 19.7917C3.08314 20.1609 2.90918 20.631 2.90918 21.1171V27.0548C2.90918 28.1795 3.82089 29.0912 4.94554 29.0912H10.6997C11.2941 29.0912 11.859 28.8314 12.2459 28.3802L28.6008 9.29949C28.9173 8.93033 29.091 8.46022 29.091 7.97382Z" fill="#F7F219"/>
<path d="M26 6H6V26H26V6Z" fill="black"/>
<path d="M8.96875 8.9938H11.8113C12.5188 8.9938 13.1516 9.15658 13.7099 9.48214C14.2716 9.8077 14.7108 10.262 15.0273 10.8387C15.3436 11.4151 15.5019 12.0662 15.5019 12.7921C15.5019 13.5179 15.3436 14.169 15.0273 14.7521C14.7108 15.3285 14.2716 15.7761 13.7099 16.1017C13.1516 16.4272 12.5188 16.59 11.8113 16.59H8.96875V8.9938ZM11.7953 15.3084C12.2399 15.3084 12.629 15.2067 12.9633 15.0032C13.2976 14.8064 13.5553 14.5149 13.7368 14.135C13.9182 13.7551 14.0088 13.3074 14.0088 12.7921C14.0088 12.2767 13.9182 11.829 13.7368 11.4491C13.5553 11.0692 13.2976 10.7777 12.9633 10.5809C12.629 10.3774 12.2396 10.2757 11.7953 10.2757H10.4248V15.3081H11.7953V15.3084ZM18.9973 16.7191C18.457 16.7191 17.977 16.624 17.5573 16.4206C17.1413 16.2241 16.8142 15.9459 16.5759 15.5863C16.3413 15.2267 16.2205 14.8131 16.2133 14.3518H17.6748C17.6748 14.569 17.7316 14.7654 17.8453 14.9282C17.959 15.0977 18.1173 15.2267 18.3199 15.3215C18.5225 15.4166 18.7556 15.4639 19.0185 15.4639C19.2813 15.4639 19.4913 15.4166 19.6799 15.3352C19.8719 15.2471 20.0196 15.1317 20.1225 14.9756C20.229 14.8265 20.2825 14.6501 20.2825 14.4602C20.2825 14.2161 20.2096 14.0126 20.0639 13.8565C19.9216 13.6937 19.7245 13.5853 19.4719 13.5243L18.1545 13.2257C17.799 13.1444 17.4896 13.0086 17.2265 12.8188C16.9633 12.622 16.759 12.3848 16.613 12.1C16.4673 11.8084 16.3945 11.4895 16.3945 11.13C16.3945 10.696 16.5048 10.3091 16.725 9.9635C16.9456 9.61759 17.253 9.34639 17.6476 9.15629C18.0422 8.95951 18.4902 8.86475 18.9916 8.86475C19.493 8.86475 19.9533 8.95951 20.3516 9.14263C20.7499 9.33244 21.0593 9.59696 21.2796 9.92949C21.5036 10.2617 21.6173 10.6483 21.621 11.0826H20.165C20.165 10.8995 20.117 10.7367 20.021 10.5876C19.925 10.4385 19.7882 10.3297 19.6105 10.2484C19.4362 10.167 19.2353 10.1196 19.0079 10.1196C18.7805 10.1196 18.5796 10.1603 18.4053 10.2417C18.2348 10.3164 18.1013 10.4248 18.0053 10.5672C17.9093 10.703 17.8613 10.8658 17.8613 11.0489C17.8613 11.259 17.927 11.4355 18.0588 11.5712C18.1939 11.707 18.377 11.8087 18.6082 11.8628L19.8776 12.1476C20.2439 12.2223 20.5693 12.3648 20.8536 12.5816C21.1416 12.7918 21.3656 13.0496 21.5256 13.3615C21.6856 13.6667 21.7656 14.0059 21.7656 14.3722C21.7656 14.8198 21.6482 15.2201 21.4136 15.5793C21.1825 15.9319 20.8573 16.2168 20.4376 16.4136C20.0182 16.617 19.5382 16.7188 18.9976 16.7188L18.9973 16.7191Z" fill="white"/>
<path d="M16 22H9V23H16V22Z" fill="white"/>
<path d="M28.0943 32H11.9057C11.3928 32 10.8849 31.8989 10.411 31.7026C9.93718 31.5064 9.50663 31.2188 9.14395 30.8561C8.78128 30.4934 8.49358 30.0628 8.2973 29.589C8.10102 29.1151 8 28.6073 8 28.0944V23.9056C8 23.3927 8.10102 22.8849 8.2973 22.411C8.49358 21.9372 8.78128 21.5066 9.14395 21.1439C9.50663 20.7812 9.93718 20.4935 10.411 20.2972C10.8849 20.101 11.3928 20 11.9057 20H28.0943C28.6072 20 29.1151 20.101 29.589 20.2972C30.0628 20.4935 30.4934 20.7812 30.856 21.1439C31.2187 21.5066 31.5064 21.9372 31.7027 22.411C31.899 22.8849 32 23.3927 32 23.9056V28.0944C32 29.1302 31.5885 30.1236 30.856 30.8561C30.1236 31.5885 29.1302 32 28.0943 32V32Z" fill="#FDB60D"/>
<path d="M12.4561 23.3779H16.5754V24.4471H13.6497V25.5549H16.2245V26.6237H13.6497V27.7706H16.6146V28.8394H12.4561V23.3779Z" fill="black"/>
<path d="M19.5559 23.3394H20.6637L23.0043 28.8394H21.7482L21.2489 27.6146H18.9398L18.4405 28.8394H17.2158L19.5559 23.3394ZM20.8202 26.5536L20.0943 24.7823L19.369 26.5536H20.8202Z" fill="black"/>
<path d="M23.8467 23.3783H26.0781C26.343 23.3468 26.6117 23.3724 26.8659 23.4533C27.1202 23.5343 27.3541 23.6687 27.5522 23.8475C27.7502 24.0263 27.9077 24.2455 28.014 24.4902C28.1204 24.7349 28.1731 24.9994 28.1688 25.2662V25.282C28.1665 25.5585 28.1055 25.8315 27.9898 26.0827C27.8741 26.334 27.7063 26.5577 27.4976 26.7392C27.2889 26.9207 27.044 27.0558 26.7791 27.1355C26.5142 27.2152 26.2355 27.2377 25.9612 27.2015H25.0485V28.8397H23.8467V23.3783ZM25.9998 26.1323C26.1179 26.1473 26.2378 26.1372 26.3517 26.1026C26.4656 26.0681 26.571 26.0099 26.6608 25.9319C26.7507 25.8538 26.823 25.7576 26.8732 25.6496C26.9233 25.5417 26.9501 25.4244 26.9517 25.3054V25.2897C26.9517 24.7517 26.5774 24.4627 25.9765 24.4627H25.0485V26.1323H25.9998Z" fill="black"/>
<defs>
<linearGradient id="paint0_linear_4407_10051" x1="1.99098" y1="2.11122" x2="31.3434" y2="31.4637" gradientUnits="userSpaceOnUse">
<stop offset="0.28" stop-color="#007DFE"/>
<stop offset="0.73" stop-color="#00D980"/>
</linearGradient>
<linearGradient id="paint1_linear_4407_10051" x1="28.1894" y1="-0.35869" x2="0.969311" y2="12.2615" gradientUnits="userSpaceOnUse">
<stop offset="0.32" stop-color="#F7F219"/>
<stop offset="0.55" stop-color="#007DFE"/>
</linearGradient>
</defs>
</svg>
