<svg width="16" height="16" viewBox="0 0 16 16" fill="none" xmlns="http://www.w3.org/2000/svg">
<g clip-path="url(#clip0_4372_12080)">
<path d="M16 0H0V16H16V0Z" fill="#087CFA"/>
<path d="M15 1H1V15H15V1Z" fill="black"/>
<path d="M8 12H3V13H8V12Z" fill="white"/>
<path d="M2.90234 2.86663H4.89214C5.38734 2.86663 5.83034 2.97863 6.22114 3.20263C6.61434 3.42663 6.92174 3.73923 7.14334 4.13603C7.36474 4.53263 7.47554 4.98063 7.47554 5.48003C7.47554 5.97943 7.36474 6.42743 7.14334 6.82863C6.92174 7.22523 6.61434 7.53323 6.22114 7.75723C5.83034 7.98123 5.38734 8.09323 4.89214 8.09323H2.90234V2.86663ZM4.88094 7.21143C5.19214 7.21143 5.46454 7.14143 5.69854 7.00143C5.93254 6.86603 6.11294 6.66543 6.23994 6.40403C6.36694 6.14263 6.43034 5.83463 6.43034 5.48003C6.43034 5.12543 6.36694 4.81743 6.23994 4.55603C6.11294 4.29463 5.93254 4.09403 5.69854 3.95863C5.46454 3.81863 5.19194 3.74863 4.88094 3.74863H3.92154V7.21123H4.88094V7.21143ZM9.92234 8.18203C9.54414 8.18203 9.20814 8.11663 8.91434 7.97663C8.62314 7.84143 8.39414 7.65003 8.22734 7.40263C8.06314 7.15523 7.97854 6.87063 7.97354 6.55323H8.99654C8.99654 6.70263 9.03634 6.83783 9.11594 6.94983C9.19554 7.06643 9.30634 7.15523 9.44814 7.22043C9.58994 7.28583 9.75314 7.31843 9.93714 7.31843C10.1211 7.31843 10.2681 7.28583 10.4001 7.22983C10.5345 7.16923 10.6379 7.08983 10.7099 6.98243C10.7845 6.87983 10.8219 6.75843 10.8219 6.62783C10.8219 6.45983 10.7709 6.31983 10.6689 6.21243C10.5693 6.10043 10.4313 6.02583 10.2545 5.98383L9.33234 5.77843C9.08354 5.72243 8.86694 5.62903 8.68274 5.49843C8.49854 5.36303 8.35554 5.19983 8.25334 5.00383C8.15134 4.80323 8.10034 4.58383 8.10034 4.33643C8.10034 4.03783 8.17754 3.77163 8.33174 3.53383C8.48614 3.29583 8.70134 3.10923 8.97754 2.97843C9.25374 2.84303 9.56734 2.77783 9.91834 2.77783C10.2693 2.77783 10.5915 2.84303 10.8703 2.96903C11.1491 3.09963 11.3657 3.28163 11.5199 3.51043C11.6767 3.73903 11.7563 4.00503 11.7589 4.30383H10.7397C10.7397 4.17783 10.7061 4.06583 10.6389 3.96323C10.5717 3.86063 10.4759 3.78583 10.3515 3.72983C10.2295 3.67383 10.0889 3.64123 9.92974 3.64123C9.77054 3.64123 9.62994 3.66923 9.50794 3.72523C9.38854 3.77663 9.29514 3.85123 9.22794 3.94923C9.16074 4.04263 9.12714 4.15463 9.12714 4.28063C9.12714 4.42523 9.17314 4.54663 9.26534 4.64003C9.35994 4.73343 9.48814 4.80343 9.64994 4.84063L10.5385 5.03663C10.7949 5.08803 11.0227 5.18603 11.2217 5.33523C11.4233 5.47983 11.5801 5.65723 11.6921 5.87183C11.8041 6.08183 11.8601 6.31523 11.8601 6.56723C11.8601 6.87523 11.7779 7.15063 11.6137 7.39783C11.4519 7.64043 11.2243 7.83643 10.9305 7.97183C10.6369 8.11183 10.3009 8.18183 9.92254 8.18183L9.92234 8.18203Z" fill="white"/>
</g>
<defs>
<clipPath id="clip0_4372_12080">
<rect width="16" height="16" fill="white"/>
</clipPath>
</defs>
</svg>
