<svg width="128" height="128" viewBox="0 0 128 128" fill="none" xmlns="http://www.w3.org/2000/svg">
<path d="M113 15H15V113H113V15Z" fill="url(#paint0_linear)"/>
<path d="M95.2 32.8H32.8V95.2H95.2V32.8Z" fill="url(#paint1_linear)"/>
<path d="M104.6 23.4H23.3999V104.6H104.6V23.4V23.4Z" fill="url(#paint2_linear)"/>
<path d="M32.8 32.8H95.2L113 15H15L32.8 32.8Z" fill="url(#paint3_linear)"/>
<path d="M95.2 95.2H32.8L15 113H113L95.2 95.2Z" fill="url(#paint4_linear)"/>
<path d="M95.2 32.8V95.2L113 113V15L95.2 32.8Z" fill="url(#paint5_linear)"/>
<path d="M32.8 95.2V32.8L15 15V113L32.8 95.2Z" fill="url(#paint6_linear)"/>
<path d="M23.4 23.4H104.6L113 15H15L23.4 23.4Z" fill="url(#paint7_linear)"/>
<path d="M23.4 23.4H104.6L113 15H15L23.4 23.4Z" fill="url(#paint8_linear)"/>
<path d="M23.4 23.4H104.6L113 15H15L23.4 23.4Z" fill="url(#paint9_linear)"/>
<path d="M104.6 23.4H23.3999L32.7999 32.8H95.1999L104.6 23.4Z" fill="url(#paint10_linear)"/>
<path d="M104.6 104.6H23.4L15 113H113L104.6 104.6Z" fill="url(#paint11_linear)"/>
<path d="M104.6 104.6H23.4L15 113H113L104.6 104.6Z" fill="url(#paint12_linear)"/>
<path d="M104.6 104.6H23.4L15 113H113L104.6 104.6Z" fill="url(#paint13_linear)"/>
<path d="M104.6 104.6L113 113V15L104.6 23.4V104.6Z" fill="url(#paint14_linear)"/>
<path d="M104.6 104.6L113 113V15L104.6 23.4V104.6Z" fill="url(#paint15_linear)"/>
<path d="M104.6 104.6L113 113V15L104.6 23.4V104.6Z" fill="url(#paint16_linear)"/>
<path d="M104.6 104.6L113 113V15L104.6 23.4V104.6Z" fill="url(#paint17_linear)"/>
<path d="M23.4 104.6V23.4L15 15V113L23.4 104.6Z" fill="url(#paint18_linear)"/>
<path d="M23.4 104.6V23.4L15 15V113L23.4 104.6Z" fill="url(#paint19_linear)"/>
<path d="M23.3999 23.4V104.6L32.7999 95.2V32.8L23.3999 23.4Z" fill="url(#paint20_linear)"/>
<path d="M100 28H28V100H100V28Z" fill="url(#paint21_linear)"/>
<path d="M63.9999 86.4H36.8999V90.9H63.9999V86.4Z" fill="white"/>
<path d="M50.4 41.9V37H37V41.9H40.7V58.9H37V63.9H50.4V58.9H46.7V41.9H50.4Z" fill="white"/>
<path d="M63.3 64.2C61.2 64.2 59.4 63.8 58 63C56.6 62.2 55.4 61.3 54.5 60.2L58.2 56.1C59 56.9 59.7 57.6 60.5 58.1C61.3 58.6 62.1 58.8 63.1 58.8C64.2 58.8 65.1 58.4 65.8 57.7C66.4 57 66.8 55.9 66.8 54.3V37H72.9V54.6C72.9 56.2 72.7 57.6 72.2 58.8C71.8 60 71.1 61 70.3 61.8C69.5 62.6 68.5 63.2 67.3 63.7C66.1 64 64.8 64.2 63.3 64.2Z" fill="white"/>
<defs>
<linearGradient id="paint0_linear" x1="123.955" y1="123.955" x2="-14.4754" y2="-14.4751" gradientUnits="userSpaceOnUse">
<stop offset="0.3475" stop-color="#087CFA"/>
<stop offset="0.8562" stop-color="#FE2857"/>
<stop offset="1" stop-color="#FE2857"/>
</linearGradient>
<linearGradient id="paint1_linear" x1="102.153" y1="102.153" x2="14.061" y2="14.061" gradientUnits="userSpaceOnUse">
<stop offset="0.3475" stop-color="#087CFA"/>
<stop offset="0.8562" stop-color="#FE2857"/>
<stop offset="1" stop-color="#FE2857"/>
</linearGradient>
<linearGradient id="paint2_linear" x1="113.665" y1="113.665" x2="-1.0066" y2="-1.00637" gradientUnits="userSpaceOnUse">
<stop  offset="0" stop-color="#087CFA"/>
<stop offset="0.2816" stop-color="#0855FA"/>
<stop offset="0.7644" stop-color="#E0326B"/>
<stop offset="0.7721" stop-color="#FE2857"/>
<stop offset="1" stop-color="#FE2857"/>
</linearGradient>
<linearGradient id="paint3_linear" x1="120.043" y1="42.7945" x2="18.5559" y2="2.1311" gradientUnits="userSpaceOnUse">
<stop offset="0.3475" stop-color="#087CFA"/>
<stop offset="0.7698" stop-color="#F01A72"/>
<stop offset="0.9872" stop-color="#FE2857"/>
</linearGradient>
<linearGradient id="paint4_linear" x1="124.111" y1="115.695" x2="32.8186" y2="100.346" gradientUnits="userSpaceOnUse">
<stop offset="0.2513" stop-color="#087CFA" stop-opacity="0.9703"/>
<stop offset="0.5721" stop-color="#087CFA"/>
<stop offset="0.8921" stop-color="#087CFA" stop-opacity="0.5"/>
</linearGradient>
<linearGradient id="paint5_linear" x1="102.943" y1="16.9221" x2="105.922" y2="116.003" gradientUnits="userSpaceOnUse">
<stop offset="0.018393" stop-color="#429EFA"/>
<stop offset="0.518" stop-color="#087CFA"/>
<stop offset="1" stop-color="#965CF3" stop-opacity="0.9769"/>
</linearGradient>
<linearGradient id="paint6_linear" x1="27.9782" y1="105.755" x2="16.982" y2="16.9831" gradientUnits="userSpaceOnUse">
<stop offset="0.323" stop-color="#087CFA"/>
<stop offset="0.7201" stop-color="#DF0373"/>
<stop offset="1" stop-color="#FE2857"/>
</linearGradient>
<linearGradient id="paint7_linear" x1="60.0378" y1="19.011" x2="36.2125" y2="38.0254" gradientUnits="userSpaceOnUse">
<stop offset="0.1018" stop-color="#FF00BB" stop-opacity="0"/>
<stop offset="0.8133" stop-color="#FCBD36"/>
<stop offset="1" stop-color="white" stop-opacity="0.9"/>
</linearGradient>
<linearGradient id="paint8_linear" x1="114.546" y1="26.8182" x2="82.4733" y2="21.5492" gradientUnits="userSpaceOnUse">
<stop offset="0.018393" stop-color="#00FFFA"/>
<stop offset="0.8562" stop-color="#07C3F2" stop-opacity="0"/>
</linearGradient>
<linearGradient id="paint9_linear" x1="65.4507" y1="3.7556" x2="63.584" y2="18.2222" gradientUnits="userSpaceOnUse">
<stop offset="0.2032" stop-color="#087CFA"/>
<stop offset="1" stop-color="#6D6E71" stop-opacity="0"/>
</linearGradient>
<linearGradient id="paint10_linear" x1="93.6287" y1="15.7541" x2="42.0835" y2="34.3103" gradientUnits="userSpaceOnUse">
<stop offset="0.1744" stop-color="#0861FA"/>
<stop offset="0.723" stop-color="#0855FA" stop-opacity="0"/>
</linearGradient>
<linearGradient id="paint11_linear" x1="123.471" y1="119.5" x2="32.1788" y2="104.151" gradientUnits="userSpaceOnUse">
<stop  offset="0" stop-color="#434FCF" stop-opacity="0"/>
<stop offset="1" stop-color="#1B6EEC"/>
</linearGradient>
<linearGradient id="paint12_linear" x1="63.9998" y1="98.827" x2="63.9998" y2="110.779" gradientUnits="userSpaceOnUse">
<stop offset="0.018393" stop-color="#42FFFA"/>
<stop offset="0.8562" stop-color="#07C3F2" stop-opacity="0"/>
</linearGradient>
<linearGradient id="paint13_linear" x1="108.966" y1="92.1637" x2="80.3299" y2="103.847" gradientUnits="userSpaceOnUse">
<stop offset="0.018393" stop-color="#FF39FF" stop-opacity="0.5"/>
<stop offset="0.8562" stop-color="#FF318C" stop-opacity="0"/>
</linearGradient>
<linearGradient id="paint14_linear" x1="107.502" y1="16.7851" x2="110.48" y2="115.866" gradientUnits="userSpaceOnUse">
<stop offset="0.018393" stop-color="#085EFA"/>
<stop offset="0.8562" stop-color="#FF45ED" stop-opacity="0"/>
</linearGradient>
<linearGradient id="paint15_linear" x1="93.6899" y1="63.151" x2="114.537" y2="64.0673" gradientUnits="userSpaceOnUse">
<stop offset="0.018393" stop-color="#42FFFA"/>
<stop offset="0.8562" stop-color="#07C3F2" stop-opacity="0"/>
</linearGradient>
<linearGradient id="paint16_linear" x1="76.7673" y1="1.5154" x2="118.69" y2="77.8019" gradientUnits="userSpaceOnUse">
<stop offset="0.018393" stop-color="#42FFFA"/>
<stop offset="0.8562" stop-color="#07C3F2" stop-opacity="0"/>
</linearGradient>
<linearGradient id="paint17_linear" x1="91.3239" y1="18.654" x2="105.527" y2="52.1009" gradientUnits="userSpaceOnUse">
<stop offset="0.018393" stop-color="#42FFFA" stop-opacity="0.5"/>
<stop offset="0.8562" stop-color="#07C3F2" stop-opacity="0"/>
</linearGradient>
<linearGradient id="paint18_linear" x1="13.0184" y1="84.8177" x2="28.5964" y2="21.8183" gradientUnits="userSpaceOnUse">
<stop offset="0.4995" stop-color="#FF318C" stop-opacity="0"/>
<stop offset="0.9613" stop-color="#FCBD36"/>
</linearGradient>
<linearGradient id="paint19_linear" x1="-4.5165" y1="106.987" x2="17.4167" y2="63.3541" gradientUnits="userSpaceOnUse">
<stop offset="0.00131053" stop-color="#5AFFFA" stop-opacity="0.5"/>
<stop offset="0.9231" stop-color="#07C3F2" stop-opacity="0"/>
</linearGradient>
<linearGradient id="paint20_linear" x1="14.8073" y1="68.8015" x2="34.5089" y2="57.8053" gradientUnits="userSpaceOnUse">
<stop offset="0.018393" stop-color="#0855FA"/>
<stop offset="0.723" stop-color="#0855FA" stop-opacity="0"/>
</linearGradient>
<linearGradient id="paint21_linear" x1="28.1096" y1="28.1096" x2="91.1957" y2="91.1957" gradientUnits="userSpaceOnUse">
<stop offset="0.1196" stop-color="#5A044A"/>
<stop offset="0.3733" stop-color="#39032F"/>
<stop offset="0.7299" stop-color="#10010D"/>
<stop offset="0.9138"/>
</linearGradient>
</defs>
</svg>
