<svg width="32" height="32" viewBox="0 0 32 32" fill="none" xmlns="http://www.w3.org/2000/svg">
<path d="M28 4H4V28H28V4Z" fill="url(#paint0_linear)"/>
<path d="M23.5999 8.40002H8.3999V23.7H23.6999V8.40002H23.5999Z" fill="url(#paint1_linear)"/>
<path d="M25.9001 6.09998H6.1001V26H26.0001V6.09998H25.9001Z" fill="url(#paint2_linear)"/>
<path d="M8.4 8.4H23.6L28 4H4L8.4 8.4Z" fill="url(#paint3_linear)"/>
<path d="M23.6 23.6H8.4L4 28H28L23.6 23.6Z" fill="url(#paint4_linear)"/>
<path d="M23.6001 8.4V23.6L28.0001 28V4L23.6001 8.4Z" fill="url(#paint5_linear)"/>
<path d="M8.4 23.6V8.4L4 4V28L8.4 23.6Z" fill="url(#paint6_linear)"/>
<path d="M6.1 6.1H25.9L28 4H4L6.1 6.1Z" fill="url(#paint7_linear)"/>
<path d="M6.1 6.1H25.9L28 4H4L6.1 6.1Z" fill="url(#paint8_linear)"/>
<path d="M6.1 6.1H25.9L28 4H4L6.1 6.1Z" fill="url(#paint9_linear)"/>
<path d="M25.9001 6.09998H6.1001L8.4001 8.39998H23.6001L25.9001 6.09998Z" fill="url(#paint10_linear)"/>
<path d="M25.9 25.9H6.1L4 28H28L25.9 25.9Z" fill="url(#paint11_linear)"/>
<path d="M25.9 25.9H6.1L4 28H28L25.9 25.9Z" fill="url(#paint12_linear)"/>
<path d="M25.9 25.9H6.1L4 28H28L25.9 25.9Z" fill="url(#paint13_linear)"/>
<path d="M25.8999 25.9L27.9999 28V4L25.8999 6.1V25.9Z" fill="url(#paint14_linear)"/>
<path d="M25.8999 25.9L27.9999 28V4L25.8999 6.1V25.9Z" fill="url(#paint15_linear)"/>
<path d="M25.8999 25.9L27.9999 28V4L25.8999 6.1V25.9Z" fill="url(#paint16_linear)"/>
<path d="M25.8999 25.9L27.9999 28V4L25.8999 6.1V25.9Z" fill="url(#paint17_linear)"/>
<path d="M6.1 25.9V6.1L4 4V28L6.1 25.9Z" fill="url(#paint18_linear)"/>
<path d="M6.1 25.9V6.1L4 4V28L6.1 25.9Z" fill="url(#paint19_linear)"/>
<path d="M6.1001 6.09998V25.9L8.4001 23.6V8.39998L6.1001 6.09998Z" fill="url(#paint20_linear)"/>
<path d="M25 7H7V25H25V7Z" fill="url(#paint21_linear)"/>
<path d="M15.9997 21.6H9.19971V22.7H15.9997V21.6Z" fill="white"/>
<path d="M12.6 10.5V9.19995H9.19995V10.5H10.2V14.7H9.19995V16H12.6V14.7H11.7V10.5H12.6Z" fill="white"/>
<path d="M15.882 16.1C15.3747 16.1 14.918 15.9985 14.5629 15.7955C14.2077 15.5926 13.9033 15.3389 13.6497 15.0852L14.6136 14.0198C14.8166 14.2227 15.0195 14.4257 15.2225 14.5272C15.4254 14.6286 15.6283 14.7301 15.882 14.7301C16.1864 14.7301 16.3894 14.6286 16.5416 14.4764C16.6938 14.2735 16.7952 14.0198 16.7952 13.6139V9.19995H18.3173V13.6647C18.3173 14.0705 18.2666 14.4257 18.1651 14.7301C18.0636 15.0345 17.9114 15.2882 17.7085 15.4911C17.5055 15.6941 17.2519 15.8463 16.9475 15.9477C16.5923 16.0492 16.2372 16.1 15.882 16.1Z" fill="white"/>
<defs>
<linearGradient id="paint0_linear" x1="30.683" y1="30.6827" x2="-3.2185" y2="-3.2182" gradientUnits="userSpaceOnUse">
<stop offset="0.3475" stop-color="#087CFA"/>
<stop offset="0.8562" stop-color="#FE2857"/>
<stop offset="1" stop-color="#FE2857"/>
</linearGradient>
<linearGradient id="paint1_linear" x1="25.3436" y1="25.3433" x2="3.7699" y2="3.77012" gradientUnits="userSpaceOnUse">
<stop offset="0.3475" stop-color="#087CFA"/>
<stop offset="0.8562" stop-color="#FE2857"/>
<stop offset="1" stop-color="#FE2857"/>
</linearGradient>
<linearGradient id="paint2_linear" x1="28.163" y1="28.1626" x2="0.080197" y2="0.0800756" gradientUnits="userSpaceOnUse">
<stop  offset="0" stop-color="#087CFA"/>
<stop offset="0.2816" stop-color="#0855FA"/>
<stop offset="0.7644" stop-color="#E0326B"/>
<stop offset="0.7721" stop-color="#FE2857"/>
<stop offset="1" stop-color="#FE2857"/>
</linearGradient>
<linearGradient id="paint3_linear" x1="29.7247" y1="10.8068" x2="4.8708" y2="0.8484" gradientUnits="userSpaceOnUse">
<stop offset="0.3475" stop-color="#087CFA"/>
<stop offset="0.7698" stop-color="#F01A72"/>
<stop offset="0.9872" stop-color="#FE2857"/>
</linearGradient>
<linearGradient id="paint4_linear" x1="30.721" y1="28.6599" x2="8.3637" y2="24.901" gradientUnits="userSpaceOnUse">
<stop offset="0.2513" stop-color="#087CFA" stop-opacity="0.9703"/>
<stop offset="0.5721" stop-color="#087CFA"/>
<stop offset="0.8921" stop-color="#087CFA" stop-opacity="0.5"/>
</linearGradient>
<linearGradient id="paint5_linear" x1="25.5373" y1="4.4707" x2="26.2666" y2="28.7354" gradientUnits="userSpaceOnUse">
<stop offset="0.018393" stop-color="#429EFA"/>
<stop offset="0.518" stop-color="#087CFA"/>
<stop offset="1" stop-color="#965CF3" stop-opacity="0.9769"/>
</linearGradient>
<linearGradient id="paint6_linear" x1="7.1783" y1="26.2257" x2="4.4854" y2="4.4857" gradientUnits="userSpaceOnUse">
<stop offset="0.323" stop-color="#087CFA"/>
<stop offset="0.7201" stop-color="#DF0373"/>
<stop offset="1" stop-color="#FE2857"/>
</linearGradient>
<linearGradient id="paint7_linear" x1="15.0297" y1="4.9823" x2="9.1949" y2="9.6389" gradientUnits="userSpaceOnUse">
<stop offset="0.1018" stop-color="#FF00BB" stop-opacity="0"/>
<stop offset="0.8133" stop-color="#FCBD36"/>
<stop offset="1" stop-color="white" stop-opacity="0.9"/>
</linearGradient>
<linearGradient id="paint8_linear" x1="28.3786" y1="6.8943" x2="20.5241" y2="5.6039" gradientUnits="userSpaceOnUse">
<stop offset="0.018393" stop-color="#00FFFA"/>
<stop offset="0.8562" stop-color="#07C3F2" stop-opacity="0"/>
</linearGradient>
<linearGradient id="paint9_linear" x1="16.3553" y1="1.2463" x2="15.8981" y2="4.7891" gradientUnits="userSpaceOnUse">
<stop offset="0.2032" stop-color="#087CFA"/>
<stop offset="1" stop-color="#6D6E71" stop-opacity="0"/>
</linearGradient>
<linearGradient id="paint10_linear" x1="23.2561" y1="4.18468" x2="10.6328" y2="8.72908" gradientUnits="userSpaceOnUse">
<stop offset="0.1744" stop-color="#0861FA"/>
<stop offset="0.723" stop-color="#0855FA" stop-opacity="0"/>
</linearGradient>
<linearGradient id="paint11_linear" x1="30.5643" y1="29.5919" x2="8.207" y2="25.8329" gradientUnits="userSpaceOnUse">
<stop  offset="0" stop-color="#434FCF" stop-opacity="0"/>
<stop offset="1" stop-color="#1B6EEC"/>
</linearGradient>
<linearGradient id="paint12_linear" x1="15.9999" y1="24.529" x2="15.9999" y2="27.4561" gradientUnits="userSpaceOnUse">
<stop offset="0.018393" stop-color="#42FFFA"/>
<stop offset="0.8562" stop-color="#07C3F2" stop-opacity="0"/>
</linearGradient>
<linearGradient id="paint13_linear" x1="27.0121" y1="22.8972" x2="19.9992" y2="25.7585" gradientUnits="userSpaceOnUse">
<stop offset="0.018393" stop-color="#FF39FF" stop-opacity="0.5"/>
<stop offset="0.8562" stop-color="#FF318C" stop-opacity="0"/>
</linearGradient>
<linearGradient id="paint14_linear" x1="26.6534" y1="4.4372" x2="27.3827" y2="28.7018" gradientUnits="userSpaceOnUse">
<stop offset="0.018393" stop-color="#085EFA"/>
<stop offset="0.8562" stop-color="#FF45ED" stop-opacity="0"/>
</linearGradient>
<linearGradient id="paint15_linear" x1="23.2709" y1="15.7921" x2="28.3763" y2="16.0165" gradientUnits="userSpaceOnUse">
<stop offset="0.018393" stop-color="#42FFFA"/>
<stop offset="0.8562" stop-color="#07C3F2" stop-opacity="0"/>
</linearGradient>
<linearGradient id="paint16_linear" x1="19.1266" y1="0.6976" x2="29.3935" y2="19.3801" gradientUnits="userSpaceOnUse">
<stop offset="0.018393" stop-color="#42FFFA"/>
<stop offset="0.8562" stop-color="#07C3F2" stop-opacity="0"/>
</linearGradient>
<linearGradient id="paint17_linear" x1="22.6914" y1="4.8948" x2="26.1699" y2="13.0859" gradientUnits="userSpaceOnUse">
<stop offset="0.018393" stop-color="#42FFFA" stop-opacity="0.5"/>
<stop offset="0.8562" stop-color="#07C3F2" stop-opacity="0"/>
</linearGradient>
<linearGradient id="paint18_linear" x1="3.5147" y1="21.0982" x2="7.3297" y2="5.6698" gradientUnits="userSpaceOnUse">
<stop offset="0.4995" stop-color="#FF318C" stop-opacity="0"/>
<stop offset="0.9613" stop-color="#FCBD36"/>
</linearGradient>
<linearGradient id="paint19_linear" x1="-0.7796" y1="26.5275" x2="4.5918" y2="15.8418" gradientUnits="userSpaceOnUse">
<stop offset="0.00131053" stop-color="#5AFFFA" stop-opacity="0.5"/>
<stop offset="0.9231" stop-color="#07C3F2" stop-opacity="0"/>
</linearGradient>
<linearGradient id="paint20_linear" x1="3.95293" y1="17.1759" x2="8.7778" y2="14.4829" gradientUnits="userSpaceOnUse">
<stop offset="0.018393" stop-color="#0855FA"/>
<stop offset="0.723" stop-color="#0855FA" stop-opacity="0"/>
</linearGradient>
<linearGradient id="paint21_linear" x1="7.0274" y1="7.0274" x2="22.7989" y2="22.7989" gradientUnits="userSpaceOnUse">
<stop offset="0.1196" stop-color="#5A044A"/>
<stop offset="0.3733" stop-color="#39032F"/>
<stop offset="0.7299" stop-color="#10010D"/>
<stop offset="0.9138"/>
</linearGradient>
</defs>
</svg>
