<svg width="16" height="16" viewBox="0 0 16 16" fill="none" xmlns="http://www.w3.org/2000/svg">
<path d="M14.4639 10.6915C14.8093 9.8629 15 8.95372 15 8C15 4.13401 11.866 1 8 1C4.13401 1 1 4.13401 1 8C1 11.6622 3.81225 14.6675 7.39498 14.9742L12.0001 5.76395L14.4639 10.6915Z" fill="#25324D"/>
<path fill-rule="evenodd" clip-rule="evenodd" d="M12 8L16 16L12.6667 14.5391L12 8Z" fill="url(#paint0_linear_5148_55591)"/>
<path fill-rule="evenodd" clip-rule="evenodd" d="M10.6333 13.6552L16 16H8L10.6333 13.6552Z" fill="url(#paint1_linear_5148_55591)"/>
<path d="M12 8L12.4159 12.0799L10.6387 13.6576L10.6333 13.6552L8 16L12 8Z" fill="url(#paint2_linear_5148_55591)"/>
<path fill-rule="evenodd" clip-rule="evenodd" d="M10.0395 9.6847L9.20915 11.3454C8.86596 11.4485 8.48442 11.5 8.06454 11.5C7.43768 11.5 6.87393 11.3498 6.37331 11.0494C5.87269 10.7491 5.4809 10.3333 5.19794 9.80224C4.91933 9.26679 4.78003 8.66169 4.78003 7.98694C4.78003 7.3296 4.92151 6.73539 5.20447 6.20429C5.49178 5.6732 5.88575 5.25746 6.38637 4.95709C6.88699 4.65236 7.44638 4.5 8.06454 4.5C8.69576 4.5 9.24862 4.65019 9.72313 4.95056C10.202 5.25093 10.5698 5.66667 10.8267 6.19776C11.0075 6.56545 11.1257 6.96653 11.1814 7.401L10.7545 8.25466H5.84462C5.87803 8.64561 5.97372 9.00257 6.13171 9.32556C6.33196 9.7217 6.60621 10.0308 6.95447 10.2528C7.30273 10.4748 7.69452 10.5858 8.12984 10.5858C8.42151 10.5858 8.69141 10.551 8.93954 10.4813C9.19203 10.4073 9.40969 10.3029 9.59253 10.1679C9.77972 10.0286 9.92337 9.86754 10.0235 9.6847H10.0395ZM5.87191 7.39272H10.1337C10.0949 7.11942 10.0277 6.86911 9.93208 6.64179C9.77101 6.25435 9.53158 5.95398 9.2138 5.74067C8.90036 5.52736 8.52163 5.42071 8.0776 5.42071C7.63357 5.42071 7.24178 5.52519 6.90223 5.73414C6.56268 5.93874 6.29931 6.23259 6.11212 6.61567C5.99609 6.85044 5.91602 7.10945 5.87191 7.39272Z" fill="#548AF7"/>
<path d="M13.83 9.42381C13.9411 8.96741 14 8.49058 14 8C14 4.68629 11.3137 2 8 2C4.68629 2 2 4.68629 2 8C2 11.2745 4.6231 13.9363 7.88265 13.9989L7.39498 14.9742C3.81225 14.6675 1 11.6622 1 8C1 4.13401 4.13401 1 8 1C11.866 1 15 4.13401 15 8C15 8.95372 14.8093 9.8629 14.4639 10.6915L13.83 9.42381Z" fill="#548AF7"/>
<defs>
<linearGradient id="paint0_linear_5148_55591" x1="10.055" y1="12.2199" x2="16.3497" y2="15.2808" gradientUnits="userSpaceOnUse">
<stop stop-color="#B83535"/>
<stop offset="1" stop-color="#FD5B5A"/>
</linearGradient>
<linearGradient id="paint1_linear_5148_55591" x1="17.6001" y1="15.019" x2="15.3537" y2="11.3546" gradientUnits="userSpaceOnUse">
<stop stop-color="#01B202"/>
<stop offset="1" stop-color="#0FE90F"/>
</linearGradient>
<linearGradient id="paint2_linear_5148_55591" x1="9.90575" y1="4.80754" x2="3.59968" y2="8.51456" gradientUnits="userSpaceOnUse">
<stop stop-color="#7777E9"/>
<stop offset="1" stop-color="#01009A"/>
</linearGradient>
</defs>
</svg>
