<svg width="17" height="16" viewBox="0 0 17 16" fill="none" xmlns="http://www.w3.org/2000/svg">
<path d="M7.99985 0.519623L8.76765 7.90492L5.48661 10.7609L5.47677 10.7567L0.615234 15.0011L7.99985 0.519623Z" fill="url(#paint0_linear_5329_56952)"/>
<path d="M9.03223 12.2534C9.03223 10.9505 10.0885 9.89429 11.3914 9.89429V9.89429C12.6943 9.89429 13.7505 10.9505 13.7505 12.2534V13.1381C13.7505 14.441 12.6943 15.4973 11.3914 15.4973V15.4973C10.0885 15.4973 9.03223 14.441 9.03223 13.1381V12.2534Z" fill="#253627"/>
<path fill-rule="evenodd" clip-rule="evenodd" d="M15.2322 14.6446L13.5001 13.6446L14.0001 12.7786L15.7322 13.7786C15.9713 13.9166 16.0533 14.2224 15.9152 14.4616C15.7771 14.7007 15.4713 14.7827 15.2322 14.6446Z" fill="#57965C"/>
<path fill-rule="evenodd" clip-rule="evenodd" d="M15.7438 11.2524L13.9913 12.217L13.5091 11.341L15.2616 10.3764C15.5035 10.2432 15.8075 10.3314 15.9407 10.5733C16.0739 10.8152 15.9857 11.1193 15.7438 11.2524Z" fill="#57965C"/>
<path fill-rule="evenodd" clip-rule="evenodd" d="M7.5503 14.6436L9.28235 13.6436L8.78235 12.7776L7.0503 13.7776C6.81115 13.9157 6.72921 14.2215 6.86728 14.4606C7.00535 14.6998 7.31115 14.7817 7.5503 14.6436Z" fill="#57965C"/>
<path fill-rule="evenodd" clip-rule="evenodd" d="M7.03849 11.2534L8.79143 12.2172L9.27323 11.3409L7.52029 10.3771C7.27831 10.244 6.9743 10.3324 6.84125 10.5743C6.7082 10.8163 6.79651 11.1203 7.03849 11.2534Z" fill="#57965C"/>
<path fill-rule="evenodd" clip-rule="evenodd" d="M13.166 10.0115C13.1817 9.91581 13.1899 9.81759 13.1899 9.71745C13.1899 8.7247 12.3851 7.91992 11.3924 7.91992C10.3996 7.91992 9.59485 8.7247 9.59485 9.71745C9.59485 9.81716 9.60296 9.91496 9.61857 10.0103C8.95688 10.5339 8.53235 11.3441 8.53235 12.2535V13.1382C8.53235 14.7172 9.81243 15.9973 11.3915 15.9973C12.9706 15.9973 14.2506 14.7172 14.2506 13.1382V12.2535C14.2506 11.3448 13.8268 10.5352 13.166 10.0115ZM10.6254 9.49815C10.8692 9.4305 11.1261 9.39435 11.3915 9.39435C11.6576 9.39435 11.9151 9.43069 12.1595 9.49868C12.0644 9.16458 11.757 8.91992 11.3924 8.91992C11.028 8.91992 10.7206 9.16432 10.6254 9.49815ZM9.53235 12.2535C9.53235 11.2267 10.3647 10.3943 11.3915 10.3943C12.4183 10.3943 13.2506 11.2267 13.2506 12.2535V13.1382C13.2506 14.165 12.4183 14.9973 11.3915 14.9973C10.3647 14.9973 9.53235 14.165 9.53235 13.1382V12.2535Z" fill="#57965C"/>
<path d="M5.78108 10.887C5.80567 11.3902 6.08308 11.8691 6.55687 12.1297L7.2473 12.5093L6.55048 12.9116C5.83304 13.3258 5.58723 14.2432 6.00144 14.9606C6.00933 14.9743 6.01741 14.9878 6.02566 15.0011H0.615234L5.47677 10.7567L5.78108 10.887Z" fill="url(#paint1_linear_5329_56952)"/>
<path d="M11.2652 6.92277L8 0.519623L8.83768 8.57612C9.25802 7.63662 10.1814 6.97134 11.2652 6.92277Z" fill="url(#paint2_linear_5329_56952)"/>
<defs>
<linearGradient id="paint0_linear_5329_56952" x1="4.13355" y1="-5.25933" x2="-7.38965" y2="1.64919" gradientUnits="userSpaceOnUse">
<stop stop-color="#7777E9"/>
<stop offset="1" stop-color="#01009A"/>
</linearGradient>
<linearGradient id="paint1_linear_5329_56952" x1="18.3386" y1="13.2254" x2="14.3088" y2="6.52139" gradientUnits="userSpaceOnUse">
<stop stop-color="#01B202"/>
<stop offset="1" stop-color="#0FE90F"/>
</linearGradient>
<linearGradient id="paint2_linear_5329_56952" x1="4.4092" y1="8.15849" x2="15.9417" y2="13.8777" gradientUnits="userSpaceOnUse">
<stop stop-color="#B83535"/>
<stop offset="1" stop-color="#FD5B5A"/>
</linearGradient>
</defs>
</svg>
