<svg xmlns="http://www.w3.org/2000/svg" width="256" height="256" fill="none" viewBox="0 0 256 256">
  <defs>
    <linearGradient id="a" x1="48.175" x2="106.803" y1="51.131" y2="186.902" gradientUnits="userSpaceOnUse">
      <stop offset=".068" stop-color="#FF4EFD"/>
      <stop offset=".964" stop-color="#484DFC"/>
    </linearGradient>
    <linearGradient id="b" x1="0" x2="70.204" y1="58" y2="226.04" gradientUnits="userSpaceOnUse">
      <stop stop-color="#DA38FF"/>
      <stop offset=".223" stop-color="#DA38FF"/>
      <stop offset=".828" stop-color="#087CFA"/>
    </linearGradient>
    <linearGradient id="c" x1="132" x2="92.275" y1="155.019" y2="37.68" gradientUnits="userSpaceOnUse">
      <stop offset=".281" stop-color="#6B57FF"/>
      <stop offset=".875" stop-color="#9E3DFF"/>
    </linearGradient>
    <linearGradient id="d" x1="21" x2="21" y1="72.5" y2="118.5" gradientUnits="userSpaceOnUse">
      <stop stop-color="#E19AFB"/>
      <stop offset=".688" stop-color="#EB73FF" stop-opacity=".69"/>
    </linearGradient>
    <linearGradient id="e" x1="198.971" x2="-7.618" y1="82.595" y2="201.317" gradientUnits="userSpaceOnUse">
      <stop offset=".044" stop-color="#3BEA62"/>
      <stop offset=".98" stop-color="#009AE5"/>
    </linearGradient>
    <linearGradient id="f" x1="233.751" x2="83.583" y1="111.902" y2="198.2" gradientUnits="userSpaceOnUse">
      <stop offset=".01" stop-color="#3BEA62"/>
      <stop offset=".3" stop-color="#2BD486"/>
      <stop offset=".76" stop-color="#009AE5"/>
    </linearGradient>
    <linearGradient id="g" x1="150.903" x2="204.037" y1="-20.741" y2="97.847" gradientUnits="userSpaceOnUse">
      <stop offset=".193" stop-color="#3BEA62"/>
      <stop offset=".333" stop-color="#39E766"/>
      <stop offset=".474" stop-color="#33E072"/>
      <stop offset=".616" stop-color="#2AD386"/>
      <stop offset=".759" stop-color="#1DC2A2"/>
      <stop offset=".9" stop-color="#0DACC6"/>
      <stop offset="1" stop-color="#009AE5"/>
    </linearGradient>
    <linearGradient id="h" x1="103.005" x2="185.4" y1="26.863" y2="44.574" gradientUnits="userSpaceOnUse">
      <stop offset=".097" stop-color="#A8FF68"/>
      <stop offset=".501" stop-color="#2BD486" stop-opacity="0"/>
    </linearGradient>
    <linearGradient id="i" x1="273.69" x2="205.925" y1="59.746" y2="42.804" gradientUnits="userSpaceOnUse">
      <stop offset=".463" stop-color="#3BEA62"/>
      <stop offset=".98" stop-color="#009AE5"/>
    </linearGradient>
    <linearGradient id="j" x1="125.443" x2="93.441" y1="269.719" y2="92.007" gradientUnits="userSpaceOnUse">
      <stop offset=".044" stop-color="#3BEA62"/>
      <stop offset=".98" stop-color="#009AE5"/>
    </linearGradient>
    <linearGradient id="k" x1="63.651" x2="112.133" y1="86.97" y2="199.245" gradientUnits="userSpaceOnUse">
      <stop stop-color="#C7489F"/>
      <stop offset=".072" stop-color="#C34DA5" stop-opacity=".914"/>
      <stop offset=".216" stop-color="#B95CB4" stop-opacity=".69"/>
      <stop offset=".415" stop-color="#A974CD" stop-opacity=".332"/>
      <stop offset=".585" stop-color="#9B8BE5" stop-opacity="0"/>
    </linearGradient>
    <linearGradient id="l" x1="161" x2="24" y1="53" y2="89" gradientUnits="userSpaceOnUse">
      <stop offset=".044" stop-color="#3BEA62"/>
      <stop offset=".98" stop-color="#009AE5"/>
    </linearGradient>
    <linearGradient id="m" x1="78.999" x2="55.555" y1="234" y2="125.631" gradientUnits="userSpaceOnUse">
      <stop offset=".373" stop-color="#3BEA62" stop-opacity="0"/>
      <stop offset="1" stop-color="#C931FF"/>
    </linearGradient>
    <linearGradient id="n" x1="54.82" x2="116.924" y1="112.506" y2="103.967" gradientUnits="userSpaceOnUse">
      <stop stop-color="#26B2C4" stop-opacity="0"/>
      <stop offset=".287" stop-color="#43C3AA" stop-opacity=".285"/>
      <stop offset=".953" stop-color="#8CF06A" stop-opacity=".994"/>
      <stop offset=".958" stop-color="#8DF16A"/>
    </linearGradient>
    <linearGradient id="o" x1="214.283" x2="111.469" y1="143.526" y2="270.171" gradientUnits="userSpaceOnUse">
      <stop stop-color="#C7489F"/>
      <stop offset=".072" stop-color="#C34DA5" stop-opacity=".914"/>
      <stop offset=".216" stop-color="#B95CB4" stop-opacity=".69"/>
      <stop offset=".415" stop-color="#A974CD" stop-opacity=".332"/>
      <stop offset=".585" stop-color="#9B8BE5" stop-opacity="0"/>
    </linearGradient>
    <linearGradient id="p" x1="187.229" x2="173.871" y1="167.83" y2="184.284" gradientUnits="userSpaceOnUse">
      <stop offset=".306" stop-color="#EB73FF" stop-opacity="0"/>
      <stop offset="1" stop-color="#BD31FF"/>
    </linearGradient>
    <linearGradient id="q" x1="28" x2="117" y1="143" y2="256" gradientUnits="userSpaceOnUse">
      <stop offset=".212" stop-color="#3BEA62"/>
      <stop offset=".98" stop-color="#009AE5"/>
    </linearGradient>
    <linearGradient id="r" x1="233.596" x2="199.714" y1="66.583" y2="163.609" gradientUnits="userSpaceOnUse">
      <stop offset=".097" stop-color="#95F286"/>
      <stop offset=".501" stop-color="#2BD486" stop-opacity="0"/>
    </linearGradient>
    <linearGradient id="s" x1="45.988" x2="205.081" y1="48.386" y2="202.828" gradientUnits="userSpaceOnUse">
      <stop stop-color="#007859"/>
      <stop offset=".088" stop-color="#00533E"/>
      <stop offset=".192" stop-color="#002F23"/>
      <stop offset=".289" stop-color="#001510"/>
      <stop offset=".377" stop-color="#000604"/>
      <stop offset=".445"/>
      <stop offset=".914"/>
    </linearGradient>
    <linearGradient id="t" x1="62.642" x2="107.117" y1="68.645" y2="171.639" gradientUnits="userSpaceOnUse">
      <stop offset=".326" stop-color="#FF318C"/>
      <stop offset=".384" stop-color="#F4358F"/>
      <stop offset=".484" stop-color="#D84099"/>
      <stop offset=".614" stop-color="#AA53A9"/>
      <stop offset=".769" stop-color="#6B6DBF"/>
      <stop offset=".944" stop-color="#1B8EDB"/>
      <stop offset="1" stop-color="#009AE5"/>
    </linearGradient>
    <linearGradient id="u" x1="39.703" x2="66.471" y1="132.287" y2="194.277" gradientUnits="userSpaceOnUse">
      <stop offset=".058" stop-color="#FF318C"/>
      <stop offset=".141" stop-color="#F43492"/>
      <stop offset=".285" stop-color="#D83DA4"/>
      <stop offset=".47" stop-color="#AB4CC1"/>
      <stop offset=".584" stop-color="#8C57D5"/>
      <stop offset=".71" stop-color="#5C6DDA"/>
      <stop offset=".933" stop-color="#009AE5"/>
    </linearGradient>
    <linearGradient id="v" x1="58.832" x2="149.303" y1="71.82" y2="179.87" gradientUnits="userSpaceOnUse">
      <stop offset=".191" stop-color="#FF318C"/>
      <stop offset=".464" stop-color="#8363B7"/>
      <stop offset=".764" stop-color="#009AE5"/>
    </linearGradient>
    <linearGradient id="w" x1="181.896" x2="11.139" y1="97.016" y2="195.146" gradientUnits="userSpaceOnUse">
      <stop offset=".044" stop-color="#3BEA62"/>
      <stop offset=".877" stop-color="#024546"/>
    </linearGradient>
    <linearGradient id="x" x1="149.089" x2="209.396" y1="41.822" y2="79.137" gradientUnits="userSpaceOnUse">
      <stop offset=".097" stop-color="#A8FF68"/>
      <stop offset=".501" stop-color="#2BD486"/>
      <stop offset="1" stop-color="#1686E6"/>
    </linearGradient>
    <linearGradient id="y" x1="115.571" x2="30.352" y1="55.331" y2="222.176" gradientUnits="userSpaceOnUse">
      <stop offset=".044" stop-color="#99EA51"/>
      <stop offset=".98" stop-color="#009AE5"/>
    </linearGradient>
    <linearGradient id="z" x1="204.328" x2="172.499" y1="100.786" y2="223.481" gradientUnits="userSpaceOnUse">
      <stop offset=".097" stop-color="#95F286"/>
      <stop offset=".501" stop-color="#2BD486"/>
    </linearGradient>
  </defs>
  <path fill="url(#a)" d="m120.993 91.942-108.27-26.46L0 95.582l39.028 124.835 103.696 35.581 44.634-73.017-66.365-91.04Z"/>
  <path fill="url(#b)" d="M12.723 65.481 0 95.583l39.028 124.835 18.33-51.436 4-30-48.635-73.5Z"/>
  <path fill="url(#c)" d="M120.993 91.46 12.723 65 0 95.102l127.307 44.025-6.314-47.666Z"/>
  <path fill="url(#d)" d="M12.724 65.483.001 95.585l42.327 14.637-29.604-44.74Z"/>
  <path fill="url(#e)" d="m255.997 73.23-26.021-50.949L97.2.001 39.025 220.419 142.721 256 255.997 73.23Z"/>
  <path fill="url(#f)" d="M256.001 73.23 229.98 22.282 142.725 256 256.001 73.23Z"/>
  <path fill="url(#g)" d="m256 73.23-26.02-50.949L97.203.001l44.156 66.982L256 73.23Z"/>
  <path fill="url(#h)" d="m256 73.23-26.02-50.949L97.203.001l44.156 66.982L256 73.23Z"/>
  <path fill="url(#i)" d="m256 73.231-26.02-50.95-18.123 48.544L256 73.23Z"/>
  <path fill="url(#j)" d="m61.36 138.982-.6-.904-21.73 82.341L142.724 256l44.634-73.018-126-44Z"/>
  <path fill="url(#k)" d="m187.359 182.983-58-90-53.51-12.073-36.82 139.509L142.725 256l44.634-73.017Z"/>
  <path fill="url(#l)" d="M141.356 66.983 97.2 0 39.025 220.419l54.33-51.436 48.001-102Z"/>
  <path fill="url(#m)" d="m39.03 220.418 54.33-51.436 7.608-16.168-39.609-13.832-.598-.904-10.308 39.057-11.424 43.283Z"/>
  <path fill="url(#n)" d="m65.955 118.393 44.042 15.231 19.361-40.64-53.51-12.074-9.893 37.483Z"/>
  <path fill="url(#o)" d="m142.725 256.001 44.634-73.018-11.001-17.071-33.633 90.089Z"/>
  <path fill="url(#p)" d="m187.357 182.983-11.001-17.071-4.37 11.704 15.371 5.367Z"/>
  <path fill="url(#q)" d="m93.36 168.982-54.33 51.437L142.724 256l-49.366-87.018Z"/>
  <path fill="url(#r)" d="m211.857 70.824-69.132 185.175L256 73.23l-44.143-2.406Z"/>
  <path fill="url(#s)" d="M208 48H48v160h160V48Z"/>
  <g opacity=".2">
    <path fill="url(#t)" d="M48.007 74.238v133.765h123.529l15.293-25.017-66.365-91.04-72.457-17.708Z"/>
    <path fill="url(#u)" d="m48.007 193.743 8.822-24.757 4-30-12.822-19.378v74.135Z"/>
    <path fill="url(#v)" d="m48.007 112.372 78.77 27.241-6.313-47.667-72.457-17.708v38.134Z"/>
    <path fill="url(#w)" d="M208.007 149.817V48.003H84.005L48.007 184.398v23.605h123.937l36.063-58.186Z"/>
    <path fill="url(#x)" d="m140.83 66.986 67.177 3.661V48.003h-79.691l12.514 18.983Z"/>
    <path fill="url(#y)" d="M48.007 184.398v23.605h3.61l41.212-39.017 48-102-12.513-18.983H84.005L48.007 184.398Z"/>
    <path fill="url(#z)" d="m171.944 208.003 36.063-58.186V79.722l-47.892 128.281h11.829Z"/>
  </g>
  <path fill="#fff" d="M127.998 178h-60v10h60v-10Z"/>
  <path fill="#fff" d="M154.784 68.309h11.723l24.769 59.851h-13.293l-5.284-13.329h-24.438l-5.284 13.329h-12.962l24.769-59.851Zm13.374 34.976-7.678-19.27-7.678 19.27h15.356Z"/>
  <path fill="#fff" d="m119.923 129.942-6.357-5.857c-4.871 3.225-10.733 5.093-17.173 5.093-17.833 0-30.63-13.668-30.63-30.562v-.17c0-16.894 12.962-30.732 30.795-30.732 17.834 0 30.631 13.668 30.631 30.563v.17c0 6.281-1.899 12.139-5.119 17.063l5.944 5.179-8.091 9.253Zm-15.769-14.432-9.412-8.235 8.091-9.338 9.495 8.829c.99-2.377 1.568-5.179 1.568-8.15v-.17c0-10.187-7.265-18.677-17.503-18.677s-17.338 8.32-17.338 18.507v.17c0 10.188 7.266 18.677 17.503 18.677 2.807 0 5.367-.509 7.596-1.613Z"/>
  <rect width="255.998" height="80" y="176" fill="#3BEA62" rx="26"/>
  <g opacity=".9">
    <path fill="#010101" d="M21.97 231.774h6.85v-9.505h5.205c6.983 0 12.587-3.802 12.587-11.135v-.09c0-6.473-4.492-10.953-11.92-10.953H21.97v31.683Zm6.85-15.706v-9.686h5.294c3.425 0 5.56 1.675 5.56 4.798v.09c0 2.716-2.002 4.798-5.427 4.798h-5.426Z"/>
    <path fill="#010101" d="M51.682 231.774h6.85v-10.139h5.382l6.672 10.139h8.006l-7.606-11.316c3.959-1.493 6.672-4.707 6.672-9.822v-.09c0-2.987-.934-5.477-2.669-7.242-2.046-2.082-5.115-3.213-9.074-3.213H51.682v31.683Zm6.85-16.295v-9.097h6.805c3.336 0 5.382 1.539 5.382 4.526v.091c0 2.67-1.912 4.48-5.248 4.48h-6.94Z"/>
    <path fill="#010101" d="M83.825 231.774h23.708v-6.201H90.631v-6.654h14.678v-6.2H90.631v-6.428h16.68v-6.2H83.825v31.683Z"/>
    <path fill="#010101" d="M123.542 232h6.049l12.588-31.909h-7.383l-8.14 22.314-8.14-22.314h-7.562L123.542 232Z"/>
    <path fill="#010101" d="M147.294 231.774h6.85v-31.683h-6.85v31.683Z"/>
    <path fill="#010101" d="M161.925 231.774h23.708v-6.201h-16.902v-6.654h14.678v-6.2h-14.678v-6.428h16.68v-6.2h-23.486v31.683Z"/>
    <path fill="#010101" d="M199.952 232h5.96l7.028-20.73 7.028 20.73h5.96l10.631-31.909h-7.161l-6.45 21.454L215.965 200h-5.871l-6.984 21.545-6.449-21.454h-7.34L199.952 232Z"/>
  </g>
</svg>
