<!-- Copyright © 2000–2024 JetBrains s.r.o. -->
<svg width="16" height="16" viewBox="0 0 16 16" xmlns="http://www.w3.org/2000/svg">
  <path d="M11.11 10.65 9.29 11.7c-.08.05-.19-.01-.19-.11v-3.1c0-.09.05-.18.13-.22l2.68-1.55c.08-.05.19.01.19.11v2.1l2.21 1.27V4.06L8.99.99v2.55l1.82 1.05c.08.05.08.17 0 .22L8.13 6.36c-.08.05-.18.04-.25 0L5.2 4.81c-.08-.04-.08-.17 0-.22l1.82-1.05V1L1.69 4.07v6.14L3.9 8.94v-2.1c0-.09.11-.16.19-.11l2.68 1.55c.08.05.13.13.13.22v3.1c0 .09-.11.16-.19.11l-1.82-1.05-2.21 1.27L8 15l5.32-3.07-2.21-1.27Z"/>
</svg>
