<svg width="16" height="16" viewBox="0 0 16 16" fill="none" xmlns="http://www.w3.org/2000/svg">
<g clip-path="url(#clip0_4372_12778)">
<g clip-path="url(#clip1_4372_12778)">
<path d="M16 0H0V16H16V0Z" fill="#FE2857"/>
<path d="M15 1H1V15H15V1Z" fill="black"/>
<path d="M8.19971 3H9.49971L10.8998 5.60377L12.1998 3H13.4998V9H12.2998V5.15094L10.8998 7.64151H10.7998L9.39971 5.15094V9H8.19971V3Z" fill="white"/>
<path d="M3 3H5.4C6.1 3 6.6 3.22642 6.9 3.56604C7.3 4.01887 7.4 4.4717 7.4 5.03774C7.4 5.49057 7.3 5.9434 7.1 6.16981C6.9 6.50943 6.6 6.73585 6.3 6.84906L7.6 9H6.2L5.1 7.18868H4.1V9H3V3ZM5.4 5.9434C5.7 5.9434 5.9 5.83019 6.1 5.71698C6.2 5.60377 6.3 5.37736 6.3 5.15094C6.3 4.81132 6.2 4.58491 6 4.4717C5.9 4.24528 5.6 4.24528 5.3 4.24528H4.2V5.9434H5.4Z" fill="white"/>
<path d="M9 12H3V13H9V12Z" fill="white"/>
</g>
<path d="M15 1H1V15H15V1Z" fill="black"/>
<path d="M6.09786 5.9169C6.38166 5.7801 6.59926 5.5883 6.75126 5.3419C6.90546 5.0931 6.98266 4.8067 6.98266 4.4831C6.98266 4.1595 6.90666 3.8797 6.75486 3.6357C6.60546 3.3917 6.39146 3.2027 6.11266 3.0683C5.83386 2.9339 5.51166 2.8667 5.14566 2.8667H2.90186V8.0933H3.92106V6.1183H4.79926L5.92606 8.0933H7.09466L5.84906 5.9993C5.93266 5.9727 6.02126 5.9535 6.09786 5.9169ZM3.92146 3.7141H5.07886C5.25066 3.7141 5.39986 3.7463 5.52686 3.8111C5.65626 3.8731 5.75586 3.9629 5.82546 4.0799C5.89506 4.1941 5.93006 4.3313 5.93006 4.4905C5.93006 4.6497 5.89526 4.7855 5.82546 4.9049C5.75586 5.0221 5.65626 5.1125 5.52686 5.1775C5.39986 5.2395 5.25066 5.2709 5.07886 5.2709H3.92146V3.7141Z" fill="white"/>
<path d="M11.5438 2.8667L10.506 6.2977L10.4276 6.7457L10.338 6.2977L9.26284 2.8667H7.84424V8.0935H8.84844V4.3639L8.83344 4.1175L10.0356 8.0935H10.7748L11.9918 4.0913L11.977 4.3639V8.0935H12.985V2.8667H11.5438Z" fill="white"/>
<path d="M8 12H3V13H8V12Z" fill="white"/>
</g>
<defs>
<clipPath id="clip0_4372_12778">
<rect width="16" height="16" fill="white"/>
</clipPath>
<clipPath id="clip1_4372_12778">
<rect width="16" height="16" fill="white"/>
</clipPath>
</defs>
</svg>
