<svg width="128" height="128" viewBox="0 0 128 128" fill="none" xmlns="http://www.w3.org/2000/svg">
<path d="M106.5 0L69.8 13.1L41 0L24.7 39.2L25.2999 94.6L114.2 95.4L128 25L106.5 0Z" fill="url(#paint0_linear)"/>
<path d="M24 83.1L119 29L106.5 0L69.8 13.1L41 0L24 37.9V83.1Z" fill="url(#paint1_linear)"/>
<path d="M24 83.1L119 29L106.5 0L69.8 13.1L24 83.1Z" fill="url(#paint2_linear)"/>
<path d="M127.5 24.9L106.5 0L69.8 13.1L127.5 24.9Z" fill="url(#paint3_linear)"/>
<path d="M119 29L114.2 95.4L128 25L119 29Z" fill="url(#paint4_linear)"/>
<path d="M106.5 0L119 29L128 25L106.5 0Z" fill="url(#paint5_linear)"/>
<path d="M97.2999 41.4L46.8999 11.3L102.3 80.6L97.2999 41.4Z" fill="url(#paint6_linear)"/>
<path d="M101.1 118.3L93.7 104L102.3 80.6L46.9 11.2L0 22.7V89.9L27 128L101.1 118.3Z" fill="url(#paint7_linear)"/>
<path d="M37.8 94.8L0 22.7V89.9L27 128L37.8 94.8Z" fill="url(#paint8_linear)"/>
<path d="M37.8 94.8L43.7 78.6L0 89.9L27 128L37.8 94.8Z" fill="url(#paint9_linear)"/>
<path d="M37.8 94.8L0 22.7V89.9L27 128L37.8 94.8Z" fill="url(#paint10_linear)"/>
<path d="M37.8 95L27 128L101.1 118.3L37.8 95Z" fill="url(#paint11_linear)"/>
<path d="M37.8 95L93.7 104L101.1 118.3L37.8 95Z" fill="url(#paint12_linear)"/>
<path d="M27 128L93.7 104L101.1 118.3L27 128Z" fill="url(#paint13_linear)"/>
<path d="M101.1 118.3L93.7 104L77.8 109.7L101.1 118.3Z" fill="url(#paint14_linear)"/>
<path d="M46.8999 11.2L18.8999 58.8L37.7999 94.8L96.8999 95.3L102.3 80.6L46.8999 11.2Z" fill="url(#paint15_linear)"/>
<path d="M37.8 95L93.7 104L102.3 80.6L37.8 95Z" fill="url(#paint16_linear)"/>
<path d="M0 22.7V89.8V89.9L0.3 90.3H0.4L19 58.9L0 22.7Z" fill="url(#paint17_linear)"/>
<path d="M46.9 11.2L0 22.7L18.9 58.8L46.9 11.2Z" fill="url(#paint18_linear)"/>
<path d="M34.7 14.3L16.5 54.1L18.9 58.8L46.9 11.2L34.7 14.3Z" fill="url(#paint19_linear)"/>
<path d="M23.8999 50.6V68.1L29.8999 79.7L78.8999 51.3L46.8999 11.2L23.8999 50.6Z" fill="url(#paint20_linear)"/>
<path d="M104 24H24V104H104V24Z" fill="url(#paint21_linear)"/>
<g opacity="0.3">
<path opacity="0.3" d="M104 24H31L24 39.2V104H104V24Z" fill="url(#paint22_linear)"/>
<path opacity="0.3" d="M24 104H93.7L102.3 80.6L57.1 24H24V104Z" fill="url(#paint23_linear)"/>
<path opacity="0.3" d="M24 37.9V83.1L104 37.5V24H30.2L24 37.9Z" fill="url(#paint24_linear)"/>
<path opacity="0.3" d="M104 24H31L24 39.2V104H104V24Z" fill="url(#paint25_linear)"/>
<path opacity="0.3" d="M93.3999 104L83.4999 85.6L38.1999 94.1L34.8999 104H93.3999Z" fill="url(#paint26_linear)"/>
<path opacity="0.3" d="M102.3 80.6L97.3001 41.4L68.2001 24H57.1001L102.3 80.6Z" fill="url(#paint27_linear)"/>
<path opacity="0.3" d="M39.3 24H24V50.2L39.3 24Z" fill="url(#paint28_linear)"/>
<path opacity="0.3" d="M24 37.6V50.2L25.5 47.6L39.3 24H30.2L24 37.6Z" fill="url(#paint29_linear)"/>
</g>
<path d="M64 88.9H34V93.9H64V88.9Z" fill="white"/>
<path d="M63.6001 34H70.8001L78.7001 46.7L86.6001 34H93.7001V64H87.1001V44.4L78.7001 57.2H78.5001L70.1001 44.5V64H63.6001V34Z" fill="white"/>
<path d="M34 34H47.7C51.5 34 54.4 35 56.5 37C58.2 38.7 59.1 41 59.1 43.9V44C59.1 46.4 58.5 48.4 57.3 49.9C56.1 51.4 54.6 52.6 52.6 53.3L59.9 64H52.2L46 54.8H40.6V64H34V34ZM47.3 48.5C48.9 48.5 50.2 48.1 51.1 47.3C52 46.5 52.4 45.5 52.4 44.2V44.1C52.4 42.7 51.9 41.6 51 40.9C50.1 40.2 48.8 39.8 47.2 39.8H40.6V48.4H47.3V48.5Z" fill="white"/>
<defs>
<linearGradient id="paint0_linear" x1="82.0609" y1="74.0338" x2="65.8867" y2="31.5766" gradientUnits="userSpaceOnUse">
<stop  offset="0" stop-color="#FE2857"/>
<stop offset="0.0562257" stop-color="#FE3052"/>
<stop offset="0.3252" stop-color="#FD533B"/>
<stop offset="0.5796" stop-color="#FC6C2A"/>
<stop offset="0.8114" stop-color="#FC7B20"/>
<stop offset="1" stop-color="#FC801D"/>
</linearGradient>
<linearGradient id="paint1_linear" x1="71.4586" y1="54.6031" x2="70.5891" y2="6.2597" gradientUnits="userSpaceOnUse">
<stop offset="0.3737" stop-color="#FEB51A"/>
<stop offset="0.4306" stop-color="#FEAD1A"/>
<stop offset="0.6448" stop-color="#FD941C"/>
<stop offset="0.8406" stop-color="#FC851D"/>
<stop offset="1" stop-color="#FC801D"/>
</linearGradient>
<linearGradient id="paint2_linear" x1="108.534" y1="82.0713" x2="48.3627" y2="25.7571" gradientUnits="userSpaceOnUse">
<stop offset="0.3737" stop-color="#FEB51A"/>
<stop offset="0.417" stop-color="#FEAD1A"/>
<stop offset="0.5802" stop-color="#FD941C"/>
<stop offset="0.7294" stop-color="#FC851D"/>
<stop offset="0.8508" stop-color="#FC801D"/>
<stop offset="0.9836" stop-color="#F26522"/>
</linearGradient>
<linearGradient id="paint3_linear" x1="88.8874" y1="0.334199" x2="99.4805" y2="20.5745" gradientUnits="userSpaceOnUse">
<stop offset="0.0238963" stop-color="#FDB60D"/>
<stop offset="1" stop-color="#FF9600" stop-opacity="0"/>
</linearGradient>
<linearGradient id="paint4_linear" x1="123.567" y1="93.6163" x2="118.681" y2="27.5307" gradientUnits="userSpaceOnUse">
<stop offset="0.0133474" stop-color="#EE2A7B"/>
<stop offset="0.7157" stop-color="#FE2857"/>
<stop offset="0.9859" stop-color="#FC801D"/>
</linearGradient>
<linearGradient id="paint5_linear" x1="138.654" y1="46.9628" x2="105.225" y2="2.9915" gradientUnits="userSpaceOnUse">
<stop  offset="0" stop-color="#FE2857"/>
<stop offset="0.1736" stop-color="#FE2C54"/>
<stop offset="0.1983" stop-color="#FE3051"/>
<stop offset="0.4268" stop-color="#FD533B"/>
<stop offset="0.6429" stop-color="#FC6C2A"/>
<stop offset="0.8398" stop-color="#FC7B20"/>
<stop offset="1" stop-color="#FC801D"/>
</linearGradient>
<linearGradient id="paint6_linear" x1="53.7324" y1="8.56859" x2="104.39" y2="66.1684" gradientUnits="userSpaceOnUse">
<stop  offset="0" stop-color="#6B57FF"/>
<stop offset="1" stop-color="#FE2857"/>
</linearGradient>
<linearGradient id="paint7_linear" x1="-0.562601" y1="21.3841" x2="81.7122" y2="125.971" gradientUnits="userSpaceOnUse">
<stop offset="0.0417113" stop-color="#7D11EF"/>
<stop offset="0.1162" stop-color="#A019CB"/>
<stop offset="0.2019" stop-color="#C220A8"/>
<stop offset="0.283" stop-color="#DA268F"/>
<stop offset="0.3569" stop-color="#E92980"/>
<stop offset="0.417" stop-color="#EE2A7B"/>
<stop offset="1" stop-color="#F26522"/>
</linearGradient>
<linearGradient id="paint8_linear" x1="-17.865" y1="35.474" x2="41.5777" y2="111.037" gradientUnits="userSpaceOnUse">
<stop offset="0.00149909" stop-color="#6B57FF"/>
<stop offset="0.2483" stop-color="#FE2857"/>
<stop offset="0.6853" stop-color="#FE2857"/>
</linearGradient>
<linearGradient id="paint9_linear" x1="22.372" y1="63.8713" x2="21.0371" y2="119.272" gradientUnits="userSpaceOnUse">
<stop offset="0.00149909" stop-color="#FDB60D"/>
<stop offset="0.725" stop-color="#FE2857" stop-opacity="0"/>
</linearGradient>
<linearGradient id="paint10_linear" x1="32.6598" y1="65.8455" x2="13.9327" y2="75.1144" gradientUnits="userSpaceOnUse">
<stop offset="0.0238963" stop-color="#FF7100"/>
<stop offset="1" stop-color="#FF9600" stop-opacity="0"/>
</linearGradient>
<linearGradient id="paint11_linear" x1="48.6732" y1="75.7385" x2="67.7311" y2="134.5" gradientUnits="userSpaceOnUse">
<stop offset="0.3361" stop-color="#FE2857"/>
<stop offset="0.3527" stop-color="#FE3052"/>
<stop offset="0.4321" stop-color="#FD533B"/>
<stop offset="0.5072" stop-color="#FC6C2A"/>
<stop offset="0.5757" stop-color="#FC7B20"/>
<stop offset="0.6313" stop-color="#FC801D"/>
<stop offset="0.9964" stop-color="#FFDE17"/>
</linearGradient>
<linearGradient id="paint12_linear" x1="56.2452" y1="65.8735" x2="79.0087" y2="136.061" gradientUnits="userSpaceOnUse">
<stop offset="0.2209" stop-color="#EE2A7B"/>
<stop offset="0.6985" stop-color="#F7941D"/>
</linearGradient>
<linearGradient id="paint13_linear" x1="58.6601" y1="106.531" x2="67.3379" y2="133.288" gradientUnits="userSpaceOnUse">
<stop offset="0.092793" stop-color="#F15A29"/>
<stop offset="0.3888" stop-color="#FC801D"/>
<stop offset="1" stop-color="#FEC519"/>
</linearGradient>
<linearGradient id="paint14_linear" x1="54.1922" y1="119.852" x2="104.421" y2="109.738" gradientUnits="userSpaceOnUse">
<stop offset="0.092793" stop-color="#F15A29"/>
<stop offset="0.3888" stop-color="#FC801D"/>
<stop offset="0.8214" stop-color="#FEC519"/>
<stop offset="0.9894" stop-color="#FCF84A"/>
</linearGradient>
<linearGradient id="paint15_linear" x1="37.1417" y1="112.483" x2="82.9911" y2="34.2687" gradientUnits="userSpaceOnUse">
<stop offset="0.0417113" stop-color="#7D11EF"/>
<stop offset="0.1162" stop-color="#A019CB"/>
<stop offset="0.2019" stop-color="#C220A8"/>
<stop offset="0.283" stop-color="#DA268F"/>
<stop offset="0.3569" stop-color="#E92980"/>
<stop offset="0.417" stop-color="#EE2A7B"/>
</linearGradient>
<linearGradient id="paint16_linear" x1="64.9238" y1="71.8984" x2="79.0093" y2="115.329" gradientUnits="userSpaceOnUse">
<stop  offset="0" stop-color="#F7941D" stop-opacity="0"/>
<stop offset="0.5473" stop-color="#FB851D" stop-opacity="0.5473"/>
<stop offset="1" stop-color="#FC801D"/>
</linearGradient>
<linearGradient id="paint17_linear" x1="-16.5462" y1="26.0483" x2="15.71" y2="84.8708" gradientUnits="userSpaceOnUse">
<stop offset="0.1915" stop-color="#7D11EF"/>
<stop offset="0.2818" stop-color="#A019CB"/>
<stop offset="0.3858" stop-color="#C220A8"/>
<stop offset="0.4842" stop-color="#DA268F"/>
<stop offset="0.5738" stop-color="#E92980"/>
<stop offset="0.6467" stop-color="#EE2A7B"/>
</linearGradient>
<linearGradient id="paint18_linear" x1="18.4404" y1="8.65121" x2="40.5597" y2="48.988" gradientUnits="userSpaceOnUse">
<stop offset="0.1915" stop-color="#7D11EF"/>
<stop offset="0.2818" stop-color="#A019CB"/>
<stop offset="0.3858" stop-color="#C220A8"/>
<stop offset="0.4842" stop-color="#DA268F"/>
<stop offset="0.5738" stop-color="#E92980"/>
<stop offset="0.6467" stop-color="#EE2A7B"/>
<stop offset="1" stop-color="#F26522"/>
</linearGradient>
<linearGradient id="paint19_linear" x1="48.0559" y1="-13.4116" x2="19.2022" y2="67.5508" gradientUnits="userSpaceOnUse">
<stop offset="0.1915" stop-color="#7D11EF"/>
<stop offset="0.2818" stop-color="#A019CB"/>
<stop offset="0.3858" stop-color="#C220A8"/>
<stop offset="0.4842" stop-color="#DA268F"/>
<stop offset="0.5738" stop-color="#E92980"/>
<stop offset="0.6467" stop-color="#EE2A7B"/>
<stop offset="1" stop-color="#F26522"/>
</linearGradient>
<linearGradient id="paint20_linear" x1="77.531" y1="74.0001" x2="16.8363" y2="29.7178" gradientUnits="userSpaceOnUse">
<stop offset="0.0417113" stop-color="#FFDE17"/>
<stop offset="0.0429608" stop-color="#FFDD18"/>
<stop offset="0.1145" stop-color="#FAA736"/>
<stop offset="0.1843" stop-color="#F67A4E"/>
<stop offset="0.2509" stop-color="#F25762"/>
<stop offset="0.3136" stop-color="#F03E70"/>
<stop offset="0.3706" stop-color="#EE2F78"/>
<stop offset="0.417" stop-color="#EE2A7B"/>
</linearGradient>
<linearGradient id="paint21_linear" x1="11.8219" y1="23.3164" x2="103.312" y2="94.6517" gradientUnits="userSpaceOnUse">
<stop offset="0.0108952" stop-color="#7C0F13"/>
<stop offset="0.0756282" stop-color="#6C0D11"/>
<stop offset="0.2517" stop-color="#45080B"/>
<stop offset="0.4263" stop-color="#270506"/>
<stop offset="0.5969" stop-color="#110203"/>
<stop offset="0.7616" stop-color="#040101"/>
<stop offset="0.9138"/>
</linearGradient>
<linearGradient id="paint22_linear" x1="101.732" y1="107.377" x2="55.3873" y2="54.0987" gradientUnits="userSpaceOnUse">
<stop  offset="0" stop-color="#801E02"/>
<stop offset="0.1961" stop-color="#AC410C"/>
<stop offset="0.3865" stop-color="#CF5C13"/>
<stop offset="0.5655" stop-color="#E87019"/>
<stop offset="0.7285" stop-color="#F77C1C"/>
<stop offset="0.8611" stop-color="#FC801D"/>
</linearGradient>
<linearGradient id="paint23_linear" x1="85.6131" y1="118.438" x2="39.4989" y2="62.7239" gradientUnits="userSpaceOnUse">
<stop  offset="0" stop-color="#45002D"/>
<stop offset="0.06907" stop-color="#720B42"/>
<stop offset="0.1487" stop-color="#9E1656"/>
<stop offset="0.2255" stop-color="#C11F66"/>
<stop offset="0.2977" stop-color="#DA2572"/>
<stop offset="0.3635" stop-color="#E92979"/>
<stop offset="0.417" stop-color="#EE2A7B"/>
<stop offset="1" stop-color="#F26522"/>
</linearGradient>
<linearGradient id="paint24_linear" x1="36.9097" y1="33.5397" x2="65.3705" y2="54.5494" gradientUnits="userSpaceOnUse">
<stop offset="0.3737" stop-color="#FEB51A"/>
<stop offset="0.4306" stop-color="#FEAD1A"/>
<stop offset="0.6448" stop-color="#FD941C"/>
<stop offset="0.8406" stop-color="#FC851D"/>
<stop offset="1" stop-color="#FC801D"/>
</linearGradient>
<linearGradient id="paint25_linear" x1="43.7519" y1="18.1042" x2="79.4242" y2="98.9614" gradientUnits="userSpaceOnUse">
<stop  offset="0" stop-color="#FE2857"/>
<stop offset="0.0940498" stop-color="#E7254E"/>
<stop offset="0.3015" stop-color="#BB1E3D"/>
<stop offset="0.5015" stop-color="#98192F"/>
<stop offset="0.6896" stop-color="#7F1525"/>
<stop offset="0.8608" stop-color="#70131F"/>
<stop offset="1" stop-color="#6B121D"/>
</linearGradient>
<linearGradient id="paint26_linear" x1="101.675" y1="87.499" x2="29.2641" y2="110.813" gradientUnits="userSpaceOnUse">
<stop offset="0.0794007" stop-color="#70193B"/>
<stop offset="0.23" stop-color="#962D38"/>
<stop offset="0.4689" stop-color="#CE4B33"/>
<stop offset="0.6473" stop-color="#F05D30"/>
<stop offset="0.7435" stop-color="#FD642F"/>
</linearGradient>
<linearGradient id="paint27_linear" x1="122.828" y1="86.9084" x2="47.3993" y2="1.87999" gradientUnits="userSpaceOnUse">
<stop  offset="0" stop-color="#6B57FF"/>
<stop offset="1" stop-color="#FE2857"/>
</linearGradient>
<linearGradient id="paint28_linear" x1="23.4493" y1="22.1069" x2="35.8899" y2="44.7935" gradientUnits="userSpaceOnUse">
<stop offset="0.1915" stop-color="#7D11EF"/>
<stop offset="0.2818" stop-color="#A019CB"/>
<stop offset="0.3858" stop-color="#C220A8"/>
<stop offset="0.4842" stop-color="#DA268F"/>
<stop offset="0.5738" stop-color="#E92980"/>
<stop offset="0.6467" stop-color="#EE2A7B"/>
<stop offset="1" stop-color="#F26522"/>
</linearGradient>
<linearGradient id="paint29_linear" x1="39.0196" y1="10.156" x2="23.1735" y2="54.6199" gradientUnits="userSpaceOnUse">
<stop offset="0.1915" stop-color="#7D11EF"/>
<stop offset="0.2818" stop-color="#A019CB"/>
<stop offset="0.3858" stop-color="#C220A8"/>
<stop offset="0.4842" stop-color="#DA268F"/>
<stop offset="0.5738" stop-color="#E92980"/>
<stop offset="0.6467" stop-color="#EE2A7B"/>
<stop offset="1" stop-color="#F26522"/>
</linearGradient>
</defs>
</svg>
