<svg width="16" height="16" viewBox="0 0 16 16" fill="none" xmlns="http://www.w3.org/2000/svg">
<path fill-rule="evenodd" clip-rule="evenodd" d="M13.4232 13.2097L13.2751 12.4584C13.1107 11.624 12.3778 11 11.5 11C10.8042 11 10.1968 11.394 9.89316 11.9769L9.64538 12.4527L9.11197 12.5094C8.48746 12.5758 8 13.1069 8 13.75C8 14.439 8.56103 15 9.25 15H14.125C14.6077 15 15 14.6077 15 14.125C15 13.6706 14.6481 13.2945 14.1872 13.2626L13.4232 13.2097ZM11.5 10C12.865 10 14.0012 10.9713 14.2562 12.265C15.2312 12.3325 16 13.135 16 14.125C16 15.16 15.16 16 14.125 16H9.25C8.00875 16 7 14.9913 7 13.75C7 12.5912 7.8775 11.635 9.00625 11.515C9.475 10.615 10.4162 10 11.5 10Z" fill="#6C707E"/>
<path d="M6.55758 5.37077C5.85421 5.40938 5.04269 5.47346 4.19453 5.79954C2.25514 6.54479 1.25485 8.10892 1.04333 9.64326C0.847108 11.0666 1.33173 12.7204 2.68642 13.4201C2.69602 13.4428 2.70767 13.4719 2.72425 13.5133L2.76299 13.6097C2.80421 13.7123 2.90411 13.9611 3.08639 14.1692C3.196 14.2944 3.35669 14.432 3.58005 14.5196C3.8087 14.6092 4.04011 14.6216 4.24942 14.587C4.43594 14.5563 4.62776 14.5348 4.77678 14.5209C4.85025 14.5141 4.911 14.5093 4.95257 14.5063L4.99926 14.5031L5.00728 14.5026C5.33722 14.488 5.69572 14.4912 6.08736 14.5009C6.03024 14.2598 6 14.0084 6 13.75C6 13.6655 6.00323 13.5817 6.00958 13.4988C5.63865 13.4907 5.28425 13.489 4.95472 13.5039C4.95472 13.5039 4.52243 13.5285 4.08663 13.6004C4.08663 13.6004 4.25148 13.5302 4.46192 13.4575C5.08884 13.2408 5.59497 13.0874 6.0358 12.9538C6.05855 12.9469 6.08115 12.9401 6.10356 12.9333C6.21415 12.5063 6.40944 12.1132 6.67055 11.7732C5.23543 12.2182 3.28781 12.6064 3.28781 12.6064L3.18434 12.5512C1.4464 11.7062 1.39817 7.9452 4.55312 6.733C5.33057 6.43407 6.08892 6.39552 6.86938 6.35584C7.47797 6.3249 8.10001 6.29328 8.75504 6.13698C10.35 5.75834 12.1967 4.55929 12.9473 3C13.5835 4.8847 14.3157 7.57232 13.8559 9.81535C14.1681 10.0615 14.4408 10.3556 14.6631 10.6867C15.0027 9.60262 15.0501 8.44381 14.9602 7.35611C14.8186 5.64384 14.3242 3.95217 13.8949 2.68017L13.1103 0.356018L12.0463 2.56628C11.4596 3.78522 9.90936 4.83519 8.52413 5.16403L8.52301 5.1643C7.96333 5.29785 7.43676 5.32505 6.82202 5.35681L6.82091 5.35687C6.73498 5.36131 6.64731 5.36584 6.55758 5.37077Z" fill="#5FB865"/>
<path d="M13.8559 9.81535C13.208 9.30448 12.3901 9 11.5 9C10.211 9 9.07285 9.64131 8.38421 10.6183C7.69313 10.8083 7.09491 11.2207 6.67055 11.7732C5.23543 12.2182 3.28781 12.6064 3.28781 12.6064L3.18434 12.5512C1.4464 11.7062 1.39817 7.9452 4.55312 6.733C5.33057 6.43407 6.08892 6.39552 6.86938 6.35584C7.47797 6.3249 8.10001 6.29328 8.75504 6.13698C10.35 5.75834 12.1967 4.55929 12.9473 3C13.5835 4.8847 14.3157 7.57232 13.8559 9.81535Z" fill="#F2FCF3"/>
<path d="M6.00958 13.4988C6.0244 13.3051 6.05622 13.1161 6.10356 12.9333C6.08115 12.9401 6.05857 12.9469 6.03582 12.9538C5.59499 13.0874 5.08885 13.2408 4.46192 13.4575C4.25148 13.5302 4.08663 13.6004 4.08663 13.6004C4.52243 13.5285 4.95472 13.5039 4.95472 13.5039C5.28425 13.489 5.63865 13.4907 6.00958 13.4988Z" fill="#F2FCF3"/>
<path d="M13.2751 12.4584L13.4232 13.2097L14.1872 13.2626C14.6481 13.2945 15 13.6706 15 14.125C15 14.6077 14.6077 15 14.125 15H9.25C8.56104 15 8 14.439 8 13.75C8 13.1069 8.48746 12.5758 9.11197 12.5094L9.64538 12.4527L9.89316 11.9769C10.1968 11.394 10.8042 11 11.5 11C12.3778 11 13.1107 11.624 13.2751 12.4584Z" fill="#EBECF0"/>
</svg>
