<svg xmlns="http://www.w3.org/2000/svg" width="20" height="20"><path fill="#6c707e" d="M10 18c-4.411 0-8-3.589-8-8a7.982 7.982 0 0 1 5.528-7.603.747.747 0 0 1 .945.48.749.749 0 0 1-.48.945A6.484 6.484 0 0 0 3.5 9.999c0 3.584 2.916 6.5 6.5 6.5a6.486 6.486 0 0 0 6.177-4.493.747.747 0 0 1 .945-.48.748.748 0 0 1 .48.945 7.98 7.98 0 0 1-7.603 5.528Zm9-8.754C19 5.264 14.745 1 10.764 1a.753.753 0 0 0-.764.752v7.494c0 .416.337.753.753.753h7.494A.754.754 0 0 0 19 9.245Zm-7.494-6.624a7.515 7.515 0 0 1 5.871 5.871h-5.871V2.622Z"/></svg>