<svg xmlns="http://www.w3.org/2000/svg" width="16" height="16"><circle cx="2" cy="2" r="1" fill="#6c707e"/><path fill="#6c707e" d="M11.308 4A2.695 2.695 0 0 1 14 6.692v4.615a2.695 2.695 0 0 1-2.692 2.692H6.692A2.695 2.695 0 0 1 4 11.307V6.692A2.695 2.695 0 0 1 6.692 4h4.615m0-1H6.692A3.692 3.692 0 0 0 3 6.692v4.615a3.692 3.692 0 0 0 3.692 3.692h4.615a3.692 3.692 0 0 0 3.692-3.692V6.692A3.692 3.692 0 0 0 11.307 3Z"/><circle cx="6.5" cy="6.5" r="1.286" fill="#6c707e"/><path fill="#6c707e" d="M10.429 9.179c.689 0 1.25.561 1.25 1.25s-.561 1.25-1.25 1.25-1.25-.561-1.25-1.25.561-1.25 1.25-1.25m0-1a2.25 2.25 0 1 0 0 4.5 2.25 2.25 0 0 0 0-4.5Z"/></svg>