<!-- Copyright © 2000–2024 JetBrains s.r.o. -->
<svg width="20" height="20" viewBox="0 0 20 20" xmlns="http://www.w3.org/2000/svg">
  <path fill="none" stroke="#CED0D6" stroke-linecap="round" stroke-miterlimit="10" stroke-width="1.5" d="M7.75 3.75h-4a1 1 0 0 0-1 1v1.5a1 1 0 0 0 1 1h4a1 1 0 0 0 1-1v-1.5a1 1 0 0 0-1-1Zm0 9h-4a1 1 0 0 0-1 1v1.5a1 1 0 0 0 1 1h4a1 1 0 0 0 1-1v-1.5a1 1 0 0 0-1-1Zm9.5-4.5h-4a1 1 0 0 0-1 1v1.5a1 1 0 0 0 1 1h4a1 1 0 0 0 1-1v-1.5a1 1 0 0 0-1-1Z"/>
  <path fill="none" stroke="#CED0D6" stroke-linecap="round" stroke-linejoin="round" stroke-width="1.5" d="m12 11.3-3 1.75m0-6.1 3 1.75"/>
</svg>
