<svg xmlns="http://www.w3.org/2000/svg" width="16" height="16"><g fill="#ced0d6"><path d="M7.597 4.222c.906.25 1.723.706 2.403 1.315V3a2.99 2.99 0 0 0-2.403 1.222Z"/><path d="M10 1a5 5 0 0 0-4.594 3.03C5.602 4.011 5.8 4 6 4c.183 0 .363.011.541.027C7.231 2.822 8.515 2 10 2c2.206 0 4 1.794 4 4 0 1.485-.823 2.769-2.027 3.459.016.179.027.359.027.541 0 .201-.011.399-.03.594A5 5 0 0 0 10 1Z"/></g><g fill="#ced0d6"><path d="M6 5a5 5 0 1 0 .001 10.001A5 5 0 0 0 6 5Zm0 9c-2.206 0-4-1.794-4-4s1.794-4 4-4 4 1.794 4 4-1.794 4-4 4Z"/><path d="M6 7c-1.654 0-3 1.346-3 3s1.346 3 3 3V7Z"/></g></svg>