<svg width="20" height="20" viewBox="0 0 20 20" xmlns="http://www.w3.org/2000/svg">
  <path fill="none" stroke="#6C707E" stroke-linecap="round" stroke-linejoin="round" stroke-width="1.5" d="M10 7.25c4.004 0 7.25-1.231 7.25-2.75S14.004 1.75 10 1.75 2.75 2.981 2.75 4.5 5.996 7.25 10 7.25Z"/>
  <path fill="none" stroke="#6C707E" stroke-linecap="round" stroke-linejoin="round" stroke-width="1.75" d="M12.5 10.75c-.78.11-1.62.17-2.5.17-.43 0-.84-.01-1.25-.04v7.33"/>
  <path fill="none" stroke="#6C707E" stroke-linecap="round" stroke-linejoin="round" stroke-width="1.5" d="M17.25 8.17c0 .68-.66 1.31-1.75 1.79"/>
  <path fill="none" stroke="#6C707E" stroke-linecap="round" stroke-linejoin="round" stroke-width="1.75" d="M5.25 13.91c-1.53-.5-2.5-1.25-2.5-2.08m9 2.67a19.763 19.763 0 0 1-3 .04"/>
  <path fill="none" stroke="#6C707E" stroke-linecap="round" stroke-linejoin="round" stroke-width="1.5" d="M17.25 11.83c0 .83-.97 1.57-2.5 2.08"/>
  <path fill="none" stroke="#6C707E" stroke-linecap="round" stroke-linejoin="round" stroke-width="1.5" d="M17.25 4.5v11c0 1.32-2.47 2.43-5.75 2.69"/>
  <path fill="none" stroke="#6C707E" stroke-linecap="round" stroke-linejoin="round" stroke-width="1.75" d="M6 10.46c-.85-.21-1.57-.49-2.12-.82a.704.704 0 0 0-.38-.11c-.41 0-.75.34-.75.75v5.21c0 .96 1.29 1.8 3.25 2.29"/>
</svg>
