<svg xmlns="http://www.w3.org/2000/svg" width="20" height="20"><path fill="#6c707e" d="M13.692 5.5A2.812 2.812 0 0 1 16.5 8.308v5.385a2.812 2.812 0 0 1-2.808 2.808H8.307a2.812 2.812 0 0 1-2.808-2.808V8.308A2.812 2.812 0 0 1 8.307 5.5h5.385m0-1.5H8.307a4.308 4.308 0 0 0-4.308 4.308v5.385a4.308 4.308 0 0 0 4.308 4.308h5.385A4.308 4.308 0 0 0 18 13.693V8.308A4.308 4.308 0 0 0 13.692 4Z"/><circle cx="8.5" cy="8.5" r="1.5" fill="#6c707e"/><path fill="#6c707e" d="M12.5 11.25c.689 0 1.25.561 1.25 1.25s-.561 1.25-1.25 1.25-1.25-.561-1.25-1.25.561-1.25 1.25-1.25m0-1.5a2.75 2.75 0 1 0 0 5.5 2.75 2.75 0 0 0 0-5.5Z"/><circle cx="3.5" cy="3.5" r="1.25" fill="#6c707e"/></svg>