<svg xmlns="http://www.w3.org/2000/svg" width="20" height="20"><path fill="#ced0d6" d="M8 6a6 6 0 1 0 0 12A6 6 0 0 0 8 6Zm0 10.5c-2.481 0-4.5-2.019-4.5-4.5S5.519 7.5 8 7.5s4.5 2.019 4.5 4.5-2.019 4.5-4.5 4.5Zm0-1.25c-1.792 0-3.25-1.458-3.25-3.25S6.208 8.75 8 8.75v6.5Z"/><g fill="#ced0d6"><path d="M12 2a5.996 5.996 0 0 0-5.263 3.12C7.147 5.045 7.568 5 8 5c.217 0 .431.013.644.032C9.469 4.1 10.66 3.5 12 3.5c2.481 0 4.5 2.019 4.5 4.5 0 1.34-.6 2.531-1.532 3.356.019.212.032.426.032.644 0 .432-.045.853-.12 1.263A6 6 0 0 0 12 2Z"/><path d="M12 6.26V4.75c-.69 0-1.328.22-1.855.588A6.963 6.963 0 0 1 12 6.26Z"/></g></svg>