<svg xmlns="http://www.w3.org/2000/svg" width="20" height="20"><path fill="#ced0d6" d="M1.75 8.75h2.578a7.994 7.994 0 0 1 .61-1.5H1.75a.75.75 0 0 0 0 1.5ZM4.328 13.25H1.75a.75.75 0 0 0 0 1.5h3.188a7.927 7.927 0 0 1-.61-1.5ZM4 11c0-.253.015-.503.038-.75H.75a.75.75 0 0 0 0 1.5h3.288A8.081 8.081 0 0 1 4 11Z"/><path fill="#ced0d6" d="M12 5.5c3.033 0 5.5 2.467 5.5 5.5s-2.467 5.5-5.5 5.5-5.5-2.467-5.5-5.5S8.967 5.5 12 5.5ZM12 4a7 7 0 1 0 0 14 7 7 0 0 0 0-14ZM14 2.75h-4a.75.75 0 0 1 0-1.5h4a.75.75 0 0 1 0 1.5Z"/><path fill="#ced0d6" d="M15.48 7.52a.75.75 0 0 0-1.061 0L12.78 9.159a2 2 0 1 0 1.06 1.06l1.639-1.639a.75.75 0 0 0 0-1.061ZM12 11.75a.75.75 0 1 1 0-1.5.75.75 0 0 1 0 1.5Z"/></svg>