<svg xmlns="http://www.w3.org/2000/svg" width="16" height="16"><path fill="#ced0d6" d="M1.5 7h1.682a6.51 6.51 0 0 1 .32-1H1.5a.5.5 0 0 0 0 1ZM3 8.5c0-.169.013-.334.025-.5H.5a.5.5 0 0 0 0 1h2.525A6.363 6.363 0 0 1 3 8.5ZM3.182 10H1.5a.5.5 0 0 0 0 1h2.002a6.51 6.51 0 0 1-.32-1ZM9.5 4C11.981 4 14 6.019 14 8.5S11.981 13 9.5 13 5 10.981 5 8.5 7.019 4 9.5 4Zm0-1a5.5 5.5 0 1 0 0 11 5.5 5.5 0 1 0 0-11ZM11 2H8a.5.5 0 0 1 0-1h3a.5.5 0 0 1 0 1Z"/><path fill="#ced0d6" d="M12.304 5.696a.5.5 0 0 0-.707 0L10.143 7.15A1.493 1.493 0 0 0 9.5 7 1.5 1.5 0 1 0 11 8.5c0-.231-.057-.447-.15-.643l1.454-1.454a.5.5 0 0 0 0-.707ZM9.5 9a.5.5 0 1 1 0-1 .5.5 0 0 1 0 1Z"/></svg>