<svg width="20" height="20" viewBox="0 0 20 20" xmlns="http://www.w3.org/2000/svg">
  <path fill="none" stroke="#CED0D6" stroke-linecap="round" stroke-linejoin="round" stroke-width="1.5" d="M15.25 9.38v6.08c0 .99-.8 1.79-1.79 1.79h-.11m-8.66 0h-.16c-.99 0-1.79-.8-1.79-1.79V6.54c0-.99.8-1.79 1.79-1.79h5.82"/>
  <path fill="#CED0D6" d="m19.61 2.91-1.71-.4a.572.572 0 0 0-.66.36l-.72-.27a.863.863 0 0 0-.51-1.11L13.04.38C12.31.11 11.63 0 11.02 0 8.48 0 6.98 1.91 6.98 2.48c0 .15.16.24.29.17 1.28-.71 2.59-.49 4.88.32.4.14.6.6.44.99l-1.84 4.45c-.19.05-.55.28-.66.51-1.44 3.03-2.88 6.39-3.8 9.09-.02.07-.03.13-.03.2 0 .23.13.44.34.52l3.35 1.25c.06.02.12.03.17.03.22 0 .43-.14.52-.37 1.04-2.65 2.11-6.12 2.97-9.36.07-.26-.03-.66-.16-.85l1.49-4.64c.12-.38.53-.58.9-.44l.76.28c-.1.27.02.57.27.7l1.56.82c.27.14.6.01.71-.28l.84-2.29c.02-.06.03-.12.03-.18 0-.24-.16-.44-.39-.5z"/>
</svg>
