<svg width="16" height="16" viewBox="0 0 16 16" fill="none" xmlns="http://www.w3.org/2000/svg">
<path fill-rule="evenodd" clip-rule="evenodd" d="M15.25 8.03904C15.2113 8.00829 14.8499 7.73537 14.0876 7.73537C13.8863 7.73624 13.6854 7.75351 13.487 7.78699C13.3394 6.77576 12.5034 6.28274 12.4659 6.26062L12.2612 6.14258L12.1266 6.33684C12.0044 6.5259 11.9062 6.72897 11.8339 6.94141C11.8063 7.02221 11.7826 7.10437 11.7627 7.18763C11.6262 7.76488 11.7092 8.30705 12.0024 8.77057C11.6483 8.96789 11.0803 9.01646 10.9654 9.02076H1.00001C1.00001 9.02076 0.924942 11.0917 1.41247 12.196C1.90001 13.3003 2.44278 14.0098 3.34542 14.4401C4.24806 14.8704 4.8039 15.0163 6.09791 15.0163C6.68248 15.0181 7.26596 14.9652 7.84068 14.8583C8.63961 14.7116 9.40838 14.4323 10.1152 14.0321C10.6976 13.6948 11.2217 13.2658 11.6674 12.7614C12.4125 11.918 12.8563 10.3787 13.1864 9.5439C13.2307 9.5439 13.2749 9.5439 13.3179 9.5439C14.1337 9.5439 14.6353 9.21746 14.912 8.94392C15.0958 8.76945 15.2393 8.55692 15.3324 8.3212L15.3908 8.15031L15.25 8.03904Z" fill="#9AA7B0"/>
<path fill-rule="evenodd" clip-rule="evenodd" d="M5.1499 12.5C5.84026 12.5 6.3999 11.9404 6.3999 11.25C6.3999 10.5596 5.84026 10 5.1499 10C4.45955 10 3.8999 10.5596 3.8999 11.25C3.8999 11.9404 4.45955 12.5 5.1499 12.5Z" fill="white"/>
<path d="M5.1501 11.8002C5.45385 11.8002 5.7001 11.554 5.7001 11.2502C5.7001 10.9464 5.45385 10.7002 5.1501 10.7002C4.84634 10.7002 4.6001 10.9464 4.6001 11.2502C4.6001 11.554 4.84634 11.8002 5.1501 11.8002Z" fill="#9AA7B0"/>
<rect x="3" y="5" width="3" height="3" fill="#9AA7B0"/>
<rect x="7" y="5" width="3" height="3" fill="#9AA7B0"/>
<rect x="5" y="1" width="3" height="3" fill="#9AA7B0"/>
</svg>
