<svg fill="none" width="16" height="16" viewBox="0 0 16 16" xmlns="http://www.w3.org/2000/svg">
  <path d="m3 13v-7.17c0-0.53 0.211-1.04 0.586-1.41l2.83-2.83c0.375-0.375 0.884-0.586 1.41-0.586h3.17c1.1 0 2 0.895 2 2v4.1c-0.323-0.0656-0.658-0.1-1-0.1-2.76 0-5 2.24-5 5 0 1.13 0.372 2.16 1 3h-3c-1.1 0-2-0.895-2-2z" fill="#EBECF0"/>
  <g clip-rule="evenodd" fill-rule="evenodd">
    <path d="m3 13v-7.17c0-0.53 0.211-1.04 0.586-1.41l2.83-2.83c0.375-0.375 0.884-0.586 1.41-0.586h3.17c1.1 0 2 0.895 2 2v4.1c-0.323-0.0656-0.658-0.1-1-0.1v-4c0-0.552-0.448-1-1-1h-3v2c0 1.1-0.895 2-2 2h-2v7c0 0.552 0.448 1 1 1h2.42c0.156 0.357 0.352 0.692 0.584 1h-3c-1.1 0-2-0.895-2-2zm1.41-8 2.59-2.59v1.59c0 0.552-0.448 1-1 1h-1.59z" fill="#6C707E"/>
    <path d="m14.5 9.45c1.64 1.64 2.09 3.87 0.434 5.52-1.66 1.66-3.97 1.14-5.54-0.42-1.57-1.57-2.03-3.91-0.412-5.53 1.62-1.62 3.88-1.21 5.52 0.425z" fill="#fff4eb"/>
    <path d="m14.5 9.45c1.64 1.64 2.09 3.87 0.434 5.52-1.66 1.66-3.97 1.14-5.54-0.42-1.57-1.57-2.03-3.91-0.412-5.53 1.62-1.62 3.88-1.21 5.52 0.425zm-0.707 0.707c0.699 0.699 1.09 1.47 1.17 2.16 0.0598 0.524-0.0476 1.05-0.399 1.56l-4.47-4.47c0.49-0.338 1.02-0.447 1.54-0.391 0.7 0.0749 1.47 0.454 2.16 1.15zm-4.42-0.0496 4.48 4.48c-0.506 0.353-1.05 0.461-1.6 0.396-0.719-0.0852-1.49-0.477-2.15-1.13-0.648-0.648-1.03-1.42-1.11-2.15-0.0617-0.554 0.0488-1.1 0.388-1.59z" fill="#e66d17"/>
  </g>
</svg>
