<svg width="48" height="48" viewBox="0 0 48 48" fill="none" xmlns="http://www.w3.org/2000/svg">
<path d="M43 5H5V43H43V5Z" fill="url(#paint0_linear)"/>
<path d="M36.0999 11.9H11.8999V36.1H36.0999V11.9Z" fill="url(#paint1_linear)"/>
<path d="M39.6998 8.29999H8.2998V39.8H39.7998V8.29999H39.6998Z" fill="url(#paint2_linear)"/>
<path d="M39.7001 39.7V8.29999L36.1001 11.9V36.1L39.7001 39.7Z" fill="#2BB673"/>
<path d="M11.9 11.9H36.1L43 5H5L11.9 11.9Z" fill="url(#paint3_linear)"/>
<path d="M36.1 36.1H11.9L5 43H43L36.1 36.1Z" fill="url(#paint4_linear)"/>
<path d="M8.2998 39.7H39.6998L36.0998 36.1H11.8998L8.2998 39.7Z" fill="#2BB673"/>
<path d="M39.7001 39.7V8.29999L36.1001 11.9V36.1L39.7001 39.7Z" fill="url(#paint5_linear)"/>
<path d="M8.2998 39.7H39.6998L36.0998 36.1H11.8998L8.2998 39.7Z" fill="url(#paint6_linear)"/>
<path d="M11.9 36.1V11.9L5 5V43L11.9 36.1Z" fill="url(#paint7_linear)"/>
<path d="M8.3 8.3H39.7L43 5H5L8.3 8.3Z" fill="url(#paint8_linear)"/>
<path d="M8.3 8.3H39.7L43 5H5L8.3 8.3Z" fill="url(#paint9_linear)"/>
<path d="M39.6998 8.29999H8.2998L11.8998 11.9H36.0998L39.6998 8.29999Z" fill="url(#paint10_linear)"/>
<path d="M39.6998 8.29999H8.2998L11.8998 11.9H36.0998L39.6998 8.29999Z" fill="url(#paint11_linear)"/>
<path d="M39.7 39.7H8.3L5 43H43L39.7 39.7Z" fill="url(#paint12_linear)"/>
<path d="M39.7002 39.7L43.0002 43V5L39.7002 8.3V39.7Z" fill="url(#paint13_linear)"/>
<path d="M39.7 39.7H8.3L5 43H43L39.7 39.7Z" fill="url(#paint14_linear)"/>
<path d="M39.7 39.7H8.3L5 43H43L39.7 39.7Z" fill="url(#paint15_linear)"/>
<path d="M39.7 39.7H8.3L5 43H43L39.7 39.7Z" fill="url(#paint16_linear)"/>
<path d="M39.7 39.7H8.3L5 43H43L39.7 39.7Z" fill="url(#paint17_linear)"/>
<path d="M39.7 39.7H8.3L5 43H43L39.7 39.7Z" fill="url(#paint18_linear)"/>
<path d="M39.7002 39.7L43.0002 43V5L39.7002 8.3V39.7Z" fill="url(#paint19_linear)"/>
<path d="M39.7002 39.7L43.0002 43V5L39.7002 8.3V39.7Z" fill="url(#paint20_linear)"/>
<path d="M39.7002 39.7L43.0002 43V5L39.7002 8.3V39.7Z" fill="url(#paint21_linear)"/>
<path d="M39.7002 39.7L43.0002 43V5L39.7002 8.3V39.7Z" fill="url(#paint22_linear)"/>
<path d="M39.7002 39.7L43.0002 43V5L39.7002 8.3V39.7Z" fill="url(#paint23_linear)"/>
<path d="M8.3 39.7V8.3L5 5V43L8.3 39.7Z" fill="url(#paint24_linear)"/>
<path d="M8.3 39.7V8.3L5 5V43L8.3 39.7Z" fill="url(#paint25_linear)"/>
<path d="M8.2998 8.29999V39.7L11.8998 36.1V11.9L8.2998 8.29999Z" fill="url(#paint26_linear)"/>
<path d="M38 10H10V38H38V10Z" fill="url(#paint27_linear)"/>
<path d="M24 32.7H13.5V34.4H24V32.7Z" fill="white"/>
<path d="M13.5 13H17.8C20.3 13 21.8 14.5 21.8 16.6C21.8 19 19.9 20.3 17.6 20.3H15.8V23.5H13.5V13ZM17.6 18.3C18.8 18.3 19.4 17.6 19.4 16.7C19.4 15.7 18.7 15.1 17.5 15.1H15.8V18.3H17.6Z" fill="white"/>
<path d="M24 13H32.0688V15.0436H26.4312V17.2282H31.4346V19.2718H26.4312V21.4564H32.2097V23.5H24.1057V13H24Z" fill="white"/>
<defs>
<linearGradient id="paint0_linear" x1="21.3346" y1="11.0179" x2="28.6682" y2="46.7372" gradientUnits="userSpaceOnUse">
<stop offset="0.0242344" stop-color="#10E899"/>
<stop offset="1" stop-color="#21D789"/>
</linearGradient>
<linearGradient id="paint1_linear" x1="38.7941" y1="38.794" x2="4.6358" y2="4.63632" gradientUnits="userSpaceOnUse">
<stop offset="0.3475" stop-color="#087CFA"/>
<stop offset="0.8562" stop-color="#FE2857"/>
<stop offset="1" stop-color="#FE2857"/>
</linearGradient>
<linearGradient id="paint2_linear" x1="43.2577" y1="43.2578" x2="-1.2068" y2="-1.20601" gradientUnits="userSpaceOnUse">
<stop  offset="0" stop-color="#FCF84A"/>
<stop offset="0.2816" stop-color="#C1F834"/>
<stop offset="0.7846" stop-color="#10E899"/>
</linearGradient>
<linearGradient id="paint3_linear" x1="4.1435" y1="8.4545" x2="41.3523" y2="8.4545" gradientUnits="userSpaceOnUse">
<stop offset="0.1844" stop-color="#EFE50C"/>
<stop offset="0.5239" stop-color="#BEFF26"/>
<stop offset="0.8746" stop-color="#00C66E"/>
</linearGradient>
<linearGradient id="paint4_linear" x1="41.4158" y1="39.5452" x2="6.7309" y2="39.5452" gradientUnits="userSpaceOnUse">
<stop  offset="0" stop-color="#21D789"/>
<stop offset="0.8746" stop-color="#00C66E"/>
</linearGradient>
<linearGradient id="paint5_linear" x1="36.8185" y1="23.9999" x2="41.1698" y2="23.9999" gradientUnits="userSpaceOnUse">
<stop offset="0.27" stop-color="#007E62"/>
<stop offset="1" stop-color="#07C3F2" stop-opacity="0"/>
</linearGradient>
<linearGradient id="paint6_linear" x1="23.9632" y1="36.8186" x2="23.963" y2="41.1699" gradientUnits="userSpaceOnUse">
<stop offset="0.27" stop-color="#007E62"/>
<stop offset="1" stop-color="#07C3F2" stop-opacity="0"/>
</linearGradient>
<linearGradient id="paint7_linear" x1="8.4547" y1="3.8513" x2="8.4547" y2="39.6605" gradientUnits="userSpaceOnUse">
<stop offset="0.2576" stop-color="#EFE50C"/>
<stop offset="0.5774" stop-color="#BEFF26"/>
<stop offset="0.8746" stop-color="#00C66E"/>
</linearGradient>
<linearGradient id="paint8_linear" x1="22.4636" y1="6.5553" x2="13.2252" y2="13.9282" gradientUnits="userSpaceOnUse">
<stop offset="0.1018" stop-color="#A5FF21" stop-opacity="0"/>
<stop offset="0.8222" stop-color="#FCF84A"/>
<stop offset="1" stop-color="white" stop-opacity="0.9"/>
</linearGradient>
<linearGradient id="paint9_linear" x1="27.1782" y1="6.3141" x2="42.3081" y2="5.3187" gradientUnits="userSpaceOnUse">
<stop offset="0.5632" stop-color="#10E899" stop-opacity="0"/>
<stop offset="1" stop-color="#21D789" stop-opacity="0.9"/>
</linearGradient>
<linearGradient id="paint10_linear" x1="35.4885" y1="5.29239" x2="15.5016" y2="12.4877" gradientUnits="userSpaceOnUse">
<stop offset="0.018393" stop-color="#99C81D"/>
<stop offset="0.723" stop-color="#10C299" stop-opacity="0"/>
</linearGradient>
<linearGradient id="paint11_linear" x1="35.4885" y1="5.29239" x2="15.5016" y2="12.4877" gradientUnits="userSpaceOnUse">
<stop offset="0.1378" stop-color="#50AC3F" stop-opacity="0.97"/>
<stop offset="0.723" stop-color="#10C23B" stop-opacity="0.4"/>
</linearGradient>
<linearGradient id="paint12_linear" x1="47.0601" y1="45.5205" x2="11.6612" y2="39.5688" gradientUnits="userSpaceOnUse">
<stop  offset="0" stop-color="#FCF84A" stop-opacity="0"/>
<stop offset="1" stop-color="#29CF4B"/>
</linearGradient>
<linearGradient id="paint13_linear" x1="41.3696" y1="41.7275" x2="41.3696" y2="7.0842" gradientUnits="userSpaceOnUse">
<stop  offset="0" stop-color="#21D789"/>
<stop offset="0.8746" stop-color="#00C66E"/>
</linearGradient>
<linearGradient id="paint14_linear" x1="23.9999" y1="39.0182" x2="23.9999" y2="44.0074" gradientUnits="userSpaceOnUse">
<stop offset="0.1754" stop-color="#07C3F2" stop-opacity="0"/>
<stop offset="0.7533" stop-color="#07BC65"/>
</linearGradient>
<linearGradient id="paint15_linear" x1="23.9999" y1="39.0182" x2="23.9999" y2="44.0074" gradientUnits="userSpaceOnUse">
<stop offset="0.0714497" stop-color="#10E899" stop-opacity="0.5"/>
<stop offset="0.5642" stop-color="#10E899" stop-opacity="0"/>
</linearGradient>
<linearGradient id="paint16_linear" x1="23.9999" y1="43.0122" x2="23.9999" y2="39.1724" gradientUnits="userSpaceOnUse">
<stop offset="0.0714497" stop-color="#21D789" stop-opacity="0.5"/>
<stop offset="0.5642" stop-color="#10E899" stop-opacity="0"/>
</linearGradient>
<linearGradient id="paint17_linear" x1="37.5764" y1="43.8023" x2="0.2494" y2="37.83" gradientUnits="userSpaceOnUse">
<stop offset="0.5632" stop-color="#A5FF21" stop-opacity="0"/>
<stop offset="1" stop-color="#10E899" stop-opacity="0.9"/>
</linearGradient>
<linearGradient id="paint18_linear" x1="31.4013" y1="41.3692" x2="42.8112" y2="41.3692" gradientUnits="userSpaceOnUse">
<stop offset="0.5632" stop-color="#07C3F2" stop-opacity="0"/>
<stop offset="1" stop-color="#009AE5" stop-opacity="0.9"/>
</linearGradient>
<linearGradient id="paint19_linear" x1="39.2334" y1="23.9999" x2="43.8422" y2="23.9999" gradientUnits="userSpaceOnUse">
<stop offset="0.1754" stop-color="#07C3F2" stop-opacity="0"/>
<stop offset="0.7533" stop-color="#07BC65"/>
</linearGradient>
<linearGradient id="paint20_linear" x1="39.2334" y1="23.9999" x2="43.8422" y2="23.9999" gradientUnits="userSpaceOnUse">
<stop offset="0.0714497" stop-color="#10E899" stop-opacity="0.5"/>
<stop offset="0.5642" stop-color="#10E899" stop-opacity="0"/>
</linearGradient>
<linearGradient id="paint21_linear" x1="42.6068" y1="23.9999" x2="40.3769" y2="23.9999" gradientUnits="userSpaceOnUse">
<stop offset="0.0714497" stop-color="#21D789" stop-opacity="0.5"/>
<stop offset="0.5642" stop-color="#10E899" stop-opacity="0"/>
</linearGradient>
<linearGradient id="paint22_linear" x1="41.7047" y1="24.6827" x2="38.9555" y2="5.7082" gradientUnits="userSpaceOnUse">
<stop offset="0.5632" stop-color="#A5FF21" stop-opacity="0"/>
<stop offset="1" stop-color="#10E899" stop-opacity="0.9"/>
</linearGradient>
<linearGradient id="paint23_linear" x1="41.3696" y1="26.48" x2="41.3696" y2="43.0309" gradientUnits="userSpaceOnUse">
<stop offset="0.5632" stop-color="#07C3F2" stop-opacity="0"/>
<stop offset="1" stop-color="#009AE5" stop-opacity="0.9"/>
</linearGradient>
<linearGradient id="paint24_linear" x1="4.2316" y1="32.0722" x2="10.2721" y2="7.6438" gradientUnits="userSpaceOnUse">
<stop offset="0.1018" stop-color="#A5FF21" stop-opacity="0"/>
<stop offset="0.8222" stop-color="#FCF84A"/>
<stop offset="1" stop-color="white" stop-opacity="0.9"/>
</linearGradient>
<linearGradient id="paint25_linear" x1="6.368" y1="23.9275" x2="2.9837" y2="43.9845" gradientUnits="userSpaceOnUse">
<stop offset="0.5632" stop-color="#FCF84A" stop-opacity="0"/>
<stop offset="1" stop-color="#21D789" stop-opacity="0.9"/>
</linearGradient>
<linearGradient id="paint26_linear" x1="4.92512" y1="25.8618" x2="12.5645" y2="21.598" gradientUnits="userSpaceOnUse">
<stop offset="0.1378" stop-color="#50AC3F" stop-opacity="0.97"/>
<stop offset="0.723" stop-color="#10C23B" stop-opacity="0.4"/>
</linearGradient>
<linearGradient id="paint27_linear" x1="10.0426" y1="10.0426" x2="34.5762" y2="34.5762" gradientUnits="userSpaceOnUse">
<stop  offset="0" stop-color="#298B2A"/>
<stop offset="0.092362" stop-color="#216F21"/>
<stop offset="0.2928" stop-color="#103510"/>
<stop offset="0.6895" stop-color="#051005"/>
<stop offset="0.9138"/>
</linearGradient>
</defs>
</svg>
