<svg width="128" height="128" viewBox="0 0 128 128" fill="none" xmlns="http://www.w3.org/2000/svg">
<g clip-path="url(#clip0_5741_42730)">
<g clip-path="url(#clip1_5741_42730)">
<g clip-path="url(#clip2_5741_42730)">
<path d="M53.2907 21.4204H53.2937C77.7364 21.4204 97.5807 41.2654 97.5807 65.7089V65.7111C97.5807 90.1544 77.7366 109.999 53.2941 109.999H53.291C28.8472 109.999 9.00195 90.1533 9.00195 65.7086V65.7106C9.00195 41.2662 28.847 21.4204 53.2907 21.4204Z" fill="url(#paint0_linear_5741_42730)"/>
<path d="M56.9213 77.6062L103.473 77.6062C112.048 77.6062 119 70.6544 119 62.0789L119 15.5276C119 6.95212 112.048 0.000292693 103.473 0.000286706L56.9213 0.000254207C48.3458 0.00024822 41.394 6.95206 41.394 15.5276L41.3939 62.0788C41.3939 70.6543 48.3458 77.6062 56.9213 77.6062Z" fill="url(#paint1_linear_5741_42730)"/>
<path d="M41.3956 23.2847L95.7165 23.2847L95.7164 77.6055L41.3955 77.6055L41.3956 23.2847Z" fill="black"/>
<path d="M49.1533 62.0835L79.2245 62.0835V69.8438L49.1533 69.8438L49.1533 62.0835Z" fill="white"/>
</g>
</g>
<rect y="88" width="127.999" height="40" rx="13" fill="#FDB60D"/>
<g opacity="0.9">
<path d="M10.9854 115.887H14.4103V111.134H17.0124C20.504 111.134 23.3062 109.233 23.3062 105.567V105.522C23.3062 102.286 21.06 100.045 17.346 100.045H10.9854V115.887ZM14.4103 108.034V103.191H17.0568C18.7693 103.191 19.8368 104.028 19.8368 105.59V105.635C19.8368 106.993 18.836 108.034 17.1236 108.034H14.4103Z" fill="#010101"/>
<path d="M25.8409 115.887H29.2658V110.818H31.9568L35.2928 115.887H39.296L35.493 110.229C37.4723 109.482 38.829 107.876 38.829 105.318V105.273C38.829 103.779 38.3619 102.535 37.4946 101.652C36.4715 100.611 34.937 100.045 32.9576 100.045H25.8409V115.887ZM29.2658 107.74V103.191H32.6685C34.3365 103.191 35.3595 103.96 35.3595 105.454V105.499C35.3595 106.835 34.4032 107.74 32.7352 107.74H29.2658Z" fill="#010101"/>
<path d="M41.9127 115.887H53.7665V112.786H45.3154V109.46H52.6545V106.359H45.3154V103.146H53.6553V100.045H41.9127V115.887Z" fill="#010101"/>
<path d="M61.7711 116H64.7957L71.0896 100.045H67.3978L63.3279 111.202L59.258 100.045H55.4772L61.7711 116Z" fill="#010101"/>
<path d="M73.6472 115.887H77.0721V100.045H73.6472V115.887Z" fill="#010101"/>
<path d="M80.9627 115.887H92.8166V112.786H84.3654V109.46H91.7046V106.359H84.3654V103.146H92.7054V100.045H80.9627V115.887Z" fill="#010101"/>
<path d="M99.9761 116H102.956L106.47 105.635L109.984 116H112.964L118.279 100.045H114.699L111.474 110.772L107.982 100H105.047L101.555 110.772L98.3303 100.045H94.6607L99.9761 116Z" fill="#010101"/>
</g>
</g>
<defs>
<linearGradient id="paint0_linear_5741_42730" x1="18.887" y1="114.294" x2="73.8993" y2="45.5286" gradientUnits="userSpaceOnUse">
<stop stop-color="#3BEA62"/>
<stop offset="0.543588" stop-color="#0894FA"/>
<stop offset="1" stop-color="#764EFF"/>
</linearGradient>
<linearGradient id="paint1_linear_5741_42730" x1="116.764" y1="1.78861" x2="61.7657" y2="56.7869" gradientUnits="userSpaceOnUse">
<stop stop-color="#3BEA62"/>
<stop offset="0.543588" stop-color="#0894FA"/>
<stop offset="1" stop-color="#764EFF"/>
</linearGradient>
<clipPath id="clip0_5741_42730">
<rect width="128" height="128" fill="white"/>
</clipPath>
<clipPath id="clip1_5741_42730">
<rect width="128" height="128" fill="white"/>
</clipPath>
<clipPath id="clip2_5741_42730">
<rect width="110" height="110" fill="white" transform="translate(9)"/>
</clipPath>
</defs>
</svg>
