<svg width="128" height="128" viewBox="0 0 128 128" fill="none" xmlns="http://www.w3.org/2000/svg">
<path d="M113 15H15V113H113V15Z" fill="url(#paint0_linear)"/>
<path d="M95.1998 32.8H32.7998V95.2H95.1998V32.8Z" fill="url(#paint1_linear)"/>
<path d="M104.6 23.4H23.3999V104.6H104.6V23.4V23.4Z" fill="url(#paint2_linear)"/>
<path d="M104.6 104.6V23.4L95.2002 32.8V95.2L104.6 104.6Z" fill="#2BB673"/>
<path d="M32.8 32.8H95.2L113 15H15L32.8 32.8Z" fill="url(#paint3_linear)"/>
<path d="M95.2 95.2H32.8L15 113H113L95.2 95.2Z" fill="url(#paint4_linear)"/>
<path d="M23.3999 104.6H104.6L95.1999 95.2H32.7999L23.3999 104.6Z" fill="#2BB673"/>
<path d="M104.6 104.6V23.4L95.2002 32.8V95.2L104.6 104.6Z" fill="url(#paint5_linear)"/>
<path d="M23.3999 104.6H104.6L95.1999 95.2H32.7999L23.3999 104.6Z" fill="url(#paint6_linear)"/>
<path d="M32.8 95.2V32.8L15 15V113L32.8 95.2Z" fill="url(#paint7_linear)"/>
<path d="M23.4 23.4H104.6L113 15H15L23.4 23.4Z" fill="url(#paint8_linear)"/>
<path d="M23.4 23.4H104.6L113 15H15L23.4 23.4Z" fill="url(#paint9_linear)"/>
<path d="M104.6 23.4H23.3999L32.7999 32.8H95.1999L104.6 23.4Z" fill="url(#paint10_linear)"/>
<path d="M104.6 23.4H23.3999L32.7999 32.8H95.1999L104.6 23.4Z" fill="url(#paint11_linear)"/>
<path d="M104.6 104.6H23.4L15 113H113L104.6 104.6Z" fill="url(#paint12_linear)"/>
<path d="M104.6 104.6L113 113V15L104.6 23.4V104.6Z" fill="url(#paint13_linear)"/>
<path d="M104.6 104.6H23.4L15 113H113L104.6 104.6Z" fill="url(#paint14_linear)"/>
<path d="M104.6 104.6H23.4L15 113H113L104.6 104.6Z" fill="url(#paint15_linear)"/>
<path d="M104.6 104.6H23.4L15 113H113L104.6 104.6Z" fill="url(#paint16_linear)"/>
<path d="M104.6 104.6H23.4L15 113H113L104.6 104.6Z" fill="url(#paint17_linear)"/>
<path d="M104.6 104.6H23.4L15 113H113L104.6 104.6Z" fill="url(#paint18_linear)"/>
<path d="M104.6 104.6L113 113V15L104.6 23.4V104.6Z" fill="url(#paint19_linear)"/>
<path d="M104.6 104.6L113 113V15L104.6 23.4V104.6Z" fill="url(#paint20_linear)"/>
<path d="M104.6 104.6L113 113V15L104.6 23.4V104.6Z" fill="url(#paint21_linear)"/>
<path d="M104.6 104.6L113 113V15L104.6 23.4V104.6Z" fill="url(#paint22_linear)"/>
<path d="M104.6 104.6L113 113V15L104.6 23.4V104.6Z" fill="url(#paint23_linear)"/>
<path d="M23.4 104.6V23.4L15 15V113L23.4 104.6Z" fill="url(#paint24_linear)"/>
<path d="M23.4 104.6V23.4L15 15V113L23.4 104.6Z" fill="url(#paint25_linear)"/>
<path d="M23.3999 23.4V104.6L32.7999 95.2V32.8L23.3999 23.4Z" fill="url(#paint26_linear)"/>
<path d="M100 28H28V100H100V28Z" fill="url(#paint27_linear)"/>
<path d="M63.9499 86.45H36.8999V90.95H63.9499V86.45Z" fill="white"/>
<path d="M37 37H48C54.45 37 58.3 40.8 58.3 46.3V46.4C58.3 52.65 53.45 55.9 47.4 55.9H42.9V64H37V37ZM47.65 50.55C50.6 50.55 52.35 48.85 52.35 46.5V46.4C52.35 43.75 50.5 42.3 47.55 42.3H42.95V50.55H47.65Z" fill="white"/>
<path d="M62 37H82.7483V42.255H68.2517V47.8725H81.1174V53.1275H68.2517V58.745H83.1107V64H62.2718V37H62Z" fill="white"/>
<defs>
<linearGradient id="paint0_linear" x1="57.126" y1="30.5199" x2="76.0391" y2="122.638" gradientUnits="userSpaceOnUse">
<stop offset="0.0242344" stop-color="#10E899"/>
<stop offset="1" stop-color="#21D789"/>
</linearGradient>
<linearGradient id="paint1_linear" x1="102.153" y1="102.153" x2="14.0608" y2="14.061" gradientUnits="userSpaceOnUse">
<stop offset="0.3475" stop-color="#087CFA"/>
<stop offset="0.8562" stop-color="#FE2857"/>
<stop offset="1" stop-color="#FE2857"/>
</linearGradient>
<linearGradient id="paint2_linear" x1="113.665" y1="113.665" x2="-1.0066" y2="-1.00637" gradientUnits="userSpaceOnUse">
<stop  offset="0" stop-color="#FCF84A"/>
<stop offset="0.2816" stop-color="#C1F834"/>
<stop offset="0.7846" stop-color="#10E899"/>
</linearGradient>
<linearGradient id="paint3_linear" x1="12.7912" y1="23.909" x2="108.751" y2="23.909" gradientUnits="userSpaceOnUse">
<stop offset="0.1844" stop-color="#EFE50C"/>
<stop offset="0.5239" stop-color="#BEFF26"/>
<stop offset="0.8746" stop-color="#00C66E"/>
</linearGradient>
<linearGradient id="paint4_linear" x1="108.914" y1="104.09" x2="19.4639" y2="104.09" gradientUnits="userSpaceOnUse">
<stop  offset="0" stop-color="#21D789"/>
<stop offset="0.8746" stop-color="#00C66E"/>
</linearGradient>
<linearGradient id="paint5_linear" x1="97.0582" y1="63.9997" x2="108.28" y2="63.9997" gradientUnits="userSpaceOnUse">
<stop offset="0.27" stop-color="#007E62"/>
<stop offset="1" stop-color="#07C3F2" stop-opacity="0"/>
</linearGradient>
<linearGradient id="paint6_linear" x1="63.9702" y1="97.0575" x2="63.9698" y2="108.279" gradientUnits="userSpaceOnUse">
<stop offset="0.27" stop-color="#007E62"/>
<stop offset="1" stop-color="#07C3F2" stop-opacity="0"/>
</linearGradient>
<linearGradient id="paint7_linear" x1="23.9095" y1="12.0375" x2="23.9095" y2="104.388" gradientUnits="userSpaceOnUse">
<stop offset="0.2576" stop-color="#EFE50C"/>
<stop offset="0.5774" stop-color="#BEFF26"/>
<stop offset="0.8746" stop-color="#00C66E"/>
</linearGradient>
<linearGradient id="paint8_linear" x1="60.0378" y1="19.011" x2="36.2125" y2="38.0254" gradientUnits="userSpaceOnUse">
<stop offset="0.1018" stop-color="#A5FF21" stop-opacity="0"/>
<stop offset="0.8222" stop-color="#FCF84A"/>
<stop offset="1" stop-color="white" stop-opacity="0.9"/>
</linearGradient>
<linearGradient id="paint9_linear" x1="72.1964" y1="18.389" x2="111.215" y2="15.822" gradientUnits="userSpaceOnUse">
<stop offset="0.5632" stop-color="#10E899" stop-opacity="0"/>
<stop offset="1" stop-color="#21D789" stop-opacity="0.9"/>
</linearGradient>
<linearGradient id="paint10_linear" x1="93.6287" y1="15.7541" x2="42.0835" y2="34.3103" gradientUnits="userSpaceOnUse">
<stop offset="0.018393" stop-color="#99C81D"/>
<stop offset="0.723" stop-color="#10C299" stop-opacity="0"/>
</linearGradient>
<linearGradient id="paint11_linear" x1="93.6287" y1="15.7541" x2="42.0835" y2="34.3103" gradientUnits="userSpaceOnUse">
<stop offset="0.1378" stop-color="#50AC3F" stop-opacity="0.97"/>
<stop offset="0.723" stop-color="#10C23B" stop-opacity="0.4"/>
</linearGradient>
<linearGradient id="paint12_linear" x1="123.471" y1="119.5" x2="32.1788" y2="104.151" gradientUnits="userSpaceOnUse">
<stop  offset="0" stop-color="#FCF84A" stop-opacity="0"/>
<stop offset="1" stop-color="#29CF4B"/>
</linearGradient>
<linearGradient id="paint13_linear" x1="108.795" y1="109.718" x2="108.795" y2="20.3749" gradientUnits="userSpaceOnUse">
<stop  offset="0" stop-color="#21D789"/>
<stop offset="0.8746" stop-color="#00C66E"/>
</linearGradient>
<linearGradient id="paint14_linear" x1="63.9998" y1="102.731" x2="63.9998" y2="115.598" gradientUnits="userSpaceOnUse">
<stop offset="0.1754" stop-color="#07C3F2" stop-opacity="0"/>
<stop offset="0.7533" stop-color="#07BC65"/>
</linearGradient>
<linearGradient id="paint15_linear" x1="63.9998" y1="102.731" x2="63.9998" y2="115.598" gradientUnits="userSpaceOnUse">
<stop offset="0.0714497" stop-color="#10E899" stop-opacity="0.5"/>
<stop offset="0.5642" stop-color="#10E899" stop-opacity="0"/>
</linearGradient>
<linearGradient id="paint16_linear" x1="63.9998" y1="113.031" x2="63.9998" y2="103.129" gradientUnits="userSpaceOnUse">
<stop offset="0.0714497" stop-color="#21D789" stop-opacity="0.5"/>
<stop offset="0.5642" stop-color="#10E899" stop-opacity="0"/>
</linearGradient>
<linearGradient id="paint17_linear" x1="99.0127" y1="115.069" x2="2.7483" y2="99.6669" gradientUnits="userSpaceOnUse">
<stop offset="0.5632" stop-color="#A5FF21" stop-opacity="0"/>
<stop offset="1" stop-color="#10E899" stop-opacity="0.9"/>
</linearGradient>
<linearGradient id="paint18_linear" x1="83.0875" y1="108.794" x2="112.513" y2="108.794" gradientUnits="userSpaceOnUse">
<stop offset="0.5632" stop-color="#07C3F2" stop-opacity="0"/>
<stop offset="1" stop-color="#009AE5" stop-opacity="0.9"/>
</linearGradient>
<linearGradient id="paint19_linear" x1="103.286" y1="63.9998" x2="115.172" y2="63.9998" gradientUnits="userSpaceOnUse">
<stop offset="0.1754" stop-color="#07C3F2" stop-opacity="0"/>
<stop offset="0.7533" stop-color="#07BC65"/>
</linearGradient>
<linearGradient id="paint20_linear" x1="103.286" y1="63.9998" x2="115.172" y2="63.9998" gradientUnits="userSpaceOnUse">
<stop offset="0.0714497" stop-color="#10E899" stop-opacity="0.5"/>
<stop offset="0.5642" stop-color="#10E899" stop-opacity="0"/>
</linearGradient>
<linearGradient id="paint21_linear" x1="111.986" y1="63.9998" x2="106.235" y2="63.9998" gradientUnits="userSpaceOnUse">
<stop offset="0.0714497" stop-color="#21D789" stop-opacity="0.5"/>
<stop offset="0.5642" stop-color="#10E899" stop-opacity="0"/>
</linearGradient>
<linearGradient id="paint22_linear" x1="109.659" y1="65.7608" x2="102.569" y2="16.8265" gradientUnits="userSpaceOnUse">
<stop offset="0.5632" stop-color="#A5FF21" stop-opacity="0"/>
<stop offset="1" stop-color="#10E899" stop-opacity="0.9"/>
</linearGradient>
<linearGradient id="paint23_linear" x1="108.795" y1="70.3957" x2="108.795" y2="113.08" gradientUnits="userSpaceOnUse">
<stop offset="0.5632" stop-color="#07C3F2" stop-opacity="0"/>
<stop offset="1" stop-color="#009AE5" stop-opacity="0.9"/>
</linearGradient>
<linearGradient id="paint24_linear" x1="13.0184" y1="84.8177" x2="28.5964" y2="21.8183" gradientUnits="userSpaceOnUse">
<stop offset="0.1018" stop-color="#A5FF21" stop-opacity="0"/>
<stop offset="0.8222" stop-color="#FCF84A"/>
<stop offset="1" stop-color="white" stop-opacity="0.9"/>
</linearGradient>
<linearGradient id="paint25_linear" x1="18.5279" y1="63.8129" x2="9.7999" y2="115.539" gradientUnits="userSpaceOnUse">
<stop offset="0.5632" stop-color="#FCF84A" stop-opacity="0"/>
<stop offset="1" stop-color="#21D789" stop-opacity="0.9"/>
</linearGradient>
<linearGradient id="paint26_linear" x1="14.8073" y1="68.8015" x2="34.5089" y2="57.8053" gradientUnits="userSpaceOnUse">
<stop offset="0.1378" stop-color="#50AC3F" stop-opacity="0.97"/>
<stop offset="0.723" stop-color="#10C23B" stop-opacity="0.4"/>
</linearGradient>
<linearGradient id="paint27_linear" x1="28.1096" y1="28.1096" x2="91.1958" y2="91.1958" gradientUnits="userSpaceOnUse">
<stop  offset="0" stop-color="#298B2A"/>
<stop offset="0.092362" stop-color="#216F21"/>
<stop offset="0.2928" stop-color="#103510"/>
<stop offset="0.6895" stop-color="#051005"/>
<stop offset="0.9138"/>
</linearGradient>
</defs>
</svg>
