<svg width="64" height="64" viewBox="0 0 64 64" fill="none" xmlns="http://www.w3.org/2000/svg">
<path d="M56.5 7.5H7.5V56.5H56.5V7.5Z" fill="url(#paint0_linear)"/>
<path d="M47.5999 16.4H16.3999V47.6H47.5999V16.4V16.4Z" fill="url(#paint1_linear)"/>
<path d="M52.3002 11.7H11.7002V52.3H52.3002V11.7Z" fill="url(#paint2_linear)"/>
<path d="M52.3001 52.3V11.7L47.6001 16.4V47.6L52.3001 52.3Z" fill="#2BB673"/>
<path d="M16.4 16.4H47.6L56.5 7.5H7.5L16.4 16.4Z" fill="url(#paint3_linear)"/>
<path d="M47.6 47.6H16.4L7.5 56.5H56.5L47.6 47.6Z" fill="url(#paint4_linear)"/>
<path d="M11.7002 52.3H52.3002L47.6002 47.6H16.4002L11.7002 52.3Z" fill="#2BB673"/>
<path d="M52.3001 52.3V11.7L47.6001 16.4V47.6L52.3001 52.3Z" fill="url(#paint5_linear)"/>
<path d="M11.7002 52.3H52.3002L47.6002 47.6H16.4002L11.7002 52.3Z" fill="url(#paint6_linear)"/>
<path d="M16.4 47.6V16.4L7.5 7.5V56.5L16.4 47.6Z" fill="url(#paint7_linear)"/>
<path d="M11.7 11.7H52.3L56.5 7.5H7.5L11.7 11.7Z" fill="url(#paint8_linear)"/>
<path d="M11.7 11.7H52.3L56.5 7.5H7.5L11.7 11.7Z" fill="url(#paint9_linear)"/>
<path d="M52.3002 11.7H11.7002L16.4002 16.4H47.6002L52.3002 11.7Z" fill="url(#paint10_linear)"/>
<path d="M52.3002 11.7H11.7002L16.4002 16.4H47.6002L52.3002 11.7Z" fill="url(#paint11_linear)"/>
<path d="M52.3 52.3H11.7L7.5 56.5H56.5L52.3 52.3Z" fill="url(#paint12_linear)"/>
<path d="M52.2998 52.3L56.4998 56.5V7.5L52.2998 11.7V52.3Z" fill="url(#paint13_linear)"/>
<path d="M52.3 52.3H11.7L7.5 56.5H56.5L52.3 52.3Z" fill="url(#paint14_linear)"/>
<path d="M52.3 52.3H11.7L7.5 56.5H56.5L52.3 52.3Z" fill="url(#paint15_linear)"/>
<path d="M52.3 52.3H11.7L7.5 56.5H56.5L52.3 52.3Z" fill="url(#paint16_linear)"/>
<path d="M52.3 52.3H11.7L7.5 56.5H56.5L52.3 52.3Z" fill="url(#paint17_linear)"/>
<path d="M52.3 52.3H11.7L7.5 56.5H56.5L52.3 52.3Z" fill="url(#paint18_linear)"/>
<path d="M52.2998 52.3L56.4998 56.5V7.5L52.2998 11.7V52.3Z" fill="url(#paint19_linear)"/>
<path d="M52.2998 52.3L56.4998 56.5V7.5L52.2998 11.7V52.3Z" fill="url(#paint20_linear)"/>
<path d="M52.2998 52.3L56.4998 56.5V7.5L52.2998 11.7V52.3Z" fill="url(#paint21_linear)"/>
<path d="M52.2998 52.3L56.4998 56.5V7.5L52.2998 11.7V52.3Z" fill="url(#paint22_linear)"/>
<path d="M52.2998 52.3L56.4998 56.5V7.5L52.2998 11.7V52.3Z" fill="url(#paint23_linear)"/>
<path d="M11.7 52.3V11.7L7.5 7.5V56.5L11.7 52.3Z" fill="url(#paint24_linear)"/>
<path d="M11.7 52.3V11.7L7.5 7.5V56.5L11.7 52.3Z" fill="url(#paint25_linear)"/>
<path d="M11.7002 11.7V52.3L16.4002 47.6V16.4L11.7002 11.7Z" fill="url(#paint26_linear)"/>
<path d="M50 14H14V50H50V14Z" fill="url(#paint27_linear)"/>
<path d="M31.9999 43.1999H18.3999V45.3999H31.9999V43.1999Z" fill="white"/>
<path d="M18.3999 18H23.8999C27.0999 18 29.0999 19.9 29.0999 22.7C29.0999 25.8 26.6999 27.5 23.5999 27.5H21.3999V31.6H18.3999V18V18ZM23.6999 24.8C25.1999 24.8 26.0999 23.9 26.0999 22.7C26.0999 21.4 25.1999 20.6 23.6999 20.6H21.3999V24.8H23.6999Z" fill="white"/>
<path d="M31 18H41.451V20.647H34.149V23.4765H40.6295V26.1235H34.149V28.953H41.6336V31.6H31.1369V18H31Z" fill="white"/>
<defs>
<linearGradient id="paint0_linear" x1="28.563" y1="15.26" x2="38.0196" y2="61.319" gradientUnits="userSpaceOnUse">
<stop offset="0.0242344" stop-color="#10E899"/>
<stop offset="1" stop-color="#21D789"/>
</linearGradient>
<linearGradient id="paint1_linear" x1="51.0766" y1="51.0762" x2="7.0304" y2="7.03082" gradientUnits="userSpaceOnUse">
<stop offset="0.3475" stop-color="#087CFA"/>
<stop offset="0.8562" stop-color="#FE2857"/>
<stop offset="1" stop-color="#FE2857"/>
</linearGradient>
<linearGradient id="paint2_linear" x1="56.8327" y1="56.8321" x2="-0.503002" y2="-0.502886" gradientUnits="userSpaceOnUse">
<stop  offset="0" stop-color="#FCF84A"/>
<stop offset="0.2816" stop-color="#C1F834"/>
<stop offset="0.7846" stop-color="#10E899"/>
</linearGradient>
<linearGradient id="paint3_linear" x1="6.3956" y1="11.9545" x2="54.3753" y2="11.9545" gradientUnits="userSpaceOnUse">
<stop offset="0.1844" stop-color="#EFE50C"/>
<stop offset="0.5239" stop-color="#BEFF26"/>
<stop offset="0.8746" stop-color="#00C66E"/>
</linearGradient>
<linearGradient id="paint4_linear" x1="54.4572" y1="52.0451" x2="9.732" y2="52.0451" gradientUnits="userSpaceOnUse">
<stop  offset="0" stop-color="#21D789"/>
<stop offset="0.8746" stop-color="#00C66E"/>
</linearGradient>
<linearGradient id="paint5_linear" x1="48.5291" y1="31.9999" x2="54.14" y2="31.9999" gradientUnits="userSpaceOnUse">
<stop offset="0.27" stop-color="#007E62"/>
<stop offset="1" stop-color="#07C3F2" stop-opacity="0"/>
</linearGradient>
<linearGradient id="paint6_linear" x1="31.9681" y1="48.5292" x2="31.968" y2="54.1401" gradientUnits="userSpaceOnUse">
<stop offset="0.27" stop-color="#007E62"/>
<stop offset="1" stop-color="#07C3F2" stop-opacity="0"/>
</linearGradient>
<linearGradient id="paint7_linear" x1="11.9548" y1="6.0188" x2="11.9548" y2="52.1938" gradientUnits="userSpaceOnUse">
<stop offset="0.2576" stop-color="#EFE50C"/>
<stop offset="0.5774" stop-color="#BEFF26"/>
<stop offset="0.8746" stop-color="#00C66E"/>
</linearGradient>
<linearGradient id="paint8_linear" x1="30.0189" y1="9.5055" x2="18.1062" y2="19.0127" gradientUnits="userSpaceOnUse">
<stop offset="0.1018" stop-color="#A5FF21" stop-opacity="0"/>
<stop offset="0.8222" stop-color="#FCF84A"/>
<stop offset="1" stop-color="white" stop-opacity="0.9"/>
</linearGradient>
<linearGradient id="paint9_linear" x1="36.0982" y1="9.1945" x2="55.6078" y2="7.911" gradientUnits="userSpaceOnUse">
<stop offset="0.5632" stop-color="#10E899" stop-opacity="0"/>
<stop offset="1" stop-color="#21D789" stop-opacity="0.9"/>
</linearGradient>
<linearGradient id="paint10_linear" x1="46.8146" y1="7.87701" x2="21.042" y2="17.1552" gradientUnits="userSpaceOnUse">
<stop offset="0.018393" stop-color="#99C81D"/>
<stop offset="0.723" stop-color="#10C299" stop-opacity="0"/>
</linearGradient>
<linearGradient id="paint11_linear" x1="46.8146" y1="7.87701" x2="21.042" y2="17.1552" gradientUnits="userSpaceOnUse">
<stop offset="0.1378" stop-color="#50AC3F" stop-opacity="0.97"/>
<stop offset="0.723" stop-color="#10C23B" stop-opacity="0.4"/>
</linearGradient>
<linearGradient id="paint12_linear" x1="61.7355" y1="59.7501" x2="16.0894" y2="52.0756" gradientUnits="userSpaceOnUse">
<stop  offset="0" stop-color="#FCF84A" stop-opacity="0"/>
<stop offset="1" stop-color="#29CF4B"/>
</linearGradient>
<linearGradient id="paint13_linear" x1="54.3972" y1="54.8591" x2="54.3972" y2="10.1875" gradientUnits="userSpaceOnUse">
<stop  offset="0" stop-color="#21D789"/>
<stop offset="0.8746" stop-color="#00C66E"/>
</linearGradient>
<linearGradient id="paint14_linear" x1="31.9999" y1="51.3656" x2="31.9999" y2="57.7991" gradientUnits="userSpaceOnUse">
<stop offset="0.1754" stop-color="#07C3F2" stop-opacity="0"/>
<stop offset="0.7533" stop-color="#07BC65"/>
</linearGradient>
<linearGradient id="paint15_linear" x1="31.9999" y1="51.3656" x2="31.9999" y2="57.7991" gradientUnits="userSpaceOnUse">
<stop offset="0.0714497" stop-color="#10E899" stop-opacity="0.5"/>
<stop offset="0.5642" stop-color="#10E899" stop-opacity="0"/>
</linearGradient>
<linearGradient id="paint16_linear" x1="31.9999" y1="56.5158" x2="31.9999" y2="51.5644" gradientUnits="userSpaceOnUse">
<stop offset="0.0714497" stop-color="#21D789" stop-opacity="0.5"/>
<stop offset="0.5642" stop-color="#10E899" stop-opacity="0"/>
</linearGradient>
<linearGradient id="paint17_linear" x1="49.5064" y1="57.5346" x2="1.3742" y2="49.8334" gradientUnits="userSpaceOnUse">
<stop offset="0.5632" stop-color="#A5FF21" stop-opacity="0"/>
<stop offset="1" stop-color="#10E899" stop-opacity="0.9"/>
</linearGradient>
<linearGradient id="paint18_linear" x1="41.5437" y1="54.3971" x2="56.2566" y2="54.3971" gradientUnits="userSpaceOnUse">
<stop offset="0.5632" stop-color="#07C3F2" stop-opacity="0"/>
<stop offset="1" stop-color="#009AE5" stop-opacity="0.9"/>
</linearGradient>
<linearGradient id="paint19_linear" x1="51.6426" y1="31.9999" x2="57.5856" y2="31.9999" gradientUnits="userSpaceOnUse">
<stop offset="0.1754" stop-color="#07C3F2" stop-opacity="0"/>
<stop offset="0.7533" stop-color="#07BC65"/>
</linearGradient>
<linearGradient id="paint20_linear" x1="51.6426" y1="31.9999" x2="57.5856" y2="31.9999" gradientUnits="userSpaceOnUse">
<stop offset="0.0714497" stop-color="#10E899" stop-opacity="0.5"/>
<stop offset="0.5642" stop-color="#10E899" stop-opacity="0"/>
</linearGradient>
<linearGradient id="paint21_linear" x1="55.9925" y1="31.9999" x2="53.1172" y2="31.9999" gradientUnits="userSpaceOnUse">
<stop offset="0.0714497" stop-color="#21D789" stop-opacity="0.5"/>
<stop offset="0.5642" stop-color="#10E899" stop-opacity="0"/>
</linearGradient>
<linearGradient id="paint22_linear" x1="54.8293" y1="32.8804" x2="51.2843" y2="8.4133" gradientUnits="userSpaceOnUse">
<stop offset="0.5632" stop-color="#A5FF21" stop-opacity="0"/>
<stop offset="1" stop-color="#10E899" stop-opacity="0.9"/>
</linearGradient>
<linearGradient id="paint23_linear" x1="54.3972" y1="35.1979" x2="54.3972" y2="56.5399" gradientUnits="userSpaceOnUse">
<stop offset="0.5632" stop-color="#07C3F2" stop-opacity="0"/>
<stop offset="1" stop-color="#009AE5" stop-opacity="0.9"/>
</linearGradient>
<linearGradient id="paint24_linear" x1="6.5092" y1="42.4089" x2="14.2982" y2="10.9092" gradientUnits="userSpaceOnUse">
<stop offset="0.1018" stop-color="#A5FF21" stop-opacity="0"/>
<stop offset="0.8222" stop-color="#FCF84A"/>
<stop offset="1" stop-color="white" stop-opacity="0.9"/>
</linearGradient>
<linearGradient id="paint25_linear" x1="9.264" y1="31.9065" x2="4.9" y2="57.7695" gradientUnits="userSpaceOnUse">
<stop offset="0.5632" stop-color="#FCF84A" stop-opacity="0"/>
<stop offset="1" stop-color="#21D789" stop-opacity="0.9"/>
</linearGradient>
<linearGradient id="paint26_linear" x1="7.4039" y1="34.4008" x2="17.2547" y2="28.9026" gradientUnits="userSpaceOnUse">
<stop offset="0.1378" stop-color="#50AC3F" stop-opacity="0.97"/>
<stop offset="0.723" stop-color="#10C23B" stop-opacity="0.4"/>
</linearGradient>
<linearGradient id="paint27_linear" x1="14.0548" y1="14.0548" x2="45.5979" y2="45.5979" gradientUnits="userSpaceOnUse">
<stop  offset="0" stop-color="#298B2A"/>
<stop offset="0.092362" stop-color="#216F21"/>
<stop offset="0.2928" stop-color="#103510"/>
<stop offset="0.6895" stop-color="#051005"/>
<stop offset="0.9138"/>
</linearGradient>
</defs>
</svg>
