<svg width="20" height="20" viewBox="0 0 20 20" fill="none" xmlns="http://www.w3.org/2000/svg">
<g clip-path="url(#clip0_5741_42805)">
<g clip-path="url(#clip1_5741_42805)">
<g clip-path="url(#clip2_5741_42805)">
<path d="M8.32636 3.34692H8.32684C12.146 3.34692 15.2467 6.44771 15.2467 10.267V10.2673C15.2467 14.0866 12.146 17.1874 8.3269 17.1874H8.32642C4.50707 17.1874 1.40625 14.0864 1.40625 10.267V10.2673C1.40625 6.44783 4.50705 3.34692 8.32636 3.34692Z" fill="url(#paint0_linear_5741_42805)"/>
<path d="M8.89395 12.126L16.1676 12.126C17.5075 12.126 18.5938 11.0398 18.5938 9.69983L18.5938 2.4262C18.5938 1.08628 17.5075 5.26474e-05 16.1676 5.1712e-05L8.89396 4.6634e-05C7.55403 4.56986e-05 6.46781 1.08627 6.46781 2.42619L6.4678 9.69982C6.4678 11.0397 7.55402 12.126 8.89395 12.126Z" fill="url(#paint1_linear_5741_42805)"/>
<path d="M6.46779 3.63819L14.9554 3.63818L14.9554 12.1258L6.46777 12.1258L6.46779 3.63819Z" fill="black"/>
<path d="M7.67969 9.70069L12.3783 9.70068V10.9132L7.67969 10.9132L7.67969 9.70069Z" fill="white"/>
</g>
</g>
<rect x="-0.000976562" y="13.3333" width="20" height="6.66667" rx="1.25" fill="#FDB60D"/>
<g opacity="0.9">
<path d="M0.935547 18.2633H1.51323V17.3011H1.95212C2.54106 17.3011 3.01371 16.9163 3.01371 16.174V16.1648C3.01371 15.5096 2.63484 15.056 2.00839 15.056H0.935547V18.2633ZM1.51323 16.6734V15.6929H1.95963C2.24847 15.6929 2.42853 15.8624 2.42853 16.1786V16.1877C2.42853 16.4627 2.25972 16.6734 1.97088 16.6734H1.51323Z" fill="#010101"/>
<path d="M3.44123 18.2633H4.01892V17.237H4.47281L5.0355 18.2633H5.71071L5.06926 17.1179C5.40311 16.9667 5.63194 16.6413 5.63194 16.1236V16.1144C5.63194 15.812 5.55316 15.56 5.40686 15.3813C5.23431 15.1706 4.97548 15.056 4.64162 15.056H3.44123V18.2633ZM4.01892 16.6139V15.6929H4.59285C4.87419 15.6929 5.04675 15.8487 5.04675 16.1511V16.1603C5.04675 16.4306 4.88545 16.6139 4.60411 16.6139H4.01892Z" fill="#010101"/>
<path d="M6.15206 18.2633H8.15146V17.6356H6.726V16.9621H7.9639V16.3344H6.726V15.6837H8.1327V15.056H6.15206V18.2633Z" fill="#010101"/>
<path d="M9.5016 18.2862H10.0118L11.0734 15.056H10.4507L9.76418 17.3149L9.07771 15.056H8.44001L9.5016 18.2862Z" fill="#010101"/>
<path d="M11.5047 18.2633H12.0824V15.056H11.5047V18.2633Z" fill="#010101"/>
<path d="M12.7386 18.2633H14.738V17.6356H13.3126V16.9621H14.5505V16.3344H13.3126V15.6837H14.7193V15.056H12.7386V18.2633Z" fill="#010101"/>
<path d="M15.9456 18.2862H16.4483L17.041 16.1877L17.6337 18.2862H18.1363L19.0329 15.056H18.4289L17.885 17.2278L17.2961 15.0469H16.8009L16.212 17.2278L15.668 15.056H15.0491L15.9456 18.2862Z" fill="#010101"/>
</g>
</g>
<defs>
<linearGradient id="paint0_linear_5741_42805" x1="2.95079" y1="17.8584" x2="11.5465" y2="7.11383" gradientUnits="userSpaceOnUse">
<stop stop-color="#3BEA62"/>
<stop offset="0.543588" stop-color="#0894FA"/>
<stop offset="1" stop-color="#764EFF"/>
</linearGradient>
<linearGradient id="paint1_linear_5741_42805" x1="18.2444" y1="0.279476" x2="9.6509" y2="8.87297" gradientUnits="userSpaceOnUse">
<stop stop-color="#3BEA62"/>
<stop offset="0.543588" stop-color="#0894FA"/>
<stop offset="1" stop-color="#764EFF"/>
</linearGradient>
<clipPath id="clip0_5741_42805">
<rect width="20" height="20" fill="white"/>
</clipPath>
<clipPath id="clip1_5741_42805">
<rect width="20" height="20" fill="white"/>
</clipPath>
<clipPath id="clip2_5741_42805">
<rect width="17.1874" height="17.1874" fill="white" transform="translate(1.40625)"/>
</clipPath>
</defs>
</svg>
