<svg width="48" height="48" viewBox="0 0 48 48" fill="none" xmlns="http://www.w3.org/2000/svg">
<g clip-path="url(#clip0_5733_10003)">
<g clip-path="url(#clip1_5733_10003)">
<g clip-path="url(#clip2_5733_10003)">
<path d="M19.9843 8.03271H19.9854C29.1515 8.03271 36.5931 15.4746 36.5931 24.641V24.6418C36.5931 33.808 29.1515 41.2499 19.9856 41.2499H19.9844C10.818 41.2499 3.37598 33.8076 3.37598 24.6409V24.6416C3.37598 15.4749 10.8179 8.03271 19.9843 8.03271Z" fill="url(#paint0_linear_5733_10003)"/>
<path d="M21.3454 29.1023L38.8022 29.1023C42.0181 29.1023 44.625 26.4954 44.625 23.2795L44.625 5.82276C44.625 2.60693 42.0181 -9.44939e-06 38.8022 -1.16945e-05L21.3454 -2.38816e-05C18.1296 -2.61267e-05 15.5227 2.60691 15.5227 5.82274L15.5226 23.2795C15.5226 26.4953 18.1296 29.1023 21.3454 29.1023Z" fill="url(#paint1_linear_5733_10003)"/>
<path d="M15.5235 8.73171L35.8939 8.73169L35.8938 29.1021L15.5234 29.1021L15.5235 8.73171Z" fill="black"/>
<path d="M18.4326 23.2813L29.7093 23.2812V26.1914L18.4326 26.1914L18.4326 23.2813Z" fill="white"/>
</g>
</g>
<rect y="33" width="48" height="15.0001" rx="4" fill="#FDB60D"/>
<g opacity="0.9">
<path d="M4.11914 43.4574H5.4035V41.6752H6.37929C7.68867 41.6752 8.73952 40.9623 8.73952 39.5875V39.5705C8.73952 38.3569 7.89717 37.5167 6.50439 37.5167H4.11914V43.4574ZM5.4035 40.5125V38.6964H6.39597C7.03815 38.6964 7.43847 39.0104 7.43847 39.596V39.6129C7.43847 40.1221 7.06317 40.5125 6.42099 40.5125H5.4035Z" fill="#010101"/>
<path d="M9.69002 43.4574H10.9744V41.5564H11.9835L13.2345 43.4574H14.7357L13.3096 41.3357C14.0519 41.0557 14.5606 40.4531 14.5606 39.4941V39.4771C14.5606 38.917 14.3855 38.4503 14.0602 38.1193C13.6766 37.7289 13.1011 37.5167 12.3588 37.5167H9.69002V43.4574ZM10.9744 40.4022V38.6964H12.2504C12.8759 38.6964 13.2596 38.9849 13.2596 39.545V39.562C13.2596 40.0627 12.9009 40.4022 12.2754 40.4022H10.9744Z" fill="#010101"/>
<path d="M15.717 43.4574H20.1622V42.2947H16.993V41.0472H19.7452V39.8845H16.993V38.6794H20.1205V37.5167H15.717V43.4574Z" fill="#010101"/>
<path d="M23.164 43.4998H24.2982L26.6585 37.5167H25.274L23.7478 41.7006L22.2216 37.5167H20.8038L23.164 43.4998Z" fill="#010101"/>
<path d="M27.6176 43.4574H28.9019V37.5167H27.6176V43.4574Z" fill="#010101"/>
<path d="M30.3609 43.4574H34.8061V42.2947H31.6369V41.0472H34.3891V39.8845H31.6369V38.6794H34.7644V37.5167H30.3609V43.4574Z" fill="#010101"/>
<path d="M37.491 43.4998H38.6085L39.9263 39.6129L41.244 43.4998H42.3616L44.3548 37.5167H43.0121L41.8028 41.5394L40.4934 37.4998H39.3925L38.0831 41.5394L36.8738 37.5167H35.4977L37.491 43.4998Z" fill="#010101"/>
</g>
</g>
<defs>
<linearGradient id="paint0_linear_5733_10003" x1="7.08287" y1="42.8604" x2="27.7126" y2="17.0733" gradientUnits="userSpaceOnUse">
<stop  offset="0" stop-color="#3BEA62"/>
<stop offset="0.543588" stop-color="#0894FA"/>
<stop offset="1" stop-color="#764EFF"/>
</linearGradient>
<linearGradient id="paint1_linear_5733_10003" x1="43.7866" y1="0.67061" x2="23.1621" y2="21.295" gradientUnits="userSpaceOnUse">
<stop  offset="0" stop-color="#3BEA62"/>
<stop offset="0.543588" stop-color="#0894FA"/>
<stop offset="1" stop-color="#764EFF"/>
</linearGradient>
<clipPath id="clip0_5733_10003">
<rect width="48" height="48" fill="white"/>
</clipPath>
<clipPath id="clip1_5733_10003">
<rect width="48" height="48" fill="white"/>
</clipPath>
<clipPath id="clip2_5733_10003">
<rect width="41.25" height="41.25" fill="white" transform="translate(3.375)"/>
</clipPath>
</defs>
</svg>
