<svg width="40" height="40" viewBox="0 0 40 40" fill="none" xmlns="http://www.w3.org/2000/svg">
<g clip-path="url(#clip0_5741_42880)">
<g clip-path="url(#clip1_5741_42880)">
<g clip-path="url(#clip2_5741_42880)">
<path d="M16.6537 6.69385H16.6547C24.2931 6.69385 30.4944 12.8954 30.4944 20.534V20.5347C30.4944 28.1733 24.2931 34.3748 16.6548 34.3748H16.6539C9.01514 34.3748 2.81348 28.1729 2.81348 20.534V20.5346C2.81348 12.8957 9.01509 6.69385 16.6537 6.69385Z" fill="url(#paint0_linear_5741_42880)"/>
<path d="M17.7878 24.2519L32.3352 24.2519C35.015 24.252 37.1875 22.0795 37.1875 19.3996L37.1875 4.85234C37.1875 2.17249 35.0151 3.28156e-05 32.3352 3.09447e-05L17.7879 2.07888e-05C15.108 1.89179e-05 12.9355 2.17247 12.9355 4.85233L12.9355 19.3996C12.9355 22.0795 15.108 24.2519 17.7878 24.2519Z" fill="url(#paint1_linear_5741_42880)"/>
<path d="M12.9365 7.27639L29.9119 7.27637L29.9118 24.2517L12.9365 24.2517L12.9365 7.27639Z" fill="black"/>
<path d="M15.3604 19.4011L24.7576 19.4011V21.8262L15.3604 21.8262L15.3604 19.4011Z" fill="white"/>
</g>
</g>
<rect y="27.5" width="40" height="12.5001" rx="3.33333" fill="#FDB60D"/>
<g opacity="0.9">
<path d="M3.43262 36.2144H4.50292V34.7293H5.31607C6.40723 34.7293 7.28293 34.1352 7.28293 32.9895V32.9754C7.28293 31.964 6.58098 31.2639 5.42032 31.2639H3.43262V36.2144ZM4.50292 33.7604V32.2469H5.32997C5.86513 32.2469 6.19873 32.5086 6.19873 32.9966V33.0107C6.19873 33.4351 5.88598 33.7604 5.35082 33.7604H4.50292Z" fill="#010101"/>
<path d="M8.07501 36.2144H9.14532V34.6303H9.98627L11.0288 36.2144H12.2798L11.0913 34.4464C11.7099 34.213 12.1338 33.7109 12.1338 32.9117V32.8976C12.1338 32.4308 11.9879 32.0418 11.7168 31.766C11.3971 31.4407 10.9176 31.2639 10.299 31.2639H8.07501V36.2144ZM9.14532 33.6684V32.2469H10.2087C10.7299 32.2469 11.0496 32.4874 11.0496 32.9542V32.9683C11.0496 33.3856 10.7508 33.6684 10.2295 33.6684H9.14532Z" fill="#010101"/>
<path d="M13.0975 36.2144H16.8019V35.2456H14.1608V34.2059H16.4544V33.237H14.1608V32.2328H16.7671V31.2639H13.0975V36.2144Z" fill="#010101"/>
<path d="M19.3033 36.2498H20.2485L22.2154 31.2639H21.0617L19.7898 34.7505L18.518 31.2639H17.3365L19.3033 36.2498Z" fill="#010101"/>
<path d="M23.0146 36.2144H24.0849V31.2639H23.0146V36.2144Z" fill="#010101"/>
<path d="M25.3008 36.2144H29.0051V35.2456H26.3641V34.2059H28.6576V33.237H26.3641V32.2328H28.9704V31.2639H25.3008V36.2144Z" fill="#010101"/>
<path d="M31.2425 36.2498H32.1738L33.2719 33.0107L34.37 36.2498H35.3013L36.9624 31.2639H35.8434L34.8356 34.6161L33.7445 31.2498H32.8271L31.7359 34.6161L30.7282 31.2639H29.5814L31.2425 36.2498Z" fill="#010101"/>
</g>
</g>
<defs>
<linearGradient id="paint0_linear_5741_42880" x1="5.90256" y1="35.7169" x2="23.094" y2="14.2277" gradientUnits="userSpaceOnUse">
<stop stop-color="#3BEA62"/>
<stop offset="0.543588" stop-color="#0894FA"/>
<stop offset="1" stop-color="#764EFF"/>
</linearGradient>
<linearGradient id="paint1_linear_5741_42880" x1="36.4888" y1="0.558882" x2="19.3017" y2="17.7459" gradientUnits="userSpaceOnUse">
<stop stop-color="#3BEA62"/>
<stop offset="0.543588" stop-color="#0894FA"/>
<stop offset="1" stop-color="#764EFF"/>
</linearGradient>
<clipPath id="clip0_5741_42880">
<rect width="40" height="40" fill="white"/>
</clipPath>
<clipPath id="clip1_5741_42880">
<rect width="40" height="40" fill="white"/>
</clipPath>
<clipPath id="clip2_5741_42880">
<rect width="34.375" height="34.375" fill="white" transform="translate(2.8125)"/>
</clipPath>
</defs>
</svg>
