<svg width="256" height="256" viewBox="0 0 256 256" fill="none" xmlns="http://www.w3.org/2000/svg">
<path d="M226 30H30V226H226V30Z" fill="url(#paint0_linear)"/>
<path d="M190.4 65.6H65.6001V190.3H190.3V65.6H190.4Z" fill="url(#paint1_linear)"/>
<path d="M209.2 46.8H46.7998V209.2H209.2V46.8V46.8Z" fill="url(#paint2_linear)"/>
<path d="M209.2 209.2V46.8L190.4 65.6V190.4L209.2 209.2Z" fill="#2BB673"/>
<path d="M65.6 65.6H190.4L226 30H30L65.6 65.6Z" fill="url(#paint3_linear)"/>
<path d="M190.4 190.4H65.6L30 226H226L190.4 190.4Z" fill="url(#paint4_linear)"/>
<path d="M46.7998 209.2H209.2L190.4 190.4H65.5998L46.7998 209.2Z" fill="#2BB673"/>
<path d="M209.2 209.2V46.8L190.4 65.6V190.4L209.2 209.2Z" fill="url(#paint5_linear)"/>
<path d="M46.7998 209.2H209.2L190.4 190.4H65.5998L46.7998 209.2Z" fill="url(#paint6_linear)"/>
<path d="M65.6 190.4V65.6L30 30V226L65.6 190.4Z" fill="url(#paint7_linear)"/>
<path d="M46.8 46.8H209.2L226 30H30L46.8 46.8Z" fill="url(#paint8_linear)"/>
<path d="M46.8 46.8H209.2L226 30H30L46.8 46.8Z" fill="url(#paint9_linear)"/>
<path d="M209.2 46.8H46.7998L65.5998 65.6H190.4L209.2 46.8Z" fill="url(#paint10_linear)"/>
<path d="M209.2 46.8H46.7998L65.5998 65.6H190.4L209.2 46.8Z" fill="url(#paint11_linear)"/>
<path d="M209.2 209.2H46.8L30 226H226L209.2 209.2Z" fill="url(#paint12_linear)"/>
<path d="M209.2 209.2L226 226V30L209.2 46.8V209.2Z" fill="url(#paint13_linear)"/>
<path d="M209.2 209.2H46.8L30 226H226L209.2 209.2Z" fill="url(#paint14_linear)"/>
<path d="M209.2 209.2H46.8L30 226H226L209.2 209.2Z" fill="url(#paint15_linear)"/>
<path d="M209.2 209.2H46.8L30 226H226L209.2 209.2Z" fill="url(#paint16_linear)"/>
<path d="M209.2 209.2H46.8L30 226H226L209.2 209.2Z" fill="url(#paint17_linear)"/>
<path d="M209.2 209.2H46.8L30 226H226L209.2 209.2Z" fill="url(#paint18_linear)"/>
<path d="M209.2 209.2L226 226V30L209.2 46.8V209.2Z" fill="url(#paint19_linear)"/>
<path d="M209.2 209.2L226 226V30L209.2 46.8V209.2Z" fill="url(#paint20_linear)"/>
<path d="M209.2 209.2L226 226V30L209.2 46.8V209.2Z" fill="url(#paint21_linear)"/>
<path d="M209.2 209.2L226 226V30L209.2 46.8V209.2Z" fill="url(#paint22_linear)"/>
<path d="M209.2 209.2L226 226V30L209.2 46.8V209.2Z" fill="url(#paint23_linear)"/>
<path d="M46.8 209.2V46.8L30 30V226L46.8 209.2Z" fill="url(#paint24_linear)"/>
<path d="M46.8 209.2V46.8L30 30V226L46.8 209.2Z" fill="url(#paint25_linear)"/>
<path d="M46.7998 46.8V209.2L65.5998 190.4V65.6L46.7998 46.8Z" fill="url(#paint26_linear)"/>
<path d="M200 56H56V200H200V56Z" fill="url(#paint27_linear)"/>
<path d="M127.9 172.9H73.7998V181.9H127.9V172.9Z" fill="white"/>
<path d="M74 74H96C108.9 74 116.6 81.6 116.6 92.6V92.8C116.6 105.3 106.9 111.8 94.8 111.8H85.8V128H74V74ZM95.3 101.1C101.2 101.1 104.7 97.7 104.7 93V92.8C104.7 87.5 101 84.6 95.1 84.6H85.9V101.1H95.3Z" fill="white"/>
<path d="M124 74H165.497V84.5101H136.503V95.745H162.235V106.255H136.503V117.49H166.221V128H124.544V74H124Z" fill="white"/>
<defs>
<linearGradient id="paint0_linear" x1="114.252" y1="61.0399" x2="152.078" y2="245.276" gradientUnits="userSpaceOnUse">
<stop offset="0.0242344" stop-color="#10E899"/>
<stop offset="1" stop-color="#21D789"/>
</linearGradient>
<linearGradient id="paint1_linear" x1="204.307" y1="204.306" x2="28.1222" y2="28.1225" gradientUnits="userSpaceOnUse">
<stop offset="0.3475" stop-color="#087CFA"/>
<stop offset="0.8562" stop-color="#FE2857"/>
<stop offset="1" stop-color="#FE2857"/>
</linearGradient>
<linearGradient id="paint2_linear" x1="227.33" y1="227.329" x2="-2.01309" y2="-2.01221" gradientUnits="userSpaceOnUse">
<stop stop-color="#FCF84A"/>
<stop offset="0.2816" stop-color="#C1F834"/>
<stop offset="0.7846" stop-color="#10E899"/>
</linearGradient>
<linearGradient id="paint3_linear" x1="25.5824" y1="47.8181" x2="217.501" y2="47.8181" gradientUnits="userSpaceOnUse">
<stop offset="0.1844" stop-color="#EFE50C"/>
<stop offset="0.5239" stop-color="#BEFF26"/>
<stop offset="0.8746" stop-color="#00C66E"/>
</linearGradient>
<linearGradient id="paint4_linear" x1="217.829" y1="208.181" x2="38.9278" y2="208.181" gradientUnits="userSpaceOnUse">
<stop stop-color="#21D789"/>
<stop offset="0.8746" stop-color="#00C66E"/>
</linearGradient>
<linearGradient id="paint5_linear" x1="194.116" y1="127.999" x2="216.56" y2="127.999" gradientUnits="userSpaceOnUse">
<stop offset="0.27" stop-color="#007E62"/>
<stop offset="1" stop-color="#07C3F2" stop-opacity="0"/>
</linearGradient>
<linearGradient id="paint6_linear" x1="127.973" y1="194.115" x2="127.973" y2="216.558" gradientUnits="userSpaceOnUse">
<stop offset="0.27" stop-color="#007E62"/>
<stop offset="1" stop-color="#07C3F2" stop-opacity="0"/>
</linearGradient>
<linearGradient id="paint7_linear" x1="47.8191" y1="24.075" x2="47.8191" y2="208.775" gradientUnits="userSpaceOnUse">
<stop offset="0.2576" stop-color="#EFE50C"/>
<stop offset="0.5774" stop-color="#BEFF26"/>
<stop offset="0.8746" stop-color="#00C66E"/>
</linearGradient>
<linearGradient id="paint8_linear" x1="120.076" y1="38.0219" x2="72.425" y2="76.0508" gradientUnits="userSpaceOnUse">
<stop offset="0.1018" stop-color="#A5FF21" stop-opacity="0"/>
<stop offset="0.8222" stop-color="#FCF84A"/>
<stop offset="1" stop-color="white" stop-opacity="0.9"/>
</linearGradient>
<linearGradient id="paint9_linear" x1="144.393" y1="36.7781" x2="222.431" y2="31.644" gradientUnits="userSpaceOnUse">
<stop offset="0.5632" stop-color="#10E899" stop-opacity="0"/>
<stop offset="1" stop-color="#21D789" stop-opacity="0.9"/>
</linearGradient>
<linearGradient id="paint10_linear" x1="187.257" y1="31.5082" x2="84.1671" y2="68.6207" gradientUnits="userSpaceOnUse">
<stop offset="0.018393" stop-color="#99C81D"/>
<stop offset="0.723" stop-color="#10C299" stop-opacity="0"/>
</linearGradient>
<linearGradient id="paint11_linear" x1="187.257" y1="31.5082" x2="84.1671" y2="68.6207" gradientUnits="userSpaceOnUse">
<stop offset="0.1378" stop-color="#50AC3F" stop-opacity="0.97"/>
<stop offset="0.723" stop-color="#10C23B" stop-opacity="0.4"/>
</linearGradient>
<linearGradient id="paint12_linear" x1="246.942" y1="239" x2="64.3575" y2="208.302" gradientUnits="userSpaceOnUse">
<stop stop-color="#FCF84A" stop-opacity="0"/>
<stop offset="1" stop-color="#29CF4B"/>
</linearGradient>
<linearGradient id="paint13_linear" x1="217.59" y1="219.436" x2="217.59" y2="40.7499" gradientUnits="userSpaceOnUse">
<stop stop-color="#21D789"/>
<stop offset="0.8746" stop-color="#00C66E"/>
</linearGradient>
<linearGradient id="paint14_linear" x1="128" y1="205.462" x2="128" y2="231.196" gradientUnits="userSpaceOnUse">
<stop offset="0.1754" stop-color="#07C3F2" stop-opacity="0"/>
<stop offset="0.7533" stop-color="#07BC65"/>
</linearGradient>
<linearGradient id="paint15_linear" x1="128" y1="205.462" x2="128" y2="231.196" gradientUnits="userSpaceOnUse">
<stop offset="0.0714497" stop-color="#10E899" stop-opacity="0.5"/>
<stop offset="0.5642" stop-color="#10E899" stop-opacity="0"/>
</linearGradient>
<linearGradient id="paint16_linear" x1="128" y1="226.063" x2="128" y2="206.258" gradientUnits="userSpaceOnUse">
<stop offset="0.0714497" stop-color="#21D789" stop-opacity="0.5"/>
<stop offset="0.5642" stop-color="#10E899" stop-opacity="0"/>
</linearGradient>
<linearGradient id="paint17_linear" x1="198.025" y1="230.138" x2="5.49669" y2="199.334" gradientUnits="userSpaceOnUse">
<stop offset="0.5632" stop-color="#A5FF21" stop-opacity="0"/>
<stop offset="1" stop-color="#10E899" stop-opacity="0.9"/>
</linearGradient>
<linearGradient id="paint18_linear" x1="166.175" y1="217.589" x2="225.026" y2="217.589" gradientUnits="userSpaceOnUse">
<stop offset="0.5632" stop-color="#07C3F2" stop-opacity="0"/>
<stop offset="1" stop-color="#009AE5" stop-opacity="0.9"/>
</linearGradient>
<linearGradient id="paint19_linear" x1="206.572" y1="128" x2="230.343" y2="128" gradientUnits="userSpaceOnUse">
<stop offset="0.1754" stop-color="#07C3F2" stop-opacity="0"/>
<stop offset="0.7533" stop-color="#07BC65"/>
</linearGradient>
<linearGradient id="paint20_linear" x1="206.572" y1="128" x2="230.343" y2="128" gradientUnits="userSpaceOnUse">
<stop offset="0.0714497" stop-color="#10E899" stop-opacity="0.5"/>
<stop offset="0.5642" stop-color="#10E899" stop-opacity="0"/>
</linearGradient>
<linearGradient id="paint21_linear" x1="223.971" y1="127.999" x2="212.47" y2="127.999" gradientUnits="userSpaceOnUse">
<stop offset="0.0714497" stop-color="#21D789" stop-opacity="0.5"/>
<stop offset="0.5642" stop-color="#10E899" stop-opacity="0"/>
</linearGradient>
<linearGradient id="paint22_linear" x1="219.318" y1="131.521" x2="205.138" y2="33.653" gradientUnits="userSpaceOnUse">
<stop offset="0.5632" stop-color="#A5FF21" stop-opacity="0"/>
<stop offset="1" stop-color="#10E899" stop-opacity="0.9"/>
</linearGradient>
<linearGradient id="paint23_linear" x1="217.59" y1="140.791" x2="217.59" y2="226.159" gradientUnits="userSpaceOnUse">
<stop offset="0.5632" stop-color="#07C3F2" stop-opacity="0"/>
<stop offset="1" stop-color="#009AE5" stop-opacity="0.9"/>
</linearGradient>
<linearGradient id="paint24_linear" x1="26.0368" y1="169.636" x2="57.1929" y2="43.6366" gradientUnits="userSpaceOnUse">
<stop offset="0.1018" stop-color="#A5FF21" stop-opacity="0"/>
<stop offset="0.8222" stop-color="#FCF84A"/>
<stop offset="1" stop-color="white" stop-opacity="0.9"/>
</linearGradient>
<linearGradient id="paint25_linear" x1="37.0558" y1="127.626" x2="19.5999" y2="231.078" gradientUnits="userSpaceOnUse">
<stop offset="0.5632" stop-color="#FCF84A" stop-opacity="0"/>
<stop offset="1" stop-color="#21D789" stop-opacity="0.9"/>
</linearGradient>
<linearGradient id="paint26_linear" x1="29.6146" y1="137.603" x2="69.0179" y2="115.61" gradientUnits="userSpaceOnUse">
<stop offset="0.1378" stop-color="#50AC3F" stop-opacity="0.97"/>
<stop offset="0.723" stop-color="#10C23B" stop-opacity="0.4"/>
</linearGradient>
<linearGradient id="paint27_linear" x1="56.2192" y1="56.2192" x2="182.392" y2="182.392" gradientUnits="userSpaceOnUse">
<stop stop-color="#298B2A"/>
<stop offset="0.092362" stop-color="#216F21"/>
<stop offset="0.2928" stop-color="#103510"/>
<stop offset="0.6895" stop-color="#051005"/>
<stop offset="0.9138"/>
</linearGradient>
</defs>
</svg>
