<svg width="70" height="70" viewBox="0 0 70 70" fill="none" xmlns="http://www.w3.org/2000/svg">
<path d="M62 8H8V62H62V8Z" fill="url(#paint0_linear)"/>
<path d="M52.1998 17.8H17.7998V52.2H52.1998V17.8Z" fill="url(#paint1_linear)"/>
<path d="M57.4001 12.6H12.6001V57.3H57.3001V12.6H57.4001Z" fill="url(#paint2_linear)"/>
<path d="M57.4002 57.4V12.6L52.2002 17.8V52.2L57.4002 57.4Z" fill="#2BB673"/>
<path d="M17.8 17.8H52.2L62 8H8L17.8 17.8Z" fill="url(#paint3_linear)"/>
<path d="M52.2 52.2H17.8L8 62H62L52.2 52.2Z" fill="url(#paint4_linear)"/>
<path d="M12.6001 57.4H57.4001L52.2001 52.2H17.8001L12.6001 57.4Z" fill="#2BB673"/>
<path d="M57.4002 57.4V12.6L52.2002 17.8V52.2L57.4002 57.4Z" fill="url(#paint5_linear)"/>
<path d="M12.6001 57.4H57.4001L52.2001 52.2H17.8001L12.6001 57.4Z" fill="url(#paint6_linear)"/>
<path d="M17.8 52.2V17.8L8 8V62L17.8 52.2Z" fill="url(#paint7_linear)"/>
<path d="M12.6 12.6H57.4L62 8H8L12.6 12.6Z" fill="url(#paint8_linear)"/>
<path d="M12.6 12.6H57.4L62 8H8L12.6 12.6Z" fill="url(#paint9_linear)"/>
<path d="M57.4001 12.6H12.6001L17.8001 17.8H52.2001L57.4001 12.6Z" fill="url(#paint10_linear)"/>
<path d="M57.4001 12.6H12.6001L17.8001 17.8H52.2001L57.4001 12.6Z" fill="url(#paint11_linear)"/>
<path d="M57.4 57.4H12.6L8 62H62L57.4 57.4Z" fill="url(#paint12_linear)"/>
<path d="M57.3999 57.4L61.9999 62V8L57.3999 12.6V57.4Z" fill="url(#paint13_linear)"/>
<path d="M57.4 57.4H12.6L8 62H62L57.4 57.4Z" fill="url(#paint14_linear)"/>
<path d="M57.4 57.4H12.6L8 62H62L57.4 57.4Z" fill="url(#paint15_linear)"/>
<path d="M57.4 57.4H12.6L8 62H62L57.4 57.4Z" fill="url(#paint16_linear)"/>
<path d="M57.4 57.4H12.6L8 62H62L57.4 57.4Z" fill="url(#paint17_linear)"/>
<path d="M57.4 57.4H12.6L8 62H62L57.4 57.4Z" fill="url(#paint18_linear)"/>
<path d="M57.3999 57.4L61.9999 62V8L57.3999 12.6V57.4Z" fill="url(#paint19_linear)"/>
<path d="M57.3999 57.4L61.9999 62V8L57.3999 12.6V57.4Z" fill="url(#paint20_linear)"/>
<path d="M57.3999 57.4L61.9999 62V8L57.3999 12.6V57.4Z" fill="url(#paint21_linear)"/>
<path d="M57.3999 57.4L61.9999 62V8L57.3999 12.6V57.4Z" fill="url(#paint22_linear)"/>
<path d="M57.3999 57.4L61.9999 62V8L57.3999 12.6V57.4Z" fill="url(#paint23_linear)"/>
<path d="M12.6 57.4V12.6L8 8V62L12.6 57.4Z" fill="url(#paint24_linear)"/>
<path d="M12.6 57.4V12.6L8 8V62L12.6 57.4Z" fill="url(#paint25_linear)"/>
<path d="M12.6001 12.6V57.4L17.8001 52.2V17.8L12.6001 12.6Z" fill="url(#paint26_linear)"/>
<path d="M55 15H15V55H55V15Z" fill="url(#paint27_linear)"/>
<path d="M35 47.4H20V49.9H35V47.4Z" fill="white"/>
<path d="M35 47.4H20V49.9H35V47.4Z" fill="white"/>
<path d="M20 20H26.1C29.7 20 31.8 22.1 31.8 25.2C31.8 28.7 29.1 30.5 25.7 30.5H23.3V35H20V20ZM25.9 27.6C27.5 27.6 28.5 26.6 28.5 25.3C28.5 23.8 27.5 23 25.8 23H23.3V27.6H25.9Z" fill="white"/>
<path d="M35 20H46.5268V22.9195H38.4732V26.0403H45.6208V28.9597H38.4732V32.0805H46.7282V35H35.151V20H35Z" fill="white"/>
<defs>
<linearGradient id="paint0_linear" x1="31.2123" y1="16.5518" x2="41.6338" y2="67.3107" gradientUnits="userSpaceOnUse">
<stop offset="0.0242344" stop-color="#10E899"/>
<stop offset="1" stop-color="#21D789"/>
</linearGradient>
<linearGradient id="paint1_linear" x1="56.0231" y1="56.0229" x2="7.4824" y2="7.48239" gradientUnits="userSpaceOnUse">
<stop offset="0.3475" stop-color="#087CFA"/>
<stop offset="0.8562" stop-color="#FE2857"/>
<stop offset="1" stop-color="#FE2857"/>
</linearGradient>
<linearGradient id="paint2_linear" x1="62.3665" y1="62.3662" x2="-0.819801" y2="-0.819828" gradientUnits="userSpaceOnUse">
<stop stop-color="#FCF84A"/>
<stop offset="0.2816" stop-color="#C1F834"/>
<stop offset="0.7846" stop-color="#10E899"/>
</linearGradient>
<linearGradient id="paint3_linear" x1="6.7829" y1="12.9091" x2="59.6585" y2="12.9091" gradientUnits="userSpaceOnUse">
<stop offset="0.1844" stop-color="#EFE50C"/>
<stop offset="0.5239" stop-color="#BEFF26"/>
<stop offset="0.8746" stop-color="#00C66E"/>
</linearGradient>
<linearGradient id="paint4_linear" x1="59.7487" y1="57.0906" x2="10.4597" y2="57.0906" gradientUnits="userSpaceOnUse">
<stop stop-color="#21D789"/>
<stop offset="0.8746" stop-color="#00C66E"/>
</linearGradient>
<linearGradient id="paint5_linear" x1="53.2158" y1="34.9999" x2="59.3993" y2="34.9999" gradientUnits="userSpaceOnUse">
<stop offset="0.27" stop-color="#007E62"/>
<stop offset="1" stop-color="#07C3F2" stop-opacity="0"/>
</linearGradient>
<linearGradient id="paint6_linear" x1="34.9659" y1="53.216" x2="34.9657" y2="59.3994" gradientUnits="userSpaceOnUse">
<stop offset="0.27" stop-color="#007E62"/>
<stop offset="1" stop-color="#07C3F2" stop-opacity="0"/>
</linearGradient>
<linearGradient id="paint7_linear" x1="12.9093" y1="6.3676" x2="12.9093" y2="57.2544" gradientUnits="userSpaceOnUse">
<stop offset="0.2576" stop-color="#EFE50C"/>
<stop offset="0.5774" stop-color="#BEFF26"/>
<stop offset="0.8746" stop-color="#00C66E"/>
</linearGradient>
<linearGradient id="paint8_linear" x1="32.8167" y1="10.2101" x2="19.6885" y2="20.6875" gradientUnits="userSpaceOnUse">
<stop offset="0.1018" stop-color="#A5FF21" stop-opacity="0"/>
<stop offset="0.8222" stop-color="#FCF84A"/>
<stop offset="1" stop-color="white" stop-opacity="0.9"/>
</linearGradient>
<linearGradient id="paint9_linear" x1="39.5164" y1="9.8674" x2="61.0167" y2="8.4529" gradientUnits="userSpaceOnUse">
<stop offset="0.5632" stop-color="#10E899" stop-opacity="0"/>
<stop offset="1" stop-color="#21D789" stop-opacity="0.9"/>
</linearGradient>
<linearGradient id="paint10_linear" x1="51.3261" y1="8.41548" x2="22.9237" y2="18.6404" gradientUnits="userSpaceOnUse">
<stop offset="0.018393" stop-color="#99C81D"/>
<stop offset="0.723" stop-color="#10C299" stop-opacity="0"/>
</linearGradient>
<linearGradient id="paint11_linear" x1="51.3261" y1="8.41548" x2="22.9237" y2="18.6404" gradientUnits="userSpaceOnUse">
<stop offset="0.1378" stop-color="#50AC3F" stop-opacity="0.97"/>
<stop offset="0.723" stop-color="#10C23B" stop-opacity="0.4"/>
</linearGradient>
<linearGradient id="paint12_linear" x1="67.7697" y1="65.5817" x2="17.4658" y2="57.1241" gradientUnits="userSpaceOnUse">
<stop stop-color="#FCF84A" stop-opacity="0"/>
<stop offset="1" stop-color="#29CF4B"/>
</linearGradient>
<linearGradient id="paint13_linear" x1="59.6827" y1="60.1917" x2="59.6827" y2="10.9617" gradientUnits="userSpaceOnUse">
<stop stop-color="#21D789"/>
<stop offset="0.8746" stop-color="#00C66E"/>
</linearGradient>
<linearGradient id="paint14_linear" x1="34.9999" y1="56.3417" x2="34.9999" y2="63.4316" gradientUnits="userSpaceOnUse">
<stop offset="0.1754" stop-color="#07C3F2" stop-opacity="0"/>
<stop offset="0.7533" stop-color="#07BC65"/>
</linearGradient>
<linearGradient id="paint15_linear" x1="34.9999" y1="56.3417" x2="34.9999" y2="63.4316" gradientUnits="userSpaceOnUse">
<stop offset="0.0714497" stop-color="#10E899" stop-opacity="0.5"/>
<stop offset="0.5642" stop-color="#10E899" stop-opacity="0"/>
</linearGradient>
<linearGradient id="paint16_linear" x1="34.9999" y1="62.0174" x2="34.9999" y2="56.5608" gradientUnits="userSpaceOnUse">
<stop offset="0.0714497" stop-color="#21D789" stop-opacity="0.5"/>
<stop offset="0.5642" stop-color="#10E899" stop-opacity="0"/>
</linearGradient>
<linearGradient id="paint17_linear" x1="54.2927" y1="63.1401" x2="1.2491" y2="54.6532" gradientUnits="userSpaceOnUse">
<stop offset="0.5632" stop-color="#A5FF21" stop-opacity="0"/>
<stop offset="1" stop-color="#10E899" stop-opacity="0.9"/>
</linearGradient>
<linearGradient id="paint18_linear" x1="45.5176" y1="59.6826" x2="61.7317" y2="59.6826" gradientUnits="userSpaceOnUse">
<stop offset="0.5632" stop-color="#07C3F2" stop-opacity="0"/>
<stop offset="1" stop-color="#009AE5" stop-opacity="0.9"/>
</linearGradient>
<linearGradient id="paint19_linear" x1="56.6471" y1="34.9999" x2="63.1965" y2="34.9999" gradientUnits="userSpaceOnUse">
<stop offset="0.1754" stop-color="#07C3F2" stop-opacity="0"/>
<stop offset="0.7533" stop-color="#07BC65"/>
</linearGradient>
<linearGradient id="paint20_linear" x1="56.6471" y1="34.9999" x2="63.1965" y2="34.9999" gradientUnits="userSpaceOnUse">
<stop offset="0.0714497" stop-color="#10E899" stop-opacity="0.5"/>
<stop offset="0.5642" stop-color="#10E899" stop-opacity="0"/>
</linearGradient>
<linearGradient id="paint21_linear" x1="61.4409" y1="34.9999" x2="58.2721" y2="34.9999" gradientUnits="userSpaceOnUse">
<stop offset="0.0714497" stop-color="#21D789" stop-opacity="0.5"/>
<stop offset="0.5642" stop-color="#10E899" stop-opacity="0"/>
</linearGradient>
<linearGradient id="paint22_linear" x1="60.1589" y1="35.9702" x2="56.2522" y2="9.0064" gradientUnits="userSpaceOnUse">
<stop offset="0.5632" stop-color="#A5FF21" stop-opacity="0"/>
<stop offset="1" stop-color="#10E899" stop-opacity="0.9"/>
</linearGradient>
<linearGradient id="paint23_linear" x1="59.6827" y1="38.5242" x2="59.6827" y2="62.0439" gradientUnits="userSpaceOnUse">
<stop offset="0.5632" stop-color="#07C3F2" stop-opacity="0"/>
<stop offset="1" stop-color="#009AE5" stop-opacity="0.9"/>
</linearGradient>
<linearGradient id="paint24_linear" x1="6.9081" y1="46.471" x2="15.4919" y2="11.757" gradientUnits="userSpaceOnUse">
<stop offset="0.1018" stop-color="#A5FF21" stop-opacity="0"/>
<stop offset="0.8222" stop-color="#FCF84A"/>
<stop offset="1" stop-color="white" stop-opacity="0.9"/>
</linearGradient>
<linearGradient id="paint25_linear" x1="9.944" y1="34.8969" x2="5.1347" y2="63.399" gradientUnits="userSpaceOnUse">
<stop offset="0.5632" stop-color="#FCF84A" stop-opacity="0"/>
<stop offset="1" stop-color="#21D789" stop-opacity="0.9"/>
</linearGradient>
<linearGradient id="paint26_linear" x1="7.894" y1="37.6457" x2="18.75" y2="31.5866" gradientUnits="userSpaceOnUse">
<stop offset="0.1378" stop-color="#50AC3F" stop-opacity="0.97"/>
<stop offset="0.723" stop-color="#10C23B" stop-opacity="0.4"/>
</linearGradient>
<linearGradient id="paint27_linear" x1="15.0609" y1="15.0609" x2="50.1088" y2="50.1088" gradientUnits="userSpaceOnUse">
<stop stop-color="#298B2A"/>
<stop offset="0.092362" stop-color="#216F21"/>
<stop offset="0.2928" stop-color="#103510"/>
<stop offset="0.6895" stop-color="#051005"/>
<stop offset="0.9138"/>
</linearGradient>
</defs>
</svg>
