<svg width="80" height="80" viewBox="0 0 80 80" fill="none" xmlns="http://www.w3.org/2000/svg">
<path d="M72 8H8V72H72V8Z" fill="url(#paint0_linear)"/>
<path d="M60.4001 19.6H19.6001V60.3H60.3001V19.6H60.4001Z" fill="url(#paint1_linear)"/>
<path d="M66.5 13.5H13.5V66.5H66.5V13.5Z" fill="url(#paint2_linear)"/>
<path d="M66.4999 66.5V13.5L60.3999 19.6V60.4L66.4999 66.5Z" fill="#2BB673"/>
<path d="M19.6 19.6H60.4L72 8H8L19.6 19.6Z" fill="url(#paint3_linear)"/>
<path d="M60.4 60.4H19.6L8 72H72L60.4 60.4Z" fill="url(#paint4_linear)"/>
<path d="M13.5 66.5H66.5L60.4 60.4H19.6L13.5 66.5Z" fill="#2BB673"/>
<path d="M66.4999 66.5V13.5L60.3999 19.6V60.4L66.4999 66.5Z" fill="url(#paint5_linear)"/>
<path d="M13.5 66.5H66.5L60.4 60.4H19.6L13.5 66.5Z" fill="url(#paint6_linear)"/>
<path d="M19.6 60.4V19.6L8 8V72L19.6 60.4Z" fill="url(#paint7_linear)"/>
<path d="M13.5 13.5H66.5L72 8H8L13.5 13.5Z" fill="url(#paint8_linear)"/>
<path d="M13.5 13.5H66.5L72 8H8L13.5 13.5Z" fill="url(#paint9_linear)"/>
<path d="M66.5 13.5H13.5L19.6 19.6H60.4L66.5 13.5Z" fill="url(#paint10_linear)"/>
<path d="M66.5 13.5H13.5L19.6 19.6H60.4L66.5 13.5Z" fill="url(#paint11_linear)"/>
<path d="M66.5 66.5H13.5L8 72H72L66.5 66.5Z" fill="url(#paint12_linear)"/>
<path d="M66.5 66.5L72 72V8L66.5 13.5V66.5Z" fill="url(#paint13_linear)"/>
<path d="M66.5 66.5H13.5L8 72H72L66.5 66.5Z" fill="url(#paint14_linear)"/>
<path d="M66.5 66.5H13.5L8 72H72L66.5 66.5Z" fill="url(#paint15_linear)"/>
<path d="M66.5 66.5H13.5L8 72H72L66.5 66.5Z" fill="url(#paint16_linear)"/>
<path d="M66.5 66.5H13.5L8 72H72L66.5 66.5Z" fill="url(#paint17_linear)"/>
<path d="M66.5 66.5H13.5L8 72H72L66.5 66.5Z" fill="url(#paint18_linear)"/>
<path d="M66.5 66.5L72 72V8L66.5 13.5V66.5Z" fill="url(#paint19_linear)"/>
<path d="M66.5 66.5L72 72V8L66.5 13.5V66.5Z" fill="url(#paint20_linear)"/>
<path d="M66.5 66.5L72 72V8L66.5 13.5V66.5Z" fill="url(#paint21_linear)"/>
<path d="M66.5 66.5L72 72V8L66.5 13.5V66.5Z" fill="url(#paint22_linear)"/>
<path d="M66.5 66.5L72 72V8L66.5 13.5V66.5Z" fill="url(#paint23_linear)"/>
<path d="M13.5 66.5V13.5L8 8V72L13.5 66.5Z" fill="url(#paint24_linear)"/>
<path d="M13.5 66.5V13.5L8 8V72L13.5 66.5Z" fill="url(#paint25_linear)"/>
<path d="M13.5 13.5V66.5L19.6 60.4V19.6L13.5 13.5Z" fill="url(#paint26_linear)"/>
<path d="M63 17H17V63H63V17Z" fill="url(#paint27_linear)"/>
<path d="M39.9002 54.3H22.7002V57.2001H39.9002V54.3Z" fill="white"/>
<path d="M40.0003 54.3H22.8003V57.2001H40.0003V54.3Z" fill="white"/>
<path d="M22.9004 23H29.9004C34.0004 23 36.5004 25.4 36.5004 29C36.5004 33 33.4004 35.1 29.5004 35.1H26.7004V40.2H22.9004V23ZM29.7004 31.7C31.6004 31.7 32.7004 30.5 32.7004 29C32.7004 27.3 31.5004 26.4 29.6004 26.4H26.7004V31.7H29.7004Z" fill="white"/>
<path d="M39.7002 23H52.9176V26.3477H43.6827V29.9262H51.8787V33.2738H43.6827V36.8523H53.1485V40.2H39.8734V23H39.7002Z" fill="white"/>
<defs>
<linearGradient id="paint0_linear" x1="35.5109" y1="18.1355" x2="47.8623" y2="78.2942" gradientUnits="userSpaceOnUse">
<stop offset="0.0242344" stop-color="#10E899"/>
<stop offset="1" stop-color="#21D789"/>
</linearGradient>
<linearGradient id="paint1_linear" x1="64.9166" y1="64.916" x2="7.38691" y2="7.38667" gradientUnits="userSpaceOnUse">
<stop offset="0.3475" stop-color="#087CFA"/>
<stop offset="0.8562" stop-color="#FE2857"/>
<stop offset="1" stop-color="#FE2857"/>
</linearGradient>
<linearGradient id="paint2_linear" x1="72.4343" y1="72.4336" x2="-2.4532" y2="-2.4531" gradientUnits="userSpaceOnUse">
<stop stop-color="#FCF84A"/>
<stop offset="0.2816" stop-color="#C1F834"/>
<stop offset="0.7846" stop-color="#10E899"/>
</linearGradient>
<linearGradient id="paint3_linear" x1="6.5575" y1="13.8182" x2="69.2249" y2="13.8182" gradientUnits="userSpaceOnUse">
<stop offset="0.1844" stop-color="#EFE50C"/>
<stop offset="0.5239" stop-color="#BEFF26"/>
<stop offset="0.8746" stop-color="#00C66E"/>
</linearGradient>
<linearGradient id="paint4_linear" x1="69.3318" y1="66.1814" x2="10.9152" y2="66.1814" gradientUnits="userSpaceOnUse">
<stop stop-color="#21D789"/>
<stop offset="0.8746" stop-color="#00C66E"/>
</linearGradient>
<linearGradient id="paint5_linear" x1="61.5888" y1="39.9998" x2="68.9173" y2="39.9998" gradientUnits="userSpaceOnUse">
<stop offset="0.27" stop-color="#007E62"/>
<stop offset="1" stop-color="#07C3F2" stop-opacity="0"/>
</linearGradient>
<linearGradient id="paint6_linear" x1="39.9638" y1="61.589" x2="39.9636" y2="68.9175" gradientUnits="userSpaceOnUse">
<stop offset="0.27" stop-color="#007E62"/>
<stop offset="1" stop-color="#07C3F2" stop-opacity="0"/>
</linearGradient>
<linearGradient id="paint7_linear" x1="13.8185" y1="6.0653" x2="13.8185" y2="66.3756" gradientUnits="userSpaceOnUse">
<stop offset="0.2576" stop-color="#EFE50C"/>
<stop offset="0.5774" stop-color="#BEFF26"/>
<stop offset="0.8746" stop-color="#00C66E"/>
</linearGradient>
<linearGradient id="paint8_linear" x1="37.4124" y1="10.6194" x2="21.8531" y2="23.037" gradientUnits="userSpaceOnUse">
<stop offset="0.1018" stop-color="#A5FF21" stop-opacity="0"/>
<stop offset="0.8222" stop-color="#FCF84A"/>
<stop offset="1" stop-color="white" stop-opacity="0.9"/>
</linearGradient>
<linearGradient id="paint9_linear" x1="45.3527" y1="10.2133" x2="70.8346" y2="8.5368" gradientUnits="userSpaceOnUse">
<stop offset="0.5632" stop-color="#10E899" stop-opacity="0"/>
<stop offset="1" stop-color="#21D789" stop-opacity="0.9"/>
</linearGradient>
<linearGradient id="paint10_linear" x1="59.3494" y1="8.4925" x2="25.6873" y2="20.6108" gradientUnits="userSpaceOnUse">
<stop offset="0.018393" stop-color="#99C81D"/>
<stop offset="0.723" stop-color="#10C299" stop-opacity="0"/>
</linearGradient>
<linearGradient id="paint11_linear" x1="59.3494" y1="8.4925" x2="25.6873" y2="20.6108" gradientUnits="userSpaceOnUse">
<stop offset="0.1378" stop-color="#50AC3F" stop-opacity="0.97"/>
<stop offset="0.723" stop-color="#10C23B" stop-opacity="0.4"/>
</linearGradient>
<linearGradient id="paint12_linear" x1="78.8381" y1="76.245" x2="19.2188" y2="66.2212" gradientUnits="userSpaceOnUse">
<stop stop-color="#FCF84A" stop-opacity="0"/>
<stop offset="1" stop-color="#29CF4B"/>
</linearGradient>
<linearGradient id="paint13_linear" x1="69.2537" y1="69.8568" x2="69.2537" y2="11.5102" gradientUnits="userSpaceOnUse">
<stop stop-color="#21D789"/>
<stop offset="0.8746" stop-color="#00C66E"/>
</linearGradient>
<linearGradient id="paint14_linear" x1="39.9999" y1="65.2938" x2="39.9999" y2="73.6967" gradientUnits="userSpaceOnUse">
<stop offset="0.1754" stop-color="#07C3F2" stop-opacity="0"/>
<stop offset="0.7533" stop-color="#07BC65"/>
</linearGradient>
<linearGradient id="paint15_linear" x1="39.9999" y1="65.2938" x2="39.9999" y2="73.6967" gradientUnits="userSpaceOnUse">
<stop offset="0.0714497" stop-color="#10E899" stop-opacity="0.5"/>
<stop offset="0.5642" stop-color="#10E899" stop-opacity="0"/>
</linearGradient>
<linearGradient id="paint16_linear" x1="39.9999" y1="72.0206" x2="39.9999" y2="65.5535" gradientUnits="userSpaceOnUse">
<stop offset="0.0714497" stop-color="#21D789" stop-opacity="0.5"/>
<stop offset="0.5642" stop-color="#10E899" stop-opacity="0"/>
</linearGradient>
<linearGradient id="paint17_linear" x1="62.8655" y1="73.3513" x2="-0.00109859" y2="63.2926" gradientUnits="userSpaceOnUse">
<stop offset="0.5632" stop-color="#A5FF21" stop-opacity="0"/>
<stop offset="1" stop-color="#10E899" stop-opacity="0.9"/>
</linearGradient>
<linearGradient id="paint18_linear" x1="52.4653" y1="69.2534" x2="71.6821" y2="69.2534" gradientUnits="userSpaceOnUse">
<stop offset="0.5632" stop-color="#07C3F2" stop-opacity="0"/>
<stop offset="1" stop-color="#009AE5" stop-opacity="0.9"/>
</linearGradient>
<linearGradient id="paint19_linear" x1="65.656" y1="39.9999" x2="73.4182" y2="39.9999" gradientUnits="userSpaceOnUse">
<stop offset="0.1754" stop-color="#07C3F2" stop-opacity="0"/>
<stop offset="0.7533" stop-color="#07BC65"/>
</linearGradient>
<linearGradient id="paint20_linear" x1="65.656" y1="39.9999" x2="73.4182" y2="39.9999" gradientUnits="userSpaceOnUse">
<stop offset="0.0714497" stop-color="#10E899" stop-opacity="0.5"/>
<stop offset="0.5642" stop-color="#10E899" stop-opacity="0"/>
</linearGradient>
<linearGradient id="paint21_linear" x1="71.3374" y1="39.9999" x2="67.5819" y2="39.9999" gradientUnits="userSpaceOnUse">
<stop offset="0.0714497" stop-color="#21D789" stop-opacity="0.5"/>
<stop offset="0.5642" stop-color="#10E899" stop-opacity="0"/>
</linearGradient>
<linearGradient id="paint22_linear" x1="69.8181" y1="41.1499" x2="65.1879" y2="9.1928" gradientUnits="userSpaceOnUse">
<stop offset="0.5632" stop-color="#A5FF21" stop-opacity="0"/>
<stop offset="1" stop-color="#10E899" stop-opacity="0.9"/>
</linearGradient>
<linearGradient id="paint23_linear" x1="69.2537" y1="44.1768" x2="69.2537" y2="72.0521" gradientUnits="userSpaceOnUse">
<stop offset="0.5632" stop-color="#07C3F2" stop-opacity="0"/>
<stop offset="1" stop-color="#009AE5" stop-opacity="0.9"/>
</linearGradient>
<linearGradient id="paint24_linear" x1="6.7059" y1="53.5953" x2="16.8793" y2="12.4528" gradientUnits="userSpaceOnUse">
<stop offset="0.1018" stop-color="#A5FF21" stop-opacity="0"/>
<stop offset="0.8222" stop-color="#FCF84A"/>
<stop offset="1" stop-color="white" stop-opacity="0.9"/>
</linearGradient>
<linearGradient id="paint25_linear" x1="10.3039" y1="39.8778" x2="4.604" y2="73.6581" gradientUnits="userSpaceOnUse">
<stop offset="0.5632" stop-color="#FCF84A" stop-opacity="0"/>
<stop offset="1" stop-color="#21D789" stop-opacity="0.9"/>
</linearGradient>
<linearGradient id="paint26_linear" x1="7.8742" y1="43.1357" x2="20.7406" y2="35.9545" gradientUnits="userSpaceOnUse">
<stop offset="0.1378" stop-color="#50AC3F" stop-opacity="0.97"/>
<stop offset="0.723" stop-color="#10C23B" stop-opacity="0.4"/>
</linearGradient>
<linearGradient id="paint27_linear" x1="17.07" y1="17.07" x2="57.3751" y2="57.3751" gradientUnits="userSpaceOnUse">
<stop stop-color="#298B2A"/>
<stop offset="0.092362" stop-color="#216F21"/>
<stop offset="0.2928" stop-color="#103510"/>
<stop offset="0.6895" stop-color="#051005"/>
<stop offset="0.9138"/>
</linearGradient>
</defs>
</svg>
