<svg width="24" height="24" viewBox="0 0 24 24" fill="none" xmlns="http://www.w3.org/2000/svg">
<g clip-path="url(#clip0_5733_10005)">
<g clip-path="url(#clip1_5733_10005)">
<g clip-path="url(#clip2_5733_10005)">
<path d="M9.99163 4.01636H9.99221C14.5752 4.01636 18.296 7.7373 18.296 12.3205V12.3209C18.296 16.904 14.5752 20.6249 9.99228 20.6249H9.9917C5.40849 20.6249 1.6875 16.9038 1.6875 12.3204V12.3208C1.6875 7.73744 5.40846 4.01636 9.99163 4.01636Z" fill="url(#paint0_linear_5733_10005)"/>
<path d="M10.6727 14.5513L19.4011 14.5513C21.009 14.5513 22.3125 13.2478 22.3125 11.6399L22.3125 2.91154C22.3125 1.30363 21.009 0.000160261 19.4011 0.000159138L10.6727 0.000153045C9.06484 0.000151922 7.76137 1.30362 7.76137 2.91153L7.76136 11.6399C7.76136 13.2478 9.06483 14.5513 10.6727 14.5513Z" fill="url(#paint1_linear_5733_10005)"/>
<path d="M7.76173 4.36598L17.9469 4.36597L17.9469 14.5511L7.76172 14.5511L7.76173 4.36598Z" fill="black"/>
<path d="M9.21582 11.6409L14.8542 11.6409V13.0959L9.21582 13.0959L9.21582 11.6409Z" fill="white"/>
</g>
</g>
<rect x="-0.000976562" y="16" width="24" height="8" rx="1.5" fill="#FDB60D"/>
<g opacity="0.9">
<path d="M1.12305 21.9161H1.81627V20.7615H2.34294C3.04967 20.7615 3.61685 20.2997 3.61685 19.4089V19.398C3.61685 18.6117 3.1622 18.0674 2.41046 18.0674H1.12305V21.9161ZM1.81627 20.0082V18.8316H2.35194C2.69855 18.8316 2.91462 19.0351 2.91462 19.4144V19.4254C2.91462 19.7553 2.71206 20.0082 2.36545 20.0082H1.81627Z" fill="#010101"/>
<path d="M4.12987 21.9161H4.82309V20.6845H5.36777L6.04298 21.9161H6.85324L6.0835 20.5416C6.48413 20.3601 6.75871 19.9698 6.75871 19.3485V19.3375C6.75871 18.9746 6.66418 18.6722 6.48863 18.4578C6.28156 18.2048 5.97096 18.0674 5.57033 18.0674H4.12987V21.9161ZM4.82309 19.9368V18.8316H5.51181C5.84942 18.8316 6.05649 19.0186 6.05649 19.3815V19.3925C6.05649 19.7168 5.86293 19.9368 5.52532 19.9368H4.82309Z" fill="#010101"/>
<path d="M7.38287 21.9161H9.78214V21.1629H8.07159V20.3546H9.55707V19.6014H8.07159V18.8206H9.75963V18.0674H7.38287V21.9161Z" fill="#010101"/>
<path d="M11.4023 21.9436H12.0145L13.2884 18.0674H12.5412L11.7174 20.778L10.8936 18.0674H10.1284L11.4023 21.9436Z" fill="#010101"/>
<path d="M13.8061 21.9161H14.4993V18.0674H13.8061V21.9161Z" fill="#010101"/>
<path d="M15.2868 21.9161H17.686V21.1629H15.9755V20.3546H17.461V19.6014H15.9755V18.8206H17.6635V18.0674H15.2868V21.9161Z" fill="#010101"/>
<path d="M19.1352 21.9436H19.7383L20.4496 19.4254L21.1608 21.9436H21.764L22.8398 18.0674H22.1151L21.4624 20.6735L20.7557 18.0564H20.1615L19.4548 20.6735L18.802 18.0674H18.0593L19.1352 21.9436Z" fill="#010101"/>
</g>
</g>
<defs>
<linearGradient id="paint0_linear_5733_10005" x1="3.54094" y1="21.4302" x2="13.8558" y2="8.53664" gradientUnits="userSpaceOnUse">
<stop  offset="0" stop-color="#3BEA62"/>
<stop offset="0.543588" stop-color="#0894FA"/>
<stop offset="1" stop-color="#764EFF"/>
</linearGradient>
<linearGradient id="paint1_linear_5733_10005" x1="21.8933" y1="0.335469" x2="11.5811" y2="10.6477" gradientUnits="userSpaceOnUse">
<stop  offset="0" stop-color="#3BEA62"/>
<stop offset="0.543588" stop-color="#0894FA"/>
<stop offset="1" stop-color="#764EFF"/>
</linearGradient>
<clipPath id="clip0_5733_10005">
<rect width="24" height="24" fill="white"/>
</clipPath>
<clipPath id="clip1_5733_10005">
<rect width="24" height="24" fill="white"/>
</clipPath>
<clipPath id="clip2_5733_10005">
<rect width="20.6249" height="20.6249" fill="white" transform="translate(1.6875)"/>
</clipPath>
</defs>
</svg>
