<svg width="512" height="512" viewBox="0 0 512 512" fill="none" xmlns="http://www.w3.org/2000/svg">
<g clip-path="url(#clip0_5740_42705)">
<g clip-path="url(#clip1_5740_42705)">
<g clip-path="url(#clip2_5740_42705)">
<path d="M213.165 85.6816H213.177C310.948 85.6816 390.325 165.062 390.325 262.836V262.844C390.325 360.617 310.948 439.997 213.178 439.997H213.166C115.391 439.997 36.0098 360.613 36.0098 262.835V262.842C36.0098 165.065 115.39 85.6816 213.165 85.6816Z" fill="url(#paint0_linear_5740_42705)"/>
<path d="M227.683 310.425L413.889 310.425C448.191 310.425 475.998 282.617 475.998 248.315L475.998 62.1105C475.998 27.8085 448.191 0.00117077 413.889 0.00114683L227.683 0.00101683C193.381 0.000992882 165.574 27.8083 165.574 62.1103L165.574 248.315C165.574 282.617 193.381 310.425 227.683 310.425Z" fill="url(#paint1_linear_5740_42705)"/>
<path d="M165.582 93.1389L382.866 93.1387L382.866 310.422L165.582 310.422L165.582 93.1389Z" fill="black"/>
<path d="M196.613 248.334L316.898 248.334V279.375L196.613 279.375L196.613 248.334Z" fill="white"/>
</g>
</g>
<rect y="352" width="511.995" height="160" rx="52" fill="#FDB60D"/>
<g opacity="0.9">
<path d="M43.9414 463.547H57.6412V444.537H68.0494C82.016 444.537 93.2249 436.934 93.2249 422.269V422.088C93.2249 409.143 84.24 400.181 69.3838 400.181H43.9414V463.547ZM57.6412 432.136V412.764H68.2273C75.0772 412.764 79.3473 416.113 79.3473 422.359V422.54C79.3473 427.972 75.3441 432.136 68.4942 432.136H57.6412Z" fill="#010101"/>
<path d="M103.364 463.547H117.063V443.27H127.827L141.171 463.547H157.184L141.972 440.917C149.889 437.929 155.316 431.502 155.316 421.273V421.092C155.316 415.117 153.448 410.139 149.978 406.608C145.886 402.444 139.748 400.181 131.831 400.181H103.364V463.547ZM117.063 430.959V412.764H130.674C137.346 412.764 141.438 415.842 141.438 421.816V421.997C141.438 427.338 137.613 430.959 130.941 430.959H117.063Z" fill="#010101"/>
<path d="M167.651 463.547H215.066V451.146H181.261V437.839H210.618V425.437H181.261V412.583H214.621V400.181H167.651V463.547Z" fill="#010101"/>
<path d="M247.084 464H259.183L284.358 400.181H269.591L253.312 444.809L237.032 400.181H221.909L247.084 464Z" fill="#010101"/>
<path d="M294.589 463.547H308.289V400.181H294.589V463.547Z" fill="#010101"/>
<path d="M323.851 463.547H371.266V451.146H337.462V437.839H366.818V425.437H337.462V412.583H370.821V400.181H323.851V463.547Z" fill="#010101"/>
<path d="M399.904 464H411.825L425.88 422.54L439.936 464H451.857L473.118 400.181H458.795L445.896 443.089L431.93 400H420.187L406.22 443.089L393.321 400.181H378.643L399.904 464Z" fill="#010101"/>
</g>
</g>
<defs>
<linearGradient id="paint0_linear_5740_42705" x1="75.5499" y1="457.176" x2="295.599" y2="182.114" gradientUnits="userSpaceOnUse">
<stop stop-color="#3BEA62"/>
<stop offset="0.543588" stop-color="#0894FA"/>
<stop offset="1" stop-color="#764EFF"/>
</linearGradient>
<linearGradient id="paint1_linear_5740_42705" x1="467.055" y1="7.15442" x2="247.061" y2="227.148" gradientUnits="userSpaceOnUse">
<stop stop-color="#3BEA62"/>
<stop offset="0.543588" stop-color="#0894FA"/>
<stop offset="1" stop-color="#764EFF"/>
</linearGradient>
<clipPath id="clip0_5740_42705">
<rect width="512" height="512" fill="white"/>
</clipPath>
<clipPath id="clip1_5740_42705">
<rect width="512" height="512" fill="white"/>
</clipPath>
<clipPath id="clip2_5740_42705">
<rect width="439.999" height="439.999" fill="white" transform="translate(36)"/>
</clipPath>
</defs>
</svg>
