<svg width="70" height="70" viewBox="0 0 70 70" fill="none" xmlns="http://www.w3.org/2000/svg">
<path d="M63.1001 12.7998L67.2001 38.4998L59.6001 43.5998L63.1001 12.7998Z" fill="url(#paint0_linear)"/>
<path d="M67.2001 38.5L59.6001 43.6L61.0001 31.5L67.2001 38.5Z" fill="url(#paint1_linear)"/>
<path d="M63.1001 12.7998L40.0001 2.7998L33.6001 8.0998L63.1001 12.7998Z" fill="url(#paint2_linear)"/>
<path d="M45.0001 9.9998L40.0001 2.7998L33.6001 8.0998L45.0001 9.9998Z" fill="url(#paint3_linear)"/>
<path d="M46.3001 67.1997L10.5001 38.6997L3.40015 60.2997L46.3001 67.1997Z" fill="url(#paint4_linear)"/>
<path d="M46.3001 67.1996L17.6001 54.5996L3.40015 60.2996L46.3001 67.1996Z" fill="url(#paint5_linear)"/>
<path d="M51.3 49.2L2.80005 32.5L46.3 67.2L51.3 49.2Z" fill="url(#paint6_linear)"/>
<path d="M51.3 49.1996L48.1 48.0996L43.3 54.1996L46.3 67.1996L51.3 49.1996Z" fill="url(#paint7_linear)"/>
<path d="M43.3 54.2L2.80005 32.5L40 62.1L46.3 67.2L43.3 54.2Z" fill="url(#paint8_linear)"/>
<path d="M2.80005 3.2998V32.4998L58.7001 51.6998L63.1 12.7998L2.80005 3.2998Z" fill="url(#paint9_linear)"/>
<path d="M2.80005 3.2998V32.4998L58.7001 51.6998L52.1 22.2998L2.80005 3.2998Z" fill="url(#paint10_linear)"/>
<path d="M2.80005 3.2998V32.4998L16.1 24.4998L2.80005 3.2998Z" fill="url(#paint11_linear)"/>
<path d="M17.6001 54.5996L52.3001 22.5996L15.7001 24.7996L3.40015 60.2996L17.6001 54.5996Z" fill="url(#paint12_linear)"/>
<path d="M17.6001 54.5997L18.8001 45.1997L10.5001 38.6997L3.40015 60.2997L17.6001 54.5997Z" fill="url(#paint13_linear)"/>
<path d="M17.6001 54.5997L18.8001 45.1997L10.5001 38.6997L3.40015 60.2997L17.6001 54.5997Z" fill="url(#paint14_linear)"/>
<path d="M63.1001 12.7998L58.7001 51.6998L52.1001 22.2998L63.1001 12.7998Z" fill="url(#paint15_linear)"/>
<path d="M58.7 51.6996L59.5999 43.5996L57.2 45.1996L58.7 51.6996Z" fill="url(#paint16_linear)"/>
<path d="M58.7001 51.6997L51.3 49.1997L57.2001 45.1997L58.7001 51.6997Z" fill="url(#paint17_linear)"/>
<path d="M63.1001 12.7996L47.2001 26.7996L15.4001 24.5996L33.6001 8.09961L63.1001 12.7996Z" fill="url(#paint18_linear)"/>
<path d="M52.1 22.2998L63.1 12.7998L2.80005 3.2998L52.1 22.2998Z" fill="url(#paint19_linear)"/>
<path d="M52.1 22.2998L63.1 12.7998L2.80005 3.2998L52.1 22.2998Z" fill="url(#paint20_linear)"/>
<path d="M28.2 13.0996L52.0999 22.2996L52.9 21.6996L44.9 9.89961L33.5999 8.09961L28.2 13.0996Z" fill="url(#paint21_linear)"/>
<path d="M55 15H15V55H55V15Z" fill="url(#paint22_linear)"/>
<g opacity="0.5">
<path opacity="0.3" d="M15 42.2002V55.0002H31.1L15 42.2002Z" fill="url(#paint23_linear)"/>
<path opacity="0.3" d="M15 42.2002V55.0002H16.7L17.7 54.6002L23.65 49.1002L15 42.2002Z" fill="url(#paint24_linear)"/>
<path opacity="0.3" d="M15 42.2L31.1 55H49.6L51.2 49.2L15 36.75V42.2Z" fill="url(#paint25_linear)"/>
<path opacity="0.3" d="M43.2999 54.2002L43.4999 55.0002H49.5999L51.1999 49.2002L41.5999 45.9502L43.2999 54.2002Z" fill="url(#paint26_linear)"/>
<path opacity="0.3" d="M55 19.8999L52 22.4999L55 35.8499V19.8999Z" fill="url(#paint27_linear)"/>
<path opacity="0.3" d="M54.9999 15H32.6499L51.9999 22.5L54.9999 19.9V15Z" fill="url(#paint28_linear)"/>
<path opacity="0.3" d="M55 50.5V35.85L52 22.5L32.65 15H15V36.75L55 50.5Z" fill="url(#paint29_linear)"/>
</g>
<path d="M35 47.3999H20V49.8999H35V47.3999Z" fill="white"/>
<path d="M19.6001 20.1685H25.4199C30.0757 20.1685 33.2989 23.3917 33.2989 27.5103C33.2989 31.7185 30.0757 34.9417 25.4199 34.9417H19.6001V20.1685ZM22.8234 23.1231V32.0766H25.3303C28.0164 32.0766 29.8071 30.2859 29.8071 27.6894C29.8071 25.0929 28.0164 23.2126 25.3303 23.2126H22.8234V23.1231Z" fill="white"/>
<path d="M35.0002 27.5999C35.0002 23.3022 38.313 19.8999 42.7898 19.8999C45.4758 19.8999 47.0875 20.6162 48.6095 21.9592L46.5502 24.4662C45.3863 23.4813 44.4014 22.9441 42.7002 22.9441C40.2828 22.9441 38.4026 25.0034 38.4026 27.5999C38.4026 30.2859 40.2828 32.3453 42.8793 32.3453C44.0433 32.3453 45.1177 32.0766 45.9235 31.4499V29.3011H42.6107V26.5255H49.0572V32.972C47.5351 34.2255 45.4758 35.2999 42.7002 35.2999C38.134 35.2104 35.0002 31.9871 35.0002 27.5999Z" fill="white"/>
<defs>
<linearGradient id="paint0_linear" x1="61.7974" y1="27.0237" x2="63.6807" y2="43.4191" gradientUnits="userSpaceOnUse">
<stop offset="0.1599" stop-color="#21D789"/>
<stop offset="0.5402" stop-color="#419FBC"/>
<stop offset="1" stop-color="#6B57FF"/>
</linearGradient>
<linearGradient id="paint1_linear" x1="53.5366" y1="35.1614" x2="78.0099" y2="43.7787" gradientUnits="userSpaceOnUse">
<stop offset="0.0212475" stop-color="#B74AF7" stop-opacity="0"/>
<stop offset="0.744" stop-color="#8053FD" stop-opacity="0.7385"/>
<stop offset="1" stop-color="#6B57FF"/>
</linearGradient>
<linearGradient id="paint2_linear" x1="44.6292" y1="19.9896" x2="49.3928" y2="7.8038" gradientUnits="userSpaceOnUse">
<stop stop-color="#6B57FF"/>
<stop offset="0.9516" stop-color="#21D789"/>
</linearGradient>
<linearGradient id="paint3_linear" x1="44.712" y1="4.8602" x2="36.9881" y2="10.2727" gradientUnits="userSpaceOnUse">
<stop stop-color="#00FF6A"/>
<stop offset="0.9516" stop-color="#21D789" stop-opacity="0"/>
</linearGradient>
<linearGradient id="paint4_linear" x1="46.1689" y1="76.358" x2="0.935747" y2="45.3801" gradientUnits="userSpaceOnUse">
<stop offset="0.09839" stop-color="#6B57FF"/>
<stop offset="0.1176" stop-color="#685CFB"/>
<stop offset="0.3447" stop-color="#4A91CA"/>
<stop offset="0.5417" stop-color="#34B7A7"/>
<stop offset="0.6991" stop-color="#26CE91"/>
<stop offset="0.7971" stop-color="#21D789"/>
</linearGradient>
<linearGradient id="paint5_linear" x1="22.9822" y1="42.2498" x2="25.6347" y2="72.9796" gradientUnits="userSpaceOnUse">
<stop offset="0.09839" stop-color="#6B57FF"/>
<stop offset="0.1176" stop-color="#685CFB"/>
<stop offset="0.3447" stop-color="#4A91CA"/>
<stop offset="0.5417" stop-color="#34B7A7"/>
<stop offset="0.6991" stop-color="#26CE91"/>
<stop offset="0.7971" stop-color="#21D789"/>
</linearGradient>
<linearGradient id="paint6_linear" x1="6.81165" y1="35.0073" x2="63.2438" y2="66.1653" gradientUnits="userSpaceOnUse">
<stop offset="0.0752688" stop-color="#21D789"/>
<stop offset="0.8874" stop-color="#6B57FF"/>
</linearGradient>
<linearGradient id="paint7_linear" x1="43.3498" y1="57.6485" x2="51.3001" y2="57.6485" gradientUnits="userSpaceOnUse">
<stop offset="0.0266187" stop-color="#4F46C6"/>
<stop offset="1" stop-color="#6B57FF"/>
</linearGradient>
<linearGradient id="paint8_linear" x1="4.81685" y1="38.6201" x2="61.249" y2="69.7782" gradientUnits="userSpaceOnUse">
<stop offset="0.0266187" stop-color="#21D789"/>
<stop offset="0.6999" stop-color="#685CFA"/>
<stop offset="1" stop-color="#6B57FF"/>
</linearGradient>
<linearGradient id="paint9_linear" x1="-0.327651" y1="18.9521" x2="55.0064" y2="30.9904" gradientUnits="userSpaceOnUse">
<stop offset="0.2422" stop-color="#21D789"/>
<stop offset="0.4465" stop-color="#59A3B2"/>
<stop offset="0.7668" stop-color="#B74AF7"/>
<stop offset="1" stop-color="#FF45ED"/>
</linearGradient>
<linearGradient id="paint10_linear" x1="6.83795" y1="27.493" x2="59.4108" y2="27.493" gradientUnits="userSpaceOnUse">
<stop offset="0.1308" stop-color="#21D789"/>
<stop offset="0.3487" stop-color="#59A3B2"/>
<stop offset="0.6901" stop-color="#B74AF7"/>
<stop offset="1" stop-color="#FF45ED"/>
</linearGradient>
<linearGradient id="paint11_linear" x1="3.76345" y1="17.8907" x2="16.3061" y2="17.8907" gradientUnits="userSpaceOnUse">
<stop offset="0.3086" stop-color="#56D789"/>
<stop offset="0.9587" stop-color="#8DFC77"/>
<stop offset="1" stop-color="#91FF76"/>
</linearGradient>
<linearGradient id="paint12_linear" x1="24.8951" y1="79.5204" x2="29.2149" y2="23.0542" gradientUnits="userSpaceOnUse">
<stop stop-color="#21D789"/>
<stop offset="0.9961" stop-color="#6B57FF" stop-opacity="0"/>
</linearGradient>
<linearGradient id="paint13_linear" x1="7.80615" y1="38.4518" x2="11.6843" y2="55.3499" gradientUnits="userSpaceOnUse">
<stop offset="0.2061" stop-color="#6B57FF"/>
<stop offset="0.3273" stop-color="#6266F1"/>
<stop offset="0.5619" stop-color="#4B8FCC"/>
<stop offset="0.8839" stop-color="#26CF90"/>
<stop offset="0.9206" stop-color="#21D789"/>
</linearGradient>
<linearGradient id="paint14_linear" x1="2.93225" y1="46.3665" x2="19.1065" y2="58.977" gradientUnits="userSpaceOnUse">
<stop offset="0.3086" stop-color="#56D789" stop-opacity="0"/>
<stop offset="0.9587" stop-color="#8DFC77" stop-opacity="0.9403"/>
<stop offset="1" stop-color="#91FF76"/>
</linearGradient>
<linearGradient id="paint15_linear" x1="52.1175" y1="32.2708" x2="63.0933" y2="32.2708" gradientUnits="userSpaceOnUse">
<stop offset="0.2609" stop-color="#B74AF7"/>
<stop offset="1" stop-color="#FF45ED"/>
</linearGradient>
<linearGradient id="paint16_linear" x1="60.9275" y1="50.2878" x2="57.5007" y2="45.2162" gradientUnits="userSpaceOnUse">
<stop stop-color="#FF72F1"/>
<stop offset="0.963" stop-color="#B74AF7"/>
</linearGradient>
<linearGradient id="paint17_linear" x1="61.3405" y1="55.0079" x2="54.7611" y2="47.7432" gradientUnits="userSpaceOnUse">
<stop offset="0.668" stop-color="#FF72F1"/>
<stop offset="1" stop-color="#B74AF7"/>
</linearGradient>
<linearGradient id="paint18_linear" x1="26.0594" y1="-3.29499" x2="43.0532" y2="25.0839" gradientUnits="userSpaceOnUse">
<stop offset="0.1625" stop-color="#B74AF7" stop-opacity="0.5"/>
<stop offset="0.9989" stop-color="#00FF6A" stop-opacity="0"/>
</linearGradient>
<linearGradient id="paint19_linear" x1="51.7937" y1="30.8908" x2="38.9091" y2="15.2648" gradientUnits="userSpaceOnUse">
<stop offset="0.2973" stop-color="#FF4FFF" stop-opacity="0.96"/>
<stop offset="0.9989" stop-color="#FF45ED" stop-opacity="0"/>
</linearGradient>
<linearGradient id="paint20_linear" x1="31.5826" y1="15.6725" x2="32.9533" y2="7.9966" gradientUnits="userSpaceOnUse">
<stop stop-color="#FF4FFF" stop-opacity="0.96"/>
<stop offset="0.9928" stop-color="#FF45ED" stop-opacity="0"/>
</linearGradient>
<linearGradient id="paint21_linear" x1="48.2213" y1="8.47401" x2="41.8048" y2="15.8887" gradientUnits="userSpaceOnUse">
<stop offset="0.1209" stop-color="#A326F7"/>
<stop offset="0.9516" stop-color="#B74AF7" stop-opacity="0"/>
</linearGradient>
<linearGradient id="paint22_linear" x1="14.4627" y1="14.4627" x2="52.3349" y2="52.3349" gradientUnits="userSpaceOnUse">
<stop offset="0.0284813" stop-color="#007E67"/>
<stop offset="0.1121" stop-color="#005344"/>
<stop offset="0.1976" stop-color="#002F27"/>
<stop offset="0.2776" stop-color="#001511"/>
<stop offset="0.3494" stop-color="#000605"/>
<stop offset="0.4058"/>
<stop offset="0.9138"/>
</linearGradient>
<linearGradient id="paint23_linear" x1="30.8097" y1="59.4197" x2="10.4751" y2="45.4936" gradientUnits="userSpaceOnUse">
<stop offset="0.09839" stop-color="#6B57FF"/>
<stop offset="0.1176" stop-color="#685CFB"/>
<stop offset="0.3447" stop-color="#4A91CA"/>
<stop offset="0.5417" stop-color="#34B7A7"/>
<stop offset="0.6991" stop-color="#26CE91"/>
<stop offset="0.7971" stop-color="#21D789"/>
</linearGradient>
<linearGradient id="paint24_linear" x1="18.1777" y1="60.6714" x2="19.5124" y2="43.2254" gradientUnits="userSpaceOnUse">
<stop offset="0.0752688" stop-color="#21D789"/>
<stop offset="0.8874" stop-color="#6B57FF"/>
</linearGradient>
<linearGradient id="paint25_linear" x1="17.554" y1="39.0692" x2="57.7809" y2="61.2797" gradientUnits="userSpaceOnUse">
<stop stop-color="#34B7A7"/>
<stop offset="0.8874" stop-color="#000069"/>
</linearGradient>
<linearGradient id="paint26_linear" x1="41.5865" y1="50.4638" x2="51.1987" y2="50.4638" gradientUnits="userSpaceOnUse">
<stop offset="0.0266187" stop-color="#4F46C6"/>
<stop offset="1" stop-color="#1F2C61"/>
</linearGradient>
<linearGradient id="paint27_linear" x1="52.011" y1="27.8777" x2="55" y2="27.8777" gradientUnits="userSpaceOnUse">
<stop offset="0.2609" stop-color="#B74AF7"/>
<stop offset="1" stop-color="#FF45ED"/>
</linearGradient>
<linearGradient id="paint28_linear" x1="43.5655" y1="18.8916" x2="44.5237" y2="13.5258" gradientUnits="userSpaceOnUse">
<stop stop-color="#FF4FFF"/>
<stop offset="0.9928" stop-color="#FF75FF"/>
</linearGradient>
<linearGradient id="paint29_linear" x1="22.1458" y1="15.8853" x2="49.2314" y2="48.628" gradientUnits="userSpaceOnUse">
<stop stop-color="#20D185"/>
<stop offset="0.4429" stop-color="#198767"/>
<stop offset="0.844" stop-color="#12414A"/>
</linearGradient>
</defs>
</svg>
