<svg width="14" height="14" viewBox="0 0 14 14" fill="none" xmlns="http://www.w3.org/2000/svg">
<path fill-rule="evenodd" clip-rule="evenodd" d="M2.5 4C2.77614 4 3 4.22386 3 4.5V5H11V4.5C11 4.22386 11.2239 4 11.5 4C11.7761 4 12 4.22386 12 4.5V5H12.5C12.7761 5 13 5.22386 13 5.5C13 5.77614 12.7761 6 12.5 6H3V6.5C3 6.77614 2.77614 7 2.5 7C2.22386 7 2 6.77614 2 6.5V6H1.5C1.22386 6 1 5.77614 1 5.5C1 5.22386 1.22386 5 1.5 5H2V4.5C2 4.22386 2.22386 4 2.5 4Z" fill="#CED0D6"/>
<path fill-rule="evenodd" clip-rule="evenodd" d="M7 8C7 7.44772 7.44772 7 8 7L13 7.00001C13.5523 7.00001 14 7.44772 14 8.00001L14 13C14 13.5523 13.5523 14 13 14L8 14C7.44772 14 7 13.5523 7 13V8ZM8 13V8L13 8V13L8 13Z" fill="#CED0D6"/>
<rect x="9" y="9" width="3" height="3" fill="#57965C"/>
</svg>
