<svg width="14" height="14" viewBox="0 0 14 14" fill="none" xmlns="http://www.w3.org/2000/svg">
<path fill-rule="evenodd" clip-rule="evenodd" d="M12.8536 10.8536C12.6583 11.0488 12.3417 11.0488 12.1464 10.8536L8.29289 7L5.7071 7L1.85355 10.8535C1.65829 11.0488 1.34171 11.0488 1.14645 10.8535C0.951183 10.6583 0.951183 10.3417 1.14645 10.1464L4.29289 7L0.5 7C0.223858 7 -3.69262e-07 6.77614 -3.93403e-07 6.5C-4.17544e-07 6.22386 0.223857 6 0.5 6L4.29289 6L1.14644 2.85355C0.951183 2.65829 0.951183 2.34171 1.14645 2.14644C1.34171 1.95118 1.65829 1.95118 1.85355 2.14645L5.7071 6L8.29289 6L12.1464 2.14645C12.3417 1.95119 12.6583 1.95119 12.8536 2.14645C13.0488 2.34172 13.0488 2.6583 12.8536 2.85356L9.70711 6L13.5 6C13.7761 6 14 6.22386 14 6.5C14 6.77615 13.7761 7 13.5 7L9.70711 7L12.8536 10.1464C13.0488 10.3417 13.0488 10.6583 12.8536 10.8536Z" fill="#CED0D6"/>
</svg>
