<svg width="14" height="14" viewBox="0 0 14 14" fill="none" xmlns="http://www.w3.org/2000/svg">
<path fill-rule="evenodd" clip-rule="evenodd" d="M2.14645 10.8536C1.95118 10.6583 1.95118 10.3417 2.14645 10.1464L5.29289 7L1.5 7C1.22386 7 1 6.77615 1 6.5C1 6.22386 1.22386 6 1.5 6L5.29289 6L2.14644 2.85356C1.95118 2.65829 1.95118 2.34171 2.14645 2.14645C2.34171 1.95119 2.65829 1.95119 2.85355 2.14645L6.7071 6L11 6L11 5.5C11 5.22386 11.2239 5 11.5 5C11.7761 5 12 5.22386 12 5.5L12 6L12.5 6C12.7761 6 13 6.22386 13 6.5C13 6.77615 12.7761 7 12.5 7L12 7L12 7.5C12 7.77614 11.7761 8 11.5 8C11.2239 8 11 7.77614 11 7.5L11 7L6.7071 7L2.85355 10.8536C2.65829 11.0488 2.34171 11.0488 2.14645 10.8536Z" fill="#CED0D6"/>
</svg>
