<svg width="14" height="14" viewBox="0 0 14 14" fill="none" xmlns="http://www.w3.org/2000/svg">
<path fill-rule="evenodd" clip-rule="evenodd" d="M11.8536 2.14645C12.0488 2.34171 12.0488 2.65829 11.8536 2.85355L8.70711 6H12.5C12.7761 6 13 6.22386 13 6.5C13 6.77614 12.7761 7 12.5 7H8.70711L11.8536 10.1464C12.0488 10.3417 12.0488 10.6583 11.8536 10.8536C11.6583 11.0488 11.3417 11.0488 11.1464 10.8536L7.29289 7H3V7.5C3 7.77614 2.77614 8 2.5 8C2.22386 8 2 7.77614 2 7.5V7H1.5C1.22386 7 1 6.77614 1 6.5C1 6.22386 1.22386 6 1.5 6H2V5.5C2 5.22386 2.22386 5 2.5 5C2.77614 5 3 5.22386 3 5.5V6H7.29289L11.1464 2.14645C11.3417 1.95118 11.6583 1.95118 11.8536 2.14645Z" fill="#CED0D6"/>
</svg>
