<svg width="14" height="14" viewBox="0 0 14 14" fill="none" xmlns="http://www.w3.org/2000/svg">
<path fill-rule="evenodd" clip-rule="evenodd" d="M2.5 5C2.77614 5 3 5.22386 3 5.5V6H11V5.5C11 5.22386 11.2239 5 11.5 5C11.7761 5 12 5.22386 12 5.5V6H12.5C12.7761 6 13 6.22386 13 6.5C13 6.77614 12.7761 7 12.5 7H12V7.5C12 7.77614 11.7761 8 11.5 8C11.2239 8 11 7.77614 11 7.5V7H3V7.5C3 7.77614 2.77614 8 2.5 8C2.22386 8 2 7.77614 2 7.5V7H1.5C1.22386 7 1 6.77614 1 6.5C1 6.22386 1.22386 6 1.5 6H2V5.5C2 5.22386 2.22386 5 2.5 5Z" fill="#CED0D6"/>
</svg>
