<svg width="16" height="16" viewBox="0 0 16 16" fill="none" xmlns="http://www.w3.org/2000/svg">
<path fill-rule="evenodd" clip-rule="evenodd" d="M12 8L11.9998 7.96458C12.3489 7.91467 12.6813 7.81326 12.9892 7.66831C12.9964 7.77794 13 7.88855 13 8C13 10.7614 10.7614 13 8 13C7.88855 13 7.77794 12.9964 7.6683 12.9892C7.81326 12.6813 7.91467 12.3489 7.96458 11.9998C7.97637 11.9999 7.98818 12 8 12C10.2091 12 12 10.2091 12 8ZM4.00015 8.03542C4.00005 8.02363 4 8.01182 4 8C4 5.79086 5.79086 4 8 4L8.03542 4.00015C8.08533 3.65112 8.18674 3.3187 8.3317 3.01083C8.22206 3.00365 8.11145 3 8 3C5.23858 3 3 5.23858 3 8C3 8.11145 3.00365 8.22206 3.01083 8.3317C3.3187 8.18674 3.65112 8.08533 4.00015 8.03542Z" fill="#9AA7B0"/>
<path fill-rule="evenodd" clip-rule="evenodd" d="M8 11.5C8 13.433 6.433 15 4.5 15C2.567 15 1 13.433 1 11.5C1 9.567 2.567 8 4.5 8C6.433 8 8 9.567 8 11.5ZM4.5 14C5.88071 14 7 12.8807 7 11.5C7 10.1193 5.88071 9 4.5 9C3.11929 9 2 10.1193 2 11.5C2 12.8807 3.11929 14 4.5 14Z" fill="#F4AF3D" fill-opacity="0.7"/>
<circle cx="4.5" cy="11.5" r="1.5" fill="#9AA7B0"/>
<circle cx="11.5" cy="4.5" r="1.5" fill="#9AA7B0"/>
<path fill-rule="evenodd" clip-rule="evenodd" d="M15 4.5C15 6.433 13.433 8 11.5 8C9.567 8 8 6.433 8 4.5C8 2.567 9.567 1 11.5 1C13.433 1 15 2.567 15 4.5ZM11.5 7C12.8807 7 14 5.88071 14 4.5C14 3.11929 12.8807 2 11.5 2C10.1193 2 9 3.11929 9 4.5C9 5.88071 10.1193 7 11.5 7Z" fill="#F4AF3D" fill-opacity="0.7"/>
</svg>
