<svg width="12" height="12" viewBox="0 0 12 12" fill="none" xmlns="http://www.w3.org/2000/svg">
<path d="M10 6C10 5.94323 9.99881 5.88673 9.99647 5.83054C10.3486 5.70658 10.6706 5.51876 10.9487 5.281C10.9825 5.51579 11 5.75585 11 6C11 8.76142 8.76142 11 6 11C5.75585 11 5.51579 10.9825 5.281 10.9487C5.51876 10.6706 5.70657 10.3486 5.83054 9.99648C5.88673 9.99882 5.94323 10 6 10C8.20914 10 10 8.20914 10 6Z" fill="#9AA7B0"/>
<path d="M2.00352 6.16946C2.00118 6.11327 2 6.05677 2 6C2 3.79086 3.79086 2 6 2C6.05677 2 6.11327 2.00119 6.16946 2.00353C6.29342 1.6514 6.48124 1.32936 6.719 1.05131C6.48421 1.0175 6.24415 1 6 1C3.23858 1 1 3.23858 1 6C1 6.24415 1.0175 6.48421 1.05131 6.719C1.32936 6.48124 1.65139 6.29343 2.00352 6.16946Z" fill="#9AA7B0"/>
<path fill-rule="evenodd" clip-rule="evenodd" d="M3 12C4.65685 12 6 10.6569 6 9C6 7.34315 4.65685 6 3 6C1.34315 6 0 7.34315 0 9C0 10.6569 1.34315 12 3 12Z" fill="#F4AF3D" fill-opacity="0.7"/>
<path fill-rule="evenodd" clip-rule="evenodd" d="M9 6C10.6569 6 12 4.65685 12 3C12 1.34315 10.6569 0 9 0C7.34315 0 6 1.34315 6 3C6 4.65685 7.34315 6 9 6Z" fill="#F4AF3D" fill-opacity="0.7"/>
<circle cx="3" cy="9" r="2" fill="#1E1F22"/>
<circle cx="9" cy="3" r="2" fill="#1E1F22"/>
<circle cx="3" cy="9" r="1" fill="#9AA7B0"/>
<circle cx="9" cy="3" r="1" fill="#9AA7B0"/>
</svg>
