<svg width="16" height="16" viewBox="0 0 16 16" xmlns="http://www.w3.org/2000/svg">
  <path fill="#40b6e0" d="M12 8a4 4 0 1 0 0 8 4 4 0 0 0 0-8Zm-.4 7.172A3.199 3.199 0 0 1 8.8 12c.001-.241.03-.481.084-.716L10.8 13.2v.4a.8.8 0 0 0 .8.8v.772Zm2.76-1.016a.793.793 0 0 0-.76-.556h-.4v-1.2a.4.4 0 0 0-.4-.4h-2.4v-.8h.8a.4.4 0 0 0 .4-.4V10h.8a.8.8 0 0 0 .8-.8v-.164a3.193 3.193 0 0 1 1.16 5.12Z"/>
  <path fill="#9aa7b0" d="M10.14 7.366c.245-.638.684-2.298.816-2.947.29-1.427.819-2.419 2.152-2.419h.168s-.962 3.09-1.422 4.312c.183-.21.409-.6.51-.774C12.6 5.132 14 2.001 14 2h1c-.219.852-1.712 4.021-2.28 5.073C12.483 7.039 12.246 7 12 7a4.98 4.98 0 0 0-1.86.366ZM8.043 8.975c.286-.374.619-.707.998-.987-.42-.024-.824-.208-1.064-.812C7.703 6.485 6.997 3.96 6.84 3c.324-.002.619.2.784.811.193.718.681 3.259 1.508 4.103a5 5 0 0 1 .934-.525c-.167-.649-.53-3.153-1.003-4.189C8.699 2.402 8.202 2 7.476 2H5.131c-.452 0-.906.256-1.431.79-.827.843-2.091 3.256-2.7 6.198h1.202c.302-1.654.893-3.362 1.777-4.488-.509 1.314-.996 3.318-1.156 4.47.941-.085 1.597-.575 1.719-1.47.164-1.198.625-3.188 1.379-4.074.164.583.548 2.881.806 3.698.317 1 .639 1.729 1.316 1.851Z"/>
</svg>
