<svg width="16" height="16" viewBox="0 0 16 16" xmlns="http://www.w3.org/2000/svg">
  <path fill="#9aa7b0" d="M8 1C4.141 1 1 4.141 1 8s3.141 7 7 7 7-3.141 7-7-3.141-7-7-7Zm5.118 5h-2.251c-.155-1.174-.447-2.273-.868-3.118A5.523 5.523 0 0 1 13.118 6Zm.382 2c0 .342-.036.675-.096 1h-2.44c.022-.333.035-.667.035-1s-.014-.667-.035-1h2.44c.06.325.096.658.096 1Zm-4.973 5.473a5.389 5.389 0 0 1-1.054 0c-.54-.499-1.082-1.71-1.329-3.473h3.711c-.248 1.764-.789 2.974-1.329 3.473ZM6.041 9C6.02 8.677 6 8.351 6 8s.02-.677.041-1h3.918c.021.323.041.649.041 1s-.02.677-.041 1H6.041ZM2.5 8c0-.342.036-.675.096-1h2.44c-.022.333-.035.667-.035 1s.014.667.035 1h-2.44A5.495 5.495 0 0 1 2.5 8Zm4.973-5.473a5.389 5.389 0 0 1 1.054 0c.54.499 1.082 1.71 1.329 3.473H6.145c.248-1.764.789-2.974 1.329-3.473Zm-1.472.355c-.422.845-.713 1.944-.868 3.118H2.882a5.52 5.52 0 0 1 3.119-3.118ZM2.882 10h2.251c.155 1.174.447 2.273.868 3.118A5.523 5.523 0 0 1 2.882 10Zm7.117 3.118c.422-.845.713-1.944.868-3.118h2.251a5.52 5.52 0 0 1-3.119 3.118Z"/>
</svg>
