<svg xmlns="http://www.w3.org/2000/svg" width="16" height="16">
  <path d="M16,2H13.108a2.993,2.993,0,0,0-2.917,2.36,5.594,5.594,0,0,0-.218-.575A2.664,2.664,0,0,0,7.475,2H5.131A3.093,3.093,0,0,0,2.986,3.09a15.174,15.174,0,0,0-2.965,6.7L0,9.885v1.1H2.523A2.759,2.759,0,0,0,5.532,8.635c.03-.219.068-.448.112-.68.044.18.088.34.129.471C6.059,9.326,6.59,11,8.245,11h2.608c1.3,0,2.056-1.272,2.606-2.2a43.039,43.039,0,0,0,2.51-5.55L16,3.127Z" fill="#dadada"/>
  <path d="M3.7,3.79A2.1,2.1,0,0,1,5.131,3H7.475A1.7,1.7,0,0,1,9.063,4.2a33.6,33.6,0,0,1,1.028,4.293,25.861,25.861,0,0,0,.864-3.074C11.245,3.992,11.774,3,13.108,3H15a43.613,43.613,0,0,1-2.4,5.288C12.1,9.129,11.562,10,10.852,10H8.245c-.823,0-1.171-.78-1.518-1.876-.259-.817-.642-3.115-.806-3.7A9.466,9.466,0,0,0,4.542,8.5,1.785,1.785,0,0,1,2.523,9.988H1A14.265,14.265,0,0,1,3.7,3.79Z" fill="#424242"/>
  <path d="M14,3s-1.4,3.132-1.637,3.538a5.96,5.96,0,0,1-.509.774C12.314,6.09,13.275,3,13.276,3ZM7.624,4.812C7.459,4.2,7.164,4,6.84,4A33.771,33.771,0,0,0,7.977,8.176,1.165,1.165,0,0,0,9.2,9C8.331,8.24,7.823,5.551,7.624,4.812Zm-5.1,5.176c.1,0,.2-.008.3-.017A23.836,23.836,0,0,1,3.979,5.5,10.666,10.666,0,0,0,2.2,9.988Z" fill="#cfcfcf"/>
  <g>
    <circle cx="11.5" cy="11.5" r="4.5" fill="#dadada"/>
    <circle cx="11.5" cy="11.5" r="3.5" fill="#424242"/>
    <path d="M13,11h.949a2.476,2.476,0,0,1,0,1H13Zm0-1.488V10h.488A2.453,2.453,0,0,0,13,9.512Zm-1-.461a2.476,2.476,0,0,0-1,0V10h1ZM10,11H9.051a2.476,2.476,0,0,0,0,1H10Zm1,1h1V11H11Zm2.488,1H13v.488A2.453,2.453,0,0,0,13.488,13ZM12,13.949V13H11v.949a2.476,2.476,0,0,0,1,0ZM10,9.512A2.427,2.427,0,0,0,9.512,10H10Zm0,3.976V13H9.512A2.427,2.427,0,0,0,10,13.488Z" fill="#cfcfcf"/>
  </g>
</svg>
