<svg width="16" height="16" viewBox="0 0 16 16" xmlns="http://www.w3.org/2000/svg">
  <path fill="#EBECF0" d="M4.874 2.5C3.117 2.5 1.511 7.635 1.5 8.987h1.8c.011-.893 1.07-5.991 2.333-6.443-.075-.02-.148-.044-.232-.044h-.527ZM11.5 6c.504 0 .99.074 1.454.2.896-1.696 1.582-3.778 1.586-4.197h-1.977c-.004.349-.434 2.318-1.106 3.998L11.5 6ZM7.61 7.615a5.55 5.55 0 0 1 1.25-.938C8.5 4.913 8.433 2.5 7.029 2.5H5.81c-.06 0-.118.023-.177.044 1.307.34 1.283 3.497 1.978 5.071Z"/>
  <path fill="#EDF3FF" stroke="#3574F0" stroke-linecap="round" stroke-linejoin="round" d="M11.5 15.5a4 4 0 1 0 0-8 4 4 0 0 0 0 8Z"/>
  <path fill="none" stroke="#3574F0" stroke-miterlimit="10" d="M11.5 15.5c.828 0 1.5-1.79 1.5-4s-.672-4-1.5-4-1.5 1.79-1.5 4 .672 4 1.5 4Zm-4-4h8"/>
  <path fill="none" stroke="#6C707E" stroke-linecap="round" stroke-linejoin="round" d="M8.673 5.62C8.424 4.081 8.164 2.5 7.028 2.5H5.81c-1.187 0-2.23 4.355-2.463 6m9.838-2.755c.591-1.21 1.063-2.517 1.258-3.245m-5.77 3.12c.03.184.059.367.09.547"/>
  <path fill="none" stroke="#6C707E" stroke-linecap="round" stroke-linejoin="round" d="M7.045 5.485C6.739 3.99 6.422 2.5 5.4 2.5h-.528c-1.588 0-3.053 4.195-3.328 6m10.104-2.992c.414-1.144.714-2.335.843-3.007M7.045 5.485c.116.567.23 1.134.38 1.622"/>
</svg>
