<?xml version="1.0" encoding="utf-8"?>
<!-- Generator: Adobe Illustrator 16.0.0, SVG Export Plug-In . SVG Version: 6.00 Build 0)  -->
<!DOCTYPE svg PUBLIC "-//W3C//DTD SVG 1.0//EN" "http://www.w3.org/TR/2001/REC-SVG-20010904/DTD/svg10.dtd">
<svg version="1.0" id="Layer_1" xmlns="http://www.w3.org/2000/svg" xmlns:xlink="http://www.w3.org/1999/xlink" x="0px" y="0px"
	 width="16" height="16" viewBox="0 0 16 16" enable-background="new 0 0 16 16" xml:space="preserve">
<path d="M 9.867 1.409 C 8.372 1.409 7.161 2.375 7.161 3.567 C 7.161 4.571 8.025 5.407 9.19 5.649 L 9.19 11.389 C 9.19 12.433 8.13 13.279 6.823 13.279 C 5.517 13.279 4.457 12.433 4.457 11.389 L 4.457 10.851 L 5.809 10.851 L 3.105 7.613 L 3.105 11.389 C 3.105 13.03 4.77 14.357 6.823 14.357 C 8.877 14.357 10.542 13.03 10.542 11.389 L 10.542 5.649 C 11.707 5.407 12.571 4.571 12.571 3.567 C 12.571 2.375 11.36 1.409 9.867 1.409 Z M 9.867 4.646 C 9.119 4.646 8.514 4.163 8.514 3.567 C 8.514 2.971 9.119 2.488 9.867 2.488 C 10.613 2.488 11.219 2.971 11.219 3.567 C 11.219 4.163 10.613 4.646 9.867 4.646 Z" fill="#9AA7B0"/>
</svg>
