<?xml version="1.0" encoding="UTF-8"?>
<svg xmlns="http://www.w3.org/2000/svg" xmlns:xlink="http://www.w3.org/1999/xlink" width="12px" height="12px" viewBox="0 0 12 12" version="1.1">
<g id="surface1">
<path style=" stroke:none;fill-rule:nonzero;fill:rgb(68.627451%,69.411765%,70.196078%);fill-opacity:1;" d="M 7.398438 1.058594 C 6.277344 1.058594 5.371094 1.78125 5.371094 2.675781 C 5.371094 3.429688 6.019531 4.054688 6.890625 4.238281 L 6.890625 8.542969 C 6.890625 9.324219 6.097656 9.960938 5.117188 9.960938 C 4.136719 9.960938 3.34375 9.324219 3.34375 8.542969 L 3.34375 8.136719 L 4.355469 8.136719 L 2.328125 5.710938 L 2.328125 8.542969 C 2.328125 9.773438 3.578125 10.769531 5.117188 10.769531 C 6.65625 10.769531 7.90625 9.773438 7.90625 8.542969 L 7.90625 4.238281 C 8.78125 4.054688 9.429688 3.429688 9.429688 2.675781 C 9.429688 1.78125 8.519531 1.058594 7.398438 1.058594 Z M 7.398438 3.484375 C 6.839844 3.484375 6.386719 3.121094 6.386719 2.675781 C 6.386719 2.226562 6.839844 1.867188 7.398438 1.867188 C 7.960938 1.867188 8.414062 2.226562 8.414062 2.675781 C 8.414062 3.121094 7.960938 3.484375 7.398438 3.484375 Z M 7.398438 3.484375 " fill="#AFB1B3"/>
</g>
</svg>
