<svg version="1.0" xmlns="http://www.w3.org/2000/svg"
 width="30" height="32" viewBox="0 0 75.000000 75.000000"
 preserveAspectRatio="xMidYMid meet">

<g transform="translate(0.000000,75.000000) scale(0.100000,-0.100000)"
fill="#000000" stroke="none">
<path d="M105 731 c-42 -26 -71 -60 -90 -103 -12 -30 -15 -81 -15 -256 0 -210
1 -221 23 -263 13 -24 43 -57 66 -74 l43 -30 226 -3 c190 -3 232 -1 268 13 46
17 110 80 119 118 3 12 5 131 3 264 l-3 241 -30 38 c-59 71 -70 74 -340 74
-217 0 -243 -2 -270 -19z m125 -315 c0 -120 1 -124 26 -150 35 -35 92 -36 131
-2 27 24 28 27 32 150 1 69 7 126 12 126 5 0 9 -58 9 -129 0 -124 -1 -131 -26
-160 -48 -57 -156 -51 -194 12 -17 27 -20 51 -20 155 0 102 2 122 15 122 13 0
15 -20 15 -124z m330 -36 c0 -136 -2 -160 -15 -160 -13 0 -15 24 -15 160 0
136 2 160 15 160 13 0 15 -24 15 -160z"/>
</g>
</svg>
