<?xml version="1.0" standalone="no"?>
<!DOCTYPE svg PUBLIC "-//W3C//DTD SVG 1.0//EN" "http://www.w3.org/TR/2001/REC-SVG-20010904/DTD/svg10.dtd">
<svg xmlns="http://www.w3.org/2000/svg" xmlns:xlink="http://www.w3.org/1999/xlink" id="body_1" viewBox="0 0 104 104" width="32" height="32">

<g transform="matrix(1 0 0 1 0 0)">
	<g>
        <path d="M44.5 -0.5C 47.1667 -0.5 49.8333 -0.5 52.5 -0.5C 52.5 3.5 52.5 7.5 52.5 11.5C 50.5853 11.2155 48.9187 11.5489 47.5 12.5C 39.7203 13.7573 32.7203 16.7573 26.5 21.5C 23.8333 22.1667 22.1667 23.8333 21.5 26.5C 20.4884 27.8717 19.4884 29.205 18.5 30.5C 16.127 32.5792 14.7936 35.2459 14.5 38.5C 14.084 41.5827 13.4174 44.5827 12.5 47.5C 11.5489 48.9187 11.2155 50.5853 11.5 52.5C 7.5 52.5 3.5 52.5 -0.5 52.5C -0.5 49.8333 -0.5 47.1667 -0.5 44.5C 4.83333 19.8333 19.8333 4.83333 44.5 -0.5z" stroke="none" fill="#E6C539" fill-rule="nonzero" fill-opacity="0.9882353" />
	</g>
	<g>
        <path d="M52.5 -0.5C 54.8333 -0.5 57.1667 -0.5 59.5 -0.5C 81.658 3.98843 96.3247 16.9884 103.5 38.5C 103.5 42.8333 103.5 47.1667 103.5 51.5C 99.8333 51.5 96.1667 51.5 92.5 51.5C 92.7678 49.901 92.4345 48.5676 91.5 47.5C 90.5826 44.5827 89.916 41.5827 89.5 38.5C 89.2064 35.2459 87.873 32.5792 85.5 30.5C 84.5116 29.205 83.5116 27.8717 82.5 26.5C 82.2624 24.5956 81.2624 23.2623 79.5 22.5C 70.1165 15.3738 59.4498 12.0405 47.5 12.5C 48.9187 11.5489 50.5853 11.2155 52.5 11.5C 52.5 7.5 52.5 3.5 52.5 -0.5z" stroke="none" fill="#DB972A" fill-rule="nonzero" fill-opacity="0.9882353" />
	</g>
	<g>
        <path d="M26.5 21.5C 25.1667 23.5 23.5 25.1667 21.5 26.5C 22.1667 23.8333 23.8333 22.1667 26.5 21.5z" stroke="none" fill="#2C260F" fill-rule="nonzero" />
	</g>
	<g>
        <path d="M79.5 22.5C 81.2624 23.2623 82.2624 24.5956 82.5 26.5C 80.7376 25.7377 79.7376 24.4044 79.5 22.5z" stroke="none" fill="#2F210D" fill-rule="nonzero" />
	</g>
	<g>
        <path d="M32.5 28.5C 36.6049 28.2338 40.6049 28.7338 44.5 30C 45.1258 30.7504 45.6258 31.5838 46 32.5C 54.5739 26.6244 62.5739 27.2911 70 34.5C 70.8624 36.087 71.5291 37.7536 72 39.5C 72.4999 50.8284 72.6665 62.1618 72.5 73.5C 67.8333 73.5 63.1667 73.5 58.5 73.5C 58.6665 63.4944 58.4998 53.4944 58 43.5C 55.7549 38.9824 52.5882 38.3158 48.5 41.5C 47.5013 52.1459 47.168 62.8126 47.5 73.5C 42.5 73.5 37.5 73.5 32.5 73.5C 32.5 58.5 32.5 43.5 32.5 28.5z" stroke="none" fill="#000000" fill-rule="nonzero" fill-opacity="0.8666667" />
	</g>
	<g>
        <path d="M85.5 30.5C 87.873 32.5792 89.2064 35.2459 89.5 38.5C 87.659 36.1515 86.3257 33.4848 85.5 30.5z" stroke="none" fill="#261B0B" fill-rule="nonzero" fill-opacity="0.03529412" />
	</g>
	<g>
        <path d="M18.5 30.5C 17.6743 33.4848 16.341 36.1515 14.5 38.5C 14.7936 35.2459 16.127 32.5792 18.5 30.5z" stroke="none" fill="#241F0D" fill-rule="nonzero" fill-opacity="0.05490196" />
	</g>
	<g>
        <path d="M12.5 47.5C 12.3764 53.5988 13.0431 59.5988 14.5 65.5C 14.7936 68.7541 16.127 71.4208 18.5 73.5C 19.4884 74.795 20.4884 76.1283 21.5 77.5C 22.1667 80.1667 23.8333 81.8333 26.5 82.5C 32.7203 87.2427 39.7203 90.2427 47.5 91.5C 48.5676 92.4345 49.901 92.7678 51.5 92.5C 51.5 96.1667 51.5 99.8333 51.5 103.5C 47.1667 103.5 42.8333 103.5 38.5 103.5C 16.9884 96.3247 3.98843 81.658 -0.5 59.5C -0.5 57.1667 -0.5 54.8333 -0.5 52.5C 3.5 52.5 7.5 52.5 11.5 52.5C 11.2155 50.5853 11.5489 48.9187 12.5 47.5z" stroke="none" fill="#90D9CC" fill-rule="nonzero" fill-opacity="0.9882353" />
	</g>
	<g>
        <path d="M91.5 47.5C 92.4345 48.5676 92.7678 49.901 92.5 51.5C 96.1667 51.5 99.8333 51.5 103.5 51.5C 103.5 56.1667 103.5 60.8333 103.5 65.5C 97.1667 84.5 84.5 97.1667 65.5 103.5C 60.8333 103.5 56.1667 103.5 51.5 103.5C 51.5 99.8333 51.5 96.1667 51.5 92.5C 49.901 92.7678 48.5676 92.4345 47.5 91.5C 59.4498 91.9595 70.1165 88.6262 79.5 81.5C 81.2624 80.7377 82.2624 79.4044 82.5 77.5C 83.5116 76.1283 84.5116 74.795 85.5 73.5C 87.873 71.4208 89.2064 68.7541 89.5 65.5C 90.9569 59.5988 91.6236 53.5988 91.5 47.5z" stroke="none" fill="#3EBCA3" fill-rule="nonzero" fill-opacity="0.9882353" />
	</g>
	<g>
        <path d="M89.5 65.5C 89.2064 68.7541 87.873 71.4208 85.5 73.5C 86.3257 70.5152 87.659 67.8485 89.5 65.5z" stroke="none" fill="#0F201D" fill-rule="nonzero" fill-opacity="0.03529412" />
	</g>
	<g>
        <path d="M14.5 65.5C 16.341 67.8485 17.6743 70.5152 18.5 73.5C 16.127 71.4208 14.7936 68.7541 14.5 65.5z" stroke="none" fill="#1C2826" fill-rule="nonzero" fill-opacity="0.03137255" />
	</g>
	<g>
        <path d="M21.5 77.5C 23.5 78.8333 25.1667 80.5 26.5 82.5C 23.8333 81.8333 22.1667 80.1667 21.5 77.5z" stroke="none" fill="#253633" fill-rule="nonzero" fill-opacity="0.27450982" />
	</g>
	<g>
        <path d="M82.5 77.5C 82.2624 79.4044 81.2624 80.7377 79.5 81.5C 79.7376 79.5956 80.7376 78.2623 82.5 77.5z" stroke="none" fill="#153730" fill-rule="nonzero" fill-opacity="0.24313726" />
	</g>
</g>
</svg>