<?xml version="1.0" encoding="UTF-8"?>
<svg xmlns="http://www.w3.org/2000/svg" xmlns:xlink="http://www.w3.org/1999/xlink" width="12px" height="12px" viewBox="0 0 12 12" version="1.1">
<g id="surface1">
<path style=" stroke:none;fill-rule:evenodd;fill:rgb(68.627451%,69.411765%,70.196078%);fill-opacity:1;" d="M 7.089844 8.066406 C 7.089844 7.320312 7.734375 6.714844 8.527344 6.714844 C 9.324219 6.714844 9.964844 7.320312 9.964844 8.066406 C 9.964844 8.8125 9.324219 9.421875 8.527344 9.421875 C 7.734375 9.421875 7.089844 8.8125 7.089844 8.066406 Z M 8.527344 5.6875 C 7.132812 5.6875 6 6.753906 6 8.066406 C 6 9.382812 7.132812 10.449219 8.527344 10.449219 C 9.03125 10.449219 9.496094 10.308594 9.890625 10.074219 L 11.226562 11.335938 L 12 10.609375 L 10.660156 9.347656 C 10.914062 8.976562 11.058594 8.539062 11.058594 8.066406 C 11.058594 6.753906 9.925781 5.6875 8.527344 5.6875 Z M 8.527344 5.6875 "/>
<path style=" stroke:none;fill-rule:evenodd;fill:rgb(68.627451%,69.411765%,70.196078%);fill-opacity:1;" d="M 8.960938 3.410156 C 8.832031 3.355469 8.699219 3.304688 8.558594 3.257812 C 8.582031 3.117188 8.605469 2.980469 8.617188 2.851562 C 8.726562 1.835938 8.46875 1.09375 7.875 0.773438 C 7.667969 0.664062 7.433594 0.605469 7.195312 0.609375 C 6.722656 0.609375 6.167969 0.816406 5.59375 1.210938 L 5.480469 1.285156 C 5.402344 1.34375 5.328125 1.402344 5.25 1.460938 C 5.136719 1.371094 5.023438 1.285156 4.90625 1.210938 C 4.328125 0.816406 3.785156 0.613281 3.296875 0.613281 C 3.0625 0.609375 2.828125 0.664062 2.621094 0.773438 C 2.03125 1.09375 1.773438 1.835938 1.878906 2.851562 C 1.894531 2.980469 1.914062 3.117188 1.941406 3.257812 C 1.800781 3.304688 1.664062 3.355469 1.539062 3.410156 C 0.554688 3.832031 0 4.410156 0 5.050781 C 0 5.691406 0.554688 6.277344 1.542969 6.695312 C 1.667969 6.75 1.800781 6.800781 1.941406 6.847656 C 1.921875 6.941406 1.910156 7.03125 1.894531 7.121094 C 1.890625 7.164062 1.886719 7.207031 1.878906 7.25 C 1.769531 8.269531 2.03125 9.003906 2.621094 9.328125 C 2.828125 9.4375 3.0625 9.492188 3.296875 9.488281 C 3.78125 9.488281 4.328125 9.285156 4.90625 8.894531 C 5.019531 8.816406 5.132812 8.730469 5.25 8.640625 C 5.273438 8.660156 5.296875 8.675781 5.316406 8.695312 C 5.273438 8.492188 5.25 8.28125 5.25 8.066406 C 5.25 8.019531 5.25 7.972656 5.253906 7.925781 L 5.246094 7.929688 L 5.160156 7.96875 C 5.042969 8.023438 4.925781 8.074219 4.804688 8.121094 C 4.71875 8.152344 4.640625 8.179688 4.5625 8.203125 L 4.535156 8.222656 C 4.070312 8.558594 3.632812 8.742188 3.308594 8.742188 C 3.210938 8.746094 3.117188 8.722656 3.03125 8.679688 C 2.757812 8.53125 2.632812 8.089844 2.675781 7.472656 C 2.683594 7.394531 2.691406 7.3125 2.703125 7.230469 C 2.707031 7.179688 2.71875 7.128906 2.726562 7.078125 C 2.738281 6.921875 2.792969 6.585938 2.917969 6.335938 L 2.875 6.324219 L 2.871094 6.324219 C 2.816406 6.3125 2.761719 6.296875 2.707031 6.285156 L 2.683594 6.277344 C 2.574219 6.25 2.46875 6.21875 2.371094 6.1875 L 2.359375 6.1875 L 2.3125 6.167969 C 2.261719 6.152344 2.210938 6.132812 2.160156 6.117188 L 2.074219 6.085938 L 1.976562 6.050781 C 1.246094 5.761719 0.804688 5.386719 0.804688 5.050781 C 0.804688 4.753906 1.152344 4.425781 1.738281 4.15625 C 1.8125 4.121094 1.894531 4.085938 1.976562 4.054688 C 2.027344 4.035156 2.078125 4.015625 2.132812 3.996094 C 2.203125 3.972656 2.273438 3.945312 2.34375 3.925781 L 2.355469 3.921875 C 2.414062 3.902344 2.476562 3.882812 2.535156 3.867188 C 2.59375 3.851562 2.632812 3.839844 2.683594 3.828125 L 2.691406 3.828125 C 2.671875 3.75 2.660156 3.671875 2.65625 3.59375 L 2.65625 3.554688 C 2.648438 3.425781 2.648438 3.300781 2.65625 3.175781 C 2.660156 3.089844 2.671875 3 2.691406 2.914062 L 2.691406 2.90625 C 2.691406 2.894531 2.691406 2.882812 2.695312 2.871094 C 2.597656 2.140625 2.722656 1.597656 3.03125 1.429688 C 3.113281 1.386719 3.210938 1.367188 3.304688 1.367188 C 3.578125 1.367188 3.929688 1.5 4.3125 1.742188 C 4.386719 1.785156 4.457031 1.835938 4.53125 1.886719 C 4.578125 1.921875 4.628906 1.960938 4.675781 1.996094 L 4.675781 2 L 5.03125 2.207031 C 5.054688 2.167969 5.085938 2.132812 5.117188 2.101562 C 5.171875 2.042969 5.234375 1.996094 5.300781 1.953125 C 5.355469 1.921875 5.414062 1.894531 5.472656 1.878906 C 5.492188 1.871094 5.507812 1.867188 5.523438 1.863281 C 5.578125 1.851562 5.636719 1.84375 5.695312 1.84375 L 5.703125 1.84375 C 5.792969 1.84375 5.882812 1.859375 5.96875 1.886719 C 6.441406 1.554688 6.875 1.367188 7.195312 1.367188 C 7.292969 1.367188 7.386719 1.386719 7.472656 1.429688 C 7.746094 1.578125 7.875 2.023438 7.828125 2.636719 C 7.824219 2.71875 7.8125 2.796875 7.804688 2.882812 C 7.796875 2.933594 7.789062 2.984375 7.777344 3.035156 L 7.773438 3.035156 L 7.777344 3.035156 L 7.722656 3.324219 C 7.761719 3.339844 7.796875 3.359375 7.832031 3.382812 C 7.878906 3.417969 7.925781 3.453125 7.96875 3.496094 C 8.015625 3.546875 8.0625 3.601562 8.097656 3.660156 L 8.148438 3.738281 C 8.15625 3.757812 8.164062 3.773438 8.171875 3.789062 C 8.195312 3.839844 8.214844 3.890625 8.226562 3.945312 L 8.371094 3.992188 C 8.421875 4.011719 8.472656 4.03125 8.523438 4.050781 C 9.253906 4.339844 9.695312 4.710938 9.695312 5.046875 C 9.695312 5.089844 9.6875 5.132812 9.675781 5.175781 C 9.929688 5.265625 10.171875 5.382812 10.394531 5.527344 C 10.464844 5.375 10.5 5.214844 10.5 5.054688 C 10.5 4.410156 9.945312 3.832031 8.960938 3.410156 Z M 6.902344 5.386719 C 6.824219 5.328125 6.75 5.269531 6.671875 5.210938 C 6.417969 5.011719 6.164062 4.820312 5.914062 4.617188 C 5.640625 4.398438 5.339844 4.332031 4.960938 4.398438 C 4.609375 4.445312 4.410156 4.707031 4.25 5.003906 C 4.128906 5.226562 4.011719 5.449219 3.890625 5.675781 L 3.832031 5.785156 C 3.816406 5.816406 3.800781 5.847656 3.785156 5.878906 C 3.761719 5.925781 3.734375 5.96875 3.710938 6.015625 C 3.703125 6.035156 3.691406 6.050781 3.683594 6.070312 L 3.523438 6.363281 C 3.515625 6.378906 3.507812 6.394531 3.5 6.410156 C 3.496094 6.417969 3.488281 6.429688 3.484375 6.4375 L 3.402344 6.585938 L 3.394531 6.601562 L 3.378906 6.636719 C 3.324219 6.738281 3.285156 6.847656 3.269531 6.960938 C 3.257812 7.03125 3.257812 7.105469 3.269531 7.179688 C 3.285156 7.257812 3.3125 7.335938 3.355469 7.40625 C 3.394531 7.484375 3.449219 7.558594 3.507812 7.625 C 3.597656 7.722656 3.703125 7.804688 3.828125 7.855469 C 3.949219 7.910156 4.085938 7.9375 4.222656 7.933594 C 4.265625 7.933594 4.3125 7.925781 4.355469 7.917969 C 4.386719 7.910156 4.414062 7.902344 4.441406 7.894531 C 4.523438 7.875 4.597656 7.847656 4.675781 7.820312 C 4.789062 7.773438 4.902344 7.726562 5.011719 7.675781 L 5.128906 7.625 L 5.230469 7.582031 L 5.292969 7.554688 C 5.460938 6.625 6.066406 5.835938 6.902344 5.386719 Z M 5.195312 3.773438 C 5.140625 3.699219 5.097656 3.617188 5.0625 3.53125 C 5.039062 3.457031 5.027344 3.386719 5.023438 3.308594 C 5.019531 3.261719 5.019531 3.214844 5.023438 3.167969 C 5.027344 3.128906 5.035156 3.09375 5.042969 3.058594 L 5.046875 3.046875 C 5.050781 3.023438 5.058594 3 5.066406 2.980469 C 5.085938 2.90625 5.105469 2.835938 5.132812 2.765625 C 5.15625 2.699219 5.183594 2.632812 5.210938 2.570312 C 5.226562 2.539062 5.238281 2.511719 5.253906 2.488281 C 5.265625 2.46875 5.277344 2.445312 5.289062 2.425781 C 5.316406 2.386719 5.34375 2.34375 5.378906 2.308594 C 5.4375 2.246094 5.507812 2.199219 5.589844 2.175781 C 5.601562 2.171875 5.609375 2.167969 5.617188 2.167969 C 5.648438 2.160156 5.679688 2.15625 5.710938 2.15625 C 5.855469 2.160156 5.992188 2.214844 6.09375 2.308594 C 6.109375 2.320312 6.125 2.332031 6.136719 2.347656 L 6.148438 2.359375 C 6.160156 2.367188 6.167969 2.375 6.175781 2.386719 C 6.292969 2.515625 6.386719 2.664062 6.449219 2.824219 C 6.472656 2.875 6.492188 2.925781 6.511719 2.976562 C 6.519531 2.996094 6.519531 3.03125 6.519531 3.042969 L 6.519531 3.085938 C 6.53125 3.25 6.507812 3.414062 6.449219 3.570312 C 6.449219 3.574219 6.449219 3.578125 6.445312 3.582031 C 6.445312 3.589844 6.441406 3.597656 6.4375 3.601562 L 6.429688 3.625 C 6.425781 3.628906 6.425781 3.632812 6.421875 3.632812 C 6.417969 3.644531 6.414062 3.652344 6.410156 3.664062 C 6.402344 3.671875 6.398438 3.683594 6.394531 3.691406 L 6.378906 3.710938 C 6.375 3.722656 6.371094 3.730469 6.363281 3.738281 L 6.351562 3.757812 C 6.34375 3.769531 6.335938 3.777344 6.328125 3.785156 C 6.28125 3.847656 6.222656 3.902344 6.15625 3.949219 C 6.132812 3.964844 6.113281 3.976562 6.089844 3.992188 C 5.773438 4.167969 5.375 4.03125 5.195312 3.773438 Z M 3.394531 5.441406 L 3.390625 5.472656 L 3.390625 5.484375 C 3.367188 5.621094 3.304688 5.753906 3.203125 5.855469 C 3.160156 5.898438 3.113281 5.929688 3.058594 5.953125 L 3.046875 5.953125 L 3.035156 5.960938 C 3.027344 5.960938 3.019531 5.964844 3.011719 5.96875 C 2.941406 5.992188 2.871094 6.003906 2.796875 6.011719 C 2.679688 6.019531 2.558594 5.996094 2.453125 5.945312 C 2.382812 5.910156 2.320312 5.867188 2.265625 5.816406 C 2.21875 5.773438 2.175781 5.726562 2.136719 5.679688 C 2.117188 5.652344 2.097656 5.625 2.078125 5.597656 C 2.023438 5.496094 1.972656 5.390625 1.933594 5.28125 C 1.890625 5.011719 1.871094 4.800781 1.964844 4.59375 C 1.984375 4.554688 2.007812 4.515625 2.035156 4.480469 L 2.042969 4.46875 C 2.097656 4.40625 2.167969 4.363281 2.25 4.339844 C 2.3125 4.324219 2.378906 4.320312 2.441406 4.328125 L 2.484375 4.328125 C 2.617188 4.351562 2.742188 4.402344 2.855469 4.476562 L 2.871094 4.484375 C 2.894531 4.5 2.914062 4.511719 2.941406 4.535156 L 2.976562 4.566406 C 2.996094 4.582031 3.015625 4.601562 3.035156 4.617188 L 3.054688 4.632812 L 3.070312 4.648438 L 3.097656 4.671875 L 3.121094 4.699219 C 3.128906 4.703125 3.132812 4.710938 3.140625 4.722656 L 3.175781 4.761719 C 3.179688 4.765625 3.179688 4.765625 3.183594 4.769531 L 3.195312 4.785156 L 3.203125 4.792969 L 3.210938 4.804688 L 3.222656 4.820312 L 3.222656 4.828125 L 3.230469 4.835938 L 3.253906 4.871094 L 3.265625 4.886719 L 3.289062 4.90625 L 3.304688 4.9375 C 3.308594 4.945312 3.316406 4.953125 3.320312 4.960938 L 3.324219 4.96875 C 3.324219 4.972656 3.324219 4.972656 3.328125 4.976562 C 3.332031 4.980469 3.335938 4.988281 3.335938 4.992188 C 3.34375 5.007812 3.347656 5.019531 3.351562 5.03125 C 3.359375 5.050781 3.367188 5.066406 3.371094 5.082031 C 3.375 5.085938 3.375 5.09375 3.378906 5.097656 L 3.386719 5.121094 L 3.386719 5.144531 L 3.390625 5.164062 C 3.390625 5.171875 3.390625 5.175781 3.390625 5.183594 C 3.394531 5.195312 3.394531 5.207031 3.394531 5.21875 C 3.398438 5.226562 3.398438 5.230469 3.394531 5.234375 L 3.394531 5.265625 C 3.398438 5.269531 3.398438 5.273438 3.394531 5.277344 Z M 2.992188 3.574219 C 2.996094 3.632812 3.007812 3.691406 3.023438 3.75 C 3.042969 3.835938 3.082031 3.917969 3.128906 3.992188 C 3.152344 4.035156 3.183594 4.074219 3.214844 4.113281 C 3.234375 4.136719 3.253906 4.15625 3.277344 4.179688 L 3.304688 4.207031 C 3.339844 4.242188 3.378906 4.269531 3.417969 4.300781 C 3.429688 4.308594 3.445312 4.320312 3.460938 4.328125 L 3.480469 4.34375 L 3.5 4.355469 L 3.546875 4.378906 L 3.558594 4.378906 L 3.566406 4.382812 L 3.578125 4.386719 C 3.59375 4.394531 3.609375 4.402344 3.621094 4.40625 L 3.640625 4.410156 L 3.671875 4.421875 L 3.691406 4.421875 L 3.71875 4.425781 L 3.746094 4.433594 L 3.773438 4.433594 C 3.871094 4.441406 3.96875 4.433594 4.0625 4.40625 C 4.15625 4.378906 4.242188 4.332031 4.3125 4.269531 C 4.425781 4.179688 4.511719 4.066406 4.566406 3.933594 C 4.617188 3.804688 4.628906 3.664062 4.605469 3.527344 C 4.605469 3.523438 4.605469 3.519531 4.605469 3.515625 C 4.597656 3.484375 4.589844 3.449219 4.582031 3.414062 L 4.566406 3.367188 C 4.558594 3.351562 4.554688 3.332031 4.546875 3.316406 C 4.546875 3.3125 4.546875 3.308594 4.546875 3.304688 C 4.53125 3.261719 4.511719 3.21875 4.492188 3.175781 C 4.472656 3.136719 4.460938 3.113281 4.441406 3.082031 L 4.429688 3.0625 C 4.375 2.964844 4.308594 2.878906 4.230469 2.796875 L 4.222656 2.792969 C 4.175781 2.742188 4.121094 2.691406 4.0625 2.648438 C 4.019531 2.617188 3.972656 2.589844 3.925781 2.5625 C 3.84375 2.519531 3.761719 2.488281 3.671875 2.464844 C 3.5625 2.4375 3.445312 2.445312 3.339844 2.488281 C 3.238281 2.535156 3.152344 2.613281 3.105469 2.710938 C 3.066406 2.785156 3.035156 2.867188 3.019531 2.949219 L 3.019531 2.957031 C 3.003906 3.03125 2.996094 3.105469 2.992188 3.179688 C 2.984375 3.292969 2.984375 3.40625 2.992188 3.519531 L 2.992188 3.542969 C 2.992188 3.558594 2.992188 3.566406 2.992188 3.574219 Z M 7.863281 3.929688 C 7.84375 3.894531 7.828125 3.863281 7.804688 3.832031 C 7.761719 3.761719 7.703125 3.699219 7.632812 3.652344 C 7.566406 3.609375 7.488281 3.585938 7.410156 3.589844 C 7.328125 3.589844 7.25 3.617188 7.1875 3.664062 C 7.175781 3.671875 7.164062 3.679688 7.152344 3.691406 C 7.136719 3.703125 7.121094 3.714844 7.109375 3.726562 C 7.078125 3.753906 7.046875 3.785156 7.023438 3.8125 C 6.953125 3.886719 6.894531 3.964844 6.847656 4.046875 C 6.835938 4.074219 6.820312 4.101562 6.808594 4.128906 C 6.769531 4.226562 6.742188 4.332031 6.734375 4.4375 C 6.730469 4.496094 6.730469 4.554688 6.734375 4.613281 C 6.742188 4.691406 6.769531 4.769531 6.808594 4.839844 C 6.847656 4.910156 6.902344 4.972656 6.96875 5.019531 C 7 5.042969 7.03125 5.0625 7.0625 5.078125 L 7.089844 5.089844 C 7.121094 5.101562 7.148438 5.113281 7.179688 5.121094 C 7.214844 5.132812 7.25 5.136719 7.285156 5.136719 C 7.308594 5.136719 7.335938 5.136719 7.359375 5.136719 C 7.480469 5.121094 7.589844 5.078125 7.683594 5.007812 C 7.714844 4.984375 7.742188 4.957031 7.769531 4.929688 C 7.78125 4.917969 7.792969 4.902344 7.804688 4.886719 C 7.816406 4.875 7.835938 4.847656 7.847656 4.828125 C 7.921875 4.71875 7.960938 4.59375 7.96875 4.464844 L 7.96875 4.433594 C 7.96875 4.386719 7.964844 4.339844 7.957031 4.292969 C 7.933594 4.171875 7.902344 4.046875 7.863281 3.929688 Z M 7.863281 3.929688 "/>
</g>
</svg>
