<?xml version="1.0" encoding="UTF-8"?>
<svg xmlns="http://www.w3.org/2000/svg" xmlns:xlink="http://www.w3.org/1999/xlink" width="16px" height="16px" viewBox="0 0 16 16" version="1.1">
<defs>
<filter id="alpha" filterUnits="objectBoundingBox" x="0%" y="0%" width="100%" height="100%">
  <feColorMatrix type="matrix" in="SourceGraphic" values="0 0 0 0 1 0 0 0 0 1 0 0 0 0 1 0 0 0 1 0"/>
</filter>
<mask id="mask0">
  <g filter="url(#alpha)">
<rect x="0" y="0" width="16" height="16" style="fill:rgb(0%,0%,0%);fill-opacity:0.4;stroke:none;"/>
  </g>
</mask>
<clipPath id="clip1">
  <rect x="0" y="0" width="16" height="16"/>
</clipPath>
<g id="surface5" clip-path="url(#clip1)">
<path style=" stroke:none;fill-rule:nonzero;fill:rgb(91.764706%,9.019608%,38.823529%);fill-opacity:1;" d="M 10.136719 15.914062 L 0.0976562 10.125 L 5.886719 0.0859375 L 15.925781 5.886719 Z M 0.425781 10.027344 L 10.039062 15.585938 L 15.597656 5.972656 L 5.984375 0.414062 Z M 0.425781 10.027344 "/>
</g>
<mask id="mask1">
  <g filter="url(#alpha)">
<rect x="0" y="0" width="16" height="16" style="fill:rgb(0%,0%,0%);fill-opacity:0.701961;stroke:none;"/>
  </g>
</mask>
<clipPath id="clip2">
  <rect x="0" y="0" width="16" height="16"/>
</clipPath>
<g id="surface8" clip-path="url(#clip2)">
<path style=" stroke:none;fill-rule:nonzero;fill:rgb(91.764706%,9.019608%,38.823529%);fill-opacity:1;" d="M 5.851562 16 L 0 5.863281 L 10.148438 0 L 16.011719 10.148438 Z M 0.5 5.996094 L 5.996094 15.511719 L 15.511719 10.015625 L 10.015625 0.5 Z M 0.5 5.996094 "/>
</g>
</defs>
<g id="surface1">
<path style=" stroke:none;fill-rule:nonzero;fill:rgb(0%,0.784314%,23.137255%);fill-opacity:1;" d="M 5.925781 0.25 L 0.253906 10.078125 L 10.082031 15.75 L 15.753906 5.925781 Z M 5.925781 0.25 "/>
<use xlink:href="#surface5" mask="url(#mask0)"/>
<path style=" stroke:none;fill-rule:nonzero;fill:rgb(0%,0.784314%,23.137255%);fill-opacity:1;" d="M 10.144531 -0.0078125 L -0.0195312 5.859375 L 5.851562 16.023438 L 16.011719 10.15625 Z M 10.144531 -0.0078125 "/>
<use xlink:href="#surface8" mask="url(#mask1)"/>
<path style=" stroke:none;fill-rule:nonzero;fill:rgb(0%,0.784314%,23.137255%);fill-opacity:1;" d="M 13.679688 2.320312 L 2.332031 2.320312 L 2.332031 13.667969 L 13.679688 13.667969 Z M 13.679688 2.320312 "/>
<path style=" stroke:none;fill-rule:nonzero;fill:rgb(91.764706%,9.019608%,38.823529%);fill-opacity:1;" d="M 13.984375 13.984375 L 2.027344 13.984375 L 2.027344 2.015625 L 13.984375 2.015625 Z M 2.636719 13.375 L 13.375 13.375 L 13.375 2.625 L 2.636719 2.625 Z M 2.636719 13.375 "/>
<path style=" stroke:none;fill-rule:nonzero;fill:rgb(100%,100%,100%);fill-opacity:1;" d="M 7.207031 10.589844 L 6.386719 8.246094 L 4.75 8.246094 L 4.75 10.589844 L 4.066406 10.589844 L 4.066406 4.703125 L 6.328125 4.703125 C 6.765625 4.703125 7.097656 4.777344 7.316406 4.921875 C 7.535156 5.070312 7.683594 5.265625 7.742188 5.507812 C 7.804688 5.753906 7.839844 6.070312 7.839844 6.460938 C 7.839844 6.886719 7.792969 7.242188 7.683594 7.523438 C 7.585938 7.804688 7.363281 8 7.035156 8.109375 L 7.9375 10.589844 Z M 6.804688 7.523438 C 6.949219 7.4375 7.046875 7.316406 7.097656 7.15625 C 7.144531 7 7.167969 6.765625 7.167969 6.472656 C 7.167969 6.167969 7.144531 5.949219 7.109375 5.789062 C 7.070312 5.628906 6.972656 5.519531 6.828125 5.433594 C 6.679688 5.351562 6.460938 5.3125 6.15625 5.3125 L 4.75 5.3125 L 4.75 7.644531 L 6.105469 7.644531 C 6.414062 7.644531 6.644531 7.609375 6.804688 7.523438 Z M 6.804688 7.523438 "/>
<path style=" stroke:none;fill-rule:nonzero;fill:rgb(100%,100%,100%);fill-opacity:1;" d="M 9.074219 10.382812 C 8.878906 10.199219 8.769531 9.867188 8.769531 9.378906 C 8.769531 9.050781 8.804688 8.792969 8.878906 8.609375 C 8.953125 8.425781 9.074219 8.292969 9.246094 8.207031 C 9.417969 8.121094 9.660156 8.085938 9.980469 8.085938 C 10.136719 8.085938 10.601562 8.097656 11.371094 8.121094 L 11.371094 7.828125 C 11.371094 7.476562 11.347656 7.21875 11.285156 7.070312 C 11.222656 6.925781 11.125 6.828125 10.96875 6.777344 C 10.820312 6.742188 10.566406 6.71875 10.199219 6.71875 C 10.039062 6.71875 9.832031 6.730469 9.601562 6.742188 C 9.355469 6.753906 9.160156 6.777344 9.015625 6.804688 L 9.015625 6.277344 C 9.417969 6.191406 9.882812 6.15625 10.40625 6.15625 C 10.859375 6.15625 11.199219 6.203125 11.433594 6.300781 C 11.652344 6.398438 11.8125 6.570312 11.894531 6.804688 C 11.980469 7.035156 12.019531 7.378906 12.019531 7.828125 L 12.019531 10.578125 L 11.433594 10.578125 L 11.394531 9.964844 L 11.359375 9.964844 C 11.261719 10.234375 11.089844 10.417969 10.859375 10.503906 C 10.625 10.589844 10.355469 10.636719 10.050781 10.636719 C 9.601562 10.648438 9.28125 10.566406 9.074219 10.382812 Z M 10.882812 10.015625 C 11.027344 9.964844 11.152344 9.867188 11.222656 9.722656 C 11.335938 9.503906 11.382812 9.195312 11.382812 8.832031 L 11.382812 8.585938 L 10.160156 8.585938 C 9.953125 8.585938 9.796875 8.609375 9.699219 8.648438 C 9.601562 8.683594 9.527344 8.757812 9.488281 8.867188 C 9.453125 8.976562 9.429688 9.136719 9.429688 9.355469 C 9.429688 9.574219 9.453125 9.734375 9.503906 9.832031 C 9.550781 9.929688 9.636719 10.003906 9.746094 10.050781 C 9.867188 10.089844 10.050781 10.113281 10.296875 10.113281 C 10.527344 10.089844 10.722656 10.0625 10.882812 10.015625 Z M 10.882812 10.015625 "/>
</g>
</svg>
