<svg width="16" height="16" viewBox="0 0 16 16" fill="none" xmlns="http://www.w3.org/2000/svg">
<path d="M5.16754 8.74006L5.17544 8.6861C5.17536 8.66724 5.17536 8.64838 5.17544 8.62952C5.17544 8.62163 5.17544 8.61373 5.17544 8.60452C5.17544 8.59531 5.17544 8.58873 5.17544 8.57952C5.17544 8.55057 5.17544 8.5203 5.17544 8.48872C5.17544 8.48082 5.17544 8.47161 5.17544 8.46372C5.17544 8.45582 5.17544 8.43477 5.17544 8.42161C5.17607 8.41417 5.17607 8.40668 5.17544 8.39924C5.17544 8.38345 5.17544 8.36766 5.17544 8.35187C5.17608 8.34398 5.17608 8.33606 5.17544 8.32818C5.17544 8.30844 5.17544 8.2887 5.16622 8.26897C5.1656 8.25801 5.1656 8.24703 5.16622 8.23607L5.15833 8.20317V8.16896L5.14649 8.1308C5.14446 8.12142 5.14183 8.11219 5.13859 8.10316C5.12938 8.07684 5.12017 8.05184 5.10964 8.02552C5.10155 8.00357 5.09232 7.98205 5.08201 7.96105C5.08201 7.94789 5.07016 7.93473 5.06358 7.92157C5.05701 7.90841 5.04648 7.88604 5.03595 7.86762L5.00963 7.81893L4.97542 7.78998L4.957 7.76103L4.92015 7.70576L4.91094 7.69129V7.68339L4.89383 7.65839L4.87804 7.63602L4.87146 7.62681L4.85041 7.59917C4.84734 7.59404 4.84382 7.5892 4.83988 7.5847L4.78725 7.52022C4.77654 7.50689 4.76512 7.49415 4.75303 7.48206L4.7175 7.44258L4.67934 7.4031L4.65302 7.37679L4.62539 7.35047C4.57933 7.30704 4.53196 7.26494 4.48196 7.21888C4.43195 7.17282 4.39511 7.15177 4.35037 7.1215C4.17983 7.00434 3.98736 6.92287 3.78453 6.88201H3.72268C3.6241 6.86895 3.52389 6.87566 3.42792 6.90175C3.30409 6.93818 3.19464 7.01222 3.11474 7.11361L3.1029 7.1294C3.05985 7.18614 3.02404 7.24802 2.99631 7.31362C2.85156 7.64786 2.88051 7.99131 2.94894 8.42424C3.008 8.60189 3.08149 8.77441 3.16869 8.94007C3.19633 8.98613 3.22528 9.03087 3.25817 9.07166C3.31627 9.15109 3.38145 9.22509 3.45293 9.29273C3.53739 9.3751 3.63308 9.4451 3.73716 9.50065C3.8999 9.58269 4.08169 9.6195 4.26352 9.60723C4.3746 9.59938 4.48402 9.5759 4.58855 9.53749C4.60015 9.53413 4.61157 9.53018 4.62276 9.52565L4.64513 9.51644H4.66224C4.74397 9.47797 4.818 9.4249 4.88068 9.35985C5.03399 9.19063 5.133 8.97931 5.16491 8.75322L5.16754 8.74006Z" fill="#AFB1B3"/>
<path d="M7.7164 5.59243C7.76635 5.7316 7.83308 5.86417 7.9151 5.9872C8.19144 6.40434 8.79807 6.62541 9.27837 6.33986C9.3139 6.31749 9.34812 6.29512 9.38101 6.27011C9.48185 6.19656 9.57064 6.10777 9.64419 6.00693C9.65604 5.99246 9.66656 5.97667 9.67709 5.96088L9.69683 5.93061C9.70604 5.91614 9.71525 5.90166 9.72315 5.88719L9.74157 5.85429C9.75076 5.83964 9.75869 5.82423 9.76526 5.80823C9.77315 5.79244 9.78105 5.77665 9.78763 5.76086C9.7912 5.75544 9.79428 5.74972 9.79684 5.74375L9.80473 5.72533C9.81131 5.70823 9.81789 5.69375 9.82316 5.67664C9.82614 5.67128 9.82835 5.66552 9.82974 5.65954C9.91863 5.40639 9.95359 5.13746 9.93237 4.87C9.93237 4.84763 9.93237 4.82657 9.93237 4.80552C9.93237 4.78447 9.93237 4.73051 9.92053 4.69367C9.89158 4.61208 9.86132 4.52918 9.82842 4.44628C9.73228 4.18722 9.59056 3.94746 9.40996 3.73833C9.39154 3.71727 9.37049 3.69622 9.35075 3.67516C9.33101 3.65411 9.30732 3.63306 9.28495 3.61463C9.12865 3.46342 8.92197 3.37531 8.70464 3.36724C8.65582 3.36745 8.60721 3.37363 8.55989 3.38567C8.5464 3.3884 8.53319 3.39236 8.52042 3.39751C8.39558 3.4393 8.28424 3.51383 8.19802 3.61332C8.14514 3.67294 8.09841 3.73775 8.05854 3.80675C8.04012 3.83834 8.02301 3.87123 8.0059 3.90413C7.98397 3.94624 7.96291 3.9901 7.94274 4.03572C7.89651 4.1388 7.85566 4.24422 7.82036 4.35154C7.78088 4.46602 7.74799 4.58182 7.71772 4.69893C7.70588 4.74236 7.69535 4.7871 7.68482 4.83052C7.67209 4.88742 7.66242 4.94497 7.65587 5.0029C7.64863 5.08037 7.64863 5.15835 7.65587 5.23582C7.66065 5.35679 7.68099 5.47665 7.7164 5.59243Z" fill="#AFB1B3"/>
<path d="M4.56089 5.66349C4.56721 5.7593 4.58173 5.85439 4.60432 5.94772C4.6392 6.08634 4.6937 6.21927 4.76617 6.34249C4.80564 6.40985 4.8496 6.47447 4.89776 6.53593C4.92803 6.57277 4.95961 6.6083 4.99251 6.64383L5.03856 6.68989C5.09198 6.74205 5.1482 6.79125 5.207 6.83727C5.22762 6.85421 5.24914 6.87003 5.27148 6.88464L5.30569 6.90832L5.33464 6.92543L5.36754 6.94517L5.4057 6.96491H5.42017L5.43333 6.9728L5.45307 6.98201C5.47496 6.99234 5.49736 7.00157 5.52018 7.00965L5.54518 7.01886L5.59782 7.03465H5.62282L5.66493 7.04518L5.70572 7.05307H5.75046C5.89856 7.06961 6.04847 7.05472 6.19042 7.00937C6.33236 6.96402 6.46315 6.88923 6.57422 6.78989C6.74622 6.64539 6.87775 6.4587 6.95595 6.24811C7.03414 6.03751 7.05632 5.81022 7.02031 5.58848C7.01967 5.58235 7.01967 5.57618 7.02031 5.57006C7.00846 5.51479 6.9953 5.45952 6.98083 5.40689L6.95714 5.32662C6.94925 5.3003 6.94004 5.27398 6.93082 5.24766C6.93139 5.24065 6.93139 5.23361 6.93082 5.22661C6.90582 5.15555 6.87687 5.08712 6.84661 5.02001C6.81634 4.9529 6.7966 4.91474 6.76897 4.86474L6.75055 4.83184C6.66517 4.67868 6.56275 4.53565 6.44526 4.40549L6.43736 4.39628C6.36236 4.31321 6.28049 4.23661 6.19261 4.16731C6.12508 4.11483 6.05384 4.06734 5.97943 4.02519C5.85924 3.95477 5.72932 3.90245 5.59387 3.86992C5.42692 3.82222 5.24841 3.8358 5.09059 3.9082C4.93277 3.98059 4.80603 4.10703 4.73327 4.26469C4.6704 4.38591 4.62605 4.51587 4.60168 4.65024C4.60168 4.65024 4.60168 4.65814 4.60168 4.66209C4.57929 4.78207 4.56478 4.90339 4.55826 5.02528C4.54708 5.20845 4.54708 5.39214 4.55826 5.57532C4.55958 5.62401 4.55958 5.64375 4.56089 5.66349Z" fill="#AFB1B3"/>
<path d="M11.2851 9.23747L11.2128 9.17562C11.0812 9.05982 10.9364 8.94403 10.7969 8.82823L10.5245 8.60321C10.014 8.18475 9.50603 7.77682 9.01257 7.3531C8.59543 7.00044 8.1375 6.89122 7.55851 7.00044C7.02293 7.07545 6.71896 7.49654 6.47421 7.97816C6.26103 8.39924 6.05049 8.82296 5.83994 9.24537C5.7781 9.36906 5.71756 9.49275 5.65572 9.61513C5.63993 9.6454 5.62545 9.67435 5.61098 9.70461L5.37148 10.181C5.35043 10.2204 5.33069 10.2612 5.30964 10.302L5.18726 10.5402L5.1741 10.5665L5.14646 10.6244C5.06337 10.7879 5.0078 10.964 4.98198 11.1455C4.96359 11.2624 4.96359 11.3813 4.98198 11.4982C5.0068 11.6275 5.05024 11.7525 5.11094 11.8693C5.17424 11.997 5.25386 12.116 5.3478 12.2232C5.47976 12.3823 5.6456 12.5099 5.8332 12.5966C6.02081 12.6834 6.22542 12.7271 6.4321 12.7246C6.50169 12.7203 6.5708 12.7102 6.63869 12.6943C6.68212 12.6838 6.72423 12.672 6.77028 12.6588C6.88995 12.6239 7.00767 12.5826 7.12294 12.5351C7.29664 12.4641 7.46771 12.3838 7.63746 12.3035L7.8151 12.2206L7.96907 12.1509L8.0875 12.1009C8.29364 12.0114 8.50898 11.9447 8.72965 11.9022C8.85116 11.8795 8.9745 11.868 9.0981 11.8679C9.21478 11.8679 9.3319 11.8679 9.44945 11.8679C9.59157 11.8679 9.735 11.8772 9.87712 11.8837C10.0192 11.8903 10.1271 11.8982 10.2508 11.9074C10.486 11.9248 10.7221 11.8877 10.9407 11.7992C11.1593 11.7106 11.3546 11.573 11.5115 11.3969C11.6111 11.2864 11.6924 11.1607 11.7523 11.0245C11.7523 11.01 11.7641 10.9968 11.7694 10.9824L11.7865 10.9416C11.8075 10.8837 11.826 10.8284 11.8418 10.7718C11.8754 10.6496 11.8935 10.5236 11.8957 10.3968C11.8975 10.2801 11.8838 10.1637 11.8549 10.0507C11.7874 9.80689 11.6572 9.58502 11.4772 9.40722C11.4378 9.36643 11.3943 9.32695 11.3457 9.28747L11.2851 9.23747Z" fill="#AFB1B3"/>
<path d="M11.9799 6.23722C11.955 6.18296 11.9269 6.13023 11.8957 6.07931C11.8293 5.96537 11.7396 5.86672 11.6325 5.78981C11.5327 5.71904 11.4125 5.68281 11.2901 5.68661C11.1678 5.69041 11.0501 5.73404 10.9548 5.81087C10.9364 5.82403 10.918 5.83718 10.8996 5.85298C10.8755 5.87124 10.8527 5.89102 10.8311 5.91219C10.785 5.95646 10.7411 6.00301 10.6995 6.05168C10.5961 6.1663 10.5076 6.29365 10.4364 6.43066C10.4153 6.47408 10.3956 6.5175 10.3772 6.56224C10.3135 6.72112 10.2748 6.88892 10.2627 7.05965C10.2554 7.15514 10.2554 7.25104 10.2627 7.34652C10.2747 7.47484 10.3128 7.59936 10.3746 7.71248C10.4363 7.8256 10.5205 7.92495 10.6219 8.00447C10.6659 8.0394 10.7131 8.07024 10.7627 8.09658L10.8035 8.11764C10.8487 8.13846 10.8953 8.15605 10.943 8.17027C10.994 8.18443 11.0466 8.19195 11.0996 8.19264C11.1386 8.19591 11.1777 8.19591 11.2167 8.19264C11.3968 8.16835 11.5669 8.09558 11.7088 7.9821C11.7565 7.94557 11.8006 7.9046 11.8404 7.85972C11.8602 7.83735 11.8773 7.81498 11.8944 7.79129C11.9115 7.76761 11.9404 7.7255 11.9602 7.6926C12.0686 7.51523 12.1306 7.31338 12.1405 7.10571C12.1405 7.08992 12.1405 7.07281 12.1405 7.05702C12.1419 6.98077 12.1361 6.90456 12.1233 6.82937C12.0906 6.62864 12.0427 6.43068 11.9799 6.23722Z" fill="#AFB1B3"/>
<path fill-rule="evenodd" clip-rule="evenodd" d="M13.0405 5.14897C13.2564 5.22705 13.4608 5.30995 13.6538 5.39768C15.1565 6.07931 16 7.01886 16 8.05842C16 9.09798 15.1565 10.0415 13.6511 10.7192C13.4581 10.806 13.2537 10.8889 13.0379 10.9679C13.0655 11.1205 13.0879 11.2692 13.1077 11.414C13.1106 11.4432 13.1147 11.4703 13.1187 11.4964C13.1252 11.5394 13.1313 11.5798 13.1313 11.6232C13.3011 13.2746 12.9024 14.4589 11.9997 14.9853C11.684 15.1634 11.3265 15.2543 10.9641 15.2485C10.2403 15.2485 9.39814 14.9142 8.52175 14.28C8.46561 14.2352 8.40903 14.1914 8.352 14.1484C8.23489 14.0589 8.11777 13.9655 8.00066 13.8668C7.8217 14.0115 7.64668 14.151 7.4743 14.2747C6.59528 14.909 5.761 15.2406 5.02541 15.2406C4.66519 15.2452 4.31015 15.1544 3.99638 14.9774C3.09368 14.4563 2.69496 13.2667 2.86603 11.614C2.87217 11.5456 2.88006 11.4758 2.88971 11.4047C2.90813 11.2626 2.9305 11.1153 2.95814 10.9652C2.74365 10.8876 2.541 10.806 2.34888 10.7192C0.84349 10.0402 0 9.08877 0 8.05316C0 7.01755 0.84349 6.07931 2.34493 5.39899C2.53793 5.31127 2.74233 5.22836 2.95814 5.15029C2.91866 4.92264 2.88708 4.7042 2.86603 4.49234C2.70154 2.85142 3.09631 1.65 3.99638 1.13022C4.31004 0.952919 4.66515 0.862097 5.02541 0.867042C5.76495 0.867042 6.59659 1.19865 7.47561 1.83423C7.65326 1.95792 7.82696 2.09477 8.00198 2.24215C8.11777 2.14478 8.23489 2.05003 8.35332 1.95924L8.52307 1.83423C9.40077 1.19865 10.2416 0.86441 10.9667 0.86441C11.3287 0.858464 11.6858 0.949321 12.001 1.12759C12.9024 1.64737 13.2971 2.84878 13.1327 4.49102C13.1116 4.7042 13.08 4.92395 13.0405 5.14897ZM12.9866 9.66513C13.1142 9.61118 13.2353 9.55591 13.3511 9.50065C14.2472 9.06772 14.7723 8.53873 14.7723 8.0479C14.7723 7.50443 14.1038 6.90175 12.9866 6.43592C12.909 6.40303 12.8314 6.37278 12.7538 6.34252L12.5379 6.26354C12.5167 6.17745 12.4881 6.09335 12.4523 6.0122C12.4405 5.98458 12.4274 5.95828 12.4142 5.93197L12.3405 5.80034C12.2831 5.70626 12.2166 5.6181 12.1418 5.53716C12.0785 5.46922 12.0084 5.40793 11.9326 5.35425C11.8804 5.3175 11.8253 5.28564 11.768 5.25891L11.8494 4.79303L11.8456 4.78779C11.8482 4.78844 11.8509 4.78908 11.8536 4.78973C11.8668 4.70815 11.8786 4.62525 11.8905 4.54103C11.9071 4.40681 11.9203 4.27522 11.9299 4.14626C11.9984 3.15144 11.8023 2.43296 11.3865 2.19215C11.2568 2.12265 11.1112 2.08818 10.9641 2.09214C10.4732 2.09214 9.81396 2.3948 9.09812 2.93169C8.96718 2.88495 8.82922 2.86092 8.69019 2.86063H8.67966C8.59094 2.86105 8.50258 2.8721 8.41648 2.89352C8.39148 2.9001 8.36648 2.90668 8.34016 2.91589C8.24753 2.94576 8.15909 2.98733 8.07698 3.03959C7.9736 3.10542 7.87974 3.18512 7.79801 3.27645C7.74972 3.33034 7.70516 3.3874 7.66462 3.44722L7.12206 3.11569C7.12368 3.11401 7.12529 3.11233 7.1269 3.11065C7.0519 3.0488 6.97821 2.98958 6.90452 2.93432C6.79266 2.84878 6.68213 2.76851 6.57291 2.69614C5.98997 2.304 5.45308 2.09214 5.03857 2.09214C4.89144 2.08787 4.74577 2.12236 4.61617 2.19215C4.14771 2.46323 3.95954 3.34093 4.10955 4.52524C4.09902 4.54366 4.09902 4.56208 4.09902 4.57919V4.59761C4.07367 4.7364 4.05654 4.87657 4.0477 5.01738C4.03511 5.22115 4.03511 5.42551 4.0477 5.62928V5.69639C4.05404 5.82323 4.0721 5.94922 4.10165 6.07273H4.08718C4.01217 6.09247 3.95296 6.10958 3.86216 6.13721C3.77136 6.16485 3.68057 6.1938 3.59108 6.22406L3.57398 6.23064C3.46476 6.26617 3.35554 6.30565 3.24764 6.34644C3.16868 6.37671 3.09104 6.40697 3.01472 6.43987C2.88576 6.49251 2.76339 6.54777 2.64759 6.60567C1.75409 7.04387 1.22773 7.57154 1.22773 8.05316C1.22773 8.60057 1.89621 9.20325 3.01472 9.6704L3.15947 9.7283L3.29106 9.7783C3.36738 9.80725 3.4437 9.83488 3.52134 9.8612L3.5924 9.89673H3.61477C3.76347 9.94674 3.92269 9.99542 4.08849 10.0415L4.12797 10.052C4.20956 10.0744 4.29377 10.0954 4.37799 10.1165L4.44544 10.1333C4.25466 10.5422 4.17458 11.0828 4.15703 11.3344C4.15611 11.3341 4.1552 11.3339 4.15429 11.3337C4.14114 11.4166 4.12797 11.4995 4.11744 11.5824C4.10034 11.714 4.08718 11.8456 4.07797 11.9772C4.00954 12.9733 4.20429 13.6905 4.62143 13.93C4.75031 14.0005 4.89565 14.0355 5.04252 14.0313C5.5373 14.0313 6.20051 13.7326 6.90978 13.1904L6.9532 13.1562C7.069 13.1207 7.19006 13.0773 7.32165 13.0246C7.50851 12.9483 7.68747 12.8641 7.86249 12.7812L7.99408 12.7167L8.03224 12.6996L8.17304 12.6351H8.18357L8.24147 12.6101L8.26252 12.6009L8.35746 12.5632L8.90234 13.0252L8.90565 13.0232C8.9027 13.0263 8.89974 13.0294 8.89678 13.0325C8.96126 13.0865 9.02706 13.1378 9.09285 13.1891C9.20339 13.2733 9.31261 13.351 9.4192 13.4233C10.0048 13.8168 10.543 14.03 10.9601 14.03C11.1074 14.0341 11.2532 13.9992 11.3825 13.9286C11.8352 13.6694 12.0273 12.8575 11.9089 11.7377C12.0388 11.5879 12.1445 11.4188 12.2221 11.2363L12.2444 11.1837C12.2466 11.178 12.2495 11.1723 12.2525 11.1666C12.2583 11.1552 12.2642 11.1438 12.2642 11.1324L12.2997 11.035C12.3015 11.0293 12.3033 11.0236 12.305 11.0179C12.3164 10.9818 12.3274 10.9466 12.3365 10.9113L12.3523 10.8494C12.3881 10.7052 12.4071 10.5572 12.4089 10.4086C12.4114 10.2689 12.3977 10.1294 12.3681 9.99279L12.351 9.92305C12.3465 9.90561 12.3417 9.88825 12.3366 9.87098L12.7476 9.74972L12.7484 9.74813C12.7493 9.75117 12.7502 9.75421 12.751 9.75725L12.9866 9.66513Z" fill="#AFB1B3"/>
</svg>
