<svg width="16" height="17" viewBox="0 0 16 17" fill="none" xmlns="http://www.w3.org/2000/svg">
<path fill-rule="evenodd" clip-rule="evenodd" d="M11.947 4.83098C11.7782 4.75422 11.5993 4.68169 11.4105 4.61337C11.445 4.41648 11.4727 4.22419 11.4911 4.03766C11.635 2.6007 11.2896 1.54946 10.5009 1.09466C10.2251 0.938673 9.91265 0.859173 9.59586 0.864376C8.96143 0.864376 8.22568 1.15683 7.45769 1.71297L7.30915 1.82235C7.20553 1.9018 7.10305 1.9847 7.00173 2.0699C6.84859 1.94094 6.6966 1.8212 6.54116 1.71297C5.77202 1.15683 5.04433 0.866678 4.39724 0.866678C4.08201 0.862352 3.77128 0.941821 3.49683 1.09696C2.70927 1.55177 2.36385 2.60301 2.50777 4.03881C2.52619 4.22419 2.55383 4.41533 2.58837 4.61452C2.39954 4.68284 2.22069 4.75538 2.05181 4.83214C0.738054 5.42742 0 6.24837 0 7.15453C0 8.06069 0.738054 8.89316 2.05527 9.48729C2.22337 9.56328 2.40069 9.63467 2.58837 9.7026C2.56419 9.83386 2.54462 9.96282 2.5285 10.0872C2.52005 10.1493 2.51315 10.2104 2.50777 10.2702C2.35809 11.7164 2.70697 12.7573 3.49683 13.2133C3.77138 13.3681 4.08204 13.4476 4.39724 13.4435C5.04087 13.4435 5.77087 13.1534 6.54001 12.5984C6.69085 12.4902 6.84398 12.3681 7.00058 12.2415C7.00746 12.2473 7.01435 12.253 7.02124 12.2588C7.00718 12.106 7 11.9513 7 11.7949C7 11.5998 7.01117 11.4073 7.03292 11.218L7.02821 11.2202L6.99482 11.2351L6.87968 11.2915C6.72654 11.3641 6.56995 11.4378 6.40645 11.5046C6.29131 11.5506 6.18538 11.5886 6.08405 11.6197L6.04606 11.6496C5.42545 12.124 4.84514 12.3854 4.41221 12.3854C4.2837 12.3891 4.15653 12.3585 4.04375 12.2967C3.67876 12.0872 3.50835 11.4597 3.56822 10.588C3.57628 10.4729 3.58779 10.3578 3.60276 10.2426C3.61197 10.1701 3.62349 10.0975 3.635 10.025L3.635 10.025L3.6374 10.0256C3.65276 9.80548 3.72283 9.33241 3.88976 8.9747L3.83074 8.95994L3.83065 8.95992L3.83059 8.95991C3.75695 8.94149 3.68331 8.92308 3.61197 8.90352L3.57743 8.89431C3.43235 8.85401 3.29303 8.81141 3.16292 8.76766H3.14335L3.08117 8.73657C3.01324 8.71354 2.94646 8.68936 2.87968 8.66403L2.76454 8.62028L2.63788 8.56961C1.65918 8.16086 1.07427 7.63352 1.07427 7.15453C1.07427 6.73312 1.53483 6.2714 2.31664 5.88798C2.41796 5.83732 2.52504 5.78896 2.63788 5.7429C2.70466 5.71412 2.7726 5.68763 2.84168 5.66115C2.9361 5.62546 3.03166 5.59092 3.12723 5.55983L3.1422 5.55407C3.2205 5.52759 3.29994 5.50226 3.37939 5.47808C3.45884 5.4539 3.51065 5.43893 3.57628 5.42166H3.58895C3.56309 5.31358 3.54729 5.20334 3.54174 5.09235V5.03363C3.53072 4.85533 3.53072 4.67653 3.54174 4.49823C3.54947 4.37502 3.56447 4.25237 3.58664 4.13093V4.11481C3.58664 4.09984 3.58664 4.08372 3.59585 4.0676C3.46459 3.03133 3.62925 2.26334 4.03915 2.02615C4.15255 1.96508 4.28001 1.93491 4.40875 1.93864C4.77145 1.93864 5.24122 2.12402 5.7513 2.46714C5.84686 2.53047 5.94358 2.6007 6.04145 2.67554C6.10593 2.7239 6.17041 2.77572 6.23604 2.82983L6.23181 2.83425L6.70655 3.12434C6.74201 3.07199 6.781 3.02206 6.82326 2.97491C6.89477 2.895 6.9769 2.82526 7.06736 2.76766C7.1392 2.72193 7.21659 2.68555 7.29764 2.65942C7.32067 2.65136 7.34254 2.64561 7.36442 2.63985C7.43976 2.6211 7.51707 2.61144 7.5947 2.61107H7.60391C7.72557 2.61132 7.84628 2.63235 7.96085 2.67324C8.58722 2.20347 9.16408 1.93864 9.59355 1.93864C9.72227 1.93517 9.84966 1.96534 9.96315 2.02615C10.327 2.23686 10.4986 2.86553 10.4387 3.73599C10.4302 3.84883 10.4187 3.96397 10.4041 4.08142C10.3938 4.15511 10.3834 4.22765 10.3719 4.29903L10.3649 4.29733L10.3682 4.30192L10.297 4.70956C10.3471 4.73295 10.3953 4.76083 10.441 4.79299C10.5073 4.83996 10.5687 4.89358 10.6241 4.95303C10.6895 5.02385 10.7477 5.10099 10.7979 5.18332L10.8624 5.29849C10.8739 5.32151 10.8854 5.34453 10.8958 5.36869C10.927 5.4397 10.9521 5.51328 10.9706 5.58861L11.1595 5.65772L11.1596 5.65774C11.2275 5.68421 11.2954 5.71068 11.3633 5.73945C12.1513 6.06802 12.6842 6.47441 12.8612 6.86875C13.2586 6.93774 13.6399 7.05365 13.9992 7.21056C13.9997 7.19345 14 7.17631 14 7.15914C14 6.24952 13.2619 5.42742 11.947 4.83098ZM10.1919 7.1318C10.2101 7.11936 10.2279 7.1062 10.2452 7.09235C10.2869 7.06039 10.3255 7.02454 10.3604 6.98527C10.3776 6.9657 10.3926 6.94612 10.4076 6.9254C10.4226 6.90467 10.4479 6.86783 10.4652 6.83904C10.5601 6.68384 10.6143 6.50723 10.6229 6.32551V6.28291C10.6241 6.21619 10.6191 6.1495 10.6079 6.08372C10.5793 5.90808 10.5373 5.73487 10.4824 5.56558C10.4606 5.51811 10.436 5.47197 10.4087 5.42741C10.3507 5.32771 10.2722 5.24139 10.1785 5.1741C10.0911 5.11218 9.9859 5.08047 9.87887 5.0838C9.77184 5.08712 9.66883 5.1253 9.58548 5.19253C9.56936 5.20404 9.55324 5.21555 9.53712 5.22937C9.51608 5.24535 9.49608 5.26266 9.47725 5.28118C9.43685 5.31992 9.39842 5.36065 9.36211 5.40323C9.27156 5.50353 9.19417 5.61496 9.13182 5.73484C9.1134 5.77284 9.09613 5.81083 9.08001 5.84998C9.02428 5.989 8.99049 6.13583 8.97984 6.28521C8.97351 6.36876 8.97351 6.45267 8.97984 6.53622C8.99038 6.6485 9.02369 6.75746 9.07773 6.85644C9.13178 6.95542 9.20542 7.04235 9.29417 7.11193C9.33269 7.1425 9.37393 7.16948 9.41737 7.19253L9.45307 7.21095C9.49261 7.22917 9.53339 7.24456 9.57512 7.25701C9.61976 7.26939 9.66581 7.27597 9.71213 7.27658C9.74623 7.27944 9.78051 7.27944 9.81461 7.27658C9.83661 7.27361 9.85843 7.26982 9.88004 7.26522C9.98215 7.21735 10.0861 7.17283 10.1919 7.1318ZM9.21558 7.64128L9.20897 7.63582C9.10492 7.55055 9.001 7.46577 8.89733 7.3812L8.89729 7.38117L8.89728 7.38116L8.89727 7.38115L8.89726 7.38114C8.55584 7.10262 8.21719 6.82637 7.886 6.54198C7.521 6.23341 7.12031 6.13784 6.61369 6.23341C6.14507 6.29904 5.87909 6.66749 5.66493 7.0889C5.505 7.40482 5.34675 7.72243 5.18876 8.03956L5.10995 8.19771C5.08826 8.24108 5.06676 8.28445 5.0453 8.32775L5.04519 8.32797C5.01313 8.39265 4.98115 8.45716 4.94875 8.52126C4.93494 8.54774 4.92227 8.57307 4.90961 8.59955L4.70005 9.01636C4.68899 9.0371 4.67834 9.05826 4.66761 9.07958C4.66047 9.09377 4.65329 9.10803 4.64593 9.12229L4.53885 9.3307L4.52734 9.35373L4.50316 9.40439C4.43045 9.54743 4.38182 9.70149 4.35923 9.86035C4.34314 9.96258 4.34314 10.0667 4.35923 10.1689C4.38095 10.282 4.41896 10.3914 4.47207 10.4936C4.52746 10.6054 4.59713 10.7095 4.67932 10.8034C4.79479 10.9425 4.9399 11.0542 5.10405 11.1301C5.26821 11.206 5.44725 11.2442 5.62808 11.242C5.68898 11.2383 5.74945 11.2294 5.80886 11.2156C5.84685 11.2063 5.8837 11.196 5.924 11.1845C6.02871 11.1539 6.13171 11.1178 6.23257 11.0762C6.38456 11.0141 6.53424 10.9438 6.68278 10.8736L6.83822 10.8011L6.97293 10.74L7.07656 10.6963C7.0929 10.6892 7.10931 10.6822 7.12578 10.6755C7.41364 9.41687 8.17645 8.33926 9.21558 7.64128ZM6.92572 5.34681C6.85394 5.23916 6.79556 5.12317 6.75185 5.00139C6.72087 4.90009 6.70307 4.79521 6.69889 4.68936C6.69255 4.62157 6.69255 4.55334 6.69889 4.48556C6.70462 4.43486 6.71308 4.38451 6.72422 4.33472L6.72872 4.31611L6.72872 4.31608L6.72873 4.31605L6.72874 4.31603L6.72874 4.31601L6.72874 4.316L6.72875 4.316C6.73648 4.28395 6.74434 4.25137 6.75301 4.21958C6.77949 4.11711 6.80827 4.01578 6.84281 3.91561C6.8737 3.82171 6.90945 3.72947 6.9499 3.63927C6.96755 3.59936 6.98597 3.56098 7.00516 3.52413L7.00517 3.52412C7.02013 3.49534 7.0351 3.46656 7.05122 3.43893C7.0861 3.37854 7.127 3.32184 7.17327 3.26967C7.24871 3.18262 7.34613 3.1174 7.45537 3.08084C7.46654 3.07633 7.4781 3.07287 7.48991 3.07048C7.53131 3.05995 7.57384 3.05453 7.61656 3.05436C7.80673 3.06141 7.98757 3.13851 8.12433 3.27082C8.14391 3.28694 8.16463 3.30536 8.18191 3.32379L8.19942 3.3422C8.2112 3.35448 8.22297 3.36677 8.23372 3.37905C8.39174 3.56204 8.51575 3.77184 8.59987 3.99851C8.62865 4.07105 8.65513 4.14359 8.68047 4.21498C8.69083 4.24722 8.69083 4.29442 8.69083 4.31285V4.36927C8.70939 4.60329 8.6788 4.83861 8.60102 5.06011C8.59981 5.06535 8.59787 5.07038 8.59526 5.07508C8.59208 5.08543 8.58835 5.09467 8.58444 5.10434L8.58444 5.10435L8.57914 5.11768L8.57223 5.1338C8.57 5.13902 8.5673 5.14403 8.56417 5.14877C8.55842 5.16259 8.55151 5.1764 8.5446 5.19022C8.53885 5.20422 8.53192 5.2177 8.52387 5.23052L8.50775 5.25931C8.50085 5.27197 8.49279 5.28464 8.48473 5.2973L8.46745 5.32379C8.45824 5.3376 8.44903 5.35142 8.43867 5.36408C8.37431 5.45232 8.29662 5.53001 8.20839 5.59437C8.1796 5.61624 8.14966 5.63582 8.11858 5.65539C7.69831 5.90525 7.16751 5.71181 6.92572 5.34681ZM4.52851 7.70836L4.5216 7.75557L4.5193 7.76708C4.49138 7.96492 4.40474 8.14982 4.27059 8.29788C4.21575 8.35481 4.15098 8.40124 4.07946 8.4349H4.06449L4.04491 8.44296C4.03512 8.44693 4.02513 8.45038 4.01498 8.45332C3.92352 8.48693 3.82778 8.50748 3.73058 8.51435C3.57147 8.52508 3.41241 8.49287 3.27001 8.42108C3.17894 8.37248 3.09521 8.31123 3.02131 8.23916C2.95877 8.17997 2.90174 8.11522 2.8509 8.04572C2.82212 8.01003 2.79679 7.97088 2.77261 7.93058C2.69631 7.78563 2.632 7.63467 2.58032 7.47923C2.52045 7.10041 2.49512 6.7999 2.62177 6.50744C2.64604 6.45004 2.67737 6.39589 2.71503 6.34624L2.7254 6.33242C2.79531 6.24371 2.89108 6.17893 2.99943 6.14705C3.08341 6.12422 3.17108 6.11835 3.25735 6.12977H3.31147C3.48894 6.16553 3.65735 6.23681 3.80657 6.33933L3.82906 6.35428C3.85888 6.37393 3.88658 6.39218 3.92171 6.42454L3.97095 6.4695L3.97101 6.46955C3.99703 6.49321 4.02234 6.51622 4.04722 6.53968L4.0714 6.56271L4.09442 6.58573L4.12782 6.62028L4.1589 6.65482C4.16948 6.6654 4.17947 6.67654 4.18884 6.68821L4.2349 6.74463C4.23834 6.74857 4.24142 6.7528 4.24411 6.75729L4.26253 6.78147L4.26829 6.78953L4.2821 6.80911L4.29707 6.83098V6.83789L4.30513 6.85056L4.33737 6.89892L4.35349 6.92425L4.38343 6.94958L4.40646 6.99218C4.41356 7.00462 4.42067 7.01911 4.42619 7.03036L4.4262 7.03039L4.42621 7.0304L4.42621 7.03042L4.42622 7.03044L4.43064 7.03939C4.43241 7.04293 4.43462 7.04647 4.43682 7.05002C4.44179 7.05799 4.44676 7.06596 4.44676 7.07393C4.45578 7.09231 4.46385 7.11114 4.47094 7.13035C4.48015 7.15338 4.48821 7.17526 4.49627 7.19828C4.4991 7.20618 4.50141 7.21426 4.50318 7.22246L4.51354 7.25585V7.28579L4.52045 7.31458C4.5199 7.32416 4.5199 7.33377 4.52045 7.34336C4.52851 7.36063 4.52851 7.3779 4.52851 7.39517C4.52907 7.40207 4.52907 7.409 4.52851 7.4159V7.45735C4.52906 7.46386 4.52906 7.47041 4.52851 7.47693V7.51377V7.53565V7.61509V7.63697V7.65885V7.70836ZM3.99078 5.06357C3.99631 5.1474 4.00902 5.23061 4.02878 5.31227C4.0593 5.43357 4.10699 5.54988 4.1704 5.65769C4.20494 5.71663 4.2434 5.77318 4.28554 5.82695C4.31202 5.85919 4.33966 5.89028 4.36844 5.92137L4.40874 5.96167C4.45548 6.00731 4.50468 6.05036 4.55612 6.09062C4.57416 6.10545 4.593 6.11929 4.61254 6.13207L4.64248 6.1528L4.66781 6.16777L4.6966 6.18504L4.72999 6.20231H4.74265L4.75417 6.20922L4.77144 6.21728C4.79059 6.22632 4.81019 6.23439 4.83016 6.24146L4.85204 6.24952L4.89809 6.26334H4.91997L4.95681 6.27255L4.99251 6.27946H5.03166C5.16124 6.29393 5.29241 6.2809 5.41662 6.24122C5.54082 6.20154 5.65525 6.1361 5.75244 6.04917C5.90294 5.92273 6.01803 5.75938 6.08645 5.57511C6.15487 5.39084 6.17428 5.19196 6.14277 4.99794C6.14221 4.99258 6.14221 4.98718 6.14277 4.98182C6.13241 4.93346 6.12089 4.8851 6.10823 4.83904L6.0875 4.76881C6.08059 4.74578 6.07253 4.72275 6.06447 4.69972C6.06496 4.69359 6.06496 4.68743 6.06447 4.6813C6.04259 4.61912 6.01726 4.55925 5.99078 4.50053C5.9643 4.44181 5.94703 4.40841 5.92285 4.36466L5.90673 4.33588C5.83202 4.20186 5.74241 4.07671 5.6396 3.96282L5.63269 3.95476C5.56707 3.88207 5.49543 3.81505 5.41853 3.75441C5.35945 3.7085 5.29711 3.66694 5.232 3.63006C5.12684 3.56844 5.01316 3.52266 4.89464 3.49419C4.74855 3.45246 4.59236 3.46434 4.45427 3.52769C4.31617 3.59103 4.20528 3.70167 4.14161 3.83962C4.0866 3.94569 4.04779 4.05941 4.02647 4.17698V4.18734C4.00688 4.29233 3.99418 4.39849 3.98848 4.50513C3.97869 4.66541 3.97869 4.82614 3.98848 4.98642L3.98934 5.02176L3.98934 5.02178C3.98976 5.04064 3.99002 5.0521 3.99078 5.06357Z" fill="#AFB1B3"/>
<path fill-rule="evenodd" clip-rule="evenodd" d="M12 7.79486C9.792 7.79486 8 9.58686 8 11.7949C8 14.0029 9.792 15.7949 12 15.7949C14.208 15.7949 16 14.0029 16 11.7949C16 9.58686 14.208 7.79486 12 7.79486ZM11.6 14.9669C10.02 14.7709 8.8 13.4269 8.8 11.7949C8.8 11.5469 8.832 11.3109 8.884 11.0789L10.8 12.9949V13.3949C10.8 13.8349 11.16 14.1949 11.6 14.1949V14.9669ZM14.36 13.9509C14.256 13.6269 13.96 13.3949 13.6 13.3949H13.2V12.1949C13.2 11.9749 13.02 11.7949 12.8 11.7949H10.4V10.9949H11.2C11.42 10.9949 11.6 10.8149 11.6 10.5949V9.79486H12.4C12.84 9.79486 13.2 9.43486 13.2 8.99486V8.83086C14.372 9.30686 15.2 10.4549 15.2 11.7949C15.2 12.6269 14.88 13.3829 14.36 13.9509Z" fill="#AFB1B3"/>
</svg>
