<?xml version="1.0" encoding="UTF-8"?>
<svg xmlns="http://www.w3.org/2000/svg" xmlns:xlink="http://www.w3.org/1999/xlink" width="16px" height="16px" viewBox="0 0 16 16" version="1.1">
<g id="surface1">
<path style=" stroke:none;fill-rule:nonzero;fill:rgb(68.627451%,69.411765%,70.196078%);fill-opacity:1;" d="M 11.140625 0.164062 L 11.058594 1.972656 C 11.058594 2.066406 11.171875 2.128906 11.253906 2.066406 L 11.960938 1.535156 L 12.558594 2 C 12.640625 2.054688 12.742188 2 12.746094 1.902344 L 12.679688 0.0664062 L 13.566406 0 C 14.023438 -0.0273438 14.417969 0.335938 14.417969 0.796875 L 14.417969 15.203125 C 14.417969 15.660156 14.035156 16.023438 13.578125 16 L 2.847656 15.519531 C 2.433594 15.5 2.097656 15.164062 2.082031 14.746094 L 1.582031 1.546875 C 1.558594 1.105469 1.890625 0.726562 2.335938 0.703125 L 11.128906 0.148438 Z M 9.097656 6.203125 C 9.097656 6.515625 11.203125 6.359375 11.484375 6.148438 C 11.484375 4.015625 10.339844 2.890625 8.25 2.890625 C 6.148438 2.890625 4.984375 4.039062 4.984375 5.75 C 4.984375 8.714844 8.984375 8.769531 8.984375 10.390625 C 8.984375 10.855469 8.773438 11.121094 8.285156 11.121094 C 7.644531 11.121094 7.382812 10.796875 7.417969 9.683594 C 7.417969 9.441406 4.984375 9.359375 4.910156 9.683594 C 4.726562 12.371094 6.394531 13.148438 8.304688 13.148438 C 10.164062 13.148438 11.621094 12.152344 11.621094 10.359375 C 11.621094 7.183594 7.554688 7.269531 7.554688 5.695312 C 7.554688 5.046875 8.035156 4.964844 8.308594 4.964844 C 8.609375 4.964844 9.140625 5.015625 9.101562 6.210938 Z M 9.097656 6.203125 "/>
</g>
</svg>
