<svg width="48" height="48" viewBox="0 0 48 48" fill="none" xmlns="http://www.w3.org/2000/svg">
<path d="M42.1415 48H17.8585C16.3047 48 14.8146 47.3828 13.7159 46.2841C12.6172 45.1854 12 43.6953 12 42.1415V35.8585C12 35.0891 12.1515 34.3273 12.446 33.6165C12.7404 32.9057 13.1719 32.2599 13.7159 31.7159C14.2599 31.1719 14.9058 30.7404 15.6165 30.446C16.3273 30.1515 17.0892 30 17.8585 30H42.1415C43.6953 30 45.1854 30.6172 46.2841 31.7159C47.3828 32.8146 48 34.3047 48 35.8585V42.1415C48 43.6953 47.3828 45.1854 46.2841 46.2841C45.1854 47.3828 43.6953 48 42.1415 48Z" fill="#8F38E6"/>
<path d="M24.0765 40.7075V40.6838C24.0765 40.1308 23.9389 39.7002 23.6639 39.3921C23.3888 39.0761 23.0116 38.8272 22.5322 38.6455C22.6815 38.5665 22.819 38.4717 22.9448 38.3611C23.0784 38.2505 23.1923 38.1241 23.2866 37.9819C23.3888 37.8318 23.4674 37.6659 23.5224 37.4842C23.5853 37.3025 23.6167 37.0931 23.6167 36.8561V36.8324C23.6167 36.1767 23.3731 35.6553 22.8858 35.2682C22.4065 34.8811 21.7424 34.6875 20.8937 34.6875H17.0625V42.9828H20.988C21.4516 42.9828 21.8721 42.9354 22.2493 42.8406C22.6344 42.7458 22.9605 42.6036 23.2277 42.414C23.5028 42.2244 23.711 41.9874 23.8525 41.7029C24.0018 41.4185 24.0765 41.0867 24.0765 40.7075ZM21.8131 37.1642C21.8131 37.4723 21.6952 37.6975 21.4595 37.8397C21.2237 37.974 20.9054 38.0412 20.5046 38.0412H18.8307V36.2873H20.6225C21.0076 36.2873 21.3023 36.3624 21.5066 36.5125C21.711 36.6547 21.8131 36.864 21.8131 37.1405V37.1642ZM22.2729 40.4824C22.2729 40.7905 22.1589 41.0196 21.931 41.1697C21.7031 41.3119 21.3888 41.383 20.988 41.383H18.8307V39.558H20.929C21.4005 39.558 21.7424 39.641 21.9546 39.8069C22.1668 39.9649 22.2729 40.1821 22.2729 40.4587V40.4824Z" fill="white" fill-opacity="0.86"/>
<path d="M31.2752 39.9846V39.9609C31.2752 39.5106 31.2124 39.0801 31.0866 38.6692C30.9687 38.2505 30.7801 37.8832 30.5208 37.5672C30.2693 37.2432 29.951 36.9865 29.566 36.7969C29.1809 36.6073 28.7251 36.5125 28.1985 36.5125C27.7349 36.5125 27.3105 36.5994 26.9254 36.7732C26.5482 36.947 26.222 37.184 25.947 37.4842C25.6719 37.7844 25.4558 38.136 25.2986 38.5389C25.1493 38.9418 25.0747 39.3684 25.0747 39.8187V39.8424C25.0747 40.3323 25.1572 40.7786 25.3222 41.1815C25.4873 41.5765 25.7152 41.9202 26.0059 42.2125C26.3046 42.5048 26.6543 42.73 27.0551 42.888C27.4637 43.046 27.9038 43.125 28.3754 43.125C28.949 43.125 29.4481 43.0223 29.8724 42.8169C30.2968 42.6036 30.6583 42.3113 30.957 41.94L29.9314 41.0275C29.6799 41.2566 29.4363 41.4225 29.2005 41.5252C28.9648 41.6279 28.6976 41.6792 28.3989 41.6792C27.9981 41.6792 27.6602 41.5765 27.3851 41.3711C27.1179 41.1578 26.9411 40.8458 26.8547 40.435H31.2517C31.2595 40.3481 31.2634 40.273 31.2634 40.2098C31.2713 40.1466 31.2752 40.0715 31.2752 39.9846ZM29.5306 39.3092H26.8311C26.9018 38.8983 27.0511 38.5705 27.2791 38.3256C27.5148 38.0807 27.8213 37.9582 28.1985 37.9582C28.5758 37.9582 28.8783 38.0846 29.1062 38.3374C29.3341 38.5823 29.4756 38.9062 29.5306 39.3092Z" fill="white" fill-opacity="0.86"/>
<path d="M36.1588 42.7221V41.2763C35.8838 41.4264 35.5891 41.5015 35.2747 41.5015C34.8897 41.5015 34.6971 41.2961 34.6971 40.8853V38.1715H36.1824V36.631H34.6971V35.0075H32.9053V36.631H32.1509V38.1715H32.9053V41.1815C32.9053 41.5528 32.9485 41.861 33.035 42.1059C33.1293 42.3429 33.255 42.5364 33.4122 42.6865C33.5772 42.8366 33.7698 42.9393 33.9898 42.9946C34.2177 43.0578 34.4692 43.0894 34.7443 43.0894C35.0429 43.0894 35.3062 43.0539 35.5341 42.9828C35.762 42.9196 35.9702 42.8327 36.1588 42.7221Z" fill="white" fill-opacity="0.86"/>
<path d="M42.9375 42.9828V39.2973C42.9375 38.4362 42.7135 37.7647 42.2656 37.2827C41.8176 36.8008 41.1025 36.5599 40.1201 36.5599C39.5857 36.5599 39.1299 36.6073 38.7527 36.7021C38.3755 36.7969 38.014 36.9193 37.6682 37.0694L38.1161 38.4441C38.4069 38.3335 38.682 38.2505 38.9413 38.1952C39.2085 38.132 39.515 38.1004 39.8608 38.1004C40.3087 38.1004 40.6467 38.1992 40.8746 38.3967C41.1025 38.5942 41.2164 38.8825 41.2164 39.2618V39.3684C40.9885 39.2894 40.7528 39.2262 40.5091 39.1788C40.2734 39.1314 39.9944 39.1077 39.6722 39.1077C39.295 39.1077 38.9492 39.1512 38.6348 39.2381C38.3283 39.3171 38.0611 39.4395 37.8332 39.6054C37.6132 39.7713 37.4403 39.9807 37.3146 40.2335C37.1888 40.4863 37.1259 40.7865 37.1259 41.1341V41.1578C37.1259 41.4738 37.181 41.7543 37.291 41.9992C37.4089 42.2362 37.566 42.4377 37.7625 42.6036C37.959 42.7695 38.1869 42.8959 38.4462 42.9828C38.7134 43.0618 38.9963 43.1013 39.295 43.1013C39.7351 43.1013 40.1083 43.0302 40.4148 42.888C40.7213 42.7379 40.9846 42.5404 41.2046 42.2955V42.9828H42.9375ZM41.24 40.7431C41.24 41.0749 41.1103 41.3435 40.851 41.5489C40.5995 41.7543 40.2616 41.857 39.8372 41.857C39.5464 41.857 39.3107 41.7899 39.1299 41.6555C38.9492 41.5212 38.8588 41.3316 38.8588 41.0867V41.063C38.8588 40.7786 38.9688 40.5614 39.1889 40.4113C39.4089 40.2611 39.7115 40.1861 40.0966 40.1861C40.3166 40.1861 40.5209 40.2098 40.7095 40.2572C40.906 40.2967 41.0828 40.352 41.24 40.4231V40.7431Z" fill="white" fill-opacity="0.86"/>
</svg>
