<svg width="80" height="80" viewBox="0 0 80 80" fill="none" xmlns="http://www.w3.org/2000/svg">
<path d="M70.2359 80H29.7642C27.1746 80 24.691 78.9713 22.8599 77.1402C21.0287 75.3091 20 72.8255 20 70.2359V59.7641C20 58.4819 20.2526 57.2122 20.7433 56.0275C21.234 54.8429 21.9532 53.7665 22.8599 52.8598C23.7666 51.9531 24.8429 51.234 26.0276 50.7433C27.2122 50.2526 28.4819 50 29.7642 50H70.2359C72.8255 50 75.309 51.0287 77.1402 52.8598C78.9713 54.6909 80 57.1745 80 59.7641V70.2359C80 72.8255 78.9713 75.3091 77.1402 77.1402C75.309 78.9713 72.8255 80 70.2359 80Z" fill="#8F38E6"/>
<path d="M40.1274 67.8459V67.8064C40.1274 66.8847 39.8982 66.167 39.4398 65.6535C38.9814 65.1268 38.3526 64.7121 37.5537 64.4092C37.8025 64.2776 38.0317 64.1196 38.2413 63.9352C38.464 63.7509 38.6539 63.5402 38.8111 63.3032C38.9813 63.053 39.1123 62.7765 39.204 62.4737C39.3088 62.1708 39.3612 61.8219 39.3612 61.4269V61.3874C39.3612 60.2945 38.9552 59.4255 38.1431 58.7803C37.3441 58.1351 36.2373 57.8125 34.8228 57.8125H28.4375V71.638H34.9799C35.7527 71.638 36.4534 71.559 37.0821 71.401C37.7239 71.243 38.2675 71.006 38.7128 70.69C39.1713 70.3739 39.5184 69.9789 39.7541 69.5049C40.003 69.0309 40.1274 68.4779 40.1274 67.8459ZM36.3552 61.9404C36.3552 62.4539 36.1587 62.8292 35.7658 63.0662C35.3729 63.29 34.8424 63.4019 34.1744 63.4019H31.3845V60.4788H34.3709C35.0127 60.4788 35.5038 60.6039 35.8444 60.8541C36.1849 61.0911 36.3552 61.44 36.3552 61.9009V61.9404ZM37.1214 67.4706C37.1214 67.9841 36.9315 68.366 36.5517 68.6161C36.1718 68.8531 35.6479 68.9716 34.9799 68.9716H31.3845V65.93H34.8817C35.6676 65.93 36.2373 66.0683 36.591 66.3448C36.9446 66.6081 37.1214 66.9702 37.1214 67.4311V67.4706Z" fill="white" fill-opacity="0.86"/>
<path d="M52.1254 66.6411V66.6016C52.1254 65.851 52.0206 65.1334 51.811 64.4487C51.6146 63.7509 51.3002 63.1386 50.868 62.6119C50.4489 62.0721 49.9184 61.6441 49.2766 61.3281C48.6348 61.0121 47.8751 60.8541 46.9976 60.8541C46.2248 60.8541 45.5175 60.9989 44.8757 61.2886C44.247 61.5783 43.7034 61.9733 43.245 62.4737C42.7866 62.974 42.4264 63.56 42.1644 64.2315C41.9155 64.903 41.7911 65.614 41.7911 66.3646V66.4041C41.7911 67.2204 41.9286 67.9644 42.2037 68.6359C42.4788 69.2942 42.8586 69.867 43.3432 70.3542C43.8409 70.8414 44.4238 71.2166 45.0918 71.48C45.7729 71.7433 46.5064 71.875 47.2923 71.875C48.2484 71.875 49.0801 71.7038 49.7874 71.3615C50.4947 71.006 51.0972 70.5188 51.5949 69.8999L49.8856 68.3791C49.4665 68.761 49.0605 69.0375 48.6675 69.2087C48.2746 69.3798 47.8293 69.4654 47.3315 69.4654C46.6636 69.4654 46.1003 69.2942 45.6419 68.9519C45.1966 68.5964 44.9019 68.0763 44.7578 67.3916H52.0861C52.0992 67.2468 52.1058 67.1217 52.1058 67.0163C52.1188 66.911 52.1254 66.7859 52.1254 66.6411ZM49.2177 65.5153H44.7185C44.8364 64.8306 45.0852 64.2841 45.4651 63.876C45.858 63.4678 46.3688 63.2637 46.9976 63.2637C47.6263 63.2637 48.1305 63.4744 48.5104 63.8957C48.8902 64.3039 49.126 64.8438 49.2177 65.5153Z" fill="white" fill-opacity="0.86"/>
<path d="M60.2648 71.2035V68.7939C59.8063 69.0441 59.3151 69.1692 58.7912 69.1692C58.1494 69.1692 57.8285 68.8268 57.8285 68.1421V63.6192H60.304V61.0516H57.8285V58.3458H54.8422V61.0516H53.5848V63.6192H54.8422V68.6359C54.8422 69.2547 54.9142 69.7683 55.0583 70.1764C55.2155 70.5715 55.4251 70.894 55.687 71.1442C55.9621 71.3944 56.283 71.5656 56.6497 71.6577C57.0296 71.7631 57.4487 71.8157 57.9071 71.8157C58.4048 71.8157 58.8436 71.7565 59.2235 71.638C59.6033 71.5327 59.9504 71.3878 60.2648 71.2035Z" fill="white" fill-opacity="0.86"/>
<path d="M71.5625 71.638V65.4955C71.5625 64.0603 71.1892 62.9411 70.4426 62.1379C69.696 61.3347 68.5041 60.9331 66.8669 60.9331C65.9762 60.9331 65.2165 61.0121 64.5878 61.1701C63.9591 61.3281 63.3566 61.5322 62.7803 61.7824L63.5269 64.0735C64.0115 63.8891 64.47 63.7509 64.9022 63.6587C65.3475 63.5534 65.8583 63.5007 66.4347 63.5007C67.1812 63.5007 67.7444 63.6653 68.1243 63.9945C68.5041 64.3236 68.694 64.8042 68.694 65.4363V65.614C68.3142 65.4824 67.9213 65.377 67.5152 65.298C67.1223 65.219 66.6573 65.1795 66.1203 65.1795C65.4916 65.1795 64.9153 65.2519 64.3914 65.3968C63.8806 65.5284 63.4352 65.7325 63.0554 66.009C62.6886 66.2856 62.4005 66.6345 62.1909 67.0558C61.9814 67.4772 61.8766 67.9775 61.8766 68.5569V68.5964C61.8766 69.1231 61.9683 69.5905 62.1516 69.9987C62.3481 70.3937 62.6101 70.7295 62.9375 71.006C63.2649 71.2825 63.6448 71.4932 64.077 71.638C64.5224 71.7697 64.9939 71.8355 65.4916 71.8355C66.2251 71.8355 66.8472 71.717 67.3581 71.48C67.8689 71.2298 68.3077 70.9006 68.6744 70.4925V71.638H71.5625ZM68.7333 67.9051C68.7333 68.4581 68.5172 68.9058 68.085 69.2482C67.6659 69.5905 67.1026 69.7617 66.3954 69.7617C65.9107 69.7617 65.5178 69.6498 65.2165 69.4259C64.9153 69.2021 64.7647 68.8861 64.7647 68.4779V68.4384C64.7647 67.9644 64.948 67.6023 65.3148 67.3521C65.6815 67.1019 66.1858 66.9768 66.8276 66.9768C67.1943 66.9768 67.5349 67.0163 67.8492 67.0953C68.1767 67.1612 68.4714 67.2533 68.7333 67.3718V67.9051Z" fill="white" fill-opacity="0.86"/>
</svg>
