<svg width="256" height="256" viewBox="0 0 256 256" fill="none" xmlns="http://www.w3.org/2000/svg">
<path d="M224.755 256H95.2454C86.9586 256 79.0112 252.708 73.1516 246.849C67.292 240.989 64 233.042 64 224.755V191.245C64 187.142 64.8082 183.079 66.3784 179.288C67.9486 175.497 70.2502 172.053 73.1516 169.151C76.053 166.25 79.4974 163.949 83.2882 162.378C87.0791 160.808 91.1422 160 95.2454 160H224.755C233.042 160 240.989 163.292 246.849 169.151C252.708 175.011 256 182.958 256 191.245V224.755C256 233.042 252.708 240.989 246.849 246.849C240.989 252.708 233.042 256 224.755 256Z" fill="#8F38E6"/>
<path d="M128.408 217.107V216.98C128.408 214.031 127.674 211.735 126.207 210.091C124.74 208.406 122.728 207.079 120.172 206.11C120.968 205.688 121.702 205.183 122.372 204.593C123.085 204.003 123.692 203.329 124.195 202.57C124.74 201.77 125.159 200.885 125.453 199.916C125.788 198.947 125.956 197.83 125.956 196.566V196.44C125.956 192.942 124.656 190.162 122.058 188.097C119.501 186.032 115.959 185 111.433 185H91V229.242H111.936C114.409 229.242 116.651 228.989 118.663 228.483C120.717 227.978 122.456 227.219 123.881 226.208C125.348 225.197 126.459 223.933 127.213 222.416C128.01 220.899 128.408 219.129 128.408 217.107ZM116.337 198.209C116.337 199.853 115.708 201.053 114.451 201.812C113.193 202.528 111.496 202.886 109.358 202.886H100.431V193.532H109.987C112.041 193.532 113.612 193.933 114.702 194.733C115.792 195.492 116.337 196.608 116.337 198.083V198.209ZM118.789 215.906C118.789 217.549 118.181 218.771 116.965 219.572C115.75 220.33 114.073 220.709 111.936 220.709H100.431V210.976H111.621C114.136 210.976 115.959 211.419 117.091 212.303C118.223 213.146 118.789 214.305 118.789 215.779V215.906Z" fill="white" fill-opacity="0.86"/>
<path d="M166.801 213.251V213.125C166.801 210.723 166.466 208.427 165.795 206.236C165.167 204.003 164.161 202.044 162.778 200.358C161.436 198.631 159.739 197.261 157.685 196.25C155.631 195.239 153.2 194.733 150.392 194.733C147.919 194.733 145.656 195.197 143.602 196.124C141.59 197.051 139.851 198.315 138.384 199.916C136.917 201.517 135.764 203.392 134.926 205.541C134.13 207.69 133.732 209.965 133.732 212.367V212.493C133.732 215.105 134.172 217.486 135.052 219.635C135.932 221.742 137.148 223.574 138.698 225.133C140.291 226.692 142.156 227.893 144.294 228.736C146.473 229.579 148.82 230 151.335 230C154.395 230 157.056 229.452 159.32 228.357C161.583 227.219 163.511 225.66 165.104 223.68L159.634 218.813C158.293 220.035 156.994 220.92 155.736 221.468C154.479 222.015 153.054 222.289 151.461 222.289C149.323 222.289 147.521 221.742 146.054 220.646C144.629 219.508 143.686 217.844 143.225 215.653H166.676C166.717 215.19 166.738 214.789 166.738 214.452C166.78 214.115 166.801 213.715 166.801 213.251ZM157.496 209.649H143.099C143.476 207.458 144.273 205.709 145.488 204.403C146.746 203.097 148.38 202.444 150.392 202.444C152.404 202.444 154.018 203.118 155.233 204.466C156.449 205.772 157.203 207.5 157.496 209.649Z" fill="white" fill-opacity="0.86"/>
<path d="M192.847 227.851V220.14C191.38 220.941 189.808 221.341 188.132 221.341C186.078 221.341 185.051 220.246 185.051 218.055V203.581H192.973V195.365H185.051V186.706H175.495V195.365H171.471V203.581H175.495V219.635C175.495 221.615 175.726 223.258 176.187 224.565C176.69 225.829 177.36 226.861 178.198 227.662C179.079 228.462 180.106 229.01 181.279 229.305C182.495 229.642 183.836 229.81 185.303 229.81C186.895 229.81 188.3 229.621 189.515 229.242C190.731 228.904 191.841 228.441 192.847 227.851Z" fill="white" fill-opacity="0.86"/>
<path d="M229 229.242V209.586C229 204.993 227.805 201.412 225.416 198.841C223.027 196.271 219.213 194.986 213.974 194.986C211.124 194.986 208.693 195.239 206.681 195.744C204.669 196.25 202.741 196.903 200.897 197.704L203.286 205.035C204.837 204.445 206.304 204.003 207.687 203.708C209.112 203.371 210.747 203.202 212.591 203.202C214.98 203.202 216.782 203.729 217.998 204.782C219.213 205.836 219.821 207.374 219.821 209.396V209.965C218.605 209.544 217.348 209.206 216.049 208.954C214.791 208.701 213.303 208.574 211.585 208.574C209.573 208.574 207.729 208.806 206.052 209.27C204.418 209.691 202.993 210.344 201.777 211.229C200.604 212.114 199.682 213.23 199.011 214.579C198.34 215.927 198.005 217.528 198.005 219.382V219.508C198.005 221.194 198.298 222.69 198.885 223.996C199.514 225.26 200.352 226.334 201.4 227.219C202.448 228.104 203.663 228.778 205.046 229.242C206.472 229.663 207.98 229.874 209.573 229.874C211.92 229.874 213.911 229.494 215.546 228.736C217.18 227.935 218.585 226.882 219.758 225.576V229.242H229ZM219.947 217.296C219.947 219.066 219.255 220.499 217.872 221.594C216.531 222.69 214.728 223.237 212.465 223.237C210.914 223.237 209.657 222.879 208.693 222.163C207.729 221.447 207.247 220.435 207.247 219.129V219.003C207.247 217.486 207.834 216.327 209.007 215.527C210.181 214.726 211.795 214.326 213.848 214.326C215.022 214.326 216.112 214.452 217.118 214.705C218.165 214.916 219.108 215.211 219.947 215.59V217.296Z" fill="white" fill-opacity="0.86"/>
</svg>
