<svg width="16" height="16" viewBox="0 0 16 16" fill="none" xmlns="http://www.w3.org/2000/svg">
  <path fill-rule="evenodd" clip-rule="evenodd"
        d="M11.5 9C10.1193 9 9 10.1193 9 11.5C9 12.8807 10.1193 14 11.5 14C12.8807 14 14 12.8807 14 11.5C14 10.1193 12.8807 9 11.5 9ZM8 11.5C8 9.567 9.567 8 11.5 8C13.433 8 15 9.567 15 11.5C15 13.433 13.433 15 11.5 15C9.567 15 8 13.433 8 11.5ZM10.2464 10.2464C10.4417 10.0512 10.7583 10.0512 10.9536 10.2464L11.5 10.7929L12.0464 10.2464C12.2417 10.0512 12.5583 10.0512 12.7536 10.2464C12.9488 10.4417 12.9488 10.7583 12.7536 10.9536L12.2071 11.5L12.7536 12.0464C12.9488 12.2417 12.9488 12.5583 12.7536 12.7536C12.5583 12.9488 12.2417 12.9488 12.0464 12.7536L11.5 12.2071L10.9536 12.7536C10.7583 12.9488 10.4417 12.9488 10.2464 12.7536C10.0512 12.5583 10.0512 12.2417 10.2464 12.0464L10.7929 11.5L10.2464 10.9536C10.0512 10.7583 10.0512 10.4417 10.2464 10.2464Z"
        fill="#CED0D6"/>
  <path fill-rule="evenodd" clip-rule="evenodd"
        d="M7.99983 8.10756C7.56779 8.10756 7.16734 8.13915 6.79617 8.19771C3.39969 8.7335 2.4543 11.5271 2.19115 13.0407C2.09797 13.5767 2.53068 14.0179 3.07472 14.0179H7.77547C7.52112 13.6381 7.32307 13.2175 7.19323 12.7679H3.52649C3.69048 12.1211 3.98755 11.3738 4.51398 10.7528C5.08502 10.0791 5.99585 9.46728 7.56091 9.37076C7.81777 8.89829 8.1568 8.47696 8.55882 8.12595C8.37868 8.11382 8.19247 8.10756 8 8.10756H7.99983ZM5.04466 4.16733C5.04466 5.4185 5.8222 6.48806 6.92043 6.91917C7.2548 7.05043 7.6189 7.1225 7.99983 7.1225H8C8.3809 7.12248 8.74496 7.05039 9.0793 6.91914C10.1775 6.48801 10.955 5.41847 10.955 4.16733C10.955 2.53523 9.63192 1.21216 7.99983 1.21216C6.36773 1.21216 5.04466 2.53523 5.04466 4.16733ZM9.705 4.16733C9.705 5.10907 8.94157 5.8725 7.99983 5.8725C7.05809 5.8725 6.29466 5.10907 6.29466 4.16733C6.29466 3.22559 7.05809 2.46216 7.99983 2.46216C8.94157 2.46216 9.705 3.22559 9.705 4.16733Z"
        fill="#CED0D6"/>
</svg>
