<svg width="16" height="16" viewBox="0 0 16 16" fill="none" xmlns="http://www.w3.org/2000/svg">
  <path fill-rule="evenodd" clip-rule="evenodd"
        d="M9.75 3.99335C9.75 4.95985 8.9665 5.74335 8 5.74335C7.0335 5.74335 6.25 4.95985 6.25 3.99335C6.25 3.02685 7.0335 2.24335 8 2.24335C8.9665 2.24335 9.75 3.02685 9.75 3.99335ZM11 3.99335C11 5.6502 9.65685 6.99335 8 6.99335C6.34315 6.99335 5 5.6502 5 3.99335C5 2.33649 6.34315 0.993347 8 0.993347C9.65685 0.993347 11 2.33649 11 3.99335ZM7.99998 8.08948C8.35439 8.08948 8.68754 8.11073 9.00072 8.15068V9.4129C8.69693 9.36548 8.36441 9.33948 7.99998 9.33948C6.16269 9.33948 5.13645 10.0004 4.51397 10.7347C3.98753 11.3557 3.69047 12.1031 3.52647 12.7498H9.00072V13.9998H3.0747C2.53067 13.9998 2.09796 13.5586 2.19114 13.0226C2.48304 11.3435 3.61448 8.08948 7.99998 8.08948Z"
        fill="#6C707E"/>
  <path fill-rule="evenodd" clip-rule="evenodd"
        d="M11.0032 9.13588L11.0032 9.61184L11.0032 9.64154C11.0031 9.67171 11.0031 9.69273 11.0034 9.71192L11.0035 9.71887C11.0085 9.72449 11.0145 9.73103 11.0217 9.73871C11.0354 9.75346 11.0499 9.76853 11.0704 9.7897L11.0921 9.8123L11.9099 10.664C12.1164 10.8791 12.2339 11.1823 12.2339 11.5C12.2339 11.8177 12.1164 12.1209 11.9099 12.336L11.0911 13.1888L11.0709 13.2098C11.0504 13.2309 11.0354 13.2465 11.0217 13.2613C11.0145 13.269 11.0085 13.2755 11.0035 13.2811L11.0034 13.2881C11.0031 13.3073 11.0031 13.3274 11.0032 13.3576L11.0032 13.3899L11.0032 13.8641H13.9968L13.9968 13.3882L13.9968 13.3585C13.9969 13.3283 13.9969 13.3073 13.9966 13.2881L13.9965 13.2811C13.9915 13.2755 13.9855 13.269 13.9783 13.2613C13.9646 13.2465 13.9501 13.2315 13.9296 13.2103L13.9079 13.1877L13.0901 12.336C12.8836 12.1209 12.7661 11.8177 12.7661 11.5C12.7661 11.1823 12.8836 10.8791 13.0901 10.664L13.9089 9.8112L13.9291 9.79024C13.9496 9.76906 13.9646 9.75346 13.9783 9.73871C13.9855 9.73103 13.9915 9.7245 13.9965 9.71887L13.9966 9.71193C13.9969 9.69273 13.9969 9.67257 13.9968 9.6424L13.9968 9.61007L13.9968 9.13588H11.0032ZM14.8429 10.3384C14.7758 10.4525 14.6856 10.5461 14.6072 10.6273L14.587 10.6483L13.7692 11.5L14.587 12.3517L14.6072 12.3727C14.6856 12.4539 14.7758 12.5475 14.8429 12.6616C14.9013 12.7609 14.9444 12.8691 14.9705 12.9823C15.0005 13.1124 15.0002 13.245 15 13.3602L14.9999 13.3899L14.9999 14.0227C14.9999 14.0948 15 14.1765 14.9944 14.2477C14.988 14.3292 14.9719 14.441 14.915 14.5572C14.8404 14.7098 14.7213 14.8339 14.5748 14.9116C14.4632 14.9708 14.3558 14.9876 14.2776 14.9942C14.2092 15 14.1308 15 14.0615 15H10.9385C10.8692 15 10.7908 15 10.7224 14.9942C10.6442 14.9876 10.5368 14.9708 10.4252 14.9116M10.4252 14.9116C10.2787 14.8339 10.1596 14.7098 10.085 14.5572C10.0281 14.441 10.012 14.3292 10.0056 14.2477C10 14.1765 10.0001 14.0948 10.0001 14.0227L10.0001 13.3899L10 13.3602C9.99981 13.245 9.99953 13.1124 10.0295 12.9824C10.0556 12.8691 10.0987 12.7609 10.1571 12.6616C10.2242 12.5475 10.3144 12.4539 10.3928 12.3727L10.413 12.3517L11.2308 11.5L10.413 10.6483L10.3928 10.6273C10.3144 10.5461 10.2242 10.4525 10.1571 10.3384C10.0987 10.2391 10.0556 10.1309 10.0295 10.0177C9.99953 9.88755 9.99981 9.75497 10 9.63977L10.0001 9.61007L10.0001 8.97734C10.0001 8.90518 10 8.82354 10.0056 8.7523C10.012 8.67081 10.0281 8.559 10.085 8.44281C10.1596 8.29021 10.2787 8.16615 10.4252 8.0884C10.5368 8.0292 10.6442 8.01244 10.7224 8.00578C10.7907 7.99997 10.8692 7.99999 10.9384 8H14.0615C14.1308 7.99999 14.2093 7.99997 14.2776 8.00578C14.3558 8.01244 14.4632 8.0292 14.5748 8.0884C14.7213 8.16615 14.8404 8.29021 14.915 8.44281C14.9719 8.559 14.988 8.67081 14.9944 8.7523C15 8.82353 14.9999 8.90519 14.9999 8.97735L14.9999 9.61007L15 9.63977C15.0002 9.75497 15.0005 9.88756 14.9705 10.0177C14.9444 10.1309 14.9013 10.2391 14.8429 10.3384"
        fill="#6C707E"/>
</svg>
