<svg width="16" height="16" viewBox="0 0 16 16" fill="none" xmlns="http://www.w3.org/2000/svg">
  <path fill-rule="evenodd" clip-rule="evenodd"
        d="M9.75 3.99341C9.75 4.95991 8.9665 5.74341 8 5.74341C7.0335 5.74341 6.25 4.95991 6.25 3.99341C6.25 3.02691 7.0335 2.24341 8 2.24341C8.9665 2.24341 9.75 3.02691 9.75 3.99341ZM11 3.99341C11 5.65026 9.65685 6.99341 8 6.99341C6.34315 6.99341 5 5.65026 5 3.99341C5 2.33655 6.34315 0.993408 8 0.993408C9.65685 0.993408 11 2.33655 11 3.99341ZM7.99983 8.09082C8.19233 8.09082 8.3786 8.09709 8.55881 8.10922C8.15679 8.46023 7.81776 8.88156 7.5609 9.35403C5.99585 9.45055 5.08502 10.0624 4.51398 10.736C3.98755 11.357 3.69048 12.1044 3.52649 12.7512H7.19323C7.32307 13.2007 7.52112 13.6214 7.77547 14.0012H3.07472C2.53068 14.0012 2.09797 13.5599 2.19115 13.0239C2.4543 11.5103 3.39969 8.71677 6.79617 8.18097C7.16734 8.12242 7.56779 8.09083 7.99983 8.09082Z"
        fill="#6C707E"/>
  <path fill-rule="evenodd" clip-rule="evenodd"
        d="M11.4922 8.50131C11.4922 8.22462 11.2663 7.99675 10.9925 8.03652C9.29999 8.28238 8 9.73937 8 11.5C8 13.433 9.567 15 11.5 15C13.2622 15 14.7202 13.6977 14.9641 12.003C15.0035 11.7294 14.7758 11.5039 14.4993 11.5039C14.2234 11.5039 14.0049 11.7296 13.95 12C13.7184 13.1411 12.7095 14 11.5 14C10.1193 14 9 12.8807 9 11.5C9 10.2916 9.85728 9.28351 10.9968 9.05065C11.2669 8.99546 11.4922 8.77698 11.4922 8.50131Z"
        fill="#6C707E"/>
</svg>
