<svg width="48" height="48" viewBox="0 0 48 48" fill="none" xmlns="http://www.w3.org/2000/svg">
<path d="M43.5999 8.5L46.5 26.4L41.2 30L43.5999 8.5Z" fill="url(#paint0_linear)"/>
<path d="M46.5 26.4001L41.2 30.0001L42.2 21.6001L46.5 26.4001Z" fill="url(#paint1_linear)"/>
<path d="M43.6 8.5L27.5 1.5L23 5.2L43.6 8.5Z" fill="url(#paint2_linear)"/>
<path d="M31 6.5L27.5 1.5L23 5.2L31 6.5Z" fill="url(#paint3_linear)"/>
<path d="M31.8999 46.5001L6.8999 26.6001L1.8999 41.7001L31.8999 46.5001Z" fill="url(#paint4_linear)"/>
<path d="M31.8999 46.5002L11.7999 37.7002L1.8999 41.7002L31.8999 46.5002Z" fill="url(#paint5_linear)"/>
<path d="M35.4 33.8998L1.5 22.2998L31.9 46.4998L35.4 33.8998Z" fill="url(#paint6_linear)"/>
<path d="M35.4001 33.9002L33.2001 33.2002L29.8 37.4002L31.9 46.5002L35.4001 33.9002Z" fill="url(#paint7_linear)"/>
<path d="M29.8 37.3998L1.5 22.2998L27.5 42.9998L31.9 46.4998L29.8 37.3998Z" fill="url(#paint8_linear)"/>
<path d="M1.5 1.7998V22.2998L40.6 35.6998L43.6 8.4998L1.5 1.7998Z" fill="url(#paint9_linear)"/>
<path d="M1.5 1.7998V22.2998L40.6 35.6998L36 15.0998L1.5 1.7998Z" fill="url(#paint10_linear)"/>
<path d="M1.5 1.7998V22.2998L10.8 16.5998L1.5 1.7998Z" fill="url(#paint11_linear)"/>
<path d="M11.7999 37.6998L36.0999 15.2998L10.4999 16.7998L1.8999 41.6998L11.7999 37.6998Z" fill="url(#paint12_linear)"/>
<path d="M11.7999 37.7001L12.6999 31.1001L6.8999 26.6001L1.8999 41.7001L11.7999 37.7001Z" fill="url(#paint13_linear)"/>
<path d="M11.7999 37.7001L12.6999 31.1001L6.8999 26.6001L1.8999 41.7001L11.7999 37.7001Z" fill="url(#paint14_linear)"/>
<path d="M43.6 8.5L40.6 35.7L36 15.1L43.6 8.5Z" fill="url(#paint15_linear)"/>
<path d="M40.6 35.7L41.2 30L39.5 31.1L40.6 35.7Z" fill="url(#paint16_linear)"/>
<path d="M40.5999 35.7001L35.3999 33.9001L39.4999 31.1001L40.5999 35.7001Z" fill="url(#paint17_linear)"/>
<path d="M43.6 8.5002L32.5 18.3002L10.3 16.7002L23 5.2002L43.6 8.5002Z" fill="url(#paint18_linear)"/>
<path d="M36 15.0998L43.6 8.4998L1.5 1.7998L36 15.0998Z" fill="url(#paint19_linear)"/>
<path d="M36 15.0998L43.6 8.4998L1.5 1.7998L36 15.0998Z" fill="url(#paint20_linear)"/>
<path d="M19.2 8.7002L36 15.1002L36.5 14.7002L30.9 6.5002L23 5.2002L19.2 8.7002Z" fill="url(#paint21_linear)"/>
<path d="M38 10H10V38H38V10Z" fill="url(#paint22_linear)"/>
<g opacity="0.5">
<path opacity="0.3" d="M10 29.04V38H21.27L10 29.04Z" fill="url(#paint23_linear)"/>
<path opacity="0.3" d="M10 29.04V38H11.19L11.89 37.72L16.055 33.87L10 29.04Z" fill="url(#paint24_linear)"/>
<path opacity="0.3" d="M10 29.0401L21.27 38.0001H34.22L35.34 33.9401L10 25.2251V29.0401Z" fill="url(#paint25_linear)"/>
<path opacity="0.3" d="M29.8099 37.44L29.9499 38H34.2199L35.3399 33.94L28.6199 31.665L29.8099 37.44Z" fill="url(#paint26_linear)"/>
<path opacity="0.3" d="M38.0001 13.4297L35.9001 15.2497L38.0001 24.5947V13.4297Z" fill="url(#paint27_linear)"/>
<path opacity="0.3" d="M38 10H22.355L35.9 15.25L38 13.43V10Z" fill="url(#paint28_linear)"/>
<path opacity="0.3" d="M38 34.85V24.595L35.9 15.25L22.355 10H10V25.225L38 34.85Z" fill="url(#paint29_linear)"/>
</g>
<path d="M24 32.6997H13.5V34.3997H24V32.6997Z" fill="white"/>
<path d="M13.2 13.2915H17.3218C20.6193 13.2915 23.0008 15.5814 23.0008 18.6041C23.0008 21.6268 20.7109 23.9167 17.3218 23.9167H13.2V13.2915ZM15.5815 15.3982V21.81H17.4134C19.3369 21.81 20.6193 20.5276 20.6193 18.6041C20.6193 16.6806 19.3369 15.3982 17.4134 15.3982H15.5815Z" fill="white"/>
<path d="M24 18.6955C24 15.6728 26.3815 13.1997 29.5874 13.1997C31.5109 13.1997 32.6101 13.7493 33.8008 14.6653L32.2437 16.4056C31.4193 15.7644 30.6866 15.3064 29.4958 15.3064C27.7555 15.3064 26.4731 16.772 26.4731 18.6039C26.4731 20.5274 27.8471 21.993 29.679 21.993C30.5034 21.993 31.3277 21.8098 31.8773 21.3518V19.7947H29.4958V17.8711H34.0756V22.451C32.9765 23.3669 31.5109 24.0997 29.4958 24.0997C26.2899 24.0997 24 21.8098 24 18.6955Z" fill="white"/>
<defs>
<linearGradient id="paint0_linear" x1="42.7248" y1="18.4266" x2="44.0408" y2="29.883" gradientUnits="userSpaceOnUse">
<stop offset="0.1599" stop-color="#21D789"/>
<stop offset="0.5402" stop-color="#419FBC"/>
<stop offset="1" stop-color="#6B57FF"/>
</linearGradient>
<linearGradient id="paint1_linear" x1="36.9525" y1="24.1128" x2="54.0533" y2="30.1343" gradientUnits="userSpaceOnUse">
<stop offset="0.0212475" stop-color="#B74AF7" stop-opacity="0"/>
<stop offset="0.744" stop-color="#8053FD" stop-opacity="0.7385"/>
<stop offset="1" stop-color="#6B57FF"/>
</linearGradient>
<linearGradient id="paint2_linear" x1="30.7284" y1="13.5115" x2="34.057" y2="4.9966" gradientUnits="userSpaceOnUse">
<stop stop-color="#6B57FF"/>
<stop offset="0.9516" stop-color="#21D789"/>
</linearGradient>
<linearGradient id="paint3_linear" x1="30.7863" y1="2.9397" x2="25.3891" y2="6.7217" gradientUnits="userSpaceOnUse">
<stop stop-color="#00FF6A"/>
<stop offset="0.9516" stop-color="#21D789" stop-opacity="0"/>
</linearGradient>
<linearGradient id="paint4_linear" x1="31.8042" y1="52.8995" x2="0.197202" y2="31.2534" gradientUnits="userSpaceOnUse">
<stop offset="0.09839" stop-color="#6B57FF"/>
<stop offset="0.1176" stop-color="#685CFB"/>
<stop offset="0.3447" stop-color="#4A91CA"/>
<stop offset="0.5417" stop-color="#34B7A7"/>
<stop offset="0.6991" stop-color="#26CE91"/>
<stop offset="0.7971" stop-color="#21D789"/>
</linearGradient>
<linearGradient id="paint5_linear" x1="15.6023" y1="29.0663" x2="17.4557" y2="50.539" gradientUnits="userSpaceOnUse">
<stop offset="0.09839" stop-color="#6B57FF"/>
<stop offset="0.1176" stop-color="#685CFB"/>
<stop offset="0.3447" stop-color="#4A91CA"/>
<stop offset="0.5417" stop-color="#34B7A7"/>
<stop offset="0.6991" stop-color="#26CE91"/>
<stop offset="0.7971" stop-color="#21D789"/>
</linearGradient>
<linearGradient id="paint6_linear" x1="4.3031" y1="24.0049" x2="43.7356" y2="45.7768" gradientUnits="userSpaceOnUse">
<stop offset="0.0752688" stop-color="#21D789"/>
<stop offset="0.8874" stop-color="#6B57FF"/>
</linearGradient>
<linearGradient id="paint7_linear" x1="29.8345" y1="39.8263" x2="35.39" y2="39.8263" gradientUnits="userSpaceOnUse">
<stop offset="0.0266187" stop-color="#4F46C6"/>
<stop offset="1" stop-color="#6B57FF"/>
</linearGradient>
<linearGradient id="paint8_linear" x1="2.9093" y1="26.5294" x2="42.3417" y2="48.3013" gradientUnits="userSpaceOnUse">
<stop offset="0.0266187" stop-color="#21D789"/>
<stop offset="0.6999" stop-color="#685CFA"/>
<stop offset="1" stop-color="#6B57FF"/>
</linearGradient>
<linearGradient id="paint9_linear" x1="-0.6855" y1="12.7863" x2="37.9796" y2="21.1982" gradientUnits="userSpaceOnUse">
<stop offset="0.2422" stop-color="#21D789"/>
<stop offset="0.4465" stop-color="#59A3B2"/>
<stop offset="0.7668" stop-color="#B74AF7"/>
<stop offset="1" stop-color="#FF45ED"/>
</linearGradient>
<linearGradient id="paint10_linear" x1="4.3215" y1="18.7544" x2="41.0572" y2="18.7544" gradientUnits="userSpaceOnUse">
<stop offset="0.1308" stop-color="#21D789"/>
<stop offset="0.3487" stop-color="#59A3B2"/>
<stop offset="0.6901" stop-color="#B74AF7"/>
<stop offset="1" stop-color="#FF45ED"/>
</linearGradient>
<linearGradient id="paint11_linear" x1="2.1731" y1="12.0447" x2="10.9375" y2="12.0447" gradientUnits="userSpaceOnUse">
<stop offset="0.3086" stop-color="#56D789"/>
<stop offset="0.9587" stop-color="#8DFC77"/>
<stop offset="1" stop-color="#91FF76"/>
</linearGradient>
<linearGradient id="paint12_linear" x1="16.939" y1="55.109" x2="19.9575" y2="15.6528" gradientUnits="userSpaceOnUse">
<stop stop-color="#21D789"/>
<stop offset="0.9961" stop-color="#6B57FF" stop-opacity="0"/>
</linearGradient>
<linearGradient id="paint13_linear" x1="4.9979" y1="26.4123" x2="7.7078" y2="38.22" gradientUnits="userSpaceOnUse">
<stop offset="0.2061" stop-color="#6B57FF"/>
<stop offset="0.3273" stop-color="#6266F1"/>
<stop offset="0.5619" stop-color="#4B8FCC"/>
<stop offset="0.8839" stop-color="#26CF90"/>
<stop offset="0.9206" stop-color="#21D789"/>
</linearGradient>
<linearGradient id="paint14_linear" x1="1.5922" y1="31.9427" x2="12.8941" y2="40.7544" gradientUnits="userSpaceOnUse">
<stop offset="0.3086" stop-color="#56D789" stop-opacity="0"/>
<stop offset="0.9587" stop-color="#8DFC77" stop-opacity="0.9403"/>
<stop offset="1" stop-color="#91FF76"/>
</linearGradient>
<linearGradient id="paint15_linear" x1="35.9609" y1="22.0931" x2="43.6304" y2="22.0931" gradientUnits="userSpaceOnUse">
<stop offset="0.2609" stop-color="#B74AF7"/>
<stop offset="1" stop-color="#FF45ED"/>
</linearGradient>
<linearGradient id="paint16_linear" x1="42.1171" y1="34.6828" x2="39.7226" y2="31.1389" gradientUnits="userSpaceOnUse">
<stop stop-color="#FF72F1"/>
<stop offset="0.963" stop-color="#B74AF7"/>
</linearGradient>
<linearGradient id="paint17_linear" x1="42.4054" y1="37.981" x2="37.808" y2="32.9047" gradientUnits="userSpaceOnUse">
<stop offset="0.668" stop-color="#FF72F1"/>
<stop offset="1" stop-color="#B74AF7"/>
</linearGradient>
<linearGradient id="paint18_linear" x1="17.7526" y1="-2.7584" x2="29.6272" y2="17.0715" gradientUnits="userSpaceOnUse">
<stop offset="0.1625" stop-color="#B74AF7" stop-opacity="0.5"/>
<stop offset="0.9989" stop-color="#00FF6A" stop-opacity="0"/>
</linearGradient>
<linearGradient id="paint19_linear" x1="35.7347" y1="21.1286" x2="26.7315" y2="10.2098" gradientUnits="userSpaceOnUse">
<stop offset="0.2973" stop-color="#FF4FFF" stop-opacity="0.96"/>
<stop offset="0.9989" stop-color="#FF45ED" stop-opacity="0"/>
</linearGradient>
<linearGradient id="paint20_linear" x1="21.612" y1="10.4947" x2="22.5698" y2="5.1311" gradientUnits="userSpaceOnUse">
<stop stop-color="#FF4FFF" stop-opacity="0.96"/>
<stop offset="0.9928" stop-color="#FF45ED" stop-opacity="0"/>
</linearGradient>
<linearGradient id="paint21_linear" x1="33.2385" y1="5.4652" x2="28.7548" y2="10.6463" gradientUnits="userSpaceOnUse">
<stop offset="0.1209" stop-color="#A326F7"/>
<stop offset="0.9516" stop-color="#B74AF7" stop-opacity="0"/>
</linearGradient>
<linearGradient id="paint22_linear" x1="9.62387" y1="9.62387" x2="36.1344" y2="36.1344" gradientUnits="userSpaceOnUse">
<stop offset="0.0284813" stop-color="#007E67"/>
<stop offset="0.1121" stop-color="#005344"/>
<stop offset="0.1976" stop-color="#002F27"/>
<stop offset="0.2776" stop-color="#001511"/>
<stop offset="0.3494" stop-color="#000605"/>
<stop offset="0.4058"/>
<stop offset="0.9138"/>
</linearGradient>
<linearGradient id="paint23_linear" x1="21.0668" y1="41.0937" x2="6.8326" y2="31.3455" gradientUnits="userSpaceOnUse">
<stop offset="0.09839" stop-color="#6B57FF"/>
<stop offset="0.1176" stop-color="#685CFB"/>
<stop offset="0.3447" stop-color="#4A91CA"/>
<stop offset="0.5417" stop-color="#34B7A7"/>
<stop offset="0.6991" stop-color="#26CE91"/>
<stop offset="0.7971" stop-color="#21D789"/>
</linearGradient>
<linearGradient id="paint24_linear" x1="12.2244" y1="41.9699" x2="13.1587" y2="29.7577" gradientUnits="userSpaceOnUse">
<stop offset="0.0752688" stop-color="#21D789"/>
<stop offset="0.8874" stop-color="#6B57FF"/>
</linearGradient>
<linearGradient id="paint25_linear" x1="11.7878" y1="26.8485" x2="39.9466" y2="42.3959" gradientUnits="userSpaceOnUse">
<stop stop-color="#34B7A7"/>
<stop offset="0.8874" stop-color="#000069"/>
</linearGradient>
<linearGradient id="paint26_linear" x1="28.6105" y1="34.8246" x2="35.339" y2="34.8246" gradientUnits="userSpaceOnUse">
<stop offset="0.0266187" stop-color="#4F46C6"/>
<stop offset="1" stop-color="#1F2C61"/>
</linearGradient>
<linearGradient id="paint27_linear" x1="35.9078" y1="19.0141" x2="38.0001" y2="19.0141" gradientUnits="userSpaceOnUse">
<stop offset="0.2609" stop-color="#B74AF7"/>
<stop offset="1" stop-color="#FF45ED"/>
</linearGradient>
<linearGradient id="paint28_linear" x1="29.9959" y1="12.7242" x2="30.6666" y2="8.96806" gradientUnits="userSpaceOnUse">
<stop stop-color="#FF4FFF"/>
<stop offset="0.9928" stop-color="#FF75FF"/>
</linearGradient>
<linearGradient id="paint29_linear" x1="15.0021" y1="10.6197" x2="33.962" y2="33.5396" gradientUnits="userSpaceOnUse">
<stop stop-color="#20D185"/>
<stop offset="0.4429" stop-color="#198767"/>
<stop offset="0.844" stop-color="#12414A"/>
</linearGradient>
</defs>
</svg>
