<svg width="80" height="80" viewBox="0 0 80 80" fill="none" xmlns="http://www.w3.org/2000/svg">
<path d="M72 8H8V72H72V8Z" fill="url(#paint0_linear)"/>
<path d="M60.4001 19.6H19.6001V60.3H60.3001V19.6H60.4001Z" fill="url(#paint1_linear)"/>
<path d="M66.5 13.5H13.5V66.5H66.5V13.5Z" fill="url(#paint2_linear)"/>
<path d="M19.6 19.6H60.4L72 8H8L19.6 19.6Z" fill="url(#paint3_linear)"/>
<path d="M60.4 60.4H19.6L8 72H72L60.4 60.4Z" fill="url(#paint4_linear)"/>
<path d="M60.3999 19.6V60.4L71.9999 72V8L60.3999 19.6Z" fill="url(#paint5_linear)"/>
<path d="M19.6 60.4V19.6L8 8V72L19.6 60.4Z" fill="url(#paint6_linear)"/>
<path d="M13.5 13.5H66.5L72 8H8L13.5 13.5Z" fill="url(#paint7_linear)"/>
<path d="M13.5 13.5H66.5L72 8H8L13.5 13.5Z" fill="url(#paint8_linear)"/>
<path d="M13.5 13.5H66.5L72 8H8L13.5 13.5Z" fill="url(#paint9_linear)"/>
<path d="M66.5 13.5H13.5L19.6 19.6H60.4L66.5 13.5Z" fill="url(#paint10_linear)"/>
<path d="M66.5 66.5H13.5L8 72H72L66.5 66.5Z" fill="url(#paint11_linear)"/>
<path d="M66.5 66.5H13.5L8 72H72L66.5 66.5Z" fill="url(#paint12_linear)"/>
<path d="M66.5 66.5H13.5L8 72H72L66.5 66.5Z" fill="url(#paint13_linear)"/>
<path d="M66.5 66.5L72 72V8L66.5 13.5V66.5Z" fill="url(#paint14_linear)"/>
<path d="M66.5 66.5L72 72V8L66.5 13.5V66.5Z" fill="url(#paint15_linear)"/>
<path d="M66.5 66.5L72 72V8L66.5 13.5V66.5Z" fill="url(#paint16_linear)"/>
<path d="M66.5 66.5L72 72V8L66.5 13.5V66.5Z" fill="url(#paint17_linear)"/>
<path d="M13.5 66.5V13.5L8 8V72L13.5 66.5Z" fill="url(#paint18_linear)"/>
<path d="M13.5 66.5V13.5L8 8V72L13.5 66.5Z" fill="url(#paint19_linear)"/>
<path d="M13.5 13.5V66.5L19.6 60.4V19.6L13.5 13.5Z" fill="url(#paint20_linear)"/>
<path d="M63 17H17V63H63V17Z" fill="url(#paint21_linear)"/>
<path d="M39.9002 54.3H22.7002V57.2001H39.9002V54.3Z" fill="white"/>
<path d="M31.3003 26.1V23H22.8003V26.1H25.2003V37H22.8003V40.1H31.3003V37H28.9003V26.1H31.3003Z" fill="white"/>
<path d="M35 23H48.1406V26.3282H38.9594V29.8859H47.1077V33.2141H38.9594V36.7718H48.3701V40.1H35.1721V23H35Z" fill="white"/>
<defs>
<linearGradient id="paint0_linear" x1="79.1546" y1="79.1543" x2="-11.2493" y2="-11.249" gradientUnits="userSpaceOnUse">
<stop offset="0.3475" stop-color="#087CFA"/>
<stop offset="0.8562" stop-color="#FE2857"/>
<stop offset="1" stop-color="#FE2857"/>
</linearGradient>
<linearGradient id="paint1_linear" x1="64.9166" y1="64.9165" x2="7.38691" y2="7.38717" gradientUnits="userSpaceOnUse">
<stop offset="0.3475" stop-color="#087CFA"/>
<stop offset="0.8562" stop-color="#FE2857"/>
<stop offset="1" stop-color="#FE2857"/>
</linearGradient>
<linearGradient id="paint2_linear" x1="72.4343" y1="72.4341" x2="-2.4532" y2="-2.4531" gradientUnits="userSpaceOnUse">
<stop stop-color="#087CFA"/>
<stop offset="0.2816" stop-color="#0855FA"/>
<stop offset="0.7644" stop-color="#E0326B"/>
<stop offset="0.7721" stop-color="#FE2857"/>
<stop offset="1" stop-color="#FE2857"/>
</linearGradient>
<linearGradient id="paint3_linear" x1="76.5992" y1="26.1515" x2="10.3223" y2="-0.4042" gradientUnits="userSpaceOnUse">
<stop offset="0.3475" stop-color="#087CFA"/>
<stop offset="0.7698" stop-color="#F01A72"/>
<stop offset="0.9872" stop-color="#FE2857"/>
</linearGradient>
<linearGradient id="paint4_linear" x1="79.256" y1="73.7598" x2="19.6366" y2="63.7359" gradientUnits="userSpaceOnUse">
<stop offset="0.2513" stop-color="#087CFA" stop-opacity="0.9703"/>
<stop offset="0.5721" stop-color="#087CFA"/>
<stop offset="0.8921" stop-color="#087CFA" stop-opacity="0.5"/>
</linearGradient>
<linearGradient id="paint5_linear" x1="65.4323" y1="9.2552" x2="67.3773" y2="73.9611" gradientUnits="userSpaceOnUse">
<stop offset="0.018393" stop-color="#429EFA"/>
<stop offset="0.518" stop-color="#087CFA"/>
<stop offset="1" stop-color="#965CF3" stop-opacity="0.9769"/>
</linearGradient>
<linearGradient id="paint6_linear" x1="16.4756" y1="67.2686" x2="9.2944" y2="9.2951" gradientUnits="userSpaceOnUse">
<stop offset="0.323" stop-color="#087CFA"/>
<stop offset="0.7201" stop-color="#DF0373"/>
<stop offset="1" stop-color="#FE2857"/>
</linearGradient>
<linearGradient id="paint7_linear" x1="37.4124" y1="10.6194" x2="21.8531" y2="23.037" gradientUnits="userSpaceOnUse">
<stop offset="0.1018" stop-color="#FF00BB" stop-opacity="0"/>
<stop offset="0.8133" stop-color="#FCBD36"/>
<stop offset="1" stop-color="white" stop-opacity="0.9"/>
</linearGradient>
<linearGradient id="paint8_linear" x1="73.0095" y1="15.718" x2="52.0642" y2="12.277" gradientUnits="userSpaceOnUse">
<stop offset="0.018393" stop-color="#00FFFA"/>
<stop offset="0.8562" stop-color="#07C3F2" stop-opacity="0"/>
</linearGradient>
<linearGradient id="paint9_linear" x1="40.9474" y1="0.6567" x2="39.7283" y2="10.1043" gradientUnits="userSpaceOnUse">
<stop offset="0.2032" stop-color="#087CFA"/>
<stop offset="1" stop-color="#6D6E71" stop-opacity="0"/>
</linearGradient>
<linearGradient id="paint10_linear" x1="59.3494" y1="8.4925" x2="25.6873" y2="20.6108" gradientUnits="userSpaceOnUse">
<stop offset="0.1744" stop-color="#0861FA"/>
<stop offset="0.723" stop-color="#0855FA" stop-opacity="0"/>
</linearGradient>
<linearGradient id="paint11_linear" x1="78.8381" y1="76.245" x2="19.2188" y2="66.2212" gradientUnits="userSpaceOnUse">
<stop stop-color="#434FCF" stop-opacity="0"/>
<stop offset="1" stop-color="#1B6EEC"/>
</linearGradient>
<linearGradient id="paint12_linear" x1="39.9999" y1="62.7441" x2="39.9999" y2="70.5497" gradientUnits="userSpaceOnUse">
<stop offset="0.018393" stop-color="#42FFFA"/>
<stop offset="0.8562" stop-color="#07C3F2" stop-opacity="0"/>
</linearGradient>
<linearGradient id="paint13_linear" x1="69.3656" y1="58.3926" x2="50.6645" y2="66.0227" gradientUnits="userSpaceOnUse">
<stop offset="0.018393" stop-color="#FF39FF" stop-opacity="0.5"/>
<stop offset="0.8562" stop-color="#FF318C" stop-opacity="0"/>
</linearGradient>
<linearGradient id="paint14_linear" x1="68.4093" y1="9.1658" x2="70.3542" y2="73.8716" gradientUnits="userSpaceOnUse">
<stop offset="0.018393" stop-color="#085EFA"/>
<stop offset="0.8562" stop-color="#FF45ED" stop-opacity="0"/>
</linearGradient>
<linearGradient id="paint15_linear" x1="59.3893" y1="39.4455" x2="73.0037" y2="40.044" gradientUnits="userSpaceOnUse">
<stop offset="0.018393" stop-color="#42FFFA"/>
<stop offset="0.8562" stop-color="#07C3F2" stop-opacity="0"/>
</linearGradient>
<linearGradient id="paint16_linear" x1="48.3377" y1="-0.8063" x2="75.7162" y2="49.0135" gradientUnits="userSpaceOnUse">
<stop offset="0.018393" stop-color="#42FFFA"/>
<stop offset="0.8562" stop-color="#07C3F2" stop-opacity="0"/>
</linearGradient>
<linearGradient id="paint17_linear" x1="57.8441" y1="10.3863" x2="67.1199" y2="32.2292" gradientUnits="userSpaceOnUse">
<stop offset="0.018393" stop-color="#42FFFA" stop-opacity="0.5"/>
<stop offset="0.8562" stop-color="#07C3F2" stop-opacity="0"/>
</linearGradient>
<linearGradient id="paint18_linear" x1="6.7059" y1="53.5953" x2="16.8793" y2="12.4528" gradientUnits="userSpaceOnUse">
<stop offset="0.4995" stop-color="#FF318C" stop-opacity="0"/>
<stop offset="0.9613" stop-color="#FCBD36"/>
</linearGradient>
<linearGradient id="paint19_linear" x1="-4.7455" y1="68.0733" x2="9.5783" y2="39.5782" gradientUnits="userSpaceOnUse">
<stop offset="0.00131053" stop-color="#5AFFFA" stop-opacity="0.5"/>
<stop offset="0.9231" stop-color="#07C3F2" stop-opacity="0"/>
</linearGradient>
<linearGradient id="paint20_linear" x1="7.8742" y1="43.1357" x2="20.7406" y2="35.9545" gradientUnits="userSpaceOnUse">
<stop offset="0.018393" stop-color="#0855FA"/>
<stop offset="0.723" stop-color="#0855FA" stop-opacity="0"/>
</linearGradient>
<linearGradient id="paint21_linear" x1="17.07" y1="17.07" x2="57.3751" y2="57.3751" gradientUnits="userSpaceOnUse">
<stop offset="0.1196" stop-color="#5A044A"/>
<stop offset="0.3733" stop-color="#39032F"/>
<stop offset="0.7299" stop-color="#10010D"/>
<stop offset="0.9138"/>
</linearGradient>
</defs>
</svg>
