<svg width="256" height="256" viewBox="0 0 256 256" fill="none" xmlns="http://www.w3.org/2000/svg">
<path d="M226 30H30V226H226V30Z" fill="url(#paint0_linear)"/>
<path d="M190.4 65.6H65.6001V190.3H190.3V65.6H190.4Z" fill="url(#paint1_linear)"/>
<path d="M209.2 46.8H46.7998V209.2H209.2V46.8V46.8Z" fill="url(#paint2_linear)"/>
<path d="M65.6 65.6H190.4L226 30H30L65.6 65.6Z" fill="url(#paint3_linear)"/>
<path d="M190.4 190.4H65.6L30 226H226L190.4 190.4Z" fill="url(#paint4_linear)"/>
<path d="M190.4 65.6V190.4L226 226V30L190.4 65.6Z" fill="url(#paint5_linear)"/>
<path d="M65.6 190.4V65.6L30 30V226L65.6 190.4Z" fill="url(#paint6_linear)"/>
<path d="M46.8 46.8H209.2L226 30H30L46.8 46.8Z" fill="url(#paint7_linear)"/>
<path d="M46.8 46.8H209.2L226 30H30L46.8 46.8Z" fill="url(#paint8_linear)"/>
<path d="M46.8 46.8H209.2L226 30H30L46.8 46.8Z" fill="url(#paint9_linear)"/>
<path d="M209.2 46.8H46.7998L65.5998 65.6H190.4L209.2 46.8Z" fill="url(#paint10_linear)"/>
<path d="M209.2 209.2H46.8L30 226H226L209.2 209.2Z" fill="url(#paint11_linear)"/>
<path d="M209.2 209.2H46.8L30 226H226L209.2 209.2Z" fill="url(#paint12_linear)"/>
<path d="M209.2 209.2H46.8L30 226H226L209.2 209.2Z" fill="url(#paint13_linear)"/>
<path d="M209.2 209.2L226 226V30L209.2 46.8V209.2Z" fill="url(#paint14_linear)"/>
<path d="M209.2 209.2L226 226V30L209.2 46.8V209.2Z" fill="url(#paint15_linear)"/>
<path d="M209.2 209.2L226 226V30L209.2 46.8V209.2Z" fill="url(#paint16_linear)"/>
<path d="M209.2 209.2L226 226V30L209.2 46.8V209.2Z" fill="url(#paint17_linear)"/>
<path d="M46.8 209.2V46.8L30 30V226L46.8 209.2Z" fill="url(#paint18_linear)"/>
<path d="M46.8 209.2V46.8L30 30V226L46.8 209.2Z" fill="url(#paint19_linear)"/>
<path d="M46.7998 46.8V209.2L65.5998 190.4V65.6L46.7998 46.8Z" fill="url(#paint20_linear)"/>
<path d="M200 56H56V200H200V56Z" fill="url(#paint21_linear)"/>
<path d="M127.9 172.9H73.7998V181.9H127.9V172.9Z" fill="white"/>
<path d="M100.8 83.9V74H73.8999V83.9H81.4999V118H73.8999V127.8H100.8V118H93.2999V83.9H100.8Z" fill="white"/>
<path d="M112 74H153.343V84.4711H124.457V95.6644H150.093V106.136H124.457V117.329H154.065V127.8H112.542V74H112Z" fill="white"/>
<defs>
<linearGradient id="paint0_linear" x1="247.911" y1="247.91" x2="-28.9509" y2="-28.9497" gradientUnits="userSpaceOnUse">
<stop offset="0.3475" stop-color="#087CFA"/>
<stop offset="0.8562" stop-color="#FE2857"/>
<stop offset="1" stop-color="#FE2857"/>
</linearGradient>
<linearGradient id="paint1_linear" x1="204.307" y1="204.306" x2="28.1222" y2="28.1225" gradientUnits="userSpaceOnUse">
<stop offset="0.3475" stop-color="#087CFA"/>
<stop offset="0.8562" stop-color="#FE2857"/>
<stop offset="1" stop-color="#FE2857"/>
</linearGradient>
<linearGradient id="paint2_linear" x1="227.33" y1="227.329" x2="-2.01309" y2="-2.01221" gradientUnits="userSpaceOnUse">
<stop stop-color="#087CFA"/>
<stop offset="0.2816" stop-color="#0855FA"/>
<stop offset="0.7644" stop-color="#E0326B"/>
<stop offset="0.7721" stop-color="#FE2857"/>
<stop offset="1" stop-color="#FE2857"/>
</linearGradient>
<linearGradient id="paint3_linear" x1="240.085" y1="85.5889" x2="37.1119" y2="4.26219" gradientUnits="userSpaceOnUse">
<stop offset="0.3475" stop-color="#087CFA"/>
<stop offset="0.7698" stop-color="#F01A72"/>
<stop offset="0.9872" stop-color="#FE2857"/>
</linearGradient>
<linearGradient id="paint4_linear" x1="248.221" y1="231.389" x2="65.6372" y2="200.691" gradientUnits="userSpaceOnUse">
<stop offset="0.2513" stop-color="#087CFA" stop-opacity="0.9703"/>
<stop offset="0.5721" stop-color="#087CFA"/>
<stop offset="0.8921" stop-color="#087CFA" stop-opacity="0.5"/>
</linearGradient>
<linearGradient id="paint5_linear" x1="205.887" y1="33.8442" x2="211.843" y2="232.006" gradientUnits="userSpaceOnUse">
<stop offset="0.018393" stop-color="#429EFA"/>
<stop offset="0.518" stop-color="#087CFA"/>
<stop offset="1" stop-color="#965CF3" stop-opacity="0.9769"/>
</linearGradient>
<linearGradient id="paint6_linear" x1="55.9565" y1="211.51" x2="33.9639" y2="33.9662" gradientUnits="userSpaceOnUse">
<stop offset="0.323" stop-color="#087CFA"/>
<stop offset="0.7201" stop-color="#DF0373"/>
<stop offset="1" stop-color="#FE2857"/>
</linearGradient>
<linearGradient id="paint7_linear" x1="120.076" y1="38.0219" x2="72.425" y2="76.0508" gradientUnits="userSpaceOnUse">
<stop offset="0.1018" stop-color="#FF00BB" stop-opacity="0"/>
<stop offset="0.8133" stop-color="#FCBD36"/>
<stop offset="1" stop-color="white" stop-opacity="0.9"/>
</linearGradient>
<linearGradient id="paint8_linear" x1="229.092" y1="53.6364" x2="164.947" y2="43.0983" gradientUnits="userSpaceOnUse">
<stop offset="0.018393" stop-color="#00FFFA"/>
<stop offset="0.8562" stop-color="#07C3F2" stop-opacity="0"/>
</linearGradient>
<linearGradient id="paint9_linear" x1="130.901" y1="7.5112" x2="127.168" y2="36.4445" gradientUnits="userSpaceOnUse">
<stop offset="0.2032" stop-color="#087CFA"/>
<stop offset="1" stop-color="#6D6E71" stop-opacity="0"/>
</linearGradient>
<linearGradient id="paint10_linear" x1="187.257" y1="31.5082" x2="84.1671" y2="68.6207" gradientUnits="userSpaceOnUse">
<stop offset="0.1744" stop-color="#0861FA"/>
<stop offset="0.723" stop-color="#0855FA" stop-opacity="0"/>
</linearGradient>
<linearGradient id="paint11_linear" x1="246.942" y1="239" x2="64.3575" y2="208.302" gradientUnits="userSpaceOnUse">
<stop stop-color="#434FCF" stop-opacity="0"/>
<stop offset="1" stop-color="#1B6EEC"/>
</linearGradient>
<linearGradient id="paint12_linear" x1="128" y1="197.654" x2="128" y2="221.558" gradientUnits="userSpaceOnUse">
<stop offset="0.018393" stop-color="#42FFFA"/>
<stop offset="0.8562" stop-color="#07C3F2" stop-opacity="0"/>
</linearGradient>
<linearGradient id="paint13_linear" x1="217.932" y1="184.327" x2="160.66" y2="207.695" gradientUnits="userSpaceOnUse">
<stop offset="0.018393" stop-color="#FF39FF" stop-opacity="0.5"/>
<stop offset="0.8562" stop-color="#FF318C" stop-opacity="0"/>
</linearGradient>
<linearGradient id="paint14_linear" x1="215.004" y1="33.5702" x2="220.96" y2="231.732" gradientUnits="userSpaceOnUse">
<stop offset="0.018393" stop-color="#085EFA"/>
<stop offset="0.8562" stop-color="#FF45ED" stop-opacity="0"/>
</linearGradient>
<linearGradient id="paint15_linear" x1="187.38" y1="126.302" x2="229.074" y2="128.135" gradientUnits="userSpaceOnUse">
<stop offset="0.018393" stop-color="#42FFFA"/>
<stop offset="0.8562" stop-color="#07C3F2" stop-opacity="0"/>
</linearGradient>
<linearGradient id="paint16_linear" x1="153.534" y1="3.0307" x2="237.381" y2="155.604" gradientUnits="userSpaceOnUse">
<stop offset="0.018393" stop-color="#42FFFA"/>
<stop offset="0.8562" stop-color="#07C3F2" stop-opacity="0"/>
</linearGradient>
<linearGradient id="paint17_linear" x1="182.648" y1="37.3079" x2="211.055" y2="104.202" gradientUnits="userSpaceOnUse">
<stop offset="0.018393" stop-color="#42FFFA" stop-opacity="0.5"/>
<stop offset="0.8562" stop-color="#07C3F2" stop-opacity="0"/>
</linearGradient>
<linearGradient id="paint18_linear" x1="26.0368" y1="169.636" x2="57.1929" y2="43.6366" gradientUnits="userSpaceOnUse">
<stop offset="0.4995" stop-color="#FF318C" stop-opacity="0"/>
<stop offset="0.9613" stop-color="#FCBD36"/>
</linearGradient>
<linearGradient id="paint19_linear" x1="-9.03299" y1="213.974" x2="34.8334" y2="126.708" gradientUnits="userSpaceOnUse">
<stop offset="0.00131053" stop-color="#5AFFFA" stop-opacity="0.5"/>
<stop offset="0.9231" stop-color="#07C3F2" stop-opacity="0"/>
</linearGradient>
<linearGradient id="paint20_linear" x1="29.6146" y1="137.603" x2="69.0179" y2="115.61" gradientUnits="userSpaceOnUse">
<stop offset="0.018393" stop-color="#0855FA"/>
<stop offset="0.723" stop-color="#0855FA" stop-opacity="0"/>
</linearGradient>
<linearGradient id="paint21_linear" x1="56.2192" y1="56.2192" x2="182.391" y2="182.391" gradientUnits="userSpaceOnUse">
<stop offset="0.1196" stop-color="#5A044A"/>
<stop offset="0.3733" stop-color="#39032F"/>
<stop offset="0.7299" stop-color="#10010D"/>
<stop offset="0.9138"/>
</linearGradient>
</defs>
</svg>
