<!-- Copyright © 2000–2024 JetBrains s.r.o. -->
<svg width="16" height="16" viewBox="0 0 16 16" xmlns="http://www.w3.org/2000/svg">
  <path fill="#40b6e0" d="M8 5c3.31 0 6-.67 6-1.5S11.31 2 8 2s-6 .67-6 1.5S4.69 5 8 5m.8 8.99c-.26 0-.53.01-.8.01-.34 0-.67 0-1-.02V6.23c.33.01.66.02 1 .02 1.31 0 2.51-.11 3.5-.28v1.74c-.78.14-1.7.24-2.7.27v1.25c.6-.02 1.17-.07 1.7-.13v1.75c-.53.06-1.1.11-1.7.13v3Zm1.2-1.83v1.75c2.33-.21 4-.76 4-1.41v-1.75c0 .65-1.68 1.2-4 1.41m-4 0c-.88-.08-1.66-.2-2.3-.37v-1.25c.46.12 1 .22 1.6.29V9.08c-.6-.08-1.14-.17-1.6-.29V7.54c.64.16 1.42.29 2.3.37V6.16c-2.33-.21-4-.76-4-1.41v7.75c0 .65 1.67 1.21 4 1.41zm5.5-3.2v1.75C13.01 10.44 14 10 14 9.5V7.75c0 .5-.99.94-2.5 1.21m1-3.22v1.75c.93-.26 1.5-.61 1.5-.99V4.75c0 .38-.57.72-1.5.99" opacity=".7" style="isolation:isolate"/>
</svg>
