<!-- Copyright © 2000–2024 JetBrains s.r.o. -->
<svg width="16" height="16" viewBox="0 0 16 16" xmlns="http://www.w3.org/2000/svg">
  <path d="M7.05 11.67v1.76c0 .3-.25.55-.55.55s-.55-.25-.55-.55V8.7c0-.03.02-.06.03-.09q0-.045.03-.09a.4.4 0 0 1 .08-.12c.01-.01.02-.03.03-.04a.7.7 0 0 1 .14-.1c.01 0 .02-.01.03-.02.05-.02.09-.02.14-.03.02 0 .04-.01.06-.01h.06c.78.08 1.63.09 2.41.04a.547.547 0 0 1 .07 1.09c-.34.02-.68.03-1.04.03-.32 0-.63-.03-.95-.05v1.24c.47.03.96.05 1.43.03.3.01.56.23.57.53 0 .3-.23.56-.53.57h-.52c-.32 0-.63-.03-.95-.05zM14 4.5v7c0 1.59-2.84 2.4-5.48 2.49H8.5c-.27 0-.49-.21-.5-.48 0-.28.21-.51.48-.52 3.01-.1 4.52-1.01 4.52-1.49v-.9c-.47.29-1.1.54-1.88.73-.04 0-.08.01-.12.01a.497.497 0 0 1-.12-.98C12.43 9.99 13 9.45 13 9.17v-.9c-.36.22-.81.42-1.36.58a.5.5 0 0 1-.28-.96C12.49 7.55 13 7.1 13 6.83v-.89C11.87 6.64 9.93 7 8 7c-2.98 0-6-.86-6-2.5 0-3.28 12-3.28 12 0m-1 0C13 3.9 11.01 3 8 3s-5 .9-5 1.5S4.99 6 8 6s5-.9 5-1.5m-8.34 8.02c-1.18-.35-1.61-.8-1.61-1.02v-.81c.21.13.45.25.75.36a.54.54 0 0 0 .71-.31c.11-.28-.03-.6-.32-.71-.91-.35-1.15-.7-1.15-.86v-.8c.35.21.79.39 1.29.54.29.09.6-.08.68-.37.09-.29-.08-.6-.37-.68-.57-.17-1.02-.38-1.31-.61-.01 0-.02-.02-.04-.03-.47-.33-1.2-.06-1.33.54-.02.05-.03.11-.03.17v3.58c0 .87.85 1.61 2.39 2.07.05.02.11.02.16.02.24 0 .46-.15.53-.39.09-.29-.08-.6-.37-.69z"/>
</svg>
