<svg width="128" height="128" viewBox="0 0 128 128" fill="none" xmlns="http://www.w3.org/2000/svg">
<g filter="url(#filter0_d_5739_40236)">
<g clip-path="url(#clip0_5739_40236)">
<rect x="12" y="12" width="104" height="104" rx="23" fill="#22272C"/>
<g clip-path="url(#clip1_5739_40236)">
<path d="M56.5295 37.5454H56.5316C73.5833 37.5454 87.4271 51.3897 87.4271 68.4419V68.4434C87.4271 85.4955 73.5834 99.3397 56.5319 99.3397H56.5297C39.4772 99.3397 25.6328 85.4948 25.6328 68.4417V68.4431C25.6328 51.3902 39.4771 37.5454 56.5295 37.5454Z" fill="url(#paint0_linear_5739_40236)"/>
<path d="M59.0618 76.7417L91.537 76.7417C97.5194 76.7417 102.369 71.892 102.369 65.9095L102.369 33.4345C102.369 27.4521 97.5194 22.6023 91.537 22.6023L59.0619 22.6023C53.0794 22.6023 48.2297 27.452 48.2297 33.4345L48.2297 65.9095C48.2297 71.8919 53.0794 76.7417 59.0618 76.7417Z" fill="url(#paint1_linear_5739_40236)"/>
<path d="M48.2305 38.8457L86.1258 38.8457L86.1257 76.7409L48.2305 76.741L48.2305 38.8457Z" fill="black"/>
<path d="M53.6426 65.9126L74.6208 65.9126V71.3263L53.6426 71.3263L53.6426 65.9126Z" fill="white"/>
</g>
</g>
</g>
<path d="M12 84H116V93C116 105.703 105.703 116 93 116H35C22.2975 116 12 105.703 12 93V84Z" fill="#EFEFEF"/>
<path d="M26 94H30.8241C31.6215 94 32.3219 94.144 32.9253 94.4321C33.5339 94.7202 34.0008 95.1288 34.3261 95.6579C34.6566 96.1817 34.8219 96.7867 34.8219 97.4729C34.8219 98.1748 34.654 98.7902 34.3182 99.3193C33.9877 99.8483 33.5155 100.26 32.9017 100.553C32.2878 100.846 31.5743 100.993 30.7611 100.993H28.4396V105H26V94ZM30.6352 99.0207C30.9762 99.0207 31.2727 98.9605 31.5245 98.84C31.7763 98.7143 31.9704 98.5362 32.1068 98.3057C32.2485 98.0752 32.3193 97.8029 32.3193 97.4886C32.3193 97.1795 32.2485 96.9124 32.1068 96.6871C31.9704 96.4619 31.7763 96.289 31.5245 96.1686C31.2727 96.0429 30.9762 95.98 30.6352 95.98H28.4396V99.0207H30.6352Z" fill="black"/>
<path d="M40.602 100.16H43.1675L46.0005 105H43.2934L40.602 100.16ZM36.9505 94H41.7745C42.572 94 43.2724 94.144 43.8757 94.4321C44.4843 94.7202 44.9513 95.1288 45.2765 95.6579C45.6071 96.1817 45.7723 96.7867 45.7723 97.4729C45.7723 98.1695 45.6044 98.785 45.2687 99.3193C44.9381 99.8483 44.466 100.26 43.8521 100.553C43.2383 100.846 42.5248 100.993 41.7116 100.993H39.39V105H36.9505V94ZM41.5857 99.0207C41.9267 99.0207 42.2231 98.9605 42.4749 98.84C42.7268 98.7143 42.9209 98.5362 43.0573 98.3057C43.1989 98.0752 43.2698 97.8029 43.2698 97.4886C43.2698 97.1795 43.1989 96.9124 43.0573 96.6871C42.9209 96.4619 42.7268 96.289 42.4749 96.1686C42.2231 96.0429 41.9267 95.98 41.5857 95.98H39.39V99.0207H41.5857Z" fill="black"/>
<path d="M48.5004 94H56.5982V96.1214H50.877V98.455H56.0631V100.514H50.877V102.879H56.7556V105H48.5004V94Z" fill="black"/>
<path d="M58.3603 94H60.9258L63.6959 101.951L66.2929 94H68.8741L64.9472 105H62.3108L58.3603 94Z" fill="black"/>
<path d="M70.9239 94H73.4422V105H70.9239V94Z" fill="black"/>
<path d="M76.4486 94H84.5465V96.1214H78.8252V98.455H84.0113V100.514H78.8252V102.879H84.7039V105H76.4486V94Z" fill="black"/>
<path d="M88.8268 94L91.1169 102.077L93.3518 94H96.0433L98.3491 102.077L100.537 94H103L99.7813 105H96.9404L94.6739 96.8757L92.3839 105H89.5665L86.3243 94H88.8268Z" fill="black"/>
<defs>
<filter id="filter0_d_5739_40236" x="8.75" y="10" width="110.5" height="110.5" filterUnits="userSpaceOnUse" color-interpolation-filters="sRGB">
<feFlood flood-opacity="0" result="BackgroundImageFix"/>
<feColorMatrix in="SourceAlpha" type="matrix" values="0 0 0 0 0 0 0 0 0 0 0 0 0 0 0 0 0 0 127 0" result="hardAlpha"/>
<feOffset dy="1.25"/>
<feGaussianBlur stdDeviation="1.625"/>
<feComposite in2="hardAlpha" operator="out"/>
<feColorMatrix type="matrix" values="0 0 0 0 0 0 0 0 0 0 0 0 0 0 0 0 0 0 0.35 0"/>
<feBlend mode="normal" in2="BackgroundImageFix" result="effect1_dropShadow_5739_40236"/>
<feBlend mode="normal" in="SourceGraphic" in2="effect1_dropShadow_5739_40236" result="shape"/>
</filter>
<linearGradient id="paint0_linear_5739_40236" x1="32.5288" y1="102.336" x2="70.9064" y2="54.3637" gradientUnits="userSpaceOnUse">
<stop stop-color="#3BEA62"/>
<stop offset="0.543588" stop-color="#0894FA"/>
<stop offset="1" stop-color="#764EFF"/>
</linearGradient>
<linearGradient id="paint1_linear_5739_40236" x1="100.809" y1="23.8499" x2="62.4414" y2="62.2178" gradientUnits="userSpaceOnUse">
<stop stop-color="#3BEA62"/>
<stop offset="0.543588" stop-color="#0894FA"/>
<stop offset="1" stop-color="#764EFF"/>
</linearGradient>
<clipPath id="clip0_5739_40236">
<rect x="12" y="12" width="104" height="104" rx="23" fill="white"/>
</clipPath>
<clipPath id="clip1_5739_40236">
<rect width="76.7379" height="76.7379" fill="white" transform="translate(25.6309 22.6021)"/>
</clipPath>
</defs>
</svg>
