<svg width="24" height="24" viewBox="0 0 24 24" fill="none" xmlns="http://www.w3.org/2000/svg">
<path d="M8.80005 9.4998L9.30005 0.799805L14.4 3.5998L8.80005 9.4998Z" fill="url(#paint0_linear)"/>
<path d="M8.80005 9.49961L9.10005 4.09961L14.4 3.59961L8.80005 9.49961Z" fill="url(#paint1_linear)"/>
<path d="M8.80005 9.4998L9.10005 4.1998L9.30005 0.799805L2.80005 4.7998L0.800049 17.2998L8.80005 9.4998Z" fill="#00FF6A"/>
<path d="M8.80005 9.49961L9.10005 4.09961L2.80005 4.79961L5.10005 13.1996L8.80005 9.49961Z" fill="url(#paint2_linear)"/>
<path d="M8.80005 9.4998L9.30005 0.799805L2.80005 4.7998L5.10005 13.1998L8.80005 9.4998Z" fill="url(#paint3_linear)"/>
<path d="M8.80002 9.2998L8.40002 17.3998L14.1 21.9998L19.7 23.1998L23.2 15.1998L8.80002 9.2998Z" fill="url(#paint4_linear)"/>
<path d="M18 14.9998L13 11.8998L13.6 11.2998L23.2 15.1998L18 14.9998Z" fill="url(#paint5_linear)"/>
<path d="M18.0001 15L14.1001 22L19.7001 23.2L23.2001 15.2L18.0001 15Z" fill="url(#paint6_linear)"/>
<path d="M8.60003 12.1997L8.40002 17.3997L14.1 21.9997L8.60003 12.1997Z" fill="url(#paint7_linear)"/>
<path d="M8.80005 12.5996L19.7 23.1996L14.1 21.9996L8.80005 12.5996Z" fill="url(#paint8_linear)"/>
<path d="M8.80005 12.5996L19.7 23.1996L14.1 21.9996L8.80005 12.5996Z" fill="url(#paint9_linear)"/>
<path d="M0.800049 17.2998L8.80005 9.4998L2.80005 4.7998L0.800049 17.2998Z" fill="url(#paint10_linear)"/>
<path d="M0.800049 17.2998L6.70005 11.2998L2.80005 4.7998L0.800049 17.2998Z" fill="url(#paint11_linear)"/>
<path d="M23.2001 8.49961L19.9 1.59961L14.4 3.59961L0.800049 17.2996L8.00005 22.5996L23.2001 8.49961Z" fill="url(#paint12_linear)"/>
<path d="M8.70002 12.5996L8.40002 17.3996L11.2 19.6996L12.2 18.6996L8.70002 12.5996Z" fill="url(#paint13_linear)"/>
<path d="M0.800049 17.2996L8.70005 12.5996L8.00005 22.5996L0.800049 17.2996Z" fill="url(#paint14_linear)"/>
<path d="M0.800049 17.2996L8.70005 12.5996L8.00005 22.5996L0.800049 17.2996Z" fill="url(#paint15_linear)"/>
<path d="M4.90002 14.7996L8.70002 12.5996L8.40002 17.2996L4.90002 14.7996Z" fill="url(#paint16_linear)"/>
<path d="M0.800049 17.2996L8.70005 12.5996L19.9 1.59961L14.4 3.59961L0.800049 17.2996Z" fill="url(#paint17_linear)"/>
<path d="M0.800049 17.2996L8.60005 12.5996L19.9 1.59961L14.4 3.59961L0.800049 17.2996Z" fill="url(#paint18_linear)"/>
<path d="M16.6 4.79961L19.9 1.59961L14.4 3.59961L16.6 4.79961Z" fill="url(#paint19_linear)"/>
<path d="M23.2001 8.39961L11.2 19.5996L6.80005 11.2996L14.4 3.59961L23.2001 8.39961Z" fill="url(#paint20_linear)"/>
<path d="M18.1 13.0998L8.80005 9.2998L16.9 14.2998L18.1 13.0998Z" fill="url(#paint21_linear)"/>
<path d="M16.6 4.79961L8.70005 12.5996L0.800049 17.2996L6.80005 11.2996L14.4 3.59961L16.6 4.79961Z" fill="url(#paint22_linear)"/>
<path d="M16.7 4.79961L8.70005 12.5996L0.800049 17.2996L6.80005 11.2996L14.4 3.59961L16.7 4.79961Z" fill="url(#paint23_linear)"/>
<path d="M16.7001 4.59961L19.9001 1.59961L23.2001 8.49961L16.7001 4.59961Z" fill="url(#paint24_linear)"/>
<path d="M8.90002 9.19961L12.5 10.9996L14.4 3.59961L8.90002 9.19961Z" fill="url(#paint25_linear)"/>
<path d="M14.4 3.5998L9.30002 0.799805L8.90002 9.1998L14.4 3.5998Z" fill="url(#paint26_linear)"/>
<path d="M19 5H5V19H19V5Z" fill="url(#paint27_linear)"/>
<path d="M13 16H7V17H13V16Z" fill="white"/>
<path d="M13.0127 7.0127H14.3654V11.86H16.9581V12.9872H13.0127V7.0127Z" fill="white"/>
<path d="M6.69995 10.0563C6.69995 8.36536 7.93995 6.8999 9.85631 6.8999C10.9836 6.8999 11.66 7.23808 12.2236 7.80172L11.3218 8.81627C10.8709 8.47808 10.42 8.1399 9.74359 8.1399C8.72904 8.1399 8.05268 8.92899 8.05268 9.94354C8.05268 10.9581 8.72904 11.8599 9.74359 11.8599C10.42 11.8599 10.8709 11.6344 11.3218 11.1835L12.1109 11.9726C11.5472 12.7617 10.8709 13.0999 9.74359 13.0999C7.93995 13.0999 6.69995 11.7472 6.69995 10.0563Z" fill="white"/>
<defs>
<linearGradient id="paint0_linear" x1="8.83755" y1="5.1489" x2="15.284" y2="5.1489" gradientUnits="userSpaceOnUse">
<stop stop-color="#FF318C"/>
<stop offset="0.149" stop-color="#FB348C"/>
<stop offset="0.2849" stop-color="#F03C8C"/>
<stop offset="0.4157" stop-color="#DE4A8C"/>
<stop offset="0.5434" stop-color="#C45D8B"/>
<stop offset="0.6689" stop-color="#A2778B"/>
<stop offset="0.7926" stop-color="#79958A"/>
<stop offset="0.9128" stop-color="#49B98A"/>
<stop offset="1" stop-color="#21D789"/>
</linearGradient>
<linearGradient id="paint1_linear" x1="8.06965" y1="7.18071" x2="17.0249" y2="3.68481" gradientUnits="userSpaceOnUse">
<stop offset="0.1069" stop-color="#FF318C"/>
<stop offset="0.2181" stop-color="#FB338C"/>
<stop offset="0.3194" stop-color="#F0388E"/>
<stop offset="0.4168" stop-color="#DE4190"/>
<stop offset="0.5114" stop-color="#C44E93"/>
<stop offset="0.6008" stop-color="#A45E97"/>
<stop offset="0.6375" stop-color="#976A96"/>
<stop offset="0.7051" stop-color="#758992"/>
<stop offset="0.7956" stop-color="#3FBC8C"/>
<stop offset="0.8402" stop-color="#21D789"/>
</linearGradient>
<linearGradient id="paint2_linear" x1="8.04175" y1="3.22761" x2="3.14545" y2="12.0244" gradientUnits="userSpaceOnUse">
<stop offset="0.0294109" stop-color="#00FF6A"/>
<stop offset="0.375" stop-color="#21D789"/>
<stop offset="0.9032" stop-color="#009AE5"/>
</linearGradient>
<linearGradient id="paint3_linear" x1="9.23785" y1="6.7744" x2="5.98135" y2="7.0618" gradientUnits="userSpaceOnUse">
<stop offset="0.0294109" stop-color="#A6FF9E"/>
<stop offset="0.6015" stop-color="#21D789" stop-opacity="0"/>
</linearGradient>
<linearGradient id="paint4_linear" x1="12.8073" y1="16.091" x2="23.2546" y2="17.5764" gradientUnits="userSpaceOnUse">
<stop offset="0.3444" stop-color="#21D789"/>
<stop offset="0.8032" stop-color="#009AE5"/>
<stop offset="0.9931" stop-color="#0855FA"/>
</linearGradient>
<linearGradient id="paint5_linear" x1="13.3692" y1="16.0208" x2="21.4282" y2="11.568" gradientUnits="userSpaceOnUse">
<stop offset="0.0962983" stop-color="#00FF6A"/>
<stop offset="0.9654" stop-color="#00FF6A" stop-opacity="0"/>
</linearGradient>
<linearGradient id="paint6_linear" x1="11.7736" y1="23.0121" x2="24.0946" y2="16.2044" gradientUnits="userSpaceOnUse">
<stop stop-color="#42FFFA" stop-opacity="0.5"/>
<stop offset="0.9989" stop-color="#00FF6A" stop-opacity="0"/>
</linearGradient>
<linearGradient id="paint7_linear" x1="15.137" y1="17.7814" x2="10.795" y2="17.0151" gradientUnits="userSpaceOnUse">
<stop offset="0.0521494" stop-color="#00FF6A"/>
<stop offset="1" stop-color="#009AE5"/>
</linearGradient>
<linearGradient id="paint8_linear" x1="23.3683" y1="18.7961" x2="9.37525" y2="17.4862" gradientUnits="userSpaceOnUse">
<stop offset="0.1212" stop-color="#21D789" stop-opacity="0"/>
<stop offset="0.7868" stop-color="#00FF6A"/>
</linearGradient>
<linearGradient id="paint9_linear" x1="15.6033" y1="16.8494" x2="12.6886" y2="19.2107" gradientUnits="userSpaceOnUse">
<stop offset="0.0962983" stop-color="#42FFFA"/>
<stop offset="0.9654" stop-color="#42FFFA" stop-opacity="0"/>
</linearGradient>
<linearGradient id="paint10_linear" x1="7.07075" y1="4.4956" x2="0.357851" y2="19.1418" gradientUnits="userSpaceOnUse">
<stop offset="0.0913979" stop-color="#00FF6A"/>
<stop offset="0.759" stop-color="#009AE5"/>
</linearGradient>
<linearGradient id="paint11_linear" x1="1.93275" y1="7.8543" x2="4.35915" y2="16.6021" gradientUnits="userSpaceOnUse">
<stop offset="0.1163" stop-color="#21D789" stop-opacity="0.6"/>
<stop offset="1" stop-color="#009AE5"/>
</linearGradient>
<linearGradient id="paint12_linear" x1="21.4125" y1="2.97231" x2="-1.22235" y2="26.8779" gradientUnits="userSpaceOnUse">
<stop offset="0.0913979" stop-color="#21D789"/>
<stop offset="0.9032" stop-color="#009AE5"/>
</linearGradient>
<linearGradient id="paint13_linear" x1="12.2382" y1="22.2357" x2="7.96422" y2="12.9753" gradientUnits="userSpaceOnUse">
<stop offset="0.00994756" stop-color="#009AE5"/>
<stop offset="0.9654" stop-color="#009AE5" stop-opacity="0"/>
</linearGradient>
<linearGradient id="paint14_linear" x1="0.750049" y1="17.5884" x2="8.66935" y2="17.5884" gradientUnits="userSpaceOnUse">
<stop offset="0.0556783" stop-color="#009AE5" stop-opacity="0.4"/>
<stop offset="0.7897" stop-color="#009AE5"/>
</linearGradient>
<linearGradient id="paint15_linear" x1="2.10715" y1="12.7488" x2="7.66235" y2="17.4101" gradientUnits="userSpaceOnUse">
<stop offset="0.1196" stop-color="#42FFFA"/>
<stop offset="0.6743" stop-color="#42FFFA" stop-opacity="0"/>
</linearGradient>
<linearGradient id="paint16_linear" x1="4.94712" y1="14.9522" x2="8.66932" y2="14.9522" gradientUnits="userSpaceOnUse">
<stop offset="0.0556783" stop-color="#009AE5" stop-opacity="0.4"/>
<stop offset="1" stop-color="#087CFA"/>
</linearGradient>
<linearGradient id="paint17_linear" x1="4.56505" y1="16.5192" x2="18.7356" y2="-0.861191" gradientUnits="userSpaceOnUse">
<stop stop-color="#0697DC"/>
<stop offset="0.9032" stop-color="#00FF6A"/>
</linearGradient>
<linearGradient id="paint18_linear" x1="13.1699" y1="11.6326" x2="10.552" y2="9.62131" gradientUnits="userSpaceOnUse">
<stop offset="0.0962983" stop-color="#6EFFA3"/>
<stop offset="0.6015" stop-color="#21D789" stop-opacity="0"/>
</linearGradient>
<linearGradient id="paint19_linear" x1="19.2135" y1="3.67191" x2="15.5739" y2="1.88401" gradientUnits="userSpaceOnUse">
<stop offset="0.0962983" stop-color="#6EFFA3"/>
<stop offset="0.9654" stop-color="#FCF84A" stop-opacity="0"/>
</linearGradient>
<linearGradient id="paint20_linear" x1="21.7653" y1="18.34" x2="6.82365" y2="4.16471" gradientUnits="userSpaceOnUse">
<stop offset="0.5747" stop-color="#0CAFA3" stop-opacity="0.1365"/>
<stop offset="1" stop-color="#07C3F2" stop-opacity="0.88"/>
</linearGradient>
<linearGradient id="paint21_linear" x1="6.69255" y1="8.6544" x2="18.8202" y2="14.3294" gradientUnits="userSpaceOnUse">
<stop offset="0.4862" stop-color="#087CFA" stop-opacity="0"/>
<stop offset="1" stop-color="#21D789"/>
</linearGradient>
<linearGradient id="paint22_linear" x1="11.2002" y1="13.0668" x2="9.03445" y2="11.3212" gradientUnits="userSpaceOnUse">
<stop offset="0.311" stop-color="#65FFC5" stop-opacity="0.88"/>
<stop offset="0.4437" stop-color="#56F2BE" stop-opacity="0.6801"/>
<stop offset="0.6983" stop-color="#2FD0AD" stop-opacity="0.2969"/>
<stop offset="0.8955" stop-color="#0CB29E" stop-opacity="0"/>
</linearGradient>
<linearGradient id="paint23_linear" x1="10.2317" y1="13.8256" x2="7.03915" y2="7.88741" gradientUnits="userSpaceOnUse">
<stop offset="0.0962983" stop-color="#42FFFA"/>
<stop offset="0.6336" stop-color="#42FFFA" stop-opacity="0"/>
</linearGradient>
<linearGradient id="paint24_linear" x1="24.7804" y1="6.64451" x2="17.9267" y2="3.27771" gradientUnits="userSpaceOnUse">
<stop offset="0.1514" stop-color="#00865B"/>
<stop offset="0.2496" stop-color="#048D64" stop-opacity="0.8794"/>
<stop offset="0.412" stop-color="#0EA07D" stop-opacity="0.6799"/>
<stop offset="0.6187" stop-color="#1FBFA6" stop-opacity="0.426"/>
<stop offset="0.8591" stop-color="#37EADF" stop-opacity="0.1306"/>
<stop offset="0.9654" stop-color="#42FFFA" stop-opacity="0"/>
</linearGradient>
<linearGradient id="paint25_linear" x1="21.3248" y1="1.95761" x2="7.81992" y2="11.1523" gradientUnits="userSpaceOnUse">
<stop offset="0.1446" stop-color="#FF67AA"/>
<stop offset="0.2328" stop-color="#FB69A9" stop-opacity="0.8603"/>
<stop offset="0.3132" stop-color="#F06FA6" stop-opacity="0.7328"/>
<stop offset="0.3907" stop-color="#DE7AA2" stop-opacity="0.6101"/>
<stop offset="0.4663" stop-color="#C48A9B" stop-opacity="0.4903"/>
<stop offset="0.5406" stop-color="#A29E93" stop-opacity="0.3725"/>
<stop offset="0.6139" stop-color="#79B788" stop-opacity="0.2564"/>
<stop offset="0.6864" stop-color="#48D47C" stop-opacity="0.1415"/>
<stop offset="0.7565" stop-color="#10F56E" stop-opacity="0.0303353"/>
<stop offset="0.7757" stop-color="#00FF6A" stop-opacity="0"/>
</linearGradient>
<linearGradient id="paint26_linear" x1="7.33882" y1="4.7532" x2="12.3672" y2="5.3758" gradientUnits="userSpaceOnUse">
<stop offset="0.2258" stop-color="#FF52A0"/>
<stop offset="0.4026" stop-color="#FF4E9E" stop-opacity="0.6404"/>
<stop offset="0.5635" stop-color="#FF4397" stop-opacity="0.3132"/>
<stop offset="0.7175" stop-color="#FF318C" stop-opacity="0"/>
</linearGradient>
<linearGradient id="paint27_linear" x1="4.82391" y1="5.03376" x2="18.7446" y2="18.5474" gradientUnits="userSpaceOnUse">
<stop stop-color="#007859"/>
<stop offset="0.0882966" stop-color="#00533E"/>
<stop offset="0.1921" stop-color="#002F23"/>
<stop offset="0.2894" stop-color="#001510"/>
<stop offset="0.3766" stop-color="#000604"/>
<stop offset="0.4452"/>
<stop offset="0.9138"/>
</linearGradient>
</defs>
</svg>
