<svg width="128" height="128" viewBox="0 0 128 128" fill="none" xmlns="http://www.w3.org/2000/svg">
<path d="M47.7 51.4L50.2 6L76.5999 20.6L47.7 51.4Z" fill="url(#paint0_linear)"/>
<path d="M47.7 51.4001L49.2999 23.2001L76.5999 20.6001L47.7 51.4001Z" fill="url(#paint1_linear)"/>
<path d="M47.7 51.4L49.2 23.6L50.2 6L16.7 27.1L6 91.3L47.7 51.4Z" fill="#00FF6A"/>
<path d="M47.7 51.4002L49.2999 23.2002L16.7 27.1002L28.5 70.0002L47.7 51.4002Z" fill="url(#paint2_linear)"/>
<path d="M47.7 51.4L50.2 6L16.7 27.1L28.5 70L47.7 51.4Z" fill="url(#paint3_linear)"/>
<path d="M47.7 50.2998L45.4 91.8998L74.7 115.7L103.7 122L122 80.5998L47.7 50.2998Z" fill="url(#paint4_linear)"/>
<path d="M94.7 79.4001L69 63.6001L72.1 60.1001L122 80.6001L94.7 79.4001Z" fill="url(#paint5_linear)"/>
<path d="M94.7 79.3999L74.7 115.7L103.7 122L122 80.5999L94.7 79.3999Z" fill="url(#paint6_linear)"/>
<path d="M46.5 65L45.4 91.9L74.7 115.7L46.5 65Z" fill="url(#paint7_linear)"/>
<path d="M47.5 67.2998L103.7 122L74.7 115.7L47.5 67.2998Z" fill="url(#paint8_linear)"/>
<path d="M47.5 67.2998L103.7 122L74.7 115.7L47.5 67.2998Z" fill="url(#paint9_linear)"/>
<path d="M6 91.3001L47.7 51.4001L16.7 27.1001L6 91.3001Z" fill="url(#paint10_linear)"/>
<path d="M6 91.3001L36.7 60.5001L16.7 27.1001L6 91.3001Z" fill="url(#paint11_linear)"/>
<path d="M122 46.0999L104.8 10.3999L76.6 20.5999L6 91.2999L43.6 118.7L122 46.0999Z" fill="url(#paint12_linear)"/>
<path d="M46.9 67L45.4 91.9L59.8 103.7L65.2 98.7L46.9 67Z" fill="url(#paint13_linear)"/>
<path d="M6 91.3L46.8 67L43.6 118.7L6 91.3Z" fill="url(#paint14_linear)"/>
<path d="M6 91.3L46.8 67L43.6 118.7L6 91.3Z" fill="url(#paint15_linear)"/>
<path d="M27.6 78.4L46.8 67L45.2 91.5L27.6 78.4Z" fill="url(#paint16_linear)"/>
<path d="M6 91.2999L46.7 67.0999L104.8 10.3999L76.6 20.5999L6 91.2999Z" fill="url(#paint17_linear)"/>
<path d="M6 91.2999L46.7 67.0999L104.8 10.3999L76.6 20.5999L6 91.2999Z" fill="url(#paint18_linear)"/>
<path d="M87.9 26.8999L104.8 10.3999L76.6 20.5999L87.9 26.8999Z" fill="url(#paint19_linear)"/>
<path d="M121.6 45.6001L60 103.2L37 60.4001L76.6 20.6001L121.6 45.6001Z" fill="url(#paint20_linear)"/>
<path d="M95.7 69.7999L47.5 49.8999V50.1999L89.1 75.8999L95.7 69.7999Z" fill="url(#paint21_linear)"/>
<path d="M87.9 26.9001L46.8 67.0001L6 91.3001L37 60.4001L76.6 20.6001L87.9 26.9001Z" fill="url(#paint22_linear)"/>
<path d="M88.2 26.6001L46.8 67.0001L6 91.3001L37 60.4001L76.6 20.6001L88.2 26.6001Z" fill="url(#paint23_linear)"/>
<path d="M88.3 25.8999L104.8 10.3999L122 46.0999L88.3 25.8999Z" fill="url(#paint24_linear)"/>
<path d="M47.8 49.5001L66.7 58.9001L76.6 20.6001L47.8 49.5001Z" fill="url(#paint25_linear)"/>
<path d="M76.6 20.6L50.2001 6L47.8 49.5L76.6 20.6Z" fill="url(#paint26_linear)"/>
<path d="M100 28H28V100H100V28Z" fill="url(#paint27_linear)"/>
<g opacity="0.3">
<path opacity="0.3" d="M100 71.6999L47.8 50.3999L45.5 91.6999L55.7 99.9999H100V71.6999Z" fill="url(#paint28_linear)"/>
<path opacity="0.3" d="M100 100V79.5002L94.5 79.2002L83.1 100H100Z" fill="url(#paint29_linear)"/>
<path opacity="0.3" d="M28 28V67.1L28.1 71.2L47.8 51.4L49.1 28H28Z" fill="url(#paint30_linear)"/>
<path opacity="0.3" d="M28 67.0999L28.1 70.3999L47.8 51.3999L28 35.8999V67.0999Z" fill="url(#paint31_linear)"/>
<path opacity="0.3" d="M49.1 28L47.9 49.6L69.5 28H49.1Z" fill="url(#paint32_linear)"/>
<path opacity="0.3" d="M100 66.2V28H69.4L28 69.5V100H63.5L100 66.2Z" fill="url(#paint33_linear)"/>
<path opacity="0.3" d="M28 69.5V78.5L46.9 67.1L86.9 28H69.4L28 69.5Z" fill="url(#paint34_linear)"/>
<path opacity="0.3" d="M28 99.9999H44.9L46.9 66.8999L28 78.1999V99.9999Z" fill="url(#paint35_linear)"/>
</g>
<path d="M64 86.3999H36.9V90.8999H64V86.3999Z" fill="white"/>
<path d="M64.6926 36.9946H70.629V58.8604H82.3039V63.8073H64.6926V36.9946Z" fill="white"/>
<path d="M36 50.5495C36 42.8322 41.7385 36.5 50.0495 36.5C55.0954 36.5 58.1625 38.182 60.636 40.6555L56.8763 45.0088C54.7986 43.129 52.7208 41.9417 49.9505 41.9417C45.3993 41.9417 42.1343 45.7014 42.1343 50.3516V50.4505C42.1343 55.1007 45.3004 58.9594 49.9505 58.9594C53.0177 58.9594 54.8975 57.7721 57.0742 55.7933L60.8339 59.6519C58.0636 62.6201 54.9965 64.5 49.7526 64.5C41.8375 64.4011 36 58.3657 36 50.5495Z" fill="white"/>
<defs>
<linearGradient id="paint0_linear" x1="47.6956" y1="28.6797" x2="80.9307" y2="28.6797" gradientUnits="userSpaceOnUse">
<stop  offset="0" stop-color="#FF318C"/>
<stop offset="0.149" stop-color="#FB348C"/>
<stop offset="0.2849" stop-color="#F03C8C"/>
<stop offset="0.4157" stop-color="#DE4A8C"/>
<stop offset="0.5434" stop-color="#C45D8B"/>
<stop offset="0.6689" stop-color="#A2778B"/>
<stop offset="0.7926" stop-color="#79958A"/>
<stop offset="0.9128" stop-color="#49B98A"/>
<stop offset="1" stop-color="#21D789"/>
</linearGradient>
<linearGradient id="paint1_linear" x1="43.7364" y1="39.156" x2="89.9061" y2="21.1325" gradientUnits="userSpaceOnUse">
<stop offset="0.1069" stop-color="#FF318C"/>
<stop offset="0.2181" stop-color="#FB338C"/>
<stop offset="0.3194" stop-color="#F0388E"/>
<stop offset="0.4168" stop-color="#DE4190"/>
<stop offset="0.5114" stop-color="#C44E93"/>
<stop offset="0.6008" stop-color="#A45E97"/>
<stop offset="0.6375" stop-color="#976A96"/>
<stop offset="0.7051" stop-color="#758992"/>
<stop offset="0.7956" stop-color="#3FBC8C"/>
<stop offset="0.8402" stop-color="#21D789"/>
</linearGradient>
<linearGradient id="paint2_linear" x1="43.5927" y1="18.7758" x2="18.3494" y2="64.1282" gradientUnits="userSpaceOnUse">
<stop offset="0.0294109" stop-color="#00FF6A"/>
<stop offset="0.375" stop-color="#21D789"/>
<stop offset="0.9032" stop-color="#009AE5"/>
</linearGradient>
<linearGradient id="paint3_linear" x1="49.7594" y1="37.0602" x2="32.9704" y2="38.5416" gradientUnits="userSpaceOnUse">
<stop offset="0.0294109" stop-color="#A6FF9E"/>
<stop offset="0.6015" stop-color="#21D789" stop-opacity="0"/>
</linearGradient>
<linearGradient id="paint4_linear" x1="68.1622" y1="85.092" x2="122.024" y2="92.7501" gradientUnits="userSpaceOnUse">
<stop offset="0.3444" stop-color="#21D789"/>
<stop offset="0.8032" stop-color="#009AE5"/>
<stop offset="0.9931" stop-color="#0855FA"/>
</linearGradient>
<linearGradient id="paint5_linear" x1="71.0589" y1="84.7305" x2="112.608" y2="61.7737" gradientUnits="userSpaceOnUse">
<stop offset="0.0962983" stop-color="#00FF6A"/>
<stop offset="0.9654" stop-color="#00FF6A" stop-opacity="0"/>
</linearGradient>
<linearGradient id="paint6_linear" x1="62.8323" y1="120.774" x2="126.354" y2="85.6759" gradientUnits="userSpaceOnUse">
<stop  offset="0" stop-color="#42FFFA" stop-opacity="0.5"/>
<stop offset="0.9989" stop-color="#00FF6A" stop-opacity="0"/>
</linearGradient>
<linearGradient id="paint7_linear" x1="80.1731" y1="93.8077" x2="57.7878" y2="89.8573" gradientUnits="userSpaceOnUse">
<stop offset="0.0521494" stop-color="#00FF6A"/>
<stop offset="1" stop-color="#009AE5"/>
</linearGradient>
<linearGradient id="paint8_linear" x1="122.609" y1="99.0398" x2="50.4679" y2="92.2861" gradientUnits="userSpaceOnUse">
<stop offset="0.1212" stop-color="#21D789" stop-opacity="0"/>
<stop offset="0.7868" stop-color="#00FF6A"/>
</linearGradient>
<linearGradient id="paint9_linear" x1="82.5768" y1="89.0034" x2="67.5502" y2="101.177" gradientUnits="userSpaceOnUse">
<stop offset="0.0962983" stop-color="#42FFFA"/>
<stop offset="0.9654" stop-color="#42FFFA" stop-opacity="0"/>
</linearGradient>
<linearGradient id="paint10_linear" x1="38.5868" y1="25.3117" x2="3.97819" y2="100.821" gradientUnits="userSpaceOnUse">
<stop offset="0.0913979" stop-color="#00FF6A"/>
<stop offset="0.759" stop-color="#009AE5"/>
</linearGradient>
<linearGradient id="paint11_linear" x1="12.0973" y1="42.6278" x2="24.6067" y2="87.7276" gradientUnits="userSpaceOnUse">
<stop offset="0.1163" stop-color="#21D789" stop-opacity="0.6"/>
<stop offset="1" stop-color="#009AE5"/>
</linearGradient>
<linearGradient id="paint12_linear" x1="112.526" y1="17.4589" x2="-4.16869" y2="140.706" gradientUnits="userSpaceOnUse">
<stop offset="0.0913979" stop-color="#21D789"/>
<stop offset="0.9032" stop-color="#009AE5"/>
</linearGradient>
<linearGradient id="paint13_linear" x1="65.228" y1="116.772" x2="43.1931" y2="69.0302" gradientUnits="userSpaceOnUse">
<stop offset="0.00994756" stop-color="#009AE5"/>
<stop offset="0.9654" stop-color="#009AE5" stop-opacity="0"/>
</linearGradient>
<linearGradient id="paint14_linear" x1="6" y1="92.8135" x2="46.8284" y2="92.8135" gradientUnits="userSpaceOnUse">
<stop offset="0.0556783" stop-color="#009AE5" stop-opacity="0.4"/>
<stop offset="0.7897" stop-color="#009AE5"/>
</linearGradient>
<linearGradient id="paint15_linear" x1="12.9965" y1="67.8627" x2="41.6365" y2="91.894" gradientUnits="userSpaceOnUse">
<stop offset="0.1196" stop-color="#42FFFA"/>
<stop offset="0.6743" stop-color="#42FFFA" stop-opacity="0"/>
</linearGradient>
<linearGradient id="paint16_linear" x1="27.6383" y1="79.2223" x2="46.8284" y2="79.2223" gradientUnits="userSpaceOnUse">
<stop offset="0.0556783" stop-color="#009AE5" stop-opacity="0.4"/>
<stop offset="1" stop-color="#087CFA"/>
</linearGradient>
<linearGradient id="paint17_linear" x1="25.6686" y1="87.301" x2="98.7256" y2="-2.30479" gradientUnits="userSpaceOnUse">
<stop  offset="0" stop-color="#0697DC"/>
<stop offset="0.9032" stop-color="#00FF6A"/>
</linearGradient>
<linearGradient id="paint18_linear" x1="70.0317" y1="62.108" x2="56.5346" y2="51.7383" gradientUnits="userSpaceOnUse">
<stop offset="0.0962983" stop-color="#6EFFA3"/>
<stop offset="0.6015" stop-color="#21D789" stop-opacity="0"/>
</linearGradient>
<linearGradient id="paint19_linear" x1="101.189" y1="21.0661" x2="82.4252" y2="11.8486" gradientUnits="userSpaceOnUse">
<stop offset="0.0962983" stop-color="#6EFFA3"/>
<stop offset="0.9654" stop-color="#FCF84A" stop-opacity="0"/>
</linearGradient>
<linearGradient id="paint20_linear" x1="114.345" y1="96.6885" x2="37.3129" y2="23.607" gradientUnits="userSpaceOnUse">
<stop offset="0.5747" stop-color="#0CAFA3" stop-opacity="0.1365"/>
<stop offset="1" stop-color="#07C3F2" stop-opacity="0.88"/>
</linearGradient>
<linearGradient id="paint21_linear" x1="36.6369" y1="46.7525" x2="99.1618" y2="76.01" gradientUnits="userSpaceOnUse">
<stop offset="0.4862" stop-color="#087CFA" stop-opacity="0"/>
<stop offset="1" stop-color="#21D789"/>
</linearGradient>
<linearGradient id="paint22_linear" x1="59.8765" y1="69.5021" x2="48.7107" y2="60.5028" gradientUnits="userSpaceOnUse">
<stop offset="0.311" stop-color="#65FFC5" stop-opacity="0.88"/>
<stop offset="0.4437" stop-color="#56F2BE" stop-opacity="0.6801"/>
<stop offset="0.6983" stop-color="#2FD0AD" stop-opacity="0.2969"/>
<stop offset="0.8955" stop-color="#0CB29E" stop-opacity="0"/>
</linearGradient>
<linearGradient id="paint23_linear" x1="54.8834" y1="73.4144" x2="38.4236" y2="42.7992" gradientUnits="userSpaceOnUse">
<stop offset="0.0962983" stop-color="#42FFFA"/>
<stop offset="0.6336" stop-color="#42FFFA" stop-opacity="0"/>
</linearGradient>
<linearGradient id="paint24_linear" x1="129.89" y1="36.3912" x2="94.5549" y2="19.0339" gradientUnits="userSpaceOnUse">
<stop offset="0.1514" stop-color="#00865B"/>
<stop offset="0.2496" stop-color="#048D64" stop-opacity="0.8794"/>
<stop offset="0.412" stop-color="#0EA07D" stop-opacity="0.6799"/>
<stop offset="0.6187" stop-color="#1FBFA6" stop-opacity="0.426"/>
<stop offset="0.8591" stop-color="#37EADF" stop-opacity="0.1306"/>
<stop offset="0.9654" stop-color="#42FFFA" stop-opacity="0"/>
</linearGradient>
<linearGradient id="paint25_linear" x1="112.074" y1="12.2278" x2="42.4495" y2="59.632" gradientUnits="userSpaceOnUse">
<stop offset="0.1446" stop-color="#FF67AA"/>
<stop offset="0.2328" stop-color="#FB69A9" stop-opacity="0.8603"/>
<stop offset="0.3132" stop-color="#F06FA6" stop-opacity="0.7328"/>
<stop offset="0.3907" stop-color="#DE7AA2" stop-opacity="0.6101"/>
<stop offset="0.4663" stop-color="#C48A9B" stop-opacity="0.4903"/>
<stop offset="0.5406" stop-color="#A29E93" stop-opacity="0.3725"/>
<stop offset="0.6139" stop-color="#79B788" stop-opacity="0.2564"/>
<stop offset="0.6864" stop-color="#48D47C" stop-opacity="0.1415"/>
<stop offset="0.7565" stop-color="#10F56E" stop-opacity="0.0303353"/>
<stop offset="0.7757" stop-color="#00FF6A" stop-opacity="0"/>
</linearGradient>
<linearGradient id="paint26_linear" x1="39.969" y1="26.6398" x2="65.8932" y2="29.8495" gradientUnits="userSpaceOnUse">
<stop offset="0.2258" stop-color="#FF52A0"/>
<stop offset="0.4026" stop-color="#FF4E9E" stop-opacity="0.6404"/>
<stop offset="0.5635" stop-color="#FF4397" stop-opacity="0.3132"/>
<stop offset="0.7175" stop-color="#FF318C" stop-opacity="0"/>
</linearGradient>
<linearGradient id="paint27_linear" x1="27.0944" y1="28.1736" x2="98.6864" y2="97.6724" gradientUnits="userSpaceOnUse">
<stop  offset="0" stop-color="#007859"/>
<stop offset="0.0882966" stop-color="#00533E"/>
<stop offset="0.1921" stop-color="#002F23"/>
<stop offset="0.2894" stop-color="#001510"/>
<stop offset="0.3766" stop-color="#000604"/>
<stop offset="0.4452"/>
<stop offset="0.9138"/>
</linearGradient>
<linearGradient id="paint28_linear" x1="63.1986" y1="76.8389" x2="103.79" y2="82.6102" gradientUnits="userSpaceOnUse">
<stop offset="0.0207811" stop-color="#00A466"/>
<stop offset="0.9931" stop-color="#083737"/>
</linearGradient>
<linearGradient id="paint29_linear" x1="83.0894" y1="89.6234" x2="100" y2="89.6234" gradientUnits="userSpaceOnUse">
<stop offset="0.1545" stop-color="#003127"/>
<stop offset="0.9931" stop-color="#0855FA"/>
</linearGradient>
<linearGradient id="paint30_linear" x1="48.6076" y1="47.7602" x2="36.8106" y2="48.8011" gradientUnits="userSpaceOnUse">
<stop offset="0.0962983" stop-color="#6EFFA3"/>
<stop offset="0.9654" stop-color="#FCF84A"/>
</linearGradient>
<linearGradient id="paint31_linear" x1="41.3499" y1="36.174" x2="24.1214" y2="73.7635" gradientUnits="userSpaceOnUse">
<stop offset="0.0913979" stop-color="#00FF6A"/>
<stop offset="0.759" stop-color="#009AE5"/>
</linearGradient>
<linearGradient id="paint32_linear" x1="52.5193" y1="26.087" x2="65.0174" y2="51.8924" gradientUnits="userSpaceOnUse">
<stop offset="0.3369" stop-color="#FF52A0"/>
<stop offset="0.493" stop-color="#FF489A"/>
<stop offset="0.7175" stop-color="#FF318C"/>
</linearGradient>
<linearGradient id="paint33_linear" x1="71.4905" y1="23.9506" x2="58.0676" y2="102.637" gradientUnits="userSpaceOnUse">
<stop  offset="0" stop-color="#21D789"/>
<stop offset="1" stop-color="#090C1B"/>
</linearGradient>
<linearGradient id="paint34_linear" x1="65.7806" y1="30.4121" x2="44.894" y2="76.351" gradientUnits="userSpaceOnUse">
<stop offset="0.0962983" stop-color="#6EFFA3"/>
<stop offset="0.9654" stop-color="#218F59"/>
</linearGradient>
<linearGradient id="paint35_linear" x1="25.0233" y1="73.024" x2="41.6429" y2="86.9691" gradientUnits="userSpaceOnUse">
<stop offset="0.1545" stop-color="#001A18"/>
<stop offset="0.9931" stop-color="#0855FA"/>
</linearGradient>
</defs>
</svg>
