<svg width="128" height="128" viewBox="0 0 128 128" fill="none" xmlns="http://www.w3.org/2000/svg">
<path d="M46 50.1L48.8 0L77.9 16.1L46 50.1Z" fill="url(#paint0_linear)"/>
<path d="M46 50.1001L47.7 19.0001L77.9 16.1001L46 50.1001Z" fill="url(#paint1_linear)"/>
<path d="M46 50.1L47.7 19.4L48.8 0L11.8 23.3L0 94.1L46 50.1Z" fill="#00FF6A"/>
<path d="M46 50.1L47.7001 19L11.8 23.3L24.9 70.6L46 50.1Z" fill="url(#paint2_linear)"/>
<path d="M46 50.1L48.8 0L11.8 23.3L24.9 70.6L46 50.1Z" fill="url(#paint3_linear)"/>
<path d="M46 48.8999L43.5 94.7999L75.8 121.1L107.8 128L128 82.2999L46 48.8999Z" fill="url(#paint4_linear)"/>
<path d="M97.9 80.9002L69.5 63.5002L72.9 59.7002L128 82.3002L97.9 80.9002Z" fill="url(#paint5_linear)"/>
<path d="M97.9 80.8999L75.8 121.1L107.8 128L128 82.2999L97.9 80.8999Z" fill="url(#paint6_linear)"/>
<path d="M44.7 65.1001L43.5 94.8001L75.8 121.1L44.7 65.1001Z" fill="url(#paint7_linear)"/>
<path d="M45.8 67.6001L107.8 128L75.8001 121.1L45.8 67.6001Z" fill="url(#paint8_linear)"/>
<path d="M45.8 67.6001L107.8 128L75.8001 121.1L45.8 67.6001Z" fill="url(#paint9_linear)"/>
<path d="M0 94.0998L46 50.0998L11.8 23.2998L0 94.0998Z" fill="url(#paint10_linear)"/>
<path d="M0 94.0998L33.8 60.1998L11.8 23.2998L0 94.0998Z" fill="url(#paint11_linear)"/>
<path d="M128 44.2999L109 4.8999L77.9 16.0999L0 94.0999L41.5 124.3L128 44.2999Z" fill="url(#paint12_linear)"/>
<path d="M45.1 67.3999L43.5 94.7999L59.4 107.8L65.4 102.2L45.1 67.3999Z" fill="url(#paint13_linear)"/>
<path d="M0 94.0998L45.1 67.2998L41.5 124.3L0 94.0998Z" fill="url(#paint14_linear)"/>
<path d="M0 94.0998L45.1 67.2998L41.5 124.3L0 94.0998Z" fill="url(#paint15_linear)"/>
<path d="M23.8999 79.8998L45.0999 67.2998L43.2999 94.2998L23.8999 79.8998Z" fill="url(#paint16_linear)"/>
<path d="M0 94.0999L44.9 67.3999L109 4.8999L77.9 16.0999L0 94.0999Z" fill="url(#paint17_linear)"/>
<path d="M0 94.0999L44.9 67.3999L109 4.8999L77.9 16.0999L0 94.0999Z" fill="url(#paint18_linear)"/>
<path d="M90.3999 23.0999L109 4.8999L77.8999 16.0999L90.3999 23.0999Z" fill="url(#paint19_linear)"/>
<path d="M127.5 43.6001L59.5999 107.2L34.2 60.0001L77.9 16.1001L127.5 43.6001Z" fill="url(#paint20_linear)"/>
<path d="M99 70.4L45.8 48.5V48.8L91.7 77.2L99 70.4Z" fill="url(#paint21_linear)"/>
<path d="M90.4 23.1001L45.1 67.3001L0 94.1001L34.2 60.0001L77.9 16.1001L90.4 23.1001Z" fill="url(#paint22_linear)"/>
<path d="M90.7 22.8001L45.1 67.3001L0 94.1001L34.2 60.0001L77.9 16.1001L90.7 22.8001Z" fill="url(#paint23_linear)"/>
<path d="M90.8 21.8999L109 4.8999L128 44.2999L90.8 21.8999Z" fill="url(#paint24_linear)"/>
<path d="M46.1001 48.0001L67.0001 58.4001L77.9001 16.1001L46.1001 48.0001Z" fill="url(#paint25_linear)"/>
<path d="M77.9001 16.1L48.8001 0L46.1001 48L77.9001 16.1Z" fill="url(#paint26_linear)"/>
<path d="M104 24H24V104H104V24Z" fill="url(#paint27_linear)"/>
<g opacity="0.3">
<path opacity="0.3" d="M104 72.5999L46 48.8999L43.5 94.7999L54.8 104H104V72.5999Z" fill="url(#paint28_linear)"/>
<path opacity="0.3" d="M104 104V81.1999L97.9 80.8999L85.2 104H104Z" fill="url(#paint29_linear)"/>
<path opacity="0.3" d="M24 24V67.4L24.1 71.9L46 50.1L47.5 24H24Z" fill="url(#paint30_linear)"/>
<path opacity="0.3" d="M24 67.3998L24.1 71.0998L46 50.0998L24 32.7998V67.3998Z" fill="url(#paint31_linear)"/>
<path opacity="0.3" d="M47.5001 24L46.1001 48L70.1001 24H47.5001Z" fill="url(#paint32_linear)"/>
<path opacity="0.3" d="M104 66.5V24H70L24 70.1V104H63.5L104 66.5Z" fill="url(#paint33_linear)"/>
<path opacity="0.3" d="M24 70.1V80.1L45 67.4L89.4 24H70L24 70.1Z" fill="url(#paint34_linear)"/>
<path opacity="0.3" d="M24 104H42.8L45.1 67.2998L24 79.7998V104Z" fill="url(#paint35_linear)"/>
</g>
<path d="M64 88.8999H34V93.8999H64V88.8999Z" fill="white"/>
<path d="M64.6001 33.8999H71.2001V58.3999H84.4001V63.9999H64.6001V33.8999Z" fill="white"/>
<path d="M32.3 49.2C32.3 40.5 38.8 33.5 48.1 33.5C53.8 33.5 57.2 35.4 60 38.2L55.8 43C53.5 40.9 51.1 39.6 48.1 39.6C43 39.6 39.3 43.8 39.3 49V49.1C39.3 54.3 42.9 58.6 48.1 58.6C51.6 58.6 53.7 57.2 56.1 55.1L60.3 59.4C57.2 62.7 53.7 64.8 47.9 64.8C38.9 64.7 32.3 57.8 32.3 49.2Z" fill="white"/>
<defs>
<linearGradient id="paint0_linear" x1="46.0089" y1="25.0259" x2="82.6822" y2="25.0259" gradientUnits="userSpaceOnUse">
<stop  offset="0" stop-color="#FF318C"/>
<stop offset="0.149" stop-color="#FB348C"/>
<stop offset="0.2849" stop-color="#F03C8C"/>
<stop offset="0.4157" stop-color="#DE4A8C"/>
<stop offset="0.5434" stop-color="#C45D8B"/>
<stop offset="0.6689" stop-color="#A2778B"/>
<stop offset="0.7926" stop-color="#79958A"/>
<stop offset="0.9128" stop-color="#49B98A"/>
<stop offset="1" stop-color="#21D789"/>
</linearGradient>
<linearGradient id="paint1_linear" x1="41.6402" y1="36.5859" x2="92.5861" y2="16.6979" gradientUnits="userSpaceOnUse">
<stop offset="0.1069" stop-color="#FF318C"/>
<stop offset="0.2181" stop-color="#FB338C"/>
<stop offset="0.3194" stop-color="#F0388E"/>
<stop offset="0.4168" stop-color="#DE4190"/>
<stop offset="0.5114" stop-color="#C44E93"/>
<stop offset="0.6008" stop-color="#A45E97"/>
<stop offset="0.6375" stop-color="#976A96"/>
<stop offset="0.7051" stop-color="#758992"/>
<stop offset="0.7956" stop-color="#3FBC8C"/>
<stop offset="0.8402" stop-color="#21D789"/>
</linearGradient>
<linearGradient id="paint2_linear" x1="41.4817" y1="14.0972" x2="13.627" y2="64.1413" gradientUnits="userSpaceOnUse">
<stop offset="0.0294109" stop-color="#00FF6A"/>
<stop offset="0.375" stop-color="#21D789"/>
<stop offset="0.9032" stop-color="#009AE5"/>
</linearGradient>
<linearGradient id="paint3_linear" x1="48.2862" y1="34.2734" x2="29.7604" y2="35.908" gradientUnits="userSpaceOnUse">
<stop offset="0.0294109" stop-color="#A6FF9E"/>
<stop offset="0.6015" stop-color="#21D789" stop-opacity="0"/>
</linearGradient>
<linearGradient id="paint4_linear" x1="68.5928" y1="87.2741" x2="128.026" y2="95.7243" gradientUnits="userSpaceOnUse">
<stop offset="0.3444" stop-color="#21D789"/>
<stop offset="0.8032" stop-color="#009AE5"/>
<stop offset="0.9931" stop-color="#0855FA"/>
</linearGradient>
<linearGradient id="paint5_linear" x1="71.7892" y1="86.8751" x2="117.636" y2="61.5435" gradientUnits="userSpaceOnUse">
<stop offset="0.0962983" stop-color="#00FF6A"/>
<stop offset="0.9654" stop-color="#00FF6A" stop-opacity="0"/>
</linearGradient>
<linearGradient id="paint6_linear" x1="62.7116" y1="126.647" x2="132.804" y2="87.9183" gradientUnits="userSpaceOnUse">
<stop  offset="0" stop-color="#42FFFA" stop-opacity="0.5"/>
<stop offset="0.9989" stop-color="#00FF6A" stop-opacity="0"/>
</linearGradient>
<linearGradient id="paint7_linear" x1="81.8462" y1="96.8913" x2="57.1451" y2="92.5323" gradientUnits="userSpaceOnUse">
<stop offset="0.0521494" stop-color="#00FF6A"/>
<stop offset="1" stop-color="#009AE5"/>
</linearGradient>
<linearGradient id="paint8_linear" x1="128.672" y1="102.665" x2="49.068" y2="95.2126" gradientUnits="userSpaceOnUse">
<stop offset="0.1212" stop-color="#21D789" stop-opacity="0"/>
<stop offset="0.7868" stop-color="#00FF6A"/>
</linearGradient>
<linearGradient id="paint9_linear" x1="84.4986" y1="91.5903" x2="67.9175" y2="105.023" gradientUnits="userSpaceOnUse">
<stop offset="0.0962983" stop-color="#42FFFA"/>
<stop offset="0.9654" stop-color="#42FFFA" stop-opacity="0"/>
</linearGradient>
<linearGradient id="paint10_linear" x1="35.9578" y1="21.3091" x2="-2.231" y2="104.63" gradientUnits="userSpaceOnUse">
<stop offset="0.0913979" stop-color="#00FF6A"/>
<stop offset="0.759" stop-color="#009AE5"/>
</linearGradient>
<linearGradient id="paint11_linear" x1="6.728" y1="40.4166" x2="20.5315" y2="90.1819" gradientUnits="userSpaceOnUse">
<stop offset="0.1163" stop-color="#21D789" stop-opacity="0.6"/>
<stop offset="1" stop-color="#009AE5"/>
</linearGradient>
<linearGradient id="paint12_linear" x1="117.546" y1="12.6444" x2="-11.2206" y2="148.641" gradientUnits="userSpaceOnUse">
<stop offset="0.0913979" stop-color="#21D789"/>
<stop offset="0.9032" stop-color="#009AE5"/>
</linearGradient>
<linearGradient id="paint13_linear" x1="65.3551" y1="122.232" x2="41.0407" y2="69.5505" gradientUnits="userSpaceOnUse">
<stop offset="0.00994756" stop-color="#009AE5"/>
<stop offset="0.9654" stop-color="#009AE5" stop-opacity="0"/>
</linearGradient>
<linearGradient id="paint14_linear" x1="3.8233e-05" y1="95.794" x2="45.0521" y2="95.794" gradientUnits="userSpaceOnUse">
<stop offset="0.0556783" stop-color="#009AE5" stop-opacity="0.4"/>
<stop offset="0.7897" stop-color="#009AE5"/>
</linearGradient>
<linearGradient id="paint15_linear" x1="7.7202" y1="68.2621" x2="39.323" y2="94.7794" gradientUnits="userSpaceOnUse">
<stop offset="0.1196" stop-color="#42FFFA"/>
<stop offset="0.6743" stop-color="#42FFFA" stop-opacity="0"/>
</linearGradient>
<linearGradient id="paint16_linear" x1="23.8767" y1="80.7969" x2="45.052" y2="80.7969" gradientUnits="userSpaceOnUse">
<stop offset="0.0556783" stop-color="#009AE5" stop-opacity="0.4"/>
<stop offset="1" stop-color="#087CFA"/>
</linearGradient>
<linearGradient id="paint17_linear" x1="21.7033" y1="89.7115" x2="102.318" y2="-9.164" gradientUnits="userSpaceOnUse">
<stop  offset="0" stop-color="#0697DC"/>
<stop offset="0.9032" stop-color="#00FF6A"/>
</linearGradient>
<linearGradient id="paint18_linear" x1="70.6556" y1="61.9123" x2="55.7623" y2="50.4699" gradientUnits="userSpaceOnUse">
<stop offset="0.0962983" stop-color="#6EFFA3"/>
<stop offset="0.6015" stop-color="#21D789" stop-opacity="0"/>
</linearGradient>
<linearGradient id="paint19_linear" x1="105.036" y1="16.6247" x2="84.3311" y2="6.4536" gradientUnits="userSpaceOnUse">
<stop offset="0.0962983" stop-color="#6EFFA3"/>
<stop offset="0.9654" stop-color="#FCF84A" stop-opacity="0"/>
</linearGradient>
<linearGradient id="paint20_linear" x1="119.553" y1="100.07" x2="34.5522" y2="19.4284" gradientUnits="userSpaceOnUse">
<stop offset="0.5747" stop-color="#0CAFA3" stop-opacity="0.1365"/>
<stop offset="1" stop-color="#07C3F2" stop-opacity="0.88"/>
</linearGradient>
<linearGradient id="paint21_linear" x1="33.8062" y1="44.9684" x2="102.799" y2="77.2526" gradientUnits="userSpaceOnUse">
<stop offset="0.4862" stop-color="#087CFA" stop-opacity="0"/>
<stop offset="1" stop-color="#21D789"/>
</linearGradient>
<linearGradient id="paint22_linear" x1="59.45" y1="70.0712" x2="47.1291" y2="60.141" gradientUnits="userSpaceOnUse">
<stop offset="0.311" stop-color="#65FFC5" stop-opacity="0.88"/>
<stop offset="0.4437" stop-color="#56F2BE" stop-opacity="0.6801"/>
<stop offset="0.6983" stop-color="#2FD0AD" stop-opacity="0.2969"/>
<stop offset="0.8955" stop-color="#0CB29E" stop-opacity="0"/>
</linearGradient>
<linearGradient id="paint23_linear" x1="53.9403" y1="74.3883" x2="35.7778" y2="40.6061" gradientUnits="userSpaceOnUse">
<stop offset="0.0962983" stop-color="#42FFFA"/>
<stop offset="0.6336" stop-color="#42FFFA" stop-opacity="0"/>
</linearGradient>
<linearGradient id="paint24_linear" x1="136.706" y1="33.5352" x2="97.7158" y2="14.3822" gradientUnits="userSpaceOnUse">
<stop offset="0.1514" stop-color="#00865B"/>
<stop offset="0.2496" stop-color="#048D64" stop-opacity="0.8794"/>
<stop offset="0.412" stop-color="#0EA07D" stop-opacity="0.6799"/>
<stop offset="0.6187" stop-color="#1FBFA6" stop-opacity="0.426"/>
<stop offset="0.8591" stop-color="#37EADF" stop-opacity="0.1306"/>
<stop offset="0.9654" stop-color="#42FFFA" stop-opacity="0"/>
</linearGradient>
<linearGradient id="paint25_linear" x1="117.048" y1="6.87209" x2="40.2202" y2="59.1802" gradientUnits="userSpaceOnUse">
<stop offset="0.1446" stop-color="#FF67AA"/>
<stop offset="0.2328" stop-color="#FB69A9" stop-opacity="0.8603"/>
<stop offset="0.3132" stop-color="#F06FA6" stop-opacity="0.7328"/>
<stop offset="0.3907" stop-color="#DE7AA2" stop-opacity="0.6101"/>
<stop offset="0.4663" stop-color="#C48A9B" stop-opacity="0.4903"/>
<stop offset="0.5406" stop-color="#A29E93" stop-opacity="0.3725"/>
<stop offset="0.6139" stop-color="#79B788" stop-opacity="0.2564"/>
<stop offset="0.6864" stop-color="#48D47C" stop-opacity="0.1415"/>
<stop offset="0.7565" stop-color="#10F56E" stop-opacity="0.0303353"/>
<stop offset="0.7757" stop-color="#00FF6A" stop-opacity="0"/>
</linearGradient>
<linearGradient id="paint26_linear" x1="37.4831" y1="22.775" x2="66.0891" y2="26.3167" gradientUnits="userSpaceOnUse">
<stop offset="0.2258" stop-color="#FF52A0"/>
<stop offset="0.4026" stop-color="#FF4E9E" stop-opacity="0.6404"/>
<stop offset="0.5635" stop-color="#FF4397" stop-opacity="0.3132"/>
<stop offset="0.7175" stop-color="#FF318C" stop-opacity="0"/>
</linearGradient>
<linearGradient id="paint27_linear" x1="22.9938" y1="24.1929" x2="102.54" y2="101.414" gradientUnits="userSpaceOnUse">
<stop  offset="0" stop-color="#007859"/>
<stop offset="0.0882966" stop-color="#00533E"/>
<stop offset="0.1921" stop-color="#002F23"/>
<stop offset="0.2894" stop-color="#001510"/>
<stop offset="0.3766" stop-color="#000604"/>
<stop offset="0.4452"/>
<stop offset="0.9138"/>
</linearGradient>
<linearGradient id="paint28_linear" x1="63.1096" y1="78.2654" x2="108.211" y2="84.678" gradientUnits="userSpaceOnUse">
<stop offset="0.0207811" stop-color="#00A466"/>
<stop offset="0.9931" stop-color="#083737"/>
</linearGradient>
<linearGradient id="paint29_linear" x1="85.2105" y1="92.4701" x2="104" y2="92.4701" gradientUnits="userSpaceOnUse">
<stop offset="0.1545" stop-color="#003127"/>
<stop offset="0.9931" stop-color="#0855FA"/>
</linearGradient>
<linearGradient id="paint30_linear" x1="46.8973" y1="45.9558" x2="33.7896" y2="47.1124" gradientUnits="userSpaceOnUse">
<stop offset="0.0962983" stop-color="#6EFFA3"/>
<stop offset="0.9654" stop-color="#FCF84A"/>
</linearGradient>
<linearGradient id="paint31_linear" x1="38.8332" y1="33.0822" x2="19.6904" y2="74.8482" gradientUnits="userSpaceOnUse">
<stop offset="0.0913979" stop-color="#00FF6A"/>
<stop offset="0.759" stop-color="#009AE5"/>
</linearGradient>
<linearGradient id="paint32_linear" x1="51.2438" y1="21.8744" x2="65.1305" y2="50.5471" gradientUnits="userSpaceOnUse">
<stop offset="0.3369" stop-color="#FF52A0"/>
<stop offset="0.493" stop-color="#FF489A"/>
<stop offset="0.7175" stop-color="#FF318C"/>
</linearGradient>
<linearGradient id="paint33_linear" x1="72.3228" y1="19.5006" x2="57.4084" y2="106.93" gradientUnits="userSpaceOnUse">
<stop  offset="0" stop-color="#21D789"/>
<stop offset="1" stop-color="#090C1B"/>
</linearGradient>
<linearGradient id="paint34_linear" x1="65.9784" y1="26.6801" x2="42.7711" y2="77.7233" gradientUnits="userSpaceOnUse">
<stop offset="0.0962983" stop-color="#6EFFA3"/>
<stop offset="0.9654" stop-color="#218F59"/>
</linearGradient>
<linearGradient id="paint35_linear" x1="20.6926" y1="74.0266" x2="39.1588" y2="89.5212" gradientUnits="userSpaceOnUse">
<stop offset="0.1545" stop-color="#001A18"/>
<stop offset="0.9931" stop-color="#0855FA"/>
</linearGradient>
</defs>
</svg>
