<svg width="256" height="256" viewBox="0 0 256 256" fill="none" xmlns="http://www.w3.org/2000/svg">
<path d="M95.4 102.7L100.4 12L153.2 41.2L95.4 102.7Z" fill="url(#paint0_linear)"/>
<path d="M95.4 102.7L98.5 46.5002L153.2 41.2002L95.4 102.7Z" fill="url(#paint1_linear)"/>
<path d="M95.4 102.7L98.5 47.1L100.4 12L33.4 54.2L12 182.6L95.4 102.7Z" fill="#00FF6A"/>
<path d="M95.4 102.7L98.5 46.5L33.4 54.2L57.1 139.9L95.4 102.7Z" fill="url(#paint2_linear)"/>
<path d="M95.4 102.7L100.4 12L33.4 54.2L57.1 139.9L95.4 102.7Z" fill="url(#paint3_linear)"/>
<path d="M95.4 100.7L90.8 183.8L149.4 231.5L207.4 244L244 161.2L95.4 100.7Z" fill="url(#paint4_linear)"/>
<path d="M189.4 158.7L137.9 127.1L144.1 120.3L244 161.2L189.4 158.7Z" fill="url(#paint5_linear)"/>
<path d="M189.4 158.7L149.4 231.5L207.4 244L244 161.2L189.4 158.7Z" fill="url(#paint6_linear)"/>
<path d="M93.1 130L90.8 183.8L149.4 231.5L93.1 130Z" fill="url(#paint7_linear)"/>
<path d="M95 134.6L207.4 244L149.4 231.5L95 134.6Z" fill="url(#paint8_linear)"/>
<path d="M95 134.6L207.4 244L149.4 231.5L95 134.6Z" fill="url(#paint9_linear)"/>
<path d="M12 182.6L95.4 102.7L33.4 54.2002L12 182.6Z" fill="url(#paint10_linear)"/>
<path d="M12 182.6L73.3 121.1L33.4 54.2002L12 182.6Z" fill="url(#paint11_linear)"/>
<path d="M244 92.2999L209.5 20.8999L153.2 41.1999L12 182.6L87.2 237.3L244 92.2999Z" fill="url(#paint12_linear)"/>
<path d="M93.8 134.1L90.8 183.8L119.7 207.3L130.5 197.3L93.8 134.1Z" fill="url(#paint13_linear)"/>
<path d="M12 182.6L93.7 133.9L87.2 237.3L12 182.6Z" fill="url(#paint14_linear)"/>
<path d="M12 182.6L93.7 133.9L87.2 237.3L12 182.6Z" fill="url(#paint15_linear)"/>
<path d="M55.3 156.8L93.7 133.9L90.4001 183L55.3 156.8Z" fill="url(#paint16_linear)"/>
<path d="M12 182.6L93.5 134.1L209.5 20.8999L153.2 41.1999L12 182.6Z" fill="url(#paint17_linear)"/>
<path d="M12 182.6L93.4 134.2L209.5 20.8999L153.2 41.1999L12 182.6Z" fill="url(#paint18_linear)"/>
<path d="M175.8 53.8999L209.5 20.8999L153.2 41.1999L175.8 53.8999Z" fill="url(#paint19_linear)"/>
<path d="M243.2 91.1002L120.1 206.3L74 120.7L153.2 41.2002L243.2 91.1002Z" fill="url(#paint20_linear)"/>
<path d="M191.4 139.6L95 99.8999V100.4L178.3 151.8L191.4 139.6Z" fill="url(#paint21_linear)"/>
<path d="M175.9 53.8002L93.7 134L12 182.6L74 120.7L153.2 41.2002L175.9 53.8002Z" fill="url(#paint22_linear)"/>
<path d="M176.4 53.2002L93.7 134L12 182.6L74 120.7L153.2 41.2002L176.4 53.2002Z" fill="url(#paint23_linear)"/>
<path d="M176.6 51.7999L209.5 20.8999L244 92.2999L176.6 51.7999Z" fill="url(#paint24_linear)"/>
<path d="M95.6 98.9002L133.4 117.8L153.2 41.2002L95.6 98.9002Z" fill="url(#paint25_linear)"/>
<path d="M153.2 41.2L100.4 12L95.6 99L153.2 41.2Z" fill="url(#paint26_linear)"/>
<path d="M200 56H56V200H200V56Z" fill="url(#paint27_linear)"/>
<g opacity="0.3">
<path opacity="0.3" d="M200 143.4L95.6 100.8L91 183.5L111.4 200H200V143.4Z" fill="url(#paint28_linear)"/>
<path opacity="0.3" d="M200 200V159L189 158.5L166.2 200H200Z" fill="url(#paint29_linear)"/>
<path opacity="0.3" d="M56 56V134.2L56.1 142.3L95.6 102.9L98.2 56H56Z" fill="url(#paint30_linear)"/>
<path opacity="0.3" d="M56 134.2L56.1 140.7L95.6 102.9L56 71.8999V134.2Z" fill="url(#paint31_linear)"/>
<path opacity="0.3" d="M98.2001 56L95.8 99.2L138.9 56H98.2001Z" fill="url(#paint32_linear)"/>
<path opacity="0.3" d="M200 132.5V56H138.9L56 138.9V200H127L200 132.5Z" fill="url(#paint33_linear)"/>
<path opacity="0.3" d="M56 139.1V157L93.7 134.1L173.8 56H138.9L56 138.9V139.1Z" fill="url(#paint34_linear)"/>
<path opacity="0.3" d="M56 200H89.8L93.9 133.9L56 156.5V200Z" fill="url(#paint35_linear)"/>
</g>
<path d="M127.9 172.9H73.8V181.9H127.9V172.9Z" fill="white"/>
<path d="M129.385 73.9893H141.258V117.721H164.608V127.615H129.385V73.9893Z" fill="white"/>
<path d="M72 101.099C72 85.6643 83.477 73 100.099 73C110.191 73 116.325 76.364 121.272 81.311L113.753 90.0177C109.597 86.258 105.442 83.8834 99.9011 83.8834C90.7986 83.8834 84.2686 91.4028 84.2686 100.703V100.901C84.2686 110.201 90.6007 117.919 99.9011 117.919C106.035 117.919 109.795 115.544 114.148 111.587L121.668 119.304C116.127 125.24 109.993 129 99.5053 129C83.6749 128.802 72 116.731 72 101.099Z" fill="white"/>
<defs>
<linearGradient id="paint0_linear" x1="95.3911" y1="57.3594" x2="161.862" y2="57.3594" gradientUnits="userSpaceOnUse">
<stop stop-color="#FF318C"/>
<stop offset="0.149" stop-color="#FB348C"/>
<stop offset="0.2849" stop-color="#F03C8C"/>
<stop offset="0.4157" stop-color="#DE4A8C"/>
<stop offset="0.5434" stop-color="#C45D8B"/>
<stop offset="0.6689" stop-color="#A2778B"/>
<stop offset="0.7926" stop-color="#79958A"/>
<stop offset="0.9128" stop-color="#49B98A"/>
<stop offset="1" stop-color="#21D789"/>
</linearGradient>
<linearGradient id="paint1_linear" x1="87.4729" y1="78.312" x2="179.812" y2="42.265" gradientUnits="userSpaceOnUse">
<stop offset="0.1069" stop-color="#FF318C"/>
<stop offset="0.2181" stop-color="#FB338C"/>
<stop offset="0.3194" stop-color="#F0388E"/>
<stop offset="0.4168" stop-color="#DE4190"/>
<stop offset="0.5114" stop-color="#C44E93"/>
<stop offset="0.6008" stop-color="#A45E97"/>
<stop offset="0.6375" stop-color="#976A96"/>
<stop offset="0.7051" stop-color="#758992"/>
<stop offset="0.7956" stop-color="#3FBC8C"/>
<stop offset="0.8402" stop-color="#21D789"/>
</linearGradient>
<linearGradient id="paint2_linear" x1="87.1854" y1="37.5512" x2="36.6987" y2="128.256" gradientUnits="userSpaceOnUse">
<stop offset="0.0294109" stop-color="#00FF6A"/>
<stop offset="0.375" stop-color="#21D789"/>
<stop offset="0.9032" stop-color="#009AE5"/>
</linearGradient>
<linearGradient id="paint3_linear" x1="99.5187" y1="74.1205" x2="65.9407" y2="77.0833" gradientUnits="userSpaceOnUse">
<stop offset="0.0294109" stop-color="#A6FF9E"/>
<stop offset="0.6015" stop-color="#21D789" stop-opacity="0"/>
</linearGradient>
<linearGradient id="paint4_linear" x1="136.325" y1="170.185" x2="244.048" y2="185.501" gradientUnits="userSpaceOnUse">
<stop offset="0.3444" stop-color="#21D789"/>
<stop offset="0.8032" stop-color="#009AE5"/>
<stop offset="0.9931" stop-color="#0855FA"/>
</linearGradient>
<linearGradient id="paint5_linear" x1="142.118" y1="169.461" x2="225.215" y2="123.547" gradientUnits="userSpaceOnUse">
<stop offset="0.0962983" stop-color="#00FF6A"/>
<stop offset="0.9654" stop-color="#00FF6A" stop-opacity="0"/>
</linearGradient>
<linearGradient id="paint6_linear" x1="125.665" y1="241.547" x2="252.708" y2="171.352" gradientUnits="userSpaceOnUse">
<stop stop-color="#42FFFA" stop-opacity="0.5"/>
<stop offset="0.9989" stop-color="#00FF6A" stop-opacity="0"/>
</linearGradient>
<linearGradient id="paint7_linear" x1="160.346" y1="187.615" x2="115.576" y2="179.715" gradientUnits="userSpaceOnUse">
<stop offset="0.0521494" stop-color="#00FF6A"/>
<stop offset="1" stop-color="#009AE5"/>
</linearGradient>
<linearGradient id="paint8_linear" x1="245.218" y1="198.08" x2="100.936" y2="184.573" gradientUnits="userSpaceOnUse">
<stop offset="0.1212" stop-color="#21D789" stop-opacity="0"/>
<stop offset="0.7868" stop-color="#00FF6A"/>
</linearGradient>
<linearGradient id="paint9_linear" x1="165.154" y1="178.007" x2="135.101" y2="202.354" gradientUnits="userSpaceOnUse">
<stop offset="0.0962983" stop-color="#42FFFA"/>
<stop offset="0.9654" stop-color="#42FFFA" stop-opacity="0"/>
</linearGradient>
<linearGradient id="paint10_linear" x1="77.1736" y1="50.6233" x2="7.95639" y2="201.643" gradientUnits="userSpaceOnUse">
<stop offset="0.0913979" stop-color="#00FF6A"/>
<stop offset="0.759" stop-color="#009AE5"/>
</linearGradient>
<linearGradient id="paint11_linear" x1="24.1946" y1="85.2557" x2="49.2134" y2="175.455" gradientUnits="userSpaceOnUse">
<stop offset="0.1163" stop-color="#21D789" stop-opacity="0.6"/>
<stop offset="1" stop-color="#009AE5"/>
</linearGradient>
<linearGradient id="paint12_linear" x1="225.052" y1="34.918" x2="-8.33731" y2="281.412" gradientUnits="userSpaceOnUse">
<stop offset="0.0913979" stop-color="#21D789"/>
<stop offset="0.9032" stop-color="#009AE5"/>
</linearGradient>
<linearGradient id="paint13_linear" x1="130.456" y1="233.545" x2="86.3862" y2="138.061" gradientUnits="userSpaceOnUse">
<stop offset="0.00994756" stop-color="#009AE5"/>
<stop offset="0.9654" stop-color="#009AE5" stop-opacity="0"/>
</linearGradient>
<linearGradient id="paint14_linear" x1="12.0001" y1="185.627" x2="93.6568" y2="185.627" gradientUnits="userSpaceOnUse">
<stop offset="0.0556783" stop-color="#009AE5" stop-opacity="0.4"/>
<stop offset="0.7897" stop-color="#009AE5"/>
</linearGradient>
<linearGradient id="paint15_linear" x1="25.9929" y1="135.725" x2="83.273" y2="183.788" gradientUnits="userSpaceOnUse">
<stop offset="0.1196" stop-color="#42FFFA"/>
<stop offset="0.6743" stop-color="#42FFFA" stop-opacity="0"/>
</linearGradient>
<linearGradient id="paint16_linear" x1="55.2766" y1="158.445" x2="93.6568" y2="158.445" gradientUnits="userSpaceOnUse">
<stop offset="0.0556783" stop-color="#009AE5" stop-opacity="0.4"/>
<stop offset="1" stop-color="#087CFA"/>
</linearGradient>
<linearGradient id="paint17_linear" x1="51.3372" y1="174.602" x2="197.451" y2="-4.60958" gradientUnits="userSpaceOnUse">
<stop stop-color="#0697DC"/>
<stop offset="0.9032" stop-color="#00FF6A"/>
</linearGradient>
<linearGradient id="paint18_linear" x1="140.063" y1="124.216" x2="113.069" y2="103.477" gradientUnits="userSpaceOnUse">
<stop offset="0.0962983" stop-color="#6EFFA3"/>
<stop offset="0.6015" stop-color="#21D789" stop-opacity="0"/>
</linearGradient>
<linearGradient id="paint19_linear" x1="202.379" y1="42.1323" x2="164.85" y2="23.6973" gradientUnits="userSpaceOnUse">
<stop offset="0.0962983" stop-color="#6EFFA3"/>
<stop offset="0.9654" stop-color="#FCF84A" stop-opacity="0"/>
</linearGradient>
<linearGradient id="paint20_linear" x1="228.69" y1="193.377" x2="74.6259" y2="47.214" gradientUnits="userSpaceOnUse">
<stop offset="0.5747" stop-color="#0CAFA3" stop-opacity="0.1365"/>
<stop offset="1" stop-color="#07C3F2" stop-opacity="0.88"/>
</linearGradient>
<linearGradient id="paint21_linear" x1="73.2738" y1="93.5051" x2="198.324" y2="152.02" gradientUnits="userSpaceOnUse">
<stop offset="0.4862" stop-color="#087CFA" stop-opacity="0"/>
<stop offset="1" stop-color="#21D789"/>
</linearGradient>
<linearGradient id="paint22_linear" x1="119.753" y1="139.004" x2="97.4215" y2="121.006" gradientUnits="userSpaceOnUse">
<stop offset="0.311" stop-color="#65FFC5" stop-opacity="0.88"/>
<stop offset="0.4437" stop-color="#56F2BE" stop-opacity="0.6801"/>
<stop offset="0.6983" stop-color="#2FD0AD" stop-opacity="0.2969"/>
<stop offset="0.8955" stop-color="#0CB29E" stop-opacity="0"/>
</linearGradient>
<linearGradient id="paint23_linear" x1="109.767" y1="146.829" x2="76.8473" y2="85.5985" gradientUnits="userSpaceOnUse">
<stop offset="0.0962983" stop-color="#42FFFA"/>
<stop offset="0.6336" stop-color="#42FFFA" stop-opacity="0"/>
</linearGradient>
<linearGradient id="paint24_linear" x1="259.779" y1="72.7826" x2="189.11" y2="38.0679" gradientUnits="userSpaceOnUse">
<stop offset="0.1514" stop-color="#00865B"/>
<stop offset="0.2496" stop-color="#048D64" stop-opacity="0.8794"/>
<stop offset="0.412" stop-color="#0EA07D" stop-opacity="0.6799"/>
<stop offset="0.6187" stop-color="#1FBFA6" stop-opacity="0.426"/>
<stop offset="0.8591" stop-color="#37EADF" stop-opacity="0.1306"/>
<stop offset="0.9654" stop-color="#42FFFA" stop-opacity="0"/>
</linearGradient>
<linearGradient id="paint25_linear" x1="224.149" y1="24.4557" x2="84.899" y2="119.264" gradientUnits="userSpaceOnUse">
<stop offset="0.1446" stop-color="#FF67AA"/>
<stop offset="0.2328" stop-color="#FB69A9" stop-opacity="0.8603"/>
<stop offset="0.3132" stop-color="#F06FA6" stop-opacity="0.7328"/>
<stop offset="0.3907" stop-color="#DE7AA2" stop-opacity="0.6101"/>
<stop offset="0.4663" stop-color="#C48A9B" stop-opacity="0.4903"/>
<stop offset="0.5406" stop-color="#A29E93" stop-opacity="0.3725"/>
<stop offset="0.6139" stop-color="#79B788" stop-opacity="0.2564"/>
<stop offset="0.6864" stop-color="#48D47C" stop-opacity="0.1415"/>
<stop offset="0.7565" stop-color="#10F56E" stop-opacity="0.0303353"/>
<stop offset="0.7757" stop-color="#00FF6A" stop-opacity="0"/>
</linearGradient>
<linearGradient id="paint26_linear" x1="79.938" y1="53.2797" x2="131.786" y2="59.699" gradientUnits="userSpaceOnUse">
<stop offset="0.2258" stop-color="#FF52A0"/>
<stop offset="0.4026" stop-color="#FF4E9E" stop-opacity="0.6404"/>
<stop offset="0.5635" stop-color="#FF4397" stop-opacity="0.3132"/>
<stop offset="0.7175" stop-color="#FF318C" stop-opacity="0"/>
</linearGradient>
<linearGradient id="paint27_linear" x1="54.1888" y1="56.3472" x2="197.373" y2="195.345" gradientUnits="userSpaceOnUse">
<stop stop-color="#007859"/>
<stop offset="0.0882966" stop-color="#00533E"/>
<stop offset="0.1921" stop-color="#002F23"/>
<stop offset="0.2894" stop-color="#001510"/>
<stop offset="0.3766" stop-color="#000604"/>
<stop offset="0.4452"/>
<stop offset="0.9138"/>
</linearGradient>
<linearGradient id="paint28_linear" x1="126.397" y1="153.678" x2="207.58" y2="165.22" gradientUnits="userSpaceOnUse">
<stop offset="0.0207811" stop-color="#00A466"/>
<stop offset="0.9931" stop-color="#083737"/>
</linearGradient>
<linearGradient id="paint29_linear" x1="166.179" y1="179.246" x2="200" y2="179.246" gradientUnits="userSpaceOnUse">
<stop offset="0.1545" stop-color="#003127"/>
<stop offset="0.9931" stop-color="#0855FA"/>
</linearGradient>
<linearGradient id="paint30_linear" x1="97.2152" y1="95.5204" x2="73.6213" y2="97.6022" gradientUnits="userSpaceOnUse">
<stop offset="0.0962983" stop-color="#6EFFA3"/>
<stop offset="0.9654" stop-color="#FCF84A"/>
</linearGradient>
<linearGradient id="paint31_linear" x1="82.6998" y1="72.3481" x2="48.2428" y2="147.527" gradientUnits="userSpaceOnUse">
<stop offset="0.0913979" stop-color="#00FF6A"/>
<stop offset="0.759" stop-color="#009AE5"/>
</linearGradient>
<linearGradient id="paint32_linear" x1="105.039" y1="52.1739" x2="130.035" y2="103.785" gradientUnits="userSpaceOnUse">
<stop offset="0.3369" stop-color="#FF52A0"/>
<stop offset="0.493" stop-color="#FF489A"/>
<stop offset="0.7175" stop-color="#FF318C"/>
</linearGradient>
<linearGradient id="paint33_linear" x1="142.981" y1="47.9012" x2="116.135" y2="205.274" gradientUnits="userSpaceOnUse">
<stop stop-color="#21D789"/>
<stop offset="1" stop-color="#090C1B"/>
</linearGradient>
<linearGradient id="paint34_linear" x1="131.561" y1="60.8242" x2="89.788" y2="152.702" gradientUnits="userSpaceOnUse">
<stop offset="0.0962983" stop-color="#6EFFA3"/>
<stop offset="0.9654" stop-color="#218F59"/>
</linearGradient>
<linearGradient id="paint35_linear" x1="50.0466" y1="146.048" x2="83.2858" y2="173.938" gradientUnits="userSpaceOnUse">
<stop offset="0.1545" stop-color="#001A18"/>
<stop offset="0.9931" stop-color="#0855FA"/>
</linearGradient>
</defs>
</svg>
