<svg width="70" height="70" viewBox="0 0 70 70" fill="none" xmlns="http://www.w3.org/2000/svg">
<path d="M67.4 20.2L64.2999 44L62.7 54.5L41.4 67.4L15.2 47.2L47.0999 13.7L67.4 20.2Z" fill="url(#paint0_linear)"/>
<path d="M41.5 62.1V64H43.7L44.4 62.8L41.5 62.1Z" fill="url(#paint1_linear)"/>
<path d="M61.1 53.3L64.3 43.9L66.2 57.5L61.1 53.3Z" fill="url(#paint2_linear)"/>
<path d="M67.4 20.2L30.3 45.5L13.5 48L47.1 4.09998L67.4 20.2Z" fill="url(#paint3_linear)"/>
<path d="M40.1 13.5L47.1 4.09998L45.9 23.5L40.1 13.5Z" fill="url(#paint4_linear)"/>
<path d="M13.3 47.9001L3.69995 40.9001L12.9 31.8L40.5 43L13.3 47.9001Z" fill="url(#paint5_linear)"/>
<path d="M29.1 58.8L8.19995 65.8L13.5 51L39.0999 41.1L53.4 49.9L29.1 58.8Z" fill="url(#paint6_linear)"/>
<path d="M23.2 16.6L12.3 3L33.4 5.5L35.8 12.4L23.2 16.6Z" fill="url(#paint7_linear)"/>
<path d="M64.2999 43.9L33.4 5.5L22 5.7L15.7 24.4L55.9 46.4L49.0999 56.4L62.7 54.5L64.2999 43.9Z" fill="url(#paint8_linear)"/>
<path d="M15.6 25.4L8.40002 25.3L12.3 3L22 5.7L15.6 25.4Z" fill="#FFD415"/>
<path d="M55.9 46.4L37.8 42.5L3 28.5L15.8 24.5L55.9 46.4Z" fill="url(#paint9_linear)"/>
<path d="M20.9 9L15.8 24.5L15.7 24.6L15.8 24.5L41 38.3L41.5999 38.4L51.9 30.7L20.9 9Z" fill="url(#paint10_linear)"/>
<path d="M12.3 3L3 28.5L14.9 25.5L15.8 24.5L20.9 9L12.3 3Z" fill="url(#paint11_linear)"/>
<path d="M8.19995 65.8L16.2 33.9L37.7999 42.5L8.19995 65.8Z" fill="url(#paint12_linear)"/>
<path d="M37.7999 42.5L25.7999 32.1L9.29995 30.6L3.69995 40.9L15.5 36.2L15.6 36.1L8.19995 65.8L37.7999 42.5Z" fill="url(#paint13_linear)"/>
<path d="M55.9 46.4L44.6 62.9L29.1 58.9L37.8 42.5L55.9 46.4Z" fill="url(#paint14_linear)"/>
<path d="M55.9 46.4L37.8 42.5L3 28.5L15.8 24.5L55.9 46.4Z" fill="url(#paint15_linear)"/>
<path d="M15.8 24.5L3 28.5L41 38.3L15.8 24.5Z" fill="url(#paint16_linear)"/>
<path d="M62.7 54.5L48.7 56.4L41.4 67.4L66.2 57.5L62.7 54.5Z" fill="url(#paint17_linear)"/>
<path d="M41.4 67.4L48.9 56.5L29.1 58.9L41.4 67.4Z" fill="url(#paint18_linear)"/>
<path d="M26.9 30.5L40.9 38.2L53.1 30L39.9 13.5L26.9 30.5Z" fill="url(#paint19_linear)"/>
<path d="M51.9 30.7L35.5 19.2L26.9 30.5L40.9 38.2L51.4 31.1L51.9 30.7Z" fill="url(#paint20_linear)"/>
<path d="M55 15H15V55H55V15Z" fill="url(#paint21_linear)"/>
<g opacity="0.4">
<g opacity="0.3">
<path opacity="0.3" d="M54.3 55L55 54.9V46.4L49.1 55H54.3Z" fill="#231F20"/>
<path opacity="0.3" d="M40.6 15H19L15.8 24.4L53.3 44.9L16 24.5L15 24.8V33.1L37.6 42.2L55 46V45.9V32.9L40.6 15Z" fill="url(#paint22_linear)"/>
<path opacity="0.3" d="M19 15L15.8 24.4L55 45.9V32.9L40.6 15H19Z" fill="url(#paint23_linear)"/>
<path opacity="0.3" d="M15 15V25.5L15.1 25.4L15.9 24.5L19.1 15H15Z" fill="#F9ED32"/>
</g>
<path opacity="0.3" d="M15 24.8V33.1L37.6 42.2L55 46V45.9L16 24.5L15 24.8Z" fill="url(#paint24_linear)"/>
<path opacity="0.3" d="M15 31.4L40.7 38.1L16 24.5L15 24.8V31.4Z" fill="url(#paint25_linear)"/>
<path opacity="0.3" d="M30.8 55L37.6 42.2L21.3 55H30.8Z" fill="url(#paint26_linear)"/>
<path opacity="0.3" d="M15 39L15.8 35.9L15.6 36L15 36.2V39Z" fill="#F7941D"/>
<path opacity="0.3" d="M15 36.2L15.6 36L15.8 35.9L15 39V55H21.3L37.6 42.2L15 33.1V36.2Z" fill="url(#paint27_linear)"/>
<path opacity="0.3" d="M30.8 55H49.1L55 46.4V46L37.6 42.2L30.8 55Z" fill="url(#paint28_linear)"/>
<g opacity="0.3">
<path opacity="0.3" d="M52.6 29.8L55 28.2V15H40.6L52.6 29.8Z" fill="url(#paint29_linear)"/>
</g>
</g>
<g opacity="0.5">
<path opacity="0.3" d="M19 15L15.8 24.4L55 45.9V32.9L40.6 15H19Z" fill="url(#paint30_linear)"/>
<path opacity="0.3" d="M15 15V25.5L15.1 25.4L15.9 24.5L19.1 15H15Z" fill="#F9ED32"/>
</g>
<path d="M35 47.4H20V49.9H35V47.4Z" fill="white"/>
<path d="M27.5 22.7V20H20V22.7H22.1V32.2H20V34.9H27.5V32.2H25.4V22.7H27.5Z" fill="white"/>
<path d="M34.6 35.1C33.4 35.1 32.5001 34.9 31.7001 34.4C30.9001 34 30.3 33.4 29.8 32.8L31.9 30.5C32.3 31 32.8001 31.3 33.2001 31.6C33.6001 31.9 34.1 32 34.6 32C35.2 32 35.7 31.8 36.1 31.4C36.5 31 36.6 30.4 36.6 29.5V20H40V29.8C40 30.7 39.9 31.5 39.6 32.1C39.4 32.8 39 33.3 38.6 33.8C38.1 34.3 37.6001 34.6 36.9001 34.8C36.2001 35 35.4 35.1 34.6 35.1Z" fill="white"/>
<defs>
<linearGradient id="paint0_linear" x1="40.3641" y1="22.3104" x2="43.0853" y2="56.2656" gradientUnits="userSpaceOnUse">
<stop offset="0.0998726" stop-color="#087CFA"/>
<stop offset="0.4602" stop-color="#079AF6"/>
<stop offset="0.8454" stop-color="#07C3F2"/>
</linearGradient>
<linearGradient id="paint1_linear" x1="43.0343" y1="63.4911" x2="43.5678" y2="64.2653" gradientUnits="userSpaceOnUse">
<stop offset="0.2859" stop-color="#087CFA"/>
<stop offset="1" stop-color="#079AF6"/>
</linearGradient>
<linearGradient id="paint2_linear" x1="62.5043" y1="58.8458" x2="68.4947" y2="40.7968" gradientUnits="userSpaceOnUse">
<stop offset="0.1184" stop-color="#27A6F6"/>
<stop offset="0.2418" stop-color="#2F99F5"/>
<stop offset="0.9197" stop-color="#5753F2"/>
</linearGradient>
<linearGradient id="paint3_linear" x1="68.6658" y1="6.67337" x2="31.2258" y2="29.3133" gradientUnits="userSpaceOnUse">
<stop offset="0.286" stop-color="#0AEFFF"/>
<stop offset="0.3292" stop-color="#09DEFA"/>
<stop offset="0.3966" stop-color="#07CAF4"/>
<stop offset="0.442" stop-color="#07C3F2"/>
<stop offset="0.5015" stop-color="#07ACF5"/>
<stop offset="0.5749" stop-color="#0897F7"/>
<stop offset="0.6568" stop-color="#0888F9"/>
<stop offset="0.7528" stop-color="#087FFA"/>
<stop offset="0.8981" stop-color="#087CFA"/>
</linearGradient>
<linearGradient id="paint4_linear" x1="43.6139" y1="2.53628" x2="43.6139" y2="27.3698" gradientUnits="userSpaceOnUse">
<stop offset="0.207" stop-color="#02C5FE"/>
<stop offset="0.317" stop-color="#04ACFD"/>
<stop offset="0.4435" stop-color="#0697FB"/>
<stop offset="0.5845" stop-color="#0788FB"/>
<stop offset="0.7499" stop-color="#087FFA"/>
<stop offset="1" stop-color="#087CFA"/>
</linearGradient>
<linearGradient id="paint5_linear" x1="13.3873" y1="33.7783" x2="18.9402" y2="38.9797" gradientUnits="userSpaceOnUse">
<stop stop-color="#FF581C"/>
<stop offset="0.1918" stop-color="#FF5124"/>
<stop offset="0.4947" stop-color="#FE3F3B"/>
<stop offset="0.7851" stop-color="#FE2857"/>
</linearGradient>
<linearGradient id="paint6_linear" x1="20.5817" y1="46.8482" x2="29.9417" y2="56.9282" gradientUnits="userSpaceOnUse">
<stop offset="0.4574" stop-color="#FF149D"/>
<stop offset="0.536" stop-color="#EF1AB2"/>
<stop offset="0.6983" stop-color="#C82BE9"/>
<stop offset="0.7574" stop-color="#B831FF"/>
<stop offset="0.8388" stop-color="#A33AFE"/>
<stop offset="1" stop-color="#6E51FD"/>
</linearGradient>
<linearGradient id="paint7_linear" x1="22.6072" y1="1.3425" x2="25.5895" y2="14.3898" gradientUnits="userSpaceOnUse">
<stop offset="0.0276342" stop-color="#FFDE17"/>
<stop offset="0.276" stop-color="#FDB60D"/>
<stop offset="0.5939" stop-color="#FC801D"/>
<stop offset="0.6532" stop-color="#FC7A25"/>
<stop offset="0.7469" stop-color="#FD6A3C"/>
<stop offset="0.8628" stop-color="#FE4F61"/>
<stop offset="0.976" stop-color="#FF318C"/>
</linearGradient>
<linearGradient id="paint8_linear" x1="20.4631" y1="14.4498" x2="65.4749" y2="50.1844" gradientUnits="userSpaceOnUse">
<stop stop-color="#FE2857"/>
<stop offset="0.0557468" stop-color="#FE255F"/>
<stop offset="0.1437" stop-color="#FF1F76"/>
<stop offset="0.2282" stop-color="#FF1692"/>
<stop offset="0.289" stop-color="#F11BA7"/>
<stop offset="0.4143" stop-color="#CD29DE"/>
<stop offset="0.4828" stop-color="#B831FF"/>
<stop offset="0.581" stop-color="#7A4CFD"/>
<stop offset="0.748" stop-color="#087CFA"/>
<stop offset="0.9745" stop-color="#07A5F5"/>
</linearGradient>
<linearGradient id="paint9_linear" x1="7.948" y1="25.7607" x2="52.5796" y2="48.9803" gradientUnits="userSpaceOnUse">
<stop offset="0.2464" stop-color="#FE2857"/>
<stop offset="0.292" stop-color="#FE265F"/>
<stop offset="0.3641" stop-color="#FE1F76"/>
<stop offset="0.4534" stop-color="#FF159B"/>
<stop offset="0.4574" stop-color="#FF149D"/>
<stop offset="0.536" stop-color="#EF1AB2"/>
<stop offset="0.6983" stop-color="#C82BE9"/>
<stop offset="0.7574" stop-color="#B831FF"/>
<stop offset="0.811" stop-color="#A33AFE"/>
<stop offset="0.9215" stop-color="#6C52FD"/>
<stop offset="1" stop-color="#4164FC"/>
</linearGradient>
<linearGradient id="paint10_linear" x1="17.7608" y1="16.1316" x2="42.9607" y2="34.1316" gradientUnits="userSpaceOnUse">
<stop offset="0.00823305" stop-color="#FC35E3"/>
<stop offset="0.2164" stop-color="#F12CD5"/>
<stop offset="0.4105" stop-color="#EB27CD"/>
<stop offset="0.4984" stop-color="#DE2ADA"/>
<stop offset="0.7777" stop-color="#B831FF"/>
<stop offset="1" stop-color="#6D51FD"/>
</linearGradient>
<linearGradient id="paint11_linear" x1="7.5146" y1="15.6605" x2="16.2145" y2="21.2405" gradientUnits="userSpaceOnUse">
<stop offset="0.0433729" stop-color="#FFD25F"/>
<stop offset="0.2889" stop-color="#FEBC9B"/>
<stop offset="0.6173" stop-color="#FC9CF0"/>
<stop offset="1" stop-color="#FD5ED7"/>
</linearGradient>
<linearGradient id="paint12_linear" x1="0.385352" y1="32.0296" x2="40.6653" y2="71.451" gradientUnits="userSpaceOnUse">
<stop offset="0.0226617" stop-color="#FC801D"/>
<stop offset="0.2467" stop-color="#FC7E20"/>
<stop offset="0.276" stop-color="#FC772A"/>
<stop offset="0.3253" stop-color="#FD6444"/>
<stop offset="0.3881" stop-color="#FE466E"/>
<stop offset="0.4273" stop-color="#FF318C"/>
<stop offset="0.4924" stop-color="#EA3896"/>
<stop offset="0.6276" stop-color="#B248AE"/>
<stop offset="0.8194" stop-color="#5A63D6"/>
<stop offset="0.9859" stop-color="#087CFA"/>
</linearGradient>
<linearGradient id="paint13_linear" x1="10.2598" y1="32.1393" x2="22.9719" y2="54.1063" gradientUnits="userSpaceOnUse">
<stop offset="0.00442798" stop-color="#FFDE17"/>
<stop offset="0.0525354" stop-color="#FECB12"/>
<stop offset="0.1093" stop-color="#FDBB0E"/>
<stop offset="0.1542" stop-color="#FDB60D"/>
<stop offset="0.2351" stop-color="#FDAE0F"/>
<stop offset="0.3571" stop-color="#FC9A15"/>
<stop offset="0.4724" stop-color="#FC801D"/>
<stop offset="1" stop-color="#FE4176"/>
</linearGradient>
<linearGradient id="paint14_linear" x1="36.7356" y1="43.464" x2="48.4891" y2="62.1889" gradientUnits="userSpaceOnUse">
<stop offset="0.0211218" stop-color="#B149AF"/>
<stop offset="0.0831639" stop-color="#9153BD"/>
<stop offset="0.2186" stop-color="#3F6BE2"/>
<stop offset="0.3042" stop-color="#087CFA"/>
<stop offset="0.7942" stop-color="#07C3F2"/>
</linearGradient>
<linearGradient id="paint15_linear" x1="7.948" y1="25.7607" x2="52.5796" y2="48.9803" gradientUnits="userSpaceOnUse">
<stop offset="0.2464" stop-color="#FE2857"/>
<stop offset="0.292" stop-color="#FE265F"/>
<stop offset="0.3641" stop-color="#FE1F76"/>
<stop offset="0.4534" stop-color="#FF159B"/>
<stop offset="0.4574" stop-color="#FF149D"/>
<stop offset="0.536" stop-color="#EF1AB2"/>
<stop offset="0.6983" stop-color="#C82BE9"/>
<stop offset="0.7574" stop-color="#B831FF"/>
<stop offset="0.811" stop-color="#A33AFE"/>
<stop offset="0.9215" stop-color="#6C52FD"/>
<stop offset="1" stop-color="#4164FC"/>
</linearGradient>
<linearGradient id="paint16_linear" x1="12.0393" y1="27.8623" x2="32.6274" y2="39.314" gradientUnits="userSpaceOnUse">
<stop offset="0.00629908" stop-color="#FF45ED"/>
<stop offset="0.1766" stop-color="#FF35D8"/>
<stop offset="0.3352" stop-color="#FF24C0"/>
<stop offset="0.7349" stop-color="#EA23CA"/>
<stop offset="1" stop-color="#D923D1"/>
</linearGradient>
<linearGradient id="paint17_linear" x1="58.7896" y1="49.5362" x2="52.0459" y2="67.0462" gradientUnits="userSpaceOnUse">
<stop offset="0.2157" stop-color="#07C3F2"/>
<stop offset="0.3237" stop-color="#04B1EC"/>
<stop offset="0.4576" stop-color="#01A1E7"/>
<stop offset="0.5613" stop-color="#009BE5"/>
<stop offset="0.5745" stop-color="#0198E7"/>
<stop offset="0.6778" stop-color="#058AF1"/>
<stop offset="0.7992" stop-color="#0781F7"/>
<stop offset="0.9829" stop-color="#087EF9"/>
</linearGradient>
<linearGradient id="paint18_linear" x1="30.5947" y1="56.7393" x2="46.0347" y2="62.2593" gradientUnits="userSpaceOnUse">
<stop offset="0.1529" stop-color="#087CFA"/>
<stop offset="0.6343" stop-color="#009AE5"/>
<stop offset="1" stop-color="#07C3F2"/>
</linearGradient>
<linearGradient id="paint19_linear" x1="43.0656" y1="16.0728" x2="38.2675" y2="38.1712" gradientUnits="userSpaceOnUse">
<stop stop-color="#FF188D"/>
<stop offset="0.3188" stop-color="#D82EC8"/>
<stop offset="0.4411" stop-color="#CC30CC"/>
<stop offset="0.6628" stop-color="#AC35D7"/>
<stop offset="0.8981" stop-color="#833CE5"/>
</linearGradient>
<linearGradient id="paint20_linear" x1="32.8097" y1="21.2839" x2="42.1696" y2="34.4838" gradientUnits="userSpaceOnUse">
<stop stop-color="#FF188D"/>
<stop offset="0.3188" stop-color="#D82EC8"/>
<stop offset="0.4411" stop-color="#CC30CC"/>
<stop offset="0.6628" stop-color="#AC35D7"/>
<stop offset="0.8981" stop-color="#833CE5"/>
</linearGradient>
<linearGradient id="paint21_linear" x1="14.3828" y1="18.1916" x2="55.3297" y2="51.574" gradientUnits="userSpaceOnUse">
<stop stop-color="#521713"/>
<stop offset="0.080028" stop-color="#451310"/>
<stop offset="0.2989" stop-color="#270B09"/>
<stop offset="0.514" stop-color="#110504"/>
<stop offset="0.7218" stop-color="#040101"/>
<stop offset="0.9138"/>
</linearGradient>
<linearGradient id="paint22_linear" x1="15" y1="30.4751" x2="55" y2="30.4751" gradientUnits="userSpaceOnUse">
<stop offset="0.2464" stop-color="#FE2857"/>
<stop offset="0.292" stop-color="#FE265F"/>
<stop offset="0.3641" stop-color="#FE1F76"/>
<stop offset="0.4534" stop-color="#FF159B"/>
<stop offset="0.4574" stop-color="#FF149D"/>
<stop offset="0.536" stop-color="#EF1AB2"/>
<stop offset="0.6983" stop-color="#C82BE9"/>
<stop offset="0.7574" stop-color="#B831FF"/>
<stop offset="0.811" stop-color="#A33AFE"/>
<stop offset="0.9215" stop-color="#6C52FD"/>
<stop offset="1" stop-color="#4164FC"/>
</linearGradient>
<linearGradient id="paint23_linear" x1="15.8182" y1="30.4295" x2="55" y2="30.4295" gradientUnits="userSpaceOnUse">
<stop offset="0.1118" stop-color="#F7941D"/>
<stop offset="0.1374" stop-color="#F88C25"/>
<stop offset="0.178" stop-color="#F9753A"/>
<stop offset="0.2284" stop-color="#FB505D"/>
<stop offset="0.2863" stop-color="#FF1C8C"/>
<stop offset="0.2928" stop-color="#FF1692"/>
<stop offset="0.4031" stop-color="#EA1A93"/>
<stop offset="0.4677" stop-color="#DB1D93"/>
<stop offset="0.5543" stop-color="#9F2895"/>
<stop offset="0.7229" stop-color="#21409A"/>
<stop offset="0.8671" stop-color="#222F5C"/>
<stop offset="1" stop-color="#231F20"/>
</linearGradient>
<linearGradient id="paint24_linear" x1="15" y1="35.2386" x2="55" y2="35.2386" gradientUnits="userSpaceOnUse">
<stop offset="0.0878508" stop-color="#FE2857"/>
<stop offset="0.1283" stop-color="#FE265F"/>
<stop offset="0.1923" stop-color="#FE1F76"/>
<stop offset="0.2716" stop-color="#FF159B"/>
<stop offset="0.2751" stop-color="#FF149D"/>
<stop offset="0.4167" stop-color="#B21871"/>
<stop offset="0.5427" stop-color="#741B4E"/>
<stop offset="0.6489" stop-color="#481D35"/>
<stop offset="0.731" stop-color="#2D1E26"/>
<stop offset="0.7791" stop-color="#231F20"/>
</linearGradient>
<linearGradient id="paint25_linear" x1="18.8719" y1="29.7393" x2="34.5361" y2="38.4522" gradientUnits="userSpaceOnUse">
<stop offset="0.00629908" stop-color="#FF45ED"/>
<stop offset="0.1766" stop-color="#FF35D8"/>
<stop offset="0.3352" stop-color="#FF24C0"/>
<stop offset="0.451" stop-color="#EA24B0"/>
<stop offset="0.6916" stop-color="#B22388"/>
<stop offset="1" stop-color="#63214F"/>
</linearGradient>
<linearGradient id="paint26_linear" x1="21.2834" y1="48.5993" x2="37.5802" y2="48.5993" gradientUnits="userSpaceOnUse">
<stop offset="0.4574" stop-color="#FF149D"/>
<stop offset="0.536" stop-color="#EF1AB2"/>
<stop offset="0.6983" stop-color="#C82BE9"/>
<stop offset="0.7574" stop-color="#B831FF"/>
<stop offset="0.8388" stop-color="#A33AFE"/>
<stop offset="1" stop-color="#6E51FD"/>
</linearGradient>
<linearGradient id="paint27_linear" x1="15" y1="44.0548" x2="37.5802" y2="44.0548" gradientUnits="userSpaceOnUse">
<stop offset="0.00442798" stop-color="#FFDE17"/>
<stop offset="0.0386836" stop-color="#FECB12"/>
<stop offset="0.0790912" stop-color="#FDBB0E"/>
<stop offset="0.1111" stop-color="#FDB60D"/>
<stop offset="0.1673" stop-color="#FDAE0F"/>
<stop offset="0.2521" stop-color="#FC9A15"/>
<stop offset="0.3323" stop-color="#FC801D"/>
<stop offset="0.7374" stop-color="#BE1E2D"/>
</linearGradient>
<linearGradient id="paint28_linear" x1="30.7583" y1="48.5993" x2="55" y2="48.5993" gradientUnits="userSpaceOnUse">
<stop stop-color="#087CFA"/>
<stop offset="0.7942" stop-color="#231F20"/>
</linearGradient>
<linearGradient id="paint29_linear" x1="71.3219" y1="53.0793" x2="45.8329" y2="11.8035" gradientUnits="userSpaceOnUse">
<stop offset="0.3486" stop-color="#3595F3"/>
<stop offset="0.4019" stop-color="#3490EB"/>
<stop offset="0.4865" stop-color="#3284D4"/>
<stop offset="0.5918" stop-color="#2F6FAE"/>
<stop offset="0.7135" stop-color="#2B527B"/>
<stop offset="0.8476" stop-color="#252D39"/>
<stop offset="0.8951" stop-color="#231F20"/>
</linearGradient>
<linearGradient id="paint30_linear" x1="15.8182" y1="30.4295" x2="55" y2="30.4295" gradientUnits="userSpaceOnUse">
<stop offset="0.1118" stop-color="#F7941D"/>
<stop offset="0.1374" stop-color="#F88C25"/>
<stop offset="0.178" stop-color="#F9753A"/>
<stop offset="0.2284" stop-color="#FB505D"/>
<stop offset="0.2863" stop-color="#FF1C8C"/>
<stop offset="0.2928" stop-color="#FF1692"/>
<stop offset="0.4031" stop-color="#EA1A93"/>
<stop offset="0.4677" stop-color="#DB1D93"/>
<stop offset="0.5543" stop-color="#9F2895"/>
<stop offset="0.7229" stop-color="#21409A"/>
<stop offset="0.8671" stop-color="#222F5C"/>
<stop offset="1" stop-color="#231F20"/>
</linearGradient>
</defs>
</svg>
