<svg width="128" height="128" viewBox="0 0 128 128" fill="none" xmlns="http://www.w3.org/2000/svg">
<path d="M122 36.95L116.45 79.8L113.5 98.7L75.25 122L27.9 85.65L85.5 25.35L122 36.95Z" fill="url(#paint0_linear)"/>
<path d="M75.3 112.4L75.35 115.8H79.3L80.65 113.75L75.3 112.4Z" fill="url(#paint1_linear)"/>
<path d="M110.65 96.6L116.45 79.75L119.85 104.2L110.65 96.6Z" fill="url(#paint2_linear)"/>
<path d="M122 36.95L55.2 82.55L24.95 87.15L85.5 7.90002L122 36.95Z" fill="url(#paint3_linear)"/>
<path d="M72.8 24.95L85.5 7.90002L83.35 43L72.8 24.95Z" fill="url(#paint4_linear)"/>
<path d="M24.65 86.9L7.30005 74.35L23.9 57.9L73.6 78L24.65 86.9Z" fill="url(#paint5_linear)"/>
<path d="M53.1 106.45L15.35 119.15L24.85 92.45L71 74.6L96.75 90.45L53.1 106.45Z" fill="url(#paint6_linear)"/>
<path d="M42.4501 30.4L22.8 6L60.75 10.5L65.0501 22.95L42.4501 30.4Z" fill="url(#paint7_linear)"/>
<path d="M116.45 79.75L60.75 10.5L40.3 10.75L28.8 44.5L101.2 84.2L88.95 102.15L113.5 98.7L116.45 79.75Z" fill="url(#paint8_linear)"/>
<path d="M28.8 46.4L16 46.1L23 6L40.5 10.8L28.8 46.4Z" fill="url(#paint9_linear)"/>
<path d="M101.2 84.2L68.75 77.2L6 51.9501L29.1 44.8L101.2 84.2Z" fill="url(#paint10_linear)"/>
<path d="M38.25 16.8L29.0499 44.75L28.95 44.85L29.1 44.8L74.5 69.6L75.4499 69.85L94.1499 55.85L38.25 16.8Z" fill="url(#paint11_linear)"/>
<path d="M22.8 6L6 51.95L27.4 46.45L29.05 44.75L38.25 16.8L22.8 6Z" fill="url(#paint12_linear)"/>
<path d="M15.35 119.15L29.7 61.65L68.75 77.2L15.35 119.15Z" fill="url(#paint13_linear)"/>
<path d="M68.75 77.2L47 58.45L17.35 55.75L7.30005 74.35L28.4501 65.8L28.7001 65.7L15.35 119.15L68.75 77.2Z" fill="url(#paint14_linear)"/>
<path d="M101.2 84.2L80.95 113.85L53.05 106.6L68.75 77.2L101.2 84.2Z" fill="url(#paint15_linear)"/>
<path d="M101.2 84.2L68.75 77.2L6 51.9501L29.1 44.8L101.2 84.2Z" fill="url(#paint16_linear)"/>
<path d="M29.1 44.8L6 51.9501L74.5 69.6L29.1 44.8Z" fill="url(#paint17_linear)"/>
<path d="M113.5 98.7L88.25 102.25L75.25 122L119.85 104.2L113.5 98.7Z" fill="url(#paint18_linear)"/>
<path d="M75.25 122L88.7 102.4L53 106.75L75.25 122Z" fill="url(#paint19_linear)"/>
<path d="M49.05 55.6L74.35 69.45L96.2 54.55L72.45 25L49.05 55.6Z" fill="url(#paint20_linear)"/>
<path d="M94.1501 55.85L64.6 35.25L49.05 55.6L74.35 69.45L93.1501 56.65L94.1501 55.85Z" fill="url(#paint21_linear)"/>
<path d="M100 28H28V100H100V28Z" fill="url(#paint22_linear)"/>
<g opacity="0.5">
<g opacity="0.3">
<path opacity="0.3" d="M98.7 100L100 99.8V84.55L89.45 100H98.7Z" fill="#231F20"/>
<path opacity="0.3" d="M74.1 28H35.2L29.45 44.85L96.9 81.85L29.75 45.15L28 45.7V60.6L68.65 76.95L100 83.7V83.55V60.2L74.1 28Z" fill="url(#paint23_linear)"/>
<path opacity="0.3" d="M35.2 28L29.45 44.85L100 83.55V60.2L74.0999 28H35.2Z" fill="url(#paint24_linear)"/>
<path opacity="0.3" d="M35.2 28L29.45 44.85L100 83.55V60.2L74.0999 28H35.2Z" fill="url(#paint25_linear)"/>
<path opacity="0.3" d="M28 28V46.8H28.1L29.7 45.1L35.35 28H28Z" fill="#F9ED32"/>
</g>
<path opacity="0.3" d="M28 45.7V60.6L68.65 76.95L100 83.7V83.55L29.75 45.15L28 45.7Z" fill="url(#paint26_linear)"/>
<path opacity="0.3" d="M28 57.55L74.3 69.5L29.75 45.15L28 45.7V57.55Z" fill="url(#paint27_linear)"/>
<path opacity="0.3" d="M56.35 100L68.6501 76.95L39.3 100H56.35Z" fill="url(#paint28_linear)"/>
<path opacity="0.3" d="M28 71.15L29.35 65.65L29.15 65.75L28 66.2V71.15Z" fill="#F7941D"/>
<path opacity="0.3" d="M28 66.2L29.15 65.75L29.35 65.65L28 71.15V100H39.3L68.65 76.95L28 60.6V66.2Z" fill="url(#paint29_linear)"/>
<path opacity="0.3" d="M56.35 100H89.45L100 84.55V83.7L68.65 76.95L56.35 100Z" fill="url(#paint30_linear)"/>
<g opacity="0.3">
<path opacity="0.3" d="M95.6 54.75L100 51.7V28H74.1L95.6 54.75Z" fill="url(#paint31_linear)"/>
</g>
<path opacity="0.2" d="M35.25 28L29.5 44.85L100.05 83.55V60.2L74.15 28H35.25Z" fill="url(#paint32_linear)"/>
<path opacity="0.4" d="M28 28V46.8H28.1L29.7 45.1L35.35 28H28Z" fill="#F9ED32"/>
</g>
<path d="M64 86.4H36.9V90.9H64V86.4Z" fill="white"/>
<path d="M50.4 41.9V37H37V41.9H40.7V58.9H37V63.9H50.4V58.9H46.7V41.9H50.4Z" fill="white"/>
<path d="M63.3 64.2C61.2 64.2 59.4 63.8 58 63C56.6 62.2 55.4 61.3 54.5 60.2L58.2 56.1C59 56.9 59.7 57.6 60.5 58.1C61.3 58.6 62.1 58.8 63.1 58.8C64.2 58.8 65.1 58.4 65.8 57.7C66.4 57 66.8 55.9 66.8 54.3V37H72.9V54.6C72.9 56.2 72.7 57.6 72.2 58.8C71.8 60 71.1 61 70.3 61.8C69.5 62.6 68.5 63.2 67.3 63.7C66.1 64 64.8 64.2 63.3 64.2Z" fill="white"/>
<defs>
<linearGradient id="paint0_linear" x1="73.3018" y1="40.7827" x2="78.2033" y2="101.944" gradientUnits="userSpaceOnUse">
<stop offset="0.0998726" stop-color="#087CFA"/>
<stop offset="0.4602" stop-color="#079AF6"/>
<stop offset="0.8454" stop-color="#07C3F2"/>
</linearGradient>
<linearGradient id="paint1_linear" x1="78.1114" y1="114.959" x2="79.0724" y2="116.354" gradientUnits="userSpaceOnUse">
<stop offset="0.2859" stop-color="#087CFA"/>
<stop offset="1" stop-color="#079AF6"/>
</linearGradient>
<linearGradient id="paint2_linear" x1="113.182" y1="106.592" x2="123.972" y2="74.0812" gradientUnits="userSpaceOnUse">
<stop offset="0.1184" stop-color="#27A6F6"/>
<stop offset="0.2418" stop-color="#2F99F5"/>
<stop offset="0.9197" stop-color="#5753F2"/>
</linearGradient>
<linearGradient id="paint3_linear" x1="124.28" y1="12.6167" x2="56.8415" y2="53.3967" gradientUnits="userSpaceOnUse">
<stop offset="0.286" stop-color="#0AEFFF"/>
<stop offset="0.3292" stop-color="#09DEFA"/>
<stop offset="0.3966" stop-color="#07CAF4"/>
<stop offset="0.442" stop-color="#07C3F2"/>
<stop offset="0.5015" stop-color="#07ACF5"/>
<stop offset="0.5749" stop-color="#0897F7"/>
<stop offset="0.6568" stop-color="#0888F9"/>
<stop offset="0.7528" stop-color="#087FFA"/>
<stop offset="0.8981" stop-color="#087CFA"/>
</linearGradient>
<linearGradient id="paint4_linear" x1="79.1554" y1="5.16477" x2="79.1554" y2="49.8959" gradientUnits="userSpaceOnUse">
<stop offset="0.207" stop-color="#02C5FE"/>
<stop offset="0.317" stop-color="#04ACFD"/>
<stop offset="0.4435" stop-color="#0697FB"/>
<stop offset="0.5845" stop-color="#0788FB"/>
<stop offset="0.7499" stop-color="#087FFA"/>
<stop offset="1" stop-color="#087CFA"/>
</linearGradient>
<linearGradient id="paint5_linear" x1="24.71" y1="61.4392" x2="34.7121" y2="70.8083" gradientUnits="userSpaceOnUse">
<stop  offset="0" stop-color="#FF581C"/>
<stop offset="0.1918" stop-color="#FF5124"/>
<stop offset="0.4947" stop-color="#FE3F3B"/>
<stop offset="0.7851" stop-color="#FE2857"/>
</linearGradient>
<linearGradient id="paint6_linear" x1="37.6689" y1="84.9812" x2="54.5285" y2="103.138" gradientUnits="userSpaceOnUse">
<stop offset="0.4574" stop-color="#FF149D"/>
<stop offset="0.536" stop-color="#EF1AB2"/>
<stop offset="0.6983" stop-color="#C82BE9"/>
<stop offset="0.7574" stop-color="#B831FF"/>
<stop offset="0.8388" stop-color="#A33AFE"/>
<stop offset="1" stop-color="#6E51FD"/>
</linearGradient>
<linearGradient id="paint7_linear" x1="41.3174" y1="3.0145" x2="46.6891" y2="26.5158" gradientUnits="userSpaceOnUse">
<stop offset="0.0276342" stop-color="#FFDE17"/>
<stop offset="0.276" stop-color="#FDB60D"/>
<stop offset="0.5939" stop-color="#FC801D"/>
<stop offset="0.6532" stop-color="#FC7A25"/>
<stop offset="0.7469" stop-color="#FD6A3C"/>
<stop offset="0.8628" stop-color="#FE4F61"/>
<stop offset="0.976" stop-color="#FF318C"/>
</linearGradient>
<linearGradient id="paint8_linear" x1="37.4553" y1="26.624" x2="118.532" y2="90.9905" gradientUnits="userSpaceOnUse">
<stop  offset="0" stop-color="#FE2857"/>
<stop offset="0.0557468" stop-color="#FE255F"/>
<stop offset="0.1437" stop-color="#FF1F76"/>
<stop offset="0.2282" stop-color="#FF1692"/>
<stop offset="0.289" stop-color="#F11BA7"/>
<stop offset="0.4143" stop-color="#CD29DE"/>
<stop offset="0.4828" stop-color="#B831FF"/>
<stop offset="0.581" stop-color="#7A4CFD"/>
<stop offset="0.748" stop-color="#087CFA"/>
<stop offset="0.9745" stop-color="#07A5F5"/>
</linearGradient>
<linearGradient id="paint9_linear" x1="18.4095" y1="23.9688" x2="34.8368" y2="31.462" gradientUnits="userSpaceOnUse">
<stop offset="0.494792" stop-color="#FFD360"/>
<stop offset="1" stop-color="#FFE77C"/>
</linearGradient>
<linearGradient id="paint10_linear" x1="14.9126" y1="46.9976" x2="95.3049" y2="88.8217" gradientUnits="userSpaceOnUse">
<stop offset="0.2464" stop-color="#FE2857"/>
<stop offset="0.292" stop-color="#FE265F"/>
<stop offset="0.3641" stop-color="#FE1F76"/>
<stop offset="0.4534" stop-color="#FF159B"/>
<stop offset="0.4574" stop-color="#FF149D"/>
<stop offset="0.536" stop-color="#EF1AB2"/>
<stop offset="0.6983" stop-color="#C82BE9"/>
<stop offset="0.7574" stop-color="#B831FF"/>
<stop offset="0.811" stop-color="#A33AFE"/>
<stop offset="0.9215" stop-color="#6C52FD"/>
<stop offset="1" stop-color="#4164FC"/>
</linearGradient>
<linearGradient id="paint11_linear" x1="32.5877" y1="29.6532" x2="77.9789" y2="62.0755" gradientUnits="userSpaceOnUse">
<stop offset="0.00823305" stop-color="#FC35E3"/>
<stop offset="0.2164" stop-color="#F12CD5"/>
<stop offset="0.4105" stop-color="#EB27CD"/>
<stop offset="0.4984" stop-color="#DE2ADA"/>
<stop offset="0.7777" stop-color="#B831FF"/>
<stop offset="1" stop-color="#6D51FD"/>
</linearGradient>
<linearGradient id="paint12_linear" x1="14.1318" y1="28.8046" x2="29.8026" y2="38.8555" gradientUnits="userSpaceOnUse">
<stop offset="0.0433729" stop-color="#FFD25F"/>
<stop offset="0.2889" stop-color="#FEBC9B"/>
<stop offset="0.6173" stop-color="#FC9CF0"/>
<stop offset="1" stop-color="#FD5ED7"/>
</linearGradient>
<linearGradient id="paint13_linear" x1="1.29052" y1="58.2894" x2="73.8442" y2="129.297" gradientUnits="userSpaceOnUse">
<stop offset="0.0226617" stop-color="#FC801D"/>
<stop offset="0.2467" stop-color="#FC7E20"/>
<stop offset="0.276" stop-color="#FC772A"/>
<stop offset="0.3253" stop-color="#FD6444"/>
<stop offset="0.3881" stop-color="#FE466E"/>
<stop offset="0.4273" stop-color="#FF318C"/>
<stop offset="0.4924" stop-color="#EA3896"/>
<stop offset="0.6276" stop-color="#B248AE"/>
<stop offset="0.8194" stop-color="#5A63D6"/>
<stop offset="0.9859" stop-color="#087CFA"/>
</linearGradient>
<linearGradient id="paint14_linear" x1="19.0767" y1="58.487" x2="41.9745" y2="98.0548" gradientUnits="userSpaceOnUse">
<stop offset="0.00442798" stop-color="#FFDE17"/>
<stop offset="0.0525354" stop-color="#FECB12"/>
<stop offset="0.1093" stop-color="#FDBB0E"/>
<stop offset="0.1542" stop-color="#FDB60D"/>
<stop offset="0.2351" stop-color="#FDAE0F"/>
<stop offset="0.3571" stop-color="#FC9A15"/>
<stop offset="0.4724" stop-color="#FC801D"/>
<stop offset="1" stop-color="#FE4176"/>
</linearGradient>
<linearGradient id="paint15_linear" x1="66.766" y1="78.8854" x2="87.9369" y2="112.614" gradientUnits="userSpaceOnUse">
<stop offset="0.0211218" stop-color="#B149AF"/>
<stop offset="0.0831639" stop-color="#9153BD"/>
<stop offset="0.2186" stop-color="#3F6BE2"/>
<stop offset="0.3042" stop-color="#087CFA"/>
<stop offset="0.7942" stop-color="#07C3F2"/>
</linearGradient>
<linearGradient id="paint16_linear" x1="14.9126" y1="46.9976" x2="95.3049" y2="88.8217" gradientUnits="userSpaceOnUse">
<stop offset="0.2464" stop-color="#FE2857"/>
<stop offset="0.292" stop-color="#FE265F"/>
<stop offset="0.3641" stop-color="#FE1F76"/>
<stop offset="0.4534" stop-color="#FF159B"/>
<stop offset="0.4574" stop-color="#FF149D"/>
<stop offset="0.536" stop-color="#EF1AB2"/>
<stop offset="0.6983" stop-color="#C82BE9"/>
<stop offset="0.7574" stop-color="#B831FF"/>
<stop offset="0.811" stop-color="#A33AFE"/>
<stop offset="0.9215" stop-color="#6C52FD"/>
<stop offset="1" stop-color="#4164FC"/>
</linearGradient>
<linearGradient id="paint17_linear" x1="22.2821" y1="50.783" x2="59.3661" y2="71.4104" gradientUnits="userSpaceOnUse">
<stop offset="0.00629908" stop-color="#FF45ED"/>
<stop offset="0.1766" stop-color="#FF35D8"/>
<stop offset="0.3352" stop-color="#FF24C0"/>
<stop offset="0.7349" stop-color="#EA23CA"/>
<stop offset="1" stop-color="#D923D1"/>
</linearGradient>
<linearGradient id="paint18_linear" x1="106.491" y1="89.8229" x2="94.3435" y2="121.363" gradientUnits="userSpaceOnUse">
<stop offset="0.2157" stop-color="#07C3F2"/>
<stop offset="0.3237" stop-color="#04B1EC"/>
<stop offset="0.4576" stop-color="#01A1E7"/>
<stop offset="0.5613" stop-color="#009BE5"/>
<stop offset="0.5745" stop-color="#0198E7"/>
<stop offset="0.6778" stop-color="#058AF1"/>
<stop offset="0.7992" stop-color="#0781F7"/>
<stop offset="0.9829" stop-color="#087EF9"/>
</linearGradient>
<linearGradient id="paint19_linear" x1="55.7048" y1="102.798" x2="83.5159" y2="112.74" gradientUnits="userSpaceOnUse">
<stop offset="0.1529" stop-color="#087CFA"/>
<stop offset="0.6343" stop-color="#009AE5"/>
<stop offset="1" stop-color="#07C3F2"/>
</linearGradient>
<linearGradient id="paint20_linear" x1="78.1679" y1="29.5474" x2="69.5253" y2="69.3518" gradientUnits="userSpaceOnUse">
<stop  offset="0" stop-color="#FF188D"/>
<stop offset="0.3188" stop-color="#D82EC8"/>
<stop offset="0.4411" stop-color="#CC30CC"/>
<stop offset="0.6628" stop-color="#AC35D7"/>
<stop offset="0.8981" stop-color="#833CE5"/>
</linearGradient>
<linearGradient id="paint21_linear" x1="59.6945" y1="38.9337" x2="76.554" y2="62.7101" gradientUnits="userSpaceOnUse">
<stop  offset="0" stop-color="#FF188D"/>
<stop offset="0.3188" stop-color="#D82EC8"/>
<stop offset="0.4411" stop-color="#CC30CC"/>
<stop offset="0.6628" stop-color="#AC35D7"/>
<stop offset="0.8981" stop-color="#833CE5"/>
</linearGradient>
<linearGradient id="paint22_linear" x1="26.889" y1="33.7449" x2="100.593" y2="93.8332" gradientUnits="userSpaceOnUse">
<stop  offset="0" stop-color="#521713"/>
<stop offset="0.080028" stop-color="#451310"/>
<stop offset="0.2989" stop-color="#270B09"/>
<stop offset="0.514" stop-color="#110504"/>
<stop offset="0.7218" stop-color="#040101"/>
<stop offset="0.9138"/>
</linearGradient>
<linearGradient id="paint23_linear" x1="28" y1="55.8551" x2="100" y2="55.8551" gradientUnits="userSpaceOnUse">
<stop offset="0.2464" stop-color="#FE2857"/>
<stop offset="0.292" stop-color="#FE265F"/>
<stop offset="0.3641" stop-color="#FE1F76"/>
<stop offset="0.4534" stop-color="#FF159B"/>
<stop offset="0.4574" stop-color="#FF149D"/>
<stop offset="0.536" stop-color="#EF1AB2"/>
<stop offset="0.6983" stop-color="#C82BE9"/>
<stop offset="0.7574" stop-color="#B831FF"/>
<stop offset="0.811" stop-color="#A33AFE"/>
<stop offset="0.9215" stop-color="#6C52FD"/>
<stop offset="1" stop-color="#4164FC"/>
</linearGradient>
<linearGradient id="paint24_linear" x1="29.4728" y1="55.7732" x2="100" y2="55.7732" gradientUnits="userSpaceOnUse">
<stop offset="0.1118" stop-color="#F7941D"/>
<stop offset="0.1374" stop-color="#F88C25"/>
<stop offset="0.178" stop-color="#F9753A"/>
<stop offset="0.2284" stop-color="#FB505D"/>
<stop offset="0.2863" stop-color="#FF1C8C"/>
<stop offset="0.2928" stop-color="#FF1692"/>
<stop offset="0.4031" stop-color="#EA1A93"/>
<stop offset="0.4677" stop-color="#DB1D93"/>
<stop offset="0.5543" stop-color="#9F2895"/>
<stop offset="0.7229" stop-color="#21409A"/>
<stop offset="0.8671" stop-color="#222F5C"/>
<stop offset="1" stop-color="#231F20"/>
</linearGradient>
<linearGradient id="paint25_linear" x1="29.4728" y1="55.7732" x2="100" y2="55.7732" gradientUnits="userSpaceOnUse">
<stop offset="0.3438" stop-color="#FF69FE"/>
<stop offset="0.3801" stop-color="#EA65F4"/>
<stop offset="0.4555" stop-color="#B25BDB"/>
<stop offset="0.5626" stop-color="#5A4AB4"/>
<stop offset="0.6276" stop-color="#21409A"/>
<stop offset="0.8214" stop-color="#222F5C"/>
<stop offset="1" stop-color="#231F20"/>
</linearGradient>
<linearGradient id="paint26_linear" x1="28" y1="64.4296" x2="100" y2="64.4296" gradientUnits="userSpaceOnUse">
<stop offset="0.0878508" stop-color="#FE2857"/>
<stop offset="0.1283" stop-color="#FE265F"/>
<stop offset="0.1923" stop-color="#FE1F76"/>
<stop offset="0.2716" stop-color="#FF159B"/>
<stop offset="0.2751" stop-color="#FF149D"/>
<stop offset="0.4167" stop-color="#B21871"/>
<stop offset="0.5427" stop-color="#741B4E"/>
<stop offset="0.6489" stop-color="#481D35"/>
<stop offset="0.731" stop-color="#2D1E26"/>
<stop offset="0.7791" stop-color="#231F20"/>
</linearGradient>
<linearGradient id="paint27_linear" x1="34.9695" y1="54.5307" x2="63.1651" y2="70.214" gradientUnits="userSpaceOnUse">
<stop offset="0.00629908" stop-color="#FF45ED"/>
<stop offset="0.1766" stop-color="#FF35D8"/>
<stop offset="0.3352" stop-color="#FF24C0"/>
<stop offset="0.451" stop-color="#EA24B0"/>
<stop offset="0.6916" stop-color="#B22388"/>
<stop offset="1" stop-color="#63214F"/>
</linearGradient>
<linearGradient id="paint28_linear" x1="39.3102" y1="88.4788" x2="68.6444" y2="88.4788" gradientUnits="userSpaceOnUse">
<stop offset="0.4574" stop-color="#FF149D"/>
<stop offset="0.536" stop-color="#EF1AB2"/>
<stop offset="0.6983" stop-color="#C82BE9"/>
<stop offset="0.7574" stop-color="#B831FF"/>
<stop offset="0.8388" stop-color="#A33AFE"/>
<stop offset="1" stop-color="#6E51FD"/>
</linearGradient>
<linearGradient id="paint29_linear" x1="28" y1="80.2986" x2="68.6444" y2="80.2986" gradientUnits="userSpaceOnUse">
<stop offset="0.00442798" stop-color="#FFDE17"/>
<stop offset="0.0386836" stop-color="#FECB12"/>
<stop offset="0.0790912" stop-color="#FDBB0E"/>
<stop offset="0.1111" stop-color="#FDB60D"/>
<stop offset="0.1673" stop-color="#FDAE0F"/>
<stop offset="0.2521" stop-color="#FC9A15"/>
<stop offset="0.3323" stop-color="#FC801D"/>
<stop offset="0.7374" stop-color="#BE1E2D"/>
</linearGradient>
<linearGradient id="paint30_linear" x1="56.3649" y1="88.4788" x2="100" y2="88.4788" gradientUnits="userSpaceOnUse">
<stop  offset="0" stop-color="#087CFA"/>
<stop offset="0.7942" stop-color="#231F20"/>
</linearGradient>
<linearGradient id="paint31_linear" x1="129.379" y1="96.5427" x2="83.4992" y2="22.2462" gradientUnits="userSpaceOnUse">
<stop offset="0.3486" stop-color="#3595F3"/>
<stop offset="0.4019" stop-color="#3490EB"/>
<stop offset="0.4865" stop-color="#3284D4"/>
<stop offset="0.5918" stop-color="#2F6FAE"/>
<stop offset="0.7135" stop-color="#2B527B"/>
<stop offset="0.8476" stop-color="#252D39"/>
<stop offset="0.8951" stop-color="#231F20"/>
</linearGradient>
<linearGradient id="paint32_linear" x1="29.5228" y1="55.7732" x2="100.05" y2="55.7732" gradientUnits="userSpaceOnUse">
<stop offset="0.1118" stop-color="#F7941D"/>
<stop offset="0.1374" stop-color="#F88C25"/>
<stop offset="0.178" stop-color="#F9753A"/>
<stop offset="0.2284" stop-color="#FB505D"/>
<stop offset="0.2863" stop-color="#FF1C8C"/>
<stop offset="0.2928" stop-color="#FF1692"/>
<stop offset="0.4031" stop-color="#EA1A93"/>
<stop offset="0.4677" stop-color="#DB1D93"/>
<stop offset="0.5543" stop-color="#9F2895"/>
<stop offset="0.7229" stop-color="#21409A"/>
<stop offset="0.8671" stop-color="#222F5C"/>
<stop offset="1" stop-color="#231F20"/>
</linearGradient>
</defs>
</svg>
