<svg width="64" height="64" viewBox="0 0 64 64" fill="none" xmlns="http://www.w3.org/2000/svg">
<path d="M61 18.475L58.2249 39.9001L56.75 49.35L37.625 61L13.95 42.8251L42.75 12.675L61 18.475Z" fill="url(#paint0_linear)"/>
<path d="M37.65 56.2L37.675 57.9H39.65L40.325 56.875L37.65 56.2Z" fill="url(#paint1_linear)"/>
<path d="M55.325 48.3L58.2249 39.875L59.9249 52.1L55.325 48.3Z" fill="url(#paint2_linear)"/>
<path d="M61 18.475L27.6 41.275L12.475 43.575L42.75 3.94995L61 18.475Z" fill="url(#paint3_linear)"/>
<path d="M36.4 12.475L42.75 3.94995L41.675 21.5L36.4 12.475Z" fill="url(#paint4_linear)"/>
<path d="M12.325 43.45L3.65002 37.1749L11.95 28.95L36.8 39L12.325 43.45Z" fill="url(#paint5_linear)"/>
<path d="M26.55 53.225L7.67505 59.5751L12.425 46.225L35.5 37.3L48.375 45.225L26.55 53.225Z" fill="url(#paint6_linear)"/>
<path d="M21.225 15.2L11.4 3L30.375 5.25L32.525 11.475L21.225 15.2Z" fill="url(#paint7_linear)"/>
<path d="M58.225 39.875L30.375 5.25L20.15 5.375L14.4 22.25L50.6 42.1L44.475 51.075L56.75 49.35L58.225 39.875Z" fill="url(#paint8_linear)"/>
<path d="M14.4 23.2L8 23.05L11.5 3L20.25 5.4L14.4 23.2Z" fill="url(#paint9_linear)"/>
<path d="M14.4 23.2L8 23.05L11.5 3L20.25 5.4L14.4 23.2Z" fill="url(#paint10_linear)"/>
<path d="M50.6 42.1L34.375 38.6L3 25.975L14.55 22.4L50.6 42.1Z" fill="url(#paint11_linear)"/>
<path d="M19.125 8.40002L14.525 22.375L14.475 22.425L14.55 22.4L37.25 34.8L37.725 34.925L47.075 27.925L19.125 8.40002Z" fill="url(#paint12_linear)"/>
<path d="M11.4 3L3 25.975L13.7 23.225L14.525 22.375L19.125 8.4L11.4 3Z" fill="url(#paint13_linear)"/>
<path d="M7.67505 59.575L14.85 30.825L34.375 38.5999L7.67505 59.575Z" fill="url(#paint14_linear)"/>
<path d="M34.375 38.6L23.5 29.225L8.67502 27.875L3.65002 37.175L14.225 32.9L14.35 32.85L7.67502 59.575L34.375 38.6Z" fill="url(#paint15_linear)"/>
<path d="M50.6 42.1L40.475 56.925L26.525 53.3L34.375 38.6L50.6 42.1Z" fill="url(#paint16_linear)"/>
<path d="M50.6 42.1L34.375 38.6L3 25.975L14.55 22.4L50.6 42.1Z" fill="url(#paint17_linear)"/>
<path d="M14.55 22.4L3 25.975L37.25 34.8L14.55 22.4Z" fill="url(#paint18_linear)"/>
<path d="M56.75 49.35L44.125 51.125L37.625 61L59.925 52.1L56.75 49.35Z" fill="url(#paint19_linear)"/>
<path d="M37.625 61L44.35 51.2L26.5 53.375L37.625 61Z" fill="url(#paint20_linear)"/>
<path d="M24.525 27.8L37.175 34.725L48.1 27.275L36.225 12.5L24.525 27.8Z" fill="url(#paint21_linear)"/>
<path d="M47.075 27.925L32.3 17.625L24.525 27.8L37.175 34.725L46.575 28.325L47.075 27.925Z" fill="url(#paint22_linear)"/>
<path d="M50 14H14V50H50V14Z" fill="url(#paint23_linear)"/>
<g opacity="0.5">
<g opacity="0.3">
<path opacity="0.3" d="M49.35 50L50 49.9V42.275L44.725 50H49.35Z" fill="#231F20"/>
<path opacity="0.3" d="M37.05 14H17.6L14.725 22.425L48.45 40.925L14.875 22.575L14 22.85V30.3L34.325 38.475L50 41.85V41.775V30.1L37.05 14Z" fill="url(#paint24_linear)"/>
<path opacity="0.3" d="M17.6 14L14.725 22.425L50 41.775V30.1L37.05 14H17.6Z" fill="url(#paint25_linear)"/>
<path opacity="0.3" d="M17.6 14L14.725 22.425L50 41.775V30.1L37.05 14H17.6Z" fill="url(#paint26_linear)"/>
<path opacity="0.3" d="M14 14V23.4H14.05L14.85 22.55L17.675 14H14Z" fill="#F9ED32"/>
</g>
<path opacity="0.3" d="M14 22.85V30.2999L34.325 38.4749L50 41.8499V41.775L14.875 22.575L14 22.85Z" fill="url(#paint27_linear)"/>
<path opacity="0.3" d="M14 28.775L37.15 34.75L14.875 22.575L14 22.85V28.775Z" fill="url(#paint28_linear)"/>
<path opacity="0.3" d="M28.175 50L34.325 38.475L19.65 50H28.175Z" fill="url(#paint29_linear)"/>
<path opacity="0.3" d="M14 35.575L14.675 32.825L14.575 32.875L14 33.0999V35.575Z" fill="#F7941D"/>
<path opacity="0.3" d="M14 33.1L14.575 32.875L14.675 32.8251L14 35.5751V50H19.65L34.325 38.475L14 30.3V33.1Z" fill="url(#paint30_linear)"/>
<path opacity="0.3" d="M28.175 50H44.725L50 42.275V41.85L34.3251 38.475L28.175 50Z" fill="url(#paint31_linear)"/>
<g opacity="0.3">
<path opacity="0.3" d="M47.8 27.375L50 25.85V14H37.05L47.8 27.375Z" fill="url(#paint32_linear)"/>
</g>
<path opacity="0.2" d="M17.625 14L14.75 22.425L50.025 41.775V30.1L37.075 14H17.625Z" fill="url(#paint33_linear)"/>
<path opacity="0.4" d="M14 14V23.4H14.05L14.85 22.55L17.675 14H14Z" fill="#F9ED32"/>
</g>
<path d="M31.9999 43.2H18.3999V45.4H31.9999V43.2Z" fill="white"/>
<path d="M25.1999 20.9999V18.3999H18.3999V20.9999H20.3999V29.3999H18.3999V31.9999H25.1999V29.3999H23.3999V20.9999H25.1999Z" fill="white"/>
<path d="M31.5999 32.1999C30.6 32.1999 29.5999 31.9999 28.9999 31.5999C28.2 31.1999 27.8 30.7999 27.2 30.1999L28.9999 28.1999C29.3999 28.5999 29.8 28.9999 30.2 29.1999C30.6 29.3999 30.9999 29.5999 31.3999 29.5999C31.9999 29.5999 32.3999 29.3999 32.7999 28.9999C33.1999 28.5999 33.1999 27.9999 33.1999 27.1999V18.3999H36.1999V27.1999C36.1999 27.9999 35.9999 28.7999 35.7999 29.1999C35.5999 29.7999 35.1999 30.1999 34.7999 30.5999C34.3999 30.9999 33.7999 31.3999 33.1999 31.5999C32.9999 31.9999 32.3999 32.1999 31.5999 32.1999Z" fill="white"/>
<defs>
<linearGradient id="paint0_linear" x1="36.6509" y1="20.3914" x2="39.1016" y2="50.9722" gradientUnits="userSpaceOnUse">
<stop offset="0.0998726" stop-color="#087CFA"/>
<stop offset="0.4602" stop-color="#079AF6"/>
<stop offset="0.8454" stop-color="#07C3F2"/>
</linearGradient>
<linearGradient id="paint1_linear" x1="39.0557" y1="57.4796" x2="39.5362" y2="58.1768" gradientUnits="userSpaceOnUse">
<stop offset="0.2859" stop-color="#087CFA"/>
<stop offset="1" stop-color="#079AF6"/>
</linearGradient>
<linearGradient id="paint2_linear" x1="56.5908" y1="53.2959" x2="61.9859" y2="37.0406" gradientUnits="userSpaceOnUse">
<stop offset="0.1184" stop-color="#27A6F6"/>
<stop offset="0.2418" stop-color="#2F99F5"/>
<stop offset="0.9197" stop-color="#5753F2"/>
</linearGradient>
<linearGradient id="paint3_linear" x1="62.14" y1="6.30828" x2="28.4208" y2="26.6983" gradientUnits="userSpaceOnUse">
<stop offset="0.286" stop-color="#0AEFFF"/>
<stop offset="0.3292" stop-color="#09DEFA"/>
<stop offset="0.3966" stop-color="#07CAF4"/>
<stop offset="0.442" stop-color="#07C3F2"/>
<stop offset="0.5015" stop-color="#07ACF5"/>
<stop offset="0.5749" stop-color="#0897F7"/>
<stop offset="0.6568" stop-color="#0888F9"/>
<stop offset="0.7528" stop-color="#087FFA"/>
<stop offset="0.8981" stop-color="#087CFA"/>
</linearGradient>
<linearGradient id="paint4_linear" x1="39.5777" y1="2.58233" x2="39.5777" y2="24.9479" gradientUnits="userSpaceOnUse">
<stop offset="0.207" stop-color="#02C5FE"/>
<stop offset="0.317" stop-color="#04ACFD"/>
<stop offset="0.4435" stop-color="#0697FB"/>
<stop offset="0.5845" stop-color="#0788FB"/>
<stop offset="0.7499" stop-color="#087FFA"/>
<stop offset="1" stop-color="#087CFA"/>
</linearGradient>
<linearGradient id="paint5_linear" x1="12.355" y1="30.7195" x2="17.3561" y2="35.4041" gradientUnits="userSpaceOnUse">
<stop  offset="0" stop-color="#FF581C"/>
<stop offset="0.1918" stop-color="#FF5124"/>
<stop offset="0.4947" stop-color="#FE3F3B"/>
<stop offset="0.7851" stop-color="#FE2857"/>
</linearGradient>
<linearGradient id="paint6_linear" x1="18.8345" y1="42.4906" x2="27.2643" y2="51.5689" gradientUnits="userSpaceOnUse">
<stop offset="0.4574" stop-color="#FF149D"/>
<stop offset="0.536" stop-color="#EF1AB2"/>
<stop offset="0.6983" stop-color="#C82BE9"/>
<stop offset="0.7574" stop-color="#B831FF"/>
<stop offset="0.8388" stop-color="#A33AFE"/>
<stop offset="1" stop-color="#6E51FD"/>
</linearGradient>
<linearGradient id="paint7_linear" x1="20.6587" y1="1.50725" x2="23.3446" y2="13.2579" gradientUnits="userSpaceOnUse">
<stop offset="0.0276342" stop-color="#FFDE17"/>
<stop offset="0.276" stop-color="#FDB60D"/>
<stop offset="0.5939" stop-color="#FC801D"/>
<stop offset="0.6532" stop-color="#FC7A25"/>
<stop offset="0.7469" stop-color="#FD6A3C"/>
<stop offset="0.8628" stop-color="#FE4F61"/>
<stop offset="0.976" stop-color="#FF318C"/>
</linearGradient>
<linearGradient id="paint8_linear" x1="18.7277" y1="13.312" x2="59.2662" y2="45.4952" gradientUnits="userSpaceOnUse">
<stop  offset="0" stop-color="#FE2857"/>
<stop offset="0.0557468" stop-color="#FE255F"/>
<stop offset="0.1437" stop-color="#FF1F76"/>
<stop offset="0.2282" stop-color="#FF1692"/>
<stop offset="0.289" stop-color="#F11BA7"/>
<stop offset="0.4143" stop-color="#CD29DE"/>
<stop offset="0.4828" stop-color="#B831FF"/>
<stop offset="0.581" stop-color="#7A4CFD"/>
<stop offset="0.748" stop-color="#087CFA"/>
<stop offset="0.9745" stop-color="#07A5F5"/>
</linearGradient>
<linearGradient id="paint9_linear" x1="9.20475" y1="11.9844" x2="17.4184" y2="15.731" gradientUnits="userSpaceOnUse">
<stop offset="0.2889" stop-color="#FFDE17"/>
<stop offset="0.9874" stop-color="white"/>
</linearGradient>
<linearGradient id="paint10_linear" x1="9.20475" y1="11.9844" x2="17.4184" y2="15.731" gradientUnits="userSpaceOnUse">
<stop offset="0.494792" stop-color="#FFD360"/>
<stop offset="1" stop-color="#FFE77C"/>
</linearGradient>
<linearGradient id="paint11_linear" x1="7.45628" y1="23.4988" x2="47.6525" y2="44.4109" gradientUnits="userSpaceOnUse">
<stop offset="0.2464" stop-color="#FE2857"/>
<stop offset="0.292" stop-color="#FE265F"/>
<stop offset="0.3641" stop-color="#FE1F76"/>
<stop offset="0.4534" stop-color="#FF159B"/>
<stop offset="0.4574" stop-color="#FF149D"/>
<stop offset="0.536" stop-color="#EF1AB2"/>
<stop offset="0.6983" stop-color="#C82BE9"/>
<stop offset="0.7574" stop-color="#B831FF"/>
<stop offset="0.811" stop-color="#A33AFE"/>
<stop offset="0.9215" stop-color="#6C52FD"/>
<stop offset="1" stop-color="#4164FC"/>
</linearGradient>
<linearGradient id="paint12_linear" x1="16.2939" y1="14.8266" x2="38.9895" y2="31.0378" gradientUnits="userSpaceOnUse">
<stop offset="0.00823305" stop-color="#FC35E3"/>
<stop offset="0.2164" stop-color="#F12CD5"/>
<stop offset="0.4105" stop-color="#EB27CD"/>
<stop offset="0.4984" stop-color="#DE2ADA"/>
<stop offset="0.7777" stop-color="#B831FF"/>
<stop offset="1" stop-color="#6D51FD"/>
</linearGradient>
<linearGradient id="paint13_linear" x1="7.0659" y1="14.4023" x2="14.9013" y2="19.4277" gradientUnits="userSpaceOnUse">
<stop offset="0.0433729" stop-color="#FFD25F"/>
<stop offset="0.2889" stop-color="#FEBC9B"/>
<stop offset="0.6173" stop-color="#FC9CF0"/>
<stop offset="1" stop-color="#FD5ED7"/>
</linearGradient>
<linearGradient id="paint14_linear" x1="0.645323" y1="29.1447" x2="36.9222" y2="64.6484" gradientUnits="userSpaceOnUse">
<stop offset="0.0226617" stop-color="#FC801D"/>
<stop offset="0.2467" stop-color="#FC7E20"/>
<stop offset="0.276" stop-color="#FC772A"/>
<stop offset="0.3253" stop-color="#FD6444"/>
<stop offset="0.3881" stop-color="#FE466E"/>
<stop offset="0.4273" stop-color="#FF318C"/>
<stop offset="0.4924" stop-color="#EA3896"/>
<stop offset="0.6276" stop-color="#B248AE"/>
<stop offset="0.8194" stop-color="#5A63D6"/>
<stop offset="0.9859" stop-color="#087CFA"/>
</linearGradient>
<linearGradient id="paint15_linear" x1="9.53837" y1="29.2435" x2="20.9872" y2="49.0274" gradientUnits="userSpaceOnUse">
<stop offset="0.00442798" stop-color="#FFDE17"/>
<stop offset="0.0525354" stop-color="#FECB12"/>
<stop offset="0.1093" stop-color="#FDBB0E"/>
<stop offset="0.1542" stop-color="#FDB60D"/>
<stop offset="0.2351" stop-color="#FDAE0F"/>
<stop offset="0.3571" stop-color="#FC9A15"/>
<stop offset="0.4724" stop-color="#FC801D"/>
<stop offset="1" stop-color="#FE4176"/>
</linearGradient>
<linearGradient id="paint16_linear" x1="33.383" y1="39.4427" x2="43.9685" y2="56.3068" gradientUnits="userSpaceOnUse">
<stop offset="0.0211218" stop-color="#B149AF"/>
<stop offset="0.0831639" stop-color="#9153BD"/>
<stop offset="0.2186" stop-color="#3F6BE2"/>
<stop offset="0.3042" stop-color="#087CFA"/>
<stop offset="0.7942" stop-color="#07C3F2"/>
</linearGradient>
<linearGradient id="paint17_linear" x1="7.45628" y1="23.4988" x2="47.6525" y2="44.4109" gradientUnits="userSpaceOnUse">
<stop offset="0.2464" stop-color="#FE2857"/>
<stop offset="0.292" stop-color="#FE265F"/>
<stop offset="0.3641" stop-color="#FE1F76"/>
<stop offset="0.4534" stop-color="#FF159B"/>
<stop offset="0.4574" stop-color="#FF149D"/>
<stop offset="0.536" stop-color="#EF1AB2"/>
<stop offset="0.6983" stop-color="#C82BE9"/>
<stop offset="0.7574" stop-color="#B831FF"/>
<stop offset="0.811" stop-color="#A33AFE"/>
<stop offset="0.9215" stop-color="#6C52FD"/>
<stop offset="1" stop-color="#4164FC"/>
</linearGradient>
<linearGradient id="paint18_linear" x1="11.141" y1="25.3915" x2="29.6831" y2="35.7052" gradientUnits="userSpaceOnUse">
<stop offset="0.00629908" stop-color="#FF45ED"/>
<stop offset="0.1766" stop-color="#FF35D8"/>
<stop offset="0.3352" stop-color="#FF24C0"/>
<stop offset="0.7349" stop-color="#EA23CA"/>
<stop offset="1" stop-color="#D923D1"/>
</linearGradient>
<linearGradient id="paint19_linear" x1="53.2453" y1="44.9114" x2="47.1718" y2="60.6813" gradientUnits="userSpaceOnUse">
<stop offset="0.2157" stop-color="#07C3F2"/>
<stop offset="0.3237" stop-color="#04B1EC"/>
<stop offset="0.4576" stop-color="#01A1E7"/>
<stop offset="0.5613" stop-color="#009BE5"/>
<stop offset="0.5745" stop-color="#0198E7"/>
<stop offset="0.6778" stop-color="#058AF1"/>
<stop offset="0.7992" stop-color="#0781F7"/>
<stop offset="0.9829" stop-color="#087EF9"/>
</linearGradient>
<linearGradient id="paint20_linear" x1="27.8524" y1="51.3987" x2="41.758" y2="56.3701" gradientUnits="userSpaceOnUse">
<stop offset="0.1529" stop-color="#087CFA"/>
<stop offset="0.6343" stop-color="#009AE5"/>
<stop offset="1" stop-color="#07C3F2"/>
</linearGradient>
<linearGradient id="paint21_linear" x1="39.0839" y1="14.7737" x2="34.7627" y2="34.6759" gradientUnits="userSpaceOnUse">
<stop  offset="0" stop-color="#FF188D"/>
<stop offset="0.3188" stop-color="#D82EC8"/>
<stop offset="0.4411" stop-color="#CC30CC"/>
<stop offset="0.6628" stop-color="#AC35D7"/>
<stop offset="0.8981" stop-color="#833CE5"/>
</linearGradient>
<linearGradient id="paint22_linear" x1="29.8473" y1="19.4668" x2="38.277" y2="31.355" gradientUnits="userSpaceOnUse">
<stop  offset="0" stop-color="#FF188D"/>
<stop offset="0.3188" stop-color="#D82EC8"/>
<stop offset="0.4411" stop-color="#CC30CC"/>
<stop offset="0.6628" stop-color="#AC35D7"/>
<stop offset="0.8981" stop-color="#833CE5"/>
</linearGradient>
<linearGradient id="paint23_linear" x1="13.4445" y1="16.8724" x2="50.2967" y2="46.9166" gradientUnits="userSpaceOnUse">
<stop  offset="0" stop-color="#521713"/>
<stop offset="0.080028" stop-color="#451310"/>
<stop offset="0.2989" stop-color="#270B09"/>
<stop offset="0.514" stop-color="#110504"/>
<stop offset="0.7218" stop-color="#040101"/>
<stop offset="0.9138"/>
</linearGradient>
<linearGradient id="paint24_linear" x1="14" y1="27.9275" x2="50" y2="27.9275" gradientUnits="userSpaceOnUse">
<stop offset="0.2464" stop-color="#FE2857"/>
<stop offset="0.292" stop-color="#FE265F"/>
<stop offset="0.3641" stop-color="#FE1F76"/>
<stop offset="0.4534" stop-color="#FF159B"/>
<stop offset="0.4574" stop-color="#FF149D"/>
<stop offset="0.536" stop-color="#EF1AB2"/>
<stop offset="0.6983" stop-color="#C82BE9"/>
<stop offset="0.7574" stop-color="#B831FF"/>
<stop offset="0.811" stop-color="#A33AFE"/>
<stop offset="0.9215" stop-color="#6C52FD"/>
<stop offset="1" stop-color="#4164FC"/>
</linearGradient>
<linearGradient id="paint25_linear" x1="14.7364" y1="27.8866" x2="50" y2="27.8866" gradientUnits="userSpaceOnUse">
<stop offset="0.1118" stop-color="#F7941D"/>
<stop offset="0.1374" stop-color="#F88C25"/>
<stop offset="0.178" stop-color="#F9753A"/>
<stop offset="0.2284" stop-color="#FB505D"/>
<stop offset="0.2863" stop-color="#FF1C8C"/>
<stop offset="0.2928" stop-color="#FF1692"/>
<stop offset="0.4031" stop-color="#EA1A93"/>
<stop offset="0.4677" stop-color="#DB1D93"/>
<stop offset="0.5543" stop-color="#9F2895"/>
<stop offset="0.7229" stop-color="#21409A"/>
<stop offset="0.8671" stop-color="#222F5C"/>
<stop offset="1" stop-color="#231F20"/>
</linearGradient>
<linearGradient id="paint26_linear" x1="14.7364" y1="27.8866" x2="50" y2="27.8866" gradientUnits="userSpaceOnUse">
<stop offset="0.3438" stop-color="#FF69FE"/>
<stop offset="0.3801" stop-color="#EA65F4"/>
<stop offset="0.4555" stop-color="#B25BDB"/>
<stop offset="0.5626" stop-color="#5A4AB4"/>
<stop offset="0.6276" stop-color="#21409A"/>
<stop offset="0.8214" stop-color="#222F5C"/>
<stop offset="1" stop-color="#231F20"/>
</linearGradient>
<linearGradient id="paint27_linear" x1="14" y1="32.2147" x2="50" y2="32.2147" gradientUnits="userSpaceOnUse">
<stop offset="0.0878508" stop-color="#FE2857"/>
<stop offset="0.1283" stop-color="#FE265F"/>
<stop offset="0.1923" stop-color="#FE1F76"/>
<stop offset="0.2716" stop-color="#FF159B"/>
<stop offset="0.2751" stop-color="#FF149D"/>
<stop offset="0.4167" stop-color="#B21871"/>
<stop offset="0.5427" stop-color="#741B4E"/>
<stop offset="0.6489" stop-color="#481D35"/>
<stop offset="0.731" stop-color="#2D1E26"/>
<stop offset="0.7791" stop-color="#231F20"/>
</linearGradient>
<linearGradient id="paint28_linear" x1="17.4848" y1="27.2653" x2="31.5825" y2="35.1069" gradientUnits="userSpaceOnUse">
<stop offset="0.00629908" stop-color="#FF45ED"/>
<stop offset="0.1766" stop-color="#FF35D8"/>
<stop offset="0.3352" stop-color="#FF24C0"/>
<stop offset="0.451" stop-color="#EA24B0"/>
<stop offset="0.6916" stop-color="#B22388"/>
<stop offset="1" stop-color="#63214F"/>
</linearGradient>
<linearGradient id="paint29_linear" x1="19.6551" y1="44.2394" x2="34.3222" y2="44.2394" gradientUnits="userSpaceOnUse">
<stop offset="0.4574" stop-color="#FF149D"/>
<stop offset="0.536" stop-color="#EF1AB2"/>
<stop offset="0.6983" stop-color="#C82BE9"/>
<stop offset="0.7574" stop-color="#B831FF"/>
<stop offset="0.8388" stop-color="#A33AFE"/>
<stop offset="1" stop-color="#6E51FD"/>
</linearGradient>
<linearGradient id="paint30_linear" x1="14" y1="40.1494" x2="34.3222" y2="40.1494" gradientUnits="userSpaceOnUse">
<stop offset="0.00442798" stop-color="#FFDE17"/>
<stop offset="0.0386836" stop-color="#FECB12"/>
<stop offset="0.0790912" stop-color="#FDBB0E"/>
<stop offset="0.1111" stop-color="#FDB60D"/>
<stop offset="0.1673" stop-color="#FDAE0F"/>
<stop offset="0.2521" stop-color="#FC9A15"/>
<stop offset="0.3323" stop-color="#FC801D"/>
<stop offset="0.7374" stop-color="#BE1E2D"/>
</linearGradient>
<linearGradient id="paint31_linear" x1="28.1825" y1="44.2394" x2="50.0001" y2="44.2394" gradientUnits="userSpaceOnUse">
<stop  offset="0" stop-color="#087CFA"/>
<stop offset="0.7942" stop-color="#231F20"/>
</linearGradient>
<linearGradient id="paint32_linear" x1="64.6898" y1="48.2713" x2="41.7497" y2="11.1231" gradientUnits="userSpaceOnUse">
<stop offset="0.3486" stop-color="#3595F3"/>
<stop offset="0.4019" stop-color="#3490EB"/>
<stop offset="0.4865" stop-color="#3284D4"/>
<stop offset="0.5918" stop-color="#2F6FAE"/>
<stop offset="0.7135" stop-color="#2B527B"/>
<stop offset="0.8476" stop-color="#252D39"/>
<stop offset="0.8951" stop-color="#231F20"/>
</linearGradient>
<linearGradient id="paint33_linear" x1="14.7614" y1="27.8866" x2="50.025" y2="27.8866" gradientUnits="userSpaceOnUse">
<stop offset="0.1118" stop-color="#F7941D"/>
<stop offset="0.1374" stop-color="#F88C25"/>
<stop offset="0.178" stop-color="#F9753A"/>
<stop offset="0.2284" stop-color="#FB505D"/>
<stop offset="0.2863" stop-color="#FF1C8C"/>
<stop offset="0.2928" stop-color="#FF1692"/>
<stop offset="0.4031" stop-color="#EA1A93"/>
<stop offset="0.4677" stop-color="#DB1D93"/>
<stop offset="0.5543" stop-color="#9F2895"/>
<stop offset="0.7229" stop-color="#21409A"/>
<stop offset="0.8671" stop-color="#222F5C"/>
<stop offset="1" stop-color="#231F20"/>
</linearGradient>
</defs>
</svg>
