<svg width="70" height="70" viewBox="0 0 70 70" fill="none" xmlns="http://www.w3.org/2000/svg">
<path d="M25.9 27.9998L27.3 2.7998L42 10.8998L25.9 27.9998Z" fill="url(#paint0_linear)"/>
<path d="M25.9 27.9999L26.8 12.3999L42 10.8999L25.9 27.9999Z" fill="url(#paint1_linear)"/>
<path d="M25.9 27.9998L26.8 12.5998L27.3 2.7998L8.80005 14.4998L2.80005 50.0998L25.9 27.9998Z" fill="#00FF6A"/>
<path d="M25.9 27.9999L26.8 12.3999L8.80005 14.4999L15.3 38.2999L25.9 27.9999Z" fill="url(#paint2_linear)"/>
<path d="M25.9 27.9998L27.3 2.7998L8.80005 14.4998L15.3 38.2998L25.9 27.9998Z" fill="url(#paint3_linear)"/>
<path d="M25.9001 27.3999L24.7001 50.4999L41.0001 63.6999L57.0001 67.1999L67.2001 44.1999L25.9001 27.3999Z" fill="url(#paint4_linear)"/>
<path d="M52.0001 43.4999L37.7001 34.7999L39.5001 32.8999L67.2001 44.1999L52.0001 43.4999Z" fill="url(#paint5_linear)"/>
<path d="M52 43.5L41 63.7L57 67.2L67.2 44.2L52 43.5Z" fill="url(#paint6_linear)"/>
<path d="M25.3001 35.5L24.7001 50.5L41.0001 63.7L25.3001 35.5Z" fill="url(#paint7_linear)"/>
<path d="M25.9 36.7998L57 67.1998L41 63.6998L25.9 36.7998Z" fill="url(#paint8_linear)"/>
<path d="M25.9 36.7998L57 67.1998L41 63.6998L25.9 36.7998Z" fill="url(#paint9_linear)"/>
<path d="M2.80005 50.1L25.9 28L8.80005 14.5L2.80005 50.1Z" fill="url(#paint10_linear)"/>
<path d="M2.80005 50.1L19.8 33.1L8.80005 14.5L2.80005 50.1Z" fill="url(#paint11_linear)"/>
<path d="M67.2 25.0998L57.6 5.2998L42 10.8998L2.80005 50.0998L23.7001 65.2998L67.2 25.0998Z" fill="url(#paint12_linear)"/>
<path d="M25.5001 36.6997L24.7001 50.4997L32.7001 56.9997L35.7001 54.1997L25.5001 36.6997Z" fill="url(#paint13_linear)"/>
<path d="M2.80005 50.0996L25.5 36.5996L23.7001 65.2996L2.80005 50.0996Z" fill="url(#paint14_linear)"/>
<path d="M2.80005 50.0996L25.5 36.5996L23.7001 65.2996L2.80005 50.0996Z" fill="url(#paint15_linear)"/>
<path d="M14.8 42.9996L25.5 36.5996L24.6 50.2996L14.8 42.9996Z" fill="url(#paint16_linear)"/>
<path d="M2.80005 50.0998L25.4 36.6998L57.6 5.2998L42 10.8998L2.80005 50.0998Z" fill="url(#paint17_linear)"/>
<path d="M2.80005 50.0998L25.4 36.6998L57.6 5.2998L42 10.8998L2.80005 50.0998Z" fill="url(#paint18_linear)"/>
<path d="M48.3 14.3998L57.6 5.2998L42 10.8998L48.3 14.3998Z" fill="url(#paint19_linear)"/>
<path d="M67 24.7999L32.8 56.6999L20 32.9999L42 10.8999L67 24.7999Z" fill="url(#paint20_linear)"/>
<path d="M52.6 38.1997L25.8 27.1997V27.2997L49 41.5997L52.6 38.1997Z" fill="url(#paint21_linear)"/>
<path d="M48.3 14.3999L25.5 36.6999L2.80005 50.0999L20 32.9999L42 10.8999L48.3 14.3999Z" fill="url(#paint22_linear)"/>
<path d="M48.4001 14.1999L25.5 36.6999L2.80005 50.0999L20 32.9999L42 10.8999L48.4001 14.1999Z" fill="url(#paint23_linear)"/>
<path d="M48.5 13.7998L57.6 5.2998L67.2 25.0998L48.5 13.7998Z" fill="url(#paint24_linear)"/>
<path d="M26 26.8999L36.5 32.1999L42 10.8999L26 26.8999Z" fill="url(#paint25_linear)"/>
<path d="M42 10.8998L27.3 2.7998L26 26.9998L42 10.8998Z" fill="url(#paint26_linear)"/>
<path d="M55 15H15V55H55V15Z" fill="url(#paint27_linear)"/>
<g opacity="0.3">
<path opacity="0.3" d="M55 39.3L26 27.5L24.7 50.4L30.4 55H55V39.3Z" fill="url(#paint28_linear)"/>
<path opacity="0.3" d="M55 55V43.6L51.9 43.5L45.6 55H55Z" fill="url(#paint29_linear)"/>
<path opacity="0.3" d="M15 15V36.7V39L26 28L26.7 15H15Z" fill="url(#paint30_linear)"/>
<path opacity="0.3" d="M15 36.6999V38.4999L26 27.9999L15 19.3999V36.6999Z" fill="url(#paint31_linear)"/>
<path opacity="0.3" d="M26.7 15L26.1 27L38 15H26.7Z" fill="url(#paint32_linear)"/>
<path opacity="0.3" d="M55 36.2V15H38L15 38V55H34.7L55 36.2Z" fill="url(#paint33_linear)"/>
<path opacity="0.3" d="M15 38.1V43.1L25.5 36.7L47.7 15H38L15 38V38.1Z" fill="url(#paint34_linear)"/>
<path opacity="0.3" d="M15 55.0001H24.4L25.5 36.6001L15 42.9001V55.0001Z" fill="url(#paint35_linear)"/>
</g>
<path d="M35 47.3999H20V49.8999H35V47.3999Z" fill="white"/>
<path d="M35 47.3999H20V49.8999H35V47.3999Z" fill="white"/>
<path d="M35.2999 19.9995H38.5999V32.2995H45.1999V34.9995H35.2999V19.9995Z" fill="white"/>
<path d="M19.2 27.5997C19.2 23.2997 22.4 19.6997 27.1 19.6997C30 19.6997 31.7 20.6997 33.1 21.9997L31 24.3997C29.8 23.2997 28.6 22.6997 27.1 22.6997C24.6 22.6997 22.7 24.7997 22.7 27.3997C22.7 29.9997 24.5 32.1997 27.1 32.1997C28.8 32.1997 29.9 31.4997 31.1 30.3997L33.2 32.4997C31.6 34.1997 29.9 35.1997 27 35.1997C22.5 35.3997 19.2 31.8997 19.2 27.5997Z" fill="white"/>
<defs>
<linearGradient id="paint0_linear" x1="25.9482" y1="15.391" x2="44.3995" y2="15.391" gradientUnits="userSpaceOnUse">
<stop stop-color="#FF318C"/>
<stop offset="0.149" stop-color="#FB348C"/>
<stop offset="0.2849" stop-color="#F03C8C"/>
<stop offset="0.4157" stop-color="#DE4A8C"/>
<stop offset="0.5434" stop-color="#C45D8B"/>
<stop offset="0.6689" stop-color="#A2778B"/>
<stop offset="0.7926" stop-color="#79958A"/>
<stop offset="0.9128" stop-color="#49B98A"/>
<stop offset="1" stop-color="#21D789"/>
</linearGradient>
<linearGradient id="paint1_linear" x1="23.7502" y1="21.2071" x2="49.3824" y2="11.201" gradientUnits="userSpaceOnUse">
<stop offset="0.1069" stop-color="#FF318C"/>
<stop offset="0.2181" stop-color="#FB338C"/>
<stop offset="0.3194" stop-color="#F0388E"/>
<stop offset="0.4168" stop-color="#DE4190"/>
<stop offset="0.5114" stop-color="#C44E93"/>
<stop offset="0.6008" stop-color="#A45E97"/>
<stop offset="0.6375" stop-color="#976A96"/>
<stop offset="0.7051" stop-color="#758992"/>
<stop offset="0.7956" stop-color="#3FBC8C"/>
<stop offset="0.8402" stop-color="#21D789"/>
</linearGradient>
<linearGradient id="paint2_linear" x1="23.6704" y1="9.8926" x2="9.65605" y2="35.071" gradientUnits="userSpaceOnUse">
<stop offset="0.0294109" stop-color="#00FF6A"/>
<stop offset="0.375" stop-color="#21D789"/>
<stop offset="0.9032" stop-color="#009AE5"/>
</linearGradient>
<linearGradient id="paint3_linear" x1="27.094" y1="20.0436" x2="17.7732" y2="20.866" gradientUnits="userSpaceOnUse">
<stop offset="0.0294109" stop-color="#A6FF9E"/>
<stop offset="0.6015" stop-color="#21D789" stop-opacity="0"/>
</linearGradient>
<linearGradient id="paint4_linear" x1="37.3109" y1="46.7097" x2="67.2133" y2="50.9612" gradientUnits="userSpaceOnUse">
<stop offset="0.3444" stop-color="#21D789"/>
<stop offset="0.8032" stop-color="#009AE5"/>
<stop offset="0.9931" stop-color="#0855FA"/>
</linearGradient>
<linearGradient id="paint5_linear" x1="38.919" y1="46.5088" x2="61.9856" y2="33.7639" gradientUnits="userSpaceOnUse">
<stop offset="0.0962983" stop-color="#00FF6A"/>
<stop offset="0.9654" stop-color="#00FF6A" stop-opacity="0"/>
</linearGradient>
<linearGradient id="paint6_linear" x1="34.3517" y1="66.5192" x2="69.6172" y2="47.0339" gradientUnits="userSpaceOnUse">
<stop stop-color="#42FFFA" stop-opacity="0.5"/>
<stop offset="0.9989" stop-color="#00FF6A" stop-opacity="0"/>
</linearGradient>
<linearGradient id="paint7_linear" x1="43.979" y1="51.5484" x2="31.5512" y2="49.3553" gradientUnits="userSpaceOnUse">
<stop offset="0.0521494" stop-color="#00FF6A"/>
<stop offset="1" stop-color="#009AE5"/>
</linearGradient>
<linearGradient id="paint8_linear" x1="67.5382" y1="54.453" x2="27.4873" y2="50.7036" gradientUnits="userSpaceOnUse">
<stop offset="0.1212" stop-color="#21D789" stop-opacity="0"/>
<stop offset="0.7868" stop-color="#00FF6A"/>
</linearGradient>
<linearGradient id="paint9_linear" x1="45.3134" y1="48.8811" x2="36.971" y2="55.6395" gradientUnits="userSpaceOnUse">
<stop offset="0.0962983" stop-color="#42FFFA"/>
<stop offset="0.9654" stop-color="#42FFFA" stop-opacity="0"/>
</linearGradient>
<linearGradient id="paint10_linear" x1="20.8914" y1="13.5212" x2="1.67765" y2="55.4421" gradientUnits="userSpaceOnUse">
<stop offset="0.0913979" stop-color="#00FF6A"/>
<stop offset="0.759" stop-color="#009AE5"/>
</linearGradient>
<linearGradient id="paint11_linear" x1="6.18505" y1="23.1347" x2="13.1299" y2="48.1729" gradientUnits="userSpaceOnUse">
<stop offset="0.1163" stop-color="#21D789" stop-opacity="0.6"/>
<stop offset="1" stop-color="#009AE5"/>
</linearGradient>
<linearGradient id="paint12_linear" x1="61.9403" y1="9.16151" x2="-2.84536" y2="77.5849" gradientUnits="userSpaceOnUse">
<stop offset="0.0913979" stop-color="#21D789"/>
<stop offset="0.9032" stop-color="#009AE5"/>
</linearGradient>
<linearGradient id="paint13_linear" x1="35.6819" y1="64.2976" x2="23.4487" y2="37.7923" gradientUnits="userSpaceOnUse">
<stop offset="0.00994756" stop-color="#009AE5"/>
<stop offset="0.9654" stop-color="#009AE5" stop-opacity="0"/>
</linearGradient>
<linearGradient id="paint14_linear" x1="2.80005" y1="50.9961" x2="25.4668" y2="50.9961" gradientUnits="userSpaceOnUse">
<stop offset="0.0556783" stop-color="#009AE5" stop-opacity="0.4"/>
<stop offset="0.7897" stop-color="#009AE5"/>
</linearGradient>
<linearGradient id="paint15_linear" x1="6.68425" y1="37.1441" x2="22.5845" y2="50.4856" gradientUnits="userSpaceOnUse">
<stop offset="0.1196" stop-color="#42FFFA"/>
<stop offset="0.6743" stop-color="#42FFFA" stop-opacity="0"/>
</linearGradient>
<linearGradient id="paint16_linear" x1="14.813" y1="43.4506" x2="25.4668" y2="43.4506" gradientUnits="userSpaceOnUse">
<stop offset="0.0556783" stop-color="#009AE5" stop-opacity="0.4"/>
<stop offset="1" stop-color="#087CFA"/>
</linearGradient>
<linearGradient id="paint17_linear" x1="13.7195" y1="47.9359" x2="54.2788" y2="-1.81079" gradientUnits="userSpaceOnUse">
<stop stop-color="#0697DC"/>
<stop offset="0.9032" stop-color="#00FF6A"/>
</linearGradient>
<linearGradient id="paint18_linear" x1="38.3487" y1="33.9495" x2="30.8555" y2="28.1925" gradientUnits="userSpaceOnUse">
<stop offset="0.0962983" stop-color="#6EFFA3"/>
<stop offset="0.6015" stop-color="#21D789" stop-opacity="0"/>
</linearGradient>
<linearGradient id="paint19_linear" x1="55.6465" y1="11.1641" x2="45.2292" y2="6.04681" gradientUnits="userSpaceOnUse">
<stop offset="0.0962983" stop-color="#6EFFA3"/>
<stop offset="0.9654" stop-color="#FCF84A" stop-opacity="0"/>
</linearGradient>
<linearGradient id="paint20_linear" x1="62.95" y1="53.1476" x2="20.1841" y2="12.5748" gradientUnits="userSpaceOnUse">
<stop offset="0.5747" stop-color="#0CAFA3" stop-opacity="0.1365"/>
<stop offset="1" stop-color="#07C3F2" stop-opacity="0.88"/>
</linearGradient>
<linearGradient id="paint21_linear" x1="19.8088" y1="25.4244" x2="54.5209" y2="41.6674" gradientUnits="userSpaceOnUse">
<stop offset="0.4862" stop-color="#087CFA" stop-opacity="0"/>
<stop offset="1" stop-color="#21D789"/>
</linearGradient>
<linearGradient id="paint22_linear" x1="32.7108" y1="38.0544" x2="26.5118" y2="33.0583" gradientUnits="userSpaceOnUse">
<stop offset="0.311" stop-color="#65FFC5" stop-opacity="0.88"/>
<stop offset="0.4437" stop-color="#56F2BE" stop-opacity="0.6801"/>
<stop offset="0.6983" stop-color="#2FD0AD" stop-opacity="0.2969"/>
<stop offset="0.8955" stop-color="#0CB29E" stop-opacity="0"/>
</linearGradient>
<linearGradient id="paint23_linear" x1="29.9387" y1="40.2265" x2="20.8008" y2="23.2298" gradientUnits="userSpaceOnUse">
<stop offset="0.0962983" stop-color="#42FFFA"/>
<stop offset="0.6336" stop-color="#42FFFA" stop-opacity="0"/>
</linearGradient>
<linearGradient id="paint24_linear" x1="71.58" y1="19.6722" x2="51.9632" y2="10.0359" gradientUnits="userSpaceOnUse">
<stop offset="0.1514" stop-color="#00865B"/>
<stop offset="0.2496" stop-color="#048D64" stop-opacity="0.8794"/>
<stop offset="0.412" stop-color="#0EA07D" stop-opacity="0.6799"/>
<stop offset="0.6187" stop-color="#1FBFA6" stop-opacity="0.426"/>
<stop offset="0.8591" stop-color="#37EADF" stop-opacity="0.1306"/>
<stop offset="0.9654" stop-color="#42FFFA" stop-opacity="0"/>
</linearGradient>
<linearGradient id="paint25_linear" x1="61.6896" y1="6.2574" x2="23.0358" y2="32.5749" gradientUnits="userSpaceOnUse">
<stop offset="0.1446" stop-color="#FF67AA"/>
<stop offset="0.2328" stop-color="#FB69A9" stop-opacity="0.8603"/>
<stop offset="0.3132" stop-color="#F06FA6" stop-opacity="0.7328"/>
<stop offset="0.3907" stop-color="#DE7AA2" stop-opacity="0.6101"/>
<stop offset="0.4663" stop-color="#C48A9B" stop-opacity="0.4903"/>
<stop offset="0.5406" stop-color="#A29E93" stop-opacity="0.3725"/>
<stop offset="0.6139" stop-color="#79B788" stop-opacity="0.2564"/>
<stop offset="0.6864" stop-color="#48D47C" stop-opacity="0.1415"/>
<stop offset="0.7565" stop-color="#10F56E" stop-opacity="0.0303353"/>
<stop offset="0.7757" stop-color="#00FF6A" stop-opacity="0"/>
</linearGradient>
<linearGradient id="paint26_linear" x1="21.6586" y1="14.2585" x2="36.051" y2="16.0404" gradientUnits="userSpaceOnUse">
<stop offset="0.2258" stop-color="#FF52A0"/>
<stop offset="0.4026" stop-color="#FF4E9E" stop-opacity="0.6404"/>
<stop offset="0.5635" stop-color="#FF4397" stop-opacity="0.3132"/>
<stop offset="0.7175" stop-color="#FF318C" stop-opacity="0"/>
</linearGradient>
<linearGradient id="paint27_linear" x1="14.4969" y1="15.0965" x2="54.2702" y2="53.7069" gradientUnits="userSpaceOnUse">
<stop stop-color="#007859"/>
<stop offset="0.0882966" stop-color="#00533E"/>
<stop offset="0.1921" stop-color="#002F23"/>
<stop offset="0.2894" stop-color="#001510"/>
<stop offset="0.3766" stop-color="#000604"/>
<stop offset="0.4452"/>
<stop offset="0.9138"/>
</linearGradient>
<linearGradient id="paint28_linear" x1="34.5548" y1="42.1328" x2="57.1056" y2="45.339" gradientUnits="userSpaceOnUse">
<stop offset="0.0207811" stop-color="#00A466"/>
<stop offset="0.9931" stop-color="#083737"/>
</linearGradient>
<linearGradient id="paint29_linear" x1="45.6052" y1="49.2351" x2="55" y2="49.2351" gradientUnits="userSpaceOnUse">
<stop offset="0.1545" stop-color="#003127"/>
<stop offset="0.9931" stop-color="#0855FA"/>
</linearGradient>
<linearGradient id="paint30_linear" x1="26.4487" y1="25.9779" x2="19.8948" y2="26.5562" gradientUnits="userSpaceOnUse">
<stop offset="0.0962983" stop-color="#6EFFA3"/>
<stop offset="0.9654" stop-color="#FCF84A"/>
</linearGradient>
<linearGradient id="paint31_linear" x1="22.4166" y1="19.5411" x2="12.8452" y2="40.4241" gradientUnits="userSpaceOnUse">
<stop offset="0.0913979" stop-color="#00FF6A"/>
<stop offset="0.759" stop-color="#009AE5"/>
</linearGradient>
<linearGradient id="paint32_linear" x1="28.6218" y1="13.9372" x2="35.5652" y2="28.2735" gradientUnits="userSpaceOnUse">
<stop offset="0.3369" stop-color="#FF52A0"/>
<stop offset="0.493" stop-color="#FF489A"/>
<stop offset="0.7175" stop-color="#FF318C"/>
</linearGradient>
<linearGradient id="paint33_linear" x1="39.1614" y1="12.7503" x2="31.7042" y2="56.4649" gradientUnits="userSpaceOnUse">
<stop stop-color="#21D789"/>
<stop offset="1" stop-color="#090C1B"/>
</linearGradient>
<linearGradient id="paint34_linear" x1="35.9892" y1="16.3401" x2="24.3855" y2="41.8617" gradientUnits="userSpaceOnUse">
<stop offset="0.0962983" stop-color="#6EFFA3"/>
<stop offset="0.9654" stop-color="#218F59"/>
</linearGradient>
<linearGradient id="paint35_linear" x1="13.3463" y1="40.0135" x2="22.5794" y2="47.7608" gradientUnits="userSpaceOnUse">
<stop offset="0.1545" stop-color="#001A18"/>
<stop offset="0.9931" stop-color="#0855FA"/>
</linearGradient>
</defs>
</svg>
