<svg width="80" height="80" viewBox="0 0 80 80" fill="none" xmlns="http://www.w3.org/2000/svg">
<path d="M29.7 32.0002L31.2999 3.2002L48 12.5002L29.7 32.0002Z" fill="url(#paint0_linear)"/>
<path d="M29.7 32L30.7 14.1L48 12.5L29.7 32Z" fill="url(#paint1_linear)"/>
<path d="M29.7 32.0002L30.6 14.3002L31.2999 3.2002L9.99995 16.6002L3.19995 57.3002L29.7 32.0002Z" fill="#00FF6A"/>
<path d="M29.7 32.0001L30.7 14.1001L10 16.6001L17.5 43.8001L29.7 32.0001Z" fill="url(#paint2_linear)"/>
<path d="M29.7 32.0002L31.3 3.2002L10 16.6002L17.5 43.8002L29.7 32.0002Z" fill="url(#paint3_linear)"/>
<path d="M29.6 31.3003L28.2 57.7003L46.7999 72.8003L65.1999 76.8003L76.8 50.5003L29.6 31.3003Z" fill="url(#paint4_linear)"/>
<path d="M59.5 49.7L43.1 39.7L45.1 37.5L76.8 50.5L59.5 49.7Z" fill="url(#paint5_linear)"/>
<path d="M59.4999 49.7002L46.7999 72.8002L65.1999 76.8002L76.7999 50.5002L59.4999 49.7002Z" fill="url(#paint6_linear)"/>
<path d="M28.9 40.6001L28.2 57.7001L46.7999 72.8001L28.9 40.6001Z" fill="url(#paint7_linear)"/>
<path d="M29.5 42.1001L65.2 76.8001L46.8 72.8001L29.5 42.1001Z" fill="url(#paint8_linear)"/>
<path d="M29.5 42.1001L65.2 76.8001L46.8 72.8001L29.5 42.1001Z" fill="url(#paint9_linear)"/>
<path d="M3.19995 57.3001L29.7 32.0001L9.99995 16.6001L3.19995 57.3001Z" fill="url(#paint10_linear)"/>
<path d="M3.19995 57.3001L22.7 37.8001L9.99995 16.6001L3.19995 57.3001Z" fill="url(#paint11_linear)"/>
<path d="M76.8 28.7L65.9 6L48 12.5L3.19995 57.3L27.1 74.7L76.8 28.7Z" fill="url(#paint12_linear)"/>
<path d="M29.1 41.9004L28.2 57.7004L37.4 65.2004L40.7999 62.0004L29.1 41.9004Z" fill="url(#paint13_linear)"/>
<path d="M3.19995 57.3004L29.1 41.9004L27.1 74.7004L3.19995 57.3004Z" fill="url(#paint14_linear)"/>
<path d="M3.19995 57.3004L29.1 41.9004L27.1 74.7004L3.19995 57.3004Z" fill="url(#paint15_linear)"/>
<path d="M16.8999 49.1004L29.0999 41.9004L28.0999 57.4004L16.8999 49.1004Z" fill="url(#paint16_linear)"/>
<path d="M3.19995 57.3L29 41.9L65.9 6L48 12.5L3.19995 57.3Z" fill="url(#paint17_linear)"/>
<path d="M3.19995 57.3L29 42L65.9 6L48 12.5L3.19995 57.3Z" fill="url(#paint18_linear)"/>
<path d="M55.2 16.5L65.9 6L48 12.5L55.2 16.5Z" fill="url(#paint19_linear)"/>
<path d="M76.4999 28.3L37.4999 64.8L22.8999 37.7L47.9999 12.5L76.4999 28.3Z" fill="url(#paint20_linear)"/>
<path d="M60.1 43.7001L29.5 31.1001V31.2001L56 47.6001L60.1 43.7001Z" fill="url(#paint21_linear)"/>
<path d="M55.2 16.5L29.1 41.9L3.19995 57.3L22.9 37.7L48 12.5L55.2 16.5Z" fill="url(#paint22_linear)"/>
<path d="M55.4 16.3L29.1 41.9L3.19995 57.3L22.9 37.7L48 12.5L55.4 16.3Z" fill="url(#paint23_linear)"/>
<path d="M55.3999 15.8L65.8999 6L76.7999 28.7L55.3999 15.8Z" fill="url(#paint24_linear)"/>
<path d="M29.7 30.8L41.7 36.8L48 12.5L29.7 30.8Z" fill="url(#paint25_linear)"/>
<path d="M48 12.5002L31.2999 3.2002L29.7 30.8002L48 12.5002Z" fill="url(#paint26_linear)"/>
<path d="M63 17H17V63H63V17Z" fill="url(#paint27_linear)"/>
<g opacity="0.3">
<path opacity="0.3" d="M63 44.8998L29.6 31.2998L28.2 57.6998L34.7 62.9998H63V44.8998Z" fill="url(#paint28_linear)"/>
<path opacity="0.3" d="M63 63.0002V49.9002L59.5 49.7002L52.2 63.0002H63Z" fill="url(#paint29_linear)"/>
<path opacity="0.3" d="M17 17V42V44.6L29.7 32L30.5 17H17Z" fill="url(#paint30_linear)"/>
<path opacity="0.3" d="M17 42.0001V44.1001L29.7 32.0001L17 22.1001V42.0001Z" fill="url(#paint31_linear)"/>
<path opacity="0.3" d="M30.5 17L29.7 30.8L43.5 17H30.5Z" fill="url(#paint32_linear)"/>
<path opacity="0.3" d="M63 41.4V17H43.5L17 43.5V63H39.7L63 41.4Z" fill="url(#paint33_linear)"/>
<path opacity="0.3" d="M17 43.5V49.3L29.1 41.9L54.6 17H43.5L17 43.5Z" fill="url(#paint34_linear)"/>
<path opacity="0.3" d="M17 62.9999H27.8L29.1 41.8999L17 49.0999V62.9999Z" fill="url(#paint35_linear)"/>
</g>
<path d="M39.9 54.2998H22.7V57.1998H39.9V54.2998Z" fill="white"/>
<path d="M40 54.2998H22.8V57.1998H40V54.2998Z" fill="white"/>
<path d="M40.5 22.7002H44.3V36.8002H51.9V40.0002H40.5V22.7002Z" fill="white"/>
<path d="M22 31.5C22 26.5 25.7 22.5 31.1 22.5C34.4 22.5 36.3 23.6 38 25.2L35.5 27.9C34.2 26.7 32.8 25.9 31.1 25.9C28.2 25.9 26.1 28.3 26.1 31.3C26.1 34.3 28.2 36.8 31.1 36.8C33.1 36.8 34.3 36 35.7 34.8L38.1 37.3C36.3 39.2 34.3 40.4 31 40.4C25.8 40.4 22 36.5 22 31.5Z" fill="white"/>
<defs>
<linearGradient id="paint0_linear" x1="29.6551" y1="17.5901" x2="50.7423" y2="17.5901" gradientUnits="userSpaceOnUse">
<stop stop-color="#FF318C"/>
<stop offset="0.149" stop-color="#FB348C"/>
<stop offset="0.2849" stop-color="#F03C8C"/>
<stop offset="0.4157" stop-color="#DE4A8C"/>
<stop offset="0.5434" stop-color="#C45D8B"/>
<stop offset="0.6689" stop-color="#A2778B"/>
<stop offset="0.7926" stop-color="#79958A"/>
<stop offset="0.9128" stop-color="#49B98A"/>
<stop offset="1" stop-color="#21D789"/>
</linearGradient>
<linearGradient id="paint1_linear" x1="27.1431" y1="24.2368" x2="56.4369" y2="12.8013" gradientUnits="userSpaceOnUse">
<stop offset="0.1069" stop-color="#FF318C"/>
<stop offset="0.2181" stop-color="#FB338C"/>
<stop offset="0.3194" stop-color="#F0388E"/>
<stop offset="0.4168" stop-color="#DE4190"/>
<stop offset="0.5114" stop-color="#C44E93"/>
<stop offset="0.6008" stop-color="#A45E97"/>
<stop offset="0.6375" stop-color="#976A96"/>
<stop offset="0.7051" stop-color="#758992"/>
<stop offset="0.7956" stop-color="#3FBC8C"/>
<stop offset="0.8402" stop-color="#21D789"/>
</linearGradient>
<linearGradient id="paint2_linear" x1="27.0519" y1="11.306" x2="11.0355" y2="40.0813" gradientUnits="userSpaceOnUse">
<stop offset="0.0294109" stop-color="#00FF6A"/>
<stop offset="0.375" stop-color="#21D789"/>
<stop offset="0.9032" stop-color="#009AE5"/>
</linearGradient>
<linearGradient id="paint3_linear" x1="30.9646" y1="22.9074" x2="20.3122" y2="23.8473" gradientUnits="userSpaceOnUse">
<stop offset="0.0294109" stop-color="#A6FF9E"/>
<stop offset="0.6015" stop-color="#21D789" stop-opacity="0"/>
</linearGradient>
<linearGradient id="paint4_linear" x1="42.6409" y1="53.3829" x2="76.8151" y2="58.2418" gradientUnits="userSpaceOnUse">
<stop offset="0.3444" stop-color="#21D789"/>
<stop offset="0.8032" stop-color="#009AE5"/>
<stop offset="0.9931" stop-color="#0855FA"/>
</linearGradient>
<linearGradient id="paint5_linear" x1="44.4788" y1="53.1531" x2="70.8406" y2="38.5874" gradientUnits="userSpaceOnUse">
<stop offset="0.0962983" stop-color="#00FF6A"/>
<stop offset="0.9654" stop-color="#00FF6A" stop-opacity="0"/>
</linearGradient>
<linearGradient id="paint6_linear" x1="39.259" y1="76.0221" x2="79.5624" y2="53.7533" gradientUnits="userSpaceOnUse">
<stop stop-color="#42FFFA" stop-opacity="0.5"/>
<stop offset="0.9989" stop-color="#00FF6A" stop-opacity="0"/>
</linearGradient>
<linearGradient id="paint7_linear" x1="50.2615" y1="58.9126" x2="36.0585" y2="56.4061" gradientUnits="userSpaceOnUse">
<stop offset="0.0521494" stop-color="#00FF6A"/>
<stop offset="1" stop-color="#009AE5"/>
</linearGradient>
<linearGradient id="paint8_linear" x1="77.1865" y1="62.2323" x2="31.4141" y2="57.9473" gradientUnits="userSpaceOnUse">
<stop offset="0.1212" stop-color="#21D789" stop-opacity="0"/>
<stop offset="0.7868" stop-color="#00FF6A"/>
</linearGradient>
<linearGradient id="paint9_linear" x1="51.7867" y1="55.8645" x2="42.2526" y2="63.5883" gradientUnits="userSpaceOnUse">
<stop offset="0.0962983" stop-color="#42FFFA"/>
<stop offset="0.9654" stop-color="#42FFFA" stop-opacity="0"/>
</linearGradient>
<linearGradient id="paint10_linear" x1="23.8757" y1="15.4529" x2="1.91715" y2="63.3625" gradientUnits="userSpaceOnUse">
<stop offset="0.0913979" stop-color="#00FF6A"/>
<stop offset="0.759" stop-color="#009AE5"/>
</linearGradient>
<linearGradient id="paint11_linear" x1="7.06855" y1="26.4398" x2="15.0055" y2="55.0548" gradientUnits="userSpaceOnUse">
<stop offset="0.1163" stop-color="#21D789" stop-opacity="0.6"/>
<stop offset="1" stop-color="#009AE5"/>
</linearGradient>
<linearGradient id="paint12_linear" x1="70.7889" y1="10.4706" x2="-3.25184" y2="88.6687" gradientUnits="userSpaceOnUse">
<stop offset="0.0913979" stop-color="#21D789"/>
<stop offset="0.9032" stop-color="#009AE5"/>
</linearGradient>
<linearGradient id="paint13_linear" x1="40.7791" y1="73.4837" x2="26.7984" y2="43.192" gradientUnits="userSpaceOnUse">
<stop offset="0.00994756" stop-color="#009AE5"/>
<stop offset="0.9654" stop-color="#009AE5" stop-opacity="0"/>
</linearGradient>
<linearGradient id="paint14_linear" x1="3.19995" y1="58.2821" x2="29.1049" y2="58.2821" gradientUnits="userSpaceOnUse">
<stop offset="0.0556783" stop-color="#009AE5" stop-opacity="0.4"/>
<stop offset="0.7897" stop-color="#009AE5"/>
</linearGradient>
<linearGradient id="paint15_linear" x1="7.63905" y1="42.4512" x2="25.8106" y2="57.6987" gradientUnits="userSpaceOnUse">
<stop offset="0.1196" stop-color="#42FFFA"/>
<stop offset="0.6743" stop-color="#42FFFA" stop-opacity="0"/>
</linearGradient>
<linearGradient id="paint16_linear" x1="16.929" y1="49.6587" x2="29.1048" y2="49.6587" gradientUnits="userSpaceOnUse">
<stop offset="0.0556783" stop-color="#009AE5" stop-opacity="0.4"/>
<stop offset="1" stop-color="#087CFA"/>
</linearGradient>
<linearGradient id="paint17_linear" x1="15.6794" y1="54.7841" x2="62.0327" y2="-2.0692" gradientUnits="userSpaceOnUse">
<stop stop-color="#0697DC"/>
<stop offset="0.9032" stop-color="#00FF6A"/>
</linearGradient>
<linearGradient id="paint18_linear" x1="43.827" y1="38.7996" x2="35.2633" y2="32.2202" gradientUnits="userSpaceOnUse">
<stop offset="0.0962983" stop-color="#6EFFA3"/>
<stop offset="0.6015" stop-color="#21D789" stop-opacity="0"/>
</linearGradient>
<linearGradient id="paint19_linear" x1="63.596" y1="12.7592" x2="51.6905" y2="6.9109" gradientUnits="userSpaceOnUse">
<stop offset="0.0962983" stop-color="#6EFFA3"/>
<stop offset="0.9654" stop-color="#FCF84A" stop-opacity="0"/>
</linearGradient>
<linearGradient id="paint20_linear" x1="71.9428" y1="60.7402" x2="23.0674" y2="14.3713" gradientUnits="userSpaceOnUse">
<stop offset="0.5747" stop-color="#0CAFA3" stop-opacity="0.1365"/>
<stop offset="1" stop-color="#07C3F2" stop-opacity="0.88"/>
</linearGradient>
<linearGradient id="paint21_linear" x1="22.6386" y1="29.0569" x2="62.3096" y2="47.6203" gradientUnits="userSpaceOnUse">
<stop offset="0.4862" stop-color="#087CFA" stop-opacity="0"/>
<stop offset="1" stop-color="#21D789"/>
</linearGradient>
<linearGradient id="paint22_linear" x1="37.3836" y1="43.4909" x2="30.2991" y2="37.781" gradientUnits="userSpaceOnUse">
<stop offset="0.311" stop-color="#65FFC5" stop-opacity="0.88"/>
<stop offset="0.4437" stop-color="#56F2BE" stop-opacity="0.6801"/>
<stop offset="0.6983" stop-color="#2FD0AD" stop-opacity="0.2969"/>
<stop offset="0.8955" stop-color="#0CB29E" stop-opacity="0"/>
</linearGradient>
<linearGradient id="paint23_linear" x1="34.2157" y1="45.9732" x2="23.7722" y2="26.5484" gradientUnits="userSpaceOnUse">
<stop offset="0.0962983" stop-color="#42FFFA"/>
<stop offset="0.6336" stop-color="#42FFFA" stop-opacity="0"/>
</linearGradient>
<linearGradient id="paint24_linear" x1="81.8057" y1="22.4828" x2="59.3865" y2="11.4698" gradientUnits="userSpaceOnUse">
<stop offset="0.1514" stop-color="#00865B"/>
<stop offset="0.2496" stop-color="#048D64" stop-opacity="0.8794"/>
<stop offset="0.412" stop-color="#0EA07D" stop-opacity="0.6799"/>
<stop offset="0.6187" stop-color="#1FBFA6" stop-opacity="0.426"/>
<stop offset="0.8591" stop-color="#37EADF" stop-opacity="0.1306"/>
<stop offset="0.9654" stop-color="#42FFFA" stop-opacity="0"/>
</linearGradient>
<linearGradient id="paint25_linear" x1="70.5024" y1="7.1514" x2="26.3266" y2="37.2285" gradientUnits="userSpaceOnUse">
<stop offset="0.1446" stop-color="#FF67AA"/>
<stop offset="0.2328" stop-color="#FB69A9" stop-opacity="0.8603"/>
<stop offset="0.3132" stop-color="#F06FA6" stop-opacity="0.7328"/>
<stop offset="0.3907" stop-color="#DE7AA2" stop-opacity="0.6101"/>
<stop offset="0.4663" stop-color="#C48A9B" stop-opacity="0.4903"/>
<stop offset="0.5406" stop-color="#A29E93" stop-opacity="0.3725"/>
<stop offset="0.6139" stop-color="#79B788" stop-opacity="0.2564"/>
<stop offset="0.6864" stop-color="#48D47C" stop-opacity="0.1415"/>
<stop offset="0.7565" stop-color="#10F56E" stop-opacity="0.0303353"/>
<stop offset="0.7757" stop-color="#00FF6A" stop-opacity="0"/>
</linearGradient>
<linearGradient id="paint26_linear" x1="24.7527" y1="16.2958" x2="41.2012" y2="18.3323" gradientUnits="userSpaceOnUse">
<stop offset="0.2258" stop-color="#FF52A0"/>
<stop offset="0.4026" stop-color="#FF4E9E" stop-opacity="0.6404"/>
<stop offset="0.5635" stop-color="#FF4397" stop-opacity="0.3132"/>
<stop offset="0.7175" stop-color="#FF318C" stop-opacity="0"/>
</linearGradient>
<linearGradient id="paint27_linear" x1="16.4214" y1="17.1109" x2="62.1608" y2="61.5129" gradientUnits="userSpaceOnUse">
<stop stop-color="#007859"/>
<stop offset="0.0882966" stop-color="#00533E"/>
<stop offset="0.1921" stop-color="#002F23"/>
<stop offset="0.2894" stop-color="#001510"/>
<stop offset="0.3766" stop-color="#000604"/>
<stop offset="0.4452"/>
<stop offset="0.9138"/>
</linearGradient>
<linearGradient id="paint28_linear" x1="39.488" y1="48.2025" x2="65.4214" y2="51.8897" gradientUnits="userSpaceOnUse">
<stop offset="0.0207811" stop-color="#00A466"/>
<stop offset="0.9931" stop-color="#083737"/>
</linearGradient>
<linearGradient id="paint29_linear" x1="52.196" y1="56.3706" x2="63" y2="56.3706" gradientUnits="userSpaceOnUse">
<stop offset="0.1545" stop-color="#003127"/>
<stop offset="0.9931" stop-color="#0855FA"/>
</linearGradient>
<linearGradient id="paint30_linear" x1="30.166" y1="29.6246" x2="22.629" y2="30.2896" gradientUnits="userSpaceOnUse">
<stop offset="0.0962983" stop-color="#6EFFA3"/>
<stop offset="0.9654" stop-color="#FCF84A"/>
</linearGradient>
<linearGradient id="paint31_linear" x1="25.5291" y1="22.2225" x2="14.522" y2="46.2379" gradientUnits="userSpaceOnUse">
<stop offset="0.0913979" stop-color="#00FF6A"/>
<stop offset="0.759" stop-color="#009AE5"/>
</linearGradient>
<linearGradient id="paint32_linear" x1="32.6651" y1="15.7778" x2="40.65" y2="32.2646" gradientUnits="userSpaceOnUse">
<stop offset="0.3369" stop-color="#FF52A0"/>
<stop offset="0.493" stop-color="#FF489A"/>
<stop offset="0.7175" stop-color="#FF318C"/>
</linearGradient>
<linearGradient id="paint33_linear" x1="44.7856" y1="14.4129" x2="36.2098" y2="64.6846" gradientUnits="userSpaceOnUse">
<stop stop-color="#21D789"/>
<stop offset="1" stop-color="#090C1B"/>
</linearGradient>
<linearGradient id="paint34_linear" x1="41.1376" y1="18.5411" x2="27.7934" y2="47.8909" gradientUnits="userSpaceOnUse">
<stop offset="0.0962983" stop-color="#6EFFA3"/>
<stop offset="0.9654" stop-color="#218F59"/>
</linearGradient>
<linearGradient id="paint35_linear" x1="15.0982" y1="45.7653" x2="25.7163" y2="54.6747" gradientUnits="userSpaceOnUse">
<stop offset="0.1545" stop-color="#001A18"/>
<stop offset="0.9931" stop-color="#0855FA"/>
</linearGradient>
</defs>
</svg>
