<svg xmlns="http://www.w3.org/2000/svg" width="16" height="16" fill="none" viewBox="0 0 16 16">
  <defs>
    <clipPath id="a">
      <path fill="#fff" d="M0 0h16v16H0z"/>
    </clipPath>
  </defs>
  <g clip-path="url(#a)">
    <path fill="#3BEA62" d="M16 0H0v16h16V0Z"/>
    <path fill="#000" d="M15 1H1v14h14V1Z"/>
    <path fill="#fff" d="M10.67 3h1.188l2.509 6H13.02l-.535-1.336h-2.477L9.473 9H8.159l2.511-6Zm1.355 3.507-.778-1.932-.778 1.932h1.556Z"/>
    <path fill="#fff" d="m7.339 9.18-.644-.587a3.152 3.152 0 0 1-1.74.51c-1.808 0-3.105-1.37-3.105-3.064v-.017c0-1.694 1.314-3.082 3.121-3.082s3.104 1.37 3.104 3.065v.017a3.09 3.09 0 0 1-.518 1.71l.602.52-.82.928ZM5.741 7.733l-.954-.826.82-.936.962.885c.1-.238.16-.52.16-.817v-.017c0-1.022-.737-1.873-1.775-1.873-1.037 0-1.757.834-1.757 1.856v.017c0 1.021.737 1.872 1.774 1.872.285 0 .544-.05.77-.161Z"/>
    <path fill="#fff" d="M9 12H3v1h6v-1Z"/>
  </g>
</svg>
