<svg width="40" height="40" viewBox="0 0 40 40" fill="none" xmlns="http://www.w3.org/2000/svg">
<path d="M35.8941 8.73628L20.8621 35.5823C20.5517 36.1366 19.7544 36.1399 19.4394 35.5883L4.1093 8.73887C3.76611 8.13779 4.28074 7.40972 4.96274 7.53147L20.0108 10.2179C20.1068 10.235 20.2051 10.2348 20.3011 10.2174L35.0345 7.53532C35.7142 7.41159 36.2313 8.13402 35.8941 8.73628Z" fill="url(#paint0_linear_2594_50)"/>
<path d="M27.179 4.00788L16.0549 6.18487C15.8721 6.22065 15.7367 6.3754 15.7257 6.56111L15.0414 18.1037C15.0253 18.3755 15.2753 18.5865 15.541 18.5254L18.6381 17.8115C18.9279 17.7447 19.1897 17.9996 19.1301 18.2907L18.21 22.7908C18.1481 23.0937 18.4328 23.3527 18.7289 23.2629L20.6418 22.6824C20.9384 22.5925 21.2234 22.8522 21.1606 23.1553L19.6983 30.224C19.6068 30.6662 20.1957 30.9073 20.4413 30.5282L20.6053 30.275L29.6699 12.2079C29.8217 11.9054 29.5599 11.5604 29.2273 11.6245L26.0393 12.239C25.7397 12.2967 25.4848 12.0181 25.5694 11.7253L27.6501 4.52131C27.7347 4.22808 27.479 3.94919 27.179 4.00788Z" fill="url(#paint1_linear_2594_50)"/>
<defs>
<linearGradient id="paint0_linear_2594_50" x1="3.73501" y1="6.57203" x2="22.413" y2="31.9702" gradientUnits="userSpaceOnUse">
<stop stop-color="#41D1FF"/>
<stop offset="1" stop-color="#BD34FE"/>
</linearGradient>
<linearGradient id="paint1_linear_2594_50" x1="19.1471" y1="4.59893" x2="22.5231" y2="27.7867" gradientUnits="userSpaceOnUse">
<stop stop-color="#FFEA83"/>
<stop offset="0.0833333" stop-color="#FFDD35"/>
<stop offset="1" stop-color="#FFA800"/>
</linearGradient>
</defs>
</svg>
