<svg width="14" height="14" viewBox="0 0 14 14" fill="none" xmlns="http://www.w3.org/2000/svg">
<path fill-rule="evenodd" clip-rule="evenodd" d="M13.7451 4.84613L7.40268 13.4537C7.20284 13.7249 6.79745 13.7249 6.59762 13.4537L0.255193 4.84613C0.108544 4.64711 0.129358 4.37079 0.304167 4.19598L3.20725 1.29289C3.39479 1.10536 3.64914 1 3.91436 1H10.0859C10.3511 1 10.6055 1.10536 10.793 1.29289L13.6961 4.19598C13.8709 4.37079 13.8918 4.64711 13.7451 4.84613Z" fill="#EBECF0"/>
<path fill-rule="evenodd" clip-rule="evenodd" d="M13.7451 4.84613L7.40268 13.4537C7.20284 13.7249 6.79745 13.7249 6.59762 13.4537L0.255193 4.84613C0.108544 4.64711 0.129358 4.37079 0.304167 4.19598L3.20725 1.29289C3.39479 1.10536 3.64914 1 3.91436 1H10.0859C10.3511 1 10.6055 1.10536 10.793 1.29289L13.6961 4.19598C13.8709 4.37079 13.8918 4.64711 13.7451 4.84613ZM5.79681 10.6811L1.61072 5H4.12589L5.79681 10.6811ZM8.203 10.6818L12.3896 5H9.87411L8.203 10.6818ZM9.80903 4H12.0859L10.0859 2H8.80903L9.80903 4ZM7.691 2L8.691 4H5.309L6.309 2L7.691 2ZM5.19097 2H3.91436L1.91436 4H4.19097L5.19097 2ZM5.16824 5H8.83176L7 11.228L5.16824 5Z" fill="#6C707E"/>
</svg>
