<svg width="16" height="16" viewBox="0 0 16 16" fill="none" xmlns="http://www.w3.org/2000/svg">
<g clip-path="url(#clip0_4363_9190)">
<g clip-path="url(#clip1_4363_9190)">
<path d="M16 0H0V16H16V0Z" fill="#087CFA"/>
<path d="M15 1H1V15H15V1Z" fill="black"/>
<path d="M3 7.12853H3.99293V3.87147H3V3H5.94633V3.87147H4.9534V7.12853H5.94633V8H3V7.12853Z" fill="white"/>
<path d="M6.44586 7.10008H7.16378C7.30893 7.10008 7.43822 7.06914 7.55129 7.00726C7.66435 6.94538 7.75182 6.85791 7.8137 6.74484C7.87558 6.63178 7.90652 6.50267 7.90652 6.35733V3H8.8815V6.42494C8.8815 6.72498 8.81236 6.99465 8.67428 7.23396C8.5362 7.47326 8.34579 7.66081 8.10285 7.79641C7.85992 7.9322 7.58738 8 7.28505 8H6.44586V7.10008Z" fill="white"/>
<path d="M8 12H3V13H8V12Z" fill="white"/>
</g>
</g>
<defs>
<clipPath id="clip0_4363_9190">
<rect width="16" height="16" fill="white"/>
</clipPath>
<clipPath id="clip1_4363_9190">
<rect width="16" height="16" fill="white"/>
</clipPath>
</defs>
</svg>
