<svg width="64" height="64" viewBox="0 0 64 64" fill="none" xmlns="http://www.w3.org/2000/svg">
<path d="M57.2999 12L61 35.1L54.2 39.7L57.2999 12Z" fill="url(#paint0_linear)"/>
<path d="M61 35.0998L54.2 39.6998L55.4 28.7998L61 35.0998Z" fill="url(#paint1_linear)"/>
<path d="M57.2999 12L36.5 3L30.7 7.8L57.2999 12Z" fill="url(#paint2_linear)"/>
<path d="M41 9.5L36.5 3L30.7 7.8L41 9.5Z" fill="url(#paint3_linear)"/>
<path d="M42.2 60.9998L10 35.2998L3.5 54.7998L42.2 60.9998Z" fill="url(#paint4_linear)"/>
<path d="M42.2 61.0002L16.3 49.7002L3.5 54.8002L42.2 61.0002Z" fill="url(#paint5_linear)"/>
<path d="M46.7 44.7998L3 29.7998L42.2 60.9998L46.7 44.7998Z" fill="url(#paint6_linear)"/>
<path d="M46.7 44.7998L43.8 43.7998L39.5 49.2998L42.2 60.9998L46.7 44.7998Z" fill="url(#paint7_linear)"/>
<path d="M39.5 49.2998L3 29.7998L36.5 56.3998L42.2 60.9998L39.5 49.2998Z" fill="url(#paint8_linear)"/>
<path d="M3 3.3999V29.7999L53.3 47.0999L57.3 11.9999L3 3.3999Z" fill="url(#paint9_linear)"/>
<path d="M3 3.3999V29.7999L53.3 47.0999L47.4 20.5999L3 3.3999Z" fill="url(#paint10_linear)"/>
<path d="M3 3.3999V29.7999L15 22.4999L3 3.3999Z" fill="url(#paint11_linear)"/>
<path d="M16.3 49.6998L47.5 20.7998L14.6 22.7998L3.5 54.7998L16.3 49.6998Z" fill="url(#paint12_linear)"/>
<path d="M16.3 49.6998L17.4 41.1998L10 35.2998L3.5 54.7998L16.3 49.6998Z" fill="url(#paint13_linear)"/>
<path d="M16.3 49.6998L17.4 41.1998L10 35.2998L3.5 54.7998L16.3 49.6998Z" fill="url(#paint14_linear)"/>
<path d="M57.2999 12L53.2999 47.1L47.3999 20.6L57.2999 12Z" fill="url(#paint15_linear)"/>
<path d="M53.3 47.1002L54.2 39.7002L52 41.2002L53.3 47.1002Z" fill="url(#paint16_linear)"/>
<path d="M53.2999 47.1002L46.7 44.8002L52 41.2002L53.2999 47.1002Z" fill="url(#paint17_linear)"/>
<path d="M57.3 11.9998L43 24.5998L14.3 22.6998L30.7001 7.7998L57.3 11.9998Z" fill="url(#paint18_linear)"/>
<path d="M47.4 20.5999L57.3 11.9999L3 3.3999L47.4 20.5999Z" fill="url(#paint19_linear)"/>
<path d="M47.4 20.5999L57.3 11.9999L3 3.3999L47.4 20.5999Z" fill="url(#paint20_linear)"/>
<path d="M25.8 12.1998L47.4001 20.5998L48.1 19.9998L40.9001 9.3998L30.7001 7.7998L25.8 12.1998Z" fill="url(#paint21_linear)"/>
<path d="M50 14H14V50H50V14Z" fill="url(#paint22_linear)"/>
<g opacity="0.5">
<path opacity="0.3" d="M14 38.48V50H28.49L14 38.48Z" fill="url(#paint23_linear)"/>
<path opacity="0.3" d="M14 38.48V50H15.53L16.43 49.64L21.785 44.69L14 38.48Z" fill="url(#paint24_linear)"/>
<path opacity="0.3" d="M14 38.4802L28.49 50.0002H45.14L46.58 44.7802L14 33.5752V38.4802Z" fill="url(#paint25_linear)"/>
<path opacity="0.3" d="M39.4699 49.28L39.6499 50H45.1399L46.5799 44.78L37.9399 41.855L39.4699 49.28Z" fill="url(#paint26_linear)"/>
<path opacity="0.3" d="M50 18.4102L47.3 20.7502L50 32.7652V18.4102Z" fill="url(#paint27_linear)"/>
<path opacity="0.3" d="M50 14H29.885L47.3 20.75L50 18.41V14Z" fill="url(#paint28_linear)"/>
<path opacity="0.3" d="M50 45.95V32.765L47.3 20.75L29.885 14H14V33.575L50 45.95Z" fill="url(#paint29_linear)"/>
</g>
<path d="M31.9999 43.2002H18.3999V45.4002H31.9999V43.2002Z" fill="white"/>
<path d="M18.25 18.5288H23.5746C27.8481 18.5288 30.8189 21.4768 30.8189 25.2932V25.3389C30.8189 29.1781 27.8709 32.1489 23.5746 32.1489H18.25V18.5288ZM21.2437 21.2483V29.4523H23.5518C25.997 29.4523 27.6652 27.8069 27.6652 25.3846V25.3389C27.6652 22.9165 26.0199 21.2254 23.5518 21.2254H21.2437V21.2483Z" fill="white"/>
<path d="M31.9968 25.3846V25.3389C31.9968 21.4539 35.0134 18.3003 39.1497 18.3003C41.5949 18.3003 43.0803 18.963 44.4971 20.1742L42.6004 22.4595C41.5492 21.5911 40.6122 21.0883 39.0354 21.0883C36.8644 21.0883 35.1276 23.0079 35.1276 25.3389V25.3846C35.1276 27.8755 36.8416 29.7037 39.2639 29.7037C40.3608 29.7037 41.3207 29.4295 42.0976 28.881V26.9385H39.0811V24.3105H44.9999V30.2293C43.6059 31.4176 41.6634 32.4003 39.1725 32.4003C34.9219 32.4003 31.9968 29.4066 31.9968 25.3846Z" fill="white"/>
<defs>
<linearGradient id="paint0_linear" x1="56.1343" y1="24.8165" x2="57.8303" y2="39.5826" gradientUnits="userSpaceOnUse">
<stop offset="0.1599" stop-color="#21D789"/>
<stop offset="0.5402" stop-color="#419FBC"/>
<stop offset="1" stop-color="#6B57FF"/>
</linearGradient>
<linearGradient id="paint1_linear" x1="48.6944" y1="32.1451" x2="70.7355" y2="39.9061" gradientUnits="userSpaceOnUse">
<stop offset="0.0212475" stop-color="#B74AF7" stop-opacity="0"/>
<stop offset="0.744" stop-color="#8053FD" stop-opacity="0.7385"/>
<stop offset="1" stop-color="#6B57FF"/>
</linearGradient>
<linearGradient id="paint2_linear" x1="40.6721" y1="18.4815" x2="44.9623" y2="7.5067" gradientUnits="userSpaceOnUse">
<stop  offset="0" stop-color="#6B57FF"/>
<stop offset="0.9516" stop-color="#21D789"/>
</linearGradient>
<linearGradient id="paint3_linear" x1="40.7468" y1="4.8557" x2="33.7904" y2="9.7302" gradientUnits="userSpaceOnUse">
<stop  offset="0" stop-color="#00FF6A"/>
<stop offset="0.9516" stop-color="#21D789" stop-opacity="0"/>
</linearGradient>
<linearGradient id="paint4_linear" x1="42.0589" y1="69.2479" x2="1.3209" y2="41.3486" gradientUnits="userSpaceOnUse">
<stop offset="0.09839" stop-color="#6B57FF"/>
<stop offset="0.1176" stop-color="#685CFB"/>
<stop offset="0.3447" stop-color="#4A91CA"/>
<stop offset="0.5417" stop-color="#34B7A7"/>
<stop offset="0.6991" stop-color="#26CE91"/>
<stop offset="0.7971" stop-color="#21D789"/>
</linearGradient>
<linearGradient id="paint5_linear" x1="21.1764" y1="38.5299" x2="23.5653" y2="66.2058" gradientUnits="userSpaceOnUse">
<stop offset="0.09839" stop-color="#6B57FF"/>
<stop offset="0.1176" stop-color="#685CFB"/>
<stop offset="0.3447" stop-color="#4A91CA"/>
<stop offset="0.5417" stop-color="#34B7A7"/>
<stop offset="0.6991" stop-color="#26CE91"/>
<stop offset="0.7971" stop-color="#21D789"/>
</linearGradient>
<linearGradient id="paint6_linear" x1="6.6129" y1="32.0063" x2="57.4369" y2="60.0679" gradientUnits="userSpaceOnUse">
<stop offset="0.0752688" stop-color="#21D789"/>
<stop offset="0.8874" stop-color="#6B57FF"/>
</linearGradient>
<linearGradient id="paint7_linear" x1="39.52" y1="52.3978" x2="46.6803" y2="52.3978" gradientUnits="userSpaceOnUse">
<stop offset="0.0266187" stop-color="#4F46C6"/>
<stop offset="1" stop-color="#6B57FF"/>
</linearGradient>
<linearGradient id="paint8_linear" x1="4.8164" y1="35.2602" x2="55.6404" y2="63.3218" gradientUnits="userSpaceOnUse">
<stop offset="0.0266187" stop-color="#21D789"/>
<stop offset="0.6999" stop-color="#685CFA"/>
<stop offset="1" stop-color="#6B57FF"/>
</linearGradient>
<linearGradient id="paint9_linear" x1="0.1831" y1="17.547" x2="50.0181" y2="28.389" gradientUnits="userSpaceOnUse">
<stop offset="0.2422" stop-color="#21D789"/>
<stop offset="0.4465" stop-color="#59A3B2"/>
<stop offset="0.7668" stop-color="#B74AF7"/>
<stop offset="1" stop-color="#FF45ED"/>
</linearGradient>
<linearGradient id="paint10_linear" x1="6.6366" y1="25.2392" x2="53.9849" y2="25.2392" gradientUnits="userSpaceOnUse">
<stop offset="0.1308" stop-color="#21D789"/>
<stop offset="0.3487" stop-color="#59A3B2"/>
<stop offset="0.6901" stop-color="#B74AF7"/>
<stop offset="1" stop-color="#FF45ED"/>
</linearGradient>
<linearGradient id="paint11_linear" x1="3.8676" y1="16.5911" x2="15.1639" y2="16.5911" gradientUnits="userSpaceOnUse">
<stop offset="0.3086" stop-color="#56D789"/>
<stop offset="0.9587" stop-color="#8DFC77"/>
<stop offset="1" stop-color="#91FF76"/>
</linearGradient>
<linearGradient id="paint12_linear" x1="22.8992" y1="72.0961" x2="26.7897" y2="21.2415" gradientUnits="userSpaceOnUse">
<stop  offset="0" stop-color="#21D789"/>
<stop offset="0.9961" stop-color="#6B57FF" stop-opacity="0"/>
</linearGradient>
<linearGradient id="paint13_linear" x1="7.5085" y1="35.1088" x2="11.0013" y2="50.3276" gradientUnits="userSpaceOnUse">
<stop offset="0.2061" stop-color="#6B57FF"/>
<stop offset="0.3273" stop-color="#6266F1"/>
<stop offset="0.5619" stop-color="#4B8FCC"/>
<stop offset="0.8839" stop-color="#26CF90"/>
<stop offset="0.9206" stop-color="#21D789"/>
</linearGradient>
<linearGradient id="paint14_linear" x1="3.119" y1="42.237" x2="17.6859" y2="53.5942" gradientUnits="userSpaceOnUse">
<stop offset="0.3086" stop-color="#56D789" stop-opacity="0"/>
<stop offset="0.9587" stop-color="#8DFC77" stop-opacity="0.9403"/>
<stop offset="1" stop-color="#91FF76"/>
</linearGradient>
<linearGradient id="paint15_linear" x1="47.4162" y1="29.5422" x2="57.3013" y2="29.5422" gradientUnits="userSpaceOnUse">
<stop offset="0.2609" stop-color="#B74AF7"/>
<stop offset="1" stop-color="#FF45ED"/>
</linearGradient>
<linearGradient id="paint16_linear" x1="55.3509" y1="45.7691" x2="52.2647" y2="41.2015" gradientUnits="userSpaceOnUse">
<stop  offset="0" stop-color="#FF72F1"/>
<stop offset="0.963" stop-color="#B74AF7"/>
</linearGradient>
<linearGradient id="paint17_linear" x1="55.7226" y1="50.02" x2="49.7972" y2="43.4773" gradientUnits="userSpaceOnUse">
<stop offset="0.668" stop-color="#FF72F1"/>
<stop offset="1" stop-color="#B74AF7"/>
</linearGradient>
<linearGradient id="paint18_linear" x1="23.9478" y1="-2.4891" x2="39.2528" y2="23.0695" gradientUnits="userSpaceOnUse">
<stop offset="0.1625" stop-color="#B74AF7" stop-opacity="0.5"/>
<stop offset="0.9989" stop-color="#00FF6A" stop-opacity="0"/>
</linearGradient>
<linearGradient id="paint19_linear" x1="47.1248" y1="28.2993" x2="35.5206" y2="14.2261" gradientUnits="userSpaceOnUse">
<stop offset="0.2973" stop-color="#FF4FFF" stop-opacity="0.96"/>
<stop offset="0.9989" stop-color="#FF45ED" stop-opacity="0"/>
</linearGradient>
<linearGradient id="paint20_linear" x1="28.9222" y1="14.5934" x2="30.1567" y2="7.6802" gradientUnits="userSpaceOnUse">
<stop  offset="0" stop-color="#FF4FFF" stop-opacity="0.96"/>
<stop offset="0.9928" stop-color="#FF45ED" stop-opacity="0"/>
</linearGradient>
<linearGradient id="paint21_linear" x1="43.9074" y1="8.1103" x2="38.1285" y2="14.7881" gradientUnits="userSpaceOnUse">
<stop offset="0.1209" stop-color="#A326F7"/>
<stop offset="0.9516" stop-color="#B74AF7" stop-opacity="0"/>
</linearGradient>
<linearGradient id="paint22_linear" x1="13.5164" y1="13.5164" x2="47.6014" y2="47.6014" gradientUnits="userSpaceOnUse">
<stop offset="0.0284813" stop-color="#007E67"/>
<stop offset="0.1121" stop-color="#005344"/>
<stop offset="0.1976" stop-color="#002F27"/>
<stop offset="0.2776" stop-color="#001511"/>
<stop offset="0.3494" stop-color="#000605"/>
<stop offset="0.4058"/>
<stop offset="0.9138"/>
</linearGradient>
<linearGradient id="paint23_linear" x1="28.2287" y1="53.9776" x2="9.92763" y2="41.4441" gradientUnits="userSpaceOnUse">
<stop offset="0.09839" stop-color="#6B57FF"/>
<stop offset="0.1176" stop-color="#685CFB"/>
<stop offset="0.3447" stop-color="#4A91CA"/>
<stop offset="0.5417" stop-color="#34B7A7"/>
<stop offset="0.6991" stop-color="#26CE91"/>
<stop offset="0.7971" stop-color="#21D789"/>
</linearGradient>
<linearGradient id="paint24_linear" x1="16.86" y1="55.1041" x2="18.0612" y2="39.4027" gradientUnits="userSpaceOnUse">
<stop offset="0.0752688" stop-color="#21D789"/>
<stop offset="0.8874" stop-color="#6B57FF"/>
</linearGradient>
<linearGradient id="paint25_linear" x1="16.2986" y1="35.6624" x2="52.5028" y2="55.6519" gradientUnits="userSpaceOnUse">
<stop  offset="0" stop-color="#34B7A7"/>
<stop offset="0.8874" stop-color="#000069"/>
</linearGradient>
<linearGradient id="paint26_linear" x1="37.9279" y1="45.9172" x2="46.5789" y2="45.9172" gradientUnits="userSpaceOnUse">
<stop offset="0.0266187" stop-color="#4F46C6"/>
<stop offset="1" stop-color="#1F2C61"/>
</linearGradient>
<linearGradient id="paint27_linear" x1="47.3099" y1="25.5902" x2="50" y2="25.5902" gradientUnits="userSpaceOnUse">
<stop offset="0.2609" stop-color="#B74AF7"/>
<stop offset="1" stop-color="#FF45ED"/>
</linearGradient>
<linearGradient id="paint28_linear" x1="39.709" y1="17.5025" x2="40.5714" y2="12.6732" gradientUnits="userSpaceOnUse">
<stop  offset="0" stop-color="#FF4FFF"/>
<stop offset="0.9928" stop-color="#FF75FF"/>
</linearGradient>
<linearGradient id="paint29_linear" x1="20.4312" y1="14.7967" x2="44.8083" y2="44.2652" gradientUnits="userSpaceOnUse">
<stop  offset="0" stop-color="#20D185"/>
<stop offset="0.4429" stop-color="#198767"/>
<stop offset="0.844" stop-color="#12414A"/>
</linearGradient>
</defs>
</svg>
