<svg width="32" height="32" viewBox="0 0 32 32" fill="none" xmlns="http://www.w3.org/2000/svg">
<path d="M28.7001 6L30.5001 17.6L27.1001 19.9L28.7001 6Z" fill="url(#paint0_linear)"/>
<path d="M30.5001 17.5999L27.1001 19.8999L27.7001 14.3999L30.5001 17.5999Z" fill="url(#paint1_linear)"/>
<path d="M28.6999 6L18.2999 1.5L15.3999 3.9L28.6999 6Z" fill="url(#paint2_linear)"/>
<path d="M20.4999 4.7L18.2999 1.5L15.3999 3.9L20.4999 4.7Z" fill="url(#paint3_linear)"/>
<path d="M21.1 30.5002L5.00005 17.7002L1.80005 27.4002L21.1 30.5002Z" fill="url(#paint4_linear)"/>
<path d="M21.1 30.4998L8.20005 24.7998L1.80005 27.3998L21.1 30.4998Z" fill="url(#paint5_linear)"/>
<path d="M23.3 22.3999L1.5 14.8999L21.1 30.4999L23.3 22.3999Z" fill="url(#paint6_linear)"/>
<path d="M23.3 22.3999L21.9 21.8999L19.8 24.6999L21.1 30.4999L23.3 22.3999Z" fill="url(#paint7_linear)"/>
<path d="M19.8 24.6999L1.5 14.8999L18.2 28.1999L21.1 30.4999L19.8 24.6999Z" fill="url(#paint8_linear)"/>
<path d="M1.5 1.7002V14.9002L26.7 23.5002L28.7 6.0002L1.5 1.7002Z" fill="url(#paint9_linear)"/>
<path d="M1.5 1.7002V14.9002L26.7 23.5002L23.7 10.3002L1.5 1.7002Z" fill="url(#paint10_linear)"/>
<path d="M1.5 1.7002V14.9002L7.5 11.3002L1.5 1.7002Z" fill="url(#paint11_linear)"/>
<path d="M8.20005 24.7999L23.8 10.3999L7.30005 11.3999L1.80005 27.3999L8.20005 24.7999Z" fill="url(#paint12_linear)"/>
<path d="M8.20005 24.8002L8.70005 20.6002L5.00005 17.7002L1.80005 27.4002L8.20005 24.8002Z" fill="url(#paint13_linear)"/>
<path d="M8.20005 24.8002L8.70005 20.6002L5.00005 17.7002L1.80005 27.4002L8.20005 24.8002Z" fill="url(#paint14_linear)"/>
<path d="M28.7 6L26.7 23.5L23.7 10.3L28.7 6Z" fill="url(#paint15_linear)"/>
<path d="M26.7 23.4999L27.1 19.8999L26 20.5999L26.7 23.4999Z" fill="url(#paint16_linear)"/>
<path d="M26.7001 23.5001L23.3 22.4001L26 20.6001L26.7001 23.5001Z" fill="url(#paint17_linear)"/>
<path d="M28.7 5.9999L21.5 12.2999L7.19995 11.2999L15.4 3.8999L28.7 5.9999Z" fill="url(#paint18_linear)"/>
<path d="M23.7 10.3002L28.7 6.0002L1.5 1.7002L23.7 10.3002Z" fill="url(#paint19_linear)"/>
<path d="M23.7 10.3002L28.7 6.0002L1.5 1.7002L23.7 10.3002Z" fill="url(#paint20_linear)"/>
<path d="M12.8999 6.0999L23.6999 10.2999L24.0999 9.9999L20.4999 4.6999L15.3999 3.8999L12.8999 6.0999Z" fill="url(#paint21_linear)"/>
<path d="M25 7H7V25H25V7Z" fill="url(#paint22_linear)"/>
<path d="M15.9001 21.3999H9.1001V22.9999H15.9001V21.3999Z" fill="white"/>
<path d="M9 9.18945H11.5987C13.6597 9.18945 15.1831 10.6232 15.1831 12.505C15.1831 14.3869 13.7494 15.8206 11.5987 15.8206H9V9.18945ZM10.5234 10.5336V14.5661H11.6883C12.8532 14.5661 13.6597 13.7596 13.6597 12.5946C13.6597 11.4297 12.8532 10.6232 11.6883 10.6232H10.5234V10.5336Z" fill="white"/>
<path d="M15.7 12.5944C15.7 10.7126 17.2233 9.09961 19.1948 9.09961C20.3597 9.09961 21.1662 9.45805 21.7935 9.99571L20.8974 11.071C20.3597 10.623 19.9116 10.3542 19.1948 10.3542C18.1194 10.3542 17.3129 11.3399 17.3129 12.4152C17.3129 13.6697 18.1194 14.5658 19.374 14.5658C19.9116 14.5658 20.3597 14.4762 20.7181 14.2074V13.3113H19.1948V12.0568H22.0623V14.9243C21.3454 15.4619 20.4493 15.9996 19.1948 15.9996C17.1337 15.9996 15.7 14.5658 15.7 12.5944Z" fill="white"/>
<defs>
<linearGradient id="paint0_linear" x1="28.0672" y1="12.4083" x2="28.9153" y2="19.7913" gradientUnits="userSpaceOnUse">
<stop offset="0.1599" stop-color="#21D789"/>
<stop offset="0.5402" stop-color="#419FBC"/>
<stop offset="1" stop-color="#6B57FF"/>
</linearGradient>
<linearGradient id="paint1_linear" x1="24.3473" y1="16.0726" x2="35.3678" y2="19.953" gradientUnits="userSpaceOnUse">
<stop offset="0.0212475" stop-color="#B74AF7" stop-opacity="0"/>
<stop offset="0.744" stop-color="#8053FD" stop-opacity="0.7385"/>
<stop offset="1" stop-color="#6B57FF"/>
</linearGradient>
<linearGradient id="paint2_linear" x1="20.336" y1="9.2407" x2="22.4811" y2="3.7534" gradientUnits="userSpaceOnUse">
<stop  offset="0" stop-color="#6B57FF"/>
<stop offset="0.9516" stop-color="#21D789"/>
</linearGradient>
<linearGradient id="paint3_linear" x1="20.3733" y1="2.4278" x2="16.8951" y2="4.8651" gradientUnits="userSpaceOnUse">
<stop  offset="0" stop-color="#00FF6A"/>
<stop offset="0.9516" stop-color="#21D789" stop-opacity="0"/>
</linearGradient>
<linearGradient id="paint4_linear" x1="21.0295" y1="34.6243" x2="0.66055" y2="20.6746" gradientUnits="userSpaceOnUse">
<stop offset="0.09839" stop-color="#6B57FF"/>
<stop offset="0.1176" stop-color="#685CFB"/>
<stop offset="0.3447" stop-color="#4A91CA"/>
<stop offset="0.5417" stop-color="#34B7A7"/>
<stop offset="0.6991" stop-color="#26CE91"/>
<stop offset="0.7971" stop-color="#21D789"/>
</linearGradient>
<linearGradient id="paint5_linear" x1="10.5882" y1="19.2646" x2="11.7826" y2="33.1026" gradientUnits="userSpaceOnUse">
<stop offset="0.09839" stop-color="#6B57FF"/>
<stop offset="0.1176" stop-color="#685CFB"/>
<stop offset="0.3447" stop-color="#4A91CA"/>
<stop offset="0.5417" stop-color="#34B7A7"/>
<stop offset="0.6991" stop-color="#26CE91"/>
<stop offset="0.7971" stop-color="#21D789"/>
</linearGradient>
<linearGradient id="paint6_linear" x1="3.3065" y1="16.0032" x2="28.7185" y2="30.034" gradientUnits="userSpaceOnUse">
<stop offset="0.0752688" stop-color="#21D789"/>
<stop offset="0.8874" stop-color="#6B57FF"/>
</linearGradient>
<linearGradient id="paint7_linear" x1="19.76" y1="26.1989" x2="23.3401" y2="26.1989" gradientUnits="userSpaceOnUse">
<stop offset="0.0266187" stop-color="#4F46C6"/>
<stop offset="1" stop-color="#6B57FF"/>
</linearGradient>
<linearGradient id="paint8_linear" x1="2.4082" y1="17.6301" x2="27.8202" y2="31.6609" gradientUnits="userSpaceOnUse">
<stop offset="0.0266187" stop-color="#21D789"/>
<stop offset="0.6999" stop-color="#685CFA"/>
<stop offset="1" stop-color="#6B57FF"/>
</linearGradient>
<linearGradient id="paint9_linear" x1="0.0915541" y1="8.77369" x2="25.0091" y2="14.1947" gradientUnits="userSpaceOnUse">
<stop offset="0.2422" stop-color="#21D789"/>
<stop offset="0.4465" stop-color="#59A3B2"/>
<stop offset="0.7668" stop-color="#B74AF7"/>
<stop offset="1" stop-color="#FF45ED"/>
</linearGradient>
<linearGradient id="paint10_linear" x1="3.3183" y1="12.6198" x2="26.9924" y2="12.6198" gradientUnits="userSpaceOnUse">
<stop offset="0.1308" stop-color="#21D789"/>
<stop offset="0.3487" stop-color="#59A3B2"/>
<stop offset="0.6901" stop-color="#B74AF7"/>
<stop offset="1" stop-color="#FF45ED"/>
</linearGradient>
<linearGradient id="paint11_linear" x1="1.9338" y1="8.2958" x2="7.5819" y2="8.2958" gradientUnits="userSpaceOnUse">
<stop offset="0.3086" stop-color="#56D789"/>
<stop offset="0.9587" stop-color="#8DFC77"/>
<stop offset="1" stop-color="#91FF76"/>
</linearGradient>
<linearGradient id="paint12_linear" x1="11.4496" y1="36.0481" x2="13.3949" y2="10.6208" gradientUnits="userSpaceOnUse">
<stop  offset="0" stop-color="#21D789"/>
<stop offset="0.9961" stop-color="#6B57FF" stop-opacity="0"/>
</linearGradient>
<linearGradient id="paint13_linear" x1="3.75425" y1="17.5547" x2="5.50075" y2="25.1641" gradientUnits="userSpaceOnUse">
<stop offset="0.2061" stop-color="#6B57FF"/>
<stop offset="0.3273" stop-color="#6266F1"/>
<stop offset="0.5619" stop-color="#4B8FCC"/>
<stop offset="0.8839" stop-color="#26CF90"/>
<stop offset="0.9206" stop-color="#21D789"/>
</linearGradient>
<linearGradient id="paint14_linear" x1="1.55955" y1="21.1188" x2="8.84305" y2="26.7974" gradientUnits="userSpaceOnUse">
<stop offset="0.3086" stop-color="#56D789" stop-opacity="0"/>
<stop offset="0.9587" stop-color="#8DFC77" stop-opacity="0.9403"/>
<stop offset="1" stop-color="#91FF76"/>
</linearGradient>
<linearGradient id="paint15_linear" x1="23.7081" y1="14.7711" x2="28.6507" y2="14.7711" gradientUnits="userSpaceOnUse">
<stop offset="0.2609" stop-color="#B74AF7"/>
<stop offset="1" stop-color="#FF45ED"/>
</linearGradient>
<linearGradient id="paint16_linear" x1="27.6755" y1="22.8843" x2="26.1324" y2="20.6005" gradientUnits="userSpaceOnUse">
<stop  offset="0" stop-color="#FF72F1"/>
<stop offset="0.963" stop-color="#B74AF7"/>
</linearGradient>
<linearGradient id="paint17_linear" x1="27.8614" y1="25.01" x2="24.8987" y2="21.7386" gradientUnits="userSpaceOnUse">
<stop offset="0.668" stop-color="#FF72F1"/>
<stop offset="1" stop-color="#B74AF7"/>
</linearGradient>
<linearGradient id="paint18_linear" x1="11.9739" y1="-1.2445" x2="19.6264" y2="11.5348" gradientUnits="userSpaceOnUse">
<stop offset="0.1625" stop-color="#B74AF7" stop-opacity="0.5"/>
<stop offset="0.9989" stop-color="#00FF6A" stop-opacity="0"/>
</linearGradient>
<linearGradient id="paint19_linear" x1="23.5624" y1="14.1499" x2="17.7603" y2="7.1133" gradientUnits="userSpaceOnUse">
<stop offset="0.2973" stop-color="#FF4FFF" stop-opacity="0.96"/>
<stop offset="0.9989" stop-color="#FF45ED" stop-opacity="0"/>
</linearGradient>
<linearGradient id="paint20_linear" x1="14.4611" y1="7.2969" x2="15.0783" y2="3.8404" gradientUnits="userSpaceOnUse">
<stop  offset="0" stop-color="#FF4FFF" stop-opacity="0.96"/>
<stop offset="0.9928" stop-color="#FF45ED" stop-opacity="0"/>
</linearGradient>
<linearGradient id="paint21_linear" x1="21.9536" y1="4.0552" x2="19.0642" y2="7.394" gradientUnits="userSpaceOnUse">
<stop offset="0.1209" stop-color="#A326F7"/>
<stop offset="0.9516" stop-color="#B74AF7" stop-opacity="0"/>
</linearGradient>
<linearGradient id="paint22_linear" x1="6.7582" y1="6.7582" x2="23.8007" y2="23.8007" gradientUnits="userSpaceOnUse">
<stop offset="0.0284813" stop-color="#007E67"/>
<stop offset="0.1121" stop-color="#005344"/>
<stop offset="0.1976" stop-color="#002F27"/>
<stop offset="0.2776" stop-color="#001511"/>
<stop offset="0.3494" stop-color="#000605"/>
<stop offset="0.4058"/>
<stop offset="0.9138"/>
</linearGradient>
</defs>
</svg>
