<svg width="80" height="80" viewBox="0 0 80 80" fill="none" xmlns="http://www.w3.org/2000/svg">
<path d="M50.6 3L54.4 49.7L22.1 67.1L3 18L50.6 3Z" fill="url(#paint0_linear)"/>
<path d="M30.4 45.5L22.1 67.1L3 18L30.4 45.5Z" fill="url(#paint1_linear)"/>
<path d="M50.5999 3L51.9999 28.8H30.8999L21.3999 12.2L50.5999 3Z" fill="url(#paint2_linear)"/>
<path d="M42.7 27.5001L77 20.6001V53.0001L53.4 61.9001L43.7999 53.1001L42.7 27.5001Z" fill="url(#paint3_linear)"/>
<path d="M77 20.6L45.2 54.9L50.5999 3L77 20.6Z" fill="#21D789"/>
<path d="M77 20.6L59.4 16.5L53 62.3L77 53V20.6Z" fill="url(#paint4_linear)"/>
<path d="M28.3 18L52.1 21.7L77 53L53 62.3L43.8 53.1L28.3 18Z" fill="url(#paint5_linear)"/>
<path d="M18.2 3L52.0999 21.7L40.4 77H20.7L3.69995 59.4L18.2 3Z" fill="url(#paint6_linear)"/>
<path d="M30 9.5L15.4 14.1L9.80005 35.6L22.1 67.1L45.7001 52L52 22V21.6L30 9.5Z" fill="url(#paint7_linear)"/>
<path d="M47.0999 22.2002L52.0999 21.7002L47.0999 22.2002Z" fill="url(#paint8_linear)"/>
<path d="M26.2 49.7L35.4 23.4L18.2 3L3.69995 59.4L26.2 49.7Z" fill="url(#paint9_linear)"/>
<path d="M20.6999 77L9.59985 65.5L20.6999 77H40.3999H20.6999Z" fill="url(#paint10_linear)"/>
<path d="M9.80005 35.6001L17.9 56.5001L22.1 67.1001L30.4 45.5001L12 27.1001L9.80005 35.6001Z" fill="url(#paint11_linear)"/>
<path d="M26.2 49.7002L40.4 77.0002H20.7L3.69995 59.4002L26.2 49.7002Z" fill="url(#paint12_linear)"/>
<path d="M26.2 49.7002L40.4 77.0002L52.0999 21.7002L35.4 23.4002L26.2 49.7002Z" fill="url(#paint13_linear)"/>
<path d="M44.9 54.7998L40.4 76.9998H20.7L22.1 66.9998L44.9 54.7998Z" fill="url(#paint14_linear)"/>
<path d="M22.0999 67.1002L32.3999 61.5002L26.1999 49.7002L16.8999 53.7002L22.0999 67.1002Z" fill="url(#paint15_linear)"/>
<path d="M32.3999 61.4998L40.3999 76.9998L44.8999 54.7998L32.3999 61.4998Z" fill="url(#paint16_linear)"/>
<path d="M18.2 3L52.0999 21.7L44.0999 22.5L35.4 23.4L18.2 3Z" fill="url(#paint17_linear)"/>
<path d="M51.6 21.4L30 9.5L25 11.1L35.4 23.4L44.1 22.5L51.6 21.7V21.4Z" fill="url(#paint18_linear)"/>
<path d="M48.6001 21.9999L52.1001 21.6999L48.9001 19.8999L48.6001 21.9999Z" fill="url(#paint19_linear)"/>
<path d="M76.9999 53.0002L52.0999 21.7002L44.0999 22.5002L35.3999 23.4002L76.9999 53.0002Z" fill="url(#paint20_linear)"/>
<path d="M47.6001 32.1002L58.9001 40.2002L63.1001 35.6002L52.1001 21.7002L48.6001 22.0002L47.6001 32.1002Z" fill="url(#paint21_linear)"/>
<path d="M56.3999 38.3998L76.9999 52.9998L57.6999 28.7998L56.3999 38.3998Z" fill="url(#paint22_linear)"/>
<path d="M76.9999 52.9999L52.9999 62.2999L45.1999 54.8999L35.3999 23.3999L76.9999 52.9999Z" fill="url(#paint23_linear)"/>
<path d="M47.5999 32.1001L45.2 54.9001L58.9 40.2001L47.5999 32.1001Z" fill="url(#paint24_linear)"/>
<path d="M53 62.2999L77 52.9999L56.4 38.3999L53 62.2999Z" fill="url(#paint25_linear)"/>
<path d="M45.3 54.5999L45.4001 54.6999L55.6 43.6999L56.4001 38.3999L46.7001 40.5999L45.3 54.5999Z" fill="url(#paint26_linear)"/>
<path d="M52.9999 62.2999L45.1999 54.8999L35.3999 23.3999L52.9999 62.2999Z" fill="url(#paint27_linear)"/>
<path d="M45.2 54.9L53 62.3L46.0999 47L45.2 54.9Z" fill="url(#paint28_linear)"/>
<path d="M50.5999 3L45.2 54.9L55.5999 43.7L59.4 16.5L50.5999 3Z" fill="url(#paint29_linear)"/>
<path d="M77.0001 20.6L59.4001 16.5L50.6001 3L77.0001 20.6Z" fill="url(#paint30_linear)"/>
<path d="M63 17H17V63H63V17Z" fill="url(#paint31_linear)"/>
<g opacity="0.3">
<path opacity="0.3" d="M17 54L20.5 63H28.4L54 49.2L51.4 17H17V54Z" fill="url(#paint32_linear)"/>
<path opacity="0.3" d="M48.6999 17L44.8999 54.4L55.1999 43.2L58.8999 17H48.6999Z" fill="url(#paint33_linear)"/>
<path opacity="0.3" d="M63.0001 17.1L62.6001 17H58.9001L52.6001 61.8L63.0001 57.7V17.1Z" fill="url(#paint34_linear)"/>
<path opacity="0.3" d="M63.0001 42.9L35.1001 23L44.9001 54.4L52.6001 61.8L63.0001 57.7V42.9Z" fill="url(#paint35_linear)"/>
<path opacity="0.3" d="M17 63H42.9L51.7 21.3L43.8 17H17V63Z" fill="url(#paint36_linear)"/>
<path opacity="0.3" d="M17 53L26 49.2L35.1 23L30 17H17V53Z" fill="url(#paint37_linear)"/>
<path opacity="0.3" d="M35.1 23L43.7 22.1L51.7 21.3L51.2 21.1L45 17.6L43.8 17H30L35.1 23Z" fill="url(#paint38_linear)"/>
</g>
<path d="M39.9 54.2998H22.7V57.1998H39.9V54.2998Z" fill="white"/>
<path d="M40 37.5L42.3 34.8C43.9 36.1 45.5 36.9 47.5 36.9C49.1 36.9 50 36.3 50 35.3C50 34.3 49.4 33.8 46.5 33.1C43 32.2 40.7 31.2 40.7 27.8V27.7C40.7 24.6 43.2 22.5 46.8 22.5C49.3 22.5 51.5 23.3 53.2 24.7L51.2 27.6C49.7 26.5 48.2 25.9 46.7 25.9C45.2 25.9 44.5 26.6 44.5 27.4C44.5 28.5 45.2 28.9 48.2 29.7C51.7 30.6 53.7 31.9 53.7 34.9C53.7 38.3 51.1 40.3 47.3 40.3C44.7 40.2 42.1 39.3 40 37.5Z" fill="white"/>
<path d="M22.8 22.7002H29.5C34.9 22.7002 38.7 26.4002 38.7 31.3002C38.7 36.1002 35 39.9002 29.5 39.9002H22.8V22.7002ZM26.6 26.1002V36.5002H29.5C32.6 36.5002 34.7 34.4002 34.7 31.4002C34.7 28.3002 32.6 26.2002 29.5 26.2002H26.6V26.1002Z" fill="white"/>
<defs>
<linearGradient id="paint0_linear" x1="60.4971" y1="35.0541" x2="9.1089" y2="35.0541" gradientUnits="userSpaceOnUse">
<stop offset="0.0782105" stop-color="#21D789"/>
<stop offset="0.8726" stop-color="#FCF84A"/>
</linearGradient>
<linearGradient id="paint1_linear" x1="21.7433" y1="35.5775" x2="14.4093" y2="41.1275" gradientUnits="userSpaceOnUse">
<stop offset="0.0782105" stop-color="white"/>
<stop offset="0.8726" stop-color="#FCF84A"/>
</linearGradient>
<linearGradient id="paint2_linear" x1="41.3733" y1="13.6617" x2="48.8155" y2="2.824" gradientUnits="userSpaceOnUse">
<stop offset="0.095296" stop-color="#BBF8AF" stop-opacity="0"/>
<stop offset="1" stop-color="#21FF79"/>
</linearGradient>
<linearGradient id="paint3_linear" x1="59.8379" y1="24.3628" x2="59.8379" y2="85.5803" gradientUnits="userSpaceOnUse">
<stop stop-color="#21D789"/>
<stop offset="1" stop-color="#087CFA"/>
</linearGradient>
<linearGradient id="paint4_linear" x1="83.3223" y1="49.2224" x2="39.4675" y2="30.6399" gradientUnits="userSpaceOnUse">
<stop offset="0.0202374" stop-color="#21D789" stop-opacity="0"/>
<stop offset="1" stop-color="#00FF6A"/>
</linearGradient>
<linearGradient id="paint5_linear" x1="100.404" y1="80.7183" x2="27.3912" y2="21.6516" gradientUnits="userSpaceOnUse">
<stop offset="0.1049" stop-color="#21D789"/>
<stop offset="0.9668" stop-color="#087CFA"/>
</linearGradient>
<linearGradient id="paint6_linear" x1="66.9794" y1="-2.6959" x2="15.976" y2="55.1081" gradientUnits="userSpaceOnUse">
<stop offset="0.2348" stop-color="#21D789"/>
<stop offset="0.7396" stop-color="#087CFA"/>
</linearGradient>
<linearGradient id="paint7_linear" x1="2.46625" y1="18.2926" x2="31.5045" y2="40.1953" gradientUnits="userSpaceOnUse">
<stop offset="0.0782105" stop-color="#21D789"/>
<stop offset="0.8283" stop-color="#087CFA" stop-opacity="0"/>
</linearGradient>
<linearGradient id="paint8_linear" x1="49.4252" y1="22.1064" x2="50.4875" y2="20.7696" gradientUnits="userSpaceOnUse">
<stop offset="0.0782105" stop-color="#21D789" stop-opacity="0"/>
<stop offset="0.8726" stop-color="#01D0FF"/>
</linearGradient>
<linearGradient id="paint9_linear" x1="13.1168" y1="37.7926" x2="32.4393" y2="13.4773" gradientUnits="userSpaceOnUse">
<stop offset="0.3826" stop-color="#087CFA" stop-opacity="0"/>
<stop offset="1" stop-color="#01EFDB"/>
</linearGradient>
<linearGradient id="paint10_linear" x1="23.8194" y1="72.7629" x2="27.5516" y2="68.0663" gradientUnits="userSpaceOnUse">
<stop offset="0.0782105" stop-color="#21D789" stop-opacity="0"/>
<stop offset="0.8726" stop-color="#01D0FF"/>
</linearGradient>
<linearGradient id="paint11_linear" x1="20.5499" y1="25.478" x2="20.1535" y2="39.4521" gradientUnits="userSpaceOnUse">
<stop offset="0.0782105" stop-color="#21D789"/>
<stop offset="0.8283" stop-color="#087CFA" stop-opacity="0"/>
</linearGradient>
<linearGradient id="paint12_linear" x1="47.5378" y1="35.5104" x2="14.2379" y2="78.2255" gradientUnits="userSpaceOnUse">
<stop offset="0.2348" stop-color="#083FFA"/>
<stop offset="0.7396" stop-color="#087CFA"/>
</linearGradient>
<linearGradient id="paint13_linear" x1="22.479" y1="7.0721" x2="54.8869" y2="64.7523" gradientUnits="userSpaceOnUse">
<stop offset="0.2458" stop-color="#083FFA"/>
<stop offset="0.9131" stop-color="#087CFA"/>
</linearGradient>
<linearGradient id="paint14_linear" x1="22.5765" y1="55.6792" x2="39.2158" y2="72.3185" gradientUnits="userSpaceOnUse">
<stop offset="0.2348" stop-color="#089FFF"/>
<stop offset="0.7396" stop-color="#087CFA" stop-opacity="0"/>
</linearGradient>
<linearGradient id="paint15_linear" x1="33.3069" y1="68.357" x2="22.3144" y2="56.3742" gradientUnits="userSpaceOnUse">
<stop offset="0.1526" stop-color="#0832FF"/>
<stop offset="0.9138" stop-color="#087CFA" stop-opacity="0"/>
</linearGradient>
<linearGradient id="paint16_linear" x1="48.9808" y1="73.4242" x2="35.6038" y2="57.5928" gradientUnits="userSpaceOnUse">
<stop offset="0.1526" stop-color="#0832FF"/>
<stop offset="0.9138" stop-color="#087CFA" stop-opacity="0"/>
</linearGradient>
<linearGradient id="paint17_linear" x1="34.8292" y1="-13.593" x2="35.2983" y2="25.8161" gradientUnits="userSpaceOnUse">
<stop offset="0.2348" stop-color="#21D789"/>
<stop offset="0.8246" stop-color="#087CFA"/>
</linearGradient>
<linearGradient id="paint18_linear" x1="38.1197" y1="14.5671" x2="37.106" y2="5.1905" gradientUnits="userSpaceOnUse">
<stop offset="0.095296" stop-color="#BBF8AF" stop-opacity="0"/>
<stop offset="1" stop-color="#21FF79"/>
</linearGradient>
<linearGradient id="paint19_linear" x1="51.3677" y1="23.0221" x2="48.1291" y2="19.2612" gradientUnits="userSpaceOnUse">
<stop stop-color="#21D789" stop-opacity="0"/>
<stop offset="0.9185" stop-color="#21D789"/>
</linearGradient>
<linearGradient id="paint20_linear" x1="69.0759" y1="57.5616" x2="44.2954" y2="20.3908" gradientUnits="userSpaceOnUse">
<stop offset="0.027928" stop-color="#21D789"/>
<stop offset="0.9294" stop-color="#0860FA"/>
</linearGradient>
<linearGradient id="paint21_linear" x1="55.902" y1="37.863" x2="53.0775" y2="17.0506" gradientUnits="userSpaceOnUse">
<stop offset="0.0757413" stop-color="#087CFA" stop-opacity="0"/>
<stop offset="1" stop-color="#21D789" stop-opacity="0.6"/>
</linearGradient>
<linearGradient id="paint22_linear" x1="63.2137" y1="40.9037" x2="49.537" y2="22.0238" gradientUnits="userSpaceOnUse">
<stop offset="0.0757413" stop-color="#087CFA" stop-opacity="0"/>
<stop offset="1" stop-color="#4F46C6" stop-opacity="0.6"/>
</linearGradient>
<linearGradient id="paint23_linear" x1="65.2231" y1="60.1298" x2="40.4426" y2="22.9591" gradientUnits="userSpaceOnUse">
<stop stop-color="#18AFAF"/>
<stop offset="0.6591" stop-color="#0860FA"/>
<stop offset="0.9983" stop-color="#084CFA"/>
</linearGradient>
<linearGradient id="paint24_linear" x1="53.415" y1="49.6758" x2="43.6034" y2="34.0664" gradientUnits="userSpaceOnUse">
<stop offset="0.0757413" stop-color="#087CFA" stop-opacity="0"/>
<stop offset="1" stop-color="#21D789" stop-opacity="0.6"/>
</linearGradient>
<linearGradient id="paint25_linear" x1="64.8641" y1="57.5523" x2="49.2044" y2="42.9529" gradientUnits="userSpaceOnUse">
<stop offset="0.0757413" stop-color="#087CFA" stop-opacity="0"/>
<stop offset="1" stop-color="#21D789" stop-opacity="0.6"/>
</linearGradient>
<linearGradient id="paint26_linear" x1="49.2694" y1="45.0541" x2="43.8557" y2="40.007" gradientUnits="userSpaceOnUse">
<stop stop-color="#087CFA" stop-opacity="0"/>
<stop offset="0.8547" stop-color="#0841FA"/>
</linearGradient>
<linearGradient id="paint27_linear" x1="54.6061" y1="60.6099" x2="32.7127" y2="27.7698" gradientUnits="userSpaceOnUse">
<stop stop-color="#089CFA"/>
<stop offset="0.7396" stop-color="#083CFA"/>
</linearGradient>
<linearGradient id="paint28_linear" x1="53.0555" y1="62.0519" x2="44.415" y2="49.0912" gradientUnits="userSpaceOnUse">
<stop stop-color="#087CFA" stop-opacity="0"/>
<stop offset="0.9787" stop-color="#0860FA"/>
</linearGradient>
<linearGradient id="paint29_linear" x1="52.3778" y1="26.7067" x2="55.8466" y2="10.8496" gradientUnits="userSpaceOnUse">
<stop offset="0.3551" stop-color="#BBF8AF" stop-opacity="0"/>
<stop offset="1" stop-color="#21FF79"/>
</linearGradient>
<linearGradient id="paint30_linear" x1="48.9788" y1="4.048" x2="69.3948" y2="19.4096" gradientUnits="userSpaceOnUse">
<stop offset="0.0202374" stop-color="#BBF8AF" stop-opacity="0"/>
<stop offset="1" stop-color="#21FF79"/>
</linearGradient>
<linearGradient id="paint31_linear" x1="17.3869" y1="17.3869" x2="64.5714" y2="64.5714" gradientUnits="userSpaceOnUse">
<stop offset="0.0284813" stop-color="#002846"/>
<stop offset="0.1369" stop-color="#002038"/>
<stop offset="0.4947" stop-color="#000910"/>
<stop offset="0.6795"/>
</linearGradient>
<linearGradient id="paint32_linear" x1="12.6043" y1="40" x2="49.5834" y2="40" gradientUnits="userSpaceOnUse">
<stop offset="0.0782105" stop-color="#21D789"/>
<stop offset="0.8726" stop-color="#FCF84A"/>
</linearGradient>
<linearGradient id="paint33_linear" x1="52.449" y1="51.4271" x2="51.0908" y2="13.756" gradientUnits="userSpaceOnUse">
<stop stop-color="#218640"/>
<stop offset="0.8027" stop-color="#B5FA59"/>
</linearGradient>
<linearGradient id="paint34_linear" x1="57.0221" y1="19.6998" x2="59.0484" y2="70.3575" gradientUnits="userSpaceOnUse">
<stop offset="0.2348" stop-color="#21D789"/>
<stop offset="1" stop-color="#083450"/>
</linearGradient>
<linearGradient id="paint35_linear" x1="60.5951" y1="58.6412" x2="37.5704" y2="24.1041" gradientUnits="userSpaceOnUse">
<stop stop-color="#021A43"/>
<stop offset="0.6591" stop-color="#0860FA"/>
</linearGradient>
<linearGradient id="paint36_linear" x1="31.621" y1="3.1454" x2="36.0958" y2="67.6495" gradientUnits="userSpaceOnUse">
<stop offset="0.2348" stop-color="#21D789"/>
<stop offset="0.7396" stop-color="#083450"/>
</linearGradient>
<linearGradient id="paint37_linear" x1="27.6325" y1="53.1147" x2="23.6644" y2="15.7969" gradientUnits="userSpaceOnUse">
<stop offset="0.2268" stop-color="#086C93"/>
<stop offset="0.8196" stop-color="#01EFDB"/>
</linearGradient>
<linearGradient id="paint38_linear" x1="31.6275" y1="17.577" x2="54.291" y2="24.6593" gradientUnits="userSpaceOnUse">
<stop offset="0.2508" stop-color="#21D789"/>
<stop offset="0.8847" stop-color="#0C515A"/>
</linearGradient>
</defs>
</svg>
