<svg width="16" height="16" viewBox="0 0 16 16" xmlns="http://www.w3.org/2000/svg">
  <path fill="#b99bf8" d="M11 12.391c-.803.358-1.751.543-2.854.543-1.481 0-2.658-.44-3.532-1.321-.874-.881-1.311-2.039-1.311-3.474 0-1.455.454-2.667 1.362-3.635.908-.968 2.053-1.453 3.437-1.453 1.442 0 2.569.4 3.382 1.201.813.8 1.22 1.833 1.22 3.098 0 .856-.15 1.554-.451 2.091-.301.538-.63.613-1.086.613-.5 0-.854-.286-.75-1.394.004-.044.114-1.66.342-3.66H9.55c-.058 1-.095 1-.109 1h-.022c-.078 0-.25-.487-.517-.658a1.667 1.667 0 0 0-.91-.278c-.893 0-1.613.32-2.159.982-.547.662-.819 1.488-.819 2.487 0 .755.199 1.354.597 1.8.398.447.922.884 1.573.884 1.019 0 1.704-.217 2.053-1.217h.036c.005 1 .565 1.216 1.682 1.216.864 0 1.546-.194 2.145-.937.6-.742.9-1.746.9-2.904 0-1.582-.552-2.891-1.657-3.874S9.844 2.013 8.16 2.013c-1.796 0-3.272.58-4.427 1.752C2.578 4.938 2 6.411 2 8.192c0 1.732.546 3.132 1.638 4.203S6.17 14 7.956 14c1.207 0 2.217-.168 3.044-.493V12.39ZM8.815 9.298c-.311.504-.733.756-1.267.756a1.07 1.07 0 0 1-.884-.417c-.221-.277-.332-.656-.332-1.136 0-.715.164-1.313.492-1.793.327-.48.758-.72 1.292-.72.777 0 1.165.435 1.165 1.306 0 .831-.155 1.499-.466 2.003Z"/>
</svg>
