<!-- Copyright © 2000–2024 JetBrains s.r.o. -->
<svg width="16" height="16" viewBox="0 0 16 16" xmlns="http://www.w3.org/2000/svg">
  <path fill="#6e6e6e" fill-rule="evenodd" d="M14.18 10 12.7 8.94c.06-.3.09-.62.09-.94s-.03-.64-.09-.94L14.18 6c-.28-.88-.75-1.68-1.36-2.35l-1.66.75c-.47-.42-1.03-.74-1.63-.95l-.18-1.81c-.44-.09-.89-.14-1.36-.14s-.92.05-1.36.14l-.18 1.81c-.61.21-1.16.53-1.63.95l-1.66-.75A6.65 6.65 0 0 0 1.8 6l1.48 1.06c-.06.3-.09.62-.09.94s.03.64.09.94L1.8 10c.28.88.75 1.68 1.36 2.35l1.66-.75c.47.42 1.03.74 1.63.95l.18 1.81c.44.09.89.14 1.36.14s.92-.05 1.36-.14l.18-1.81c.61-.21 1.16-.53 1.63-.95l1.66.75A6.65 6.65 0 0 0 14.18 10M10.3 8a2.3 2.3 0 1 1-4.6 0 2.3 2.3 0 0 1 4.6 0"/>
</svg>
