<svg width="16" height="16" viewBox="0 0 16 16" fill="none" xmlns="http://www.w3.org/2000/svg">
<path d="M14.8539 7.64122C14.5155 6.19562 13.6705 4.77977 12.4453 3.55466C9.58594 0.695258 5.64069 -0.0156236 2.81255 2.81251C-0.0155783 5.64064 0.797642 9.73508 3.53131 12.4688C5.08182 14.0193 7.05502 14.9771 9.00006 14.9883V12C9.00006 11.2597 9.40226 10.6134 10.0001 10.2676V10C10.0001 8.34315 11.3432 7 13.0001 7C13.6998 7 14.3436 7.2396 14.8539 7.64122Z" fill="#253627"/>
<path fill-rule="evenodd" clip-rule="evenodd" d="M15 11V10C15 8.89543 14.1046 8 13 8C11.8954 8 11 8.89543 11 10V11C10.4477 11 10 11.4477 10 12V15C10 15.5523 10.4477 16 11 16H15C15.5523 16 16 15.5523 16 15V12C16 11.4477 15.5523 11 15 11ZM12 10C12 9.44772 12.4477 9 13 9C13.5523 9 14 9.44772 14 10V11H12V10ZM11 15L11 12H15V15H11Z" fill="#CED0D6"/>
<path d="M14.854 7.64127C14.5155 6.19566 13.6705 4.77979 12.4453 3.55466C9.58594 0.695258 5.64069 -0.0156236 2.81255 2.81251C-0.0155783 5.64064 0.797642 9.73508 3.53131 12.4688C5.08181 14.0192 7.05498 14.9771 9 14.9883V13.9883C8.80894 13.987 8.61745 13.9747 8.42606 13.952C6.97423 13.78 5.47758 13.0008 4.23842 11.7616C3.00567 10.5289 2.24263 9.02408 2.08011 7.56533C1.93664 6.27756 2.25426 4.99679 3.18158 3.88859L9.73984 10.4469C9.82148 10.3805 9.90845 10.3205 10 10.2676V10C10 9.78071 10.0235 9.56691 10.0682 9.361L3.88779 3.18058C5.00024 2.24018 6.25426 1.91061 7.51081 2.04508C8.93584 2.19758 10.4348 2.95835 11.7382 4.26177C12.6172 5.14071 13.2562 6.10104 13.6304 7.06635C14.0849 7.16355 14.5013 7.36373 14.854 7.64127Z" fill="#57965C"/>
<rect x="11" y="12" width="4" height="3" fill="#43454A"/>
</svg>
