<svg width="16" height="16" viewBox="0 0 16 16" fill="none" xmlns="http://www.w3.org/2000/svg">
<path d="M14.9162 7.93799C14.6293 6.39005 13.7542 4.86351 12.4453 3.55466C9.58594 0.695258 5.64069 -0.0156236 2.81255 2.81251C-0.0155783 5.64064 0.797642 9.73508 3.53131 12.4688C4.79401 13.7314 6.33703 14.6011 7.91688 14.8865C7.33942 14.0711 7.00006 13.0752 7.00006 12C7.00006 9.23858 9.23864 7 12.0001 7C13.0883 7 14.0954 7.34767 14.9162 7.93799Z" fill="#F2FCF3"/>
<path d="M14.9162 7.93805C14.6293 6.39009 13.7542 4.86352 12.4453 3.55466C9.58594 0.695258 5.64069 -0.0156236 2.81255 2.81251C-0.0155783 5.64064 0.797642 9.73508 3.53131 12.4688C4.79399 13.7314 6.33698 14.601 7.91681 14.8865C7.65979 14.5235 7.44994 14.1249 7.29619 13.6994C6.21753 13.3463 5.15719 12.6804 4.23842 11.7616C3.00567 10.5289 2.24263 9.02408 2.08011 7.56533C1.93664 6.27756 2.25426 4.99679 3.18158 3.88859L8.12857 8.83558C8.34016 8.57703 8.57713 8.34006 8.83569 8.12848L3.88779 3.18058C5.00024 2.24018 6.25426 1.91061 7.51081 2.04508C8.93584 2.19758 10.4348 2.95835 11.7382 4.26177C12.6888 5.21236 13.3587 6.25815 13.7166 7.30247C14.1473 7.45989 14.5503 7.67486 14.9162 7.93805Z" fill="#5FB865"/>
<path d="M12 13C12.5523 13 13 12.5523 13 12C13 11.4477 12.5523 11 12 11C11.4477 11 11 11.4477 11 12C11 12.5523 11.4477 13 12 13Z" fill="#6C707E"/>
<path fill-rule="evenodd" clip-rule="evenodd" d="M13.1216 15.6756C13.0484 15.8707 12.8619 16 12.6534 16H11.3464C11.138 16 10.9515 15.8707 10.8783 15.6756L10.6288 15.0102C10.5449 14.7865 10.3143 14.6534 10.0786 14.6926L9.37765 14.8092C9.17206 14.8434 8.96681 14.7464 8.8626 14.5659L8.2091 13.4341C8.10489 13.2536 8.12357 13.0273 8.25599 12.8664L8.70742 12.3177C8.85925 12.1331 8.85925 11.8669 8.70742 11.6824L8.25597 11.1336C8.12355 10.9727 8.10487 10.7464 8.20908 10.5659L8.86258 9.43405C8.96679 9.25355 9.17204 9.15663 9.37763 9.19083L10.0786 9.30742C10.3143 9.34664 10.5449 9.21353 10.6288 8.98976L10.8783 8.32444C10.9515 8.12929 11.138 8 11.3464 8H12.6534C12.8619 8 13.0484 8.12929 13.1216 8.32444L13.3711 8.98976C13.455 9.21353 13.6856 9.34664 13.9213 9.30742L14.6222 9.19083C14.8278 9.15663 15.0331 9.25355 15.1373 9.43405L15.7908 10.5659C15.895 10.7464 15.8763 10.9727 15.7439 11.1336L15.2925 11.6824C15.1406 11.8669 15.1406 12.1331 15.2925 12.3177L15.7439 12.8664C15.8763 13.0273 15.895 13.2536 15.7908 13.4341L15.1373 14.5659C15.0331 14.7464 14.8278 14.8434 14.6222 14.8092L13.9213 14.6926C13.6856 14.6534 13.455 14.7865 13.3711 15.0102L13.1216 15.6756ZM11.6929 15H12.3069L12.4348 14.6591C12.6865 13.9878 13.3781 13.5885 14.0854 13.7061L14.4445 13.7659L14.7515 13.2341L14.5202 12.953C14.0647 12.3993 14.0647 11.6007 14.5202 11.047L14.7515 10.7659L14.4445 10.2341L14.0854 10.2939C13.3781 10.4115 12.6865 10.0122 12.4348 9.34088L12.3069 9H11.6929L11.5651 9.34088C11.3134 10.0122 10.6217 10.4115 9.91449 10.2939L9.55536 10.2341L9.24836 10.7659L9.47966 11.047C9.93517 11.6007 9.93517 12.3993 9.47966 12.953L9.24838 13.2341L9.55538 13.7659L9.91449 13.7061C10.6217 13.5885 11.3134 13.9878 11.5651 14.6591L11.6929 15Z" fill="#6C707E"/>
<path fill-rule="evenodd" clip-rule="evenodd" d="M12.307 15H11.693L11.5652 14.6591C11.3134 13.9878 10.6218 13.5885 9.91455 13.7061L9.55543 13.7659L9.24843 13.2341L9.47972 12.953C9.93523 12.3993 9.93523 11.6007 9.47972 11.047L9.24841 10.7659L9.55541 10.2341L9.91455 10.2939C10.6218 10.4115 11.3134 10.0122 11.5652 9.34088L11.693 9H12.307L12.4348 9.34088C12.6866 10.0122 13.3782 10.4115 14.0854 10.2939L14.4446 10.2341L14.7516 10.7659L14.5203 11.047C14.0648 11.6007 14.0648 12.3993 14.5203 12.953L14.7516 13.2341L14.4446 13.7659L14.0854 13.7061C13.3782 13.5885 12.6866 13.9878 12.4348 14.6591L12.307 15ZM13.0001 12C13.0001 12.5523 12.5523 13 12.0001 13C11.4478 13 11.0001 12.5523 11.0001 12C11.0001 11.4477 11.4478 11 12.0001 11C12.5523 11 13.0001 11.4477 13.0001 12Z" fill="#EBECF0"/>
</svg>
