<svg width="16" height="16" viewBox="0 0 16 16" fill="none" xmlns="http://www.w3.org/2000/svg">
<path fill-rule="evenodd" clip-rule="evenodd" d="M2.08296 6C2.55904 3.16229 5.027 1 8 1C10.973 1 13.441 3.16229 13.917 6H13C12.4477 6 12 6.44772 12 7V9C12 9.55228 12.4477 10 13 10H14C14.5523 10 15 9.55228 15 9V7C15 3.13401 11.866 0 8 0C4.13401 0 1 3.13401 1 7V9C1 9.55228 1.44772 10 2 10H3C3.55228 10 4 9.55228 4 9V7C4 6.44772 3.55228 6 3 6H2.08296ZM2 7V9H3V7H2ZM14 7H13V9H14V7Z" fill="#CED0D6"/>
<path d="M4.22964 10.5775C4.69854 10.2115 5.00004 9.64094 5.00004 9V7C5.00004 6.11034 4.41915 5.35636 3.61597 5.09664C3.79147 4.81423 4.00648 4.54259 4.26352 4.28556C6.28769 2.26143 9.11141 2.77022 11.158 4.81673C11.3638 5.0226 11.5547 5.23599 11.7294 5.45541C11.284 5.82223 11 6.37795 11 7V9C11 9.88312 11.5724 10.6326 12.3664 10.8976C12.1858 11.1822 11.9645 11.4581 11.7004 11.7223C9.63147 13.7911 6.73451 13.1532 4.77795 11.1967C4.58081 10.9995 4.39761 10.7925 4.22964 10.5775Z" fill="#253627"/>
<path d="M11.7294 5.45541C11.5547 5.23599 11.3638 5.0226 11.158 4.81673C9.11141 2.77022 6.28769 2.26143 4.26352 4.28556C4.00648 4.54259 3.79147 4.81423 3.61597 5.09664C3.94193 5.20205 4.23129 5.38886 4.46006 5.63312C4.51765 5.53978 4.58099 5.44778 4.65027 5.3573L10.6295 11.3365C9.9095 11.8937 9.11226 12.0704 8.3147 11.9759C7.35038 11.8617 6.33565 11.3401 5.48505 10.4895C5.24901 10.2535 5.03901 10.0037 4.85659 9.7452C4.72397 10.0753 4.50585 10.3619 4.22964 10.5775C4.39761 10.7925 4.58081 10.9995 4.77795 11.1967C6.73451 13.1532 9.63147 13.7911 11.7004 11.7223C11.9645 11.4581 12.1858 11.1822 12.3664 10.8976C12.0417 10.7892 11.7541 10.5998 11.5275 10.3534C11.4693 10.4457 11.4052 10.5373 11.3352 10.628L5.35887 4.65169C6.05833 4.11729 6.82642 3.93663 7.59594 4.01898C8.53849 4.11984 9.55387 4.62687 10.4509 5.52384C10.7056 5.77856 10.9296 6.04177 11.1225 6.30944C11.2462 5.97305 11.4578 5.67911 11.7294 5.45541Z" fill="#57965C"/>
<rect x="13" y="7" width="1" height="2" fill="#43454A"/>
<rect x="2" y="7" width="1" height="2" fill="#43454A"/>
</svg>
