<svg width="16" height="16" viewBox="0 0 16 16" fill="none" xmlns="http://www.w3.org/2000/svg">
<path d="M10 9H11.065L14.57 14.375V9H15.59V16H14.495L11 10.625V16H10V9Z" fill="#6C707E"/>
<path d="M14.9274 8C14.6525 6.43085 13.7717 4.88098 12.4453 3.55466C9.58594 0.69526 5.64069 -0.0156217 2.81255 2.81251C-0.0155783 5.64064 0.797642 9.73509 3.53131 12.4688C5.08182 14.0193 7.05502 14.9771 9.00006 14.9883V8H11.6068L13.57 11.0107V8H14.9274Z" fill="#F2FCF3"/>
<path d="M14.9274 8C14.6525 6.43085 13.7717 4.88098 12.4453 3.55466C9.58594 0.69526 5.64069 -0.0156217 2.81255 2.81251C-0.0155783 5.64064 0.797642 9.73509 3.53131 12.4688C5.08181 14.0192 7.05498 14.9771 9 14.9883V13.9883C8.80894 13.987 8.61745 13.9747 8.42606 13.952C6.97423 13.78 5.47758 13.0008 4.23842 11.7616C3.00567 10.5289 2.24263 9.02409 2.08011 7.56533C1.93664 6.27756 2.25426 4.99679 3.18158 3.88859L9 9.70701V8.29279L3.88779 3.18058C5.00024 2.24019 6.25426 1.91062 7.51081 2.04508C8.93584 2.19758 10.4348 2.95836 11.7382 4.26177C12.9009 5.42439 13.6436 6.72942 13.9092 8H14.9274Z" fill="#5FB865"/>
</svg>
