<svg width="16" height="16" viewBox="0 0 16 16" fill="none" xmlns="http://www.w3.org/2000/svg">
<path d="M14.9162 7.93799C14.6293 6.39005 13.7542 4.86351 12.4453 3.55466C9.58594 0.695258 5.64069 -0.0156236 2.81255 2.81251C-0.0155783 5.64064 0.797642 9.73508 3.53131 12.4688C4.79401 13.7314 6.33703 14.6011 7.91688 14.8865C7.33942 14.0711 7.00006 13.0752 7.00006 12C7.00006 9.23857 9.23864 7 12.0001 7C13.0883 7 14.0954 7.34767 14.9162 7.93799Z" fill="#F2FCF3"/>
<path d="M14.9162 7.93804C14.6293 6.39008 13.7542 4.86352 12.4453 3.55466C9.58594 0.695258 5.64069 -0.0156236 2.81255 2.81251C-0.0155783 5.64064 0.797642 9.73508 3.53131 12.4688C4.79399 13.7314 6.33699 14.601 7.91682 14.8865C7.6598 14.5235 7.44995 14.1249 7.29619 13.6994C6.21753 13.3463 5.15719 12.6804 4.23842 11.7616C3.00567 10.5289 2.24263 9.02408 2.08011 7.56533C1.93664 6.27755 2.25426 4.99679 3.18158 3.88859L8.12857 8.83558C8.34016 8.57703 8.57713 8.34006 8.83569 8.12848L3.88779 3.18058C5.00024 2.24018 6.25426 1.91061 7.51081 2.04508C8.93584 2.19758 10.4348 2.95835 11.7382 4.26177C12.6888 5.21235 13.3587 6.25814 13.7166 7.30246C14.1473 7.45989 14.5503 7.67484 14.9162 7.93804Z" fill="#5FB865"/>
<path fill-rule="evenodd" clip-rule="evenodd" d="M16 12C16 9.79086 14.2091 8 12 8C9.79086 8 8 9.79086 8 12C8 14.2091 9.79086 16 12 16C14.2091 16 16 14.2091 16 12ZM10.2635 12.5C10.3098 13.3479 10.4722 14.1134 10.7131 14.7107C9.84445 14.2976 9.20577 13.4792 9.04148 12.5H10.2635ZM11.2652 12.5C11.3134 13.285 11.472 13.955 11.6787 14.4276C11.7975 14.6991 11.9146 14.8652 12 14.9529C12.0854 14.8652 12.2025 14.6991 12.3213 14.4276C12.528 13.955 12.6866 13.285 12.7348 12.5H11.2652ZM12.7348 11.5H11.2652C11.3134 10.715 11.472 10.045 11.6787 9.57239C11.7975 9.30089 11.9146 9.13483 12 9.04713C12.0854 9.13483 12.2025 9.30089 12.3213 9.57239C12.528 10.045 12.6866 10.715 12.7348 11.5ZM13.7365 12.5C13.6902 13.3479 13.5278 14.1134 13.2869 14.7107C14.1556 14.2976 14.7942 13.4792 14.9585 12.5H13.7365ZM14.9585 11.5H13.7365C13.6902 10.6521 13.5278 9.88659 13.2869 9.28925C14.1556 9.70237 14.7942 10.5208 14.9585 11.5ZM10.2635 11.5H9.04148C9.20577 10.5208 9.84445 9.70237 10.7131 9.28925C10.4722 9.88659 10.3098 10.6521 10.2635 11.5Z" fill="#6C707E"/>
<path d="M10.7132 14.7108C10.4722 14.1134 10.3098 13.3479 10.2636 12.5H9.0415C9.20579 13.4792 9.84447 14.2976 10.7132 14.7108Z" fill="#EBECF0"/>
<path d="M11.6787 14.4276C11.472 13.9551 11.3134 13.285 11.2652 12.5H12.7348C12.6866 13.285 12.528 13.9551 12.3213 14.4276C12.2025 14.6991 12.0854 14.8652 12 14.9529C11.9146 14.8652 11.7975 14.6991 11.6787 14.4276Z" fill="#EBECF0"/>
<path d="M11.6787 9.5724C11.472 10.045 11.3134 10.715 11.2652 11.5H12.7348C12.6866 10.715 12.528 10.045 12.3213 9.5724C12.2025 9.30089 12.0854 9.13483 12 9.04713C11.9146 9.13483 11.7975 9.30089 11.6787 9.5724Z" fill="#EBECF0"/>
<path d="M13.2869 14.7108C13.5279 14.1134 13.6902 13.3479 13.7365 12.5H14.9585C14.7943 13.4792 14.1556 14.2976 13.2869 14.7108Z" fill="#EBECF0"/>
<path d="M13.7365 11.5H14.9585C14.7943 10.5208 14.1556 9.70238 13.2869 9.28925C13.5279 9.88659 13.6902 10.6521 13.7365 11.5Z" fill="#EBECF0"/>
<path d="M9.0415 11.5H10.2636C10.3098 10.6521 10.4722 9.88659 10.7132 9.28925C9.84447 9.70238 9.20579 10.5208 9.0415 11.5Z" fill="#EBECF0"/>
</svg>
