<svg width="16" height="16" viewBox="0 0 16 16" fill="none" xmlns="http://www.w3.org/2000/svg">
<path d="M6.55758 5.37077C5.85421 5.40938 5.04269 5.47346 4.19453 5.79954C2.25514 6.54479 1.25485 8.10892 1.04333 9.64326C0.847108 11.0666 1.33173 12.7204 2.68642 13.4201C2.69602 13.4428 2.70767 13.4719 2.72425 13.5133L2.76299 13.6097C2.80421 13.7123 2.90411 13.9611 3.08639 14.1692C3.196 14.2944 3.35669 14.432 3.58005 14.5196C3.8087 14.6092 4.04011 14.6216 4.24942 14.587C4.43594 14.5563 4.62776 14.5348 4.77678 14.5209C4.85025 14.5141 4.911 14.5093 4.95257 14.5063L4.99926 14.5031L5.00728 14.5026C5.49521 14.481 6.04559 14.4983 6.67327 14.5181L6.95908 14.527C7.05418 14.5299 7.1506 14.5327 7.24815 14.5353C7.26166 14.4794 7.27768 14.4234 7.2963 14.3675L7.39316 14.077C7.45457 13.8928 7.5271 13.7146 7.60986 13.543C7.30489 13.5376 7.00288 13.5281 6.70749 13.5187C6.08189 13.4988 5.48598 13.4799 4.95472 13.5039C4.95472 13.5039 4.52243 13.5285 4.08663 13.6004C4.08663 13.6004 4.25148 13.5302 4.46192 13.4575C5.08884 13.2408 5.59497 13.0874 6.0358 12.9538C6.80039 12.7221 7.36857 12.5499 8.02987 12.2102C8.58417 11.9262 9.13784 11.5476 9.65576 11.0991C9.47998 10.9404 9.32037 10.7642 9.17971 10.5732C8.55324 10.9986 7.89512 11.341 7.25648 11.5765C5.84298 12.0972 3.28781 12.6064 3.28781 12.6064L3.18434 12.5512C1.4464 11.7062 1.39817 7.9452 4.55312 6.733C5.33057 6.43407 6.08892 6.39552 6.86938 6.35584C7.47797 6.3249 8.10001 6.29328 8.75504 6.13698C9.08934 6.05762 9.4347 5.94222 9.7787 5.79502C10.1219 5.51283 10.5198 5.29471 10.9541 5.15892C11.7993 4.59701 12.537 3.85232 12.9473 3C13.1871 3.71038 13.4406 4.53484 13.6387 5.40656C14.1246 5.6645 14.5425 6.03358 14.8585 6.47991C14.6511 5.07654 14.2507 3.73425 13.8949 2.68017L13.1103 0.356018L12.0463 2.56628C11.4596 3.78522 9.90936 4.83519 8.52413 5.16403L8.52301 5.1643C7.96333 5.29785 7.43676 5.32505 6.82202 5.35681L6.82091 5.35687C6.73498 5.36131 6.64731 5.36584 6.55758 5.37077Z" fill="#5FB865"/>
<path d="M7.60986 13.543C7.30489 13.5376 7.00288 13.5281 6.70749 13.5187C6.08188 13.4988 5.48599 13.4799 4.95472 13.5039C4.95472 13.5039 4.52243 13.5285 4.08663 13.6004C4.08663 13.6004 4.25148 13.5302 4.46192 13.4575C5.08885 13.2408 5.59499 13.0874 6.03582 12.9538C6.80041 12.7221 7.36857 12.5499 8.02987 12.2102C8.58417 11.9262 9.13784 11.5476 9.65576 11.0991C9.74967 11.1838 9.8482 11.2636 9.95093 11.3379C8.93811 11.7546 8.09687 12.5336 7.60986 13.543Z" fill="#F2FCF3"/>
<path d="M9.17971 10.5732C8.55324 10.9986 7.89512 11.341 7.25648 11.5765C5.92491 12.067 3.58016 12.5466 3.31284 12.6012C3.29639 12.6046 3.28781 12.6064 3.28781 12.6064L3.18434 12.5512C1.4464 11.7062 1.39817 7.9452 4.55312 6.733C5.33057 6.43407 6.08892 6.39552 6.86938 6.35584C7.47797 6.3249 8.10001 6.29328 8.75504 6.13698C9.08934 6.05762 9.4347 5.94222 9.7787 5.79502C8.9979 6.43693 8.49991 7.41031 8.49991 8.5C8.49991 9.27592 8.75241 9.99288 9.17971 10.5732Z" fill="#F2FCF3"/>
<path d="M10.9541 5.15892C11.7993 4.59701 12.537 3.85232 12.9473 3C13.1871 3.71038 13.4406 4.53484 13.6387 5.40656C13.1498 5.14703 12.592 5 11.9999 5C11.6356 5 11.2844 5.05565 10.9541 5.15892Z" fill="#F2FCF3"/>
<path fill-rule="evenodd" clip-rule="evenodd" d="M14.5 8.5C14.5 9.88071 13.3807 11 12 11C10.6193 11 9.5 9.88071 9.5 8.5C9.5 7.11929 10.6193 6 12 6C13.3807 6 14.5 7.11929 14.5 8.5ZM13.5 8.5C13.5 9.32843 12.8284 10 12 10C11.1716 10 10.5 9.32843 10.5 8.5C10.5 7.67157 11.1716 7 12 7C12.8284 7 13.5 7.67157 13.5 8.5Z" fill="#6C707E"/>
<path fill-rule="evenodd" clip-rule="evenodd" d="M11.6623 12C10.1558 12 8.81833 12.964 8.34193 14.3932L8.24508 14.6838C8.02923 15.3313 8.5112 16 9.19376 16H14.8063C15.4889 16 15.9709 15.3313 15.755 14.6838L15.6582 14.3932C15.1818 12.964 13.8443 12 12.3378 12H11.6623ZM9.29062 14.7094C9.6309 13.6886 10.5862 13 11.6623 13H12.3378C13.4138 13 14.3692 13.6886 14.7095 14.7094L14.8063 15H9.19376L9.29062 14.7094Z" fill="#6C707E"/>
<path d="M12.0001 10C12.8285 10 13.5001 9.32843 13.5001 8.5C13.5001 7.67157 12.8285 7 12.0001 7C11.1717 7 10.5001 7.67157 10.5001 8.5C10.5001 9.32843 11.1717 10 12.0001 10Z" fill="#EBECF0"/>
<path d="M11.6624 13C10.5863 13 9.63099 13.6886 9.2907 14.7094L9.19385 15H14.8064L14.7096 14.7094C14.3693 13.6886 13.4139 13 12.3379 13H11.6624Z" fill="#EBECF0"/>
</svg>
