<svg width="16" height="16" viewBox="0 0 16 16" fill="none" xmlns="http://www.w3.org/2000/svg">
<path d="M12.5 6.75C12.5 7.91437 12.1539 8.99791 11.559 9.90335L15.2418 13.5861L13.6861 15.1418L10.0227 11.4784C9.42177 11.8951 8.73752 12.2003 8 12.3637V10.2866C9.45649 9.77182 10.5 8.38277 10.5 6.75C10.5 4.67893 8.82107 3 6.75 3C4.67893 3 3 4.67893 3 6.75C3 6.8481 3.00377 6.94533 3.01116 7.04154L2.15345 6.19482L1.02665 7.30718C1.00902 7.12383 1 6.93797 1 6.75C1 3.57436 3.57436 1 6.75 1C9.92564 1 12.5 3.57436 12.5 6.75Z" fill="#AFB1B3"/>
<path fill-rule="evenodd" clip-rule="evenodd" d="M6.08109 13.0331H7V12.0452H6.08109V11.3688C6.08109 11.2872 6.07006 11.2099 6.05889 11.1317C6.05537 11.107 6.05184 11.0823 6.04864 11.0573H7V10.0694H5.72536C5.47336 9.64407 5.10173 9.34288 4.65309 9.12364L5.52173 8.26614L4.84655 7.59961L3.57 8.86544C3.56517 8.86519 3.55495 8.86424 3.54365 8.86318C3.52667 8.8616 3.50726 8.85979 3.5 8.85979C3.48222 8.85979 3.47487 8.86119 3.46696 8.86269C3.45986 8.86404 3.45231 8.86548 3.43636 8.86607L2.15345 7.59961L1.47827 8.26614L2.37236 9.14814C1.94409 9.36864 1.589 9.65915 1.34591 10.0694H0V11.0573H1.02264C1.01943 11.0823 1.0159 11.107 1.01239 11.1316C1.00122 11.2098 0.990182 11.2872 0.990182 11.3688V12.0452H0V13.0331H0.990182V13.2535C0.990182 13.4714 1.02773 13.8187 1.08118 14.021H0V15.0089H1.56736C2.03445 15.578 2.73955 15.898 3.53564 15.898C4.33173 15.898 5.03682 15.578 5.50391 15.0089H7V14.021H5.99009C6.04355 13.8187 6.08109 13.4714 6.08109 13.2535V13.0331ZM2.46976 11.0573H4.53448V12.0452H2.46976V11.0573ZM4.53448 13.0331H2.46976V14.021H4.53448V13.0331Z" fill="#F4AF3D"/>
</svg>
