<!-- Copyright © 2000–2024 JetBrains s.r.o. -->
<svg width="16" height="16" viewBox="0 0 16 16" xmlns="http://www.w3.org/2000/svg">
  <path fill="#b99bf8" d="M11 12.39c-.8.36-1.75.54-2.85.54-1.48 0-2.66-.44-3.53-1.32-.87-.88-1.31-2.04-1.31-3.47s.45-2.67 1.36-3.64c.91-.97 2.05-1.45 3.44-1.45s2.57.4 3.38 1.2c.81.8 1.22 1.83 1.22 3.1 0 .86-.15 1.55-.45 2.09-.3.54-.63.61-1.09.61-.5 0-.85-.29-.75-1.39 0-.04.11-1.66.34-3.66H9.55c-.06 1-.09 1-.11 1h-.02c-.08 0-.25-.49-.52-.66-.27-.17-.57-.28-.91-.28-.89 0-1.61.32-2.16.98-.55.66-.82 1.49-.82 2.49 0 .76.2 1.35.6 1.8.4.45.92.88 1.57.88 1.02 0 1.7-.22 2.05-1.22h.04c0 1 .57 1.22 1.68 1.22.86 0 1.55-.19 2.15-.94.6-.74.9-1.75.9-2.9 0-1.58-.55-2.89-1.66-3.87-1.1-.98-2.5-1.49-4.18-1.49-1.8 0-3.27.58-4.43 1.75C2.57 4.93 2 6.41 2 8.19s.55 3.13 1.64 4.2 2.53 1.6 4.32 1.6c1.21 0 2.22-.17 3.04-.49v-1.12ZM8.81 9.3c-.31.5-.73.76-1.27.76-.37 0-.66-.14-.88-.42-.22-.28-.33-.66-.33-1.14 0-.72.16-1.31.49-1.79.33-.48.76-.72 1.29-.72.78 0 1.17.44 1.17 1.31s-.16 1.5-.47 2"/>
</svg>
