<svg width="13" height="13" viewBox="0 0 13 13" fill="none" xmlns="http://www.w3.org/2000/svg">
  <path fill-rule="evenodd" clip-rule="evenodd"
        d="M9.87554 1.39589C9.73569 1.15109 9.4753 1 9.19339 1H3.81959C3.53763 1 3.27729 1.15109 3.1374 1.39589L0.44352 6.11018C0.305489 6.35173 0.305489 6.64827 0.44352 6.88982L3.1374 11.6041C3.27729 11.8489 3.53763 12 3.81959 12H9.19339C9.4753 12 9.73569 11.8489 9.87554 11.6041L12.5694 6.88982C12.7075 6.64827 12.7075 6.35173 12.5694 6.11018L9.87554 1.39589ZM7.04154 5.43239C7.32901 5.20945 7.51404 4.86071 7.51404 4.46875C7.51404 3.79565 6.96839 3.25 6.29529 3.25C5.62219 3.25 5.07654 3.79565 5.07654 4.46875V6.56935C4.94947 6.52444 4.81274 6.5 4.67029 6.5C3.99719 6.5 3.45154 7.04565 3.45154 7.71875C3.45154 8.39182 3.99719 8.9375 4.67029 8.9375C4.92883 8.9375 5.16856 8.85698 5.3658 8.71967L7.11023 7.6409C7.10861 7.66664 7.10779 7.6926 7.10779 7.71875C7.10779 8.39182 7.65344 8.9375 8.32654 8.9375C8.99961 8.9375 9.54529 8.39182 9.54529 7.71875C9.54529 7.29236 9.32632 6.91711 8.99474 6.69931L7.04154 5.43239Z"
        fill="#6E6E6E"/>
</svg>
