<svg width="16" height="16" viewBox="0 0 16 16" fill="none" xmlns="http://www.w3.org/2000/svg">
    <path fill-rule="evenodd" clip-rule="evenodd"
          d="M7 6V9H7.649C8.578 9 9 8.493 9 7.515V7.5C9 6.522 8.578 6 7.649 6H7ZM6 5H7.649C9.04 5 10 6.093 10 7.5C10 8.921 9.04 10 7.649 10H6V5Z"
          fill="#231F20" fill-opacity="0.7"/>
    <path fill-rule="evenodd" clip-rule="evenodd"
          d="M2 6V9H2.649C3.578 9 4 8.493 4 7.515V7.5C4 6.522 3.578 6 2.649 6H2ZM1 5H2.649C4.04 5 5 6.093 5 7.5C5 8.921 4.04 10 2.649 10H1V5Z"
          fill="#231F20" fill-opacity="0.7"/>
    <path fill-rule="evenodd" clip-rule="evenodd" d="M11 5H12V9H14.5V10H11V5Z" fill="#231F20" fill-opacity="0.7"/>
</svg>
