<!-- Copyright 2000-2023 JetBrains s.r.o. and contributors. Use of this source code is governed by the Apache 2.0 license. -->
<svg height="12" width="12" viewBox="0 0 12 12" xmlns="http://www.w3.org/2000/svg">
  <g transform="matrix(.768 0 0 .768 1 .5)" fill="#9aa7b0">
    <path d="m5.86 0.00195c-3.31 0.0768-5.94 2.82-5.86 6.14 0.0711 3.07 2.43 5.54 5.41 5.83v-1.29c-2.28-0.285-4.07-2.21-4.12-4.57-0.0603-2.6 2.01-4.76 4.6-4.82 2.46-0.057 4.52 1.79 4.79 4.18h1.29c-0.275-3.12-2.93-5.54-6.12-5.47z"/>
    <path d="m5.92 2.57c-1.89 0.0439-3.39 1.61-3.35 3.51l3.43-0.0795z"/>
  </g>
  <polygon transform="matrix(.592 0 0 .592 2.26 1.95)" points="8 6 15 10.5 8 15" fill="#62B543" fill-rule="evenodd"/>
</svg>
