<svg width="128" height="128" viewBox="0 0 128 128" fill="none" xmlns="http://www.w3.org/2000/svg">
<path d="M90.2 36.2L81.9 0H35.9L0 54.9L10.4 80.1L0 103.2L61.4 114.1L100.2 79.6L90.2 36.2Z" fill="url(#paint0_linear)"/>
<path d="M12.5 56.6999L0 54.8999L10.4 80.0999L0 103.2L24.6 82.9999L12.5 56.6999Z" fill="url(#paint1_linear)"/>
<path d="M12.5 56.6999L0 54.8999L10.4 80.0999L24.6 82.9999L12.5 56.6999Z" fill="url(#paint2_linear)"/>
<path d="M12.6 56.6L81.9 0H35.9L0 54.9L12.6 56.6Z" fill="url(#paint3_linear)"/>
<path d="M12.6 56.6L81.9 0H35.9L0 54.9L12.6 56.6Z" fill="url(#paint4_linear)"/>
<path d="M12.6 56.6L45 30.1L35.9 0L0 54.9L12.6 56.6Z" fill="url(#paint5_linear)"/>
<path d="M12.6 56.6L45 30.1L35.9 0L0 54.9L12.6 56.6Z" fill="url(#paint6_linear)"/>
<path d="M112.8 49.5L128 83.4L101.9 128L85.8 89L112.8 49.5Z" fill="url(#paint7_linear)"/>
<path d="M99.2 70L128 83.4L101.9 128L85.8 89L99.2 70Z" fill="url(#paint8_linear)"/>
<path d="M85.7999 89L101.9 128L61.3999 114.1L85.7999 89Z" fill="url(#paint9_linear)"/>
<path d="M128 27.2L74.3 39.9L0 103.2L47.9 128L85.8 89L128 27.2Z" fill="url(#paint10_linear)"/>
<path d="M31.8 104.7L0 103.2L47.9 128L61.8 113.7L31.8 104.7Z" fill="url(#paint11_linear)"/>
<path d="M31.8 104.7L0 103.2L24.2 82.3999L31.8 104.7Z" fill="url(#paint12_linear)"/>
<path d="M128 27.2L74.3 39.9L112.2 50.4L128 27.2Z" fill="url(#paint13_linear)"/>
<path d="M128 27.2L74.3 39.9L109.8 49.7L128 27.2Z" fill="url(#paint14_linear)"/>
<path d="M98.1999 70.8L90.1999 36.2L74.3 39.9L52.7 58.2999L98.1999 70.8Z" fill="url(#paint15_linear)"/>
<path d="M92.2 44.7999L90.2 36.2L74.3 39.9L92.2 44.7999Z" fill="url(#paint16_linear)"/>
<path d="M24.3 82.6L85.8001 89L112.8 49.5L93 52L24.3 82.6Z" fill="url(#paint17_linear)"/>
<path d="M128 27.2L47.8999 128L85.7999 89L128 27.2Z" fill="url(#paint18_linear)"/>
<path d="M128 27.2L47.8999 128L85.7999 89L128 27.2Z" fill="url(#paint19_linear)"/>
<path d="M104 24H24V104H104V24Z" fill="url(#paint20_linear)"/>
<g opacity="0.3">
<g opacity="0.3">
<path opacity="0.3" d="M74.3 39.9L90.2 36.2L87.4 24H52.5L24 47.3V82.7L74.3 39.9Z" fill="url(#paint21_linear)"/>
</g>
<path opacity="0.3" d="M24 47.3L52.5 24H24V47.3Z" fill="url(#paint22_linear)"/>
<g opacity="0.3">
<path opacity="0.3" d="M88.6001 95.7L92.0001 104L88.6001 95.7Z" fill="url(#paint23_linear)"/>
<path opacity="0.3" d="M99.2 70L104 72.2001V62.3L85.8 89L99.2 70Z" fill="url(#paint24_linear)"/>
</g>
<path opacity="0.3" d="M104 72.2001L99 69.3L85.8 89L92 104H104V72.2001Z" fill="url(#paint25_linear)"/>
<path opacity="0.3" d="M85.7999 89L71.2 104H92L85.7999 89Z" fill="url(#paint26_linear)"/>
<path opacity="0.3" d="M104 32.8999L74.3 39.8999L24 82.6999V104H71.2L85.8 88.9999L104 62.2999V32.8999Z" fill="url(#paint27_linear)"/>
<path opacity="0.3" d="M104 48.0999V32.8999L74.3 39.8999L104 48.0999Z" fill="#08FF6C"/>
</g>
<path d="M64 88.8999H34V93.8999H64V88.8999Z" fill="white"/>
<path d="M31.4004 49.0807C31.4004 40.5111 38.1466 33.5825 47.2632 33.5825C52.7331 33.5825 56.0151 35.0412 59.1147 37.7761L54.9211 42.6991C52.5508 40.6934 50.5452 39.5994 47.0809 39.5994C42.3403 39.5994 38.5113 43.7931 38.5113 48.8983C38.5113 54.3683 42.3403 58.3796 47.6279 58.3796C49.9982 58.3796 52.1861 57.8326 53.8271 56.5562V52.1803H47.0809V46.528H60.2087V59.6559C57.1091 62.2085 52.9155 64.3965 47.4455 64.3965C37.9643 64.5788 31.4004 58.0149 31.4004 49.0807Z" fill="white"/>
<path d="M64 49.0804C64 40.5108 70.7463 33.3999 80.0451 33.3999C89.344 33.3999 95.908 40.3285 95.908 48.898C95.908 57.4676 89.1617 64.3962 79.8628 64.3962C70.5639 64.5785 64 57.6499 64 49.0804ZM88.9794 49.0804C88.9794 43.7928 85.1504 39.5992 79.8628 39.5992C74.5752 39.5992 70.9286 43.7928 70.9286 48.898C70.9286 54.0033 74.7575 58.3793 80.0451 58.3793C85.3327 58.5616 88.9794 54.368 88.9794 49.0804Z" fill="white"/>
<defs>
<linearGradient id="paint0_linear" x1="57.6528" y1="51.6357" x2="88.0381" y2="17.0669" gradientUnits="userSpaceOnUse">
<stop  offset="0" stop-color="#087CFA"/>
<stop offset="0.0225255" stop-color="#0D7BFA"/>
<stop offset="0.3726" stop-color="#5566F9"/>
<stop offset="0.6634" stop-color="#8A57F8"/>
<stop offset="0.8808" stop-color="#AB4EF7"/>
<stop offset="1" stop-color="#B74AF7"/>
</linearGradient>
<linearGradient id="paint1_linear" x1="-0.0430505" y1="79.0359" x2="33.376" y2="77.5829" gradientUnits="userSpaceOnUse">
<stop offset="0.1204" stop-color="#2D58F9"/>
<stop offset="0.9461" stop-color="#B74AF7"/>
</linearGradient>
<linearGradient id="paint2_linear" x1="6.1219" y1="51.679" x2="18.3443" y2="85.8461" gradientUnits="userSpaceOnUse">
<stop offset="0.0852751" stop-color="#086AFA"/>
<stop offset="0.4762" stop-color="#087CFA"/>
<stop offset="0.6849" stop-color="#466AF9"/>
<stop offset="0.8976" stop-color="#8059F8"/>
<stop offset="1" stop-color="#9653F8"/>
</linearGradient>
<linearGradient id="paint3_linear" x1="4.4986" y1="44.4789" x2="74.7876" y2="-13.0056" gradientUnits="userSpaceOnUse">
<stop  offset="0" stop-color="#087CFA"/>
<stop offset="0.0188132" stop-color="#0D7BFA"/>
<stop offset="0.3112" stop-color="#5566F9"/>
<stop offset="0.5541" stop-color="#8A57F8"/>
<stop offset="0.7356" stop-color="#AB4EF7"/>
<stop offset="0.8352" stop-color="#B74AF7"/>
<stop offset="0.9797" stop-color="#DB5CFF"/>
</linearGradient>
<linearGradient id="paint4_linear" x1="36.8266" y1="24.2218" x2="51.0649" y2="35.409" gradientUnits="userSpaceOnUse">
<stop offset="0.5234" stop-color="#B74AF7" stop-opacity="0"/>
<stop offset="0.9263" stop-color="#D66EFF"/>
</linearGradient>
<linearGradient id="paint5_linear" x1="1.657" y1="46.7808" x2="59.205" y2="-0.2837" gradientUnits="userSpaceOnUse">
<stop  offset="0" stop-color="#087CFA"/>
<stop offset="0.0163189" stop-color="#0D7BFA"/>
<stop offset="0.2699" stop-color="#5566F9"/>
<stop offset="0.4806" stop-color="#8A57F8"/>
<stop offset="0.6381" stop-color="#AB4EF7"/>
<stop offset="0.7245" stop-color="#B74AF7"/>
<stop offset="0.9526" stop-color="#DB5CFF"/>
</linearGradient>
<linearGradient id="paint6_linear" x1="6.0692" y1="62.8177" x2="16.9816" y2="47.6616" gradientUnits="userSpaceOnUse">
<stop  offset="0" stop-color="#8F99FF"/>
<stop offset="1" stop-color="#B74AF7" stop-opacity="0"/>
</linearGradient>
<linearGradient id="paint7_linear" x1="126.041" y1="72.9131" x2="76.0471" y2="115.216" gradientUnits="userSpaceOnUse">
<stop  offset="0" stop-color="#087CFA"/>
<stop offset="0.0225255" stop-color="#0D7BFA"/>
<stop offset="0.3726" stop-color="#5566F9"/>
<stop offset="0.6634" stop-color="#8A57F8"/>
<stop offset="0.8808" stop-color="#AB4EF7"/>
<stop offset="1" stop-color="#B74AF7"/>
</linearGradient>
<linearGradient id="paint8_linear" x1="124.556" y1="95.3747" x2="78.9879" y2="102.267" gradientUnits="userSpaceOnUse">
<stop offset="0.003297" stop-color="#2D58F9"/>
<stop offset="0.8129" stop-color="#B74AF7"/>
</linearGradient>
<linearGradient id="paint9_linear" x1="99.9258" y1="103.044" x2="82.0725" y2="119.018" gradientUnits="userSpaceOnUse">
<stop  offset="0" stop-color="#C386F7"/>
<stop offset="0.8129" stop-color="#B74AF7"/>
</linearGradient>
<linearGradient id="paint10_linear" x1="17.7825" y1="111.818" x2="110.116" y2="52.4843" gradientUnits="userSpaceOnUse">
<stop  offset="0" stop-color="#087CFA"/>
<stop offset="0.1021" stop-color="#1598D3"/>
<stop offset="0.2248" stop-color="#23B6AA"/>
<stop offset="0.3455" stop-color="#2DCC8B"/>
<stop offset="0.4619" stop-color="#35DD74"/>
<stop offset="0.5723" stop-color="#39E767"/>
<stop offset="0.6701" stop-color="#3BEA62"/>
</linearGradient>
<linearGradient id="paint11_linear" x1="23.0039" y1="116.537" x2="66.0373" y2="74.0818" gradientUnits="userSpaceOnUse">
<stop  offset="0" stop-color="#087CFA"/>
<stop offset="0.1021" stop-color="#1598D3"/>
<stop offset="0.2248" stop-color="#23B6AA"/>
<stop offset="0.3455" stop-color="#2DCC8B"/>
<stop offset="0.4619" stop-color="#35DD74"/>
<stop offset="0.5723" stop-color="#39E767"/>
<stop offset="0.6701" stop-color="#3BEA62"/>
</linearGradient>
<linearGradient id="paint12_linear" x1="12.5478" y1="107.24" x2="49.9508" y2="70.3388" gradientUnits="userSpaceOnUse">
<stop offset="0.1708" stop-color="#087CFA"/>
<stop offset="0.4017" stop-color="#19A1C8"/>
<stop offset="0.6796" stop-color="#2BC891"/>
<stop offset="0.8874" stop-color="#37E16F"/>
<stop offset="1" stop-color="#3BEA62"/>
</linearGradient>
<linearGradient id="paint13_linear" x1="83.7718" y1="53.9836" x2="121.161" y2="19.0869" gradientUnits="userSpaceOnUse">
<stop offset="0.4926" stop-color="#00FA45"/>
<stop offset="0.8682" stop-color="#B5FF91"/>
</linearGradient>
<linearGradient id="paint14_linear" x1="93.935" y1="29.3879" x2="116.093" y2="42.1286" gradientUnits="userSpaceOnUse">
<stop offset="0.175" stop-color="#00FA45" stop-opacity="0"/>
<stop offset="0.8682" stop-color="#A0FF5E"/>
</linearGradient>
<linearGradient id="paint15_linear" x1="99.948" y1="38.3333" x2="74.3437" y2="65.7546" gradientUnits="userSpaceOnUse">
<stop  offset="0" stop-color="#7165DF"/>
<stop offset="0.0682475" stop-color="#6475D9"/>
<stop offset="0.2346" stop-color="#4897CD"/>
<stop offset="0.3197" stop-color="#44B2AA"/>
<stop offset="0.4142" stop-color="#40CA8B"/>
<stop offset="0.506" stop-color="#3DDC74"/>
<stop offset="0.593" stop-color="#3CE667"/>
<stop offset="0.6701" stop-color="#3BEA62"/>
</linearGradient>
<linearGradient id="paint16_linear" x1="90.7084" y1="34.3968" x2="82.4032" y2="43.2913" gradientUnits="userSpaceOnUse">
<stop offset="0.3832" stop-color="#59C1DB"/>
<stop offset="0.4687" stop-color="#4FCEB4"/>
<stop offset="0.5786" stop-color="#44DD88"/>
<stop offset="0.664" stop-color="#3EE76C"/>
<stop offset="0.7139" stop-color="#3BEA62"/>
</linearGradient>
<linearGradient id="paint17_linear" x1="49.2205" y1="59.6666" x2="131.678" y2="86.9104" gradientUnits="userSpaceOnUse">
<stop  offset="0" stop-color="#1CA7BE"/>
<stop offset="0.3751" stop-color="#2FCF87"/>
<stop offset="0.6552" stop-color="#3BEA62"/>
<stop offset="0.8574" stop-color="#5FFF58"/>
</linearGradient>
<linearGradient id="paint18_linear" x1="45.5795" y1="79.9017" x2="105.516" y2="76.6324" gradientUnits="userSpaceOnUse">
<stop offset="0.2959" stop-color="#1CA7BE"/>
<stop offset="0.3429" stop-color="#23B5AA"/>
<stop offset="0.4312" stop-color="#2DCC8B"/>
<stop offset="0.5168" stop-color="#35DD74"/>
<stop offset="0.5981" stop-color="#39E767"/>
<stop offset="0.6701" stop-color="#3BEA62"/>
<stop offset="1" stop-color="#7EEF5A"/>
</linearGradient>
<linearGradient id="paint19_linear" x1="112.221" y1="12.6391" x2="89.5181" y2="73.4495" gradientUnits="userSpaceOnUse">
<stop offset="0.124" stop-color="#1CA563"/>
<stop offset="0.3268" stop-color="#29C163" stop-opacity="0.7473"/>
<stop offset="0.5412" stop-color="#33D862" stop-opacity="0.48"/>
<stop offset="0.7453" stop-color="#39E562" stop-opacity="0.2256"/>
<stop offset="0.9263" stop-color="#3BEA62" stop-opacity="0"/>
</linearGradient>
<linearGradient id="paint20_linear" x1="24.3126" y1="24.3126" x2="107.031" y2="107.031" gradientUnits="userSpaceOnUse">
<stop  offset="0" stop-color="#006396"/>
<stop offset="0.0339724" stop-color="#005682"/>
<stop offset="0.121" stop-color="#003754"/>
<stop offset="0.2043" stop-color="#001F2F"/>
<stop offset="0.2818" stop-color="#000E15"/>
<stop offset="0.3512" stop-color="#000406"/>
<stop offset="0.4058"/>
<stop offset="0.9138"/>
</linearGradient>
<linearGradient id="paint21_linear" x1="55.4416" y1="43.5827" x2="75.3" y2="20.9902" gradientUnits="userSpaceOnUse">
<stop  offset="0" stop-color="#083268"/>
<stop offset="0.0225255" stop-color="#0D336C"/>
<stop offset="0.3726" stop-color="#553DA7"/>
<stop offset="0.6634" stop-color="#8A44D2"/>
<stop offset="0.8808" stop-color="#AB48ED"/>
<stop offset="1" stop-color="#B74AF7"/>
</linearGradient>
<linearGradient id="paint22_linear" x1="31.4335" y1="30.281" x2="40.2545" y2="37.2118" gradientUnits="userSpaceOnUse">
<stop  offset="0" stop-color="#087CFA"/>
<stop offset="0.0225255" stop-color="#0D7BFA"/>
<stop offset="0.3726" stop-color="#5566F9"/>
<stop offset="0.6634" stop-color="#8A57F8"/>
<stop offset="0.8808" stop-color="#AB4EF7"/>
<stop offset="1" stop-color="#B74AF7"/>
</linearGradient>
<linearGradient id="paint23_linear" x1="91.1654" y1="99.1067" x2="88.8314" y2="101.082" gradientUnits="userSpaceOnUse">
<stop  offset="0" stop-color="#087CFA"/>
<stop offset="0.0225255" stop-color="#0D7BFA"/>
<stop offset="0.3726" stop-color="#5566F9"/>
<stop offset="0.6634" stop-color="#8A57F8"/>
<stop offset="0.8808" stop-color="#AB4EF7"/>
<stop offset="1" stop-color="#B74AF7"/>
</linearGradient>
<linearGradient id="paint24_linear" x1="104.773" y1="67.294" x2="78.4217" y2="89.5912" gradientUnits="userSpaceOnUse">
<stop  offset="0" stop-color="#087CFA"/>
<stop offset="0.0225255" stop-color="#0D7BFA"/>
<stop offset="0.3726" stop-color="#5566F9"/>
<stop offset="0.6634" stop-color="#8A57F8"/>
<stop offset="0.8808" stop-color="#AB4EF7"/>
<stop offset="1" stop-color="#B74AF7"/>
</linearGradient>
<linearGradient id="paint25_linear" x1="103.602" y1="86.3499" x2="81.6625" y2="89.6685" gradientUnits="userSpaceOnUse">
<stop offset="0.003297" stop-color="#103964"/>
<stop offset="0.8129" stop-color="#B74AF7"/>
</linearGradient>
<linearGradient id="paint26_linear" x1="91.4265" y1="94.2262" x2="80.7444" y2="103.784" gradientUnits="userSpaceOnUse">
<stop  offset="0" stop-color="#3A3531"/>
<stop offset="0.8129" stop-color="#B74AF7"/>
</linearGradient>
<linearGradient id="paint27_linear" x1="59.3489" y1="97.0195" x2="72.1991" y2="29.367" gradientUnits="userSpaceOnUse">
<stop  offset="0" stop-color="#235B5E"/>
<stop offset="0.1291" stop-color="#24635E"/>
<stop offset="0.3263" stop-color="#28785F"/>
<stop offset="0.5673" stop-color="#2E9B60"/>
<stop offset="0.84" stop-color="#36CB61"/>
<stop offset="1" stop-color="#3BEA62"/>
</linearGradient>
</defs>
</svg>
