<svg width="80" height="80" viewBox="0 0 80 80" fill="none" xmlns="http://www.w3.org/2000/svg">
<path d="M64.5 3L43.4001 10.6L26.7 3L17.3 25.6L17.6 57.7L69 58.2L77 17.5L64.5 3Z" fill="url(#paint0_linear)"/>
<path d="M16.8999 51L71.7999 19.8L64.4999 3L43.3999 10.6L26.6999 3L16.8999 24.9V51Z" fill="url(#paint1_linear)"/>
<path d="M16.8999 51L71.7999 19.8L64.4999 3L43.3999 10.6L16.8999 51Z" fill="url(#paint2_linear)"/>
<path d="M76.6999 17.4L64.4999 3L43.3999 10.6L76.6999 17.4Z" fill="url(#paint3_linear)"/>
<path d="M71.8 19.8L69 58.2L77 17.5L71.8 19.8Z" fill="url(#paint4_linear)"/>
<path d="M64.5 3L71.8 19.8L77 17.5L64.5 3Z" fill="url(#paint5_linear)"/>
<path d="M59.3001 26.9L30.1001 9.5L62.2001 49.6L59.3001 26.9Z" fill="url(#paint6_linear)"/>
<path d="M61.5 71.4L57.2 63.1L62.2 49.6L30.1 9.5L3 16.1V55L18.6 77L61.5 71.4Z" fill="url(#paint7_linear)"/>
<path d="M24.9 57.8L3 16.1V55L18.6 77L24.9 57.8Z" fill="url(#paint8_linear)"/>
<path d="M24.9 57.8L28.3 48.5L3 55L18.6 77L24.9 57.8Z" fill="url(#paint9_linear)"/>
<path d="M24.9 57.8L3 16.1V55L18.6 77L24.9 57.8Z" fill="url(#paint10_linear)"/>
<path d="M24.9001 57.9L18.6001 77L61.5001 71.4L24.9001 57.9Z" fill="url(#paint11_linear)"/>
<path d="M24.8999 57.9L57.1999 63.1L61.4999 71.4L24.8999 57.9Z" fill="url(#paint12_linear)"/>
<path d="M18.6001 77L57.2001 63.1L61.5001 71.4L18.6001 77Z" fill="url(#paint13_linear)"/>
<path d="M61.5 71.4L57.2 63.1L48 66.4L61.5 71.4Z" fill="url(#paint14_linear)"/>
<path d="M30.0999 9.5L13.8999 37L24.8999 57.8L58.9999 58.1L62.1999 49.6L30.0999 9.5Z" fill="url(#paint15_linear)"/>
<path d="M24.8999 57.9L57.1999 63.1L62.1999 49.6L24.8999 57.9Z" fill="url(#paint16_linear)"/>
<path d="M3 16.1V54.9V55L3.2 55.2L14 37.1L3 16.1Z" fill="url(#paint17_linear)"/>
<path d="M30.1 9.5L3 16.1L13.9 37L30.1 9.5Z" fill="url(#paint18_linear)"/>
<path d="M23 11.3L12.5 34.3L13.9 37L30.1 9.5L23 11.3Z" fill="url(#paint19_linear)"/>
<path d="M16.8 32.3V42.4L20.3 49.1L48.6 32.6L30.1 9.5L16.8 32.3Z" fill="url(#paint20_linear)"/>
<path d="M63 17H17V63H63V17Z" fill="url(#paint21_linear)"/>
<g opacity="0.3">
<path opacity="0.3" d="M63 17H21L17 25.7V63H63V17Z" fill="url(#paint22_linear)"/>
<path opacity="0.3" d="M17 63H57.1L62 49.5L36 17H17V63Z" fill="url(#paint23_linear)"/>
<path opacity="0.3" d="M17 25V51L63 24.8V17H20.6L17 25Z" fill="url(#paint24_linear)"/>
<path opacity="0.3" d="M63 17H21L17 25.7V63H63V17Z" fill="url(#paint25_linear)"/>
<path opacity="0.3" d="M56.9001 63L51.2001 52.4L25.2 57.3L23.3 63H56.9001Z" fill="url(#paint26_linear)"/>
<path opacity="0.3" d="M62 49.5L59.2 27L42.4 17H36L62 49.5Z" fill="url(#paint27_linear)"/>
<path opacity="0.3" d="M25.8 17H17V32.1L25.8 17Z" fill="url(#paint28_linear)"/>
<path opacity="0.3" d="M17 24.8V32.1L17.9 30.6L25.8 17H20.6L17 24.8Z" fill="url(#paint29_linear)"/>
</g>
<path d="M39.9 54.3H22.7V57.2001H39.9V54.3Z" fill="white"/>
<path d="M40 54.3H22.8V57.2H40V54.3Z" fill="white"/>
<path d="M39.9001 22.7H44.0001L48.5001 30L53.1001 22.7H57.2001V40H53.4001V28.7L48.5001 36.1H48.4001L43.6001 28.8V40H39.9001V22.7Z" fill="white"/>
<path d="M22.8 22.7H30.7C32.9 22.7 34.6 23.3 35.7 24.5C36.7 25.5 37.2 26.8 37.2 28.4V28.5C37.2 29.9 36.9 31 36.2 31.9C35.5 32.8 34.6 33.4 33.5 33.8L37.7 40H33.3L29.7 34.7H26.6V40H22.8V22.7ZM30.5 31.1C31.4 31.1 32.2 30.9 32.7 30.4C33.2 30 33.5 29.4 33.5 28.6C33.5 27.8 33.2 27.2 32.7 26.7C32.2 26.3 31.4 26.1 30.5 26.1H26.6V31.1H30.5Z" fill="white"/>
<defs>
<linearGradient id="paint0_linear" x1="50.4414" y1="45.8008" x2="41.0907" y2="21.2552" gradientUnits="userSpaceOnUse">
<stop stop-color="#FE2857"/>
<stop offset="0.0562257" stop-color="#FE3052"/>
<stop offset="0.3252" stop-color="#FD533B"/>
<stop offset="0.5796" stop-color="#FC6C2A"/>
<stop offset="0.8114" stop-color="#FC7B20"/>
<stop offset="1" stop-color="#FC801D"/>
</linearGradient>
<linearGradient id="paint1_linear" x1="44.3119" y1="34.5674" x2="43.8092" y2="6.6189" gradientUnits="userSpaceOnUse">
<stop offset="0.3737" stop-color="#FEB51A"/>
<stop offset="0.4306" stop-color="#FEAD1A"/>
<stop offset="0.6448" stop-color="#FD941C"/>
<stop offset="0.8406" stop-color="#FC851D"/>
<stop offset="1" stop-color="#FC801D"/>
</linearGradient>
<linearGradient id="paint2_linear" x1="65.7461" y1="50.4475" x2="30.9596" y2="17.8908" gradientUnits="userSpaceOnUse">
<stop offset="0.3737" stop-color="#FEB51A"/>
<stop offset="0.417" stop-color="#FEAD1A"/>
<stop offset="0.5802" stop-color="#FD941C"/>
<stop offset="0.7294" stop-color="#FC851D"/>
<stop offset="0.8508" stop-color="#FC801D"/>
<stop offset="0.9836" stop-color="#F26522"/>
</linearGradient>
<linearGradient id="paint3_linear" x1="54.3879" y1="3.1932" x2="60.5121" y2="14.8947" gradientUnits="userSpaceOnUse">
<stop offset="0.0238963" stop-color="#FDB60D"/>
<stop offset="1" stop-color="#FF9600" stop-opacity="0"/>
</linearGradient>
<linearGradient id="paint4_linear" x1="74.4372" y1="57.1219" x2="71.6127" y2="18.9162" gradientUnits="userSpaceOnUse">
<stop offset="0.0133474" stop-color="#EE2A7B"/>
<stop offset="0.7157" stop-color="#FE2857"/>
<stop offset="0.9859" stop-color="#FC801D"/>
</linearGradient>
<linearGradient id="paint5_linear" x1="83.159" y1="30.1504" x2="63.8332" y2="4.7294" gradientUnits="userSpaceOnUse">
<stop stop-color="#FE2857"/>
<stop offset="0.1736" stop-color="#FE2C54"/>
<stop offset="0.1983" stop-color="#FE3051"/>
<stop offset="0.4268" stop-color="#FD533B"/>
<stop offset="0.6429" stop-color="#FC6C2A"/>
<stop offset="0.8398" stop-color="#FC7B20"/>
<stop offset="1" stop-color="#FC801D"/>
</linearGradient>
<linearGradient id="paint6_linear" x1="34.0642" y1="7.9537" x2="63.3503" y2="41.2536" gradientUnits="userSpaceOnUse">
<stop stop-color="#6B57FF"/>
<stop offset="1" stop-color="#FE2857"/>
</linearGradient>
<linearGradient id="paint7_linear" x1="2.6748" y1="15.3627" x2="50.2399" y2="75.8268" gradientUnits="userSpaceOnUse">
<stop offset="0.0417113" stop-color="#7D11EF"/>
<stop offset="0.1162" stop-color="#A019CB"/>
<stop offset="0.2019" stop-color="#C220A8"/>
<stop offset="0.283" stop-color="#DA268F"/>
<stop offset="0.3569" stop-color="#E92980"/>
<stop offset="0.417" stop-color="#EE2A7B"/>
<stop offset="1" stop-color="#F26522"/>
</linearGradient>
<linearGradient id="paint8_linear" x1="-7.3282" y1="23.5084" x2="27.0371" y2="67.1932" gradientUnits="userSpaceOnUse">
<stop offset="0.00149909" stop-color="#6B57FF"/>
<stop offset="0.2483" stop-color="#FE2857"/>
<stop offset="0.6853" stop-color="#FE2857"/>
</linearGradient>
<linearGradient id="paint9_linear" x1="15.9338" y1="39.9256" x2="15.1621" y2="71.9539" gradientUnits="userSpaceOnUse">
<stop offset="0.00149909" stop-color="#FDB60D"/>
<stop offset="0.725" stop-color="#FE2857" stop-opacity="0"/>
</linearGradient>
<linearGradient id="paint10_linear" x1="21.8814" y1="41.0669" x2="11.0548" y2="46.4255" gradientUnits="userSpaceOnUse">
<stop offset="0.0238963" stop-color="#FF7100"/>
<stop offset="1" stop-color="#FF9600" stop-opacity="0"/>
</linearGradient>
<linearGradient id="paint11_linear" x1="31.1393" y1="46.7863" x2="42.1571" y2="80.7579" gradientUnits="userSpaceOnUse">
<stop offset="0.3361" stop-color="#FE2857"/>
<stop offset="0.3527" stop-color="#FE3052"/>
<stop offset="0.4321" stop-color="#FD533B"/>
<stop offset="0.5072" stop-color="#FC6C2A"/>
<stop offset="0.5757" stop-color="#FC7B20"/>
<stop offset="0.6313" stop-color="#FC801D"/>
<stop offset="0.9964" stop-color="#FFDE17"/>
</linearGradient>
<linearGradient id="paint12_linear" x1="35.5167" y1="41.0831" x2="48.6767" y2="81.66" gradientUnits="userSpaceOnUse">
<stop offset="0.2209" stop-color="#EE2A7B"/>
<stop offset="0.6985" stop-color="#F7941D"/>
</linearGradient>
<linearGradient id="paint13_linear" x1="36.9129" y1="64.5883" x2="41.9298" y2="80.057" gradientUnits="userSpaceOnUse">
<stop offset="0.092793" stop-color="#F15A29"/>
<stop offset="0.3888" stop-color="#FC801D"/>
<stop offset="1" stop-color="#FEC519"/>
</linearGradient>
<linearGradient id="paint14_linear" x1="34.3298" y1="72.2895" x2="63.3682" y2="66.4422" gradientUnits="userSpaceOnUse">
<stop offset="0.092793" stop-color="#F15A29"/>
<stop offset="0.3888" stop-color="#FC801D"/>
<stop offset="0.8214" stop-color="#FEC519"/>
<stop offset="0.9894" stop-color="#FCF84A"/>
</linearGradient>
<linearGradient id="paint15_linear" x1="24.4725" y1="68.0289" x2="50.9792" y2="22.8116" gradientUnits="userSpaceOnUse">
<stop offset="0.0417113" stop-color="#7D11EF"/>
<stop offset="0.1162" stop-color="#A019CB"/>
<stop offset="0.2019" stop-color="#C220A8"/>
<stop offset="0.283" stop-color="#DA268F"/>
<stop offset="0.3569" stop-color="#E92980"/>
<stop offset="0.417" stop-color="#EE2A7B"/>
</linearGradient>
<linearGradient id="paint16_linear" x1="40.5339" y1="44.5663" x2="48.6771" y2="69.6745" gradientUnits="userSpaceOnUse">
<stop stop-color="#F7941D" stop-opacity="0"/>
<stop offset="0.5473" stop-color="#FB851D" stop-opacity="0.5473"/>
<stop offset="1" stop-color="#FC801D"/>
</linearGradient>
<linearGradient id="paint17_linear" x1="-6.5658" y1="18.0591" x2="12.0823" y2="52.0659" gradientUnits="userSpaceOnUse">
<stop offset="0.1915" stop-color="#7D11EF"/>
<stop offset="0.2818" stop-color="#A019CB"/>
<stop offset="0.3858" stop-color="#C220A8"/>
<stop offset="0.4842" stop-color="#DA268F"/>
<stop offset="0.5738" stop-color="#E92980"/>
<stop offset="0.6467" stop-color="#EE2A7B"/>
</linearGradient>
<linearGradient id="paint18_linear" x1="13.6609" y1="8.0015" x2="26.4486" y2="31.3212" gradientUnits="userSpaceOnUse">
<stop offset="0.1915" stop-color="#7D11EF"/>
<stop offset="0.2818" stop-color="#A019CB"/>
<stop offset="0.3858" stop-color="#C220A8"/>
<stop offset="0.4842" stop-color="#DA268F"/>
<stop offset="0.5738" stop-color="#E92980"/>
<stop offset="0.6467" stop-color="#EE2A7B"/>
<stop offset="1" stop-color="#F26522"/>
</linearGradient>
<linearGradient id="paint19_linear" x1="30.7823" y1="-4.7536" x2="14.1013" y2="42.0528" gradientUnits="userSpaceOnUse">
<stop offset="0.1915" stop-color="#7D11EF"/>
<stop offset="0.2818" stop-color="#A019CB"/>
<stop offset="0.3858" stop-color="#C220A8"/>
<stop offset="0.4842" stop-color="#DA268F"/>
<stop offset="0.5738" stop-color="#E92980"/>
<stop offset="0.6467" stop-color="#EE2A7B"/>
<stop offset="1" stop-color="#F26522"/>
</linearGradient>
<linearGradient id="paint20_linear" x1="47.8227" y1="45.7813" x2="12.7336" y2="20.1806" gradientUnits="userSpaceOnUse">
<stop offset="0.0417113" stop-color="#FFDE17"/>
<stop offset="0.0429608" stop-color="#FFDD18"/>
<stop offset="0.1145" stop-color="#FAA736"/>
<stop offset="0.1843" stop-color="#F67A4E"/>
<stop offset="0.2509" stop-color="#F25762"/>
<stop offset="0.3136" stop-color="#F03E70"/>
<stop offset="0.3706" stop-color="#EE2F78"/>
<stop offset="0.417" stop-color="#EE2A7B"/>
</linearGradient>
<linearGradient id="paint21_linear" x1="9.99765" y1="16.6069" x2="62.6043" y2="57.6247" gradientUnits="userSpaceOnUse">
<stop offset="0.0108952" stop-color="#7C0F13"/>
<stop offset="0.0756282" stop-color="#6C0D11"/>
<stop offset="0.2517" stop-color="#45080B"/>
<stop offset="0.4263" stop-color="#270506"/>
<stop offset="0.5969" stop-color="#110203"/>
<stop offset="0.7616" stop-color="#040101"/>
<stop offset="0.9138"/>
</linearGradient>
<linearGradient id="paint22_linear" x1="61.6958" y1="64.9416" x2="35.0477" y2="34.3068" gradientUnits="userSpaceOnUse">
<stop stop-color="#801E02"/>
<stop offset="0.1961" stop-color="#AC410C"/>
<stop offset="0.3865" stop-color="#CF5C13"/>
<stop offset="0.5655" stop-color="#E87019"/>
<stop offset="0.7285" stop-color="#F77C1C"/>
<stop offset="0.8611" stop-color="#FC801D"/>
</linearGradient>
<linearGradient id="paint23_linear" x1="52.4275" y1="71.3019" x2="25.9119" y2="39.2663" gradientUnits="userSpaceOnUse">
<stop stop-color="#45002D"/>
<stop offset="0.06907" stop-color="#720B42"/>
<stop offset="0.1487" stop-color="#9E1656"/>
<stop offset="0.2255" stop-color="#C11F66"/>
<stop offset="0.2977" stop-color="#DA2572"/>
<stop offset="0.3635" stop-color="#E92979"/>
<stop offset="0.417" stop-color="#EE2A7B"/>
<stop offset="1" stop-color="#F26522"/>
</linearGradient>
<linearGradient id="paint24_linear" x1="24.4231" y1="22.4853" x2="40.788" y2="34.5659" gradientUnits="userSpaceOnUse">
<stop offset="0.3737" stop-color="#FEB51A"/>
<stop offset="0.4306" stop-color="#FEAD1A"/>
<stop offset="0.6448" stop-color="#FD941C"/>
<stop offset="0.8406" stop-color="#FC851D"/>
<stop offset="1" stop-color="#FC801D"/>
</linearGradient>
<linearGradient id="paint25_linear" x1="28.3573" y1="13.6099" x2="48.8689" y2="60.1028" gradientUnits="userSpaceOnUse">
<stop stop-color="#FE2857"/>
<stop offset="0.0940498" stop-color="#E7254E"/>
<stop offset="0.3015" stop-color="#BB1E3D"/>
<stop offset="0.5015" stop-color="#98192F"/>
<stop offset="0.6896" stop-color="#7F1525"/>
<stop offset="0.8608" stop-color="#70131F"/>
<stop offset="1" stop-color="#6B121D"/>
</linearGradient>
<linearGradient id="paint26_linear" x1="61.6635" y1="53.5119" x2="20.027" y2="66.9176" gradientUnits="userSpaceOnUse">
<stop offset="0.0794007" stop-color="#70193B"/>
<stop offset="0.23" stop-color="#962D38"/>
<stop offset="0.4689" stop-color="#CE4B33"/>
<stop offset="0.6473" stop-color="#F05D30"/>
<stop offset="0.7435" stop-color="#FD642F"/>
</linearGradient>
<linearGradient id="paint27_linear" x1="73.8259" y1="53.1723" x2="30.4545" y2="4.281" gradientUnits="userSpaceOnUse">
<stop stop-color="#6B57FF"/>
<stop offset="1" stop-color="#FE2857"/>
</linearGradient>
<linearGradient id="paint28_linear" x1="16.6834" y1="15.9115" x2="23.8367" y2="28.9563" gradientUnits="userSpaceOnUse">
<stop offset="0.1915" stop-color="#7D11EF"/>
<stop offset="0.2818" stop-color="#A019CB"/>
<stop offset="0.3858" stop-color="#C220A8"/>
<stop offset="0.4842" stop-color="#DA268F"/>
<stop offset="0.5738" stop-color="#E92980"/>
<stop offset="0.6467" stop-color="#EE2A7B"/>
<stop offset="1" stop-color="#F26522"/>
</linearGradient>
<linearGradient id="paint29_linear" x1="25.6363" y1="9.0397" x2="16.5247" y2="34.6064" gradientUnits="userSpaceOnUse">
<stop offset="0.1915" stop-color="#7D11EF"/>
<stop offset="0.2818" stop-color="#A019CB"/>
<stop offset="0.3858" stop-color="#C220A8"/>
<stop offset="0.4842" stop-color="#DA268F"/>
<stop offset="0.5738" stop-color="#E92980"/>
<stop offset="0.6467" stop-color="#EE2A7B"/>
<stop offset="1" stop-color="#F26522"/>
</linearGradient>
</defs>
</svg>
