<svg width="24" height="24" viewBox="0 0 24 24" fill="none" xmlns="http://www.w3.org/2000/svg">
<g clip-path="url(#clip0_4372_12216)">
<path d="M18.0197 21.818L22.473 21.8173C23.3165 21.8173 24 21.1336 24 20.2901V15.9751C24 15.5293 23.8052 15.1056 23.4668 14.8155L9.15626 2.54928C8.87939 2.31211 8.5268 2.18164 8.16222 2.18164H3.70891C2.86542 2.18164 2.18164 2.86542 2.18164 3.70891V8.02455C2.18164 8.47029 2.37648 8.894 2.71488 9.18419L17.0252 21.4501C17.3021 21.6875 17.6547 21.8178 18.0195 21.8178L18.0197 21.818Z" fill="#00D886"/>
<path d="M18.5555 21.8182H22.4729C23.3164 21.8182 24.0002 21.1344 24.0002 20.2909V15.3812C24.0002 15.3089 23.995 15.2367 23.9849 15.1652L22.0058 1.31127C21.8984 0.558982 21.2539 0 20.494 0H14.6166C13.7729 0 13.0891 0.684 13.0894 1.52771L13.0911 8.47964C13.0911 8.64371 13.1175 8.80669 13.1694 8.96225L17.1067 20.774C17.3147 21.3975 17.8983 21.8182 18.5557 21.8182H18.5555Z" fill="url(#paint0_linear_4372_12216)"/>
<path d="M1.52727 24H14.2654C14.8763 24 15.4285 23.6359 15.6692 23.0745L21.6947 9.01549C21.7761 8.82545 21.8182 8.62058 21.8182 8.41375V1.52727C21.8182 0.683782 21.1344 0 20.2909 0H13.5537C13.2519 0 12.9569 0.0894545 12.7058 0.257018L0.680073 8.28305C0.255491 8.56647 0.000654545 9.04298 0.000654545 9.55331L0 22.4727C0 23.3162 0.683782 24 1.52727 24Z" fill="url(#paint1_linear_4372_12216)"/>
<path d="M20 4H4V20H20V4Z" fill="black"/>
<path d="M8.68291 12.1781C8.11125 12.1781 7.59354 12.0441 7.12977 11.7769C6.66623 11.5065 6.30211 11.1369 6.03743 10.6677C5.77297 10.1957 5.64062 9.66926 5.64062 9.08891C5.64062 8.50857 5.77297 7.98377 6.03743 7.51451C6.30188 7.04251 6.666 6.67246 7.12977 6.40526C7.59331 6.13486 8.11103 6 8.68291 6C9.14645 6 9.5732 6.08274 9.96291 6.24754C10.3554 6.41234 10.6854 6.64434 10.9529 6.94309C11.223 7.24183 11.4123 7.58583 11.5204 7.97554H10.2745C10.1835 7.78789 10.0596 7.6256 9.90325 7.48914C9.74965 7.34994 9.56908 7.2432 9.36131 7.16914C9.15377 7.09234 8.93045 7.05394 8.69137 7.05394C8.33868 7.05394 8.02005 7.14194 7.73571 7.3184C7.45137 7.49486 7.22805 7.73806 7.06577 8.048C6.90645 8.3552 6.82691 8.7024 6.82691 9.08914C6.82691 9.47589 6.90645 9.82469 7.06577 10.1344C7.22783 10.4416 7.45114 10.6832 7.73571 10.8597C8.02028 11.0361 8.33868 11.1241 8.69137 11.1241C9.01845 11.1241 9.31423 11.0629 9.57891 10.9406C9.84634 10.8185 10.0582 10.6489 10.2146 10.4329C10.3709 10.2169 10.455 9.97371 10.4662 9.70331L10.4706 9.82697H9.06691V8.90971H11.597V9.37897C11.597 9.90537 11.469 10.3817 11.213 10.8082C10.9597 11.2322 10.6114 11.5662 10.1677 11.811C9.7268 12.0558 9.23194 12.1778 8.68291 12.1778V12.1781ZM15.1771 11.1541C15.5298 11.1541 15.847 11.0661 16.1286 10.8896C16.4102 10.7104 16.6306 10.4645 16.7899 10.1515C16.9492 9.83589 17.0287 9.4816 17.0287 9.08914C17.0287 8.69669 16.9492 8.344 16.7899 8.03109C16.6306 7.71543 16.4102 7.46949 16.1286 7.29303C15.847 7.11383 15.5298 7.02423 15.1771 7.02423C14.8244 7.02423 14.5058 7.11383 14.2214 7.29303C13.9398 7.46949 13.7179 7.71543 13.5558 8.03109C13.3965 8.34423 13.317 8.69669 13.317 9.08914C13.317 9.4816 13.3965 9.83589 13.5558 10.1515C13.7179 10.4647 13.9398 10.7104 14.2214 10.8896C14.5058 11.0661 14.8244 11.1541 15.1771 11.1541ZM15.1727 12.1781C14.6011 12.1781 14.082 12.0441 13.6155 11.7769C13.1519 11.5065 12.7862 11.1369 12.519 10.6677C12.2546 10.1957 12.1222 9.66926 12.1222 9.08891C12.1222 8.50857 12.2546 7.98377 12.519 7.51451C12.7865 7.04251 13.1519 6.67246 13.6155 6.40526C14.082 6.13486 14.6011 6 15.1727 6C15.7444 6 16.2665 6.13486 16.73 6.40526C17.1965 6.67246 17.562 7.04251 17.8265 7.51451C18.0909 7.98377 18.2233 8.50857 18.2233 9.08891C18.2233 9.66926 18.0909 10.1957 17.8265 10.6677C17.562 11.1369 17.1965 11.5065 16.73 11.7769C16.2665 12.0441 15.7471 12.1781 15.1727 12.1781Z" fill="white"/>
<path d="M12 17H6V18H12V17Z" fill="white"/>
</g>
<defs>
<linearGradient id="paint0_linear_4372_12216" x1="23.8634" y1="20.2669" x2="14.7445" y2="0.598472" gradientUnits="userSpaceOnUse">
<stop offset="0.24" stop-color="#00D886"/>
<stop offset="0.51" stop-color="#007DFE"/>
</linearGradient>
<linearGradient id="paint1_linear_4372_12216" x1="22.2672" y1="1.64269" x2="0.252871" y2="23.657" gradientUnits="userSpaceOnUse">
<stop offset="0.27" stop-color="#007DFE"/>
<stop offset="0.7" stop-color="#D249FC"/>
</linearGradient>
<clipPath id="clip0_4372_12216">
<rect width="24" height="24" fill="white"/>
</clipPath>
</defs>
</svg>
