<svg width="16" height="16" viewBox="0 0 16 16" fill="none" xmlns="http://www.w3.org/2000/svg">
<path d="M16 0H0V16H16V0Z" fill="#FE2857"/>
<path d="M15 1H1V15H15V1Z" fill="black"/>
<path d="M8.19995 3H9.49995L10.9 5.60377L12.2 3H13.5V9H12.3V5.15094L10.9 7.64151H10.8L9.39995 5.15094V9H8.19995V3Z" fill="white"/>
<path d="M3 3H5.4C6.1 3 6.6 3.22642 6.9 3.56604C7.3 4.01887 7.4 4.4717 7.4 5.03774C7.4 5.49057 7.3 5.9434 7.1 6.16981C6.9 6.50943 6.6 6.73585 6.3 6.84906L7.6 9H6.2L5.1 7.18868H4.1V9H3V3ZM5.4 5.9434C5.7 5.9434 5.9 5.83019 6.1 5.71698C6.2 5.60377 6.3 5.37736 6.3 5.15094C6.3 4.81132 6.2 4.58491 6 4.4717C5.9 4.24528 5.6 4.24528 5.3 4.24528H4.2V5.9434H5.4Z" fill="white"/>
<path d="M9 12H3V13H9V12Z" fill="white"/>
</svg>
