<svg width="24" height="24" viewBox="0 0 24 24" fill="none" xmlns="http://www.w3.org/2000/svg">
<path d="M19.5001 0.799988L13.0001 3.09999L8.0001 0.799988L5.1001 7.59999L5.2001 17.4L20.8001 17.5L23.2001 5.09999L19.5001 0.799988Z" fill="url(#paint0_linear)"/>
<path d="M5 15.4L21.7 5.79999L19.5 0.799988L13 3.09999L8 0.799988L5 7.39999V15.4Z" fill="url(#paint1_linear)"/>
<path d="M5 15.4L21.7 5.79999L19.5 0.799988L13 3.09999L5 15.4Z" fill="url(#paint2_linear)"/>
<path d="M23.2 5.09999L19.5 0.799988L13 3.09999L23.2 5.09999Z" fill="url(#paint3_linear)"/>
<path d="M21.7001 5.79998L20.8 17.5L23.2001 5.09998L21.7001 5.79998Z" fill="url(#paint4_linear)"/>
<path d="M19.5 0.799988L21.7 5.79999L23.2 5.09999L19.5 0.799988Z" fill="url(#paint5_linear)"/>
<path d="M17.9 8.00001L9 2.70001L18.7 14.9L17.9 8.00001Z" fill="url(#paint6_linear)"/>
<path d="M18.5 21.5L17.2001 19L18.7001 14.9L9.00005 2.70001L0.800049 4.70001V16.5L5.50005 23.2L18.5 21.5Z" fill="url(#paint7_linear)"/>
<path d="M7.40005 17.4L0.800049 4.70001V16.5L5.50005 23.2L7.40005 17.4Z" fill="url(#paint8_linear)"/>
<path d="M7.40005 17.4L8.40005 14.6L0.800049 16.5L5.50005 23.2L7.40005 17.4Z" fill="url(#paint9_linear)"/>
<path d="M7.40005 17.4L0.800049 4.70001V16.5L5.50005 23.2L7.40005 17.4Z" fill="url(#paint10_linear)"/>
<path d="M7.4 17.5L5.5 23.2L18.5 21.5L7.4 17.5Z" fill="url(#paint11_linear)"/>
<path d="M7.40015 17.5L17.2001 19L18.5001 21.5L7.40015 17.5Z" fill="url(#paint12_linear)"/>
<path d="M5.5 23.2L17.2 19L18.5 21.5L5.5 23.2Z" fill="url(#paint13_linear)"/>
<path d="M18.5001 21.5L17.2001 19L14.4001 20L18.5001 21.5Z" fill="url(#paint14_linear)"/>
<path d="M9.0001 2.70001L4.1001 11.1L7.4001 17.4L17.8001 17.5L18.7001 14.9L9.0001 2.70001Z" fill="url(#paint15_linear)"/>
<path d="M7.40015 17.5L17.2001 19L18.7001 14.9L7.40015 17.5Z" fill="url(#paint16_linear)"/>
<path d="M0.800049 4.70001V16.5V16.6L4.10005 11.1L0.800049 4.70001Z" fill="url(#paint17_linear)"/>
<path d="M9.00005 2.70001L0.800049 4.70001L4.10005 11.1L9.00005 2.70001Z" fill="url(#paint18_linear)"/>
<path d="M6.8001 3.30001L3.6001 10.3L4.1001 11.1L9.0001 2.70001L6.8001 3.30001Z" fill="url(#paint19_linear)"/>
<path d="M5 9.60001V12.7L6 14.8L14.6 9.80001L9 2.70001L5 9.60001Z" fill="url(#paint20_linear)"/>
<path d="M19 5H5V19H19V5Z" fill="url(#paint21_linear)"/>
<path d="M12.2 7H13.5L14.9 9.60377L16.2 7H17.5V13H16.3V9.15094L14.9 11.6415H14.8L13.4 9.15094V13H12.2V7Z" fill="white"/>
<path d="M7 7H9.4C10.1 7 10.6 7.22642 10.9 7.56604C11.3 8.01887 11.4 8.4717 11.4 9.03774C11.4 9.49057 11.3 9.9434 11.1 10.1698C10.9 10.5094 10.6 10.7358 10.3 10.8491L11.6 13H10.2L9.1 11.1887H8.1V13H7V7ZM9.4 9.9434C9.7 9.9434 9.9 9.83019 10.1 9.71698C10.2 9.60377 10.3 9.37736 10.3 9.15094C10.3 8.81132 10.2 8.58491 10 8.4717C9.9 8.24528 9.6 8.24528 9.3 8.24528H8.2V9.9434H9.4Z" fill="white"/>
<path d="M13 16H7V17H13V16Z" fill="white"/>
<defs>
<linearGradient id="paint0_linear" x1="15.1749" y1="13.7638" x2="12.3317" y2="6.30059" gradientUnits="userSpaceOnUse">
<stop stop-color="#FE2857"/>
<stop offset="0.0562257" stop-color="#FE3052"/>
<stop offset="0.3252" stop-color="#FD533B"/>
<stop offset="0.5796" stop-color="#FC6C2A"/>
<stop offset="0.8114" stop-color="#FC7B20"/>
<stop offset="1" stop-color="#FC801D"/>
</linearGradient>
<linearGradient id="paint1_linear" x1="13.3111" y1="10.3482" x2="13.1582" y2="1.85029" gradientUnits="userSpaceOnUse">
<stop offset="0.3737" stop-color="#FEB51A"/>
<stop offset="0.4306" stop-color="#FEAD1A"/>
<stop offset="0.6448" stop-color="#FD941C"/>
<stop offset="0.8406" stop-color="#FC851D"/>
<stop offset="1" stop-color="#FC801D"/>
</linearGradient>
<linearGradient id="paint2_linear" x1="19.8282" y1="15.1766" x2="9.2513" y2="5.27759" gradientUnits="userSpaceOnUse">
<stop offset="0.3737" stop-color="#FEB51A"/>
<stop offset="0.417" stop-color="#FEAD1A"/>
<stop offset="0.5802" stop-color="#FD941C"/>
<stop offset="0.7294" stop-color="#FC851D"/>
<stop offset="0.8508" stop-color="#FC801D"/>
<stop offset="0.9836" stop-color="#F26522"/>
</linearGradient>
<linearGradient id="paint3_linear" x1="16.3747" y1="0.808688" x2="18.2368" y2="4.36659" gradientUnits="userSpaceOnUse">
<stop offset="0.0238963" stop-color="#FDB60D"/>
<stop offset="1" stop-color="#FF9600" stop-opacity="0"/>
</linearGradient>
<linearGradient id="paint4_linear" x1="22.4708" y1="17.206" x2="21.6121" y2="5.58938" gradientUnits="userSpaceOnUse">
<stop offset="0.0133474" stop-color="#EE2A7B"/>
<stop offset="0.7157" stop-color="#FE2857"/>
<stop offset="0.9859" stop-color="#FC801D"/>
</linearGradient>
<linearGradient id="paint5_linear" x1="25.1227" y1="9.00519" x2="19.2466" y2="1.27579" gradientUnits="userSpaceOnUse">
<stop stop-color="#FE2857"/>
<stop offset="0.1736" stop-color="#FE2C54"/>
<stop offset="0.1983" stop-color="#FE3051"/>
<stop offset="0.4268" stop-color="#FD533B"/>
<stop offset="0.6429" stop-color="#FC6C2A"/>
<stop offset="0.8398" stop-color="#FC7B20"/>
<stop offset="1" stop-color="#FC801D"/>
</linearGradient>
<linearGradient id="paint6_linear" x1="10.1952" y1="2.25621" x2="19.0997" y2="12.3812" gradientUnits="userSpaceOnUse">
<stop stop-color="#6B57FF"/>
<stop offset="1" stop-color="#FE2857"/>
</linearGradient>
<linearGradient id="paint7_linear" x1="0.651149" y1="4.50891" x2="15.1135" y2="22.8933" gradientUnits="userSpaceOnUse">
<stop offset="0.0417113" stop-color="#7D11EF"/>
<stop offset="0.1162" stop-color="#A019CB"/>
<stop offset="0.2019" stop-color="#C220A8"/>
<stop offset="0.283" stop-color="#DA268F"/>
<stop offset="0.3569" stop-color="#E92980"/>
<stop offset="0.417" stop-color="#EE2A7B"/>
<stop offset="1" stop-color="#F26522"/>
</linearGradient>
<linearGradient id="paint8_linear" x1="-2.39025" y1="6.98571" x2="8.05865" y2="20.2682" gradientUnits="userSpaceOnUse">
<stop offset="0.00149909" stop-color="#6B57FF"/>
<stop offset="0.2483" stop-color="#FE2857"/>
<stop offset="0.6853" stop-color="#FE2857"/>
</linearGradient>
<linearGradient id="paint9_linear" x1="4.68265" y1="11.9774" x2="4.44795" y2="21.7157" gradientUnits="userSpaceOnUse">
<stop offset="0.00149909" stop-color="#FDB60D"/>
<stop offset="0.725" stop-color="#FE2857" stop-opacity="0"/>
</linearGradient>
<linearGradient id="paint10_linear" x1="6.49105" y1="12.3244" x2="3.19915" y2="13.9537" gradientUnits="userSpaceOnUse">
<stop offset="0.0238963" stop-color="#FF7100"/>
<stop offset="1" stop-color="#FF9600" stop-opacity="0"/>
</linearGradient>
<linearGradient id="paint11_linear" x1="9.3058" y1="14.0634" x2="12.6559" y2="24.3926" gradientUnits="userSpaceOnUse">
<stop offset="0.3361" stop-color="#FE2857"/>
<stop offset="0.3527" stop-color="#FE3052"/>
<stop offset="0.4321" stop-color="#FD533B"/>
<stop offset="0.5072" stop-color="#FC6C2A"/>
<stop offset="0.5757" stop-color="#FC7B20"/>
<stop offset="0.6313" stop-color="#FC801D"/>
<stop offset="0.9964" stop-color="#FFDE17"/>
</linearGradient>
<linearGradient id="paint12_linear" x1="10.637" y1="12.3293" x2="14.6383" y2="24.6669" gradientUnits="userSpaceOnUse">
<stop offset="0.2209" stop-color="#EE2A7B"/>
<stop offset="0.6985" stop-color="#F7941D"/>
</linearGradient>
<linearGradient id="paint13_linear" x1="11.0613" y1="19.4762" x2="12.5867" y2="24.1795" gradientUnits="userSpaceOnUse">
<stop offset="0.092793" stop-color="#F15A29"/>
<stop offset="0.3888" stop-color="#FC801D"/>
<stop offset="1" stop-color="#FEC519"/>
</linearGradient>
<linearGradient id="paint14_linear" x1="10.2761" y1="21.8177" x2="19.1053" y2="20.0398" gradientUnits="userSpaceOnUse">
<stop offset="0.092793" stop-color="#F15A29"/>
<stop offset="0.3888" stop-color="#FC801D"/>
<stop offset="0.8214" stop-color="#FEC519"/>
<stop offset="0.9894" stop-color="#FCF84A"/>
</linearGradient>
<linearGradient id="paint15_linear" x1="7.2789" y1="20.5223" x2="15.3384" y2="6.77381" gradientUnits="userSpaceOnUse">
<stop offset="0.0417113" stop-color="#7D11EF"/>
<stop offset="0.1162" stop-color="#A019CB"/>
<stop offset="0.2019" stop-color="#C220A8"/>
<stop offset="0.283" stop-color="#DA268F"/>
<stop offset="0.3569" stop-color="#E92980"/>
<stop offset="0.417" stop-color="#EE2A7B"/>
</linearGradient>
<linearGradient id="paint16_linear" x1="12.1625" y1="13.3884" x2="14.6385" y2="21.0226" gradientUnits="userSpaceOnUse">
<stop stop-color="#F7941D" stop-opacity="0"/>
<stop offset="0.5473" stop-color="#FB851D" stop-opacity="0.5473"/>
<stop offset="1" stop-color="#FC801D"/>
</linearGradient>
<linearGradient id="paint17_linear" x1="-2.15845" y1="5.32881" x2="3.51155" y2="15.6687" gradientUnits="userSpaceOnUse">
<stop offset="0.1915" stop-color="#7D11EF"/>
<stop offset="0.2818" stop-color="#A019CB"/>
<stop offset="0.3858" stop-color="#C220A8"/>
<stop offset="0.4842" stop-color="#DA268F"/>
<stop offset="0.5738" stop-color="#E92980"/>
<stop offset="0.6467" stop-color="#EE2A7B"/>
</linearGradient>
<linearGradient id="paint18_linear" x1="3.99155" y1="2.27071" x2="7.87965" y2="9.36121" gradientUnits="userSpaceOnUse">
<stop offset="0.1915" stop-color="#7D11EF"/>
<stop offset="0.2818" stop-color="#A019CB"/>
<stop offset="0.3858" stop-color="#C220A8"/>
<stop offset="0.4842" stop-color="#DA268F"/>
<stop offset="0.5738" stop-color="#E92980"/>
<stop offset="0.6467" stop-color="#EE2A7B"/>
<stop offset="1" stop-color="#F26522"/>
</linearGradient>
<linearGradient id="paint19_linear" x1="9.1974" y1="-1.60749" x2="4.1255" y2="12.6242" gradientUnits="userSpaceOnUse">
<stop offset="0.1915" stop-color="#7D11EF"/>
<stop offset="0.2818" stop-color="#A019CB"/>
<stop offset="0.3858" stop-color="#C220A8"/>
<stop offset="0.4842" stop-color="#DA268F"/>
<stop offset="0.5738" stop-color="#E92980"/>
<stop offset="0.6467" stop-color="#EE2A7B"/>
<stop offset="1" stop-color="#F26522"/>
</linearGradient>
<linearGradient id="paint20_linear" x1="14.3785" y1="13.7578" x2="3.7095" y2="5.97381" gradientUnits="userSpaceOnUse">
<stop offset="0.0417113" stop-color="#FFDE17"/>
<stop offset="0.0429608" stop-color="#FFDD18"/>
<stop offset="0.1145" stop-color="#FAA736"/>
<stop offset="0.1843" stop-color="#F67A4E"/>
<stop offset="0.2509" stop-color="#F25762"/>
<stop offset="0.3136" stop-color="#F03E70"/>
<stop offset="0.3706" stop-color="#EE2F78"/>
<stop offset="0.417" stop-color="#EE2A7B"/>
</linearGradient>
<linearGradient id="paint21_linear" x1="2.86881" y1="4.88038" x2="18.8796" y2="17.364" gradientUnits="userSpaceOnUse">
<stop offset="0.0108952" stop-color="#7C0F13"/>
<stop offset="0.0756282" stop-color="#6C0D11"/>
<stop offset="0.2517" stop-color="#45080B"/>
<stop offset="0.4263" stop-color="#270506"/>
<stop offset="0.5969" stop-color="#110203"/>
<stop offset="0.7616" stop-color="#040101"/>
<stop offset="0.9138"/>
</linearGradient>
</defs>
</svg>
