<svg width="70" height="70" viewBox="0 0 70 70" fill="none" xmlns="http://www.w3.org/2000/svg">
<path d="M56.4 2.79999L37.9 9.39999L23.4 2.79999L15.2 22.5L15.5 50.4L60.2999 50.8L67.1999 15.4L56.4 2.79999Z" fill="url(#paint0_linear)"/>
<path d="M14.9001 44.6L62.7001 17.4L56.4001 2.79999L37.9001 9.39999L23.4001 2.79999L14.9001 21.9V44.6Z" fill="url(#paint1_linear)"/>
<path d="M14.9001 44.6L62.7001 17.4L56.4001 2.79999L37.9001 9.39999L14.9001 44.6Z" fill="url(#paint2_linear)"/>
<path d="M67.0001 15.3L56.4001 2.79999L37.9001 9.39999L67.0001 15.3Z" fill="url(#paint3_linear)"/>
<path d="M62.7001 17.4L60.3 50.8L67.2 15.4L62.7001 17.4Z" fill="url(#paint4_linear)"/>
<path d="M56.4001 2.79999L62.7001 17.4L67.2001 15.4L56.4001 2.79999Z" fill="url(#paint5_linear)"/>
<path d="M51.8001 23.6L26.4001 8.5L54.3001 43.3L51.8001 23.6Z" fill="url(#paint6_linear)"/>
<path d="M53.7001 62.3L49.9001 55.1L54.3 43.3L26.4 8.39996L2.80005 14.2V48L16.4 67.2L53.7001 62.3Z" fill="url(#paint7_linear)"/>
<path d="M21.8 50.5L2.80005 14.2V48L16.4 67.2L21.8 50.5Z" fill="url(#paint8_linear)"/>
<path d="M21.8 50.5L24.8 42.4L2.80005 48L16.4 67.2L21.8 50.5Z" fill="url(#paint9_linear)"/>
<path d="M21.8 50.5L2.80005 14.2V48L16.4 67.2L21.8 50.5Z" fill="url(#paint10_linear)"/>
<path d="M21.8001 50.6L16.4001 67.2L53.7001 62.3L21.8001 50.6Z" fill="url(#paint11_linear)"/>
<path d="M21.8 50.6L49.9001 55.1L53.7001 62.3L21.8 50.6Z" fill="url(#paint12_linear)"/>
<path d="M16.4001 67.2L49.9001 55.1L53.7001 62.3L16.4001 67.2Z" fill="url(#paint13_linear)"/>
<path d="M53.7001 62.3L49.9001 55.1L41.9001 58L53.7001 62.3Z" fill="url(#paint14_linear)"/>
<path d="M26.4 8.39996L12.3 32.4L21.8 50.5L51.6 50.7L54.3 43.3L26.4 8.39996Z" fill="url(#paint15_linear)"/>
<path d="M21.8 50.6L49.9001 55.1L54.3 43.3L21.8 50.6Z" fill="url(#paint16_linear)"/>
<path d="M2.80005 14.2V48L3.00005 48.2V48.3L12.4 32.5L2.80005 14.2Z" fill="url(#paint17_linear)"/>
<path d="M26.4 8.39996L2.80005 14.2L12.3 32.4L26.4 8.39996Z" fill="url(#paint18_linear)"/>
<path d="M20.2001 9.99996L11.1001 30L12.3001 32.4L26.4001 8.39996L20.2001 9.99996Z" fill="url(#paint19_linear)"/>
<path d="M14.8 28.3V37.1L17.8 42.9L42.5 28.6L26.4 8.39996L14.8 28.3Z" fill="url(#paint20_linear)"/>
<path d="M55 15H15V55H55V15Z" fill="url(#paint21_linear)"/>
<g opacity="0.3">
<path opacity="0.3" d="M55 15H18.5L15 22.6V55H55V15Z" fill="url(#paint22_linear)"/>
<path opacity="0.3" d="M15 55H49.8L54.2 43.3L31.6 15H15V55Z" fill="url(#paint23_linear)"/>
<path opacity="0.3" d="M15 22V44.5L55 21.8V15H18.1L15 22Z" fill="url(#paint24_linear)"/>
<path opacity="0.3" d="M55 15H18.5L15 22.6V55H55V15Z" fill="url(#paint25_linear)"/>
<path opacity="0.3" d="M49.7 55L44.7 45.8L22.1 50L20.5 55H49.7Z" fill="url(#paint26_linear)"/>
<path opacity="0.3" d="M54.2 43.3L51.7 23.7L37.1 15H31.5L54.2 43.3Z" fill="url(#paint27_linear)"/>
<path opacity="0.3" d="M22.7 15H15V28.1L22.7 15Z" fill="url(#paint28_linear)"/>
<path opacity="0.3" d="M15 21.8V28.1L15.8 26.8L22.7 15H18.1L15 21.8Z" fill="url(#paint29_linear)"/>
</g>
<path d="M35 47.4H20V49.9H35V47.4Z" fill="white"/>
<path d="M35 47.4H20V49.9H35V47.4Z" fill="white"/>
<path d="M34.8 20H38.4L42.3 26.3L46.3 20H49.8V35H46.6V25.2L42.3 31.6H42.2001L38.1 25.3V35H34.8V20Z" fill="white"/>
<path d="M20 20H26.9C28.8 20 30.3 20.5 31.3 21.5C32.2 22.4 32.6 23.5 32.6 24.9C32.6 26.1 32.3 27.1 31.7 27.9C31.1 28.7 30.3 29.2 29.4 29.6L33 35H29.1L26 30.4H23.3V35H20V20ZM26.6 27.3C27.4 27.3 28 27.1 28.5 26.7C28.9 26.3 29.2 25.8 29.2 25.2C29.2 24.5 29 23.9 28.5 23.6C28 23.1 27.4 23 26.6 23H23.3V27.3H26.6Z" fill="white"/>
<defs>
<linearGradient id="paint0_linear" x1="44.0868" y1="40.0483" x2="35.9491" y2="18.687" gradientUnits="userSpaceOnUse">
<stop stop-color="#FE2857"/>
<stop offset="0.0562257" stop-color="#FE3052"/>
<stop offset="0.3252" stop-color="#FD533B"/>
<stop offset="0.5796" stop-color="#FC6C2A"/>
<stop offset="0.8114" stop-color="#FC7B20"/>
<stop offset="1" stop-color="#FC801D"/>
</linearGradient>
<linearGradient id="paint1_linear" x1="38.7527" y1="30.2722" x2="38.3152" y2="5.94939" gradientUnits="userSpaceOnUse">
<stop offset="0.3737" stop-color="#FEB51A"/>
<stop offset="0.4306" stop-color="#FEAD1A"/>
<stop offset="0.6448" stop-color="#FD941C"/>
<stop offset="0.8406" stop-color="#FC851D"/>
<stop offset="1" stop-color="#FC801D"/>
</linearGradient>
<linearGradient id="paint2_linear" x1="57.4063" y1="44.0921" x2="27.1326" y2="15.7591" gradientUnits="userSpaceOnUse">
<stop offset="0.3737" stop-color="#FEB51A"/>
<stop offset="0.417" stop-color="#FEAD1A"/>
<stop offset="0.5802" stop-color="#FD941C"/>
<stop offset="0.7294" stop-color="#FC851D"/>
<stop offset="0.8508" stop-color="#FC801D"/>
<stop offset="0.9836" stop-color="#F26522"/>
</linearGradient>
<linearGradient id="paint3_linear" x1="47.5216" y1="2.96809" x2="52.8512" y2="13.1516" gradientUnits="userSpaceOnUse">
<stop offset="0.0238963" stop-color="#FDB60D"/>
<stop offset="1" stop-color="#FF9600" stop-opacity="0"/>
</linearGradient>
<linearGradient id="paint4_linear" x1="64.9697" y1="49.9007" x2="62.5116" y2="16.6514" gradientUnits="userSpaceOnUse">
<stop offset="0.0133474" stop-color="#EE2A7B"/>
<stop offset="0.7157" stop-color="#FE2857"/>
<stop offset="0.9859" stop-color="#FC801D"/>
</linearGradient>
<linearGradient id="paint5_linear" x1="72.5601" y1="26.4282" x2="55.7414" y2="4.30509" gradientUnits="userSpaceOnUse">
<stop stop-color="#FE2857"/>
<stop offset="0.1736" stop-color="#FE2C54"/>
<stop offset="0.1983" stop-color="#FE3051"/>
<stop offset="0.4268" stop-color="#FD533B"/>
<stop offset="0.6429" stop-color="#FC6C2A"/>
<stop offset="0.8398" stop-color="#FC7B20"/>
<stop offset="1" stop-color="#FC801D"/>
</linearGradient>
<linearGradient id="paint6_linear" x1="29.8343" y1="7.1111" x2="55.3211" y2="36.091" gradientUnits="userSpaceOnUse">
<stop stop-color="#6B57FF"/>
<stop offset="1" stop-color="#FE2857"/>
</linearGradient>
<linearGradient id="paint7_linear" x1="2.51705" y1="13.5589" x2="43.9115" y2="66.179" gradientUnits="userSpaceOnUse">
<stop offset="0.0417113" stop-color="#7D11EF"/>
<stop offset="0.1162" stop-color="#A019CB"/>
<stop offset="0.2019" stop-color="#C220A8"/>
<stop offset="0.283" stop-color="#DA268F"/>
<stop offset="0.3569" stop-color="#E92980"/>
<stop offset="0.417" stop-color="#EE2A7B"/>
<stop offset="1" stop-color="#F26522"/>
</linearGradient>
<linearGradient id="paint8_linear" x1="-6.18825" y1="20.6479" x2="23.7188" y2="58.6654" gradientUnits="userSpaceOnUse">
<stop offset="0.00149909" stop-color="#6B57FF"/>
<stop offset="0.2483" stop-color="#FE2857"/>
<stop offset="0.6853" stop-color="#FE2857"/>
</linearGradient>
<linearGradient id="paint9_linear" x1="14.0559" y1="34.9352" x2="13.3843" y2="62.8086" gradientUnits="userSpaceOnUse">
<stop offset="0.00149909" stop-color="#FDB60D"/>
<stop offset="0.725" stop-color="#FE2857" stop-opacity="0"/>
</linearGradient>
<linearGradient id="paint10_linear" x1="19.2319" y1="35.9285" x2="9.80995" y2="40.5919" gradientUnits="userSpaceOnUse">
<stop offset="0.0238963" stop-color="#FF7100"/>
<stop offset="1" stop-color="#FF9600" stop-opacity="0"/>
</linearGradient>
<linearGradient id="paint11_linear" x1="27.2888" y1="40.9059" x2="36.8773" y2="70.4704" gradientUnits="userSpaceOnUse">
<stop offset="0.3361" stop-color="#FE2857"/>
<stop offset="0.3527" stop-color="#FE3052"/>
<stop offset="0.4321" stop-color="#FD533B"/>
<stop offset="0.5072" stop-color="#FC6C2A"/>
<stop offset="0.5757" stop-color="#FC7B20"/>
<stop offset="0.6313" stop-color="#FC801D"/>
<stop offset="0.9964" stop-color="#FFDE17"/>
</linearGradient>
<linearGradient id="paint12_linear" x1="31.0984" y1="35.9426" x2="42.5513" y2="71.2555" gradientUnits="userSpaceOnUse">
<stop offset="0.2209" stop-color="#EE2A7B"/>
<stop offset="0.6985" stop-color="#F7941D"/>
</linearGradient>
<linearGradient id="paint13_linear" x1="32.3134" y1="56.3985" x2="36.6795" y2="69.8605" gradientUnits="userSpaceOnUse">
<stop offset="0.092793" stop-color="#F15A29"/>
<stop offset="0.3888" stop-color="#FC801D"/>
<stop offset="1" stop-color="#FEC519"/>
</linearGradient>
<linearGradient id="paint14_linear" x1="30.0655" y1="63.1006" x2="55.3367" y2="58.0118" gradientUnits="userSpaceOnUse">
<stop offset="0.092793" stop-color="#F15A29"/>
<stop offset="0.3888" stop-color="#FC801D"/>
<stop offset="0.8214" stop-color="#FEC519"/>
<stop offset="0.9894" stop-color="#FCF84A"/>
</linearGradient>
<linearGradient id="paint15_linear" x1="21.4869" y1="59.3927" x2="44.5551" y2="20.0415" gradientUnits="userSpaceOnUse">
<stop offset="0.0417113" stop-color="#7D11EF"/>
<stop offset="0.1162" stop-color="#A019CB"/>
<stop offset="0.2019" stop-color="#C220A8"/>
<stop offset="0.283" stop-color="#DA268F"/>
<stop offset="0.3569" stop-color="#E92980"/>
<stop offset="0.417" stop-color="#EE2A7B"/>
</linearGradient>
<linearGradient id="paint16_linear" x1="35.4648" y1="38.9739" x2="42.5516" y2="60.8248" gradientUnits="userSpaceOnUse">
<stop stop-color="#F7941D" stop-opacity="0"/>
<stop offset="0.5473" stop-color="#FB851D" stop-opacity="0.5473"/>
<stop offset="1" stop-color="#FC801D"/>
</linearGradient>
<linearGradient id="paint17_linear" x1="-5.52475" y1="15.9055" x2="10.7041" y2="45.5006" gradientUnits="userSpaceOnUse">
<stop offset="0.1915" stop-color="#7D11EF"/>
<stop offset="0.2818" stop-color="#A019CB"/>
<stop offset="0.3858" stop-color="#C220A8"/>
<stop offset="0.4842" stop-color="#DA268F"/>
<stop offset="0.5738" stop-color="#E92980"/>
<stop offset="0.6467" stop-color="#EE2A7B"/>
</linearGradient>
<linearGradient id="paint18_linear" x1="12.0778" y1="7.15256" x2="23.2067" y2="27.4471" gradientUnits="userSpaceOnUse">
<stop offset="0.1915" stop-color="#7D11EF"/>
<stop offset="0.2818" stop-color="#A019CB"/>
<stop offset="0.3858" stop-color="#C220A8"/>
<stop offset="0.4842" stop-color="#DA268F"/>
<stop offset="0.5738" stop-color="#E92980"/>
<stop offset="0.6467" stop-color="#EE2A7B"/>
<stop offset="1" stop-color="#F26522"/>
</linearGradient>
<linearGradient id="paint19_linear" x1="26.9782" y1="-3.94774" x2="12.4612" y2="36.7865" gradientUnits="userSpaceOnUse">
<stop offset="0.1915" stop-color="#7D11EF"/>
<stop offset="0.2818" stop-color="#A019CB"/>
<stop offset="0.3858" stop-color="#C220A8"/>
<stop offset="0.4842" stop-color="#DA268F"/>
<stop offset="0.5738" stop-color="#E92980"/>
<stop offset="0.6467" stop-color="#EE2A7B"/>
<stop offset="1" stop-color="#F26522"/>
</linearGradient>
<linearGradient id="paint20_linear" x1="41.8078" y1="40.0313" x2="11.2708" y2="17.7518" gradientUnits="userSpaceOnUse">
<stop offset="0.0417113" stop-color="#FFDE17"/>
<stop offset="0.0429608" stop-color="#FFDD18"/>
<stop offset="0.1145" stop-color="#FAA736"/>
<stop offset="0.1843" stop-color="#F67A4E"/>
<stop offset="0.2509" stop-color="#F25762"/>
<stop offset="0.3136" stop-color="#F03E70"/>
<stop offset="0.3706" stop-color="#EE2F78"/>
<stop offset="0.417" stop-color="#EE2A7B"/>
</linearGradient>
<linearGradient id="paint21_linear" x1="8.911" y1="14.6582" x2="54.6559" y2="50.3258" gradientUnits="userSpaceOnUse">
<stop offset="0.0108952" stop-color="#7C0F13"/>
<stop offset="0.0756282" stop-color="#6C0D11"/>
<stop offset="0.2517" stop-color="#45080B"/>
<stop offset="0.4263" stop-color="#270506"/>
<stop offset="0.5969" stop-color="#110203"/>
<stop offset="0.7616" stop-color="#040101"/>
<stop offset="0.9138"/>
</linearGradient>
<linearGradient id="paint22_linear" x1="53.8659" y1="56.6884" x2="30.6937" y2="30.0494" gradientUnits="userSpaceOnUse">
<stop stop-color="#801E02"/>
<stop offset="0.1961" stop-color="#AC410C"/>
<stop offset="0.3865" stop-color="#CF5C13"/>
<stop offset="0.5655" stop-color="#E87019"/>
<stop offset="0.7285" stop-color="#F77C1C"/>
<stop offset="0.8611" stop-color="#FC801D"/>
</linearGradient>
<linearGradient id="paint23_linear" x1="45.8065" y1="62.219" x2="22.7495" y2="34.362" gradientUnits="userSpaceOnUse">
<stop stop-color="#45002D"/>
<stop offset="0.06907" stop-color="#720B42"/>
<stop offset="0.1487" stop-color="#9E1656"/>
<stop offset="0.2255" stop-color="#C11F66"/>
<stop offset="0.2977" stop-color="#DA2572"/>
<stop offset="0.3635" stop-color="#E92979"/>
<stop offset="0.417" stop-color="#EE2A7B"/>
<stop offset="1" stop-color="#F26522"/>
</linearGradient>
<linearGradient id="paint24_linear" x1="21.4548" y1="19.7698" x2="35.6852" y2="30.2747" gradientUnits="userSpaceOnUse">
<stop offset="0.3737" stop-color="#FEB51A"/>
<stop offset="0.4306" stop-color="#FEAD1A"/>
<stop offset="0.6448" stop-color="#FD941C"/>
<stop offset="0.8406" stop-color="#FC851D"/>
<stop offset="1" stop-color="#FC801D"/>
</linearGradient>
<linearGradient id="paint25_linear" x1="24.8759" y1="12.0521" x2="42.7121" y2="52.4807" gradientUnits="userSpaceOnUse">
<stop stop-color="#FE2857"/>
<stop offset="0.0940498" stop-color="#E7254E"/>
<stop offset="0.3015" stop-color="#BB1E3D"/>
<stop offset="0.5015" stop-color="#98192F"/>
<stop offset="0.6896" stop-color="#7F1525"/>
<stop offset="0.8608" stop-color="#70131F"/>
<stop offset="1" stop-color="#6B121D"/>
</linearGradient>
<linearGradient id="paint26_linear" x1="53.8377" y1="46.7495" x2="17.6321" y2="58.4066" gradientUnits="userSpaceOnUse">
<stop offset="0.0794007" stop-color="#70193B"/>
<stop offset="0.23" stop-color="#962D38"/>
<stop offset="0.4689" stop-color="#CE4B33"/>
<stop offset="0.6473" stop-color="#F05D30"/>
<stop offset="0.7435" stop-color="#FD642F"/>
</linearGradient>
<linearGradient id="paint27_linear" x1="64.4138" y1="46.4542" x2="26.6996" y2="3.94" gradientUnits="userSpaceOnUse">
<stop stop-color="#6B57FF"/>
<stop offset="1" stop-color="#FE2857"/>
</linearGradient>
<linearGradient id="paint28_linear" x1="14.7247" y1="14.0534" x2="20.9449" y2="25.3968" gradientUnits="userSpaceOnUse">
<stop offset="0.1915" stop-color="#7D11EF"/>
<stop offset="0.2818" stop-color="#A019CB"/>
<stop offset="0.3858" stop-color="#C220A8"/>
<stop offset="0.4842" stop-color="#DA268F"/>
<stop offset="0.5738" stop-color="#E92980"/>
<stop offset="0.6467" stop-color="#EE2A7B"/>
<stop offset="1" stop-color="#F26522"/>
</linearGradient>
<linearGradient id="paint29_linear" x1="22.5098" y1="8.078" x2="14.5867" y2="30.31" gradientUnits="userSpaceOnUse">
<stop offset="0.1915" stop-color="#7D11EF"/>
<stop offset="0.2818" stop-color="#A019CB"/>
<stop offset="0.3858" stop-color="#C220A8"/>
<stop offset="0.4842" stop-color="#DA268F"/>
<stop offset="0.5738" stop-color="#E92980"/>
<stop offset="0.6467" stop-color="#EE2A7B"/>
<stop offset="1" stop-color="#F26522"/>
</linearGradient>
</defs>
</svg>
