<svg width="128" height="128" viewBox="0 0 128 128" fill="none" xmlns="http://www.w3.org/2000/svg">
<g filter="url(#filter0_d_4363_9198)">
<g clip-path="url(#clip0_4363_9198)">
<path d="M49.8182 12H12V78.1818H49.8182V12Z" fill="url(#paint0_linear_4363_9198)"/>
<path d="M116 78.1819H59.2727V116H116V78.1819Z" fill="#FF8100"/>
<path d="M116 12H49.8191L12 78.1818V116H59.2727L115.997 78.1412L116 12Z" fill="url(#paint1_linear_4363_9198)"/>
</g>
<path d="M97 31H31V97H97V31Z" fill="black"/>
<path d="M39.5796 59.9773H43.0533V44.059H39.5796V39.7998H51.2219V44.059H47.7482V59.9773H51.2219V64.2364H39.5796V59.9773Z" fill="white"/>
<path d="M53.3693 59.8379H57.419C57.966 59.8379 58.4428 59.7276 58.8505 59.506C59.2582 59.2853 59.5724 58.9712 59.7931 58.5635C60.0137 58.1558 60.125 57.6789 60.125 57.1319V39.7998H64.89V57.4807C64.89 58.8187 64.6048 59.9997 64.0344 61.0236C63.4641 62.0362 62.6553 62.8273 61.608 63.3977C60.572 63.9559 59.3742 64.2355 58.0127 64.2355H53.3702V59.837L53.3693 59.8379Z" fill="white"/>
<path d="M67 84H39V89H67V84Z" fill="white"/>
</g>
<defs>
<filter id="filter0_d_4363_9198" x="8.75" y="10" width="110.5" height="110.5" filterUnits="userSpaceOnUse" color-interpolation-filters="sRGB">
<feFlood flood-opacity="0" result="BackgroundImageFix"/>
<feColorMatrix in="SourceAlpha" type="matrix" values="0 0 0 0 0 0 0 0 0 0 0 0 0 0 0 0 0 0 127 0" result="hardAlpha"/>
<feOffset dy="1.25"/>
<feGaussianBlur stdDeviation="1.625"/>
<feComposite in2="hardAlpha" operator="out"/>
<feColorMatrix type="matrix" values="0 0 0 0 0 0 0 0 0 0 0 0 0 0 0 0 0 0 0.35 0"/>
<feBlend mode="normal" in2="BackgroundImageFix" result="effect1_dropShadow_4363_9198"/>
<feBlend mode="normal" in="SourceGraphic" in2="effect1_dropShadow_4363_9198" result="shape"/>
</filter>
<linearGradient id="paint0_linear_4363_9198" x1="30.9091" y1="75.5166" x2="30.9091" y2="12.7791" gradientUnits="userSpaceOnUse">
<stop  offset="0" stop-color="#FE2857"/>
<stop offset="1" stop-color="#FC801D"/>
</linearGradient>
<linearGradient id="paint1_linear_4363_9198" x1="15.0935" y1="112.886" x2="112.151" y2="15.8281" gradientUnits="userSpaceOnUse">
<stop offset="0.19" stop-color="#FE2857"/>
<stop offset="0.83" stop-color="#007EFF"/>
</linearGradient>
<clipPath id="clip0_4363_9198">
<rect x="12" y="12" width="104" height="104" rx="23" fill="white"/>
</clipPath>
</defs>
</svg>
