<svg width="40" height="40" viewBox="0 0 40 40" fill="none" xmlns="http://www.w3.org/2000/svg">
<path d="M18.0001 20C18.0001 19.4696 18.2108 18.9609 18.5859 18.5858C18.9609 18.2108 19.4696 18 20.0001 18H27.3773C28.2403 13.8392 28.3375 9.55598 27.6641 5.36035L6.34351 28.5119L18.0001 31.4795V20Z" fill="#F5B251"/>
<path d="M38.1389 18C39.8461 10.7459 38.6098 4.74243 37.8769 1L22.0708 18H38.1389Z" fill="#FFAD0A"/>
<path d="M18 22.378L11.187 29.706L18 31.459V22.378Z" fill="#FFAD0A"/>
<path fill-rule="evenodd" clip-rule="evenodd" d="M27.3845 18C27.8084 15.8616 28.0484 13.6907 28.102 11.5114L22.068 18H27.3845Z" fill="#FF7A00"/>
<path fill-rule="evenodd" clip-rule="evenodd" d="M18.0001 22.374L11.1541 29.737L17.1161 31.255L18.0001 31.476V22.374Z" fill="#FF7A00"/>
<path d="M18 32.5139L1 28.3066C1 28.3066 8.31744 32.5112 11.8973 39C13.6364 37.4754 15.7376 36.4228 18 35.9427V32.5139Z" fill="#17268D"/>
<path fill-rule="evenodd" clip-rule="evenodd" d="M37.2513 20H20V40H40V20H37.2513ZM37.5 22.5V37.5H22.5V22.5H37.5ZM30 24C28.8133 24 27.6533 24.3519 26.6666 25.0112C25.6799 25.6705 24.9108 26.6075 24.4567 27.7039C24.0026 28.8003 23.8838 30.0067 24.1153 31.1705C24.3468 32.3344 24.9182 33.4035 25.7574 34.2426C26.5965 35.0818 27.6656 35.6532 28.8295 35.8847C29.9933 36.1162 31.1997 35.9974 32.2961 35.5433C33.3925 35.0892 34.3295 34.3201 34.9888 33.3334C35.6481 32.3467 36 31.1867 36 30C35.9994 28.4089 35.3671 26.8831 34.242 25.758C33.1169 24.6329 31.5911 24.0006 30 24ZM28.1331 27.4093C27.9353 27.4093 27.7419 27.468 27.5775 27.5779C27.413 27.6877 27.2849 27.8439 27.2092 28.0266C27.1335 28.2094 27.1137 28.4104 27.1523 28.6044C27.1909 28.7984 27.2861 28.9766 27.4259 29.1164C27.5658 29.2563 27.744 29.3515 27.938 29.3901C28.1319 29.4287 28.333 29.4089 28.5157 29.3332C28.6985 29.2575 28.8546 29.1293 28.9645 28.9649C29.0744 28.8004 29.1331 28.6071 29.1331 28.4093C29.133 28.1441 29.0276 27.8898 28.8401 27.7023C28.6525 27.5148 28.3982 27.4094 28.1331 27.4093ZM31.5911 27.4093C31.3933 27.4093 31.2 27.468 31.0355 27.5779C30.8711 27.6877 30.7429 27.8439 30.6672 28.0266C30.5916 28.2094 30.5717 28.4104 30.6103 28.6044C30.6489 28.7984 30.7442 28.9766 30.884 29.1164C31.0239 29.2563 31.202 29.3515 31.396 29.3901C31.59 29.4287 31.7911 29.4089 31.9738 29.3332C32.1565 29.2575 32.3127 29.1293 32.4226 28.9649C32.5325 28.8004 32.5911 28.6071 32.5911 28.4093C32.591 28.1441 32.4856 27.8898 32.2981 27.7023C32.1106 27.5148 31.8563 27.4094 31.5911 27.4093ZM30.0005 33.6328C29.2869 33.6341 28.58 33.4945 27.9206 33.2218C27.2611 32.9492 26.662 32.5489 26.1577 32.044L27.2183 30.9834C27.9568 31.7198 28.9571 32.1334 30 32.1334C31.0429 32.1334 32.0432 31.7198 32.7817 30.9834L33.8423 32.044C33.3382 32.5489 32.7393 32.9493 32.08 33.2219C31.4207 33.4946 30.714 33.6342 30.0005 33.6328V33.6328Z" fill="#8F989D"/>
</svg>
