<svg width="16" height="16" viewBox="0 0 16 16" xmlns="http://www.w3.org/2000/svg">
  <path fill="#f26522" d="m8.9 12.11.6-1.31c.38.44.96.67 1.54.62.54 0 1.22-.26 1.22-.95 0-1.16-3.16-1.96-3.16-3.88-.08-1.35.95-2.52 2.3-2.6.15 0 .31 0 .46.02.68 0 1.36.19 1.95.53L13.52 6c-.42-.41-.98-.62-1.57-.61-.52 0-1.22.23-1.22 1.01 0 1.12 3.27 1.97 3.27 3.81a2.65 2.65 0 0 1-2.47 2.81h-.42c-.83.02-1.63-.3-2.21-.89ZM8 9.34c0 2.23-.97 3.7-2.92 3.66-.83-.02-1.6-.45-2.08-1.14l.96-1.13c1.12.86 2.2.66 2.2-1.21V4.01H8v5.34Z"/>
</svg>
