<svg width="16" height="16" viewBox="0 0 16 16" xmlns="http://www.w3.org/2000/svg">
  <path fill="#C77D55" d="m5.22 5.23.02 1.37c0 .73-.63 1.4-.92 1.4.29 0 .93.67.92 1.4l-.02 1.37c-.01.69.45 1.09 1.17 1.09H7V13h-.64c-1.45 0-2.38-.81-2.36-2.11V9.5c.01-.57-.42-.87-1.01-.87H2.3V7.37h.69c.59 0 1.02-.3 1.01-.87V5.11C3.97 3.81 4.9 3 6.36 3H7v1.14h-.61c-.72 0-1.18.4-1.17 1.09m5.56 0-.02 1.37c0 .73.63 1.4.92 1.4-.29 0-.93.67-.92 1.4l.02 1.37c.01.69-.45 1.09-1.17 1.09H9V13h.64c1.45 0 2.38-.81 2.36-2.11V9.5c-.01-.57.42-.87 1.01-.87h.69V7.37h-.69c-.59 0-1.02-.3-1.01-.87V5.11C12.03 3.81 11.1 3 9.64 3H9v1.14h.61c.72 0 1.18.4 1.17 1.09"/>
</svg>
