<svg width="16" height="16" viewBox="0 0 16 16" xmlns="http://www.w3.org/2000/svg">
  <path fill="#f26522" d="M4.36 7.38c.72-.34 1.16-1.1 1.1-1.89V4.26c0-.84.38-1.09 1.04-1.09V2c-.72 0-1.42.06-1.94.54C4.07 2.99 4 3.65 4 4.33v1.39c0 .8-.33 1.19-.93 1.19H2.5v1.16h.57c.59 0 .93.4.93 1.19v1.39c0 .68.07 1.34.56 1.79.53.48 1.23.54 1.94.54v-1.17c-.65 0-1.04-.25-1.04-1.09V9.49c.06-.8-.38-1.55-1.1-1.89v-.24Zm7.28 0c-.72-.34-1.16-1.1-1.1-1.89V4.26c0-.84-.38-1.09-1.04-1.09V2c.72 0 1.42.06 1.94.54.49.45.56 1.11.56 1.79v1.39c0 .8.33 1.19.93 1.19h.57v1.16h-.57c-.59 0-.93.4-.93 1.19v1.39c0 .68-.07 1.34-.56 1.79-.53.48-1.23.54-1.94.54v-1.17c.65 0 1.04-.25 1.04-1.09V9.49c-.06-.8.38-1.55 1.1-1.89v-.24Z"/>
</svg>
