<svg width="16" height="16" viewBox="0 0 16 16" fill="none" xmlns="http://www.w3.org/2000/svg">
<path fill-rule="evenodd" clip-rule="evenodd" d="M7.99921 13.2194V15.1314L14 12.1794V7.99584H7.99921V7.99604H5.79104H4.06959V7.9991L2.58 8V12.5L4.06959 12.16V13.1667L5.79104 12.678V14.0272L7.99921 13.2194Z" fill="#F58435"/>
<path d="M2.59191 8V12.4809L2 12.1848V8H2.59191Z" fill="#9D5025"/>
<path d="M4.06959 7.99604V13.1667L3.34396 12.8038V7.99604H4.06959Z" fill="#9D5025"/>
<path d="M5.79104 7.99604V14.0272L4.87981 13.5718V7.99604H5.79104Z" fill="#9D5025"/>
<path d="M6.82233 14.5429V7.99604H7.99901V15.1314L6.82233 14.5429Z" fill="#9D5025"/>
<path d="M14 6.5L8 5.55V1L14 3.82058L14 6.5Z" fill="#F58435"/>
<path d="M2 6.5L8.00001 5.54619L8 1L2 3.75955V6.5Z" fill="#9D5025"/>
<path d="M14 6.5L7.99981 6.9812L2 6.5L7.99981 5.5462L14 6.5Z" fill="#6B3B19"/>
</svg>
