<svg width="16" height="16" viewBox="0 0 16 16" fill="none" xmlns="http://www.w3.org/2000/svg">
<path fill-rule="evenodd" clip-rule="evenodd" d="M2 2H14V7H2V2ZM11.8333 4.4375C11.8333 3.91973 11.4229 3.5 10.9167 3.5C10.4104 3.5 10 3.91973 10 4.4375C10 4.95527 10.4104 5.375 10.9167 5.375C11.4229 5.375 11.8333 4.95527 11.8333 4.4375ZM8 4H4V5H8V4Z" fill="#AECBFA"/>
<path fill-rule="evenodd" clip-rule="evenodd" d="M2 9H14V14H2V9ZM11.8333 11.4375C11.8333 10.9197 11.4229 10.5 10.9167 10.5C10.4104 10.5 10 10.9197 10 11.4375C10 11.9553 10.4104 12.375 10.9167 12.375C11.4229 12.375 11.8333 11.9553 11.8333 11.4375ZM8 11H4V12H8V11Z" fill="#AECBFA"/>
<path d="M14 2H13V7H14V2Z" fill="#4285F4"/>
<path d="M3 2H2V7H3V2Z" fill="#669DF6"/>
<path d="M14 9H13V14H14V9Z" fill="#4285F4"/>
<path d="M3 9H2V14H3V9Z" fill="#669DF6"/>
</svg>
