<svg width="16" height="16" viewBox="0 0 16 16" fill="none" xmlns="http://www.w3.org/2000/svg">
<path fill-rule="evenodd" clip-rule="evenodd" d="M13.0089 5.94544C13.0091 5.94545 13.0085 5.94718 13.0067 5.95065C13.0078 5.94718 13.0088 5.94544 13.0089 5.94544ZM12.9704 6C12.9577 5.98555 12.9413 5.96823 12.92 5.94807C12.7894 5.8246 12.5468 5.66734 12.1641 5.51426C11.4043 5.21033 10.2861 5 9 5C7.71394 5 6.59568 5.21033 5.83586 5.51426C5.45317 5.66734 5.21059 5.8246 5.08003 5.94807C5.0587 5.96824 5.04225 5.98555 5.02965 6C5.04225 6.01445 5.0587 6.03176 5.08003 6.05193C5.21059 6.1754 5.45317 6.33266 5.83586 6.48574C6.59568 6.78967 7.71394 7 9 7C10.2861 7 11.4043 6.78967 12.1641 6.48574C12.5468 6.33266 12.7894 6.1754 12.92 6.05193C12.9413 6.03177 12.9577 6.01445 12.9704 6ZM4.99108 5.94544C4.99124 5.94544 4.99216 5.94718 4.99334 5.95065C4.99151 5.94718 4.99092 5.94545 4.99108 5.94544ZM4.99108 6.05455C4.99092 6.05455 4.99151 6.05282 4.99334 6.04935C4.99216 6.05282 4.99124 6.05456 4.99108 6.05455ZM13.0067 6.04935C13.0085 6.05282 13.0091 6.05456 13.0089 6.05456C13.0088 6.05456 13.0078 6.05282 13.0067 6.04935ZM9 8C11.7614 8 14 7.10457 14 6C14 4.89543 11.7614 4 9 4C6.23858 4 4 4.89543 4 6C4 7.10457 6.23858 8 9 8Z" fill="#62B543"/>
<path d="M5.0946 6.79601C4.27088 6.40632 4 6 4 6L5 15C5 15 5.5 16 9 16C12.5 16 13 15 13 15L14 6C14 6 13.7291 6.40632 12.9054 6.79601L12.7794 7.93046L12.0476 14.5164C12.0096 14.5374 11.963 14.561 11.9064 14.5862C11.5137 14.7607 10.6648 15 9 15C7.33523 15 6.4863 14.7607 6.09364 14.5862C6.03703 14.561 5.99039 14.5374 5.95242 14.5164L5.22065 7.93046L5.0946 6.79601Z" fill="#62B543"/>
<path d="M2.0946 3.79601C1.27088 3.40632 1 3 1 3L2 12C2 12 2.29295 12.5859 4 12.8608V11.846C3.56937 11.7665 3.28007 11.669 3.09364 11.5862C3.03703 11.561 2.99039 11.5374 2.95242 11.5164L2.22065 4.93046L2.0946 3.79601Z" fill="#62B543"/>
<circle cx="9" cy="10.25" r="1.25" fill="#62B543"/>
<path d="M9.00001 10.0615C9.49453 10.3574 10.1134 10.6185 10.8044 10.8037C12.6716 11.304 14.5 12 15 11C15.5 10 14 9.56142 13 9.50001" stroke="#62B543"/>
<path fill-rule="evenodd" clip-rule="evenodd" d="M10.0089 2.94544C10.0091 2.94545 10.0085 2.94718 10.0067 2.95065C10.0078 2.94718 10.0088 2.94544 10.0089 2.94544ZM9.91997 2.94807C9.94129 2.96823 9.95775 2.98555 9.97035 3C9.97035 3.00001 9.97034 3.00002 9.97033 3.00003C9.98022 3.00001 9.99011 3 10 3C10.3393 3 10.673 3.01035 10.9994 3.03035C10.9998 3.02025 11 3.01013 11 3C11 1.89543 8.76142 1 6 1C3.23858 1 1 1.89543 1 3C1 3.76056 2.06133 4.42196 3.62388 4.76017C3.94309 4.45912 4.37497 4.18467 4.89644 3.9467C4.07723 3.86584 3.36848 3.69879 2.83586 3.48574C2.45317 3.33266 2.21059 3.1754 2.08003 3.05193C2.0587 3.03176 2.04225 3.01445 2.02965 3C2.04225 2.98555 2.0587 2.96824 2.08003 2.94807C2.21059 2.8246 2.45317 2.66734 2.83586 2.51426C3.59568 2.21033 4.71394 2 6 2C7.28606 2 8.40432 2.21033 9.16414 2.51426C9.54683 2.66734 9.78941 2.8246 9.91997 2.94807ZM1.99108 2.94544C1.99124 2.94544 1.99216 2.94718 1.99334 2.95065C1.99151 2.94718 1.99092 2.94545 1.99108 2.94544ZM1.99108 3.05455C1.99092 3.05455 1.99151 3.05282 1.99334 3.04935C1.99216 3.05282 1.99124 3.05456 1.99108 3.05455Z" fill="#62B543"/>
</svg>
