<!-- Copyright © 2000–2024 JetBrains s.r.o. -->
<svg width="16" height="16" viewBox="0 0 16 16" xmlns="http://www.w3.org/2000/svg">
  <path fill="#242424" fill-rule="evenodd" d="m6 1.586-6 6v.828l6 6m10-6-6 6V1.586l6 6z"/>
  <path fill="#C4C4C4" fill-rule="evenodd" d="M11 4v2l2 2-2 2v2l4-4M5 12 1 8l4-4v2L3 8l2 2z"/>
  <path fill="#242424" fill-rule="evenodd" d="M4.76 15 7.795 1h3.445L8.205 15z"/>
  <path fill="#C4C4C4" fill-rule="evenodd" d="M7.398 14H6L8.601 2h1.4L7.397 14"/>
  <path fill="#242424" fill-rule="evenodd" d="M16 16H7V7h9z"/>
  <path fill="#C4C4C4" fill-rule="evenodd" d="M15 15H8V8h7z"/>
  <path fill="#282828" fill-rule="evenodd" d="M11 11.5c0 1.516 1 1.5 1 1.5h1v1h-1.5c-.828 0-1.5-.896-1.5-2v-1c0-1.104.672-2 1.5-2H13v1h-1s-1-.016-1 1.5"/>
</svg>
