<svg width="32" height="32" viewBox="0 0 32 32" fill="none" xmlns="http://www.w3.org/2000/svg">
<path d="M29.091 7.97382L29.0901 2.03607C29.0898 0.911709 28.1781 0 27.0538 0H21.3005C20.7061 0 20.1412 0.259782 19.7543 0.710982L3.39936 19.7917C3.08314 20.1609 2.90918 20.631 2.90918 21.1171V27.0548C2.90918 28.1795 3.82089 29.0912 4.94554 29.0912H10.6997C11.2941 29.0912 11.859 28.8314 12.2459 28.3802L28.6005 9.29949C28.917 8.93033 29.0907 8.46022 29.0907 7.97382H29.091Z" fill="#D249FC"/>
<path d="M29.0909 7.25964V2.03636C29.0909 0.911709 28.1792 0 27.0545 0H20.5082C20.4119 0 20.3156 0.00698182 20.2202 0.0203636L1.74836 2.6592C0.745309 2.80233 0 3.66167 0 4.67491V12.5114C0 13.6364 0.912 14.5481 2.03695 14.5478L11.3062 14.5455C11.5249 14.5455 11.7423 14.5103 11.9497 14.441L27.6986 9.19127C28.53 8.91404 29.0909 8.13585 29.0909 7.25934V7.25964Z" fill="url(#paint0_linear_4407_10231)"/>
<path d="M32 27V12.9796C32 12.165 31.5145 11.4287 30.766 11.1079L12.0207 3.07383C11.7673 2.96533 11.4941 2.90918 11.2183 2.90918H2.03636C0.911709 2.90918 0 3.82089 0 4.94554V13.9285C0 14.3309 0.119273 14.7242 0.342691 15.059L11.0444 31.0933C11.422 31.6594 12.0576 31.9992 12.738 31.9992L27 32.0001C28.1247 32.0001 32 28.1247 32 27Z" fill="url(#paint1_linear_4407_10231)"/>
<path d="M26 6H6V26H26V6Z" fill="black"/>
<path d="M8.9502 9.02157H12.21C12.7414 9.02157 13.2098 9.1192 13.6148 9.31445C14.0198 9.50971 14.3307 9.78428 14.5478 10.1388C14.7683 10.4932 14.8787 10.9035 14.8787 11.3699C14.8787 11.8362 14.7666 12.2592 14.5425 12.6172C14.322 12.9752 14.0056 13.2538 13.5933 13.4526C13.1848 13.6478 12.7091 13.7454 12.1669 13.7454H10.4315V16.6147H8.95078V9.02157H8.9502ZM12.112 12.5146C12.3616 12.5146 12.5784 12.4693 12.7629 12.379C12.9509 12.2848 13.0956 12.1532 13.1967 11.9829C13.2978 11.8095 13.3486 11.6087 13.3486 11.3809C13.3486 11.1531 13.2981 10.9503 13.1967 10.7844C13.0953 10.6141 12.9509 10.4839 12.7629 10.3939C12.5784 10.2997 12.3616 10.253 12.112 10.253H10.4306V12.5146H12.112ZM18.293 16.7452C17.736 16.7452 17.2354 16.6455 16.7906 16.4467C16.3457 16.248 15.9968 15.9694 15.7437 15.6114C15.4906 15.2499 15.3605 14.8379 15.3532 14.3748H16.8394C16.8394 14.5918 16.9027 14.7851 17.0291 14.955C17.1593 15.1212 17.3345 15.2514 17.5553 15.3455C17.7793 15.4397 18.0327 15.4865 18.3145 15.4865C18.5822 15.4865 18.8207 15.4452 19.0305 15.3618C19.2437 15.2749 19.4102 15.1558 19.5294 15.0038C19.6488 14.8519 19.7083 14.6784 19.7083 14.4832C19.7083 14.2411 19.6343 14.0383 19.4861 13.8756C19.3414 13.7094 19.1406 13.601 18.884 13.5502L17.3275 13.2518C16.9623 13.1832 16.6441 13.053 16.373 12.8613C16.1054 12.666 15.8994 12.424 15.7547 12.1346C15.61 11.8417 15.5377 11.5163 15.5377 11.1583C15.5377 10.717 15.6551 10.325 15.8901 9.98128C16.1287 9.63755 16.4559 9.37053 16.8719 9.17847C17.2912 8.98671 17.7631 8.89111 18.2875 8.89111C18.812 8.89111 19.2891 8.98525 19.7086 9.17324C20.1317 9.36094 20.4626 9.62332 20.7012 9.95978C20.9435 10.2928 21.0664 10.6757 21.0699 11.1095H19.5892C19.5892 10.9218 19.5331 10.755 19.421 10.6106C19.3126 10.4662 19.1606 10.3538 18.9654 10.2745C18.7701 10.1911 18.5496 10.1498 18.3038 10.1498C18.058 10.1498 17.8427 10.1899 17.6474 10.2692C17.4522 10.3485 17.3002 10.459 17.1918 10.6002C17.0835 10.7379 17.0291 10.8965 17.0291 11.0776C17.0291 11.287 17.096 11.4646 17.2299 11.609C17.3636 11.7499 17.5498 11.8443 17.7886 11.8911L19.2963 12.1732C19.6761 12.2418 20.0105 12.3813 20.2996 12.5908C20.5925 12.8003 20.8186 13.0626 20.9775 13.3773C21.1364 13.6885 21.216 14.0282 21.216 14.3969C21.216 14.8525 21.0914 15.2592 20.8418 15.6172C20.5922 15.9717 20.2453 16.2483 19.8005 16.447C19.3556 16.6458 18.8529 16.7454 18.2928 16.7454L18.293 16.7452Z" fill="white"/>
<path d="M16 22H9V23H16V22Z" fill="white"/>
<path d="M28.0943 32H11.9057C11.3928 32 10.8849 31.8989 10.411 31.7026C9.93718 31.5064 9.50663 31.2188 9.14395 30.8561C8.78128 30.4934 8.49358 30.0628 8.2973 29.589C8.10102 29.1151 8 28.6073 8 28.0944V23.9056C8 23.3927 8.10102 22.8849 8.2973 22.411C8.49358 21.9372 8.78128 21.5066 9.14395 21.1439C9.50663 20.7812 9.93718 20.4935 10.411 20.2972C10.8849 20.101 11.3928 20 11.9057 20H28.0943C28.6072 20 29.1151 20.101 29.589 20.2972C30.0628 20.4935 30.4934 20.7812 30.856 21.1439C31.2187 21.5066 31.5064 21.9372 31.7027 22.411C31.899 22.8849 32 23.3927 32 23.9056V28.0944C32 29.1302 31.5885 30.1236 30.856 30.8561C30.1236 31.5885 29.1302 32 28.0943 32V32Z" fill="#FDB60D"/>
<path d="M12.4561 23.3779H16.5754V24.4471H13.6497V25.5549H16.2245V26.6237H13.6497V27.7706H16.6146V28.8394H12.4561V23.3779Z" fill="black"/>
<path d="M19.5559 23.3394H20.6637L23.0043 28.8394H21.7482L21.2489 27.6146H18.9398L18.4405 28.8394H17.2158L19.5559 23.3394ZM20.8202 26.5536L20.0943 24.7823L19.369 26.5536H20.8202Z" fill="black"/>
<path d="M23.8467 23.3783H26.0781C26.343 23.3468 26.6117 23.3724 26.8659 23.4533C27.1202 23.5343 27.3541 23.6687 27.5522 23.8475C27.7502 24.0263 27.9077 24.2455 28.014 24.4902C28.1204 24.7349 28.1731 24.9994 28.1688 25.2662V25.282C28.1665 25.5585 28.1055 25.8315 27.9898 26.0827C27.8741 26.334 27.7063 26.5577 27.4976 26.7392C27.2889 26.9207 27.044 27.0558 26.7791 27.1355C26.5142 27.2152 26.2355 27.2377 25.9612 27.2015H25.0485V28.8397H23.8467V23.3783ZM25.9998 26.1323C26.1179 26.1473 26.2378 26.1372 26.3517 26.1026C26.4656 26.0681 26.571 26.0099 26.6608 25.9319C26.7507 25.8538 26.823 25.7576 26.8732 25.6496C26.9233 25.5417 26.9501 25.4244 26.9517 25.3054V25.2897C26.9517 24.7517 26.5774 24.4627 25.9765 24.4627H25.0485V26.1323H25.9998Z" fill="black"/>
<defs>
<linearGradient id="paint0_linear_4407_10231" x1="28.1894" y1="-0.35869" x2="1.37629" y2="12.073" gradientUnits="userSpaceOnUse">
<stop offset="0.16" stop-color="#D249FC"/>
<stop offset="0.55" stop-color="#FF2D90"/>
</linearGradient>
<linearGradient id="paint1_linear_4407_10231" x1="1.99098" y1="2.11122" x2="31.3434" y2="31.4639" gradientUnits="userSpaceOnUse">
<stop offset="0.3" stop-color="#FF2D90"/>
<stop offset="0.7" stop-color="#7256FF"/>
</linearGradient>
</defs>
</svg>
