<svg width="256" height="256" viewBox="0 0 256 256" fill="none" xmlns="http://www.w3.org/2000/svg">
<path d="M232.727 63.7905L232.72 16.2886C232.718 7.29367 225.424 0 216.429 0L170.403 0C165.648 0 161.128 2.07825 158.033 5.68785L27.1939 158.334C24.6642 161.287 23.2725 165.048 23.2725 168.937L23.2725 216.439C23.2725 225.436 30.5661 232.73 39.5634 232.73H85.5968C90.3514 232.73 94.871 230.651 97.9663 227.042L228.803 74.3959C231.335 71.4426 232.725 67.6817 232.725 63.7905H232.727Z" fill="#D249FC"/>
<path d="M232.727 58.0771V16.2909C232.727 7.29367 225.434 0 216.436 0L164.066 0C163.295 0 162.525 0.0558545 161.762 0.162909L13.9869 21.2736C5.96247 22.4186 0 29.2934 0 37.3993L0 100.091C0 109.091 7.296 116.385 16.2956 116.382L90.4495 116.364C92.1996 116.364 93.938 116.082 95.5974 115.528L221.589 73.5302C228.24 71.3123 232.727 65.0868 232.727 58.0748V58.0771Z" fill="url(#paint0_linear_4407_10266)"/>
<path d="M256 207.5L256 103.836C256 97.3198 252.116 91.4295 246.128 88.8625L96.1652 24.5902C94.1382 23.7221 91.9529 23.2729 89.7466 23.2729L16.2909 23.2729C7.29367 23.2729 0 30.5666 0 39.5639L0 111.428C0 114.646 0.954182 117.793 2.74153 120.472L88.3549 248.746C91.3757 253.275 96.4608 255.993 101.904 255.993L212 256C220.997 256 256 216.497 256 207.5Z" fill="url(#paint1_linear_4407_10266)"/>
<path d="M209 47L47 47L47 209L209 209L209 47Z" fill="black"/>
<path d="M133 177H68V188H133V177Z" fill="white"/>
<path d="M69.0107 69.0183H94.9747C99.2075 69.0183 102.938 69.8025 106.164 71.3711C109.39 72.9397 111.867 75.1455 113.595 77.9932C115.352 80.8409 116.231 84.1367 116.231 87.8831C116.231 91.6294 115.338 95.028 113.554 97.9037C111.797 100.779 109.277 103.018 105.993 104.614C102.739 106.183 98.9507 106.967 94.6322 106.967H80.809L80.809 130.017H69.0154L69.0154 69.0183H69.0107ZM94.1948 97.0797C96.1828 97.0797 97.9092 96.7156 99.3788 95.9896C100.876 95.2334 102.029 94.176 102.834 92.8082C103.639 91.4147 104.044 89.8017 104.044 87.9718C104.044 86.1418 103.642 84.5125 102.834 83.1797C102.026 81.8119 100.876 80.7662 99.3788 80.0426C97.9092 79.2863 96.1828 78.9105 94.1948 78.9105H80.802V97.0797H94.1948ZM143.427 131.065C138.99 131.065 135.003 130.265 131.459 128.668C127.916 127.072 125.137 124.833 123.121 121.957C121.105 119.054 120.069 115.744 120.011 112.023H131.848C131.848 113.767 132.353 115.319 133.359 116.684C134.396 118.02 135.792 119.065 137.551 119.822C139.335 120.578 141.353 120.954 143.598 120.954C145.729 120.954 147.629 120.622 149.3 119.952C150.999 119.254 152.325 118.297 153.274 117.077C154.225 115.856 154.699 114.462 154.699 112.894C154.699 110.949 154.109 109.32 152.929 108.013C151.777 106.678 150.177 105.807 148.134 105.399L135.736 103.002C132.827 102.451 130.293 101.405 128.134 99.8644C126.002 98.2958 124.362 96.3514 123.209 94.0266C122.056 91.6738 121.48 89.0595 121.48 86.1838C121.48 82.6382 122.415 79.4894 124.287 76.728C126.187 73.9667 128.793 71.8216 132.107 70.2787C135.447 68.7382 139.205 67.9702 143.383 67.9702C147.56 67.9702 151.36 68.7265 154.702 70.2367C158.071 71.7446 160.707 73.8523 162.607 76.5553C164.538 79.2303 165.516 82.3067 165.544 85.7916H153.751C153.751 84.2838 153.304 82.9439 152.411 81.7839C151.547 80.6238 150.337 79.7205 148.782 79.0832C147.227 78.4133 145.47 78.0819 143.512 78.0819C141.554 78.0819 139.839 78.404 138.284 79.0412C136.729 79.6784 135.519 80.5654 134.655 81.6998C133.792 82.8062 133.359 84.0807 133.359 85.5349C133.359 87.2178 133.892 88.644 134.959 89.8041C136.023 90.9362 137.507 91.6948 139.409 92.0706L151.418 94.337C154.443 94.8879 157.106 96.0083 159.409 97.6913C161.742 99.3742 163.542 101.482 164.808 104.01C166.074 106.51 166.708 109.238 166.708 112.2C166.708 115.86 165.715 119.128 163.728 122.004C161.74 124.852 158.976 127.074 155.433 128.67C151.89 130.267 147.886 131.068 143.424 131.068L143.427 131.065Z" fill="white"/>
<path d="M224.755 256H95.2454C86.9586 256 79.0112 252.708 73.1516 246.849C67.292 240.989 64 233.042 64 224.755V191.245C64 187.142 64.8082 183.079 66.3784 179.288C67.9486 175.497 70.2502 172.053 73.1516 169.151C76.053 166.25 79.4974 163.949 83.2882 162.378C87.0791 160.808 91.1422 160 95.2454 160H224.755C233.042 160 240.989 163.292 246.849 169.151C252.708 175.011 256 182.958 256 191.245V224.755C256 233.042 252.708 240.989 246.849 246.849C240.989 252.708 233.042 256 224.755 256Z" fill="#FDB60D"/>
<path d="M99.6494 187.024H132.605V195.578H109.199V204.441H129.797V212.99H109.199V222.166H132.917V230.716H99.6494V187.024Z" fill="black"/>
<path d="M156.445 186.716H165.308L184.033 230.716H173.984L169.989 220.918H151.516L147.522 230.716H137.725L156.445 186.716ZM166.56 212.43L160.753 198.26L154.95 212.43H166.56Z" fill="black"/>
<path d="M190.774 187.024H208.625C219.048 187.024 225.351 193.205 225.351 202.128V202.254C225.351 212.364 217.488 217.61 207.691 217.61H200.389V230.715H190.775L190.774 187.024ZM208 209.057C208.944 209.177 209.904 209.096 210.815 208.82C211.726 208.543 212.569 208.078 213.288 207.453C214.006 206.829 214.585 206.059 214.986 205.196C215.387 204.332 215.601 203.394 215.615 202.441V202.315C215.615 198.012 212.62 195.7 207.813 195.7H200.389V209.057H208Z" fill="black"/>
<defs>
<linearGradient id="paint0_linear_4407_10266" x1="225.515" y1="-2.86952" x2="11.0103" y2="96.5842" gradientUnits="userSpaceOnUse">
<stop offset="0.16" stop-color="#D249FC"/>
<stop offset="0.55" stop-color="#FF2D90"/>
</linearGradient>
<linearGradient id="paint1_linear_4407_10266" x1="15.9279" y1="16.8892" x2="250.747" y2="251.711" gradientUnits="userSpaceOnUse">
<stop offset="0.3" stop-color="#FF2D90"/>
<stop offset="0.7" stop-color="#7256FF"/>
</linearGradient>
</defs>
</svg>
