<svg width="16" height="16" viewBox="0 0 16 16" fill="none" xmlns="http://www.w3.org/2000/svg">
<circle cx="7" cy="7" r="4.5" stroke="#6C707E"/>
<path d="M9 7C9 8.31992 8.73143 9.49016 8.32055 10.3119C7.89472 11.1636 7.39894 11.5 7 11.5C6.60106 11.5 6.10528 11.1636 5.67945 10.3119C5.26857 9.49016 5 8.31992 5 7C5 5.68008 5.26857 4.50984 5.67945 3.68807C6.10528 2.8364 6.60106 2.5 7 2.5C7.39894 2.5 7.89472 2.8364 8.32055 3.68807C8.73143 4.50984 9 5.68008 9 7Z" stroke="#6C707E"/>
<path d="M11 5.5H3" stroke="#6C707E"/>
<path d="M11 8.5H3" stroke="#6C707E"/>
<path d="M10.1992 10.2002L13.4992 13.4961" stroke="#6C707E" stroke-linecap="round"/>
</svg>
