<svg xmlns="http://www.w3.org/2000/svg" width="70" height="70" fill="none" viewBox="0 0 70 70">
  <defs>
    <linearGradient id="a" x1="15.119" x2="29.868" y1="15.863" y2="50.017" gradientUnits="userSpaceOnUse">
      <stop offset=".068" stop-color="#FF4EFD"/>
      <stop offset=".964" stop-color="#484DFC"/>
    </linearGradient>
    <linearGradient id="b" x1="3" x2="20.661" y1="17.59" y2="59.863" gradientUnits="userSpaceOnUse">
      <stop stop-color="#DA38FF"/>
      <stop offset=".223" stop-color="#DA38FF"/>
      <stop offset=".828" stop-color="#087CFA"/>
    </linearGradient>
    <linearGradient id="c" x1="36.206" x2="26.213" y1="41.997" y2="12.479" gradientUnits="userSpaceOnUse">
      <stop offset=".281" stop-color="#6B57FF"/>
      <stop offset=".875" stop-color="#9E3DFF"/>
    </linearGradient>
    <linearGradient id="d" x1="8.283" x2="8.283" y1="21.238" y2="32.81" gradientUnits="userSpaceOnUse">
      <stop stop-color="#E19AFB"/>
      <stop offset=".688" stop-color="#EB73FF" stop-opacity=".69"/>
    </linearGradient>
    <linearGradient id="e" x1="53.054" x2="1.084" y1="23.778" y2="53.644" gradientUnits="userSpaceOnUse">
      <stop offset=".044" stop-color="#3BEA62"/>
      <stop offset=".98" stop-color="#009AE5"/>
    </linearGradient>
    <linearGradient id="f" x1="61.803" x2="24.026" y1="31.15" y2="52.859" gradientUnits="userSpaceOnUse">
      <stop offset=".01" stop-color="#3BEA62"/>
      <stop offset=".3" stop-color="#2BD486"/>
      <stop offset=".76" stop-color="#009AE5"/>
    </linearGradient>
    <linearGradient id="g" x1="40.962" x2="54.328" y1="-2.218" y2="27.614" gradientUnits="userSpaceOnUse">
      <stop offset=".193" stop-color="#3BEA62"/>
      <stop offset=".333" stop-color="#39E766"/>
      <stop offset=".474" stop-color="#33E072"/>
      <stop offset=".616" stop-color="#2AD386"/>
      <stop offset=".759" stop-color="#1DC2A2"/>
      <stop offset=".9" stop-color="#0DACC6"/>
      <stop offset="1" stop-color="#009AE5"/>
    </linearGradient>
    <linearGradient id="h" x1="28.912" x2="49.64" y1="9.758" y2="14.213" gradientUnits="userSpaceOnUse">
      <stop offset=".097" stop-color="#A8FF68"/>
      <stop offset=".501" stop-color="#2BD486" stop-opacity="0"/>
    </linearGradient>
    <linearGradient id="i" x1="71.85" x2="54.803" y1="18.029" y2="13.768" gradientUnits="userSpaceOnUse">
      <stop offset=".463" stop-color="#3BEA62"/>
      <stop offset=".98" stop-color="#009AE5"/>
    </linearGradient>
    <linearGradient id="j" x1="34.557" x2="26.506" y1="70.851" y2="26.145" gradientUnits="userSpaceOnUse">
      <stop offset=".044" stop-color="#3BEA62"/>
      <stop offset=".98" stop-color="#009AE5"/>
    </linearGradient>
    <linearGradient id="k" x1="19.012" x2="31.209" y1="24.878" y2="53.122" gradientUnits="userSpaceOnUse">
      <stop stop-color="#C7489F"/>
      <stop offset=".072" stop-color="#C34DA5" stop-opacity=".914"/>
      <stop offset=".216" stop-color="#B95CB4" stop-opacity=".69"/>
      <stop offset=".415" stop-color="#A974CD" stop-opacity=".332"/>
      <stop offset=".585" stop-color="#9B8BE5" stop-opacity="0"/>
    </linearGradient>
    <linearGradient id="l" x1="43.502" x2="9.037" y1="16.333" y2="25.389" gradientUnits="userSpaceOnUse">
      <stop offset=".044" stop-color="#3BEA62"/>
      <stop offset=".98" stop-color="#009AE5"/>
    </linearGradient>
    <linearGradient id="m" x1="22.873" x2="16.976" y1="61.865" y2="34.604" gradientUnits="userSpaceOnUse">
      <stop offset=".373" stop-color="#3BEA62" stop-opacity="0"/>
      <stop offset="1" stop-color="#C931FF"/>
    </linearGradient>
    <linearGradient id="n" x1="16.791" x2="32.414" y1="31.302" y2="29.154" gradientUnits="userSpaceOnUse">
      <stop stop-color="#26B2C4" stop-opacity="0"/>
      <stop offset=".287" stop-color="#43C3AA" stop-opacity=".285"/>
      <stop offset=".953" stop-color="#8CF06A" stop-opacity=".994"/>
      <stop offset=".958" stop-color="#8DF16A"/>
    </linearGradient>
    <linearGradient id="o" x1="56.905" x2="31.041" y1="39.106" y2="70.965" gradientUnits="userSpaceOnUse">
      <stop stop-color="#C7489F"/>
      <stop offset=".072" stop-color="#C34DA5" stop-opacity=".914"/>
      <stop offset=".216" stop-color="#B95CB4" stop-opacity=".69"/>
      <stop offset=".415" stop-color="#A974CD" stop-opacity=".332"/>
      <stop offset=".585" stop-color="#9B8BE5" stop-opacity="0"/>
    </linearGradient>
    <linearGradient id="p" x1="50.1" x2="46.74" y1="45.22" y2="49.359" gradientUnits="userSpaceOnUse">
      <stop offset=".306" stop-color="#EB73FF" stop-opacity="0"/>
      <stop offset="1" stop-color="#BD31FF"/>
    </linearGradient>
    <linearGradient id="q" x1="10.044" x2="32.433" y1="38.973" y2="67.4" gradientUnits="userSpaceOnUse">
      <stop offset=".212" stop-color="#3BEA62"/>
      <stop offset=".98" stop-color="#009AE5"/>
    </linearGradient>
    <linearGradient id="r" x1="61.764" x2="53.24" y1="19.75" y2="44.158" gradientUnits="userSpaceOnUse">
      <stop offset=".097" stop-color="#95F286"/>
      <stop offset=".501" stop-color="#2BD486" stop-opacity="0"/>
    </linearGradient>
    <linearGradient id="s" x1="14.497" x2="54.271" y1="15.097" y2="53.707" gradientUnits="userSpaceOnUse">
      <stop stop-color="#007859"/>
      <stop offset=".088" stop-color="#00533E"/>
      <stop offset=".192" stop-color="#002F23"/>
      <stop offset=".289" stop-color="#001510"/>
      <stop offset=".377" stop-color="#000604"/>
      <stop offset=".445"/>
      <stop offset=".914"/>
    </linearGradient>
    <linearGradient id="t" x1="18.665" x2="29.783" y1="20.163" y2="45.91" gradientUnits="userSpaceOnUse">
      <stop offset=".326" stop-color="#FF318C"/>
      <stop offset=".384" stop-color="#F4358F"/>
      <stop offset=".484" stop-color="#D84099"/>
      <stop offset=".614" stop-color="#AA53A9"/>
      <stop offset=".769" stop-color="#6B6DBF"/>
      <stop offset=".944" stop-color="#1B8EDB"/>
      <stop offset="1" stop-color="#009AE5"/>
    </linearGradient>
    <linearGradient id="u" x1="12.931" x2="19.623" y1="36.073" y2="51.569" gradientUnits="userSpaceOnUse">
      <stop offset=".058" stop-color="#FF318C"/>
      <stop offset=".141" stop-color="#F43492"/>
      <stop offset=".285" stop-color="#D83DA4"/>
      <stop offset=".47" stop-color="#AB4CC1"/>
      <stop offset=".584" stop-color="#8C57D5"/>
      <stop offset=".71" stop-color="#5C6DDA"/>
      <stop offset=".933" stop-color="#009AE5"/>
    </linearGradient>
    <linearGradient id="v" x1="17.713" x2="40.329" y1="20.957" y2="47.968" gradientUnits="userSpaceOnUse">
      <stop offset=".191" stop-color="#FF318C"/>
      <stop offset=".464" stop-color="#8363B7"/>
      <stop offset=".764" stop-color="#009AE5"/>
    </linearGradient>
    <linearGradient id="w" x1="48.477" x2="5.79" y1="27.256" y2="51.786" gradientUnits="userSpaceOnUse">
      <stop offset=".044" stop-color="#3BEA62"/>
      <stop offset=".877" stop-color="#024546"/>
    </linearGradient>
    <linearGradient id="x" x1="40.276" x2="55.352" y1="13.458" y2="22.786" gradientUnits="userSpaceOnUse">
      <stop offset=".097" stop-color="#A8FF68"/>
      <stop offset=".501" stop-color="#2BD486"/>
      <stop offset="1" stop-color="#1686E6"/>
    </linearGradient>
    <linearGradient id="y" x1="31.897" x2="10.594" y1="16.835" y2="58.543" gradientUnits="userSpaceOnUse">
      <stop offset=".044" stop-color="#99EA51"/>
      <stop offset=".98" stop-color="#009AE5"/>
    </linearGradient>
    <linearGradient id="z" x1="54.084" x2="46.128" y1="28.198" y2="58.87" gradientUnits="userSpaceOnUse">
      <stop offset=".097" stop-color="#95F286"/>
      <stop offset=".501" stop-color="#2BD486"/>
    </linearGradient>
  </defs>
  <path fill="url(#a)" d="M33.437 26.129 6.201 19.472 3 27.045l9.818 31.404 26.086 8.95 11.228-18.368L33.437 26.13Z"/>
  <path fill="url(#b)" d="M6.2 19.472 3 27.045l9.818 31.404 4.611-12.94 1.006-7.547-12.234-18.49Z"/>
  <path fill="url(#c)" d="M33.437 26.008 6.201 19.35 3 26.924l32.026 11.075-1.589-11.991Z"/>
  <path fill="url(#d)" d="M6.2 19.473 3 27.045l10.648 3.682-7.447-11.254Z"/>
  <path fill="url(#e)" d="M67.4 21.422 60.852 8.605 27.452 3 12.817 58.449l26.086 8.95L67.4 21.423Z"/>
  <path fill="url(#f)" d="M67.4 21.422 60.854 8.605 38.904 67.4 67.4 21.422Z"/>
  <path fill="url(#g)" d="M67.4 21.422 60.854 8.605 27.453 3 38.56 19.85l28.84 1.572Z"/>
  <path fill="url(#h)" d="M67.4 21.422 60.854 8.605 27.453 3 38.56 19.85l28.84 1.572Z"/>
  <path fill="url(#i)" d="M67.4 21.422 60.854 8.605l-4.559 12.212 11.105.605Z"/>
  <path fill="url(#j)" d="m18.436 37.963-.15-.228-5.468 20.714 26.086 8.95 11.229-18.368-31.697-11.068Z"/>
  <path fill="url(#k)" d="M50.133 49.032 35.542 26.39l-13.461-3.037-9.263 35.095L38.904 67.4l11.229-18.369Z"/>
  <path fill="url(#l)" d="M38.56 19.85 27.452 3 12.817 58.449l13.668-12.94L38.56 19.85Z"/>
  <path fill="url(#m)" d="m12.818 58.449 13.668-12.94 1.914-4.067-9.964-3.48-.15-.227-2.594 9.825-2.874 10.889Z"/>
  <path fill="url(#n)" d="m19.592 32.783 11.08 3.832 4.87-10.224-13.461-3.037-2.489 9.43Z"/>
  <path fill="url(#o)" d="m38.904 67.4 11.228-18.368-2.767-4.295L38.904 67.4Z"/>
  <path fill="url(#p)" d="m50.132 49.032-2.767-4.295-1.1 2.944 3.867 1.35Z"/>
  <path fill="url(#q)" d="M26.486 45.51 12.818 58.449l26.086 8.95-12.418-21.89Z"/>
  <path fill="url(#r)" d="M56.295 20.816 38.904 67.4l28.495-45.978-11.104-.606Z"/>
  <path fill="url(#s)" d="M55 15H15v40h40V15Z"/>
  <g opacity=".2">
    <path fill="url(#t)" d="M15.007 21.561v33.44h30.88l3.823-6.255-16.59-22.758-18.113-4.427Z"/>
    <path fill="url(#u)" d="m15.007 51.436 2.205-6.19 1-7.499-3.205-4.844v18.533Z"/>
    <path fill="url(#v)" d="m15.007 31.094 19.691 6.81-1.578-11.916-18.113-4.427v9.533Z"/>
    <path fill="url(#w)" d="M55.004 40.455V15.003H24.006l-9 34.097V55H45.99l9.015-14.545Z"/>
    <path fill="url(#x)" d="m38.211 19.749 16.793.915v-5.66H35.083l3.128 4.745Z"/>
    <path fill="url(#y)" d="M15.007 49.1V55h.902l10.303-9.753L38.21 19.749l-3.128-4.746H24.006l-9 34.097Z"/>
    <path fill="url(#z)" d="m45.99 55 9.014-14.545V22.932L43.032 55h2.957Z"/>
  </g>
  <path fill="#fff" d="M35 47.444H19.889v2.444h15.11v-2.444Z"/>
  <path fill="#fff" d="M41.824 19.861h2.948L51 34.911h-3.343l-1.328-3.352h-6.145l-1.328 3.351h-3.26l6.228-15.049Zm3.363 8.795-1.93-4.846-1.931 4.846h3.861Z"/>
  <path fill="#fff" d="m33.059 35.358-1.598-1.472a7.762 7.762 0 0 1-4.318 1.28c-4.484 0-7.702-3.436-7.702-7.684v-.043c0-4.248 3.26-7.727 7.743-7.727 4.484 0 7.702 3.437 7.702 7.684v.043a7.82 7.82 0 0 1-1.287 4.29l1.494 1.303-2.034 2.327Zm-3.965-3.628-2.367-2.07 2.035-2.349 2.387 2.22a5.35 5.35 0 0 0 .395-2.05v-.042c0-2.561-1.827-4.696-4.402-4.696-2.574 0-4.359 2.092-4.359 4.654v.042c0 2.562 1.827 4.696 4.401 4.696.706 0 1.35-.128 1.91-.405Z"/>
</svg>
