<svg xmlns="http://www.w3.org/2000/svg" width="80" height="80" fill="none" viewBox="0 0 80 80">
  <defs>
    <linearGradient id="a" x1="16.925" x2="33.873" y1="17.78" y2="57.026" gradientUnits="userSpaceOnUse">
      <stop offset=".068" stop-color="#FF4EFD"/>
      <stop offset=".964" stop-color="#484DFC"/>
    </linearGradient>
    <linearGradient id="b" x1="3" x2="23.293" y1="19.765" y2="68.34" gradientUnits="userSpaceOnUse">
      <stop stop-color="#DA38FF"/>
      <stop offset=".223" stop-color="#DA38FF"/>
      <stop offset=".828" stop-color="#087CFA"/>
    </linearGradient>
    <linearGradient id="c" x1="41.156" x2="29.673" y1="47.81" y2="13.892" gradientUnits="userSpaceOnUse">
      <stop offset=".281" stop-color="#6B57FF"/>
      <stop offset=".875" stop-color="#9E3DFF"/>
    </linearGradient>
    <linearGradient id="d" x1="9.07" x2="9.07" y1="23.957" y2="37.254" gradientUnits="userSpaceOnUse">
      <stop stop-color="#E19AFB"/>
      <stop offset=".688" stop-color="#EB73FF" stop-opacity=".69"/>
    </linearGradient>
    <linearGradient id="e" x1="60.515" x2=".798" y1="26.875" y2="61.193" gradientUnits="userSpaceOnUse">
      <stop offset=".044" stop-color="#3BEA62"/>
      <stop offset=".98" stop-color="#009AE5"/>
    </linearGradient>
    <linearGradient id="f" x1="70.568" x2="27.16" y1="35.346" y2="60.292" gradientUnits="userSpaceOnUse">
      <stop offset=".01" stop-color="#3BEA62"/>
      <stop offset=".3" stop-color="#2BD486"/>
      <stop offset=".76" stop-color="#009AE5"/>
    </linearGradient>
    <linearGradient id="g" x1="46.62" x2="61.979" y1="-2.996" y2="31.284" gradientUnits="userSpaceOnUse">
      <stop offset=".193" stop-color="#3BEA62"/>
      <stop offset=".333" stop-color="#39E766"/>
      <stop offset=".474" stop-color="#33E072"/>
      <stop offset=".616" stop-color="#2AD386"/>
      <stop offset=".759" stop-color="#1DC2A2"/>
      <stop offset=".9" stop-color="#0DACC6"/>
      <stop offset="1" stop-color="#009AE5"/>
    </linearGradient>
    <linearGradient id="h" x1="32.775" x2="56.592" y1="10.765" y2="15.884" gradientUnits="userSpaceOnUse">
      <stop offset=".097" stop-color="#A8FF68"/>
      <stop offset=".501" stop-color="#2BD486" stop-opacity="0"/>
    </linearGradient>
    <linearGradient id="i" x1="82.113" x2="62.525" y1="20.27" y2="15.373" gradientUnits="userSpaceOnUse">
      <stop offset=".463" stop-color="#3BEA62"/>
      <stop offset=".98" stop-color="#009AE5"/>
    </linearGradient>
    <linearGradient id="j" x1="39.261" x2="30.01" y1="80.965" y2="29.596" gradientUnits="userSpaceOnUse">
      <stop offset=".044" stop-color="#3BEA62"/>
      <stop offset=".98" stop-color="#009AE5"/>
    </linearGradient>
    <linearGradient id="k" x1="21.399" x2="35.413" y1="28.14" y2="60.594" gradientUnits="userSpaceOnUse">
      <stop stop-color="#C7489F"/>
      <stop offset=".072" stop-color="#C34DA5" stop-opacity=".914"/>
      <stop offset=".216" stop-color="#B95CB4" stop-opacity=".69"/>
      <stop offset=".415" stop-color="#A974CD" stop-opacity=".332"/>
      <stop offset=".585" stop-color="#9B8BE5" stop-opacity="0"/>
    </linearGradient>
    <linearGradient id="l" x1="49.539" x2="9.937" y1="18.32" y2="28.726" gradientUnits="userSpaceOnUse">
      <stop offset=".044" stop-color="#3BEA62"/>
      <stop offset=".98" stop-color="#009AE5"/>
    </linearGradient>
    <linearGradient id="m" x1="25.836" x2="19.059" y1="70.64" y2="39.315" gradientUnits="userSpaceOnUse">
      <stop offset=".373" stop-color="#3BEA62" stop-opacity="0"/>
      <stop offset="1" stop-color="#C931FF"/>
    </linearGradient>
    <linearGradient id="n" x1="18.847" x2="36.799" y1="35.521" y2="33.053" gradientUnits="userSpaceOnUse">
      <stop stop-color="#26B2C4" stop-opacity="0"/>
      <stop offset=".287" stop-color="#43C3AA" stop-opacity=".285"/>
      <stop offset=".953" stop-color="#8CF06A" stop-opacity=".994"/>
      <stop offset=".958" stop-color="#8DF16A"/>
    </linearGradient>
    <linearGradient id="o" x1="64.941" x2="35.221" y1="44.488" y2="81.096" gradientUnits="userSpaceOnUse">
      <stop stop-color="#C7489F"/>
      <stop offset=".072" stop-color="#C34DA5" stop-opacity=".914"/>
      <stop offset=".216" stop-color="#B95CB4" stop-opacity=".69"/>
      <stop offset=".415" stop-color="#A974CD" stop-opacity=".332"/>
      <stop offset=".585" stop-color="#9B8BE5" stop-opacity="0"/>
    </linearGradient>
    <linearGradient id="p" x1="57.121" x2="53.26" y1="51.513" y2="56.269" gradientUnits="userSpaceOnUse">
      <stop offset=".306" stop-color="#EB73FF" stop-opacity="0"/>
      <stop offset="1" stop-color="#BD31FF"/>
    </linearGradient>
    <linearGradient id="q" x1="11.093" x2="36.82" y1="44.336" y2="77" gradientUnits="userSpaceOnUse">
      <stop offset=".212" stop-color="#3BEA62"/>
      <stop offset=".98" stop-color="#009AE5"/>
    </linearGradient>
    <linearGradient id="r" x1="70.523" x2="60.729" y1="22.246" y2="50.293" gradientUnits="userSpaceOnUse">
      <stop offset=".097" stop-color="#95F286"/>
      <stop offset=".501" stop-color="#2BD486" stop-opacity="0"/>
    </linearGradient>
    <linearGradient id="s" x1="16.421" x2="62.161" y1="17.111" y2="61.513" gradientUnits="userSpaceOnUse">
      <stop stop-color="#007859"/>
      <stop offset=".088" stop-color="#00533E"/>
      <stop offset=".192" stop-color="#002F23"/>
      <stop offset=".289" stop-color="#001510"/>
      <stop offset=".377" stop-color="#000604"/>
      <stop offset=".445"/>
      <stop offset=".914"/>
    </linearGradient>
    <linearGradient id="t" x1="21.214" x2="34" y1="22.938" y2="52.546" gradientUnits="userSpaceOnUse">
      <stop offset=".326" stop-color="#FF318C"/>
      <stop offset=".384" stop-color="#F4358F"/>
      <stop offset=".484" stop-color="#D84099"/>
      <stop offset=".614" stop-color="#AA53A9"/>
      <stop offset=".769" stop-color="#6B6DBF"/>
      <stop offset=".944" stop-color="#1B8EDB"/>
      <stop offset="1" stop-color="#009AE5"/>
    </linearGradient>
    <linearGradient id="u" x1="14.62" x2="22.315" y1="41.233" y2="59.054" gradientUnits="userSpaceOnUse">
      <stop offset=".058" stop-color="#FF318C"/>
      <stop offset=".141" stop-color="#F43492"/>
      <stop offset=".285" stop-color="#D83DA4"/>
      <stop offset=".47" stop-color="#AB4CC1"/>
      <stop offset=".584" stop-color="#8C57D5"/>
      <stop offset=".71" stop-color="#5C6DDA"/>
      <stop offset=".933" stop-color="#009AE5"/>
    </linearGradient>
    <linearGradient id="v" x1="20.119" x2="46.127" y1="23.85" y2="54.912" gradientUnits="userSpaceOnUse">
      <stop offset=".191" stop-color="#FF318C"/>
      <stop offset=".464" stop-color="#8363B7"/>
      <stop offset=".764" stop-color="#009AE5"/>
    </linearGradient>
    <linearGradient id="w" x1="55.497" x2="6.408" y1="31.093" y2="59.304" gradientUnits="userSpaceOnUse">
      <stop offset=".044" stop-color="#3BEA62"/>
      <stop offset=".877" stop-color="#024546"/>
    </linearGradient>
    <linearGradient id="x" x1="46.066" x2="63.403" y1="15.226" y2="25.954" gradientUnits="userSpaceOnUse">
      <stop offset=".097" stop-color="#A8FF68"/>
      <stop offset=".501" stop-color="#2BD486"/>
      <stop offset="1" stop-color="#1686E6"/>
    </linearGradient>
    <linearGradient id="y" x1="36.43" x2="11.931" y1="19.11" y2="67.074" gradientUnits="userSpaceOnUse">
      <stop offset=".044" stop-color="#99EA51"/>
      <stop offset=".98" stop-color="#009AE5"/>
    </linearGradient>
    <linearGradient id="z" x1="61.946" x2="52.796" y1="32.177" y2="67.45" gradientUnits="userSpaceOnUse">
      <stop offset=".097" stop-color="#95F286"/>
      <stop offset=".501" stop-color="#2BD486"/>
    </linearGradient>
  </defs>
  <path fill="url(#a)" d="M37.974 29.577 6.678 21.928 3 30.629l11.281 36.085L44.257 77l12.902-21.106-19.184-26.316Z"/>
  <path fill="url(#b)" d="M6.678 21.928 3 30.629l11.281 36.085 5.3-14.868 1.155-8.672L6.678 21.928Z"/>
  <path fill="url(#c)" d="m37.974 29.438-31.296-7.65L3 30.49l36.8 12.726-1.826-13.778Z"/>
  <path fill="url(#d)" d="M6.678 21.928 3 30.63l12.235 4.23-8.557-12.932Z"/>
  <path fill="url(#e)" d="M77 24.168 69.477 9.44 31.097 3 14.28 66.715 44.255 77 77 24.168Z"/>
  <path fill="url(#f)" d="M77 24.168 69.478 9.44 44.256 77 77 24.168Z"/>
  <path fill="url(#g)" d="M77 24.168 69.478 9.44 31.098 3 43.86 22.362 77 24.168Z"/>
  <path fill="url(#h)" d="M77 24.168 69.478 9.44 31.098 3 43.86 22.362 77 24.168Z"/>
  <path fill="url(#i)" d="M77 24.168 69.478 9.44 64.24 23.472l12.76.696Z"/>
  <path fill="url(#j)" d="m20.736 43.174-.172-.261-6.282 23.801L44.256 77l12.902-21.106-36.422-12.719Z"/>
  <path fill="url(#k)" d="M57.158 55.893 40.393 29.878l-15.468-3.49-10.643 40.327L44.256 77l12.902-21.107Z"/>
  <path fill="url(#l)" d="M43.86 22.362 31.098 3 14.28 66.715l15.705-14.869L43.86 22.362Z"/>
  <path fill="url(#m)" d="m14.282 66.714 15.704-14.868 2.2-4.673-11.45-3.999-.172-.261-2.98 11.29-3.302 12.511Z"/>
  <path fill="url(#n)" d="m22.065 37.223 12.731 4.403 5.597-11.748-15.468-3.49-2.86 10.835Z"/>
  <path fill="url(#o)" d="m44.256 77 12.902-21.107-3.18-4.934L44.256 77Z"/>
  <path fill="url(#p)" d="m57.158 55.893-3.18-4.934-1.263 3.383 4.443 1.551Z"/>
  <path fill="url(#q)" d="M29.986 51.846 14.282 66.715 44.256 77l-14.27-25.154Z"/>
  <path fill="url(#r)" d="M64.24 23.472 44.255 77l32.743-52.831-12.76-.696Z"/>
  <path fill="url(#s)" d="M63 17H17v46h46V17Z"/>
  <g opacity=".2">
    <path fill="url(#t)" d="M17.007 24.545V63h35.512l4.396-7.192-19.078-26.172-20.83-5.09Z"/>
    <path fill="url(#u)" d="m17.007 58.9 2.536-7.117 1.15-8.624-3.686-5.57V58.9Z"/>
    <path fill="url(#v)" d="m17.007 35.508 22.645 7.831-1.815-13.703-20.83-5.09v10.962Z"/>
    <path fill="url(#w)" d="M63.003 46.273v-29.27H27.355l-10.348 39.21V63h35.63l10.366-16.727Z"/>
    <path fill="url(#x)" d="m43.691 22.46 19.313 1.053v-6.51h-22.91l3.597 5.457Z"/>
    <path fill="url(#y)" d="M17.007 56.214V63h1.037l11.848-11.217 13.8-29.323-3.598-5.457H27.355l-10.348 39.21Z"/>
    <path fill="url(#z)" d="m52.636 63 10.368-16.727V26.122L49.236 63h3.4Z"/>
  </g>
  <path fill="#fff" d="M40 54.31H22.621v2.812h17.377V54.31Z"/>
  <path fill="#fff" d="M47.848 22.59h3.39L58.4 39.898h-3.844l-1.528-3.854h-7.066l-1.528 3.854h-3.748l7.162-17.306Zm3.867 10.114-2.22-5.572-2.22 5.572h4.44Z"/>
  <path fill="#fff" d="m37.768 40.413-1.839-1.694c-1.408.932-3.103 1.472-4.965 1.472-5.157 0-8.857-3.952-8.857-8.837v-.049c0-4.885 3.748-8.886 8.905-8.886 5.156 0 8.856 3.952 8.856 8.837v.05a8.99 8.99 0 0 1-1.48 4.933l1.72 1.498-2.34 2.675Zm-4.56-4.174-2.722-2.38 2.34-2.701 2.745 2.553a6.169 6.169 0 0 0 .454-2.357v-.049c0-2.945-2.1-5.4-5.061-5.4-2.96 0-5.013 2.405-5.013 5.351v.05c0 2.945 2.1 5.4 5.06 5.4.812 0 1.552-.148 2.197-.467Z"/>
</svg>
