<svg width="16" height="16" viewBox="0 0 16 16" fill="none" xmlns="http://www.w3.org/2000/svg">
  <path fill-rule="evenodd" clip-rule="evenodd"
        d="M8.96411 9.05059C8.93615 8.77587 9.13618 8.53049 9.41091 8.50253C12.1016 8.22866 13.3409 7.41851 13.9208 6.71016C14.4716 6.03741 14.4986 5.37311 14.4999 5.09477C14.4831 5.0825 14.4542 5.06475 14.4082 5.04502C14.2621 4.98222 14.0636 4.94966 13.9265 4.94367L13.9164 4.94323L13.9164 4.94313L11.0259 4.75851C10.8998 4.75045 10.7814 4.69495 10.6946 4.60317L10.2964 4.1823C10.2964 4.18229 10.2964 4.18229 10.2963 4.18228C9.92176 3.78642 9.37624 3.54062 8.78414 3.51698H8.78413L8.35797 3.49996H7C6.72386 3.49996 6.5 3.2761 6.5 2.99996C6.5 2.72382 6.72386 2.49996 7 2.49996H8.36796C8.37461 2.49996 8.38126 2.50009 8.38791 2.50036L8.82403 2.51778C8.82404 2.51778 8.82404 2.51778 8.82404 2.51778C9.6627 2.55126 10.4592 2.89949 11.0227 3.49499L11.0227 3.495L11.2858 3.77307L13.9755 3.94487C14.1891 3.95474 14.5134 4.0018 14.803 4.12623C15.0718 4.24171 15.5 4.51491 15.5 5.05385C15.5 5.36864 15.4992 6.36083 14.6946 7.34365C13.8899 8.32649 12.36 9.20753 9.51217 9.49739C9.23745 9.52535 8.99207 9.32532 8.96411 9.05059Z"
        fill="#AFB1B3"/>
  <path fill-rule="evenodd" clip-rule="evenodd"
        d="M10.7236 8.55289C10.9706 8.67638 11.0707 8.97672 10.9472 9.22371C10.8594 9.39928 10.7787 9.54871 10.704 9.68714C10.5405 9.98988 10.4054 10.24 10.2868 10.5957C10.1221 11.09 10 11.7821 10 13.0001C10 13.2763 9.77614 13.5001 9.5 13.5001C9.22386 13.5001 9 13.2763 9 13.0001C9 11.7181 9.12793 10.9102 9.33817 10.2795C9.48558 9.83725 9.68082 9.47512 9.86114 9.14065C9.92815 9.01634 9.99311 8.89586 10.0528 8.77651C10.1763 8.52952 10.4766 8.4294 10.7236 8.55289Z"
        fill="#AFB1B3"/>
  <path fill-rule="evenodd" clip-rule="evenodd"
        d="M5.70628 6.45559C5.45473 6.56951 5.15846 6.45795 5.04454 6.2064C4.56345 5.14414 4.51792 4.01111 4.64971 3.04631C4.78111 2.08439 5.09433 1.24778 5.38013 0.750844C5.47688 0.582614 5.66224 0.485567 5.85562 0.501894C6.049 0.518222 6.21547 0.644975 6.28265 0.827045L7.46909 4.04268C7.56468 4.30175 7.43215 4.58925 7.17308 4.68484C6.91401 4.78043 6.6265 4.6479 6.53091 4.38883L5.79762 2.40137C5.73323 2.64249 5.67831 2.90497 5.64051 3.18165C5.52564 4.02261 5.57455 4.95277 5.95547 5.79384C6.06939 6.04539 5.95783 6.34166 5.70628 6.45559Z"
        fill="#AFB1B3"/>
  <path fill-rule="evenodd" clip-rule="evenodd"
        d="M5.68569 5.53565C5.94208 5.63821 6.06679 5.92919 5.96423 6.18558L4.96423 8.68558C4.86168 8.94198 4.57069 9.06668 4.3143 8.96413C4.05791 8.86157 3.9332 8.57059 4.03576 8.31419L5.03576 5.81419C5.13831 5.5578 5.4293 5.43309 5.68569 5.53565Z"
        fill="#AFB1B3"/>
  <path fill-rule="evenodd" clip-rule="evenodd"
        d="M5.4305 13.6376C5.00529 13.8687 4.51798 14 4 14C2.34315 14 1 12.6569 1 11C1 9.34315 2.34315 8 4 8C5.65685 8 7 9.34315 7 11C7 11.7757 6.70556 12.4827 6.22235 13.0153L7.85356 14.6465L7.14645 15.3536L5.4305 13.6376ZM6 11C6 12.1046 5.10457 13 4 13C2.89543 13 2 12.1046 2 11C2 9.89543 2.89543 9 4 9C5.10457 9 6 9.89543 6 11Z"
        fill="#AFB1B3"/>
  <path d="M10 5.5C10 5.77614 9.77614 6 9.5 6C9.22386 6 9 5.77614 9 5.5C9 5.22386 9.22386 5 9.5 5C9.77614 5 10 5.22386 10 5.5Z"
        fill="#AFB1B3"/>
  <path d="M15 5C15 5.55228 14.5523 6 14 6C13.4477 6 13 5.55228 13 5C13 4.44772 13.4477 4 14 4C14.5523 4 15 4.44772 15 5Z" fill="#AFB1B3"/>
</svg>
