<!-- Copyright © 2000–2024 JetBrains s.r.o. -->
<svg width="32" height="32" viewBox="0 0 32 32" xmlns="http://www.w3.org/2000/svg">
  <defs>
    <linearGradient id="a" x1="4445.17" x2="4418.44" y1="-4274.81" y2="-4287.2" gradientTransform="matrix(1 0 0 -1 -4417 -4275)" gradientUnits="userSpaceOnUse">
      <stop offset=".18" stop-color="#6b57ff"/>
      <stop offset=".54" stop-color="#ff45ed"/>
    </linearGradient>
    <linearGradient id="b" x1="4419.03" x2="4448.33" y1="-4277.15" y2="-4306.46" gradientTransform="matrix(1 0 0 -1 -4417 -4275)" gradientUnits="userSpaceOnUse">
      <stop offset=".12" stop-color="#ff45ed"/>
      <stop offset=".92" stop-color="#fc801d"/>
    </linearGradient>
  </defs>
  <path fill="#6b57ff" d="M29 8.22V2.09C29 .95 28.05.02 26.91.03l-5.52.09c-.59.01-1.15.28-1.53.72L3.5 19.92c-.32.38-.5.85-.5 1.35v5.67c0 1.14.93 2.07 2.06 2.07h5.5c.59 0 1.16-.26 1.55-.71L28.49 9.59c.33-.38.51-.86.51-1.36Z"/>
  <path fill="url(#a)" d="M29 7.49V2.06C29 .92 28.07 0 26.94 0h-6.28c-.1 0-.2 0-.3.02L1.76 2.74A2.065 2.065 0 0 0 0 4.78v7.7c0 1.14.93 2.06 2.06 2.06h9.25c.22 0 .43-.04.62-.1l15.62-4.99c.85-.28 1.44-1.07 1.44-1.97Z"/>
  <path fill="url(#b)" d="M32 29.93V12.88c0-.83-.5-1.58-1.26-1.9l-18.71-7.9c-.26-.11-.54-.13-.82-.12H2.04C.91 2.96 0 3.92 0 5.06v8.84c0 .4.12.79.34 1.13l10.55 16.05c.38.58 1.02.93 1.72.93h17.32c1.14 0 2.06-.92 2.06-2.07Z"/>
  <path d="M26 6H6v20h20z"/>
  <path fill="#fff" d="M21.76 13.02h1.94l-.06.24q-.18.855-.72 1.5c-.35.43-.82.77-1.36 1.01q-.81.36-1.77.36c-.77 0-1.47-.18-2.08-.55-.62-.35-1.11-.86-1.46-1.48-.35-.63-.54-1.33-.54-2.1s.18-1.48.54-2.1c.34-.63.84-1.12 1.46-1.49.62-.35 1.31-.54 2.08-.54.64 0 1.23.12 1.77.35.54.24.99.59 1.36 1.01.35.43.6.94.72 1.51l.06.24h-1.94l-.05-.13c-.09-.25-.22-.47-.4-.66q-.255-.27-.66-.42a2.1 2.1 0 0 0-.84-.16q-.615 0-1.11.3c-.33.21-.6.5-.78.85-.19.37-.28.77-.28 1.23s.1.87.28 1.23c.18.34.45.63.78.84s.7.3 1.11.3c.3 0 .59-.04.84-.15.25-.1.48-.24.66-.42.18-.19.31-.41.4-.66l.05-.13Zm-7.22-3.07c-.33-.61-.81-1.08-1.42-1.43-.6-.34-1.28-.53-2.03-.53H8v8h3.09c.76 0 1.45-.17 2.03-.52.61-.34 1.07-.82 1.42-1.43.33-.61.51-1.29.51-2.05s-.17-1.46-.51-2.05Zm-3.47 4.36H9.89V9.69h1.18c.41 0 .79.09 1.09.27s.54.45.71.79c.17.35.25.77.25 1.25s-.08.9-.25 1.25-.4.6-.71.78c-.3.18-.68.27-1.09.27ZM16 22H8v2h8z"/>
</svg>
