<svg width="32" height="32" viewBox="0 0 32 32" fill="none" xmlns="http://www.w3.org/2000/svg">
<path d="M14.5 17.7L11.7 19.3L11.5 22.3L7.39995 24L2.19995 24.5L3.29995 5.99998L13.9 1.59998L25.4 12.1L14.5 17.7Z" fill="url(#paint0_linear)"/>
<path d="M21.2 6.5L30.2999 12.6L27.2 19.3L22.1 17.9H17.7L21.2 6.5Z" fill="url(#paint1_linear)"/>
<path d="M16.3 22.9L8.69995 5.19998L13.9 1.59998L30.2 12.6L16.3 22.9Z" fill="url(#paint2_linear)"/>
<path d="M3.30005 5.99998L13.9 1.59998L8.70005 5.19998L3.30005 5.99998Z" fill="url(#paint3_linear)"/>
<path d="M3.3 5.99998L13.9 1.59998L8.7 5.19998L1.5 24.7L3.3 5.99998Z" fill="url(#paint4_linear)"/>
<path d="M12.4 11.1L17.1 26.2999L11.5 30.5L1.5 24.7L4.1 17.4L12.1 9.19995L12.4 11.1Z" fill="#21D789"/>
<path d="M10.4 23L1.59998 24.7L11.5 30.4L17.1 26.3L10.4 23Z" fill="url(#paint5_linear)"/>
<path d="M10.4 23L1.5 24.7L4.1 17.4L12.1 9.19995L10.4 23Z" fill="url(#paint6_linear)"/>
<path d="M12.8 22.3L17 26.3L11.5 30.5L12.8 22.3Z" fill="url(#paint7_linear)"/>
<path d="M30.4 27.4L21.6 30.4L9.90002 27.1L12.1 9.19998L23 1.59998L24.1 9.49998L21.2 16L26.9 13.8L28 18.1L30.4 27.4Z" fill="url(#paint8_linear)"/>
<path d="M30.4 27.4L21.6 30.4L26.9 13.8L30.4 27.4Z" fill="url(#paint9_linear)"/>
<path d="M23 1.59998L18.9 10.8L15.6 17.9L21.2 16L24.2 9.49998L23 1.59998Z" fill="url(#paint10_linear)"/>
<path d="M3.30005 5.99998L13.9 1.59998L8.70005 5.19998L3.30005 5.99998Z" fill="url(#paint11_linear)"/>
<path d="M30.4 27.4L21.6 30.4L9.90002 27.1L17 26.4L30.4 27.4Z" fill="url(#paint12_linear)"/>
<path d="M22.8 26.8L21.6 30.4L30.5 27.4L22.8 26.8Z" fill="url(#paint13_linear)"/>
<path d="M25 7H7V25H25V7Z" fill="url(#paint14_linear)"/>
<path d="M15.9 21.4H9.09998V23H15.9V21.4Z" fill="white"/>
<path d="M9 9.20001H11.7C13.3 9.20001 14.3 10.2 14.3 11.5C14.3 13.1 13.1 13.9 11.6 13.9H10.4V15.9H9V9.20001ZM11.6 12.7C12.3 12.7 12.8 12.2 12.8 11.6C12.8 10.9 12.3 10.6 11.6 10.6H10.4V12.7H11.6Z" fill="white"/>
<path d="M15.1 12.5C15.1 10.6 16.5 9 18.6 9C19.9 9 20.6 9.4 21.3 10L20.4 11.1C19.9 10.6 19.4 10.3 18.7 10.3C17.6 10.3 16.7 11.2 16.7 12.4C16.7 13.6 17.5 14.5 18.7 14.5C19.5 14.5 19.9 14.2 20.5 13.7L21.4 14.7C20.7 15.4 19.9 15.9 18.6 15.9C16.6 16 15.1 14.5 15.1 12.5Z" fill="white"/>
<defs>
<linearGradient id="paint0_linear" x1="-7.96865" y1="25.5052" x2="26.9567" y2="-0.276625" gradientUnits="userSpaceOnUse">
<stop offset="0.0107527" stop-color="#FCF84A"/>
<stop offset="0.1116" stop-color="#A7EB62"/>
<stop offset="0.2056" stop-color="#5FE077"/>
<stop offset="0.2727" stop-color="#32DA84"/>
<stop offset="0.3065" stop-color="#21D789"/>
<stop offset="0.5768" stop-color="#21D789"/>
<stop offset="0.5968" stop-color="#21D789"/>
<stop offset="0.686" stop-color="#20D68C"/>
<stop offset="0.7627" stop-color="#1ED497"/>
<stop offset="0.8348" stop-color="#19D1A9"/>
<stop offset="0.904" stop-color="#13CCC2"/>
<stop offset="0.9707" stop-color="#0BC6E1"/>
<stop offset="1" stop-color="#07C3F2"/>
</linearGradient>
<linearGradient id="paint1_linear" x1="21.9884" y1="8.9187" x2="26.2032" y2="22.2466" gradientUnits="userSpaceOnUse">
<stop  offset="0" stop-color="#009AE5"/>
<stop offset="1" stop-color="#07C3F2"/>
</linearGradient>
<linearGradient id="paint2_linear" x1="5.19345" y1="7.75148" x2="27.1908" y2="17.7097" gradientUnits="userSpaceOnUse">
<stop offset="0.0344093" stop-color="#10E899"/>
<stop offset="0.1745" stop-color="#13E596"/>
<stop offset="0.2947" stop-color="#1EDA8C"/>
<stop offset="0.3185" stop-color="#21D789"/>
<stop offset="0.3975" stop-color="#20D68C"/>
<stop offset="0.4653" stop-color="#1ED497"/>
<stop offset="0.529" stop-color="#19D1A9"/>
<stop offset="0.5903" stop-color="#13CCC2"/>
<stop offset="0.6492" stop-color="#0BC6E1"/>
<stop offset="0.6752" stop-color="#07C3F2"/>
<stop offset="0.9215" stop-color="#07EBFF"/>
</linearGradient>
<linearGradient id="paint3_linear" x1="9.85615" y1="5.61768" x2="7.92695" y2="2.73908" gradientUnits="userSpaceOnUse">
<stop  offset="0" stop-color="#07C3F2"/>
<stop offset="0.1949" stop-color="#0BC6E2"/>
<stop offset="0.5746" stop-color="#15CEB8"/>
<stop offset="0.9463" stop-color="#21D789"/>
</linearGradient>
<linearGradient id="paint4_linear" x1="-1.6344" y1="8.43048" x2="9.6124" y2="14.0539" gradientUnits="userSpaceOnUse">
<stop offset="0.030218" stop-color="#C1EF5B"/>
<stop offset="0.2486" stop-color="#9DEA65"/>
<stop offset="0.7318" stop-color="#41DC80"/>
<stop offset="0.896" stop-color="#21D789"/>
</linearGradient>
<linearGradient id="paint5_linear" x1="12.6384" y1="17.3607" x2="6.16798" y2="33.1204" gradientUnits="userSpaceOnUse">
<stop offset="0.1026" stop-color="#087CFA"/>
<stop offset="0.2273" stop-color="#0C89EA" stop-opacity="0.8064"/>
<stop offset="0.4716" stop-color="#15ABC0" stop-opacity="0.427"/>
<stop offset="0.7466" stop-color="#21D789" stop-opacity="0"/>
</linearGradient>
<linearGradient id="paint6_linear" x1="6.6341" y1="8.49495" x2="7.0092" y2="24.6753" gradientUnits="userSpaceOnUse">
<stop offset="0.0108126" stop-color="#FCF84A"/>
<stop offset="0.0924045" stop-color="#ECF64F"/>
<stop offset="0.2525" stop-color="#C1EF5B"/>
<stop offset="0.4754" stop-color="#7DE56F"/>
<stop offset="0.7466" stop-color="#21D789"/>
</linearGradient>
<linearGradient id="paint7_linear" x1="11.4616" y1="26.3784" x2="17.0186" y2="26.3784" gradientUnits="userSpaceOnUse">
<stop  offset="0" stop-color="#13A5C7"/>
<stop offset="1" stop-color="#21D789"/>
</linearGradient>
<linearGradient id="paint8_linear" x1="36.382" y1="28.5784" x2="6.72993" y2="7.34527" gradientUnits="userSpaceOnUse">
<stop offset="0.4732" stop-color="#FCF84A"/>
<stop offset="0.5319" stop-color="#ECF74C"/>
<stop offset="0.647" stop-color="#C1F451"/>
<stop offset="0.8056" stop-color="#7EEF5A"/>
<stop offset="0.9489" stop-color="#3BEA62"/>
</linearGradient>
<linearGradient id="paint9_linear" x1="35.5877" y1="20.1523" x2="11.9223" y2="24.1677" gradientUnits="userSpaceOnUse">
<stop offset="0.2756" stop-color="#FCF84A"/>
<stop offset="0.3649" stop-color="#ECF74C"/>
<stop offset="0.5402" stop-color="#C1F451"/>
<stop offset="0.7817" stop-color="#7EEF5A"/>
<stop offset="1" stop-color="#3BEA62"/>
</linearGradient>
<linearGradient id="paint10_linear" x1="26.3512" y1="19.4749" x2="17.409" y2="7.05837" gradientUnits="userSpaceOnUse">
<stop offset="0.1216" stop-color="#FCF84A"/>
<stop offset="0.2021" stop-color="#F3F74B"/>
<stop offset="0.3351" stop-color="#DAF350"/>
<stop offset="0.5044" stop-color="#B1ED56"/>
<stop offset="0.7031" stop-color="#78E55F"/>
<stop offset="0.9242" stop-color="#30DB6B"/>
<stop offset="1" stop-color="#16D76F"/>
</linearGradient>
<linearGradient id="paint11_linear" x1="4.06095" y1="3.31078" x2="12.1147" y2="4.12088" gradientUnits="userSpaceOnUse">
<stop  offset="0" stop-color="#FCF84A"/>
<stop offset="0.1636" stop-color="#D8F957"/>
<stop offset="0.529" stop-color="#7BFC79"/>
<stop offset="0.9855" stop-color="#00FFA6"/>
</linearGradient>
<linearGradient id="paint12_linear" x1="29.9613" y1="26.3353" x2="7.58802" y2="30.1314" gradientUnits="userSpaceOnUse">
<stop offset="0.0899703" stop-color="#3BEA62"/>
<stop offset="0.1675" stop-color="#67ED5C"/>
<stop offset="0.25" stop-color="#8FF058"/>
<stop offset="0.3382" stop-color="#B1F353"/>
<stop offset="0.4319" stop-color="#CCF550"/>
<stop offset="0.5329" stop-color="#E1F64D"/>
<stop offset="0.6448" stop-color="#F0F74B"/>
<stop offset="0.776" stop-color="#F9F84A"/>
<stop offset="0.9744" stop-color="#FCF84A"/>
</linearGradient>
<linearGradient id="paint13_linear" x1="23.7577" y1="25.793" x2="28.3803" y2="32.0836" gradientUnits="userSpaceOnUse">
<stop  offset="0" stop-color="#3BEA62"/>
<stop offset="0.0877078" stop-color="#67ED5C"/>
<stop offset="0.1809" stop-color="#8FF058"/>
<stop offset="0.2807" stop-color="#B1F353"/>
<stop offset="0.3866" stop-color="#CCF550"/>
<stop offset="0.5008" stop-color="#E1F64D"/>
<stop offset="0.6273" stop-color="#F0F74B"/>
<stop offset="0.7757" stop-color="#F9F84A"/>
<stop offset="1" stop-color="#FCF84A"/>
</linearGradient>
<linearGradient id="paint14_linear" x1="6.7037" y1="8.4211" x2="25.1667" y2="23.4732" gradientUnits="userSpaceOnUse">
<stop  offset="0" stop-color="#1D510B"/>
<stop offset="0.535772"/>
</linearGradient>
</defs>
</svg>
