<svg width="64" height="64" viewBox="0 0 64 64" fill="none" xmlns="http://www.w3.org/2000/svg">
<path d="M60.0999 47.3L60.9999 22.1L44.9999 18.5L31.3999 27.6L37.6999 46.3L60.0999 47.3Z" fill="url(#paint0_linear)"/>
<path d="M60.1 47.2996L61 22.0996L56.5 33.7996L60.1 47.2996Z" fill="url(#paint1_linear)"/>
<path d="M56.5 33.8002L61 22.1002L45.3 15.2002L27.5 31.6002L56.5 33.8002Z" fill="url(#paint2_linear)"/>
<path d="M56.5 33.8002L61 22.1002L45.3 15.2002L27.5 31.6002L56.5 33.8002Z" fill="url(#paint3_linear)"/>
<path d="M43 34.7002L45.3 15.2002L27.5 31.6002L43 34.7002Z" fill="url(#paint4_linear)"/>
<path d="M40.1 61.0004L60.1 47.3004L12 25.9004L3 51.6004L40.1 61.0004Z" fill="url(#paint5_linear)"/>
<path d="M28.7 37.9004L12 25.9004L3 51.6004L28.7 37.9004Z" fill="url(#paint6_linear)"/>
<path d="M60.1001 47.2998L40.1001 60.9998L56.5001 33.7998L60.1001 47.2998Z" fill="url(#paint7_linear)"/>
<path d="M60.1001 47.3002L40.1001 61.0002L50.9001 43.2002L60.1001 47.3002Z" fill="url(#paint8_linear)"/>
<path d="M3 25.2L35 49.5L56.5 33.8L32 6.6L10.7 3L3 25.2Z" fill="url(#paint9_linear)"/>
<path d="M25.8999 42.5996L34.9999 49.4996L56.4999 33.7996L34.6999 25.0996L25.8999 42.5996Z" fill="url(#paint10_linear)"/>
<path d="M43.7 28.6996L34.7 25.0996L37.5 32.4996L43.2 32.8996L43.7 28.6996Z" fill="url(#paint11_linear)"/>
<path d="M43.2 32.9002L56.5 33.8002L43.7 28.7002L43.2 32.9002Z" fill="url(#paint12_linear)"/>
<path d="M43.7 28.6996L34.7 25.0996L42.4 39.1996L43.7 28.6996Z" fill="url(#paint13_linear)"/>
<path d="M3 25.1996L35 49.4996L19.1 20.5996L3 25.1996Z" fill="url(#paint14_linear)"/>
<path d="M10.3 30.8004L35 49.5004L25.3 31.8004L12 25.9004L10.3 30.8004Z" fill="url(#paint15_linear)"/>
<path d="M56.5 33.7998L35 49.4998L41 59.8998L56.5 33.7998Z" fill="url(#paint16_linear)"/>
<path d="M25.8999 42.5996L34.9999 49.4996L28.3999 37.5996L25.8999 42.5996Z" fill="url(#paint17_linear)"/>
<path d="M3 25.2L19.1 20.6L32 6.6L10.7 3L3 25.2Z" fill="url(#paint18_linear)"/>
<path d="M32 6.59961L24 15.2996L34.7 25.0996L56.5 33.7996L32 6.59961Z" fill="url(#paint19_linear)"/>
<path d="M34.6001 24.9994L34.7001 25.0994L43.7001 28.6994L44.6001 20.5994L42.3001 17.8994L34.6001 24.9994Z" fill="url(#paint20_linear)"/>
<path d="M32 6.6L10.7 3L24 15.3L32 6.6Z" fill="url(#paint21_linear)"/>
<path d="M3 25.2L19.1 20.6L32 6.6L10.7 3L3 25.2Z" fill="url(#paint22_linear)"/>
<path d="M50 14H14V50H50V14Z" fill="url(#paint23_linear)"/>
<g opacity="0.3">
<path opacity="0.3" d="M50 38.3998L14 26.7998V49.9998H50V38.3998Z" fill="url(#paint24_linear)"/>
<path opacity="0.3" d="M14 45.6998L28.8 37.8998L14 27.2998V45.6998Z" fill="url(#paint25_linear)"/>
<path opacity="0.3" d="M50 17.3998L45.2 15.2998L27.5 31.5998L50 33.2998V17.3998Z" fill="url(#paint26_linear)"/>
<path opacity="0.3" d="M38.5 14H25.4L19.2 20.7L34.9 49.4L50 38.4V26.7L38.5 14Z" fill="url(#paint27_linear)"/>
<path opacity="0.3" d="M14 33.4002L34.9 49.4002L19.2 20.7002L14 22.2002V33.4002Z" fill="url(#paint28_linear)"/>
<path opacity="0.3" d="M19.2 20.7L25.4 14H14V22.2L19.2 20.7Z" fill="url(#paint29_linear)"/>
</g>
<path d="M31.9999 43.2002H18.3999V45.4002H31.9999V43.2002Z" fill="white"/>
<path d="M18.3999 18.4004H23.8999C27.0999 18.4004 29.0999 20.3004 29.0999 23.1004C29.0999 26.2004 26.6999 27.9004 23.5999 27.9004H21.3999V32.0004H18.3999V18.4004V18.4004ZM23.6999 25.2004C25.1999 25.2004 26.0999 24.3004 26.0999 23.1004C26.0999 21.8004 25.1999 21.0004 23.6999 21.0004H21.3999V25.2004H23.6999Z" fill="white"/>
<path d="M29 30.0857L30.8804 28.0038C31.6639 28.8545 32.4026 29.347 33.3428 29.347C34.4621 29.347 35.156 28.6754 35.156 27.1084V18.4004H38.2229V27.2427C38.2229 28.8545 37.7528 30.0409 36.9469 30.8468C36.1186 31.6751 34.9098 32.1004 33.4324 32.1004C31.3281 32.1004 29.9402 31.1826 29 30.0857Z" fill="white"/>
<defs>
<linearGradient id="paint0_linear" x1="52.5322" y1="43.3234" x2="44.1291" y2="19.0478" gradientUnits="userSpaceOnUse">
<stop offset="0.000825369" stop-color="#FF318C"/>
<stop offset="1" stop-color="#FE6C54"/>
</linearGradient>
<linearGradient id="paint1_linear" x1="68.1427" y1="33.6748" x2="47.9355" y2="36.327" gradientUnits="userSpaceOnUse">
<stop offset="0.3305" stop-color="#FF318C"/>
<stop offset="0.9422" stop-color="#B045ED"/>
</linearGradient>
<linearGradient id="paint2_linear" x1="54.4882" y1="16.8286" x2="45.2949" y2="28.5041" gradientUnits="userSpaceOnUse">
<stop  offset="0" stop-color="#FF546A"/>
<stop offset="0.7814" stop-color="#FE764A"/>
</linearGradient>
<linearGradient id="paint3_linear" x1="64.0116" y1="23.5314" x2="48.2247" y2="24.668" gradientUnits="userSpaceOnUse">
<stop offset="0.1065" stop-color="#FCBCC3" stop-opacity="0.96"/>
<stop offset="0.7261" stop-color="#FF4694" stop-opacity="0.1407"/>
<stop offset="0.8325" stop-color="#FF318C" stop-opacity="0"/>
</linearGradient>
<linearGradient id="paint4_linear" x1="47.8774" y1="17.1119" x2="40.0849" y2="27.0083" gradientUnits="userSpaceOnUse">
<stop offset="0.016776" stop-color="#61316F" stop-opacity="0"/>
<stop offset="0.8106" stop-color="#6B57FF"/>
</linearGradient>
<linearGradient id="paint5_linear" x1="51.6661" y1="54.711" x2="9.348" y2="39.4416" gradientUnits="userSpaceOnUse">
<stop offset="0.016776" stop-color="#FF318C"/>
<stop offset="0.8106" stop-color="#6B57FF"/>
</linearGradient>
<linearGradient id="paint6_linear" x1="19.2689" y1="56.6036" x2="12.4489" y2="32.8601" gradientUnits="userSpaceOnUse">
<stop offset="0.016776" stop-color="#61316F"/>
<stop offset="0.8106" stop-color="#6B57FF"/>
</linearGradient>
<linearGradient id="paint7_linear" x1="58.4829" y1="53.9674" x2="37.721" y2="40.5273" gradientUnits="userSpaceOnUse">
<stop offset="0.1555" stop-color="#FF318C"/>
<stop offset="1" stop-color="#6B57FF"/>
</linearGradient>
<linearGradient id="paint8_linear" x1="51.5197" y1="41.4922" x2="50.4757" y2="50.7393" gradientUnits="userSpaceOnUse">
<stop offset="0.0655781" stop-color="#762784"/>
<stop offset="0.8106" stop-color="#FF318C" stop-opacity="0"/>
</linearGradient>
<linearGradient id="paint9_linear" x1="19.4218" y1="43.468" x2="37.4192" y2="11.6805" gradientUnits="userSpaceOnUse">
<stop offset="0.3305" stop-color="#FF318C"/>
<stop offset="0.9422" stop-color="#FDB60D"/>
</linearGradient>
<linearGradient id="paint10_linear" x1="33.6221" y1="50.6257" x2="45.8179" y2="29.0851" gradientUnits="userSpaceOnUse">
<stop offset="0.3305" stop-color="#FF318C"/>
<stop offset="0.9422" stop-color="#FDB60D"/>
</linearGradient>
<linearGradient id="paint11_linear" x1="49.1589" y1="26.5011" x2="37.2872" y2="29.4059" gradientUnits="userSpaceOnUse">
<stop  offset="0" stop-color="#FF318C"/>
<stop offset="1" stop-color="#FDB60D" stop-opacity="0"/>
</linearGradient>
<linearGradient id="paint12_linear" x1="40.9465" y1="28.3872" x2="56.183" y2="36.7991" gradientUnits="userSpaceOnUse">
<stop  offset="0" stop-color="#FF318C"/>
<stop offset="0.9422" stop-color="#FDB60D" stop-opacity="0"/>
</linearGradient>
<linearGradient id="paint13_linear" x1="49.8616" y1="29.373" x2="37.9899" y2="32.2778" gradientUnits="userSpaceOnUse">
<stop offset="0.3296" stop-color="#FF318C"/>
<stop offset="1" stop-color="#FDB60D" stop-opacity="0"/>
</linearGradient>
<linearGradient id="paint14_linear" x1="17.0747" y1="40.7276" x2="25.7884" y2="25.3371" gradientUnits="userSpaceOnUse">
<stop offset="0.3305" stop-color="#FF318C"/>
<stop offset="0.9422" stop-color="#FDB60D"/>
</linearGradient>
<linearGradient id="paint15_linear" x1="7.62865" y1="42.9568" x2="28.7199" y2="36.0105" gradientUnits="userSpaceOnUse">
<stop offset="0.3313" stop-color="#FF318C" stop-opacity="0"/>
<stop offset="0.9422" stop-color="#B045ED"/>
</linearGradient>
<linearGradient id="paint16_linear" x1="42.5957" y1="38.5409" x2="50.2424" y2="48.8092" gradientUnits="userSpaceOnUse">
<stop offset="0.036877" stop-color="#FDB60D"/>
<stop offset="0.9422" stop-color="#FF318C" stop-opacity="0"/>
</linearGradient>
<linearGradient id="paint17_linear" x1="29.709" y1="47.1022" x2="33.3001" y2="40.7595" gradientUnits="userSpaceOnUse">
<stop offset="0.3305" stop-color="#FF318C"/>
<stop offset="0.9422" stop-color="#B045ED"/>
</linearGradient>
<linearGradient id="paint18_linear" x1="10.6568" y1="27.4556" x2="20.5079" y2="6.6169" gradientUnits="userSpaceOnUse">
<stop offset="0.0839659" stop-color="#FF318C"/>
<stop offset="0.8747" stop-color="#FDB60D"/>
<stop offset="0.9935" stop-color="#FDCE0D"/>
</linearGradient>
<linearGradient id="paint19_linear" x1="29.4284" y1="35.0462" x2="41.9316" y2="22.5429" gradientUnits="userSpaceOnUse">
<stop offset="0.3305" stop-color="#FF318C"/>
<stop offset="0.9422" stop-color="#FDB60D"/>
</linearGradient>
<linearGradient id="paint20_linear" x1="47.6677" y1="39.4185" x2="39.2059" y2="21.9898" gradientUnits="userSpaceOnUse">
<stop offset="0.3305" stop-color="#FF318C"/>
<stop offset="0.9422" stop-color="#FDB60D"/>
</linearGradient>
<linearGradient id="paint21_linear" x1="17.7666" y1="17.7605" x2="21.5555" y2="4.1206" gradientUnits="userSpaceOnUse">
<stop offset="0.0839659" stop-color="#FF318C"/>
<stop offset="0.6835" stop-color="#FDB60D"/>
<stop offset="1" stop-color="#FDCE0D"/>
</linearGradient>
<linearGradient id="paint22_linear" x1="37.1646" y1="13.4123" x2="14.4315" y2="13.9175" gradientUnits="userSpaceOnUse">
<stop  offset="0" stop-color="#FCF84A" stop-opacity="0.96"/>
<stop offset="1" stop-color="#FCF84A" stop-opacity="0"/>
</linearGradient>
<linearGradient id="paint23_linear" x1="14.053" y1="14.053" x2="46.3709" y2="46.3709" gradientUnits="userSpaceOnUse">
<stop  offset="0" stop-color="#7D2C38"/>
<stop offset="0.0123355" stop-color="#792B36"/>
<stop offset="0.1641" stop-color="#4E1B23"/>
<stop offset="0.311" stop-color="#2C1014"/>
<stop offset="0.4501" stop-color="#140709"/>
<stop offset="0.578" stop-color="#050202"/>
<stop offset="0.6844"/>
</linearGradient>
<linearGradient id="paint24_linear" x1="31.3606" y1="52.4534" x2="32.5948" y2="25.2992" gradientUnits="userSpaceOnUse">
<stop offset="0.016776" stop-color="#642652"/>
<stop offset="0.8106" stop-color="#6B57FF"/>
</linearGradient>
<linearGradient id="paint25_linear" x1="23.9057" y1="50.5858" x2="18.4593" y2="31.6243" gradientUnits="userSpaceOnUse">
<stop offset="0.016776" stop-color="#61316F"/>
<stop offset="0.8106" stop-color="#6B57FF"/>
</linearGradient>
<linearGradient id="paint26_linear" x1="50.4186" y1="17.6185" x2="42.2504" y2="27.9921" gradientUnits="userSpaceOnUse">
<stop  offset="0" stop-color="#FF546A"/>
<stop offset="0.7814" stop-color="#7D321B"/>
</linearGradient>
<linearGradient id="paint27_linear" x1="35.896" y1="45.1058" x2="33.736" y2="9.003" gradientUnits="userSpaceOnUse">
<stop offset="0.0889086" stop-color="#6C2259"/>
<stop offset="0.9422" stop-color="#FDB60D"/>
</linearGradient>
<linearGradient id="paint28_linear" x1="20.6097" y1="42.6111" x2="29.2633" y2="27.3269" gradientUnits="userSpaceOnUse">
<stop offset="0.3305" stop-color="#6D084A"/>
<stop offset="0.9422" stop-color="#FDB60D"/>
</linearGradient>
<linearGradient id="paint29_linear" x1="23.9586" y1="18.4998" x2="8.3757" y2="16.9569" gradientUnits="userSpaceOnUse">
<stop  offset="0" stop-color="#FDB60D" stop-opacity="0.96"/>
<stop offset="0.8913" stop-color="#FF407E" stop-opacity="0.1044"/>
<stop offset="1" stop-color="#FF318C" stop-opacity="0"/>
</linearGradient>
</defs>
</svg>
