<svg width="24" height="24" viewBox="0 0 24 24" fill="none" xmlns="http://www.w3.org/2000/svg">
<path d="M22.9 17.8998L23.2 8.1998L17 6.7998L11.8 10.2998L14.2 17.4998L22.9 17.8998Z" fill="url(#paint0_linear)"/>
<path d="M22.9 17.9002L23.2 8.2002L21.5 12.7002L22.9 17.9002Z" fill="url(#paint1_linear)"/>
<path d="M21.5 12.7L23.2 8.2L17.1 5.5L10.2 11.8L21.5 12.7Z" fill="url(#paint2_linear)"/>
<path d="M21.5 12.7L23.2 8.2L17.1 5.5L10.2 11.8L21.5 12.7Z" fill="url(#paint3_linear)"/>
<path d="M16.3 13.1L17.1 5.5L10.2 11.8L16.3 13.1Z" fill="url(#paint4_linear)"/>
<path d="M15.1 23.3006L22.9 17.9006L4.30005 9.60059L0.800049 19.6006L15.1 23.3006Z" fill="url(#paint5_linear)"/>
<path d="M10.7 14.3006L4.30005 9.60059L0.800049 19.6006L10.7 14.3006Z" fill="url(#paint6_linear)"/>
<path d="M22.9001 17.9002L15.1001 23.3002L21.5001 12.7002L22.9001 17.9002Z" fill="url(#paint7_linear)"/>
<path d="M22.9001 17.8998L15.1001 23.2998L19.3001 16.2998L22.9001 17.8998Z" fill="url(#paint8_linear)"/>
<path d="M0.800049 9.4002L13.2 18.8002L21.5 12.7002L12 2.1002L3.70005 0.700195L0.800049 9.4002Z" fill="url(#paint9_linear)"/>
<path d="M9.6001 16.0998L13.2001 18.7998L21.5001 12.6998L13.0001 9.2998L9.6001 16.0998Z" fill="url(#paint10_linear)"/>
<path d="M16.5 10.6998L13 9.2998L14.1 12.1998L16.4 12.2998L16.5 10.6998Z" fill="url(#paint11_linear)"/>
<path d="M16.4001 12.3002L21.5001 12.7002L16.5001 10.7002L16.4001 12.3002Z" fill="url(#paint12_linear)"/>
<path d="M16.5 10.6998L13 9.2998L16 14.7998L16.5 10.6998Z" fill="url(#paint13_linear)"/>
<path d="M0.800049 9.40059L13.2 18.8006L7.00005 7.60059L0.800049 9.40059Z" fill="url(#paint14_linear)"/>
<path d="M3.6001 11.5006L13.2001 18.8006L9.4001 11.9006L4.3001 9.60059L3.6001 11.5006Z" fill="url(#paint15_linear)"/>
<path d="M21.5 12.7002L13.2 18.8002L15.5 22.8002L21.5 12.7002Z" fill="url(#paint16_linear)"/>
<path d="M9.6001 16.1002L13.2001 18.8002L10.6001 14.2002L9.6001 16.1002Z" fill="url(#paint17_linear)"/>
<path d="M0.800049 9.4002L7.00005 7.6002L12 2.1002L3.70005 0.700195L0.800049 9.4002Z" fill="url(#paint18_linear)"/>
<path d="M12.0001 2.10059L8.90015 5.50059L13.0001 9.30059L21.5001 12.7006L12.0001 2.10059Z" fill="url(#paint19_linear)"/>
<path d="M13.0002 9.30098L16.5002 10.701L16.9002 7.60098L16.0002 6.50098L13.0002 9.30098Z" fill="url(#paint20_linear)"/>
<path d="M12 2.0998L3.69995 0.799805L8.89995 5.4998L12 2.0998Z" fill="url(#paint21_linear)"/>
<path d="M0.800049 9.4002L7.00005 7.6002L12 2.1002L3.70005 0.700195L0.800049 9.4002Z" fill="url(#paint22_linear)"/>
<path d="M19 5H5V19H19V5Z" fill="url(#paint23_linear)"/>
<path d="M13.8748 13.0559C13.4061 13.0559 13.0186 12.9684 12.7061 12.7934C12.3936 12.6184 12.1311 12.4059 11.9248 12.1621L12.7498 11.2434C12.9186 11.4309 13.0936 11.5746 13.2623 11.6809C13.4373 11.7871 13.6248 11.8371 13.8373 11.8371C14.0873 11.8371 14.2811 11.7621 14.4248 11.5996C14.5686 11.4434 14.6373 11.1934 14.6373 10.8434V7.00586H15.9811V10.9059C15.9811 11.2621 15.9311 11.5746 15.8373 11.8371C15.7436 12.0996 15.5998 12.3184 15.4186 12.4996C15.2373 12.6809 15.0123 12.8184 14.7498 12.9121C14.4936 13.0059 14.1998 13.0559 13.8748 13.0559Z" fill="white"/>
<path d="M7 7H9.4C10.8 7 11.6 7.8 11.6 9.1C11.6 10.5 10.5 11.2 9.2 11.2H8.2V13H7V7ZM9.3 10C9.9 10 10.3 9.6 10.3 9.1C10.3 8.5 9.9 8.2 9.3 8.2H8.3V10H9.3Z" fill="white"/>
<path d="M13 16H7V17H13V16Z" fill="white"/>
<defs>
<linearGradient id="paint0_linear" x1="19.9651" y1="16.3925" x2="16.7054" y2="6.9752" gradientUnits="userSpaceOnUse">
<stop offset="0.000825369" stop-color="#FF318C"/>
<stop offset="1" stop-color="#FE6C54"/>
</linearGradient>
<linearGradient id="paint1_linear" x1="26.0209" y1="12.6501" x2="18.1819" y2="13.6789" gradientUnits="userSpaceOnUse">
<stop offset="0.3305" stop-color="#FF318C"/>
<stop offset="0.9422" stop-color="#B045ED"/>
</linearGradient>
<linearGradient id="paint2_linear" x1="20.7239" y1="6.1145" x2="17.1575" y2="10.6438" gradientUnits="userSpaceOnUse">
<stop stop-color="#FF546A"/>
<stop offset="0.7814" stop-color="#FE764A"/>
</linearGradient>
<linearGradient id="paint3_linear" x1="24.4183" y1="8.7147" x2="18.2941" y2="9.1556" gradientUnits="userSpaceOnUse">
<stop offset="0.1065" stop-color="#FCBCC3" stop-opacity="0.96"/>
<stop offset="0.7261" stop-color="#FF4694" stop-opacity="0.1407"/>
<stop offset="0.8325" stop-color="#FF318C" stop-opacity="0"/>
</linearGradient>
<linearGradient id="paint4_linear" x1="18.1593" y1="6.2244" x2="15.1364" y2="10.0635" gradientUnits="userSpaceOnUse">
<stop offset="0.016776" stop-color="#61316F" stop-opacity="0"/>
<stop offset="0.8106" stop-color="#6B57FF"/>
</linearGradient>
<linearGradient id="paint5_linear" x1="19.6291" y1="20.8107" x2="3.21265" y2="14.8873" gradientUnits="userSpaceOnUse">
<stop offset="0.016776" stop-color="#FF318C"/>
<stop offset="0.8106" stop-color="#6B57FF"/>
</linearGradient>
<linearGradient id="paint6_linear" x1="7.06125" y1="21.5449" x2="4.41555" y2="12.3341" gradientUnits="userSpaceOnUse">
<stop offset="0.016776" stop-color="#61316F"/>
<stop offset="0.8106" stop-color="#6B57FF"/>
</linearGradient>
<linearGradient id="paint7_linear" x1="22.2736" y1="20.5221" x2="14.2194" y2="15.3083" gradientUnits="userSpaceOnUse">
<stop offset="0.1555" stop-color="#FF318C"/>
<stop offset="1" stop-color="#6B57FF"/>
</linearGradient>
<linearGradient id="paint8_linear" x1="19.5724" y1="15.682" x2="19.1674" y2="19.2693" gradientUnits="userSpaceOnUse">
<stop offset="0.0655781" stop-color="#762784"/>
<stop offset="0.8106" stop-color="#FF318C" stop-opacity="0"/>
</linearGradient>
<linearGradient id="paint9_linear" x1="7.12055" y1="16.449" x2="14.1023" y2="4.11759" gradientUnits="userSpaceOnUse">
<stop offset="0.3305" stop-color="#FF318C"/>
<stop offset="0.9422" stop-color="#FDB60D"/>
</linearGradient>
<linearGradient id="paint10_linear" x1="12.6294" y1="19.2254" x2="17.3605" y2="10.8692" gradientUnits="userSpaceOnUse">
<stop offset="0.3305" stop-color="#FF318C"/>
<stop offset="0.9422" stop-color="#FDB60D"/>
</linearGradient>
<linearGradient id="paint11_linear" x1="18.6565" y1="9.8668" x2="14.0511" y2="10.9936" gradientUnits="userSpaceOnUse">
<stop stop-color="#FF318C"/>
<stop offset="1" stop-color="#FDB60D" stop-opacity="0"/>
</linearGradient>
<linearGradient id="paint12_linear" x1="15.4707" y1="10.5986" x2="21.3815" y2="13.8618" gradientUnits="userSpaceOnUse">
<stop stop-color="#FF318C"/>
<stop offset="0.9422" stop-color="#FDB60D" stop-opacity="0"/>
</linearGradient>
<linearGradient id="paint13_linear" x1="18.9291" y1="10.9809" x2="14.3237" y2="12.1077" gradientUnits="userSpaceOnUse">
<stop offset="0.3296" stop-color="#FF318C"/>
<stop offset="1" stop-color="#FDB60D" stop-opacity="0"/>
</linearGradient>
<linearGradient id="paint14_linear" x1="6.21005" y1="15.3864" x2="9.59035" y2="9.41599" gradientUnits="userSpaceOnUse">
<stop offset="0.3305" stop-color="#FF318C"/>
<stop offset="0.9422" stop-color="#FDB60D"/>
</linearGradient>
<linearGradient id="paint15_linear" x1="2.5457" y1="16.2509" x2="10.7276" y2="13.5562" gradientUnits="userSpaceOnUse">
<stop offset="0.3313" stop-color="#FF318C" stop-opacity="0"/>
<stop offset="0.9422" stop-color="#B045ED"/>
</linearGradient>
<linearGradient id="paint16_linear" x1="16.1104" y1="14.5377" x2="19.0768" y2="18.5211" gradientUnits="userSpaceOnUse">
<stop offset="0.036877" stop-color="#FDB60D"/>
<stop offset="0.9422" stop-color="#FF318C" stop-opacity="0"/>
</linearGradient>
<linearGradient id="paint17_linear" x1="11.1114" y1="17.859" x2="12.5045" y2="15.3984" gradientUnits="userSpaceOnUse">
<stop offset="0.3305" stop-color="#FF318C"/>
<stop offset="0.9422" stop-color="#B045ED"/>
</linearGradient>
<linearGradient id="paint18_linear" x1="3.72035" y1="10.2373" x2="7.54185" y2="2.1533" gradientUnits="userSpaceOnUse">
<stop offset="0.0839659" stop-color="#FF318C"/>
<stop offset="0.8747" stop-color="#FDB60D"/>
<stop offset="0.9935" stop-color="#FDCE0D"/>
</linearGradient>
<linearGradient id="paint19_linear" x1="11.0025" y1="13.1825" x2="15.8529" y2="8.33209" gradientUnits="userSpaceOnUse">
<stop offset="0.3305" stop-color="#FF318C"/>
<stop offset="0.9422" stop-color="#FDB60D"/>
</linearGradient>
<linearGradient id="paint20_linear" x1="18.0782" y1="14.8791" x2="14.7956" y2="8.11798" gradientUnits="userSpaceOnUse">
<stop offset="0.3305" stop-color="#FF318C"/>
<stop offset="0.9422" stop-color="#FDB60D"/>
</linearGradient>
<linearGradient id="paint21_linear" x1="6.47835" y1="6.4759" x2="7.94815" y2="1.1845" gradientUnits="userSpaceOnUse">
<stop offset="0.0839659" stop-color="#FF318C"/>
<stop offset="0.6835" stop-color="#FDB60D"/>
<stop offset="1" stop-color="#FDCE0D"/>
</linearGradient>
<linearGradient id="paint22_linear" x1="14.0035" y1="4.7895" x2="5.18465" y2="4.9854" gradientUnits="userSpaceOnUse">
<stop stop-color="#FCF84A" stop-opacity="0.96"/>
<stop offset="1" stop-color="#FCF84A" stop-opacity="0"/>
</linearGradient>
<linearGradient id="paint23_linear" x1="5.02062" y1="5.02062" x2="17.5887" y2="17.5887" gradientUnits="userSpaceOnUse">
<stop stop-color="#7D2C38"/>
<stop offset="0.0123355" stop-color="#792B36"/>
<stop offset="0.1641" stop-color="#4E1B23"/>
<stop offset="0.311" stop-color="#2C1014"/>
<stop offset="0.4501" stop-color="#140709"/>
<stop offset="0.578" stop-color="#050202"/>
<stop offset="0.6844"/>
</linearGradient>
</defs>
</svg>
