<!-- Copyright 2000-2024 JetBrains s.r.o. and contributors. Use of this source code is governed by the Apache 2.0 license. -->
<svg width="16" height="16" viewBox="0 0 16 16" fill="none" xmlns="http://www.w3.org/2000/svg">
<path d="M5 8V14.3264C2.63505 13.2029 1 10.7924 1 8C1 4.134 4.134 1 8 1C11.866 1 15 4.134 15 8H5Z" fill="#62B543" fill-opacity="0.6"/>
<path fill-rule="evenodd" clip-rule="evenodd" d="M8.7017 8.0001L7.98389 6.2001L7.2851 8.0001H6.27734L7.55389 5H8.44689L9.72393 8.0001H8.7017Z" fill="#231F20" fill-opacity="0.7"/>
<path fill-rule="evenodd" clip-rule="evenodd" d="M6 16H16V9H6V16Z" fill="#F26522" fill-opacity="0.6"/>
<path fill-rule="evenodd" clip-rule="evenodd" d="M10.15 13L9.49612 11.4L8.85 13H10.15ZM9.109 10H9.89L12 15H10.9L10.4 14H8.6L8.1 15H7L9.109 10Z" fill="#231F20" fill-opacity="0.7"/>
<path fill-rule="evenodd" clip-rule="evenodd" d="M12.9728 11.5015C12.9728 11.1331 13.284 11 13.845 11C13.8503 11 14.2353 11 15 11V10C14.2627 10 13.8827 10 13.86 10C12.778 10 12 10.4592 12 11.45C12 12.3145 12.4196 12.6905 13.4713 12.9161C14.2416 13.0813 14.4962 13.2286 14.4962 13.548C14.4962 13.8674 14.1384 14 13.4713 14C13.4606 14 13.0702 14 12.3 14V15C13.0755 15 13.4659 15 13.4713 15C15.5 15 15.5 14 15.5 13.548C15.5 12.9161 15.0203 12.4207 14.1587 12.1469C13.2971 11.873 12.9728 11.87 12.9728 11.5015Z" fill="#231F20" fill-opacity="0.7"/>
</svg>
