<!-- Copyright 2000-2024 JetBrains s.r.o. and contributors. Use of this source code is governed by the Apache 2.0 license. -->
<svg width="16" height="16" viewBox="0 0 16 16" fill="none" xmlns="http://www.w3.org/2000/svg">
<path fill-rule="evenodd" clip-rule="evenodd" d="M6 14.7101C3.10851 13.8496 1 11.171 1 8C1 4.134 4.134 1 8 1C11.866 1 15 4.134 15 8H6V14.7101Z" fill="#40B6E0" fill-opacity="0.6"/>
<path fill-rule="evenodd" clip-rule="evenodd" d="M6 8V5H10V6H7V7H9V8H7H6Z" fill="#231F20" fill-opacity="0.7"/>
<path fill-rule="evenodd" clip-rule="evenodd" d="M7 16H16V9H7V16Z" fill="#F4AF3D" fill-opacity="0.7"/>
<path fill-rule="evenodd" clip-rule="evenodd" d="M12.9728 11.5015C12.9728 11.1331 13.284 11 13.845 11C13.853 11 15 11 15 11V10C15 10 13.894 10 13.86 10C12.778 10 12 10.4592 12 11.45C12 12.3145 12.4196 12.6905 13.4713 12.9161C14.2416 13.0813 14.4962 13.2286 14.4962 13.548C14.4962 13.8674 14.1384 14 13.4713 14C13.4553 14 12.3 14 12.3 14V15C12.3 15 13.4633 15 13.4713 15C15.5 15 15.5 14 15.5 13.548C15.5 12.9161 15.0203 12.4207 14.1587 12.1469C13.2971 11.873 12.9728 11.87 12.9728 11.5015Z" fill="#231F20" fill-opacity="0.7"/>
<path fill-rule="evenodd" clip-rule="evenodd" d="M8.39587 13.5877C8.62518 13.8379 8.83861 14 9.28761 14C9.81396 14 10.0008 13.5877 10.0008 13.2976V10H11.0008V13.5877C11.0008 14.3196 10.3275 15 9.45078 15C8.62978 15 8.15078 14.7626 7.80078 14.3196L8.39587 13.5877Z" fill="#231F20" fill-opacity="0.7"/>
</svg>
