<svg width="16" height="16" viewBox="0 0 16 16" fill="none" xmlns="http://www.w3.org/2000/svg">
<g clip-path="url(#clip0_4897_52879)">
<path fill-rule="evenodd" clip-rule="evenodd" d="M7.62353 13.2883C7.46006 13.1309 7.46014 12.8692 7.62369 12.7119L10.3226 10.1163C10.5767 9.87185 10.9999 10.0519 10.9999 10.4045V15.5986C10.9999 15.9514 10.5765 16.1314 10.3224 15.8868L7.62353 13.2883Z" fill="#E35252"/>
<path fill-rule="evenodd" clip-rule="evenodd" d="M15.3798 12.7117C15.5435 12.8691 15.5436 13.131 15.3799 13.2884L12.6774 15.8876C12.4232 16.132 12 15.9519 12 15.5993L12 10.4038C12 10.0513 12.423 9.87118 12.6772 10.1154L15.3798 12.7117Z" fill="#5FB865"/>
</g>
<path fill-rule="evenodd" clip-rule="evenodd" d="M9.04346 9.95904L9.62937 9.39554C10.1309 8.91317 10.8208 8.90319 11.327 9.20767C11.7449 8.76078 12.0007 8.16043 12.0007 7.50035C12.0007 6.11945 10.8812 5.00002 9.50033 5.00002C8.11944 5.00002 7 6.11945 7 7.50035C7 8.7252 7.88073 9.74435 9.04346 9.95904Z" fill="#F26522"/>
<path d="M8.51561 2.7765C9.36613 2.7765 9.85279 3.18894 10.5105 4.2974C11.0589 5.22166 12 4.45269 12 3.67231C12 2.9963 11.7902 2.40379 11.0589 1.84292C10.3276 1.28205 9.95519 1 8.51561 1C5.02637 1 1.67964 5.19009 1.20243 7.26073C0.812715 8.94954 0.9857 10.1823 1.7214 11.3094C2.45709 12.4365 3.66004 13 5.33026 13C5.7348 13 6.12581 12.9732 6.50328 12.9197C6.52269 12.5802 6.6651 12.2464 6.9305 11.9912L8.55823 10.4257C8.41846 10.4277 8.28741 10.4657 8.18157 10.5494C7.54529 11.0524 6.78177 11.3038 5.89098 11.3038C4.72977 11.3038 3.97023 10.9 3.61232 10.0923C3.25442 9.28462 3.21465 8.46492 3.49302 7.28275C3.76344 6.10793 5.33026 3.00333 8.51561 2.7765Z" fill="#6C707E"/>
<defs>
<clipPath id="clip0_4897_52879">
<rect width="9" height="6" fill="white" transform="translate(7 10)"/>
</clipPath>
</defs>
</svg>
