<svg xmlns="http://www.w3.org/2000/svg" width="16" height="16"><path fill="none" stroke="#a8adbd" stroke-linecap="round" stroke-linejoin="round" d="m2 12 1.5 1.5 4-4M3.6 1.5h-2v3.2h2l.8-.4h1.2l1 .8h2.2l1.6-1.2c1.2 0 2 0 4 1.4-1.2-3.8-3.6-3.8-4.8-3.8h-3l-1 .4H4.4l-.8-.4ZM6.6 5.1V7l-.195.457c-.006.014-.008.029-.014.043"/><path fill="none" stroke="#a8adbd" stroke-linecap="round" stroke-linejoin="round" d="M8.5 14.5h.9V9.426c0-.677-.138-1.347-.404-1.97L8.8 6.999v-1.9M4.672 9.5H.5v6h6v-2.172"/></svg>