<svg xmlns="http://www.w3.org/2000/svg" width="16" height="16"><circle cx="3.5" cy="12.5" r="3" fill="none" stroke="#a8adbd" stroke-linecap="round" stroke-linejoin="round"/><path fill="none" stroke="#a8adbd" stroke-linecap="round" stroke-linejoin="round" d="m3 11.25 1.25 1.25L3 13.75M3.6 1.5h-2v3.2h2l.8-.4h1.2l1 .8h2.2l1.6-1.2c1.2 0 2 0 4 1.4-1.2-3.8-3.6-3.8-4.8-3.8h-3l-1 .4H4.4l-.8-.4ZM6.6 5.1V7l-.195.457a5.018 5.018 0 0 0-.257.819"/><path fill="none" stroke="#a8adbd" stroke-linecap="round" stroke-linejoin="round" d="M8.076 14.5H9.4V9.426c0-.677-.138-1.347-.404-1.97L8.8 6.999v-1.9"/></svg>