<svg width="16" height="16" viewBox="0 0 16 16" xmlns="http://www.w3.org/2000/svg">
  <path fill="#c75450" d="M7.116 3.447A2.508 2.508 0 0 0 4.848 2H3V.5l-2 2 2 2V3h1.848c.582 0 1.116.341 1.361.868l.251.545.908-.42-.252-.546Z"/>
  <path fill="#499c54" d="m15 2.5-2-2V2h-1.848c-.97 0-1.86.568-2.268 1.448l-.252.545.908.42.251-.544A1.505 1.505 0 0 1 11.152 3H13v1.5l2-2Z"/>
  <path fill="#afb1b3" d="M6.504 7.536c0-.012-.004-.024-.004-.036a1.5 1.5 0 0 1 3 0c0 .012-.003.024-.004.036C9.029 7.359 8.528 7.25 8 7.25s-1.029.109-1.496.286ZM13.5 12v-1h-2.05a3.432 3.432 0 0 0-.364-1.118l1.801-1.011L12.398 8l-1.892 1.062a3.487 3.487 0 0 0-5.01 0L3.604 8l-.489.871 1.801 1.011A3.456 3.456 0 0 0 4.552 11h-2.05v1h2.05c.058.4.182.774.364 1.118l-1.801 1.011.489.871 1.892-1.062a3.487 3.487 0 0 0 5.01 0L12.398 15l.489-.871-1.801-1.011c.181-.344.306-.718.364-1.118h2.05Z"/>
</svg>
