<svg width="16" height="16" viewBox="0 0 16 16" xmlns="http://www.w3.org/2000/svg">
  <path fill="#9aa7b0" d="m12.451 14-.95-.422 1.444-3.25a.193.193 0 0 0-.053-.225.19.19 0 0 0-.229-.012l-3.88 2.586a1.231 1.231 0 0 1-1.686-1.741l4.414-6.178a.193.193 0 0 0-.268-.269L5.064 8.902a1.232 1.232 0 0 1-1.741-1.685L5.91 3.338a.193.193 0 0 0-.238-.283l-3.25 1.444L2 3.549l3.249-1.444c.498-.221 1.091-.084 1.442.332s.386 1.024.083 1.477l-2.586 3.88c-.051.077-.04.179.027.244s.17.073.245.019l6.179-4.413c.491-.353 1.159-.296 1.586.131s.484 1.094.132 1.586L7.943 11.54a.192.192 0 0 0 .264.272l3.879-2.586c.453-.302 1.06-.269 1.477.083s.553.944.332 1.442L12.451 14Z"/>
</svg>
