<!-- Copyright © 2000–2024 JetBrains s.r.o. -->
<svg width="16" height="16" viewBox="0 0 16 16" xmlns="http://www.w3.org/2000/svg">
  <path fill="#afb1b3" d="M12.7 7.06 14.18 6c-.28-.87-.74-1.67-1.36-2.35l-1.66.75c-.48-.42-1.03-.74-1.64-.95l-.18-1.81c-.89-.19-1.82-.19-2.71 0l-.18 1.81c-.6.2-1.16.53-1.64.95l-1.66-.75C2.54 4.33 2.08 5.13 1.79 6l1.48 1.06c-.12.62-.12 1.26 0 1.88L1.79 10c.28.87.74 1.67 1.36 2.35l1.66-.75c.48.42 1.03.74 1.64.95l.18 1.81c.89.19 1.82.19 2.71 0l.18-1.81c.6-.2 1.16-.53 1.64-.95l1.66.75c.61-.68 1.07-1.48 1.36-2.35L12.7 8.94c.12-.62.12-1.26 0-1.88m.27 3.3c-.13.26-.27.52-.44.76l-1.54-.69c-.98.87-.99.91-2.39 1.38l-.17 1.67c-.29.02-.57.02-.88 0l-.17-1.67c-1.24-.42-1.28-.41-2.39-1.38l-1.54.69c-.17-.24-.31-.49-.44-.76l1.37-.98c-.25-1.28-.29-1.31 0-2.76l-1.37-.98c.13-.26.27-.52.44-.76l1.54.69c1.11-.97 1.14-.96 2.39-1.38l.17-1.67c.29-.02.57-.02.88 0l.17 1.67c1.4.47 1.4.51 2.39 1.38l1.54-.7c.17.24.31.49.44.76l-1.37.98c.25 1.28.29 1.31 0 2.76l1.37.98Z"/>
  <path fill="#afb1b3" fill-rule="evenodd" d="M7 5.94v4.12L10.18 8z"/>
</svg>
