<!-- Copyright © 2000–2024 JetBrains s.r.o. -->
<svg width="16" height="16" viewBox="0 0 16 16" xmlns="http://www.w3.org/2000/svg">
  <path fill="#9aa7b0" d="M2.75 8C2.75 5.1 5.1 2.75 8 2.75c2.19 0 4.06 1.34 4.85 3.25h1.33c-.85-2.61-3.3-4.5-6.18-4.5-3.58 0-6.5 2.92-6.5 6.5 0 2.89 1.89 5.34 4.5 6.18v-1.33A5.245 5.245 0 0 1 2.75 8"/>
  <path fill="#9aa7b0" d="M14.5 8v-.75H12v1.5h.94a5.008 5.008 0 0 1-4.19 4.19V12h-1.5v2.5H8c3.58 0 6.5-2.92 6.5-6.5"/>
  <path fill="#9aa7b0" d="M9.94 11 7.25 8.31V4h1.5v3.69L11 9.94z"/>
</svg>
