<svg width="16" height="16" viewBox="0 0 16 16" fill="none" xmlns="http://www.w3.org/2000/svg">
<path d="M6.5 1.5V1H5V1.5H6.5Z" fill="#CED0D6"/>
<path d="M4.5 3V2.5H3V3H4.5Z" fill="#CED0D6"/>
<path d="M3 4.5V4H2V4.5H3Z" fill="#CED0D6"/>
<path d="M4 5.5V6H2.5V5.5H4Z" fill="#CED0D6"/>
<path d="M3 8V8.5H1.5V8H3Z" fill="#CED0D6"/>
<path d="M3.5 12.5V12H2V12.5H3.5Z" fill="#CED0D6"/>
<path d="M2.5 13.5V14H1V13.5H2.5Z" fill="#CED0D6"/>
<path d="M4.5 13V12.5H5.5V11.5H7V11H7.5V10H5.5V11.5H4.5V11H4V9.5H4.5V8.5H5.5V8H6V6.5H5.5V6H5V3.5H5.5V3H6V2H7V1.5H8.5V1H11.5V1.5H12.5V2H13.5V2.5H14V3.5H13.5V4.5H12.5V3.5H10V4.5H11.5V5H14V6.5H13.5V7.5H12.5V8H12V9.5H11.5V11.5H12V13H11.5V13.5H10.5V14.5H9V15H7.5V13.5H8.5V13H7V13.5H6.5V14.5H5.5V15H4V14.5H3.5V13.5H4V13H4.5Z" fill="#CED0D6"/>
</svg>
