<svg width="20" height="20" viewBox="0 0 20 20" fill="none" xmlns="http://www.w3.org/2000/svg">
<path d="M16 12C16 11.4477 16.4477 11 17 11H19C19.5523 11 20 11.4477 20 12V14C20 14.5523 19.5523 15 19 15H17C16.4477 15 16 14.5523 16 14V12Z" fill="#6C707E"/>
<path d="M16 17C16 16.4477 16.4477 16 17 16H19C19.5523 16 20 16.4477 20 17V19C20 19.5523 19.5523 20 19 20H17C16.4477 20 16 19.5523 16 19V17Z" fill="#6C707E"/>
<path d="M12 16C11.4477 16 11 16.4477 11 17V19C11 19.5523 11.4477 20 12 20H14C14.5523 20 15 19.5523 15 19V17C15 16.4477 14.5523 16 14 16H12Z" fill="#6C707E"/>
<path d="M15.6665 3.60989H13.0058V6.31342H15.6665V3.60989Z" fill="#6C707E"/>
<path d="M15.6631 9.8871V7.81787L13.0058 7.81792V13.0146C13.0058 13.5933 12.9982 14.0814 12.9806 14.5H14.5V12C14.5 11.111 14.964 10.3303 15.6631 9.8871Z" fill="#6C707E"/>
<path fill-rule="evenodd" clip-rule="evenodd" d="M9.7 16.0186C8.93646 16.1208 8.26144 16.1642 7.55121 16.1642C4.30149 16.1608 2.60986 14.709 2.60986 11.9207C2.60986 9.23412 4.40422 7.49055 7.1848 7.49055C7.61629 7.49055 7.94499 7.52451 8.34222 7.62624V3.60999H11.0029V14.7067C10.4187 14.9611 9.95052 15.4322 9.7 16.0186ZM8.43546 9.82392C8.12383 9.72214 7.86704 9.68823 7.53828 9.68823C6.19254 9.68823 5.41521 10.5091 5.41521 11.9477C5.41521 13.3483 6.15833 14.1217 7.5212 14.1217C7.81565 14.1217 8.05536 14.1051 8.43546 14.0542V9.82392Z" fill="#6C707E"/>
</svg>
