<svg width="32" height="32" viewBox="0 0 32 32" fill="none" xmlns="http://www.w3.org/2000/svg" data-scaled="true">
<path d="M22.5 9L20.5 0H9L0 13.7L2.6 20L0 25.8L15.4 28.5L25.1 19.9L22.5 9Z" fill="url(#paint0_linear)"/>
<path d="M3.1 14.2L0 13.7L2.6 20L0 25.8L6.2 20.8L3.1 14.2Z" fill="url(#paint1_linear)"/>
<path d="M3.1 14.2L0 13.7L2.6 20L6.2 20.8L3.1 14.2Z" fill="url(#paint2_linear)"/>
<path d="M3.1 14.2L20.5 0H9L0 13.7L3.1 14.2Z" fill="url(#paint3_linear)"/>
<path d="M3.1 14.2L20.5 0H9L0 13.7L3.1 14.2Z" fill="url(#paint4_linear)"/>
<path d="M3.1 14.2L11.3 7.5L9 0L0 13.7L3.1 14.2Z" fill="url(#paint5_linear)"/>
<path d="M3.1 14.2L11.3 7.5L9 0L0 13.7L3.1 14.2Z" fill="url(#paint6_linear)"/>
<path d="M28.2 12.3999L32 20.8999L25.5 31.9999L21.5 22.1999L28.2 12.3999Z" fill="url(#paint7_linear)"/>
<path d="M24.8 17.5L32 20.8L25.5 32L21.5 22.2L24.8 17.5Z" fill="url(#paint8_linear)"/>
<path d="M21.5 22.2L25.5 32L15.4 28.5L21.5 22.2Z" fill="url(#paint9_linear)"/>
<path d="M32 6.80005L18.6 10L0 25.8L12 32L21.5 22.2L32 6.80005Z" fill="url(#paint10_linear)"/>
<path d="M8 26.2001L0 25.8L12 32L15.4 28.4L8 26.2001Z" fill="url(#paint11_linear)"/>
<path d="M8 26.2001L0 25.8001L6 20.6001L8 26.2001Z" fill="url(#paint12_linear)"/>
<path d="M32 6.80005L18.6 10L28 12.6L32 6.80005Z" fill="url(#paint13_linear)"/>
<path d="M32 6.80005L18.6 10L27.5 12.4L32 6.80005Z" fill="url(#paint14_linear)"/>
<path d="M24.5 17.7L22.5 9L18.6 10L13.2 14.6L24.5 17.7Z" fill="url(#paint15_linear)"/>
<path d="M23 11.2L22.5 9L18.6 10L23 11.2Z" fill="url(#paint16_linear)"/>
<path d="M6.09998 20.5999L21.5 22.1999L28.2 12.3999L23.2 12.9999L6.09998 20.5999Z" fill="url(#paint17_linear)"/>
<path d="M32 6.80005L12 32L21.5 22.2L32 6.80005Z" fill="url(#paint18_linear)"/>
<path d="M32 6.80005L12 32L21.5 22.2L32 6.80005Z" fill="url(#paint19_linear)"/>
<path d="M26 6H6V26H26V6Z" fill="url(#paint20_linear)"/>
<path d="M15 22H8V23.6H15V22Z" fill="white"/>
<path d="M7.5 12.0987C7.5 9.7552 9.25765 7.8999 11.6988 7.8999C13.1635 7.8999 14.0424 8.29049 14.8235 8.97402L13.7494 10.3411C13.1635 9.85284 12.5776 9.5599 11.6988 9.5599C10.4294 9.5599 9.35529 10.7317 9.35529 12.0987C9.35529 13.5634 10.3318 14.6375 11.7965 14.6375C12.48 14.6375 12.9682 14.4423 13.4565 14.1493V12.9775H11.6988V11.4152H15.2141V14.9305C14.4329 15.614 13.2612 16.1999 11.7965 16.1999C9.25765 16.1999 7.5 14.4423 7.5 12.0987Z" fill="white"/>
<path d="M15.8976 12.0987C15.8976 9.7552 17.6552 7.8999 20.1941 7.8999C22.6352 7.8999 24.4905 9.7552 24.4905 12.0011C24.4905 14.247 22.7329 16.1999 20.1941 16.1999C17.7529 16.1999 15.8976 14.3446 15.8976 12.0987ZM22.6352 12.0987C22.6352 10.7317 21.6588 9.5599 20.1941 9.5599C18.7293 9.5599 17.7529 10.7317 17.7529 12.0987C17.7529 13.4658 18.7293 14.6375 20.1941 14.6375C21.6588 14.5399 22.6352 13.4658 22.6352 12.0987Z" fill="white"/>
<defs>
<linearGradient id="paint0_linear" x1="14.4132" y1="12.9089" x2="22.0095" y2="4.2667" gradientUnits="userSpaceOnUse">
<stop  offset="0" stop-color="#087CFA"/>
<stop offset="0.0225255" stop-color="#0D7BFA"/>
<stop offset="0.3726" stop-color="#5566F9"/>
<stop offset="0.6634" stop-color="#8A57F8"/>
<stop offset="0.8808" stop-color="#AB4EF7"/>
<stop offset="1" stop-color="#B74AF7"/>
</linearGradient>
<linearGradient id="paint1_linear" x1="-0.0107626" y1="19.759" x2="8.344" y2="19.3958" gradientUnits="userSpaceOnUse">
<stop offset="0.1204" stop-color="#2D58F9"/>
<stop offset="0.9461" stop-color="#B74AF7"/>
</linearGradient>
<linearGradient id="paint2_linear" x1="1.5305" y1="12.9198" x2="4.5861" y2="21.4616" gradientUnits="userSpaceOnUse">
<stop offset="0.0852751" stop-color="#086AFA"/>
<stop offset="0.4762" stop-color="#087CFA"/>
<stop offset="0.6849" stop-color="#466AF9"/>
<stop offset="0.8976" stop-color="#8059F8"/>
<stop offset="1" stop-color="#9653F8"/>
</linearGradient>
<linearGradient id="paint3_linear" x1="1.1246" y1="11.1197" x2="18.6969" y2="-3.2514" gradientUnits="userSpaceOnUse">
<stop  offset="0" stop-color="#087CFA"/>
<stop offset="0.0188132" stop-color="#0D7BFA"/>
<stop offset="0.3112" stop-color="#5566F9"/>
<stop offset="0.5541" stop-color="#8A57F8"/>
<stop offset="0.7356" stop-color="#AB4EF7"/>
<stop offset="0.8352" stop-color="#B74AF7"/>
<stop offset="0.9797" stop-color="#DB5CFF"/>
</linearGradient>
<linearGradient id="paint4_linear" x1="9.2067" y1="6.0554" x2="12.7662" y2="8.8523" gradientUnits="userSpaceOnUse">
<stop offset="0.5234" stop-color="#B74AF7" stop-opacity="0"/>
<stop offset="0.9263" stop-color="#D66EFF"/>
</linearGradient>
<linearGradient id="paint5_linear" x1="0.4142" y1="11.6952" x2="14.8013" y2="-0.0709167" gradientUnits="userSpaceOnUse">
<stop  offset="0" stop-color="#087CFA"/>
<stop offset="0.0163189" stop-color="#0D7BFA"/>
<stop offset="0.2699" stop-color="#5566F9"/>
<stop offset="0.4806" stop-color="#8A57F8"/>
<stop offset="0.6381" stop-color="#AB4EF7"/>
<stop offset="0.7245" stop-color="#B74AF7"/>
<stop offset="0.9526" stop-color="#DB5CFF"/>
</linearGradient>
<linearGradient id="paint6_linear" x1="1.5173" y1="15.7044" x2="4.2454" y2="11.9154" gradientUnits="userSpaceOnUse">
<stop  offset="0" stop-color="#8F99FF"/>
<stop offset="1" stop-color="#B74AF7" stop-opacity="0"/>
</linearGradient>
<linearGradient id="paint7_linear" x1="31.5103" y1="18.2282" x2="19.0118" y2="28.8039" gradientUnits="userSpaceOnUse">
<stop  offset="0" stop-color="#087CFA"/>
<stop offset="0.0225255" stop-color="#0D7BFA"/>
<stop offset="0.3726" stop-color="#5566F9"/>
<stop offset="0.6634" stop-color="#8A57F8"/>
<stop offset="0.8808" stop-color="#AB4EF7"/>
<stop offset="1" stop-color="#B74AF7"/>
</linearGradient>
<linearGradient id="paint8_linear" x1="31.1389" y1="23.8437" x2="19.7469" y2="25.5668" gradientUnits="userSpaceOnUse">
<stop offset="0.003297" stop-color="#2D58F9"/>
<stop offset="0.8129" stop-color="#B74AF7"/>
</linearGradient>
<linearGradient id="paint9_linear" x1="24.9815" y1="25.761" x2="20.5182" y2="29.7544" gradientUnits="userSpaceOnUse">
<stop  offset="0" stop-color="#C386F7"/>
<stop offset="0.8129" stop-color="#B74AF7"/>
</linearGradient>
<linearGradient id="paint10_linear" x1="4.4456" y1="27.9544" x2="27.529" y2="13.1211" gradientUnits="userSpaceOnUse">
<stop  offset="0" stop-color="#087CFA"/>
<stop offset="0.1021" stop-color="#1598D3"/>
<stop offset="0.2248" stop-color="#23B6AA"/>
<stop offset="0.3455" stop-color="#2DCC8B"/>
<stop offset="0.4619" stop-color="#35DD74"/>
<stop offset="0.5723" stop-color="#39E767"/>
<stop offset="0.6701" stop-color="#3BEA62"/>
</linearGradient>
<linearGradient id="paint11_linear" x1="5.751" y1="29.1344" x2="16.5093" y2="18.5204" gradientUnits="userSpaceOnUse">
<stop  offset="0" stop-color="#087CFA"/>
<stop offset="0.1021" stop-color="#1598D3"/>
<stop offset="0.2248" stop-color="#23B6AA"/>
<stop offset="0.3455" stop-color="#2DCC8B"/>
<stop offset="0.4619" stop-color="#35DD74"/>
<stop offset="0.5723" stop-color="#39E767"/>
<stop offset="0.6701" stop-color="#3BEA62"/>
</linearGradient>
<linearGradient id="paint12_linear" x1="3.1369" y1="26.8101" x2="12.4877" y2="17.5848" gradientUnits="userSpaceOnUse">
<stop offset="0.1708" stop-color="#087CFA"/>
<stop offset="0.4017" stop-color="#19A1C8"/>
<stop offset="0.6796" stop-color="#2BC891"/>
<stop offset="0.8874" stop-color="#37E16F"/>
<stop offset="1" stop-color="#3BEA62"/>
</linearGradient>
<linearGradient id="paint13_linear" x1="20.9429" y1="13.4959" x2="30.2903" y2="4.77175" gradientUnits="userSpaceOnUse">
<stop offset="0.4926" stop-color="#00FA45"/>
<stop offset="0.8682" stop-color="#B5FF91"/>
</linearGradient>
<linearGradient id="paint14_linear" x1="23.4837" y1="7.34705" x2="29.0232" y2="10.5322" gradientUnits="userSpaceOnUse">
<stop offset="0.175" stop-color="#00FA45" stop-opacity="0"/>
<stop offset="0.8682" stop-color="#A0FF5E"/>
</linearGradient>
<linearGradient id="paint15_linear" x1="24.987" y1="9.5833" x2="18.586" y2="16.4387" gradientUnits="userSpaceOnUse">
<stop  offset="0" stop-color="#7165DF"/>
<stop offset="0.0682475" stop-color="#6475D9"/>
<stop offset="0.2346" stop-color="#4897CD"/>
<stop offset="0.3197" stop-color="#44B2AA"/>
<stop offset="0.4142" stop-color="#40CA8B"/>
<stop offset="0.506" stop-color="#3DDC74"/>
<stop offset="0.593" stop-color="#3CE667"/>
<stop offset="0.6701" stop-color="#3BEA62"/>
</linearGradient>
<linearGradient id="paint16_linear" x1="22.6771" y1="8.5992" x2="20.6008" y2="10.8229" gradientUnits="userSpaceOnUse">
<stop offset="0.3832" stop-color="#59C1DB"/>
<stop offset="0.4687" stop-color="#4FCEB4"/>
<stop offset="0.5786" stop-color="#44DD88"/>
<stop offset="0.664" stop-color="#3EE76C"/>
<stop offset="0.7139" stop-color="#3BEA62"/>
</linearGradient>
<linearGradient id="paint17_linear" x1="12.3051" y1="14.9166" x2="32.9196" y2="21.7275" gradientUnits="userSpaceOnUse">
<stop  offset="0" stop-color="#1CA7BE"/>
<stop offset="0.3751" stop-color="#2FCF87"/>
<stop offset="0.6552" stop-color="#3BEA62"/>
<stop offset="0.8574" stop-color="#5FFF58"/>
</linearGradient>
<linearGradient id="paint18_linear" x1="11.3949" y1="19.9754" x2="26.379" y2="19.1581" gradientUnits="userSpaceOnUse">
<stop offset="0.2959" stop-color="#1CA7BE"/>
<stop offset="0.3429" stop-color="#23B5AA"/>
<stop offset="0.4312" stop-color="#2DCC8B"/>
<stop offset="0.5168" stop-color="#35DD74"/>
<stop offset="0.5981" stop-color="#39E767"/>
<stop offset="0.6701" stop-color="#3BEA62"/>
<stop offset="1" stop-color="#7EEF5A"/>
</linearGradient>
<linearGradient id="paint19_linear" x1="28.0552" y1="3.15985" x2="22.3795" y2="18.3624" gradientUnits="userSpaceOnUse">
<stop offset="0.124" stop-color="#1CA563"/>
<stop offset="0.3268" stop-color="#29C163" stop-opacity="0.7473"/>
<stop offset="0.5412" stop-color="#33D862" stop-opacity="0.48"/>
<stop offset="0.7453" stop-color="#39E562" stop-opacity="0.2256"/>
<stop offset="0.9263" stop-color="#3BEA62" stop-opacity="0"/>
</linearGradient>
<linearGradient id="paint20_linear" x1="6.07815" y1="6.07814" x2="26.7578" y2="26.7578" gradientUnits="userSpaceOnUse">
<stop  offset="0" stop-color="#006396"/>
<stop offset="0.0339724" stop-color="#005682"/>
<stop offset="0.121" stop-color="#003754"/>
<stop offset="0.2043" stop-color="#001F2F"/>
<stop offset="0.2818" stop-color="#000E15"/>
<stop offset="0.3512" stop-color="#000406"/>
<stop offset="0.4058"/>
<stop offset="0.9138"/>
</linearGradient>
</defs>
<path d="M28.0943 32H11.9057C11.3928 32 10.8849 31.8989 10.411 31.7026C9.93718 31.5064 9.50663 31.2188 9.14395 30.8561C8.78128 30.4934 8.49358 30.0628 8.2973 29.589C8.10102 29.1151 8 28.6073 8 28.0944V23.9056C8 23.3927 8.10102 22.8849 8.2973 22.411C8.49358 21.9372 8.78128 21.5066 9.14395 21.1439C9.50663 20.7812 9.93718 20.4935 10.411 20.2972C10.8849 20.101 11.3928 20 11.9057 20H28.0943C28.6072 20 29.1151 20.101 29.589 20.2972C30.0628 20.4935 30.4934 20.7812 30.856 21.1439C31.2187 21.5066 31.5064 21.9372 31.7027 22.411C31.899 22.8849 32 23.3927 32 23.9056V28.0944C32 29.1302 31.5885 30.1236 30.856 30.8561C30.1236 31.5885 29.1302 32 28.0943 32V32Z" fill="#FDB60D"/>
<path d="M12.4562 23.3781H16.5756V24.4473H13.6498V25.5551H16.2246V26.6238H13.6498V27.7708H16.6147V28.8395H12.4562V23.3781Z" fill="black"/>
<path d="M19.5557 23.3395H20.6635L23.0041 28.8395H21.748L21.2487 27.6147H18.9395L18.4402 28.8395H17.2156L19.5557 23.3395ZM20.8199 26.5537L20.0941 24.7825L19.3687 26.5537H20.8199Z" fill="black"/>
<path d="M23.8468 23.378H26.0782C26.3431 23.3466 26.6118 23.3722 26.866 23.4531C27.1203 23.534 27.3543 23.6684 27.5523 23.8473C27.7503 24.0261 27.9078 24.2453 28.0141 24.49C28.1205 24.7347 28.1732 24.9992 28.1689 25.266V25.2817C28.1666 25.5583 28.1056 25.8313 27.9899 26.0825C27.8742 26.3337 27.7064 26.5575 27.4977 26.739C27.289 26.9205 27.0441 27.0555 26.7792 27.1352C26.5144 27.2149 26.2356 27.2375 25.9614 27.2013H25.0486V28.8395H23.8468V23.378ZM26 26.1321C26.118 26.1471 26.238 26.1369 26.3519 26.1024C26.4658 26.0678 26.5711 26.0097 26.6609 25.9316C26.7508 25.8536 26.8232 25.7573 26.8733 25.6494C26.9234 25.5414 26.9502 25.4242 26.9518 25.3052V25.2894C26.9518 24.7515 26.5775 24.4625 25.9766 24.4625H25.0486V26.1321H26Z" fill="black"/>
</svg>