<!-- Copyright © 2000–2024 JetBrains s.r.o. -->
<svg width="24" height="24" viewBox="0 0 24 24" xmlns="http://www.w3.org/2000/svg">
  <defs>
    <linearGradient id="a" x1="4441.27" x2="4431.94" y1="-4416.14" y2="-4396.03" gradientTransform="matrix(1 0 0 -1 -4417 -4395)" gradientUnits="userSpaceOnUse">
      <stop offset=".21" stop-color="#007dfe"/>
      <stop offset=".55" stop-color="#ffb700"/>
    </linearGradient>
    <linearGradient id="b" x1="4439.42" x2="4417.4" y1="-4396.49" y2="-4418.51" gradientTransform="matrix(1 0 0 -1 -4417 -4395)" gradientUnits="userSpaceOnUse">
      <stop offset=".23" stop-color="#ffb700"/>
      <stop offset=".73" stop-color="#ff0a67"/>
    </linearGradient>
  </defs>
  <path fill="#007dfe" d="M18.02 21.82h4.46c.84 0 1.53-.68 1.53-1.53v-4.32c0-.45-.2-.87-.53-1.16L9.16 2.55a1.52 1.52 0 0 0-.99-.37H3.71c-.84 0-1.53.68-1.53 1.53v4.32c0 .45.2.87.53 1.16l14.31 12.27c.28.24.63.37.99.37Z"/>
  <path fill="url(#a)" d="M18.55 21.82h3.92c.84 0 1.53-.68 1.53-1.53v-4.91c0-.07 0-.15-.02-.22L22 1.31C21.89.56 21.25 0 20.49 0h-5.88c-.84 0-1.53.68-1.53 1.53v6.95c0 .16.03.33.08.48l3.94 11.81c.21.62.79 1.04 1.45 1.04Z"/>
  <path fill="url(#b)" d="M1.53 24h12.74c.61 0 1.16-.36 1.4-.93L21.7 9.01q.12-.285.12-.6V1.53c0-.84-.68-1.53-1.53-1.53h-6.74c-.3 0-.6.09-.85.26L.68 8.28C.26 8.56 0 9.04 0 9.55v12.92C0 23.31.68 24 1.53 24"/>
  <path d="M20 4H4v16h16z"/>
  <path fill="#fff" d="M6 17h6v1H6zM6 6.01h2.76c.32-.02.64.02.94.13s.58.27.82.48c.33.38.51.86.5 1.36a1.91 1.91 0 0 1-1.3 1.87L11.19 12H9.65l-1.29-1.93H7.32V12H5.99V6.02Zm2.66 2.9c.65 0 1.01-.36 1.01-.86 0-.57-.39-.86-1.04-.86H7.3v1.72zM12 6.01h2.36c.55-.04 1.09.08 1.58.33s.89.64 1.17 1.11.43 1.01.42 1.56c0 .55-.15 1.08-.43 1.55s-.69.85-1.17 1.1-1.03.37-1.58.34h-2.36V6.01Zm1.32 1.17v3.6h1.04c.3.02.6-.04.87-.18.27-.13.5-.34.67-.59s.26-.54.28-.84v-.18c.03-.45-.13-.9-.43-1.24s-.73-.55-1.18-.58h-1.25Z"/>
</svg>
