<!-- Copyright © 2000–2024 JetBrains s.r.o. -->
<svg width="16" height="16" viewBox="0 0 16 16" xmlns="http://www.w3.org/2000/svg">
  <path fill="#F4F4F4" fill-rule="evenodd" d="M1 12.25V6.751L6 4l5 2.751v5.499L6 15z"/>
  <path fill="#313131" fill-rule="evenodd" d="M2 7.8v3.859l4 2.2v-3.86L2 7.802m8-.002L6 10v3.859l4-2.2z"/>
  <path fill="#EBEBEB" fill-rule="evenodd" d="m9.379 7-3.38 1.858L2.622 7 2 7.342v.459L6 10l4-2.199v-.459z"/>
  <path fill="#313131" fill-rule="evenodd" d="M6 8.858 9.379 7 6 5.141l-3.379 1.86L6 8.857"/>
  <path fill="#F4F4F4" fill-rule="evenodd" d="M6 5a5 5 0 0 0 5 5 5 5 0 1 0 0-10 5 5 0 0 0-5 5"/>
  <path fill="#A1250C" fill-rule="evenodd" d="M11 5.991 8.937 8.053a3.74 3.74 0 0 1-.989-.99L10.01 5 7.948 2.937c.263-.389.6-.726.989-.989L11 4.011l2.063-2.063c.389.263.726.6.989.99L11.99 5l2.062 2.063a3.74 3.74 0 0 1-.989.99z"/>
</svg>
