<svg width="16" height="16" viewBox="0 0 16 16" xmlns="http://www.w3.org/2000/svg">
  <path fill="#F2FCF3" stroke="#208A3C" stroke-linejoin="round" d="M12.04 10.461a.56.56 0 0 1-.399-.165L9.744 8.399a.564.564 0 0 1 0-.797l1.897-1.897a.56.56 0 0 1 .796 0l1.897 1.897c.22.22.22.577 0 .797l-1.897 1.897a.56.56 0 0 1-.398.165Z"/>
  <path fill="#FFF7F7" stroke="#DB3B4B" stroke-linejoin="round" d="M8 6.422a.56.56 0 0 1-.398-.165L5.705 4.36a.564.564 0 0 1 0-.797l1.897-1.897a.56.56 0 0 1 .796 0l1.897 1.897c.22.22.22.577 0 .797L8.398 6.257A.56.56 0 0 1 8 6.422Z"/>
  <path fill="#FFFAEB" stroke="#FFAF0F" stroke-linejoin="round" d="M8 14.563a.41.41 0 0 1-.29-.121l-2.006-2.005a.564.564 0 0 1 0-.797l1.897-1.897a.56.56 0 0 1 .796 0l1.897 1.897c.22.22.22.577 0 .797L8.29 14.442a.41.41 0 0 1-.29.12Z"/>
  <path fill="#F5F8FE" stroke="#3574F0" stroke-linejoin="round" d="M3.961 10.461a.56.56 0 0 1-.398-.165L1.666 8.399a.564.564 0 0 1 0-.797l1.897-1.897a.56.56 0 0 1 .796 0l1.897 1.897c.22.22.22.577 0 .797l-1.897 1.897a.56.56 0 0 1-.398.165Z"/>
</svg>
