<!-- Copyright 2000-2022 JetBrains s.r.o. and contributors. Use of this source code is governed by the Apache 2.0 license. -->
<svg width="16" height="16" viewBox="0 0 16 16" fill="none" xmlns="http://www.w3.org/2000/svg">
    <path fill-rule="evenodd" clip-rule="evenodd"
          d="M1.44994 8.83932L5.24413 10.4469L6.05743 14.4575C6.17204 15.0226 6.88247 15.2146 7.26608 14.7841L10.0091 11.7058L14.2269 12.186C14.811 12.2524 15.2119 11.6128 14.8975 11.1161L12.6936 7.63387L14.4206 3.93934C14.6666 3.41318 14.2017 2.83364 13.6347 2.95956L9.58779 3.85837L6.52001 1.17992C6.09063 0.805035 5.41717 1.07306 5.36281 1.64046L4.98376 5.59694L1.38497 7.58184C0.873494 7.86394 0.912119 8.61144 1.44994 8.83932ZM3.73563 8.06843L6.65486 9.23669L7.31667 12.27L9.36536 9.89368L12.507 10.1945L10.8539 7.5576L12.1337 4.71024L9.06339 5.45684L6.71273 3.39627L6.46823 6.49457L3.73563 8.06843Z"
          fill="#E25A1C"/>
</svg>
