<svg width="32" height="32" viewBox="0 0 32 32" fill="none" xmlns="http://www.w3.org/2000/svg">
<g clip-path="url(#clip0_4407_11656)">
<path d="M0 2.03636V19.0205C0 19.8351 0.485527 20.5713 1.23404 20.8922L19.9793 28.9262C20.2327 29.0348 20.5059 29.0909 20.7817 29.0909H29.9636C31.0883 29.0909 32 28.1792 32 27.0545V18.0716C32 17.6692 31.8807 17.2759 31.6573 16.9411L20.9559 0.906763C20.578 0.340654 19.9427 0.000872727 19.2623 0.000872727L2.03636 0C0.911709 0 0 0.911709 0 2.03636Z" fill="url(#paint0_linear_4407_11656)"/>
<path d="M2.90918 24.7403V29.9636C2.90918 31.0882 3.82089 31.9999 4.94554 31.9999H11.4919C11.5882 31.9999 11.6845 31.9929 11.7799 31.9796L30.2517 29.341C31.2551 29.1976 32.0001 28.3385 32.0001 27.325V19.4885C32.0001 18.3636 31.0881 17.4519 29.9631 17.4521L20.6939 17.4545C20.4751 17.4545 20.2578 17.4897 20.0504 17.5589L4.30147 22.8087C3.47005 23.0859 2.90918 23.8641 2.90918 24.7406V24.7403Z" fill="url(#paint1_linear_4407_11656)"/>
<path d="M2.90918 24.0261L2.91005 29.9638C2.91005 31.0885 3.82176 31.9999 4.94642 31.9999H10.6997C11.294 31.9999 11.859 31.7401 12.2459 31.2889L28.6008 12.2082C28.917 11.839 29.091 11.3689 29.091 10.8828V4.94505C29.091 3.8204 28.1793 2.90869 27.0546 2.90869H21.3004C20.7061 2.90869 20.1412 3.16847 19.7543 3.61967L3.39965 22.7004C3.08314 23.0696 2.90947 23.5397 2.90947 24.0261H2.90918Z" fill="#00D886"/>
<path d="M26 6H6V26H26V6Z" fill="black"/>
<path d="M9.84798 16.3453C10.2599 16.5805 10.7061 16.7288 11.1822 16.8008L11.1828 16.8947C11.1828 17.2136 11.2479 17.4918 11.3781 17.7223C11.5119 17.9598 11.702 18.1429 11.9479 18.265C12.1976 18.3938 12.4868 18.4618 12.8162 18.4618H14.0371V17.363H13.1092C12.9935 17.363 12.8958 17.343 12.8162 17.302C12.7365 17.2613 12.6752 17.2002 12.6316 17.1189C12.5883 17.0375 12.5665 16.9424 12.5665 16.8273V16.7843C13.0095 16.7072 13.4257 16.566 13.8092 16.3456C14.4024 15.9997 14.8672 15.5317 15.2036 14.9349C15.5399 14.3312 15.7082 13.6664 15.7082 12.9272C15.7082 12.188 15.5399 11.5232 15.2036 10.9261C14.8672 10.3226 14.4022 9.85462 13.8092 9.51539C13.2194 9.16947 12.5592 9 11.8287 9C11.0982 9 10.4416 9.16947 9.84827 9.51539C9.25876 9.85462 8.79395 10.3226 8.45385 10.9261C8.11753 11.5232 7.94922 12.1877 7.94922 12.9272C7.94922 13.6667 8.11753 14.3312 8.45385 14.9349C8.79395 15.5317 9.25876 15.9997 9.84827 16.3456L9.84798 16.3453ZM9.77211 11.5839C9.9782 11.1769 10.2605 10.865 10.6186 10.6409C10.9802 10.4171 11.3854 10.3017 11.8339 10.3017C12.2825 10.3017 12.6859 10.4168 13.0441 10.6409C13.4022 10.8647 13.6824 11.1767 13.885 11.5839C14.0876 11.9772 14.1888 12.4249 14.1888 12.9269C14.1888 13.4289 14.0873 13.8763 13.885 14.2765C13.6824 14.6765 13.4022 14.9887 13.0441 15.2192C12.6859 15.443 12.2825 15.5515 11.8339 15.5515C11.3854 15.5515 10.9802 15.443 10.6186 15.2192C10.2605 14.9884 9.9782 14.6765 9.77211 14.2765C9.5695 13.8763 9.46834 13.4286 9.46834 12.9269C9.46834 12.4251 9.5695 11.9772 9.77211 11.5839Z" fill="white"/>
<path d="M20.1969 9.12842H18.5909L15.8506 16.7249H17.3752L17.9505 14.9616H20.9076L21.5207 16.7249H23.0128L20.1966 9.12842H20.1969ZM18.3031 13.8154L19.269 10.9193L19.3775 10.4377L19.4914 10.9193L20.517 13.8154H18.3031Z" fill="white"/>
<path d="M16 22H9V23H16V22Z" fill="white"/>
<rect y="22" width="32" height="10.0001" rx="2.5" fill="#3BEA62"/>
<g opacity="0.9">
<path d="M2.0625 29.9629H2.95253V28.2427H3.62873C4.5361 28.2427 5.2643 27.5546 5.2643 26.2276V26.2112C5.2643 25.0398 4.68058 24.2288 3.71542 24.2288H2.0625V29.9629ZM2.95253 27.1204V25.3674H3.64028C4.0853 25.3674 4.36271 25.6705 4.36271 26.2357V26.2521C4.36271 26.7436 4.10264 27.1204 3.65762 27.1204H2.95253Z" fill="#010101"/>
<path d="M5.92298 29.9629H6.81301V28.128H7.51232L8.37924 29.9629H9.41953L8.43125 27.915C8.94562 27.6447 9.29817 27.0631 9.29817 26.1374V26.1211C9.29817 25.5804 9.1768 25.1299 8.9514 24.8104C8.68555 24.4336 8.28677 24.2288 7.7724 24.2288H5.92298V29.9629ZM6.81301 27.014V25.3674H7.69727C8.13072 25.3674 8.39658 25.6459 8.39658 26.1866V26.203C8.39658 26.6863 8.14806 27.014 7.7146 27.014H6.81301Z" fill="#010101"/>
<path d="M10.0995 29.9629H13.18V28.8407H10.9838V27.6365H12.891V26.5143H10.9838V25.351H13.1511V24.2288H10.0995V29.9629Z" fill="#010101"/>
<path d="M15.2601 30.0039H16.0461L17.6817 24.2288H16.7223L15.6647 28.2673L14.607 24.2288H13.6245L15.2601 30.0039Z" fill="#010101"/>
<path d="M18.3463 29.9629H19.2364V24.2288H18.3463V29.9629Z" fill="#010101"/>
<path d="M20.2474 29.9629H23.3278V28.8407H21.1316V27.6365H23.0389V26.5143H21.1316V25.351H23.2989V24.2288H20.2474V29.9629Z" fill="#010101"/>
<path d="M25.1884 30.0039H25.9628L26.8759 26.2521L27.7891 30.0039H28.5635L29.9448 24.2288H29.0143L28.1763 28.1116L27.2689 24.2124H26.5061L25.5987 28.1116L24.7607 24.2288H23.8071L25.1884 30.0039Z" fill="#010101"/>
</g>
</g>
<defs>
<linearGradient id="paint0_linear_4407_11656" x1="30.0093" y1="29.8889" x2="0.656582" y2="0.536435" gradientUnits="userSpaceOnUse">
<stop offset="0.25" stop-color="#7256FF"/>
<stop offset="0.73" stop-color="#007DFE"/>
</linearGradient>
<linearGradient id="paint1_linear_4407_11656" x1="3.811" y1="32.3586" x2="31.0308" y2="19.7384" gradientUnits="userSpaceOnUse">
<stop offset="0.3" stop-color="#00D886"/>
<stop offset="0.54" stop-color="#7256FF"/>
</linearGradient>
<clipPath id="clip0_4407_11656">
<rect width="32" height="32" fill="white"/>
</clipPath>
</defs>
</svg>
