<svg width="70" height="70" viewBox="0 0 70 70" fill="none" xmlns="http://www.w3.org/2000/svg">
<path d="M48.2001 21L44 2.80005H20.9L2.80005 30.4L8.00005 43.1L2.80005 54.7001L33.7001 60.2001L53.2001 42.9001L48.2001 21Z" fill="url(#paint0_linear)"/>
<path d="M9.10005 31.3001L2.80005 30.4001L8.00005 43.1001L2.80005 54.7001L15.2 44.6001L9.10005 31.3001Z" fill="url(#paint1_linear)"/>
<path d="M9.10005 31.3001L2.80005 30.4001L8.00005 43.1001L15.2 44.6001L9.10005 31.3001Z" fill="url(#paint2_linear)"/>
<path d="M9.10005 31.3L44 2.80005H20.9L2.80005 30.4L9.10005 31.3Z" fill="url(#paint3_linear)"/>
<path d="M9.10005 31.3L44 2.80005H20.9L2.80005 30.4L9.10005 31.3Z" fill="url(#paint4_linear)"/>
<path d="M9.10005 31.3L25.5 17.9L20.9 2.80005L2.80005 30.4L9.10005 31.3Z" fill="url(#paint5_linear)"/>
<path d="M9.10005 31.3L25.5 17.9L20.9 2.80005L2.80005 30.4L9.10005 31.3Z" fill="url(#paint6_linear)"/>
<path d="M59.5 27.7L67.2 44.7L54.1 67.1999L46 47.5999L59.5 27.7Z" fill="url(#paint7_linear)"/>
<path d="M52.7 38L67.2 44.7L54.1 67.2L46 47.6L52.7 38Z" fill="url(#paint8_linear)"/>
<path d="M46.0001 47.6001L54.1001 67.2001L33.7001 60.2001L46.0001 47.6001Z" fill="url(#paint9_linear)"/>
<path d="M67.2 16.5L40.2001 22.9L2.80005 54.7L26.9 67.2L46 47.6L67.2 16.5Z" fill="url(#paint10_linear)"/>
<path d="M18.8 55.5L2.80005 54.7L26.9 67.1999L33.9001 60L18.8 55.5Z" fill="url(#paint11_linear)"/>
<path d="M18.8 55.5L2.80005 54.7001L15 44.3L18.8 55.5Z" fill="url(#paint12_linear)"/>
<path d="M67.2001 16.5L40.2001 22.9L59.2001 28.1L67.2001 16.5Z" fill="url(#paint13_linear)"/>
<path d="M67.2001 16.5L40.2001 22.9L58.1001 27.8L67.2001 16.5Z" fill="url(#paint14_linear)"/>
<path d="M52.2001 38.4L48.2001 21L40.2001 22.9L29.3 32.2L52.2001 38.4Z" fill="url(#paint15_linear)"/>
<path d="M49.2001 25.4L48.2001 21L40.2001 22.9L49.2001 25.4Z" fill="url(#paint16_linear)"/>
<path d="M15 44.2999L46 47.5999L59.5 27.7L49.6 29L15 44.2999Z" fill="url(#paint17_linear)"/>
<path d="M67.2 16.5L26.9 67.2L46 47.6L67.2 16.5Z" fill="url(#paint18_linear)"/>
<path d="M67.2 16.5L26.9 67.2L46 47.6L67.2 16.5Z" fill="url(#paint19_linear)"/>
<path d="M55 15H15V55H55V15Z" fill="url(#paint20_linear)"/>
<g opacity="0.3">
<path opacity="0.3" d="M15 52.3333L40.0556 53.8333L20.6667 20L15 18.5V52.3333Z" fill="url(#paint21_linear)"/>
<path opacity="0.3" d="M40.8333 55H42L41.1666 18.1111L40.0555 15H27.0555L20.6666 20.0556L40.8333 55Z" fill="url(#paint22_linear)"/>
<path opacity="0.3" d="M55.0001 40.7778V15H53.5001L47.7778 20.8333L51.0001 21.8333L50.9445 21.8889L55.0001 30.2222V40.7778Z" fill="url(#paint23_linear)"/>
<path opacity="0.3" d="M55 30.2222L50.9444 21.8889L38.1111 31.7223L41.3889 55H55V30.2222Z" fill="url(#paint24_linear)"/>
<path opacity="0.3" d="M33.2222 15L18.1666 28.2778L38.1111 31.7222L51 21.8333L47.7777 20.8333L53.5 15H33.2222Z" fill="url(#paint25_linear)"/>
<path opacity="0.3" d="M20.6667 20.0556L27.0556 15H15V18.5556L20.6667 20.0556Z" fill="url(#paint26_linear)"/>
</g>
<path d="M35 47.3999H20V49.8999H35V47.3999Z" fill="white"/>
<path d="M18.7 27.6415C18.7 23.3015 22.1166 19.7925 26.7337 19.7925C29.504 19.7925 31.1661 20.5312 32.7359 21.9163L30.6121 24.4096C29.4116 23.3938 28.3959 22.8398 26.6414 22.8398C24.2405 22.8398 22.3013 24.9636 22.3013 27.5492C22.3013 30.3195 24.2405 32.351 26.9184 32.351C28.1188 32.351 29.2269 32.074 30.058 31.4276V29.2114H26.6414V26.3488H33.29V32.9974C31.7202 34.2902 29.5963 35.3983 26.826 35.3983C22.0243 35.4906 18.7 32.1663 18.7 27.6415Z" fill="white"/>
<path d="M34.6752 27.6414C34.6752 23.3013 38.0918 19.7 42.8013 19.7C47.5107 19.7 50.835 23.2089 50.835 27.549C50.835 31.8891 47.4184 35.3981 42.7089 35.3981C37.9995 35.4904 34.6752 31.9814 34.6752 27.6414ZM47.326 27.6414C47.326 24.9634 45.3868 22.8396 42.7089 22.8396C40.031 22.8396 38.1842 24.9634 38.1842 27.549C38.1842 30.1346 40.1233 32.3508 42.8013 32.3508C45.4792 32.4431 47.326 30.3193 47.326 27.6414Z" fill="white"/>
<defs>
<linearGradient id="paint0_linear" x1="31.8066" y1="28.7792" x2="47.0942" y2="11.3868" gradientUnits="userSpaceOnUse">
<stop stop-color="#087CFA"/>
<stop offset="0.0225255" stop-color="#0D7BFA"/>
<stop offset="0.3726" stop-color="#5566F9"/>
<stop offset="0.6634" stop-color="#8A57F8"/>
<stop offset="0.8808" stop-color="#AB4EF7"/>
<stop offset="1" stop-color="#B74AF7"/>
</linearGradient>
<linearGradient id="paint1_linear" x1="2.77835" y1="42.5651" x2="19.5923" y2="41.8341" gradientUnits="userSpaceOnUse">
<stop offset="0.1204" stop-color="#2D58F9"/>
<stop offset="0.9461" stop-color="#B74AF7"/>
</linearGradient>
<linearGradient id="paint2_linear" x1="5.88015" y1="28.8011" x2="12.0295" y2="45.9915" gradientUnits="userSpaceOnUse">
<stop offset="0.0852751" stop-color="#086AFA"/>
<stop offset="0.4762" stop-color="#087CFA"/>
<stop offset="0.6849" stop-color="#466AF9"/>
<stop offset="0.8976" stop-color="#8059F8"/>
<stop offset="1" stop-color="#9653F8"/>
</linearGradient>
<linearGradient id="paint3_linear" x1="5.06335" y1="25.1784" x2="40.4275" y2="-3.74335" gradientUnits="userSpaceOnUse">
<stop stop-color="#087CFA"/>
<stop offset="0.0188132" stop-color="#0D7BFA"/>
<stop offset="0.3112" stop-color="#5566F9"/>
<stop offset="0.5541" stop-color="#8A57F8"/>
<stop offset="0.7356" stop-color="#AB4EF7"/>
<stop offset="0.8352" stop-color="#B74AF7"/>
<stop offset="0.9797" stop-color="#DB5CFF"/>
</linearGradient>
<linearGradient id="paint4_linear" x1="21.3284" y1="14.9866" x2="28.492" y2="20.6152" gradientUnits="userSpaceOnUse">
<stop offset="0.5234" stop-color="#B74AF7" stop-opacity="0"/>
<stop offset="0.9263" stop-color="#D66EFF"/>
</linearGradient>
<linearGradient id="paint5_linear" x1="3.63375" y1="26.3366" x2="32.5875" y2="2.65735" gradientUnits="userSpaceOnUse">
<stop stop-color="#087CFA"/>
<stop offset="0.0163189" stop-color="#0D7BFA"/>
<stop offset="0.2699" stop-color="#5566F9"/>
<stop offset="0.4806" stop-color="#8A57F8"/>
<stop offset="0.6381" stop-color="#AB4EF7"/>
<stop offset="0.7245" stop-color="#B74AF7"/>
<stop offset="0.9526" stop-color="#DB5CFF"/>
</linearGradient>
<linearGradient id="paint6_linear" x1="5.85365" y1="34.4052" x2="11.3439" y2="26.7797" gradientUnits="userSpaceOnUse">
<stop stop-color="#8F99FF"/>
<stop offset="1" stop-color="#B74AF7" stop-opacity="0"/>
</linearGradient>
<linearGradient id="paint7_linear" x1="66.2145" y1="39.4843" x2="41.0612" y2="60.7679" gradientUnits="userSpaceOnUse">
<stop stop-color="#087CFA"/>
<stop offset="0.0225255" stop-color="#0D7BFA"/>
<stop offset="0.3726" stop-color="#5566F9"/>
<stop offset="0.6634" stop-color="#8A57F8"/>
<stop offset="0.8808" stop-color="#AB4EF7"/>
<stop offset="1" stop-color="#B74AF7"/>
</linearGradient>
<linearGradient id="paint8_linear" x1="65.467" y1="50.7854" x2="42.5407" y2="54.2532" gradientUnits="userSpaceOnUse">
<stop offset="0.003297" stop-color="#2D58F9"/>
<stop offset="0.8129" stop-color="#B74AF7"/>
</linearGradient>
<linearGradient id="paint9_linear" x1="53.0753" y1="54.644" x2="44.0929" y2="62.6809" gradientUnits="userSpaceOnUse">
<stop stop-color="#C386F7"/>
<stop offset="0.8129" stop-color="#B74AF7"/>
</linearGradient>
<linearGradient id="paint10_linear" x1="11.7468" y1="59.0582" x2="58.202" y2="29.2062" gradientUnits="userSpaceOnUse">
<stop stop-color="#087CFA"/>
<stop offset="0.1021" stop-color="#1598D3"/>
<stop offset="0.2248" stop-color="#23B6AA"/>
<stop offset="0.3455" stop-color="#2DCC8B"/>
<stop offset="0.4619" stop-color="#35DD74"/>
<stop offset="0.5723" stop-color="#39E767"/>
<stop offset="0.6701" stop-color="#3BEA62"/>
</linearGradient>
<linearGradient id="paint11_linear" x1="14.3738" y1="61.4328" x2="36.025" y2="40.0723" gradientUnits="userSpaceOnUse">
<stop stop-color="#087CFA"/>
<stop offset="0.1021" stop-color="#1598D3"/>
<stop offset="0.2248" stop-color="#23B6AA"/>
<stop offset="0.3455" stop-color="#2DCC8B"/>
<stop offset="0.4619" stop-color="#35DD74"/>
<stop offset="0.5723" stop-color="#39E767"/>
<stop offset="0.6701" stop-color="#3BEA62"/>
</linearGradient>
<linearGradient id="paint12_linear" x1="9.11315" y1="56.7551" x2="27.9315" y2="38.1894" gradientUnits="userSpaceOnUse">
<stop offset="0.1708" stop-color="#087CFA"/>
<stop offset="0.4017" stop-color="#19A1C8"/>
<stop offset="0.6796" stop-color="#2BC891"/>
<stop offset="0.8874" stop-color="#37E16F"/>
<stop offset="1" stop-color="#3BEA62"/>
</linearGradient>
<linearGradient id="paint13_linear" x1="44.9478" y1="29.9605" x2="63.7593" y2="12.4031" gradientUnits="userSpaceOnUse">
<stop offset="0.4926" stop-color="#00FA45"/>
<stop offset="0.8682" stop-color="#B5FF91"/>
</linearGradient>
<linearGradient id="paint14_linear" x1="50.0611" y1="17.5858" x2="61.2093" y2="23.996" gradientUnits="userSpaceOnUse">
<stop offset="0.175" stop-color="#00FA45" stop-opacity="0"/>
<stop offset="0.8682" stop-color="#A0FF5E"/>
</linearGradient>
<linearGradient id="paint15_linear" x1="53.0864" y1="22.0865" x2="40.2042" y2="35.8828" gradientUnits="userSpaceOnUse">
<stop stop-color="#7165DF"/>
<stop offset="0.0682475" stop-color="#6475D9"/>
<stop offset="0.2346" stop-color="#4897CD"/>
<stop offset="0.3197" stop-color="#44B2AA"/>
<stop offset="0.4142" stop-color="#40CA8B"/>
<stop offset="0.506" stop-color="#3DDC74"/>
<stop offset="0.593" stop-color="#3CE667"/>
<stop offset="0.6701" stop-color="#3BEA62"/>
</linearGradient>
<linearGradient id="paint16_linear" x1="48.4377" y1="20.1059" x2="44.2592" y2="24.581" gradientUnits="userSpaceOnUse">
<stop offset="0.3832" stop-color="#59C1DB"/>
<stop offset="0.4687" stop-color="#4FCEB4"/>
<stop offset="0.5786" stop-color="#44DD88"/>
<stop offset="0.664" stop-color="#3EE76C"/>
<stop offset="0.7139" stop-color="#3BEA62"/>
</linearGradient>
<linearGradient id="paint17_linear" x1="27.5641" y1="32.8198" x2="69.0507" y2="46.5268" gradientUnits="userSpaceOnUse">
<stop stop-color="#1CA7BE"/>
<stop offset="0.3751" stop-color="#2FCF87"/>
<stop offset="0.6552" stop-color="#3BEA62"/>
<stop offset="0.8574" stop-color="#5FFF58"/>
</linearGradient>
<linearGradient id="paint18_linear" x1="25.7322" y1="43.0005" x2="55.8877" y2="41.3557" gradientUnits="userSpaceOnUse">
<stop offset="0.2959" stop-color="#1CA7BE"/>
<stop offset="0.3429" stop-color="#23B5AA"/>
<stop offset="0.4312" stop-color="#2DCC8B"/>
<stop offset="0.5168" stop-color="#35DD74"/>
<stop offset="0.5981" stop-color="#39E767"/>
<stop offset="0.6701" stop-color="#3BEA62"/>
<stop offset="1" stop-color="#7EEF5A"/>
</linearGradient>
<linearGradient id="paint19_linear" x1="59.261" y1="9.1591" x2="47.8388" y2="39.7543" gradientUnits="userSpaceOnUse">
<stop offset="0.124" stop-color="#1CA563"/>
<stop offset="0.3268" stop-color="#29C163" stop-opacity="0.7473"/>
<stop offset="0.5412" stop-color="#33D862" stop-opacity="0.48"/>
<stop offset="0.7453" stop-color="#39E562" stop-opacity="0.2256"/>
<stop offset="0.9263" stop-color="#3BEA62" stop-opacity="0"/>
</linearGradient>
<linearGradient id="paint20_linear" x1="15.1563" y1="15.1563" x2="56.5156" y2="56.5156" gradientUnits="userSpaceOnUse">
<stop stop-color="#006396"/>
<stop offset="0.0339724" stop-color="#005682"/>
<stop offset="0.121" stop-color="#003754"/>
<stop offset="0.2043" stop-color="#001F2F"/>
<stop offset="0.2818" stop-color="#000E15"/>
<stop offset="0.3512" stop-color="#000406"/>
<stop offset="0.4058"/>
<stop offset="0.9138"/>
</linearGradient>
<linearGradient id="paint21_linear" x1="28.0336" y1="59.2254" x2="24.3882" y2="15.5788" gradientUnits="userSpaceOnUse">
<stop offset="0.1391" stop-color="#2C083E"/>
<stop offset="0.1711" stop-color="#0E0A25"/>
<stop offset="0.5145" stop-color="#8D1BC7"/>
<stop offset="0.8648" stop-color="#FF45ED"/>
</linearGradient>
<linearGradient id="paint22_linear" x1="38.2585" y1="51.0399" x2="30.2882" y2="16.3198" gradientUnits="userSpaceOnUse">
<stop offset="0.0862819" stop-color="#3B0B6E"/>
<stop offset="0.2814" stop-color="#601274"/>
<stop offset="0.7133" stop-color="#BE2482"/>
<stop offset="1" stop-color="#FF318C"/>
</linearGradient>
<linearGradient id="paint23_linear" x1="50.5751" y1="15.4948" x2="54.2614" y2="26.5537" gradientUnits="userSpaceOnUse">
<stop offset="0.1893" stop-color="#4335BE"/>
<stop offset="0.5166" stop-color="#2B227A"/>
<stop offset="0.8443" stop-color="#15113C"/>
<stop offset="1" stop-color="#0C0A23"/>
</linearGradient>
<linearGradient id="paint24_linear" x1="55.2006" y1="51.6861" x2="42.651" y2="33.2916" gradientUnits="userSpaceOnUse">
<stop stop-color="#15132A"/>
<stop offset="0.4052" stop-color="#331444"/>
<stop offset="0.9653" stop-color="#9F40D7"/>
</linearGradient>
<linearGradient id="paint25_linear" x1="39.5131" y1="41.0312" x2="34.6139" y2="15.1219" gradientUnits="userSpaceOnUse">
<stop offset="0.016129" stop-color="#6B57FF"/>
<stop offset="0.5665" stop-color="#B74AF7"/>
<stop offset="0.9064" stop-color="#C276FF"/>
</linearGradient>
<linearGradient id="paint26_linear" x1="16.6148" y1="23.0333" x2="21.3535" y2="14.4333" gradientUnits="userSpaceOnUse">
<stop offset="0.0874352" stop-color="#FF45ED"/>
<stop offset="0.2127" stop-color="#FF42DC"/>
<stop offset="0.4594" stop-color="#FF38B0"/>
<stop offset="0.6408" stop-color="#FF318C"/>
</linearGradient>
</defs>
</svg>
