<svg width="16" height="16" viewBox="0 0 16 16" fill="none" xmlns="http://www.w3.org/2000/svg">
<path d="M16 0H0V16H16V0Z" fill="#087CFA"/>
<path d="M15 1H1V15H15V1Z" fill="black"/>
<path d="M9 12H3V13H9V12Z" fill="white"/>
<path d="M2.5 5.9999C2.5 4.2999 3.7 2.8999 5.4 2.8999C6.4 2.8999 7 3.1999 7.6 3.6999L6.8 4.6999C6.4 4.2999 6 4.0999 5.4 4.0999C4.5 4.0999 3.8 4.8999 3.8 5.9999C3.8 7.0999 4.5 7.8999 5.5 7.8999C5.9 7.8999 6.3 7.7999 6.7 7.4999V6.6999H5.4V5.4999H7.8V8.0999C7.2 8.5999 6.4 9.0999 5.4 9.0999C3.7 9.0999 2.5 7.7999 2.5 5.9999Z" fill="white"/>
<path d="M8.5 5.9999C8.5 4.2999 9.7 2.8999 11.4 2.8999C13.1 2.8999 14.2 4.2999 14.2 5.9999C14.2 7.6999 13 9.0999 11.3 9.0999C9.7 9.0999 8.5 7.6999 8.5 5.9999ZM13 5.9999C13 4.9999 12.3 4.0999 11.4 4.0999C10.5 4.0999 9.8 4.8999 9.8 5.9999C9.8 6.9999 10.5 7.8999 11.4 7.8999C12.3 7.8999 13 6.9999 13 5.9999Z" fill="white"/>
</svg>
