<svg width="70" height="70" viewBox="0 0 70 70" fill="none" xmlns="http://www.w3.org/2000/svg">
<path d="M61.4564 70H26.0437C23.7777 70 21.6046 69.0999 20.0024 67.4977C18.4002 65.8954 17.5 63.7223 17.5 61.4564V52.2936C17.5 51.1716 17.721 50.0606 18.1503 49.0241C18.5797 47.9875 19.209 47.0457 20.0024 46.2523C20.7957 45.459 21.7376 44.8297 22.7741 44.4003C23.8107 43.971 24.9217 43.75 26.0437 43.75H61.4564C63.7223 43.75 65.8954 44.6501 67.4976 46.2523C69.0999 47.8546 70 50.0277 70 52.2936V61.4564C70 63.7223 69.0999 65.8954 67.4976 67.4977C65.8954 69.0999 63.7223 70 61.4564 70Z" fill="#8F38E6"/>
<path d="M35.1115 59.3651V59.3306C35.1115 58.5241 34.9109 57.8962 34.5098 57.4468C34.1087 56.986 33.5586 56.6231 32.8595 56.3581C33.0772 56.2429 33.2778 56.1046 33.4612 55.9433C33.656 55.782 33.8222 55.5977 33.9597 55.3903C34.1087 55.1714 34.2233 54.9294 34.3035 54.6645C34.3952 54.3995 34.441 54.0942 34.441 53.7485V53.714C34.441 52.7577 34.0858 51.9973 33.3752 51.4327C32.6761 50.8682 31.7077 50.5859 30.4699 50.5859H24.8828V62.6832H30.6074C31.2836 62.6832 31.8968 62.6141 32.4469 62.4759C33.0085 62.3376 33.4841 62.1302 33.8737 61.8537C34.2749 61.5772 34.5786 61.2316 34.7849 60.8168C35.0026 60.402 35.1115 59.9181 35.1115 59.3651ZM31.8108 54.1978C31.8108 54.6472 31.6389 54.9755 31.2951 55.1829C30.9513 55.3788 30.4871 55.4767 29.9026 55.4767H27.4615V52.919H30.0745C30.6361 52.919 31.0659 53.0284 31.3638 53.2473C31.6618 53.4547 31.8108 53.76 31.8108 54.1633V54.1978ZM32.4813 59.0368C32.4813 59.4861 32.3151 59.8202 31.9827 60.0391C31.6504 60.2465 31.1919 60.3502 30.6074 60.3502H27.4615V57.6888H30.5215C31.2091 57.6888 31.7077 57.8098 32.0171 58.0517C32.3265 58.2821 32.4813 58.599 32.4813 59.0022V59.0368Z" fill="white" fill-opacity="0.86"/>
<path d="M45.6097 58.3109V58.2764C45.6097 57.6197 45.518 56.9917 45.3347 56.3926C45.1628 55.782 44.8877 55.2463 44.5095 54.7854C44.1428 54.3131 43.6786 53.9386 43.117 53.6621C42.5554 53.3856 41.8907 53.2473 41.1229 53.2473C40.4467 53.2473 39.8278 53.3741 39.2662 53.6275C38.7161 53.881 38.2405 54.2267 37.8394 54.6645C37.4382 55.1023 37.1231 55.615 36.8939 56.2025C36.6761 56.7901 36.5672 57.4123 36.5672 58.069V58.1035C36.5672 58.8179 36.6876 59.4688 36.9282 60.0564C37.1689 60.6325 37.5013 61.1336 37.9253 61.5599C38.3608 61.9862 38.8708 62.3146 39.4553 62.545C40.0513 62.7754 40.6931 62.8906 41.3807 62.8906C42.2174 62.8906 42.9451 62.7408 43.564 62.4413C44.1829 62.1302 44.7101 61.7039 45.1456 61.1624L43.6499 59.8317C43.2832 60.1659 42.9279 60.4078 42.5841 60.5576C42.2403 60.7074 41.8506 60.7822 41.4151 60.7822C40.8306 60.7822 40.3378 60.6325 39.9367 60.3329C39.547 60.0218 39.2891 59.5667 39.1631 58.9676H45.5753C45.5868 58.8409 45.5925 58.7315 45.5925 58.6393C45.604 58.5471 45.6097 58.4377 45.6097 58.3109ZM43.0654 57.3259H39.1287C39.2318 56.7268 39.4496 56.2486 39.782 55.8915C40.1258 55.5343 40.5727 55.3557 41.1229 55.3557C41.673 55.3557 42.1142 55.5401 42.4466 55.9088C42.7789 56.2659 42.9852 56.7383 43.0654 57.3259Z" fill="white" fill-opacity="0.86"/>
<path d="M52.7317 62.303V60.1947C52.3305 60.4136 51.9008 60.523 51.4423 60.523C50.8808 60.523 50.6 60.2235 50.6 59.6244V55.6668H52.766V53.4202H50.6V51.0525H47.9869V53.4202H46.8867V55.6668H47.9869V60.0564C47.9869 60.5979 48.05 61.0472 48.176 61.4044C48.3136 61.75 48.4969 62.0323 48.7261 62.2512C48.9668 62.4701 49.2476 62.6199 49.5685 62.7005C49.9009 62.7927 50.2676 62.8388 50.6687 62.8388C51.1042 62.8388 51.4882 62.7869 51.8205 62.6832C52.1529 62.5911 52.4566 62.4643 52.7317 62.303Z" fill="white" fill-opacity="0.86"/>
<path d="M62.6172 62.6832V57.3086C62.6172 56.0528 62.2906 55.0735 61.6373 54.3707C60.984 53.6679 59.9411 53.3165 58.5085 53.3165C57.7292 53.3165 57.0645 53.3856 56.5144 53.5239C55.9642 53.6621 55.4371 53.8407 54.9328 54.0596L55.586 56.0643C56.0101 55.903 56.4112 55.782 56.7894 55.7014C57.1791 55.6092 57.626 55.5631 58.1303 55.5631C58.7836 55.5631 59.2764 55.7071 59.6087 55.9952C59.9411 56.2832 60.1073 56.7037 60.1073 57.2567V57.4123C59.7749 57.2971 59.4311 57.2049 59.0758 57.1358C58.732 57.0666 58.3252 57.0321 57.8553 57.0321C57.3051 57.0321 56.8009 57.0954 56.3424 57.2222C55.8955 57.3374 55.5058 57.516 55.1735 57.7579C54.8526 57.9999 54.6004 58.3052 54.4171 58.6739C54.2337 59.0425 54.142 59.4803 54.142 59.9873V60.0218C54.142 60.4827 54.2222 60.8917 54.3827 61.2488C54.5546 61.5945 54.7838 61.8883 55.0703 62.1302C55.3568 62.3722 55.6892 62.5565 56.0674 62.6832C56.4571 62.7985 56.8696 62.8561 57.3051 62.8561C57.9469 62.8561 58.4913 62.7524 58.9383 62.545C59.3853 62.3261 59.7692 62.0381 60.0901 61.6809V62.6832H62.6172ZM60.1417 59.417C60.1417 59.9009 59.9526 60.2926 59.5744 60.5921C59.2076 60.8917 58.7148 61.0415 58.0959 61.0415C57.6719 61.0415 57.3281 60.9435 57.0645 60.7477C56.8009 60.5518 56.6691 60.2753 56.6691 59.9181V59.8836C56.6691 59.4688 56.8295 59.152 57.1504 58.9331C57.4713 58.7142 57.9126 58.6047 58.4741 58.6047C58.795 58.6047 59.093 58.6393 59.3681 58.7084C59.6546 58.766 59.9125 58.8467 60.1417 58.9504V59.417Z" fill="white" fill-opacity="0.86"/>
</svg>
