<svg width="24" height="24" viewBox="0 0 24 24" fill="none" xmlns="http://www.w3.org/2000/svg">
<path d="M14.05 22C15.9 22 17.95 21.625 19.775 20.9C20.45 20.625 20.75 20.375 20.75 19.8C20.75 19.325 20.25 18.75 19.275 19.15C17.675 19.825 15.75 20.125 14.05 20.125C7.825 20.125 3.875 17.225 3.875 13.3C3.875 10.175 6.6 7.95 10.225 7.95C13.225 7.95 15.325 9.2 15.325 10.75C15.325 12.1 13.95 12.75 12.025 12L12.45 10.725C9.45 9.5 6.975 10.9 6.975 13.25C6.975 15.875 9.875 17.625 13.875 17.625C18.575 17.625 22 14.725 22 10.7C22 5.675 17.25 2 9.95 2C8.1 2 6.05 2.325 4.225 3.1C3.575 3.375 3.25 3.7 3.25 4.175C3.25 4.75 3.825 5.225 4.725 4.85C6.325 4.175 8.25 3.875 9.95 3.875C16.175 3.875 20.125 6.775 20.125 10.7C20.125 13.825 17.4 16.05 13.775 16.05C10.775 16.05 8.675 14.8 8.675 13.25C8.675 11.9 10.05 11.25 11.975 12L11.55 13.275C14.55 14.5 17.025 13.1 17.025 10.75C17.025 8.125 14.125 6.375 10.125 6.375C5.425 6.375 2 9.275 2 13.3C2 18.325 6.75 22 14.05 22Z" fill="#A571E6"/>
</svg>
