<svg width="24" height="24" viewBox="0 0 24 24" fill="none" xmlns="http://www.w3.org/2000/svg">
<path fill-rule="evenodd" clip-rule="evenodd" d="M3 5.08887H3.02493C3.11791 4.50618 3.46142 4.01228 3.8954 3.62001C4.40565 3.15879 5.10193 2.77783 5.89854 2.47327C7.49688 1.8622 9.65428 1.5 12 1.5C14.3457 1.5 16.5031 1.8622 18.1015 2.47327C18.8981 2.77783 19.5943 3.15879 20.1046 3.62001C20.5386 4.01228 20.8821 4.50618 20.9751 5.08887H21V18.7778H20.996C20.9538 19.4427 20.5845 20.0007 20.1046 20.4345C19.5943 20.8957 18.8981 21.2767 18.1015 21.5812C16.5031 22.1923 14.3457 22.5 12 22.5C9.65428 22.5 7.49688 22.1923 5.89854 21.5812C5.10193 21.2767 4.40565 20.8957 3.8954 20.4345C3.41551 20.0007 3.04624 19.4427 3.00403 18.7778H3V5.08887ZM4.5 5.40412C4.5 5.2544 4.57652 5.0263 4.90125 4.73279C5.22594 4.43929 5.73785 4.1406 6.4342 3.87437C7.82177 3.34387 9.78937 3 12 3C14.2106 3 16.1782 3.34387 17.5658 3.87437C18.2621 4.1406 18.7741 4.43929 19.0988 4.73279C19.4235 5.0263 19.5 5.2544 19.5 5.40412C19.5 5.55385 19.4235 5.78194 19.0988 6.07546C18.7741 6.36895 18.2621 6.66765 17.5658 6.93388C16.1782 7.46437 14.2106 7.80824 12 7.80824C9.78937 7.80824 7.82177 7.46437 6.4342 6.93388C5.73785 6.66765 5.22594 6.36895 4.90125 6.07546C4.57652 5.78194 4.5 5.55385 4.5 5.40412ZM4.5 9.82031V7.64585C4.90854 7.90832 5.38249 8.13768 5.89854 8.33497C7.49688 8.94604 9.65428 9.30824 12 9.30824C14.3457 9.30824 16.5031 8.94604 18.1015 8.33497C18.6175 8.13768 19.0915 7.90832 19.5 7.64585V9.82031C19.5 9.97004 19.4235 10.1981 19.0988 10.4916C18.7741 10.7851 18.2622 11.0838 17.5658 11.3501C16.1782 11.8806 14.2106 12.2244 12 12.2244C9.78937 12.2244 7.82177 11.8806 6.4342 11.3501C5.73785 11.0838 5.22594 10.7851 4.90125 10.4916C4.57652 10.1981 4.5 9.97004 4.5 9.82031ZM4.5 12.062V14.2354C4.5 14.3851 4.57652 14.6132 4.90125 14.9067C5.22594 15.2002 5.73785 15.4989 6.4342 15.7651C7.82177 16.2956 9.78937 16.6395 12 16.6395C14.2106 16.6395 16.1782 16.2956 17.5658 15.7651C18.2622 15.4989 18.7741 15.2002 19.0988 14.9067C19.4235 14.6132 19.5 14.3851 19.5 14.2354V12.062C19.0915 12.3245 18.6175 12.5539 18.1015 12.7512C16.5031 13.3622 14.3457 13.7244 12 13.7244C9.65428 13.7244 7.49688 13.3622 5.89854 12.7512C5.38249 12.5539 4.90854 12.3245 4.5 12.062ZM4.5 16.4771V18.6504C4.5 18.8001 4.57652 19.0282 4.90125 19.3217C5.22594 19.6152 5.73785 19.9139 6.4342 20.1801C7.82177 20.7106 9.78937 21.0545 12 21.0545C14.2106 21.0545 16.1782 20.7106 17.5658 20.1801C18.2622 19.9139 18.7741 19.6152 19.0988 19.3217C19.4235 19.0282 19.5 18.8001 19.5 18.6504V16.4771C19.0915 16.7395 18.6175 16.9689 18.1015 17.1662C16.5031 17.7773 14.3457 18.1395 12 18.1395C9.65428 18.1395 7.49688 17.7773 5.89854 17.1662C5.38249 16.9689 4.90854 16.7395 4.5 16.4771Z" fill="#CED0D6"/>
</svg>
