<svg width="24" height="24" viewBox="0 0 24 24" fill="none" xmlns="http://www.w3.org/2000/svg">
<path fill-rule="evenodd" clip-rule="evenodd" d="M18.2735 15.0477C18.2735 15.0477 18.9998 15.2599 19.4217 15.4665C19.5681 15.5382 19.8214 15.6813 20.0042 15.8692C20.1832 16.0532 20.2704 16.2397 20.2704 16.2397L23.2044 20.9958L18.5781 20.9978L16.3431 16.9806C16.3431 16.9806 15.9001 16.2439 15.6275 16.0303C15.4001 15.8521 15.3031 15.7887 15.0783 15.7887C14.9218 15.7887 13.9791 15.7887 13.9791 15.7887L13.9798 20.9978L10 20.9995L10.0002 7.82959H18.107C18.107 7.82959 21.8514 7.89495 21.8514 11.343C21.8514 14.7911 18.2735 15.0477 18.2735 15.0477ZM16.4928 10.6673H14V12.9995H16.4928C16.4928 12.9995 17.6411 12.9995 17.6411 11.7578C17.6411 10.6673 16.4928 10.6673 16.4928 10.6673Z" fill="#CED0D6"/>
<path d="M22.9261 14C23.6158 13.0185 24 11.9278 24 10.7789C24 6.48272 18.6274 3 12 3C5.3726 3 0 6.48272 0 10.7789C0 14.4035 3.82433 17.4491 9 18.3127V15.8687C6.4268 14.9285 4.71577 13.2604 4.71577 11.3592C4.71577 8.42221 8.7994 6.04128 13.8368 6.04128C18.8742 6.04128 22.5917 7.67022 22.5917 11.3592C22.5917 12.4004 22.2958 13.2774 21.7577 14H22.9261Z" fill="#CED0D6"/>
</svg>
