<svg width="64" height="64" viewBox="0 0 64 64" fill="none" xmlns="http://www.w3.org/2000/svg">
<path d="M10.8 55.4001L3 9.1001L17.5 3.1001L26.7 8.6001L35.1 4.0001L52.8 10.8001L42.9 61.0001L10.8 55.4001Z" fill="url(#paint0_linear)"/>
<path d="M35.0999 4L26.7 8.6L29.2 27.5L34.2999 31.1L36 42L41.7999 42.6L37.4 22.3L35.0999 4Z" fill="url(#paint1_linear)"/>
<path d="M29.1 29.4001L26.7 8.6001L17.5 3.1001L21.3 25.6001L22.7 39.6001L30.7 39.3001L30 35.7001L29.1 29.4001Z" fill="url(#paint2_linear)"/>
<path d="M10.8 55.4001L3 9.1001L17.5 3.1001L21.5 26.4001L10.8 55.4001Z" fill="url(#paint3_linear)"/>
<path d="M21.5 26.2001L17.5 3.1001L3 9.1001L19.1 23.1001L21.5 26.2001Z" fill="url(#paint4_linear)"/>
<path d="M10.8 55.4001L3 9.1001L19.1 23.1001L35.2 44.4001L10.8 55.4001Z" fill="url(#paint5_linear)"/>
<path d="M10.8 55.4L24.5 45.5L42.9001 61L10.8 55.4Z" fill="url(#paint6_linear)"/>
<path d="M31.0001 43.1001L24.6001 49.1001L42.9001 61.0001L46.1001 44.9001L31.0001 43.1001Z" fill="url(#paint7_linear)"/>
<path d="M10.8 55.4001L24.6 49.1001L42.9001 61.0001L10.8 55.4001Z" fill="url(#paint8_linear)"/>
<path d="M61 22.6L53.5 4.2L39.9 3L19 23.1L24.3 49.1L35.6 56.2L61 41.2L54.7 29.3L61 22.6Z" fill="url(#paint9_linear)"/>
<path d="M41.5 21.7L39.9 3L19 23.1L34.5 28L41.5 21.7Z" fill="url(#paint10_linear)"/>
<path d="M37.8 5L19 23.1L34.5 28L42.9 37L40.2 5.9L37.8 5Z" fill="url(#paint11_linear)"/>
<path d="M34.5 28L37.9 24.7999L37.4 22.3L35.5 7.19995L27.5 14.9L29 26.2999L34.5 28Z" fill="url(#paint12_linear)"/>
<path d="M29.0001 26.3L27.4001 15L20.6001 21.5L21.0001 23.8L29.0001 26.3Z" fill="url(#paint13_linear)"/>
<path d="M37.8 5L19 23.1L40.2 5.9L37.8 5Z" fill="url(#paint14_linear)"/>
<path d="M35.8 9.29995L35.5 7.19995L27.5 14.9L27.7 16L35.8 9.29995Z" fill="url(#paint15_linear)"/>
<path d="M27.6001 16L27.4001 15L20.6001 21.5L20.7001 21.7L27.6001 16Z" fill="url(#paint16_linear)"/>
<path d="M47.4 16.2L34.5 28L35.6 56.2L61 41.2L54.7 29.3L47.4 16.2Z" fill="url(#paint17_linear)"/>
<path d="M41.6001 23.2001L42.7001 38.0001L61.0001 41.2001L54.7001 29.3001L50.9001 22.6001L41.6001 23.2001Z" fill="url(#paint18_linear)"/>
<path d="M41.6001 23.2001L42.7001 38.0001L45.6001 38.5001L54.7001 29.3001L50.9001 22.6001L41.6001 23.2001Z" fill="url(#paint19_linear)"/>
<path d="M34.5 28.0001L19 23.1001L24.3 49.1001L35.6 56.2001L34.5 28.0001Z" fill="url(#paint20_linear)"/>
<path d="M29.3 29.4L28.9 26.2001L21 23.8L21.3 25.6L23.9 45.7001L24.3 47.6L32.6 53.9001L29.3 29.4Z" fill="url(#paint21_linear)"/>
<path d="M24.3 49.0999L35.6 56.2L35 42.2L24.3 49.0999Z" fill="url(#paint22_linear)"/>
<path d="M47.4001 16.2L54.7001 29.2999L61.0001 22.6L53.5001 4.19995L44.1001 15.9L47.4001 16.2Z" fill="url(#paint23_linear)"/>
<path d="M51 22.6001L54.7 29.3001L61 22.6001H51Z" fill="url(#paint24_linear)"/>
<path d="M19 23.1001L20.2 29.2001L19 23.1001Z" fill="url(#paint25_linear)"/>
<path d="M50 14H14V50H50V14Z" fill="url(#paint26_linear)"/>
<g opacity="0.3">
<path opacity="0.3" d="M29 27.5L30.3 38.8L34.5 44.4L41.6 42.5L37.2 22.4L36.2 14H27.3L29 27.5Z" fill="url(#paint27_linear)"/>
<g opacity="0.3">
<path opacity="0.3" d="M49.9999 47.5V21.2L47.2999 16.3L34.3999 28L35.2999 50H45.7999L49.9999 47.5Z" fill="url(#paint28_linear)"/>
<path opacity="0.3" d="M50 14H45.6L44 16L47.3 16.3L50 21.2V14Z" fill="url(#paint29_linear)"/>
</g>
<path opacity="0.3" d="M21.3999 25.6L24.6999 49.3L30.6999 39.2L29.9999 35.7L29.1999 29.4L27.2999 14H19.3999L21.3999 25.6Z" fill="url(#paint30_linear)"/>
<path opacity="0.3" d="M47.3001 16.3L44.0001 16L45.6001 14H28.6001L19.1001 23.2L24.4001 49L26.0001 50H35.3001L34.4001 28L47.3001 16.3Z" fill="url(#paint31_linear)"/>
<path opacity="0.3" d="M14 18.6L19.2 23.2L21.5 26.3L19.4 14H14V18.6Z" fill="url(#paint32_linear)"/>
<g opacity="0.3">
<path opacity="0.3" d="M14 18.6001V50.0001H22.6L24.7 49.0001L19.2 23.2001L14 18.6001Z" fill="url(#paint33_linear)"/>
</g>
</g>
<path d="M31.9999 43.2H18.3999V45.4H31.9999V43.2Z" fill="white"/>
<path d="M31.3029 18.4023L29.2741 26.416L26.941 18.4023H24.6079L22.2748 26.416L20.246 18.4023H17L20.9561 32.0966H23.4921L25.7237 24.1844L27.9554 32.0966H30.5928L34.4475 18.4023H31.3029Z" fill="white"/>
<path d="M35.0562 30.1684L36.8821 28.0382C38.0993 29.0526 39.418 29.6612 40.9396 29.6612C42.1569 29.6612 42.9684 29.154 42.9684 28.3425C42.9684 27.531 42.4612 27.2267 40.2295 26.618C37.4907 25.908 35.6648 25.0965 35.6648 22.459C35.6648 19.9231 37.6936 18.3 40.4324 18.3C42.4612 18.3 44.1856 18.9087 45.5044 20.0245L43.9828 22.2562C42.7655 21.4447 41.5482 20.9375 40.4324 20.9375C39.3166 20.9375 38.708 21.4447 38.708 22.1547C38.708 23.0677 39.3166 23.372 41.6497 23.9806C44.3885 24.6907 46.0115 25.7051 46.0115 28.1396C46.0115 30.8785 43.8813 32.4 40.9396 32.4C38.8094 32.2986 36.6792 31.5885 35.0562 30.1684Z" fill="white"/>
<defs>
<linearGradient id="paint0_linear" x1="23.7703" y1="4.2097" x2="38.7801" y2="58.2451" gradientUnits="userSpaceOnUse">
<stop offset="0.2849" stop-color="#07C3F2"/>
<stop offset="0.9409" stop-color="#087CFA"/>
</linearGradient>
<linearGradient id="paint1_linear" x1="28.7574" y1="1.1353" x2="36.5757" y2="34.7956" gradientUnits="userSpaceOnUse">
<stop offset="0.0669317" stop-color="#42FFFA"/>
<stop offset="0.3409" stop-color="#07C3F2"/>
<stop offset="0.9409" stop-color="#087CFA"/>
</linearGradient>
<linearGradient id="paint2_linear" x1="15.6071" y1="1.216" x2="27.8737" y2="32.0061" gradientUnits="userSpaceOnUse">
<stop offset="0.2849" stop-color="#07C3F2"/>
<stop offset="0.9409" stop-color="#087CFA"/>
</linearGradient>
<linearGradient id="paint3_linear" x1="6.3362" y1="-2.4447" x2="19.5863" y2="51.3787" gradientUnits="userSpaceOnUse">
<stop offset="0.0669317" stop-color="#42FFFA"/>
<stop offset="0.3409" stop-color="#07C3F2"/>
<stop offset="0.9409" stop-color="#087CFA"/>
</linearGradient>
<linearGradient id="paint4_linear" x1="11.2066" y1="18.7233" x2="15.1899" y2="14.6028" gradientUnits="userSpaceOnUse">
<stop offset="0.00971316" stop-color="#42FFFA"/>
<stop offset="0.9216" stop-color="#07C3F2" stop-opacity="0"/>
</linearGradient>
<linearGradient id="paint5_linear" x1="-11.4893" y1="20.4217" x2="27.685" y2="45.6052" gradientUnits="userSpaceOnUse">
<stop offset="0.1985" stop-color="#07C3F2"/>
<stop offset="0.9403" stop-color="#087CFA"/>
</linearGradient>
<linearGradient id="paint6_linear" x1="3.19095" y1="52.3548" x2="25.7409" y2="53.0132" gradientUnits="userSpaceOnUse">
<stop offset="0.1291" stop-color="#1D53B8"/>
<stop offset="0.8696" stop-color="#087CFA"/>
</linearGradient>
<linearGradient id="paint7_linear" x1="34.2793" y1="43.1709" x2="39.1664" y2="60.7646" gradientUnits="userSpaceOnUse">
<stop offset="0.2771" stop-color="#087BFA"/>
<stop offset="0.6826" stop-color="#085DFA"/>
</linearGradient>
<linearGradient id="paint8_linear" x1="23.647" y1="32.2778" x2="27.1035" y2="60.2595" gradientUnits="userSpaceOnUse">
<stop offset="0.5232" stop-color="#087BFA"/>
<stop offset="0.9771" stop-color="#086DFA"/>
</linearGradient>
<linearGradient id="paint9_linear" x1="28.3589" y1="11.1302" x2="53.7505" y2="48.3636" gradientUnits="userSpaceOnUse">
<stop offset="0.1286" stop-color="#FCF84A"/>
<stop offset="0.4986" stop-color="#07C3F2"/>
</linearGradient>
<linearGradient id="paint10_linear" x1="39.5191" y1="2.7587" x2="37.0398" y2="8.009" gradientUnits="userSpaceOnUse">
<stop  offset="0" stop-color="#73A4AA"/>
<stop offset="0.6751" stop-color="#FCF84A"/>
</linearGradient>
<linearGradient id="paint11_linear" x1="26.6195" y1="-5.5554" x2="35.4906" y2="54.744" gradientUnits="userSpaceOnUse">
<stop offset="0.1786" stop-color="#FCF84A"/>
<stop offset="0.8591" stop-color="#07C3F2"/>
</linearGradient>
<linearGradient id="paint12_linear" x1="29.8472" y1="6.32515" x2="36.6172" y2="35.4716" gradientUnits="userSpaceOnUse">
<stop offset="0.1787" stop-color="#FCF84A"/>
<stop offset="0.9725" stop-color="#12C6EC"/>
</linearGradient>
<linearGradient id="paint13_linear" x1="22.6502" y1="16.1033" x2="28.1752" y2="27.6032" gradientUnits="userSpaceOnUse">
<stop offset="0.1286" stop-color="#FCF84A"/>
<stop offset="0.9414" stop-color="#07C3F2"/>
</linearGradient>
<linearGradient id="paint14_linear" x1="27.5616" y1="0.7966" x2="31.7251" y2="29.0974" gradientUnits="userSpaceOnUse">
<stop offset="0.1786" stop-color="#FCF84A"/>
<stop offset="0.8591" stop-color="#07C3F2"/>
</linearGradient>
<linearGradient id="paint15_linear" x1="30.6693" y1="7.60315" x2="32.9561" y2="17.4483" gradientUnits="userSpaceOnUse">
<stop offset="0.1787" stop-color="#D3FF8C"/>
<stop offset="0.8762" stop-color="#12C6EC"/>
</linearGradient>
<linearGradient id="paint16_linear" x1="23.2372" y1="16.6723" x2="24.8424" y2="20.0133" gradientUnits="userSpaceOnUse">
<stop offset="0.1286" stop-color="#FCF84A"/>
<stop offset="0.9414" stop-color="#07C3F2"/>
</linearGradient>
<linearGradient id="paint17_linear" x1="34.139" y1="25.4465" x2="50.663" y2="49.6768" gradientUnits="userSpaceOnUse">
<stop  offset="0" stop-color="#07C3F2"/>
<stop offset="0.906" stop-color="#00A0FF"/>
</linearGradient>
<linearGradient id="paint18_linear" x1="58.1026" y1="31.3047" x2="37.3632" y2="33.9383" gradientUnits="userSpaceOnUse">
<stop  offset="0" stop-color="#07C3F2"/>
<stop offset="1" stop-color="#0895F7"/>
</linearGradient>
<linearGradient id="paint19_linear" x1="53.4987" y1="29.5883" x2="38.3661" y2="31.5099" gradientUnits="userSpaceOnUse">
<stop  offset="0" stop-color="#07C3F2"/>
<stop offset="1" stop-color="#0895F7"/>
</linearGradient>
<linearGradient id="paint20_linear" x1="16.6112" y1="19.7833" x2="38.0902" y2="51.2795" gradientUnits="userSpaceOnUse">
<stop offset="0.080633" stop-color="#FCF84A"/>
<stop offset="0.5708" stop-color="#07C3F2"/>
</linearGradient>
<linearGradient id="paint21_linear" x1="19.0548" y1="21.1496" x2="35.4841" y2="55.3456" gradientUnits="userSpaceOnUse">
<stop offset="0.1286" stop-color="#FCF84A"/>
<stop offset="0.4216" stop-color="#07C3F2"/>
</linearGradient>
<linearGradient id="paint22_linear" x1="23.7991" y1="41.6716" x2="37.7687" y2="51.1292" gradientUnits="userSpaceOnUse">
<stop offset="0.09347" stop-color="#087CFA"/>
<stop offset="0.6584" stop-color="#07C3F2"/>
</linearGradient>
<linearGradient id="paint23_linear" x1="48.314" y1="4.19875" x2="55.4813" y2="29.5832" gradientUnits="userSpaceOnUse">
<stop  offset="0" stop-color="#FCF84A"/>
<stop offset="0.4651" stop-color="#07C3F2"/>
<stop offset="0.9409" stop-color="#087CFA"/>
</linearGradient>
<linearGradient id="paint24_linear" x1="63.8019" y1="24.3142" x2="42.5687" y2="27.4416" gradientUnits="userSpaceOnUse">
<stop  offset="0" stop-color="#0863FA"/>
<stop offset="0.9409" stop-color="#1AC8FB"/>
</linearGradient>
<linearGradient id="paint25_linear" x1="18.0027" y1="23.8336" x2="21.3449" y2="28.7346" gradientUnits="userSpaceOnUse">
<stop offset="0.1286" stop-color="#FCF84A"/>
<stop offset="0.4216" stop-color="#07C3F2"/>
</linearGradient>
<linearGradient id="paint26_linear" x1="13.0959" y1="12.3652" x2="44.6043" y2="45.0914" gradientUnits="userSpaceOnUse">
<stop  offset="0" stop-color="#006396"/>
<stop offset="0.0470796" stop-color="#005682"/>
<stop offset="0.1677" stop-color="#003754"/>
<stop offset="0.2832" stop-color="#001F2F"/>
<stop offset="0.3905" stop-color="#000E15"/>
<stop offset="0.4867" stop-color="#000406"/>
<stop offset="0.5623"/>
<stop offset="0.9138"/>
</linearGradient>
<linearGradient id="paint27_linear" x1="29.4528" y1="10.0224" x2="35.6944" y2="36.8939" gradientUnits="userSpaceOnUse">
<stop offset="0.0669317" stop-color="#42FFFA"/>
<stop offset="0.3409" stop-color="#07C3F2"/>
<stop offset="0.9409" stop-color="#0838AF"/>
</linearGradient>
<linearGradient id="paint28_linear" x1="35.4543" y1="24.5802" x2="51.4033" y2="47.9672" gradientUnits="userSpaceOnUse">
<stop offset="0.1825" stop-color="#07C3F2"/>
<stop offset="0.906" stop-color="#00171C"/>
</linearGradient>
<linearGradient id="paint29_linear" x1="46.5385" y1="13.2731" x2="48.9087" y2="21.6673" gradientUnits="userSpaceOnUse">
<stop  offset="0" stop-color="#FCF84A"/>
<stop offset="0.4651" stop-color="#07C3F2"/>
<stop offset="0.9409" stop-color="#087CFA"/>
</linearGradient>
<linearGradient id="paint30_linear" x1="18.2171" y1="12.1253" x2="29.2925" y2="39.9254" gradientUnits="userSpaceOnUse">
<stop offset="0.0167591" stop-color="#086DFA"/>
<stop offset="1" stop-color="#08328E"/>
</linearGradient>
<linearGradient id="paint31_linear" x1="33.7224" y1="12.3125" x2="30.9001" y2="51.7026" gradientUnits="userSpaceOnUse">
<stop offset="0.0186027" stop-color="#00FE80"/>
<stop offset="0.3413" stop-color="#21DE9B"/>
<stop offset="0.9563" stop-color="#0770B1"/>
</linearGradient>
<linearGradient id="paint32_linear" x1="13.3467" y1="5.6665" x2="22.4496" y2="34.5181" gradientUnits="userSpaceOnUse">
<stop offset="0.1985" stop-color="#07C3F2"/>
<stop offset="0.9403" stop-color="#0845D7"/>
</linearGradient>
<linearGradient id="paint33_linear" x1="8.6388" y1="21.6391" x2="24.5741" y2="51.5554" gradientUnits="userSpaceOnUse">
<stop  offset="0" stop-color="#07C3F2"/>
<stop offset="0.9409" stop-color="#0838AF"/>
</linearGradient>
</defs>
</svg>
