<svg width="256" height="256" viewBox="0 0 256 256" fill="none" xmlns="http://www.w3.org/2000/svg">
<path d="M43.3 221.7L12 36.3L69.8 12.3L106.8 34.3L140.6 16L211.1 43.1L171.5 244L43.3 221.7Z" fill="url(#paint0_linear)"/>
<path d="M140.6 16L106.8 34.3L116.6 109.9L137.3 124.4L143.9 168.1L167.3 170.4L149.5 89.1L140.6 16Z" fill="url(#paint1_linear)"/>
<path d="M116.5 117.5L106.8 34.3L69.8 12.3L85.3001 102.2L90.9001 158.3L122.6 157L120.1 142.9L116.5 117.5Z" fill="url(#paint2_linear)"/>
<path d="M43.3 221.7L12 36.3L69.8 12.3L86 105.6L43.3 221.7Z" fill="url(#paint3_linear)"/>
<path d="M85.9 105L69.8 12.3L12 36.3L76.4 92.4L85.9 105Z" fill="url(#paint4_linear)"/>
<path d="M43.3 221.7L12 36.3L76.4 92.4001L140.6 177.7L43.3 221.7Z" fill="url(#paint5_linear)"/>
<path d="M43.3 221.7L98.2 182L171.5 244L43.3 221.7Z" fill="url(#paint6_linear)"/>
<path d="M123.9 172.6L98.5 196.4L171.5 244L184.2 179.4L123.9 172.6Z" fill="url(#paint7_linear)"/>
<path d="M43.3 221.7L98.5 196.4L171.5 244L43.3 221.7Z" fill="url(#paint8_linear)"/>
<path d="M244 90.6L214.1 16.6L159.7 12L75.8999 92.6L97.2999 196.4L142.3 225L244 164.6L218.6 117L244 90.6Z" fill="url(#paint9_linear)"/>
<path d="M166 86.9L159.7 12L75.8999 92.6L137.8 111.8L166 86.9Z" fill="url(#paint10_linear)"/>
<path d="M151.3 20.1001L75.8999 92.6001L137.8 111.8L171.4 147.9L160.7 23.6001L151.3 20.1001Z" fill="url(#paint11_linear)"/>
<path d="M137.8 111.8L151.7 99.2999L149.5 89.0999L142.2 28.8999L110.1 59.6999L116 105L137.8 111.8Z" fill="url(#paint12_linear)"/>
<path d="M116 105L109.8 60L82.5 86.2L84 95.1L116 105Z" fill="url(#paint13_linear)"/>
<path d="M151.3 20.1001L75.8999 92.6001L160.8 23.7001L151.3 20.1001Z" fill="url(#paint14_linear)"/>
<path d="M143.2 37.0001L142.2 28.9001L110.1 59.7001L110.6 63.9001L143.2 37.0001Z" fill="url(#paint15_linear)"/>
<path d="M110.3 64.1L109.8 60L82.5 86.2L82.6 87L110.3 64.1Z" fill="url(#paint16_linear)"/>
<path d="M189.7 64.8999L137.8 111.8L142.3 225L244 164.6L218.6 117L189.7 64.8999Z" fill="url(#paint17_linear)"/>
<path d="M166.3 92.8L170.9 152L244 164.6L218.6 117L203.8 90.3L166.3 92.8Z" fill="url(#paint18_linear)"/>
<path d="M166.3 92.8L170.9 152L182.5 154L218.6 117L203.8 90.3L166.3 92.8Z" fill="url(#paint19_linear)"/>
<path d="M137.8 111.8L75.8999 92.6001L97.2999 196.4L142.3 225L137.8 111.8Z" fill="url(#paint20_linear)"/>
<path d="M117.3 117.5L115.7 105L84 95.1001L85.3 102.2L95.7 182.7L97.3 190.4L130.3 215.7L117.3 117.5Z" fill="url(#paint21_linear)"/>
<path d="M97.3 196.4L142.3 225L140.1 168.8L97.3 196.4Z" fill="url(#paint22_linear)"/>
<path d="M189.7 64.9001L218.6 117L244 90.6001L214.1 16.6001L176.5 63.5001L189.7 64.9001Z" fill="url(#paint23_linear)"/>
<path d="M203.8 90.3999L218.6 117L244 90.5999L203.8 90.3999Z" fill="url(#paint24_linear)"/>
<path d="M75.8999 92.6001L80.8999 116.8L75.8999 92.6001Z" fill="url(#paint25_linear)"/>
<path d="M200 56H56V200H200V56Z" fill="url(#paint26_linear)"/>
<g opacity="0.3">
<path opacity="0.3" d="M116.1 110L121.4 155.3L138 177.5L166.5 170.2L148.8 89.4L144.7 56H109.1L116.1 110Z" fill="url(#paint27_linear)"/>
<g opacity="0.3">
<path opacity="0.3" d="M200 190V84.6999L189.3 65.3999L137.8 112L141.2 200H183.1L200 190Z" fill="url(#paint28_linear)"/>
<path opacity="0.3" d="M200 56H182.5L176.2 63.9L189.3 65.4L200 84.7V56Z" fill="url(#paint29_linear)"/>
</g>
<path opacity="0.3" d="M85.6001 102.4L98.6001 197.3L122.7 156.8L120.2 142.8L116.6 117.6L109.4 56H77.6001L85.6001 102.4Z" fill="url(#paint30_linear)"/>
<path opacity="0.3" d="M189.3 65.4L176.2 63.9L182.5 56H114.6L76.2 92.8L97.5999 195.9L104 200H141.2L137.8 112L189.3 65.4Z" fill="url(#paint31_linear)"/>
<path opacity="0.3" d="M56 74.6L76.8 92.7L86.2 105.1L77.7 56H56V74.6Z" fill="url(#paint32_linear)"/>
<g opacity="0.3">
<path opacity="0.3" d="M56 74.6001V200H90.4L98.6 195.9L76.8 92.7001L56 74.6001Z" fill="url(#paint33_linear)"/>
</g>
</g>
<path d="M127.9 172.9H73.8V181.9H127.9V172.9Z" fill="white"/>
<path d="M125.1 73.8L117 105.3L107.8 73.8H98.6999L89.4999 105.3L81.4999 73.8H68.8999L84.2999 127.9H94.3999L103.3 96.6L112 127.9H122.3L137.7 73.8H125.1Z" fill="white"/>
<path d="M139.9 120.2L146.9 111.8C151.8 115.8 156.9 118.4 163.1 118.4C168 118.4 170.9 116.5 170.9 113.3V113.1C170.9 110.1 169 108.5 160 106.2C149.1 103.4 142 100.4 142 89.6001V89.4001C142 79.6001 149.9 73.1001 161 73.1001C168.9 73.1001 175.6 75.6001 181.1 80.0001L174.9 89.0001C170.1 85.7001 165.4 83.7001 160.8 83.7001C156.2 83.7001 153.8 85.8001 153.8 88.4001V88.6001C153.8 92.2001 156.1 93.3001 165.5 95.7001C176.5 98.6001 182.7 102.5 182.7 112V112.2C182.7 123 174.5 129 162.8 129C154.7 128.8 146.4 126 139.9 120.2Z" fill="white"/>
<defs>
<linearGradient id="paint0_linear" x1="95.0811" y1="16.8385" x2="155.12" y2="232.98" gradientUnits="userSpaceOnUse">
<stop offset="0.2849" stop-color="#07C3F2"/>
<stop offset="0.9409" stop-color="#087CFA"/>
</linearGradient>
<linearGradient id="paint1_linear" x1="115.03" y1="4.5412" x2="146.303" y2="139.182" gradientUnits="userSpaceOnUse">
<stop offset="0.0669317" stop-color="#42FFFA"/>
<stop offset="0.3409" stop-color="#07C3F2"/>
<stop offset="0.9409" stop-color="#087CFA"/>
</linearGradient>
<linearGradient id="paint2_linear" x1="62.4284" y1="4.86365" x2="111.495" y2="128.024" gradientUnits="userSpaceOnUse">
<stop offset="0.2849" stop-color="#07C3F2"/>
<stop offset="0.9409" stop-color="#087CFA"/>
</linearGradient>
<linearGradient id="paint3_linear" x1="25.3447" y1="-9.77935" x2="78.3452" y2="205.515" gradientUnits="userSpaceOnUse">
<stop offset="0.0669317" stop-color="#42FFFA"/>
<stop offset="0.3409" stop-color="#07C3F2"/>
<stop offset="0.9409" stop-color="#087CFA"/>
</linearGradient>
<linearGradient id="paint4_linear" x1="44.8266" y1="74.893" x2="60.7594" y2="58.4107" gradientUnits="userSpaceOnUse">
<stop offset="0.00971316" stop-color="#42FFFA"/>
<stop offset="0.9216" stop-color="#07C3F2" stop-opacity="0"/>
</linearGradient>
<linearGradient id="paint5_linear" x1="-45.9573" y1="81.6865" x2="110.74" y2="182.42" gradientUnits="userSpaceOnUse">
<stop offset="0.1985" stop-color="#07C3F2"/>
<stop offset="0.9403" stop-color="#087CFA"/>
</linearGradient>
<linearGradient id="paint6_linear" x1="12.7637" y1="209.419" x2="102.963" y2="212.053" gradientUnits="userSpaceOnUse">
<stop offset="0.1291" stop-color="#1D53B8"/>
<stop offset="0.8696" stop-color="#087CFA"/>
</linearGradient>
<linearGradient id="paint7_linear" x1="137.117" y1="172.683" x2="156.665" y2="243.058" gradientUnits="userSpaceOnUse">
<stop offset="0.2771" stop-color="#087BFA"/>
<stop offset="0.6826" stop-color="#085DFA"/>
</linearGradient>
<linearGradient id="paint8_linear" x1="94.5876" y1="129.111" x2="108.414" y2="241.037" gradientUnits="userSpaceOnUse">
<stop offset="0.5232" stop-color="#087BFA"/>
<stop offset="0.9771" stop-color="#086DFA"/>
</linearGradient>
<linearGradient id="paint9_linear" x1="113.435" y1="44.5208" x2="215.002" y2="193.455" gradientUnits="userSpaceOnUse">
<stop offset="0.1286" stop-color="#FCF84A"/>
<stop offset="0.4986" stop-color="#07C3F2"/>
</linearGradient>
<linearGradient id="paint10_linear" x1="158.076" y1="11.0347" x2="148.159" y2="32.036" gradientUnits="userSpaceOnUse">
<stop stop-color="#73A4AA"/>
<stop offset="0.6751" stop-color="#FCF84A"/>
</linearGradient>
<linearGradient id="paint11_linear" x1="106.478" y1="-22.2213" x2="141.962" y2="218.976" gradientUnits="userSpaceOnUse">
<stop offset="0.1786" stop-color="#FCF84A"/>
<stop offset="0.8591" stop-color="#07C3F2"/>
</linearGradient>
<linearGradient id="paint12_linear" x1="119.389" y1="25.3006" x2="146.469" y2="141.887" gradientUnits="userSpaceOnUse">
<stop offset="0.1787" stop-color="#FCF84A"/>
<stop offset="0.9725" stop-color="#12C6EC"/>
</linearGradient>
<linearGradient id="paint13_linear" x1="90.6003" y1="64.4133" x2="112.701" y2="110.413" gradientUnits="userSpaceOnUse">
<stop offset="0.1286" stop-color="#FCF84A"/>
<stop offset="0.9414" stop-color="#07C3F2"/>
</linearGradient>
<linearGradient id="paint14_linear" x1="110.246" y1="3.1866" x2="126.9" y2="116.39" gradientUnits="userSpaceOnUse">
<stop offset="0.1786" stop-color="#FCF84A"/>
<stop offset="0.8591" stop-color="#07C3F2"/>
</linearGradient>
<linearGradient id="paint15_linear" x1="122.677" y1="30.413" x2="131.824" y2="69.7933" gradientUnits="userSpaceOnUse">
<stop offset="0.1787" stop-color="#D3FF8C"/>
<stop offset="0.8762" stop-color="#12C6EC"/>
</linearGradient>
<linearGradient id="paint16_linear" x1="92.9484" y1="66.6891" x2="99.3692" y2="80.0534" gradientUnits="userSpaceOnUse">
<stop offset="0.1286" stop-color="#FCF84A"/>
<stop offset="0.9414" stop-color="#07C3F2"/>
</linearGradient>
<linearGradient id="paint17_linear" x1="136.556" y1="101.786" x2="202.652" y2="198.707" gradientUnits="userSpaceOnUse">
<stop stop-color="#07C3F2"/>
<stop offset="0.906" stop-color="#00A0FF"/>
</linearGradient>
<linearGradient id="paint18_linear" x1="232.41" y1="125.219" x2="149.453" y2="135.753" gradientUnits="userSpaceOnUse">
<stop stop-color="#07C3F2"/>
<stop offset="1" stop-color="#0895F7"/>
</linearGradient>
<linearGradient id="paint19_linear" x1="213.994" y1="118.353" x2="153.464" y2="126.039" gradientUnits="userSpaceOnUse">
<stop stop-color="#07C3F2"/>
<stop offset="1" stop-color="#0895F7"/>
</linearGradient>
<linearGradient id="paint20_linear" x1="66.4446" y1="79.1331" x2="152.361" y2="205.118" gradientUnits="userSpaceOnUse">
<stop offset="0.080633" stop-color="#FCF84A"/>
<stop offset="0.5708" stop-color="#07C3F2"/>
</linearGradient>
<linearGradient id="paint21_linear" x1="76.2191" y1="84.5984" x2="141.936" y2="221.382" gradientUnits="userSpaceOnUse">
<stop offset="0.1286" stop-color="#FCF84A"/>
<stop offset="0.4216" stop-color="#07C3F2"/>
</linearGradient>
<linearGradient id="paint22_linear" x1="95.1966" y1="166.686" x2="151.075" y2="204.517" gradientUnits="userSpaceOnUse">
<stop offset="0.09347" stop-color="#087CFA"/>
<stop offset="0.6584" stop-color="#07C3F2"/>
</linearGradient>
<linearGradient id="paint23_linear" x1="193.256" y1="16.7953" x2="221.925" y2="118.333" gradientUnits="userSpaceOnUse">
<stop stop-color="#FCF84A"/>
<stop offset="0.4651" stop-color="#07C3F2"/>
<stop offset="0.9409" stop-color="#087CFA"/>
</linearGradient>
<linearGradient id="paint24_linear" x1="255.208" y1="97.2564" x2="170.275" y2="109.766" gradientUnits="userSpaceOnUse">
<stop stop-color="#0863FA"/>
<stop offset="0.9409" stop-color="#1AC8FB"/>
</linearGradient>
<linearGradient id="paint25_linear" x1="72.0107" y1="95.3342" x2="85.3796" y2="114.938" gradientUnits="userSpaceOnUse">
<stop offset="0.1286" stop-color="#FCF84A"/>
<stop offset="0.4216" stop-color="#07C3F2"/>
</linearGradient>
<linearGradient id="paint26_linear" x1="52.3834" y1="49.461" x2="178.417" y2="180.366" gradientUnits="userSpaceOnUse">
<stop stop-color="#006396"/>
<stop offset="0.0470796" stop-color="#005682"/>
<stop offset="0.1677" stop-color="#003754"/>
<stop offset="0.2832" stop-color="#001F2F"/>
<stop offset="0.3905" stop-color="#000E15"/>
<stop offset="0.4867" stop-color="#000406"/>
<stop offset="0.5623"/>
<stop offset="0.9138"/>
</linearGradient>
<linearGradient id="paint27_linear" x1="117.811" y1="40.0896" x2="142.778" y2="147.576" gradientUnits="userSpaceOnUse">
<stop offset="0.0669317" stop-color="#42FFFA"/>
<stop offset="0.3409" stop-color="#07C3F2"/>
<stop offset="0.9409" stop-color="#0838AF"/>
</linearGradient>
<linearGradient id="paint28_linear" x1="141.818" y1="98.3205" x2="205.614" y2="191.869" gradientUnits="userSpaceOnUse">
<stop offset="0.1825" stop-color="#07C3F2"/>
<stop offset="0.906" stop-color="#00171C"/>
</linearGradient>
<linearGradient id="paint29_linear" x1="186.154" y1="53.0923" x2="195.635" y2="86.6692" gradientUnits="userSpaceOnUse">
<stop stop-color="#FCF84A"/>
<stop offset="0.4651" stop-color="#07C3F2"/>
<stop offset="0.9409" stop-color="#087CFA"/>
</linearGradient>
<linearGradient id="paint30_linear" x1="72.8688" y1="48.5012" x2="117.17" y2="159.702" gradientUnits="userSpaceOnUse">
<stop offset="0.0167591" stop-color="#086DFA"/>
<stop offset="1" stop-color="#08328E"/>
</linearGradient>
<linearGradient id="paint31_linear" x1="134.889" y1="49.2498" x2="123.6" y2="206.811" gradientUnits="userSpaceOnUse">
<stop offset="0.0186027" stop-color="#00FE80"/>
<stop offset="0.3413" stop-color="#21DE9B"/>
<stop offset="0.9563" stop-color="#0770B1"/>
</linearGradient>
<linearGradient id="paint32_linear" x1="53.3869" y1="22.666" x2="89.7985" y2="138.072" gradientUnits="userSpaceOnUse">
<stop offset="0.1985" stop-color="#07C3F2"/>
<stop offset="0.9403" stop-color="#0845D7"/>
</linearGradient>
<linearGradient id="paint33_linear" x1="34.5553" y1="86.5563" x2="98.2965" y2="206.221" gradientUnits="userSpaceOnUse">
<stop stop-color="#07C3F2"/>
<stop offset="0.9409" stop-color="#0838AF"/>
</linearGradient>
</defs>
</svg>
