<svg width="16" height="16" viewBox="0 0 16 16" fill="none" xmlns="http://www.w3.org/2000/svg">
  <path
    d="M12.023 8H14.9664C15.1669 5.60322 14.4258 2.93766 13.771 1C12.896 2.82 10.741 4.218 8.88101 4.66C8.11677 4.84229 7.39094 4.87923 6.68079 4.91536C5.77037 4.96168 4.88574 5.00669 3.97901 5.355C0.298007 6.77 0.354007 11.157 2.38201 12.143L2.50301 12.207C2.50301 12.207 2.69153 12.1694 3 12.1035V8H11.4739C12.1739 7.20689 12.734 6.31853 13.054 5.382C12.8967 6.28296 12.5293 7.17245 12.023 8Z"
    fill="#62B543" fill-opacity="0.6"/>
  <path fill-rule="evenodd" clip-rule="evenodd"
        d="M16 9H4V16H16V9ZM5 10.443L6.1 10H7V15H6V11L5.157 11.225L5 10.443ZM8 15V14.134L9.654 12.778C10.272 12.267 10.514 11.997 10.514 11.585C10.514 11.166 10.236 10.939 9.846 10.939C9.463 10.939 9.2 11.152 8.831 11.606L8.064 10.989C8.554 10.321 9.03 9.959 9.917 9.959C10.947 9.959 11.628 10.563 11.628 11.493C11.628 12.338 11.202 12.749 10.322 13.431L9.612 14H11.678V15H8ZM11.77 14.197C12.193 14.697 12.806 15.05 13.695 15.05C14.795 15.05 15.471 14.366 15.471 13.421C15.471 12.505 14.816 12.152 14.146 12.039L15.394 10.848V10H11.998V10.993H13.998L12.82 12.145L12.99 12.836H13.441C14.047 12.836 14.407 13.062 14.407 13.477C14.407 13.844 14.118 14.077 13.709 14.077C13.208 14.077 12.856 13.865 12.517 13.485L11.77 14.197Z"
        fill="#F68E1E"/>
</svg>
