<svg width="16" height="16" viewBox="0 0 16 16" fill="none" xmlns="http://www.w3.org/2000/svg">
  <g clip-path="url(#clip0)">
    <path
      d="M2.82843 1.17157L1.41421 2.58579L2.82843 4L1.41421 5.41421L2.82843 6.82843L4.24264 5.41421L5.65685 6.82843L7.07107 5.41421L5.65685 4L7.07107 2.58579L5.65685 1.17157L4.24264 2.58579L2.82843 1.17157Z"
      fill="#FF5A6B"/>
    <path
      d="M1.71173 7.12594C0.487635 8.98064 0.927925 11.436 2.38201 12.143L2.50301 12.207C2.50301 12.207 5.48301 11.613 7.13301 11.006C9.54001 10.118 12.184 7.928 13.054 5.382C12.592 8.028 10.318 10.575 8.03501 11.745C7.26103 12.1425 6.59667 12.3438 5.70109 12.6152C5.18846 12.7705 4.60007 12.9488 3.87201 13.2C3.62701 13.285 3.43401 13.367 3.43401 13.367C3.94301 13.283 4.44701 13.255 4.44701 13.255C5.06762 13.2267 5.76386 13.2487 6.49485 13.2717C9.11955 13.3546 12.1921 13.4516 13.819 11.285C15.934 8.468 14.755 3.912 13.771 1C12.896 2.82 10.741 4.218 8.88101 4.66C8.54692 4.73969 8.22018 4.7916 7.89888 4.82781L8.48528 5.41421L5.65685 8.24264L4.24264 6.82843L2.82843 8.24264L1.71173 7.12594Z"
      fill="#62B543" fill-opacity="0.6"/>
  </g>
  <defs>
    <clipPath id="clip0">
      <rect width="16" height="16" fill="white"/>
    </clipPath>
  </defs>
</svg>
