<svg width="16" height="16" viewBox="0 0 16 16" fill="none" xmlns="http://www.w3.org/2000/svg">
  <path fill-rule="evenodd" clip-rule="evenodd"
        d="M4.55591 13.5655C4.10225 13.8412 3.56967 14 3 14C1.34315 14 0 12.6569 0 11C0 9.34315 1.34315 8 3 8C4.65685 8 6 9.34315 6 11C6 11.7263 5.7419 12.3923 5.3124 12.9114L6.8737 14.6678L6.1263 15.3322L4.55591 13.5655ZM5 11C5 12.1046 4.10457 13 3 13C1.89543 13 1 12.1046 1 11C1 9.89543 1.89543 9 3 9C4.10457 9 5 9.89543 5 11Z"
        fill="#F68E1E"/>
  <path
    d="M6.98397 13.2867C9.49217 13.358 12.2922 13.3183 13.819 11.285C15.934 8.468 14.755 3.912 13.771 1C12.896 2.82 10.741 4.218 8.88101 4.66C8.11677 4.8423 7.39094 4.87923 6.68079 4.91536C5.77038 4.96168 4.88574 5.00669 3.97901 5.355C2.88504 5.77553 2.12114 6.45855 1.64098 7.23679C2.06525 7.08354 2.52287 7 3 7C5.20914 7 7 8.79086 7 11C7 11.018 6.99988 11.036 6.99964 11.054C7.04497 11.038 7.08945 11.022 7.13301 11.006C9.54001 10.118 12.184 7.928 13.054 5.382C12.592 8.028 10.318 10.575 8.03501 11.745C7.60707 11.9648 7.21263 12.1246 6.7941 12.2694C6.731 12.458 6.65424 12.6404 6.56503 12.8154L6.98397 13.2867Z"
    fill="#62B543" fill-opacity="0.6"/>
</svg>
