<svg width="16" height="16" viewBox="0 0 16 16" fill="none" xmlns="http://www.w3.org/2000/svg">
  <path fill-rule="evenodd" clip-rule="evenodd"
        d="M4.55591 13.5655C4.10225 13.8412 3.56967 14 3 14C1.34315 14 0 12.6569 0 11C0 9.34315 1.34315 8 3 8C4.65685 8 6 9.34315 6 11C6 11.7263 5.7419 12.3923 5.3124 12.9114L6.8737 14.6678L6.1263 15.3322L4.55591 13.5655ZM5 11C5 12.1046 4.10457 13 3 13C1.89543 13 1 12.1046 1 11C1 9.89543 1.89543 9 3 9C4.10457 9 5 9.89543 5 11Z"
        fill="#F68E1E"/>
  <path
    d="M12.7709 0C12.8839 0.334186 12.9993 0.690024 13.1121 1.0624L12.8697 1.56671C12.1586 3.04573 10.2997 4.29501 8.64891 4.68729C7.98002 4.84684 7.35013 4.87934 6.6339 4.91629C6.53321 4.92149 6.43081 4.92677 6.32635 4.93251C5.50789 4.97745 4.5834 5.05156 3.62013 5.42159C2.34598 5.91138 1.43084 6.71063 0.83948 7.63309C0.528092 7.83332 0.246288 8.07557 0.0020771 8.35182C0.0503577 6.82922 0.943115 5.13758 2.97893 4.355C3.88566 4.00669 4.7703 3.96168 5.68072 3.91536C6.39086 3.87923 7.11669 3.84229 7.88093 3.66C9.74093 3.218 11.8959 1.82 12.7709 0Z"
    fill="#62B543" fill-opacity="0.6"/>
  <path
    d="M7.88847 14.3042C10.1401 14.3203 12.4738 14.0765 13.819 12.285C15.934 9.468 14.755 4.912 13.771 2C12.896 3.82 10.741 5.218 8.88101 5.66C8.11677 5.84229 7.39094 5.87923 6.68079 5.91536C5.77037 5.96168 4.88574 6.00669 3.97901 6.355C3.52276 6.53039 3.12392 6.75143 2.77913 7.00599C2.85225 7.00202 2.92589 7 3 7C5.20914 7 7 8.79086 7 11C7 11.384 6.94569 11.7557 6.84441 12.1076C6.94427 12.0739 7.04072 12.04 7.13301 12.006C9.54001 11.118 12.184 8.928 13.054 6.382C12.592 9.028 10.318 11.575 8.03501 12.745C7.65262 12.9414 7.29699 13.0899 6.92701 13.2226L7.88847 14.3042Z"
    fill="#62B543" fill-opacity="0.6"/>
</svg>
