<svg width="16" height="16" viewBox="0 0 16 16" fill="none" xmlns="http://www.w3.org/2000/svg">
  <path fill-rule="evenodd" clip-rule="evenodd"
        d="M8 15C11.866 15 15 11.866 15 8C15 4.13401 11.866 1 8 1C4.13401 1 1 4.13401 1 8C1 11.866 4.13401 15 8 15ZM8.03462 7.65886H7.125V5.71614H8.20355C8.5703 5.71614 8.83887 5.79913 9.00924 5.96512C9.18251 6.1311 9.26915 6.38805 9.26915 6.73598C9.26915 7.08071 9.16663 7.20879 8.9616 7.39073C8.75656 7.56948 8.44757 7.65886 8.03462 7.65886ZM9.98387 8.2765C10.4113 7.87751 10.625 7.43662 10.625 6.68331C10.625 5.95873 10.4243 5.4145 10.0229 5.05062C9.62434 4.68354 9.04101 4.5 8.27286 4.5H5.78218V11.5H7.125V8.875H8.1689C8.95438 8.875 9.55937 8.6755 9.98387 8.2765Z"
        fill="#62B543" fill-opacity="0.6"/>
</svg>
