<svg width="16" height="16" viewBox="0 0 16 16" fill="none" xmlns="http://www.w3.org/2000/svg">
  <path d="M15 8C15 11.866 11.866 15 8 15C4.13401 15 1 11.866 1 8C1 4.13401 4.13401 1 8 1C11.866 1 15 4.13401 15 8Z" fill="#62B543"
        fill-opacity="0.6"/>
  <path
    d="M7.12506 7.65886H8.03468C8.44763 7.65886 8.75662 7.56948 8.96166 7.39073C9.16669 7.20879 9.26921 7.08071 9.26921 6.73598C9.26921 6.38805 9.18257 6.1311 9.00931 5.96512C8.83893 5.79913 8.57036 5.71614 8.20361 5.71614H7.12506V7.65886ZM10.625 6.68331C10.625 7.43662 10.4113 7.87751 9.98393 8.2765C9.55943 8.6755 8.95444 8.875 8.16896 8.875H7.12506V11.5H5.78224V4.5H8.27292C9.04107 4.5 9.6244 4.68354 10.0229 5.05062C10.4243 5.4145 10.625 5.95873 10.625 6.68331Z"
    fill="#362F8A"/>
</svg>
