<svg width="16" height="16" viewBox="0 0 16 16" fill="none" xmlns="http://www.w3.org/2000/svg">
  <path fill-rule="evenodd" clip-rule="evenodd"
        d="M15 8C15 11.866 11.866 15 8 15C4.134 15 1 11.866 1 8C1 4.134 4.134 1 8 1C11.866 1 15 4.134 15 8Z" fill="#F98B9E"
        fill-opacity="0.7"/>
  <path fill-rule="evenodd" clip-rule="evenodd"
        d="M9 5.31126C8.64503 5.09139 8.27244 5 7.4982 5C5.7402 5 5 6.35802 5 8.00002C5 9.68202 5.7642 11 7.4022 11C8.21245 11 8.64416 10.8396 9 10.5688V13H10V5H9V5.31126ZM8.83737 9.44499C8.88726 9.39423 8.94061 9.33996 8.9998 9.28216L9 7C9 6.5 8.72212 5.9996 7.5 5.9996C6.371 5.9996 5.9998 6.71202 5.9998 8.00002C5.9998 9.27902 6.461 10.0216 7.5 9.99957C8.31113 9.98034 8.49106 9.7973 8.83737 9.44499Z"
        fill="#231F20" fill-opacity="0.7"/>
</svg>
