<svg width="16" height="16" viewBox="0 0 16 16" fill="none" xmlns="http://www.w3.org/2000/svg">
  <path
    d="M3.5 8.0007C2.71597 7.99178 1.93337 8.06843 1.16667 8.22923C0.872107 8.28357 0.59332 8.40059 0.35 8.57203C0.291667 8.62916 0.175 8.68629 0.116667 8.80056C0.0434817 8.87864 0.00198917 8.98025 0 9.08622V14.8566C0.0120808 14.9781 0.0519634 15.0952 0.116667 15.1994C0.175 15.3137 0.291667 15.3708 0.35 15.428C0.59332 15.5994 0.872107 15.7164 1.16667 15.7708C1.93337 15.9315 2.71597 16.0082 3.5 15.9993C4.28403 16.0082 5.06666 15.9315 5.83333 15.7708C6.12792 15.7164 6.40669 15.5994 6.65 15.428C6.75424 15.3831 6.83748 15.3015 6.88333 15.1994C6.94802 15.0952 6.98792 14.9781 7 14.8566V9.08622C6.99802 8.98025 6.95654 8.87864 6.88333 8.80056C6.825 8.68629 6.70833 8.62916 6.65 8.57203C6.40669 8.40059 6.12792 8.28357 5.83333 8.22923C5.06666 8.06843 4.28403 7.99178 3.5 8.0007ZM3.5 8.34349C4.26474 8.3346 5.02804 8.41127 5.775 8.57203C6.01802 8.64264 6.25269 8.7384 6.475 8.85769C6.65 8.97196 6.65 9.02909 6.65 9.08622C6.64177 9.13531 6.62159 9.18173 6.59114 9.22152C6.56063 9.26131 6.52079 9.2933 6.475 9.31475C6.25269 9.43405 6.01802 9.52981 5.775 9.60042C5.03574 9.80754 4.2687 9.90385 3.5 9.88608C2.73526 9.89498 1.97198 9.81831 1.225 9.65755C1.0008 9.58632 0.785546 9.49049 0.583333 9.37189C0.408333 9.25762 0.35 9.20049 0.35 9.14336C0.35 9.08622 0.408333 8.97196 0.583333 8.85769C0.785546 8.73908 1.0008 8.64325 1.225 8.57203C1.97632 8.43943 2.73684 8.36303 3.5 8.34349ZM0.35 11.6001C0.608533 11.7293 0.883027 11.8253 1.16667 11.8857C1.9286 12.0746 2.71496 12.1516 3.5 12.1143C4.28403 12.1232 5.06666 12.0465 5.83333 11.8857C6.12792 11.8314 6.40669 11.7144 6.65 11.5429V12.9141C6.62521 13.0256 6.56373 13.1259 6.475 13.1998C6.25269 13.3191 6.01802 13.4148 5.775 13.4855C5.02804 13.6462 4.26474 13.7229 3.5 13.714C2.73526 13.7229 1.97198 13.6462 1.225 13.4855C0.996572 13.4253 0.779794 13.3288 0.583333 13.1998C0.408333 13.1427 0.35 13.0284 0.35 12.9713V11.6001Z"
    fill="#F68E1E"/>
  <path fill-rule="evenodd" clip-rule="evenodd"
        d="M7.99995 11.4436V12.9399C10.0582 12.9469 12.1742 12.6896 13.4032 10.9798C15.3677 8.24624 14.2724 3.82586 13.3595 1C12.5464 2.76517 10.5458 4.12254 8.81791 4.55118C8.1083 4.72812 7.43442 4.76391 6.77512 4.79894C5.92961 4.84385 5.10807 4.88749 4.26583 5.2259C3.24121 5.63728 2.52845 6.30797 2.08337 7.0713C2.55331 7.01935 3.0264 6.99571 3.49995 7.00064C4.34913 6.9918 5.1968 7.07482 6.02754 7.24822C6.45845 7.3296 6.86742 7.50196 7.22593 7.75456L7.29196 7.80109L7.32053 7.82906C7.33856 7.84263 7.3702 7.8667 7.39893 7.89015C7.47003 7.94819 7.59135 8.05474 7.69896 8.21744C7.8867 8.45896 7.99395 8.75635 7.99978 9.06751L7.99995 9.07687V10.3487C9.99162 9.33614 11.9815 7.42786 12.6927 5.2517C12.2643 7.81958 10.1526 10.2912 8.03231 11.4263C8.0215 11.4321 8.01072 11.4379 7.99995 11.4436Z"
        fill="#91CB7B"/>
</svg>
