<svg width="16" height="16" viewBox="0 0 16 16" fill="none" xmlns="http://www.w3.org/2000/svg">
  <g clip-path="url(#clip0_656_40)">
    <path
      d="M12.7709 0C12.8839 0.334186 12.9993 0.690024 13.1121 1.0624L12.8697 1.56671C12.1586 3.04573 10.2997 4.29501 8.64891 4.68729C7.98002 4.84684 7.35013 4.87934 6.6339 4.91629C6.53321 4.92149 6.43081 4.92677 6.32635 4.93251C5.50789 4.97745 4.5834 5.05156 3.62013 5.42159C2.34598 5.91138 1.43084 6.71063 0.839478 7.63309C0.52809 7.83332 0.246286 8.07557 0.0020752 8.35182C0.0503558 6.82922 0.943113 5.13758 2.97893 4.355C3.88566 4.00669 4.7703 3.96168 5.68072 3.91536C6.39086 3.87923 7.11669 3.84229 7.88093 3.66C9.74093 3.218 11.8959 1.82 12.7709 0Z"
      fill="#62B543" fill-opacity="0.6"/>
    <path fill-rule="evenodd" clip-rule="evenodd"
          d="M7.98924 14.3051C10.2092 14.3132 12.4932 14.05 13.8189 12.2851C15.9345 9.4679 14.755 4.91231 13.7719 2C12.8962 3.81917 10.7417 5.21806 8.88088 5.65981C8.11668 5.84216 7.39097 5.87905 6.68095 5.91515C5.77041 5.96144 4.88567 6.00641 3.97864 6.35517C3.16522 6.6677 2.53431 7.12546 2.06685 7.65963C2.46883 7.55544 2.89044 7.5 3.325 7.5C5.75093 7.5 7.77334 9.22768 8.22895 11.5197C10.2957 10.4508 12.3151 8.54467 13.0537 6.38176C12.6118 8.91633 10.5072 11.3599 8.32421 12.5896C8.31359 13.1936 8.19588 13.7715 7.98924 14.3051Z"
          fill="#62B543" fill-opacity="0.7"/>
    <path fill-rule="evenodd" clip-rule="evenodd"
          d="M5.75992 14.7958C5.11188 15.4828 4.17753 15.8913 3.16053 15.838C1.5192 15.752 0.217706 14.4922 0.0269094 12.9146L1.05629 13.0046C1.274 14.0071 2.14001 14.7811 3.2138 14.8374C3.9355 14.8752 4.59774 14.5808 5.05199 14.0879L3.89742 12.9333L6.67413 12.9333V15.71L5.75992 14.7958ZM0.913006 10.222C1.56092 9.537 2.49392 9.12984 3.5093 9.18305C5.12865 9.26792 6.4172 10.4954 6.63466 12.0433L5.6019 11.9529C5.36367 10.9791 4.51067 10.2341 3.45794 10.1789C2.73617 10.1411 2.07386 10.4356 1.61961 10.9286L2.7767 12.0857L-1.52588e-05 12.0857L-1.52305e-05 9.30902L0.913006 10.222Z"
          fill="#6E6E6E"/>
  </g>
  <defs>
    <clipPath id="clip0_656_40">
      <rect width="16" height="16" fill="white"/>
    </clipPath>
  </defs>
</svg>
