<svg xmlns="http://www.w3.org/2000/svg" width="16" height="16" viewBox="0 0 16 16" fill="none">
  <path d="M7.33301 4.5C7.33301 5.70948 6.47413 6.71836 5.33301 6.94999V10H8.83301C9.66143 10 10.333 9.32843 10.333 8.5V6.94999C9.19189 6.71836 8.33301 5.70948 8.33301 4.5C8.33301 3.11929 9.4523 2 10.833 2C12.2137 2 13.333 3.11929 13.333 4.5C13.333 5.70948 12.4741 6.71836 11.333 6.94999V8.5C11.333 9.88071 10.2137 11 8.83301 11H5.33301V14H4.33301L4.33301 6.94999C3.19189 6.71836 2.33301 5.70948 2.33301 4.5C2.33301 3.11929 3.4523 2 4.83301 2C6.21372 2 7.33301 3.11929 7.33301 4.5ZM6.33301 4.5C6.33301 3.67157 5.66143 3 4.83301 3C4.00458 3 3.33301 3.67157 3.33301 4.5C3.33301 5.32843 4.00458 6 4.83301 6C5.66143 6 6.33301 5.32843 6.33301 4.5ZM12.333 4.5C12.333 3.67157 11.6614 3 10.833 3C10.0046 3 9.33301 3.67157 9.33301 4.5C9.33301 5.32843 10.0046 6 10.833 6C11.6614 6 12.333 5.32843 12.333 4.5Z" fill="#9AA7B0"/>
</svg>