<svg width="16" height="16" viewBox="0 0 16 16" fill="none" xmlns="http://www.w3.org/2000/svg">
  <path fill-rule="evenodd" clip-rule="evenodd"
        d="M12 3.34534C12.0005 3.30243 12.0005 3.25952 12 3.21661V3H13V1H3V3H4V3.21661C3.99951 3.25952 3.99951 3.30243 4 3.34534C4.0108 4.26404 4.25214 5.16608 4.70282 5.96832C4.99835 6.49445 5.37744 6.966 5.82312 7.36566C6.08868 7.60388 6.37793 7.81653 6.68726 8C6.37793 8.18347 6.08868 8.39612 5.82312 8.63434C5.37744 9.034 4.99841 9.50555 4.70282 10.0317C4.25214 10.8339 4.01074 11.736 4 12.6547C3.99951 12.6976 3.99951 12.7404 4 12.7833V13H3V15H13V13H12V12.7833C12.0005 12.7404 12.0005 12.6976 12 12.6547C11.9893 11.736 11.7479 10.8339 11.2972 10.0317C11.0016 9.50555 10.6226 9.034 10.1769 8.63434C9.91132 8.39612 9.62207 8.18347 9.31274 8C9.62207 7.81653 9.91132 7.60388 10.1769 7.36566C10.6226 6.966 11.0016 6.49445 11.2972 5.96832C11.7479 5.16608 11.9892 4.26404 12 3.34534ZM11 3.21661V3H5V3.22833C4.99078 4.01587 5.1889 4.79187 5.57465 5.47852C5.96039 6.16516 6.52008 6.73816 7.19745 7.13989L8 7.61597L8.80255 7.13989C9.47992 6.73816 10.0396 6.16516 10.4254 5.47852C10.8111 4.79187 11.0093 4.01581 11.0001 3.22833L11 3.21661ZM8 8.38403L7.19739 8.86011C6.52008 9.26184 5.96039 9.83484 5.57465 10.5215C5.1889 11.2081 4.99072 11.9841 4.99994 12.7716L5.00006 12.7833L5 13H11V12.7716C11.0092 11.9841 10.8111 11.2081 10.4254 10.5215C10.0396 9.83484 9.47992 9.26184 8.80261 8.86011L8 8.38403Z"
        fill="#9AA7B0"/>
</svg>
