<svg width="24" height="24" viewBox="0 0 24 24" fill="none" xmlns="http://www.w3.org/2000/svg">
<g clip-path="url(#clip0_4372_11809)">
<path d="M24 22.4725V9.73444C24 9.12353 23.6359 8.57131 23.0745 8.33066L9.01549 2.30513C8.82545 2.22375 8.62058 2.18164 8.41375 2.18164H1.52727C0.683782 2.18164 0 2.86542 0 3.70891V10.4461C0 10.7479 0.0894545 11.0429 0.257018 11.294L8.28327 23.3197C8.56647 23.7443 9.0432 23.9992 9.55353 23.9992L22.4727 23.9998C23.3162 23.9998 24 23.316 24 22.4725Z" fill="url(#paint0_linear_4372_11809)"/>
<path d="M21.8182 5.44473V1.52727C21.8182 0.683782 21.1344 0 20.2909 0H15.3812C15.3089 0 15.2367 0.00523636 15.1652 0.0152727L1.31127 1.9944C0.558764 2.10175 0 2.74625 0 3.50618V9.38356C0 10.2273 0.684 10.9111 1.52771 10.9108L8.47964 10.9091C8.64371 10.9091 8.80669 10.8827 8.96225 10.8308L20.774 6.89345C21.3975 6.68553 21.8182 6.10189 21.8182 5.44451V5.44473Z" fill="url(#paint1_linear_4372_11809)"/>
<path d="M21.8178 5.98036L21.8171 1.52705C21.8171 0.683782 21.1334 0 20.2899 0H15.9749C15.5291 0 15.1054 0.194836 14.8152 0.533236L2.54928 14.8438C2.31211 15.1207 2.18164 15.4732 2.18164 15.8378V20.2911C2.18164 21.1346 2.86542 21.8184 3.70891 21.8184H8.02455C8.47029 21.8184 8.894 21.6236 9.18419 21.2852L21.4501 6.97462C21.6875 6.69775 21.8178 6.34516 21.8178 5.98036Z" fill="#00D980"/>
<path d="M20 4H4V20H20V4Z" fill="black"/>
<path d="M8.8958 12.2093C8.32414 12.2093 7.80643 12.0754 7.34266 11.8082C6.87912 11.5378 6.515 11.1682 6.25032 10.6989C5.98586 10.2269 5.85352 9.70051 5.85352 9.12016C5.85352 8.53982 5.98586 8.01502 6.25032 7.54576C6.51477 7.07376 6.87889 6.70371 7.34266 6.43651C7.8062 6.16611 8.32392 6.03125 8.8958 6.03125C9.37923 6.03125 9.82312 6.12085 10.227 6.30005C10.6309 6.47925 10.9664 6.73091 11.2339 7.05525C11.504 7.37685 11.6846 7.74645 11.7758 8.16451H10.5555C10.4757 7.94851 10.3564 7.75925 10.1971 7.59696C10.0405 7.43216 9.85146 7.30531 9.62952 7.21731C9.40757 7.12931 9.16574 7.08496 8.90426 7.08496C8.55157 7.08496 8.23294 7.17296 7.9486 7.34942C7.66426 7.52588 7.44094 7.76908 7.27866 8.07902C7.11934 8.38622 7.0398 8.73342 7.0398 9.12016C7.0398 9.50691 7.11934 9.85571 7.27866 10.1654C7.44072 10.4726 7.66403 10.7142 7.9486 10.8907C8.23294 11.0671 8.55157 11.1551 8.90426 11.1551C9.16597 11.1551 9.4078 11.1108 9.62952 11.0228C9.85146 10.9348 10.0405 10.8095 10.1971 10.6473C10.3564 10.4825 10.4757 10.2916 10.5555 10.0756H11.7758C11.6848 10.4936 11.504 10.8649 11.2339 11.1892C10.9664 11.5108 10.6309 11.7608 10.227 11.9401C9.82312 12.1193 9.37923 12.2089 8.8958 12.2089V12.2093ZM13.7737 6.13342V11.0571H16.6069V12.1067H12.6133V6.13342H13.7737Z" fill="white"/>
<path d="M12 17H6V18H12V17Z" fill="white"/>
</g>
<defs>
<linearGradient id="paint0_linear_4372_11809" x1="1.49302" y1="1.58317" x2="23.5076" y2="23.5975" gradientUnits="userSpaceOnUse">
<stop offset="0.29" stop-color="#009AE5"/>
<stop offset="0.7" stop-color="#FF318C"/>
</linearGradient>
<linearGradient id="paint1_linear_4372_11809" x1="21.142" y1="-0.269018" x2="1.03222" y2="9.05455" gradientUnits="userSpaceOnUse">
<stop offset="0.3" stop-color="#00D980"/>
<stop offset="0.54" stop-color="#009AE5"/>
</linearGradient>
<clipPath id="clip0_4372_11809">
<rect width="24" height="24" fill="white"/>
</clipPath>
</defs>
</svg>
