<svg width="256" height="256" viewBox="0 0 256 256" fill="none" xmlns="http://www.w3.org/2000/svg">
<g clip-path="url(#clip0_4372_11813)">
<path d="M256 239.709L256 103.836C256 97.3198 252.116 91.4295 246.128 88.8625L96.1652 24.5902C94.1382 23.7221 91.9529 23.2729 89.7466 23.2729L16.2909 23.2729C7.29367 23.2729 0 30.5666 0 39.5639L0 111.428C0 114.646 0.954182 117.793 2.74153 120.472L88.3549 248.746C91.3757 253.275 96.4608 255.993 101.904 255.993L239.709 256C248.706 256 256 248.707 256 239.709Z" fill="url(#paint0_linear_4372_11813)"/>
<path d="M232.727 58.0771V16.2909C232.727 7.29367 225.434 0 216.436 0L164.066 0C163.295 0 162.525 0.0558545 161.762 0.162909L13.9869 21.2736C5.96014 22.4186 0 29.2934 0 37.3993L0 100.091C0 109.091 7.296 116.385 16.2956 116.382L90.4495 116.364C92.1996 116.364 93.938 116.082 95.5974 115.528L221.589 73.5302C228.24 71.3123 232.727 65.0868 232.727 58.0748V58.0771Z" fill="url(#paint1_linear_4372_11813)"/>
<path d="M232.725 63.7905L232.718 16.2886C232.718 7.29367 225.425 0 216.427 0L170.401 0C165.646 0 161.127 2.07825 158.031 5.68785L27.1944 158.334C24.6647 161.287 23.2729 165.048 23.2729 168.937L23.2729 216.439C23.2729 225.436 30.5666 232.73 39.5639 232.73H85.5973C90.3519 232.73 94.8715 230.651 97.9668 227.042L228.804 74.3959C231.336 71.4426 232.725 67.6817 232.725 63.7905Z" fill="#00D980"/>
<path d="M209 47L47 47L47 209L209 209L209 47Z" fill="black"/>
<path d="M133 177H69V187H133V177Z" fill="white"/>
<path d="M96.5719 130.118C90.7839 130.118 85.5421 128.762 80.8464 126.056C76.153 123.318 72.4663 119.576 69.7864 114.825C67.1088 110.046 65.7688 104.716 65.7688 98.8402C65.7688 92.9642 67.1088 87.6506 69.7864 82.8994C72.464 78.1204 76.1507 74.3736 80.8464 71.6682C85.5397 68.9304 90.7816 67.5649 96.5719 67.5649C101.467 67.5649 105.961 68.4721 110.05 70.2865C114.14 72.1009 117.537 74.649 120.245 77.9329C122.98 81.1891 124.809 84.9313 125.732 89.1642L113.376 89.1642C112.568 86.9772 111.36 85.0609 109.747 83.4178C108.162 81.7492 106.248 80.4648 104.001 79.5738C101.754 78.6828 99.3051 78.2338 96.6576 78.2338C93.0866 78.2338 89.8605 79.1248 86.9815 80.9114C84.1026 82.6981 81.8415 85.1605 80.1984 88.2986C78.5853 91.409 77.7799 94.9244 77.7799 98.8402C77.7799 102.756 78.5853 106.288 80.1984 109.423C81.8392 112.534 84.1003 114.98 86.9815 116.767C89.8605 118.553 93.0866 119.444 96.6576 119.444C99.3074 119.444 101.756 118.995 104.001 118.104C106.248 117.213 108.162 115.945 109.747 114.302C111.36 112.633 112.568 110.701 113.376 108.514H125.732C124.811 112.747 122.98 116.505 120.245 119.789C117.537 123.045 114.14 125.577 110.05 127.392C105.961 129.206 101.467 130.113 96.5719 130.113V130.118ZM145.961 68.5994V118.451H174.647V129.079H134.211V68.5994H145.961Z" fill="white"/>
</g>
<defs>
<linearGradient id="paint0_linear_4372_11813" x1="15.9255" y1="16.8892" x2="250.747" y2="251.709" gradientUnits="userSpaceOnUse">
<stop offset="0.29" stop-color="#009AE5"/>
<stop offset="0.7" stop-color="#FF318C"/>
</linearGradient>
<linearGradient id="paint1_linear_4372_11813" x1="225.515" y1="-2.86952" x2="11.0103" y2="96.5818" gradientUnits="userSpaceOnUse">
<stop offset="0.3" stop-color="#00D980"/>
<stop offset="0.54" stop-color="#009AE5"/>
</linearGradient>
<clipPath id="clip0_4372_11813">
<rect width="256" height="256" fill="white"/>
</clipPath>
</defs>
</svg>
