<svg width="48" height="48" viewBox="0 0 48 48" fill="none" xmlns="http://www.w3.org/2000/svg">
<g clip-path="url(#clip0_4372_11811)">
<path d="M48 44.9456V19.4694C48 18.2476 47.2717 17.1431 46.1489 16.6618L18.031 4.61075C17.6509 4.44799 17.2412 4.36377 16.8275 4.36377H3.05455C1.36756 4.36377 0 5.73133 0 7.41831V20.8928C0 21.4963 0.178909 22.0862 0.514036 22.5885L16.5665 46.64C17.1329 47.4891 18.0864 47.9988 19.1071 47.9988L44.9455 48.0001C46.6324 48.0001 48 46.6326 48 44.9456Z" fill="url(#paint0_linear_4372_11811)"/>
<path d="M43.6364 10.8895V3.05455C43.6364 1.36756 42.2688 0 40.5818 0H30.7623C30.6179 0 30.4735 0.0104727 30.3303 0.0305455L2.62255 3.9888C1.11753 4.20349 0 5.49251 0 7.01236V18.7671C0 20.4545 1.368 21.8221 3.05542 21.8217L16.9593 21.8182C17.2874 21.8182 17.6134 21.7654 17.9245 21.6615L41.5479 13.7869C42.7951 13.3711 43.6364 12.2038 43.6364 10.889V10.8895Z" fill="url(#paint1_linear_4372_11811)"/>
<path d="M43.6361 11.9607L43.6348 3.05411C43.6348 1.36756 42.2672 0 40.5802 0H31.9502C31.0588 0 30.2113 0.389673 29.631 1.06647L5.09904 29.6876C4.62471 30.2413 4.36377 30.9465 4.36377 31.6756V40.5823C4.36377 42.2692 5.73133 43.6368 7.41831 43.6368H16.0496C16.9411 43.6368 17.7885 43.2471 18.3689 42.5703L42.9008 13.9492C43.3756 13.3955 43.6361 12.6903 43.6361 11.9607Z" fill="#00D980"/>
<path d="M39 9H9V39H39V9Z" fill="black"/>
<path d="M24.9998 33H12.9998V35.0001H24.9998V33Z" fill="white"/>
<path d="M18.1801 24.392C17.1083 24.392 16.1375 24.1408 15.268 23.6398C14.3988 23.1328 13.7161 22.4398 13.2198 21.56C12.724 20.675 12.4758 19.688 12.4758 18.5998C12.4758 17.5117 12.724 16.5277 13.2198 15.6478C13.7157 14.7628 14.3984 14.069 15.268 13.568C16.1371 13.061 17.1078 12.8081 18.1801 12.8081C19.0865 12.8081 19.9188 12.9761 20.6761 13.3121C21.4334 13.6481 22.0625 14.12 22.564 14.7281C23.0705 15.3311 23.4091 16.0241 23.5801 16.808H21.292C21.1424 16.403 20.9187 16.0481 20.62 15.7438C20.3264 15.4348 19.972 15.197 19.5558 15.032C19.1397 14.867 18.6863 14.7838 18.196 14.7838C17.5347 14.7838 16.9373 14.9488 16.4041 15.2797C15.871 15.6105 15.4523 16.0665 15.148 16.6477C14.8493 17.2237 14.7001 17.8747 14.7001 18.5998C14.7001 19.325 14.8493 19.979 15.148 20.5597C15.4518 21.1357 15.8705 21.5887 16.4041 21.9195C16.9373 22.2504 17.5347 22.4154 18.196 22.4154C18.6867 22.4154 19.1401 22.3322 19.5558 22.1672C19.972 22.0022 20.3264 21.7674 20.62 21.4631C20.9187 21.1541 21.1424 20.7962 21.292 20.3912H23.5801C23.4095 21.1751 23.0705 21.8711 22.564 22.4792C22.0625 23.0822 21.4334 23.5511 20.6761 23.8871C19.9188 24.2231 19.0865 24.3911 18.1801 24.3911V24.392ZM27.3263 12.9997V22.2315H32.6384V24.1995H25.1504V12.9997H27.3263Z" fill="white"/>
</g>
<defs>
<linearGradient id="paint0_linear_4372_11811" x1="2.98604" y1="3.16682" x2="47.0151" y2="47.1955" gradientUnits="userSpaceOnUse">
<stop offset="0.29" stop-color="#009AE5"/>
<stop offset="0.7" stop-color="#FF318C"/>
</linearGradient>
<linearGradient id="paint1_linear_4372_11811" x1="42.2841" y1="-0.538035" x2="2.06444" y2="18.1091" gradientUnits="userSpaceOnUse">
<stop offset="0.3" stop-color="#00D980"/>
<stop offset="0.54" stop-color="#009AE5"/>
</linearGradient>
<clipPath id="clip0_4372_11811">
<rect width="48" height="48" fill="white"/>
</clipPath>
</defs>
</svg>
