<svg width="32" height="32" viewBox="0 0 32 32" fill="none" xmlns="http://www.w3.org/2000/svg">
<g clip-path="url(#clip0_4372_11810)">
<path d="M32 29.9637V12.9796C32 12.165 31.5145 11.4287 30.766 11.1079L12.0207 3.07383C11.7673 2.96533 11.4941 2.90918 11.2183 2.90918H2.03636C0.911709 2.90918 0 3.82089 0 4.94554V13.9285C0 14.3309 0.119273 14.7242 0.342691 15.059L11.0444 31.0933C11.422 31.6594 12.0576 31.9992 12.738 31.9992L29.9636 32.0001C31.0883 32.0001 32 31.0884 32 29.9637Z" fill="url(#paint0_linear_4372_11810)"/>
<path d="M29.0909 7.25964V2.03636C29.0909 0.911709 28.1792 0 27.0545 0H20.5082C20.4119 0 20.3156 0.00698182 20.2202 0.0203636L1.74836 2.6592C0.745018 2.80233 0 3.66167 0 4.67491V12.5114C0 13.6364 0.912 14.5481 2.03695 14.5478L11.3062 14.5455C11.5249 14.5455 11.7423 14.5103 11.9497 14.441L27.6986 9.19127C28.53 8.91404 29.0909 8.13585 29.0909 7.25935V7.25964Z" fill="url(#paint1_linear_4372_11810)"/>
<path d="M29.0907 7.97382L29.0898 2.03607C29.0898 0.911709 28.1781 0 27.0535 0H21.3002C20.7058 0 20.1409 0.259782 19.754 0.710982L3.39936 19.7917C3.08314 20.1609 2.90918 20.631 2.90918 21.1171V27.0548C2.90918 28.1795 3.82089 29.0912 4.94554 29.0912H10.6997C11.2941 29.0912 11.859 28.8314 12.2459 28.3802L28.6005 9.29949C28.917 8.93033 29.0907 8.46022 29.0907 7.97382Z" fill="#00D980"/>
<path d="M26 6H6V26H26V6Z" fill="black"/>
<path d="M12.0511 16.6668C11.3243 16.6668 10.6661 16.4965 10.0765 16.1568C9.48722 15.8131 9.02431 15.3432 8.68781 14.7466C8.3516 14.1466 8.18335 13.4773 8.18335 12.7395C8.18335 12.0017 8.3516 11.3345 8.68781 10.7379C9.02402 10.1379 9.48693 9.66741 10.0765 9.32771C10.6659 8.98395 11.324 8.8125 12.0511 8.8125C12.6657 8.8125 13.23 8.92641 13.7435 9.15423C14.2569 9.38205 14.6835 9.70199 15.0235 10.1143C15.367 10.5232 15.5966 10.9931 15.7125 11.5246H14.1611C14.0596 11.25 13.908 11.0094 13.7054 10.803C13.5064 10.5935 13.266 10.4322 12.9839 10.3204C12.7017 10.2085 12.3943 10.1521 12.0618 10.1521C11.6135 10.1521 11.2084 10.264 10.8469 10.4883C10.4854 10.7127 10.2015 11.0218 9.99517 11.4159C9.79263 11.8064 9.69151 12.2478 9.69151 12.7395C9.69151 13.2312 9.79263 13.6746 9.99517 14.0684C10.2012 14.4589 10.4851 14.7661 10.8469 14.9904C11.2084 15.2148 11.6135 15.3266 12.0618 15.3266C12.3946 15.3266 12.702 15.2703 12.9839 15.1584C13.266 15.0465 13.5064 14.8873 13.7054 14.6809C13.908 14.4714 14.0596 14.2288 14.1611 13.9542H15.7125C15.5969 14.4857 15.367 14.9576 15.0235 15.3699C14.6835 15.7788 14.2569 16.0967 13.7435 16.3245C13.23 16.5523 12.6657 16.6662 12.0511 16.6662V16.6668ZM18.2525 8.94239V15.202H21.8544V16.5364H16.7772V8.94239H18.2525Z" fill="white"/>
<path d="M16 22H9V23H16V22Z" fill="white"/>
</g>
<defs>
<linearGradient id="paint0_linear_4372_11810" x1="1.99069" y1="2.11122" x2="31.3434" y2="31.4637" gradientUnits="userSpaceOnUse">
<stop offset="0.29" stop-color="#009AE5"/>
<stop offset="0.7" stop-color="#FF318C"/>
</linearGradient>
<linearGradient id="paint1_linear_4372_11810" x1="28.1894" y1="-0.35869" x2="1.37629" y2="12.0727" gradientUnits="userSpaceOnUse">
<stop offset="0.3" stop-color="#00D980"/>
<stop offset="0.54" stop-color="#009AE5"/>
</linearGradient>
<clipPath id="clip0_4372_11810">
<rect width="32" height="32" fill="white"/>
</clipPath>
</defs>
</svg>
